<svg width="44" height="63" viewBox="0 0 44 63" fill="none" xmlns="http://www.w3.org/2000/svg">
<path d="M21.6651 0C33.5687 0 43.2186 9.54984 43.2188 21.3301C43.2188 33.1105 33.5689 42.6611 21.6651 42.6611C15.0238 42.6611 9.08467 39.6877 5.13089 35.0137L5.00004 60.0156C4.99273 61.3962 3.86791 62.5091 2.48734 62.502C1.10665 62.4947 -0.00721718 61.3699 3.5215e-05 59.9893L0.193395 23.1895C0.139943 22.5768 0.111363 21.9565 0.111363 21.3301C0.11157 9.54984 9.76142 4.08071e-06 21.6651 0Z" fill="#0694B7"/>
<path d="M32.1035 10.9953C30.7347 9.62734 29.1063 8.54049 27.3119 7.79721C25.5174 7.05392 23.5922 6.66885 21.6469 6.66411C19.7016 6.65937 17.7745 7.03506 15.9763 7.76959C14.1782 8.50413 12.5444 9.58304 11.1688 10.9443C9.79329 12.3056 8.70309 13.9225 7.96086 15.702C7.21863 17.4815 6.83901 19.3886 6.84379 21.3138C6.84858 23.2389 7.23769 25.1442 7.98876 26.92C8.73983 28.6959 9.83806 30.3074 11.2204 31.662C12.5891 33.03 14.2175 34.1168 16.012 34.8601C17.8065 35.6034 19.7317 35.9885 21.677 35.9932C23.6223 35.998 25.5494 35.6223 27.3475 34.8877C29.1457 34.1532 30.7795 33.0743 32.155 31.713C33.5306 30.3517 34.6208 28.7349 35.363 26.9553C36.1052 25.1758 36.4849 23.2687 36.4801 21.3436C36.4753 19.4184 36.0862 17.5132 35.3351 15.7373C34.584 13.9614 33.4858 12.3499 32.1035 10.9953ZM9.00469 21.3287C9.00419 20.22 9.15272 19.1163 9.44637 18.0464C9.93025 19.0772 10.633 19.9678 11.1109 21.0253C11.7286 22.3849 13.3873 22.0078 14.1197 23.1991C14.7697 24.2566 14.0755 25.594 14.562 26.7005C14.9154 27.5036 15.7486 27.6791 16.3235 28.2663C16.9109 28.8587 16.8983 29.6702 16.988 30.4427C17.0891 31.3502 17.2532 32.2499 17.4791 33.1351C17.4791 33.1417 17.4791 33.1488 17.4844 33.1554C12.5514 31.4408 9.00469 26.7873 9.00469 21.3287ZM21.6619 33.8547C20.9551 33.8545 20.2494 33.7961 19.5524 33.6799C19.5596 33.5031 19.5629 33.338 19.5807 33.2232C19.7409 32.1859 20.2657 31.1714 20.9737 30.3951C21.6731 29.6291 22.6317 29.1111 23.2223 28.2421C23.8011 27.394 23.9745 26.2523 23.7359 25.2613C23.3845 23.7973 21.3745 23.3087 20.2907 22.5147C19.6678 22.058 19.1133 21.3522 18.2952 21.2947C17.9182 21.2686 17.6024 21.3489 17.2286 21.2536C16.8858 21.1656 16.6168 20.9829 16.2516 21.0305C15.5693 21.1192 15.1388 21.8408 14.4058 21.7429C13.7103 21.6509 12.9937 20.8452 12.8355 20.1896C12.6324 19.3467 13.3062 19.0733 14.028 18.9983C14.3293 18.967 14.6675 18.9331 14.9569 19.0427C15.3379 19.1823 15.5179 19.5515 15.86 19.7381C16.5015 20.0865 16.6313 19.53 16.5331 18.9663C16.3861 18.1221 16.2147 17.7783 16.9755 17.197C17.5028 16.7964 17.9538 16.5068 17.8694 15.7872C17.8193 15.3644 17.5852 15.1733 17.8035 14.7525C17.9689 14.4322 18.4231 14.1431 18.7191 13.952C19.4832 13.4588 21.9922 13.4953 20.9671 12.1148C20.6658 11.7097 20.1101 10.9855 19.5827 10.8864C18.9235 10.7631 18.6308 11.4911 18.1713 11.8121C17.6967 12.1442 16.7724 12.5213 16.2971 12.0078C15.6577 11.317 16.721 11.0906 16.9563 10.6078C17.0651 10.3827 16.9563 10.0702 16.7731 9.77598C17.0108 9.67682 17.2526 9.58483 17.4982 9.50002C17.6522 9.61256 17.8348 9.68034 18.0256 9.69574C18.4666 9.72444 18.8826 9.48828 19.2676 9.78577C19.6948 10.112 20.0026 10.5243 20.5696 10.6261C21.1181 10.7246 21.6988 10.4082 21.8347 9.85232C21.9171 9.51437 21.8347 9.15751 21.7555 8.80848C24.2211 8.82252 26.6281 9.55324 28.6775 10.9099C28.5456 10.8603 28.3881 10.8661 28.1936 10.9555C27.7934 11.1395 27.2265 11.6079 27.1797 12.0724C27.1263 12.5996 27.9121 12.6739 28.2852 12.6739C28.8456 12.6739 29.4132 12.426 29.2325 11.7854C29.1541 11.5075 29.0473 11.2184 28.8752 11.0436C29.2889 11.3276 29.6851 11.6356 30.0619 11.9661C30.0559 11.972 30.05 11.9772 30.0441 11.9837C29.6643 12.3751 29.2233 12.685 28.9636 13.1613C28.7803 13.4966 28.574 13.6558 28.2028 13.7426C27.9985 13.7902 27.7651 13.8078 27.5937 13.9435C27.1164 14.3154 27.388 15.2092 27.8402 15.4773C28.4118 15.8159 29.2596 15.6567 29.6907 15.1733C30.0276 14.7949 30.226 14.1379 30.8318 14.1386C31.0986 14.138 31.3548 14.2414 31.5451 14.4263C31.7956 14.6833 31.7462 14.9234 31.7996 15.2444C31.8939 15.8146 32.4021 15.5054 32.7113 15.2176C32.9367 15.6146 33.14 16.0234 33.3204 16.4422C32.9803 16.9269 32.71 17.4554 31.8919 16.8904C31.4021 16.5518 31.1008 16.0605 30.4857 15.9079C29.9485 15.7774 29.398 15.9131 28.8673 16.0038C28.2641 16.1075 27.5489 16.1532 27.0914 16.6053C26.649 17.0411 26.415 17.6243 25.9443 18.0621C25.0339 18.9102 24.6496 19.836 25.2389 21.0351C25.8059 22.1879 26.9918 22.8135 28.2714 22.7313C29.5285 22.6485 30.8345 21.9269 30.7982 23.7347C30.785 24.3747 30.9202 24.8177 31.1186 25.412C31.3025 25.96 31.29 26.4911 31.3322 27.0567C31.3723 27.7191 31.477 28.376 31.6447 29.0185C30.4631 30.5241 28.9494 31.7425 27.2192 32.5807C25.4891 33.4189 23.5883 33.8546 21.6619 33.8547Z" fill="white"/>
</svg>
