<?xml version="1.0" encoding="utf-8"?>
<!-- Generator: Adobe Illustrator 27.5.0, SVG Export Plug-In . SVG Version: 6.00 Build 0)  -->
<svg version="1.1" id="Layer_1" xmlns="http://www.w3.org/2000/svg" xmlns:xlink="http://www.w3.org/1999/xlink" x="0px" y="0px"
	 viewBox="0 0 800 450" style="enable-background:new 0 0 800 450;" xml:space="preserve">
<g>
	<rect style="fill:#FFFFFF;" width="800" height="450"/>
	<g>
		
			<rect x="146.516" y="301.158" style="fill:none;stroke:#C2E4FF;stroke-width:2;stroke-linecap:round;stroke-linejoin:round;stroke-miterlimit:10;" width="215.93" height="78.243"/>
		
			<rect x="221.36" y="238.314" transform="matrix(-1.836970e-16 1 -1 -1.836970e-16 594.7605 85.7977)" style="fill:none;stroke:#C2E4FF;stroke-width:2;stroke-linecap:round;stroke-linejoin:round;stroke-miterlimit:10;" width="66.243" height="203.93"/>
		
			<line style="fill:none;stroke:#C2E4FF;stroke-width:2;stroke-linecap:round;stroke-linejoin:round;stroke-miterlimit:10;" x1="254.481" y1="307.158" x2="254.481" y2="373.401"/>
		
			<line style="fill:none;stroke:#C2E4FF;stroke-width:2;stroke-linecap:round;stroke-linejoin:round;stroke-miterlimit:10;" x1="356.447" y1="340.279" x2="254.481" y2="340.279"/>
		<g>
			
				<polygon style="fill:none;stroke:#C2E4FF;stroke-width:2;stroke-linecap:round;stroke-linejoin:round;stroke-miterlimit:10;" points="
				174.505,405.131 168.134,405.131 174.703,379.401 185.876,379.401 			"/>
			
				<polygon style="fill:none;stroke:#C2E4FF;stroke-width:2;stroke-linecap:round;stroke-linejoin:round;stroke-miterlimit:10;" points="
				334.458,405.131 340.829,405.131 334.26,379.401 323.087,379.401 			"/>
		</g>
	</g>
	<g>
		<path style="fill:#0055C5;" d="M291.666,213.025H174.021c-7.674,0-13.896-6.221-13.896-13.896V73.038
			c0-7.674,6.221-13.896,13.896-13.896h117.645c7.674,0,13.896,6.221,13.896,13.896V199.13
			C305.562,206.804,299.341,213.025,291.666,213.025z"/>
		<g>
			<path style="fill:#FFFFFF;" d="M189.531,154.837L189.531,154.837c-3.977,0-7.2,3.224-7.2,7.2v21.858c0,3.976,3.223,7.2,7.2,7.2
				l0,0c3.976,0,7.2-3.224,7.2-7.2v-21.858C196.731,158.061,193.508,154.837,189.531,154.837z"/>
			<path style="fill:#FFFFFF;" d="M218.406,136.987L218.406,136.987c-3.976,0-7.2,3.223-7.2,7.2v39.708c0,3.976,3.224,7.2,7.2,7.2
				l0,0c3.977,0,7.2-3.224,7.2-7.2v-39.708C225.606,140.21,222.383,136.987,218.406,136.987z"/>
			<path style="fill:#FFFFFF;" d="M247.281,99.183L247.281,99.183c-3.977,0-7.2,3.224-7.2,7.2v77.512c0,3.976,3.223,7.2,7.2,7.2h0
				c3.976,0,7.2-3.224,7.2-7.2v-77.512C254.481,102.407,251.258,99.183,247.281,99.183z"/>
			<path style="fill:#FFFFFF;" d="M276.156,81.073L276.156,81.073c-3.977,0-7.2,3.224-7.2,7.2v95.622c0,3.976,3.224,7.2,7.2,7.2l0,0
				c3.976,0,7.2-3.224,7.2-7.2V88.273C283.356,84.297,280.133,81.073,276.156,81.073z"/>
		</g>
	</g>
	<g>
		<g>
			<path style="fill:#FFFFFF;" d="M434.079,282.087H312.983c-10.749,0-19.463-8.714-19.463-19.463V105.663
				c0-10.749,8.714-19.463,19.463-19.463h121.097c10.749,0,19.463,8.714,19.463,19.463v156.962
				C453.542,273.374,444.828,282.087,434.079,282.087z"/>
			<path style="fill:#FFD600;" d="M293.52,105.663c0-10.749,8.714-19.463,19.463-19.463h121.097
				c10.749,0,19.463,8.714,19.463,19.463H293.52z"/>
			<path style="fill:none;stroke:#252543;stroke-width:2;stroke-linecap:round;stroke-linejoin:round;stroke-miterlimit:10;" d="
				M434.079,282.087H312.983c-10.749,0-19.463-8.714-19.463-19.463V105.663c0-10.749,8.714-19.463,19.463-19.463h121.097
				c10.749,0,19.463,8.714,19.463,19.463v156.962C453.542,273.374,444.828,282.087,434.079,282.087z"/>
			<g>
				<path style="fill:#FFFFFF;" d="M315.304,95.931c0,1.334-1.081,2.415-2.415,2.415c-1.334,0-2.415-1.081-2.415-2.415
					c0-1.334,1.081-2.415,2.415-2.415C314.223,93.516,315.304,94.598,315.304,95.931z"/>
				<path style="fill:#FFFFFF;" d="M327.742,95.931c0,1.334-1.081,2.415-2.415,2.415c-1.334,0-2.415-1.081-2.415-2.415
					c0-1.334,1.081-2.415,2.415-2.415C326.66,93.516,327.742,94.598,327.742,95.931z"/>
				<path style="fill:#FFFFFF;" d="M340.179,95.931c0,1.334-1.081,2.415-2.415,2.415s-2.415-1.081-2.415-2.415
					c0-1.334,1.081-2.415,2.415-2.415S340.179,94.598,340.179,95.931z"/>
			</g>
		</g>
		<g>
			<defs>
				<path id="XMLID_00000141457284882992678190000005628230704222756496_" d="M419.403,192.057h-91.744
					c-5.106,0-9.245-4.139-9.245-9.245v-46.609c0-5.106,4.139-9.245,9.245-9.245h91.744c5.106,0,9.245,4.139,9.245,9.245v46.609
					C428.648,187.918,424.509,192.057,419.403,192.057z"/>
			</defs>
			<use xlink:href="#XMLID_00000141457284882992678190000005628230704222756496_"  style="overflow:visible;fill:#FFD600;"/>
			<clipPath id="XMLID_00000113321827559967235880000016952825784192031122_">
				<use xlink:href="#XMLID_00000141457284882992678190000005628230704222756496_"  style="overflow:visible;"/>
			</clipPath>
			<path style="clip-path:url(#XMLID_00000113321827559967235880000016952825784192031122_);fill:#FFFFFF;" d="M372.189,159.626
				c4.262-5.73,9.395-11.967,16.511-12.564c7.339-0.616,13.548,5.019,18.731,10.252c4.712,4.757,9.423,9.514,14.135,14.271
				c4.707,4.752,9.723,10.2,9.858,16.887c0.111,5.461-3.26,10.563-7.716,13.723c-4.456,3.16-9.876,4.647-15.252,5.617
				c-13.597,2.451-27.714,1.852-41.087-1.587c-6.47-1.664-14.395-3.758-19.973-7.579c-3.812-2.611-1.017-4.326,1.375-7.54
				c2.342-3.148,4.684-6.296,7.025-9.444C361.261,174.317,366.725,166.971,372.189,159.626z"/>
			
				<circle style="clip-path:url(#XMLID_00000113321827559967235880000016952825784192031122_);fill:#FFFFFF;" cx="344.723" cy="150.133" r="9.374"/>
		</g>
		<path style="fill:#203961;" d="M373.382,222.025h-49.086c-3.249,0-5.882-2.634-5.882-5.882l0,0c0-3.249,2.634-5.882,5.882-5.882
			h49.086c3.249,0,5.882,2.634,5.882,5.882l0,0C379.264,219.391,376.631,222.025,373.382,222.025z"/>
		<path style="fill:#203961;" d="M356.58,240.889h-32.284c-3.249,0-5.882-2.634-5.882-5.882l0,0c0-3.249,2.634-5.882,5.882-5.882
			h32.284c3.249,0,5.882,2.634,5.882,5.882l0,0C362.463,238.256,359.829,240.889,356.58,240.889z"/>
		
			<line style="fill:none;stroke:#252543;stroke-width:2;stroke-linecap:round;stroke-linejoin:round;stroke-miterlimit:10;" x1="314.716" y1="258.245" x2="432.345" y2="258.245"/>
	</g>
	<g>
		<path style="fill:#203961;" d="M486.197,182.031V50.517c0-7.185,5.824-13.009,13.009-13.009h73.311
			c7.185,0,13.009,5.824,13.009,13.009v131.514c0,7.185-5.824,13.009-13.009,13.009h-73.311
			C492.022,195.04,486.197,189.215,486.197,182.031z"/>
		<path style="fill:#FFFFFF;" d="M503.137,103.653V58.532c0-1.748,1.417-3.165,3.165-3.165h45.121c1.748,0,3.165,1.417,3.165,3.165
			v45.121c0,1.748-1.417,3.165-3.165,3.165h-45.121C504.554,106.818,503.137,105.401,503.137,103.653z"/>
		<g>
			<path style="fill:#FFD600;" d="M563.858,154.097h-55.993c-2.611,0-4.728-2.117-4.728-4.728l0,0c0-2.611,2.117-4.728,4.728-4.728
				h55.993c2.611,0,4.728,2.117,4.728,4.728l0,0C568.586,151.98,566.469,154.097,563.858,154.097z"/>
			<path style="fill:#FFD600;" d="M547.357,173.008h-39.492c-2.611,0-4.728-2.117-4.728-4.728l0,0c0-2.611,2.117-4.728,4.728-4.728
				h39.492c2.611,0,4.728,2.117,4.728,4.728l0,0C552.085,170.891,549.968,173.008,547.357,173.008z"/>
		</g>
	</g>
	<g>
		<path style="fill:#AFD9F0;" d="M583.276,310.974h99.442c2.611,0,4.727-2.116,4.727-4.727l0,0c0-2.611-2.116-4.727-4.727-4.727
			h-99.442c-2.611,0-4.727,2.116-4.727,4.727l0,0C578.549,308.857,580.665,310.974,583.276,310.974z"/>
		<path style="fill:#AFD9F0;" d="M637.563,224.75h57.748c6.148,0,10.503,6.003,8.596,11.847l-21.188,64.923h-76.77l23.019-70.534
			C630.181,227.266,633.65,224.75,637.563,224.75z"/>
		<polygon style="fill:#AFD9F0;" points="700.701,404.424 704.242,404.424 677.347,310.974 669.042,310.974 		"/>
		<polygon style="fill:#AFD9F0;" points="562.598,404.424 559.057,404.424 585.952,310.974 594.257,310.974 		"/>
		<polygon style="fill:#AFD9F0;" points="606.34,404.424 602.8,404.424 612.095,310.974 620.4,310.974 		"/>
	</g>
	<g>
		<path style="fill:#AFD9F0;" d="M443.261,310.974h99.442c2.611,0,4.727-2.116,4.727-4.727l0,0c0-2.611-2.116-4.727-4.727-4.727
			h-99.442c-2.611,0-4.727,2.116-4.727,4.727l0,0C438.534,308.857,440.65,310.974,443.261,310.974z"/>
		<path style="fill:#AFD9F0;" d="M497.548,224.75h57.748c6.148,0,10.503,6.003,8.596,11.847l-21.188,64.923h-76.77l23.019-70.534
			C490.167,227.266,493.635,224.75,497.548,224.75z"/>
		<polygon style="fill:#AFD9F0;" points="560.686,404.424 564.227,404.424 537.332,310.974 529.027,310.974 		"/>
		<polygon style="fill:#AFD9F0;" points="422.583,404.424 419.043,404.424 445.937,310.974 454.242,310.974 		"/>
		<polygon style="fill:#AFD9F0;" points="466.325,404.424 462.785,404.424 472.08,310.974 480.385,310.974 		"/>
	</g>
	<g>
		<g>
			<g>
				<g>
					<path style="fill:#FFD5CE;" d="M541.831,229.737c2.001,4.781,7.5,7.035,12.281,5.034c4.781-2.001,7.035-7.5,5.034-12.281
						c-2.001-4.782-7.5-7.035-12.281-5.034C542.083,219.457,539.829,224.956,541.831,229.737z"/>
					<path style="fill:#FFD5CE;" d="M516.498,192.647c2.318,5.538,8.687,8.149,14.225,5.831s8.149-8.687,5.831-14.225
						s-8.687-8.149-14.225-5.831C516.791,180.739,514.18,187.108,516.498,192.647z"/>
					<polygon style="fill:#FFD5CE;" points="536.555,184.252 559.146,222.49 541.831,229.737 516.498,192.647 					"/>
				</g>
				<path style="fill:#0055C5;" d="M516.422,192.683c0.589,1.407,1.447,2.622,2.5,3.61l10.742,15.489l19.88-7.083l-12.366-20.703
					c-2.319-5.541-8.842-8.086-14.576-5.686C516.869,180.71,514.103,187.142,516.422,192.683z"/>
				<polygon style="fill:#D7EBFF;" points="548.416,202.146 550.9,206.134 528.972,213.309 526.488,209.323 				"/>
				
					<line style="fill:none;stroke:#D7EBFF;stroke-linecap:round;stroke-miterlimit:10;" x1="525.911" y1="206.572" x2="521.613" y2="200.283"/>
			</g>
			<g>
				<g>
					<path style="fill:#FFD5CE;" d="M545.941,235.028c4.672,2.246,10.279,0.279,12.525-4.392c2.246-4.672,0.28-10.279-4.392-12.525
						c-4.672-2.246-10.279-0.279-12.525,4.392C539.304,227.174,541.27,232.782,545.941,235.028z"/>
					<path style="fill:#FFD5CE;" d="M520.596,270.161c2.725,1.31,5.996,0.163,7.306-2.562c1.31-2.725,0.163-5.996-2.562-7.306
						c-2.725-1.31-5.996-0.163-7.306,2.562C516.724,265.58,517.872,268.851,520.596,270.161z"/>
					<polygon style="fill:#FFD5CE;" points="541.549,222.503 518.034,262.855 527.902,267.599 558.467,230.636 					"/>
				</g>
				<path style="fill:none;stroke:#E38C72;stroke-linecap:round;stroke-miterlimit:10;" d="M531.731,239.41l7.754-13.694
					c0,0,1.642-3.416,5.631-4.5"/>
			</g>
			<g>
				<g>
					<path style="fill:#FFD5CE;" d="M513.607,267.986c-0.334,0.596,1.796,1.996,5.408,3.821c3.3,1.668,6.121,2.866,6.511,2.293
						l0.188-0.267c0.008-0.012,0.016-0.025,0.023-0.038l0.002,0.001c0,0,0.497-0.729,0.754-1.107
						c3.393-4.98,4.584-10.398-0.164-13.335c-4.657-2.88-8.601,0.834-11.542,6.095c-0.213,0.38-0.404,0.762-0.581,1.143
						c-0.02,0.029-0.039,0.058-0.056,0.089L513.607,267.986z"/>
				</g>
				<path style="fill:#FFD5CE;" d="M514.348,265.793c0.42-0.688,1.302-0.915,1.969-0.507l0,0c0.667,0.408,0.919,1.511,0.5,2.199
					l-7.274,11.553c-0.42,0.688-1.302,0.915-1.969,0.507l0,0c-0.667-0.408-0.867-1.296-0.447-1.984L514.348,265.793z"/>
				<g>
					<path style="fill:#FFD5CE;" d="M516.785,260.289c0.921-0.327,4.684-2.128,5.235-1.104l0.426,0.112
						c0.422,1.275-3.366,6.111-4.456,5.892l-3.567-0.832c-0.922,0.326-1.954,0.914-2.22-0.014l0,0
						c-0.265-0.928,0.288-1.78,1.133-2.294C514.708,261.214,516.785,260.289,516.785,260.289z"/>
				</g>
				<g>
					<path style="fill:#FFD5CE;" d="M513.525,261.921c1.228,0.012,2.579,1.338,2.328,2.465l0.117,0.255
						c-0.251,1.128-0.368,0.957-1.594,1.026c-1.968,0.11-4.671-1.353-4.671-1.353c-1.398-0.695-2.441-2.241-2.269-2.935l0,0
						c0.138-0.702,0.782-1.377,1.29-1.36C508.727,260.019,510.276,261.889,513.525,261.921z"/>
				</g>
				<path style="fill:#FFD5CE;" d="M517.04,274.397l3.027-4.841c0.538-0.86,0.276-1.992-0.583-2.53l0,0
					c-0.86-0.538-1.992-0.276-2.53,0.583l-3.027,4.841c-0.538,0.86-0.276,1.992,0.583,2.53l0,0
					C515.369,275.518,516.502,275.257,517.04,274.397z"/>
				<path style="fill:#FFD5CE;" d="M520.278,275.955l3.027-4.841c0.538-0.86,0.276-1.992-0.583-2.53l0,0
					c-0.86-0.538-1.992-0.276-2.53,0.583l-3.027,4.841c-0.538,0.86-0.276,1.992,0.583,2.53l0,0
					C518.608,277.076,519.741,276.814,520.278,275.955z"/>
				<path style="fill:#FFD5CE;" d="M523.637,277.084l3.027-4.841c0.538-0.86,0.276-1.992-0.583-2.53l0,0
					c-0.86-0.538-1.993-0.276-2.53,0.583l-3.027,4.841c-0.538,0.86-0.276,1.992,0.583,2.53l0,0
					C521.967,278.205,523.099,277.944,523.637,277.084z"/>
			</g>
		</g>
		<g>
			<g>
				<g>
					<path style="fill:#FFD5CE;" d="M434.262,208.407c-4.312,2.877-5.475,8.704-2.598,13.016c2.877,4.312,8.704,5.475,13.016,2.598
						c4.312-2.877,5.475-8.704,2.598-13.016C444.401,206.693,438.574,205.53,434.262,208.407z"/>
					<path style="fill:#FFD5CE;" d="M416.932,168.704c-2.515,1.678-3.194,5.077-1.516,7.592c1.678,2.515,5.077,3.193,7.592,1.516
						c2.515-1.678,3.194-5.077,1.516-7.592C422.846,167.704,419.447,167.026,416.932,168.704z"/>
					<polygon style="fill:#FFD5CE;" points="447.278,211.005 424.524,170.219 415.416,176.296 431.664,221.423 					"/>
				</g>
				<path style="fill:none;stroke:#E38C72;stroke-linecap:round;stroke-miterlimit:10;" d="M434.604,188.244l7.837,13.647
					c0,0,2.104,3.153,1.006,7.137"/>
			</g>
			<g>
				<g>
					<path style="fill:#FFD5CE;" d="M434.262,208.407c-4.312,2.877-5.475,8.704-2.598,13.016c2.877,4.312,8.704,5.475,13.016,2.598
						c4.312-2.877,5.475-8.704,2.598-13.016C444.401,206.693,438.574,205.53,434.262,208.407z"/>
					<path style="fill:#FFD5CE;" d="M465.838,176.463c-4.994,3.332-6.342,10.082-3.009,15.077
						c3.332,4.994,10.082,6.342,15.077,3.009c4.994-3.332,6.342-10.082,3.01-15.077
						C477.582,174.479,470.832,173.131,465.838,176.463z"/>
					<polygon style="fill:#FFD5CE;" points="477.905,194.549 444.68,224.021 434.262,208.407 465.838,176.463 					"/>
				</g>
				<path style="fill:#0055C5;" d="M465.514,175.609c-1.269,0.846-2.29,1.932-3.045,3.175l-13.062,13.639l11.244,18.909
					l17.883-16.21c4.997-3.334,6.131-10.401,2.535-15.791C477.472,173.941,470.511,172.275,465.514,175.609z"/>
				<polygon style="fill:#D7EBFF;" points="463.461,210.516 460.053,213.764 447.82,192.101 451.226,188.853 				"/>
				
					<line style="fill:none;stroke:#D7EBFF;stroke-linecap:round;stroke-miterlimit:10;" x1="456.792" y1="194.32" x2="463.253" y2="190.285"/>
			</g>
			<g>
				<g>
					<path style="fill:#FFD5CE;" d="M419.873,157.072c-0.343-0.591-2.633,0.53-6.042,2.709c-3.116,1.991-5.583,3.808-5.289,4.436
						l0.134,0.298c0.006,0.013,0.013,0.026,0.02,0.039l-0.002,0.001c0,0,0.375,0.799,0.569,1.213
						c2.558,5.456,6.615,9.24,11.56,6.649c4.85-2.541,3.662-7.827,0.632-13.037c-0.219-0.377-0.45-0.736-0.688-1.082
						c-0.014-0.032-0.03-0.063-0.048-0.093L419.873,157.072z"/>
				</g>
				<path style="fill:#FFD5CE;" d="M421.383,158.826c0.378,0.712,0.124,1.586-0.566,1.953l0,0c-0.69,0.367-1.769,0.022-2.147-0.69
					l-6.239-12.143c-0.378-0.712-0.125-1.586,0.566-1.953l0,0c0.691-0.367,1.557-0.087,1.935,0.625L421.383,158.826z"/>
				<g>
					<path style="fill:#FFD5CE;" d="M424.879,163.727c-0.188,0.959-0.553,5.115-1.716,5.067l-0.313,0.31
						c-1.312-0.286-3.546-6.009-2.801-6.836l2.532-2.646c0.189-0.959,0.208-2.147,1.143-1.903l0,0
						c0.934,0.244,1.385,1.154,1.397,2.143C425.141,161.468,424.879,163.727,424.879,163.727z"/>
				</g>
				<g>
					<path style="fill:#FFD5CE;" d="M425.134,160.09c-0.636,1.051-2.465,1.539-3.306,0.748l-0.279-0.029
						c-0.843-0.79-0.636-0.804-0.071-1.894c0.908-1.749,3.542-3.331,3.542-3.331c1.31-0.849,3.172-0.959,3.681-0.458l0,0
						c0.534,0.476,0.787,1.374,0.513,1.803C429.214,156.929,426.815,157.31,425.134,160.09z"/>
				</g>
				<path style="fill:#FFD5CE;" d="M412.607,156.761l2.625,5.07c0.466,0.9,1.574,1.253,2.475,0.786l0,0
					c0.9-0.466,1.253-1.574,0.786-2.475l-2.625-5.07c-0.466-0.9-1.574-1.253-2.475-0.786l0,0
					C412.493,154.753,412.141,155.861,412.607,156.761z"/>
				<path style="fill:#FFD5CE;" d="M409.617,158.756l2.625,5.07c0.466,0.9,1.574,1.253,2.474,0.786h0
					c0.9-0.466,1.253-1.574,0.786-2.475l-2.625-5.07c-0.466-0.9-1.574-1.253-2.475-0.786l0,0
					C409.503,156.747,409.151,157.855,409.617,158.756z"/>
				<path style="fill:#FFD5CE;" d="M406.935,161.071l2.625,5.07c0.466,0.9,1.574,1.253,2.474,0.786l0,0
					c0.901-0.466,1.253-1.574,0.786-2.475l-2.625-5.07c-0.466-0.9-1.574-1.253-2.474-0.786l0,0
					C406.821,159.063,406.469,160.171,406.935,161.071z"/>
			</g>
		</g>
		<path style="fill:#203961;" d="M517.094,160.488c1.266,2.53,2.53,5.045,2.727,7.835c0.233,3.291-1.071,6.486-2.527,9.446
			c-1.142,2.32-2.68,4.814-5.2,5.396c-2.491,0.574-4.921-0.941-7.156-2.18c-7.168-3.975-15.592-5.645-23.734-4.705
			c-2.722,0.314-5.919,0.757-7.807-1.23c-1.484-1.563-1.467-4.015-1.028-6.125c0.888-4.269,3.078-8.131,4.887-12.098
			c1.133-2.486,2.294-5.042,2.753-7.755c0.249-1.47,0.007-2.645-0.123-4.078c-0.128-1.417,0.421-2.012,1.354-3.131
			c3.708-4.445,9.31-7.408,15.153-7.423c6.641-0.017,13.255,4.027,15.807,10.158c1.523,3.657,1.614,7.762,2.923,11.501
			C515.65,157.6,516.372,159.046,517.094,160.488z"/>
		<g>
			<g>
				<path style="fill:#FFB89B;" d="M426.94,396.567c6.757-5.01,11.859-8.65,16.368-12.053l7.653,5.191l-9.831,6.313l-12.737,4.302
					L426.94,396.567z"/>
				<polygon style="fill:#FFB89B;" points="459.209,383.12 447.622,353.167 432.31,359.092 444.504,388.999 				"/>
				<path style="fill:#0055C5;" d="M421.293,405.994l36.507-14.127l0.671-3.988l1.88,3.001l1.833-0.709l-0.259-3.734
					c0,0-0.691-6.531-4.62-8.862c-8.447,7.794-17.587,14.983-30.365,18.993l-6.829,6.981
					C420.012,404.363,420.472,405.781,421.293,405.994z"/>
			</g>
			<g>
				<path style="fill:#E7F4FF;" d="M421.294,405.993l36.506-14.127l0.427-2.546l-38.112,14.748
					C420.199,404.86,420.626,405.818,421.294,405.993z"/>
				<polygon style="fill:#E7F4FF;" points="462.021,387.853 459.147,388.965 460.355,390.878 462.183,390.17 				"/>
			</g>
		</g>
		<g>
			<g>
				<path style="fill:#FFB89B;" d="M381.452,382.858c8.256,1.611,14.384,2.924,19.938,3.959l1.327,9.152l-11.291-3.003
					l-11.766-6.505L381.452,382.858z"/>
				<polygon style="fill:#FFB89B;" points="413.141,397.618 427.446,368.863 412.745,361.552 398.884,390.724 				"/>
				<path style="fill:#0055C5;" d="M370.683,385.045l35.05,17.432l3.398-2.194l-0.948,3.412l1.76,0.875l2.582-2.709
					c0,0,4.357-4.914,3.428-9.388c-11.451-0.981-22.923-2.883-34.501-9.615l-9.76-0.335
					C371.023,382.999,370.286,384.295,370.683,385.045z"/>
			</g>
			<g>
				<path style="fill:#E7F4FF;" d="M370.684,385.045l35.049,17.431l2.168-1.401l-36.591-18.198
					C370.783,383.472,370.363,384.434,370.684,385.045z"/>
				<polygon style="fill:#E7F4FF;" points="411.543,402.886 408.784,401.514 408.185,403.696 409.941,404.569 				"/>
			</g>
		</g>
		<g>
			<defs>
				<polygon id="XMLID_00000103961003053722854710000018282803762182225050_" points="522.769,251.57 475.538,251.57 
					471.446,174.867 525.088,177.624 				"/>
			</defs>
			<use xlink:href="#XMLID_00000103961003053722854710000018282803762182225050_"  style="overflow:visible;fill:#0055C5;"/>
			<clipPath id="XMLID_00000116212028297012294130000015791975365810839426_">
				<use xlink:href="#XMLID_00000103961003053722854710000018282803762182225050_"  style="overflow:visible;"/>
			</clipPath>
		</g>
		<g>
			<polygon style="fill:#203961;" points="419.296,309.842 412.421,281.805 480.691,262.611 488.188,298.507 			"/>
			
				<ellipse transform="matrix(0.2415 -0.9704 0.9704 0.2415 95.2107 682.8892)" style="fill:#203961;" cx="484.436" cy="280.54" rx="18.356" ry="18.356"/>
			<path style="fill:#203961;" d="M404.845,287.813c-4.253,6.781-2.203,15.726,4.578,19.978c3.061,1.919,6.562,2.555,9.874,2.051
				c4.026-0.612,7.772-2.909,10.105-6.629c4.253-6.781,2.203-15.726-4.578-19.978C418.042,278.982,409.097,281.032,404.845,287.813z
				"/>
		</g>
		<path style="fill:#203961;" d="M467.532,273.335l8.006-21.764h47.231l6.507,21.721c0.106,2.002-1.071,3.85-2.93,4.6l-22.938,9.254
			c-4.753,1.918-10.091,1.768-14.729-0.412l-18.473-8.683C468.404,277.203,467.333,275.314,467.532,273.335z"/>
		<path style="fill:#D7EBFF;" d="M484.021,178.205c0.903,5.748,5.789,9.929,11.599,9.929c0.622,0,1.235-0.052,1.847-0.145
			c5.685-0.903,9.773-5.737,9.929-11.277l-23.488-1.203C483.845,176.389,483.876,177.292,484.021,178.205z"/>
		<g>
			
				<ellipse transform="matrix(0.9502 -0.3117 0.3117 0.9502 -30.2826 163.2995)" style="fill:#FFD5CE;" cx="495.641" cy="176.37" rx="9.689" ry="9.689"/>
			<polygon style="fill:#FFD5CE;" points="505.212,174.86 503.123,161.62 484.6,164.416 486.07,177.88 			"/>
		</g>
		<g>
			<path style="fill:#FFD5CE;" d="M506.765,154.938c0,0,5.765-1.191,5.139,5.139c-0.627,6.329-8.007,4.518-8.007,4.518
				L506.765,154.938z"/>
			<g>
				<path style="fill:none;stroke:#BF736A;stroke-width:0.5;stroke-linecap:round;stroke-miterlimit:10;" d="M507.825,157.445
					c1.005-0.138,1.872,0.224,2.204,0.887c0.102,0.203,0.176,0.415,0.226,0.632c0.112,0.494,0.093,1.014-0.047,1.503
					c-0.138,0.483-0.397,0.949-0.812,1.279c-0.415,0.33-0.997,0.507-1.536,0.393"/>
				<path style="fill:none;stroke:#BF736A;stroke-width:0.5;stroke-linecap:round;stroke-miterlimit:10;" d="M507.645,160.115
					c-0.366-0.738,1.228-1.977,2.616-0.698"/>
			</g>
		</g>
		<path style="opacity:0.1;" d="M485.923,176.522l-0.354-3.185c2.582,0.357,13.071-1.434,17.416-7.43
			C502.985,166.747,494.321,182.237,485.923,176.522z"/>
		<path style="fill:#FFD5CE;" d="M505.429,162.768c0,0-7.673,10.746-13.438,12.376c-5.765,1.629-9.372-1.825-9.372-7.738v-15.124
			c0-3.916,2.173-7.565,5.705-9.255c2.998-1.434,7.235-2.147,12.844-0.187C514.077,147.352,505.429,162.768,505.429,162.768z"/>
		<path style="fill:none;stroke:#BF736A;stroke-width:0.75;stroke-linecap:round;stroke-miterlimit:10;" d="M488.761,154.557
			c-0.742-0.742-2.451-0.871-3.321,0"/>
		<path style="fill:none;stroke:#BF736A;stroke-width:0.75;stroke-linecap:round;stroke-miterlimit:10;" d="M496.377,154.557
			c-0.742-0.742-2.451-0.871-3.321,0"/>
		<circle style="fill:#EDBFB9;" cx="496.377" cy="162.922" r="2.207"/>
		<circle style="fill:#EDBFB9;" cx="485.062" cy="162.922" r="2.207"/>
		<path style="fill:none;stroke:#FFFFFF;stroke-linecap:round;stroke-miterlimit:10;" d="M473.909,258.59
			c0,0,0.122,13.584-3.008,18.965"/>
		<g>
			<g>
				<polygon style="fill:#203961;" points="456.017,374.778 441.216,380.934 403.349,301.733 430.31,291.097 				"/>
				<circle style="fill:#203961;" cx="416.794" cy="296.328" r="14.493"/>
			</g>
			<polygon style="fill:#002647;" points="455.151,371.961 440,378.391 441.216,380.934 456.017,374.778 			"/>
		</g>
		<g>
			<polygon style="fill:#203961;" points="453.431,321.447 441.46,295.177 504.969,263.62 519.012,297.495 			"/>
			
				<ellipse transform="matrix(0.6225 -0.7827 0.7827 0.6225 -26.2709 506.6201)" style="fill:#203961;" cx="511.983" cy="280.54" rx="18.356" ry="18.356"/>
			<path style="fill:#203961;" d="M435.134,302.489c-2.917,7.454,0.76,15.861,8.214,18.778c3.364,1.317,6.923,1.29,10.083,0.179
				c3.842-1.351,7.095-4.303,8.695-8.393c2.917-7.454-0.76-15.861-8.214-18.778C446.458,291.358,438.051,295.036,435.134,302.489z"
				/>
		</g>
		<g>
			<g>
				<polygon style="fill:#203961;" points="417.149,389.636 402.622,382.858 435.572,301.488 461.607,314.225 				"/>
				
					<ellipse transform="matrix(0.9994 -0.0332 0.0332 0.9994 -9.9699 15.063)" style="fill:#203961;" cx="448.63" cy="307.771" rx="14.493" ry="14.493"/>
			</g>
			<polygon style="fill:#002647;" points="418.645,387.097 403.68,380.245 402.622,382.858 417.149,389.636 			"/>
		</g>
		
			<line style="fill:none;stroke:#FFFFFF;stroke-linecap:round;stroke-miterlimit:10;" x1="483.513" y1="274.669" x2="437.389" y2="295.233"/>
		<path style="fill:none;stroke:#FFFFFF;stroke-linecap:round;stroke-miterlimit:10;" d="M521.906,259.981
			c0,0-1.379,15.165,5.765,19.427"/>
		<polygon style="fill:#2250B8;" points="522.769,251.57 475.538,251.57 474.37,254.746 523.573,254.252 		"/>
		<path style="fill:#203961;" d="M504.247,147.296c0,0-12.202,10.568-23.551,2.444c0,0,1.349-16.826,25.971-9.172
			C506.668,140.568,506.843,145.444,504.247,147.296z"/>
		<path style="fill:#203961;" d="M500.306,147.973c0,0-2.011,10.116,3.59,14.201c0,0,9.299-6.653,1.957-17.086
			C505.854,145.088,500.815,146.454,500.306,147.973z"/>
		<path style="fill:none;stroke:#B52B60;stroke-linecap:round;stroke-miterlimit:10;" d="M487.522,168.592
			c0,0,1.726,1.108,3.135-0.244"/>
		<path style="fill:none;stroke:#BF736A;stroke-width:0.5;stroke-linecap:round;stroke-miterlimit:10;" d="M490.11,160.126
			c0,0-2.266,3.009-2.023,3.474c0.244,0.465,1.646,0.622,1.646,0.622"/>
		<g>
			<path style="fill:#2E1124;" d="M485.92,157.456c0,0.569,0.325,1.029,0.725,1.029c0.4,0,0.725-0.461,0.725-1.029
				s-0.325-1.029-0.725-1.029C486.244,156.427,485.92,156.887,485.92,157.456z"/>
			<path style="fill:none;stroke:#2E1124;stroke-width:0.5;stroke-linecap:round;stroke-miterlimit:10;" d="M486.166,156.862
				c-0.197-0.033-0.382-0.178-0.493-0.389"/>
		</g>
		<g>
			<path style="fill:#2E1124;" d="M493.603,157.456c0,0.569,0.324,1.029,0.725,1.029c0.4,0,0.725-0.461,0.725-1.029
				s-0.325-1.029-0.725-1.029C493.927,156.427,493.603,156.887,493.603,157.456z"/>
			<path style="fill:none;stroke:#2E1124;stroke-width:0.5;stroke-linecap:round;stroke-miterlimit:10;" d="M495.259,156.764
				c-0.092,0.178-0.287,0.308-0.522,0.349"/>
		</g>
		<path style="fill:none;stroke:#002647;stroke-linecap:round;stroke-miterlimit:10;" d="M503.18,139.153
			c-4.084-1.69-8.849-1.659-12.911,0.083"/>
		<path style="fill:none;stroke:#002647;stroke-linecap:round;stroke-miterlimit:10;" d="M502.863,141.43
			c-3.442-0.538-7.004-0.298-10.343,0.698"/>
		<path style="fill:none;stroke:#002647;stroke-linecap:round;stroke-miterlimit:10;" d="M504.857,140.437
			c2.27,1.893,3.636,4.824,3.626,7.78"/>
		<path style="fill:#D7EBFF;" d="M495.201,187.384c0,0-0.424,5.215,3.587,7.283c0,0,10.725-9.78,8.608-17.956
			C507.396,176.711,503.673,186.507,495.201,187.384z"/>
		<path style="fill:#D7EBFF;" d="M493.832,186.834c0,0,0.289,5.41-3.721,7.478c0,0-9.773-7.979-6.203-18.804
			C483.907,175.508,485.359,185.956,493.832,186.834z"/>
		<circle style="fill:#D7EBFF;" cx="494.277" cy="193.778" r="1.221"/>
		<circle style="fill:#D7EBFF;" cx="494.277" cy="200.587" r="1.221"/>
		<circle style="fill:#D7EBFF;" cx="494.277" cy="207.397" r="1.221"/>
	</g>
	<g>
		<g>
			<g>
				<path style="fill:#FFB89B;" d="M487.846,375.728c6.987,4.114,12.135,7.274,16.85,9.997l-1.731,8.744l-9.299-6.353l-8.606-9.688
					L487.846,375.728z"/>
				<polygon style="fill:#FFB89B;" points="511.91,399.314 534.141,377.77 523.126,366.407 501.165,388.473 				"/>
				<path style="fill:#FFD600;" d="M477.356,374.259l26.262,27.092l3.792-0.904l-1.957,2.797l1.319,1.36l3.216-1.634
					c0,0,5.537-3.068,6.129-7.432c-10.093-4.567-19.909-9.977-28.271-19.812l-8.763-3.437
					C478.322,372.51,477.236,373.451,477.356,374.259z"/>
			</g>
			<g>
				<path style="fill:#0055C5;" d="M477.357,374.261l26.261,27.091l2.421-0.577l-27.416-28.283
					C477.952,372.863,477.261,373.602,477.357,374.261z"/>
				<polygon style="fill:#0055C5;" points="508.767,403.589 506.7,401.456 505.456,403.247 506.771,404.604 				"/>
			</g>
		</g>
		<g>
			<g>
				<path style="fill:#FFB89B;" d="M593.527,400.069c6.511-4.832,11.427-8.342,15.772-11.624l7.379,5.001l-9.474,6.089
					l-12.276,4.152L593.527,400.069z"/>
				<polygon style="fill:#FFB89B;" points="624.625,387.095 613.445,358.228 598.688,363.946 610.454,392.768 				"/>
				<path style="fill:#FFD600;" d="M588.088,409.158l35.183-13.632l0.645-3.845l1.814,2.892l1.767-0.685l-0.251-3.599
					c0,0-0.668-6.294-4.457-8.54c-8.138,7.516-16.945,14.448-29.261,18.319l-6.58,6.732
					C586.853,407.586,587.296,408.953,588.088,409.158z"/>
			</g>
			<g>
				<path style="fill:#0055C5;" d="M588.09,409.157l35.182-13.631l0.411-2.454l-36.729,14.231
					C587.034,408.065,587.445,408.989,588.09,409.157z"/>
				<polygon style="fill:#0055C5;" points="627.338,391.656 624.568,392.729 625.733,394.573 627.495,393.89 				"/>
			</g>
		</g>
		<g>
			<polygon style="fill:#203961;" points="587.269,316.963 577.789,290.802 641.237,265.369 652.123,298.997 			"/>
			<path style="fill:#203961;" d="M630.766,274.423c-4.277,8.786-0.621,19.376,8.165,23.652c8.786,4.277,19.376,0.621,23.652-8.165
				c4.277-8.786,0.621-19.376-8.165-23.652C645.632,261.981,635.042,265.637,630.766,274.423z"/>
			<path style="fill:#203961;" d="M571.148,297.341c-3.376,6.937-0.49,15.298,6.447,18.674c3.131,1.524,6.552,1.772,9.674,0.948
				c3.795-1.002,7.148-3.589,9-7.395c3.376-6.937,0.49-15.298-6.447-18.674C582.885,287.517,574.524,290.404,571.148,297.341z"/>
		</g>
		<g>
			<g>
				<polygon style="fill:#203961;" points="621.545,379.056 607.281,384.996 570.751,308.67 596.734,298.407 				"/>
				
					<ellipse transform="matrix(0.5242 -0.8516 0.8516 0.5242 19.313 641.4755)" style="fill:#203961;" cx="583.709" cy="303.455" rx="13.97" ry="13.97"/>
			</g>
			<polygon style="fill:#0055C5;" points="620.71,376.341 606.108,382.545 607.281,384.996 621.545,379.056 			"/>
		</g>
		<g>
			<g>
				<g>
					<circle style="fill:#FFD5CE;" cx="615.18" cy="233.194" r="9.046"/>
					
						<ellipse transform="matrix(0.9732 -0.2298 0.2298 0.9732 -27.5724 144.7692)" style="fill:#FFD5CE;" cx="607.892" cy="190.788" rx="10.478" ry="10.478"/>
					<polygon style="fill:#FFD5CE;" points="618.37,190.788 624.227,233.194 606.134,233.194 597.413,190.788 					"/>
				</g>
				<path style="fill:#FFD600;" d="M596.555,190.59c0,1.47,0.318,2.87,0.902,4.14l3.883,17.77l20.827,1.1l-3.374-23.01
					c0-5.79-4.976-10.48-11.119-10.48C601.531,180.11,596.555,184.8,596.555,190.59z"/>
				<polygon style="fill:#0055C5;" points="623.001,210.911 623.77,215.38 600.25,213.6 599.481,209.131 				"/>
				
					<line style="fill:none;stroke:#2166F2;stroke-linecap:round;stroke-miterlimit:10;" x1="606.892" y1="207.594" x2="607.112" y2="200.255"/>
			</g>
			<g>
				<g>
					<circle style="fill:#FFD5CE;" cx="615.18" cy="233.194" r="9.046"/>
					<circle style="fill:#FFD5CE;" cx="570.306" cy="225.85" r="5.277"/>
					<polygon style="fill:#FFD5CE;" points="615.18,224.148 570.306,220.573 570.306,231.126 615.18,242.24 					"/>
				</g>
				<path style="fill:none;stroke:#E38C72;stroke-linecap:round;stroke-miterlimit:10;" d="M590.151,222.133l15.134,1.017
					c0,0,3.654,0,6.261,3.012"/>
			</g>
			<g>
				<g>
					<path style="fill:#FFD5CE;" d="M557.426,222.785c-0.656-0.057-0.838,1.021-0.687,2.774c0.138,1.601,0.446,2.938,1.109,3.022
						l0.312,0.042c0.014,0.002,0.028,0.003,0.042,0.005l0,0.001c0,0,0.843,0.106,1.28,0.161c5.759,0.726,10.858,0.476,11.111-1.901
						c0.248-2.332-4.706-3.461-10.488-3.96c-0.418-0.036-0.828-0.063-1.229-0.085c-0.033-0.004-0.067-0.008-0.1-0.011
						L557.426,222.785z"/>
				</g>
				<g>
					<path style="fill:#FFD5CE;" d="M567.005,221.409c0.665,0.668,3.787,3.201,3.122,4.104l0.078,0.417
						c-0.937,0.894-6.713-0.409-6.971-1.45l-0.748-3.45c-0.665-0.668-1.602-1.324-0.904-1.939l0,0
						c0.699-0.614,1.669-0.484,2.466,0.04C565.342,219.982,567.005,221.409,567.005,221.409z"/>
				</g>
				<g>
					<path style="fill:#FFD5CE;" d="M562.099,218.485c1.182,0.071,2.419,1.412,2.122,2.485l0.101,0.251
						c-0.296,1.074-0.401,0.904-1.584,0.91c-1.9,0.011-4.431-1.527-4.431-1.527c-1.312-0.737-2.242-2.275-2.043-2.934l0,0
						c0.167-0.669,0.819-1.288,1.308-1.247C557.571,216.423,558.973,218.298,562.099,218.485z"/>
				</g>
				<path style="fill:#FFD5CE;" d="M557.721,226.237l5.332-1.363c0.947-0.242,1.518-1.206,1.276-2.153l0,0
					c-0.242-0.947-1.206-1.518-2.153-1.276l-5.332,1.363c-0.947,0.242-1.518,1.206-1.276,2.153l0,0
					C555.81,225.908,556.774,226.479,557.721,226.237z"/>
				<path style="fill:#FFD5CE;" d="M549.793,226.649l5.49,0.387c0.975,0.069,1.821-0.666,1.89-1.641l0,0
					c0.069-0.975-0.666-1.821-1.641-1.89l-5.49-0.387c-0.975-0.069-1.821,0.666-1.89,1.641l0,0
					C548.083,225.734,548.818,226.581,549.793,226.649z"/>
				<path style="fill:#FFD5CE;" d="M553.568,226.31l5.49,0.387c0.975,0.069,1.821-0.666,1.89-1.641l0,0
					c0.069-0.975-0.666-1.821-1.641-1.89l-5.49-0.387c-0.975-0.069-1.821,0.666-1.89,1.641l0,0
					C551.859,225.395,552.593,226.241,553.568,226.31z"/>
				<path style="fill:#FFD5CE;" d="M560.416,225.947c0.773,0.078,1.338,0.749,1.263,1.499l0,0c-0.075,0.75-0.929,1.43-1.702,1.352
					l-13.074-1.493c-0.773-0.078-1.339-0.749-1.263-1.499l0,0c0.075-0.75,0.763-1.295,1.536-1.217L560.416,225.947z"/>
				<path style="fill:none;stroke:#E38C72;stroke-linecap:round;stroke-miterlimit:10;" d="M558.849,225.174
					c-1.228,0.475-4.393,0.25-6.013-0.102"/>
				<path style="fill:none;stroke:#E38C72;stroke-linecap:round;stroke-miterlimit:10;" d="M564.316,223.773
					c-0.794-0.406-1.541-0.849-2.067-1.219"/>
			</g>
		</g>
		<g>
			<path style="fill:#203961;" d="M628.907,143.02c0.022-0.208-3.154-4.432-5.952-3.311c-2.798,1.121-11.39,7.826-11.514,21.366
				c-0.124,13.54,26.296,17.034,26.296,17.034L628.907,143.02z"/>
			<path style="fill:none;stroke:#4D4D4D;stroke-width:0.0601;stroke-miterlimit:10;" d="M620.228,141.652
				c-3.284,1.304-5.902,4.183-6.887,7.577"/>
			<path style="fill:none;stroke:#4D4D4D;stroke-width:0.0601;stroke-miterlimit:10;" d="M627.682,141.883
				c-0.197-1.065-0.053-2.19,0.405-3.171c0.458-0.981,1.228-1.814,2.171-2.346"/>
			<path style="fill:none;stroke:#4D4D4D;stroke-width:0.0601;stroke-miterlimit:10;" d="M627.944,142.38
				c-0.429-1.132-0.87-2.277-1.574-3.261c-0.705-0.984-1.714-1.807-2.904-2.031"/>
		</g>
		<g>
			<path style="fill:#203961;" d="M625.645,141.373c0,0,0.878-6.788,9.884-3.048s21.269,12.922,22.665,21.055
				c0.828,4.109-6.406,15.537-12.542,18.683c-2.958,1.517-19.651,3.009-22.538-12.847S625.645,141.373,625.645,141.373z"/>
			<path style="fill:none;stroke:#4D4D4D;stroke-width:0.0601;stroke-miterlimit:10;" d="M635.388,139.19
				c6.69,1.544,12.943,4.941,17.879,9.715"/>
			<path style="fill:none;stroke:#4D4D4D;stroke-width:0.0601;stroke-miterlimit:10;" d="M635.165,139.447
				c4.462-0.216,8.985,1.297,12.419,4.155"/>
			
				<path style="fill:none;stroke:#B3B3B3;stroke-width:0.1202;stroke-linecap:round;stroke-linejoin:round;stroke-miterlimit:10;" d="
				M631.145,141.058c2.901,0.117,5.542,1.646,7.939,3.284c3.241,2.215,6.31,4.731,8.809,7.76c2.499,3.028,4.416,6.596,5.165,10.45"
				/>
			
				<path style="fill:none;stroke:#B3B3B3;stroke-width:0.1202;stroke-linecap:round;stroke-linejoin:round;stroke-miterlimit:10;" d="
				M641.894,151.013c4.366,7.203,5.664,16.199,3.511,24.342"/>
		</g>
		<g>
			<defs>
				<polygon id="XMLID_00000173120343460048586530000011802187018543478681_" points="657.07,254.242 611.545,254.242 
					607.601,180.309 659.305,182.967 				"/>
			</defs>
			<use xlink:href="#XMLID_00000173120343460048586530000011802187018543478681_"  style="overflow:visible;fill:#FFD600;"/>
			<clipPath id="XMLID_00000103959488723616257010000007524637767348543896_">
				<use xlink:href="#XMLID_00000173120343460048586530000011802187018543478681_"  style="overflow:visible;"/>
			</clipPath>
		</g>
		<g>
			<polygon style="fill:#203961;" points="582.154,339.597 562.107,320.299 607.833,269.489 632.435,294.869 			"/>
			
				<ellipse transform="matrix(0.9232 -0.3843 0.3843 0.9232 -60.8161 259.9763)" style="fill:#203961;" cx="620.122" cy="282.166" rx="17.693" ry="17.693"/>
			<path style="fill:#203961;" d="M559.031,329.097c0.029,7.715,6.307,13.946,14.023,13.916c3.482-0.013,6.662-1.299,9.1-3.416
				c2.964-2.573,4.832-6.373,4.816-10.606c-0.029-7.715-6.307-13.946-14.023-13.916
				C565.232,315.103,559.002,321.382,559.031,329.097z"/>
		</g>
		<path style="fill:#203961;" d="M603.828,275.221l7.717-20.978h45.525l6.272,20.937c0.102,1.93-1.033,3.711-2.825,4.434
			l-22.11,8.92c-4.582,1.848-9.726,1.704-14.197-0.397l-17.806-8.37C604.669,278.95,603.637,277.128,603.828,275.221z"/>
		<path style="fill:#0055C5;" d="M619.722,183.527c0.87,5.54,5.58,9.57,11.18,9.57c0.6,0,1.19-0.05,1.78-0.14
			c5.48-0.87,9.42-5.53,9.57-10.87l-22.64-1.16C619.552,181.777,619.582,182.647,619.722,183.527z"/>
		<g>
			<path style="fill:#FFD5CE;" d="M621.697,183.214c0.804,5.095,5.586,8.574,10.681,7.77c5.095-0.804,8.573-5.586,7.77-10.681
				c-0.804-5.095-5.586-8.574-10.681-7.77C624.371,173.337,620.893,178.119,621.697,183.214z"/>
			<polygon style="fill:#FFD5CE;" points="640.147,180.303 638.133,167.541 620.28,170.236 621.697,183.214 			"/>
		</g>
		<g>
			<path style="fill:#FFD5CE;" d="M641.645,161.1c0,0,5.557-1.148,4.953,4.953c-0.604,6.101-7.718,4.355-7.718,4.355L641.645,161.1z
				"/>
			<g>
				<path style="fill:none;stroke:#BF736A;stroke-width:0.5;stroke-linecap:round;stroke-miterlimit:10;" d="M642.666,163.517
					c0.969-0.133,1.804,0.216,2.125,0.855c0.098,0.195,0.17,0.4,0.218,0.61c0.108,0.476,0.089,0.977-0.045,1.449
					c-0.133,0.465-0.383,0.915-0.782,1.233c-0.4,0.318-0.962,0.488-1.48,0.379"/>
				<path style="fill:none;stroke:#BF736A;stroke-width:0.5;stroke-linecap:round;stroke-miterlimit:10;" d="M642.492,166.091
					c-0.352-0.711,1.184-1.906,2.522-0.673"/>
			</g>
		</g>
		<path style="opacity:0.1;" d="M621.556,181.905l-0.341-3.07c2.489,0.344,12.599-1.382,16.787-7.162
			C638.001,172.483,629.65,187.414,621.556,181.905z"/>
		<path style="fill:#FFD5CE;" d="M640.357,168.648c0,0-7.396,10.358-12.953,11.928c-5.557,1.57-9.034-1.759-9.034-7.459V158.54
			c0-3.774,2.094-7.292,5.499-8.92c2.89-1.382,6.973-2.069,12.38-0.18C648.692,153.788,640.357,168.648,640.357,168.648z"/>
		<path style="fill:none;stroke:#BF736A;stroke-width:0.75;stroke-linecap:round;stroke-miterlimit:10;" d="M624.291,160.733
			c-0.715-0.715-2.362-0.839-3.201,0"/>
		<path style="fill:none;stroke:#BF736A;stroke-width:0.75;stroke-linecap:round;stroke-miterlimit:10;" d="M631.632,160.733
			c-0.715-0.715-2.362-0.839-3.201,0"/>
		<path style="fill:none;stroke:#B52B60;stroke-linecap:round;stroke-miterlimit:10;" d="M622.716,174.262
			c0,0,1.664,1.068,3.022-0.235"/>
		<path style="fill:none;stroke:#BF736A;stroke-width:0.5;stroke-linecap:round;stroke-miterlimit:10;" d="M625.737,166.63
			c0,0-2.185,2.9-1.95,3.348c0.235,0.448,1.587,0.6,1.587,0.6"/>
		<circle style="fill:#EDBFB9;" cx="631.632" cy="168.796" r="2.127"/>
		<circle style="fill:#EDBFB9;" cx="620.726" cy="168.796" r="2.127"/>
		<path style="fill:none;stroke:#2166F2;stroke-linecap:round;stroke-miterlimit:10;" d="M609.975,261.009
			c0,0,0.117,13.094-2.899,18.28"/>
		<g>
			<g>
				<polygon style="fill:#203961;" points="518.114,393.345 507.087,382.522 563.149,319.142 582.724,339.074 				"/>
				<circle style="fill:#203961;" cx="573.001" cy="329.044" r="13.97"/>
			</g>
			<polygon style="fill:#0055C5;" points="520.289,391.518 508.887,380.487 507.087,382.522 518.114,393.345 			"/>
		</g>
		
			<line style="fill:none;stroke:#2166F2;stroke-linecap:round;stroke-miterlimit:10;" x1="630.475" y1="270.975" x2="584.726" y2="287.602"/>
		<path style="fill:none;stroke:#2166F2;stroke-linecap:round;stroke-miterlimit:10;" d="M656.239,262.35
			c0,0-1.329,14.617,5.557,18.725"/>
		<path style="fill:none;stroke:#2166F2;stroke-linecap:round;stroke-miterlimit:10;" d="M579.333,323.737
			c0,0-10.206-17.624-9.569-20.241c0.637-2.617,1.073-3.636,1.073-3.636"/>
		<polygon style="fill:#0055C5;" points="657.07,254.242 611.545,254.242 610.419,257.303 657.845,256.828 		"/>
		<g>
			<path style="fill:#203961;" d="M645.014,161.611c-1.987-1.007-3.574,1.128-4.867,5.589c-0.086-2.785,0.68-5.479,2.006-8.114
				c0,0-7.96,2.701-13.982-1.095c-0.181-0.114-0.742-3.565-1.073-5.118c-0.109,1.546-0.026,5.297-0.249,5.263
				c-0.764-0.116-1.478-0.276-2.081-0.492c-0.038-3.091-0.029-3.069-0.029-3.069l-0.991,3.103c0,0-4.451,1.392-5.203,1.19
				c-0.641-1.281-0.923-6.21,0.248-9.583c1.171-3.373,8.307-6.854,15.562-5.238C648.023,147.091,645.014,161.611,645.014,161.611z"
				/>
			
				<path style="fill:none;stroke:#B3B3B3;stroke-width:0.1202;stroke-linecap:round;stroke-linejoin:round;stroke-miterlimit:10;" d="
				M628.044,148.624c0.133,3.539,1.932,6.98,4.762,9.109"/>
			
				<path style="fill:none;stroke:#B3B3B3;stroke-width:0.1202;stroke-linecap:round;stroke-linejoin:round;stroke-miterlimit:10;" d="
				M631.619,149.598c0.88,3.445,3.308,6.464,6.485,8.062"/>
			
				<path style="fill:none;stroke:#B3B3B3;stroke-width:0.1202;stroke-linecap:round;stroke-linejoin:round;stroke-miterlimit:10;" d="
				M623.418,149.363c-0.63,2.625-2.255,4.999-4.475,6.535"/>
		</g>
		<g>
			<path style="fill:#2E1124;" d="M621.927,163.528c0,0.548,0.313,0.992,0.699,0.992c0.386,0,0.699-0.444,0.699-0.992
				c0-0.548-0.313-0.992-0.699-0.992C622.24,162.535,621.927,162.98,621.927,163.528z"/>
			<path style="fill:none;stroke:#2E1124;stroke-width:0.5;stroke-linecap:round;stroke-miterlimit:10;" d="M622.165,162.955
				c-0.19-0.032-0.368-0.172-0.475-0.375"/>
		</g>
		<g>
			<path style="fill:#2E1124;" d="M629.332,163.528c0,0.548,0.313,0.992,0.699,0.992c0.386,0,0.699-0.444,0.699-0.992
				c0-0.548-0.313-0.992-0.699-0.992C629.645,162.535,629.332,162.98,629.332,163.528z"/>
			<path style="fill:none;stroke:#2E1124;stroke-width:0.5;stroke-linecap:round;stroke-miterlimit:10;" d="M630.929,162.861
				c-0.089,0.171-0.277,0.297-0.503,0.336"/>
		</g>
		<g>
			<g>
				<g>
					<path style="fill:#FFD5CE;" d="M665.799,235.726c0.801,4.932,5.449,8.28,10.38,7.479c4.932-0.801,8.28-5.449,7.479-10.38
						c-0.801-4.932-5.449-8.28-10.38-7.479C668.346,226.147,664.998,230.795,665.799,235.726z"/>
					<path style="fill:#FFD5CE;" d="M650.391,195.268c0.928,5.712,6.311,9.59,12.023,8.662c5.712-0.928,9.59-6.311,8.662-12.023
						c-0.928-5.712-6.311-9.59-12.023-8.662C653.341,184.173,649.462,189.556,650.391,195.268z"/>
					<polygon style="fill:#FFD5CE;" points="671.076,191.907 683.658,232.825 665.799,235.726 650.391,195.268 					"/>
				</g>
				<path style="fill:#FFD600;" d="M650.311,195.285c0.236,1.451,0.756,2.785,1.503,3.95l6.462,16.953l19.552-2.062l-6.829-22.202
					c-0.929-5.715-6.31-9.592-12.025-8.664C653.259,184.189,649.382,189.57,650.311,195.285z"/>
				<polygon style="fill:#0055C5;" points="678.172,211.345 679.605,215.641 657.438,217.439 656.006,213.144 				"/>
				
					<line style="fill:none;stroke:#2166F2;stroke-linecap:round;stroke-miterlimit:10;" x1="656.083" y1="210.436" x2="653.468" y2="203.575"/>
			</g>
			<g>
				<g>
					
						<ellipse transform="matrix(0.9638 -0.2667 0.2667 0.9638 -38.0443 188.467)" style="fill:#FFD5CE;" cx="674.728" cy="234.275" rx="9.046" ry="9.046"/>
					<path style="fill:#FFD5CE;" d="M626.505,218.666c-0.486,2.873,1.449,5.597,4.322,6.083c2.873,0.486,5.597-1.449,6.083-4.322
						c0.486-2.873-1.449-5.597-4.322-6.083C629.715,213.858,626.992,215.793,626.505,218.666z"/>
					<polygon style="fill:#FFD5CE;" points="676.238,225.356 632.589,214.344 630.828,224.75 673.219,243.195 					"/>
				</g>
				<path style="fill:none;stroke:#E38C72;stroke-linecap:round;stroke-miterlimit:10;" d="M657.958,220.773l14.752,3.528
					c0,0,3.602,0.61,5.67,4.014"/>
			</g>
			<g>
				<g>
					<path style="fill:#FFD5CE;" d="M623.859,210.715c-0.641-0.15-1.37,2.196-2.096,6.029c-0.664,3.502-1.021,6.434-0.386,6.642
						l0.297,0.103c0.013,0.004,0.027,0.008,0.041,0.011l-0.001,0.002c0,0,0.808,0.266,1.226,0.403
						c5.518,1.814,10.854,1.471,12.307-3.71c1.425-5.082-3.068-7.744-8.725-9.064c-0.409-0.096-0.814-0.171-1.214-0.233
						c-0.032-0.011-0.064-0.02-0.097-0.028L623.859,210.715z"/>
				</g>
				<g>
					<path style="fill:#FFD5CE;" d="M631.836,211.605c0.548,0.766,3.221,3.77,2.419,4.554l0.01,0.424
						c-1.069,0.731-6.559-1.487-6.646-2.555l-0.182-3.526c-0.548-0.766-1.368-1.566-0.579-2.06l0,0
						c0.789-0.493,1.725-0.208,2.427,0.437C630.425,209.928,631.836,211.605,631.836,211.605z"/>
				</g>
				<g>
					<path style="fill:#FFD5CE;" d="M629.454,209.021c0.317,1.141-0.551,2.746-1.662,2.813l-0.205,0.177
						c-1.112,0.068-0.985-0.086-1.375-1.203c-0.627-1.793,0.006-4.687,0.006-4.687c0.271-1.48,1.425-2.859,2.113-2.884l0,0
						c0.687-0.06,1.484,0.357,1.604,0.832C629.935,204.069,628.617,206.003,629.454,209.021z"/>
				</g>
				<path style="fill:#FFD5CE;" d="M618.836,215.605l5.292,1.512c0.94,0.268,1.919-0.276,2.188-1.215l0,0
					c0.268-0.94-0.276-1.919-1.216-2.188l-5.292-1.512c-0.94-0.269-1.919,0.276-2.188,1.215l0,0
					C617.352,214.357,617.897,215.337,618.836,215.605z"/>
				<path style="fill:#FFD5CE;" d="M619.383,212.374l5.292,1.512c0.94,0.269,1.919-0.276,2.188-1.215l0,0
					c0.268-0.94-0.276-1.919-1.215-2.188l-5.291-1.512c-0.94-0.268-1.919,0.276-2.188,1.215l0,0
					C617.899,211.126,618.443,212.105,619.383,212.374z"/>
				<path style="fill:#FFD5CE;" d="M618.258,219.02l5.292,1.512c0.94,0.268,1.919-0.276,2.188-1.215l0,0
					c0.268-0.94-0.276-1.919-1.215-2.188l-5.292-1.512c-0.94-0.268-1.919,0.276-2.188,1.215l0,0
					C616.774,217.773,617.319,218.752,618.258,219.02z"/>
				<path style="fill:#FFD5CE;" d="M618.109,222.432l5.292,1.512c0.94,0.268,1.919-0.276,2.188-1.215l0,0
					c0.269-0.94-0.276-1.919-1.215-2.188l-5.292-1.512c-0.94-0.269-1.919,0.276-2.188,1.215l0,0
					C616.625,221.185,617.169,222.164,618.109,222.432z"/>
				<path style="fill:none;stroke:#E38C72;stroke-linecap:round;stroke-miterlimit:10;" d="M627.346,212.405
					c0,0-0.659,6.174,4.09,7.919"/>
			</g>
		</g>
	</g>
	<g>
		<path style="fill:#8AD4F0;" d="M695.287,260.995H104.713c-4.859,0-8.799-3.939-8.799-8.799l0,0c0-4.859,3.939-8.799,8.799-8.799
			h590.574c4.859,0,8.799,3.939,8.799,8.799l0,0C704.086,257.056,700.147,260.995,695.287,260.995z"/>
		<rect x="396.221" y="260.995" style="fill:#8AD4F0;" width="7.558" height="130.397"/>
		<path style="fill:#8AD4F0;" d="M411.207,260.995c0,6.19-5.018,11.207-11.207,11.207s-11.207-5.018-11.207-11.207H411.207z"/>
		<path style="fill:#8AD4F0;" d="M388.793,391.392c0-6.19,5.018-11.207,11.207-11.207s11.207,5.018,11.207,11.207H388.793z"/>
		<path style="fill:#8AD4F0;" d="M471.355,391.392H328.645c-3.011,0-5.452,2.441-5.452,5.452l0,0h153.615l0,0
			C476.808,393.832,474.366,391.392,471.355,391.392z"/>
		<path style="fill:#8AD4F0;" d="M595.578,396.903H204.422c-4.726,0-8.558,3.831-8.558,8.557l0,0h408.27l0,0
			C604.135,400.734,600.304,396.903,595.578,396.903z"/>
	</g>
	
		<line style="fill:none;stroke:#2B3A43;stroke-width:2;stroke-linecap:round;stroke-linejoin:round;stroke-miterlimit:10;" x1="76.603" y1="405.46" x2="723.397" y2="405.46"/>
	<g>
		<g>
			<g>
				<polygon style="fill:#FFB89B;" points="169.065,389.68 175.176,357.315 194.178,360.844 186.682,393.096 				"/>
				<path style="fill:none;stroke:#6E3B09;stroke-width:0.5;stroke-linecap:round;stroke-miterlimit:10;" d="M178.113,383.82
					c-0.383-0.579-0.479-1.339-0.252-1.995c0.227-0.656,0.773-1.194,1.432-1.411"/>
			</g>
			<g>
				
					<rect x="163.55" y="398.332" transform="matrix(0.9832 0.1826 -0.1826 0.9832 76.1427 -27.6264)" style="fill:#FFE876;" width="49.124" height="2.781"/>
				<path style="fill:#FFD600;" d="M211.968,396.089c-0.635-0.024-14.417-0.853-25.295-16.508c1.837-2.198,3.07-2.251,4.942-1.903
					c0,0,3.939,8.16,8.697,9.984c1.491,0.578,3.381,1.136,5.221,1.966C208.204,390.839,210.796,392.675,211.968,396.089z"/>
				<path style="fill:#FFE876;" d="M212.518,402.849l-48.304-8.97c0,0,1.1-7.243,2.583-9.149c0.271-0.345,0.494-0.736,0.72-1.145
					c1.399-2.674,1.902-6.492,1.902-6.492s0.194-0.133,1.304,0.675c4.071,2.994,11.57,8.185,14.693,3.518
					c0.444-0.67,0.868-1.231,1.257-1.704c10.878,15.655,24.66,16.484,25.295,16.508c0.018,0.003,0.018,0.003,0.018,0.003
					C212.616,397.865,212.846,400.07,212.518,402.849z"/>
				
					<rect x="163.423" y="399.711" transform="matrix(0.9832 0.1826 -0.1826 0.9832 76.2653 -27.5917)" style="fill:#FFD600;" width="49.124" height="1.39"/>
				<path style="fill:#FFE7EC;" d="M212.518,402.849l-16.016-2.974c1.587-8.544,6.974-10.008,9.031-10.247
					C209.59,391.473,213.476,394.752,212.518,402.849z"/>
				<path style="fill:none;stroke:#FFE7EC;stroke-width:0.6962;stroke-linecap:round;stroke-miterlimit:10;" d="M201.276,388.018
					c0,0-2.281,0.109-4.395,2.849"/>
				<path style="fill:none;stroke:#FFE7EC;stroke-width:0.6962;stroke-linecap:round;stroke-miterlimit:10;" d="M198.301,386.482
					c0,0-2.1-0.439-4.214,2.3"/>
				<path style="fill:none;stroke:#FFE7EC;stroke-width:0.6962;stroke-linecap:round;stroke-miterlimit:10;" d="M196.553,384.474
					c0,0-2.39-0.672-4.504,2.068"/>
				<path style="fill:none;stroke:#FFE7EC;stroke-width:0.6962;stroke-linecap:round;stroke-miterlimit:10;" d="M194.763,382.203
					c0,0-2.494-1.251-5.092,2.302"/>
				<path style="fill:#FFD600;" d="M171.413,395.216l-7.199-1.337c0,0,1.1-7.243,2.583-9.149c0.271-0.345,0.494-0.736,0.72-1.145
					C172.907,385.45,171.413,395.216,171.413,395.216z"/>
				<path style="fill:#FFE7EC;" d="M180.644,394.747l-1.315-0.244l-0.75-6.331c-0.091-0.771,0.426-1.287,1.155-1.151l1.315,0.244
					l0.75,6.331C181.89,394.367,181.373,394.883,180.644,394.747z"/>
				<path style="fill:#FFE7EC;" d="M183.865,395.345l-1.315-0.244l-0.75-6.331c-0.091-0.771,0.426-1.287,1.155-1.151l1.315,0.244
					l0.75,6.331C185.111,394.965,184.594,395.481,183.865,395.345z"/>
				<path style="fill:#FFD600;" d="M189.863,396.033c-0.053,0.284-0.326,0.472-0.611,0.419c-0.284-0.053-0.472-0.326-0.419-0.611
					c0.053-0.284,0.326-0.472,0.611-0.419C189.728,395.475,189.915,395.749,189.863,396.033z"/>
				<path style="fill:#FFD600;" d="M191.93,396.417c-0.053,0.285-0.326,0.472-0.611,0.419c-0.285-0.053-0.472-0.326-0.419-0.611
					c0.053-0.284,0.326-0.472,0.611-0.419C191.795,395.859,191.982,396.133,191.93,396.417z"/>
			</g>
		</g>
		<g>
			<g>
				<polygon style="fill:#FFB89B;" points="147.233,397.841 147.332,364.905 166.659,364.905 165.178,397.984 				"/>
				<path style="fill:none;stroke:#6E3B09;stroke-width:0.5;stroke-linecap:round;stroke-miterlimit:10;" d="M155.059,390.428
					c-0.482-0.499-0.715-1.229-0.612-1.915c0.104-0.686,0.542-1.315,1.15-1.649"/>
			</g>
			<g>
				<rect x="143.232" y="402.847" style="fill:#FFE876;" width="49.124" height="2.781"/>
				<path style="fill:#FFD600;" d="M190.585,396.31c-0.629,0.092-14.33,1.793-27.884-11.612c1.405-2.496,2.607-2.774,4.512-2.774
					c0,0,5.362,7.304,10.373,8.228c1.572,0.296,3.532,0.499,5.492,0.98C185.926,391.835,188.81,393.167,190.585,396.31z"/>
				<path style="fill:#FFE876;" d="M192.361,402.856h-49.13c0,0-0.24-7.322,0.869-9.467c0.203-0.388,0.351-0.814,0.499-1.257
					c0.888-2.885,0.684-6.731,0.684-6.731s0.166-0.166,1.405,0.425c4.549,2.2,12.87,5.935,15.089,0.777
					c0.314-0.74,0.629-1.368,0.925-1.905c13.554,13.406,27.255,11.705,27.884,11.612c0.018,0,0.018,0,0.018,0
					C191.547,397.937,192.176,400.064,192.361,402.856z"/>
				<rect x="143.232" y="404.237" style="fill:#FFD600;" width="49.124" height="1.39"/>
				<path style="fill:#FFE7EC;" d="M192.361,402.856h-16.29c0-8.691,5.03-11.113,7.008-11.723
					C187.405,392.205,191.824,394.72,192.361,402.856z"/>
				<path style="fill:none;stroke:#FFE7EC;stroke-width:0.6962;stroke-linecap:round;stroke-miterlimit:10;" d="M178.6,390.326
					c0,0-2.223,0.524-3.801,3.603"/>
				<path style="fill:none;stroke:#FFE7EC;stroke-width:0.6962;stroke-linecap:round;stroke-miterlimit:10;" d="M175.394,389.359
					c0,0-2.145-0.048-3.723,3.031"/>
				<path style="fill:none;stroke:#FFE7EC;stroke-width:0.6962;stroke-linecap:round;stroke-miterlimit:10;" d="M173.309,387.704
					c0,0-2.472-0.224-4.05,2.855"/>
				<path style="fill:none;stroke:#FFE7EC;stroke-width:0.6962;stroke-linecap:round;stroke-miterlimit:10;" d="M171.135,385.798
					c0,0-2.68-0.774-4.587,3.193"/>
				<path style="fill:#FFD600;" d="M150.553,402.856h-7.322c0,0-0.24-7.322,0.869-9.467c0.203-0.388,0.351-0.814,0.499-1.257
					C150.239,392.982,150.553,402.856,150.553,402.856z"/>
				<path style="fill:#FFE7EC;" d="M159.543,400.709h-1.338l-1.893-6.088c-0.231-0.742,0.184-1.343,0.925-1.343h1.338l1.893,6.088
					C160.699,400.108,160.284,400.709,159.543,400.709z"/>
				<path style="fill:#FFE7EC;" d="M162.819,400.709h-1.338l-1.893-6.088c-0.231-0.742,0.184-1.343,0.925-1.343h1.338l1.893,6.088
					C163.975,400.108,163.56,400.709,162.819,400.709z"/>
				<path style="fill:#FFD600;" d="M168.841,400.291c0,0.289-0.234,0.524-0.524,0.524c-0.289,0-0.524-0.235-0.524-0.524
					c0-0.289,0.235-0.524,0.524-0.524C168.607,399.767,168.841,400.001,168.841,400.291z"/>
				<circle style="fill:#FFD600;" cx="170.42" cy="400.291" r="0.524"/>
			</g>
		</g>
		<g>
			<g>
				<g>
					<path style="fill:#FFB89B;" d="M229.431,163.037c3.687,3.818,3.58,9.902-0.238,13.589c-3.818,3.687-9.902,3.58-13.589-0.238
						c-3.687-3.818-3.58-9.902,0.238-13.589C219.66,159.112,225.744,159.219,229.431,163.037z"/>
					<path style="fill:#FFB89B;" d="M204.803,124.194c4.271,4.422,4.147,11.47-0.275,15.74c-4.423,4.27-11.47,4.147-15.74-0.275
						c-4.271-4.423-4.147-11.47,0.275-15.74C193.485,119.648,200.532,119.771,204.803,124.194z"/>
					<polygon style="fill:#FFB89B;" points="188.787,139.659 215.604,176.388 229.431,163.037 204.803,124.194 					"/>
				</g>
				<g>
					<path style="fill:#FFD600;" d="M205.312,123.41c1.085,1.123,1.871,2.431,2.357,3.838l10.108,16.482l-15.308,16.406
						l-14.369-20.106c-4.273-4.425-3.882-11.728,0.872-16.319C193.728,119.12,201.04,118.985,205.312,123.41z"/>
					<polygon style="fill:#FFE876;" points="199.839,158.703 202.543,162.694 219.432,143.756 216.73,139.766 					"/>
				</g>
			</g>
			<g>
				<g>
					<path style="fill:#FFB89B;" d="M229.706,176.091c-3.523,3.97-9.597,4.333-13.567,0.81c-3.97-3.523-4.333-9.597-0.81-13.567
						c3.523-3.97,9.597-4.333,13.567-0.81S233.229,172.12,229.706,176.091z"/>
					<path style="fill:#FFB89B;" d="M267.548,199.236c-2.055,2.316-5.598,2.527-7.913,0.473c-2.316-2.055-2.527-5.598-0.473-7.914
						c2.055-2.316,5.598-2.527,7.914-0.473C269.391,193.377,269.603,196.92,267.548,199.236z"/>
					<polygon style="fill:#FFB89B;" points="228.896,162.524 267.076,191.322 259.635,199.709 216.139,176.901 					"/>
				</g>
				<path style="fill:none;stroke:#E38C72;stroke-linecap:round;stroke-miterlimit:10;" d="M250.206,178.57l-12.744-9.862
					c0,0-2.903-2.576-7.099-2.021"/>
			</g>
			<g>
				<g>
					<path style="fill:#FFB89B;" d="M276.875,196.296c0.552,0.43-0.906,2.596-3.595,5.749c-2.456,2.882-4.646,5.129-5.241,4.743
						l-0.284-0.177c-0.013-0.008-0.025-0.017-0.037-0.026l-0.001,0.002c0,0-0.758-0.492-1.15-0.747
						c-5.176-3.36-8.445-8.005-5.124-12.658c3.258-4.563,8.453-2.617,13.312,1.187c0.352,0.275,0.683,0.56,1.001,0.849
						c0.03,0.019,0.059,0.04,0.088,0.062L276.875,196.296z"/>
				</g>
				<g>
					<path style="fill:#FFB89B;" d="M270.827,190.285c-0.999,0.056-5.266-0.156-5.381,1.03l-0.358,0.274
						c0.106,1.371,5.598,4.439,6.541,3.8l3.04-2.197c1-0.057,2.207,0.09,2.091-0.892l0,0c-0.117-0.981-0.976-1.567-1.978-1.718
						C273.155,190.336,270.827,190.285,270.827,190.285z"/>
				</g>
				<g>
					<path style="fill:#FFB89B;" d="M274.552,190.536c-1.155,0.498-1.906,2.284-1.223,3.249l-0.01,0.287
						c0.684,0.966,0.727,0.758,1.912,0.337c1.902-0.675,3.876-3.126,3.876-3.126c1.044-1.21,1.418-3.083,0.981-3.669l0,0
						c-0.408-0.608-1.284-0.991-1.757-0.773C278.33,186.84,277.607,189.22,274.552,190.536z"/>
				</g>
				<path style="fill:#FFB89B;" d="M281.62,207.634l-8.043-5.833c-0.769-0.543-0.952-1.606-0.409-2.375h0
					c0.543-0.768,1.606-0.951,2.375-0.408l8.043,5.833c0.769,0.543,0.951,1.606,0.408,2.375l0,0
					C283.452,207.994,282.388,208.177,281.62,207.634z"/>
				<path style="fill:#FFB89B;" d="M281.685,203.087l-8.043-5.833c-0.769-0.543-0.952-1.606-0.408-2.375l0,0
					c0.543-0.769,1.606-0.951,2.375-0.408l8.043,5.833c0.769,0.543,0.951,1.606,0.408,2.375l0,0
					C283.517,203.447,282.454,203.63,281.685,203.087z"/>
				<path style="fill:#FFB89B;" d="M278.882,210.178l-8.043-5.833c-0.769-0.543-0.951-1.606-0.408-2.375l0,0
					c0.543-0.768,1.606-0.951,2.375-0.408l8.043,5.833c0.769,0.543,0.952,1.606,0.408,2.375l0,0
					C280.713,210.538,279.65,210.721,278.882,210.178z"/>
				<path style="fill:#FFB89B;" d="M274.212,211.325l-8.043-5.833c-0.769-0.543-0.951-1.606-0.408-2.375l0,0
					c0.543-0.769,1.606-0.951,2.375-0.408l8.043,5.833c0.768,0.543,0.951,1.606,0.408,2.375l0,0
					C276.044,211.685,274.98,211.868,274.212,211.325z"/>
				<path style="fill:none;stroke:#E38C72;stroke-linecap:round;stroke-miterlimit:10;" d="M273.154,194.535
					c0,0-4.672,4.657-9.278,1.888"/>
			</g>
		</g>
		<g>
			<defs>
				<polygon id="XMLID_00000008867162824755253770000016899072476354015389_" points="138.916,198.969 198.514,198.969 
					196.955,120.427 142.027,123.25 				"/>
			</defs>
			<use xlink:href="#XMLID_00000008867162824755253770000016899072476354015389_"  style="overflow:visible;fill:#FFD600;"/>
			<clipPath id="XMLID_00000095327929004967422830000001805554784054383260_">
				<use xlink:href="#XMLID_00000008867162824755253770000016899072476354015389_"  style="overflow:visible;"/>
			</clipPath>
			<g style="clip-path:url(#XMLID_00000095327929004967422830000001805554784054383260_);">
				<path style="fill:#FFE876;" d="M148.844,145.258c0,2.677-2.17,4.847-4.847,4.847c-2.677,0-4.847-2.17-4.847-4.847
					c0-2.677,2.17-4.847,4.847-4.847C146.674,140.411,148.844,142.581,148.844,145.258z"/>
				<path style="fill:#FFE876;" d="M181.167,162.985c0,2.677-2.17,4.847-4.847,4.847c-2.677,0-4.847-2.17-4.847-4.847
					c0-2.677,2.17-4.847,4.847-4.847C178.997,158.138,181.167,160.308,181.167,162.985z"/>
				<path style="fill:#FFE876;" d="M202.761,145.258c0,2.677-2.17,4.847-4.847,4.847c-2.677,0-4.847-2.17-4.847-4.847
					c0-2.677,2.17-4.847,4.847-4.847C200.591,140.411,202.761,142.581,202.761,145.258z"/>
				<path style="fill:#FFE876;" d="M202.761,184.521c0,2.677-2.17,4.847-4.847,4.847c-2.677,0-4.847-2.17-4.847-4.847
					c0-2.677,2.17-4.847,4.847-4.847C200.591,179.674,202.761,181.844,202.761,184.521z"/>
				<circle style="fill:#FFE876;" cx="140.805" cy="166.386" r="4.847"/>
				<path style="fill:#FFE876;" d="M165.901,195.025c0,2.677-2.17,4.847-4.847,4.847c-2.677,0-4.847-2.17-4.847-4.847
					c0-2.677,2.17-4.847,4.847-4.847C163.731,190.178,165.901,192.348,165.901,195.025z"/>
				<path style="fill:#FFE876;" d="M178.752,180.292c0,2.677-2.17,4.847-4.847,4.847c-2.677,0-4.847-2.17-4.847-4.847
					c0-2.677,2.17-4.847,4.847-4.847C176.582,175.445,178.752,177.615,178.752,180.292z"/>
				<path style="fill:#FFE876;" d="M162,162.039c0,3.199-2.594,5.793-5.793,5.793c-3.199,0-5.793-2.593-5.793-5.793
					c0-3.199,2.594-5.793,5.793-5.793C159.407,156.246,162,158.839,162,162.039z"/>
				<circle style="fill:#FFE876;" cx="172.959" cy="142.925" r="5.793"/>
				<path style="fill:#FFE876;" d="M163.976,127.759c0,3.199-2.594,5.793-5.793,5.793c-3.199,0-5.793-2.594-5.793-5.793
					c0-3.199,2.594-5.793,5.793-5.793C161.383,121.966,163.976,124.56,163.976,127.759z"/>
				<path style="fill:#FFE876;" d="M152.39,180.292c0,3.199-2.593,5.793-5.793,5.793c-3.199,0-5.793-2.594-5.793-5.793
					c0-3.199,2.594-5.793,5.793-5.793C149.797,174.499,152.39,177.093,152.39,180.292z"/>
				<path style="fill:#FFE876;" d="M198.86,162.985c0,3.199-2.594,5.793-5.793,5.793c-3.199,0-5.793-2.594-5.793-5.793
					c0-3.199,2.593-5.793,5.793-5.793C196.266,157.192,198.86,159.785,198.86,162.985z"/>
				<circle style="fill:#FFE876;" cx="142.123" cy="198.546" r="5.793"/>
				<circle style="fill:#FFE876;" cx="178.752" cy="201.956" r="5.793"/>
			</g>
		</g>
		<g>
			<polygon style="fill:#203961;" points="182.58,302.3 213.361,296.136 200.768,220.053 161.96,229.23 			"/>
			
				<ellipse transform="matrix(0.4544 -0.8908 0.8908 0.4544 -101.1423 284.1415)" style="fill:#203961;" cx="181.384" cy="224.637" rx="19.961" ry="19.961"/>
			<path style="fill:#203961;" d="M210.941,306.368c-4.716,7.316-14.469,9.424-21.785,4.709c-3.302-2.128-5.543-5.283-6.575-8.777
				c-1.254-4.247-0.721-8.995,1.866-13.009c4.716-7.316,14.469-9.424,21.786-4.709C213.548,289.298,215.656,299.052,210.941,306.368
				z"/>
		</g>
		<g>
			<g>
				<polygon style="fill:#203961;" points="171.565,371.967 191.637,376.323 213.048,301.372 182.292,294.487 				"/>
				<circle style="fill:#203961;" cx="197.693" cy="297.83" r="15.76"/>
			</g>
			<polygon style="fill:#030B48;" points="192.715,372.545 191.635,376.322 171.567,371.966 172.108,368.072 			"/>
		</g>
		<path style="fill:#203961;" d="M200.963,221.255l-2.449-22.286h-59.597l-1.178,22.242c-0.108,2.05,1.097,3.942,3.001,4.71
			l23.488,9.476c4.867,1.964,10.333,1.811,15.082-0.422l18.916-8.891C200.069,225.216,201.166,223.282,200.963,221.255z"/>
		<path style="fill:#FFE876;" d="M184.078,123.845c-0.924,5.885-5.928,10.167-11.877,10.167c-0.637,0-1.264-0.053-1.891-0.149
			c-5.822-0.924-10.007-5.875-10.167-11.548l24.052-1.232C184.259,121.986,184.227,122.91,184.078,123.845z"/>
		<g>
			<path style="fill:#FFB89B;" d="M181.98,123.513c-0.854,5.413-5.934,9.108-11.347,8.254c-5.413-0.854-9.108-5.934-8.254-11.347
				c0.854-5.413,5.934-9.108,11.347-8.254C179.139,113.02,182.835,118.1,181.98,123.513z"/>
			<polygon style="fill:#FFB89B;" points="162.38,120.42 164.519,106.862 183.485,109.725 181.98,123.513 			"/>
		</g>
		<g>
			<path style="fill:#FFB89B;" d="M160.789,100.02c0,0-5.904-1.219-5.262,5.262s8.199,4.627,8.199,4.627L160.789,100.02z"/>
			<g>
				<path style="fill:none;stroke:#0B0A3B;stroke-width:0.5;stroke-linecap:round;stroke-miterlimit:10;" d="M159.704,102.588
					c-1.029-0.141-1.917,0.229-2.257,0.908c-0.104,0.208-0.181,0.425-0.231,0.648c-0.115,0.506-0.095,1.038,0.048,1.539
					c0.141,0.495,0.407,0.972,0.831,1.31c0.425,0.338,1.021,0.519,1.573,0.402"/>
				<path style="fill:none;stroke:#0B0A3B;stroke-width:0.5;stroke-linecap:round;stroke-miterlimit:10;" d="M159.889,105.322
					c0.374-0.756-1.258-2.024-2.679-0.715"/>
			</g>
		</g>
		<path style="opacity:0.1;" d="M182.285,120.732l0.208-1.871c0,0-9.957,5.317-16.96-4.26
			C165.533,115.46,170.087,125.744,182.285,120.732z"/>
		<path style="fill:#FFB89B;" d="M162.157,108.037c0,0,3.978,10.652,9.882,12.32c5.903,1.668,13.475-0.385,13.475-7.572V97.3
			c0-4.009-2.225-7.747-5.842-9.477c-3.07-1.468-7.408-2.199-13.152-0.191C153.302,92.252,162.157,108.037,162.157,108.037z"/>
		<path style="fill:#2E1124;" d="M173.869,102.599c0,0.582-0.332,1.054-0.742,1.054c-0.41,0-0.742-0.472-0.742-1.054
			s0.332-1.054,0.742-1.054C173.536,101.545,173.869,102.017,173.869,102.599z"/>
		<path style="fill:#2E1124;" d="M181.736,102.599c0,0.582-0.332,1.054-0.742,1.054c-0.41,0-0.742-0.472-0.742-1.054
			s0.332-1.054,0.742-1.054C181.403,101.545,181.736,102.017,181.736,102.599z"/>
		<path style="fill:none;stroke:#0B0A3B;stroke-width:0.75;stroke-linecap:round;stroke-miterlimit:10;" d="M179.225,99.63
			c0.759-0.759,2.509-0.891,3.401,0"/>
		<path style="fill:none;stroke:#0B0A3B;stroke-width:0.75;stroke-linecap:round;stroke-miterlimit:10;" d="M171.426,99.63
			c0.759-0.759,2.509-0.891,3.401,0"/>
		<path style="fill:none;stroke:#0B0A3B;stroke-linecap:round;stroke-miterlimit:10;" d="M179.849,113.716
			c0,0-2.765,1.774-5.022-0.391"/>
		<path style="fill:none;stroke:#0B0A3B;stroke-width:0.5;stroke-linecap:round;stroke-miterlimit:10;" d="M177.717,103.833
			c0,0,2.663,4.941,2.31,5.615c-0.353,0.674-1.765,0.321-1.765,0.321"/>
		<path style="fill:#EFA284;" d="M173.686,108.195c0,1.248-1.012,2.26-2.26,2.26s-2.26-1.012-2.26-2.26
			c0-1.248,1.012-2.26,2.26-2.26S173.686,106.947,173.686,108.195z"/>
		<path style="fill:#EFA284;" d="M185.272,108.195c0,1.248-1.012,2.26-2.26,2.26c-1.248,0-2.26-1.012-2.26-2.26
			c0-1.248,1.012-2.26,2.26-2.26C184.26,105.936,185.272,106.947,185.272,108.195z"/>
		<g>
			<path style="fill:#203961;" d="M155.527,104.523c0,0-0.309-2.041,0.661-2.924c3.34-3.037,6.019-0.16,6.417,5.542
				c0,0,0.618,0.573,0.642-0.344c0.028-1.071-0.511-3.865-0.095-7.255c0.313-2.55-0.573-4.599-0.566-4.546
				c0,0,14.38,3.198,21.284-2.369c2.431,1.837,1.402,8.822,1.645,11.295c1.811-3.169,6.343-8.348,3.06-11.441
				c3.271-2.754,2.681-6.996-3.303-12.291c-3.999-3.539-3.091-11.136-12.114-2.258c-4.807,4.73-8.772-2.525-12.539,6.246
				c-3.404-3.189-9.233,1.545-8.695,8.17C152.621,100.928,155.527,104.523,155.527,104.523z"/>
		</g>
		<path style="fill:none;stroke:#FFFFFF;stroke-linecap:round;stroke-miterlimit:10;" d="M194.433,206.157
			c0,0-0.125,13.91,3.08,19.42"/>
		
			<line style="fill:none;stroke:#FFFFFF;stroke-linecap:round;stroke-miterlimit:10;" x1="197.709" y1="149.412" x2="197.474" y2="141.615"/>
		<g>
			<polygon style="fill:#203961;" points="140.194,300.491 171.568,301.576 176.821,224.637 136.944,224.637 			"/>
			
				<ellipse transform="matrix(0.9101 -0.4143 0.4143 0.9101 -78.9656 85.1869)" style="fill:#203961;" cx="156.903" cy="224.637" rx="19.961" ry="19.961"/>
			<path style="fill:#203961;" d="M166.857,310.976c-6.273,6.035-16.25,5.841-22.284-0.431c-2.724-2.831-4.179-6.417-4.379-10.054
				c-0.243-4.421,1.368-8.919,4.81-12.23c6.273-6.034,16.25-5.841,22.284,0.431C173.323,294.965,173.13,304.942,166.857,310.976z"/>
		</g>
		<g>
			<g>
				<polygon style="fill:#203961;" points="146.12,377.611 166.659,377.611 171.687,299.824 140.17,299.618 				"/>
				<path style="fill:#203961;" d="M166.857,310.976c-6.273,6.035-16.25,5.841-22.284-0.431c-6.035-6.273-5.841-16.25,0.431-22.284
					c6.273-6.034,16.25-5.841,22.284,0.431C173.323,294.965,173.13,304.942,166.857,310.976z"/>
			</g>
			<polygon style="fill:#030B48;" points="166.912,373.69 166.657,377.61 146.122,377.61 145.825,373.69 			"/>
		</g>
		
			<line style="fill:none;stroke:#FFFFFF;stroke-linecap:round;stroke-miterlimit:10;" x1="172.163" y1="253.262" x2="170.798" y2="304.955"/>
		<path style="fill:none;stroke:#FFFFFF;stroke-linecap:round;stroke-miterlimit:10;" d="M145.285,207.581
			c0,0,1.412,15.529-5.904,19.892"/>
		<path style="fill:none;stroke:#FFFFFF;stroke-linecap:round;stroke-miterlimit:10;" d="M174.844,215.867
			c0,0,1.801,21.561,0,23.785c-1.8,2.225-2.681,3.005-2.681,3.005"/>
		<g>
			<g>
				<g>
					<path style="fill:#FFB89B;" d="M128.983,178.403c-1.562,5.073-6.941,7.918-12.013,6.356c-5.073-1.562-7.918-6.941-6.356-12.013
						c1.562-5.073,6.941-7.918,12.013-6.356C127.7,167.952,130.546,173.331,128.983,178.403z"/>
					<path style="fill:#FFB89B;" d="M151.096,138.076c-1.81,5.876-8.039,9.172-13.915,7.362c-5.876-1.809-9.172-8.039-7.362-13.915
						c1.809-5.875,8.039-9.172,13.915-7.362C149.609,125.97,152.906,132.2,151.096,138.076z"/>
					<polygon style="fill:#FFB89B;" points="129.819,131.523 110.614,172.747 128.983,178.403 151.096,138.076 					"/>
				</g>
				<g>
					<path style="fill:#FFD600;" d="M151.178,138.105c-0.46,1.493-1.202,2.82-2.158,3.938l-9.272,16.897l-20.274-5.021
						l10.423-22.368c1.81-5.879,8.038-9.174,13.917-7.364C149.693,125.999,152.988,132.227,151.178,138.105z"/>
					<polygon style="fill:#FFE876;" points="119.518,150.943 117.384,155.255 140.448,160.378 142.581,156.068 					"/>
				</g>
				
					<line style="fill:none;stroke:#FFFFFF;stroke-linecap:round;stroke-miterlimit:10;" x1="142.894" y1="153.207" x2="146.647" y2="146.369"/>
			</g>
			<g>
				<g>
					<path style="fill:#FFB89B;" d="M129.009,178.319c-1.516,5.087-6.868,7.981-11.955,6.466c-5.087-1.516-7.981-6.868-6.466-11.955
						c1.516-5.087,6.868-7.981,11.955-6.466C127.63,167.88,130.525,173.233,129.009,178.319z"/>
					<path style="fill:#FFB89B;" d="M173.086,183.313c-0.884,2.967-4.006,4.656-6.973,3.771c-2.967-0.884-4.656-4.006-3.771-6.973
						c0.884-2.967,4.006-4.656,6.973-3.771C172.282,177.223,173.97,180.346,173.086,183.313z"/>
					<polygon style="fill:#FFB89B;" points="122.543,166.365 169.315,176.339 166.113,187.084 117.054,184.785 					"/>
				</g>
				<path style="fill:none;stroke:#E38C72;stroke-linecap:round;stroke-miterlimit:10;" d="M142.117,170.57l-15.717-3.556
					c0,0-3.72-1.109-7.288,1.167"/>
			</g>
			<g>
				<g>
					<path style="fill:#FFB89B;" d="M180.552,176.833c0.682,0.157,0.275,2.736-0.829,6.73c-1.009,3.649-2.044,6.611-2.747,6.513
						l-0.332-0.041c-0.015-0.002-0.03-0.005-0.044-0.008l0,0.002c0,0-0.895-0.126-1.358-0.191
						c-6.111-0.859-11.036-3.688-9.991-9.309c1.025-5.512,6.556-5.943,12.567-4.548c0.435,0.101,0.856,0.218,1.266,0.347
						c0.035,0.005,0.071,0.011,0.106,0.019L180.552,176.833z"/>
				</g>
				<path style="fill:#FFB89B;" d="M178.38,175.884c-0.81-0.155-1.59,0.356-1.74,1.143l0,0c-0.151,0.786,0.512,1.738,1.322,1.893
					l13.764,2.446c0.811,0.155,1.59-0.356,1.741-1.143l0,0c0.151-0.786-0.384-1.55-1.195-1.705L178.38,175.884z"/>
				<g>
					<path style="fill:#FFB89B;" d="M172.531,173.939c-0.882,0.473-4.839,2.083-4.442,3.206l-0.209,0.4
						c0.676,1.198,6.949,1.659,7.534,0.681l1.827-3.276c0.882-0.474,2.038-0.851,1.518-1.692l0,0
						c-0.52-0.84-1.546-1.008-2.518-0.721C174.662,173.003,172.531,173.939,172.531,173.939z"/>
				</g>
				<g>
					<path style="fill:#FFB89B;" d="M176.013,172.594c-0.837,0.939-0.763,2.876,0.264,3.461l0.112,0.264
						c1.027,0.587,0.979,0.38,1.875-0.502c1.438-1.416,2.192-4.471,2.192-4.471c0.436-1.538-0.017-3.393-0.661-3.74l0,0
						c-0.627-0.379-1.582-0.356-1.919,0.041C177.877,167.648,178.226,170.11,176.013,172.594z"/>
				</g>
				<path style="fill:#FFB89B;" d="M183.046,183.85l-5.753-1.041c-1.022-0.185-1.7-1.163-1.515-2.185l0,0
					c0.185-1.022,1.163-1.7,2.185-1.515l5.753,1.041c1.022,0.185,1.7,1.163,1.515,2.185l0,0
					C185.046,183.356,184.068,184.035,183.046,183.85z"/>
				<path style="fill:#FFB89B;" d="M181.995,187.376l-5.753-1.041c-1.022-0.185-1.7-1.163-1.515-2.185l0,0
					c0.185-1.022,1.163-1.7,2.185-1.515l5.753,1.041c1.022,0.185,1.7,1.163,1.515,2.185l0,0
					C183.995,186.883,183.017,187.561,181.995,187.376z"/>
				<path style="fill:#FFB89B;" d="M180.538,190.699l-5.753-1.041c-1.022-0.185-1.7-1.163-1.515-2.185l0,0
					c0.185-1.022,1.163-1.7,2.185-1.515l5.753,1.041c1.022,0.185,1.7,1.163,1.515,2.185l0,0
					C182.537,190.205,181.559,190.884,180.538,190.699z"/>
			</g>
		</g>
	</g>
	<g>
		<g>
			<g>
				
					<line style="fill:none;stroke:#231356;stroke-width:2;stroke-linecap:round;stroke-linejoin:round;stroke-miterlimit:10;" x1="728.798" y1="171.381" x2="735.846" y2="178.429"/>
				
					<line style="fill:none;stroke:#231356;stroke-width:2;stroke-linecap:round;stroke-linejoin:round;stroke-miterlimit:10;" x1="735.846" y1="171.381" x2="728.798" y2="178.429"/>
			</g>
		</g>
		<g>
			<g>
				
					<line style="fill:none;stroke:#231356;stroke-width:2;stroke-linecap:round;stroke-linejoin:round;stroke-miterlimit:10;" x1="728.798" y1="203.471" x2="735.846" y2="210.519"/>
				
					<line style="fill:none;stroke:#231356;stroke-width:2;stroke-linecap:round;stroke-linejoin:round;stroke-miterlimit:10;" x1="735.846" y1="203.471" x2="728.798" y2="210.519"/>
			</g>
		</g>
		<g>
			<g>
				
					<line style="fill:none;stroke:#231356;stroke-width:2;stroke-linecap:round;stroke-linejoin:round;stroke-miterlimit:10;" x1="728.798" y1="235.56" x2="735.846" y2="242.608"/>
				
					<line style="fill:none;stroke:#231356;stroke-width:2;stroke-linecap:round;stroke-linejoin:round;stroke-miterlimit:10;" x1="735.846" y1="235.56" x2="728.798" y2="242.608"/>
			</g>
		</g>
	</g>
	<g>
		<g>
			<g>
				
					<line style="fill:none;stroke:#231356;stroke-width:2;stroke-linecap:round;stroke-linejoin:round;stroke-miterlimit:10;" x1="105.042" y1="289.606" x2="112.09" y2="296.654"/>
				
					<line style="fill:none;stroke:#231356;stroke-width:2;stroke-linecap:round;stroke-linejoin:round;stroke-miterlimit:10;" x1="112.09" y1="289.606" x2="105.042" y2="296.654"/>
			</g>
		</g>
		<g>
			<g>
				
					<line style="fill:none;stroke:#231356;stroke-width:2;stroke-linecap:round;stroke-linejoin:round;stroke-miterlimit:10;" x1="105.042" y1="321.695" x2="112.09" y2="328.743"/>
				
					<line style="fill:none;stroke:#231356;stroke-width:2;stroke-linecap:round;stroke-linejoin:round;stroke-miterlimit:10;" x1="112.09" y1="321.695" x2="105.042" y2="328.743"/>
			</g>
		</g>
		<g>
			<g>
				
					<line style="fill:none;stroke:#231356;stroke-width:2;stroke-linecap:round;stroke-linejoin:round;stroke-miterlimit:10;" x1="105.042" y1="353.785" x2="112.09" y2="360.833"/>
				
					<line style="fill:none;stroke:#231356;stroke-width:2;stroke-linecap:round;stroke-linejoin:round;stroke-miterlimit:10;" x1="112.09" y1="353.785" x2="105.042" y2="360.833"/>
			</g>
		</g>
	</g>
	<g>
		<g>
			<g>
				
					<line style="fill:none;stroke:#231356;stroke-width:2;stroke-linecap:round;stroke-linejoin:round;stroke-miterlimit:10;" x1="608.133" y1="47.981" x2="615.181" y2="55.03"/>
				
					<line style="fill:none;stroke:#231356;stroke-width:2;stroke-linecap:round;stroke-linejoin:round;stroke-miterlimit:10;" x1="615.181" y1="47.981" x2="608.133" y2="55.03"/>
			</g>
		</g>
		<g>
			<g>
				
					<line style="fill:none;stroke:#231356;stroke-width:2;stroke-linecap:round;stroke-linejoin:round;stroke-miterlimit:10;" x1="608.133" y1="80.071" x2="615.181" y2="87.119"/>
				
					<line style="fill:none;stroke:#231356;stroke-width:2;stroke-linecap:round;stroke-linejoin:round;stroke-miterlimit:10;" x1="615.181" y1="80.071" x2="608.133" y2="87.119"/>
			</g>
		</g>
		<g>
			<g>
				
					<line style="fill:none;stroke:#231356;stroke-width:2;stroke-linecap:round;stroke-linejoin:round;stroke-miterlimit:10;" x1="608.133" y1="112.16" x2="615.181" y2="119.209"/>
				
					<line style="fill:none;stroke:#231356;stroke-width:2;stroke-linecap:round;stroke-linejoin:round;stroke-miterlimit:10;" x1="615.181" y1="112.16" x2="608.133" y2="119.209"/>
			</g>
		</g>
	</g>
</g>
</svg>
