<?xml version="1.0" encoding="utf-8"?>
<!-- Generator: Adobe Illustrator 27.5.0, SVG Export Plug-In . SVG Version: 6.00 Build 0)  -->
<svg version="1.1" id="Layer_1" xmlns="http://www.w3.org/2000/svg" xmlns:xlink="http://www.w3.org/1999/xlink" x="0px" y="0px"
	 viewBox="0 0 2500 2500" style="enable-background:new 0 0 2500 2500;" xml:space="preserve">
<path style="fill:#FEFEFE;" d="M0,0h2500v2500H0V0z"/>
<path style="fill:#0A1856;" d="M687.3,486.6c3.9,6.4,7.9,13.4,15.6,15.5c4.4,1.2,10,0.8,13.8-1.7l1.2-1l2-1l2.7-0.2l0.1,13.1
	c-0.6,7.7-0.1,23.5-7.2,27.9l-1.5,0.5c-3.5-1.7-6.6-4.6-9.2-7.5C693.8,519.9,686.7,503.3,687.3,486.6z"/>
<path style="fill:#ADB8CD;" d="M2273.3,1687.3l23.8,25l-23.6,24.9l-24.1-24.8L2273.3,1687.3z"/>
<path style="fill:#C4D4EB;" d="M855.9,165c6.1-0.6,14.2-1.4,19.9,1.1c7.4,3.1,12.9,8.1,16,15.6c2.7,6.6,2.7,15.2-0.3,21.7
	c-4.3,9.4-9.4,12.9-18.7,16.4c-5.8,0.5-12.5,0.8-18.1-0.9c-6.7-2-12.9-7.3-16.2-13.4c-3.6-6.6-4.4-16.3-2-23.4
	C839.4,173.5,848.3,168.5,855.9,165z"/>
<path style="fill:#EBF2FA;" d="M856.9,169.9c4.4-0.5,9.5-0.8,13.8,0c6,1,13.2,7.4,16.1,12.5c2.2,3.8,2.8,11.5,1.5,15.6
	c-2.7,8.4-8.6,14-16.3,17.9c-4.8,0.6-9.7,1-14.4-0.2c-5.3-1.3-10.8-6.8-13.5-11.3c-3.1-5.2-5.4-14.4-3.5-20.3
	C843.1,176.2,850.1,173.1,856.9,169.9z"/>
<path style="fill:#67A3EC;" d="M1729.8,321.1l40-8.4l3.9,75.6c0.4,12.7,1.7,26.1,0.9,38.8l-2.1,1.6l-0.4-0.3
	c-6.2-4-10.6-21.7-13.2-28.7L1729.8,321.1z"/>
<path style="fill:#C4D4EB;" d="M1051.6,259c6.2-0.3,11.6-0.5,17.6,1.5c6.5,2.1,11.7,7.8,14.6,13.8c4,8.1,4.8,16.1,1.5,24.6
	c-3.7,9.5-10.9,13.5-19.8,17.1c-6.6,0.3-13.2,0.8-19.4-1.9c-7-3.1-13.2-8.9-15.8-16.1c-2.9-8.1-1.7-18.1,2.5-25.6
	C1037.1,264.7,1043.7,261.4,1051.6,259z"/>
<path style="fill:#EBF2FA;" d="M1052.5,263.8c3.5-0.3,7.8-0.6,11.3,0.1c6,1.4,12.2,7.2,15.3,12.3c3.4,5.5,5.1,13.1,3.1,19.5
	c-2.3,7.5-11.9,12.8-18.4,15.8c-3.9,0.6-8.5,0.6-12.2-0.4c-6.4-1.8-12.6-7.8-15.7-13.6c-2.5-4.7-2.8-11.6-1-16.6
	C1038.2,271.8,1044.4,268,1052.5,263.8z"/>
<path style="fill:#0E70D0;" d="M1789.6,458l3-1.4l110.2,53.4c-7.9,13.6-17.6,26.3-28.8,37.3l-19.6-21.3l-50.9-50.2
	C1798.9,470.9,1791,464.6,1789.6,458z"/>
<path style="fill:#F56E4B;" d="M2268.4,1516.7c5.8,4.2,11.3,11.1,16.4,16.3l37,37.1l-51.5,52.9l-2.3,1.6l-50.5-53.4L2268.4,1516.7z"
	/>
<path style="fill:#F0AC20;" d="M249,816c7.7,8.4,13.9,18.5,20.8,27.5c10.2,13.3,21.4,25.1,33.5,36.6c-20.7,18.9-36.6,40.8-52.8,63.5
	l-54.7-65C215.9,859.3,232.5,838.5,249,816z"/>
<path style="fill:#F0AC20;" d="M1908.5,499.3L1795.6,445l106.2-82.5l11.6,35.6C1922.1,431.6,1923.6,467.3,1908.5,499.3z"/>
<path style="fill:#FABD8C;" d="M722.8,511.3l1.5,1.9c3.4,4.5,4.1,10.7,6.3,15.9c8.9,21.2,22.7,42.6,42.1,55.6l1.6,1.1
	c8.2,5.5,17.2,8.7,25.8,13.4l-2.8,27l1.8,1.7l-0.4,2.9l-1.8,5c0.3,7,1.4,15.2-4,20.8c-6.1,6.2-18.8,5-26.8,4.7
	c-29.4-1.4-57.9-17.4-77.4-39l23.8-73.2l1.5-9.3l1.5-0.5C722.7,534.8,722.1,518.9,722.8,511.3z"/>
<path style="fill:#F68865;" d="M722.8,511.3l1.5,1.9c3.4,4.5,4.1,10.7,6.3,15.9c8.9,21.2,22.7,42.6,42.1,55.6l1.6,1.1
	c8.2,5.5,17.2,8.7,25.8,13.4l-2.8,27l1.8,1.7l-0.4,2.9l-1.8,5c-1.6,0.1-2.2,0.3-4-0.3c-5-1.5-12.2-6.7-16.7-9.7
	c-19.1-12.8-34.6-29.2-47.1-48.6L712.6,549l1.5-9.3l1.5-0.5C722.7,534.8,722.1,518.9,722.8,511.3z"/>
<path style="fill:#F0AC20;" d="M1779.8,291.6l12.9,0.4c45.4,4.4,76.4,24.3,105.1,59l-48.1,36.9l-60.9,48.5
	c-2.1-6.6-1.9-15.6-2.4-22.5l-2.7-55.5L1779.8,291.6z"/>
<path style="fill:#F56E4B;" d="M418.9,2006l10.9,0.5l49,0.3l-5.8,37.9l-2.3,12.3l-3.8,24.6c-0.2,1.1-0.5,5-1,5.6
	c-5.8-3.4-141.7-1.6-160-2.3l-4.8-28.9l-0.9-7.8l-2.3-3.1l-21-0.6c-1.3-12.6-0.6-25.7-0.2-38.3L418.9,2006z"/>
<path style="fill:#8C1912;" d="M300.2,2048.1l0.6-2.6c4.5-2.9,154.7-0.9,172.2-0.9l-2.3,12.3l-169.6-1.1L300.2,2048.1z"/>
<path style="fill:#AC3B34;" d="M301.1,2055.9l169.6,1.1l-3.8,24.6c-0.2,1.1-0.5,5-1,5.6c-5.8-3.4-141.7-1.6-160-2.3L301.1,2055.9z"
	/>
<path style="fill:#FABD8C;" d="M732.9,491.2l3.9-3.4c2.2-6.1,1-12,0.4-18.3c7.6-0.6,14.2-0.9,20-6.6c11.1-11,8.4-27.8,8.3-42.1
	c3.3-4.7,7.7-11.9,13.9-12.3c7.9-0.5,22.1,9.3,29.6,12.6c27.5,12.3,54.2,13.3,83.7,8l-1.5,27.2l5.5,3.7c-0.3,2.9-1.2,3.2-3,5.3
	c-2.4,32.7,1.1,103.2-24.1,125.3c-13.1,11.5-28.4,14.3-45.3,13.1c-7.9-0.6-16.7-1.6-24-4.5c-8.5-4.8-17.5-7.9-25.8-13.4l-1.6-1.1
	c-19.4-13-33.2-34.4-42.1-55.6c-2.2-5.1-2.9-11.3-6.3-15.9l-1.5-1.9l-0.1-13.1c2.6-1.4,4.4-2.4,6.4-4.7
	C731.1,491,729.7,491.7,732.9,491.2z"/>
<path style="fill:#020A46;" d="M893.6,465.3c-7.3-4.3-12.2-5.9-20.5-3.3c-3.3,1-6,2.5-9.4,1.7l-0.4-2.9c0.9-0.9,1.2-1.3,2.2-2
	c6.6-4.6,18.1-3.9,25.7-2.6l5.5,3.7C896.3,462.9,895.4,463.2,893.6,465.3z"/>
<path style="fill:#000104;" d="M806.8,454.4c5.9-0.5,12.7,0,18.3,2c2.9,1,3.3,1,4.7,3.8c-2.3,2.3-2.8,2.8-5.9,3.6l-1.8-1.5
	c-7.5-3.4-14.5-2.4-22.1-0.5c-2.2,0.5-2.1,0.3-4.1-0.4l-0.1-3.1c1.1-0.9,2.1-1.8,3.5-2.3L806.8,454.4z"/>
<path style="fill:#000104;" d="M876.5,480.3c3.9-0.7,4.3-0.8,7.9,0.7c1.9,2.3,3.1,4.7,2.9,7.8c-0.3,4.1-1.3,5.6-4.2,8.4
	c-2.3,0.6-3.8,0.9-6.1-0.2c-2.6-1.3-4.5-3.9-4.7-6.9C872.2,485.7,874,483.5,876.5,480.3z"/>
<path style="fill:#000104;" d="M814.8,477.9c2.2,0,3,0.8,4.9,1.9c2.1,2.8,3.2,4.7,3.1,8.3c-0.1,4.7-2.2,7-5.6,10l-3.9-0.6
	c-1.1-1.1-2.4-2.3-3.2-3.7c-1.5-2.6-1.8-7-0.9-9.8C810.2,480.5,811.9,479.8,814.8,477.9z"/>
<path style="fill:#F56E4B;" d="M816.7,538.9l0.9-0.3c0,0,4.4-0.2,4.5-0.2c1.6,0.5,6.4,9.8,9.9,11.7c7.6,4,14.6,1.6,22.4-0.5l2,1.2
	L855,554l-3.1,2.4c-5.2,3.4-11.7,2.7-17.4,1.2c-7.6-2-12.7-5.9-16.8-12.7C816.1,542,816,542.1,816.7,538.9z"/>
<path style="fill:#F56E4B;" d="M846,475.5l3.2-0.2c2.2,5.4,2.8,11.1,4,16.7c2.3,10.7,6.3,20,13.8,28.2c1.4,1.5,1.2,2.2,1.6,4.2
	l-3.7,0.2c-3-1.3-5-2.3-7.1-4.8C849.3,509.3,844.7,488.7,846,475.5z"/>
<path style="fill:#C4D4EB;" d="M366,459.9c9,2.5,23.6,2.8,30.4,8.2c2.3,5.9-0.1,12.2-1.1,18.4c4.8,4.3,10.6,7.7,16,11.2
	c5.9-1.8,11.7-5.5,17.4-7.8c4.8,8.8,9.4,16.8,15.7,24.7c-3.2,4.3-9.8,6.9-12.4,11.2c-2.5,4.1-0.8,13,0.2,17.4
	c4.2,6.1,10.9,7.5,17.3,10.7c-0.2,10.9-3.4,22.5-5.8,33.1l-17.8-0.6c-5.9,5.9-10.2,12.6-13.9,20c3.2,7.2,7.1,13.4,11.4,19.9
	l-27.2,21.9l-16-16.6l-22.3,5.7l-3.3,19.8l-24.7-6.5l-14-2.9c2.6-7.1,4.1-14.6,5.8-21.9l-20.4-11.3L287.1,625
	c-9.2-9.2-16.8-22.2-24-33l17.7-17.3l-6.3-18.4l-20.6-7.2c0.4-4.1,2.5-8.7,3.6-12.8l7-26.9l14,4.8l1.6,0.6l5.2-3.3
	c6.1-3.6,10.5-8.1,15.4-13.2l-8.3-18.8l31.3-16.6l13.4,16.6c6.6-0.8,12.5-3.1,19.4-3.5l1.6-0.1L366,459.9z"/>
<path style="fill:#FEFEFE;" d="M347.7,514c6.1-0.2,12-0.4,17.9,1.1c9.9,2.5,18.5,9.1,23.7,18c5.1,8.6,8.4,20.3,5.4,30.2l-0.4,1.3
	c-0.9,3-1.9,5.7-3.5,8.4c-6.8,11.6-16.5,17.7-29.2,21.3c-7.3,0.7-15.1,0.9-22.1-1.6c-11.3-4.1-18.3-12.3-23-23.1l-0.8-1.8l-1.2-2.9
	c-2.8-8.7-0.9-20.4,3.5-28.2C325,524.6,334.4,517.8,347.7,514z"/>
<path style="fill:#F56E4B;" d="M305.9,2084.9c18.3,0.7,154.2-1.1,160,2.3l-7.2,44.5c-0.8,5.1-3.3,13.2-1.5,18c2.9,0.2,6,0.5,8.9,0.4
	l-5.9,34.1c-1.2,5.8-4.2,14.4-3.2,20.2l-1,1.6c-1.7,0.1-2.5-0.3-3.6,1c-18.9,21-19,52.1-25.4,78.2c-4,3.6-3.3,7-3.7,12.3l-78.7-1.2
	L305.9,2084.9z"/>
<path style="fill:#0A1856;" d="M650.6,398.9c1.1-5.3,2.1-9.2,6.9-12.3c3-1.9,5.5-2.4,8.9-2.7c1.3-10-8-21.2,1.4-29.3
	c3.9-3.3,9.1-4.8,14.1-4l29.6,5.2c4.6-18.2,10.5-35.5,27.4-45.8c20.9-12.8,47.9-14.4,71.3-8.4c31.1,8.1,59.5,35.2,92.6,24
	c3.4-1.2,5.1-2.4,8.5-1.2c2.1,3.3,1.9,4.1,1,7.9c-1.2,5.4-3.1,10.3-5.4,15.2c7.4-3,13.6-6.8,21.4-3.8c2.5,4.9,2,8,0.2,13.2
	c-2.2,6.6-5.8,12.9-10,18.4c7-1.3,14.1-3.3,21.3-2.3c1.9,3,2.1,5.6,1.3,9.2c-3.2,15.3-19.6,33.1-33,40.4l-15.5,6.6
	c-29.4,5.3-56.2,4.3-83.7-8c-7.5-3.3-21.7-13.2-29.6-12.6c-6.3,0.4-10.7,7.6-13.9,12.3c0.2,14.3,2.8,31.1-8.3,42.1
	c-5.7,5.7-12.4,6-20,6.6c0.7,6.3,1.8,12.2-0.4,18.3l-3.9,3.4c-3.2,0.5-1.7-0.2-3.9,2.3c-1.9,2.3-3.7,3.3-6.4,4.7l-2.7,0.2l-2,1
	l-1.2,1c-3.8,2.5-9.5,2.9-13.8,1.7c-7.8-2.1-11.7-9.1-15.6-15.5c0.3-4.8,0.3-9.2-0.3-14l-25-43C656.5,419.2,652.8,410.5,650.6,398.9
	z"/>
<path style="fill:#203372;" d="M816.2,380.7c17.3,3.1,33.5,6.3,51.2,6.5c5.9,0.1,13.1,0.6,18.7-1.4c4.7-1.7,16.6-10.9,20.7-10.9
	c-12.5,12.6-25,17-42.5,17c-16.1,0-35.5-3.5-51.2-7.6c2-0.5,3.6-0.5,5.6-0.4c1.8,0.1,2.9,0.1,4.7-0.2
	C820.1,383.7,818.9,382.5,816.2,380.7z"/>
<path style="fill:#1B4BB6;" d="M813,384.4l-17.6-2.1c-20.6-1.9-34.5-0.3-50.8,13.2l-0.9-0.7c1.9-4.8,5.3-8.7,9.5-11.8
	c11.3-8.4,33.2-7.2,46.3-5.2l16.7,2.8c2.7,1.7,3.9,3,7.2,3.2c-1.8,0.3-2.9,0.3-4.7,0.2C816.6,384,815,383.9,813,384.4z"/>
<path style="fill:#203372;" d="M738.2,348.4c4.6-2.9,8.7-4.9,13.8-6.7l1.7-0.6c7-2.4,15.3-2.1,22.6-1.6
	c29.4,1.9,56.6,17.3,86.6,15.3c6.2-0.4,12.5-0.8,18.2-3.5l1.8-0.8c6.8-3.3,13.1-8.1,18.8-13c-0.4,4.6-5.4,8.6-8.9,11.6
	c-3.6,3-7.1,4.7-11.5,6.2l-1.8,0.6c-44.3,14.8-93.2-25.2-135.2-5.4c-7.9,4.8-15.2,11-20.7,18.5c-17.9,24.7-10,53.8-5.1,81.4
	l-5.1-8.4c-8.8-16.2-10-39-4.8-56.7C713.6,368.3,722.6,356.8,738.2,348.4z"/>
<path style="fill:#F6BFA8;" d="M687,472.6c2.9-5.6,6-10.8,11.9-13.5c5.7-2.6,11.9-1.5,17.5,0.5c5.9,4.4,7.5,9.2,9.3,16.1
	c1.8,5.8,3,10.8,7,15.4c-3.2,0.5-1.7-0.2-3.9,2.3c-1.9,2.3-3.7,3.3-6.4,4.7l-2.7,0.2l-2,1l-1.2,1c-3.8,2.5-9.5,2.9-13.8,1.7
	c-7.8-2.1-11.7-9.1-15.6-15.5C687.6,481.9,687.6,477.4,687,472.6z"/>
<path style="fill:#F68865;" d="M716.5,459.6c5.9,4.4,7.5,9.2,9.3,16.1c1.8,5.8,3,10.8,7,15.4c-3.2,0.5-1.7-0.2-3.9,2.3
	c-1.9,2.3-3.7,3.3-6.4,4.7l-2.7,0.2l-2,1c-1-1.8-1.5-3.3-1.9-5.3c-0.8-4.3-6.8-8.4-9.7-11.8c-2.9-3.4-5.1-7.3-7.3-11.2
	c4.7-3.1,9.8-6.9,15.2-8.6l1.7-0.5L716.5,459.6z"/>
<path style="fill:#C4D4EB;" d="M662.1,429.7c-8,2.5-19,1.3-26.1,4.6c-4.9,2.3-9,14.5-11.2,19.6l22.8,22.3l-40.2,37.5
	c-7.8-4.3-14.1-10.5-20.7-16.4l-25.1,11.3l-1.5,26.3l-46.2-4l0.9-26c-9.3-4.1-17.9-8.5-26.4-14c-8.2,5-13.1,13.2-21.3,18.5
	l-30.8-31.9c3.3-8.4,10.7-15.5,17-21.7c-3.1-7.1-5.3-14.6-9.2-21.3c-1-1.7-17.2-3-20.8-4c-5.1-9.6-1.4-30.8-0.8-42l24.4-2l6.9-16.9
	c0.3-0.8,2.1-4.5,2.1-5.1c-0.1-5-11.6-12.1-12.8-17.8l29.4-30.6l19.9,16.6l24.3-11.1c-0.1-7.7-1-16.6,0.5-24.1
	c4.2-2.6,9.6-2.1,14.5-2.2l36.4,0.9c0.1,9.3-0.3,19,1,28.1c6.3,3.3,12.7,6.5,18.4,10.6l1,0.7l22.4-17.2l29.9,29.3
	c-5.1,5.2-14.5,12.6-14.3,20.5c0.4,11.1,15.3,23.8,23.6,30.2l0.8,0.6C652.8,410.5,656.5,419.2,662.1,429.7z"/>
<path style="fill:#FEFEFE;" d="M535.9,362.8c9.4-0.7,18.5,1.5,26.8,5.9c12.2,6.4,23.4,18.1,27.1,31.6c3.7,13.4,0.8,26.2-6.2,37.9
	c-8.3,13.9-19.6,20.4-35,23.9c-7.2,0.5-13.8,0.6-20.8-1.3c-11.3-3.1-22.6-10.2-28.2-20.8l-0.8-1.5l-3.9-7.9
	c-4-9.7-5.3-23.2-1.2-33.1l0.6-1.4c4-10.1,11.8-20.4,21.4-25.8l1.5-0.8C523.7,365.8,528.7,364.2,535.9,362.8z"/>
<path style="fill:#EBF2FA;" d="M2198.2,1035c32-5.8,71.5-7.5,99.7,11.8c18.9,12.9,26.8,38.7,30.2,60.2c4.7,30,0.1,63.4-6.2,92.8
	c-18.6,85.9-56.5,162.2-101.9,236.7c-8.2,13.4-15.1,28.3-24.5,40.8l-4.8,5.5l-1,1.1l0.1-150l0.2-40c0-5.4-0.9-12.7,1-17.6
	c2.8,0,4.6,0.2,7.1-1.2L2198.2,1035z"/>
<path style="fill:#90C1ED;" d="M983.2,1935.3l143.4,30.6c0,10.5-2,25.5,0.9,35.5l0.1,187.5l0.1,47.7c0,8.2-0.9,17.6,0.7,25.5
	c2,9.8,8.5,21.7,15.7,28.8c3.6,3.6,8.1,6.4,12.3,9.2c20.4,2.7,41.9,1.6,62.5,1.8l107.3,0.3h142.7c24.4,0,49.5,1,73.7-0.6l95.6-0.5
	c2.9-1.9,5.6-3.8,8.1-6.2c10.7-9.9,9.5-19.8,10-33.3l22.3,0.4c1.3,14.5,4.2,23,15.9,32.3c2.9,2.3,6.2,4.2,9.5,5.9l261.9-0.6
	l49.6,0.1l173-0.5l1.1-2.6c7.2-2.3,16.1-1.4,23.7-1.4l43-0.1h29c5.4,0,11.4-0.5,16.5,1.5c3.1,1.2,7.3,5.5,8.2,8.8
	c1.2,4.1-0.9,10.2-3.2,13.5c-2.2,3.2-5.1,4.5-8.9,5c-13.7,1.6-29.2,0.3-43.1,0.4l-91.5,0.3l-312.5-0.2l-982.6-0.1l-455.4-0.9H264.5
	h-41.9c-6.5,0-14.1,0.7-20.4-0.2c-2.6-0.4-4.4-1.2-6.3-2.8c-2.8-2.2-4.9-5-5.2-8.6c-0.4-4.4,0.2-8,3.3-11.3c1.3-1.4,4-3.2,5.7-3.9
	c1.9-0.7,6.3-0.3,8.5-0.3h24.7l111.7,0.1l78.7,1.2c0.3-5.3-0.3-8.6,3.7-12.3c6.4-26.1,6.5-57.3,25.4-78.2c1.2-1.3,2-0.9,3.6-1l1-1.6
	c-1.1-5.7,2-14.4,3.2-20.2l5.9-34.1l59.8-0.1c9.6,0,20.7-1.2,30.1,0.1l-11,28.6c-1.5,4.2-3.4,8.4-3.4,12.9c3.7-0.5,7.4-1.2,11.1-0.6
	c2.4,1.2,5.5,2,7.7,3.5l9.8,9.9l8.3,6.9l2.8,0.8c1.8,3.9,2.1,5,6.2,7l0.7,0.2l16,10.6l32.1,10.4c15.3,4.5,41.9,9.4,49.7,24.7
	c3,5.9,3.9,12.8,4,19.3l5.8,2l0.7,1.4c1.4,4,0.8,9.2,0.7,13.4h83.9c10.9,0,25.1-1.6,35.6,0.6l0.4-17l4.3-1.9
	c-0.1-8.5,2.1-17.4,3.4-25.8c2.7-16.9,5.2-35.3,10.7-51.5c6.5-17.7,7.4-38,8.2-56.7l-10.4-1.1l-1.9-0.4l6.1,0.1h95.3
	c2.8,0.2,3.5,0.4,6.1-0.9c6.3-19.8,8.1-42,12.3-62.4L983.2,1935.3z"/>
<path style="fill:#1B4BB6;" d="M1656.3,2261.6l22.3,0.4c1.3,14.5,4.2,23,15.9,32.3c2.9,2.3,6.2,4.2,9.5,5.9l-65.7,0.8
	c2.9-1.9,5.6-3.8,8.1-6.2C1657,2284.9,1655.8,2275.1,1656.3,2261.6z"/>
<path style="fill:#0A1856;" d="M427,2285.1l191.2-0.1l49,0.1c6.9,0,16.3,1.2,22.8-0.7l5.8,2v16.6l-213.7,0.1l-43-0.1
	c-3,0-9.6,0.8-12.1-0.2c-0.9-0.4-1.5-1.2-2.3-1.8l-1.4-3.6C423.6,2292.1,423,2288.8,427,2285.1z"/>
<path style="fill:#020A46;" d="M821.4,2282.6c11.8,1.5,24.4,0.8,36.3,0.9l64.8,0.3l102.5,0.2h50.7c3.7,0.4,6.7-0.2,9.4,2.4l0.2,14.8
	c-5.9,1.5-12.6,0.9-18.7,0.9l-34.1,0.2l-127.3,0.1l-59.6-0.1c-9.1,0-20.1,1.1-29-0.6l0.4-17L821.4,2282.6z"/>
<path style="fill:#E04022;" d="M466.1,2150.1l59.8-0.1c9.6,0,20.7-1.2,30.1,0.1l-11,28.6c-1.5,4.2-3.4,8.4-3.4,12.9
	c3.7-0.5,7.4-1.2,11.1-0.6c2.4,1.2,5.5,2,7.7,3.5l9.8,9.9l8.3,6.9l2.8,0.8c1.8,3.9,2.1,5,6.2,7l0.7,0.2l16,10.6l32.1,10.4
	c15.3,4.5,41.9,9.4,49.7,24.7c3,5.9,3.9,12.8,4,19.3c-6.5,1.9-15.9,0.7-22.8,0.7l-49-0.1L427,2285c6.4-26.1,6.5-57.3,25.4-78.2
	c1.2-1.3,2-0.9,3.6-1l1-1.6c-1.1-5.7,2-14.4,3.2-20.2L466.1,2150.1z"/>
<path style="fill:#000104;" d="M541.6,2191.6c3.7-0.5,7.4-1.2,11.1-0.6c-7.5,5.2-15.4,8.9-23.5,13c-18.4,9.2-32,15.6-53.5,12.8
	l-3.3-1.1c-6.6-2.1-12.3-3.7-16.4-9.7l1-1.6l1.8-0.4c3.1,1,3.5,2.4,5.5,4.9c8.6,2.7,16.6,4.3,25.6,4.2c14.6-0.1,24.8-6.7,37.4-13.3
	C531.8,2197.5,538,2195.2,541.6,2191.6z"/>
<path style="fill:#F6BFA8;" d="M466.1,2150.1l59.8-0.1c9.6,0,20.7-1.2,30.1,0.1l-11,28.6c-1.5,4.2-3.4,8.4-3.4,12.9
	c-3.6,3.6-9.8,5.9-14.3,8.2c-12.6,6.5-22.8,13.2-37.4,13.3c-9,0-17-1.5-25.6-4.2c-1.9-2.5-2.4-3.9-5.5-4.9l-1.8,0.4
	c-1.1-5.7,2-14.4,3.2-20.2L466.1,2150.1z"/>
<path style="fill:#FEFEFE;" d="M983.2,1935.3l143.4,30.6c0,10.5-2,25.5,0.9,35.5l0.1,187.5l0.1,47.7c0,8.2-0.9,17.6,0.7,25.5
	c2,9.8,8.5,21.7,15.7,28.8c3.6,3.6,8.1,6.4,12.3,9.2l-71.1,1l-0.2-14.8c-2.7-2.6-5.8-2.1-9.4-2.4H1025l-102.5-0.2l-64.8-0.3
	c-11.9-0.1-24.5,0.7-36.3-0.9c-0.1-8.5,2.1-17.4,3.4-25.8c2.7-16.9,5.2-35.3,10.7-51.5c6.5-17.7,7.4-38,8.2-56.7l-10.4-1.1l-1.9-0.4
	l6.1,0.1h95.3c2.8,0.2,3.5,0.4,6.1-0.9c6.3-19.8,8.1-42,12.3-62.4L983.2,1935.3z"/>
<path style="fill:#C4D4EB;" d="M1041.1,2059.9l3.9-0.8l42.2,28.9l-40.4,24.9c-1.8,1.1-2.9,1.3-4.9,1.7l-30.7-20
	c-3-1.9-8.2-4.7-9.6-7.8L1041.1,2059.9z"/>
<path style="fill:#E04022;" d="M837.6,2147.2h95.3l-7,1.5c-4.4,13.3-6.4,29.2-6.9,43.1l5.9,1.8l4.4,0.5c9.3,1.5,16.7,8.6,23.1,15.2
	l3.6,3.3l-1.4,1l-1-0.4c-3.6-1.3-5.3-1.5-9-0.6c1.3,2.2,4.4,4.2,6.9,5l2.2,0.5l4.1-3c7.1,5.5,15.1,11.9,21.2,18.6
	c5.1,4.3,13.9,4.3,20.3,5.3c25,3.7,72.9,7.2,76.2,39l0.3,6.1h-50.7l-102.5-0.2l-64.8-0.3c-11.9-0.1-24.5,0.7-36.3-0.9
	c-0.1-8.5,2.1-17.4,3.4-25.8c2.7-16.9,5.2-35.3,10.7-51.5c6.5-17.7,7.4-38,8.2-56.7l-10.4-1.1l-1.9-0.4L837.6,2147.2L837.6,2147.2z"
	/>
<path style="fill:#C62B06;" d="M924.9,2193.5l4.4,0.5c9.3,1.5,16.7,8.6,23.1,15.2l3.6,3.3l-1.4,1l-1-0.4c-3.6-1.3-5.3-1.5-9-0.6
	c1.3,2.2,4.4,4.2,6.9,5l2.2,0.5l4.1-3c7.1,5.5,15.1,11.9,21.2,18.6l-0.7,0.5c-2.6,2.1-5.5,3.3-8,5.4l-1.5,1.2
	c-4.4,2.8-7.5,7.6-12.8,8.5c-2.2-1.5-1.2-1.1-3.5-1.6c-15.8-3.1-30-10.5-41.9-21.3c-3.8-2.3-8.2-5.6-12.5-6.7
	c-8.6-2.2-18.7,5.5-27.8,0.3c-2.3-1.3-0.6-0.9-3.1-1.2c-2.2-0.3-1.1,0.1-3.4-1c-1.8-0.9-1.6-0.9-3.6-1.5c-7-1.9-11.3-3.7-17-8.5
	l1.5-3l1.5,0.4c3,1.6,4.9,4.5,8.4,5.8c9.3,3.5,33.6,2,41.7-4c4.9-3.6,10.5-11.6,16.3-13.3C915.5,2192.8,921.5,2193.6,924.9,2193.5z"
	/>
<path style="fill:#E04022;" d="M965,2226h2.3c1.9,1.7,3.5,3.5,5,5.5c-1,2.9-2.4,2.8-4.9,4.3l-2.4-0.3c-2.3-0.6-5.4-3-6.3-5.2
	C960.6,2228.2,962.6,2227.2,965,2226z"/>
<path style="fill:#F6BFA8;" d="M837.6,2147.2h95.3l-7,1.5c-4.4,13.3-6.4,29.2-6.9,43.1l5.9,1.8c-3.4,0-9.3-0.7-12.4,0.1
	c-5.8,1.7-11.3,9.7-16.3,13.3c-8.1,6-32.4,7.5-41.7,4c-3.5-1.3-5.4-4.2-8.4-5.8l-1.5-0.4l-9,0.6c6.5-17.7,7.4-38,8.2-56.7l-10.4-1.1
	l-1.9-0.4L837.6,2147.2L837.6,2147.2z"/>
<path style="fill:#F9C85B;" d="M1092,492V269.7l0.3-38c0.1-6.3-0.7-13.8,0.6-20c0.9-4.3,3.7-7.8,6.7-10.9c3.2-3.3,6.6-6.3,11.4-6.9
	c10.7-1.3,22.7-0.2,33.5-0.2l72.7,0.1l241.1,0.1c14.8-0.1,44.7-4.3,55.7,6c7.6,7.1,8.2,13.4,8.2,23.3l-0.1,10.4l-0.2,207.4v63.4
	c0,10.2,0.8,21.3-0.3,31.5c-0.6,6.1-4.2,12.2-8.5,16.4c-4.4,4.3-9.2,6.4-15.1,7.6c-7.1,1.4-16.3,0.4-23.6,0.4l-50.6,0.1
	c3.9,16.9,19.9,37.3,17.5,54.3l-156.8-19.1c-3.9,3-7.1,11.1-9.6,15.6c-27-8.1-66.6-26.1-81.7-51.2l-52-0.6
	c-9.1-0.1-19.7,0.8-28.5-1.5c-4.5-1.2-8.9-4-12.2-7.3C1087.8,538.6,1092.1,508.7,1092,492z"/>
<path style="fill:#FEFEFE;" d="M1334.3,462.8c1.5,0.5,4.7,1.1,5.4,2.6c1,2.1,0.5,4.5,0.3,6.8c-4.7,3-20.2,1.2-26.5,1.1l-119.1-0.5
	l-34.1-0.1c-5.7,0-12,0.6-17.4-0.9c-0.3-3.5-0.6-4.5,0.9-7.7c18.8-2.6,40.4-0.9,59.5-0.9L1334.3,462.8z"/>
<path style="fill:#FEFEFE;" d="M1394.8,260.1c-25.7-0.2-247.3,1.5-251-0.4c-0.7-0.3-1.1-1-1.7-1.5c0.3-3.5,0.3-4.1,2.3-6.9
	c10.8-1.2,22-0.5,32.9-0.5l59,0.1l158.4,0.5c2.6,2.6,1.9,4,2.1,7.6L1394.8,260.1z"/>
<path style="fill:#FEFEFE;" d="M1305.3,412.6l112.8,0.5c1.6,3.1,1.3,4,0.9,7.5c-5.3,3.1-20,1.4-26.7,1.4l-71.2,0.2
	c-44.4-2.5-89.9-0.4-134.4-0.4h-28.8c-4.7,0-10.5,0.7-14.9-1c-0.3-3.4-1-4.8,0.9-7.7L1305.3,412.6z"/>
<path style="fill:#FEFEFE;" d="M1319,368.4c-14.1-1.7-29.3-0.7-43.5-0.8h-84.9c-15.4,0-31.4,0.8-46.8-0.5c-1.3-3.1-0.9-3.8-0.3-7.2
	c7.6-4.2,196.9-1,221.9-1.3l47.2,0.4c7.2,0.1,16.1-0.9,22.9,1c1.2,2.9,1,3.3,0.4,6.4c-6.6,4.1-24,1.9-32.5,1.9L1319,368.4z"/>
<path style="fill:#FEFEFE;" d="M1422.1,305l3.4,2l-0.3,6.2c-4.6,4.2-67.3,1.4-79.7,2.4l-147.6-0.3c-10.1,0-48.6,2.3-55.2-1.7
	c-0.1-3.6-0.6-4.9,1.4-7.9c9.6-1.3,20.2-0.5,29.9-0.6l56.4-0.1H1422.1z"/>
<path style="fill:#FEFEFE;" d="M1193,559.9l180.8,0.4l49.8-0.1c3.9,16.9,19.9,37.3,17.5,54.3l-156.8-19.1c-3.9,3-7.1,11.1-9.6,15.6
	C1247.6,603,1208.1,585,1193,559.9z"/>
<path style="fill:#F0AC20;" d="M1458.2,194c14.8-0.1,44.7-4.3,55.7,6c7.6,7.1,8.2,13.4,8.2,23.3l-0.1,10.4l-0.2,207.4v63.4
	c0,10.2,0.8,21.3-0.3,31.5c-0.6,6.1-4.2,12.2-8.5,16.4c-4.4,4.3-9.2,6.4-15.1,7.6c-7.1,1.4-16.3,0.4-23.6,0.4l-50.6,0.1l-49.8,0.1
	l-38.9-55.7c-7.2-10.4-15.4-20.3-21.4-31.4c6.2,0.1,21.8,1.9,26.5-1.1c0.2-2.3,0.7-4.6-0.3-6.8c-0.7-1.5-3.8-2-5.4-2.6l-25.7-40
	l12.4-0.8l71.2-0.2c6.7,0,21.4,1.7,26.7-1.4c0.3-3.5,0.7-4.4-0.9-7.5l-112.8-0.5l-21.9-32.6l9.5-10.8l26.1-0.7l84.4-0.2
	c8.5,0,25.9,2.2,32.5-1.9c0.6-3.1,0.9-3.6-0.4-6.4c-6.9-1.9-15.8-0.9-22.9-1l-47.2-0.4c-7.3-1.6-15.6-1-23.1-1h-40l43.1-42
	c12.4-1,75.1,1.7,79.7-2.4l0.3-6.2l-3.4-2c-6.8-3.4-57.1-1-68.3-0.9l-0.1-0.7c14-12.7,29.1-27.4,40.5-42.4l0.7-0.9l1.9-1.2l0.8-1.2
	c0.9-3-0.4-4.6,2.6-7c13.6-11.3,26.5-23.7,39.1-36.2C1445.6,208.2,1453.4,201.7,1458.2,194z"/>
<path style="fill:#EBF2FA;" d="M217.8,1529c-8.5-17.2-14.5-37.4-19.6-55.9c-18.9-68.9-23.5-141.1-8-211.3
	c10.5-47.7,27.2-94.3,52.2-136.4c13.2-22.2,28.6-42.3,45-62.2c17.9-21.8,39-44.5,62.9-59.8c5.4,5.1,12.5,8.5,18.9,12.2l35.1,19.9
	l116.8,66l59.7,33.7l-1.4,52.9l-20.1,344.8c-1.7,25.5-2.2,52.5-6.3,77.7c-2.1,12.8-6.6,25.2-9.6,37.8l-17.4,79.9l-10.3,53.5
	c-1.6,9.2-2.3,19.3-5,28.2c-25,17.1-49.9,36.8-78.6,47.5l-2.5,2.8l-9.6,0.5l-2.3-1c-16.9-9.8-34.1-19.2-50.3-30.1
	c-37-24.9-72.6-55.4-103.2-87.7c-39.6-41.7-76.8-90.4-74.9-150.8C189.8,1568.2,201.2,1544.7,217.8,1529z"/>
<path style="fill:#0E70D0;" d="M341.3,1117c4.1-0.2,7.6,0.2,11.5,1.7c6.2,2.2,11,7,13.4,13.1c2.3,5.6,2.5,14.5-0.4,20
	c-3.8,7.3-9.8,10.6-17.4,12.8c-3.5,0.1-6.7,0.1-10.1-0.9c-6.8-2-13.1-6.9-16.1-13.4c-2.4-5.2-1.6-13.7,0.7-18.8
	C326.8,1122.9,332.9,1119.8,341.3,1117z"/>
<path style="fill:#0EABB4;" d="M217.8,1529c28.3-21.3,66.3-22.1,89.6-50.7c14.5-17.9,20.4-42,26.3-63.9
	c10.3-38.5,23.7-91.3,61.6-111.9c10.8-5.9,24-8.7,36.3-6.8c17.2,2.7,34,14,44.1,28.1c10.4,14.6,16.3,31.5,18.3,49.3
	c2,18.2,0.8,37.2-0.2,55.5c-1.9,32.9-4.9,68.3,26.4,89.2c12,8,25.3,11.4,39.1,15c-1.7,25.5-2.2,52.5-6.3,77.7
	c-2.1,12.8-6.6,25.2-9.6,37.8l-17.4,79.9l-10.3,53.5c-1.6,9.2-2.3,19.3-5,28.2c-25,17.1-49.9,36.8-78.6,47.5l-2.5,2.8l-9.6,0.5
	l-2.3-1c-16.9-9.8-34.1-19.2-50.3-30.1c-37-24.9-72.6-55.4-103.2-87.7c-39.6-41.7-76.8-90.4-74.9-150.8
	C189.8,1568.2,201.2,1544.7,217.8,1529z"/>
<path style="fill:#0E7782;" d="M418,1852.9l2.5,1.2c1.8-17.1,0.7-35.2,0.7-52.4l-0.1-97.4l1.3-145.4l0.7-58.4
	c-0.3-8.7-2.4-16.4-3-24.8c-1.2-14.8-1.8-29.7-3.9-44.4c-2.2-15.1-0.2-31.5-3.1-46.6c-0.5-2.5-0.7-3.4,0.2-5.9
	c2.6,3.1,1.7,6.5,2.4,10.4c4.1,23.2,4.1,47.9,6.7,71.4c0.7,6.5-0.8,14.2,1.2,20.5c0.6-0.2,1.4-0.2,1.9-0.7c0.3-0.3,0-0.8,0-1.2
	l2.2-104.6c0.4-5.5-0.3-14.4,2.7-18.9c2,4.7-0.2,15-0.2,20.4l-0.7,81.5l0.6,225.2l1.5,0.7l3.5-5.3l86.7-125.5
	c-5.9,19.3-18.4,34.9-29.6,51.3l-54.7,74.4l-7.2,9.5l-0.4,167.5c18.7-33.8,43-65.8,65.5-97.2c4.3-6,8.3-14.1,13.2-19.3l1,1.8
	l-49,75.1l-18.9,26.9c-3.3,4.6-7.6,9.4-9.4,14.8l-2.5,2.8l-9.6,0.5l-2.3-1l-1.1-4.5c-8.7-11.2-15.5-25.7-23-37.8
	c-21.8-35.2-43.5-72.4-68.1-105.6c-15-20.2-34-38.9-51.3-57.4c-6.3-6.8-18.7-16.7-22.4-24.9c4.9-0.2,54.3,55.7,63.8,63.3
	c-4.2-11.7-13.8-23.4-20.3-34l-40.4-67.1l0.9-1.4l103.6,163.4l41.2,66.3C406.7,1830.7,413.3,1841.6,418,1852.9z"/>
<path style="fill:#F56E4B;" d="M863.6,655.1c44.7-63.6,104.9-113.8,176.5-144.5c12.2-5.3,24.6-9.6,37.2-13.7c4.1-1.3,9-2.1,12.8-3.7
	l1.9-1.2c0.1,16.7-4.1,46.6,8.3,58.6c3.4,3.2,7.7,6,12.2,7.3c8.8,2.3,19.4,1.4,28.5,1.5l52,0.6c15.1,25.1,54.6,43.1,81.7,51.2
	l-30.2,47.4l-129.4,193l-28,42.1c-5.1,7.7-11.8,15.7-15.1,24.3c2.1,2.5,4,2.9,7.1,3.9l1.4,3l203.7,37.3
	c-29.2,12.7-61,21.2-91.1,31.8l-159,53c-19.6,6.1-39.7,13.7-59.7,18c-5.7,1.2-14.1,1.7-19.7-0.3c-7.7-2.7-14.5-8.6-17.8-16.2
	c-14-28.1-27.5-58.3-35.3-88.7l-1.6,0.9l11.3,172.4l-117.3,3.7c-9.7,0.8-19.3,0.8-28.9,0.8c-3.3,0-8.1,0.6-11.3-0.1l-9.3,15.4
	c-6-7-12.7-10-21.1-13.3l-37.1-18.4c-8.1,8.9-14.6,19.4-21.7,29.2c-5.3,7.3-11.6,14.6-15.6,22.8l0.5,1.5l-1.4,4
	c-14.1,6.5-33.2,7.8-48.5,10.2c-5.9,0.9-13.7,3.4-19.4,2.1l-1.1-3l1.4-52.9l-59.7-33.7l-116.8-66l-35.1-19.9
	c-6.4-3.7-13.5-7.2-18.9-12.2c-0.5-9.9,5.7-19.9,10.1-28.5l32-57.8l82.5-141.6l43.9-69.7c8.4-12.5,16.5-25.4,26.2-36.9
	c12.1-14.3,29.5-29.7,48.2-34.6c10.8-2.8,23-3.2,34.1-4.2l45.1-4.5c3.2,7.1,6.9,13.5,11.5,19.7c18.3,24.4,53.7,47.7,84.6,51.3
	c11.3,1.3,23.3,0.6,32.3-7.1c7.2-6.1,10.8-17.2,11.1-26.5c0.5-12.4-5.2-23.4-13.3-32.3l0.4-2.9C821.2,635.2,843,643.9,863.6,655.1z"
	/>
<path style="fill:#C62B06;" d="M969.3,1040.6c3-0.8,4.3-0.7,7.3,0.2c3,3,3.2,2.9,3.6,7.1l-3.9,3.7c-3.1,1-5.6,0.8-8.8,0.6l-1.9-3.1
	C965.5,1044.2,966.1,1044.2,969.3,1040.6z"/>
<path style="fill:#020A46;" d="M580.7,1135.1l32.8,17.7c11.9,6.3,25.1,11.9,35.7,20.3l0.5,1.5l-1.4,4c-14.1,6.5-33.2,7.8-48.5,10.2
	c-5.9,0.9-13.7,3.4-19.4,2.1l-1.1-3L580.7,1135.1z"/>
<path style="fill:#C62B06;" d="M563.6,894.4l26.1-44.8l40.3-76.8c7.1-14.8,15.1-30.8,19.4-46.8c6.8-25.4-2-53.3-14.8-75.4l0.8-1.5
	c5.3,8.8,9.9,17,13.3,26.8l2.9,8.9c7.1,26.5-0.2,47.2-7.6,72.4c-6.7,6.8-9.7,16.5-13.1,25.3l-15.4,41.8l-34.3,84.3
	c-4,9.5-7.1,21.7-13.8,29.6L563.6,894.4z"/>
<path style="fill:#FEFEFE;" d="M574,1021.4l-35.5-29.5c-6.7-5.5-13.3-11.5-21.1-15.6l-1.3-0.6l47.5-81.3l3.7,43.8L574,1021.4z"/>
<path style="fill:#C62B06;" d="M909.6,743.1l1.7-0.3l17,201.6l5.6,63.8c1.3,12.2,2.3,24.3,6.1,36.1l-3,4.2
	c-14-28.1-27.5-58.3-35.3-88.7v-0.3c-4-19.6-1.4-41.1-0.6-61.1l3.9-80.6C906.7,792.9,909.4,768.1,909.6,743.1z"/>
<path style="fill:#E04022;" d="M644,757.2c-16.6,61.8-32.8,122.5-32.8,187c0,28.7,2.8,58.2,17.3,83.6c11,19.3,31,33.2,48.8,45.9
	l69.6,44.8c9.9,5.9,21.6,10.8,30.7,17.8l16.5,0.5c-9.7,0.8-19.3,0.8-28.9,0.8c-3.3,0-8.1,0.6-11.3-0.1l-9.3,15.4
	c-6-7-12.7-10-21.1-13.3l-37.1-18.4c-1.7-3.4-5.7-6.4-8.5-9l-26.8-22.9l-77.1-67.8l-6.7-83.2c6.7-7.9,9.8-20.1,13.8-29.6l34.3-84.3
	l15.4-41.8C634.3,773.7,637.3,764,644,757.2z"/>
<path style="fill:#C62B06;" d="M723.4,1139.6l4.7-1.2c6.6-2.7,18.3-1,25.7-0.9l-9.3,15.4C738.5,1145.9,731.8,1142.9,723.4,1139.6z"
	/>
<path style="fill:#EBF2FA;" d="M863.6,655.1c44.7-63.6,104.9-113.8,176.5-144.5c12.2-5.3,24.6-9.6,37.2-13.7c4.1-1.3,9-2.1,12.8-3.7
	l1.9-1.2c0.1,16.7-4.1,46.6,8.3,58.6c3.4,3.2,7.7,6,12.2,7.3c8.8,2.3,19.4,1.4,28.5,1.5l52,0.6c15.1,25.1,54.6,43.1,81.7,51.2
	l-30.2,47.4l-129.4,193l-28,42.1c-5.1,7.7-11.8,15.7-15.1,24.3c2.1,2.5,4,2.9,7.1,3.9l1.4,3l-73.2,11.1
	c-27.6-79.7-53.7-157.3-96.3-230.6C898.9,684.1,883.7,668.9,863.6,655.1z"/>
<path style="fill:#203372;" d="M686.4,1121.1l37.1,18.4c8.4,3.3,15.1,6.3,21.1,13.3l9.3-15.4c3.2,0.7,8,0.1,11.3,0.1
	c9.7,0,19.3,0,28.9-0.8l117.3-3.7l2.3,28.8l20.2,66.9l27.9,94.4l65,224.6l17.4,60.1c1.7,6.3,4.9,14,4.8,20.6
	c-0.1,7.9-3.4,17-5.1,24.7l-14.5,63.9l-46.3,218.3l-31.8,148.6c-4.2,20.4-6,42.6-12.3,62.4c-2.7,1.3-3.3,1.1-6.1,0.9h-95.3l-6.1-0.1
	l1.9,0.4l10.4,1.1c-0.7,18.7-1.6,39-8.2,56.7c-5.5,16.2-8.1,34.6-10.7,51.5c-1.3,8.4-3.5,17.3-3.4,25.8l-4.3,1.9l-0.4,17
	c-10.5-2.2-24.7-0.5-35.6-0.6h-83.9c0.1-4.2,0.7-9.4-0.7-13.4l-0.7-1.4l-5.8-2c-0.1-6.5-1-13.4-4-19.3
	c-7.8-15.3-34.4-20.2-49.7-24.7l-32.1-10.4l-16-10.6l-0.7-0.2c-4.1-1.9-4.5-3-6.2-7l-2.8-0.8l-8.3-6.9l-9.8-9.9
	c-2.2-1.5-5.3-2.3-7.7-3.5c-3.7-0.6-7.4,0.1-11.1,0.6c0-4.5,2-8.7,3.4-12.9l11-28.6c-9.4-1.3-20.5-0.2-30.1-0.1l-59.8,0.1
	c-2.9,0.1-6-0.2-8.9-0.4c-1.8-4.8,0.7-12.9,1.5-18l7.2-44.5c0.5-0.6,0.8-4.5,1-5.6l3.8-24.6l2.3-12.3l5.8-37.9l-49-0.3l-10.9-0.5
	l1-145.2l9.6-0.5l2.5-2.8c28.7-10.7,53.6-30.4,78.6-47.5c2.7-8.8,3.4-19,5-28.2l10.3-53.5l17.4-79.9c3-12.6,7.5-25,9.6-37.8
	c4.1-25.2,4.5-52.2,6.3-77.7l20.1-344.8l1.1,3c5.8,1.2,13.6-1.2,19.4-2.1c15.3-2.5,34.3-3.8,48.5-10.2l1.4-4l-0.5-1.5
	c3.9-8.2,10.3-15.4,15.6-22.8C671.7,1140.6,678.3,1130.1,686.4,1121.1z"/>
<path style="fill:#020A46;" d="M676.5,1776.3c-5.4-2.1-10.6-12-14.1-16.9c-12.5-17.4-25.4-35-36.1-53.5l15.5,10.9l40.2,41.9
	L676.5,1776.3z"/>
<path style="fill:#0A1856;" d="M641.8,1716.8c16.8,2.5,32.9,7.2,50,8.3l-9.8,33.6L641.8,1716.8z"/>
<path style="fill:#0A1856;" d="M562.6,2148.4c-4.7-11.5-14.8-19.1-24.2-26.8L511,2099c16.6,1.6,39.7,10.1,56,6.5
	c3.7-0.8,6.5-3,10.4-3.7l2,2.4c-1.5,5.2-11.3,42.6-14.6,43.8L562.6,2148.4z"/>
<path style="fill:#020A46;" d="M686.4,1121.1l37.1,18.4c8.4,3.3,15.1,6.3,21.1,13.3l9.3-15.4c3.2,0.7,8,0.1,11.3,0.1
	c9.7,0,19.3,0,28.9-0.8l117.3-3.7l2.3,28.8l-1.3,0.3c-15.4,3-33.3,2.2-49.1,2.8l-93.8,3.6c-3.3,0.1-25.2-0.1-27.1,1.2
	c-2.5,1.8-6.5,9.2-8.5,12c-4.7,6.6-9.9,12.9-15.3,18.9c-21.1,23.3-51.6,39.8-80.8,50.1c-7.4,2.6-15.1,5.8-23,5.5l-2.6-0.2l-0.4-2.1
	c23-8.2,47.4-16.5,67.7-30.2c3.1-2.1,4.9-3.6,6.9-6.8c-13.6-12.9-22.9-29.8-36.7-42.4l-0.5-1.5c3.9-8.2,10.3-15.4,15.6-22.8
	C671.7,1140.6,678.3,1130.1,686.4,1121.1z"/>
<path style="fill:#FABD8C;" d="M686.4,1121.1l37.1,18.4c8.4,3.3,15.1,6.3,21.1,13.3c-14.4,26.2-34.3,46.5-58.2,64.2
	c-13.6-12.9-22.9-29.8-36.7-42.4l-0.5-1.5c3.9-8.2,10.3-15.4,15.6-22.8C671.7,1140.6,678.3,1130.1,686.4,1121.1z"/>
<path style="fill:#FEFEFE;" d="M432,1857.5c28.7-10.7,53.6-30.4,78.6-47.5l-31.8,196.9l-49-0.3l-10.9-0.5l1-145.2l9.6-0.5
	L432,1857.5z"/>
<path style="fill:#0EABB4;" d="M419.9,1860.8l9.6-0.5l0.3,146.3l-10.9-0.5L419.9,1860.8z"/>
<path style="fill:#020A46;" d="M781.4,1440.4c1.7-15.4,7.9-31.3,12.6-46c15.5-49.2,33.4-97.4,55.7-144c8.7-18.2,17.9-37.8,29.8-54
	l1.6,0.5c-4.9,11.7-12.9,23.2-18.7,34.6c-12.4,24.3-23.4,49.6-33.6,74.9c-2,5-7.2,14.9-6.9,20.1c0.2,4.6,2.9,10.9,4.3,15.4l9.8,33.7
	l58.9,201.9l10.4,33.1c2.5,7.3,6.6,16.1,7.2,23.8c0.7,8.5-2.2,19.4-3.3,28l-8,59.7l-35.9,272l-9.4,69.5c-3.4,22.5-8,45.5-9.3,68.2
	c19.1-14.3,39.9-25.3,60.8-36.6c14-7.6,26.7-15.9,42.1-20.5c-20.5,18.6-48.8,33-73,46.6c-13.5,7.6-27.6,15.2-38.7,26.1l-6.1-0.1
	c-3.1-5.2,3.7-59.3,4.6-68.9l15.4-187.6l13.9-170.8l4.8-58.6c0.9-10,2.6-20.3,2.6-30.4c0-2.9-0.5-5-1.9-7.6L781.4,1440.4z"/>
<path style="fill:#EBF2FA;" d="M691.8,1725.1l58.2-186.9l21.1-67.6c3.3-10.1,5.7-20.6,10.4-30.2l89.7,182.9c1.4,2.6,1.9,4.7,1.9,7.6
	c0,10.1-1.7,20.3-2.6,30.4l-4.8,58.6l-14.1,170.7L665.9,1811l10.6-34.7l5.5-17.6L691.8,1725.1z"/>
<path style="fill:#FEFEFE;" d="M579.4,2104.2l86.4-293.2l185.6,79.7L836,2078.3c-0.9,9.7-7.7,63.7-4.6,68.9l1.9,0.4l10.4,1.1
	c-0.7,18.7-1.6,39-8.2,56.7c-5.5,16.2-8.1,34.6-10.7,51.5c-1.3,8.4-3.5,17.3-3.4,25.8l-4.3,1.9l-0.4,17c-10.5-2.2-24.7-0.5-35.6-0.6
	h-83.9c0.1-4.2,0.7-9.4-0.7-13.4l-0.7-1.4l-5.8-2c-0.1-6.5-1-13.4-4-19.3c-7.8-15.3-34.4-20.2-49.7-24.7l-32.1-10.4l-16-10.6
	l-0.7-0.2c-4.1-1.9-4.5-3-6.2-7l-2.8-0.8l-8.3-6.9l-9.8-9.9c-2.2-1.5-5.3-2.3-7.7-3.5c-3.7-0.6-7.4,0.1-11.1,0.6
	c0-4.5,2-8.7,3.4-12.9l11-28.6l6.5-1.7l2.2-0.4C568.1,2146.8,577.9,2109.4,579.4,2104.2z"/>
<path style="fill:#EBF2FA;" d="M677.6,1917.9l58.7-0.2c10.8,0,24.5-1.5,35,0.7c7.6,1.6,13.9,8.4,17.5,15c6.1,11.5,4.1,29.5,3.9,42.4
	c-0.1,5.2,0.4,11.3-1.2,16.2c-3.8,11.7-9.7,17.4-20.4,22.4c-13,2.4-85.2,2.6-96-1.4c-7.2-2.7-14.1-9.6-17-16.7
	c-3-7.6-2.4-15.5-2.5-23.5c-0.1-11.8-2.1-28.1,3-38.8C662.8,1925.1,668.7,1921.3,677.6,1917.9z"/>
<path style="fill:#EBF2FA;" d="M1522,233.6c48.4,14.6,92.3,43.3,127.3,79.4c7.5,7.8,16.7,16.9,21.8,26.5l6.8,13.2
	c14.1-14.3,32.5-26.5,52-31.6l29.1,78.6c2.6,7,6.9,24.7,13.2,28.7l0.4,0.3c-5,2.4-9.4,4.5-11.7,9.9c-1.8,4.2-1.1,12.1,1.1,16
	c1.8,3.2,6,7.1,9.7,7.9c5.4,1.2,11.6,0,16.2-3.1l1.8-1.4c1.4,6.5,9.2,12.9,13.9,17.8l50.9,50.2l19.6,21.3
	c11.3-11,20.9-23.7,28.8-37.3c1.6-3.9,3.4-7.2,5.6-10.8c15.1-32,13.6-67.6,5-101.1l68,19.2c110.3,34,230.2,82.1,287.3,189.6
	c36.2,68.2,42.3,147.1,19.4,220.7c-13.6,43.7-36,84.5-64.5,120.3c-7.8,9.8-16.2,20.6-25.3,29.1l-0.2,57.8l-0.2,240
	c-2.5,1.4-4.3,1.3-7.1,1.2c-1.9,4.9-1,12.2-1,17.6l-0.2,40l-0.1,150c-0.1,12,0.8,25.5-0.7,37.4l0.5,775.4l-1.1,2.6l-173,0.5
	l-49.6-0.1l-261.9,0.6c-3.2-1.8-6.6-3.6-9.5-5.9c-11.7-9.4-14.5-17.9-15.9-32.3l-22.3-0.4c-0.4,13.5,0.7,23.4-10,33.3
	c-2.5,2.3-5.3,4.3-8.1,6.2l-95.6,0.5c-24.3,1.7-49.4,0.6-73.7,0.6H1326l-107.3-0.3c-20.6-0.1-42.1,1-62.5-1.8
	c-4.2-2.8-8.7-5.6-12.3-9.2c-7.2-7.1-13.7-19-15.7-28.8c-1.6-8-0.7-17.4-0.7-25.5l-0.1-47.7l-0.1-187.5c-2.9-9.9-0.9-24.9-0.9-35.5
	L983,1935.1l46.4-218.1l14.4-63.7c1.7-7.7,5-16.8,5.1-24.7c0.1-6.6-3.1-14.3-4.8-20.6l-17.4-60.1l-65-224.6l-27.9-94.4l-20.2-66.9
	l-2.3-28.8L900,960.7l1.6-0.9c7.8,30.5,21.3,60.6,35.3,88.7c3.3,7.5,10,13.4,17.8,16.2c5.6,2,14,1.5,19.7,0.3
	c20-4.3,40.1-12,59.7-18l159-53c30.1-10.6,61.9-19.1,91.1-31.8l-203.7-37.3l-1.4-3c-3.1-1-4.9-1.3-7.1-3.9
	c3.3-8.6,9.9-16.6,15.1-24.3l28-42.1l129.4-193l30.2-47.4c2.5-4.5,5.7-12.6,9.6-15.6l156.8,19.1c2.3-17-13.6-37.4-17.5-54.3
	l50.6-0.1c7.3,0,16.5,1,23.6-0.4c5.9-1.2,10.7-3.3,15.1-7.6c4.3-4.2,7.8-10.3,8.5-16.4c1.1-10.2,0.3-21.2,0.3-31.5V441L1522,233.6z"
	/>
<path style="fill:#0E70D0;" d="M2014.8,586.1c4-0.2,8.4,0,12.2,1.4c5.2,1.9,10.3,7.5,12.1,12.7c1.8,5.3,1.9,14.4-1,19.4
	c-4.1,6.9-10,9.3-17.3,11.5c-3.6,0.1-7.8-0.3-11.2-1.7c-5.4-2.1-10.7-6.7-12.7-12.2s-1.9-13.6,0.9-18.8
	C2001.5,591,2007.1,588.2,2014.8,586.1z"/>
<path style="fill:#FEFEFE;" d="M1661.9,374l-103.1-39.4c-2.7-4.3-2.1-8.7-2.4-13.6c2.2-2.6,2.6-3.1,6.2-3.8
	c9.6-1.8,21.1,3.2,30.2,6.2c27.6,9.2,54.6,20.1,78.9,36.5L1661.9,374z"/>
<path style="fill:#F56E4B;" d="M1152.2,1139.4l73.1,73c-3.9,6.5-13.5,13.3-19.1,18.8l-53.5,53.8l-72.9-72.3L1152.2,1139.4z"/>
<path style="fill:#ADB8CD;" d="M1915.2,749.4l78.3,0.1l-0.2,359.2l-0.9,0.7c-0.9-5.6-0.1-12.5-0.1-18.2v-43.3V888.8l-77.1,0.1
	L1915.2,749.4z"/>
<path style="fill:#D8DDE7;" d="M1815.1,888.7l-0.7-139l100.8-0.2l0.1,139.4l-53.4,0.2L1815.1,888.7z"/>
<path style="fill:#90C1ED;" d="M1747.3,749.1l29.7-0.1c2.2,4.3,0.8,16.1,0.8,21.5l0.3,68.8l0.7,282.3l0.9,154.1
	c-18.6,1.7-39,0.1-57.8,0.1c-7.6,0-18.5,1.6-25.3-1.2l-1.4-4.4c1-9.4,0.3-19.7,0.3-29.2v-54.5c0-3.1-1-14.2,0-16.3
	c0.6-1.3,2-2.1,3-3.1c0.8-4.4-0.9-2.8-2.7-6c-0.9-1.5-0.2-9.8-0.3-12h34.2c5,0,11.8,0.9,16.2-1.2l1.7-7l1.6-1.5
	c2.4-13.8,1.1-29.8,1.2-43.9l-53.7-0.4c3.3-1.6,7.8-1,11.5-0.9l28.1,0.1c4.5,0,9.7,0.6,14-1l0.2-6.7c-2.9-1.9-7.1-1.2-10.6-1.2
	h-28.6c-4.1,0-9.4,0.6-13.2-0.8l-1.4-0.7l52.7,0.3L1747.3,749.1z"/>
<path style="fill:#ADB8CD;" d="M1749.3,1139.2v135.7l-52.6-0.4l-1.4-4.4c1-9.4,0.3-19.7,0.3-29.2v-54.5c0-3.1-1-14.2,0-16.3
	c0.6-1.3,2-2.1,3-3.1c0.8-4.4-0.9-2.8-2.7-6c-0.9-1.5-0.2-9.8-0.3-12h34.2c5,0,11.8,0.9,16.2-1.2l1.7-7L1749.3,1139.2z"/>
<path style="fill:#F0AC20;" d="M1915.4,888.8l77.1-0.1v159.1v43.3c0,5.7-0.8,12.7,0.1,18.2l0.1,167.2l-79.3-0.6
	c2.5-14.9,1.5-31,1.6-46.1l0.2-71.9L1915.4,888.8z"/>
<path style="fill:#90C1ED;" d="M1677.8,352.7c14.1-14.3,32.5-26.5,52-31.6l29.1,78.6c2.6,7,6.9,24.7,13.2,28.7l0.4,0.3
	c-5,2.4-9.4,4.5-11.7,9.9c-1.8,4.2-1.1,12.1,1.1,16c1.8,3.2,6,7.1,9.7,7.9c5.4,1.2,11.6,0,16.2-3.1l1.8-1.4
	c1.4,6.5,9.2,12.9,13.9,17.8l50.9,50.2l19.6,21.3c-13.2,13.8-33.7,25-51.7,30.9c-19.9,6.5-41.9,9.1-62.7,5.7
	c-16.3-2.6-31.6-7-46.2-14.8c-32.2-17.1-56.7-50.1-66.8-84.9c-11.4-39.2-3.8-75.3,15.3-110.2l9.8-14L1677.8,352.7z"/>
<path style="fill:#C4D4EB;" d="M1432.4,978.8c6.1-1.7,13.1-1.1,19.5-1.1l37.3-0.1l128.9,0.1l0.1-228.5h129l2.1,334.9l-52.7-0.3
	c-1.2-6.9-0.5-15-0.5-22v-39.5c0-9.4,1.2-20.8-4-28.9c-4-6.2-10.3-11.6-17.7-13l-1.4-0.4c-8.9-1.8-18.4-1.1-27.4-1.1l-43-0.1
	L1432.4,978.8L1432.4,978.8z"/>
<path style="fill:#203372;" d="M1662.7,803.7l64.7-0.4v67.3l-64.9,0.1L1662.7,803.7z"/>
<path style="fill:#F9C85B;" d="M1815.1,888.7l46.9,0.3l53.4-0.2l-0.3,269.1l-0.2,71.9c0,15.1,0.9,31.2-1.6,46.1l-98.6-0.3l0.6-1.5
	L1815.1,888.7z"/>
<path style="fill:#67A3EC;" d="M2033.8,1275.9l0.7-526.5l163.8-0.2v228l-0.2,57.8l-0.2,240c-2.5,1.4-4.3,1.3-7.1,1.2
	c-1.9,4.9-1,12.2-1,17.6l-0.2,40l-0.1,150c-0.1,12,0.8,25.5-0.7,37.4c-1-9.5-0.4-19.4-0.4-29v-51l0.3-165.5L2033.8,1275.9z"/>
<path style="fill:#203372;" d="M2065.8,1118.8c10.9-2.3,25.6-0.5,36.9-0.5l78.4,0.3c1.3,3.5,0.4,5.1-0.3,8.7h-114.3
	C2064.3,1124.5,2065.5,1122.2,2065.8,1118.8z"/>
<path style="fill:#203372;" d="M2064.7,1087l1.6-0.8c6-1.8,111.9-0.9,115.6,0.8l0.1,7.1c-1.1,0.7-1.6,1.1-3.1,1.3
	c-7.2,1.4-17.3,0-24.8,0l-63-0.3c-5.9,0-19.3,1.6-24.5-0.1c-0.8-0.3-1.4-0.9-2.1-1.3L2064.7,1087z"/>
<path style="fill:#203372;" d="M2066,1150.5c9.7-2.4,24.4-0.6,34.6-0.6l80.8,0.1c2.1,2.8,0.9,5.5,0.6,8.9
	c-6.8,2.6-21.9,0.8-29.7,0.8l-85.7-0.3l-1.4-1.6L2066,1150.5z"/>
<path style="fill:#203372;" d="M2087.4,803.5h64.4v68.1l-64.5,0.1L2087.4,803.5z"/>
<path style="fill:#0E70D0;" d="M1274.7,611.1c2.5-4.5,5.7-12.6,9.6-15.6l156.8,19.1c11.9,1.6,28.3,2,39.2,6.1l0.3,3.7
	c-2.2,2.4-2.6,2.2-5.9,2.9c2,0.4,3.4,0.7,5.3,1.5c-0.3,6.6,0.4,15.3-1.6,21.4l49.2,9.2l-112,150.2c5.2,7.7,10.1,14.7,11.6,24.1
	l0.3,1.9c2,12.9-2,26.6-9.7,37.1c-8.1,10.9-20,18.2-33.5,19.9l-12.6,1.3l-1,1.2l-51.4,73.5c-10.8-2.2-24.1-6.5-35-6.5l-203.7-37.3
	l-1.4-3c-3.1-1-4.9-1.3-7.1-3.9c3.3-8.6,9.9-16.6,15.1-24.3l28-42.1l129.4-193L1274.7,611.1z"/>
<path style="fill:#FEFEFE;" d="M1297.7,607.9l-1.4-2.5c10.2-3.2,106.3,12.2,122.3,14.3c18.4,2.5,38.2,3.4,56.2,7.5
	c2,0.4,3.4,0.7,5.3,1.5c-0.3,6.6,0.4,15.3-1.6,21.4l-170.7-30.2C1303.4,619.1,1300.2,611.7,1297.7,607.9z"/>
<path style="fill:#F9C85B;" d="M1371.7,893.9l-4.1-1c-14.9-3.9-27.5-12.2-35-25.9c-5.9-10.7-7.6-23.2-4-35l0.6-1.9
	c2.1-6.6,4.5-11.9,9.2-17.1c10.3-11.3,24.3-18.8,39.8-19c14.9-0.2,26.7,5.6,37.4,15.7c5.2,7.7,10.1,14.7,11.6,24.1l0.3,1.9
	c2,12.9-2,26.6-9.7,37.1c-8.1,10.9-20,18.2-33.5,19.9L1371.7,893.9z"/>
<path style="fill:#203372;" d="M1274.7,611.1c2.5-4.5,5.7-12.6,9.6-15.6l156.8,19.1c11.9,1.6,28.3,2,39.2,6.1l0.3,3.7
	c-2.2,2.4-2.6,2.2-5.9,2.9c-18.1-4-37.8-5-56.2-7.5c-15.9-2.1-112.1-17.5-122.3-14.3l1.4,2.5l-3.2,7.4l2.8,4.8
	c-4.1,8.2-10.4,15.7-15.7,23.3l-28.6,40.8l-99.5,137c-21.7,29.7-42,60.9-65.3,89.3l-1.4,0.2l-0.6-1.3l-0.5,1.4
	c-0.7,2.3-0.5,1.4,0,4.1c-2.2,3.8-2.6,4.7-6.6,6.9c-3.1-1-4.9-1.3-7.1-3.9c3.3-8.6,9.9-16.6,15.1-24.3l28-42.1l129.4-193
	L1274.7,611.1z"/>
<path style="fill:#FEFEFE;" d="M1251.1,658.2c1.9-0.9,6.3-8.9,7.8-11l27.3-41.4l8.4,9.5l2.8,4.8c-4.1,8.2-10.4,15.7-15.7,23.3
	l-28.6,40.8l-99.5,137c-21.7,29.7-42,60.9-65.3,89.3l-1.4,0.2l-0.6-1.3L1251.1,658.2z"/>
<path style="fill:#FEFEFE;" d="M1432.4,978.8l170.1,0.1l43,0.1c9,0,18.6-0.6,27.4,1.1l1.6,0.3c7.4,1.5,13.7,6.8,17.7,13
	c5.2,8.2,4,19.6,4,28.9v39.5c0,7-0.8,15.2,0.5,22l1.4,0.7c3.8,1.4,9.1,0.8,13.2,0.8h28.6c3.5,0,7.7-0.8,10.6,1.2l-0.2,6.7
	c-4.2,1.6-9.5,1-14,1l-28.1-0.1c-3.6,0-8.2-0.7-11.5,0.9l53.7,0.4c0,14.1,1.2,30.1-1.2,43.9l-1.6,1.5l-1.7,7
	c-4.5,2.1-11.3,1.2-16.2,1.2h-34.2c0,2.2-0.6,10.5,0.3,12c1.8,3.3,3.6,1.6,2.7,6c-1,1-2.3,1.8-3,3.1c-1,2.1,0,13.2,0,16.3v54.5
	c0,9.5,0.7,19.8-0.3,29.2l-2.2,2.5l-1.9-1.2L1691,1138c0-6.5,2-28.7-1.2-32.9l-0.4,170.5h-188.7h-53c-8.5,0-18.3,0.8-26.6-0.4
	c-9.3-1.4-15.5-5.7-22.2-11.9c-2.8,2-3.2,2.2-6.6,2.4l-0.4-1l-0.7-1.7c-1.7-3.9-3-7.2-3.3-11.5c-1.1-15-0.2-30.7-0.2-45.7l0.1-88.1
	l0.1-75.1c0-12.8-0.9-26.5,0.4-39.2c0.6-5.5,3.2-10.7,6.9-14.8C1404.5,978.1,1419.6,979,1432.4,978.8z"/>
<path style="fill:#D12C3B;" d="M1455.3,1023.3c3.9,0.2,8.8,0.1,12.3,1.9c4.1,2,7,6.3,8.5,10.5c1.7,4.8,1.9,9.6-0.7,14.1
	c-2.9,5.2-6.9,8.4-12.5,9.8c-6.1,0.6-12.8,1-18.4-2c-2.1-1.1-3.5-2.3-4-4.8c-0.8-4.1-1.1-19.9,1.4-23.2
	C1445.1,1025.4,1450.4,1024.3,1455.3,1023.3z"/>
<path style="fill:#1B4BB6;" d="M1443,1216.4c5.8-1.8,189.1-2.2,202.6,0c0.8,3,0.3,4.6-0.6,7.5l-1.8,0.1l-159.8-0.5l-29.8,0.3
	c-1.7,0-8.1,0.8-9.4,0.2c-0.7-0.3-1.1-1-1.7-1.6L1443,1216.4z"/>
<path style="fill:#1B4BB6;" d="M1444.3,1112.7c11.1-1.5,24-0.3,35.4-0.3l82.5,0.3l57.4,0.1c7.8,0,17.9-1.2,25.4,0.9l0.2,5.7
	l-2.7,1.9c-24.6-0.1-194.8,2-199-0.7C1443,1117.3,1443.1,1115.7,1444.3,1112.7z"/>
<path style="fill:#0E70D0;" d="M1443.4,1148.1c1.8-0.4,3.5-0.6,5.3-0.6h157.1h30.5c1.5,0,6.2-0.5,7.4,0c0.8,0.3,1.2,1.2,1.8,1.8
	l-0.6,5.6c-4.6,2-11.2,1.1-16.1,1.1l-37.6,0.1l-147.1-0.1C1442.1,1153.3,1443.1,1151.3,1443.4,1148.1z"/>
<path style="fill:#0E70D0;" d="M1442.8,1182.3l3.2-0.6c12.4-1,193.8-0.9,197.1,0.3c0.7,0.3,1.2,1,1.8,1.5c-0.2,3.7,0,4-2.4,6.7
	l-143.5,0.4l-37.3,0.2c-5.9,0-13.2,0.8-18.8-0.5C1441.6,1187.5,1442.3,1185.1,1442.8,1182.3z"/>
<path style="fill:#ADB8CD;" d="M1499.9,1025.8l155.8,0.4l-0.1,34.8l-155.6-0.2L1499.9,1025.8z"/>
<path style="fill:#203372;" d="M1432.4,978.8l170.1,0.1l43,0.1c9,0,18.6-0.6,27.4,1.1l1.6,0.3c7.4,1.5,13.7,6.8,17.7,13
	c5.2,8.2,4,19.6,4,28.9v39.5c0,7-0.8,15.2,0.5,22l1.4,0.7c3.8,1.4,9.1,0.8,13.2,0.8h28.6c3.5,0,7.7-0.8,10.6,1.2l-0.2,6.7
	c-4.2,1.6-9.5,1-14,1l-28.1-0.1c-3.6,0-8.2-0.7-11.5,0.9l53.7,0.4c0,14.1,1.2,30.1-1.2,43.9l-1.6,1.5l-1.7,7
	c-4.5,2.1-11.3,1.2-16.2,1.2h-34.2c0,2.2-0.6,10.5,0.3,12c1.8,3.3,3.6,1.6,2.7,6c-1,1-2.3,1.8-3,3.1c-1,2.1,0,13.2,0,16.3v54.5
	c0,9.5,0.7,19.8-0.3,29.2l-2.2,2.5l-1.9-1.2L1691,1138c0-6.5,2-28.7-1.2-32.9l-0.3-69.1c0-10.4,1.4-23.7-0.9-33.8
	c-1-4.4-3.1-7.5-6.3-10.5c-4.5-4.2-9.4-5.5-15.3-6.1c-12.3-1.1-25.6-0.1-38-0.1l-80.1,0.4l-88.4,0.2c-15.1,0-30.9-0.8-45.9,0.2
	c-5.8,0.4-11.4,3.5-15.2,7.8c-2.9,3.4-4.7,7.7-5.1,12.2c-1.4,16.9-0.3,34.8-0.2,51.8v99.2v66.5c0,9.3-1,20.2,0.4,29.4
	c0.6,3.8,2.5,7.1,4.5,10.2c-2.8,2-3.2,2.2-6.6,2.4l-0.4-1l-0.7-1.7c-1.7-3.9-3-7.2-3.3-11.5c-1.1-15-0.2-30.7-0.2-45.7l0.1-88.1
	l0.1-75.1c0-12.8-0.9-26.5,0.4-39.2c0.6-5.5,3.2-10.7,6.9-14.8C1404.5,978.1,1419.6,979,1432.4,978.8z"/>
<path style="fill:#C4D4EB;" d="M1696.7,1095l53.7,0.4c0,14.1,1.2,30.1-1.2,43.9l-1.6,1.5c-11.1,0-43,2.6-51.5-1.7
	c0-7.8-1-16.9,0.5-24.5c6.1,0,20.7,1.6,25.3-1.4l0.3-5.3l-1.8-1.9l-25.2-0.1C1695.6,1102.1,1695.8,1098.6,1696.7,1095z"/>
<path style="fill:#D8DDE7;" d="M1689.8,1105.1c3.3,4.2,1.2,26.4,1.2,32.9l0.2,133.4l1.9,1.2l2.2-2.5l1.4,4.4
	c6.8,2.8,17.7,1.2,25.3,1.2c18.8,0,39.2,1.6,57.8-0.1h35l98.6,0.3l79.3,0.6l41.2-0.6l155.1-0.2l-0.3,165.5v51c0,9.5-0.7,19.5,0.4,29
	l0.5,775.4l-1.1,2.6l-173,0.5l-49.6-0.1l-261.9,0.6c-3.2-1.8-6.6-3.6-9.5-5.9c-11.7-9.4-14.5-17.9-15.9-32.3l-22.3-0.4
	c-0.4,13.5,0.7,23.4-10,33.3c-2.5,2.3-5.3,4.3-8.1,6.2l-95.6,0.5c-24.3,1.7-49.4,0.6-73.7,0.6h-142.7l-107.3-0.3
	c-20.6-0.1-42.1,1-62.5-1.8c-4.2-2.8-8.7-5.6-12.3-9.2c-7.2-7.1-13.7-19-15.7-28.8c-1.6-8-0.7-17.4-0.7-25.5l-0.1-47.7l-0.1-187.5
	v-86l58.9,0.9c6.8,0.1,16.2,1.6,22.5-0.3l1.3-0.6l-29.7-116l-17.9-66.4c4.3-2.2,11.6-2,16.6-3.2l84.2-20.5l17.2-4l8.3-1.7
	c0.7-0.7,1.6-1.3,2-2.2c0.6-1.3,0.1-5.7,0.2-7.2v-26.3l-0.7-163.3c0.1-7.5,2.2-13.8,7.8-19.1c6-5.7,10.6-7.4,18.9-7.1l-0.1-131.9
	l0.1-38c0-6.4-0.6-13.6,0.3-20c0.7-5.1,4.9-11.1,8.5-14.7c10.5-10.4,24-8,37.6-7.9l28.9-0.3c3.4-0.2,3.8-0.4,6.6-2.4
	c6.7,6.2,12.9,10.5,22.2,11.9c8.3,1.2,18.1,0.4,26.6,0.4h53h188.7L1689.8,1105.1z"/>
<path style="fill:#ADB8CD;" d="M1438.8,1369c5-1.2,10.9-0.6,16-0.6c10.5,0,21-0.4,31.5,0.3c1.1,3.3,0.5,5.9,0,9.2
	c-8.1,1-17.2,0.3-25.4,0.3c-7.2,0-15.2,0.7-22.2-0.6C1437.8,1374.6,1438.2,1372.1,1438.8,1369z"/>
<path style="fill:#ADB8CD;" d="M1831,1548.7l178.7-0.7h26c2.1,0,7.8-0.6,9.6,0c0.8,0.3,1.2,1,1.8,1.5l-0.2,7.9
	c-5.9,3.3-187.8,1-216,1L1831,1548.7z"/>
<path style="fill:#FEFEFE;" d="M1843.3,1696.2l1.1-0.3c4.6-1,10.4-0.4,15.2-0.4l32,0.1c14.4,0,153.7-1.6,158.9,1.4
	c0.5,4.3,0.3,8-0.3,12.2c-1.6,0.3-3.2,0.6-4.9,0.6l-152.2-0.6l-35.9-0.1c-3.1,0-9.2,0.8-12.1,0c-0.9-0.2-1.3-1.3-2-1.9
	L1843.3,1696.2z"/>
<path style="fill:#FEFEFE;" d="M1844.2,1659.5c7-1.2,15.4-0.4,22.5-0.4l43.7,0.4l139.8,0.6l0.3,13.9l-155.9-0.8l-37.9,0.2
	c-2.8,0-9,0.9-11.6,0.1c-0.8-0.3-1.2-1.2-1.9-1.8C1843.1,1667.4,1842.9,1663.7,1844.2,1659.5z"/>
<path style="fill:#FEFEFE;" d="M1843.5,1496l207.9-0.3c0.1,4.2,0.8,8.8-0.8,12.7l-4.3,0.5l-208.8,0.6c-0.5-3.8-2.2-9.6-0.2-12.9
	L1843.5,1496z"/>
<path style="fill:#FEFEFE;" d="M1835.5,1457.7l216.2-0.2l-0.5,15.2L1836,1473C1834.2,1470,1835.4,1461.5,1835.5,1457.7z"/>
<path style="fill:#ADB8CD;" d="M1831,1603.4l230,0.5c0,5.6,1.7,21.5-0.7,25.7l-229.3-1V1603.4z"/>
<path style="fill:#ADB8CD;" d="M1676,1380l412.5,0.6v36.5l-237.3,0.2l-412-0.3c-2.2-2.6-1.2-7.3-1.1-10.8
	c4.7-3.4,162.6-0.8,182.8-0.7l-0.1-25.4L1676,1380z"/>
<linearGradient id="SVGID_1_" gradientUnits="userSpaceOnUse" x1="4337.6167" y1="369.4257" x2="2437.1514" y2="539.7632" gradientTransform="matrix(0.5 0 0 -0.5 67.5 1921.5)">
	<stop  offset="0" style="stop-color:#214293"/>
	<stop  offset="1" style="stop-color:#3260B7"/>
</linearGradient>
<path style="fill:url(#SVGID_1_);" d="M1689.8,1105.1c3.3,4.2,1.2,26.4,1.2,32.9l0.2,133.4l1.9,1.2l2.2-2.5l1.4,4.4
	c6.8,2.8,17.7,1.2,25.3,1.2c18.8,0,39.2,1.6,57.8-0.1h35l98.6,0.3l79.3,0.6l41.2-0.6l155.1-0.2l-0.3,165.5v51c0,9.5-0.7,19.5,0.4,29
	l0.5,775.4l-1.1,2.6l-173,0.5c3.8-2.8,7.8-5.7,11-9.2c7.9-8.8,10.3-16.8,9.7-28.4l115.3,0.2l-0.2-388.2l-527.7,0.7
	c5.9-3.5,12.9-8.1,19.7-9.2c10.4-1.7,22.7-0.5,33.3-0.5l68.9-0.3c18.9-0.1,38.2,1.9,55.1-8.2c2.2-1.3,4.3-2.6,6.6-3.6l2-0.8
	l341.8-0.3l0.3-536.2H1353l-0.5,163.3c-10.2-2.3-24.6-0.3-35.4-0.8l-0.1-131.7l0.1-38c0-6.4-0.6-13.6,0.3-20
	c0.7-5.1,4.9-11.1,8.5-14.7c10.5-10.4,24-8,37.6-7.9l28.9-0.3c3.4-0.2,3.8-0.4,6.6-2.4c6.7,6.2,12.9,10.5,22.2,11.9
	c8.3,1.2,18.1,0.4,26.6,0.4h53h188.7L1689.8,1105.1z"/>
<path style="fill:#90C1ED;" d="M1317.1,1478.3c10.8,0.5,25.2-1.5,35.4,0.8c38,2.8,77.6,0.8,115.8,1l230.9-0.1h75.4
	c9.3,0,22-1.4,30.9,0.6c7.6,0.9,14.8,4.9,19.5,11c2.1,2.8,4.8,6.7,5.6,10.1c1,4.7,0.5,10.4,0.5,15.2v31.8v9.9l0.1,44.7v25.3v129.5
	v38.2c0,7.4,0.3,15.2-1.2,22.5c-1.7,8.1-5.5,15-10.8,21.3c-2.9,3.4-8.7,8-9.8,12.1l-2,0.8c-2.4,1-4.4,2.3-6.6,3.6
	c-16.8,10.1-36.2,8.1-55.1,8.2l-68.9,0.3c-10.6,0-22.9-1.2-33.3,0.5c-6.8,1.1-13.8,5.7-19.7,9.2c-23.5,1.3-47.5,0.3-71,0.2
	c-14,0-32.8,2.2-46-1.8c-1.1-2.1-2.7-2.4-4.8-3.5l-28.1-95.4l-41.8,11.6l-235.3,60.4l18.5,70.1l-4.7-1.3l-29.7-116l-17.9-66.4
	c4.3-2.2,11.6-2,16.6-3.2l84.2-20.5l17.2-4l8.3-1.7c0.7-0.7,1.6-1.3,2-2.2c0.6-1.3,0.1-5.7,0.2-7.2v-26.3l-0.7-163.3
	c0.1-7.5,2.2-13.8,7.8-19.1C1304.3,1479.7,1308.8,1478,1317.1,1478.3z"/>
<path style="fill:#FEFEFE;" d="M1355,1671.6l173.8-0.2l-0.4,25l-173.4,0.2V1671.6z"/>
<path style="fill:#FEFEFE;" d="M1354.8,1560h279.8v25.6h-279.8V1560z"/>
<path style="fill:#FEFEFE;" d="M1354.8,1616.7l280,0.4l-0.2,26.7l-213.5,0.4h-48.8c-5,0-12.9,1.1-17.5-0.8V1616.7z"/>
<path style="fill:#67A3EC;" d="M1805.5,1480.6c7.6,0.9,14.8,4.9,19.5,11c2.1,2.8,4.8,6.7,5.6,10.1c1,4.7,0.5,10.4,0.5,15.2v31.8v9.9
	l0.1,44.7v25.3v129.5v38.2c0,7.4,0.3,15.2-1.2,22.5c-1.7,8.1-5.5,15-10.8,21.3c-2.9,3.4-8.7,8-9.8,12.1l-2,0.8
	c-2.4,1-4.4,2.3-6.6,3.6c-16.8,10.1-36.2,8.1-55.1,8.2l-68.9,0.3c-10.6,0-22.9-1.2-33.3,0.5c-6.8,1.1-13.8,5.7-19.7,9.2
	c-23.5,1.3-47.5,0.3-71,0.2c-14,0-32.8,2.2-46-1.8c-1.1-2.1-2.7-2.4-4.8-3.5l-28.1-95.4l-41.8,11.6l-235.3,60.4l18.5,70.1l-4.7-1.3
	l-29.7-116l-17.9-66.4c4.3-2.2,11.6-2,16.6-3.2l84.2-20.5l17.2-4l8.3-1.7l1.2,3l-1.7,2.1l1.7,1.6c0.1,4-0.8,10.9,0.4,14.6
	c2.7,4.1,2.2,9,2.3,13.8c0.7,18.5,0.6,38.1,15.2,51.9c8.3,7.8,19.3,8.8,27.5,15.6l3.3,0.3c7.3-3.1,15.9-4.4,23.5-6.4l10.3-2.4
	l72.7-18.9l3-0.7l8.5-2.3l6.8-1.8l3-0.7c2.9-1,4.9-1.1,7.9-1.2c5.2,4.1,6.9,16.7,9,23.3l1.8,5.4l6.1,19.5l2.5,8.5
	c0.6,2.1,1.3,3.8,1.7,6l0.3,1.9l0.9,0.3c5.5,1.4,13.3,0.4,19.1,0.4h43.8l101.5-0.1c18,0,36.4,0.9,54.3-0.6
	c8.5-0.7,15.8-2.4,23.2-6.9c12.8-7.8,23.1-20.4,26.3-35.2l0.4-1.8c1.9-9.2,1.1-20,1.2-29.4l0.4-57l0.1-225.5H1805.5z"/>
<path style="fill:#D8DDE7;" d="M1288.4,1708.6l1.7,1.6c0.1,4-0.8,10.9,0.4,14.6c-2,27.1-6,54.2,13.3,76.6l10.7,11.3l-116.9,29.8
	l-28.2-105.5l53.8-13.5L1288.4,1708.6z"/>
<path style="fill:#D8DDE7;" d="M1506.6,1873.3c13.2,4,32,1.7,46,1.8c23.5,0.1,47.5,1.1,71-0.2l527.7-0.7l0.2,388.2l-115.3-0.2
	c0.6,11.6-1.8,19.6-9.7,28.4c-3.2,3.5-7.1,6.4-11,9.2l-49.6-0.1l-261.9,0.6c-3.2-1.8-6.6-3.6-9.5-5.9c-11.7-9.4-14.5-17.9-15.9-32.3
	l-22.3-0.4l-0.8-346.3l-26.4,0.2l-107.7,0.5l-2.5-3.2L1506.6,1873.3z"/>
<path style="fill:#ADB8CD;" d="M2057.4,2101.8c1.1,5,0.7,10.4,0.7,15.5l-22.1,0.4l-0.2,136.3l-0.6-144.5l-0.4-7.4L2057.4,2101.8z"/>
<path style="fill:#ADB8CD;" d="M1740.7,1985.8l-0.2-37.8l48.6-0.1c-8.7,12.4-12.5,23.2-14.4,38.3L1740.7,1985.8z"/>
<path style="fill:#203372;" d="M1789.1,1947.8c13.8-13.5,26.8-22.4,46.3-25.3l2-0.3c19.3-3,40.9,0.6,56.9,12
	c5.8,4.2,10.9,9.4,15.8,14.6c9,12,13.5,23.8,15.1,38.8l-0.1,2.1l-1.9,1.1l-10.2,0.3l-0.5-6.6l-124,0.5l-0.2-1.9l-1.5,7.5
	c-3.5,0.2-7,0.6-10.4-0.6l-1.5-3.8C1776.5,1971,1780.4,1960.2,1789.1,1947.8z"/>
<path style="fill:#D8DDE7;" d="M1803.1,1952.4c11.5-11.2,24.7-17.3,40.6-18.8c19.7-1.9,34.5,4,49.5,16.7c-6.2,3.8-16.5,2.6-23.7,2.6
	h-41C1820.6,1952.8,1810.5,1954.1,1803.1,1952.4z"/>
<path style="fill:#ADB8CD;" d="M1893.1,1950.2c10.7,10.6,15.5,19.8,19.2,34.2l-124,0.5l-0.2-1.9c0.7-12,6.9-22.1,14.9-30.6
	c7.5,1.8,17.6,0.5,25.4,0.5h41C1876.7,1952.8,1886.9,1954,1893.1,1950.2z"/>
<path style="fill:#ADB8CD;" d="M1910.1,1948.8l146.9-0.8l0.2,102.2l0.1,26.7c0,3.8,0.6,8-0.7,11.6c-6.7-1-13.7-0.8-20.6-0.9l-50-0.1
	c0-20.6-1.8-42.8,0.5-63.2l9.5-1.5l-30.4,0.2c-2,0.1-9.1,1.1-10.7,0.4c-1-0.4-1.7-1.4-2.6-2.1c-3.8,4.1-4.4,4.7-10.3,4.9
	c-5.8,0.2-13.6,0.7-19.1-0.7c-3.4-0.5-7.1-0.1-10.5-0.1V1992l0.5-1.1l10.2-0.3l1.9-1.1l0.1-2.1
	C1923.5,1972.6,1919.1,1960.8,1910.1,1948.8z"/>
<path style="fill:#F68865;" d="M1925.1,1987.6c15.3-1.4,30.6-1.6,46-1.6c5.1,0,12-0.9,16.9,0.3c2.4,0.6,5.5,2.4,7.4,3.9
	c2.6,2.1,3.9,5.5,4,8.7c0.2,6-1.8,15.6,0.1,21.1l-3.5,2.9l-30.4,0.2c-2,0.1-9.1,1.1-10.7,0.4c-1-0.4-1.7-1.4-2.6-2.1
	c-3.8,4.1-4.4,4.7-10.3,4.9c-5.8,0.2-13.6,0.7-19.1-0.7c-3.4-0.5-7.1-0.1-10.5-0.1v-33.4l0.5-1.1l10.2-0.3l1.9-1.1L1925.1,1987.6z"
	/>
<path style="fill:#FEFEFE;" d="M1925,1989.7c9.8,0.3,18.4-1,25.6,6.7c3.1,3.3,6.6,8.2,6,12.9c-0.5,4.1-3.9,8.2-4.3,12.1
	c-3.8,4.1-4.4,4.7-10.3,4.9c-5.8,0.2-13.6,0.7-19.1-0.7c-3.4-0.5-7.1-0.1-10.5-0.1v-33.4l0.5-1.1l10.2-0.3L1925,1989.7z"/>
<path style="fill:#0E70D0;" d="M1912.9,1991.1l10.2-0.3l-0.1,34.8c-3.4-0.5-7.1-0.1-10.5-0.1v-33.4L1912.9,1991.1z"/>
<path style="fill:#D12C3B;" d="M1999.5,2020c12.4,0.1,24.5-2.1,34.1,7c3.2,6.8,2.2,15.5,2.3,22.9l0.2,37.8l-50-0.1
	c0-20.6-1.8-42.8,0.5-63.2l9.5-1.5L1999.5,2020z"/>
<path style="fill:#F56E4B;" d="M1776.2,1989.9c3.4,1.2,6.9,0.7,10.4,0.6l1.5-7.5l0.2,1.9l124-0.5l0.5,6.6l-0.5,1.1v33.4
	c3.4-0.1,7.1-0.4,10.5,0.1c5.6,1.4,13.4,0.9,19.1,0.7c5.8-0.2,6.5-0.8,10.3-4.9c0.9,0.7,1.6,1.6,2.6,2.1c1.6,0.7,8.7-0.4,10.7-0.4
	l30.4-0.2l-9.5,1.5c-2.3,20.3-0.5,42.6-0.5,63.2l-307.9-0.1l-0.1-47.8c0-7.5-1.3-17.4,1.4-24.4c8.1-7.4,36.5-4.3,48-4.4
	c0-6.2-0.7-13.3,0.8-19.3l6.7-0.8l0.2-1.6l5.7-3.4l34,0.3L1776.2,1989.9z"/>
<path style="fill:#FEFEFE;" d="M1776.2,1989.9c3.4,1.2,6.9,0.7,10.4,0.6l1.5-7.5l0.2,1.9l-0.9,8.2l-0.1,33.2h-11.2
	c-14.8,0.2-31.6,1.9-46.2-0.3c-3.5-4.9-2.5-9.3-2.6-15.2c0-6.2-0.7-13.3,0.8-19.3l6.7-0.8l0.2-1.6l5.7-3.4l34,0.3L1776.2,1989.9z"/>
<path style="fill:#F68865;" d="M1740.7,1985.8l34,0.3l1.5,3.8l-0.1,1l-41.3-0.1l0.2-1.6L1740.7,1985.8z"/>
<path style="fill:#6A89B3;" d="M1776.2,1989.9c3.4,1.2,6.9,0.7,10.4,0.6l1.5-7.5l0.2,1.9l-0.9,8.2l-0.1,33.2h-11.2v-35.4
	L1776.2,1989.9z"/>
<path style="fill:#FEFEFE;" d="M1788.3,1984.9l124-0.5l0.5,6.6l-0.5,1.1v33.4c-14.2,1.8-29.5,0.7-43.8,0.7h-81.3l0.1-33.2
	L1788.3,1984.9z"/>
<path style="fill:#F56E4B;" d="M1788.3,1984.9l124-0.5l0.5,6.6l-0.5,1.1l-125,1L1788.3,1984.9z"/>
<path style="fill:#F56E4B;" d="M1678.1,2087.4l307.9,0.1l50,0.1c6.8,0.1,13.8-0.1,20.6,0.9c0,4.3-0.3,9,0.8,13.2l-22.6,0.3l0.4,7.4
	l0.6,144.5l0.3,8.2c0.6,11.6-1.8,19.6-9.7,28.4c-3.2,3.5-7.1,6.4-11,9.2l-49.6-0.1l-261.9,0.6c-3.2-1.8-6.6-3.6-9.5-5.9
	c-11.7-9.4-14.5-17.9-15.9-32.3v-161c-3.9,0-8.9,0.4-12.6-0.9c-2.3-0.8-2-1.5-2.9-3.5c0.5-3.8,0.2-6,2.6-9L1678.1,2087.4z"/>
<path style="fill:#FEFEFE;" d="M1678.1,2087.4l307.9,0.1l50,0.1c6.8,0.1,13.8-0.1,20.6,0.9c0,4.3-0.3,9,0.8,13.2l-22.6,0.3
	c-5-2.4-15.1-1-20.9-1l-63.6-0.1l-271.8,0.1c-3.9,0-8.9,0.4-12.6-0.9c-2.3-0.8-2-1.5-2.9-3.5c0.5-3.8,0.2-6,2.6-9L1678.1,2087.4z"/>
<path style="fill:#D12C3B;" d="M1961,2109.2l-178.5,1.2l-48.3,0.1c-9,0.1-18.5,0.8-27.4-0.2c-6.6-0.7-13.6-4.8-19.5-7.8
	c11.1-1.2,22.7-0.4,33.9-0.5h61.6l202.2-0.1l49.8,0.1l0.4,7.4l0.6,144.5l0.3,8.2c0.6,11.6-1.8,19.6-9.7,28.4
	c-3.2,3.5-7.1,6.4-11,9.2l-49.6-0.1l10.2-9.9c4-4.2,7.7-9.6,8.8-15.4c2.7-14.8,0.9-33.2,0.9-48.4l-0.8-116.6L1961,2109.2z"/>
<path style="fill:#AC3B34;" d="M2034.8,2102.1l0.4,7.4l-51.1-0.9l1-6.6L2034.8,2102.1z"/>
<path style="fill:#F9C85B;" d="M1431.8,1786.1l41.8-11.6l28.1,95.4c2.1,1.1,3.7,1.4,4.8,3.5l12.3,39.6l2.5,3.2l107.7-0.5l26.4-0.2
	l0.8,346.3c-0.4,13.5,0.7,23.4-10,33.3c-2.5,2.3-5.3,4.3-8.1,6.2l-95.6,0.5c-24.3,1.7-49.4,0.6-73.7,0.6h-142.7l-107.3-0.3
	c-20.6-0.1-42.1,1-62.5-1.8c-4.2-2.8-8.7-5.6-12.3-9.2c-7.2-7.1-13.7-19-15.7-28.8c-1.6-8-0.7-17.4-0.7-25.5l-0.1-47.7l-0.1-187.5
	v-86l58.9,0.9c6.8,0.1,16.2,1.6,22.5-0.3l1.3-0.6l4.7,1.3l-18.5-70.1L1431.8,1786.1z"/>
<path style="fill:#F0AC20;" d="M1431.8,1786.1l41.8-11.6l28.1,95.4c2.1,1.1,3.7,1.4,4.8,3.5l12.3,39.6l-0.9,3.5l-49.1,0.3
	L1431.8,1786.1z"/>
<path style="fill:#FEFEFE;" d="M1223.3,1940.6l205,0.1l0.2,132.4l-205.2-0.1V1940.6z"/>
<path style="fill:#D8DDE7;" d="M1268.4,1980.6c8.9-2.2,117.5-1.7,120.5,0c1.5,0.8,1.3,2.7,1.6,4.3l-2,2.7c-19,1.7-39.6,0-58.8-0.1
	l-39.3-0.1c-7.5,0-15.4,0.6-22.8-0.8l-1.7-2.9L1268.4,1980.6z"/>
<path style="fill:#D8DDE7;" d="M1269.8,2016c12.8-2.3,29.3-0.1,42.5,0l73.3,0.5c2.5,1.8,2.2,1.9,2.9,5l-2.3,2.6l-115.4-0.3
	c-1.9-1.6-2.2-2.1-3.3-4.1L1269.8,2016z"/>
<path style="fill:#F0AC20;" d="M1629.1,1915.5l26.4-0.2l0.8,346.3c-0.4,13.5,0.7,23.4-10,33.3c-2.5,2.3-5.3,4.3-8.1,6.2l-95.6,0.5
	l4.9-3c6.9-3.5,13-7,18.4-12.5c7-7.1,11.9-17.5,13.2-27.4c1.5-11.3,0.5-23.8,0.5-35.3v-68.8l-0.2-238.1l48.4-0.9L1629.1,1915.5z"/>
</svg>
