<?xml version="1.0" encoding="utf-8"?>
<!-- Generator: Adobe Illustrator 27.5.0, SVG Export Plug-In . SVG Version: 6.00 Build 0)  -->
<svg version="1.1" id="_x2DC_àð_x5F_1" xmlns="http://www.w3.org/2000/svg" xmlns:xlink="http://www.w3.org/1999/xlink" x="0px"
	 y="0px" viewBox="0 0 2500 1664" style="enable-background:new 0 0 2500 1664;" xml:space="preserve">
<rect style="fill:#FFFFFF;" width="2500" height="1664"/>
<g>
	<path style="fill:#DEEDFF;" d="M2012.138,991.552c-11.685,54.084-31.47,105.008-59.972,149.642
		c-33.01,51.719-77.715,94.995-135.019,124.955c-6.542,3.432-13.255,6.682-20.128,9.742c-1.339,0.604-2.677,1.188-4.026,1.771
		c-2.868,1.238-5.767,2.446-8.685,3.613c-0.503,0.211-1.006,0.413-1.51,0.604c-0.594,0.242-1.188,0.473-1.781,0.704
		c-36.049,14.1-76.386,23.429-121.161,27.052c-63.353,5.112-123.405-5.837-180.297-27.052c-0.634-0.232-1.258-0.473-1.892-0.704
		c-0.523-0.201-1.057-0.403-1.58-0.604c-39.582-15.076-77.624-35.093-114.197-58.069c-5.012-3.15-10.004-6.35-14.965-9.611
		c-4.217-2.768-8.474-5.485-12.751-8.142c-12.369-7.679-24.979-14.865-37.811-21.567c-6.783-3.553-13.627-6.964-20.521-10.225
		c-24.667-11.704-50.048-21.658-75.953-29.85c-41.081-13.003-83.481-21.577-126.475-25.683c-8.665-0.835-17.36-1.479-26.076-1.942
		c-39.431-2.113-79.214-0.493-118.806,4.891c-30.494,4.146-63.051,4.941-94.995,1.147c-28.149-3.331-55.825-10.215-81.187-21.487
		c-0.322-0.141-0.644-0.282-0.976-0.433c-9.953-4.468-19.544-9.631-28.662-15.519c-16.435-10.597-31.329-23.57-44.04-39.199
		c-12.56-15.438-23.469-32.084-32.758-49.596l-0.483-41.383l-0.04-3.452l-0.453-38.636l-0.131-11.111v-0.01
		c-0.926-0.221-1.842-0.443-2.747-0.674c-2.385-0.594-4.71-1.198-6.974-1.811c-6.592-1.781-12.63-3.633-18.075-5.425
		c-0.06,0.312-0.131,0.614-0.191,0.926c-0.926,4.458-1.842,8.917-2.758,13.375c-0.835-3.834-1.59-7.689-2.284-11.564
		c-0.292-1.6-0.574-3.2-0.845-4.801c-0.272-1.62-0.523-3.241-0.765-4.861c-0.453-2.868-0.855-5.737-1.228-8.615
		c-4.167-32.326-4.046-65.195,0.322-97.168c3.784-27.737,10.215-54.447,18.94-80.11c2.939-8.645,6.149-17.179,9.601-25.593
		c0.413-1.016,0.835-2.033,1.258-3.049c12.61-30.122,28.381-58.693,46.687-85.685c4.992-7.367,10.175-14.613,15.529-21.738
		c12.278-16.334,25.482-32.054,39.451-47.14c5.123-5.545,10.356-11,15.68-16.374c51.85-52.303,112.778-96.585,175.688-132.543
		c154.292-88.181,336.451-138.904,514.786-128.971c204.129,11.372,380.129,119.541,487.079,294.776
		c27.364,44.845,48.932,94.693,64.178,146.895c5.495,18.79,10.175,37.871,13.999,57.144
		C2028.945,822.839,2029.609,910.718,2012.138,991.552z"/>
</g>
<g>
	<rect x="1952.166" y="1168.447" style="fill:#404040;" width="59.975" height="127.771"/>
</g>
<g>
	<path style="fill:#404040;" d="M1984.471,1282.584h-937.128V705.3c0-15.282,12.389-27.671,27.671-27.671h909.457
		c15.282,0,27.671,12.389,27.671,27.671v549.613C2012.141,1270.196,1999.753,1282.584,1984.471,1282.584z"/>
</g>
<g>
	<rect x="1073.418" y="707.617" style="fill:#DEEDFF;" width="878.749" height="573.664"/>
</g>
<g>
	<path style="fill:#404040;" d="M1817.145,827.47v453.81h-110.822V800.587h84.062
		C1805.165,800.587,1817.145,812.623,1817.145,827.47z"/>
</g>
<g>
	<path style="fill:#FFFFFF;" d="M1481.026,586.05H1152.18V406.875h328.846c49.478,0,89.588,40.11,89.588,89.587v0
		C1570.613,545.941,1530.504,586.05,1481.026,586.05z"/>
</g>
<g>
	<path style="fill:#9FC4FF;" d="M1491.12,475.954h-186.241c-4.077,0-7.381-3.305-7.381-7.382v0c0-4.077,3.305-7.381,7.381-7.381
		h186.241c4.077,0,7.382,3.305,7.382,7.381v0C1498.502,472.649,1495.197,475.954,1491.12,475.954z"/>
</g>
<g>
	<path style="fill:#9FC4FF;" d="M1414.41,522.514h-109.531c-4.077,0-7.381-3.305-7.381-7.381l0,0c0-4.077,3.305-7.382,7.381-7.382
		h109.531c4.077,0,7.381,3.305,7.381,7.382l0,0C1421.791,519.209,1418.487,522.514,1414.41,522.514z"/>
</g>
<g>
	<circle style="fill:#EFC075;" cx="1138.769" cy="496.463" r="102.463"/>
</g>
<g>
	<path style="fill:#404040;" d="M1041.713,465.031c-0.16,0-0.322-0.026-0.482-0.08c-0.784-0.266-1.205-1.118-0.938-1.902
		c11.742-34.617,41.227-60.794,76.948-68.316c0.81-0.169,1.606,0.348,1.777,1.159c0.171,0.811-0.348,1.606-1.159,1.777
		c-34.689,7.305-63.322,32.727-74.726,66.345C1042.922,464.637,1042.338,465.031,1041.713,465.031z"/>
</g>
<g>
	<path style="fill:#404040;" d="M1138.769,600.425c-15.259,0-29.96-3.23-43.696-9.602c-0.751-0.349-1.078-1.241-0.729-1.992
		c0.348-0.751,1.24-1.077,1.992-0.729c13.337,6.186,27.614,9.323,42.434,9.323c55.671,0,100.962-45.292,100.962-100.962
		c0-20.232-5.962-39.752-17.242-56.448c-0.463-0.686-0.283-1.619,0.403-2.083c0.686-0.464,1.619-0.283,2.083,0.403
		c11.616,17.194,17.756,37.294,17.756,58.128C1242.731,553.788,1196.094,600.425,1138.769,600.425z"/>
</g>
<g>
	<path style="fill:#FFFFFF;" d="M1133.969,532.328c-0.953,0-1.854-0.454-2.42-1.228l-34.068-46.56
		c-0.979-1.337-0.688-3.214,0.649-4.192c1.336-0.98,3.214-0.688,4.192,0.649l31.347,42.841l40.854-70.957
		c0.827-1.436,2.661-1.929,4.097-1.103c1.436,0.827,1.93,2.661,1.103,4.097l-43.153,74.951c-0.506,0.879-1.423,1.443-2.436,1.498
		C1134.078,532.326,1134.023,532.328,1133.969,532.328z"/>
</g>
<g>
	<path style="fill:#404040;" d="M1293.979,588.237h-106.829c-0.829,0-1.5-0.671-1.5-1.5s0.671-1.5,1.5-1.5h106.829
		c0.828,0,1.5,0.671,1.5,1.5S1294.807,588.237,1293.979,588.237z"/>
</g>
<g>
	<path style="fill:#404040;" d="M1425.817,588.237h-84.538c-0.828,0-1.5-0.671-1.5-1.5s0.672-1.5,1.5-1.5h84.538
		c0.828,0,1.5,0.671,1.5,1.5S1426.646,588.237,1425.817,588.237z"/>
</g>
<g>
	<rect x="1686.196" y="800.587" style="fill:#6397FF;" width="110.821" height="480.693"/>
</g>
<g>
	<rect x="1199.885" y="802.793" style="fill:#FFFFFF;" width="520.209" height="478.488"/>
</g>
<g>
	<path style="fill:#404040;" d="M1720.094,1282.78h-520.208c-0.829,0-1.5-0.672-1.5-1.5v-3.594c0-0.828,0.671-1.5,1.5-1.5
		s1.5,0.672,1.5,1.5v2.094h518.708c0.828,0,1.5,0.672,1.5,1.5S1720.922,1282.78,1720.094,1282.78z"/>
</g>
<g>
	<path style="fill:#404040;" d="M1199.885,1279.187c-0.829,0-1.5-0.672-1.5-1.5V802.793c0-0.829,0.671-1.5,1.5-1.5h520.208
		c0.828,0,1.5,0.671,1.5,1.5c0,0.829-0.672,1.5-1.5,1.5h-518.708v473.393C1201.385,1278.515,1200.714,1279.187,1199.885,1279.187z"
		/>
</g>
<g>
	<rect x="1199.885" y="800.78" style="fill:#9FC4FF;" width="520.209" height="84.746"/>
</g>
<g>
	<rect x="1245.518" y="942.892" style="fill:#9FC4FF;" width="50.847" height="49.544"/>
</g>
<g>
	<rect x="1334.175" y="942.892" style="fill:#EFC075;" width="50.847" height="49.544"/>
</g>
<g>
	<rect x="1422.832" y="942.892" style="fill:#EFC075;" width="50.847" height="49.544"/>
</g>
<g>
	<rect x="1511.489" y="942.892" style="fill:#9FC4FF;" width="50.847" height="49.544"/>
</g>
<g>
	<rect x="1600.146" y="942.892" style="fill:#9FC4FF;" width="50.847" height="49.544"/>
</g>
<g>
	<rect x="1245.518" y="1019.815" style="fill:#DEEDFF;" width="50.847" height="49.544"/>
</g>
<g>
	<rect x="1334.175" y="1019.815" style="fill:#DEEDFF;" width="50.847" height="49.544"/>
</g>
<g>
	<rect x="1422.832" y="1019.815" style="fill:#DEEDFF;" width="50.847" height="49.544"/>
</g>
<g>
	<rect x="1511.489" y="1019.815" style="fill:#DEEDFF;" width="50.847" height="49.544"/>
</g>
<g>
	<rect x="1600.146" y="1019.815" style="fill:#DEEDFF;" width="50.847" height="49.544"/>
</g>
<g>
	<rect x="1245.518" y="1096.739" style="fill:#DEEDFF;" width="50.847" height="49.544"/>
</g>
<g>
	<rect x="1334.175" y="1096.739" style="fill:#DEEDFF;" width="50.847" height="49.544"/>
</g>
<g>
	<rect x="1422.832" y="1096.739" style="fill:#DEEDFF;" width="50.847" height="49.544"/>
</g>
<g>
	<rect x="1511.489" y="1096.739" style="fill:#DEEDFF;" width="50.847" height="49.544"/>
</g>
<g>
	<rect x="1600.146" y="1096.739" style="fill:#DEEDFF;" width="50.847" height="49.544"/>
</g>
<g>
	<rect x="1245.518" y="1173.662" style="fill:#DEEDFF;" width="50.847" height="49.544"/>
</g>
<g>
	<rect x="1334.175" y="1173.662" style="fill:#DEEDFF;" width="50.847" height="49.544"/>
</g>
<g>
	<rect x="1422.832" y="1173.662" style="fill:#DEEDFF;" width="50.847" height="49.544"/>
</g>
<g>
	<rect x="1511.489" y="1173.662" style="fill:#DEEDFF;" width="50.847" height="49.544"/>
</g>
<g>
	<rect x="1600.146" y="1173.662" style="fill:#DEEDFF;" width="50.847" height="49.544"/>
</g>
<g>
	<path style="fill:#DEEDFF;" d="M1750.081,1158.785c-0.828,0-1.5-0.672-1.5-1.5V783.1c0-0.829,0.672-1.5,1.5-1.5s1.5,0.671,1.5,1.5
		v374.186C1751.581,1158.113,1750.909,1158.785,1750.081,1158.785z"/>
</g>
<g>
	<path style="fill:#DEEDFF;" d="M1770.941,1028.407c-0.828,0-1.5-0.672-1.5-1.5V783.1c0-0.829,0.672-1.5,1.5-1.5s1.5,0.671,1.5,1.5
		v243.808C1772.441,1027.735,1771.77,1028.407,1770.941,1028.407z"/>
</g>
<g>
	<path style="fill:#404040;" d="M1967.327,1347.065H838.738c-36.003,0-65.189-29.186-65.189-65.189l0,0h1238.593v20.375
		C2012.141,1327.001,1992.077,1347.065,1967.327,1347.065z"/>
</g>
<g>
	<polygon style="fill:#F8AC9F;" points="765.641,639.146 726.717,643.26 719.172,571.959 758.096,567.836 759.538,581.451 
		762.355,608.092 	"/>
</g>
<g>
	<path style="fill:#404040;" d="M762.355,608.092c-13.171-1.093-21.775-8.587-24.353-11.003l21.536-15.638L762.355,608.092z"/>
</g>
<g>
	<path style="fill:#F8AC9F;" d="M772.97,561.088c1.791-0.978,3.808-0.757,4.735,0.28c1.194,1.337,0.864,4.353-1.667,5.925
		L772.97,561.088z"/>
	<path style="fill:#404040;" d="M776.039,568.793c-0.501,0-0.992-0.252-1.276-0.709c-0.437-0.704-0.221-1.629,0.483-2.066
		c0.882-0.548,1.464-1.392,1.598-2.317c0.096-0.665-0.079-1.135-0.257-1.334c-0.378-0.425-1.63-0.655-2.897,0.037
		c-0.728,0.398-1.638,0.129-2.035-0.598c-0.397-0.727-0.129-1.638,0.598-2.035c2.352-1.284,5.117-1.032,6.572,0.597
		c0.838,0.938,1.198,2.308,0.989,3.761c-0.26,1.804-1.347,3.421-2.984,4.438C776.582,568.72,776.309,568.793,776.039,568.793z"/>
</g>
<g>
	<path style="fill:#F8AC9F;" d="M600.445,900.791c-1.468,8.382-2.945,16.389-4.422,24.003c-1.938,10.03-3.858,19.377-5.711,27.99
		c-2.194,10.209-4.165,18.822-10.798,27.793c-7.136,9.654-19.146,19.01-23.235,16.346c-3.201-2.074-2.902-12.36,13.436-49.423
		l1.05-20.913l1.408-28.254C581.597,899.152,591.021,899.971,600.445,900.791z"/>
</g>
<g>
	<path style="fill:#404040;" d="M600.445,900.791c-1.468,8.382-2.945,16.389-4.422,24.003l-25.258,1.792l1.408-28.254
		C581.597,899.152,591.021,899.971,600.445,900.791z"/>
</g>
<g>
	<path style="fill:#F78771;" d="M1012.115,666.032c-3.736,4.578-15.057,1.788-27.353-6.091c-2.847-1.826-5.751-3.916-8.617-6.261
		c-7.027-5.732-12.646-11.936-16.221-17.507c-4.19-6.545-5.562-12.22-3.083-15.266c2.043-2.507,6.365-2.8,11.87-1.267
		c6.886,1.92,15.625,6.696,24.1,13.62c0.492,0.407,0.984,0.813,1.466,1.229C1008.625,646.671,1016.57,660.575,1012.115,666.032z"/>
</g>
<g>
	<polygon style="fill:#F8AC9F;" points="661.4,1265.678 656.773,1293.625 649.919,1335.058 617.243,1329.647 622.613,1297.184 
		628.724,1260.275 	"/>
</g>
<g>
	<polygon style="fill:#6397FF;" points="644.396,865.255 644.439,868.627 641.938,868.943 	"/>
</g>
<g>
	<path style="fill:#404040;" d="M661.4,1265.678l-4.627,27.947c-6.385,1.818-13.88,3.269-22.287,3.688
		c-4.191,0.205-8.16,0.137-11.873-0.128l6.112-36.91L661.4,1265.678z"/>
</g>
<g>
	<polygon style="fill:#F8AC9F;" points="810.378,1336.245 777.301,1337.858 775.68,1304.995 775.586,1303.134 773.853,1267.624 
		806.93,1266.002 808.321,1294.291 808.483,1297.611 	"/>
</g>
<g>
	<path style="fill:#6397FF;" d="M748.89,855.426l-2.526,30.313l-2.093,25.13v0.01l-0.805,9.641l-4.136,49.535l-5.092,61.189v0.01
		l-0.101,1.177c-0.101,0.483-0.211,0.966-0.312,1.449c-1.389,6.35-2.778,12.691-4.156,19.041c-1.389,6.35-2.768,12.691-4.156,19.031
		c-0.936,4.277-1.862,8.555-2.798,12.832c-12.801,58.724-25.603,117.437-38.404,176.171c-0.232,1.047-0.463,2.094-0.684,3.14
		c-1.298,5.948-2.596,11.906-3.895,17.854c-5.112,2.526-12.711,5.746-22.332,7.92c-5.102,1.157-10.768,2.023-16.938,2.325
		c-6.159,0.302-11.835,0.01-16.918-0.614c-6.944-0.845-12.781-2.295-17.23-3.663c1.167-6.038,2.325-11.996,3.462-17.854
		c0.161-0.845,0.322-1.691,0.483-2.526c19.736-101.949,33.694-174.712,34.882-181.364c1.188-6.642,1.5-13.164,1.5-13.164
		c0.091-1.993,0.131-3.975,0.101-5.978l-0.825-71.042l-0.483-41.383l-0.04-3.452l-0.453-38.636l-0.131-11.111v-0.01l-0.372-32.768
		L748.89,855.426z"/>
</g>
<g>
	<path style="fill:#DEEDFF;" d="M638.32,1273.839c-10.945,0-21.804-1.631-32.354-4.866c-0.676-0.208-1.056-0.924-0.849-1.6
		c0.207-0.676,0.921-1.058,1.6-0.849c12.026,3.688,24.46,5.243,36.964,4.621c14.818-0.737,29.121-4.468,42.51-11.09
		c0.634-0.311,1.402-0.054,1.716,0.58c0.313,0.633,0.054,1.402-0.58,1.715c-13.706,6.778-28.347,10.598-43.518,11.352
		C641.977,1273.793,640.147,1273.839,638.32,1273.839z"/>
</g>
<g>
	<path style="fill:#404040;" d="M808.483,1297.611c-5.489,2.057-11.985,3.858-19.377,4.823c-4.823,0.632-9.364,0.811-13.521,0.7
		l-1.733-35.51l33.077-1.622l1.391,28.288L808.483,1297.611z"/>
</g>
<g>
	<path style="fill:#6397FF;" d="M847.22,861.568l-0.948,12.676l-2.697,35.937c-0.956,20.188-1.912,40.375-2.868,60.563
		c-0.043,0.965-0.085,1.921-0.137,2.885c-4.618,97.541-9.236,195.09-13.854,292.63c-0.043,0.99-0.094,1.98-0.137,2.97
		c-0.299,6.231-0.589,12.463-0.888,18.694c-6.539,3.944-18.284,9.885-34.144,11.95c-14.11,1.835-25.719-0.145-32.829-1.929
		c-0.128-6.427-0.247-12.847-0.376-19.274c-0.017-0.879-0.034-1.75-0.051-2.629c-1.024-52.437-2.057-104.873-3.081-157.31
		c-0.102-5.07-0.802-10.107-2.083-15.015l-0.819-3.124l-2.766-10.619l-3.815-14.639l-11.49-44.08v-0.009
		c-4.276-16.099-8.792-33.068-13.12-49.312c-6.436-24.14-12.454-46.683-16.671-62.441c-3.671-13.709-5.967-22.279-5.967-22.279
		l6.897-1.656l2.492-0.597l38.489-9.219l72.027-17.268L847.22,861.568z"/>
</g>
<g>
	<path style="fill:#DEEDFF;" d="M807.332,1274.211c-4.982,1.459-10.064,2.546-15.177,3.21c-5.928,0.775-11.876,1.016-17.793,0.724
		c-5.384-0.262-10.748-0.966-16.072-2.103c0.02,0.876,0.04,1.751,0.05,2.627c5.354,1.117,10.748,1.791,16.153,2.043
		c1.57,0.07,3.15,0.111,4.72,0.111c4.418,0,8.856-0.282,13.274-0.865c5.042-0.654,10.054-1.701,14.975-3.12
		c6.602-1.892,13.033-4.448,19.122-7.608c0.04-0.986,0.09-1.983,0.131-2.969C820.566,1269.572,814.044,1272.248,807.332,1274.211z"
		/>
</g>
<g>
	<path style="fill:#FFFFFF;" d="M840.707,970.743c-0.043,0.965-0.085,1.921-0.137,2.885c-3.466-2.014-6.846-4.183-10.124-6.556
		c-20.367-14.733-32.881-35.732-33.469-56.167c-0.026-0.708,0.529-1.297,1.238-1.315c0.7-0.034,1.298,0.538,1.323,1.238
		c0.563,19.65,12.685,39.897,32.411,54.169C834.791,967.055,837.711,968.959,840.707,970.743z"/>
</g>
<g>
	<path style="fill:#FFFFFF;" d="M674.959,911.302c-0.664,1.781-1.369,3.553-2.134,5.304c-6.23,14.361-15.72,27.414-27.394,38.002
		l-0.04-3.452c10.446-9.873,19.001-21.809,24.768-34.882c0.855-1.932,1.65-3.885,2.385-5.867c0.191-0.513,0.695-0.835,1.208-0.835
		c0.151,0,0.302,0.03,0.443,0.081C674.859,909.903,675.201,910.628,674.959,911.302z"/>
</g>
<g>
	<polygon style="fill:#404040;" points="644.396,865.255 644.439,868.627 641.938,868.943 	"/>
</g>
<g>
	<path style="fill:#404040;" d="M846.269,874.246l-1.268,16.918v0.01l-1.429,19.011c-13.617,2.697-28.129,5.032-43.477,6.803
		c-0.845,0.101-1.691,0.191-2.546,0.292c-3.381,0.372-6.803,0.715-10.265,1.037c-15.126,1.379-29.759,2.063-43.819,2.204
		c-13.556,0.121-26.579-0.262-39.018-1.026c-11.01-0.684-21.567-1.681-31.621-2.888c-0.896-0.111-1.781-0.221-2.667-0.332
		c-8.796-1.097-17.22-2.375-25.221-3.754l-0.131-11.111v-0.01l-0.372-32.768l104.455-13.204l-2.526,30.313l72.018-17.27
		c0.735,0.151,1.479,0.302,2.214,0.463c4.277,0.886,8.554,1.771,12.822,2.647C837.705,872.475,841.992,873.36,846.269,874.246z"/>
</g>
<g>
	<path style="fill:#F78771;" d="M878.615,877.346c-4.026,1.902-8.474,3.915-13.325,5.968c-0.845,0.362-1.711,0.725-2.586,1.077
		c-0.876,0.362-1.761,0.725-2.657,1.087c-0.483,0.201-0.966,0.393-1.459,0.584c-0.533,0.221-1.077,0.433-1.62,0.644
		c-2.727,1.077-5.555,2.154-8.494,3.22c-0.886,0.322-1.781,0.644-2.687,0.966c-0.262,0.091-0.523,0.181-0.785,0.272v0.01
		c-6.662,2.345-13.818,4.639-21.446,6.793c-0.674,0.191-1.349,0.383-2.023,0.564c-4.207,1.167-8.554,2.284-13.033,3.341
		l-2.234,0.513c-1.721,0.403-3.472,0.785-5.243,1.167c-0.533,0.111-1.077,0.221-1.61,0.332c-0.775,0.161-1.55,0.322-2.335,0.473
		c-0.775,0.161-1.56,0.312-2.345,0.463c-1.278,0.252-2.566,0.493-3.865,0.735c-7.649,1.399-15.629,2.587-23.922,3.512
		c-1.288,0.151-2.576,0.282-3.875,0.413c-0.463,0.05-0.926,0.101-1.399,0.141c-1.167,0.111-2.345,0.221-3.522,0.322
		c-0.07,0.01-0.141,0.02-0.211,0.02c-1.208,0.101-2.425,0.201-3.653,0.292c-0.272,0.02-0.543,0.04-0.815,0.06
		c-1.52,0.121-3.059,0.221-4.599,0.312c-0.946,0.06-1.892,0.111-2.838,0.161c-0.594,0.03-1.177,0.06-1.761,0.081
		c-2.033,0.101-4.056,0.181-6.058,0.242c-4.75,0.141-9.43,0.191-14.009,0.141c-2.063-0.02-4.096-0.05-6.119-0.111
		c-2.365-0.07-4.71-0.151-7.025-0.262c-0.765-0.04-1.54-0.07-2.305-0.121c-2.274-0.121-4.529-0.262-6.753-0.423v-0.01
		c-0.02,0.01-0.04,0.01-0.07,0c-0.745-0.05-1.49-0.111-2.234-0.171c-0.745-0.06-1.49-0.121-2.224-0.181
		c-0.936-0.081-1.872-0.161-2.798-0.252c-2.727-0.262-5.424-0.543-8.061-0.855c-0.664-0.07-1.328-0.151-1.983-0.231
		c-0.05-0.01-0.091-0.01-0.131-0.02c-1.409-0.171-2.808-0.352-4.187-0.543c-2.073-0.282-4.126-0.574-6.139-0.886
		c-0.171-0.03-0.332-0.05-0.503-0.081c-0.956-0.141-1.902-0.292-2.848-0.453c-1.892-0.302-3.754-0.624-5.586-0.956
		c-1.6-0.282-3.17-0.574-4.72-0.875c-2.033-0.403-4.026-0.805-5.988-1.218c-0.866-0.181-1.721-0.362-2.576-0.553
		c-1.701-0.372-3.381-0.755-5.032-1.147c-0.715-0.161-1.419-0.332-2.114-0.493v-0.01c-0.926-0.221-1.842-0.443-2.747-0.674
		c-2.385-0.594-4.71-1.198-6.974-1.811c-6.592-1.781-12.63-3.633-18.075-5.425c-0.272-0.091-0.543-0.181-0.815-0.272
		c-1.822-0.604-3.573-1.198-5.263-1.791c-0.403-0.141-0.805-0.282-1.198-0.423c0.141-1.479,0.282-2.959,0.433-4.438
		c0.091-0.986,0.181-1.983,0.282-2.969c0.211-2.144,0.413-4.287,0.624-6.431c5.716-58.824,11.423-117.659,17.129-176.493
		c0.392-3.995,0.775-7.981,1.167-11.976c1.962-3.633,4.71-8.343,8.434-13.617c2.224-3.16,4.801-6.532,7.759-9.983
		c6.37-7.437,14.502-15.297,24.778-22.493c14.512-10.165,28.743-15.821,40.005-19.031c3.281-0.946,6.3-1.681,9.017-2.244
		c0.01-0.01,0.03-0.01,0.05-0.01c1.349-0.282,2.617-0.533,3.804-0.745c0.362-0.07,0.735-0.06,1.097,0.01
		c0.211,0.04,0.423,0.101,0.624,0.191h0.01c1.177,0.503,2.607,1.067,4.257,1.61c4.509,1.459,10.678,2.737,17.954,2.295
		c5.827-0.362,10.678-1.721,14.311-3.12c0.724-0.282,1.479-0.513,2.234-0.694c1.469-0.362,2.979-0.543,4.489-0.543
		c3.683,0,7.89,0.191,12.469,0.775c7.649,0.966,16.354,3.009,25.402,6.995c9.098,4.005,16.797,9.198,23.278,14.915
		c21.527,18.951,29.629,43.557,31.35,49.102c1.741,17.984,3.482,35.969,5.223,53.943c0.785,8.232,1.59,16.455,2.385,24.687v0.01
		c0.533,5.505,1.067,11.02,1.6,16.535c1.55,15.952,3.09,31.913,4.64,47.865c0.151,1.54,0.292,3.08,0.443,4.619
		c0.553,5.747,1.107,11.503,1.671,17.25c0.231,2.385,0.463,4.78,0.694,7.166C877.77,868.57,878.192,872.958,878.615,877.346z"/>
</g>
<g>
	<path style="fill:#404040;" d="M727.67,912.771c-1.173,0-2.335-0.006-3.483-0.018c-2.072-0.021-4.115-0.051-6.148-0.112
		c-2.374-0.07-4.728-0.15-7.052-0.263l-0.746-0.036c-0.53-0.025-1.058-0.051-1.585-0.085c-2.266-0.121-4.53-0.262-6.764-0.424l0,0
		c-0.041-0.003-0.083-0.008-0.125-0.015c-0.732-0.049-1.473-0.108-2.194-0.168l-2.448-0.2c-0.869-0.075-1.738-0.15-2.598-0.234
		c-2.989-0.287-5.637-0.568-8.092-0.859c-0.653-0.068-1.326-0.15-1.988-0.232c-0.035-0.005-0.069-0.01-0.104-0.017
		c-0.021-0.002-0.05-0.006-0.082-0.011c-1.399-0.17-2.787-0.35-4.156-0.54c-2.079-0.282-4.141-0.575-6.163-0.889l-0.534-0.085
		c-0.926-0.137-1.882-0.289-2.839-0.452c-1.887-0.301-3.759-0.625-5.601-0.959c-1.602-0.282-3.181-0.576-4.739-0.879
		c-2.044-0.404-4.043-0.809-6.011-1.223c-0.87-0.182-1.733-0.364-2.595-0.558c-1.703-0.372-3.393-0.757-5.052-1.151
		c-0.701-0.16-1.424-0.333-2.126-0.507c-0.921-0.22-1.845-0.443-2.759-0.677c-2.388-0.594-4.744-1.206-6.996-1.817
		c-0.8-0.217-1.272-1.04-1.055-1.84c0.217-0.799,1.043-1.273,1.84-1.055c2.231,0.604,4.568,1.212,6.944,1.803
		c0.907,0.232,1.814,0.452,2.733,0.671c0.699,0.173,1.404,0.342,2.1,0.501c1.654,0.394,3.326,0.772,5.018,1.143
		c0.856,0.191,1.704,0.372,2.563,0.551c1.959,0.413,3.946,0.814,5.973,1.215c1.537,0.3,3.098,0.59,4.689,0.87
		c1.828,0.332,3.68,0.652,5.561,0.952c0.951,0.162,1.886,0.31,2.831,0.451l0.545,0.087c1.972,0.306,4.016,0.595,6.08,0.876
		c1.374,0.19,2.765,0.37,4.165,0.54c0.032,0.004,0.065,0.009,0.097,0.016c0.023,0.003,0.046,0.006,0.07,0.01
		c0.635,0.077,1.28,0.156,1.924,0.225c2.451,0.29,5.077,0.568,8.047,0.854c0.852,0.084,1.709,0.157,2.566,0.232l2.434,0.199
		c0.729,0.061,1.476,0.12,2.212,0.169c0.046,0.004,0.092,0.009,0.137,0.016c2.196,0.159,4.421,0.298,6.667,0.417
		c0.527,0.034,1.038,0.059,1.55,0.083l0.752,0.037c2.3,0.11,4.636,0.19,6.991,0.261c2.014,0.06,4.037,0.09,6.09,0.11
		c4.481,0.05,9.175,0.001,13.949-0.141c1.995-0.061,4.011-0.141,6.037-0.23l1.751-0.091c0.939-0.05,1.88-0.1,2.821-0.159
		c1.535-0.091,3.065-0.19,4.574-0.311l0.822-0.062c1.21-0.088,2.407-0.188,3.595-0.287c0.041-0.003,0.129-0.009,0.171-0.009
		c1.25-0.114,2.417-0.224,3.575-0.334c0.457-0.038,0.875-0.084,1.29-0.129l0.106-0.011c1.3-0.131,2.58-0.262,3.861-0.412
		c8.009-0.893,16.022-2.07,23.827-3.497c1.292-0.23,2.568-0.47,3.834-0.729c0.808-0.144,1.579-0.304,2.34-0.462
		c0.8-0.153,1.567-0.313,2.335-0.473l1.612-0.332c1.749-0.378,3.492-0.758,5.205-1.159c0.769-0.165,1.499-0.332,2.219-0.51
		c4.397-1.037,8.763-2.156,12.989-3.33c0.674-0.181,1.335-0.358,1.996-0.556c7.129-2.013,14.262-4.271,21.226-6.717
		c0.051-0.024,0.104-0.047,0.157-0.065l0.786-0.272c0.892-0.316,1.784-0.638,2.666-0.958c2.763-1.003,5.607-2.081,8.456-3.207
		c0.541-0.21,1.075-0.418,1.599-0.634c0.512-0.199,0.984-0.387,1.456-0.583c0.907-0.366,1.788-0.728,2.661-1.088
		c0.878-0.354,1.733-0.712,2.569-1.07c0.762-0.325,1.644,0.027,1.97,0.788c0.326,0.762-0.027,1.643-0.788,1.97
		c-0.856,0.366-1.731,0.733-2.617,1.09c-0.866,0.358-1.755,0.722-2.655,1.086c-0.48,0.2-0.974,0.395-1.479,0.592
		c-0.514,0.213-1.067,0.429-1.621,0.643c-2.867,1.132-5.738,2.221-8.525,3.232c-0.888,0.323-1.788,0.647-2.697,0.97l-0.642,0.223
		c-0.047,0.022-0.096,0.043-0.147,0.061c-7.071,2.488-14.317,4.783-21.537,6.821c-0.667,0.199-1.355,0.385-2.043,0.569
		c-4.251,1.18-8.655,2.31-13.077,3.352c-0.736,0.181-1.496,0.356-2.266,0.52c-1.7,0.398-3.459,0.782-5.239,1.167l-1.627,0.336
		c-0.778,0.161-1.56,0.324-2.353,0.477c-0.765,0.159-1.564,0.322-2.362,0.466c-1.254,0.257-2.555,0.502-3.866,0.735
		c-7.866,1.438-15.949,2.625-24.019,3.526c-1.288,0.15-2.584,0.282-3.891,0.414l-0.096,0.011c-0.439,0.047-0.878,0.095-1.327,0.133
		c-1.169,0.11-2.345,0.222-3.521,0.321c-0.048,0.009-0.148,0.019-0.258,0.023c-1.229,0.103-2.422,0.202-3.625,0.29l-0.812,0.061
		c-1.523,0.121-3.074,0.223-4.623,0.313c-0.945,0.06-1.897,0.111-2.847,0.161l-1.763,0.091c-2.051,0.092-4.081,0.172-6.091,0.232
		C734.665,912.717,731.117,912.771,727.67,912.771z"/>
</g>
<g>
	<path style="fill:#404040;" d="M869.9,787.279c-0.905-0.546-1.792-1.084-2.655-1.605c-20.572-12.497-36.722-26.931-49.176-40.597
		l47.844,0.973C867.237,759.793,868.568,773.536,869.9,787.279z"/>
</g>
<g>
	<path style="fill:#F8AC9F;" d="M771.479,548.722c0.75,5.88,2.141,11.649,3.945,17.296c3.511,10.99,3.146,21.77-2.314,28.917
		c-11.389,14.909-41.762,9.846-57.83-5.648c-14.146-13.641-22.098-40.083-7.98-57.555c10.479-12.968,32.006-19.62,48.169-9.383
		C764.331,527.962,770.073,537.698,771.479,548.722z"/>
</g>
<g>
	<path style="fill:#F78771;" d="M1005.801,662.236c-1.169,5.369-2.509,10.619-4.003,15.732c-2.271,7.759-4.9,15.22-7.853,22.313
		c-17.9,43.004-47.733,72.846-81.186,77.191c-26.043,3.38-51.25-9.074-67.434-17.072c-34.571-17.089-55.902-41.408-66.939-56.175
		c13.777-22.245,27.554-44.498,41.331-66.743c28.741,16.5,57.473,33.009,86.213,49.509c6.923-8.434,13.837-16.867,20.76-25.301
		c5.19-6.325,10.388-12.659,15.578-18.984c6.095-7.435,12.198-14.861,18.292-22.296c3.781,6.769,10.183,16.389,20.486,25.608
		C990.163,654.178,999.177,659.197,1005.801,662.236z"/>
</g>
<g>
	<path style="fill:#404040;" d="M741.498,572.374c4.097,4.064,4.11,10.51,0.617,14.193c-3.846,4.055-11.174,3.954-15.238-0.98
		L741.498,572.374z"/>
</g>
<g>
	<path style="fill:#404040;" d="M903.735,779.542c-23.068,0-44.386-10.538-59.075-17.797c-15.723-7.771-30.342-17.844-43.453-29.939
		c-0.609-0.561-0.647-1.511-0.085-2.12c0.563-0.608,1.511-0.647,2.12-0.085c12.9,11.901,27.282,21.81,42.748,29.455
		c16.303,8.058,40.942,20.236,66.578,16.929c27.148-3.501,53.271-24.716,71.671-58.205c0.398-0.727,1.31-0.992,2.037-0.592
		c0.726,0.399,0.991,1.311,0.592,2.037c-18.866,34.338-45.807,56.11-73.916,59.736C909.857,779.358,906.779,779.542,903.735,779.542
		z"/>
</g>
<g>
	<path style="fill:#404040;" d="M905.929,688.49c-0.253,0-0.51-0.064-0.746-0.2l-42.396-24.346c-0.718-0.413-0.966-1.33-0.554-2.048
		c0.413-0.718,1.33-0.966,2.048-0.554l42.396,24.346c0.718,0.413,0.966,1.33,0.554,2.048
		C906.954,688.22,906.448,688.49,905.929,688.49z"/>
</g>
<g>
	<path style="fill:#F78771;" d="M762.879,627.466c-1.208,2.989-2.506,5.998-3.895,9.007c-0.543,1.188-1.107,2.375-1.691,3.563
		c-0.413,0.865-0.835,1.731-1.268,2.596c-26.881,53.762-72.29,86.269-109.024,105.481c-8.585,41.635-17.179,83.27-25.774,124.905
		c-1.409,6.823-2.808,13.647-4.217,20.47c-0.06,0.312-0.131,0.614-0.191,0.926c-0.926,4.458-1.842,8.917-2.758,13.375
		c-0.352,1.701-0.704,3.412-1.057,5.112c-4.197,2.063-9.521,4.287-15.861,6.048c-2.415,0.674-4.982,1.288-7.689,1.802
		c-6.723,1.268-12.962,1.661-18.478,1.57c-6.159-0.101-11.443-0.805-15.529-1.57c0.181-4.146,0.362-8.293,0.544-12.439
		c0.282-6.481,0.564-12.962,0.855-19.434c0.996-22.644,0.181-45.419,3.2-67.932c3.09-23.077,11.393-44.453,22.151-64.983
		c11.453-21.889,23.983-44.704,39.733-63.796c5.425-6.572,11.101-13.466,17.129-20.138c2.123-2.345,4.287-4.66,6.501-6.934
		c14.361-14.744,30.766-27.435,50.381-31.883c3.573-0.805,10.94-2.174,20.641-3.382c2.697-0.342,5.586-0.664,8.615-0.956
		c4.71-0.463,9.792-0.866,15.106-1.127C749.584,627.295,757.364,627.335,762.879,627.466z"/>
</g>
<g>
	<path style="fill:#404040;" d="M727.743,569.029c6.965-2.211,24.672-8.887,36.585-26.746c4.245-6.364,13.923-20.872,8.859-31.009
		c-7.086-14.184-40.458-14.645-63.494-2.953c-4.236,2.15-31.49,15.984-33.877,43.957c-1.244,14.578,4.308,32.477,18.425,41.876
		c7.979,5.312,25.059,12.154,33.501,3.35C733.522,591.478,733.641,579.801,727.743,569.029z"/>
</g>
<g>
	<path style="fill:#F8AC9F;" d="M747.123,581.951c-3.545,4.857-11.567,5.037-17.919,0.402c-6.352-4.635-8.628-12.331-5.083-17.188
		c3.545-4.857,11.567-5.037,17.919-0.402C748.392,569.398,750.668,577.093,747.123,581.951z"/>
</g>
<g>
	<path style="fill:#404040;" d="M737.633,576.268c-0.275,0-0.554-0.076-0.804-0.234l-8.122-5.168
		c-0.699-0.445-0.905-1.372-0.46-2.071c0.445-0.699,1.372-0.904,2.071-0.46l8.122,5.168c0.699,0.445,0.905,1.372,0.46,2.071
		C738.614,576.023,738.128,576.268,737.633,576.268z"/>
</g>
<g>
	<path style="fill:#404040;" d="M1009.42,661.126c-3.372,4.131-13.589,1.613-24.686-5.497c-2.569-1.648-5.19-3.534-7.776-5.651
		c-6.342-5.173-11.413-10.772-14.639-15.8c-3.781-5.907-5.019-11.029-2.783-13.777c1.844-2.262,5.745-2.527,10.712-1.144
		c6.214,1.733,14.102,6.044,21.75,12.292c0.444,0.367,0.888,0.734,1.323,1.11C1006.271,643.653,1013.441,656.201,1009.42,661.126z"
		/>
</g>
<g>
	<path style="fill:#DEEDFF;" d="M780.665,621.092c-2.722,3.356-12.633,14.721-29.236,17.243
		c-15.057,2.287-32.419-3.185-41.084-14.767c-0.285-0.381-0.514-0.707-0.674-0.939c3.38-0.546,6.624-0.965,9.688-1.306
		c0.017-0.008,0.034-0.008,0.051-0.008c1.349-0.282,2.621-0.529,3.807-0.743c0.58-0.111,1.178-0.034,1.724,0.205h0.009
		c1.178,0.504,2.604,1.067,4.251,1.605c4.507,1.46,10.678,2.74,17.96,2.296c5.821-0.359,10.678-1.724,14.306-3.116
		c2.151-0.819,4.43-1.238,6.726-1.238C771.873,620.315,776.081,620.512,780.665,621.092z"/>
</g>
<g>
	<path style="fill:#F8AC9F;" d="M1016.898,594.801c-2.706,14.409-15.561,24.37-19.633,27.315c-1.315,3.517-2.629,7.025-3.944,10.542
		c-2.859,7.657-5.719,15.314-8.587,22.97c-2.569-1.648-5.19-3.534-7.776-5.651c-6.342-5.173-11.413-10.772-14.639-15.8
		c2.638-4.968,5.284-9.944,7.93-14.921c5.864-11.046,11.737-22.1,17.61-33.154c6.436-3.935,12.881-7.862,19.317-11.797
		c1.869,0.785,6.112,2.894,8.587,7.512C1018.357,586.649,1017.521,591.464,1016.898,594.801z"/>
</g>
<g>
	<path style="fill:#F8AC9F;" d="M1005.029,587.18c9.143-24.084,12.72-36.603,10.731-37.56c-2.24-1.078-11.54,12.516-27.902,40.78
		C993.582,589.327,999.305,588.253,1005.029,587.18z"/>
</g>
<g>
	<path style="fill:#F8AC9F;" d="M982.492,602.205c5.609-26.044,9.544-38.921,11.805-38.634c1.913,0.243,2.628,9.903,2.146,28.975
		L982.492,602.205z"/>
</g>
<g>
	<g>
		<path style="fill:#FFFFFF;" d="M729.163,859.265c3.217,0,3.223-5,0-5C725.945,854.265,725.94,859.265,729.163,859.265
			L729.163,859.265z"/>
	</g>
</g>
<g>
	<g>
		<path style="fill:#FFFFFF;" d="M884.772,732.424c3.217,0,3.223-5,0-5C881.555,727.424,881.549,732.424,884.772,732.424
			L884.772,732.424z"/>
	</g>
</g>
<g>
	<g>
		<path style="fill:#FFFFFF;" d="M712.163,682.734c3.217,0,3.223-5,0-5C708.946,677.734,708.941,682.734,712.163,682.734
			L712.163,682.734z"/>
	</g>
</g>
<g>
	<path style="fill:#404040;" d="M756.37,1120.718c-0.664,0-1.271-0.444-1.449-1.117l-35.401-133.922l-8.634-5.95
		c-0.682-0.471-0.854-1.404-0.383-2.087c0.471-0.681,1.404-0.852,2.086-0.384l9.09,6.266c0.295,0.203,0.507,0.506,0.599,0.852
		l35.544,134.46c0.211,0.801-0.266,1.621-1.067,1.833C756.626,1120.702,756.497,1120.718,756.37,1120.718z"/>
</g>
<g>
	<path style="fill:#404040;" d="M733.819,1033.892c-2.774,12.685-5.531,25.378-8.305,38.062
		c-2.322-11.182-4.217-23.602-5.241-37.123c-1.391-18.335-0.905-35.168,0.555-50.072
		C725.155,1001.139,729.491,1017.511,733.819,1033.892z"/>
</g>
<g>
	<path style="fill:#DEEDFF;" d="M621.227,873.018c-1.409,6.823-2.808,13.647-4.217,20.47c-0.06,0.312-0.131,0.614-0.191,0.926
		c-0.292,0.111-0.584,0.221-0.886,0.332c-1.369,0.493-2.747,0.996-4.156,1.479c-4.438,1.54-9.068,2.999-13.888,4.348
		c-3.724,1.037-7.558,2.013-11.503,2.909c-5.012,1.137-9.893,2.073-14.613,2.828c-5.475,0.886-10.738,1.54-15.77,2.013
		c0,0,0-0.01-0.01-0.01c-1.721-2.929-3.442-5.847-5.163-8.776c2.003-3.553,4.005-7.105,6.018-10.658
		c8.846-0.594,18.759-1.862,29.407-4.277c8.172-1.852,15.74-4.136,22.684-6.652c0.725-0.262,1.429-0.523,2.134-0.785
		c2.959-1.107,5.807-2.264,8.524-3.432C620.141,873.491,620.684,873.26,621.227,873.018z"/>
</g>
<g>
	<path style="fill:#DEEDFF;" d="M884.778,853.663c-3.824,1.622-7.725,3.218-11.703,4.763c-18.293,7.136-35.74,12.403-51.865,16.312
		c-0.589-5.583-1.178-11.174-1.758-16.756c13.051-2.851,27.528-6.957,42.859-12.932c7.298-2.842,14.221-5.881,20.759-9.048
		C883.634,841.892,884.206,847.773,884.778,853.663z"/>
</g>
<g>
	<path style="fill:#404040;" d="M614.429,904.877c-0.086,0-0.172-0.007-0.26-0.023c-0.816-0.143-1.362-0.919-1.22-1.735
		l38.412-220.228c0.142-0.817,0.92-1.365,1.735-1.22c0.816,0.142,1.362,0.919,1.22,1.735l-38.412,220.228
		C615.777,904.363,615.144,904.877,614.429,904.877z"/>
</g>
<g>
	<path style="fill:#404040;" d="M878.81,1347.06c-18.37-0.11-36.74-0.23-55.11-0.34c-0.24-0.01-0.49,0-0.74-0.01
		c-2.73-0.01-5.45-0.03-8.18-0.05c-12.95-0.09-25.89-0.16-38.83-0.25c-0.38-2.38-0.72-4.84-1-7.41c-0.19-1.62-0.34-3.28-0.47-4.98
		c-0.72-9.25-0.51-17.7,0.16-25.13c0.06-0.63,0.83-0.89,1.27-0.43c0.26,0.27,0.55,0.56,0.86,0.86c0.19,0.19,0.5,0.48,0.9,0.84
		c7.34,6.5,16.42,6.66,16.42,6.66c7.05,0.13,12.3-2.92,14.87-4.78c0.91-0.66,2.07-0.88,3.16-0.6c4.47,1.17,6.69,1.69,7.88,1.93
		c0.08,0.02,0.17,0.03,0.25,0.05c0.12,0.02,0.28,0.05,0.47,0.09c0.64,0.12,1.62,0.32,2.8,0.58c0.59,0.13,1.17,0.26,1.75,0.39
		c1.46,0.32,2.88,0.65,4.25,0.98h0.01c0.1,0.02,0.2,0.05,0.3,0.07c0.93,0.23,1.84,0.45,2.73,0.67c3.24,0.82,6.18,1.63,8.77,2.4
		c0.84,0.25,1.59,0.47,2.25,0.67c3.63,1.1,4.45,1.5,7.11,2.45c4.7,1.69,9.37,3.12,11.13,3.66c0.26,0.08,0.61,0.19,1.04,0.33
		c0.25,0.08,0.53,0.17,0.84,0.27c0.1,0.04,0.2,0.07,0.31,0.11c0.43,0.14,0.89,0.3,1.39,0.48c0.13,0.04,0.26,0.09,0.39,0.13
		c0.25,0.09,0.52,0.19,0.79,0.29c0.23,0.08,0.46,0.17,0.7,0.26c0.41,0.15,0.84,0.31,1.28,0.49c1.53,0.61,3.18,1.31,4.8,2.1
		c0.22,0.11,0.44,0.22,0.66,0.34c0.41,0.2,0.8,0.4,1.19,0.62c0.06,0.03,0.11,0.06,0.17,0.09c0.22,0.13,0.45,0.25,0.67,0.37
		c0.96,0.56,1.89,1.15,2.74,1.77c0.12,0.08,0.23,0.17,0.35,0.25c0.18,0.14,0.37,0.28,0.55,0.43c0.12,0.1,0.24,0.19,0.35,0.29
		c0.06,0.05,0.12,0.09,0.18,0.15v0.01c0.1,0.07,0.19,0.16,0.28,0.24c0.17,0.15,0.33,0.3,0.48,0.46c0.06,0.05,0.12,0.11,0.17,0.17
		c0.39,0.39,0.74,0.79,1.04,1.21c0.08,0.1,0.15,0.21,0.22,0.31c0.09,0.13,0.17,0.26,0.25,0.39c0.07,0.11,0.14,0.23,0.21,0.35
		c0.21,0.41,0.38,0.81,0.5,1.23c0.04,0.12,0.07,0.24,0.09,0.36c0.01,0.04,0.02,0.08,0.02,0.12c0.05,0.24,0.08,0.49,0.09,0.74
		C883.63,1341.1,883.18,1343.68,878.81,1347.06z"/>
</g>
<g>
	<path style="fill:#DEEDFF;" d="M820.598,1324.433c0.236,0.292,0.557,0.455,0.89,0.507c0.37,0.053,0.761-0.042,1.071-0.296
		l9.525-7.688c0.245-0.199,0.407-0.465,0.477-0.751c-0.987-0.249-2.002-0.499-3.035-0.749l-8.716,7.026
		C820.217,1322.963,820.118,1323.841,820.598,1324.433z"/>
</g>
<g>
	<path style="fill:#DEEDFF;" d="M815.266,1318.973c0.227,0.282,0.548,0.455,0.881,0.498c0.37,0.053,0.761-0.042,1.071-0.287
		l6.3-5.086c-1.145-0.252-2.317-0.495-3.518-0.73l-4.532,3.653C814.875,1317.501,814.785,1318.371,815.266,1318.973z"/>
</g>
<g>
	<path style="fill:#404040;" d="M683.14,1346.82c-23.9-0.28-47.8-0.57-71.7-0.85c0.39-2.29,0.81-4.62,1.25-6.97
		c0.89-4.67,1.89-9.46,3.02-14.37c0.57-2.48,1.16-4.92,1.76-7.31c0.71-2.83,3.97-4.15,6.45-2.62c3.29,2.03,8.07,4.05,13.98,3.95
		c4.48-0.07,8.14-1.34,10.71-2.59c2.18-1.06,4.68-1.2,6.94-0.32c5.37,2.09,13.49,6.36,19.91,14.86c2.17,2.88,3.78,5.75,4.98,8.4
		C681.79,1341.98,682.62,1344.69,683.14,1346.82z"/>
</g>
<g>
	<path style="fill:#404040;" d="M769.293,555.405c0.462,2.07-0.282,3.999-1.663,4.307c-1.38,0.308-2.874-1.121-3.336-3.191
		c-0.462-2.071,0.282-3.999,1.663-4.307C767.337,551.906,768.831,553.334,769.293,555.405z"/>
</g>
<g>
	<path style="fill:#404040;" d="M768.501,542.735c-0.322-1.568-4.456-2.419-7.682-0.955c-4.163,1.89-6.132,7.328-5.122,8.593
		C757.365,552.461,769.088,545.591,768.501,542.735z"/>
</g>
<g>
	<path style="fill:#FFFFFF;" d="M680.44,1339c1.35,2.98,2.18,5.69,2.7,7.82c-23.9-0.28-47.8-0.57-71.7-0.85
		c0.39-2.29,0.81-4.62,1.25-6.97H680.44z"/>
</g>
<g>
	<path style="fill:#FFFFFF;" d="M878.81,1347.06c-18.37-0.11-36.74-0.23-55.11-0.34c-0.24-0.01-0.49,0-0.74-0.01
		c-2.73-0.01-5.45-0.03-8.18-0.05c-12.95-0.09-25.89-0.16-38.83-0.25c-0.38-2.38-0.72-4.84-1-7.41h108.53
		c0.05,0.24,0.08,0.49,0.09,0.74C883.63,1341.1,883.18,1343.68,878.81,1347.06z"/>
</g>
<g>
	
		<ellipse transform="matrix(0.2298 -0.9732 0.9732 0.2298 259.5169 1977.9658)" style="fill:#6397FF;" cx="1379.393" cy="825.026" rx="16.949" ry="16.949"/>
</g>
<g>
	<path style="fill:#404040;" d="M1458.545,800.587h-8.061c-1.339-19.575-17.693-35.083-37.609-35.083
		c-19.907,0-36.261,15.509-37.599,35.083c-0.06,0.866-0.091,1.731-0.091,2.607c0,7.095,1.983,14.009,5.726,19.987
		c1.177,1.882,0.614,4.368-1.278,5.545c-0.664,0.423-1.399,0.614-2.133,0.614c-1.339,0-2.647-0.664-3.412-1.882
		c-4.549-7.266-6.954-15.65-6.954-24.264c0-0.876,0.02-1.741,0.081-2.607c1.349-24.013,21.316-43.134,45.661-43.134
		c21.316,0,39.27,14.653,44.332,34.409C1457.921,794.67,1458.384,797.598,1458.545,800.587z"/>
</g>
<g>
	
		<ellipse transform="matrix(0.7071 -0.7071 0.7071 0.7071 -144.2892 1301.707)" style="fill:#6397FF;" cx="1499.155" cy="825.026" rx="16.949" ry="16.949"/>
</g>
<g>
	<path style="fill:#404040;" d="M1578.307,800.587h-8.061c-1.339-19.575-17.693-35.083-37.609-35.083
		c-19.907,0-36.261,15.509-37.599,35.083c-0.06,0.866-0.091,1.731-0.091,2.607c0,7.095,1.983,14.009,5.727,19.987
		c1.178,1.882,0.614,4.368-1.278,5.545c-0.664,0.423-1.399,0.614-2.134,0.614c-1.339,0-2.647-0.664-3.412-1.882
		c-4.549-7.266-6.954-15.65-6.954-24.264c0-0.876,0.02-1.741,0.081-2.607c1.349-24.013,21.316-43.134,45.661-43.134
		c21.316,0,39.27,14.653,44.332,34.409C1577.683,794.67,1578.146,797.598,1578.307,800.587z"/>
</g>
<g>
	
		<ellipse transform="matrix(0.2298 -0.9732 0.9732 0.2298 444.0095 2211.0823)" style="fill:#6397FF;" cx="1618.917" cy="825.026" rx="16.949" ry="16.949"/>
</g>
<g>
	<path style="fill:#404040;" d="M1698.069,800.587h-8.061c-1.339-19.575-17.693-35.083-37.609-35.083
		c-19.907,0-36.261,15.509-37.599,35.083c-0.06,0.866-0.091,1.731-0.091,2.607c0,7.095,1.983,14.009,5.727,19.987
		c1.177,1.882,0.614,4.368-1.278,5.545c-0.664,0.423-1.399,0.614-2.134,0.614c-1.339,0-2.647-0.664-3.412-1.882
		c-4.549-7.266-6.954-15.65-6.954-24.264c0-0.876,0.02-1.741,0.081-2.607c1.349-24.013,21.316-43.134,45.661-43.134
		c21.316,0,39.27,14.653,44.332,34.409C1697.445,794.67,1697.908,797.598,1698.069,800.587z"/>
</g>
<g>
	<path style="fill:#404040;" d="M1581.531,887.025h-262.778c-0.828,0-1.5-0.672-1.5-1.5c0-0.828,0.672-1.5,1.5-1.5h262.778
		c0.828,0,1.5,0.672,1.5,1.5C1583.031,886.354,1582.359,887.025,1581.531,887.025z"/>
</g>
<g>
	<path style="fill:#404040;" d="M1720.094,921.85c-0.828,0-1.5-0.672-1.5-1.5V800.78c0-0.829,0.672-1.5,1.5-1.5s1.5,0.671,1.5,1.5
		V920.35C1721.594,921.178,1720.922,921.85,1720.094,921.85z"/>
</g>
<g>
	<path style="fill:#404040;" d="M1720.094,802.28h-78.906c-0.828,0-1.5-0.671-1.5-1.5c0-0.829,0.672-1.5,1.5-1.5h78.906
		c0.828,0,1.5,0.671,1.5,1.5C1721.594,801.609,1720.922,802.28,1720.094,802.28z"/>
</g>
<g>
	<path style="fill:#404040;" d="M1199.885,887.025c-0.829,0-1.5-0.672-1.5-1.5V800.78c0-0.829,0.671-1.5,1.5-1.5h89.404
		c0.828,0,1.5,0.671,1.5,1.5c0,0.829-0.672,1.5-1.5,1.5h-87.904v83.245C1201.385,886.354,1200.714,887.025,1199.885,887.025z"/>
</g>
<g>
	
		<ellipse transform="matrix(0.7071 -0.7071 0.7071 0.7071 -214.4442 1132.3379)" style="fill:#6397FF;" cx="1259.631" cy="825.026" rx="16.949" ry="16.949"/>
</g>
<g>
	<path style="fill:#404040;" d="M1338.783,800.587h-8.061c-1.339-19.575-17.693-35.083-37.609-35.083
		c-19.907,0-36.261,15.509-37.599,35.083c-0.061,0.866-0.091,1.731-0.091,2.607c0,7.095,1.983,14.009,5.726,19.987
		c1.178,1.882,0.614,4.368-1.278,5.545c-0.664,0.423-1.399,0.614-2.134,0.614c-1.339,0-2.647-0.664-3.412-1.882
		c-4.549-7.266-6.954-15.65-6.954-24.264c0-0.876,0.02-1.741,0.081-2.607c1.349-24.013,21.316-43.134,45.66-43.134
		c21.316,0,39.27,14.653,44.332,34.409C1338.159,794.67,1338.622,797.598,1338.783,800.587z"/>
</g>
<g>
	<path style="fill:#404040;" d="M2033.867,1312.847h-35.406v-39.25h35.406c9.348,0,16.927,7.578,16.927,16.927v5.396
		C2050.794,1305.268,2043.215,1312.847,2033.867,1312.847z"/>
</g>
<g>
	<g>
		<path style="fill:#FFFFFF;" d="M1977.562,1310.315c3.217,0,3.223-5,0-5C1974.345,1305.315,1974.339,1310.315,1977.562,1310.315
			L1977.562,1310.315z"/>
	</g>
</g>
<g>
	<g>
		<path style="fill:#FFFFFF;" d="M1977.562,696.516c3.217,0,3.223-5,0-5C1974.345,691.516,1974.339,696.516,1977.562,696.516
			L1977.562,696.516z"/>
	</g>
</g>
<g>
	<path style="fill:#FFFFFF;" d="M956.957,957.851l23.512,30.135c1.542,1.977,1.19,4.829-0.787,6.371l-30.135,23.512
		c-1.977,1.542-4.829,1.19-6.372-0.787l-23.512-30.135c-1.542-1.977-1.19-4.829,0.787-6.371l30.135-23.512
		C952.562,955.522,955.415,955.875,956.957,957.851z"/>
</g>
<g>
	<path style="fill:#FFFFFF;" d="M1457.089,220.683l23.512,30.135c1.542,1.977,1.19,4.829-0.787,6.371l-30.135,23.512
		c-1.977,1.542-4.829,1.19-6.371-0.787l-23.512-30.135c-1.542-1.977-1.19-4.829,0.787-6.371l30.135-23.512
		C1452.694,218.354,1455.547,218.706,1457.089,220.683z"/>
</g>
<g>
	<path style="fill:#9FC4FF;" d="M503.631,1200.365c-0.525,0-1.054-0.069-1.575-0.208c-1.561-0.419-2.865-1.419-3.673-2.819
		l-12.412-21.498c-0.808-1.4-1.023-3.029-0.604-4.59c0.418-1.561,1.419-2.866,2.818-3.673l21.498-12.412
		c2.889-1.669,6.596-0.673,8.263,2.214l12.725,22.039l-1.986,7.409l-22.039,12.724
		C505.714,1200.09,504.679,1200.365,503.631,1200.365z M512.702,1157.375c-0.514,0-1.034,0.131-1.51,0.405l-21.498,12.412
		c-0.701,0.405-1.202,1.057-1.412,1.84c-0.209,0.781-0.102,1.598,0.303,2.299l12.412,21.498c0.405,0.701,1.058,1.202,1.84,1.411
		c0.782,0.208,1.598,0.101,2.299-0.303l20.956-12.098l1.338-4.994l-12.099-20.955
		C514.771,1157.918,513.75,1157.375,512.702,1157.375z"/>
</g>
<g>
	<path style="fill:#FFFFFF;" d="M877.327,602.829c0,4.169-3.38,7.548-7.548,7.548s-7.548-3.379-7.548-7.548
		c0-4.169,3.379-7.548,7.548-7.548S877.327,598.66,877.327,602.829z"/>
</g>
<g>
	
		<ellipse transform="matrix(0.3322 -0.9432 0.9432 0.3322 -217.8659 1578.2732)" style="fill:#FFFFFF;" cx="1005.643" cy="942.993" rx="7.548" ry="7.548"/>
</g>
<g>
	<path style="fill:#DEEDFF;" d="M559.303,1133.204c0,1.945-1.577,3.522-3.523,3.522c-1.945,0-3.522-1.577-3.522-3.522
		c0-1.945,1.577-3.523,3.522-3.523C557.726,1129.681,559.303,1131.258,559.303,1133.204z"/>
</g>
<g>
	<path style="fill:#FFFFFF;" d="M1817.308,596.791c0,1.945-1.577,3.522-3.522,3.522s-3.522-1.577-3.522-3.522
		c0-1.945,1.577-3.522,3.522-3.522S1817.308,594.845,1817.308,596.791z"/>
</g>
<g>
	<path style="fill:#FFFFFF;" d="M904.5,558.547c0,1.945-1.577,3.522-3.523,3.522c-1.945,0-3.522-1.577-3.522-3.522
		c0-1.945,1.577-3.522,3.522-3.522C902.923,555.025,904.5,556.602,904.5,558.547z"/>
</g>
<g>
	
		<ellipse transform="matrix(0.2276 -0.9737 0.9737 0.2276 377.3898 1129.9404)" style="fill:#6397FF;" cx="900.977" cy="327.074" rx="21.638" ry="21.638"/>
</g>
<g>
	
		<ellipse transform="matrix(0.2298 -0.9732 0.9732 0.2298 856.1318 2057.9663)" style="fill:#F78771;" cx="1728.241" cy="488.099" rx="21.638" ry="21.638"/>
</g>
<g>
	
		<ellipse transform="matrix(0.2289 -0.9734 0.9734 0.2289 393.6319 1247.1199)" style="fill:#F78771;" cx="984.02" cy="375.093" rx="8.554" ry="8.554"/>
</g>
<g>
	<path style="fill:#9FC4FF;" d="M923.343,419.878c-5.549,0-10.064-4.514-10.064-10.064s4.515-10.064,10.064-10.064
		c5.549,0,10.064,4.515,10.064,10.064S928.892,419.878,923.343,419.878z M923.343,402.769c-3.884,0-7.045,3.16-7.045,7.045
		s3.161,7.045,7.045,7.045c3.884,0,7.045-3.16,7.045-7.045S927.227,402.769,923.343,402.769z"/>
</g>
<g>
	<path style="fill:#9FC4FF;" d="M1760.949,406.669c-7.027-12.996-7.536-29.092-0.227-42.89l0.091-0.172
		c5.405-10.203,14.941-17.602,26.166-20.303c11.224-2.7,23.083-0.448,32.536,6.18l1.655,1.16
		c18.432,12.924,23.884,38.218,12.413,57.586l-0.07,0.107c-2.914,4.091-13.883,17.582-32.689,19.417
		c-11.206,1.094-20.276-2.375-25.91-5.477l-0.139-0.086C1768.855,418.04,1764.202,412.686,1760.949,406.669z M1831.652,366.845
		c-2.88-5.326-6.985-10.062-12.216-13.73l-1.655-1.16c-8.744-6.131-19.714-8.214-30.096-5.717
		c-10.383,2.498-19.205,9.343-24.204,18.78l-0.091,0.172c-9.969,18.821-4.356,42.227,13.05,54.48
		c5.267,2.887,13.7,6.092,24.09,5.078c17.458-1.704,27.704-14.224,30.486-18.113C1838.4,394.125,1838.203,378.961,1831.652,366.845z
		"/>
</g>
<g>
	<path style="fill:#FFFFFF;" d="M1632.62,283.15c0.961,20.863,3.696,42.003,8.875,62.966
		c18.501,74.866,68.347,134.088,130.087,154.581c45.287,15.031,99.529,11.159,161.224-11.513c1.318-0.484,2.621-0.971,3.925-1.459
		l1.846,2.526c-1.566,0.595-3.137,1.181-4.73,1.768c-62.345,22.909-117.267,26.794-163.223,11.541
		c-32.056-10.641-61.469-31.692-85.064-60.9c-8.97-11.11-17-23.209-23.95-36.064c-10.057-18.6-17.858-38.762-23.042-59.756
		c-5.307-21.454-8.067-43.084-8.989-64.403L1632.62,283.15z"/>
</g>
<g>
	<path style="fill:#404040;" d="M2157,1348.564H354.47c-0.829,0-1.5-0.672-1.5-1.5s0.671-1.5,1.5-1.5H2157
		c0.828,0,1.5,0.672,1.5,1.5S2157.828,1348.564,2157,1348.564z"/>
</g>
</svg>
