<?xml version="1.0" encoding="utf-8"?>
<!-- Generator: Adobe Illustrator 27.5.0, SVG Export Plug-In . SVG Version: 6.00 Build 0)  -->
<svg version="1.1" id="Layer_1" xmlns="http://www.w3.org/2000/svg" xmlns:xlink="http://www.w3.org/1999/xlink" x="0px" y="0px"
	 viewBox="0 0 5000 5000" style="enable-background:new 0 0 5000 5000;" xml:space="preserve">
<g id="SEO_Performance">
	<g>
		<g>
			<g>
				<g>
					<g>
						<path style="fill:#F5F7FF;" d="M3089.571,1118.417l-65.095-16.979c-7.665-34.171-21.184-66-39.281-94.636l34.171-58.335
							c2.555-4.205,1.863-9.581-1.65-13.04l-52.8-52.8c-3.46-3.459-8.836-4.151-13.254-1.863l-58.335,34.437
							c-28.635-18.363-60.252-31.616-94.423-39.334l-17.192-65.308c-1.171-4.897-5.589-8.143-10.485-8.143h-74.41
							c-5.11,0-9.314,3.247-10.698,8.143l-16.979,65.308c-34.171,7.718-66.053,20.971-94.636,39.334l-58.389-34.437
							c-4.152-2.289-9.528-1.597-12.987,1.863l-52.8,52.8c-3.513,3.46-4.205,8.835-1.65,13.04l34.225,58.335
							c-18.15,28.636-31.669,60.465-39.334,94.636l-65.362,16.979c-4.844,1.171-8.09,5.589-8.09,10.485v74.623
							c0,4.897,3.247,9.315,8.09,10.485l65.362,17.192c7.665,33.958,21.184,65.84,39.334,94.423l-34.225,58.389
							c-2.555,4.152-1.863,9.74,1.65,13.253l52.8,52.8c3.459,3.46,8.835,4.151,12.987,1.597l58.389-34.437
							c28.582,18.416,60.464,31.883,94.636,39.334l16.979,65.362c1.384,4.844,5.589,8.09,10.698,8.09h74.41
							c4.897,0,9.314-3.247,10.485-8.09l17.192-65.362c34.171-7.451,65.787-20.918,94.423-39.334l58.335,34.437
							c4.418,2.555,9.794,1.863,13.254-1.597l52.8-52.8c3.513-3.513,4.205-9.101,1.65-13.253l-34.171-58.389
							c18.097-28.582,31.616-60.464,39.281-94.423l65.095-17.192c4.897-1.171,8.41-5.589,8.41-10.485v-74.623
							C3097.981,1124.005,3094.468,1119.588,3089.571,1118.417z M2734.022,1303.323c-75.794,0-137.216-61.423-137.216-137.003
							c0-75.794,61.423-137.163,137.216-137.163s137.216,61.37,137.216,137.163
							C2871.239,1241.901,2809.816,1303.323,2734.022,1303.323z"/>
					</g>
					<linearGradient id="SVGID_1_" gradientUnits="userSpaceOnUse" x1="2553.7991" y1="1166.2135" x2="2914.2451" y2="1166.2135">
						<stop  offset="0" style="stop-color:#E7ECFF"/>
						<stop  offset="1" style="stop-color:#C2D5FF"/>
					</linearGradient>
					<path style="fill:url(#SVGID_1_);" d="M2734.022,985.991c-99.532,0-180.223,80.69-180.223,180.223
						s80.691,180.223,180.223,180.223c99.479,0,180.223-80.69,180.223-180.223S2833.501,985.991,2734.022,985.991z
						 M2734.022,1303.323c-75.794,0-137.216-61.423-137.216-137.003c0-75.794,61.423-137.163,137.216-137.163
						s137.216,61.37,137.216,137.163C2871.239,1241.901,2809.816,1303.323,2734.022,1303.323z"/>
				</g>
				<g>
					<g>
						<path style="fill:#F5F7FF;" d="M2459.083,799.07l-51.276-13.375c-6.038-26.917-16.687-51.99-30.942-74.546l26.917-45.952
							c2.012-3.312,1.467-7.547-1.3-10.272l-41.592-41.592c-2.725-2.725-6.96-3.27-10.44-1.467l-45.952,27.127
							c-22.557-14.465-47.461-24.904-74.378-30.984l-13.543-51.444c-0.922-3.857-4.402-6.415-8.26-6.415h-58.614
							c-4.025,0-7.337,2.557-8.427,6.415l-13.375,51.444c-26.917,6.08-52.031,16.519-74.546,30.984l-45.994-27.127
							c-3.27-1.803-7.505-1.258-10.23,1.467l-41.591,41.592c-2.767,2.725-3.312,6.96-1.3,10.272l26.959,45.952
							c-14.297,22.557-24.947,47.629-30.984,74.546l-51.486,13.375c-3.815,0.922-6.373,4.402-6.373,8.259v58.782
							c0,3.857,2.557,7.337,6.373,8.259l51.486,13.543c6.037,26.749,16.687,51.864,30.984,74.378l-26.959,45.994
							c-2.012,3.27-1.467,7.673,1.3,10.44l41.591,41.592c2.725,2.725,6.96,3.27,10.23,1.258l45.994-27.127
							c22.515,14.507,47.629,25.114,74.546,30.984l13.375,51.486c1.09,3.815,4.402,6.373,8.427,6.373h58.614
							c3.857,0,7.337-2.557,8.26-6.373l13.543-51.486c26.917-5.87,51.822-16.477,74.378-30.984l45.952,27.127
							c3.48,2.012,7.715,1.467,10.44-1.258l41.592-41.592c2.767-2.767,3.312-7.169,1.3-10.44l-26.917-45.994
							c14.255-22.515,24.905-47.629,30.942-74.378l51.276-13.543c3.857-0.922,6.625-4.402,6.625-8.259V807.33
							C2465.707,803.472,2462.94,799.992,2459.083,799.07z M2179.011,944.724c-59.704,0-108.088-48.384-108.088-107.92
							c0-59.704,48.384-108.046,108.088-108.046c59.704,0,108.087,48.342,108.087,108.046
							C2287.098,896.34,2238.715,944.724,2179.011,944.724z"/>
					</g>
					
						<linearGradient id="SVGID_00000031173002356481654550000013992870205269411479_" gradientUnits="userSpaceOnUse" x1="2037.0464" y1="836.7203" x2="2320.9756" y2="836.7203">
						<stop  offset="0" style="stop-color:#E7ECFF"/>
						<stop  offset="1" style="stop-color:#C2D5FF"/>
					</linearGradient>
					<path style="fill:url(#SVGID_00000031173002356481654550000013992870205269411479_);" d="M2179.011,694.756
						c-78.403,0-141.965,63.561-141.965,141.964c0,78.403,63.561,141.965,141.965,141.965c78.362,0,141.965-63.561,141.965-141.965
						C2320.976,758.317,2257.373,694.756,2179.011,694.756z M2179.011,944.724c-59.704,0-108.088-48.384-108.088-107.92
						c0-59.704,48.384-108.046,108.088-108.046c59.704,0,108.087,48.342,108.087,108.046
						C2287.098,896.34,2238.715,944.724,2179.011,944.724z"/>
				</g>
				<g>
					<path style="fill:#F5F7FF;" d="M1215.852,4411.813c0,21.038-193.802,38.037-432.908,38.037
						c-239.107,0-432.944-16.999-432.944-38.037c0-20.954,193.836-37.953,432.944-37.953
						C1022.05,4373.861,1215.852,4390.86,1215.852,4411.813z"/>
				</g>
				<g>
					<g>
						<g>
							<path style="fill:#DBE5FF;" d="M3522.279,1005.874l-8.042-0.551c1.294-18.762,0.681-37.422-1.821-55.464l7.978-1.109
								C3522.975,967.343,3523.609,986.561,3522.279,1005.874z"/>
						</g>
						<g>
							<path style="fill:#DBE5FF;" d="M2575.796,3272.492c-31.505-20.568-64.957-38.807-99.432-54.205l3.289-7.357
								c34.861,15.572,68.69,34.015,100.549,54.819L2575.796,3272.492z M1589.326,3236.278l-8.321-0.043l0.079-8.057l8.246,0.043
								c13.671,0,27.492-0.338,41.081-1.007c20.595-1.011,41.505-2.738,63.926-5.283l0.905,8.006
								c-22.59,2.565-43.669,4.304-64.438,5.327C1617.085,3235.936,1603.131,3236.278,1589.326,3236.278z M1466.902,3227.568
								c-37.347-5.291-75.044-13.085-112.053-23.156l2.116-7.774c36.682,9.985,74.053,17.708,111.07,22.952L1466.902,3227.568z
								 M1808.18,3212.653l-1.456-7.923c27.795-5.107,56.023-10.737,83.318-16.181l28.523-5.673l1.562,7.908l-28.507,5.665
								C1864.293,3201.901,1836.038,3207.535,1808.18,3212.653z M2369.633,3180.428c-36.631-9.8-74.104-16.626-111.376-20.289
								l0.787-8.018c37.709,3.706,75.619,10.611,112.675,20.525L2369.633,3180.428z M2032.136,3170.514l-1.235-7.963
								c41.738-6.46,78.919-10.532,113.666-12.444l0.441,8.042C2110.529,3160.053,2073.607,3164.098,2032.136,3170.514z
								 M1246.455,3167.792c-35.065-14.21-69.843-30.706-103.367-49.024l3.863-7.074c33.252,18.172,67.75,34.534,102.532,48.63
								L1246.455,3167.792z M1045.962,3058.327c-31.112-21.874-61.31-45.742-89.746-70.941l5.343-6.027
								c28.212,24.998,58.171,48.674,89.038,70.375L1045.962,3058.327z M875.026,2906.791c-25.544-28.428-49.563-58.509-71.382-89.4
								l6.578-4.65c21.642,30.635,45.459,60.468,70.799,88.668L875.026,2906.791z M743.14,2720.307
								c-18.125-33.071-34.755-67.77-49.425-103.142l7.443-3.084c14.557,35.101,31.06,69.541,49.047,102.355L743.14,2720.307z
								 M655.479,2509.385c-10.78-36.21-19.895-73.589-27.099-111.101l7.916-1.519c7.148,37.249,16.201,74.368,26.902,110.322
								L655.479,2509.385z M612.302,2285.074c-3.446-37.001-5.197-74.698-5.197-112.049l0.004-2.168h8.057l-0.004,2.191
								c0,37.08,1.739,74.525,5.165,111.278L612.302,2285.074z M620.697,2057.419l-8.018-0.771
								c3.631-37.859,9.108-75.933,16.276-113.174l7.915,1.526C629.75,1981.989,624.309,2019.812,620.697,2057.419z
								 M663.639,1834.623l-7.734-2.266c10.622-36.214,23.109-72.593,37.111-108.119l7.499,2.954
								C686.599,1762.494,674.19,1798.641,663.639,1834.623z M746.752,1623.421l-7.215-3.596
								c16.826-33.771,35.407-67.44,55.228-100.078l6.885,4.186C781.947,1556.375,763.476,1589.851,746.752,1623.421z
								 M2700.887,1487.342c-37.914-0.063-76.339-1.896-114.205-5.449l0.755-8.026c37.618,3.533,75.796,5.354,113.465,5.417
								L2700.887,1487.342z M2815.111,1482.216l-0.74-8.026c37.748-3.466,75.587-8.773,112.466-15.772l1.503,7.915
								C2891.21,1473.379,2853.115,1478.722,2815.111,1482.216z M2473.46,1466.046c-37.41-6.987-74.86-15.776-111.31-26.115
								l2.195-7.75c36.218,10.272,73.424,19.002,110.594,25.942L2473.46,1466.046z M3039.501,1439.51l-2.274-7.727
								c36.383-10.721,72.424-23.373,107.12-37.603l3.061,7.451C3112.456,1415.968,3076.152,1428.715,3039.501,1439.51z
								 M864.521,1429.254l-6.531-4.721c22.142-30.612,45.88-60.862,70.559-89.912l6.137,5.217
								C910.146,1368.73,886.537,1398.815,864.521,1429.254z M2253.717,1403.67c-35.577-13.777-70.748-29.357-104.539-46.313
								l3.612-7.2c33.563,16.838,68.498,32.315,103.839,45.998L2253.717,1403.67z M3250.786,1352.695l-3.832-7.089
								c36.179-19.569,67.51-39.365,95.785-60.527l4.831,6.452C3318.973,1312.928,3287.314,1332.933,3250.786,1352.695z
								 M2049.612,1301.13c-32.339-20.442-63.777-42.627-93.437-65.941l4.981-6.334c29.443,23.145,60.653,45.168,92.76,65.461
								L2049.612,1301.13z M1011.526,1256.068l-5.728-5.665c26.642-26.922,54.693-53.218,83.373-78.16l5.287,6.082
								C1065.927,1203.133,1038.026,1229.292,1011.526,1256.068z M3431.828,1213.775l-6.114-5.248
								c3.316-3.859,6.57-7.774,9.761-11.751c20.643-25.753,37.748-53.666,50.841-82.952l7.357,3.289
								c-13.372,29.911-30.84,58.411-51.911,84.703C3438.516,1205.868,3435.2,1209.853,3431.828,1213.775z M1870.1,1159.928
								c-11.551-11.169-23.019-22.586-34.51-34.031c-15.245-15.174-31.005-30.864-46.825-45.809l5.531-5.854
								c15.898,15.017,31.698,30.745,46.978,45.955c11.464,11.413,22.905,22.802,34.428,33.948L1870.1,1159.928z M1182.949,1106.97
								l-4.823-6.46c13.305-9.934,26.933-19.765,40.494-29.227c18.148-12.664,36.308-24.51,53.977-35.211l4.17,6.893
								c-17.519,10.61-35.53,22.362-53.536,34.928C1209.737,1087.303,1196.184,1097.084,1182.949,1106.97z M1700.903,1008.828
								c-26.634-17.255-52.604-29.715-79.396-38.091c-7.62-2.38-15.485-4.473-23.377-6.216l1.739-7.868
								c8.116,1.794,16.205,3.946,24.046,6.397c27.496,8.592,54.111,21.355,81.37,39.019L1700.903,1008.828z M1377.703,991.554
								l-3.037-7.463c38.091-15.497,75.253-25.883,110.452-30.872l1.133,7.979C1451.704,966.092,1415.183,976.305,1377.703,991.554z
								"/>
						</g>
						<g>
							<path style="fill:#DBE5FF;" d="M2705.663,3382.027c-12.589-13.636-25.95-26.949-39.712-39.57l5.445-5.941
								c13.927,12.774,27.445,26.249,40.184,40.042L2705.663,3382.027z"/>
						</g>
					</g>
					<g>
						<g>
							
								<linearGradient id="SVGID_00000155139669679826747680000000216204129261899920_" gradientUnits="userSpaceOnUse" x1="-864.4818" y1="370.1456" x2="-769.4624" y2="370.1456" gradientTransform="matrix(0.9458 -0.3249 0.3249 0.9458 4200.9434 254.7438)">
								<stop  offset="0" style="stop-color:#E7ECFF"/>
								<stop  offset="1" style="stop-color:#C2D5FF"/>
							</linearGradient>
							<path style="fill:url(#SVGID_00000155139669679826747680000000216204129261899920_);" d="M3599.011,871.068
								c0.397,0.821,0.154,1.785-0.586,2.307l-77.855,54.726c-0.113,0.116-0.284,0.174-0.456,0.233
								c-0.582,0.2-1.236,0.081-1.72-0.328c-0.634-0.509-0.825-1.401-0.5-2.124l50.364-110.128c0.315-0.644,0.941-1.05,1.627-1.057
								c0.687-0.006,1.354,0.377,1.646,1.003L3599.011,871.068z"/>
						</g>
						<g>
							
								<linearGradient id="SVGID_00000104696931397368179540000004630939084639421861_" gradientUnits="userSpaceOnUse" x1="-852.6693" y1="341.2983" x2="-433.9138" y2="341.2983" gradientTransform="matrix(0.9458 -0.3249 0.3249 0.9458 4200.9434 254.7438)">
								<stop  offset="0" style="stop-color:#E7ECFF"/>
								<stop  offset="1" style="stop-color:#C2D5FF"/>
							</linearGradient>
							<path style="fill:url(#SVGID_00000104696931397368179540000004630939084639421861_);" d="M3871.359,631.133
								c0.406,0.626,0.379,1.439-0.062,2.05l-234.127,316.99c-0.238,0.311-0.545,0.532-0.887,0.65
								c-0.205,0.071-0.457,0.119-0.732,0.098c-0.63-0.052-1.183-0.436-1.451-0.994l-85.447-172.186l-85.24-46.78
								c-0.656-0.349-1.017-1.067-0.933-1.824c0.131-0.734,0.618-1.322,1.395-1.513l405.53-97.276
								C3870.148,630.171,3870.941,630.473,3871.359,631.133z"/>
						</g>
						<g>
							<path style="fill:#C2D5FF;" d="M3777.1,677.331c0.477,0.831,0.212,1.841-0.562,2.375l-205.194,138.012l-50.14,109.667
								c-0.225,0.46-0.611,0.784-1.091,0.948c-0.343,0.118-0.754,0.145-1.145,0.011c-0.861-0.279-1.396-1.166-1.209-2.073
								l30.512-150.2c0.109-0.573,0.517-1.058,1.041-1.315l225.49-98.206C3775.704,676.165,3776.669,676.522,3777.1,677.331z"/>
						</g>
					</g>
				</g>
				<g>
					<g>
						<g>
							<path style="fill:#F5F7FF;" d="M2873.091,3360.973l-65.095-16.979c-7.665-34.171-21.184-66-39.281-94.636l34.171-58.335
								c2.555-4.205,1.863-9.581-1.65-13.04l-52.8-52.8c-3.46-3.459-8.836-4.151-13.254-1.863l-58.335,34.437
								c-28.636-18.363-60.252-31.616-94.423-39.334l-17.192-65.308c-1.171-4.897-5.589-8.144-10.485-8.144h-74.41
								c-5.11,0-9.314,3.247-10.698,8.144l-16.979,65.308c-34.171,7.718-66.054,20.971-94.636,39.334l-58.389-34.437
								c-4.152-2.289-9.528-1.597-12.987,1.863l-52.8,52.8c-3.513,3.459-4.205,8.835-1.65,13.04l34.225,58.335
								c-18.15,28.636-31.67,60.465-39.334,94.636l-65.362,16.979c-4.843,1.171-8.09,5.589-8.09,10.485v74.623
								c0,4.896,3.247,9.314,8.09,10.485l65.362,17.192c7.665,33.958,21.184,65.84,39.334,94.423l-34.225,58.389
								c-2.555,4.152-1.863,9.74,1.65,13.253l52.8,52.8c3.46,3.459,8.835,4.152,12.987,1.597l58.389-34.437
								c28.582,18.416,60.464,31.883,94.636,39.334l16.979,65.362c1.384,4.844,5.589,8.09,10.698,8.09h74.41
								c4.897,0,9.314-3.247,10.485-8.09l17.192-65.362c34.171-7.451,65.787-20.918,94.423-39.334l58.335,34.437
								c4.418,2.555,9.794,1.863,13.254-1.597l52.8-52.8c3.513-3.513,4.205-9.101,1.65-13.253l-34.171-58.389
								c18.097-28.582,31.616-60.465,39.281-94.423l65.095-17.192c4.897-1.171,8.41-5.589,8.41-10.485v-74.623
								C2881.501,3366.561,2877.988,3362.143,2873.091,3360.973z M2517.542,3545.879c-75.794,0-137.217-61.423-137.217-137.003
								c0-75.794,61.423-137.163,137.217-137.163s137.216,61.37,137.216,137.163
								C2654.758,3484.456,2593.336,3545.879,2517.542,3545.879z"/>
						</g>
						
							<linearGradient id="SVGID_00000065792816518394801860000007734420701598028726_" gradientUnits="userSpaceOnUse" x1="2337.3191" y1="3408.7693" x2="2697.7649" y2="3408.7693">
							<stop  offset="0" style="stop-color:#E7ECFF"/>
							<stop  offset="1" style="stop-color:#C2D5FF"/>
						</linearGradient>
						<path style="fill:url(#SVGID_00000065792816518394801860000007734420701598028726_);" d="M2517.542,3228.546
							c-99.532,0-180.223,80.69-180.223,180.223s80.691,180.223,180.223,180.223c99.479,0,180.223-80.69,180.223-180.223
							S2617.021,3228.546,2517.542,3228.546z M2517.542,3545.879c-75.794,0-137.217-61.423-137.217-137.003
							c0-75.794,61.423-137.163,137.217-137.163s137.216,61.37,137.216,137.163
							C2654.758,3484.456,2593.336,3545.879,2517.542,3545.879z"/>
					</g>
					<g>
						<g>
							<path style="fill:#F5F7FF;" d="M2242.603,3041.626l-51.277-13.375c-6.037-26.917-16.687-51.99-30.942-74.546l26.917-45.952
								c2.012-3.313,1.467-7.547-1.3-10.272l-41.592-41.592c-2.725-2.725-6.96-3.27-10.44-1.467l-45.952,27.127
								c-22.557-14.465-47.461-24.905-74.378-30.984l-13.543-51.444c-0.922-3.857-4.402-6.415-8.26-6.415h-58.614
								c-4.025,0-7.337,2.557-8.427,6.415l-13.375,51.444c-26.917,6.079-52.031,16.519-74.546,30.984l-45.994-27.127
								c-3.271-1.803-7.505-1.258-10.23,1.467l-41.591,41.592c-2.767,2.725-3.312,6.96-1.3,10.272l26.959,45.952
								c-14.297,22.557-24.947,47.629-30.984,74.546l-51.486,13.375c-3.815,0.922-6.373,4.402-6.373,8.259v58.782
								c0,3.857,2.557,7.337,6.373,8.26l51.486,13.542c6.037,26.75,16.687,51.864,30.984,74.378l-26.959,45.994
								c-2.012,3.27-1.467,7.673,1.3,10.44l41.591,41.592c2.725,2.725,6.96,3.27,10.23,1.258l45.994-27.127
								c22.515,14.507,47.629,25.115,74.546,30.984l13.375,51.487c1.09,3.815,4.402,6.373,8.427,6.373h58.614
								c3.857,0,7.337-2.557,8.26-6.373l13.543-51.487c26.917-5.869,51.822-16.477,74.378-30.984l45.952,27.127
								c3.48,2.012,7.715,1.467,10.44-1.258l41.592-41.592c2.767-2.767,3.312-7.169,1.3-10.44l-26.917-45.994
								c14.255-22.515,24.905-47.629,30.942-74.378l51.277-13.542c3.857-0.922,6.625-4.402,6.625-8.26v-58.782
								C2249.227,3046.028,2246.46,3042.548,2242.603,3041.626z M1962.531,3187.28c-59.704,0-108.088-48.384-108.088-107.92
								c0-59.704,48.384-108.046,108.088-108.046s108.087,48.342,108.087,108.046
								C2070.618,3138.896,2022.235,3187.28,1962.531,3187.28z"/>
						</g>
						
							<linearGradient id="SVGID_00000111902125609302277530000018177171539761171629_" gradientUnits="userSpaceOnUse" x1="1820.5663" y1="3079.2761" x2="2104.4956" y2="3079.2761">
							<stop  offset="0" style="stop-color:#E7ECFF"/>
							<stop  offset="1" style="stop-color:#C2D5FF"/>
						</linearGradient>
						<path style="fill:url(#SVGID_00000111902125609302277530000018177171539761171629_);" d="M1962.531,2937.312
							c-78.403,0-141.965,63.561-141.965,141.964s63.561,141.964,141.965,141.964c78.361,0,141.965-63.561,141.965-141.964
							S2040.892,2937.312,1962.531,2937.312z M1962.531,3187.28c-59.704,0-108.088-48.384-108.088-107.92
							c0-59.704,48.384-108.046,108.088-108.046s108.087,48.342,108.087,108.046
							C2070.618,3138.896,2022.235,3187.28,1962.531,3187.28z"/>
					</g>
				</g>
				<g>
					<g>
						<g>
							<g>
								<path style="fill:#B7BCFF;" d="M3558.398,1469.312c-2.227,0-4.029-1.802-4.029-4.029v-114.658
									c0-99.464-80.922-180.382-180.386-180.382h-118.859c-2.227,0-4.029-1.802-4.029-4.029c0-2.227,1.802-4.029,4.029-4.029
									h118.859c103.909,0,188.443,84.534,188.443,188.439v114.658C3562.427,1467.51,3560.625,1469.312,3558.398,1469.312z"/>
							</g>
							<g>
								<path style="fill:#B7BCFF;" d="M3371.883,3034.156H3257.23c-2.227,0-4.029-1.802-4.029-4.029
									c0-2.227,1.802-4.029,4.029-4.029h114.654c99.464,0,180.386-80.922,180.386-180.386v-118.859
									c0-2.227,1.802-4.029,4.029-4.029s4.029,1.802,4.029,4.029v118.859C3560.326,2949.622,3475.793,3034.156,3371.883,3034.156z
									"/>
							</g>
						</g>
						<g>
							<g>
								<path style="fill:#B7BCFF;" d="M1246.903,1469.312c-2.227,0-4.029-1.802-4.029-4.029v-114.658
									c0-103.905,84.533-188.439,188.443-188.439h118.859c2.227,0,4.029,1.802,4.029,4.029c0,2.227-1.802,4.029-4.029,4.029
									h-118.859c-99.464,0-180.386,80.918-180.386,180.382v114.658C1250.932,1467.51,1249.13,1469.312,1246.903,1469.312z"/>
							</g>
							<g>
								<path style="fill:#B7BCFF;" d="M1548.072,3034.156h-114.654c-103.906,0-188.439-84.534-188.439-188.443v-118.859
									c0-2.227,1.802-4.029,4.029-4.029c2.227,0,4.029,1.802,4.029,4.029v118.859c0,99.464,80.918,180.386,180.382,180.386
									h114.654c2.227,0,4.029,1.802,4.029,4.029C1552.101,3032.354,1550.299,3034.156,1548.072,3034.156z"/>
							</g>
						</g>
						
							<linearGradient id="SVGID_00000042003541511071675710000015973119178990125954_" gradientUnits="userSpaceOnUse" x1="2397.2397" y1="2587.4197" x2="2410.6687" y2="1373.4692">
							<stop  offset="0" style="stop-color:#E7ECFF"/>
							<stop  offset="1" style="stop-color:#C2D5FF"/>
						</linearGradient>
						<path style="fill:url(#SVGID_00000042003541511071675710000015973119178990125954_);" d="M3464.289,1350.623v1495.094
							c0,49.872-40.429,90.301-90.301,90.301H1431.316c-49.872,0-90.301-40.429-90.301-90.301V1350.623
							c0-49.872,40.429-90.301,90.301-90.301h1942.672C3423.86,1260.323,3464.289,1300.752,3464.289,1350.623z"/>
						
							<linearGradient id="SVGID_00000043431403961729753050000005630157712349093311_" gradientUnits="userSpaceOnUse" x1="2404.1201" y1="1208.9927" x2="2401.2319" y2="1705.7959">
							<stop  offset="1.100000e-07" style="stop-color:#B3B3FF"/>
							<stop  offset="1" style="stop-color:#8F8FEA"/>
						</linearGradient>
						<path style="fill:url(#SVGID_00000043431403961729753050000005630157712349093311_);" d="M3464.307,1350.611v215.821h-1484.61
							c-15.683,0-30.352-7.757-39.181-20.719l-57.886-84.984c-8.829-12.962-23.497-20.719-39.181-20.719h-203.332
							c-15.683,0-30.352,7.757-39.181,20.719l-57.886,84.984c-8.829,12.962-23.497,20.719-39.181,20.719h-162.838v-215.818
							c0-49.901,40.453-90.353,90.353-90.353h1942.571C3423.856,1260.262,3464.307,1300.713,3464.307,1350.611z"/>
						
							<linearGradient id="SVGID_00000121273212373022598750000018433275715356389816_" gradientUnits="userSpaceOnUse" x1="2486.114" y1="1415.8595" x2="3365.925" y2="1415.8595">
							<stop  offset="0" style="stop-color:#E7ECFF"/>
							<stop  offset="1" style="stop-color:#C2D5FF"/>
						</linearGradient>
						<path style="fill:url(#SVGID_00000121273212373022598750000018433275715356389816_);" d="M3365.925,1415.859
							L3365.925,1415.859c0,36.816-29.845,66.661-66.661,66.661h-746.489c-36.816,0-66.661-29.845-66.661-66.661v0
							c0-36.816,29.845-66.661,66.661-66.661h746.489C3336.08,1349.198,3365.925,1379.044,3365.925,1415.859z"/>
						<path style="fill:#3D79F3;" d="M3299.265,1349.198h-65.198v133.322h65.198c36.815,0,66.661-29.846,66.661-66.661
							C3365.926,1379.044,3336.08,1349.198,3299.265,1349.198z"/>
						<g>
							<g>
								<path style="fill:#FFFFFF;" d="M3289.478,1435.954c-6.763,0-13.128-2.644-17.924-7.443
									c-4.772-4.768-7.408-11.122-7.42-17.889c-0.012-6.786,2.624-13.164,7.416-17.959c9.883-9.879,25.969-9.886,35.852,0
									c9.883,9.883,9.883,25.966,0,35.848C3302.603,1433.31,3296.237,1435.954,3289.478,1435.954z M3289.478,1393.331
									c-4.646,0-8.99,1.786-12.231,5.028c-3.265,3.269-5.063,7.621-5.055,12.247c0.008,4.619,1.806,8.954,5.059,12.208
									c6.554,6.554,17.901,6.554,24.455,0c6.743-6.743,6.743-17.712,0-24.455
									C3298.464,1395.117,3294.121,1393.331,3289.478,1393.331z"/>
							</g>
							<g>
								<path style="fill:#FFFFFF;" d="M3321.31,1446.446c-1.031,0-2.062-0.393-2.848-1.18l-16.756-16.755
									c-1.574-1.574-1.574-4.123,0-5.697c1.574-1.574,4.123-1.574,5.697,0l16.756,16.756c1.574,1.574,1.574,4.123,0,5.697
									C3323.371,1446.053,3322.34,1446.446,3321.31,1446.446z"/>
							</g>
						</g>
					</g>
					<g>
						
							<linearGradient id="SVGID_00000161602926203386090090000016912983614503796132_" gradientUnits="userSpaceOnUse" x1="4603.3198" y1="1595.3087" x2="5048.1953" y2="1595.3087" gradientTransform="matrix(-1 0 0 1 5696.1597 0)">
							<stop  offset="0" style="stop-color:#E7ECFF"/>
							<stop  offset="1" style="stop-color:#C2D5FF"/>
						</linearGradient>
						<path style="fill:url(#SVGID_00000161602926203386090090000016912983614503796132_);" d="M647.964,1430.745v267.45
							c0,11.18,9.063,20.243,20.243,20.243h350.35l57.574,58.733c6.112,6.235,16.708,1.907,16.708-6.824v-339.603
							c0-11.18-9.063-20.243-20.243-20.243H668.208C657.028,1410.502,647.964,1419.565,647.964,1430.745z"/>
					</g>
				</g>
				<g>
					<g>
						
							<linearGradient id="SVGID_00000023254842040699810330000017964072699855878046_" gradientUnits="userSpaceOnUse" x1="3805.5918" y1="2340.0027" x2="3615.9011" y2="2821.3733" gradientTransform="matrix(0.9967 -0.0814 0.0814 0.9967 -2839.1721 306.0442)">
							<stop  offset="2.200000e-07" style="stop-color:#FFBB83"/>
							<stop  offset="1" style="stop-color:#FF9D45"/>
						</linearGradient>
						<path style="fill:url(#SVGID_00000023254842040699810330000017964072699855878046_);" d="M1306.696,2757.915
							c0,0-272.188,96.435-349.125,53.131c-75.036-42.234-93.432-224.442-94.492-331.205
							c-0.495-49.885-24.642-227.76,26.934-224.618c78.314,4.772,120.291,71.923,112.408,205.392
							c-4.096,69.349-15.706,211.255,33.839,247.529c52.925,38.749,251.969-46.768,251.969-46.768
							C1301.707,2655.888,1321.42,2751.88,1306.696,2757.915z"/>
						<g>
							<path style="fill:#FDCCC5;" d="M1274.331,2680.112c13.314-11.579,49.903-59.652,62.639-43.985
								c5.98,7.355-17.408,38.316-17.408,38.316s79.252-68.887,102.066-6.285c15.501,42.536-13.212,85.037-127.861,74.701
								C1269.981,2725.292,1260.575,2704.944,1274.331,2680.112z"/>
						</g>
						<g>
							<g>
								<polygon style="fill:#FDCCC5;" points="770.441,4270.461 768.677,4367.248 870.567,4358.014 850.032,4251.87 								"/>
								<g>
									
										<linearGradient id="SVGID_00000164503831978848437670000009156977215727168410_" gradientUnits="userSpaceOnUse" x1="2287.1719" y1="4361.8843" x2="2562.7375" y2="4361.8843" gradientTransform="matrix(-1 0 0 1 3300.0051 0)">
										<stop  offset="3.200000e-07" style="stop-color:#FF8888"/>
										<stop  offset="1" style="stop-color:#F24E4E"/>
									</linearGradient>
									<path style="fill:url(#SVGID_00000164503831978848437670000009156977215727168410_);" d="M741.981,4384.899
										c1.893,6.132,4.237,10.912,7.122,13.885c32.458,33.09,82.678,15.958,184.019,22.091
										c62.211,3.696,80.153-19.657,79.703-39.582c-0.36-12.622-7.934-23.982-16.409-26.417
										c-10.729-3.157-11.992,3.515-35.433,0.539c-5.229-0.72-11.541-1.803-19.295-3.605c-0.541-0.09-1.082-0.271-1.533-0.361
										c-2.435-0.629-4.689-1.351-6.762-2.073c-4.328-1.442-8.025-3.154-11.18-5.05c-0.992-0.539-1.984-1.081-2.885-1.712
										c-0.992-0.629-1.894-1.352-2.795-2.073c-3.607-2.615-6.402-5.589-8.836-8.565c-1.713-2.074-3.246-4.237-4.598-6.311
										c-5.861-8.655-10.008-17.042-20.016-21.279c-6.221-2.615-11.721-2.345-16.5-0.181
										c-11.901,4.869-19.745,20.286-25.876,26.868c-8.024,8.477-24.974,16.5-45.17,13.166
										c-20.197-3.247-12.713-35.435-38.229-40.304c-0.451-0.088-0.811-0.18-1.172-0.18
										C736.12,4302.042,733.145,4356.409,741.981,4384.899z"/>
									<path style="fill:#070159;" d="M745.298,4393.182c1.166,2.26,2.441,4.184,3.839,5.609
										c32.437,33.072,82.602,15.951,183.982,22.039c46.653,2.801,68.379-9.607,76.143-24.431
										C924.2,4408.718,836.136,4407.299,745.298,4393.182z"/>
								</g>
							</g>
							
								<linearGradient id="SVGID_00000181082529218440468490000010267721026283706253_" gradientUnits="userSpaceOnUse" x1="2507.6577" y1="3592.3547" x2="2843.7661" y2="3592.3547" gradientTransform="matrix(-1 0 0.063 1 3330.5664 2.000000e-04)">
								<stop  offset="2.200000e-07" style="stop-color:#5C5CA0"/>
								<stop  offset="1" style="stop-color:#434389"/>
							</linearGradient>
							<path style="fill:url(#SVGID_00000181082529218440468490000010267721026283706253_);" d="M756.407,4279.346l-41.982-1386.449
								l291.633,14.224L865.584,4279.346C865.584,4295.969,756.407,4295.969,756.407,4279.346z"/>
						</g>
						<g>
							<g>
								<polygon style="fill:#FDCCC5;" points="566.433,4270.461 564.668,4367.248 666.558,4358.014 646.024,4251.87 								"/>
								<g>
									
										<linearGradient id="SVGID_00000154400104344526190580000000035225256139719055_" gradientUnits="userSpaceOnUse" x1="2491.2068" y1="4361.8843" x2="2766.686" y2="4361.8843" gradientTransform="matrix(-1 0 0 1 3300.0051 0)">
										<stop  offset="3.200000e-07" style="stop-color:#FF8888"/>
										<stop  offset="1" style="stop-color:#F24E4E"/>
									</linearGradient>
									<path style="fill:url(#SVGID_00000154400104344526190580000000035225256139719055_);" d="M538.036,4384.899
										c1.893,6.132,4.237,10.912,7.122,13.885c32.368,33.09,82.588,15.958,183.929,22.091
										c62.212,3.696,80.154-19.657,79.703-39.582c-0.27-12.622-7.934-23.982-16.409-26.417
										c-10.729-3.157-11.992,3.515-35.433,0.539c-5.229-0.72-11.54-1.803-19.295-3.605c-0.36-0.09-0.631-0.181-0.992-0.271
										c-2.434-0.632-4.689-1.261-6.852-1.983c-4.328-1.532-8.025-3.157-11.27-4.959c-1.082-0.63-2.164-1.352-3.155-1.983
										c-0.902-0.542-1.713-1.171-2.525-1.803c-3.516-2.615-6.401-5.501-8.836-8.384c-1.623-1.983-3.155-4.059-4.418-6.04
										c-6.131-8.928-10.279-17.583-20.557-22.001c-6.221-2.615-11.721-2.345-16.499-0.181
										c-11.901,4.869-19.745,20.286-25.877,26.868c-8.024,8.477-24.974,16.5-45.17,13.166
										c-20.197-3.247-12.713-35.435-38.229-40.304c-0.36-0.088-0.811-0.18-1.172-0.18
										C532.176,4302.042,529.2,4356.409,538.036,4384.899z"/>
									<path style="fill:#070159;" d="M541.289,4393.182c1.166,2.26,2.441,4.184,3.839,5.609
										c32.437,33.072,82.602,15.951,183.982,22.039c46.653,2.801,68.379-9.607,76.143-24.431
										C720.191,4408.718,632.127,4407.299,541.289,4393.182z"/>
								</g>
							</g>
							
								<linearGradient id="SVGID_00000126315909789909791830000013177769171384074635_" gradientUnits="userSpaceOnUse" x1="843.1973" y1="3063.1797" x2="285.4077" y2="4198.3779">
								<stop  offset="2.200000e-07" style="stop-color:#5C5CA0"/>
								<stop  offset="1" style="stop-color:#434389"/>
							</linearGradient>
							<path style="fill:url(#SVGID_00000126315909789909791830000013177769171384074635_);" d="M802.077,2907.143L661.564,4279.388
								c0,16.563-109.147,16.563-109.147,0l-41.96-1386.459L802.077,2907.143z"/>
						</g>
						
							<linearGradient id="SVGID_00000127732613341282350340000002731061589260688777_" gradientUnits="userSpaceOnUse" x1="2544.1208" y1="2439.0208" x2="2540.5208" y2="3074.4758" gradientTransform="matrix(-1 0 0 1 3300.0051 0)">
							<stop  offset="2.200000e-07" style="stop-color:#FFBB83"/>
							<stop  offset="1" style="stop-color:#FF9D45"/>
						</linearGradient>
						<path style="fill:url(#SVGID_00000127732613341282350340000002731061589260688777_);" d="M534.951,2281.668
							c32.321-69.627,357.738-65.731,422.563,1.168c30.086,31.048,15.453,437.893,58.051,636.9
							c2.812,10.868-8.137,20.681-19.115,23.029c-129.007,27.597-285.024,17.082-463.879-5.299
							c-12.932-1.618-22.156-13.387-20.682-26.337C511.888,2911.131,472.047,2417.178,534.951,2281.668z"/>
						<g>
							<polygon style="fill:#FDCCC5;" points="710.692,2114.202 710.692,2231.412 767.439,2278.76 830.177,2237.943 
								830.177,2114.202 							"/>
							<path style="fill:#FDCCC5;" d="M891.871,1964.526c-75.537-36.03-143.751-39.129-202.573,0l-4.704,140.245
								c0,0,90.869,98.573,162.695,84.331c71.826-14.242,44.583-204.333,44.583-204.333V1964.526z"/>
							
								<linearGradient id="SVGID_00000153691620012320781680000002879716565411172264_" gradientUnits="userSpaceOnUse" x1="-390.6933" y1="1952.7877" x2="-78.805" y2="1952.7877" gradientTransform="matrix(1 0 0 1 992.4781 0)">
								<stop  offset="0" style="stop-color:#771E24"/>
								<stop  offset="1" style="stop-color:#47090E"/>
							</linearGradient>
							<path style="fill:url(#SVGID_00000153691620012320781680000002879716565411172264_);" d="M705.505,1965.154
								c0,0,49.174,20.182,22.977,42.243c-26.198,22.061-39.671,17.461-31.211,44.12l-71.732-1.824
								c0,0-81.29-205.592,56.885-130.263c0,0,108.343-96.789,204.975-54.82c54.5,23.67,7.311,146.493,7.311,146.493l-2.839-27.769
								C806.188,1938.856,797.688,1977.199,705.505,1965.154z"/>
							<path style="fill:#FDCCC5;" d="M691.17,2041.012c14.872,20.755,16.914,50.798,1.387,61.924
								c-15.528,11.126-43.028-0.676-57.899-21.43c-14.872-20.755-11.359-42.429,4.169-53.556
								C654.353,2016.824,676.299,2020.258,691.17,2041.012z"/>
							<path style="fill:#EC8B73;" d="M830.177,2190.508c0,0-33.364,8.318-85.567-33.816c0,0,11.121,55.791,85.567,53.462V2190.508z
								"/>
							<path style="fill:#EC8B73;" d="M848.173,2090.539c4.717,0,7.745-1.473,8.997-4.385c1.436-3.295-0.561-6.245-1.414-7.502
								c-9.132-13.507-13.655-28.624-13.077-43.707c0.092-2.288-1.695-4.213-3.983-4.302c-2.256-0.035-4.215,1.697-4.296,3.983
								c-0.632,16.467,4.129,32.904,13.79,47.622c-0.248,0-0.523-0.008-0.831-0.022l-22.237-1.098
								c-2.159-0.105-4.231,1.649-4.345,3.937c-0.113,2.286,1.652,4.229,3.935,4.342l22.236,1.098
								C847.368,2090.528,847.779,2090.539,848.173,2090.539z"/>
							<path style="fill:#47090E;" d="M801.463,2041.091c0,3.468,2.838,6.266,6.305,6.266c3.507,0,6.305-2.798,6.305-6.266
								c0-3.507-2.798-6.305-6.305-6.305C804.3,2034.786,801.463,2037.584,801.463,2041.091z"/>
							<path style="fill:#47090E;" d="M866.309,2037.99c0,3.468,2.838,6.266,6.305,6.266c3.507,0,6.305-2.798,6.305-6.266
								c0-3.507-2.798-6.305-6.305-6.305C869.146,2031.686,866.309,2034.483,866.309,2037.99z"/>
							
								<linearGradient id="SVGID_00000089566598283277958340000006689150910725001898_" gradientUnits="userSpaceOnUse" x1="4885.291" y1="2016.7537" x2="4928.5728" y2="2016.7537" gradientTransform="matrix(-1 0 0 1 5710.2046 0)">
								<stop  offset="0" style="stop-color:#771E24"/>
								<stop  offset="1" style="stop-color:#47090E"/>
							</linearGradient>
							<path style="fill:url(#SVGID_00000089566598283277958340000006689150910725001898_);" d="M788.652,2013.381
								c-1.944,0.619-3.936,1.35-5.379,2.793c-1.443,1.443-2.175,3.792-1.188,5.578c0.641,1.159,1.886,1.885,3.173,2.2
								c1.287,0.314,2.63,0.269,3.954,0.222c3.528-0.126,7.056-0.252,10.584-0.378c4.15-0.148,8.332-0.3,12.371-1.263
								c4.039-0.963,7.975-2.803,10.781-5.865c1.124-1.226,2.091-2.777,1.954-4.434c-0.188-2.263-2.073-2.699-3.922-2.74
								c-2.653-0.059-5.286-0.242-7.944-0.181c-5.277,0.121-10.542,0.723-15.711,1.796
								C794.396,2011.715,791.501,2012.474,788.652,2013.381z"/>
							
								<linearGradient id="SVGID_00000018198144034526633740000014386272411086276757_" gradientUnits="userSpaceOnUse" x1="4818.8062" y1="2011.9132" x2="4862.0879" y2="2011.9132" gradientTransform="matrix(-1 0 0 1 5710.2046 0)">
								<stop  offset="0" style="stop-color:#771E24"/>
								<stop  offset="1" style="stop-color:#47090E"/>
							</linearGradient>
							<path style="fill:url(#SVGID_00000018198144034526633740000014386272411086276757_);" d="M855.137,2008.54
								c-1.944,0.619-3.937,1.35-5.379,2.793c-1.443,1.443-2.176,3.792-1.188,5.578c0.641,1.159,1.886,1.885,3.172,2.2
								c1.287,0.314,2.63,0.269,3.954,0.222c3.528-0.126,7.056-0.252,10.584-0.378c4.15-0.148,8.332-0.3,12.371-1.263
								c4.039-0.963,7.975-2.803,10.781-5.865c1.124-1.226,2.091-2.777,1.954-4.434c-0.188-2.263-2.073-2.699-3.922-2.74
								c-2.653-0.059-5.286-0.242-7.944-0.181c-5.277,0.121-10.543,0.723-15.711,1.796
								C860.881,2006.875,857.986,2007.633,855.137,2008.54z"/>
							<path style="fill:#EC8B73;" d="M849.402,2118.226c-6.549,1.323-22.193,2.951-40.114-6.023c-1.7-0.851-3.595,0.634-3.08,2.464
								c2.238,7.959,8.731,23.116,25.571,21.917c13.481-0.96,18.366-10.357,20.055-15.631
								C852.327,2119.412,850.988,2117.906,849.402,2118.226z"/>
						</g>
					</g>
					<g>
						<path style="fill:#FFFFFF;" d="M767.439,2278.76l57.306,35.442c4.964,3.07,11.372-0.5,11.372-6.338v-69.145l-23.81-3.115
							L767.439,2278.76z"/>
						<path style="fill:#FFFFFF;" d="M767.439,2278.76l-58.548,36.21c-4.681,2.895-10.777-0.109-11.333-5.585l-7.852-77.315
							l20.77-1.033L767.439,2278.76z"/>
					</g>
				</g>
				<g>
					
						<linearGradient id="SVGID_00000149352779881187508600000006413373416396351412_" gradientUnits="userSpaceOnUse" x1="1975.2258" y1="1704.2552" x2="2010.0084" y2="2267.2996">
						<stop  offset="0" style="stop-color:#E7ECFF"/>
						<stop  offset="1" style="stop-color:#C2D5FF"/>
					</linearGradient>
					<path style="fill:url(#SVGID_00000149352779881187508600000006413373416396351412_);" d="M2442.409,1922.927
						c-142.184-241.962-453.265-322.238-695.223-180.056c-241.962,142.184-322.598,452.643-180.414,694.605
						c142.544,242.574,453.006,323.223,694.968,181.039C2503.698,2476.334,2584.953,2165.501,2442.409,1922.927z M1676.305,2373.112
						c-106.18-180.692-46.069-414.162,135.245-520.708c181.315-106.546,415.146-45.804,521.326,134.887
						c106.543,181.311,45.814,415.145-135.501,521.691S1782.849,2554.423,1676.305,2373.112z"/>
					
						<linearGradient id="SVGID_00000057860648685884612570000013842419093483062183_" gradientUnits="userSpaceOnUse" x1="1441.0645" y1="2514.4019" x2="1588.0472" y2="2422.7351">
						<stop  offset="0" style="stop-color:#E7ECFF"/>
						<stop  offset="1" style="stop-color:#C2D5FF"/>
					</linearGradient>
					<path style="fill:url(#SVGID_00000057860648685884612570000013842419093483062183_);" d="M1601.316,2487.273l-110.974,65.211
						l-60.904-103.644l110.974-65.211c6.701,18.594,15.802,36.481,26.264,54.283
						C1577.133,2455.708,1588.33,2472.364,1601.316,2487.273z"/>
					
						<linearGradient id="SVGID_00000116233097871114055310000001542415671008256952_" gradientUnits="userSpaceOnUse" x1="1039.217" y1="2938.7888" x2="912.7802" y2="2543.6741">
						<stop  offset="0" style="stop-color:#E7ECFF"/>
						<stop  offset="1" style="stop-color:#C2D5FF"/>
					</linearGradient>
					<path style="fill:url(#SVGID_00000116233097871114055310000001542415671008256952_);" d="M629.941,3134.65l840.544-498.81
						c28.279-16.617,37.732-53.013,21.115-81.292l-63.354-107.812c-16.617-28.279-53.013-37.732-81.292-21.115l-840.544,498.81
						c-28.279,16.617-37.732,53.013-21.115,81.292l63.354,107.813C565.267,3141.814,601.663,3151.268,629.941,3134.65z"/>
				</g>
				<g>
					<g>
						<path style="fill:#FDCCC5;" d="M914.689,2851.959c20.764-9.88,93.201-25.481,98.127-8.288
							c3.127,10.914-38.329,22.316-38.329,22.316s30.779-0.675,53.879,7.025c36.488,12.163,28.203,131.36-122.072,46.567
							L914.689,2851.959z"/>
					</g>
					
						<linearGradient id="SVGID_00000042717859395388949430000013394293637456272550_" gradientUnits="userSpaceOnUse" x1="3153.7937" y1="2363.9739" x2="2947.2632" y2="2888.0779" gradientTransform="matrix(1 0 0 1 -2333.52 0)">
						<stop  offset="2.200000e-07" style="stop-color:#FFBB83"/>
						<stop  offset="1" style="stop-color:#FF9D45"/>
					</linearGradient>
					<path style="fill:url(#SVGID_00000042717859395388949430000013394293637456272550_);" d="M916.848,2937.13
						c0,0-311.561-17.835-376.776-89.915c-58.791-64.979-53.126-260.034-45.488-366.528c3.569-49.76,6.892-198.443,56.18-213.959
						c54.002-17.058,95.883,89.498,105.226,210.102c5.4,69.259-40.984,212.275-3.723,267.952
						c40.418,60.395,264.581,98.406,264.581,98.406C926.354,2843.184,926.354,2937.126,916.848,2937.13z"/>
				</g>
				<path style="fill:#FDCCC5;" d="M1416.09,2661.141c8.134,14.969-22.31,29.349-58.72,49.134
					c-36.41,19.785-65.038,37.506-73.173,22.536c-8.157-15.011,14.761-43.241,51.171-63.026
					C1371.778,2650,1407.933,2646.13,1416.09,2661.141z"/>
				<g>
					
						<linearGradient id="SVGID_00000181083365790962040740000010318806468603097782_" gradientUnits="userSpaceOnUse" x1="1709.3695" y1="2180.6343" x2="2299.9038" y2="2180.6343">
						<stop  offset="3.200000e-07" style="stop-color:#78A7FF"/>
						<stop  offset="1" style="stop-color:#3D79F3"/>
					</linearGradient>
					<path style="fill:url(#SVGID_00000181083365790962040740000010318806468603097782_);" d="M2299.904,2180.604
						c0,163.12-132.24,295.298-295.298,295.298s-295.236-132.178-295.236-295.298c0-163.058,132.177-295.236,295.236-295.236
						S2299.904,2017.545,2299.904,2180.604z"/>
					<path style="fill:#FFFFFF;" d="M2241.389,2180.61c0,130.794-106.033,236.777-236.778,236.777s-236.727-105.983-236.727-236.777
						c0-130.744,105.983-236.728,236.727-236.728S2241.389,2049.865,2241.389,2180.61z"/>
					
						<linearGradient id="SVGID_00000109748794976536820590000002892132070821521296_" gradientUnits="userSpaceOnUse" x1="1799.761" y1="2043.2018" x2="1935.2568" y2="2043.2018">
						<stop  offset="1.100000e-07" style="stop-color:#B3B3FF"/>
						<stop  offset="1" style="stop-color:#C2D5FF"/>
					</linearGradient>
					<path style="fill:url(#SVGID_00000109748794976536820590000002892132070821521296_);" d="M1935.257,2060.135l-48.845-84.602
						c-35.909,20.741-65.843,50.62-86.651,86.486l84.61,48.85C1896.608,2089.821,1914.165,2072.305,1935.257,2060.135z"/>
					
						<linearGradient id="SVGID_00000067931198403206291860000017669194757135334066_" gradientUnits="userSpaceOnUse" x1="2004.6368" y1="2002.0134" x2="2122.8518" y2="2002.0134">
						<stop  offset="1.100000e-07" style="stop-color:#B3B3FF"/>
						<stop  offset="1" style="stop-color:#C2D5FF"/>
					</linearGradient>
					<path style="fill:url(#SVGID_00000067931198403206291860000017669194757135334066_);" d="M2074.01,2060.145l48.841-84.595
						c-34.797-20.102-75.146-31.664-118.215-31.668v97.611C2029.927,2041.495,2053.572,2048.35,2074.01,2060.145z"/>
					
						<linearGradient id="SVGID_00000134242188581590590220000005666986425824545195_" gradientUnits="userSpaceOnUse" x1="2074.0105" y1="2043.2113" x2="2209.5029" y2="2043.2113">
						<stop  offset="0" style="stop-color:#E7ECFF"/>
						<stop  offset="1" style="stop-color:#C2D5FF"/>
					</linearGradient>
					<path style="fill:url(#SVGID_00000134242188581590590220000005666986425824545195_);" d="M2124.896,2110.873l84.607-48.848
						c-20.81-35.858-50.745-65.733-86.651-86.475l-48.841,84.595C2095.101,2072.316,2112.658,2089.828,2124.896,2110.873z"/>
					
						<linearGradient id="SVGID_00000147935561806638510870000001519184552552255931_" gradientUnits="userSpaceOnUse" x1="2124.8962" y1="2121.165" x2="2241.3816" y2="2121.165">
						<stop  offset="1.100000e-07" style="stop-color:#B3B3FF"/>
						<stop  offset="1" style="stop-color:#C2D5FF"/>
					</linearGradient>
					<path style="fill:url(#SVGID_00000147935561806638510870000001519184552552255931_);" d="M2143.763,2180.305h97.619
						c-0.054-43.11-11.686-83.485-31.879-118.28l-84.607,48.848C2136.781,2131.309,2143.706,2154.976,2143.763,2180.305z"/>
					
						<linearGradient id="SVGID_00000019675422269551589260000013032587164041754801_" gradientUnits="userSpaceOnUse" x1="2125.1887" y1="2239.5251" x2="2241.3894" y2="2239.5251">
						<stop  offset="0" style="stop-color:#E7ECFF"/>
						<stop  offset="1" style="stop-color:#C2D5FF"/>
					</linearGradient>
					<path style="fill:url(#SVGID_00000019675422269551589260000013032587164041754801_);" d="M2143.779,2180.62
						c0,25.257-6.83,48.87-18.59,69.286l84.592,48.839c20.068-34.776,31.608-75.094,31.608-118.136c0-0.102-0.008-0.202-0.008-0.304
						h-97.619C2143.763,2180.411,2143.779,2180.513,2143.779,2180.62z"/>
					
						<linearGradient id="SVGID_00000176755753044425368690000008397094429309830813_" gradientUnits="userSpaceOnUse" x1="1886.4121" y1="2002.0083" x2="2004.6368" y2="2002.0083">
						<stop  offset="0" style="stop-color:#E7ECFF"/>
						<stop  offset="1" style="stop-color:#C2D5FF"/>
					</linearGradient>
					<path style="fill:url(#SVGID_00000176755753044425368690000008397094429309830813_);" d="M2004.622,2041.492
						c0.005,0,0.01,0.001,0.015,0.001v-97.611c-0.008,0-0.017-0.001-0.025-0.001c-43.066,0-83.409,11.557-118.199,31.652
						l48.845,84.602C1955.691,2048.344,1979.333,2041.492,2004.622,2041.492z"/>
					
						<linearGradient id="SVGID_00000062190576371660488410000001033075020977936004_" gradientUnits="userSpaceOnUse" x1="1767.8839" y1="2239.5278" x2="1884.0791" y2="2239.5278">
						<stop  offset="1.100000e-07" style="stop-color:#B3B3FF"/>
						<stop  offset="1" style="stop-color:#C2D5FF"/>
					</linearGradient>
					<path style="fill:url(#SVGID_00000062190576371660488410000001033075020977936004_);" d="M1865.495,2180.62
						c0-0.106,0.016-0.208,0.016-0.315h-97.619c0,0.102-0.008,0.202-0.008,0.304c0,43.045,11.536,83.365,31.599,118.141
						l84.597-48.842C1872.323,2229.492,1865.495,2205.877,1865.495,2180.62z"/>
					
						<linearGradient id="SVGID_00000058583626190547077920000016279499868724843950_" gradientUnits="userSpaceOnUse" x1="1767.8917" y1="2121.1624" x2="1884.3713" y2="2121.1624">
						<stop  offset="0" style="stop-color:#E7ECFF"/>
						<stop  offset="1" style="stop-color:#C2D5FF"/>
					</linearGradient>
					<path style="fill:url(#SVGID_00000058583626190547077920000016279499868724843950_);" d="M1884.371,2110.87l-84.61-48.85
						c-20.188,34.796-31.815,75.173-31.869,118.285h97.619C1865.567,2154.975,1872.49,2131.307,1884.371,2110.87z"/>
					
						<linearGradient id="SVGID_00000047760576667662837900000002114195880427493041_" gradientUnits="userSpaceOnUse" x1="1949.913" y1="2182.0925" x2="2059.3604" y2="2182.0925">
						<stop  offset="0" style="stop-color:#E7ECFF"/>
						<stop  offset="1" style="stop-color:#C2D5FF"/>
					</linearGradient>
					<path style="fill:url(#SVGID_00000047760576667662837900000002114195880427493041_);" d="M2059.36,2210.349
						c0,30.242-24.481,54.724-54.724,54.724c-30.242,0-54.724-24.482-54.724-54.724c0-23.355,32.802-81.909,47.614-107.158
						c3.19-5.439,11.028-5.439,14.218,0C2026.558,2128.44,2059.36,2186.994,2059.36,2210.349z"/>
					
						<linearGradient id="SVGID_00000067220433003483106920000005343810729953668282_" gradientUnits="userSpaceOnUse" x1="1980.6595" y1="2212.3291" x2="2028.6" y2="2212.3291">
						<stop  offset="3.200000e-07" style="stop-color:#78A7FF"/>
						<stop  offset="1" style="stop-color:#3D79F3"/>
					</linearGradient>
					<path style="fill:url(#SVGID_00000067220433003483106920000005343810729953668282_);" d="M2028.6,2212.329
						c0,13.214-10.716,23.93-23.93,23.93c-13.295,0-24.011-10.716-24.011-23.93s10.716-23.93,24.011-23.93
						C2017.884,2188.399,2028.6,2199.115,2028.6,2212.329z"/>
					
						<linearGradient id="SVGID_00000019676124920365846980000017302498331921417649_" gradientUnits="userSpaceOnUse" x1="1945.7362" y1="2336.0249" x2="2063.5239" y2="2336.0249">
						<stop  offset="0" style="stop-color:#E7ECFF"/>
						<stop  offset="1" style="stop-color:#C2D5FF"/>
					</linearGradient>
					<path style="fill:url(#SVGID_00000019676124920365846980000017302498331921417649_);" d="M2063.524,2322.877v26.295
						c0,3.495-2.833,6.327-6.328,6.327h-105.133c-3.495,0-6.328-2.833-6.328-6.327v-26.295c0-3.494,2.833-6.327,6.328-6.327h105.133
						C2060.691,2316.55,2063.524,2319.383,2063.524,2322.877z"/>
				</g>
				<g>
					<g>
						<g>
							<path style="fill:#ADC8F7;" d="M2704.27,1756.38c-2.227,0-4.029-1.802-4.029-4.029v-42.981
								c0-47.179,38.386-85.56,85.568-85.56h60.787c2.227,0,4.029,1.802,4.029,4.029c0,2.227-1.802,4.029-4.029,4.029h-60.787
								c-42.741,0-77.511,34.766-77.511,77.503v42.981C2708.299,1754.578,2706.497,1756.38,2704.27,1756.38z"/>
						</g>
						<g>
							<path style="fill:#ADC8F7;" d="M2846.597,2416.558h-60.787c-47.183,0-85.568-38.382-85.568-85.56v-42.981
								c0-2.227,1.802-4.029,4.029-4.029s4.029,1.802,4.029,4.029v42.981c0,42.737,34.77,77.503,77.511,77.503h60.787
								c2.227,0,4.029,1.802,4.029,4.029S2848.823,2416.558,2846.597,2416.558z"/>
						</g>
					</g>
					
						<linearGradient id="SVGID_00000001660961052876806020000006785597271235467906_" gradientUnits="userSpaceOnUse" x1="3256.364" y1="1488.6896" x2="3259.1165" y2="2782.3242">
						<stop  offset="0" style="stop-color:#E7ECFF"/>
						<stop  offset="1" style="stop-color:#C2D5FF"/>
					</linearGradient>
					<path style="fill:url(#SVGID_00000001660961052876806020000006785597271235467906_);" d="M3766.129,1709.372v621.626
						c0,20.405-16.542,36.947-36.947,36.947h-943.374c-20.405,0-36.947-16.542-36.947-36.947v-621.626
						c0-20.405,16.542-36.947,36.947-36.947h943.374C3749.587,1672.425,3766.129,1688.966,3766.129,1709.372z"/>
					<g>
						
							<linearGradient id="SVGID_00000101806843338289628040000018232558459219946687_" gradientUnits="userSpaceOnUse" x1="3389.2317" y1="1804.4069" x2="3582.3743" y2="1804.4069">
							<stop  offset="3.200000e-07" style="stop-color:#78A7FF"/>
							<stop  offset="1" style="stop-color:#3D79F3"/>
						</linearGradient>
						<path style="fill:url(#SVGID_00000101806843338289628040000018232558459219946687_);" d="M3582.374,1783.16v42.494
							c0,2.614-2.119,4.733-4.733,4.733h-183.677c-2.614,0-4.733-2.119-4.733-4.733v-42.494c0-2.614,2.119-4.733,4.733-4.733
							h183.677C3580.255,1778.427,3582.374,1780.546,3582.374,1783.16z"/>
						<path style="fill:#FFFFFF;" d="M3681.703,1874.078v19.226c0,2.697-2.187,4.884-4.884,4.884h-382.032
							c-2.698,0-4.884-2.187-4.884-4.884v-19.226c0-2.697,2.187-4.884,4.884-4.884h382.032
							C3679.517,1869.194,3681.703,1871.381,3681.703,1874.078z"/>
						<path style="fill:#FFFFFF;" d="M3681.703,1941.88v19.226c0,2.697-2.187,4.884-4.884,4.884h-382.032
							c-2.698,0-4.884-2.187-4.884-4.884v-19.226c0-2.697,2.187-4.884,4.884-4.884h382.032
							C3679.517,1936.995,3681.703,1939.182,3681.703,1941.88z"/>
						<path style="fill:#FFFFFF;" d="M3546.762,2009.681v19.226c0,2.697-2.187,4.884-4.884,4.884h-247.091
							c-2.698,0-4.884-2.187-4.884-4.884v-19.226c0-2.698,2.187-4.884,4.884-4.884h247.091
							C3544.576,2004.797,3546.762,2006.983,3546.762,2009.681z"/>
					</g>
					<g>
						
							<linearGradient id="SVGID_00000150084105326591818560000002541588843606784696_" gradientUnits="userSpaceOnUse" x1="3005.7615" y1="1913.3195" x2="3005.7615" y2="1913.3195">
							<stop  offset="0" style="stop-color:#E7ECFF"/>
							<stop  offset="1" style="stop-color:#C2D5FF"/>
						</linearGradient>
						<polygon style="fill:url(#SVGID_00000150084105326591818560000002541588843606784696_);" points="3005.761,1913.319 
							3005.761,1913.32 3005.761,1913.319 						"/>
						
							<linearGradient id="SVGID_00000168804292307726944420000000018858018870028439_" gradientUnits="userSpaceOnUse" x1="3004.5613" y1="1913.3193" x2="3006.9612" y2="1913.3193">
							<stop  offset="0" style="stop-color:#E7ECFF"/>
							<stop  offset="1" style="stop-color:#C2D5FF"/>
						</linearGradient>
						<polygon style="fill:url(#SVGID_00000168804292307726944420000000018858018870028439_);" points="3005.761,1913.319 
							3005.761,1913.319 3005.761,1913.319 						"/>
						<g>
							
								<linearGradient id="SVGID_00000150092601315246871070000000629785252869040831_" gradientUnits="userSpaceOnUse" x1="3005.8147" y1="1885.6305" x2="3178.8333" y2="1885.6305">
								<stop  offset="1.100000e-07" style="stop-color:#B3B3FF"/>
								<stop  offset="1" style="stop-color:#C2D5FF"/>
							</linearGradient>
							<path style="fill:url(#SVGID_00000150092601315246871070000000629785252869040831_);" d="M3178.833,1910.235
								c0,1.003-0.063,2.006-0.063,3.072c-0.877,47.329-20.687,90.02-52.219,120.799l-46.452-46.452
								c20.374-19.559,33.037-47.016,33.037-77.482c0-59.303-48.019-107.322-107.322-107.385v-65.635
								c48.521,0,92.402,19.998,123.809,52.282C3160.09,1820.655,3178.833,1863.282,3178.833,1910.235z"/>
							
								<linearGradient id="SVGID_00000119084523767085138040000005620275236631073191_" gradientUnits="userSpaceOnUse" x1="2832.7334" y1="1998.281" x2="3126.5518" y2="1998.281">
								<stop  offset="2.200000e-07" style="stop-color:#FFBB83"/>
								<stop  offset="1" style="stop-color:#FF9D45"/>
							</linearGradient>
							<path style="fill:url(#SVGID_00000119084523767085138040000005620275236631073191_);" d="M3126.552,2034.107
								c-31.219,30.404-73.784,49.147-120.737,49.147c-0.063,0-0.063,0-0.063,0c-47.016,0-89.644-18.744-120.8-49.147
								c-31.532-30.717-51.342-73.47-52.219-120.799h65.697c1.63,57.861,49.085,104.313,107.322,104.313
								c28.836,0,55.04-11.409,74.348-29.965L3126.552,2034.107z"/>
							<path style="fill:#FFFFFF;" d="M3005.815,1737.154v65.635h-0.063c-59.303,0-107.385,48.082-107.385,107.385
								c0,1.066,0,2.131,0.063,3.134h-65.697c0-1.066-0.063-2.069-0.063-3.072c0-47.016,18.744-89.581,49.21-120.799
								c31.407-32.284,75.288-52.282,123.871-52.282C3005.752,1737.154,3005.752,1737.154,3005.815,1737.154z"/>
						</g>
					</g>
					<g>
						<g>
							<path style="fill:#ADC8F7;" d="M3728.646,2416.558h-60.783c-2.227,0-4.029-1.802-4.029-4.029s1.802-4.029,4.029-4.029h60.783
								c42.741,0,77.511-34.766,77.511-77.503v-42.981c0-2.227,1.802-4.029,4.029-4.029s4.029,1.802,4.029,4.029v42.981
								C3814.214,2378.176,3775.828,2416.558,3728.646,2416.558z"/>
						</g>
						<g>
							<path style="fill:#ADC8F7;" d="M3810.186,1756.38c-2.227,0-4.029-1.802-4.029-4.029v-42.981
								c0-42.737-34.77-77.503-77.511-77.503h-60.783c-2.227,0-4.029-1.802-4.029-4.029c0-2.227,1.802-4.029,4.029-4.029h60.783
								c47.182,0,85.568,38.382,85.568,85.56v42.981C3814.214,1754.578,3812.412,1756.38,3810.186,1756.38z"/>
						</g>
					</g>
					<g>
						<path style="fill:#FFFFFF;" d="M3282.805,2160.037v145.456c0,3.474-2.816,6.29-6.29,6.29h-53.265
							c-3.474,0-6.29-2.816-6.29-6.29v-145.456c0-3.474,2.816-6.291,6.29-6.291h53.265
							C3279.989,2153.747,3282.805,2156.563,3282.805,2160.037z"/>
						<path style="fill:#FFFFFF;" d="M3385.443,2226.066v79.427c0,3.474-2.816,6.29-6.29,6.29h-53.265
							c-3.474,0-6.291-2.816-6.291-6.29v-79.427c0-3.474,2.816-6.29,6.291-6.29h53.265
							C3382.626,2219.776,3385.443,2222.593,3385.443,2226.066z"/>
						
							<linearGradient id="SVGID_00000056399295675472674220000001619769125282572182_" gradientUnits="userSpaceOnUse" x1="3422.2344" y1="2214.677" x2="3488.0801" y2="2214.677">
							<stop  offset="1.100000e-07" style="stop-color:#B3B3FF"/>
							<stop  offset="1" style="stop-color:#C2D5FF"/>
						</linearGradient>
						<path style="fill:url(#SVGID_00000056399295675472674220000001619769125282572182_);" d="M3488.08,2123.861v181.633
							c0,3.474-2.816,6.29-6.29,6.29h-53.265c-3.474,0-6.29-2.816-6.29-6.29v-181.633c0-3.474,2.816-6.29,6.29-6.29h53.265
							C3485.264,2117.57,3488.08,2120.387,3488.08,2123.861z"/>
						<path style="fill:#FFFFFF;" d="M3590.718,2187.035v118.458c0,3.474-2.816,6.29-6.29,6.29h-53.265
							c-3.474,0-6.29-2.816-6.29-6.29v-118.458c0-3.474,2.816-6.29,6.29-6.29h53.265
							C3587.902,2180.745,3590.718,2183.562,3590.718,2187.035z"/>
						
							<linearGradient id="SVGID_00000116918644158027203780000007636164674579653788_" gradientUnits="userSpaceOnUse" x1="3627.5095" y1="2277.9373" x2="3693.3552" y2="2277.9373">
							<stop  offset="1.100000e-07" style="stop-color:#B3B3FF"/>
							<stop  offset="1" style="stop-color:#C2D5FF"/>
						</linearGradient>
						<path style="fill:url(#SVGID_00000116918644158027203780000007636164674579653788_);" d="M3693.355,2250.381v55.112
							c0,3.474-2.816,6.29-6.29,6.29H3633.8c-3.474,0-6.29-2.816-6.29-6.29v-55.112c0-3.474,2.816-6.29,6.29-6.29h53.265
							C3690.539,2244.091,3693.355,2246.907,3693.355,2250.381z"/>
					</g>
					<g>
						<path style="fill:#FFFFFF;" d="M2898.734,2179.489v57.224c0,3.754-3.043,6.797-6.797,6.797h-57.282
							c-3.754,0-6.797-3.043-6.797-6.797v-57.224c0-3.754,3.043-6.797,6.797-6.797h57.282
							C2895.691,2172.692,2898.734,2175.735,2898.734,2179.489z"/>
						
							<linearGradient id="SVGID_00000183934603976269767760000001447456001519668640_" gradientUnits="userSpaceOnUse" x1="2941.6907" y1="2208.1008" x2="3012.5664" y2="2208.1008">
							<stop  offset="2.200000e-07" style="stop-color:#FFBB83"/>
							<stop  offset="1" style="stop-color:#FF9D45"/>
						</linearGradient>
						<path style="fill:url(#SVGID_00000183934603976269767760000001447456001519668640_);" d="M3012.566,2179.489v57.224
							c0,3.754-3.043,6.797-6.797,6.797h-57.281c-3.754,0-6.797-3.043-6.797-6.797v-57.224c0-3.754,3.043-6.797,6.797-6.797h57.281
							C3009.523,2172.692,3012.566,2175.735,3012.566,2179.489z"/>
						
							<linearGradient id="SVGID_00000043421176134156546130000008246346305877384611_" gradientUnits="userSpaceOnUse" x1="3055.5227" y1="2208.1008" x2="3126.3984" y2="2208.1008">
							<stop  offset="1.100000e-07" style="stop-color:#B3B3FF"/>
							<stop  offset="1" style="stop-color:#C2D5FF"/>
						</linearGradient>
						<path style="fill:url(#SVGID_00000043421176134156546130000008246346305877384611_);" d="M3126.398,2179.489v57.224
							c0,3.754-3.043,6.797-6.797,6.797h-57.282c-3.754,0-6.797-3.043-6.797-6.797v-57.224c0-3.754,3.043-6.797,6.797-6.797h57.282
							C3123.355,2172.692,3126.398,2175.735,3126.398,2179.489z"/>
					</g>
				</g>
				<g>
					<g>
						<g>
							
								<linearGradient id="SVGID_00000103260161182290629510000000636179608713619073_" gradientUnits="userSpaceOnUse" x1="5558.7026" y1="1564.7439" x2="5771.8027" y2="1564.7439" gradientTransform="matrix(-1 0 0 1 6529.5596 0)">
								<stop  offset="3.200000e-07" style="stop-color:#78A7FF"/>
								<stop  offset="1" style="stop-color:#3D79F3"/>
							</linearGradient>
							<path style="fill:url(#SVGID_00000103260161182290629510000000636179608713619073_);" d="M757.757,1553.817v21.854
								c0,1.429,0.953,2.723,2.383,3.063l19.131,5.038c2.247,9.94,6.195,19.268,11.506,27.642l-10.008,17.089
								c-0.749,1.225-0.544,2.859,0.477,3.881l15.455,15.455c1.021,1.021,2.587,1.225,3.813,0.475l17.089-10.076
								c8.374,5.379,17.702,9.328,27.71,11.506l4.97,19.132c0.409,1.429,1.634,2.384,3.132,2.384H875.2
								c1.429,0,2.723-0.954,3.063-2.384l5.038-19.132c10.009-2.177,19.268-6.127,27.642-11.506l17.089,10.076
								c1.294,0.75,2.86,0.545,3.881-0.475l15.455-15.455c1.021-1.022,1.226-2.656,0.477-3.881l-10.008-17.089
								c5.311-8.374,9.26-17.702,11.506-27.642l19.063-5.038c1.43-0.341,2.451-1.634,2.451-3.063v-21.854
								c0-1.429-1.021-2.724-2.451-3.065l-19.063-4.97c-2.246-10.008-6.195-19.335-11.506-27.709l10.008-17.089
								c0.749-1.225,0.545-2.791-0.477-3.813l-15.455-15.455c-1.021-1.021-2.587-1.225-3.881-0.544l-17.089,10.076
								c-8.375-5.379-17.634-9.26-27.642-11.507l-5.038-19.13c-0.34-1.431-1.634-2.384-3.063-2.384h-21.787
								c-1.498,0-2.724,0.952-3.132,2.384l-4.97,19.13c-10.008,2.247-19.336,6.129-27.71,11.507l-17.089-10.076
								c-1.225-0.682-2.791-0.477-3.813,0.544l-15.455,15.455c-1.021,1.022-1.225,2.588-0.477,3.813l10.008,17.089
								c-5.311,8.374-9.259,17.701-11.506,27.709l-19.131,4.97C758.71,1551.092,757.757,1552.387,757.757,1553.817z
								 M824.138,1564.777c0-22.195,17.974-40.168,40.169-40.168c22.195,0,40.169,17.973,40.169,40.168
								c0,22.127-17.974,40.102-40.169,40.102C842.112,1604.879,824.138,1586.904,824.138,1564.777z"/>
						</g>
						<g>
							<path style="fill:#FFFFFF;" d="M807.321,1564.777c0,31.455,25.463,56.986,56.985,56.986
								c31.454,0,56.986-25.531,56.986-56.986c0-31.522-25.531-57.053-56.986-57.053
								C832.784,1507.724,807.321,1533.255,807.321,1564.777z M824.138,1564.777c0-22.195,17.974-40.168,40.169-40.168
								c22.195,0,40.169,17.973,40.169,40.168c0,22.127-17.974,40.102-40.169,40.102
								C842.112,1604.879,824.138,1586.904,824.138,1564.777z"/>
						</g>
					</g>
				</g>
				<g>
					<g>
						<g>
							<path style="fill:#C2D5FF;" d="M2288.983,2811.423c-0.504,0-1.011-0.094-1.507-0.291c-2.062-0.834-3.061-3.179-2.231-5.244
								c35.998-89.274,121.33-149.078,217.391-152.359c2.235-0.149,4.091,1.664,4.162,3.887c0.079,2.223-1.664,4.088-3.887,4.162
								c-92.882,3.175-175.385,60.999-210.191,147.323C2292.087,2810.471,2290.576,2811.423,2288.983,2811.423z"/>
						</g>
						<g>
							<path style="fill:#C2D5FF;" d="M2502.778,3139.824c-0.047,0-0.094,0-0.142-0.004
								c-96.061-3.277-181.389-63.081-217.391-152.359c-0.83-2.065,0.169-4.41,2.231-5.244c2.058-0.818,4.406,0.165,5.244,2.231
								c34.806,86.323,117.313,144.152,210.191,147.323c2.223,0.075,3.966,1.939,3.887,4.162
								C2506.727,3138.109,2504.938,3139.824,2502.778,3139.824z"/>
						</g>
						<g>
							<path style="fill:#C2D5FF;" d="M3521.331,3139.824c-2.16,0-3.95-1.715-4.021-3.891c-0.079-2.223,1.664-4.088,3.887-4.162
								c92.787-3.171,175.251-60.995,210.081-147.323c0.834-2.065,3.198-3.045,5.244-2.231c2.065,0.834,3.061,3.183,2.23,5.244
								c-36.025,89.278-121.31,149.085-217.28,152.359C3521.425,3139.824,3521.378,3139.824,3521.331,3139.824z"/>
						</g>
						<g>
							<path style="fill:#C2D5FF;" d="M3735.015,2811.423c-1.593,0-3.104-0.952-3.738-2.522
								c-34.774-86.323-117.234-144.148-210.081-147.323c-2.223-0.075-3.966-1.94-3.887-4.162c0.075-2.223,1.936-4.009,4.162-3.887
								c96.029,3.277,181.314,63.084,217.28,152.359c0.83,2.065-0.169,4.414-2.23,5.244
								C3736.026,2811.328,3735.519,2811.423,3735.015,2811.423z"/>
						</g>
					</g>
					<path style="fill:#C2D5FF;" d="M3708.24,2896.665L3708.24,2896.665c0,107.823-87.408,195.231-195.231,195.231h-1002
						c-107.823,0-195.231-87.408-195.231-195.231v0c0-107.823,87.408-195.231,195.231-195.231h1002
						C3620.832,2701.434,3708.24,2788.842,3708.24,2896.665z"/>
					<path style="fill:#FFFFFF;" d="M2511.008,3044.625c-81.584,0-147.96-66.375-147.96-147.96s66.375-147.96,147.96-147.96h1002
						c81.586,0,147.96,66.375,147.96,147.96s-66.374,147.96-147.96,147.96H2511.008z"/>
					
						<linearGradient id="SVGID_00000054947908185132306250000015098945855677034647_" gradientUnits="userSpaceOnUse" x1="2363.0486" y1="2896.6655" x2="3918.5205" y2="2896.6655">
						<stop  offset="3.200000e-07" style="stop-color:#78A7FF"/>
						<stop  offset="1" style="stop-color:#3D79F3"/>
					</linearGradient>
					<path style="fill:url(#SVGID_00000054947908185132306250000015098945855677034647_);" d="M2655.921,2748.706h-144.913
						c-81.584,0-147.96,66.375-147.96,147.96s66.375,147.96,147.96,147.96h144.913V2748.706z"/>
					<g>
						<g>
							<path style="fill:#FFFFFF;" d="M2499.296,2945.578c-15.147,0-30.297-5.764-41.828-17.299
								c-23.062-23.066-23.062-60.594,0.004-83.656c11.169-11.173,26.024-17.326,41.824-17.326c0.004,0,0.008,0,0.012,0
								c15.8,0.004,30.651,6.157,41.82,17.326l0,0c23.062,23.062,23.062,60.594,0,83.656
								C2529.597,2939.814,2514.446,2945.578,2499.296,2945.578z M2499.296,2851.469c-9.344,0-18.129,3.639-24.734,10.245
								c-13.64,13.64-13.64,35.836-0.004,49.476c13.652,13.64,35.844,13.64,49.48,0c13.636-13.64,13.636-35.836,0-49.476
								c-6.605-6.605-15.391-10.245-24.734-10.245C2499.3,2851.469,2499.3,2851.469,2499.296,2851.469z"/>
						</g>
						<g>
							<path style="fill:#FFFFFF;" d="M2563.478,2962.79c-3.096,0-6.196-1.184-8.557-3.549l-30.895-30.97
								c-4.713-4.729-4.705-12.381,0.02-17.094c4.721-4.717,12.373-4.705,17.094,0.02l30.895,30.97
								c4.713,4.729,4.705,12.381-0.02,17.094C2569.655,2961.614,2566.566,2962.79,2563.478,2962.79z"/>
						</g>
					</g>
				</g>
				<g>
					<path style="fill:#F5F7FF;" d="M4650,4397.813c0,21.279-212.246,38.581-474.07,38.581
						c-261.759,0-474.007-17.301-474.007-38.581c0-21.281,212.249-38.582,474.007-38.582
						C4437.754,4359.23,4650,4376.532,4650,4397.813z"/>
					<g>
						
							<linearGradient id="SVGID_00000091695393999126900110000008343696976514355381_" gradientUnits="userSpaceOnUse" x1="10786.2764" y1="1935.1289" x2="10788.2324" y2="2000.0225" gradientTransform="matrix(-1 0 0 1 14906.1357 0)">
							<stop  offset="0" style="stop-color:#771E24"/>
							<stop  offset="1" style="stop-color:#47090E"/>
						</linearGradient>
						<path style="fill:url(#SVGID_00000091695393999126900110000008343696976514355381_);" d="M4091.693,1943.588
							c1.71,22.856,8.182,42.346,22.471,56.322l33.581-63.94L4091.693,1943.588z"/>
						<path style="fill:#FDCCC5;" d="M3703.244,2522.59l6.647,1.858l16.365-45.805c0,0-17.944-3.906-23.047-7.118
							c-9.751-6.137-31.454-33.971-40.316-22.324c-6.93,9.147,10.657,25.796,10.657,25.796s-20.934-4.93-41.085-2.214
							C3595.447,2477.641,3604.843,2560.75,3703.244,2522.59z"/>
						<g>
							<polygon style="fill:#FDCCC5;" points="3985.372,4229.35 3968.497,4325.213 4059.84,4321.178 4073.413,4229.35 							"/>
							
								<linearGradient id="SVGID_00000019645855408167983120000013598520378646825861_" gradientUnits="userSpaceOnUse" x1="-5240.0815" y1="3580.4033" x2="-4861.4355" y2="3580.4033" gradientTransform="matrix(1 0 0 1 9211.8379 0)">
								<stop  offset="0" style="stop-color:#771E24"/>
								<stop  offset="1" style="stop-color:#47090E"/>
							</linearGradient>
							<path style="fill:url(#SVGID_00000019645855408167983120000013598520378646825861_);" d="M4084.735,4242.371
								c33.802-369.673,167.65-832.046,259.693-1337.201H4032.62c9.853,249.725-26.613,800.664-60.864,1337.201
								C3971.756,4260.059,4084.735,4260.059,4084.735,4242.371z"/>
							<g>
								
									<linearGradient id="SVGID_00000013876058213387760030000002075051738674904989_" gradientUnits="userSpaceOnUse" x1="11436.1143" y1="4337.0884" x2="11742.708" y2="4337.0884" gradientTransform="matrix(-1 0 0 1 15534.3672 0)">
									<stop  offset="3.200000e-07" style="stop-color:#78A7FF"/>
									<stop  offset="1" style="stop-color:#3D79F3"/>
								</linearGradient>
								<path style="fill:url(#SVGID_00000013876058213387760030000002075051738674904989_);" d="M3791.725,4381.687
									c-0.088,0.175-0.088,0.351,0,0.526c0,0.087,0,0.087,0,0.087v0.176c0,10.867,6.66,20.594,17.001,24.362
									c4.294,1.578,9.465,3.243,15.336,4.732c21.383,5.521,52.844,8.939,90.878-0.701
									c72.475-18.491,141.445-13.935,168.699-12.795c0.876,0,1.753,0,2.542-0.262c7.887-1.929,11.568-14.986,12.006-32.075
									c0.087-0.789,0.087-1.665,0-2.454c0.087-15.95-2.629-34.792-7.624-51.004c-4.382-14.46-10.516-26.816-17.965-32.951
									c-0.964-0.789-1.928-1.49-3.067-2.103c-1.227-0.789-2.542-1.315-3.944-1.665c-20.594-4.996-56.35,47.499-81.852,22.083
									c-2.892-2.716-2.366-8.325-1.49-14.897c0.438-2.98,0.877-6.222,1.139-9.465c0.263-3.155-0.701-6.397-2.279-9.377
									c-3.944-7.625-14.372-8.939-20.506-2.805c-4.821,4.82-11.656,11.48-21.121,20.069c-1.665,1.577-3.33,3.33-4.995,5.17
									c-1.139,1.14-2.278,2.366-3.593,3.594c-4.206,4.557-8.588,8.676-12.97,12.356c-1.753,1.578-3.594,3.067-5.433,4.558
									c-4.031,3.067-7.888,5.959-11.919,8.413c-0.701,0.526-1.402,0.964-2.103,1.402c-2.015,1.314-4.031,2.454-6.047,3.593
									c-40.838,23.048-77.909,20.069-90.265,32.864C3794.266,4361.092,3791.988,4372.222,3791.725,4381.687z"/>
								<path style="fill:#F9C55F;" d="M4079.259,4359.602c0,14.197,2.541,27.43,6.923,38.21
									c7.887-1.929,11.568-14.986,12.006-32.075c0.087-0.789,0.087-1.665,0-2.454c0.087-15.95-2.629-34.792-7.624-51.004
									C4083.553,4324.197,4079.259,4341.023,4079.259,4359.602z"/>
								<path style="fill:#F9C55F;" d="M3791.725,4381.687c-0.088,0.175-0.088,0.351,0,0.526c0,0.087,0,0.087,0,0.087v0.176
									c0,10.867,6.66,20.594,17.001,24.362c4.294,1.578,9.465,3.243,15.336,4.732c2.892-0.526,5.871-1.227,8.764-1.928
									c4.294-1.14,9.114-2.717,11.217-6.661c2.717-4.995-0.087-11.13-3.417-15.599c-3.418-4.558-7.624-8.939-8.238-14.548
									c-0.789-7.186,4.908-13.671,11.48-16.914c6.485-3.155,13.934-3.943,20.857-6.047c6.135-1.84,11.831-4.732,17.001-8.5
									c4.47-3.33,8.588-7.361,12.006-11.831c2.541-3.33,7.537-9.377,7.011-13.846c0-0.175-0.088-0.263-0.175-0.438
									c-0.701,0.526-1.402,0.964-2.103,1.402c-2.015,1.314-4.031,2.454-6.047,3.593c-40.838,23.048-77.909,20.069-90.265,32.864
									C3794.266,4361.092,3791.988,4372.222,3791.725,4381.687z"/>
								<g>
									<path style="fill:#070159;" d="M3808.665,4406.876c19.826,7.292,57.75,16.232,106.227,3.953
										c72.55-18.502,141.464-13.936,168.814-12.737c9.581,0.394,14.061-13.606,14.516-32.311
										c0.011-0.822,0.023-1.643-0.021-2.501c-44.972-16.64-112.19-9.579-163.84,17.376
										c-56.539,29.479-123.498,18.698-142.51,1.54c-0.056-0.036-0.102-0.026-0.138,0.03s0.01,0.046,0.01,0.046
										c-0.036,0.056-0.016,0.148-0.006,0.193C3791.653,4393.325,3798.38,4403.071,3808.665,4406.876z"/>
								</g>
								<path style="fill:#070159;" d="M3980.948,4293.706c0.892,6.195,4.239,12.115,9.57,15.457
									c3.766,2.329,8.344,3.242,12.802,3.2c4.526-0.043,8.93-1.043,13.183-2.309c5.404-1.534,10.716-3.475,15.801-5.816
									c9.166-4.211,17.785-9.631,25.595-16.032c3.869-3.233,7.521-6.66,10.953-10.351c0.194-0.215,0.456-0.436,0.718-0.656
									c-1.277-0.753-2.61-1.296-4.001-1.631c-20.588-5.033-56.375,47.447-81.862,22.103c-2.827-2.724-2.313-8.311-1.446-14.945
									C3980.664,4286.106,3980.397,4289.962,3980.948,4293.706z"/>
							</g>
							<polygon style="fill:#FDCCC5;" points="4321.767,4229.35 4304.893,4325.213 4396.235,4321.178 4409.808,4229.35 							"/>
							<g>
								
									<linearGradient id="SVGID_00000150098802507058309990000009437301899160665779_" gradientUnits="userSpaceOnUse" x1="11099.7188" y1="4337.0884" x2="11406.3135" y2="4337.0884" gradientTransform="matrix(-1 0 0 1 15534.3672 0)">
									<stop  offset="3.200000e-07" style="stop-color:#78A7FF"/>
									<stop  offset="1" style="stop-color:#3D79F3"/>
								</linearGradient>
								<path style="fill:url(#SVGID_00000150098802507058309990000009437301899160665779_);" d="M4128.121,4381.687
									c-0.088,0.175-0.088,0.351,0,0.526c0,0.087,0,0.087,0,0.087v0.176c0,10.867,6.66,20.594,17.001,24.362
									c4.294,1.578,9.465,3.243,15.336,4.732c21.383,5.521,52.844,8.939,90.878-0.701c72.476-18.491,141.445-13.935,168.7-12.795
									c0.876,0,1.752,0,2.541-0.262c7.888-1.929,11.568-14.986,12.006-32.075c0.087-0.789,0.087-1.665,0-2.454
									c0.087-15.95-2.629-34.792-7.625-51.004c-4.382-14.46-10.516-26.816-17.965-32.951c-0.964-0.789-1.928-1.49-3.067-2.103
									c-1.227-0.789-2.542-1.315-3.944-1.665c-20.594-4.996-56.35,47.499-81.852,22.083c-2.892-2.716-2.366-8.325-1.49-14.897
									c0.438-2.98,0.876-6.222,1.139-9.465c0.263-3.155-0.701-6.397-2.279-9.377c-3.943-7.625-14.372-8.939-20.506-2.805
									c-4.82,4.82-11.656,11.48-21.121,20.069c-1.665,1.577-3.33,3.33-4.995,5.17c-1.14,1.14-2.278,2.366-3.593,3.594
									c-4.207,4.557-8.588,8.676-12.97,12.356c-1.753,1.578-3.593,3.067-5.433,4.558c-4.032,3.067-7.888,5.959-11.919,8.413
									c-0.701,0.526-1.402,0.964-2.104,1.402c-2.015,1.314-4.031,2.454-6.047,3.593c-40.838,23.048-77.909,20.069-90.265,32.864
									C4130.662,4361.092,4128.383,4372.222,4128.121,4381.687z"/>
								<path style="fill:#F9C55F;" d="M4415.654,4359.602c0,14.197,2.541,27.43,6.923,38.21
									c7.888-1.929,11.568-14.986,12.006-32.075c0.087-0.789,0.087-1.665,0-2.454c0.087-15.95-2.629-34.792-7.625-51.004
									C4419.948,4324.197,4415.654,4341.023,4415.654,4359.602z"/>
								<path style="fill:#F9C55F;" d="M4128.121,4381.687c-0.088,0.175-0.088,0.351,0,0.526c0,0.087,0,0.087,0,0.087v0.176
									c0,10.867,6.66,20.594,17.001,24.362c4.294,1.578,9.465,3.243,15.336,4.732c2.892-0.526,5.872-1.227,8.764-1.928
									c4.294-1.14,9.114-2.717,11.217-6.661c2.717-4.995-0.087-11.13-3.417-15.599c-3.418-4.558-7.625-8.939-8.238-14.548
									c-0.789-7.186,4.908-13.671,11.48-16.914c6.485-3.155,13.934-3.943,20.857-6.047c6.135-1.84,11.831-4.732,17.001-8.5
									c4.47-3.33,8.588-7.361,12.006-11.831c2.541-3.33,7.537-9.377,7.011-13.846c0-0.175-0.088-0.263-0.175-0.438
									c-0.701,0.526-1.402,0.964-2.104,1.402c-2.015,1.314-4.031,2.454-6.047,3.593c-40.838,23.048-77.909,20.069-90.265,32.864
									C4130.662,4361.092,4128.383,4372.222,4128.121,4381.687z"/>
								<g>
									<path style="fill:#070159;" d="M4145.06,4406.876c19.826,7.292,57.75,16.232,106.227,3.953
										c72.55-18.502,141.464-13.936,168.814-12.737c9.582,0.394,14.061-13.606,14.516-32.311
										c0.012-0.822,0.023-1.643-0.021-2.501c-44.973-16.64-112.19-9.579-163.84,17.376c-56.54,29.479-123.498,18.698-142.51,1.54
										c-0.056-0.036-0.102-0.026-0.138,0.03c-0.036,0.056,0.01,0.046,0.01,0.046c-0.036,0.056-0.016,0.148-0.006,0.193
										C4128.048,4393.325,4134.775,4403.071,4145.06,4406.876z"/>
								</g>
								<path style="fill:#070159;" d="M4317.344,4293.706c0.892,6.195,4.239,12.115,9.57,15.457
									c3.766,2.329,8.344,3.242,12.802,3.2c4.526-0.043,8.93-1.043,13.183-2.309c5.404-1.534,10.716-3.475,15.801-5.816
									c9.167-4.211,17.785-9.631,25.595-16.032c3.869-3.233,7.521-6.66,10.953-10.351c0.193-0.215,0.456-0.436,0.718-0.656
									c-1.277-0.753-2.611-1.296-4.001-1.631c-20.588-5.033-56.375,47.447-81.862,22.103c-2.827-2.724-2.313-8.311-1.446-14.945
									C4317.059,4286.106,4316.792,4289.962,4317.344,4293.706z"/>
							</g>
							
								<linearGradient id="SVGID_00000147941874827270128060000013756951845797479077_" gradientUnits="userSpaceOnUse" x1="-4751.7568" y1="2823.7551" x2="-4369.8086" y2="2823.7551" gradientTransform="matrix(0.9859 -0.1673 0.1673 0.9859 8407.3936 9.8695)">
								<stop  offset="0" style="stop-color:#771E24"/>
								<stop  offset="1" style="stop-color:#47090E"/>
							</linearGradient>
							<path style="fill:url(#SVGID_00000147941874827270128060000013756951845797479077_);" d="M4418.53,4237.215
								c-57.006-788.343,55.085-787.292,37.417-1340.613l-313.936,8.567l164.125,1332.046
								C4306.134,4253.57,4418.527,4253.57,4418.53,4237.215z"/>
							
								<linearGradient id="SVGID_00000148657368377908757660000000267687303656709296_" gradientUnits="userSpaceOnUse" x1="-5286.6323" y1="2236.2898" x2="-5274.915" y2="2625.0142" gradientTransform="matrix(1 0 0 1 9211.8379 0)">
								<stop  offset="3.200000e-07" style="stop-color:#FF8888"/>
								<stop  offset="1" style="stop-color:#F24E4E"/>
							</linearGradient>
							<path style="fill:url(#SVGID_00000148657368377908757660000000267687303656709296_);" d="M4121.59,2230.375
								c-24.873-0.5-79.862,248.881-151.577,286.699c-57.369,30.252-250.185-45.205-250.185-45.205
								c-4.616-1.656-24.29,54.584-19.674,56.24c0,0,221.284,111.273,297.183,93.72c63.344-14.65,145.648-138.441,159.817-205.164
								C4167.004,2370.286,4168.995,2231.328,4121.59,2230.375z"/>
							
								<linearGradient id="SVGID_00000145051045313714729690000004573383162073794456_" gradientUnits="userSpaceOnUse" x1="-4990.2246" y1="2191.5217" x2="-4967.3838" y2="2949.3018" gradientTransform="matrix(1 0 0 1 9211.8379 0)">
								<stop  offset="3.200000e-07" style="stop-color:#FF8888"/>
								<stop  offset="1" style="stop-color:#F24E4E"/>
							</linearGradient>
							<path style="fill:url(#SVGID_00000145051045313714729690000004573383162073794456_);" d="M4029.71,2892.099
								c17.936-157.926-2.262-484.883,62.379-626.553c46.964-102.962,315.535-91.729,335.531-19.344
								c43.095,155.732-56.382,287.339,27.871,645.897C4473.17,2967.32,4021.066,2968.224,4029.71,2892.099z"/>
							<g>
								<path style="fill:#FFFFFF;" d="M4267.937,2487.642l-52.239,71.721l-52.324-71.721
									c-6.445-70.785,18.627-160.205,52.324-254.728C4221.152,2330.42,4232.951,2421.24,4267.937,2487.642z"/>
								<g>
									<path style="fill:#FDCCC5;" d="M4094.973,2081.805c9.578,0.286,20.939-0.429,20.939-0.429s0,10.148,1.145,22.867
										c0.069,1.358,0.212,2.788,0.425,4.288c0.073,0.643,0.143,1.286,0.216,1.93c0.213,1.787,0.429,3.501,0.642,5.288
										c1.86,13.648,5.29,27.512,11.508,33.228c6.93,6.503,20.649,8.718,35.015,8.361l-2.002,99.187l99.545-13.792l3.07-143.922
										c1.075-1,1.574-1.644,1.574-1.644s74.96-93.97,26.798-153.497c-48.163-59.526-179.865,6.218-179.865,6.218
										c0.572,2,0,87.681,0,87.681S4080.897,2081.304,4094.973,2081.805z"/>
									
										<linearGradient id="SVGID_00000121251086430609597470000011356558228109788815_" gradientUnits="userSpaceOnUse" x1="-5007.1582" y1="1775.3575" x2="-4997.3516" y2="2100.7009" gradientTransform="matrix(1 0 0 1 9211.8379 0)">
										<stop  offset="0" style="stop-color:#771E24"/>
										<stop  offset="1" style="stop-color:#47090E"/>
									</linearGradient>
									<path style="fill:url(#SVGID_00000121251086430609597470000011356558228109788815_);" d="M4114.246,1974.35
										c0,0,29.653,12.567,93.082-10.171s43.682,62.232,40.391,73.9c0,0,14.661-46.973,31.116-36.202
										c16.456,10.771-13.914,97.304-13.914,97.304s84.442-42.171,97.948-135.362c15.922-109.866-61.314-69.177-61.314-69.177
										s19.29-88.725-27.542-85.009s-79.912,64.673-79.912,64.673s25.274-112.248-25.274-96.637s-44.974,91.434-44.974,91.434
										s-8.542-99.093-50.549-89.204C4021.628,1792.065,4068.814,1959.09,4114.246,1974.35z"/>
									<path style="fill:#FDCCC5;" d="M4286.675,2038.243c-7.393,17.328-21.664,27.873-31.828,23.536
										c-10.2-4.352-12.429-21.935-5.036-39.264c7.417-17.387,21.653-27.946,31.853-23.595
										C4291.829,2003.257,4294.093,2020.856,4286.675,2038.243z"/>
								</g>
								<path style="fill:#EC8B73;" d="M4164.819,2157.373c0,0,20.644-0.035,51.283-25.697c0,0-5.224,33.535-51.684,45.828
									L4164.819,2157.373z"/>
								<path style="fill:#FFFFFF;" d="M4264.142,2187.085c0,0,19.554-5.346,26.285,2.085c17.896,19.759,0.302,86.927-21.499,95.117
									c-14.821,5.568-60.895-36.293-60.895-36.293L4264.142,2187.085z"/>
								<path style="fill:#FFFFFF;" d="M4162.846,2200.494c0,0-16.576-4.554-22.782,2.534c-15.851,18.104-4.537,71.76,16.927,81.252
									c15.19,6.718,56.002-36.776,56.002-36.776L4162.846,2200.494z"/>
							</g>
						</g>
						
							<linearGradient id="SVGID_00000044165304795087402610000007542533646039147158_" gradientUnits="userSpaceOnUse" x1="10681.3691" y1="2631.0605" x2="11037.0977" y2="2631.0605" gradientTransform="matrix(-1 0 0 1 14906.1357 0)">
							<stop  offset="2.200000e-07" style="stop-color:#5C5CA0"/>
							<stop  offset="1" style="stop-color:#434389"/>
						</linearGradient>
						<path style="fill:url(#SVGID_00000044165304795087402610000007542533646039147158_);" d="M3870.232,2490.852l96.602,280.417
							c4.079,11.839,17.396,21.437,29.745,21.437h212.019c12.349,0,19.054-9.598,14.975-21.437l-96.601-280.417
							c-4.079-11.839-17.396-21.437-29.745-21.437h-212.019C3872.858,2469.416,3866.153,2479.013,3870.232,2490.852z"/>
						<g>
							<path style="fill:#FDCCC5;" d="M4231.965,2623.175c0,0-47.331-27.566-55.622-15.495c-6.467,9.415,20.993,21.98,20.993,21.98
								s-23.59-2.256-43.635,1.405c-36.729,6.709-16.564,88.297,79.823,45.299L4231.965,2623.175z"/>
						</g>
						
							<linearGradient id="SVGID_00000065761914471574694680000012248377650102094748_" gradientUnits="userSpaceOnUse" x1="-4882.4673" y1="2210.1128" x2="-4812.606" y2="2670.3752" gradientTransform="matrix(1 0 0 1 9211.8379 0)">
							<stop  offset="3.200000e-07" style="stop-color:#FF8888"/>
							<stop  offset="1" style="stop-color:#F24E4E"/>
						</linearGradient>
						<path style="fill:url(#SVGID_00000065761914471574694680000012248377650102094748_);" d="M4525.417,2623.615
							c-48.618,58.988-297.733,60.224-297.733,60.224c-8.625,0-8.625-69.49,0-69.49c0,0,179.368,0.02,207.809-44.88
							c38.344-60.534-50.707-217.726-77.158-276.045c-7.227-16.128-8.773-87.479,8.772-89.026
							c24.517-2.066,84.641,48.255,102.836,67.092C4528.264,2332.002,4583.241,2553.458,4525.417,2623.615z"/>
						
							<linearGradient id="SVGID_00000182521595229660292690000017450783916961514631_" gradientUnits="userSpaceOnUse" x1="10766.667" y1="2011.2841" x2="10766.9932" y2="2022.1165" gradientTransform="matrix(-1 0 0 1 14906.1357 0)">
							<stop  offset="0" style="stop-color:#771E24"/>
							<stop  offset="1" style="stop-color:#47090E"/>
						</linearGradient>
						<path style="fill:url(#SVGID_00000182521595229660292690000017450783916961514631_);" d="M4133.869,2016.701
							c0,2.998,2.457,5.419,5.454,5.419c2.963,0,5.418-2.421,5.418-5.419c0-2.998-2.455-5.419-5.418-5.419
							C4136.326,2011.282,4133.869,2013.703,4133.869,2016.701z"/>
						
							<linearGradient id="SVGID_00000099641937039453456220000017368612621564064158_" gradientUnits="userSpaceOnUse" x1="10739.0576" y1="1996.9458" x2="10781.416" y2="1996.9458" gradientTransform="matrix(-1 0 0 1 14906.1357 0)">
							<stop  offset="0" style="stop-color:#771E24"/>
							<stop  offset="1" style="stop-color:#47090E"/>
						</linearGradient>
						<path style="fill:url(#SVGID_00000099641937039453456220000017368612621564064158_);" d="M4136.167,1986.73
							c-2.053-0.328-4.169-0.553-6.198-0.1c-2.03,0.453-3.982,1.691-4.816,3.596c-1.047,2.391-0.084,5.29,1.705,7.191
							c1.789,1.901,4.253,2.998,6.686,3.946c8.018,3.125,16.46,5.157,25.022,6.021c1.712,0.173,3.506,0.288,5.093-0.38
							c1.854-0.78,3.808-3.333,3.353-5.47c-0.448-2.099-3.753-3.711-5.382-4.798c-4.864-3.247-10.172-5.826-15.729-7.646
							C4142.724,1988.049,4139.467,1987.257,4136.167,1986.73z"/>
						<g>
							<path style="fill:#EC8B73;" d="M4117.482,2108.531c0.073,0.643,0.143,1.286,0.216,1.93c0.213,1.787,0.429,3.501,0.642,5.288
								c16.581-2.717,30.228-14.221,31.086-14.936c1.5-1.357,1.644-3.573,0.356-5.073c-1.284-1.5-3.573-1.644-5-0.358
								C4144.566,2095.525,4132.204,2106.029,4117.482,2108.531z"/>
						</g>
					</g>
					<g>
						<g>
							<g>
								<g>
									
										<linearGradient id="SVGID_00000169527001072163822200000007416635196830992284_" gradientUnits="userSpaceOnUse" x1="10884.1943" y1="1651.5803" x2="10850.9072" y2="993.8194" gradientTransform="matrix(-1 0 0 1 15044.0361 0)">
										<stop  offset="0" style="stop-color:#E7ECFF"/>
										<stop  offset="1" style="stop-color:#C2D5FF"/>
									</linearGradient>
									<path style="fill:url(#SVGID_00000169527001072163822200000007416635196830992284_);" d="M4459.217,1160.648v363.385
										c0,20.526-16.639,37.165-37.165,37.165h-312.88l-86.11,74.527c-9.772,8.458-24.961,1.516-24.961-11.408v-63.119h-69.17
										c-20.526,0-37.165-16.639-37.165-37.165v-363.385c0-20.526,16.639-37.165,37.165-37.165h493.121
										C4442.578,1123.483,4459.217,1140.122,4459.217,1160.648z"/>
								</g>
							</g>
						</g>
						<path style="fill:#FFFFFF;" d="M4321.15,1335.89c0,80.454-65.255,145.71-145.61,145.71
							c-80.454,0-145.709-65.256-145.709-145.71s65.255-145.71,145.709-145.71C4255.896,1190.18,4321.15,1255.436,4321.15,1335.89z"
							/>
						
							<linearGradient id="SVGID_00000052067950399960680890000012921286239813684364_" gradientUnits="userSpaceOnUse" x1="4062.9985" y1="1335.8898" x2="4287.9839" y2="1335.8898">
							<stop  offset="0" style="stop-color:#E7ECFF"/>
							<stop  offset="1" style="stop-color:#C2D5FF"/>
						</linearGradient>
						<path style="fill:url(#SVGID_00000052067950399960680890000012921286239813684364_);" d="M4287.984,1335.89
							c0,62.135-50.396,112.532-112.455,112.532c-62.134,0-112.531-50.397-112.531-112.532c0-62.135,50.396-112.532,112.531-112.532
							C4237.587,1223.358,4287.984,1273.755,4287.984,1335.89z"/>
					</g>
				</g>
			</g>
			<g>
				<path style="fill:#C2D5FF;" d="M2774.814,2952.958c-1.338-0.559-2.455-1.479-3.352-2.762c-0.889-1.282-1.338-2.652-1.338-4.099
					c0-1.896,0.645-3.541,1.928-4.933c1.282-1.393,2.927-2.093,4.933-2.093c1.117,0,2.172,0.228,3.179,0.669
					c10.26,4.579,21.244,6.861,32.96,6.861c19.513,0,29.27-6.413,29.27-19.238c0-3.344-1.251-6.137-3.761-8.364
					c-2.51-2.235-5.602-3.989-9.285-5.272s-8.923-2.817-15.729-4.603c-9.033-2.337-16.335-4.595-21.913-6.775
					c-5.579-2.172-10.37-5.437-14.383-9.788c-4.021-4.343-6.027-10.142-6.027-17.397c0-6.358,1.676-12.125,5.02-17.31
					c3.344-5.185,8.277-9.316,14.808-12.385c6.523-3.061,14.352-4.595,23.503-4.595c12.267,0,23.361,1.833,33.291,5.516
					c3.124,1.117,4.682,3.344,4.682,6.696c0,1.786-0.614,3.399-1.841,4.847c-1.228,1.456-2.841,2.179-4.847,2.179
					c-0.669,0-1.566-0.228-2.675-0.669c-8.702-3.014-17.68-4.516-26.933-4.516c-8.813,0-15.98,1.668-21.504,5.012
					c-5.516,3.352-8.278,8.034-8.278,14.053c0,4.021,1.306,7.278,3.934,9.788c2.612,2.51,5.909,4.461,9.867,5.854
					c3.958,1.4,9.34,2.872,16.146,4.438c8.805,2.116,15.918,4.241,21.331,6.357c5.406,2.117,10.032,5.406,13.88,9.867
					c3.847,4.461,5.775,10.489,5.775,18.066c0,6.247-1.786,11.857-5.358,16.814c-3.564,4.965-8.584,8.844-15.052,11.629
					s-13.943,4.178-22.417,4.178C2800.465,2960.984,2787.191,2958.309,2774.814,2952.958z"/>
				<path style="fill:#C2D5FF;" d="M2884.136,2949.363c-7.64-7.75-11.456-18.656-11.456-32.709c0-7.916,1.448-15.225,4.343-21.913
					c2.904-6.696,7.365-12.102,13.384-16.232c6.027-4.123,13.439-6.185,22.251-6.185c8.254,0,15.391,1.92,21.418,5.768
					c6.019,3.848,10.591,8.978,13.715,15.39c3.124,6.421,4.682,13.416,4.682,21.001c0,2.117-0.693,3.903-2.085,5.351
					c-1.401,1.448-3.265,2.171-5.61,2.171h-56.707c0.889,7.813,3.784,13.888,8.694,18.239c4.91,4.351,11.763,6.523,20.576,6.523
					c4.69,0,8.789-0.44,12.298-1.337c3.517-0.889,6.94-2.172,10.292-3.848c0.889-0.441,1.896-0.669,3.006-0.669
					c1.786,0,3.352,0.614,4.69,1.841c1.338,1.227,2.006,2.785,2.006,4.682c0,2.455-1.456,4.516-4.351,6.192
					c-4.351,2.455-8.647,4.296-12.881,5.516c-4.241,1.228-9.702,1.841-16.397,1.841
					C2902.399,2960.984,2891.777,2957.113,2884.136,2949.363z M2937.421,2909.628c-0.338-5.461-1.755-10.04-4.265-13.715
					c-2.51-3.682-5.61-6.389-9.285-8.12c-3.682-1.723-7.42-2.589-11.212-2.589c-3.792,0-7.53,0.865-11.205,2.589
					c-3.682,1.731-6.751,4.438-9.206,8.12c-2.455,3.675-3.848,8.254-4.178,13.715H2937.421z"/>
				<path style="fill:#C2D5FF;" d="M2980.665,2957.979c-4.186-2.006-7.506-4.941-9.953-8.789c-2.455-3.848-3.682-8.278-3.682-13.298
					c0-8.254,3.265-14.832,9.788-19.742c6.523-4.902,16.083-7.357,28.688-7.357h20.245v-1.338c0-7.365-1.818-12.66-5.437-15.894
					c-3.627-3.234-9.285-4.855-16.98-4.855c-4.241,0-8.002,0.338-11.291,1.007c-3.297,0.669-6.948,1.668-10.96,3.013
					c-0.897,0.22-1.621,0.331-2.172,0.331c-1.676,0-3.124-0.614-4.351-1.841c-1.228-1.227-1.841-2.73-1.841-4.516
					c0-3.014,1.448-5.13,4.351-6.358c9.473-4.013,19.128-6.019,28.94-6.019c7.695,0,14.195,1.558,19.49,4.682
					c5.295,3.124,9.198,7.168,11.708,12.133c2.51,4.957,3.769,10.339,3.769,16.138v47.344c0,2.124-0.756,3.91-2.258,5.358
					c-1.511,1.448-3.321,2.172-5.437,2.172c-2.125,0-3.911-0.724-5.358-2.172c-1.448-1.448-2.172-3.234-2.172-5.358v-4.351
					c-8.254,8.482-18.735,12.715-31.45,12.715C2989.391,2960.984,2984.844,2959.985,2980.665,2957.979z M3014.208,2944.004
					c4.572-2.392,8.419-5.374,11.543-8.946v-14.053h-18.239c-16.838,0-25.258,4.406-25.258,13.219c0,4.013,1.361,7.247,4.1,9.702
					c2.73,2.455,7.278,3.675,13.636,3.675C3004.892,2947.6,3009.629,2946.404,3014.208,2944.004z"/>
				<path style="fill:#C2D5FF;" d="M3068.744,2957.979c-1.448-1.448-2.172-3.234-2.172-5.358v-71.767
					c0-2.116,0.724-3.934,2.172-5.437s3.234-2.258,5.35-2.258c2.125,0,3.934,0.755,5.437,2.258c1.511,1.503,2.258,3.321,2.258,5.437
					v7.192c7.805-10.481,16.563-15.721,26.272-15.721h0.834c2.116,0,3.871,0.724,5.272,2.172c1.393,1.456,2.085,3.234,2.085,5.358
					c0,2.117-0.724,3.848-2.172,5.185s-3.289,2.006-5.524,2.006h-0.834c-5.351,0-10.26,1.314-14.722,3.926
					c-4.461,2.628-8.199,6.224-11.212,10.795v50.853c0,2.124-0.748,3.91-2.258,5.358c-1.503,1.448-3.313,2.172-5.437,2.172
					C3071.978,2960.15,3070.191,2959.427,3068.744,2957.979z"/>
				<path style="fill:#C2D5FF;" d="M3145.365,2955.634c-6.806-3.564-12.243-8.702-16.311-15.39
					c-4.076-6.696-6.106-14.556-6.106-23.589s2.03-16.893,6.106-23.589c4.068-6.688,9.505-11.818,16.311-15.39
					c6.798-3.564,14.218-5.351,22.244-5.351c5.917,0,11.016,0.748,15.312,2.258c4.288,1.503,8.277,3.431,11.96,5.768
					c2.227,1.456,3.344,3.407,3.344,5.854c0,1.676-0.637,3.21-1.92,4.603c-1.282,1.4-2.762,2.093-4.438,2.093
					c-1.228,0-2.455-0.338-3.675-1.007c-3.682-1.888-6.838-3.257-9.458-4.099c-2.62-0.834-5.885-1.251-9.788-1.251
					c-9.592,0-17.122,2.762-22.582,8.277c-5.46,5.524-8.199,12.802-8.199,21.835s2.738,16.311,8.199,21.835
					c5.461,5.516,12.991,8.277,22.582,8.277c3.903,0,7.168-0.417,9.788-1.251c2.62-0.842,5.775-2.203,9.458-4.099
					c1.22-0.669,2.447-1.007,3.675-1.007c1.676,0,3.155,0.7,4.438,2.093c1.282,1.393,1.92,2.927,1.92,4.603
					c0,2.455-1.117,4.406-3.344,5.854c-3.683,2.337-7.672,4.265-11.96,5.768c-4.296,1.511-9.395,2.258-15.312,2.258
					C3159.583,2960.984,3152.164,2959.206,3145.365,2955.634z"/>
				<path style="fill:#C2D5FF;" d="M3219.469,2957.979c-1.448-1.448-2.172-3.234-2.172-5.358v-108.567
					c0-2.125,0.724-3.934,2.172-5.437c1.448-1.511,3.234-2.258,5.351-2.258c2.125,0,3.934,0.747,5.437,2.258
					c1.511,1.503,2.258,3.313,2.258,5.437v43.661c4.241-4.682,8.813-8.419,13.722-11.212c4.902-2.785,10.709-4.178,17.397-4.178
					c6.129,0,11.464,1.448,15.981,4.351c4.516,2.896,7.97,6.853,10.37,11.873c2.392,5.02,3.596,10.543,3.596,16.563v47.509
					c0,2.124-0.755,3.91-2.258,5.358c-1.503,1.448-3.32,2.172-5.437,2.172c-2.125,0-3.903-0.724-5.35-2.172
					c-1.456-1.448-2.18-3.234-2.18-5.358v-45.833c0-13.612-6.137-20.41-18.404-20.41c-5.579,0-10.567,1.448-14.973,4.351
					c-4.406,2.896-8.561,6.798-12.463,11.708v50.184c0,2.124-0.748,3.91-2.258,5.358c-1.503,1.448-3.313,2.172-5.437,2.172
					C3222.704,2960.15,3220.917,2959.427,3219.469,2957.979z"/>
				<path style="fill:#C2D5FF;" d="M3320.263,2957.058c-1.841-1.841-2.762-4.044-2.762-6.61v-1.007c0-2.565,0.921-4.768,2.762-6.609
					c1.841-1.833,4.036-2.754,6.609-2.754h1.668c2.565,0,4.768,0.921,6.609,2.754c1.841,1.841,2.762,4.044,2.762,6.609v1.007
					c0,2.565-0.921,4.768-2.762,6.61c-1.841,1.841-4.044,2.762-6.609,2.762h-1.668
					C3324.3,2959.82,3322.104,2958.899,3320.263,2957.058z"/>
			</g>
		</g>
		<g>
			<path style="fill:#FFFFFF;" d="M4217.962,1377.067c-3.415,5.15-8.262,9.249-14.548,12.302
				c-6.287,3.053-13.557,4.819-21.819,5.299v12.751c0,1.554-0.512,2.841-1.527,3.859c-1.023,1.015-2.368,1.527-4.044,1.527
				c-1.558,0-2.841-0.48-3.856-1.436c-1.022-0.96-1.526-2.274-1.526-3.95v-12.751c-12.936-0.838-25.029-3.651-36.281-8.443
				c-1.432-0.598-2.636-1.585-3.588-2.962c-0.96-1.373-1.44-2.84-1.44-4.398c0-2.034,0.685-3.8,2.062-5.299
				c1.377-1.495,3.147-2.242,5.303-2.242c1.196,0,2.337,0.24,3.407,0.716c9.702,4.312,19.875,6.708,30.537,7.184v-41.305
				c-8.144-2.156-14.997-4.489-20.568-7.003c-5.563-2.514-10.205-6.074-13.919-10.685c-3.706-4.607-5.563-10.445-5.563-17.511
				c0-6.224,1.526-11.972,4.58-17.24c3.053-5.268,7.601-9.635,13.644-13.109c6.051-3.474,13.321-5.567,21.827-6.287v-12.57
				c0-1.558,0.504-2.876,1.526-3.954c1.015-1.078,2.298-1.617,3.856-1.617c1.558,0,2.872,0.539,3.95,1.617
				c1.078,1.078,1.621,2.396,1.621,3.954v12.389c11.731,0.48,22.149,2.455,31.245,5.929c3.352,1.196,5.028,3.592,5.028,7.184
				c0,1.916-0.661,3.651-1.975,5.205c-1.314,1.558-3.053,2.337-5.209,2.337c-0.716,0-1.676-0.24-2.872-0.72
				c-8.144-2.872-16.878-4.489-26.217-4.847v42.741c8.616,2.038,15.768,4.249,21.457,6.645c5.689,2.396,10.449,5.956,14.281,10.685
				c3.832,4.729,5.744,10.984,5.744,18.766C4223.077,1366.177,4221.37,1371.921,4217.962,1377.067z M4152.946,1313.676
				c4.013,2.872,9.906,5.327,17.696,7.361v-39.507c-7.184,0.96-12.936,3.139-17.247,6.554c-4.304,3.411-6.46,7.872-6.46,13.38
				C4146.935,1306.732,4148.934,1310.8,4152.946,1313.676z M4206.916,1358.75c0-4.67-2.125-8.289-6.374-10.862
				c-4.257-2.577-10.567-5-18.947-7.274v38.61C4198.473,1378.027,4206.916,1371.205,4206.916,1358.75z"/>
		</g>
	</g>
</g>
</svg>
