<?xml version="1.0" encoding="utf-8"?>
<!-- Generator: Adobe Illustrator 27.5.0, SVG Export Plug-In . SVG Version: 6.00 Build 0)  -->
<svg version="1.1" xmlns="http://www.w3.org/2000/svg" xmlns:xlink="http://www.w3.org/1999/xlink" x="0px" y="0px"
	 viewBox="0 0 2750 2000" style="enable-background:new 0 0 2750 2000;" xml:space="preserve">
<g id="Layer_1">
	<rect style="fill:#FFFFFF;" width="2750" height="2000"/>
</g>
<g id="Layer_2">
	<g>
		<g>
			<path style="opacity:0.5;fill:#D8E9FF;" d="M2701.66,816.102c0,24.816-7.397,47.86-20.112,67.12
				c-1.227,1.841-2.489,3.647-3.784,5.42c-5.897,7.909-12.681,15.068-20.249,21.374c-21.135,17.488-48.235,27.987-77.756,27.987
				h-366.282c-22.839,0-43.497,9.238-58.428,24.203c-14.965,14.93-24.203,35.588-24.203,58.428c0,45.644,36.986,82.63,82.631,82.63
				h251.438c27.816,0,53.042,11.283,71.279,29.555c18.271,18.237,29.555,43.463,29.555,71.313
				c0,55.667-45.167,100.834-100.834,100.834h-206.134c-17.931,0-34.191,7.26-45.917,19.021
				c-11.795,11.761-19.056,27.987-19.056,45.918c0,35.895,29.112,64.972,64.973,64.972h94.528c1.739,0,3.477,0.034,5.216,0.136
				c0.375,0,0.716,0,1.057,0.034c1.602,0.068,3.204,0.171,4.806,0.307c0.17,0.034,0.307,0.034,0.477,0.068
				c1.807,0.171,3.613,0.375,5.42,0.647c1.841,0.239,3.647,0.545,5.454,0.886h0.102c1.534,0.306,3.034,0.613,4.534,0.955
				c1.159,0.239,2.318,0.511,3.477,0.852c0.92,0.204,1.807,0.443,2.693,0.716c1.977,0.545,3.954,1.159,5.863,1.807
				c0.818,0.273,1.636,0.545,2.42,0.852c2.147,0.75,4.261,1.602,6.306,2.488c1.704,0.716,3.375,1.466,5.011,2.284
				c1.602,0.716,3.136,1.5,4.636,2.319c0.75,0.409,1.5,0.817,2.216,1.261c0.886,0.477,1.772,0.989,2.659,1.5
				c0.511,0.307,1.023,0.613,1.534,0.955c1.295,0.784,2.591,1.602,3.852,2.488c0.205,0.102,0.375,0.205,0.545,0.341
				c1.432,0.954,2.864,1.977,4.261,2.999c0.375,0.273,0.716,0.546,1.057,0.818c1.091,0.818,2.182,1.67,3.238,2.557
				c0.648,0.478,1.295,1.023,1.909,1.602c0.58,0.443,1.159,0.954,1.705,1.466c0.716,0.579,1.397,1.193,2.114,1.874
				c1.227,1.125,2.454,2.284,3.647,3.477c22.055,22.056,35.69,52.531,35.69,86.21c0,1.807-0.034,3.614-0.136,5.386
				c0,0.307,0,0.579-0.034,0.886c-0.136,3.068-0.409,6.068-0.784,9.067c0,0.068-0.034,0.136-0.034,0.171
				c-0.102,0.75-0.205,1.5-0.307,2.25c-0.648,4.5-1.534,8.897-2.693,13.158c-0.17,0.75-0.375,1.5-0.613,2.25
				c-0.273,1.022-0.546,2.045-0.886,3.068c-0.239,0.784-0.477,1.602-0.784,2.386c-1.602,4.875-3.545,9.647-5.727,14.215
				c-0.648,1.33-1.33,2.659-2.011,3.955c-0.682,1.295-1.364,2.557-2.079,3.783c-0.273,0.478-0.545,0.955-0.818,1.398
				c-0.75,1.261-1.5,2.489-2.284,3.715c-0.034,0.034-0.034,0.068-0.068,0.102c-0.92,1.466-1.875,2.898-2.864,4.295
				c-0.136,0.171-0.239,0.341-0.341,0.477c-1.909,2.659-3.92,5.284-6.034,7.772c-1.091,1.329-2.216,2.59-3.409,3.886
				c-1.159,1.295-2.352,2.522-3.579,3.75c-1.227,1.227-2.488,2.42-3.75,3.613c-5.079,4.67-10.533,8.932-16.363,12.715
				c-0.205,0.136-0.409,0.273-0.614,0.41c-1.159,0.75-2.352,1.466-3.545,2.181c-1.773,1.057-3.579,2.08-5.454,3.034
				c-1.295,0.682-2.557,1.329-3.852,1.977c-1.772,0.818-3.579,1.637-5.386,2.421c-1.398,0.58-2.829,1.159-4.295,1.704
				c-1.466,0.58-2.932,1.091-4.431,1.603c-0.614,0.204-1.227,0.409-1.841,0.579c-3.306,1.057-6.681,1.977-10.158,2.727
				c-1.33,0.307-2.693,0.579-4.057,0.852c-0.068,0.034-0.17,0.034-0.273,0.034c-1.807,0.34-3.613,0.648-5.42,0.886
				c-1.773,0.272-3.545,0.477-5.352,0.647c-0.17,0-0.375,0.034-0.614,0.068c-1.568,0.136-3.136,0.238-4.738,0.307
				c-0.341,0.034-0.716,0.034-1.057,0.034c-1.739,0.102-3.477,0.136-5.216,0.136H358.888c-72.472,0-131.207-58.769-131.207-131.207
				v-59.587c0-14.624-5.931-27.884-15.51-37.497c-9.613-9.579-22.873-15.51-37.497-15.51c-26.044,0-47.178-21.135-47.178-47.178
				v-35.589c0-26.043,21.135-47.144,47.178-47.144H305.13c27.816,0,53.042-11.283,71.279-29.555
				c18.272-18.237,29.555-43.428,29.555-71.279c0-55.701-45.167-100.868-100.834-100.868H130.971
				c-22.805,0-43.463-9.238-58.428-24.202c-14.965-14.931-24.203-35.588-24.203-58.428c0-22.84,9.272-43.498,24.237-58.462
				c14.965-14.931,35.588-24.169,58.394-24.169h123.742c27.407,0,52.223-11.112,70.188-29.044
				c17.931-17.965,29.044-42.78,29.044-70.188c0-79.835,64.734-144.57,144.57-144.57h463.059c23.214,0,44.213-9.408,59.45-24.612
				c15.203-15.203,24.612-36.236,24.612-59.45c0-46.428-37.634-84.062-84.062-84.062H792.767c-29.282,0-55.837-11.863-75.063-31.089
				c-19.192-19.226-31.089-45.747-31.089-75.063c0-58.632,47.554-106.152,106.152-106.152h1263.084c0.886,0,1.738,0,2.625,0.068
				c14.419,0.477,27.85,5.011,39.1,12.544c20.214,13.499,33.543,36.509,33.543,62.654v95.96c0,11.352,4.602,21.613,12.033,29.044
				c7.465,7.431,17.726,12.033,29.077,12.033c16.772,0,31.975,6.818,42.952,17.794c11.01,11.01,17.828,26.214,17.828,42.986
				c0,58.052,46.088,105.368,103.698,107.276c1.193,0.035,2.42,0.068,3.647,0.068h239.404
				C2647.084,694.2,2701.66,748.776,2701.66,816.102z"/>
			<path style="fill:#DCEAFB;" d="M2628.75,910.002h28.771c-21.135,17.487-48.235,27.987-77.756,27.987h-366.282
				c-22.839,0-43.497,9.238-58.428,24.203c-14.965,14.931-24.203,35.589-24.203,58.428c0,45.645,36.986,82.631,82.631,82.631
				h251.438c27.816,0,53.042,11.283,71.279,29.555c18.271,18.238,29.555,43.463,29.555,71.314
				c0,55.667-45.167,100.834-100.834,100.834h-206.134c-17.931,0-34.191,7.261-45.918,19.021
				c-11.794,11.761-19.055,27.987-19.055,45.917c0,35.895,29.112,64.973,64.973,64.973h94.528c33.679,0,64.155,13.635,86.21,35.691
				c22.055,22.055,35.691,52.531,35.691,86.21c0,67.325-54.576,121.901-121.901,121.901H358.893
				c-72.472,0-131.207-58.769-131.207-131.207v-59.587c0-14.624-5.931-27.884-15.51-37.497c-9.613-9.579-22.874-15.51-37.497-15.51
				c-26.044,0-47.179-21.135-47.179-47.179v-35.589c0-26.044,21.135-47.145,47.179-47.145h130.457
				c27.816,0,53.042-11.283,71.279-29.555c18.271-18.237,29.555-43.429,29.555-71.279c0-55.701-45.167-100.868-100.834-100.868
				H130.977c-22.805,0-43.463-9.238-58.428-24.203c-14.965-14.931-24.203-35.589-24.203-58.428s9.272-43.497,24.237-58.462v20.351
				h44.929v-26.794l52.974,0.238v-43.463h10.67v-8.59h1.398v8.59h40.94v0.034h8.181V903.9h1.398v8.624h9.852v86.381h63.098v31.805
				h35.043v-18.476h32.521v-73.291h16.226v-34.191h2.454v34.191h38.861v-64.086h3.818v64.086h25.703v-0.886h-0.034v-8.147h0.034
				v-7.704h-0.034v-12.817h0.034v-8.147h-0.034v-12.817h0.034v-8.181h-0.034v-12.817h0.034v-8.829h-0.034v-12.817h0.034V834.53
				h-0.034v-12.817h0.034v-8.488h7.67v-9.579h1.227v9.579h56.757v-9.579h1.227v9.579h10.363v67.018l7.295,0.034v-0.034h-0.068
				v-12.817h0.068v-8.829h-0.068v-12.817h0.068v-8.795h-0.068v-12.817h0.068v-0.034h68.825v0.034h11.829
				c0.614,0.341,1.227,0.682,1.841,1.023v85.46h12.681v-12.34h145.251v96.027h44.383V816.736h9.647v-12.408h1.739v12.408h35.009
				v-12.408h1.739v12.408h49.633v-12.408h1.739v12.408h31.225v-12.408h1.704v12.408h12.851v165.773h49.019v-26.794l57.814,0.238
				v-43.463h11.658v-8.59h1.534v8.59h44.656v0.034h8.931V903.9h1.534v8.624h10.772v86.381h68.825v31.805h38.282v-18.476h35.486
				v-73.291h17.726v-34.191h2.659v34.191h42.44v-64.086h4.159v64.086h48.44v-113.14h133.082v96.028h40.668V744.23h8.829v-12.409
				h1.568v12.409h32.111v-12.409h1.602v12.409h45.44v-12.409h1.602v12.409h28.6v-12.409h1.568v12.409h11.761v165.773h44.929v-26.794
				l52.974,0.239v-43.463h10.67v-8.59h1.398v8.59h40.94v0.034h8.181v-8.624h1.398v8.624h9.886v86.38h63.064v31.805h35.077v-18.476
				h32.52v-73.29h16.226v-34.191h2.42v34.191h38.861V802.35h3.818v64.087h25.737v-0.886h-0.034v-8.147h0.034v-7.704h-0.034v-12.817
				h0.034v-8.147h-0.034v-12.817h0.034v-8.181h-0.034v-12.817h0.034v-8.829h-0.034v-12.817h0.034v-11.249h-0.034v-12.817h0.034
				v-8.488h7.636v-9.579h1.227v9.579h56.792v-9.579h1.193v9.579h10.363v67.018l7.295,0.034v-0.034h-0.068v-12.817h0.068v-8.829
				h-0.068v-12.817h0.068v-8.795h-0.068v-12.817h0.068v-0.034h68.825v0.034h11.829c0.614,0.341,1.227,0.682,1.841,1.023v85.426
				h12.681v-12.306h145.286v96.028h44.349V744.23h9.647v-12.409h1.739v12.409h35.043v-12.409h1.705v12.409h49.633v-12.409h1.739
				v12.409h31.225v-12.409h1.704v12.409h12.851V910.002z"/>
			<path style="fill:#DCEAFB;" d="M2681.553,883.209c-1.227,1.841-2.488,3.647-3.784,5.42v-5.42H2681.553z"/>
		</g>
		<g>
			<path style="fill:#1D3B77;" d="M2531.256,1686.228H218.743c-2.085,0-3.775-1.691-3.775-3.775c0-2.084,1.69-3.775,3.775-3.775
				h2312.513c2.085,0,3.775,1.691,3.775,3.775C2535.031,1684.537,2533.341,1686.228,2531.256,1686.228z"/>
		</g>
		<g>
			<g>
				<path style="fill:#AA6531;" d="M1494.009,897.867c0-17.26-13.992-31.252-31.252-31.252h-309.482
					c-11.157,0-20.201,9.218-20.201,20.588v10.664v191.08v0c0,20.372,16.515,36.887,36.887,36.887h303.846
					c11.157,0,20.201-9.218,20.201-20.589v-16.299V897.867L1494.009,897.867z"/>
				<g>
					<path style="fill:#F5B014;" d="M1477.489,1074.778v15.26c0,10.65-8.634,19.276-19.276,19.276h-305.862
						c-10.642,0-19.276-8.626-19.276-19.276v-15.26l133.74-89l38.464,25.854l38.472-25.862L1477.489,1074.778z"/>
					<polygon style="fill:#F9C82B;" points="1266.814,985.778 1133.074,1074.778 1133.074,895.876 					"/>
					<polygon style="fill:#F9C82B;" points="1477.489,895.876 1477.489,1074.778 1343.749,985.77 					"/>
					<path style="fill:#FFDE42;" d="M1477.489,885.892v9.984l-133.74,89.894l-38.472,25.862l-38.464-25.854l-133.74-89.902v-9.984
						c0-10.65,8.634-19.276,19.276-19.276h305.862C1468.854,866.616,1477.489,875.242,1477.489,885.892z"/>
				</g>
			</g>
			<g>
				<path style="fill:#AF4852;" d="M1052.01,639.922v196.945c0,18.901-15.322,34.224-34.224,34.224H820.841
					c-26.915,0-48.734-21.819-48.734-48.734l0,0c0,17.786,14.427,32.214,32.214,32.214h198.955
					c17.791,0,32.214-14.423,32.214-32.214V623.402c0-17.786-14.427-32.214-32.214-32.214h0
					C1030.191,591.188,1052.01,613.007,1052.01,639.922z"/>
				<g>
					<g>
						<linearGradient id="SVGID_1_" gradientUnits="userSpaceOnUse" x1="764.826" y1="566.9878" x2="947.7529" y2="772.1843">
							<stop  offset="0" style="stop-color:#FA9090"/>
							<stop  offset="1" style="stop-color:#FF595A"/>
						</linearGradient>
						<path style="fill:url(#SVGID_1_);" d="M1035.49,623.402v198.955c0,17.786-14.427,32.214-32.214,32.214H804.322
							c-17.787,0-32.214-14.427-32.214-32.214V623.402c0-17.786,14.427-32.214,32.214-32.214h198.955
							C1021.063,591.188,1035.49,605.615,1035.49,623.402z"/>
						<g>
							<path style="fill:#FFFFFF;" d="M959.24,648.667v0.08l-78.494,15.992c-0.614,0.125-1.054,0.665-1.054,1.291v10.325v10.474
								v78.134c-5.738-2.854-14.506-2.336-22.768,1.96c-11.476,5.967-17.595,16.927-13.668,24.479
								c3.927,7.552,16.413,8.837,27.889,2.87c9.578-4.98,15.865-13.461,15.821-20.486v-87.486c0-0.551,0.388-1.026,0.929-1.136
								l69.956-14.196c0.718-0.146,1.39,0.403,1.39,1.136v72.972c-5.739-2.854-14.506-2.336-22.768,1.96
								c-11.476,5.967-17.595,16.927-13.668,24.479c3.927,7.552,16.413,8.837,27.889,2.87c9.578-4.98,15.4-13.433,14.788-20.486
								h0.056V649.057c0-0.827-0.753-1.449-1.565-1.294L959.24,648.667z"/>
						</g>
					</g>
				</g>
			</g>
			<g>
				<path style="fill:#1F664E;" d="M1510.409,466.615v196.89c0,18.917-15.335,34.251-34.251,34.251h-196.945
					c-26.915,0-48.734-21.819-48.734-48.734v0c0,17.786,14.427,32.214,32.241,32.214h198.927c17.806,0,32.241-14.435,32.241-32.241
					V450.068c0-17.786-14.427-32.214-32.241-32.214l0,0C1488.578,417.854,1510.409,439.685,1510.409,466.615z"/>
				<g>
					<g>
						
							<linearGradient id="SVGID_00000171680651368969324350000008547591155313250973_" gradientUnits="userSpaceOnUse" x1="1199.9487" y1="356.1108" x2="1406.7358" y2="602.6646">
							<stop  offset="0" style="stop-color:#55C793"/>
							<stop  offset="1" style="stop-color:#1EB06F"/>
						</linearGradient>
						<path style="fill:url(#SVGID_00000171680651368969324350000008547591155313250973_);" d="M1493.889,450.068v198.955
							c0,17.786-14.427,32.214-32.241,32.214h-198.927c-17.814,0-32.241-14.427-32.241-32.214V450.068
							c0-17.786,14.427-32.214,32.241-32.214h198.927C1479.462,417.854,1493.889,432.282,1493.889,450.068z"/>
						<path style="fill:#FFFFFF;" d="M1362.184,489.221c-33.317,0-60.312,27.019-60.312,60.336
							c0,33.318,26.995,60.312,60.312,60.312s60.312-26.995,60.312-60.312C1422.497,516.24,1395.502,489.221,1362.184,489.221z
							 M1343.823,582.51c0-40.613,0.073-16.245,0-65.906l50.171,32.953L1343.823,582.51z"/>
					</g>
				</g>
			</g>
			<g>
				<path style="fill:#ACBCF8;" d="M1436.224,1221.241H869.332c-8.462,0-15.749,5.926-17.501,14.204l-85.017,405.852h603.417
					l77.73-371.149l5.742-27.394C1456.031,1231.664,1447.568,1221.241,1436.224,1221.241z M1422.043,1270.149l-72.427,345.785
					H798.058l72.426-345.785l4.935-23.543h551.558L1422.043,1270.149z"/>
				<polygon style="fill:#5658D1;" points="1426.977,1246.606 1422.043,1270.149 870.484,1270.149 875.419,1246.606 				"/>
				<polygon style="fill:#FFFFFF;" points="1422.043,1270.149 1349.616,1615.933 798.058,1615.933 870.484,1270.149 				"/>
				<path style="fill:#3D42AD;" d="M1370.444,1641.298c0,11.437-4.635,21.813-12.152,29.307
					c-7.494,7.517-17.847,12.152-29.307,12.152h-187.119c11.437,0,21.813-4.635,29.307-12.152
					c7.517-7.494,12.152-17.87,12.152-29.307H1370.444z"/>
				<path style="fill:#5658D1;" d="M1185.411,1641.298c0,11.437-4.635,21.813-12.152,29.307
					c-7.494,7.517-17.87,12.152-29.307,12.152H567.029c-22.897,0-41.459-18.562-41.459-41.459H1185.411z"/>
				<path style="fill:#D1DFE2;" d="M938.874,1641.298c0,2.891-1.171,5.513-3.071,7.407c-1.894,1.9-4.516,3.071-7.407,3.071h-145.81
					c-5.787,0-10.478-4.691-10.478-10.478H938.874z"/>
				<g>
					<g>
						<path style="fill:#F79647;" d="M1038.571,1293.01l-10.697,51.07h245.793l6.956-33.208h-154.721
							c-4.446,0-7.296-3.604-6.364-8.051l0,0c1.135-5.419-2.338-9.812-7.756-9.812H1038.571z"/>
						<polygon style="fill:#C1DEF6;" points="1264.257,1349.364 1034.062,1349.364 1040.518,1318.546 1270.713,1318.546 						"/>
						<polygon style="fill:#FCFEFB;" points="1267.78,1349.364 1030.792,1349.364 1035.429,1327.225 1272.417,1327.225 						"/>
						<polygon style="fill:#FBB44A;" points="1281.8,1336.781 1020.59,1336.781 997.458,1488.388 1243.09,1488.388 						"/>
					</g>
					<g>
						<g>
							<g>
								<g>
									<g>
										<path style="fill:#3D42AD;" d="M1261.727,1555.454h-312.67c-1.955,0-3.872,1.585-4.282,3.54l-6.396,30.537
											c-0.41,1.955,0.844,3.541,2.799,3.541h312.67c1.955,0,3.872-1.585,4.282-3.541l6.396-30.537
											C1264.935,1557.039,1263.682,1555.454,1261.727,1555.454z M1253.841,1588.586H943.063l6-28.646h310.779L1253.841,1588.586
											z"/>
									</g>
								</g>
								<g>
									<polygon style="fill:#77BA2C;" points="966.323,1562.433 961.367,1586.093 946.077,1586.093 951.033,1562.433 									"/>
								</g>
								<g>
									<polygon style="fill:#77BA2C;" points="986.71,1562.433 981.754,1586.093 966.464,1586.093 971.42,1562.433 									"/>
								</g>
								<g>
									<polygon style="fill:#77BA2C;" points="1007.094,1562.433 1002.138,1586.093 986.851,1586.093 991.806,1562.433 									
										"/>
								</g>
								<g>
									<polygon style="fill:#77BA2C;" points="1027.481,1562.433 1022.525,1586.093 1007.235,1586.093 1012.191,1562.433 
																			"/>
								</g>
								<g>
									<polygon style="fill:#77BA2C;" points="1047.867,1562.433 1042.912,1586.093 1027.622,1586.093 1032.577,1562.433 
																			"/>
								</g>
							</g>
						</g>
					</g>
					<g>
						<path style="fill:#3D42AD;" d="M1096.13,1533.71l-0.716,3.418h-16.036l0.566-2.704l10.359-8.205
							c2.536-2.02,3.176-3.293,3.43-4.506c0.417-1.989-0.71-3.139-3.383-3.139c-2.113,0-4.034,0.715-5.572,2.27l-2.372-2.177
							c2.153-2.268,5.448-3.604,9.022-3.604c4.724,0,7.268,2.393,6.461,6.246c-0.443,2.114-1.437,4.041-5.044,6.869l-6.97,5.532
							H1096.13z"/>
						<path style="fill:#3D42AD;" d="M1114.965,1530.446c-0.801,3.824-4.231,6.994-10.074,6.994c-3.077,0-5.989-0.933-7.646-2.518
							l2.366-3.137c1.312,1.304,3.498,2.143,5.954,2.143c2.89,0,4.866-1.274,5.295-3.325c0.436-2.082-0.627-3.388-5.132-3.388
							h-5.252l3.599-11.839h12.773l-0.709,3.386h-9.355l-1.521,5.035h2.082C1113.778,1523.796,1115.772,1526.593,1114.965,1530.446z
							"/>
						<path style="fill:#3D42AD;" d="M1118.598,1521.124c0.749-3.574,3.332-5.967,6.44-5.967c3.108,0,4.727,2.361,3.971,5.967
							c-0.755,3.604-3.363,5.967-6.471,5.967S1117.85,1524.697,1118.598,1521.124z M1126.461,1521.124
							c0.508-2.424-0.2-3.792-1.879-3.792c-1.616,0-2.966,1.399-3.467,3.792c-0.501,2.393,0.263,3.792,1.879,3.792
							C1124.672,1524.916,1125.953,1523.547,1126.461,1521.124z M1138.045,1515.375h3.046l-19.412,21.754h-3.045L1138.045,1515.375z
							 M1130.715,1531.38c0.748-3.574,3.332-5.967,6.44-5.967s4.72,2.393,3.971,5.967c-0.749,3.574-3.363,5.967-6.471,5.967
							S1129.966,1534.954,1130.715,1531.38z M1138.578,1531.38c0.501-2.393-0.231-3.792-1.879-3.792
							c-1.647,0-2.959,1.367-3.467,3.792c-0.508,2.424,0.232,3.79,1.878,3.79C1136.758,1535.17,1138.076,1533.773,1138.578,1531.38z
							"/>
					</g>
				</g>
			</g>
			<g>
				<g>
					<path style="fill:#122A4F;" d="M2199.357,1678.678c-3.372-12.94-6.758-26.147-10.151-39.632
						c0.368,10.988,0.869,24.305,1.568,39.632H2199.357z"/>
					<path style="fill:#20468F;" d="M2190.775,1678.678c-0.699-15.326-1.2-28.643-1.568-39.632
						c3.393,13.485,6.779,26.691,10.151,39.632h297.17c-9.943-70.93-24.999-157.408-48.393-256.095l-417.353-92.464
						c-2.654,93.731-4.451,211.86-2.919,348.56H2190.775z"/>
				</g>
				<g>
					<path style="fill:#122A4F;" d="M2158.248,643.003c9.524,15.857,25.971,21.428,38.293,24.521
						c1.823,0.407,3.544,0.841,5.138,1.203c27.153,6.254,54.91-0.923,58.229-1.838c4.865-1.276,13.081-3.888,25.045-4.764
						c9.505-0.695,17.358-0.003,22.454,0.669c-0.979,2.802-9.345,27.639,5.378,47.991c6.245,8.601,14.163,13.062,19.055,15.263
						c6.125-8.398,16.169-12.314,24.92-9.924c12.061,3.232,17.972,17.378,15.379,28.85c-2.302,10.483-11.594,18.542-23.081,19.892
						c0.637,15.579,1.23,31.149,1.87,46.729c4.997-2.677,10.603-6.279,16.172-11.125c14.62-12.667,20.83-26.564,29.33-46.286
						c7.445-17.267,15.734-36.412,18.347-63.666c1.85-19.035,3.425-35.225-4.225-54.325c-8.771-21.842-24.386-34.286-31.721-40.011
						c-6.428-5.023-20.235-15.543-41.547-19.838c-10.245-2.067-19.458-2.122-27.013-1.424c-0.558-0.538-1.136-0.984-1.75-1.486
						c-17.79-14.205-48.39-22.755-69.95-7.699c-5.24,3.675-9.117,8.141-11.987,12.568c-8.549-5.108-31.275-17.195-51.217-6.717
						c-14.169,7.478-19.171,22.231-20.912,27.451C2153.413,602.156,2146.584,623.539,2158.248,643.003z"/>
					<path style="fill:#FFA6AA;" d="M2196.542,667.524c-0.187,18.08-0.939,33.004-1.613,43.903
						c-1.816,28.029-3.828,38.236-2.325,55.221c1.908,21.44,3,35.683,13.001,49.351c7.827,10.719,18.22,17.332,27.983,21.349
						c12.788,5.326,24.528,6.308,27.988,6.609c33.823,2.815,57.888-15.789,63.557-20.426c-3.531,7.055-24.37,46.693-71.441,60.431
						c-13.969,4.046-27.022,4.897-38.159,4.224c-12.245,31.489-25.475,60.264-38.833,86.304l181.086,8.585
						c-2.237-57.167-4.577-114.306-6.858-171.481c-0.64-15.579-1.233-31.15-1.87-46.729c11.487-1.35,20.779-9.409,23.081-19.892
						c2.593-11.471-3.319-25.617-15.379-28.85c-8.751-2.39-18.795,1.526-24.92,9.924c-4.892-2.201-12.81-6.661-19.055-15.263
						c-14.723-20.352-6.357-45.188-5.378-47.991c-5.096-0.672-12.949-1.363-22.454-0.669c-11.965,0.876-20.18,3.488-25.045,4.764
						c-3.319,0.915-31.076,8.093-58.229,1.838C2200.086,668.366,2198.365,667.931,2196.542,667.524z"/>
					<path style="fill:#FF797D;" d="M2215.534,888.186c11.137,0.673,24.19-0.178,38.159-4.224
						c47.071-13.737,67.91-53.375,71.441-60.431c-5.669,4.637-29.734,23.241-63.557,20.426c-3.46-0.302-15.2-1.284-27.988-6.609
						c-4.109,12.884-8.701,26.054-13.731,39.517C2218.442,880.676,2216.987,884.43,2215.534,888.186z"/>
				</g>
				
					<linearGradient id="SVGID_00000174569483472455525670000001448521509600286889_" gradientUnits="userSpaceOnUse" x1="2185.3813" y1="1608.6952" x2="2300.2966" y2="955.4125">
					<stop  offset="0" style="stop-color:#F6070C"/>
					<stop  offset="1" style="stop-color:#F95D5E"/>
				</linearGradient>
				<path style="fill:url(#SVGID_00000174569483472455525670000001448521509600286889_);" d="M1971.793,1169.974
					c3.874,4.126,9.979,9.768,18.441,14.947c3.116,1.895,6.526,3.747,10.273,5.389c11.831,5.263,22.904,7.031,31.409,7.452
					c-4.21,76.923-2.905,154.393-3.2,231.105c0,3.2-0.295,14.863-0.758,30.399c-1.137,43.998-3.368,118.773-2.947,118.815
					c24.209,4.715,60.124,11.62,103.785,19.873c60.376,11.41,90.859,17.136,102.985,18.399c39.03,4.084,97.301,9.599,165.55-9.557
					c38.02-10.694,67.281-25.725,86.102-36.798c-4.337-25.641-7.663-53.513-9.263-83.407c-2.316-43.703-0.589-84.417,3.495-121.468
					c0,0,0-0.042,0.042-0.042c4.421-29.851,9.768-61.008,16.294-93.301c4.716-23.325,9.768-45.893,15.031-67.66
					c9.726-0.589,18.82-1.853,27.156-3.453c2.863-0.547,5.6-1.137,8.294-1.768c16.926-85.722,9.81-178.223-60.124-239.063
					c-32.041-27.914-70.944-43.998-111.784-53.471c-12,18.61-36.925,48.461-78.06,58.06c-12.589,2.905-50.65,11.831-81.259-11.915
					c-15.031-11.621-25.22-28.756-29.641-48.377c-26.441,7.073-51.913,17.599-75.197,31.451
					c-10.652,6.315-20.799,13.304-30.398,21.009c-3.2,2.568-6.358,5.221-9.347,8c-53.597,48.461-76.712,120.289-93.175,188.96
					C1975.035,1155.533,1970.614,1168.669,1971.793,1169.974z"/>
				<path style="fill:#FFA6AA;" d="M2183.615,904.134c4.421,19.62,14.61,36.756,29.641,48.377
					c30.609,23.746,68.67,14.82,81.259,11.915c41.135-9.6,66.06-39.451,78.06-58.06c-29.851-6.947-60.713-10.315-90.733-12.168
					C2249.212,892.177,2215.698,895.587,2183.615,904.134z"/>
				<path style="opacity:0.5;fill:#C62C43;" d="M2025.011,1578.082c14.063,2.737,32.041,6.189,53.177,10.273
					c-7.326-31.872-14.441-71.407-18.609-116.963c-3.79-41.766-3.495-75.912-2.948-144.204c0.632-72.333,2.948-98.016,4.758-172.666
					c0.884-37.977,1.81-94.817,1.179-165.045c-18.399,68.249-26.82,138.014-30.651,208.285c-0.421,7.705-0.8,15.368-1.095,23.073
					c-2.863,69.302-1.81,138.983-2.105,208.032c0,3.2-0.295,14.863-0.758,30.399
					C2026.822,1503.264,2024.591,1578.04,2025.011,1578.082z"/>
				<path style="opacity:0.5;fill:#C62C43;" d="M2447.097,1522.421c4.042,21.515,9.347,41.261,15.241,59.071
					c8.042-4.042,15.115-8,21.094-11.494c-4.337-25.641-7.663-53.513-9.263-83.407c-2.316-43.703-0.589-84.375,3.495-121.426
					c-2.273,3.41-4.673,6.737-7.2,9.936c-8.589,10.821-18.778,19.157-29.851,24.546
					C2437.834,1435.141,2438.55,1476.823,2447.097,1522.421z"/>
				<path style="opacity:0.5;fill:#C62C43;" d="M2356.954,1152.965c8.126,10.273,16.589,20.294,25.388,30.019
					c0.295-2.863,0.59-5.768,0.969-8.715c3.074-26.525,7.747-55.366,14.778-86.059c6.189-26.946,13.389-51.787,20.883-74.313
					c-11.326,10.694-26.567,27.662-37.683,51.871c-9.136,19.915-11.494,35.998-13.557,46.861
					C2365.585,1123.913,2362.301,1137.47,2356.954,1152.965z"/>
				<path style="fill:#FFA6AA;" d="M2065.304,960.468c1.052,1.432,2.189,2.821,3.368,4.126c21.557,24.42,57.05,23.746,85.386,36.377
					c16.631,7.452,26.525,21.052,39.366,33.388c13.557,12.968,27.957,25.894,36.293,43.072c11.831,24.42,9.895,52.671,16.968,78.438
					c7.199,26.188,14.104,52.461,26.315,76.881c5.936,11.873,10.104,24.883,15.662,36.967
					c11.915,25.978,25.094,51.366,39.535,76.123c10.105,17.388,22.146,34.104,38.314,46.103
					c35.409,26.315,77.47,16.547,103.953-16.841c2.526-3.2,4.926-6.526,7.2-9.936v-0.042c10.273-15.494,18.062-33.009,25.557-49.724
					c16.42-36.419,26.441-75.365,32.967-114.731c-11.536,2.232-24.462,3.747-38.525,3.874
					c-48.84,0.505-88.459-15.789-114.353-30.272c-0.379,2.947-0.674,5.852-0.969,8.715c-29.514-32.63-55.492-68.502-77.344-106.69
					c-15.662-27.367-28.588-52.882-38.061-83.112c-6.905-22.062-15.957-44.966-34.314-58.987
					c-22.441-17.094-50.65-11.578-76.249-6.61c-15.915,3.116-31.914,5.768-47.956,8c-10.104,1.431-20.252,2.694-30.398,3.747
					c-4.042,0.421-8.252,0.884-11.747,2.947C2058.821,946.785,2061.01,954.658,2065.304,960.468z"/>
				<path style="fill:#FFA6AA;" d="M1669.407,1248.666c0.631,12.884,5.852,25.093,11.999,36.419
					c9.726,18.02,18.567,40.84,38.44,49.977c24.42,11.199,50.566,0.126,75.912,0.8c25.388,0.632,41.345,17.136,57.008,35.325
					c36.883,42.777,90.27,101.637,153.214,93.722c8.252-1.01,15.62-3.158,21.978-5.642c0.463-15.536,0.758-27.199,0.758-30.399
					c0.295-76.712-1.01-154.182,3.2-231.105c-8.505-0.421-19.578-2.189-31.409-7.452c-3.747-1.642-7.158-3.495-10.273-5.389
					c-5.094,12.084-9.936,24.841-14.526,38.314c-12.084,35.493-19.789,69.26-24.631,100.164c-8.379-2.147-16.757-4.253-24.925-6.695
					c-20.252-6.147-40.545-12.252-60.797-18.357c-19.199-5.81-39.661-15.031-59.787-15.157c-11.705-0.084-23.452,1.137-35.072,3.073
					c-9.389-12.589-16.462-27.83-26.315-39.788c-11.031-13.304-24.841-31.62-43.03-34.693
					C1679.638,1208.162,1668.481,1230.098,1669.407,1248.666z"/>
				<path style="fill:#F2949B;" d="M2382.342,1182.984c4.968,5.474,9.979,10.821,15.115,16.126
					c4.505,4.673,9.979,9.726,15.915,15.999c22.188,8.294,50.524,15.915,83.786,17.894c11.663,0.716,22.609,0.632,32.756,0.084
					c2.4-10.736,4.463-21.557,6.274-32.42c-11.536,2.232-24.462,3.747-38.525,3.874c-48.84,0.505-88.459-15.789-114.353-30.272
					C2382.932,1177.216,2382.637,1180.121,2382.342,1182.984z"/>
				<path style="fill:#F2949B;" d="M2108.402,935.566c36.756,8.168,62.355,4.589,79.196-0.505c8.842-2.653,20.041-7.158,32.041-2.61
					c7.789,2.989,14.063,9.052,25.388,29.472c4.8,8.631,10.526,19.83,16.21,33.514c4.715,18.778,9.978,35.072,14.947,48.714
					c10.526,28.714,21.22,49.387,27.409,61.26c17.01,32.63,28.925,55.45,43.156,73.554c7.621,9.726,15.915,18.104,26.02,25.894
					c11.537,8.842,19.789,12.631,28.841,25.22c13.557,18.862,10.652,32.293,23.747,47.534c5.726,6.652,15.789,15.199,34.524,20.378
					c-3.916-13.726-11.157-34.146-25.178-55.829c-7.284-11.284-14.652-19.957-21.346-27.073
					c-5.937-6.273-11.41-11.326-15.915-15.999c-5.137-5.305-10.147-10.652-15.115-16.126c-2.189-2.442-4.379-4.884-6.526-7.368
					c-2.063-2.316-4.042-4.632-6.021-6.989c-2.274-2.652-4.463-5.305-6.694-8c-4.547-5.516-8.968-11.115-13.262-16.799
					c-6.989-9.094-13.684-18.399-20.083-27.872c-0.211-0.295-0.379-0.547-0.59-0.8c-2.021-3.032-4.084-6.105-6.063-9.221
					c-6.315-9.684-12.336-19.578-18.104-29.641c-15.662-27.367-28.588-52.882-38.061-83.112c-1.727-5.6-3.621-11.242-5.768-16.799
					c-1.052-2.653-2.147-5.263-3.284-7.873c-0.842-1.937-1.768-3.789-2.695-5.642c-0.421-0.884-0.884-1.726-1.347-2.61
					c-5.389-10.063-12.168-19.157-21.22-26.062c-22.441-17.094-50.65-11.578-76.249-6.61
					C2140.443,930.682,2124.444,933.334,2108.402,935.566z"/>
				<path style="fill:#F2949B;" d="M1950.783,1325.378c5.179,1.937,10.61,4,16.252,6.232c3.074-23.873,7.621-49.177,14.063-75.533
					c3.747-15.283,7.916-29.851,12.294-43.661c4.126,2.316,9.347,4.673,15.663,6.357c8,2.105,15.452,2.484,21.767,2.063
					c0.295-7.705,0.674-15.368,1.095-23.073c-8.505-0.421-19.578-2.189-31.409-7.452c-3.747-1.642-7.158-3.495-10.273-5.389
					c-5.094,12.084-9.936,24.841-14.526,38.314C1963.372,1259.486,1955.583,1293.927,1950.783,1325.378z"/>
				<path style="fill:#F2949B;" d="M1795.296,1283.359c13.768,8,25.767,14.189,35.24,18.82
					c59.113,28.841,58.397,15.284,102.985,39.24c4.758,2.568,9.431,5.179,14.062,7.705c5.558,3.032,11.073,5.852,16.631,8
					c10.358,4.126,20.841,6.021,32.083,2.947c7.663-2.105,13.389-5.852,17.136-8.799c-16.631-7.621-32.209-14.147-46.398-19.662
					c-5.642-2.232-11.073-4.295-16.252-6.232c-8.926-3.284-17.178-6.147-24.63-8.673c-7.621-2.568-0.589-0.211-60.797-18.357
					c-19.199-5.81-39.661-15.031-59.787-15.157C1802.074,1283.148,1798.622,1283.232,1795.296,1283.359z"/>
				<g>
					<path style="fill:#838383;" d="M1599.749,1253.748c0,7.991,3.238,15.241,8.49,20.477c5.236,5.252,12.47,8.49,20.477,8.49
						l130.739,0c-7.991,0-15.241-3.238-20.477-8.49c-5.252-5.236-8.49-12.486-8.49-20.477L1599.749,1253.748z"/>
					<path style="fill:#838383;" d="M1729.03,1253.748c0,7.991,3.238,15.241,8.49,20.477c5.236,5.252,12.486,8.49,20.477,8.49
						l403.092,0c15.998,0,28.967-12.969,28.967-28.967L1729.03,1253.748z"/>
					<path style="fill:#D8D8D8;" d="M1553.79,960.258l396.083,0c5.912,0,11.003,4.141,12.227,9.924l59.4,283.565l-421.602,0
						l-54.309-259.319l-4.011-19.139C1539.95,967.54,1545.863,960.258,1553.79,960.258z"/>
					
						<ellipse transform="matrix(0.666 -0.7459 0.7459 0.666 -234.9769 1689.1663)" style="fill:#F1F2F7;" cx="1768.954" cy="1107.003" rx="19.813" ry="24.849"/>
				</g>
				<path style="fill:#FFA6AA;" d="M1669.391,1248.646c0.632,12.884,5.853,25.094,12,36.419c0.21,0.379,0.421,0.8,0.631,1.179
					h88.459c-9.389-12.589-16.462-27.83-26.314-39.787c-11.031-13.305-24.841-31.62-43.03-34.693
					C1679.622,1208.143,1668.465,1230.079,1669.391,1248.646z"/>
			</g>
			<g>
				
					<linearGradient id="SVGID_00000114766241749550110550000011236639800830380673_" gradientUnits="userSpaceOnUse" x1="538.9531" y1="844.2205" x2="524.6867" y2="1576.5668">
					<stop  offset="0" style="stop-color:#74D6A7"/>
					<stop  offset="1" style="stop-color:#1CB0BA"/>
				</linearGradient>
				<path style="fill:url(#SVGID_00000114766241749550110550000011236639800830380673_);" d="M197.802,1111.285
					c5.475,5.843,12.225,12.593,20.28,19.684c19.967,17.557,48.048,37.27,84.892,50.941c0.681,0.256,1.39,0.511,2.07,0.738
					c2.723-10.154,6.212-20.706,10.693-31.541c8.452-20.393,18.465-37.127,27.796-50.345c2.524,33.696,4.113,65.066,5.19,93.627
					c1.135,31.399,1.532,59.45,1.589,83.701c0.028,22.35,0.057,45.013-0.51,69.518c-0.652,26.577-1.985,55.338-4.765,88.24
					c-4.879,57.946-12.31,106.42-18.777,141.988c2.978,1.73,6.183,3.516,9.616,5.36c19.089,10.325,44.956,22.266,76.779,31.455
					c68.044,19.656,123.58,15.204,175.825,10.524c43.028-3.829,103.583-13.302,173.613-37.951c4.453-1.559,8.934-3.176,13.443-4.878
					c-0.652-18.352-1.73-49.665-3.006-88.636c-4.056-124.544-4.311-151.886-8.254-204.358c-3.318-43.795-5.275-70.058-9.7-98.735
					c-1.106-7.146-2.354-14.464-3.829-22.236c-10.949-57.975-26.634-104.661-39.057-136.74
					c15.373,14.664,35.709,37.752,51.309,70.597c10.92,22.975,17.047,45.409,20.195,65.831
					c22.378-19.968,45.892-47.14,63.733-83.077c6.977-14.097,12.253-27.796,16.167-40.616v-0.029
					c4.113-13.359,6.807-25.754,8.623-36.73c-16.621-12.509-40.503-30.095-69.888-50.345
					c-56.075-38.688-84.126-58.032-111.951-68.356c-32.986-12.253-62.343-15.316-92.777-15.629
					c-12.593-0.114-25.385,0.227-38.688,0.595c-17.812,0.482-42.943,1.305-73.348,6.723c-19.003,3.375-40.049,8.566-62.626,16.564
					c-62.429,22.124-102.364,53.693-111.214,60.868c-6.353,5.135-33.043,27.088-60.839,63.109
					C224.095,1055.181,207.814,1087.516,197.802,1111.285z"/>
				<path style="fill:#2E997F;" d="M711.692,1031.64c12.423,32.079,28.108,78.765,39.057,136.74
					c1.474,7.772,2.723,15.09,3.829,22.236c4.567-3.148,9.36-6.664,14.295-10.55c4.68-3.659,9.474-7.659,14.324-11.998
					c-3.149-20.422-9.275-42.857-20.195-65.831C747.401,1069.392,727.065,1046.303,711.692,1031.64z"/>
				<path style="fill:#2E997F;" d="M305.044,1182.648v0.028c15.6,5.645,30.349,9.332,43.68,11.714
					c-1.077-28.562-2.666-59.932-5.19-93.627c-9.332,13.218-19.344,29.952-27.796,50.345
					C311.256,1161.942,307.767,1172.493,305.044,1182.648z"/>
				<path style="fill:#FFA6AA;" d="M214.593,1225.816c0,0,7.346,33.072,26.095,59.818c28.591,40.731,78.311,56.161,109.114,61.974
					c0.567-24.505,0.539-47.168,0.51-69.518c-0.057-24.252-0.453-52.302-1.589-83.701c-13.331-2.382-28.079-6.069-43.68-11.714
					v-0.028c-0.681-0.227-1.39-0.482-2.07-0.738c-36.844-13.671-64.924-33.384-84.892-50.941
					c-3.234,11.686-6.212,26.577-7.119,43.964C210.424,1185.03,209.573,1203.268,214.593,1225.816z"/>
				<path style="fill:#FFA6AA;" d="M768.872,1180.066c4.964,5.275,10.636,10.834,17.047,16.423
					c18.861,16.479,43.992,33.186,75.702,43.198c16.565,5.248,41.326,12.764,71.873,6.948c22.124-4.225,36.674-13.473,57.975-27.257
					c39.028-25.328,63.988-52.075,81.29-70.88c32.079-34.888,56.784-71.164,60.981-77.347c10.466-15.486,17.529-27.4,32.703-41.638
					c16.565-15.514,39.908-31.059,41.269-31.966c8.878-5.871,13.161-8.112,22.549-15.118c12.707-9.473,20.082-15.061,26.889-24.789
					c4.652-6.637,11.09-15.827,11.402-28.477c0.227-8.679-2.893-14.693-8.055-26.775c-4.367-10.268-9.558-18.634-14.323-25.102
					c7.885-8.168,16.536-17.784,23.882-27.568c2.07-2.781,8.934-12.113,11.998-25.783c1.305-5.814,2.836-12.621,0-14.862
					c-2.978-2.354-11.402-0.057-35.114,19.996c-77.319,72.95-139.747,130.756-182.803,171.685c0,0-21.414,20.364-75.588,55.082
					c-22.237,14.266-40.617,24.391-64.47,23.91c-6.609-0.114-21.641-0.623-37.156-10.239c-12.026-7.431-19.429-17.33-23.825-25.13
					c-3.914,12.82-9.19,26.519-16.167,40.616c-17.841,35.936-41.354,63.109-63.733,83.077
					C778.346,1172.407,773.552,1176.407,768.872,1180.066z"/>
				<path style="fill:#20468F;" d="M313.894,1678.678h449.838c-0.433-34.361-1.01-65.053-1.659-91.422
					c-70.024,24.642-130.541,34.076-173.623,37.896c-52.231,4.682-107.776,9.15-175.786-10.518
					c-31.842-9.15-57.705-21.11-76.797-31.413C328.88,1610.814,321.315,1642.801,313.894,1678.678z"/>
				<path style="fill:#FFA6AA;" d="M485.067,880.604c30.406-5.418,55.536-6.241,73.348-6.723
					c13.302-0.368,26.094-0.709,38.688-0.595c5.105-7.544,10.24-16.819,14.295-27.852c7.771-21.045,8.083-39,7.715-56.982
					c-0.312-14.238-1.134-31.881-3.091-52.615c-3.971,9.105-8.027,16.677-11.487,22.606c-0.483-1.816-2.468-8.395-8.566-11.573
					c-7.999-4.141-17.812,0.312-22.719,5.588c-10.835,11.6-2.411,31.993-1.277,34.716c3.518,8.509,8.963,14.097,12.424,17.132
					c0.823,3.829,4.538,23.343-7.715,40.702c-8.367,11.884-19.712,16.366-23.995,18.01c-22.379,8.509-43.254-0.566-51.849-4.282
					c-4.311-1.872-8.112-3.971-11.487-6.098c-0.284,4.112-0.766,8.311-1.39,12.565C487.166,870.593,486.202,875.727,485.067,880.604
					z"/>
				<path style="fill:#122A4F;" d="M399.038,733.695c13.831,26.327,34.812,47.195,49.526,73.193
					c4.141,7.317,11.232,20.393,25.272,33.411c3.659,3.375,8.651,7.97,15.515,12.338c3.375,2.127,7.176,4.225,11.487,6.098
					c8.594,3.716,29.469,12.791,51.849,4.282c4.283-1.644,15.628-6.126,23.995-18.01c12.253-17.359,8.537-36.872,7.715-40.702
					c-3.46-3.034-8.906-8.623-12.424-17.132c-1.134-2.723-9.558-23.116,1.277-34.716c4.907-5.277,14.721-9.729,22.719-5.588
					c6.098,3.177,8.083,9.757,8.566,11.573c3.46-5.929,7.516-13.502,11.487-22.606c2.723-6.182,5.389-13.075,7.8-20.677
					c6.409-19.882,12.394-38.573,9.445-62.569c-3.772-30.349-19.627-50.772-23.995-56.131c-5.673-6.893-33.156-40.503-73.293-38.575
					c-6.967,0.335-13.519,2.794-20.113,4.84c-7.195,2.233-12.992,1.888-20.494,1.736c-21.845-0.442-41.651,7.277-59.969,18.642
					c-18.325,11.369-36.915,22.737-46.095,43.205c-12.959,28.896-7.669,65.137,3.486,93.756
					C394.637,724.791,396.738,729.318,399.038,733.695z"/>
			</g>
			<g>
				<path style="fill:#355BAF;" d="M1726.939,1391.762v177.644c0,17.183-13.93,31.113-31.113,31.113h-177.644
					c-25.197,0-45.623-20.426-45.623-45.623l0,0c0,16.079,13.051,29.103,29.103,29.103h179.654c16.073,0,29.103-13.03,29.103-29.103
					v-179.654c0-16.052-13.023-29.103-29.103-29.103l0,0C1706.513,1346.139,1726.939,1366.565,1726.939,1391.762z"/>
				<g>
					<g>
						
							<linearGradient id="SVGID_00000127015549845532841700000013671313126845400753_" gradientUnits="userSpaceOnUse" x1="1450.2612" y1="1317.3727" x2="1658.6389" y2="1535.2942">
							<stop  offset="0" style="stop-color:#349CFF"/>
							<stop  offset="1" style="stop-color:#2F85FE"/>
						</linearGradient>
						<path style="fill:url(#SVGID_00000127015549845532841700000013671313126845400753_);" d="M1710.419,1375.242v179.654
							c0,16.079-13.023,29.103-29.103,29.103h-179.654c-16.052,0-29.103-13.023-29.103-29.103v-179.654
							c0-16.052,13.051-29.103,29.103-29.103h179.654C1697.396,1346.139,1710.419,1359.19,1710.419,1375.242z"/>
						<path style="fill:#F0F5FF;" d="M1655.513,1452.613h-9.813c-1.416-6.127-3.833-11.889-7.079-17.039l6.957-6.957
							c1.757-1.758,1.757-4.614,0-6.371l-11.278-11.254c-1.733-1.758-4.589-1.758-6.347,0l-6.957,6.957
							c-5.151-3.247-10.912-5.663-17.039-7.079v-9.813c0-2.49-2.002-4.492-4.492-4.492h-15.94c-2.466,0-4.492,2.002-4.492,4.492
							v9.813c-6.127,1.416-11.864,3.833-17.039,7.079l-6.933-6.957c-1.758-1.758-4.614-1.758-6.371,0l-11.254,11.254
							c-1.758,1.758-1.758,4.614,0,6.371l6.933,6.957c-3.247,5.151-5.639,10.912-7.055,17.039h-9.838
							c-2.465,0-4.492,2.002-4.492,4.491v15.941c0,2.465,2.026,4.491,4.492,4.491h9.838c1.416,6.127,3.808,11.864,7.055,17.039
							l-6.933,6.933c-1.758,1.758-1.758,4.614,0,6.371l11.254,11.253c1.758,1.758,4.614,1.758,6.371,0l6.933-6.933
							c5.175,3.247,10.912,5.639,17.039,7.055v9.813c0,2.49,2.026,4.516,4.492,4.516h15.94c2.49,0,4.492-2.026,4.492-4.516v-9.813
							c6.127-1.416,11.888-3.808,17.039-7.055l6.957,6.933c1.758,1.758,4.614,1.758,6.347,0l11.278-11.253
							c1.757-1.758,1.757-4.614,0-6.371l-6.957-6.933c3.247-5.175,5.663-10.912,7.079-17.039h9.813c2.49,0,4.491-2.026,4.491-4.491
							v-15.941C1660.005,1454.615,1658.003,1452.613,1655.513,1452.613z M1591.507,1495.479c-16.795,0-30.416-13.622-30.416-30.417
							c0-16.795,13.621-30.416,30.416-30.416c16.795,0,30.417,13.621,30.417,30.416
							C1621.923,1481.857,1608.302,1495.479,1591.507,1495.479z"/>
					</g>
				</g>
			</g>
			<g>
				<g>
					<g>
						<path style="fill:#FFFFFF;" d="M1918.216,557.716v237.446c0,32.324-26.267,58.591-58.563,58.591h-172.991
							c-11.371,0-21.971-3.249-30.947-8.866c-16.603-10.353-27.643-28.772-27.643-49.725V557.716
							c0-32.296,26.267-58.591,58.591-58.591h172.991C1891.949,499.126,1918.216,525.42,1918.216,557.716z"/>
						<path style="fill:#9EBEFF;" d="M1859.64,514.692h-172.989c-23.765,0-43.027,19.262-43.027,43.02V756.3v38.873
							c0,23.757,19.262,43.02,43.027,43.02h168.592h4.396c23.765,0,43.028-19.262,43.028-43.02v-87.025V557.711
							C1902.667,533.954,1883.405,514.692,1859.64,514.692z"/>
						<path style="fill:#7B95BF;" d="M1855.243,838.193h-168.592c-23.765,0-43.027-19.262-43.027-43.02V756.3l43.67-44.493
							c11.176-11.387,29.488-11.491,40.793-0.233l12.545,12.493L1855.243,838.193z"/>
						<path style="fill:#305EBB;" d="M1902.667,708.148v87.025c0,23.757-19.262,43.02-43.028,43.02h-4.396l-114.611-114.126
							l69.159-68.708c10.113-10.047,26.381-10.239,36.727-0.432L1902.667,708.148z"/>
						<circle style="fill:#FFFFFF;" cx="1725.228" cy="628.031" r="32.187"/>
					</g>
				</g>
				<path style="fill:#B6D2FF;" d="M1859.653,499.126c41.467,0,75.083,33.616,75.083,75.083v234.748
					c0,33.866-26.212,61.316-58.563,61.316h-172.991c-41.482,0-75.11-33.628-75.11-75.111l0,0c0,20.953,11.041,39.372,27.643,49.725
					c8.976,5.617,19.576,8.866,30.947,8.866h172.991c32.296,0,58.563-26.267,58.563-58.591V557.716
					C1918.216,525.42,1891.949,499.126,1859.653,499.126L1859.653,499.126z"/>
			</g>
		</g>
	</g>
</g>
</svg>
