<?xml version="1.0" encoding="utf-8"?>
<!-- Generator: Adobe Illustrator 27.5.0, SVG Export Plug-In . SVG Version: 6.00 Build 0)  -->
<svg version="1.1" id="Layer_1" xmlns="http://www.w3.org/2000/svg" xmlns:xlink="http://www.w3.org/1999/xlink" x="0px" y="0px"
	 viewBox="0 0 2499.962 1666" style="enable-background:new 0 0 2499.962 1666;" xml:space="preserve">
<g>
	<path style="fill:#FEFEFE;" d="M0,0h2497.1c1.4,2.2,1.9,4.1,2,6.7c1.1,23.5,0.1,47.3,0.1,70.8v138.1v421.3v772v187.5
		c0,13,1.9,55.4-0.3,65.4c-0.4,1.6-0.9,2.9-1.8,4.2H0V0z"/>
	<path style="fill:#97B3F5;" d="M2169.5,331.4c5.7-0.9,10.8-1.5,16.1,1.3c4.7,2.4,8.3,6.9,9.7,12c1.4,5,0.7,10.2-2.2,14.6
		c-3.3,5.1-7.6,7.2-13.3,8.4c-1.7,0.7-3.8,0.6-5.5,0.4c-4.8-0.5-8.9-2.2-11.9-6.1c-3.4-4.4-4.3-10.3-3.5-15.7
		C2159.9,339.1,2164.1,335.7,2169.5,331.4z"/>
	<path style="fill:#4A89F4;" d="M1248.7,139.2c3.3-0.1,7,0,10.1,1c5.8,1.9,10.6,6.5,12.9,12.1c2.1,5.1,2.2,11-0.2,16.1
		c-3,6.6-7.8,9.4-14.3,11.9c-2.6-0.1-5.3-0.3-7.9-0.9c-5.8-1.4-10.8-5-13.9-10.1c-2.7-4.6-3.3-10.1-1.7-15.2
		C1236.1,146.2,1241.7,142.6,1248.7,139.2z"/>
	<path style="fill:#8D64DC;" d="M271,1515.4c2.7-0.3,4.6,0.1,7.3,0.8c2.8,2.2,3.9,3.5,4.9,6.9c-0.4,2.6-0.3,3.8-2.3,5.7
		c-6.4,6-92.4,2.8-106.6,2.8c-4-0.3-6.5-0.6-9.8-2.9c-1-1.4-1.9-2.6-2.1-4.3c-0.2-1.9-0.3-3.1,1.2-4.5
		C171.5,1512.3,254.5,1515.9,271,1515.4z"/>
	<path style="fill:#97B3F5;" d="M182.2,752.1c5.9-0.1,10.8,0.3,16.1,3.4c6,3.4,10.4,9.1,12.3,15.7c1.9,6.8,1.1,14.3-2.4,20.5
		c-4.2,7.3-10.3,10.7-18.3,12.7c-4,0.1-8.3-0.2-12.1-1.6c-6.8-2.6-12.3-7.8-15.1-14.5s-2.5-14.6,0.6-21.1
		C167.1,758.9,173.8,755.1,182.2,752.1z"/>
	<path style="fill:#97B3F5;" d="M2230,744c15.6-1.6,29.7,0.6,42.7,9.9c12.7,9.2,21.4,23.4,23.6,38.9c2.1,15-1.7,30.4-10.9,42.6
		c-10.3,13.7-24.5,20.2-41.1,22.7c-12.2,0.7-23.1-0.8-33.8-7c-13.7-7.8-23.8-21.1-27.7-36.3c-3.8-14.7-1.3-30,6.6-43
		C2198.8,756.4,2213,748.3,2230,744z"/>
	<path style="fill:#97B3F5;" d="M914,212.8c4-27,14.8-49.6,37.2-66.4c18.8-14.1,43-19.9,66.1-16.3c22.5,3.5,44.1,16.7,57.4,35.3
		c13.7,19.1,19,44.4,15.1,67.5c-3.5,20.5-14.1,38.7-28.7,53.3c-15.4,13.5-37.5,22.1-58,21.9c-23.8-0.2-47.3-10.4-64-27.4
		C920.4,261.8,913.9,238.8,914,212.8z"/>
	<path style="fill:#97B3F5;" d="M285.1,1220.3c26.8,33.8,58.9,59.4,103.1,64.8c9.5,1.1,19,1.2,28.5,0.3c7,16.2,12.5,32.3,17.3,49.2
		c-13,0.6-75.4-3.2-81.8,3.5c-4,4.3-4.5,24.6-3.7,30.7c0.5,3.7,1.2,4.8,3.7,7.2c2.9,0.6,5.3,0.5,8.3,0.2l2.1,26
		c3.8,37.1,3.5,76.4,12.2,112.7c-5.9,0.1-12.1-0.2-17.9,0.8c-102.3-63.8-162.6-143-190.1-261.2
		C202.6,1233.4,244.6,1227.2,285.1,1220.3z"/>
	<path style="fill:#FACE5B;" d="M1965.9,639.5c-5.4-11.7-8.6-14.4-8.8-28.1c-0.4-25.9,0.3-51.9,0.3-77.8c0-16.5-2-34.7,0.8-50.9
		c0.9-5.5,2.7-10,6.7-14c4.7-4.7,11-7.5,17.4-8.9c12.4-2.6,26.7-1.1,39.3-1.1c25.3,0.1,50.6,0.6,75.8,0.1c48.5,1,97.2-0.7,145.7,0.4
		c11.7-0.4,23.1,1.5,31.9,9.9c9.6,9.2,9.5,23.6,9.6,36l-0.1,76.5c0,14.6,1.7,31.7-1.2,46c-1.1,5.4-4,11.4-7.8,15.5
		c-4,4.2-8.8,6.5-14.4,7.5c-17.5,3.3-38,1.5-55.9,1.5l-101.2,0.1l-19.8-0.2c-2.5,5.9-10.7,12.2-16,15.7c-2,5.1-30.9,27.8-37,31
		c5.6-9.5,9.4-35.9,7.1-46.4C2010.3,651.2,1989.3,659,1965.9,639.5z"/>
	<path style="fill:#FEFEFE;" d="M2137.5,578c0.3,0,0.6-0.1,0.9-0.1c10.3-0.9,80.2-2.2,84.8,1.6c-0.1,3.3-0.7,3.4-2.9,5.8
		c-8.7,2.7-67.3,0.9-79.9,0.3C2137.7,583.4,2138,581.3,2137.5,578z"/>
	<path style="fill:#FEFEFE;" d="M1992.3,556c0.6-0.1,1.2-0.1,1.7-0.2c11.8-1.2,76.7-2.5,82.9,2.5c-0.3,3.3-0.6,3.2-3,5.4
		c-0.7,0.1-1,0.2-1.7,0.2c-11.2,0.7-75.1,2.2-79.6-1.8L1992.3,556z"/>
	<path style="fill:#FEFEFE;" d="M1991.2,534c10.3-1.4,80.1-2.7,85,0.9c1.4,1.1,1,1.8,1.2,3.5l-2.5,2.9c-9.2,2.8-68.3,1-81.3,0.3
		C1991.2,539.5,1991.6,537.1,1991.2,534z"/>
	<path style="fill:#FEFEFE;" d="M2126.5,601.2c13.1-0.6,90.4-2,96.8,3.4l-0.4,2.9l-3.3,2.2c-18,1-36.4,0.1-54.4-0.1
		c-12.1-0.1-26.3,1.2-38.1-1.2C2125.5,605.4,2126.1,604.5,2126.5,601.2z"/>
	<path style="fill:#FEFEFE;" d="M2105.6,556c2.1-0.2,4.1-0.3,6.2-0.4c9.4-0.2,90.1-1.1,92.3,0.2c0.8,0.5,1.4,1.3,2.1,2
		c-0.4,3.5-0.5,3.6-3,6c-12.8,0.3-92,2.6-97.1-1.7L2105.6,556z"/>
	<path style="fill:#FEFEFE;" d="M1992,601.2c11-1.2,102.3-2.1,106.6,1c0.5,3.4-0.2,3.6-2.1,6.4c-8.4,2.7-87.1,1.2-101.1,0.4
		C1992.6,606.6,1992.7,604.6,1992,601.2z"/>
	<path style="fill:#FEFEFE;" d="M2105.3,534c10.1-1.2,100-2,105.1,0c1.4,0.6,1.3,1.1,1.8,2.4l-2,3.8l-1.2,1.4
		c-14.1,2.2-30.7,0.6-45.1,0.6c-18.3,0-37.7,1.3-55.9-0.5C2105.6,539.6,2105.8,537.2,2105.3,534z"/>
	<path style="fill:#FEFEFE;" d="M1991.9,578c1.8-0.2,3.7-0.4,5.5-0.4c11.2-0.5,105.3-1.6,109.6,0.3c0.9,0.4,1.4,1.3,2.1,2
		c-0.6,3-1.6,3.4-3.7,5.4c-6.1,2.5-99.2,1-110.2,0.1C1992.3,582.9,1992.6,581.6,1991.9,578z"/>
	<path style="fill:#FEFEFE;" d="M1992.7,501.1c22.8-1.8,46.7-0.5,69.6-0.5h131.1c7.2,0,23.7-1.6,28.9,3.6c-1.2,3.6-1.4,3.4-4.8,5.2
		c-23.4,2.4-60.9,0.2-85.7,0.1c-44.5-0.1-89.6,1.3-134-0.4c-2.1-0.1-3.2-0.4-5-1.3C1991.5,504.9,1992,504.2,1992.7,501.1z"/>
	<path style="fill:#F29F2F;" d="M2243.1,459.2c11.7-0.4,23.1,1.5,31.9,9.9c9.6,9.2,9.5,23.6,9.6,36l-0.1,76.5
		c0,14.6,1.7,31.7-1.2,46c-1.1,5.4-4,11.4-7.8,15.5c-4,4.2-8.8,6.5-14.4,7.5c-17.5,3.3-38,1.5-55.9,1.5l-101.2,0.1l-19.8-0.2
		c-2.5,5.9-10.7,12.2-16,15.7c-2,5.1-30.9,27.8-37,31c5.6-9.5,9.4-35.9,7.1-46.4c-28-1.3-49,6.5-72.4-13c6.4-1.3,39.6,1,48.7,1
		c45.1,0.3,90.2-0.8,135.2-0.8c25.6,0,51.9,2.1,77.4,0.8c5.9-0.3,14.4-1.2,19.6-4.3c5.5-3.3,9.7-10.9,11.1-17.1
		c2.2-9.3,2.6-131.2,0.3-140.1c-2.3-9.2-11.3-12-14.9-19.1C2243.3,459.8,2243.3,459.5,2243.1,459.2z"/>
	<path style="fill:#4A89F4;" d="M1161.3,1329.9c36.1-5.5,69.6-15.7,104.3-26.6c2.3,7.5,5.1,14,12.4,18c3,1.6,6.2,2.8,9.6,3.2
		c26.6,2.5,55.1,0.4,81.9,0.4l146.5,0.3c11,0,118.8-1.8,121.1-0.7c0.1,0.1,1.6,1.4,1.7,1.5c0.1,0.2,0.2,0.5,0.3,0.7
		c6.2,24.9,10.1,50.5,15.2,75.6c4.6,25.5,11.4,51.3,14.8,76.9l21.9,0.5c13-0.4,47.7-5.2,57.3,4.5c3.7,3.8,3.5,8.8,3.3,13.7
		c-0.2,4.2-1,8.4-4.3,11.5c-1.8,1.6-4.2,2.4-6.4,3.3c2.5,1.7,4.6,2,7.5,2.1c21.5,0.8,43.2,0.1,64.7,0h113.1l57.3,0.1
		c7,0,16.5,1.1,23.3-0.3c0.8-0.2,1.1-0.4,1.8-0.9c20,2.7,41.8,1.2,62,0.8c12.6,0.1,36.3,2.5,47.6-0.7c9.2,2.2,18.9,1.3,28.2,2.1
		c23.5,0,180.4-2.3,189,1.6c2.2,2.3,3,3.6,3.6,6.7c-1.2,3.3-2,5.6-5.6,7.1c-5.8,2.3-337.1,0.7-376.5,0.7l-1593.4,0.2
		c-6.5,0-21.1,1.8-26.5-0.9c-3.3-1.6-4.1-3.8-5.2-7c0.4-2.3,0.7-3.8,2.4-5.6c4.2-4.3,16.7-2.8,22.5-2.8c5.8-1,12-0.7,17.9-0.8
		c25.8,0.5,51.9,1.4,77.6,0.1c23.2,0.9,47.2,0.4,70.4-0.4c14.4-0.1,28.9-0.4,43.3,0.1c30.5,2.4,62.3,0.7,92.9,0.5l5.2,0.4
		c15.3-1.3,31.6-0.4,47-0.4l98.6-0.4c18.8,0,38.1,0.8,56.8-0.5l4.2-25.8l5.1-25.8c3.7,2.5,7.4,5,11.3,7.3c20.9,7.9,34.7,4,54.8-3.3
		c7.1,1.6,14.1,2.6,21.3,3.6c20.2,3,44.4,4.4,57.7,22.1c4.8,6.4,7.4,13.7,9.9,21.3l22.2-0.1c2.3-14.9,3.5-33.8,10.1-47.3l1-0.5
		c0.8,0.4,1.6,0.8,2.4,1.1c21.2,9.5,39.8,5.1,60.6-2.8l2.5-5.4c2.8-9.9,4.3-20.4,6.1-30.5h14.6L1161.3,1329.9z"/>
	<path style="fill:#303377;" d="M875.7,1462.8c3.7,2.5,7.4,5,11.3,7.3c20.9,7.9,34.7,4,54.8-3.3c7.1,1.6,14.1,2.6,21.3,3.6
		c20.2,3,44.4,4.4,57.7,22.1c4.8,6.4,7.4,13.7,9.9,21.3l-109-0.1c-17.7,0-37.8-1.8-55.2,0.9l4.2-25.8L875.7,1462.8z"/>
	<path style="fill:#0E1248;" d="M941.8,1466.7c7.1,1.6,14.1,2.6,21.3,3.6c-4.5,7.8-25.4,14.7-33.7,16.9c-11.8,3.2-24.9,2.9-35.7-3.3
		c-3.6-2.1-6.4-5-7.3-9.1c-0.5-2-0.1-2.8,0.6-4.6C907.9,1477.9,921.7,1474,941.8,1466.7z"/>
	<path style="fill:#303377;" d="M1126.8,1464.1l11.7,2.7c26.6,3.2,54.5,3.8,72.4,27c4.7,6.1,7.5,12.7,10.1,19.9h-168.1
		c2.3-14.9,3.5-33.8,10.1-47.3l1-0.5c0.8,0.4,1.6,0.8,2.4,1.1C1087.4,1476.5,1106.1,1472,1126.8,1464.1z"/>
	<path style="fill:#0E1248;" d="M1126.8,1464.1l11.7,2.7c-4.9,6.2-14.6,13-21.6,16.5c-9.9,4.9-20.9,7-31.5,3.2
		c-9.7-3.5-18-10.9-22.5-20.2l1-0.5c0.8,0.4,1.6,0.8,2.4,1.1C1087.4,1476.5,1106.1,1472,1126.8,1464.1z"/>
	<path style="fill:#303377;" d="M1412.3,1479.1c25,1.7,50.9,0.8,76,0.4l120.8-0.5c19.5,0.1,39.6-0.7,59.1,0.6l1-0.5l21.9,0.5
		c13-0.4,47.7-5.2,57.3,4.5c3.7,3.8,3.5,8.8,3.3,13.7c-0.2,4.2-1,8.4-4.3,11.5c-1.8,1.6-4.2,2.4-6.4,3.3l-212.1,0.1
		c-40.1,0.1-81.2,2-121.2-0.4c-2-2.1-3.9-4.2-5.2-6.9c-2.4-4.8-3-11.4-1.1-16.4c1.8-4.5,4.7-7.1,9-9.1L1412.3,1479.1z"/>
	<path style="fill:#0E1248;" d="M1669.2,1479.1l21.9,0.5l-0.6,2c-7.4,2.8-22.3,2.3-30.4,1.3c3.9-0.5,5.4,0,8.1-3.3L1669.2,1479.1z"
		/>
	<path style="fill:#0E1248;" d="M1412.3,1479.1c25,1.7,50.9,0.8,76,0.4l120.8-0.5c19.5,0.1,39.6-0.7,59.1,0.6
		c-2.7,3.3-4.2,2.8-8.1,3.3c-45.3,1.9-91.3,0.2-136.7,0.2c-34.1,0-69.6,2.3-103.5-0.3c-4.2-0.3-6.2-0.4-9.6-3L1412.3,1479.1z"/>
	<path style="fill:#303377;" d="M1516,1325.2c11,0,118.8-1.8,121.1-0.7c0.1,0.1,1.6,1.4,1.7,1.5c0.1,0.2,0.2,0.5,0.3,0.7
		c6.2,24.9,10.1,50.5,15.2,75.6c4.6,25.5,11.4,51.3,14.8,76.9l-1,0.5c-19.5-1.3-39.5-0.5-59.1-0.6l-120.8,0.5
		c-25.1,0.4-51,1.3-76-0.4c17-3.4,60.4-0.8,80.3-0.7l20-132.2C1514,1339.3,1514.9,1332.2,1516,1325.2z"/>
	<path style="fill:#0E1248;" d="M1516,1325.2c11,0,118.8-1.8,121.1-0.7c0.1,0.1,1.6,1.4,1.7,1.5c0.1,0.2,0.2,0.5,0.3,0.7
		c6.2,24.9,10.1,50.5,15.2,75.6c-46.9-18.6-93.7-40.5-141.7-55.9C1514,1339.3,1514.9,1332.2,1516,1325.2z"/>
	<path style="fill:#97B3F5;" d="M1161.3,1329.9c36.1-5.5,69.6-15.7,104.3-26.6c2.3,7.5,5.1,14,12.4,18c3,1.6,6.2,2.8,9.6,3.2
		c26.6,2.5,55.1,0.4,81.9,0.4l146.5,0.3c-1.1,7-2.1,14.1-3.4,21.1l-20,132.2c-19.9-0.1-63.3-2.7-80.3,0.7l-1.9,0.8
		c-4.3,1.9-7.3,4.6-9,9.1c-2,5-1.3,11.6,1.1,16.4c1.3,2.6,3.2,4.8,5.2,6.9c-22.6,2.8-46.6,1.3-69.4,1.3l-117.3,0.1
		c-2.6-7.2-5.4-13.8-10.1-19.9c-17.9-23.2-45.7-23.8-72.4-27l-11.7-2.8l2.5-5.4c2.8-9.9,4.3-20.4,6.1-30.5h14.6L1161.3,1329.9z"/>
	<path style="fill:#DAE9FA;" d="M1562.6,157.7c30.3-19.5,64.4-27.4,100-19.7c19.5,4.2,58.5,21.8,68.3,39.9c0.1,0.2,0.2,0.4,0.3,0.6
		c15.2,0,32.2,6.9,46.7,11.4c87.2,27.3,167.6,76.4,232.4,140.9c36.5,36.3,67.9,76.6,87.6,124.5c-0.1,1.2-0.1,2.4-0.5,3.5
		c-25.3,0.4-50.6,0-75.8-0.1c-12.6-0.1-27-1.5-39.3,1.1c-6.4,1.3-12.8,4.2-17.4,8.9c-4,4-5.7,8.6-6.7,14
		c-2.8,16.3-0.8,34.4-0.8,50.9c0,25.9-0.7,51.9-0.3,77.8c0.2,13.7,3.4,16.4,8.8,28.1c23.4,19.4,44.4,11.6,72.4,13
		c2.4,10.5-1.4,36.9-7.1,46.4c6-3.3,35-25.9,37-31c3.4,7.8,3.1,17.2,3.1,25.6c0,14.5-1,29-2.6,43.4c-3,27.4-10.9,58.3,5.1,83.2
		c18.7,29.2,62,38,91.5,52.9c105.5,53.5,171,154,176.8,272.1c2,41.2-2.4,83.5-12.7,123.4c-1.7,6.5-3.2,14.5-6.1,20.5
		c-0.7,1.4-1.6,2.6-2.7,3.7c2.8,8.3-16,47.6-21,57.7c-26.9,54.7-67.7,105.1-116.6,141.7c-11.7,8.8-24.3,15.7-36.5,23.8
		c-9.3-0.8-19.1,0-28.2-2.1c-11.2,3.2-35,0.8-47.6,0.7c-20.2,0.3-42,1.8-62-0.8c-0.7,0.4-0.9,0.7-1.8,0.9
		c-6.8,1.4-16.3,0.3-23.3,0.3l-57.3-0.1h-113.1c-21.5,0.1-43.2,0.8-64.7,0c-2.9-0.1-5-0.4-7.5-2.1c2.2-0.8,4.6-1.6,6.4-3.3
		c3.3-3,4-7.2,4.3-11.5c0.3-4.9,0.4-9.9-3.3-13.7c-9.6-9.7-44.3-4.9-57.3-4.5l-21.9-0.5c-3.4-25.6-10.3-51.4-14.8-76.9
		c-5.2-25.1-9-50.7-15.2-75.6c-0.1-0.2-0.2-0.5-0.3-0.7c0-0.1-1.6-1.4-1.7-1.5c-2.3-1.1-110.1,0.7-121.1,0.7l-146.5-0.3
		c-26.8,0-55.2,2-81.9-0.4c-3.4-0.3-6.7-1.5-9.6-3.2c-7.3-4-10.1-10.5-12.4-18c-34.7,10.9-68.2,21.2-104.3,26.6l-11.3,98.3h-14.6
		c-1.9,10.1-3.3,20.6-6.1,30.5l-2.5,5.4c-20.7,7.9-39.4,12.3-60.6,2.8c-0.8-0.4-1.6-0.7-2.4-1.1l-1,0.5
		c-6.6,13.6-7.8,32.4-10.1,47.3l-22.2,0.1c-2.5-7.6-5-14.8-9.9-21.3c-13.3-17.7-37.5-19.1-57.7-22.1c-7.2-1-14.2-1.9-21.3-3.6
		c-20.1,7.3-33.9,11.2-54.8,3.3c-3.9-2.2-7.6-4.8-11.3-7.3l-5.1,25.8l-4.2,25.8c-18.8,1.3-38,0.4-56.8,0.5l-98.6,0.4
		c-15.4,0.1-31.7-0.9-47,0.4l-5.2-0.4c-30.7,0.2-62.4,1.9-92.9-0.5c-14.4-0.5-28.9-0.2-43.3-0.1c-23.2,0.7-47.2,1.2-70.4,0.4
		c-25.7,1.3-51.8,0.4-77.6-0.1c-8.6-36.3-8.4-75.6-12.2-112.7l-2.1-26c-3,0.3-5.3,0.4-8.3-0.2c-2.5-2.5-3.2-3.5-3.7-7.2
		c-0.8-6.1-0.3-26.4,3.7-30.7c6.4-6.8,68.8-2.9,81.8-3.5c-4.7-16.9-10.3-33-17.3-49.2c-9.5,0.9-19,0.9-28.5-0.3
		c-44.2-5.3-76.3-31-103.1-64.8c-40.4,6.8-82.4,13.1-118.3,34.2c-11.8-52.2-13.5-106.7-3.9-159.4c14.6-80.5,58.3-154.3,120.3-207.4
		c13.6-11.7,28.6-21.6,43.3-31.8c-32.8-45.1-59.4-93-75.2-146.8c-31-105.4-21-217.7,32-314.4c58-105.8,153.6-183.1,269.6-216.9
		c113.4-33.1,256.7-22.4,361.1,35c-0.1,26,6.4,49,25.1,68c16.7,17,40.1,27.2,64,27.4c20.5,0.2,42.6-8.4,58-21.9
		c21.2,11.3,42.6,21.7,64.2,32.2c7.8,3.599,15.3,8.299,23,11.399c4.6-7.2,10-13.7,16.5-19.3c18.7-16.1,41-20.7,65-18.9
		c10.3-10,44-26.4,58.1-34.4c14.1-8,27.4-17.5,41.2-25.9c35.6-21.8,73-41.5,112.8-54.3C1460.8,170.9,1545.1,148.7,1562.6,157.7z"/>
	<path style="fill:#FEFEFE;" d="M1275.1,432.4l2.3,2.2c0.1,3.1-0.5,4.7-2.6,7.1c-2,2.3-4.6,2.9-7.5,3.1c-1.4-1.1-2.9-2.2-4.2-3.4
		L1275.1,432.4z"/>
	<path style="fill:#FEFEFE;" d="M1424,563.1c1.1,0.1,2.3,0.2,3.4,0.6c3.2,1.1,3.8,2.2,5.4,5.1c0.2,4.6-1.1,7.9-2.6,12.1
		c-0.3-0.1-0.5-0.1-0.8-0.2c-3.9-1.1-5.1-2.5-7.2-5.7C1421.5,570.5,1422.6,567.2,1424,563.1z"/>
	<path style="fill:#FEFEFE;" d="M1212.1,454.9h13c0.1,2.6,0.4,5.3,0.2,7.8c-0.2,3.3-1.7,4.9-4.1,7.1c-3.6,0.7-3.5,0.3-6.4-1.5
		C1211.9,464.3,1212.3,459.6,1212.1,454.9z"/>
	<path style="fill:#FEFEFE;" d="M1420,529.1l5.3,1.2c3.8,3.4,6.1,7.6,6.3,12.8c0.2,5-0.7,6.8-3.9,10.2c-1.7-0.5-3.3-1-4.7-2
		c-3-2.2-5.7-8.2-6.2-11.7C1416,534.6,1417.2,533,1420,529.1z"/>
	<path style="fill:#FEFEFE;" d="M1091.9,468.9c1.2,0.2,1.8,0.5,2.8,1.2c2.3,1.7,2.7,1.7,3.1,4.5c-3.1,6.6-12.3,9.4-18.5,11.9
		c-0.2-0.2-0.5-0.3-0.7-0.5c-3-2.7-4-4.3-4.3-8.2C1077.6,472.1,1086,470.7,1091.9,468.9z"/>
	<path style="fill:#FEFEFE;" d="M1214.5,619.6c2.7,0.1,4.9,0.4,7.5,1.2c1.2,1.2,2.3,2.4,2.9,4c2.2,5.5,0.1,14.2-2.2,19.5
		c-0.9,0-1.2,0-2.2-0.2c-3.2-0.4-4.7-0.9-6.4-3.8C1211,635.1,1212.9,625.2,1214.5,619.6z"/>
	<path style="fill:#FEFEFE;" d="M1141.7,444.9l0.7-0.1c2.9-0.4,6.4-1.2,9.2-0.9c3.3,0.3,4.3,1.6,6.4,3.9l-0.4,3.1
		c-2.5,3.8-6,5.3-9.9,7.3c-3.5,1.2-6.2,2-9.9,0.7c-2.4-2.4-2.2-2.6-2.6-5.8C1136.2,448.9,1138.5,447.3,1141.7,444.9z"/>
	<path style="fill:#FEFEFE;" d="M1215.1,768.6c1.6,0.1,3.3,0,4.8,0.4c2.7,0.6,4.1,2.4,5.3,4.8c2.5,5.1,0.5,14-1.5,19.1
		c-1.9,0-5.2,0.2-6.9-0.9c-2.1-1.4-3.7-3.7-4.4-6C1210.7,780.3,1212.7,773.6,1215.1,768.6z"/>
	<path style="fill:#FEFEFE;" d="M1214.8,701.1c2.9,0.1,5.1,0.5,7.8,1.5c1,1.4,2,2.7,2.6,4.4c2,5.7,0.1,14.7-2.4,20
		c-1.2-0.2-2.4-0.3-3.5-0.6c-2.8-0.8-4.5-1.7-5.9-4.4C1210.4,716.1,1213.2,707.1,1214.8,701.1z"/>
	<path style="fill:#FEFEFE;" d="M1345,469.7c4.6,0.2,8.7,1.1,13.1,2.7c3.6,1.4,5.4,3.2,6.9,6.7c0.4,3.8-1.1,6.1-2.8,9.3l-6-2.2
		c-5.5-2-10.6-3.3-13.2-9C1342.6,473.9,1343.2,472.5,1345,469.7z"/>
	<path style="fill:#FEFEFE;" d="M1402.2,501.5c0.9,0.3,1.2,0.4,2,0.7c5.1,2.1,11.3,5.8,13.2,11.2c1.5,4.5-0.4,7.5-2.3,11.4
		c-1.6-0.5-3.2-1-4.7-1.8c-4.7-2.3-9.9-6.6-11.2-11.8C1398,507.1,1400,504.9,1402.2,501.5z"/>
	<path style="fill:#FEFEFE;" d="M1118.6,455.4c2.7-0.1,6,0.1,8.2,1.7c1.7,1.2,1.3,1.6,1.6,3.5c-3.1,7.1-9.5,9.5-16.2,12.4
		c-0.7,0.1-1,0.2-1.8,0.1c-3.1-0.3-4.5-0.9-6.2-3.4c0-1.2,0-2.3,0.5-3.5C1107,459.9,1112.9,457.7,1118.6,455.4z"/>
	<path style="fill:#FEFEFE;" d="M1374.5,483.2c3.9,0.8,7.5,2,11.1,3.7c3,1.5,6.5,4.1,7.4,7.5c0.9,3.8-0.7,6-2.3,9.3
		c-4.4-1.1-8.6-2.7-12.5-4.9c-3.6-2-5.6-4.1-6.7-8.1C1371.7,487.4,1372.5,485.9,1374.5,483.2z"/>
	<path style="fill:#FEFEFE;" d="M1214.2,514.9c2.2,0,4.7-0.2,6.8,0.5c2.5,0.8,3.7,3.1,4.6,5.4c1.9,5.4,0.1,15-2.2,20.1
		c-1.2,0-2.5,0-3.6-0.2c-2.9-0.6-4.4-1.9-5.8-4.5C1210.8,530.6,1212.8,520.8,1214.2,514.9z"/>
	<path style="fill:#FEFEFE;" d="M1317.4,453.8c3.6,0.8,7,2,10.4,3.5c3.9,1.8,6.5,3.7,8,7.8c-0.3,3.9-1.2,4.7-3.6,7.9
		c-4.5-0.7-8.7-1.6-12.9-3.5c-3.8-1.8-4.8-3.6-6.1-7.3C1313.5,458.4,1315,456.6,1317.4,453.8z"/>
	<path style="fill:#FEFEFE;" d="M1214.3,480.5c2.8,0,5.1,0.3,7.8,1c1.1,1.2,2,2.3,2.6,3.8c2.2,5.4,1.2,15.6-1.2,20.9
		c-1.9,0.1-3.8,0.3-5.6-0.1c-2.5-0.7-3.7-1.8-4.8-4.1C1210.3,496.3,1212.8,486.3,1214.3,480.5z"/>
	<path style="fill:#FEFEFE;" d="M1285.7,442c4.2-0.1,9,0.6,13,1.9c3.4,1.2,5,2.7,6.6,5.9c0.8,4.2-0.7,6.8-2.4,10.4
		c-2.1-0.4-4-0.9-6-1.5c-5.9-1.9-11-3-14.1-8.9C1283,446.1,1283.7,445.2,1285.7,442z"/>
	<path style="fill:#FEFEFE;" d="M1214.9,734.8l6.2,0.5c3.1,2.3,4.7,5.3,5.2,9.3c0.7,5.5-0.9,11.8-4.2,16c-1.2-0.2-2.5-0.3-3.7-0.7
		c-3-1.1-4.6-3-5.8-5.9C1210.2,748.6,1212.9,740,1214.9,734.8z"/>
	<path style="fill:#FEFEFE;" d="M1214.9,584.4c3.8,0.3,5.6,0.1,8.8,2.5c1.4,2.9,2.7,5.7,2.7,8.9c-0.1,4.9-0.7,11.1-4.2,14.7
		c-1.4,0-3,0.1-4.4-0.3c-2.6-0.7-4-3.4-4.9-5.8C1210.6,598.5,1212.5,590.1,1214.9,584.4z"/>
	<path style="fill:#FEFEFE;" d="M1215.3,549c3.4,0.1,5.3,0.1,8.1,2.2c4.8,7.2,2.1,16.3,1,24.3c-2,0.2-4.4,0.6-6.4,0
		c-2.3-0.8-3.7-2.5-4.7-4.6C1210.5,565,1213.3,554.9,1215.3,549z"/>
	<path style="fill:#FEFEFE;" d="M1218.7,666.2c2.1,0.7,3.4,1.6,5.1,2.9c2.7,6.2,3.1,13.5,0.8,19.9c-1.4,3.9-3.5,4.3-7,6l-3.5-2.8
		c-2.3-5.6-3.3-10.9-2.1-16.9C1213,670.2,1214.7,668.8,1218.7,666.2z"/>
	<path style="fill:#FEFEFE;" d="M1059.9,481c2.8,0,5.6,0.9,8,2.4c0.4,2.1,0.3,3.8-0.9,5.6c-3.9,6.2-10.6,8.3-17.2,10.3
		c-3.3,0-6.2-0.8-9-2.5c-0.5-2-0.6-2.5,0.3-4.5C1044.3,485.6,1053.5,483,1059.9,481z"/>
	<path style="fill:#FEFEFE;" d="M1009.4,530.6c3.9,0.3,5.7,0.1,9,2.3c1,2.2,1.9,4.6,2.2,7c0.7,6-1.3,17-5.1,21.6
		c-3.1-0.1-5-0.3-7.9-1.7c-1.7-1.7-2.8-3.3-3.5-5.7C1002.2,546.4,1005.5,537.3,1009.4,530.6z"/>
	<path style="fill:#FEFEFE;" d="M1026.4,495.4c1.1,0,2.3,0,3.4,0.1c3.8,0.3,5.8,1.5,8.1,4.4c0.6,7.3-11.5,17.6-16.1,23
		c-3.3-0.1-5.5-0.6-8.4-1.9c-1.3-2.2-1.8-2.9-1.5-5.5C1012.8,507.4,1020.7,500.4,1026.4,495.4z"/>
	<path style="fill:#97B3F5;" d="M1705.5,483.7c3.9,0.6,6.6,0.9,9,4.5c2,3.1,2.5,7.3,2.8,10.9c0.6,7.7,0,59.5-1.4,64.2
		c-1.1,3.6-3.7,5.7-6.9,7.3c-4.2,2.1-8.9,3-13.5,3.3c-19.2,1.3-39.2-0.2-58.5-0.2c-27-0.1-54.1,1-81,0.2c-3.4-2.4-6.7-4.7-9.8-7.4
		l92.1,0.7c16.4,0.1,33.7,1.3,50-0.2c4.3-0.4,10.9-1.1,14.2-3.9c4.1-3.5,5.4-10.6,5.7-15.9c0.4-7.3-0.6-14.6-0.5-21.9
		c0.1-11.8,2-24.9,0.4-36.5C1707.8,486.7,1706.9,485.2,1705.5,483.7z"/>
	<path style="fill:#97B3F5;" d="M1498.6,615.6c5,2,7.9,4.6,11.7,8.3c3.9,2.4,7.7,4.6,8.6,9.4c1.9,9.9,2.2,86.8-1.9,92.3
		c-1.9,2.5-4.7,4.6-7.1,6.6c-53.9,3.2-113.3,0.5-167.9,0.9c-3.4-2.6-6.8-4.9-9.4-8.4l-2.5-2.9c9.3-4.5,28.8-2.3,39.2-2.3l78-0.1
		c13.4,0,28.1,1,41.3-0.9c4-0.6,7.3-1.5,10.4-4.1C1503.4,705.2,1502,627,1498.6,615.6z"/>
	
		<linearGradient id="SVGID_1_" gradientUnits="userSpaceOnUse" x1="1505.4886" y1="676.9545" x2="1381.381" y2="817.4237" gradientTransform="matrix(1 0 0 1 0 -54)">
		<stop  offset="0" style="stop-color:#2572C5"/>
		<stop  offset="1" style="stop-color:#3187F2"/>
	</linearGradient>
	<path style="fill:url(#SVGID_1_);" d="M1498.6,615.6c5,2,7.9,4.6,11.7,8.3c1,14.3,3.6,87.6-2.7,96c-3,3.9-13.5,4.8-18,5.1
		c-23,1.5-47.1,0.2-70.2,0.2c-28.7,0-58,1.1-86.7-0.3l-2.5-2.9c9.3-4.5,28.8-2.3,39.2-2.3l78-0.1c13.4,0,28.1,1,41.3-0.9
		c4-0.6,7.3-1.5,10.4-4.1C1503.4,705.2,1502,627,1498.6,615.6z"/>
	<path style="fill:#15ABB2;" d="M1641.7,529.7c1.5,0.9,2.8,1.3,4.5,1.6c9.9,1.7,47.1,2.7,53.8-2.6c2.1-1.6,3.4-4.1,3.7-6.7
		c0.6-4.9-1.2-11-1.7-16c-0.8-7.8-1-17-0.1-24.7c0.1-0.5,0.1-1.1,0.2-1.6c1.5,1.3,2.6,2.1,3.4,4c1.4,1.5,2.3,3,2.6,5.1
		c1.6,11.6-0.3,24.7-0.4,36.5c-0.1,7.3,0.9,14.6,0.5,21.9c-0.3,5.2-1.6,12.3-5.7,15.9c-3.4,2.9-9.9,3.5-14.2,3.9
		c-16.3,1.5-33.6,0.3-50,0.2l-92.1-0.7c-5.3-3-8.9-6.8-12.3-11.8c20-2.9,61.9,4.3,78.1-1.7c3.8-1.4,4.9-4.4,6.5-7.9l1.8,1
		c7.6-0.1,14.7-11.4,20.7-15.8C1641.2,530,1641.5,529.9,1641.7,529.7z"/>
	<path style="fill:#15ABB2;" d="M391.7,997.2c22.5,13.7,44.7,40.2,65.7,57.7c-0.1,19.9-0.2,39.8-0.7,59.8
		c-18.3-3.3-34.6-11.2-46.7-25.7C388.1,1062.8,388.7,1029,391.7,997.2z"/>
	<path style="fill:#303377;" d="M776.7,512.3c7.3-8.2,15-15.9,26.6-16.6c14.2-0.8,25.6,8.5,39.1,10.3c20.1,2.7,39.3-13.7,57.6,3.2
		c6.9,6.4,11.8,15.4,12.1,24.9c0.3,8.7-3.6,18.3-9.7,24.5c-5.6,5.7-13,8.9-20.6,11.3c-11.3,1.3-22.6-0.2-33.6-2.3
		c-8.7-1.7-41.4-13.2-47.1-11.3c-0.5-1.3-1.1-2.5-2.2-3.3c-11.7-8.1-28.9-12.6-43.1-22.8c-1.4-4-2.5-8.4-0.5-12.4
		c1.6-3.1,4.6-4.5,7.8-5.3C767.3,511.3,772.3,511.6,776.7,512.3z"/>
	<path style="fill:#15ABB2;" d="M1907.1,1141.3c40.7,10.3,91.9,38.1,113.9,75.1c5.5,9.2,15.5,31.1,12,41.8c-0.1,0.5-0.3,0.9-0.5,1.4
		c6.4,12.5-1.3,33-0.3,47c0.6,8,4.9,16.8,3.9,24.4c-0.8,1.1-1.6,2.4-2.5,3.4c0.4-1,0.5-1.1,0.6-2.3c0.5-5.9-3.8-26-7.5-30.3
		c-7-4.6-36.1-11.4-48.3-17.7c-13.6-6.9-23.7-20.8-35.8-26.7c-1.4-6.2-21.2-32-25.8-46.6c-4.9-15.3-6.7-30.9-7.8-46.8
		C1908.4,1156.8,1908.8,1148.3,1907.1,1141.3z"/>
	<path style="fill:#00739B;" d="M1937.8,1238.3c8.4-0.8,43-0.3,48.8,3.9l-0.3,2.3c-5.1,1.1-42-1.3-47.5-2.9L1937.8,1238.3z"/>
	<path style="fill:#76DEDD;" d="M1533.9,554.6c-2.9-6.8-2.7-62.9-0.3-71c0.9-2.9,2.3-6.1,5.2-7.5c4.2-2,9.8-2.4,14.4-2.7
		c15.5-0.8,136.5-1.6,144.3,1.6c2.7,1.1,3.6,2,4.6,4.7c-0.1,0.5-0.1,1.1-0.2,1.6c-0.9,7.8-0.7,17,0.1,24.7c0.5,4.9,2.3,11.1,1.7,16
		c-0.3,2.6-1.6,5.1-3.7,6.7c-6.7,5.3-43.9,4.4-53.8,2.6c-1.7-0.3-3-0.7-4.5-1.6c-0.2,0.2-0.5,0.3-0.7,0.5c-6,4.4-13,15.7-20.7,15.8
		l-1.8-1c-1.6,3.5-2.7,6.5-6.5,7.9C1595.8,558.9,1553.9,551.7,1533.9,554.6z"/>
	<path style="fill:#E84A5D;" d="M1600.5,529.1c0.4-8.3,15.9-30.3,21.3-37.4c6.4,11.1,17.1,25.7,19.9,38c-0.2,0.2-0.5,0.3-0.7,0.5
		c-6,4.4-13,15.7-20.7,15.8l-1.8-1c-3.5-4-8.2-7.6-12.2-11.2L1600.5,529.1z"/>
	<path style="fill:#D37292;" d="M1600.5,529.1c6.3-3.7,11.7-15.1,15.8-21.3c1,6,4.4,18.2,0.7,23.5c-1.2,1.7-2.6,2.1-4.3,2.9
		c-2.1-0.1-4.2-0.2-6.3-0.4L1600.5,529.1z"/>
	<path style="fill:#15ABB2;" d="M2139.3,1207.3c43.1-34,58.5-36.3,110.8-41.9c3.4,12.9-19.9,71.5-27.9,85.3c-1.1,1.8-2.3,3-4,4.3
		c-0.5,1.7-0.8,2.6-2.1,3.9c-0.3,3.3-0.4,3.2-2.6,5.4c-2.5,11.1-32.5,36.8-42.2,43c-15.3,9.8-33.8,15.2-51.9,11
		c-5-1.2-9.7-3.5-14.2-6l-1.7-1.4l-0.3-1.2c-9.1-17.2,1.5-31.2-2.3-45.2c5.5-4.6,11-19.8,15.2-26.6c6.2-10.1,13.6-18.8,20.9-28
		L2139.3,1207.3z"/>
	<path style="fill:#038FA2;" d="M2157.6,1269.5c16.2-4,30.4-13.8,47.3-16.1c4.4-0.6,9.6-1.2,13.3,1.5c-0.5,1.7-0.8,2.6-2.1,3.9
		c-15.7-0.5-48.6,16.9-56.6,15.6C2158.8,1272.8,2158.1,1271.2,2157.6,1269.5z"/>
	<path style="fill:#038FA2;" d="M2151.6,1249.5c0.3-0.2,0.6-0.4,0.9-0.6c10-6.9,18.7-18.5,27.4-27c8.4-8.3,52.1-49.7,61.9-50.1
		c-2.5,6.1-19.8,17.2-25.6,21.9c-15,12.2-28.9,25.1-42.5,38.8c-6.8,6.8-13.3,15.8-21,21.4c-7.6,12.3-19.9,23.7-29.2,35
		c-6.1,7.4-11.6,16.7-18.3,23.5l-1.7-1.4l-0.3-1.2c6.7-7.7,43-51.6,45.7-57.1c-0.7-10.9-5.7-33.6-12-42.7l2.3-2.4
		c6.6,3.9,8,13.6,9.8,20.8C2150.5,1233.8,2153.9,1244,2151.6,1249.5z"/>
	<path style="fill:#15ABB2;" d="M2136.9,1209.8c6.3,9.1,11.3,31.9,12,42.7c-2.8,5.6-39,49.4-45.7,57.1c-9.1-17.2,1.5-31.2-2.3-45.2
		c5.5-4.6,11-19.8,15.2-26.6C2122.2,1227.7,2129.6,1219,2136.9,1209.8z"/>
	<path style="fill:#F7B941;" d="M515.3,472.5c10.5-0.1,19.7,1.2,27.6,8.8c15,14.5,10.8,46.8,10.8,66.3c0.1,17.9,3.8,45.5-9.8,59.2
		c-7.9,8-17.6,9.4-28.4,9.7c-0.1,15.1-0.3,30.2,0,45.2c-12.5-15.5-24.8-31.1-38-45.9h-68.9l-15.1,0.3c3.1-0.6,6-0.7,8.3-3.1
		c3.7-3.9,5.8-10,9.4-14.4c11.4-13.7,23.9-26.6,35.8-40c-2.1-4.5-2.8-8-3.2-12.9c4.8-2.3,7.4-5.8,13-7.6l-1.1-0.2v-1.5
		c10.8-13.2,22.8-25.3,33.7-38.3c6.1-7.3,10.4-16.5,17.8-22.7C509.6,473.3,512.2,473.1,515.3,472.5z"/>
	<path style="fill:#FEFEFE;" d="M495.4,539.3c2,0,4.2,0,6.2,0.4c3,0.6,5.9,3.3,7.3,5.9c1.3,2.3,1.5,5,0.8,7.5
		c-1.2,4.4-4.1,6.5-7.8,8.8c-4.7-0.3-9-1.1-12.2-4.9c-1.8-2.1-2.6-4.5-2.2-7.2C488.2,544.7,491.5,542.1,495.4,539.3z"/>
	<path style="fill:#FEFEFE;" d="M443.7,545.7c4.8-2.3,7.4-5.8,13-7.6c4.3,2.2,8.5,4.3,10.2,9.2c0.9,2.5,0.6,5.3-0.7,7.7
		c-2,3.7-5.3,5.6-9,7.3l-10.3-3.7C444.9,554.1,444.2,550.6,443.7,545.7z"/>
	<path style="fill:#FACE5B;" d="M447,558.6l10.3,3.7c-15.2,18.8-31.8,36.2-48.6,53.5l-15.1,0.3c3.1-0.6,6-0.7,8.3-3.1
		c3.7-3.9,5.8-10,9.4-14.4C422.7,584.9,435.2,572,447,558.6z"/>
	
		<linearGradient id="SVGID_00000050629442359347435870000005966089390241022094_" gradientUnits="userSpaceOnUse" x1="1024.641" y1="644.235" x2="1111.2808" y2="758.0471" gradientTransform="matrix(1 0 0 1 0 -54)">
		<stop  offset="0" style="stop-color:#A6F0FB"/>
		<stop  offset="1" style="stop-color:#9BB8FE"/>
	</linearGradient>
	<path style="fill:url(#SVGID_00000050629442359347435870000005966089390241022094_);" d="M1056,575.1c17.3-1.8,33,0.6,48,9.7
		c17.7,10.6,31.3,28.6,36,48.7c4.4,18.6,0.9,37.6-9.4,53.6c-11.4,17.7-28,28.3-48.4,32.8c-17.4,2.2-33.8-0.2-49.1-9.3
		c-17.7-10.5-31.2-27.7-36-47.8c-4.3-18-1.6-37.9,8.1-53.8C1017,590.1,1034.7,580.1,1056,575.1z"/>
	<path style="fill:#FEFEFE;" d="M1051.2,586.1c13.5-1.3,26,0.3,37.9,7c13.8,7.7,25.6,20.7,29.8,36.2c3.9,14.7,1.5,31.2-6.4,44.2
		c-9.1,15-22.9,23.9-39.7,28.2c-15.1,1.5-29.3,0.3-42.5-7.6c-13.5-8-23.4-21.6-27-36.9c-3.6-15-1.1-31.4,7.1-44.5
		C1019.8,597.6,1034.2,590.1,1051.2,586.1z"/>
	
		<linearGradient id="SVGID_00000165928200055961117960000008020983231972694427_" gradientUnits="userSpaceOnUse" x1="1072.8026" y1="728.4721" x2="1063.8677" y2="672.7428" gradientTransform="matrix(1 0 0 1 0 -54)">
		<stop  offset="0" style="stop-color:#22D2AC"/>
		<stop  offset="1" style="stop-color:#0CB8B4"/>
	</linearGradient>
	<path style="fill:url(#SVGID_00000165928200055961117960000008020983231972694427_);" d="M1093.6,611.1c3.4,0.8,6.8,2.4,9.4,4.9
		c1.2,1.2,2.3,2.9,2.2,4.7c-0.3,6.1-37.2,54.1-43.9,60.4c-5.8-4.3-11.2-9.5-16.7-14.3c-4.2-3.9-16.6-13.5-17.2-19.1
		c-0.2-1.8,0.8-2.2,1.9-3.6c5.5-2.3,12.6-1.1,18.4-0.8c4.8,2.9,8.7,6.2,12.8,10.1C1070.4,638.8,1082.4,624.8,1093.6,611.1z"/>
	<path style="fill:#F49177;" d="M729.9,549.2c6.7-11.7,13.2-14.7,25.8-19c14.2,10.2,31.4,14.6,43.1,22.8c1.2,0.8,1.8,2,2.2,3.3
		c5.7-2,38.4,9.6,47.1,11.3c11.1,2.1,22.4,3.6,33.6,2.3c2.7,33.9,7.4,86.8-16.1,114.7c-6.6,7.9-15.8,12.5-26.1,13.1
		c-4.7,0.3-9.7-0.1-14.3-0.8c-27-5.6-41.1-20-56.8-41.6c-0.7-1.8-1.4-2.4-2.7-3.7l-0.4-9.3C745.8,617.4,728.2,581.3,729.9,549.2z"/>
	<path style="fill:#0E1248;" d="M729.9,549.2c6.7-11.7,13.2-14.7,25.8-19c14.2,10.2,31.4,14.6,43.1,22.8c1.2,0.8,1.8,2,2.2,3.3
		c2.7,13.7,1.7,32.5-6.5,44.5c-0.8,1.2-2.4,1.9-3.7,2.6c-9.2-1.7-10.2-17.7-21.8-9.8c-4.2,2.8-6.6,6-7.4,11c-0.6,4-0.9,9.8,1.9,13
		c2.9,3.5,8.9,5.5,13,7.3c-3.8,5.6-8.3,11.2-11.4,17.3C745.8,617.4,728.2,581.3,729.9,549.2z"/>
	<path style="fill:#4A89F4;" d="M1330.2,722c-0.2-0.1-0.3-0.2-0.5-0.3c-2.6-2.1-3.8-4.6-4.3-7.9c-2.2-15.1-2.7-67.3-0.6-82.3
		c0.7-5.2,1.9-9.9,5-14.2c3.3-1.7,6.3-2.1,10-2.3c20.2-1.1,41,0.4,61.2,0.4c32.5,0,65.2-1,97.6,0.3c3.4,11.3,4.8,89.6,0.5,98.9
		c-3.1,2.6-6.5,3.5-10.4,4.1c-13.2,2-27.9,0.9-41.3,0.9l-78,0.1C1358.9,719.7,1339.5,717.5,1330.2,722z"/>
	<path style="fill:#FEFEFE;" d="M1377.1,664c7.5-6.3,37.8-19.1,48.2-18.1c11.2,1.1,18.7,9.1,25.2,17.5c0.5,0.7,1,1.3,1.5,2
		c8.7-1.6,16.2-1.3,23.7,3.7c3.8,2.5,6.6,6.2,7.4,10.8c0.8,5.2-0.5,10.6-3.6,14.8c-2.5,3.3-6.3,5.9-10.3,6.5c-13.1,2-29,0-42.4,0
		c-21.3-0.1-44.1,1.7-65.1-0.5c-2.8-0.3-5-0.9-7.2-2.7c-1.7-1.4-3.2-3.8-3.3-6c-0.1-3,1-5.9,3.3-7.9c1.3-1.1,3.2-1.5,4.8-1.8
		c0.5-6-0.7-12.2,2.6-17.7c1.3-2.1,2.7-3.4,5.1-4C1370.5,659.8,1374.1,662.1,1377.1,664z"/>
	<path style="fill:#FACE5B;" d="M1359.1,682.3c0.5-6-0.7-12.2,2.6-17.7c1.3-2.1,2.7-3.4,5.1-4c3.7-0.8,7.3,1.4,10.2,3.3
		c0,0.2,0.1,0.5,0.1,0.7c1.4,6.6,7.7,10.9,8.6,17.3c-3.4,3.2-10.9,2.4-15.4,2.3C1366.4,684.2,1362.6,684.5,1359.1,682.3z"/>
	<path style="fill:#FACE5B;" d="M328.2,603.4c-3.4-3.8-6.2-8.9-7.3-13.9c-3.4-15.3-1.1-54.8-1.4-73.2c-0.2-12,1-24.7,9.9-33.7
		c4.4-4.4,10-7.8,16.1-9c17.2-3.5,38.2-1.2,55.8-1.2h113.9c-3,0.7-5.7,0.8-8.1,2.9c-7.3,6.3-11.6,15.4-17.7,22.8
		c-10.9,13-22.9,25.1-33.7,38.2v1.5l1.1,0.2c-5.6,1.8-8.2,5.3-13,7.6c0.5,4.8,1.1,8.4,3.2,12.9c-11.8,13.4-24.3,26.3-35.8,40
		c-3.6,4.3-5.7,10.5-9.4,14.4c-2.2,2.4-5.2,2.5-8.3,3.1c-10.4-0.1-20.8,0.4-31.2,0.3C348.3,616.2,338.1,613.6,328.2,603.4z"/>
	<path style="fill:#FEFEFE;" d="M366.2,539.4c1.3,0,2.7,0,4,0c3.6,0.2,6.3,1.3,8.7,4.2c2,2.3,2.8,5.3,2.3,8.3
		c-0.7,4.8-3.6,7.4-7.3,10.1c-4.9-0.3-9.5-1.5-12.7-5.5c-1.7-2-2.2-4.5-1.9-7C359.8,544.8,362.9,542.3,366.2,539.4z"/>
	<path style="fill:#FEFEFE;" d="M409.8,539.3c1.2,0,2.5,0,3.7,0.1c3.8,0.3,7.3,2.2,9.7,5.3c1.5,2,2.1,4.6,1.8,7
		c-0.7,4.7-3.8,7.2-7.2,10c-5-0.1-9.2-0.7-12.8-4.6c-1.8-2-2.5-4.5-2.2-7.2C403.2,545.1,406.4,542.4,409.8,539.3z"/>
	<path style="fill:#F7B941;" d="M328.2,603.4c32.3-2,68.7-18.8,93.6-39.3c6.4-5.3,14.2-15.6,22-18.4c0.5,4.8,1.1,8.4,3.2,12.9
		c-11.8,13.4-24.3,26.3-35.8,40c-3.6,4.3-5.7,10.5-9.4,14.4c-2.2,2.4-5.2,2.5-8.3,3.1c-10.4-0.1-20.8,0.4-31.2,0.3
		C348.3,616.2,338.1,613.6,328.2,603.4z"/>
	
		<linearGradient id="SVGID_00000140713163438268909950000004425751489651292828_" gradientUnits="userSpaceOnUse" x1="1290.2823" y1="458.787" x2="1144.1917" y2="394.5214" gradientTransform="matrix(1 0 0 1 0 -54)">
		<stop  offset="0" style="stop-color:#D83557"/>
		<stop  offset="1" style="stop-color:#EB596D"/>
	</linearGradient>
	<path style="fill:url(#SVGID_00000140713163438268909950000004425751489651292828_);" d="M1148,329.9c4.6-7.2,10-13.7,16.5-19.3
		c18.7-16.1,41-20.7,65-18.9c22.7,4.2,41.6,15.1,54.8,34.4c12.8,18.6,17.4,42.8,13,64.9c-3.3,16.5-10.7,29.4-22.3,41.5l-12,8.9
		c-12.1,6.6-24.2,12.1-38,13.6h-13c-11.4-1.3-22.5-4.7-32.7-10c-19.4-10.1-33.5-26.1-39.8-47.2C1132.5,374,1136.5,351.4,1148,329.9z
		"/>
	<path style="fill:#D9385B;" d="M1258.5,376.9c1.8,0.1,3.6,0.2,5.4,0.2c-0.1,7.9-34.4,50.2-41.4,59.4c-8.7-9.9-39.6-45.7-39.5-58.4
		c13.7,14.9,23.7,33.3,37.4,48.2C1232.5,409.6,1245.6,393.2,1258.5,376.9z"/>
	<path style="fill:#FEFEFE;" d="M1202.1,373.6c0.1-12.7-2.5-27.5,0.6-39.8c1.2-4.6,3.5-8.6,7.9-10.9c4.2-2.2,9.8-2.2,14.3-0.8
		c5.7,1.8,8.7,5.9,11.3,10.9c4,3.2,4.8,4.8,5.3,9.9c1,9.4,1,21-0.4,30.4c5,0.1,11.7-0.6,16.3,1.6l1.1,1.8
		c-12.8,16.3-25.9,32.7-38.2,49.4c-13.7-14.9-23.7-33.3-37.4-48.2l-1.7-2.1l0.2-1.4C1187.4,372.3,1195.7,373.5,1202.1,373.6z"/>
	<path style="fill:#D9385B;" d="M1236.2,333.1c4,3.2,4.8,4.8,5.3,9.9c1,9.4,1,21-0.4,30.4l-3.2-0.2
		C1233.5,367.6,1236.1,341.3,1236.2,333.1z"/>
	<path style="fill:#15ABB2;" d="M2059.3,1172c-2.5-2.7-8.1-5.2-11.4-7.2c-15.7-9.5-27-19-36.5-35.1c-20.7-35-16.5-82.7,2.4-117.7
		c4-7.3,15.3-22,16.8-29c0.1-0.4,0.2-0.9,0.2-1.3c10.4,6.8,20.5,29.2,26.2,40.1c4.9,9.4,25,47.4,22,57c4,4.3,5.4,10.4,5.2,16.2
		c-0.1,1.9-0.6,3.3-1.3,5c2.3,3.3,2.9,6.5,2.1,10.5c-0.3,1.5-0.7,2.8-1.3,4.1c4.4-5.1,7.9-10.7,12.3-15.8
		c14.6-17.1,34.1-32.6,55.2-40.9c9.2-3.6,19.4-5.3,28.3-9.2c5.4,15.6-4.5,69.7-11.7,85.1c-0.8,1.7-1.9,3-3.3,4.2
		c0.1,2.2-0.3,2.9-1.4,4.7c1.8,7.2-5.5,18.6-9.1,24.6c-10.9,18.3-25.9,32.6-47,38c-12.8,3.2-28.6,0.5-40.2,5.6l-4.4-2
		c-1.5,12.2-2.3,43.5-7.7,52.5l-4.6-0.1l-0.4-1.2C2051.6,1249.4,2060.7,1178.4,2059.3,1172z"/>
	<path style="fill:#038FA2;" d="M2163.1,1142.4c-10.5,1-19.4,3.7-29.6,5.6c-4.9,0.9-10.3,1.9-14.6-1l0.4-1.8
		c4.1-4.2,10.5-5.9,16.2-6.9c6.2-1.1,24.2-3.9,29-0.5C2164.7,1139.8,2164.3,1140.6,2163.1,1142.4z"/>
	<path style="fill:#484C8C;" d="M2059.3,1172c0.7-1.7,1.3-3.6,1-5.4c-1.8-15-6.4-30.3-9.2-45.2c-5-25.7-8.9-51.5-13.2-77.3
		c-2.8-16.9-6.6-37.3-4.7-54.4c1.6,4.8,1.8,9.9,2.2,14.9c1.9,20,4.6,39.5,7.9,59.4c2,12.1,6,26.5,6,38.7c0,0.2,0,0.5,0,0.7
		c1.1,1.8,16.8,72,16.6,75.8l0.8,1.1c6.1-4.8,3.5-18.2,8.8-25.1c2.6,8.7-7.9,44.7-12.5,52.7c-0.1,0.3-0.4,0.5-0.5,0.8
		c-1.5,12.2-2.3,43.5-7.7,52.5l-4.6-0.1l-0.4-1.2C2051.6,1249.4,2060.7,1178.4,2059.3,1172z"/>
	<path style="fill:#4A89F4;" d="M1778.4,646.3c3.5-0.3,6.9-0.7,10.4-0.6c22.7,0.2,44.4,11.5,59.8,27.7c5.7,6,14.9,17.9,14.7,26.4
		c5.8-2.3,11.2-4.8,17.6-4.6c10.1,0.3,21.6,4.4,28.4,12.2c3.4,4,7.3,11.7,7,17c2.3,0.1,4.6,0.1,6.9,0.3c16.4,1.1,33.9,10,44.6,22.5
		c4.2,4.9,10.1,13.1,9.5,19.8c-42-1-84.2-0.2-126.3-0.2l-201.5,0.1c0.8-17.1,5.8-34.1,17.1-47.4c12.8-14.9,29.4-20.7,48.5-22.1
		c4.8-4.8,7.6-12.6,11.2-18.4C1737.5,660.6,1758.1,651.2,1778.4,646.3z"/>
	<path style="fill:#4A89F4;" d="M626.2,270.2c12.7-1.2,27,2.5,38.3,8.2c23.2,11.7,34,30.3,42,54.1c5.5-3.7,10.8-6.8,17.3-8.2
		c8.5-1.9,17-0.6,24.3,4.2c10.6,7,13.9,17.5,16.5,29.3c1.8-0.7,3.5-1.2,5.4-1.6c11-2.3,22-1.2,31.5,5.2
		c13.2,8.8,17.5,22.1,20.5,36.9H692.5l-200.7-0.2c-3.3-11-4.4-21.3-1.1-32.5c3.5-12,11.5-22.6,22.6-28.5c13.9-7.4,26.7-5.7,41.2-1.2
		c3-13.7,8.2-26.4,17-37.3C585.6,281.2,604.3,272.6,626.2,270.2z"/>
	<path style="fill:#15ABB2;" d="M233.9,1065.8c16.7,5.2,33.9,7.9,50.5,13.9c65.4,23.7,112.3,71.5,141.4,133.8
		c9.4,1.5,21.4,4.8,30.8,3.9l0.2,0.8c-0.1,15.3,0.4,30.8-0.6,46c-1.5,23.7-4.6,46.9-4.4,70.8l-13.8-0.1l-3.9-0.3
		c-4.7-16.9-10.3-33-17.3-49.2c-9.5,0.9-19,0.9-28.5-0.3c-44.2-5.3-76.3-31-103.1-64.8C253.8,1174.9,238.2,1120.3,233.9,1065.8z"/>
	<path style="fill:#97B3F5;" d="M425.8,1213.5c9.4,1.5,21.4,4.8,30.8,3.9l0.2,0.8c-0.1,15.3,0.4,30.8-0.6,46
		c-1.5,23.7-4.6,46.9-4.4,70.8l-13.8-0.1c-3.6-17.7-9.1-35.9-17.3-52c2.4-2.9,4.9-6.1,6.7-9.5
		C437.4,1254.3,431.9,1232.8,425.8,1213.5z"/>
	<path style="fill:#15ABB2;" d="M457.5,852.3l1.9-2.5c40.8,47.4,68.4,130.2,63.8,192.6c-0.6,8.2-1.8,16.3-3.1,24.4
		c32.1-39.7,62.3-62,109.9-80.4l-0.1,31.6c-27.7,28.8-56,56.2-81,87.4c-14,17.4-27.7,35.2-40.6,53.4c-7.1,10.1-13.5,21.1-21,30.8
		c-5.8,9.2-10.4,18.9-15.2,28.7c-3.9,0-7.6-0.6-11.5-1.1l-1-0.7l-2.9,1.6l-0.2-0.8c1.4-34,0.1-68.7,0.1-102.8
		c0.5-19.9,0.6-39.8,0.7-59.8c-20.9-17.5-43.2-44-65.7-57.7l0.8-6.6C401.6,937.6,423.2,893.2,457.5,852.3z"/>
	<path style="fill:#105DC0;" d="M457.5,852.3l1.9-2.5c3.4,19.3,1.9,40.4,1.9,60c-0.1,36.1-0.8,72.4-0.3,108.5
		c14.3-12.1,33.6-31.2,49.1-40.6l2,1.1c-0.8,5.3-44.1,38.7-51.1,44.6l0.3,91.3l-0.2,65.5c0,11.9,1.2,25.3-0.5,37.1l-1-0.7l-2.9,1.6
		l-0.2-0.8c1.4-34,0.1-68.7,0.1-102.8c0.5-19.9,0.6-39.8,0.7-59.8c-20.9-17.5-43.2-44-65.7-57.7l0.8-6.6
		c22.1,19.4,43.7,39.4,64.5,60.1C455.5,984.6,458.1,918.4,457.5,852.3z"/>
	<path style="fill:#DAE9FA;" d="M461.3,1114.7c14.2-0.9,24.4-5.7,36.2-13.3c-11.5,21.2-24.8,50.7-17.3,75.1
		c1.4,4.7,4.1,9.2,7.1,13.2c-5.8,9.2-10.4,18.9-15.2,28.7c-3.9,0-7.6-0.6-11.5-1.1c1.7-11.7,0.5-25.1,0.5-37.1L461.3,1114.7z"/>
	<path style="fill:#15ABB2;" d="M392.5,990.5c9.1-52.9,30.7-97.3,65.1-138.2c0.6,66.1-2,132.3-0.5,198.3
		C436.1,1029.9,414.6,1009.9,392.5,990.5z"/>
	<path style="fill:#F7B941;" d="M1067.3,953.3c9.3-24.8,17.8-50,26.6-75.1c4.3-12.2,8-25.2,13.6-36.9c2.4-5,4.9-9.2,9.3-12.6
		c4.6-1.4,9.1-1.9,13.8-2.2c25.8-1.3,52.1,0.4,77.9,0.4c26.4-0.1,53.9-1.9,80.2-0.1c3.1,0.2,5.7,0.9,8.5,2.1c2.3,2.9,3.7,5,3.3,8.8
		c-1.7,16.6-16,43.9-21.2,61.7c-5,11.6-10.1,23.2-13.8,35.3c-16,26.7-21.2,60.8-39.6,86.1c4.2,5.6,7.8,10.2,7.7,17.5
		c-3.8,6-6.7,9.9-14.1,11.6c-15.7,3.6-35.3,1.2-51.5,1c-15.8-1.3-31.6,0.3-47.4,0.6c-25.1,0.5-50.3,0.2-75.5,0.3
		c-26.3-1.8-53.1-0.7-79.5-0.7c-23.1,0-46.7-1.2-69.7,0.7c-3.4-0.7-6.7-1.5-9.8-3.1c-4-2.1-5.3-4.9-6.6-9l0.1-3.8l0.6-0.5
		c0.3-0.3,0.7-0.6,1-0.9c4-3.8,7.7-6.3,12.6-8.8c5-0.2,10.1,0.5,15.1,0.9c9.3,2.3,19.8,1.9,28.4-2.3c11.9-9.5,35.4-5.6,50.1-5.5
		l20.2,0.2c12.1,0.2,26.6,1.8,38.4-0.7c-1.5-6.8,6.7-23.3,9.2-30C1058.6,976.7,1063.3,965,1067.3,953.3z"/>
	<path style="fill:#F6EED4;" d="M1187.6,900.9c3.4-0.3,7.7-0.7,11.1,0.2c4.4,1,8.6,4.1,10.8,8c2.7,4.7,2.9,10.4,1.5,15.6
		c-2.5,9.6-8.2,14.7-16.5,19.4c-3.2,0.8-7,1.2-10.3,0.5c-4.3-0.9-8.4-3.5-10.5-7.4c-3-5.5-2.8-12.4-1.2-18.2
		C1175,910.1,1179.8,905.4,1187.6,900.9z"/>
	<path style="fill:#0E1248;" d="M1067.3,953.3c9.3-24.8,17.8-50,26.6-75.1c4.3-12.2,8-25.2,13.6-36.9c2.4-5,4.9-9.2,9.3-12.6
		c4.6-1.4,9.1-1.9,13.8-2.2c25.8-1.3,52.1,0.4,77.9,0.4c26.4-0.1,53.9-1.9,80.2-0.1c3.1,0.2,5.7,0.9,8.5,2.1
		c-38.6,2.2-78.6-0.1-117.3-0.1c-13.5,0-28.2-1.1-41.6,0.8c-5.9,0.8-14.5,2.7-18.5,7.5c-5.4,6.6-60.8,168.9-65.7,184.4l-1,1.8
		l-2.2,0.5l-2.8-1.1l0.7-3.1l-2.9-1.3c-1.5-6.8,6.7-23.3,9.2-30C1058.6,976.7,1063.3,965,1067.3,953.3z"/>
	<path style="fill:#105DC0;" d="M987.4,1019l20.2,0.2c12.1,0.2,26.6,1.8,38.4-0.7l2.9,1.3l-0.7,3.1l2.8,1.1l2.2-0.5l1-1.8
		c15.8-3.6,48.6-1.1,66.4-1.2c34.8,0,70.7-1.9,105.4,0.5c4.2,5.6,7.8,10.2,7.7,17.5c-3.8,6-6.7,9.9-14.1,11.6
		c-15.7,3.6-35.3,1.2-51.5,1c-15.8-1.3-31.6,0.3-47.4,0.6c-25.1,0.5-50.3,0.2-75.5,0.3c-26.3-1.8-53.1-0.7-79.5-0.7
		c-23.1,0-46.7-1.2-69.7,0.7c-3.4-0.7-6.7-1.5-9.8-3.1c-4-2.1-5.3-4.9-6.6-9l0.1-3.8l0.6-0.5c0.3-0.3,0.7-0.6,1-0.9
		c4-3.8,7.7-6.3,12.6-8.8c5-0.2,10.1,0.5,15.1,0.9c9.3,2.3,19.8,1.9,28.4-2.3C949.2,1015,972.7,1018.9,987.4,1019z"/>
	<path style="fill:#0E1248;" d="M987.4,1019l20.2,0.2c12.1,0.2,26.6,1.8,38.4-0.7l2.9,1.3l-0.7,3.1l2.8,1.1
		c-37.5,2.5-76,0.4-113.6,0.5C949.2,1015,972.7,1018.9,987.4,1019z"/>
	<path style="fill:#0E1248;" d="M879.5,1039.9c36.9-2.4,74.9-0.8,111.9-0.7c80.7,0.1,161.5,1.1,242.2-0.7c-3.8,6-6.7,9.9-14.1,11.6
		c-15.7,3.6-35.3,1.2-51.5,1c-15.8-1.3-31.6,0.3-47.4,0.6c-25.1,0.5-50.3,0.2-75.5,0.3c-26.3-1.8-53.1-0.7-79.5-0.7
		c-23.1,0-46.7-1.2-69.7,0.7c-3.4-0.7-6.7-1.5-9.8-3.1C882.1,1046.9,880.8,1044,879.5,1039.9z"/>
	<path style="fill:#97B3F5;" d="M2032.5,1259.6c5.3,0.3,12.1,1.6,17.2,0.1l0.4,1.2l4.6,0.1c15,2.5,30.9,2,46.1,3.4
		c3.8,14-6.8,28,2.3,45.2l0.3,1.2l1.7,1.4c4.5,2.5,9.2,4.9,14.2,6c18.1,4.2,36.6-1.2,51.9-11c9.7-6.2,39.7-31.9,42.2-43
		c20.3,3.5,95.9,17.1,107.2,28.4c2.8,8.3-16,47.6-21,57.7c-26.9,54.7-67.7,105.1-116.6,141.7c-11.7,8.8-24.3,15.7-36.5,23.8
		c-9.3-0.8-19.1,0-28.2-2.1c-11.2,3.2-35,0.8-47.6,0.7c-20.2,0.3-42,1.8-62-0.8c-1.4-4-6.4-6.8-7.9-11.5
		c-8.6-26.7-2.5-58.6-12.1-84.9c1.7-6.3-0.9-19.5-3.7-25.3c-5.5-1.5-12.9-0.6-18.7-0.5c5.5-10.2-1.6-24.1,3.9-34.6
		c7.4-13.9,51.6-3.4,66.4-7.7v-2.8c-0.3-4.1-1.9-7.9-3.2-11.8c0.9-1,1.7-2.2,2.5-3.4c1.1-7.7-3.3-16.4-3.9-24.4
		C2031.2,1292.6,2038.9,1272.1,2032.5,1259.6z"/>
	<path style="fill:#E84A5D;" d="M2146.3,1350.9c4.3,0.2,7.5,0.6,10.4,4c6,6.9,4.2,23,3,31.6c-0.2,1.5-0.6,2.7-1.1,4.1
		c-4.9-0.2-9.9-1.1-14,2.1l-0.5-1c-4.8-3-22.8-1.3-29.4-1.5c13.4-7.9,11.2-27.5,20.8-37.5C2138.1,1350.1,2143,1350.9,2146.3,1350.9z
		"/>
	<path style="fill:#F49177;" d="M2032.5,1259.6c5.3,0.3,12.1,1.6,17.2,0.1l0.4,1.2l4.6,0.1c15,2.5,30.9,2,46.1,3.4
		c3.8,14-6.8,28,2.3,45.2l0.3,1.2l1.7,1.4c-2.2,7.3-16.5,33.8-21.8,38c13.6-0.1,51.9-2.5,62.9,0.6c-3.3,0-8.3-0.8-10.8,1.8
		c-9.6,10-7.4,29.6-20.8,37.5c-30.6,2.1-62,0.5-92.7,0.4c-11.6,0-25.8-1.5-37.1,1.1c-5.5-1.5-12.9-0.6-18.7-0.5
		c5.5-10.2-1.6-24.1,3.9-34.6c7.4-13.9,51.6-3.4,66.4-7.7v-2.8c-0.3-4.1-1.9-7.9-3.2-11.8c0.9-1,1.7-2.2,2.5-3.4
		c1.1-7.7-3.3-16.4-3.9-24.4C2031.2,1292.6,2038.9,1272.1,2032.5,1259.6z"/>
	<path style="fill:#97B3F5;" d="M2032.5,1259.6c5.3,0.3,12.1,1.6,17.2,0.1l0.4,1.2l4.6,0.1c15,2.5,30.9,2,46.1,3.4
		c3.8,14-6.8,28,2.3,45.2l0.3,1.2c-5.4,8.4-17.9,34.1-23.2,39.3c-9.7-0.1-19.8,0.3-29.4-0.5h-6.4c-3.6,0-4.9-1.5-7.7-3.5
		c-0.3-4.1-1.9-7.9-3.2-11.8c0.9-1,1.7-2.2,2.5-3.4c1.1-7.7-3.3-16.4-3.9-24.4C2031.2,1292.6,2038.9,1272.1,2032.5,1259.6z"/>
	<path style="fill:#53A9F7;" d="M2032.5,1259.6c5.3,0.3,12.1,1.6,17.2,0.1l0.4,1.2l4.6,0.1c1.2,3.8-1.6,84.1-3.1,87.2
		c-0.2,0.5-0.5,1-0.8,1.4h-6.4c-3.6,0-4.9-1.5-7.7-3.5c-0.3-4.1-1.9-7.9-3.2-11.8c0.9-1,1.7-2.2,2.5-3.4c1.1-7.7-3.3-16.4-3.9-24.4
		C2031.2,1292.6,2038.9,1272.1,2032.5,1259.6z"/>
	<path style="fill:#635673;" d="M2050.1,1261l4.6,0.1c1.2,3.8-1.6,84.1-3.1,87.2c-0.2,0.5-0.5,1-0.8,1.4h-6.4
		C2048.9,1343.3,2049.5,1273,2050.1,1261z"/>
	<path style="fill:#E84A5D;" d="M2114.8,1390.2c6.6,0.1,24.6-1.5,29.4,1.5l0.5,1c0.9,5.2-0.1,18.7-3.2,23.1
		c-0.4,0.6-0.8,0.8-1.3,1.3c2.8,5.9-8.5,76-12,85.4c-0.5,1.4-1.2,2.5-2.1,3.7c-1.1,3.6-3.6,5.4-6.9,7.1c-0.3,0.1-0.5,0.2-0.8,0.4
		c-11.2,3.2-35,0.8-47.6,0.7c-20.2,0.3-42,1.8-62-0.8c-1.4-4-6.4-6.8-7.9-11.5c-8.6-26.7-2.5-58.6-12.1-84.9
		c1.7-6.3-0.9-19.5-3.7-25.3c11.2-2.6,25.4-1.2,37.1-1.1C2052.7,1390.7,2084.2,1392.3,2114.8,1390.2z"/>
	<path style="fill:#D9385B;" d="M2111.4,1417.2c9.6-0.4,19-0.4,28.6,0c2.8,5.9-8.5,76-12,85.4c-0.5,1.4-1.2,2.5-2.1,3.7
		c-1.1,3.6-3.6,5.4-6.9,7.1c-0.3,0.1-0.5,0.2-0.8,0.4c-11.2,3.2-35,0.8-47.6,0.7c2.9-4.6,6.8-8.4,9.8-13
		c12.1-18.6,21.3-39,27.9-60.2C2110.3,1434.9,2114.6,1423.1,2111.4,1417.2z"/>
	<path style="fill:#A9184A;" d="M2114.8,1390.2c6.6,0.1,24.6-1.5,29.4,1.5l0.5,1c0.9,5.2-0.1,18.7-3.2,23.1
		c-0.4,0.6-0.8,0.8-1.3,1.3c-9.6-0.4-19-0.4-28.6,0c-12.2-1.5-26.1-0.4-38.5-0.4l-84.2,0.3c1.7-6.3-0.9-19.5-3.7-25.3
		c11.2-2.6,25.4-1.2,37.1-1.1C2052.7,1390.7,2084.2,1392.3,2114.8,1390.2z"/>
	<path style="fill:#97B3F5;" d="M1886.5,911.7c2.9,4.1,2.7,6.8,2.9,11.8c0.9,27.3-0.2,54.8-0.2,82.1l-0.4,169.2
		c0,14.6,2.3,69.3,0,79.2c-0.4,1.5-0.9,2.9-1.8,4.2c8.5,0,50.7,1.9,55.5-1.1c12.1,6,22.2,19.8,35.8,26.7
		c12.3,6.2,41.4,13.1,48.3,17.7c3.7,4.4,8,24.4,7.5,30.3c-0.1,1.2-0.2,1.3-0.6,2.3c1.3,3.9,2.8,7.7,3.2,11.8v2.8
		c-14.8,4.3-59-6.2-66.4,7.7c-5.5,10.5,1.6,24.4-3.9,34.6c5.7,0,13.2-0.9,18.7,0.5c2.8,5.8,5.4,19,3.7,25.3
		c9.6,26.3,3.6,58.3,12.1,84.9c1.5,4.7,6.5,7.4,7.9,11.5c-0.7,0.4-0.9,0.7-1.8,0.9c-6.8,1.4-16.3,0.3-23.3,0.3l-57.3-0.1h-113.1
		c-21.5,0.1-43.2,0.8-64.7,0c-2.9-0.1-5-0.4-7.5-2.1c2.2-0.8,4.6-1.6,6.4-3.3c3.3-3,4-7.2,4.3-11.5c0.3-4.9,0.4-9.9-3.3-13.7
		c-9.6-9.7-44.3-4.9-57.3-4.5l-21.9-0.5c-3.4-25.6-10.3-51.4-14.8-76.9c-5.2-25.1-9-50.7-15.2-75.6c1.2-1.7,2-2.3,4.2-2.6
		c18.1-1.8,37.8-0.2,56.2-0.3l117.8-0.1c15.3,0,42.9,2.7,56.3-2.6c5.9-2.3,10.6-7.8,12.9-13.7c2-5.2,1.8-12.6,2-18.2
		c1.4-55.6-0.5-114.6-0.4-170.6l0.1-122.5c0.1-25.5,0.8-51.2,0-76.7C1888.1,916.6,1887.7,914.4,1886.5,911.7z"/>
	<path style="fill:#4A89F4;" d="M1562.6,157.7c30.3-19.5,64.4-27.4,100-19.7c19.5,4.2,58.5,21.8,68.3,39.9c0.1,0.2,0.2,0.4,0.3,0.6
		c7.1,5.4,12.2,14.2,16.6,21.8c5.6,9.7,17.2,31.4,14.4,41.9c9.7-4.3,18.3-10.5,28.6-13.6c13.2-3.9,26.3-3,38.5,3.6
		c11.3,6.2,20.5,17,24,29.5c1.8,6.3,3.1,17.5-0.2,23.3c15.6-3.6,31.8-6.9,47.6-2.6c21.7,5.9,39.1,21.2,50,40.7
		c5.8,10.5,12.5,27.1,9,39.2l-345.8-0.4h-99.8c-17.6,0-36.5,1.3-53.9-1.2c-13.6-2-27.1-9-37.3-18c-15.2-13.6-23.8-32.5-24.8-52.8
		c-1-19.9,6.2-39.6,19.7-54.2c12.5-13.5,29.4-21.3,47.8-22c20.7-0.8,36.1,7.8,50.8,21.5C1521,201.6,1537,178.6,1562.6,157.7z"/>
	<path style="fill:#8D64DC;" d="M765.6,651.6c1.3,1.4,2,1.9,2.7,3.7c15.7,21.6,29.8,36.1,56.8,41.6c-0.6,7.9-1.2,15.9-1.7,23.8
		c1.4,2.8,2.8,5.6,4.2,8.4c2.9-2.3,3.6-2.9,7.4-2.3c3.3,0.5,6.4,2.1,9.8,2.2c17,1.4,37.9,19.8,48.5,32.1c4.6,5.4,8.7,11.5,12.4,17.5
		c38.9,69.3,51,144.6,137.9,169.1c7.8,2.2,15.6,4.1,23.6,5.6c-4,11.6-8.7,23.3-12.1,35.2c-2.5,6.7-10.7,23.3-9.2,30
		c-11.7,2.5-26.3,0.9-38.4,0.7l-20.2-0.2c-14.7-0.1-38.3-4-50.1,5.5c-8.6,4.2-19.1,4.6-28.4,2.3c-5-0.4-10.1-1.1-15.1-0.9
		c-5,2.6-8.6,5-12.6,8.8c-0.3,0.3-0.7,0.6-1,0.9l-0.6,0.5l-0.1,3.8c1.3,4.1,2.6,7,6.6,9c3.1,1.6,6.4,2.4,9.8,3.1
		c-15.8,11.2-50,23.9-69.4,23c-51.9,9.1-105.7,7.1-157.9,1.7c-12.3-0.9-24.1-3-35.7-7.3c-5.1-13.2-3.4-30.9-3.4-45.1l0.3-6.4
		l0.1-31.6c-0.1-8-0.2-15.7,0.8-23.7c0.3-10.6,1-21.3-1.1-31.8c-2-10-5.8-19.6-7.7-29.7c-4.6-12.2-5.5-27.9-5.8-40.9
		c-0.9-42.2,11.5-87.2,41.4-118.1c18.5-19.1,39.9-28.3,66.2-28.7c8.3-4.6,19.7-6.4,25.7-14.3C757.3,683.7,762.4,668.7,765.6,651.6z"
		/>
	<path style="fill:#FEFEFE;" d="M887.5,974.6c0.2-10.9-1.5-29.9,2.9-39.6c3.1,20.1,11,33.5,23.2,49.3
		C904.7,981.7,896.1,978.1,887.5,974.6z"/>
	<path style="fill:#6833B1;" d="M764.6,834.6c1,4.8-2.3,12.5-3.5,17.4c-8.7,35.4-2.5,60,14.8,91c-2.4,0.8-5.9-1.4-8.3-2.4
		c-2.2-1.1-4.4-2.2-6.5-3.5c-9.2-5.7-15.4-13.9-17.8-24.5C737.2,885.8,750.7,856.9,764.6,834.6z"/>
	<path style="fill:#FEFEFE;" d="M765.6,651.6c1.3,1.4,2,1.9,2.7,3.7c15.7,21.6,29.8,36.1,56.8,41.6c-0.6,7.9-1.2,15.9-1.7,23.8
		c1.4,2.8,2.8,5.6,4.2,8.4c2.9-2.3,3.6-2.9,7.4-2.3c3.3,0.5,6.4,2.1,9.8,2.2l9.7,31.1c-14.9-3.6-29.9-6.7-44.9-9.4
		c-15.3,8.1-30,18.3-44.9,27.3c-10.2-23.1-21.2-48-41-64.5c8.3-4.6,19.7-6.4,25.7-14.3C757.3,683.7,762.4,668.7,765.6,651.6z"/>
	<path style="fill:#F49177;" d="M765.6,651.6c1.3,1.4,2,1.9,2.7,3.7c15.7,21.6,29.8,36.1,56.8,41.6c-0.6,7.9-1.2,15.9-1.7,23.8
		c1.4,2.8,2.8,5.6,4.2,8.4c-3.7,7.1-11.7,13.6-17.3,19.4c-20.7-14.4-42.8-31.6-60.8-49.2C757.3,683.7,762.4,668.7,765.6,651.6z"/>
	<path style="fill:#E84A5D;" d="M823.5,720.7c-13.7-2.9-26.6-7.3-36.5-17.7c-10.6-11.1-19-32.2-18.6-47.7
		c15.7,21.6,29.8,36.1,56.8,41.6C824.6,704.9,824,712.8,823.5,720.7z"/>
	<path style="fill:#6833B1;" d="M622,901.3l2.1,1.1c14.9,49.3,44.4,89.8,90.4,114.3c50.6,26.9,109.5,29.8,165,19.4l-0.1,3.8
		c1.3,4.1,2.6,7,6.6,9c3.1,1.6,6.4,2.4,9.8,3.1c-15.8,11.2-50,23.9-69.4,23c-51.9,9.1-105.7,7.1-157.9,1.7
		c-12.3-0.9-24.1-3-35.7-7.3c-5.1-13.2-3.4-30.9-3.4-45.1l0.3-6.4l0.1-31.6c-0.1-8-0.2-15.7,0.8-23.7c0.3-10.6,1-21.3-1.1-31.8
		C627.6,920.9,623.9,911.4,622,901.3z"/>
	<path style="fill:#8D64DC;" d="M630.7,962.8c0.1,6.7,0.3,13.5,0.1,20.2c8.8,11.2,17,22.8,26.8,33.1c30.8,32.5,72.4,50.3,116.5,55.6
		c17.2,2,35.4,0.6,52.3,3.4c-51.9,9.1-105.7,7.1-157.9,1.7c-12.3-0.9-24.1-3-35.7-7.3c-5.1-13.2-3.4-30.9-3.4-45.1l0.3-6.4l0.1-31.6
		C629.8,978.5,629.8,970.8,630.7,962.8z"/>
	<path style="fill:#6833B1;" d="M905.8,778.7c38.9,69.3,51,144.6,137.9,169.1c7.8,2.2,15.6,4.1,23.6,5.6c-4,11.6-8.7,23.3-12.1,35.2
		c-2.5,6.7-10.7,23.3-9.2,30c-11.7,2.5-26.3,0.9-38.4,0.7l-20.2-0.2c-14.7-0.1-38.3-4-50.1,5.5c-8.6,4.2-19.1,4.6-28.4,2.3
		c2.8-4,5.9-8.3,7.7-12.9c4.3-10.5,1.8-19.3-2.3-29.3l-0.7-0.2c-12.2-15.8-20.2-29.3-23.2-49.3c-1.9-13.1,1.7-29.4,3.6-42.5
		c4.3-29.8,10.8-60.8,11.8-90.8C904.8,794.5,904.9,786,905.8,778.7z"/>
	<path style="fill:#DF7632;" d="M950.8,984.4c22.4,3.1,41.5,19.3,56.9,34.9l-20.2-0.2C979.8,1005.2,956.5,996.5,950.8,984.4z"/>
	<path style="fill:#F49177;" d="M914.3,984.6c13.8,5.4,22.8-0.6,36.4-0.2c5.7,12.2,29.1,20.8,36.7,34.6c-14.7-0.1-38.3-4-50.1,5.5
		c-8.6,4.2-19.1,4.6-28.4,2.3c2.8-4,5.9-8.3,7.7-12.9C920.9,1003.4,918.4,994.6,914.3,984.6z"/>
	<path style="fill:#8D64DC;" d="M905.8,778.7c38.9,69.3,51,144.6,137.9,169.1c7.8,2.2,15.6,4.1,23.6,5.6c-4,11.6-8.7,23.3-12.1,35.2
		c-13.4-1.2-26.8-3.6-39.9-6.8c-80.2-19.8-100.1-68.3-105.1-145.4c-0.6-8.7,0.5-26.9-4.1-34c-0.1-0.2-0.3-0.4-0.4-0.6
		C904.8,794.5,904.9,786,905.8,778.7z"/>
	<path style="fill:#303377;" d="M1279.3,899.6c6.5-4.1,11.2-6.6,18.9-7.1c15.7-1,31.8-0.3,47.5-0.3l84.2,0.1l251.8-0.2l125.3,0.1
		c19.3,0,44.8-3.1,63.3,1.1c5.2,1.2,10.9,3.3,13.9,8c2.1,3.2,3.2,6.5,2.3,10.2c1.2,2.7,1.6,4.9,1.7,7.8c0.8,25.5,0.1,51.2,0,76.7
		l-0.1,122.5c-0.1,56,1.8,114.9,0.4,170.6c-0.1,5.6,0,13-2,18.2c-2.3,5.9-7,11.3-12.9,13.7c-13.4,5.3-41,2.5-56.3,2.6l-117.8,0.1
		c-18.3,0-38-1.5-56.2,0.3c-2.2,0.2-2.9,0.8-4.2,2.6c-0.1-0.2-0.2-0.5-0.3-0.7c0-0.1-1.6-1.4-1.7-1.5c-2.3-1.1-110.1,0.7-121.1,0.7
		l-146.5-0.3c-26.8,0-55.2,2-81.9-0.4c-3.4-0.3-6.7-1.5-9.6-3.2c-7.3-4-10.1-10.5-12.4-18c-34.7,10.9-68.2,21.2-104.3,26.6
		c6.6-47.1,11.6-94.5,17.6-141.6c3.1-24.5,11.2-63.2,9.3-86.1c-2.2-26.3-31.4-34.5-48.4-49.4c-0.3-0.2-0.5-0.5-0.8-0.7
		c9.7-0.1,19.3-0.1,29-0.8c16.1,0.1,35.8,2.6,51.5-1c7.4-1.7,10.3-5.6,14.1-11.6c0.1-7.3-3.5-11.9-7.7-17.5
		c18.4-25.3,23.6-59.4,39.6-86.1C1269.2,922.8,1274.3,911.3,1279.3,899.6z"/>
	<path style="fill:#FEFEFE;" d="M1571.7,1278.1c2.8-0.2,5.9-0.4,8.7,0.1c3.3,0.6,6.4,3.3,8.3,5.9c2.3,3.3,3,7.2,2,11.1
		c-1.4,6-4.9,8.6-10,11.5c-0.8,0-1.5,0.1-2.3,0.1c-4.7,0-9.4-1.6-12.6-5.1c-2.6-2.9-3.6-6.5-3.1-10.3
		C1563.4,1285,1567,1281.8,1571.7,1278.1z"/>
	<path style="fill:#DAE9FA;" d="M1265.5,934.9c0.7,122.7,2.2,245.6,0.1,368.4c-34.7,10.9-68.2,21.2-104.3,26.6
		c6.6-47.1,11.6-94.5,17.6-141.6c3.1-24.5,11.2-63.2,9.3-86.1c-2.2-26.3-31.4-34.5-48.4-49.4c-0.3-0.2-0.5-0.5-0.8-0.7
		c9.7-0.1,19.3-0.1,29-0.8c16.1,0.1,35.8,2.6,51.5-1c7.4-1.7,10.3-5.6,14.1-11.6c0.1-7.3-3.5-11.9-7.7-17.5
		C1244.2,995.7,1249.5,961.6,1265.5,934.9z"/>
	<path style="fill:#4A89F4;" d="M1298.3,918.7c23.1-2.1,47.4-0.4,70.7-0.3l136.2-0.1h233.6c34.8,0.1,69.9-0.9,104.7,0.2
		c5,0.2,15.6,0.2,19.6,3.4c2.5,2,2.1,15.3,2.1,19c0.7,68,0.1,136.1-0.2,204.1c-0.1,30,1.6,60.5,0.3,90.4c-0.3,6.9-1.5,14.3-6.1,19.6
		c-7.3,4.5-247.4,2.1-272.1,2.2l-214.2,0.9c-18.5,0-53.7,3.2-70.1-0.8c-4.2-1-7.8-3-10.1-6.8c-0.6-0.9-1.1-1.9-1.6-2.9
		c-3.6-6.9-1.4-154.9-1.2-174.8c-1.2-29.7-0.5-59.8-0.6-89.6c-0.1-17-2.4-37.6,0.7-54.1C1291,923.8,1293.9,921.6,1298.3,918.7z"/>
	<path style="fill:#FEFEFE;" d="M1625.4,1202.8c18.8-1,37.9-0.3,56.7-0.4c16.4-0.1,33.4-1.1,49.7,0.5l0.9,1.8l-2.5,3.2
		c-7.7,1.3-98.8,0.5-103.7-1.2L1625.4,1202.8z"/>
	<path style="fill:#FEFEFE;" d="M1651.9,1167.5c33.4-0.4,67.1-1,100.5-0.5c4.8,0.1,13.9-0.2,17.4,3.3c-0.2,0.2-0.5,0.5-0.7,0.7
		c-5.5,4-18.9,2.2-25.5,2l-77.4-0.3c-10.8,0-21.9,0.9-32.7,0.3c-3.2-0.2-5.7-0.2-8.3-2.2l0.9-1.7
		C1632,1165.7,1645,1167.5,1651.9,1167.5z"/>
	<path style="fill:#FEFEFE;" d="M1625.1,1184.3c31.2-0.4,62.4,0.1,93.6,0.1c14.6,0,29.7-1.4,44.3-0.4c3.2,0.2,4.9,0.1,7.3,2.4
		l-1.6,3.2c-9,2.1-139.1,1.2-142.4-0.5L1625.1,1184.3z"/>
	<path style="fill:#FEFEFE;" d="M1620,979.2l59.8-0.1c1.9,4.8,3.1,10.6,1,15.6c-0.5,1.3-0.6,1.3-1.2,2.3c-33.2,0-66.5-0.4-99.7,0.3
		c-3-0.1-5.7-0.3-8.6-0.9c-3.8-4.6-2.4-11.1-2.1-16.8C1586.1,979.7,1603.1,979.6,1620,979.2z"/>
	<path style="fill:#FEFEFE;" d="M1617.7,1044.3l140.5-0.2c0.7,1.3,1.2,2.4,1.5,3.9c0.8,3.6,0.6,5.6-1.3,8.6
		c-11,5.7-35.3,2.2-47.8,2.1l-140.7-0.2l0.2-14L1617.7,1044.3z"/>
	<path style="fill:#FEFEFE;" d="M1625.5,1116.8c44.2-1.4,88.8-0.2,133.1,0c0.4,0.6,0.9,1.6,1.2,2.4c2,6,2,28.2-1,33.8l-1.3,1.3
		c-14.8,1.8-30.8,0.5-45.8,0.4h-86.3L1625.5,1116.8z"/>
	<path style="fill:#F29F2F;" d="M1477.7,1211.5c15-15.2,31.4-29.1,47.2-43.5c21.2-19.4,42.1-39.2,63.2-58.8l0.1,101.7
		C1551.4,1211.1,1514.4,1210.3,1477.7,1211.5z"/>
	<path style="fill:#FACE5B;" d="M1467.5,1107.9c18.3,0,109-2.2,120.5,1.3c-21.1,19.6-41.9,39.4-63.2,58.8
		c-15.8,14.4-32.1,28.3-47.2,43.5c-3.4,0.3-6.1,0.6-9.3-0.4C1465.1,1205.6,1467.4,1121,1467.5,1107.9z"/>
	<path style="fill:#53A9F7;" d="M1298.3,918.7c27.5,0.6,55,0,82.6,0.5l298.3,0.1c-4.5,14.6-47.7,45.7-59.2,59.9
		c-16.9,0.4-33.9,0.4-50.8,0.5c-0.2,5.7-1.7,12.2,2.1,16.8c2.9,0.7,5.6,0.8,8.6,0.9c6.2,1.4,12.4,1.2,18.7,1.1l-10.5,10.4
		c-3.7,0.2-7.7,0.2-11.4,1c53.8,1.5,107.9,0.5,161.8,0.5c20.6,0,42.9-1.9,63.4-0.2c1.5,0.1,2.9,0.5,4,1.5c2.2,3.3,2.9,6.5,2.1,10.4
		c-0.3,1.7-0.9,3.1-2.1,4.4c-7.6,4.3-206.3-0.3-238.7,1.4c-19,16.1-37.2,34.4-57.7,48.6l0.1,15.8h-24.2
		c-34.3,20.6-66.3,46.8-98.8,70.3c-31.7,23.1-65.6,45.1-95.5,70.2c0,5,0.2,9.6,1.1,14.5l-1.3,0.1c-3.6-6.9-1.4-154.9-1.2-174.8
		c-1.2-29.7-0.5-59.8-0.6-89.6c-0.1-17-2.4-37.6,0.7-54.1C1291,923.8,1293.9,921.6,1298.3,918.7z"/>
	<path style="fill:#E84A5D;" d="M1480.1,970.4c2.6-6.2,5.3-11.4,12-14c5-1.9,10.4-1.5,15.2,0.8c4.9,2.4,8.7,6.9,10.3,12.1
		c1.7,5.7,0.9,12.5-2.3,17.5c-1.6,2.5-3.8,4.7-5.9,6.8c-6.6,2-11.5,2.6-18.4,0.6c-1.9-1.7-4.5-3.1-6.6-4.5
		C1480.4,983,1480.1,978.1,1480.1,970.4z"/>
	<path style="fill:#FEFEFE;" d="M1569.1,1011.8l159.4-0.1c25.2-0.1,52.4-2.5,77.4,0.2c2.2,3.3,2.9,6.5,2.1,10.4
		c-0.3,1.7-0.9,3.1-2.1,4.4c-25.3,1.9-52.1,0.1-77.6,0.1l-159.3-0.1L1569.1,1011.8z"/>
	<path style="fill:#97B3F5;" d="M1298.3,918.7c27.5,0.6,55,0,82.6,0.5l-91,153.7c-1.2-29.7-0.5-59.8-0.6-89.6
		c-0.1-17-2.4-37.6,0.7-54.1C1291,923.8,1293.9,921.6,1298.3,918.7z"/>
	<path style="fill:#FEFEFE;" d="M1368.3,970l111.8,0.3c0,7.7,0.3,12.6,4.4,19.4c-33.4,1.2-67,0.7-100.5,0.8l-0.1,81.3l106.7,0.1
		c0-25.7-1.2-52,0.4-77.7c6.9,2,11.8,1.4,18.4-0.6l0.1,83l0.1,15.8h-24.2l-117-0.2L1368.3,970z"/>
	<path style="fill:#97B3F5;" d="M1484.5,989.8c2.1,1.4,4.7,2.8,6.6,4.5c-1.6,25.6-0.5,51.9-0.4,77.7l-106.7-0.1l0.1-81.3
		C1417.4,990.4,1451.1,990.9,1484.5,989.8z"/>
	<path style="fill:#DF7632;" d="M487.2,1189.6c7.6-9.7,13.9-20.7,21-30.8c12.9-18.2,26.6-36,40.6-53.4c25.1-31.2,53.4-58.6,81-87.4
		l-0.3,6.4c0,14.1-1.8,31.8,3.4,45.1c11.6,4.2,23.4,6.4,35.7,7.3c52.2,5.3,106,7.4,157.9-1.7c19.4,0.8,53.6-11.9,69.4-23
		c23-1.8,46.6-0.6,69.7-0.7c26.3,0,53.2-1.1,79.5,0.7c25.2,0,50.4,0.2,75.5-0.3c15.8-0.3,31.6-2,47.4-0.6c-9.7,0.7-19.3,0.8-29,0.8
		c0.3,0.2,0.5,0.5,0.8,0.7c17,14.9,46.2,23.1,48.4,49.4c1.9,22.9-6.2,61.6-9.3,86.1c-6,47.2-11,94.6-17.6,141.6l-11.3,98.3h-14.6
		c-1.9,10.1-3.3,20.6-6.1,30.5l-2.5,5.4c-20.7,7.9-39.4,12.3-60.6,2.8c-0.8-0.4-1.6-0.7-2.4-1.1l-1,0.5
		c-6.6,13.6-7.8,32.4-10.1,47.3l-22.2,0.1c-2.5-7.6-5-14.8-9.9-21.3c-13.3-17.7-37.5-19.1-57.7-22.1c-7.2-1-14.2-1.9-21.3-3.6
		c-20.1,7.3-33.9,11.2-54.8,3.3c-3.9-2.2-7.6-4.8-11.3-7.3l-5.1,25.8l-4.2,25.8c-18.8,1.3-38,0.4-56.8,0.5l-98.6,0.4
		c-15.4,0.1-31.7-0.9-47,0.4l-5.2-0.4c-30.7,0.2-62.4,1.9-92.9-0.5c-14.4-0.5-28.9-0.2-43.3-0.1c-23.2,0.7-47.2,1.2-70.4,0.4
		c-25.7,1.3-51.8,0.4-77.6-0.1c-8.6-36.3-8.4-75.6-12.2-112.7l-2.1-26c-3,0.3-5.3,0.4-8.3-0.2c-2.5-2.5-3.2-3.5-3.7-7.2
		c-0.8-6.1-0.3-26.4,3.7-30.7c6.4-6.8,68.8-2.9,81.8-3.5l3.9,0.3l13.8,0.1c-0.2-23.9,2.9-47.1,4.4-70.8c1-15.2,0.6-30.7,0.6-46
		l2.9-1.6l1,0.7c3.8,0.5,7.6,1,11.5,1.1C476.8,1208.6,481.4,1198.8,487.2,1189.6z"/>
	<path style="fill:#F29F2F;" d="M628.4,1391.5h30.9c0.1,13,0.1,26.1-0.1,39.1h-30.8V1391.5z"/>
	<path style="fill:#F29F2F;" d="M587.9,1270.5l71.2,0.1c0.3,13.5,0.4,27,0.2,40.5l-29.9-0.1c0.5-13,0.1-26.1,0.2-39.1
		c-13.9,0.2-27.8,0-41.7,0V1270.5z"/>
	<path style="fill:#FACE5B;" d="M587.9,1271.8c13.9,0,27.8,0.2,41.7,0c-0.1,13,0.3,26.1-0.2,39.1c-14-0.1-28.2,0.4-42.1-0.9
		C587.7,1297.3,587.8,1284.5,587.9,1271.8z"/>
	<path style="fill:#FACE5B;" d="M585.4,1390.4c12.6,3.5,29.9,1.3,43,1.1v39c-14.4,0.1-28.9-0.1-43.4-0.1
		C585.4,1417.1,585.3,1403.7,585.4,1390.4z"/>
	<path style="fill:#F29F2F;" d="M664.2,1321l0.9-0.4c0.2,15.5,0.3,31,0.2,46.5h157.6c15.3,0,47.5,2.2,61.3-0.8
		c-1.1,7.5-2.5,15.1-3.3,22.7l-216.8,0.1C664.3,1366.5,664.7,1343.7,664.2,1321z"/>
	<path style="fill:#F7B941;" d="M564.3,1318.5c31.8,1.4,63.7,0,95.6,0.7c0,23.3,0,46.6-0.6,69.9c-10.6,0-68.9-1.8-73.9,1.2
		c-7-0.7-14.5-0.2-21.6-0.2C564.1,1366.4,565.1,1342.3,564.3,1318.5z"/>
	<path style="fill:#FACE5B;" d="M580.7,1328.3l46.7-0.1v38.8c-15.6-0.2-31.3,0-46.9,0L580.7,1328.3z"/>
	
		<linearGradient id="SVGID_00000054985473151861956810000003336691014856148655_" gradientUnits="userSpaceOnUse" x1="575.3588" y1="1572.1637" x2="648.326" y2="1488.2488" gradientTransform="matrix(1 0 0 1 0 -54)">
		<stop  offset="0" style="stop-color:#F7941C"/>
		<stop  offset="1" style="stop-color:#F5C03E"/>
	</linearGradient>
	<path style="fill:url(#SVGID_00000054985473151861956810000003336691014856148655_);" d="M564.1,1437.9c31,2.8,63.6,1,94.8,1
		l0.1,49.7l-0.1,26.7c-30.7,0.2-62.4,1.9-92.9-0.5C560.4,1494.8,567.8,1460.2,564.1,1437.9z"/>
	<path style="fill:#FACE5B;" d="M581,1451.9c15.5-0.2,31,0,46.5-0.1l-0.1,36.5c-15.5-0.3-31.1,0.1-46.6,0.2L581,1451.9z"/>
	<path style="fill:#F29F2F;" d="M664,1391.4c71.7-1.1,144.6-3.4,216.2,0.1c-1.7,12.7-3.1,25.6-5.7,38.1c-9.9,2.1-196.3,2.1-209,0.6
		c-1.9-3.1-1.5-6.6-1.7-10.3L664,1391.4z"/>
	<path style="fill:#F29F2F;" d="M665.2,1270.7c22.4,0,227.9-1.2,231.9,1.1l0.5,1l-5,38c-76.4-1-152.9,0-229.3,0.1
		C666,1298,661.5,1283.2,665.2,1270.7z"/>
	<path style="fill:#F7B941;" d="M665.1,1320.7c8.9-3.1,207.2-1.4,226.2-0.1l-7.1,45.7c-13.8,3-46,0.8-61.3,0.8H665.3
		C665.4,1351.7,665.3,1336.2,665.1,1320.7z"/>
	<path style="fill:#F7B941;" d="M664.9,1439.2c40.3-1,80.9-0.1,121.2,0c31.4,0.1,63.3-0.9,94.6,0.7l-3.9,16.7l-1,6.2l-5.1,25.8
		l-4.2,25.8c-18.8,1.3-38,0.4-56.8,0.5l-98.6,0.4c-15.4,0.1-31.7-0.9-47,0.4l-5.2-0.4l0.1-26.7l4.9,0.1l-0.2-49.7L664.9,1439.2z"/>
	<path style="fill:#F29F2F;" d="M663.7,1439.1l1.1,0.1l-0.2,49.9l132.2-0.1c24.5-0.1,49.3-1.1,73.8-0.3l-4.2,25.8
		c-18.8,1.3-38,0.4-56.8,0.5l-98.6,0.4c-15.4,0.1-31.7-0.9-47,0.4l-5.2-0.4l0.1-26.7l4.9,0.1L663.7,1439.1z"/>
	<path style="fill:#DF7632;" d="M659,1488.6l4.9,0.1l0.1,26.9l-5.2-0.4L659,1488.6z"/>
	<path style="fill:#F29F2F;" d="M686.1,1194.7c36.2,9.6,106.1,5.4,146.5,5.3l76.1-0.1c-4,22.5-8,45.9-10.3,68.7
		c-30.2-0.8-60.5,0.1-90.7,0.4l-142.5,0.6c-2.9-8.3-1.4-39.2-0.2-48.5c0.1-8.8,0.1-17.6,0-26.4
		C671.9,1195.6,679.1,1195.2,686.1,1194.7z"/>
	<path style="fill:#F7B941;" d="M686.1,1194.7c36.2,9.6,106.1,5.4,146.5,5.3c0,14.7,0.3,29.8-11,41c-5.4,5.3-12.1,7.7-19.4,9
		c-16.1,2.7-34.6,0.8-51.1,0.6l-85.9-0.7c0-9.1,1.2-19.9-0.3-28.7c0.1-8.8,0.1-17.6,0-26.4C671.9,1195.6,679.1,1195.2,686.1,1194.7z
		"/>
	<path style="fill:#97B3F5;" d="M475.5,1221.6c29.7,8.5,58.9,18.7,88.6,27v21.6c7.5,0,16.6-1,23.8,0.3v1.4
		c-0.1,12.7-0.2,25.4-0.6,38.2c-6-0.3-13.7-1.7-19.3,0.8c-2.8,2.9-2.9,3.8-3.7,7.8c0.8,23.8-0.2,47.9-0.5,71.7
		c7.1,0,14.6-0.5,21.6,0.2c-0.1,13.3,0,26.7-0.4,40c-5.5-0.2-11.9-1.1-16.9,1.3c-2.1,2.1-3.1,3.4-4,6.2c3.7,22.3-3.7,56.9,1.8,76.9
		c-14.4-0.5-28.9-0.2-43.3-0.1c4.8-22.1,7.2-44.9,10.3-67.2c3.3-23.8,7.1-47.6,9.3-71.5c3.4,0.2,5.9,0.5,9-0.9
		c2.8-4,1.8-12.4,1.9-17.2c0.1-6.6-0.3-14.4-5.4-19.2c-7.5-7-41.1-3.4-52-3.5l-39.5-0.2C455.9,1293.7,459.3,1259.6,475.5,1221.6z"/>
	<path style="fill:#15ABB2;" d="M487.2,1189.6c7.6-9.7,13.9-20.7,21-30.8c12.9-18.2,26.6-36,40.6-53.4c25.1-31.2,53.4-58.6,81-87.4
		l-0.3,6.4c0,14.1-1.8,31.8,3.4,45.1c0.5,18.8-0.1,38.1,2.1,56.8c7.1,26.6,17,49.2,41.9,63.6c3,1.7,6,3.2,9.1,4.7
		c-7,0.5-14.2,0.9-21.2,0l-5.6,0.6l-0.2,74.2c-15.2-0.1-59.7-2.5-71.2,1c-7.3-1.3-16.4-0.3-23.8-0.3v-21.6
		c-29.7-8.3-58.9-18.5-88.6-27c-16.2,38-19.5,72.1-19.2,113.3l-4.6,0.1c-0.2-23.9,2.9-47.1,4.4-70.8c1-15.2,0.6-30.7,0.6-46l2.9-1.6
		l1,0.7c3.8,0.5,7.6,1,11.5,1.1C476.8,1208.6,481.4,1198.8,487.2,1189.6z"/>
	<path style="fill:#484C8C;" d="M487.2,1189.6c7.6-9.7,13.9-20.7,21-30.8c12.9-18.2,26.6-36,40.6-53.4c25.1-31.2,53.4-58.6,81-87.4
		l-0.3,6.4c-30.4,27.4-70.1,71.2-93.5,104.4c11.6-3.6,71.4-24.4,78.9-21.4c-4.3,4.8-73.2,24.1-83.6,26.6
		c-14.5,19.4-29.1,38.9-41.8,59.4c-5.1,9.2-9.6,18.6-14,28.2c-16.2,38-19.5,72.1-19.2,113.3l-4.6,0.1c-0.2-23.9,2.9-47.1,4.4-70.8
		c1-15.2,0.6-30.7,0.6-46l2.9-1.6l1,0.7c3.8,0.5,7.6,1,11.5,1.1C476.8,1208.6,481.4,1198.8,487.2,1189.6z"/>
	<path style="fill:#97B3F5;" d="M460.6,1217.2c3.8,0.5,7.6,1,11.5,1.1c-3.3,8.7-6.7,17.4-10.1,26.1
		C461.6,1235.4,461.3,1226.3,460.6,1217.2z"/>
	<path style="fill:#DAE9FA;" d="M489.5,1193.4c11.5,4.7,23.7,5.3,36,3.8c43.5-5.5,83.6-37.2,109.6-70.8c7.1,26.6,17,49.2,41.9,63.6
		c3,1.7,6,3.2,9.1,4.7c-7,0.5-14.2,0.9-21.2,0l-5.6,0.6l-95.3-0.2l0.1,53.5c-29.7-8.3-58.9-18.5-88.6-27
		C479.9,1212,484.4,1202.6,489.5,1193.4z"/>
	<path style="fill:#F7B941;" d="M564,1195.1l95.3,0.2l-0.2,74.2c-15.2-0.1-59.7-2.5-71.2,1c-7.3-1.3-16.4-0.3-23.8-0.3v-21.6
		L564,1195.1z"/>
	<path style="fill:#FACE5B;" d="M581,1209.9l47-0.3c-0.4,13.1-0.3,26.1-0.3,39.2l-46.9,0.3L581,1209.9z"/>
	<path style="fill:#A9184A;" d="M434,1334.5l3.9,0.3l13.8,0.1l4.6-0.1l39.5,0.3c10.9,0.1,44.5-3.6,52,3.5c5.1,4.8,5.5,12.7,5.4,19.2
		c-0.1,4.9,1,13.3-1.9,17.2c-3.1,1.5-5.6,1.2-9,0.9c-2.2,23.9-6.1,47.7-9.3,71.5c-3.1,22.4-5.5,45.2-10.3,67.2
		c-23.2,0.7-47.2,1.2-70.4,0.4c-25.7,1.3-51.8,0.4-77.6-0.1c-8.6-36.3-8.4-75.6-12.2-112.7l-2.1-26c-3,0.3-5.3,0.4-8.3-0.2
		c-2.5-2.5-3.2-3.5-3.7-7.2c-0.8-6.1-0.3-26.4,3.7-30.7C358.6,1331.3,421,1335.1,434,1334.5z"/>
	<path style="fill:#DF7632;" d="M434,1334.5l3.9,0.3l13.8,0.1l4.6-0.1l39.5,0.3c10.9,0.1,44.5-3.6,52,3.5c5.1,4.8,5.5,12.7,5.4,19.2
		c-0.1,4.9,1,13.3-1.9,17.2c-3.1,1.5-5.6,1.2-9,0.9c-14.9-0.8-30.2-0.2-45.1-0.2h-92.1c-14.3,0-30.6-1.6-44.6,0.5
		c-3,0.3-5.3,0.4-8.3-0.2c-2.5-2.5-3.2-3.5-3.7-7.2c-0.8-6.1-0.3-26.4,3.7-30.7C358.6,1331.3,421,1335.1,434,1334.5z"/>
	<path style="fill:#D9385B;" d="M362.5,1402.3c45.9-0.3,92.1-1.8,138-0.3c-2.5,22.1-3.7,65.8-11.5,84.5c-2.8,6.8-7.3,12.6-13,17.2
		c-7.1,5.7-15.2,8.5-23.7,11.4c-25.7,1.3-51.8,0.4-77.6-0.1C366.1,1478.6,366.3,1439.4,362.5,1402.3z"/>
	<path style="fill:#484C8C;" d="M1045.1,1052.1c25.2,0,50.4,0.2,75.5-0.3c15.8-0.3,31.6-2,47.4-0.6c-9.7,0.7-19.3,0.8-29,0.8
		c0.3,0.2,0.5,0.5,0.8,0.7c17,14.9,46.2,23.1,48.4,49.4c1.9,22.9-6.2,61.6-9.3,86.1c-6,47.2-11,94.6-17.6,141.6l-11.3,98.3h-14.6
		c-1.9,10.1-3.3,20.6-6.1,30.5l-2.5,5.4c-20.7,7.9-39.4,12.3-60.6,2.8c-0.8-0.4-1.6-0.7-2.4-1.1l-1,0.5
		c-6.6,13.6-7.8,32.4-10.1,47.3l-22.2,0.1c-2.5-7.6-5-14.8-9.9-21.3c-13.3-17.7-37.5-19.1-57.7-22.1c-7.2-1-14.2-1.9-21.3-3.6
		c-20.1,7.3-33.9,11.2-54.8,3.3c-3.9-2.2-7.6-4.8-11.3-7.3l1-6.2l3.9-16.7l1.3-10.3l-7.5,0.1c2.6-12.5,4.1-25.4,5.7-38.1l0.8-2.5
		c0.7-7.5,2.2-15.2,3.3-22.7l7.1-45.7l1.3-9.7l5-38l0.8-4.3c2.3-22.7,6.3-46.1,10.3-68.7l-76.1,0.1c-40.4,0.1-110.4,4.3-146.5-5.3
		c-3.1-1.4-6.2-3-9.1-4.7c-24.9-14.4-34.7-37-41.9-63.6c-2.2-18.7-1.6-38-2.1-56.8c11.6,4.2,23.4,6.4,35.7,7.3
		c52.2,5.3,106,7.4,157.9-1.7c19.4,0.8,53.6-11.9,69.4-23c23-1.8,46.6-0.6,69.7-0.7C991.9,1051.4,1018.8,1050.3,1045.1,1052.1z"/>
	<path style="fill:#0E1248;" d="M1056.5,1167.1c3.6,6.8,2,22.4,1.9,30.4c-2.5,0-6,0.5-8.4-0.3c-1.4-0.5-1.7-0.7-2.3-2.1
		C1045.6,1190.1,1054.3,1173,1056.5,1167.1z"/>
	<path style="fill:#F49177;" d="M881.9,1429.5l74.5,0.4c-1.9,9.3-3.3,24.1-8.1,32.3l-6.5,4.4c-20.1,7.3-33.9,11.2-54.8,3.3
		c-3.9-2.2-7.6-4.8-11.3-7.3l1-6.2l3.9-16.7L881.9,1429.5z"/>
	<path style="fill:#FEFEFE;" d="M876.8,1456.6c23,5.2,48.1,4.6,71.5,5.7l-6.5,4.4c-20.1,7.3-33.9,11.2-54.8,3.3
		c-3.9-2.2-7.6-4.8-11.3-7.3L876.8,1456.6z"/>
	<path style="fill:#0E1248;" d="M632.9,1069.6c11.6,4.2,23.4,6.4,35.7,7.3c-0.7,32,2.4,61.4,25.4,85.8
		c20.1,21.3,47.6,29.2,76.1,29.8c51.4,1.1,93.7-22.1,138.3-44.4c18.1-9.1,36.4-17.4,54.6-26c1.8-0.9,9.3-5.1,10.8-4.4
		c-19,13.9-39.5,26.5-59.3,39.1c-2.1,14.4-4,28.8-5.9,43.2l-76.1,0.1c-40.4,0.1-110.4,4.3-146.5-5.3c-3.1-1.4-6.2-3-9.1-4.7
		c-24.9-14.4-34.7-37-41.9-63.6C632.8,1107.7,633.5,1088.4,632.9,1069.6z"/>
	<path style="fill:#303377;" d="M1045.1,1052.1c25.2,0,50.4,0.2,75.5-0.3c15.8-0.3,31.6-2,47.4-0.6c-9.7,0.7-19.3,0.8-29,0.8
		c0.3,0.2,0.5,0.5,0.8,0.7c17,14.9,46.2,23.1,48.4,49.4c1.9,22.9-6.2,61.6-9.3,86.1c-6,47.2-11,94.6-17.6,141.6l-11.3,98.3h-14.6
		c-1.9,10.1-3.3,20.6-6.1,30.5l-2.5,5.4c-20.7,7.9-39.4,12.3-60.6,2.8c-0.8-0.4-1.6-0.7-2.4-1.1l-1,0.5
		c-6.6,13.6-7.8,32.4-10.1,47.3l-22.2,0.1c-2.5-7.6-5-14.8-9.9-21.3c-13.3-17.7-37.5-19.1-57.7-22.1c-7.2-1-14.2-1.9-21.3-3.6
		l6.5-4.4c4.8-8.2,6.2-23,8.1-32.3h14c13.1-45.1,28.7-89.8,42.9-134.6c6.8-19.7,13.1-39.6,19.6-59.4c3.9-12,7.2-25,13.1-36.2
		c3.6-2.1,8.3-1.3,12.4-1.2l0.1-1.1c0.1-8,1.7-23.6-1.9-30.4c6.5-24.8,20.3-50.2,15.3-76.5
		C1068.6,1073.8,1059.1,1061.5,1045.1,1052.1z"/>
	<path style="fill:#F49177;" d="M1068.2,1428.1l67.2,0.1c-1.9,10.1-3.3,20.6-6.1,30.5l-2.5,5.4c-20.7,7.9-39.4,12.3-60.6,2.8
		c-0.8-0.4-1.6-0.7-2.4-1.1c-1-2.4-0.3-5,0.1-7.5C1066.3,1448.5,1067.1,1438.1,1068.2,1428.1z"/>
	<path style="fill:#FEFEFE;" d="M1063.9,1458.3l65.3,0.4l-2.5,5.4c-20.7,7.9-39.4,12.3-60.6,2.8c-0.8-0.4-1.6-0.7-2.4-1.1
		C1062.9,1463.4,1063.6,1460.9,1063.9,1458.3z"/>
	<path style="fill:#DAE9FA;" d="M1013.3,1295.4c6.8-19.7,13.1-39.6,19.6-59.4c3.9-12,7.2-25,13.1-36.2c3.6-2.1,8.3-1.3,12.4-1.2
		c0.6,39,0.4,78.5-0.4,117.5C1048.5,1313.6,1019.2,1301.8,1013.3,1295.4z"/>
	<path style="fill:#97B3F5;" d="M1013.3,1295.4c5.9,6.3,35.3,18.2,44.7,20.7l-1.5,71.9c-0.2,12.8-1.3,26.1,0,38.8
		c2.8,2.2,8.3,1.3,11.7,1.3c-1.1,10-1.9,20.5-4.3,30.3c-0.4,2.5-1.1,5.1-0.1,7.5l-1,0.5c-6.6,13.6-7.8,32.4-10.1,47.3l-22.2,0.1
		c-2.5-7.6-5-14.8-9.9-21.3c-13.3-17.7-37.5-19.1-57.7-22.1c-7.2-1-14.2-1.9-21.3-3.6l6.5-4.4c4.8-8.2,6.2-23,8.1-32.3h14
		C983.5,1384.9,999.1,1340.3,1013.3,1295.4z"/>
</g>
</svg>
