<?xml version="1.0" encoding="utf-8"?>
<!-- Generator: Adobe Illustrator 27.5.0, SVG Export Plug-In . SVG Version: 6.00 Build 0)  -->
<svg version="1.1" xmlns="http://www.w3.org/2000/svg" xmlns:xlink="http://www.w3.org/1999/xlink" x="0px" y="0px"
	 viewBox="0 0 500 500" style="enable-background:new 0 0 500 500;" xml:space="preserve">
<g id="bg">
	<g>
		<rect style="fill:#FFFFFF;" width="500" height="500"/>
	</g>
</g>
<g id="obj">
	<g id="Layer_3">
	</g>
	<g>
		<g>
			<linearGradient id="SVGID_1_" gradientUnits="userSpaceOnUse" x1="452.4862" y1="193.0561" x2="470.1718" y2="209.1226">
				<stop  offset="0" style="stop-color:#E2F4FF"/>
				<stop  offset="1" style="stop-color:#D7ECFF"/>
			</linearGradient>
			<path style="fill:url(#SVGID_1_);" d="M476.316,213.099h-28.028v-22.253h28.028V213.099z M448.645,212.741h27.312v-21.537
				h-27.312V212.741z"/>
		</g>
		<g>
			
				<linearGradient id="SVGID_00000167362987404103710730000006152218158175617181_" gradientUnits="userSpaceOnUse" x1="464.2394" y1="180.1183" x2="481.925" y2="196.1848">
				<stop  offset="0" style="stop-color:#E2F4FF"/>
				<stop  offset="1" style="stop-color:#D7ECFF"/>
			</linearGradient>
			<circle style="fill:url(#SVGID_00000167362987404103710730000006152218158175617181_);" cx="476.172" cy="190.958" r="0.911"/>
		</g>
		<g>
			
				<linearGradient id="SVGID_00000065764212815317585210000003811610797247622057_" gradientUnits="userSpaceOnUse" x1="453.3103" y1="192.1485" x2="470.996" y2="208.2151">
				<stop  offset="0" style="stop-color:#E2F4FF"/>
				<stop  offset="1" style="stop-color:#D7ECFF"/>
			</linearGradient>
			<path style="fill:url(#SVGID_00000065764212815317585210000003811610797247622057_);" d="M476.908,212.758
				c0,0.503-0.408,0.911-0.911,0.911c-0.503,0-0.911-0.408-0.911-0.911c0-0.503,0.408-0.911,0.911-0.911
				C476.5,211.846,476.908,212.254,476.908,212.758z"/>
		</g>
		<g>
			
				<linearGradient id="SVGID_00000163770571250093460650000006114938797915372703_" gradientUnits="userSpaceOnUse" x1="457.9302" y1="187.0635" x2="475.6158" y2="203.13">
				<stop  offset="0" style="stop-color:#E2F4FF"/>
				<stop  offset="1" style="stop-color:#D7ECFF"/>
			</linearGradient>
			<circle style="fill:url(#SVGID_00000163770571250093460650000006114938797915372703_);" cx="462.217" cy="190.958" r="0.911"/>
		</g>
		<g>
			
				<linearGradient id="SVGID_00000085965946532289323080000012890698535812624541_" gradientUnits="userSpaceOnUse" x1="447.001" y1="199.0936" x2="464.6868" y2="215.1602">
				<stop  offset="0" style="stop-color:#E2F4FF"/>
				<stop  offset="1" style="stop-color:#D7ECFF"/>
			</linearGradient>
			<path style="fill:url(#SVGID_00000085965946532289323080000012890698535812624541_);" d="M462.953,212.758
				c0,0.503-0.408,0.911-0.911,0.911c-0.503,0-0.911-0.408-0.911-0.911c0-0.503,0.408-0.911,0.911-0.911
				C462.546,211.846,462.953,212.254,462.953,212.758z"/>
		</g>
		<g>
			
				<linearGradient id="SVGID_00000039093416774303866630000003137097908225809799_" gradientUnits="userSpaceOnUse" x1="451.6969" y1="193.9249" x2="469.3825" y2="209.9914">
				<stop  offset="0" style="stop-color:#E2F4FF"/>
				<stop  offset="1" style="stop-color:#D7ECFF"/>
			</linearGradient>
			<path style="fill:url(#SVGID_00000039093416774303866630000003137097908225809799_);" d="M449.378,190.99
				c0,0.503-0.408,0.911-0.911,0.911s-0.911-0.408-0.911-0.911c0-0.503,0.408-0.911,0.911-0.911S449.378,190.487,449.378,190.99z"/>
		</g>
		<g>
			
				<linearGradient id="SVGID_00000093891707040628649630000008469853298166652574_" gradientUnits="userSpaceOnUse" x1="458.7145" y1="186.2001" x2="476.4001" y2="202.2666">
				<stop  offset="0" style="stop-color:#E2F4FF"/>
				<stop  offset="1" style="stop-color:#D7ECFF"/>
			</linearGradient>
			<circle style="fill:url(#SVGID_00000093891707040628649630000008469853298166652574_);" cx="476.172" cy="202.059" r="0.911"/>
		</g>
		<g>
			
				<linearGradient id="SVGID_00000160881205937012950750000013014423219922452119_" gradientUnits="userSpaceOnUse" x1="446.1719" y1="200.0067" x2="463.8575" y2="216.0731">
				<stop  offset="0" style="stop-color:#E2F4FF"/>
				<stop  offset="1" style="stop-color:#D7ECFF"/>
			</linearGradient>
			<path style="fill:url(#SVGID_00000160881205937012950750000013014423219922452119_);" d="M449.378,202.091
				c0,0.503-0.408,0.911-0.911,0.911s-0.911-0.408-0.911-0.911c0-0.503,0.408-0.911,0.911-0.911S449.378,201.588,449.378,202.091z"
				/>
		</g>
		<g>
			
				<linearGradient id="SVGID_00000166650229674937433620000016550939221950674864_" gradientUnits="userSpaceOnUse" x1="440.8629" y1="205.8504" x2="458.5488" y2="221.9172">
				<stop  offset="0" style="stop-color:#E2F4FF"/>
				<stop  offset="1" style="stop-color:#D7ECFF"/>
			</linearGradient>
			<circle style="fill:url(#SVGID_00000166650229674937433620000016550939221950674864_);" cx="448.466" cy="212.758" r="0.911"/>
		</g>
	</g>
	<g>
		
			<linearGradient id="SVGID_00000171678393645549036820000005458479564145734793_" gradientUnits="userSpaceOnUse" x1="248.143" y1="122.4709" x2="248.143" y2="374.7825" gradientTransform="matrix(-1 0 0 1 490.9295 0)">
			<stop  offset="0" style="stop-color:#E2F4FF"/>
			<stop  offset="1" style="stop-color:#D7ECFF"/>
		</linearGradient>
		<path style="fill:url(#SVGID_00000171678393645549036820000005458479564145734793_);" d="M440.556,188.975
			c-1.814,2.133-3.505,4.413-5.072,6.781c-4.692,7.114-8.292,15.118-10.989,23.024c-0.836,3.258-1.263,6.575-1.102,9.961
			c0.161,3.386,0.912,6.84,2.441,10.382c0.845,2.339,1.577,4.687,2.185,7.065c13.231,51.185-20.468,117.223-24.847,125.481H67.694
			c-1.187-1.135-1.216-2.515,0.19-4.198c13.544-16.194-7.048-51.938-26.015-87.115c-18.977-35.177-18.436-110.559,53.654-104.972
			c72.09,5.587,53.663-58.631,114.631-84.238c19.053-8.004,33.053-7.358,44.688-2.524c2.327,0.969,4.559,2.104,6.715,3.376
			c24.21,19.922,53.302,38.112,85.738,34.433c3.391-0.421,6.801-1.057,10.182-1.82c10.144-2.309,20.031-5.704,29.073-9.579
			c2.251-1.409,4.644-2.828,7.143-4.149c12.499-6.634,27.648-11.096,40.632-2.182C460.292,127.966,459.257,165.423,440.556,188.975z
			"/>
		<g>
			<g>
				
					<linearGradient id="SVGID_00000021841719896420371090000018404838003914838938_" gradientUnits="userSpaceOnUse" x1="87.7181" y1="131.9298" x2="120.1141" y2="161.36">
					<stop  offset="0" style="stop-color:#E2F4FF"/>
					<stop  offset="1" style="stop-color:#D7ECFF"/>
				</linearGradient>
				<path style="fill:url(#SVGID_00000021841719896420371090000018404838003914838938_);" d="M131.368,168.645H80.026v-40.763
					h51.342V168.645z M80.682,167.989h50.03v-39.451h-50.03V167.989z"/>
			</g>
			<g>
				
					<linearGradient id="SVGID_00000055665270112770147680000007747809826430106523_" gradientUnits="userSpaceOnUse" x1="109.2474" y1="108.2308" x2="141.6434" y2="137.661">
					<stop  offset="0" style="stop-color:#E2F4FF"/>
					<stop  offset="1" style="stop-color:#D7ECFF"/>
				</linearGradient>
				<path style="fill:url(#SVGID_00000055665270112770147680000007747809826430106523_);" d="M132.774,128.087
					c0,0.922-0.747,1.669-1.669,1.669s-1.669-0.747-1.669-1.669c0-0.922,0.747-1.67,1.669-1.67S132.774,127.165,132.774,128.087z"/>
			</g>
			<g>
				
					<linearGradient id="SVGID_00000042016561183440703710000016915901248377141426_" gradientUnits="userSpaceOnUse" x1="89.2278" y1="130.2673" x2="121.6239" y2="159.6977">
					<stop  offset="0" style="stop-color:#E2F4FF"/>
					<stop  offset="1" style="stop-color:#D7ECFF"/>
				</linearGradient>
				<path style="fill:url(#SVGID_00000042016561183440703710000016915901248377141426_);" d="M132.453,168.019
					c0,0.922-0.747,1.669-1.669,1.669c-0.922,0-1.67-0.747-1.67-1.669c0-0.922,0.747-1.669,1.67-1.669
					C131.706,166.349,132.453,167.097,132.453,168.019z"/>
			</g>
			<g>
				
					<linearGradient id="SVGID_00000021811781172899619040000011981549642275334023_" gradientUnits="userSpaceOnUse" x1="97.6903" y1="120.9527" x2="130.0863" y2="150.3829">
					<stop  offset="0" style="stop-color:#E2F4FF"/>
					<stop  offset="1" style="stop-color:#D7ECFF"/>
				</linearGradient>
				<path style="fill:url(#SVGID_00000021811781172899619040000011981549642275334023_);" d="M107.213,128.087
					c0,0.922-0.747,1.669-1.669,1.669s-1.669-0.747-1.669-1.669c0-0.922,0.747-1.67,1.669-1.67S107.213,127.165,107.213,128.087z"/>
			</g>
			<g>
				
					<linearGradient id="SVGID_00000052065567450023283930000011237619976747873935_" gradientUnits="userSpaceOnUse" x1="77.6707" y1="142.9894" x2="110.0668" y2="172.4196">
					<stop  offset="0" style="stop-color:#E2F4FF"/>
					<stop  offset="1" style="stop-color:#D7ECFF"/>
				</linearGradient>
				<path style="fill:url(#SVGID_00000052065567450023283930000011237619976747873935_);" d="M106.892,168.019
					c0,0.922-0.748,1.669-1.67,1.669c-0.922,0-1.669-0.747-1.669-1.669c0-0.922,0.747-1.669,1.669-1.669
					C106.144,166.349,106.892,167.097,106.892,168.019z"/>
			</g>
			<g>
				
					<linearGradient id="SVGID_00000150793755471776928750000013857761775720093869_" gradientUnits="userSpaceOnUse" x1="86.2723" y1="133.5213" x2="118.6681" y2="162.9512">
					<stop  offset="0" style="stop-color:#E2F4FF"/>
					<stop  offset="1" style="stop-color:#D7ECFF"/>
				</linearGradient>
				<circle style="fill:url(#SVGID_00000150793755471776928750000013857761775720093869_);" cx="80.355" cy="128.145" r="1.669"/>
			</g>
			<g>
				
					<linearGradient id="SVGID_00000075130902221977336170000007732064510973139131_" gradientUnits="userSpaceOnUse" x1="99.1272" y1="119.3715" x2="131.523" y2="148.8014">
					<stop  offset="0" style="stop-color:#E2F4FF"/>
					<stop  offset="1" style="stop-color:#D7ECFF"/>
				</linearGradient>
				<circle style="fill:url(#SVGID_00000075130902221977336170000007732064510973139131_);" cx="131.105" cy="148.421" r="1.669"/>
			</g>
			<g>
				
					<linearGradient id="SVGID_00000016048938716797956430000010335922047837653940_" gradientUnits="userSpaceOnUse" x1="76.1519" y1="144.6617" x2="108.5477" y2="174.0917">
					<stop  offset="0" style="stop-color:#E2F4FF"/>
					<stop  offset="1" style="stop-color:#D7ECFF"/>
				</linearGradient>
				<path style="fill:url(#SVGID_00000016048938716797956430000010335922047837653940_);" d="M82.024,148.48
					c0,0.922-0.747,1.669-1.669,1.669c-0.922,0-1.669-0.747-1.669-1.669c0-0.922,0.747-1.669,1.669-1.669
					C81.277,146.81,82.024,147.558,82.024,148.48z"/>
			</g>
			<g>
				
					<linearGradient id="SVGID_00000119832591221982422700000007959849941897266052_" gradientUnits="userSpaceOnUse" x1="66.4272" y1="155.3664" x2="98.823" y2="184.7964">
					<stop  offset="0" style="stop-color:#E2F4FF"/>
					<stop  offset="1" style="stop-color:#D7ECFF"/>
				</linearGradient>
				<path style="fill:url(#SVGID_00000119832591221982422700000007959849941897266052_);" d="M82.024,168.019
					c0,0.922-0.747,1.669-1.669,1.669c-0.922,0-1.669-0.747-1.669-1.669c0-0.922,0.747-1.669,1.669-1.669
					C81.277,166.349,82.024,167.097,82.024,168.019z"/>
			</g>
		</g>
		<g>
			<g>
				<g>
					
						<linearGradient id="SVGID_00000176031521697636441100000001314224185649080236_" gradientUnits="userSpaceOnUse" x1="220.0029" y1="358.385" x2="283.5132" y2="358.385">
						<stop  offset="0" style="stop-color:#294698"/>
						<stop  offset="1" style="stop-color:#0E4BA6"/>
					</linearGradient>
					
						<rect x="220.003" y="349.467" style="fill:url(#SVGID_00000176031521697636441100000001314224185649080236_);" width="63.51" height="17.837"/>
					
						<linearGradient id="SVGID_00000151503996480841495730000001377660212565570695_" gradientUnits="userSpaceOnUse" x1="97.5268" y1="248.2424" x2="405.9956" y2="248.2424">
						<stop  offset="0" style="stop-color:#294698"/>
						<stop  offset="1" style="stop-color:#0E4BA6"/>
					</linearGradient>
					<path style="fill:url(#SVGID_00000151503996480841495730000001377660212565570695_);" d="M405.996,153.557v189.37
						c0,4.337-3.524,7.862-7.862,7.862H105.379c-4.338,0-7.852-3.524-7.852-7.862v-189.37c0-4.347,3.506-7.862,7.843-7.862h292.773
						C402.49,145.696,405.996,149.21,405.996,153.557z"/>
					<path style="fill:#ACD9EF;stroke:#ACD9EF;stroke-miterlimit:10;" d="M405.996,153.557v179.489H97.517V153.557
						c0-4.347,3.515-7.862,7.843-7.862h292.783C402.49,145.696,405.996,149.21,405.996,153.557z"/>
					<rect x="105.105" y="153.559" style="fill:#F9FBFC;" width="293.308" height="171.191"/>
					
						<linearGradient id="SVGID_00000065762496849272512260000011461717576591651763_" gradientUnits="userSpaceOnUse" x1="199.9695" y1="368.3765" x2="303.5465" y2="368.3765">
						<stop  offset="0" style="stop-color:#294698"/>
						<stop  offset="1" style="stop-color:#0E4BA6"/>
					</linearGradient>
					<path style="fill:url(#SVGID_00000065762496849272512260000011461717576591651763_);" d="M303.546,371.167H199.969v-1.773
						c0-2.102,1.704-3.807,3.807-3.807h95.963c2.103,0,3.807,1.704,3.807,3.807V371.167z"/>
				</g>
			</g>
		</g>
		<polyline style="fill:none;" points="329.955,163.57 329.595,163.14 329.595,163.13 328.075,161.32 327.665,160.83 		"/>
		<g>
			<g>
				<path style="fill:#EDBEAB;" d="M439.28,280.041l-18.139-3.483l2.03-32.286l2.804-8.954l10.382-2.194l6.172,2.132
					c3.508,1.212,5.608,4.801,4.947,8.453l-6.062,25.5L439.28,280.041z"/>
				<path style="fill:#EDBEAB;" d="M439.388,228.974l-1.064,7.335c0,0-1.685,0.701-5.312,0.175c-1.956-0.284-2.26-1.273-2.26-1.273
					l0.393-2.712L439.388,228.974z"/>
				<path style="fill:#EDBEAB;" d="M441.036,223.621c-0.056,0.263-0.1,0.51-0.152,0.748c-0.012,0.086-0.016,0.173-0.03,0.267
					c-0.452,4.38-3.923,8.638-8.223,8.662c0,0-0.035,0.003-0.097,0.003c-0.034-0.005-0.087-0.004-0.147-0.013
					c-0.916-0.019-4.212-0.226-5.213-1.71c-1.173-1.746-2.006-4.754-1.725-6.686c0.28-1.933,0.698-2.339,0.811-3.119
					c0.088-0.608,0.038-2.56,0.152-3.388c0.536-3.89,3.71-7.366,8.356-6.692C441.736,212.704,441.912,218.97,441.036,223.621z"/>
				<path style="fill:#6EBAAD;" d="M430.791,234.962"/>
				<g>
					<path style="fill:#EDBEAB;" d="M455.484,264.678c-2.108,1.313-10.867-10.225-14.22-15.398
						c-3.354-5.173-5.072-9.848-2.499-11.45c2.573-1.602,6.011,2.002,9.174,7.294C451.102,250.415,457.592,263.366,455.484,264.678z
						"/>
					<g>
						<path style="fill:#EDBEAB;" d="M439.417,287.75c-1.883-1.14,5.992-15.314,8.362-19.227c2.37-3.913,5.16-7.869,7.272-6.591
							c2.112,1.279-0.101,5.584-2.471,9.498C450.211,275.343,441.301,288.89,439.417,287.75z"/>
					</g>
					<path style="fill:#EDBEAB;" d="M443.395,253.501c0,0,6.571,8.816,6.585,8.991c0.013,0.175-9.98,20.54-9.98,20.54l3.296,2.097
						c0,0,13.643-16.135,13.206-21.444c-0.437-5.309-5.867-15.301-5.867-15.301L443.395,253.501z"/>
					<g>
						<path style="fill:#EDBEAB;" d="M440.404,283.227l-0.405-0.194l-0.004-0.006l-0.006,0.004l-1.642,0.717
							c-0.42,0.187-0.788,0.468-1.07,0.829l-0.833,1.85c0,0,0.215,0.587,0.94-0.311c0.189-0.234,0.644-0.393,1.021-0.502
							l-0.594,0.977l-1.273,2.5c-0.331,0.638-0.226,1.687,0.514,2.111c0,0,1.085,0.508,2.126-0.361l1.552-1.084
							c0.704-0.701,1.38-1.113,1.757-2.034l0.809-2.592L440.404,283.227z"/>
					</g>
					
						<linearGradient id="SVGID_00000114794117385247504830000005771248671912035774_" gradientUnits="userSpaceOnUse" x1="-575.7884" y1="659.9604" x2="-557.0764" y2="659.9604" gradientTransform="matrix(0.0755 0.9971 0.9971 -0.0755 -172.523 859.1004)">
						<stop  offset="0.0628" style="stop-color:#678AFF"/>
						<stop  offset="0.9975" style="stop-color:#5A57FF"/>
					</linearGradient>
					<path style="fill:url(#SVGID_00000114794117385247504830000005771248671912035774_);" d="M443.139,253.837l8.07-5.285
						c0,0-9.067-16.254-15.671-12.486C430.022,239.215,443.139,253.837,443.139,253.837z"/>
				</g>
				<g>
					<path style="fill:#EDBEAB;" d="M435.408,282.991c2.142,0.836,3.304,4.259,2.546,7.425c-0.603,2.518-1.654,5.75-3.48,9.523
						c-4.559,9.42-8.14,22.041-11.307,21.964c-3.167-0.077-4.137-7.937-0.932-18.131c2.897-9.214,5.587-21.309,7.925-21.887
						C431.344,281.591,433.534,282.26,435.408,282.991z"/>
					<g>
						<path style="fill:#EDBEAB;" d="M451.443,346.9c0.013,0.163,7.093,9.067,7.093,9.067s-3.84,3.934-4.1,3.641
							c-0.26-0.293-7.123-7.381-7.123-7.381L451.443,346.9z"/>
						<g>
							<path style="fill:#EDBEAB;" d="M419.251,318.666c4.291-7.91,34.425,29.572,37.546,36.871
								c3.121,7.298-15.213-11.07-24.527-19.809C422.957,326.989,417.563,321.778,419.251,318.666z"/>
						</g>
						
							<linearGradient id="SVGID_00000165201348036038633480000018238335529938996875_" gradientUnits="userSpaceOnUse" x1="-976.5132" y1="419.7209" x2="-965.8397" y2="419.7209" gradientTransform="matrix(-0.9898 0.1426 0.1426 0.9898 -564.3474 84.0382)">
							<stop  offset="0.0879" style="stop-color:#374492"/>
							<stop  offset="1" style="stop-color:#014DAE"/>
						</linearGradient>
						<path style="fill:url(#SVGID_00000165201348036038633480000018238335529938996875_);" d="M453.515,358.636
							c0,0,0.441,1.494,0.195,4.761c-0.217,2.885-1.877,3.783-1.272,4.21c0.58,0.41,9.512-8.124,9.512-8.124l-4.14-4.661
							C457.81,354.821,453.515,358.641,453.515,358.636z"/>
					</g>
					
						<linearGradient id="SVGID_00000148649828088634329880000013838941682640053170_" gradientUnits="userSpaceOnUse" x1="434.5304" y1="331.3196" x2="440.5956" y2="303.3414">
						<stop  offset="0" style="stop-color:#9972FF"/>
						<stop  offset="1" style="stop-color:#5D65FF"/>
					</linearGradient>
					<path style="fill:url(#SVGID_00000148649828088634329880000013838941682640053170_);" d="M420.833,279.059
						c0,0-5.226,30.572-4.579,40.091c0.491,7.219,33.176,37.475,33.176,37.475l5.888-5.747c-0.07-1.472-6.237-10.326-13.317-18.223
						c-7.289-8.13-12.055-13.948-12.055-13.948s11.354-25.629,11.085-36.717"/>
				</g>
				<path style="fill:#EDBEAB;" d="M424.701,280.058c1.967,1.19,2.528,4.761,1.24,7.75c-1.024,2.378-2.611,5.383-5.055,8.788
					c-6.101,8.503-11.786,20.326-14.892,19.71c-3.107-0.617-2.721-8.527,2.179-18.024c4.428-8.584,9.145-20.041,11.547-20.212
					C420.936,277.984,422.98,279.017,424.701,280.058z"/>
				<g>
					<g>
						<path style="fill:#EDBEAB;" d="M404.875,310.726c8.496-2.964,6.445,45.028,3.842,52.527
							c-2.602,7.499-4.684-18.414-5.693-31.146C402.016,319.376,401.532,311.892,404.875,310.726z"/>
					</g>
					<path style="fill:#EDBEAB;" d="M410.599,353.916c-0.093,0.134-0.276,11.508-0.276,11.508s-5.464,0.602-5.479,0.211
						c-0.015-0.391-0.818-10.225-0.818-10.225L410.599,353.916z"/>
					
						<linearGradient id="SVGID_00000123433875830052144460000006691218582247550112_" gradientUnits="userSpaceOnUse" x1="-927.6284" y1="367.777" x2="-913.1091" y2="367.777" gradientTransform="matrix(-1 0 0 1 -516.6628 0)">
						<stop  offset="0.0879" style="stop-color:#374492"/>
						<stop  offset="1" style="stop-color:#014DAE"/>
					</linearGradient>
					<path style="fill:url(#SVGID_00000123433875830052144460000006691218582247550112_);" d="M404.755,364.483
						c0,0-0.513,1.699-3.92,4.018c-3.407,2.318-4.341,1.877-4.389,2.697c-0.048,0.82,14.519-0.413,14.519-0.413l-0.486-6.708
						C410.479,364.076,404.75,364.307,404.755,364.483z"/>
				</g>
				
					<linearGradient id="SVGID_00000101822657879691505950000006020585186685237927_" gradientUnits="userSpaceOnUse" x1="409.0496" y1="330.5274" x2="425.68" y2="284.9405">
					<stop  offset="0" style="stop-color:#9972FF"/>
					<stop  offset="1" style="stop-color:#6970FF"/>
				</linearGradient>
				<path style="fill:url(#SVGID_00000101822657879691505950000006020585186685237927_);" d="M417.656,278.545
					c0,0-14.485,24.742-15.747,33.152c-1.262,8.411,2.033,47.661,2.033,47.661s6.448,1.121,7.64-0.981s1.542-43.526,1.542-43.526
					s19.812-19.502,24.999-26.634c2.243-3.084,2.908-6.228,2.908-6.228L417.656,278.545z"/>
				
					<linearGradient id="SVGID_00000019635962879067943490000006494678314151120045_" gradientUnits="userSpaceOnUse" x1="-949.2966" y1="235.6034" x2="-949.2966" y2="272.5038" gradientTransform="matrix(-1 0 0 1 -516.6628 0)">
					<stop  offset="0" style="stop-color:#8AD3FF"/>
					<stop  offset="1" style="stop-color:#5F9CFF"/>
				</linearGradient>
				<path style="fill:url(#SVGID_00000019635962879067943490000006494678314151120045_);" d="M425.448,280.684
					c0,0,15.534,2.044,15.582,1.306c0.314-4.957,2.914-21.92,4.138-25.853c4.349-13.933,2.716-18.863-1.099-20.546
					c-5.713-2.538-17.046-1.769-18.724-0.614c-1.68,1.17-3.184,3.401-4.177,8.288c-0.203,0.994-1.103,3.188-1.1,6.191
					c-0.007,0.614,0.027,1.261,0.114,1.928c0,0,0,0-0.001,0.014c0.032,0.246,0.063,0.493,0.123,0.742
					c0.093,0.482,0.155,0.845,0.197,0.993c1.821,7.524-1.742,21.857-2.994,25.245C417.368,278.749,425.448,280.684,425.448,280.684z
					"/>
				<g>
					<path style="fill:#EDBEAB;" d="M377.458,235.009l0.967,1.626c0.645,0.752,1.003,1.462,1.892,1.906l1.92,0.759l0.609,0.244
						l2.114-2.744l0.222-0.387h0.007v-0.007l-0.007-0.014l-0.494-1.411l-0.093-0.265c-0.007-0.007-0.007-0.021-0.014-0.029
						c-0.158-0.423-0.401-0.802-0.731-1.103l-1.784-0.967c0,0-0.602,0.165,0.244,0.96c0.215,0.208,0.344,0.674,0.423,1.053
						l-0.15-0.107l-0.781-0.559l-2.393-1.454c-0.616-0.38-1.669-0.351-2.142,0.351C377.264,232.859,376.669,233.905,377.458,235.009
						z"/>
				</g>
				<g>
					<g>
						<path style="fill:#809BFF;" d="M362.166,236.132l52.086-17.995c0.764-0.264,1.598,0.142,1.862,0.906l0.096,0.277
							l-53.47,18.473L362.166,236.132z"/>
						<path style="fill:#5374EA;" d="M363.497,239.985l53.47-18.473l0.097,0.28c0.264,0.764-0.142,1.598-0.906,1.862l-52.086,17.995
							L363.497,239.985z"/>
						
							<rect x="361.568" y="228.493" transform="matrix(0.9452 -0.3265 0.3265 0.9452 -53.6207 139.8935)" style="fill:#6E86FF;" width="56.571" height="2.319"/>
					</g>
					<g>
						<polygon style="fill:#F2E4CE;" points="362.166,236.132 362.74,237.793 355.151,241.32 352.78,242.422 355.014,240.923 						
							"/>
						<polygon style="fill:#DDC9AC;" points="352.78,242.422 355.332,241.842 363.497,239.985 364.072,241.648 355.469,242.238 
													"/>
						<polygon style="fill:#E6D5B9;" points="362.74,237.793 352.78,242.421 352.78,242.42 352.78,242.421 363.497,239.985 						
							"/>
					</g>
					
						<linearGradient id="SVGID_00000082333108503963340610000006341038616812128955_" gradientUnits="userSpaceOnUse" x1="-933.8073" y1="222.1735" x2="-923.281" y2="222.1735" gradientTransform="matrix(-1 0 0 1 -516.6628 0)">
						<stop  offset="0.0387" style="stop-color:#FFD744"/>
						<stop  offset="1" style="stop-color:#F5C144"/>
					</linearGradient>
					<path style="fill:url(#SVGID_00000082333108503963340610000006341038616812128955_);" d="M406.618,220.774l7.634-2.637
						c0.764-0.264,1.598,0.142,1.862,0.906l0.95,2.749c0.264,0.764-0.142,1.598-0.906,1.862l-7.634,2.637L406.618,220.774z"/>
					<g>
						<path style="fill:#255DAF;" d="M410.491,219.436l3.761-1.3c0.764-0.264,1.598,0.142,1.862,0.906l0.096,0.277l-5.145,1.778
							L410.491,219.436z"/>
						
							<linearGradient id="SVGID_00000113314971431056199980000013563813671516306076_" gradientUnits="userSpaceOnUse" x1="-933.8073" y1="223.2325" x2="-928.4846" y2="223.2325" gradientTransform="matrix(-1 0 0 1 -516.6628 0)">
							<stop  offset="0" style="stop-color:#263884"/>
							<stop  offset="1" style="stop-color:#193F92"/>
						</linearGradient>
						<path style="fill:url(#SVGID_00000113314971431056199980000013563813671516306076_);" d="M411.822,223.29l5.145-1.778
							l0.097,0.28c0.264,0.764-0.142,1.598-0.906,1.862l-3.761,1.299L411.822,223.29z"/>
						
							<linearGradient id="SVGID_00000108308293041593784570000017070004099686669953_" gradientUnits="userSpaceOnUse" x1="-933.63" y1="221.3049" x2="-927.7273" y2="221.3049" gradientTransform="matrix(-1 0 0 1 -516.6628 0)">
							<stop  offset="0" style="stop-color:#294698"/>
							<stop  offset="1" style="stop-color:#0E4BA6"/>
						</linearGradient>
						<polygon style="fill:url(#SVGID_00000108308293041593784570000017070004099686669953_);" points="411.065,221.098 
							416.21,219.32 416.967,221.512 411.822,223.29 						"/>
					</g>
					<polygon style="fill:#253E8E;" points="355.014,240.923 355.469,242.238 352.78,242.422 					"/>
				</g>
				<g>
					<path style="fill:#EDBEAB;" d="M402.316,253.24c-1.15-2.201,11.016-10.064,16.427-13.018
						c5.411-2.954,10.202-4.314,11.606-1.627c1.404,2.687-2.45,5.843-7.965,8.597C416.869,249.946,403.466,255.441,402.316,253.24z"
						/>
					<g>
						<path style="fill:#EDBEAB;" d="M380.523,235.478c1.279-1.792,14.818,7.131,18.541,9.789c3.724,2.658,7.458,5.739,6.023,7.748
							c-1.434,2.009-5.561-0.522-9.285-3.18C392.079,247.177,379.243,237.27,380.523,235.478z"/>
					</g>
					<path style="fill:#EDBEAB;" d="M414.373,242.028c0,0-9.287,5.887-9.462,5.887s-19.729-11.502-19.729-11.502l-2.34,3.129
						c0,0,15.06,14.821,20.386,14.786c5.327-0.035,15.7-4.696,15.7-4.696L414.373,242.028z"/>
					
						<linearGradient id="SVGID_00000151510424105424601000000012946064437076493200_" gradientUnits="userSpaceOnUse" x1="-943.5234" y1="238.9218" x2="-932.7764" y2="246.6784" gradientTransform="matrix(-1 0 0 1 -516.6628 0)">
						<stop  offset="0" style="stop-color:#8AD3FF"/>
						<stop  offset="1" style="stop-color:#5F9CFF"/>
					</linearGradient>
					<path style="fill:url(#SVGID_00000151510424105424601000000012946064437076493200_);" d="M414.058,241.748l4.661,8.446
						c0,0,16.891-7.815,13.632-14.684C429.628,229.772,414.058,241.748,414.058,241.748z"/>
				</g>
				
					<linearGradient id="SVGID_00000140708805223146266800000018229366217474049184_" gradientUnits="userSpaceOnUse" x1="425.6874" y1="234.7576" x2="463.8404" y2="234.7576">
					<stop  offset="0" style="stop-color:#294698"/>
					<stop  offset="1" style="stop-color:#0E4BA6"/>
				</linearGradient>
				<path style="fill:url(#SVGID_00000140708805223146266800000018229366217474049184_);" d="M430.359,238.648
					c2.259,8.614,6.084,19.476,16.36,20.522c4.624,0.471,14.636,1.84,16.53-4.103c1.324-4.155,0.395-9.044-2.522-12.317
					c-3.864-4.336-7.263-5.136-11.857-8.544c-2.343-1.738-3.99-4.019-4.259-6.987c-0.519-5.72,1.22-10.979-4.143-15.081
					c-2.874-2.198-6.856-2.861-10.287-1.713c-2.206,0.739-4.336,2.484-4.486,4.806c-0.047,0.737,0.109,1.471,0.264,2.193
					C427.475,224.467,428.528,231.666,430.359,238.648z"/>
				<polygon style="fill:#EDBEAB;" points="382.659,234.643 382.731,234.629 382.58,234.521 				"/>
				<path style="fill:#EDBEAB;" d="M377.458,235.009l0.967,1.626c0.645,0.752,1.003,1.462,1.892,1.906l1.92,0.759l2.945-2.909
					l-0.494-1.411l-0.093-0.265c-0.007-0.007-0.007-0.021-0.014-0.029l-1.849-0.057l-0.15-0.107l-0.781-0.559l-2.393-1.454
					c-0.616-0.38-1.669-0.351-2.142,0.351C377.264,232.859,376.669,233.905,377.458,235.009z"/>
			</g>
			
				<linearGradient id="SVGID_00000084502923535733693950000001317926334156429750_" gradientUnits="userSpaceOnUse" x1="-939.879" y1="279.2458" x2="-939.879" y2="279.2458" gradientTransform="matrix(-1 0 0 1 -516.6628 0)">
				<stop  offset="0.0879" style="stop-color:#374492"/>
				<stop  offset="1" style="stop-color:#014DAE"/>
			</linearGradient>
			
				<path style="fill:none;stroke:url(#SVGID_00000084502923535733693950000001317926334156429750_);stroke-width:0.7165;stroke-miterlimit:10;" d="
				M423.216,279.246"/>
		</g>
		<rect x="50.381" y="371.087" style="fill:#293E9E;" width="418.294" height="1.63"/>
		<g>
			<g>
				<g>
					
						<linearGradient id="SVGID_00000167378251500809604080000016404422137568048553_" gradientUnits="userSpaceOnUse" x1="129.8431" y1="202.1262" x2="217.1835" y2="202.1262">
						<stop  offset="0" style="stop-color:#E2F4FF"/>
						<stop  offset="1" style="stop-color:#D7ECFF"/>
					</linearGradient>
					
						<rect x="129.843" y="175.266" style="fill:url(#SVGID_00000167378251500809604080000016404422137568048553_);" width="87.34" height="53.721"/>
					<path style="fill:#FFFFFF;" d="M215.302,202.095v24.781h-83.577v-14.382l6.057-4.736c7.825-6.11,18.759-6.259,26.75-0.35
						l7.948,5.882l11.896-11.432c8.351-8.036,21.498-8.254,30.112-0.499L215.302,202.095z"/>
				</g>
				
					<ellipse transform="matrix(0.7739 -0.6333 0.6333 0.7739 -86.2001 138.7645)" style="fill:#FFFFFF;" cx="151.248" cy="190.111" rx="7.364" ry="7.364"/>
			</g>
			<g>
				<path style="fill:#293E9F;" d="M222.987,233.466H124.04v-62.68h98.947V233.466z M125.049,232.458h96.929v-60.663h-96.929
					V232.458z"/>
			</g>
			<circle style="fill:#293E9F;" cx="222.581" cy="172.081" r="2.567"/>
			<circle style="fill:#293E9F;" cx="222.087" cy="232.504" r="2.567"/>
			<circle style="fill:#293E9F;" cx="124.544" cy="171.192" r="2.567"/>
			<circle style="fill:#293E9F;" cx="124.544" cy="232.504" r="2.567"/>
		</g>
		<g>
			
				<linearGradient id="SVGID_00000179626302344167246090000007853026549499905670_" gradientUnits="userSpaceOnUse" x1="125.7565" y1="270.3261" x2="216.8" y2="270.3261">
				<stop  offset="0" style="stop-color:#E2F4FF"/>
				<stop  offset="1" style="stop-color:#D7ECFF"/>
			</linearGradient>
			<path style="fill:url(#SVGID_00000179626302344167246090000007853026549499905670_);" d="M215.825,271.5h-89.093
				c-0.539,0-0.975-0.437-0.975-0.975v-0.397c0-0.539,0.437-0.975,0.975-0.975h89.093c0.539,0,0.975,0.437,0.975,0.975v0.397
				C216.8,271.063,216.363,271.5,215.825,271.5z"/>
			
				<linearGradient id="SVGID_00000158710208786384245170000007591024318649583271_" gradientUnits="userSpaceOnUse" x1="125.7565" y1="256.5" x2="216.8" y2="256.5">
				<stop  offset="0" style="stop-color:#E2F4FF"/>
				<stop  offset="1" style="stop-color:#D7ECFF"/>
			</linearGradient>
			<path style="fill:url(#SVGID_00000158710208786384245170000007591024318649583271_);" d="M215.825,257.674h-89.093
				c-0.539,0-0.975-0.437-0.975-0.975v-0.397c0-0.539,0.437-0.975,0.975-0.975h89.093c0.539,0,0.975,0.437,0.975,0.975v0.397
				C216.8,257.237,216.363,257.674,215.825,257.674z"/>
			
				<linearGradient id="SVGID_00000062189105912000659980000009057572795577573045_" gradientUnits="userSpaceOnUse" x1="125.7565" y1="284.1522" x2="216.8" y2="284.1522">
				<stop  offset="0" style="stop-color:#E2F4FF"/>
				<stop  offset="1" style="stop-color:#D7ECFF"/>
			</linearGradient>
			<path style="fill:url(#SVGID_00000062189105912000659980000009057572795577573045_);" d="M215.825,285.326h-89.093
				c-0.539,0-0.975-0.437-0.975-0.975v-0.397c0-0.539,0.437-0.975,0.975-0.975h89.093c0.539,0,0.975,0.437,0.975,0.975v0.397
				C216.8,284.889,216.363,285.326,215.825,285.326z"/>
			
				<linearGradient id="SVGID_00000020365391541445680040000003947207658762609032_" gradientUnits="userSpaceOnUse" x1="125.7565" y1="297.9782" x2="216.8" y2="297.9782">
				<stop  offset="0" style="stop-color:#E2F4FF"/>
				<stop  offset="1" style="stop-color:#D7ECFF"/>
			</linearGradient>
			<path style="fill:url(#SVGID_00000020365391541445680040000003947207658762609032_);" d="M215.825,299.152h-89.093
				c-0.539,0-0.975-0.437-0.975-0.975v-0.397c0-0.539,0.437-0.975,0.975-0.975h89.093c0.539,0,0.975,0.437,0.975,0.975v0.397
				C216.8,298.716,216.363,299.152,215.825,299.152z"/>
		</g>
		<g>
			
				<linearGradient id="SVGID_00000135653072158245070480000009701433703076063887_" gradientUnits="userSpaceOnUse" x1="251.7565" y1="186.4565" x2="379.7131" y2="186.4565">
				<stop  offset="0" style="stop-color:#E2F4FF"/>
				<stop  offset="1" style="stop-color:#D7ECFF"/>
			</linearGradient>
			<path style="fill:url(#SVGID_00000135653072158245070480000009701433703076063887_);" d="M378.557,187.63H252.913
				c-0.639,0-1.156-0.518-1.156-1.156v-0.035c0-0.639,0.518-1.156,1.156-1.156h125.644c0.639,0,1.156,0.518,1.156,1.156v0.035
				C379.713,187.113,379.195,187.63,378.557,187.63z"/>
			
				<linearGradient id="SVGID_00000047752232862308973150000002695896872044585375_" gradientUnits="userSpaceOnUse" x1="251.7565" y1="171.9783" x2="379.7131" y2="171.9783">
				<stop  offset="0" style="stop-color:#E2F4FF"/>
				<stop  offset="1" style="stop-color:#D7ECFF"/>
			</linearGradient>
			<path style="fill:url(#SVGID_00000047752232862308973150000002695896872044585375_);" d="M378.557,173.152H252.913
				c-0.639,0-1.156-0.518-1.156-1.156v-0.035c0-0.639,0.518-1.156,1.156-1.156h125.644c0.639,0,1.156,0.518,1.156,1.156v0.035
				C379.713,172.635,379.195,173.152,378.557,173.152z"/>
			
				<linearGradient id="SVGID_00000035494500505848426750000016923586005430785940_" gradientUnits="userSpaceOnUse" x1="251.7565" y1="200.9348" x2="379.7131" y2="200.9348">
				<stop  offset="0" style="stop-color:#E2F4FF"/>
				<stop  offset="1" style="stop-color:#D7ECFF"/>
			</linearGradient>
			<path style="fill:url(#SVGID_00000035494500505848426750000016923586005430785940_);" d="M378.557,202.109H252.913
				c-0.639,0-1.156-0.518-1.156-1.156v-0.035c0-0.639,0.518-1.156,1.156-1.156h125.644c0.639,0,1.156,0.518,1.156,1.156v0.035
				C379.713,201.591,379.195,202.109,378.557,202.109z"/>
			
				<linearGradient id="SVGID_00000131355617544775763710000007306988517192865668_" gradientUnits="userSpaceOnUse" x1="251.7565" y1="215.4131" x2="379.7131" y2="215.4131">
				<stop  offset="0" style="stop-color:#E2F4FF"/>
				<stop  offset="1" style="stop-color:#D7ECFF"/>
			</linearGradient>
			<path style="fill:url(#SVGID_00000131355617544775763710000007306988517192865668_);" d="M378.557,216.587H252.913
				c-0.639,0-1.156-0.518-1.156-1.156v-0.035c0-0.639,0.518-1.156,1.156-1.156h125.644c0.639,0,1.156,0.518,1.156,1.156v0.035
				C379.713,216.069,379.195,216.587,378.557,216.587z"/>
			
				<linearGradient id="SVGID_00000077290537113688359390000006706154945008961681_" gradientUnits="userSpaceOnUse" x1="251.7565" y1="229.8913" x2="379.7131" y2="229.8913">
				<stop  offset="0" style="stop-color:#E2F4FF"/>
				<stop  offset="1" style="stop-color:#D7ECFF"/>
			</linearGradient>
			<path style="fill:url(#SVGID_00000077290537113688359390000006706154945008961681_);" d="M378.557,231.065H252.913
				c-0.639,0-1.156-0.518-1.156-1.156v-0.035c0-0.639,0.518-1.156,1.156-1.156h125.644c0.639,0,1.156,0.518,1.156,1.156v0.035
				C379.713,230.548,379.195,231.065,378.557,231.065z"/>
		</g>
		<g>
			<g>
				<g>
					<path style="fill:#293E9F;" d="M380.311,312.923H251.364v-62.68h128.947V312.923z M252.374,311.913h126.928v-60.661H252.374
						V311.913z"/>
				</g>
				<circle style="fill:#293E9F;" cx="379.905" cy="251.537" r="2.567"/>
				<circle style="fill:#293E9F;" cx="379.411" cy="311.96" r="2.567"/>
				<circle style="fill:#293E9F;" cx="251.869" cy="250.648" r="2.567"/>
				<circle style="fill:#293E9F;" cx="251.869" cy="311.96" r="2.567"/>
			</g>
			<g>
				<g>
					<path style="fill:#2A3E9D;" d="M298.829,289.683h-15.81l-3.016,7.297h-8.075l15.177-34.052h7.783l15.226,34.052h-8.27
						L298.829,289.683z M296.349,283.699l-5.4-13.037l-5.399,13.037H296.349z"/>
					<path style="fill:#2A3E9D;" d="M338.713,282.046v14.934h-7.102v-3.259c-1.411,2.383-4.135,3.647-7.979,3.647
						c-6.129,0-9.777-3.404-9.777-7.929c0-4.621,3.259-7.832,11.237-7.832h6.031c0-3.259-1.945-5.156-6.031-5.156
						c-2.773,0-5.643,0.925-7.54,2.433l-2.725-5.303c2.87-2.043,7.103-3.162,11.286-3.162
						C334.092,270.419,338.713,274.116,338.713,282.046z M331.124,288.71v-2.676h-5.204c-3.552,0-4.67,1.313-4.67,3.064
						c0,1.897,1.604,3.162,4.28,3.162C328.06,292.261,330.249,291.094,331.124,288.71z"/>
				</g>
				<g>
					<g>
						<rect x="347.647" y="260.348" style="fill:#293E9F;" width="1" height="45.913"/>
					</g>
					<g>
						<path style="fill:#293E9F;" d="M349.126,260.522h-2.022c-0.276,0-0.5-0.224-0.5-0.5c0-0.276,0.224-0.5,0.5-0.5h2.022
							c0.276,0,0.5,0.224,0.5,0.5C349.626,260.298,349.402,260.522,349.126,260.522z"/>
					</g>
					<g>
						<path style="fill:#293E9F;" d="M349.126,306.397h-2.022c-0.276,0-0.5-0.224-0.5-0.5c0-0.276,0.224-0.5,0.5-0.5h2.022
							c0.276,0,0.5,0.224,0.5,0.5C349.626,306.173,349.402,306.397,349.126,306.397z"/>
					</g>
				</g>
			</g>
		</g>
		<g>
			<g>
				
					<linearGradient id="SVGID_00000169518539458548192620000010047849741363340684_" gradientUnits="userSpaceOnUse" x1="302.6902" y1="116.8464" x2="302.6902" y2="195.6414">
					<stop  offset="0" style="stop-color:#9972FF"/>
					<stop  offset="1" style="stop-color:#7F85FF"/>
				</linearGradient>
				<path style="fill:url(#SVGID_00000169518539458548192620000010047849741363340684_);" d="M340.435,124.683v62.116
					c0,3.423-2.775,6.197-6.197,6.197h-63.094c-3.423,0-6.197-2.775-6.197-6.197v-82.241c0-3.423,2.775-6.197,6.197-6.197h42.969
					L340.435,124.683z"/>
				<polygon style="fill:#ADA5F9;" points="314.112,124.683 340.435,124.683 314.112,98.36 				"/>
			</g>
			<g>
				<path style="fill:#275291;" d="M307.01,176.665h-59.228c-1.673,0-3.029-1.356-3.029-3.029v-25.912
					c0-1.673,1.356-3.029,3.029-3.029h59.228c1.673,0,3.029,1.356,3.029,3.029v25.912
					C310.039,175.309,308.683,176.665,307.01,176.665z"/>
				<g>
					<path style="fill:#FFFFFF;" d="M263.844,162.184h-2.292v5.251h-2.743V153.76h5.035c3.292,0,4.938,1.861,4.938,4.232
						C268.781,160.068,267.371,162.184,263.844,162.184z M263.727,159.97c1.548,0,2.233-0.764,2.233-1.979
						c0-1.254-0.686-1.999-2.233-1.999h-2.175v3.977H263.727z"/>
					<path style="fill:#FFFFFF;" d="M284.675,160.617c0,4.134-2.841,6.818-7.21,6.818h-4.781V153.76h4.781
						C281.834,153.76,284.675,156.463,284.675,160.617z M277.366,165.104c2.88,0,4.507-1.646,4.507-4.487
						c0-2.841-1.627-4.545-4.507-4.545h-1.939v9.032H277.366z"/>
					<path style="fill:#FFFFFF;" d="M288.695,153.76h8.444v2.214h-5.701v3.507h4.369v2.175h-4.369v5.78h-2.743V153.76z"/>
				</g>
			</g>
		</g>
		<g>
			<g>
				<g>
					<path style="fill:#EDBEAB;" d="M81.511,263.515c-9.597,0.271-4.871,9.22-3.073,17.078c3.285,12.347,1.38,28.347,6.354,30.103
						c13.265,4.046,9.042-43.118,5.362-45.279C88.423,264.428,84.733,263.847,81.511,263.515z"/>
					<g>
						<path style="fill:#EDBEAB;" d="M90.158,306.597c-9.304-6.696-8.606,37.912-6.134,50.455
							c2.472,12.543,5.119,4.038,6.973-15.991C92.851,321.031,93.818,309.231,90.158,306.597z"/>
						<polygon style="fill:#EDBEAB;" points="82.609,355.793 82.305,360.471 89.97,360.731 89.793,356.195 						"/>
						
							<linearGradient id="SVGID_00000057830694527759104190000009374589684294064773_" gradientUnits="userSpaceOnUse" x1="258.9932" y1="367.0048" x2="280.0729" y2="367.0048" gradientTransform="matrix(1 0.0099 -0.0099 1 -173.8839 -3.4904)">
							<stop  offset="0" style="stop-color:#294698"/>
							<stop  offset="1" style="stop-color:#0E4BA6"/>
						</linearGradient>
						<path style="fill:url(#SVGID_00000057830694527759104190000009374589684294064773_);" d="M90.137,360.637
							c0,0,1.429,2.828,6.214,6.546c4.785,3.717,6.056,2.937,6.153,4.305c0.097,1.368-21.081-0.028-21.081-0.028l0.774-11.234
							C82.197,360.226,90.137,360.344,90.137,360.637z"/>
					</g>
				</g>
				<g>
					<path style="fill:#EDBEAB;" d="M71.26,263.646c-9.397-1.967-9.391,8.184-9.469,16.244c0.325,12.773-2.736,27.543,1.693,30.407
						c11.962,7.018,15.853-41.383,12.777-44.341C74.807,264.593,74.316,264.719,71.26,263.646z"/>
					<g>
						<path style="fill:#EDBEAB;" d="M68.506,306.383c-9.304-6.696-8.606,37.912-6.134,50.455
							c2.472,12.543,5.119,4.038,6.973-15.991C71.199,320.817,72.167,309.018,68.506,306.383z"/>
						<polygon style="fill:#EDBEAB;" points="61.21,356.991 61.141,361.58 68.494,361.708 68.428,357.201 						"/>
					</g>
					
						<linearGradient id="SVGID_00000000941512318288187500000002375397054460916111_" gradientUnits="userSpaceOnUse" x1="-2237.8501" y1="368.1538" x2="-2227.3826" y2="368.1538" gradientTransform="matrix(-1 -0.0099 -0.0099 1 -2164.7432 -23.7317)">
						<stop  offset="0" style="stop-color:#294698"/>
						<stop  offset="1" style="stop-color:#0E4BA6"/>
					</linearGradient>
					<path style="fill:url(#SVGID_00000000941512318288187500000002375397054460916111_);" d="M61.071,361.515
						c-0.113,1.813-2.065,7.991-2.122,9.563c11.685,0.411,11.333,2.759,9.567-9.453L61.071,361.515z"/>
				</g>
			</g>
			
				<linearGradient id="SVGID_00000003800535217002387940000001140226597633138864_" gradientUnits="userSpaceOnUse" x1="60.1588" y1="311.2523" x2="93.9792" y2="311.2523">
				<stop  offset="0" style="stop-color:#294698"/>
				<stop  offset="1" style="stop-color:#0E4BA6"/>
			</linearGradient>
			<path style="fill:url(#SVGID_00000003800535217002387940000001140226597633138864_);" d="M63.641,263.928
				c0,0-3.12,5.288-3.015,22.362c0.12,19.523-0.101,24.103-0.115,25.54c-0.014,1.438-0.351,46.026-0.351,46.026
				s7.29,1.569,9.066,0.073c0.929-0.783,8.604-70.923,8.604-70.923s1.411,16.65,1.822,22.964c0.356,5.467,0.097,43.01,2.03,46.869
				c2.019,1.667,9.419,0.882,9.519,0.777c1.104-1.15,4.767-78.251,1.365-92.37L63.641,263.928z"/>
			<g>
				<path style="fill:#EDBEAB;" d="M86.344,221.764c-5.277,3.373,1.522,35.082,5.594,33.421
					C99.059,255.735,95.902,218.055,86.344,221.764z"/>
				
					<linearGradient id="SVGID_00000046328342246950905340000000887045190799593872_" gradientUnits="userSpaceOnUse" x1="-482.9431" y1="262.632" x2="-482.9431" y2="228.4243" gradientTransform="matrix(-1 -0.0099 -0.0099 1 -392.6196 -6.2545)">
					<stop  offset="0" style="stop-color:#9972FF"/>
					<stop  offset="1" style="stop-color:#7F85FF"/>
				</linearGradient>
				<path style="fill:url(#SVGID_00000046328342246950905340000000887045190799593872_);" d="M80.339,216.773
					c14.622,1.836,14.222,14.671,15.411,23.824l-10.26,1.393L80.339,216.773z"/>
			</g>
			<g>
				<g>
					<path style="fill:#EDBEAB;" d="M92.272,255.871c6.145-1.044,20.548-26.233,19.154-27.72
						C110.349,225.339,80.174,255.84,92.272,255.871z"/>
				</g>
			</g>
			
				<linearGradient id="SVGID_00000014601312857688601470000004870532510114148232_" gradientUnits="userSpaceOnUse" x1="-471.6853" y1="262.6324" x2="-471.6853" y2="228.4246" gradientTransform="matrix(-1 -0.0099 -0.0099 1 -392.6196 -6.2545)">
				<stop  offset="0" style="stop-color:#9972FF"/>
				<stop  offset="1" style="stop-color:#7F85FF"/>
			</linearGradient>
			<path style="fill:url(#SVGID_00000014601312857688601470000004870532510114148232_);" d="M71.194,215.676
				c-19.611,2.496-5.885,13.838-8.222,48.633c-0.023,2.488,29.955,3.674,29.813,1.087c-3.257-27.444,6.193-45.449-12.476-48.8"/>
			<path style="fill:#EDBEAB;" d="M80.352,214.054l-0.051,5.177c-0.417,4.761-7.881-0.38-8.713-2.335
				c-0.578-1.259,0.276-1.894,0.303-4.548c0.026-2.654,0.029-2.946,0.029-2.946c-8.909-14.16,5.95-19.921,11.636-9.875
				C83.572,207.717,85.703,215.444,80.352,214.054z"/>
			<path style="fill:#EDBEAB;" d="M60.974,221.334c-5.817,1.821-8.161,34.79-3.912,34.268
				C63.609,257.937,70.899,220.29,60.974,221.334z"/>
			<path style="fill:#EDBEAB;" d="M82.617,255.149l-19.212-3.245l2.824-13.396l-10.756-1.27c0,0-2.251,17.985,0.952,21.546
				c3.203,3.56,25.291,2.869,25.291,2.869L82.617,255.149z"/>
			<g>
				<path style="fill:#EDBEAB;" d="M57.535,256.485c0.064,1.096,0.785,2.058,1.76,2.562c7.625,3.947,40.546,3.018,39.518,0.747
					C98.782,258.026,57.056,248.241,57.535,256.485z"/>
			</g>
			
				<linearGradient id="SVGID_00000135681551678806784220000011237680516816372406_" gradientUnits="userSpaceOnUse" x1="-457.9675" y1="262.6331" x2="-457.9675" y2="228.4249" gradientTransform="matrix(-1 -0.0099 -0.0099 1 -392.6196 -6.2545)">
				<stop  offset="0" style="stop-color:#9972FF"/>
				<stop  offset="1" style="stop-color:#7F85FF"/>
			</linearGradient>
			<path style="fill:url(#SVGID_00000135681551678806784220000011237680516816372406_);" d="M71.379,215.674
				c0,0-10.518,0.442-12.596,3.811c-2.079,3.369-3.989,18.258-3.989,18.258l11.415,1.274l1.171-6.624"/>
			
				<linearGradient id="SVGID_00000181047473236570639530000018413049656071447721_" gradientUnits="userSpaceOnUse" x1="-538.1256" y1="206.1642" x2="-521.5904" y2="206.1642" gradientTransform="matrix(-1 -0.0099 -0.0099 1 -450.6742 -6.827)">
				<stop  offset="0" style="stop-color:#294698"/>
				<stop  offset="1" style="stop-color:#0E4BA6"/>
			</linearGradient>
			<path style="fill:url(#SVGID_00000181047473236570639530000018413049656071447721_);" d="M83.694,193.531
				c1.179,0.556,1.88,1.812,1.791,3.112c-0.124,1.797-0.683,4.261-2.838,4.05c-3.362-0.329-6.711-1.952-7.871-0.632
				c-1.159,1.32-0.019,9.393,1.573,9.298c1.591-0.095,7.694-1.595,7.867-0.336c0.172,1.259,0.761,6.671-1.684,7.164
				c-2.446,0.494-6.975-1.474-7.772-3.146c-0.797-1.672-1.092-3.653-1.169-5.207c-0.077-1.554-0.387-3.905-1.515-3.861
				c-1.128,0.044,0.049,5.376-0.155,5.43c-0.204,0.053-3.401-4.836-2.974-8.77c0.427-3.934,1.046-6.72,5.56-6.935
				C78.168,193.523,81.068,192.293,83.694,193.531z"/>
			<g>
				
					<rect x="82.759" y="256.376" transform="matrix(1 0.0099 -0.0099 1 2.5389 -0.9333)" style="fill:#1B3689;" width="26.318" height="1.284"/>
				<polygon style="fill:#1B3689;" points="115.949,257.858 91.46,257.617 98.533,240.991 123.022,241.232 				"/>
				
					<linearGradient id="SVGID_00000101084976905871925550000001550513991482065793_" gradientUnits="userSpaceOnUse" x1="34.6112" y1="249.4314" x2="66.1736" y2="249.4314" gradientTransform="matrix(-1 0 0 1 158.3243 0)">
					<stop  offset="0" style="stop-color:#294698"/>
					<stop  offset="1" style="stop-color:#0E4BA6"/>
				</linearGradient>
				<polygon style="fill:url(#SVGID_00000101084976905871925550000001550513991482065793_);" points="116.64,257.865 
					92.151,257.623 99.224,240.998 123.713,241.239 				"/>
				<path style="fill:#FFFFFF;" d="M109.885,250.28c-0.453,1.098-1.411,1.745-2.138,1.445c-0.728-0.3-0.95-1.434-0.497-2.532
					c0.453-1.098,1.411-1.745,2.138-1.445C110.115,248.048,110.338,249.182,109.885,250.28z"/>
			</g>
			<path style="fill:#EDBEAB;" d="M113.998,226.337c0.249,1.048,1.6,1.764,0.503,3.756c-1.097,1.992-4.745,2.484-4.745,2.484
				l-1.543-2.776c0,0,0.597-0.797,0.707-1.298c0.111-0.501,0.818-2.317,2.637-3.133s4.668-1.66,5.024-1.126
				C116.935,224.778,113.802,225.514,113.998,226.337z"/>
			<g>
				<path style="fill:#EDBEAB;" d="M93.757,258.06l-0.361-0.258l0.858-0.547l0.007-0.003l1.528-0.875
					c0.394-0.222,0.831-0.348,1.281-0.359l1.949,0.427c0,0,0.337,0.514-0.797,0.56c-0.296,0.012-0.688,0.278-0.995,0.512
					l1.119,0.104l2.719,0.46c0.697,0.112,1.464,0.81,1.365,1.643c0,0-0.235,1.154-1.531,1.466l-1.765,0.589
					c-0.966,0.145-1.687,0.437-2.634,0.195l-2.52-0.88L93.757,258.06z"/>
			</g>
		</g>
	</g>
	<g>
		<path style="fill:#293E9E;" d="M210.024,437.464v2.557h-10.661v-13.768h10.405v2.557h-7.238v2.989h6.393v2.479h-6.393v3.187
			H210.024z"/>
		<path style="fill:#293E9E;" d="M213.55,426.253h6.255c4.504,0,7.592,2.714,7.592,6.884c0,4.17-3.088,6.884-7.592,6.884h-6.255
			V426.253z M219.647,437.404c2.733,0,4.523-1.632,4.523-4.268c0-2.636-1.79-4.268-4.523-4.268h-2.911v8.536H219.647z"/>
		<path style="fill:#293E9E;" d="M230.785,426.253h3.187v13.768h-3.187V426.253z"/>
		<path style="fill:#293E9E;" d="M241.075,428.849h-4.406v-2.596h11.998v2.596h-4.405v11.172h-3.186V428.849z"/>
		<path style="fill:#293E9E;" d="M269.857,431.248c0,3.068-2.302,4.977-5.98,4.977h-2.773v3.796h-3.186v-13.768h5.96
			C267.556,426.253,269.857,428.16,269.857,431.248z M266.632,431.248c0-1.515-0.983-2.399-2.931-2.399h-2.597v4.779h2.597
			C265.648,433.628,266.632,432.743,266.632,431.248z"/>
		<path style="fill:#293E9E;" d="M273.108,426.253h6.255c4.504,0,7.592,2.714,7.592,6.884c0,4.17-3.088,6.884-7.592,6.884h-6.255
			V426.253z M279.206,437.404c2.733,0,4.523-1.632,4.523-4.268c0-2.636-1.79-4.268-4.523-4.268h-2.911v8.536H279.206z"/>
		<path style="fill:#293E9E;" d="M293.53,428.81v3.639h6.373v2.557h-6.373v5.016h-3.186v-13.768h10.405v2.557H293.53z"/>
	</g>
</g>
</svg>
