<?xml version="1.0" encoding="utf-8"?>
<!-- Generator: Adobe Illustrator 27.5.0, SVG Export Plug-In . SVG Version: 6.00 Build 0)  -->
<svg version="1.1" id="Layer_1" xmlns="http://www.w3.org/2000/svg" xmlns:xlink="http://www.w3.org/1999/xlink" x="0px" y="0px"
	 viewBox="0 0 192 108" style="enable-background:new 0 0 192 108;" xml:space="preserve">
<g>
	<g>
		<path style="fill:#FFFFFF;" d="M171.707,38.709v2.58v42.628c0,1.067-0.864,1.93-1.93,1.93h-74.08c-1.066,0-1.93-0.864-1.93-1.93
			V38.709c0-1.067,0.864-1.93,1.93-1.93h74.08C170.843,36.779,171.707,37.643,171.707,38.709z"/>
		<path style="fill:#D9EBF9;" d="M171.707,38.709v0.32H93.766v-0.32c0-1.067,0.864-1.93,1.93-1.93h30.086h43.994
			C170.843,36.779,171.707,37.643,171.707,38.709z"/>
		<g>
			<path style="fill:#D9EBF9;" d="M171.576,38.709c0,0.713,0,1.426,0,2.138c0,1.864,0,3.729,0,5.593c0,2.605,0,5.211,0,7.816
				c0,2.936,0,5.871,0,8.806c0,2.855,0,5.709,0,8.564c0,2.363,0,4.726,0,7.09c0,1.461,0,2.922,0,4.383c0,0.264,0.006,0.528,0,0.792
				c-0.024,1.042-0.812,1.805-1.847,1.825c-0.61,0.011-1.222,0-1.832,0c-1.384,0-2.768,0-4.153,0c-2.005,0-4.009,0-6.014,0
				c-2.472,0-4.943,0-7.414,0c-2.785,0-5.57,0-8.355,0c-2.945,0-5.89,0-8.835,0c-2.952,0-5.904,0-8.855,0c-2.805,0-5.61,0-8.415,0
				c-2.505,0-5.01,0-7.515,0c-2.052,0-4.103,0-6.154,0c-1.445,0-2.889,0-4.334,0c-0.684,0-1.369,0.003-2.053,0
				c-1.037-0.005-1.873-0.736-1.903-1.8c-0.006-0.201,0-0.402,0-0.603c0-1.362,0-2.725,0-4.088c0-2.301,0-4.602,0-6.902
				c0-2.828,0-5.656,0-8.485c0-2.932,0-5.864,0-8.797c0-2.663,0-5.326,0-7.989c0-1.939,0-3.878,0-5.818c0-0.835-0.021-1.673,0-2.508
				c0.026-1.038,0.822-1.808,1.856-1.817c0.205-0.002,0.411,0,0.616,0c1.028,0,2.057,0,3.085,0c1.723,0,3.446,0,5.169,0
				c2.264,0,4.529,0,6.793,0c2.652,0,5.304,0,7.957,0c2.887,0,5.773,0,8.66,0c2.968,0,5.935,0,8.903,0c2.895,0,5.791,0,8.686,0
				c2.67,0,5.339,0,8.009,0c2.29,0,4.581,0,6.871,0c1.758,0,3.516,0,5.274,0c1.072,0,2.144,0,3.216,0c0.226,0,0.452-0.001,0.678,0
				C170.707,36.915,171.547,37.643,171.576,38.709c0.005,0.168,0.267,0.169,0.262,0c-0.032-1.171-0.949-2.051-2.114-2.062
				c-0.207-0.002-0.414,0-0.621,0c-1.041,0-2.081,0-3.122,0c-1.746,0-3.492,0-5.239,0c-2.305,0-4.61,0-6.915,0
				c-2.686,0-5.372,0-8.058,0c-2.918,0-5.837,0-8.755,0c-2.993,0-5.987,0-8.98,0c-2.923,0-5.846,0-8.77,0c-2.67,0-5.339,0-8.009,0
				c-2.272,0-4.543,0-6.815,0c-1.722,0-3.444,0-5.166,0c-1,0-1.999,0-2.999,0c-0.183,0-0.367-0.003-0.55,0
				c-1.156,0.022-2.063,0.905-2.089,2.067c-0.018,0.795,0,1.593,0,2.388c0,1.942,0,3.884,0,5.826c0,2.667,0,5.334,0,8
				c0,2.983,0,5.965,0,8.948c0,2.85,0,5.7,0,8.549c0,2.308,0,4.615,0,6.923c0,1.344,0,2.688,0,4.031
				c0,0.247-0.014,0.501,0.011,0.747c0.112,1.09,1.045,1.842,2.112,1.851c0.642,0.005,1.284,0,1.926,0c1.424,0,2.848,0,4.271,0
				c2.058,0,4.116,0,6.174,0c2.517,0,5.033,0,7.55,0c2.825,0,5.651,0,8.476,0c2.99,0,5.98,0,8.969,0c2.97,0,5.941,0,8.911,0
				c2.806,0,5.612,0,8.418,0c2.494,0,4.988,0,7.482,0c2.003,0,4.005,0,6.008,0c1.365,0,2.731,0,4.096,0c0.571,0,1.143,0.011,1.714,0
				c1.156-0.021,2.059-0.913,2.083-2.072c0.005-0.239,0-0.479,0-0.718c0-1.439,0-2.878,0-4.317c0-2.38,0-4.759,0-7.139
				c0-2.877,0-5.754,0-8.631c0-2.961,0-5.922,0-8.882c0-2.633,0-5.266,0-7.899c0-1.86,0-3.719,0-5.579c0-0.678,0-1.355,0-2.033
				C171.838,38.541,171.576,38.54,171.576,38.709z"/>
		</g>
		<circle style="fill:#6CAEE3;" cx="167.91" cy="37.904" r="0.544"/>
		<circle style="fill:#6CAEE3;" cx="165.916" cy="37.904" r="0.544"/>
		<circle style="fill:#6CAEE3;" cx="163.922" cy="37.904" r="0.544"/>
		<g>
			<rect x="95.613" y="40.814" style="fill:#D9EBF9;" width="5.729" height="1.893"/>
			<rect x="150.682" y="40.814" style="fill:#D9EBF9;" width="5.729" height="1.893"/>
			<rect x="157.407" y="40.814" style="fill:#D9EBF9;" width="5.729" height="1.893"/>
			<rect x="164.132" y="40.814" style="fill:#D9EBF9;" width="5.729" height="1.893"/>
		</g>
		<g>
			<path style="fill:#D9EBF9;" d="M154.484,81.682h-4.144c-0.438,0-0.793-0.355-0.793-0.793v-0.308c0-0.438,0.355-0.793,0.793-0.793
				h4.144c0.438,0,0.793,0.355,0.793,0.793v0.308C155.277,81.327,154.922,81.682,154.484,81.682z"/>
			<path style="fill:#D9EBF9;" d="M161.21,81.682h-4.144c-0.438,0-0.793-0.355-0.793-0.793v-0.308c0-0.438,0.355-0.793,0.793-0.793
				h4.144c0.438,0,0.793,0.355,0.793,0.793v0.308C162.002,81.327,161.647,81.682,161.21,81.682z"/>
			<path style="fill:#D9EBF9;" d="M167.935,81.682h-4.143c-0.438,0-0.793-0.355-0.793-0.793v-0.308c0-0.438,0.355-0.793,0.793-0.793
				h4.143c0.438,0,0.793,0.355,0.793,0.793v0.308C168.727,81.327,168.372,81.682,167.935,81.682z"/>
		</g>
		<g>
			<path style="fill:#D9EBF9;" d="M95.088,44.821c0.676,0,1.352,0,2.028,0c1.823,0,3.646,0,5.469,0c2.703,0,5.405,0,8.108,0
				c3.297,0,6.595,0,9.892,0c3.599,0,7.198,0,10.797,0c3.658,0,7.315,0,10.973,0c3.387,0,6.774,0,10.161,0c2.872,0,5.745,0,8.618,0
				c2.065,0,4.131,0,6.196,0c0.976,0,1.953,0.014,2.929,0c0.043-0.001,0.085,0,0.128,0c0.169,0,0.169-0.262,0-0.262
				c-0.676,0-1.352,0-2.028,0c-1.823,0-3.646,0-5.469,0c-2.703,0-5.405,0-8.108,0c-3.297,0-6.595,0-9.892,0
				c-3.599,0-7.198,0-10.797,0c-3.658,0-7.315,0-10.973,0c-3.387,0-6.774,0-10.161,0c-2.872,0-5.745,0-8.618,0
				c-2.065,0-4.131,0-6.196,0c-0.976,0-1.953-0.014-2.928,0c-0.043,0.001-0.085,0-0.128,0
				C94.919,44.558,94.919,44.821,95.088,44.821L95.088,44.821z"/>
		</g>
		<rect x="125.215" y="48.119" style="fill:#D9EBF9;" width="43.513" height="22.806"/>
		<rect x="96.021" y="48.119" style="fill:#D9EBF9;" width="21.128" height="35.018"/>
		<path style="fill:#FFFFFF;" d="M153.669,59.522c0,3.699-2.999,6.699-6.699,6.699c-3.699,0-6.699-2.999-6.699-6.699
			c0-3.7,2.999-6.699,6.699-6.699C150.67,52.823,153.669,55.822,153.669,59.522z"/>
		<path style="fill:#D9EBF9;" d="M129.083,75.032c0,0.885-0.717,1.602-1.602,1.602c-0.885,0-1.602-0.717-1.602-1.602
			c0-0.885,0.717-1.602,1.602-1.602C128.365,73.43,129.083,74.147,129.083,75.032z"/>
		<polygon style="fill:#D9EBF9;" points="145.57,56.801 145.57,62.242 148.964,59.522 		"/>
		<rect x="131.395" y="73.841" style="fill:#D9EBF9;" width="37.333" height="0.793"/>
		<rect x="131.395" y="75.637" style="fill:#D9EBF9;" width="20.935" height="0.793"/>
		<rect x="154.13" y="75.637" style="fill:#D9EBF9;" width="14.597" height="0.793"/>
	</g>
	<g>
		<path style="fill:#ECF5FC;" d="M126.788,32.65v0.97v44.239c0,1.067-0.864,1.93-1.93,1.93h-74.08c-1.066,0-1.93-0.864-1.93-1.93
			V32.65c0-1.067,0.864-1.93,1.93-1.93h74.08C125.925,30.72,126.788,31.583,126.788,32.65z"/>
		<path style="fill:#C7E1F6;" d="M126.788,32.65v0.32H48.848v-0.32c0-1.067,0.864-1.93,1.93-1.93h74.08
			C125.925,30.72,126.788,31.583,126.788,32.65z"/>
		<g>
			<path style="fill:#A1CDF0;" d="M126.657,32.65c0,0.713,0,1.426,0,2.138c0,1.865,0,3.729,0,5.594c0,2.605,0,5.211,0,7.816
				c0,2.935,0,5.871,0,8.806c0,2.855,0,5.709,0,8.564c0,2.363,0,4.726,0,7.09c0,1.461,0,2.922,0,4.383c0,0.264,0.006,0.528,0,0.792
				c-0.024,1.042-0.812,1.805-1.847,1.825c-0.61,0.011-1.221,0-1.832,0c-1.384,0-2.769,0-4.153,0c-2.005,0-4.009,0-6.014,0
				c-2.471,0-4.943,0-7.414,0c-2.785,0-5.57,0-8.355,0c-2.945,0-5.89,0-8.835,0c-2.952,0-5.904,0-8.855,0c-2.805,0-5.61,0-8.415,0
				c-2.505,0-5.01,0-7.515,0c-2.051,0-4.103,0-6.154,0c-1.444,0-2.889,0-4.334,0c-0.684,0-1.369,0.003-2.053,0
				c-1.037-0.005-1.873-0.736-1.903-1.8c-0.006-0.201,0-0.403,0-0.603c0-1.363,0-2.725,0-4.088c0-2.301,0-4.602,0-6.902
				c0-2.828,0-5.656,0-8.484c0-2.932,0-5.865,0-8.797c0-2.663,0-5.326,0-7.989c0-1.939,0-3.878,0-5.818c0-0.835-0.021-1.673,0-2.508
				c0.026-1.038,0.822-1.808,1.856-1.817c0.205-0.002,0.411,0,0.616,0c1.028,0,2.057,0,3.085,0c1.723,0,3.446,0,5.169,0
				c2.264,0,4.529,0,6.793,0c2.652,0,5.304,0,7.956,0c2.887,0,5.773,0,8.66,0c2.968,0,5.935,0,8.903,0c2.895,0,5.791,0,8.686,0
				c2.67,0,5.339,0,8.009,0c2.29,0,4.581,0,6.871,0c1.758,0,3.516,0,5.274,0c1.072,0,2.144,0,3.216,0c0.226,0,0.452-0.001,0.678,0
				C125.788,30.856,126.628,31.583,126.657,32.65c0.005,0.168,0.267,0.169,0.262,0c-0.014-0.526-0.207-0.994-0.521-1.35
				c-0.385-0.436-0.951-0.706-1.592-0.711c-0.207-0.002-0.414,0-0.621,0c-1.041,0-2.081,0-3.122,0c-1.746,0-3.492,0-5.238,0
				c-2.305,0-4.61,0-6.915,0c-2.686,0-5.372,0-8.058,0c-2.919,0-5.837,0-8.756,0c-2.993,0-5.987,0-8.98,0c-2.923,0-5.846,0-8.77,0
				c-2.67,0-5.339,0-8.009,0c-2.272,0-4.543,0-6.815,0c-1.722,0-3.444,0-5.166,0c-1,0-2,0-2.999,0c-0.183,0-0.367-0.003-0.55,0
				c-1.156,0.022-2.063,0.905-2.089,2.067c-0.018,0.795,0,1.593,0,2.388c0,1.942,0,3.884,0,5.826c0,2.667,0,5.334,0,8
				c0,2.983,0,5.965,0,8.948c0,2.85,0,5.7,0,8.549c0,2.308,0,4.615,0,6.923c0,1.344,0,2.688,0,4.031
				c0,0.247-0.014,0.501,0.011,0.747c0.112,1.09,1.045,1.842,2.112,1.851c0.642,0.005,1.284,0,1.926,0c1.424,0,2.848,0,4.271,0
				c2.058,0,4.116,0,6.174,0c2.517,0,5.033,0,7.55,0c2.826,0,5.651,0,8.476,0c2.99,0,5.979,0,8.969,0c2.97,0,5.941,0,8.911,0
				c2.806,0,5.612,0,8.418,0c2.494,0,4.988,0,7.482,0c2.003,0,4.006,0,6.008,0c1.365,0,2.731,0,4.096,0c0.571,0,1.143,0.011,1.714,0
				c1.156-0.021,2.059-0.913,2.083-2.071c0.005-0.239,0-0.479,0-0.719c0-1.439,0-2.878,0-4.317c0-2.38,0-4.76,0-7.139
				c0-2.877,0-5.754,0-8.63c0-2.961,0-5.922,0-8.882c0-2.633,0-5.266,0-7.899c0-1.86,0-3.719,0-5.579c0-0.678,0-1.355,0-2.033
				C126.919,32.481,126.657,32.481,126.657,32.65z"/>
		</g>
		<path style="fill:#6CAEE3;" d="M123.536,31.845c0,0.301-0.244,0.544-0.545,0.544c-0.301,0-0.544-0.244-0.544-0.544
			c0-0.301,0.244-0.545,0.544-0.545C123.292,31.3,123.536,31.544,123.536,31.845z"/>
		<path style="fill:#6CAEE3;" d="M121.542,31.845c0,0.301-0.244,0.544-0.545,0.544c-0.301,0-0.545-0.244-0.545-0.544
			c0-0.301,0.244-0.545,0.545-0.545C121.298,31.3,121.542,31.544,121.542,31.845z"/>
		<path style="fill:#6CAEE3;" d="M119.548,31.845c0,0.301-0.244,0.544-0.545,0.544c-0.301,0-0.544-0.244-0.544-0.544
			c0-0.301,0.244-0.545,0.544-0.545C119.304,31.3,119.548,31.544,119.548,31.845z"/>
		<rect x="50.694" y="34.755" style="fill:#C7E1F6;" width="5.729" height="1.893"/>
		<path style="fill:#C7E1F6;" d="M120.476,75.305h-6.032c-0.822,0-1.488-0.666-1.488-1.488l0,0c0-0.822,0.666-1.488,1.488-1.488
			h6.032c0.822,0,1.488,0.666,1.488,1.488l0,0C121.965,74.639,121.298,75.305,120.476,75.305z"/>
		<rect x="105.763" y="34.755" style="fill:#C7E1F6;" width="5.729" height="1.893"/>
		<rect x="112.488" y="34.755" style="fill:#C7E1F6;" width="5.729" height="1.893"/>
		<rect x="119.213" y="34.755" style="fill:#C7E1F6;" width="5.729" height="1.893"/>
		<rect x="86.125" y="40.36" style="fill:#FFFFFF;" width="35.84" height="19.409"/>
		<g>
			<rect x="91.77" y="61.792" style="fill:#C7E1F6;" width="11.332" height="0.822"/>
			<rect x="104.827" y="61.792" style="fill:#C7E1F6;" width="11.331" height="0.822"/>
			<rect x="117.778" y="61.792" style="fill:#C7E1F6;" width="3.249" height="0.822"/>
			
				<rect x="109.696" y="63.663" transform="matrix(-1 -1.224647e-16 1.224647e-16 -1 230.7225 128.1484)" style="fill:#C7E1F6;" width="11.331" height="0.822"/>
			
				<rect x="96.639" y="63.663" transform="matrix(-1 -1.224647e-16 1.224647e-16 -1 204.6091 128.1484)" style="fill:#C7E1F6;" width="11.332" height="0.822"/>
			
				<rect x="91.77" y="63.663" transform="matrix(-1 -1.224647e-16 1.224647e-16 -1 186.7893 128.1484)" style="fill:#C7E1F6;" width="3.249" height="0.822"/>
			<rect x="91.77" y="65.396" style="fill:#C7E1F6;" width="11.332" height="0.822"/>
			<rect x="104.827" y="65.396" style="fill:#C7E1F6;" width="11.331" height="0.822"/>
			<rect x="117.778" y="65.396" style="fill:#C7E1F6;" width="3.249" height="0.822"/>
			
				<rect x="109.696" y="67.129" transform="matrix(-1 -1.224647e-16 1.224647e-16 -1 230.7225 135.0791)" style="fill:#C7E1F6;" width="11.331" height="0.822"/>
			
				<rect x="96.639" y="67.129" transform="matrix(-1 -1.224647e-16 1.224647e-16 -1 204.6091 135.0791)" style="fill:#C7E1F6;" width="11.332" height="0.822"/>
			
				<rect x="91.77" y="67.129" transform="matrix(-1 -1.224647e-16 1.224647e-16 -1 186.7893 135.0791)" style="fill:#C7E1F6;" width="3.249" height="0.822"/>
			<rect x="52.785" y="71.697" style="fill:#C7E1F6;" width="21.394" height="0.822"/>
			<rect x="77.436" y="71.697" style="fill:#C7E1F6;" width="21.394" height="0.822"/>
			<rect x="101.888" y="71.697" style="fill:#C7E1F6;" width="6.135" height="0.822"/>
			
				<rect x="86.629" y="73.43" transform="matrix(-1 -1.224647e-16 1.224647e-16 -1 194.6521 147.6815)" style="fill:#C7E1F6;" width="21.394" height="0.822"/>
			
				<rect x="61.977" y="73.43" transform="matrix(-1 -1.224647e-16 1.224647e-16 -1 145.3487 147.6815)" style="fill:#C7E1F6;" width="21.394" height="0.822"/>
			
				<rect x="52.785" y="73.43" transform="matrix(-1 -1.224647e-16 1.224647e-16 -1 111.7042 147.6815)" style="fill:#C7E1F6;" width="6.135" height="0.822"/>
			
				<rect x="86.629" y="75.114" transform="matrix(-1 -1.224647e-16 1.224647e-16 -1 194.6521 151.0505)" style="fill:#C7E1F6;" width="21.394" height="0.822"/>
			
				<rect x="61.977" y="75.114" transform="matrix(-1 -1.224647e-16 1.224647e-16 -1 145.3487 151.0506)" style="fill:#C7E1F6;" width="21.394" height="0.822"/>
			
				<rect x="52.785" y="75.114" transform="matrix(-1 -1.224647e-16 1.224647e-16 -1 111.7042 151.0506)" style="fill:#C7E1F6;" width="6.135" height="0.822"/>
		</g>
	</g>
	<g>
		<path style="fill:#671B0C;" d="M93.207,85.848h3.25l-0.092-0.684l-0.243-1.792c-0.061-0.286-0.504-0.738-1.289-0.726
			c-0.784,0.012-0.955,0.655-0.955,0.655s-0.318,1.082-0.518,1.863C93.283,85.461,93.224,85.714,93.207,85.848z"/>
		<g>
			<path style="fill:#85493D;" d="M93.207,85.848h3.25l-0.092-0.684h-3.005C93.283,85.461,93.224,85.714,93.207,85.848z"/>
			<g>
				<path style="fill:#671B0C;" d="M93.207,85.979c0.949,0,1.899,0,2.848,0c0.134,0,0.268,0,0.402,0
					c0.094,0,0.138-0.083,0.127-0.166c-0.031-0.228-0.062-0.456-0.093-0.684c-0.008-0.056-0.075-0.096-0.126-0.096
					c-0.875,0-1.751,0-2.626,0c-0.126,0-0.253,0-0.379,0c-0.057,0-0.112,0.041-0.127,0.096c-0.057,0.226-0.12,0.453-0.152,0.684
					c-0.01,0.071,0.017,0.14,0.092,0.161c0.061,0.018,0.152-0.022,0.161-0.092c0.032-0.231,0.095-0.459,0.152-0.684
					c-0.042,0.032-0.084,0.064-0.126,0.096c0.875,0,1.751,0,2.626,0c0.126,0,0.253,0,0.379,0c-0.042-0.032-0.084-0.064-0.126-0.096
					c0.031,0.228,0.062,0.456,0.092,0.684c0.042-0.055,0.084-0.111,0.126-0.166c-0.949,0-1.899,0-2.848,0c-0.134,0-0.268,0-0.402,0
					C93.038,85.717,93.038,85.979,93.207,85.979z"/>
			</g>
		</g>
		<path style="fill:#7C4415;" d="M97.124,32.38c-0.536-0.036-0.732-1.714-0.679-2.053c0.054-0.339,0.411-0.607,0.411-0.607
			s0.125-0.5,0.429-0.661c0.303-0.161,3.155-0.25,4.024,0.125c0.869,0.375,0.851,2.928,0.851,2.928s-0.181,1.667-0.732,2.857
			c-0.551,1.19-1.107,1.732-1.125,1.589c-0.018-0.143-3.089-4.16-3.089-4.16L97.124,32.38z"/>
		<path style="fill:#671B0C;" d="M106.831,85.848h-3.25l0.033-0.684l0.087-1.792c0.036-0.286,0.44-0.738,1.226-0.726
			c0.785,0.012,1.012,0.655,1.012,0.655s0.413,1.082,0.681,1.863C106.721,85.461,106.802,85.714,106.831,85.848z"/>
		<path style="fill:#DC6501;" d="M93.302,83.063c0.238,0.167,3.5,0,3.5,0s2.046-17.755,2.469-24.237c0,0,3.459,23.814,3.745,24.311
			h3.595c0,0-2.6-28.882-2.604-29.24c-0.003-0.358-9.26,1.634-9.804,2.495C93.659,57.254,93.302,83.063,93.302,83.063z"/>
		<path style="fill:#001C31;" d="M112.516,50.094c-0.375,0.59-5.214,3.643-5.214,3.643s0.071,0.66-0.215,0.678
			c-0.285,0.017-1.857-1.822-1.875-2.125c-0.017-0.304,3.428-4.089,3.75-4.232c0.322-0.143,0.554-0.5,0.554-0.5
			s-4.536-2.66-4.643-2.714c-0.107-0.054-0.571,1.732-0.75,2.571c-0.178,0.839-0.036,6.44-0.036,6.44s-7.821,3.47-9.607,2.827
			c-1.786-0.643,0.339-18.606,0.339-18.606s1.928-0.523,2.93-0.735c0.139-0.03,0.26-0.053,0.356-0.069
			c0.785-0.125,2.839-0.036,3.589,0c0.117,0.006,0.288,0.03,0.495,0.069c1.125,0.214,3.319,0.852,3.665,1.109
			c0.411,0.304,7.322,8.16,7.339,8.696C113.212,47.683,112.891,49.504,112.516,50.094z"/>
		<path style="fill:#015392;" d="M99.272,39.612c-2.739-0.006-1.836-1.767-1.522-2.271c0.139-0.03,0.26-0.053,0.356-0.069
			c0.785-0.125,2.839-0.036,3.589,0c0.117,0.006,0.288,0.03,0.495,0.069C102.378,38.139,101.894,39.618,99.272,39.612z"/>
		<path style="fill:#F7A98F;" d="M106.611,53.921c0.28-0.794-1.399-1.631-1.399-1.631s-1.994,0.048-2.256,0.167
			c-0.262,0.119-1.583,1.071-1.655,1.167c-0.071,0.095,0.095,0.369,0.178,0.393c0.083,0.024,0.298-0.083,0.298-0.083
			s-0.417,0.345-0.357,0.559c0.06,0.214,0.399,0.308,0.399,0.308s0.172,0.371,0.399,0.418c0.226,0.048,0.571-0.321,0.952-0.5
			c0.381-0.179,1-0.369,1-0.369s-0.798,0.405-1.095,0.702s-0.369,0.452-0.369,0.452s0.286,0.322,0.429,0.31
			c0.143-0.012,0.69-0.583,0.69-0.583S106.397,54.528,106.611,53.921z"/>
		<path style="fill:#F7A98F;" d="M98.177,35.452c0,0,0.179,1.875,0.179,2s-1.365,1.893,0.916,1.821
			c2.28-0.071,2.171-1.785,1.887-1.91c-0.284-0.125-0.411-2.876-0.411-2.876L98.177,35.452z"/>
		<path style="fill:#F7A98F;" d="M97.552,30.559c0,0-0.518,0.839-0.553,1.428c-0.036,0.589,0.446,3.732,0.553,4.036
			c0.107,0.303,0.945,0.639,1.356,0.657c0.411,0.018,1.833-0.466,2.049-0.834c0.216-0.369,0.172-1.495,0.172-1.495
			s0.563,0.843,0.859-0.731c0.303-1.614-0.423-0.998-0.679-0.869c-0.256,0.129-0.238-0.567-0.238-0.567s-0.542-0.609-0.542-1.216
			c0-0.607-0.543-0.022-1.936-0.04C97.199,30.911,97.552,30.559,97.552,30.559z"/>
		<g>
			<path style="fill:#85493D;" d="M106.831,85.848h-3.25l0.033-0.684h3.005C106.721,85.461,106.802,85.714,106.831,85.848z"/>
			<g>
				<path style="fill:#671B0C;" d="M106.831,85.717c-0.949,0-1.899,0-2.848,0c-0.134,0-0.268,0-0.402,0
					c0.044,0.044,0.087,0.087,0.131,0.131c0.011-0.228,0.022-0.456,0.033-0.684c-0.044,0.044-0.087,0.088-0.131,0.131
					c0.875,0,1.751,0,2.626,0c0.126,0,0.253,0,0.379,0c-0.042-0.032-0.084-0.064-0.127-0.096c0.077,0.225,0.159,0.452,0.212,0.684
					c0.037,0.164,0.29,0.095,0.253-0.07c-0.053-0.232-0.135-0.459-0.212-0.684c-0.019-0.055-0.066-0.096-0.127-0.096
					c-0.875,0-1.751,0-2.626,0c-0.126,0-0.253,0-0.379,0c-0.073,0-0.128,0.06-0.131,0.131c-0.011,0.228-0.022,0.456-0.033,0.684
					c-0.003,0.071,0.063,0.131,0.131,0.131c0.949,0,1.899,0,2.848,0c0.134,0,0.268,0,0.402,0C107,85.979,107,85.717,106.831,85.717z
					"/>
			</g>
		</g>
		<path style="fill:#001C31;" d="M98.195,33.014c0,0.202-0.164,0.366-0.366,0.366c-0.202,0-0.366-0.164-0.366-0.366
			c0-0.202,0.164-0.366,0.366-0.366C98.031,32.648,98.195,32.812,98.195,33.014z"/>
		<path style="fill:#001C31;" d="M100.079,33.014c0,0.202-0.164,0.366-0.366,0.366c-0.202,0-0.366-0.164-0.366-0.366
			c0-0.202,0.164-0.366,0.366-0.366C99.915,32.648,100.079,32.812,100.079,33.014z"/>
		<path style="fill:#FFFFFF;" d="M99.713,35.023c-0.991-0.063-1.679,0-1.679,0s0.087,0.54,0.839,0.545
			C99.481,35.571,99.713,35.023,99.713,35.023z"/>
		<g>
			<path style="fill:#DC6501;" d="M97.617,57.32c0.392,0.176,0.8,0.313,1.227,0.365c0.152,0.019,0.31,0.029,0.462,0.005
				c-0.055-0.042-0.111-0.084-0.166-0.126c0,0.421,0,0.841,0,1.262c0,0.169,0.262,0.169,0.262,0c0-0.421,0-0.841,0-1.262
				c0-0.093-0.083-0.14-0.166-0.126c0.032-0.005,0.034-0.003,0.004-0.001c-0.027,0.002-0.054,0.004-0.081,0.004
				c-0.1,0.002-0.2-0.004-0.3-0.016c-0.377-0.044-0.761-0.174-1.111-0.331c-0.065-0.029-0.141-0.019-0.179,0.047
				C97.537,57.197,97.552,57.291,97.617,57.32L97.617,57.32z"/>
		</g>
		<g>
			<path style="fill:#7C4415;" d="M103.648,53.604c-0.28,0.095-0.56,0.194-0.833,0.309c-0.153,0.064-0.289,0.129-0.411,0.243
				c-0.148,0.14-0.276,0.303-0.398,0.466c-0.079,0.106-0.157,0.194-0.087,0.328c0.078,0.147,0.23,0.287,0.395,0.323
				c0.113,0.025,0.223-0.001,0.32-0.061c0.131-0.081,0.257-0.168,0.388-0.248c0.073-0.045,0.159-0.083,0.227-0.136
				c0.03-0.023-0.029,0.009-0.011,0.003c0.016-0.006,0.032-0.012,0.048-0.018c0.265-0.099,0.53-0.198,0.795-0.297
				c0.157-0.058,0.089-0.312-0.07-0.253c-0.219,0.082-0.438,0.164-0.657,0.245c-0.074,0.028-0.154,0.051-0.226,0.086
				c-0.164,0.081-0.319,0.19-0.473,0.289c-0.077,0.049-0.174,0.149-0.273,0.137c-0.071-0.009-0.134-0.067-0.179-0.118
				c-0.016-0.018-0.029-0.035-0.042-0.055c-0.006-0.01-0.012-0.026-0.02-0.034c-0.014-0.014-0.002,0.002,0-0.001
				c-0.004,0.03-0.008,0.06-0.012,0.09c0.002-0.003,0.003-0.006,0.005-0.009c0.004-0.003,0.005-0.01,0.009-0.014
				c0.02-0.024,0.036-0.053,0.055-0.078c0.102-0.141,0.212-0.277,0.333-0.401c0.1-0.103,0.197-0.165,0.328-0.222
				c0.279-0.122,0.569-0.222,0.858-0.319C103.877,53.803,103.808,53.55,103.648,53.604L103.648,53.604z"/>
		</g>
		<g>
			<path style="fill:#7C4415;" d="M103.207,52.997c-0.175,0.053-0.348,0.113-0.518,0.178c-0.232,0.089-0.501,0.182-0.679,0.364
				c-0.195,0.2-0.371,0.421-0.548,0.637c-0.046,0.056-0.095,0.112-0.138,0.17c-0.06,0.082-0.033,0.15,0.003,0.233
				c0.122,0.274,0.39,0.428,0.689,0.389c0.071-0.009,0.13-0.054,0.131-0.131c0.001-0.064-0.061-0.14-0.131-0.131
				c-0.152,0.02-0.296-0.012-0.389-0.131c-0.012-0.015-0.031-0.045-0.043-0.067c-0.006-0.011-0.032-0.067-0.02-0.039
				c-0.008-0.021-0.016-0.042-0.022-0.063c-0.011,0.042-0.022,0.085-0.034,0.128c0.192-0.239,0.387-0.478,0.592-0.706
				c0.11-0.122,0.189-0.188,0.337-0.261c0.165-0.082,0.338-0.147,0.511-0.208c0.109-0.038,0.218-0.075,0.329-0.109
				C103.438,53.201,103.37,52.948,103.207,52.997L103.207,52.997z"/>
		</g>
		<g>
			<path style="fill:#015392;" d="M105.289,52.476c0.011,0.004,0.023,0.009,0.034,0.013c0.005,0.002,0.011,0.005,0.016,0.007
				c0.029,0.011-0.023-0.01-0.003-0.001c0.019,0.008,0.038,0.016,0.056,0.025c0.107,0.049,0.211,0.105,0.311,0.168
				c0.271,0.169,0.52,0.393,0.672,0.684c0.1,0.19,0.142,0.399,0.136,0.613c-0.005,0.169,0.257,0.169,0.262,0
				c0.024-0.774-0.558-1.363-1.216-1.676c-0.065-0.031-0.131-0.061-0.199-0.085C105.2,52.166,105.131,52.42,105.289,52.476
				L105.289,52.476z"/>
		</g>
		<g>
			<path style="fill:#015392;" d="M109.514,47.754c0.152,0.436,0.577,0.761,1.012,0.875c0.253,0.066,0.517,0.073,0.775,0.043
				c0.07-0.008,0.131-0.054,0.131-0.131c0-0.065-0.06-0.139-0.131-0.131c-0.368,0.043-0.748,0.011-1.068-0.188
				c-0.185-0.115-0.321-0.263-0.422-0.446c-0.015-0.028-0.028-0.058-0.043-0.086c-0.001-0.002,0.014,0.034,0.002,0.005
				c-0.001-0.003-0.002-0.006-0.003-0.009C109.712,47.526,109.459,47.594,109.514,47.754L109.514,47.754z"/>
		</g>
		<g>
			<path style="fill:#015392;" d="M107.104,40.756c-0.129,0.424-0.295,0.84-0.472,1.245c-0.375,0.861-0.826,1.705-1.408,2.445
				c-0.345,0.438-0.739,0.846-1.202,1.16c-0.139,0.094-0.008,0.322,0.132,0.227c0.848-0.574,1.484-1.419,1.997-2.295
				c0.419-0.715,0.765-1.475,1.049-2.253c0.055-0.152,0.11-0.305,0.157-0.459C107.406,40.664,107.153,40.595,107.104,40.756
				L107.104,40.756z"/>
		</g>
		<g>
			<path style="fill:#015392;" d="M101.718,51.057c-1.395-0.275-2.554-1.128-3.417-2.234c-0.654-0.837-1.149-1.801-1.514-2.793
				c-0.056-0.152-0.109-0.305-0.158-0.46c-0.023-0.07-0.039-0.15-0.074-0.215c-0.083-0.15-0.296-0.018-0.227,0.132
				c0.238,0.519,0.534,1.017,0.845,1.494c0.609,0.933,1.335,1.829,2.252,2.474c0.519,0.366,1.105,0.631,1.737,0.715
				c0.071,0.009,0.131-0.067,0.131-0.131c0.001-0.079-0.061-0.122-0.131-0.131c-1.1-0.146-2.022-0.913-2.739-1.712
				c-0.629-0.7-1.155-1.494-1.603-2.32c-0.093-0.172-0.185-0.345-0.266-0.522c-0.076,0.044-0.151,0.088-0.227,0.132
				c-0.028-0.051-0.002-0.002,0.006,0.022c0.013,0.039,0.025,0.078,0.038,0.117c0.042,0.131,0.086,0.261,0.133,0.39
				c0.156,0.433,0.335,0.858,0.539,1.27c0.569,1.153,1.341,2.232,2.372,3.013c0.659,0.498,1.422,0.85,2.233,1.01
				C101.813,51.342,101.884,51.089,101.718,51.057L101.718,51.057z"/>
		</g>
		<g>
			<path style="fill:#7C4415;" d="M98.413,36.846c0.759,0.285,1.701-0.003,2.303-0.508c0.224-0.188,0.35-0.402,0.412-0.685
				c0.071-0.318,0.1-0.646,0.123-0.97c0.015-0.208,0.026-0.416,0.03-0.624c0.003-0.169-0.259-0.169-0.262,0
				c-0.009,0.446-0.034,0.898-0.107,1.338c-0.039,0.237-0.081,0.454-0.247,0.631c-0.24,0.255-0.573,0.43-0.902,0.54
				c-0.413,0.138-0.865,0.181-1.279,0.026C98.325,36.534,98.257,36.787,98.413,36.846L98.413,36.846z"/>
		</g>
		<g>
			<path style="fill:#7C4415;" d="M98.126,34.228c0.016,0.057,0.065,0.101,0.114,0.131c0.11,0.066,0.249,0.083,0.374,0.095
				c0.128,0.012,0.256,0.011,0.384,0.005c0.069-0.003,0.134-0.058,0.131-0.131c-0.003-0.069-0.058-0.134-0.131-0.131
				c-0.111,0.005-0.222,0.006-0.332-0.001c-0.02-0.001-0.04-0.003-0.061-0.005c-0.009-0.001-0.017-0.002-0.026-0.003
				c-0.004,0-0.008-0.001-0.012-0.001c-0.022-0.002-0.004-0.001,0.007,0.001c-0.03-0.007-0.062-0.01-0.092-0.017
				c-0.024-0.005-0.047-0.012-0.07-0.02c-0.009-0.003-0.018-0.007-0.027-0.01c0.036,0.012,0.02,0.009,0.002,0
				c-0.012-0.006-0.022-0.014-0.033-0.02c-0.01-0.006,0.031,0.028,0.014,0.01c-0.003-0.003-0.006-0.006-0.009-0.009
				c-0.018-0.015,0.023,0.035,0.009,0.011c-0.009-0.017,0.015,0.04,0.01,0.025c-0.019-0.066-0.094-0.114-0.161-0.092
				C98.151,34.088,98.107,34.157,98.126,34.228L98.126,34.228z"/>
		</g>
		<g>
			<path style="fill:#001C31;" d="M97.389,32.979c-0.001-0.009-0.001-0.018-0.001-0.027c0-0.005,0.001-0.009,0.001-0.014
				c-0.001-0.022-0.007,0.035-0.002,0.016c0.004-0.013,0.005-0.026,0.009-0.039c0.001-0.002,0.007-0.021,0.008-0.021
				c0.003,0.001-0.017,0.032-0.006,0.015c0.002-0.003,0.004-0.008,0.006-0.011c0.004-0.007,0.008-0.013,0.012-0.02
				c0.013-0.022-0.02,0.02,0.003-0.004c0.006-0.006,0.012-0.013,0.019-0.019c0.013-0.012,0.021-0.014,0.002-0.003
				c0.023-0.014,0.044-0.028,0.069-0.04c0.013-0.006-0.006,0.003-0.007,0.003c0.007-0.002,0.014-0.005,0.021-0.008
				c0.015-0.005,0.031-0.009,0.046-0.013c0.015-0.004,0.03-0.007,0.045-0.009c0.021-0.004,0.019-0.003,0.045-0.005
				c0.038-0.003,0.075-0.003,0.113-0.001c0.016,0.001,0.032,0.002,0.048,0.004c-0.022-0.003-0.001,0,0.003,0.001
				c0.01,0.002,0.02,0.004,0.03,0.006c0.028,0.006,0.054,0.015,0.081,0.024c0.006,0.002,0.022,0.011-0.003-0.001
				c0.006,0.003,0.012,0.006,0.018,0.009c0.011,0.006,0.022,0.012,0.033,0.018c0.01,0.006,0.02,0.013,0.03,0.019
				c0.02,0.012-0.02-0.018,0.003,0.002c0.015,0.013,0.03,0.027,0.043,0.042c0.004,0.004,0.015,0.022,0.02,0.023
				c-0.002,0-0.019-0.028-0.009-0.012c0.003,0.004,0.006,0.008,0.008,0.012c0.008,0.012,0.015,0.024,0.021,0.036
				c0.003,0.005,0.005,0.01,0.007,0.015c0.011,0.021-0.011-0.024-0.007-0.017c0.002,0.003,0.003,0.006,0.004,0.01
				c0.022,0.067,0.091,0.111,0.161,0.092c0.066-0.018,0.113-0.094,0.092-0.161c-0.056-0.175-0.222-0.302-0.393-0.352
				c-0.161-0.047-0.356-0.045-0.514,0.01c-0.116,0.04-0.223,0.112-0.277,0.225c-0.028,0.058-0.05,0.131-0.042,0.196
				c0.009,0.07,0.054,0.131,0.131,0.131C97.322,33.11,97.398,33.049,97.389,32.979L97.389,32.979z"/>
		</g>
		<g>
			<path style="fill:#001C31;" d="M97.212,32.306c0.019-0.009-0.042,0.016-0.004,0.002c0.022-0.008,0.045-0.017,0.067-0.024
				c0.076-0.025,0.154-0.043,0.233-0.056c0.038-0.006,0.085-0.011,0.136-0.013c0.055-0.003,0.109-0.002,0.164,0.002
				c0.121,0.009,0.243,0.039,0.353,0.09c0.064,0.03,0.141,0.018,0.179-0.047c0.033-0.057,0.018-0.15-0.047-0.18
				c-0.376-0.173-0.834-0.171-1.213,0c-0.065,0.029-0.08,0.123-0.047,0.18C97.071,32.326,97.147,32.335,97.212,32.306L97.212,32.306
				z"/>
		</g>
		<g>
			<path style="fill:#001C31;" d="M100.314,32.979c0.021-0.167-0.108-0.33-0.252-0.395c-0.269-0.12-0.652-0.096-0.86,0.131
				c-0.049,0.053-0.091,0.116-0.114,0.185c-0.022,0.068,0.025,0.143,0.092,0.161c0.071,0.019,0.14-0.024,0.161-0.092
				c0.01-0.032-0.019,0.035-0.001,0.001c0.005-0.01,0.01-0.02,0.016-0.029c0.004-0.006,0.008-0.012,0.012-0.018
				c0.016-0.025,0.007,0-0.003,0.002c0.008-0.001,0.03-0.035,0.037-0.041c0.006-0.006,0.013-0.012,0.02-0.018
				c0.004-0.003,0.008-0.007,0.012-0.01c0.011-0.01-0.027,0.017-0.003,0.003c0.018-0.011,0.035-0.023,0.054-0.033
				c0.009-0.005,0.041-0.018,0.014-0.008c0.015-0.006,0.03-0.012,0.046-0.016c0.028-0.009,0.058-0.015,0.087-0.02
				c-0.024,0.003,0.018-0.001,0.024-0.002c0.022-0.002,0.043-0.002,0.065-0.002c0.075,0.001,0.119,0.004,0.193,0.028
				c0.009,0.003,0.039,0.015,0.015,0.004c0.012,0.005,0.024,0.011,0.036,0.018c0.011,0.006,0.02,0.013,0.031,0.019
				c0.003,0.002,0.015,0.012,0,0c-0.016-0.013,0.002,0.002,0.006,0.005c0.007,0.007,0.014,0.014,0.021,0.022
				c0.002,0.003,0.004,0.006,0.007,0.008c0.012,0.01-0.014-0.024-0.008-0.01c0.003,0.007,0.009,0.013,0.013,0.02
				c0.004,0.007,0.015,0.036,0.007,0.012c-0.008-0.025,0.002,0.005,0.003,0.011c0.002,0.007,0.004,0.015,0.006,0.022
				c0.001,0.006,0.001,0.015,0.004,0.021c-0.004-0.009-0.002-0.039-0.002-0.015c0,0.012,0.001,0.024,0,0.035
				c-0.009,0.07,0.067,0.131,0.131,0.131C100.261,33.11,100.305,33.049,100.314,32.979L100.314,32.979z"/>
		</g>
		<g>
			<path style="fill:#001C31;" d="M100.361,32.08c-0.379-0.171-0.837-0.173-1.213,0c-0.064,0.03-0.08,0.123-0.047,0.18
				c0.039,0.066,0.115,0.077,0.179,0.047c0.107-0.049,0.227-0.08,0.344-0.089c0.057-0.004,0.115-0.005,0.173-0.002
				c0.027,0.001,0.054,0.003,0.08,0.006c0.028,0.003,0.027,0.003,0.055,0.007c0.077,0.012,0.154,0.031,0.228,0.055
				c0.023,0.007,0.046,0.016,0.069,0.024c0.007,0.002,0.034,0.014,0.005,0.002c-0.025-0.011-0.013-0.006-0.007-0.003
				c0.064,0.029,0.141,0.019,0.179-0.047C100.441,32.203,100.426,32.109,100.361,32.08L100.361,32.08z"/>
		</g>
		<g>
			<path style="fill:#5D3310;" d="M97.421,30.33c-0.145,0.226-0.012,0.487,0.212,0.593c0.317,0.15,0.71,0.141,1.051,0.125
				c0.381-0.018,0.762-0.078,1.132-0.17c0.188-0.047,0.377-0.099,0.558-0.17c0.155-0.061,0.088-0.315-0.07-0.253
				c-0.398,0.156-0.833,0.25-1.257,0.301c-0.358,0.042-0.747,0.07-1.103-0.005c-0.09-0.019-0.184-0.043-0.26-0.098
				c-0.04-0.029-0.055-0.058-0.061-0.084c-0.007-0.031,0.001,0.021-0.002-0.009c-0.001-0.011,0-0.022,0.001-0.033
				c-0.001,0.033,0.005-0.012,0.01-0.033c0.008-0.039-0.012,0.023,0.005-0.012c0.003-0.006,0.006-0.011,0.009-0.016
				C97.739,30.32,97.512,30.188,97.421,30.33L97.421,30.33z"/>
		</g>
		<g>
			<path style="fill:#5D3310;" d="M97.764,29.959c0.009-0.02,0.021-0.039,0.032-0.057c0.006-0.009,0.012-0.017,0.018-0.026
				c0.022-0.032-0.012,0.013,0.01-0.013c0.022-0.026,0.045-0.051,0.069-0.075c0.014-0.014,0.029-0.027,0.044-0.04
				c0.007-0.006,0.015-0.013,0.023-0.019c0.004-0.003,0.008-0.006,0.012-0.01c0.015-0.012-0.017,0.013-0.002,0.001
				c0.042-0.031,0.086-0.06,0.132-0.085c0.11-0.061,0.212-0.099,0.341-0.131c0.196-0.049,0.398-0.062,0.6-0.059
				c0.169,0.003,0.169-0.259,0-0.262c-0.524-0.01-1.136,0.109-1.459,0.565c-0.017,0.025-0.035,0.051-0.047,0.079
				c-0.028,0.065-0.019,0.141,0.047,0.18C97.64,30.039,97.735,30.024,97.764,29.959L97.764,29.959z"/>
		</g>
		<g>
			<path style="fill:#5D3310;" d="M98.713,28.91c-0.145,0.003-0.293,0.022-0.435,0.05c-0.218,0.044-0.471,0.125-0.597,0.323
				c-0.078,0.123-0.076,0.279-0.021,0.41c0.028,0.065,0.087,0.112,0.161,0.092c0.061-0.017,0.119-0.096,0.092-0.161
				c-0.011-0.026-0.02-0.052-0.027-0.08c-0.001-0.006-0.003-0.012-0.004-0.019c-0.006-0.026,0.002,0.01,0.001,0.009
				c-0.003-0.001-0.002-0.036-0.002-0.038c0-0.007,0.005-0.024,0.002-0.03c0.008,0.015-0.007,0.032-0.001,0.009
				c0.001-0.004,0.002-0.008,0.003-0.012c0.002-0.006,0.011-0.024,0.01-0.03c0.004,0.015-0.015,0.029-0.005,0.012
				c0.004-0.006,0.007-0.013,0.01-0.019c0.005-0.009,0.011-0.017,0.017-0.026c0.009-0.015-0.023,0.025,0.001,0
				c0.004-0.004,0.05-0.047,0.05-0.047c0.002,0.004-0.028,0.02-0.008,0.006c0.005-0.003,0.009-0.007,0.014-0.01
				c0.01-0.007,0.019-0.013,0.029-0.019c0.021-0.012,0.042-0.023,0.064-0.034c0.007-0.003,0.013-0.006,0.02-0.009
				c0.016-0.008-0.005,0.007-0.011,0.005c0.003,0.002,0.031-0.012,0.035-0.014c0.025-0.009,0.05-0.018,0.076-0.026
				c0.05-0.015,0.101-0.028,0.152-0.038c0.047-0.01,0.094-0.017,0.142-0.024c0.021-0.003-0.014,0.002-0.015,0.002
				c0.006,0,0.013-0.002,0.02-0.003c0.01-0.001,0.021-0.003,0.031-0.004c0.019-0.002,0.038-0.004,0.058-0.006
				c0.046-0.004,0.091-0.007,0.137-0.008c0.071-0.001,0.131-0.059,0.131-0.131C98.844,28.971,98.784,28.909,98.713,28.91
				L98.713,28.91z"/>
		</g>
	</g>
	<g>
		<path style="fill:#F7A98F;" d="M18.103,78.87l-0.714,5.268c0,0-1.661-0.679-1.661-0.786c0-0.107,0-4.803,0-4.803L18.103,78.87z"/>
		<path style="fill:#BA6ABB;" d="M15.086,85.816c0,0,3.178,0.071,3.178,0c0-0.027-0.084-0.41-0.189-0.875
			c-0.173-0.764-0.4-1.751-0.4-1.751s-1.285-1.16-2.053-0.196l-0.369,1.946L15.086,85.816z"/>
		<g>
			<path style="fill:#C888C9;" d="M15.086,85.816c0,0,3.178,0.071,3.178,0c0-0.027-0.084-0.41-0.189-0.875h-2.823L15.086,85.816z"/>
			<g>
				<path style="fill:#BA6ABB;" d="M15.086,85.948c0.468,0.01,0.936,0.019,1.404,0.024c0.351,0.005,0.703,0.008,1.054,0.007
					c0.22-0.001,0.446,0.007,0.665-0.017c0.121-0.013,0.2-0.068,0.177-0.205c-0.048-0.285-0.122-0.568-0.185-0.85
					c-0.013-0.056-0.071-0.096-0.127-0.096c-0.823,0-1.645,0-2.468,0c-0.118,0-0.236,0-0.355,0c-0.054,0-0.116,0.04-0.126,0.096
					c-0.056,0.292-0.111,0.583-0.166,0.875c-0.031,0.165,0.221,0.236,0.253,0.07c0.055-0.292,0.111-0.583,0.166-0.875
					c-0.042,0.032-0.084,0.064-0.127,0.096c0.823,0,1.645,0,2.468,0c0.118,0,0.236,0,0.355,0c-0.042-0.032-0.084-0.064-0.126-0.096
					c0.058,0.259,0.118,0.518,0.171,0.779c0.004,0.022,0.004,0.06,0.015,0.08c-0.033-0.058,0.05-0.109,0.087-0.14
					c-0.002,0.002-0.006,0.001-0.009,0.003c-0.003,0.002-0.018,0.005-0.022,0.004c0.036,0.01,0.009-0.001-0.018,0.001
					c-0.225,0.014-0.451,0.014-0.677,0.014c-0.642,0.001-1.285-0.01-1.927-0.022c-0.161-0.003-0.323-0.006-0.484-0.01
					C14.917,85.682,14.917,85.944,15.086,85.948z"/>
			</g>
		</g>
		<path style="fill:#F7A98F;" d="M12.389,78.87l0.714,5.268c0,0,1.661-0.679,1.661-0.786c0-0.107,0-4.803,0-4.803L12.389,78.87z"/>
		<path style="fill:#015392;" d="M11.318,71.656c0,0-2.357-13.642-2-15.321c0.357-1.679,0.857-2.464,0.857-2.464l7.631-0.357
			c0,0,1.119,1.286,1.226,2.857c0.085,1.253-0.5,15.785-0.5,15.785s0.286,0.607,0.25,2.75c-0.036,2.143-0.786,7.035-0.786,7.035
			s-1.857,0.143-2.75-0.214c0,0-1.357,0.485-2.964,0.243c0,0,0-0.35,0.107-0.385C12.496,81.549,10.746,74.977,11.318,71.656z"/>
		<path style="fill:#2ACC98;" d="M19.818,45.907l-1.92-0.286c0.401,2.965-1.152,3.893-0.973,4.75c0.178,0.857,1.535,4,1.535,4
			s-0.036,1.571-4.075,1.75c-4.039,0.178-5.008-1.119-5.008-1.119c0.464-1.071,0.964-2.381,0.964-2.381
			c-1.321-2.857-1.952-8.571-1.381-9.25c0.252-0.299,1.093-0.702,2.026-1.062c1.183-0.457,2.514-0.845,2.974-0.866
			c0.407-0.018,1.436,0.183,2.371,0.391c0.952,0.212,1.808,0.43,1.808,0.43l2,1.357L19.818,45.907z"/>
		<path style="fill:#BA6ABB;" d="M15.407,85.816c0,0-3.178,0.071-3.178,0c0-0.027,0.084-0.41,0.189-0.875
			c0.173-0.764,0.4-1.751,0.4-1.751s1.286-1.16,2.053-0.196l0.369,1.946L15.407,85.816z"/>
		<path style="fill:#7C4415;" d="M14.889,32.669c0,0,0.25-0.381,0.083-0.643c-0.167-0.262-0.595-0.095-0.595-0.095
			s-0.452-0.488-1.202-0.631c-0.75-0.143-2.44,0.714-3.428,1.809c-0.988,1.095-0.929,3.024-0.69,3.857
			c0.238,0.833-1.167,2.428-1.25,3.274c-0.083,0.845,0.333,1.024,0.345,0.988c0.012-0.036-0.048-0.452,0.179-0.905
			c0.226-0.452,0.607-0.762,0.607-0.762s-1.165,1.7,0.286,2.286c1.451,0.585,3.309-0.085,3.571-0.406
			c0.262-0.32,2.529-1.96,2.529-1.96s0.269,1.388,0.102,1.96c0,0,0.964-1.511,0.988-2.987v-1.619c0,0,0.452-0.119,0.571-0.762
			c0.119-0.643-0.309-2.524-0.643-2.881C16.008,32.836,14.889,32.669,14.889,32.669z"/>
		<path style="fill:#F7A98F;" d="M12.591,39.05c0,0,0.083,2.667-0.119,2.845c-0.202,0.179,0.798,0.905,1.548,0.786
			c0.75-0.119,1.036-0.702,1.036-0.702s-0.44-0.857-0.226-2.44C15.044,37.955,12.591,39.05,12.591,39.05z"/>
		<path style="fill:#F7A98F;" d="M11.205,36.965c0,0-0.738-0.374-0.929-0.262c-0.19,0.112,0.286,1.44,0.464,1.627
			c0.179,0.187,0.536,0.159,0.536,0.131C11.276,38.432,10.955,37.535,11.205,36.965z"/>
		<path style="fill:#F7A98F;" d="M12.889,34.86c0.036,0.226-1.048,1.369-1.25,1.738c-0.202,0.369,0.095,2.964,0.286,3.202
			c0.191,0.238,1.226,0.959,1.893,0.952c0.667-0.007,1.505-1.271,1.505-1.271s0.4-3.526-0.16-3.8
			c-0.559-0.274-1.202-0.167-1.631-0.405C13.103,35.039,12.889,34.86,12.889,34.86z"/>
		<g>
			<path style="fill:#C888C9;" d="M15.407,85.816c0,0-3.178,0.071-3.178,0c0-0.027,0.084-0.41,0.189-0.875h2.823L15.407,85.816z"/>
			<g>
				<path style="fill:#BA6ABB;" d="M15.407,85.685c-0.432,0.01-0.864,0.017-1.297,0.023c-0.578,0.008-1.161,0.03-1.739-0.002
					c-0.02-0.001-0.04-0.003-0.061-0.004c-0.029-0.002-0.038,0.008-0.01,0c-0.004,0.001-0.024-0.003-0.028-0.006
					c-0.001,0-0.002-0.001-0.003-0.001c0.051,0.015,0.081,0.054,0.09,0.118c0.001,0-0.007,0.037,0.003-0.01
					c0.059-0.276,0.119-0.551,0.181-0.826c-0.042,0.032-0.084,0.064-0.127,0.096c0.823,0,1.645,0,2.468,0c0.118,0,0.236,0,0.355,0
					c-0.042-0.032-0.084-0.064-0.127-0.096c0.055,0.292,0.111,0.583,0.166,0.875c0.032,0.166,0.284,0.095,0.253-0.07
					c-0.055-0.292-0.111-0.583-0.166-0.875c-0.011-0.056-0.072-0.096-0.127-0.096c-0.823,0-1.646,0-2.468,0
					c-0.118,0-0.236,0-0.354,0c-0.055,0-0.114,0.04-0.127,0.096c-0.06,0.265-0.122,0.53-0.175,0.796
					c-0.022,0.109-0.028,0.218,0.103,0.25c0.192,0.047,0.417,0.024,0.612,0.026c0.681,0.005,1.361-0.008,2.042-0.02
					c0.178-0.003,0.356-0.007,0.534-0.011C15.575,85.944,15.576,85.682,15.407,85.685z"/>
			</g>
		</g>
		<path style="fill:#F7A98F;" d="M16.647,45.407c-2.016,0.678-4.329,0.369-4.329,0.369c-0.302-1.381-1.041-2.901-1.331-3.468
			c1.183-0.457,2.514-0.845,2.974-0.866c0.407-0.018,1.436,0.183,2.371,0.391C16.605,43.124,16.647,45.407,16.647,45.407z"/>
		<path style="fill:#FFFFFF;" d="M12.844,38.964l1.643-0.066c0,0-0.304,0.549-0.821,0.615
			C13.149,39.579,12.844,38.964,12.844,38.964z"/>
		<path style="fill:#001C31;" d="M12.898,37.05c0.045,0.219-0.096,0.432-0.315,0.477c-0.219,0.045-0.432-0.096-0.477-0.315
			c-0.045-0.219,0.096-0.432,0.315-0.477C12.64,36.69,12.853,36.831,12.898,37.05z"/>
		<path style="fill:#001C31;" d="M15.038,36.959c0.045,0.219-0.096,0.432-0.315,0.477c-0.219,0.045-0.432-0.096-0.477-0.315
			c-0.045-0.219,0.096-0.432,0.315-0.477C14.78,36.599,14.993,36.74,15.038,36.959z"/>
		<g>
			<path style="fill:#1D7D5F;" d="M11.858,46.597c0.037,0.255,0.008,0.516-0.061,0.763c-0.034,0.122-0.091,0.214-0.118,0.322
				c-0.013,0.052,0.011,0.105,0.026,0.155c0.026,0.087,0.052,0.174,0.077,0.261c0.176,0.603,0.347,1.209,0.474,1.825
				c0.029,0.143,0.059,0.297,0.074,0.433c0.006,0.053,0.011,0.107,0.011,0.161c0,0.021-0.001,0.042-0.002,0.064
				c0,0.008-0.005,0.041,0.001,0.001c-0.001,0.01-0.004,0.02-0.007,0.03c-0.045,0.163,0.208,0.233,0.253,0.07
				c0.042-0.155,0.007-0.334-0.016-0.488c-0.037-0.244-0.091-0.485-0.148-0.725c-0.117-0.491-0.252-0.977-0.394-1.461
				c-0.032-0.108-0.064-0.216-0.097-0.324c-0.004,0.034-0.009,0.067-0.013,0.101c0.189-0.383,0.252-0.836,0.192-1.256
				C12.087,46.361,11.834,46.431,11.858,46.597L11.858,46.597z"/>
		</g>
		<g>
			<path style="fill:#1D7D5F;" d="M17.369,42.528c0.073,0.347,0.109,0.704,0.133,1.057c0.054,0.791,0.02,1.592-0.15,2.367
				c-0.036,0.165,0.217,0.235,0.253,0.07c0.175-0.798,0.215-1.623,0.159-2.437c-0.025-0.376-0.064-0.757-0.142-1.127
				C17.588,42.294,17.335,42.363,17.369,42.528L17.369,42.528z"/>
		</g>
		<g>
			<path style="fill:#1D7D5F;" d="M13.424,49.141c0.872-0.226,1.753-0.481,2.579-0.843c0.217-0.095,0.446-0.198,0.621-0.361
				c0.124-0.115-0.062-0.3-0.185-0.186c-0.122,0.113-0.322,0.208-0.492,0.286c-0.248,0.113-0.505,0.208-0.762,0.298
				c-0.495,0.173-0.998,0.324-1.503,0.464c-0.109,0.03-0.219,0.061-0.329,0.089C13.191,48.93,13.26,49.183,13.424,49.141
				L13.424,49.141z"/>
		</g>
		<g>
			<path style="fill:#1D7D5F;" d="M16.405,52.247c-0.002,0.004-0.003,0.008-0.005,0.012c0.028-0.055,0.003-0.008-0.003,0.007
				c-0.021,0.044-0.043,0.087-0.066,0.129c-0.085,0.152-0.187,0.295-0.29,0.419c-0.403,0.485-0.929,0.852-1.498,1.118
				c-0.49,0.228-1.015,0.377-1.545,0.475c-0.166,0.031-0.095,0.284,0.07,0.253c1.329-0.246,2.756-0.877,3.468-2.093
				c0.047-0.08,0.09-0.162,0.123-0.248C16.719,52.159,16.465,52.091,16.405,52.247L16.405,52.247z"/>
		</g>
		<g>
			<path style="fill:#1D7D5F;" d="M10.197,43.105c0.023,0.007,0.005,0.004-0.011-0.005c0.018,0.01,0.036,0.018,0.053,0.028
				c0.013,0.008,0.026,0.017,0.038,0.025c0.007,0.005,0.015,0.011,0.022,0.016c0.015,0.011-0.022-0.018,0.003,0.003
				c0.041,0.034,0.08,0.069,0.116,0.107c0.282,0.288,0.481,0.665,0.654,1.032c0.187,0.397,0.339,0.81,0.475,1.227
				c0.052,0.16,0.306,0.091,0.253-0.07c-0.215-0.657-0.465-1.323-0.839-1.909c-0.152-0.239-0.332-0.488-0.573-0.645
				c-0.037-0.024-0.08-0.049-0.123-0.061C10.104,42.806,10.035,43.059,10.197,43.105L10.197,43.105z"/>
		</g>
		<g>
			<path style="fill:#016FC2;" d="M12.997,57.033c0.72,0.281,1.526,0.43,2.297,0.433c0.169,0.001,0.169-0.262,0-0.262
				c-0.749-0.003-1.528-0.151-2.227-0.424C12.909,56.719,12.841,56.972,12.997,57.033L12.997,57.033z"/>
		</g>
		<g>
			<path style="fill:#016FC2;" d="M15.306,81.572c-0.007-0.423-0.013-0.846-0.02-1.269c-0.015-0.995-0.029-1.989-0.042-2.984
				c-0.015-1.152-0.029-2.304-0.039-3.456c-0.008-0.908-0.017-1.815-0.011-2.723c0.001-0.232,0-0.465,0.013-0.697
				c0.002-0.026,0.004-0.053,0.006-0.079c0.001-0.016-0.005,0.039,0.002-0.004c0.009-0.056,0.009-0.111,0.01-0.168
				c0.001-0.591-0.041-1.184-0.072-1.774c-0.053-1.025-0.112-2.049-0.173-3.074c-0.069-1.154-0.139-2.307-0.211-3.461
				c-0.062-0.992-0.125-1.984-0.188-2.976c-0.034-0.526-0.067-1.051-0.102-1.577c-0.002-0.024-0.003-0.049-0.005-0.073
				c-0.011-0.168-0.273-0.169-0.262,0c0.024,0.369,0.048,0.738,0.072,1.107c0.058,0.907,0.116,1.814,0.173,2.721
				c0.072,1.141,0.142,2.282,0.211,3.423c0.065,1.084,0.129,2.168,0.188,3.252c0.039,0.721,0.081,1.443,0.102,2.166
				c0.003,0.09,0.005,0.181,0.005,0.271c0,0.028-0.001,0.056-0.001,0.084c-0.001,0.035-0.005,0.046,0,0.013
				c-0.023,0.144-0.022,0.291-0.025,0.437c-0.014,0.786-0.005,1.572,0,2.358c0.008,1.13,0.021,2.259,0.035,3.389
				c0.013,1.071,0.028,2.143,0.044,3.214c0.009,0.598,0.018,1.195,0.027,1.793c0.001,0.028,0.001,0.057,0.001,0.085
				C15.046,81.741,15.309,81.742,15.306,81.572L15.306,81.572z"/>
		</g>
		<g>
			<path style="fill:#7C4415;" d="M11.893,39.893c0.283,0.336,0.667,0.62,1.071,0.788c0.627,0.26,1.313,0.118,1.84-0.292
				c0.135-0.105,0.262-0.224,0.365-0.361c0.101-0.135-0.127-0.266-0.227-0.132c-0.002,0.002,0.026-0.031,0.002-0.003
				c-0.017,0.019-0.033,0.039-0.05,0.058c-0.057,0.063-0.118,0.122-0.182,0.177c-0.199,0.172-0.436,0.305-0.69,0.375
				c-0.597,0.165-1.164-0.088-1.617-0.472c-0.116-0.098-0.23-0.204-0.328-0.32C11.969,39.578,11.785,39.764,11.893,39.893
				L11.893,39.893z"/>
		</g>
		<g>
			<path style="fill:#7C4415;" d="M13.237,38.449c0.096,0.013,0.193,0.019,0.29,0.022c0.167,0.005,0.352,0.003,0.51-0.058
				c0.101-0.039,0.18-0.099,0.22-0.203c0.025-0.066-0.028-0.144-0.092-0.161c-0.074-0.02-0.136,0.025-0.161,0.092
				c0.004-0.011,0.016-0.028,0.004-0.011c-0.003,0.004-0.017,0.026-0.002,0.005c0.02-0.028-0.029,0.036-0.01,0.009
				c0.01-0.014,0.005-0.003-0.005,0.002c-0.007,0.004-0.013,0.008-0.02,0.011c-0.002,0.001-0.018,0.01-0.018,0.009
				c-0.001-0.001,0.028-0.01,0.015-0.006c-0.005,0.001-0.009,0.003-0.014,0.005c-0.033,0.012-0.068,0.021-0.102,0.027
				c-0.008,0.001-0.017,0.003-0.025,0.004c-0.004,0.001-0.039,0.005-0.017,0.003c0.021-0.003-0.008,0.001-0.013,0.001
				c-0.012,0.001-0.024,0.002-0.035,0.003c-0.142,0.012-0.286,0.006-0.429-0.007c-0.032-0.003-0.064-0.006-0.096-0.01
				c-0.07-0.009-0.131,0.067-0.131,0.131C13.106,38.397,13.167,38.44,13.237,38.449L13.237,38.449z"/>
		</g>
		<g>
			<path style="fill:#001C31;" d="M14.386,37.086C14.388,37.049,14.378,37.118,14.386,37.086c0.006-0.028,0.015-0.054,0.023-0.081
				c0.007-0.022-0.012,0.021,0,0.001c0.004-0.008,0.008-0.016,0.012-0.024c0.011-0.02,0.023-0.04,0.037-0.058
				c-0.014,0.019,0,0,0.007-0.007c0.008-0.008,0.016-0.017,0.024-0.025c0.009-0.008,0.018-0.016,0.027-0.024
				c0,0,0.016-0.013,0.007-0.005c-0.01,0.007,0.02-0.013,0.019-0.012c0.111-0.072,0.254-0.096,0.393-0.093
				c0.059,0.002,0.109,0.011,0.171,0.031c0.006,0.002,0.012,0.004,0.017,0.006c-0.002-0.001-0.017-0.008-0.004-0.001
				c0.012,0.006,0.023,0.012,0.035,0.018c0.009,0.005,0.018,0.011,0.026,0.016c0.004,0.003,0.008,0.006,0.012,0.008
				c0.015,0.01-0.017-0.015-0.005-0.003c0.015,0.013,0.03,0.027,0.044,0.042c0.004,0.004,0.021,0.027,0.007,0.007
				c-0.014-0.019,0,0.001,0.003,0.006c0.012,0.021,0.029,0.06,0.008,0.008c0.032,0.082,0.15,0.142,0.219,0.058
				c0.049-0.06,0.098-0.119,0.147-0.179c0.045-0.055,0.053-0.132,0-0.186c-0.046-0.046-0.14-0.055-0.186,0
				c-0.049,0.06-0.098,0.119-0.147,0.179c0.073,0.019,0.146,0.039,0.219,0.058c-0.076-0.194-0.279-0.298-0.476-0.323
				c-0.309-0.04-0.693,0.061-0.84,0.362c-0.034,0.069-0.059,0.144-0.062,0.221C14.116,37.255,14.379,37.255,14.386,37.086
				L14.386,37.086z"/>
		</g>
		<g>
			<path style="fill:#001C31;" d="M13.083,37.096c-0.039-0.188-0.202-0.338-0.373-0.406c-0.172-0.069-0.372-0.067-0.55-0.028
				c-0.134,0.029-0.27,0.093-0.363,0.197c-0.047,0.053-0.094,0.121-0.109,0.192c0.073-0.019,0.146-0.039,0.219-0.058
				c-0.058-0.051-0.116-0.102-0.174-0.153c-0.053-0.047-0.133-0.052-0.186,0c-0.048,0.048-0.053,0.139,0,0.186
				c0.058,0.051,0.116,0.102,0.174,0.153c0.069,0.061,0.197,0.045,0.219-0.058c0.002-0.008,0.009-0.02,0.009-0.027
				c0-0.003-0.016,0.031-0.005,0.013c0.003-0.005,0.005-0.011,0.008-0.016c0.008-0.015,0.017-0.029,0.027-0.043
				c0.003-0.005-0.017,0.018,0.001,0c0.007-0.007,0.012-0.014,0.019-0.021c0.007-0.007,0.015-0.014,0.022-0.021
				c0.02-0.02-0.006,0.002,0.012-0.01c0.05-0.034,0.083-0.05,0.133-0.065c0.135-0.042,0.291-0.049,0.427-0.006
				c0.033,0.01,0.036,0.012,0.061,0.025c0.011,0.006,0.023,0.013,0.034,0.02c0.007,0.004,0.033,0.023,0.026,0.018
				c-0.001,0,0.03,0.027,0.04,0.039c0.007,0.007,0.014,0.015,0.02,0.023c0.01,0.011-0.005-0.007-0.005-0.007
				c0.004,0.005,0.007,0.01,0.011,0.015c0.011,0.018,0.022,0.035,0.032,0.054c0.004,0.007,0.007,0.015,0.011,0.022
				c-0.008-0.014-0.009-0.026-0.003-0.006c0.004,0.013,0.009,0.026,0.012,0.04c0.014,0.069,0.096,0.109,0.161,0.092
				C13.063,37.238,13.097,37.166,13.083,37.096L13.083,37.096z"/>
		</g>
		<g>
			<path style="fill:#001C31;" d="M14.196,36.294c0.047-0.026,0.096-0.048,0.146-0.07c0.005-0.002,0.047-0.02,0.018-0.008
				c0.011-0.004,0.022-0.009,0.032-0.013c0.031-0.013,0.063-0.025,0.095-0.036c0.063-0.023,0.126-0.043,0.19-0.06
				c0.144-0.039,0.266-0.061,0.414-0.053c0.121,0.007,0.232,0.044,0.318,0.133c0.117,0.122,0.302-0.063,0.186-0.186
				c-0.244-0.255-0.627-0.238-0.943-0.159c-0.202,0.05-0.404,0.127-0.588,0.226C13.915,36.147,14.047,36.374,14.196,36.294
				L14.196,36.294z"/>
		</g>
		<g>
			<path style="fill:#001C31;" d="M13.119,36.077c-0.127-0.046-0.261-0.077-0.393-0.101c-0.248-0.045-0.521-0.068-0.764,0.015
				c-0.148,0.05-0.27,0.137-0.36,0.265c-0.041,0.058-0.01,0.146,0.047,0.18c0.066,0.038,0.138,0.011,0.179-0.047
				c0.028-0.04,0.071-0.078,0.123-0.107c0.052-0.03,0.104-0.047,0.175-0.062c0.121-0.026,0.28-0.021,0.421-0.006
				c0.022,0.002,0.046,0.006,0.083,0.012c0.032,0.006,0.065,0.012,0.097,0.018c0.056,0.012,0.111,0.025,0.166,0.04
				c0.053,0.014,0.106,0.029,0.157,0.048c0.067,0.024,0.144-0.027,0.161-0.092C13.231,36.166,13.186,36.101,13.119,36.077
				L13.119,36.077z"/>
		</g>
		<g>
			<g>
				<path style="fill:#5D3310;" d="M12.762,34.869c-0.218,0.297-0.438,0.592-0.659,0.886c-0.134,0.178-0.298,0.351-0.392,0.555
					c-0.095,0.208-0.142,0.432-0.172,0.658c-0.077,0.594-0.026,1.204,0.066,1.794c0.093,0.594,0.245,1.182,0.468,1.742
					c0.1,0.251,0.208,0.51,0.355,0.738c0.049-0.064,0.099-0.128,0.148-0.193c-0.01-0.002-0.021-0.005-0.03-0.009
					c-0.012-0.005-0.024-0.009-0.036-0.013c-0.038-0.014,0.008,0.006-0.034-0.015c-0.097-0.047-0.19-0.102-0.275-0.17
					c-0.321-0.256-0.526-0.631-0.645-1.018c-0.195-0.636-0.273-1.321-0.309-1.983c-0.029-0.523-0.024-1.048,0.013-1.57
					c0.013-0.184,0.03-0.369,0.052-0.552c0.009-0.074,0.012-0.103,0.026-0.187c0.027-0.165-0.225-0.236-0.253-0.07
					c-0.123,0.743-0.141,1.514-0.106,2.265c0.031,0.686,0.114,1.381,0.29,2.046c0.118,0.448,0.334,0.888,0.683,1.201
					c0.155,0.139,0.349,0.277,0.555,0.328c0.106,0.026,0.212-0.093,0.148-0.193c-0.113-0.175-0.201-0.371-0.282-0.562
					c-0.214-0.506-0.364-1.042-0.466-1.581c-0.111-0.583-0.171-1.186-0.127-1.779c0.017-0.225,0.051-0.453,0.127-0.666
					c0.069-0.193,0.203-0.343,0.325-0.504c0.255-0.336,0.507-0.675,0.757-1.015C13.088,34.866,12.861,34.735,12.762,34.869
					L12.762,34.869z"/>
			</g>
			<g>
				<path style="fill:#5D3310;" d="M15.09,32.805c-0.691-0.282-1.497-0.228-2.215-0.09c-0.093,0.018-0.186,0.038-0.278,0.061
					c-0.016,0.004-0.036,0.006-0.051,0.013c-0.012,0.005,0.052-0.003,0.02-0.003c-0.108,0.002-0.221,0.027-0.327,0.048
					c-0.459,0.091-0.911,0.274-1.286,0.556c-0.589,0.442-0.904,1.079-1.019,1.798c-0.057,0.357-0.074,0.733,0.026,1.084
					c0.037,0.129,0.09,0.267,0.179,0.371c0.111,0.128,0.296-0.058,0.186-0.186c-0.014-0.016,0.023,0.035,0.007,0.009
					c-0.009-0.016-0.021-0.031-0.03-0.047c-0.041-0.069-0.052-0.101-0.075-0.172c-0.086-0.264-0.089-0.548-0.062-0.822
					c0.068-0.688,0.331-1.333,0.876-1.774c0.346-0.28,0.772-0.457,1.204-0.552c0.068-0.015,0.136-0.027,0.204-0.038
					c0.009-0.001,0.062-0.009,0.019-0.003c0.01-0.001,0.02-0.003,0.03-0.004c0.017-0.002,0.034-0.004,0.052-0.006
					c0.081-0.009,0.159-0.032,0.239-0.05c0.719-0.16,1.537-0.227,2.233,0.057C15.177,33.122,15.245,32.868,15.09,32.805
					L15.09,32.805z"/>
			</g>
			<g>
				<path style="fill:#5D3310;" d="M12.495,33.15c-0.092,0.478-0.075,1.024,0.122,1.472c0.069,0.157,0.166,0.304,0.291,0.42
					c0.152,0.141,0.331,0.219,0.523,0.291c0.466,0.175,0.948,0.309,1.431,0.429c0.284,0.07,0.57,0.137,0.858,0.192
					c0.165,0.032,0.236-0.221,0.07-0.253c-0.668-0.129-1.333-0.297-1.978-0.511c-0.363-0.121-0.716-0.23-0.911-0.583
					c-0.143-0.259-0.187-0.566-0.191-0.859c-0.002-0.131,0.005-0.262,0.019-0.392c0.002-0.022,0.005-0.044,0.008-0.067
					c-0.005,0.038,0.002-0.013,0.004-0.024c0.002-0.015,0.005-0.03,0.008-0.046C12.779,33.054,12.527,32.984,12.495,33.15
					L12.495,33.15z"/>
			</g>
			<g>
				<path style="fill:#5D3310;" d="M14.452,33.222c0.037,0.014-0.016-0.008,0.006,0.002c0.031,0.014,0.062,0.028,0.093,0.043
					c0.104,0.052,0.205,0.111,0.301,0.176c0.299,0.201,0.558,0.463,0.745,0.771c0.142,0.234,0.236,0.488,0.29,0.756
					c0.033,0.165,0.286,0.095,0.253-0.07c-0.161-0.799-0.708-1.474-1.428-1.845c-0.062-0.032-0.125-0.062-0.191-0.087
					C14.364,32.909,14.296,33.162,14.452,33.222L14.452,33.222z"/>
			</g>
			<g>
				<path style="fill:#5D3310;" d="M16.293,36.05c0.03,0.446,0.029,0.895,0.017,1.341c-0.024,0.878-0.103,1.77-0.343,2.618
					c-0.122,0.431-0.287,0.87-0.567,1.225c-0.103,0.131,0.081,0.318,0.186,0.186c0.543-0.691,0.744-1.611,0.861-2.463
					c0.11-0.798,0.145-1.607,0.127-2.412c-0.004-0.165-0.008-0.33-0.019-0.494C16.544,35.883,16.282,35.882,16.293,36.05
					L16.293,36.05z"/>
			</g>
		</g>
	</g>
	<g>
		<path style="fill:#D9EBF9;" d="M95.897,28.079v45.208c0,1.066-0.864,1.93-1.93,1.93h-74.08c-1.066,0-1.93-0.864-1.93-1.93v-44.14
			v-1.068c0-1.066,0.864-1.93,1.93-1.93h74.08C95.033,26.149,95.897,27.012,95.897,28.079z"/>
		<path style="fill:#A1CDF0;" d="M95.897,28.079v0.32H17.957v-0.32c0-0.679,0.35-1.276,0.88-1.62
			c0.302-0.196,0.663-0.311,1.05-0.311h74.08C95.033,26.149,95.897,27.012,95.897,28.079z"/>
		<g>
			<path style="fill:#6CAEE3;" d="M95.766,28.079c0,0.713,0,1.426,0,2.138c0,1.864,0,3.729,0,5.593c0,2.605,0,5.211,0,7.816
				c0,2.936,0,5.871,0,8.806c0,2.855,0,5.709,0,8.564c0,2.363,0,4.726,0,7.09c0,1.461,0,2.922,0,4.383c0,0.264,0.006,0.528,0,0.792
				c-0.024,1.042-0.812,1.805-1.847,1.825c-0.61,0.011-1.222,0-1.832,0c-1.384,0-2.769,0-4.153,0c-2.005,0-4.009,0-6.014,0
				c-2.471,0-4.943,0-7.414,0c-2.785,0-5.57,0-8.355,0c-2.945,0-5.89,0-8.835,0c-2.952,0-5.903,0-8.855,0c-2.805,0-5.61,0-8.415,0
				c-2.505,0-5.01,0-7.515,0c-2.051,0-4.103,0-6.154,0c-1.445,0-2.889,0-4.334,0c-0.684,0-1.369,0.003-2.053,0
				c-1.037-0.005-1.873-0.736-1.903-1.8c-0.006-0.201,0-0.403,0-0.603c0-1.363,0-2.725,0-4.088c0-2.301,0-4.602,0-6.902
				c0-2.828,0-5.656,0-8.484c0-2.932,0-5.865,0-8.797c0-2.663,0-5.326,0-7.989c0-1.939,0-3.878,0-5.818c0-0.835-0.021-1.673,0-2.508
				c0.026-1.038,0.823-1.808,1.856-1.817c0.205-0.002,0.411,0,0.616,0c1.028,0,2.057,0,3.085,0c1.723,0,3.446,0,5.169,0
				c2.264,0,4.529,0,6.793,0c2.652,0,5.304,0,7.956,0c2.887,0,5.773,0,8.66,0c2.968,0,5.935,0,8.903,0c2.895,0,5.791,0,8.686,0
				c2.67,0,5.339,0,8.009,0c2.29,0,4.581,0,6.871,0c1.758,0,3.516,0,5.274,0c1.072,0,2.144,0,3.216,0c0.226,0,0.452-0.001,0.678,0
				C94.897,26.284,95.737,27.012,95.766,28.079c0.005,0.169,0.267,0.169,0.262,0c-0.032-1.171-0.949-2.051-2.114-2.061
				c-0.207-0.002-0.414,0-0.621,0c-1.041,0-2.081,0-3.122,0c-1.746,0-3.492,0-5.238,0c-2.305,0-4.61,0-6.915,0
				c-2.686,0-5.372,0-8.058,0c-2.919,0-5.837,0-8.756,0c-2.993,0-5.987,0-8.98,0c-2.923,0-5.846,0-8.77,0c-2.67,0-5.339,0-8.009,0
				c-2.272,0-4.543,0-6.815,0c-1.722,0-3.444,0-5.166,0c-1,0-2,0-2.999,0c-0.183,0-0.367-0.003-0.55,0
				c-1.156,0.022-2.063,0.905-2.089,2.067c-0.018,0.795,0,1.593,0,2.388c0,1.942,0,3.884,0,5.826c0,2.667,0,5.334,0,8
				c0,2.983,0,5.965,0,8.948c0,2.85,0,5.699,0,8.549c0,2.308,0,4.615,0,6.923c0,1.344,0,2.688,0,4.031
				c0,0.247-0.014,0.501,0.011,0.747c0.112,1.09,1.045,1.842,2.112,1.851c0.642,0.005,1.284,0,1.926,0c1.424,0,2.847,0,4.271,0
				c2.058,0,4.116,0,6.174,0c2.517,0,5.033,0,7.55,0c2.826,0,5.651,0,8.477,0c2.99,0,5.979,0,8.969,0c2.97,0,5.941,0,8.911,0
				c2.806,0,5.612,0,8.418,0c2.494,0,4.988,0,7.482,0c2.003,0,4.005,0,6.008,0c1.365,0,2.731,0,4.096,0c0.571,0,1.143,0.011,1.714,0
				c1.156-0.021,2.059-0.913,2.083-2.072c0.005-0.239,0-0.479,0-0.718c0-1.439,0-2.878,0-4.317c0-2.38,0-4.76,0-7.139
				c0-2.877,0-5.754,0-8.631c0-2.961,0-5.922,0-8.882c0-2.633,0-5.266,0-7.899c0-1.86,0-3.719,0-5.579c0-0.678,0-1.355,0-2.033
				C96.028,27.91,95.766,27.91,95.766,28.079z"/>
		</g>
		<path style="fill:#6CAEE3;" d="M92.645,27.274c0,0.301-0.244,0.545-0.545,0.545c-0.301,0-0.545-0.244-0.545-0.545
			c0-0.301,0.244-0.545,0.545-0.545C92.401,26.729,92.645,26.973,92.645,27.274z"/>
		<path style="fill:#6CAEE3;" d="M90.651,27.274c0,0.301-0.244,0.545-0.545,0.545c-0.301,0-0.545-0.244-0.545-0.545
			c0-0.301,0.244-0.545,0.545-0.545C90.407,26.729,90.651,26.973,90.651,27.274z"/>
		<path style="fill:#6CAEE3;" d="M88.657,27.274c0,0.301-0.244,0.545-0.545,0.545c-0.301,0-0.545-0.244-0.545-0.545
			c0-0.301,0.244-0.545,0.545-0.545C88.413,26.729,88.657,26.973,88.657,27.274z"/>
		<g>
			<rect x="19.803" y="30.184" style="fill:#A1CDF0;" width="5.729" height="1.893"/>
			<rect x="74.872" y="30.184" style="fill:#A1CDF0;" width="5.729" height="1.893"/>
			<rect x="81.597" y="30.184" style="fill:#A1CDF0;" width="5.729" height="1.893"/>
			<rect x="88.322" y="30.184" style="fill:#A1CDF0;" width="5.729" height="1.893"/>
		</g>
		<g>
			<path style="fill:#6CAEE3;" d="M19.278,34.19c0.676,0,1.352,0,2.028,0c1.823,0,3.646,0,5.469,0c2.703,0,5.405,0,8.108,0
				c3.297,0,6.595,0,9.892,0c3.599,0,7.198,0,10.797,0c3.658,0,7.315,0,10.973,0c3.387,0,6.774,0,10.161,0c2.873,0,5.745,0,8.618,0
				c2.065,0,4.13,0,6.196,0c0.976,0,1.953,0.014,2.929,0c0.043-0.001,0.085,0,0.128,0c0.169,0,0.169-0.262,0-0.262
				c-0.676,0-1.352,0-2.028,0c-1.823,0-3.646,0-5.469,0c-2.703,0-5.405,0-8.108,0c-3.297,0-6.595,0-9.892,0
				c-3.599,0-7.198,0-10.797,0c-3.658,0-7.315,0-10.973,0c-3.387,0-6.774,0-10.161,0c-2.873,0-5.745,0-8.618,0
				c-2.065,0-4.13,0-6.196,0c-0.976,0-1.953-0.014-2.929,0c-0.043,0.001-0.085,0-0.128,0C19.109,33.928,19.109,34.19,19.278,34.19
				L19.278,34.19z"/>
		</g>
		<g>
			<path style="fill:#6CAEE3;" d="M19.278,47.117c0.676,0,1.352,0,2.028,0c1.823,0,3.646,0,5.469,0c2.703,0,5.405,0,8.108,0
				c3.297,0,6.595,0,9.892,0c3.599,0,7.198,0,10.797,0c3.658,0,7.315,0,10.973,0c3.387,0,6.774,0,10.161,0c2.873,0,5.745,0,8.618,0
				c2.065,0,4.13,0,6.196,0c0.976,0,1.953,0.014,2.929,0c0.043-0.001,0.085,0,0.128,0c0.169,0,0.169-0.262,0-0.262
				c-0.676,0-1.352,0-2.028,0c-1.823,0-3.646,0-5.469,0c-2.703,0-5.405,0-8.108,0c-3.297,0-6.595,0-9.892,0
				c-3.599,0-7.198,0-10.797,0c-3.658,0-7.315,0-10.973,0c-3.387,0-6.774,0-10.161,0c-2.873,0-5.745,0-8.618,0
				c-2.065,0-4.13,0-6.196,0c-0.976,0-1.953-0.014-2.929,0c-0.043,0.001-0.085,0-0.128,0C19.109,46.854,19.109,47.117,19.278,47.117
				L19.278,47.117z"/>
		</g>
		<g>
			<rect x="22.78" y="35.789" style="fill:#FFFFFF;" width="9.898" height="9.343"/>
			<rect x="34.459" y="35.789" style="fill:#FFFFFF;" width="9.898" height="9.343"/>
			<rect x="46.138" y="35.789" style="fill:#FFFFFF;" width="9.898" height="9.343"/>
			<rect x="57.817" y="35.789" style="fill:#FFFFFF;" width="9.898" height="9.343"/>
			<rect x="69.496" y="35.789" style="fill:#FFFFFF;" width="9.898" height="9.343"/>
			<rect x="81.175" y="35.789" style="fill:#FFFFFF;" width="9.898" height="9.343"/>
		</g>
		<g>
			<rect x="60.879" y="51.161" style="fill:#A1CDF0;" width="11.331" height="0.822"/>
			<rect x="73.936" y="51.161" style="fill:#A1CDF0;" width="11.331" height="0.822"/>
			<rect x="86.887" y="51.161" style="fill:#A1CDF0;" width="3.249" height="0.822"/>
			
				<rect x="78.805" y="53.033" transform="matrix(-1 -1.224647e-16 1.224647e-16 -1 168.9404 106.8874)" style="fill:#A1CDF0;" width="11.331" height="0.822"/>
			
				<rect x="65.748" y="53.033" transform="matrix(-1 -1.224647e-16 1.224647e-16 -1 142.8269 106.8874)" style="fill:#A1CDF0;" width="11.332" height="0.822"/>
			
				<rect x="60.879" y="53.033" transform="matrix(-1 -1.224647e-16 1.224647e-16 -1 125.0072 106.8874)" style="fill:#A1CDF0;" width="3.249" height="0.822"/>
			<rect x="60.879" y="54.765" style="fill:#A1CDF0;" width="11.331" height="0.822"/>
			<rect x="73.936" y="54.765" style="fill:#A1CDF0;" width="11.331" height="0.822"/>
			<rect x="86.887" y="54.765" style="fill:#A1CDF0;" width="3.249" height="0.822"/>
			
				<rect x="78.805" y="56.498" transform="matrix(-1 -1.224647e-16 1.224647e-16 -1 168.9404 113.818)" style="fill:#A1CDF0;" width="11.331" height="0.822"/>
			
				<rect x="65.748" y="56.498" transform="matrix(-1 -1.224647e-16 1.224647e-16 -1 142.8269 113.818)" style="fill:#A1CDF0;" width="11.332" height="0.822"/>
			
				<rect x="60.879" y="56.498" transform="matrix(-1 -1.224647e-16 1.224647e-16 -1 125.0072 113.818)" style="fill:#A1CDF0;" width="3.249" height="0.822"/>
			<rect x="60.879" y="59.769" style="fill:#A1CDF0;" width="11.331" height="0.822"/>
			<rect x="73.936" y="59.769" style="fill:#A1CDF0;" width="11.331" height="0.822"/>
			<rect x="86.887" y="59.769" style="fill:#A1CDF0;" width="3.249" height="0.822"/>
			
				<rect x="78.805" y="61.502" transform="matrix(-1 -1.224647e-16 1.224647e-16 -1 168.9404 123.8254)" style="fill:#A1CDF0;" width="11.331" height="0.822"/>
			
				<rect x="65.748" y="61.502" transform="matrix(-1 -1.224647e-16 1.224647e-16 -1 142.8269 123.8254)" style="fill:#A1CDF0;" width="11.332" height="0.822"/>
			
				<rect x="60.879" y="61.502" transform="matrix(-1 -1.224647e-16 1.224647e-16 -1 125.0072 123.8254)" style="fill:#A1CDF0;" width="3.249" height="0.822"/>
			
				<rect x="78.805" y="63.186" transform="matrix(-1 -1.224647e-16 1.224647e-16 -1 168.9404 127.1944)" style="fill:#A1CDF0;" width="11.331" height="0.822"/>
			
				<rect x="65.748" y="63.186" transform="matrix(-1 -1.224647e-16 1.224647e-16 -1 142.8269 127.1944)" style="fill:#A1CDF0;" width="11.332" height="0.822"/>
			
				<rect x="60.879" y="63.186" transform="matrix(-1 -1.224647e-16 1.224647e-16 -1 125.0072 127.1944)" style="fill:#A1CDF0;" width="3.249" height="0.822"/>
		</g>
		<g>
			<rect x="21.924" y="68.389" style="fill:#A1CDF0;" width="14.339" height="0.822"/>
			<rect x="38.446" y="68.389" style="fill:#A1CDF0;" width="14.339" height="0.822"/>
			<rect x="54.834" y="68.389" style="fill:#A1CDF0;" width="4.112" height="0.822"/>
			
				<rect x="44.607" y="70.122" transform="matrix(-1 -1.224647e-16 1.224647e-16 -1 103.5526 141.066)" style="fill:#A1CDF0;" width="14.339" height="0.822"/>
			
				<rect x="28.085" y="70.122" transform="matrix(-1 -1.224647e-16 1.224647e-16 -1 70.5088 141.066)" style="fill:#A1CDF0;" width="14.339" height="0.822"/>
			
				<rect x="21.924" y="70.122" transform="matrix(-1 -1.224647e-16 1.224647e-16 -1 47.0975 141.066)" style="fill:#A1CDF0;" width="3.249" height="0.822"/>
			<rect x="54.908" y="68.389" style="fill:#A1CDF0;" width="14.339" height="0.822"/>
			<rect x="71.43" y="68.389" style="fill:#A1CDF0;" width="14.339" height="0.822"/>
			<rect x="87.818" y="68.389" style="fill:#A1CDF0;" width="4.112" height="0.822"/>
			
				<rect x="77.591" y="70.122" transform="matrix(-1 -1.224647e-16 1.224647e-16 -1 169.5203 141.066)" style="fill:#A1CDF0;" width="14.339" height="0.822"/>
			
				<rect x="61.069" y="70.122" transform="matrix(-1 -1.224647e-16 1.224647e-16 -1 136.4765 141.066)" style="fill:#A1CDF0;" width="14.339" height="0.822"/>
			
				<rect x="54.908" y="70.122" transform="matrix(-1 -1.224647e-16 1.224647e-16 -1 113.9276 141.066)" style="fill:#A1CDF0;" width="4.112" height="0.822"/>
		</g>
		<rect x="22.326" y="48.701" style="fill:#FFFFFF;" width="36.505" height="17.767"/>
		<g>
			<rect x="24.849" y="51.422" style="fill:#B4D7F3;" width="12.325" height="12.325"/>
			<rect x="39.188" y="52.257" style="fill:#B4D7F3;" width="4.868" height="2.342"/>
			<rect x="39.188" y="56.09" style="fill:#B4D7F3;" width="14.104" height="2.342"/>
			<rect x="45.299" y="52.257" style="fill:#B4D7F3;" width="4.868" height="2.342"/>
			<rect x="51.439" y="52.257" style="fill:#B4D7F3;" width="4.868" height="2.342"/>
			<rect x="39.188" y="59.924" style="fill:#B4D7F3;" width="4.868" height="2.342"/>
			<rect x="45.299" y="59.924" style="fill:#B4D7F3;" width="4.868" height="2.342"/>
			<rect x="51.287" y="59.772" style="fill:#B4D7F3;" width="4.868" height="2.342"/>
			<rect x="54.134" y="56.09" style="fill:#B4D7F3;" width="2.173" height="2.342"/>
		</g>
	</g>
	<g>
		<path style="fill:#F7A98F;" d="M18.128,45.844c0,0-0.177-0.216-0.231-0.189c-0.054,0.027-1.214,2.884-1.25,3.08
			c-0.036,0.196,0.732,1.375,1.018,1.366c0.286-0.009,1.539-2.33,1.592-2.768c0.054-0.438-0.143-0.405-0.217-0.295
			c-0.058,0.086-0.598,0.991-0.598,0.991s0.411-1.482,0.339-1.777c-0.071-0.295-0.321-0.179-0.357-0.098
			c-0.036,0.08,0.074-0.232-0.018-0.303C18.201,45.691,18.128,45.844,18.128,45.844z"/>
		<path style="fill:#2ACC98;" d="M16.591,48.31c0.206,0.084,1.214,1.726,1.214,1.893c0,0.167-0.429,0.298-0.429,0.298
			s-3.916,2.821-4.405,3.071s-1.833,0.238-1.988-0.75c-0.155-0.988,0.69-1.905,1.631-2.012c0.94-0.107,3.893-2.059,3.893-2.059
			S16.329,48.203,16.591,48.31z"/>
		<g>
			<path style="fill:#7C4415;" d="M18.203,47.619c0.136-0.441,0.272-0.881,0.409-1.322c0.02-0.064,0.039-0.127,0.059-0.191
				c-0.042,0.032-0.084,0.064-0.127,0.096c0.032,0.001-0.022-0.006-0.006-0.001c0.017,0.005,0.035,0.008,0.053,0.015
				c-0.037-0.014,0.046,0.031,0.027,0.016c0.027,0.022,0.038,0.034,0.052,0.06c0.089,0.165,0.036,0.396,0.004,0.572
				c-0.058,0.317-0.142,0.63-0.24,0.937c-0.052,0.161,0.201,0.23,0.253,0.07c0.08-0.251,0.149-0.507,0.205-0.765
				c0.068-0.313,0.197-0.798-0.079-1.05c-0.072-0.066-0.17-0.112-0.269-0.115c-0.059-0.001-0.11,0.042-0.126,0.096
				c-0.136,0.441-0.273,0.881-0.409,1.322c-0.02,0.064-0.039,0.127-0.059,0.191C17.9,47.711,18.153,47.78,18.203,47.619
				L18.203,47.619z"/>
		</g>
		<g>
			<path style="fill:#7C4415;" d="M17.819,47.208c0.127-0.387,0.254-0.775,0.381-1.162c0.018-0.056,0.037-0.111,0.055-0.167
				c-0.02,0.026-0.04,0.052-0.06,0.078c0.014-0.01,0.031-0.015,0.044-0.025c0.015-0.011-0.034,0.011-0.003,0.001
				c0.009-0.003,0.017-0.006,0.026-0.008c0.009-0.003,0.019-0.004,0.028-0.006c-0.037,0.011-0.011,0.002,0.003,0.001
				c0.017-0.001,0.036,0.011,0.004-0.001c0.01,0.004,0.021,0.005,0.031,0.009c-0.037-0.013,0,0,0.006,0.007
				c-0.024-0.028,0.004,0.007,0.009,0.013c-0.02-0.023,0.008,0.015,0.011,0.021c0.006,0.014,0.007,0.015,0.004,0.005
				c0.004,0.009,0.007,0.018,0.01,0.028c0.014,0.042,0.022,0.085,0.027,0.128c0.007,0.07,0.055,0.131,0.131,0.131
				c0.065,0,0.139-0.06,0.131-0.131c-0.023-0.218-0.118-0.492-0.387-0.47c-0.112,0.009-0.236,0.056-0.274,0.168
				c-0.11,0.319-0.211,0.642-0.316,0.962c-0.038,0.116-0.076,0.232-0.114,0.348C17.513,47.299,17.766,47.368,17.819,47.208
				L17.819,47.208z"/>
		</g>
		<g>
			<path style="fill:#1D7D5F;" d="M17.919,49.941c-0.179-0.277-0.361-0.552-0.545-0.826c-0.122-0.182-0.244-0.363-0.373-0.541
				c-0.085-0.117-0.193-0.312-0.367-0.268c-0.196,0.05-0.3,0.314-0.365,0.484c0.031-0.03,0.061-0.061,0.092-0.092
				c-0.446,0.119-0.889,0.318-1.278,0.565c-0.36,0.228-0.735,0.421-1.12,0.604c-0.402,0.191-0.808,0.372-1.217,0.549
				c-0.106,0.046-0.212,0.091-0.318,0.136c0.041-0.017-0.021,0.007-0.037,0.016c-0.027,0.014-0.053,0.034-0.078,0.052
				c-0.41,0.303-0.628,0.781-0.64,1.286c-0.004,0.169,0.258,0.169,0.262,0c0.008-0.354,0.132-0.692,0.383-0.946
				c0.07-0.071,0.116-0.104,0.181-0.151c0.025-0.018,0.03-0.022-0.005-0.003c0.021-0.011,0.046-0.019,0.068-0.028
				c0.507-0.214,1.011-0.437,1.508-0.672c0.297-0.14,0.593-0.284,0.877-0.448c0.152-0.088,0.295-0.19,0.448-0.276
				c0.206-0.116,0.42-0.215,0.641-0.299c0.119-0.045,0.24-0.084,0.362-0.122c0.044-0.014,0.082-0.027,0.109-0.069
				c0.033-0.052,0.018-0.046,0.043-0.101c0.028-0.059,0.057-0.119,0.095-0.172c0.013-0.017,0.045-0.041,0.051-0.058
				c-0.003,0.009,0.01-0.01,0.011-0.006c0.001,0.004-0.059,0.014-0.057-0.003c-0.001,0.009,0.051,0.06,0.057,0.068
				c0.008,0.011,0.055,0.074,0.079,0.107c0.315,0.439,0.61,0.894,0.903,1.347C17.784,50.214,18.011,50.083,17.919,49.941
				L17.919,49.941z"/>
		</g>
		<g>
			<path style="fill:#1D7D5F;" d="M10.442,52.995c0.248,0.324,0.505,0.655,0.804,0.934c0.121,0.113,0.234,0.198,0.404,0.197
				c0.198-0.001,0.4-0.042,0.592-0.086c1.621-0.372,2.973-1.429,4.21-2.489c0.367-0.314,0.73-0.636,1.074-0.976
				c0.12-0.119-0.065-0.304-0.185-0.186c-0.845,0.835-1.776,1.607-2.75,2.285c-0.644,0.448-1.355,0.811-2.11,1.032
				c-0.218,0.064-0.455,0.123-0.673,0.147c-0.066,0.007-0.13,0.01-0.196,0.011c-0.01,0-0.021-0.001-0.031-0.002
				c0.048,0.005,0.01,0.004,0.002-0.001c-0.01-0.006,0.012,0.009-0.014-0.007c-0.019-0.011-0.037-0.023-0.054-0.037
				c-0.189-0.145-0.366-0.366-0.525-0.556c-0.08-0.096-0.159-0.193-0.236-0.291c-0.024-0.03-0.047-0.06-0.071-0.09
				c-0.028-0.035,0.007,0.01-0.013-0.017C10.568,52.731,10.34,52.861,10.442,52.995L10.442,52.995z"/>
		</g>
	</g>
	<g>
		<path style="fill:#F7A98F;" d="M172.015,75.751c0,0-2.39,3.831-2.394,3.907c-0.004,0.076,1.347,1.503,1.347,1.503l4.478-5.493
			L172.015,75.751z"/>
		<path style="fill:#A1CDF0;" d="M172.079,85.702l-4.801-5.338c0,0,0.316-0.161,0.73-0.362c0.767-0.372,1.87-0.882,1.93-0.765
			c0.31,0.605,1.187,1.167,1.227,1.191c0.041,0.023,0.624-0.22,0.502,0.232c-0.122,0.451,0.663,2.889,1.025,3.768
			c0.129,0.314,0.087,0.566-0.019,0.76C172.481,85.539,172.079,85.702,172.079,85.702z"/>
		<g>
			<path style="fill:#C7E1F6;" d="M172.079,85.702l-4.801-5.338c0,0,0.316-0.161,0.73-0.362l4.665,5.186
				C172.481,85.539,172.079,85.702,172.079,85.702z"/>
			<g>
				<path style="fill:#A1CDF0;" d="M172.171,85.609c-0.544-0.604-1.088-1.209-1.631-1.814c-0.86-0.956-1.72-1.912-2.579-2.868
					c-0.197-0.219-0.393-0.437-0.59-0.656c-0.009,0.069-0.018,0.137-0.026,0.206c0.242-0.123,0.486-0.243,0.73-0.362
					c-0.053-0.007-0.106-0.014-0.159-0.021c0.526,0.585,1.052,1.17,1.578,1.754c0.838,0.931,1.675,1.863,2.513,2.794
					c0.191,0.213,0.383,0.426,0.574,0.638c-0.007-0.053-0.014-0.106-0.021-0.159c-0.081,0.142-0.196,0.258-0.332,0.348
					c-0.045,0.03-0.091,0.058-0.139,0.082c-0.018,0.009-0.099,0.045-0.045,0.023c-0.154,0.063-0.087,0.317,0.07,0.253
					c0.275-0.113,0.525-0.315,0.673-0.574c0.03-0.053,0.019-0.115-0.021-0.159c-0.526-0.585-1.052-1.169-1.578-1.754
					c-0.838-0.931-1.675-1.862-2.513-2.794c-0.191-0.213-0.383-0.426-0.574-0.638c-0.041-0.046-0.108-0.045-0.159-0.021
					c-0.244,0.119-0.488,0.239-0.73,0.363c-0.079,0.04-0.08,0.147-0.027,0.206c0.544,0.605,1.088,1.209,1.631,1.814
					c0.86,0.956,1.72,1.912,2.579,2.868c0.197,0.219,0.393,0.438,0.59,0.656C172.099,85.92,172.284,85.734,172.171,85.609z"/>
			</g>
		</g>
		<path style="fill:#F7A98F;" d="M176.561,79.241c0,0,1.25,4.339,1.303,4.393c0.054,0.054,2.018,0.003,2.018,0.003l-1.089-7.003
			L176.561,79.241z"/>
		<path style="fill:#A1CDF0;" d="M184.002,85.848h-7.179c0,0,0.092-0.343,0.219-0.785c0.236-0.819,0.594-1.98,0.722-1.946
			c0.657,0.174,1.662-0.102,1.706-0.116c0.045-0.015,0.254-0.61,0.508-0.218c0.254,0.392,2.591,1.439,3.487,1.758
			c0.32,0.114,0.479,0.313,0.552,0.522C184.15,85.44,184.002,85.848,184.002,85.848z"/>
		<path style="fill:#6E2B0D;" d="M167.847,54.242c-0.107,1.607,4.714,14.571,4.714,14.571s0,2.214,0.214,2.607
			c0.214,0.393-2.988,6.143-2.988,6.143s0.143,2.036,2.238,2.584l2.786-3.334l1.536,5.836c0,0,3.178-0.264,3.786-0.514
			l-1.911-10.428c0,0,2.018-2,2.411-4.785c0.393-2.786-2.321-14.821-3-15.321C176.954,51.1,167.847,54.242,167.847,54.242z"/>
		<path style="fill:#D92C09;" d="M171.811,36.886c-1.482,0.071-4.482,1.875-5.053,2.661c-0.571,0.786-0.089,4.786,0.214,5.589
			c0.303,0.803,0.696,2.839,0.696,2.839s-0.179,3.339,0,3.66c0.178,0.321-0.322,0.875-0.411,1.375c-0.089,0.5,0.696,2.5,0.696,2.5
			s10.258-1.916,10.366-2.381c0.107-0.464-0.025-1.148-0.098-1.512c-0.025-0.126-0.464-0.196-0.482-0.268
			c-0.018-0.071,0.357,0.268,0.125-1.214c0,0,0.393-0.018,0.83-0.125c0.438-0.107,1.688-2.542,1.688-3.208s-1.511-7.256-2.493-8.247
			c-0.983-0.991-3.364-1.729-4.452-1.777C172.465,36.736,171.811,36.886,171.811,36.886z"/>
		<path style="fill:#F7D5CE;" d="M175.717,37.319c0,0-1.537-0.993-1.751-0.981c-0.214,0.013-2.583-0.19-2.931,0
			c-0.348,0.19-1.223,1.083-1.223,1.083l1.667,2.214c0,0,0.631-1.321,0.726-1.381c0.095-0.06,1.221,0.417,1.233,0.452
			c0,0,0.236-0.175,0.672-0.821c0,0,0.53,0.619,0.801,1.286C174.91,39.172,175.564,37.823,175.717,37.319z"/>
		<path style="fill:#F7A98F;" d="M171.178,33.618c0,0-0.026,3.13-0.128,3.351c-0.102,0.222,2.137,1.613,2.342,1.506
			c0.205-0.107,0.634-0.911,0.553-0.991c-0.08-0.08,0.098-1.482,0.098-1.482L171.178,33.618z"/>
		<path style="fill:#492F09;" d="M169.502,29.946c-0.428,0.536,0.167,2.155,0.595,2.786c0.429,0.631,0.907,1.215,0.907,1.215
			s-0.018,1.476,0.042,1.69c0.059,0.214,1.099,1.059,2.325,0.881c1.226-0.179,1.619-0.488,1.637-1.354
			c0.017-0.802-0.244-4.848-0.315-4.931s0.321-0.667-0.31-1.357c-0.631-0.69-1.774-0.678-2.321-0.512
			c-0.548,0.167-2.345,0.964-2.452,1.131C169.502,29.66,169.502,29.946,169.502,29.946z"/>
		<path style="fill:#F7A98F;" d="M170.54,32.524c0,0-1.01-0.432-0.995,0.084c0.015,0.516,0.616,1.443,0.9,1.517
			c0.284,0.074,0.611-0.2,0.6-0.232C171.035,33.862,170.54,32.524,170.54,32.524z"/>
		<path style="fill:#F7A98F;" d="M171.43,30.327c0.716,0.291,2.678-0.024,2.702-0.369c0.024-0.345,0.512,0.497,0.512,0.497
			s0.173,1.95,0.155,2.979c-0.013,0.723-0.298,1.107-0.405,1c-0.107-0.107-0.167-0.631-0.351-0.655
			c-0.184-0.024-1.401,0.071-1.549,0.214c-0.148,0.143-0.35,0.583-0.457,0.607c-0.107,0.024-0.417-0.548-0.417-0.583
			c0-0.036-0.675-1.655-0.675-2.036C170.946,31.6,171.362,30.299,171.43,30.327z"/>
		<g>
			<path style="fill:#C7E1F6;" d="M184.002,85.848h-7.179c0,0,0.092-0.343,0.219-0.785h6.976
				C184.15,85.44,184.002,85.848,184.002,85.848z"/>
			<g>
				<path style="fill:#A1CDF0;" d="M184.002,85.717c-0.813,0-1.626,0-2.439,0c-1.286,0-2.572,0-3.857,0c-0.294,0-0.588,0-0.883,0
					c0.042,0.055,0.084,0.111,0.126,0.166c0.07-0.263,0.144-0.524,0.219-0.785c-0.042,0.032-0.084,0.064-0.126,0.096
					c0.786,0,1.573,0,2.359,0c1.253,0,2.505,0,3.758,0c0.286,0,0.573,0,0.859,0c-0.042-0.032-0.084-0.064-0.126-0.096
					c0.075,0.229,0.065,0.488-0.015,0.716c-0.057,0.159,0.197,0.228,0.253,0.07c0.095-0.268,0.104-0.586,0.015-0.855
					c-0.018-0.055-0.067-0.096-0.126-0.096c-0.786,0-1.573,0-2.359,0c-1.252,0-2.505,0-3.758,0c-0.286,0-0.572,0-0.859,0
					c-0.058,0-0.111,0.041-0.126,0.096c-0.075,0.261-0.149,0.523-0.219,0.785c-0.022,0.082,0.041,0.166,0.126,0.166
					c0.813,0,1.626,0,2.439,0c1.286,0,2.571,0,3.857,0c0.294,0,0.588,0,0.883,0C184.171,85.979,184.171,85.717,184.002,85.717z"/>
			</g>
		</g>
		<path style="fill:#001C31;" d="M172.552,32.236c0,0.205-0.166,0.372-0.372,0.372c-0.205,0-0.372-0.167-0.372-0.372
			c0-0.205,0.167-0.372,0.372-0.372C172.386,31.864,172.552,32.03,172.552,32.236z"/>
		<path style="fill:#001C31;" d="M174.282,31.97c0,0.205-0.167,0.372-0.372,0.372c-0.205,0-0.372-0.167-0.372-0.372
			c0-0.205,0.167-0.372,0.372-0.372C174.115,31.598,174.282,31.765,174.282,31.97z"/>
		<path style="fill:#FFFFFF;" d="M172.545,34.19c0,0,0.749-0.142,1.484-0.143c0,0-0.2,0.58-0.789,0.634
			C172.651,34.734,172.545,34.19,172.545,34.19z"/>
		<path style="fill:#F7A98F;" d="M175.717,46.016c0,0,0.26-0.852,0.488-0.893c0.229-0.042,0.364,0.021,0.364,0.021
			s0.426-0.332,0.623-0.353c0.197-0.021,1.174,0.966,1.309,1.454c0.135,0.488-1.101,1.247-1.101,1.247s-0.457-1.278-1.631-1.454
			L175.717,46.016z"/>
		<g>
			<path style="fill:#A32107;" d="M167.542,47.778c0.163,0.552,0.378,1.095,0.622,1.616c0.191,0.407,0.408,0.806,0.681,1.163
				c0.256,0.335,0.565,0.576,0.96,0.727c0.887,0.339,1.936,0.215,2.821-0.063c0.849-0.266,1.615-0.744,2.351-1.234
				c0.705-0.469,1.4-0.969,2.038-1.528c0.18-0.158,0.378-0.323,0.51-0.526c0.103-0.157,0.066-0.358,0.013-0.527
				c-0.219-0.71-0.854-1.226-1.529-1.48c-0.114-0.043-0.23-0.079-0.348-0.108c-0.059-0.015-0.118-0.035-0.179-0.022
				c-0.039,0.009-0.079,0.026-0.117,0.039c-0.194,0.066-0.387,0.133-0.58,0.202c-0.637,0.227-1.27,0.466-1.891,0.731
				c-0.3,0.128-0.598,0.262-0.886,0.413c-0.214,0.112-0.432,0.233-0.613,0.394c-0.058,0.052-0.116,0.112-0.15,0.183
				c-0.073,0.151,0.153,0.285,0.227,0.132c0.007-0.014,0.015-0.027,0.023-0.041c0.019-0.03-0.013,0.013,0.012-0.016
				c0.027-0.03,0.056-0.059,0.087-0.085c0.062-0.053,0.153-0.115,0.241-0.169c0.238-0.147,0.491-0.27,0.745-0.387
				c0.595-0.275,1.208-0.512,1.823-0.739c0.25-0.092,0.502-0.182,0.754-0.27c0.126-0.044,0.259-0.08,0.383-0.131
				c0.006-0.003,0.014-0.006,0.02-0.007c-0.066,0.012-0.027,0.003-0.001,0.016c0.028,0.014,0.069,0.017,0.1,0.026
				c0.064,0.018,0.128,0.037,0.19,0.058c0.206,0.07,0.403,0.164,0.585,0.282c0.283,0.182,0.529,0.425,0.7,0.715
				c0.111,0.188,0.192,0.399,0.192,0.59c0,0.028-0.001,0.024-0.001,0.015c0,0.011-0.019,0.044,0.001,0.004
				c-0.016,0.032-0.036,0.062-0.058,0.09c0.017-0.022-0.018,0.021-0.023,0.028c-0.014,0.017-0.029,0.033-0.044,0.05
				c-0.042,0.046-0.086,0.09-0.131,0.134c-0.527,0.511-1.133,0.949-1.732,1.37c-0.679,0.477-1.385,0.955-2.142,1.301
				c-0.83,0.38-1.812,0.592-2.724,0.459c-0.388-0.057-0.784-0.182-1.092-0.433c-0.316-0.257-0.539-0.634-0.734-0.986
				c-0.339-0.612-0.602-1.269-0.814-1.935c-0.013-0.041-0.026-0.081-0.038-0.122C167.748,47.546,167.494,47.615,167.542,47.778
				L167.542,47.778z"/>
		</g>
		<g>
			<path style="fill:#A32107;" d="M169.971,42.099c0.162,0.544,0.317,1.09,0.47,1.637c0.268,0.963,0.533,1.93,0.744,2.907
				c0.076,0.35,0.167,0.694,0.16,1.038c-0.003,0.169,0.259,0.169,0.262,0c0.006-0.306-0.069-0.621-0.13-0.919
				c-0.095-0.466-0.209-0.928-0.326-1.388c-0.235-0.921-0.49-1.836-0.754-2.749c-0.057-0.199-0.115-0.397-0.174-0.595
				C170.176,41.868,169.922,41.937,169.971,42.099L169.971,42.099z"/>
		</g>
		<g>
			<path style="fill:#A32107;" d="M170.822,49.286c0.487-0.153,0.888-0.579,1.052-1.053c0.089-0.256,0.11-0.533,0.089-0.801
				c-0.013-0.167-0.276-0.169-0.262,0c0.031,0.396-0.041,0.794-0.286,1.115c-0.149,0.195-0.328,0.333-0.55,0.44
				c-0.019,0.009-0.039,0.018-0.059,0.027c-0.018,0.008,0.031-0.012,0.003-0.001c-0.006,0.002-0.013,0.005-0.019,0.007
				c-0.013,0.005-0.025,0.01-0.038,0.014C170.591,49.083,170.66,49.336,170.822,49.286L170.822,49.286z"/>
		</g>
		<g>
			<path style="fill:#A32107;" d="M177.63,41.66c-0.01,0.805-0.042,1.632-0.196,2.423c-0.039,0.201-0.08,0.418-0.187,0.581
				c-0.093,0.142,0.135,0.273,0.227,0.132c0.103-0.157,0.151-0.352,0.19-0.533c0.057-0.257,0.091-0.519,0.12-0.78
				c0.055-0.497,0.084-0.998,0.1-1.498c0.003-0.109,0.007-0.217,0.008-0.326C177.895,41.491,177.632,41.491,177.63,41.66
				L177.63,41.66z"/>
		</g>
		<g>
			<path style="fill:#A32107;" d="M177.552,47.471c0.138-0.147,0.286-0.285,0.437-0.419c0.245-0.217,0.532-0.456,0.829-0.573
				c0.035-0.014,0.071-0.026,0.108-0.035c0.019-0.005,0.038-0.009,0.058-0.012c0.016-0.003-0.001,0-0.004,0
				c0.01-0.001,0.02-0.002,0.03-0.003c0.018-0.001,0.035,0,0.053,0c0.002,0,0.021,0.002,0.005,0
				c-0.018-0.003,0.012,0.002,0.015,0.003c0.049,0.014,0.024,0.002,0.067,0.03c0.141,0.094,0.272-0.133,0.132-0.227
				c-0.281-0.188-0.663,0.027-0.905,0.184c-0.302,0.196-0.577,0.438-0.836,0.689c-0.059,0.058-0.118,0.116-0.175,0.176
				C177.251,47.408,177.436,47.594,177.552,47.471L177.552,47.471z"/>
		</g>
		<g>
			<path style="fill:#A32107;" d="M175.403,49.64c0.783,0.31,1.624,0.538,2.462,0.627c0.168,0.018,0.166-0.245,0-0.262
				c-0.813-0.086-1.632-0.316-2.392-0.617C175.316,49.325,175.248,49.578,175.403,49.64L175.403,49.64z"/>
		</g>
		<g>
			<path style="fill:#A32107;" d="M171.081,53.476c0.513-0.091,1.022-0.215,1.525-0.348c1.018-0.271,2.031-0.604,2.975-1.075
				c0.508-0.254,1.003-0.554,1.418-0.944c0.123-0.116-0.062-0.301-0.186-0.186c-0.744,0.698-1.741,1.12-2.689,1.46
				c-0.844,0.303-1.711,0.542-2.587,0.733c-0.175,0.038-0.35,0.075-0.527,0.107C170.845,53.252,170.916,53.505,171.081,53.476
				L171.081,53.476z"/>
		</g>
		<g>
			<path style="fill:#001C31;" d="M174.132,55.289c0.076,0.399,0.153,0.798,0.23,1.196c0.184,0.957,0.367,1.915,0.551,2.872
				c0.221,1.154,0.443,2.308,0.664,3.461c0.191,0.997,0.383,1.995,0.574,2.992c0.063,0.33,0.127,0.66,0.19,0.989
				c0.029,0.153,0.043,0.32,0.09,0.469c0.002,0.006,0.003,0.014,0.004,0.02c0.073-0.043,0.146-0.085,0.219-0.128
				c-0.133-0.137-0.367-0.248-0.518-0.073c-0.139,0.16-0.16,0.514,0.011,0.663c0.019-0.073,0.039-0.146,0.058-0.219
				c-0.332,0.136-0.645,0.326-0.941,0.527c-0.691,0.469-1.301,1.053-1.787,1.732c-0.35,0.49-0.626,1.027-0.828,1.594
				c-0.057,0.159,0.197,0.228,0.253,0.07c0.536-1.51,1.676-2.775,3.085-3.528c0.075-0.04,0.151-0.079,0.228-0.115
				c0.022-0.01,0.044-0.02,0.066-0.03c0.036-0.017-0.013,0.005-0.006,0.002c0.083-0.034,0.14-0.147,0.058-0.219
				c-0.007-0.006-0.019-0.024-0.004-0.001c-0.01-0.015-0.019-0.029-0.025-0.046c-0.028-0.074-0.014-0.185,0.025-0.252
				c0.013-0.022-0.007-0.015,0.014-0.008c0.019,0.006,0.036,0.017,0.053,0.027c0.027,0.017,0.049,0.036,0.073,0.06
				c0.097,0.1,0.243-0.005,0.219-0.128c-0.077-0.399-0.153-0.798-0.23-1.196c-0.184-0.957-0.367-1.914-0.551-2.872
				c-0.221-1.154-0.443-2.308-0.664-3.461c-0.191-0.997-0.383-1.995-0.574-2.992c-0.063-0.33-0.127-0.66-0.19-0.989
				c-0.03-0.155-0.051-0.315-0.09-0.469c-0.002-0.007-0.003-0.013-0.004-0.02C174.353,55.054,174.1,55.124,174.132,55.289
				L174.132,55.289z"/>
		</g>
		<g>
			<path style="fill:#001C31;" d="M177.984,71.854c-0.201,0.272-0.402,0.545-0.604,0.818c-0.483,0.655-0.966,1.309-1.449,1.964
				c-0.585,0.792-1.169,1.584-1.754,2.376c-0.506,0.685-1.011,1.37-1.516,2.055c-0.167,0.226-0.333,0.452-0.5,0.678
				c-0.077,0.105-0.172,0.209-0.238,0.322c-0.003,0.005-0.007,0.009-0.01,0.014c0.049-0.02,0.099-0.04,0.148-0.06
				c-0.747-0.104-1.477-0.592-1.84-1.26c-0.2-0.368-0.287-0.782-0.302-1.198c-0.006-0.168-0.268-0.169-0.262,0
				c0.026,0.732,0.277,1.441,0.816,1.952c0.346,0.328,0.779,0.561,1.236,0.694c0.092,0.027,0.187,0.052,0.282,0.065
				c0.064,0.009,0.109-0.008,0.148-0.06c0.201-0.272,0.402-0.545,0.603-0.818c0.483-0.655,0.966-1.309,1.449-1.964
				c0.585-0.792,1.169-1.584,1.754-2.376c0.505-0.685,1.011-1.37,1.516-2.055c0.167-0.226,0.333-0.452,0.5-0.678
				c0.079-0.106,0.167-0.211,0.238-0.322c0.003-0.005,0.007-0.009,0.01-0.014C178.31,71.851,178.083,71.719,177.984,71.854
				L177.984,71.854z"/>
		</g>
		<g>
			<path style="fill:#001C31;" d="M176.43,67.254c-0.004,0.234,0.016,0.47,0.046,0.701c0.058,0.459,0.162,0.922,0.381,1.333
				c0.126,0.237,0.295,0.446,0.513,0.603c0.137,0.099,0.268-0.129,0.132-0.227c-0.349-0.252-0.53-0.683-0.64-1.085
				c-0.098-0.357-0.148-0.726-0.165-1.095c-0.004-0.077-0.006-0.154-0.005-0.23C176.695,67.085,176.433,67.085,176.43,67.254
				L176.43,67.254z"/>
		</g>
		<g>
			<path style="fill:#7C4415;" d="M172.936,33.547c0.096,0,0.192-0.004,0.288-0.011c0.158-0.011,0.33-0.022,0.48-0.08
				c0.08-0.031,0.172-0.082,0.189-0.175c0.013-0.067-0.019-0.145-0.092-0.161c-0.065-0.015-0.148,0.02-0.161,0.092
				c-0.005,0.029,0.019-0.031,0.002-0.005c0.002-0.003,0.022-0.031,0.011-0.015c-0.013,0.018-0.004-0.002,0.01-0.007
				c-0.009,0.003-0.021,0.013-0.03,0.018c-0.001,0.001-0.015,0.006-0.015,0.007c0-0.001,0.034-0.013,0.015-0.007
				c-0.004,0.001-0.008,0.003-0.011,0.004c-0.064,0.023-0.131,0.036-0.198,0.046c-0.009,0.001-0.019,0.003-0.028,0.004
				c-0.015,0.002,0.016-0.002,0.014-0.002c-0.005,0.001-0.012,0.001-0.016,0.002c-0.019,0.002-0.038,0.005-0.058,0.007
				c-0.038,0.004-0.076,0.007-0.113,0.01c-0.064,0.005-0.128,0.008-0.192,0.009c-0.032,0.001-0.064,0.002-0.096,0.002
				c-0.069,0-0.134,0.06-0.131,0.131C172.808,33.487,172.863,33.547,172.936,33.547L172.936,33.547z"/>
		</g>
		<g>
			<path style="fill:#001C31;" d="M171.8,32.302c0.005-0.009,0.01-0.018,0.015-0.027c0.006-0.01,0.012-0.019,0.018-0.028
				c0.008-0.012,0.037-0.045,0.012-0.018c0.027-0.029,0.052-0.06,0.081-0.087c0.009-0.008,0.018-0.015,0.027-0.023
				c0.018-0.016-0.014,0.009,0.007-0.006c0.022-0.015,0.043-0.03,0.066-0.043c0.012-0.007,0.025-0.013,0.037-0.019
				c0.005-0.003,0.011-0.005,0.017-0.008c-0.002,0.001-0.017,0.007-0.003,0.001c0.029-0.011,0.058-0.02,0.088-0.028
				c0.038-0.009,0.039-0.01,0.071-0.012c0.039-0.003,0.077-0.003,0.116-0.001c0.065,0.003,0.092,0.005,0.157,0.026
				c0.012,0.004,0.035,0.014,0.011,0.003c0.008,0.004,0.016,0.007,0.024,0.012c0.008,0.004,0.016,0.01,0.024,0.014
				c0.024,0.014-0.013-0.014-0.001-0.001c0.005,0.006,0.012,0.012,0.018,0.017c0.002,0.002,0.004,0.004,0.006,0.006
				c0.016,0.014-0.017-0.004-0.009-0.012c0.001-0.001,0.015,0.027,0.016,0.028c-0.012-0.012-0.007-0.034-0.005-0.008
				c0.002,0.023-0.003-0.025-0.003-0.025c0.007,0.07,0.055,0.131,0.131,0.131c0.065,0,0.138-0.06,0.131-0.131
				c-0.019-0.181-0.197-0.279-0.361-0.306c-0.294-0.049-0.594,0.025-0.799,0.251c-0.044,0.049-0.088,0.103-0.118,0.163
				c-0.031,0.063-0.017,0.142,0.047,0.179C171.679,32.382,171.769,32.366,171.8,32.302L171.8,32.302z"/>
		</g>
		<g>
			<path style="fill:#001C31;" d="M171.548,31.677c0.025-0.018,0.052-0.034,0.079-0.049c0.031-0.017,0.063-0.033,0.095-0.048
				c0.01-0.004,0.019-0.009,0.029-0.013c-0.027,0.012,0.005-0.002,0.01-0.004c0.025-0.01,0.05-0.019,0.075-0.028
				c0.254-0.087,0.518-0.105,0.784-0.052c0.069,0.014,0.142-0.02,0.161-0.092c0.018-0.065-0.022-0.148-0.092-0.161
				c-0.303-0.06-0.617-0.049-0.911,0.048c-0.125,0.041-0.256,0.094-0.364,0.172c-0.057,0.042-0.085,0.114-0.047,0.179
				C171.401,31.687,171.49,31.719,171.548,31.677L171.548,31.677z"/>
		</g>
		<g>
			<path style="fill:#001C31;" d="M174.667,31.772c-0.1-0.135-0.249-0.243-0.413-0.284c-0.146-0.037-0.299-0.018-0.437,0.038
				c-0.103,0.042-0.204,0.104-0.258,0.204c-0.035,0.063-0.047,0.129-0.037,0.199c0.01,0.07,0.099,0.109,0.161,0.092
				c0.076-0.021,0.102-0.091,0.092-0.161c0.005,0.035,0.007,0.042,0.005,0.013c-0.001-0.019-0.01,0.04,0,0.008
				c0.001-0.004,0.003-0.009,0.004-0.013c0.006-0.024-0.003,0.006-0.004,0.008c0.007-0.009,0.012-0.021,0.018-0.031
				c0.013-0.023-0.017,0.016-0.002,0.002c0.006-0.006,0.012-0.013,0.019-0.019c0.006-0.006,0.013-0.011,0.019-0.017
				c0.01-0.01-0.008,0.007-0.009,0.007c0.004-0.002,0.008-0.006,0.012-0.008c0.022-0.013,0.043-0.026,0.066-0.036
				c0.013-0.006-0.001,0-0.003,0.001c0.006-0.002,0.012-0.005,0.019-0.007c0.015-0.006,0.031-0.011,0.047-0.015
				c0.015-0.004,0.03-0.008,0.045-0.012c0.007-0.002,0.014-0.003,0.02-0.004c0.002,0,0.028-0.005,0.016-0.003
				c-0.007,0.001,0.026-0.002,0.034-0.002c0.012,0,0.025,0,0.037,0c0.012,0,0.024,0.001,0.036,0.003
				c-0.026-0.003,0.013,0.003,0.022,0.005c0.021,0.005,0.043,0.011,0.063,0.019c0.005,0.002,0.01,0.004,0.015,0.006
				c0.018,0.006-0.019-0.01-0.003-0.001c0.01,0.006,0.021,0.01,0.032,0.016c0.017,0.009,0.034,0.019,0.05,0.03
				c0.009,0.006,0.017,0.012,0.026,0.018c0.024,0.017-0.012-0.011,0.004,0.003c0.025,0.023,0.051,0.044,0.073,0.069
				c0.006,0.007,0.012,0.015,0.019,0.022c0.017,0.019-0.019-0.025-0.012-0.015c0.042,0.057,0.114,0.086,0.179,0.047
				C174.676,31.918,174.709,31.829,174.667,31.772L174.667,31.772z"/>
		</g>
		<g>
			<path style="fill:#001C31;" d="M174.683,31.086c-0.363-0.176-0.814-0.125-1.163,0.055c-0.063,0.033-0.081,0.121-0.047,0.18
				c0.037,0.064,0.116,0.08,0.18,0.047c0.209-0.108,0.425-0.144,0.656-0.118c0.016,0.002-0.017-0.003,0.007,0.001
				c0.011,0.002,0.023,0.004,0.034,0.006c0.018,0.003,0.035,0.007,0.053,0.011c0.032,0.007,0.063,0.016,0.094,0.026
				c0.021,0.007,0.041,0.015,0.061,0.022c0.004,0.001-0.034-0.016-0.007-0.003c0.064,0.031,0.142,0.017,0.179-0.047
				C174.763,31.208,174.747,31.117,174.683,31.086L174.683,31.086z"/>
		</g>
		<g>
			<path style="fill:#7C4415;" d="M171.085,30.238c0.14,0.132,0.364,0.187,0.544,0.228c0.257,0.057,0.522,0.08,0.785,0.088
				c0.314,0.009,0.632-0.003,0.938-0.078c0.301-0.073,0.619-0.213,0.813-0.464c0.05-0.065,0.086-0.121,0.046-0.208
				c-0.037-0.08-0.099-0.154-0.155-0.221c-0.33-0.393-0.831-0.578-1.336-0.578c-0.169,0-0.169,0.263,0,0.262
				c0.492,0,1.046,0.225,1.268,0.673c0-0.044,0-0.088,0-0.132c-0.008,0.016-0.02,0.031-0.03,0.046
				c-0.008,0.011,0.018-0.021-0.003,0.003c-0.008,0.009-0.016,0.019-0.025,0.028c-0.021,0.023-0.043,0.044-0.066,0.064
				c-0.142,0.125-0.348,0.212-0.542,0.263c-0.359,0.094-0.738,0.093-1.106,0.069c-0.253-0.016-0.51-0.05-0.751-0.135
				c-0.065-0.023-0.097-0.035-0.164-0.075c-0.014-0.009-0.028-0.018-0.042-0.028c0.01,0.007,0.027,0.023,0.011,0.008
				C171.147,29.937,170.961,30.122,171.085,30.238L171.085,30.238z"/>
		</g>
		<g>
			<path style="fill:#7C4415;" d="M172.445,28.741c0.189-0.016,0.367,0.01,0.544,0.051c0.416,0.097,0.782,0.318,1.06,0.642
				c0.11,0.128,0.295-0.058,0.186-0.185c-0.301-0.351-0.709-0.597-1.159-0.706c-0.202-0.049-0.423-0.083-0.632-0.065
				C172.278,28.493,172.277,28.755,172.445,28.741L172.445,28.741z"/>
		</g>
		<g>
			<path style="fill:#7C4415;" d="M173.029,35.1c0.103,0.008,0.207,0.006,0.31-0.003c0.181-0.015,0.383-0.048,0.521-0.178
				c0.05-0.047,0.051-0.139,0-0.186c-0.054-0.049-0.132-0.05-0.186,0c-0.003,0.003-0.017,0.019-0.021,0.018
				c0.018-0.013,0.021-0.016,0.01-0.008c-0.003,0.002-0.006,0.004-0.009,0.006c-0.016,0.01-0.032,0.019-0.049,0.027
				c-0.012,0.006-0.028,0.004,0.003-0.001c-0.01,0.001-0.02,0.008-0.03,0.011c-0.018,0.006-0.036,0.012-0.055,0.017
				c-0.038,0.01-0.077,0.018-0.116,0.024c-0.038,0.006,0.017-0.001-0.007,0.001c-0.008,0.001-0.017,0.002-0.025,0.003
				c-0.021,0.002-0.041,0.004-0.062,0.006c-0.095,0.007-0.191,0.008-0.285,0.001c-0.069-0.005-0.134,0.064-0.131,0.131
				C172.901,35.044,172.956,35.095,173.029,35.1L173.029,35.1z"/>
		</g>
	</g>
</g>
</svg>
