<svg width="750" height="500" viewBox="0 0 750 500" fill="none" xmlns="http://www.w3.org/2000/svg">
<path d="M668.686 386.011C668.233 400.252 645.553 409.897 610.126 416.265H164.076C137.779 408.918 61.8865 381.24 79.8275 310.376C101.435 225.024 151.371 248.508 198.679 181.807C245.997 115.096 248.378 77 292.676 77C336.985 77 358.594 140.744 433.147 133.18C507.69 125.617 549.835 105.09 602.779 126.699C655.713 148.307 625.469 257.432 625.469 302.813C625.469 348.194 670.015 344.752 668.686 386.011Z" fill="#B5EBF5"/>
<path d="M530.983 410.868H234.695V206.388C234.695 200.952 239.102 196.545 244.538 196.545H521.14C526.576 196.545 530.983 200.952 530.983 206.388V410.868Z" fill="#33738C"/>
<path d="M570.01 398.665V406.404C570.01 414.884 563.137 421.758 554.656 421.758H211.022C202.541 421.758 195.668 414.885 195.668 406.404V398.665H372.05C372.4 404.322 377.099 408.794 382.839 408.794C388.579 408.794 393.277 404.322 393.628 398.665H570.01Z" fill="#295C70"/>
<path d="M512.976 222.821H251.262V216.817C251.262 215.359 252.444 214.178 253.902 214.178H510.336C511.794 214.178 512.976 215.36 512.976 216.818V222.821Z" fill="#F0FCFF"/>
<path d="M260.896 218.499C260.896 219.245 260.291 219.849 259.545 219.849C258.799 219.849 258.195 219.244 258.195 218.499C258.195 217.753 258.8 217.148 259.545 217.148C260.291 217.148 260.896 217.753 260.896 218.499Z" fill="#FF7790"/>
<path d="M268.732 218.499C268.732 219.245 268.127 219.849 267.382 219.849C266.637 219.849 266.031 219.244 266.031 218.499C266.031 217.753 266.636 217.148 267.382 217.148C268.128 217.148 268.732 217.753 268.732 218.499Z" fill="#FDC535"/>
<path d="M276.567 218.499C276.567 219.245 275.962 219.849 275.216 219.849C274.47 219.849 273.865 219.244 273.865 218.499C273.865 217.753 274.47 217.148 275.216 217.148C275.963 217.148 276.567 217.753 276.567 218.499Z" fill="#06C8A2"/>
<path d="M512.736 222.905H251.357V385.266H512.736V222.905Z" fill="white"/>
<path d="M512.975 222.905H251.262V239.283H512.975V222.905Z" fill="#7DB0BB"/>
<path d="M305.1 227.587H259.666V234.437H305.1V227.587Z" fill="#C9EDF2"/>
<path d="M456.727 227.587H449.877V234.437H456.727V227.587Z" fill="#9EC9D1"/>
<path d="M469.651 227.587H462.801V234.437H469.651V227.587Z" fill="#9EC9D1"/>
<path d="M482.575 227.587H475.725V234.437H482.575V227.587Z" fill="#9EC9D1"/>
<path d="M382.599 321.398H263.508V332.103H382.599V321.398Z" fill="#7DB0BB"/>
<path d="M382.599 338.687H263.508V349.392H382.599V338.687Z" fill="#9CC9CE"/>
<path d="M382.599 358.374H263.508V369.079H382.599V358.374Z" fill="#7DB0BB"/>
<path d="M496.286 321.866H396.742V369.079H496.286V321.866Z" fill="#FFF3F2"/>
<path d="M433.98 330.042H404.207V359.815H433.98V330.042Z" fill="#FFC8C2"/>
<path d="M489.685 330.438H440.213V335.969H489.685V330.438Z" fill="#FFC8C2"/>
<path d="M489.685 341.989H440.213V347.52H489.685V341.989Z" fill="#FFC8C2"/>
<path d="M489.685 353.54H440.213V359.071H489.685V353.54Z" fill="#FFC8C2"/>
<path d="M69.3965 416.064H685.263" stroke="#335A74" stroke-width="2" stroke-miterlimit="10" stroke-linecap="round"/>
<path d="M270.428 151.451C269.627 151.196 268.788 151.58 268.548 152.306L260.566 176.432L207.961 175.631L216.391 152.309C216.654 151.58 216.222 150.783 215.426 150.528C214.627 150.272 213.77 150.657 213.506 151.385L141.436 349.728C141.112 350.041 140.901 350.476 140.883 350.958C140.88 351.044 140.889 351.127 140.898 351.21L133.725 370.951C133.204 371.258 132.836 371.819 132.808 372.47C132.797 372.719 132.838 372.956 132.919 373.171L125.797 392.771C125.106 393.017 124.584 393.682 124.548 394.473C124.53 394.853 124.627 395.206 124.806 395.498L116.055 419.58C115.7 420.557 116.152 421.61 117.065 421.933C117.246 421.996 117.432 422.027 117.616 422.027C118.359 422.027 119.076 421.531 119.359 420.747L128.197 396.296L187.788 396.39L180.112 419.591C179.79 420.564 180.272 421.613 181.187 421.935C181.369 421.998 181.554 422.028 181.736 422.028C182.473 422.028 183.169 421.533 183.426 420.753L212.892 331.189C213.032 330.966 213.118 330.708 213.142 330.43L219.505 311.089C219.894 310.788 220.149 310.322 220.148 309.79C220.148 309.634 220.119 309.487 220.079 309.343L226.051 291.192C226.606 290.937 226.991 290.384 226.989 289.734C226.988 289.455 226.909 289.197 226.783 288.967L232.488 271.626C233.18 271.453 233.689 270.843 233.683 270.106C233.68 269.73 233.539 269.388 233.314 269.114L238.807 252.418C239.617 252.351 240.245 251.7 240.236 250.892C240.231 250.433 240.018 250.023 239.69 249.735L245.149 233.142C245.432 232.869 245.605 232.49 245.599 232.068C245.598 231.995 245.585 231.924 245.573 231.853L251.146 214.914C251.601 214.659 251.903 214.19 251.893 213.643C251.889 213.435 251.84 213.237 251.757 213.056L257.053 196.958C257.651 196.765 258.073 196.235 258.059 195.597C258.052 195.292 257.947 195.007 257.772 194.77L262.859 179.308C263.58 179.204 264.117 178.626 264.099 177.916C264.089 177.53 263.916 177.179 263.645 176.918L271.44 153.225C271.679 152.499 271.226 151.705 270.428 151.451ZM259.621 179.285L254.722 194.09L201.558 193.339L206.925 178.492L259.621 179.285ZM248.759 212.113L195.025 211.414L200.503 196.259L253.759 197.001L248.759 212.113ZM242.672 230.512L188.355 229.868L193.948 214.396L247.776 215.086L242.672 230.512ZM230.107 268.486L174.586 267.959L180.419 251.821L235.429 252.398L230.107 268.486ZM223.622 288.086L167.479 287.621L173.439 271.134L229.06 271.651L223.622 288.086ZM216.996 308.112L160.216 307.712L166.305 290.865L222.551 291.32L216.996 308.112ZM210.224 328.58L152.793 328.248L159.018 311.028L215.903 311.417L210.224 328.58ZM203.301 349.503L145.204 349.243L151.567 331.639L209.105 331.959L203.301 349.503ZM196.222 370.897L137.444 370.712L143.951 352.709L202.158 352.957L196.222 370.897ZM181.543 248.712L187.254 232.912L241.667 233.547L236.455 249.299L181.543 248.712ZM129.507 392.669L136.163 374.256L195.054 374.429L188.983 392.777L129.507 392.669Z" fill="#335A74"/>
<path d="M198.33 269.298H179.047C178.178 269.298 177.473 268.593 177.473 267.724V267.421C177.473 266.007 178.307 264.727 179.6 264.155L192.005 258.672L200.64 258.883L201.584 265.553C201.864 267.529 200.328 269.298 198.33 269.298Z" fill="#282828"/>
<path d="M224.672 269.298H243.955C244.824 269.298 245.529 268.593 245.529 267.724V267.421C245.529 266.007 244.695 264.727 243.402 264.155L230.997 258.672L222.362 258.883L221.418 265.553C221.139 267.529 222.674 269.298 224.672 269.298Z" fill="#282828"/>
<path d="M196.815 260.46H195.934C193.764 260.46 192.004 258.701 192.004 256.53V250.245H200.744V256.53C200.745 258.701 198.986 260.46 196.815 260.46Z" fill="#FFB1A5"/>
<path d="M226.185 260.46H227.066C229.236 260.46 230.996 258.701 230.996 256.53V250.245H222.256V256.53C222.255 258.701 224.015 260.46 226.185 260.46Z" fill="#FFB1A5"/>
<path d="M200.84 172.565L189.479 251.404C189.479 251.404 193.48 253.089 196.008 253.089C198.535 253.089 203.379 252.247 203.379 252.247L210.809 199.384L219.596 252.879C219.596 252.879 224.651 254.564 227.388 254.564C230.125 254.564 233.074 253.3 233.074 253.3L221.761 173.27L200.84 172.565Z" fill="#0092CC"/>
<path d="M200.314 199.687C200.159 199.687 200.016 199.586 199.968 199.43C199.911 199.239 200.019 199.038 200.21 198.981C204.189 197.788 204.651 186.391 204.656 186.276C204.663 186.077 204.795 185.893 205.029 185.929C205.228 185.936 205.384 186.103 205.376 186.302C205.358 186.792 204.887 198.331 200.417 199.672C200.383 199.682 200.348 199.687 200.314 199.687Z" fill="#0068A1"/>
<path d="M223.611 199.687C219.098 199.687 216.322 187.32 216.206 186.793C216.163 186.599 216.286 186.406 216.481 186.363C216.676 186.322 216.867 186.443 216.911 186.638C217.667 190.067 220.344 198.965 223.612 198.965C223.811 198.965 223.973 199.126 223.973 199.326C223.972 199.525 223.81 199.687 223.611 199.687Z" fill="#0068A1"/>
<path d="M210.627 189.107C209.927 189.107 209.357 188.537 209.357 187.838C209.357 187.138 209.927 186.569 210.627 186.569C211.327 186.569 211.896 187.138 211.896 187.838C211.896 188.537 211.327 189.107 210.627 189.107ZM210.627 187.29C210.325 187.29 210.079 187.535 210.079 187.837C210.079 188.139 210.325 188.385 210.627 188.385C210.929 188.385 211.174 188.139 211.174 187.837C211.174 187.536 210.929 187.29 210.627 187.29Z" fill="white"/>
<path d="M269.045 104.032C268.329 103.635 265.604 106.916 265.604 106.916C265.604 106.916 268.627 100.786 267.632 100.47C266.638 100.153 264.181 106.28 264.181 106.28C264.181 106.28 266.686 99.3956 265.579 99.3056C264.473 99.2156 262.55 105.845 262.55 105.845C262.55 105.845 263.558 100.719 262.496 100.847C261.434 100.975 261.079 105.966 261.079 105.966C261.079 105.966 261.181 104.041 260.248 103.689C259.314 103.337 257.942 108.674 257.942 108.674C257.942 108.674 243.962 126.77 236.783 132.133C235.395 133.166 233.982 134.016 232.576 134.714C232.894 135.839 234.356 141.055 235.248 144.792C239.486 142.095 243.962 138.964 247.032 136.066C254.609 128.905 262.796 112.195 262.796 112.195C262.796 112.195 269.761 104.428 269.045 104.032Z" fill="#FFB2AB"/>
<path d="M187.359 155.467C185.989 156.543 184.399 157.253 182.449 157.406C175.115 157.954 167.625 154.338 167.409 154.233C167.409 154.233 163.701 149.961 163.069 150.733C162.437 151.505 163.49 153.12 163.49 153.12C163.49 153.12 160.682 148.978 159.699 149.399C158.716 149.82 162.156 153.752 162.156 153.752C162.156 153.752 157.172 148.978 156.259 149.61C155.346 150.242 160.963 154.945 160.963 154.945C160.963 154.945 155.768 150.873 155.066 151.646C154.364 152.418 160.05 156.209 160.05 156.209C160.05 156.209 156.048 154.735 155.627 155.437C155.206 156.139 164.583 160.533 164.583 160.533C165.568 161.026 177.896 167.066 186.662 165.124C188.191 164.788 189.573 164.298 190.814 163.724L187.359 155.467Z" fill="#FFB2AB"/>
<path d="M235.94 148.312C235.897 147.688 235.628 146.373 235.249 144.79C234.356 141.054 232.895 135.837 232.577 134.712C232.54 134.571 232.516 134.492 232.516 134.492C232.516 134.492 223.306 137.666 220.322 137.788C220.041 137.794 219.778 137.806 219.527 137.806C217.711 137.837 216.604 137.69 216.604 137.69L207.78 137.543C207.78 137.543 206.533 137.5 204.729 137.947C202.54 138.485 199.525 139.739 196.914 142.662C193.434 146.545 191.3 152.287 187.527 155.339C187.521 155.339 187.515 155.345 187.509 155.345C187.405 155.406 187.35 155.437 187.35 155.437L187.362 155.468L190.817 163.724L191.765 165.987C191.765 165.987 196.227 166.027 199.248 157.649L193.905 184.639L227.105 185.495L223.35 152.106C227.012 151.59 236.05 150.129 235.94 148.312Z" fill="#F8C74A"/>
<path d="M216.914 126.408V137.417C216.914 137.417 216.799 137.525 216.601 137.688C215.908 138.266 214.16 139.568 212.425 139.67C212.353 139.676 212.286 139.676 212.214 139.676C212.105 139.676 211.991 139.67 211.883 139.658C210.027 139.495 208.261 137.989 207.779 137.543C207.695 137.465 207.646 137.416 207.646 137.416V126.407L216.914 126.408Z" fill="#FFB2AB"/>
<path d="M216.914 132.097V135.598C210.002 134.333 207.785 126.897 207.652 126.433C208.659 129.09 213.859 131.12 216.914 132.097Z" fill="#252A26"/>
<path d="M224.073 115.038V124.721C224.073 127.083 223.091 129.222 221.506 130.735C220.012 132.169 217.987 133.043 215.758 133.043C215.149 133.043 214.559 132.977 213.992 132.856C210.244 132.043 207.436 128.71 207.436 124.721V123.1C205.088 123.023 204.177 120.546 205.515 119.033C205.997 118.491 206.966 118.364 207.436 118.52V115.037C207.436 110.439 211.16 106.716 215.758 106.716C218.054 106.716 220.133 107.65 221.639 109.15C223.139 110.657 224.073 112.736 224.073 115.038Z" fill="#FFB2AB"/>
<path d="M208.97 118.374C208.97 118.374 211.001 116.557 211.161 114.741C211.321 112.924 211.161 110.306 211.161 110.306C211.161 110.306 208.008 110.306 207.795 109.665C207.581 109.024 205.818 112.978 206.352 115.436C206.886 117.894 206.833 118.642 206.833 118.642C206.833 118.642 208.115 119.336 208.97 118.374Z" fill="#252A26"/>
<path d="M211.536 112.016C213.727 110.413 215.33 113.245 217.04 113.833C218.75 114.421 218.696 112.764 220.727 113.192C222.757 113.62 224.254 116.184 227.032 114.902C229.811 113.62 230.078 109.398 230.078 109.398C230.078 109.398 226.712 109.398 226.177 108.009C225.643 106.62 224.788 102.879 223.131 102.879C221.474 102.879 220.085 104.536 219.017 104.001C217.948 103.467 217.414 101.222 215.704 101.329C213.994 101.436 213.139 103.84 211.002 103.947C208.865 104.054 207.048 104.535 206.887 106.084C206.727 107.634 206.673 109.557 208.063 110.198C209.452 110.84 209.345 113.619 211.536 112.016Z" fill="#252A26"/>
<path d="M215.966 122.588C214.978 122.588 214.627 121.638 214.627 120.749C214.627 120.649 214.708 120.568 214.808 120.568C214.908 120.568 214.989 120.649 214.989 120.749C214.989 120.996 215.036 122.227 215.967 122.227C216.897 122.227 216.945 120.996 216.945 120.749C216.945 120.649 217.026 120.568 217.126 120.568C217.226 120.568 217.307 120.649 217.307 120.749C217.306 121.637 216.954 122.588 215.966 122.588Z" fill="#282828"/>
<path d="M221.337 122.588C220.349 122.588 219.998 121.638 219.998 120.749C219.998 120.649 220.079 120.568 220.179 120.568C220.279 120.568 220.36 120.649 220.36 120.749C220.36 120.996 220.407 122.227 221.338 122.227C222.268 122.227 222.316 120.996 222.316 120.749C222.316 120.649 222.397 120.568 222.497 120.568C222.597 120.568 222.678 120.649 222.678 120.749C222.676 121.637 222.324 122.588 221.337 122.588Z" fill="#282828"/>
<path d="M214.282 119.417C214.203 119.417 214.125 119.386 214.066 119.326C213.95 119.207 213.953 119.016 214.072 118.9C214.116 118.857 215.155 117.854 216.088 117.738C216.253 117.719 216.403 117.834 216.424 118C216.445 118.165 216.327 118.316 216.162 118.336C215.555 118.412 214.751 119.081 214.492 119.332C214.434 119.389 214.358 119.417 214.282 119.417Z" fill="#282828"/>
<path d="M222.706 119.233C222.603 119.233 222.502 119.18 222.446 119.084C222.051 118.412 221.144 118 221.135 117.996C220.983 117.928 220.915 117.75 220.983 117.598C221.051 117.447 221.228 117.378 221.381 117.446C221.425 117.466 222.475 117.943 222.966 118.78C223.05 118.924 223.002 119.108 222.859 119.192C222.81 119.22 222.758 119.233 222.706 119.233Z" fill="#282828"/>
<path d="M218.755 124.935C218.605 124.935 218.425 124.901 218.212 124.811C218.12 124.773 218.077 124.666 218.116 124.574C218.155 124.482 218.262 124.439 218.353 124.478C218.576 124.572 218.88 124.643 219.065 124.457C219.224 124.296 219.247 123.999 219.17 123.822C218.979 123.385 218.782 120.84 218.76 120.551C218.753 120.452 218.827 120.365 218.927 120.357C219.026 120.348 219.113 120.424 219.121 120.524C219.201 121.591 219.376 123.391 219.501 123.677C219.628 123.968 219.596 124.434 219.322 124.711C219.225 124.809 219.044 124.935 218.755 124.935Z" fill="#282828"/>
<path d="M216.361 126.25C216.361 126.25 218.73 126.592 220.073 126.671C220.073 126.671 219.795 128.221 218.836 128.724C217.968 129.18 216.411 128.738 216.361 126.25Z" fill="white"/>
<path d="M215.37 124.96C215.37 125.658 214.804 126.224 214.106 126.224C213.408 126.224 212.842 125.658 212.842 124.96C212.842 124.262 213.408 123.696 214.106 123.696C214.804 123.697 215.37 124.263 215.37 124.96Z" fill="#F4968E"/>
<path d="M223.421 124.878C223.421 125.576 222.855 126.142 222.157 126.142C221.459 126.142 220.893 125.576 220.893 124.878C220.893 124.18 221.459 123.614 222.157 123.614C222.855 123.615 223.421 124.18 223.421 124.878Z" fill="#F4968E"/>
<path d="M221.507 130.735C220.013 132.169 217.988 133.043 215.759 133.043C215.15 133.043 214.56 132.977 213.993 132.856C213.987 132.85 213.975 132.838 213.969 132.832C213.969 132.832 216.56 129.066 221.507 130.735Z" fill="#F4968E"/>
<path opacity="0.2" d="M337.043 110.839L265.371 101.221L260.391 138.331L332.063 147.949L337.043 110.839Z" fill="#2C6278"/>
<path d="M333.922 106.277L262.25 96.6592L257.27 133.77L328.942 143.388L333.922 106.277Z" fill="#FEFEFE"/>
<path d="M326.494 114.692L293.902 110.318L293.445 113.725L326.037 118.098L326.494 114.692Z" fill="#FFDAD6"/>
<path d="M325.541 121.805L292.949 117.432L292.492 120.838L325.083 125.212L325.541 121.805Z" fill="#FFDAD6"/>
<path d="M324.585 128.918L291.994 124.544L291.537 127.95L324.128 132.324L324.585 128.918Z" fill="#FFDAD6"/>
<path d="M286.261 118.759C285.485 124.542 280.169 128.601 274.386 127.825C268.603 127.049 264.544 121.732 265.32 115.95C266.096 110.167 271.412 106.108 277.195 106.884C282.978 107.66 287.037 112.976 286.261 118.759Z" fill="#FFDAD6"/>
<path d="M604.293 242.796C604.293 253.012 596.013 261.28 585.809 261.28C585.681 261.28 585.541 261.28 585.412 261.268C581.307 262.469 584.724 268.405 584.724 268.405C578.765 267.705 576.106 259.414 575.791 258.329V258.317C570.707 255.04 567.336 249.314 567.336 242.795C567.336 232.591 575.604 224.323 585.808 224.323C596.014 224.324 604.293 232.592 604.293 242.796Z" fill="white"/>
<path d="M585.349 251.234C586.197 251.234 586.884 250.547 586.884 249.699C586.884 248.851 586.197 248.164 585.349 248.164C584.502 248.164 583.814 248.851 583.814 249.699C583.814 250.547 584.502 251.234 585.349 251.234Z" fill="#335A74"/>
<path d="M581.174 247.363C581.017 247.363 580.861 247.307 580.736 247.195C580.468 246.953 580.446 246.54 580.689 246.272C581.878 244.955 583.576 244.2 585.349 244.2C587.027 244.2 588.603 244.853 589.789 246.038C590.044 246.293 590.044 246.707 589.789 246.962C589.534 247.217 589.119 247.217 588.864 246.962C587.926 246.023 586.677 245.506 585.349 245.506C583.946 245.506 582.601 246.104 581.659 247.147C581.53 247.291 581.352 247.363 581.174 247.363Z" fill="#335A74"/>
<path d="M577.903 244.099C577.736 244.099 577.569 244.035 577.441 243.908C577.186 243.653 577.186 243.239 577.441 242.984C579.554 240.871 582.362 239.708 585.35 239.708C588.287 239.708 591.061 240.836 593.161 242.886C593.419 243.138 593.424 243.552 593.171 243.81C592.921 244.07 592.508 244.074 592.247 243.822C590.393 242.012 587.944 241.015 585.35 241.015C582.712 241.015 580.231 242.043 578.365 243.908C578.237 244.035 578.07 244.099 577.903 244.099Z" fill="#335A74"/>
<path d="M596.01 241.355C595.838 241.355 595.667 241.287 595.538 241.153C592.852 238.344 589.234 236.798 585.349 236.798C581.842 236.798 578.483 238.094 575.888 240.446C575.623 240.687 575.209 240.669 574.966 240.401C574.724 240.134 574.744 239.72 575.011 239.478C577.847 236.907 581.519 235.492 585.35 235.492C589.595 235.492 593.548 237.182 596.483 240.25C596.732 240.511 596.723 240.924 596.463 241.174C596.336 241.295 596.172 241.355 596.01 241.355Z" fill="#335A74"/>
<path d="M617.776 421.307H636.183C637.013 421.307 637.686 420.634 637.686 419.804V419.515C637.686 418.165 636.89 416.943 635.655 416.397L623.814 411.163L615.571 411.364L614.67 417.731C614.403 419.62 615.869 421.307 617.776 421.307Z" fill="#4B354F"/>
<path d="M592.632 421.307H574.224C573.394 421.307 572.721 420.634 572.721 419.804V419.515C572.721 418.165 573.517 416.943 574.752 416.397L586.593 411.163L594.836 411.364L595.737 417.731C596.005 419.62 594.539 421.307 592.632 421.307Z" fill="#4B354F"/>
<path d="M619.141 412.872H620.147C622.173 412.872 623.816 411.229 623.816 409.203V403.121H615.473V409.203C615.472 411.23 617.114 412.872 619.141 412.872Z" fill="#F8C4B5"/>
<path d="M591.267 412.872H590.261C588.235 412.872 586.592 411.229 586.592 409.203V403.121H594.935V409.203C594.936 411.23 593.294 412.872 591.267 412.872Z" fill="#F8C4B5"/>
<path d="M615.513 336.926L628.023 403.637C628.023 403.637 622.408 405.245 619.995 405.245C617.583 405.245 612.958 404.441 612.958 404.441L604.714 353.979L597.477 405.044C597.477 405.044 592.651 406.652 590.037 406.652C587.423 406.652 582.812 405.446 582.812 405.446L594.214 336.716L615.513 336.926Z" fill="#6B576C"/>
<path d="M549.783 265.226C550.484 264.838 553.153 268.05 553.153 268.05C553.153 268.05 550.193 262.048 551.167 261.738C552.141 261.428 554.546 267.427 554.546 267.427C554.546 267.427 552.093 260.686 553.177 260.598C554.26 260.51 556.143 267.001 556.143 267.001C556.143 267.001 555.156 261.982 556.196 262.107C557.236 262.232 557.584 267.12 557.584 267.12C557.584 267.12 557.561 264.4 558.476 264.055C559.39 263.71 559.466 268.467 559.466 268.467C559.466 268.467 574.345 287.492 581.376 292.744C582.735 293.756 595.724 294.932 597.101 295.614C596.79 296.716 595.186 302.94 594.311 306.598C590.161 303.957 574.345 299.432 571.339 296.594C563.92 289.582 555.902 273.219 555.902 273.219C555.902 273.219 549.082 265.614 549.783 265.226Z" fill="#FFB2AB"/>
<path d="M656.516 316.325C656.516 316.325 660.432 314.872 660.844 315.562C661.256 316.252 652.075 320.549 652.075 320.549C651.106 321.033 639.267 324.98 630.518 324.073C628.086 323.836 623.233 320.703 618.523 317.303C616.163 315.592 613.845 313.82 611.887 312.305C609.084 310.131 607.013 308.472 606.621 308.297L610.856 297.56L611.557 295.777L611.578 295.715C611.578 295.715 611.629 295.715 611.722 295.736C612.093 295.808 613.196 296.158 615.03 297.91C616.287 299.116 619.811 304.392 623.665 309.018C623.665 309.028 623.665 309.028 623.665 309.028C626.88 312.892 630.301 316.303 632.815 316.54C639.987 317.23 649.096 314.489 649.312 314.386C649.312 314.386 652.939 310.202 653.557 310.955C654.113 311.645 653.33 312.995 653.176 313.253C653.464 312.831 655.958 309.255 656.855 309.646C657.731 310.017 655.072 313.191 654.557 313.809C655.278 313.129 659.41 309.285 660.224 309.852C661.048 310.429 656.473 314.355 655.721 314.994C656.453 314.427 660.77 311.161 661.399 311.851C662.08 312.605 656.516 316.325 656.516 316.325Z" fill="#FFB2AB"/>
<path d="M617.544 321.003L615.864 319.148C617.43 329.442 618.863 339.19 618.863 339.19L589.567 339.674C589.567 339.674 591.813 323.867 593.637 311.1L585.486 310.647L588.546 294.17L595.986 295.19C596.12 295.19 596.254 295.2 596.398 295.2C598.119 295.231 598.871 294.654 598.871 294.654C599.541 295.21 601.509 296.88 603.168 296.972C603.24 296.982 603.302 296.982 603.364 296.982C603.477 296.982 603.58 296.972 603.683 296.972C605.455 296.807 607.145 295.365 607.609 294.942C607.609 294.942 608.794 294.911 610.515 295.334C610.979 295.447 611.473 295.592 611.999 295.777C611.999 295.787 612.009 295.797 612.009 295.818C612.535 295.993 613.544 296.488 615.028 297.91C616.285 299.116 619.809 304.392 623.663 309.018C623.663 309.028 623.663 309.028 623.663 309.028L617.544 321.003Z" fill="#06C8A2"/>
<path d="M598.887 294.826C598.887 294.826 599.264 299.574 600.794 299.574C602.325 299.574 603.69 296.968 603.69 296.968C603.69 296.968 605.071 300.204 606.377 299.934C607.683 299.664 607.609 294.944 607.609 294.944L598.887 294.826Z" fill="#05A384"/>
<path d="M607.733 284.317V294.826C607.733 294.826 607.686 294.873 607.609 294.944C607.149 295.369 605.461 296.809 603.691 296.968C603.585 296.974 603.479 296.98 603.372 296.98C603.301 296.98 603.242 296.98 603.171 296.974C601.513 296.88 599.849 295.635 599.182 295.086C598.993 294.927 598.887 294.826 598.887 294.826V284.317H607.733Z" fill="#FFB2AB"/>
<path d="M607.932 281.166V282.712C607.932 283.444 607.829 284.144 607.654 284.814C607.056 286.988 605.562 288.781 603.604 289.781C602.522 290.337 601.296 290.647 599.987 290.647C599.616 290.647 599.245 290.626 598.885 290.575C597.247 290.348 595.773 289.617 594.619 288.545C593.042 287.102 592.053 285.021 592.053 282.713V273.46C592.053 271.265 592.949 269.287 594.382 267.844C595.216 267.009 596.237 266.36 597.38 265.969C597.462 265.938 597.545 265.907 597.627 265.876C598.379 265.649 599.162 265.515 599.987 265.515C604.377 265.515 607.932 269.08 607.932 273.46V276.788C608.015 276.778 608.076 276.757 608.159 276.736C608.334 276.715 608.499 276.726 608.674 276.798C608.88 276.87 609.096 277.014 609.313 277.251C610.58 278.693 610.323 281.001 607.932 281.166Z" fill="#FFB6AA"/>
<path d="M607.458 276.889C604.356 276.704 602.46 273.674 601.368 270.789C598.74 271.005 597.926 270.604 597.71 270.212C597.298 270.882 596.824 271.562 596.288 272.201C594.526 274.324 592.826 275.014 592.053 275.231V273.459C592.053 271.264 592.949 269.286 594.382 267.843C595.216 267.008 596.237 266.359 597.38 265.968C597.462 265.937 597.545 265.906 597.627 265.875C598.379 265.648 599.162 265.514 599.987 265.514C604.377 265.514 607.932 269.079 607.932 273.459V276.787C608.015 276.776 607.911 276.921 607.458 276.889Z" fill="#1D2C64"/>
<path d="M603.316 266.935C603.316 266.935 609.979 255.515 614.061 264.279C618.143 273.043 607.008 272.743 607.008 272.743L603.316 266.935Z" fill="#1D2C64"/>
<path d="M599.791 280.673C598.845 280.673 598.508 279.764 598.508 278.913C598.508 278.815 598.587 278.736 598.685 278.736C598.783 278.736 598.862 278.815 598.862 278.913C598.862 279.148 598.907 280.319 599.791 280.319C600.675 280.319 600.72 279.147 600.72 278.913C600.72 278.815 600.799 278.736 600.897 278.736C600.995 278.736 601.074 278.815 601.074 278.913C601.074 279.764 600.737 280.673 599.791 280.673Z" fill="#252A26"/>
<path d="M594.664 280.673C593.717 280.673 593.381 279.725 593.381 278.913C593.381 278.815 593.46 278.736 593.558 278.736C593.656 278.736 593.735 278.815 593.735 278.913C593.735 279.148 593.78 280.319 594.664 280.319C595.548 280.319 595.593 279.147 595.593 278.913C595.593 278.815 595.672 278.736 595.77 278.736C595.868 278.736 595.947 278.815 595.947 278.913C595.947 279.764 595.61 280.673 594.664 280.673Z" fill="#252A26"/>
<path d="M601.398 277.65C601.324 277.65 601.25 277.622 601.192 277.567C600.945 277.327 600.179 276.69 599.602 276.618C599.441 276.598 599.326 276.45 599.346 276.289C599.366 276.127 599.515 276.015 599.676 276.033C600.567 276.145 601.562 277.104 601.603 277.145C601.72 277.259 601.722 277.445 601.609 277.562C601.552 277.62 601.475 277.65 601.398 277.65Z" fill="#1D2C64"/>
<path d="M593.358 277.474C593.307 277.474 593.255 277.461 593.209 277.433C593.068 277.351 593.02 277.17 593.103 277.029C593.573 276.228 594.576 275.772 594.619 275.753C594.767 275.687 594.941 275.753 595.009 275.902C595.075 276.05 595.009 276.225 594.861 276.292C594.852 276.296 593.986 276.692 593.613 277.328C593.556 277.422 593.459 277.474 593.358 277.474Z" fill="#1D2C64"/>
<path d="M597.128 282.915C596.85 282.915 596.677 282.794 596.583 282.699C596.321 282.433 596.29 281.987 596.412 281.708C596.531 281.435 596.697 279.717 596.774 278.699C596.781 278.601 596.851 278.53 596.964 278.536C597.061 278.543 597.135 278.628 597.127 278.726C597.106 279.002 596.918 281.432 596.736 281.85C596.663 282.018 596.685 282.299 596.836 282.451C597.011 282.629 597.299 282.56 597.511 282.471C597.601 282.433 597.705 282.475 597.743 282.565C597.781 282.655 597.739 282.758 597.648 282.796C597.445 282.881 597.272 282.915 597.128 282.915Z" fill="#252A26"/>
<path d="M599.413 284.165C599.413 284.165 597.151 284.492 595.869 284.567C595.869 284.567 596.134 286.047 597.05 286.527C597.88 286.962 599.365 286.541 599.413 284.165Z" fill="white"/>
<path d="M600.094 282.331C600.094 282.997 600.634 283.537 601.3 283.537C601.966 283.537 602.506 282.997 602.506 282.331C602.506 281.665 601.966 281.125 601.3 281.125C600.634 281.124 600.094 281.665 600.094 282.331Z" fill="#F4968E"/>
<path d="M592.676 282.856C592.676 283.522 593.216 284.062 593.882 284.062C594.548 284.062 595.088 283.522 595.088 282.856C595.088 282.19 594.548 281.65 593.882 281.65C593.216 281.65 592.676 282.189 592.676 282.856Z" fill="#F4968E"/>
<path d="M603.608 289.775C602.522 290.336 601.295 290.648 599.991 290.648C597.914 290.648 596.032 289.851 594.621 288.547C595.925 288.146 600.303 287.066 603.313 289.503C603.425 289.592 603.525 289.687 603.608 289.775Z" fill="#F4968E"/>
<path d="M598.887 292.902V290.572C599.247 290.625 599.613 290.648 599.99 290.648C601.294 290.648 602.521 290.336 603.607 289.776C605.566 288.779 607.053 286.985 607.649 284.814C607.691 284.796 605.39 293.115 598.887 292.902Z" fill="#783A30"/>
<path d="M608.926 280.159C608.926 280.371 608.754 280.543 608.542 280.543C608.33 280.543 608.158 280.371 608.158 280.159C608.158 279.947 608.33 279.775 608.542 279.775C608.754 279.776 608.926 279.947 608.926 280.159Z" fill="#252A26"/>
<path d="M672.742 314.185H629.078V286.91C629.078 285.285 630.395 283.967 632.021 283.967H669.817C671.432 283.967 672.742 285.276 672.742 286.892V314.185Z" fill="#335A74"/>
<path d="M673.366 317.582H628.453C626.629 317.582 625.15 316.103 625.15 314.279V314.179H676.669V314.279C676.669 316.103 675.19 317.582 673.366 317.582Z" fill="#335A74"/>
<path d="M670.052 287.852H631.484V311.779H670.052V287.852Z" fill="#D2E8EC"/>
<path d="M658.028 306.343C657.699 306.876 656.909 306.455 655.997 305.73C653.261 303.552 648.618 298.282 648.618 298.282C648.618 298.282 647.44 298.719 647.13 298.719C645.215 298.719 643.662 297.16 643.662 295.245C643.662 294.884 644.074 294.077 644.171 293.744L645.948 295.791L647.673 295.619L647.58 294.227L646.193 292.117C646.445 292.054 646.86 291.772 647.13 291.772C649.051 291.772 650.604 293.326 650.604 295.246C650.604 295.659 650.512 296.507 649.972 297.077C649.972 297.077 655.477 302.17 657.477 304.77C658.028 305.483 658.358 305.809 658.028 306.343Z" fill="#0094CD"/>
<path d="M658.281 294.532L656.307 296.312L655.223 296.377L648.628 302.689C648.652 302.794 648.66 302.908 648.66 303.021C648.66 303.385 648.522 303.749 648.247 304.024L645.973 306.298C645.415 306.856 644.516 306.856 643.958 306.298C643.4 305.748 643.4 304.841 643.958 304.283L646.232 302.009C646.596 301.645 647.106 301.523 647.567 301.629L654.162 295.325L654.259 294.467L656.242 292.298L658.281 294.532Z" fill="#0094CD"/>
<path opacity="0.2" d="M555.21 262.614L422.191 239.208L414.015 285.676L547.034 309.081L555.21 262.614Z" fill="#2C6278"/>
<path d="M560.491 258.773L427.473 235.367L419.296 281.835L552.315 305.24L560.491 258.773Z" fill="#D6FBFD"/>
<path d="M549.397 264.682L518.182 259.189L512.689 290.405L543.905 295.897L549.397 264.682Z" fill="#55CAEC"/>
<path d="M510.732 257.879L435.887 244.709L434.826 250.74L509.671 263.909L510.732 257.879Z" fill="#55CAEC"/>
<path d="M508.517 270.471L433.672 257.302L432.611 263.332L507.456 276.502L508.517 270.471Z" fill="#55CAEC"/>
<path d="M506.301 283.064L431.455 269.895L430.394 275.925L505.239 289.095L506.301 283.064Z" fill="#55CAEC"/>
<path d="M122.7 341.183C131.344 364.233 121.428 388.003 95.3687 388.003C69.3097 388.003 57.8717 369.275 67.2357 341.183C76.5997 313.091 84.0947 294.363 95.3687 294.363C106.643 294.363 114.056 318.133 122.7 341.183Z" stroke="#29495E" stroke-width="2" stroke-miterlimit="10" stroke-linecap="round"/>
<path d="M94.9668 318.494V422.218" stroke="#29495E" stroke-width="4" stroke-miterlimit="10" stroke-linecap="round"/>
<path d="M77.5605 344.065L94.6075 363.993L111.655 345.505" stroke="#29495E" stroke-width="2" stroke-miterlimit="10" stroke-linecap="round"/>
<path d="M86.6836 328.698L95.0876 337.582L103.972 330.619" stroke="#29495E" stroke-width="2" stroke-miterlimit="10" stroke-linecap="round"/>
</svg>
