<?xml version="1.0" encoding="utf-8"?>
<!-- Generator: Adobe Illustrator 27.5.0, SVG Export Plug-In . SVG Version: 6.00 Build 0)  -->
<svg version="1.1" id="Layer_1" xmlns="http://www.w3.org/2000/svg" xmlns:xlink="http://www.w3.org/1999/xlink" x="0px" y="0px"
	 viewBox="0 0 541.777 427.696" style="enable-background:new 0 0 541.777 427.696;" xml:space="preserve">
<g>
	<rect y="0" style="fill:#FFFAF3;" width="541.777" height="427.696"/>
	<g>
		<g>
			<path style="fill:#FFEBDC;" d="M78.092,167.408c13.783-12.819,28.335-24.786,41.168-38.513
				c13.9-14.868,28.442-29.987,46.595-40.421c17.607-10.121,39.5-15.294,58.553-9.338c19.16,5.988,33.398,22.334,53.435,25.471
				c19.319,3.024,38.388-6.951,56.455-14.97c18.068-8.019,40.269-14.154,56.515-4.335c10.365,6.265,15.609,17.579,23.836,26.139
				c10.861,11.3,26.488,17.405,40.657,24.967c14.169,7.562,28.11,18.075,31.497,33.077c4.475,19.822-10.755,39.321-14.156,59.61
				c-3.731,22.251,6.874,45.425-1.481,66.723c-6.064,15.457-21.342,26.807-37.796,32.881c-16.453,6.074-34.195,7.632-51.648,9.127
				c-46.657,3.997,20.817,22.251-25.84,26.247c-38.646,3.31-191.443-7.635-229.936-2.514c-19.913,2.649-43.327,4.717-56.382-8.922
				c-10.033-10.483-9.771-26.231-12.025-40.299c-4.722-29.479-22.643-57.349-17.472-87.12c3.527-20.31,17.48-38.104,33.052-53.107
				C74.763,170.527,76.422,168.961,78.092,167.408z"/>
		</g>
		<g>
			<g>
				<path style="fill:#FC97A8;" d="M266.02,370.209c-8.435,0-15.298-6.862-15.298-15.298s6.863-15.297,15.298-15.297
					c8.435,0,15.298,6.862,15.298,15.297S274.455,370.209,266.02,370.209z M266.02,346.09c-4.865,0-8.822,3.957-8.822,8.822
					s3.957,8.822,8.822,8.822s8.822-3.957,8.822-8.822S270.885,346.09,266.02,346.09z"/>
			</g>
			<g>
				<path style="fill:#FFC78A;" d="M232.039,354.197c-5.003,0-9.074-4.07-9.074-9.073c0-5.003,4.07-9.073,9.074-9.073
					c5.003,0,9.073,4.07,9.073,9.073C241.112,350.126,237.042,354.197,232.039,354.197z M232.039,340.594
					c-2.498,0-4.529,2.032-4.529,4.529c0,2.497,2.032,4.529,4.529,4.529c2.497,0,4.529-2.032,4.529-4.529
					C236.568,342.626,234.537,340.594,232.039,340.594z"/>
			</g>
			<g>
				<g>
					<g>
						<path style="fill:#FFAEBF;" d="M69.599,330.076c-1.62,2.239-3.113,5.695-0.936,7.397c0.641,0.501,1.5,0.708,2.046,1.312
							c1.001,1.105,0.466,2.848-0.121,4.219c-1.647,3.845-3.294,7.69-4.941,11.535c-0.62,1.447-1.25,2.941-1.264,4.515
							c-0.014,1.574,0.744,3.264,2.197,3.866c2.194,0.91,4.515-0.974,5.948-2.869c1.433-1.895,2.96-4.169,5.325-4.393
							c3.234-0.306,5.918,3.509,9.104,2.871c3.174-0.636,4.576-5.338,7.813-5.327c1.404,0.005,2.618,0.959,3.981,1.3
							c3.733,0.935,6.938-2.814,8.479-6.34c4.261-9.748,3.756-21.452-1.33-30.797c-0.708-1.301-1.519-2.581-2.66-3.526
							c-1.55-1.284-3.579-1.842-5.577-2.085c-4.649-0.566-9.455,0.487-13.501,2.827c-1.725,0.998-3.419,2.177-5.037,3.346
							c-1.48,1.07-2.552,2.507-3.614,3.975C73.54,324.626,71.57,327.352,69.599,330.076z"/>
					</g>
				</g>
				<g>
					<g>
						<path style="fill:#A6E2D6;" d="M67.243,274.83c0.372,0.644,0.897,1.206,1.156,1.904c0.664,1.795-0.746,3.802-2.503,4.562
							c-1.757,0.76-3.747,0.643-5.66,0.677c-4.883,0.088-10.882,2.593-10.834,7.477c0.027,2.777,2.147,5.338,1.701,8.079
							c-0.471,2.894-3.481,4.523-6.075,5.89c-3.092,1.63-6.168,3.59-8.034,6.545c-1.866,2.955-2.193,7.134,0.079,9.79
							c3.372,3.941,9.681,2.455,14.54,0.639c4.081-1.525,8.162-3.051,12.243-4.576c1.015-0.379,2.182-0.752,3.139-0.244
							c1.897,1.006,0.938,3.878,1.394,5.977c0.537,2.471,3.419,3.891,5.922,3.525c2.503-0.366,4.605-2.078,6.267-3.985
							c1.212-1.39,2.408-3.014,4.2-3.449c1.882-0.457,3.802,0.557,5.738,0.58c2.837,0.034,5.229-2.012,7.239-4.014
							c3.167-3.153,6.195-6.596,7.869-10.739c3.397-8.408,0.623-18.054-3.517-26.122c-3.44-6.703-8.545-13.602-15.844-16.349
							c-2.39-0.899-5.007-1.598-7.455-0.555c-2.878,1.227-5.983,3.243-8.412,5.176C67.827,267.66,65.359,271.57,67.243,274.83z"/>
					</g>
				</g>
				<g>
					<g>
						<path style="fill:#FFFFFF;" d="M103.804,278.543c-0.081-0.027-0.173,0.003-0.222,0.077
							c-4.151,6.408-10.383,11.389-17.547,14.026c-2.266,0.834-4.66,1.449-6.976,2.044c-3.549,0.912-7.22,1.855-10.509,3.607
							c-3.367,1.793-6.251,4.391-9.041,6.902c-1.292,1.163-2.628,2.366-3.993,3.472c-5.571,4.514-12.189,7.836-19.138,9.609
							c-0.103,0.026-0.165,0.13-0.138,0.233c0.027,0.103,0.132,0.165,0.233,0.138c7.002-1.786,13.67-5.134,19.285-9.682
							c1.373-1.112,2.713-2.318,4.008-3.485c2.773-2.496,5.639-5.077,8.965-6.848c3.249-1.73,6.896-2.668,10.424-3.574
							c2.325-0.597,4.729-1.214,7.013-2.055c7.242-2.665,13.542-7.7,17.737-14.177c0.058-0.089,0.032-0.208-0.056-0.265
							C103.834,278.554,103.819,278.548,103.804,278.543z"/>
					</g>
				</g>
				<g>
					<g>
						<path style="fill:#FFFFFF;" d="M99.621,322.323c-0.002-0.001-0.005-0.002-0.007-0.002c-0.102-0.03-0.208,0.029-0.238,0.13
							c-2.253,7.682-4.772,14.898-10.766,18.777c-1.416,0.916-2.997,1.606-4.527,2.273c-0.805,0.352-1.638,0.715-2.441,1.108
							c-7.216,3.538-12.807,9.942-15.338,17.569c-0.033,0.101,0.021,0.209,0.121,0.242l0,0c0.101,0.033,0.209-0.021,0.243-0.121
							c2.499-7.531,8.019-13.853,15.144-17.346c0.795-0.389,1.624-0.751,2.425-1.101c1.544-0.673,3.139-1.37,4.582-2.303
							c6.105-3.949,8.652-11.236,10.926-18.99C99.773,322.46,99.718,322.356,99.621,322.323z"/>
					</g>
				</g>
			</g>
			<g>
				<path style="fill:#FFC78A;" d="M251.981,156.569c-0.615,2.105-2.82,3.314-4.925,2.699c-2.105-0.615-3.314-2.82-2.699-4.925
					s2.82-3.314,4.925-2.699S252.596,154.463,251.981,156.569z"/>
			</g>
			<g>
				<path style="fill:#79D3C2;" d="M257.889,175.354c-0.776,2.658-3.56,4.183-6.217,3.407c-2.658-0.776-4.183-3.56-3.407-6.217
					c0.776-2.658,3.559-4.183,6.217-3.407C257.14,169.912,258.665,172.696,257.889,175.354z"/>
			</g>
			<g>
				<path style="fill:#FC97A8;" d="M277.436,154.408c-1.084,3.712-4.972,5.843-8.684,4.759c-3.712-1.084-5.843-4.972-4.759-8.685
					c1.084-3.712,4.972-5.843,8.685-4.759C276.389,146.807,278.52,150.695,277.436,154.408z"/>
			</g>
			<g>
				<path style="fill:#FC97A8;" d="M484.433,187.706c-10.002,0-18.14-8.138-18.14-18.14c0-10.003,8.138-18.14,18.14-18.14
					c10.003,0,18.141,8.138,18.141,18.14C502.574,179.568,494.436,187.706,484.433,187.706z M484.433,153.397
					c-8.915,0-16.168,7.253-16.168,16.169c0,8.916,7.253,16.168,16.168,16.168c8.915,0,16.169-7.253,16.169-16.168
					C500.602,160.651,493.348,153.397,484.433,153.397z"/>
			</g>
			<g>
				<path style="fill:#FC97A8;" d="M149.014,122.423c-10.002,0-18.14-8.138-18.14-18.14c0-10.003,8.138-18.14,18.14-18.14
					c10.003,0,18.141,8.138,18.141,18.14C167.155,114.285,159.017,122.423,149.014,122.423z M149.014,88.114
					c-8.915,0-16.168,7.253-16.168,16.169s7.253,16.168,16.168,16.168s16.169-7.253,16.169-16.168S157.929,88.114,149.014,88.114z"
					/>
			</g>
			<g>
				<g>
					<g>
						<g>
							<path style="fill:#F8896B;" d="M95.218,174.33c-11.696,0-21.21-9.515-21.21-21.21c0-11.696,9.515-21.21,21.21-21.21
								c11.695,0,21.21,9.515,21.21,21.21C116.428,164.816,106.913,174.33,95.218,174.33z M95.218,143.491
								c-5.309,0-9.629,4.32-9.629,9.629s4.32,9.629,9.629,9.629c5.309,0,9.629-4.319,9.629-9.629S100.527,143.491,95.218,143.491z"
								/>
						</g>
					</g>
				</g>
				<g>
					<g>
						<g>
							<path style="fill:#F8896B;" d="M100.914,137.355H89.522v-9.556c0-1.35,1.094-2.444,2.444-2.444h6.504
								c1.35,0,2.444,1.094,2.444,2.444V137.355z"/>
						</g>
					</g>
					<g>
						<g>
							<path style="fill:#F8896B;" d="M100.914,168.885H89.522v9.556c0,1.35,1.094,2.444,2.444,2.444h6.504
								c1.35,0,2.444-1.094,2.444-2.444V168.885z"/>
						</g>
					</g>
					<g>
						<g>
							<g>
								<path style="fill:#F8896B;" d="M88.098,137.945L80.042,146l-6.757-6.757c-0.954-0.954-0.954-2.502,0-3.456l4.599-4.599
									c0.955-0.954,2.502-0.954,3.456,0L88.098,137.945z"/>
							</g>
						</g>
						<g>
							<g>
								<path style="fill:#F8896B;" d="M110.393,160.24l-8.056,8.056l6.757,6.757c0.954,0.954,2.502,0.954,3.456,0l4.599-4.599
									c0.954-0.954,0.954-2.502,0-3.456L110.393,160.24z"/>
							</g>
						</g>
					</g>
					<g>
						<g>
							<g>
								<path style="fill:#F8896B;" d="M79.453,147.424v11.392h-9.556c-1.35,0-2.444-1.094-2.444-2.444v-6.504
									c0-1.35,1.094-2.444,2.444-2.444H79.453z"/>
							</g>
						</g>
						<g>
							<g>
								<path style="fill:#F8896B;" d="M110.983,147.424v11.392h9.556c1.35,0,2.444-1.094,2.444-2.444v-6.504
									c0-1.35-1.094-2.444-2.444-2.444H110.983z"/>
							</g>
						</g>
					</g>
					<g>
						<g>
							<g>
								<path style="fill:#F8896B;" d="M80.042,160.24l8.056,8.056l-6.757,6.757c-0.954,0.954-2.502,0.954-3.456,0l-4.599-4.599
									c-0.954-0.954-0.954-2.502,0-3.456L80.042,160.24z"/>
							</g>
						</g>
						<g>
							<g>
								<path style="fill:#F8896B;" d="M102.338,137.945l8.056,8.056l6.757-6.757c0.954-0.954,0.954-2.502,0-3.456l-4.599-4.599
									c-0.955-0.954-2.502-0.954-3.456,0L102.338,137.945z"/>
							</g>
						</g>
					</g>
				</g>
			</g>
			<g>
				<g>
					<g>
						<g>
							<path style="fill:#79D3C2;" d="M476.523,334.672c-9.498,0-17.226-7.727-17.226-17.225c0-9.498,7.727-17.226,17.226-17.226
								c9.498,0,17.225,7.727,17.225,17.226C493.748,326.944,486.021,334.672,476.523,334.672z M476.523,309.626
								c-4.312,0-7.82,3.508-7.82,7.82c0,4.312,3.508,7.82,7.82,7.82c4.312,0,7.82-3.508,7.82-7.82
								C484.343,313.134,480.835,309.626,476.523,309.626z"/>
						</g>
					</g>
				</g>
				<g>
					<g>
						<g>
							<path style="fill:#79D3C2;" d="M481.149,304.642h-9.252v-7.761c0-1.096,0.889-1.985,1.985-1.985h5.282
								c1.096,0,1.985,0.889,1.985,1.985V304.642z"/>
						</g>
					</g>
					<g>
						<g>
							<path style="fill:#79D3C2;" d="M481.149,330.25h-9.252v7.761c0,1.096,0.889,1.985,1.985,1.985h5.282
								c1.096,0,1.985-0.889,1.985-1.985V330.25z"/>
						</g>
					</g>
					<g>
						<g>
							<g>
								<path style="fill:#79D3C2;" d="M470.74,305.121l-6.542,6.542l-5.488-5.488c-0.775-0.775-0.775-2.032,0-2.807l3.735-3.735
									c0.775-0.775,2.032-0.775,2.807,0L470.74,305.121z"/>
							</g>
						</g>
						<g>
							<g>
								<path style="fill:#79D3C2;" d="M488.847,323.228l-6.542,6.542l5.488,5.488c0.775,0.775,2.032,0.775,2.807,0l3.735-3.735
									c0.775-0.775,0.775-2.032,0-2.807L488.847,323.228z"/>
							</g>
						</g>
					</g>
					<g>
						<g>
							<g>
								<path style="fill:#79D3C2;" d="M463.719,312.82v9.252h-7.761c-1.096,0-1.985-0.889-1.985-1.985v-5.282
									c0-1.096,0.889-1.985,1.985-1.985H463.719z"/>
							</g>
						</g>
						<g>
							<g>
								<path style="fill:#79D3C2;" d="M489.326,312.82v9.252h7.761c1.096,0,1.985-0.889,1.985-1.985v-5.282
									c0-1.096-0.889-1.985-1.985-1.985H489.326z"/>
							</g>
						</g>
					</g>
					<g>
						<g>
							<g>
								<path style="fill:#79D3C2;" d="M464.198,323.228l6.542,6.542l-5.488,5.488c-0.775,0.775-2.032,0.775-2.807,0l-3.735-3.735
									c-0.775-0.775-0.775-2.032,0-2.807L464.198,323.228z"/>
							</g>
						</g>
						<g>
							<g>
								<path style="fill:#79D3C2;" d="M482.305,305.121l6.542,6.542l5.488-5.488c0.775-0.775,0.775-2.032,0-2.807l-3.735-3.735
									c-0.775-0.775-2.032-0.775-2.807,0L482.305,305.121z"/>
							</g>
						</g>
					</g>
				</g>
			</g>
			<g>
				<g>
					<g>
						<g>
							<g>
								<g>
									<rect x="170.606" y="325.641" style="fill:#1C84AA;" width="33.637" height="36.463"/>
								</g>
							</g>
						</g>
						<g>
							<g>
								<g>
									<g>
										<g>
											<polygon style="fill:#05657F;" points="273.013,328.539 94.336,328.539 69.495,191.295 248.173,191.295 											"/>
										</g>
									</g>
								</g>
								<g>
									<g>
										<g>
											<polygon style="fill:#1C84AA;" points="279.15,328.539 100.472,328.539 75.632,191.295 254.309,191.295 											"/>
										</g>
									</g>
								</g>
								<g>
									<g>
										<g>
											<polygon style="fill:#FFFFFF;" points="100.472,328.539 95.218,299.51 274.476,299.51 279.15,328.539 											"/>
										</g>
									</g>
								</g>
							</g>
							<g>
								<g>
									<g>
										<polygon style="fill:#163D51;" points="85.135,196.373 102.842,290.334 263.831,290.334 246.824,196.373 										"/>
									</g>
								</g>
							</g>
						</g>
						<g>
							<g>
								<g>
									<rect x="170.606" y="328.539" style="fill:#163D51;" width="33.637" height="9.127"/>
								</g>
							</g>
						</g>
						<g>
							<g>
								<g>
									<path style="fill:#163D51;" d="M228.034,369.773h-62.333v-10.126h56.903c2.999,0,5.431,2.431,5.431,5.431V369.773z"/>
								</g>
							</g>
						</g>
					</g>
					<g>
						<g>
							<g>
								<polygon style="fill:#FFFFFF;" points="195.597,236.429 151.559,236.429 145.861,206.048 189.899,206.048 								"/>
							</g>
						</g>
						<g>
							<g>
								<path style="fill:#1C84AA;" d="M173.34,221.238c0,1.358-1.101,2.459-2.459,2.459c-1.358,0-2.459-1.101-2.459-2.459
									c0-1.358,1.101-2.459,2.459-2.459C172.239,218.779,173.34,219.88,173.34,221.238z"/>
							</g>
						</g>
					</g>
					<g>
						<g>
							<g>
								<g>
									<polygon style="fill:#FFFFFF;" points="144.863,236.429 100.825,236.429 95.126,206.048 139.164,206.048 									"/>
								</g>
							</g>
							<g>
								<g>
									<path style="fill:#1C84AA;" d="M122.605,221.238c0,1.358-1.101,2.459-2.459,2.459c-1.358,0-2.459-1.101-2.459-2.459
										c0-1.358,1.101-2.459,2.459-2.459C121.504,218.779,122.605,219.88,122.605,221.238z"/>
								</g>
							</g>
						</g>
						<g>
							<g>
								<g>
									<polygon style="fill:#FFFFFF;" points="246.332,236.429 202.294,236.429 196.596,206.048 240.634,206.048 									"/>
								</g>
							</g>
							<g>
								<g>
									<path style="fill:#1C84AA;" d="M224.074,221.238c0,1.358-1.101,2.459-2.459,2.459c-1.358,0-2.459-1.101-2.459-2.459
										c0-1.358,1.101-2.459,2.459-2.459C222.973,218.779,224.074,219.88,224.074,221.238z"/>
								</g>
							</g>
						</g>
					</g>
					<g>
						<g>
							<g>
								<polygon style="fill:#FFFFFF;" points="204.213,277.75 160.175,277.75 154.477,247.369 198.515,247.369 								"/>
							</g>
						</g>
						<g>
							<g>
								<path style="fill:#1C84AA;" d="M181.956,262.559c0,1.358-1.101,2.459-2.459,2.459s-2.459-1.101-2.459-2.459
									s1.101-2.459,2.459-2.459S181.956,261.201,181.956,262.559z"/>
							</g>
						</g>
					</g>
					<g>
						<g>
							<g>
								<polygon style="fill:#FFFFFF;" points="153.479,277.75 109.44,277.75 103.742,247.369 147.78,247.369 								"/>
							</g>
						</g>
					</g>
					<g>
						<g>
							<g>
								<g>
									<g>
										<g>
											<path style="fill:#F37453;" d="M241.712,231.011l0.21-0.676c0.153-0.492,0.608-0.827,1.124-0.827h7.758
												c0.794,0,1.439,0.644,1.439,1.439v25.183H212.31v-22.852c0-0.794,0.644-1.439,1.439-1.439h26.839
												C241.104,231.838,241.559,231.503,241.712,231.011z"/>
										</g>
									</g>
								</g>
							</g>
							<g>
								<g>
									<g>
										<g>
											
												<rect x="214.14" y="233.798" transform="matrix(-1 -1.224647e-16 1.224647e-16 -1 464.1912 490.9969)" style="fill:#FFFFFF;" width="35.91" height="23.401"/>
										</g>
									</g>
								</g>
							</g>
							<g>
								<g>
									<g>
										<g>
											<path style="fill:#FFB255;" d="M213.183,257.199h38.565c0.423,0,0.787-0.297,0.872-0.711l4.134-20.109
												c0.114-0.552-0.308-1.07-0.872-1.07h-38.565c-0.423,0-0.787,0.297-0.872,0.711l-4.134,20.109
												C212.197,256.682,212.619,257.199,213.183,257.199z"/>
										</g>
									</g>
								</g>
							</g>
						</g>
						<g>
							<g>
								<g>
									<g>
										<g>
											<path style="fill:#F37453;" d="M245.47,242.016h6.652c0.306,0,0.554-0.248,0.554-0.554l0,0
												c0-0.306-0.248-0.554-0.554-0.554h-6.652c-0.306,0-0.554,0.248-0.554,0.554l0,0
												C244.915,241.768,245.164,242.016,245.47,242.016z"/>
										</g>
									</g>
								</g>
							</g>
							<g>
								<g>
									<g>
										<g>
											<g>
												<path style="fill:#F37453;" d="M246.137,239.926h6.652c0.306,0,0.554-0.248,0.554-0.554l0,0
													c0-0.306-0.248-0.554-0.554-0.554h-6.652c-0.306,0-0.554,0.248-0.554,0.554l0,0
													C245.583,239.678,245.831,239.926,246.137,239.926z"/>
											</g>
										</g>
									</g>
								</g>
								<g>
									<g>
										<g>
											<g>
												<path style="fill:#F37453;" d="M244.808,244.105h6.652c0.306,0,0.554-0.248,0.554-0.555l0,0
													c0-0.306-0.248-0.554-0.554-0.554h-6.652c-0.306,0-0.554,0.248-0.554,0.554l0,0
													C244.254,243.857,244.502,244.105,244.808,244.105z"/>
											</g>
										</g>
									</g>
								</g>
							</g>
						</g>
					</g>
					<g>
						<g>
							<g>
								<g>
									<g>
										<g>
											<path style="fill:#F37453;" d="M263.155,232.084l0.21-0.676c0.153-0.492,0.608-0.827,1.124-0.827h7.758
												c0.795,0,1.439,0.644,1.439,1.439v25.183h-39.932V234.35c0-0.794,0.644-1.439,1.439-1.439h26.839
												C262.546,232.912,263.002,232.576,263.155,232.084z"/>
										</g>
									</g>
								</g>
							</g>
							<g>
								<g>
									<g>
										<g>
											
												<rect x="235.583" y="234.871" transform="matrix(-1 -1.224647e-16 1.224647e-16 -1 507.0761 493.1434)" style="fill:#FFFFFF;" width="35.91" height="23.401"/>
										</g>
									</g>
								</g>
							</g>
							<g>
								<g>
									<g>
										<g>
											<path style="fill:#FFB255;" d="M234.625,258.272h38.565c0.423,0,0.787-0.297,0.872-0.711l4.134-20.109
												c0.114-0.552-0.308-1.07-0.872-1.07h-38.565c-0.423,0-0.787,0.297-0.872,0.711l-4.134,20.109
												C233.639,257.755,234.061,258.272,234.625,258.272z"/>
										</g>
									</g>
								</g>
							</g>
						</g>
						<g>
							<g>
								<g>
									<g>
										<g>
											<path style="fill:#F37453;" d="M266.912,243.089h6.652c0.306,0,0.554-0.248,0.554-0.555l0,0
												c0-0.306-0.248-0.554-0.554-0.554h-6.652c-0.306,0-0.554,0.248-0.554,0.554l0,0
												C266.358,242.841,266.606,243.089,266.912,243.089z"/>
										</g>
									</g>
								</g>
							</g>
							<g>
								<g>
									<g>
										<g>
											<g>
												<path style="fill:#F37453;" d="M267.58,241h6.652c0.306,0,0.554-0.248,0.554-0.554l0,0c0-0.306-0.248-0.554-0.554-0.554
													h-6.652c-0.306,0-0.554,0.248-0.554,0.554l0,0C267.025,240.752,267.274,241,267.58,241z"/>
											</g>
										</g>
									</g>
								</g>
								<g>
									<g>
										<g>
											<g>
												<path style="fill:#F37453;" d="M266.251,245.178h6.652c0.306,0,0.554-0.248,0.554-0.554l0,0
													c0-0.306-0.248-0.555-0.554-0.555h-6.652c-0.306,0-0.554,0.248-0.554,0.555l0,0
													C265.697,244.93,265.945,245.178,266.251,245.178z"/>
											</g>
										</g>
									</g>
								</g>
							</g>
						</g>
					</g>
					<g>
						<g>
							<g>
								<polygon style="fill:#FFFFFF;" points="286.655,277.75 242.616,277.75 236.918,247.369 280.956,247.369 								"/>
							</g>
						</g>
						<g>
							<g>
								<path style="fill:#1C84AA;" d="M264.397,262.559c0,1.358-1.101,2.459-2.459,2.459s-2.459-1.101-2.459-2.459
									s1.101-2.459,2.459-2.459S264.397,261.201,264.397,262.559z"/>
							</g>
						</g>
					</g>
					<g>
						<g>
							<polygon style="fill:#B0C8EA;" points="242.863,277.75 210.318,277.75 204.373,247.369 236.918,247.369 							"/>
						</g>
					</g>
				</g>
				<g>
					<path style="fill:#3E3849;" d="M102.963,235.474c-0.079,0-0.149-0.057-0.163-0.137l-4.738-27.491h36.493
						c0.091,0,0.165,0.074,0.165,0.165c0,0.091-0.074,0.165-0.165,0.165h-36.1l4.672,27.105c0.016,0.09-0.045,0.175-0.135,0.191
						C102.982,235.474,102.973,235.474,102.963,235.474z"/>
				</g>
				<g>
					<path style="fill:#3E3849;" d="M153.475,235.474c-0.079,0-0.149-0.057-0.163-0.137l-4.738-27.491h36.493
						c0.091,0,0.165,0.074,0.165,0.165c0,0.091-0.074,0.165-0.165,0.165h-36.101l4.672,27.105c0.016,0.09-0.045,0.175-0.135,0.191
						C153.494,235.474,153.484,235.474,153.475,235.474z"/>
				</g>
				<g>
					<path style="fill:#3E3849;" d="M203.46,235.474c-0.079,0-0.149-0.057-0.163-0.137l-4.738-27.491h36.493
						c0.091,0,0.165,0.074,0.165,0.165c0,0.091-0.074,0.165-0.165,0.165h-36.101l4.671,27.105c0.016,0.09-0.044,0.175-0.135,0.191
						C203.479,235.474,203.469,235.474,203.46,235.474z"/>
				</g>
				<g>
					<path style="fill:#3E3849;" d="M111.472,276.5c-0.079,0-0.149-0.057-0.162-0.137l-4.738-27.492h36.493
						c0.091,0,0.165,0.074,0.165,0.165c0,0.091-0.074,0.165-0.165,0.165h-36.101l4.672,27.105c0.016,0.09-0.045,0.176-0.135,0.191
						C111.491,276.499,111.481,276.5,111.472,276.5z"/>
				</g>
				<g>
					<path style="fill:#3E3849;" d="M162.38,277.056c-0.079,0-0.149-0.057-0.163-0.137l-4.738-27.492h36.493
						c0.091,0,0.165,0.074,0.165,0.165c0,0.091-0.074,0.165-0.165,0.165h-36.101l4.672,27.105c0.016,0.09-0.045,0.175-0.135,0.191
						C162.399,277.056,162.389,277.056,162.38,277.056z"/>
				</g>
				<g>
					<path style="fill:#3E3849;" d="M246.035,277.056c-0.079,0-0.149-0.057-0.163-0.137l-4.738-27.492h36.492
						c0.091,0,0.165,0.074,0.165,0.165c0,0.091-0.074,0.165-0.165,0.165h-36.1l4.671,27.105c0.016,0.09-0.044,0.175-0.135,0.191
						C246.054,277.056,246.044,277.056,246.035,277.056z"/>
				</g>
			</g>
			<g>
				<g>
					<path style="fill:#FFAEBF;" d="M361.721,295.841c-0.974,24.338-0.279,48.742,2.077,72.984
						c14.39,1.447,28.511,1.184,42.884-0.428c0.05-5.337-0.615-10.677-0.368-16.008c3.058,5.125,5.061,10.061,7.364,15.566
						c15.037-1.159,29.111-3.03,43.919-5.889c-4.12-20.086-11.725-39.714-22.024-57.445c-6.561-11.297-15.775-22.853-28.728-24.552
						c-14.532-1.906-27.168,9.176-40.921,14.243C365.695,293.419,361.95,296.734,361.721,295.841z"/>
				</g>
				<g>
					<path style="fill:#5D466D;" d="M337.444,177.493c2.8-3.164,7.527-5.324,7.854-9.536c0.267-3.433-2.705-6.995-1.105-10.044
						c1.355-2.583,5.196-2.933,6.702-5.431c1.552-2.575-0.154-5.958,0.587-8.872c1.125-4.423,6.813-5.502,11.371-5.716
						c3.984-0.187,7.968-0.374,11.952-0.561c7.654-0.359,15.944-0.544,22.213,3.862c6.806,4.784,9.782,14.081,17.236,17.775
						c6.187,3.066,13.54,1.346,20.44,1.627c6.228,0.254,12.768,2.527,16.355,7.624c4.481,6.368,3.484,15.696,8.753,21.429
						c5.909,6.428,16.587,5.167,23.891,9.952c4.114,2.695,6.891,7.335,7.323,12.235c0.429,4.869-1.315,9.92,0.147,14.584
						c1.609,5.134,6.611,8.341,9.695,12.75c2.893,4.135,4.036,9.341,3.75,14.38c-0.377,6.654-3.264,13.215-8.222,17.669
						c-6.189,5.56-14.837,7.422-23.126,8.147c-10.385,0.909-21.172,0.297-30.668-4.004c-6.391-2.894-11.939-7.334-17.377-11.767
						c-15.705-12.8-31.413-26.11-49.958-34.27c-4.923-2.166-10.048-4.127-14.442-7.292c-3.477-2.505-6.28-5.487-8.571-9.089
						c-2.294-3.607-4.922-6.542-8.247-9.251c-3.92-3.194-7.372-7.119-8.858-12.04c-1.279-4.236-1.177-9.139,1.344-12.914
						C336.775,178.303,337.096,177.886,337.444,177.493z"/>
				</g>
				<g>
					<path style="fill:#FFB594;" d="M324.237,216.233c-2.82-0.574-5.64-1.147-8.461-1.721c-2.296-0.467-4.672-0.968-6.561-2.354
						c-2.465-1.808-3.72-4.866-4.23-7.881c-1.119-6.607,0.784-13.324,2.922-19.675c2.971-8.823,6.922-18.08,14.846-22.966
						c2.215-1.365,4.655-2.327,6.901-3.64c4.465-2.612,8.091-6.635,10.226-11.347c0.439-0.968,0.797-2.164,0.188-3.035
						c-0.55-0.785-1.7-0.935-2.605-0.618c-0.905,0.317-1.63,0.991-2.354,1.62c-1.53,1.328-3.173,2.526-4.906,3.575
						c-0.699,0.423-1.497,0.836-2.295,0.661c-0.985-0.216-1.584-1.296-1.591-2.305c-0.007-1.009,0.436-1.959,0.875-2.867
						c3.162-6.545,6.591-12.961,10.276-19.227c0.477-0.812,0.554-1.939,0.143-2.786c-0.512-1.054-1.953-1.367-3.057-0.976
						c-1.104,0.391-1.937,1.295-2.691,2.192c-2.136,2.538-4.029,5.281-5.646,8.177c-0.11-0.197-0.114-0.594-0.073-0.816
						c-1.328-0.819-3.26-0.436-4.175,0.829c-0.211-0.392-0.752-0.513-1.197-0.53c-1.061-0.041-2.137-0.08-3.169,0.169
						c-1.032,0.249-2.031,0.826-2.55,1.752c-0.508-0.731-1.735-0.912-2.607-0.731c-1.352,0.282-2.516,1.18-3.359,2.274
						c-0.844,1.094-1.401,2.378-1.901,3.665c-0.191,0.491-0.377,0.997-0.379,1.524s0.217,1.085,0.671,1.351
						c-3.208,5.558-3.929,12.425-6.84,18.145c-1.359,2.671-3.163,5.084-4.893,7.531c-2.731,3.862-5.303,7.846-7.465,12.053
						c-5.991,11.656-8.715,24.969-7.784,38.04c0.19,2.673,0.543,5.383,1.652,7.823c5.413,11.911,17.22,19.929,29.855,23.324
						c2.848,0.765,5.758,1.268,8.663,1.769c3.223,0.556,6.446,1.112,9.669,1.669C330.35,239.029,328.486,227.321,324.237,216.233z"
						/>
				</g>
				<g>
					<path style="fill:#F4755E;" d="M317.967,141.959c-0.597,0-1.15-0.219-1.508-0.604c-0.442-0.476-0.612-1.194-0.505-2.135
						c0.18-1.611,0.902-3.229,2.144-4.807c1.085-1.376,2.418-2.541,3.707-3.667c0.123-0.107,0.314-0.097,0.424,0.029
						c0.109,0.125,0.096,0.316-0.029,0.425c-1.268,1.108-2.579,2.253-3.63,3.585c-1.172,1.488-1.851,3.003-2.019,4.502
						c-0.086,0.759,0.032,1.316,0.349,1.657c0.273,0.293,0.723,0.441,1.215,0.406c0.53-0.042,1.039-0.295,1.375-0.481
						c1.561-0.864,2.918-2.275,4.036-4.194c0.967-1.66,1.637-3.476,2.353-5.506c0.055-0.156,0.226-0.239,0.383-0.184
						c0.156,0.055,0.239,0.227,0.183,0.384c-0.724,2.06-1.406,3.904-2.4,5.609c-1.173,2.013-2.607,3.5-4.264,4.418
						c-0.386,0.213-0.972,0.502-1.62,0.554C318.096,141.956,318.031,141.959,317.967,141.959z"/>
				</g>
				<g>
					<path style="fill:#F4755E;" d="M312.996,141.532c-0.15,0-0.302-0.008-0.452-0.024c-0.504-0.054-0.886-0.196-1.169-0.433
						c-0.227-0.189-0.406-0.452-0.544-0.802c-0.315-0.799-0.311-1.771,0.011-2.736c0.293-0.877,0.79-1.639,1.285-2.331
						c0.798-1.121,1.694-2.192,2.661-3.183c0.115-0.116,0.306-0.121,0.425-0.005c0.119,0.116,0.121,0.307,0.005,0.426
						c-0.945,0.969-1.821,2.016-2.602,3.111c-0.467,0.655-0.934,1.37-1.202,2.172c-0.277,0.832-0.286,1.657-0.022,2.324
						c0.101,0.254,0.222,0.438,0.371,0.562c0.189,0.159,0.465,0.255,0.846,0.296c1.197,0.128,2.432-0.335,3.245-1.206
						c0.113-0.122,0.306-0.127,0.426-0.014c0.121,0.113,0.128,0.304,0.014,0.426C315.454,141.011,314.223,141.532,312.996,141.532z"
						/>
				</g>
				<g>
					<path style="fill:#F4755E;" d="M308.43,141.009c-0.047,0-0.095-0.001-0.142-0.004c-0.677-0.03-1.259-0.297-1.596-0.731
						c-0.354-0.454-0.458-1.122-0.279-1.788c0.153-0.569,0.474-1.067,0.757-1.505c0.092-0.14,0.276-0.18,0.416-0.09
						c0.14,0.09,0.18,0.276,0.089,0.415c-0.271,0.422-0.552,0.857-0.682,1.336c-0.13,0.484-0.066,0.957,0.173,1.262
						c0.229,0.295,0.648,0.477,1.15,0.5c0.809,0.033,1.671-0.343,2.187-0.997c0.105-0.13,0.295-0.151,0.423-0.049
						c0.13,0.104,0.153,0.293,0.049,0.423C310.37,140.546,309.405,141.009,308.43,141.009z"/>
				</g>
				<g>
					<path style="fill:#F4755E;" d="M309.76,162.202c-0.129,0-0.248-0.084-0.288-0.213c-0.048-0.159,0.041-0.327,0.2-0.376
						c0.679-0.207,1.315-0.434,1.636-0.926c0.247-0.38,0.281-0.893,0.314-1.39l0.009-0.136c0.274-3.965,2.143-7.745,5.126-10.372
						c0.391-0.345,0.802-0.669,1.211-0.994c0.579-0.459,1.178-0.933,1.706-1.457c0.349-0.347,0.732-0.853,0.574-1.288
						c-0.095-0.26-0.382-0.468-0.878-0.636c-1.346-0.455-2.842-0.488-4.289-0.518c-1.802-0.038-3.665-0.077-5.303-0.923
						c-0.148-0.076-0.206-0.257-0.13-0.406c0.076-0.149,0.261-0.207,0.406-0.129c1.516,0.782,3.229,0.818,5.041,0.856
						c1.491,0.032,3.035,0.065,4.469,0.55c0.681,0.23,1.088,0.558,1.249,1c0.213,0.581-0.034,1.245-0.714,1.921
						c-0.551,0.548-1.164,1.033-1.756,1.502c-0.402,0.317-0.803,0.635-1.187,0.973c-2.864,2.523-4.659,6.154-4.924,9.961
						l-0.008,0.134c-0.036,0.547-0.078,1.168-0.411,1.68c-0.431,0.661-1.174,0.932-1.963,1.173
						C309.819,162.198,309.789,162.202,309.76,162.202z"/>
				</g>
				<g>
					<path style="fill:#F4755E;" d="M301.086,219.168c-0.158,0-0.289-0.122-0.3-0.28l-0.213-3.097
						c-0.029-0.417-0.065-0.937,0.13-1.406c0.43-1.045,1.728-1.338,2.504-1.513c1.174-0.266,1.795-0.663,1.952-1.249
						c0.128-0.481-0.112-1.031-0.335-1.457c-0.419-0.801-0.932-1.553-1.527-2.238c-0.109-0.126-0.096-0.316,0.029-0.424
						c0.126-0.109,0.316-0.097,0.424,0.029c0.626,0.72,1.167,1.512,1.607,2.354c0.274,0.522,0.564,1.21,0.382,1.892
						c-0.29,1.085-1.509,1.478-2.401,1.68c-0.895,0.203-1.791,0.458-2.079,1.157c-0.141,0.34-0.112,0.762-0.087,1.135l0.213,3.097
						c0.012,0.166-0.114,0.31-0.28,0.321C301.1,219.168,301.093,219.168,301.086,219.168z"/>
				</g>
				<g>
					<path style="fill:#90A36F;" d="M358.419,206.888c-11.301,4.169-23.294,6.458-35.336,6.744
						c4.861,12.539,6.312,25.936,5.986,39.38c-0.078,0-0.255,0.233-0.333,0.233c2.276,0.035,4.788-0.006,7.064,0.029
						c2.04,6.265,4.104,12.729,6.315,18.935c2.114,5.934,4.426,11.891,8.142,16.977c3.716,5.086,9.031,9.279,15.23,10.399
						c12.364,2.235,24.506-0.925,37.07-0.985c3.723-0.018,7.485,0.206,11.138-0.515c7.123-1.406,13.381-6.608,16.065-13.355
						c6.247-15.705-0.07-33.548-2.197-50.315c-0.358-2.817,0.288-5.554,0.267-8.394c-0.016-2.219-0.238-4.554-0.964-6.651
						c0.133-0.632,0.377-1.407,0.554-2.183c-2.895-2.438-5.542-4.199-8.825-6.082c-2.649-1.52-5.5-2.648-8.264-3.945
						c-3.492-1.638-6.861-3.551-10.458-4.943c-3.597-1.393-7.504-2.255-11.317-1.673c-2.154,0.328-4.152,0.953-6.249,1.545
						c-6.395,1.805-12.83,3.618-19.442,4.273C361.498,206.499,359.709,206.412,358.419,206.888z"/>
				</g>
				<g>
					<path style="fill:#FFB594;" d="M376.775,146.867c-4.149-0.697-8.583,0.55-11.76,3.308c-4.618,4.008-6.166,10.393-8.97,15.827
						c-2.044,3.961-4.936,7.924-4.508,12.361c0.413,4.274,3.974,7.718,7.974,9.281c4,1.563,8.408,1.606,12.702,1.628
						c-0.461,3.865-1.207,7.985-3.873,10.821c-1.319,1.402-3.004,2.394-4.666,3.367c-2.096,1.227-4.192,2.454-6.288,3.681
						c-0.469,2.502-0.938,4.929-0.821,7.471c0.117,2.542,0.877,5.138,2.591,7.02c1.842,2.021,4.623,3.018,7.355,3.117
						c2.733,0.099,5.436-0.622,7.99-1.598c1.186-0.454,2.359-0.968,3.403-1.691c1.687-1.169,2.96-2.83,4.194-4.469
						c1.735-2.305,3.449-4.626,5.163-6.947c2.213-2.996,4.481-6.112,5.275-9.751c-2.424-1.197-4.853-2.519-6.729-4.466
						c-2.292-2.379-3.466-5.812-3.039-9.089c0.427-3.276,2.471-6.317,5.378-7.887c0.656-0.354,1.353-0.637,1.983-1.037
						c1.635-1.036,2.738-2.868,2.888-4.798c0.08-1.036-0.185-2.218-1.072-2.758c-1.722-1.047-4.316,1.032-5.829-0.299
						c-0.813-0.715-0.734-2.013-0.366-3.031c0.368-1.018,0.961-1.997,0.966-3.079c0.014-3.129,1.005-6.283,0.05-9.262
						c-0.391-1.217-1.106-2.31-1.941-3.279C383.01,149.199,379.52,147.328,376.775,146.867z"/>
				</g>
				<g>
					<path style="fill:#FFB594;" d="M464.519,279.629c-0.317-3.535-2.414-6.623-3.642-9.953c-0.986-2.675-1.412-5.523-2.269-8.241
						c-1.215-3.853-3.277-7.381-5.492-10.76c-7.473-11.398-16.826-21.427-26.27-31.254c-2.005,7.617-6.508,14.324-12.754,19.122
						c-0.563-0.763-1.428-1.115-2.342-0.86c-0.084-0.736-0.256-1.462-0.512-2.157c-0.269-0.731-0.646-1.447-1.246-1.943
						c-0.6-0.496-1.191-0.806-1.911-0.511c-0.003-1.432-1.233-2.697-2.66-2.577c-1-4.171-2.337-8.262-3.995-12.218
						c-0.457-1.091-0.969-2.213-1.879-2.969c-0.911-0.756-2.336-1.025-3.27-0.298c-0.548,0.427-0.834,1.109-0.989,1.786
						c-0.618,2.706,0.515,5.457,1.11,8.168c1.151,5.248,0.211,10.925-2.57,15.522c-0.525,0.868-1.302,1.795-2.314,1.723
						c-1.531-0.109-1.886-2.159-1.966-3.691c-0.116-2.215-0.572-4.412-1.346-6.491c-0.252-0.677-0.61-1.412-1.293-1.646
						c-0.761-0.261-1.579,0.225-2.133,0.809c-1.917,2.023-2.079,5.099-2.019,7.885c0.134,6.231,0.84,12.51,2.894,18.394
						c2.054,5.885,5.533,11.381,10.497,15.151c2.909,2.209,6.245,3.776,9.553,5.326c6.789,3.181,13.456,7.76,20.738,9.543
						c10.298,2.521,21.394,3.74,31.814,1.785C462.541,288.47,464.888,283.745,464.519,279.629z M420.974,265.614
						c-2.298,0.111-4.619-0.245-6.778-1.041c-0.708-0.261-1.417-0.581-1.946-1.119c-1.257-1.279-1.136-3.35-0.728-5.096
						c0.759-3.245,2.221-6.324,4.257-8.962c0.844,1.624,1.627,3.205,2.408,4.86C419.864,257.808,421.663,261.748,420.974,265.614z"
						/>
				</g>
				<g>
					<path style="fill:#F4755E;" d="M371.523,193.546c1.555-0.225,2.972-1.077,4.084-2.187s1.943-2.469,2.658-3.869
						c0.712-1.394,1.42-2.815,1.203-4.365c-1.301,3.024-4.075,5.373-7.273,6.157c-0.053-0.041-0.041-0.017-0.047,0.049
						C372.021,190.769,371.827,192.137,371.523,193.546z"/>
				</g>
				<g>
					<path style="fill:#F4755E;" d="M390.357,172.492c0.134,0.04,0.271,0.1,0.356,0.212c0.075,0.098,0.102,0.224,0.117,0.346
						c0.111,0.922-0.383,1.826-1.043,2.478c-0.754,0.745-1.775,1.255-2.834,1.252c-0.662-0.002-1.362-0.307-1.389-1.059
						c-0.014-0.39,0.305-0.562,0.624-0.69c0.402-0.161,0.823-0.296,1.131-0.617c0.211-0.22,0.302-0.5,0.454-0.757
						c0.163-0.278,0.382-0.523,0.635-0.722C388.951,172.509,389.681,172.289,390.357,172.492z"/>
				</g>
				<g>
					<path style="fill:#F4755E;" d="M361.084,172.965c-0.04,0-0.081-0.008-0.12-0.025c-0.153-0.066-0.222-0.244-0.156-0.396
						c0.228-0.525,0.217-1.147-0.029-1.664c-0.027-0.058-0.056-0.113-0.086-0.169c-0.1-0.189-0.213-0.404-0.241-0.658
						c-0.065-0.632,0.418-1.139,0.926-1.362c0.326-0.143,0.665-0.2,0.994-0.255c0.136-0.023,0.273-0.045,0.407-0.075
						c1.064-0.232,2.021-0.934,2.561-1.878c0.009-0.021,0.018-0.028,0.028-0.016c-0.074-0.11-0.068-0.261,0.023-0.366
						c0.111-0.127,0.301-0.139,0.424-0.029c0.189,0.165,0.206,0.43,0.046,0.709c-0.623,1.09-1.728,1.9-2.954,2.168
						c-0.145,0.032-0.292,0.056-0.437,0.081c-0.306,0.05-0.594,0.099-0.851,0.211c-0.307,0.136-0.602,0.436-0.569,0.749
						c0.014,0.138,0.092,0.285,0.174,0.44c0.033,0.064,0.067,0.128,0.096,0.192c0.321,0.671,0.335,1.48,0.039,2.162
						C361.311,172.898,361.201,172.965,361.084,172.965z M365.42,166.525l0.001,0.001L365.42,166.525z"/>
				</g>
				<g>
					<path style="fill:#F4755E;" d="M363.829,182.418c-0.545,0-1.12-0.175-1.749-0.534c-0.145-0.082-0.194-0.266-0.112-0.41
						c0.082-0.145,0.264-0.195,0.41-0.113c0.584,0.334,1.104,0.476,1.569,0.451c0.453-0.028,0.994-0.275,1.182-0.763
						c0.06-0.156,0.236-0.234,0.389-0.173c0.155,0.06,0.233,0.234,0.173,0.389c-0.247,0.639-0.932,1.1-1.707,1.148
						C363.933,182.416,363.882,182.418,363.829,182.418z"/>
				</g>
				<g>
					<path style="fill:#F4755E;" d="M403.695,244.844c-0.015,0-0.032-0.001-0.047-0.004c-1.332-0.213-2.573-1.175-3.242-2.513
						c-0.725-1.451-0.689-3.008-0.53-4.059c0.215-1.425,0.755-2.743,1.255-3.845c0.52-1.139,1.127-2.326,2.053-3.295
						c0.536-0.559,1.378-1.198,2.359-1.077c0.165,0.021,0.282,0.171,0.261,0.336c-0.02,0.164-0.156,0.283-0.336,0.261
						c-0.744-0.094-1.409,0.437-1.849,0.896c-0.865,0.904-1.443,2.038-1.941,3.128c-0.483,1.064-1.004,2.333-1.208,3.685
						c-0.146,0.966-0.181,2.391,0.474,3.701c0.583,1.167,1.655,2.005,2.797,2.187c0.165,0.026,0.276,0.18,0.25,0.345
						C403.969,244.738,403.841,244.844,403.695,244.844z"/>
				</g>
				<g>
					<path style="fill:#F4755E;" d="M407.052,246.936c-0.743,0-1.486-0.193-2.13-0.575c-0.574-0.34-0.987-0.784-1.198-1.284
						c-0.215-0.512-0.219-1.06-0.19-1.576c0.183-3.41,1.623-6.894,4.402-10.652c0.099-0.133,0.288-0.16,0.421-0.063
						c0.134,0.099,0.162,0.287,0.063,0.421c-2.707,3.661-4.108,7.039-4.284,10.327c-0.025,0.445-0.025,0.91,0.143,1.311
						c0.202,0.48,0.628,0.808,0.948,0.999c0.999,0.589,2.272,0.654,3.32,0.166c0.149-0.072,0.33-0.005,0.4,0.146
						c0.071,0.151,0.005,0.33-0.146,0.4C408.253,246.81,407.653,246.936,407.052,246.936z"/>
				</g>
				<g>
					<path style="fill:#F4755E;" d="M410.825,248.193c-0.276,0-0.564-0.022-0.845-0.089c-0.63-0.153-1.139-0.54-1.362-1.037
						c-0.256-0.571-0.135-1.186,0.012-1.766c0.672-2.684,1.627-5.312,2.837-7.811c0.072-0.151,0.253-0.212,0.402-0.14
						c0.149,0.072,0.212,0.253,0.139,0.402c-1.191,2.462-2.132,5.051-2.795,7.696c-0.12,0.478-0.223,0.977-0.045,1.373
						c0.147,0.329,0.503,0.589,0.953,0.698c0.455,0.111,0.957,0.072,1.398,0.038c0.322-0.024,0.688-0.052,0.987-0.19
						c0.354-0.163,0.659-0.505,0.861-0.963c0.19-0.436,0.279-0.934,0.364-1.416c0.028-0.164,0.183-0.281,0.349-0.244
						c0.163,0.029,0.273,0.185,0.243,0.349c-0.092,0.517-0.186,1.051-0.407,1.553c-0.261,0.592-0.672,1.042-1.16,1.268
						c-0.398,0.184-0.838,0.217-1.193,0.245C411.34,248.174,411.087,248.193,410.825,248.193z"/>
				</g>
				<g>
					<path style="fill:#F4755E;" d="M414.507,246.644c-0.139,0-0.264-0.097-0.294-0.238c-0.183-0.859-0.577-1.669-1.138-2.341
						c-0.106-0.128-0.089-0.317,0.039-0.424c0.127-0.107,0.316-0.089,0.424,0.038c0.623,0.748,1.059,1.647,1.262,2.601
						c0.035,0.163-0.068,0.323-0.232,0.357C414.549,246.641,414.527,246.644,414.507,246.644z"/>
				</g>
				<g>
					<path style="fill:#F4755E;" d="M396.315,262.336c-0.114,0-0.223-0.065-0.274-0.176c-0.069-0.152-0.002-0.33,0.149-0.399
						c2.309-1.054,3.523-4.054,2.546-6.295c-0.287-0.659-0.743-1.275-1.184-1.872c-0.701-0.947-1.425-1.925-1.544-3.141
						c-0.087-0.888,0.28-1.846,0.957-2.5c0.577-0.558,1.281-0.812,1.999-0.719c0.465,0.061,0.879,0.255,1.299,0.465
						c0.283,0.142,0.567,0.29,0.852,0.438c1.806,0.937,3.672,1.906,5.628,1.72c0.156-0.016,0.311,0.106,0.328,0.271
						c0.015,0.165-0.106,0.312-0.272,0.328c-2.14,0.2-4.079-0.809-5.961-1.785c-0.283-0.147-0.564-0.293-0.845-0.434
						c-0.37-0.186-0.735-0.357-1.107-0.406c-0.529-0.076-1.06,0.127-1.502,0.555c-0.548,0.53-0.845,1.299-0.776,2.009
						c0.102,1.05,0.746,1.921,1.428,2.842c0.462,0.624,0.939,1.268,1.253,1.99c1.119,2.57-0.212,5.879-2.849,7.083
						C396.4,262.328,396.357,262.336,396.315,262.336z"/>
				</g>
				<g>
					<path style="fill:#F4755E;" d="M420.502,265.727c-0.148,0-0.277-0.109-0.299-0.26c-0.022-0.165,0.093-0.316,0.257-0.339
						c4.687-0.642,9.535-1.306,14.206-2.426c0.936-0.224,1.868-0.467,2.799-0.71c2.132-0.556,4.336-1.131,6.558-1.463
						c3.634-0.546,6.334-0.099,8.251,1.36c0.434,0.33,0.822,0.712,1.198,1.083c0.4,0.392,0.776,0.763,1.204,1.08
						c0.73,0.54,1.825,0.97,2.72,0.557c0.149-0.072,0.33-0.005,0.4,0.146c0.07,0.151,0.005,0.329-0.146,0.399
						c-0.961,0.448-2.207,0.216-3.332-0.619c-0.461-0.342-0.871-0.745-1.267-1.134c-0.379-0.373-0.737-0.726-1.14-1.033
						c-1.783-1.356-4.332-1.763-7.797-1.243c-2.19,0.328-4.378,0.899-6.494,1.451c-0.936,0.244-1.871,0.488-2.81,0.713
						c-4.7,1.127-9.563,1.793-14.264,2.437C420.529,265.726,420.515,265.727,420.502,265.727z"/>
				</g>
				<g>
					<path style="fill:#FFFFFF;" d="M362.665,174.33c1.106-0.153,2.385-0.163,3.156,0.644c0.658,0.689,0.707,1.823,0.25,2.659
						c-0.457,0.835-1.335,1.383-2.26,1.612c-1.174,0.29-2.458,0.104-3.501-0.508s-1.831-1.643-2.149-2.809
						c-0.16-0.586-0.123-1.699,0.706-1.747c0.284-0.016,0.572,0.091,0.843,0.163c0.407,0.108,0.815,0.17,1.237,0.166
						C361.524,174.505,362.095,174.409,362.665,174.33z"/>
				</g>
				<g>
					<path style="fill:#FF7F61;" d="M373.52,173.802c-0.354,1.013-2.098,1.325-3.896,0.697c-1.797-0.628-2.967-1.959-2.613-2.972
						c0.354-1.013,2.098-1.325,3.896-0.697C372.704,171.458,373.874,172.789,373.52,173.802z"/>
				</g>
				<g>
					<path style="fill:#FF7F61;" d="M359.938,168.868c-0.322,0.922-1.461,1.362-2.543,0.984c-1.082-0.378-1.698-1.432-1.376-2.354
						c0.322-0.922,1.461-1.363,2.543-0.984C359.644,166.892,360.26,167.946,359.938,168.868z"/>
				</g>
				<g>
					<path style="fill:#5D466D;" d="M378.685,165.146c-0.235-0.352-0.5-0.686-0.758-1.021c-0.444-0.577-0.879-1.181-1.095-1.876
						c-0.352-1.129,0.103-2.852,1.553-2.771c0.518,0.029,1.001,0.3,1.365,0.669c0.364,0.369,0.621,0.83,0.835,1.303
						c0.549,1.213,0.842,2.561,0.708,3.886c-0.044,0.434-0.142,0.884-0.426,1.215c-0.284,0.331-0.8,0.496-1.172,0.268
						c-0.302-0.185-0.423-0.554-0.566-0.878C379.007,165.662,378.854,165.4,378.685,165.146z"/>
				</g>
				<g>
					<path style="fill:#5D466D;" d="M363.308,158.999c0.387-0.011,0.776,0.01,1.163,0.025c0.665,0.026,1.346,0.031,1.979-0.175
						c1.029-0.335,2.074-1.586,1.246-2.626c-0.296-0.371-0.754-0.588-1.222-0.665c-0.468-0.077-0.948-0.024-1.414,0.066
						c-1.196,0.232-2.356,0.727-3.275,1.528c-0.301,0.262-0.584,0.574-0.681,0.961c-0.097,0.387,0.053,0.859,0.42,1.016
						c0.298,0.127,0.637,0.023,0.954-0.042C362.753,159.032,363.029,159.008,363.308,158.999z"/>
				</g>
				<g>
					<path style="fill:#3B2C47;" d="M374.006,167.945c-0.452,0.996-1.349,1.564-2.003,1.267c-0.654-0.297-0.819-1.345-0.367-2.341
						c0.452-0.996,1.348-1.564,2.003-1.267C374.293,165.9,374.457,166.949,374.006,167.945z"/>
				</g>
				<g>
					<path style="fill:#3B2C47;" d="M362.905,164.231c-0.377,0.832-1.126,1.306-1.672,1.058c-0.546-0.248-0.683-1.123-0.306-1.955
						c0.377-0.832,1.126-1.305,1.672-1.058C363.146,162.524,363.283,163.399,362.905,164.231z"/>
				</g>
				<g>
					<path style="fill:#F4755E;" d="M415.523,250.472c-0.028,0-0.057-0.003-0.084-0.012c-0.16-0.046-0.251-0.213-0.206-0.373
						c0.159-0.545,0.474-1.003,0.779-1.445c0.182-0.265,0.354-0.515,0.494-0.781c0.585-1.115,0.521-2.37,0.363-3.225
						c-0.2-1.079-0.631-2.103-1.133-3.235c-0.396-0.894-0.764-1.692-1.261-2.415c-0.476-0.695-0.96-1.094-1.481-1.219
						c-0.323-0.078-0.691-0.012-0.969,0.17c-0.143,0.095-0.324,0.262-0.369,0.523c-0.028,0.164-0.176,0.274-0.347,0.246
						c-0.163-0.028-0.274-0.183-0.246-0.347c0.062-0.37,0.287-0.699,0.631-0.925c0.42-0.275,0.953-0.371,1.441-0.252
						c0.671,0.163,1.272,0.641,1.835,1.463c0.525,0.766,0.907,1.59,1.315,2.512c0.517,1.167,0.964,2.226,1.175,3.369
						c0.174,0.949,0.243,2.346-0.422,3.614c-0.157,0.298-0.348,0.575-0.532,0.842c-0.29,0.422-0.564,0.82-0.696,1.272
						C415.773,250.387,415.653,250.472,415.523,250.472z"/>
				</g>
				<g>
					<path style="fill:#016772;" d="M335.811,253.932c-0.124,0-0.239-0.076-0.283-0.198c-1.879-5.16-0.565-10.673,0.869-14.388
						c1.172-3.038,2.772-5.929,4.318-8.724c0.763-1.38,1.553-2.806,2.279-4.231c0.549-1.078,1.081-2.23,1.031-3.396
						c-0.046-1.065-0.782-2.274-1.89-2.371c-0.166-0.015-0.288-0.16-0.274-0.326c0.015-0.165,0.167-0.287,0.326-0.273
						c1.453,0.127,2.381,1.597,2.44,2.944c0.056,1.312-0.51,2.545-1.097,3.695c-0.731,1.433-1.523,2.865-2.288,4.249
						c-1.537,2.778-3.126,5.65-4.283,8.649c-1.396,3.62-2.68,8.981-0.864,13.966c0.056,0.156-0.025,0.329-0.18,0.385
						C335.88,253.926,335.845,253.932,335.811,253.932z"/>
				</g>
				<g>
					<path style="fill:#016772;" d="M378.521,270.408c-0.072,0-0.142-0.025-0.2-0.076c-3.059-2.715-6.224-5.521-9.754-7.7
						c-6.222-3.839-13.665-5.712-20.964-5.269c-0.165,0.018-0.308-0.116-0.319-0.282c-0.009-0.166,0.116-0.309,0.283-0.319
						c7.413-0.449,14.99,1.454,21.314,5.357c3.577,2.206,6.761,5.031,9.839,7.762c0.125,0.111,0.135,0.3,0.025,0.425
						C378.687,270.374,378.604,270.408,378.521,270.408z"/>
				</g>
				<g>
					<path style="fill:#016772;" d="M366.798,270.365c-0.071,0-0.142-0.025-0.2-0.076c-2.976-2.635-6.562-4.632-10.37-5.776
						c-0.159-0.048-0.249-0.216-0.201-0.374c0.047-0.159,0.21-0.25,0.375-0.201c3.889,1.169,7.554,3.209,10.596,5.902
						c0.125,0.11,0.135,0.3,0.026,0.424C366.963,270.331,366.881,270.365,366.798,270.365z"/>
				</g>
				<g>
					<path style="fill:#016772;" d="M366.946,228.195c-0.759,0-1.513-0.048-2.257-0.146c-2.104-0.277-5.087-1.081-7.36-3.344
						c-3.854-3.842-3.875-9.957-3.323-15.993c0.015-0.165,0.161-0.29,0.327-0.272c0.166,0.015,0.288,0.162,0.273,0.327
						c-0.502,5.486-0.714,11.662,3.149,15.511c2.153,2.145,5.002,2.91,7.012,3.174c6.379,0.838,13.455-2.089,18.949-7.828
						c4.987-5.209,8.176-11.796,11.26-18.167c0.072-0.15,0.253-0.213,0.402-0.14c0.149,0.072,0.211,0.253,0.139,0.402
						c-3.104,6.412-6.314,13.043-11.366,18.321C379.163,225.251,372.878,228.195,366.946,228.195z"/>
				</g>
				<g>
					<path style="fill:#016772;" d="M335.162,237.295c-0.16,0-0.293-0.125-0.301-0.286c-0.394-8.124-2.078-16.092-5.006-23.682
						c-0.06-0.155,0.018-0.329,0.173-0.389c0.152-0.06,0.329,0.016,0.389,0.173c2.951,7.65,4.649,15.681,5.046,23.869
						c0.008,0.166-0.12,0.307-0.287,0.315C335.172,237.295,335.167,237.295,335.162,237.295z"/>
				</g>
				<g>
					<path style="fill:#016772;" d="M409.727,233.512c-0.086,0-0.172-0.037-0.232-0.109c-0.106-0.128-0.088-0.318,0.04-0.424
						c6.03-5,10.578-11.889,12.808-19.4c0.047-0.159,0.217-0.249,0.374-0.203c0.159,0.048,0.25,0.215,0.202,0.374
						c-2.263,7.622-6.879,14.616-13.001,19.691C409.863,233.489,409.795,233.512,409.727,233.512z"/>
				</g>
				<g>
					<path style="fill:#362A3F;" d="M495.915,265.251c-0.036,0-0.074-0.007-0.111-0.021c-0.154-0.061-0.23-0.235-0.169-0.39
						c1.535-3.905-1.06-8.011-2.247-9.595c-0.897-1.198-1.934-2.327-2.937-3.419c-1.358-1.479-2.761-3.007-3.857-4.743
						c-2.492-3.951-3.235-8.687-3.953-13.268c-0.704-4.486-1.431-9.125-3.813-12.958c-2.944-4.738-7.759-7.478-12.855-10.379
						c-4.063-2.313-8.265-4.705-11.378-8.198c-2.405-2.699-4.075-5.967-5.689-9.127c-1.318-2.578-2.679-5.243-4.429-7.573
						c-2.986-3.976-7.218-7.063-11.917-8.693c-2.652-0.919-5.489-1.4-8.232-1.866c-3.128-0.53-6.361-1.078-9.362-2.278
						c-5.617-2.245-10.198-6.726-12.567-12.293c-0.771-1.815-1.311-3.742-1.833-5.606c-0.605-2.164-1.232-4.402-2.22-6.442
						c-1.72-3.544-5.46-7.064-9.582-6.404c-0.158,0.026-0.319-0.086-0.344-0.25c-0.026-0.164,0.086-0.318,0.25-0.344
						c4.429-0.71,8.403,2.998,10.216,6.737c1.013,2.088,1.647,4.352,2.259,6.542c0.517,1.845,1.051,3.754,1.808,5.533
						c2.306,5.421,6.766,9.784,12.236,11.97c2.941,1.175,6.143,1.718,9.239,2.243c2.768,0.469,5.631,0.954,8.33,1.89
						c4.811,1.668,9.143,4.83,12.202,8.9c1.781,2.371,3.154,5.059,4.483,7.66c1.597,3.126,3.249,6.36,5.602,9
						c3.047,3.42,7.205,5.787,11.227,8.076c4.937,2.811,10.042,5.717,13.067,10.585c2.447,3.937,3.184,8.637,3.898,13.183
						c0.709,4.519,1.441,9.193,3.868,13.04c1.065,1.689,2.451,3.198,3.791,4.657c1.012,1.103,2.059,2.243,2.975,3.465
						c1.247,1.665,3.972,5.989,2.325,10.175C496.149,265.179,496.035,265.251,495.915,265.251z"/>
				</g>
				<g>
					<path style="fill:#362A3F;" d="M482.772,233.714c-0.085,0-0.168-0.035-0.228-0.105c-2.833-3.292-5.468-6.088-9.049-6.963
						c-1.039-0.254-2.145-0.329-3.215-0.401c-1.35-0.091-2.748-0.186-4.063-0.638c-2.595-0.892-4.779-3.098-6.49-6.554
						c-0.588-1.185-1.091-2.43-1.576-3.633c-0.647-1.603-1.316-3.259-2.187-4.771c-2.442-4.238-6.547-7.415-11.26-8.717
						c-2.983-0.825-6.16-0.899-9.231-0.971c-1.95-0.045-3.966-0.093-5.933-0.329c-9.841-1.182-19.224-7.504-24.489-16.496
						c-5.006-8.556-6.419-19.324-3.874-29.546c0.04-0.161,0.199-0.256,0.364-0.219c0.161,0.04,0.26,0.203,0.219,0.365
						c-2.506,10.07-1.118,20.675,3.811,29.095c5.171,8.834,14.383,15.043,24.042,16.204c1.937,0.233,3.939,0.28,5.875,0.325
						c3.108,0.073,6.322,0.148,9.377,0.993c4.865,1.344,9.101,4.623,11.622,8.996c0.892,1.549,1.569,3.225,2.224,4.847
						c0.481,1.192,0.979,2.425,1.556,3.591c1.127,2.275,3.109,5.207,6.147,6.252c1.24,0.426,2.536,0.514,3.909,0.607
						c1.094,0.074,2.226,0.15,3.317,0.417c3.754,0.917,6.461,3.783,9.362,7.154c0.108,0.126,0.094,0.316-0.032,0.424
						C482.912,233.689,482.842,233.714,482.772,233.714z"/>
				</g>
				<g>
					<path style="fill:#BA6075;" d="M414.021,367.623c-0.107,0-0.21-0.057-0.264-0.158l-16.171-29.897
						c-2.441-4.512-5.455-9.41-10.347-10.419c-0.162-0.033-0.267-0.193-0.234-0.355c0.034-0.163,0.188-0.271,0.356-0.234
						c5.145,1.061,8.248,6.091,10.753,10.721l16.171,29.897c0.079,0.146,0.025,0.329-0.121,0.408
						C414.118,367.611,414.069,367.623,414.021,367.623z"/>
				</g>
				<g>
					<path style="fill:#BA6075;" d="M429.398,310.98c-2.493,0-4.986-0.474-7.293-1.428c-5.047-2.087-9.096-6.425-10.831-11.602
						c-0.053-0.157,0.033-0.328,0.19-0.381c0.16-0.055,0.328,0.032,0.381,0.189c1.68,5.015,5.601,9.216,10.49,11.238
						c4.885,2.019,10.629,1.817,15.363-0.546c0.146-0.074,0.329-0.014,0.403,0.135c0.074,0.149,0.014,0.33-0.135,0.404
						C435.315,310.312,432.357,310.98,429.398,310.98z"/>
				</g>
				<g>
					<path style="fill:#BA6075;" d="M395.523,337.777c-0.044,0-0.087-0.009-0.128-0.029l-9.71-4.562
						c-0.15-0.07-0.215-0.25-0.145-0.4c0.072-0.151,0.254-0.213,0.401-0.144l9.71,4.562c0.151,0.071,0.215,0.25,0.145,0.4
						C395.744,337.713,395.636,337.777,395.523,337.777z"/>
				</g>
				<g>
					<path style="fill:#BA6075;" d="M447.855,363.523c-0.163,0-0.297-0.13-0.301-0.294c-0.405-18.759-5.805-37.129-15.615-53.124
						c-0.087-0.142-0.042-0.327,0.099-0.414c0.142-0.088,0.328-0.043,0.414,0.099c9.866,16.086,15.296,34.56,15.704,53.426
						c0.004,0.166-0.128,0.304-0.294,0.307C447.86,363.523,447.858,363.523,447.855,363.523z"/>
				</g>
			</g>
			<g>
				<g>
					<g>
						<g>
							<g>
								<g>
									<path style="fill:#F37453;" d="M302.314,71.526l0.155-1.174c0.113-0.854,0.769-1.536,1.618-1.682l12.789-2.198
										c1.31-0.225,2.554,0.654,2.779,1.964l7.133,41.515l-65.83,11.312l-6.473-37.673c-0.225-1.31,0.654-2.554,1.964-2.779
										l44.246-7.603C301.545,73.063,302.201,72.381,302.314,71.526z"/>
								</g>
							</g>
						</g>
					</g>
					<g>
						<g>
							<g>
								<g>
									
										<rect x="260.531" y="78.562" transform="matrix(-0.9856 0.1693 -0.1693 -0.9856 593.5503 145.6429)" style="fill:#FFFFFF;" width="60.067" height="39.143"/>
								</g>
							</g>
						</g>
					</g>
					<g>
						<g>
							<g>
								<g>
									<path style="fill:#FFB255;" d="M262.7,122.78l63.576-10.924c0.697-0.12,1.214-0.713,1.237-1.419l1.118-34.321
										c0.031-0.943-0.811-1.676-1.741-1.517l-63.576,10.924c-0.697,0.12-1.213,0.713-1.236,1.42l-1.119,34.321
										C260.928,122.206,261.771,122.939,262.7,122.78z"/>
								</g>
							</g>
						</g>
					</g>
				</g>
				<g>
					<g>
						<g>
							<g>
								<g>
									<path style="fill:#F37453;" d="M311.626,88.604l10.966-1.884c0.505-0.087,0.844-0.566,0.757-1.071l0,0
										c-0.087-0.505-0.566-0.844-1.071-0.757l-10.966,1.884c-0.504,0.087-0.843,0.566-0.757,1.071l0,0
										C310.641,88.351,311.121,88.69,311.626,88.604z"/>
								</g>
							</g>
						</g>
					</g>
					<g>
						<g>
							<g>
								<g>
									<g>
										<path style="fill:#F37453;" d="M312.134,84.97l10.966-1.884c0.505-0.087,0.844-0.566,0.757-1.071l0,0
											c-0.087-0.505-0.566-0.844-1.071-0.757l-10.966,1.884c-0.505,0.087-0.844,0.566-0.757,1.071l0,0
											C311.15,84.718,311.629,85.057,312.134,84.97z"/>
									</g>
								</g>
							</g>
						</g>
						<g>
							<g>
								<g>
									<g>
										<path style="fill:#F37453;" d="M311.127,92.235l10.966-1.884c0.505-0.087,0.844-0.567,0.757-1.071l0,0
											c-0.087-0.505-0.566-0.844-1.071-0.757l-10.966,1.884c-0.505,0.087-0.844,0.566-0.757,1.071l0,0
											C310.143,91.983,310.622,92.322,311.127,92.235z"/>
									</g>
								</g>
							</g>
						</g>
					</g>
				</g>
			</g>
			<g>
				<g>
					<g>
						<g>
							<g>
								<g>
									<path style="fill:#F37453;" d="M463.136,108.301l0.751-0.844c0.547-0.615,1.43-0.802,2.179-0.462l11.279,5.115
										c1.155,0.524,1.667,1.885,1.143,3.04l-16.602,36.614l-58.06-26.327l15.066-33.226c0.524-1.155,1.885-1.667,3.04-1.143
										l39.023,17.695C461.706,109.103,462.589,108.916,463.136,108.301z"/>
								</g>
							</g>
						</g>
					</g>
					<g>
						<g>
							<g>
								<g>
									
										<rect x="410.939" y="104.346" transform="matrix(-0.9107 -0.413 0.413 -0.9107 789.1636 416.612)" style="fill:#FFFFFF;" width="57.328" height="37.359"/>
								</g>
							</g>
						</g>
					</g>
					<g>
						<g>
							<g>
								<g>
									<path style="fill:#FFB255;" d="M404.391,127.568l56.071,25.425c0.615,0.279,1.34,0.087,1.737-0.459l19.267-26.512
										c0.529-0.728,0.257-1.759-0.563-2.131l-56.071-25.425c-0.615-0.279-1.34-0.087-1.737,0.459l-19.268,26.512
										C403.299,126.166,403.571,127.197,404.391,127.568z"/>
								</g>
							</g>
						</g>
					</g>
				</g>
				<g>
					<g>
						<g>
							<g>
								<g>
									<path style="fill:#F37453;" d="M461.344,126.779l9.671,4.385c0.445,0.202,0.97,0.004,1.172-0.441l0,0
										c0.202-0.445,0.005-0.969-0.441-1.171l-9.671-4.385c-0.445-0.202-0.97-0.004-1.171,0.441l0,0
										C460.702,126.052,460.899,126.577,461.344,126.779z"/>
								</g>
							</g>
						</g>
					</g>
					<g>
						<g>
							<g>
								<g>
									<g>
										<path style="fill:#F37453;" d="M463.692,124.181l9.671,4.385c0.445,0.202,0.969,0.005,1.171-0.441l0,0
											c0.202-0.445,0.005-0.97-0.44-1.172l-9.671-4.385c-0.445-0.202-0.97-0.004-1.172,0.441l0,0
											C463.05,123.455,463.247,123.979,463.692,124.181z"/>
									</g>
								</g>
							</g>
						</g>
						<g>
							<g>
								<g>
									<g>
										<path style="fill:#F37453;" d="M459.005,129.381l9.671,4.385c0.445,0.202,0.97,0.004,1.171-0.44l0,0
											c0.202-0.445,0.005-0.97-0.44-1.172l-9.671-4.385c-0.445-0.202-0.97-0.004-1.172,0.441l0,0
											C458.363,128.654,458.56,129.179,459.005,129.381z"/>
									</g>
								</g>
							</g>
						</g>
					</g>
				</g>
			</g>
			<g>
				<g>
					<g>
						<g>
							<g>
								<g>
									<path style="fill:#F37453;" d="M185.789,122.839l0.037-1.13c0.027-0.822,0.586-1.531,1.379-1.749l11.941-3.285
										c1.223-0.337,2.487,0.382,2.824,1.605l10.665,38.762l-61.465,16.912l-9.678-35.175c-0.337-1.223,0.382-2.487,1.605-2.824
										l41.312-11.367C185.203,124.37,185.762,123.661,185.789,122.839z"/>
								</g>
							</g>
						</g>
					</g>
					<g>
						<g>
							<g>
								<g>
									
										<rect x="148.459" y="130.532" transform="matrix(-0.9642 0.2653 -0.2653 -0.9642 387.4827 246.0866)" style="fill:#FFFFFF;" width="57.328" height="37.359"/>
								</g>
							</g>
						</g>
					</g>
					<g>
						<g>
							<g>
								<g>
									<path style="fill:#FFB255;" d="M152.967,175.231l59.36-16.333c0.651-0.179,1.086-0.791,1.042-1.464l-2.154-32.703
										c-0.059-0.898-0.928-1.516-1.796-1.277l-59.36,16.333c-0.65,0.179-1.086,0.791-1.041,1.464l2.154,32.703
										C151.23,174.852,152.099,175.469,152.967,175.231z"/>
								</g>
							</g>
						</g>
					</g>
				</g>
				<g>
					<g>
						<g>
							<g>
								<g>
									<path style="fill:#F37453;" d="M196.234,138.186l10.239-2.817c0.471-0.13,0.748-0.617,0.618-1.088l0,0
										c-0.13-0.471-0.617-0.748-1.088-0.618l-10.239,2.817c-0.471,0.13-0.748,0.617-0.618,1.088l0,0
										C195.275,138.039,195.763,138.316,196.234,138.186z"/>
								</g>
							</g>
						</g>
					</g>
					<g>
						<g>
							<g>
								<g>
									<g>
										<path style="fill:#F37453;" d="M196.376,134.688l10.239-2.817c0.471-0.13,0.748-0.617,0.618-1.088l0,0
											c-0.13-0.471-0.617-0.748-1.088-0.619l-10.239,2.817c-0.471,0.13-0.748,0.617-0.618,1.088l0,0
											C195.418,134.54,195.905,134.817,196.376,134.688z"/>
									</g>
								</g>
							</g>
						</g>
						<g>
							<g>
								<g>
									<g>
										<path style="fill:#F37453;" d="M196.101,141.682l10.238-2.817c0.471-0.13,0.748-0.617,0.618-1.088l0,0
											c-0.13-0.471-0.617-0.748-1.088-0.619l-10.239,2.817c-0.471,0.13-0.748,0.617-0.618,1.088l0,0
											C195.142,141.535,195.629,141.812,196.101,141.682z"/>
									</g>
								</g>
							</g>
						</g>
					</g>
				</g>
			</g>
			<g>
				<g>
					<g>
						<g>
							<g>
								<g>
									<path style="fill:#F37453;" d="M222.958,67.903l0.412-0.789c0.3-0.574,0.938-0.886,1.576-0.771l9.596,1.743
										c0.983,0.179,1.635,1.12,1.456,2.103l-5.659,31.149l-49.394-8.974l5.136-28.267c0.178-0.983,1.12-1.635,2.103-1.456
										l33.199,6.032C222.019,68.79,222.658,68.477,222.958,67.903z"/>
								</g>
							</g>
						</g>
					</g>
					<g>
						<g>
							<g>
								<g>
									
										<rect x="185.234" y="68.952" transform="matrix(-0.9839 -0.1788 0.1788 -0.9839 397.3119 203.1229)" style="fill:#FFFFFF;" width="45.145" height="29.42"/>
								</g>
							</g>
						</g>
					</g>
					<g>
						<g>
							<g>
								<g>
									<path style="fill:#FFB255;" d="M181.784,93.884l47.702,8.667c0.523,0.095,1.04-0.191,1.239-0.684l9.632-23.944
										c0.265-0.658-0.141-1.393-0.838-1.519l-47.702-8.667c-0.523-0.095-1.04,0.191-1.239,0.684l-9.632,23.944
										C180.68,93.023,181.086,93.758,181.784,93.884z"/>
								</g>
							</g>
						</g>
					</g>
				</g>
				<g>
					<g>
						<g>
							<g>
								<g>
									<path style="fill:#F37453;" d="M225.133,82.36l8.228,1.495c0.379,0.069,0.742-0.183,0.81-0.561l0,0
										c0.069-0.379-0.182-0.742-0.561-0.81l-8.228-1.495c-0.379-0.069-0.741,0.183-0.81,0.561l0,0
										C224.503,81.928,224.754,82.291,225.133,82.36z"/>
								</g>
							</g>
						</g>
					</g>
					<g>
						<g>
							<g>
								<g>
									<g>
										<path style="fill:#F37453;" d="M226.428,79.925l8.228,1.495c0.378,0.069,0.741-0.182,0.81-0.561l0,0
											c0.069-0.379-0.183-0.742-0.561-0.81l-8.228-1.495c-0.379-0.069-0.742,0.183-0.81,0.561l0,0
											C225.798,79.494,226.049,79.856,226.428,79.925z"/>
									</g>
								</g>
							</g>
						</g>
						<g>
							<g>
								<g>
									<g>
										<path style="fill:#F37453;" d="M223.845,84.796l8.228,1.495c0.379,0.069,0.742-0.183,0.81-0.561l0,0
											c0.069-0.379-0.182-0.742-0.561-0.811l-8.228-1.495c-0.379-0.069-0.742,0.183-0.81,0.561l0,0
											C223.215,84.364,223.466,84.727,223.845,84.796z"/>
									</g>
								</g>
							</g>
						</g>
					</g>
				</g>
			</g>
			<g>
				<g>
					<g>
						<g>
							<g>
								<g>
									<path style="fill:#F37453;" d="M380.464,55.544l-0.349-0.819c-0.254-0.596-0.09-1.288,0.403-1.707l7.433-6.314
										c0.761-0.647,1.903-0.554,2.549,0.208l20.496,24.13l-38.263,32.5l-18.599-21.897c-0.647-0.761-0.554-1.903,0.208-2.549
										l25.717-21.844C380.554,56.832,380.717,56.14,380.464,55.544z"/>
								</g>
							</g>
						</g>
					</g>
					<g>
						<g>
							<g>
								<g>
									
										<rect x="360.467" y="62.542" transform="matrix(-0.7622 0.6474 -0.6474 -0.7622 724.9917 -111.8419)" style="fill:#FFFFFF;" width="45.145" height="29.42"/>
								</g>
							</g>
						</g>
					</g>
					<g>
						<g>
							<g>
								<g>
									<path style="fill:#FFB255;" d="M374.441,103.856l36.952-31.387c0.405-0.344,0.512-0.925,0.257-1.391l-12.405-22.632
										c-0.341-0.622-1.166-0.774-1.706-0.315l-36.952,31.387c-0.405,0.344-0.512,0.925-0.257,1.391l12.405,22.632
										C373.075,104.163,373.901,104.315,374.441,103.856z"/>
								</g>
							</g>
						</g>
					</g>
				</g>
				<g>
					<g>
						<g>
							<g>
								<g>
									<path style="fill:#F37453;" d="M393.021,63.03l6.374-5.414c0.293-0.249,0.329-0.689,0.08-0.982l0,0
										c-0.249-0.293-0.689-0.329-0.982-0.08l-6.374,5.414c-0.293,0.249-0.329,0.689-0.08,0.982l0,0
										C392.287,63.243,392.727,63.279,393.021,63.03z"/>
								</g>
							</g>
						</g>
					</g>
					<g>
						<g>
							<g>
								<g>
									<g>
										<path style="fill:#F37453;" d="M391.96,60.485l6.374-5.414c0.293-0.249,0.329-0.689,0.08-0.982l0,0
											c-0.249-0.293-0.689-0.329-0.982-0.08l-6.374,5.414c-0.293,0.249-0.329,0.689-0.08,0.982l0,0
											C391.227,60.698,391.666,60.734,391.96,60.485z"/>
									</g>
								</g>
							</g>
						</g>
						<g>
							<g>
								<g>
									<g>
										<path style="fill:#F37453;" d="M394.087,65.571l6.374-5.414c0.293-0.249,0.329-0.689,0.08-0.982l0,0
											c-0.249-0.293-0.689-0.329-0.982-0.08l-6.374,5.414c-0.293,0.249-0.329,0.689-0.08,0.982l0,0
											C393.354,65.784,393.794,65.82,394.087,65.571z"/>
									</g>
								</g>
							</g>
						</g>
					</g>
				</g>
			</g>
			<g>
				<g>
					<g>
						<path style="fill:#79D3C2;" d="M324.927,335.438c5.609-9.292,11.26-18.669,14.812-28.925c0.419-1.209,0.813-2.489,0.588-3.748
							c-0.224-1.26-1.272-2.466-2.551-2.422c-1.128,0.039-1.987,0.965-2.927,1.589c-0.94,0.624-2.467,0.829-2.987-0.172
							c-0.297-0.573-0.099-1.268,0.129-1.872c1.228-3.266,3.147-6.252,4.193-9.581c0.491-1.561,0.773-3.297,0.137-4.805
							c-0.636-1.508-2.478-2.592-3.964-1.905c-1.503,0.695-2.417,2.926-4.033,2.568c-1.404-0.311-1.56-2.289-1.086-3.647
							c0.734-2.106,2.164-3.914,2.903-6.018c0.738-2.104,0.531-4.856-1.363-6.033c-1.417-0.88-3.33-0.548-4.723,0.37
							c-1.393,0.918-2.257,2.291-3.21,3.66c-0.23-1.628-0.469-3.288-1.199-4.761c-0.73-1.473-2.048-2.754-3.673-3.002
							c-0.818-0.125-1.691,0.009-2.446-0.33c-1.332-0.597-1.66-2.305-1.813-3.757c-0.282-2.682-0.564-5.365-0.845-8.047
							c-0.183-1.741-0.394-3.561-1.377-5.009c-0.983-1.448-3.004-2.354-4.539-1.513c-1.224,0.67-1.735,2.194-1.736,3.589
							c-0.002,1.395,0.392,2.762,0.487,4.154c0.102,1.487-0.144,2.997-0.713,4.375c-0.253,0.612-0.67,1.272-1.328,1.344
							c-1.119,0.121-1.597-1.415-2.542-2.026c-0.986-0.637-2.39-0.092-3.067,0.867s-0.808,2.19-0.877,3.363
							c-0.261,4.465,0.332,9.199,1.255,13.575c-0.482-2.005-2.997-3.225-4.87-2.362c-2.184,1.006-2.734,3.836-2.746,6.24
							c-0.034,6.741,1.809,13.796,6.044,19.04c0.794,0.983,1.616,2.028,1.819,3.275c0.203,1.247-0.472,2.733-1.716,2.957
							c-1.59,0.286-2.713-1.438-3.547-2.82c-0.834-1.383-2.58-2.803-3.864-1.824c-0.602,0.459-0.785,1.275-0.871,2.026
							c-0.382,3.32,0.322,6.673,1.318,9.863c2.971,9.513,8.628,18.172,16.146,24.714c-0.176-0.176,0.015-0.174,0.264-0.163
							C311.116,338.566,318.388,336.955,324.927,335.438z"/>
					</g>
					<g>
						<path style="fill:#006772;" d="M319.708,338.218c-1.289-0.436-1.974-1.863-2.094-4.36c-0.2-4.201-0.427-8.963,1.146-13.212
							c0.307-0.828,0.686-1.646,1.052-2.438c0.701-1.513,1.424-3.078,1.652-4.74c0.358-2.604-0.592-5.357-2.479-7.188
							c-0.703-0.682-1.361-0.985-1.973-0.9c-1.353,0.189-1.677,1.928-1.875,3.542c-0.139,1.133-0.413,2.247-0.815,3.315
							c-0.184,0.49-0.441,1.018-0.951,1.222c-0.335,0.134-0.676,0.102-0.987-0.093c-0.636-0.398-1.025-1.384-1.08-2.153
							c-0.181-2.496,0.384-4.983,0.93-7.389c0.212-0.937,0.432-1.904,0.604-2.858c0.533-2.957,0.672-7.049-1.693-9.757
							c-0.72-0.823-1.898-1.463-2.785-0.925c-0.869,0.528-0.814,1.664-0.755,2.867c0.059,1.221,0.12,2.485-0.866,3.104
							c-1.068,0.669-2.41-0.103-3.232-0.969c-2.47-2.604-3.254-6.243-4.012-9.763c-0.717-3.326-1.458-6.766-3.622-9.323l0.196-0.166
							c2.205,2.606,2.954,6.077,3.677,9.435c0.751,3.484,1.527,7.088,3.948,9.64c0.815,0.859,2.031,1.48,2.908,0.928
							c0.858-0.539,0.804-1.673,0.745-2.873c-0.059-1.225-0.121-2.492,0.879-3.099c1.014-0.615,2.324,0.074,3.112,0.976
							c2.433,2.784,2.296,6.959,1.753,9.97c-0.173,0.959-0.393,1.93-0.607,2.869c-0.541,2.387-1.101,4.855-0.924,7.314
							c0.05,0.686,0.403,1.604,0.96,1.953c0.243,0.151,0.496,0.176,0.756,0.072c0.416-0.166,0.641-0.636,0.805-1.073
							c0.395-1.048,0.664-2.144,0.801-3.255c0.151-1.235,0.432-3.534,2.095-3.766c0.688-0.094,1.424,0.231,2.187,0.97
							c1.944,1.886,2.923,4.725,2.555,7.408c-0.233,1.7-0.966,3.282-1.674,4.813c-0.364,0.787-0.741,1.601-1.044,2.419
							c-1.555,4.2-1.329,8.934-1.13,13.111c0.114,2.379,0.742,3.73,1.919,4.129L319.708,338.218z"/>
					</g>
					<g>
						<path style="fill:#006772;" d="M309.297,289.914c-0.123-2.031,0.855-4.127,2.492-5.339c0.243-0.179,0.532-0.356,0.871-0.336
							c0.194,0.014,0.364,0.095,0.527,0.174c0.051,0.025,0.102,0.05,0.154,0.072c1.061,0.457,2.307-0.178,2.99-1.042
							c0.611-0.773,0.937-1.745,1.252-2.684c0.059-0.175,0.118-0.351,0.178-0.525c1.034-2.975,2.704-5.776,4.83-8.101l0.19,0.174
							c-2.103,2.299-3.755,5.069-4.777,8.011c-0.06,0.173-0.118,0.348-0.177,0.522c-0.322,0.96-0.654,1.954-1.293,2.762
							c-0.743,0.941-2.113,1.627-3.293,1.118c-0.055-0.024-0.109-0.05-0.164-0.076c-0.149-0.072-0.289-0.14-0.435-0.15
							c-0.254-0.024-0.494,0.135-0.7,0.287c-1.568,1.161-2.506,3.17-2.388,5.117L309.297,289.914z"/>
					</g>
					<g>
						<path style="fill:#006772;" d="M309.895,339.461c-2.586-4.953-3.006-10.674-3.412-16.208
							c-0.366-4.987-0.745-10.143-2.702-14.742c-1.133-2.664-2.791-5.115-4.394-7.485c-1.466-2.166-2.981-4.406-4.102-6.814
							c-2.832-6.08-3.112-13.14-3.359-19.37l0.257-0.01c0.246,6.205,0.526,13.238,3.335,19.271c1.112,2.389,2.622,4.621,4.082,6.779
							c1.61,2.38,3.275,4.841,4.418,7.528c1.973,4.638,2.353,9.816,2.721,14.824c0.404,5.507,0.823,11.202,3.384,16.108
							L309.895,339.461z"/>
					</g>
					<g>
						<path style="fill:#006772;" d="M319.004,306.303c-0.543-12.53,2.636-25.397,8.952-36.233l0.222,0.13
							c-6.292,10.794-9.458,23.612-8.917,36.092L319.004,306.303z"/>
					</g>
					<g>
						<path style="fill:#006772;" d="M309.967,286.462c-3.277-5.853-3.011-13.159-2.798-19.03
							c0.212-5.845,0.476-13.118-2.746-18.901l0.225-0.126c3.257,5.846,2.991,13.159,2.778,19.035
							c-0.212,5.839-0.476,13.106,2.765,18.896L309.967,286.462z"/>
					</g>
					<g>
						<path style="fill:#006772;" d="M306.98,325.185l-5.976-1.1c-2.512-0.462-5.108-0.94-7.491-2.006
							c-0.964-0.431-1.892-0.96-2.757-1.57l0.149-0.21c0.851,0.601,1.764,1.121,2.714,1.545c2.354,1.054,4.936,1.529,7.432,1.988
							l5.976,1.1L306.98,325.185z"/>
					</g>
					<g>
						
							<rect x="303.883" y="310.864" transform="matrix(0.6223 -0.7828 0.7828 0.6223 -126.8816 359.0382)" style="fill:#006772;" width="9.417" height="0.257"/>
					</g>
					<g>
						<path style="fill:#006772;" d="M298.394,299.297l-0.253-0.043c0.46-2.732,1.463-5.427,2.899-7.795l0.22,0.134
							C299.84,293.933,298.849,296.597,298.394,299.297z"/>
					</g>
					<g>
						<polygon style="fill:#006772;" points="293.242,288.831 289.461,287.309 289.557,287.071 293.339,288.593 						"/>
					</g>
					<g>
						<path style="fill:#006772;" d="M318.067,323.476l-0.13-0.222c7.023-4.099,13.893-8.637,20.418-13.487l0.154,0.206
							C331.976,314.829,325.098,319.372,318.067,323.476z"/>
					</g>
					<g>
						<path style="fill:#006772;" d="M319.07,300.948l-0.073-0.246c7.231-2.14,12.81-8.252,17.293-13.164l0.19,0.174
							C331.976,292.646,326.37,298.788,319.07,300.948z"/>
					</g>
					<g>
						<path style="fill:#006772;" d="M320.19,289.929c-1.827-1.677-3.172-3.819-3.889-6.194l0.246-0.074
							c0.705,2.331,2.025,4.433,3.817,6.078L320.19,289.929z"/>
					</g>
					<g>
						<path style="fill:#006772;" d="M308.091,281.626l-0.212-0.146c3.112-4.548,5.897-9.376,8.276-14.35l0.232,0.111
							C314.002,272.227,311.211,277.067,308.091,281.626z"/>
					</g>
					<g>
						<path style="fill:#006772;" d="M306.907,273.469c-3.724-3.464-7.636-6.824-11.629-9.985l0.16-0.202
							c3.998,3.166,7.915,6.53,11.643,9.999L306.907,273.469z"/>
					</g>
				</g>
				<g>
					<g>
						<g>
							<polygon style="fill:#EA6E6E;" points="314.799,334.138 312.17,334.138 295.616,334.138 304.181,369.773 311.272,369.773 
								315.697,369.773 322.788,369.773 331.352,334.138 							"/>
						</g>
						<g>
							<polygon style="fill:#DB4D4D;" points="324.206,334.138 315.642,369.773 315.697,369.773 322.788,369.773 331.352,334.138 
															"/>
						</g>
					</g>
					<g>
						<path style="fill:#FFC78A;" d="M326.986,352.855c-0.024,0-0.048-0.003-0.071-0.01c-10.663-3.088-20.809-7.69-30.157-13.678
							c-0.12-0.076-0.155-0.236-0.078-0.355c0.077-0.121,0.237-0.154,0.355-0.078c9.307,5.961,19.408,10.542,30.023,13.616
							c0.137,0.04,0.215,0.182,0.176,0.318C327.201,352.781,327.098,352.855,326.986,352.855z"/>
					</g>
					<g>
						<path style="fill:#FFC78A;" d="M323.969,365.091c-0.038,0-0.077-0.009-0.113-0.027c-9.637-4.747-18.486-11.514-25.591-19.572
							c-0.094-0.106-0.084-0.269,0.023-0.363c0.108-0.094,0.27-0.084,0.363,0.023c7.062,8.008,15.856,14.733,25.433,19.451
							c0.128,0.063,0.18,0.217,0.117,0.344C324.155,365.038,324.064,365.091,323.969,365.091z"/>
					</g>
					<g>
						<path style="fill:#FFC78A;" d="M301.848,360.318c-0.085,0-0.169-0.043-0.218-0.12c-0.075-0.121-0.039-0.279,0.081-0.355
							c10.426-6.525,19.424-15.459,26.021-25.837c0.076-0.12,0.237-0.154,0.355-0.079c0.12,0.076,0.155,0.235,0.079,0.355
							c-6.639,10.442-15.692,19.432-26.182,25.997C301.942,360.305,301.895,360.318,301.848,360.318z"/>
					</g>
				</g>
			</g>
		</g>
	</g>
</g>
</svg>
