<?xml version="1.0" encoding="utf-8"?>
<!-- Generator: Adobe Illustrator 27.5.0, SVG Export Plug-In . SVG Version: 6.00 Build 0)  -->
<svg version="1.1" xmlns="http://www.w3.org/2000/svg" xmlns:xlink="http://www.w3.org/1999/xlink" x="0px" y="0px"
	 viewBox="0 0 2500 2500" style="enable-background:new 0 0 2500 2500;" xml:space="preserve">
<g id="Background">
	<rect x="335" y="335" style="fill:#FFFFFF;" width="1830" height="1830"/>
</g>
<g id="Illustration">
	<g id="Software_problems_1_">
		<g>
			<g>
				<path d="M1807.581,2163.887c-1.217,0-2.204-0.986-2.204-2.204v-375.294h-43.074v375.294c0,1.218-0.987,2.204-2.204,2.204
					s-2.204-0.986-2.204-2.204v-377.498c0-1.218,0.987-2.204,2.204-2.204h47.482c1.217,0,2.204,0.986,2.204,2.204v377.498
					C1809.785,2162.901,1808.798,2163.887,1807.581,2163.887z"/>
				<path d="M640.227,2141.872h-47.482c-1.217,0-2.204-0.986-2.204-2.204v-355.483c0-1.218,0.987-2.204,2.204-2.204h47.482
					c1.217,0,2.204,0.986,2.204,2.204v355.483C642.432,2140.886,641.445,2141.872,640.227,2141.872z M594.949,2137.464h43.074
					v-351.074h-43.074V2137.464z"/>
				<path d="M1915.691,1786.389H430.037c-1.217,0-2.204-0.986-2.204-2.204v-53.266c0-1.216,0.987-2.204,2.204-2.204h1485.653
					c1.217,0,2.204,0.988,2.204,2.204v53.266C1917.895,1785.403,1916.908,1786.389,1915.691,1786.389z M432.241,1781.98h1481.245
					v-48.858H432.241V1781.98z"/>
				
					<rect x="430.037" y="1730.917" transform="matrix(-1 -1.224647e-16 1.224647e-16 -1 2345.7275 3482.7493)" width="1485.653" height="20.914"/>
			</g>
			<g>
				<g>
					<g>
						<g>
							<g>
								<polygon style="fill:#FFFFFF;" points="1831.719,1673.208 1326.505,1673.208 1328.406,1295.663 1833.619,1295.663 								
									"/>
								<path d="M1831.719,1675.411h-505.214c-0.587,0-1.148-0.235-1.563-0.65c-0.413-0.415-0.645-0.979-0.641-1.565l1.901-377.543
									c0.007-1.214,0.991-2.193,2.204-2.193h505.214c0.587,0,1.148,0.235,1.563,0.65c0.413,0.415,0.645,0.979,0.641,1.565
									l-1.901,377.543C1833.917,1674.432,1832.932,1675.411,1831.719,1675.411z M1328.72,1671.002h500.805l1.879-373.135h-500.805
									L1328.72,1671.002z"/>
							</g>
							<polygon points="1813.925,1646.403 1344.434,1646.403 1346.2,1330.992 1815.691,1330.992 							"/>
							
								<ellipse transform="matrix(0.7071 -0.7071 0.7071 0.7071 -465.7395 1501.8821)" cx="1580.062" cy="1313.138" rx="7.449" ry="7.449"/>
						</g>
						<g>
							<path style="fill:#FFFFFF;" d="M1211.558,1673.059h622.061c-2.756,32.804-25.599,57.762-52.868,57.762h-516.325
								C1237.157,1730.821,1214.314,1705.863,1211.558,1673.059z"/>
							<path d="M1780.752,1733.026h-516.326c-28.529,0-52.201-25.7-55.065-59.782c-0.052-0.616,0.157-1.223,0.574-1.677
								c0.418-0.454,1.006-0.713,1.623-0.713h622.062c0.617,0,1.205,0.258,1.623,0.713c0.417,0.454,0.625,1.061,0.574,1.677
								C1832.953,1707.326,1809.28,1733.026,1780.752,1733.026z M1213.992,1675.262c3.533,30.584,24.877,53.355,50.434,53.355
								h516.326c25.557,0,46.9-22.77,50.434-53.355H1213.992z"/>
						</g>
						<g>
							<g>
								<polygon style="fill:#FFFFFF;" points="1760.422,1673.059 1718.46,1673.059 1721.062,1661.271 1757.82,1661.271 								"/>
								<path d="M1760.422,1675.262h-41.962c-0.668,0-1.3-0.304-1.719-0.824c-0.418-0.521-0.578-1.203-0.434-1.856l2.601-11.788
									c0.223-1.01,1.118-1.729,2.153-1.729h36.758c1.034,0,1.93,0.719,2.153,1.729l2.603,11.788
									c0.144,0.652-0.016,1.335-0.434,1.856C1761.722,1674.959,1761.091,1675.262,1760.422,1675.262z M1721.204,1670.854h36.475
									l-1.63-7.379h-33.217L1721.204,1670.854z"/>
							</g>
							<g>
								<polygon style="fill:#FFFFFF;" points="1716.743,1673.059 1674.781,1673.059 1677.383,1661.271 1714.141,1661.271 								
									"/>
								<path d="M1716.744,1675.262h-41.962c-0.668,0-1.3-0.304-1.719-0.824c-0.418-0.521-0.578-1.203-0.434-1.856l2.601-11.788
									c0.223-1.01,1.118-1.729,2.153-1.729h36.758c1.034,0,1.93,0.719,2.153,1.729l2.603,11.788
									c0.144,0.652-0.016,1.335-0.434,1.856C1718.044,1674.959,1717.412,1675.262,1716.744,1675.262z M1677.525,1670.854H1714
									l-1.63-7.379h-33.217L1677.525,1670.854z"/>
							</g>
							<g>
								<polygon style="fill:#FFFFFF;" points="1673.064,1673.059 1631.102,1673.059 1633.704,1661.271 1670.462,1661.271 								
									"/>
								<path d="M1673.065,1675.262h-41.962c-0.668,0-1.3-0.304-1.719-0.824c-0.418-0.521-0.578-1.203-0.434-1.856l2.601-11.788
									c0.223-1.01,1.118-1.729,2.153-1.729h36.758c1.034,0,1.93,0.719,2.153,1.729l2.603,11.788
									c0.144,0.652-0.016,1.335-0.434,1.856C1674.365,1674.959,1673.733,1675.262,1673.065,1675.262z M1633.846,1670.854h36.475
									l-1.63-7.379h-33.217L1633.846,1670.854z"/>
							</g>
							<g>
								<polygon style="fill:#FFFFFF;" points="1629.385,1673.059 1587.423,1673.059 1590.025,1661.271 1626.783,1661.271 								
									"/>
								<path d="M1629.385,1675.262h-41.962c-0.668,0-1.3-0.304-1.719-0.824c-0.418-0.521-0.578-1.203-0.434-1.856l2.603-11.788
									c0.223-1.01,1.118-1.729,2.153-1.729h36.758c1.034,0,1.93,0.719,2.153,1.729l2.601,11.788
									c0.144,0.652-0.016,1.335-0.434,1.856C1630.685,1674.959,1630.053,1675.262,1629.385,1675.262z M1590.166,1670.854h36.475
									l-1.628-7.379h-33.217L1590.166,1670.854z"/>
							</g>
							<g>
								<polygon style="fill:#FFFFFF;" points="1585.707,1673.059 1543.744,1673.059 1546.346,1661.271 1583.104,1661.271 								
									"/>
								<path d="M1585.706,1675.262h-41.962c-0.668,0-1.3-0.304-1.719-0.824c-0.418-0.521-0.578-1.203-0.434-1.856l2.602-11.788
									c0.223-1.01,1.118-1.729,2.153-1.729h36.758c1.034,0,1.93,0.719,2.153,1.729l2.601,11.788
									c0.144,0.652-0.016,1.335-0.434,1.856C1587.006,1674.959,1586.375,1675.262,1585.706,1675.262z M1546.488,1670.854h36.475
									l-1.628-7.379h-33.217L1546.488,1670.854z"/>
							</g>
							<g>
								<polygon style="fill:#FFFFFF;" points="1542.028,1673.059 1500.066,1673.059 1502.667,1661.271 1539.426,1661.271 								
									"/>
								<path d="M1542.027,1675.262h-41.962c-0.668,0-1.3-0.304-1.719-0.824c-0.418-0.521-0.578-1.203-0.434-1.856l2.602-11.788
									c0.223-1.01,1.118-1.729,2.153-1.729h36.758c1.034,0,1.93,0.719,2.153,1.729l2.601,11.788
									c0.144,0.652-0.016,1.335-0.434,1.856C1543.328,1674.959,1542.696,1675.262,1542.027,1675.262z M1502.809,1670.854h36.475
									l-1.628-7.379h-33.217L1502.809,1670.854z"/>
							</g>
							<g>
								<polygon style="fill:#FFFFFF;" points="1498.349,1673.059 1456.386,1673.059 1458.989,1661.271 1495.747,1661.271 								
									"/>
								<path d="M1498.349,1675.262h-41.962c-0.668,0-1.3-0.304-1.719-0.824c-0.418-0.521-0.578-1.203-0.434-1.856l2.601-11.788
									c0.223-1.01,1.118-1.729,2.153-1.729h36.758c1.034,0,1.93,0.719,2.153,1.729l2.603,11.788
									c0.144,0.652-0.016,1.335-0.434,1.856C1499.649,1674.959,1499.017,1675.262,1498.349,1675.262z M1459.13,1670.854h36.475
									l-1.63-7.379h-33.217L1459.13,1670.854z"/>
							</g>
							<g>
								<polygon style="fill:#FFFFFF;" points="1454.67,1673.059 1412.708,1673.059 1415.31,1661.271 1452.068,1661.271 								"/>
								<path d="M1454.67,1675.262h-41.962c-0.668,0-1.3-0.304-1.719-0.824c-0.418-0.521-0.578-1.203-0.434-1.856l2.601-11.788
									c0.223-1.01,1.118-1.729,2.153-1.729h36.758c1.034,0,1.93,0.719,2.153,1.729l2.603,11.788
									c0.144,0.652-0.016,1.335-0.434,1.856C1455.97,1674.959,1455.338,1675.262,1454.67,1675.262z M1415.451,1670.854h36.475
									l-1.63-7.379h-33.217L1415.451,1670.854z"/>
							</g>
							<g>
								<polygon style="fill:#FFFFFF;" points="1410.991,1673.059 1369.029,1673.059 1371.631,1661.271 1408.389,1661.271 								
									"/>
								<path d="M1410.991,1675.262h-41.962c-0.668,0-1.3-0.304-1.719-0.824c-0.418-0.521-0.578-1.203-0.434-1.856l2.602-11.788
									c0.223-1.01,1.118-1.729,2.153-1.729h36.758c1.034,0,1.93,0.719,2.153,1.729l2.603,11.788
									c0.144,0.652-0.016,1.335-0.434,1.856C1412.291,1674.959,1411.66,1675.262,1410.991,1675.262z M1371.773,1670.854h36.475
									l-1.63-7.379h-33.217L1371.773,1670.854z"/>
							</g>
							<g>
								<polygon style="fill:#FFFFFF;" points="1367.312,1673.059 1325.35,1673.059 1327.952,1661.271 1364.71,1661.271 								"/>
								<path d="M1367.312,1675.262h-41.963c-0.668,0-1.3-0.304-1.719-0.824c-0.418-0.521-0.578-1.203-0.434-1.856l2.603-11.788
									c0.223-1.01,1.118-1.729,2.153-1.729h36.758c1.034,0,1.93,0.719,2.153,1.729l2.602,11.788
									c0.144,0.652-0.016,1.335-0.434,1.856C1368.613,1674.959,1367.981,1675.262,1367.312,1675.262z M1328.093,1670.854h36.476
									l-1.629-7.379h-33.217L1328.093,1670.854z"/>
							</g>
							<g>
								<polygon style="fill:#FFFFFF;" points="1323.633,1673.059 1281.671,1673.059 1284.273,1661.271 1321.031,1661.271 								
									"/>
								<path d="M1323.633,1675.262h-41.962c-0.668,0-1.3-0.304-1.719-0.824c-0.418-0.521-0.578-1.203-0.434-1.856l2.602-11.788
									c0.223-1.01,1.118-1.729,2.153-1.729h36.758c1.034,0,1.93,0.719,2.153,1.729l2.601,11.788
									c0.144,0.652-0.016,1.335-0.434,1.856C1324.933,1674.959,1324.301,1675.262,1323.633,1675.262z M1284.414,1670.854h36.475
									l-1.629-7.379h-33.217L1284.414,1670.854z"/>
							</g>
							<g>
								<polygon style="fill:#FFFFFF;" points="1279.954,1673.059 1237.992,1673.059 1240.594,1661.271 1277.352,1661.271 								
									"/>
								<path d="M1279.954,1675.262h-41.962c-0.668,0-1.3-0.304-1.719-0.824c-0.418-0.521-0.578-1.203-0.434-1.856l2.602-11.788
									c0.223-1.01,1.118-1.729,2.153-1.729h36.758c1.034,0,1.93,0.719,2.153,1.729l2.601,11.788
									c0.144,0.652-0.016,1.335-0.434,1.856C1281.254,1674.959,1280.622,1675.262,1279.954,1675.262z M1240.735,1670.854h36.475
									l-1.628-7.379h-33.217L1240.735,1670.854z"/>
							</g>
						</g>
					</g>
				</g>
				<g>
					<path style="fill:#FED101;" d="M1564.919,1394.809l-98.194,170.315c-6.719,11.653,1.692,26.211,15.144,26.211h196.387
						c13.451,0,21.862-14.557,15.144-26.211l-98.194-170.315C1588.48,1383.144,1571.645,1383.144,1564.919,1394.809z"/>
					<path style="fill:#FFFFFF;" d="M1678.256,1593.541h-196.388c-7.113,0-13.485-3.677-17.043-9.838
						c-3.559-6.161-3.563-13.516-0.009-19.679l98.194-170.315c3.556-6.169,9.93-9.853,17.051-9.853
						c7.122,0,13.497,3.683,17.054,9.853l98.194,170.315c3.554,6.163,3.55,13.521-0.01,19.679
						C1691.741,1589.864,1685.369,1593.541,1678.256,1593.541z M1580.062,1388.265c-5.527,0-10.474,2.859-13.233,7.644
						l-98.194,170.315c-2.758,4.783-2.755,10.494,0.006,15.275c2.762,4.779,7.706,7.633,13.227,7.633h196.388
						c5.52,0,10.465-2.854,13.227-7.633c2.762-4.781,2.765-10.49,0.008-15.275l-98.194-170.315
						C1590.536,1391.121,1585.588,1388.265,1580.062,1388.265z M1564.919,1394.809h0.022H1564.919z"/>
					<path style="fill:#FFFFFF;" d="M1669.713,1579.675h-179.301c-3.89,0-7.375-2.01-9.321-5.379
						c-1.947-3.369-1.949-7.392-0.005-10.763l89.651-155.496c1.945-3.375,5.431-5.388,9.325-5.388c3.895,0,7.381,2.013,9.326,5.388
						l89.651,155.496c1.944,3.371,1.942,7.394-0.005,10.763C1677.088,1577.665,1673.603,1579.675,1669.713,1579.675z
						 M1580.062,1407.057c-2.299,0-4.358,1.188-5.506,3.179l-89.651,155.496c-1.147,1.991-1.146,4.368,0.003,6.357
						s3.207,3.177,5.504,3.177h179.301c2.297,0,4.355-1.188,5.504-3.177s1.151-4.365,0.003-6.357l-89.651-155.496
						C1584.421,1408.245,1582.362,1407.057,1580.062,1407.057z M1572.646,1409.136h0.022H1572.646z"/>
					<g>
						<rect x="1569.636" y="1446.73" width="22.334" height="85.285"/>
						<rect x="1569.636" y="1541.244" width="22.334" height="22.365"/>
					</g>
				</g>
			</g>
			<g>
				<g>
					<g>
						<g>
							<path style="fill:#955B50;" d="M738.612,1271.948c8.427,35.322,22.392,83.767-12.955,92.2
								c-35.348,8.433-106.623-26.338-115.05-61.661c-8.427-35.322,13.396-70.793,48.744-79.226
								C694.699,1214.828,730.185,1236.626,738.612,1271.948z"/>
							<path d="M758.368,1250.694c-17.533-30.246-53.409-46.785-89.184-38.25c-35.775,8.535-59.669,37.323-60.378,73.932
								L758.368,1250.694z"/>
							
								<rect x="635.591" y="1289.034" transform="matrix(0.9727 -0.2321 0.2321 0.9727 -293.8586 193.0616)" style="fill:#955B50;" width="76.105" height="112.978"/>
							<path d="M724.032,1394.964c-0.997,0-1.901-0.68-2.142-1.692l-14.769-61.905c-0.283-1.184,0.449-2.374,1.633-2.656
								c1.181-0.269,2.373,0.448,2.655,1.632l14.769,61.905c0.283,1.184-0.449,2.374-1.633,2.656
								C724.374,1394.944,724.202,1394.964,724.032,1394.964z"/>
						</g>
						<g>
							<g>
								<path style="fill:#8C7BFF;" d="M1214.195,2006.908c-48.535-83.107-302.301-138.34-302.301-138.34l-201.606,0.685h-3.85
									H519.406l4.324,116.66c0,35.766,14.573,69.99,40.362,94.79c24.528,23.587,111.816,56.158,145.856,56.158l275.148,10.367
									l10.605,15.569h253.57C1248.004,2133.372,1245.948,2061.278,1214.195,2006.908z"/>
								<path d="M1249.273,2165c-0.018,0-0.038,0-0.056,0c-1.217-0.03-2.179-1.042-2.148-2.26
									c1.396-56.026-12.181-132.186-45.289-167c-79.668-83.773-285.423-123.491-287.493-123.883
									c-1.196-0.226-1.982-1.38-1.755-2.574c0.227-1.197,1.375-1.976,2.576-1.757c2.083,0.394,209.219,40.372,289.867,125.175
									c39.031,41.044,47.594,126.266,46.501,170.152C1251.446,2164.049,1250.464,2165,1249.273,2165z"/>
								<polygon points="523.73,1985.912 519.406,1869.252 930.491,1859.311 								"/>
							</g>
							<path d="M995.704,2165c-0.705,0-1.397-0.338-1.824-0.962l-9.978-14.649l-250.226-9.428c-1.216-0.045-2.166-1.068-2.12-2.286
								c0.046-1.216,1.08-2.17,2.286-2.118l251.337,9.469c0.7,0.026,1.344,0.383,1.739,0.96l10.606,15.568
								c0.685,1.007,0.425,2.379-0.581,3.063C996.563,2164.875,996.131,2165,995.704,2165z"/>
						</g>
						<g>
							<g>
								<g>
									<g>
										<path style="fill:#955B50;" d="M422.423,1014.978l7.082,56.639c0.952,7.611,3.452,14.946,7.348,21.553l38.528,65.349
											l23.918-14.117l-35.449-60.059c-4.642-7.864-7.593-16.609-8.666-25.678l-5.598-47.305
											c-0.906-7.659-8.407-12.724-15.85-10.704l-2.09,0.567C425.575,1002.872,421.643,1008.736,422.423,1014.978z"/>
										<path style="fill:#955B50;" d="M396.108,1025.045l6.967,55.719c0.952,7.611,3.452,14.946,7.348,21.553l27.397,47.179
											l35.049,4.053l-36.423-61.71c-3.999-6.775-6.542-14.31-7.467-22.123l-5.677-47.979c-0.983-8.307-9.117-13.8-17.19-11.609
											C399.526,1011.915,395.261,1018.275,396.108,1025.045z"/>
										<path style="fill:#955B50;" d="M381.1,1036.554c-6.296,1.709-10.376,7.788-9.573,14.262l4.963,40.007
											c0.952,7.611,3.452,14.946,7.348,21.553l38.528,65.349l23.918-14.117l-36.423-61.71
											c-3.999-6.776-6.542-14.31-7.467-22.123l-3.722-32.373c-0.916-7.969-8.713-13.253-16.454-11.152L381.1,1036.554z"/>
										<path style="fill:#955B50;" d="M343.304,1069.158c-5.334,3.755-7.095,10.862-4.13,16.673l18.32,35.911
											c3.492,6.829,8.346,12.87,14.263,17.751l58.519,48.274l17.663-21.432l-55.299-45.572
											c-6.072-5.004-11.034-11.218-14.569-18.246l-14.548-29.159c-3.581-7.178-12.713-9.484-19.273-4.866L343.304,1069.158z"/>
										<path style="fill:#955B50;" d="M507.598,1144.057l-6.289-2.758c-3.564-1.563-6.551-4.198-8.545-7.539l-18.745-31.397
											l-71.9,11.814l51.751,135.289l68.651-5.121l14.562-69.497c2.255-10.761,2.732-21.818,1.412-32.734l-7.512-62.132
											c-0.98-8.104-8.344-13.88-16.449-12.9l-1.335,0.161c-8.105,0.98-13.88,8.344-12.9,16.448L507.598,1144.057z"/>
										<path style="fill:#955B50;" d="M433.737,1000.656l-2.09,0.568c-6.071,1.648-10.003,7.513-9.223,13.754l0.764,6.112
											c-1.321-7.938-9.219-13.096-17.078-10.963c-6.584,1.788-10.849,8.148-10.003,14.918l6.967,55.718
											c0.952,7.611,3.452,14.945,7.347,21.554l5.564,9.581l-0.204,0.033l-5.921-10.032c-3.999-6.776-6.542-14.31-7.467-22.123
											l-3.722-32.374c-0.917-7.968-8.713-13.253-16.456-11.151l-1.116,0.303c-6.296,1.709-10.376,7.788-9.574,14.263
											l4.964,40.007c0.817,6.54,2.786,12.871,5.793,18.716c-1.565-2.234-2.98-4.576-4.212-7.024l-14.549-29.159
											c-3.58-7.178-12.712-9.484-19.272-4.866l-0.947,0.666c-5.334,3.755-7.095,10.862-4.13,16.674l18.32,35.911
											c3.492,6.828,8.346,12.869,14.263,17.75l58.508,48.265l23.605,61.708l68.651-5.121l14.563-69.497
											c2.255-10.761,2.731-21.819,1.412-32.734l-7.512-62.131c-0.98-8.104-8.344-13.881-16.448-12.901l-1.335,0.161
											c-8.105,0.98-13.881,8.345-12.901,16.449l7.298,60.365l-6.289-2.758c-2.749-1.206-5.142-3.062-7.015-5.377l-30.444-51.58
											c-4.642-7.864-7.593-16.609-8.666-25.678l-5.599-47.304C448.68,1003.701,441.18,998.635,433.737,1000.656z
											 M423.868,1026.532l5.637,45.085c0.419,3.346,1.154,6.634,2.159,9.835c-1.305-3.796-2.212-7.729-2.686-11.737
											L423.868,1026.532z"/>
										<polygon style="fill:#020202;" points="453.87,1249.466 522.521,1244.344 530.931,1204.208 432.956,1198.481 										
											"/>
										<path d="M507.241,1146.237c-0.295,0-0.594-0.058-0.882-0.185l-1.26-0.551c-6.808-2.986-12.4-7.945-16.177-14.343
											l-26.97-45.696c-4.827-8.176-7.841-17.105-8.957-26.54l-5.598-47.304c-0.356-3.014-2.003-5.715-4.517-7.414
											c-2.512-1.696-5.632-2.213-8.566-1.423l-2.089,0.568c-4.981,1.352-8.254,6.232-7.614,11.353l7.082,56.64
											c0.919,7.355,3.295,14.321,7.06,20.706l16.972,28.789c0.619,1.048,0.269,2.4-0.779,3.018
											c-1.046,0.618-2.399,0.269-3.018-0.779l-16.972-28.789c-4.073-6.906-6.642-14.442-7.636-22.398l-7.082-56.64
											c-0.912-7.287,3.746-14.231,10.833-16.153l2.089-0.568c4.165-1.134,8.609-0.394,12.189,2.023
											c3.578,2.417,5.921,6.262,6.428,10.55l5.598,47.304c1.044,8.819,3.862,17.169,8.376,24.815l26.97,45.694
											c3.303,5.597,8.196,9.937,14.148,12.548l1.257,0.551c1.116,0.486,1.625,1.787,1.137,2.902
											C508.899,1145.745,508.09,1146.237,507.241,1146.237z"/>
										<path d="M424.961,1129.176c-0.755,0-1.49-0.387-1.901-1.085l-14.538-24.654c-4.073-6.908-6.641-14.444-7.635-22.4
											l-6.967-55.718c-0.977-7.812,4.015-15.256,11.612-17.318c4.331-1.182,8.979-0.461,12.753,1.961
											c3.779,2.426,6.365,6.35,7.097,10.77c0.199,1.201-0.612,2.336-1.814,2.534c-1.214,0.207-2.337-0.613-2.535-1.815
											c-0.53-3.19-2.399-6.025-5.131-7.777c-2.768-1.778-6.045-2.284-9.216-1.419c-5.491,1.49-9.099,6.871-8.393,12.518
											l6.967,55.718c0.919,7.353,3.295,14.321,7.058,20.708l14.538,24.654c0.619,1.048,0.27,2.4-0.779,3.018
											C425.728,1129.077,425.341,1129.176,424.961,1129.176z"/>
										<path d="M453.869,1251.67c-0.896,0-1.71-0.545-2.046-1.386l-24.946-62.462l-56.523-46.628
											c-6.187-5.106-11.173-11.312-14.822-18.448l-18.321-35.914c-3.443-6.744-1.369-15.118,4.824-19.475l0.945-0.667
											c3.654-2.57,8.234-3.423,12.564-2.325c4.331,1.094,7.957,4.012,9.952,8.01l17.526,33.643
											c0.563,1.078,0.143,2.411-0.936,2.973c-1.08,0.568-2.411,0.144-2.973-0.936l-17.544-33.678
											c-1.438-2.88-4.02-4.96-7.104-5.739c-3.084-0.771-6.344-0.177-8.945,1.655l-0.945,0.667
											c-4.411,3.104-5.887,9.067-3.437,13.867l18.32,35.914c3.373,6.594,7.983,12.332,13.701,17.051l56.959,46.987
											c0.286,0.235,0.507,0.54,0.645,0.883l24.555,61.485l65.386-4.878l14.223-67.874c2.21-10.546,2.675-21.317,1.381-32.016
											l-7.511-62.133c-0.404-3.334-2.082-6.314-4.725-8.387c-2.642-2.073-5.925-2.992-9.271-2.588l-1.335,0.161
											c-3.335,0.402-6.314,2.079-8.388,4.723c-2.073,2.643-2.992,5.937-2.59,9.271l9.39,77.66
											c0.146,1.21-0.715,2.308-1.923,2.454c-1.209,0.155-2.308-0.715-2.453-1.924l-9.39-77.66
											c-0.545-4.505,0.697-8.951,3.498-12.522c2.799-3.569,6.822-5.836,11.326-6.38l1.335-0.161
											c4.501-0.542,8.951,0.698,12.521,3.496c3.57,2.8,5.837,6.822,6.381,11.327l7.512,62.133
											c1.352,11.177,0.866,22.43-1.443,33.45l-14.563,69.497c-0.201,0.96-1.014,1.673-1.993,1.746l-68.651,5.121
											C453.978,1251.668,453.924,1251.67,453.869,1251.67z"/>
										<path d="M397.041,1135.745c-0.735,0-1.454-0.368-1.873-1.037l-13.202-21.165c-4.1-6.953-6.669-14.489-7.663-22.445
											l-4.963-40.011c-0.933-7.513,3.874-14.674,11.182-16.659l1.117-0.304c4.31-1.175,8.905-0.405,12.601,2.101
											c3.697,2.506,6.11,6.488,6.621,10.924l0.283,2.465c0.139,1.21-0.73,2.303-1.938,2.441
											c-1.216,0.153-2.303-0.728-2.442-1.938l-0.283-2.465c-0.363-3.16-2.082-5.995-4.714-7.777
											c-2.633-1.785-5.899-2.329-8.973-1.498l-1.116,0.303c-5.204,1.414-8.628,6.514-7.964,11.863l4.963,40.008
											c0.92,7.353,3.295,14.319,7.058,20.704l13.174,21.117c0.644,1.033,0.329,2.394-0.704,3.037
											C397.843,1135.638,397.439,1135.745,397.041,1135.745z"/>
									</g>
									<g>
										<g>
											<path style="fill:#FED101;" d="M593.055,1630.774l-25.129-407.991l-175.46,10.807l20.987,340.74
												C419.517,1672.786,538.377,1710.14,593.055,1630.774z"/>
											<path d="M514.381,1676.014c-8.802,0-17.769-1.214-26.742-3.707c-43.486-12.076-73.469-50.481-76.386-97.841
												l-20.987-340.742c-0.037-0.583,0.161-1.158,0.549-1.595c0.386-0.439,0.932-0.704,1.515-0.74l175.46-10.806
												c1.232-0.032,2.26,0.85,2.336,2.064l17.931,291.118c0.075,1.216-0.849,2.26-2.064,2.336
												c-1.212,0.052-2.26-0.848-2.336-2.064l-17.796-288.918l-171.06,10.535l20.851,338.542
												c2.799,45.455,31.519,82.299,73.165,93.865c39.283,10.901,78.53-3.858,102.423-38.536
												c0.689-1.001,2.059-1.257,3.065-0.564c1.002,0.691,1.255,2.062,0.564,3.065
												C575.329,1660.39,545.94,1676.011,514.381,1676.014z"/>
										</g>
									</g>
								</g>
								<g>
									<g>
										<path style="fill:#955B50;" d="M994.167,1063.311l12.124,55.828c1.629,7.502,1.704,15.258,0.221,22.79l-14.673,74.496
											l-27.271-5.385l13.523-68.479c1.771-8.967,1.653-18.204-0.346-27.122l-10.426-46.523
											c-1.688-7.533,3.711-14.806,11.41-15.37l2.162-0.158C987.17,1052.927,992.831,1057.158,994.167,1063.311z"/>
										<path style="fill:#955B50;" d="M1022.357,1064.075l11.927,54.921c1.629,7.502,1.704,15.258,0.221,22.79l-10.198,53.644
											l-31.746,15.467l13.895-70.361c1.526-7.725,1.424-15.684-0.298-23.368l-10.574-47.186
											c-1.831-8.17,4.025-16.058,12.375-16.67C1014.768,1052.814,1020.908,1057.403,1022.357,1064.075z"/>
										<path style="fill:#955B50;" d="M1040.349,1069.958c6.512-0.477,12.383,3.907,13.775,10.286l8.601,39.422
											c1.629,7.502,1.704,15.258,0.221,22.79l-14.673,74.496l-27.271-5.385l13.895-70.361
											c1.526-7.725,1.424-15.684-0.298-23.368l-7.237-31.802c-1.782-7.829,3.825-15.407,11.832-15.994L1040.349,1069.958z"/>
										<path style="fill:#955B50;" d="M1086.863,1088.188c6.284,1.774,10.306,7.899,9.437,14.371l-5.37,39.99
											c-1.029,7.607-3.606,14.923-7.571,21.497l-39.219,65.014l-23.795-14.37l37.076-61.393
											c4.071-6.741,6.692-14.256,7.696-22.066l4.052-32.362c0.997-7.967,8.854-13.176,16.58-10.995L1086.863,1088.188z"/>
										<path style="fill:#955B50;" d="M956.618,1213.47l5.022-4.693c2.846-2.659,4.791-6.14,5.564-9.956l7.271-35.87
											l71.809-12.725l-3.93,144.922l-66.519,17.965l-36.83-60.78c-5.703-9.411-9.826-19.693-12.205-30.437l-13.543-61.157
											c-1.767-7.977,3.268-15.876,11.246-17.643l1.314-0.291c7.977-1.766,15.876,3.268,17.643,11.246L956.618,1213.47z"/>
										<path style="fill:#955B50;" d="M967.32,1068.916l10.424,46.522c1.999,8.919,2.117,18.156,0.346,27.122l-11.613,58.811
											c-1,2.807-2.642,5.355-4.837,7.406l-5.022,4.693l-13.158-59.418c-1.766-7.977-9.666-13.013-17.643-11.246l-1.314,0.291
											c-7.977,1.766-13.011,9.666-11.245,17.643l13.543,61.157c2.379,10.744,6.501,21.026,12.204,30.438l36.831,60.779
											l66.519-17.965l1.792-66.102l39.211-65.002c3.965-6.574,6.542-13.89,7.572-21.496l5.37-39.99
											c0.869-6.472-3.154-12.597-9.437-14.371l-1.115-0.314c-7.727-2.182-15.584,3.028-16.58,10.995l-4.052,32.363
											c-0.35,2.721-0.908,5.402-1.644,8.03c0.898-6.518,0.654-13.149-0.746-19.595l-8.601-39.422
											c-1.393-6.38-7.265-10.764-13.776-10.287l-1.154,0.085c-8.008,0.587-13.614,8.166-11.833,15.994l7.238,31.802
											c1.721,7.684,1.823,15.642,0.297,23.368l-2.259,11.439l-0.204,0.036l2.071-10.894c1.483-7.533,1.408-15.288-0.221-22.79
											l-11.927-54.921c-1.45-6.673-7.589-11.262-14.399-10.763c-8.129,0.596-13.872,8.089-12.483,16.023l-1.308-6.024
											c-1.336-6.152-6.997-10.383-13.276-9.923l-2.162,0.158C971.03,1054.109,965.631,1061.384,967.32,1068.916z
											 M1006.158,1117.168c0.884,3.941,1.333,7.956,1.362,11.973c-0.114-3.356-0.512-6.704-1.228-10.003l-9.651-44.439
											L1006.158,1117.168z"/>
										<polygon style="fill:#020202;" points="1042.354,1295.149 975.836,1313.113 954.565,1278.012 1045.167,1240.065 
																					"/>
										<path d="M956.947,1215.534c-0.589,0-1.175-0.235-1.609-0.697c-0.832-0.889-0.786-2.284,0.103-3.117l1.005-0.941
											c4.754-4.441,7.933-10.162,9.194-16.545l10.289-52.1c1.721-8.718,1.609-17.54-0.335-26.215l-10.425-46.522
											c-0.946-4.215-0.011-8.623,2.565-12.093c2.576-3.47,6.524-5.642,10.834-5.956l2.16-0.159
											c7.344-0.512,14.034,4.473,15.592,11.654l12.125,55.828c1.703,7.842,1.78,15.811,0.229,23.683l-6.464,32.817
											c-0.235,1.195-1.387,1.965-2.589,1.737c-1.195-0.237-1.972-1.395-1.736-2.59l6.464-32.817
											c1.432-7.278,1.362-14.644-0.212-21.896l-12.125-55.828c-1.096-5.046-5.81-8.546-10.962-8.193l-2.159,0.159
											c-3.031,0.222-5.808,1.748-7.618,4.189c-1.81,2.439-2.468,5.537-1.804,8.501l10.425,46.522
											c2.079,9.278,2.2,18.708,0.358,28.031l-10.289,52.1c-1.441,7.297-5.075,13.837-10.508,18.913l-1.004,0.941
											C958.028,1215.336,957.487,1215.534,956.947,1215.534z"/>
										<path d="M1028.97,1172.097c-0.141,0-0.284-0.013-0.428-0.041c-1.195-0.237-1.972-1.395-1.736-2.59l5.536-28.107
											c1.434-7.278,1.363-14.644-0.212-21.896l-11.928-54.92c-1.209-5.562-6.41-9.428-12.083-9.032
											c-3.286,0.241-6.21,1.804-8.234,4.402c-1.996,2.562-2.82,5.861-2.26,9.05c0.211,1.199-0.591,2.342-1.79,2.553
											c-1.197,0.198-2.341-0.594-2.552-1.791c-0.776-4.413,0.363-8.979,3.125-12.522c2.758-3.541,6.909-5.76,11.387-6.088
											c7.871-0.54,15.044,4.796,16.714,12.494l11.928,54.92c1.704,7.842,1.781,15.811,0.229,23.683l-5.536,28.107
											C1030.924,1171.369,1030.003,1172.097,1028.97,1172.097z"/>
										<path d="M975.835,1315.319c-0.758,0-1.479-0.392-1.886-1.061l-36.83-60.781c-5.839-9.635-10.034-20.099-12.472-31.103
											l-13.542-61.158c-2.026-9.149,3.77-18.243,12.921-20.271l1.315-0.291c9.141-2.019,18.245,3.769,20.271,12.922
											l16.928,76.444c0.263,1.188-0.488,2.364-1.676,2.628c-1.184,0.247-2.366-0.487-2.63-1.677l-16.928-76.444
											c-1.499-6.779-8.235-11.069-15.014-9.568l-1.314,0.291c-6.776,1.5-11.07,8.236-9.568,15.015l13.542,61.158
											c2.332,10.531,6.349,20.547,11.937,29.769l35.971,59.365l63.358-17.113l2.764-66.208c0.015-0.368,0.124-0.73,0.314-1.046
											l38.173-63.28c3.833-6.352,6.28-13.303,7.274-20.654l5.371-39.987c0.718-5.351-2.657-10.49-7.851-11.958l-1.115-0.312
											c-3.064-0.865-6.343-0.351-8.997,1.408c-2.654,1.759-4.402,4.581-4.798,7.739l-5.384,37.662
											c-0.172,1.208-1.293,2.041-2.494,1.871c-1.206-0.172-2.042-1.29-1.87-2.495l5.378-37.624
											c0.55-4.398,3.005-8.356,6.73-10.828c3.724-2.471,8.331-3.192,12.63-1.978l1.115,0.314
											c7.293,2.06,12.032,9.276,11.024,16.786l-5.371,39.989c-1.076,7.954-3.723,15.471-7.868,22.344l-37.883,62.798
											l-2.807,67.259c-0.04,0.96-0.699,1.785-1.627,2.036l-66.519,17.966C976.22,1315.295,976.026,1315.319,975.835,1315.319z"
											/>
										<path d="M1057.514,1169.027c-0.159,0-0.321-0.017-0.482-0.054c-1.188-0.265-1.936-1.442-1.672-2.63l5.434-24.368
											c1.423-7.224,1.352-14.59-0.223-21.843l-8.601-39.419c-1.151-5.272-6.074-8.966-11.462-8.559l-1.152,0.086
											c-3.177,0.233-6.084,1.834-7.979,4.393c-1.893,2.559-2.574,5.808-1.867,8.914l0.55,2.419
											c0.27,1.186-0.474,2.368-1.661,2.639c-1.192,0.273-2.368-0.476-2.638-1.662l-0.55-2.42
											c-0.992-4.359-0.037-8.921,2.623-12.513c2.659-3.595,6.74-5.842,11.198-6.167l1.152-0.086
											c7.564-0.553,14.479,4.615,16.093,12.016l8.601,39.421c1.704,7.844,1.781,15.813,0.229,23.685l-5.445,24.421
											C1059.434,1168.33,1058.524,1169.027,1057.514,1169.027z"/>
									</g>
									<path style="fill:#FED101;" d="M1128.542,1633.042c-46.571,14.879-97.56-14.488-113.887-65.594l-84.097-260.904
										l168.419-56.931l84.325,263.953C1199.63,1564.671,1175.113,1618.163,1128.542,1633.042z"/>
									<path d="M1103.664,1639.135c-15.192,0-30.425-4.124-44.507-12.235c-21.987-12.664-38.537-33.54-46.601-58.779
										l-84.095-260.901c-0.37-1.147,0.25-2.379,1.392-2.764l168.42-56.93c0.56-0.187,1.171-0.146,1.701,0.12
										c0.527,0.267,0.926,0.734,1.105,1.296l84.326,263.952c16.67,52.182-8.537,107.024-56.191,122.249
										C1120.854,1637.813,1112.266,1639.135,1103.664,1639.135z M933.323,1307.936l83.43,258.837
										c7.731,24.198,23.571,44.193,44.604,56.308c20.968,12.074,44.59,14.866,66.514,7.864
										c45.337-14.487,69.263-66.843,53.332-116.708l-83.643-261.816L933.323,1307.936z M1128.542,1633.043h0.021H1128.542z"/>
								</g>
								<g>
									<path style="fill:#FED101;" d="M1077.897,1472.105c0,0-229.978-99.638-372.002-88.985l-74.875,9.031
										c-94.368,11.382-162.69,95.575-154.398,190.265l30.789,351.594l463.477-74.986l-62.288-246.74l177.691,23.003
										L1077.897,1472.105z"/>
									<path d="M1090.701,1638.074c-0.097,0-0.195-0.007-0.293-0.019l-239.736-31.747c-1.206-0.159-2.056-1.268-1.895-2.473
										c0.159-1.208,1.28-2.056,2.474-1.897l239.736,31.747c1.207,0.159,2.056,1.268,1.895,2.473
										C1092.736,1637.267,1091.789,1638.074,1090.701,1638.074z"/>
									<path d="M507.411,1936.213c-0.488,0-0.964-0.161-1.354-0.465c-0.483-0.377-0.789-0.936-0.842-1.548l-30.789-351.593
										c-4.061-46.367,9.856-91.809,39.185-127.954c29.331-36.142,70.933-59.117,117.144-64.693l74.875-9.03
										c92.199-7.351,208.863,30.668,286.063,55.83c13.924,4.538,27.076,8.826,38.381,12.287c1.163,0.355,1.818,1.589,1.462,2.753
										c-0.356,1.167-1.585,1.821-2.753,1.462c-11.342-3.474-24.513-7.766-38.455-12.311
										c-76.866-25.052-193.031-62.908-284.259-55.634l-74.787,9.022c-93.73,11.306-160.701,93.835-152.465,187.885l30.582,349.23
										l458.762-74.222l-61.699-244.408c-0.298-1.182,0.418-2.379,1.598-2.678c1.175-0.288,2.379,0.415,2.677,1.597
										l62.288,246.739c0.151,0.601,0.044,1.236-0.296,1.752c-0.339,0.515-0.879,0.865-1.49,0.964l-463.477,74.986
										C507.645,1936.205,507.528,1936.213,507.411,1936.213z"/>
								</g>
							</g>
						</g>
					</g>
				</g>
				<g>
					<path d="M881.962,2161.656H514.247c-40.369,0-73.095-32.726-73.095-73.095c0-40.369,32.726-73.095,73.095-73.095h367.715
						c40.369,0,73.095,32.726,73.095,73.095S922.332,2161.656,881.962,2161.656z"/>
					<path d="M879.635,1994.342h-363.06c-41.655,0-75.423-33.768-75.423-75.423v-239.952c0-134.722,109.214-243.936,243.935-243.936
						h26.034c134.722,0,243.936,109.214,243.936,243.936v239.952C955.058,1960.573,921.29,1994.342,879.635,1994.342z"/>
					<path style="fill:#FFFFFF;" d="M859.633,2161.656H491.918c-40.369,0-73.095-32.726-73.095-73.095s32.726-73.095,73.095-73.095
						h367.715c40.369,0,73.095,32.726,73.095,73.095S900.003,2161.656,859.633,2161.656z"/>
					<path d="M859.634,2163.859H491.918c-41.521,0-75.3-33.779-75.3-75.299c0-41.522,33.779-75.301,75.3-75.301h367.715
						c41.521,0,75.3,33.779,75.3,75.301C934.933,2130.08,901.155,2163.859,859.634,2163.859z M491.918,2017.668
						c-39.089,0-70.891,31.803-70.891,70.892s31.802,70.89,70.891,70.89h367.715c39.089,0,70.891-31.801,70.891-70.89
						s-31.802-70.892-70.891-70.892H491.918z"/>
					<path style="fill:#FFFFFF;" d="M857.306,1994.342h-363.06c-41.655,0-75.423-33.768-75.423-75.423v-239.952
						c0-134.722,109.214-243.936,243.936-243.936h26.034c134.722,0,243.936,109.214,243.936,243.936v239.952
						C932.729,1960.573,898.961,1994.342,857.306,1994.342z"/>
					<path d="M857.306,1996.545H494.246c-42.804,0-77.628-34.823-77.628-77.625v-239.952c0-135.722,110.417-246.141,246.14-246.141
						h26.035c135.722,0,246.14,110.419,246.14,246.141v239.952C934.933,1961.722,900.109,1996.545,857.306,1996.545z
						 M662.759,1437.235c-133.291,0-241.731,108.44-241.731,241.732v239.952c0,40.372,32.846,73.217,73.219,73.217h363.059
						c40.373,0,73.219-32.845,73.219-73.217v-239.952c0-133.292-108.44-241.732-241.731-241.732H662.759z"/>
					<path d="M640.732,1849.078h-28.531c-8.393,0-15.196,6.803-15.196,15.196v165.605c0,8.393,6.804,15.196,15.196,15.196h28.531
						c8.393,0,15.196-6.803,15.196-15.196v-165.605C655.928,1855.881,649.125,1849.078,640.732,1849.078z"/>
				</g>
			</g>
		</g>
		<g>
			<g>
				<polygon style="fill:#FF7DCE;" points="864.258,751.969 784.533,751.969 728.159,808.343 728.159,888.068 784.533,944.443 
					864.258,944.443 920.632,888.068 920.632,808.343 				"/>
				<g>
					<path style="fill:#FFFFFF;" d="M814.262,896.661c-2.714-2.612-4.07-5.793-4.07-9.543c0-3.747,1.331-6.879,3.996-9.395
						c2.663-2.515,6.066-3.773,10.209-3.773c4.143,0,7.544,1.258,10.209,3.773c2.663,2.515,3.994,5.648,3.994,9.395
						c0,3.75-1.358,6.931-4.068,9.543c-2.714,2.615-6.093,3.921-10.135,3.921C820.351,900.581,816.972,899.275,814.262,896.661z
						 M810.635,795.83h27.52l-4.586,67.615h-18.348L810.635,795.83z"/>
				</g>
			</g>
			<g>
				<g>
					<g>
						<g>
							<path style="fill:#FFFFFF;" d="M2028.341,1180.604h-841.92c-22.559,0-40.847-18.288-40.847-40.847v-529.76
								c0-22.559,18.288-40.847,40.847-40.847h841.92c22.559,0,40.847,18.288,40.847,40.847v529.76
								C2069.188,1162.316,2050.9,1180.604,2028.341,1180.604z"/>
							<path style="fill:#FED101;" d="M2069.188,665.495h-923.615v-56.258c0-22.14,17.948-40.088,40.088-40.088H2029.1
								c22.14,0,40.088,17.948,40.088,40.088V665.495z"/>
							<g>
								<path d="M2030.558,1182.808h-846.355c-22.516,0-40.834-18.319-40.834-40.835V607.78c0-22.516,18.318-40.835,40.834-40.835
									h846.355c22.516,0,40.834,18.319,40.834,40.835v534.194C2071.393,1164.489,2053.075,1182.808,2030.558,1182.808z
									 M1184.203,571.353c-20.085,0-36.425,16.341-36.425,36.427v534.194c0,20.086,16.34,36.427,36.425,36.427h846.355
									c20.085,0,36.425-16.341,36.425-36.427V607.78c0-20.086-16.34-36.427-36.425-36.427H1184.203z"/>
								<g>
									<path d="M2069.188,667.7h-923.615c-1.217,0-2.204-0.986-2.204-2.204s0.987-2.204,2.204-2.204h923.615
										c1.217,0,2.204,0.986,2.204,2.204S2070.406,667.7,2069.188,667.7z"/>
									<path d="M1962.638,667.7c-1.217,0-2.204-0.986-2.204-2.204v-96.347c0-1.218,0.987-2.204,2.204-2.204
										c1.217,0,2.204,0.986,2.204,2.204v96.347C1964.842,666.714,1963.855,667.7,1962.638,667.7z"/>
									<path d="M1856.488,667.7c-1.217,0-2.204-0.986-2.204-2.204v-96.347c0-1.218,0.987-2.204,2.204-2.204
										s2.204,0.986,2.204,2.204v96.347C1858.693,666.714,1857.705,667.7,1856.488,667.7z"/>
								</g>
							</g>
							<g>
								<path style="fill:#FFFFFF;" d="M1825.313,641.434h-42.635c-1.217,0-2.204-0.986-2.204-2.204
									c0-1.218,0.987-2.204,2.204-2.204h42.635c1.217,0,2.204,0.986,2.204,2.204
									C1827.517,640.448,1826.53,641.434,1825.313,641.434z"/>
								<g>
									<path style="fill:#FFFFFF;" d="M2034.771,641.434c-0.564,0-1.128-0.215-1.558-0.646l-42.136-42.138
										c-0.861-0.861-0.861-2.256,0-3.117c0.861-0.861,2.256-0.861,3.117,0l42.136,42.138c0.861,0.861,0.861,2.256,0,3.117
										C2035.899,641.218,2035.335,641.434,2034.771,641.434z"/>
									<path style="fill:#FFFFFF;" d="M1992.635,641.434c-0.564,0-1.128-0.215-1.558-0.646c-0.861-0.861-0.861-2.256,0-3.117
										l42.136-42.138c0.861-0.861,2.256-0.861,3.117,0c0.861,0.861,0.861,2.256,0,3.117l-42.136,42.138
										C1993.763,641.218,1993.199,641.434,1992.635,641.434z"/>
								</g>
								<path style="fill:#FFFFFF;" d="M1930.313,641.434h-43.814c-1.217,0-2.204-0.986-2.204-2.204v-43.814
									c0-1.218,0.987-2.204,2.204-2.204h43.814c1.217,0,2.204,0.986,2.204,2.204v43.814
									C1932.517,640.448,1931.531,641.434,1930.313,641.434z M1888.703,637.025h39.406v-39.406h-39.406V637.025z"/>
							</g>
						</g>
					</g>
					<g>
						<path d="M1953.086,790.317h-270.9c-1.217,0-2.204-0.986-2.204-2.204c0-1.218,0.987-2.204,2.204-2.204h270.9
							c1.217,0,2.204,0.986,2.204,2.204C1955.29,789.331,1954.303,790.317,1953.086,790.317z"/>
						<path d="M1953.086,837.505h-270.9c-1.217,0-2.204-0.986-2.204-2.204c0-1.218,0.987-2.204,2.204-2.204h270.9
							c1.217,0,2.204,0.986,2.204,2.204C1955.29,836.519,1954.303,837.505,1953.086,837.505z"/>
						<path d="M1953.086,884.692h-270.9c-1.217,0-2.204-0.986-2.204-2.204c0-1.218,0.987-2.204,2.204-2.204h270.9
							c1.217,0,2.204,0.986,2.204,2.204C1955.29,883.706,1954.303,884.692,1953.086,884.692z"/>
						<path d="M1953.086,931.88h-270.9c-1.217,0-2.204-0.986-2.204-2.204c0-1.218,0.987-2.204,2.204-2.204h270.9
							c1.217,0,2.204,0.986,2.204,2.204C1955.29,930.894,1954.303,931.88,1953.086,931.88z"/>
						<path d="M1953.086,979.065h-270.9c-1.217,0-2.204-0.986-2.204-2.204s0.987-2.204,2.204-2.204h270.9
							c1.217,0,2.204,0.986,2.204,2.204S1954.303,979.065,1953.086,979.065z"/>
						<path d="M1822.479,1026.253h-140.294c-1.217,0-2.204-0.986-2.204-2.204c0-1.218,0.987-2.204,2.204-2.204h140.294
							c1.217,0,2.204,0.986,2.204,2.204C1824.683,1025.267,1823.696,1026.253,1822.479,1026.253z"/>
					</g>
					<g>
						<path d="M1537.182,790.317h-270.9c-1.217,0-2.204-0.986-2.204-2.204c0-1.218,0.987-2.204,2.204-2.204h270.9
							c1.217,0,2.204,0.986,2.204,2.204C1539.386,789.331,1538.399,790.317,1537.182,790.317z"/>
						<path d="M1537.182,837.505h-270.9c-1.217,0-2.204-0.986-2.204-2.204c0-1.218,0.987-2.204,2.204-2.204h270.9
							c1.217,0,2.204,0.986,2.204,2.204C1539.386,836.519,1538.399,837.505,1537.182,837.505z"/>
						<path d="M1537.182,884.692h-270.9c-1.217,0-2.204-0.986-2.204-2.204c0-1.218,0.987-2.204,2.204-2.204h270.9
							c1.217,0,2.204,0.986,2.204,2.204C1539.386,883.706,1538.399,884.692,1537.182,884.692z"/>
						<path d="M1537.182,931.88h-270.9c-1.217,0-2.204-0.986-2.204-2.204c0-1.218,0.987-2.204,2.204-2.204h270.9
							c1.217,0,2.204,0.986,2.204,2.204C1539.386,930.894,1538.399,931.88,1537.182,931.88z"/>
						<path d="M1537.182,979.065h-270.9c-1.217,0-2.204-0.986-2.204-2.204s0.987-2.204,2.204-2.204h270.9
							c1.217,0,2.204,0.986,2.204,2.204S1538.399,979.065,1537.182,979.065z"/>
						<path d="M1406.575,1026.253h-140.294c-1.217,0-2.204-0.986-2.204-2.204c0-1.218,0.987-2.204,2.204-2.204h140.294
							c1.217,0,2.204,0.986,2.204,2.204C1408.779,1025.267,1407.792,1026.253,1406.575,1026.253z"/>
					</g>
				</g>
				<g>
					
						<ellipse transform="matrix(0.7071 -0.7071 0.7071 0.7071 -173.7392 1428.2041)" cx="1637.125" cy="923.824" rx="185.354" ry="185.354"/>
					
						<ellipse transform="matrix(0.7071 -0.7071 0.7071 0.7071 -169.8594 1410.8373)" style="fill:#FF7DCE;" cx="1618.102" cy="910.457" rx="185.354" ry="185.354"/>
					<path d="M1618.102,1098.015c-103.42,0-187.559-84.137-187.559-187.558s84.138-187.558,187.559-187.558
						c103.419,0,187.557,84.137,187.557,187.558S1721.521,1098.015,1618.102,1098.015z M1618.102,727.308
						c-100.989,0-183.15,82.161-183.15,183.149s82.161,183.149,183.15,183.149c100.989,0,183.149-82.161,183.149-183.149
						S1719.091,727.308,1618.102,727.308z"/>
					<g>
						
							<rect x="1588.284" y="779.804" transform="matrix(0.7071 0.7071 -0.7071 0.7071 1117.7213 -877.5039)" style="fill:#FFFFFF;" width="59.635" height="261.306"/>
						
							<rect x="1588.284" y="779.804" transform="matrix(-0.7071 0.7071 -0.7071 -0.7071 3406.063 410.0789)" style="fill:#FFFFFF;" width="59.635" height="261.306"/>
					</g>
				</g>
			</g>
			<g>
				<g>
					<rect x="665.841" y="337.205" style="fill:#8C7BFF;" width="379.55" height="65.586"/>
					<path d="M1045.391,597.128H665.841c-1.217,0-2.204-0.986-2.204-2.204v-257.72c0-1.218,0.987-2.204,2.204-2.204h379.549
						c1.217,0,2.204,0.986,2.204,2.204v257.72C1047.595,596.143,1046.608,597.128,1045.391,597.128z M668.045,592.72h375.141
						V339.409H668.045V592.72z"/>
					<g>
						<path style="fill:#FFFFFF;" d="M995.841,385.354c-0.564,0-1.128-0.215-1.558-0.646c-0.861-0.861-0.861-2.256,0-3.117
							l25.362-25.364c0.861-0.861,2.256-0.861,3.117,0c0.861,0.861,0.861,2.256,0,3.117l-25.362,25.364
							C996.969,385.139,996.405,385.354,995.841,385.354z"/>
						<path style="fill:#FFFFFF;" d="M1021.203,385.354c-0.564,0-1.128-0.215-1.559-0.646l-25.362-25.364
							c-0.861-0.861-0.861-2.256,0-3.117c0.861-0.861,2.256-0.861,3.117,0l25.362,25.364c0.861,0.861,0.861,2.256,0,3.117
							C1022.331,385.139,1021.767,385.354,1021.203,385.354z"/>
					</g>
				</g>
				<g>
					<rect x="728.159" y="402.639" style="fill:#8C7BFF;" width="379.55" height="65.586"/>
					<path d="M1107.709,662.564H728.159c-1.217,0-2.204-0.986-2.204-2.204v-257.72c0-1.218,0.987-2.204,2.204-2.204h379.549
						c1.217,0,2.204,0.986,2.204,2.204v257.72C1109.913,661.578,1108.926,662.564,1107.709,662.564z M730.364,658.155h375.141
						V404.844H730.364V658.155z"/>
					<g>
						<path style="fill:#FFFFFF;" d="M1058.159,450.787c-0.564,0-1.128-0.215-1.559-0.646c-0.861-0.861-0.861-2.256,0-3.117
							l25.362-25.362c0.861-0.861,2.256-0.861,3.117,0c0.861,0.861,0.861,2.256,0,3.117l-25.362,25.362
							C1059.287,450.572,1058.723,450.787,1058.159,450.787z"/>
						<path style="fill:#FFFFFF;" d="M1083.521,450.787c-0.564,0-1.128-0.215-1.558-0.646l-25.362-25.362
							c-0.861-0.861-0.861-2.256,0-3.117c0.861-0.861,2.256-0.861,3.117,0l25.362,25.362c0.861,0.861,0.861,2.256,0,3.117
							C1084.649,450.572,1084.085,450.787,1083.521,450.787z"/>
					</g>
				</g>
				<g>
					<rect x="790.477" y="468.073" style="fill:#8C7BFF;" width="379.55" height="65.586"/>
					<path d="M1170.027,727.997H790.478c-1.217,0-2.204-0.986-2.204-2.204v-257.72c0-1.218,0.987-2.204,2.204-2.204h379.549
						c1.217,0,2.204,0.986,2.204,2.204v257.72C1172.231,727.011,1171.245,727.997,1170.027,727.997z M792.682,723.588h375.141
						V470.277H792.682V723.588z"/>
					<g>
						<path style="fill:#FFFFFF;" d="M1120.477,516.222c-0.564,0-1.128-0.215-1.558-0.646c-0.861-0.861-0.861-2.256,0-3.117
							l25.362-25.364c0.861-0.861,2.256-0.861,3.117,0c0.861,0.861,0.861,2.256,0,3.117l-25.362,25.364
							C1121.605,516.007,1121.041,516.222,1120.477,516.222z"/>
						<path style="fill:#FFFFFF;" d="M1145.839,516.222c-0.564,0-1.128-0.215-1.559-0.646l-25.362-25.364
							c-0.861-0.861-0.861-2.256,0-3.117c0.861-0.861,2.256-0.861,3.117,0l25.362,25.364c0.861,0.861,0.861,2.256,0,3.117
							C1146.967,516.007,1146.403,516.222,1145.839,516.222z"/>
					</g>
				</g>
				<g>
					<rect x="852.795" y="533.719" style="fill:#8C7BFF;" width="379.55" height="65.586"/>
					<path d="M1232.345,793.432h-379.55c-1.217,0-2.204-0.986-2.204-2.204v-257.72c0-1.218,0.987-2.204,2.204-2.204h379.55
						c1.217,0,2.204,0.986,2.204,2.204v257.72C1234.55,792.446,1233.563,793.432,1232.345,793.432z M854.999,789.023h375.142
						V535.712H854.999V789.023z"/>
					<g>
						<path style="fill:#FFFFFF;" d="M1182.794,581.656c-0.564,0-1.128-0.215-1.559-0.646c-0.861-0.861-0.861-2.256,0-3.117
							l25.363-25.362c0.861-0.861,2.256-0.861,3.117,0c0.861,0.861,0.861,2.256,0,3.117l-25.363,25.362
							C1183.922,581.44,1183.358,581.656,1182.794,581.656z"/>
						<path style="fill:#FFFFFF;" d="M1208.158,581.656c-0.564,0-1.128-0.215-1.558-0.646l-25.363-25.362
							c-0.861-0.861-0.861-2.256,0-3.117c0.861-0.861,2.256-0.861,3.117,0l25.363,25.362c0.861,0.861,0.861,2.256,0,3.117
							C1209.286,581.44,1208.722,581.656,1208.158,581.656z"/>
					</g>
				</g>
			</g>
			<g>
				<g>
					<g>
						<polygon style="fill:#FFFFFF;" points="2162.242,1487.191 1679.569,1487.521 1795.441,1401.949 1795.441,1158.918 
							2162.242,1158.918 						"/>
						<path d="M1679.57,1489.726c-0.951,0-1.796-0.611-2.094-1.513c-0.298-0.906,0.018-1.899,0.784-2.465l114.978-84.912v-241.918
							c0-1.218,0.987-2.204,2.204-2.204h366.801c1.217,0,2.204,0.986,2.204,2.204v328.272c0,1.216-0.986,2.204-2.203,2.204
							L1679.57,1489.726z M2162.242,1487.19h0.021H2162.242z M1797.645,1161.123v240.826c0,0.7-0.331,1.358-0.894,1.774
							l-110.481,81.591l473.767-0.325v-323.866H1797.645z"/>
					</g>
					<g>
						<g>
							<g>
								<polygon style="fill:#FDA4FF;" points="1912.397,1372.351 1872.564,1372.351 1865.985,1231.02 1918.976,1231.02 								"/>
								<rect x="1872.564" y="1385.626" style="fill:#FDA4FF;" width="39.832" height="34.837"/>
							</g>
							<g>
								<polygon style="fill:#FDA4FF;" points="1994.64,1372.351 1954.808,1372.351 1948.229,1231.02 2001.22,1231.02 								"/>
								<rect x="1954.808" y="1385.626" style="fill:#FDA4FF;" width="39.832" height="34.837"/>
							</g>
							<g>
								<polygon style="fill:#FDA4FF;" points="2076.884,1372.351 2037.052,1372.351 2030.473,1231.02 2083.464,1231.02 								"/>
								<rect x="2037.052" y="1385.626" style="fill:#FDA4FF;" width="39.832" height="34.837"/>
							</g>
						</g>
						<g>
							<g>
								<path d="M1912.397,1374.555h-39.832c-1.177,0-2.147-0.926-2.202-2.101l-6.581-141.33c-0.028-0.603,0.192-1.19,0.608-1.625
									c0.416-0.435,0.991-0.682,1.594-0.682h52.992c0.603,0,1.179,0.248,1.594,0.682c0.417,0.435,0.636,1.022,0.608,1.625
									l-6.579,141.33C1914.544,1373.629,1913.574,1374.555,1912.397,1374.555z M1874.669,1370.146h35.624l6.374-136.922h-48.373
									L1874.669,1370.146z"/>
								<path d="M1912.397,1422.668h-39.832c-1.217,0-2.204-0.986-2.204-2.204v-34.838c0-1.218,0.987-2.204,2.204-2.204h39.832
									c1.217,0,2.204,0.986,2.204,2.204v34.838C1914.601,1421.682,1913.614,1422.668,1912.397,1422.668z M1874.769,1418.259
									h35.423v-30.429h-35.423V1418.259z"/>
							</g>
							<g>
								<path d="M1994.64,1374.555h-39.832c-1.177,0-2.147-0.926-2.202-2.101l-6.58-141.33c-0.028-0.603,0.192-1.19,0.608-1.625
									c0.416-0.435,0.991-0.682,1.594-0.682h52.991c0.603,0,1.179,0.248,1.594,0.682c0.417,0.435,0.636,1.022,0.608,1.625
									l-6.579,141.33C1996.787,1373.629,1995.817,1374.555,1994.64,1374.555z M1956.912,1370.146h35.624l6.374-136.922h-48.371
									L1956.912,1370.146z"/>
								<path d="M1994.64,1422.668h-39.832c-1.217,0-2.204-0.986-2.204-2.204v-34.838c0-1.218,0.987-2.204,2.204-2.204h39.832
									c1.217,0,2.204,0.986,2.204,2.204v34.838C1996.844,1421.682,1995.857,1422.668,1994.64,1422.668z M1957.012,1418.259h35.423
									v-30.429h-35.423V1418.259z"/>
							</g>
							<g>
								<path d="M2076.884,1374.555h-39.832c-1.177,0-2.147-0.926-2.202-2.101l-6.58-141.33c-0.028-0.603,0.192-1.19,0.608-1.625
									c0.415-0.435,0.991-0.682,1.594-0.682h52.991c0.603,0,1.178,0.248,1.594,0.682c0.417,0.435,0.636,1.022,0.608,1.625
									l-6.58,141.33C2079.031,1373.629,2078.061,1374.555,2076.884,1374.555z M2039.156,1370.146h35.624l6.374-136.922h-48.371
									L2039.156,1370.146z"/>
								<path d="M2076.884,1422.668h-39.832c-1.217,0-2.204-0.986-2.204-2.204v-34.838c0-1.218,0.987-2.204,2.204-2.204h39.832
									c1.218,0,2.204,0.986,2.204,2.204v34.838C2079.088,1421.682,2078.101,1422.668,2076.884,1422.668z M2039.256,1418.259
									h35.424v-30.429h-35.424V1418.259z"/>
							</g>
						</g>
					</g>
				</g>
				<path style="fill:#FF7DCE;" d="M2029.984,1182.808h-234.543c-1.217,0-2.204-0.986-2.204-2.204c0-1.218,0.987-2.204,2.204-2.204
					h234.543c14.672,0,27.847-8.733,33.565-22.247c0.473-1.122,1.763-1.64,2.889-1.171c1.121,0.474,1.646,1.767,1.171,2.889
					C2061.199,1173.02,2046.431,1182.808,2029.984,1182.808z"/>
			</g>
		</g>
	</g>
</g>
</svg>
