<?xml version="1.0" encoding="utf-8"?>
<!-- Generator: Adobe Illustrator 27.5.0, SVG Export Plug-In . SVG Version: 6.00 Build 0)  -->
<svg version="1.1" id="Layer_1" xmlns="http://www.w3.org/2000/svg" xmlns:xlink="http://www.w3.org/1999/xlink" x="0px" y="0px"
	 viewBox="0 0 2499.962 1666" style="enable-background:new 0 0 2499.962 1666;" xml:space="preserve">
<g>
	<path style="fill:#FEFEFE;" d="M0,0h2497.1c1.4,2.2,1.9,4.1,2,6.7c1.1,23.5,0.1,47.3,0.1,70.8v138.1v421.3v772v187.5
		c0,13,1.9,55.4-0.3,65.4c-0.4,1.6-0.9,2.9-1.8,4.2H0V0z"/>
	<path style="fill:#61C4A9;" d="M293,898c17.1,5.5,35.7,12.1,53.4,15.1c0.8,8.3,2.2,16.2,4.1,24.3c-10.4-6.3-27.5-22.6-38.8-24.6
		c-2-2.3-4.5-3.3-7.2-4.6c-4.2-2.6-8.1-5.3-11.9-8.4L293,898z"/>
	<path style="fill:#EE4C4E;" d="M343.1,328.6c8.9-0.6,17.1,0.3,25.1,4.6c10.3,5.6,17.8,15.6,20.9,26.8c2.9,10.5,1.7,21.7-3.9,31.1
		c-6.8,11.4-17.3,16.8-29.8,20c-10.7,0.3-19.9-0.5-29.1-6.3c-9.1-5.7-15.6-14.9-17.9-25.5c-2.5-11.2-0.4-23.6,5.9-33.1
		C321.2,335.7,330.9,331.1,343.1,328.6z"/>
	<path style="fill:#FEFEFE;" d="M349.4,339.1l1.2,0.1c4.2,3.3,8.9,4.2,12.5,8.5l-0.5,2.1c-4.1,3-9.8,2.1-14.5,4.1v2.2
		c4.1,2.1,10.9-0.4,15.9,0.9c3.7,0.9,6.8,3.3,8.5,6.8c2.4,4.7,2.2,10.1,0.7,15c-2,6.4-6,11.1-11.9,14.1c-2.2,0.4-4.1,1-6.2,1.8
		l-2.3,5.9l-2.7,0.8c-3.7-1.9-2-4.2-4.3-6.5c-3.1-3.1-10.9-4.3-14.9-7.6c-4.3-3.6-5.4-9.4-5.8-14.7c-1.7-22.1,13.2-20.3,23.7-32.8
		C349,339.6,349.2,339.4,349.4,339.1z"/>
	<path style="fill:#B9D6F4;" d="M2062.2,1311.3c6.1,0,12.1,0.2,18.2,0.9c8,5.7,58.3,19.3,60,24.5l-3.8,2.2
		c14.1,32,14.8,67.8,1.9,100.4c-11.4,29-34.1,52.4-62.7,64.7c-4.7,2-9.6,3.5-14.5,4.8c24.4,0.2,193.4-2.1,198.5,0.9
		c-23.7,2.3-58.1,0.1-82.7,0.2l-95.4,0.2c-17.8-0.1-36.6,0.8-54.2-1.7c1.7-1.1,3.1-2.3,4.5-3.9c1.7-2,2.7-3.9,3.3-6.4
		c3.7-16.9,20.4-124.1,19.4-136.9c0.2-0.4,0.3-0.8,0.5-1.2c2.7-6.9,6-22.8,3.1-29.7c0.6-0.6,1-0.9,1.5-1.6c2.5-3.8,2.3-9.7,1.4-13.9
		L2062.2,1311.3z"/>
	<path style="fill:#079A94;" d="M2062.2,1311.3c6.1,0,12.1,0.2,18.2,0.9c8,5.7,58.3,19.3,60,24.5l-3.8,2.2l-2.2,0.2
		c-11.3,7.4-66.2,22.2-79.7,22c0.2-0.4,0.3-0.8,0.5-1.2c2.7-6.9,6-22.8,3.1-29.7c0.6-0.6,1-0.9,1.5-1.6c2.5-3.8,2.3-9.7,1.4-13.9
		L2062.2,1311.3z"/>
	<path style="fill:#07556D;" d="M2062.2,1311.3c6.1,0,12.1,0.2,18.2,0.9c8,5.7,58.3,19.3,60,24.5l-3.8,2.2l-2.2,0.2
		c-13.2-4.5-63.5-23.4-73.3-24.4L2062.2,1311.3z"/>
	
		<linearGradient id="SVGID_1_" gradientUnits="userSpaceOnUse" x1="489.8502" y1="331.0611" x2="484.2012" y2="186.7958" gradientTransform="matrix(1 0 0 1 0 -54)">
		<stop  offset="0" style="stop-color:#EF9335"/>
		<stop  offset="1" style="stop-color:#FACF76"/>
	</linearGradient>
	<path style="fill:url(#SVGID_1_);" d="M457.3,281.7c-17.4-7.8-31.4-20.9-39.5-38.3c-9.1-19.4-9.4-43.4-1.8-63.4
		c7.2-18.7,21.5-34.2,39.9-42.3c18.7-8.2,40.7-8.9,59.7-1.2c19.3,7.8,34.6,22.8,42.4,42.1c8.4,20.7,7.3,42.6-1.3,63
		c-7.2,17-22,31.7-39.1,38.7c-13.3,8.1-33.7,8.8-48.6,5.2C465,284.6,461.1,283.3,457.3,281.7z"/>
	<path style="fill:#F09325;" d="M457.3,281.7l1.3-2.5c10.9-2.3,51.1-8.7,58.9-3.7c0,1.3-0.1,2.6,0,4c0,0.3,0.1,0.5,0.1,0.8
		c-13.3,8.1-33.7,8.8-48.6,5.2C465,284.6,461.1,283.3,457.3,281.7z"/>
	<path style="fill:#FEFEFE;" d="M515.8,171.7c6,2.4,15.1,12.7,20.4,17.4c-20.2,22.3-42.1,43-62.7,65l-9.6-10.2
		c-6.7-7.4-13.3-14.5-20.7-21.2c5-6.1,11-11.6,16.5-17.2c3.7,4.8,8,8.9,12.2,13.2C486.9,203.2,501.3,187.4,515.8,171.7z"/>
	<path style="fill:#056172;" d="M2265.6,1168c13.6-1.9,85.6-1,95.3,4.8c3.3,0.2,5.3-0.2,8,2c-1.4,2.9-3.8,4-6.5,5.6
		c-0.3,9.2-34.6,41.9-42,48.8c-7.4,7-19.1,19.7-28.7,23.2c-1.6,3.2-2.8,3.3-6,4.9c-3.3,8.6-47.6,35.3-57.5,39.9
		c-1.3,0.6-2.5,1-3.8,1.4c-2.9,3.1-5.5,3.9-9.4,5.2c-4.7,6.5-63.1,31.6-73,32.9c-0.5,0.1-1.1,0.1-1.6,0.2c-1.8-5.2-52-18.8-60-24.5
		c4-0.3,9.9,0,13.2-2.5c1.6-8.6,2.1-23.8-0.8-32c1.1-4,1-4.5-0.4-8.4c10.2-0.2,15.7-4.7,22.7-11.5c6-5.8,21.2-20.8,21.4-29
		c10.5-6.2,30.4-27.7,40.7-36.8c10.2-5.2,21.6-10.2,30.1-18c17.5-1.5,34.8-5.3,52.4-5.9L2265.6,1168z"/>
	<path style="fill:#079A94;" d="M2265.6,1168c13.6-1.9,85.6-1,95.3,4.8c-4.4,4.3-126.8,44.7-140.7,48.2
		c10.8-6.2,36.4-35.6,43.8-46.2C2265.9,1171.9,2266.3,1171.6,2265.6,1168z"/>
	<path style="fill:#17ADA4;" d="M2215.8,1229.3c16.4-2.8,33.1-10.2,48.8-15.7c32.5-11.3,64.9-23.2,97.8-33.1
		c-0.3,9.2-34.6,41.9-42,48.8c-7.4,7-19.1,19.7-28.7,23.2l-0.3-1.1C2283.6,1246,2227.8,1231.3,2215.8,1229.3z"/>
	<path style="fill:#079A94;" d="M2207.2,1174.2c17.5-1.5,34.8-5.3,52.4-5.9c-0.2,0.9-0.3,2.6-0.7,3.4c-1.4,2.8-45.3,51.1-48.9,53.4
		c-10.1,6.5-79,32.4-92,35.1c12.1-7.4,50-52.4,59.5-65c0.1-1.5,0.4-1.8-0.4-3.1C2187.4,1187,2198.7,1182,2207.2,1174.2z"/>
	<path style="fill:#079A94;" d="M2103.8,1272.2c12.5,2,106.3,26.5,111.3,31.5c-4.7,6.5-63.1,31.6-73,32.9c-0.5,0.1-1.1,0.1-1.6,0.2
		c-1.8-5.2-52-18.8-60-24.5c4-0.3,9.9,0,13.2-2.5c1.6-8.6,2.1-23.8-0.8-32C2096.6,1276.4,2101,1275.2,2103.8,1272.2z"/>
	<path style="fill:#079A94;" d="M2207.4,1233.2c12,1.9,70,18.1,78.3,24.1c-3.3,8.6-47.6,35.3-57.5,39.9c-1.3,0.6-2.5,1-3.8,1.4
		l-1-1.9c-36.5-7.7-71.8-20.5-108.3-28.1C2131,1264.2,2196.4,1241.4,2207.4,1233.2z"/>
	<path style="fill:#17ADA4;" d="M2212.7,956.8c9-4.2,18.3-7.8,27.5-11.5c11.9-4.8,82.4-27.9,90.2-24.5l-1.6,3.4
		c1.4,8.4-2.3,20.9-3.9,29.5c-9.8,53.1-27.3,117.7-58.8,162.5c-1.4,2-3,4.4-5.2,5.7l-1.2,1.4c-6.4,17.9-38.3,37.7-52.4,51
		c-8.5,7.8-19.9,12.7-30.1,18c-10.3,9.1-30.2,30.6-40.7,36.8c-0.2,8.2-15.4,23.2-21.4,29c-7,6.7-12.5,11.3-22.7,11.5
		c0.8-1.7,1.5-2.9,1.5-4.8c0-1.5,0.2-1.1-0.8-2.2c-4.6-4.3-27.1-2.1-33.6-2l-3.7-0.9c-17.9,2.2-45.1,1.2-63.5,0.1
		c-2.7,0.5-5.7,0.2-8.4,0.1c8.3-10.1,33.6-38.3,36.6-48.8c0.3-0.7,0.4-0.9,0.5-1.8c0.7-4.2-3.2-103.8-4.6-108.7
		c-0.2-0.9-1.7-2.5-2.2-3.3c2.8-1.8,4.3-3.1,5.9-6c9.1-5,25.1-22.9,34-30.5c11-9.4,22.2-18.6,33.7-27.4c7.3-5.6,16.3-11,22.5-17.6
		c2.3-1,4.4-2.5,6.4-3.9c7.9-4.6,34.2-19.2,38.5-25.5c1.4-2,0.6-4,0.3-6.2l2.5,5.2c3.5-0.1,44-23.5,52-27.1L2212.7,956.8z"/>
	<path style="fill:#86DAC7;" d="M2298.9,956.9l1.6,2.9c-4.4,12-35.5,70.5-44,77.3c-0.2,0.1-0.3,0.3-0.5,0.4
		c-18.1,3.5-37.7,5.1-56.1,6.6C2209.7,1040,2294.9,964.9,2298.9,956.9z"/>
	<path style="fill:#86DAC7;" d="M2212.7,956.8c9-4.2,18.3-7.8,27.5-11.5c11.9-4.8,82.4-27.9,90.2-24.5l-1.6,3.4
		c-4.4,0.7-7.5,6.2-11.3,8.5c-5.5,7.9-126.1,112.9-130.7,115c-0.9,0.4-1.9,0.9-2.8,1.3c2-2.2,3.7-4.4,4.9-7.2
		c3.8-8.8,26.2-77.4,26-83.3c0-0.3-0.1-0.6-0.1-0.9L2212.7,956.8z"/>
	<path style="fill:#86DAC7;" d="M2244.2,1044.7h7.8c0.4,7.6-36.1,55-43.6,63.3c-7,7.7-13.8,13.8-24.3,16.1
		c-7.5,2.6-16.8,3.4-24.6,4.9c-21.3,4-42.6,7.6-64,11.2c4.5-2.3,92.2-81.8,96.5-88.5C2209.4,1049.6,2226.8,1047.1,2244.2,1044.7z"/>
	<path style="fill:#86DAC7;" d="M2188.8,1131.7c-0.1,1,0,2.1-0.4,3.1c-1.6,4.7-41.5,38.5-47.4,43.1c-30.5,23.6-69.1,45.4-107.6,51.8
		c-5,0.8-11,2.2-16,1.5c-0.9-0.1-1.8-0.3-2.7-0.6c7.9-5.2,15.1-18.3,21.3-25.9c7.8-9.4,46.8-49.6,49.5-55.6L2188.8,1131.7z"/>
	<path style="fill:#61C4A9;" d="M2317.4,932.7c3.9-2.4,7-7.9,11.3-8.5c1.4,8.4-2.3,20.9-3.9,29.5c-9.8,53.1-27.3,117.7-58.8,162.5
		c-1.4,2-3,4.4-5.2,5.7l-1.5-2c-25.1-0.4-50.2,4.7-75.3,4.2c10.5-2.2,17.3-8.3,24.3-16.1c7.5-8.3,44-55.6,43.6-63.3h-7.8
		c13-3.3,47.7-1.7,57.1-8c-4.6-2.3-37.1,0.8-45.3,0.8c0.2-0.1,0.3-0.3,0.5-0.4c8.5-6.7,39.6-65.2,44-77.3l-1.6-2.9
		c6.7-4.5,18.7-15.1,21.2-22.6L2317.4,932.7z"/>
	<path style="fill:#86DAC7;" d="M2155.7,980.1l2.5,5.2c3.5-0.1,44-23.5,52-27.1c-4.5,14.4-26.4,89-31.2,95.3
		c-1,2.1-80.8,76.1-85.3,78.1c4.5-7.7,25.5-112.3,23.5-119c-0.1-0.2-0.2-0.4-0.3-0.7c7.9-4.6,34.2-19.2,38.5-25.5
		C2156.8,984.4,2156,982.3,2155.7,980.1z"/>
	<path style="fill:#86DAC7;" d="M2110.5,1015.7c1.1,2,1.4,3.8,1.2,6c-2.1,18.4-7.7,37.3-11.6,55.6c-3.9,18.5-6.4,38.7-11.9,56.6
		c-0.6,1.9-1.1,3.6-2.4,5.1c-1.6,3.9-57,63.2-60.8,65.3c1.2-2.5,1.9-4.9,2-7.7c0.5-13.9-3.1-94.4-5.7-103.1c-0.2-0.7-0.7-1.7-1-2.4
		c9.1-5,25.1-22.9,34-30.5c11-9.4,22.2-18.6,33.7-27.4C2095.3,1027.7,2104.2,1022.3,2110.5,1015.7z"/>
	<path style="fill:#61C4A9;" d="M2188.8,1131.7c13.9-3.3,56.9-9.9,70.8-8.5c-6.4,17.9-38.3,37.7-52.4,51c-8.5,7.8-19.9,12.7-30.1,18
		c-10.3,9.1-30.2,30.6-40.7,36.8c-0.2,8.2-15.4,23.2-21.4,29c-7,6.7-12.5,11.3-22.7,11.5c0.8-1.7,1.5-2.9,1.5-4.8
		c0-1.5,0.2-1.1-0.8-2.2c-4.6-4.3-27.1-2.1-33.6-2l-3.7-0.9c-17.9,2.2-45.1,1.2-63.5,0.1c7-6.3,19.2-20.4,22.3-29.1
		c0.9,0.3,1.8,0.5,2.7,0.6c5,0.7,11-0.7,16-1.5c38.5-6.5,77.1-28.2,107.6-51.8c5.9-4.6,45.7-38.3,47.4-43.1
		C2188.8,1133.8,2188.7,1132.7,2188.8,1131.7z"/>
	<path style="fill:#079A94;" d="M2055.9,1259.6c17.9-6.3,34.4-14.9,51.8-22.3c3.5,3.1,5.4,4.9,10,5.6c7.4-1.9,13.4-8.8,18.8-13.9
		c-0.2,8.2-15.4,23.2-21.4,29c-7,6.7-12.5,11.3-22.7,11.5c0.8-1.7,1.5-2.9,1.5-4.8c0-1.5,0.2-1.1-0.8-2.2c-4.6-4.3-27.1-2.1-33.6-2
		L2055.9,1259.6z"/>
	<path style="fill:#17ADA4;" d="M134.7,861.7v-1.3c2.9-1.9,5.9-0.7,9.2-0.3c21.7,1.8,60.8,7.1,80.1,14.9l2.1,0.2
		c21,5.1,47.4,13.6,67,22.8l-0.3,1.8c3.8,3.1,7.7,5.8,11.9,8.4c2.7,1.3,5.2,2.3,7.2,4.6c11.2,2,28.3,18.3,38.8,24.6
		c18.2,13.2,35.9,27.4,52,43.2c2.3,2.2,5.1,4.3,7,6.9c6.7,7.6,14.1,19.9,21.2,26c5.7-2.3,17,2.2,22.9,3.8l-2.4,26.5l0.4,1.4
		c-0.8,31.8,0.2,51.2,22.5,75.8c3,11.2,4.9,23.9,9.1,34.6c0.9,4.6,1.7,8.9,1.5,13.6c-6,8.1-30.7,64.7-29.9,73.4
		c0.1,1.4,0.6,2.8,1.1,4.2c5.4,13.1,9.3,26.4,12.7,40.2c-0.4,3.5-1.4,7.8-0.3,11.2c1.5,3.3,2.9,6.5,3.8,10c2.3,11.2,4.7,22.5,5.5,34
		h-7.3c-4.9,0-9.9,0.3-14.6-1c-3.6,0.2-7.4,0.5-11,0.3c-24.4,0-49.3,0.8-73.6-1.4l-22.3-6.9l-8.3-2.3c-22-7.7-42.8-16.2-63.8-26.5
		l-7.2-3.5c-17.9-10.6-35.3-21.5-51.9-34l-5.1-4c-24.4-20.8-47-42.5-68.4-66.5c-1.3-1.6-2.4-3.5-3.5-5.3c29.6-9,61.7-11.1,92.5-12.9
		h6.2c18.9,0.1,39.7-1,58.2,3.2l15.3,2.1c-19.2-19.8-38.1-40.5-54.1-63l-5.9-7.8c-17.4-17.1-47.6-71-58.7-94l-3.5-6.5
		c-12.3-20.8-20.4-45.8-29-68.5l-2.7-6.8C150.8,911.7,142.3,887,134.7,861.7z"/>
	<path style="fill:#61C4A9;" d="M297.5,1181.2l15.3,2.1c7.2,4.5,13.9,13.3,19.5,19.7C317.1,1200.4,308.4,1191.3,297.5,1181.2z"/>
	<path style="fill:#86DAC7;" d="M362.9,1226.8c28.7,8.2,58.2,17.7,87.3,24c6.8,17.2,11.2,34.5,15.3,52.5l-0.6,1
		c-0.2-0.3-0.5-0.6-0.7-0.9c-3-3.4-56.2-41.5-60.9-43.7c-1.3-0.6-2.2-0.6-3.6-0.7l-2.6-1.8c-1-2.7-4.1-5.1-6.1-7.1
		C381.9,1242,371.5,1235.4,362.9,1226.8z"/>
	<path style="fill:#61C4A9;" d="M143.9,860.1c21.7,1.8,60.8,7.1,80.1,14.9c-2.2,6.9,15.5,61.6,18,73.6
		C210.1,918.2,177.7,888.4,143.9,860.1z"/>
	<path style="fill:#61C4A9;" d="M134.7,861.7c17.8,11.5,33.8,27.8,49.4,42.1c18,16.5,36.6,32.8,53.4,50.6
		c-26-6.8-52.6-11.1-78.6-17.7C150.8,911.7,142.3,887,134.7,861.7z"/>
	<path style="fill:#86DAC7;" d="M161.6,943.5c27.5,7.1,55.5,12.6,83.2,18.5c25.8,26.1,49.3,54.2,74.3,80.9c-31-9-62-16.8-93.5-23.9
		c-11-2.5-23.8-6.6-35.1-7C178.3,991.1,170.2,966.1,161.6,943.5z"/>
	<path style="fill:#86DAC7;" d="M226.1,875.2c21,5.1,47.4,13.6,67,22.8l-0.3,1.8c3.8,3.1,7.7,5.8,11.9,8.4
		c7.8,43,13.4,86.5,19.6,129.8c-13.3-13.1-25.1-28.2-37.7-42c-11.2-12.2-24.6-24-34.3-37.2c-1.8-2.5-3-5.4-4-8.3
		c-8.1-23.6-11.5-51.8-21.6-74.1L226.1,875.2z"/>
	<path style="fill:#86DAC7;" d="M258.7,1120.3c45.8,9.6,91.5,20.5,137.5,28.9c20,29.8,37.1,61.5,50.7,94.7
		c-16.7-5-33.5-9.8-50.4-14.2c-15.3-4-31.7-7.1-46-13.9c-6.6-3.2-12.5-8-18.2-12.7c-5.6-6.4-12.3-15.2-19.5-19.7
		C293.6,1163.5,274.7,1142.8,258.7,1120.3z"/>
	<path style="fill:#86DAC7;" d="M409.6,987.4c6.7,7.6,14.1,19.9,21.2,26c5.7-2.3,17,2.2,22.9,3.8l-2.4,26.5l0.4,1.4
		c-0.8,31.8,0.2,51.2,22.5,75.8c3,11.2,4.9,23.9,9.1,34.6c0.9,4.6,1.7,8.9,1.5,13.6c-6,8.1-30.7,64.7-29.9,73.4
		c0.1,1.4,0.6,2.8,1.1,4.2l-0.7,0.6l0.2,0.2l-2.5-1.8c-0.6-4.5,0.8-9.6,1.6-14.1c-1.5,1.9-1.8,2.6-4.1,3.5c-1-0.5-1.3-0.6-2.1-1.5
		c-2.1-2.5-2.4-5-2-8c-8.3-23.1-27.8-47.2-33.8-66.2c-3.4-10.7-1.1-102-1.3-120.6C410.9,1021.7,409.4,1004.6,409.6,987.4z"/>
	<path style="fill:#056172;" d="M430.8,1013.4c5.7-2.3,17,2.2,22.9,3.8l-2.4,26.5L430.8,1013.4z"/>
	<path style="fill:#61C4A9;" d="M483.2,1155.5c0.9,4.6,1.7,8.9,1.5,13.6c-6,8.1-30.7,64.7-29.9,73.4c0.1,1.4,0.6,2.8,1.1,4.2
		l-0.7,0.6l0.2,0.2l-2.5-1.8c-0.6-4.5,0.8-9.6,1.6-14.1c-1.5,1.9-1.8,2.6-4.1,3.5c-1-0.5-1.3-0.6-2.1-1.5c-2.1-2.5-2.4-5-2-8
		c2,2.3,3.3,6.2,4.5,9C460,1208.5,470.3,1179.9,483.2,1155.5z"/>
	<path style="fill:#86DAC7;" d="M194.1,1018.4c44.2,8.9,88.7,19.7,132,32.2c22.7,29.9,46.7,59.7,66.5,91.8
		c-46.5-9.8-93.8-18.2-139.8-29.9C235.4,1095.4,205.2,1041.5,194.1,1018.4z"/>
	<path style="fill:#86DAC7;" d="M311.8,912.7c11.2,2,28.3,18.3,38.8,24.6c18.2,13.2,35.9,27.4,52,43.2c2.1,55.5,3.7,111.8,2.1,167.3
		c-21.6-34.3-46.2-68.1-72.1-99.3c-1.9-21-5.9-42.3-8.9-63.3C320.3,961.3,318,936.2,311.8,912.7z"/>
	<path style="fill:#056172;" d="M140.6,1190.9c29.6-9,61.7-11.1,92.5-12.9h6.2c14.3,14.7,25.3,32.6,39.8,46.9
		c6.3,6.2,57.8,31.8,68.6,36.1c-5.8-10.6-27.4-48.6-26.3-58.1c2.2,0.3,2.9,0.3,4.5,2.1c5.9,7.1,9.9,20.6,14.2,29.1
		c5.6,11,12.1,21.4,17.6,32.5c13.7,9.1,28.5,17.9,40.9,28.8c-2.3-11.5-9-34.3-7.5-45.2c2,2,5.1,4.4,6.1,7.1l2.6,1.8
		c1.4,0.1,2.3,0.1,3.6,0.7c4.7,2.2,57.9,40.3,60.9,43.7c0.3,0.3,0.5,0.6,0.7,0.9l0.6-1l2.8-5.2c1.5,3.3,2.9,6.5,3.8,10
		c2.3,11.2,4.7,22.5,5.5,34h-7.3c-4.9,0-9.9,0.3-14.6-1c-3.6,0.2-7.4,0.5-11,0.3c-24.4,0-49.3,0.8-73.6-1.4l-22.3-6.9l-8.3-2.3
		c-22-7.7-42.8-16.2-63.8-26.5l-7.2-3.5c-17.9-10.6-35.3-21.5-51.9-34l-5.1-4c-24.4-20.8-47-42.5-68.4-66.5
		C142.8,1194.5,141.7,1192.6,140.6,1190.9z"/>
	<path style="fill:#079A94;" d="M397,1257.3l2.6,1.8c18.7,23.4,30.5,49,46.6,73.8c-14.6-9.1-28.8-22.7-41.8-33.9
		C402.6,1285,399.7,1271.2,397,1257.3z"/>
	<path style="fill:#079A94;" d="M416.9,1317.7l27.6,23.6c-24.4,0-49.3,0.8-73.6-1.4l-22.3-6.9
		C371.3,1328.4,394.8,1324.5,416.9,1317.7z"/>
	<path style="fill:#FEFEFE;" d="M399.6,1259.1c1.4,0.1,2.3,0.1,3.6,0.7c4.7,2.2,57.9,40.3,60.9,43.7c0.3,0.3,0.5,0.6,0.7,0.9l0.6-1
		l2.8-5.2c1.5,3.3,2.9,6.5,3.8,10c2.3,11.2,4.7,22.5,5.5,34h-7.3c-4.9,0-9.9,0.3-14.6-1c-3.3-2.5-6.3-5.3-9.4-8.1
		C430.1,1308.1,418.3,1282.5,399.6,1259.1z"/>
	<path style="fill:#056172;" d="M468.3,1298.1c1.5,3.3,2.9,6.5,3.8,10c2.3,11.2,4.7,22.5,5.5,34h-7.3c-1.5-12.6-3.4-25.1-5.4-37.6
		l0.6-1L468.3,1298.1z"/>
	<path style="fill:#17ADA4;" d="M140.6,1190.9c29.6-9,61.7-11.1,92.5-12.9c0.7,7,31.3,38.1,37.2,46.6
		C239.9,1213.6,173.1,1193.2,140.6,1190.9z"/>
	<path style="fill:#17ADA4;" d="M144,1196.1c40.8,9.4,85,18.2,123.8,34.1c-13.4,7.7-45.9,22.6-55.4,32.3
		C188,1241.8,165.4,1220.1,144,1196.1z"/>
	<path style="fill:#17ADA4;" d="M276.6,1304.2c26-10.5,58.6-20,85.9-27.1c16.6,11.6,34.7,22.8,49.3,36.9
		c-22.3,4.1-51.1,6.4-71.4,16.8C318.3,1323,297.6,1314.5,276.6,1304.2z"/>
	<path style="fill:#17ADA4;" d="M276.3,1233.2c26.8,12.3,54.5,24.6,79.7,39.8c-19.6,5.2-71.7,18-86.7,27.7
		c-17.9-10.6-35.3-21.5-51.9-34C236.8,1255,256.6,1244,276.3,1233.2z"/>
	<path style="fill:#17ADA4;" d="M1430.6,235.9c0.3-25.4-5.8-58.4,13.2-78.5c11.8-12.5,25-14.5,41.4-14.8c89.9-1.9,180.2,0,270.2-0.3
		l104.2-0.3c18,0,36.9-1.3,54.7,0.4c9.3,0.9,20.4,3.4,27.3,10.3c2.7,2.7,5.5,5.9,5.5,9.8c5.2,4.6,6.1,10.7,6.5,17.2
		c0.8,11.3,2.6,59.2-1.2,66.6c3.2,7.3,3.7,41.3,0.8,49.2c3.9,8.7,1.4,23.3-2,32c-4.8,12.4-14.6,23.6-27,29c-5.2,2.3-11,2.9-16.6,3.3
		c-24.4,1.6-49.6,0.4-74.1,0.3l-156.5-0.2c-28.1,0-56.8-1.2-84.8,0.3c-8.8,11.6-27.3,26.3-33.3,36.4l-6.8-6.9
		c-9.8-9.7-19.3-19.6-28.7-29.6c-13.9,0.2-28,0.7-41.9,0.1c-12.9-0.6-21.7-3.7-30.5-13.2c-6.4-6.5-11.8-14.1-17.5-21.3
		C1427.2,306.9,1430.5,258,1430.6,235.9z"/>
	<path style="fill:#FEFEFE;" d="M1616.8,289.2c19.2-0.9,38.8-0.2,58.1-0.3c19.9,0,40.1-0.8,59.9,0.1c3.7,0.2,6.1,0.3,8.6,3.1
		c-1,3.3-1.6,3.5-4.1,5.6c-0.9,0.5-2,0.7-3,0.8c-13.9,2-30.4,0.2-44.5,0.2c-23,0-47,1.7-69.8,0c-1.9-0.1-2.7-0.7-4.2-1.7
		C1616,293.7,1616.4,292.9,1616.8,289.2z"/>
	<path style="fill:#FEFEFE;" d="M1616.9,249.1c34.8-1.7,70.3-0.5,105.1-0.5l157.5-0.1c6.5,0,15.5-0.7,20.2,4.1
		c-1,3.4-1.4,3.3-4.3,5.1c-0.5,0.2-1.5,0.5-2.1,0.7c-9.7,2-63.8,0.2-77.9,0.2l-154-0.1c-11.2-0.1-22.5,0.9-33.7,0.6
		c-4-0.1-7.3-0.5-10.6-2.8C1615.7,252.9,1616.1,252.5,1616.9,249.1z"/>
	<path style="fill:#FEFEFE;" d="M1619.1,206.6h195.6c18.7,0,62.6-2.6,79.2,1c3.3,0.7,4.5,1.3,6.3,4.1c-1.6,2.6-3.3,3.4-6,4.7
		c-1.5,0.3-3,0.4-4.5,0.5c-17,0.8-34.5,0.1-51.5,0.1h-101.4l-74.7-0.3c-12.5-0.1-25.7,0.7-38.1-0.4c-3-0.3-4.6-0.6-6.8-2.7
		C1616.8,210.1,1617.3,209.6,1619.1,206.6z"/>
	<path style="fill:#F8B33E;" d="M1519.2,252.4c9.7,6.5,15.4,1.6,20.7,4.9l1,5.7l1,0.9c12,4.3,23.9,8.7,35.8,13.4
		c-4.6,9.8-11.6,18.2-20.8,23.8c-11.4,7-24.9,9.1-37.8,5.8c-17.2-4.3-28.9-16-37.7-30.8c11.5-5.9,23.6-11.4,36.4-13.4
		C1519.3,259.7,1519,255.7,1519.2,252.4z"/>
	<path style="fill:#E38C9C;" d="M1519.2,252.4c9.7,6.5,15.4,1.6,20.7,4.9l1,5.7l1,0.9c-2.1,3.6-4.3,5.9-8.4,7.2
		c-3.5,1.1-7.6,1.3-10.9-0.8c-3.3-2.1-3.7-4.1-4.8-7.6C1519.3,259.7,1519,255.7,1519.2,252.4z"/>
	<path style="fill:#FEFEFE;" d="M1481.4,276.2c-7.2-16.2-9.6-33.7-3.3-50.7c5.3-14.3,16.4-25.8,30.4-31.8c13-5.7,28.2-6.1,41.3-0.7
		c12.6,5.2,22.3,15.6,27.4,28.2c7.3,17.6,5.4,38.2,0.5,56.2c-11.8-4.7-23.8-9.1-35.8-13.4l-1-0.9l-1-5.7c-5.3-3.3-11,1.5-20.7-4.9
		c-0.2,3.3,0.1,7.3-1.4,10.3C1505,264.8,1492.9,270.2,1481.4,276.2z"/>
	<path style="fill:#323570;" d="M1512.1,233.8c-0.9-7.5-1.1-12.4,3.8-18.8c3.6-4.7,8.9-7.5,14.8-8.1c4.8-0.4,9.7,0.9,13.4,4.1
		c3.5,3.1,4.7,7,4.8,11.5c0.1,3.6-0.4,7.4-2.4,10.5c-0.8-4.1-1.4-8.1-2-12.2c-4.2-3.1-13.5-2-18.5-1.2c-4.1,0.6-5.6,1.1-8,4.4
		c0.1,1.8,0.4,4.1-0.2,5.8C1517,232.3,1514.3,232.8,1512.1,233.8z"/>
	<path style="fill:#F5A183;" d="M1512.1,233.8c2.2-1,4.9-1.6,5.8-4c0.6-1.7,0.3-4,0.2-5.8c2.4-3.3,4-3.7,8-4.4
		c5-0.8,14.3-1.9,18.5,1.2c0.5,4.1,1.2,8.1,2,12.2c-3.4,8.8-6.1,20.6-5.5,30l-1-5.7c-5.3-3.3-11,1.5-20.7-4.9
		C1514.3,246.3,1512.7,241.6,1512.1,233.8z"/>
	<path style="fill:#079A94;" d="M1451.2,347.1c26.6,6,51.3,3.1,77.4-3.4c10.1-2.5,20.5-5.7,31-6.1c20.2-0.8,40.9,1.7,61.3,1.6
		c66-0.5,132.1-1.5,198.2-1.1c20.3,0.1,55.1,4.1,73-3.7c8.4-3.7,15.3-9.2,20.1-17c15.3-24.7,24.3-95.2,29.8-126.9
		c1.4-8.4,1.7-19.5,4.9-27.2c0.1-0.2,0.2-0.5,0.3-0.7c5.2,4.6,6.1,10.7,6.5,17.2c0.8,11.3,2.6,59.2-1.2,66.6
		c3.2,7.3,3.7,41.3,0.8,49.2c3.9,8.7,1.4,23.3-2,32c-4.8,12.4-14.6,23.6-27,29c-5.2,2.3-11,2.9-16.6,3.3
		c-24.4,1.6-49.6,0.4-74.1,0.3l-156.5-0.2c-28.1,0-56.8-1.2-84.8,0.3c-8.8,11.6-27.3,26.3-33.3,36.4l-6.8-6.9
		c-9.8-9.7-19.3-19.6-28.7-29.6c-13.9,0.2-28,0.7-41.9,0.1C1468.7,359.7,1460,356.6,1451.2,347.1z"/>
	<path style="fill:#056172;" d="M1523.6,360.1l68.7,0.2c-8.8,11.6-27.3,26.3-33.3,36.4l-6.8-6.9
		C1542.5,380.1,1533,370.2,1523.6,360.1z"/>
	<path style="fill:#65A3E2;" d="M370.9,1339.9c24.3,2.3,49.2,1.4,73.6,1.4c3.6,0.2,7.4-0.1,11-0.3c4.7,1.3,9.8,1,14.6,1h7.3
		c3.7-0.1,7.5-0.4,11.3-0.1l7.8-0.5l31.3-0.3c12.9,17.6,25.3,31.9,43,44.9c8.9,4.4,17.8,9.1,26.9,13.2c4.5,2,9.5,3.2,13.7,5.5
		c10.4,1.2,20.3,4.8,30.8,6c1.5,3.1,3.4,6.3,4.3,9.6c17.5,15.9,34.3,24.8,58.4,25.1l4.6,29.5c1.1,7.9,2.6,16,3.3,23.9l1.3,8.6
		c4.4-0.8,8.8-1.4,13.3-1.9c29.2-1.9,58.5-6.2,87.6-9.4c73-8,241.7-23.7,299.7-59.6c23.9-13.9,43.5-31.9,50.9-59.5
		c2.1-7.7,2.9-15.4,3.4-23.3c40.5,34.4,74.6,64.3,123.6,86.7c20-6.3,39.6-27.5,53.1-42.9l5.8,6c17.4,12.8,35,24.3,54.3,34.1
		c10.6,5.4,23.6,9.7,33.5,16.1c5.2,0.7,11,1,16,2.4c23.2,7.1,46.9,9,69,20.2l6.8,5.8c3.4,3.5,6.6,6.5,8.1,11.2
		c-0.3,3.3-0.3,4.8-3,7.1c-3.6,3-9.9,4.2-14.3,5.3c2.1,1.1,3.5,1.5,5.9,1.6c32.7,1.5,66,0.2,98.7,0.2l190.6,0.6l1.4-1.8
		c3.2,2,6.9,3.8,9,7c40.4,0.5,80.7,0,121.1,0.1c22.3,0,46.2,1.8,68.3-0.5c3.6-0.4,7.6-1.2,10.2-3.9c0.2-0.2,0.4-0.4,0.5-0.7
		c17.6,2.5,36.4,1.7,54.2,1.7l95.4-0.2c24.6-0.1,59,2.1,82.7-0.2c0.9,0.2,1.4,0.3,2.3,0.6c2.7,0.9,5,2.7,6.3,5.3
		c1.6,3.4,0.7,6.7-0.4,10c-2.3,2.8-4.4,4-7.9,4.8c-9.2,2.2-20.1,0.3-29.5,0.4l-78.6,0.1H1832l-1049.7,0.7l-340.4,0.1l-110.4-0.1
		c-24.3,0-48.8-0.7-73.1,0.7c-5.7,0.3-10.9-0.3-15.7-3.6c-4.1-2.9-6-6.3-6.8-11.1c0.6-2.1,0.7-3.7,2.2-5.4c2.7-2.9,6.4-4.2,10.3-4.7
		c11.8-1.7,25.4-0.1,37.3-0.1c32.3,0,64.9,0.9,97.2-0.6c-2.6-2.4-4.9-4.9-6.3-8.2c-7.4-18.3-11.8-70.7-16-93.6
		c-1-6.1-1.6-12.3-2.2-18.4c-4.5-2.1-11.5-1.1-16.4-0.9c0.1-9.7-3.6-32.6,3.4-39.6C352,1339.3,362.3,1340.3,370.9,1339.9z"/>
	<path style="fill:#FEFEFE;" d="M571,1491.2c28,0,55.1,1.1,82.8,5.4c11.1,1.7,22.4,6.8,33.6,7.1c8.2,0.2,17.6-3,25.5-4.9l1.3,8.6
		c-36.1-1.5-72.7-0.1-108.8,0c-11.9,0-29.5,2.2-40.8-0.9C567.1,1501.6,569,1496.4,571,1491.2z"/>
	<path style="fill:#F5A183;" d="M646.7,1420.3c17.5,15.9,34.3,24.8,58.4,25.1l4.6,29.5c1.1,7.9,2.6,16,3.3,23.9
		c-7.9,2-17.3,5.2-25.5,4.9c-11.2-0.3-22.4-5.4-33.6-7.1c-27.7-4.2-54.9-5.3-82.8-5.4c3.8-14,3.8-28,0.5-42.1l21.3-6.4
		C611.3,1436.3,629.5,1429.9,646.7,1420.3z"/>
	<path style="fill:#EE4C4E;" d="M646.7,1420.3c17.5,15.9,34.3,24.8,58.4,25.1l4.6,29.5c-38.7-11.5-78.1-20.6-116.9-32.1
		C611.3,1436.3,629.5,1429.9,646.7,1420.3z"/>
	<path style="fill:#1D1F55;" d="M571,1386.1c8.9,4.4,17.8,9.1,26.9,13.2c4.5,2,9.5,3.2,13.7,5.5c10.4,1.2,20.3,4.8,30.8,6
		c1.5,3.1,3.4,6.3,4.3,9.6c-17.2,9.6-35.4,16-53.9,22.5l-21.3,6.4c3.4,14.1,3.3,28.1-0.5,42.1c-2,5.2-3.8,10.4-6.4,15.3
		c-30.1-0.1-60.7,1.1-90.7-0.2l-1.4,0.2c-2.3-3.1-4.9-6.7-5.3-10.7c-1.2-11.8,6.2-23.3,13.3-32c18.8-23,45.1-35.6,74.4-38.5
		c0.7-6.4,1.3-12.8,1.7-19.2l0.1-1c1.4-5.6,1-12.2,1.1-17.9C562.4,1387.5,566.6,1387.8,571,1386.1z"/>
	<path style="fill:#FEFEFE;" d="M571,1386.1c8.9,4.4,17.8,9.1,26.9,13.2c4.5,2,9.5,3.2,13.7,5.5c-18.8,6.8-37.3,15.8-56.7,20.7
		c0.7-6.4,1.3-12.8,1.7-19.2l0.1-1c1.4-5.6,1-12.2,1.1-17.9C562.4,1387.5,566.6,1387.8,571,1386.1z"/>
	<path style="fill:#1D4B8B;" d="M566.2,1439.5c1.8,3.2,3.5,6.4,5.2,9.7c3.4,14.1,3.3,28.1-0.5,42.1c-2,5.2-3.8,10.4-6.4,15.3
		c-30.1-0.1-60.7,1.1-90.7-0.2c1.6-5.8,3.7-11.5,6.7-16.8C497.5,1460.4,535.5,1447.7,566.2,1439.5z"/>
	<path style="fill:#323570;" d="M1345.9,1397.5l5.8,6c17.4,12.8,35,24.3,54.3,34.1c10.6,5.4,23.6,9.7,33.5,16.1c5.2,0.7,11,1,16,2.4
		c23.2,7.1,46.9,9,69,20.2l6.8,5.8c3.4,3.5,6.6,6.5,8.1,11.2c-0.3,3.3-0.3,4.8-3,7.1c-3.6,3-9.9,4.2-14.3,5.3
		c-56.8,11.1-107.5,11.1-164.8,11.3c-16,0.1-33.7,1.8-49.4-0.4c-3.3-2.7-3.8-5.3-5.3-9.1c-4.8-16-1-35.6,5.4-50.6
		c-3.9-6.3-9.8-11.4-15.1-16.6C1312.8,1434,1332.4,1412.8,1345.9,1397.5z"/>
	<path style="fill:#2D6DAA;" d="M1455.4,1456.2c23.2,7.1,46.9,9,69,20.2l6.8,5.8c-32.2,3.8-63.8,5.4-96.3,4.8
		C1440.5,1475.8,1447.9,1466.1,1455.4,1456.2z"/>
	<path style="fill:#F5A183;" d="M1345.9,1397.5l5.8,6c17.4,12.8,35,24.3,54.3,34.1c10.6,5.4,23.6,9.7,33.5,16.1
		c-11.6,8.7-18.5,21.3-26.3,33.3c-20.9-2-80.3-6.7-96.4-18.6c-2.3-4-6-7.8-8.8-11.5c-3.9-6.3-9.8-11.4-15.1-16.6
		C1312.8,1434,1332.4,1412.8,1345.9,1397.5z"/>
	<path style="fill:#F7766E;" d="M1345.9,1397.5l5.8,6c-11.5,21.8-24.6,42.4-35,64.9c-2.3-4-6-7.8-8.8-11.5
		c-3.9-6.3-9.8-11.4-15.1-16.6C1312.8,1434,1332.4,1412.8,1345.9,1397.5z"/>
	<path style="fill:#F7766E;" d="M370.9,1339.9c24.3,2.3,49.2,1.4,73.6,1.4c3.6,0.2,7.4-0.1,11-0.3c4.7,1.3,9.8,1,14.6,1h7.3
		c3.7-0.1,7.5-0.4,11.3-0.1l7.8-0.5l31.3-0.3c12.9,17.6,25.3,31.9,43,44.9c-4.4,1.8-8.5,1.4-13.2,1.2c-0.1,5.8,0.3,12.3-1.1,17.9
		l-0.1,1c-0.4,6.4-1,12.8-1.7,19.2c-29.3,2.9-55.6,15.5-74.4,38.5c-7.1,8.7-14.5,20.1-13.3,32c0.4,3.9,3,7.6,5.3,10.7
		c-10.3,3-75.5,1.1-89.7,0.2c-2.6-2.4-4.9-4.9-6.3-8.2c-7.4-18.3-11.8-70.7-16-93.6c-1-6.1-1.6-12.3-2.2-18.4
		c-4.5-2.1-11.5-1.1-16.4-0.9c0.1-9.7-3.6-32.6,3.4-39.6C352,1339.3,362.3,1340.3,370.9,1339.9z"/>
	<path style="fill:#F7766E;" d="M370.9,1339.9c24.3,2.3,49.2,1.4,73.6,1.4c3.6,0.2,7.4-0.1,11-0.3c4.7,1.3,9.8,1,14.6,1h7.3
		c3.7-0.1,7.5-0.4,11.3-0.1l7.8-0.5l31.3-0.3c12.9,17.6,25.3,31.9,43,44.9c-4.4,1.8-8.5,1.4-13.2,1.2c-0.1,5.8,0.3,12.3-1.1,17.9
		l-0.1,1c-24.9-0.2-188.8,1.3-196.1-1.3c-1-6.1-1.6-12.3-2.2-18.4c-4.5-2.1-11.5-1.1-16.4-0.9c0.1-9.7-3.6-32.6,3.4-39.6
		C352,1339.3,362.3,1340.3,370.9,1339.9z"/>
	<path style="fill:#D12E36;" d="M358.4,1386.5c6.9-2.9,177.1-1.4,198.3-0.8c-0.1,6.4-0.6,13.2,0.1,19.6l-0.1,1
		c-24.9-0.2-188.8,1.3-196.1-1.3C359.6,1398.8,359,1392.6,358.4,1386.5z"/>
	<path style="fill:#E7F0F8;" d="M1169.2,1353.7c40.5,34.4,74.6,64.3,123.6,86.7c5.3,5.2,11.1,10.3,15.1,16.6
		c-6.4,15-10.2,34.6-5.4,50.6l-351.9-0.4c-72.8,0.1-145.9,1.6-218.7-0.3c-1.7,0-2.9-0.6-4.4-1.4c29.2-1.9,58.5-6.2,87.6-9.4
		c73-8,241.7-23.7,299.7-59.6c23.9-13.9,43.5-31.9,50.9-59.5C1167.8,1369.3,1168.7,1361.6,1169.2,1353.7z"/>
	<path style="fill:#E7F0F8;" d="M1009.5,136.9c18-2.3,37.8-0.3,55.9-0.2h115.8c12.8-0.3,31-3,41,6.9c5.7,5.6,6.8,12.6,7.4,20.2
		c1.5,4.2,1,8.9,0.9,13.3c53.9,10.8,107,25.3,159.1,42.9c13.3,4.5,28.8,8.7,40.9,15.8c-0.1,22.1-3.4,71.1,3.1,89.9
		c5.6,7.2,11.1,14.8,17.5,21.3c8.8,9.5,17.6,12.6,30.5,13.2c13.9,0.6,28,0,41.9-0.1c9.4,10.1,18.9,19.9,28.7,29.6l6.8,6.9
		c6-10.1,24.5-24.8,33.3-36.4c28-1.5,56.7-0.4,84.8-0.3l156.5,0.2c24.5,0,49.7,1.2,74.1-0.3c5.6-0.4,11.4-1,16.6-3.3
		c12.3-5.4,22.2-16.6,27-29c3.4-8.7,5.8-23.3,2-32c2.9-7.9,2.4-41.9-0.8-49.2c0.2,0.3,0.4,0.5,0.6,0.8c1.7,2.3,3.2,3.6,5.9,4.6
		c12.8,4.8,27.4,7.1,40.6,10.8c26.1,7.4,52.3,16.4,77.2,27.3c160,70.2,258.6,229.8,236.1,404.6c-11.5,89.5-58.9,176.8-121.4,241.1
		c-9.6,9.9-19.6,21-30.7,29.2c-1.3,1-2.9,1.6-4.4,2.1c1.4,4.2,2.1,7.8,0.1,11.9c-0.2,0.4-0.4,0.8-0.6,1.2c0.3,2.2,1.1,4.3-0.3,6.2
		c-4.3,6.3-30.7,20.9-38.5,25.5c-2.1,1.4-4.1,2.9-6.4,3.9c-6.2,6.6-15.2,12-22.5,17.6c-11.5,8.8-22.7,18-33.7,27.4
		c-8.9,7.6-24.9,25.5-34,30.5c-1.6,2.9-3.1,4.2-5.9,6c0.6,0.8,2,2.5,2.2,3.3c1.3,5,5.2,104.5,4.6,108.7c-0.1,0.9-0.2,1.1-0.5,1.8
		c-3,10.6-28.3,38.7-36.6,48.8c2.7,0,5.8,0.4,8.4-0.1c18.4,1.1,45.6,2.1,63.5-0.1l3.7,0.9c6.5-0.1,29-2.3,33.6,2
		c1.1,1,0.8,0.7,0.8,2.2c0,1.9-0.7,3.1-1.5,4.8c1.4,3.9,1.5,4.4,0.4,8.4c2.9,8.2,2.3,23.4,0.8,32c-3.3,2.5-9.1,2.2-13.2,2.5
		c-6.1-0.7-12.1-0.9-18.2-0.9l-1,3.4c1,4.2,1.2,10.2-1.4,13.9c-0.5,0.8-0.9,1.1-1.5,1.6c2.9,6.8-0.4,22.7-3.1,29.7
		c-0.1,0.4-0.3,0.8-0.5,1.2c1,12.8-15.7,120.1-19.4,136.9c-0.6,2.6-1.6,4.4-3.3,6.4c-1.4,1.6-2.7,2.8-4.5,3.9
		c-0.2,0.2-0.3,0.5-0.5,0.7c-2.6,2.7-6.6,3.5-10.2,3.9c-22.1,2.3-46,0.6-68.3,0.5c-40.4-0.1-80.7,0.4-121.1-0.1c-2.1-3.2-5.8-5-9-7
		l-1.4,1.8l-190.6-0.6c-32.7,0-66,1.3-98.7-0.2c-2.4-0.1-3.8-0.4-5.9-1.6c4.5-1.2,10.7-2.4,14.3-5.3c2.8-2.3,2.8-3.8,3-7.1
		c-1.6-4.7-4.8-7.7-8.1-11.2l-6.8-5.8c-22-11.2-45.8-13.1-69-20.2c-5-1.5-10.8-1.7-16-2.4c-9.9-6.4-22.8-10.8-33.5-16.1
		c-19.3-9.7-36.9-21.3-54.3-34.1l-5.8-6c-13.6,15.3-33.1,36.5-53.1,42.9c-49-22.4-83.1-52.3-123.6-86.7c-0.6,7.9-1.4,15.6-3.4,23.3
		c-7.4,27.6-27,45.6-50.9,59.5c-58,35.9-226.8,51.7-299.7,59.6c-29.1,3.2-58.5,7.4-87.6,9.4c-4.5,0.5-8.9,1.1-13.3,1.9l-1.3-8.6
		c-0.7-8-2.2-16-3.3-23.9l-4.6-29.5c-24.1-0.3-41-9.2-58.4-25.1c-0.9-3.3-2.8-6.5-4.3-9.6c-10.4-1.2-20.4-4.8-30.8-6
		c-4.3-2.3-9.3-3.5-13.7-5.5c-9.1-4.1-18-8.7-26.9-13.2c-17.7-13-30.1-27.3-43-44.9l-31.3,0.3l-7.8,0.5c-3.7-0.3-7.5,0-11.3,0.1
		c-0.8-11.4-3.2-22.8-5.5-34c-0.9-3.5-2.4-6.7-3.8-10c-1.1-3.4-0.1-7.6,0.3-11.2c-3.4-13.8-7.3-27.1-12.7-40.2
		c-0.5-1.4-1-2.8-1.1-4.2c-0.8-8.8,24-65.3,29.9-73.4c0.2-4.7-0.7-9-1.5-13.6c-4.2-10.7-6-23.4-9.1-34.6
		c-22.4-24.501-23.4-43.901-22.6-75.701l-0.4-1.4l2.4-26.5c-5.9-1.6-17.2-6.1-22.9-3.8c-7.1-6.2-14.6-18.4-21.2-26
		c-1.9-2.5-4.7-4.7-7-6.9c-16-15.8-33.8-30-52-43.2c-1.9-8.1-3.2-16-4.1-24.3l-3.9-40.1l-1-10.8c-12.5-3.9-25.2-10.1-36.7-16.4
		c-44.2-24.1-75.9-66.3-89.9-114.5c-17.9-61.7-12.6-128.9,18.8-185.3c57.5-103,190.3-152.3,293.6-196.6
		c25.5-10.9,51.2-21.3,76.9-31.8c11.9-4.8,23.9-10.9,36.3-14.4c25.9-26.2,49.4-41.6,85.4-50.6c70.2-37.6,144.3-92.2,224.3-103.3
		c15.6-2.2,30.9-1.8,46.5-1.5C1000.7,143.4,1004.6,140.1,1009.5,136.9z"/>
	<path style="fill:#2D6DAA;" d="M1054.9,687.1c6.3-12.6,12.2-28.4,21.8-38.8c4.3-4.6,7.7-5.3,13.7-5.6c-10.4,13.8-16.5,29.4-26,43.4
		c-2.6,1.7-5.3,3.4-7.8,5.3L1054.9,687.1z"/>
	<path style="fill:#079A94;" d="M1459.8,1133.5c1.3-3.4,2.2-5.5,5.3-7.6c11.1-1.2,98.3-1.9,102.4,1.2c1.6,1.2,3.1,4,3.4,6.1
		c0,0.2,0,0.4,0,0.6L1459.8,1133.5z"/>
	<path style="fill:#A0DCF2;" d="M2221.1,739.1c5.1-0.6,9.3-0.6,13.9,2.1c4.1,2.4,7.1,6.6,8.2,11.2c1.1,4.5,0.3,9.4-2.3,13.2
		c-3.1,4.5-7.2,6.1-12.3,7.1c-2,0.2-3.9,0.3-5.8-0.1c-4.4-1-8.5-3.4-10.9-7.3c-2.5-4-2.9-9.3-1.7-13.8
		C2211.8,745.2,2215.9,742.2,2221.1,739.1z"/>
	<path style="fill:#0C806B;" d="M1459.8,1133.5l111.1,0.3c-0.3,9.3-0.4,18.5-0.3,27.8l-18.1-0.5l-0.2-21.9l-74.4-0.2l0.1,22.3
		c-6,0.1-12-0.1-18-0.3L1459.8,1133.5z"/>
	<path style="fill:#A0DCF2;" d="M1320.6,328.6c4-0.5,8.1-0.9,12.1,0c5.6,1.3,11,5.2,14.1,10c3.4,5.3,4.4,11.7,2.9,17.8
		c-2,8.2-7.2,12.7-14,16.9c-3.5,0.5-7,1-10.6,0.4c-6.1-0.9-12-4.6-15.5-9.8c-3.6-5.5-4.5-12.2-2.9-18.5
		C1308.7,336.9,1313.6,332.8,1320.6,328.6z"/>
	<path style="fill:#E7F0F8;" d="M1477.8,1139l74.4,0.2l0.2,21.9c-24.8-0.8-49.8-0.1-74.6,0.2V1139z"/>
	<path style="fill:#EE4C4E;" d="M987.2,862c4.5-7.2,13.6-26.2,21.8-28.9c12.6,15.9,32.1,26.3,52.2,28.8c0.6,0.1,1.3,0.1,1.9,0.2
		c3.6,1.1,4.2,0.9,6.3,4.2c0.2,8.3-3.7,24.4-9.5,30.8c-1.3,1.4-3,2-4.7,2.5C1026.2,896.7,1005.8,884.4,987.2,862z"/>
	<path style="fill:#1D4B8B;" d="M1090.3,642.7c11.4,2.6,58.2,9.9,63,16.7c1.9,2.7,1.9,6.5,1.3,9.6c-2.6,13.2-13.8,27.4-19.6,39.8
		c-2-4-3.9-8.2-6.3-12c-3-4.7-7.3-9.5-12.9-10.7c-1.8,1.1-2.2,1-2.7,3c-3.1,13.2,11.6,33.8,18.4,44.5c-23-15.2-43.1-33.7-67.2-47.4
		C1073.8,672.1,1080,656.5,1090.3,642.7z"/>
	<path style="fill:#B9D6F4;" d="M1507.1,966.8l112.7,0.1l-0.2,47.3l-112.6,0.1L1507.1,966.8z"/>
	<path style="fill:#B9D6F4;" d="M1431.4,1045.3l113.4-0.3l0.1,47.7l-113.7-0.1L1431.4,1045.3z"/>
	<path style="fill:#B9D6F4;" d="M1592.4,889.8l120,0.3c0.3,0.6,0.9,1.5,1.1,2.2c2.1,6.1,1.8,37.5-1.2,43c-5.3,3.1-104.9,1.1-119.9,1
		V889.8z"/>
	<path style="fill:#A0DCF2;" d="M2153.8,614.6c13.4-2.1,26.7-1.3,38.2,6.6c9.9,6.8,16.5,17.2,18.7,29c2.2,12.4-0.3,26-7.6,36.3
		c-7,9.8-17.5,15.9-29.2,17.8c-6.6,2.7-17.8,1-24.3-1.5c-11.4-4.5-21.3-14.4-26.1-25.6c-4.8-11.1-4.9-24-0.3-35.2
		C2128.9,627.5,2139.8,620.5,2153.8,614.6z"/>
	<path style="fill:#F8B33E;" d="M1211.9,493.1c7.8-15.5,15.2-32.9,25.5-46.8c1,23.1,0.3,46.3,0.3,69.4c0,13.4,1.3,28.1-0.8,41.3
		c-0.8,5-2.3,9.2-5.7,13.1c-3.2,3.7-7.5,6.2-11.8,8.5l-66.8,0.1c4.1,14.4,8,28.9,12.7,43.1c-19.2-13.7-37-29-55.9-43.2
		c-20.4,0.1-60,5.2-74.9-9.3c-5.1-4.9-7.9-11.7-9.2-18.6c14.5,3,33,1,47.9,1.1l97.4,0.2c11.9,0,23.1,0,32-9.1
		c11.8-12.1,9.3-30.2,9.1-45.7L1211.9,493.1z"/>
	<path style="fill:#EE4C4E;" d="M1181.2,136.7c12.8-0.3,31-3,41,6.9c5.7,5.6,6.8,12.6,7.4,20.2c-1.4,26.4-0.6,53.6-0.3,80.1
		c0.1,13.2,1.9,28.9-1,41.7c-1.3,5.9-4.8,11.7-9.4,15.7c-4.3,3.7-9.1,5.7-14.6,6.6c-13.8,2.2-29.3,0.9-43.3,0.8l-82.6-0.1l0.3,52.2
		c-15.6-17.4-30.9-35.2-46.8-52.2c-10.9,0.3-21.3,0.5-29.9-7.5c-6.3-5.8-8.7-14.5-8.7-22.9c0-2.1,0.1-4.1,0.2-6.2
		c4.2,1.3,10.6,10.1,15.3,13.2c33.5,1,67.3,0.3,100.8,0.2c19.9-0.1,41.9,1.6,61.6-1.1c8.8-1.2,16.8-3.2,22.2-10.8
		c3.6-5,5.5-10.7,6.4-16.7c1.9-13.6,2-84.6-0.3-97.7C1197.4,146.7,1190.9,143.5,1181.2,136.7z"/>
	<path style="fill:#F5A183;" d="M1131.6,733.5c-6.7-10.7-21.5-31.3-18.4-44.5c0.5-2,0.9-1.9,2.7-3c5.5,1.2,9.9,6.1,12.9,10.7
		c2.4,3.8,4.4,8,6.3,12c6.6,12.8,13.8,25.6,18.1,39.4c-15.4,29.1-35.9,58.3-68.9,68.8c-4.7,1.5-9.6,2.3-14.5,3l-6.6,42.2
		c-0.6,0-1.3-0.1-1.9-0.2c-20.1-2.5-39.6-12.9-52.2-28.8c6-2.9,22.2-37.4,28.6-46.1c-6.9-1.2-18-0.1-23.9-3.7
		c-2.1-1.2-3-2.9-3.5-5.1c-2.5-10.8,18.6-43,24.6-53.8l8-15.5c3.6-7.5,7.9-14.6,12.1-21.8l1.7,4.3c2.5-1.9,5.2-3.5,7.8-5.3
		C1088.5,699.7,1108.6,718.3,1131.6,733.5z"/>
	<path style="fill:#1D4B8B;" d="M1054.9,687.1l1.7,4.3c-0.8,3-1.3,3.6,0.4,6.4c1.3,2.2,3.3,4.2,5,6.1c-1.5,0.7-1.1,0.8-3,0.4
		c-3.4-0.7-6-1.4-9.4-0.1l-4.8,4.4c0.1,0.3,0.1,0.5,0.2,0.8c0.8,3.6,2.3,6.3,4.1,9.5c-0.2,0-0.5,0.1-0.7,0.1
		c-4.5,0.8-6.3,3.3-8.9,6.7c6.2,10.9,53.3,40.7,65.6,49.6c-2.1,5.8-3.6,11.2-9.7,13.8c-12.7,5.6-43-0.9-57.6-2
		c-6.9-1.2-18-0.1-23.9-3.7c-2.1-1.2-3-2.9-3.5-5.1c-2.5-10.8,18.6-43,24.6-53.8l8-15.5C1046.4,701.4,1050.7,694.3,1054.9,687.1z"/>
	
		<linearGradient id="SVGID_00000155110176521820095880000004983902320719696281_" gradientUnits="userSpaceOnUse" x1="833.4639" y1="715.9946" x2="910.5218" y2="549.2849" gradientTransform="matrix(1 0 0 1 0 -54)">
		<stop  offset="0" style="stop-color:#181140"/>
		<stop  offset="1" style="stop-color:#34356F"/>
	</linearGradient>
	<path style="fill:url(#SVGID_00000155110176521820095880000004983902320719696281_);" d="M900.2,484.9c3.6,4.9,7.3,9.9,11.9,14
		c25.1,22.2,62,33.1,55.9,74.6c-3.1,21-16.8,39.7-33.7,51.9c-15,10.8-33,17.8-51.7,14.4c-5.8-1.1-11-3.4-16.3-5.9
		c-10.2,9-20,17.6-31.7,24.5c-4.9-1.8-10.7-2.5-15.8-3.6c-9.1-7.3-14.1-11.9-25.9-14.3c-5.2,0-10.5-0.5-15.7-0.8
		c-2.5-14.1-2.2-29.3-4-43.6c-0.5-3.5-1.9-8.6-0.4-11.8c11.2,5.3,23.9,9.6,36.3,11c18.6,2.1,36.2-4,50.7-15.7
		C888.5,556.2,896.1,519.7,900.2,484.9z"/>
	<path style="fill:#FEFEFE;" d="M922.5,523.1c6.6,3.6,12.8,8.7,18.1,13.9c8.9,8.8,15.2,20.6,15.1,33.3c0,14.3-7.4,24.4-17.1,34.1
		c-1.6,1.2-2.9,1.8-4.7,2.6c4.1-7.5,9.9-14.2,11.4-22.8C949.3,561.3,934.8,540.8,922.5,523.1z"/>
	<path style="fill:#FED48A;" d="M1025.3,550.7c0.3-24.5-3.2-86.8,1.3-106.3c1.1-4.8,3.5-8.8,7-12.2c3.8-3.8,8.6-6.7,14-7.6
		c17.6-3.2,38.7-1.1,56.7-1l108.6,0.4c8.9,2,16.5,5.9,21.3,14c1.4,2.4,2.7,5.5,3.1,8.3c-10.3,13.9-17.7,31.4-25.5,46.8l-0.3,4.1
		c0.2,15.5,2.7,33.6-9.1,45.7c-8.9,9.2-20.1,9.1-32,9.1l-97.4-0.2C1058.3,551.8,1039.8,553.7,1025.3,550.7z"/>
	<path style="fill:#FEFEFE;" d="M1062.6,460.6c9.9,2.6,55.2,46.9,65.7,57c9.6-10,51.4-49.8,62.1-53c2,1.5,2,1.7,2.8,4.2l-2,3.3
		c-19.2,18.8-41.9,40.9-63.8,56.4c-10.6-10.3-62.9-53.5-66.4-61.7C1060.3,465.2,1062,462.1,1062.6,460.6z"/>
	<path style="fill:#F7766E;" d="M1009.5,136.9c18-2.3,37.8-0.3,55.9-0.2h115.8c9.7,6.8,16.2,10,18.4,22.6
		c2.3,13.1,2.2,84.1,0.3,97.7c-0.9,6-2.8,11.8-6.4,16.7c-5.5,7.5-13.4,9.5-22.2,10.8c-19.7,2.8-41.7,1.1-61.6,1.1
		c-33.5,0.1-67.3,0.8-100.8-0.2c-4.7-3.1-11.1-11.9-15.3-13.2c-0.1-24.3-3.6-106,3.2-124.6C1000.7,143.4,1004.6,140.1,1009.5,136.9z
		"/>
	<path style="fill:#FEFEFE;" d="M1177.6,179l3,0.6c2.3,2,2.7,2.2,3.4,5.3c-1.8,7.4-64.1,56.3-75.5,65.7l-64-56.9
		c-1.4-1.1-3.1-2.3-4.3-3.7c-2.1-2.3-1.4-4.4-1.1-7.2l1.4-0.7c6.7,1.9,55.3,47.2,65.1,55.5C1129.1,217.4,1153.4,198.1,1177.6,179z"
		/>
	<path style="fill:#17ADA4;" d="M2010.9,916.7c8.2-6.1,21.9-26.8,29.2-35.4c21-24.9,45-45,69.9-65.7c5.6-4.6,12-11.5,18.6-14.4
		l0.4,2c7,6.6,17.1,47.9,17.4,58c0,1.2-0.2,2.1-0.7,3.2l0.4,4.3c7.4,7.1,10.6,54.2,10.7,65.6c0,2.5-0.4,4.6-1.3,7l0.1,4.6
		c2.6,5.6,3.1,14.3,0.8,20.1c-0.1,0.3-0.3,0.6-0.4,0.9c1.4,4.2,2.1,7.8,0.1,11.9c-0.2,0.4-0.4,0.8-0.6,1.2c0.3,2.2,1.1,4.3-0.3,6.2
		c-4.3,6.3-30.7,20.9-38.5,25.5c-2.1,1.4-4.1,2.9-6.4,3.9c-6.2,6.6-15.2,12-22.5,17.6c-11.5,8.8-22.7,18-33.7,27.4
		c-8.9,7.6-24.9,25.5-34,30.5c-1.6,2.9-3.1,4.2-5.9,6c-1.1,2-1.6,2.8-3.6,3.8l-0.8,1.2c-2.3-5.2-4-10.7-6.3-15.9
		c0.5-5.9-1.9-13.1-4.9-18.1c0.5-3.7,0-3.6-2.2-6.4c3.7-12.6-25.1-59.8-29.7-74.3c0.2-0.2,39.6-61.6,41.5-66.1
		C2009.7,919.8,2010.3,918.9,2010.9,916.7z"/>
	<path style="fill:#0C806B;" d="M2041.9,997.3l2.4,1.4c1.8-1.5,2.6-2.8,3.5-4.9c7.9-17.8,14.5-36.5,21.9-54.6
		c14.3-35.1,29.1-69.7,44.5-104.3c4.3-9.7,8.5-23.2,14.7-31.7c7,6.6,17.1,47.9,17.4,58c0,1.2-0.2,2.1-0.7,3.2l0.4,4.3
		c-7.9,7.3-48.4,38.3-56.5,41.8c-1,23.6-33.7,74.5-41.1,100.3c-4.1,3.9-8.3,7.5-8.8,13.6c-0.1,0.8,0,1.1,0.1,1.9
		c2.4,11.4-24.5,59.7-29.3,74.6l-0.8,1.2c-2.3-5.2-4-10.7-6.3-15.9c8.7-6.2,31.9-61.2,36-73.9c1-3.1,1.4-3.5-0.1-6.5
		c2.4-1.2,2.7-1.4,4-3.7L2041.9,997.3z"/>
	<path style="fill:#056172;" d="M2089.7,910.6c0-1.1,0.2-2.1,0.7-3.2c5.2-10.5,44-39.6,55.3-43l0.4,4.3
		C2138.3,876.1,2097.7,907.1,2089.7,910.6z"/>
	<path style="fill:#079A94;" d="M2146.2,868.8c7.4,7.1,10.6,54.2,10.7,65.6c0,2.5-0.4,4.6-1.3,7l-1.3-1.5
		c-26.5,11.7-83.7,64.9-105.8,71.1c7.4-25.9,40-76.7,41.1-100.3C2097.7,907.1,2138.3,876.1,2146.2,868.8z"/>
	<path style="fill:#079A94;" d="M2048.6,1010.9c22-6.2,79.2-59.4,105.8-71.1l1.3,1.5l0.1,4.6c2.6,5.6,3.1,14.3,0.8,20.1
		c-0.1,0.3-0.3,0.6-0.4,0.9c1.4,4.2,2.1,7.8,0.1,11.9c-0.2,0.4-0.4,0.8-0.6,1.2c0.3,2.2,1.1,4.3-0.3,6.2
		c-4.3,6.3-30.7,20.9-38.5,25.5c-2.1,1.4-4.1,2.9-6.4,3.9c-6.2,6.6-15.2,12-22.5,17.6c-11.5,8.8-22.7,18-33.7,27.4
		c-8.9,7.6-24.9,25.5-34,30.5c-1.6,2.9-3.1,4.2-5.9,6c-1.1,2-1.6,2.8-3.6,3.8c4.8-15,31.7-63.2,29.3-74.6c-0.1-0.8-0.1-1.1-0.1-1.9
		C2040.3,1018.4,2044.5,1014.8,2048.6,1010.9z"/>
	<path style="fill:#056172;" d="M2048.6,1010.9c22-6.2,79.2-59.4,105.8-71.1l1.3,1.5l0.1,4.6c-12.1,9.5-25.4,18-38.1,26.8
		l-77.7,53.7c-0.1-0.8-0.1-1.1-0.1-1.9C2040.3,1018.4,2044.5,1014.8,2048.6,1010.9z"/>
	<path style="fill:#079A94;" d="M2010.9,916.7c3.7,1.4,3.7,1.2,5.4,4.9c4.4,9.5,27,68,25.6,75.7l1.4,5c-1.3,2.3-1.6,2.4-4,3.7
		c1.6,3,1.1,3.4,0.1,6.5c-4.1,12.7-27.3,67.8-36,73.9c0.5-5.9-1.9-13.1-4.9-18.1c0.5-3.7,0-3.6-2.2-6.4
		c3.7-12.6-25.1-59.8-29.7-74.3c0.2-0.2,39.6-61.6,41.5-66.1C2009.7,919.8,2010.3,918.9,2010.9,916.7z"/>
	<path style="fill:#056172;" d="M2010.9,916.7c3.7,1.4,3.7,1.2,5.4,4.9c4.4,9.5,27,68,25.6,75.7l1.4,5c-1.3,2.3-1.6,2.4-4,3.7
		c0.1-10.1-24.6-77.4-31.1-84.5C2009.7,919.8,2010.3,918.9,2010.9,916.7z"/>
	<path style="fill:#056172;" d="M1655.6,1013.3c13.7,2.6,43.1,8.4,54.1,15.5c2.9,0.5,4.8,0.5,7,2.5c12.2,1.5,47.5,14.8,55.9,23.1
		c1.9,0.8,3.5,1.3,5,2.8c5.4,1.5,12,4.6,16.1,8.6c1.9,0.7,3.6,1.3,5.5,1.8c9.3,2.3,43.9,31.3,52.3,39.8l0.6,2.2
		c3,1.7,3.8,1.5,4.9,4.9c6.8,2.9,27.2,27.6,30.1,34.6c0.4,0.9,0.3,1,0.4,1.9c15.2,13.4,39.2,84.6,40.5,104.1c0.1,1.7-0.2,3.4-0.7,5
		h-14.1v0.4h-7.7c-18.7,0.9-69.2,2.5-84.9-0.9c-1.3-3.2-2.8-3.8-5.6-5.7c-7.3-9.9-19.6-19-28.4-27.9c-10.2-10.4-19.2-21.9-29.6-32
		c-0.7-2.2-2.2-3.4-3.7-5c-1.5-3.8-41.1-61.5-44.1-64.7c-0.2-2.2-1.3-3.3-2.6-5C1706.1,1112.5,1662.4,1027.3,1655.6,1013.3z"/>
	<path style="fill:#17ADA4;" d="M1716.8,1031.3c12.2,1.5,47.5,14.8,55.9,23.1c1.9,0.8,3.5,1.3,5,2.8c3.4,4.6,17.2,32.9,16.3,37.5
		c-0.1,0.5-0.2,0.9-0.3,1.4l-0.6,2.6l-2.8,0.9c0.4,0.5,1.1,1.1,1.5,1.7c5.8,8.1,14.5,27.7,12.7,37.3c0-0.3-0.1-0.5-0.1-0.8
		c-2-8.5-39.2-41.5-48.3-47.2c-0.1-0.4-0.1-0.8-0.3-1.1c-2.3-5-24.2-36.3-27.9-38.4c0-0.2,0.1-0.5,0.1-0.7
		C1728,1045.3,1720.2,1035.2,1716.8,1031.3z"/>
	<path style="fill:#07556D;" d="M1790.2,1099.6c1.2-10.5-19.3-34.2-17.5-45.2c1.9,0.8,3.5,1.3,5,2.8c3.4,4.6,17.2,32.9,16.3,37.5
		c-0.1,0.5-0.2,0.9-0.3,1.4l-0.6,2.6L1790.2,1099.6z"/>
	<path style="fill:#079A94;" d="M1857.2,1114.5c6.8,2.9,27.2,27.6,30.1,34.6c0.4,0.9,0.3,1,0.4,1.9c15.2,13.4,39.2,84.6,40.5,104.1
		c0.1,1.7-0.2,3.4-0.7,5h-14.1c-9.9-15.5-22.2-31.6-35.7-44.2C1879.6,1208.3,1861.7,1124.3,1857.2,1114.5z"/>
	<path style="fill:#079A94;" d="M1777.7,1057.2c5.4,1.5,12,4.6,16.1,8.6c1.9,0.7,3.6,1.3,5.5,1.8c9.3,2.3,43.9,31.3,52.3,39.8
		l0.6,2.2c2.5,17.1,20.4,85.7,16.4,96.7c0-0.2-0.1-0.4-0.1-0.7c-0.2-1.1,0-0.4-0.2-1.7c-0.6-2.6-2.6-4.6-4.3-6.6
		c-13.4-15.8-35-33.4-45.3-50.2c-6.9-11.2-15.9-45.3-25.1-51.1c0.1-0.5,0.2-0.9,0.3-1.4C1794.8,1090.1,1781,1061.8,1777.7,1057.2z"
		/>
	<path style="fill:#079A94;" d="M1709.4,1124.2c19.7,3.7,79.9,13.1,96.4,20.1c8.4,4.8,43.9,42,46.8,51c0.1,0.3,0.2,0.7,0.3,1
		c-13.8-2.6-90.1-10.7-99.4-7.4C1752,1185.1,1712.3,1127.4,1709.4,1124.2z"/>
	<path style="fill:#079A94;" d="M1757.2,1193.9c33.7,1.8,67.6,4.7,101.1,8.9c6,3.9,10.8,9.6,14.7,15.5c7,6.6,26.1,26.4,28.3,35.3
		l-0.3,1.1c-8.5,3.7-68.1-5.8-85.7-0.9c-7.3-9.9-19.6-19-28.4-27.9C1776.6,1215.5,1767.6,1204,1757.2,1193.9z"/>
	<path style="fill:#17ADA4;" d="M1655.6,1013.3c13.7,2.6,43.1,8.4,54.1,15.5c2.9,0.5,4.8,0.5,7,2.5c3.4,3.9,11.2,14,11.1,19.1
		c0,0.2-0.1,0.5-0.1,0.7l1.9,4.3l-5.4-0.9c4.8,4.3,10.9,12.9,11.4,19.5c-0.2-0.5-0.4-0.9-0.7-1.4c-2.5-4.7-43.2-37.4-48.5-39.2
		c-0.3-0.1-0.6-0.1-0.9-0.2c4,14.7,63.2,48.2,70.3,63c7.4,5,40.2,33.4,42.4,40.6c-12.8-4.5-83.1-20.2-91.4-17.5
		C1706.1,1112.5,1662.4,1027.3,1655.6,1013.3z"/>
	<path style="fill:#07556D;" d="M1709.8,1028.8c2.9,0.5,4.8,0.5,7,2.5c3.4,3.9,11.2,14,11.1,19.1c0,0.2-0.1,0.5-0.1,0.7l1.9,4.3
		l-5.4-0.9C1724.1,1048.7,1713.2,1034.4,1709.8,1028.8z"/>
	<path style="fill:#65A3E2;" d="M1194.6,854.5l7,0.1c27.2-0.3,193.3-2.7,205.4,1.5c4.1,2.2,6.7,5,7.9,9.7c1.2,4.4,0.8,8.7-0.7,13
		c-4.9,14.1-12.6,27.8-19.2,41.2l-33.2,66.4c-9.7,19-18.7,40.4-30.1,58.4c-2.9,4.6-6.7,7.8-12.2,8.9c-2.8,0.6-5.8,0.9-8.6,1.1
		c3.4,3.6,7,7,9.6,11.2c-70.5-0.7-141.3-1.1-211.7,1.8c-36.1,1.5-72.1,5.3-108.1,7.1c-34,1.7-69.1-1.6-102.6,6.2
		c-6.9,0.3-15.5,1.5-22.2-0.3c-6.5-1.8-8.9-5.9-11.9-11.4c25.3-0.8,41.7-3.1,65.4-13c10.1,1.9,24.2,8.6,34.1,8.1
		c3.7-0.2,5.2-3.4,7.2-6c5.6,4.5,11,9.2,18.5,9.6c3.7-1.7,4.7-3.6,7-6.8c3.6-1.3,7.6-0.5,11.3-0.2c3-2,2.8-3.6,3.9-6.9
		c21.8,0.2,43.6,0,65.4-0.5c10.1-17.2,17.7-36.6,26.1-54.8l43.8-92.7c6.1-12.8,14.1-35.8,23.8-45.3
		C1177.3,854.4,1185.6,854.3,1194.6,854.5z"/>
	<path style="fill:#2D6DAA;" d="M1194.6,854.5l7,0.1c27.2-0.3,193.3-2.7,205.4,1.5c-1.6,0.9-2.8,1.5-4.7,1.6
		c-30.7,2.4-64.8,0.4-95.7,0.5c-31.9,0-65.3,2.1-97-0.2c-5.3,0.2-10.6,0-15.9-0.1L1194.6,854.5z"/>
	<path style="fill:#FEFEFE;" d="M1252.3,942.4c3.4,0,6.8,0.2,10,1.5c4.5,1.8,8.2,5.2,9.9,9.8c2.7,7.2,0.7,15.8-2.5,22.5
		c-4.8,10.1-12.2,17.3-22.7,21.1c-2.9-0.1-6.2,0-9-0.9c-4.4-1.5-8.3-4.9-10.1-9.3c-2.8-6.8-1.1-15.4,1.6-22
		C1234,954,1241.4,947,1252.3,942.4z"/>
	
		<linearGradient id="SVGID_00000070800473488308532310000013246158635128028066_" gradientUnits="userSpaceOnUse" x1="897.0746" y1="991.4318" x2="1322.6797" y2="1084.6007" gradientTransform="matrix(1 0 0 1 0 -54)">
		<stop  offset="0" style="stop-color:#0A3D80"/>
		<stop  offset="1" style="stop-color:#2361B6"/>
	</linearGradient>
	<path style="fill:url(#SVGID_00000070800473488308532310000013246158635128028066_);" d="M1076.7,1054
		c10.1-17.2,17.7-36.6,26.1-54.8l43.8-92.7c6.1-12.8,14.1-35.8,23.8-45.3c6.9-6.8,15.2-6.8,24.3-6.7l-1,3.4
		c-6.2,2.5-11.6,5.8-15.4,11.5c-10.8,15.9-17.4,37.6-25.7,55c-19.1,40.6-40.3,80.7-57.7,122l-3.2,7.8h154.9
		c13.4,0,53.5-2.4,64.5,0.7c3.4,3.6,7,7,9.6,11.2c-70.5-0.7-141.3-1.1-211.7,1.8c-36.1,1.5-72.1,5.3-108.1,7.1
		c-34,1.7-69.1-1.6-102.6,6.2c-6.9,0.3-15.5,1.5-22.2-0.3c-6.5-1.8-8.9-5.9-11.9-11.4c25.3-0.8,41.7-3.1,65.4-13
		c10.1,1.9,24.2,8.6,34.1,8.1c3.7-0.2,5.2-3.4,7.2-6c5.6,4.5,11,9.2,18.5,9.6c3.7-1.7,4.7-3.6,7-6.8c3.6-1.3,7.6-0.5,11.3-0.2
		c3-2,2.8-3.6,3.9-6.9C1033.1,1054.6,1054.9,1054.4,1076.7,1054z"/>
	<path style="fill:#17ADA4;" d="M1788.9,965.5c3-9.2,1.4-23.1,1.6-32.9c0.5-25.3-0.6-94.4,17.3-111.6c2.7-0.3,4.5,0.3,6.9,1.5
		c5.1,2.5,48.7,41.2,50.1,45.4c5.9,2.8,33.8,29.2,35.8,35.2c0.2,0.5,0.3,1,0.4,1.5c1.2,1.2,2.1,2,2.9,3.4c9,4.5,47.8,51.5,50.6,60.9
		c0.2,0.8,0.3,1.7,0.3,2.5c1.2,1.3,2.1,2.2,2.6,3.9c4.4,2.8,6.7,7.8,9.3,12.1c4.6,14.5,33.4,61.6,29.7,74.3c2.2,2.8,2.6,2.7,2.2,6.4
		c3.1,5,5.4,12.2,4.9,18.1c2.4,5.2,4,10.7,6.3,15.9l0.8-1.2c2-1,2.6-1.9,3.6-3.8c0.6,0.8,2,2.5,2.2,3.3c1.3,5,5.2,104.5,4.6,108.7
		c-0.1,0.9-0.2,1.1-0.5,1.8c-3,10.6-28.3,38.7-36.6,48.8c-3.1,1.1-6.4,0.4-9.6,0c-7.6,2.5-22.7,0.8-30.7,0c-9,2.1-20.9,0.7-30.2,0.6
		v-0.4h14.1c0.6-1.6,0.8-3.3,0.7-5c-1.3-19.5-25.3-90.7-40.5-104.1c-0.1-0.8,0-1-0.4-1.9c-2.9-7-23.2-31.7-30.1-34.6
		c-1.1-3.3-2-3.2-4.9-4.9l-0.6-2.2c-8.5-8.5-43-37.5-52.3-39.8c-1.9-0.5-3.7-1.1-5.5-1.8l1.5-2.6c-2.4-11.9-4.4-23.1-4.8-35.3
		c-0.5-15.5,2.3-42.2-1.6-56.2C1789.3,969.5,1789.2,967.7,1788.9,965.5z"/>
	<path style="fill:#61C4A9;" d="M1888.3,1066.8l2.1,1.1c0.8,0.6,2.4,1.5,2.9,2.2c2.4,3.2,3.1,10.2,4.1,14.1
		c13.1,46.5,22.3,93.7,28.9,141.5c1.4,10.2,0.5,25,5.4,33.9l4.3-0.1c2.3-3,1.9-6.7,1.5-10.3c-1.2-9.8-2.2-23-6.4-31.9
		c13-13,56.2-123.9,67.4-149.3c3.1,5,5.4,12.2,4.9,18.1c2.4,5.2,4,10.7,6.3,15.9c-5.2,8.7-53.2,77.6-57.6,80.7
		c2,3.6,14,50.5,13.5,52.5c-0.1,0.4-0.2,0.8-0.3,1.1c4.1,4.1,8.9,14.5,9.4,20.3c0.1,1.2-0.2,2-0.6,3.1c-7.6,2.5-22.7,0.8-30.7,0
		c-9,2.1-20.9,0.7-30.2,0.6v-0.4h14.1c0.6-1.6,0.8-3.3,0.7-5c-1.3-19.5-25.3-90.7-40.5-104.1l2.2-3
		C1891,1133,1892.5,1078.3,1888.3,1066.8z"/>
	<path style="fill:#056172;" d="M1943.6,1259.9c7.7-4.9,16.6-15.8,21.8-23.4c4.1,4.1,8.9,14.5,9.4,20.3c0.1,1.2-0.2,2-0.6,3.1
		C1966.7,1262.4,1951.6,1260.7,1943.6,1259.9z"/>
	<path style="fill:#86DAC7;" d="M2014.3,1097.1c0.6,0.8,2,2.5,2.2,3.3c1.3,5,5.2,104.5,4.6,108.7c-0.1,0.9-0.2,1.1-0.5,1.8
		c-3,10.6-28.3,38.7-36.6,48.8c-3.1,1.1-6.4,0.4-9.6,0c0.4-1.1,0.7-1.9,0.6-3.1c-0.6-5.8-5.3-16.2-9.4-20.3c0.1-0.4,0.2-0.8,0.3-1.1
		c0.5-1.9-11.5-48.9-13.5-52.5c4.4-3.1,52.4-72,57.6-80.7l0.8-1.2C2012.7,1099.9,2013.2,1099.1,2014.3,1097.1z"/>
	<path style="fill:#61C4A9;" d="M1903.8,908c9,4.5,47.8,51.5,50.6,60.9c0.2,0.8,0.3,1.7,0.3,2.5c-4,8.8-6.1,20.3-8.9,29.7
		c-5.9,19.6-27.5,92.9-38.7,104.1c6-15.6-20.4-76-22.1-97.1c-1.6-18.8,14.3-65.3,18.2-87C1904,916.9,1905.1,912.4,1903.8,908z"/>
	<path style="fill:#86DAC7;" d="M1788.9,971.7c7.3,3.1,95.4,87.3,99.4,95.1c4.2,11.5,2.7,66.2,1.6,81.1l-2.2,3c-0.1-0.8,0-1-0.4-1.9
		c-2.9-7-23.2-31.7-30.1-34.6c-1.1-3.3-2-3.2-4.9-4.9l-0.6-2.2c-8.5-8.5-43-37.5-52.3-39.8c-1.9-0.5-3.7-1.1-5.5-1.8l1.5-2.6
		c-2.4-11.9-4.4-23.1-4.8-35.3C1790,1012.4,1792.8,985.7,1788.9,971.7z"/>
	<path style="fill:#61C4A9;" d="M1957.4,975.3c4.4,2.8,6.7,7.8,9.3,12.1c4.6,14.5,33.4,61.6,29.7,74.3l0.1,2.3
		c-13.7,24-54.7,129.2-67.8,139.5c0.4-0.9,0.4-0.9,0.6-2.1c1.4-8.5-14.2-82.7-18.4-88.3c1.8-1.7,3.3-3.7,4.5-5.9
		C1924,1091.4,1961.4,989.1,1957.4,975.3z"/>
	<path style="fill:#86DAC7;" d="M1788.9,965.5c3-9.2,1.4-23.1,1.6-32.9c0.5-25.3-0.6-94.4,17.3-111.6c2.7-0.3,4.5,0.3,6.9,1.5
		c5.1,2.5,48.7,41.2,50.1,45.4c5.9,2.8,33.8,29.2,35.8,35.2c0.2,0.5,0.3,1,0.4,1.5c-9.5,23.2-10.5,67.4-22,88l-0.5,0.8
		c-0.3,0.5-0.6,1.1-1,1.6c0.8-4.9-1.3-11.7-3.8-15.9c-0.6-16.1-45.2-130.2-55.8-143.4c-0.3-0.4-0.8-0.7-1.2-1l-1.9,1l1-1.5l-1.9,0.4
		c-2.9,14.3,39.4,81.7,37.8,103.4c0,0.3,0,0.7,0,1c0-0.2-0.1-0.5-0.2-0.7c-2.3-8.9-47.6-42.2-57.3-50.5l-1.3-0.3
		c-0.5,3.3-0.1,4.3,2,7c9.7,12.7,55.8,40,59,47.3c7,8.9,36.3,103.3,34.5,114c-0.1,0.7-0.5,1.5-0.7,2.1c-1.6-1.8-3.1-3.6-4.8-5.3
		C1870.4,1039.2,1799.8,965.9,1788.9,965.5z"/>
	<path style="fill:#61C4A9;" d="M1864.8,867.9c5.9,2.8,33.8,29.2,35.8,35.2c0.2,0.5,0.3,1,0.4,1.5c-9.5,23.2-10.5,67.4-22,88
		l-0.5,0.8c-0.3,0.5-0.6,1.1-1,1.6c0.8-4.9-1.3-11.7-3.8-15.9l2.2,0.2C1880.8,970,1868.4,879.9,1864.8,867.9z"/>
	<path style="fill:#EE4C4E;" d="M1820.8,1259.5c15.7,3.4,66.3,1.8,84.9,0.9h7.7c9.3,0.2,21.2,1.5,30.2-0.6c8,0.8,23.1,2.5,30.7,0
		c3.2,0.4,6.5,1.1,9.6,0c2.7,0,5.8,0.4,8.4-0.1c18.4,1.1,45.6,2.1,63.5-0.1l3.7,0.9c6.5-0.1,29-2.3,33.6,2c1.1,1,0.8,0.7,0.8,2.2
		c0,1.9-0.7,3.1-1.5,4.8c1.4,3.9,1.5,4.4,0.4,8.4c2.9,8.2,2.3,23.4,0.8,32c-3.3,2.5-9.1,2.2-13.2,2.5c-6.1-0.7-12.1-0.9-18.2-0.9
		l-1,3.4c1,4.2,1.2,10.2-1.4,13.9c-0.5,0.8-0.9,1.1-1.5,1.6c2.9,6.8-0.4,22.7-3.1,29.7c-0.1,0.4-0.3,0.8-0.5,1.2
		c1,12.8-15.7,120.1-19.4,136.9c-0.6,2.6-1.6,4.4-3.3,6.4c-1.4,1.6-2.7,2.8-4.5,3.9c-0.2,0.2-0.3,0.5-0.5,0.7
		c-2.6,2.7-6.6,3.5-10.2,3.9c-22.1,2.3-46,0.6-68.3,0.5c-40.4-0.1-80.7,0.4-121.1-0.1c-2.1-3.2-5.8-5-9-7c-0.9-4.7-2.8-9.1-4.5-13.5
		c2.4-9.9-18.8-144.2-21.3-161.3c-0.9-6.4-1.3-13.4-4.1-19.3c-8.6-2-21.2-0.4-30.2-0.3c3.5-7.5,3.1-43.7,0.8-51.5
		C1770.9,1259.6,1812.9,1262.6,1820.8,1259.5z"/>
	<path style="fill:#D12E36;" d="M1919.1,1310.9c12.8,1.4,26.2,0.7,39,0.6c34.2-0.3,70-2.7,104.1-0.2l-1,3.4c1,4.2,1.2,10.2-1.4,13.9
		c-0.5,0.8-0.9,1.1-1.5,1.6c-37.4-3.1-76.6-0.2-114.1-0.1c-49.8,0.1-101-2.2-150.6,1.5l-0.9-0.1c-0.9-6.4-1.3-13.4-4.1-19.3
		c10.5-2.8,24.3-1.4,35.2-1.3C1854.9,1311.2,1888.2,1314,1919.1,1310.9z"/>
	<path style="fill:#F7766E;" d="M1820.8,1259.5c15.7,3.4,66.3,1.8,84.9,0.9h7.7c9.3,0.2,21.2,1.5,30.2-0.6c8,0.8,23.1,2.5,30.7,0
		c3.2,0.4,6.5,1.1,9.6,0c2.7,0,5.8,0.4,8.4-0.1c18.4,1.1,45.6,2.1,63.5-0.1l3.7,0.9c6.5-0.1,29-2.3,33.6,2c1.1,1,0.8,0.7,0.8,2.2
		c0,1.9-0.7,3.1-1.5,4.8c1.4,3.9,1.5,4.4,0.4,8.4c2.9,8.2,2.3,23.4,0.8,32c-3.3,2.5-9.1,2.2-13.2,2.5c-6.1-0.7-12.1-0.9-18.2-0.9
		c-34.1-2.5-69.9,0-104.1,0.2c-12.9,0.1-26.3,0.8-39-0.6c-30.9,3-64.2,0.3-95.4,0.1c-10.9-0.1-24.7-1.5-35.2,1.3
		c-8.6-2-21.2-0.4-30.2-0.3c3.5-7.5,3.1-43.7,0.8-51.5C1770.9,1259.6,1812.9,1262.6,1820.8,1259.5z"/>
	<path style="fill:#EE4C4E;" d="M2059.6,1260.5c6.5-0.1,29-2.3,33.6,2c1.1,1,0.8,0.7,0.8,2.2c0,1.9-0.7,3.1-1.5,4.8
		c1.4,3.9,1.5,4.4,0.4,8.4c2.9,8.2,2.3,23.4,0.8,32c-3.3,2.5-9.1,2.2-13.2,2.5c-6.1-0.7-12.1-0.9-18.2-0.9
		c-34.1-2.5-69.9,0-104.1,0.2c-12.9,0.1-26.3,0.8-39-0.6c31.5-13.1,65.7-22.6,98.1-33.7C2030.3,1272.7,2048.2,1268,2059.6,1260.5z"
		/>
	<path style="fill:#F7766E;" d="M1792.7,1331.6l0.9,0.1c0.3,0.1,0.6,0.2,0.8,0.3c12.9,5.1,28.8,6.7,42.4,9.9
		c32.4,7.6,176.4,38.5,192,55.4c1.1,3.9,1.4,5.8-0.8,9.6c-3.9,6.7-10.8,11.9-16.7,16.7c-37.9,31.4-89.8,49.1-137.3,59.6
		c-11.6,2.6-55.1,7.2-60.1,9.6C1816.5,1483,1795.3,1348.8,1792.7,1331.6z"/>
	<path style="fill:#61C4A9;" d="M1459.8,1161.1c6,0.2,12,0.4,18,0.3c24.8-0.3,49.8-1,74.6-0.2l18.1,0.5
		c17.6,0.4,122.7-2.3,129.1,0.2l17.6,0.1c1.7,2.9,2,5.2,2.1,8.5c2.1,71.9,0.2,144.4,0.2,216.3c0,16.3,2,75.4-0.7,85.8
		c-0.3,1.2-0.8,2-1.5,3.1h-52.4c-46.8,0.5-93.9-1-140.7,0.7c-22-11.2-45.8-13.1-69-20.2c-5-1.5-10.8-1.7-16-2.4
		c-9.9-6.4-22.8-10.8-33.5-16.1c-19.3-9.7-36.9-21.3-54.3-34.1l-5.8-6c0.5-0.8,0.9-1.6,1.2-2.5c1.2-3.3-0.3-4.6-1.7-7.6
		c-2.1-4.1-5.4-8-8.1-11.8c4.1-9.2,1.3-56.7,1.4-70c-3.1,0-7.4,0.4-10.3-0.9c-1.9-0.8-3.5-2.3-4.1-4.3c-2.7-8.6-1.5-113.4-0.8-128.3
		c0.2-3,0.4-5.2,1.8-7.9c12.6-8.3,110.9,0.4,133.7-3C1459.3,1161.2,1459.5,1161.1,1459.8,1161.1z"/>
	<path style="fill:#0C806B;" d="M1339.6,1305.7c15.2-2.9,34.4-1,50-0.9c29.6,0,59.4-0.6,89,0.3c1.2,1.3,1.6,1.9,1.8,3.7
		c-1,3.2-1.6,6-1.8,9.3c-26,0.8-52.5-0.2-78.6-0.3c-19.6-0.1-39.7,0.9-59.2-0.2C1338.8,1314.1,1339.5,1309.5,1339.6,1305.7z"/>
	<path style="fill:#0C806B;" d="M1699.7,1161.8l17.6,0.1c1.7,2.9,2,5.2,2.1,8.5c2.1,71.9,0.2,144.4,0.2,216.3
		c0,16.3,2,75.4-0.7,85.8c-0.3,1.2-0.8,2-1.5,3.1H1665c5.5-3.9,11.4-8.3,12.8-15.3c2.7-12.8,2.3-121.2,0.9-137.9
		c-0.2-2-0.8-3.6-1.9-5.3c-44.3-0.5-88.7,0.4-133.1,0.7c0.1,7.2,0.8,15.6-0.7,22.6c-1.5,6.9-4.8,13.5-10.9,17.4
		c-6,3.8-13.6,4.4-20.4,2.6c-9.9-2.6-15.3-8.2-20.2-16.9c3.5,0.9,7.3,1.5,11,1.6c7,0.3,14.2-0.6,19.4-5.8c8.2-8.2,6.9-20.2,6.5-30.8
		l3.7-3.9c18.6,1.4,37.8,0.5,56.5,0.5c32.2,0,64.5,0.2,96.7-0.2c0.2-0.3,0.4-0.5,0.5-0.8c2.6-5.4,1.5-135.1-0.7-142L1699.7,1161.8z"
		/>
	<path style="fill:#86DAC7;" d="M1459.8,1161.1c6,0.2,12,0.4,18,0.3c24.8-0.3,49.8-1,74.6-0.2l18.1,0.5
		c17.6,0.4,122.7-2.3,129.1,0.2l-14.4,0.4c2.2,7,3.4,136.6,0.7,142c-0.1,0.3-0.4,0.6-0.5,0.8c-32.2,0.4-64.5,0.2-96.7,0.2
		c-18.7,0-37.9,0.9-56.5-0.5l-3.7,3.9c0.4,10.6,1.7,22.6-6.5,30.8c-5.2,5.2-12.4,6.1-19.4,5.8c-3.6-0.2-7.5-0.7-11-1.6
		c-2.6-1.8-5.4-3.8-7.6-6.1c-5.5-5.8-5.6-12-5.6-19.5c0.1-3.4,0.7-6.1,1.8-9.3c-0.2-1.8-0.6-2.4-1.8-3.7c-29.6-0.9-59.4-0.3-89-0.3
		c-15.6,0-34.8-2-50,0.9h-0.9c-3.1,0-7.4,0.4-10.3-0.9c-1.9-0.8-3.5-2.3-4.1-4.3c-2.7-8.6-1.5-113.4-0.8-128.3
		c0.2-3,0.4-5.2,1.8-7.9c12.6-8.3,110.9,0.4,133.7-3C1459.3,1161.2,1459.5,1161.1,1459.8,1161.1z"/>
	<path style="fill:#5C5E9E;" d="M1521,1282.3c5,2.5,9.2,5.1,10.9,10.9c1,3.6,1,7.9,0.4,11.6l-3.7,3.9l-7.8,0.9
		C1520.2,1300.4,1520.7,1291.3,1521,1282.3z"/>
	<path style="fill:#1D4B8B;" d="M1481.6,1308.4c0.4-7-0.1-16.6,5.1-22c6.4-6.7,25.3-4.2,34.3-4.2c-0.3,9.1-0.8,18.2-0.3,27.2
		l7.8-0.9c0.4,10.6,1.7,22.6-6.5,30.8c-5.2,5.2-12.4,6.1-19.4,5.8c-3.6-0.2-7.5-0.7-11-1.6c-2.6-1.8-5.4-3.8-7.6-6.1
		c-5.5-5.8-5.6-12-5.6-19.5c0.1-3.4,0.7-6.1,1.8-9.3L1481.6,1308.4z"/>
	<path style="fill:#FEFEFE;" d="M1481.6,1308.4l3.7,1.1c2.6,10.2-2,20,10,26.6c4.1,2.3,9.3,2.7,13.7,1.3c4.9-1.5,9.1-5.4,11.2-10.1
		c2.3-5.1,1.1-12.4,0.5-17.8l7.8-0.9c0.4,10.6,1.7,22.6-6.5,30.8c-5.2,5.2-12.4,6.1-19.4,5.8c-3.6-0.2-7.5-0.7-11-1.6
		c-2.6-1.8-5.4-3.8-7.6-6.1c-5.5-5.8-5.6-12-5.6-19.5c0.1-3.4,0.7-6.1,1.8-9.3L1481.6,1308.4z"/>
	<path style="fill:#F8B33E;" d="M691.8,493.1c19.8,38.9,39.9,71.4,80.9,91c-1.5,3.3-0.1,8.3,0.4,11.8c1.8,14.3,1.5,29.5,4,43.6
		c5.2,0.3,10.5,0.9,15.7,0.8c11.8,2.4,16.9,7,25.9,14.3c5.2,1.1,10.9,1.8,15.8,3.6c60,25,90.7,67.2,115,126.2
		c9.4,22.7,24.6,64.7,27.1,88.5l1.1,0.7c3.8-2,7-8.2,9.5-11.7c18.6,22.3,39,34.6,68.1,37.6c-7.5,48.8-17.7,91.8-50.8,130
		c1.9,4.8,3.9,9.5,5.5,14.4c1.2,3.7,1.6,6.6,1.4,10.5c-1,3.3-0.9,4.9-3.9,6.9c-3.8-0.3-7.7-1.1-11.3,0.2c-2.4,3.3-3.3,5.1-7,6.8
		c-7.6-0.4-12.9-5.1-18.5-9.6c-2,2.6-3.5,5.8-7.2,6c-9.9,0.6-24-6.2-34.1-8.1c-23.7,9.9-40.1,12.2-65.4,13
		c-8.1,1.2-17.6,1.9-25.2,4.6l1.1,5.2c3.4-0.3,7.8-1.3,10.9,0.3c2.6,15.8,0.8,33.2,1.5,49.2c-29.7,9-58.9,19.3-88.2,29.4
		c-45.5,15.8-90.3,32.3-139,32.2c-27.6-0.8-67.4-4.5-90.1-21.2c0.1-9.5,7.4-22.2,10.6-31.2l-16.4-0.2c-14.8-0.2-28.7-2.7-42.5-7.8
		c-4.6-2.7-8.4-5.8-12.5-9.2c-22.4-24.6-23.4-44-22.6-75.8l-0.4-1.4l2.4-26.5c3.4-30.9,7.7-61.5,13-92.2l3.2-18.2l2.4-12.3
		c6.9-37.4,16.7-73.8,27.3-110.3c8.7-26.4,19-55,35.9-77.4c25.4-33.9,53.8-42.9,93.7-48.5l2.3-3.5c12-2.6,21.1-13,32.8-15.8l2.7-1.7
		c4.9,3,14.8,1.7,20.6,2.3c2.1-17.8,4.7-35.6,7.3-53.4c2.8-18.1,5.3-36.5,6.8-54.8c-4.1-8.2-9.4-17-11.5-26l-0.2-0.8
		C689.1,499.9,689.7,497.4,691.8,493.1z"/>
	<path style="fill:#D12E36;" d="M790,740.9l2.3,3.7c-7.1,9.3-13.5,18.8-19.6,28.9l-3.2-2.1c1.7-8.1,5.2-15.6,8.5-23.1l1.7,0.4
		C783.9,747.3,786.9,743.8,790,740.9z"/>
	<path style="fill:#F09325;" d="M768,771.6l1.5-0.2l3.2,2.1c-2.1,11.6,29.7,44.7,26.6,58.4c-0.5,2.4-1.5,2.5-3.5,3.7l-3-0.8
		c-14.5-13.1-17.3-43.1-25-60.9l-0.6-1.4L768,771.6z"/>
	<path style="fill:#D12E36;" d="M790,740.9c5.8-6.5,12.5-12.6,21.1-14.8c12.9-3.3,24.9,3.6,35.7,9.9l3.4,15.3
		c-11.8-8.8-25.1-17.6-40.5-15.5c-6.8,0.9-12.3,4.2-17.4,8.7L790,740.9z"/>
	<path style="fill:#FEFEFE;" d="M865.8,1016.7c7-16.2,9.6-34,17-50.1c4.3,11.7,9.4,22.9,15,34.1
		C887.3,1004.7,876.4,1014.6,865.8,1016.7z"/>
	<path style="fill:#079A94;" d="M585.9,923.6c6.4,10.7,12.2,21.7,18.1,32.6c-0.4,16.5-1.7,33.5-3.7,49.9c-8.6-2-17.8-2.7-26.6-3.9
		C578.3,976.1,582.3,949.9,585.9,923.6z"/>
	<path style="fill:#F7766E;" d="M783.6,1026.3c11.8,1.3,44.7,0.6,53.1,5.2c-1.9,9.7,1.2,22.3,1.8,32.3c-16.9,3.2-34.6,6.6-51.3,10.7
		C786.3,1058.4,785.4,1042.4,783.6,1026.3z"/>
	<path style="fill:#D12E36;" d="M631.6,654.8c0.9,0.4,2.6,1,3.3,1.6c3.5,3.3,14.4,28.5,18.1,35.4c8.6,16.1,17.6,33.5,28.9,47.9
		c7.4-11.7,14.3-23.4,28.9-26.5c4.5-0.9,9.4-0.5,14-0.4c14.9,16.7,32.9,38.9,43.2,58.8l-0.7,0.9c-13.6-9.1-22.2-22.1-38.7-28
		c-8.7-3.1-18.9-4.1-27.4,0c-12.3,5.9-18.2,18-22.4,30.2c-13.4-24.3-45.1-91.2-49.6-116.4L631.6,654.8z"/>
	<path style="fill:#EE4C4E;" d="M792.8,640.5c11.8,2.4,16.9,7,25.9,14.3c13.9,24.5,22.8,53.7,28.1,81.3
		c-10.7-6.2-22.8-13.2-35.7-9.9c-8.6,2.2-15.3,8.3-21.1,14.8c-3.1,2.9-6.1,6.5-10.3,7.9l-1.7-0.4c0.5-1.3,0.9-2.7,1.4-4
		c2.9-9.1,10.5-45.6,6.6-53C789,681.6,789.6,654.8,792.8,640.5z"/>
	<path style="fill:#EE4C4E;" d="M667.2,637.3c4.9,3,14.8,1.7,20.6,2.3c-2,5.5-3.9,11-5.9,16.5c3.6,6.5,7.5,12.8,12.1,18.6
		c9.1,13.6,20.2,25.8,30.8,38.1c-4.5-0.1-9.5-0.5-14,0.4c-14.7,3.1-21.5,14.8-28.9,26.5c-11.3-14.4-20.3-31.8-28.9-47.9
		c-3.7-6.9-14.6-32.1-18.1-35.4c-0.7-0.6-2.4-1.2-3.3-1.6c12-2.6,21.1-13,32.8-15.8L667.2,637.3z"/>
	<path style="fill:#D12E36;" d="M667.2,637.3c4.9,3,14.8,1.7,20.6,2.3c-2,5.5-3.9,11-5.9,16.5c-5.1-5.8-14.1-10.1-17.4-17.1
		L667.2,637.3z"/>
	<path style="fill:#F09325;" d="M876.4,736.6c5.4,8.9,8.7,19.6,12.3,29.3c16,43.4,28.1,88.9,36.3,134.4c12.2-7.3,37-22.7,50.8-23.9
		l-7.2,11.1c-6.8,12.8-13.1,25.7-19.3,38.7c-0.5,18.4-1.4,47.1,12.3,61.4c5,5.3,23.9,11.8,23.6,18.7c-0.1,1.9-0.8,4-1.3,5.9
		c-18-7.2-41.3-9.3-60.5-9.3c-8.8-2.1-16.3-3-25.4-2.3c-5.6-11.2-10.6-22.4-15-34.1c5.4-19.7,14.4-38.1,19.1-58
		C915.4,851.6,891.6,791,876.4,736.6z"/>
	<path style="fill:#DC7011;" d="M922.6,981.8c-0.5-27.9,7.7-54.4,24.1-77.1c4.9-6.7,13.2-15.8,21.8-17.2
		c-6.8,12.8-13.1,25.7-19.3,38.7C939.3,944.1,932.5,963.8,922.6,981.8z"/>
	<path style="fill:#F5A183;" d="M897.8,1000.7c9.1-0.7,16.6,0.2,25.4,2.3c19.2,0,42.5,2.1,60.5,9.3c8.5,3.7,15.5,9.7,20.7,17.3
		c1.9,4.8,3.9,9.5,5.5,14.4c1.2,3.7,1.6,6.6,1.4,10.5c-1,3.3-0.9,4.9-3.9,6.9c-3.8-0.3-7.7-1.1-11.3,0.2c-2.4,3.3-3.3,5.1-7,6.8
		c-7.6-0.4-12.9-5.1-18.5-9.6c-2,2.6-3.5,5.8-7.2,6c-9.9,0.6-24-6.2-34.1-8.1c-23.7,9.9-40.1,12.2-65.4,13
		c-8.1,1.2-17.6,1.9-25.2,4.6l-0.3-10.5c-0.6-10-3.7-22.6-1.8-32.3c1.1,0.2,2.1,0.3,3.2,0.1c6.5-0.7,21.4-10,26-15
		C876.4,1014.6,887.3,1004.7,897.8,1000.7z"/>
	<path style="fill:#EE4C4E;" d="M923.3,1002.9c19.2,0,42.5,2.1,60.5,9.3c8.5,3.7,15.5,9.7,20.7,17.3c1.9,4.8,3.9,9.5,5.5,14.4
		c-11.5-4.3-18.4-17.4-29.5-23.2c-17.2-8.9-37.7-10.4-55.7-17.3L923.3,1002.9z"/>
	<path style="fill:#EE4C4E;" d="M838.4,1063.8c9.1,1.8,26.5-4.9,35.7-7.1c26.5-6.4,72.1-12.4,96.5,2c-2,2.6-3.5,5.8-7.2,6
		c-9.9,0.6-24-6.2-34.1-8.1c-23.7,9.9-40.1,12.2-65.4,13c-8.1,1.2-17.6,1.9-25.2,4.6L838.4,1063.8z"/>
	<path style="fill:#F09325;" d="M585.9,923.6c1.6-29.4,7.9-59,11.7-88.2c3.2-24.7,4.2-49.5,7.5-74.1c1.1,57-6.8,117,38.7,161.1
		c24.4,23.7,57.8,33.8,91.3,33.1c18.1-0.4,35.2-4.7,52.9-7.8c-37.8,17.5-79.4,21.3-120.2,26.5c3.6,13.7,7.5,28,20.6,35.8
		c10.6,6.3,36.1,9.3,48.7,9.8l-0.1,1.1c-18.6,0-37.1-2.7-55.6-5l-81-9.9c2-16.4,3.3-33.4,3.7-49.9
		C598.1,945.3,592.3,934.3,585.9,923.6z"/>
	<path style="fill:#F09325;" d="M451.6,1045.1c7.1,20.8,13.8,38,34.6,48.3c15.5,7.7,32.9,11.1,50,12c55.7,3.1,137.3-11,193.7-20.6
		c18.9-3.2,38.6-5.7,57.1-10.4l-0.1,27c-24.7,4.8-49,11.1-73.6,16.3c-54.9,11.7-111.8,20.8-168,20.4l-16.4-0.2
		c-14.8-0.2-28.7-2.7-42.5-7.8c-4.6-2.7-8.4-5.8-12.5-9.2C451.8,1096.3,450.8,1076.9,451.6,1045.1z"/>
	<path style="fill:#F5A183;" d="M691.8,493.1c19.8,38.9,39.9,71.4,80.9,91c-1.5,3.3-0.1,8.3,0.4,11.8c1.8,14.3,1.5,29.5,4,43.6
		c5.2,0.3,10.5,0.9,15.7,0.8c-3.2,14.4-3.7,41.2-6.8,50.8c3.9,7.4-3.7,43.9-6.6,53c-0.4,1.4-0.9,2.7-1.4,4c-3.3,7.5-6.8,15-8.5,23.1
		l-1.5,0.2c-10.3-19.9-28.3-42.1-43.2-58.8C714.2,700.3,703,688,694,674.5c-4.7-5.8-8.5-12.1-12.1-18.6c2.1-5.4,4-11,5.9-16.5
		c2.1-17.8,4.7-35.6,7.3-53.4c2.8-18.1,5.3-36.5,6.8-54.8c-4.1-8.2-9.4-17-11.5-26l-0.2-0.8C689.1,499.9,689.7,497.4,691.8,493.1z"
		/>
	<path style="fill:#D12E36;" d="M777.1,639.6c5.2,0.3,10.5,0.9,15.7,0.8c-3.2,14.4-3.7,41.2-6.8,50.8
		C778.6,677.9,778.6,654.8,777.1,639.6z"/>
	<path style="fill:#F7766E;" d="M691.8,493.1c19.8,38.9,39.9,71.4,80.9,91c-1.5,3.3-0.1,8.3,0.4,11.8c-25.5-8.3-49.2-22-64.6-44.7
		c-7.4,34.4-13.5,88.4-14.5,123.4c-4.7-5.8-8.5-12.1-12.1-18.6c2.1-5.4,4-11,5.9-16.5c2.1-17.8,4.7-35.6,7.3-53.4
		c2.8-18.1,5.3-36.5,6.8-54.8c-4.1-8.2-9.4-17-11.5-26l-0.2-0.8C689.1,499.9,689.7,497.4,691.8,493.1z"/>
	<path style="fill:#DC7011;" d="M787.2,1074.5c16.7-4.1,34.4-7.5,51.3-10.7l0.3,10.5l1.1,5.2c3.4-0.3,7.8-1.3,10.9,0.3
		c2.6,15.8,0.8,33.2,1.5,49.2c-29.7,9-58.9,19.3-88.2,29.4c-45.5,15.8-90.3,32.3-139,32.2c-27.6-0.8-67.4-4.5-90.1-21.2
		c0.1-9.5,7.4-22.2,10.6-31.2c56.2,0.4,113.1-8.7,168-20.4c24.6-5.2,48.9-11.5,73.6-16.3V1074.5z"/>
	<path style="fill:#EE4C4E;" d="M787.2,1074.5c16.7-4.1,34.4-7.5,51.3-10.7l0.3,10.5l1.1,5.2c-0.3,3.7,0.1,6.2-2.3,9.2
		c-15.5,6.5-33.9,9.1-50.4,12.8V1074.5z"/>
	<path style="fill:#2D6DAA;" d="M898,1081.3c33.6-7.8,68.7-4.6,102.6-6.2c36-1.8,72.1-5.6,108.1-7.1c70.4-2.9,141.3-2.5,211.7-1.8
		c-1.3,4.8-2.3,10.2-7,12.9c-15.1,8.9-151.9-3.2-159.5,4.8c39.1,68.2,80.4,134.7,123.1,200.7c19.7,30.4,38.7,61.8,60.1,91
		c2.7,3.8,6,7.7,8.1,11.8c1.4,3,2.9,4.4,1.7,7.6c-0.3,0.9-0.7,1.6-1.2,2.5c-13.6,15.3-33.1,36.5-53.1,42.9
		c-49-22.4-83.1-52.3-123.6-86.7c-0.6,7.9-1.4,15.6-3.4,23.3c-7.4,27.6-27,45.6-50.9,59.5c-58,35.9-226.8,51.7-299.7,59.6
		c-29.1,3.2-58.5,7.4-87.6,9.4c-4.5,0.5-8.9,1.1-13.3,1.9l-1.3-8.6c-0.7-8-2.2-16-3.3-23.9l-4.6-29.5c-24.1-0.3-41-9.2-58.4-25.1
		c-0.9-3.3-2.8-6.5-4.3-9.6c-10.4-1.2-20.4-4.8-30.8-6c-4.3-2.3-9.3-3.5-13.7-5.5c-9.1-4.1-18-8.7-26.9-13.2
		c-17.7-13-30.1-27.3-43-44.9l-31.3,0.3l-7.8,0.5c-3.7-0.3-7.5,0-11.3,0.1c-0.8-11.4-3.2-22.8-5.5-34c-0.9-3.5-2.4-6.7-3.8-10
		c-1.1-3.4-0.1-7.6,0.3-11.2c-3.4-13.8-7.3-27.1-12.7-40.2c-0.5-1.4-1-2.8-1.1-4.2c-0.8-8.8,24-65.3,29.9-73.4
		c0.2-4.7-0.7-9-1.5-13.6c-4.2-10.7-6-23.4-9.1-34.6c4,3.4,7.9,6.5,12.5,9.2c13.9,5.1,27.8,7.6,42.5,7.8l16.4,0.2
		c-3.2,9-10.5,21.7-10.6,31.2c22.7,16.7,62.5,20.4,90.1,21.2c48.8,0,93.5-16.5,139-32.2c29.3-10.2,58.5-20.4,88.2-29.4
		c-0.7-16.1,1.1-33.4-1.5-49.2c-3.1-1.6-7.5-0.6-10.9-0.3l-1.1-5.2c7.6-2.7,17.2-3.4,25.2-4.6c3,5.5,5.4,9.6,11.9,11.4
		C882.5,1082.8,891.2,1081.6,898,1081.3z"/>
	<path style="fill:#323570;" d="M838.7,1074.3c7.6-2.7,17.2-3.4,25.2-4.6c3,5.5,5.4,9.6,11.9,11.4c6.6,1.8,15.3,0.6,22.2,0.3
		c14.6,0,118.2-2.1,124.3,0.3c21.5-1.2,43.3,0.6,64.8,0.6c18.5-0.1,47.2-2.7,64.5,0l1.7,1.7c-13.3,6.7-29.7,10.1-44.1,13.7
		c-66,16.6-131.4,23.2-199.2,26.4c-14.2,0.7-29.9,3.1-43.9,1l-13.9,4c-0.7-16.1,1.1-33.4-1.5-49.2c-3.1-1.6-7.5-0.6-10.9-0.3
		L838.7,1074.3z"/>
	<path style="fill:#F8B33E;" d="M838.7,1074.3c7.6-2.7,17.2-3.4,25.2-4.6c3,5.5,5.4,9.6,11.9,11.4c6.6,1.8,15.3,0.6,22.2,0.3
		c14.6,0,118.2-2.1,124.3,0.3c-51.9,14.6-105.2,25.6-156.2,43.3l-13.9,4c-0.7-16.1,1.1-33.4-1.5-49.2c-3.1-1.6-7.5-0.6-10.9-0.3
		L838.7,1074.3z"/>
	<path style="fill:#1D4B8B;" d="M474.1,1120.9c4,3.4,7.9,6.5,12.5,9.2c13.9,5.1,27.8,7.6,42.5,7.8l16.4,0.2
		c-3.2,9-10.5,21.7-10.6,31.2c22.7,16.7,62.5,20.4,90.1,21.2c-21.5,38.4-30.1,78.2-17.8,121.3c9,31.5,27.9,60.7,57.1,76.8
		c32.1,17.6,62.3,12.7,95.7,2.8c117.7-35.2,249.4-142.1,336.7-228.1c-13.7,29.7-15.8,60-4.2,90.9c20,53.7,115.1,122.9,164.9,145.2
		c19.3,8.7,36.7,11.2,56.8,3.6c10.8-4.1,21.1-10.1,31.3-15.6c1.4,3,2.9,4.4,1.7,7.6c-0.3,0.9-0.7,1.6-1.2,2.5
		c-13.6,15.3-33.1,36.5-53.1,42.9c-49-22.4-83.1-52.3-123.6-86.7c-0.6,7.9-1.4,15.6-3.4,23.3c-7.4,27.6-27,45.6-50.9,59.5
		c-58,35.9-226.8,51.7-299.7,59.6c-29.1,3.2-58.5,7.4-87.6,9.4c-4.5,0.5-8.9,1.1-13.3,1.9l-1.3-8.6c-0.7-8-2.2-16-3.3-23.9
		l-4.6-29.5c-24.1-0.3-41-9.2-58.4-25.1c-0.9-3.3-2.8-6.5-4.3-9.6c-10.4-1.2-20.4-4.8-30.8-6c-4.3-2.3-9.3-3.5-13.7-5.5
		c-9.1-4.1-18-8.7-26.9-13.2c-17.7-13-30.1-27.3-43-44.9l-31.3,0.3l-7.8,0.5c-3.7-0.3-7.5,0-11.3,0.1c-0.8-11.4-3.2-22.8-5.5-34
		c-0.9-3.5-2.4-6.7-3.8-10c-1.1-3.4-0.1-7.6,0.3-11.2c-3.4-13.8-7.3-27.1-12.7-40.2c-0.5-1.4-1-2.8-1.1-4.2
		c-0.8-8.8,24-65.3,29.9-73.4c0.2-4.7-0.7-9-1.5-13.6C479,1144.8,477.1,1132.1,474.1,1120.9z"/>
	<path style="fill:#FEFEFE;" d="M509.5,1283.1c2.1,6.5,2.9,13.3,4.4,19.9c3,13.6,7.7,25.8,14.1,38.2l-31.3,0.3
		C500.7,1323.5,502.3,1299.5,509.5,1283.1z"/>
	<path style="fill:#E7F0F8;" d="M1067.6,1210.8c2.3,4.6,1.8,13.1,2.9,18.4c4.3,22.1,16.9,41.4,32.2,57.4
		c-27.9-0.2-55.8,3.2-83.4,6.8c-10.1,1.4-20.1,3.4-30.1,5.2C1018.5,1272.3,1043.3,1241.7,1067.6,1210.8z"/>
	<path style="fill:#079A94;" d="M474.1,1120.9c4,3.4,7.9,6.5,12.5,9.2c13.9,5.1,27.8,7.6,42.5,7.8l16.4,0.2
		c-3.2,9-10.5,21.7-10.6,31.2c-8.8,34.3-24.3,67-27.3,102.9c0.1,3.7-0.4,7.8,1.8,10.8c-7.1,16.4-8.8,40.5-12.8,58.4l-7.8,0.5
		c-3.7-0.3-7.5,0-11.3,0.1c-0.8-11.4-3.2-22.8-5.5-34c-0.9-3.5-2.4-6.7-3.8-10c-1.1-3.4-0.1-7.6,0.3-11.2
		c-3.4-13.8-7.3-27.1-12.7-40.2c-0.5-1.4-1-2.8-1.1-4.2c-0.8-8.8,24-65.3,29.9-73.4c0.2-4.7-0.7-9-1.5-13.6
		C479,1144.8,477.1,1132.1,474.1,1120.9z"/>
	<path style="fill:#61C4A9;" d="M486.6,1130.1c13.9,5.1,27.8,7.6,42.5,7.8c-8.1,22.1-23.6,45.3-35.7,65.5
		C492.1,1178.9,487.6,1154.7,486.6,1130.1z"/>
	<path style="fill:#86DAC7;" d="M484.7,1169.1c1.4,16.7,0,35.2,3,51.5c5.2,19.4,9.6,39.6,16.3,58.6c2-1.5,2.8-4.7,3.6-6.9
		c0.1,3.7-0.4,7.8,1.8,10.8c-7.1,16.4-8.8,40.5-12.8,58.4l-7.8,0.5c-3.7-0.3-7.5,0-11.3,0.1c-0.8-11.4-3.2-22.8-5.5-34
		c-0.9-3.5-2.4-6.7-3.8-10c-1.1-3.4-0.1-7.6,0.3-11.2c-3.4-13.8-7.3-27.1-12.7-40.2c-0.5-1.4-1-2.8-1.1-4.2
		C454,1233.8,478.7,1177.2,484.7,1169.1z"/>
	<path style="fill:#079A94;" d="M468.6,1286.9l12.8-34.1l3.8-0.8l-0.9-2.8h-0.2c0.9,4.7,0.6,9.5,0.5,14.3
		c-2.6,15.1-5.3,30.8-12.5,44.6c-0.9-3.5-2.4-6.7-3.8-10C467.1,1294.7,468.2,1290.5,468.6,1286.9z"/>
	<path style="fill:#FEFEFE;" d="M487.8,1220.6c5.2,19.4,9.6,39.6,16.3,58.6c2-1.5,2.8-4.7,3.6-6.9c0.1,3.7-0.4,7.8,1.8,10.8
		c-7.1,16.4-8.8,40.5-12.8,58.4l-7.8,0.5c-3.7-0.3-7.5,0-11.3,0.1c-0.8-11.4-3.2-22.8-5.5-34c7.2-13.8,9.9-29.4,12.5-44.6
		C488.3,1250.6,485.5,1234.3,487.8,1220.6z"/>
	<path style="fill:#056172;" d="M504.1,1279.2c2-1.5,2.8-4.7,3.6-6.9c0.1,3.7-0.4,7.8,1.8,10.8c-7.1,16.4-8.8,40.5-12.8,58.4
		l-7.8,0.5C491.1,1330.7,497.7,1285.5,504.1,1279.2z"/>
	<path style="fill:#2D6DAA;" d="M705.1,1445.4c77-38.7,150.9-85,229.9-119.5c41.3-18,103.8-16.3,145.7,0.2
		c18.4,7.2,36.7,17.7,44.8,36.8c11.3,26.7-0.9,49.2-10.6,73.6c-58,35.9-226.8,51.7-299.7,59.6c-29.1,3.2-58.5,7.4-87.6,9.4
		c-4.5,0.5-8.9,1.1-13.3,1.9l-1.3-8.6c-0.7-8-2.2-16-3.3-23.9L705.1,1445.4z"/>
	<path style="fill:#E7F0F8;" d="M725.9,252.5c37.9-4,83-1.3,113.9,23.8c7.8,6.3,15.3,15.1,19.5,24.3c2.4,5.1,4.5,15,8.4,18.8
		l8.9-3.4c8.2-3,16.9,0.6,24.3,4.2c18.9,9.2,33.3,25.6,40.1,45.5c7.5,21.8,5.4,45.7-4.9,66.2c-7.3,14.5-18.8,29.9-32.5,38.9
		c-3.7,4.8-3.1,8.1-3.6,14.1c-4,34.8-11.6,71.3-40.5,94.6c-14.5,11.7-32.1,17.8-50.7,15.7c-12.3-1.4-25.1-5.7-36.3-11
		c-41-19.6-61.1-52.1-80.9-91c-2.1,4.2-2.6,6.8-1.6,11.5l0.2,0.8c2,9,7.4,17.8,11.5,26c-1.4,18.3-4,36.7-6.8,54.8
		c-2.6,17.8-5.2,35.6-7.3,53.4c-5.8-0.7-15.7,0.6-20.6-2.3l-2.7,1.7c-11.7,2.7-20.8,13.1-32.8,15.8l-2.3,3.5
		c-39.9,5.6-68.3,14.6-93.7,48.5c-16.9,22.5-27.2,51-35.9,77.4c-10.5,36.4-20.3,72.8-27.2,110.2l-2.4,12.3l-3.2,18.2
		c-5.3,30.7-9.6,61.3-13,92.2c-5.9-1.6-17.2-6.1-22.9-3.8c-7.1-6.2-14.6-18.4-21.2-26c-1.9-2.5-4.7-4.7-7-6.9
		c-16-15.8-33.8-30-52-43.2c-1.9-8.1-3.2-16-4.1-24.3l-3.9-40.1l-1-10.8c-12.5-3.9-25.2-10.1-36.7-16.4
		c-44.2-24.1-75.9-66.3-89.9-114.5c-17.9-61.7-12.6-128.9,18.8-185.3c57.3-103,190.1-152.3,293.4-196.6
		c25.5-10.9,51.2-21.3,76.9-31.8c11.9-4.8,23.9-10.9,36.3-14.4C666.4,276.9,689.9,261.5,725.9,252.5z"/>
	<path style="fill:#A0DCF2;" d="M324,600.6c5.3-0.2,10.6,0.2,15.5,2.4c7,3.1,12.5,8.9,15.3,16c2.8,7.1,2.6,15.4-0.7,22.3
		c-4.1,8.6-10.9,12.5-19.6,15.5c-5.5,0.3-11.1,0.3-16.3-2c-7-3.1-12.5-8.7-15.2-15.8c-2.7-7.2-2.4-15.5,1-22.5
		C308.2,607.8,315.1,603.7,324,600.6z"/>
	<path style="fill:#17ADA4;" d="M340.4,739.7c0.4-11.2,1.8-49.1,7.7-56.8h2.7c59.6,29.1,101.3,54.7,148.9,101.3
		c-10.6,36.5-20.4,72.9-27.3,110.3C458,882.3,435.9,829,422,810c-5.6-10.8-11.5-23.4-19.5-32.5C381.4,766,361.2,752,340.4,739.7z"/>
	<path style="fill:#079A94;" d="M340.4,739.7c0.4-11.2,1.8-49.1,7.7-56.8h2.7c5.2,17.7,30.8,56.6,41,74.5c3.6,6.4,8.3,13.1,10.7,20
		C381.4,766,361.2,752,340.4,739.7z"/>
	<path style="fill:#079A94;" d="M340.4,739.7c20.7,12.3,40.9,26.3,62,37.8c8,9.1,13.9,21.7,19.5,32.5c13.9,18.9,36,72.2,50.4,84.5
		l-2.4,12.3l-3.2,18.2c-5.3,30.7-9.6,61.3-13,92.2c-5.9-1.6-17.2-6.1-22.9-3.8c-7.1-6.2-14.6-18.4-21.2-26c-1.9-2.5-4.7-4.7-7-6.9
		c-16-15.8-33.8-30-52-43.2c-1.9-8.1-3.2-16-4.1-24.3l-3.9-40.1l-1-10.8c-0.6-5.6-0.8-11.2-1.2-16.8c-1.8-26.8-1.4-53.7-1.3-80.6
		C339.3,756.4,339.6,748.1,340.4,739.7z"/>
	<path style="fill:#056172;" d="M340.4,739.7c20.7,12.3,40.9,26.3,62,37.8c8,9.1,13.9,21.7,19.5,32.5c-8.2-4-16.2-9.3-24.3-13.7
		c-19.3-10.8-38.7-21.6-58.5-31.5C339.3,756.4,339.6,748.1,340.4,739.7z"/>
	<path style="fill:#056172;" d="M340.4,845.4c29.9,16.3,61.9,30.5,92.9,44.7c11.8,5.4,25.5,10.1,36.6,16.7l-3.2,18.2
		c-18.8-9.6-38.9-17-58.5-24.9L342.5,873l-1-10.8C341,856.6,340.8,851,340.4,845.4z"/>
	<path style="fill:#079A94;" d="M342.6,873l65.7,27.1c19.6,7.9,39.7,15.3,58.5,24.9c-5.3,30.7-9.6,61.3-13,92.2
		c-5.9-1.6-17.2-6.1-22.9-3.8c-7.1-6.2-14.6-18.4-21.2-26c-1.9-2.5-4.7-4.7-7-6.9c-16-15.8-33.8-30-52-43.2
		c-1.9-8.1-3.2-16-4.1-24.3L342.6,873z"/>
	<path style="fill:#1D1F55;" d="M649.1,469.7c5.8,10.8,11.2,18.7,23.4,22.5c6.1,1.9,13,1.2,19.3,0.9c-2.1,4.2-2.6,6.8-1.6,11.5
		l0.2,0.8c2,9,7.4,17.8,11.5,26c-1.4,18.3-4,36.7-6.8,54.8c-2.6,17.8-5.2,35.6-7.3,53.4c-5.8-0.7-15.7,0.6-20.6-2.3
		c-2.3-5.5-5.4-10.7-8.3-15.9c-12,10.7-25.4,19.7-40.9,24.4c-18.5,5.5-39.1,4.9-56.2-4.7c-23-12.8-30.1-32.7-37.1-56.5
		c-14.6,4.8-27.6,5.3-42.1-0.6c-21.6-8.7-35.5-25.8-44.4-46.8c-3.1-9.2-4.9-18.5-5.5-28.1l2.4-0.3c2.9,2.7,7.8,8.7,12,8.8
		c0.2,0,0.5,0,0.7-0.1c3.3-7.8,9.7-16,15.4-22.2c55.1-59.5,72.5,13,126.6,10.8C619,504.8,631.1,489.2,649.1,469.7z"/>
	<path style="fill:#323570;" d="M725.9,252.5c37.9-4,83-1.3,113.9,23.8c7.8,6.3,15.3,15.1,19.5,24.3c2.4,5.1,4.5,15,8.4,18.8
		l8.9-3.4c8.2-3,16.9,0.6,24.3,4.2c18.9,9.2,33.3,25.6,40.1,45.5c7.5,21.8,5.4,45.7-4.9,66.2c-7.3,14.5-18.8,29.9-32.5,38.9
		c-3.7,4.8-3.1,8.1-3.6,14.1c-4,34.8-11.6,71.3-40.5,94.6c-14.5,11.7-32.1,17.8-50.7,15.7c-12.3-1.4-25.1-5.7-36.3-11
		c-41-19.6-61.1-52.1-80.9-91c-6.3,0.2-13.2,0.9-19.3-0.9c-12.2-3.8-17.6-11.7-23.4-22.5c-18,19.5-30.2,35.1-59.2,36.3
		c-54.1,2.2-71.6-70.3-126.6-10.8c-5.7,6.2-12.1,14.4-15.4,22.2c-0.2,0-0.5,0.1-0.7,0.1c-4.2-0.1-9.1-6.1-12-8.8l-2.4,0.3
		c-0.3-1.2-0.4-2.5-0.5-3.7c-1.5-21.6,8.5-47.1,22.7-63.1c25.1-28.2,58-26.9,92-29.3c41.4-3,49.1-31.2,64.5-63.8
		c7.9-16.7,17.1-32.1,29.2-46C666.4,276.9,689.9,261.5,725.9,252.5z"/>
	<path style="fill:#5C5E9E;" d="M871.8,331c13.2-0.8,22.6,0.8,33.6,8.6c15.4,11.1,27.3,30,30.4,48.7c-11.7-16.7-25.7-35-46.2-41
		c-5.7-1.7-12.4-0.9-17.7-3.5C870.5,339.8,871.4,335.2,871.8,331z"/>
	<path style="fill:#5C5E9E;" d="M758,270.2c10.6-1.6,23.1-1.1,33.6,0.5c24.9,4,43.3,15.9,57.9,36.2c-5.9-3.2-12.1-5.8-18.4-8.1
		c-41.4-15.2-77.9-15.4-118.4,3.5c-26.6,14-42,32.6-62.5,53.8c6.5-13.6,13.3-27.2,22.6-39.1C694,289.5,724,274.7,758,270.2z"/>
	<path style="fill:#F5A183;" d="M668.2,374.3c8.1,13.3,17.9,26.4,34,30.1c32,7.4,55.2-35.5,80.7-50.8c16.6-10,34.9-12.7,53.6-7.7
		c8.4,2.2,26.4,8.5,30.7,16c12.6,4.1,20.9,7.8,27.3,20c0.3,0.5,0.5,1.1,0.8,1.7c10.7,19.7,14.5,45.6,11.2,67.8l-2.3,1.2
		c2.2,4.7,0.1,13-0.5,18.2c-3.7,4.8-3.1,8.1-3.6,14.1c-4,34.8-11.6,71.3-40.5,94.6c-14.5,11.7-32.1,17.8-50.7,15.7
		c-12.3-1.4-25.1-5.7-36.3-11c-41-19.6-61.1-52.1-80.9-91c-6.3,0.2-13.2,0.9-19.3-0.9c-12.2-3.8-17.6-11.7-23.4-22.5
		c-3.6-12.7-3.5-21.4,0.6-34c-0.4-0.7-0.6-0.9-0.9-1.7C645.1,422.8,662.5,385.1,668.2,374.3z"/>
	<path style="fill:#1D1F55;" d="M904.3,452.6c-19.4-14.9-20.3-3.9-31.8-8.5l0.1-1.9c1.3-1.3,2.4-2.3,4-3.2c4.4-2.5,9-3.7,14-2.1
		c7.7,2.5,12.4,7.4,16.1,14.4L904.3,452.6z"/>
	<path style="fill:#EE4C4E;" d="M800.6,536.1c6.9,8.3,14.2,13.2,25.1,14.3c4.2,0.4,8.9,0.1,13.1-0.4l1.1,0.8l-0.2,2.6
		c-3.5,4.2-7.2,7.5-12.8,8.2c-5.5,0.7-11.6-0.7-16-4.3C805.2,552.8,801.2,543.4,800.6,536.1z"/>
	<path style="fill:#1D1F55;" d="M788.5,417.6c11.1-0.7,22.1-0.7,31.6,6c3.1,2.2,5.5,4.4,6.2,8.2l-1.5,1.8c-4.3-0.3-6-2.1-9.4-4.6
		c-16.6-6.9-32.7-3-50-3.2C772.9,422.3,780.4,419.7,788.5,417.6z"/>
	<path style="fill:#D12E36;" d="M841.4,482.9c3,2.9,3.7,10.7,5.5,14.9c3.6,8.2,12.8,12.7,13.1,22.3c-2.7,5.2-8.2,6.8-13.5,8.5
		l-6-3.6l0.2-1.5c2.9-1.7,5.7-3.4,8.5-5.2c0.9-7.9-9.8-11.9-11.8-18.7C835.7,493.9,839,487.9,841.4,482.9z"/>
	<path style="fill:#1D1F55;" d="M883.2,463.9c3.4,1,8.8,5.5,10.8,8.5l-2.8,2.3l0.4,2.1l6.1,3.1l-0.4,1.7c-4.4,1.6-7.2,2.2-9.4,6.8
		c-2.6,5.3-4.5,5.8-9.6,7.8c-2.2-2-5-4.2-6.6-6.8c-1.3-2-1-2.6-0.5-4.8c2-1.2,4.7-2.6,6.4-4.2c2-2,1.9-3.4,1.7-6l-2-1.4
		c-2.4,0-5.3,0.4-7.3-1.2l0.2-2.5c2.2-1.7,5.2-4.4,8-4.5c1.6-0.1,2.6-0.3,4.2-0.8L883.2,463.9z"/>
	<path style="fill:#FEFEFE;" d="M796,524.8c10.8,5.6,21.5,11.3,33.2,14.7c4.3,1.2,13.8,2.1,16.7,4.9c-1.8,3-4.2,4-7.2,5.7
		c-4.2,0.5-8.8,0.8-13.1,0.4c-10.9-1.1-18.2-6-25.1-14.3L796,524.8z"/>
	<path style="fill:#1D1F55;" d="M796,444.9c8,1.5,10.1,3.1,15.8,8.9c-2.2,9.9-3.4,15.6-11.1,22.8c-5.1,0.2-9.7-1-13.8-4.1
		c-2.9-8.2,4.3-12.7,6.8-20.1c-2-1.1-3.7-2.3-5.6-3.7l0.8-1.9C791.4,446.4,793.7,445.6,796,444.9z"/>
	<path style="fill:#D12E36;" d="M657.8,458.2c-1.3-6.4-2-12.5,1.7-18.3c1.7-2.6,4.3-4.3,7.4-5c3.7-0.7,7.5,0.4,10.4,2.7
		c4.5,3.4,7.2,9.1,7.8,14.6c0.7,7-0.1,14.1-3.4,20.4c-6-0.9-7.4-8.4-15-11.6c-1.8-0.2-0.9-0.3-2.8,0.5c-1.5,0.6-2.4,0.8-4,0.7
		L657.8,458.2z"/>
	<path style="fill:#F7766E;" d="M657.8,458.2l0.9-5.9c0.2-1.5,0.4-3,0.7-4.5c0.9-4.1,2.4-5.7,5.7-7.9c3.7-0.6,5.9,0,9.3,1.4
		c-3.2,6.5-5.6,12.8-7.7,19.8c-1.8-0.2-0.9-0.3-2.8,0.5c-1.5,0.6-2.4,0.8-4,0.7L657.8,458.2z"/>
	<path style="fill:#EE4C4E;" d="M674.4,441.2c9.8,16.6,4.4,16.4,7.3,31.4c-6-0.9-7.4-8.4-15-11.6
		C668.8,454.1,671.2,447.7,674.4,441.2z"/>
	<path style="fill:#F7766E;" d="M727.6,427c13.1-18.7,31.1-35.8,50.2-48.4c29.2-19.2,55.8-23.7,89.5-16.7c12.6,4.1,20.9,7.8,27.3,20
		c0.3,0.5,0.5,1.1,0.8,1.7c-10.1-10.1-18.8-14.8-33.4-14.8c-35,0-76.2,20.8-105.1,39.2C747.8,413.6,737.2,422.9,727.6,427z"/>
	<path style="fill:#1D1F55;" d="M668.2,374.3c8.1,13.3,17.9,26.4,34,30.1c32,7.4,55.2-35.5,80.7-50.8c16.6-10,34.9-12.7,53.6-7.7
		c8.4,2.2,26.4,8.5,30.7,16c-33.7-7-60.3-2.5-89.5,16.7c-19,12.5-37,29.7-50.2,48.4c-14.3,14.6-19.6,34.4-21.9,54.1
		c-4.9-19.9-4.5-46.6-24.3-58.6c-3.8-2.3-8.1-3.4-12.4-2.1c-7.9,2.3-14.5,8.9-19.3,15.4c-0.4-0.7-0.6-0.9-0.9-1.7
		C645.1,422.8,662.5,385.1,668.2,374.3z"/>
	<path style="fill:#B9D6F4;" d="M1953.3,295.6l1.2,0.2c31.1,4.4,79.5-10.9,101.4,17.9c4.1,5.4,6.5,12.7,7,19.4
		c2.2,30.3,0.6,62.1,0.7,92.6v184.1l0.2,104.6c0,16.5,1.7,35.1-0.7,51.4c-2,13.1-10.4,25.3-21,33c-7.4,5.4-15.4,8.3-24.5,9
		c-37.6,2.7-81.6,0.4-119.8,0.3l-230.8-0.4l-133.3,0.1c-21.1,0-45.3,2.5-65.9-1.2c-8.9-1.6-15.5-7.1-20.4-14.4
		c-2.3-3.3-3.7-6.8-5.1-10.5c-10-20.5-7.1-41.7-6.7-63.9l-1.5-1.4l-2.5,1.5c-0.5,0.7-1.5,1.2-2.2,1.7c-3.5-4.7-1.1-40.5-1-48.3
		c-19.7-0.1-63,5.9-78-7.4c-7-6.2-8.8-13.8-9.2-22.8c1-34,0-68.3,0-102.3c0-14.4-1.6-30.9,1.1-45c0.9-4.7,3.2-8.6,6.5-12
		c3.1-3.1,6.9-5.6,11.2-6.7c15.4-3.9,56.3-1.1,74.2-1l-0.3-54.8v-29.4l0.1-63.8c5.6,7.2,11.1,14.8,17.5,21.3
		c8.8,9.5,17.6,12.6,30.5,13.2c13.9,0.6,28,0,41.9-0.1c9.4,10.1,18.9,19.9,28.7,29.6l6.8,6.9c6-10.1,24.5-24.8,33.3-36.4
		c28-1.5,56.7-0.4,84.8-0.3l156.5,0.2c24.5,0,49.7,1.2,74.1-0.3c5.6-0.4,11.4-1,16.6-3.3c12.3-5.4,22.2-16.6,27-29
		C1954.7,318.9,1957.1,304.2,1953.3,295.6z"/>
	<path style="fill:#65A3E2;" d="M1630.9,496.8c3.1,24.5,0.8,66.6,0.8,92.5c0,21.5-0.2,43,0.1,64.6c0.2,11.9,1.1,24.1,0.7,36
		c-0.1,3.9,0.4,6.7-2.2,9.8c-2.1,2.5-5.5,2.5-8.5,2.7c-22.6,1.7-46.4,0.3-69.2,0.3c-32.2,0-64.6,1-96.8-0.2
		c11.2-10.4,23.9-20.5,36.2-29.5c25.5-0.8,51.1-0.2,76.6-0.1c13.2,0,29.8,1.9,42.5-1.5c9.4-2.5,14.5-9.7,19.2-17.6
		C1632.9,601.6,1628,548.9,1630.9,496.8z"/>
	<path style="fill:#65A3E2;" d="M1433.7,325.8c5.6,7.2,11.1,14.8,17.5,21.3c8.8,9.5,17.6,12.6,30.5,13.2c13.9,0.6,28,0,41.9-0.1
		c9.4,10.1,18.9,19.9,28.7,29.6l6.8,6.9l2.4,0.2c2.7-2.4,5.1-4.8,7.5-7.4c55,2.4,110.6,1,165.6,1l305.2-0.1
		c3.4,5.4,3.5,18.4,1.8,24.6c-0.4,1.5-1,2.5-1.9,3.8c-20.8-1.8-42.9-0.1-63.9-0.1l-135,0.1l-407,0.2v-29.4L1433.7,325.8z"/>
	<path style="fill:#5A8FCD;" d="M1433.7,325.8c5.6,7.2,11.1,14.8,17.5,21.3c8.8,9.5,17.6,12.6,30.5,13.2c13.9,0.6,28,0,41.9-0.1
		c9.4,10.1,18.9,19.9,28.7,29.6c-39.4,1.4-79.1-0.3-118.6-0.2V325.8z"/>
	<path style="fill:#5A8FCD;" d="M1953.3,295.6l1.2,0.2c31.1,4.4,79.5-10.9,101.4,17.9c4.1,5.4,6.5,12.7,7,19.4
		c2.2,30.3,0.6,62.1,0.7,92.6v184.1l0.2,104.6c0,16.5,1.7,35.1-0.7,51.4c-2,13.1-10.4,25.3-21,33c-7.4,5.4-15.4,8.3-24.5,9
		c-37.6,2.7-81.6,0.4-119.8,0.3l-230.8-0.4l-133.3,0.1c-21.1,0-45.3,2.5-65.9-1.2c-8.9-1.6-15.5-7.1-20.4-14.4
		c-2.3-3.3-3.7-6.8-5.1-10.5c6.4,1.7,10.4,6.8,17.7,7.8c17.7,2.5,45.8,0.4,64.7,0.4l141.4,0.1l226.3,0.6c37.6,0.1,78.8,2.4,116-0.6
		c8.3-0.7,14.1-3.3,20.6-8.5c9.3-7.5,12.4-18.5,13.5-30c1.4-14.7,0.5-30,0.5-44.8l-0.1-86.4l-0.1-125.2c0-22.3,0.7-44.8-0.3-67
		c-0.2-3.6-0.4-6.3-2.8-9.2c0.9-1.3,1.4-2.3,1.9-3.8c1.7-6.1,1.6-19.1-1.8-24.6l-305.2,0.1c-55-0.1-110.7,1.4-165.6-1
		c-2.4,2.6-4.8,5.1-7.5,7.4l-2.4-0.2c6-10.1,24.5-24.8,33.3-36.4c28-1.5,56.7-0.4,84.8-0.3l156.5,0.2c24.5,0,49.7,1.2,74.1-0.3
		c5.6-0.4,11.4-1,16.6-3.3c12.3-5.4,22.2-16.6,27-29C1954.7,318.9,1957.1,304.2,1953.3,295.6z"/>
	<path style="fill:#E7F0F8;" d="M1992.6,330.2c4.1-0.6,7.9-1.2,11.8,0.6c3.6,1.8,6.6,5,7.9,8.9c1.1,3.2,0.8,6.8-0.7,9.8
		c-2.2,4.5-5.8,6.2-10.4,7.5c-1.1,0.3-2.1,0.7-3.3,0.6c-3.2-0.1-7.1-0.9-9.4-3.3c-3-3.2-3.6-7.9-3.3-12.1
		C1985.5,336.4,1988.4,333.8,1992.6,330.2z"/>
	<path style="fill:#61C4A9;" d="M1434,473.8h123.9c17.1,0,37.6-1.9,54.2,0.3c10,5.4,15,10,18.4,21.2l0.5,1.6
		c-2.9,52.1,2,104.8-0.6,157c-4.6,7.9-9.8,15.1-19.2,17.6c-12.7,3.4-29.3,1.6-42.5,1.5c-25.5-0.1-51.1-0.7-76.6,0.1
		c-12.3,9-25,19.1-36.2,29.5c-4.5,3.9-14.7,15-20.5,15.2l-1.5-1.4l-2.5,1.5c-0.5,0.7-1.5,1.2-2.2,1.7c-3.5-4.7-1.1-40.5-1-48.3
		c-19.7-0.1-63,5.9-78-7.4c-7-6.2-8.8-13.8-9.2-22.8c1-34,0-68.3,0-102.3c0-14.4-1.6-30.9,1.1-45c0.9-4.7,3.2-8.6,6.5-12
		c3.1-3.1,6.9-5.6,11.2-6.7C1375.3,471,1416.1,473.7,1434,473.8z"/>
	<path style="fill:#FEFEFE;" d="M1381.7,508.3c8.6,3,81.5,67.2,95.6,79.8c15.1-13.1,83.6-72.1,98.4-77c0.7,1,3.8,0.8,5.3,1.9
		c0,2.2-2,3.9-3.4,5.6c-32.9,26.7-68.5,51.8-99.5,80.7c-13.7-10-26.3-22-39.4-32.9c-19.9-16.6-41-32.6-59.6-50.7
		C1378.5,512.3,1379.9,511.2,1381.7,508.3z"/>
	<path style="fill:#17ADA4;" d="M1612.1,474c10,5.4,15,10,18.4,21.2l0.5,1.6c-2.9,52.1,2,104.8-0.6,157c-4.6,7.9-9.8,15.1-19.2,17.6
		c-12.7,3.4-29.3,1.6-42.5,1.5c-25.5-0.1-51.1-0.7-76.6,0.1c-12.3,9-25,19.1-36.2,29.5c-4.5,3.9-14.7,15-20.5,15.2l-1.5-1.4
		l-2.5,1.5c-0.5,0.7-1.5,1.2-2.2,1.7c-3.5-4.7-1.1-40.5-1-48.3c-19.7-0.1-63,5.9-78-7.4c-7-6.2-8.8-13.8-9.2-22.8l118.5-1.4
		c20.2-0.3,40.3-2,60.5-0.9c15.8-0.4,32,1.2,47.8-0.2c6.3-0.6,11.8-1.8,15.3-7.7c13-21.6-7.7-125.5,13.1-150
		C1601,474.9,1605,474.5,1612.1,474z"/>
	<path style="fill:#FEFEFE;" d="M1687.3,476.6c17.3-1.5,35.2-0.8,52.6-0.8l86.9,0.1h99.2c16.5,0,33.6-1,50.1-0.1
		c2.2,0.1,4.5,0.4,6.4,1.6c2.6,1.7,4.2,3.5,4.7,6.6c1.7,9.5,0.7,20.8,0.7,30.5v59l-0.4,108.7c0,11.3,1.2,22.6,0.8,33.9
		c-0.1,3.7-0.6,9.9-3.2,12.8c-2.7,3-5.7,2.7-9.3,3c-63.6-1.9-127.5-0.8-191.1-0.4c-26.7,0.2-67.3,2.9-93-1.2
		c-4.5-0.7-7.5-2.6-10.7-5.8c-1.7-4.4-1.6-9.2-1.7-13.9c-1.3-45.5,0.2-91.5,0-137c-0.1-25.7-2.7-64.1,0.2-88.4
		C1680.1,481.4,1684.3,478.9,1687.3,476.6z"/>
	<path style="fill:#5A8FCD;" d="M1714.2,718.3c2-0.3,4-0.5,6-0.7c3.7-0.3,8.3-0.6,11.3,1.8c-0.5,3-1,3.1-3.1,5l-2.2,1.8
		c-2.3,0.5-4.7,1.1-6.9,0C1715.6,724.4,1715.1,721.9,1714.2,718.3z"/>
	<path style="fill:#5A8FCD;" d="M1880.1,518.2c1.7-0.4,3.5-0.8,5.2-0.9c8-0.8,66-1.2,69.1,1.4l-1.6,4.2c-5,2.4-63.6,2-69.2,0
		C1881.4,522.1,1881.1,520.2,1880.1,518.2z"/>
	<path style="fill:#2D6DAA;" d="M1716.6,509.6c3.3-0.6,7.1-1.2,10.4,0c3.6,1.4,6.3,4.2,7.8,7.7c1.2,2.9,1,6-0.3,8.9
		c-1.9,3.9-4.7,5.6-8.6,7.1c-1.3,0.8-2.2,0.9-3.7,0.9c-3,0.1-5-0.1-7.2-2.2c-3-2.9-3.8-7.7-4-11.6
		C1710.9,515.6,1713.5,512.9,1716.6,509.6z"/>
	<path style="fill:#2D6DAA;" d="M1718.2,614.6c3.2-0.3,6.9-0.2,9.8,1.2c3.5,1.7,6,4.7,7.1,8.4c1,3.2,0.4,6.7-1.3,9.6
		c-2.5,4-5.7,5.3-10.1,6.4c-0.5,0-1,0-1.4,0c-3-0.1-7.1-1.9-9-4.2c-2.2-2.7-2.6-6.2-2.4-9.5C1711.3,620.6,1714,618.1,1718.2,614.6z"
		/>
	<path style="fill:#2D6DAA;" d="M1719.4,560.9c2.6-0.2,5.7,0.1,8.1,1.1c3.7,1.6,6.6,4.6,7.8,8.6c0.9,3.2,0.5,6.5-1.2,9.4
		c-2.5,4.2-6.1,5.6-10.6,6.7c-0.8,0.2-0.9,0.3-1.9,0.2c-3-0.1-7.2-1.9-9.1-4.4c-2.1-2.7-2.3-6-1.9-9.2
		C1711.4,566.8,1714.4,564.5,1719.4,560.9z"/>
	<path style="fill:#2D6DAA;" d="M1718.2,668.3c3.2-0.5,6.5-0.9,9.6,0.4c3.4,1.4,6.2,4.4,7.6,7.8c1.3,3.4,1.1,7.2-0.6,10.4
		c-2.1,3.9-4.9,5.3-8.9,6.5c-1.6,0.8-3,0.7-4.8,0.6c-1.9-0.1-4.4-0.9-5.7-2.4c-3.5-4.1-4.7-9.1-4.1-14.5
		C1711.7,673,1715.2,670.7,1718.2,668.3z"/>
	<path style="fill:#65A3E2;" d="M1881.2,625.6c8.3-1.2,69.1-2.4,73.6,0.5l0.2,2.5l-3,3.2c-8.8,2.5-57.1,1.1-68.3,0.4
		C1881.2,629.9,1881.7,628.8,1881.2,625.6z"/>
	<path style="fill:#65A3E2;" d="M1881.3,679.3c1.5-0.2,3-0.5,4.6-0.5c9.3-0.4,63.7-2.5,68.9,2.4l-0.2,2.5l-3,2.4
		c-19.2,0.2-50.6,2.8-68.7-0.7C1880.9,683.1,1881.4,682.2,1881.3,679.3z"/>
	<path style="fill:#5A8FCD;" d="M1881.3,571.9c8.1-1.5,69.2-2.4,73.4,0.5l0.1,2.5l-2.9,3.1c-10.5,2.6-55.9,1.1-68,0.2
		C1881.4,576.1,1881.8,575.1,1881.3,571.9z"/>
	<path style="fill:#5A8FCD;" d="M1762.3,517c12.8-0.5,90.8-1.7,98.1,0.4c2,0.6,1.7,0.9,2.7,2.6l-2.6,3.1c-3.6,1.9-88,1.6-96.8,0.4
		C1761.8,521.2,1762.3,519.9,1762.3,517z"/>
	<path style="fill:#65A3E2;" d="M1761.6,679.3c10.8-1.5,97.6-1.8,101.3,1l0.3,2l-2.8,3.2c-0.5,0.1-1,0.3-1.5,0.4
		c-7.5,1.8-92.1,1.4-96.3-1.1L1761.6,679.3z"/>
	<path style="fill:#5A8FCD;" d="M1760.9,571.9c13.4-2,28.1-0.9,41.6-0.9c19.1-0.1,38.6-0.8,57.6,0.4c2.1,1.3,2.4,1.1,3,3.5l-2.7,3.2
		c-0.3,0.1-0.6,0.2-0.9,0.3c-5,1.2-92.5,1.1-95.4,0c-0.8-0.3-1.4-0.9-2.2-1.4L1760.9,571.9z"/>
	<path style="fill:#65A3E2;" d="M1760.7,625.6c7.9-2.1,93.3-2.5,100.3-0.5c1.9,0.5,1.5,0.7,2.3,2.3l-2.1,3.9c-5,3-84.3,1.1-96.5,0.9
		C1761.9,630.4,1761.9,628.7,1760.7,625.6z"/>
</g>
</svg>
