<?xml version="1.0" encoding="utf-8"?>
<!-- Generator: Adobe Illustrator 27.5.0, SVG Export Plug-In . SVG Version: 6.00 Build 0)  -->
<svg version="1.1" id="Layer_1" xmlns="http://www.w3.org/2000/svg" xmlns:xlink="http://www.w3.org/1999/xlink" x="0px" y="0px"
	 viewBox="0 0 6248 4999" style="enable-background:new 0 0 6248 4999;" xml:space="preserve">
<path style="fill:#FFFFFF;" d="M0,0h6242.936c6.785,11.954,5.272,25.186,5.321,38.57l0.049,3900.96l-0.049,793.612
	c0,34.604,4.686,239.298-1.904,258.727c-0.878,2.539-2.051,4.344-3.417,6.736H0V0z"/>
<path style="fill:#2A2626;" d="M2352.014,775.599c38.91-4.242,74.803,1.723,106.923,25.32c1.855,1.344,3.676,2.735,5.462,4.174
	c1.786,1.435,3.537,2.914,5.252,4.437c1.712,1.523,3.386,3.088,5.023,4.696c1.637,1.608,3.232,3.254,4.784,4.94
	c1.552,1.686,3.064,3.409,4.535,5.169c1.468,1.761,2.89,3.557,4.266,5.389c1.38,1.832,2.712,3.697,3.998,5.594
	c1.285,1.897,2.523,3.827,3.715,5.789c1.191,1.959,2.332,3.946,3.422,5.96c1.091,2.018,2.132,4.061,3.124,6.131
	c0.989,2.067,1.927,4.157,2.812,6.273c0.885,2.115,1.718,4.25,2.499,6.404c0.778,2.158,1.503,4.333,2.177,6.526
	c0.67,2.19,1.285,4.397,1.845,6.619c0.563,2.223,1.071,4.458,1.523,6.707c0.449,2.249,0.843,4.507,1.181,6.775
	c6.034,42.146-7.503,76.634-32.061,110.057c28.674,28.161,107.988,97.165,124.272,128.729l-3.837,3.066
	c-22.796-5.545-48.585-38.505-65.167-54.916c-22.181-21.259-43.606-43.44-65.333-65.177c-18.76,16.577-37.87,28.576-62.224,35.244
	c-2.268,0.625-4.551,1.193-6.849,1.704c-2.297,0.511-4.606,0.963-6.927,1.357c-2.32,0.394-4.649,0.73-6.986,1.01
	c-2.336,0.277-4.678,0.496-7.024,0.659c-2.346,0.159-4.696,0.262-7.049,0.307c-2.353,0.042-4.706,0.026-7.059-0.049
	c-2.353-0.072-4.703-0.203-7.049-0.395c-2.343-0.192-4.681-0.443-7.015-0.752c-2.333-0.306-4.657-0.672-6.971-1.098
	c-2.314-0.423-4.616-0.905-6.907-1.445s-4.567-1.137-6.829-1.792c-2.259-0.654-4.501-1.364-6.727-2.128
	c-2.226-0.768-4.431-1.59-6.614-2.465c-2.184-0.875-4.344-1.804-6.483-2.787c-2.138-0.986-4.25-2.024-6.336-3.114
	c-2.086-1.09-4.143-2.231-6.17-3.422c-1.992-1.159-3.954-2.368-5.887-3.627c-1.93-1.259-3.829-2.564-5.697-3.915
	c-1.868-1.354-3.7-2.753-5.496-4.198c-1.796-1.445-3.555-2.934-5.277-4.466c-1.725-1.529-3.409-3.103-5.052-4.72
	c-1.643-1.617-3.246-3.274-4.808-4.969c-1.559-1.696-3.077-3.43-4.554-5.204c-1.474-1.77-2.903-3.578-4.286-5.423
	c-1.386-1.845-2.724-3.723-4.013-5.633c-1.292-1.91-2.535-3.851-3.729-5.823c-1.191-1.972-2.333-3.974-3.427-6.004
	c-1.097-2.027-2.14-4.083-3.129-6.165c-0.992-2.083-1.931-4.188-2.816-6.317c-0.885-2.128-1.718-4.278-2.499-6.448
	c-0.778-2.171-1.502-4.359-2.172-6.565c-0.667-2.206-1.28-4.428-1.84-6.663c-8.977-36.679-3.085-77.542,17.183-109.564
	C2276.528,803.345,2311.503,785.103,2352.014,775.599z"/>
<path style="fill:#D6E5F4;" d="M2366.288,788.525c27.517-0.542,53.881,5.775,76.966,21.059c1.722,1.133,3.414,2.306,5.077,3.52
	c1.666,1.214,3.3,2.468,4.901,3.764c1.604,1.295,3.174,2.628,4.71,3.998c1.536,1.37,3.04,2.778,4.51,4.222
	c1.468,1.448,2.9,2.929,4.296,4.442c1.396,1.517,2.753,3.066,4.071,4.647c1.321,1.582,2.602,3.194,3.842,4.838
	c1.243,1.647,2.444,3.321,3.603,5.023c1.159,1.702,2.275,3.433,3.349,5.194c1.074,1.757,2.104,3.541,3.09,5.35
	c0.989,1.806,1.931,3.637,2.826,5.492c0.898,1.855,1.751,3.731,2.558,5.628c0.804,1.897,1.562,3.812,2.275,5.745
	c0.709,1.933,1.372,3.884,1.987,5.853c0.618,1.966,1.186,3.944,1.704,5.936c0.521,1.995,0.991,4.001,1.411,6.019
	c0.387,2.011,0.724,4.03,1.01,6.058c0.29,2.028,0.529,4.06,0.718,6.097c0.185,2.04,0.322,4.082,0.41,6.126
	c0.088,2.047,0.125,4.094,0.112,6.141c-0.013,2.047-0.076,4.094-0.19,6.141c-0.114,2.044-0.278,4.084-0.493,6.121
	c-0.215,2.034-0.479,4.063-0.791,6.087c-0.316,2.024-0.68,4.039-1.093,6.043c-0.413,2.005-0.875,4-1.386,5.985
	c-0.511,1.982-1.071,3.951-1.679,5.907c-0.609,1.953-1.264,3.891-1.967,5.814c-0.703,1.923-1.453,3.829-2.25,5.716
	c-0.797,1.884-1.64,3.749-2.529,5.594c-0.889,1.845-1.823,3.666-2.802,5.462c-0.979,1.8-2.001,3.573-3.065,5.321
	c-1.068,1.751-2.176,3.472-3.324,5.165c-22.338,33.003-52.52,47.667-90.663,54.907c-31.939-0.185-59.891-4.33-86.851-22.704
	c-1.663-1.12-3.297-2.28-4.901-3.48c-1.607-1.201-3.183-2.442-4.725-3.725c-1.542-1.279-3.052-2.597-4.53-3.954
	c-1.474-1.357-2.916-2.75-4.325-4.179c-1.406-1.429-2.776-2.891-4.11-4.388s-2.63-3.026-3.886-4.589
	c-1.256-1.562-2.473-3.155-3.651-4.779c-1.175-1.624-2.31-3.276-3.407-4.955c-1.094-1.683-2.145-3.39-3.153-5.121
	c-1.009-1.734-1.974-3.492-2.895-5.272c-0.921-1.783-1.796-3.588-2.626-5.414c-0.83-1.822-1.613-3.666-2.348-5.531
	c-0.739-1.865-1.43-3.747-2.074-5.648c-0.641-1.9-1.235-3.816-1.782-5.745c-0.55-1.927-1.049-3.868-1.499-5.824
	c-0.449-1.953-0.849-3.917-1.201-5.892c-0.345-2.047-0.638-4.102-0.879-6.165c-0.244-2.06-0.436-4.125-0.576-6.195
	c-0.143-2.073-0.234-4.146-0.273-6.219c-0.039-2.076-0.028-4.152,0.034-6.229c0.062-2.073,0.174-4.144,0.337-6.214
	c0.163-2.07,0.376-4.135,0.64-6.194c0.263-2.057,0.579-4.107,0.947-6.151c0.365-2.044,0.778-4.078,1.24-6.102
	c0.465-2.021,0.98-4.03,1.542-6.029c0.563-1.998,1.175-3.982,1.835-5.951c0.66-1.969,1.37-3.92,2.128-5.853
	c0.755-1.933,1.557-3.846,2.406-5.74c0.849-1.891,1.746-3.762,2.69-5.614c0.94-1.849,1.927-3.674,2.958-5.477
	c1.028-1.8,2.102-3.575,3.222-5.326c1.12-1.748,2.28-3.467,3.481-5.16C2294.584,809.579,2327.768,794.72,2366.288,788.525z"/>
<path style="fill:#8A9FCE;" d="M4145.981,912.821c35.63-4.149,70.723,1.113,101.803,19.692
	c31.993,19.125,52.827,49.591,61.277,85.694c0.566,2.363,1.074,4.738,1.523,7.127c0.446,2.385,0.833,4.782,1.162,7.19
	c0.329,2.408,0.597,4.823,0.805,7.244c0.205,2.418,0.352,4.841,0.439,7.268c0.084,2.428,0.109,4.857,0.073,7.288
	c-0.032,2.428-0.129,4.854-0.288,7.278c-0.156,2.425-0.373,4.844-0.649,7.259c-0.277,2.415-0.615,4.82-1.015,7.215
	c-0.397,2.395-0.854,4.781-1.372,7.156c-0.517,2.372-1.093,4.732-1.728,7.078c-0.635,2.343-1.328,4.67-2.08,6.98
	c-0.752,2.311-1.561,4.602-2.426,6.873c-0.865,2.268-1.789,4.514-2.768,6.736c-0.977,2.226-2.01,4.424-3.1,6.595
	c-1.086,2.174-2.228,4.317-3.422,6.429c-1.197,2.115-2.445,4.2-3.744,6.253c-23.465,37.036-58.943,57.089-100.919,66.354
	c-31.969,3.798-61.912-0.176-90.356-15.84c-33.443-18.413-60.198-50.543-70.478-87.5c-0.612-2.278-1.167-4.569-1.665-6.873
	c-0.498-2.304-0.939-4.619-1.323-6.946c-0.384-2.327-0.709-4.662-0.976-7.005c-0.27-2.343-0.481-4.691-0.635-7.044
	c-0.153-2.353-0.249-4.709-0.288-7.068c-0.036-2.356-0.015-4.714,0.063-7.073c0.081-2.356,0.219-4.709,0.415-7.059
	c0.195-2.349,0.449-4.693,0.762-7.029c0.309-2.34,0.677-4.668,1.103-6.985c0.426-2.32,0.91-4.628,1.45-6.922
	c0.541-2.297,1.135-4.579,1.787-6.844c0.651-2.265,1.359-4.514,2.123-6.746c0.761-2.232,1.579-4.444,2.45-6.634
	c0.872-2.19,1.798-4.357,2.778-6.502c0.979-2.148,2.011-4.268,3.095-6.361c1.083-2.096,2.218-4.162,3.402-6.199
	C4066.624,943.331,4101.985,924.273,4145.981,912.821z"/>
<path style="fill:#D6E5F4;" d="M4145.171,928.218c29.933-2.206,56.971-0.488,84.308,13.273
	c28.679,14.439,50.996,38.681,61.111,69.361c0.68,2.092,1.306,4.201,1.879,6.326c0.576,2.122,1.097,4.258,1.562,6.409
	c0.469,2.151,0.882,4.312,1.24,6.483c0.361,2.171,0.667,4.349,0.917,6.536c0.25,2.184,0.446,4.374,0.586,6.57
	c0.143,2.197,0.229,4.395,0.259,6.595c0.033,2.2,0.008,4.4-0.073,6.6c-0.078,2.197-0.211,4.392-0.4,6.585
	c-0.188,2.193-0.432,4.379-0.727,6.556c-0.299,2.18-0.652,4.353-1.06,6.517c-0.407,2.161-0.865,4.312-1.376,6.453
	c-0.514,2.138-1.082,4.263-1.704,6.375c-0.622,2.112-1.294,4.206-2.016,6.282c-0.726,2.076-1.502,4.135-2.328,6.175
	c-0.83,2.037-1.708,4.053-2.636,6.048s-1.905,3.965-2.934,5.911c-19.687,36.996-51.124,55.648-89.96,67.715
	c-28.762,3.549-54.267,1.303-80.402-12.179c-31.095-16.05-56.385-44.763-66.51-78.445c-9.509-31.642-4.789-65.802,10.9-94.666
	C4075.42,959.605,4106.701,939.63,4145.171,928.218z"/>
<path style="fill:#6375B7;" d="M5427.246,1670.74c4.539-0.454,6.004,0.884,10.055,2.719
	c28.166,41.4,202.385,305.281,203.801,326.271c-69.268-1.835-138.877-0.644-208.194-0.766l-217.419,0.054
	C5234.428,1984.046,5424.561,1685.887,5427.246,1670.74z"/>
<path style="fill:#D6E5F4;" d="M5429.1,1707.385c2.979,1.015,5.516,1.713,7.86,4.003c17.866,17.534,167.482,252.068,167.97,269.554
	l-175.098-0.122l-183.249-0.229C5274.944,1961.689,5402.691,1751.977,5429.1,1707.385z"/>
<path style="fill:#D6E5F4;" d="M674.724,1728.136l0.278,1382.568c-0.117,198.299,3.251,397.223,0.02,595.444
	c-1.108-0.625-2.241-1.211-3.324-1.879c-23.348-14.366-42.156-71.884-53.183-97.166c-63.244-145.013-117.897-297.28-153.465-451.68
	c-15.846-68.784-24.557-138.98-39.831-207.603c-1.903-0.854-5.689-2.485-7.362-3.539c-15.152-9.553,3.581-70.093,3.855-86.47
	c0.281-16.719-7.899-30.26-8.591-46.808c-1.139-27.2,12.068-56.669,8.583-82.296c-1.125-8.274-4.932-15.928-6.878-23.988
	c-7.227-29.943,6.301-60.793,6.276-90.478c-0.014-16.294-6.461-32.394-7.417-48.79c-1.377-23.612,3.097-47.111,4.452-70.645
	c1.155-20.048-10.578-82.833-2.457-94.964c2.643-3.949,5.954-7.454,7.383-12.101c4.633-15.074,4.49-33.618,7.162-49.385
	c4.273-25.208,10.371-50.045,16.527-74.842c38.648-155.699,89.731-303.158,167.331-443.826
	C630.932,1789.135,649.76,1752.694,674.724,1728.136z"/>
<path style="fill:#2A2626;" d="M674.724,1728.136l0.22-224.063c-0.01-61.565-3.5-121.519,7.937-182.342
	c-5.013-4.457-10.642-7.537-12.287-14.146c7.62-3.559,15.504,2.538,20.346-0.459c7.137-4.413,13.556-16.773,18.574-23.621
	c24.91-33.995,59.456-58.202,100.997-67.047c54.477-11.603,117.98-5.877,173.794-5.946l297.363,0.346l428.674,0.205
	c72.724,0,146.58-2.821,219.153,0.674c17.354,0.84,33.204,3.31,49.542,9.28c37.602,13.731,70.967,46.003,87.685,82.189
	c25.555,55.326,14.713,126.605,15.684,186.305l1892.636-1.254l569.348,0.327l176.342-0.058c34.438,0.02,70.713-1.982,104.883,2.49
	c40.853,5.345,84.244,29.25,113.435,57.816c56.479,55.239,66.729,121.094,66.925,196.625l0.244,514.568
	c0.048,84.615,4.735,172.081-0.146,256.408c-0.44,7.259-0.684,12.555-4.735,18.877c145.467,0.01,291.471-2.724,436.89,0.073
	c2.733,4.95,4.54,8.592,4.979,14.356c3.417,46.769,4.882,490.024-0.585,506.509c-0.586,1.708-2.001,3.998-2.782,5.453
	c48.863-0.259,187.691-6.59,225.914,1.22c14.645,2.987,28.947,8.201,39.979,18.667c17.866,16.992,17.915,44.914,17.622,67.886
	c-0.292,26.99,2.343,155.84-6.004,170.221c38.271-0.698,90.454-9.963,119.742,20.053c9.519,9.782,10.446,39.345,11.081,52.466
	c3.124,69.014,0.292,139.434,0.292,208.57l-0.195,407.484l0.341,311.48c0.098,54.614,3.076,111.053-0.879,165.481
	c-2.782,38.622-15.914,66.837-45.836,92.05c-4.491,3.808-9.275,7.293-13.961,10.832c-18.354,13.712-42.175,14.903-64.386,16.299
	c-39.687,2.504-80.3,0.713-120.083,0.679l-218.689-0.186l-676.09-0.024l-2112.394-0.171l-1232.376-0.078l-337.162,0.107
	c-58.709,0.161-124.208,6.18-181.868-2.924c-52.329-8.265-97.819-38.314-128.201-81.34c-22.826-32.325-33.794-67.94-42.625-106.098
	c-3.773-16.294,3.158-83.8,2.919-107.011l-0.81-402.822c-0.015-65.426,3.388-133.215-1.147-198.392
	c3.232-198.221-0.137-397.145-0.02-595.444L674.724,1728.136z"/>
<path style="fill:#6375B7;" d="M4432.854,2695.742l127.616-0.615l0.044,117.794l-125.058-0.083
	C4435.579,2773.899,4437.17,2734.496,4432.854,2695.742z"/>
<path style="fill:#A2B4DC;" d="M3080.322,2808.826c152.677-4.525,306.379,1.015,459.213,0.19
	c-0.234,98.781,0.028,197.557,0.786,296.328l-100.851,1.118l-41.473-40.277c-49.444-48.073-97.131-99.42-148.923-144.852
	c-51.958,40.692-126.439,122.993-173.765,173.091C3075.001,3054.24,3068.094,2826.75,3080.322,2808.826z"/>
<path style="fill:#2A2626;" d="M3433.685,2868.784c9.963,0.571,19.111,1.406,28.288,5.653c14.781,6.839,26.345,18.999,31.427,34.566
	c0.605,1.868,1.113,3.762,1.523,5.682c0.41,1.92,0.721,3.855,0.932,5.804c0.211,1.953,0.32,3.911,0.327,5.877
	c0.006,1.962-0.088,3.92-0.283,5.872c-0.192,1.953-0.486,3.891-0.883,5.814c-0.394,1.923-0.887,3.821-1.479,5.692
	c-0.592,1.874-1.279,3.711-2.06,5.511c-0.781,1.8-1.653,3.555-2.616,5.267c-9.656,17.559-24.364,25.027-42.952,30.197
	c-7.996-0.722-15.343-2.343-22.904-5.125c-15.538-5.721-28.556-17.441-34.717-32.95c-5.906-14.859-4.559-30.909,2.543-45.085
	C3400.194,2882.882,3415.146,2875.574,3433.685,2868.784z"/>
<path style="fill:#FFFFFF;" d="M3426.47,2884.215c7.186-0.942,15.44-1.606,22.635-0.493c10.847,1.679,22.103,9.846,28.107,18.852
	c6.722,10.085,8.323,22.465,5.536,34.161c-4.101,17.207-14.81,25.564-29.23,34.365c-6.531,0-13.366,0.044-19.814-1.05
	c-11.379-1.933-23.041-10.08-29.621-19.413c-0.811-1.136-1.559-2.311-2.246-3.524s-1.308-2.46-1.865-3.739
	c-0.556-1.279-1.045-2.583-1.464-3.91c-0.419-1.331-0.77-2.68-1.049-4.047c-0.28-1.363-0.488-2.74-0.625-4.13s-0.2-2.781-0.19-4.174
	c0.01-1.396,0.091-2.786,0.244-4.169c0.153-1.386,0.379-2.761,0.678-4.125C3401.238,2901.334,3412.222,2893.187,3426.47,2884.215z"
	/>
<path style="fill:#343D95;" d="M3269.415,3844.088c15.245,4.657,139.189,138.047,161.654,161.127l108.67-1.103l0.366,171.612
	l-187.599,0.205c-89.441,0.543-178.884,0.636-268.328,0.278c-1.513-49.263-0.371-98.947-0.434-148.254
	C3146.397,3967.457,3205.863,3903.573,3269.415,3844.088z"/>
<path style="fill:#6375B7;" d="M3084.33,3692.568l455.464,0.151l-0.278,301.659l-102.759,0.337l-41.258-41.873
	c-40.726-41.492-80.724-86.109-125.263-123.462c-60.398,49.859-129.456,128.182-186.13,185.822
	C3082.768,3907.738,3084.232,3800.053,3084.33,3692.568z"/>
<path style="fill:#2A2626;" d="M3444.542,3756.715c8.304-0.713,16.753-1.225,25.027,0.083c15.396,2.426,30.074,12.545,38.417,25.613
	c7.815,12.233,9.973,27.234,6.79,41.312c-5.028,22.22-19.077,33.892-37.616,44.778c-9.782,1.152-19.843,2.016-29.499-0.527
	c-13.971-3.686-27.014-13.488-34.365-25.92c-0.976-1.673-1.866-3.392-2.67-5.155c-0.804-1.764-1.515-3.565-2.133-5.404
	c-0.622-1.835-1.147-3.699-1.577-5.589c-0.433-1.887-0.767-3.793-1.001-5.716c-0.238-1.927-0.376-3.858-0.415-5.794
	c-0.042-1.94,0.015-3.875,0.171-5.804c0.156-1.933,0.41-3.853,0.761-5.76c0.352-1.904,0.799-3.786,1.343-5.647
	C3413.7,3776.763,3426.973,3766.546,3444.542,3756.715z"/>
<path style="fill:#FFFFFF;" d="M3454.222,3765.814c6.351,0.571,13.111,1.377,19.218,3.207c11.174,3.344,21.517,12.301,26.863,22.591
	c5.667,10.905,5.936,23.392,2.133,34.961c-5.956,18.095-18.169,24.925-34.053,32.872c-5.658,0.073-11.384-0.776-16.866-2.192
	c-11.911-3.07-22.523-11.725-28.332-22.538c-6.39-11.881-6.624-25.588-2.202-38.188
	C3426.792,3779.966,3438.869,3772.507,3454.222,3765.814z"/>
<path style="fill:#6375B7;" d="M3246.667,2937.374c15.186,3.036,159.394,152.492,187.374,179.33
	c35.342-1.748,71.118-0.917,106.518-1.142l-0.425,166.335l-172.696,0.43c-97.209,0.68-194.42,0.752-291.633,0.215
	c-1.494-58.026-0.088-116.442,0.02-174.507C3129.18,3048.344,3189.408,2993.291,3246.667,2937.374z"/>
<path style="fill:#F28A20;" d="M5718.814,3336.974c20.404-2.817,47.203-4.154,67.608-1.948c17.231,1.87,29.777,6.795,40.907,20.273
	c9.226,53.96,4.734,112.781,4.637,167.507l-0.78,263.877l-0.44,453.135c0,77.444,2.441,155.796-0.537,233.153
	c-0.732,18.149-0.927,36.527-9.08,53.183c-12.057,24.632-34.268,44.939-60.237,53.735c-17.281,15.763-82.155,7.781-104.854,6.922
	c20.794-10.236,36.513-23.158,48.57-42.996c2.278-3.771,4.328-7.667,6.151-11.686c1.822-4.02,3.4-8.134,4.735-12.346
	c1.334-4.21,2.409-8.485,3.222-12.823c0.781-4.338,1.318-8.71,1.61-13.116c5.418-86.685,0.928-176.328,1.074-263.359v-527.323
	l-0.292-248.251C5721.108,3418.973,5726.868,3371.647,5718.814,3336.974z"/>
<path style="fill:#8A9FCE;" d="M3028.276,2689.953l514.866-1.343c-4.754,37.24-3.52,75.013-3.471,112.493l-299.716-0.635
	c-54.765-0.078-112.43-3.783-166.848,1.469l1.621,2.953l-3.92-0.41c-0.791,2.128-1.069,2.695-1.611,5.209
	c-7.757,35.8-4.31,76.804-4.281,113.391l0.244,161.371c0.127,60.501-4.906,130.984,1.103,190.44
	c0.571,5.624,1.733,8.416,4.745,13.068c19.111,10.265,159.384,3.973,191.045,3.778l278.042-0.151l-0.488,119.679l-592.545-0.781
	l0.073-719.98C2974.165,2690.675,3001.242,2690.153,3028.276,2689.953z"/>
<path style="fill:#F28A20;" d="M5441.841,3077.579c31.095-3.534,219.47-3.661,239.484,5.731
	c10.788,5.087,16.45,18.193,19.672,28.962c11.569,38.222,4.051,206.759,4.198,258.922l0.049,774.071
	c-0.293,110.086,4.979,221.71,0.439,331.563c-0.83,19.335-3.417,37.67-12.936,54.858c-12.741,23.041-31.729,39.193-57.259,46.271
	c-20.307,16.006-66.778,10.612-91.82,10.3c7.273-3.466,13.863-7.581,19.965-12.848c28.117-24.212,37.587-55.214,39.345-91.098
	c3.319-66.319-0.586-134.479-1.025-200.945l-0.488-363.068l0.098-296.28c0-46.769,3.808-97.771-0.83-144.134
	c-1.221-12.355-6.102-24.495-14.839-33.487c-28.947-29.816-107.392-18.349-146.688-17.881
	C5447.698,3414.194,5447.113,3109.059,5441.841,3077.579z"/>
<path style="fill:#6375B7;" d="M837.667,1230.745c12.155-0.942,24.725-0.713,36.923-0.888
	c239.611-3.407,479.778,0.117,719.438,0.156l228.847,0.024c39.76,0.034,83.707-3.31,122.915,2.763
	c28.044,4.344,56.391,18.881,76.507,38.832c55.663,55.195,41.219,148.108,40.989,219.319c-97.375-3.026-195.277-1.113-292.716-1.235
	l-573.18,0.044c-98.317,0.02-200.115-5.292-297.944,1.46c-23.943,1.655-49.234,5.042-71.684,13.927
	c-69.234,27.395-106.23,78.172-135.284,143.925l-0.356-178.051c0.093-38.793-2.968-81.164,5.521-119.229
	c1.24-5.656,2.794-11.226,4.662-16.709c1.871-5.48,4.045-10.839,6.522-16.075c2.477-5.233,5.239-10.311,8.289-15.235
	c3.049-4.924,6.367-9.659,9.953-14.205C755.185,1253.664,793.26,1236.53,837.667,1230.745z"/>
<path style="fill:#F28A20;" d="M3634.674,2634.377c12.809-0.794,25.629-1.263,38.461-1.406
	c149.787-1.674,299.672,0.747,449.469,0.488l142.329-0.454c27.092-0.083,57-2.299,83.741,1.943
	c17.295,2.743,33.707,13.488,45.954,25.813c40.506,40.75,28.952,113.753,28.137,166.321c45.832,1.684,91.869,1.069,137.735,1.269
	l0.376,600.413l-73.52-0.649l-0.049-69.024c-0.376-15.162-1.347-31.036-4.808-45.842c-8.987-38.475-31.52-62.995-64.181-83.561
	c-16.275-10.246-39.257-11.745-58.128-13.058c-47.335-3.29-96.106-1.059-143.593-1.089l-267.909-0.127h-184.899
	c-37.431,0.005-77.781-2.626-114.792,3.119c-41.18,6.39-68.385,35.766-91.967,67.486c-0.015-85.347-11.506-558.408,9.895-601.399
	C3581.007,2656.329,3606.303,2643.769,3634.674,2634.377z"/>
<path style="fill:#FFFFFF;" d="M4587.025,2549.708c278.296-4.095,557.242,0.981,835.631,1.264c2.831,5.604,4.247,9.88,4.54,16.197
	c2.294,58.924,0.537,118.644,0.488,177.646l-0.146,333.379l0.39,217.273c0.195,42.801,2.539,86.597-1.171,129.183
	c-6.248,4.008-10.983,3.134-18.257,3.402l-832.184,0.024l0.039-594.341c0.063-88.384-4.179-181.112-0.513-268.675
	c0.229-5.487,0.874-8.991,3.813-13.751L4587.025,2549.708z"/>
<path style="fill:#2A2626;" d="M4706.396,3107.38c131.648-3.602,264.433-0.498,396.184-0.566
	c36.513-0.015,153.326-5.511,182.371,2.167l1.025,4.447l-5.663,6.907c-41.297,6.883-150.495,1.318-198.041,1.211
	c-115.593-0.254-232.372,3.671-347.769,0.576c-9.031-0.239-17.51-0.029-25.755-4.139L4706.396,3107.38z"/>
<path style="fill:#2A2626;" d="M4706.196,2982.083l398.727-0.093c44.08-0.098,136.924-7.132,175.927,1.26
	c3.369,0.722,3.271,2.118,5.028,4.862l-5.565,7.112c-10.202,3.485-492.5,3.895-541.714,2.441
	c-10.383-0.308-20.136-0.093-29.65-4.652L4706.196,2982.083z"/>
<path style="fill:#2A2626;" d="M4705.923,2856.913c93.358-3.5,187.926-0.732,281.406-0.634c92.21,0.093,184.861-2.392,276.974-0.732
	c8.786,0.161,15.571,0.132,21.771,6.585l-5.175,7.976c-0.878,0.288-1.806,0.649-2.733,0.869
	c-26.945,6.434-76.004,1.088-105.244,1.02l-294.014-0.615c-25.037,0.029-157.032,5.306-170.568-2.587L4705.923,2856.913z"/>
<path style="fill:#2A2626;" d="M4701.237,2738.342c40.58-2.612,574.097-3.549,581.664-0.537c1.904,0.751,3.173,2.587,4.735,3.881
	l-2.05,6.937l-3.222,2.729c-29.533,5.135-561.655,4.017-577.373-2.236L4701.237,2738.342z"/>
<path style="fill:#F28A20;" d="M3662.152,3232.809c4.437-0.259,8.84-0.405,13.282-0.512c151.408-3.759,303.416-0.547,454.912-0.669
	c67.92-0.054,183.899-6.917,245.913,2.256c2.746,0.39,5.475,0.888,8.186,1.493c2.708,0.605,5.387,1.315,8.04,2.128
	c2.652,0.817,5.269,1.734,7.85,2.753s5.117,2.138,7.61,3.359c2.496,1.217,4.938,2.531,7.327,3.944
	c2.392,1.409,4.724,2.909,6.995,4.501c2.271,1.594,4.478,3.274,6.62,5.038c2.142,1.767,4.211,3.614,6.209,5.541
	c47.926,46.706,35.181,119.82,35.459,180.648c81.93,4.135,166.545-0.156,248.725-0.01l542.388-0.244l177.148-0.547
	c34.072-0.083,70.146-2.241,104.023,1.44c10.69,1.167,22.991,4.686,30.997,12.374c11.374,10.974,12.106,35.586,12.594,50.64
	c2.538,74.838,0,150.432-0.146,225.343l0.146,410.33l0.635,235.169c0.244,41.141,3.856,85.923-1.416,126.713
	c-2.636,20.141-11.326,37.787-25.628,52.3c-22.552,22.933-50.083,30.65-81.374,30.885l-1172.749,0.19l-420.078-0.156
	c-71.948-0.063-145.536,3.002-217.318-0.879c-17.085-0.922-44.021-3.451-58.582-13.097c-24.642-16.319-44.001-40.643-50.386-69.81
	c-7.146-32.652-2.284-74.994-2.328-108.881l-0.376-232.943c-1.334-183.992-1.469-367.981-0.405-551.97
	c0.278-87.495-4.506-178.193,1.899-265.292c1.548-21.098,9.665-40.565,21.2-58.197
	C3599.435,3256.196,3627.025,3240.004,3662.152,3232.809z"/>
<path style="fill:#FFFFFF;" d="M3596.804,4587.074c-8.542,0.674-17.098,1.097-25.667,1.27
	c-71.933,2.128-144.247,0.224-216.234-0.063l-360.973-0.581l-1170.616,0.839l-652.504-0.518l-202.526-0.048
	c-36.411-0.024-74.808,2.47-110.897-1.459c-39.745-4.325-75.072-21.854-103.775-49.439c-45.969-44.167-59.822-94.476-60.994-156.553
	c-3.041-161.054,0.512-322.805,0.156-483.942l-0.561-1277.021l0.107-623l-0.215-182.063c-0.054-39.72-1.84-80.383,3.021-119.84
	c5.985-48.57,28.322-92.957,62.517-127.865c47.296-48.282,100.758-62.165,166.082-62.956c284.94-3.432,570.383,0.005,855.372,0.044
	l1714.014,0.371l877.377-0.039l281.025-0.391c50.533-0.073,103.233-3.041,153.512,1.606c47.082,4.349,89.995,23.812,123.676,57.264
	c27.727,27.522,48.131,65.368,55.502,103.755c11.423,59.1,4.101,203.347,4.101,270.364l0.342,598.588l-247.05-0.21
	c-1.586-81.598-0.176-163.392-0.933-245.029l-4.032-35.898c-5.038,93.602-0.352,187.965-2.036,281.708l-168.459,0.215l-4.339,33.028
	l-400.191,0.146c-62.932,0.132-131.14,6.263-193.222-0.469c-4.408-4.965-8.44-9.792-12.272-15.211
	c0.098,7.615-1.045,17.671,3.192,24.129c58.011,5.443,119.547,1.323,177.89,1.289c140.962-0.083,282.758-3.144,423.583,1.582
	l0.03,105.781l-130.921,0.903c-19.091-31.983-41.858-59.857-79.373-70.073c-30.396-8.274-208.072-2.782-250.96-2.904l-310.548-0.811
	c-51.846,0.156-106.372-2.753-157.827,3.178c-14.473,1.665-29.411,7.913-41.648,15.762c-19.409,12.443-32.003,29.933-42.508,50.054
	l-605.934,0.478l-0.034,734.888l598.485,0.757c0.02,45.027-0.556,90.136,0.108,135.153c-7.581,1.298-15.098,2.777-22.796,3.124
	l9.612,0.298l-2.704,0.727c7.308,2.221,11.623,2.216,16.343,8.396c3.539,38.539,1.244,78.074,0.552,116.759l-465.192-0.322
	c-3.305,56.522-8.684,467.526,3.373,500.437c42.532,7.952,100.914,1.889,145.199,1.826c105.843,0.42,211.682,0.042,317.519-1.133
	l1.337,208.921c0.044,33.858,2.133,69.805-1.191,103.423c0.049,1.645,0.059,3.295,0.147,4.94
	C3543.884,4537.65,3571.474,4564.429,3596.804,4587.074z"/>
<path style="fill:#28266C;" d="M2940.961,3554.423l395.09-1.562c66.119-0.337,138.013-6.048,203.595,0.981
	c-7.581,1.298-15.098,2.777-22.796,3.124l9.612,0.298l-2.704,0.727c7.308,2.221,11.623,2.216,16.343,8.396
	c3.539,38.539,1.244,78.074,0.552,116.759l-465.192-0.322c-3.305,56.522-8.684,467.526,3.373,500.437
	c42.532,7.952,100.914,1.889,145.199,1.826c105.843,0.42,211.682,0.042,317.519-1.133l1.337,208.921
	c0.044,33.858,2.133,69.805-1.191,103.423c-8.381-43.704-2.182-146.59-1.913-196.869l-598.866-0.351
	C2937.227,4051.072,2940.761,3802.489,2940.961,3554.423z"/>
<path style="fill:#6375B7;" d="M1951.975,2681.839l757.674,0.01l-0.439,736.972l-758.123-0.21L1951.975,2681.839z"/>
<path style="fill:#FFFFFF;" d="M2440.828,2897.014c6.463-0.156,13.322-0.576,19.711,0.551c11.291,1.997,23.475,10.432,29.64,20.024
	c6.302,9.817,7.576,21.947,4.247,33.033c-4.696,15.621-16.05,24.51-29.645,32.266c-5.858,0.439-12.087,1.04-17.939,0.381
	c-11.027-1.245-23.333-9.621-29.342-18.803c-6.268-9.582-7.601-21.674-5.126-32.715
	C2416.279,2914.338,2426.442,2906.201,2440.828,2897.014z"/>
<path style="fill:#2A2626;" d="M1952.072,1822.294l757.494-0.386c-1.987,248.417,4.408,497.41-0.742,745.715
	c-252.319,1.168-504.639,0.98-756.962-0.566C1953.635,2318.874,1948.172,2070.408,1952.072,1822.294z"/>
<path style="fill:#8A9FCE;" d="M1959.048,1830.387c129.422,1.367,259.019-0.205,388.456-0.307
	c118.44,0.569,236.88,0.34,355.321-0.688l-0.049,729.85c-85.987-3.041-172.876-0.801-258.956-0.81l-484.503-0.503L1959.048,1830.387
	z"/>
<path style="fill:#6375B7;" d="M2529.978,1942.378c11.188-1.318,23.074-3.173,34.282-1.479c9.153,1.382,13.897,4.462,19.052,11.725
	c4.564,31.139,1.84,65.05,1.62,96.536l-1.884,174.448c-1.05,61.467,2.597,123.847-0.454,185.153
	c-0.488,9.787-1.157,18.672-4.959,27.829c-5.574,3.51-9.734,4.72-16.333,5.14c-48.375,3.07-98.454,0.405-147.044,0.39
	l-295.406-0.132c-8.894,0.283-18.716,1.235-27.536,0.249c-8.625-0.962-11.681-3.344-17.383-9.577
	c-2.983-22.362-0.747-46.379-1.04-68.975c-0.601-46.057-1.86-92.006-1.962-138.086c-0.19-88.261-4.979-179.403,0.464-267.391
	c0.278-4.54,1.391-6.976,3.627-10.832c3.52-2.655,6.033-4.227,10.529-4.657c45.588-4.393,95.686-0.352,141.674-0.361
	L2529.978,1942.378z"/>
<path style="fill:#A2B4DC;" d="M2082.212,1951.501l491.259,0.049v324.373c-24.846-15.494-55.858-39.979-85.909-42.327
	c-20.302-1.586-34.531,7.293-49.6,19.453c-0.942,0.625-1.792,1.425-2.831,1.875c-0.069,0.029-5.526,1.298-5.863,1.171
	c-18.603-6.79-134.181-144.74-172.486-166.98c-59.622,56.454-116.657,116.052-174.57,174.278V1951.501z"/>
<path style="fill:#FFFFFF;" d="M2440.642,2030.967c8.84-0.435,19.575-1.587,28.073,0.927c11.125,3.29,20.614,12.902,25.93,22.948
	c5.677,10.729,6.692,22.87,2.363,34.239c-5.541,14.547-15.26,21.415-29.045,27.424l-28.8-0.219
	c-6.829-6.239-13.912-12.594-19.228-20.224c-6.59-9.47-10.359-21.493-7.537-32.945
	C2416.23,2047.583,2427.985,2039.045,2440.642,2030.967z"/>
<path style="fill:#A2B4DC;" d="M950.999,2681.464l770.61-0.073c0.654,58.47-2.367,117.062-2.45,175.591l-0.005,562.363H950.389
	L950.999,2681.464z"/>
<path style="fill:#2A2626;" d="M1089.422,2802.026c87.246-2.24,175.039-0.293,262.334-0.317
	c80.339-0.024,161.347-2.192,241.603,0.947c2.782,41.419,5.55,476.864-2.206,491.586l-6.971,1.767l-321.282,0.244
	c-57.83,0.093-124.36,7.068-180.863-4.73l-0.01-4.398l-3.48,1.279l2.192,2.441l-2.719-1.377
	c-5.379-17.373-7.156-434.747-2.748-465.275C1076.97,2812.418,1080.651,2809.006,1089.422,2802.026z"/>
<path style="fill:#6375B7;" d="M1259.536,2962.42c58.226,49.864,110.453,106.884,166.306,159.394l158.066-0.381l-0.034,164.993
	l-175.117-0.01l-322.576,0.063c-1.577-49.722-0.449-99.728-0.39-149.479C1146.121,3082.118,1201.515,3019.89,1259.536,2962.42z"/>
<path style="fill:#A2B4DC;" d="M1086.713,2813.634c58.123-2.675,117.057-0.737,175.283-0.766l321.927-0.122l0.508,297.197
	c-28.503-0.054-143.637,6.517-161.874-4.979c-53.32-53.1-106.084-107.328-162.406-157.256
	c-55.317,46.432-123.681,121.162-174.6,174.292C1085.332,3019.826,1081.271,2915.583,1086.713,2813.634z"/>
<path style="fill:#2A2626;" d="M1444.177,2884.014c8.196-0.683,16.016-0.654,24.08,1.23c1.92,0.466,3.812,1.027,5.677,1.684
	c1.865,0.654,3.692,1.401,5.482,2.24s3.534,1.766,5.233,2.778c1.695,1.012,3.337,2.107,4.925,3.285
	c1.588,1.178,3.113,2.433,4.574,3.763c1.464,1.331,2.857,2.73,4.178,4.198c1.321,1.471,2.566,3.004,3.734,4.598
	c1.168,1.595,2.255,3.243,3.261,4.945c0.96,1.67,1.831,3.385,2.612,5.145c0.778,1.76,1.463,3.557,2.055,5.389
	c0.592,1.832,1.087,3.69,1.484,5.574c0.397,1.884,0.695,3.785,0.893,5.702c0.198,1.913,0.296,3.833,0.293,5.76
	c-0.003,1.927-0.107,3.847-0.312,5.76c-0.205,1.914-0.508,3.813-0.908,5.697c-0.403,1.884-0.904,3.741-1.503,5.57
	c-6.536,19.648-20.243,28.996-37.846,37.563c-10.437,1.333-20.224,2.011-30.509-0.815c-13.317-3.656-25.593-12.687-32.222-24.915
	c-7.693-14.195-8.333-30.607-3.471-45.813C1412.496,2902.691,1426.15,2893.592,1444.177,2884.014z"/>
<path style="fill:#FFFFFF;" d="M1443.386,2896.33c6.326-0.308,13.321-0.957,19.614-0.161c11.545,1.469,22.938,9.104,29.831,18.325
	c0.885,1.162,1.707,2.369,2.465,3.622c0.755,1.253,1.442,2.542,2.06,3.866c0.618,1.324,1.164,2.678,1.635,4.061
	c0.475,1.383,0.874,2.789,1.196,4.218c0.319,1.425,0.563,2.865,0.732,4.32c0.166,1.452,0.254,2.91,0.264,4.374
	c0.01,1.461-0.057,2.919-0.2,4.374c-0.146,1.455-0.371,2.898-0.674,4.33c-3.754,17.466-14.4,25.843-29.049,34.522
	c-6.961,1.567-15.372,2.499-22.386,1.069c-11.31-2.299-21.762-9.265-27.819-19.121c-6.331-10.29-7.542-23.436-4.745-35.049
	C1420.263,2912.669,1429.953,2905.127,1443.386,2896.33z"/>
<path style="fill:#F28A20;" d="M1951.418,3551.67l757.977-0.068l-0.181,748.688c-252.127,4.599-505.098,0.288-757.318,0.205
	L1951.418,3551.67z"/>
<path style="fill:#2A2626;" d="M2081.343,3683.703c63.801-2.431,128.621-0.005,192.519,0.034
	c102.253-0.368,204.505-0.199,306.756,0.508c5.115,95.007,0.849,192.47,0.991,287.766c0.088,58.899,5.326,136.056-0.469,193.222
	c-0.962,9.495-1.094,10.7-7.283,18.105l-309.089,0.083c-56.459,0.078-130.047,7.137-184.094-5.252l-0.957-4.882l-2.226,3.515
	c-2.192-3.202-1.669-1.64-2.162-5.252c-3.48-25.618-1.489-53.237-1.401-79.104l0.571-151.56l-1.645-154.996
	c-0.308-26.409-2.421-54.853,0.312-81.115C2074.055,3696.205,2076.218,3690.611,2081.343,3683.703z"/>
<path style="fill:#343D95;" d="M2259.262,3841.023c23.548,7.981,144.94,136.47,169.821,161.268
	c8.943-13.224,18.896-29.704,35.313-34.009c34.854-9.138,59.09,38.778,84.62,42.957c8.42,1.376,12.726-4.452,21.322,0.537
	c9.367,38.046,2.187,118.653,1.713,160.805c-45.988,3.437-92.84,1.508-138.951,1.27c-115.812-0.293-233.358,3.729-348.975-1.577
	c-2.665-51.367-0.752-103.604-0.762-155.069L2259.262,3841.023z"/>
<path style="fill:#A2B4DC;" d="M2083.618,3695.443c162.216-4.906,325.895-0.225,488.262-0.088l0.395,273.127
	c-0.049,11.726,0.908,20.229-7.669,28.723c-33.384,3.622-58.66-41.488-96.428-40.877c-14.644,0.239-24.192,8.46-33.955,18.208
	l-2.621,2.636c-2.626,3.69-2.983,2.997-7.127,4.125c-53.035-53.679-107.291-106.095-162.767-157.246l-110.711,111.458
	c-21.947,22.216-43.586,47.023-68.101,66.329C2082.489,3899.704,2082.729,3797.573,2083.618,3695.443z"/>
<path style="fill:#2A2626;" d="M2451.21,3763.032c9.846,0.518,19.345,1.216,28.615,4.852c14.786,5.809,26.999,17.597,32.598,32.544
	c5.584,14.903,4.276,31.115-2.787,45.271c-9.201,18.452-23.631,26.56-42.2,32.974c-10.632-0.322-20.688-0.659-30.631-4.93
	c-14.615-6.288-26.687-19.038-31.925-34.097c-5.292-15.24-4.047-31.353,3.334-45.661
	C2417.582,3775.845,2432.729,3768.719,2451.21,3763.032z"/>
<path style="fill:#D6E5F4;" d="M2454.198,3775.114c6.619,0.752,13.683,1.928,20.033,3.934c10.954,3.466,20.824,12.711,25.559,23.084
	c5.023,10.998,4.774,23.011,0.454,34.209c-6.571,17.022-18.667,24.627-34.741,31.534c-6.58-0.293-12.995-0.825-19.301-2.87
	c-1.604-0.527-3.178-1.136-4.72-1.826c-1.542-0.69-3.044-1.458-4.506-2.304c-1.464-0.846-2.878-1.767-4.242-2.763
	c-1.367-0.992-2.677-2.055-3.929-3.188c-1.256-1.132-2.449-2.327-3.578-3.583c-1.129-1.256-2.19-2.568-3.183-3.934
	c-0.992-1.367-1.912-2.782-2.758-4.247c-0.846-1.464-1.613-2.968-2.299-4.51c-5.243-12.072-4.959-25.208,0.737-37.07
	C2425.197,3786.028,2438.611,3780.151,2454.198,3775.114z"/>
<path style="fill:#2A2626;" d="M952.034,3554.936c256.201-1.81,512.403-1.816,768.604-0.02l-0.757,744.485
	c-86.138,2.514-172.911,0.352-259.127,0.366l-508.179-0.088C948.436,4051.696,951.229,3802.967,952.034,3554.936z"/>
<path style="fill:#8A9FCE;" d="M959.766,3561.458l754.203,0.039c-4.496,242.828,2.617,486.075-1.245,729.01
	c-26.277,2.816-54.882,0.83-81.379,0.717l-152.628-0.376l-518.127,0.376L959.766,3561.458z"/>
<path style="fill:#2A2626;" d="M1092.918,3684.762c54.13-0.21,483.283-4.388,497.503,5.487c2.372,7.786,2.089,15.601,2.241,23.66
	c1.738,93.587-0.312,187.389,0.224,281.01c0.312,54.589,6.165,114.002-0.288,167.888c-1.352,11.266-4.12,13.951-11.633,21.723
	c-109.628-3.042-219.997-1.03-329.698-0.718c-45.573,0.127-92.718,2.89-138.135-0.044c-8.523-0.552-28.737-2.06-33.584-9.509
	c-3.598-5.526-3.993-12.526-4.344-18.945c-3.759-68.99,0.005-140.337-0.234-209.658c-0.283-81.96-5.292-168.352,2.104-249.808
	C1082.291,3688.063,1084.443,3688.067,1092.918,3684.762z"/>
<path style="fill:#6375B7;" d="M1262.699,3859.523c46.301,31.012,104.092,103.038,152.428,142.035l167.326-0.117
	c0.088,57.264,0.874,114.626-0.835,171.871c-56.288,3.476-114.119,1.054-170.577,0.961c-53.715,0.054-288.801,7.859-323.738-6.629
	c-8.435-33.038-1.792-101.29-1.401-138.379C1143.021,3970.982,1203.365,3915.533,1262.699,3859.523z"/>
<path style="fill:#6375B7;" d="M1086.533,3695.516c164.202-5.291,330.25-0.464,494.627-0.947l0.942,296.45l-162.328-0.088
	c-53.867-47.091-102.725-99.879-156.656-147.175c-61.262,53.891-119.776,112.244-177.045,170.382
	C1085.918,3907.986,1084.4,3801.644,1086.533,3695.516z"/>
<path style="fill:#2A2626;" d="M1443.455,3766.102c8.767-0.635,18.232-0.991,26.814,1.191c14.986,3.802,29.611,15.108,36.542,28.981
	c6.795,13.6,7.571,28.274,2.812,42.649c-6.751,20.395-21.171,29.63-39.31,38.549c-9.773,0.82-19.272,0.864-28.737-2.128
	c-15.103-4.774-28.351-15.845-34.966-30.338c-6.732-14.747-6.951-30.958-0.781-45.944
	C1413.375,3780.722,1426.555,3773.883,1443.455,3766.102z"/>
<path style="fill:#FFFFFF;" d="M1445.861,3778.194c6.878-0.269,14.683-0.361,21.415,1.157c11.501,2.597,22.596,11.203,28.547,21.283
	c6.082,10.31,7.181,22.587,3.617,33.95c-5.233,16.69-17.383,24.261-32.296,31.568c-5.848-0.103-11.979-0.176-17.724-1.298
	c-12.594-2.47-25.057-12.404-31.031-23.631c-0.664-1.253-1.263-2.537-1.796-3.852c-0.534-1.314-0.999-2.652-1.396-4.012
	c-0.397-1.36-0.726-2.739-0.986-4.135c-0.257-1.393-0.444-2.797-0.561-4.212c-0.117-1.412-0.163-2.828-0.137-4.247
	c0.026-1.419,0.124-2.831,0.293-4.237c0.169-1.409,0.41-2.805,0.723-4.188c0.309-1.386,0.688-2.751,1.137-4.095
	C1420.892,3792.32,1431.988,3785.633,1445.861,3778.194z"/>
<path style="fill:#F6A921;" d="M951.448,1821.376c256.276-3.031,513.319-1.552,769.609,0.181
	c2.031,83.302,0.093,167.175,0.078,250.536l-0.122,495.253c-87.066,3.29-175.21,0.62-262.378,0.629l-507.227-0.556l-0.859-476.82
	C950.496,2000.984,948.89,1910.951,951.448,1821.376z"/>
<path style="fill:#2A2626;" d="M1080.245,1940.987l513.065,0.913l1.137,347.584c0.029,35.132,5.662,119.761-3.432,149.773
	c-66.095,6.961-137.686,1.879-204.333,1.923c-90.736,0.059-183.303,3.861-273.859-0.683c-10.954-0.547-29.284-0.4-36.689-8.533
	c-8.879-37.651-2.094-167.014-2.041-216.053c0.093-82.809-4.344-167.151-0.278-249.789
	C1074.275,1956.827,1075.549,1949.256,1080.245,1940.987z"/>
<path style="fill:#6375B7;" d="M1258.716,2098.423c38.915,26.56,121.382,118.004,158.369,156.25l166.833-0.41l-0.107,177.236
	l-175.054-0.103l-323.128-0.259l0.181-159.516C1145.047,2215.925,1201.237,2155.985,1258.716,2098.423z"/>
<path style="fill:#A2B4DC;" d="M1085.884,1950.632l497.766-0.439l0.332,292.467c-30.929,0.22-143.998,6.517-164.397-2.69
	c-51.753-52.69-102.891-109.339-159.907-156.333c-24.07,18.584-45.549,42.508-66.993,64.02
	c-36.308,36.094-72.224,72.574-107.748,109.442C1084.141,2155.658,1079.215,2051.756,1085.884,1950.632z"/>
<path style="fill:#2A2626;" d="M1449.727,2017.342c7.117,0.01,13.907,1.069,20.79,2.929c15.733,4.252,29.85,15.547,37.284,30.084
	c0.872,1.712,1.653,3.466,2.343,5.262c0.687,1.796,1.276,3.624,1.767,5.482c0.495,1.862,0.888,3.742,1.181,5.643
	c0.293,1.901,0.485,3.811,0.576,5.731c0.091,1.92,0.081,3.84-0.029,5.76c-0.114,1.92-0.329,3.829-0.644,5.726
	c-0.316,1.897-0.73,3.772-1.245,5.624c-0.514,1.855-1.126,3.676-1.835,5.462c-7.688,19.458-22.167,28.283-40.506,35.766
	c-9.729,0.264-20.004,0.864-29.391-2.182c-14.273-4.633-26.604-16.138-32.662-29.806c-6.458-14.591-6.024-31.222,0.337-45.749
	C1416.167,2033.724,1431.139,2024.811,1449.727,2017.342z"/>
<path style="fill:#FFFFFF;" d="M1442.918,2032.455c7.161-0.62,15.289-1.63,22.391-0.278c11.579,2.206,22.977,10.388,29.44,20.126
	c6.59,9.934,8.303,22.04,5.394,33.531c-3.92,15.508-14.229,23.114-27.063,31.163c-5.887,0.615-11.959,1.343-17.886,1.137
	c-11.642-0.4-23.133-6.531-30.558-15.367c-7.547-8.992-10.456-20.419-8.738-31.988
	C1418.613,2052.503,1428.6,2042.892,1442.918,2032.455z"/>
<path style="fill:#28266C;" d="M4418.674,1821.948c106.621-5.487,215.652-0.913,322.576-0.615l-0.054,307.258
	c-0.015,53.623,1.875,108.027-0.532,161.566l-4.032-35.898c-5.038,93.602-0.352,187.965-2.036,281.708l-168.459,0.215l-4.339,33.028
	l-400.191,0.146c-62.932,0.132-131.14,6.263-193.222-0.469c-4.408-4.965-8.44-9.792-12.272-15.211
	c-1.569-124.324-2.12-248.648-1.655-372.972c-0.375-119.722-0.083-239.443,0.874-359.162c13.824-0.02,27.645,0.167,41.463,0.561
	C4137.078,1820.966,4278.435,1818.697,4418.674,1821.948z"/>
<path style="fill:#2A2626;" d="M3996.795,1822.104c140.283-1.137,281.64-3.407,421.88-0.156c-3.149,1.879-6.048,3.134-9.675,3.827
	c-60.608,11.52-188.912,5.501-257.179,5.443c-44.382-0.039-92.718,3.768-136.534-1.64
	C4007.446,1828.611,4003.16,1826.692,3996.795,1822.104z"/>
<path style="fill:#2A2626;" d="M4511.011,1939.249c20.297-0.522,83.371-7.454,96.848,4.091
	c7.454,54.179,2.265,113.606,2.485,168.586c1.009,112.608,0.989,225.215-0.059,337.821c-142.358,5.448-286.473,0.844-429.021,0.786
	l-107.363-0.156c4.657-169.567,2.358-340.13,1.787-509.789C4220.798,1941.029,4365.905,1940.583,4511.011,1939.249z"/>
<path style="fill:#343D95;" d="M4266.612,2127.395c20.336,12.409,39.974,32.784,58.191,48.278
	c37.763,32.517,76.025,64.433,114.787,95.75c53.633-2.431,107.612-1.357,161.298-1.445l0.386,170.748l-177.763-0.254l-340.271,0.581
	l0.786-157.7L4266.612,2127.395z"/>
<path style="fill:#6375B7;" d="M4083.45,1950.159l517.639-0.259l-0.322,312.305l-153.365,0.805l-180.326-150.358
	c-61.999,50.694-122.588,103.799-182.615,156.802L4083.45,1950.159z"/>
<path style="fill:#2A2626;" d="M4461.611,2032.494c10.871,0.249,20.79,0.957,30.88,5.418c1.877,0.817,3.708,1.73,5.492,2.739
	c1.783,1.009,3.508,2.107,5.175,3.295c1.666,1.188,3.267,2.46,4.803,3.817c1.533,1.357,2.993,2.789,4.379,4.296
	c1.383,1.51,2.685,3.088,3.905,4.735c1.22,1.643,2.35,3.347,3.388,5.111c1.041,1.764,1.988,3.578,2.841,5.443
	c0.853,1.861,1.605,3.763,2.255,5.706c0.625,1.881,1.154,3.788,1.586,5.721c0.43,1.933,0.761,3.882,0.996,5.848
	c0.234,1.969,0.368,3.943,0.4,5.921c0.033,1.982-0.036,3.96-0.205,5.936c-0.169,1.972-0.436,3.931-0.8,5.877
	c-0.368,1.949-0.833,3.873-1.396,5.77c-0.563,1.9-1.22,3.767-1.972,5.599c-0.752,1.832-1.595,3.622-2.529,5.37
	c-9.597,17.788-23.919,25.769-42.532,31.69c-10.061-0.474-19.745-0.996-29.147-4.974c-15.104-6.395-27.985-18.232-33.946-33.692
	c-0.712-1.855-1.326-3.741-1.84-5.658c-0.517-1.917-0.931-3.856-1.24-5.819s-0.515-3.936-0.615-5.921
	c-0.101-1.982-0.096-3.965,0.015-5.95c0.107-1.982,0.32-3.952,0.639-5.911c0.315-1.962,0.734-3.902,1.255-5.819
	c0.523-1.917,1.145-3.8,1.864-5.648c0.723-1.852,1.539-3.659,2.451-5.423C4427.29,2047.1,4442.754,2039.27,4461.611,2032.494z"/>
<path style="fill:#FFFFFF;" d="M4454.055,2047.783c7.464-1.02,15.762-1.806,23.226-0.713c11.583,1.694,23.299,9.538,30.036,18.974
	c0.839,1.191,1.617,2.421,2.333,3.69c0.713,1.269,1.359,2.571,1.938,3.905c0.579,1.337,1.09,2.7,1.532,4.086
	c0.439,1.39,0.807,2.797,1.104,4.222s0.517,2.862,0.664,4.31c0.15,1.451,0.225,2.905,0.225,4.359c0,1.458-0.077,2.911-0.229,4.359
	c-0.15,1.448-0.373,2.885-0.669,4.31c-3.598,18.125-14.527,27.234-29.171,36.65c-7.527,0.981-15.616,1.757-23.133,0.337
	c-11.652-2.207-23.246-9.988-29.953-19.707c-6.775-9.821-8.87-21.678-6.531-33.35
	C4428.945,2065.659,4440.006,2057.131,4454.055,2047.783z"/>
<path style="fill:#28266C;" d="M2940.019,1821.606l774.296-1.079l0.449,751.89l-773.529-3.29
	c-6.355-108.529-1.928-219.314-2.016-328.141C2939.106,2101.381,2935.753,1961.084,2940.019,1821.606z"/>
<path style="fill:#2A2626;" d="M3070.325,1941.943c174.567-1.601,349.136-2.24,523.706-1.918
	c-0.044,57.093,5.662,482.068-3.983,502.453c-60.94,5.887-125.99,1.518-187.453,1.616c-111.463,0.609-222.925,0.519-334.385-0.268
	c-6.482-63.85-0.908-133.361-0.195-197.797C3069.134,2144.69,3068.319,2043.263,3070.325,1941.943z"/>
<path style="fill:#343D95;" d="M3259.52,2101.645c27.961,15.372,157.324,155.323,195.937,190l129.891-0.552l-0.254,143.393
	l-173.418,0.117l-334.492,0.283c-0.693-51.026,0.039-102.188,0.103-153.224C3140.554,2224.438,3199.712,2162.438,3259.52,2101.645z"
	/>
<path style="fill:#6375B7;" d="M3078.423,1950.315l506.446-0.966l0.225,332.978l-124.579-0.234l-26.282-23.26
	c-56.815-58.031-112.942-117.589-172.808-172.462c-62.219,56.732-116.715,128.016-183.762,178.573
	C3076.768,2160.12,3078.14,2055.149,3078.423,1950.315z"/>
<path style="fill:#2A2626;" d="M3447.744,2020.398c10.178-0.966,20.326-1.586,30.363,0.903c14.791,3.671,28.254,14.649,35.107,28.22
	c0.788,1.595,1.497,3.223,2.129,4.886c0.628,1.663,1.174,3.352,1.64,5.067c0.462,1.718,0.839,3.455,1.132,5.208
	c0.293,1.754,0.498,3.518,0.615,5.292c0.12,1.774,0.153,3.55,0.098,5.331c-0.055,1.777-0.198,3.547-0.429,5.311
	c-0.228,1.764-0.543,3.511-0.947,5.243c-0.4,1.731-0.885,3.44-1.455,5.125c-6.57,19.902-20.194,29.889-37.899,38.954
	c-9.275,0.483-19.018,0.889-28.039-1.728c-15.294-4.427-29.567-15.689-36.874-29.894c-6.556-12.746-7.659-26.97-3.237-40.599
	C3416.254,2038.284,3430.664,2029.199,3447.744,2020.398z"/>
<path style="fill:#FFFFFF;" d="M3447.597,2032.812c6.922-0.513,14.532-1.43,21.444-0.796c11.652,1.069,23.118,8.025,30.479,16.963
	c7.576,9.192,10.461,20.107,8.426,31.861c-2.914,16.822-14.635,26.746-28.161,35.625c-6.058,0.542-12.462,1.24-18.554,0.888
	c-12.614-0.718-25.266-8.562-32.564-18.647c-6.839-9.456-8.767-21.508-6.541-32.842
	C3425.211,2050.136,3435.159,2041.75,3447.597,2032.812z"/>
</svg>
