<?xml version="1.0" encoding="utf-8"?>
<!-- Generator: Adobe Illustrator 27.5.0, SVG Export Plug-In . SVG Version: 6.00 Build 0)  -->
<svg version="1.1" id="_x2DC_àð_x5F_1" xmlns="http://www.w3.org/2000/svg" xmlns:xlink="http://www.w3.org/1999/xlink" x="0px"
	 y="0px" viewBox="0 0 4500 4500" style="enable-background:new 0 0 4500 4500;" xml:space="preserve">
<rect style="fill:#FFFFFF;" width="4500" height="4500"/>
<g>
	<path style="fill:#EDEDED;" d="M3863.151,3326.645c-68.081,153.177-183.623,292.955-342.314,372.033
		c-186.795,93.086-411.135,93.872-623.04,77.107c-211.919-16.764-426.625-48.589-635.669-12.644
		c-227.305,39.087-430.79,155.653-655.961,204.049c-130.528,28.06-266.451,30.461-398.447,10.124
		c-249.421-38.39-484.819-157.905-643.421-338.727c-146.566-167.111-223.703-369.424-263.532-582.129
		c-6.492-34.685-11.992-69.637-16.631-104.767c-16.838-127.178-22.501-256.579-23.583-383.09
		c-3.172-368.728,51.049-718.231,340.076-942.334c16.231-12.57,33.203-24.769,50.946-36.552
		c30.683-20.351,63.678-39.487,99.148-57.275c374.909-188.055,812.666-234.554,1172.677-453.558
		c125.829-76.544,237.948-172.624,365.793-246.04c210.244-120.731,474.028-145.944,679.677,1.497
		c119.382,85.586,174.433,223.792,234.123,351.385c164.813,352.275,403.991,672.191,568.418,1024.599
		C3935.842,2562.746,4020.908,2971.688,3863.151,3326.645z"/>
	<g>
		<path style="fill:#9BA7CF;" d="M2055.271,1114.948c0.022,1.636-0.033,3.301-0.167,4.992c-2.432,30.594-29.996,48.022-54.361,58.07
			c-125.945,51.935-265.803,54.651-393.1,7.634c-24.812-9.164-51.18-22.161-63.694-49.293
			c-41.707-90.418,129.973-113.375,169.325-119.349c94.592-14.36,191.93-3.741,282.482,32.088
			C2023.197,1059.948,2054.835,1081.758,2055.271,1114.948z"/>
		<path style="fill:#2A365E;" d="M2056.742,1110.157h-10.933c-1.79-15.2-10.792-27.175-21.475-36.223
			c-11.773-9.998-25.571-16.445-33.871-19.746c-62.977-25.104-130.035-37.874-197.357-37.874c-26.801,0-53.649,2.025-80.295,6.105
			l-3.566,0.545c-33.824,5.093-136.731,20.619-161.227,66.326c-3.551,6.603-5.264,13.533-5.186,20.868h-10.839
			c-0.11-9.157,2.04-17.862,6.447-26.069c27.082-50.534,134.037-66.668,169.186-71.963l3.551-0.545
			c95.494-14.592,193.447-3.395,283.288,32.408C2012.374,1051.136,2053.16,1071.521,2056.742,1110.157z"/>
		<g>
			<path style="fill:#F2DACF;" d="M1866.993,1653.862l-60.462-7.739c-4.299-0.55-7.338-4.482-6.788-8.781l132.963-1038.739
				l76.031,9.732l-132.963,1038.739C1875.224,1651.373,1871.292,1654.412,1866.993,1653.862z"/>
			<path style="fill:#F29D76;" d="M2014.26,469.725l-51.987-6.655c-3.865-0.495-7.625,0.019-11.019,1.336
				c-1.73-0.747-3.728-0.494-5.55,0.947c-48.288,38.218-62.172,110.882-68.417,162.209c-7.955,65.392-4.432,123.803,3.832,196.855
				c4.799,42.433,2.769,73.078-6.904,95.648c-3.354,7.826-8.679,14.334-15.2,18.705c-4.06,2.721-8.71,4.387-11.066,5.497
				c-10.318,4.865-8.267,26.624,6.05,23.281c5.228-1.22,8.069-3.848,9.216-4.833c5.569-4.804,10.295-10.004,14.329-15.508
				l-3.445,26.915c-0.583,4.558,2.639,8.727,7.197,9.31l80.259,10.274c4.558,0.583,8.727-2.639,9.31-7.197l62.918-491.531
				C2035.367,482.616,2026.626,471.308,2014.26,469.725z M1891.135,629.152c7.362-60.522,21.439-102.6,43.752-129.914
				l-40.391,315.55C1886.833,745.918,1883.686,690.383,1891.135,629.152z"/>
		</g>
		<g>
			<path style="fill:#E1AF8B;" d="M2113.481,736.897l-144.865,656.77c-0.096,0.435-0.195,0.866-0.305,1.299
				c-4.483,17.9-18.749,29.916-32.338,27.011l-9.312-1.991c-13.653-2.919-21.585-19.826-17.993-38.041
				c0.067-0.352,0.139-0.699,0.216-1.049l144.865-656.77l1.859-4.891l2.359-6.187l3.774-9.92l1.498-3.925l1.904-4.993l2.495-6.546
				l0.001-0.004l1.824-4.784l2.069-4.668c0.001-0.004,0.001-0.004,0.001-0.004l19.665-44.382l7.989-18.033l0.863-1.946l0.062-0.145
				l20.045,4.286l-0.005,0.157l-0.085,2.113l-0.756,19.58l-2.057,53.316l-1.009,11.692l-0.484,5.591l0.004,0.001l-0.468,5.398
				l-0.802,9.303L2113.481,736.897z"/>
			<path style="fill:#461014;" d="M2120.179,618.146l-20.131-4.304l0.062-0.145l3.375-7.751l18.388-42.264
				c0.369-0.855,1.497-0.588,1.442,0.342l-2.641,45.596L2120.179,618.146z"/>
			<path style="fill:#461014;" d="M2053.38,751.038l-129.027,584.964c-0.729,3.306-3.677,5.552-6.721,5.23l131.835-597.698
				C2052.373,744.485,2054.109,747.732,2053.38,751.038z"/>
			<path style="fill:#461014;" d="M1950.363,1348.264l-4.761-1.018c-6.251-1.337-10.226-7.598-8.833-13.915l126.783-574.793
				c1.393-6.317,7.648-10.391,13.899-9.055l4.761,1.018c6.251,1.337,10.226,7.598,8.833,13.914l-126.783,574.793
				C1962.869,1345.526,1956.614,1349.6,1950.363,1348.264z"/>
			<path style="fill:#461014;" d="M1974.339,1367.724l-5.723,25.944c-0.095,0.433-0.196,0.865-0.306,1.296l-6.69-0.482
				c-15.5-1.115-30.707-4.384-45.276-9.722l-7.676-2.816c0.067-0.352,0.138-0.698,0.215-1.048l5.772-26.166l10.088,3.722
				c12.651,4.666,25.865,7.526,39.332,8.515L1974.339,1367.724z"/>
			<path style="fill:#461014;" d="M2109.201,756.306l-131.835,597.698c-2.905-0.95-4.647-4.193-3.917-7.505l129.026-584.964
				C2103.205,758.223,2106.156,755.984,2109.201,756.306z"/>
			<path style="fill:#FFFFFF;" d="M2114.494,725.133l0.802-9.303l0.468-5.398l-0.004-0.001l0.484-5.591l1.009-11.692l2.057-53.316
				l0.756-19.58l0.085-2.113l0.029,0.006l0.494-8.525l-17.189-3.675l-3.375,7.751l-0.062,0.145l-0.863,1.946l-7.989,18.033
				l-19.665,44.382c0,0,0,0-0.001,0.004l-2.069,4.668l-1.824,4.784l-0.001,0.004l-2.495,6.546l-1.904,4.993l-1.498,3.925
				l-3.774,9.92l-2.359,6.187c0.515,1.286,1.067,2.555,1.632,3.818c1.274,2.813,2.856,5.733,5.532,6.783
				c5.932,2.372,8.897-4.154,12.238-8.354c4.797-6.075,5.125-0.05,4.893,5.751c-0.159,3.793,0.518,8.58,3.814,9.331
				c3.199,0.744,5.892-3.032,7.736-6.214c1.845-3.19,4.912-6.783,7.962-5.5c5.208,2.171,0.351,13.249,4.871,16.798
				c1.729,1.35,4.251,0.909,6.108-0.42c1.049-0.76,1.945-1.732,2.751-2.809l0.336-1.522L2114.494,725.133z"/>
		</g>
		<g>
			<path style="fill:#FBEDE5;" d="M1760.235,1734.514l-52.246,9.864c-3.715,0.701-7.295-1.741-7.996-5.456l-172.422-913.055
				l65.699-12.407l172.421,913.057C1766.393,1730.232,1763.95,1733.812,1760.235,1734.514z"/>
			<path style="fill:#55352D;" d="M1679.562,1370.146l-29.331,5.54c-2.085,0.394-4.095-0.977-4.489-3.063l-102.893-544.867
				l36.884-6.965l102.892,544.865C1683.019,1367.742,1681.647,1369.752,1679.562,1370.146z"/>
			<path style="fill:#C4DBC4;" d="M1543.896,650.889l-29.637,5.597c-14.361,2.712-23.916,15.96-21.342,29.59l2.438,12.912
				c-1.653,0.572-3.327,1.418-4.932,2.683c-6.299,4.962-8.813,14.026-7.472,26.939c2.923,28.135,37.711,200.352,39.191,207.67
				c0.824,4.078,4.799,6.716,8.878,5.892c0.396-0.08,0.779-0.19,1.147-0.327c3.411-1.271,5.49-4.869,4.745-8.551
				c-0.361-1.785-36.124-178.82-38.972-206.24c-0.576-5.542-0.177-9.254,0.558-11.427l29.155,154.392
				c0,0,48.282-21.055,81.644-15.417l0,0l-34.736-183.943C1571.985,657.028,1558.257,648.177,1543.896,650.889z"/>
		</g>
		<g>
			<path style="fill:#F1DDD6;" d="M1823.881,725.941l-31.177-92.641c-4.353-12.936-23.107-11.458-25.381,2l-16.285,96.381
				c0,0,32.565,33.471,33.875,34.589C1786.223,767.388,1823.881,725.941,1823.881,725.941z"/>
			<path style="fill:#BE4C38;" d="M1795.25,640.854l-29.259,2.305l8.968-53.057c0.28-1.657,2.589-1.839,3.125-0.246L1795.25,640.854
				z"/>
			<path style="fill:#BE4C38;" d="M1818.262,1584.979l-67.224-853.299l72.843-5.739l67.224,853.298
				c0.324,4.119-2.751,7.721-6.87,8.045l-57.927,4.564C1822.188,1592.174,1818.586,1589.098,1818.262,1584.979z"/>
			<path style="fill:#55352D;" d="M1850.113,1578.369l-66.185-840.118c-0.185-2.347,1.567-4.399,3.914-4.584
				c2.347-0.185,4.399,1.568,4.584,3.915l66.185,840.117c0.185,2.346-1.568,4.399-3.914,4.584
				C1852.35,1582.468,1850.298,1580.715,1850.113,1578.369z"/>
		</g>
		<g>
			<path style="fill:#ECC063;" d="M1749.644,928.453l75.155,562.117c3.456,25.852-6.363,48.486-21.915,50.565l-72.208,9.654
				c-15.568,2.081-30.972-17.181-34.429-43.033L1621.007,945c-1.592-11.912-1.47-23.647,0.169-34.419
				c13.439-12.268,22.384-29.387,24.577-48.317l58.193-7.78c7.065,17.638,20.163,31.809,36.302,40.095
				C1744.763,904.717,1748.02,916.3,1749.644,928.453z"/>
			<path style="fill:#ECC063;" d="M1673.566,777.164c2.362,17.662,1.693,51.315-2.636,51.894
				c-4.329,0.579-13.814-31.716-16.176-49.379c-2.361-17.663-0.268-40.655,4.062-41.234
				C1663.145,737.866,1671.205,759.501,1673.566,777.164z"/>
			<path style="fill:#260F0B;" d="M1821.026,1462.347l3.773,28.223c3.456,25.852-6.363,48.486-21.915,50.565l-72.208,9.654
				c-15.568,2.081-30.972-17.181-34.429-43.033l-4.418-33.047C1721.601,1463.215,1772.82,1448.988,1821.026,1462.347z"/>
			<path style="fill:#55352D;" d="M1749.644,928.451c-1.809-13.531-5.775-32.732-14.205-39.654
				c-2.803-2.301-5.848-3.285-8.646-5.605c-4.352-3.609-7.597-10.015-10.295-16.625c-2.403-5.885-4.8-10.884-7.589-16.028
				l-5.385-40.279c-0.527-3.94-4.148-6.707-8.088-6.18l-12.462,1.666l-3.641-27.231c-0.548-4.095-4.311-6.971-8.406-6.423l-14.958,2
				c-4.095,0.547-6.97,4.311-6.423,8.405l3.641,27.232l-12.462,1.666c-3.94,0.527-6.707,4.148-6.18,8.088l5.831,43.611
				c-0.255,1.416-0.491,2.837-0.677,4.268c-1.167,8.964-1.72,17.835-5.73,24.147c-2.508,3.95-5.565,6.846-8.272,10.43
				c-1.838,2.433-3.535,5.231-4.633,8.728c-2.696,8.588-1.387,24.374-0.055,34.335l0.955,7.138c0.04,0.043,0.053,0.057,0.093,0.099
				l15.563-7.587c30.236-14.739,62.775-19.089,95.821-12.811l17.01,3.231c0.027-0.052,0.036-0.068,0.063-0.12L1749.644,928.451z"/>
		</g>
		<g>
			<defs>
				<path id="XMLID_00000121273883244842902290000001621287762444775865_" d="M2056.481,1112.429V1656.8
					c0,97.548-77.274,176.617-172.603,176.617h-179.452c-95.315,0-172.603-79.069-172.603-176.617v-544.371
					c0-1.027,1.959-1.986,5.644-2.89c-0.014,8.205,2.014,17.124,6.479,26.808c12.52,27.137,38.891,40.137,63.699,49.302
					c127.302,47.014,267.151,44.302,393.097-7.644c24.37-10.041,51.932-27.466,54.356-58.069c0.137-1.685,0.192-3.356,0.178-4.986
					c-0.014-1.356-0.083-2.685-0.206-4C2056.001,1111.429,2056.481,1111.922,2056.481,1112.429z"/>
			</defs>
			<use xlink:href="#XMLID_00000121273883244842902290000001621287762444775865_"  style="overflow:visible;fill:#445899;"/>
			<clipPath id="XMLID_00000167393178985822837800000006662498129954419082_">
				<use xlink:href="#XMLID_00000121273883244842902290000001621287762444775865_"  style="overflow:visible;"/>
			</clipPath>
			<path style="clip-path:url(#XMLID_00000167393178985822837800000006662498129954419082_);fill:#FFFFFF;" d="M2081.125,1109.769
				c-4.49-20.171-13.366-39.364-28.279-53.942c-2.28-2.229-5.784,1.269-3.501,3.501c25.3,24.733,31.127,61.507,31.411,95.401
				c0.075,8.91-0.229,17.822-0.749,26.717c-0.606,10.358-1.536,21.169-5.986,30.698c-3.669,7.856-9.808,15.194-18.205,18.129
				c-8.151,2.849-16.95,1.071-24.302-3.117c-11.254-6.411-17.576-16.994-21.637-28.701c-1.534-9.006-3.895-17.885-6.378-26.658
				c-0.88-3.108-5.342-1.778-4.775,1.317c1.616,8.813,3.418,18.069,6.403,26.777c0.301,1.824,0.579,3.652,0.798,5.489
				c1.298,10.87,1.304,22.539-3.174,32.741c-4.67,10.637-14.472,18.861-25.911,21.188c-11.531,2.346-23.231-2.259-31.359-10.462
				c-4.806-4.85-8.52-10.955-11.278-17.262c-1.261-9.725-3.676-19.362-6.148-28.835c-0.806-3.085-5.523-1.782-4.775,1.317
				c1.059,4.383,1.165,8.865,1.695,13.325c0.499,4.186,1.547,8.154,3.047,12.094c0.378,0.993,0.78,1.978,1.196,2.958
				c2.457,19.249,0.574,38.88-14.985,52.154c-9.343,7.971-22.213,10.639-33.531,5.36c-10.822-5.048-18.863-15.296-22.757-26.425
				c-0.129-0.368-0.237-0.739-0.359-1.109c1.49-16.245-0.931-32.675-3.331-48.765c-0.431-2.889-4.713-1.976-4.863,0.658
				c-0.922,16.227-1.8,33.031,3.189,48.74c-0.031,0.304-0.054,0.61-0.089,0.915c-0.82,7.282-2.557,14.553-5.427,21.306
				c-2.476,5.823-5.739,11.952-10.982,15.739c-9.938,7.178-24.635,6.021-34.873,0.257c-12.015-6.764-19.294-18.945-22.667-32.021
				c-1.626-6.305-2.361-12.717-2.548-19.166c1.857-11.022,1.996-22.388,2.297-33.488c0.089-3.259-4.591-3.082-4.952,0
				c-1.151,9.859-2.193,20.648-2.052,31.364c-0.326,2.081-0.69,4.158-1.15,6.22c-2.949,13.22-9.254,24.15-19.963,32.58
				c-10.442,8.218-24.122,12.766-36.773,6.811c-12.73-5.992-20.178-18.555-22.89-31.956c-1.636-8.084-1.521-16.576-1.916-24.79
				c-0.378-7.884-0.496-15.808,0.739-23.599c0.332-1.497,0.634-3.006,0.868-4.537c0.469-3.067-4.029-4.489-4.774-1.316
				c-0.37,1.574-0.661,3.158-0.918,4.745c-3.262,14.364-10.95,26.74-20.26,38.211c-9.825,12.106-21.66,22.612-37.268,26.095
				c-15.21,3.394-32.388-0.169-43.876-11.028c-10.161-9.604-14.069-23.566-11.36-37.063c5.433-5.975,10.394-12.411,14.827-19.135
				c5.454-8.271,10.365-17.266,12.858-26.916c0.798-3.09-3.871-4.372-4.775-1.316c-1.105,3.743-4.165,6.805-6.633,9.714
				c-2.72,3.204-5.223,6.592-7.734,9.96c-5.172,6.934-9.878,14.073-12.347,22.443c-0.285,0.963-0.534,1.932-0.757,2.905
				c-10.867,11.703-24.161,21.326-40.868,21.344c-8.69,0.01-17.038-3.029-23.191-9.265c-6.12-6.204-9.448-14.55-11.429-22.902
				c-2.208-9.309-2.839-18.958-3.109-28.495c-0.296-10.444,0.115-20.909,1.215-31.299c2.534-23.92,8.855-47.473,18.59-69.465
				c1.278-2.887-2.987-5.41-4.275-2.499c-9.239,20.871-15.486,42.894-18.494,65.524c-2.801,21.077-3.555,43.549,0.634,64.505
				c3.59,17.957,13.848,35.267,33.357,38.314c17.661,2.759,34.015-5.538,46.412-17.484c-0.58,11.302,2.894,22.558,10.475,31.379
				c10.803,12.571,28.11,18.243,44.373,16.71c16.974-1.6,31.153-10.747,42.349-23.206c7.892-8.781,15.095-18.429,20.19-29.034
				c0.023,1.3,0.057,2.6,0.108,3.9c0.321,8.228,0.387,16.662,1.526,24.822c2.043,14.635,9.027,28.572,21.726,36.703
				c12.274,7.86,26.817,7.083,39.23-0.008c12.444-7.109,21.827-18.154,26.534-31.634c2.482,16.001,9.082,30.632,23.805,40.211
				c11.151,7.256,26.07,9.157,38.321,3.448c12.777-5.954,18.699-21.78,21.383-34.662c0.066-0.318,0.115-0.637,0.178-0.954
				c4.51,8.855,11.335,16.623,20.105,21.345c11.563,6.226,25.104,5.654,36.208-1.341c12.134-7.644,19.226-20.775,21.551-34.681
				c0.764-4.565,1.061-9.125,1.008-13.671c1.235,1.913,2.557,3.769,3.995,5.532c7.949,9.751,20.116,16.197,32.858,15.709
				c12.766-0.489,24.749-7.755,31.811-18.29c6.384-9.521,8.167-21.296,7.788-32.576c3.072,5.109,6.892,9.747,11.791,13.601
				c6.976,5.488,15.682,9.238,24.676,9.063c9.104-0.177,17.447-4.619,23.383-11.413c13.799-15.791,13.683-38.803,14.196-58.612
				C2086.085,1147.61,2085.266,1128.377,2081.125,1109.769z M1585.22,1202.27c0.23-0.306,0.471-0.601,0.702-0.905
				c-2.607,4.42-5.556,8.67-8.674,12.722C1579.575,1209.979,1582.342,1206.101,1585.22,1202.27z"/>
		</g>
		<path style="fill:#2A365E;" d="M2056.742,1110.157h-10.933c0.187,1.588,0.296,3.208,0.311,4.859
			c0.016,1.479-0.031,2.99-0.155,4.485c-1.744,22.238-18.781,40.225-50.612,53.447c-123.915,51.453-261.129,54.147-386.367,7.552
			c-23.189-8.627-48.479-20.899-60.19-46.438c-3.878-8.488-5.871-16.414-5.965-23.905h-10.839
			c0.078,9.079,2.399,18.609,6.929,28.483c13.362,29.184,41.02,42.732,66.295,52.138c60.579,22.534,123.883,33.778,187.187,33.778
			c70.281,0,140.578-13.86,207.09-41.486c35.927-14.919,55.222-36.021,57.324-62.697c0.125-1.651,0.187-3.317,0.187-4.952v-0.544
			C2056.991,1113.272,2056.898,1111.699,2056.742,1110.157z M2050.466,1088.838c1.012,1.962,1.915,3.987,2.725,6.089
			C2052.397,1092.825,2051.478,1090.8,2050.466,1088.838z M1531.994,1110.157c-0.016-1.23,0.015-2.445,0.078-3.66
			C1531.994,1107.712,1531.978,1108.927,1531.994,1110.157z"/>
	</g>
	<g>
		<path style="fill:#B5C7C3;" d="M1150.812,1881.23c-38.993,11.019-59.158,54.04-42.673,91.055
			c133.296,299.289,671.019,1484.921,742.01,1521.041c77.186,39.272,1604.878-392.599,1811.621-554.685
			c14.177-11.114,16.629-31.621,5.482-45.771L2599.81,1537.744c-25.731-32.666-68.617-46.597-108.632-35.289L1150.812,1881.23z"/>
		<path style="fill:#3C3B3D;" d="M1634.03,2814.087l-0.801-1.615c-8.126-16.386-17.126-34.509-26.77-53.929
			c-48.043-96.75-113.84-229.253-166.021-337.045c-86.255-178.181-89.832-194.729-88.451-198.271
			c0.649-7.96,14.605-20.912,107.416-49.725c60.299-18.718,134.284-38.092,193.731-53.658c34.336-8.992,63.989-16.757,80.613-21.73
			c21.477-6.43,43.681-13.087,66.756-12.071c10.49,0.457,24.405,10.798,42.538,31.615
			c57.918,66.489,140.494,218.577,184.562,303.317c57.489,110.546,108.904,221.18,107.872,232.115
			c-0.538,5.645-10.179,15.27-80.551,39.807c-41.471,14.459-99.064,32.324-171.179,53.098
			c-122.75,35.359-246.732,67.326-247.97,67.644L1634.03,2814.087z M1356.221,2224.805
			c-0.535,18.729,165.082,352.25,254.221,531.759c9.328,18.786,18.053,36.357,25.969,52.316
			c15.508-4.012,131.35-34.105,246.11-67.164c72.035-20.75,129.548-38.59,170.941-53.023c69.228-24.137,77.32-33.235,77.585-36.026
			c0.736-7.795-41.72-103.365-107.39-229.644c-43.977-84.564-126.355-236.305-183.97-302.447
			c-17.05-19.573-30.299-29.699-39.378-30.093c-22.32-0.969-44.165,5.564-65.288,11.887c-16.698,4.995-46.386,12.77-80.761,21.772
			c-59.404,15.555-133.336,34.914-193.539,53.603c-90.761,28.176-104.313,40.971-104.313,46.091v0.698L1356.221,2224.805z
			 M1356.236,2224.597"/>
		<path style="fill:#B5C7C3;" d="M2597.857,1463.684c46.574-127.217,287.169-742.648,374.508-965.783
			c15.368-39.261,65.172-51.141,96.619-23.057l1124.699,1004.432c43.111,38.501,57.521,99.863,36.054,153.529l-505.108,1262.749
			c-3.563,10.985-17.913,13.598-25.12,4.574l-330.656-413.999l-760.824-959.333
			C2593.885,1508.96,2590.031,1485.06,2597.857,1463.684z"/>
		<path style="fill:#FFFFFF;" d="M4190.037,1635.226l-147.211,368.016l-5.921,14.809l-327.303,818.272
			c-3.395,10.452-17.042,12.938-23.898,4.344l-314.512-393.771l-723.668-912.501c-13.46-16.961-17.122-39.697-9.677-60.026
			c44.295-121.001,273.145-706.386,356.214-918.622c14.622-37.344,61.991-48.652,91.904-21.933l1069.777,955.392
			C4196.747,1525.813,4210.46,1584.182,4190.037,1635.226z"/>
		<g>
			<path style="fill:#3C3B3D;" d="M2508.589,1687.159l-27.923,18.666c-3.19,2.132-7.504,1.275-9.636-1.915l-28.072-41.995
				c-2.132-3.19-1.275-7.504,1.915-9.636l27.923-18.666c3.19-2.132,7.504-1.275,9.636,1.915l28.072,41.995
				C2512.636,1680.712,2511.779,1685.026,2508.589,1687.159z"/>
			<path style="fill:#3C3B3D;" d="M2429.736,1699.68l-55.775,37.283c-3.189,2.132-7.504,1.275-9.636-1.915l-28.072-41.995
				c-2.132-3.19-1.275-7.504,1.915-9.636l55.775-37.283c3.19-2.132,7.504-1.275,9.636,1.915l28.072,41.995
				C2433.783,1693.234,2432.926,1697.548,2429.736,1699.68z"/>
			<path style="fill:#3C3B3D;" d="M2324.867,1751.356l-55.775,37.283c-3.189,2.132-7.504,1.275-9.636-1.915l-32.89-49.203
				c-2.132-3.19-1.275-7.504,1.915-9.636l55.775-37.283c3.189-2.132,7.504-1.275,9.636,1.915l32.89,49.202
				C2328.914,1744.91,2328.056,1749.224,2324.867,1751.356z"/>
			<path style="fill:#3C3B3D;" d="M2215.231,1809.122l-55.776,37.283c-3.189,2.132-7.504,1.275-9.636-1.915l-62.586-93.628
				c-2.132-3.19-1.275-7.504,1.915-9.636l55.775-37.283c3.19-2.132,7.504-1.275,9.636,1.915l62.586,93.628
				C2219.278,1802.676,2218.42,1806.99,2215.231,1809.122z"/>
			<path style="fill:#3C3B3D;" d="M2099.614,2059.624l-55.775,37.283c-3.19,2.132-7.504,1.275-9.636-1.915l-74.751-111.827
				c-2.132-3.19-1.275-7.504,1.915-9.636l55.775-37.284c3.19-2.132,7.504-1.275,9.636,1.915l74.751,111.827
				C2103.661,2053.178,2102.804,2057.492,2099.614,2059.624z"/>
			<path style="fill:#3C3B3D;" d="M2201.89,2206.368l-55.775,37.283c-3.19,2.132-7.504,1.275-9.636-1.915l-74.751-111.826
				c-2.132-3.19-1.275-7.504,1.915-9.636l55.775-37.283c3.19-2.132,7.504-1.275,9.636,1.915l74.751,111.827
				C2205.937,2199.922,2205.08,2204.236,2201.89,2206.368z"/>
			<path style="fill:#3C3B3D;" d="M2391.569,1837.327l-55.775,37.283c-3.19,2.132-7.504,1.275-9.636-1.915l-32.89-49.203
				c-2.132-3.19-1.275-7.504,1.915-9.636l55.775-37.284c3.19-2.132,7.504-1.275,9.636,1.915l32.89,49.202
				C2395.615,1830.881,2394.758,1835.195,2391.569,1837.327z"/>
			<path style="fill:#3C3B3D;" d="M2468.646,1966.284l-55.775,37.283c-3.189,2.132-7.504,1.275-9.636-1.915l-32.89-49.203
				c-2.132-3.19-1.275-7.504,1.915-9.636l55.775-37.284c3.19-2.132,7.504-1.275,9.636,1.915l32.89,49.202
				C2472.693,1959.838,2471.836,1964.152,2468.646,1966.284z"/>
			<path style="fill:#3C3B3D;" d="M2542.015,2051.142l-60.898,40.708c-3.19,2.132-7.504,1.275-9.636-1.915l-35.979-53.825
				c-2.132-3.19-1.275-7.504,1.915-9.636l60.898-40.708c3.189-2.132,7.504-1.275,9.636,1.915l35.979,53.825
				C2546.063,2044.696,2545.205,2049.01,2542.015,2051.142z"/>
			<path style="fill:#3C3B3D;" d="M2423.434,2103.021l-60.898,40.708c-3.19,2.132-7.504,1.275-9.636-1.915l-35.98-53.825
				c-2.132-3.19-1.275-7.504,1.915-9.636l60.898-40.708c3.189-2.132,7.504-1.275,9.636,1.915l35.979,53.825
				C2427.481,2096.575,2426.624,2100.889,2423.434,2103.021z"/>
			<path style="fill:#3C3B3D;" d="M2481.243,2188.993l-60.898,40.708c-3.19,2.132-7.504,1.275-9.636-1.915l-35.979-53.825
				c-2.132-3.19-1.275-7.504,1.915-9.636l60.898-40.708c3.19-2.132,7.504-1.275,9.636,1.915l35.979,53.825
				C2485.29,2182.546,2484.432,2186.861,2481.243,2188.993z"/>
			<path style="fill:#3C3B3D;" d="M2549.427,2270.517l-60.898,40.708c-3.19,2.132-7.504,1.275-9.636-1.915l-35.979-53.825
				c-2.132-3.19-1.275-7.504,1.915-9.636l60.898-40.708c3.189-2.132,7.504-1.275,9.636,1.915l35.979,53.825
				C2553.474,2264.071,2552.616,2268.385,2549.427,2270.517z"/>
			<path style="fill:#3C3B3D;" d="M2776.427,2630.517l-60.898,40.708c-3.19,2.132-7.504,1.275-9.636-1.915l-35.979-53.825
				c-2.132-3.19-1.275-7.504,1.915-9.636l60.898-40.708c3.189-2.132,7.504-1.275,9.636,1.915l35.979,53.825
				C2780.474,2624.071,2779.616,2628.385,2776.427,2630.517z"/>
			<path style="fill:#3C3B3D;" d="M2671.427,2691.517l-60.898,40.708c-3.19,2.132-7.504,1.275-9.636-1.915l-35.979-53.825
				c-2.132-3.19-1.275-7.504,1.915-9.636l60.898-40.708c3.189-2.132,7.504-1.275,9.636,1.915l35.979,53.825
				C2675.474,2685.071,2674.616,2689.385,2671.427,2691.517z"/>
			<path style="fill:#3C3B3D;" d="M2606.427,2597.517l-60.898,40.708c-3.19,2.132-7.504,1.275-9.636-1.915l-35.979-53.825
				c-2.132-3.19-1.275-7.504,1.915-9.636l60.898-40.708c3.189-2.132,7.504-1.275,9.636,1.915l35.979,53.825
				C2610.474,2591.071,2609.616,2595.385,2606.427,2597.517z"/>
			<path style="fill:#3C3B3D;" d="M2709.427,2509.517l-60.898,40.708c-3.19,2.132-7.504,1.275-9.636-1.915l-35.979-53.825
				c-2.132-3.19-1.275-7.504,1.915-9.636l60.898-40.708c3.189-2.132,7.504-1.275,9.636,1.915l35.979,53.825
				C2713.474,2503.071,2712.616,2507.385,2709.427,2509.517z"/>
			<path style="fill:#3C3B3D;" d="M2335.981,2188.993l-60.898,40.708c-3.189,2.132-7.504,1.275-9.636-1.915l-35.979-53.825
				c-2.132-3.19-1.275-7.504,1.915-9.636l60.898-40.708c3.19-2.132,7.504-1.275,9.636,1.915l35.98,53.825
				C2340.028,2182.546,2339.17,2186.861,2335.981,2188.993z"/>
			<path style="fill:#3C3B3D;" d="M2267.797,2086.717l-60.898,40.708c-3.189,2.132-7.504,1.275-9.636-1.915l-35.979-53.825
				c-2.132-3.19-1.275-7.504,1.915-9.636l60.898-40.708c3.19-2.132,7.504-1.275,9.636,1.915l35.98,53.825
				C2271.844,2080.27,2270.986,2084.584,2267.797,2086.717z"/>
			<path style="fill:#3C3B3D;" d="M2602.788,2131.184l-60.898,40.708c-3.19,2.132-7.504,1.275-9.636-1.915l-35.98-53.825
				c-2.132-3.189-1.275-7.504,1.915-9.636l60.898-40.708c3.19-2.132,7.504-1.275,9.636,1.915l35.979,53.825
				C2606.835,2124.738,2605.978,2129.052,2602.788,2131.184z"/>
			<path style="fill:#3C3B3D;" d="M2651.703,2214.191l-60.898,40.708c-3.19,2.132-7.504,1.275-9.636-1.915l-35.979-53.825
				c-2.132-3.19-1.275-7.504,1.915-9.636l60.898-40.708c3.19-2.132,7.504-1.275,9.636,1.915l35.979,53.825
				C2655.75,2207.745,2654.893,2212.059,2651.703,2214.191z"/>
			<path style="fill:#3C3B3D;" d="M2712.476,2295.716l-60.898,40.708c-3.19,2.132-7.504,1.275-9.636-1.915l-35.98-53.825
				c-2.132-3.19-1.275-7.504,1.915-9.636l60.898-40.708c3.189-2.132,7.504-1.275,9.636,1.915l35.979,53.825
				C2716.523,2289.269,2715.665,2293.583,2712.476,2295.716z"/>
			<path style="fill:#3C3B3D;" d="M2912.598,2564.873l-64.607,43.187c-3.189,2.132-7.504,1.275-9.636-1.915l-38.217-57.172
				c-2.132-3.189-1.275-7.504,1.915-9.636l64.607-43.187c3.19-2.132,7.504-1.275,9.636,1.915l38.217,57.171
				C2916.645,2558.427,2915.788,2562.74,2912.598,2564.873z"/>
			<path style="fill:#3C3B3D;" d="M2982.264,2661.22l-64.606,43.187c-3.19,2.132-7.504,1.275-9.636-1.915l-38.217-57.171
				c-2.132-3.19-1.275-7.504,1.915-9.636l64.606-43.187c3.19-2.132,7.504-1.275,9.636,1.915l38.217,57.171
				C2986.311,2654.774,2985.454,2659.088,2982.264,2661.22z"/>
			<path style="fill:#3C3B3D;" d="M2859.237,2730.886l-64.607,43.187c-3.189,2.132-7.504,1.275-9.636-1.915l-38.217-57.171
				c-2.132-3.19-1.275-7.504,1.915-9.636l64.606-43.187c3.19-2.132,7.504-1.275,9.636,1.915l38.217,57.172
				C2863.283,2724.44,2862.426,2728.754,2859.237,2730.886z"/>
			<path style="fill:#3C3B3D;" d="M3059.342,2764.978l-64.606,43.187c-3.19,2.132-7.504,1.275-9.636-1.915l-38.217-57.171
				c-2.132-3.19-1.275-7.504,1.915-9.636l64.606-43.187c3.19-2.132,7.504-1.275,9.636,1.915l38.217,57.171
				C3063.389,2758.532,3062.532,2762.846,3059.342,2764.978z"/>
			<path style="fill:#3C3B3D;" d="M3131.973,2859.843l-64.606,43.187c-3.19,2.132-7.504,1.275-9.636-1.915l-38.217-57.171
				c-2.132-3.19-1.275-7.504,1.915-9.636l64.607-43.187c3.189-2.132,7.504-1.275,9.636,1.915l38.217,57.171
				C3136.02,2853.397,3135.163,2857.711,3131.973,2859.843z"/>
			<path style="fill:#3C3B3D;" d="M2478.651,1772.311l-55.775,37.283c-3.19,2.132-7.504,1.275-9.636-1.915l-28.072-41.995
				c-2.132-3.19-1.275-7.504,1.915-9.636l55.775-37.283c3.189-2.132,7.504-1.275,9.636,1.915l28.072,41.995
				C2482.698,1765.865,2481.841,1770.179,2478.651,1772.311z"/>
			<path style="fill:#3C3B3D;" d="M2523.119,1839.013l-55.775,37.283c-3.19,2.132-7.504,1.275-9.636-1.915l-28.072-41.995
				c-2.132-3.19-1.275-7.504,1.915-9.636l55.775-37.283c3.19-2.132,7.504-1.275,9.636,1.915l28.072,41.995
				C2527.166,1832.567,2526.308,1836.881,2523.119,1839.013z"/>
			<path style="fill:#3C3B3D;" d="M2576.48,1910.161l-55.775,37.283c-3.189,2.132-7.504,1.275-9.636-1.915l-28.072-41.995
				c-2.132-3.19-1.275-7.504,1.915-9.636l55.775-37.284c3.19-2.132,7.504-1.275,9.636,1.915l28.072,41.995
				C2580.527,1903.715,2579.67,1908.029,2576.48,1910.161z"/>
			<path style="fill:#3C3B3D;" d="M2625.395,1973.899l-55.775,37.283c-3.19,2.132-7.504,1.275-9.636-1.915l-28.072-41.995
				c-2.132-3.19-1.275-7.504,1.915-9.636l55.775-37.283c3.189-2.132,7.504-1.275,9.636,1.915l28.072,41.995
				C2629.442,1967.453,2628.585,1971.767,2625.395,1973.899z"/>
			<path style="fill:#3C3B3D;" d="M2694.29,2065.368l-55.775,37.283c-3.189,2.132-7.504,1.275-9.636-1.915l-31.747-47.493
				c-2.132-3.189-1.275-7.504,1.915-9.636l55.775-37.283c3.19-2.132,7.504-1.275,9.636,1.915l31.747,47.493
				C2698.337,2058.922,2697.479,2063.236,2694.29,2065.368z"/>
			<path style="fill:#3C3B3D;" d="M2749.134,2137.999l-55.775,37.283c-3.19,2.132-7.504,1.275-9.636-1.915l-31.747-47.493
				c-2.132-3.19-1.275-7.504,1.915-9.636l55.775-37.283c3.189-2.132,7.504-1.275,9.636,1.915l31.747,47.493
				C2753.181,2131.553,2752.323,2135.867,2749.134,2137.999z"/>
			<path style="fill:#3C3B3D;" d="M2814.353,2229.9l-55.775,37.283c-3.19,2.132-7.504,1.275-9.636-1.915l-31.747-47.493
				c-2.132-3.189-1.275-7.504,1.915-9.636l55.775-37.283c3.19-2.132,7.504-1.275,9.636,1.915l31.747,47.493
				C2818.4,2223.453,2817.543,2227.768,2814.353,2229.9z"/>
			<path style="fill:#3C3B3D;" d="M2873.644,2306.977l-55.775,37.283c-3.19,2.132-7.504,1.275-9.636-1.915l-31.747-47.493
				c-2.132-3.189-1.275-7.504,1.915-9.636l55.775-37.283c3.19-2.132,7.504-1.275,9.636,1.915l31.747,47.493
				C2877.691,2300.531,2876.833,2304.845,2873.644,2306.977z"/>
			<path style="fill:#3C3B3D;" d="M3003.792,2477.086l-61.199,40.909c-3.19,2.132-7.504,1.275-9.636-1.915l-34.927-52.25
				c-2.132-3.189-1.275-7.504,1.915-9.636l61.199-40.909c3.19-2.132,7.504-1.275,9.636,1.915l34.927,52.25
				C3007.839,2470.64,3006.982,2474.954,3003.792,2477.086z"/>
			<path style="fill:#3C3B3D;" d="M2943.02,2389.633l-61.199,40.909c-3.189,2.132-7.504,1.275-9.636-1.915l-34.927-52.25
				c-2.132-3.19-1.275-7.504,1.915-9.636l61.199-40.909c3.189-2.132,7.504-1.275,9.636,1.915l34.927,52.25
				C2947.066,2383.187,2946.209,2387.501,2943.02,2389.633z"/>
			<path style="fill:#3C3B3D;" d="M3074.941,2567.504l-61.199,40.909c-3.189,2.132-7.504,1.275-9.636-1.915l-34.927-52.25
				c-2.132-3.189-1.275-7.504,1.915-9.636l61.199-40.909c3.189-2.132,7.504-1.275,9.636,1.915l34.927,52.25
				C3078.988,2561.058,3078.131,2565.372,3074.941,2567.504z"/>
			<path style="fill:#3C3B3D;" d="M3147.572,2663.852l-61.199,40.909c-3.189,2.132-7.504,1.275-9.636-1.915l-34.927-52.25
				c-2.132-3.189-1.275-7.504,1.915-9.636l61.199-40.909c3.19-2.132,7.504-1.275,9.636,1.915l34.927,52.25
				C3151.619,2657.405,3150.761,2661.719,3147.572,2663.852z"/>
			<path style="fill:#3C3B3D;" d="M3277.238,2847.74l-61.528,41.129c-3.19,2.132-7.504,1.275-9.636-1.915l-100.527-150.386
				c-2.132-3.19-1.275-7.504,1.915-9.636l61.528-41.128c3.19-2.132,7.504-1.275,9.636,1.915l100.526,150.386
				C3281.285,2841.293,3280.427,2845.607,3277.238,2847.74z"/>
			<path style="fill:#3C3B3D;" d="M2998.214,2908.736l-70.063,46.834c-3.189,2.132-7.504,1.275-9.636-1.915l-100.527-150.386
				c-2.132-3.189-1.275-7.504,1.915-9.636l70.063-46.834c3.19-2.132,7.504-1.275,9.636,1.915l100.527,150.386
				C3002.261,2902.29,3001.404,2906.604,2998.214,2908.736z"/>
			<path style="fill:#3C3B3D;" d="M2855.262,2972.903l-57.605,38.507c-6.63,4.432-15.597,2.65-20.028-3.98l-151.135-226.095
				c-4.432-6.63-2.65-15.597,3.98-20.028l57.606-38.507c6.63-4.432,15.596-2.65,20.028,3.98l151.135,226.095
				C2863.674,2959.504,2861.892,2968.471,2855.262,2972.903z"/>
			<path style="fill:#3C3B3D;" d="M2558.986,1753.86l-27.923,18.666c-3.19,2.132-7.504,1.275-9.636-1.915l-28.072-41.995
				c-2.132-3.19-1.275-7.504,1.915-9.636l27.923-18.666c3.19-2.132,7.504-1.275,9.636,1.915l28.072,41.995
				C2563.033,1747.414,2562.176,1751.728,2558.986,1753.86z"/>
			<path style="fill:#3C3B3D;" d="M2611.608,1830.933l-27.414,18.325c-3.19,2.132-7.504,1.275-9.636-1.915l-27.61-41.304
				c-2.132-3.19-1.275-7.504,1.915-9.636l27.414-18.325c3.19-2.132,7.504-1.275,9.636,1.915l27.61,41.304
				C2615.655,1824.487,2614.797,1828.801,2611.608,1830.933z"/>
			<path style="fill:#3C3B3D;" d="M2731.778,1980.663l-32.256,21.561c-3.189,2.132-7.504,1.275-9.636-1.915l-32-47.871
				c-2.132-3.19-1.275-7.504,1.915-9.636l32.255-21.561c3.19-2.132,7.504-1.275,9.636,1.915l32,47.871
				C2735.825,1974.217,2734.967,1978.531,2731.778,1980.663z"/>
			<path style="fill:#3C3B3D;" d="M2798.48,2059.223l-32.256,21.562c-3.189,2.132-7.504,1.275-9.636-1.915l-32-47.871
				c-2.132-3.19-1.275-7.504,1.915-9.636l32.256-21.561c3.189-2.132,7.504-1.275,9.636,1.915l32,47.871
				C2802.527,2052.777,2801.669,2057.091,2798.48,2059.223z"/>
			<path style="fill:#3C3B3D;" d="M2863.606,2144.518l-33.517,22.405c-3.19,2.132-7.504,1.275-9.636-1.915l-38.057-56.932
				c-2.132-3.19-1.275-7.504,1.915-9.636l33.517-22.405c3.189-2.132,7.504-1.275,9.636,1.915l38.057,56.932
				C2867.653,2138.072,2866.796,2142.386,2863.606,2144.518z"/>
			<path style="fill:#3C3B3D;" d="M2933.523,2232.986l-35.61,23.804c-3.19,2.132-7.504,1.275-9.636-1.915l-40.661-60.828
				c-2.132-3.19-1.275-7.504,1.915-9.636l35.61-23.804c3.19-2.132,7.504-1.275,9.636,1.915l40.661,60.828
				C2937.57,2226.54,2936.713,2230.854,2933.523,2232.986z"/>
			<path style="fill:#3C3B3D;" d="M3000.225,2315.993l-35.61,23.804c-3.189,2.132-7.504,1.275-9.636-1.915l-40.661-60.828
				c-2.132-3.19-1.275-7.504,1.915-9.636l35.61-23.804c3.19-2.132,7.504-1.275,9.636,1.915l40.661,60.828
				C3004.272,2309.546,3003.415,2313.861,3000.225,2315.993z"/>
			<path style="fill:#3C3B3D;" d="M3071.374,2401.964l-35.61,23.804c-3.19,2.132-7.504,1.275-9.636-1.915l-40.661-60.828
				c-2.132-3.189-1.275-7.504,1.915-9.636l35.61-23.804c3.189-2.132,7.504-1.275,9.636,1.915l40.661,60.828
				C3075.42,2395.518,3074.563,2399.832,3071.374,2401.964z"/>
			<path style="fill:#3C3B3D;" d="M3146.974,2501.272l-35.61,23.804c-3.19,2.132-7.504,1.275-9.636-1.915l-43.631-65.271
				c-2.132-3.19-1.275-7.504,1.915-9.636l35.61-23.804c3.189-2.132,7.504-1.275,9.636,1.915l43.631,65.271
				C3151.021,2494.826,3150.164,2499.14,3146.974,2501.272z"/>
			<path style="fill:#3C3B3D;" d="M2579.519,2938.855l-35.61,23.804c-3.189,2.132-7.504,1.275-9.636-1.915l-58.705-87.821
				c-2.132-3.19-1.275-7.504,1.915-9.636l35.61-23.804c3.19-2.132,7.504-1.275,9.636,1.915l58.704,87.821
				C2583.565,2932.409,2582.708,2936.723,2579.519,2938.855z"/>
			<path style="fill:#3C3B3D;" d="M2652.149,2903.281l-35.61,23.804c-3.189,2.132-7.504,1.275-9.636-1.915l-58.704-87.821
				c-2.132-3.189-1.275-7.504,1.915-9.636l35.61-23.804c3.189-2.132,7.504-1.275,9.636,1.915l58.704,87.821
				C2656.196,2896.835,2655.339,2901.149,2652.149,2903.281z"/>
			<path style="fill:#3C3B3D;" d="M3225.866,2596.407l-35.819,23.943c-3.19,2.132-7.504,1.275-9.636-1.915l-43.858-65.611
				c-2.132-3.19-1.275-7.504,1.915-9.636l35.819-23.943c3.19-2.132,7.504-1.275,9.636,1.915l43.858,65.611
				C3229.913,2589.96,3229.055,2594.275,3225.866,2596.407z"/>
			<path style="fill:#3C3B3D;" d="M3301.838,2695.892l-35.999,24.064c-3.189,2.132-7.504,1.275-9.636-1.915l-44.054-65.905
				c-2.132-3.19-1.275-7.504,1.915-9.636l35.999-24.064c3.19-2.132,7.504-1.275,9.636,1.915l44.054,65.905
				C3305.885,2689.445,3305.028,2693.76,3301.838,2695.892z"/>
			<path style="fill:#3C3B3D;" d="M2678.417,1900.621l-32.256,21.561c-3.19,2.132-7.504,1.275-9.636-1.915l-32-47.871
				c-2.132-3.19-1.275-7.504,1.915-9.636l32.255-21.561c3.19-2.132,7.504-1.275,9.636,1.915l32,47.871
				C2682.463,1894.174,2681.606,1898.489,2678.417,1900.621z"/>
			<path style="fill:#3C3B3D;" d="M3385.494,2802.794l-37.729,25.22c-3.189,2.132-7.504,1.275-9.636-1.915l-45.938-68.723
				c-2.132-3.19-1.275-7.504,1.915-9.636l37.729-25.22c3.19-2.132,7.504-1.275,9.636,1.915l45.938,68.723
				C3389.541,2796.348,3388.684,2800.662,3385.494,2802.794z"/>
		</g>
		<path style="fill:#ACBDB9;" d="M3346.786,2481.287L3346.786,2481.287c-19.616,15.447-48.041,12.067-63.488-7.549l-559.108-710.023
			c-15.447-19.616-12.067-48.041,7.549-63.488v0c19.617-15.447,48.041-12.067,63.488,7.549l559.108,710.023
			C3369.782,2437.416,3366.402,2465.84,3346.786,2481.287z"/>
		<g>
			<path style="fill:#3C3B3D;" d="M3955.454,1700.216l-988.586-823.267c-5.729-4.772-14.242-3.994-19.013,1.735
				c-4.771,5.729-3.995,14.241,1.735,19.013l988.585,823.267c2.523,2.102,5.586,3.126,8.632,3.126c3.87,0,7.711-1.655,10.381-4.861
				C3961.959,1713.5,3961.183,1704.987,3955.454,1700.216z"/>
			<path style="fill:#3C3B3D;" d="M3902.454,1832.216l-988.586-823.267c-5.729-4.772-14.242-3.993-19.013,1.735
				c-4.771,5.729-3.995,14.241,1.735,19.013l988.585,823.267c2.523,2.102,5.586,3.126,8.632,3.126c3.87,0,7.711-1.655,10.381-4.861
				C3908.959,1845.5,3908.183,1836.987,3902.454,1832.216z"/>
			<path style="fill:#3C3B3D;" d="M3433.625,1635.588l-594.514-506.407c-5.676-4.834-14.197-4.152-19.031,1.523
				c-4.835,5.676-4.153,14.196,1.523,19.031l594.514,506.407c2.541,2.164,5.652,3.223,8.747,3.223c3.819,0,7.613-1.611,10.284-4.746
				C3439.983,1648.943,3439.301,1640.423,3433.625,1635.588z"/>
		</g>
	</g>
	<g>
		<path style="fill:#E3755E;" d="M1573.576,3373.203c0,0-54.459-519.677-296.552-576.609l-246.102,401.517L1573.576,3373.203z"/>
		<path style="fill:#B05F39;" d="M2397.55,2660c18.26,21.85,371.62-20.72,421.24,13.23c1.55,1.04,2.79,2.17,3.72,3.37
			c8.19,10.52,9.92,22.87,3.72,35.6c-17.29,35.7-96.77,74.23-270.52,82.98c0,0-114.14-5.93-226.79,66.7
			c-112.65,72.63-355.65,146.75-493.55,120.06c0,0-329.11,385.39-720.42,452.1c-391.32,66.7-72.63-452.1-72.63-452.1
			s262.36-105.24,533.61-363.15s491.33-391.01,629.56-400.79c138.25-9.8,344.29,25.78,369.49,89.52l21.84-2.18
			c5.65-0.58,11.31-0.82,16.99-0.72c8.67,0.16,58.73,0.26,107.41,7.07c49.93,6.99,98.42,21.04,99.26,49.5
			c0.1,2.95-0.33,6.06-1.32,9.34c-9.62,31.77-109.23,24.68-214.54,37.78c-105.58,13.12-203.2,43.81-206.95,45.02
			c5.9-0.83,231.08-33.03,358.97-34.32c40.5-0.4,71.24,2.28,82.18,10.05c5.9,4.18,10.63,8.63,14.08,13.22
			c23.4,31.19-11.99,69.88-138.59,90.54C2569.05,2556.54,2378.71,2637.47,2397.55,2660z"/>
		<g>
			<path style="fill:#EBDDC3;" d="M2852.9,2442.282C2856,2475,2796.756,2473,2788,2473c-35,0-26.497-38.455-31.358-53.989
				c40.495-0.4,71.238,2.283,82.177,10.05C2844.718,2433.24,2849.446,2437.687,2852.9,2442.282z"/>
			<path style="fill:#EBDDC3;" d="M2816.073,2347.776c4.113,6.166,0.351,14.525-6.938,15.865
				c-21.894,4.024-58.387,7.089-77.134-7.641c-7.15-5.62-10.76-30.91-10.78-44.31
				C2762.583,2317.481,2802.958,2328.116,2816.073,2347.776z"/>
			<path style="fill:#EBDDC3;" d="M2826.234,2712.203c-18.588,5.055-36.241,7.738-42.467,5.899
				c-11.047-3.268-11.348-24.153-10.732-34.993c0.214-3.758,3.139-6.79,6.887-7.147c8.091-0.772,22.972-2.052,38.872-2.728
				c1.542,1.038,2.787,2.164,3.72,3.365C2830.696,2687.123,2832.43,2699.47,2826.234,2712.203z"/>
		</g>
		<g>
			<path style="fill:#663720;" d="M2297.792,2343.09c-1.637,0-2.965-1.327-2.965-2.965c0-1.633,1.319-2.956,2.95-2.965
				c1.478-0.048,13.52-1.905,28.76-4.254c57.286-8.833,176.489-27.213,233.557-28.355c1.646-0.022,2.99,1.268,3.023,2.905
				c0.033,1.637-1.267,2.991-2.904,3.024c-56.673,1.134-175.612,19.472-232.772,28.286
				C2307.494,2341.842,2299.337,2343.09,2297.792,2343.09z"/>
			<path style="fill:#663720;" d="M2572.012,2517.997c-0.806,0-1.609-0.327-2.195-0.97c-15.52-17.072-12.742-50.048-12.617-51.444
				c0.146-1.63,1.581-2.849,3.217-2.685c1.63,0.146,2.833,1.586,2.688,3.216c-0.028,0.316-2.662,31.786,11.099,46.923
				c1.101,1.212,1.012,3.088-0.2,4.188C2573.438,2517.742,2572.723,2517.997,2572.012,2517.997z"/>
			<path style="fill:#663720;" d="M2616.493,2517.997c-0.447,0-0.899-0.1-1.325-0.314c-12.683-6.35-17.176-51.264-17.947-60.204
				c-0.14-1.631,1.068-3.067,2.699-3.208c1.624-0.161,3.067,1.067,3.208,2.698c1.803,20.856,7.554,51.837,14.695,55.413
				c1.464,0.732,2.056,2.513,1.324,3.978C2618.626,2517.397,2617.579,2517.997,2616.493,2517.997z"/>
			<path style="fill:#663720;" d="M2560.15,2768.547c-1.392,0-2.633-0.984-2.907-2.4c-9.058-46.75,5.668-55.703,7.377-56.569
				c1.46-0.744,3.244-0.158,3.985,1.303c0.729,1.436,0.176,3.186-1.232,3.948c-0.368,0.233-12.42,8.322-4.309,50.19
				c0.312,1.608-0.739,3.163-2.346,3.476C2560.527,2768.53,2560.337,2768.547,2560.15,2768.547z"/>
			<path style="fill:#663720;" d="M2608.335,2768.547c-0.781,0-1.56-0.307-2.143-0.915c-16.082-16.809-19.219-47.932-19.345-49.248
				c-0.156-1.63,1.039-3.076,2.668-3.232c1.627-0.159,3.077,1.038,3.234,2.668c0.03,0.301,3.079,30.402,17.728,45.713
				c1.131,1.182,1.09,3.06-0.093,4.192C2609.81,2768.273,2609.071,2768.547,2608.335,2768.547z"/>
			<path style="fill:#663720;" d="M2666.875,2378.665c-0.389,0-0.785-0.078-1.166-0.242c-11.435-4.9-14.608-36.262-15.127-42.499
				c-0.136-1.631,1.076-3.064,2.708-3.2c1.623-0.123,3.064,1.077,3.201,2.708c1.173,14.035,5.534,34.962,11.553,37.543
				c1.505,0.644,2.202,2.387,1.557,3.892C2669.119,2377.991,2668.025,2378.665,2666.875,2378.665z"/>
			<path style="fill:#663720;" d="M2695.969,2378.665c-0.332,0-0.669-0.056-1-0.175c-13.59-4.87-15.905-40.106-16.232-47.121
				c-0.076-1.635,1.188-3.022,2.823-3.099c1.641-0.041,3.022,1.187,3.1,2.824c0.739,15.795,5.046,39.212,12.309,41.814
				c1.541,0.553,2.343,2.25,1.791,3.791C2698.326,2377.91,2697.185,2378.665,2695.969,2378.665z"/>
			<path style="fill:#663720;" d="M2361.53,2280.834c-0.759,0-1.517-0.29-2.096-0.868c-14.124-14.124-12.784-38.314-12.72-39.338
				c0.102-1.631,1.513-2.872,3.141-2.772c1.633,0.1,2.876,1.507,2.777,3.14c-0.014,0.224-1.218,22.564,10.995,34.778
				c1.157,1.158,1.157,3.034,0,4.192C2363.047,2280.545,2362.289,2280.834,2361.53,2280.834z"/>
		</g>
		<path id="XMLID_00000059270681638209983550000008507079694484721281_" style="fill:#F1DCE3;" d="M1573.576,3373.203
			c0,0-117.709,65.279-128.084,191.271c-10.376,125.992-72.631,217.893-114.134,235.68c-17.239,7.382-44.957,89.944-123.635,177.16
			c-249.421-38.39-484.819-157.905-643.421-338.727c-146.566-167.111-223.703-369.424-263.532-582.129l49.33-28.563
			c28.163-22.234,830.067-235.68,917.521-231.233c40.064,2.037-26.834,173.154,34.629,303.877
			C1374.949,3255.162,1573.576,3373.203,1573.576,3373.203z"/>
	</g>
	<g>
		<path style="fill:#E3755E;" d="M1008.2,2245.124c0,0,190.586-312.343-77.795-543.113l-296.01,302.382L1008.2,2245.124z"/>
		<path style="fill:#B05F39;" d="M2492.843,1935.349l-0.014,0.03c-8.553,22.278-47.521,29.468-104.618,22.323
			c-70.037-8.76-134.323-24.695-136.323-25.184c1.749,0.697,56.874,22.634,107.479,47.937
			c38.598,19.299,74.587,40.555,82.206,55.807c3.261,6.507,1.542,12.614-4.209,17.787c-25.688,23.049-132.04,27.125-237.399-37.056
			c0,0-226.786-35.574-299.417-66.702c-53.569-22.96-88.595,15.371-93.768,48.974c-2.506,16.186,8.389,31.439,24.472,34.625
			c61.395,12.169,259.381,52.754,293.118,76.485c3.809,2.683,7.382,5.885,10.628,9.501c23.627,26.132,31.409,73.565,0.963,97.978
			c-9.531,7.663-22.841,13.044-40.584,14.808c-82.177,8.153-237.814-48.174-274.871-51.138
			c-37.057-2.965-340.92,14.823-449.126-63.737c-108.205-78.56-94.865-72.631-206.035-72.631
			c-111.17,0-365.408,188.307-365.408,188.307l-65.931-597.411l196.4,65.961c0,0,479.512,94.124,710.745,33.351
			c0,0,133.404-42.986,243.091-11.858c109.688,31.128,174.804,32.299,174.804,32.299s177.56,26.102,276.664,45.698
			c34.922,6.907,60.105,13,64.36,16.868c7.011,6.374,10.183,15.742,8.701,25.198c-1.957,12.54-12.125,25.198-32.417,31.128
			c0,0,17.283,0.711,38.598,3.928c32.031,4.832,73.164,15.327,78.5,37.575C2495.2,1923.505,2494.948,1929.879,2492.843,1935.349z"/>
		<g>
			<path style="fill:#EBDDC3;" d="M2135.959,2217.853c-35.945-1.097-129.772-9.19-115.349-64.493
				c9.842-37.709,65.101-39.754,114.386-33.484C2158.623,2146.008,2166.404,2193.44,2135.959,2217.853z"/>
			<path style="fill:#EBDDC3;" d="M2442.847,2045.655c-1.277,5.144-6.551,8.29-11.761,7.314
				c-19.702-3.693-41.046-10.516-57.698-19.672c-22.545-12.407-17.654-40.229-14.022-52.843
				c38.598,19.299,74.587,40.555,82.206,55.807C2443.203,2039.515,2443.588,2042.668,2442.847,2045.655z"/>
			<path style="fill:#EBDDC3;" d="M2494.49,1922.534c0.577,6.955-5.096,12.847-12.073,12.702c-4.004-0.083-8.458-0.228-12-0.48
				c-72.557-5.114-64.522-38.865-55.466-56.133c32.031,4.832,73.164,15.327,78.5,37.575
				C2493.977,1918.394,2494.322,1920.506,2494.49,1922.534z"/>
			<path style="fill:#EBDDC3;" d="M2408.449,1832.808c1.28,5.749-2.869,11.322-8.737,11.833c-7.042,0.613-14.81,0.796-23.36,0.408
				c-45.653-2.075-45.09-28.118-40.643-43.549c34.922,6.907,60.105,13,64.36,16.868
				C2404.369,1822.278,2407.226,1827.315,2408.449,1832.808z"/>
		</g>
		<g>
			<path style="fill:#663720;" d="M2226.641,1923.609c-0.452,0-0.911-0.103-1.341-0.321l-177.872-90.418
				c-1.459-0.743-2.041-2.527-1.3-3.987c0.742-1.46,2.525-2.042,3.986-1.3l177.872,90.418c1.459,0.743,2.042,2.527,1.3,3.987
				C2228.763,1923.017,2227.722,1923.609,2226.641,1923.609z"/>
			<path style="fill:#663720;" d="M2357.083,1871.73c-14.922,0-188.77-64.031-208.543-71.332c-1.536-0.568-2.322-2.271-1.754-3.807
				c0.567-1.537,2.273-2.328,3.808-1.754c77.258,28.525,196.004,70.965,206.49,70.965c1.637,0,2.965,1.327,2.965,2.965
				C2360.048,1870.402,2358.72,1871.73,2357.083,1871.73z"/>
			<path style="fill:#663720;" d="M1919.812,1793.17c-0.586,0-1.179-0.174-1.696-0.536c-0.293-0.204-29.883-20.617-80.564-33.651
				c-25.576-6.576-39.037-2.993-45.826,1.172c-6.916,4.243-8.337,9.885-8.35,9.94c-0.355,1.599-1.939,2.604-3.537,2.251
				c-1.599-0.355-2.606-1.938-2.251-3.536c0.073-0.329,1.89-8.097,11.037-13.708c11.297-6.929,28.255-7.557,50.403-1.86
				c51.805,13.32,81.258,33.674,82.486,34.534c1.341,0.939,1.667,2.786,0.729,4.127
				C1921.668,1792.728,1920.747,1793.17,1919.812,1793.17z"/>
			<path style="fill:#663720;" d="M1799.752,2028.851c-0.311,0-0.627-0.049-0.938-0.153c-13.7-4.567-45.172-39.829-48.715-43.834
				c-1.084-1.226-0.97-3.099,0.256-4.185c1.226-1.087,3.099-0.971,4.185,0.256c9.337,10.554,35.829,38.698,46.15,42.137
				c1.553,0.518,2.392,2.197,1.875,3.75C1802.15,2028.065,1800.994,2028.851,1799.752,2028.851z"/>
			<path style="fill:#663720;" d="M2108.066,1943.903c-0.104,0-0.21-0.006-0.316-0.016c-1.628-0.174-2.808-1.633-2.635-3.261
				c4.313-40.699,0.122-57.607,0.079-57.772c-0.408-1.582,0.54-3.201,2.121-3.613c1.584-0.413,3.197,0.53,3.614,2.109
				c0.187,0.711,4.534,17.883,0.081,59.901C2110.85,1942.773,2109.563,1943.903,2108.066,1943.903z"/>
			<path style="fill:#663720;" d="M2137.704,1954.501c-1.426,0-2.683-1.031-2.921-2.484c-2.949-17.932-5.632-49.35-5.658-49.666
				c-0.138-1.631,1.072-3.066,2.703-3.205c1.631-0.152,3.066,1.073,3.205,2.704c0.026,0.313,2.689,31.504,5.6,49.206
				c0.266,1.615-0.828,3.14-2.444,3.406C2138.027,1954.488,2137.865,1954.501,2137.704,1954.501z"/>
		</g>
		<path id="XMLID_00000025424627284473108070000004109031509780671106_" style="fill:#F1DCE3;" d="M1008.2,2245.124
			c-0.608,30.282-211.94,121.682-330.521,183.937c-89.232,46.84-223.777,410.928-393.541,522.631
			c-16.838-127.178-22.501-256.579-23.583-383.09c-3.172-368.728,51.049-718.231,340.076-942.334
			c16.231-12.57,33.203-24.769,50.946-36.552c101.268,34.196,211.875,86.683,278.828,112.296c0,0-58.026,130.933-35.815,263.767
			C911.138,2064.743,1010.035,2155.032,1008.2,2245.124z"/>
	</g>
	<g>
		<path style="fill:#FFFFFF;" d="M3269.016,3655.356l-17.239-13.441c-6.206-4.838-7.314-13.791-2.475-19.997l424.715-544.716
			l39.711,30.963l-424.715,544.715C3284.175,3659.087,3275.222,3660.195,3269.016,3655.356z"/>
		<path style="fill:#3C3B3D;" d="M3440.001,3432.444l-13.731-10.706c-2.365-1.844-2.787-5.255-0.943-7.62l255.226-327.339
			l22.294,17.383l-255.226,327.339C3445.777,3433.866,3442.365,3434.288,3440.001,3432.444z"/>
		<path style="fill:#BE4C38;" d="M3781.051,2999.346l-17.914-13.968c-8.68-6.768-20.925-5.576-27.348,2.663l-6.194,7.943
			c-1.125-0.635-2.411-1.147-3.894-1.42c-5.878-1.078-12.197,1.992-18.787,9.13c-14.442,15.649-94.473,121.019-97.873,125.496
			c-1.837,2.42-1.364,5.87,1.055,7.707c0.995,0.755,2.163,1.119,3.322,1.119c1.661,0,3.303-0.749,4.385-2.174
			c0.829-1.093,83.107-109.424,97.194-124.688c3.014-3.265,5.432-4.907,7.069-5.514l-72.966,93.582c0,0,35.931,16.813,49.348,38.477
			l0,0l86.689-111.182C3791.561,3018.279,3789.731,3006.114,3781.051,2999.346z"/>
	</g>
	<g>
		<path style="fill:#3C3B3D;" d="M1801.106,3681.482c35.062-49.549,91.106-82.511,150.71-94.365
			c2.113-0.395,4.227-0.793,6.394-1.166c78.851-13.646,162.019,10.08,233.658,43.121c3.529,1.597,6.997,3.263,10.45,4.891
			c126.692,60.928,241.179,163.769,202.793,276.688c-36.934,108.645-159.806,133.463-278.739,129.513
			c-4.486-0.13-8.986-0.297-13.486-0.465c-82.185-2.977-170.344-9.562-241.877-53.158
			C1768.554,3924.114,1730.205,3781.583,1801.106,3681.482z"/>
		<path style="fill:#555457;" d="M2112.886,4039.7c-58.011-175.987,5.745-318.253,78.982-410.627
			c3.529,1.597,6.997,3.263,10.45,4.891c126.692,60.928,241.179,163.769,202.793,276.688
			c-36.934,108.645-159.806,133.463-278.739,129.513C2121.886,4040.035,2117.386,4039.867,2112.886,4039.7z"/>
		<path style="display:none;fill:#CBB3A2;" d="M3049.847,3634.539c-12.258,49.704-34.129,97.206-65.654,137.552
			c-14.788,18.926-30.872,35.568-49.308,50.405c-18.579,14.952-38.344,27.343-59.196,36.734
			c-45.008,20.271-96.022,29.106-145.123,17.161c-49.991-12.161-93.84-48.722-116.15-95.029
			c-10.191-21.151-16.072-45.304-14.451-67.953c0.803-11.223,2.583-20.181,7.209-29.613c1.173-2.391,2.174-4.058,2.694-4.807
			c1.385-1.992,2.869-3.906,4.507-5.698c0.11-0.12,2.916-2.821,1.063-1.15c0.889-0.802,1.816-1.565,2.767-2.291
			c1-0.763,2.064-1.42,3.083-2.153c2.067-1.488-1.038,0.267,1.458-0.844c2.271-1.011,4.549-1.897,6.948-2.561
			c-2.488,0.688,1.369-0.232,1.571-0.262c1.228-0.187,2.464-0.322,3.703-0.409c4.321-0.304,8.948,0.208,14.649,1.707
			c8.813,2.318,19.058,8.4,26.958,15.014c18.866,15.797,30.505,38.557,34.594,62.906c4.079,24.294,1.683,49.839-7.544,72.495
			c-9.868,24.229-27.623,43.724-50.095,58.105c-22.266,14.249-47.999,22.92-73.508,29.304c-25.464,6.373-51.782,9.573-77.981,10.693
			c-55.987,2.391-111.977-5.645-166.504-17.832c-56.96-12.731-112.699-30.273-167.982-48.852
			c-13.98-4.698-27.936-9.468-41.886-14.254c-6.358-2.182-13.526-0.325-16.484,6.211c-2.573,5.685-0.183,14.29,6.211,16.484
			c59.965,20.575,120.136,40.891,181.57,56.691c59.198,15.225,119.767,26.065,181.031,26.765
			c28.636,0.327,57.337-1.762,85.504-7.031c28.78-5.385,57.705-13.35,84.003-26.43c27.696-13.776,52.245-33.139,68.63-59.704
			c14.829-24.043,21.678-52.139,21.824-80.255c0.151-29.034-8.127-59.144-25.287-82.779c-15.459-21.292-39.292-39.82-65.972-43.519
			c-25.974-3.601-48.759,9.169-61.067,31.945c-11.903,22.026-12.685,49.855-8.584,74.018c9.8,57.741,49.406,107.807,99.778,136.358
			c51.376,29.12,112.902,30.345,168.768,14.926c49.724-13.723,94.349-41.855,130.744-78.081
			c38.665-38.484,67.557-86.79,85.655-138.115c4.821-13.671,8.948-27.598,12.419-41.672c1.612-6.534-3.903-13.3-10.19-14.372
			C3057.169,3623.146,3051.463,3627.989,3049.847,3634.539L3049.847,3634.539z"/>
		<path style="fill:#3C3B3D;" d="M2101.541,3835.973c80.602,39.233,162.398,79.315,250.499,98.634
			c83.256,18.256,170.184,15.84,249.366-17.705c32.733-13.867,63.807-32.627,88.504-58.444
			c21.991-22.989,40.361-50.126,51.654-79.952c10.727-28.33,13.656-61.098-1.406-88.467c-15.755-28.629-47.625-46.862-80.366-43.377
			c-32.917,3.503-65.027,23.784-79.335,54.215c-16.172,34.396-10.959,74.64,6.769,107.367c17.63,32.545,48.475,57.051,81.723,72.405
			c31.278,14.444,65.544,20.917,99.94,20.096c71.073-1.698,140.17-30.988,198.307-70.479c28.771-19.544,55.739-42.033,79.561-67.4
			c26.594-28.319,48.993-60.646,68.309-94.28c42.894-74.691,70.115-157.368,91.152-240.541
			c19.521-77.178,30.099-160.325,70.634-230.203c9.488-16.356,20.618-31.518,33.683-45.197c9.334-9.773-5.492-24.646-14.849-14.849
			c-53.659,56.183-74.413,132.999-91.378,206.694c-18.279,79.401-37.305,158.632-68.525,234.145
			c-28.321,68.502-66.75,134.922-120.766,186.383c-48.125,45.849-107.122,82.816-170.973,102.055
			c-61.315,18.475-128.958,18.817-184.934-15.49c-29.184-17.887-53.342-43.271-63.155-76.703
			c-9.054-30.847-4.106-64.968,20.456-87.192c19.706-17.83,51.681-27.484,76.59-14.983c25.23,12.662,38.131,38.302,36.493,65.484
			c-1.705,28.301-16.009,55.454-32.046,78.278c-16.771,23.869-37.576,43.822-61.742,59.059
			c-66.29,41.799-147.365,55.553-224.564,47.6c-85.252-8.783-165.885-41.978-242.735-78.19
			c-18.831-8.873-37.548-17.985-56.265-27.096C2100.037,3811.949,2089.378,3830.053,2101.541,3835.973L2101.541,3835.973z"/>
	</g>
	<g>
		<g>
			<defs>
				<path id="XMLID_00000169559630884428876180000001820471972678747823_" d="M2627.25,1261.342
					c0.755,0.297-5.93-19.943-6.992-21.734c-4.706-7.935-10.026-15.502-15.899-22.617c-16.583-20.085-38.12-35.256-58.859-50.697
					c-1.395-1.038-11.472-10.198-13.221-9.589c0.908-0.316,1.806-0.632,2.684-0.957c48.962-17.956,78.399-68.379,70.393-119.918
					c-5.183-33.365-16.239-60.512-28.824-81.962c-23.484-40.039-63.572-67.58-109.257-75.734
					c-246.212-43.938-270.624,114.706-270.624,114.706c-12.833,34.55-20.73,229.016,168.801,227.042
					c189.531-1.974,215.197,104.637,211.248,78.971v-18.756l12.912,2.764c0.464,0.098,0.889-0.257,0.869-0.731l-0.948-18.815
					l19.644,5.36c0.987,0.266,1.935-0.553,1.797-1.57l-2.355-18.045c-0.117-0.895,0.923-1.47,1.619-0.884
					C2615.363,1252.487,2621.207,1258.96,2627.25,1261.342z M2486.664,1040.144c-56.011,34.363-161.714,40.799-206.569-4.718
					c-0.276-7.581,1.856-15.172,6.239-21.678c12.26-18.242,33.119-33.049,54.944-37.886c27.571-6.101,57.846-9.812,85.881-5.015
					c24.984,4.264,50.186,17.383,63.621,39.002c4.6,7.394,6.091,15.429,5.232,23.306
					C2493.09,1035.781,2489.961,1038.12,2486.664,1040.144z"/>
			</defs>
			<use xlink:href="#XMLID_00000169559630884428876180000001820471972678747823_"  style="overflow:visible;fill:#E1AF8B;"/>
			<clipPath id="XMLID_00000080908798266484526230000016778056313007238579_">
				<use xlink:href="#XMLID_00000169559630884428876180000001820471972678747823_"  style="overflow:visible;"/>
			</clipPath>
		</g>
		<path style="fill:#55352D;" d="M2378.333,1131.345c-23.096,0-45.725-2.635-66.766-7.905c-49.009-12.275-86.6-38.311-108.71-75.292
			c-0.559-0.936-0.255-2.148,0.681-2.708c0.937-0.56,2.147-0.254,2.708,0.681c46.563,77.881,153.923,93.139,239.666,73.712
			c58.084-13.161,125.03-51.202,138.728-118.501c0.218-1.069,1.258-1.76,2.329-1.541c1.069,0.217,1.759,1.26,1.541,2.328
			c-6.252,30.713-24.483,58.595-52.726,80.631c-24.187,18.872-55.794,33.409-89,40.933
			C2424.242,1128.791,2401.062,1131.345,2378.333,1131.345z"/>
		<path style="fill:#55352D;" d="M2525.371,1161.643c-0.29,0-0.585-0.064-0.863-0.2c-0.607-0.295-61.101-29.54-100.255-29.966
			c-1.09-0.012-1.964-0.906-1.953-1.996c0.012-1.083,0.894-1.953,1.974-1.953c0.007,0,0.014,0,0.022,0
			c40.046,0.436,99.432,29.142,101.941,30.364c0.98,0.477,1.387,1.659,0.91,2.64
			C2526.805,1161.235,2526.102,1161.643,2525.371,1161.643z"/>
		<path style="fill:#C29778;" d="M2496.012,1033.155c0.859-7.877-0.632-15.913-5.232-23.306
			c-13.435-21.618-38.637-34.737-63.621-39.002c-28.035-4.797-58.311-1.086-85.881,5.015c-21.826,4.837-42.684,19.644-54.944,37.886
			c-4.383,6.505-6.515,14.097-6.239,21.678c-6.841-6.94-12.26-15.093-15.883-24.531c-5.715-14.916-3.041-28.785,4.087-40.858
			c21.411-36.268,77.589-54.569,117.331-56.366c43-1.945,101.745,12.971,125.347,51.874
			C2524.846,988.408,2514.846,1016.324,2496.012,1033.155z"/>
	</g>
</g>
</svg>
