<?xml version="1.0" encoding="utf-8"?>
<!-- Generator: Adobe Illustrator 27.5.0, SVG Export Plug-In . SVG Version: 6.00 Build 0)  -->
<svg version="1.1" id="Layer_1" xmlns="http://www.w3.org/2000/svg" xmlns:xlink="http://www.w3.org/1999/xlink" x="0px" y="0px"
	 viewBox="0 0 5000 5000" style="enable-background:new 0 0 5000 5000;" xml:space="preserve">
<g>
	<path style="fill:#FFFFFF;" d="M375.001,375.001h4249.998v4249.998H375.001V375.001z"/>
	<path style="fill:#F7851D;" d="M737.851,1742.948c11.128-0.498,22.801-1.556,33.903-0.432c6.525,0.66,9.876,2.042,13.861,7.205
		c-0.476,6.043-1.082,7.006-4.548,12.036c-10.287,1.212-21.561,2.312-31.882,1.54c-6.888-0.519-10.23-2.038-14.717-7.201
		C733.902,1750.232,734.949,1748.016,737.851,1742.948z"/>
	<path style="fill:#F79317;" d="M638.395,1742.948c12.236-0.444,25.12-1.494,37.201,0.921c6.685,1.336,9.954,3.171,13.751,8.762
		c-0.469,4.449-1.186,6.711-3.612,10.475c-11.995,0.303-24.761,1.378-36.686,0.137c-6.122-0.635-9.419-2.15-13.342-6.811
		C634.825,1750.465,635.621,1748.261,638.395,1742.948z"/>
	<path style="fill:#F79317;" d="M703.927,1677.621c3.825,0.49,6.81,1.241,10.464,2.362c3.296,3.598,4.704,6.437,5.805,11.119
		c3.08,13.094,2.544,31.086-4.788,42.533c-3.3-0.909-6.199-2.217-9.329-3.582c-5.228-6.188-7.465-13.057-8.147-21.142
		C697.072,1698.734,697.326,1685.768,703.927,1677.621z"/>
	<path style="fill:#F79317;" d="M4304.639,2112.416c12.713-1.017,30.493-2.989,41.695,4.208c2.889,1.859,2.366,3.374,2.992,6.45
		c-3.038,5.491-6.636,8.193-11.521,11.866c-11.845-0.988-35.485,1.125-45.007-5.989c-2.378-1.776-1.631-3.175-1.734-5.831
		C4295.205,2118.09,4298.969,2115.566,4304.639,2112.416z"/>
	<path style="fill:#F79317;" d="M706.849,1770.619c2.957,0.56,5.541,1.087,8.043,2.926c4.724,3.474,6.392,9.135,7.227,14.655
		c2.025,13.393-0.879,29.401-9.213,40.163c-3.927-1.793-7.228-3.789-10.77-6.255c-3.025-5.362-4.919-9.977-5.679-16.153
		C694.879,1793.147,699.31,1780.725,706.849,1770.619z"/>
	<path style="fill:#F9AD2A;" d="M4263.521,2142.137c5.682-0.212,8.874-0.618,14.003,2.254c3.453,4.445,5.69,8.114,6.74,13.734
		c2.308,12.381-0.984,25.475-7.662,35.855c-3.375,0.062-6.296-0.419-9.617-0.951c-3.44-2.424-5.25-3.947-7.167-7.827
		C4253.884,2173.182,4259.238,2153.858,4263.521,2142.137z"/>
	<path style="fill:#F79317;" d="M4200.02,2109.909c13.14-0.681,30.431-0.668,42.774,4.042c4.773,1.822,6.196,3.428,8.077,8.01
		c-1.416,5.304-3.383,7.097-7.425,10.704c-12.563,1.125-30.306,2.698-42.226-1.61c-5.109-1.847-6.52-3.619-8.604-8.438
		C4193.753,2116.263,4195.716,2114.383,4200.02,2109.909z"/>
	<path style="fill:#F79317;" d="M4265.737,2044.474c3.279,0.232,7.247,0.116,10.16,1.876c4.478,2.706,6.487,8.745,7.462,13.592
		c2.59,12.879-0.569,30.115-7.545,41.151c-4.752-1.17-8.031-2.432-12.177-5.039c-3.607-5.873-5.807-12.152-6.417-19.075
		C4256.187,2065.263,4258.677,2053.829,4265.737,2044.474z"/>
	<path style="fill:#F8D88C;" d="M4320.925,2576.691c12.335,4.885,16.191,11.609,21.341,23.695
		c19.163,44.974,17.208,125.213,1.416,171.05l-10.052-1.615c0.849-2.75,1.646-5.515,2.391-8.296c0.742-2.781,1.43-5.574,2.066-8.38
		c0.634-2.808,1.213-5.628,1.739-8.458c0.523-2.831,0.992-5.669,1.407-8.517s0.773-5.703,1.075-8.567
		c0.305-2.861,0.553-5.728,0.747-8.599c0.191-2.872,0.327-5.747,0.407-8.625c0.081-2.878,0.104-5.755,0.071-8.633
		c-0.031-2.878-0.118-5.754-0.262-8.629c-0.144-2.875-0.343-5.745-0.598-8.612s-0.566-5.728-0.934-8.583
		c-0.365-2.856-0.787-5.701-1.266-8.537c-0.476-2.839-1.007-5.668-1.594-8.488c-0.586-2.816-1.229-5.621-1.926-8.413
		c-0.697-2.795-1.447-5.573-2.25-8.334c-0.805-2.764-1.663-5.512-2.573-8.243c-5.449-16.718-12.891-32.618-18.17-49.423
		L4320.925,2576.691z"/>
	<path style="fill:#BCCAE9;" d="M856.683,1257.083c7.388-0.253,14.07-0.112,21.192,2.133c10.322,3.258,19.474,9.886,24.408,19.693
		c4.823,9.596,4.943,20.428,0.963,30.323c-5.545,13.775-15.427,19.644-28.584,25.102c-7.197,1.448-15.278,1.751-22.425-0.125
		c-10.301-2.706-19.195-9.239-23.989-18.851c-4.835-9.699-5.022-21.37-1.245-31.46
		C832.54,1269.107,842.916,1263.172,856.683,1257.083z"/>
	<path style="fill:#BFBCD8;" d="M4333.629,2769.821l10.052,1.615c-0.86,3.644-1.81,7.266-2.847,10.866
		c-1.035,3.597-2.157,7.167-3.366,10.712c-1.209,3.544-2.504,7.057-3.885,10.538s-2.844,6.926-4.391,10.334
		c-1.547,3.412-3.176,6.783-4.889,10.115c-1.71,3.329-3.5,6.616-5.371,9.861c-1.87,3.243-3.818,6.44-5.844,9.592
		c-2.025,3.149-4.126,6.247-6.305,9.293c-2.174,3.049-4.422,6.043-6.744,8.981c-2.321,2.936-4.712,5.814-7.172,8.637
		c-2.463,2.822-4.991,5.583-7.587,8.284c-2.595,2.7-5.254,5.336-7.977,7.906s-5.506,5.073-8.351,7.508
		c-2.844,2.435-5.747,4.799-8.708,7.093c-2.958,2.294-5.971,4.515-9.04,6.665c-3.065,2.147-6.183,4.219-9.351,6.217
		c-42.646,26.479-99.423,38.337-148.538,26.251c-16.477-4.055-35.274-10.405-49.518-19.739l-0.091-24.857
		c10.534,3.358,20.98,7.019,31.551,10.251c53.88,16.49,105.345,10.617,154.896-16.307
		C4275.325,2865.093,4318.551,2819.8,4333.629,2769.821z"/>
	<path style="fill:#31C58F;" d="M1881.065,800.76c72.928,1.242,145.86,1.581,218.796,1.017
		c-0.764,69.486,1.469,139.042,1.033,208.565c-73.009-2.167-146.16,0.1-219.203-1.54
		C1881.877,939.455,1881.668,870.108,1881.065,800.76z"/>
	<path style="fill:#FFFFFF;" d="M1954.402,909.347c20.495-0.498,47.19-5.894,66.481,1.855c4.088,5.163,3.333,6.583,3.362,12.978
		c-20.482,0.764-46.991,5.545-66.41-2.088C1953.539,916.926,1954.303,916.191,1954.402,909.347z"/>
	<path style="fill:#F9AD2A;" d="M4376.834,2400.183c11.974,13.094,27.252,23.138,41.143,34.12
		c4.997,3.225,10.691,5.74,12.655,11.692c-15,24.529-38.47,46.767-57.5,68.286c-18,20.354-34.677,41.678-52.208,62.409l-6.964,7.794
		c-44.334,52.498-92.641,101.436-136.676,154.054c-39.74-50.444-90.088-92.607-134.008-139.395l0.12-23.408
		c-1.295-40.615-0.589-81.572-0.826-122.225c4.029-0.188,8.057-0.338,12.086-0.448c84.033-2.233,148.401,18.768,209.777,76.774
		C4302.501,2487.163,4338.079,2442.417,4376.834,2400.183z"/>
	<path style="fill:#EE4515;" d="M4417.978,2434.303c4.997,3.225,10.691,5.74,12.655,11.692c-15,24.529-38.47,46.767-57.5,68.286
		c-18,20.354-34.677,41.678-52.208,62.409l-6.964,7.794c-44.334,52.498-92.641,101.436-136.676,154.054
		c-39.74-50.444-90.088-92.607-134.008-139.395l0.12-23.408c45.696,45.198,89.092,92.72,134.988,137.764
		c27.455-28.388,52.971-59.462,79.276-89.001C4312.79,2562.596,4368.069,2500.544,4417.978,2434.303z"/>
	<path style="fill:#FCBF4B;" d="M4313.96,2584.485c5.279,16.805,12.721,32.705,18.17,49.423c0.911,2.731,1.768,5.479,2.573,8.243
		c0.803,2.761,1.552,5.539,2.25,8.334c0.697,2.792,1.339,5.596,1.926,8.413c0.586,2.82,1.118,5.649,1.594,8.488
		c0.479,2.836,0.901,5.682,1.266,8.537c0.368,2.855,0.679,5.716,0.934,8.583s0.454,5.737,0.598,8.612
		c0.144,2.875,0.231,5.751,0.262,8.629c0.033,2.877,0.01,5.755-0.071,8.633c-0.08,2.877-0.216,5.752-0.407,8.625
		c-0.194,2.872-0.442,5.739-0.747,8.599c-0.301,2.864-0.66,5.719-1.075,8.567s-0.884,5.686-1.407,8.517
		c-0.526,2.831-1.105,5.65-1.739,8.458c-0.636,2.806-1.325,5.599-2.066,8.38c-0.745,2.781-1.542,5.546-2.391,8.296
		c-15.079,49.979-58.305,95.272-103.474,119.818c-49.551,26.924-101.016,32.796-154.896,16.307
		c-10.571-3.233-21.018-6.894-31.551-10.251c-0.656-98.851-0.8-197.701-0.432-296.549c43.919,46.787,94.268,88.951,134.008,139.395
		C4221.32,2685.921,4269.626,2636.984,4313.96,2584.485z"/>
	<path style="fill:#0C976D;" d="M2501.926,976.102c-0.332-36.416-2.237-74.861,25.463-103.125
		c13.875-14.165,36.976-23.885,56.732-26.035c35.357-3.843,74.549-0.212,110.354-0.046l228.861,0.299l525.497-0.967
		c84.556,0.021,169.282-1.262,253.813,0.021c31.389,0.477,57.562,5.744,80.09,29.875c26.757,28.667,27.538,64.007,26.882,100.688
		c-244.063,1.984-488.129,2.457-732.199,1.419l-186.589-0.187c-23.18,0.017-65.696-3.158-86.357,2.171
		c-17.992-4.105-32.747-3.416-50.797-0.548c-25.512-4.316-55.138-1.81-81.186-1.967
		C2615.63,977.661,2558.775,977.128,2501.926,976.102z"/>
	<path style="fill:#F8A698;" d="M3807.692,1261.42c70.362-42.911,137.996-61.43,220.335-41.213
		c74.388,18.266,137.486,62.675,176.678,128.563c38.192,64.219,53.789,142.935,35.229,216.165
		c-18.402,72.599-63.277,137.627-128.43,175.503c-21.781,12.667-43.865,20.063-68.29,25.861
		c0.917-34.851,3.623-67.029-8.691-100.352l-8.761-16.701c-4.613-5.758-9.55-11.221-14.813-16.39
		c-37.524-36.565-80.945-37.08-130.276-36.951l-73.163,0.344C3805.492,1485.085,3804.907,1372.555,3807.692,1261.42z"/>
	<path style="fill:#FFFFFF;" d="M4025.762,1649.245c39.906-15.178,64.597-41.628,81.825-80.439c1.196-2.7,2.325-5.43,3.387-8.189
		c1.06-2.756,2.051-5.537,2.976-8.342c0.924-2.808,1.779-5.636,2.565-8.483c0.783-2.847,1.497-5.712,2.142-8.595
		c0.642-2.886,1.213-5.784,1.714-8.695c0.501-2.911,0.929-5.833,1.283-8.766c0.357-2.933,0.64-5.873,0.851-8.82
		c0.21-2.947,0.349-5.898,0.415-8.853c0.066-2.952,0.058-5.905-0.025-8.857c-0.08-2.955-0.232-5.905-0.457-8.849
		c-0.227-2.947-0.525-5.885-0.896-8.816c-0.371-2.93-0.814-5.851-1.332-8.761c-0.515-2.908-1.1-5.802-1.755-8.683
		c-0.659-2.88-1.388-5.743-2.188-8.587c-0.799-2.844-1.669-5.667-2.606-8.467c-0.938-2.803-1.945-5.58-3.021-8.33
		c-15.871-40.749-44.027-73.669-84.668-90.943c-9.118-3.876-29.248-7.371-34.12-15.327l0.809-5.935
		c7.977-3.557,16.236,0.17,24.01,3.117c48.842,18.515,81.439,50.319,103.017,98.016c1.278,2.836,2.487,5.701,3.627,8.596
		c1.137,2.894,2.202,5.815,3.196,8.761c0.993,2.95,1.913,5.92,2.76,8.911c0.847,2.994,1.62,6.007,2.32,9.04
		c0.697,3.03,1.32,6.076,1.868,9.139c0.548,3.06,1.02,6.133,1.416,9.218c0.396,3.085,0.715,6.179,0.958,9.28
		c0.244,3.102,0.409,6.206,0.498,9.313c0.091,3.11,0.105,6.22,0.042,9.33c-0.066,3.11-0.208,6.216-0.423,9.318
		c-0.219,3.104-0.512,6.201-0.88,9.289c-0.371,3.088-0.818,6.165-1.341,9.23c-0.522,3.066-1.121,6.118-1.793,9.156
		c-0.672,3.038-1.419,6.057-2.241,9.056s-1.717,5.976-2.685,8.932c-0.968,2.955-2.01,5.885-3.125,8.791
		c-17.344,44.177-49.203,76.662-89.358,100.946L4025.762,1649.245z"/>
	<path style="fill:#31C58F;" d="M955.931,2846.794c-103.345-1.955-203.232-38.698-277.287-112.04
		c-74.467-73.757-115.866-179.554-115.97-284.069c0.013-3.326,0.066-6.65,0.161-9.973c0.095-3.323,0.23-6.645,0.407-9.965
		s0.394-6.638,0.652-9.953c0.259-3.315,0.558-6.625,0.898-9.932c0.34-3.306,0.721-6.609,1.143-9.907
		c0.422-3.298,0.884-6.591,1.387-9.878c0.503-3.287,1.046-6.567,1.63-9.841c0.584-3.271,1.208-6.536,1.872-9.795
		c0.664-3.257,1.369-6.505,2.113-9.745c0.744-3.24,1.529-6.472,2.353-9.695c0.824-3.22,1.688-6.43,2.591-9.629
		c0.903-3.198,1.846-6.386,2.828-9.563c0.982-3.179,2.003-6.343,3.063-9.492c1.06-3.151,2.159-6.289,3.296-9.413
		c1.138-3.126,2.313-6.237,3.527-9.33c1.214-3.096,2.466-6.176,3.756-9.239c1.29-3.066,2.618-6.114,3.983-9.143
		c1.365-3.032,2.768-6.047,4.207-9.044c1.439-2.997,2.916-5.975,4.429-8.936c1.513-2.961,3.062-5.902,4.648-8.824
		c1.586-2.925,3.207-5.827,4.864-8.708c1.657-2.883,3.35-5.745,5.078-8.587c1.728-2.839,3.49-5.657,5.288-8.454
		c1.797-2.797,3.629-5.572,5.495-8.326c1.866-2.75,3.765-5.479,5.698-8.184c1.933-2.703,3.899-5.384,5.898-8.043
		c1.999-2.656,4.031-5.288,6.095-7.894c2.064-2.607,4.16-5.187,6.288-7.74c2.128-2.554,4.286-5.082,6.477-7.583
		c2.19-2.501,4.411-4.976,6.662-7.425c2.251-2.446,4.532-4.864,6.843-7.255c2.311-2.391,4.651-4.752,7.02-7.085
		c54.648-54.15,139.346-88.175,215.153-96.501c19.374-2.125,39.097-1.66,58.57-1.615c-2.088,45.472-1.121,91.28-1.17,136.805
		c-0.104,102.581,1.37,205.374-0.324,307.926c0.187,13.738,0.519,27.492,0.535,41.23L955.931,2846.794z"/>
	<path style="fill:#0C976D;" d="M956.084,2551.95c-46.127-36.308-84.755-87.988-125.259-130.679
		c-21.644-22.811-53.538-50.709-71.941-74.018c-4.808-6.088-8.164-11.538-7.285-19.586c2.772-4.229,6.336-7.188,11.472-8.073
		c5.442-0.938,9.149-0.104,13.659,2.976c14.749,10.077,27.358,27.837,39.461,41.105l88.42,96.223
		c15.526,16.593,31.593,35.901,49.547,49.78c0.461,0.353,0.93,0.693,1.39,1.042C955.736,2524.458,956.068,2538.212,956.084,2551.95z
		"/>
	<path style="fill:#31C58F;" d="M2501.926,976.102c56.849,1.026,113.704,1.559,170.564,1.598
		c26.048,0.158,55.674-2.349,81.186,1.967c18.05-2.868,32.805-3.557,50.797,0.548c20.661-5.329,63.177-2.154,86.357-2.171
		l186.589,0.187c244.071,1.038,488.137,0.564,732.199-1.419l-1.926,284.609c-2.785,111.135-2.2,223.664-0.183,334.828
		c-106.449,2.926-213.409,0.951-319.916,0.959l-801.565-0.685c3.054-53.407-3.204-107.354-0.884-160.724
		c-3.744-31.306-4.404-70.279-1.054-101.701c-4.632-36.864,0.868-89.769-0.344-128.745c-1.058-33.88-12.551-60.446-37.606-83.232
		c-39.827-36.216-93.151-40.836-144.728-38.657L2501.926,976.102z"/>
	<path style="fill:#FFFFFF;" d="M3354.876,1021.216c22.333-0.643,108.649-4.437,122.636,6.682c2.611,2.079,4.433,3.81,4.773,7.184
		c0.793,7.807-4.03,12.953-8.815,18.357c-22.657,0.257-111.886,6.076-125.964-7.002c-1.834-1.706-4.233-4.881-4.109-7.574
		C3343.712,1032.037,3350.029,1025.504,3354.876,1021.216z"/>
	<path style="fill:#FFFFFF;" d="M3327.886,1396.781c22.856-0.374,116.012-6.317,131.476,4.179c4.242,2.876,6.703,5.873,6.881,11.189
		c0.195,5.782-3.233,10.525-6.292,15.041c-21.536,0.278-116.572,5.761-131.75-4.304c-4.316-2.86-6.752-5.479-7.006-10.874
		C3320.922,1406.032,3324.649,1401.347,3327.886,1396.781z"/>
	<path style="fill:#FFFFFF;" d="M2939.983,1021.034c31.244,0.004,182.518-5.549,198.779,4.507c2.598,4.968,3.553,8.043,2.195,13.709
		c-1.643,6.865-4.146,9.143-9.471,13.07c-28.198,2.187-177.18,4.864-194.263-4.113c-3.665-4.707-4.81-6.097-4.831-12.372
		C2932.371,1029.629,2935.982,1025.247,2939.983,1021.034z"/>
	<path style="fill:#FFFFFF;" d="M2939.825,1331.603c27.509-0.033,189.656-3.802,199.995,4.408c3.424,2.723,5.379,5.893,5.321,10.339
		c-0.087,6.304-5.258,11.584-9.043,16.145c-22.732,4.731-182.032,5.823-197.803-1.125c-2.407-2.739-5.018-4.657-5.781-8.35
		C2930.752,1344.511,2934.923,1338.111,2939.825,1331.603z"/>
	<path style="fill:#FFFFFF;" d="M3332.381,1333.998c45.422-1.233,91.089-0.548,136.531-0.759c26.758-0.125,55.458-2.345,82.062-0.05
		c6.226,0.535,10.409,1.457,15.722,4.756c2.125,3.154,3.914,4.553,3.959,8.525c0.104,9.156-4.379,14.003-10.305,20.237
		c-40.508,2.341-82.161,0.419-122.818,0.436c-31.717,0.008-65.36,2.391-96.758-0.822c-6.475-0.66-10.621-1.478-15.875-5.375
		c-2.731-4.76-3.844-6.147-3.055-11.837C3322.769,1342.407,3327.471,1338.057,3332.381,1333.998z"/>
	<path style="fill:#FFFFFF;" d="M2940.597,1136.656c38.731-0.477,310.175-4.931,327.458,3.299c2.917,3.964,4.009,4.997,3.959,10.144
		c-0.071,7.28-3.806,12.04-8.649,16.996c-33.743,1.133-314.147,1.029-325.245-2.905c-3.93-4.1-5.383-5.117-5.578-11.135
		C2932.338,1146.774,2936.828,1141.163,2940.597,1136.656z"/>
	<path style="fill:#FFFFFF;" d="M2959.361,1446.839c71.943,0.751,143.998-0.415,215.949-0.743
		c30.601-0.141,66.211-3.868,96.168,1.054c6.67,1.096,9.322,2.739,13.099,8.234c0.287,5.275-0.622,10.82-4.644,14.717
		c-5.176,5.01-9.073,4.545-15.743,5.275c-40.69,0.108-309.303,5.084-322.975-1.324c-5.993-2.81-7.898-6.483-10.04-12.455
		c0.809-5.4,2.067-8.591,6.404-12.206C2942.564,1445.233,2953.019,1446.673,2959.361,1446.839z"/>
	<path style="fill:#FFFFFF;" d="M2934.986,1390.107c71.557-2.648,143.964-0.17,215.608-0.232
		c38.707-0.033,89.329-4.217,126.346,0.975c5.57,3.76,6.661,4.462,9.546,10.455c0.021,7.496-1.864,11.555-5.358,18.108
		c-43.21,4.582-90.097,1.32-133.725,1.378c-68.83,0.095-138.27,1.996-207.026-0.598c-2.689-1.781-4.819-2.569-6.354-5.566
		C2929.889,1406.539,2932.4,1398.246,2934.986,1390.107z"/>
	<path style="fill:#FFFFFF;" d="M3199.751,1079.517l167.846-0.44c17.83-0.066,40.687-3.549,57.91-0.154
		c6.495,1.278,8.786,3.74,12.165,9.193c0.141,6.728,0.108,8.172-2.992,14.074c-5.308,3.897-9.496,5.557-16.128,6.101
		c-21.142,1.722-43.509-0.755-64.846-0.515c-58.413,0.49-116.815,1.581-175.208,3.275l-148.144,0.286
		c-24.811,0.149-58.537,5.159-82.41-1.146c-6.325-1.669-10.546-4.121-14.016-9.849c-0.868-5.931-0.32-8.886,1.378-14.452
		c4.657-3.968,7.512-5.516,13.771-5.89c24.309-1.453,50.041,0.299,74.5,0.212L3199.751,1079.517z"/>
	<path style="fill:#FFFFFF;" d="M2753.676,979.667c18.05-2.868,32.805-3.557,50.797,0.548c10.928,4.852,21.707,10.048,33.24,13.298
		c8.284,3.777,20.615,8.828,23.176,18.702c1.336,5.142-0.158,9.359-3.105,13.576c-2.187,3.121-5.188,5.997-7.811,8.77
		c2.802,24.346,5.823,47.979-3.544,71.466c-0.512,1.303-1.057,2.593-1.635,3.868c-0.581,1.276-1.193,2.536-1.835,3.781
		c-0.642,1.245-1.316,2.472-2.021,3.681c-0.705,1.209-1.442,2.4-2.208,3.574c-0.767,1.173-1.563,2.326-2.387,3.457
		c-0.824,1.132-1.678,2.243-2.561,3.333c-0.88,1.088-1.787,2.153-2.723,3.196c-0.938,1.043-1.899,2.061-2.885,3.055
		c-0.988,0.993-2,1.96-3.038,2.901c-1.038,0.941-2.099,1.855-3.183,2.744c-1.082,0.888-2.188,1.747-3.316,2.577
		c-1.126,0.833-2.273,1.635-3.441,2.407c-1.17,0.772-2.357,1.515-3.561,2.229c-1.206,0.711-2.431,1.392-3.673,2.042
		c-1.24,0.65-2.496,1.267-3.768,1.851c-1.273,0.587-2.56,1.14-3.86,1.66c-21.827,8.629-46.899,7.093-67.991-2.93
		c-1.336-0.645-2.656-1.324-3.96-2.038c-1.3-0.714-2.583-1.461-3.847-2.241c-1.262-0.78-2.502-1.592-3.723-2.436
		c-1.22-0.847-2.418-1.722-3.594-2.627c-1.176-0.907-2.327-1.844-3.453-2.81c-1.126-0.969-2.228-1.964-3.304-2.988
		c-1.073-1.024-2.121-2.075-3.142-3.154c-1.021-1.076-2.013-2.18-2.976-3.312c-0.963-1.129-1.895-2.283-2.797-3.461
		c-0.905-1.179-1.776-2.38-2.615-3.603c-0.841-1.223-1.65-2.467-2.428-3.731c-0.775-1.267-1.518-2.552-2.229-3.856
		c-0.708-1.306-1.382-2.627-2.021-3.964c-0.642-1.339-1.248-2.695-1.818-4.067c-0.57-1.37-1.104-2.755-1.602-4.155
		c-0.498-1.397-0.96-2.807-1.386-4.229c-7.658-24.753-4.283-50.622,8.625-72.968
		C2709.254,1000.988,2728.491,986.752,2753.676,979.667z"/>
	<path style="fill:#E83848;" d="M2837.713,993.513c8.284,3.777,20.615,8.828,23.176,18.702c1.336,5.142-0.158,9.359-3.105,13.576
		c-2.187,3.121-5.188,5.997-7.811,8.77c-29.833,26.563-53.797,59.434-82.531,87.241c-14.634-17-32.684-31.721-48.659-47.559
		c6.404-9.749,13.563-19.03,20.478-28.422l27.156,25.442C2786.609,1044.94,2812.885,1015.497,2837.713,993.513z"/>
	<path style="fill:#FFFFFF;" d="M2684.09,1334.098c15.68-22.325,32.987-38.964,61.04-44.006c1.616-0.285,3.237-0.53,4.864-0.735
		c1.627-0.205,3.258-0.368,4.894-0.49c1.635-0.125,3.273-0.206,4.914-0.245c1.641-0.042,3.28-0.042,4.918,0
		c1.641,0.042,3.279,0.123,4.914,0.245c1.635,0.125,3.266,0.288,4.893,0.49c1.627,0.205,3.248,0.451,4.864,0.739
		c1.616,0.285,3.223,0.61,4.823,0.975c1.599,0.365,3.188,0.771,4.765,1.216c1.58,0.445,3.146,0.93,4.698,1.453
		c1.555,0.526,3.096,1.089,4.624,1.689c1.527,0.6,3.038,1.238,4.532,1.913c1.494,0.675,2.97,1.389,4.428,2.142
		c1.458,0.75,2.897,1.536,4.317,2.357c1.419,0.822,2.818,1.678,4.196,2.569c1.375,0.891,2.728,1.816,4.059,2.777
		c21.59,15.315,38.117,38.852,42.525,65.215c4.229,25.276-2.162,53.071-17.564,73.62c-15.585,20.802-41.234,34.436-66.859,37.686
		c-26.102,3.312-52.092-5.661-72.242-22.221c-8.915-7.325-14.667-15.884-20.548-25.687
		C2681.401,1404.493,2680.741,1365.52,2684.09,1334.098z"/>
	<path style="fill:#FCBF4B;" d="M2772.286,1330.902c10.057,3.242,18.494,21.254,27.613,28.658c0.888,0.718,1.805,1.403,2.702,2.109
		c9.073,7.163,20.976,10.119,31.821,13.742c-8.197,9.687-18.154,18.502-27.189,27.438c0.124,2.352,0.224,4.704,0.299,7.056
		c0.278,9.7,0.224,14.248-6.719,21.657c-12.069,5.296-24.666-1.436-36.171-5.682c-13.144,1.735-25.479,8.135-38.86,7.765
		c-6.666-6.815,9.844-27.965,9.334-38.482c-0.606-12.509-10.965-11.617-18.092-18.839c-2.706-2.743-1.947-2.851-1.971-6.433
		c7.74-9.583,22.79-11.895,34.199-14.634C2757.187,1347.441,2764.666,1339.028,2772.286,1330.902z"/>
	<path style="fill:#FCBF4B;" d="M2501.411,1083.464c51.577-2.179,104.901,2.44,144.728,38.657
		c25.056,22.786,36.548,49.352,37.606,83.232c1.212,38.976-4.287,91.881,0.344,128.745c-3.349,31.423-2.689,70.395,1.054,101.701
		c-2.32,53.37,3.938,107.317,0.884,160.724l-72.279,0.481l-1482.743,0.486l-0.494-385.633c-0.793-36.291,0.83-64.945,25.674-94.044
		c14.721-17.245,33.647-28.592,56.097-32.17c32.029-5.105,68.012-2.337,100.473-2.416c68.213-0.183,136.423,0.039,204.631,0.664
		l683.349-0.212l191.98,0.602C2428.721,1084.444,2465.531,1086.133,2501.411,1083.464z"/>
	<path style="fill:#FFFFFF;" d="M2164.433,1313.645c24.097-0.78,161.093-4.292,174.495,1.76c5.773,2.606,10.613,7.056,12.472,13.294
		c1.461,4.897,0.365,10.434-2.034,14.846c-3.075,5.657-8.458,6.811-14.149,8.463c-34.959,0.66-69.921-0.332-104.88-0.079
		c-20.32,0.145-42.724,3.067-62.733-0.278c-7.109-1.191-14.177-3.503-18.303-9.832c-2.469-3.785-2.407-9.587-0.988-13.763
		C2151.002,1320.157,2157.522,1317.056,2164.433,1313.645z"/>
	<path style="fill:#FFFFFF;" d="M1511.033,1427.17c1.682-0.094,3.365-0.176,5.047-0.245c78.932-3.354,159.321-0.191,238.373-0.236
		c59.239-0.033,129.268-3.839,187.452,0.884c7.159,0.581,12.605,0.726,18.129,5.802c2.017,3.789,2.914,5.898,2.893,10.31
		c-0.046,8.537-4.092,14.049-9.861,19.793c-22.931,1.992-46.758,0.809-69.797,0.826l-121.374,0.046
		c-78.392,0.021-158.748,3.872-236.954-0.403c-5.562-0.303-12.468-0.357-17.033-3.943c-4.084-3.204-5.337-8.218-5.624-13.128
		C1501.773,1438.106,1505.044,1433.093,1511.033,1427.17z"/>
	<path style="fill:#FFFFFF;" d="M1518.47,1369.692l323.822-0.133c29.567,0.116,81.252-4.906,107.105,2.424
		c7.247,2.059,11.061,4.806,14.833,11.43c0.564,4.304,0.614,6.649-0.896,10.845c-2.926,8.135-9.11,10.949-16.564,13.729
		c-43.16,1.365-86.718-0.058-129.936-0.087l-209.586,0.316c-25.222-0.129-65.493,4.922-88.93-0.253
		c-5.673-1.253-11.376-5.092-14.049-10.347c-2.826-5.557-1.951-11.849,0.772-17.208
		C1508.132,1374.315,1512.274,1371.908,1518.47,1369.692z"/>
	<path style="fill:#FFFFFF;" d="M1514.814,1313.719c39.977-1.361,80.327-0.315,120.337-0.328l228.105-0.058
		c34.668-0.012,239.793-4.063,258.648,2.254c4.428,1.482,8.28,5.993,10.139,10.181c2.249,5.063,2.071,11.098-0.199,16.112
		c-2.652,5.86-6.599,7.288-12.115,9.392c-30.414,1.453-61.334-0.149-91.807-0.332l-166.04-0.261
		c-110.185,0.27-221.789,4.819-331.836,0.44c-6.919-0.278-13.817-0.017-19.499-4.599c-4.03-3.246-5.923-7.549-5.865-12.796
		C1504.782,1324.539,1508.68,1319.808,1514.814,1313.719z"/>
	<path style="fill:#EE4515;" d="M1295.441,1276.158c27.924-2.133,53.424,1.295,77.293,17.174
		c26.949,17.93,47.808,49.315,53.511,81.219c5.238,29.281-4.541,61.409-21.673,85.394c-17.564,24.591-42.512,37.781-71.91,42.454
		c-29.061,2.918-57.383,0.714-82.535-15.767c-27.505-18.017-47.182-49.767-52.644-82.066c-4.781-28.268,4.063-56.786,20.374-79.866
		C1236.655,1298.101,1263.4,1281.512,1295.441,1276.158z"/>
	<path style="fill:#FFFFFF;" d="M1298.57,1302.957c19.075-1.013,35.851,0.212,53.345,8.998c1.334,0.681,2.649,1.394,3.947,2.142
		c1.298,0.747,2.576,1.526,3.835,2.337c1.259,0.811,2.496,1.652,3.711,2.523c1.217,0.874,2.411,1.778,3.582,2.71
		c1.173,0.932,2.321,1.893,3.445,2.88c1.123,0.991,2.222,2.007,3.295,3.05c1.073,1.046,2.119,2.117,3.138,3.213
		c1.018,1.096,2.01,2.216,2.976,3.362c0.963,1.148,1.897,2.319,2.802,3.511c0.905,1.193,1.779,2.407,2.623,3.644
		c0.844,1.234,1.657,2.49,2.44,3.768c0.78,1.276,1.529,2.572,2.245,3.889c0.719,1.314,1.404,2.645,2.054,3.993
		c0.65,1.348,1.266,2.712,1.847,4.092c0.584,1.378,1.132,2.771,1.644,4.18c0.512,1.406,0.989,2.824,1.432,4.254
		c0.426,1.317,0.818,2.644,1.174,3.98c0.36,1.337,0.685,2.681,0.975,4.034c0.29,1.353,0.548,2.713,0.772,4.08
		c0.224,1.367,0.414,2.738,0.569,4.113c0.152,1.375,0.271,2.753,0.357,4.134c0.086,1.38,0.137,2.763,0.153,4.146
		c0.017,1.384-0.001,2.767-0.054,4.15c-0.052,1.384-0.14,2.764-0.261,4.142c-0.122,1.381-0.277,2.756-0.465,4.126
		c-0.191,1.372-0.417,2.738-0.677,4.096c-0.257,1.359-0.549,2.71-0.876,4.055c-0.326,1.345-0.686,2.681-1.079,4.009
		c-0.393,1.328-0.819,2.644-1.278,3.947c-0.459,1.306-0.952,2.599-1.477,3.881c-0.523,1.281-1.078,2.548-1.664,3.802
		c-0.587,1.253-1.205,2.492-1.855,3.715c-13.962,26.396-37.768,38.86-65.31,46.767c-19.677,2.748-39.047,1.092-56.682-8.687
		c-20.86-11.567-36.681-32.904-42.645-55.897c-6.068-23.404-1.262-48.638,11.476-69.025
		C1252.211,1320.464,1273.116,1308.581,1298.57,1302.957z"/>
	
		<linearGradient id="SVGID_1_" gradientUnits="userSpaceOnUse" x1="1627.2166" y1="3099.6265" x2="1611.2681" y2="3236.062" gradientTransform="matrix(4.8828 0 0 -4.8828 -5983.4678 16809.6836)">
		<stop  offset="0" style="stop-color:#FE8700"/>
		<stop  offset="1" style="stop-color:#F45B05"/>
	</linearGradient>
	<path style="fill:url(#SVGID_1_);" d="M2501.411,1083.464c51.577-2.179,104.901,2.44,144.728,38.657
		c25.056,22.786,36.548,49.352,37.606,83.232c1.212,38.976-4.287,91.881,0.344,128.745c-3.349,31.423-2.689,70.395,1.054,101.701
		c-2.32,53.37,3.938,107.317,0.884,160.724l-72.279,0.481c1.694-47.605,0.606-95.521,0.527-143.155l0.075-240.233l-1483.839-1.76
		c-0.793-36.291,0.83-64.945,25.674-94.044c14.721-17.245,33.647-28.592,56.097-32.17c32.029-5.105,68.012-2.337,100.473-2.416
		c68.213-0.183,136.423,0.039,204.631,0.664l683.349-0.212l191.98,0.602C2428.721,1084.444,2465.531,1086.133,2501.411,1083.464z"/>
	<path style="fill:#FFFFFF;" d="M1441.157,1136.485c7.728,0.075,14.468,0.473,20.781,5.453c3.984,3.146,6.504,7.197,6.354,12.451
		c-0.249,8.736-6.491,13.7-12.568,18.884c-6.67,0.249-13.837-0.37-19.494-4.312c-4.304-3.001-6.827-7.184-6.969-12.472
		C1429.013,1147.181,1434.857,1142.2,1441.157,1136.485z"/>
	<path style="fill:#FFFFFF;" d="M1542.593,1136.494c8.413,0.905,16.867,1.648,22.009,9.45c2.781,4.221,3.125,9.098,1.565,13.837
		c-2.91,8.811-9.567,12.418-17.158,16.622c-7.209-1.303-14.659-2.855-19.424-9.027c-0.387-0.506-0.743-1.035-1.067-1.585
		c-0.326-0.551-0.618-1.118-0.876-1.702c-0.257-0.584-0.479-1.181-0.664-1.793c-0.188-0.609-0.338-1.229-0.448-1.859
		c-0.113-0.628-0.19-1.26-0.228-1.897c-0.036-0.639-0.035-1.277,0.004-1.913c0.036-0.636,0.111-1.269,0.224-1.897
		s0.264-1.248,0.452-1.859C1529.394,1144.881,1535.981,1140.686,1542.593,1136.494z"/>
	<path style="fill:#FFFFFF;" d="M1349.408,1136.581c8.977,0.266,17.042,0.452,23.645,7.371c3.59,3.764,5.296,8.475,4.42,13.651
		c-1.511,8.927-7.778,13.331-14.684,18.083c-7.765-0.56-15.929-1.216-21.453-7.537c-3.611-4.134-5.719-8.62-4.868-14.236
		C1337.696,1145.819,1343.291,1141.142,1349.408,1136.581z"/>
	<path style="fill:#FFFFFF;" d="M1252.256,1136.535c8.824-0.154,17.602,0.162,23.861,7.475c3.565,4.167,4.325,8.67,3.785,13.983
		c-0.938,9.21-7.728,14.684-14.431,20.109c-8.13-0.54-14.999-1.345-20.993-7.363c-4.358-4.375-6.666-9.77-5.815-16.058
		C1239.876,1145.72,1245.487,1141.495,1252.256,1136.535z"/>
	
		<linearGradient id="SVGID_00000179643565595342955370000006802195677138243714_" gradientUnits="userSpaceOnUse" x1="1995.783" y1="2439.375" x2="1540.1667" y2="2826.0637" gradientTransform="matrix(4.8828 0 0 -4.8828 -5983.4678 16809.6836)">
		<stop  offset="0" style="stop-color:#001D5E"/>
		<stop  offset="1" style="stop-color:#044593"/>
	</linearGradient>
	<path style="fill:url(#SVGID_00000179643565595342955370000006802195677138243714_);" d="M4044.061,3377.463l116.186-0.498
		c21.433-0.145,44.625-2.582,65.792,0.785c10.937,1.735,23.134,4.935,31.136,13.111c9.932,10.144,16.535,22.948,18.494,36.997
		c4.993,35.826,2.246,74.728,2.312,110.961l-0.273,210.425l-0.382,224.511c0.017,36.88,1.847,74.661-0.174,111.455
		c-0.664,12.061-4.362,20.968-9.857,31.601c25.268,0.033,131.31-4.412,145.824,3.569c3.25,5.104,3.146,5.81,3.022,11.916
		c-2.354,4.433-4.229,7.512-9.322,9.073c-11.771,3.611-152.319,0.299-174.586,0.286l-560.614,0.287l-2169.437-1.15l-597.473,0.274
		l-214.543,0.27c-26.131-0.013-57.392,2.229-82.665,0.905c-5.653-0.295-9.824-1.723-14.798-4.313
		c-3.088-4.03-5.076-6.337-4.609-11.849c0.26-3.063,1.522-5.512,4.157-6.998c10.972-6.184,201.282-2.731,230.301-2.631
		c-2.818-2.179-1.511-1.407-4.752-2.959c-9.168-4.395-18.594-8.96-26.471-15.498c-12.215-10.131-18.189-26.21-19.005-41.728
		c-2.28-43.326-0.475-87.677-0.533-131.09l-0.444-248.405l-0.104-163.737c-0.008-27.824-2.139-57.5,0.881-85.091
		c1.24-11.331,6.679-21.366,14.411-29.596c7.122-7.579,16.278-12.323,26.314-14.825c31.784-7.919,106.096-1.249,144.077-2.727
		c30.428-0.49,60.856-0.566,91.284-0.228c96.389,3.42,193.13-1.511,289.552,1.432l-0.374,75.687
		c0.066,7.064-0.992,16.377,2.644,22.503c42.508,4.395,95.77-0.174,139.258-0.822c6.836,8.662,2.959,22.831,3.378,33.585
		l1215.67-2.063l497.76,0.021c81.775-0.079,164.131,1.693,245.84-0.427c7.342-0.191,13.75,0.623,19.947-3.532
		c-0.291-2.814-0.56-5.586-0.685-8.417c-1.245-28.7-8.508-88.162,12.85-109.466c7.475-7.454,26.123-9.874,36.391-10.766
		c47.908-4.15,98.559-0.776,146.841-0.867l297.064,0.062C3984.25,3377.838,4014.156,3377.828,4044.061,3377.463z"/>
	<path style="fill:#FFFFFF;" d="M3574.502,3419.286c8.521,1.341,16.07,2.117,21.158,10.036c3.08,4.794,3.582,10.484,1.963,15.854
		c-2.752,9.127-8.649,13.182-16.552,17.772l-1.752-0.249c-8.218-1.249-14.377-3.275-18.896-10.783
		c-2.988-4.96-3.503-10.642-1.943-16.141C3560.972,3426.998,3567.044,3423.453,3574.502,3419.286z"/>
	<path style="fill:#FFFFFF;" d="M3643.411,3418.871l0.892,0.058c8.434,0.465,14.671,1.2,20.478,8.16
		c3.765,4.515,5.449,9.981,4.69,15.825c-1.203,9.222-5.931,13.443-12.958,18.698c-3.345,0.116-6.628,0.087-9.969-0.212
		c-5.744-0.515-10.513-3.607-13.896-8.251c-3.466-4.757-4.105-9.251-3.375-14.971
		C3630.437,3429.085,3636.327,3423.814,3643.411,3418.871z"/>
	<path style="fill:#0BBDB1;" d="M3868.781,3407.18l238.564-0.49c38.067-0.075,77.833-2.664,115.684,0.046
		c5.752,0.411,10.87,0.892,15.415,4.848c4.225,3.681,7.919,9.417,10.928,14.086l0.668,66.211
		c-126.977-1.588-253.958-2.187-380.944-1.797L3868.781,3407.18z"/>
	<path style="fill:#5DDAEC;" d="M3491.042,3489.976c39.69,0.058,79.658-0.278,119.307,1.511
		c-29.451,1.067-58.977,0.411-88.445,0.125c2.279,110.952,1.656,222.253,1.59,333.235c-0.029,50.049-1.602,100.58,0.166,150.572
		l725.99-2.225l-0.287,61.945c-253.053-3.727-506.43-1.258-759.521-1.158L3491.042,3489.976z"/>
	<path style="fill:#BCCAE9;" d="M2253.915,3785.176c2.507,1.673,4.491,2.598,7.549,2.777c30.613,1.777,62.194,0.303,92.898,0.224
		c57.505,0.105,115.009-0.084,172.511-0.569c68.826-0.332,139.146,4.225,207.752,0.125c14.643,75.553,26.948,151.46,41.334,227.055
		l134.29,0.133c24.072,0.037,50.515-1.984,74.218,1.718c-0.1,22.25,0.834,45.057-1.113,67.207
		c-9.567,12.987-19.196,21.644-33.079,30.115c-17.589-4.088-42.591-1.428-60.878-1.432l-130.6-0.091l-446.3,0.038
		c-95.048-0.033-191.2-2.889-286.107,1.801l6.354-1.282c-1.212-6.911-11.061-12.032-15.253-17.751
		c-9.243-12.605-8.724-45.032-6.915-59.782c1.1-8.981,1.797-13.518,9.131-19.083c21.167-4.117,46.024-1.818,67.709-1.801
		l127.766,0.22c6.445-23.524,9.758-48.643,13.912-72.686C2238.119,3889.874,2245.585,3837.504,2253.915,3785.176z"/>
	<path style="fill:#2A77F5;" d="M2019.709,4016.378c67.348,2.025,135.083,0.519,202.489,0.494l365.973-0.016l263.114,0.033
		c43.969,0.029,89.399,2.386,133.182-0.249c-0.1,22.25,0.834,45.057-1.113,67.207c-9.567,12.987-19.196,21.644-33.079,30.115
		c-17.589-4.088-42.591-1.428-60.878-1.432l-130.6-0.091l-446.3,0.038c-95.048-0.033-191.2-2.889-286.107,1.801l6.354-1.282
		c-1.212-6.911-11.061-12.032-15.253-17.751c-9.243-12.605-8.724-45.032-6.915-59.782
		C2011.678,4026.48,2012.375,4021.943,2019.709,4016.378z"/>
	<path style="fill:#FFFFFF;" d="M1482.64,3678.885l445.918,0.395c85.216-0.178,170.706-2.179,255.892-0.892
		c28.389,1.602,57.105,0.768,85.544,0.672c-5.217,35.337-9.724,70.984-16.079,106.117c-8.33,52.328-15.796,104.698-24.82,156.935
		c-4.154,24.043-7.467,49.162-13.912,72.686l-127.766-0.22c-21.686-0.017-46.542-2.316-67.709,1.801
		c-7.334,5.565-8.031,10.102-9.131,19.083c-1.81,14.75-2.328,47.177,6.915,59.782c4.192,5.719,14.041,10.841,15.253,17.751
		l-6.354,1.282c-52.378-1.564-105.237-0.062-157.661,0.021c-146.994,0.224-294.453,2.719-441.394-0.415
		c18.996-9.488,33.108-19.876,47.173-35.789c3.3-4.873,5.08-10.231,5.786-16.046c4.018-33.166,1.042-69.644,1.162-103.22
		C1481.789,3865.959,1478.332,3771.559,1482.64,3678.885z"/>
	<path style="fill:#0C976D;" d="M1773.532,3786.276c4.914,0.888,8.081,2.221,12.401,4.715c9.052,12.754,4.91,39.74,5.786,55.619
		c14.045,0.394,29.53-2.436,43.268,0.108c6.421,1.187,9.297,3.453,13.082,8.596c0.224,6.064,0.315,6.661-2.885,11.758
		c-15.078,9.326-37.764,6.18-55.117,6.101c-0.087,19.345,5.62,49.655-7.55,65.306c-5.429-0.772-9.226-1.071-13.576-4.781
		c-9.758-16.718-5.566-41.076-5.487-59.944c-13.169,0.282-29.41,2.009-42.263-0.631c-6.968-1.432-11.123-3.835-15.17-9.87
		c-0.747-5.894-0.913-7.172,1.295-12.621c12.58-11.073,42.027-5.844,57.782-5.362
		C1764.684,3825.651,1760.463,3802.404,1773.532,3786.276z"/>
	<path style="fill:#FFFFFF;" d="M3869.097,3490.083c126.986-0.39,253.967,0.209,380.944,1.797
		c1.838,64.696,0.909,129.588,0.905,194.317c0.24,95.669-0.191,191.334-1.295,286.995l-725.99,2.225
		c-1.768-49.992-0.195-100.522-0.166-150.572c0.066-110.982,0.689-222.282-1.59-333.235c29.468,0.286,58.994,0.942,88.445-0.125
		C3696.47,3491.441,3783.034,3493.014,3869.097,3490.083z"/>
	<path style="fill:#F9AD2A;" d="M3633.488,3815.167l97.65,0.395l-0.253,63.604l-96.774-0.465
		C3633.413,3857.584,3633.679,3836.305,3633.488,3815.167z"/>
	<path style="fill:#5DDAEC;" d="M3765.923,3747.096l97.082,0.033c0.556,43.563-0.029,87.22-0.083,130.791l-95.99,0.025
		L3765.923,3747.096z"/>
	<path style="fill:#5DDAEC;" d="M3899.217,3678.246l93.678,0.535c-1.519,66.232,2.391,133.311-1.303,199.364l-91.79,0.158
		C3899.428,3811.618,3900.64,3744.921,3899.217,3678.246z"/>
	<path style="fill:#E4595A;" d="M4022.45,3587.788c29.576-0.623,59.674-1.112,89.171,1.258c3.648,95.753,0.27,192.927,0.436,288.863
		l-87.723,0.938C4022.881,3782.117,4021.047,3684.459,4022.45,3587.788z"/>
	<path style="fill:#FCBF4B;" d="M956.923,3380.791c30.428-0.49,60.856-0.566,91.284-0.228c96.389,3.42,193.13-1.511,289.552,1.432
		l-0.374,75.687c0.066,7.064-0.992,16.377,2.644,22.503c42.508,4.395,95.77-0.174,139.258-0.822
		c6.836,8.662,2.959,22.831,3.378,33.585c1.021,55.063,2.013,110.923-0.025,165.937c-4.308,92.674-0.851,187.075-1.183,279.944
		c-0.12,33.576,2.855,70.054-1.162,103.22c-0.706,5.815-2.486,11.173-5.786,16.046c-14.066,15.912-28.177,26.301-47.173,35.789
		c-47.24,2.942-96.372,0.374-143.703-0.701c-31.647,7.74-112.621,3.216-149.933,3.2l-311.151,0.066
		c-2.818-2.179-1.511-1.407-4.752-2.959c-9.168-4.395-18.594-8.96-26.471-15.498c-12.215-10.131-18.189-26.21-19.005-41.728
		c-2.28-43.326-0.475-87.677-0.533-131.09l-0.444-248.405l-0.104-163.737c-0.008-27.824-2.139-57.5,0.881-85.091
		c1.24-11.331,6.679-21.366,14.411-29.596c7.122-7.579,16.278-12.323,26.314-14.825
		C844.63,3375.599,918.943,3382.269,956.923,3380.791z"/>
	<path style="fill:#F9AD2A;" d="M909.916,3842.115c28.401,0.664,56.918,0.237,85.336,0.332l0.087,178.55l-86.971,0.046
		L909.916,3842.115z"/>
	<path style="fill:#F9AD2A;" d="M1200.833,3753.343l83.444,0.012c-1.619,89.848-0.029,179.895,1.004,269.75l-84.423,0.087
		C1201.685,3933.243,1201.677,3843.293,1200.833,3753.343z"/>
	<path style="fill:#F9AD2A;" d="M1053.897,3639.473l84.992,1.864l-1.922,379.665l-83.419,0.158L1053.897,3639.473z"/>
	<path style="fill:#F79317;" d="M1324.319,4076.832c6.134-9.886,9.21-19.681,10.596-31.149c5.379-44.554,1.693-93.388,1.768-138.39
		l-0.552-286.257c-0.224-54.026-3.237-109.574,1.254-163.355c0.066,7.064-0.992,16.377,2.644,22.503
		c42.508,4.395,95.77-0.174,139.258-0.822c6.836,8.662,2.959,22.831,3.378,33.585c1.021,55.063,2.013,110.923-0.025,165.937
		c-4.308,92.674-0.851,187.075-1.183,279.944c-0.12,33.576,2.855,70.054-1.162,103.22c-0.706,5.815-2.486,11.173-5.786,16.046
		c-14.066,15.912-28.177,26.301-47.173,35.789c-47.24,2.942-96.372,0.374-143.703-0.701
		C1300.807,4102.826,1312.395,4092.998,1324.319,4076.832z"/>
	<path style="fill:#EE4515;" d="M1324.319,4076.832c45.185,5.678,103.785,2.386,150.19,1.262
		c-14.066,15.912-28.177,26.301-47.173,35.789c-47.24,2.942-96.372,0.374-143.703-0.701
		C1300.807,4102.826,1312.395,4092.998,1324.319,4076.832z"/>
	<path style="fill:#164896;" d="M3461.882,3506.947c5.57,15.203,7.487,520.313,2.818,568.798
		c1.079,13.485,6.765,26.309,11.895,38.702c-175.337-0.037-351.036,2.411-526.319-0.486c13.883-8.471,23.512-17.128,33.079-30.115
		c1.947-22.151,1.013-44.957,1.113-67.207c-23.703-3.702-50.145-1.681-74.218-1.718l-134.29-0.133
		c-14.385-75.595-26.691-151.502-41.334-227.055c-68.606,4.1-138.926-0.457-207.752-0.125
		c-57.502,0.484-115.006,0.674-172.511,0.569c-30.705,0.079-62.285,1.552-92.898-0.224c-3.059-0.178-5.042-1.104-7.549-2.777
		c6.354-35.133,10.862-70.781,16.079-106.117c-28.438,0.095-57.155,0.93-85.544-0.672c-85.187-1.287-170.677,0.714-255.892,0.892
		l-445.918-0.395c2.038-55.013,1.046-110.873,0.025-165.937l1215.67-2.063l497.76,0.021c81.775-0.079,164.131,1.693,245.84-0.427
		C3449.277,3510.288,3455.685,3511.101,3461.882,3506.947z"/>
	<path style="fill:#FFFFFF;" d="M2491.807,3554.51c11.032-0.1,21.342,0.157,31.091,5.964c14.037,8.363,17.909,22.603,21.412,37.416
		c-0.963,4.458-2.178,8.844-3.645,13.161c-5.441,15.825-15.107,23.263-29.646,30.489c-9.081,1.253-17.266,1.702-26.073-1.365
		c-9.89-3.441-17.71-11.165-21.794-20.744c-5.313-12.468-4.731-27.247,0.598-39.595
		C2469.623,3566.222,2478.53,3560.076,2491.807,3554.51z"/>
	<path style="fill:#8EA8E3;" d="M2184.45,3678.387c45.986-3.308,92.562-0.312,138.631-0.029l261.84,1.287l306.095-0.942
		c48.871-0.091,98.783-2.233,147.554,0.411c-34.294,4.495-71.831,1.623-106.524,1.698l-217.605,0.419
		c6.234,35.594,12.962,71.095,20.183,106.503c-68.606,4.1-138.926-0.457-207.752-0.125c-57.502,0.484-115.006,0.674-172.511,0.569
		c-30.705,0.079-62.285,1.552-92.898-0.224c-3.059-0.178-5.042-1.104-7.549-2.777c6.354-35.133,10.862-70.781,16.079-106.117
		C2241.555,3679.154,2212.839,3679.989,2184.45,3678.387z"/>
	<path style="fill:#FFFFFF;" d="M3038.571,3679.113l424.452-0.278l-0.066,278.894c0,30.24-3.831,90.574,1.743,118.016
		c1.079,13.485,6.765,26.309,11.895,38.702c-175.337-0.037-351.036,2.411-526.319-0.486c13.883-8.471,23.512-17.128,33.079-30.115
		c1.947-22.151,1.013-44.957,1.113-67.207c-23.703-3.702-50.145-1.681-74.218-1.718l-134.29-0.133
		c-14.385-75.595-26.691-151.502-41.334-227.055c-7.221-35.409-13.949-70.909-20.183-106.503l217.605-0.419
		C2966.74,3680.736,3004.276,3683.608,3038.571,3679.113z"/>
	<path style="fill:#F8A698;" d="M3260.334,3862.045c8.637,0.569,17.469,2.689,25.06,6.927c1.408,0.802,2.775,1.673,4.1,2.611
		c1.323,0.935,2.597,1.934,3.823,2.997c1.225,1.063,2.396,2.182,3.511,3.358c1.112,1.178,2.166,2.408,3.162,3.689
		c0.993,1.281,1.922,2.608,2.785,3.98s1.657,2.784,2.382,4.233s1.376,2.932,1.955,4.445c0.581,1.516,1.085,3.056,1.511,4.619
		c0.404,1.475,0.733,2.965,0.988,4.47c0.255,1.508,0.434,3.024,0.54,4.549c0.102,1.524,0.13,3.051,0.083,4.578
		c-0.047,1.525-0.17,3.045-0.369,4.561c-0.196,1.517-0.469,3.017-0.818,4.503c-0.349,1.489-0.769,2.957-1.261,4.404
		c-0.493,1.445-1.057,2.862-1.693,4.254c-0.634,1.389-1.335,2.743-2.104,4.063c-8.151,13.987-20.449,20.565-35.71,24.188
		c-10.085,0.158-21.001-2.229-29.609-7.645c-1.323-0.838-2.6-1.743-3.831-2.714c-1.228-0.971-2.406-2.003-3.532-3.096
		c-1.124-1.09-2.188-2.237-3.192-3.441c-1.007-1.201-1.949-2.45-2.826-3.748c-0.877-1.301-1.685-2.641-2.424-4.022
		c-0.739-1.383-1.406-2.8-2.001-4.25c-0.592-1.45-1.11-2.927-1.552-4.433c-0.44-1.502-0.802-3.024-1.088-4.565
		c-2.772-14.223,0.278-29.252,9.073-40.848C3235.997,3868.242,3246.58,3864.332,3260.334,3862.045z"/>
	<path style="fill:#FFFFFF;" d="M3807.51,1596.249l73.163-0.344c49.331-0.129,92.753,0.386,130.276,36.951
		c5.263,5.169,10.2,10.632,14.813,16.39l8.761,16.701c12.314,33.323,9.608,65.502,8.691,100.352
		c-3.964,100.423-0.195,201.559,0.311,302.057l-0.955,385.156c0.237,40.653-0.469,81.609,0.826,122.225l-0.12,23.408
		c-0.368,98.854-0.224,197.704,0.432,296.549l0.091,24.857l-0.212,295.25c-0.091,53.719-1.814,108.022,0.473,161.662
		c-29.905,0.365-59.811,0.375-89.719,0.029l-297.064-0.062c-48.281,0.092-98.933-3.283-146.841,0.867
		c-10.268,0.892-28.916,3.312-36.391,10.766c-21.358,21.304-14.095,80.767-12.85,109.466c0.125,2.831,0.394,5.603,0.685,8.417
		c-6.197,4.155-12.605,3.341-19.947,3.532c-81.709,2.121-164.065,0.349-245.84,0.427l-497.76-0.021l-1215.67,2.063
		c-0.419-10.754,3.457-24.923-3.378-33.585c-43.488,0.647-96.75,5.217-139.258,0.822c-3.636-6.126-2.577-15.439-2.644-22.503
		l0.374-75.687c-96.422-2.943-193.163,1.988-289.552-1.432c-30.428-0.337-60.856-0.261-91.284,0.228l-0.992-533.997l0.154-294.844
		c-0.017-13.738-0.349-27.492-0.535-41.23c1.693-102.552,0.22-205.345,0.324-307.926c0.05-45.526-0.917-91.333,1.17-136.805
		c2.822-32.128,0.71-65.85,0.693-98.177l-0.125-191.329c-0.033-32.688-3.827-69.739,3.142-101.606
		c3.947-18.062,12.393-34.282,25.371-47.534c38.81-39.628,94.695-28.758,144.882-29.854l1482.743-0.486l72.279-0.481l801.565,0.685
		C3594.101,1597.199,3701.06,1599.175,3807.51,1596.249z"/>
	<path style="fill:#8EA8E3;" d="M2209.573,2319.08l25.093,0.403c-0.145,6.79,0.369,14.464-1.598,20.955
		c-7.993,0.067-16.008-0.22-23.997-0.365l-1.988-20.461L2209.573,2319.08z"/>
	<path style="fill:#8EA8E3;" d="M1690.662,2317.769l23.047,0.083c3.582,6.711,2.237,15.128,1.926,22.553l-0.208,1.61
		c-8.247,0.506-16.361,0.282-24.616,0.021L1690.662,2317.769z"/>
	<path style="fill:#BFBCD8;" d="M3684.471,2141.771c13.825,0.768,37.387-4.644,48.29,4.474c2.656,6.234,0.66,11.293-0.917,17.527
		c-11.716,0.237-23.508,0.921-35.212,1c-6.586,0.042-11.073-1.25-15.726-5.856
		C3679.972,2152.305,3682.122,2147.769,3684.471,2141.771z"/>
	<path style="fill:#BCCAE9;" d="M3679.333,2058.092c16.535,0.789,37.079-3.698,51.44,5.371c4.15,6.105,2.469,13.945,1.967,20.959
		c-18.013,0.49-36.117-0.037-54.138-0.187C3678.749,2075.516,3678.993,2066.802,3679.333,2058.092z"/>
	<path style="fill:#BFBCD8;" d="M2299.632,2317.939c0.332,9.4,0.486,18.735,0.316,28.139l-0.938-3.54
		c-11.048-5.997-51.735-2.27-65.941-2.1c1.967-6.491,1.453-14.165,1.598-20.955l7.765-0.299
		C2261.294,2319.01,2280.942,2320.417,2299.632,2317.939z"/>
	<path style="fill:#BFBCD8;" d="M2636.556,2317.503l69.83-0.054c0.428,7.101,1.694,11.231-1.739,17.573
		c-18.108,9.571-48.19,2.718-68.597,2.913L2636.556,2317.503z"/>
	<path style="fill:#BFBCD8;" d="M2132.89,2319.28c24.633,0.062,49.605-0.739,74.192,0.332l1.988,20.461l-1.116,0.299
		c-24.96-1.54-50.411-0.552-75.438-0.452l0.075-17.946L2132.89,2319.28z"/>
	<path style="fill:#BFBCD8;" d="M1714.842,2317.287l69.785,0.191l0.133,22.748c-23.043-0.299-46.084-0.239-69.125,0.178
		c0.311-7.425,1.656-15.842-1.926-22.553L1714.842,2317.287z"/>
	<path style="fill:#BFBCD8;" d="M2320.45,2412.759l181.662-0.124c39.732,0.025,80.717,1.896,120.241-1.922
		c-3.121,6.089-5.537,13.099-11.721,16.589c-58.948,2.117-118.431,0.378-177.441,0.295c-33.822-0.05-70.893,3.005-104.387-0.93
		C2325.368,2422.101,2322.944,2417.905,2320.45,2412.759z"/>
	<path style="fill:#BCCAE9;" d="M3810.278,2516.784c0.606,0.813,1.282,1.573,1.814,2.432c2.702,4.375,2.631,8.085,2.789,13.028
		c1.395-5.57-0.527-9.753,2.337-14.925l2.195-0.386c0.32,28.214,1.648,58.018-3.507,85.838l2.445,473.044
		c0.079,59.849,5.806,136.482-0.137,194.55c-1.353,13.248-3.914,24.496-13.534,34.369c-9.214,9.451-20.188,14.049-33.041,15.9
		c11.837-13.427,24.333-20.573,33.514-37.225c3.478-71.146,1.22-143.744,1.623-215.081c0.149-26.699-3.495-59.62,2.747-85.261
		l2.623-1.992c4.35-13.63,1.332-61.741,1.428-79.588l0.07-297.961c0.05-8.325-0.157-15.933-1.635-24.138
		C3809.95,2559.214,3809.365,2537.059,3810.278,2516.784z"/>
	<path style="fill:#9F541E;" d="M1337.758,3381.995c48.481,27.995,94.405,66.261,141.528,97.368
		c-43.488,0.647-96.75,5.217-139.258,0.822c-3.636-6.126-2.577-15.439-2.644-22.503L1337.758,3381.995z"/>
	<path style="fill:#37B1F7;" d="M2317.122,2817.509c102.942,3.042,206.287,1.585,309.279,1.515l0.349,26.803
		c-38.088-2.196-76.749-1.133-114.916-1.183l-194.736,0.253C2316.665,2835.816,2317.059,2826.602,2317.122,2817.509z"/>
	<path style="fill:#BCCAE9;" d="M3807.061,2077.81c0.515-25.948-3.449-169.905,1.739-180.239l11.277,3.868
		c2.096,4.835,3.598,570.587-0.664,615.494l-2.195,0.386c-2.864,5.171-0.942,9.355-2.337,14.925
		c-0.158-4.943-0.087-8.654-2.789-13.028c-0.531-0.859-1.208-1.619-1.814-2.432l-3.271-1.395
		c3.59-49.265,0.266-101.419,0.237-150.966L3807.061,2077.81z"/>
	<path style="fill:#37B1F7;" d="M2547.912,3044.809c24.504-0.818,49.086-0.822,73.603-1.175l0.411,30.277l-229.351,0.398
		l-77.089-0.237l-0.253-27.87C2392.798,3046.61,2470.358,3046.146,2547.912,3044.809z"/>
	<path style="fill:#BFBCD8;" d="M2234.143,2543.567l309.437,0.27c55.208,0.145,110.936,2.121,166.073,0.183l0.017,17.921
		l-433.467,0.681c-12.439-1.307-26.5,2.698-38.059-1.947C2233.13,2554.764,2234.358,2551.162,2234.143,2543.567z"/>
	<path style="fill:#F7686D;" d="M1282.454,2817.264l329.603-0.083l-0.12,27.787l-329.557-1.677L1282.454,2817.264z"/>
	<path style="fill:#31C58F;" d="M1800.697,3159.219c104.129,1.374,208.416,0.49,312.557,0.465l-0.22,28.331
		c-103.942,2.444-208.296-0.677-312.313-0.017L1800.697,3159.219z"/>
	<path style="fill:#37B1F7;" d="M2317.175,3156.392l307.81-0.274l-0.141,29.468c-102.125-2.212-205.079-1.403-307.241-0.378
		C2316.706,3175.509,2316.868,3166.1,2317.175,3156.392z"/>
	<path style="fill:#31C58F;" d="M1801.344,3045.971c103.713,0.791,207.424,0.755,311.134-0.108
		c0.087,10.048,0.801,20.225-1.648,30.036c-103.088-2.378-206.552-0.971-309.677-1.025L1801.344,3045.971z"/>
	<path style="fill:#BFBCD8;" d="M1691.243,2543.139c2.212,6.695,1.32,12.422,0.619,19.266l-481.935-0.154l-0.589-18.598
		L1691.243,2543.139z"/>
	<path style="fill:#37B1F7;" d="M2317.864,2926.328c102.27,3.49,205.693,1.216,308.05,0.257c0.141,9.758-0.249,19.557-0.436,29.318
		c-102.568-1.897-205.573,0.307-308.191,0.324C2316.569,2945.885,2315.802,2936.6,2317.864,2926.328z"/>
	<path style="fill:#F7686D;" d="M1280.284,3159.688l333.438,0.411l-0.091,26.924l-331.209-0.029L1280.284,3159.688z"/>
	<path style="fill:#F7686D;" d="M1280.935,2927.507l332.87,1.1l0.017,27.758c-109.193-4.748-222.191-1.229-331.865-1.594
		C1281.13,2945.694,1281.089,2936.613,1280.935,2927.507z"/>
	<path style="fill:#BFBCD8;" d="M1712.431,2543.67c166.436,0.841,332.871,0.789,499.304-0.158
		c-0.232,6.172-0.083,12.704-0.776,18.822l-152.224,0.22c-25.994-2.316-53.698-0.44-79.849-0.403l-169.27,0.095
		c-31.481,0.004-64.007,1.681-95.368-0.88C1711.833,2555.64,1712.385,2549.759,1712.431,2543.67z"/>
	<path style="fill:#FCBF4B;" d="M1801.12,2816.264l312.416,0.959l-0.033,29.584l-312.524,0.428L1801.12,2816.264z"/>
	<path style="fill:#31C58F;" d="M1800.626,2925.24l312.732,0.12l-0.154,30.609c-103.756,3.395-208.632,0.332-312.508,0.419
		L1800.626,2925.24z"/>
	<path style="fill:#F7686D;" d="M1282.181,3045.307c109.952-2.548,220.535-0.017,330.541,0.303
		c0.096,9.558-0.207,19.154-0.324,28.717c-36.013,2.254-73.441,0.286-109.587,0.315l-221.033,0.137L1282.181,3045.307z"/>
	<path style="fill:#BCCAE9;" d="M1690.645,1890.316c7.056-0.394,15.917-2.046,22.109,1.698l1.503,5.524
		c-3.113,96.497-0.681,193.786-0.677,290.365c0,31.215-3.748,104.046,1.262,129.384l-1.133,0.564l-23.047-0.083
		c-1.781-49.34-0.245-99.165-0.174-148.567L1690.645,1890.316z"/>
	<path style="fill:#8EA8E3;" d="M2821.73,3068.939c119.552-1.756,239.361-0.531,358.938-0.668l-0.278,30.381l-359.225,0.909
		L2821.73,3068.939z"/>
	<path style="fill:#8EA8E3;" d="M3319.98,3069.396l408.315,1.175l0.332,29.123c-136.304-1.314-272.611-1.858-408.921-1.631
		L3319.98,3069.396z"/>
	<path style="fill:#F9AD2A;" d="M3037.135,2044.744c33.095,1.058,62.156,15.518,86.693,36.959
		c41.952,36.66,59.184,81.821,62.895,136.116c-20.81,0.37-134.29,6.633-145.251-2.2
		C3031.814,2184.342,3037.06,2083.38,3037.135,2044.744z"/>
	<path style="fill:#E4595A;" d="M1915.92,2306.534c12.617,7.931,23.84,14.456,38.379,18.482
		c31.032,8.591,120.789,12.493,151.369,4.927c8.251-2.092,16.26-4.875,24.027-8.351l2.897,0.382l-0.075,17.946
		c-0.025,21.785,5.669,61.43-9.43,78.803c-29.721,9.23-103.598,3.694-137.083,3.731c-52.461,0.058-105.076,1.249-157.516,0.108
		c22.267-6.719,62.401-2.266,86.199-2.088C1915.161,2382.519,1914.276,2344.46,1915.92,2306.534z"/>
	<path style="fill:#F7851D;" d="M1482.179,2282.271c31.917-1.76,64.484-0.689,96.476-0.847c9.38-0.045,30.028-2.2,36.934,4.636
		c7.865,19.997,6.761,100.958,3.686,124.599c-1.025,7.873-3.565,10.285-9.629,15.128c-19.532,2.229-100.763,1.971-120.619-0.44
		c-4.707-0.573-8.052-0.444-10.633-4.856c-7.234-12.36-8.546-114.206-4.69-129.48
		C1475.037,2285.732,1477.842,2285.101,1482.179,2282.271z"/>
	<path style="fill:#FCBF4B;" d="M1285.073,2282.632c26.562-0.033,123.889-5.275,142.089,4.495
		c3.997,10.388,3.868,123.416,0.843,132.207c-1.469,4.279-2.959,4.594-6.707,6.578c-26.587,0.344-120.589,6.039-139.652-3.532
		c-5.607-10.737-4.756-107.74-3.478-124.769C1278.703,2290.472,1279.711,2287.334,1285.073,2282.632z"/>
	<path style="fill:#E83848;" d="M1786.482,2247.976c43.168,0.826,86.436-0.258,129.608-0.718l-0.17,59.276
		c-1.644,37.926-0.759,75.985-1.233,113.941c-23.798-0.178-63.932-4.632-86.199,2.088c-2.075,0.154-4.15,0.328-6.23,0.361
		c-9.882,0.158-21.337-0.465-28.501-8.16c-13.775-14.796-7.898-54.258-7.811-74.101
		C1787.187,2309.813,1786.61,2278.846,1786.482,2247.976z"/>
	<path style="fill:#8EA8E3;" d="M3324.537,3177.576c59.683-1.095,119.432-0.917,179.123-1.203l0.303,35.731l-508.51-1.366
		l-173.906-0.49l0.187-32.382L3324.537,3177.576z"/>
	<path style="fill:#BFBCD8;" d="M2709.591,2983.479l16.556-0.025l-0.643,192.91c0.058,35.677,3.897,76.193-2.245,111.338
		c-1.552,8.869-5.014,18.067-11.492,24.533c-6.226,6.222-12.667,7.595-21.113,9.04c-92.944,3.362-187.099-0.092-280.139-0.598
		c-58.176-0.319-120.988,3.831-178.587-1.282c-204.299,2.25-408.805-0.324-613.125-0.44l-244.52,0.158
		c-42.861,0.025-86.303,1.461-129.098-0.373c-11.111-0.473-21.914-0.955-32.203-5.578c-5.213-5.985-5.196-6.155-5.649-14.095
		c161.469,1.375,322.939,1.425,484.408,0.149l23.13,0.415c38.333,6.08,85.299,1.44,124.732,1.332l254.606,0.212
		c43.803,0.062,89.71-2.926,133.182,1.149c20.516-3.797,45.999-1.245,66.987-1.195c58.027,0.137,117.136,2.631,175.068-0.436
		c29.796,0.058,222.299,5.52,236.568-0.697c8.276-32.353,3.557-95.559,3.561-130.542
		C2710.011,3107.46,2710.017,3045.469,2709.591,2983.479z"/>
	<path style="fill:#2A9BF2;" d="M3007.954,2065.102l0.793,0.689c4.752,12.534,0.631,131.866,1.88,157.702
		c2.519,3.744,5.13,7.28,8.243,10.563c6.802,7.172,14.368,10.297,23.948,12.306c31.153,6.541,96.92,1.017,132.024,1.34
		c-3.611,39.051-16.813,75.164-44.322,103.83c-33.743,35.166-78.16,50.635-125.91,51.838
		c-40.346-1.204-73.748-10.766-104.922-37.333c-36.005-30.688-59.131-73.923-62.364-121.316c-3.125-45.795,9.575-86,39.981-120.569
		C2911.179,2085.642,2957.663,2068.144,3007.954,2065.102z"/>
	<path style="fill:#164896;" d="M3300.739,2514.684l347.844-0.461c40.093-0.116,122.74-4.457,158.424,1.166l3.271,1.395
		c-0.913,20.275-0.328,42.429,1.731,62.604c-102.099,2.976-204.656,1.282-306.822,1.349l-533.595,0.261
		c-87.328,0.096-174.814-0.913-262.122,0.457l0.199-19.515l-0.017-17.921c-0.025-9.413-0.452-18.805-0.817-28.21l18.959-0.934
		c184.061-0.282,368.334-2,552.375-0.208L3300.739,2514.684z"/>
	<path style="fill:#F7686D;" d="M1784.626,2317.479c-0.108-28.102-6.201-212.226,6.271-224.984
		c37.162-10.343,138.577-5.068,180.65-5.018c40.977,0.046,83.688-2.279,124.524,0.606c8.799,0.623,19.822,1.992,27.675,6.159
		c4.287,2.274,4.881,3.86,6.122,8.483c5.296,19.764,2.279,46.21,2.241,66.884c-0.083,49.481-2.241,100.352,0.78,149.671
		l-0.299,2.694l-2.897-0.382c-7.767,3.475-15.776,6.259-24.027,8.351c-30.58,7.566-120.336,3.665-151.369-4.927
		c-14.539-4.026-25.761-10.55-38.379-18.482l0.17-59.276c-43.172,0.46-86.44,1.544-129.608,0.718
		c0.128,30.87,0.705,61.836-0.536,92.687l-1.187-0.436L1784.626,2317.479z"/>
	<path style="fill:#F9AD2A;" d="M2299.632,2317.939c-0.22-27.21-6.645-161.205,7.417-174.449c2.71-2.552,12.227-2.304,16.104-2.445
		c58.612-2.154,117.921,0.183,176.632,0.025c33.066-0.087,88.852-4.889,119.789,0.946c5.769,1.092,10.417,2.212,14.555,6.628
		c8.421,24.367,2.565,135.116,2.428,168.858l-0.506,20.432l-0.349,2.054c-0.104,15.506,4.645,51.552-4.864,63.493
		c-2.171,2.723-5.711,5.117-8.483,7.23c-39.524,3.818-80.51,1.947-120.241,1.922l-181.662,0.124
		c-9.284-4.511-14.705-11.032-20.321-19.474l-0.182-47.207C2300.117,2336.674,2299.964,2327.34,2299.632,2317.939z"/>
	<path style="fill:#5DDAEC;" d="M2709.47,2581.455c87.308-1.369,174.794-0.361,262.122-0.457l533.595-0.261
		c102.166-0.066,204.722,1.627,306.822-1.349c1.478,8.205,1.685,15.813,1.635,24.138l-0.07,297.961
		c-0.095,17.847,2.922,65.958-1.428,79.588l-2.623,1.992l-1083.376,0.386l-16.556,0.025L2709.47,2581.455z"/>
	<path style="fill:#FFFFFF;" d="M3015.711,2761.661c18.249-0.344,73.948-5.516,88.125,1.735c3.084,1.577,3.138,5.964,4.026,9.073
		c-19.573-0.203-73.752,4.412-88.163-2.283C3016.528,2768.713,3016.607,2764.778,3015.711,2761.661z"/>
	<path style="fill:#FFFFFF;" d="M3024.028,2681.567c26.023-0.577,149.854-4.391,165.883-0.606c4.287,1.012,4.773,2.013,6.939,5.479
		c-2.881,4.374-2.631,3.337-7.367,4.403l-94.015,0.365c-23.275,0.278-50.187,2.909-73.059-1.295
		c-4.337-0.801-5.358-0.564-7.807-4.391C3018.354,2682.09,3019.239,2682.513,3024.028,2681.567z"/>
	<path style="fill:#FFFFFF;" d="M3178.709,2787.406l10.334-0.008c3.557,3.375,3.524,3.021,3.731,7.894
		c-13.435,6.827-136.515,3.15-159.856,3.275c-7.985-0.025-10.978,0.763-17.859-3.582l-0.564-3.416
		C3026.962,2784.26,3154.317,2787.61,3178.709,2787.406z"/>
	<path style="fill:#FFFFFF;" d="M3136.217,2843.436c14.186-0.004,48.078-4.042,60.297,1.66l0.199,4.457
		c-4.126,3.922-7.193,5.001-12.908,5.665c-13.601,1.585-28.135-0.286-41.807-0.494c-25.226-0.374-50.519,0.062-75.749,0.208
		c-21.072,0.104-41.952,0.029-62.999-1.303l3.495,0.249l-6.454-2.233l2.448-3.158
		C3025.555,2838.199,3107.139,2843.403,3136.217,2843.436z"/>
	<path style="fill:#FFFFFF;" d="M3500.119,2774.648c24.848-1.586,207.308-4.283,217.418,1.673l0.228,6.425
		c-25.765,1.287-201.775,6.296-213.853,0.523C3501.173,2781.961,3500.928,2777.375,3500.119,2774.648z"/>
	<path style="fill:#FFFFFF;" d="M3504.12,2680.978c20.752-2.644,201.601-3.752,212.894,0.395l2.706,8.35
		c-22.408,2.287-200.202,4.059-212.139-0.236L3504.12,2680.978z"/>
	<path style="fill:#FFFFFF;" d="M3501.277,2844.681c27.965-1.291,198.094-3.918,214.035,1.017l2.686,9.189
		c-69.531,2.05-140.524,2.349-210.068,0.855C3503.306,2852.795,3503.182,2849.637,3501.277,2844.681z"/>
	<path style="fill:#FFFFFF;" d="M3502.265,2724.407c27.563-0.768,203.875-4.777,216.148,1.789l1.556,7.853
		c-30.073,0.224-202.634,6.304-214.82,0.423L3502.265,2724.407z"/>
	<path style="fill:#2A9BF2;" d="M2905.26,2659.325c15.394-1.436,31.792,8.923,43.314,18.295
		c16.506,13.418,25.952,36.013,27.479,56.897c1.88,25.791-10.152,52.992-27.114,72.051c-11.688,13.128-26.31,21.744-44.426,21.727
		c-4.063-0.004-6.209-0.676-9.695-2.453c15.44-9.367,28.521-18.618,38.288-34.357c11.289-18.191,15.663-41.836,10.737-62.729
		c-13.177-27.289-9.948-42.11-36.909-64.394L2905.26,2659.325z"/>
	<path style="fill:#2A9BF2;" d="M3387.98,2656.59c8.201-4.761,19.478-2.03,28.269,0.195c17.656,4.462,32.095,18.482,41.047,33.934
		c13.219,22.819,19.034,55.399,11.077,80.717c-6.18,19.66-19.424,36.237-37.964,45.463c-7.794,3.881-22.225,11.073-30.983,8.396
		c-3.872-1.183-6.441-4.408-9.114-7.23c14.892-9.206,27.6-20.524,35.573-36.391c11.086-22.072,8.222-41.732,1.316-64.248
		c-1.482-7.45-3.109-15.249-5.698-22.404C3415.065,2677.263,3404.864,2665.082,3387.98,2656.59z"/>
	<path style="fill:#F79317;" d="M3310.895,2761.524c-1.727-2.964-2.718-5.093-3.299-8.479c-4.184-24.508,0.768-50.327,16.257-70.088
		c17.855-22.773,37.511-23.333,64.128-26.367c16.884,8.492,27.085,20.673,33.523,38.433c2.59,7.155,4.217,14.954,5.698,22.404
		c6.906,22.516,9.77,42.176-1.316,64.248c-7.973,15.867-20.681,27.185-35.573,36.391c-11.073,3.374-19.15,4.109-30.318,0.178
		C3334.846,2809.387,3321.387,2784.235,3310.895,2761.524z"/>
	<path style="fill:#F8D88C;" d="M3405.374,2737.846l3.03,2.038c-11.899,8.816-30.626,17.486-45.268,19.843
		c-7.338,1.183-14.85,0.98-20.901-3.789c-3.661-2.889-2.54-1.295-3.084-6.267c8.745-4.607,24.782,2.714,35.324,0.926
		C3385.195,2748.783,3395.758,2742.748,3405.374,2737.846z"/>
	<path style="fill:#FFFFFF;" d="M3310.895,2761.524c-1.727-2.964-2.718-5.093-3.299-8.479c-4.184-24.508,0.768-50.327,16.257-70.088
		c17.855-22.773,37.511-23.333,64.128-26.367c16.884,8.492,27.085,20.673,33.523,38.433c2.59,7.155,4.217,14.954,5.698,22.404
		c-3.661,4.362-6.574,8.384-9.479,13.285c-2.631,4.428-4.441,6.96-9.318,9.172l-3.03-2.038c2.602-6.138,3.764-9.529,3.519-16.178
		c-2.847-6.462-6.5-9.538-12.912-12.124c-17.079-6.889-40.832-5.096-57.483,2.283c-12.559,5.57-23.495,16.041-27.658,29.414
		C3308.761,2747.915,3310.04,2754.734,3310.895,2761.524z"/>
	<path style="fill:#F79317;" d="M2863.275,2818.875c-1.573-0.905-3.13-1.839-4.624-2.868c-23.632-16.327-44.048-36.22-48.966-65.854
		c-3.715-22.375,0.643-44.666,14.277-62.986c11.658-15.668,30.995-30.298,50.742-33.021c9.998-1.382,22.217-1.075,30.555,5.18
		l1.673,5.038c26.961,22.284,23.732,37.104,36.909,64.394c4.927,20.893,0.552,44.538-10.737,62.729
		c-9.766,15.738-22.848,24.99-38.288,34.357C2883.272,2825.702,2873.884,2823.299,2863.275,2818.875z"/>
	<path style="fill:#EE4515;" d="M2939.979,2731.691l3.864-2.934c4.927,20.893,0.552,44.538-10.737,62.729
		c-9.766,15.738-22.848,24.99-38.288,34.357c-11.546-0.141-20.935-2.544-31.543-6.968c8.857-5.209,19.175-7.703,28.289-12.551
		C2922.323,2789.946,2931.113,2762.989,2939.979,2731.691z"/>
	<path style="fill:#FFFFFF;" d="M2814.255,2728.097c6.383-20.939,16.058-41.442,34.718-54.171
		c17.922-12.219,37.341-13.617,57.96-9.563c26.961,22.284,23.732,37.104,36.909,64.394l-3.864,2.934
		c-5.039,2.15-8.981,4.345-14.543,4.428c-25.911,10.783-50.51,21.615-78.874,10.015c-4.238-1.731-8.209-4.317-11.978-6.885
		C2827.902,2737.568,2820.29,2731.65,2814.255,2728.097z"/>
	<path style="fill:#F7851D;" d="M2834.583,2739.249c0.876-2.428,1.81-4.512,3.038-6.782c6.138-11.334,15.647-18.527,28.044-21.926
		c17.12-4.69,40.425-2.358,55.482,7.483c4.59,2.996,8.193,6.08,9.417,11.6l-5.13,6.495c-25.911,10.783-50.51,21.615-78.874,10.015
		C2842.324,2744.404,2838.352,2741.818,2834.583,2739.249z"/>
	
		<linearGradient id="SVGID_00000174571029890594700020000006344162401617110171_" gradientUnits="userSpaceOnUse" x1="1805.123" y1="2682.1736" x2="1665.4929" y2="3178.6306" gradientTransform="matrix(4.8828 0 0 -4.8828 -5983.4678 16809.6836)">
		<stop  offset="0" style="stop-color:#063885"/>
		<stop  offset="1" style="stop-color:#0654B4"/>
	</linearGradient>
	<path style="fill:url(#SVGID_00000174571029890594700020000006344162401617110171_);" d="M3807.51,1596.249l73.163-0.344
		c49.331-0.129,92.753,0.386,130.276,36.951c5.263,5.169,10.2,10.632,14.813,16.39l8.761,16.701
		c12.314,33.323,9.608,65.502,8.691,100.352c-3.964,100.423-0.195,201.559,0.311,302.057l-0.955,385.156
		c0.237,40.653-0.469,81.609,0.826,122.225l-0.12,23.408c-0.368,98.854-0.224,197.704,0.432,296.549l0.091,24.857l-0.212,295.25
		c-0.091,53.719-1.814,108.022,0.473,161.662c-29.905,0.365-59.811,0.375-89.719,0.029l-0.772-1131.931l-0.585-339.738
		c-0.046-52.341,3.482-118.02-0.498-169.004c-0.817-10.501-5.184-22.217-12.949-29.601c-6.358-6.047-15.024-9.479-23.458-11.393
		c-27.355-6.213-61.194-2.631-89.217-2.32l-127.23,1.071l-528.116,0.066l-1399.864-0.183l-482.429,0.191
		c-80.198,0.104-160.956-1.851-241.071,0.569l0.054,1685.344c-30.428-0.337-60.856-0.261-91.284,0.228l-0.992-533.997l0.154-294.844
		c-0.017-13.738-0.349-27.492-0.535-41.23c1.693-102.552,0.22-205.345,0.324-307.926c0.05-45.526-0.917-91.333,1.17-136.805
		c2.822-32.128,0.71-65.85,0.693-98.177l-0.125-191.329c-0.033-32.688-3.827-69.739,3.142-101.606
		c3.947-18.062,12.393-34.282,25.371-47.534c38.81-39.628,94.695-28.758,144.882-29.854l1482.743-0.486l72.279-0.481l801.565,0.685
		C3594.101,1597.199,3701.06,1599.175,3807.51,1596.249z"/>
</g>
</svg>
