<?xml version="1.0" encoding="utf-8"?>
<!-- Generator: Adobe Illustrator 27.5.0, SVG Export Plug-In . SVG Version: 6.00 Build 0)  -->
<svg version="1.1" id="Layer_1" xmlns="http://www.w3.org/2000/svg" xmlns:xlink="http://www.w3.org/1999/xlink" x="0px" y="0px"
	 viewBox="0 0 3000 2657.655" style="enable-background:new 0 0 3000 2657.655;" xml:space="preserve">
<rect x="48.908" y="42.188" style="fill:#FFFFFF;" width="2902.184" height="2573.279"/>
<g>
	<ellipse style="opacity:0.2;fill:#1F1F47;" cx="620.706" cy="2185.16" rx="308.854" ry="44.883"/>
	<ellipse style="opacity:0.2;fill:#1F1F47;" cx="2379.294" cy="2140.277" rx="308.854" ry="44.883"/>
	<ellipse style="opacity:0.2;fill:#1F1F47;" cx="1449.454" cy="1919.833" rx="777.779" ry="44.883"/>
	<ellipse style="opacity:0.2;fill:#1F1F47;" cx="1591.242" cy="2069.079" rx="569.314" ry="44.883"/>
	<g>
		<linearGradient id="SVGID_1_" gradientUnits="userSpaceOnUse" x1="1189.7976" y1="1721.4521" x2="1189.7976" y2="1872.6331">
			<stop  offset="0" style="stop-color:#2D3D8E"/>
			<stop  offset="1" style="stop-color:#EAEBF7"/>
		</linearGradient>
		<path style="fill:url(#SVGID_1_);" d="M1376.293,1849.645c-23.094-12.117-20.019-64.027-20.019-64.027v-104.982h-166.5l0,0
			h-166.47v104.988c0,0,3.058,51.901-20.083,64.021c-23.073,12.088-104.777,50.191-104.777,50.191l291.33-0.009l0,0h291.377
			C1481.152,1899.828,1399.431,1861.728,1376.293,1849.645z"/>
		
			<linearGradient id="SVGID_00000132055931990412355070000017566525044205617836_" gradientUnits="userSpaceOnUse" x1="1189.7848" y1="1650.0239" x2="1189.7848" y2="482.6431">
			<stop  offset="0" style="stop-color:#2D3D8E"/>
			<stop  offset="1" style="stop-color:#EAEBF7"/>
		</linearGradient>
		<path style="fill:url(#SVGID_00000132055931990412355070000017566525044205617836_);" d="M430.858,1644.23
			c0,31.697,22.902,57.418,51.152,57.418l1415.55-0.004c28.271,0,51.152-25.715,51.152-57.42V485.045
			c0-31.712-22.881-57.433-51.152-57.433L482.01,427.62c-28.25,0-51.152,25.706-51.152,57.431V1644.23z"/>
		
			<linearGradient id="SVGID_00000123407553910702409800000013650486214741314993_" gradientUnits="userSpaceOnUse" x1="1189.7677" y1="1598.6873" x2="1189.7677" y2="841.5595">
			<stop  offset="0" style="stop-color:#EBEEFF"/>
			<stop  offset="0.9952" style="stop-color:#FFFFFF"/>
		</linearGradient>
		<path style="fill:url(#SVGID_00000123407553910702409800000013650486214741314993_);" d="M1906.085,485.029v1159.152
			c0,5.352-3.827,9.602-8.525,9.602l-1415.61-0.002c-4.681,0-8.5-4.245-8.5-9.602V485.03c0-5.261,3.819-9.581,8.5-9.581
			l1415.61,0.002C1902.258,475.451,1906.085,479.764,1906.085,485.029z"/>
		<path style="fill:#2D3D8E;" d="M1906.085,485.029v156L473.45,641.027V485.03c0-5.261,3.819-9.581,8.5-9.581l1415.61,0.002
			C1902.258,475.451,1906.085,479.764,1906.085,485.029z"/>
		<path style="fill:#FFFFFF;" d="M1676.888,553.845c0,10.531-7.598,19.078-17.008,19.078c-9.396,0-16.999-8.55-16.999-19.078
			c0-10.548,7.603-19.084,16.999-19.084C1669.29,534.761,1676.888,543.297,1676.888,553.845z"/>
		
			<linearGradient id="SVGID_00000071519725194615026290000006271236035055637896_" gradientUnits="userSpaceOnUse" x1="1710.9083" y1="553.8419" x2="1744.8986" y2="553.8419">
			<stop  offset="0" style="stop-color:#13B6E8"/>
			<stop  offset="1" style="stop-color:#69B594"/>
		</linearGradient>
		<path style="fill:url(#SVGID_00000071519725194615026290000006271236035055637896_);" d="M1744.899,553.841
			c0,10.534-7.586,19.082-16.991,19.082c-9.393,0-17-8.548-17-19.082c0-10.544,7.607-19.081,17-19.081
			C1737.313,534.761,1744.899,543.297,1744.899,553.841z"/>
		
			<linearGradient id="SVGID_00000153670118681066953260000000522562390323882943_" gradientUnits="userSpaceOnUse" x1="1778.9187" y1="553.8419" x2="1812.9431" y2="553.8419">
			<stop  offset="0" style="stop-color:#ABB2E4"/>
			<stop  offset="1" style="stop-color:#D9DCF3"/>
		</linearGradient>
		<path style="fill:url(#SVGID_00000153670118681066953260000000522562390323882943_);" d="M1812.943,553.841
			c0,10.534-7.624,19.082-17.025,19.082c-9.405,0-17-8.548-17-19.082c0-10.544,7.594-19.081,17-19.081
			C1805.319,534.761,1812.943,543.297,1812.943,553.841z"/>
		
			<linearGradient id="SVGID_00000018921601085274610420000006235805516887316384_" gradientUnits="userSpaceOnUse" x1="528.7025" y1="734.0126" x2="1209.6609" y2="734.0126">
			<stop  offset="0" style="stop-color:#13B6E8"/>
			<stop  offset="1" style="stop-color:#9A9AD8"/>
		</linearGradient>
		<path style="fill:url(#SVGID_00000018921601085274610420000006235805516887316384_);" d="M1209.661,734.002
			c0,13.332-8.957,24.153-20.066,24.153L548.76,758.16c-11.058,0-20.058-10.822-20.058-24.159l0,0
			c0-13.323,8.999-24.125,20.058-24.125l640.835-0.011C1200.704,709.865,1209.661,720.68,1209.661,734.002L1209.661,734.002z"/>
		
			<linearGradient id="SVGID_00000052823565687878292600000015262936586257315774_" gradientUnits="userSpaceOnUse" x1="528.7025" y1="830.5441" x2="929.5594" y2="830.5441">
			<stop  offset="0" style="stop-color:#13B6E8"/>
			<stop  offset="1" style="stop-color:#9A9AD8"/>
		</linearGradient>
		<path style="fill:url(#SVGID_00000052823565687878292600000015262936586257315774_);" d="M929.559,830.532
			c0,13.351-8.974,24.142-20.057,24.142l-360.742,0.002c-11.058,0-20.058-10.79-20.058-24.146l0,0
			c0-13.319,8.999-24.111,20.058-24.111l360.742-0.007C920.586,806.412,929.559,817.212,929.559,830.532L929.559,830.532z"/>
		
			<linearGradient id="SVGID_00000003078709341400724870000018185806468649573014_" gradientUnits="userSpaceOnUse" x1="1430.0123" y1="1140.1824" x2="1870.5104" y2="1140.1824">
			<stop  offset="0" style="stop-color:#4452B3"/>
			<stop  offset="1" style="stop-color:#78C5FF"/>
		</linearGradient>
		
			<rect x="1430.012" y="666.991" style="opacity:0.2;fill:url(#SVGID_00000003078709341400724870000018185806468649573014_);" width="440.498" height="946.384"/>
		
			<linearGradient id="SVGID_00000066496986828612514610000000123847216073169813_" gradientUnits="userSpaceOnUse" x1="1467.3044" y1="760.8523" x2="1727.9078" y2="760.8523">
			<stop  offset="0" style="stop-color:#13B6E8"/>
			<stop  offset="1" style="stop-color:#9A9AD8"/>
		</linearGradient>
		<path style="fill:url(#SVGID_00000066496986828612514610000000123847216073169813_);" d="M1727.908,760.851
			c0,16.907-14.198,30.61-31.697,30.61h-197.214c-17.495,0-31.692-13.703-31.692-30.61l0,0c0-16.901,14.197-30.608,31.692-30.608
			h197.214C1713.71,730.243,1727.908,743.946,1727.908,760.851L1727.908,760.851z"/>
		<g>
			<path style="opacity:0.7;fill:#828282;" d="M1822.925,889.89c0,8.265-5.976,14.963-13.335,14.963h-322.583
				c-7.368,0-13.33-6.698-13.33-14.963l0,0c0-8.26,5.963-14.951,13.33-14.951l322.583-0.008
				C1816.949,874.93,1822.925,881.63,1822.925,889.89L1822.925,889.89z"/>
			<path style="opacity:0.7;fill:#828282;" d="M1822.925,963.517c0,8.266-5.976,14.959-13.335,14.959l-322.583,0.003
				c-7.368,0-13.33-6.696-13.33-14.962l0,0c0-8.261,5.963-14.965,13.33-14.965l322.583,0.001
				C1816.949,948.553,1822.925,955.257,1822.925,963.517L1822.925,963.517z"/>
			<path style="opacity:0.7;fill:#828282;" d="M1822.925,1037.142c0,8.258-5.976,14.967-13.335,14.967h-322.583
				c-7.368,0-13.33-6.709-13.33-14.968l0,0c0-8.267,5.963-14.967,13.33-14.967h322.583
				C1816.949,1022.174,1822.925,1028.874,1822.925,1037.142L1822.925,1037.142z"/>
			<path style="opacity:0.7;fill:#828282;" d="M1822.925,1110.76c0,8.267-5.976,14.965-13.335,14.965h-322.583
				c-7.368,0-13.33-6.698-13.33-14.959l0,0c0-8.267,5.963-14.958,13.33-14.958l322.583-0.006
				C1816.949,1095.802,1822.925,1102.499,1822.925,1110.76L1822.925,1110.76z"/>
			<path style="opacity:0.7;fill:#828282;" d="M1822.925,1184.394c0,8.261-5.976,14.952-13.335,14.952l-322.583-0.001
				c-7.368,0-13.33-6.69-13.33-14.952l0,0c0-8.266,5.963-14.967,13.33-14.967h322.583
				C1816.949,1169.426,1822.925,1176.129,1822.925,1184.394L1822.925,1184.394z"/>
			<path style="opacity:0.7;fill:#828282;" d="M1822.925,1258.022c0,8.267-5.976,14.96-13.335,14.96l-322.583-0.001
				c-7.368,0-13.33-6.692-13.33-14.959l0,0c0-8.267,5.963-14.978,13.33-14.978h322.583
				C1816.949,1243.044,1822.925,1249.757,1822.925,1258.022L1822.925,1258.022z"/>
			<path style="opacity:0.7;fill:#828282;" d="M1822.925,1331.644c0,8.267-5.976,14.965-13.335,14.965l-322.583-0.002
				c-7.368,0-13.33-6.697-13.33-14.963l0,0c0-8.268,5.963-14.963,13.33-14.963h322.583
				C1816.949,1316.681,1822.925,1323.376,1822.925,1331.644L1822.925,1331.644z"/>
			<path style="opacity:0.7;fill:#828282;" d="M1822.925,1405.267c0,8.265-5.976,14.954-13.335,14.954h-322.583
				c-7.368,0-13.33-6.689-13.33-14.954l0,0c0-8.271,5.963-14.958,13.33-14.958h322.583
				C1816.949,1390.309,1822.925,1396.995,1822.925,1405.267L1822.925,1405.267z"/>
			<path style="opacity:0.7;fill:#828282;" d="M1822.925,1478.894c0,8.269-5.976,14.958-13.335,14.958h-322.583
				c-7.368,0-13.33-6.689-13.33-14.958l0,0c0-8.269,5.963-14.968,13.33-14.968h322.583
				C1816.949,1463.925,1822.925,1470.627,1822.925,1478.894L1822.925,1478.894z"/>
		</g>
	</g>
	<g>
		
			<linearGradient id="SVGID_00000106841424269795588700000017994701941146928024_" gradientUnits="userSpaceOnUse" x1="11943.6484" y1="2130.3901" x2="12004.0098" y2="2130.3901" gradientTransform="matrix(-1 0 0 1 12405.2285 0)">
			<stop  offset="0" style="stop-color:#FFBC9F"/>
			<stop  offset="1" style="stop-color:#FF9A7B"/>
		</linearGradient>
		<path style="fill:url(#SVGID_00000106841424269795588700000017994701941146928024_);" d="M402.072,2103.99
			c0,0-4.208,35.005,6.064,44.342c10.27,9.337,51.335,13.069,53.199-0.002c1.861-13.075-7.468-30.342-7.468-30.342L402.072,2103.99z
			"/>
		<path style="fill:#2A2A5B;" d="M398.713,2126.531c7.796,0.23,10.4,10.114,19,15.581c8.598,5.48,33.482-1.35,40.724-7.837
			c7.243-6.479,8.6-6.667,13.571,1.005c4.988,7.672,46.602,27.893,63.359,29.563c16.747,1.684,22.161,14.739,3.155,20.206
			c-19.005,5.482-74.651-4.201-96.824-4.201c-22.173,0-40.724,0.42-42.985-14.319
			C396.451,2151.792,396.067,2126.459,398.713,2126.531z"/>
		<g>
			
				<linearGradient id="SVGID_00000091002628922573201650000012431734651803796153_" gradientUnits="userSpaceOnUse" x1="560.7844" y1="1169.5719" x2="1185.8536" y2="1169.5719">
				<stop  offset="0" style="stop-color:#E6E9FF"/>
				<stop  offset="0.9952" style="stop-color:#EEEEEE"/>
			</linearGradient>
			
				<rect x="560.784" y="942.432" style="fill:url(#SVGID_00000091002628922573201650000012431734651803796153_);" width="625.069" height="454.279"/>
			<rect x="560.784" y="942.432" style="fill:#CACAD8;" width="625.069" height="80.86"/>
			<rect x="752.213" y="1023.291" style="fill:#FFFFFF;" width="433.641" height="373.421"/>
			<path style="fill:#E4E4ED;" d="M686.764,978.126c0,6.365-5.161,11.529-11.534,11.529h-77.175
				c-6.369,0-11.536-5.164-11.536-11.529l0,0c0-6.373,5.167-11.539,11.536-11.539l77.175-0.002
				C681.602,966.585,686.764,971.753,686.764,978.126L686.764,978.126z"/>
			<path style="fill:#E4E4ED;" d="M1041.956,982.243c0,8.646-7.017,15.647-15.65,15.647H749.382c-8.638,0-15.655-7-15.655-15.647
				l0,0c0-8.646,7.017-15.658,15.655-15.658h276.925C1034.939,966.585,1041.956,973.597,1041.956,982.243L1041.956,982.243z"/>
			<path style="fill:#EAEAEA;" d="M796.747,1043.418c0,3.741-3.028,6.764-6.77,6.764h-17.911c-3.737,0-6.767-3.022-6.767-6.764l0,0
				c0-3.733,3.03-6.768,6.767-6.768h17.911C793.719,1036.65,796.747,1039.685,796.747,1043.418L796.747,1043.418z"/>
			<path style="fill:#EAEAEA;" d="M1150.206,1043.417c0,3.742-3.035,6.765-6.77,6.765H821.358c-3.748,0-6.77-3.023-6.77-6.764l0,0
				c0-3.733,3.021-6.768,6.77-6.768l322.078-0.002C1147.171,1036.648,1150.206,1039.684,1150.206,1043.417L1150.206,1043.417z"/>
			<path style="fill:#EAEAEA;" d="M796.747,1076.704c0,3.732-3.028,6.767-6.77,6.767h-17.911c-3.737,0-6.767-3.035-6.767-6.767l0,0
				c0-3.742,3.03-6.764,6.767-6.764h17.911C793.719,1069.94,796.747,1072.962,796.747,1076.704L796.747,1076.704z"/>
			<path style="fill:#EAEAEA;" d="M1150.206,1076.704c0,3.732-3.035,6.767-6.77,6.767l-322.078,0.001
				c-3.748,0-6.77-3.035-6.77-6.767l0,0c0-3.742,3.021-6.764,6.77-6.764h322.078
				C1147.171,1069.94,1150.206,1072.962,1150.206,1076.704L1150.206,1076.704z"/>
			<path style="fill:#EAEAEA;" d="M796.747,1109.985c0,3.741-3.028,6.769-6.77,6.769h-17.911c-3.737,0-6.767-3.028-6.767-6.769l0,0
				c0-3.742,3.03-6.768,6.767-6.768h17.911C793.719,1103.217,796.747,1106.244,796.747,1109.985L796.747,1109.985z"/>
			<path style="fill:#EAEAEA;" d="M1150.206,1109.984c0,3.742-3.035,6.771-6.77,6.771H821.358c-3.748,0-6.77-3.028-6.77-6.769l0,0
				c0-3.742,3.021-6.768,6.77-6.768h322.078C1147.171,1103.217,1150.206,1106.244,1150.206,1109.984L1150.206,1109.984z"/>
			<path style="fill:#EAEAEA;" d="M796.747,1143.271c0,3.742-3.028,6.771-6.77,6.771h-17.911c-3.737,0-6.767-3.029-6.767-6.771l0,0
				c0-3.741,3.03-6.769,6.767-6.769h17.911C793.719,1136.502,796.747,1139.53,796.747,1143.271L796.747,1143.271z"/>
			<path style="fill:#EAEAEA;" d="M1150.206,1143.271c0,3.742-3.035,6.767-6.77,6.767l-322.078,0.004
				c-3.748,0-6.77-3.029-6.77-6.771l0,0c0-3.741,3.021-6.769,6.77-6.769h322.078
				C1147.171,1136.502,1150.206,1139.53,1150.206,1143.271L1150.206,1143.271z"/>
			<path style="fill:#EAEAEA;" d="M796.747,1176.552c0,3.742-3.028,6.764-6.77,6.764h-17.911c-3.737,0-6.767-3.022-6.767-6.764l0,0
				c0-3.732,3.03-6.767,6.767-6.767h17.911C793.719,1169.785,796.747,1172.82,796.747,1176.552L796.747,1176.552z"/>
			<path style="fill:#EAEAEA;" d="M1150.206,1176.552c0,3.741-3.035,6.764-6.77,6.764H821.358c-3.748,0-6.77-3.022-6.77-6.764l0,0
				c0-3.732,3.021-6.768,6.77-6.768h322.078C1147.171,1169.785,1150.206,1172.82,1150.206,1176.552L1150.206,1176.552z"/>
			<path style="fill:#EAEAEA;" d="M796.747,1209.837c0,3.735-3.028,6.77-6.77,6.77h-17.911c-3.737,0-6.767-3.035-6.767-6.77l0,0
				c0-3.739,3.03-6.768,6.767-6.768h17.911C793.719,1203.068,796.747,1206.098,796.747,1209.837L796.747,1209.837z"/>
			<path style="fill:#EAEAEA;" d="M1150.206,1209.837c0,3.735-3.035,6.77-6.77,6.77H821.358c-3.748,0-6.77-3.035-6.77-6.77l0,0
				c0-3.739,3.021-6.768,6.77-6.768h322.078C1147.171,1203.068,1150.206,1206.096,1150.206,1209.837L1150.206,1209.837z"/>
			<path style="fill:#EAEAEA;" d="M796.747,1243.12c0,3.74-3.028,6.77-6.77,6.77h-17.911c-3.737,0-6.767-3.03-6.767-6.77l0,0
				c0-3.737,3.03-6.767,6.767-6.767h17.911C793.719,1236.353,796.747,1239.383,796.747,1243.12L796.747,1243.12z"/>
			<path style="fill:#EAEAEA;" d="M1150.206,1243.12c0,3.74-3.035,6.77-6.77,6.77H821.358c-3.748,0-6.77-3.03-6.77-6.77l0,0
				c0-3.737,3.021-6.767,6.77-6.767h322.078C1147.171,1236.353,1150.206,1239.383,1150.206,1243.12L1150.206,1243.12z"/>
			<path style="fill:#EAEAEA;" d="M796.747,1276.406c0,3.742-3.028,6.77-6.77,6.77h-17.911c-3.737,0-6.767-3.028-6.767-6.77l0,0
				c0-3.742,3.03-6.77,6.767-6.77h17.911C793.719,1269.636,796.747,1272.664,796.747,1276.406L796.747,1276.406z"/>
			<path style="fill:#EAEAEA;" d="M1150.206,1276.406c0,3.742-3.035,6.77-6.77,6.77H821.358c-3.748,0-6.77-3.028-6.77-6.77l0,0
				c0-3.742,3.021-6.77,6.77-6.77h322.078C1147.171,1269.636,1150.206,1272.664,1150.206,1276.406L1150.206,1276.406z"/>
			<path style="fill:#EAEAEA;" d="M796.747,1309.687c0,3.735-3.028,6.763-6.77,6.763h-17.911c-3.737,0-6.767-3.028-6.767-6.763l0,0
				c0-3.73,3.03-6.767,6.767-6.767h17.911C793.719,1302.921,796.747,1305.958,796.747,1309.687L796.747,1309.687z"/>
			<path style="fill:#EAEAEA;" d="M1150.206,1309.687c0,3.735-3.035,6.763-6.77,6.763H821.358c-3.748,0-6.77-3.028-6.77-6.763l0,0
				c0-3.73,3.021-6.767,6.77-6.767l322.078-0.002C1147.171,1302.919,1150.206,1305.954,1150.206,1309.687L1150.206,1309.687z"/>
			<path style="fill:#EAEAEA;" d="M733.727,1044.969c0,2.883-2.125,5.213-4.753,5.213H598.838c-2.631,0-4.767-2.33-4.767-5.212l0,0
				c0-2.868,2.137-5.207,4.767-5.207h130.136C731.603,1039.763,733.727,1042.102,733.727,1044.969L733.727,1044.969z"/>
			<path style="fill:#EAEAEA;" d="M733.727,1076.696c0,2.885-2.125,5.216-4.753,5.216H598.838c-2.631,0-4.767-2.33-4.767-5.216l0,0
				c0-2.871,2.137-5.215,4.767-5.215h130.136C731.603,1071.481,733.727,1073.825,733.727,1076.696L733.727,1076.696z"/>
			<path style="fill:#EAEAEA;" d="M733.727,1108.425c0,2.876-2.125,5.221-4.753,5.221H598.838c-2.631,0-4.767-2.344-4.767-5.221l0,0
				c0-2.876,2.137-5.206,4.767-5.206l130.136-0.002C731.603,1103.217,733.727,1105.548,733.727,1108.425L733.727,1108.425z"/>
			<path style="fill:#EAEAEA;" d="M733.727,1140.151c0,2.873-2.125,5.215-4.753,5.215l-130.136,0.001
				c-2.631,0-4.767-2.342-4.767-5.216l0,0c0-2.883,2.137-5.213,4.767-5.213h130.136
				C731.603,1134.938,733.727,1137.268,733.727,1140.151L733.727,1140.151z"/>
			<path style="fill:#EAEAEA;" d="M733.727,1171.874c0,2.885-2.125,5.212-4.753,5.212H598.838c-2.631,0-4.767-2.327-4.767-5.212l0,0
				c0-2.87,2.137-5.212,4.767-5.212h130.136C731.603,1166.662,733.727,1169.004,733.727,1171.874L733.727,1171.874z"/>
			<path style="fill:#EAEAEA;" d="M733.727,1203.597c0,2.885-2.125,5.214-4.753,5.214H598.838c-2.631,0-4.767-2.329-4.767-5.214l0,0
				c0-2.874,2.137-5.214,4.767-5.214h130.136C731.603,1198.383,733.727,1200.723,733.727,1203.597L733.727,1203.597z"/>
			<path style="fill:#EAEAEA;" d="M733.727,1235.326c0,2.874-2.125,5.22-4.753,5.22H598.838c-2.631,0-4.767-2.346-4.767-5.22l0,0
				c0-2.879,2.137-5.208,4.767-5.208h130.136C731.603,1230.118,733.727,1232.447,733.727,1235.326L733.727,1235.326z"/>
			<path style="fill:#EAEAEA;" d="M733.727,1267.053c0,2.869-2.125,5.217-4.753,5.217H598.838c-2.631,0-4.767-2.348-4.767-5.217l0,0
				c0-2.876,2.137-5.216,4.767-5.216h130.136C731.603,1261.837,733.727,1264.178,733.727,1267.053L733.727,1267.053z"/>
			<path style="fill:#EAEAEA;" d="M639.863,1309.886c0,10.368-8.404,18.774-18.772,18.774c-10.366,0-18.772-8.403-18.772-18.774
				c0-10.366,8.406-18.764,18.772-18.764C631.459,1291.123,639.863,1299.52,639.863,1309.886z"/>
			<path style="fill:#EAEAEA;" d="M639.863,1361.799c0,10.359-8.404,18.765-18.772,18.765c-10.366,0-18.772-8.406-18.772-18.765
				c0-10.371,8.406-18.772,18.772-18.772C631.459,1343.027,639.863,1351.428,639.863,1361.799z"/>
			<path style="fill:#EAEAEA;" d="M733.727,1305.318c0,2.972-2.411,5.395-5.398,5.395h-69.018c-2.996,0-5.408-2.423-5.408-5.395l0,0
				c0-2.987,2.413-5.407,5.408-5.407h69.018C731.316,1299.911,733.727,1302.331,733.727,1305.318L733.727,1305.318z"/>
			<path style="fill:#EAEAEA;" d="M733.727,1357.069c0,2.977-2.411,5.395-5.398,5.395h-69.018c-2.996,0-5.408-2.418-5.408-5.395l0,0
				c0-2.984,2.413-5.395,5.408-5.395h69.018C731.316,1351.675,733.727,1354.086,733.727,1357.069L733.727,1357.069z"/>
		</g>
		
			<linearGradient id="SVGID_00000132076771205610452260000007243287628466058883_" gradientUnits="userSpaceOnUse" x1="11799.9375" y1="2140.2769" x2="11860.2988" y2="2140.2769" gradientTransform="matrix(-1 0 0 1 12405.2285 0)">
			<stop  offset="0" style="stop-color:#FFBC9F"/>
			<stop  offset="1" style="stop-color:#FF9A7B"/>
		</linearGradient>
		<path style="fill:url(#SVGID_00000132076771205610452260000007243287628466058883_);" d="M545.783,2113.876
			c0,0-4.208,35.005,6.064,44.342c10.27,9.337,51.335,13.069,53.199-0.002c1.861-13.075-7.468-30.342-7.468-30.342L545.783,2113.876
			z"/>
		<path style="fill:#2A2A5B;" d="M401.853,2118.717c0,0,0,0,18.825,9.491c0.135,0.057,0.206,0.127,0.331,0.127
			c18.758,9.156,34.72-1.504,34.72-1.504s-12.374-53.958-0.466-130.913c12.091-78.072,53.878-179.099,53.878-179.099l12.745-129.267
			l16.867,110.443c0,0-5.361,21.506-14.842,99.653c-9.406,78.066,16.224,213.471,16.224,213.471s2.346,4.707,8.758,10.265
			c0.19,0.206,0.322,0.271,0.322,0.271c4.378,3.79,10.598,7.844,19.155,11.047c21.583,8.042,33.679,0,33.679,0
			s4.062-46.547,8.106-107.171c3.99-60.61,22.886-173.655,29.615-201.968c6.743-28.246,8.965-251.813,8.965-251.813
			s-211.06-71.402-233.361-9.546c-0.259,0.598-0.451,1.188-0.655,1.776c-19.034,64.916,9.55,182.817,12.29,207.07
			c2.685,24.266-25.623,61.922-37.723,148.097C377.113,2005.332,401.853,2118.717,401.853,2118.717z"/>
		
			<linearGradient id="SVGID_00000036964939725502439180000015951236847446343300_" gradientUnits="userSpaceOnUse" x1="11917.8213" y1="1376.7325" x2="12025.5107" y2="1376.7325" gradientTransform="matrix(-1 0 0 1 12405.2285 0)">
			<stop  offset="0" style="stop-color:#FFBC9F"/>
			<stop  offset="1" style="stop-color:#FF9A7B"/>
		</linearGradient>
		<path style="fill:url(#SVGID_00000036964939725502439180000015951236847446343300_);" d="M379.718,1339.198
			c0,0,2.083,59.244,16.994,72.849c14.902,13.602,90.695,15.54,90.695,15.54l-51.191-101.708L379.718,1339.198z"/>
		
			<linearGradient id="SVGID_00000060003637463001337910000004438894152957300653_" gradientUnits="userSpaceOnUse" x1="11839.46" y1="1149.4224" x2="11916.8838" y2="1149.4224" gradientTransform="matrix(-1 0 0 1 12405.2285 0)">
			<stop  offset="0" style="stop-color:#FFBC9F"/>
			<stop  offset="1" style="stop-color:#FF9A7B"/>
		</linearGradient>
		<path style="fill:url(#SVGID_00000060003637463001337910000004438894152957300653_);" d="M564.691,1125.744
			c0,0-3.574,15.499,0,25.487c3.575,9.989-2.673,33.16-5.275,37.081c-2.605,3.905-10.265-13.184-39.367-18.403
			c-29.119-5.207-34.753,13.758-30.393,8.534c4.344-5.207-0.465-38.51,2.137-46.326c2.624-7.825,6.53-22.158,6.53-22.158
			L564.691,1125.744z"/>
		
			<linearGradient id="SVGID_00000055709237956605519870000009318352695250523820_" gradientUnits="userSpaceOnUse" x1="11776.5684" y1="1975.6467" x2="11883.1514" y2="1975.6467" gradientTransform="matrix(-0.9992 0.0388 0.0388 0.9992 12295.8906 -1370.5642)">
			<stop  offset="0" style="stop-color:#FFBC9F"/>
			<stop  offset="1" style="stop-color:#FF9A7B"/>
		</linearGradient>
		<path style="fill:url(#SVGID_00000055709237956605519870000009318352695250523820_);" d="M601.59,994.492
			c0,0,4.35,36.814,1.488,42.792c-2.842,5.987-10.15,16.189-8.43,21.605c1.721,5.427,9.826,19.125,9.08,25.377
			c-0.748,6.258-3.646,20.503-8.561,32.798c-4.944,12.296-22.032,22.556-41.737,17.539c-19.695-5.019-45.791-3.34-50.393-14.499
			c-4.592-11.16-8.449-110.053,19.754-124.809C550.979,980.543,601.59,994.492,601.59,994.492z"/>
		
			<linearGradient id="SVGID_00000163056807463324001940000002359619190257660599_" gradientUnits="userSpaceOnUse" x1="11773.7451" y1="1044.672" x2="11946.6738" y2="1044.672" gradientTransform="matrix(-0.9918 0.1278 0.1278 0.9918 12168.0996 -1509.6392)">
			<stop  offset="0" style="stop-color:#583827"/>
			<stop  offset="1" style="stop-color:#301D1A"/>
		</linearGradient>
		<path style="fill:url(#SVGID_00000163056807463324001940000002359619190257660599_);" d="M608.77,957.377
			c19.104,16.652,1.788,46.946-19.819,56.557c-21.6,9.606-29.719,13.058-29.432,18.934c0.274,5.883-7.084,4.105-5.296,17.979
			c1.787,13.868,0.138,24.991-1.563,25.663c-1.714,0.678-8.924-25.68-18.161-19.943c-9.263,5.739-4.945,17.01,0.178,27.278
			c5.134,10.253-5.702,58.097-24.396,59.339c-18.705,1.251-26.92,0.189-31.804-22.909c-4.884-23.099-22.187-61.367-27.988-87.912
			c-5.8-26.544,3.945-50.543,22.409-66.118C491.356,950.673,576.071,928.841,608.77,957.377z"/>
		
			<linearGradient id="SVGID_00000036224659273267843610000003921511803364166289_" gradientUnits="userSpaceOnUse" x1="374.8436" y1="1374.5613" x2="699.1413" y2="1374.5613">
			<stop  offset="0" style="stop-color:#FF812C"/>
			<stop  offset="1" style="stop-color:#FFD05A"/>
		</linearGradient>
		<path style="fill:url(#SVGID_00000036224659273267843610000003921511803364166289_);" d="M375.417,1337.34
			c0,0,8.301,4.777,23.474,5.496c15.113,0.658,16.282,0.257,16.282,0.257s17.985,70.105,7.653,119.722
			c-10.33,49.63-8.109,101.154-8.109,101.154s42.051,28.951,108.866,30.339c9.682,0.192,19.293-0.208,28.838-1.048
			c21.9-1.909,42.894-6.16,60.355-10.67c0.19,0,0.396-0.055,0.585-0.125c4.112-1.039,8.116-2.147,11.771-3.203
			c0.069-0.057,0.195-0.057,0.26-0.057c20.199-5.825,33.218-11.057,33.218-11.057s-8.367-71.335-16.608-120.31
			c-4.577-27.259-5.823-48.245-5.949-61.524c-0.072-5.812,0.07-10.073,0.194-12.811c1.507,1.315,6.271,1.439,19.614-3.14
			c26.153-8.958,43.281-20.993,43.281-20.993s-31.055-143.192-37.258-151.427c-6.211-8.306-71.772-41.999-96.109-39.252
			c0,0-19.813,15.233-49.37,7.655c-29.557-7.591-21.068-13.649-40.355-10.907c-19.281,2.746-77.158,12.361-90.952,35.114
			C371.305,1213.304,375.417,1337.34,375.417,1337.34z"/>
		
			<linearGradient id="SVGID_00000101783859282625906290000014470140793315714987_" gradientUnits="userSpaceOnUse" x1="11424.7002" y1="1396.8105" x2="11773.626" y2="1396.8105" gradientTransform="matrix(-1 0 0 1 12405.2285 0)">
			<stop  offset="0" style="stop-color:#FFBC9F"/>
			<stop  offset="1" style="stop-color:#FF9A7B"/>
		</linearGradient>
		<path style="fill:url(#SVGID_00000101783859282625906290000014470140793315714987_);" d="M695.213,1350.769
			c0,0,6.492,32.738,22.181,33.449c15.675,0.715,138.99,9.973,148.968,6.41c9.98-3.562,24.234-14.874,40.636-17.412
			c16.389-2.536,27.089-3.594,27.089-3.594s2.843,3.915-9.99,10.321c-12.82,6.412-18.524,14.962-12.117,17.114
			c6.418,2.121,46.334-5.002,62.73-2.865c16.395,2.147-3.563,19.967-38.493,31.364c-34.919,11.404-68.425-7.127-97.64,0
			c-29.236,7.127-176.169,32.781-189.615,3.819c-13.429-28.961-17.359-64.009-17.359-64.009S655.088,1369.282,695.213,1350.769z"/>
		<path style="opacity:0.15;fill:#3F0C12;" d="M548.892,1594.37c0,0,36.023-3.8,63.884-11.779c0.19,0,0.396-0.055,0.585-0.125
			c0.398-0.122,0.715-0.206,1.109-0.324c3.524-1.046,7.127-2.031,10.661-2.879c0.069-0.057,0.195-0.057,0.26-0.057
			c20.199-5.825,33.218-11.057,33.218-11.057s-8.367-71.335-16.608-120.31c-4.577-27.259-5.823-48.245-5.949-61.524l-4.45-20.923
			c0,0-13.732-48.516-19.746-79.053c-6.017-30.599-6.604-48.578-6.604-48.578s-13.794,35.958-7.779,67.159
			c6.012,31.181,18.566,98.261,22.756,147.428c4.246,49.178,14.384,95.344,0,110.304c-12.23,12.757-55.195,26.75-67.809,30.608
			C550.194,1593.975,548.892,1594.37,548.892,1594.37z"/>
		<path style="fill:#2A2A5B;" d="M542.424,2136.417c7.796,0.23,10.401,10.114,19,15.581c8.598,5.481,33.482-1.35,40.724-7.837
			c7.243-6.479,8.6-6.667,13.571,1.005c4.989,7.672,46.602,27.893,63.359,29.563c16.747,1.684,22.161,14.739,3.155,20.206
			c-19.005,5.482-74.651-4.201-96.824-4.201c-22.173,0-40.724,0.42-42.985-14.319
			C540.162,2161.678,539.778,2136.345,542.424,2136.417z"/>
		<path style="opacity:0.15;fill:#3F0C12;" d="M415.174,1343.094c0,0-7.904-40.079-12.914-71.333
			c-4.987-31.256-3.121-39.808-3.121-39.808s-5.691,23.2-0.346,55.565c5.345,32.372,0.1,55.318,0.1,55.318L415.174,1343.094z"/>
		<path style="fill:#1F1F47;" d="M491.411,1616.868c0,0,5.241,23.665,15.764,47.281c10.268,23.212,14.586,23.404,14.71,23.404
			l16.867,110.443c0,0-5.361,21.506-14.842,99.653c-9.406,78.066,16.224,213.471,16.224,213.471s2.346,4.707,8.758,10.265
			c0.19,0.206,0.322,0.271,0.322,0.271s-11.827-264.492,3.207-289.472c15.107-24.964,47.281-29.55,47.281-29.55
			s-48.452-0.65-50.81-40.01c-2.358-39.436,17.323-55.786-15.5-85.336C500.572,1647.66,491.411,1616.868,491.411,1616.868z"/>
		<path style="fill:#1F1F47;" d="M401.853,2118.717c0,0,0,0,18.825,9.491c0.135,0.057,0.206,0.127,0.331,0.127
			c-2.029-5.956-5.487-16.092-10.855-32.631c-10.455-32.496-6.03-183.801,1.042-221.802c6.986-38.048,15.757-48.912,32.688-52.18
			c16.929-3.267,29.822-14.12,29.822-14.12s-22.828-4.32-33.885-15.236c-11.047-10.851-6.333-110.822-11.758-158.623
			c-5.424-47.862,24.253-52.112,24.253-52.112l-36.942-19.427c-0.259,0.598-0.451,1.188-0.655,1.776
			c-19.034,64.916,9.55,182.817,12.29,207.07c2.685,24.266-25.623,61.922-37.723,148.097
			C377.113,2005.332,401.853,2118.717,401.853,2118.717z"/>
		
			<linearGradient id="SVGID_00000142856179247377765600000009760083621179064246_" gradientUnits="userSpaceOnUse" x1="11778.1357" y1="1015.8069" x2="11952.9541" y2="1015.8069" gradientTransform="matrix(-0.9918 0.1278 0.1278 0.9918 12168.0996 -1509.6392)">
			<stop  offset="0" style="stop-color:#210D08"/>
			<stop  offset="1" style="stop-color:#301D1A"/>
		</linearGradient>
		<path style="fill:url(#SVGID_00000142856179247377765600000009760083621179064246_);" d="M467.54,1083.854
			c0,0,6.382-52.112,33.847-56.388c27.455-4.262,44.302,7.932,79.65-2.899c35.356-10.827,40.693-27.775,26.627-55.067
			c-14.072-27.287-127.078-20.69-150.077,7.851C434.573,1005.89,441.045,1061.799,467.54,1083.854z"/>
	</g>
	<g>
		
			<linearGradient id="SVGID_00000183246319552783464690000006412373306317419687_" gradientUnits="userSpaceOnUse" x1="2228.4426" y1="1358.8484" x2="2228.4426" y2="719.4986">
			<stop  offset="0" style="stop-color:#EBEEFF"/>
			<stop  offset="0.9952" style="stop-color:#FFFFFF"/>
		</linearGradient>
		
			<rect x="1867.216" y="547.7" style="fill:url(#SVGID_00000183246319552783464690000006412373306317419687_);" width="722.453" height="743.868"/>
		<rect x="1867.237" y="547.7" style="fill:#EAEAEA;" width="722.432" height="93.453"/>
		<rect x="2088.465" y="641.153" style="fill:#FFFFFF;" width="501.204" height="469.578"/>
		<path style="fill:#FFFFFF;" d="M2012.829,588.955c0,7.356-5.971,13.317-13.335,13.317h-89.195
			c-7.363,0-13.335-5.961-13.335-13.317l0,0c0-7.366,5.971-13.338,13.335-13.338h89.195
			C2006.858,575.617,2012.829,581.588,2012.829,588.955L2012.829,588.955z"/>
		<path style="fill:#FFFFFF;" d="M2423.344,593.704c0,9.997-8.101,18.094-18.086,18.094h-320.055
			c-9.981,0-18.088-8.097-18.088-18.094l0,0c0-9.977,8.107-18.087,18.088-18.087h320.055
			C2415.243,575.617,2423.344,583.727,2423.344,593.704L2423.344,593.704z"/>
		<path style="fill:#EAEAEA;" d="M2139.937,702.89c0,4.313-3.503,7.818-7.827,7.818h-20.689c-4.324,0-7.827-3.505-7.827-7.818l0,0
			c0-4.324,3.503-7.827,7.827-7.827h20.689C2136.435,695.063,2139.937,698.566,2139.937,702.89L2139.937,702.89z"/>
		<path style="fill:#EAEAEA;" d="M2548.456,702.89c0,4.313-3.499,7.818-7.821,7.818h-372.254c-4.326,0-7.825-3.505-7.825-7.818l0,0
			c0-4.324,3.499-7.827,7.825-7.827h372.254C2544.957,695.063,2548.456,698.566,2548.456,702.89L2548.456,702.89z"/>
		<path style="fill:#EAEAEA;" d="M2139.937,741.356c0,4.313-3.503,7.82-7.827,7.82h-20.689c-4.324,0-7.827-3.507-7.827-7.82l0,0
			c0-4.326,3.503-7.827,7.827-7.827h20.689C2136.435,733.529,2139.937,737.03,2139.937,741.356L2139.937,741.356z"/>
		<path style="fill:#EAEAEA;" d="M2548.456,741.356c0,4.313-3.499,7.82-7.821,7.82h-372.254c-4.326,0-7.825-3.507-7.825-7.82l0,0
			c0-4.326,3.499-7.827,7.825-7.827h372.254C2544.957,733.529,2548.456,737.03,2548.456,741.356L2548.456,741.356z"/>
		<path style="fill:#EAEAEA;" d="M2139.937,779.826c0,4.311-3.503,7.818-7.827,7.818h-20.689c-4.324,0-7.827-3.507-7.827-7.818l0,0
			c0-4.324,3.503-7.827,7.827-7.827h20.689C2136.435,772,2139.937,775.503,2139.937,779.826L2139.937,779.826z"/>
		<path style="fill:#EAEAEA;" d="M2548.456,779.826c0,4.311-3.499,7.818-7.821,7.818h-372.254c-4.326,0-7.825-3.507-7.825-7.818l0,0
			c0-4.324,3.499-7.827,7.825-7.827h372.254C2544.957,772,2548.456,775.503,2548.456,779.826L2548.456,779.826z"/>
		<path style="fill:#EAEAEA;" d="M2139.937,818.292c0,4.313-3.503,7.816-7.827,7.816h-20.689c-4.324,0-7.827-3.503-7.827-7.816l0,0
			c0-4.326,3.503-7.824,7.827-7.824h20.689C2136.435,810.468,2139.937,813.967,2139.937,818.292L2139.937,818.292z"/>
		<path style="fill:#EAEAEA;" d="M2548.456,818.292c0,4.313-3.499,7.816-7.821,7.816h-372.254c-4.326,0-7.825-3.503-7.825-7.816l0,0
			c0-4.326,3.499-7.824,7.825-7.824l372.254-0.004C2544.957,810.464,2548.456,813.967,2548.456,818.292L2548.456,818.292z"/>
		<path style="fill:#EAEAEA;" d="M2139.937,856.759c0,4.307-3.503,7.825-7.827,7.825h-20.689c-4.324,0-7.827-3.518-7.827-7.825l0,0
			c0-4.322,3.503-7.82,7.827-7.82h20.689C2136.435,848.938,2139.937,852.437,2139.937,856.759L2139.937,856.759z"/>
		<path style="fill:#EAEAEA;" d="M2548.456,856.759c0,4.307-3.499,7.825-7.821,7.825h-372.254c-4.326,0-7.825-3.518-7.825-7.825l0,0
			c0-4.322,3.499-7.82,7.825-7.82h372.254C2544.957,848.938,2548.456,852.437,2548.456,856.759L2548.456,856.759z"/>
		<path style="fill:#EAEAEA;" d="M2139.937,895.223c0,4.326-3.503,7.829-7.827,7.829h-20.689c-4.324,0-7.827-3.503-7.827-7.829l0,0
			c0-4.322,3.503-7.816,7.827-7.816h20.689C2136.435,887.407,2139.937,890.901,2139.937,895.223L2139.937,895.223z"/>
		<path style="fill:#EAEAEA;" d="M2548.456,895.223c0,4.326-3.499,7.829-7.821,7.829h-372.254c-4.326,0-7.825-3.503-7.825-7.829l0,0
			c0-4.322,3.499-7.816,7.825-7.816h372.254C2544.957,887.407,2548.456,890.901,2548.456,895.223L2548.456,895.223z"/>
		<path style="fill:#EAEAEA;" d="M2139.937,933.698c0,4.326-3.503,7.824-7.827,7.824h-20.689c-4.324,0-7.827-3.499-7.827-7.824l0,0
			c0-4.324,3.503-7.823,7.827-7.823h20.689C2136.435,925.875,2139.937,929.374,2139.937,933.698L2139.937,933.698z"/>
		<path style="fill:#EAEAEA;" d="M2548.456,933.698c0,4.326-3.499,7.824-7.821,7.824h-372.254c-4.326,0-7.825-3.499-7.825-7.824l0,0
			c0-4.324,3.499-7.823,7.825-7.823h372.254C2544.957,925.875,2548.456,929.374,2548.456,933.698L2548.456,933.698z"/>
		<path style="fill:#EAEAEA;" d="M2139.937,972.158c0,4.315-3.503,7.818-7.827,7.818h-20.689c-4.324,0-7.827-3.503-7.827-7.818l0,0
			c0-4.311,3.503-7.814,7.827-7.814h20.689C2136.435,964.343,2139.937,967.846,2139.937,972.158L2139.937,972.158z"/>
		<path style="fill:#EAEAEA;" d="M2548.456,972.158c0,4.315-3.499,7.818-7.821,7.818h-372.254c-4.326,0-7.825-3.503-7.825-7.818l0,0
			c0-4.311,3.499-7.814,7.825-7.814h372.254C2544.957,964.343,2548.456,967.846,2548.456,972.158L2548.456,972.158z"/>
		<path style="fill:#A3A3D8;" d="M2067.115,702.877c0,3.335-2.468,6.029-5.51,6.029h-150.401c-3.04,0-5.508-2.695-5.508-6.029l0,0
			c0-3.324,2.468-6.029,5.508-6.029h150.401C2064.646,696.848,2067.115,699.553,2067.115,702.877L2067.115,702.877z"/>
		<path style="fill:#A3A3D8;" d="M2067.115,739.548c0,3.324-2.468,6.019-5.51,6.019h-150.401c-3.04,0-5.508-2.695-5.508-6.019l0,0
			c0-3.32,2.468-6.025,5.508-6.025h150.401C2064.646,733.523,2067.115,736.228,2067.115,739.548L2067.115,739.548z"/>
		<path style="fill:#EAEAEA;" d="M2067.115,776.211c0,3.328-2.468,6.025-5.51,6.025h-150.401c-3.04,0-5.508-2.697-5.508-6.025l0,0
			c0-3.324,2.468-6.017,5.508-6.017h150.401C2064.646,770.194,2067.115,772.887,2067.115,776.211L2067.115,776.211z"/>
		<path style="fill:#EAEAEA;" d="M2067.115,812.876c0,3.337-2.468,6.032-5.51,6.032h-150.401c-3.04,0-5.508-2.695-5.508-6.032l0,0
			c0-3.322,2.468-6.017,5.508-6.017h150.401C2064.646,806.859,2067.115,809.554,2067.115,812.876L2067.115,812.876z"/>
		
			<linearGradient id="SVGID_00000133505369230664760340000013782500046352566201_" gradientUnits="userSpaceOnUse" x1="1905.6949" y1="849.545" x2="2067.1145" y2="849.545">
			<stop  offset="0" style="stop-color:#50A3E2"/>
			<stop  offset="1" style="stop-color:#4452B3"/>
		</linearGradient>
		<path style="fill:url(#SVGID_00000133505369230664760340000013782500046352566201_);" d="M2067.115,849.537
			c0,3.345-2.468,6.036-5.51,6.036h-150.401c-3.04,0-5.508-2.691-5.508-6.036l0,0c0-3.303,2.468-6.019,5.508-6.019h150.401
			C2064.646,843.518,2067.115,846.233,2067.115,849.537L2067.115,849.537z"/>
		<path style="fill:#A3A3D8;" d="M2067.115,886.218c0,3.322-2.468,6.031-5.51,6.031h-150.401c-3.04,0-5.508-2.709-5.508-6.031l0,0
			c0-3.326,2.468-6.019,5.508-6.019h150.401C2064.646,880.199,2067.115,882.892,2067.115,886.218L2067.115,886.218z"/>
		<path style="fill:#A3A3D8;" d="M2067.115,922.877c0,3.328-2.468,6.038-5.51,6.038h-150.401c-3.04,0-5.508-2.709-5.508-6.038l0,0
			c0-3.32,2.468-6.017,5.508-6.017h150.401C2064.646,916.86,2067.115,919.557,2067.115,922.877L2067.115,922.877z"/>
		
			<linearGradient id="SVGID_00000070836002916671368450000006671664291327373485_" gradientUnits="userSpaceOnUse" x1="1915.2317" y1="972.3933" x2="1958.6178" y2="972.3933">
			<stop  offset="0" style="stop-color:#ED1775"/>
			<stop  offset="1" style="stop-color:#F26922"/>
		</linearGradient>
		<path style="fill:url(#SVGID_00000070836002916671368450000006671664291327373485_);" d="M1958.618,972.388
			c0,11.986-9.707,21.691-21.687,21.691c-11.984,0-21.699-9.705-21.699-21.691c0-11.974,9.715-21.681,21.699-21.681
			C1948.911,950.708,1958.618,960.414,1958.618,972.388z"/>
		
			<linearGradient id="SVGID_00000106847038920884139930000013261512688041542067_" gradientUnits="userSpaceOnUse" x1="1915.2317" y1="1032.3802" x2="1958.6178" y2="1032.3802">
			<stop  offset="0" style="stop-color:#50A3E2"/>
			<stop  offset="1" style="stop-color:#4452B3"/>
		</linearGradient>
		<path style="fill:url(#SVGID_00000106847038920884139930000013261512688041542067_);" d="M1958.618,1032.388
			c0,11.98-9.707,21.687-21.687,21.687c-11.984,0-21.699-9.707-21.699-21.687c0-11.98,9.715-21.701,21.699-21.701
			C1948.911,1010.686,1958.618,1020.407,1958.618,1032.388z"/>
		<path style="fill:#EAEAEA;" d="M2067.115,967.105c0,3.438-2.792,6.235-6.245,6.235h-79.781c-3.447,0-6.24-2.797-6.24-6.235l0,0
			c0-3.443,2.792-6.245,6.24-6.245h79.781C2064.322,960.859,2067.115,963.662,2067.115,967.105L2067.115,967.105z"/>
		<path style="fill:#EAEAEA;" d="M2067.115,1026.921c0,3.447-2.792,6.231-6.245,6.231h-79.781c-3.447,0-6.24-2.784-6.24-6.231l0,0
			c0-3.451,2.792-6.235,6.24-6.235h79.781C2064.322,1020.686,2067.115,1023.47,2067.115,1026.921L2067.115,1026.921z"/>
	</g>
	<g>
		
			<linearGradient id="SVGID_00000024680820325644732580000005515650068646250151_" gradientUnits="userSpaceOnUse" x1="2240.6311" y1="1919.8328" x2="2353.2629" y2="1919.8328">
			<stop  offset="0" style="stop-color:#FFBC9F"/>
			<stop  offset="1" style="stop-color:#FF9A7B"/>
		</linearGradient>
		<path style="fill:url(#SVGID_00000024680820325644732580000005515650068646250151_);" d="M2271.509,1739.124
			c0,0-3.265,27.715,7.156,67.161c10.431,39.453,19.918,130.479,13.278,174.097c-6.64,43.618-34.132,91.03-45.508,100.526
			c-11.386,9.473-5.693,22.769,14.216,18.966c19.918-3.786,73.974-59.748,76.814-91.05c2.84-31.282,7.581-94.823,13.264-146.017
			c5.702-51.213,0-101.188,0-101.188S2289,1753.892,2271.509,1739.124z"/>
		
			<linearGradient id="SVGID_00000062889651516736084850000000207081612623094404_" gradientUnits="userSpaceOnUse" x1="2400.6648" y1="1927.5403" x2="2544.6646" y2="1927.5403">
			<stop  offset="0" style="stop-color:#FFBC9F"/>
			<stop  offset="1" style="stop-color:#FF9A7B"/>
		</linearGradient>
		<path style="fill:url(#SVGID_00000062889651516736084850000000207081612623094404_);" d="M2401.167,1758.228
			c0,0-4.904,16.186,15.943,48.058c20.868,31.863,77.777,161.769,77.302,199.704c-0.487,37.922-42.041,109.966-42.041,109.966
			s75.685-41.697,86.12-63.513c10.438-21.8,5.688-40.761,0-71.103c-5.685-30.363-2.845-87.24-20.857-146.974
			c-18.026-59.741-30.64-95.241-30.64-95.241S2418.132,1756.626,2401.167,1758.228z"/>
		<path style="fill:#2A2A5B;" d="M2345.219,2000.353c0,0-13.216,8.54-34.979,41.979c-21.785,33.441-35.003,45.664-48.221,46.151
			c-13.211,0.516-19.072-3.885-19.072-3.885s-13.571,18.385-26.786,22.274c-13.242,3.879-30.342,10.881-11.675,16.325
			c18.668,5.439,66.861,8.56,87.079-9.329c20.231-17.882,35.776-46.66,35.776-46.66l5.438,52.882l20.48-0.782
			C2353.26,2119.307,2355.328,2022.12,2345.219,2000.353z"/>
		<path style="fill:#2A2A5B;" d="M2549.619,2012.709c0,0-13.211,8.559-34.976,41.996c-21.778,33.441-35.006,45.647-48.217,46.154
			c-13.216,0.494-19.076-3.901-19.076-3.901s-13.573,18.391-26.799,22.276c-13.221,3.894-30.318,10.897-11.668,16.333
			c18.673,5.446,66.868,8.543,87.087-9.325c20.218-17.889,35.774-46.65,35.774-46.65l5.427,52.876l20.496-0.78
			C2557.668,2131.688,2559.726,2034.502,2549.619,2012.709z"/>
		<path style="fill:#2A2A5B;" d="M2330.827,1026.919c0,0-23.433,19.294-19.317,52.188c2.63,21.015,13.24,45.557,1.716,61.6
			c-11.515,16.055-8.5,66.942,20.412,74.16c28.933,7.231,53.012-70.718,53.012-70.718L2330.827,1026.919z"/>
		<path style="fill:#ED9696;" d="M2361.047,1160.751c0,0-2.368,29.544,0,34.93c2.37,5.397,2.727,12.066,24.71,5.421
			c21.981-6.629,38.314-26.156,38.314-26.156l1.106-39.732C2425.178,1135.214,2381.728,1178.997,2361.047,1160.751z"/>
		
			<linearGradient id="SVGID_00000090292959782120590060000017972145809250673301_" gradientUnits="userSpaceOnUse" x1="2327.3936" y1="1106.257" x2="2450.9543" y2="1106.257">
			<stop  offset="0" style="stop-color:#FFBC9F"/>
			<stop  offset="1" style="stop-color:#FF9A7B"/>
		</linearGradient>
		<path style="fill:url(#SVGID_00000090292959782120590060000017972145809250673301_);" d="M2337.416,1041.149
			c0,0-12.373,28.611-9.624,36.501c2.768,7.89,6.488,12.02,5.695,22.666c-0.789,10.656-4.432,11.044-1.421,24.456
			c3.028,13.422,18.887,38.743,29.028,44.267c10.152,5.522,27.598,0.712,46.149-9.149c18.534-9.861,52.88-58.781,41.423-86.791
			C2437.225,1045.087,2337.416,1041.149,2337.416,1041.149z"/>
		<path style="fill:#2A2A5B;" d="M2360.143,995.925c-23.264,5.613-39.331,27.331-37.016,51.15c0.518,5.334,1.901,9.741,4.665,12.011
			c11.057,9.076,67.265-0.806,79.473,18.087c39.983,61.878-3.806,91.228,26.179,104.241c29.989,13.024,72.829,19.502,72.829,19.502
			s0.388-29.182-20.523-44.964c-20.907-15.785-15.579-44.755-15.179-75.924c0.399-31.165-8-72.4-49.027-85.016
			C2401.351,988.798,2378.323,991.539,2360.143,995.925z"/>
		
			<linearGradient id="SVGID_00000109024509137970200360000014527013276439369388_" gradientUnits="userSpaceOnUse" x1="2138.6741" y1="1355.7681" x2="2516.9102" y2="1355.7681">
			<stop  offset="0" style="stop-color:#13B6E8"/>
			<stop  offset="1" style="stop-color:#9A9AD8"/>
		</linearGradient>
		<path style="fill:url(#SVGID_00000109024509137970200360000014527013276439369388_);" d="M2360.004,1183.739
			c0,0-67.763,9.595-74.298,11.942c-6.539,2.357-24.519,20.333-33.78,54.624c-9.25,34.303-17.97,65.737-40.84,70.434
			c-22.862,4.7-72.412,5.173-72.412,5.173s6.532,19.126,4.361,30.555c-2.174,11.432-2.174,11.432-2.174,11.432
			s94.481-4.899,108.483-13.612c14.007-8.703,18.362-11.968,18.362-11.968s-8.711,97.444-10.337,123.027
			c-1.631,25.592-3.814,35.391-3.814,35.391s40.28,44.637,121.948,34.303c81.66-10.347,96.355-21.24,98.533-27.76
			c2.174-6.544-5.992-33.223-11.441-51.188c-5.433-17.961-10.339-70.782-1.084-81.661c9.264-10.886,47.367-76.218,53.359-117.043
			c5.991-40.825-2.233-57.488-11.458-62.229c-9.222-4.737-72.952-20.145-79.34-20.213c-6.389-0.068-21.06,19.839-42.041,23.652
			C2361.047,1202.406,2360.004,1183.739,2360.004,1183.739z"/>
		
			<linearGradient id="SVGID_00000163052449068890728920000004550319450039806082_" gradientUnits="userSpaceOnUse" x1="2165.355" y1="1373.0521" x2="2289.1116" y2="1373.0521">
			<stop  offset="0" style="stop-color:#FFBC9F"/>
			<stop  offset="1" style="stop-color:#FF9A7B"/>
		</linearGradient>
		<path style="fill:url(#SVGID_00000163052449068890728920000004550319450039806082_);" d="M2284.31,1360.12
			c0,0-22.637-2.831-41.723-8.49c-19.096-5.661-38.892-4.549-38.892-4.549s-1.492,4.575,11.313,8.687
			c12.801,4.11,15.559,10.004,15.559,10.004s-14.855,7.784-30.409,12.029c-15.562,4.247-36.752,6.364-34.658,12.721
			c2.13,6.371,28.996,10.472,55.862,7.717c26.888-2.756,67.188-7.006,67.188-7.006S2291.387,1365.061,2284.31,1360.12z"/>
		<path style="opacity:0.23;fill:#2A2A5B;" d="M2454.772,1239.557c0,0-28.212,81.731-45.621,94.401
			c-17.417,12.673-105.334,15.361-105.334,15.361s85.319-4.078,107.948-37.769
			C2434.385,1277.857,2454.772,1239.557,2454.772,1239.557z"/>
		<path style="opacity:0.23;fill:#2A2A5B;" d="M2289.114,1239.557c0,0-19.513,20.86-19.933,35.891
			c-0.415,15.048,4.093,63.053-1.475,66.869c-5.568,3.802-21.595,13.451-21.595,13.451s17.26-15.471,18.511-32.486
			c1.245-17.016-8.296-41.089,1.245-57.694C2275.41,1248.985,2289.114,1239.557,2289.114,1239.557z"/>
		<path style="opacity:0.23;fill:#2A2A5B;" d="M2457.958,1383.243c0,0-13.816,5.44-27.883,11.071
			c-14.075,5.628-21.953,4.809-21.953,4.809s26.453-2.567,35.461,7.568c8.994,10.123,15.737,59.076,18.566,77.639
			c2.818,18.575-7.377,35.327-7.377,35.327s17.762-4.164,19.601-16.08c1.838-11.916-17.258-67.668-17.597-86.813
			C2456.439,1397.623,2457.958,1383.243,2457.958,1383.243z"/>
		<path style="fill:#2A2A5B;" d="M2253.555,1500.735l17.451,308.411c0,0,6.177,48.24,107.581,42.049
			c101.387-6.187,147.981-23.437,147.981-23.437s-42.055-111.211-45.771-147.047c-3.714-35.864-6.425-177.134-6.425-177.134
			S2347.812,1554.474,2253.555,1500.735z"/>
	</g>
	<g>
		<rect x="1129.46" y="1531.709" style="fill:#C1751B;" width="763.311" height="537.37"/>
		<g>
			<path style="fill:#E59638;" d="M2144.524,1254.254v351.721c0,14.401-4.362,27.878-11.973,39.29
				c-14.157,21.331-39.544,35.553-68.545,35.553h-586.808c-25.63,0-48.519-11.174-63.188-28.507
				c-10.848-12.719-17.265-28.809-17.265-46.336v-351.721c0-11.674,2.86-22.638,7.979-32.496
				c12.974-25.07,40.54-42.349,72.474-42.349h586.808c29.745,0,55.694,14.966,69.667,37.289
				C2140.594,1227.745,2144.524,1240.595,2144.524,1254.254z"/>
			<path style="fill:#F2A846;" d="M2132.552,1645.265c-14.157,21.331-39.544,35.553-68.545,35.553h-586.808
				c-25.63,0-48.519-11.174-63.188-28.507c3.689-6.866,8.433-13.278,14.223-19.083l294.778-294.772
				c31.061-31.062,80.408-32.128,110.208-2.379l282.184,282.182C2123.257,1626.117,2128.995,1635.343,2132.552,1645.265z"/>
			<path style="fill:#FCC581;" d="M2133.673,1216.698c-3.802,12.483-10.663,24.328-20.64,34.316l-182.445,182.433l-112.334,112.273
				c-31.057,31.117-80.461,32.177-110.21,2.425l-282.177-282.167c-12.285-12.286-19.329-27.946-21.142-44.219
				c12.974-25.07,40.54-42.349,72.474-42.349h586.808C2093.752,1179.409,2119.701,1194.375,2133.673,1216.698z"/>
		</g>
		<g>
			<rect x="1182.867" y="1280.315" style="fill:#F4F4F4;" width="596.272" height="613.951"/>
			
				<linearGradient id="SVGID_00000057120017431772465870000015130587634096480425_" gradientUnits="userSpaceOnUse" x1="1182.884" y1="1318.8817" x2="1779.1392" y2="1318.8817">
				<stop  offset="0" style="stop-color:#13B6E8"/>
				<stop  offset="1" style="stop-color:#9A9AD8"/>
			</linearGradient>
			<polygon style="fill:url(#SVGID_00000057120017431772465870000015130587634096480425_);" points="1779.139,1357.45 
				1182.884,1357.453 1182.884,1280.311 1779.139,1280.318 			"/>
			<rect x="1365.473" y="1357.451" style="fill:#FFFFFF;" width="413.666" height="387.571"/>
			<path style="fill:#E4E4ED;" d="M1303.045,1314.363c0,6.069-4.929,10.997-11.009,10.997h-73.615
				c-6.077,0-11.006-4.928-11.006-10.997l0,0c0-6.074,4.928-11.002,11.006-11.002h73.615
				C1298.116,1303.36,1303.045,1308.289,1303.045,1314.363L1303.045,1314.363z"/>
			<path style="fill:#E4E4ED;" d="M1641.863,1318.288c0,8.251-6.684,14.929-14.926,14.929h-264.159
				c-8.236,0-14.921-6.678-14.921-14.929l0,0c0-8.24,6.684-14.927,14.921-14.927h264.159
				C1635.178,1303.36,1641.863,1310.048,1641.863,1318.288L1641.863,1318.288z"/>
			<path style="fill:#EAEAEA;" d="M1407.954,1408.403c0,3.553-2.888,6.449-6.458,6.449h-17.08c-3.567,0-6.451-2.896-6.451-6.449l0,0
				c0-3.568,2.884-6.457,6.451-6.457h17.08C1405.067,1401.946,1407.954,1404.835,1407.954,1408.403L1407.954,1408.403z"/>
			<path style="fill:#EAEAEA;" d="M1745.126,1408.403c0,3.553-2.888,6.447-6.456,6.447l-307.236,0.003
				c-3.57,0-6.462-2.896-6.462-6.449l0,0c0-3.568,2.891-6.457,6.462-6.457h307.236
				C1742.238,1401.946,1745.126,1404.835,1745.126,1408.403L1745.126,1408.403z"/>
			<path style="fill:#EAEAEA;" d="M1407.954,1440.152c0,3.557-2.888,6.451-6.458,6.451h-17.08c-3.567,0-6.451-2.895-6.451-6.451l0,0
				c0-3.57,2.884-6.456,6.451-6.456h17.08C1405.067,1433.695,1407.954,1436.581,1407.954,1440.152L1407.954,1440.152z"/>
			<path style="fill:#EAEAEA;" d="M1745.126,1440.152c0,3.557-2.888,6.451-6.456,6.451h-307.236c-3.57,0-6.462-2.895-6.462-6.451
				l0,0c0-3.57,2.891-6.456,6.462-6.456l307.236-0.002C1742.238,1433.694,1745.126,1436.581,1745.126,1440.152L1745.126,1440.152z"
				/>
			<path style="fill:#EAEAEA;" d="M1407.954,1471.903c0,3.553-2.888,6.449-6.458,6.449h-17.08c-3.567,0-6.451-2.896-6.451-6.449l0,0
				c0-3.569,2.884-6.458,6.451-6.458h17.08C1405.067,1465.445,1407.954,1468.335,1407.954,1471.903L1407.954,1471.903z"/>
			<path style="fill:#EAEAEA;" d="M1745.126,1471.903c0,3.553-2.888,6.449-6.456,6.449h-307.236c-3.57,0-6.462-2.896-6.462-6.449
				l0,0c0-3.569,2.891-6.458,6.462-6.458h307.236C1742.238,1465.445,1745.126,1468.335,1745.126,1471.903L1745.126,1471.903z"/>
			<path style="fill:#EAEAEA;" d="M1407.954,1503.651c0,3.557-2.888,6.446-6.458,6.446h-17.08c-3.567,0-6.451-2.89-6.451-6.446l0,0
				c0-3.57,2.884-6.458,6.451-6.458h17.08C1405.067,1497.193,1407.954,1500.081,1407.954,1503.651L1407.954,1503.651z"/>
			<path style="fill:#EAEAEA;" d="M1745.126,1503.651c0,3.557-2.888,6.446-6.456,6.446h-307.236c-3.57,0-6.462-2.89-6.462-6.446l0,0
				c0-3.57,2.891-6.458,6.462-6.458h307.236C1742.238,1497.193,1745.126,1500.081,1745.126,1503.651L1745.126,1503.651z"/>
			<path style="fill:#EAEAEA;" d="M1407.954,1535.403c0,3.553-2.888,6.451-6.458,6.451h-17.08c-3.567,0-6.451-2.898-6.451-6.451l0,0
				c0-3.567,2.884-6.458,6.451-6.458h17.08C1405.067,1528.945,1407.954,1531.836,1407.954,1535.403L1407.954,1535.403z"/>
			<path style="fill:#EAEAEA;" d="M1745.126,1535.403c0,3.553-2.888,6.451-6.456,6.451h-307.236c-3.57,0-6.462-2.898-6.462-6.451
				l0,0c0-3.567,2.891-6.458,6.462-6.458h307.236C1742.238,1528.945,1745.126,1531.836,1745.126,1535.403L1745.126,1535.403z"/>
			<path style="fill:#EAEAEA;" d="M1407.954,1567.143c0,3.568-2.888,6.46-6.458,6.46h-17.08c-3.567,0-6.451-2.891-6.451-6.46l0,0
				c0-3.565,2.884-6.456,6.451-6.456h17.08C1405.067,1560.686,1407.954,1563.578,1407.954,1567.143L1407.954,1567.143z"/>
			<path style="fill:#EAEAEA;" d="M1745.126,1567.143c0,3.568-2.888,6.46-6.456,6.46h-307.236c-3.57,0-6.462-2.891-6.462-6.46l0,0
				c0-3.565,2.891-6.456,6.462-6.456h307.236C1742.238,1560.686,1745.126,1563.578,1745.126,1567.143L1745.126,1567.143z"/>
			<path style="fill:#EAEAEA;" d="M1407.954,1598.892c0,3.57-2.888,6.462-6.458,6.462h-17.08c-3.567,0-6.451-2.891-6.451-6.462l0,0
				c0-3.556,2.884-6.451,6.451-6.451h17.08C1405.067,1592.441,1407.954,1595.336,1407.954,1598.892L1407.954,1598.892z"/>
			<path style="fill:#EAEAEA;" d="M1745.126,1598.892c0,3.57-2.888,6.462-6.456,6.462h-307.236c-3.57,0-6.462-2.891-6.462-6.462l0,0
				c0-3.556,2.891-6.451,6.462-6.451h307.236C1742.238,1592.441,1745.126,1595.336,1745.126,1598.892L1745.126,1598.892z"/>
			<path style="fill:#EAEAEA;" d="M1407.954,1630.644c0,3.565-2.888,6.451-6.458,6.451h-17.08c-3.567,0-6.451-2.886-6.451-6.451l0,0
				c0-3.562,2.884-6.458,6.451-6.458h17.08C1405.067,1624.186,1407.954,1627.082,1407.954,1630.644L1407.954,1630.644z"/>
			<path style="fill:#EAEAEA;" d="M1745.126,1630.644c0,3.565-2.888,6.451-6.456,6.451h-307.236c-3.57,0-6.462-2.886-6.462-6.451
				l0,0c0-3.562,2.891-6.458,6.462-6.458h307.236C1742.238,1624.186,1745.126,1627.082,1745.126,1630.644L1745.126,1630.644z"/>
			<path style="fill:#EAEAEA;" d="M1347.857,1408.387c0,2.752-2.044,4.983-4.551,4.983h-124.139c-2.51,0-4.544-2.231-4.544-4.983
				l0,0c0-2.741,2.034-4.967,4.544-4.967h124.139C1345.813,1403.42,1347.857,1405.646,1347.857,1408.387L1347.857,1408.387z"/>
			<path style="fill:#EAEAEA;" d="M1347.857,1438.655c0,2.752-2.044,4.975-4.551,4.975h-124.139c-2.51,0-4.544-2.222-4.544-4.975
				l0,0c0-2.744,2.034-4.973,4.544-4.973h124.139C1345.813,1433.682,1347.857,1435.911,1347.857,1438.655L1347.857,1438.655z"/>
			<path style="fill:#EAEAEA;" d="M1347.857,1468.921c0,2.745-2.044,4.968-4.551,4.968h-124.139c-2.51,0-4.544-2.222-4.544-4.968
				l0,0c0-2.744,2.034-4.971,4.544-4.971h124.139C1345.813,1463.95,1347.857,1466.177,1347.857,1468.921L1347.857,1468.921z"/>
			<path style="fill:#EAEAEA;" d="M1347.857,1499.183c0,2.744-2.044,4.973-4.551,4.973h-124.139c-2.51,0-4.544-2.229-4.544-4.973
				l0,0c0-2.747,2.034-4.968,4.544-4.968h124.139C1345.813,1494.215,1347.857,1496.436,1347.857,1499.183L1347.857,1499.183z"/>
			<path style="fill:#EAEAEA;" d="M1347.857,1529.442c0,2.759-2.044,4.98-4.551,4.98h-124.139c-2.51,0-4.544-2.221-4.544-4.98l0,0
				c0-2.737,2.034-4.966,4.544-4.966h124.139C1345.813,1524.476,1347.857,1526.705,1347.857,1529.442L1347.857,1529.442z"/>
			<path style="fill:#EAEAEA;" d="M1347.857,1559.709c0,2.747-2.044,4.98-4.551,4.98h-124.139c-2.51,0-4.544-2.233-4.544-4.98l0,0
				c0-2.744,2.034-4.966,4.544-4.966h124.139C1345.813,1554.743,1347.857,1556.965,1347.857,1559.709L1347.857,1559.709z"/>
			<path style="fill:#EAEAEA;" d="M1347.857,1589.975c0,2.744-2.044,4.973-4.551,4.973h-124.139c-2.51,0-4.544-2.229-4.544-4.973
				l0,0c0-2.747,2.034-4.968,4.544-4.968h124.139C1345.813,1585.008,1347.857,1587.228,1347.857,1589.975L1347.857,1589.975z"/>
			<path style="fill:#EAEAEA;" d="M1258.302,1630.836c0,9.895-8.012,17.904-17.903,17.904c-9.888,0-17.908-8.01-17.908-17.904
				c0-9.884,8.02-17.899,17.908-17.899C1250.29,1612.937,1258.302,1620.952,1258.302,1630.836z"/>
			<path style="fill:#EAEAEA;" d="M1258.302,1680.346c0,9.896-8.012,17.911-17.903,17.911c-9.888,0-17.908-8.015-17.908-17.911
				c0-9.879,8.02-17.906,17.908-17.906C1250.29,1662.44,1258.302,1670.468,1258.302,1680.346z"/>
			<path style="fill:#EAEAEA;" d="M1347.857,1626.467c0,2.84-2.312,5.153-5.162,5.153h-65.844c-2.848,0-5.155-2.313-5.155-5.153l0,0
				c0-2.84,2.307-5.148,5.155-5.148h65.844C1345.545,1621.319,1347.857,1623.627,1347.857,1626.467L1347.857,1626.467z"/>
			<path style="fill:#EAEAEA;" d="M1347.857,1675.838c0,2.85-2.312,5.148-5.162,5.148h-65.844c-2.848,0-5.155-2.298-5.155-5.148l0,0
				c0-2.848,2.307-5.15,5.155-5.15h65.844C1345.545,1670.689,1347.857,1672.99,1347.857,1675.838L1347.857,1675.838z"/>
		</g>
		<g>
			<rect x="1471.06" y="1387.045" style="fill:#F4F4F4;" width="596.278" height="613.953"/>
			<rect x="1471.078" y="1387.045" style="fill:#ACACBC;" width="596.26" height="77.132"/>
			<rect x="1653.668" y="1464.177" style="fill:#FFFFFF;" width="413.67" height="387.566"/>
			<path style="fill:#E4E4ED;" d="M1591.242,1421.095c0,6.071-4.928,10.991-11.006,10.991h-73.617
				c-6.077,0-11.006-4.92-11.006-10.991l0,0c0-6.08,4.928-11.008,11.006-11.008h73.617
				C1586.314,1410.087,1591.242,1415.015,1591.242,1421.095L1591.242,1421.095z"/>
			<path style="fill:#E4E4ED;" d="M1930.061,1425.015c0,8.251-6.686,14.933-14.927,14.933h-264.158
				c-8.238,0-14.929-6.683-14.929-14.933l0,0c0-8.235,6.691-14.928,14.929-14.928h264.158
				C1923.375,1410.087,1930.061,1416.78,1930.061,1425.015L1930.061,1425.015z"/>
			<path style="fill:#EAEAEA;" d="M1696.151,1515.131c0,3.56-2.891,6.453-6.46,6.453h-17.076c-3.568,0-6.46-2.893-6.46-6.453l0,0
				c0-3.568,2.891-6.46,6.46-6.46h17.076C1693.26,1508.672,1696.151,1511.563,1696.151,1515.131L1696.151,1515.131z"/>
			<path style="fill:#EAEAEA;" d="M2033.323,1515.131c0,3.56-2.888,6.453-6.455,6.453h-307.241c-3.57,0-6.458-2.893-6.458-6.453l0,0
				c0-3.568,2.888-6.46,6.458-6.46h307.241C2030.435,1508.672,2033.323,1511.563,2033.323,1515.131L2033.323,1515.131z"/>
			<path style="fill:#EAEAEA;" d="M1696.151,1546.88c0,3.56-2.891,6.455-6.46,6.455h-17.076c-3.568,0-6.46-2.895-6.46-6.455l0,0
				c0-3.57,2.891-6.46,6.46-6.46h17.076C1693.26,1540.42,1696.151,1543.309,1696.151,1546.88L1696.151,1546.88z"/>
			<path style="fill:#EAEAEA;" d="M2033.323,1546.88c0,3.56-2.888,6.455-6.455,6.455h-307.241c-3.57,0-6.458-2.895-6.458-6.455l0,0
				c0-3.57,2.888-6.46,6.458-6.46h307.241C2030.435,1540.42,2033.323,1543.309,2033.323,1546.88L2033.323,1546.88z"/>
			<path style="fill:#EAEAEA;" d="M1696.151,1578.631c0,3.558-2.891,6.453-6.46,6.453h-17.076c-3.568,0-6.46-2.895-6.46-6.453l0,0
				c0-3.568,2.891-6.46,6.46-6.46h17.076C1693.26,1572.172,1696.151,1575.063,1696.151,1578.631L1696.151,1578.631z"/>
			<path style="fill:#EAEAEA;" d="M2033.323,1578.631c0,3.558-2.888,6.453-6.455,6.453h-307.241c-3.57,0-6.458-2.895-6.458-6.453
				l0,0c0-3.568,2.888-6.46,6.458-6.46h307.241C2030.435,1572.172,2033.323,1575.063,2033.323,1578.631L2033.323,1578.631z"/>
			<path style="fill:#EAEAEA;" d="M1696.151,1610.379c0,3.56-2.891,6.451-6.46,6.451h-17.076c-3.568,0-6.46-2.891-6.46-6.451l0,0
				c0-3.57,2.891-6.458,6.46-6.458h17.076C1693.26,1603.921,1696.151,1606.809,1696.151,1610.379L1696.151,1610.379z"/>
			<path style="fill:#EAEAEA;" d="M2033.323,1610.379c0,3.56-2.888,6.451-6.455,6.451h-307.241c-3.57,0-6.458-2.891-6.458-6.451l0,0
				c0-3.57,2.888-6.458,6.458-6.458l307.241-0.004C2030.435,1603.918,2033.323,1606.809,2033.323,1610.379L2033.323,1610.379z"/>
			<path style="fill:#EAEAEA;" d="M1696.151,1642.128c0,3.555-2.891,6.458-6.46,6.458h-17.076c-3.568,0-6.46-2.903-6.46-6.458l0,0
				c0-3.567,2.891-6.455,6.46-6.455h17.076C1693.26,1635.673,1696.151,1638.561,1696.151,1642.128L1696.151,1642.128z"/>
			<path style="fill:#EAEAEA;" d="M2033.323,1642.128c0,3.555-2.888,6.458-6.455,6.458h-307.241c-3.57,0-6.458-2.903-6.458-6.458
				l0,0c0-3.567,2.888-6.455,6.458-6.455h307.241C2030.435,1635.673,2033.323,1638.561,2033.323,1642.128L2033.323,1642.128z"/>
			<path style="fill:#EAEAEA;" d="M1696.151,1673.874c0,3.57-2.891,6.461-6.46,6.461h-17.076c-3.568,0-6.46-2.891-6.46-6.461l0,0
				c0-3.567,2.891-6.451,6.46-6.451h17.076C1693.26,1667.423,1696.151,1670.307,1696.151,1673.874L1696.151,1673.874z"/>
			<path style="fill:#EAEAEA;" d="M2033.323,1673.874c0,3.57-2.888,6.461-6.455,6.461h-307.241c-3.57,0-6.458-2.891-6.458-6.461l0,0
				c0-3.567,2.888-6.451,6.458-6.451h307.241C2030.435,1667.423,2033.323,1670.307,2033.323,1673.874L2033.323,1673.874z"/>
			<path style="fill:#EAEAEA;" d="M1696.151,1705.629c0,3.57-2.891,6.458-6.46,6.458h-17.076c-3.568,0-6.46-2.888-6.46-6.458l0,0
				c0-3.569,2.891-6.456,6.46-6.456h17.076C1693.26,1699.173,1696.151,1702.061,1696.151,1705.629L1696.151,1705.629z"/>
			<path style="fill:#EAEAEA;" d="M2033.323,1705.629c0,3.57-2.888,6.458-6.455,6.458h-307.241c-3.57,0-6.458-2.888-6.458-6.458l0,0
				c0-3.569,2.888-6.456,6.458-6.456h307.241C2030.435,1699.173,2033.323,1702.061,2033.323,1705.629L2033.323,1705.629z"/>
			<path style="fill:#EAEAEA;" d="M1696.151,1737.372c0,3.562-2.891,6.453-6.46,6.453h-17.076c-3.568,0-6.46-2.891-6.46-6.453l0,0
				c0-3.558,2.891-6.449,6.46-6.449h17.076C1693.26,1730.923,1696.151,1733.814,1696.151,1737.372L1696.151,1737.372z"/>
			<path style="fill:#EAEAEA;" d="M2033.323,1737.372c0,3.562-2.888,6.453-6.455,6.453h-307.241c-3.57,0-6.458-2.891-6.458-6.453
				l0,0c0-3.558,2.888-6.449,6.458-6.449h307.241C2030.435,1730.923,2033.323,1733.814,2033.323,1737.372L2033.323,1737.372z"/>
			<path style="fill:#A3A3D8;" d="M1636.047,1515.121c0,2.752-2.037,4.976-4.548,4.976h-124.134c-2.509,0-4.546-2.224-4.546-4.976
				l0,0c0-2.744,2.037-4.976,4.546-4.976h124.134C1634.01,1510.145,1636.047,1512.377,1636.047,1515.121L1636.047,1515.121z"/>
			<path style="fill:#A3A3D8;" d="M1636.047,1545.388c0,2.744-2.037,4.968-4.548,4.968h-124.134c-2.509,0-4.546-2.224-4.546-4.968
				l0,0c0-2.74,2.037-4.973,4.546-4.973h124.134C1634.01,1540.415,1636.047,1542.647,1636.047,1545.388L1636.047,1545.388z"/>
			<path style="fill:#EAEAEA;" d="M1636.047,1575.647c0,2.747-2.037,4.973-4.548,4.973h-124.134c-2.509,0-4.546-2.226-4.546-4.973
				l0,0c0-2.744,2.037-4.966,4.546-4.966h124.134C1634.01,1570.681,1636.047,1572.904,1636.047,1575.647L1636.047,1575.647z"/>
			<path style="fill:#EAEAEA;" d="M1636.047,1605.909c0,2.754-2.037,4.978-4.548,4.978h-124.134c-2.509,0-4.546-2.224-4.546-4.978
				l0,0c0-2.742,2.037-4.966,4.546-4.966h124.134C1634.01,1600.943,1636.047,1603.167,1636.047,1605.909L1636.047,1605.909z"/>
			
				<linearGradient id="SVGID_00000088826987396248188470000017420023353174570915_" gradientUnits="userSpaceOnUse" x1="1502.819" y1="1636.1737" x2="1636.0468" y2="1636.1737">
				<stop  offset="0" style="stop-color:#50A3E2"/>
				<stop  offset="1" style="stop-color:#4452B3"/>
			</linearGradient>
			<path style="fill:url(#SVGID_00000088826987396248188470000017420023353174570915_);" d="M1636.047,1636.167
				c0,2.761-2.037,4.982-4.548,4.982h-124.134c-2.509,0-4.546-2.221-4.546-4.982l0,0c0-2.726,2.037-4.968,4.546-4.968h124.134
				C1634.01,1631.199,1636.047,1633.44,1636.047,1636.167L1636.047,1636.167z"/>
			<path style="fill:#A3A3D8;" d="M1636.047,1666.442c0,2.742-2.037,4.978-4.548,4.978h-124.134c-2.509,0-4.546-2.236-4.546-4.978
				l0,0c0-2.745,2.037-4.968,4.546-4.968h124.134C1634.01,1661.474,1636.047,1663.697,1636.047,1666.442L1636.047,1666.442z"/>
			<path style="fill:#A3A3D8;" d="M1636.047,1696.698c0,2.747-2.037,4.983-4.548,4.983h-124.134c-2.509,0-4.546-2.236-4.546-4.983
				l0,0c0-2.74,2.037-4.966,4.546-4.966h124.134C1634.01,1691.732,1636.047,1693.958,1636.047,1696.698L1636.047,1696.698z"/>
			
				<linearGradient id="SVGID_00000135674808496074547860000011351660578770740354_" gradientUnits="userSpaceOnUse" x1="1510.6901" y1="1737.5667" x2="1546.4989" y2="1737.5667">
				<stop  offset="0" style="stop-color:#ED1775"/>
				<stop  offset="1" style="stop-color:#F26922"/>
			</linearGradient>
			<path style="fill:url(#SVGID_00000135674808496074547860000011351660578770740354_);" d="M1546.499,1737.562
				c0,9.893-8.012,17.903-17.899,17.903c-9.891,0-17.91-8.01-17.91-17.903c0-9.882,8.019-17.894,17.91-17.894
				C1538.487,1719.668,1546.499,1727.68,1546.499,1737.562z"/>
			
				<linearGradient id="SVGID_00000163782005196851211990000001085961863660738992_" gradientUnits="userSpaceOnUse" x1="1510.6901" y1="1787.077" x2="1546.4989" y2="1787.077">
				<stop  offset="0" style="stop-color:#50A3E2"/>
				<stop  offset="1" style="stop-color:#4452B3"/>
			</linearGradient>
			<path style="fill:url(#SVGID_00000163782005196851211990000001085961863660738992_);" d="M1546.499,1787.083
				c0,9.887-8.012,17.899-17.899,17.899c-9.891,0-17.91-8.012-17.91-17.899c0-9.888,8.019-17.911,17.91-17.911
				C1538.487,1769.172,1546.499,1777.195,1546.499,1787.083z"/>
			<path style="fill:#EAEAEA;" d="M1636.047,1733.202c0,2.838-2.305,5.146-5.155,5.146h-65.847c-2.845,0-5.15-2.308-5.15-5.146l0,0
				c0-2.842,2.305-5.155,5.15-5.155h65.847C1633.742,1728.047,1636.047,1730.36,1636.047,1733.202L1636.047,1733.202z"/>
			<path style="fill:#EAEAEA;" d="M1636.047,1782.571c0,2.845-2.305,5.143-5.155,5.143h-65.847c-2.845,0-5.15-2.298-5.15-5.143l0,0
				c0-2.848,2.305-5.146,5.15-5.146h65.847C1633.742,1777.425,1636.047,1779.723,1636.047,1782.571L1636.047,1782.571z"/>
		</g>
		<polygon style="fill:#F2C288;" points="1114.483,1531.709 1129.46,1531.709 1129.46,2032.644 1429.842,1688.123 1441.98,1709.459 
			1129.46,2069.079 1114.483,2069.079 		"/>
		<polygon style="fill:#F2A846;" points="1892.772,2069.079 2205.286,1709.456 1441.98,1709.459 1129.46,2069.079 		"/>
		<polygon style="fill:#F2C288;" points="1429.842,1688.123 2205.286,1688.123 2205.286,1709.456 1441.98,1709.459 		"/>
	</g>
</g>
</svg>
