<?xml version="1.0" encoding="utf-8"?>
<!-- Generator: Adobe Illustrator 27.5.0, SVG Export Plug-In . SVG Version: 6.00 Build 0)  -->
<svg version="1.1" id="Layer_1" xmlns="http://www.w3.org/2000/svg" xmlns:xlink="http://www.w3.org/1999/xlink" x="0px" y="0px"
	 viewBox="0 0 8530 4781" style="enable-background:new 0 0 8530 4781;" xml:space="preserve">
<g>
	<path style="fill:#FDFDFD;" d="M4262.473,4780.453c-1411.855,0-2823.709-0.06-4235.563,0.547
		c-21.964,0.01-26.917-4.945-26.909-26.907C0.6,3178.363,0.6,1602.634,0,26.904C-0.008,4.942,4.946-0.004,26.909,0
		c2825.662,0.574,5651.324,0.574,8476.985,0c21.963-0.004,26.918,4.942,26.909,26.904c-0.6,1575.73-0.6,3151.459,0,4727.189
		c0.009,21.962-4.945,26.917-26.909,26.907C7090.087,4780.394,5676.28,4780.453,4262.473,4780.453z"/>
	<path style="fill:#6DACF6;" d="M4300.661,2355.701c-7.606-0.742-15.211-1.485-22.817-2.227
		c-47.842-23.226-97.642-5.777-146.539-7.022c-18.501-0.472-37.013,0.599-55.533-0.144c-19.475-0.61-38.941-0.096-58.402-0.401
		c-7.786-0.121-16.716,1.432-22.953-2.778c-43.308-29.235-92.469-21.943-138.895-18.484c-88.55,6.599-176.98,2.657-265.437,4.111
		c-51.563,0.847-103.152-0.021-154.728,0.229c-35.298,0.171-54.998,19.54-57.599,55.037c-1.611,21.991,5.239,44.896-6.74,65.841
		c-18.49,12.793-39.603,6.994-59.686,8.205c-24.289,1.465-48.7-2.031-72.939,1.546c-16.949,1.619-33.36-1.968-49.79-5.342
		c-17.396-6.765-29.796-17.811-31.479-37.693c-1.449-17.119,4.284-29.395,21.01-37.175c67.121-31.219,80.44-54.036,76.76-128.318
		c-0.287-5.79-1.069-11.565-0.279-17.359c29.946-66.079,12.671-106.713-55.824-135.362c-54.155-22.651-106.139-24.643-154.575,12.76
		c-42.077,32.494-61.72,74.994-48.799,128.173c5.781,23.794-1.996,32.515-24.744,38.481
		c-54.712,14.349-71.281,65.566-38.012,111.318c29.158,40.097,70.492,48.776,116.554,45.831c11.331-0.724,22.997-6.457,33.955,1.662
		c2.538,4.501,2.523,9.04,0.286,13.648c-7.881,6.151-15.645,13.451-25.273,2.63c-32.747-7.298-65.913-2.534-98.839-2.818
		c-89.806-0.774-179.684,2.094-269.428-0.363c-215.719-5.907-370.325-109.766-454.174-306.539
		c-82.997-194.774-61.811-382.963,74.45-549.242c73.678-89.909,172.994-138.49,291.298-140.032
		c27.275-0.355,34.561-3.498,31.548-34.806c-24.478-254.353,149.222-463.693,384.236-487.46
		c157.467-15.925,286.364,40.75,385.49,164.404c5.952,7.425,11.829,14.911,20.438,25.77c20.131-45.387,36.555-88.763,63.132-127.19
		c95.092-137.494,225.712-214.479,391.433-233.11c143.882-16.176,276.022,15.911,392.354,101.988
		c138.97,102.828,214.487,242.088,223.72,415.409c1.195,22.431,6.189,29.76,29.832,29.25
		c258.922-5.58,477.044,176.912,518.973,439.195c42.34,264.857-116.851,523.39-385.153,591.419
		c-34.826,8.83-69.136,16.772-105.07,16.711c-46.199,6.125-92.614,2.2-138.908,2.401
		C4375.919,2358.017,4338.172,2361.356,4300.661,2355.701z"/>
	<path style="fill:#F8B142;" d="M4968.292,2793.968c30.826,15.949,36.854,41.373,36.276,74.879
		c-3.819,221.534-5.441,443.106-7.863,664.665c-0.532,48.697-17.801,65.033-66.481,69.781
		c-166.925,16.28-333.715,33.934-500.615,50.468c-109.667,10.865-219.467,20.379-329.151,31.076
		c-171.784,16.752-343.514,34.062-515.282,50.979c-49.503,4.876-99.025,9.642-148.614,13.51c-13.228,1.032-27.42,3.868-39.769-4.889
		c9.126-10.823,22.559-8.746,34.318-11.628c12.974-5.324,11.224-16.914,11.623-27.442c2.25-59.327,5.787-119.379,3.317-177.94
		c-6.828-161.89-1.178-323.66-4.089-485.432c-0.289-16.079-6.264-30.348-9.869-45.402c16.906-16.567,39.225-13.894,59.966-16.885
		c14.206-0.706,28.42-0.997,42.642-0.323c70.852-4.912,141.67-10.2,212.517-15.084c91.284-6.293,182.451-14.242,273.737-20.592
		c83.527-5.81,166.931-13.206,250.437-19.344c88.356-6.495,176.672-13.896,264.894-22.066c84.808-7.854,69.886-3.067,71.42-75.279
		c0.767-36.045-0.656-72.114,0.601-108.17c-1.231-43.217-0.542-86.44-0.279-129.648c0.061-9.934-5.208-25.122,13.982-25.581
		c26.192,13.729,26.063,39.522,26.684,63.279c1.7,65.025,0.48,130.099,0.646,195.153c0.007,2.913,0.001,5.826,0.001,8.739
		c0.012,62.125,0.012,62.125,59.868,55.401c54.052-0.534,107.4-10.385,161.33-12.401c28.339,2.737,59.425-12.176,84.353,12.855
		c-0.645,42.456-3.729,84.761-8.661,126.931c-2.989,25.556-20.519,38.484-42.04,48.043
		c-84.623,37.589-169.321,75.003-253.677,113.198c-133.165,60.293-267.166,118.767-399.551,180.746
		c-40.249,18.844-77.024,22.564-120.435,7.125c-191.864-68.241-384.847-133.338-577.016-200.747
		c-43.106-15.12-50.726-27.623-51.564-73.866c-0.46-25.36-7.039-49.942-7.182-75.26c-2.856,29.524,4.262,58.441,4.596,87.559
		c0.373,32.382,15.162,50.418,44.859,59.953c54.723,17.569,108.838,36.98,163.122,55.85
		c149.121,51.839,298.855,101.931,447.361,155.508c34.602,12.483,63.143-1.108,92.281-14.235
		c177.731-80.068,354.927-161.331,533.396-239.751c41.038-18.032,80.738-39.247,123.313-53.668
		c32.594-11.041,49.55-33.325,50.018-67.531c0.514-37.53,3.503-75.088-0.498-112.626c-8.731-17.741-3.499-36.752-5.217-55.147
		C4951.271,2815.104,4941.563,2793.861,4968.292,2793.968z"/>
	<path style="fill:#244189;" d="M5366.939,3860.957c-12.717-2.656-15.557-11.326-17.156-23.308
		c-44.923-336.435-51.044-673.817-25.992-1012.047c3.813-51.483,5.977-103.088,8.903-154.637
		c3.108-15.708,14.158-16.968,26.675-13.914c64.083,15.634,129.956,10.985,194.899,16.442
		c65.286,5.485,130.391-2.884,193.727-21.507c9.082-2.67,18.178-8.067,28.215-3.041c31.263,85.029,41.895,173.914,46.749,263.452
		c4.8,88.546,2.348,177.229-2.303,265.779c-2.419,46.046,4.001,89.61,33.246,127.027c34.124,43.662,51.071,93.103,54.786,148.205
		c9.626,142.776,21.699,285.417,20.219,428.709c-31.34,17.651-65.165,18.976-99.769,15.178
		c-20.343,0.875-19.188-15.896-22.063-28.125c-37.44-159.29-79.726-317.254-130.419-472.863
		c-28.645-87.928-58.798-175.375-94.259-260.833c-1.398-3.371,2.992-27.321-15.516-10.989
		c-1.764-44.854-18.388-85.95-32.337-127.717c-6.8-20.36-16.251-39.042-38.279-56.596c16.992,49.669,30.651,94.81,46.794,139.108
		c7.928,21.755,16.89,42.98,16.493,66.677c-3.807,35.218-14.341,68.352-31.487,99.29c-21.023,37.934-25.177,76.839-9.682,117.938
		c31.152,82.626,22.096,166.02,6.535,250.376c-13.937,75.551-23.267,151.959-34.182,228.053
		c-1.415,9.861-1.791,19.367-11.506,25.042C5441.377,3873.091,5403.759,3874.881,5366.939,3860.957z"/>
	<path style="fill:#3074E5;" d="M3297.204,3637.362c-20.463,101.133-35.962,203.099-51.228,305.104
		c-23.305,21.92-49.321,17.62-75.903,7.847c-18.663-55.799-19.902-114.546-29.25-171.926c-9.89-60.705-4.332-119.662,12.999-178.691
		c13.879-47.27,10.184-62.202-12.556-108.467c-36.452,87.314-85.025,165.98-123.815,249.651
		c-32.306,69.686-65.35,139.03-98.067,208.526c-24.992,5.481-45.675-2.848-63.652-19.853
		c-4.366-73.65,11.126-145.235,23.214-217.097c4.676-27.799,12.353-55.094,18.702-82.61c6.547-28.37,20.14-53.015,42.022-72.079
		c16.954-14.77,21.31-32.204,21.907-54.113c4.091-150.103,13.001-299.825,43.948-447.324c1.398-6.664,3.278-13.227,4.933-19.837
		c4.31-5.222,10.411-5.433,16.059-4.435c54.572,9.649,109.621,15.817,164.527,22.862c9.963,3.716,18.84,9.605,28.056,14.814
		c12.884,7.282,25.372,8.035,38.085-0.417c15.599-10.371,33.557-14.284,51.513-18.245c19.106-0.577,38.572-12.975,57.21,1.707
		c12.476,48.071,10.409,97.256,2.642,144.893c-21.184,129.927-39.224,260.249-56.9,390.661
		C3309.39,3605.015,3312.107,3624.051,3297.204,3637.362z"/>
	<path style="fill:#F2F6FD;" d="M3491.332,2987.127c-18.703,2.319-37.407,4.637-56.111,6.956c-3.814,2.151-6.686,1.262-8.622-2.666
		c16.076-19.889,24.409-43.232,20.605-68.011c-7.944-51.766,0.494-103.106,0.618-154.622c0.152-63.424-0.415-126.853,0.201-190.273
		c0.541-55.59,18.851-73.383,74.106-74.09c177.501-2.27,354.952-8.639,532.52-6.304c14.767,0.194,35.85,7.217,40.3-17.262
		c3.762-20.695-15.659-42.789-40.9-44.744c-45.743-3.543-91.683-0.555-137.522-1.429c-5.659-0.621-11.396-0.446-17.05-1.056
		c-10.887-1.173-26.131,1.604-27.679-13.252c-1.424-13.663,14.189-12.283,22.95-16.572c13.827-3.844,21.659-14.774,30.855-24.737
		c15.352-16.634,27.775-37.583,53.169-41.664c32.995,5.285,66.012,5.065,99.062,0.785c51.575-1.803,103.153-3.506,154.721-5.462
		c18.74-0.71,34.729,3.939,45.285,20.758c-3.842,9.734-12.845,16.654-12.719,28.859c0.17,16.436,4.951,26.796,23.256,25.676
		c106.769-6.536,213.88-2.363,320.635-10.775c32.292-2.545,66.563-8.334,93.234,20.568c8.104,8.782,21.332,7.999,33.283,7.944
		c54.653-0.251,109.446,2.302,163.922-0.811c50.861-2.906,75.363,30.373,67.793,77.974c-4.034,25.366-5.617,50.408-4.336,75.488
		c3.041,59.541-7.527,118.451-6.542,177.867c0.237,14.316,2.219,26.929,11.926,37.699c-21.646,5.631-6.703,25.399-14.115,36.531
		c-18.093,20.692-27.42,5.245-33.132-9.847c-10.207-26.971-10.208-55.591-6.375-83.862c8.147-60.084,1.032-120.815,8.943-181.037
		c3.511-26.729-0.353-27.705-25.806-19.909c-15.243,4.668-30.891,3.857-46.474,3.966c-19.516,0.136-39.034,0.006-58.551,0.039
		c-84.976,0.143-71.605-5.275-73.544,71.136c1.959,83.415,0.628,166.795,0.689,250.171c0.009,11.646-0.46,23.441-9.301,32.704
		c-71.09,12.736-71.255,12.736-71.452-57.439c-0.196-69.959,0.16-139.92-0.103-209.879c-0.08-21.369-0.406-43.01-16.531-60.124
		c-30.452-7.837-61.099-10.37-92.318-4.713c-17.34,3.142-35.018,2.365-52.566,2.148c-253.567-3.138-506.996,8.857-760.588,6.987
		c-55.28-0.408-110.939,4.188-166.49,5.309c-36.778,0.742-48.586,13.308-48.832,50.669c-0.694,105.339-0.056,210.684-0.397,316.025
		C3501.3,2958.174,3503.841,2974.456,3491.332,2987.127z"/>
	<path style="fill:#ABD1FC;" d="M5319.055,2202.032c49.403-66.318,96.999-134.384,167.86-180.676
		c22.116-14.448,45.868-25.678,72.333-29.993c10.242,2.976,12.534,11.62,13.607,20.388c4.344,35.451,27.761,51.755,59.552,58.814
		c32.798,7.282,58.645-4.779,79.687-30.188c13.274-16.029,17.612-36.637,29.327-53.327c58.865,12.347,102.794,46.891,133.036,96.87
		c51.395,84.938,76.283,178.163,77.659,277.534c-10.575,9.313-23.64,9.307-35.96,7.293c-35.711-5.838-71.627-4.366-107.514-5.13
		c-32.212-0.686-37.611-5.883-43.477-38.488c-3.964-22.037-1.795-44.575-6.367-69.067c-9.844,66.876-23.237,130.988-25.375,196.627
		c-3.106,17.006-17.443,20.165-30.544,22.528c-34.43,6.21-69.245,9.885-104.266,10.591c-22.084,0.446-38.377-11.41-53.671-25.901
		c-10.997-10.42-19.533-24.999-37.382-25.621c-10.403-1.953-14.124-10.094-17.371-18.697c-6.947-32.038-32.003-52.625-49.709-77.792
		c-8.388-11.922-18.703-22.458-21.501-37.509c-2.781-27.72,4.452-54.25,10.494-80.744c9.212-40.392,14.621-81.51,24.957-121.656
		c-0.173-4.012-5.05,1.148-1.32-0.007c1.507-0.467,2.045,0.385,1.339,2.462c-13.82,40.708-33.889,78.491-54.896,115.77
		c-5.281,9.372-13.13,17.008-24.447,19.582C5352.437,2231.136,5338.316,2212.31,5319.055,2202.032z"/>
	<path style="fill:#F1624F;" d="M3362.367,3052.646c-19.579,1.648-39.159,3.295-58.738,4.943
		c-9.734-3.878-10.541-13.035-12.674-21.414c-8.595-33.754-30.986-54.803-62.092-68.227
		c-44.489-19.199-89.137-38.118-131.873-61.065c-23.023-12.362-46.427-24.516-62.064-46.847
		c-10.636-28.245-22.099-56.304-20.84-87.379c35.71-40.618,34.591-93.266,46.716-141.598c-0.068-4.054-6.709-2.157-2.805-2.019
		c0.738,0.026,0.922,0.632,0.963,1.802c0.669,19.279-8.595,35.699-16.222,52.227c-10.094,21.873-22.318,42.762-30.631,65.521
		c-5.152,1.048-8.152-1.764-10.497-5.793c-1.506-24.261-14.016-34.988-38.674-37.027c-18.168-1.503-36.194-8.511-44.445-28.197
		c-8.623-11.379-2.744-22.613,1.156-33.275c13.034-35.633,26.652-71.054,40.213-106.492c17.554-45.873,47.243-77.818,98.328-84.936
		c7.874-1.505,15.751-3.008,23.627-4.511c10.313,2.784,14.638,12.274,21.236,19.156c8.271,8.628,17.802,14.868,29.394,18.041
		c29.328,8.027,37.737,2.626,55.057-35.664c16.012-2.612,31.571,1.37,47.275,3.241c28.458,0.115,43.87,19.549,55.988,40.801
		c33.388,58.552,47.617,121.097,34.235,188.416c1.136,76.336,6.068,152.429,13.28,228.35c4.421,14.948,11.494,28.919,16.575,43.646
		c1.512,24.153,10.908,47.005,11.845,71.28C3367.057,3034.974,3371.471,3044.855,3362.367,3052.646z"/>
	<path style="fill:#224088;" d="M5495.507,2414.035c3.595,5.869,7.191,11.738,10.787,17.606c13.663,9.275,25.075,21.929,19.7,38.437
		c-4.978,15.285-22.47,17.356-36.738,20.01c-27.526,5.121-54.227-3.443-81.182-6.759c-16.64-2.047-32.979-3.96-49.136,1.615
		c-12.005,4.142-25.233,8.016-27.189,23.155c-1.719,13.304,7.797,21.336,17.249,28.554c12.486,9.536,26.737,15.86,40.868,22.54
		c7.909,3.738,20.147,4.814,17.667,18.883c-19.353,13.698-40.908,9.217-61.754,6.494c-8.491-1.109-16.772-4.38-25.632-3.679
		c-40.437,12.584-81.178,17.315-122.598,4.845c-20.092,1.149-33.127-7.515-44.926-24.529
		c-60.949-87.886-123.453-174.693-185.055-262.128c-7.886-11.194-21.14-22.79-5.624-37.974
		c52.503-15.486,107.215-16.979,160.861-25.198c54.7-8.381,109.924-12.981,164.638-21.222c30.306-4.564,54.487,1.044,74.988,26.423
		C5408.163,2297.724,5456.66,2352.137,5495.507,2414.035z"/>
	<path style="fill:#F1A63E;" d="M3362.367,3052.646c-4.015-24.806-3.578-50.485-13.045-74.194
		c-3.682-9.221-2.664-16.951,1.765-25.019c18.055-12.902,27.016,3.896,38.753,11.758c8.3,8.354,22.177,11.756,23.727,26.275
		c18.837,24.448,24.293,52.284,23.357,82.583c-4.249,137.612,3.738,275.097,6.218,412.622c1.317,73.03,0.517,146.046,2.058,219.049
		c0.29,13.742,1.004,27.629-11.303,37.592c-12.365,0.373-24.729,0.747-37.099,1.123c-26.447-2.579-49.155-15.419-72.592-26.313
		c-18.925-8.797-20.122-26.394-22.217-43.672c-1.501-12.374-3.178-24.725-4.781-37.087c16.715-145.011,37.746-289.416,61.8-433.373
		C3367.431,3153.576,3366.432,3103.207,3362.367,3052.646z"/>
	<path style="fill:#6EACF6;" d="M1974.726,2756.379c1.992-7,4.178-18.572,8.515-29.272c24.16-59.604,49.473-118.694,77.359-176.705
		c10.737-22.335,24.683-30.502,48.813-22.677c68.56,22.23,137.52,43.234,206.002,65.696c36.652,12.022,38.967,19.259,22.653,55.439
		c-28.035,62.173-56.759,124.046-83.924,186.596c-11.406,26.265-25.833,34.081-54.679,24.432
		c-59.987-20.064-121.311-36.105-181.927-54.325C1995.286,2798.875,1975.007,2789.248,1974.726,2756.379z"/>
	<path style="fill:#6EACF6;" d="M6233.85,1540.292c-41.908,0.032-83.849,1.06-125.714-0.273
		c-37.572-1.196-67.213-31.814-72.581-71.765c-4.903-36.49,13.992-67.637,48.568-80.746c14.356-5.443,28.898-6.642,42.535,0.263
		c15.458,7.827,21.993,8.525,26.073-12.687c8.234-42.808,43.817-69.056,85.897-68.709c44.36,0.366,72.065,23.654,81.649,71.368
		c2.414,12.014,7.214,15.281,18.108,17.928c32.82,7.976,58.74,25.752,71.896,58.311c18.952,46.901-6.068,85.307-56.557,86.143
		C6313.776,1540.788,6273.809,1540.26,6233.85,1540.292z"/>
	<path style="fill:#FEB97F;" d="M5407.897,2573.244c-24.375-7.421-47.614-17.22-67.775-33.186
		c-11.768-9.319-22.937-19.615-18.608-36.644c4.107-16.158,17.541-22.201,32.155-26.45c30.393-8.837,60.053,0.098,89.813,3.882
		c18.491,2.351,36.384,4.433,55.013-0.206c20.379-5.075,30.561-12.362,14.689-32.985c-3.43-4.457-4.643-10.618-6.883-16.004
		c5.75-17.35,15.549-9.138,20.652-1.339c32.391,49.498,78.737,52.836,130.919,43.488c24.537-4.396,50.599-1.29,71.476-18.976
		c5.01-9.087,14.477-12.461,22.632-17.417c14.655-8.905,25.494-20.457,28.847-37.963c2.519-13.153,8.514-26.537,22.89-26.201
		c43.212,1.011,85.694,6.743,121.134,35.354c-0.382,36.657-10.473,71.076-25.36,104.081c-14.609,32.386-39.367,49.491-76.112,47.647
		c-17.461-0.876-35.005-0.08-52.512-0.041c-19.119,6.821-38.392,2.631-57.444,0.159c-47.091-6.11-94.284-11.117-141.576-14.931
		c-29.906,9.192-57.931,23.423-87.743,33.013C5458.469,2580.002,5432.471,2586.731,5407.897,2573.244z"/>
	<path style="fill:#FDE5A6;" d="M5260.093,868.734c19.756,10.547,35.206-4.605,51.928-9.647c20.141-6.072,31.159-3.465,40.105,18.23
		c22.198,53.829,33.331,110.645,49.36,166.126c-90.204,31.449-176.866,72.269-268.179,100.862
		c-37.113,11.621-40.765,10.954-53.081-25.148c-15.118-44.314-29.731-88.801-44.166-133.344
		c-5.24-16.169-6.094-32.785,12.813-39.575C5119.462,920.89,5187.298,888.029,5260.093,868.734z"/>
	<path style="fill:#FDE4A3;" d="M6298.917,2823.398c5.181,25.798,21.072,25.923,42.729,20.562
		c70.473-17.449,73.811-14.902,97.426,54.453c14.441,42.413,18.929,86.478,22.826,130.686c-18.841-7.421-37.535-4.72-56.895-1.126
		c-62.454,11.593-122.274,33.065-183.89,47.691c-35.834,8.506-40.933,6.725-51.283-27.543
		c-12.975-42.958-29.104-84.723-44.106-126.927c-11.494-32.334-8.665-38.071,25.717-46.48c34.067-8.332,68.033-17.446,102.57-23.465
		C6273.457,2847.86,6289.014,2840.882,6298.917,2823.398z"/>
	<path style="fill:#FEB881;" d="M3040.599,2859.101c36.089,35.493,83.392,51.9,127.09,74.381
		c13.74,7.069,27.83,14.067,42.539,18.533c53.106,16.122,87.043,48.462,93.41,105.572c-17.155,8.094-35.205,13.354-52.002,23.304
		c-23.788,14.091-40.577-6.845-57.962-19.649c-13.867-9.487-13.148-24.958-16.146-38.976c-2.403-11.234-2.663-25.136-16.138-28.775
		c-45.59-12.308-88.69-34.488-137.244-35.188c0.646-12.728-3.184-20.529-16.8-26.107c-34.127-13.98-67.157-30.639-100.636-46.203
		c-26-12.086-34.094-30.481-26.559-59.247c13.006-49.655,31.84-97.858,38.335-149.175c15.422,12.141,33.091,23.026,52.126,22.347
		c33.327-1.19,39.835,14.906,34.784,42.671c-1.132,2.796,0.397,6.472-0.78,8.463
		C2975.079,2801.005,3009.144,2829.596,3040.599,2859.101z"/>
	<path style="fill:#24438D;" d="M5504.246,1731.024c-44.29-7.311-67.076-27.857-72.511-67.22
		c-2.374-17.198-5.552-36.678,11.564-48.238c19.468-13.15,28.589,8.115,41.313,16.385c8.604-2.733,4.824-9.624,5.286-14.511
		c2.981-31.551,20.028-43.177,46.792-27.576c19.557,11.4,35.74,12.162,53.775,0.184c2.396-1.591,5.249-2.539,7.966-3.59
		c10.758-4.161,22.14-11.542,33.195-4.674c13.231,8.219-5.412,19.207,1.558,30.066c18.05,3.585,37.122-1.373,56.314-2.542
		c11.571-0.705,23.386-1.99,34.752-0.475c21.71,2.891,32.781,13.124,18.757,35.543c-9.852,15.749-11.52,32.733,1.564,45.847
		c36.364,36.446,29.207,72.466,2.334,109.552c-7.01,0.413-10.032-5.079-13.731-9.422c-11.376-13.353-19.956-7.455-27.783,3.915
		c-1.104,1.605-1.802,3.471-2.841,5.107c-5.912,9.304-6.197,26.379-21.124,24.226c-15.039-2.168-16.728-17.78-17.042-30.439
		c-0.404-16.285-9.457-21.59-23.645-24.014c-19.126-3.267-35.025-12.554-44.217-30.312c-7.254-14.015-17.961-15.492-31.919-12.465
		C5544.786,1730.669,5524.959,1737.396,5504.246,1731.024z"/>
	<path style="fill:#F9C056;" d="M5260.093,868.734c-26.141,21.534-60.044,25.505-89.767,39.052
		c-36.213,16.506-74.341,28.994-112.117,41.816c-18.128,6.153-21.754,14.905-15.414,32.801
		c17.224,48.607,33.181,97.677,48.754,146.845c4.892,15.444,10.208,18.668,26.934,12.699
		c86.195-30.761,172.314-61.609,255.724-99.435c9.999-4.534,18.375-5.213,27.28,0.931c16.779,64.429,22.519,48.569-34.679,71.551
		c-83.945,33.729-169.806,62.776-258.095,83.504c-15.509,3.641-35.962,13.763-40.946-14.82c8.651-6.578,3.443-14.126,1.03-21.025
		c-20.732-59.26-34.497-120.556-53.535-180.306c18.69,59.748,32.446,120.932,53.066,180.128c2.433,6.985,7.015,14.505-0.271,21.591
		c-23.454-39.544-35.052-83.904-50.896-126.495c-11.203-30.114-20.566-60.935-30.06-91.653
		c-5.267-17.039-1.501-28.101,17.979-35.847c66.99-26.638,133.145-55.401,199.409-83.838
		C5245.26,828.736,5246.729,829.001,5260.093,868.734z"/>
	<path style="fill:#ACD2FD;" d="M5565.117,2539.106c69.366-0.536,137.507,10.826,205.752,21.178
		c0.053,27.509,0.207,55.012,5.411,82.182c-49.403,10.977-98.967,15.055-149.877,11.861c-76.515-4.8-153.096-7.887-228.732-21.353
		c-20.817-3.706-42.674-5.217-60.042-19.795c-3.88-10.576,9.064-30.944-16.742-28.757c-1.391-0.868-2.781-1.735-4.171-2.603
		c1.534-0.576,3.069-1.152,4.604-1.728c28.85-2.287,57.701-4.573,86.565-6.854c26.996-0.684,53.979-1.375,80.962-2.065
		c20.001-3.765,39.021-12.419,59.726-12.524C5562.183,2558.58,5563.735,2549.106,5565.117,2539.106z"/>
	<path style="fill:#3279E9;" d="M5471.891,3934.588c27.255,22.01,30.12,52.978,31.059,84.635
		c0.425,14.304-8.408,18.461-20.691,18.414c-95.611-0.364-191.222-0.796-286.833-1.167c-16.391-0.064-17.945-8.253-11.5-20.771
		c7.233-14.051,19.918-21.415,34.283-25.396c16.854-4.671,33.956-9.844,51.241-11.269c34.943-2.88,60.411-19.08,79.51-47.823
		c5.79-8.713,14.565-15.441,21.974-23.079c9.11-1.612,17.257,1.561,24.778,5.911
		C5419.321,3927.7,5444.044,3936.823,5471.891,3934.588z"/>
	<path style="fill:#F7C05A;" d="M6298.917,2823.398c1.28,18.339-2.46,28.84-25.256,32.246
		c-42.971,6.421-85.118,18.344-127.62,27.927c-16.239,3.662-24.355,7.91-15.791,28.851c19.01,46.481,35.382,94.222,49.53,142.417
		c5.462,18.606,11.797,19.804,28.192,15.827c74.358-18.04,146.809-43.424,222.571-56.358c17.207-2.938,24.99,1.112,31.354,14.791
		c-7.992,16.207-25.246,19.636-39.13,21.618c-81.03,11.563-159.348,35.306-239.316,51.498c-22.205,4.496-32.116-1.925-39.18-22.098
		c-20.923-59.744-38.445-120.381-53.118-181.949c-5.125-21.508,1.406-33.528,22.265-39.464
		c51.453-14.643,102.668-30.143,154.281-44.19C6278.453,2811.586,6293.283,2804.059,6298.917,2823.398z"/>
	<path style="fill:#FDB57A;" d="M5504.246,1731.024c15.228-2.995,31.051-4.285,45.552-9.358
		c26.166-9.154,46.663-12.271,58.931,21.205c5.794,15.809,25.381,20.991,42.572,19.843c17.236-1.151,22.118,5.742,21.118,21.748
		c-0.809,12.939-1.276,26.629,10.225,38.585c12.857-19.258,10.198-48.414,37.368-52.58c19.91-3.053,17.282,19.914,26.901,29.296
		c-6.242,18.212-23.118,28.937-31.877,45.363c-33.209,9.94-62.51,29.654-96.172,38.501c-26.934-9.318-53.334-10.115-78.71,5.025
		c-11.378,3.89-17.806-9.43-28.449-8.212c0.219-40.24,0.231-80.483,0.799-120.719
		C5512.653,1749.074,5515.265,1738.238,5504.246,1731.024z"/>
	<path style="fill:#3179EA;" d="M5934.51,3965.829c8.489,9.616,15.025,20.385,19.32,32.502
		c18.602,52.492,7.154,69.149-46.917,68.881c-72.235-0.359-144.473-0.319-216.707-0.831c-9.05-0.064-21.24,3.615-24.672-9.502
		c-3.248-12.415,1.297-24.118,12.164-30.595c11.59-6.909,24.257-13.126,37.271-16.334c45.895-11.315,84.586-34.501,117.928-67.404
		c5.355-4.397,11.501-3.26,16.412-0.414C5875.718,3957.441,5904.249,3964.622,5934.51,3965.829z"/>
	<path style="fill:#8ABAF8;" d="M5337.628,2613.179c59.742,10.376,119.295,23.072,180.009,25.361
		c61.466,2.318,122.526,13.556,184.622,5.51c24.104-3.124,49.254-7.301,74.024-1.583c-0.026,2.16-0.048,4.32-0.071,6.479
		c-77.644,36.139-160.32,35.144-242.948,31.493c-62.909-2.779-126.471-0.731-187.949-18.498c-8.606-2.487-8.774,5.571-12.622,9.043
		C5330.068,2651.338,5332.146,2632.114,5337.628,2613.179z"/>
	<path style="fill:#F1614F;" d="M3024.146,2958.303c6.734-10.402,14.391-11.824,26.815-7.618
		c36.612,12.395,73.916,22.758,111.01,33.709c11.853,3.499,19.941,7.976,20.99,23.114c1.251,18.074,6.942,35.841,10.712,53.737
		c-61.777-2.992-122.78-11.72-183.207-24.754C3006.504,3008.94,3020.607,2984.546,3024.146,2958.303z"/>
	<path style="fill:#87B8F7;" d="M5924.852,2408.597c-33.275-14.085-68.693-20.745-103.569-28.993
		c-17.921-4.239-31.097-1.092-32.991,23.484c-2.631,34.151-31.667,43.033-58.939,51.735c-14.377-21.762-0.86-43.638,1.414-64.771
		c5.722-53.178,10.769-106.856,29.238-163.227c14.73,39.155,8.089,75.254,15.741,109.582c3.3,14.806,8.344,19.889,22.481,18.956
		c51.497-3.399,102.575,4.528,153.892,6.089C5950.163,2381.294,5964.646,2410.638,5924.852,2408.597z"/>
	<path style="fill:#78B2F8;" d="M1625.848,1622.876c-16.511,0-33.304,1.896-49.46-0.498c-18.623-2.76-32.889-14.838-34.061-34.418
		c-1.146-19.151,17.477-17.673,29.304-24.876c20.341-12.389,44.751-15.376,63.17-30.607c15.227-12.592,29.659-12.834,43.648,1.847
		c3.309,3.472,6.525,9.072,10.388,9.648c25.73,3.838,31.961,20.382,26.833,42.242c-5.491,23.407-21.911,36.118-46.091,37.299
		c-14.544,0.71-29.151,0.13-43.73,0.13C1625.849,1623.387,1625.848,1623.132,1625.848,1622.876z"/>
	<path style="fill:#2E73E9;" d="M3251.242,3998.856c40.232,9.779,78.819,22.646,104.064,58.759
		c14.452,20.674,10.348,29.421-14.689,31.26c-24.535,1.802-48.29-3.783-72.11-8.744c-18.971-3.951-37.814-9.072-57.635-6.742
		c-36.839,4.329-44.977-3.594-40.864-40.303c0.838-7.48,4.456-14.649,6.792-21.962c2.582-1.419,6.068-2.898,8.155-1.47
		C3210.614,4027.222,3231.977,4019.783,3251.242,3998.856z"/>
	<path style="fill:#845A45;" d="M5511.704,1880.441c13.094-15.224,15.112,8.423,24.296,6.921c28.082-0.26,56.752,7.288,83.829-6.317
		c23.095-19.877,54.794-22.374,79.501-39.232c4.457-3.041,11.337-1.987,15.704,3.319c-4.145,18.715-19.27,33.28-20.149,53.236
		c-22.28,50.387-55.662,65.686-106.427,48.775C5545.432,1944.975,5518.677,1924.087,5511.704,1880.441z"/>
	<path style="fill:#75A5EA;" d="M5495.507,2414.035c-47.329-56.845-95.627-112.925-141.455-170.957
		c-15.794-20.001-33.811-24.694-56.166-21.81c-96.519,12.45-192.996,25.218-289.479,37.939c-15.444,2.036-30.836,4.599-46.462,1.899
		c13.261-23.175,37.97-17.466,57.595-20.264c99.658-14.207,199.646-26.099,299.517-38.805c26.083-4.425,35.967,19.692,53.489,30.355
		c23.539,18.969,41.066,42.43,52.607,70.366c18.927,25.721,37.645,51.599,56.881,77.087
		C5489.807,2390.144,5497.108,2400.227,5495.507,2414.035z"/>
	<path style="fill:#FDB97F;" d="M5712.406,1974.643c4.108,3.649,8.216,7.298,12.324,10.948c0.14,27.21-28.454,64.166-57.939,74.882
		c-26.185,9.517-65.1-0.476-82.26-21.61c-13.098-16.131-18.584-33.555-6.423-52.929c14.053-7.881,11.86-21.713,12.626-34.462
		C5631.102,1960.191,5671.573,1968.367,5712.406,1974.643z"/>
	<path style="fill:#3178EC;" d="M2900.534,4025.95c13.003,11.987,23.226,26.262,31.394,41.699
		c12.489,23.604,4.86,35.845-21.3,33.574c-45.344-3.937-80.693-27.401-107.886-62.151c-17.883-22.852-1.878-50.553,33.329-61.832
		c4.508,4.183,6.167,9.719,7.39,15.477c5.397,25.411,20.255,36.527,46.379,30.769
		C2893.686,4022.637,2897.514,4022.774,2900.534,4025.95z"/>
	<path style="fill:#F9B47F;" d="M5471.891,3934.588c-26.04,15.896-48.288,3.432-70.533-9.367
		c-10.074-5.796-20.258-11.401-30.409-17.091c-1.349-15.724-2.681-31.449-4.012-47.175c37.48,0.822,75.043-0.015,112.283,5.703
		C5479.104,3889.552,5478.484,3912.393,5471.891,3934.588z"/>
	<path style="fill:#FCB681;" d="M5934.51,3965.829c-26.542,13.469-50.029,3.406-73.313-9.286
		c-9.224-5.029-18.832-9.355-28.282-13.999c-1.271-15.081-2.524-30.164-3.777-45.247c32.56-9.614,66.182-12.246,99.765-15.17
		C5930.775,3910.021,5932.642,3937.925,5934.51,3965.829z"/>
	<path style="fill:#0F2C6C;" d="M5559.552,3145.959c-25.305-72.577-50.611-145.154-77.308-221.72
		c51.914,24.219,96.464,135.585,84.636,200.249C5560.571,3130.324,5559.823,3138.06,5559.552,3145.959z"/>
	<path style="fill:#FBB57F;" d="M2900.534,4025.95c-44.608,17.181-61.302,4.567-64.46-48.708
		c15.392-12.258,11.275-32.549,19.651-47.693c21.218,6.623,42.429,13.242,63.65,19.859
		C2918.858,3976.338,2899.187,3998.557,2900.534,4025.95z"/>
	<path style="fill:#8ABAF7;" d="M5578.108,1985.934c-2.536,28.418,4.825,51.811,33.363,63.839
		c31.583,13.312,55.998,7.685,81.673-16.721c14.273-13.568,25.947-28.369,31.582-47.456c5.569,0.477,11.134,0.96,16.697,1.448
		c-2.369,39.12-31.51,79.039-66.225,90.721c-31.136,10.477-74.697-4.128-97.628-29.511c-15.307-16.943-6.551-39.857-18.314-56.887
		C5564.325,1985.351,5571.482,1986.566,5578.108,1985.934z"/>
	<path style="fill:#F8AF7A;" d="M3251.242,3998.856c-21.613,39.372-21.613,39.372-74.456,12.277
		c-2.23-20.283-4.475-40.557-6.717-60.825c25.401-1.671,51.059-0.832,75.906-7.84
		C3248.432,3961.198,3242.924,3980.672,3251.242,3998.856z"/>
	<path style="fill:#F29965;" d="M5712.406,1974.643c-42.951,4.808-83.956-0.602-121.681-23.176
		c-1.363-1.118-2.126-2.563-2.273-4.326c46.29,7.326,79.914-12.973,106.433-48.771
		C5704.895,1922.836,5707.354,1949.037,5712.406,1974.643z"/>
	<path style="fill:#F6BC8D;" d="M5321.319,2580.092c-0.663,1.388-0.812,2.83-0.439,4.327
		c-40.828,27.206-81.852,36.586-123.341,1.315C5238.805,2583.854,5280.062,2581.973,5321.319,2580.092z"/>
	<path style="fill:#F2F6FD;" d="M4300.661,2355.701c83.921-0.083,167.842-0.166,251.763-0.249
		c-4.841,6.208-11.763,5.757-18.523,5.758c-71.529,0.006-143.059,0.005-214.588-0.008
		C4312.567,2361.202,4305.632,2361.755,4300.661,2355.701z"/>
	<path style="fill:#FEFEFE;" d="M3619.068,1365.785c111.648-1.589,110.776-1.442,126.343,91.188
		c13.598,80.91,17.669,162.52,20.875,244.184c1.861,47.417-11.126,61.913-58.739,69.998
		c-84.524,14.351-170.054,20.108-255.376,26.795c-54.318,4.257-108.8,8.455-163.476,6.761c-36.33-1.126-51.073-10.634-56.308-45.458
		c-15.199-101.105-25.757-202.741-26.235-305.122c-0.141-30.192,14.053-46.729,45.16-51.502
		c86.57-13.284,173.452-24.414,260.857-30.674C3553.932,1368.963,3595.776,1367.106,3619.068,1365.785z"/>
	<path style="fill:#FDFEFE;" d="M4074.615,2010.681c-17.001,1.746-24.819-7.056-28.296-22.759
		c-26.77-120.916-60.512-240.045-92.294-359.682c-7.986-30.061,6.639-38.843,36.858-39.041
		c41.478-0.271,83.109-8.153,124.297-15.036c72.014-12.035,144.592-21.01,215.678-38.331c16.323-3.978,26.096,2.808,30.091,19.119
		c26.199,106.947,52.962,213.76,78.386,320.89c3.728,15.711-1.841,30.9,9.408,48.404c10.34,16.09-14.121,23.038-28.69,25.95
		c-41.066,8.208-82.384,15.165-123.628,22.468c-69.074,12.23-138.164,24.367-207.261,36.468
		C4084.37,2009.97,4079.467,2010.179,4074.615,2010.681z"/>
	<path style="fill:#7A4D37;" d="M3080.11,2437.095c-31.78,7.182-63.427,9.017-95.25-0.415c-33.03-9.79-56.489-30.748-70.06-61.623
		c-21.546-49.021,3.341-96.351,56.686-105.588c17.715-3.067,21.344-5.449,17.075-24.234c-22.62-99.53,63.68-187.416,165.104-168.437
		c36.507,6.832,71.739,18.669,99.298,45.969c33.28,32.968,35.601,71.032,6.595,109.648c-15.17-14.073-9.987-36.596-22.667-52.438
		c-17.322-21.642-21.818-23.004-36.871-0.618c-26.805,39.863-66.37,62.205-108.678,81.05c-6.344,2.825-12.904,4.128-19.949,2.855
		c-8.572-1.549-18.375-4.603-23.275,5.767c-5.355,11.334-0.575,22.589,8.28,28.773c51.119,35.695,30.384,86.82,29.762,133.608
		C3086.125,2434.133,3082.996,2436.091,3080.11,2437.095z"/>
	<path style="fill:#FDB880;" d="M3080.11,2437.095c1.084-25.19,4.584-50.581,2.51-75.508c-1.752-21.052,1.395-45.832-29.612-55.174
		c-14.048-4.232-20.847-23.783-15.127-40.124c6.374-18.208,20.224-18.115,35.557-9.639c2.676,1.479,7.561,0.85,10.631-0.548
		c48.23-21.965,94.911-46.575,118.92-97.356c7.542-15.952,12.731-12.788,22.311-3.637c22.124,21.135,35.47,45.936,34.248,77.306
		c5.559,37.089,7.552,73.942-12.37,107.917c-12.732,21.713-30.883,37.334-55.733,44.269c-10.538,2.941-25.106-0.022-27.409,16.198
		c-2.295,16.169-0.434,31.193,15.129,41.14c3.174,2.029,5.574,5.268,8.333,7.95c-1.894,14.369,9.106,33.513-10.496,41.508
		c-23.739,9.682-47.986,6.632-69.367-8.279c-12.192-8.502-20.085-21.03-25.821-34.758
		C3081.245,2444.604,3080.677,2440.85,3080.11,2437.095z"/>
	<path style="fill:#F7FAFC;" d="M3384.018,2970.111c-9.731-8.014-17.295-20.303-32.927-16.679
		c-12.931-8.54-13.288-23.025-16.996-35.926c-2.735-3.267-4.232-8.448-0.953-10.275c25.33-14.109,21.862-37.817,21.937-60.964
		c0.144-44.593,3.912-89.417-28.464-127.172c-9.442-11.011-5.139-28.053-9.87-41.714c23.097-75.526-17.8-187.406-81.97-224.247
		c44.656-6.945,89.704-0.57,134.465-3.963c18.181-3.073,22.776,8.99,25.719,22.989c2.67,155.667,0.961,311.352,0.852,467.033
		C3395.803,2950.48,3396.526,2963.104,3384.018,2970.111z"/>
	<path style="fill:#DBEEFE;" d="M3387.098,2467.44c-0.595-11.327-9.837-14.202-17.859-18.268
		c0.116-22.422-0.296-44.862,0.464-67.262c1.34-39.465,23.34-61.022,62.298-61.22c118.948-0.605,237.899-0.65,356.844-1.622
		c48.644-0.397,97.272-2.664,145.91-3.979c18.874-0.51,37.188,1.308,51.39,15.848c7.823,8.009,17.702,6.818,27.385,6.875
		c21.436,0.126,42.872,0.248,64.306,0.373c-34.584,12.211-70.298,2.398-105.354,5.417c-49.425,6.147-99.074,3.041-148.619,3.233
		c-124.715,0.482-249.433-0.182-374.148,0.356c-36.809,0.159-53.599,16.046-53.106,47.024c0.194,12.183,4.05,18.666,17.422,15.692
		c42.412-9.434,85.517-5.789,128.184-4.723c105.277,2.63,210.179-9.734,315.403-6.2c15.242,0.512,31.524-3.018,44.519,9.022
		c-5.809,10.096-18.661,2.41-26.949,11.472c12.2,10.906,27.177,3.027,39.694,6.715c-9.346,19.975-28.082,14.073-43.276,14.173
		c-107.934,0.715-215.876,0.72-323.812,0.178c-38.036-0.191-75.474,8.019-113.442,6.664
		C3415.004,2446.517,3405.036,2465.911,3387.098,2467.44z"/>
	<path style="fill:#FAC75C;" d="M4616.714,2718.327c0.058,52.717-0.507,105.445,0.482,158.145
		c0.391,20.883-6.338,28.384-28.265,30.106c-105.31,8.27-210.418,19.071-315.677,28.058c-58.981,5.036-118.147,7.863-177.172,12.449
		c-92.797,7.21-185.551,14.979-278.308,22.701c-26.102,2.173-52.508,3.723-78.387,4.801c-68.95,2.872-137.462,11.596-206.425,13.188
		c16.027-23.043,14.448-49.349,14.367-75.521c-0.099-32.188-1.328-64.424,0.667-96.558c2.619-42.194,21.585-63.618,62.781-73.119
		c8.583-1.979,17.295-3.791,26.056-3.485c72.242,2.52,144.158-5.191,216.284-6.682c145.19-3.003,290.327-8.645,435.467-13.151
		c95.39-2.962,190.993-2.677,286.29-9.76C4589.208,2708.433,4604.425,2707.631,4616.714,2718.327z"/>
	<path style="fill:#F7DC94;" d="M4616.714,2718.327c-94.377-0.558-188.62,5.233-282.931,7.418
		c-125.289,2.903-250.583,7.659-375.886,11.458c-107.75,3.267-215.413,9.653-323.276,11.096
		c-56.712,0.758-78.053,24.533-78.11,81.572c-0.04,39.954-1.217,79.962,0.535,119.839c0.882,20.053-4.17,32.853-24.083,38.067
		c-13.876-0.216-27.752-0.43-41.63-0.648c0.063-121.961,0.022-243.919,0.251-365.876c0.074-39.205,15.295-54.069,54.394-55.374
		c158.865-5.303,317.837-3.233,476.701-6.556c163.788-3.427,327.559-4.844,491.359-5.713c21.333-0.113,42.634-3.17,63.981-4.175
		c17.09-0.804,32.803,3.152,44.521,16.984c-5.504,0.787-7.225,2.837-7.099,9.392
		C4616.351,2623.308,4616.396,2670.82,4616.714,2718.327z"/>
	<path style="fill:#BCD7FD;" d="M4710.626,2893.863c-0.009-95.563-0.019-191.127-0.027-286.69
		c47.573-15.345,95.581-14.881,142.396,0.971c24.173,8.185,35.496,29.709,36.06,55.31c1.374,62.313,0.924,124.642,0.177,186.96
		c-0.139,11.588-0.727,23.858-13.9,29.777C4820.667,2887.601,4765.92,2894.037,4710.626,2893.863z"/>
	<path style="fill:#E3ECFC;" d="M4875.332,2880.191c6.193-8.537,5.213-18.394,5.211-28.09
		c-0.012-61.241,0.167-122.482-0.054-183.723c-0.135-37.635-21.085-59.813-59.068-60.894c-36.914-1.051-73.879-0.281-110.822-0.311
		c0.012-12.637,0.005-25.273,0.039-37.91c0.1-38.091,0.105-38.118,39.612-38.157c37.913-0.037,75.844-0.745,113.729,0.272
		c22.283,0.598,42.572-2.039,58.602-21.975c15.145,23.188,13.43,47.275,9.446,68.822c-5.031,27.208-5.576,54.163-4.155,81.061
		c2.01,38.062-5.876,75.245-6.713,113c-0.354,15.951,5.042,30.479,6.572,45.865c1.738,17.483,11.656,21.023,26.451,12.347
		c0.503,18.87,1.011,37.738,1.519,56.605c0,0,0.129,0.233,0.129,0.233C4929.542,2878.809,4902.361,2880.357,4875.332,2880.191z"/>
	<path style="fill:#EF972F;" d="M4955.701,2887.103c13.385,50.788,10.736,102.018-2.902,151.563
		c-5.834,21.198-32.436,26.603-51.843,35.19c-91.645,40.551-183.801,79.95-275.344,120.725
		c-135.964,60.561-271.662,121.719-407.23,183.16c-24.186,10.961-47.065,7.605-70.554-0.546
		c-137.845-47.836-275.759-95.475-413.548-143.471c-70.622-24.599-140.791-50.528-211.71-74.225
		c-17.974-6.006-26.293-17.765-27.976-33.421c-4.354-40.501-6.294-81.258-9.605-121.88c-0.499-6.118,0.903-9.557,7.012-9.62
		c8.787-0.091,11.281,5.599,11.76,13.41c1.846,30.027,5.334,60.029,5.554,90.059c0.208,28.366,11.928,45.077,38.885,54.34
		c134.38,46.175,268.443,93.272,402.686,139.849c63.315,21.968,127.508,41.635,189.898,65.95
		c35.033,13.654,65.416,9.632,97.941-5.256c146.854-67.216,294.025-133.74,441.225-200.196
		c73.525-33.194,147.081-66.352,221.207-98.167c25.157-10.798,37.83-25.337,38.902-54.341c1.108-29.963,6.491-59.909,4.672-90.079
		c-0.634-10.509,7.999-14.964,11.105-22.804C4955.83,2887.336,4955.701,2887.103,4955.701,2887.103z"/>
	<path style="fill:#EB8D28;" d="M3433.897,3743.311c5.402-15.927,5.186-32.399,5.719-48.981
		c3.635-113.112-3.601-226.125-7.909-338.926c-3.761-98.474-1.355-196.792-3.961-295.137c-0.658-24.844-1.67-47.663-26.761-63.519
		c-11.491-7.262,1.982-7.603,7.104-8.705c7.97-1.237,15.88-2.1,22.731,3.641c1.523,0.67,2.975,1.469,4.379,2.397
		c14.312,9.966,16.313,23.919,16.25,40.486c-0.54,142.442-2.82,284.951,0.753,427.306c2.099,83.593-4.844,166.92-1.345,250.391
		C3451.406,3725.342,3454.579,3741.217,3433.897,3743.311z"/>
	<path style="fill:#0C378C;" d="M3140.934,3480.27c10.275-65.906,29.05-124.75,42.828-184.687
		c4.993-21.72,12.731-42.864,16.872-64.714c7.289-38.455,30.908-65.833,57.982-93.008
		C3256.751,3176.068,3165.632,3443.548,3140.934,3480.27z"/>
	<path style="fill:#387EEA;" d="M3430.82,2991.684c-8.152,2.393-15.878,2.125-22.727-3.64c-6.847-7.56-19.365-7.503-24.072-17.932
		c5.511-14.123,3.559-28.912,3.505-43.437c-0.522-139.45-1.302-278.898-1.855-418.348c-0.054-13.628,0.926-27.26,1.426-40.889
		c13.7-25.025,34.501-32.176,62.939-32.283c146.397-0.549,292.787-3.177,439.177-5.19c8.657-0.119,17.681,1.333,25.665-3.775
		c44.849-0.506,89.694-0.942,134.537-1.552c26.827-0.365,44.628,12.315,52.8,37.483c11.417,35.166,3.621,45.575-32.707,45.819
		c-185.304,1.245-370.609,2.524-555.913,3.819c-40.816,0.285-57.95,17.173-58.117,59.251c-0.45,113.087-0.268,226.175-0.55,339.263
		c-0.046,18.499-2.738,37.112-1.364,55.46C3454.919,2983.827,3446.155,2989.842,3430.82,2991.684z"/>
	<path style="fill:#4388EF;" d="M3902.137,2408.006c-148.316,2.001-296.63,4.159-444.95,5.838
		c-22.698,0.257-44.655,1.772-67.004,17.687c-3.559-20.656-3.387-38.596-0.807-56.323c3.585-24.636,16.896-36.765,43.687-36.779
		c168.866-0.088,337.73-1.309,506.597-1.839c11.163-0.035,23.743-3.879,32.821,7.012
		C3946.282,2362.065,3931.184,2392.651,3902.137,2408.006z"/>
	<path style="fill:#8BBEFD;" d="M5425.154,2302.758c-18.104-23.031-39.351-43.712-52.606-70.367
		c34.713-24.751,41.255-66.838,61.576-100.439c7.88-13.03,13.88-27.196,23.327-40.135
		C5455.062,2163.592,5428.08,2231.387,5425.154,2302.758z"/>
	<path style="fill:#FCB37D;" d="M3316.745,2677.382c9.477,23.1,17.659,46.493,35.965,65.25c9.458,9.69,8.859,25.174,9.587,38.629
		c0.994,18.356,1.613,36.768,1.421,55.146c-0.318,30.393,11.171,65.392-29.624,81.101c-11.379-18.252-8.778-39.806-10.33-59.209
		C3318.955,2798.19,3318.742,2737.715,3316.745,2677.382z"/>
	<path style="fill:#CC4534;" d="M3010.696,2748.803c-3.827-22.121,10.548-37.73,19.1-55.728
		c11.929-25.103,21.752-51.208,34.6-76.368c0.797,50.54-9.641,98.753-30.521,144.82c-3.075,6.784-9.193,9.713-16.546,10.033
		C3007.229,2766.274,3004.55,2758.824,3010.696,2748.803z"/>
	<path style="fill:#FDF8EF;" d="M3010.696,2748.803c2.211,7.584,4.421,15.168,6.633,22.756
		c7.757,29.183,15.514,58.363,23.271,87.543c-57.661-25.311-66.773-55.475-35.201-116.514
		C3007.163,2744.66,3008.929,2746.731,3010.696,2748.803z"/>
	<path style="fill:#4A7DD3;" d="M5033.212,2278.479c-4.833,0.254-9.113-0.231-9.924-4.841c-1.378-7.84,5.212-10.314,10.566-11.18
		c17.238-2.788,34.62-4.74,51.983-6.689c62.686-7.038,125.39-13.913,188.077-20.939c7.372-0.826,18.041-5.865,19.791,4.38
		c2.414,14.127-10.798,9.636-18.441,10.501c-78.149,8.848-156.318,17.523-234.469,26.353
		C5037.957,2276.386,5035.247,2277.811,5033.212,2278.479z"/>
	<path style="fill:#F4FBFD;" d="M2101.163,2714.025c9.872-29.677,19.043-59.618,30.072-88.859c3.037-8.052,13.491-7.452,21.04-4.604
		c28.258,10.657,56.505,21.402,84.347,33.086c18.19,7.633,21.468,21.582,11.345,37.954c-12.784,20.677-21.558,44.005-39.52,61.29
		c-6.923,6.662-14.807,16.171-24.753,6.854c-10.395-9.737,2.458-14.636,7.129-20.883c13.286-17.771,34.481-40.613,24.92-57.826
		c-10.743-19.34-42.804-17.87-66.061-23.813c-12.243-3.128-13.507,8.26-17.088,15.798c-6.953,14.634-9.754,31.388-20.8,43.922
		C2108.25,2715.971,2104.707,2714.998,2101.163,2714.025z"/>
	<path style="fill:#E8F5FB;" d="M2147.567,2679.734c5.993,18.669-13.893,31.999-4.314,51.021
		c17.346-9.001,21.861-28.246,35.65-38.248c5.373-3.897,10.715-10.634,17.609-4.664c8.794,7.615-1.312,11.439-4.919,16.014
		c-9.577,12.148-20.273,23.467-29.223,36.041c-10.898,15.31-22.91,10.722-35.416,3.728c-15.25-8.529-3.912-17.682-0.32-26.653
		C2131.598,2704.573,2134.671,2691.154,2147.567,2679.734z"/>
	<path style="fill:#DEEFFB;" d="M2142.17,2772.797c-0.968,11.38-6.132,15.895-11.865,14.56
		c-13.702-3.191-29.819-3.567-36.378-19.669c-1.424-3.496,2.204-8.574,6.446-7.478
		C2114.782,2763.934,2128.916,2768.719,2142.17,2772.797z"/>
	<path style="fill:#49547A;" d="M5565.117,2539.106c14.96,18.419,13.625,28.243-13.155,28.177
		c-21.026-0.052-42.06,2.499-63.103,3.892C5514.269,2560.484,5539.693,2549.795,5565.117,2539.106z"/>
	<path style="fill:#F8CA6E;" d="M5301.445,1003.497c4.792-0.475,9.207-0.23,9.717,4.557c0.777,7.29-5.172,9.436-10.696,11.545
		c-37.946,14.493-75.851,29.092-113.832,43.492c-22.61,8.572-45.218,17.183-68.072,25.065c-7.893,2.722-18.995,15.343-23.973,1.804
		c-3.958-10.763,11.62-13.314,20.01-16.445c47.146-17.593,94.607-34.34,141.836-51.714
		C5271.863,1016.127,5286.917,1009.438,5301.445,1003.497z"/>
	<path style="fill:#F9CB6B;" d="M5319.078,1042.014c-71.296,28.917-142.319,58.571-216.313,80.179
		c-1.187-3.161-2.374-6.321-3.561-9.481c71.813-27.188,143.626-54.376,215.439-81.564
		C5316.122,1034.77,5317.6,1038.392,5319.078,1042.014z"/>
	<path style="fill:#F9C056;" d="M5288.596,941.304c-70.125,32.866-143.314,57.703-215.84,84.279
		c-1.202-3.098-2.403-6.197-3.605-9.295c72.135-27.998,144.269-55.996,216.403-83.995
		C5286.568,935.297,5287.583,938.3,5288.596,941.304z"/>
	<path style="fill:#F9C056;" d="M5080.867,1051.102c69.633-26.568,139.267-53.136,208.901-79.704
		c1.015,2.609,2.029,5.219,3.044,7.828c-66.374,34.963-138.891,54.113-208.62,80.439
		C5083.084,1056.811,5081.976,1053.957,5080.867,1051.102z"/>
	<path style="fill:#F8C969;" d="M6373.503,2988.308c5.143,0.146,10.624,1.231,9.707,7.554c-0.952,6.559-7.087,8.059-13.017,9.51
		c-30.984,7.584-61.937,15.304-92.804,23.349c-22.473,5.856-44.819,12.206-67.169,18.516c-6.333,1.788-14.541,7.417-18.117-0.59
		c-4.857-10.873,6.97-12.765,13.238-14.469c41.921-11.395,84.102-21.839,126.177-32.673
		C6345.543,2995.893,6359.508,2992.043,6373.503,2988.308z"/>
	<path style="fill:#FCECC0;" d="M5068.06,1184.065c-19.277-65.795-38.533-131.595-57.882-197.369
		c-1.089-3.703-3.357-7.071-4.342-10.79c-1.668-6.305-5.336-14.971,2.983-17.523c8.526-2.615,10.848,6.188,11.946,12.885
		c6.922,42.253,22.986,81.97,33.952,123.098c6.983,26.188,14.964,52.11,22.482,78.156c2.425,8.4,4.591,16.635-9.431,11.156
		C5067.77,1183.677,5068.06,1184.065,5068.06,1184.065z"/>
	<path style="fill:#F8EFE4;" d="M5619.829,1881.045c-25.841,29.998-54.946,16.679-83.828,6.316
		C5562.456,1865.129,5590.824,1862.991,5619.829,1881.045z"/>
	<path style="fill:#8E5E4D;" d="M5561.927,1763.892c15.505-8.59,28.663-2.836,47.36,7.322
		C5588.586,1775.126,5575.333,1769.522,5561.927,1763.892z"/>
	<path style="fill:#FAB544;" d="M3388.563,1699.299c47.922-40.924,95.885-81.8,143.738-122.806
		c12.585-10.784,24.91-21.877,37.198-33c10.946-9.909,16.598-6.869,18.817,6.962c4.784,29.813,9.909,59.572,14.665,89.39
		c1.574,9.87-1.287,16.518-12.565,19.089c-66.285,15.115-132.455,30.73-198.664,46.177
		C3390.688,1703.174,3389.626,1701.236,3388.563,1699.299z"/>
	<path style="fill:#FAB447;" d="M3518.813,1563.779c-44.149,39.565-87.278,78.216-135.306,121.257
		c-5.103-47.699-9.753-90.313-14.158-132.953c-1.097-10.62-1.798-21.315-1.951-31.985c-0.116-8.113-8.507-18.27,1.263-23.88
		c8.186-4.701,16.39,3.54,24.05,7.163C3433.824,1522.824,3474.764,1542.632,3518.813,1563.779z"/>
	<path style="fill:#6FAEF8;" d="M4136.811,1920.755c-37.463-1.01-57.382-30.783-42.98-64.723
		c12.532-29.532,27.364-58.083,40.274-87.464c7.426-16.902,14.244-19.499,29.426-6.339c36.723,31.834,75,61.882,112.85,92.403
		c5.474,4.414,11.543,14.479,19.241,5.971c7.085-7.831-2.097-13.827-7.145-19.246c-5.302-5.692-11.071-10.953-16.695-16.34
		c-30.399-29.122-30.405-29.115,0.318-58.52c22.41-21.447,24.72-21.057,38.386,6.621c9.465,19.171,18.852,38.382,28.343,57.541
		c17.576,35.479,9.723,55.331-30.318,63.509c-46.541,9.506-93.975,14.637-141.014,21.709
		C4156.942,1917.463,4146.416,1919.223,4136.811,1920.755z"/>
	<path style="fill:#6FAEF9;" d="M4222.767,1781.238c-21.276-18.681-43.466-34.917-61.31-55.012
		c-11.247-12.666,3.069-27.023,8.439-39.832c7.487-17.857,14.404-36.294,24.574-52.608c15.752-25.27,36.558-23.769,51.417,2.13
		c3.856,6.722,6.956,13.881,10.344,20.868c29.547,60.925,26.75,74.905-23.748,117.953
		C4229.77,1777.053,4226.528,1778.748,4222.767,1781.238z"/>
</g>
</svg>
