<?xml version="1.0" encoding="UTF-8"?>
<svg xmlns="http://www.w3.org/2000/svg" version="1.1" xmlns:xlink="http://www.w3.org/1999/xlink" viewBox="0 0 2800 2100">
  <defs>
    <clipPath id="clippath">
      <rect width="2800" height="2100" style="fill: none;"/>
    </clipPath>
    <linearGradient id="linear-gradient" x1="702.214" y1="1266.287" x2="702.246" y2="1211.789" gradientTransform="translate(-1.051 4309.689) scale(2.051 -2.051)" gradientUnits="userSpaceOnUse">
      <stop offset="0" stop-color="#45004b"/>
      <stop offset="1" stop-color="#532961"/>
    </linearGradient>
  </defs>
  <!-- Generator: Adobe Illustrator 28.7.7, SVG Export Plug-In . SVG Version: 1.2.0 Build 194)  -->
  <g>
    <g id="Layer_1">
      <g style="clip-path: url(#clippath);">
        <rect width="2800" height="2100" style="fill: #fefefe;"/>
        <g>
          <path d="M782.442,235.672c-.037-18.09-2.809-41.194,11.147-55.318,6.935-7.017,14.715-9.165,24.281-10.145,24.082-2.467,49.277-.959,73.531-.956l135.045-.032,226.448.087c46.094-.093,92.562-1.453,138.621-.144,10.694.304,20.661,4.569,28.095,12.312,5.448,5.673,8.918,13.444,10.534,21.07,4.991,23.55.695,71.27,1.462,97.776-1.095,17.953-.324,36.41-.345,54.413l.326,108.32c.094,19.318,2.268,41.489-.908,60.5-1.339,8.014-4.616,15.877-10.355,21.744-6.51,6.657-15.525,9.969-24.559,11.361-22.626,3.488-48.514.847-71.595.759-50.77-.195-101.781-.991-152.524.613-17.569,11.89-48.596,48.282-66.479,65.344-22.812-21.617-43.841-45.107-66.76-66.636-62.825.775-125.654,1.054-188.482.839-20.668.076-40.548,3.121-56.341-12.967-6.728-6.854-9.58-14.503-10.815-23.871-1.722-13.063-.308-27.421-.088-40.634.246-14.807-.144-29.626-.185-44.436-.359-66.667-.375-133.334-.053-200ZM951.305,302.825c-9.338.031-50.165-2.317-56.552,2.406l.021,3.862c2.28,1.53,3.853,1.657,6.513,1.778,39.469,1.772,80.049-.166,119.621-.168l244.35.172c14.04.125,38.606,2.896,51.161-1.073l1.745-2.233-.71-2.123c-4.263-2.112-8.432-2.553-13.115-2.75-38.204-1.606-77.224.047-115.53.062l-237.503.068ZM894.468,417.279c.507,1.926.917,6.142,2.69,7.096.451.242,393.443,3.991,422.073.64-.869-2.576-1.193-6.148-3.949-7.249-1.476-.593-395.633-3.023-420.814-.486Z" style="fill: #fdb053;"/>
          <path d="M170.187,1536.281c-22.305-46.303-38.95-96.003-52.117-145.634-55.962-210.951-43.146-440.653,47.203-640.325,13.71-30.3,30.112-59.243,46.822-87.96,125.951-212.334,331.143-365.845,570.346-426.689-.322,66.667-.306,133.334.053,200,.041,14.811.431,29.63.185,44.436-.219,13.213-1.634,27.571.088,40.634,1.234,9.368,4.087,17.017,10.815,23.871,15.793,16.088,35.673,13.043,56.341,12.967,62.829.215,125.658-.064,188.482-.839,22.919,21.529,43.947,45.019,66.76,66.636,17.883-17.063,48.91-53.454,66.479-65.344,50.743-1.604,101.754-.808,152.524-.613,23.081.088,48.969,2.73,71.595-.759,9.035-1.392,18.049-4.705,24.559-11.361,5.74-5.867,9.016-13.73,10.355-21.744,3.176-19.011,1.003-41.182.908-60.5l-.326-108.32c.021-18.004-.75-36.461.345-54.413,4.306,42.178-.332,91.225,1.187,134.539,43.283-13.381,86.742-25.696,131.291-34.205,213.731-40.827,440.864-15.063,634.36,87.154,220.967,116.732,380.172,300.021,453.541,540.18,6.295,20.604,28.113,98.14,25.078,116.536-13.226-7.446-28.072-12.071-43.308-12.37-30.389-.595-52.187,15.912-73.061,35.981-5.988-7.592-12.242-13.484-21.387-16.888-22.433-8.336-46.014,1.659-66.397,10.927,31.086-27.296,59.425-54.45,74.025-94.395,9.105-24.903,12.631-55.607.841-80.278-6.336-13.244-16.938-23.112-30.84-27.954-22.33-7.787-40.58-.027-60.676,9.602,8.12-9.052,14.887-19.251,20.034-30.267,18.393-38.317,25.058-85.936,10.724-126.527-11.586-32.839-36.295-63.517-68.242-78.319-24.914-11.546-52.822-11.798-78.495-2.36-33.957,12.485-54.791,37.937-69.555,69.862-.615-17.464,3.65-42.574-10.396-55.595-8.059-7.457-20.485-7.569-30.943-7.984-25.857-1.023-52.063-.203-77.962-.203l-150.076.072-375.759-.086-217.461-.408c-34.833-.051-70.633-1.741-105.365.599-12.978.876-23.922,5.123-32.372,15.401-4.329,5.264-7.175,11.142-8.092,17.895-1.858,13.695-.906,28.524-.835,42.336l.306,69.811.029,241.746c.096,42.911,3.07,89.949-.759,132.355-21.689,33.458-46.599,64.163-69.557,96.676-8.186,11.905-40.775,64.155-48.553,69.128-8.897-19.177-13.743-41.916-20.987-61.966-19.89-55.051-44.177-110.777-76.371-159.772-46.732-71.121-103.84-116.683-188.04-134.133.427-2.182.675-5.929,1.538-7.881,1.768-3.991,29.03-17.799,35.663-24.033,27.898-26.221,31.568-64.015,32.411-100.099,6.796.833,13.985,1.587,20.801.734,10.747-1.345,23.298-5.898,29.928-14.926,3.158-4.303,4.608-9.606,3.804-14.899-1.899-12.489-13.271-20.604-22.798-27.347,13.689-2.406,26.434-5.289,37.617-14.056,9.135-7.159,15.982-17.598,17.098-29.332.865-9.325-2.067-18.603-8.135-25.735-16.222-19.296-38.224-16.648-60.409-19.052-1.766-.191-.992-.4-2.192.178,3.219-4.661,6.223-9.286,8.081-14.679,2.534-7.358,4.074-16.681.232-23.81-3.859-7.163-12.387-10.568-19.862-12.559-36.576-9.753-77.542,4.504-109.132,22.651-3.654-2.611-7.534-4.891-11.592-6.813-15.201-7.046-32.573-7.781-48.313-2.041-16.087,5.806-31.017,17.29-38.136,33.153-12.992,28.943.154,66.7,13.759,92.999,5.781,11.175,13.872,22.848,17.928,34.642,1.581,4.598.437,6.604-1.694,10.564-6.094-5.164-13.087-10.03-21.537-9.224-4.745.453-8.69,2.58-11.713,6.259-4.519,5.504-5.799,13.094-4.751,20.001,1.415,9.306,7.232,18.262,14.988,23.551,3.88,2.645,8.522,4.748,12.845,6.54-11.623,31.541-25.95,64.805-29.778,98.46-1.499,1.739-1.731,2.067-3.999,2.846-32.649-.019-65.648-1.298-97.936,4.382,4.47-33.305,2.717-67.903-18.486-95.739-10.944-14.37-26.877-24.652-44.958-26.927-20.532-2.582-39.461,5.584-55.301,18.154-5.748,4.561-11.005,9.961-15.779,15.526,26.838-59.633,29.792-122.021,6.527-183.418-17.153-45.263-49.988-89.791-94.99-109.959-30.233-13.898-64.82-14.876-95.791-2.711-37.527,14.634-63.337,48.384-78.725,84.533-22.526,53.505-23.086,113.73-1.56,167.643,13.56,33.575,35.94,61.429,60.282,87.739-24.387-12.319-51.793-26.34-79.716-17.284-16.374,5.31-28.904,17.922-36.538,33.087-16.364,32.509-12.531,71.539-1.36,105.006,20.444,61.251,73.242,109.198,124.518,145.661-32.778-12.807-68.693-28.276-103.494-12.942-15.693,6.913-27.092,20.024-33.211,35.905-13.144,34.111-3.426,72.924,11.105,104.918,22.076,48.604,57.627,80.118,98.304,113.08-24.014-10.455-47.571-18.806-73.386-8.443-3.254,1.306-6.395,2.945-9.501,4.567Z" style="fill: #fef1e0;"/>
          <path d="M1265.256,310.874l-244.35-.172c-39.572.002-80.152,1.94-119.621.168-2.66-.121-4.232-.248-6.513-1.778l-.021-3.862c6.387-4.723,47.214-2.375,56.552-2.406l237.503-.068c38.306-.014,77.326-1.667,115.53-.062,4.683.197,8.852.638,13.115,2.75l.71,2.123-1.745,2.233c-12.555,3.968-37.121,1.198-51.161,1.073Z" style="fill: #fefefe;"/>
          <path d="M1319.231,425.015c-28.63,3.351-421.622-.398-422.073-.64-1.774-.954-2.184-5.17-2.69-7.096,25.181-2.537,419.338-.107,420.814.486,2.756,1.101,3.08,4.674,3.949,7.249Z" style="fill: #fefefe;"/>
          <path d="M612.248,1077.884c-67.982,12.735-129.49,67.233-167.536,122.754-2.401,3.505-4.747,7.049-7.031,10.631-49.41-82.015-72.762-186.5-91.506-279.56,12.006-32.735,25.646-64.846,40.865-96.216,6.232-12.875,25.72-40.56,25.98-52.978l-1.649-1.31c-14.434,7.342-60.061,116.745-67.373,137.48-6.568-38.448-11.94-77.604-13.897-116.603-.668-13.326.783-52.902-3.816-62.223l.057-.012.847,1.337-2.188.076c-6.4,16.218-3.068,36.752-2.038,53.833,5.655,85.94,19.874,171.101,42.444,254.215,11.223,40.07,25.919,79.843,42.434,118.018,7.275,16.818,15.106,34.98,26.153,49.692-23.551,34.478-44.573,70.619-62.897,108.14-42.139,87.384-104.834,258.81-87.749,353.284,1.864,10.196,4.497,20.237,7.878,30.036-18.197-8.146-35.831-17.879-53.265-27.53-22.361-14.126-46.268-27.971-63.893-48.048-13.899-15.832-25.456-37.544-23.806-59.21,1.137-14.938,8.762-27.774,19.923-37.408,3.106-1.622,6.247-3.261,9.501-4.567,25.815-10.363,49.372-2.012,73.386,8.443-40.677-32.962-76.228-64.477-98.304-113.08-14.531-31.994-24.249-70.807-11.105-104.918,6.119-15.881,17.518-28.992,33.211-35.905,34.8-15.334,70.716.135,103.494,12.942-51.276-36.463-104.074-84.41-124.518-145.661-11.171-33.467-15.004-72.497,1.36-105.006,7.634-15.165,20.164-27.778,36.538-33.087,27.923-9.056,55.329,4.965,79.716,17.284-24.342-26.309-46.722-54.163-60.282-87.739-21.526-53.913-20.965-114.138,1.56-167.643,15.387-36.149,41.198-69.899,78.725-84.533,30.972-12.165,65.558-11.187,95.791,2.711,45.001,20.167,77.837,64.696,94.99,109.959,23.266,61.396,20.311,123.785-6.527,183.418,4.774-5.566,10.031-10.965,15.779-15.526,15.84-12.569,34.769-20.735,55.301-18.154,18.082,2.274,34.014,12.557,44.958,26.927,21.203,27.835,22.956,62.434,18.486,95.739Z" style="fill: #7dbf3d;"/>
          <path d="M2270.725,801.538c14.764-31.924,35.598-57.377,69.555-69.862,25.673-9.438,53.581-9.185,78.495,2.36,31.948,14.803,56.657,45.48,68.242,78.319,14.333,40.591,7.669,88.21-10.724,126.527-5.147,11.017-11.914,21.215-20.034,30.267,20.095-9.628,38.345-17.389,60.676-9.602,13.903,4.842,24.504,14.71,30.84,27.954,11.791,24.671,8.264,55.375-.841,80.278-14.6,39.945-42.938,67.099-74.025,94.395,20.383-9.267,43.964-19.263,66.397-10.927,9.145,3.404,15.4,9.296,21.387,16.888,20.874-20.069,42.672-36.576,73.061-35.981,15.235.299,30.081,4.924,43.308,12.37,18.496,14.3,32.645,29.634,35.844,53.696,3.63,27.384-6.89,51.589-22.884,73.123-24.258,26.207-47.962,40.815-82.904,47.832,15.994,3.388,37.874,6.96,47.839,21.435,4.983,7.233,5.475,16.246,3.609,24.613-4.019,18.182-20.095,31.186-35.126,40.542-19.972,12.436-41.688,19.056-64.715,22.92-9.309,1.563-19.008,2.6-28.072,5.326,16.773,1.758,33.978,3.609,45.707,17.354,5.639,6.624,8.305,14.94,7.32,23.604-1.743,15.209-14.046,28.483-25.755,37.279-18.619,13.98-40.211,19.897-62.234,25.985-28.769.636-57.62.18-86.41.08-16.794-.059-35.085,1.341-51.633-1.251,51.161-32.48,94.079-71.909,120.224-127.721,15.071-32.208,28.216-62.723,52.74-89.258,16.63-17.991,127.175-110.219,129.082-120.908.062-.338.021-.689.021-1.036-1.599-.822-1.476-1.173-3.383-.601-7.608,2.293-37.525,34.763-48.086,42.642.615-10.961,1.374-21.679,3.425-32.476,1.558-8.144,4.224-16.62,4.921-24.837.246-2.799.718-4.471-1.005-6.825-13.841,16.833-13.329,49.797-13.267,70.815-31.23,29.117-67.709,54.45-93.033,89.254-16.404,22.546-26.555,48.066-38.612,72.983-29.774,61.503-71.134,94.149-127.729,129.183-23.93-1.116-48.352-.211-72.323-.281l.636-176.632c.062,2.779-.246,10.416,1.312,12.682,1.517,2.19,12.816,2.494,15.892,3.839,6.931,3.027,13.062,10.494,18.045,15.986-.841-16.892-.205-32.771,5.68-48.813,6.89-18.742,20.424-40.466,39.186-49.17,1.517-.984,3.978-2.038,4.675-3.757,2.604-6.31-.554-21.328-1.025-28.762-2.112-33.606-5.577-70.75,2.789-103.665,5.167-20.325,13.452-39.705,18.25-60.217,4.593-20.311,7.464-40.977,8.53-61.772,1.456-24.109,5.331-256.737,2.604-261.132l-2.276.281c-4.408,7.208-3.363,102.215-3.691,119.608-12.385-20.582-50.095-86.82-65.577-98.809,6.623,22.507,49.562,85.753,64.654,107.873.062,17.795-.164,35.589-.636,53.378l-2.461,10.744-2.071-.847c-18.988-27.037-65.515-60.904-96.642-71.322-2.953-.986-3.548-1.54-6.295-.211l-1.066,7.877c-1.066-34.488-.472-69.115-.41-103.622Z" style="fill: #7dbf3d;"/>
          <path d="M754.13,925.069c2.131-3.96,3.275-5.966,1.694-10.564-4.056-11.794-12.147-23.467-17.928-34.642-13.605-26.299-26.752-64.056-13.759-92.999,7.12-15.863,22.05-27.347,38.136-33.153,15.74-5.74,33.112-5.006,48.313,2.041,4.058,1.922,7.938,4.202,11.592,6.813,31.591-18.147,72.557-32.404,109.132-22.651,7.474,1.991,16.002,5.396,19.862,12.559,3.843,7.128,2.303,16.451-.232,23.81-1.858,5.394-4.862,10.018-8.081,14.679,1.2-.578.427-.369,2.192-.178,22.185,2.404,44.187-.244,60.409,19.052,6.068,7.133,9,16.41,8.135,25.735-1.116,11.735-7.962,22.173-17.098,29.332-11.184,8.767-23.928,11.65-37.617,14.056,9.527,6.743,20.899,14.858,22.798,27.347.804,5.293-.646,10.596-3.804,14.899-6.629,9.028-19.181,13.58-29.928,14.926-6.816.853-14.005.098-20.801-.734-.843,36.083-4.513,73.877-32.411,100.099-6.634,6.234-33.896,20.042-35.663,24.033-.863,1.952-1.111,5.699-1.538,7.881-1.583,5.984-2.576,14.257-7.005,18.797-28.927-21.79-53.827-46.885-64.58-82.493,21.229,18.069,29.333,40.355,61.324,43.526,13.142,1.304,25.437-2.424,35.659-10.781,31.767-25.971,35.204-65.034,38.983-102.906-48.12-17.387-77.687-41.381-109.079-81.553-4.987,14.435-8.674,30.069-15.843,43.583-9.617,18.129-23.688,24.173-42.348,29.956l-.515-.47Z" style="fill: #5b2448;"/>
          <path d="M1261.04,1257.477c3.828-42.406.855-89.445.759-132.355l-.029-241.746-.306-69.811c-.072-13.812-1.023-28.641.835-42.336.917-6.753,3.763-12.631,8.092-17.895,8.45-10.278,19.394-14.526,32.372-15.401,34.732-2.34,70.533-.65,105.365-.599l217.461.408,375.759.086,150.076-.072c25.898,0,52.105-.82,77.962.203,10.458.414,22.884.527,30.943,7.984,14.046,13.02,9.781,38.13,10.396,55.595-.062,34.506-.656,69.134.41,103.622-.287,25.024-.369,50.047-.205,75.071.041,13.781.861,28.061-.082,41.776-2.604,39.84-.431,81.266-.451,121.244,0,28.412-2.44,71.433,1.23,98.446-3.424,11.929-.677,100.476-.369,119.671l-.636,176.632-.184,56.323-.041,12.085c.021,34.617,2.051,70.688-2.153,105.039,39.412,5.098,80.894,22.608,105.972,54.717,6.07,7.768,9.474,15.001,11.77,24.544-1.661,5.931-2.932,12.292-5.987,17.661-67.443,1.756-135.275.275-202.758.371l-415.745.232-367.862-.213c-69.208.049-138.943,1.881-208.092-.154-7.306-7.943-11.397-15.854-10.71-26.927,1.132-18.238,17.026-35.095,30.174-46.2,16.409-13.859,34.775-23.758,56.655-22.034,10.673,2.25,26.774-.267,37.98-.564-.029-6.413-1.897-23.153,1.413-28.133l.027,26.9,934.13.244c1.23-196.573,1.312-393.153.226-589.728.615-69.702.8-139.408.574-209.114-.102-33.768,1.415-68.459-1.046-102.096-2.091-3.527-4.491-7.133-7.361-10.073-4.921-5.008-10.929-5.859-17.573-6.261-16.938-1.019-34.224-.154-51.182-.072l-85.221-.006c-96.374-.488-192.748-.306-289.117.545-156.861,1.462-313.802-2.075-470.636-.377-3.246,1.979-6.24,4.163-8.916,6.884-3.117,3.17-4.232,6.409-4.647,10.779-1.062,11.199-.264,23.125-.289,34.398l-.109,67.506.059,220.155c-4.234,11.659-8.167,23.125-10.056,35.438-1.612,10.523-1.433,21.254-2.852,31.797-2.67,19.847-13.431,40.489-26.024,55.812ZM1765.262,752.493c-9.014,2.404-14.401,11.632-12.061,20.668,2.338,9.034,11.528,14.487,20.575,12.208,9.135-2.301,14.651-11.601,12.289-20.725-2.362-9.122-11.698-14.575-20.803-12.151Z" style="fill: #6a74ef;"/>
          <path d="M346.175,931.709c18.744,93.06,42.096,197.545,91.506,279.56l-3.685,5.748c-11.046-14.712-18.877-32.874-26.153-49.692-16.515-38.175-31.211-77.948-42.434-118.018-22.57-83.114-36.789-168.275-42.444-254.215-1.029-17.081-4.362-37.615,2.038-53.833l2.188-.076-.847-1.337-.057.012c4.599,9.321,3.148,48.897,3.816,62.223,1.956,39,7.329,78.155,13.897,116.603,7.312-20.735,52.939-130.138,67.373-137.48l1.649,1.31c-.26,12.417-19.749,40.103-25.98,52.978-15.219,31.371-28.859,63.482-40.865,96.216Z" style="fill: #462023;"/>
          <path d="M1773.776,785.369c-9.047,2.278-18.238-3.175-20.575-12.208-2.34-9.036,3.047-18.264,12.061-20.668,9.104-2.424,18.441,3.029,20.803,12.151,2.362,9.124-3.154,18.424-12.289,20.725Z" style="fill: #fefefe;"/>
          <path d="M2379.671,958.919c.472-17.788.697-35.583.636-53.378-15.092-22.12-58.03-85.366-64.654-107.873,15.482,11.989,53.191,78.227,65.577,98.809.328-17.393-.718-112.399,3.691-119.608l2.276-.281c2.727,4.395-1.148,237.023-2.604,261.132-1.066,20.795-3.937,41.461-8.53,61.772-4.798,20.512-13.083,39.892-18.25,60.217-8.366,32.915-4.901,70.059-2.789,103.665.472,7.434,3.63,22.452,1.025,28.762-.697,1.719-3.158,2.773-4.675,3.757-5.106-31.824-6.5-107.832,1.333-138.639,6.644-26.182,17.327-50.129,21.859-77.134,6.828-40.712,5.639-80.145,5.106-121.201Z" style="fill: #462023;"/>
          <path d="M1414.237,946.827c-19.169-2.395-49.23-13.076-65.587-.345-4.427,3.447-7.888,7.945-9.74,13.262-6.605,18.962-7.87,42.755-11.046,62.698-5.998,37.659-12.918,75.372-17.702,113.197l-10.189-1.21-.059-220.155.109-67.506c.025-11.273-.773-23.198.289-34.398.414-4.37,1.53-7.608,4.647-10.779,2.676-2.721,5.67-4.905,8.916-6.884,156.834-1.698,313.775,1.839,470.636.377,96.37-.851,192.743-1.034,289.117-.545l85.221.006c16.958-.082,34.244-.947,51.182.072,6.644.402,12.652,1.253,17.573,6.261,2.871,2.941,5.27,6.546,7.361,10.073,2.461,33.637.943,68.328,1.046,102.096.226,69.706.041,139.412-.574,209.114,1.087,196.575,1.005,393.155-.226,589.728l-934.13-.244-.027-26.9c.507-29.468.23-58.982.271-88.454,6.611-14.323,32.235-51.241,42.465-65.141-.025,21.492-3.168,126.139,3.193,139.295,5.842,2.633,12.172,2.896,18.5,3.091,28.023.863,56.314.061,84.356.027l154.253-.053,130.009-.004c22.474-.004,45.301.88,67.73-.228,6.045-.297,11.949-1.046,17.627-3.218,1.632-.625,2.141-1.6,2.813-3.261,3.837-9.489,1.21-76.531,1.109-92.439,2.436-60.67-.197-122.157-.006-182.932l.32-72.905c.059-14.091,1.277-29.373-.939-43.249-3.02-2.947-5.044-4.143-9.264-4.741-21.684-3.078-50.749-.584-73.084-.545-46.804.055-93.608-.17-140.407-.677-20.565-.256-41.132-.32-61.697-.193,4.727-10.965,14.721-22.261,13.048-35.009-1.187-9.038-7.372-15.083-14.245-20.258l8.436-14.55c11.5-.336,48.278,3.292,56.101-3.585,4.688-10.783,5.994-65.789,2.077-75.385-.757-1.854-1.083-2.092-3.004-2.881-9.449-3.884-39.406-4.362-48.569-.113-5.614,7.66-3.882,21.142-3.839,30.321-4.794-2.001-9.998-3.376-14.948-4.975.925-13.529,4.241-27.353,6.568-40.735l12.51-71.595c2.114-11.995,5.842-25.567,5.709-37.667-.055-5.203-1.12-10.075-4.228-14.341-4.056-5.564-10.421-8.646-16.817-10.693-14.163-4.534-30.756-5.703-45.532-8.018-25.831-3.931-51.608-8.201-77.328-12.809ZM1849.366,1632.458c-.103,4.953-.174,9.907-.215,14.86-.057,8.535-.265,17.341,6.15,23.84,4.493,2.108,9.076,2.221,13.966,2.414,44.844,1.774,90.431-.045,135.345-.1,28.837-.035,181.365,2.805,196.703-2.67,1.62-6.827,2.112-14.007,2.317-21.006.964-32.851,1.661-368.447-1.784-375.586-.943-1.961-2.994-3.074-5.065-3.574-12.303-2.945-78.864-.71-95.72-.73l-148.804-.141c-26.216-.029-52.826-.976-79.008.178-7.509.332-16.087.892-22.81,4.483-5.094,14.39-1.786,161.526-1.792,191.82-1.044,33.731-.412,67.62-.361,101.37.031,21.072-1.415,43.971,1.079,64.844ZM1360.822,812.202c-7.454,2.514-12.065,5.541-15.644,12.789-3.15,6.378-4.302,14.538-1.659,21.287,2.317,5.914,6.882,10.086,12.806,12.266,16.97,6.245,176.444,2.834,205.281,2.82l423.89.431c64.781.185,130.126-1.854,194.821.338,4.962.107,10.888.95,14.784-2.719,5.126-4.809,5.988-14.255,5.865-20.934-.143-7.494-.738-16.905-4.019-23.734-24.135-6.027-71.872-2.721-98.037-2.715l-174.709.014-375.16-.476c-62.507.006-125.797-1.696-188.218.634ZM2013.607,908.305c-26.239,3.41-52.145,10.43-73.201,27.226,26.12,40.103,56.154,79.474,86.671,116.312l13.577-14.899c28.4-30.84,58.543-60.016,87.046-90.776-31.825-25.754-71.359-43.163-113.203-38.003-.297.035-.595.092-.89.14ZM1930.108,941.606c-36.047,40.122-56.411,71.945-53.105,128.631,2.331,39.988,20.526,74.605,50.327,100.985,30.648,26.984,70.881,40.46,111.593,37.376,24.717-1.756,46.33-9.745,67.676-22.021,36.582-23.565,59.507-58.685,68.776-101.2,1.374-6.277,2.215-12.528,2.83-18.918l-153.182-.068c-24.937-27.745-46.41-60.008-68.439-90.181-7.683-10.523-16.454-26.629-26.475-34.603ZM2134.158,953.736c-32.296,34.654-64.962,68.96-97.984,102.908l46.494-.109,95.351.098c-1.887-30.835-15.769-81.898-41.749-101.907-.8-.617-1.251-.708-2.112-.991ZM1767.811,970.018c-10.362-.162-29.727-2.898-37.16,5.115-.857.923-2.061,2.652-2.495,3.786-.558,1.454-1.271,197.865.293,212.428.195,1.817,1.536,3.107,2.584,4.579,5.838,3.131,12.039,2.658,18.5,2.514,11.313.178,30.188,2.824,40.193-2.76,3.586-11.384,4.546-200.197,2.022-219.07-2.055-3.175-3.845-5.463-7.667-6.417-5.124-1.28-11.036-.55-16.269-.174ZM1643.47,1039.506c-2.887,1.844-6.402,3.732-7.025,7.405-2.744,16.15-.615,36.028-.595,52.508.029,26.459-1.302,53.788.41,80.157.349,5.379,1.031,10.537,3.082,15.565,8.633,7.762,41.433,3.605,52.785,3.273,3.209-2.574,6.392-4.719,6.896-9.054,2.005-17.181,1.792-134.542-1.817-146.407-11.495-7.844-40.125-3.814-53.737-3.447Z" style="fill: #fefefe;"/>
          <path d="M2180.316,862.132c-64.695-2.192-130.04-.154-194.821-.338l-423.89-.431c-28.837.014-188.31,3.425-205.281-2.82-5.924-2.18-10.489-6.351-12.806-12.266-2.643-6.749-1.491-14.909,1.659-21.287,3.578-7.247,8.19-10.274,15.644-12.789,62.421-2.33,125.711-.628,188.218-.634l375.16.476,174.709-.014c26.165-.006,73.902-3.312,98.037,2.715,3.281,6.829,3.876,16.24,4.019,23.734.123,6.679-.738,16.125-5.865,20.934-3.896,3.669-9.822,2.826-14.784,2.719ZM1376.031,814.597c-11.161.01-18.098-.394-26.304,8.322-3.582,3.804-6.307,8.921-6.207,14.265.117,6.261,3.759,11.312,8.321,15.246,6.714,5.789,18.26,5.701,26.893,5.919,64.801,1.634,130.025.055,194.862.023l332.804.466,190.644.08c26.944.031,65.823,2.352,91.27-.221,2.604-.265,5.167-1.101,6.746-3.322,3.876-5.496,2.891-28.088.923-34.541-.451-1.454-1.128-2.533-1.969-3.798-13.923-4.707-141.098-2.092-164.663-2.096l-394.917-.353c-16.398-3.214-240.81-2.902-258.402.012Z" style="fill: #8163bf;"/>
          <path d="M1376.031,814.597c17.592-2.914,242.004-3.226,258.402-.012-32.694,2.344-67.072.281-99.919.301-52.752.033-105.757,1.159-158.483-.289Z" style="fill: #a993ca;"/>
          <path d="M1634.433,814.585l394.917.353c23.565.004,150.74-2.611,164.663,2.096.841,1.265,1.517,2.344,1.969,3.798,1.968,6.454,2.953,29.045-.923,34.541-1.579,2.221-4.142,3.058-6.746,3.322-25.447,2.574-64.326.252-91.27.221l-190.644-.08-332.804-.466c-64.836.033-130.06,1.612-194.862-.023-8.633-.217-20.179-.129-26.893-5.919-4.562-3.933-8.204-8.984-8.321-15.246-.1-5.344,2.625-10.461,6.207-14.265,8.206-8.716,15.143-8.312,26.304-8.322,52.726,1.448,105.73.322,158.483.289,32.848-.021,67.225,2.043,99.919-.301Z" style="fill: #fefefe;"/>
          <path d="M754.645,925.538c18.66-5.783,32.731-11.827,42.348-29.956,7.169-13.515,10.856-29.148,15.843-43.583,31.392,40.173,60.959,64.167,109.079,81.553-3.779,37.872-7.216,76.935-38.983,102.906-10.222,8.357-22.517,12.085-35.659,10.781-31.991-3.17-40.094-25.456-61.324-43.526,10.753,35.608,35.653,60.703,64.58,82.493l-.068.591c-14.879,29.89-28.273,60.135-55.266,81.328-32.329-23.426-62.903-58.861-74.999-97.613,6.962-36.239,20.194-70.327,33.155-104.727-7.306-.843-13.663-2.219-19.56-7.01-6.178-5.018-10.398-12.393-11.011-20.383-.361-4.717.765-10.338,4.261-13.769,1.991-1.952,4.889-2.996,7.667-2.832,13.29.783,11.727,13.759,18.295,21.258,2.932.281,3.066.361,5.541-1.2.822-5.348-2.157-11.285-3.898-16.312ZM834.907,909.686c-4.786.373-9.033.226-13.007,3.236l-.966,2.319c2.024,2.131,3.09,3.091,6.141,3.23,3.027.139,6.488-.543,9.502-.904,5.647-.049,9.164.566,14.155-2.203l.621-2.715c-2.258-2.533-4.165-3.482-7.53-3.638-2.893-.135-6.041.367-8.918.675ZM831.622,931.496c-2.817,4.106-5.196,8.019-4.524,13.215.379,2.931,1.841,4.514,3.828,6.558,1.854.701,3.742,1.557,5.649,2.08,2.731-4.432,5.26-9.261,3.869-14.634-.648-2.514-2.233-3.911-4.062-5.633l-4.761-1.585ZM868.465,933.124c-6.597,10.051,2.91,23.805,1.63,34.947-.962,8.365-11.145,6.638-13.646,12.635,1.454,2.775,2.498,4.102,4.93,6.07,6.061-3.129,11.223-6.318,13.495-13.223,3.9-11.864.646-27.245-3.603-38.7l-2.805-1.729ZM894.164,937.064c-2.219,4.259-4.827,8.962-3.369,13.904.884,2.996,2.018,3.728,4.302,5.668l5.53.74c2.446-4.266,5.647-9.386,4.22-14.519-.632-2.268-2.051-3.123-3.697-4.702-2.34-.443-4.608-.902-6.986-1.091ZM827.741,987.888c-1.688,4.762-.191,10.147,2.046,14.581,3.355,6.657,10.925,10.486,17.85,12.323,9.252,2.455,19.24,2.438,27.617-2.705,2.133-1.31,4.042-2.9,5.901-4.565l.441-3.341-1.784-1.922c-11.895,2.781-19.981,12.988-32.768,5.582-8.208-4.752-11.69-17.212-19.304-19.954Z" style="fill: #fb858d;"/>
          <path d="M2271.135,905.16l1.066-7.877c2.748-1.329,3.342-.775,6.295.211,31.127,10.418,77.654,44.285,96.642,71.322l2.071.847,2.461-10.744c.533,41.057,1.722,80.489-5.106,121.201-4.532,27.005-15.215,50.952-21.859,77.134-7.833,30.807-6.439,106.815-1.333,138.639-18.762,8.704-32.296,30.427-39.186,49.17-5.885,16.041-6.521,31.92-5.68,48.813-4.983-5.492-11.114-12.959-18.045-15.986-3.076-1.345-14.374-1.649-15.892-3.839-1.558-2.266-1.251-9.903-1.312-12.682-.308-19.195-3.055-107.742.369-119.671,9.105-14.562,16.589-29.014,20.895-45.796,10.458-40.743.082-71.548-20.649-106.409-.123-22.456.308-45.066-1.025-67.485.943-13.716.123-27.995.082-41.776-.164-25.024-.082-50.047.205-75.071Z" style="fill: #66b931;"/>
          <path d="M1940.406,935.532c21.055-16.796,46.962-23.816,73.201-27.226.295-.047.593-.105.89-.14,41.844-5.16,81.378,12.249,113.203,38.003-28.503,30.76-58.646,59.936-87.046,90.776l-13.577,14.899c-30.516-36.838-60.551-76.209-86.671-116.312Z" style="fill: #6a74ef;"/>
          <path d="M836.579,917.567c-3.014.361-6.476,1.044-9.502.904-3.051-.14-4.117-1.099-6.141-3.23l.966-2.319c3.974-3.011,8.221-2.863,13.007-3.236,2.877-.308,6.024-.81,8.918-.675,3.365.156,5.272,1.105,7.53,3.638l-.621,2.715c-4.991,2.769-8.508,2.153-14.155,2.203Z" style="fill: #5b2448;"/>
          <path d="M743.961,972.195c-4.323-1.792-8.965-3.894-12.845-6.54-7.755-5.289-13.573-14.245-14.988-23.551-1.048-6.907.232-14.497,4.751-20.001,3.023-3.679,6.968-5.806,11.713-6.259,8.45-.806,15.443,4.061,21.537,9.224l.515.47c1.741,5.026,4.72,10.963,3.898,16.312-2.475,1.561-2.608,1.481-5.541,1.2-6.568-7.5-5.005-20.475-18.295-21.258-2.778-.164-5.676.88-7.667,2.832-3.496,3.431-4.622,9.052-4.261,13.769.613,7.99,4.833,15.364,11.011,20.383,5.897,4.791,12.254,6.167,19.56,7.01-12.961,34.4-26.194,68.488-33.155,104.727l-6.012.144c3.828-33.655,18.156-66.919,29.778-98.46Z" style="fill: #5b2448;"/>
          <path d="M836.577,953.349c-1.907-.523-3.796-1.378-5.649-2.08-1.987-2.045-3.449-3.628-3.828-6.558-.673-5.197,1.706-9.11,4.524-13.215l4.761,1.585c1.829,1.723,3.414,3.119,4.062,5.633,1.39,5.373-1.138,10.203-3.869,14.634Z" style="fill: #421158;"/>
          <path d="M861.378,986.776c-2.432-1.969-3.476-3.296-4.93-6.07,2.502-5.997,12.685-4.27,13.646-12.635,1.28-11.142-8.227-24.896-1.63-34.947l2.805,1.729c4.249,11.456,7.503,26.837,3.603,38.7-2.272,6.905-7.433,10.094-13.495,13.223Z" style="fill: #5b2448;"/>
          <path d="M900.627,957.377l-5.53-.74c-2.284-1.94-3.418-2.672-4.302-5.668-1.458-4.942,1.15-9.645,3.369-13.904,2.379.189,4.647.648,6.986,1.091,1.647,1.579,3.066,2.434,3.697,4.702,1.427,5.133-1.774,10.254-4.22,14.519Z" style="fill: #421158;"/>
          <path d="M1310.161,1135.641c4.784-37.825,11.705-75.538,17.702-113.197,3.176-19.944,4.442-43.737,11.046-62.698,1.852-5.318,5.313-9.815,9.74-13.262,16.357-12.731,46.418-2.051,65.587.345,25.72,4.608,51.498,8.878,77.328,12.809,14.776,2.315,31.369,3.484,45.532,8.018,6.396,2.047,12.76,5.129,16.817,10.693,3.109,4.266,4.173,9.138,4.228,14.341.133,12.1-3.595,25.672-5.709,37.667l-12.51,71.595c-2.327,13.381-5.643,27.206-6.568,40.735-6.135,33.707-10.532,67.7-17.073,101.321-1.364-4.782-2.389-9.604-3.429-14.462l5.66-31.888c6.012-27.495,9.168-56.177,14.005-83.99,6.541-37.626,15.432-76.508,18.525-114.474.527-6.458.564-12.78-1.56-18.974-11.108-11.884-41.066-12.479-56.903-14.733-.65,6.361-1.191,12.2-5.709,17.034-9.066,3.376-59.776-6.175-70.541-9.792-2.653-.892-4.38-1.315-5.573-4.013-2.389-5.398.092-10.843,2.139-15.896-17.969-3.203-45.826-12.742-62.183-1.694-4.589,3.097-6.927,13.119-8.153,18.309-6.904,29.209-10.335,60.379-14.953,90.058-9.131,61.802-19.019,123.49-29.661,185.048-4.599,27.294-7.944,55.586-14.206,82.501l-4.936-4.104c11.994-61.849,22.337-124.948,31.357-187.296Z" style="fill: #421158;"/>
          <path d="M2106.599,1186.576c-21.346,12.276-42.959,20.266-67.676,22.021-40.712,3.084-80.945-10.391-111.593-37.376-29.801-26.379-47.995-60.996-50.327-100.985-3.305-56.686,17.058-88.51,53.105-128.631,10.021,7.973,18.791,24.08,26.475,34.603,22.029,30.173,43.502,62.436,68.439,90.181l153.182.068c-.615,6.39-1.456,12.641-2.83,18.918-9.269,42.515-32.194,77.634-68.776,101.2Z" style="fill: #fdb053;"/>
          <path d="M1283.74,1327.04c6.262-26.914,9.607-55.207,14.206-82.501,10.642-61.558,20.53-123.246,29.661-185.048,4.618-29.679,8.048-60.849,14.953-90.058,1.226-5.19,3.564-15.213,8.153-18.309,16.357-11.048,44.214-1.509,62.183,1.694-2.046,5.053-4.528,10.498-2.139,15.896,1.193,2.699,2.92,3.121,5.573,4.013,10.765,3.618,61.475,13.168,70.541,9.792,4.517-4.834,5.059-10.672,5.709-17.034,15.836,2.254,45.795,2.849,56.903,14.733,2.124,6.193,2.087,12.516,1.56,18.974-3.092,37.966-11.983,76.849-18.525,114.474-4.837,27.813-7.993,56.495-14.005,83.99-6.508-.221-10.739-.01-15.642,4.78-7.171,7.005-9.344,18.402-9.119,28.108.281,11.952,3.962,19.938,12.681,27.946.66.607,1.335,1.2,2.022,1.776-3.703,20.594-14.979,107.02-23.583,119.035-7.146.851-14.087.562-21.217-.369-40.496-5.285-80.827-14.784-121.056-21.997-18.088-3.242-40.418-3.575-57.282-10.08-2.366-2.725-3.375-3.952-3.275-7.67.109-4.05,1.628-8.144,1.698-12.147ZM1366.912,1060.896c-9.793,11.429-14.479,58.086-17.413,74.704,22.273,2.826,44.472,6.193,66.579,10.098.787-.562,1.854-.863,2.36-1.686,3.814-6.208,10.798-53.109,12.517-63.269.492-3.029.923-6.07,1.294-9.118l-65.337-10.73ZM1444.308,1073.108c-5.26,24.749-10.292,49.545-15.092,74.386,22.329,3.187,44.405,7.28,66.579,11.353,4.542-11.312,15.334-58.291,11.372-68.359-1.384-3.519-4.179-6.021-7.63-7.455-13.21-5.494-38.917-5.178-55.23-9.926ZM1347.225,1149.465c-3.609,21.716-7.63,43.36-12.061,64.922,22.501,3.392,45.258,7.582,67.908,9.675l12.777-64.054c-22.708-4.528-45.604-8.045-68.624-10.543ZM1427.787,1160.287l-12.914,66.661c21.592,3.322,44.571,8.615,66.376,9.222,4.132-21.589,9.646-43.388,12.953-65.071-22.07-3.513-44.521-6.407-66.415-10.812ZM1333.794,1228.447c-2.036,12.048-13.618,55.958-6.958,64.692,6.939,9.103,50.403,12.063,63.649,14.396,3.447-23.114,6.888-46.3,11.122-69.284-22.374-4.795-44.934-8.597-67.814-9.805ZM1414.2,1238.567c-4.296,23.541-8.366,47.125-12.211,70.744,20.422,3.002,46.468,11.144,66.719,7.895,8.456-14.105,10.484-47.998,13.612-65.266-21.272-8.226-45.822-8.792-68.119-13.373Z" style="fill: #fefefe;"/>
          <path d="M2036.175,1056.645c33.022-33.949,65.687-68.254,97.984-102.908.861.283,1.312.373,2.112.991,25.98,20.009,39.863,71.072,41.749,101.907l-95.351-.098-46.494.109Z" style="fill: #f84f46;"/>
          <path d="M1749.533,1198.44c-6.461.144-12.662.617-18.5-2.514-1.048-1.472-2.389-2.762-2.584-4.579-1.565-14.562-.851-210.974-.293-212.428.435-1.134,1.638-2.863,2.495-3.786,7.433-8.012,26.799-5.277,37.16-5.115,5.233-.375,11.145-1.105,16.269.174,3.822.954,5.612,3.242,7.667,6.417,2.524,18.873,1.565,207.687-2.022,219.07-10.005,5.584-28.88,2.939-40.193,2.76Z" style="fill: #fef1e0;"/>
          <path d="M881.155,1007.522c-1.86,1.665-3.769,3.255-5.901,4.565-8.376,5.143-18.365,5.16-27.617,2.705-6.925-1.837-14.495-5.666-17.85-12.323-2.237-4.434-3.734-9.819-2.046-14.581,7.614,2.742,11.095,15.202,19.304,19.954,12.787,7.405,20.873-2.801,32.768-5.582l1.784,1.922-.441,3.341Z" style="fill: #5b2448;"/>
          <path d="M2270.848,1022.007c1.333,22.419.902,45.029,1.025,67.485,20.731,34.861,31.107,65.666,20.649,106.409-4.306,16.782-11.791,31.233-20.895,45.796-3.67-27.013-1.23-70.034-1.23-98.446.021-39.978-2.153-81.404.451-121.244Z" style="fill: #8163bf;"/>
          <path d="M1692.128,1198.415c-11.352.332-44.152,4.489-52.785-3.273-2.051-5.028-2.733-10.186-3.082-15.565-1.712-26.369-.381-53.698-.41-80.157-.021-16.48-2.149-36.358.595-52.508.623-3.673,4.138-5.562,7.025-7.405,13.612-.367,42.241-4.397,53.737,3.447,3.609,11.866,3.822,129.226,1.817,146.407-.504,4.335-3.687,6.48-6.896,9.054Z" style="fill: #6a74ef;"/>
          <path d="M1349.499,1135.6c2.934-16.617,7.62-63.275,17.413-74.704l65.337,10.73c-.371,3.048-.802,6.089-1.294,9.118-1.718,10.16-8.703,57.061-12.517,63.269-.507.822-1.573,1.124-2.36,1.686-22.107-3.905-44.306-7.272-66.579-10.098Z" style="fill: #f84f46;"/>
          <path d="M857.533,1067.409c84.2,17.45,141.307,63.012,188.04,134.133,32.194,48.995,56.48,104.721,76.371,159.772,7.245,20.051,12.09,42.79,20.987,61.966l-4.284.658c-1.882,7.955,6.962,26.434,9.937,34.568l3.344-2.055c1.526-9.436-5.914-24.074-8.998-33.171,7.778-4.973,40.367-57.223,48.553-69.128,23.641,17.44,48.452,33.141,72.532,49.951,37.279,26.352,74.203,53.205,110.76,80.553-9.531,13.855-20.073,27.735-28.107,42.5l-2.881,3.995c-10.23,13.9-35.854,50.818-42.465,65.141-13.189,19.753-27.104,39.367-39.535,59.583l-1.146,1.323c-9.724,11.37-16.929,24.587-26.11,36.356-26.116,33.479-65.372,61.107-108.529,64.842-21.389,1.852-37.8-2.988-57.942-9.034-8.692-10.02-21.094-29.099-33.34-33.815,2.674-42.71-19.246-365.701-34.812-390.536l-2.137-.449c-2.984,6.688,8.61,75.399,10.238,88.686,7.183,58.718,12.455,117.657,15.806,176.72,2.104,37.406,2.461,75.157,5.344,112.477-.283,1.979-.679,2.754-1.964,4.28-7.644-2.639-13.126-9.372-20.811-12.571-.392-.162-.792-.312-1.187-.468-.299-.449-.537-.945-.896-1.347-5.943-6.624-18.229-12.563-25.898-17.274-13.232-8.129-26.85-16.25-41.499-21.556-36.818-13.332-82.207-11.156-120.989-11.507-.958-13-.359-26.088-.088-39.108l-100.35.931-.197,205.035c-97.087.554-194.179.412-291.264-.424-5.524-3.786-33.75-8.006-43.554-11.728-46.433-17.631-69.434-44.094-89.234-88.231-3.381-9.799-6.014-19.839-7.878-30.036-17.085-94.473,45.61-265.9,87.749-353.284,18.324-37.521,39.346-73.662,62.897-108.14l3.685-5.748c2.284-3.583,4.63-7.126,7.031-10.631,38.046-55.521,99.554-110.018,167.536-122.754,32.288-5.681,65.287-4.401,97.936-4.382-6.184,16.203-12.869,32.511-17.526,49.225,12.603,31.98,23.573,64.714,35.216,97.061,20.001-8.404,48.475-33.59,65.275-48.208,23.651,16.576,48.204,32.788,70.328,51.393,8.399-36.531,9.644-74.747,16.005-111.677-8.04-7.758-18.529-20.594-29.021-24.499l.068-.591c4.429-4.541,5.422-12.813,7.005-18.797ZM552.848,1598.091c14.903-39.949,77.289-251.842,69.335-280.803l-2.009-.607c-5.555,4.709-8.295,41.475-10.251,51.003-10.446,50.843-24.438,101.151-38.768,151.015-7.579,26.369-14.337,54.733-25.761,79.712-6.72-.222-13.019-.993-19.084,2.422l-1.28,1.979c2.276,2.344,3.48,2.295,6.832,2.287,1.128-.002,1.384-.064,2.37-.201,17.721,1.03,173.565,1.624,179.852-.677l.962-2.41-1.304-2.703c-14.842-2.707-33.537-.82-48.797-.81-37.324.027-74.794.792-112.097-.207Z" style="fill: #f84f46;"/>
          <path d="M714.183,1070.656l6.012-.144c12.096,38.752,42.67,74.187,74.999,97.613,26.993-21.193,40.388-51.438,55.266-81.328,10.493,3.905,20.981,16.741,29.021,24.499-6.361,36.93-7.606,75.147-16.005,111.677-22.123-18.605-46.677-34.816-70.328-51.393-16.8,14.618-45.274,39.804-65.275,48.208-11.643-32.347-22.613-65.081-35.216-97.061,4.657-16.714,11.342-33.022,17.526-49.225,2.268-.779,2.5-1.108,3.999-2.846Z" style="fill: #fdb053;"/>
          <path d="M1429.216,1147.494c4.8-24.841,9.832-49.637,15.092-74.386,16.312,4.748,42.02,4.432,55.23,9.926,3.451,1.434,6.246,3.935,7.63,7.455,3.962,10.067-6.83,57.047-11.372,68.359-22.175-4.073-44.251-8.166-66.579-11.353Z" style="fill: #f84f46;"/>
          <path d="M1548.304,1147.66c-.043-9.179-1.776-22.661,3.839-30.321,9.164-4.249,39.12-3.771,48.569.113,1.921.79,2.247,1.028,3.004,2.881,3.917,9.596,2.61,64.602-2.077,75.385-7.823,6.876-44.601,3.248-56.101,3.585,4.07-7.75,8.856-16.066,10.279-24.829,1.776-10.941-1.55-18.084-7.513-26.814Z" style="fill: #6a74ef;"/>
          <path d="M1299.972,1134.431l10.189,1.21c-9.02,62.348-19.363,125.446-31.357,187.296-3.08,15.533-7.944,31.494.869,46.147,4.903,8.154,22.593,11.357,31.156,13.049,40.416,7.76,80.966,14.807,121.631,21.137-10.714,4.255-48.446,67.2-57.684,81.387-36.557-27.347-73.481-54.2-110.76-80.553-24.08-16.81-48.891-32.511-72.532-49.951,22.958-32.513,47.868-63.217,69.557-96.676,12.593-15.323,23.354-35.965,26.024-55.812,1.419-10.543,1.241-21.275,2.852-31.797,1.889-12.313,5.821-23.779,10.056-35.438Z" style="fill: #fdb053;"/>
          <path d="M1533.355,1142.685c4.95,1.6,10.154,2.974,14.948,4.975,5.963,8.73,9.289,15.873,7.513,26.814-1.423,8.763-6.209,17.079-10.279,24.829l-8.436,14.55c6.873,5.174,13.058,11.22,14.245,20.258,1.673,12.748-8.321,24.043-13.048,35.009l-2.582,3.642c-6.873,7.651-17.793,18.902-27.951,21.705,2.463-16.861,5.684-33.653,8.516-50.461,6.541-33.621,10.938-67.614,17.073-101.321Z" style="fill: #fb858d;"/>
          <path d="M1335.164,1214.386c4.431-21.562,8.452-43.206,12.061-64.922,23.02,2.498,45.916,6.015,68.624,10.543l-12.777,64.054c-22.65-2.094-45.407-6.284-67.908-9.675Z" style="fill: #6a74ef;"/>
          <path d="M1414.873,1226.947l12.914-66.661c21.894,4.405,44.345,7.299,66.415,10.812-3.307,21.683-8.821,43.483-12.953,65.071-21.805-.607-44.784-5.9-66.376-9.222Z" style="fill: #fef1e0;"/>
          <path d="M2357.648,1537.064c-5.003.804-9.617,1.413-14.703,1.216,56.595-35.033,97.955-67.68,127.729-129.183,12.057-24.917,22.207-50.437,38.612-72.983,25.324-34.804,61.804-60.137,93.033-89.254-.061-21.018-.574-53.983,13.267-70.815,1.722,2.354,1.251,4.026,1.005,6.825-.697,8.218-3.363,16.693-4.921,24.837-2.051,10.797-2.809,21.515-3.425,32.476,10.56-7.879,40.478-40.349,48.086-42.642,1.907-.572,1.784-.221,3.383.601,0,.347.041.697-.021,1.036-1.907,10.689-112.452,102.916-129.082,120.908-24.524,26.535-37.669,57.051-52.74,89.258-26.145,55.812-69.063,95.24-120.224,127.721Z" style="fill: #462023;"/>
          <path d="M1508.456,1260.267c-.687-.576-1.362-1.169-2.022-1.776-8.719-8.008-12.4-15.994-12.681-27.946-.226-9.706,1.948-21.102,9.119-28.108,4.903-4.791,9.133-5.002,15.642-4.78l-5.66,31.888-4.398,30.723Z" style="fill: #fdb053;"/>
          <path d="M1390.485,1307.535c-13.246-2.334-56.71-5.293-63.649-14.396-6.66-8.734,4.921-52.644,6.958-64.692,22.88,1.208,45.44,5.01,67.814,9.805-4.234,22.983-7.675,46.169-11.122,69.284Z" style="fill: #7dbf3d;"/>
          <path d="M1508.456,1260.267l4.398-30.723c1.04,4.858,2.065,9.68,3.429,14.462-2.832,16.808-6.053,33.6-8.516,50.461-3.541,23.057-10.47,96.705-27.139,109.776-7.31,5.734-16.71,4.182-25.211,2.82-7.634-1.224-15.289-2.867-22.956-3.794-40.664-6.331-81.214-13.377-121.631-21.137-8.563-1.692-26.253-4.895-31.156-13.049-8.813-14.653-3.949-30.614-.869-46.147l4.936,4.104c-.07,4.003-1.589,8.096-1.698,12.147-.1,3.718.909,4.944,3.275,7.67,16.864,6.505,39.194,6.837,57.282,10.08,40.23,7.213,80.56,16.712,121.056,21.997,7.13.931,14.071,1.22,21.217.369,8.604-12.015,19.88-98.441,23.583-119.035Z" style="fill: #5b2448;"/>
          <path d="M1401.989,1309.311c3.845-23.619,7.915-47.203,12.211-70.744,22.298,4.581,46.847,5.147,68.119,13.373-3.127,17.268-5.155,51.161-13.612,65.266-20.251,3.249-46.297-4.893-66.719-7.895Z" style="fill: #7dbf3d;"/>
          <path d="M1538.299,1269.12c20.565-.127,41.132-.064,61.697.193l-6.851,1.77.853,1.261c-19.277,1.003-38.956.306-58.281.418l2.582-3.642Z" style="fill: #a993ca;"/>
          <path d="M1599.996,1269.312c46.8.507,93.604.732,140.407.677,22.335-.039,51.399-2.533,73.084.545,4.22.599,6.244,1.794,9.264,4.741-1.93,18.968-.728,38.934-.734,58.013l.016,105.332.107,88.181c.061,15.447-1.124,32.296,1.236,47.56.1,15.908,2.727,82.95-1.109,92.439-.673,1.661-1.181,2.635-2.813,3.261-5.678,2.172-11.582,2.92-17.627,3.218-22.429,1.108-45.256.224-67.73.228l-130.009.004-154.253.053c-28.041.035-56.333.837-84.356-.027-6.328-.195-12.658-.457-18.5-3.091-6.361-13.156-3.217-117.803-3.193-139.295l2.881-3.995c.084,20.243-3.096,128.629,2.129,140.212,6.049,2.307,12.508,2.83,18.931,3.076,45.137,1.737,442.455,1.411,447.992-1.087,1.763-.798,3.242-2.147,4.593-3.501,3.121-21.738.871-46.018.882-68.139l-.287-148.001.211-113.982c.037-18.34,1.85-38.739-.757-56.755-.769-1.149-1.599-2.508-2.619-3.476-1.915-1.821-3.139-2.139-5.733-2.44-22.577-2.621-47.495-.283-70.402-.269l-147.611-.451-.853-1.261,6.851-1.77Z" style="fill: #8163bf;"/>
          <path d="M1848.648,1466.245c.006-30.294-3.301-177.429,1.792-191.82,6.724-3.591,15.301-4.151,22.81-4.483,26.181-1.155,52.791-.207,79.008-.178l148.804.141c16.855.021,83.416-2.215,95.72.73,2.071.5,4.122,1.614,5.065,3.574,3.445,7.139,2.748,342.735,1.784,375.586-.205,6.999-.697,14.179-2.317,21.006-15.338,5.476-167.866,2.635-196.703,2.67-44.913.055-90.501,1.874-135.345.1-4.891-.193-9.474-.306-13.966-2.414-6.414-6.499-6.207-15.305-6.15-23.84.041-4.953.113-9.907.215-14.86,2.313-29.215.455-59.94.482-89.303.02-23.627,2.776-53.968-1.2-76.91ZM1856.906,1272.977c-2.928,2.982-5.157,4.421-5.582,8.8-1.157,11.958-.172,25.11-.15,37.16l.262,80.551.906,242.616c.072,8.138-1.206,18.72,3.552,25.702,3.449,2.701,8.239,2.475,12.463,2.668,19.482.882,39.313.154,58.824.133l110.762-.129c50.958-.051,106.795,2.453,157.32-.673,2.153-1.003,3.63-1.247,4.573-3.63,2.235-5.634,1.579-342.597.779-379.124-.082-3.605.205-8.461-1.825-11.566-1.189-1.827-7.116-1.946-9.351-2.108-16.015-1.157-32.481-.468-48.537-.484l-84.729-.068c-66.284-.039-133.023-1.725-199.27.152Z" style="fill: #8163bf;"/>
          <path d="M2607.118,1319.177c34.941-7.018,58.646-21.625,82.904-47.832,2.871,160.42-39.719,318.373-122.869,455.577-16.712,28.145-39.001,52.65-56.164,80.76l-52.187.293c-1.681-.086-2.727-.593-4.265-1.231-2.112-5.869,20.116-177.883,22.864-199.473l1.148-13.761c7.136-1.431,15.359,2.139,22.413-.482,3.486-1.3,6.131-4.335,7.669-7.658,4.45-9.651,3.691-28.904-.718-38.456-2.481-5.391-7.075-6.673-12.221-8.679,22.023-6.089,43.615-12.005,62.234-25.985,11.709-8.796,24.012-22.07,25.755-37.279.984-8.664-1.681-16.981-7.32-23.604-11.729-13.744-28.933-15.596-45.707-17.354,9.064-2.726,18.763-3.763,28.072-5.326,23.028-3.864,44.743-10.484,64.715-22.92,15.03-9.356,31.107-22.36,35.126-40.542,1.866-8.367,1.374-17.38-3.609-24.613-9.966-14.474-31.845-18.047-47.839-21.435Z" style="fill: #fef1e0;"/>
          <path d="M1507.767,1294.467c10.158-2.803,21.078-14.054,27.951-21.705,19.324-.113,39.004.585,58.281-.418l147.611.451c22.907-.014,47.825-2.352,70.402.269,2.594.301,3.818.619,5.733,2.44,1.019.968,1.85,2.328,2.619,3.476-1.977,21.041-.853,42.925-.849,64.066l.092,112.547.334,141.061c.068,22.839-1.056,46.434.373,69.204-1.351,1.353-2.83,2.703-4.593,3.501-5.537,2.498-402.855,2.824-447.992,1.087-6.422-.246-12.882-.769-18.931-3.076-5.225-11.583-2.044-119.969-2.129-140.212,8.034-14.766,18.576-28.645,28.107-42.5,9.238-14.187,46.97-77.132,57.684-81.387,7.667.927,15.322,2.57,22.956,3.794,8.502,1.362,17.901,2.914,25.211-2.82,16.669-13.072,23.598-86.719,27.139-109.776ZM1715.881,1294.016c-6.556,113.582-14.842,227.239-19.16,340.926l69.276.547,19.251.336c-5.089-76.106-8.073-152.133-11.924-228.291-1.884-37.273-1.878-76.439-7.083-113.273-16.778-.041-33.586.117-50.36-.246ZM1618.48,1399.332c-6.201,27.571-10.993,55.445-16.667,83.128-10.858,50.775-20.932,101.713-30.223,152.798,16.261.023,32.532-.066,48.791.164,14.21.267,28.507.878,42.715.701-8.711-58.866-20.557-117.791-31.702-176.267-2.957-15.524-6.845-48.025-12.914-60.525ZM1497.536,1431.078c-7.607,23.032-11.241,47.648-16.093,71.398-9.039,44.248-17.786,88.864-28.704,132.675l48.737-.021,41.399.168c-5.602-24.175-11.538-48.331-16.628-72.616-4.048-19.325-22.97-122.321-28.712-131.605Z" style="fill: #fefefe;"/>
          <path d="M2195.265,1669.805c-50.526,3.125-106.362.621-157.32.673l-110.762.129c-19.511.021-39.342.749-58.824-.133-4.224-.193-9.014.033-12.463-2.668-4.757-6.983-3.48-17.565-3.552-25.702l-.906-242.616-.262-80.551c-.023-12.05-1.007-25.202.15-37.16.425-4.378,2.653-5.818,5.582-8.8,66.247-1.877,132.986-.191,199.27-.152l84.729.068c16.056.016,32.522-.673,48.537.484,2.235.162,8.161.281,9.351,2.108,2.03,3.105,1.743,7.961,1.825,11.566.8,36.526,1.456,373.49-.779,379.124-.943,2.383-2.42,2.627-4.573,3.63ZM2028.233,1325.869c-3.818,6.425-7.61,12.721-10.554,19.605l-21.676,3.144c5.053,5.137,10.021,10.434,15.359,15.272l-.929,21.264c6.141-2.695,12.666-6.269,19.027-8.252,6.295,3.134,12.572,6.481,19.06,9.185l-1.567-20.826c4.61-5.445,9.305-10.82,13.468-16.624-6.808-1.269-13.361-2.231-20.286-2.531-3.496-6.934-6.716-14.399-11.901-20.239ZM1918.254,1414.45c-8.653,2.89-13.417,12.165-10.726,20.885,2.692,8.72,11.852,13.695,20.629,11.201,5.856-1.663,10.355-6.37,11.754-12.299,1.398-5.929-.521-12.149-5.018-16.257-4.495-4.11-10.862-5.459-16.638-3.531ZM1965.657,1432.153c6.871,3.853,138.892,3.212,154.497,1.302-2.153-1.175-3.65-1.854-6.152-2.022-28.318-1.893-57.641-.33-86.049-.314-18.72.01-44.2-2.594-62.296,1.034ZM1919.8,1493.524c-5.926,1.23-10.718,5.578-12.517,11.359-1.798,5.781-.32,12.081,3.861,16.458,4.181,4.378,10.407,6.14,16.261,4.606,8.733-2.291,14.05-11.125,11.99-19.917-2.063-8.794-10.755-14.341-19.595-12.506ZM1965.843,1508.663l1.251,3.015c18.68,1.278,37.907.373,56.642.334,31.558.131,63.116-.234,94.674-1.093l-.41-2.461c-13.041-2.401-30.102-.148-43.595-.109l-108.562.314ZM1917.483,1574.294c-8.553,2.996-13.142,12.284-10.326,20.899,2.815,8.617,12.002,13.4,20.672,10.765,5.772-1.756,10.146-6.495,11.43-12.393,1.286-5.896-.718-12.026-5.237-16.025-4.517-3.999-10.845-5.242-16.538-3.246ZM1993.845,1586.621c-8.965-.043-17.692-.332-26.462,1.848,11.934,4.202,106.264,1.376,125.867,1.337,8.1.115,15.953.439,23.868-1.575l-.082-.652c-40.191-3.291-82.781-1.636-123.191-.958Z" style="fill: #fefefe;"/>
          <path d="M1822.752,1275.276c2.217,13.876.999,29.158.939,43.249l-.32,72.905c-.191,60.775,2.442,122.261.006,182.932-2.36-15.264-1.175-32.113-1.236-47.56l-.107-88.181-.016-105.332c.006-19.078-1.195-39.045.734-58.013Z" style="fill: #a993ca;"/>
          <path d="M1820.363,1278.98c2.606,18.016.794,38.415.757,56.755l-.211,113.982.287,148.001c-.01,22.122,2.239,46.401-.882,68.139-1.429-22.77-.306-46.364-.373-69.204l-.334-141.061-.092-112.547c-.004-21.142-1.128-43.025.849-64.066Z" style="fill: #a993ca;"/>
          <path d="M1696.721,1634.942c4.318-113.687,12.605-227.343,19.16-340.926,16.773.363,33.582.205,50.36.246,5.204,36.834,5.198,76,7.083,113.273,3.851,76.158,6.834,152.184,11.924,228.291l-19.251-.336-69.276-.547Z" style="fill: #fdb053;"/>
          <path d="M552.848,1598.091c-.537,1.731-.488,3.554-2.247,4.417-4.076,1.999-11.575,1.442-16.367,2.389-.986.137-1.243.199-2.37.201-3.353.008-4.556.057-6.832-2.287l1.28-1.979c6.065-3.415,12.365-2.643,19.084-2.422,11.424-24.978,18.182-53.343,25.761-79.712,14.329-49.865,28.322-100.172,38.768-151.015,1.956-9.528,4.696-46.294,10.251-51.003l2.009.607c7.954,28.961-54.432,240.854-69.335,280.803Z" style="fill: #421158;"/>
          <path d="M1029.16,1702.445c-2.883-37.32-3.24-75.071-5.344-112.477-3.351-59.062-8.623-118.002-15.806-176.72-1.628-13.287-13.222-81.998-10.238-88.686l2.137.449c15.566,24.835,37.486,347.827,34.812,390.536l-1.177,1.194c2.682,3.097,5.606,5.9,6.837,9.885-3.945-2.91-7.472-6.525-11.061-9.864-.57-5.076,1.825-9.237-.16-14.316Z" style="fill: #421158;"/>
          <path d="M2017.679,1345.474c2.945-6.884,6.736-13.18,10.554-19.605,5.186,5.841,8.405,13.306,11.901,20.239,6.925.299,13.478,1.261,20.286,2.531-4.163,5.804-8.858,11.179-13.468,16.624l1.567,20.826c-6.488-2.705-12.765-6.052-19.06-9.185-6.361,1.983-12.886,5.558-19.027,8.252l.929-21.264c-5.338-4.838-10.306-10.135-15.359-15.272l21.676-3.144Z" style="fill: #7dbf3d;"/>
          <path d="M1571.59,1635.258c9.291-51.085,19.365-102.022,30.223-152.798,5.674-27.683,10.466-55.558,16.667-83.128,6.07,12.499,9.958,45,12.914,60.525,11.145,58.476,22.991,117.401,31.702,176.267-14.208.176-28.505-.435-42.715-.701-16.259-.23-32.53-.142-48.791-.164Z" style="fill: #fdb053;"/>
          <path d="M1928.156,1446.537c-8.776,2.494-17.936-2.481-20.629-11.201-2.69-8.72,2.073-17.996,10.726-20.885,5.776-1.928,12.143-.578,16.638,3.531,4.497,4.108,6.416,10.328,5.018,16.257-1.398,5.929-5.897,10.635-11.754,12.299Z" style="fill: #7dbf3d;"/>
          <path d="M1148.584,1458.507c-2.975-8.133-11.819-26.613-9.937-34.568l4.284-.658c3.084,9.097,10.523,23.736,8.998,33.171l-3.344,2.055Z" style="fill: #421158;"/>
          <path d="M1452.74,1635.151c10.917-43.811,19.665-88.428,28.704-132.675,4.852-23.75,8.485-48.366,16.093-71.398,5.742,9.284,24.664,112.28,28.712,131.605,5.089,24.285,11.026,48.441,16.628,72.616l-41.399-.168-48.737.021Z" style="fill: #fdb053;"/>
          <path d="M2120.153,1433.455c-15.605,1.909-147.625,2.551-154.497-1.302,18.096-3.628,43.576-1.023,62.296-1.034,28.408-.016,57.731-1.579,86.049.314,2.502.168,3.999.847,6.152,2.022Z" style="fill: #8163bf;"/>
          <path d="M1848.648,1466.245c3.976,22.942,1.22,53.283,1.2,76.91-.027,29.363,1.831,60.088-.482,89.303-2.493-20.873-1.048-43.772-1.079-64.844-.051-33.75-.683-67.639.361-101.37Z" style="fill: #a993ca;"/>
          <path d="M1927.406,1525.947c-5.854,1.534-12.08-.228-16.261-4.606-4.181-4.376-5.659-10.676-3.861-16.458,1.798-5.781,6.591-10.129,12.517-11.359,8.84-1.835,17.532,3.712,19.595,12.506,2.061,8.792-3.256,17.626-11.99,19.917Z" style="fill: #7dbf3d;"/>
          <path d="M2118.41,1510.919c-31.558.859-63.116,1.224-94.674,1.093-18.736.039-37.962.943-56.642-.334l-1.251-3.015,108.562-.314c13.493-.039,30.553-2.293,43.595.109l.41,2.461Z" style="fill: #a993ca;"/>
          <path d="M2342.945,1538.28c5.085.197,9.699-.412,14.703-1.216,16.548,2.592,34.839,1.191,51.633,1.251,28.79.101,57.641.556,86.41-.08,5.147,2.006,9.74,3.287,12.221,8.679,4.408,9.553,5.167,28.805.718,38.456-1.538,3.322-4.183,6.357-7.669,7.658-7.054,2.621-15.277-.95-22.413.482-21.141,3.269-46.014.759-67.463.73l-140.647.082.184-56.323c23.971.07,48.393-.835,72.323.281Z" style="fill: #f84f46;"/>
          <path d="M1927.828,1605.958c-8.67,2.635-17.856-2.147-20.672-10.765-2.816-8.615,1.774-17.903,10.326-20.899,5.692-1.995,12.02-.753,16.538,3.246,4.519,3.999,6.523,10.129,5.237,16.025-1.284,5.898-5.657,10.637-11.43,12.393Z" style="fill: #7dbf3d;"/>
          <path d="M2093.25,1589.806c-19.603.039-113.933,2.865-125.867-1.337,8.77-2.18,17.497-1.891,26.462-1.848,40.41-.679,83-2.334,123.191.958l.082.652c-7.915,2.014-15.769,1.69-23.868,1.575Z" style="fill: #a993ca;"/>
          <path d="M2270.438,1594.322l140.647-.082c21.449.029,46.322,2.539,67.463-.73l-1.148,13.761c-68.366-3.361-138.453-.767-207.003-.863l.041-12.085Z" style="fill: #aa1c49;"/>
          <path d="M534.233,1604.898c4.792-.947,12.291-.39,16.367-2.389,1.759-.863,1.71-2.687,2.247-4.417,37.304.999,74.773.234,112.097.207,15.26-.01,33.955-1.897,48.797.81l1.304,2.703-.962,2.41c-6.287,2.301-162.131,1.706-179.852.677Z" style="fill: #5b2448;"/>
          <path d="M1261.789,1655.876c12.43-20.217,26.345-39.83,39.535-59.583-.041,29.472.236,58.987-.271,88.454-3.309,4.979-1.441,21.72-1.413,28.133-11.206.297-27.307,2.814-37.98.564l.129-57.567Z" style="fill: #8163bf;"/>
          <path d="M815.827,1602.894c-.271,13.02-.869,26.109.088,39.108,1.179,25.604.607,51.436.615,77.068.006,18.315.953,37.355-.439,55.59l.172,3.148c-.539,10.336-.586,20.617-.568,30.961l-100.415.09.197-205.035,100.35-.931Z" style="fill: #fdb053;"/>
          <path d="M2270.397,1606.407c68.55.096,138.638-2.498,207.003.863-2.748,21.591-24.976,193.604-22.864,199.473,1.538.638,2.584,1.144,4.265,1.231-25.222,2.777-53.417,1.421-78.802.394,3.055-5.369,4.327-11.73,5.987-17.661-2.297-9.542-5.7-16.775-11.77-24.544-25.078-32.109-66.561-49.619-105.972-54.717,4.203-34.351,2.173-70.422,2.153-105.039Z" style="fill: #f84f46;"/>
          <path d="M815.915,1642.003c38.782.351,84.171-1.825,120.989,11.507,14.649,5.305,28.267,13.426,41.499,21.556,7.669,4.711,19.956,10.65,25.898,17.274.359.402.597.898.896,1.347l-1.511,3.138c4.878,7.311,18.465,14.029,25.634,19.938,3.588,3.339,7.115,6.954,11.061,9.864,16.517,19.039,47.081,52.071,44.835,78.971-.209,2.488-.714,4.024-2.083,6.074-3.129,1.163-3.498,1.319-6.568.01-2.454-1.077-4.634-2.697-6.373-4.739-4.476-5.186-6.781-12.196-10.441-17.959-6.814-10.724-15.445-21.404-24.08-30.715-13.706-14.967-29.788-27.567-47.601-37.289-6.244-3.476-15.232-9.532-22.166-10.389l-1.427,1.63c3.486,9.019,26.069,16.146,34.367,21.952,17.944,12.551,67.471,56.973,60.528,79.109-2.522,2.483-3.785,3.767-7.474,3.895-6.42.221-11.801-5.578-16.167-9.583l-1.023-1.128c-21.953-24.232-44.382-48.515-75.38-60.931-5.133-2.055-11.491-4.959-17.124-4.936-2.606.01-2.145.187-3.757,1.821,5.36,5.498,24.379,10.738,32.302,14.704,25.265,12.647,43.262,42.646,62.696,52.203-5.68.757-7.124.055-11.253,4.403-.773.812-1.513,1.657-2.301,2.453-.675.683-1.684,1.665-2.469,2.242-9.273,6.79-20.14-2.27-27.855-6.954-51.809-31.457-79.508-35.267-138.83-35.567-11.53-.804-23.089-.97-34.644-1.241,1.392-18.236.445-37.275.439-55.59-.008-25.633.564-51.464-.615-77.068Z" style="fill: #fb858d;"/>
          <path d="M1068.061,1749.363c20.143,6.046,36.553,10.886,57.942,9.034,43.158-3.734,82.414-31.363,108.529-64.842,9.18-11.769,16.386-24.987,26.11-36.356l1.146-1.323-.129,57.567c-21.879-1.725-40.246,8.174-56.655,22.034-13.148,11.105-29.042,27.962-30.174,46.2-.687,11.072,3.404,18.984,10.71,26.927-31.156-1.524-62.829-.283-94.014.033.687-23.172-11.506-40.489-23.466-59.274Z" style="fill: #fef1e0;"/>
          <path d="M237.964,1680.947c17.434,9.651,35.069,19.384,53.265,27.53,19.8,44.137,42.801,70.6,89.234,88.231,9.804,3.722,38.029,7.943,43.554,11.728-30.524-.053-61.156.404-91.662-.57-.584-3.277-1.378-5.324-3.34-8.025-7.663-10.539-18.231-20.192-26.879-30.058-23.04-26.291-48.76-57.362-64.172-88.836Z" style="fill: #fef1e0;"/>
          <path d="M1029.32,1716.762c-7.169-5.908-20.756-12.627-25.634-19.938l1.511-3.138c.396.156.796.306,1.187.468,7.685,3.199,13.167,9.932,20.811,12.571,1.286-1.526,1.681-2.301,1.964-4.28,1.985,5.08-.41,9.241.16,14.316Z" style="fill: #5b2448;"/>
          <path d="M1040.381,1726.626c-1.23-3.985-4.154-6.788-6.837-9.885l1.177-1.194c12.246,4.717,24.648,23.795,33.34,33.815,11.961,18.785,24.153,36.102,23.466,59.274,31.185-.316,62.858-1.557,94.014-.033,69.149,2.034,138.884.203,208.092.154l367.862.213,415.745-.232c67.483-.096,135.316,1.384,202.758-.371,25.386,1.028,53.581,2.383,78.802-.394l52.187-.293c25.201.053,222.669-1.278,228.903,2.043,3.506,1.872,4.121,3.011,5.475,6.677-1.64,4.218-3.014,6.378-7.402,8.408-5.598,2.582-12.242,3.222-18.332,3.234l-1593.216-1.243-736.312.638c-24.379.025-241.81,2.656-250.452-.882-3.919-1.604-5.703-4.206-7.149-8.029.168-3.359.145-5.209,2.628-7.705,2.306-2.317,6.064-2.871,9.159-3.166,19.732-1.883,41.068-.103,60.995-.033l127.07.242c30.506.974,61.137.517,91.662.57,97.085.837,194.177.978,291.264.424l100.415-.09,163.775-.142c-46.478-24.964-76.49-27.581-127.634-29.644l-1.101-3.082c59.322.299,87.021,4.11,138.83,35.567,7.714,4.684,18.582,13.744,27.855,6.954.785-.576,1.794-1.559,2.469-2.242.787-.796,1.528-1.641,2.301-2.453,4.13-4.348,5.573-3.646,11.253-4.403l2.286-1.733c4.366,4.005,9.746,9.805,16.167,9.583,3.689-.127,4.952-1.411,7.474-3.895,6.943-22.136-42.584-66.558-60.528-79.109-8.299-5.806-30.881-12.932-34.367-21.952l1.427-1.63c6.935.857,15.922,6.913,22.166,10.389,17.813,9.723,33.896,22.323,47.601,37.289,8.635,9.31,17.266,19.991,24.08,30.715,3.66,5.763,5.965,12.772,10.441,17.959,1.739,2.043,3.919,3.663,6.373,4.739,3.07,1.308,3.439,1.153,6.568-.01,1.37-2.051,1.874-3.587,2.083-6.074,2.245-26.9-28.318-59.932-44.835-78.971Z" style="fill: url(#linear-gradient);"/>
          <path d="M1033.444,1809.326c-19.433-9.557-37.431-39.555-62.696-52.203-7.923-3.966-26.942-9.206-32.302-14.704,1.612-1.634,1.15-1.811,3.757-1.821,5.633-.023,11.992,2.881,17.124,4.936,30.998,12.415,53.427,36.699,75.38,60.931l1.023,1.128-2.286,1.733Z" style="fill: #5b2448;"/>
          <path d="M816.092,1774.662c11.555.271,23.114.437,34.644,1.241l1.101,3.082c-11.862-.182-23.723-.574-35.573-1.175l-.172-3.148Z" style="fill: #5b2448;"/>
          <path d="M816.264,1777.81c11.85.601,23.711.993,35.573,1.175,51.145,2.063,81.157,4.68,127.634,29.644l-163.775.142c-.018-10.344.029-20.625.568-30.961Z" style="fill: #f84f46;"/>
        </g>
      </g>
    </g>
  </g>
</svg>