<?xml version="1.0" encoding="utf-8"?>
<!-- Generator: Adobe Illustrator 27.5.0, SVG Export Plug-In . SVG Version: 6.00 Build 0)  -->
<svg version="1.1" id="Layer_1" xmlns="http://www.w3.org/2000/svg" xmlns:xlink="http://www.w3.org/1999/xlink" x="0px" y="0px"
	 viewBox="0 0 5000 5000" style="enable-background:new 0 0 5000 5000;" xml:space="preserve">
<g id="Website_Management">
	<g>
		<ellipse style="fill:#E7ECFF;" cx="4318.975" cy="4101.518" rx="331.025" ry="26.139"/>
		
			<linearGradient id="SVGID_1_" gradientUnits="userSpaceOnUse" x1="11116.1816" y1="4937.0049" x2="11387.9072" y2="5202.5342" gradientTransform="matrix(-0.7514 0.6599 -0.6599 -0.7514 15695.583 -1416.4165)">
			<stop  offset="2.200000e-07" style="stop-color:#FFBB83"/>
			<stop  offset="1" style="stop-color:#FF9D45"/>
		</linearGradient>
		<path style="fill:url(#SVGID_1_);" d="M4210.183,2223.325c0,0-203.318-11.624-213.305-68.542
			c-5.586-31.825,37.389-70.958,72.046-96.819h-111.139c-44.217,45.892-83.424,97.873-75.836,132.173
			c16.575,74.888,239.099,182.472,300.563,174.27C4213.117,2360.324,4210.183,2223.325,4210.183,2223.325z"/>
		<g>
			<g>
				<path style="fill:#F5F7FF;" d="M3326.2,3695.644l-45.354-55.107c14.667-34.008,22.915-69.635,25.163-105.368l65.495-28.698
					c4.787-1.991,7.511-6.999,6.697-12.152l-12.37-77.943c-0.819-5.149-4.96-9.068-9.987-9.676l-71.306-6.813
					c-13.056-33.481-32.075-64.608-56.55-92.406l26.062-66.437c1.843-5.048,0.283-10.431-4.094-13.609l-63.656-46.219
					c-4.177-3.032-9.977-2.994-14.007,0.466l-55.303,45.206c-34.01-14.666-69.297-22.969-105.177-25.019l-28.553-65.692
					c-2.334-4.735-7.344-7.46-12.492-6.645l-77.943,12.37c-5.153,0.82-9.071,4.962-9.482,10.13l-7.01,71.162
					c-33.282,13.201-64.605,32.074-92.4,56.55l-66.242-25.92c-4.901-2.038-10.632-0.421-13.665,3.755l-46.363,63.854
					c-3.032,4.177-2.792,10.122,0.664,14.151l45.011,55.161c-14.523,33.808-22.774,69.44-25.022,105.174l-65.495,28.698
					c-4.787,1.991-7.657,7.198-6.841,12.351l12.37,77.943c0.818,5.148,4.96,9.068,10.33,9.622l71.305,6.812
					c13.058,33.482,31.733,64.664,56.356,92.258l-25.866,66.587c-2.038,4.898-0.283,10.43,3.894,13.463l63.656,46.219
					c4.377,3.178,9.981,2.99,14.208-0.32l55.108-45.355c33.862,14.87,69.493,23.118,105.371,25.167l28.554,65.693
					c1.99,4.79,6.999,7.514,12.148,6.699l77.943-12.37c5.152-0.821,9.216-5.161,9.626-10.329l7.01-71.162
					c33.282-13.201,64.607-32.08,92.259-56.355l66.585,25.865c4.901,2.038,10.428,0.281,13.461-3.896l46.363-63.854
					C3329.692,3705.478,3329.655,3699.673,3326.2,3695.644z M2907.018,3632.81c-64.85-47.085-79.234-137.735-32.293-202.385
					c47.085-64.85,137.73-79.233,202.58-32.147c64.85,47.085,79.236,137.729,32.151,202.578
					C3062.515,3665.507,2971.868,3679.896,2907.018,3632.81z"/>
			</g>
		</g>
		<g>
			<g>
				<path style="fill:#F5F7FF;" d="M1777.169,1742.369l-69.685-84.669c22.534-52.252,35.208-106.99,38.662-161.893l100.631-44.093
					c7.354-3.059,11.54-10.754,10.289-18.671l-19.005-119.756c-1.259-7.911-7.621-13.932-15.344-14.867l-109.558-10.467
					c-20.061-51.442-49.282-99.267-86.887-141.978l40.043-102.078c2.831-7.756,0.434-16.026-6.291-20.909l-97.805-71.013
					c-6.417-4.659-15.329-4.6-21.521,0.715l-84.971,69.457c-52.255-22.534-106.472-35.29-161.599-38.44l-43.871-100.933
					c-3.586-7.276-11.283-11.463-19.193-10.209l-119.756,19.005c-7.917,1.26-13.937,7.624-14.568,15.564l-10.771,109.338
					c-51.136,20.283-99.263,49.28-141.969,86.886l-101.778-39.825c-7.53-3.131-16.336-0.647-20.995,5.77l-71.234,98.109
					c-4.659,6.417-4.289,15.552,1.019,21.742l69.157,84.753c-22.314,51.944-34.992,106.692-38.446,161.595l-100.631,44.093
					c-7.354,3.059-11.764,11.059-10.511,18.977l19.005,119.756c1.257,7.909,7.622,13.932,15.872,14.783l109.557,10.466
					c20.063,51.443,48.756,99.353,86.589,141.75l-39.742,102.308c-3.132,7.526-0.434,16.026,5.983,20.685l97.805,71.013
					c6.725,4.883,15.336,4.594,21.829-0.492l84.67-69.687c52.027,22.847,106.772,35.52,161.897,38.668l43.873,100.935
					c3.058,7.36,10.753,11.545,18.665,10.293l119.756-19.005c7.915-1.261,14.159-7.93,14.79-15.87l10.771-109.338
					c51.136-20.283,99.266-49.289,141.752-86.587l102.306,39.741c7.53,3.131,16.022,0.432,20.682-5.986l71.234-98.109
					C1782.534,1757.478,1782.477,1748.559,1777.169,1742.369z M1133.116,1645.828c-99.639-72.345-121.739-211.623-49.616-310.956
					c72.344-99.638,211.617-121.738,311.255-49.393c99.638,72.344,121.742,211.614,49.398,311.253
					C1372.03,1696.064,1232.754,1718.172,1133.116,1645.828z"/>
			</g>
		</g>
		<ellipse style="fill:#E7ECFF;" cx="1048.753" cy="4060.158" rx="698.753" ry="43.637"/>
		<g>
			<g>
				<g>
					<path style="fill:#5C5CA0;" d="M3604.003,1197.73c-0.172,0-0.336-0.008-0.509-0.033c-2.305-0.271-3.945-2.362-3.666-4.667
						c1.148-9.596,1.96-19.356,2.419-28.993c0.107-2.313,2.01-4.207,4.388-3.994c2.321,0.107,4.109,2.075,3.994,4.388
						c-0.459,9.842-1.296,19.799-2.469,29.599C3607.907,1196.163,3606.095,1197.73,3604.003,1197.73z"/>
				</g>
				<g>
					<path style="fill:#5C5CA0;" d="M2231.458,2228.121c-0.23,0-0.459-0.016-0.697-0.057c-19.774-3.281-39.482-7.103-58.592-11.351
						c-2.264-0.509-3.691-2.748-3.19-5.011c0.5-2.256,2.715-3.658,5.011-3.191c18.962,4.216,38.523,8.013,58.149,11.269
						c2.288,0.377,3.83,2.542,3.453,4.831C2235.247,2226.662,2233.475,2228.121,2231.458,2228.121z M2115.454,2202.196
						c-0.377,0-0.771-0.049-1.156-0.164c-19.274-5.503-38.408-11.638-56.87-18.232c-2.182-0.779-3.322-3.182-2.542-5.364
						c0.787-2.19,3.19-3.346,5.364-2.542c18.298,6.529,37.26,12.606,56.362,18.068c2.231,0.632,3.518,2.961,2.879,5.192
						C2118.964,2200.999,2117.283,2202.196,2115.454,2202.196z M2003.551,2162.156c-0.566,0-1.132-0.115-1.681-0.353
						c-18.372-8.029-36.481-16.756-53.827-25.933c-2.05-1.091-2.838-3.633-1.755-5.676c1.091-2.059,3.642-2.83,5.676-1.755
						c17.174,9.087,35.095,17.724,53.269,25.671c2.124,0.927,3.092,3.404,2.165,5.528
						C2006.709,2161.213,2005.167,2162.156,2003.551,2162.156z M1898.596,2106.467c-0.779,0-1.558-0.213-2.264-0.664
						c-16.781-10.736-33.249-22.292-48.955-34.365c-1.837-1.411-2.182-4.052-0.771-5.889c1.419-1.845,4.06-2.174,5.889-0.771
						c15.517,11.925,31.789,23.35,48.365,33.955c1.952,1.247,2.526,3.847,1.271,5.799
						C1901.335,2105.786,1899.973,2106.467,1898.596,2106.467z M1804.449,2034.063c-1.017,0-2.034-0.369-2.846-1.107
						c-14.845-13.664-29.009-27.976-42.091-42.533c-1.55-1.722-1.411-4.38,0.32-5.93c1.722-1.558,4.372-1.419,5.93,0.32
						c12.901,14.361,26.877,28.476,41.533,41.959c1.706,1.575,1.813,4.232,0.246,5.938
						C1806.713,2033.604,1805.581,2034.063,1804.449,2034.063z M1725.247,1945.642c-1.296,0-2.575-0.599-3.404-1.739
						c-11.983-16.534-22.833-33.52-32.257-50.497c-1.124-2.026-0.394-4.577,1.64-5.708c1.993-1.091,4.568-0.402,5.708,1.64
						c9.251,16.674,19.922,33.372,31.716,49.644c1.362,1.87,0.935,4.503-0.943,5.864
						C1726.969,1945.379,1726.108,1945.642,1725.247,1945.642z M1668.049,1841.777c-1.689,0-3.281-1.025-3.92-2.698
						c-4.576-11.95-8.538-24.088-11.777-36.071c-1.944-7.201-3.674-14.451-5.134-21.57c-0.459-2.272,1-4.495,3.272-4.962
						c2.231-0.443,4.486,0.992,4.962,3.272c1.419,6.947,3.108,14.041,5.003,21.062c3.166,11.72,7.037,23.58,11.515,35.267
						c0.828,2.165-0.254,4.593-2.419,5.421C1669.057,1841.687,1668.549,1841.777,1668.049,1841.777z M1644.362,1725.831
						c-2.255,0-4.125-1.788-4.199-4.06c-0.123-3.83-0.181-7.644-0.181-11.458c-0.008-16.026,1.099-32.363,3.289-48.553
						c0.303-2.296,2.378-4.027,4.724-3.592c2.296,0.312,3.904,2.42,3.592,4.724c-2.132,15.813-3.215,31.765-3.207,47.422
						c0,3.715,0.057,7.447,0.18,11.179c0.074,2.321-1.747,4.265-4.06,4.339C1644.453,1725.831,1644.403,1725.831,1644.362,1725.831z
						 M1659.937,1608.474c-0.394,0-0.796-0.057-1.189-0.172c-2.223-0.656-3.494-2.994-2.838-5.216
						c5.536-18.733,12.59-37.637,20.963-56.197c0.96-2.116,3.445-3.043,5.561-2.1c2.108,0.96,3.051,3.445,2.1,5.561
						c-8.226,18.208-15.14,36.751-20.57,55.115C1663.423,1607.293,1661.75,1608.474,1659.937,1608.474z M3137.341,1563.037
						c-0.057,0-0.115,0-0.172,0c-19.569-0.804-39.614-2.592-59.593-5.323c-2.296-0.312-3.912-2.428-3.592-4.724
						c0.312-2.305,2.493-4.011,4.724-3.592c19.717,2.69,39.499,4.453,58.805,5.241c2.321,0.098,4.117,2.05,4.027,4.371
						C3141.441,1561.266,3139.58,1563.037,3137.341,1563.037z M2604.105,1562.57c-0.065,0-0.139,0-0.213-0.008
						c-19.61-0.984-39.646-3.117-59.552-6.356c-2.288-0.369-3.847-2.526-3.469-4.814c0.369-2.288,2.534-3.863,4.814-3.469
						c19.602,3.182,39.327,5.29,58.633,6.258c2.313,0.115,4.101,2.083,3.978,4.404
						C2608.19,1560.823,2606.328,1562.57,2604.105,1562.57z M3196.761,1562.439c-2.19,0-4.043-1.706-4.183-3.937
						c-0.148-2.313,1.607-4.306,3.928-4.453c19.93-1.263,39.614-3.641,58.51-7.07c2.231-0.369,4.462,1.091,4.88,3.387
						c0.41,2.28-1.099,4.462-3.387,4.88c-19.208,3.477-39.22,5.897-59.478,7.185
						C3196.941,1562.439,3196.851,1562.439,3196.761,1562.439z M2663.526,1561.906c-2.173,0-4.01-1.673-4.183-3.879
						c-0.172-2.313,1.558-4.33,3.871-4.511c20.225-1.534,39.77-4.47,58.1-8.727c2.28-0.517,4.519,0.894,5.044,3.141
						c0.525,2.264-0.886,4.519-3.141,5.044c-18.749,4.347-38.72,7.349-59.363,8.923
						C2663.747,1561.906,2663.633,1561.906,2663.526,1561.906z M3019.689,1547.143c-0.304,0-0.615-0.033-0.927-0.107
						c-19.159-4.339-38.572-9.596-57.698-15.624c-2.214-0.697-3.437-3.051-2.739-5.265c0.705-2.198,3.067-3.428,5.265-2.739
						c18.905,5.954,38.088,11.154,57.026,15.444c2.264,0.508,3.683,2.756,3.166,5.019
						C3023.338,1545.822,3021.608,1547.143,3019.689,1547.143z M2486.88,1543.944c-0.344,0-0.697-0.041-1.042-0.131
						c-18.487-4.749-37.752-10.465-57.264-16.994c-2.206-0.738-3.387-3.117-2.657-5.315c0.746-2.206,3.166-3.379,5.314-2.657
						c19.331,6.471,38.4,12.13,56.689,16.83c2.247,0.574,3.601,2.862,3.027,5.11
						C2490.464,1542.689,2488.75,1543.944,2486.88,1543.944z M3313.421,1541.008c-1.78,0-3.437-1.14-4.002-2.928
						c-0.705-2.214,0.525-4.568,2.731-5.274c18.74-5.954,37.17-13.188,54.779-21.496c2.1-0.96,4.609-0.098,5.593,2.001
						c0.992,2.1,0.09,4.601-2.001,5.594c-17.953,8.472-36.735,15.845-55.828,21.906
						C3314.265,1540.942,3313.839,1541.008,3313.421,1541.008z M2778.611,1534.365c-1.599,0-3.133-0.919-3.83-2.477
						c-0.951-2.116-0.008-4.601,2.108-5.552c18.478-8.292,35.267-18.396,49.898-30.034c1.837-1.435,4.47-1.14,5.905,0.672
						c1.443,1.821,1.14,4.462-0.673,5.905c-15.189,12.073-32.577,22.538-51.687,31.117
						C2779.775,1534.25,2779.185,1534.365,2778.611,1534.365z M2906.408,1511.457c-0.525,0-1.058-0.098-1.575-0.312
						c-18.429-7.472-36.751-15.755-54.459-24.621c-2.075-1.042-2.912-3.56-1.878-5.635c1.042-2.067,3.584-2.912,5.635-1.878
						c17.51,8.768,35.628,16.961,53.852,24.359c2.149,0.869,3.19,3.313,2.313,5.462
						C2909.639,1510.465,2908.065,1511.457,2906.408,1511.457z M2374.133,1506.495c-0.517,0-1.05-0.099-1.558-0.303
						c-17.552-7.012-36.005-14.894-54.844-23.399c-2.116-0.96-3.051-3.445-2.099-5.561c0.959-2.116,3.445-3.018,5.561-2.1
						c18.724,8.464,37.063,16.288,54.5,23.268c2.157,0.861,3.198,3.305,2.337,5.454
						C2377.372,1505.495,2375.797,1506.495,2374.133,1506.495z M1708.401,1500.246c-0.746,0-1.493-0.197-2.173-0.607
						c-1.985-1.197-2.616-3.781-1.419-5.766c10.113-16.731,21.447-33.389,33.684-49.505c1.411-1.845,4.035-2.198,5.889-0.804
						c1.845,1.402,2.206,4.043,0.804,5.889c-12.065,15.878-23.227,32.281-33.192,48.767
						C1711.205,1499.524,1709.819,1500.246,1708.401,1500.246z M3420.591,1490.355c-1.37,0-2.715-0.672-3.518-1.903
						c-1.263-1.944-0.722-4.544,1.222-5.815c16.428-10.711,32.199-22.661,46.88-35.496c1.739-1.526,4.396-1.361,5.922,0.394
						c1.534,1.747,1.353,4.396-0.394,5.922c-14.976,13.106-31.059,25.286-47.815,36.218
						C3422.174,1490.133,3421.378,1490.355,3420.591,1490.355z M2869.944,1460.616c-0.828,0-1.657-0.238-2.387-0.746
						c-1.911-1.32-2.387-3.937-1.066-5.84c10.752-15.534,19.52-33.011,26.065-51.941c0.754-2.182,3.166-3.346,5.339-2.6
						c2.198,0.754,3.354,3.149,2.6,5.339c-6.791,19.651-15.911,37.818-27.098,53.975
						C2872.585,1459.984,2871.272,1460.616,2869.944,1460.616z M2800.189,1458.303c-0.746,0-1.493-0.197-2.174-0.607
						c-17.125-10.334-33.914-21.406-49.898-32.905c-1.886-1.361-2.313-3.986-0.959-5.864c1.353-1.895,3.994-2.313,5.864-0.96
						c15.804,11.376,32.405,22.325,49.341,32.544c1.985,1.197,2.616,3.773,1.419,5.766
						C2802.994,1457.581,2801.608,1458.303,2800.189,1458.303z M2265.716,1457.778c-0.623,0-1.255-0.139-1.854-0.427
						c-16.436-8.07-33.823-16.854-53.146-26.86c-2.067-1.066-2.87-3.6-1.804-5.659c1.066-2.067,3.617-2.862,5.659-1.804
						c19.282,9.981,36.612,18.741,52.999,26.778c2.075,1.025,2.936,3.543,1.919,5.626
						C2268.758,1456.917,2267.266,1457.778,2265.716,1457.778z M3509.726,1412.292c-0.968,0-1.936-0.328-2.731-1.009
						c-1.763-1.509-1.969-4.158-0.459-5.922c12.77-14.919,24.507-30.838,34.882-47.307c1.238-1.96,3.846-2.551,5.79-1.312
						c1.96,1.23,2.551,3.83,1.312,5.79c-10.588,16.813-22.571,33.061-35.603,48.291
						C3512.088,1411.792,3510.907,1412.292,3509.726,1412.292z M1780.55,1406.051c-1.066,0-2.132-0.402-2.953-1.214
						c-1.649-1.632-1.665-4.289-0.033-5.938c14.919-15.091,30.395-28.148,45.995-38.802c1.927-1.288,4.536-0.812,5.84,1.099
						c1.304,1.919,0.812,4.527-1.099,5.84c-15.165,10.35-30.223,23.055-44.764,37.768
						C1782.715,1405.632,1781.633,1406.051,1780.55,1406.051z M2159.997,1403.319c-0.664,0-1.337-0.156-1.96-0.484
						c-15.903-8.407-34.397-18.125-52.777-27.082c-2.083-1.017-2.953-3.527-1.936-5.61c1.017-2.083,3.559-2.92,5.61-1.936
						c18.495,9.005,37.071,18.765,53.023,27.197c2.051,1.091,2.838,3.625,1.755,5.676
						C2162.958,1402.507,2161.498,1403.319,2159.997,1403.319z M2703.779,1388.901c-0.968,0-1.936-0.328-2.731-1.009
						c-8.267-7.062-16.419-14.369-24.219-21.71c-6.651-6.25-13.205-12.696-19.479-19.151c-1.616-1.665-1.583-4.322,0.082-5.938
						c1.665-1.616,4.322-1.583,5.938,0.082c6.192,6.365,12.655,12.721,19.216,18.888c7.701,7.25,15.747,14.468,23.916,21.447
						c1.771,1.501,1.977,4.15,0.468,5.913C2706.141,1388.401,2704.96,1388.901,2703.779,1388.901z M2052.687,1352.215
						c-0.5,0-1.009-0.09-1.509-0.279c-20.135-7.734-38.523-13.319-56.197-17.068c-2.272-0.484-3.724-2.715-3.24-4.978
						c0.484-2.28,2.739-3.65,4.978-3.24c18.117,3.847,36.915,9.555,57.477,17.445c2.165,0.828,3.24,3.264,2.411,5.43
						C2055.968,1351.19,2054.377,1352.215,2052.687,1352.215z M2909.402,1349.738c-0.164,0-0.32-0.008-0.484-0.025
						c-2.305-0.263-3.961-2.346-3.699-4.65c1.378-12.048,2.075-24.662,2.075-37.49c0-6.988-0.205-14.115-0.607-21.176
						c-0.131-2.313,1.632-4.298,3.953-4.429c2.583-0.287,4.306,1.64,4.429,3.953c0.418,7.217,0.623,14.509,0.623,21.652
						c0,13.139-0.714,26.073-2.124,38.441C2913.322,1348.155,2911.501,1349.738,2909.402,1349.738z M1878.674,1340.725
						c-1.731,0-3.354-1.074-3.961-2.805c-0.771-2.182,0.377-4.585,2.567-5.356c19.151-6.75,39.122-10.597,59.363-11.433
						c2.083-0.172,4.265,1.714,4.371,4.027c0.09,2.313-1.706,4.273-4.027,4.371c-19.405,0.796-38.556,4.486-56.919,10.957
						C1879.609,1340.651,1879.133,1340.725,1878.674,1340.725z M3572.829,1312.044c-0.566,0-1.14-0.115-1.69-0.353
						c-2.124-0.935-3.092-3.412-2.157-5.536c7.865-17.888,14.459-36.522,19.61-55.41c0.615-2.223,2.903-3.527,5.159-2.944
						c2.231,0.607,3.551,2.92,2.945,5.159c-5.257,19.282-11.991,38.31-20.02,56.575
						C3575.979,1311.109,3574.445,1312.044,3572.829,1312.044z M2621.206,1303.572c-1.247,0-2.477-0.55-3.305-1.616
						c-12.77-16.329-24.17-32.987-33.873-49.489c-1.181-2.001-0.509-4.577,1.484-5.749c1.993-1.173,4.568-0.517,5.75,1.484
						c9.522,16.198,20.709,32.536,33.249,48.586c1.435,1.821,1.107,4.462-0.722,5.889
						C2623.026,1303.284,2622.116,1303.572,2621.206,1303.572z M2903.324,1231.43c-1.96,0-3.715-1.386-4.109-3.387
						c-3.387-17.232-7.849-34.783-13.254-52.17c-0.5-1.64-1.017-3.256-1.542-4.872c-0.714-2.206,0.492-4.576,2.698-5.29
						c2.223-0.714,4.576,0.492,5.29,2.698c0.541,1.665,1.074,3.33,1.583,4.995c5.487,17.65,10.022,35.496,13.459,53.015
						c0.451,2.28-1.033,4.486-3.305,4.929C2903.865,1231.406,2903.595,1231.43,2903.324,1231.43z M2561.974,1200.986
						c-1.706,0-3.313-1.05-3.937-2.747c-7.381-19.995-12.122-39.737-14.09-58.666c-0.238-2.305,1.435-4.371,3.74-4.609
						c2.223-0.205,4.372,1.435,4.609,3.74c1.895,18.232,6.479,37.293,13.615,56.632c0.804,2.173-0.303,4.585-2.485,5.388
						C2562.95,1200.904,2562.458,1200.986,2561.974,1200.986z M2866.007,1118.88c-1.542,0-3.026-0.853-3.756-2.329
						c-9.096-18.24-19.397-35.062-30.608-50.005c-1.394-1.854-1.025-4.486,0.836-5.872c1.854-1.411,4.486-1.017,5.873,0.837
						c11.523,15.345,22.095,32.601,31.412,51.301c1.033,2.075,0.197,4.593-1.886,5.626
						C2867.278,1118.74,2866.638,1118.88,2866.007,1118.88z M2552.312,1084.408c-0.385,0-0.779-0.049-1.165-0.164
						c-2.231-0.648-3.51-2.977-2.871-5.2c5.594-19.339,15.698-37.768,29.23-53.294c1.517-1.771,4.175-1.944,5.922-0.41
						c1.755,1.525,1.936,4.175,0.41,5.922c-12.729,14.615-22.235,31.945-27.492,50.112
						C2555.814,1083.211,2554.133,1084.408,2552.312,1084.408z M2794.219,1025.152c-0.935,0-1.878-0.312-2.657-0.951
						c-15.509-12.696-32.249-22.669-49.759-29.624c-2.157-0.861-3.207-3.297-2.354-5.454c0.861-2.157,3.314-3.182,5.454-2.354
						c18.314,7.283,35.808,17.691,51.974,30.936c1.796,1.468,2.059,4.117,0.591,5.905
						C2796.638,1024.627,2795.432,1025.152,2794.219,1025.152z M2627.808,997.209c-1.575,0-3.092-0.894-3.805-2.419
						c-0.984-2.1-0.074-4.601,2.026-5.585c18.691-8.727,38.605-13.328,59.207-13.656c2.083-0.254,4.224,1.813,4.265,4.134
						c0.033,2.321-1.813,4.224-4.134,4.265c-19.405,0.312-38.17,4.642-55.779,12.868
						C2629.014,997.086,2628.407,997.209,2627.808,997.209z"/>
				</g>
				<g>
					<path style="fill:#5C5CA0;" d="M2320.929,2239.464c-0.131,0-0.254-0.008-0.385-0.016c-9.743-0.869-19.52-1.87-29.313-2.969
						c-2.305-0.262-3.961-2.337-3.707-4.642c0.262-2.321,2.477-3.969,4.642-3.707c9.727,1.099,19.446,2.083,29.132,2.952
						c2.304,0.205,4.01,2.247,3.805,4.56C2324.906,2237.824,2323.077,2239.464,2320.929,2239.464z"/>
				</g>
			</g>
			<g>
				<g>
					
						<linearGradient id="SVGID_00000075151874182382220050000010001350504056516251_" gradientUnits="userSpaceOnUse" x1="2701.8369" y1="1103.8522" x2="2781.6782" y2="1103.8522" gradientTransform="matrix(0.9917 -0.1287 0.1287 0.9917 792.5069 359.6904)">
						<stop  offset="0" style="stop-color:#E7ECFF"/>
						<stop  offset="1" style="stop-color:#C2D5FF"/>
					</linearGradient>
					<path style="fill:url(#SVGID_00000075151874182382220050000010001350504056516251_);" d="M3695.008,1110.685
						c0.188,0.742-0.174,1.495-0.871,1.8l-73.307,31.938c-0.113,0.076-0.264,0.096-0.414,0.115
						c-0.513,0.067-1.031-0.142-1.361-0.559c-0.437-0.526-0.444-1.292-0.054-1.833l60.007-82.174
						c0.367-0.478,0.951-0.706,1.518-0.596c0.567,0.111,1.052,0.538,1.186,1.103L3695.008,1110.685z"/>
				</g>
				<g>
					
						<linearGradient id="SVGID_00000093887833160628123640000009911964987595596985_" gradientUnits="userSpaceOnUse" x1="2711.7578" y1="1079.6123" x2="3063.6267" y2="1079.6123" gradientTransform="matrix(0.9917 -0.1287 0.1287 0.9917 792.5069 359.6904)">
						<stop  offset="0" style="stop-color:#E7ECFF"/>
						<stop  offset="1" style="stop-color:#C2D5FF"/>
					</linearGradient>
					<path style="fill:url(#SVGID_00000093887833160628123640000009911964987595596985_);" d="M3959.612,959.041
						c0.229,0.584,0.07,1.248-0.396,1.677l-246.118,221.513c-0.248,0.216-0.538,0.346-0.84,0.385
						c-0.181,0.024-0.396,0.021-0.619-0.042c-0.51-0.149-0.901-0.558-1.028-1.063l-41.34-156.133l-62.29-52.864
						c-0.481-0.397-0.658-1.05-0.46-1.658c0.231-0.582,0.731-0.985,1.403-1.01l350.211-11.779
						C3958.777,958.045,3959.379,958.427,3959.612,959.041z"/>
				</g>
				<g>
					<path style="fill:#C2D5FF;" d="M3874.238,981.196c0.252,0.765-0.136,1.551-0.863,1.861l-192.157,79.052l-59.744,81.833
						c-0.263,0.341-0.635,0.542-1.057,0.597c-0.302,0.039-0.645-0.008-0.944-0.184c-0.662-0.375-0.952-1.195-0.646-1.91
						l50.414-118.505c0.187-0.453,0.604-0.784,1.079-0.907l202.161-42.866C3873.285,980.001,3874.02,980.457,3874.238,981.196z"/>
				</g>
			</g>
		</g>
		
			<linearGradient id="SVGID_00000101804786811660097610000013439871127065378436_" gradientUnits="userSpaceOnUse" x1="2470.6609" y1="3686.9155" x2="2515.1704" y2="966.358">
			<stop  offset="0" style="stop-color:#E7ECFF"/>
			<stop  offset="1" style="stop-color:#C2D5FF"/>
		</linearGradient>
		<path style="fill:url(#SVGID_00000101804786811660097610000013439871127065378436_);" d="M3740.228,1651.777v1654.425
			c0,72.121-58.465,130.586-130.586,130.586H1371.204c-72.121,0-130.586-58.465-130.586-130.586V1651.777
			c0-72.121,58.465-130.586,130.586-130.586h2238.437C3681.762,1521.191,3740.228,1579.656,3740.228,1651.777z"/>
		
			<linearGradient id="SVGID_00000153703910961917657200000002954302095214238378_" gradientUnits="userSpaceOnUse" x1="1915.1259" y1="2480.3909" x2="672.8707" y2="2472.6267">
			<stop  offset="0" style="stop-color:#E7ECFF"/>
			<stop  offset="1" style="stop-color:#C2D5FF"/>
		</linearGradient>
		<path style="fill:url(#SVGID_00000153703910961917657200000002954302095214238378_);" d="M2010.679,1521.19h-639.474
			c-72.123,0-130.586,58.467-130.586,130.586v1654.425c0,72.123,58.464,130.586,130.586,130.586h639.474V1521.19z"/>
		<path style="fill:#C2D5FF;" d="M1882.333,3085.858v89.274c0,19.653-15.932,35.584-35.584,35.584h-442.2
			c-19.653,0-35.584-15.932-35.584-35.584v-89.274c0-19.653,15.932-35.584,35.584-35.584h442.2
			C1866.402,3050.274,1882.333,3066.205,1882.333,3085.858z"/>
		<path style="fill:#C2D5FF;" d="M1882.333,2778.583v89.274c0,19.653-15.932,35.584-35.584,35.584h-442.2
			c-19.653,0-35.584-15.931-35.584-35.584v-89.274c0-19.653,15.932-35.584,35.584-35.584h442.2
			C1866.402,2742.999,1882.333,2758.931,1882.333,2778.583z"/>
		<path style="fill:#C2D5FF;" d="M1882.333,2471.309v89.274c0,19.653-15.932,35.584-35.584,35.584h-442.2
			c-19.653,0-35.584-15.931-35.584-35.584v-89.274c0-19.653,15.932-35.584,35.584-35.584h442.2
			C1866.402,2435.725,1882.333,2451.656,1882.333,2471.309z"/>
		<g>
			<path style="fill:#C2D5FF;" d="M1611.13,2299.976c-0.287,0-0.574-0.016-0.861-0.041c-14.197-1.46-28.271-4.412-41.82-8.792
				c-4.412-1.419-6.832-6.151-5.405-10.572c1.427-4.404,6.118-6.84,10.572-5.405c12.425,4.01,25.335,6.725,38.359,8.054
				c4.618,0.476,7.972,4.601,7.505,9.21C1619.036,2296.752,1615.386,2299.976,1611.13,2299.976z M1652.08,2299.927
				c-4.248,0-7.89-3.207-8.341-7.521c-0.484-4.617,2.862-8.743,7.472-9.227c13.016-1.37,25.917-4.117,38.343-8.161
				c4.388-1.427,9.145,0.984,10.588,5.388c1.435,4.413-0.976,9.153-5.388,10.588c-13.549,4.404-27.607,7.398-41.787,8.882
				C1652.671,2299.91,1652.367,2299.927,1652.08,2299.927z M1533.575,2274.928c-1.427,0-2.862-0.361-4.191-1.124
				c-12.319-7.111-23.957-15.542-34.578-25.08c-3.453-3.1-3.74-8.407-0.64-11.86c3.108-3.453,8.407-3.732,11.859-0.64
				c9.76,8.751,20.438,16.502,31.757,23.03c4.019,2.321,5.397,7.455,3.076,11.474
				C1539.3,2273.419,1536.479,2274.928,1533.575,2274.928z M1729.569,2274.69c-2.903,0-5.717-1.501-7.275-4.191
				c-2.329-4.019-0.951-9.153,3.059-11.474c11.294-6.537,21.964-14.303,31.691-23.079c3.445-3.1,8.743-2.838,11.868,0.615
				c3.1,3.453,2.83,8.759-0.615,11.868c-10.605,9.555-22.218,18.011-34.529,25.13
				C1732.439,2274.329,1730.996,2274.69,1729.569,2274.69z M1472.941,2220.478c-2.592,0-5.142-1.189-6.791-3.445
				c-8.415-11.515-15.632-23.94-21.455-36.932c-1.903-4.232-0.008-9.202,4.224-11.097c4.24-1.895,9.202-0.008,11.097,4.224
				c5.347,11.917,11.974,23.325,19.7,33.897c2.731,3.748,1.919,8.997-1.829,11.737
				C1476.394,2219.953,1474.655,2220.478,1472.941,2220.478z M1790.088,2220.141c-1.714,0-3.445-0.525-4.937-1.616
				c-3.748-2.731-4.576-7.988-1.837-11.728c7.71-10.572,14.32-21.989,19.651-33.93c1.886-4.232,6.857-6.159,11.089-4.248
				c4.24,1.886,6.143,6.856,4.248,11.088c-5.807,13.016-13.016,25.458-21.423,36.981
				C1795.239,2218.944,1792.68,2220.141,1790.088,2220.141z M1439.626,2146.122c-3.879,0-7.365-2.698-8.202-6.643
				c-2.969-13.91-4.486-28.197-4.503-42.476c-0.008-4.634,3.748-8.398,8.39-8.407h0.008c4.634,0,8.39,3.756,8.399,8.39
				c0.016,13.106,1.402,26.22,4.125,38.982c0.976,4.535-1.919,8.997-6.455,9.965
				C1440.799,2146.064,1440.208,2146.122,1439.626,2146.122z M1823.305,2145.72c-0.574,0-1.165-0.057-1.747-0.18
				c-4.535-0.96-7.439-5.421-6.479-9.957c2.698-12.754,4.068-25.876,4.068-38.999c0-4.642,3.756-8.8,8.398-8.8
				c4.642,0,8.398,3.354,8.398,7.997v0.803c0,14.295-1.493,28.583-4.429,42.476
				C1830.678,2143.013,1827.192,2145.72,1823.305,2145.72z M1439.478,2064.639c-0.566,0-1.148-0.057-1.73-0.18
				c-4.536-0.943-7.447-5.397-6.496-9.94c2.912-13.943,7.324-27.631,13.106-40.688c1.878-4.232,6.832-6.159,11.08-4.273
				c4.24,1.878,6.151,6.832,4.273,11.08c-5.298,11.974-9.342,24.531-12.024,37.326
				C1446.86,2061.924,1443.374,2064.639,1439.478,2064.639z M1823.133,2063.458c-3.871,0-7.349-2.682-8.201-6.619
				c-2.772-12.786-6.906-25.318-12.278-37.235c-1.911-4.224-0.033-9.202,4.199-11.105c4.248-1.944,9.194-0.025,11.105,4.199
				c5.864,12.991,10.367,26.647,13.393,40.582c0.984,4.535-1.895,9.005-6.43,9.99
				C1824.322,2063.4,1823.723,2063.458,1823.133,2063.458z M1472.465,1990.136c-1.706,0-3.428-0.517-4.921-1.599
				c-3.756-2.715-4.593-7.972-1.87-11.728c8.349-11.531,17.945-22.226,28.517-31.798c3.437-3.117,8.751-2.862,11.86,0.591
				c3.117,3.436,2.854,8.751-0.591,11.859c-9.703,8.792-18.511,18.609-26.188,29.206
				C1477.632,1988.93,1475.065,1990.136,1472.465,1990.136z M1789.637,1989.184c-2.583,0-5.134-1.189-6.783-3.428
				c-7.718-10.523-16.584-20.291-26.36-29.034c-3.461-3.084-3.756-8.398-0.664-11.851c3.084-3.469,8.407-3.764,11.851-0.664
				c10.654,9.514,20.315,20.151,28.722,31.609c2.739,3.74,1.936,8.997-1.804,11.745
				C1793.098,1988.659,1791.36,1989.184,1789.637,1989.184z M1532.895,1935.447c-2.895,0-5.708-1.493-7.267-4.175
				c-2.329-4.011-0.976-9.145,3.035-11.482c12.344-7.185,25.458-13.073,38.982-17.502c4.462-1.46,9.161,0.968,10.596,5.364
				c1.443,4.412-0.96,9.153-5.364,10.596c-12.409,4.068-24.441,9.465-35.767,16.059
				C1535.781,1935.078,1534.33,1935.447,1532.895,1935.447z M1728.855,1934.89c-1.419,0-2.854-0.361-4.167-1.115
				c-11.384-6.52-23.448-11.851-35.874-15.845c-4.421-1.419-6.848-6.151-5.429-10.564c1.427-4.421,6.159-6.815,10.564-5.429
				c13.541,4.355,26.696,10.162,39.089,17.273c4.027,2.305,5.421,7.439,3.108,11.458
				C1734.596,1933.372,1731.767,1934.89,1728.855,1934.89z M1610.301,1910.08c-4.24,0-7.882-3.199-8.341-7.505
				c-0.492-4.618,2.846-8.751,7.455-9.243c14.074-1.501,28.689-1.534,42.698-0.123c4.617,0.468,7.98,4.593,7.513,9.202
				c-0.468,4.618-4.56,7.964-9.202,7.513c-12.885-1.32-26.302-1.271-39.22,0.107C1610.9,1910.063,1610.596,1910.08,1610.301,1910.08
				z"/>
		</g>
		
			<linearGradient id="SVGID_00000008114032301791217690000013807705666358950837_" gradientUnits="userSpaceOnUse" x1="2479.95" y1="1478.4176" x2="2494.9109" y2="1867.3959">
			<stop  offset="1.100000e-07" style="stop-color:#B3B3FF"/>
			<stop  offset="1" style="stop-color:#8F8FEA"/>
		</linearGradient>
		<path style="fill:url(#SVGID_00000008114032301791217690000013807705666358950837_);" d="M3740.258,1651.749v200.397H1921.044
			c-8.383,0-16.33-3.733-21.682-10.185l-76.01-91.636c-5.352-6.452-13.299-10.185-21.682-10.185h-261.895
			c-15.558,0-28.17,12.612-28.17,28.17v55.668c0,15.558-12.612,28.17-28.17,28.17h-242.851v-200.398
			c0-72.121,58.466-130.587,130.587-130.587H3609.67C3681.792,1521.161,3740.258,1579.627,3740.258,1651.749z"/>
		<g>
			
				<linearGradient id="SVGID_00000151523331781415330590000011007086552761849276_" gradientUnits="userSpaceOnUse" x1="2275.8364" y1="1695.9406" x2="3601.5398" y2="1695.9406">
				<stop  offset="0" style="stop-color:#E7ECFF"/>
				<stop  offset="1" style="stop-color:#C2D5FF"/>
			</linearGradient>
			<path style="fill:url(#SVGID_00000151523331781415330590000011007086552761849276_);" d="M3601.54,1695.941L3601.54,1695.941
				c0,34.386-27.875,62.261-62.261,62.261H2338.097c-34.386,0-62.261-27.875-62.261-62.261v0c0-34.386,27.875-62.261,62.261-62.261
				h1201.181C3573.665,1633.679,3601.54,1661.555,3601.54,1695.941z"/>
			<path style="fill:#3D79F3;" d="M3539.279,1633.679h-60.895v124.522h60.895c34.385,0,62.261-27.876,62.261-62.261
				C3601.541,1661.555,3573.665,1633.679,3539.279,1633.679z"/>
			<g>
				<g>
					<path style="fill:#FFFFFF;" d="M3530.14,1715.12c-6.176,0-12.352-2.354-17.051-7.053c-9.399-9.399-9.399-24.703,0-34.102
						c9.399-9.399,24.703-9.399,34.102,0c9.399,9.399,9.399,24.695,0,34.102C3542.491,1712.766,3536.315,1715.12,3530.14,1715.12z
						 M3530.14,1675.309c-4.027,0-8.046,1.526-11.113,4.593c-6.127,6.127-6.127,16.1,0,22.226c6.135,6.135,16.091,6.135,22.226,0
						c6.127-6.127,6.127-16.1,0-22.226C3538.185,1676.834,3534.167,1675.309,3530.14,1675.309z"/>
				</g>
				<g>
					<path style="fill:#FFFFFF;" d="M3559.871,1724.945c-1.074,0-2.149-0.41-2.969-1.23l-15.649-15.649
						c-1.64-1.64-1.64-4.298,0-5.938c1.641-1.64,4.298-1.64,5.938,0l15.649,15.649c1.64,1.64,1.64,4.298,0,5.938
						C3562.019,1724.535,3560.945,1724.945,3559.871,1724.945z"/>
				</g>
			</g>
		</g>
		<g>
			<g>
				<g>
					
						<linearGradient id="SVGID_00000174562325150283500670000009731350511919100347_" gradientUnits="userSpaceOnUse" x1="3983.4749" y1="2006.141" x2="4148.8193" y2="2006.141">
						<stop  offset="0" style="stop-color:#E7ECFF"/>
						<stop  offset="1" style="stop-color:#C2D5FF"/>
					</linearGradient>
					<path style="fill:url(#SVGID_00000174562325150283500670000009731350511919100347_);" d="M4144.62,2082.764
						c-2.321,0-4.199-1.878-4.199-4.199v-68.893c0-39.564-32.191-71.756-71.756-71.756h-80.991c-2.321,0-4.199-1.878-4.199-4.199
						s1.878-4.199,4.199-4.199h80.991c44.198,0,80.155,35.956,80.155,80.154v68.893
						C4148.819,2080.886,4146.941,2082.764,4144.62,2082.764z"/>
				</g>
				<g>
					
						<linearGradient id="SVGID_00000036951169677714232520000010960086545865962682_" gradientUnits="userSpaceOnUse" x1="3983.4749" y1="-1716.9403" x2="4148.8193" y2="-1716.9403" gradientTransform="matrix(1 0 0 -1 0 660.6265)">
						<stop  offset="0" style="stop-color:#E7ECFF"/>
						<stop  offset="1" style="stop-color:#C2D5FF"/>
					</linearGradient>
					<path style="fill:url(#SVGID_00000036951169677714232520000010960086545865962682_);" d="M4068.665,2454.19h-80.991
						c-2.321,0-4.199-1.878-4.199-4.199s1.878-4.199,4.199-4.199h80.991c39.565,0,71.756-32.191,71.756-71.756v-68.893
						c0-2.321,1.878-4.199,4.199-4.199c2.321,0,4.199,1.878,4.199,4.199v68.893
						C4148.819,2418.234,4112.863,2454.19,4068.665,2454.19z"/>
				</g>
			</g>
			<g>
				<g>
					
						<linearGradient id="SVGID_00000036216757204660988050000012493214767792712073_" gradientUnits="userSpaceOnUse" x1="3150.1555" y1="-1666.7675" x2="3315.4998" y2="-1666.7675" gradientTransform="matrix(-1 0 0 -1 6451.3228 710.7993)">
						<stop  offset="0" style="stop-color:#E7ECFF"/>
						<stop  offset="1" style="stop-color:#C2D5FF"/>
					</linearGradient>
					<path style="fill:url(#SVGID_00000036216757204660988050000012493214767792712073_);" d="M3296.968,2454.19h-80.991
						c-44.198,0-80.154-35.956-80.154-80.154v-68.893c0-2.321,1.878-4.199,4.199-4.199s4.199,1.878,4.199,4.199v68.893
						c0,39.565,32.191,71.756,71.756,71.756h80.991c2.321,0,4.199,1.878,4.199,4.199S3299.289,2454.19,3296.968,2454.19z"/>
				</g>
				<g>
					
						<linearGradient id="SVGID_00000005970835179996736990000012161100676651570609_" gradientUnits="userSpaceOnUse" x1="3150.1555" y1="1955.9681" x2="3315.4998" y2="1955.9681" gradientTransform="matrix(-1 0 0 1 6451.3228 50.1728)">
						<stop  offset="0" style="stop-color:#E7ECFF"/>
						<stop  offset="1" style="stop-color:#C2D5FF"/>
					</linearGradient>
					<path style="fill:url(#SVGID_00000005970835179996736990000012161100676651570609_);" d="M3140.022,2082.764
						c-2.321,0-4.199-1.878-4.199-4.199v-68.893c0-44.198,35.956-80.154,80.154-80.154h80.991c2.321,0,4.199,1.878,4.199,4.199
						s-1.878,4.199-4.199,4.199h-80.991c-39.564,0-71.756,32.191-71.756,71.756v68.893
						C3144.222,2080.886,3142.344,2082.764,3140.022,2082.764z"/>
				</g>
			</g>
			
				<linearGradient id="SVGID_00000116924058204877193710000002493769578565611685_" gradientUnits="userSpaceOnUse" x1="3184.4417" y1="2191.8538" x2="4100.2012" y2="2191.8538">
				<stop  offset="0" style="stop-color:#E7ECFF"/>
				<stop  offset="1" style="stop-color:#C2D5FF"/>
			</linearGradient>
			<path style="fill:url(#SVGID_00000116924058204877193710000002493769578565611685_);" d="M4100.201,2009.673v364.361
				c0,17.42-14.122,31.542-31.542,31.542h-852.675c-17.42,0-31.542-14.122-31.542-31.542v-364.361
				c0-17.42,14.122-31.542,31.542-31.542h852.675C4086.079,1978.131,4100.201,1992.253,4100.201,2009.673z"/>
			<g>
				<g>
					<path style="fill:#FFFFFF;" d="M3878.518,2105.742v47.214c0,5.476-4.439,9.915-9.915,9.915h-208.4
						c-5.476,0-9.915-4.439-9.915-9.915v-47.214c0-5.476,4.439-9.915,9.915-9.915h208.4
						C3874.079,2095.826,3878.518,2100.266,3878.518,2105.742z"/>
					<g>
						<path style="fill:#FFFFFF;" d="M3921.556,2283.562v3.196c0,5.476-4.439,9.915-9.915,9.915h-251.438
							c-5.476,0-9.915-4.439-9.915-9.915v-3.196c0-5.476,4.439-9.915,9.915-9.915h251.438
							C3917.117,2273.647,3921.556,2278.086,3921.556,2283.562z"/>
						<path style="fill:#FFFFFF;" d="M4017.139,2229.522v3.196c0,5.476-4.439,9.915-9.915,9.915h-347.021
							c-5.476,0-9.915-4.439-9.915-9.915v-3.196c0-5.476,4.439-9.915,9.915-9.915h347.021
							C4012.7,2219.607,4017.139,2224.046,4017.139,2229.522z"/>
					</g>
				</g>
				<g>
					<g>
						<path style="fill:#C2D5FF;" d="M3578.618,2190.802v1.054c0,1.579,0,3.008-0.073,4.514
							c-1.131,41.671-18.353,78.829-45.583,105.982l-42.876-42.949c16.7-16.473,27.23-39.339,27.983-64.84v-2.707
							c0-51.448-41.146-93.572-92.294-95c-0.904-0.077-1.807-0.077-2.707-0.077c-26.327,0-50.248,10.758-67.473,28.134
							c-17.001,17.225-27.605,40.842-27.605,66.944c0,52.429,42.648,95,95.078,95v60.553c0,0,0,0-0.077,0
							c-85.822,0-155.477-69.728-155.477-155.554c0-42.726,17.299-81.536,45.282-109.67c28.207-28.358,67.168-45.958,110.195-45.958
							h0.077c0.9,0,1.803,0,2.707,0.073C3509.945,2037.808,3578.093,2106.408,3578.618,2190.802z"/>
					</g>
					<g>
						
							<linearGradient id="SVGID_00000155148190836280040020000012487430009695929768_" gradientUnits="userSpaceOnUse" x1="3423.03" y1="2303.4163" x2="3532.9556" y2="2303.4163">
							<stop  offset="2.200000e-07" style="stop-color:#FFBB83"/>
							<stop  offset="1" style="stop-color:#FF9D45"/>
						</linearGradient>
						<path style="fill:url(#SVGID_00000155148190836280040020000012487430009695929768_);" d="M3532.956,2302.335
							c-28.053,27.929-66.857,45.107-109.926,45.107v-60.555c26.261,0,49.927-10.442,67.043-27.496L3532.956,2302.335z"/>
					</g>
				</g>
			</g>
		</g>
		<g>
			<g>
				<polygon style="fill:#FDCCC5;" points="4329.63,3973.554 4331.153,4057.143 4243.157,4049.168 4260.892,3957.498 				"/>
				<g>
					
						<linearGradient id="SVGID_00000126325811048026871470000013602390329599894149_" gradientUnits="userSpaceOnUse" x1="-5814.8145" y1="4052.511" x2="-5576.8242" y2="4052.511" gradientTransform="matrix(1 0 0 1 9935.1045 0)">
						<stop  offset="3.200000e-07" style="stop-color:#FF8888"/>
						<stop  offset="1" style="stop-color:#F24E4E"/>
					</linearGradient>
					<path style="fill:url(#SVGID_00000126325811048026871470000013602390329599894149_);" d="M4354.209,4072.388
						c-1.635,5.296-3.659,9.424-6.151,11.992c-28.032,28.578-71.404,13.782-158.927,19.079
						c-53.729,3.192-69.224-16.976-68.835-34.185c0.312-10.901,6.853-20.712,14.172-22.814c9.267-2.726,10.356,3.036,30.602,0.466
						c4.516-0.622,9.967-1.557,16.664-3.114c0.467-0.078,0.934-0.234,1.324-0.312c2.103-0.544,4.049-1.167,5.84-1.791
						c3.737-1.245,6.93-2.724,9.655-4.361c0.856-0.466,1.713-0.933,2.492-1.479c0.856-0.544,1.635-1.167,2.414-1.791
						c3.115-2.259,5.529-4.827,7.631-7.397c1.479-1.791,2.804-3.66,3.971-5.45c5.062-7.475,8.644-14.718,17.287-18.377
						c5.373-2.259,10.123-2.025,14.25-0.156c10.278,4.205,17.053,17.52,22.348,23.204c6.93,7.321,21.569,14.25,39.011,11.37
						c17.443-2.804,10.979-30.603,33.016-34.808c0.389-0.076,0.701-0.156,1.012-0.156
						C4359.271,4000.828,4361.84,4047.782,4354.209,4072.388z"/>
					<path style="fill:#070159;" d="M4351.344,4079.541c-1.007,1.952-2.108,3.613-3.315,4.844
						c-28.014,28.563-71.339,13.777-158.895,19.034c-40.292,2.419-59.055-8.297-65.761-21.099
						C4196.837,4092.959,4272.893,4091.733,4351.344,4079.541z"/>
				</g>
			</g>
			
				<linearGradient id="SVGID_00000014623735668742563910000002482628428885272765_" gradientUnits="userSpaceOnUse" x1="-5602.2461" y1="3387.9124" x2="-5311.9683" y2="3387.9124" gradientTransform="matrix(1 0 -0.063 1 9904.543 2.000000e-04)">
				<stop  offset="2.200000e-07" style="stop-color:#5C5CA0"/>
				<stop  offset="1" style="stop-color:#434389"/>
			</linearGradient>
			<path style="fill:url(#SVGID_00000014623735668742563910000002482628428885272765_);" d="M4341.75,3981.227l36.258-1197.397
				l-251.867,12.285l121.319,1185.112C4247.46,3995.584,4341.75,3995.584,4341.75,3981.227z"/>
		</g>
		<g>
			<g>
				<polygon style="fill:#FDCCC5;" points="4505.82,3973.554 4507.344,4057.143 4419.348,4049.168 4437.082,3957.498 				"/>
				<g>
					
						<linearGradient id="SVGID_00000113324388571058811110000011175986234028538550_" gradientUnits="userSpaceOnUse" x1="-5638.6011" y1="4052.511" x2="-5400.6855" y2="4052.511" gradientTransform="matrix(1 0 0 1 9935.1045 0)">
						<stop  offset="3.200000e-07" style="stop-color:#FF8888"/>
						<stop  offset="1" style="stop-color:#F24E4E"/>
					</linearGradient>
					<path style="fill:url(#SVGID_00000113324388571058811110000011175986234028538550_);" d="M4530.345,4072.388
						c-1.635,5.296-3.66,9.424-6.151,11.992c-27.954,28.578-71.326,13.782-158.849,19.079
						c-53.729,3.192-69.224-16.976-68.835-34.185c0.233-10.901,6.853-20.712,14.172-22.814c9.266-2.726,10.356,3.036,30.602,0.466
						c4.516-0.622,9.966-1.557,16.664-3.114c0.311-0.078,0.545-0.156,0.856-0.234c2.103-0.546,4.049-1.089,5.918-1.713
						c3.737-1.323,6.93-2.726,9.733-4.283c0.934-0.544,1.869-1.167,2.725-1.713c0.779-0.468,1.479-1.011,2.181-1.557
						c3.036-2.259,5.528-4.751,7.63-7.241c1.402-1.713,2.726-3.506,3.815-5.217c5.295-7.711,8.877-15.186,17.754-19.001
						c5.373-2.259,10.123-2.025,14.25-0.156c10.278,4.205,17.053,17.52,22.348,23.204c6.93,7.321,21.569,14.25,39.011,11.37
						c17.442-2.804,10.979-30.603,33.016-34.808c0.311-0.076,0.701-0.156,1.012-0.156
						C4535.406,4000.828,4537.976,4047.782,4530.345,4072.388z"/>
					<path style="fill:#070159;" d="M4527.535,4079.541c-1.007,1.952-2.108,3.613-3.316,4.844
						c-28.014,28.563-71.339,13.777-158.895,19.034c-40.291,2.419-59.055-8.297-65.76-21.099
						C4373.028,4092.959,4449.083,4091.733,4527.535,4079.541z"/>
				</g>
			</g>
			
				<linearGradient id="SVGID_00000100341769682847593120000017046570171597191614_" gradientUnits="userSpaceOnUse" x1="-5426.0552" y1="3387.9124" x2="-5135.7778" y2="3387.9124" gradientTransform="matrix(1 0 -0.063 1 9904.543 2.000000e-04)">
				<stop  offset="2.200000e-07" style="stop-color:#5C5CA0"/>
				<stop  offset="1" style="stop-color:#434389"/>
			</linearGradient>
			<path style="fill:url(#SVGID_00000100341769682847593120000017046570171597191614_);" d="M4517.941,3981.227l36.258-1197.397
				l-251.867,12.285l121.318,1185.112C4423.651,3995.584,4517.941,3995.584,4517.941,3981.227z"/>
		</g>
		
			<linearGradient id="SVGID_00000029727435665114106000000012630904103544589742_" gradientUnits="userSpaceOnUse" x1="-5592.8682" y1="2385.8066" x2="-5596.019" y2="2941.9812" gradientTransform="matrix(1 0 0 1 9935.1045 0)">
			<stop  offset="2.200000e-07" style="stop-color:#FFBB83"/>
			<stop  offset="1" style="stop-color:#FF9D45"/>
		</linearGradient>
		<path style="fill:url(#SVGID_00000029727435665114106000000012630904103544589742_);" d="M4533.009,2255.948
			c-27.914-60.133-313.224-69.873-365.428-22.225c-27.578,25.171-12.861,401.417-49.651,573.289
			c-2.429,9.386,7.027,17.861,16.509,19.889c111.416,23.834,246.159,14.753,400.626-4.576c11.169-1.398,19.134-11.562,17.862-22.746
			C4552.927,2799.579,4587.336,2372.98,4533.009,2255.948z"/>
		<g>
			<path style="fill:#FDCCC5;" d="M4293.577,2217.262l17.53,60.531l68.346-60.531c0.014-0.107,0.056-0.204,0.067-0.313
				c4.974-54.025,6.966-141.818,6.966-141.818l-92.965,60.654c0,0-1.708,53.142,0,81.164
				C4293.526,2217.058,4293.567,2217.156,4293.577,2217.262z"/>
			<path style="fill:#FDCCC5;" d="M4392.353,2087.275c0,0-57.485,90.373-133.104,90.538c-28.946,0.063-27.914-71.375-27.914-71.375
				c-41.833,13.678-5.269-43.593-5.269-43.593l5.852-86.803l100.693-12.766C4387.467,1988.223,4415.08,2025.979,4392.353,2087.275z"
				/>
			
				<linearGradient id="SVGID_00000158025883413480411300000016306522579340522402_" gradientUnits="userSpaceOnUse" x1="-5763.2739" y1="1999.6382" x2="-5497.874" y2="1999.6382" gradientTransform="matrix(1 0 0 1 9935.1045 0)">
				<stop  offset="0" style="stop-color:#771E24"/>
				<stop  offset="1" style="stop-color:#47090E"/>
			</linearGradient>
			<path style="fill:url(#SVGID_00000158025883413480411300000016306522579340522402_);" d="M4385.178,2097.471
				c1.535-8.263-0.036-17.417-0.397-24.009c-0.677-16.164-8.398-26.052-30.702-22.892c0,0-19.64-14.267,2.98-38.558
				c0,0-105.968,20.274-154.052-11.422c0,0-46.911-22.215-25.646-54.046c3.883-5.824,10.204-8.397,17.473-8.94h0.045
				c21.492-1.625,51.291,14.223,51.291,14.223c7.269-17.428,24.922-45.512,50.793-49.53c18.918-2.981,42.261,7.043,69.17,43.705
				c0.948,1.264,2.212,1.4,3.702,0.767c3.521-1.489,8.443-7.223,14.042-12.416c10.159-9.481,22.002-16.927,32.869,5.237
				C4438.044,1983.028,4460.369,2060.179,4385.178,2097.471z"/>
			<path style="fill:#FDCCC5;" d="M4395.995,2077.542c-11.008,13.929-28.271,18.661-38.506,10.573
				c-10.271-8.117-9.621-25.978,1.387-39.907c11.044-13.976,28.272-18.736,38.543-10.62
				C4407.653,2045.676,4407.039,2063.566,4395.995,2077.542z"/>
			<g>
				
					<linearGradient id="SVGID_00000090973021220607898760000015531344004172842627_" gradientUnits="userSpaceOnUse" x1="-5705.0928" y1="2130.1472" x2="-5669.0752" y2="2130.1472" gradientTransform="matrix(1 0 0 1 9935.1045 0)">
					<stop  offset="0" style="stop-color:#771E24"/>
					<stop  offset="1" style="stop-color:#47090E"/>
				</linearGradient>
				<path style="fill:url(#SVGID_00000090973021220607898760000015531344004172842627_);" d="M4236.757,2137.445
					c-2.207,0-3.65-0.115-3.871-0.131c-1.731-0.156-3.01-1.673-2.863-3.412c0.156-1.73,1.657-2.953,3.404-2.871
					c0.147,0.025,18.839,1.493,27.18-7.209c1.197-1.255,3.19-1.304,4.454-0.09c1.255,1.206,1.295,3.198,0.09,4.453
					C4257.31,2136.37,4243.482,2137.445,4236.757,2137.445z"/>
			</g>
			
				<linearGradient id="SVGID_00000124879258134450415150000007626087908840949416_" gradientUnits="userSpaceOnUse" x1="-5697.9883" y1="2034.7534" x2="-5659.6055" y2="2034.7534" gradientTransform="matrix(1 0 0 1 9935.1045 0)">
				<stop  offset="0" style="stop-color:#771E24"/>
				<stop  offset="1" style="stop-color:#47090E"/>
			</linearGradient>
			<path style="fill:url(#SVGID_00000124879258134450415150000007626087908840949416_);" d="M4275.393,2042.011
				c-0.741,1.036-2.221,1.036-3.405,0.961c-10.291-0.815-20.506-2.96-30.278-6.219c-1.036-0.371-2.073-0.739-2.96-1.406
				c-0.89-0.667-1.556-1.703-1.629-2.814c-0.074-1.775,0.992-3.969,3.308-4.641
				C4260.833,2021.962,4276.961,2036.665,4275.393,2042.011z"/>
			<g>
				
					<linearGradient id="SVGID_00000033363872435214360230000012425334334368195210_" gradientUnits="userSpaceOnUse" x1="11508.002" y1="-375.2625" x2="11523.2227" y2="-375.2625" gradientTransform="matrix(-0.9609 0.277 0.277 0.9609 15419.1846 -773.3313)">
					<stop  offset="0" style="stop-color:#771E24"/>
					<stop  offset="1" style="stop-color:#47090E"/>
				</linearGradient>
				<path style="fill:url(#SVGID_00000033363872435214360230000012425334334368195210_);" d="M4254.341,2060.513
					c-0.098,0-0.205-0.008-0.312-0.024l-9.899-1.501c-0.869-0.131-1.566-0.787-1.747-1.657c-0.172-0.861,0.205-1.739,0.952-2.206
					l9.727-6.036c0.984-0.607,2.28-0.303,2.895,0.681c0.607,0.984,0.304,2.28-0.681,2.895l-4.888,3.026l4.265,0.648
					c1.148,0.172,1.936,1.247,1.764,2.387C4256.26,2059.767,4255.366,2060.513,4254.341,2060.513z"/>
			</g>
		</g>
		<g>
			<path style="fill:#FDCCC5;" d="M1150.384,2590.931c1.23,8.066-23.654,6.905-23.654,6.905s1.846,8.272,2.94,19.005
				c0.205,1.914,0.342,3.966,0.479,6.017c1.162,18.663-1.094,41.155-18.184,42.385c-32.131,2.392-58.519-5.606-58.519-5.606
				l1.367,57.63H950.694l-11.895-176.308l176.446-44.436l12.716,59.955C1127.96,2556.477,1149.222,2583.138,1150.384,2590.931z"/>
			
				<linearGradient id="SVGID_00000023240686339576569490000003638796347714555820_" gradientUnits="userSpaceOnUse" x1="2903.1599" y1="2389.5779" x2="3192.5691" y2="2415.4951" gradientTransform="matrix(-0.9932 0.1166 0.1166 0.9932 3770.5396 -223.3561)">
				<stop  offset="0" style="stop-color:#771E24"/>
				<stop  offset="1" style="stop-color:#47090E"/>
			</linearGradient>
			<path style="fill:url(#SVGID_00000023240686339576569490000003638796347714555820_);" d="M1050.004,2559.558
				c19.832-19.24,26.864-28.582,10.988-43.503c0,0,117.423-10.284,92.295-84.521c-25.864-76.411-146.835-3.452-146.835-3.452
				s-104.665-23.798-123.968,47.708c-16.02,59.343,11.287,139.514,51.554,157.435c20.926,9.313,85.654,2.264,89.333-20.344
				c2.43-14.934-35.306-21.477-22.864-56.035c12.442-34.557,52.672,24.401,52.672,24.401L1050.004,2559.558z"/>
			<path style="fill:#FDCCC5;" d="M1043.818,2561.758c13.56,15.989,16.663,36.499,6.987,45.808s-28.519,3.94-42.078-12.049
				c-13.56-15.99-16.696-36.538-7.02-45.847S1030.258,2545.769,1043.818,2561.758z"/>
			<path style="fill:#EC8B73;" d="M1053.414,2659.658c-9.42-1.861-20.19-8.062-31.311-15.395
				c8.447,13.116,18.86,23.121,31.644,29.396L1053.414,2659.658z"/>
		</g>
		
			<linearGradient id="SVGID_00000057112364200295341480000004500987133024381326_" gradientUnits="userSpaceOnUse" x1="1120.329" y1="2726.7847" x2="1253.8645" y2="2726.7847" gradientTransform="matrix(1.0815 0.0317 -0.0293 0.9996 -203.3879 -49.4558)">
			<stop  offset="3.200000e-07" style="stop-color:#78A7FF"/>
			<stop  offset="1" style="stop-color:#3D79F3"/>
		</linearGradient>
		<path style="fill:url(#SVGID_00000057112364200295341480000004500987133024381326_);" d="M1072.484,2725.815
			c-0.899,30.704-32.282,15.62-72.168,14.452c-39.887-1.168-73.149,12.023-72.25-18.681c0.896-30.607,32.228-38.563,72.115-37.394
			C1040.067,2685.36,1073.38,2695.208,1072.484,2725.815z"/>
		
			<linearGradient id="SVGID_00000124142867538134493710000015060276980320072328_" gradientUnits="userSpaceOnUse" x1="-1134.6272" y1="268.4799" x2="-1502.5973" y2="672.5478" gradientTransform="matrix(0.9474 -0.3201 0.3201 0.9474 1828.3188 2169.6624)">
			<stop  offset="3.200000e-07" style="stop-color:#78A7FF"/>
			<stop  offset="1" style="stop-color:#3D79F3"/>
		</linearGradient>
		<path style="fill:url(#SVGID_00000124142867538134493710000015060276980320072328_);" d="M735.808,3250.753h67.609l27.3-33.327
			c0,0-177.763-83.398-168.93-139.662c12.238-77.973,214.847-231.9,214.847-231.9s50.593-111.833,33.874-111.201
			c-121.764,4.617-367.75,233.222-368.418,340.688C541.752,3129.863,665.915,3209.985,735.808,3250.753z"/>
		<path style="fill:#070159;" d="M1116.863,2548.2c0,3.101-2.5,5.569-5.569,5.569c-3.069,0-5.569-2.468-5.569-5.569
			c0-3.069,2.5-5.537,5.569-5.537C1114.363,2542.663,1116.863,2545.131,1116.863,2548.2z"/>
		
			<linearGradient id="SVGID_00000049206233044658813490000008806840752659268003_" gradientUnits="userSpaceOnUse" x1="1088.1102" y1="2534.0193" x2="1114.8784" y2="2534.0193">
			<stop  offset="0" style="stop-color:#771E24"/>
			<stop  offset="1" style="stop-color:#47090E"/>
		</linearGradient>
		<path style="fill:url(#SVGID_00000049206233044658813490000008806840752659268003_);" d="M1114.844,2524.82
			c0.229,1.261-0.745,2.35-1.72,3.21c-4.874,4.53-9.747,9.06-14.678,13.59c-1.376,1.319-2.809,2.637-4.644,3.21
			c-1.835,0.631-4.071,0.229-5.16-1.375c-0.975-1.548-0.516-3.67,0.631-5.104c0.516-0.689,12.901-12.671,20.469-15.023
			c0.975-0.286,1.95-0.515,2.982-0.343C1113.698,2523.099,1114.672,2523.844,1114.844,2524.82z"/>
		<g>
			<path style="fill:#EC8B73;" d="M1130.148,2622.858c-4.17,1.709-8.682,2.118-13.057,1.23c-3.76-0.821-7.452-2.599-10.46-5.401
				c-1.23-1.026-1.299-2.802-0.205-3.966c1.025-1.23,2.871-1.299,4.033-0.272c5.401,4.99,13.126,5.673,19.21,2.392
				C1129.875,2618.755,1130.011,2620.806,1130.148,2622.858z"/>
		</g>
		<g>
			<path style="fill:#C2D5FF;" d="M1542.922,2155.015c0,108.257-87.949,196.025-196.206,196.025
				c-108.258,0-196.024-87.768-196.024-196.025c0-108.257,87.766-196.021,196.024-196.021
				C1454.974,1958.994,1542.922,2046.758,1542.922,2155.015z"/>
			
				<linearGradient id="SVGID_00000112597415313785412280000005508777805366374287_" gradientUnits="userSpaceOnUse" x1="1199.0629" y1="2155.0825" x2="1494.5507" y2="2155.0825">
				<stop  offset="2.200000e-07" style="stop-color:#FFBB83"/>
				<stop  offset="1" style="stop-color:#FF9D45"/>
			</linearGradient>
			<path style="fill:url(#SVGID_00000112597415313785412280000005508777805366374287_);" d="M1494.551,2154.991
				c0,34.707-11.938,66.661-32.138,92.007c-27.179,33.972-68.867,55.829-115.697,55.829c-46.831,0-88.518-21.857-115.698-55.829
				c-20.017-25.346-31.954-57.3-31.954-92.007c0-81.542,66.113-147.652,147.653-147.652
				C1428.255,2007.338,1494.551,2073.448,1494.551,2154.991z"/>
			<g>
				<path style="fill:#FFFFFF;" d="M1462.412,2246.998c-27.179,33.972-68.867,55.829-115.697,55.829
					c-46.831,0-88.518-21.857-115.698-55.829c27.181-33.976,68.867-55.829,115.698-55.829
					C1393.545,2191.168,1435.233,2213.021,1462.412,2246.998z"/>
				<path style="fill:#FFFFFF;" d="M1402.36,2149.393c0,30.667-24.792,55.646-55.462,55.646c-30.852,0-55.644-24.978-55.644-55.646
					c0-30.672,24.792-55.646,55.644-55.646C1377.568,2093.747,1402.36,2118.721,1402.36,2149.393z"/>
			</g>
		</g>
		<g>
			<path style="fill:#FDCCC5;" d="M1344.75,2391.495c-20.788-12.436-36.357-28.214-47.585-46.773l41.236,6.318
				c0,0-21.981-48.468-0.581-55.041c64.911-19.937,94.899,27.673,64.369,85.856L1344.75,2391.495z"/>
		</g>
		<g>
			
				<linearGradient id="SVGID_00000096781028932721301520000007475836611175233411_" gradientUnits="userSpaceOnUse" x1="1085.9685" y1="2877.6008" x2="838.7671" y2="3361.9436">
				<stop  offset="3.200000e-07" style="stop-color:#78A7FF"/>
				<stop  offset="1" style="stop-color:#3D79F3"/>
			</linearGradient>
			<path style="fill:url(#SVGID_00000096781028932721301520000007475836611175233411_);" d="M1471.492,2758.266
				c-42.535,85.374-323.357,181.996-323.357,181.996l-107.472,316.525l-370.293,13.097c0,0,46.448-469.419,201.51-523.726
				c155.382-53.971,203.578-11.188,270.193,0c53.652,9.011,177.296-18.975,208.059-63.779
				c39.58-56.926-15.993-289.104-15.993-289.104c-1.759-10.479,74.635-23.3,76.394-12.822
				C1410.533,2380.455,1514.986,2670.928,1471.492,2758.266z"/>
		</g>
		<g>
			<polygon style="fill:#F1AB97;" points="625.279,3874.802 581.922,3916.615 538.84,3874.802 550.367,3841.069 617.197,3825.051 
							"/>
			<g>
				
					<linearGradient id="SVGID_00000144339030452733932150000017714780755060223903_" gradientUnits="userSpaceOnUse" x1="12895.8975" y1="4186.6572" x2="13154.9258" y2="4186.6572" gradientTransform="matrix(0.2868 0.958 -0.958 0.2868 831.6734 -9731.6533)">
					<stop  offset="3.200000e-07" style="stop-color:#FF8888"/>
					<stop  offset="1" style="stop-color:#F24E4E"/>
				</linearGradient>
				<path style="fill:url(#SVGID_00000144339030452733932150000017714780755060223903_);" d="M530.67,4081.658
					c-2.622-1.414-4.789-3.67-6.256-6.215c-29.666-52.677-31.163-105.148-28.327-145.255c2.863-41.057-26.379-31.99-27.815-74.038
					c-0.637-19.438,23.006-26.751,48.756-29.12c18.497-1.689,38.027-0.705,50.47,0.203c4.746,0.385,7.02,6.143,3.747,9.635
					c-11.267,11.931-15.317,22.801-15.156,32.253c0.154,17.306,14.549,29.721,23.768,34.813c3.737,2.258,6.667,3.115,7.297,2.605
					c3.172-2.564,22.231-20.945,29.934-9.902c4.629,6.544-2.348,22.844-13.151,40.526c-1.002,1.635-2.078,3.291-3.224,4.969
					c-2.228,3.572-4.6,7.187-7.089,10.68c-1.146,1.678-2.314,3.284-3.482,4.89c-2.711,3.795-5.372,7.497-8.097,10.982
					c-1.24,1.627-2.429,3.161-3.621,4.695c-1.758,2.254-3.539,4.436-5.198,6.502c-4.477,5.502-6.324,10.609-6.572,15.551
					c-0.336,7.01,2.454,13.712,5.368,21.084c4.785,12.308,9.804,26.195,0.47,45.635c-1.602,3.306-3.259,6.158-4.954,8.628
					C554.001,4090.613,538.067,4085.647,530.67,4081.658z"/>
				<path style="fill:#F9C55F;" d="M501.406,3924.008c-0.874-7.687-4.942-14.614-9.293-21.011
					c-4.351-6.396-9.14-12.643-11.798-19.908c-1.423-3.891-3.769-12.354-0.777-16.03c2.918-3.584,8.516,0.43,10.96,2.594
					c8.616,7.624,17.308,14.812,27.126,20.876c5.404,3.338,10.998,6.368,16.749,9.065c6.985,3.276,14.581,6.366,19.027,12.671
					c-5.339,2.765-12.122,2.505-17.234-0.661c-1.35-0.836-2.614-1.87-4.13-2.343s-3.426-0.203-4.284,1.133
					c-0.686,1.067-0.509,2.468-0.142,3.683c1.736,5.745,6.838,9.716,11.655,13.296c6.249,4.643,12.498,9.286,18.748,13.929
					c-1.21,3.831-5.687,5.826-9.696,5.562c-4.009-0.264-7.674-2.241-11.238-4.097c-3.564-1.856-7.351-3.677-11.368-3.588
					c-1.685,7.055,2.347,14.338,7.635,19.302c5.289,4.964,11.838,8.39,17.349,13.106c2.196,1.879,4.397,4.536,3.688,7.339
					c-0.588,2.324-2.952,3.698-5.179,4.584c-11.023,4.387-24.184,2.938-33.989-3.743c-9.805-6.681-15.968-18.399-15.918-30.263"/>
				<path style="fill:#070159;" d="M530.658,4081.662c-2.622-1.414-4.789-3.67-6.256-6.215
					c-29.666-52.677-31.162-105.148-28.327-145.255c2.863-41.057-26.379-31.99-27.815-74.038
					c-0.468-14.935,13.363-22.765,31.594-26.653c-11.019,4.633-18.235,11.74-17.904,22.554c1.438,42.047,30.678,32.98,27.815,74.038
					c-2.833,40.106-1.338,92.579,28.327,145.255c1.467,2.544,3.636,4.801,6.258,6.214c3.089,1.667,7.742,3.571,13.094,3.618
					C546.779,4088.3,536.276,4084.691,530.658,4081.662z"/>
				<path style="fill:#070159;" d="M567.524,4070.783c-7.369-3.369-13.359-9.741-15.861-18.101
					c-4.573-15.277,4.111-31.381,19.389-35.954c0.287-0.086,0.647-0.194,0.957-0.208c4.785,12.308,9.804,26.195,0.47,45.635
					C570.877,4065.461,569.219,4068.313,567.524,4070.783z"/>
				<path style="fill:#070159;" d="M556.076,3869.125c-16.859,1.121-32.812-9.415-37.881-26.349
					c-1.575-5.26-1.932-10.649-1.18-15.743c18.496-1.689,38.027-0.705,50.47,0.203c4.747,0.385,7.02,6.143,3.747,9.635
					C559.965,3848.803,555.915,3859.673,556.076,3869.125z"/>
				<g>
					<g>
						<path style="fill:#FFFFFF;" d="M600.711,3942.133c-6.253-1.74-15.53-5.716-21.122-14.171
							c-0.158-0.266-0.295-0.461-0.381-0.749c-0.345-1.153,0.123-2.471,1.169-3.177c1.311-0.864,3.062-0.524,3.926,0.788
							c5.162,7.798,14.46,11.061,19.633,12.339C602.934,3938.798,601.858,3940.454,600.711,3942.133z"/>
					</g>
					<g>
						<path style="fill:#FFFFFF;" d="M590.14,3957.702c-6.173-2-14.334-5.916-19.401-13.665c-0.158-0.267-0.245-0.555-0.309-0.771
							c-0.345-1.153,0.053-2.45,1.097-3.155c1.311-0.864,3.062-0.523,3.926,0.788c4.73,7.143,12.883,10.512,18.169,11.913
							C592.476,3954.49,591.308,3956.096,590.14,3957.702z"/>
					</g>
					<g>
						<path style="fill:#FFFFFF;" d="M578.423,3973.38c-5.617-2.244-12.164-6.016-16.411-12.597
							c-0.137-0.194-0.223-0.483-0.288-0.699c-0.367-1.225,0.031-2.522,1.097-3.155c1.311-0.864,3.062-0.524,3.926,0.788
							c3.887,5.903,10.21,9.192,15.296,10.967C580.803,3970.312,579.614,3971.846,578.423,3973.38z"/>
					</g>
				</g>
			</g>
		</g>
		<g>
			<polygon style="fill:#F1AB97;" points="1322.109,3870.3 1344.23,3934.321 1290.361,3960.826 1262.472,3938.625 1269.869,3870.3 
							"/>
			<g>
				
					<linearGradient id="SVGID_00000074403945047376675360000008433165526392846227_" gradientUnits="userSpaceOnUse" x1="1594.0491" y1="4156.7852" x2="1853.0894" y2="4156.7852" gradientTransform="matrix(0.9986 0.0522 -0.0522 0.9986 -139.4649 -272.3515)">
					<stop  offset="3.200000e-07" style="stop-color:#FF8888"/>
					<stop  offset="1" style="stop-color:#F24E4E"/>
				</linearGradient>
				<path style="fill:url(#SVGID_00000074403945047376675360000008433165526392846227_);" d="M1482.413,4038.107
					c-2.214,1.994-5.067,3.275-7.957,3.801c-59.586,10.216-109.504-6.025-146.319-22.187c-37.702-16.508-39,14.081-79.08,1.288
					c-18.52-5.939-17.453-30.664-11.022-55.71c4.631-17.987,12.128-36.048,17.169-47.46c1.959-4.34,8.146-4.545,10.334-0.287
					c7.446,14.624,16.319,22.094,25.275,25.122c16.349,5.677,32.883-3.703,40.779-10.672c3.383-2.76,5.176-5.23,4.908-5.996
					c-1.348-3.85-12.245-27.981,0.744-31.52c7.72-2.158,20.723,9.896,33.74,26.017c1.202,1.494,2.401,3.064,3.595,4.708
					c2.614,3.3,5.221,6.75,7.673,10.269c1.194,1.644,2.314,3.284,3.433,4.924c2.662,3.83,5.253,7.581,7.618,11.32
					c1.115,1.715,2.16,3.351,3.204,4.989c1.531,2.414,2.987,4.825,4.375,7.082c3.675,6.068,7.863,9.525,12.434,11.421
					c6.489,2.675,13.739,2.302,21.661,2.037c13.2-0.365,27.967-0.421,43.133,14.909c2.574,2.621,4.703,5.141,6.459,7.568
					C1498.695,4019.148,1488.658,4032.483,1482.413,4038.107z"/>
				<path style="fill:#F9C55F;" d="M1324.107,4012.632c-7.533-1.763-15.425-0.262-22.912,1.684
					c-7.488,1.946-14.981,4.355-22.717,4.413c-4.143,0.031-12.902-0.607-15.357-4.661c-2.394-3.954,3.27-7.875,6.129-9.449
					c10.079-5.549,19.771-11.317,28.785-18.522c4.961-3.966,9.697-8.215,14.171-12.723c5.434-5.476,10.9-11.59,18.333-13.656
					c0.808,5.958-1.719,12.259-6.42,16.007c-1.242,0.99-2.64,1.832-3.595,3.101c-0.955,1.269-1.344,3.157-0.375,4.416
					c0.774,1.005,2.153,1.31,3.421,1.373c5.994,0.298,11.45-3.171,16.442-6.503c6.475-4.323,12.949-8.646,19.424-12.969
					c3.201,2.428,3.573,7.315,1.976,11.002c-1.598,3.687-4.692,6.473-7.638,9.205c-2.946,2.732-5.935,5.686-7.203,9.499
					c6.077,3.96,14.292,2.614,20.746-0.697c6.454-3.311,11.884-8.326,18.179-11.929c2.509-1.436,5.751-2.615,8.152-1.005
					c1.991,1.335,2.489,4.024,2.575,6.419c0.423,11.857-5.369,23.763-14.958,30.749c-9.59,6.986-22.698,8.848-33.854,4.81"/>
				<path style="fill:#070159;" d="M1482.413,4038.119c-2.214,1.994-5.067,3.275-7.957,3.801
					c-59.586,10.217-109.504-6.025-146.319-22.187c-37.701-16.508-39,14.081-79.08,1.288c-14.222-4.583-16.943-20.242-14.471-38.719
					c0.656,11.936,4.921,21.121,15.217,24.448c40.08,12.791,41.378-17.796,79.08-1.288c36.816,16.16,86.733,32.404,146.319,22.187
					c2.89-0.526,5.744-1.809,7.957-3.802c2.609-2.348,5.968-6.089,7.812-11.114
					C1494.087,4025.171,1487.155,4033.847,1482.413,4038.119z"/>
				<path style="fill:#070159;" d="M1484.57,3999.742c-5.652,5.806-13.668,9.304-22.381,8.848
					c-15.925-0.833-28.169-14.428-27.336-30.354c0.016-0.299,0.035-0.675,0.126-0.972c13.2-0.365,27.967-0.421,43.133,14.909
					C1480.686,3994.794,1482.814,3997.314,1484.57,3999.742z"/>
				<path style="fill:#070159;" d="M1290.813,3942.686c-4.616,16.253-19.904,27.732-37.556,26.81
					c-5.483-0.287-10.679-1.763-15.222-4.185c4.631-17.987,12.128-36.048,17.169-47.46c1.959-4.34,8.146-4.545,10.334-0.287
					C1272.984,3932.188,1281.858,3939.658,1290.813,3942.686z"/>
				<g>
					<g>
						<path style="fill:#FFFFFF;" d="M1374.581,3925.211c-3.742,5.303-10.607,12.702-20.45,15.124
							c-0.304,0.06-0.534,0.123-0.834,0.107c-1.202-0.063-2.286-0.947-2.598-2.17c-0.372-1.525,0.536-3.06,2.063-3.432
							c9.08-2.238,15.28-9.896,18.224-14.338C1372.188,3921.997,1373.386,3923.567,1374.581,3925.211z"/>
					</g>
					<g>
						<path style="fill:#FFFFFF;" d="M1385.687,3940.404c-3.96,5.14-10.394,11.509-19.395,13.673
							c-0.304,0.06-0.605,0.044-0.83,0.032c-1.202-0.063-2.289-0.874-2.602-2.094c-0.372-1.525,0.537-3.059,2.063-3.432
							c8.318-2.052,14.233-8.596,17.331-13.103C1383.448,3937.124,1384.568,3938.764,1385.687,3940.404z"/>
					</g>
					<g>
						<path style="fill:#FFFFFF;" d="M1396.509,3956.712c-4.003,4.535-9.758,9.431-17.383,11.217
							c-0.229,0.063-0.53,0.048-0.755,0.036c-1.277-0.067-2.364-0.877-2.602-2.094c-0.373-1.525,0.536-3.059,2.063-3.432
							c6.866-1.675,12.091-6.523,15.474-10.715C1394.421,3953.438,1395.465,3955.074,1396.509,3956.712z"/>
					</g>
				</g>
			</g>
		</g>
		
			<linearGradient id="SVGID_00000161629608350565330740000018023718799043527556_" gradientUnits="userSpaceOnUse" x1="586.7016" y1="3652.7915" x2="1158.5465" y2="3652.7915">
			<stop  offset="0" style="stop-color:#771E24"/>
			<stop  offset="1" style="stop-color:#47090E"/>
		</linearGradient>
		<path style="fill:url(#SVGID_00000161629608350565330740000018023718799043527556_);" d="M645.708,3479.464
			c-8.321,79.177,302.67,115.669,290.333,194.32c-14.151,90.208-345.803,140.009-345.803,140.009
			c-14.985,6.776,21.585,93.39,36.57,86.614c0,0,448.037-45.14,520.559-156.303c56.253-86.226-118.052-337.997-118.052-337.997
			S655.228,3388.875,645.708,3479.464z"/>
		
			<linearGradient id="SVGID_00000156550939385587931390000002774145551038987916_" gradientUnits="userSpaceOnUse" x1="628.4908" y1="3550.9131" x2="1452.6548" y2="3550.9131">
			<stop  offset="0" style="stop-color:#771E24"/>
			<stop  offset="1" style="stop-color:#47090E"/>
		</linearGradient>
		<path style="fill:url(#SVGID_00000156550939385587931390000002774145551038987916_);" d="M670.328,3269.96
			c0,0,612.724-134.284,744.699-1.767c115.761,116.236-72.525,612.987-72.525,612.987c0,14.526-86.884,14.526-86.884,0
			c0,0,65.693-329.026-6.88-396.576c-104.645-97.402-453.468,126.348-570.163,43.765
			C570.916,3452.181,670.328,3269.96,670.328,3269.96z"/>
		<path style="fill:#FFFFFF;" d="M3578.618,2558.041v692.035c0,22.386-18.147,40.533-40.533,40.533H2231.253
			c-22.386,0-40.533-18.147-40.533-40.533v-692.035c0-22.386,18.147-40.533,40.533-40.533h1306.832
			C3560.471,2517.508,3578.618,2535.656,3578.618,2558.041z"/>
		
			<linearGradient id="SVGID_00000016062506863650689030000004721244178553799827_" gradientUnits="userSpaceOnUse" x1="2250.949" y1="2800.1924" x2="2960.7327" y2="2800.1924">
			<stop  offset="0" style="stop-color:#E7ECFF"/>
			<stop  offset="1" style="stop-color:#C2D5FF"/>
		</linearGradient>
		<path style="fill:url(#SVGID_00000016062506863650689030000004721244178553799827_);" d="M2960.733,2614.658v371.068
			c0,18.07-14.648,32.718-32.718,32.718h-644.348c-18.069,0-32.718-14.648-32.718-32.718v-371.068
			c0-18.07,14.648-32.718,32.718-32.718h644.348C2946.084,2581.941,2960.733,2596.589,2960.733,2614.658z"/>
		<g>
			
				<linearGradient id="SVGID_00000151516666747495797230000014961367258888033696_" gradientUnits="userSpaceOnUse" x1="3276.1228" y1="2609.8882" x2="3276.3213" y2="2645.8223">
				<stop  offset="0" style="stop-color:#E7ECFF"/>
				<stop  offset="1" style="stop-color:#C2D5FF"/>
			</linearGradient>
			<path style="fill:url(#SVGID_00000151516666747495797230000014961367258888033696_);" d="M3518.39,2618.23v19.25
				c0,3.89-3.154,7.044-7.043,7.044h-470.248c-3.89,0-7.044-3.154-7.044-7.044v-19.25c0-3.89,3.154-7.044,7.044-7.044h470.248
				C3515.236,2611.187,3518.39,2614.34,3518.39,2618.23z"/>
			
				<linearGradient id="SVGID_00000141414427355705599700000003675072565025750147_" gradientUnits="userSpaceOnUse" x1="3276.1228" y1="2684.9246" x2="3276.3213" y2="2720.8584">
				<stop  offset="0" style="stop-color:#E7ECFF"/>
				<stop  offset="1" style="stop-color:#C2D5FF"/>
			</linearGradient>
			<path style="fill:url(#SVGID_00000141414427355705599700000003675072565025750147_);" d="M3518.39,2693.267v19.25
				c0,3.89-3.154,7.043-7.043,7.043h-470.248c-3.89,0-7.044-3.154-7.044-7.043v-19.25c0-3.89,3.154-7.044,7.044-7.044h470.248
				C3515.236,2686.223,3518.39,2689.376,3518.39,2693.267z"/>
			
				<linearGradient id="SVGID_00000142138404764357697730000001676137778843901366_" gradientUnits="userSpaceOnUse" x1="3155.0425" y1="2760.6296" x2="3155.2336" y2="2795.2258">
				<stop  offset="0" style="stop-color:#E7ECFF"/>
				<stop  offset="1" style="stop-color:#C2D5FF"/>
			</linearGradient>
			<path style="fill:url(#SVGID_00000142138404764357697730000001676137778843901366_);" d="M3276.222,2768.303v19.25
				c0,3.89-3.154,7.044-7.043,7.044h-228.081c-3.89,0-7.044-3.154-7.044-7.044v-19.25c0-3.89,3.154-7.043,7.044-7.043h228.081
				C3273.068,2761.259,3276.222,2764.413,3276.222,2768.303z"/>
			
				<linearGradient id="SVGID_00000070101868827210329210000001063968292152811432_" gradientUnits="userSpaceOnUse" x1="3276.1228" y1="2834.9971" x2="3276.3213" y2="2870.9312">
				<stop  offset="0" style="stop-color:#E7ECFF"/>
				<stop  offset="1" style="stop-color:#C2D5FF"/>
			</linearGradient>
			<path style="fill:url(#SVGID_00000070101868827210329210000001063968292152811432_);" d="M3518.39,2843.339v19.25
				c0,3.89-3.154,7.044-7.043,7.044h-470.248c-3.89,0-7.044-3.154-7.044-7.044v-19.25c0-3.89,3.154-7.044,7.044-7.044h470.248
				C3515.236,2836.295,3518.39,2839.449,3518.39,2843.339z"/>
			
				<linearGradient id="SVGID_00000152232051338958366170000003703264320492863638_" gradientUnits="userSpaceOnUse" x1="3170.8386" y1="2910.613" x2="3171.0386" y2="2946.8372">
				<stop  offset="0" style="stop-color:#E7ECFF"/>
				<stop  offset="1" style="stop-color:#C2D5FF"/>
			</linearGradient>
			<path style="fill:url(#SVGID_00000152232051338958366170000003703264320492863638_);" d="M3300.771,2911.33h-259.672
				c-3.89,0-7.044,3.154-7.044,7.044v19.254c0,3.89,3.154,7.044,7.044,7.044h259.672c3.89,0,7.044-3.154,7.044-7.044v-19.254
				C3307.814,2914.483,3304.66,2911.33,3300.771,2911.33z"/>
			
				<linearGradient id="SVGID_00000011720959272534533390000004340694141053365673_" gradientUnits="userSpaceOnUse" x1="3439.3447" y1="2908.3513" x2="3439.5464" y2="2944.8594">
				<stop  offset="0" style="stop-color:#E7ECFF"/>
				<stop  offset="1" style="stop-color:#C2D5FF"/>
			</linearGradient>
			<path style="fill:url(#SVGID_00000011720959272534533390000004340694141053365673_);" d="M3397.881,2918.374v19.254
				c0,3.89,3.153,7.044,7.043,7.044h69.058c3.89,0,7.043-3.154,7.043-7.044v-19.254c0-3.89-3.153-7.044-7.043-7.044h-69.058
				C3401.034,2911.33,3397.881,2914.483,3397.881,2918.374z"/>
		</g>
		<g>
			
				<linearGradient id="SVGID_00000147222477461544661570000008954965958816464315_" gradientUnits="userSpaceOnUse" x1="2800.2319" y1="3150.1287" x2="2999.0979" y2="3150.1287">
				<stop  offset="0" style="stop-color:#E7ECFF"/>
				<stop  offset="1" style="stop-color:#C2D5FF"/>
			</linearGradient>
			<path style="fill:url(#SVGID_00000147222477461544661570000008954965958816464315_);" d="M2999.098,3088.992v122.273
				c0,7.798-6.321,14.119-14.119,14.119h-170.628c-7.798,0-14.119-6.321-14.119-14.119v-122.273c0-7.798,6.321-14.119,14.119-14.119
				h170.628C2992.777,3074.873,2999.098,3081.194,2999.098,3088.992z"/>
			<path style="fill:#FFFFFF;" d="M2922.143,3155.472l-37.107,27.382c-4.363,3.22-10.533,0.105-10.533-5.318v-54.815
				c0-5.425,6.176-8.539,10.538-5.314l37.107,27.434C2925.723,3147.484,2925.72,3152.833,2922.143,3155.472z"/>
		</g>
		<g>
			
				<linearGradient id="SVGID_00000038374239360371801860000005387433101506284708_" gradientUnits="userSpaceOnUse" x1="3055.7051" y1="3150.1287" x2="3254.571" y2="3150.1287">
				<stop  offset="0" style="stop-color:#E7ECFF"/>
				<stop  offset="1" style="stop-color:#C2D5FF"/>
			</linearGradient>
			<path style="fill:url(#SVGID_00000038374239360371801860000005387433101506284708_);" d="M3254.571,3088.992v122.273
				c0,7.798-6.321,14.119-14.119,14.119h-170.628c-7.798,0-14.119-6.321-14.119-14.119v-122.273c0-7.798,6.322-14.119,14.119-14.119
				h170.628C3248.25,3074.873,3254.571,3081.194,3254.571,3088.992z"/>
			<path style="fill:#FFFFFF;" d="M3177.616,3155.472l-37.107,27.382c-4.363,3.22-10.533,0.105-10.533-5.318v-54.815
				c0-5.425,6.175-8.539,10.538-5.314l37.107,27.434C3181.196,3147.484,3181.194,3152.833,3177.616,3155.472z"/>
		</g>
		<g>
			
				<linearGradient id="SVGID_00000017509474869857227680000014468851255875034545_" gradientUnits="userSpaceOnUse" x1="3311.1785" y1="3150.1287" x2="3510.0442" y2="3150.1287">
				<stop  offset="0" style="stop-color:#E7ECFF"/>
				<stop  offset="1" style="stop-color:#C2D5FF"/>
			</linearGradient>
			<path style="fill:url(#SVGID_00000017509474869857227680000014468851255875034545_);" d="M3510.044,3088.992v122.273
				c0,7.798-6.321,14.119-14.119,14.119h-170.628c-7.798,0-14.119-6.321-14.119-14.119v-122.273c0-7.798,6.321-14.119,14.119-14.119
				h170.628C3503.723,3074.873,3510.044,3081.194,3510.044,3088.992z"/>
			<path style="fill:#FFFFFF;" d="M3433.089,3155.472l-37.107,27.382c-4.363,3.22-10.533,0.105-10.533-5.318v-54.815
				c0-5.425,6.176-8.539,10.538-5.314l37.107,27.434C3436.669,3147.484,3436.667,3152.833,3433.089,3155.472z"/>
		</g>
		
			<linearGradient id="SVGID_00000143579097376307274980000004226874394952926884_" gradientUnits="userSpaceOnUse" x1="2250.9346" y1="3093.4678" x2="2689.3083" y2="3093.4678">
			<stop  offset="0" style="stop-color:#E7ECFF"/>
			<stop  offset="1" style="stop-color:#C2D5FF"/>
		</linearGradient>
		<path style="fill:url(#SVGID_00000143579097376307274980000004226874394952926884_);" d="M2689.308,3093.468L2689.308,3093.468
			c0,10.27-8.325,18.595-18.595,18.595h-401.184c-10.27,0-18.595-8.325-18.595-18.595l0,0c0-10.27,8.325-18.595,18.595-18.595
			h401.184C2680.983,3074.873,2689.308,3083.198,2689.308,3093.468z"/>
		
			<linearGradient id="SVGID_00000077301272379447888750000009129758528999784880_" gradientUnits="userSpaceOnUse" x1="2250.9346" y1="3173.2813" x2="2576.2793" y2="3173.2813">
			<stop  offset="0" style="stop-color:#E7ECFF"/>
			<stop  offset="1" style="stop-color:#C2D5FF"/>
		</linearGradient>
		<path style="fill:url(#SVGID_00000077301272379447888750000009129758528999784880_);" d="M2576.279,3173.281L2576.279,3173.281
			c0,10.27-8.325,18.595-18.595,18.595h-288.155c-10.27,0-18.595-8.325-18.595-18.595l0,0c0-10.27,8.325-18.595,18.595-18.595
			h288.155C2567.954,3154.686,2576.279,3163.011,2576.279,3173.281z"/>
		<g>
			<g>
				<path style="fill:#FFFFFF;" d="M2729.079,2740.196c0,62.526-50.708,113.313-113.313,113.313
					c-62.526,0-113.233-50.786-113.233-113.313c0-62.527,50.707-113.233,113.233-113.233
					C2678.371,2626.963,2729.079,2677.67,2729.079,2740.196z"/>
				
					<linearGradient id="SVGID_00000010273436824307571730000015648001410205301669_" gradientUnits="userSpaceOnUse" x1="2574.1113" y1="2715.3516" x2="2641.0637" y2="2771.7581">
					<stop  offset="1.100000e-07" style="stop-color:#B3B3FF"/>
					<stop  offset="1" style="stop-color:#C2D5FF"/>
				</linearGradient>
				<path style="fill:url(#SVGID_00000010273436824307571730000015648001410205301669_);" d="M2659.036,2750.062l-48.446,39.126
					c-8.26,6.671-20.565,0.792-20.565-9.825v-78.253c0-10.617,12.305-16.497,20.565-9.826l48.446,39.127
					C2665.295,2735.466,2665.295,2745.007,2659.036,2750.062z"/>
			</g>
			<g>
				<path style="fill:#FFFFFF;" d="M2366.142,2944.767l-38.018,30.704c-6.482,5.235-16.138,0.622-16.138-7.71v-61.409
					c0-8.332,9.656-12.946,16.138-7.71l38.018,30.704C2371.054,2933.313,2371.054,2940.8,2366.142,2944.767z"/>
				<path style="fill:#FFFFFF;" d="M2914.168,2937.056L2914.168,2937.056c0,3.519-2.852,6.371-6.371,6.371h-468.192
					c-3.518,0-6.371-2.852-6.371-6.371l0,0c0-3.518,2.852-6.371,6.371-6.371h468.192
					C2911.316,2930.685,2914.168,2933.538,2914.168,2937.056z"/>
				
					<linearGradient id="SVGID_00000153679463574235614020000005192553859934634405_" gradientUnits="userSpaceOnUse" x1="2512.6946" y1="2926.5171" x2="2537.7131" y2="2947.5947">
					<stop  offset="1.100000e-07" style="stop-color:#B3B3FF"/>
					<stop  offset="1" style="stop-color:#C2D5FF"/>
				</linearGradient>
				<path style="fill:url(#SVGID_00000153679463574235614020000005192553859934634405_);" d="M2535.388,2927.476v19.161
					c0,5.625-4.56,10.184-10.184,10.184l0,0c-5.625,0-10.184-4.56-10.184-10.184v-19.161c0-5.625,4.56-10.184,10.184-10.184l0,0
					C2530.829,2917.292,2535.388,2921.851,2535.388,2927.476z"/>
			</g>
		</g>
		<g>
			<path style="fill:#C2D5FF;" d="M2296.229,2150.365v199.754c0,8.825-7.154,15.978-15.978,15.978h-70.118
				c-8.824,0-15.978-7.154-15.978-15.978v-199.754c0-8.824,7.154-15.978,15.978-15.978h70.118
				C2289.075,2134.386,2296.229,2141.54,2296.229,2150.365z"/>
			<path style="fill:#C2D5FF;" d="M2465.845,2040.852v309.266c0,8.825-7.154,15.978-15.978,15.978h-70.118
				c-8.824,0-15.978-7.154-15.978-15.978v-309.266c0-8.824,7.154-15.978,15.978-15.978h70.118
				C2458.692,2024.874,2465.845,2032.028,2465.845,2040.852z"/>
			<path style="fill:#C2D5FF;" d="M2635.462,2199.714v150.405c0,8.825-7.154,15.978-15.978,15.978h-70.118
				c-8.824,0-15.978-7.154-15.978-15.978v-150.405c0-8.824,7.154-15.978,15.978-15.978h70.118
				C2628.308,2183.736,2635.462,2190.889,2635.462,2199.714z"/>
			<path style="fill:#C2D5FF;" d="M2805.078,2075.247v274.872c0,8.825-7.154,15.978-15.978,15.978h-70.118
				c-8.825,0-15.978-7.154-15.978-15.978v-274.872c0-8.824,7.154-15.978,15.978-15.978h70.118
				C2797.925,2059.269,2805.078,2066.423,2805.078,2075.247z"/>
			<path style="fill:#C2D5FF;" d="M2974.695,2255.406v94.712c0,8.825-7.154,15.978-15.978,15.978h-70.118
				c-8.824,0-15.978-7.154-15.978-15.978v-94.712c0-8.824,7.154-15.978,15.978-15.978h70.118
				C2967.541,2239.428,2974.695,2246.582,2974.695,2255.406z"/>
		</g>
		<g>
			<rect x="2145.8" y="2361.898" style="fill:#C2D5FF;" width="877.251" height="8.399"/>
		</g>
		<g>
			<path style="fill:#FDCCC5;" d="M4050.685,2423.159c-7.832-21.787-20.671-64.513-36.337-59.489
				c-8.134,2.609-1.828,41.131-1.828,41.131s-36.036-36.34-58.006-47.221c-34.702-17.187-113.322,73.872,54.21,119.857
				L4050.685,2423.159z"/>
		</g>
		<g>
			
				<linearGradient id="SVGID_00000044156135282002834820000001979230301207178678_" gradientUnits="userSpaceOnUse" x1="9290.042" y1="2873.615" x2="9133.0801" y2="3271.9312" gradientTransform="matrix(-0.9602 -0.2793 -0.2793 0.9602 13987.8203 2091.4336)">
				<stop  offset="2.200000e-07" style="stop-color:#FFBB83"/>
				<stop  offset="1" style="stop-color:#FF9D45"/>
			</linearGradient>
			<path style="fill:url(#SVGID_00000044156135282002834820000001979230301207178678_);" d="M4003.981,2478.988
				c0,0,223.932,225.746,322.626,200.468c85.041-21.782,174.16-128.059,199.48-216.681c11.822-41.431,32.087-92.288,27.864-136.714
				c-4.659-49.011-34.962-125.605-83.116-75.508c-53.764,55.935-99.484,310.809-158.443,319.223
				c-79.745,11.381-262.663-153.78-262.663-153.78C4040.551,2409.33,3994.803,2472.322,4003.981,2478.988z"/>
		</g>
		<g>
			
				<linearGradient id="SVGID_00000021834177345855100850000005723070326436069562_" gradientUnits="userSpaceOnUse" x1="3855.124" y1="1562.3804" x2="4434.1177" y2="1562.3804">
				<stop  offset="0" style="stop-color:#E7ECFF"/>
				<stop  offset="1" style="stop-color:#C2D5FF"/>
			</linearGradient>
			<path style="fill:url(#SVGID_00000021834177345855100850000005723070326436069562_);" d="M4432.981,1546.717
				c-9.069,74.299-73.979,129.182-148.83,129.182h-0.57v58.009c0,8.26-9.131,13.255-16.087,8.799l-104.29-66.808h-157.371
				c-80.942,0-149.094-63.861-150.681-144.787c-0.823-41.979,15.849-80.022,43.234-107.408
				c26.739-26.738,63.69-43.317,104.494-43.317h283.481C4374.084,1380.387,4443.947,1456.886,4432.981,1546.717z"/>
			<g>
				<path style="fill:#FFFFFF;" d="M4050.248,1521.164c0,26.035-21.111,47.146-47.142,47.146c-26.035,0-47.142-21.111-47.142-47.146
					c0-26.031,21.107-47.142,47.142-47.142C4029.137,1474.022,4050.248,1495.133,4050.248,1521.164z"/>
				<path style="fill:#FFFFFF;" d="M4191.763,1521.164c0,26.035-21.111,47.146-47.142,47.146c-26.035,0-47.143-21.111-47.143-47.146
					c0-26.031,21.107-47.142,47.143-47.142C4170.652,1474.022,4191.763,1495.133,4191.763,1521.164z"/>
				<path style="fill:#FFFFFF;" d="M4333.279,1521.164c0,26.035-21.111,47.146-47.143,47.146c-26.035,0-47.142-21.111-47.142-47.146
					c0-26.031,21.107-47.142,47.142-47.142C4312.168,1474.022,4333.279,1495.133,4333.279,1521.164z"/>
			</g>
		</g>
	</g>
</g>
</svg>
