<?xml version="1.0" encoding="utf-8"?>
<!-- Generator: Adobe Illustrator 27.5.0, SVG Export Plug-In . SVG Version: 6.00 Build 0)  -->
<svg version="1.1" id="Ñëîé_1" xmlns="http://www.w3.org/2000/svg" xmlns:xlink="http://www.w3.org/1999/xlink" x="0px" y="0px"
	 viewBox="0 0 822.638 413.082" style="enable-background:new 0 0 822.638 413.082;" xml:space="preserve">
<g>
	<defs>
		<rect id="SVGID_1_" x="0" width="822.638" height="413.082"/>
	</defs>
	<clipPath id="SVGID_00000086691402022303734900000017207870812255993519_">
		<use xlink:href="#SVGID_1_"  style="overflow:visible;"/>
	</clipPath>
	
		<rect x="0" style="clip-path:url(#SVGID_00000086691402022303734900000017207870812255993519_);fill:#387BA8;" width="822.638" height="413.082"/>
	<g style="clip-path:url(#SVGID_00000086691402022303734900000017207870812255993519_);">
		<path style="fill:#DADADA;" d="M152.698,119.55c5.556,5.219,11.479,9.774,17.501,14.1l0.374-0.607l0.374-0.607l0.374-0.607
			l0.374-0.607l1.056-1.713l0.374-0.607l0.374-0.607l0.374-0.607l0.374-0.607l-4.009-4.313c-5.839-4.192-11.546-8.593-16.739-13.475
			c-0.85-0.79-1.682-1.595-2.496-2.414c-0.274-0.315-0.545-0.631-0.814-0.949c-2.199-2.713-4.184-5.571-5.616-8.569
			c-1.415-2.992-2.319-6.107-2.16-9.104c-0.008-1.509,0.359-2.977,0.791-4.437c0.5-1.449,1.182-2.872,2.036-4.246
			c1.7-2.756,4.045-5.276,6.575-7.634c2.548-2.356,5.337-4.544,8.216-6.658c5.771-4.228,11.901-8.154,17.935-12.514
			c3.017-2.185,6.017-4.48,8.909-7.056c2.879-2.586,5.692-5.424,8.082-8.895c2.347-3.462,4.34-7.666,4.804-12.35
			c0.303-2.314,0.14-4.66-0.204-6.906c-0.421-2.222-1.024-4.386-1.878-6.349c-1.651-3.98-3.895-7.419-6.306-10.574
			c-1.332-1.738-2.743-3.361-4.194-4.921c0,0-0.003-0.003-0.004-0.004l-4.005-4.308l-0.004-0.004
			c-1.184-1.274-2.395-2.506-3.611-3.727c0,0-0.453,0.539-0.454,0.54c0,0-0.454,0.54-0.454,0.54c0,0-0.157,0.186-0.286,0.34
			c-0.091,0.108-0.168,0.2-0.168,0.2l-0.454,0.54l-1.282,1.525c0,0-0.016,0.019-0.042,0.05c-0.06,0.072-0.174,0.207-0.267,0.318
			l-0.145,0.173l-0.454,0.54c0,0-0.454,0.54-0.454,0.54l-0.454,0.54l4.009,4.312c0.382,0.384,0.764,0.77,1.144,1.157
			c0.671,0.777,1.32,1.569,1.939,2.379c0.09,0.117,0.179,0.235,0.268,0.352c2.004,2.657,3.766,5.457,4.969,8.366
			c1.262,3.033,1.886,6.149,1.509,9.133c-0.279,2.997-1.6,5.894-3.425,8.607c-1.858,2.707-4.27,5.183-6.861,7.504
			c-0.115,0.103-0.23,0.205-0.346,0.307l0,0c-2.506,2.204-5.203,4.269-7.975,6.276c-5.809,4.202-11.948,8.132-17.973,12.542
			c-2.533,1.861-5.051,3.809-7.491,5.955c-0.461,0.405-0.919,0.818-1.373,1.238c-2.846,2.661-5.628,5.59-7.891,9.232
			c-1.129,1.816-2.107,3.812-2.842,5.966c-0.672,2.172-1.198,4.474-1.216,6.816c-0.214,4.714,1.155,9.168,2.957,12.97
			c1.835,3.831,4.175,7.146,6.658,10.212c1.008,1.195,2.037,2.357,3.087,3.487c0.001,0.001,0.002,0.002,0.003,0.003l4.002,4.306
			c0,0,0.003,0.003,0.004,0.004l0.003,0.003C149.387,116.356,151.021,117.99,152.698,119.55z"/>
		<g>
			<path style="fill:#BBBBBD;" d="M174.642-6.48l4.914-5.846c2.708,2.718,5.389,5.495,7.809,8.653
				c2.411,3.155,4.655,6.594,6.306,10.574c0.854,1.963,1.457,4.127,1.878,6.349c0.344,2.246,0.507,4.591,0.204,6.906
				c-0.463,4.684-2.457,8.889-4.804,12.35c-2.39,3.47-5.204,6.308-8.082,8.894c-2.892,2.576-5.892,4.87-8.909,7.055
				c-6.034,4.36-12.164,8.286-17.935,12.514c-2.879,2.114-5.667,4.302-8.216,6.658c-2.53,2.357-4.875,4.878-6.575,7.634
				c-0.854,1.374-1.536,2.797-2.036,4.246c-0.433,1.459-0.799,2.928-0.791,4.436c-0.16,2.998,0.745,6.113,2.16,9.105
				c1.432,2.998,3.417,5.856,5.616,8.569c2.265,2.678,4.707,5.249,7.318,7.676c5.193,4.882,10.9,9.283,16.739,13.475l-4.049,6.569
				c-6.022-4.326-11.945-8.881-17.501-14.1c-2.787-2.592-5.457-5.389-7.99-8.391c-2.483-3.066-4.823-6.381-6.658-10.212
				c-1.802-3.802-3.171-8.256-2.957-12.97c0.018-2.342,0.544-4.645,1.216-6.816c0.735-2.154,1.713-4.15,2.842-5.966
				c2.263-3.642,5.046-6.571,7.891-9.232c2.864-2.646,5.854-4.981,8.865-7.193c6.025-4.41,12.164-8.34,17.973-12.542
				c2.9-2.1,5.718-4.263,8.322-6.583c2.591-2.321,5.003-4.797,6.861-7.504c1.825-2.713,3.146-5.61,3.425-8.607
				c0.377-2.984-0.247-6.101-1.509-9.133c-1.256-3.038-3.122-5.957-5.236-8.718C179.614-1.405,177.145-3.964,174.642-6.48z"/>
			<g>
				<path style="fill:#C4C4C6;" d="M175.096-7.021l4.006-4.766c2.689,2.7,5.35,5.457,7.743,8.579
					c2.383,3.118,4.592,6.51,6.207,10.403c0.837,1.921,1.421,4.027,1.831,6.186c0.333,2.18,0.492,4.45,0.198,6.688
					c-0.446,4.528-2.378,8.612-4.676,12.005c-2.341,3.4-5.117,6.204-7.969,8.766c-2.865,2.552-5.849,4.834-8.855,7.011
					c-6.013,4.346-12.144,8.272-17.939,12.517c-2.891,2.123-5.698,4.324-8.275,6.707c-2.56,2.386-4.945,4.944-6.697,7.781
					c-0.879,1.415-1.589,2.892-2.11,4.405c-0.455,1.525-0.836,3.071-0.83,4.656c-0.165,3.157,0.782,6.396,2.233,9.462
					c1.47,3.075,3.487,5.976,5.713,8.721c2.29,2.708,4.753,5.3,7.38,7.742c5.227,4.913,10.954,9.329,16.81,13.533l-3.301,5.355
					c-6.005-4.313-11.908-8.854-17.431-14.042c-2.771-2.577-5.42-5.354-7.927-8.326c-2.457-3.033-4.764-6.306-6.562-10.061
					c-1.766-3.727-3.092-8.058-2.884-12.613c0.016-2.265,0.527-4.491,1.177-6.596c0.713-2.088,1.664-4.032,2.767-5.807
					c2.211-3.56,4.953-6.451,7.77-9.084c2.835-2.619,5.806-4.941,8.805-7.144c6.002-4.393,12.14-8.323,17.97-12.54
					c2.911-2.107,5.746-4.283,8.376-6.626c2.617-2.345,5.067-4.855,6.974-7.633c1.873-2.782,3.257-5.8,3.552-8.953
					c0.395-3.139-0.264-6.398-1.562-9.515c-1.292-3.124-3.193-6.091-5.335-8.89C180.107-1.906,177.618-4.486,175.096-7.021z"/>
			</g>
			<g>
				<path style="fill:#CDCDCF;" d="M175.551-7.561l3.098-3.685c5.328,5.315,10.558,11.127,13.785,18.735
					c0.819,1.879,1.385,3.929,1.785,6.023c0.321,2.114,0.477,4.308,0.191,6.47c-0.429,4.372-2.299,8.335-4.549,11.659
					c-2.292,3.329-5.031,6.1-7.857,8.638c-2.839,2.529-5.805,4.799-8.8,6.968c-5.992,4.331-12.124,8.258-17.942,12.52
					c-2.903,2.132-5.729,4.347-8.335,6.757c-2.589,2.414-5.014,5.009-6.819,7.929c-0.905,1.455-1.641,2.985-2.185,4.563
					c-0.477,1.591-0.873,3.214-0.87,4.876c-0.17,3.315,0.82,6.678,2.307,9.819c1.507,3.152,3.557,6.095,5.809,8.873
					c2.315,2.738,4.799,5.35,7.442,7.808c5.26,4.945,11.007,9.374,16.88,13.591l-2.553,4.141
					c-5.988-4.301-11.871-8.828-17.36-13.984c-2.754-2.562-5.382-5.317-7.865-8.259c-2.431-3.001-4.705-6.232-6.466-9.909
					c-1.731-3.652-3.014-7.859-2.81-12.256c0.013-2.188,0.51-4.337,1.138-6.377c0.691-2.023,1.615-3.913,2.693-5.648
					c2.159-3.478,4.861-6.332,7.648-8.937c2.806-2.592,5.758-4.9,8.745-7.094c5.978-4.376,12.116-8.306,17.966-12.537
					c2.921-2.115,5.773-4.302,8.43-6.67c2.644-2.37,5.13-4.913,7.087-7.761c1.921-2.851,3.367-5.99,3.68-9.299
					c0.413-3.294-0.282-6.695-1.615-9.895c-1.329-3.211-3.264-6.227-5.434-9.061C180.599-2.407,178.091-5.007,175.551-7.561z"/>
			</g>
			<g>
				<path style="fill:#D2D2D3;" d="M176.005-8.101l2.19-2.605c5.293,5.275,10.469,11.051,13.62,18.489
					c0.802,1.837,1.349,3.83,1.738,5.86c0.31,2.048,0.463,4.166,0.185,6.252c-0.412,4.216-2.22,8.059-4.422,11.313
					c-2.243,3.259-4.945,5.997-7.744,8.509c-2.812,2.505-5.762,4.763-8.746,6.924c-5.971,4.316-12.104,8.244-17.945,12.522
					c-2.916,2.141-5.76,4.369-8.396,6.806c-2.618,2.442-5.084,5.076-6.94,8.077c-0.93,1.497-1.694,3.079-2.26,4.723
					c-0.499,1.657-0.91,3.357-0.909,5.096c-0.174,3.474,0.858,6.96,2.381,10.176c1.544,3.229,3.627,6.214,5.905,9.025
					c2.339,2.768,4.844,5.401,7.504,7.874c5.294,4.976,11.061,9.42,16.951,13.649l-1.804,2.927
					c-5.972-4.288-11.834-8.801-17.29-13.926c-2.738-2.547-5.345-5.281-7.803-8.193c-2.404-2.969-4.646-6.157-6.369-9.757
					c-1.695-3.577-2.935-7.66-2.736-11.898c0.011-2.111,0.493-4.182,1.098-6.157c0.67-1.958,1.566-3.796,2.618-5.489
					c2.107-3.396,4.768-6.212,7.527-8.789c2.776-2.565,5.71-4.86,8.685-7.045c5.955-4.359,12.091-8.288,17.963-12.534
					c2.932-2.123,5.801-4.323,8.484-6.714c2.671-2.395,5.194-4.971,7.199-7.889c1.97-2.921,3.477-6.18,3.807-9.645
					c0.432-3.45-0.299-6.992-1.668-10.276c-1.365-3.299-3.336-6.362-5.533-9.233C181.092-2.909,178.564-5.529,176.005-8.101z"/>
			</g>
			<g>
				<path style="fill:#DDDDDF;" d="M176.459-8.641l1.282-1.525c5.259,5.236,10.38,10.975,13.454,18.244
					c0.785,1.795,1.313,3.731,1.691,5.697c0.298,1.981,0.448,4.024,0.179,6.034c-0.395,4.06-2.14,7.782-4.294,10.967
					c-2.193,3.188-4.859,5.892-7.631,8.381c-2.785,2.481-5.718,4.727-8.692,6.88c-5.951,4.302-12.084,8.229-17.949,12.525
					c-2.928,2.15-5.791,4.392-8.456,6.855c-2.647,2.47-5.153,5.141-7.062,8.225c-0.955,1.537-1.747,3.173-2.334,4.882
					c-0.521,1.722-0.947,3.499-0.948,5.316c-0.18,3.632,0.896,7.242,2.454,10.533c1.581,3.306,3.698,6.333,6.001,9.177
					c2.364,2.798,4.89,5.452,7.566,7.94c5.328,5.007,11.114,9.465,17.021,13.706l-1.056,1.713
					c-5.955-4.276-11.797-8.775-17.22-13.869c-2.722-2.531-5.307-5.244-7.741-8.126c-2.378-2.936-4.587-6.082-6.273-9.605
					c-1.659-3.503-2.856-7.462-2.663-11.541c0.008-2.034,0.475-4.029,1.059-5.937c0.648-1.892,1.517-3.677,2.544-5.33
					c2.055-3.314,4.676-6.092,7.405-8.641c2.747-2.539,5.663-4.82,8.625-6.995c5.931-4.342,12.067-8.271,17.959-12.532
					c2.943-2.131,5.829-4.342,8.539-6.757c2.697-2.419,5.258-5.029,7.312-8.018c2.018-2.99,3.588-6.37,3.935-9.991
					c0.449-3.605-0.316-7.289-1.721-10.657C186.589,2.119,181.62-3.517,176.459-8.641z"/>
			</g>
		</g>
	</g>
	<g style="clip-path:url(#SVGID_00000086691402022303734900000017207870812255993519_);">
		<g>
			<path style="fill:#DADADA;" d="M569.304,319.693c6.114,0,11.07-4.956,11.07-11.07V134.197c0-3.057-1.239-5.825-3.242-7.828
				l-0.003-0.003l0,0l-6.722-6.717l-0.003-0.003c-2.003-2.002-4.77-3.24-7.825-3.24H118.187c-2.657,0-5.095,0.936-7.002,2.496
				c-2.483,2.03-4.068,5.117-4.068,8.575V301.9c0,3.056,1.238,5.822,3.24,7.825c0.001,0.001,0.002,0.002,0.003,0.003l6.713,6.717
				l0.003,0.003l0.003,0.003c2.003,2.003,4.771,3.242,7.828,3.242H569.304z"/>
			<path style="fill:#BBBBBD;" d="M573.65,301.9c0,6.114-4.956,11.07-11.07,11.07H118.187c-6.114,0-11.07-4.956-11.07-11.07V127.477
				c0-6.114,4.956-11.07,11.07-11.07H562.58c6.114,0,11.07,4.956,11.07,11.07V301.9z"/>
		</g>
		<path style="fill:#DADADA;" d="M155.979,152.994c2.146,0,3.902-1.756,3.902-3.902V132.91c0-1.073-0.439-2.048-1.146-2.756
			c0,0-1.103-1.103-1.103-1.103c-0.707-0.707-1.683-1.146-2.756-1.146h-33.842c-0.932,0-1.79,0.331-2.463,0.881
			c-0.877,0.717-1.439,1.806-1.439,3.021v16.182c0,1.073,0.439,2.048,1.146,2.756c0,0,1.102,1.102,1.103,1.103
			c0.707,0.707,1.683,1.146,2.756,1.146H155.979z M139.374,182.12c2.146,0,3.902-1.756,3.902-3.902v-16.182
			c0-1.073-0.439-2.048-1.146-2.756c0,0-1.103-1.103-1.103-1.104c-0.707-0.707-1.683-1.146-2.756-1.146h-17.236
			c-0.932,0-1.79,0.331-2.463,0.881c-0.877,0.717-1.439,1.806-1.439,3.021v16.182c0,1.073,0.439,2.048,1.146,2.755
			c0,0,0,0,0.001,0.001l1.102,1.102l0.001,0.001c0.707,0.707,1.683,1.146,2.756,1.146H139.374z M186.555,151.676
			c2.146,0,3.902-1.756,3.902-3.902v-16.182c0-1.073-0.439-2.048-1.146-2.756c0,0-1.103-1.103-1.103-1.103
			c-0.707-0.707-1.683-1.146-2.756-1.146h-17.236c-0.932,0-1.79,0.331-2.463,0.881c-0.877,0.717-1.439,1.806-1.439,3.021v16.182
			c0,1.073,0.439,2.048,1.146,2.756c0,0,1.103,1.103,1.103,1.103c0.707,0.707,1.683,1.146,2.756,1.146H186.555z M170.476,182.12
			c2.146,0,3.902-1.756,3.902-3.902v-16.182c0-1.073-0.439-2.048-1.146-2.756c0,0-1.103-1.103-1.103-1.104
			c-0.707-0.707-1.683-1.146-2.756-1.146h-17.236c-0.932,0-1.79,0.331-2.463,0.881c-0.877,0.717-1.439,1.806-1.439,3.021v16.182
			c0,1.073,0.439,2.048,1.146,2.756c0,0,1.102,1.103,1.103,1.104c0.707,0.707,1.683,1.146,2.756,1.146H170.476z M217.657,151.676
			c2.146,0,3.902-1.756,3.902-3.902v-16.182c0-1.073-0.439-2.048-1.146-2.756l-0.944-0.944c0,0-0.16-0.16-0.16-0.16
			c-0.707-0.707-1.683-1.146-2.756-1.146h-17.236c-0.932,0-1.79,0.331-2.463,0.881c-0.877,0.717-1.439,1.806-1.439,3.021v16.182
			c0,1.073,0.439,2.048,1.146,2.756c0,0,1.103,1.103,1.103,1.103c0.707,0.707,1.683,1.146,2.756,1.146H217.657z M155.979,212.563
			c2.146,0,3.902-1.756,3.902-3.902v-16.182c0-1.073-0.439-2.048-1.146-2.756l-1.093-1.094c0,0-0.009-0.009-0.01-0.01
			c-0.707-0.707-1.683-1.146-2.756-1.146h-33.842c-0.932,0-1.79,0.331-2.463,0.881c-0.877,0.717-1.439,1.806-1.439,3.021v16.182
			c0,1.073,0.439,2.048,1.146,2.755c0,0,0,0,0.001,0.001l1.102,1.102c0,0,0.001,0.001,0.001,0.001
			c0.707,0.707,1.683,1.146,2.756,1.146H155.979z M201.579,182.12c2.146,0,3.902-1.756,3.902-3.902v-16.182
			c0-1.073-0.439-2.048-1.146-2.756c0,0-1.103-1.103-1.103-1.103c-0.707-0.707-1.683-1.146-2.756-1.146h-17.236
			c-0.932,0-1.79,0.331-2.463,0.881c-0.877,0.717-1.439,1.806-1.439,3.021v16.182c0,1.073,0.439,2.048,1.146,2.756
			c0,0,1.103,1.103,1.103,1.104c0.707,0.707,1.683,1.146,2.756,1.146H201.579z M248.759,151.676c2.146,0,3.902-1.756,3.902-3.902
			v-16.182c0-1.073-0.439-2.048-1.146-2.756l-1.098-1.098l-0.006-0.006c-0.707-0.707-1.683-1.146-2.756-1.146h-17.236
			c-0.932,0-1.79,0.331-2.463,0.881c-0.877,0.717-1.439,1.806-1.439,3.021v16.182c0,1.073,0.439,2.048,1.146,2.756
			c0,0,1.103,1.103,1.103,1.103c0.707,0.707,1.683,1.146,2.756,1.146H248.759z M261.522,150.573c-0.792,0-1.532-0.239-2.149-0.65
			c-0.07-0.105-0.134-0.213-0.194-0.324L261.522,150.573z M186.555,212.563c2.146,0,3.902-1.756,3.902-3.902v-16.182
			c0-1.073-0.439-2.048-1.146-2.756c0,0-1.103-1.103-1.103-1.104c-0.707-0.707-1.683-1.146-2.756-1.146h-17.236
			c-0.932,0-1.79,0.331-2.463,0.881c-0.877,0.717-1.439,1.806-1.439,3.021v16.182c0,1.073,0.439,2.048,1.146,2.755l0,0.001
			l1.102,1.103l0.001,0.001c0.707,0.707,1.683,1.146,2.756,1.146H186.555z M232.681,182.12c2.146,0,3.902-1.756,3.902-3.902v-16.182
			c0-1.073-0.439-2.048-1.146-2.756c0,0-1.103-1.103-1.103-1.104c-0.707-0.707-1.683-1.146-2.756-1.146h-17.236
			c-0.932,0-1.79,0.331-2.463,0.881c-0.877,0.717-1.439,1.806-1.439,3.021v16.182c0,1.073,0.439,2.048,1.146,2.756
			c0,0,1.103,1.103,1.103,1.104c0.707,0.707,1.683,1.146,2.756,1.146H232.681z M165.644,243.007c2.146,0,3.902-1.756,3.902-3.902
			v-16.182c0-1.073-0.439-2.048-1.146-2.755l-0.001-0.001l-1.103-1.103l-0.001-0.001c-0.707-0.707-1.683-1.146-2.756-1.146h-43.506
			c-0.932,0-1.79,0.331-2.463,0.881c-0.877,0.717-1.439,1.807-1.439,3.021v16.182c0,1.073,0.439,2.048,1.145,2.755
			c0,0,0,0,0.001,0.001l1.102,1.102c0,0,0.001,0.001,0.001,0.001c0.707,0.707,1.683,1.146,2.756,1.146H165.644z M279.861,151.676
			c2.146,0,3.902-1.756,3.902-3.902v-16.182c0-1.073-0.439-2.048-1.146-2.756c0,0-1.103-1.103-1.104-1.103
			c-0.707-0.707-1.683-1.146-2.755-1.146h-17.236c-0.932,0-1.79,0.331-2.463,0.881c-0.877,0.717-1.439,1.806-1.439,3.021v16.182
			c0,1.073,0.439,2.048,1.146,2.756c0,0,0.001,0.001,0.001,0.001c0,0,1.102,1.102,1.102,1.102c0.707,0.707,1.683,1.146,2.756,1.146
			H279.861z M217.657,212.563c2.146,0,3.902-1.756,3.902-3.902v-16.182c0-1.073-0.439-2.048-1.146-2.756
			c0,0-1.103-1.103-1.103-1.104c-0.707-0.707-1.683-1.146-2.756-1.146h-17.236c-0.932,0-1.79,0.331-2.463,0.881
			c-0.877,0.717-1.439,1.806-1.439,3.021v16.182c0,1.073,0.439,2.048,1.146,2.756c0,0,1.102,1.103,1.103,1.104
			c0.707,0.707,1.683,1.146,2.756,1.146H217.657z M149.126,273.45c2.146,0,3.902-1.756,3.902-3.902v-16.182
			c0-1.073-0.439-2.048-1.146-2.755l-0.001-0.001c0,0-1.102-1.103-1.103-1.103l-0.001-0.001c-0.707-0.707-1.683-1.146-2.756-1.146
			h-26.989c-0.932,0-1.79,0.331-2.463,0.881c-0.877,0.717-1.439,1.806-1.439,3.021v16.182c0,1.073,0.439,2.048,1.145,2.755
			c0,0,0.001,0.001,0.001,0.001l1.101,1.102c0,0,0.001,0.001,0.001,0.001l0.001,0.001c0.707,0.707,1.683,1.146,2.756,1.146H149.126z
			 M263.783,182.12c2.146,0,3.902-1.756,3.902-3.902v-16.182c0-1.073-0.439-2.048-1.146-2.756c0,0-1.103-1.103-1.104-1.104
			c-0.707-0.707-1.683-1.146-2.756-1.146h-17.236c-0.932,0-1.79,0.331-2.463,0.881c-0.877,0.717-1.439,1.806-1.439,3.021v16.182
			c0,1.073,0.439,2.048,1.146,2.756c0,0,1.103,1.103,1.103,1.104c0.707,0.707,1.683,1.146,2.756,1.146H263.783z M195.516,243.007
			c2.146,0,3.902-1.756,3.902-3.902v-16.182c0-1.073-0.439-2.048-1.146-2.756c0,0-1.103-1.103-1.103-1.104
			c-0.707-0.707-1.683-1.146-2.756-1.146h-17.236c-0.932,0-1.79,0.331-2.463,0.881c-0.877,0.717-1.439,1.807-1.439,3.021v16.182
			c0,1.073,0.439,2.048,1.146,2.755c0,0,0,0,0.001,0.001l1.102,1.103l0.001,0.001c0.707,0.707,1.683,1.146,2.756,1.146H195.516z
			 M310.964,151.676c2.146,0,3.902-1.756,3.902-3.902v-16.182c0-1.073-0.439-2.048-1.146-2.756c0,0-1.103-1.103-1.104-1.103
			c-0.707-0.707-1.683-1.146-2.755-1.146h-17.236c-0.932,0-1.79,0.331-2.463,0.881c-0.877,0.717-1.439,1.806-1.439,3.021v16.182
			c0,1.073,0.439,2.049,1.146,2.756l1.102,1.102c0,0,0.001,0.001,0.001,0.001c0.707,0.707,1.683,1.146,2.756,1.146H310.964z
			 M248.759,212.563c2.146,0,3.902-1.756,3.902-3.902v-16.182c0-1.073-0.439-2.048-1.146-2.756c0,0-1.103-1.103-1.103-1.103
			c-0.707-0.707-1.683-1.146-2.756-1.146h-17.236c-0.932,0-1.79,0.331-2.463,0.881c-0.877,0.717-1.439,1.806-1.439,3.021v16.182
			c0,1.073,0.439,2.048,1.146,2.756c0,0,1.103,1.103,1.103,1.104c0.707,0.707,1.683,1.146,2.756,1.146H248.759z M139.374,303.893
			c2.146,0,3.902-1.756,3.902-3.902v-16.182c0-1.073-0.439-2.048-1.146-2.755l-0.001-0.001l-1.094-1.094l-0.009-0.009l-0.001-0.001
			c-0.707-0.707-1.683-1.146-2.756-1.146h-17.236c-0.932,0-1.79,0.331-2.463,0.881c-0.877,0.717-1.439,1.806-1.439,3.021v16.182
			c0,1.073,0.439,2.048,1.145,2.755c0,0,0.001,0.001,0.001,0.001l1.101,1.102c0,0,0.001,0.001,0.001,0.001l0.001,0.001
			c0.707,0.707,1.683,1.146,2.756,1.146H139.374z M180.229,273.45c2.146,0,3.902-1.756,3.902-3.902v-16.182
			c0-1.073-0.439-2.048-1.146-2.755l-0.001,0l-1.08-1.08l-0.023-0.023l-0.001-0.001c-0.707-0.707-1.683-1.146-2.756-1.146h-17.236
			c-0.932,0-1.79,0.331-2.463,0.881c-0.877,0.717-1.439,1.806-1.439,3.021v16.182c0,1.073,0.439,2.048,1.145,2.755
			c0,0,0,0,0.001,0.001l1.102,1.102c0,0,0.001,0.001,0.001,0.001c0.707,0.707,1.683,1.146,2.756,1.146H180.229z M294.885,182.12
			c2.146,0,3.902-1.756,3.902-3.902v-16.182c0-1.073-0.439-2.048-1.146-2.756l-0.001-0.001l-1.101-1.101
			c0,0-0.001-0.001-0.001-0.001c-0.707-0.707-1.683-1.146-2.756-1.146h-17.236c-0.932,0-1.79,0.331-2.463,0.881
			c-0.877,0.717-1.439,1.806-1.439,3.021v16.182c0,1.073,0.439,2.048,1.146,2.756l1.103,1.103c0,0,0.001,0.001,0.001,0.001
			c0.707,0.707,1.683,1.146,2.756,1.146H294.885z M226.618,243.007c2.146,0,3.902-1.756,3.902-3.902v-16.182
			c0-1.073-0.439-2.048-1.146-2.756c0,0-1.103-1.103-1.103-1.104c-0.707-0.707-1.683-1.146-2.756-1.146h-17.236
			c-0.932,0-1.79,0.331-2.463,0.881c-0.877,0.717-1.439,1.807-1.439,3.021v16.182c0,1.073,0.439,2.048,1.146,2.756
			c0,0,1.102,1.103,1.103,1.104c0.707,0.707,1.683,1.146,2.756,1.146H226.618z M342.066,151.676c2.146,0,3.902-1.756,3.902-3.902
			v-16.182c0-1.073-0.439-2.048-1.146-2.756c0,0-1.103-1.103-1.104-1.103c-0.707-0.707-1.682-1.146-2.755-1.146h-17.236
			c-0.932,0-1.79,0.331-2.463,0.881c-0.877,0.717-1.439,1.806-1.439,3.021v16.182c0,1.073,0.439,2.049,1.147,2.756l0.089,0.089
			c0,0,1.014,1.014,1.014,1.014c0.707,0.707,1.683,1.146,2.755,1.146H342.066z M279.861,212.563c2.146,0,3.902-1.756,3.902-3.902
			v-16.182c0-1.073-0.439-2.048-1.146-2.756l-1.099-1.099c0,0-0.004-0.004-0.004-0.005c-0.707-0.707-1.683-1.146-2.756-1.146
			h-17.236c-0.932,0-1.79,0.331-2.463,0.881c-0.877,0.717-1.439,1.806-1.439,3.021v16.182c0,1.073,0.439,2.048,1.146,2.756
			c0,0,1.103,1.103,1.103,1.104c0.707,0.707,1.683,1.146,2.756,1.146H279.861z M170.476,303.893c2.146,0,3.902-1.756,3.902-3.902
			v-16.182c0-1.073-0.439-2.048-1.145-2.755l-0.001-0.001c0,0-1.102-1.103-1.103-1.103l-0.001-0.001
			c-0.707-0.707-1.683-1.146-2.756-1.146h-17.236c-0.932,0-1.79,0.331-2.463,0.881c-0.877,0.717-1.439,1.806-1.439,3.021v16.182
			c0,1.073,0.439,2.048,1.145,2.755c0,0,0.001,0.001,0.001,0.001l1.102,1.102c0,0,0.001,0.001,0.001,0.001l0,0.001
			c0.707,0.707,1.683,1.146,2.756,1.146H170.476z M211.331,273.45c2.146,0,3.902-1.756,3.902-3.902v-16.182
			c0-1.073-0.439-2.048-1.146-2.756c0,0-1.103-1.103-1.103-1.104c-0.707-0.707-1.683-1.146-2.756-1.146h-17.236
			c-0.932,0-1.79,0.331-2.463,0.881c-0.877,0.717-1.439,1.806-1.439,3.021v16.182c0,1.073,0.439,2.048,1.145,2.755c0,0,0,0,0.001,0
			l1.102,1.103c0,0,0.001,0.001,0.001,0.001c0.707,0.707,1.683,1.146,2.756,1.146H211.331z M325.988,182.12
			c2.146,0,3.902-1.756,3.902-3.902v-16.182c0-1.073-0.439-2.048-1.146-2.756c0,0-1.103-1.103-1.103-1.104
			c-0.707-0.707-1.683-1.146-2.755-1.146h-17.236c-0.932,0-1.79,0.331-2.463,0.881c-0.877,0.717-1.439,1.806-1.439,3.021v16.182
			c0,1.073,0.439,2.049,1.146,2.756l1.103,1.104c0.707,0.707,1.683,1.146,2.756,1.146H325.988z M257.721,243.007
			c2.146,0,3.902-1.756,3.902-3.902v-16.182c0-1.073-0.439-2.048-1.146-2.756l-1.101-1.102c0,0-0.002-0.002-0.002-0.002
			c-0.707-0.707-1.683-1.146-2.756-1.146h-17.236c-0.932,0-1.79,0.331-2.463,0.881c-0.877,0.717-1.439,1.807-1.439,3.021v16.182
			c0,1.073,0.439,2.048,1.146,2.756c0,0,1.103,1.103,1.103,1.104c0.707,0.707,1.683,1.146,2.756,1.146H257.721z M373.168,151.676
			c2.146,0,3.902-1.756,3.902-3.902v-16.182c0-1.073-0.439-2.048-1.147-2.756c0,0-1.103-1.103-1.104-1.103
			c-0.707-0.707-1.682-1.146-2.755-1.146h-17.236c-0.932,0-1.79,0.331-2.463,0.881c-0.877,0.717-1.439,1.806-1.439,3.021v16.182
			c0,1.073,0.439,2.049,1.147,2.756l0.053,0.053c0,0,1.05,1.05,1.05,1.05c0.707,0.707,1.683,1.146,2.755,1.146H373.168z
			 M310.964,212.563c2.146,0,3.902-1.756,3.902-3.902v-16.182c0-1.073-0.439-2.048-1.146-2.756l-0.047-0.048l-1.044-1.044
			l-0.012-0.012c-0.707-0.707-1.683-1.146-2.756-1.146h-17.236c-0.932,0-1.79,0.331-2.463,0.881
			c-0.877,0.717-1.439,1.806-1.439,3.021v16.182c0,1.073,0.439,2.048,1.146,2.756c0,0,1.103,1.103,1.104,1.104
			c0.707,0.707,1.683,1.146,2.756,1.146H310.964z M201.579,303.893c2.146,0,3.902-1.756,3.902-3.902v-16.182
			c0-1.073-0.439-2.048-1.146-2.755l-0.001,0l-1.103-1.103l-0.001-0.001c-0.707-0.707-1.683-1.146-2.756-1.146h-17.236
			c-0.932,0-1.79,0.331-2.463,0.881c-0.877,0.717-1.439,1.806-1.439,3.021v16.182c0,1.073,0.439,2.048,1.145,2.755
			c0,0,0,0.001,0.001,0.001l1.102,1.102c0,0,0.001,0.001,0.001,0.001c0.707,0.707,1.683,1.146,2.756,1.146H201.579z M242.433,273.45
			c2.146,0,3.902-1.756,3.902-3.902v-16.182c0-1.073-0.439-2.048-1.146-2.756c0,0-1.103-1.103-1.103-1.104
			c-0.707-0.707-1.683-1.146-2.756-1.146h-17.236c-0.932,0-1.79,0.331-2.463,0.881c-0.877,0.717-1.439,1.806-1.439,3.021v16.182
			c0,1.073,0.439,2.048,1.146,2.755c0,0,0,0,0,0l1.102,1.103l0.001,0.001c0.707,0.707,1.683,1.146,2.756,1.146H242.433z
			 M357.09,182.12c2.146,0,3.902-1.756,3.902-3.902v-16.182c0-1.073-0.439-2.048-1.146-2.756c0,0-1.103-1.103-1.104-1.104
			c-0.707-0.707-1.682-1.146-2.755-1.146H338.75c-0.932,0-1.79,0.331-2.463,0.881c-0.877,0.717-1.439,1.806-1.439,3.021v16.182
			c0,1.073,0.439,2.049,1.147,2.756c0,0,1.103,1.103,1.103,1.103c0.707,0.707,1.683,1.146,2.755,1.146H357.09z M288.823,243.007
			c2.146,0,3.902-1.756,3.902-3.902v-16.182c0-1.073-0.439-2.048-1.146-2.756c0,0-1.103-1.103-1.103-1.104
			c-0.707-0.707-1.683-1.146-2.756-1.146h-17.236c-0.932,0-1.79,0.331-2.463,0.881c-0.877,0.717-1.439,1.807-1.439,3.021v16.182
			c0,1.073,0.439,2.048,1.146,2.756c0,0,1.103,1.103,1.104,1.104c0.707,0.707,1.683,1.146,2.756,1.146H288.823z M404.271,151.676
			c2.146,0,3.902-1.756,3.902-3.902v-16.182c0-1.073-0.439-2.048-1.146-2.756l-0.001-0.001c0,0-1.103-1.103-1.104-1.103
			c-0.707-0.707-1.682-1.146-2.755-1.146h-17.236c-0.932,0-1.79,0.331-2.463,0.881c-0.877,0.717-1.439,1.806-1.439,3.021v16.182
			c0,1.073,0.439,2.049,1.146,2.756c0,0,1.103,1.103,1.104,1.103c0.707,0.707,1.682,1.146,2.755,1.146H404.271z M342.066,212.563
			c2.146,0,3.902-1.756,3.902-3.902v-16.182c0-1.073-0.439-2.048-1.146-2.756l-0.001-0.001c0,0-1.103-1.103-1.103-1.103
			c-0.707-0.707-1.683-1.146-2.755-1.146h-17.236c-0.932,0-1.79,0.331-2.463,0.881c-0.877,0.717-1.439,1.806-1.439,3.021v16.182
			c0,1.073,0.439,2.048,1.146,2.756c0,0,0.001,0.001,0.001,0.001l1.101,1.101l0.001,0.001c0.707,0.707,1.683,1.146,2.756,1.146
			H342.066z M273.535,273.45c2.146,0,3.902-1.756,3.902-3.902v-16.182c0-1.073-0.439-2.048-1.146-2.756c0,0-1.103-1.103-1.103-1.104
			c-0.707-0.707-1.683-1.146-2.756-1.146h-17.236c-0.932,0-1.79,0.331-2.463,0.881c-0.877,0.717-1.439,1.806-1.439,3.021v16.182
			c0,1.073,0.439,2.048,1.146,2.756c0,0,1.102,1.103,1.103,1.104c0.707,0.707,1.683,1.146,2.756,1.146H273.535z M388.192,182.12
			c2.146,0,3.902-1.756,3.902-3.902v-16.182c0-1.073-0.439-2.048-1.147-2.756c0,0-1.103-1.103-1.104-1.104
			c-0.707-0.707-1.682-1.146-2.755-1.146h-17.236c-0.932,0-1.79,0.331-2.463,0.881c-0.877,0.717-1.439,1.806-1.439,3.021v16.182
			c0,1.073,0.439,2.049,1.146,2.756l1.079,1.079c0,0,0.024,0.025,0.025,0.025c0.707,0.707,1.683,1.146,2.755,1.146H388.192z
			 M244.015,303.893c2.146,0,3.902-1.756,3.902-3.902v-16.182c0-1.073-0.439-2.048-1.146-2.756c0,0-1.103-1.103-1.103-1.104
			c-0.707-0.707-1.683-1.146-2.756-1.146h-26.989c-0.932,0-1.79,0.331-2.463,0.881c-0.877,0.717-1.439,1.806-1.439,3.021v16.182
			c0,1.073,0.439,2.048,1.145,2.755c0,0,0,0,0.001,0.001l1.102,1.103c0,0,0.001,0.001,0.001,0.001
			c0.707,0.707,1.683,1.146,2.756,1.146H244.015z M319.925,243.007c2.146,0,3.902-1.756,3.902-3.902v-16.182
			c0-1.073-0.439-2.048-1.146-2.756l-1.102-1.102c0,0-0.001-0.001-0.001-0.001c-0.707-0.707-1.683-1.146-2.756-1.146h-17.236
			c-0.932,0-1.79,0.331-2.463,0.881c-0.877,0.717-1.439,1.807-1.439,3.021v16.182c0,1.073,0.439,2.048,1.146,2.756
			c0,0,1.103,1.103,1.104,1.104c0.707,0.707,1.683,1.146,2.756,1.146H319.925z M435.373,151.676c2.146,0,3.902-1.756,3.902-3.902
			v-16.182c0-1.073-0.439-2.048-1.147-2.756l-0.001-0.001c0,0,0,0,0.001,0.001l-0.001-0.001l-1.103-1.102l-0.001,0
			c-0.707-0.707-1.682-1.146-2.755-1.146h-17.236c-0.932,0-1.79,0.331-2.463,0.881c-0.877,0.717-1.439,1.806-1.439,3.021v16.182
			c0,1.073,0.439,2.049,1.147,2.756c0,0,1.103,1.103,1.104,1.103c0.707,0.707,1.683,1.146,2.755,1.146H435.373z M373.168,212.563
			c2.146,0,3.902-1.756,3.902-3.902v-16.182c0-1.073-0.439-2.048-1.146-2.756c0,0-1.103-1.103-1.104-1.104
			c-0.707-0.707-1.683-1.146-2.756-1.146h-17.236c-0.932,0-1.79,0.331-2.463,0.881c-0.877,0.717-1.439,1.806-1.439,3.021v16.182
			c0,1.073,0.439,2.049,1.146,2.756c0,0,0.001,0.001,0.001,0.001l0.009,0.009c0,0,0.882,0.882,1.045,0.749l0.004-0.004
			c-0.157-0.076-0.307-0.163-0.452-0.258c-0.07-0.105-0.134-0.213-0.194-0.324l2.342,0.974c-0.607,0-1.183-0.141-1.849-0.239
			l0.194,0.194c0,0,0.002,0.002,0.002,0.002c0.707,0.707,1.683,1.146,2.756,1.146H373.168z M304.638,273.45
			c2.146,0,3.902-1.756,3.902-3.902v-16.182c0-1.073-0.439-2.048-1.146-2.756l-1.103-1.103c0,0-0.001-0.001-0.001-0.001
			c-0.707-0.707-1.683-1.146-2.756-1.146h-17.236c-0.932,0-1.79,0.331-2.463,0.881c-0.877,0.717-1.439,1.806-1.439,3.021v16.182
			c0,1.073,0.439,2.048,1.146,2.756c0,0,1.103,1.103,1.104,1.104c0.707,0.707,1.683,1.146,2.756,1.146H304.638z M419.295,182.12
			c2.146,0,3.902-1.756,3.902-3.902v-16.182c0-1.073-0.439-2.048-1.147-2.756c0,0-1.103-1.103-1.104-1.104
			c-0.707-0.707-1.682-1.146-2.755-1.146h-17.236c-0.932,0-1.79,0.331-2.463,0.881c-0.877,0.717-1.439,1.806-1.439,3.021v16.182
			c0,1.073,0.439,2.049,1.147,2.756c0,0,1.103,1.103,1.104,1.104c0.707,0.707,1.683,1.146,2.755,1.146H419.295z M351.028,243.007
			c2.146,0,3.902-1.756,3.902-3.902v-16.182c0-1.073-0.439-2.049-1.146-2.756c0,0-1.103-1.104-1.104-1.104
			c-0.707-0.707-1.683-1.146-2.756-1.146h-17.236c-0.932,0-1.79,0.331-2.463,0.881c-0.877,0.717-1.439,1.807-1.439,3.021v16.182
			c0,1.073,0.439,2.048,1.147,2.756c0,0,1.103,1.103,1.103,1.103c0.707,0.707,1.683,1.146,2.756,1.146H351.028z M466.475,151.676
			c2.146,0,3.902-1.756,3.902-3.902v-16.182c0-1.073-0.439-2.048-1.147-2.756l0-0.001c0,0,0,0,0,0.001l0-0.001l-1.103-1.102
			l-0.001-0.001c-0.707-0.707-1.682-1.146-2.755-1.146h-17.236c-0.932,0-1.79,0.331-2.463,0.881
			c-0.877,0.717-1.439,1.806-1.439,3.021v16.182c0,1.073,0.439,2.049,1.146,2.756c0,0,0,0,0.001,0.001l1.103,1.103l0,0.001
			c0.707,0.707,1.682,1.146,2.755,1.146H466.475z M404.271,212.563c2.146,0,3.902-1.756,3.902-3.902v-16.182
			c0-1.073-0.439-2.048-1.146-2.756c0,0-1.103-1.103-1.104-1.104c-0.707-0.707-1.682-1.146-2.755-1.146h-17.236
			c-0.932,0-1.79,0.331-2.463,0.881c-0.877,0.717-1.439,1.806-1.439,3.021v16.182c0,1.073,0.439,2.049,1.146,2.756l0.061,0.061
			c0,0,1.043,1.043,1.043,1.043c0.707,0.707,1.682,1.146,2.755,1.146H404.271z M335.74,273.45c2.146,0,3.902-1.756,3.902-3.902
			v-16.182c0-1.073-0.439-2.048-1.146-2.756l-0.001-0.001c0,0-1.103-1.103-1.103-1.103c-0.707-0.707-1.683-1.146-2.756-1.146H317.4
			c-0.932,0-1.79,0.331-2.463,0.881c-0.877,0.717-1.439,1.806-1.439,3.021v16.182c0,1.073,0.439,2.048,1.146,2.756
			c0,0,1.103,1.103,1.104,1.104c0.707,0.707,1.683,1.146,2.756,1.146H335.74z M450.397,182.12c2.146,0,3.902-1.756,3.902-3.902
			v-16.182c0-1.073-0.439-2.048-1.147-2.756c0,0-1.103-1.103-1.104-1.103c-0.707-0.707-1.682-1.146-2.755-1.146h-17.236
			c-0.932,0-1.79,0.331-2.463,0.881c-0.877,0.717-1.439,1.806-1.439,3.021v16.182c0,1.073,0.439,2.049,1.147,2.756
			c0,0,1.103,1.103,1.104,1.104c0.707,0.707,1.682,1.146,2.755,1.146H450.397z M382.13,243.007c2.146,0,3.902-1.756,3.902-3.902
			v-16.182c0-1.073-0.439-2.049-1.147-2.756c0,0-1.103-1.103-1.103-1.103c-0.707-0.707-1.683-1.146-2.755-1.146H363.79
			c-0.932,0-1.79,0.331-2.463,0.881c-0.877,0.717-1.439,1.807-1.439,3.021v16.182c0,1.073,0.439,2.048,1.146,2.756
			c0.001,0.001,0.003,0.003,0.004,0.004l1.1,1.1c0.707,0.707,1.683,1.146,2.756,1.146H382.13z M497.578,151.676
			c2.146,0,3.902-1.756,3.902-3.902v-16.182c0-1.073-0.439-2.048-1.146-2.756l-0.001-0.001l-1.103-1.103l-0.001-0.001
			c-0.707-0.707-1.682-1.145-2.755-1.145h-17.236c-0.932,0-1.79,0.331-2.463,0.881c-0.877,0.717-1.439,1.806-1.439,3.021v16.182
			c0,1.073,0.439,2.049,1.146,2.756c0,0,0,0,0.001,0.001l0.193,0.193l0.911,0.91l0,0.001c0.707,0.707,1.682,1.146,2.755,1.146
			H497.578z M435.373,212.563c2.146,0,3.902-1.756,3.902-3.902v-16.182c0-1.073-0.439-2.048-1.146-2.756l0-0.001
			c0,0-1.103-1.103-1.104-1.103c-0.707-0.707-1.682-1.146-2.755-1.146h-17.236c-0.932,0-1.79,0.331-2.463,0.881
			c-0.877,0.717-1.439,1.806-1.439,3.021v16.182c0,1.073,0.439,2.049,1.147,2.756c0,0,1.103,1.103,1.104,1.103
			c0.707,0.707,1.682,1.146,2.755,1.146H435.373z M366.842,273.45c2.146,0,3.902-1.756,3.902-3.902v-16.182
			c0-1.073-0.439-2.048-1.146-2.756l-1.101-1.101l-0.002-0.002c-0.707-0.707-1.683-1.146-2.756-1.146h-17.236
			c-0.932,0-1.79,0.331-2.463,0.881c-0.877,0.717-1.439,1.806-1.439,3.021v16.182c0,1.073,0.439,2.048,1.146,2.756
			c0,0,1.103,1.103,1.103,1.104c0.707,0.707,1.683,1.146,2.756,1.146H366.842z M481.499,182.12c2.146,0,3.902-1.756,3.902-3.902
			v-16.182c0-1.073-0.439-2.048-1.146-2.756l-0.001-0.001l-1.103-1.103l-0.001-0.001c-0.707-0.707-1.682-1.146-2.755-1.146h-17.236
			c-0.932,0-1.79,0.331-2.463,0.881c-0.877,0.717-1.439,1.806-1.439,3.021v16.182c0,1.073,0.439,2.049,1.147,2.756
			c0,0,1.103,1.103,1.104,1.104c0.707,0.707,1.682,1.146,2.755,1.146H481.499z M413.232,243.007c2.146,0,3.902-1.756,3.902-3.902
			v-16.182c0-1.073-0.439-2.049-1.146-2.756c0,0-1.104-1.103-1.104-1.104c-0.707-0.707-1.682-1.146-2.755-1.146h-17.236
			c-0.932,0-1.79,0.331-2.463,0.881c-0.877,0.717-1.439,1.807-1.439,3.021v16.182c0,1.073,0.439,2.048,1.146,2.756
			c0,0,1.104,1.104,1.104,1.104c0.707,0.707,1.683,1.146,2.756,1.146H413.232z M528.68,151.676c2.146,0,3.902-1.756,3.902-3.902
			v-16.182c0-1.073-0.439-2.048-1.146-2.756c0,0-0.001-0.001-0.001-0.001l-1.103-1.103l-0.001-0.001
			c-0.707-0.707-1.682-1.145-2.755-1.145H510.34c-0.932,0-1.79,0.331-2.463,0.881c-0.877,0.717-1.439,1.806-1.439,3.021v16.182
			c0,1.073,0.439,2.049,1.146,2.756c0,0,0,0,0.001,0.001l1.103,1.103l0.001,0.001c0.707,0.707,1.682,1.146,2.755,1.146H528.68z
			 M466.475,212.563c2.146,0,3.902-1.756,3.902-3.902v-16.182c0-1.073-0.439-2.048-1.147-2.756c0,0-1.103-1.103-1.104-1.104
			c-0.707-0.707-1.682-1.146-2.755-1.146h-17.236c-0.932,0-1.79,0.331-2.463,0.881c-0.877,0.717-1.439,1.806-1.439,3.021v16.182
			c0,1.073,0.439,2.049,1.147,2.756c0,0,1.103,1.103,1.104,1.103c0.707,0.707,1.682,1.146,2.755,1.146H466.475z M397.945,273.45
			c2.146,0,3.902-1.756,3.902-3.902v-16.182c0-1.073-0.439-2.048-1.146-2.756c0,0-1.104-1.104-1.104-1.104
			c-0.707-0.707-1.683-1.146-2.755-1.146h-17.236c-0.932,0-1.79,0.331-2.463,0.881c-0.877,0.717-1.439,1.806-1.439,3.021v16.182
			c0,1.073,0.439,2.048,1.146,2.756c0,0,1.104,1.104,1.104,1.104c0.707,0.707,1.683,1.146,2.756,1.146H397.945z M512.602,182.12
			c2.146,0,3.902-1.756,3.902-3.902v-16.182c0-1.073-0.439-2.048-1.147-2.756l-0.001-0.001c0,0,0,0,0.001,0.001l-0.001-0.001
			l-1.103-1.102l-0.001-0.001c-0.707-0.707-1.682-1.146-2.755-1.146h-17.236c-0.932,0-1.79,0.331-2.463,0.881
			c-0.877,0.717-1.439,1.806-1.439,3.021v16.182c0,1.073,0.439,2.049,1.146,2.756c0,0,0,0,0.001,0.001l1.103,1.103l0.001,0.001
			c0.707,0.707,1.682,1.146,2.755,1.146H512.602z M444.335,243.007c2.146,0,3.902-1.756,3.902-3.902v-16.182
			c0-1.073-0.439-2.049-1.147-2.756c0,0-1.103-1.103-1.104-1.104c-0.707-0.707-1.682-1.146-2.755-1.146h-17.236
			c-0.932,0-1.79,0.331-2.463,0.881c-0.877,0.717-1.439,1.807-1.439,3.021v16.182c0,1.073,0.439,2.048,1.147,2.756
			c0,0,1.103,1.103,1.104,1.103c0.707,0.707,1.683,1.146,2.755,1.146H444.335z M559.782,151.676c2.146,0,3.902-1.756,3.902-3.902
			v-16.182c0-1.073-0.439-2.048-1.146-2.756c0,0-0.001-0.001-0.001-0.001l-0.001-0.001c0,0,0.001,0.001,0.001,0.001l-0.001-0.001
			l-1.102-1.102l-0.001-0.001c-0.707-0.707-1.682-1.145-2.755-1.145h-17.236c-0.932,0-1.79,0.331-2.463,0.881
			c-0.877,0.717-1.439,1.806-1.439,3.021v16.182c0,1.073,0.439,2.049,1.146,2.756c0,0,0,0,0.001,0.001l1.072,1.072l0.031,0.031
			l0.001,0.001c0.707,0.707,1.682,1.145,2.755,1.145H559.782z M497.578,212.563c2.146,0,3.902-1.756,3.902-3.902v-16.182
			c0-1.073-0.439-2.048-1.147-2.756l-1.103-1.103l-0.001,0c-0.707-0.707-1.682-1.146-2.755-1.146h-17.236
			c-0.932,0-1.79,0.331-2.463,0.881c-0.877,0.717-1.439,1.806-1.439,3.021v16.182c0,1.073,0.439,2.049,1.147,2.756
			c0,0,1.104,1.103,1.104,1.104c0.707,0.707,1.682,1.146,2.755,1.146H497.578z M429.047,273.45c2.146,0,3.902-1.756,3.902-3.902
			v-16.182c0-1.073-0.439-2.048-1.146-2.756l0-0.001c0,0-1.103-1.103-1.103-1.103c-0.707-0.707-1.683-1.146-2.755-1.146h-17.236
			c-0.932,0-1.79,0.331-2.463,0.881c-0.877,0.717-1.439,1.806-1.439,3.021v16.182c0,1.073,0.439,2.048,1.146,2.756
			c0,0,0.001,0.001,0.001,0.001c0,0,0,0,0,0.001c0,0,1.102,1.102,1.102,1.102c0.707,0.707,1.683,1.146,2.756,1.146H429.047z
			 M393,303.893c2.12,0,3.838-1.718,3.838-3.838v-16.309c0-1.06-0.43-2.02-1.124-2.714l-0.001-0.001c0,0-1.102-1.102-1.102-1.102
			c-0.695-0.695-1.654-1.124-2.714-1.124H256.582c-0.921,0-1.766,0.324-2.428,0.865c-0.861,0.704-1.41,1.774-1.41,2.973v16.309
			c0,1.06,0.429,2.019,1.124,2.714c0,0,1.103,1.103,1.103,1.104c0.695,0.695,1.654,1.124,2.714,1.124H393z M475.437,243.007
			c2.146,0,3.902-1.756,3.902-3.902v-16.182c0-1.073-0.439-2.049-1.146-2.756l0-0.001c0,0-1.103-1.103-1.104-1.104
			c-0.707-0.707-1.682-1.146-2.755-1.146h-17.236c-0.932,0-1.79,0.331-2.463,0.881c-0.877,0.717-1.439,1.807-1.439,3.021v16.182
			c0,1.073,0.439,2.048,1.147,2.756c0,0,1.103,1.103,1.104,1.104c0.707,0.707,1.682,1.146,2.755,1.146H475.437z M405.831,302.789
			c-0.792,0-1.531-0.239-2.149-0.649c-0.07-0.105-0.134-0.213-0.194-0.325L405.831,302.789z M557.278,182.12
			c2.146,0,3.902-1.756,3.902-3.902v-16.182c0-1.073-0.439-2.048-1.146-2.756c0,0,0-0.001-0.001-0.001l-1.103-1.103l-0.001-0.001
			c-0.707-0.707-1.682-1.145-2.755-1.145h-33.842c-0.932,0-1.79,0.331-2.463,0.881c-0.877,0.717-1.439,1.806-1.439,3.021v16.182
			c0,1.073,0.439,2.049,1.146,2.756c0,0,0,0,0.001,0.001l1.103,1.103l0.001,0.001c0.707,0.707,1.682,1.146,2.755,1.146H557.278z
			 M528.68,212.563c2.146,0,3.902-1.756,3.902-3.902v-16.182c0-1.073-0.439-2.048-1.147-2.756l-0.001-0.001c0,0,0,0,0.001,0.001
			l-0.001-0.001l-1.103-1.102l-0.001-0.001c-0.707-0.707-1.682-1.145-2.755-1.145H510.34c-0.932,0-1.79,0.331-2.463,0.881
			c-0.877,0.717-1.439,1.806-1.439,3.021v16.182c0,1.073,0.439,2.049,1.146,2.756c0,0,0,0,0.001,0.001l1.103,1.103l0,0.001
			c0.707,0.707,1.682,1.146,2.755,1.146H528.68z M460.149,273.45c2.146,0,3.902-1.756,3.902-3.902v-16.182
			c0-1.073-0.439-2.048-1.146-2.756c0,0-1.103-1.103-1.104-1.104c-0.707-0.707-1.682-1.146-2.755-1.146h-17.236
			c-0.932,0-1.79,0.331-2.463,0.881c-0.877,0.717-1.439,1.806-1.439,3.021v16.182c0,1.073,0.439,2.048,1.146,2.756
			c0.003,0.003,0.006,0.006,0.008,0.009c0.002,0.001,0.003,0.003,0.004,0.004c0,0,1.091,1.091,1.091,1.091
			c0.707,0.707,1.683,1.146,2.755,1.146H460.149z M506.539,243.007c2.146,0,3.902-1.756,3.902-3.902v-16.182
			c0-1.073-0.439-2.049-1.147-2.756c0,0-1.103-1.103-1.104-1.104c-0.707-0.707-1.682-1.146-2.755-1.146h-17.236
			c-0.932,0-1.79,0.331-2.463,0.881c-0.877,0.717-1.439,1.807-1.439,3.021v16.182c0,1.073,0.439,2.048,1.146,2.756
			c0,0,1.104,1.103,1.104,1.104c0.707,0.707,1.682,1.146,2.755,1.146H506.539z M433.923,303.893c2.146,0,3.902-1.756,3.902-3.902
			v-16.182c0-1.073-0.439-2.048-1.146-2.756l0-0.001c0,0-1.103-1.103-1.103-1.103c-0.707-0.707-1.683-1.146-2.756-1.146h-26.989
			c-0.932,0-1.79,0.331-2.463,0.881c-0.877,0.717-1.439,1.806-1.439,3.021v16.182c0,1.073,0.439,2.048,1.146,2.756c0,0,0,0,0,0.001
			l1.103,1.103c0.707,0.707,1.683,1.146,2.756,1.146H433.923z M491.252,273.45c2.146,0,3.902-1.756,3.902-3.902v-16.182
			c0-1.073-0.439-2.048-1.147-2.756c0,0-1.103-1.103-1.104-1.104c-0.707-0.707-1.682-1.146-2.755-1.146h-17.236
			c-0.932,0-1.79,0.331-2.463,0.881c-0.877,0.717-1.439,1.806-1.439,3.021v16.182c0,1.073,0.439,2.048,1.147,2.756
			c0,0,1.103,1.103,1.104,1.103c0.707,0.707,1.683,1.146,2.755,1.146H491.252z M537.642,243.007c2.146,0,3.902-1.756,3.902-3.902
			v-16.182c0-1.073-0.439-2.049-1.147-2.756l-1.103-1.103l-0.001,0c-0.707-0.707-1.682-1.146-2.755-1.146h-17.236
			c-0.932,0-1.79,0.331-2.463,0.881c-0.877,0.717-1.439,1.807-1.439,3.021v16.182c0,1.073,0.439,2.048,1.147,2.756l1.073,1.073
			c0,0,0.031,0.031,0.031,0.031c0.707,0.707,1.682,1.146,2.755,1.146H537.642z M465.948,303.893c2.146,0,3.902-1.756,3.902-3.902
			v-16.182c0-1.073-0.439-2.048-1.146-2.756c0,0-1.104-1.104-1.104-1.104c-0.707-0.707-1.682-1.146-2.755-1.146h-17.236
			c-0.932,0-1.79,0.331-2.463,0.881c-0.877,0.717-1.439,1.806-1.439,3.021v16.182c0,1.073,0.439,2.048,1.146,2.756l1.097,1.097
			c0,0,0.007,0.007,0.007,0.007c0.707,0.707,1.683,1.146,2.756,1.146H465.948z M559.782,243.006c2.146,0,3.902-1.756,3.902-3.902
			v-22.64c0-2.146,0-5.658,0-7.804v-16.182c0-1.073-0.439-2.048-1.147-2.756l-0.001-0.001c0,0,0,0,0.001,0.001l-0.001-0.001
			l-1.103-1.102l-0.001-0.001c-0.707-0.707-1.682-1.145-2.755-1.145h-17.236c-0.932,0-1.79,0.331-2.463,0.881
			c-0.877,0.717-1.439,1.807-1.439,3.021v16.182c0,1.073,0.439,2.049,1.147,2.756c0,0,1.104,1.104,1.104,1.104
			c0.707,0.707,1.682,1.146,2.755,1.146h1.158c0.792,0,1.531,0.239,2.148,0.649c0.41,0.617,0.65,1.357,0.65,2.149v22.64
			c0,1.073,0.439,2.048,1.146,2.756c0,0,0,0,0.001,0.001l1.104,1.103l0,0c0.707,0.707,1.682,1.146,2.755,1.146H559.782z
			 M497.05,303.893c2.146,0,3.902-1.756,3.902-3.902v-16.182c0-1.073-0.439-2.048-1.146-2.756c0,0-1.104-1.104-1.104-1.104
			c-0.707-0.707-1.682-1.146-2.755-1.146H478.71c-0.932,0-1.79,0.331-2.463,0.881c-0.877,0.717-1.439,1.806-1.439,3.021v16.182
			c0,1.073,0.439,2.048,1.147,2.756l1.099,1.099c0,0,0.004,0.004,0.005,0.004c0.707,0.707,1.683,1.146,2.755,1.146H497.05z
			 M528.68,290.978c2.146,0,3.902-1.756,3.902-3.902v-3.267c0-1.073-0.439-2.048-1.147-2.756c0,0-1.104-1.103-1.104-1.104
			c-0.707-0.707-1.683-1.146-2.755-1.146H510.34c-0.932,0-1.79,0.331-2.463,0.881c-0.877,0.717-1.439,1.806-1.439,3.021v3.267
			c0,1.073,0.439,2.048,1.147,2.756c0,0,1.103,1.103,1.104,1.104c0.707,0.707,1.683,1.146,2.755,1.146H528.68z M559.782,273.45
			c2.146,0,3.902-1.756,3.902-3.902v-16.182c0-1.073-0.439-2.048-1.147-2.756l-1.104-1.103l-0.001-0.001
			c-0.707-0.707-1.682-1.146-2.755-1.146h-54.401c-0.932,0-1.79,0.331-2.463,0.881c-0.877,0.717-1.439,1.806-1.439,3.021v16.182
			c0,1.073,0.439,2.048,1.147,2.756c0,0,1.104,1.104,1.104,1.104c0.707,0.707,1.683,1.146,2.755,1.146H559.782z M528.68,303.893
			c2.146,0,3.902-1.756,3.902-3.902v-3.267c0-1.073-0.439-2.048-1.147-2.756c0,0-1.104-1.103-1.104-1.104
			c-0.707-0.707-1.683-1.146-2.755-1.146H510.34c-0.932,0-1.79,0.331-2.463,0.881c-0.877,0.717-1.439,1.806-1.439,3.021v3.267
			c0,1.073,0.439,2.048,1.147,2.756c0,0,1.104,1.103,1.104,1.104c0.707,0.707,1.682,1.146,2.755,1.146H528.68z M559.782,303.893
			c2.146,0,3.902-1.756,3.902-3.902v-16.182c0-1.073-0.439-2.048-1.147-2.756c0,0-1.104-1.103-1.104-1.104
			c-0.707-0.707-1.682-1.146-2.755-1.146h-17.236c-0.932,0-1.79,0.331-2.463,0.881c-0.877,0.717-1.439,1.806-1.439,3.021v16.182
			c0,1.073,0.439,2.048,1.147,2.756c0,0,1.104,1.103,1.104,1.104c0.707,0.707,1.683,1.146,2.755,1.146H559.782z"/>
		<g>
			<path style="fill:#F1F2F4;stroke:#9D9D9C;stroke-miterlimit:10;" d="M158.778,147.989c0,2.146-1.756,3.902-3.902,3.902h-33.842
				c-2.146,0-3.902-1.756-3.902-3.902v-16.182c0-2.146,1.756-3.902,3.902-3.902h33.842c2.146,0,3.902,1.756,3.902,3.902V147.989z"/>
			<path style="fill:#F1F2F4;stroke:#9D9D9C;stroke-miterlimit:10;" d="M560.076,177.114c0,2.146-1.756,3.902-3.902,3.902h-33.842
				c-2.146,0-3.902-1.756-3.902-3.902v-16.182c0-2.146,1.756-3.902,3.902-3.902h33.842c2.146,0,3.902,1.756,3.902,3.902V177.114z"/>
			<path style="fill:#F1F2F4;stroke:#9D9D9C;stroke-miterlimit:10;" d="M158.778,207.558c0,2.146-1.756,3.902-3.902,3.902h-33.842
				c-2.146,0-3.902-1.756-3.902-3.902v-16.182c0-2.146,1.756-3.902,3.902-3.902h33.842c2.146,0,3.902,1.756,3.902,3.902V207.558z"/>
			<path style="fill:#F1F2F4;stroke:#9D9D9C;stroke-miterlimit:10;" d="M151.925,268.444c0,2.146-1.756,3.902-3.902,3.902h-26.989
				c-2.146,0-3.902-1.756-3.902-3.902v-16.182c0-2.146,1.756-3.902,3.902-3.902h26.989c2.146,0,3.902,1.756,3.902,3.902V268.444z"/>
			<path style="fill:#F1F2F4;stroke:#9D9D9C;stroke-miterlimit:10;" d="M436.721,298.888c0,2.146-1.756,3.902-3.902,3.902h-26.989
				c-2.146,0-3.902-1.756-3.902-3.902v-16.182c0-2.146,1.756-3.902,3.902-3.902h26.989c2.146,0,3.902,1.756,3.902,3.902V298.888z"/>
			<path style="fill:#F1F2F4;stroke:#9D9D9C;stroke-miterlimit:10;" d="M246.813,298.888c0,2.146-1.756,3.902-3.902,3.902h-26.989
				c-2.146,0-3.902-1.756-3.902-3.902v-16.182c0-2.146,1.756-3.902,3.902-3.902h26.989c2.146,0,3.902,1.756,3.902,3.902V298.888z"/>
			<path style="fill:#F1F2F4;stroke:#9D9D9C;stroke-miterlimit:10;" d="M168.443,238.001c0,2.146-1.756,3.902-3.902,3.902h-43.506
				c-2.146,0-3.902-1.756-3.902-3.902v-16.182c0-2.146,1.756-3.902,3.902-3.902h43.506c2.146,0,3.902,1.756,3.902,3.902V238.001z"/>
			<path style="fill:#F1F2F4;stroke:#9D9D9C;stroke-miterlimit:10;" d="M189.353,146.671c0,2.146-1.756,3.902-3.902,3.902h-17.236
				c-2.146,0-3.902-1.756-3.902-3.902v-16.182c0-2.146,1.756-3.902,3.902-3.902h17.236c2.146,0,3.902,1.756,3.902,3.902V146.671z"/>
			<path style="fill:#F1F2F4;stroke:#9D9D9C;stroke-miterlimit:10;" d="M220.455,146.671c0,2.146-1.756,3.902-3.902,3.902h-17.236
				c-2.146,0-3.902-1.756-3.902-3.902v-16.182c0-2.146,1.756-3.902,3.902-3.902h17.236c2.146,0,3.902,1.756,3.902,3.902V146.671z"/>
			<path style="fill:#F1F2F4;stroke:#9D9D9C;stroke-miterlimit:10;" d="M251.558,146.671c0,2.146-1.756,3.902-3.902,3.902h-17.236
				c-2.146,0-3.902-1.756-3.902-3.902v-16.182c0-2.146,1.756-3.902,3.902-3.902h17.236c2.146,0,3.902,1.756,3.902,3.902V146.671z"/>
			<path style="fill:#F1F2F4;stroke:#9D9D9C;stroke-miterlimit:10;" d="M282.66,146.671c0,2.146-1.756,3.902-3.902,3.902h-17.236
				c-2.146,0-3.902-1.756-3.902-3.902v-16.182c0-2.146,1.756-3.902,3.902-3.902h17.236c2.146,0,3.902,1.756,3.902,3.902V146.671z"/>
			<path style="fill:#F1F2F4;stroke:#9D9D9C;stroke-miterlimit:10;" d="M313.762,146.671c0,2.146-1.756,3.902-3.902,3.902h-17.236
				c-2.146,0-3.902-1.756-3.902-3.902v-16.182c0-2.146,1.756-3.902,3.902-3.902h17.236c2.146,0,3.902,1.756,3.902,3.902V146.671z"/>
			<path style="fill:#F1F2F4;stroke:#9D9D9C;stroke-miterlimit:10;" d="M344.864,146.671c0,2.146-1.756,3.902-3.902,3.902h-17.236
				c-2.146,0-3.902-1.756-3.902-3.902v-16.182c0-2.146,1.756-3.902,3.902-3.902h17.236c2.146,0,3.902,1.756,3.902,3.902V146.671z"/>
			<path style="fill:#F1F2F4;stroke:#9D9D9C;stroke-miterlimit:10;" d="M375.966,146.671c0,2.146-1.756,3.902-3.902,3.902h-17.236
				c-2.146,0-3.902-1.756-3.902-3.902v-16.182c0-2.146,1.756-3.902,3.902-3.902h17.236c2.146,0,3.902,1.756,3.902,3.902V146.671z"/>
			<path style="fill:#F1F2F4;stroke:#9D9D9C;stroke-miterlimit:10;" d="M407.069,146.671c0,2.146-1.756,3.902-3.902,3.902h-17.236
				c-2.146,0-3.902-1.756-3.902-3.902v-16.182c0-2.146,1.756-3.902,3.902-3.902h17.236c2.146,0,3.902,1.756,3.902,3.902V146.671z"/>
			<path style="fill:#F1F2F4;stroke:#9D9D9C;stroke-miterlimit:10;" d="M438.171,146.671c0,2.146-1.756,3.902-3.902,3.902h-17.236
				c-2.146,0-3.902-1.756-3.902-3.902v-16.182c0-2.146,1.756-3.902,3.902-3.902h17.236c2.146,0,3.902,1.756,3.902,3.902V146.671z"/>
			<path style="fill:#F1F2F4;stroke:#9D9D9C;stroke-miterlimit:10;" d="M469.273,146.671c0,2.146-1.756,3.902-3.902,3.902h-17.236
				c-2.146,0-3.902-1.756-3.902-3.902v-16.182c0-2.146,1.756-3.902,3.902-3.902h17.236c2.146,0,3.902,1.756,3.902,3.902V146.671z"/>
			<path style="fill:#F1F2F4;stroke:#9D9D9C;stroke-miterlimit:10;" d="M500.375,146.671c0,2.146-1.756,3.902-3.902,3.902h-17.236
				c-2.146,0-3.902-1.756-3.902-3.902v-16.182c0-2.146,1.756-3.902,3.902-3.902h17.236c2.146,0,3.902,1.756,3.902,3.902V146.671z"/>
			<path style="fill:#F1F2F4;stroke:#9D9D9C;stroke-miterlimit:10;" d="M531.478,146.671c0,2.146-1.756,3.902-3.902,3.902H510.34
				c-2.146,0-3.902-1.756-3.902-3.902v-16.182c0-2.146,1.756-3.902,3.902-3.902h17.236c2.146,0,3.902,1.756,3.902,3.902V146.671z"/>
			<path style="fill:#F1F2F4;stroke:#9D9D9C;stroke-miterlimit:10;" d="M562.58,146.671c0,2.146-1.756,3.902-3.902,3.902h-17.236
				c-2.146,0-3.902-1.756-3.902-3.902v-16.182c0-2.146,1.756-3.902,3.902-3.902h17.236c2.146,0,3.902,1.756,3.902,3.902V146.671z"/>
			<path style="fill:#F1F2F4;stroke:#9D9D9C;stroke-miterlimit:10;" d="M142.173,177.114c0,2.146-1.756,3.902-3.902,3.902h-17.236
				c-2.146,0-3.902-1.756-3.902-3.902v-16.182c0-2.146,1.756-3.902,3.902-3.902h17.236c2.146,0,3.902,1.756,3.902,3.902V177.114z"/>
			<path style="fill:#F1F2F4;stroke:#9D9D9C;stroke-miterlimit:10;" d="M173.275,177.114c0,2.146-1.756,3.902-3.902,3.902h-17.236
				c-2.146,0-3.902-1.756-3.902-3.902v-16.182c0-2.146,1.756-3.902,3.902-3.902h17.236c2.146,0,3.902,1.756,3.902,3.902V177.114z"/>
			<path style="fill:#F1F2F4;stroke:#9D9D9C;stroke-miterlimit:10;" d="M204.377,177.114c0,2.146-1.756,3.902-3.902,3.902h-17.236
				c-2.146,0-3.902-1.756-3.902-3.902v-16.182c0-2.146,1.756-3.902,3.902-3.902h17.236c2.146,0,3.902,1.756,3.902,3.902V177.114z"/>
			<path style="fill:#F1F2F4;stroke:#9D9D9C;stroke-miterlimit:10;" d="M235.479,177.114c0,2.146-1.756,3.902-3.902,3.902h-17.236
				c-2.146,0-3.902-1.756-3.902-3.902v-16.182c0-2.146,1.756-3.902,3.902-3.902h17.236c2.146,0,3.902,1.756,3.902,3.902V177.114z"/>
			<path style="fill:#F1F2F4;stroke:#9D9D9C;stroke-miterlimit:10;" d="M266.582,177.114c0,2.146-1.756,3.902-3.902,3.902h-17.236
				c-2.146,0-3.902-1.756-3.902-3.902v-16.182c0-2.146,1.756-3.902,3.902-3.902h17.236c2.146,0,3.902,1.756,3.902,3.902V177.114z"/>
			<path style="fill:#F1F2F4;stroke:#9D9D9C;stroke-miterlimit:10;" d="M297.684,177.114c0,2.146-1.756,3.902-3.902,3.902h-17.236
				c-2.146,0-3.902-1.756-3.902-3.902v-16.182c0-2.146,1.756-3.902,3.902-3.902h17.236c2.146,0,3.902,1.756,3.902,3.902V177.114z"/>
			<path style="fill:#F1F2F4;stroke:#9D9D9C;stroke-miterlimit:10;" d="M328.786,177.114c0,2.146-1.756,3.902-3.902,3.902h-17.236
				c-2.146,0-3.902-1.756-3.902-3.902v-16.182c0-2.146,1.756-3.902,3.902-3.902h17.236c2.146,0,3.902,1.756,3.902,3.902V177.114z"/>
			<path style="fill:#F1F2F4;stroke:#9D9D9C;stroke-miterlimit:10;" d="M359.888,177.114c0,2.146-1.756,3.902-3.902,3.902H338.75
				c-2.146,0-3.902-1.756-3.902-3.902v-16.182c0-2.146,1.756-3.902,3.902-3.902h17.236c2.146,0,3.902,1.756,3.902,3.902V177.114z"/>
			<path style="fill:#F1F2F4;stroke:#9D9D9C;stroke-miterlimit:10;" d="M390.99,177.114c0,2.146-1.756,3.902-3.902,3.902h-17.236
				c-2.146,0-3.902-1.756-3.902-3.902v-16.182c0-2.146,1.756-3.902,3.902-3.902h17.236c2.146,0,3.902,1.756,3.902,3.902V177.114z"/>
			<path style="fill:#F1F2F4;stroke:#9D9D9C;stroke-miterlimit:10;" d="M422.093,177.114c0,2.146-1.756,3.902-3.902,3.902h-17.236
				c-2.146,0-3.902-1.756-3.902-3.902v-16.182c0-2.146,1.756-3.902,3.902-3.902h17.236c2.146,0,3.902,1.756,3.902,3.902V177.114z"/>
			<path style="fill:#F1F2F4;stroke:#9D9D9C;stroke-miterlimit:10;" d="M453.195,177.114c0,2.146-1.756,3.902-3.902,3.902h-17.236
				c-2.146,0-3.902-1.756-3.902-3.902v-16.182c0-2.146,1.756-3.902,3.902-3.902h17.236c2.146,0,3.902,1.756,3.902,3.902V177.114z"/>
			<path style="fill:#F1F2F4;stroke:#9D9D9C;stroke-miterlimit:10;" d="M484.297,177.114c0,2.146-1.756,3.902-3.902,3.902h-17.236
				c-2.146,0-3.902-1.756-3.902-3.902v-16.182c0-2.146,1.756-3.902,3.902-3.902h17.236c2.146,0,3.902,1.756,3.902,3.902V177.114z"/>
			<path style="fill:#F1F2F4;stroke:#9D9D9C;stroke-miterlimit:10;" d="M515.399,177.114c0,2.146-1.756,3.902-3.902,3.902h-17.236
				c-2.146,0-3.902-1.756-3.902-3.902v-16.182c0-2.146,1.756-3.902,3.902-3.902h17.236c2.146,0,3.902,1.756,3.902,3.902V177.114z"/>
			<path style="fill:#F1F2F4;stroke:#9D9D9C;stroke-miterlimit:10;" d="M189.353,207.558c0,2.146-1.756,3.902-3.902,3.902h-17.236
				c-2.146,0-3.902-1.756-3.902-3.902v-16.182c0-2.146,1.756-3.902,3.902-3.902h17.236c2.146,0,3.902,1.756,3.902,3.902V207.558z"/>
			<path style="fill:#F1F2F4;stroke:#9D9D9C;stroke-miterlimit:10;" d="M220.455,207.558c0,2.146-1.756,3.902-3.902,3.902h-17.236
				c-2.146,0-3.902-1.756-3.902-3.902v-16.182c0-2.146,1.756-3.902,3.902-3.902h17.236c2.146,0,3.902,1.756,3.902,3.902V207.558z"/>
			<path style="fill:#F1F2F4;stroke:#9D9D9C;stroke-miterlimit:10;" d="M251.558,207.558c0,2.146-1.756,3.902-3.902,3.902h-17.236
				c-2.146,0-3.902-1.756-3.902-3.902v-16.182c0-2.146,1.756-3.902,3.902-3.902h17.236c2.146,0,3.902,1.756,3.902,3.902V207.558z"/>
			<path style="fill:#F1F2F4;stroke:#9D9D9C;stroke-miterlimit:10;" d="M282.66,207.558c0,2.146-1.756,3.902-3.902,3.902h-17.236
				c-2.146,0-3.902-1.756-3.902-3.902v-16.182c0-2.146,1.756-3.902,3.902-3.902h17.236c2.146,0,3.902,1.756,3.902,3.902V207.558z"/>
			<path style="fill:#F1F2F4;stroke:#9D9D9C;stroke-miterlimit:10;" d="M313.762,207.558c0,2.146-1.756,3.902-3.902,3.902h-17.236
				c-2.146,0-3.902-1.756-3.902-3.902v-16.182c0-2.146,1.756-3.902,3.902-3.902h17.236c2.146,0,3.902,1.756,3.902,3.902V207.558z"/>
			<path style="fill:#F1F2F4;stroke:#9D9D9C;stroke-miterlimit:10;" d="M344.864,207.558c0,2.146-1.756,3.902-3.902,3.902h-17.236
				c-2.146,0-3.902-1.756-3.902-3.902v-16.182c0-2.146,1.756-3.902,3.902-3.902h17.236c2.146,0,3.902,1.756,3.902,3.902V207.558z"/>
			<path style="fill:#F1F2F4;stroke:#9D9D9C;stroke-miterlimit:10;" d="M375.966,207.558c0,2.146-1.756,3.902-3.902,3.902h-17.236
				c-2.146,0-3.902-1.756-3.902-3.902v-16.182c0-2.146,1.756-3.902,3.902-3.902h17.236c2.146,0,3.902,1.756,3.902,3.902V207.558z"/>
			<path style="fill:#F1F2F4;stroke:#9D9D9C;stroke-miterlimit:10;" d="M407.069,207.558c0,2.146-1.756,3.902-3.902,3.902h-17.236
				c-2.146,0-3.902-1.756-3.902-3.902v-16.182c0-2.146,1.756-3.902,3.902-3.902h17.236c2.146,0,3.902,1.756,3.902,3.902V207.558z"/>
			<path style="fill:#F1F2F4;stroke:#9D9D9C;stroke-miterlimit:10;" d="M438.171,207.558c0,2.146-1.756,3.902-3.902,3.902h-17.236
				c-2.146,0-3.902-1.756-3.902-3.902v-16.182c0-2.146,1.756-3.902,3.902-3.902h17.236c2.146,0,3.902,1.756,3.902,3.902V207.558z"/>
			<path style="fill:#F1F2F4;stroke:#9D9D9C;stroke-miterlimit:10;" d="M469.273,207.558c0,2.146-1.756,3.902-3.902,3.902h-17.236
				c-2.146,0-3.902-1.756-3.902-3.902v-16.182c0-2.146,1.756-3.902,3.902-3.902h17.236c2.146,0,3.902,1.756,3.902,3.902V207.558z"/>
			<path style="fill:#F1F2F4;stroke:#9D9D9C;stroke-miterlimit:10;" d="M500.375,207.558c0,2.146-1.756,3.902-3.902,3.902h-17.236
				c-2.146,0-3.902-1.756-3.902-3.902v-16.182c0-2.146,1.756-3.902,3.902-3.902h17.236c2.146,0,3.902,1.756,3.902,3.902V207.558z"/>
			<path style="fill:#F1F2F4;stroke:#9D9D9C;stroke-miterlimit:10;" d="M531.478,207.558c0,2.146-1.756,3.902-3.902,3.902H510.34
				c-2.146,0-3.902-1.756-3.902-3.902v-16.182c0-2.146,1.756-3.902,3.902-3.902h17.236c2.146,0,3.902,1.756,3.902,3.902V207.558z"/>
			<path style="fill:#F1F2F4;stroke:#9D9D9C;stroke-miterlimit:10;" d="M198.315,238.001c0,2.146-1.756,3.902-3.902,3.902h-17.236
				c-2.146,0-3.902-1.756-3.902-3.902v-16.182c0-2.146,1.756-3.902,3.902-3.902h17.236c2.146,0,3.902,1.756,3.902,3.902V238.001z"/>
			<path style="fill:#F1F2F4;stroke:#9D9D9C;stroke-miterlimit:10;" d="M229.417,238.001c0,2.146-1.756,3.902-3.902,3.902h-17.236
				c-2.146,0-3.902-1.756-3.902-3.902v-16.182c0-2.146,1.756-3.902,3.902-3.902h17.236c2.146,0,3.902,1.756,3.902,3.902V238.001z"/>
			<path style="fill:#F1F2F4;stroke:#9D9D9C;stroke-miterlimit:10;" d="M260.519,238.001c0,2.146-1.756,3.902-3.902,3.902h-17.236
				c-2.146,0-3.902-1.756-3.902-3.902v-16.182c0-2.146,1.756-3.902,3.902-3.902h17.236c2.146,0,3.902,1.756,3.902,3.902V238.001z"/>
			<path style="fill:#F1F2F4;stroke:#9D9D9C;stroke-miterlimit:10;" d="M291.621,238.001c0,2.146-1.756,3.902-3.902,3.902h-17.236
				c-2.146,0-3.902-1.756-3.902-3.902v-16.182c0-2.146,1.756-3.902,3.902-3.902h17.236c2.146,0,3.902,1.756,3.902,3.902V238.001z"/>
			<path style="fill:#F1F2F4;stroke:#9D9D9C;stroke-miterlimit:10;" d="M322.724,238.001c0,2.146-1.756,3.902-3.902,3.902h-17.236
				c-2.146,0-3.902-1.756-3.902-3.902v-16.182c0-2.146,1.756-3.902,3.902-3.902h17.236c2.146,0,3.902,1.756,3.902,3.902V238.001z"/>
			<path style="fill:#F1F2F4;stroke:#9D9D9C;stroke-miterlimit:10;" d="M353.826,238.001c0,2.146-1.756,3.902-3.902,3.902h-17.236
				c-2.146,0-3.902-1.756-3.902-3.902v-16.182c0-2.146,1.756-3.902,3.902-3.902h17.236c2.146,0,3.902,1.756,3.902,3.902V238.001z"/>
			<path style="fill:#F1F2F4;stroke:#9D9D9C;stroke-miterlimit:10;" d="M384.928,238.001c0,2.146-1.756,3.902-3.902,3.902H363.79
				c-2.146,0-3.902-1.756-3.902-3.902v-16.182c0-2.146,1.756-3.902,3.902-3.902h17.236c2.146,0,3.902,1.756,3.902,3.902V238.001z"/>
			<path style="fill:#F1F2F4;stroke:#9D9D9C;stroke-miterlimit:10;" d="M416.03,238.001c0,2.146-1.756,3.902-3.902,3.902h-17.236
				c-2.146,0-3.902-1.756-3.902-3.902v-16.182c0-2.146,1.756-3.902,3.902-3.902h17.236c2.146,0,3.902,1.756,3.902,3.902V238.001z"/>
			<path style="fill:#F1F2F4;stroke:#9D9D9C;stroke-miterlimit:10;" d="M447.133,238.001c0,2.146-1.756,3.902-3.902,3.902h-17.236
				c-2.146,0-3.902-1.756-3.902-3.902v-16.182c0-2.146,1.756-3.902,3.902-3.902h17.236c2.146,0,3.902,1.756,3.902,3.902V238.001z"/>
			<path style="fill:#F1F2F4;stroke:#9D9D9C;stroke-miterlimit:10;" d="M478.235,238.001c0,2.146-1.756,3.902-3.902,3.902h-17.236
				c-2.146,0-3.902-1.756-3.902-3.902v-16.182c0-2.146,1.756-3.902,3.902-3.902h17.236c2.146,0,3.902,1.756,3.902,3.902V238.001z"/>
			<path style="fill:#F1F2F4;stroke:#9D9D9C;stroke-miterlimit:10;" d="M509.337,238.001c0,2.146-1.756,3.902-3.902,3.902h-17.236
				c-2.146,0-3.902-1.756-3.902-3.902v-16.182c0-2.146,1.756-3.902,3.902-3.902h17.236c2.146,0,3.902,1.756,3.902,3.902V238.001z"/>
			<path style="fill:#F1F2F4;stroke:#9D9D9C;stroke-miterlimit:10;" d="M540.439,238.001c0,2.146-1.756,3.902-3.902,3.902h-17.236
				c-2.146,0-3.902-1.756-3.902-3.902v-16.182c0-2.146,1.756-3.902,3.902-3.902h17.236c2.146,0,3.902,1.756,3.902,3.902V238.001z"/>
			<path style="fill:#F1F2F4;stroke:#9D9D9C;stroke-miterlimit:10;" d="M541.442,187.474c-2.146,0-3.902,1.756-3.902,3.902v16.182
				c0,2.146,1.756,3.902,3.902,3.902h1.158c2.146,0,3.902,1.756,3.902,3.902v22.64c0,2.146,1.756,3.902,3.902,3.902h8.275
				c2.146,0,3.902-1.756,3.902-3.902v-22.64c0-2.146,0-5.658,0-7.804v-16.182c0-2.146-1.756-3.902-3.902-3.902H541.442z"/>
			<path style="fill:#F1F2F4;stroke:#9D9D9C;stroke-miterlimit:10;" d="M183.027,268.444c0,2.146-1.756,3.902-3.902,3.902h-17.236
				c-2.146,0-3.902-1.756-3.902-3.902v-16.182c0-2.146,1.756-3.902,3.902-3.902h17.236c2.146,0,3.902,1.756,3.902,3.902V268.444z"/>
			<path style="fill:#F1F2F4;stroke:#9D9D9C;stroke-miterlimit:10;" d="M214.129,268.444c0,2.146-1.756,3.902-3.902,3.902h-17.236
				c-2.146,0-3.902-1.756-3.902-3.902v-16.182c0-2.146,1.756-3.902,3.902-3.902h17.236c2.146,0,3.902,1.756,3.902,3.902V268.444z"/>
			<path style="fill:#F1F2F4;stroke:#9D9D9C;stroke-miterlimit:10;" d="M245.232,268.444c0,2.146-1.756,3.902-3.902,3.902h-17.236
				c-2.146,0-3.902-1.756-3.902-3.902v-16.182c0-2.146,1.756-3.902,3.902-3.902h17.236c2.146,0,3.902,1.756,3.902,3.902V268.444z"/>
			<path style="fill:#F1F2F4;stroke:#9D9D9C;stroke-miterlimit:10;" d="M276.334,268.444c0,2.146-1.756,3.902-3.902,3.902h-17.236
				c-2.146,0-3.902-1.756-3.902-3.902v-16.182c0-2.146,1.756-3.902,3.902-3.902h17.236c2.146,0,3.902,1.756,3.902,3.902V268.444z"/>
			<path style="fill:#F1F2F4;stroke:#9D9D9C;stroke-miterlimit:10;" d="M307.436,268.444c0,2.146-1.756,3.902-3.902,3.902h-17.236
				c-2.146,0-3.902-1.756-3.902-3.902v-16.182c0-2.146,1.756-3.902,3.902-3.902h17.236c2.146,0,3.902,1.756,3.902,3.902V268.444z"/>
			<path style="fill:#F1F2F4;stroke:#9D9D9C;stroke-miterlimit:10;" d="M338.538,268.444c0,2.146-1.756,3.902-3.902,3.902H317.4
				c-2.146,0-3.902-1.756-3.902-3.902v-16.182c0-2.146,1.756-3.902,3.902-3.902h17.236c2.146,0,3.902,1.756,3.902,3.902V268.444z"/>
			<path style="fill:#F1F2F4;stroke:#9D9D9C;stroke-miterlimit:10;" d="M369.641,268.444c0,2.146-1.756,3.902-3.902,3.902h-17.236
				c-2.146,0-3.902-1.756-3.902-3.902v-16.182c0-2.146,1.756-3.902,3.902-3.902h17.236c2.146,0,3.902,1.756,3.902,3.902V268.444z"/>
			<path style="fill:#F1F2F4;stroke:#9D9D9C;stroke-miterlimit:10;" d="M400.743,268.444c0,2.146-1.756,3.902-3.902,3.902h-17.236
				c-2.146,0-3.902-1.756-3.902-3.902v-16.182c0-2.146,1.756-3.902,3.902-3.902h17.236c2.146,0,3.902,1.756,3.902,3.902V268.444z"/>
			<path style="fill:#F1F2F4;stroke:#9D9D9C;stroke-miterlimit:10;" d="M431.845,268.444c0,2.146-1.756,3.902-3.902,3.902h-17.236
				c-2.146,0-3.902-1.756-3.902-3.902v-16.182c0-2.146,1.756-3.902,3.902-3.902h17.236c2.146,0,3.902,1.756,3.902,3.902V268.444z"/>
			<path style="fill:#F1F2F4;stroke:#9D9D9C;stroke-miterlimit:10;" d="M462.947,268.444c0,2.146-1.756,3.902-3.902,3.902h-17.236
				c-2.146,0-3.902-1.756-3.902-3.902v-16.182c0-2.146,1.756-3.902,3.902-3.902h17.236c2.146,0,3.902,1.756,3.902,3.902V268.444z"/>
			<path style="fill:#F1F2F4;stroke:#9D9D9C;stroke-miterlimit:10;" d="M494.05,268.444c0,2.146-1.756,3.902-3.902,3.902h-17.236
				c-2.146,0-3.902-1.756-3.902-3.902v-16.182c0-2.146,1.756-3.902,3.902-3.902h17.236c2.146,0,3.902,1.756,3.902,3.902V268.444z"/>
			<path style="fill:#F1F2F4;stroke:#9D9D9C;stroke-miterlimit:10;" d="M562.58,268.444c0,2.146-1.756,3.902-3.902,3.902h-54.401
				c-2.146,0-3.902-1.756-3.902-3.902v-16.182c0-2.146,1.756-3.902,3.902-3.902h54.401c2.146,0,3.902,1.756,3.902,3.902V268.444z"/>
			<path style="fill:#F1F2F4;stroke:#9D9D9C;stroke-miterlimit:10;" d="M142.173,298.888c0,2.146-1.756,3.902-3.902,3.902h-17.236
				c-2.146,0-3.902-1.756-3.902-3.902v-16.182c0-2.146,1.756-3.902,3.902-3.902h17.236c2.146,0,3.902,1.756,3.902,3.902V298.888z"/>
			<path style="fill:#F1F2F4;stroke:#9D9D9C;stroke-miterlimit:10;" d="M173.275,298.888c0,2.146-1.756,3.902-3.902,3.902h-17.236
				c-2.146,0-3.902-1.756-3.902-3.902v-16.182c0-2.146,1.756-3.902,3.902-3.902h17.236c2.146,0,3.902,1.756,3.902,3.902V298.888z"/>
			<path style="fill:#F1F2F4;stroke:#9D9D9C;stroke-miterlimit:10;" d="M204.377,298.888c0,2.146-1.756,3.902-3.902,3.902h-17.236
				c-2.146,0-3.902-1.756-3.902-3.902v-16.182c0-2.146,1.756-3.902,3.902-3.902h17.236c2.146,0,3.902,1.756,3.902,3.902V298.888z"/>
			<path style="fill:#F1F2F4;stroke:#9D9D9C;stroke-miterlimit:10;" d="M391.897,302.789H256.582c-2.12,0-3.838-1.719-3.838-3.838
				v-16.309c0-2.12,1.718-3.838,3.838-3.838h135.315c2.12,0,3.838,1.719,3.838,3.838v16.309
				C395.735,301.071,394.016,302.789,391.897,302.789z"/>
			<path style="fill:#F1F2F4;stroke:#9D9D9C;stroke-miterlimit:10;" d="M468.746,298.888c0,2.146-1.756,3.902-3.902,3.902h-17.236
				c-2.146,0-3.902-1.756-3.902-3.902v-16.182c0-2.146,1.756-3.902,3.902-3.902h17.236c2.146,0,3.902,1.756,3.902,3.902V298.888z"/>
			<path style="fill:#F1F2F4;stroke:#9D9D9C;stroke-miterlimit:10;" d="M499.848,298.888c0,2.146-1.756,3.902-3.902,3.902H478.71
				c-2.146,0-3.902-1.756-3.902-3.902v-16.182c0-2.146,1.756-3.902,3.902-3.902h17.236c2.146,0,3.902,1.756,3.902,3.902V298.888z"/>
			<path style="fill:#F1F2F4;stroke:#9D9D9C;stroke-miterlimit:10;" d="M562.58,298.888c0,2.146-1.756,3.902-3.902,3.902h-17.236
				c-2.146,0-3.902-1.756-3.902-3.902v-16.182c0-2.146,1.756-3.902,3.902-3.902h17.236c2.146,0,3.902,1.756,3.902,3.902V298.888z"/>
			<path style="fill:#F1F2F4;stroke:#9D9D9C;stroke-miterlimit:10;" d="M531.478,285.972c0,2.146-1.756,3.902-3.902,3.902H510.34
				c-2.146,0-3.902-1.756-3.902-3.902v-3.267c0-2.146,1.756-3.902,3.902-3.902h17.236c2.146,0,3.902,1.756,3.902,3.902V285.972z"/>
			<path style="fill:#F1F2F4;stroke:#9D9D9C;stroke-miterlimit:10;" d="M531.478,298.888c0,2.146-1.756,3.902-3.902,3.902H510.34
				c-2.146,0-3.902-1.756-3.902-3.902v-3.267c0-2.146,1.756-3.902,3.902-3.902h17.236c2.146,0,3.902,1.756,3.902,3.902V298.888z"/>
		</g>
	</g>
	<g style="clip-path:url(#SVGID_00000086691402022303734900000017207870812255993519_);">
		<path style="fill:#DADADA;" d="M162.653,694.536l9.087,2.404l4.481-20.603l5.635-25.912l4.615-21.218l1.021-4.694l5.635-25.912
			l5.635-25.912l5.635-25.912l5.635-25.912l5.635-25.912l5.635-25.912l5.635-25.912l0.878-4.038l4.757-21.874l5.635-25.912
			l2.806-12.902l-6.403-6.401c0.522-1.319,1.038-2.606,1.542-3.839l-2.12-2.119c5.029-6.083,10.724-11.614,16.99-16.483l2.739-2.126
			c12.706-15.47,10.085-12.571,18.946-22.165c3.234-3.492,5.648-7.682,7.05-12.234c4.434-14.355,3.694-12.619,8.959-22.319
			c1.84-3.397,2.364-7.359,1.453-11.115l-1.565-6.495c-0.337-1.383-0.518-2.803-0.549-4.22c-0.042-1.427,0.084-2.859,0.354-4.268
			l1.655-8.476c0.158-0.801,0.051-1.607-0.273-2.322c-0.19-0.409-0.447-0.786-0.769-1.107l-9.768-9.763
			c-0.137-0.137-0.285-0.263-0.445-0.378c-1.62-1.181-3.146-1.328-5.288-0.436c-1.147,0.477-2.207,1.126-3.163,1.907
			c-1.2,0.982-2.236,2.172-3.072,3.491c-4.571,7.23-6.724,13.201-8.006,18.238c0.229-2.647,0.404-4.326,0.404-4.326l13.504-79.593
			c0.514-3.028-0.529-5.96-2.547-7.978l-0.002-0.002l-9.766-9.761l-0.002-0.002c-1.29-1.29-2.98-2.206-4.915-2.534
			c-2.699-0.458-5.324,0.327-7.292,1.936c-1.567,1.281-2.717,3.084-3.16,5.199l-7.687,37.017l-6.128-6.125
			c-1.341-1.341-3.053-2.345-5.027-2.836c-3.44-0.856-6.904,0.042-9.452,2.125c-1.742,1.424-3.056,3.403-3.641,5.755l-0.932,4.664
			l-3.995-3.994c-1.637-1.637-3.811-2.762-6.285-3.073c-3.058-0.385-5.979,0.549-8.191,2.357c-2.07,1.693-3.52,4.152-3.88,7.015
			l-1.442,11.455c-1.201-1.067-2.718-1.803-4.428-2.042c-2.424-0.339-4.752,0.389-6.509,1.825c-1.586,1.296-2.706,3.17-3.012,5.359
			l-5.464,25.158c-0.009,0.078-0.019,0.156-0.028,0.232c-1.353,11.335-0.669,10.622-1.503,20.123
			c-0.012,0.06-0.017,0.117-0.015,0.172l-4.724,38.966c-0.442,3.289-0.923,6.827-1.447,10.636c-0.093,0.675-0.115,1.332-0.081,1.969
			l-0.107,0.887c-0.402,4.126-1.275,8.179-2.595,12.084l-4.128-1.222c-0.111,2.448-0.375,5.325-0.824,8.763l-15.729-4.612
			l-0.344-0.101l-2.187,6.467l-2.696,7.971l-5.724,16.926l-8.42,24.896l-8.42,24.896l-8.42,24.897l-8.42,24.896l-8.42,24.896
			l-8.42,24.896l-8.42,24.897l-8.42,24.896l-8.42,24.897l-8.42,24.896l-8.42,24.896l-2.173,6.426l9.764,9.769l18.353,4.856
			l25.506,6.748l25.506,6.748l2.808,0.743l22.699,6.005L162.653,694.536z"/>
		<g>
			<g>
				<path style="fill:#F3AD88;" d="M179.976,267.421c3.769-0.389,6.931-3.301,7.48-7.222l4.148-29.648
					c0.645-4.613-2.571-8.876-7.183-9.521c-4.612-0.645-8.876,2.571-9.521,7.184l-5.464,25.158
					c-0.646,4.613,3.887,13.365,8.499,14.011C178.626,267.479,179.311,267.489,179.976,267.421z"/>
				<g>
					<path style="fill:#EF946C;" d="M234.909,255.816c0.597-0.051,1.197-0.153,1.796-0.31c5.632-1.476,9.002-7.238,7.526-12.87
						l-9.972-38.054c-1.476-5.632-7.238-9.002-12.87-7.525c-5.632,1.476-9.002,7.238-7.526,12.87l9.972,38.055
						C225.153,253.014,229.895,256.24,234.909,255.816z"/>
				</g>
				<path style="fill:#F3AD88;" d="M245.508,168.712L223.86,272.956c-1.243,5.987,2.602,11.848,8.589,13.091
					c5.987,1.243,11.848-2.602,13.091-8.589c0.025-0.118,0.055-0.281,0.075-0.399l17.809-104.968
					c0.842-4.965-2.499-9.672-7.464-10.514C251.113,160.754,246.506,163.939,245.508,168.712z"/>
				<g>
					<path style="fill:#EF946C;" d="M188.076,222.466c0.103,1.336-0.101,2.746-0.302,4.163l-2.818,27.382l4.993-27.401
						c-0.316-1.334-0.665-2.486-1.063-3.492L188.076,222.466z"/>
				</g>
				<path style="fill:#F3AD88;" d="M197.705,265.978c4.476-0.854,13.696-3.607,14.295-8.372l-0.267-43.29
					c0.745-5.921-3.451-11.325-9.372-12.07c-5.921-0.745-11.325,3.451-12.07,9.372l-5.335,42.395
					c-0.745,5.921,3.451,11.325,9.372,12.07C195.483,266.228,196.619,266.185,197.705,265.978z"/>
				<path style="fill:#F3AD88;" d="M249.92,251.683l-80.485,1.688c-2.447,20.383,1.581,2.442-7.717,70.129
					c-0.915,6.66,4.987,11.622,4.987,11.622l52.315,14.952c0,0,4.623-10.682,9.783-16.938c5.161-6.256,19.462-10.017,24.683-21.426
					c2.19-2.884-4.527-20.554-4.947-31.664C248.118,268.935,249.92,251.683,249.92,251.683z"/>
				<g>
					<path style="fill:#F4BEA3;" d="M247.458,173.502c-0.484,3.676,1.947,7.021,5.411,7.605l0,0c3.465,0.584,6.858-1.78,7.605-5.411
						l1.299-6.31c0.638-3.099-1.215-6.09-4.158-6.586l-3.23-0.544c-2.943-0.496-5.673,1.722-6.087,4.859L247.458,173.502z"/>
				</g>
				<g>
					<path style="fill:#EF946C;" d="M207.133,240.99l5.502-27.566c-0.608-2.529-1.307-4.384-2.227-5.92
						c0.647,1.834,0.882,3.861,0.59,5.928l-4.359,25.915L207.133,240.99z"/>
				</g>
				<path style="fill:#F3AD88;" d="M215.097,257.758c4.483-0.379,12.885,6.934,14.03,2.325l5.419-50.222
					c1.44-5.792-2.089-11.654-7.881-13.093c-5.792-1.441-11.653,2.089-13.093,7.88l-11.534,57.726
					c-1.44,5.792,3.747-6.339,9.539-4.899C212.761,257.768,213.947,257.855,215.097,257.758z"/>
			</g>
			<g>
				<path style="fill:#F3AD88;" d="M161.529,326.357c-0.717,7.35-2.926,14.469-6.494,20.929l-20.461,37.034l62.023,19.503
					l15.4-29.152c7.167-13.568,17.146-25.458,29.262-34.873l2.739-2.126c12.706-15.469,10.085-12.571,18.946-22.165
					c3.234-3.492,5.648-7.682,7.05-12.234c4.434-14.355,3.693-12.618,8.958-22.319c1.84-3.397,2.364-7.358,1.453-11.115
					l-1.565-6.495c-0.337-1.383-0.518-2.803-0.549-4.22c-0.042-1.427,0.084-2.859,0.354-4.268l1.655-8.476
					c0.158-0.801,0.051-1.607-0.273-2.322c-0.271-0.583-0.678-1.101-1.214-1.485c-1.62-1.181-3.146-1.328-5.288-0.436
					c-2.589,1.076-4.733,3.028-6.235,5.398c-13.939,22.051-5.391,32.38-18.259,40.287c-0.525-8.818,0.01-25.677,0.01-25.677
					c-8.387,3.315-6.925,10.199-9.499,11.547l-16.507-8.74l-28.838-0.959c-23.98,6.796-26.337,8.784-26.309,9.906L161.529,326.357z"
					/>
				<g>
					<path style="fill:#F4BEA3;" d="M274.856,248.16l-0.447,5.184c-0.239,2.71,1.461,5.105,3.882,5.78
						c-0.042-1.427,0.084-2.859,0.354-4.268l1.655-8.476c0.158-0.801,0.051-1.607-0.273-2.322l-0.438-0.051
						C277.198,243.717,275.074,245.609,274.856,248.16z"/>
				</g>
			</g>
			<g>
				<path style="fill:#DCF1FA;" d="M226.389,358.398c-5.174,12.681-11.742,31.056-11.742,31.056l-35.628-9.6l-29.643-7.995
					c3.538-17.12,5.114-27.638,5.43-34.641l34.028,10.071L226.389,358.398z"/>
			</g>
			<g>
				<g>
					<defs>
						<polygon id="SVGID_00000021103742743935094670000012980320056706305455_" points="161.974,687.171 32.511,652.919 
							137.91,341.269 231.25,368.638 						"/>
					</defs>
					<clipPath id="SVGID_00000005957348864747667590000006834549798912188049_">
						<use xlink:href="#SVGID_00000021103742743935094670000012980320056706305455_"  style="overflow:visible;"/>
					</clipPath>
				</g>
				<g>
					<defs>
						<polygon id="SVGID_00000103244234907961090080000001499752890879330990_" points="161.974,687.171 32.511,652.919 
							137.91,341.269 231.25,368.638 						"/>
					</defs>
					<use xlink:href="#SVGID_00000103244234907961090080000001499752890879330990_"  style="overflow:visible;fill:#274465;"/>
					<clipPath id="SVGID_00000055703245429532544730000010267671956546904994_">
						<use xlink:href="#SVGID_00000103244234907961090080000001499752890879330990_"  style="overflow:visible;"/>
					</clipPath>
					<g style="clip-path:url(#SVGID_00000055703245429532544730000010267671956546904994_);">
						<polygon style="fill:#274465;" points="161.974,687.171 32.511,652.919 137.91,341.269 231.25,368.638 						"/>
					</g>
					<g style="clip-path:url(#SVGID_00000055703245429532544730000010267671956546904994_);">
						
							<line style="fill:none;stroke:#4A93AF;stroke-width:0.9921;stroke-miterlimit:10;" x1="-126.115" y1="682.957" x2="22.062" y2="276.532"/>
						
							<line style="fill:none;stroke:#4A93AF;stroke-width:0.9921;stroke-miterlimit:10;" x1="-101.241" y1="691.438" x2="46.936" y2="285.013"/>
						
							<line style="fill:none;stroke:#4A93AF;stroke-width:0.9921;stroke-miterlimit:10;" x1="-76.367" y1="699.92" x2="71.81" y2="293.495"/>
						
							<line style="fill:none;stroke:#4A93AF;stroke-width:0.9921;stroke-miterlimit:10;" x1="-51.493" y1="708.401" x2="96.684" y2="301.977"/>
						
							<line style="fill:none;stroke:#4A93AF;stroke-width:0.9921;stroke-miterlimit:10;" x1="-26.619" y1="716.883" x2="121.558" y2="310.458"/>
						
							<line style="fill:none;stroke:#4A93AF;stroke-width:0.9921;stroke-miterlimit:10;" x1="-1.745" y1="725.365" x2="146.432" y2="318.94"/>
						
							<line style="fill:none;stroke:#4A93AF;stroke-width:0.9921;stroke-miterlimit:10;" x1="23.129" y1="733.846" x2="171.306" y2="327.422"/>
						
							<line style="fill:none;stroke:#4A93AF;stroke-width:0.9921;stroke-miterlimit:10;" x1="48.003" y1="742.328" x2="196.179" y2="335.903"/>
						
							<line style="fill:none;stroke:#4A93AF;stroke-width:0.9921;stroke-miterlimit:10;" x1="72.877" y1="750.81" x2="221.053" y2="344.385"/>
						
							<line style="fill:none;stroke:#4A93AF;stroke-width:0.9921;stroke-miterlimit:10;" x1="97.75" y1="759.292" x2="245.927" y2="352.867"/>
						
							<line style="fill:none;stroke:#4A93AF;stroke-width:0.9921;stroke-miterlimit:10;" x1="122.624" y1="767.773" x2="270.801" y2="361.348"/>
						
							<line style="fill:none;stroke:#4A93AF;stroke-width:0.9921;stroke-miterlimit:10;" x1="147.498" y1="776.255" x2="295.675" y2="369.83"/>
						
							<line style="fill:none;stroke:#4A93AF;stroke-width:0.9921;stroke-miterlimit:10;" x1="172.372" y1="784.736" x2="320.549" y2="378.312"/>
						
							<line style="fill:none;stroke:#4A93AF;stroke-width:0.9921;stroke-miterlimit:10;" x1="197.246" y1="793.218" x2="345.423" y2="386.793"/>
						
							<line style="fill:none;stroke:#4A93AF;stroke-width:0.9921;stroke-miterlimit:10;" x1="222.12" y1="801.7" x2="370.297" y2="395.275"/>
						
							<line style="fill:none;stroke:#4A93AF;stroke-width:0.9921;stroke-miterlimit:10;" x1="246.994" y1="810.181" x2="395.171" y2="403.757"/>
						
							<line style="fill:none;stroke:#4A93AF;stroke-width:0.9921;stroke-miterlimit:10;" x1="271.868" y1="818.663" x2="420.045" y2="412.238"/>
						
							<line style="fill:none;stroke:#4A93AF;stroke-width:0.9921;stroke-miterlimit:10;" x1="282.324" y1="820.677" x2="-124.101" y2="672.501"/>
						
							<line style="fill:none;stroke:#4A93AF;stroke-width:0.9921;stroke-miterlimit:10;" x1="290.806" y1="795.804" x2="-115.619" y2="647.627"/>
						
							<line style="fill:none;stroke:#4A93AF;stroke-width:0.9921;stroke-miterlimit:10;" x1="299.287" y1="770.93" x2="-107.137" y2="622.753"/>
						
							<line style="fill:none;stroke:#4A93AF;stroke-width:0.9921;stroke-miterlimit:10;" x1="307.769" y1="746.056" x2="-98.656" y2="597.879"/>
						
							<line style="fill:none;stroke:#4A93AF;stroke-width:0.9921;stroke-miterlimit:10;" x1="316.251" y1="721.182" x2="-90.174" y2="573.005"/>
						
							<line style="fill:none;stroke:#4A93AF;stroke-width:0.9921;stroke-miterlimit:10;" x1="324.732" y1="696.308" x2="-81.692" y2="548.131"/>
						
							<line style="fill:none;stroke:#4A93AF;stroke-width:0.9921;stroke-miterlimit:10;" x1="333.214" y1="671.434" x2="-73.211" y2="523.257"/>
						
							<line style="fill:none;stroke:#4A93AF;stroke-width:0.9921;stroke-miterlimit:10;" x1="341.696" y1="646.56" x2="-64.729" y2="498.383"/>
						
							<line style="fill:none;stroke:#4A93AF;stroke-width:0.9921;stroke-miterlimit:10;" x1="350.177" y1="621.686" x2="-56.247" y2="473.509"/>
						
							<line style="fill:none;stroke:#4A93AF;stroke-width:0.9921;stroke-miterlimit:10;" x1="358.659" y1="596.812" x2="-47.766" y2="448.635"/>
						
							<line style="fill:none;stroke:#4A93AF;stroke-width:0.9921;stroke-miterlimit:10;" x1="367.141" y1="571.938" x2="-39.284" y2="423.761"/>
						
							<line style="fill:none;stroke:#4A93AF;stroke-width:0.9921;stroke-miterlimit:10;" x1="375.622" y1="547.064" x2="-30.802" y2="398.887"/>
						
							<line style="fill:none;stroke:#4A93AF;stroke-width:0.9921;stroke-miterlimit:10;" x1="384.104" y1="522.19" x2="-22.321" y2="374.013"/>
						
							<line style="fill:none;stroke:#4A93AF;stroke-width:0.9921;stroke-miterlimit:10;" x1="392.586" y1="497.316" x2="-13.839" y2="349.139"/>
						
							<line style="fill:none;stroke:#4A93AF;stroke-width:0.9921;stroke-miterlimit:10;" x1="401.067" y1="472.442" x2="-5.358" y2="324.265"/>
						
							<line style="fill:none;stroke:#4A93AF;stroke-width:0.9921;stroke-miterlimit:10;" x1="409.549" y1="447.568" x2="3.124" y2="299.391"/>
						
							<line style="fill:none;stroke:#4A93AF;stroke-width:0.9921;stroke-miterlimit:10;" x1="418.03" y1="422.694" x2="11.606" y2="274.517"/>
					</g>
				</g>
				<g>
					<defs>
						<polygon id="SVGID_00000171705261022671483590000007352841664912065727_" points="161.974,687.171 32.511,652.919 
							137.91,341.269 231.25,368.638 						"/>
					</defs>
					<clipPath id="SVGID_00000125582407176056169530000007314963953965666179_">
						<use xlink:href="#SVGID_00000171705261022671483590000007352841664912065727_"  style="overflow:visible;"/>
					</clipPath>
				</g>
			</g>
		</g>
	</g>
	<g style="clip-path:url(#SVGID_00000086691402022303734900000017207870812255993519_);">
		<path style="fill:#DADADA;" d="M663.858,174.138l0.674-0.066l-0.617-7.6l-0.107-1.332l0.072-1.938l0.144-3.877
			c0.051-2.59,0.083-5.184,0.072-7.782c-0.063-2.603-0.064-5.201-0.24-7.813c-0.236-5.214-0.776-10.452-1.678-15.667
			c-0.905-5.21-2.195-10.42-4.172-15.44c-1.968-5.01-4.669-9.827-8.177-13.948c-0.185-0.21-0.371-0.419-0.56-0.625l-4.009-4.391
			c-3.444-3.773-7.528-6.869-11.886-8.999c-4.581-2.333-9.365-3.728-14.081-4.797c-4.721-1.028-9.414-1.705-14.009-2.366
			c-4.599-0.663-9.12-1.324-13.472-2.336c-2.174-0.509-4.312-1.089-6.362-1.834c-2.067-0.712-4.04-1.598-5.907-2.64
			c-1.958-1.07-3.768-2.359-5.419-3.844c-0.046-0.061-0.091-0.122-0.137-0.183c-2.544-3.551-4.439-7.735-5.79-12.218
			c-1.354-4.488-2.174-9.26-2.684-14.105c-0.287-2.417-0.395-4.88-0.549-7.331c-0.045-2.471-0.172-4.932-0.111-7.419
			c0.066-9.927,0.894-19.927,2.126-29.886l-4.008-4.391l-0.671-0.1l-0.671-0.1l-0.671-0.1l-0.671-0.1l-1.893-0.282l-0.671-0.1
			l-0.671-0.1c0,0-0.671-0.1-0.671-0.1l-0.671-0.1c-1.26,10.198-2.123,20.502-2.193,30.924c-0.061,2.6,0.067,5.223,0.119,7.835
			c0.135,2.19,0.239,4.378,0.45,6.57c0.042,0.434,0.088,0.869,0.139,1.304c0.555,5.251,1.448,10.532,3.006,15.709
			c1.556,5.162,3.814,10.243,7.017,14.701c0.885,1.166,1.81,2.304,2.792,3.38l4.009,4.391c0.852,0.933,1.746,1.819,2.695,2.634
			c2.033,1.747,4.196,3.329,6.481,4.554c2.268,1.265,4.611,2.306,6.972,3.123c2.359,0.855,4.736,1.498,7.101,2.051
			c4.736,1.099,9.429,1.777,14.036,2.442c9.174,1.332,18.229,2.581,25.987,6.497c2.745,1.341,5.251,3.073,7.503,5.123
			c2.212,2.957,4.023,6.324,5.447,9.948c1.706,4.325,2.875,8.989,3.701,13.763c0.827,4.777,1.338,9.673,1.56,14.618
			c0.168,2.463,0.167,4.955,0.229,7.435c0.01,2.488-0.021,4.981-0.069,7.475l-0.139,3.746l-0.069,1.873l-0.018,0.467
			c-0.013,0.159,0.007,0.317,0.019,0.475l0.047,0.577l0.077,0.95l0.617,7.6l4.009,4.392l0.674-0.066l0.674-0.066l0.674-0.066
			l0.674-0.066l1.903-0.185l0.674-0.066l0.674-0.066L663.858,174.138z"/>
		<g>
			<path style="fill:#BBBBBD;" d="M555.711-9.773l7.26,1.081c-1.232,9.959-2.06,19.959-2.126,29.886
				c-0.061,2.487,0.066,4.948,0.111,7.419c0.154,2.451,0.262,4.914,0.549,7.331c0.51,4.845,1.33,9.617,2.684,14.105
				c1.351,4.483,3.246,8.668,5.79,12.218c2.592,3.502,5.806,6.365,9.565,8.419c1.868,1.042,3.841,1.927,5.907,2.64
				c2.049,0.746,4.188,1.325,6.362,1.834c4.352,1.012,8.874,1.674,13.472,2.336c4.595,0.661,9.288,1.338,14.009,2.366
				c4.716,1.069,9.5,2.465,14.081,4.797c4.596,2.246,8.888,5.568,12.446,9.625c3.508,4.121,6.208,8.937,8.177,13.947
				c1.977,5.02,3.267,10.23,4.172,15.44c0.902,5.216,1.442,10.454,1.678,15.667c0.176,2.612,0.177,5.21,0.24,7.813
				c0.011,2.598-0.021,5.192-0.072,7.782l-0.144,3.877l-0.072,1.938l0.107,1.332l0.617,7.6l-7.298,0.71l-0.617-7.6l-0.077-0.95
				l-0.047-0.577c-0.012-0.158-0.033-0.316-0.019-0.475l0.018-0.467l0.069-1.873l0.139-3.746c0.049-2.494,0.079-4.987,0.069-7.475
				c-0.062-2.481-0.06-4.972-0.229-7.435c-0.222-4.945-0.733-9.841-1.56-14.618c-0.827-4.774-1.996-9.438-3.701-13.763
				c-1.7-4.324-3.949-8.283-6.776-11.616c-2.886-3.263-6.295-5.946-10.183-7.846c-7.757-3.916-16.813-5.165-25.986-6.497
				c-4.606-0.665-9.3-1.343-14.036-2.442c-2.366-0.553-4.742-1.196-7.101-2.051c-2.361-0.817-4.704-1.857-6.972-3.123
				c-2.285-1.225-4.448-2.807-6.481-4.553c-2.043-1.755-3.834-3.837-5.487-6.014c-3.204-4.457-5.462-9.539-7.017-14.701
				c-1.559-5.177-2.452-10.457-3.006-15.709c-0.309-2.63-0.427-5.25-0.589-7.874c-0.052-2.612-0.18-5.235-0.119-7.835
				C553.588,10.729,554.45,0.424,555.711-9.773z"/>
			<path style="fill:#C4C4C5;" d="M556.382-9.674l5.919,0.882c-1.235,9.981-2.066,20.009-2.132,29.982
				c-0.061,2.497,0.066,4.973,0.112,7.458c0.155,2.467,0.263,4.944,0.552,7.381c0.514,4.882,1.341,9.702,2.714,14.253
				c1.37,4.547,3.298,8.814,5.904,12.448c2.652,3.586,5.954,6.523,9.787,8.617c1.905,1.062,3.912,1.962,6.006,2.684
				c2.078,0.756,4.238,1.341,6.43,1.854c4.387,1.021,8.925,1.683,13.524,2.346c4.597,0.662,9.274,1.336,13.964,2.358
				c4.684,1.061,9.419,2.445,13.932,4.744c4.531,2.214,8.741,5.477,12.237,9.46c3.445,4.047,6.104,8.785,8.047,13.732
				c1.952,4.956,3.231,10.115,4.128,15.285c0.895,5.175,1.432,10.382,1.667,15.57c0.175,2.598,0.176,5.186,0.239,7.778
				c0.011,2.587-0.021,5.172-0.072,7.754l-0.143,3.865l-0.072,1.933l-0.002,0.06l0.001-0.013c0-0.016,0-0.003,0,0.004
				c-0.002,0.015,0,0.029,0.001,0.044l0.032,0.393l0.077,0.95l0.617,7.6l-5.95,0.579l-0.617-7.6l-0.077-0.95l-0.046-0.558
				c-0.011-0.144-0.03-0.287-0.017-0.432l0.016-0.425l0.07-1.879l0.14-3.759c0.049-2.503,0.08-5.005,0.07-7.503
				c-0.062-2.493-0.061-4.994-0.23-7.47c-0.223-4.97-0.737-9.897-1.571-14.715c-0.834-4.814-2.014-9.529-3.745-13.918
				c-1.725-4.388-4.016-8.425-6.905-11.832c-2.948-3.337-6.439-6.078-10.392-8.01c-7.893-3.981-17.009-5.224-26.181-6.559
				c-4.606-0.665-9.283-1.341-13.984-2.433c-2.348-0.549-4.703-1.186-7.033-2.031c-2.334-0.807-4.642-1.833-6.874-3.078
				c-2.248-1.205-4.37-2.758-6.365-4.471c-2.004-1.721-3.759-3.762-5.381-5.898c-3.143-4.373-5.367-9.372-6.904-14.471
				c-1.54-5.113-2.426-10.347-2.977-15.561c-0.307-2.611-0.424-5.217-0.585-7.824c-0.051-2.6-0.179-5.208-0.118-7.797
				C554.265,10.778,555.124,0.502,556.382-9.674z"/>
			<path style="fill:#CACACB;" d="M557.052-9.574l4.577,0.682c-1.237,10.003-2.072,20.059-2.138,30.078
				c-0.061,2.508,0.066,4.999,0.112,7.496c0.155,2.483,0.265,4.974,0.556,7.431c0.518,4.92,1.352,9.786,2.743,14.402
				c1.389,4.609,3.351,8.959,6.017,12.677c2.712,3.671,6.102,6.682,10.009,8.815c1.942,1.083,3.983,1.997,6.104,2.729
				c2.107,0.766,4.289,1.357,6.498,1.874c4.423,1.029,8.977,1.693,13.576,2.356c4.598,0.662,9.259,1.335,13.919,2.35
				c4.651,1.054,9.337,2.425,13.783,4.69c4.466,2.182,8.594,5.386,12.028,9.296c3.382,3.975,5.999,8.633,7.918,13.516
				c1.927,4.892,3.195,10.001,4.085,15.131c0.888,5.134,1.423,10.309,1.656,15.473c0.175,2.585,0.175,5.163,0.238,7.743
				c0.011,2.577-0.021,5.152-0.071,7.725l-0.143,3.853l-0.072,1.927c-0.002,0.1-0.007,0.102,0,0.181l0.033,0.411l0.077,0.95
				l0.617,7.6l-4.601,0.448l-0.617-7.6l-0.077-0.95l-0.044-0.539c-0.035-0.237-0.006-0.553-0.001-0.77l0.07-1.885l0.14-3.77
				c0.049-2.511,0.08-5.024,0.07-7.532c-0.062-2.504-0.061-5.015-0.231-7.505c-0.225-4.995-0.741-9.953-1.582-14.811
				c-0.841-4.855-2.033-9.62-3.788-14.073c-1.75-4.451-4.082-8.568-7.034-12.047c-3.01-3.41-6.582-6.211-10.602-8.175
				c-8.029-4.044-17.205-5.282-26.375-6.62c-4.605-0.665-9.267-1.34-13.931-2.423c-2.33-0.545-4.663-1.176-6.965-2.011
				c-2.307-0.798-4.581-1.809-6.775-3.033c-2.212-1.185-4.292-2.71-6.248-4.389c-1.965-1.686-3.683-3.688-5.275-5.781
				c-3.082-4.29-5.273-9.205-6.79-14.242c-1.521-5.05-2.4-10.236-2.947-15.412c-0.305-2.591-0.421-5.182-0.581-7.774
				c-0.05-2.587-0.179-5.18-0.117-7.758C554.941,10.828,555.797,0.58,557.052-9.574z"/>
			<path style="fill:#D1D1D3;" d="M557.723-9.474l3.235,0.481c-1.24,10.025-2.077,20.11-2.145,30.174
				c-0.061,2.518,0.066,5.024,0.113,7.535c0.156,2.499,0.267,5.005,0.56,7.481c0.522,4.958,1.363,9.871,2.773,14.55
				c1.408,4.672,3.403,9.105,6.13,12.907c2.772,3.755,6.25,6.84,10.231,9.014c1.979,1.103,4.054,2.032,6.203,2.773
				c2.135,0.776,4.34,1.373,6.567,1.894c4.458,1.037,9.028,1.702,13.628,2.366c4.6,0.662,9.245,1.333,13.874,2.341
				c4.619,1.047,9.255,2.405,13.633,4.637c4.4,2.15,8.447,5.295,11.819,9.131c3.319,3.902,5.894,8.481,7.788,13.301
				c1.902,4.827,3.158,9.886,4.041,14.976c0.881,5.094,1.413,10.237,1.646,15.376c0.174,2.57,0.174,5.139,0.237,7.708
				c0.011,2.567-0.021,5.133-0.071,7.697l-0.142,3.841l-0.072,1.92c-0.002,0.117-0.011,0.165,0,0.268l0.035,0.429l0.077,0.95
				l0.617,7.599l-3.252,0.317l-0.617-7.6l-0.077-0.95l-0.042-0.52c-0.031-0.214-0.005-0.484-0.001-0.684l0.07-1.891l0.141-3.783
				c0.049-2.52,0.08-5.042,0.07-7.56c-0.062-2.515-0.061-5.036-0.232-7.54c-0.226-5.019-0.745-10.01-1.593-14.909
				c-0.848-4.895-2.051-9.71-3.832-14.228c-1.774-4.514-4.149-8.711-7.164-12.263c-3.072-3.483-6.726-6.343-10.811-8.339
				c-8.166-4.108-17.402-5.341-26.57-6.682c-4.604-0.665-9.25-1.338-13.88-2.413c-2.312-0.541-4.623-1.166-6.896-1.991
				c-2.28-0.787-4.52-1.785-6.677-2.988c-2.176-1.164-4.214-2.661-6.132-4.307c-1.926-1.652-3.608-3.614-5.169-5.664
				c-3.021-4.206-5.178-9.039-6.677-14.013c-1.502-4.986-2.375-10.126-2.917-15.264c-0.303-2.571-0.419-5.148-0.578-7.723
				c-0.05-2.574-0.178-5.152-0.117-7.72C555.618,10.878,556.471,0.658,557.723-9.474z"/>
			<path style="fill:#DDDDDE;" d="M558.394-9.374l1.893,0.282c-1.243,10.047-2.083,20.16-2.151,30.269
				c-0.061,2.529,0.066,5.05,0.114,7.573c0.157,2.515,0.268,5.035,0.564,7.532c0.526,4.995,1.374,9.955,2.803,14.697
				c1.427,4.735,3.456,9.251,6.244,13.136c2.832,3.84,6.398,6.999,10.453,9.213c2.016,1.124,4.125,2.067,6.301,2.818
				c2.164,0.786,4.39,1.389,6.635,1.914c4.494,1.045,9.079,1.712,13.681,2.375c4.601,0.662,9.23,1.331,13.829,2.333
				c4.587,1.039,9.173,2.386,13.484,4.584c4.335,2.119,8.3,5.204,11.61,8.967c3.256,3.83,5.79,8.329,7.659,13.086
				c1.877,4.764,3.122,9.772,3.998,14.82c0.874,5.054,1.404,10.165,1.634,15.279c0.173,2.557,0.173,5.116,0.236,7.673
				c0.011,2.557-0.021,5.114-0.071,7.669l-0.142,3.829l-0.071,1.914c-0.024,0.398,0.077,1.149,0.114,1.753l0.617,7.6l-1.903,0.185
				l-0.617-7.6c-0.033-0.664-0.143-1.176-0.119-2.049l0.07-1.897l0.141-3.794c0.05-2.529,0.081-5.06,0.07-7.589
				c-0.062-2.526-0.062-5.057-0.233-7.575c-0.227-5.044-0.749-10.066-1.604-15.006c-0.855-4.935-2.069-9.801-3.875-14.383
				c-1.799-4.577-4.215-8.853-7.293-12.478c-3.134-3.556-6.87-6.475-11.02-8.504c-4.12-2.103-8.568-3.415-13.063-4.434
				c-4.512-0.983-9.096-1.648-13.701-2.31c-4.603-0.664-9.234-1.336-13.828-2.403c-2.295-0.537-4.583-1.156-6.828-1.97
				c-2.252-0.778-4.458-1.761-6.578-2.944c-2.14-1.145-4.136-2.613-6.016-4.225c-1.887-1.618-3.533-3.54-5.063-5.549
				c-2.96-4.122-5.084-8.872-6.564-13.783c-1.483-4.922-2.349-10.015-2.887-15.116c-0.301-2.551-0.415-5.114-0.574-7.673
				c-0.049-2.56-0.177-5.124-0.116-7.681C556.294,10.928,557.144,0.735,558.394-9.374z"/>
		</g>
	</g>
	<g style="clip-path:url(#SVGID_00000086691402022303734900000017207870812255993519_);">
		<path style="fill:#DADADA;" d="M817.78,648.869l17.156-3.941l-1.818-6.022l-7.045-23.33l-7.045-23.33l-7.045-23.33l-7.045-23.33
			l-7.045-23.33l-7.045-23.33l-7.045-23.33l-7.044-23.33l-7.045-23.33l-7.045-23.33l-7.045-23.33l-4.789-15.861l-2.255-7.469
			l-1.83-6.06l-9.766-9.765l-0.322,0.083l-8.051,2.076c-0.08-2.783,0.054-5.575,0.405-8.352l6.599-52.198l0.055,0.02l0.218-1.421
			l0.003-0.013c0,0-0.001-0.001-0.001-0.001l4.912-32.077c0.695-4.573-0.012-9.246-2.031-13.403l-3.479-7.138
			c-0.361-0.747-0.842-1.42-1.419-1.996l-9.766-9.763c-0.711-0.71-1.566-1.273-2.519-1.645c-0.549-0.217-1.148-0.438-1.745-0.651
			c-1.399-0.488-2.815-0.914-3.747-1.008c-0.115-0.012-0.222-0.018-0.321-0.019c-0.227-0.002-0.464,0.014-0.706,0.044
			c-1.382-2.468-2.467-4.587-3.498-6.289c-0.738-1.221-1.449-2.228-2.22-2.999l-9.766-9.763c-0.241-0.241-0.488-0.459-0.743-0.653
			l-0.104-1.166c-0.503-5.657-2.798-10.724-6.275-14.692c-0.607-1.296-1.391-2.508-2.341-3.594c-0.04-0.046-0.083-0.091-0.127-0.135
			c0,0-9.765-9.762-9.765-9.762c-0.757-0.756-2-1.146-3.38-1.225c-4.572-2.831-10.064-4.261-15.829-3.749l-4.894,0.435l-4.887,0.434
			c-5.339,0.475-10.153,2.546-14.012,5.701c-6.388,5.224-10.161,13.418-9.376,22.257l1.429,16.078l0.111,1.25l1.268,14.261
			l-0.43-0.43c-0.491-0.491-1.022-0.942-1.592-1.347c-1.892-1.343-3.413-1.536-5.254-0.743c-0.325,0.137-0.622,0.32-0.889,0.538
			c-0.232,0.189-0.44,0.406-0.623,0.643c-0.474,0.626-0.756,1.388-0.779,2.204l-0.259,8.632c-0.048,1.433-0.242,2.858-0.598,4.241
			c-0.343,1.375-0.833,2.72-1.468,3.994l-2.962,5.988c-1.719,3.462-2.083,7.442-1.039,11.161c2.991,10.624,2.652,8.767,3.804,23.747
			c0.362,4.749,1.79,9.369,4.172,13.49c6.521,11.315,4.605,7.909,13.578,25.804l2.201,2.678c8.073,9.834,14.337,21.004,18.516,32.98
			l-2.574,0.67c0.86,2.324,1.764,4.852,2.66,7.414l-7.477,1.928l2.207,12.042l4.433,24.186l3.742,20.416l0.691,3.769l4.433,24.185
			l4.433,24.185l4.433,24.185l4.433,24.185l4.433,24.186l4.433,24.185l4.433,24.185l0.803,4.381l3.63,19.804l4.433,24.185
			l3.525,19.23l9.766,9.769l8.495-1.951l23.844-5.477l21.219-4.874l2.625-0.603l23.844-5.477L817.78,648.869z"/>
		<g>
			<g>
				<path style="fill:#F3AD88;" d="M731.039,241.478l-5.132,33.511l-17.145-6.308l0.757-11.069
					c6.276-21.576,5.204-16.62,5.339-24.586l-3.844-13.53c-0.311-1.1,0.125-2.262,1.034-2.882c0.176-0.125,0.368-0.224,0.576-0.303
					c0.999-0.372,2.173-0.703,3.154-0.693c0.905,0.008,2.498,0.479,4.069,1.027c0.598,0.213,1.196,0.434,1.745,0.651
					c1.726,0.673,3.131,1.974,3.938,3.641l3.479,7.138C731.027,232.233,731.734,236.905,731.039,241.478z"/>
				<g>
					<g>
						<path style="fill:#E1E1E1;" d="M656.13,162.07l3.298,37.103c-11.895,1.057-22.483,4.272-30.032,8.618l-1.54-17.328
							c-1.26-14.179,9.208-26.698,23.387-27.958L656.13,162.07z"/>
					</g>
					<g>
						<path style="fill:#E1E1E1;" d="M688.975,185.03l1.541,17.335c-8.198-2.953-19.187-4.25-31.089-3.192l-3.298-37.103
							l4.894-0.435C675.195,160.376,687.715,170.852,688.975,185.03z"/>
					</g>
					<g>
						<path style="fill:#E1E1E1;" d="M690.516,202.365l3.167,35.635c1.26,14.179-9.216,26.691-23.388,27.951l-9.781,0.869
							c-14.179,1.26-26.691-9.209-27.951-23.388l-3.168-35.642c7.549-4.346,18.137-7.56,30.032-8.618
							C671.329,198.116,682.318,199.413,690.516,202.365z"/>
					</g>
					<line style="fill:none;stroke:#9D9D9C;stroke-miterlimit:10;" x1="659.317" y1="197.923" x2="658.598" y2="189.827"/>
					<path style="fill:none;stroke:#9D9D9C;stroke-miterlimit:10;" d="M629.284,206.541c7.549-4.346,18.137-7.56,30.032-8.618
						c11.902-1.058,22.891,0.239,31.089,3.192"/>
					<g>
						<path style="fill:#CACACA;" d="M658.627,190.154L658.627,190.154c-1.725,0.153-3.248-1.121-3.402-2.846l-1.222-13.745
							c-0.153-1.725,1.121-3.248,2.846-3.402l0,0c1.725-0.153,3.248,1.121,3.402,2.846l1.222,13.745
							C661.626,188.477,660.352,190,658.627,190.154z"/>
					</g>
					<g>
						<g>
							
								<rect x="656.254" y="187.011" transform="matrix(0.9961 -0.0885 0.0885 0.9961 -14.0422 59.0337)" style="fill:#B7B7B7;" width="4.328" height="1.584"/>
						</g>
						<g>
							
								<rect x="656.027" y="184.462" transform="matrix(0.9961 -0.0885 0.0885 0.9961 -13.8172 59.0023)" style="fill:#B7B7B7;" width="4.328" height="1.584"/>
						</g>
						<g>
							
								<rect x="655.801" y="181.914" transform="matrix(0.9961 -0.0885 0.0885 0.9961 -13.5927 58.9736)" style="fill:#B7B7B7;" width="4.328" height="1.584"/>
						</g>
						<g>
							
								<rect x="655.574" y="179.365" transform="matrix(0.9961 -0.0885 0.0885 0.9961 -13.3679 58.9435)" style="fill:#B7B7B7;" width="4.328" height="1.584"/>
						</g>
						<g>
							
								<rect x="655.348" y="176.817" transform="matrix(0.9961 -0.0885 0.0885 0.9961 -13.1429 58.9123)" style="fill:#B7B7B7;" width="4.328" height="1.584"/>
						</g>
						<g>
							
								<rect x="655.121" y="174.268" transform="matrix(0.9961 -0.0885 0.0885 0.9961 -12.9184 58.8834)" style="fill:#B7B7B7;" width="4.328" height="1.584"/>
						</g>
						<g>
							
								<rect x="654.895" y="171.719" transform="matrix(0.9961 -0.0885 0.0885 0.9961 -12.6936 58.8533)" style="fill:#B7B7B7;" width="4.328" height="1.584"/>
						</g>
					</g>
				</g>
				<path style="fill:#F3AD88;" d="M719.253,327.167c-0.925,7.327-0.344,14.758,1.708,21.847l11.77,40.64l-64.8,5.312l-8.576-31.835
					c-3.991-14.817-11.095-28.618-20.83-40.478l-2.201-2.678c-8.973-17.895-7.057-14.489-13.578-25.804
					c-2.382-4.121-3.81-8.741-4.172-13.49c-1.152-14.98-0.813-13.123-3.804-23.747c-1.044-3.719-0.68-7.699,1.039-11.161
					l2.962-5.988c0.635-1.274,1.125-2.619,1.468-3.994c0.356-1.383,0.55-2.807,0.598-4.241l0.259-8.632
					c0.023-0.817,0.305-1.579,0.779-2.204c0.393-0.509,0.905-0.923,1.512-1.18c1.841-0.793,3.362-0.6,5.254,0.743
					c2.287,1.622,3.946,3.999,4.888,6.643c8.721,24.587,0.637,32.617,8.904,43.327l0.262-25.447
					c7.447,5.087,9.903,11.88,12.115,13.764l18.031-4.875l28.337,5.439l24.952,14.431l-0.193,0.762L719.253,327.167z"/>
				<path style="fill:#F3AD88;" d="M643.793,250.61c0,0-4.355-22.801-4.552-25.21c-0.163-1.982-4.177-30.913-5.593-41.095
					c-0.422-3.031-0.723-6.724,1.481-8.847c3.046-2.932,6.255-2.453,8.693-1.809c3.056,0.808,4.03,4.868,4.728,7.95l6.766,29.872
					l8.91,25.324c0.701,1.993,2.716,3.209,4.807,2.902l0,0c2.191-0.323,3.804-2.219,3.77-4.434l-0.328-21.562l-4.49-36.113
					c-0.4-3.221,0.169-6.502,1.713-9.357c1.572-2.905,8.513-3.946,10.662-1.489c1.854,2.119,3.074,4.716,3.584,7.485l8.035,43.695
					l0.431,29.865l-0.031,16.421l-15.898,1.303l-24.219-5.532L643.793,250.61z"/>
				<path style="fill:#F3AD88;" d="M712.987,232.289l-3.884,36.095c0,0-7.244-2.451-11.67-4.209
					c-4.419-1.758-9.683-8.356-9.683-8.356l6.312-24.334c1.224-4.699,1.338-9.625,0.307-14.368
					c-3.145-14.52-5.653-19.086-4.091-21.016c0.15-0.192,0.336-0.359,0.58-0.503c0.657-0.413,1.664-0.675,3.085-0.943
					c1.598-0.304,3.092,0.064,4.642,1.118c1.185,0.807,2.176,2.107,3.222,3.838c1.701,2.809,3.551,6.752,6.635,11.527
					C713.051,228.431,713.495,228.871,712.987,232.289z"/>
				<g>
					<path style="fill:#F4BEA3;" d="M646.244,183.218c0.317,2.98-1.714,5.634-4.525,6.037v0c-2.811,0.402-5.506-1.576-6.037-4.525
						l-0.923-5.125c-0.453-2.517,1.104-4.896,3.492-5.238l2.621-0.375c2.388-0.342,4.55,1.506,4.821,4.048L646.244,183.218z"/>
				</g>
				<g>
					<path style="fill:#F4BEA3;" d="M701.808,199.611c-0.327,1.235-1.143,2.31-2.331,2.898c-0.511,0.249-1.052,0.397-1.593,0.442
						c-1.777,0.146-3.6-0.782-4.528-2.508l-2.131-3.927c-0.162-0.297-0.284-0.598-0.365-0.916c0.657-0.413,1.664-0.675,3.085-0.943
						c1.598-0.304,3.092,0.064,4.642,1.118C699.771,196.581,700.762,197.88,701.808,199.611z"/>
				</g>
				<g>
					<path style="fill:#F4BEA3;" d="M719.846,216.645c-0.124,1.267-0.865,2.426-2.039,3.005c-0.418,0.207-0.864,0.326-1.31,0.363
						c-1.461,0.12-2.96-0.641-3.725-2.063l-0.724-1.335c0.176-0.125,0.368-0.224,0.576-0.303c0.999-0.372,2.173-0.703,3.154-0.693
						C716.683,215.627,718.276,216.098,719.846,216.645z"/>
				</g>
				<g>
					<path style="fill:#F4BEA3;" d="M681.568,175.863c0.317,2.98-1.714,5.634-4.525,6.037v0c-2.811,0.402-5.506-1.576-6.037-4.525
						l-0.923-5.125c-0.453-2.517,1.104-4.896,3.492-5.238l2.621-0.375c2.388-0.342,4.55,1.506,4.821,4.048L681.568,175.863z"/>
				</g>
				<g>
					<path style="fill:#F4BEA3;" d="M626.011,225.857l-0.71,5.154c-0.366,2.695-2.553,4.656-5.063,4.779
						c0.356-1.383,0.55-2.807,0.598-4.241l0.259-8.632c0.023-0.817,0.305-1.579,0.779-2.204l0.439,0.047
						C624.709,221.006,626.363,223.321,626.011,225.857z"/>
				</g>
			</g>
			<g>
				<g>
					<path style="fill:#DCF1FA;" d="M654.467,356.304c4.409,11.91,9.935,29.14,9.935,29.14l33.311-7.812l27.715-6.506
						c-2.757-15.974-3.897-25.769-3.977-32.269l-31.843,8.297L654.467,356.304z"/>
				</g>
				<g>
					<g>
						<defs>
							<polygon id="SVGID_00000013193569299810993670000006799479068080634555_" points="704.145,662.958 825.169,635.159 
								736.987,343.125 649.65,365.646 							"/>
						</defs>
						<clipPath id="SVGID_00000081611689622264092950000016443836907382253985_">
							<use xlink:href="#SVGID_00000013193569299810993670000006799479068080634555_"  style="overflow:visible;"/>
						</clipPath>
					</g>
					<g>
						<defs>
							<polygon id="SVGID_00000116939613893356490970000007718787578805310388_" points="704.145,662.958 825.169,635.159 
								736.987,343.125 649.65,365.646 							"/>
						</defs>
						<use xlink:href="#SVGID_00000116939613893356490970000007718787578805310388_"  style="overflow:visible;fill:#274465;"/>
						<clipPath id="SVGID_00000077325596283594227090000011332802230541007746_">
							<use xlink:href="#SVGID_00000116939613893356490970000007718787578805310388_"  style="overflow:visible;"/>
						</clipPath>
						<g style="clip-path:url(#SVGID_00000077325596283594227090000011332802230541007746_);">
							<polygon style="fill:#274465;" points="704.145,662.958 825.169,635.159 736.987,343.125 649.65,365.646 							"/>
						</g>
						<g style="clip-path:url(#SVGID_00000077325596283594227090000011332802230541007746_);">
							
								<line style="fill:none;stroke:#4A93AF;stroke-width:0.9921;stroke-miterlimit:10;" x1="971.261" y1="667.831" x2="846.322" y2="286.66"/>
							
								<line style="fill:none;stroke:#4A93AF;stroke-width:0.9921;stroke-miterlimit:10;" x1="947.951" y1="674.933" x2="823.012" y2="293.762"/>
							
								<line style="fill:none;stroke:#4A93AF;stroke-width:0.9921;stroke-miterlimit:10;" x1="924.64" y1="682.036" x2="799.701" y2="300.865"/>
							
								<line style="fill:none;stroke:#4A93AF;stroke-width:0.9921;stroke-miterlimit:10;" x1="901.33" y1="689.138" x2="776.391" y2="307.967"/>
							
								<line style="fill:none;stroke:#4A93AF;stroke-width:0.9921;stroke-miterlimit:10;" x1="878.019" y1="696.24" x2="753.081" y2="315.07"/>
							
								<line style="fill:none;stroke:#4A93AF;stroke-width:0.9921;stroke-miterlimit:10;" x1="854.709" y1="703.343" x2="729.77" y2="322.172"/>
							
								<line style="fill:none;stroke:#4A93AF;stroke-width:0.9921;stroke-miterlimit:10;" x1="831.398" y1="710.445" x2="706.46" y2="329.275"/>
							
								<line style="fill:none;stroke:#4A93AF;stroke-width:0.9921;stroke-miterlimit:10;" x1="808.088" y1="717.548" x2="683.149" y2="336.377"/>
							
								<line style="fill:none;stroke:#4A93AF;stroke-width:0.9921;stroke-miterlimit:10;" x1="784.777" y1="724.65" x2="659.839" y2="343.479"/>
							
								<line style="fill:none;stroke:#4A93AF;stroke-width:0.9921;stroke-miterlimit:10;" x1="761.467" y1="731.753" x2="636.528" y2="350.582"/>
							
								<line style="fill:none;stroke:#4A93AF;stroke-width:0.9921;stroke-miterlimit:10;" x1="738.157" y1="738.855" x2="613.218" y2="357.684"/>
							
								<line style="fill:none;stroke:#4A93AF;stroke-width:0.9921;stroke-miterlimit:10;" x1="714.846" y1="745.958" x2="589.907" y2="364.787"/>
							
								<line style="fill:none;stroke:#4A93AF;stroke-width:0.9921;stroke-miterlimit:10;" x1="691.536" y1="753.06" x2="566.597" y2="371.889"/>
							
								<line style="fill:none;stroke:#4A93AF;stroke-width:0.9921;stroke-miterlimit:10;" x1="668.225" y1="760.162" x2="543.286" y2="378.992"/>
							
								<line style="fill:none;stroke:#4A93AF;stroke-width:0.9921;stroke-miterlimit:10;" x1="644.915" y1="767.265" x2="519.976" y2="386.094"/>
							
								<line style="fill:none;stroke:#4A93AF;stroke-width:0.9921;stroke-miterlimit:10;" x1="621.604" y1="774.367" x2="496.666" y2="393.197"/>
							
								<line style="fill:none;stroke:#4A93AF;stroke-width:0.9921;stroke-miterlimit:10;" x1="598.294" y1="781.47" x2="473.355" y2="400.299"/>
							
								<line style="fill:none;stroke:#4A93AF;stroke-width:0.9921;stroke-miterlimit:10;" x1="588.542" y1="783.018" x2="969.713" y2="658.079"/>
							
								<line style="fill:none;stroke:#4A93AF;stroke-width:0.9921;stroke-miterlimit:10;" x1="581.44" y1="759.707" x2="962.611" y2="634.769"/>
							
								<line style="fill:none;stroke:#4A93AF;stroke-width:0.9921;stroke-miterlimit:10;" x1="574.337" y1="736.397" x2="955.508" y2="611.458"/>
							
								<line style="fill:none;stroke:#4A93AF;stroke-width:0.9921;stroke-miterlimit:10;" x1="567.235" y1="713.086" x2="948.406" y2="588.148"/>
							
								<line style="fill:none;stroke:#4A93AF;stroke-width:0.9921;stroke-miterlimit:10;" x1="560.133" y1="689.776" x2="941.303" y2="564.837"/>
							
								<line style="fill:none;stroke:#4A93AF;stroke-width:0.9921;stroke-miterlimit:10;" x1="553.03" y1="666.466" x2="934.201" y2="541.527"/>
							
								<line style="fill:none;stroke:#4A93AF;stroke-width:0.9921;stroke-miterlimit:10;" x1="545.928" y1="643.155" x2="927.098" y2="518.216"/>
							
								<line style="fill:none;stroke:#4A93AF;stroke-width:0.9921;stroke-miterlimit:10;" x1="538.825" y1="619.845" x2="919.996" y2="494.906"/>
							
								<line style="fill:none;stroke:#4A93AF;stroke-width:0.9921;stroke-miterlimit:10;" x1="531.723" y1="596.534" x2="912.893" y2="471.595"/>
							
								<line style="fill:none;stroke:#4A93AF;stroke-width:0.9921;stroke-miterlimit:10;" x1="524.62" y1="573.224" x2="905.791" y2="448.285"/>
							
								<line style="fill:none;stroke:#4A93AF;stroke-width:0.9921;stroke-miterlimit:10;" x1="517.518" y1="549.913" x2="898.689" y2="424.974"/>
							
								<line style="fill:none;stroke:#4A93AF;stroke-width:0.9921;stroke-miterlimit:10;" x1="510.415" y1="526.603" x2="891.586" y2="401.664"/>
							
								<line style="fill:none;stroke:#4A93AF;stroke-width:0.9921;stroke-miterlimit:10;" x1="503.313" y1="503.292" x2="884.484" y2="378.354"/>
							
								<line style="fill:none;stroke:#4A93AF;stroke-width:0.9921;stroke-miterlimit:10;" x1="496.211" y1="479.982" x2="877.381" y2="355.043"/>
							
								<line style="fill:none;stroke:#4A93AF;stroke-width:0.9921;stroke-miterlimit:10;" x1="489.108" y1="456.671" x2="870.279" y2="331.733"/>
							
								<line style="fill:none;stroke:#4A93AF;stroke-width:0.9921;stroke-miterlimit:10;" x1="482.006" y1="433.361" x2="863.176" y2="308.422"/>
							
								<line style="fill:none;stroke:#4A93AF;stroke-width:0.9921;stroke-miterlimit:10;" x1="474.903" y1="410.051" x2="856.074" y2="285.112"/>
						</g>
					</g>
					<g>
						<defs>
							<polygon id="SVGID_00000088815474270256638620000018272766231544842659_" points="704.145,662.958 825.169,635.159 
								736.987,343.125 649.65,365.646 							"/>
						</defs>
						<clipPath id="SVGID_00000098201229155525163140000014982849481167422853_">
							<use xlink:href="#SVGID_00000088815474270256638620000018272766231544842659_"  style="overflow:visible;"/>
						</clipPath>
					</g>
				</g>
			</g>
		</g>
	</g>
</g>
</svg>
