<?xml version="1.0" encoding="utf-8"?>
<!-- Generator: Adobe Illustrator 27.5.0, SVG Export Plug-In . SVG Version: 6.00 Build 0)  -->
<svg version="1.1" id="Layer_1" xmlns="http://www.w3.org/2000/svg" xmlns:xlink="http://www.w3.org/1999/xlink" x="0px" y="0px"
	 viewBox="0 0 2000 2000" style="enable-background:new 0 0 2000 2000;" xml:space="preserve">
<g>
	<rect style="fill:#FFFFFF;" width="2000" height="2000"/>
	<g>
		<g>
			<path style="fill:#D2DDFC;" d="M787.164,567.428c1.781-5.127,2.798-10.611,2.798-16.344c0-27.531-22.318-49.849-49.849-49.849
				c-0.869,0-1.717,0.086-2.576,0.13c-5.076-41.398-40.334-73.464-83.104-73.464c-37.212,0-68.737,24.274-79.651,57.846
				c-2.376-0.334-4.783-0.566-7.25-0.566c-28.594,0-51.773,23.179-51.773,51.772c0,11.408,3.734,21.919,9.986,30.476H787.164z"/>
			<polygon style="fill:#FFFFFF;" points="692.442,515.651 652.862,479.154 613.279,515.651 633.069,515.651 633.069,567.428 
				672.07,567.428 672.07,515.651 			"/>
		</g>
		<g>
			<g>
				<path style="fill:#F1F0F7;" d="M508.026,1549.692H1515.38c38.778,0,70.215-31.436,70.215-70.215V781.311H437.811v698.166
					C437.811,1518.255,469.247,1549.692,508.026,1549.692z"/>
				<path style="fill:#54A6FE;" d="M508.358,631.977h1006.689c38.962,0,70.547,31.585,70.547,70.547v96.219H437.811v-96.219
					C437.811,663.562,469.396,631.977,508.358,631.977z"/>
				<g>
					
						<ellipse transform="matrix(0.9871 -0.1602 0.1602 0.9871 -107.658 115.7194)" style="fill:#FFFFFF;" cx="663.931" cy="725.619" rx="16.694" ry="16.694"/>
					
						<ellipse transform="matrix(0.7071 -0.7071 0.7071 0.7071 -335.8743 640.3649)" style="fill:#FFFFFF;" cx="605.052" cy="725.619" rx="16.694" ry="16.694"/>
					
						<ellipse transform="matrix(0.9871 -0.1602 0.1602 0.9871 -109.1786 96.8565)" style="fill:#FFFFFF;" cx="546.172" cy="725.619" rx="16.694" ry="16.694"/>
				</g>
			</g>
			<g>
				<g>
					<path style="fill:#E8E7F2;" d="M1448.354,766.402h-432.15c-24.425,0-44.226-19.801-44.226-44.226v0
						c0-24.425,19.801-44.226,44.226-44.226h432.15c24.425,0,44.226,19.801,44.226,44.226v0
						C1492.58,746.601,1472.779,766.402,1448.354,766.402z"/>
					<path style="fill:#D4D6EB;" d="M1448.354,677.95h-55.056v88.452h55.056c24.425,0,44.226-19.8,44.226-44.226v-0.001
						C1492.58,697.75,1472.779,677.95,1448.354,677.95z"/>
				</g>
				<g>
					<path style="fill:#FFFFFF;" d="M1459.444,736.64c9.782-8.214,11.058-22.856,2.844-32.638
						c-8.214-9.782-22.855-11.058-32.638-2.844c-8.542,7.173-10.595,19.244-5.511,28.704l-12.386,10.399
						c-1.998,1.679-2.259,4.661-0.58,6.659c1.679,2,4.661,2.259,6.66,0.58l12.385-10.399
						C1438.656,743.747,1450.902,743.813,1459.444,736.64z M1432.022,729.415c-5.798-6.905-4.897-17.241,2.009-23.039
						c6.906-5.799,17.242-4.899,23.04,2.007c5.798,6.906,4.898,17.243-2.008,23.042
						C1448.157,737.222,1437.821,736.321,1432.022,729.415z"/>
				</g>
			</g>
			<rect x="762.048" y="886.817" style="fill:#F7F7F7;" width="698.421" height="539.893"/>
			<g>
				<path style="fill:#DFDEEE;" d="M496.377,895.971v513.557c0,9.489,6.231,17.181,13.918,17.181h166.242
					c7.686,0,13.918-7.692,13.918-17.181V895.971c0-9.489-6.231-17.181-13.918-17.181H510.295
					C502.608,878.79,496.377,886.482,496.377,895.971z"/>
				<g>
					<g>
						<g>
							<polygon style="fill:#F3B344;" points="657.271,1025.925 532.475,1026.427 532.077,927.512 532.044,919.107 556.855,919.007 
								568.368,927.366 656.873,927.01 							"/>
							
								<rect x="536.479" y="936.553" transform="matrix(1 -0.004 0.004 1 -3.7719 2.3981)" style="fill:#F1F2F2;" width="116.371" height="5.882"/>
							<path style="fill:#F9A300;" d="M659.797,1029.716l-132.409,0.532c-2.09,0.008-3.791-1.756-3.8-3.941l-0.32-79.628
								c-0.008-2.186,1.679-3.964,3.77-3.973l132.407-0.532c2.09-0.008,3.792,1.756,3.801,3.941l0.32,79.629
								C663.574,1027.93,661.887,1029.708,659.797,1029.716z"/>
							<path style="fill:#FFC300;" d="M655.511,1021.034l-128.329,0.516c-1.995,0.008-3.62-1.603-3.628-3.599l-0.288-71.614
								c-0.008-1.996,1.604-3.621,3.6-3.629l128.327-0.516c1.996-0.008,3.62,1.603,3.628,3.599l0.288,71.615
								C659.117,1019.401,657.506,1021.026,655.511,1021.034z"/>
							<path style="fill:#FDDB81;" d="M576.218,967.266c8.196-7.229,11.569-16.83,16.7-24.824l-66.052,0.266
								c-1.996,0.008-3.608,1.633-3.6,3.629l0.208,51.65C534.251,992.946,557.487,983.789,576.218,967.266z"/>
						</g>
						<path style="fill:#FFFFFF;" d="M650.668,1040.871H536.164c-0.97,0-1.756,0.786-1.756,1.756v4.917
							c0,0.97,0.786,1.756,1.756,1.756h114.505c0.97,0,1.757-0.786,1.757-1.756v-4.917
							C652.425,1041.657,651.638,1040.871,650.668,1040.871z"/>
					</g>
					<g>
						<g>
							<polygon style="fill:#F3B344;" points="657.271,1194.521 532.475,1195.023 532.077,1096.108 532.044,1087.703 
								556.855,1087.603 568.368,1095.962 656.873,1095.606 							"/>
							
								<rect x="536.479" y="1105.15" transform="matrix(1 -0.004 0.004 1 -4.4496 2.3994)" style="fill:#F1F2F2;" width="116.371" height="5.882"/>
							<path style="fill:#F9A300;" d="M659.797,1198.312l-132.409,0.532c-2.09,0.009-3.791-1.756-3.8-3.941l-0.32-79.628
								c-0.008-2.186,1.679-3.964,3.77-3.973l132.407-0.532c2.09-0.008,3.792,1.756,3.801,3.941l0.32,79.629
								C663.574,1196.526,661.887,1198.304,659.797,1198.312z"/>
							<path style="fill:#FFC300;" d="M655.511,1189.63l-128.329,0.516c-1.995,0.008-3.62-1.603-3.628-3.598l-0.288-71.614
								c-0.008-1.996,1.604-3.621,3.6-3.629l128.327-0.516c1.996-0.008,3.62,1.604,3.628,3.599l0.288,71.615
								C659.117,1187.997,657.506,1189.622,655.511,1189.63z"/>
							<path style="fill:#FDDB81;" d="M576.218,1135.862c8.196-7.229,11.569-16.83,16.7-24.823l-66.052,0.266
								c-1.996,0.008-3.608,1.633-3.6,3.629l0.208,51.65C534.251,1161.542,557.487,1152.385,576.218,1135.862z"/>
						</g>
						<path style="fill:#FFFFFF;" d="M650.668,1209.467H536.164c-0.97,0-1.756,0.786-1.756,1.756v4.917
							c0,0.97,0.786,1.756,1.756,1.756h114.505c0.97,0,1.757-0.786,1.757-1.756v-4.917
							C652.425,1210.253,651.638,1209.467,650.668,1209.467z"/>
					</g>
					<g>
						<g>
							<polygon style="fill:#F3B344;" points="657.271,1363.117 532.475,1363.619 532.077,1264.704 532.044,1256.299 
								556.855,1256.199 568.368,1264.558 656.873,1264.202 							"/>
							
								<rect x="536.479" y="1273.745" transform="matrix(1 -0.004 0.004 1 -5.1274 2.4008)" style="fill:#F1F2F2;" width="116.371" height="5.882"/>
							<path style="fill:#F9A300;" d="M659.797,1366.908l-132.409,0.532c-2.09,0.008-3.791-1.756-3.8-3.941l-0.32-79.627
								c-0.008-2.186,1.679-3.964,3.77-3.973l132.407-0.532c2.09-0.009,3.792,1.756,3.801,3.941l0.32,79.629
								C663.574,1365.122,661.887,1366.9,659.797,1366.908z"/>
							<path style="fill:#FFC300;" d="M655.511,1358.226l-128.329,0.516c-1.995,0.008-3.62-1.603-3.628-3.599l-0.288-71.614
								c-0.008-1.996,1.604-3.621,3.6-3.629l128.327-0.516c1.996-0.008,3.62,1.603,3.628,3.599l0.288,71.615
								C659.117,1356.594,657.506,1358.218,655.511,1358.226z"/>
							<path style="fill:#FDDB81;" d="M576.218,1304.458c8.196-7.229,11.569-16.83,16.7-24.823l-66.052,0.266
								c-1.996,0.008-3.608,1.633-3.6,3.629l0.208,51.65C534.251,1330.138,557.487,1320.981,576.218,1304.458z"/>
						</g>
						<path style="fill:#FFFFFF;" d="M650.668,1378.062H536.164c-0.97,0-1.756,0.787-1.756,1.756v4.917
							c0,0.97,0.786,1.756,1.756,1.756h114.505c0.97,0,1.757-0.786,1.757-1.756v-4.917
							C652.425,1378.849,651.638,1378.062,650.668,1378.062z"/>
					</g>
				</g>
			</g>
			<g>
				<g>
					<polygon style="fill:#F3B344;" points="1324.756,1317.377 907.505,1319.055 906.175,988.338 906.062,960.235 989.02,959.902 
						1027.513,987.849 1323.425,986.659 					"/>
					
						<rect x="920.89" y="1018.567" transform="matrix(1 -0.004 0.004 1 -4.1249 4.492)" style="fill:#F1F2F2;" width="389.081" height="19.666"/>
					<path style="fill:#F9A300;" d="M1333.201,1330.053l-442.704,1.78c-6.987,0.028-12.676-5.871-12.705-13.177l-1.071-266.232
						c-0.028-7.308,5.613-13.255,12.603-13.283l442.699-1.779c6.989-0.029,12.678,5.871,12.707,13.176l1.071,266.236
						C1345.83,1324.081,1340.189,1330.025,1333.201,1330.053z"/>
					<path style="fill:#FFC300;" d="M1318.87,1301.024l-429.063,1.725c-6.672,0.027-12.102-5.36-12.129-12.032l-0.963-239.439
						c-0.027-6.674,5.362-12.106,12.036-12.133l429.057-1.726c6.673-0.027,12.104,5.361,12.131,12.034l0.963,239.44
						C1330.929,1295.566,1325.543,1300.996,1318.87,1301.024z"/>
					<path style="fill:#FDDB81;" d="M1053.759,1121.253c27.402-24.171,38.68-56.27,55.836-82.996l-220.844,0.888
						c-6.674,0.027-12.062,5.458-12.036,12.133l0.694,172.691C913.442,1207.113,991.132,1176.499,1053.759,1121.253z"/>
				</g>
			</g>
		</g>
		<g>
			<path style="fill:#F0F3FC;" d="M337.014,846.561l-70.904-70.181l-89.316,0.392c-12.795,0.057-23.127,10.482-23.07,23.276
				l0.901,201.906c0.066,12.869,10.49,23.201,23.284,23.144l136.721-0.612c12.794-0.057,23.129-10.494,23.075-23.36L337.014,846.561
				z"/>
			<polygon style="fill:#DFDEEE;" points="337.014,846.561 266.439,846.873 266.115,776.357 			"/>
			
				<rect x="173.324" y="827.478" transform="matrix(1 -0.0044 0.0044 1 -3.6956 0.9172)" style="fill:#FF7658;" width="65.058" height="19.675"/>
			<g>
				
					<rect x="177.393" y="902.652" transform="matrix(1 -0.0044 0.0044 1 -4.0144 1.0939)" style="fill:#DFDEEE;" width="136.551" height="13.642"/>
				
					<rect x="206.06" y="876.346" transform="matrix(1 -0.0044 0.0044 1 -3.9077 1.1595)" style="fill:#DFDEEE;" width="107.762" height="13.642"/>
				
					<rect x="177.51" y="928.512" transform="matrix(1 -0.0044 0.0044 1 -4.1352 1.0959)" style="fill:#DFDEEE;" width="136.312" height="13.642"/>
				<polygon style="fill:#DFDEEE;" points="266,954.082 177.553,954.685 177.592,968.327 266.039,967.724 				"/>
				<polygon style="fill:#DFDEEE;" points="266.076,979.945 177.628,980.548 177.667,994.19 266.115,993.587 				"/>
			</g>
			<path style="fill:#DFDEEE;" d="M356.224,996.492H286.62c-2.796,0-5.062-2.266-5.062-5.062v-34.11
				c0-2.796,2.266-5.062,5.062-5.062h69.605c2.796,0,5.062,2.266,5.062,5.062v34.11C361.287,994.226,359.02,996.492,356.224,996.492
				z"/>
			<g>
				<path style="fill:#FFFFFF;" d="M294.278,964.323h5.361c6.16,0,9.799,3.32,9.799,9.972c0,6.653-3.639,10.132-9.616,10.132h-5.544
					V964.323z M299.404,981.537c4.047,0,6.37-2.299,6.37-7.242c0-4.942-2.323-7.082-6.37-7.082h-1.562v14.324H299.404z"/>
				<path style="fill:#FFFFFF;" d="M312.442,974.295c0-6.504,3.629-10.341,8.865-10.341c5.239,0,8.865,3.854,8.865,10.341
					c0,6.505-3.627,10.501-8.865,10.501C316.071,984.796,312.442,980.8,312.442,974.295z M326.508,974.295
					c0-4.513-2.04-7.242-5.201-7.242c-3.159,0-5.201,2.729-5.201,7.242s2.042,7.402,5.201,7.402
					C324.468,981.697,326.508,978.808,326.508,974.295z"/>
				<path style="fill:#FFFFFF;" d="M333.171,974.442c0-6.578,4.12-10.488,9.211-10.488c2.52,0,4.525,1.205,5.792,2.545l-1.907,2.299
					c-1.034-1.032-2.238-1.746-3.812-1.746c-3.269,0-5.619,2.767-5.619,7.28c0,4.585,2.165,7.365,5.534,7.365
					c1.782,0,3.159-0.823,4.29-2.066l1.907,2.238c-1.629,1.893-3.727,2.927-6.332,2.927
					C337.181,984.796,333.171,981.094,333.171,974.442z"/>
			</g>
		</g>
		<g>
			<path style="fill:#F0F3FC;" d="M389.875,1166.39l-60.849-60.229l-76.65,0.336c-10.981,0.049-19.847,8.995-19.799,19.976
				l0.773,173.273c0.056,11.044,9.002,19.911,19.982,19.862l117.332-0.525c10.98-0.049,19.849-9.005,19.803-20.047L389.875,1166.39z
				"/>
			<polygon style="fill:#DFDEEE;" points="389.875,1166.39 329.309,1166.658 329.03,1106.141 			"/>
			
				<rect x="249.399" y="1150.013" transform="matrix(1 -0.0044 0.0044 1 -5.1119 1.2356)" style="fill:#FF7658;" width="55.832" height="16.885"/>
			<g>
				
					<rect x="252.89" y="1214.526" transform="matrix(1 -0.0044 0.0044 1 -5.3872 1.3877)" style="fill:#DFDEEE;" width="117.186" height="11.708"/>
				
					<rect x="277.492" y="1191.952" transform="matrix(1 -0.0044 0.0044 1 -5.3068 1.4469)" style="fill:#DFDEEE;" width="92.48" height="11.708"/>
				
					<rect x="252.991" y="1236.72" transform="matrix(1 -0.0044 0.0044 1 -5.4948 1.3903)" style="fill:#DFDEEE;" width="116.982" height="11.707"/>
				<polygon style="fill:#DFDEEE;" points="328.932,1258.664 253.027,1259.181 253.061,1270.889 328.965,1270.371 				"/>
				<polygon style="fill:#DFDEEE;" points="328.997,1280.859 253.092,1281.377 253.126,1293.084 329.03,1292.566 				"/>
			</g>
			<path style="fill:#DFDEEE;" d="M405.709,1295.059H347.28c-2.76,0-4.997-2.237-4.997-4.997v-27.968
				c0-2.76,2.237-4.997,4.997-4.997h58.429c2.76,0,4.997,2.237,4.997,4.997v27.968
				C410.706,1292.822,408.469,1295.059,405.709,1295.059z"/>
			<g>
				<path style="fill:#FFFFFF;" d="M354.797,1267.452h5.534c3.9,0,6.79,1.354,6.79,5.416c0,3.917-2.901,5.695-6.683,5.695h-2.526
					v6.458h-3.115V1267.452z M360.181,1276.071c2.623,0,3.867-1.042,3.867-3.202c0-2.182-1.363-2.922-3.974-2.922h-2.161v6.125
					H360.181z"/>
				<path style="fill:#FFFFFF;" d="M370.44,1267.452h5.534c3.9,0,6.79,1.354,6.79,5.416c0,3.917-2.901,5.695-6.683,5.695h-2.527
					v6.458h-3.115V1267.452z M375.823,1276.071c2.623,0,3.867-1.042,3.867-3.202c0-2.182-1.363-2.922-3.975-2.922h-2.161v6.125
					H375.823z"/>
				<path style="fill:#FFFFFF;" d="M389.118,1270.074h-5.073v-2.622h13.26v2.622h-5.07v14.948h-3.117V1270.074z"/>
			</g>
		</g>
		<g>
			<path style="fill:#F0F3FC;" d="M1775.141,755.657l-53.966-53.416l-67.98,0.298c-9.739,0.043-17.602,7.978-17.559,17.716
				l0.686,153.674c0.05,9.795,7.984,17.659,17.722,17.615l104.061-0.466c9.738-0.044,17.604-7.987,17.563-17.78L1775.141,755.657z"
				/>
			<polygon style="fill:#DFDEEE;" points="1775.141,755.657 1721.425,755.894 1721.178,702.223 			"/>
			
				<rect x="1650.554" y="741.132" transform="matrix(1 -0.0044 0.0044 1 -3.2886 7.4033)" style="fill:#FF7658;" width="49.517" height="14.975"/>
			<g>
				
					<rect x="1653.651" y="798.348" transform="matrix(1 -0.0044 0.0044 1 -3.5321 7.5405)" style="fill:#DFDEEE;" width="103.931" height="10.383"/>
				
					<rect x="1675.47" y="778.327" transform="matrix(1 -0.0044 0.0044 1 -3.4543 7.6121)" style="fill:#DFDEEE;" width="82.02" height="10.383"/>
				
					<rect x="1653.74" y="818.032" transform="matrix(1 -0.0044 0.0044 1 -3.6253 7.5538)" style="fill:#DFDEEE;" width="103.75" height="10.383"/>
				<polygon style="fill:#DFDEEE;" points="1721.091,837.493 1653.772,837.952 1653.802,848.336 1721.121,847.877 				"/>
				<polygon style="fill:#DFDEEE;" points="1721.149,857.178 1653.83,857.637 1653.859,868.02 1721.178,867.561 				"/>
			</g>
			<path style="fill:#DFDEEE;" d="M1789.836,869.772h-53.125c-2.087,0-3.779-1.692-3.779-3.779v-26.109
				c0-2.087,1.692-3.779,3.779-3.779h53.125c2.087,0,3.779,1.692,3.779,3.779v26.109
				C1793.615,868.08,1791.923,869.772,1789.836,869.772z"/>
			<g>
				<path style="fill:#FFFFFF;" d="M1744.873,845.288h4.908c3.459,0,6.022,1.201,6.022,4.803c0,3.474-2.572,5.051-5.927,5.051
					h-2.241v5.728h-2.763V845.288z M1749.648,852.931c2.326,0,3.43-0.924,3.43-2.84c0-1.935-1.209-2.592-3.525-2.592h-1.917v5.432
					H1749.648z"/>
				<path style="fill:#FFFFFF;" d="M1758.746,845.288h4.155c4.774,0,7.595,2.573,7.595,7.729c0,5.156-2.821,7.853-7.453,7.853
					h-4.297V845.288z M1762.719,858.63c3.137,0,4.937-1.782,4.937-5.613c0-3.831-1.8-5.489-4.937-5.489h-1.211v11.103H1762.719z"/>
				<path style="fill:#FFFFFF;" d="M1773.646,845.288h9.415v2.325h-6.652v4.422h5.661v2.326h-5.661v6.509h-2.763V845.288z"/>
			</g>
		</g>
		<g>
			<g>
				
					<radialGradient id="SVGID_1_" cx="1193.2753" cy="-1077.3894" r="4.874" gradientTransform="matrix(5.7244 0 0 5.588 -5197.0532 7740.5317)" gradientUnits="userSpaceOnUse">
					<stop  offset="0" style="stop-color:#FFC8AF"/>
					<stop  offset="1" style="stop-color:#FFBB9C"/>
				</radialGradient>
				<path style="fill:url(#SVGID_1_);" d="M1604.516,1736.905l2.709-42.713h34.441c0,0,2.709,16.978,5.417,24.601
					c2.709,7.623,15.866,16.978,15.866,21.482C1662.949,1744.78,1604.516,1751.898,1604.516,1736.905z"/>
				<g>
					<g>
						
							<radialGradient id="SVGID_00000165929751477991579350000002582772739532754340_" cx="1167.4385" cy="-1077.9912" r="5.1143" gradientTransform="matrix(5.7244 0 0 5.588 -5197.0532 7740.5317)" gradientUnits="userSpaceOnUse">
							<stop  offset="0" style="stop-color:#FFC8AF"/>
							<stop  offset="1" style="stop-color:#FFBB9C"/>
						</radialGradient>
						<path style="fill:url(#SVGID_00000165929751477991579350000002582772739532754340_);" d="M1454.439,1728.888
							c0,0,11.222-10.082,18.692-14.658l6.606-23.865h35.226l2.099,34.37c1.474,9.857-7.252,19.384-24.558,18.24
							C1475.2,1741.832,1454.439,1728.888,1454.439,1728.888z"/>
						<path style="fill:#242345;" d="M1417.86,1746.545c3.407-3.81,15.065-6.463,17.151-7.294
							c6.321-2.517,25.807-21.102,25.807-21.102c12.375-5.655,19.599-3.96,26.828,1.931c4.76,3.88,3.485,7.699,5.528,11.488
							c0,0,17.487-3.617,19.783-7.177c3.354-5.199,4.509-6.722,8.138-2.805c0.857,0.925,1.392,40.368,1.392,40.368l-101.268,1.19
							C1421.219,1763.144,1412.345,1752.714,1417.86,1746.545z"/>
					</g>
				</g>
				<path style="fill:#4A5082;" d="M1631.406,1345.178c-0.203,6.018,0.7,11.699,0.7,11.699s2.888,136.976,14.727,197.487
					c11.836,60.511,13.66,160.227,13.66,160.227c-30.05,19.6-62.833,4.702-62.833,4.702s-2.73-87.372-10.923-143.622
					c-8.198-56.249-41.355-136.466-41.355-136.466s-6.907,25.672-0.533,70.842c6.375,45.169-18.213,185.366-18.213,185.366
					c1.368,10.228,0,21.612,0,21.612c-34.599,8.402-57.366-9.254-57.366-9.254c13.66-13.635,19.124-193.465,11.838-216.475
					c-7.282-23.01-9.442-133.443-9.442-133.443c-0.451-2.474-0.309-7.145-0.701-11.049L1631.406,1345.178z"/>
				<g>
					<path style="opacity:0.2;" d="M1625.571,1529.636c-13.946-57.371-32.872-157.527-32.872-157.527s-15.345-9.138-28.856-26.247
						l67.563-0.684c-0.203,6.017,0.7,11.699,0.7,11.699s2.888,136.976,14.727,197.487c11.836,60.511,13.66,160.227,13.66,160.227
						c-5.403,3.524-10.892,5.918-16.264,7.499C1643.03,1693.038,1637.681,1579.454,1625.571,1529.636z"/>
					<path style="opacity:0.2;" d="M1532.931,1565.615c-1.992-48.619-13.946-81.68-13.946-81.68l8.965-102.101l16.077,45.368
						l1.557,12.494c-0.131-0.321-0.201-0.491-0.201-0.491s-6.907,25.672-0.533,70.842c6.375,45.169-18.213,185.366-18.213,185.366
						c1.368,10.228,0,21.612,0,21.612c-7.245,1.759-13.963,2.366-20.069,2.241C1514.8,1686.721,1534.51,1604.165,1532.931,1565.615z
						"/>
				</g>
				<path style="fill:#242345;" d="M1659.551,1729.722c0.008,0.044-0.043,0.08-0.065,0.12c5.817,5.208,12.337,11.16,13.774,14.145
					c2.261,4.697,3.492,10.353,0.606,14.767c-1.276,1.952-3.122,3.361-5.293,4.389c-22.919,0-43.46,0-66.38,0
					c-2.063-7.854,0.962-28.451,0.962-30.435c0-1.986,3.702-3.304,5.552-4.955c-0.068-4.485,1.032-8.786,6.988-11.634
					c3.536-1.691,18.554-1.929,25.357-1.884C1653.201,1714.314,1658.439,1722.916,1659.551,1729.722z"/>
			</g>
			<g>
				<g>
					<g>
						<g>
							<path style="fill:#FCC2B4;" d="M1522.31,1068.831c-3.823,7.542-10.123,13.136,1.472,19.655
								c7.875,4.427,16.485,5.079,24.406,2.137c9.695-3.601,18.654-9.195,26.093-16.387c2.113-2.042,4.155-4.288,5.163-7.047
								c2.422-6.646-4.363-10.636-4.901-16.833c-1.596-18.489-3.858-37.87-2.539-56.599c0.139-2.01,0.223-4.225,0.987-6.12
								c-0.327-0.54-0.781-1.021-1.515-1.355c-2.33-1.062-5.379-0.612-7.769-0.04c-2.818,0.674-5.521,1.755-8.291,2.613
								c-6.599,2.047-13.129,4.653-19.185,8.001c-5.916,3.275-10.911,7.629-16.086,11.921c-1.716,1.426-3.634,2.63-5.131,4.307
								c-0.551,0.619-1.242,1.435-1.247,2.314c-0.005,1.193,1.33,1.907,1.958,2.762c4.185,5.691,5.87,14.478,7.112,21.521
								c1.384,7.842,2.495,15.882,1.237,23.818C1523.755,1065.51,1523.119,1067.238,1522.31,1068.831z"/>
						</g>
					</g>
				</g>
			</g>
			<path style="fill:#FBA896;" d="M1522.344,1068.752c31.069,10.84,46.733-7.346,51.647-24.59
				c-0.972-10.725-1.98-21.682-2.276-32.589l-4.048-0.395l-53.817,3.769c-0.038,0.148-0.082,0.297-0.083,0.451
				c-0.005,1.194,1.33,1.907,1.958,2.762c4.185,5.691,5.87,14.477,7.111,21.521c1.385,7.841,2.496,15.882,1.238,23.818
				C1523.76,1065.477,1523.134,1067.18,1522.344,1068.752z"/>
			<g>
				<path style="fill:#FCC2B4;" d="M1528.995,1064.149c-24.5-8.571-34.728-31.1-31.228-50.785
					c2.163-12.168-1.256-27.975-0.874-41.203c1.039-11.804,5.189-21.504,18.716-24.005c27.936-5.165,82.322,5.757,70.846,47.86
					c0,0,15.959-5.062,15.317,14.547c-0.642,19.608-14.672,21.161-18.75,22.344
					C1583.022,1032.909,1561.606,1075.557,1528.995,1064.149z"/>
				<path style="fill:#FBA896;" d="M1497.312,984.427c0,0,5.672-15.982,28.209-11.829c22.538,4.154,23.065,17.397,48.374,8.33
					c0,0,0.958,16.017,9.001,22.846c8.043,6.827,25.717-37.085,14.137-42.396C1585.453,956.064,1498.031,945.906,1497.312,984.427z"
					/>
				<g>
					<path style="fill:#F69D7D;" d="M1527.147,1031.767c-0.001-0.415-1.429-0.669-2.316-2.426c-0.458-0.873-0.695-1.906-0.533-3.223
						c0.137-1.304,0.65-2.778,1.263-4.441c2.441-6.714,3.809-12.388,3.052-12.661c-0.758-0.274-3.353,4.947-5.796,11.667
						c-0.614,1.682-1.181,3.483-1.202,5.288c-0.013,0.91,0.102,1.742,0.386,2.58c0.284,0.797,0.693,1.454,1.15,1.985
						c0.916,1.068,2.044,1.562,2.824,1.605C1526.763,1032.197,1527.152,1031.95,1527.147,1031.767z"/>
				</g>
				<g>
					<path style="fill:#3B4159;" d="M1536.69,996.058c0.269,0.326,1.438-0.257,3.293-0.921c1.86-0.673,4.42-1.365,7.382-1.329
						c2.834,0.037,5.469,0.794,7.284,1.515c0.924,0.37,1.676,0.671,2.212,0.885c0.557,0.209,0.932,0.282,1.058,0.121
						c0.122-0.155,0.011-0.508-0.354-1.011c-0.384-0.518-1.016-1.15-1.923-1.802c-1.803-1.305-4.745-2.581-8.303-2.624
						c-3.43-0.045-6.496,1.155-8.301,2.414C1537.188,994.568,1536.444,995.773,1536.69,996.058z"/>
				</g>
				<g>
					<path style="fill:#3B4159;" d="M1520.143,996.709c0.254-0.279-0.458-1.502-2.275-2.813c-1.772-1.305-4.806-2.582-8.236-2.626
						c-3.559-0.047-6.532,1.153-8.367,2.412c-0.925,0.631-1.573,1.245-1.969,1.753c-0.379,0.493-0.498,0.844-0.38,1.003
						c0.121,0.164,0.497,0.1,1.06-0.094c0.541-0.201,1.3-0.482,2.234-0.829c1.832-0.674,4.486-1.365,7.319-1.33
						c2.964,0.04,5.504,0.797,7.347,1.518C1518.713,996.416,1519.866,997.029,1520.143,996.709z"/>
				</g>
				<path style="fill:#3B4159;" d="M1541.637,1007.159c-0.461,3.137,1.122,6.064,3.536,6.537c2.414,0.472,4.746-1.689,5.206-4.825
					c0.462-3.138-1.121-6.064-3.535-6.537C1544.429,1001.861,1542.098,1004.022,1541.637,1007.159z"/>
				<path style="fill:#3B4159;" d="M1506.722,1009.761c-0.362,3.15,1.126,6.027,3.324,6.427c2.198,0.4,4.272-1.829,4.634-4.978
					c0.361-3.149-1.127-6.026-3.324-6.427C1509.157,1004.383,1507.083,1006.612,1506.722,1009.761z"/>
				<path style="fill:#3F3C51;" d="M1550.693,972.794c16.784,3.454,34.073,0.588,34.073,0.588
					c-5.784,5.531-6.362,23.769-3.973,34.866c2.12,9.846,17.004-0.047,20.337-2.406c0.727-5.941,10.384-17.645,2.405-31.753
					c-5.762-10.188-86.719-45.735-99.194-32.483c-18.872,20.049-7.392,44.562-7.392,44.562
					C1502.169,957.236,1533.909,969.339,1550.693,972.794z"/>
				<path style="fill:#3F3C51;" d="M1594.219,1020.662c0,0-6.698,0.109-9.816-3.195c-3.117-3.303,4.22-32.716,4.22-32.716
					s-9.462-7.07-10.365-17.865c-0.904-10.795,5.86-16.883,17.046-16.994c6.346-0.063,14.602,4.308,20.559,8.104
					c3.767,2.4,3.703,7.92-0.113,10.241l0,0c0,0-4.397,24.123-7.432,30.67C1605.282,1005.453,1594.219,1020.662,1594.219,1020.662z"
					/>
				<path style="fill:#FCC2B4;" d="M1601.771,1010.565c0.401-12.256-5.682-14.874-10.301-15.115
					c-2.906-0.152-4.548,4.276-5.301,7.086c-4.822,17.978-3.147,30.373-3.147,30.373
					C1587.099,1031.726,1601.129,1030.172,1601.771,1010.565z"/>
				<defs>
					<filter id="Adobe_OpacityMaskFilter" filterUnits="userSpaceOnUse" x="1587.666" y="1001.626" width="9.037" height="22.593">
						<feFlood  style="flood-color:white;flood-opacity:1" result="back"/>
						<feBlend  in="SourceGraphic" in2="back" mode="normal"/>
					</filter>
				</defs>
				
					<mask maskUnits="userSpaceOnUse" x="1587.666" y="1001.626" width="9.037" height="22.593" id="SVGID_00000097484883997212983730000005858571212683837354_">
					<g style="filter:url(#Adobe_OpacityMaskFilter);">
						<defs>
							
								<filter id="Adobe_OpacityMaskFilter_00000001654120699103840560000009684495399300577176_" filterUnits="userSpaceOnUse" x="1587.666" y="1001.626" width="9.037" height="22.593">
								<feFlood  style="flood-color:white;flood-opacity:1" result="back"/>
								<feBlend  in="SourceGraphic" in2="back" mode="normal"/>
							</filter>
						</defs>
						
							<mask maskUnits="userSpaceOnUse" x="1587.666" y="1001.626" width="9.037" height="22.593" id="SVGID_00000097484883997212983730000005858571212683837354_">
							<g style="filter:url(#Adobe_OpacityMaskFilter_00000001654120699103840560000009684495399300577176_);">
							</g>
						</mask>
						
							<linearGradient id="SVGID_00000080907614696201773390000007796182159502739630_" gradientUnits="userSpaceOnUse" x1="-22973.3926" y1="-301.4161" x2="-22964.8086" y2="-306.2229" gradientTransform="matrix(0.7543 -0.0508 0.0881 0.9207 18944.4727 125.8774)">
							<stop  offset="0" style="stop-color:#FFFFFF"/>
							<stop  offset="0.2204" style="stop-color:#EEEEEE"/>
							<stop  offset="0.6568" style="stop-color:#C1C1C1"/>
							<stop  offset="1" style="stop-color:#999999"/>
						</linearGradient>
						
							<path style="mask:url(#SVGID_00000097484883997212983730000005858571212683837354_);fill:url(#SVGID_00000080907614696201773390000007796182159502739630_);" d="
							M1595.92,1005.403c1.579,4.672,0.464,9.785-0.669,14.448c-0.337,1.386-0.714,2.85-1.628,3.747
							c-0.914,0.895-2.548,0.878-3.197-0.41c-0.626-1.246-0.019-2.738,0.445-4.006c0.464-1.27,0.617-3.138-0.434-3.841
							c-0.49-0.327-1.084-0.256-1.592-0.533c-1.108-0.601-1.273-2.417-1.139-3.836c0.186-1.963,0.597-3.878,1.219-5.674
							c0.61-1.762,1.664-3.594,3.267-3.668C1593.869,1001.55,1595.267,1003.471,1595.92,1005.403z"/>
					</g>
				</mask>
				
					<linearGradient id="SVGID_00000044872400373166378660000000819289913334296465_" gradientUnits="userSpaceOnUse" x1="-22973.3926" y1="-301.4161" x2="-22964.8086" y2="-306.2229" gradientTransform="matrix(0.7543 -0.0508 0.0881 0.9207 18944.4727 125.8774)">
					<stop  offset="0" style="stop-color:#F69D7D"/>
					<stop  offset="1" style="stop-color:#F69D7D"/>
				</linearGradient>
				<path style="fill:url(#SVGID_00000044872400373166378660000000819289913334296465_);" d="M1595.92,1005.403
					c1.579,4.672,0.464,9.785-0.669,14.448c-0.337,1.386-0.714,2.85-1.628,3.747c-0.914,0.895-2.548,0.878-3.197-0.41
					c-0.626-1.246-0.019-2.738,0.445-4.006c0.464-1.27,0.617-3.138-0.434-3.841c-0.49-0.327-1.084-0.256-1.592-0.533
					c-1.108-0.601-1.273-2.417-1.139-3.836c0.186-1.963,0.597-3.878,1.219-5.674c0.61-1.762,1.664-3.594,3.267-3.668
					C1593.869,1001.55,1595.267,1003.471,1595.92,1005.403z"/>
				<path style="fill:#FFFFFF;" d="M1518.794,1036.835c7.803,0.888,16.561-1.041,25.603-3.804c0,0,2.518,12.507-8.669,14.414
					C1519.102,1050.276,1518.794,1036.835,1518.794,1036.835z"/>
				<path style="fill:#3F3C51;" d="M1541.536,967.064c0,0-16.232,11.81-39.229,3.669c-22.997-8.143-24.4-21.216-24.4-21.216
					s19.153-1.296,30.721-14.593c11.568-13.296,48.093-27.583,78.818-10.81c30.726,16.773,24.697,43.025,8.016,47.958
					c-16.681,4.933-27.63-5.362-31.707-2.88C1559.679,971.673,1553.115,974.426,1541.536,967.064z"/>
			</g>
			<path style="fill:#FFFFFF;" d="M1578.801,1060.799l12.882,10.207c0,0,32.187,10.327,69.483,44.154
				c0,0,9.723,100.472-19.768,133.432c0,0-9.506,7.457-23.062,6.589c0,0-0.437,48.071,8.237,58.479s9.884,46.125,9.884,46.125
				l-8.236,8.237c0,0-28.085,10.109-42.83-10.708l-98.839-1.647c0,0-6.925,16.13-32.946,6.589c0,0,7.405-75.726,23.886-93.073
				l-3.295-31.299c0,0-46.492,10.296-47.36-18.326c-0.867-28.623,29.495-114.755,40.771-121.695
				c11.275-6.939,45.146-19.918,45.146-19.918l10.408-10.408C1523.162,1067.537,1552.781,1111.106,1578.801,1060.799z"/>
			<path style="opacity:0.1;fill:#231F20;" d="M1555.784,1177.408c16.31-30.044,5.503-79.848,1.997-93.762
				c6.84-2.652,14.059-9.388,21.021-22.847l12.882,10.207c0,0,32.187,10.327,69.483,44.154c0,0,9.723,100.472-19.768,133.432
				c0,0-9.506,7.457-23.062,6.589c0,0-0.437,48.071,8.236,58.479c8.674,10.408,9.884,46.125,9.884,46.125l-8.236,8.237
				c0,0-28.085,10.109-42.83-10.708l-48.454-0.807C1563.059,1307.498,1555.784,1177.408,1555.784,1177.408z"/>
			<g>
				<g>
					<path style="fill:#37A6FF;" d="M1463.315,1093.557c9.388-5.776,37.393-12.751,46.516-14.926l0,0
						c11.171,47.306-14.424,276.87-14.424,276.87s-18.214,19.949-44.235,10.408c0,0,6.071-78.931,22.552-96.277l-2.602-26.889
						c0,0-48.357,10.38-49.225-18.244C1421.029,1195.878,1452.039,1100.497,1463.315,1093.557z"/>
					<path style="fill:#37A6FF;" d="M1641.991,1254.887c0,0-4.113,7.806-17.67,6.94c0,0-0.546,36.429,8.129,46.837
						c8.674,10.408,11.275,58.98,11.275,58.98l-13.011,6.938c0,0-34.694,3.47-49.439-17.347
						c-29.924-96.927,10.408-286.229,10.408-286.229s28.388,5.161,60.123,28.282c9.806,7.144,15.622,18.522,15.552,30.654
						C1667.17,1162.641,1664.008,1230.279,1641.991,1254.887z"/>
				</g>
			</g>
			<path style="fill:#0372CE;" d="M1600.992,1230.597c2.804-23.757,9.619-45.383,9.619-45.383v70.492l13.704,7.622
				c0.009,6.925,0.506,36.182,8.135,45.335c8.674,10.409,11.275,58.98,11.275,58.98l-13.011,6.939c0,0-5.419,0.52-12.851-0.101
				C1612.805,1342.484,1598.683,1250.161,1600.992,1230.597z"/>
			<g>
				<g>
					<g>
						<path style="fill:#FCC2B4;" d="M1533.845,1279.389c-1.186-2.123-2.597-4.135-4.419-5.762
							c-1.762-1.574-3.866-2.695-6.086-3.476c-2.99-1.05-6.121-1.774-9.17-2.638c-3.122-0.884-6.249-1.753-9.392-2.563
							c-2.728-0.702-5.517-1.546-8.313-1.921c-1.072-0.143-2.148-0.16-3.185,0.152c-2.534,0.148-5.068,0.426-7.582,0.736
							c-3.321,0.412-6.637,0.911-9.914,1.587c-2.718,0.562-5.433,1.225-8,2.302c-2.56,1.074-4.694,2.601-6.702,4.492
							c-1.611,1.522-3.529,2.711-4.968,4.412c-0.546,0.646-1.101,1.467-1.008,2.357c0.086,0.787,0.72,1.283,1.429,1.53
							c0.8,0.278,1.692,0.363,2.589,0.327c4.305-0.746,8.13-3.294,12.003-5.157c1.26-0.607,2.638-0.989,3.99-1.344
							c2.016-0.531,4.08-0.887,6.156-1.102c1.413-0.147,2.829-0.227,4.246-0.255c-0.422,0.146-0.842,0.295-1.259,0.46
							c-2.035,0.803-3.837,2.045-5.754,3.082c-1.884,1.019-3.699,1.975-5.319,3.397l-0.041,0.038
							c-1.235,0.735-2.411,1.562-3.493,2.569c-1.988,1.845-3.668,3.978-5.208,6.197c-0.585,0.844-1.207,1.658-1.826,2.478
							c-1.089,1.072-2.162,2.156-3.149,3.308c-1.016,1.184-2.083,2.655-2.358,4.223c-0.328,1.865,1.314,2.524,2.904,2.496
							c2.614-0.043,4.401-1.872,5.93-3.792c1.973-2.477,4.123-4.724,6.541-6.782c2.452-2.087,5.181-3.595,8.269-4.52
							c0.11-0.034,0.224-0.057,0.336-0.089c-0.19,0.1-0.382,0.186-0.563,0.301c-1.304,0.816-2.166,2.107-2.989,3.375
							c-2.114,3.263-4.589,6.276-6.911,9.398c-1.189,1.6-2.406,3.148-3.635,4.709c-0.808,1.024-5.532,6.689-2.013,7.054
							c0.997,0.105,2.082-0.268,2.991-0.634c1.256-0.506,2.398-1.304,3.414-2.196c2.245-1.974,4.018-4.416,5.744-6.837
							c0.924-1.296,1.802-2.689,2.897-3.856c1.398-1.49,3.234-2.5,5.122-3.228c2.999-1.158,6.125-1.794,9.292-2.211
							c-1.066,0.435-2.133,0.869-3.185,1.333c-4.584,2.019-7.094,5.477-10.104,9.266c-1.436,1.808-3.362,3.165-4.725,5.02
							c-0.818,1.111-1.562,2.839-0.356,3.981c0.883,0.842,2.253,0.449,3.218-0.011c3.229-1.536,5.497-4.378,8.086-6.733
							c2.992-2.719,6.65-4.491,10.177-6.399c4.026-2.177,7.491-1.34,11.822-0.902c2.116,0.214,4.242,0.341,6.369,0.391
							c4.304,0.105,8.688-0.029,12.948-0.692c1.621-0.252,3.267-0.736,4.58-1.76c1.009-0.786,1.703-1.793,2.157-2.937
							C1537.495,1288.496,1535.942,1283.141,1533.845,1279.389z"/>
					</g>
				</g>
				<g>
					<path style="fill:#F6DFC9;" d="M1467.509,1269.776c4.761-2.635,9.776-4.256,15.135-5.15c5.428-0.901,10.96-1.224,16.458-0.979
						c0.26,0.014,0.522,0.033,0.786,0.046c-1.138-0.269-2.28-0.51-3.423-0.663c-1.072-0.143-2.148-0.16-3.185,0.152
						c-2.534,0.148-5.068,0.426-7.582,0.736c-3.321,0.412-6.637,0.911-9.914,1.587c-2.718,0.562-5.433,1.225-8,2.302
						c-2.56,1.074-4.694,2.601-6.702,4.492c-1.611,1.522-3.529,2.711-4.968,4.412c-0.395,0.467-0.785,1.025-0.94,1.633
						C1459.081,1275.207,1463.116,1272.206,1467.509,1269.776z"/>
				</g>
				<g>
					<path style="fill:#F4B79F;" d="M1462.359,1293.137c1.953-2.194,4.13-4.178,6.331-6.12c2.215-1.953,4.392-3.952,6.745-5.739
						c2.457-1.866,5.059-3.625,7.847-4.966c2.252-1.083,4.593-1.99,6.824-3.116c-1.837-0.355-3.739-0.184-5.575,0.232
						c-0.092,0.034-0.182,0.064-0.274,0.099c-2.035,0.803-3.837,2.045-5.754,3.082c-1.884,1.019-3.699,1.975-5.319,3.397
						l-0.041,0.038c-1.235,0.735-2.411,1.562-3.493,2.569c-1.988,1.845-3.668,3.978-5.208,6.197
						c-0.585,0.844-1.207,1.658-1.826,2.478c-1.089,1.072-2.162,2.156-3.149,3.308c-1.016,1.184-2.083,2.655-2.358,4.223
						c-0.143,0.805,0.097,1.372,0.524,1.769C1458.647,1297.801,1460.395,1295.34,1462.359,1293.137z"/>
				</g>
				<g>
					<path style="fill:#F6DFC9;" d="M1479.345,1286.721c2.132-1.485,4.475-2.698,6.72-4.058c-3.182,0.579-6.297,1.489-9.236,2.878
						c-3.244,1.533-6.193,3.609-8.787,6.085c-1.225,1.171-2.425,2.423-3.457,3.772c-0.768,1.002-1.42,2.087-2.191,3.09
						c-0.805,1.049-2.024,2.365-3.337,2.746c0.31,0.055,0.636,0.086,0.959,0.08c2.614-0.043,4.401-1.872,5.93-3.792
						c1.973-2.477,4.123-4.724,6.541-6.782C1474.555,1288.979,1476.835,1287.655,1479.345,1286.721z"/>
				</g>
				<g>
					<path style="fill:#F6DFC9;" d="M1532.367,1291.469c-1.341,0.825-2.737,1.684-4.208,2.26c-3.151,1.231-6.713,1.602-10.064,1.753
						c-3.528,0.161-7.053-0.004-10.575-0.143c-2.982-0.117-5.944-0.254-8.904,0.259c-2.743,0.476-5.349,1.499-7.67,3.04
						c-3.087,2.051-5.531,4.835-8.037,7.535c-1.194,1.287-2.389,2.631-3.736,3.756c-0.768,0.64-1.682,1.187-2.643,1.467
						c-0.172,0.05-0.352,0.089-0.536,0.114c0.027,0.034,0.045,0.068,0.078,0.097c0.883,0.842,2.253,0.449,3.218-0.011
						c3.229-1.536,5.497-4.378,8.086-6.733c2.992-2.719,6.65-4.491,10.177-6.399c4.026-2.177,7.491-1.34,11.822-0.902
						c2.116,0.214,4.242,0.341,6.369,0.391c4.304,0.105,8.688-0.029,12.948-0.692c1.621-0.252,3.267-0.736,4.58-1.76
						c1.009-0.786,1.703-1.793,2.157-2.937c0.624-1.234,0.916-2.585,0.963-3.976
						C1534.907,1289.887,1533.153,1290.985,1532.367,1291.469z"/>
				</g>
				<g>
					<path style="fill:#F6DFC9;" d="M1485.149,1294.216c2.999-1.158,6.125-1.794,9.292-2.211c-0.007,0.003-0.007,0.003-0.013,0.006
						c1.43-0.418,2.83-0.884,4.088-1.646c-3.264-0.263-6.563-0.116-9.776,0.513c-3.351,0.654-6.697,1.826-9.487,3.829
						c-3.153,2.261-5.179,5.726-7.462,8.786c-1.157,1.552-2.387,3.067-3.82,4.375c-0.953,0.867-2.167,1.551-3.455,1.728
						c-0.262,0.036-0.537,0.048-0.806,0.028c-0.039,0.714,0.284,1.241,1.27,1.343c0.997,0.105,2.082-0.268,2.991-0.634
						c1.256-0.506,2.398-1.304,3.414-2.196c2.245-1.974,4.018-4.416,5.744-6.837c0.924-1.296,1.802-2.689,2.897-3.856
						C1481.425,1295.955,1483.261,1294.944,1485.149,1294.216z"/>
				</g>
				<g>
					<path style="fill:#F6DFC9;" d="M1475.116,1274.422c2.016-0.531,4.08-0.887,6.156-1.102c0.846-0.088,1.69-0.145,2.536-0.188
						c0.609-0.206,1.222-0.401,1.836-0.589c-3.03-0.314-6.08-0.532-9.118-0.324c-3.289,0.221-6.493,1.004-9.464,2.452
						c-1.603,0.78-3.201,1.703-4.59,2.824c-1.171,0.947-2.303,1.975-3.666,2.641c-0.622,0.305-1.321,0.515-2.009,0.534
						c0.73,0.213,1.525,0.286,2.326,0.254c4.305-0.746,8.13-3.294,12.003-5.157
						C1472.386,1275.16,1473.765,1274.778,1475.116,1274.422z"/>
				</g>
				<g>
					<g>
						<path style="fill:#FCC2B4;" d="M1530.501,1291.885c0,0,90.815-14.715,109.777-29.078c18.963-14.36,13.934-35.597,2.265-40.816
							c-11.675-5.217-27.705-2.06-41.551,8.605c-13.842,10.664-77.261,43.985-77.261,43.985L1530.501,1291.885z"/>
					</g>
				</g>
			</g>
			<g>
				<g>
					<g>
						<path style="fill:#DADADA;" d="M1416.746,1335.141l95.77-10.688c2.382-0.266,3.513-4.014,2.073-6.87l-61.946-122.854
							c-1.066-2.115-2.839-3.316-4.603-3.12l-92.192,10.289c-3.573,0.399-5.27,6.02-3.11,10.304l60.94,120.859
							C1414.389,1334.472,1415.57,1335.272,1416.746,1335.141z"/>
						<path style="fill:#ABB0BA;" d="M1413.611,1335.491l95.769-10.688c2.382-0.266,3.513-4.014,2.073-6.87l-61.946-122.854
							c-1.066-2.115-2.839-3.316-4.603-3.12l-92.193,10.289c-3.573,0.4-5.27,6.021-3.11,10.304l60.94,120.859
							C1411.253,1334.821,1412.435,1335.622,1413.611,1335.491z"/>
						<path style="fill:#989DA6;" d="M1469.941,1297.246c-32.896,1.155-67.323-11.577-91.965-38.275l35.964,71.324l93.517-10.437
							l-14.183-28.129C1485.831,1295.125,1477.87,1297.044,1469.941,1297.246z"/>
					</g>
				</g>
			</g>
			<path style="fill:#FCC2B4;" d="M1397.826,1276.838c1.897-1.583,4.952-0.529,5.185,1.8c0.188,1.888-0.088,4.23-1.553,6.767
				c-3.612,6.258-3.94,13.41-2.298,13.41c1.641,0,6.238-13.41,11.819-12.367c5.581,1.043-5.91,16.837-4.268,18.922
				c1.641,2.086,7.88-11.026,10.834-8.642c2.955,2.384-6.895,16.092-5.91,17.88c0.985,1.788,7.552-5.662,8.208-2.98
				c0.657,2.682-0.947,8.046-10.815,13.708c0,0-14.396,4.034-22.159-2.635C1371.161,1309.205,1377.154,1294.085,1397.826,1276.838z"
				/>
		</g>
	</g>
</g>
</svg>
