<?xml version="1.0" encoding="utf-8"?>
<!-- Generator: Adobe Illustrator 27.5.0, SVG Export Plug-In . SVG Version: 6.00 Build 0)  -->
<svg version="1.1" id="Layer_1" xmlns="http://www.w3.org/2000/svg" xmlns:xlink="http://www.w3.org/1999/xlink" x="0px" y="0px"
	 viewBox="0 0 1000 1000" style="enable-background:new 0 0 1000 1000;" xml:space="preserve">
<g id="Background">
	<rect x="-0.02" y="-0.02" style="fill:#FFFFFF;" width="999.59" height="1000.076"/>
</g>
<g id="Vector">
	<g>
		<g>
			<g>
				<g>
					<g>
						<path style="fill:#30363D;" d="M840.568,484.086c0,7.028,5.597,12.724,12.502,12.724l3.125-6.047
							c6.905,0,12.502-10.588,12.502-17.614v-4.774c0-7.027-5.597-12.724-12.502-12.724h-3.125c-6.905,0-12.502,5.697-12.502,12.724
							V484.086z"/>
						<path style="fill:#30363D;" d="M866.688,468.188c0.687,0,1.355,0.051,2.016,0.134c-0.128,0.838-0.219,1.697-0.219,2.576
							c0,8.469,6.38,15.437,14.605,16.438c-1.243,7.919-8.104,13.994-16.402,13.994c-9.182,0-16.624-7.423-16.624-16.574
							C850.064,475.605,857.506,468.188,866.688,468.188z"/>
						<path style="fill:#E9D6B8;" d="M845.564,460.483c0.015,1.167,0.112,2.364,0.302,3.582c1.261,8.171,6.141,14.376,11.47,15.139
							c0.168,3.702,0.902,7.031,1.774,9.863c0.996,3.221,7.743,8.013,7.743,8.013c0.903,5.705-21.215,12.697-20.764,11.777
							c0.451-0.92,5.155-7.641,6.693-13.809c1.07-4.298-0.307-7.838-1.918-10.288c-2.985-3.571-7.308-3.52-7.308-3.52
							c-0.415,0-0.788-0.183-1.055-0.468c-0.253-0.842-0.391-1.737-0.391-2.659v-10.496
							C842.11,464.712,843.469,462.129,845.564,460.483z"/>
						<path style="fill:#FEB04C;" d="M853.95,544.326c2.106,5.263,13.461,5.263,15.57,0l12.052-37.997
							c2.113-5.265-0.194-9.573-5.118-9.573h-10.423c0,0-5.202,8.684-9.581,8.126c-4.652-0.591-4.29-8.126-4.29-8.126h-3.562
							c-4.928,0-7.231,4.308-5.123,9.573L853.95,544.326z"/>
						<path style="fill:#FEB04C;" d="M843.083,500.216l-11.971,36.735c0,0-0.819,2.543,1.691,0.863
							c3.524-2.355,11.445-10.916,18.485-27.959C856.452,497.35,846.264,499.516,843.083,500.216z"/>
						<path style="fill:#E9D6B8;" d="M840.377,639.748c0.564-2.046,0.965-4.107,1.469-6.113c1.96-3.13,3.739-4.887,5.186-4.894
							c5.484-0.033,8.399,19.059-2.823,55.473c-0.621,2.024-10.445,38.643-10.46,37.172
							C833.511,691.776,838.347,647.146,840.377,639.748z"/>
						<path style="fill:#E9D6B8;" d="M873.983,640.15c-0.439-2.074-1.028-4.089-1.504-6.107c0.302-3.696,1.07-6.094,2.346-6.792
							c4.84-2.633,16.161,12.877,22.91,50.419c0.377,2.089,8.46,39.147,7.773,37.849C891.736,689.439,875.57,647.657,873.983,640.15
							z"/>
						<path style="fill:#0253A2;" d="M837.795,650.404c-0.25-1.247-0.385-2.677-0.391-4.195c0.289-8.515-0.05-17.164,1.308-33.342
							c1.332-15.709,4.366-38.948,10.9-65.819c0.632-2.744,1.405-5.101,2.289-7.028c5.937-0.839,11.975,3.268,18.125,5.044
							c2.254,4.267,4.224,9.377,5.598,15.547c6.685,27.826,10.031,43.913,11.798,57.41c1.792,13.082,2.008,23.578,2.914,30.554
							C873.354,677.342,855.857,623.8,837.795,650.404z"/>
						<g>
							<path style="fill:#E9D6B8;" d="M832.655,536.005c0,0,2.501-0.763-1.108-14.476c-3.608-13.712-11.94-33.024-11.94-33.024
								l5.685,32.356C825.293,520.86,827.997,533.144,832.655,536.005z"/>
							<path style="fill:#E9D6B8;" d="M823.351,499.047c-1.541-6.57,0.742-10.08,1.048-12.9c0.3-2.819,1.087-5.762,1.065-5.742
								c-2.17,2.056-1.747,4.195-2.311,5.448c-0.566,1.258-0.223,0.886-0.926-1.415c-0.403-1.308,1.15-4.145,1.915-6.1
								c0.666-1.691,0.532-2.628,0.532-2.628c0.004,0-1.724,2.199-2.917,4.767c-1.444,3.106-2.418,6.749-2.505,7.577
								c-0.165,1.518,0.729,5.941,1.835,8.987C822.333,500.469,824.459,503.778,823.351,499.047z"/>
							<path style="fill:#E9D6B8;" d="M819.449,488.375c0,0-0.032-5.294,0.354-6.316c0.27-0.716,2.08-3.848,2.08-3.848
								s0.167,1.946-0.49,3.246C820.737,482.756,819.449,488.375,819.449,488.375z"/>
						</g>
						<path style="fill:#F4DA80;" d="M822.872,505.664c-0.041,6.838,2.132,17.211,6.262,28.295c0.483,1.307,0.984,2.586,1.493,3.832
							c0.78,1.91,4.043-0.716,3.874-4.219c-0.336-6.778-2.978-14.589-6.727-24.646c-0.637-1.718-1.303-3.39-1.983-5.011
							C824.795,504.415,823.823,505.001,822.872,505.664z"/>
					</g>
					<path style="fill:#E9D6B8;" d="M816.437,721.208c0,0,1.99-0.013,7.029,1.086c2.946,0.64,5.007,1.544,6.421,0.922
						c2.332-1.028,4.11-11.418,4.429-18.967c0.038-0.847,5.071-2.823,4.839-1.888c-3.025,12.187-3.193,19.897-3.487,21.599
						c-0.493,2.879-1.793,5.48-3.173,5.571c-2.726,0.182-15.262-5.665-16.273-6.197C815.207,722.8,816.216,720.825,816.437,721.208z
						"/>
					<path style="fill:#163F59;" d="M911.194,723.366c1.187,7.323,0.608,13.522-1.294,13.841c-1.9,0.318-4.406-5.359-5.595-12.688
						c-1.185-7.321-0.61-13.519,1.293-13.839C907.502,710.361,910.009,716.039,911.194,723.366z"/>
					<path style="fill:#E9D6B8;" d="M909.736,719.577c1.641,5.216,0.941,10.357-0.963,10.679c-1.9,0.314-3.948-3.683-4.584-9.126
						c-0.809-6.876-0.384-9.773-2.575-13.519c-2.256-3.852-2.584-7.7-2.094-8.284c0.485-0.578,3.046,0.868,3.385,2.872
						c0.485,2.869,1.718,5.411,2.198,6.199C906.451,710.613,908.034,714.157,909.736,719.577z"/>
					<path style="fill:#163F59;" d="M819.437,721.509c-2.005,2.784,7.84,5.533,10.585,5.763c2.621,0.217,4.199,0.601,4.199,0.601
						c0.098,0.049,0.194,0.072,0.296,0.11c-0.023,0.078-0.027,0.16-0.061,0.236c-0.704,1.698-0.899,4.275-3.566,3.129l-16.724-7.162
						C800.498,718.332,819.481,721.445,819.437,721.509z"/>
				</g>
				<g>
					<g>
						<g>
							<path style="fill:#474F59;" d="M943.095,527.305c5.113,0.895,8.55,5.797,7.661,10.883l-9.693,55.398
								c-0.895,5.112-5.792,8.551-10.904,7.657l-131.244-22.962c-5.097-0.893-8.539-5.789-7.645-10.902l9.693-55.397
								c0.89-5.087,5.79-8.53,10.887-7.638L943.095,527.305z"/>
						</g>
						<g>
							<path style="fill:#30363D;" d="M939.884,591.914c-0.892,5.105-5.798,8.55-10.901,7.656l-128.384-22.462
								c-5.097-0.891-8.54-5.797-7.648-10.902l9.191-52.533c0.895-5.111,5.798-8.555,10.896-7.663l128.384,22.462
								c5.103,0.893,8.548,5.796,7.653,10.908L939.884,591.914z"/>
						</g>
						<g>
							<path style="fill:#596273;" d="M803.729,550.095c0.685,0.12,1.151,0.773,1.03,1.466c-0.12,0.68-0.782,1.146-1.466,1.025
								c-0.688-0.12-1.151-0.783-1.032-1.463C802.383,550.431,803.042,549.975,803.729,550.095z"/>
							<path style="fill:#596273;" d="M801.055,539.854c0.439,0.077,0.738,0.499,0.66,0.946c-0.076,0.437-0.502,0.741-0.942,0.665
								c-0.448-0.078-0.742-0.51-0.665-0.946C800.186,540.071,800.606,539.776,801.055,539.854z"/>
							<path style="fill:#596273;" d="M805.994,536.457c0.332,0.059,0.54,0.385,0.487,0.693l-1.499,8.561
								c-0.058,0.338-0.362,0.557-0.693,0.499l0,0c-0.329-0.058-0.549-0.368-0.491-0.706l1.498-8.561
								C805.35,536.635,805.666,536.399,805.994,536.457L805.994,536.457z"/>
						</g>
						<path style="fill:#596273;" d="M938.837,559.395c0.593,0.104,0.981,0.664,0.879,1.247l-1.372,7.843
							c-0.105,0.602-0.66,0.992-1.253,0.888L934.955,569c-0.598-0.106-0.995-0.661-0.89-1.263l1.373-7.842
							c0.101-0.584,0.665-0.979,1.262-0.874L938.837,559.395z"/>
						<polygon style="fill:#30363D;" points="813.217,579.417 813.217,579.417 812.913,581.153 812.913,581.153 807.196,580.153 
							807.196,580.153 807.499,578.416 807.499,578.416 						"/>
						<polygon style="fill:#30363D;" points="828.196,582.037 828.196,582.037 827.891,583.773 827.891,583.773 818.246,582.086 
							818.246,582.086 818.551,580.349 818.551,580.349 						"/>
						<polygon style="fill:#30363D;" points="839.608,584.034 839.608,584.034 839.305,585.771 839.305,585.771 830.117,584.164 
							830.117,584.164 830.421,582.426 830.421,582.426 						"/>
						<g>
							
								<rect x="837.755" y="494.335" transform="matrix(0.1723 -0.985 0.985 0.1723 176.1188 1315.2155)" style="fill:#F1FAFC;" width="65.898" height="116.94"/>
						</g>
					</g>
					<g>
						
							<rect x="824.304" y="529.574" transform="matrix(0.1724 -0.985 0.985 0.1724 165.4631 1297.2264)" style="fill:#7DC2F5;" width="60.762" height="41.151"/>
					</g>
					<g>
						
							<rect x="870.172" y="532.425" transform="matrix(0.1723 -0.985 0.985 0.1723 195.534 1349.0613)" style="fill:#E5E8EC;" width="60.761" height="51.498"/>
					</g>
					<g>
						<g>
							
								<rect x="801.086" y="549.591" transform="matrix(0.1723 -0.985 0.985 0.1723 132.9035 1267.9691)" style="fill:#7DC2F5;" width="39.791" height="10.614"/>
						</g>
					</g>
					<g>
						<g>
							
								<rect x="821.166" y="515.098" transform="matrix(0.1723 -0.985 0.985 0.1723 171.8874 1245.3762)" style="fill:#808080;" width="11.7" height="10.614"/>
						</g>
					</g>
					<g>
						<g>
							<g>
								
									<rect x="868.406" y="560.829" transform="matrix(0.1723 -0.985 0.985 0.1723 178.8206 1338.6042)" style="fill:#808080;" width="35.141" height="4.123"/>
							</g>
							<g>
								
									<rect x="871.103" y="556.224" transform="matrix(0.1723 -0.985 0.985 0.1723 191.5943 1343.5734)" style="fill:#B0ACA3;" width="48.445" height="3.098"/>
							</g>
							<g>
								
									<rect x="877.802" y="556.971" transform="matrix(0.1723 -0.985 0.985 0.1723 196.8264 1351.2921)" style="fill:#B0ACA3;" width="49.459" height="3.099"/>
							</g>
							<g>
								
									<rect x="897.51" y="560.313" transform="matrix(0.1723 -0.985 0.985 0.1723 202.1748 1372.2528)" style="fill:#808080;" width="40.288" height="11.016"/>
							</g>
							<g>
								
									<rect x="906.626" y="564.275" transform="matrix(0.1724 -0.985 0.985 0.1724 202.1331 1372.2185)" style="fill:#FFFFFF;" width="22.057" height="3.096"/>
							</g>
						</g>
					</g>
				</g>
				<path style="fill:#FEB04C;" d="M894.05,542.097c0,0,2.754,0.477,1.807,12.489c-0.408,5.127-1.388,10.889-2.376,15.82
					c-1.324,6.616-3.31-1.129-3.31-1.129l-0.671-13.667C889.501,555.61,889.806,544.887,894.05,542.097z"/>
				<path style="fill:#FEB04C;" d="M881.174,498.162c7.487,9.198,15.213,48.242,15.213,48.242s-0.388,15.101-17.918-34.628
					C873.206,496.846,879.329,495.895,881.174,498.162z"/>
				<path style="fill:#E9D6B8;" d="M887.669,595.41l2.665-2.147l1.63-2.288l1.069-4.457c0,0,0.554-4.852,0.119-6.764
					c-0.439-1.907,0.285-9.182,0.165-10.104c-0.123-0.916-2.721-1.536-2.721-1.536s-0.31,6.692-0.269,9.778
					c0.042,3.086-1.397,7.514-1.424,8.726c-0.051,2.066,0.454,3.779,0.454,3.779s0.638-3.177,0.71-4.032
					c0.07-0.854,0.97-0.319,0.97-0.319s-0.425,4.463-1.012,5.573c-0.59,1.114-1.497,1.89-1.497,1.89L887.669,595.41z"/>
			</g>
		</g>
		<g>
			<g>
				<path style="fill:#30363D;" d="M615.258,596.23V292.625c0-7.872-6.418-14.284-14.286-14.284H107.948
					c-7.877,0-14.289,6.411-14.289,14.284V596.23H615.258z"/>
				<path style="fill:#E5E8EC;" d="M92.634,596.804v43.899c0,8.447,6.857,15.303,15.315,15.303h493.023
					c8.449,0,15.308-6.857,15.308-15.303v-43.899H92.634z"/>
				<path style="fill:#E5E8EC;" d="M444.657,720.664c0,0-3.796-1.856-8.168-3.505c-4.649-1.747-10.243-3.937-13.539-5.518
					c-5.757-2.775-6.262-4.591-8.412-14.028c-2.348-10.328-4.567-32.111-5.458-41.607H299.858
					c-0.896,9.496-3.114,31.279-5.465,41.607c-2.148,9.437-2.64,11.253-8.41,14.028c-3.273,1.568-8.767,3.724-13.391,5.475l0,0
					c-4.423,1.657-8.037,2.943-8.037,2.943s-3.52,1.951,2.118,2.225h175.592C447.554,722.393,444.657,720.664,444.657,720.664z"/>
				<path style="fill:#CDD5D7;" d="M410.218,667.483c-0.479-4.52-0.884-8.579-1.153-11.477H299.841
					c-0.269,2.898-0.669,6.958-1.153,11.477H410.218z"/>
				<polygon style="fill:#484F59;" points="187.348,596.23 295.901,596.23 494.324,278.342 385.782,278.342 				"/>
				<polygon style="fill:#484F59;" points="326.912,596.23 366.535,596.23 564.956,278.342 525.327,278.342 				"/>
				<rect x="117.893" y="302.841" style="fill:#F1FAFC;" width="473.108" height="266.41"/>
			</g>
			<g>
				<rect x="118.191" y="334.896" style="fill:#FFFFFF;" width="472.929" height="233.573"/>
				<g>
					<rect x="128.602" y="368.509" style="fill:#7DC2F5;" width="228.904" height="128.362"/>
				</g>
				<g>
					<rect x="128.602" y="497.737" style="fill:#E5E8EC;" width="228.904" height="62.797"/>
				</g>
				<g>
					<rect x="362.159" y="368.509" style="fill:#484F59;" width="220.037" height="60.333"/>
				</g>
				<path style="fill:#CDD5D7;" d="M586.34,302.932H122.907c-2.609,0-4.716,1.983-4.716,4.422v27.706h472.867v-27.706
					C591.059,304.916,588.951,302.932,586.34,302.932z"/>
				<g>
					<path style="fill:#B7BEC0;" d="M128.223,311.577c0,1.583-1.288,2.865-2.872,2.865c-1.578,0-2.862-1.283-2.862-2.865
						c0-1.579,1.284-2.866,2.862-2.866C126.935,308.711,128.223,309.998,128.223,311.577z"/>
					<path style="fill:#B7BEC0;" d="M136.634,311.577c0,1.583-1.282,2.865-2.872,2.865c-1.584,0-2.86-1.283-2.86-2.865
						c0-1.579,1.276-2.866,2.86-2.866C135.352,308.711,136.634,309.998,136.634,311.577z"/>
					<path style="fill:#B7BEC0;" d="M145.04,311.577c0,1.583-1.277,2.865-2.86,2.865c-1.583,0-2.865-1.283-2.865-2.865
						c0-1.579,1.282-2.866,2.865-2.866C143.763,308.711,145.04,309.998,145.04,311.577z"/>
				</g>
				<rect x="157.147" y="318.456" style="fill:#FFFFFF;" width="369.602" height="12.437"/>
				<g>
					<g>
						<polygon style="fill:#B7BEC0;" points="126.397,328.644 121.9,324.138 126.397,319.634 128.066,321.304 125.245,324.138 
							128.066,326.967 						"/>
					</g>
					<g>
						<rect x="124.565" y="322.948" style="fill:#B7BEC0;" width="8.324" height="2.371"/>
					</g>
				</g>
				<g>
					<g>
						<polygon style="fill:#B7BEC0;" points="145.483,328.644 143.812,326.967 146.635,324.138 143.812,321.304 145.483,319.634 
							149.986,324.138 						"/>
					</g>
					<g>
						<rect x="138.991" y="322.948" style="fill:#B7BEC0;" width="8.318" height="2.371"/>
					</g>
				</g>
				<rect x="531.578" y="318.456" style="fill:#596273;" width="36.307" height="11.09"/>
				<g>
					<g>
						<rect x="176.146" y="349.533" style="fill:#7DC2F5;" width="36.725" height="3.979"/>
					</g>
					<g>
						<rect x="218.272" y="349.533" style="fill:#7DC2F5;" width="36.718" height="3.979"/>
					</g>
					<g>
						<rect x="260.404" y="349.533" style="fill:#7DC2F5;" width="36.72" height="3.979"/>
					</g>
					<g>
						<rect x="302.533" y="349.533" style="fill:#7DC2F5;" width="36.716" height="3.979"/>
					</g>
					<g>
						<rect x="344.664" y="349.533" style="fill:#7DC2F5;" width="36.719" height="3.979"/>
					</g>
					<g>
						<rect x="521.017" y="342.888" style="fill:#7DC2F5;" width="59.298" height="2.98"/>
					</g>
					<g>
						<rect x="533.584" y="350.034" style="fill:#7DC2F5;" width="46.731" height="2.984"/>
					</g>
					<g>
						<rect x="128.602" y="346.215" style="fill:#7DC2F5;" width="38.826" height="10.617"/>
					</g>
				</g>
				<g>
					<g>
						<g>
							<rect x="139.365" y="506.513" style="fill:#808080;" width="82.826" height="4.128"/>
						</g>
						<g>
							<rect x="139.365" y="515.354" style="fill:#B0ACA3;" width="200.957" height="3.101"/>
						</g>
						<g>
							<rect x="138.503" y="522.582" style="fill:#B0ACA3;" width="175.482" height="3.099"/>
						</g>
						<g>
							<rect x="137.808" y="534.783" style="fill:#808080;" width="40.287" height="11.013"/>
						</g>
						<g>
							<rect x="146.921" y="538.739" style="fill:#FFFFFF;" width="22.057" height="3.097"/>
						</g>
					</g>
				</g>
				<g>
					<g>
						<rect x="371.163" y="380.723" style="fill:#FFFFFF;" width="84.373" height="4.125"/>
					</g>
					<g>
						<rect x="371.163" y="389.563" style="fill:#CDD5D7;" width="202.504" height="3.096"/>
					</g>
					<g>
						<rect x="371.163" y="396.79" style="fill:#CDD5D7;" width="176.164" height="3.103"/>
					</g>
					<g>
						<rect x="371.163" y="408.99" style="fill:#FFFFFF;" width="40.278" height="11.016"/>
					</g>
					<g>
						<rect x="380.274" y="412.94" style="fill:#484F59;" width="22.061" height="3.103"/>
					</g>
				</g>
				<g>
					<rect x="361.957" y="497.737" style="fill:#E5E8EC;" width="107.703" height="62.797"/>
				</g>
				<g>
					<g>
						<rect x="372.168" y="506.513" style="fill:#808080;" width="61.783" height="4.128"/>
					</g>
					<g>
						<rect x="372.168" y="515.354" style="fill:#B0ACA3;" width="70.478" height="3.101"/>
					</g>
					<g>
						<rect x="371.869" y="522.582" style="fill:#B0ACA3;" width="61.541" height="3.099"/>
					</g>
					<g>
						<rect x="371.163" y="534.783" style="fill:#808080;" width="40.284" height="11.013"/>
					</g>
					<g>
						<rect x="380.274" y="538.739" style="fill:#FFFFFF;" width="22.061" height="3.097"/>
					</g>
				</g>
				<g>
					<rect x="361.957" y="434.069" style="fill:#8DCFFF;" width="107.703" height="62.797"/>
				</g>
				<g>
					<g>
						<rect x="474.714" y="497.737" style="fill:#E5E8EC;" width="107.706" height="62.797"/>
					</g>
					<g>
						<g>
							<rect x="484.926" y="506.513" style="fill:#808080;" width="61.786" height="4.128"/>
						</g>
						<g>
							<rect x="484.926" y="515.354" style="fill:#B0ACA3;" width="70.477" height="3.101"/>
						</g>
						<g>
							<rect x="484.628" y="522.582" style="fill:#B0ACA3;" width="61.542" height="3.099"/>
						</g>
						<g>
							<rect x="483.924" y="534.783" style="fill:#808080;" width="40.29" height="11.013"/>
						</g>
						<g>
							<rect x="493.04" y="538.739" style="fill:#FFFFFF;" width="22.057" height="3.097"/>
						</g>
					</g>
					<g>
						<rect x="474.714" y="434.069" style="fill:#8DCFFF;" width="107.706" height="62.797"/>
					</g>
				</g>
			</g>
		</g>
		<g>
			<g>
				<path style="fill:#596273;" d="M685.734,720.464c0,4.452-3.607,8.054-8.062,8.054H542.295c-4.463,0-8.052-3.602-8.052-8.054
					V523.108c0-4.442,3.589-8.056,8.052-8.056h135.377c4.455,0,8.062,3.613,8.062,8.056V720.464z"/>
				<path style="fill:#30363D;" d="M542.295,727.29c-3.763,0-6.83-3.062-6.83-6.826V523.108c0-3.757,3.067-6.826,6.83-6.826h135.377
					c3.788,0,6.842,3.069,6.842,6.826v197.356c0,3.764-3.055,6.826-6.842,6.826H542.295z"/>
				<g>
					<path style="fill:#596273;" d="M611.35,524.592c0,0.75-0.623,1.342-1.369,1.342c-0.742,0-1.361-0.592-1.361-1.342
						c0-0.767,0.62-1.367,1.361-1.367C610.727,523.224,611.35,523.825,611.35,524.592z"/>
				</g>
				<path style="fill:#596273;" d="M617.065,719.689c0,0.838-0.678,1.513-1.514,1.513h-11.136c-0.814,0-1.496-0.675-1.496-1.513
					v-3.019c0-0.847,0.682-1.53,1.496-1.53h11.136c0.836,0,1.514,0.683,1.514,1.53V719.689z"/>
				<rect x="544.089" y="532.61" style="fill:#F1FAFC;" width="131.802" height="175.864"/>
			</g>
			<g>
				<g>
					<rect x="546.563" y="573.993" style="fill:#7DC2F5;" width="81.669" height="87.708"/>
				</g>
				<g>
					<rect x="546.556" y="662.293" style="fill:#E5E8EC;" width="81.675" height="42.909"/>
				</g>
				<g>
					<rect x="631.415" y="573.993" style="fill:#484F59;" width="42.065" height="41.22"/>
				</g>
				<g>
					<g>
						<rect x="570.128" y="563.973" style="fill:#7DC2F5;" width="18.195" height="2.725"/>
					</g>
					<g>
						<rect x="591.001" y="563.973" style="fill:#7DC2F5;" width="18.2" height="2.725"/>
					</g>
					<g>
						<rect x="611.88" y="563.973" style="fill:#7DC2F5;" width="18.201" height="2.725"/>
					</g>
					<g>
						<rect x="632.767" y="563.973" style="fill:#7DC2F5;" width="18.186" height="2.725"/>
					</g>
					<g>
						<rect x="653.646" y="563.973" style="fill:#7DC2F5;" width="18.195" height="2.725"/>
					</g>
					<g>
						<rect x="546.563" y="561.711" style="fill:#7DC2F5;" width="19.24" height="7.253"/>
					</g>
				</g>
				<g>
					<g>
						<g>
							<rect x="553.916" y="668.288" style="fill:#808080;" width="56.595" height="2.815"/>
						</g>
						<g>
							<rect x="553.916" y="674.328" style="fill:#B0ACA3;" width="62.563" height="2.122"/>
						</g>
						<g>
							<rect x="553.33" y="679.27" style="fill:#B0ACA3;" width="45.162" height="2.111"/>
						</g>
						<g>
							<rect x="552.856" y="687.609" style="fill:#808080;" width="27.523" height="7.524"/>
						</g>
						<g>
							<rect x="559.076" y="690.307" style="fill:#FFFFFF;" width="15.077" height="2.118"/>
						</g>
					</g>
				</g>
				<g>
					<g>
						<rect x="637.557" y="582.332" style="fill:#FFFFFF;" width="26.278" height="2.823"/>
					</g>
					<g>
						<rect x="637.557" y="588.377" style="fill:#CDD5D7;" width="29.366" height="2.115"/>
					</g>
					<g>
						<rect x="637.557" y="593.318" style="fill:#CDD5D7;" width="24.826" height="2.112"/>
					</g>
					<g>
						<rect x="637.557" y="601.651" style="fill:#FFFFFF;" width="23.042" height="7.528"/>
					</g>
					<g>
						<rect x="643.775" y="604.355" style="fill:#484F59;" width="10.6" height="2.112"/>
					</g>
				</g>
				<g>
					<rect x="631.271" y="662.293" style="fill:#E5E8EC;" width="42.209" height="42.909"/>
				</g>
				<g>
					<g>
						<rect x="638.252" y="668.288" style="fill:#808080;" width="24.281" height="2.815"/>
					</g>
					<g>
						<rect x="638.252" y="674.328" style="fill:#B0ACA3;" width="30.219" height="2.122"/>
					</g>
					<g>
						<rect x="638.039" y="679.27" style="fill:#B0ACA3;" width="24.12" height="2.111"/>
					</g>
					<g>
						<rect x="637.557" y="687.609" style="fill:#808080;" width="23.042" height="7.524"/>
					</g>
					<g>
						<rect x="643.775" y="690.307" style="fill:#FFFFFF;" width="10.6" height="2.118"/>
					</g>
				</g>
				<g>
					<rect x="631.271" y="618.784" style="fill:#8DCFFF;" width="42.209" height="42.915"/>
				</g>
			</g>
			<g>
				<path style="fill:#CDD5D7;" d="M675.917,532.619h-131.91l0,0v23.275h131.91V532.619
					C675.891,532.61,675.917,532.619,675.917,532.619z"/>
				<g>
					<path style="fill:#B7BEC0;" d="M551.273,538.878c0,1.15-0.928,2.075-2.077,2.075c-1.144,0-2.072-0.926-2.072-2.075
						c0-1.143,0.928-2.068,2.072-2.068C550.345,536.81,551.273,537.735,551.273,538.878z"/>
					<path style="fill:#B7BEC0;" d="M557.373,538.878c0,1.15-0.933,2.075-2.081,2.075c-1.148,0-2.067-0.926-2.067-2.075
						c0-1.143,0.919-2.068,2.067-2.068C556.44,536.81,557.373,537.735,557.373,538.878z"/>
					<path style="fill:#B7BEC0;" d="M563.467,538.878c0,1.15-0.936,2.075-2.075,2.075c-1.153,0-2.081-0.926-2.081-2.075
						c0-1.143,0.927-2.068,2.081-2.068C562.532,536.81,563.467,537.735,563.467,538.878z"/>
				</g>
				<rect x="572.234" y="543.863" style="fill:#FFFFFF;" width="71.405" height="9.01"/>
				<g>
					<g>
						<polygon style="fill:#B7BEC0;" points="549.958,551.247 546.688,547.979 549.958,544.72 551.162,545.928 549.118,547.979 
							551.162,550.031 						"/>
					</g>
					<g>
						<rect x="548.626" y="547.119" style="fill:#B7BEC0;" width="6.038" height="1.72"/>
					</g>
				</g>
				<g>
					<g>
						<polygon style="fill:#B7BEC0;" points="563.785,551.247 562.571,550.031 564.62,547.979 562.571,545.928 563.785,544.72 
							567.044,547.979 						"/>
					</g>
					<g>
						<rect x="559.076" y="547.119" style="fill:#B7BEC0;" width="6.029" height="1.72"/>
					</g>
				</g>
				<rect x="645.645" y="543.863" style="fill:#596273;" width="26.309" height="8.966"/>
			</g>
		</g>
		<g>
			<g>
				<path style="fill:#E9D6B8;" d="M703.714,494.519c0.316,3.881,2.366,7.242,4.522,7.405c2.042,0,4.086,0,6.135,0
					c2.15-0.162,4.201-3.524,4.521-7.405c0.501-6.403,1.001-12.797,1.511-19.196c0.332-3.839-1.14-11.539-4.407-13.816
					c-2.983-2.023-6.403-2.023-9.386,0c-3.266,2.277-4.74,9.977-4.409,13.816C702.709,481.72,703.211,488.116,703.714,494.519z"/>
				<g>
					<path style="fill:#163F59;" d="M710.398,456.986v-4.443h-1.801h-4.748h-2.87c-3.167,0-5.735,2.618-5.735,5.842v4.439h1.806
						h4.745h2.87C707.833,462.823,710.398,460.209,710.398,456.986z"/>
					<path style="fill:#E9D6B8;" d="M719.426,483.929c0,2.869-2.286,5.191-5.105,5.191h-11.573c-2.816,0-5.1-2.322-5.1-5.191
						v-23.562c0-2.872,2.284-5.197,5.1-5.197h11.573c2.819,0,5.105,2.325,5.105,5.197V483.929z"/>
					<path style="fill:#163F59;" d="M710.763,452.543c2.01,0,3.772,1.056,4.797,2.643h1.968c2.455,0,4.443,2.03,4.443,4.523v11.179
						h-3.124v-4.543c0-1.759-1.404-3.183-3.129-3.183h-1.824h-4.747h-2.867c-3.172,0-5.735-2.617-5.735-5.84v-4.78H710.763z"/>
					<path style="fill:#E9D6B8;" d="M717.858,473.79c0-1.527,1.218-2.763,2.724-2.763h0.224c1.502,0,2.72,1.235,2.72,2.763v3.366
						c0,1.528-1.219,2.772-2.72,2.772h-0.224c-1.115,0-2.068-0.679-2.493-1.652"/>
				</g>
				<g>
					<path style="fill:#0253A2;" d="M749.19,723.393l-0.277,7.896l6.288,0.512c0,0,0.427-0.953,0.959-0.909
						c0.447,0.036,0.949,1.063,1.559,1.113c1.323,0.108,2.787,0.227,3.376,0.274c1.179,0.097,12.616,1.026,12.616,1.026
						s0.398-1.433,0.092-1.966c-0.16-0.27-1.175-0.803-1.859-1.08c-3.166-1.293-12.209-5.251-13.553-8.868
						C756.759,716.988,749.19,723.393,749.19,723.393z"/>
					<path style="fill:#7DC2F5;" d="M773.895,731.66c0.093,0.637-0.185,1.645-0.185,1.645s-11.437-0.929-12.616-1.026
						c-0.588-0.047-2.053-0.166-3.376-0.274c-0.611-0.05-1.113-1.078-1.559-1.113c-0.531-0.044-0.959,0.909-0.959,0.909
						l-6.288-0.512l-0.152-1.675L773.895,731.66z"/>
					<g>
						<path style="fill:#7DC2F5;" d="M762.49,727.631c0.125,0.216,0.505,0.013,1.008-0.355c1.225-0.893,1.11-0.793,0.828-0.98
							c-0.198-0.13-0.431-0.263-1.141,0.277C762.686,726.951,762.368,727.413,762.49,727.631z"/>
						<path style="fill:#7DC2F5;" d="M760.855,726.653c0.125,0.218,0.504,0.013,1.01-0.354c1.224-0.892,1.108-0.793,0.827-0.978
							c-0.199-0.129-0.434-0.265-1.14,0.274C761.051,725.973,760.733,726.441,760.855,726.653z"/>
						<path style="fill:#7DC2F5;" d="M759.369,725.571c0.123,0.216,0.506,0.013,1.008-0.355c1.224-0.891,1.111-0.791,0.826-0.98
							c-0.196-0.13-0.43-0.263-1.138,0.275C759.567,724.89,759.247,725.356,759.369,725.571z"/>
					</g>
				</g>
				<g>
					<path style="fill:#0253A2;" d="M686.784,728.948c-0.575,0.84-0.39,2.928-0.39,2.928s10.292,2.147,13.704,1.536
						c0.889-0.16,2.424-0.883,3.878-1.66c0.245-0.131,0.728-0.996,0.962-1.127c0.443-0.245,0.627,0.239,1.004,0.015
						c0.975-0.578,1.666-1.041,1.684-1.104c1.332-5.284,0.287-7.541,0.287-7.541s-6.397-3.849-8.236-1.677
						C695.346,725.427,688.449,726.52,686.784,728.948z"/>
					<path style="fill:#7DC2F5;" d="M686.393,730.068c3.172,0.726,9.832,2.199,11.095,2.045c5.155-0.623,8.425-3.373,10.629-5.051
						c-0.105,0.74-0.261,1.558-0.492,2.474c-0.018,0.064-0.709,0.526-1.684,1.104c-0.378,0.224-0.561-0.26-1.004-0.015
						c-0.233,0.131-0.717,0.995-0.962,1.127c-1.453,0.777-2.988,1.5-3.878,1.66c-3.412,0.611-13.704-1.536-13.704-1.536
						S686.282,730.932,686.393,730.068z"/>
					<g>
						<path style="fill:#7DC2F5;" d="M692.442,725.446c-0.06,0.226,0.361,0.388,0.945,0.401c1.185,0.029,2.376,0.192,3.562,0.49
							c0.586,0.144,1.098,0.098,1.141-0.143c0.043-0.248-0.394-0.595-0.971-0.735c-1.173-0.279-2.352-0.426-3.518-0.446
							C693.026,725.004,692.508,725.221,692.442,725.446z"/>
						<path style="fill:#7DC2F5;" d="M694.571,724.016c-0.056,0.232,0.368,0.444,0.942,0.512c1.166,0.144,2.332,0.42,3.49,0.823
							c0.571,0.199,1.066,0.191,1.104-0.059c0.037-0.254-0.392-0.653-0.954-0.842c-1.148-0.388-2.303-0.648-3.455-0.776
							C695.132,723.61,694.626,723.785,694.571,724.016z"/>
						<path style="fill:#7DC2F5;" d="M696.629,722.716c-0.05,0.239,0.37,0.501,0.938,0.628c1.143,0.248,2.286,0.627,3.411,1.139
							c0.554,0.251,1.037,0.28,1.066,0.017c0.032-0.263-0.384-0.707-0.936-0.952c-1.116-0.49-2.252-0.853-3.379-1.091
							C697.17,722.343,696.679,722.479,696.629,722.716z"/>
					</g>
				</g>
				<polygon style="fill:#163F59;" points="736.762,569.461 747.18,638.717 761.226,723.734 747.731,727.918 732.116,647.867 
					714.539,568.808 				"/>
				<path style="fill:#163F59;" d="M720.841,570.28l-21.74,2.844l-0.848,82.942l-0.92,65.215c0,0,4.378,1.358,7.544,3.194
					c1.056,0.609,3.857,2.484,3.857,2.484l4.134-74.314L720.841,570.28z"/>
				<path style="fill:#E2C59C;" d="M678.66,493.193c0,0-8.582,1.682-12.093,2.744c-9.748,2.958-13.087,5.032-15.454,7.71
					c-2.365,2.676,2.833,2.995,5.462,5.404c2.629,2.41,23.666-1.07,28.132-4.28C689.177,501.558,681.552,493.193,678.66,493.193z"/>
				<path style="fill:#E9D6B8;" d="M714.945,485.232c0,0,2.364,8.833,8.149,10.439c5.785,1.606-8.94,8.564-16.564,6.423
					c-7.624-2.139-7.888-8.832-7.888-8.832s5.784,0.537,5.259-3.481C703.377,485.767,712.839,481.216,714.945,485.232z"/>
				<path style="fill:#7DC2F5;" d="M704.688,498.079c-1.87-1.171-4.469-5.353-5.52-6.959c-1.052-1.604-9.203-1.339-17.353,0.537
					c-8.15,1.872-11.83,2.877-12.62,3.143c-0.788,0.268,6.31,1.138,8.677,9.435c2.368,8.299,2.957,9.638,2.957,9.638l5.457-0.805
					c0,0,9.15,77.652,10.466,84.077c1.316,6.422,33.641,10.638,45.051,4.304c0,0-7.907-73.345-9.223-78.965l0.507-26.814
					c0,0-10.445-1.659-13.339-1.659C719.747,494.011,717.129,505.865,704.688,498.079z"/>
			</g>
			<path style="fill:#E2C59C;" d="M748.098,516.445c0,0,11.734,27.32,12.772,35.237c1.039,7.919-4.19,7.943-8.988,5.279
				c-3.804-2.111-11.755-21.466-13.829-24.633C735.979,529.159,747.577,512.752,748.098,516.445z"/>
			<path style="fill:#E9D6B8;" d="M760.87,551.682c-1.037-7.918-12.772-35.237-12.772-35.237c-0.27-1.911-3.506,1.563-6.28,5.8
				c1.327-1.369,2.331-1.901,2.475-0.872c0,0,11.737,27.319,12.774,35.238c0.191,1.449,0.263,2.628,0.224,3.594
				C760.376,559.119,761.681,557.874,760.87,551.682z"/>
			<path style="fill:#E9D6B8;" d="M652.177,501.625c3.274-2.283,5.699-2.111,15.805,1.582c13.419,4.904,17.877,6.859,19.951,7.913
				c2.072,1.056,1.814,4.486,2.85,8.442c1.037,3.959,0.776,8.97,0.776,9.761c0,0.79-4.923,3.692-4.923,3.692l-2.07-2.902
				l-0.779-4.748c0,0,2.588-0.263,3.625,0c1.037,0.263-2.817-2.166-2.588-6.328c0.257-4.749-2.073-5.541-5.701-5.277
				c-3.628,0.265-20.211,1.054-23.323,0.528c-3.107-0.528-7.514-2.64-6.475-6.594C650.364,503.736,650.813,502.574,652.177,501.625z
				"/>
			<path style="fill:#E9D6B8;" d="M749.461,553.795l-17.233,20.219c0,0,36.219-13.876,27.109-19.417
				C752.226,550.275,749.461,553.795,749.461,553.795z"/>
			<path style="fill:#7DC2F5;" d="M728.865,496.825c0,0,7.911-5.179,14.126,6.422c3.708,6.929,6.834,14.065,9.325,20.429
				c0,0-13.09,16.253-17.313,9.531c-1.22-1.942-4.431-6.535-5.323-8.678C724.359,511.755,728.865,496.825,728.865,496.825z"/>
			<g>
				<path style="fill:#E9D6B8;" d="M738.331,564.701c-1.459,0.543-1.382,0.447-1.382,0.447s0.202,2.021-0.888,3.58
					c-0.547,0.775-2.598,2.98-2.598,2.98l-3.005,3.306l-1.513,1.421c0,0-0.921,0.742-0.991,1.106
					c-0.211,1.06,0.652,0.827,0.652,0.827l6.338-4.995l-4.637,6.238c0,0-0.464,0.901-0.12,1.302
					c0.319,0.371,0.527,0.128,0.527,0.128l6.849-5.795l-2.04,3.49c0,0-0.432,0.891-0.122,1.301c0.343,0.446,0.429,0.581,0.429,0.581
					l5.098-6.52C740.928,574.096,739.795,564.155,738.331,564.701z"/>
				<path style="fill:#E9D6B8;" d="M735.724,574.604l-3.015,4.583c0,0-0.784,0.946-0.881,1.619
					c-0.113,0.771,0.531,0.895,0.531,0.895l5.204-6.456L735.724,574.604z"/>
			</g>
		</g>
		<g>
			<g>
				<g>
					<path style="fill:#E9D6B8;" d="M200.683,455.304c0,0,7.083,0.335,8.489-1.078c1.4-1.41,6.172-6.891,6.172-6.891l1.091-1.503
						c0,0-1.066-1.981-4.229,1.735c-3.17,3.719-2.652,1.148-2.652,1.148l1.536-4.349l1.451-5.448l0.97-2.355
						c0,0,0.651-1.298,0.533-1.723c-0.352-1.226-1.232-0.488-1.232-0.488l-4.583,8.87l1.893-9.183c0,0,0.035-1.207-0.588-1.433
						c-0.592-0.21-0.694,0.17-0.694,0.17l-4.734,10l0.412-4.821c0,0,0-1.184-0.594-1.431c-0.655-0.268-0.821-0.358-0.821-0.358
						l-4.315,18.459L200.683,455.304z"/>
					<path style="fill:#E9D6B8;" d="M206.624,442.384l0.934-6.52c0,0,0.378-1.44,0.111-2.199c-0.308-0.869-1.129-0.622-1.129-0.622
						l-2.434,9.735L206.624,442.384z"/>
				</g>
				<path style="fill:#E9D6B8;" d="M185.406,478.367c0,0,1.57-10.291,16.047-23.416c4.888-4.432-0.512-2.139-6.831-1.177
					c-6.317,0.958-16.005,12.868-19.013,25.933C172.6,492.772,185.406,478.367,185.406,478.367z"/>
				
					<rect x="190.469" y="453.02" transform="matrix(0.7795 -0.6264 0.6264 0.7795 -243.7379 222.3736)" style="fill:#E7F5FE;" width="7.027" height="8.726"/>
				<path style="fill:#FEC00F;" d="M167.203,546.618c0,0-11.985-51.695-10.402-55.356c6.432-14.874,30.092-40.203,30.092-40.203
					l11.469,10.911c0,0-18.507,23.343-21.013,26.004c-1.778,1.889,3.211,21.974,11.582,35.336
					C192.941,529.716,168.747,545.403,167.203,546.618z"/>
				<path style="fill:#E9D6B8;" d="M258.793,490.822l1.393-35.161c0,0-12.575,23.268-10.695,34.347
					C251.377,501.094,258.793,490.822,258.793,490.822z"/>
				<g>
					<path style="fill:#E9D6B8;" d="M258.19,462.994c0,0-4.456-3.989-4.354-5.689c0.098-1.711,0.876-7.922,0.876-7.922l0.354-1.574
						c0,0,1.943-0.593,1.37,3.576c-0.569,4.177,0.828,2.283,0.828,2.283l1.958-3.6l2.753-4.227l0.98-2.032
						c0,0,0.469-1.189,0.823-1.378c1.022-0.549,1.057,0.423,1.057,0.423l-3.14,8.201l4.957-6.799c0,0,0.779-0.768,1.301-0.535
						c0.49,0.216,0.301,0.515,0.301,0.515l-3.803,8.983l2.95-3.221c0,0,0.782-0.73,1.303-0.53c0.568,0.214,0.729,0.259,0.729,0.259
						l-9.659,13.978L258.19,462.994z"/>
					<path style="fill:#E9D6B8;" d="M263.206,451.491l3.766-4.583c0,0,0.731-1.122,1.392-1.432c0.756-0.358,1.089,0.284,1.089,0.284
						l-5.003,7.457L263.206,451.491z"/>
				</g>
				
					<rect x="250.514" y="472.306" transform="matrix(0.0796 -0.9968 0.9968 0.0796 -240.1605 692.4287)" style="fill:#E7F5FE;" width="8.727" height="7.915"/>
				<path style="fill:#FEC00F;" d="M211.175,512.352l33.985-14.657l5.303-23.07c0,0,10.18-0.951,10.915,1.512
					c5.082,17.04-4.905,41.997-4.905,41.997l-46.801,19.144c0,0-11.922,1.748-23.314-8.238
					C178.106,521.798,208.439,513.67,211.175,512.352z"/>
			</g>
			<g>
				<path style="fill:#161711;" d="M159.686,733.768c0.518-0.62,0.142-2.264,0.142-2.264s-9.007-1.005-11.903-0.321
					c-0.754,0.177-2.025,0.821-3.222,1.514c-0.199,0.114-0.559,0.807-0.759,0.921c-0.36,0.216-0.549-0.146-0.857,0.044
					c-0.802,0.507-1.368,0.905-1.376,0.952c-0.792,4.13,0.258,5.799,0.258,5.799s7.415,2.304,9.105,0.772
					C155.37,737.3,158.559,735.136,159.686,733.768z"/>
				<path style="fill:#161711;" d="M188.176,737.18l1.287,6.708h6.842c0,0,0.379-0.949,0.953-0.949c0.49,0,1.12,0.949,1.785,0.949
					c1.439,0,3.033,0,3.67,0c1.285,0,13.732,0,13.732,0s0.308-1.41-0.07-1.899c-0.187-0.25-1.34-0.68-2.101-0.899
					c-3.535-0.991-13.646-4.094-15.404-7.47C196.728,729.513,188.176,737.18,188.176,737.18z"/>
				<path style="fill:#E9D6B8;" d="M193.615,511.027l1.639-8.131c0,0,5.774,0.443,6.895-2.666
					c2.268-6.236,0.371-16.201-0.996-18.993c-3.895-7.949-5.543-21.874-23.752-10.803c-6.924,4.213,3.77,24.631,4.568,29.05
					c0.788,4.417-1.572,9.51-1.572,9.51l4.259,3.193L193.615,511.027z"/>
				<path style="fill:#163F59;" d="M172.089,640.798c0,0,2.666,1.163-5.186,38.431c-5.662,26.838-10.499,46.472-12.76,55.361
					c-0.878,3.45-1.859,2.826-1.859,2.826l-7.485,0.837l-3.56-3.09l10.692-60.813L172.089,640.798z"/>
				<path style="fill:#163F59;" d="M189.597,599.061c0,0-17.138,70.962-30.588,102.773c-7.884,18.627-7.956-17.137-7.956-17.137
					l12.249-103.045l35.765-1.733C199.068,579.92,195.015,581.174,189.597,599.061z"/>
				<path style="fill:#163F59;" d="M177.117,580.123c0,0,12.953,91.869,14.311,96.015c4.606,14.026,11.706-4.363,13.331-9.035
					c1.626-4.682,4.337-39.286,3.794-64.537c-0.54-25.252-0.54-25.252-0.54-25.252L177.117,580.123z"/>
				<path style="fill:#163F59;" d="M190.13,653.161c0,0-1.959,10.955-3.587,24.954c-1.198,10.281-1.229,39.641,0.668,60.039
					c0.115,1.245,13.081-2.554,13.081-2.554s4.732-57.081,5.819-69.86C207.194,652.955,198.258,644.029,190.13,653.161z"/>
				<path style="fill:#FEC00F;" d="M160.688,519.011l15.293-6.937l4.221-3.991l16.255-0.392l2.846,4.686l12.602,5.464
					c0,0,3.108,4.888,0.402,23.035c-2.993,20.108-3.628,50.501-3.628,50.501l-47.648,2.298
					C161.031,593.676,165.158,528.771,160.688,519.011z"/>
				<path style="fill:#194866;" d="M196.018,483.573c0,0-2.062-1.266-2.376,0.315c-0.322,1.584,0.792,5.064,1.74,5.383
					c0.949,0.318,1.262,4.59,1.262,4.59l-2.532,4.749h-12.816c0,0-3.959-1.739-4.281-4.59c-0.315-2.851-3.479-22.953-3.479-22.953
					l9.021-4.75c0,0,4.749-2.377,8.076-3.326c5.1-1.458,6.171,1.266,6.011,2.692c-0.157,1.42,1.427,1.584,3.483,1.584
					c2.062,0,4.595,1.58,3.487,2.533c-0.46,0.391,1.584,1.644,0.776,3.154c-1.163,2.16-5.048,2.862-5.368,6.346
					C198.882,480.878,198.228,486.102,196.018,483.573z"/>
			</g>
		</g>
	</g>
</g>
</svg>
