<?xml version="1.0" encoding="utf-8"?>
<!-- Generator: Adobe Illustrator 27.5.0, SVG Export Plug-In . SVG Version: 6.00 Build 0)  -->
<svg version="1.1" id="Layer_1" xmlns="http://www.w3.org/2000/svg" xmlns:xlink="http://www.w3.org/1999/xlink" x="0px" y="0px"
	 viewBox="0 0 3994 2663" style="enable-background:new 0 0 3994 2663;" xml:space="preserve">
<path style="fill:#FEFEFE;" d="M-0.867-0.002h3991.099c2.211,3.496,2.99,6.524,3.173,10.642
	c1.716,37.488,0.234,75.599,0.234,113.157l0.026,220.704v673.423v1233.951l-0.026,299.741c0,20.706,3.095,88.501-0.546,104.598
	c-0.573,2.496-1.509,4.629-2.861,6.787H-0.867V-0.002z"/>
<g>
	<path style="fill:none;" d="M982,1416.222c6.789,0.018,13.577,0.055,20.366,0.111C995.577,1416.277,988.789,1416.24,982,1416.222z"
		/>
	<path style="fill:#A2C6EC;" d="M1097.223,2167.625c0.739,5.537,0.388,6.177,4.548,10.27c6.039,1.576,11.609,1.61,17.78,1.597
		c-0.234-5.955,0.629-7.144-3.729-11.489C1109.521,2166.741,1103.571,2167.222,1097.223,2167.625z"/>
	<path style="fill:#A2C6EC;" d="M1142.671,2179.211c5.929,0.14,11.071-0.78,16.839-1.969c-1.22-5.698-0.713-6.148-5.664-9.734
		c-6.304-0.733-12.449-0.356-18.761-0.036C1137.264,2173.924,1137.108,2175.516,1142.671,2179.211z"/>
	<path style="fill:#A2C6EC;" d="M1134.44,2207.235c1.053-6.764,2.53-13.539,1.852-20.394c-4.036-4.907-6.109-3.961-12.251-4.642
		c-0.356,7.084-2.008,15.567,1.742,21.84C1128.877,2205.755,1130.843,2206.874,1134.44,2207.235z"/>
	<path style="fill:#A2C6EC;" d="M1131.787,2168.437c0.473,0.322,0.97,0.611,1.454,0.918c3.677-8.041,2.962-17.437-0.008-25.595
		c-0.666-1.831-2.133-3.051-3.854-4.008c-0.718-0.398-1.527-0.609-2.291-0.913c-3.415,5.006-4.639,10.023-3.776,16.113
		C1124.183,2161.083,1126.799,2165.004,1131.787,2168.437z"/>
	<path style="fill:#A2C6EC;" d="M984.035,1856.699c5.589-5.472,11.765-13.161,19.364-15.325c6.582,0.645,10.119,4.965,14.735,9.258
		c1.922-2.104,4.109-2.66,6.702-3.701l-21.697-22.087c-9.75,9.763-21.733,20.615-29.204,32.149
		C978.381,1857.781,979.697,1858.306,984.035,1856.699z"/>
	<path style="fill:#A2C6EC;" d="M3127.886,1946.687c10.454-7.308,21.065-14.522,30.427-23.198
		c5.201-4.806,11.573-10.454,11.807-17.944l-2.679-2.728c-29.829-7.906-27.384,20.888-42.181,27.79
		c-0.806,0.37-1.612,0.663-2.419,0.996l-1.898,4.023c1.898,3.199,3.615,5.729,3.849,9.552l2.991,0.179L3127.886,1946.687z"/>
	<path style="fill:#A2C6EC;" d="M3127.886,1946.687l-0.104-1.329l-2.991-0.179l-1.508,3.615
		c-13.497-2.083-30.713-5.927-43.742-0.814c-2.757,3.103-3.901,3.602-3.641,7.994c0.208,3.55,2.549,7.56,5.383,9.591
		c7.048,5.04,17.866,1.227,25.486-0.572c6.736-1.589,15.838-5.362,22.599-3.578l2.341,5.43l2.21-0.645
		C3135.219,1958.998,3131.813,1952.44,3127.886,1946.687z"/>
	<path style="fill:#A2C6EC;" d="M932.504,699.582c-2.588,7.854-5.123,15.643-7.11,23.676c-5.724,2.068-12.649,3.662-17.01,8.036
		c5.232,9.846,15.541,5.498,20.732,20.467c1.399,4.034,2.486,5.321,5.885,7.815c2.713-8.132,4.575-18.256,12.816-22.469
		c4.372-2.234,9.588-2.273,12.114-6.613c-3.937-6.431-11.169-3.841-16.334-8.22C937.404,717.022,940.685,706.448,932.504,699.582z
		 M936.101,740.513c-3.077-1.682-5.706-3.883-8.439-6.057c-0.562-5.628,1.404-7.053,4.379-11.723c3.441,1.5,4.52,2.996,6.707,5.901
		C939.091,734.18,938.524,735.447,936.101,740.513z"/>
	<path style="fill:#FEFEFE;" d="M932.041,722.733c-2.975,4.67-4.941,6.096-4.379,11.723c2.733,2.174,5.362,4.374,8.439,6.057
		c2.424-5.066,2.991-6.332,2.647-11.879C936.561,725.728,935.482,724.233,932.041,722.733z"/>
	<path style="fill:#122E5D;" d="M2251.287,1314.333c-27.344,0.326-54.68,0.993-82.007,2.002l-7.794,1.391l0.005,2.044l-1.56-1.397
		l0.601,1.324c5.604,1.147,12.426,1.763,17.734,3.695c27.197,3.862,55.236,4.086,82.176,8.639c2.497-4.455,3.768-7.672,4.148-12.784
		C2260.526,1314.744,2257.008,1315.225,2251.287,1314.333z"/>
	<path style="fill:#A2C6EC;" d="M3558.647,1802.732c-7.022-0.9-14.719,1.342-20.623,5.05c-10.246,6.41-15.421,18.649-24.81,25.767
		c-15.708,11.913-35.758,20.188-52.454,31.342l0.858,2.354c17.294-5.654,32.195-20.173,49.723-26.854l1.3-0.492
		c9.18-3.539,17.112,0.635,26.37-0.057c7.204-0.541,13.237-6.262,17.84-11.305c5.331-5.802,10.611-11.737,10.325-20.03
		C3564.603,1804.913,3563.25,1803.322,3558.647,1802.732z"/>
	<path style="fill:#345991;" d="M2446.838,1946.211c-11.094-10.236-30.648-11.505-44.704-16.696
		c1.417,13.182,2.567,26.456,4.741,39.537c9.042,4.125,16.062,9.032,23.741,15.318l8.059-16.215l4.093-8.179
		C2445.283,1954.936,2447.816,1951.974,2446.838,1946.211z"/>
	<path style="fill:#F7A952;" d="M3091.79,928.041l-0.026,2.249l-2.627,2.094l0.91,2.367c1.17,1.664,1.274,1.68,2.289,3.755
		c3.667,7.599,1.794,17.307-0.806,24.872c10.09-4.353,36.33-24.911,41.089-34.736c-0.104-0.369-0.156-0.754-0.286-1.105
		c-3.693-9.133-31.805-30.484-40.907-33.86c1.43,5.898,2.601,13.939,2.081,19.975c-0.494,5.765-1.43,6.559-5.669,9.903l-0.494,2.694
		L3091.79,928.041z"/>
	<path style="fill:#A2C6EC;" d="M3284.051,2028.658c-0.078-0.354-0.182-0.707-0.26-1.064c-5.097-21.327-6.216-49.539-26.604-63.442
		c-4.967-1.009-7.958-1.823-12.587,1.124c-0.416,0.264-0.815,0.552-1.196,0.866c-0.382,0.314-0.737,0.649-1.066,1.006
		c-0.347,0.359-0.659,0.737-0.936,1.134c-0.295,0.397-0.563,0.811-0.806,1.24c-0.243,0.43-0.451,0.873-0.624,1.329
		c-0.191,0.456-0.347,0.922-0.468,1.399c-0.122,0.475-0.217,0.956-0.286,1.443c-0.069,0.487-0.104,0.977-0.104,1.469
		c-0.338,21.4,40.465,50.48,39.399,61.53C3282.413,2033.7,3282.699,2033.7,3284.051,2028.658z"/>
	<path style="fill:#BE4B3E;" d="M1367.767,1043.271c-5.022-1.56-10.163-0.785-14.711,1.761
		c-6.621,3.706-11.687,10.967-13.487,18.277c-1.436,5.828-0.978,12.639,2.689,17.609c3.94,5.336,10.707,7.612,17.047,8.27
		c5.597,0.585,10.532-0.648,14.904-4.286c3.903-3.251,7.1-8.301,8.834-13.06l0.892-10.821
		C1380.302,1053.853,1376.029,1045.838,1367.767,1043.271z"/>
	<path style="fill:#A2C6EC;" d="M1003.641,1892.215c12.069-10.616,23.548-21.697,34.983-32.986l-13.788-12.298
		c-2.593,1.04-4.78,1.597-6.702,3.701c1.586,2.822,3.685,4.879,2.944,8.168c-1.576,6.998-12.418,15.38-17.551,20.282
		c-6.291-7.679-12.483-15.341-19.491-22.383c-4.338,1.607-5.654,1.082-10.101,0.294
		C974.987,1865.354,997.019,1885.87,1003.641,1892.215z"/>
	<path style="fill:#FEFEFE;" d="M984.035,1856.699c7.009,7.043,13.201,14.704,19.491,22.383
		c5.133-4.902,15.975-13.284,17.551-20.282c0.741-3.29-1.358-5.347-2.944-8.168c-4.616-4.293-8.153-8.613-14.735-9.258
		C995.8,1843.537,989.623,1851.227,984.035,1856.699z"/>
	<path style="fill:#A2C6EC;" d="M1459.506,1061.23c-24.968,0.112-50.678,1.48-75.571-0.211l-0.892,10.821
		c49.715,1.729,99.826-1.261,149.386,1.071l10.051-13.206C1515.208,1062.406,1486.916,1061.111,1459.506,1061.23z"/>
	<path style="fill:#F4BD61;" d="M1761.054,536.806c4.744,5.602,12.392,8.642,19.64,8.839c6.132,0.169,11.921-1.402,16.259-5.919
		c4.957-5.162,6.205-13.084,5.693-19.983c-0.494-6.655-3.49-13.216-8.751-17.435c-4.972-3.989-11.071-5.635-17.38-4.892
		c-9.146,1.077-13.585,6.496-18.872,13.227l-1.254,12.652C1756.873,528.565,1757.533,532.65,1761.054,536.806z"/>
	<path style="fill:#E76F5D;" d="M1532.01,1808.591c4.239,4.85,10.103,6.192,16.313,6.52c6.244,0.328,12.667-0.939,17.242-5.498
		c4.45-4.434,5.875-11.508,5.417-17.567c-0.645-8.527-4.97-17.557-11.921-22.711c-4.27-3.165-9.435-4.595-14.688-3.477
		c-8.876,1.886-14.857,9.706-19.582,16.816l-0.476,13.51C1526.325,1800.55,1528.84,1804.963,1532.01,1808.591z"/>
	<path style="fill:#E76F5D;" d="M1380.235,2055.316c5.284,4.143,16.735,7.011,23.161,6.005c4.553-0.715,8.059-3.175,10.402-7.118
		c4.013-6.746,4.08-15.44,2.221-22.864c-1.961-7.843-6.749-16.561-14.137-20.459c-3.784-1.995-8.312-2.593-12.337-0.908
		c-6.917,2.897-13.697,10.595-16.849,17.151l-2.489,12.194C1372.487,2044.332,1375.85,2051.881,1380.235,2055.316z"/>
	<path style="fill:#A2C6EC;" d="M3237.604,2112.589l4.421-4.707l-0.702-4.806c-3.095-14.228-10.064-26.219-19.842-37.014
		c-11.313-12.467-23.925-21.023-40.985-21.715c-0.13,7.36-1.222,12.665-3.667,19.611
		C3185.801,2072.176,3235.94,2109.573,3237.604,2112.589z"/>
	<path style="fill:#A2C6EC;" d="M3334.737,2069.776c9.362,3.024,23.951,6.421,33.001,1.178c5.435-3.144,6.892-7.927,8.166-13.713
		c-11.286-23.426-77.082-11.492-87.848-19.075c-0.676-0.476-1.3-1.012-1.95-1.516c-1.144,2.681-2.158,5.336-3.927,7.69
		C3299.941,2048.846,3316.559,2063.904,3334.737,2069.776z"/>
	<path style="fill:#A2C6EC;" d="M3319.003,2145.557c3.017-1.285,4.499-3.342,5.253-6.512c0.962-4.148-0.624-10.35-2.991-13.848
		c-13.939-20.584-54.717-8.665-75.027-13.916c-0.468-0.122-0.936-0.268-1.405-0.4c-0.312,5.417-1.612,7.706-4.811,12.036
		C3260.724,2126.83,3297.028,2154.963,3319.003,2145.557z"/>
	<path style="fill:#A2C6EC;" d="M2332.446,813.865c8.998,9.414,20.035,24.069,31.277,30.216l1.558-0.055
		c9.9-9.911,20.246-19.653,29.735-29.94c-10.873-10.395-21.406-20.792-31.353-32.089
		C2353.068,792.423,2342.242,802.677,2332.446,813.865z M2364.839,830.737c-7.17-4.475-13.781-10.826-20.292-16.256
		c6.702-5.115,12.748-11.37,18.883-17.169c5.937,4.626,11.448,10.571,16.984,15.718
		C2375.709,819.443,2370.347,825.021,2364.839,830.737z"/>
	<path style="fill:#FEFEFE;" d="M2344.546,814.481c6.512,5.43,13.123,11.781,20.292,16.256c5.508-5.716,10.87-11.294,15.575-17.707
		c-5.537-5.147-11.047-11.092-16.984-15.718C2357.294,803.112,2351.248,809.366,2344.546,814.481z"/>
	<path style="fill:#A2C6EC;" d="M2576.186,923.555c7.131,7.96,22.958,29.506,33.194,31.111
		c10.194-10.202,20.233-20.992,30.973-30.588c-8.972-9.791-21.299-27.031-32.611-33.23
		C2597.166,901.696,2586.647,912.598,2576.186,923.555z M2626.986,923.324l-17.372,17.689c-6.632-5.248-12.467-12.181-18.334-18.306
		c5.547-5.742,11.625-10.985,17.528-16.334L2626.986,923.324z"/>
	<path style="fill:#FEFEFE;" d="M2609.614,941.013l17.372-17.689l-18.178-16.951c-5.903,5.349-11.981,10.592-17.528,16.334
		C2597.147,928.832,2602.982,935.765,2609.614,941.013z"/>
	<path style="fill:#F7A952;" d="M2899.424,874.048c0.546-49.996-0.234-100.003,0.598-149.997c-4.811-1.987-6.632-1.243-11.677-0.463
		c4.577,12.249,5.487,233.445,1.613,249.756l6.293-0.375l3.459-3.846c1.872-10.278,2.756-22.716-1.769-32.385
		C2895.341,917.431,2899.216,893.828,2899.424,874.048z"/>
	<path style="fill:#F4BD61;" d="M2899.424,874.048c-0.208,19.78-4.083,43.383-1.482,62.69c18.958-6.143,163.057-2.411,192.105-1.987
		l-0.91-2.367l2.627-2.094l0.026-2.249l-4.447-1.792l0.494-2.694h-189.193c6.918-11.458,2.939-173.179,2.731-199.504h-1.352
		C2899.189,774.045,2899.97,824.052,2899.424,874.048z"/>
	<path style="fill:#A2C6EC;" d="M3406.877,1214.468c7.75-4.52,18.464-9.88,22.053-18.451c-0.988-5.082-1.56-6.621-5.851-9.76
		c-8.738-6.431-52.584-20.581-62.622-19.002l-2.392,0.359c6.605,14.917,18.906,57.049,16.461,72.746
		C3384.486,1235.561,3400.974,1223.734,3406.877,1214.468z M3371.067,1181.276c12.145-0.026,33.287,6.657,43.664,12.811
		c-0.078,0.453-0.104,0.921-0.234,1.36c-1.977,6.47-8.478,10.189-14.017,13.19c-4.863,7.703-13.237,11.999-21.507,15.122
		C3381.989,1213.188,3375.592,1191.047,3371.067,1181.276z"/>
	<path style="fill:#FEFEFE;" d="M3378.973,1223.76c8.27-3.123,16.644-7.42,21.507-15.122c5.539-3.001,12.041-6.72,14.017-13.19
		c0.13-0.439,0.156-0.908,0.234-1.36c-10.377-6.153-31.52-12.837-43.664-12.811
		C3375.592,1191.047,3381.989,1213.188,3378.973,1223.76z"/>
	<path style="fill:#A2C6EC;" d="M2454.06,1728.95c-4.725-0.661-9.654-0.507-14.402-0.195c-9.979,5.063-16.805,10.954-20.321,22.154
		c-2.4,7.638-1.532,15.632,2.346,22.612c3.708,6.671,9.96,12.317,17.351,14.54c5.752,1.735,12.535,1.147,18.475,0.806
		c9.778-6.013,17.07-11.417,20.238-23.203c2.205-8.215,0.905-16.888-3.919-23.925
		C2469.375,1735.249,2461.921,1730.05,2454.06,1728.95z M2470.183,1764.04c-2.268,9.409-8.933,12.826-16.607,17.44
		c-3.383-0.174-7.196-0.216-10.483-1.058c-6.075-1.558-11.666-5.831-14.711-11.331c-0.319-0.571-0.609-1.155-0.869-1.753
		c-0.26-0.598-0.49-1.208-0.692-1.828c-0.2-0.622-0.369-1.253-0.507-1.891s-0.244-1.281-0.317-1.93
		c-0.074-0.648-0.117-1.298-0.127-1.95c-0.009-0.654,0.014-1.306,0.068-1.956c0.055-0.65,0.143-1.296,0.263-1.937
		c0.118-0.641,0.268-1.276,0.45-1.904c2.736-9.62,8.944-13.528,17.258-17.713c1.885,0.036,3.766,0.086,5.641,0.27
		c0.864,0.094,1.72,0.232,2.57,0.414c0.85,0.184,1.687,0.411,2.512,0.681s1.634,0.583,2.426,0.939
		c0.792,0.355,1.564,0.751,2.317,1.186c0.75,0.437,1.477,0.911,2.179,1.422c0.7,0.511,1.373,1.058,2.018,1.641
		c0.645,0.583,1.258,1.197,1.839,1.844c0.579,0.647,1.124,1.322,1.633,2.026C2470.782,1751.815,2471.66,1757.903,2470.183,1764.04z"
		/>
	<path style="fill:#FEFEFE;" d="M2465.409,1744.626c-0.581-0.646-1.194-1.261-1.839-1.844c-0.645-0.583-1.318-1.13-2.018-1.641
		c-0.702-0.511-1.429-0.985-2.179-1.422c-0.753-0.435-1.525-0.83-2.317-1.186c-0.792-0.355-1.601-0.668-2.426-0.939
		s-1.663-0.498-2.512-0.681c-0.85-0.182-1.706-0.32-2.57-0.414c-1.875-0.185-3.755-0.234-5.641-0.27
		c-8.314,4.184-14.522,8.093-17.258,17.713c-0.182,0.628-0.332,1.262-0.45,1.904c-0.12,0.641-0.207,1.287-0.263,1.937
		c-0.054,0.65-0.076,1.302-0.068,1.956c0.01,0.652,0.053,1.302,0.127,1.95c0.073,0.648,0.178,1.292,0.317,1.93
		s0.308,1.268,0.507,1.891c0.201,0.621,0.432,1.23,0.692,1.828c0.26,0.598,0.55,1.182,0.869,1.753
		c3.045,5.5,8.636,9.773,14.711,11.331c3.287,0.843,7.1,0.884,10.483,1.058c7.674-4.614,14.339-8.031,16.607-17.44
		c1.477-6.137,0.598-12.225-3.142-17.388C2466.532,1745.948,2465.988,1745.273,2465.409,1744.626z"/>
	<path style="fill:#A2C6EC;" d="M3112.074,1897.957c10.766-7.999,30.947-19.008,33.053-33.659c0.26-1.914-0.156-3.695-0.546-5.555
		c-3.355-2.908-3.667-3.638-8.088-3.1c-7.49,0.913-15.525,6.897-19.764,12.956c-3.667,5.243-5.799,11.313-9.102,16.719
		c-3.381-10.075-41.948-83.208-47.357-87.023c-5.409-1.157-8.426-1.75-13.679,0.263c-3.589,4.208-5.409,6.982-4.889,12.927
		c0.65,7.1,4.265,14.615,9.908,19.068c6.969,5.485,16.384,7.456,24.81,9.419c8.686,10.831,27.67,38.171,26.942,52.108
		c-10.662-3.656-27.02-10.153-37.942-5.058c-2.965,1.384-3.693,3.253-5.435,5.909c0.676,6.036,1.508,9.661,6.761,13.625
		c8.348,6.314,17.97,5.674,27.645,3.729c5.305-1.066,10.558-2.195,15.265-4.923c5.435,8.442,10.871,20.134,11.286,30.266
		l1.898-4.023C3123.985,1920.983,3116.417,1907.476,3112.074,1897.957z"/>
	<path style="fill:#A2C6EC;" d="M1380.414,852.991c7.495,6.166,18.667,9.9,28.3,8.821c6.579-0.739,12.699-4.195,18.446-7.313
		c4.473-5.805,8.192-11.835,9.227-19.242c1.386-9.901-2.226-20.391-8.603-27.972c-5.758-6.842-14.194-11.88-23.281-12.124
		c-9.154-0.247-17.668,4.278-24.089,10.499c-6.613,7.898-10.808,17.239-10.298,27.813
		C1370.5,841.444,1374.323,847.979,1380.414,852.991z M1383.059,815.815c6.353-6.083,11.586-11.183,21.067-10.938
		c7.128,0.182,14.407,3.462,18.99,8.964c0.525,0.642,1.017,1.306,1.474,1.995c0.46,0.69,0.884,1.4,1.274,2.13
		c0.39,0.732,0.743,1.481,1.058,2.247c0.317,0.765,0.596,1.543,0.835,2.335c0.241,0.794,0.442,1.597,0.603,2.408
		c0.161,0.813,0.283,1.631,0.364,2.455c0.082,0.825,0.122,1.652,0.122,2.481c0,0.827-0.04,1.653-0.12,2.478
		c-0.564,6.026-3.459,10.733-6.954,15.507c-7.609,3.88-15.372,5.838-23.85,3.573c-6.34-1.695-11.939-5.453-14.959-11.398
		C1378.809,831.869,1380.448,824.052,1383.059,815.815z"/>
	<path style="fill:#FEFEFE;" d="M1397.924,851.451c8.478,2.265,16.241,0.307,23.85-3.573c3.495-4.775,6.39-9.482,6.954-15.507
		c0.08-0.825,0.12-1.651,0.12-2.478c0-0.829-0.041-1.656-0.122-2.481c-0.081-0.824-0.203-1.642-0.364-2.455
		c-0.161-0.811-0.362-1.614-0.603-2.408c-0.239-0.792-0.517-1.571-0.835-2.335c-0.316-0.766-0.668-1.515-1.058-2.247
		c-0.39-0.73-0.815-1.44-1.274-2.13c-0.458-0.688-0.949-1.353-1.474-1.995c-4.582-5.503-11.861-8.782-18.99-8.964
		c-9.482-0.245-14.714,4.855-21.067,10.938c-2.611,8.236-4.25,16.053-0.094,24.238
		C1385.984,845.998,1391.583,849.756,1397.924,851.451z"/>
	<path style="fill:#4494DA;" d="M2890.998,1029.22l0.078,101.857l0.026,161.044c-0.052,26.89,1.014,54.381-0.442,81.211
		c-0.234,4.468-0.65,7.947-2.861,11.9c4.317,0.811,6.293,2.067,10.142-0.226c1.04-2.195,1.794-4.304,2.159-6.72
		c2.054-13.253,0.468-29.158,0.468-42.681v-96.297l0.13-168.167c0.026-27.988,1.274-56.63-0.078-84.548
		c-0.286-6.301-0.494-8.699-4.369-13.624l-6.293,0.375C2892.194,991.537,2890.972,1010.883,2890.998,1029.22z"/>
	<path style="fill:#A2C6EC;" d="M1431.674,523.702l324.715-0.406l1.254-12.652c-110.517,2.411-221.747-0.06-332.348,0.195
		l-1.124,9.224C1426.736,522.37,1428.319,522.963,1431.674,523.702z"/>
	<path style="fill:#A2C6EC;" d="M2203.155,677.633c28.061,7.131,82.774,3.074,113.295,3.087
		c93.078,0.042,186.496-2.12,279.524-0.193l0.096-13.44c-86.347,0.572-172.694,0.652-259.042,0.239
		c-33.298-0.026-88.93-4.543-120.324,2.907C2210.998,672.279,2207.337,672.942,2203.155,677.633z"/>
	<path style="fill:#F4BD61;" d="M939.44,2039.237l286.715-0.328c43.331-0.044,102.793-3.615,144.052,0.408l2.489-12.194
		c-62.643,0.533-125.341-0.538-187.999-0.346c-76.915,0.236-154.101,1.581-230.984-0.307
		C948.336,2030.403,943.627,2033.955,939.44,2039.237z"/>
	<path style="fill:#F4BD61;" d="M2667.451,1550.43c6.944,2.38,5.045,11.162,13.575,6.92c2.99-1.485,6.891-4.002,9.076-6.533
		c5.019-2.039,13.029-4.195,15.941-9.092c-6.658-5.071-22.157-16.477-30.401-17.689l-0.312,2.034
		c-0.91,5.638-1.456,8.746-5.669,12.959c-7.36,3.506-248.752,3.37-276.526,2.153c-7.989-0.348-15.416-0.975-22.974-3.729
		c-16.178-5.898-29.982-17.234-45.396-24.674l-0.065,64.185c16.288-8.343,35.459-22.201,53.265-25.369
		C2391.638,1549.161,2661.288,1548.318,2667.451,1550.43z"/>
	<path style="fill:#91A3BC;" d="M3114.311,703.512c-1.04,5.75-9.024,13.903-7.36,17.988c8.088,0.057,15.76-0.052,22.807-4.575
		c6.008-3.87,10.012-9.726,11.131-16.777c5.123-32.206,1.534-70.104,1.508-102.838c-0.026-28.406,2.574-59.972-0.962-88.066
		c-0.468-3.732-1.977-6.629-4.265-9.588c-5.435-6.962-12.535-9.393-20.961-10.228C3116.911,518.422,3121.28,689.19,3114.311,703.512
		z"/>
	<path style="fill:#4494DA;" d="M2884.185,1755.835c5.305,10.974,4.785,161.343,0.104,176.465
		c-2.627,8.387-8.374,15.932-16.28,19.876c-0.962,0.468-1.925,0.884-2.886,1.298c-5.149,3.342-10.143,4.603-16.176,5.094
		c-43.326,3.521-88.836,0.629-132.422,0.481c-91.256-0.723-182.509-0.414-273.756,0.926l-4.093,8.179l261.544-0.208
		c48.423,0.221,98.276,2.957,146.595-0.091c7.464-0.473,16.332-1.282,21.48-7.18c1.925-0.471,3.693-0.9,5.488-1.781
		c9.024-4.455,15.551-13.362,19.01-22.617c5.591-15.016,6.944-167.647,1.274-180.249l-2.756-2.304L2884.185,1755.835z"/>
	<path style="fill:#A2C6EC;" d="M463.303,1338.193c0.271,1.385,0.61,2.753,1.019,4.104c0.407,1.351,0.882,2.678,1.423,3.981
		c0.539,1.304,1.143,2.577,1.81,3.82c0.667,1.243,1.396,2.45,2.184,3.62c0.787,1.172,1.631,2.301,2.533,3.386
		c0.9,1.087,1.852,2.126,2.855,3.116c1.004,0.992,2.055,1.93,3.155,2.816c1.098,0.888,2.237,1.717,3.417,2.489
		c8.585,5.667,18.516,7.742,28.721,7.326c13.398-2.973,23.889-7.134,31.665-19.083c0.804-1.241,1.547-2.52,2.226-3.836
		c0.678-1.316,1.288-2.661,1.831-4.036c0.544-1.376,1.019-2.776,1.425-4.2c0.404-1.425,0.737-2.866,0.999-4.322
		c0.26-1.456,0.448-2.922,0.564-4.398c0.114-1.475,0.156-2.953,0.125-4.434c-0.031-1.479-0.136-2.953-0.315-4.424
		c-0.179-1.468-0.43-2.925-0.754-4.369c-0.281-1.363-0.628-2.709-1.043-4.039c-0.414-1.328-0.892-2.633-1.433-3.914
		c-0.543-1.283-1.146-2.536-1.81-3.758s-1.387-2.409-2.169-3.56c-0.78-1.153-1.616-2.264-2.507-3.334
		c-0.889-1.07-1.829-2.093-2.819-3.069c-0.992-0.978-2.028-1.905-3.108-2.78c-1.082-0.875-2.204-1.696-3.365-2.463
		c-8.369-5.495-17.585-7.258-27.499-6.808c-13.619,2.759-24.815,7.809-32.806,19.699c-0.787,1.177-1.514,2.391-2.179,3.641
		c-0.667,1.25-1.271,2.529-1.81,3.839c-0.539,1.309-1.012,2.642-1.42,4c-0.407,1.356-0.746,2.729-1.017,4.119
		c-0.27,1.391-0.472,2.79-0.603,4.2c-0.132,1.41-0.193,2.823-0.185,4.239c0.009,1.417,0.087,2.83,0.234,4.239
		C462.797,1335.409,463.015,1336.806,463.303,1338.193z M475.284,1321.105c2.79-11.919,10.86-17.336,20.404-23.587
		c4.512-0.356,9.336-0.882,13.843-0.362c9.255,1.069,18.475,6.624,23.972,14.098c5.222,7.1,6.879,15.918,5.017,24.492
		c-2.728,12.553-11.042,18.776-21.317,25.015c-5.409,0.679-11.235,1.649-16.628,0.536c-8.319-1.721-16.527-6.715-21.182-13.897
		C474.293,1339.527,473.162,1330.163,475.284,1321.105z"/>
	<path style="fill:#FEFEFE;" d="M500.575,1361.297c5.394,1.113,11.219,0.143,16.628-0.536c10.275-6.239,18.589-12.462,21.317-25.015
		c1.862-8.574,0.205-17.393-5.017-24.492c-5.498-7.474-14.717-13.029-23.972-14.098c-4.507-0.52-9.331,0.005-13.843,0.362
		c-9.544,6.252-17.614,11.669-20.404,23.587c-2.122,9.058-0.991,18.422,4.109,26.294
		C484.048,1354.582,492.255,1359.575,500.575,1361.297z"/>
	<path style="fill:#A2C6EC;" d="M3165.334,2130.083c4.291-12.545-3.511-25.169-2.445-37.469c0.442-4.99,6.632-8.179,6.632-14.909
		c-4.265-2.489-6.996-1.396-11.833-0.944c0.65-4.541,0.598-5.953,3.485-9.669c5.591,0.185,9.336-0.018,14.433-2.504
		c0.416-0.2,0.832-0.419,1.222-0.629c2.445-6.946,3.537-12.251,3.667-19.611c-5.929-4.374-21.611-5.742-29.257-7.422
		c0.052-8.852-6.085-22.542-3.589-30.403c2.262-7.191,37.916-13.406,45.38-25.577c0.52-5.62,0.078-6.657-2.366-11.796
		c-1.977-1.103-4.161-2.892-6.424-2.876c-11.495,0.086-26.76,8.775-34.796,16.696c-2.861,2.837-5.513,5.118-8.868,7.349
		c-0.364,0.239-0.729,0.471-1.093,0.707c2.393-8.689-1.768-17.19-5.565-24.825l-2.21,0.645c3.537,12.137,8.686,26.797,6.527,39.425
		c-0.078,0.471-0.156,0.947-0.208,1.422c-7.698-7.318-25.278-12.012-35.68-11.924c-4.993,0.042-11.599,1.17-15.291,4.86
		c-2.679,2.66-2.367,3.727-2.445,7.253c4.265,6.998,10.584,9.435,18.23,11.271c12.587,3.022,26.682,1.035,39.529,0.317
		c5.643,9.307,12.483,40.325,10.663,50.886c-0.26,1.42-0.858,2.78-1.378,4.109c-12.691-8.725-31.883-17.255-47.695-15.237
		c-4.343,0.554-9.752,2.988-12.015,6.972c-2.392,4.275-1.404,6.582-0.13,10.844c6.761,6.923,13.107,7.966,22.417,8.145
		c8.192,0.159,35.472-3.748,40.621,0.05c5.695,12.285,11.313,43.827,6.735,56.144c-0.156,0.354-0.312,0.697-0.442,1.045
		c-8.634-7.193-24.29-13.648-35.654-12.857c-7.542,0.528-13.107,3.118-18.074,8.751c-1.17,5.006-1.508,4.777,1.3,9.503
		c17.892,11.248,38.567-3.061,55.861,3.508c0.52,3.376,0.754,5.201-0.286,8.559
		C3168.741,2151.315,3164.684,2139.7,3165.334,2130.083z"/>
	<path style="fill:#A2C6EC;" d="M1178.92,1758.722c1.989,9.419,5.885,17.598,12.733,24.438c5.885,5.875,14.332,10.673,22.615,11.945
		c31.68,4.858,90.649,0.627,125.268,0.432c60.391-0.341,121.102,2.01,181.425,0.814c1.121-0.023,2.239-0.088,3.355-0.167
		l0.476-13.51c-67.6,1.28-135.382,0.393-203,0.437c-31.891,0.021-72.869,3.924-103.914-1.602
		c-6.808-1.212-12.413-4.613-17.208-9.531c-4.364-4.476-6.426-8.525-7.622-14.649c-3.69-18.93-1.54-41.357-1.443-60.633
		c0.354-31.686,0.256-63.369-0.294-95.052l-13.95-0.133C1177.969,1639.779,1172.078,1726.376,1178.92,1758.722z"/>
	<path style="fill:#010611;" d="M694.168,2257.824c0.931-43.204,3.498-84.615,11.336-127.158
		c11.203-7.084,21.965-14.42,32.622-22.313c31.639-32.471,128.503-66.097,173.387-80.923c18.646-6.161,39.001-10.647,56.797-18.805
		c-77.526,17.825-165.845,46.358-229.827,95.299c-10.46,7.508-21.359,14.293-32.25,21.148
		c7.914-44.137,22.427-86.673,36.822-129.013l91.819-191.406l-1.745-1.266l0.369-3.55l-0.172-0.013
		c-8.592,11.471-14.959,26.347-21.697,39.045c-27.153,51.164-50.158,103.735-72.725,157.039
		c-27.678,65.335-42.176,135.369-48.215,205.933c-8.493-60.453-19.351-118.428-39.851-176.13
		c-38.029-102.424-82.738-202.136-126.568-302.17c-7.875-17.973-31.93-78.468-41.934-89.908
		c-1.129,10.6,148.902,336.272,162.992,391.971c15.302,46.415,28.263,91.348,35.074,139.948
		c-15.856-21.213-28.679-30.729-53.12-40.889c-29.185-9.125-58.665-17.17-88.438-24.136c-29.775-6.964-59.764-12.83-89.967-17.598
		c29.283,12.059,66.596,16.228,97.725,23.616c27.415,6.507,53.918,15.552,80.962,23.296c22.131,9.003,42.816,22.635,52.204,45.643
		c9.432,23.119,8.101,53.694,9.612,78.431l1.488,5.097L694.168,2257.824z"/>
	<path style="fill:#FEFEFE;" d="M3176.829,2063.958c-0.39,0.211-0.806,0.429-1.222,0.629c-5.097,2.486-8.842,2.689-14.433,2.504
		c-2.887,3.716-2.835,5.129-3.485,9.669c4.837-0.453,7.568-1.545,11.833,0.944c0,6.73-6.189,9.919-6.632,14.909
		c-1.066,12.301,6.736,24.924,2.445,37.469l5.461,3.118c11.417-9.661,26.11-20.144,42-18.911c2.809,0.218,4.655,1.269,7.021,2.697
		c1.248,3.675,1.846,4.39-0.104,8.075c-6.579,12.293-31.467,18.282-44.34,21.483c-2.323,0.579-4.664,1.092-7.022,1.54
		c4.551,8.499,7.1,29.774,4.239,39.167c-0.182,0.674-0.442,1.334-0.676,2.002c3.199,5.183,2.757,5.407,1.664,11.463
		c6.501,6.132,22.001,3.825,30.713,3.651c1.092-1.056,2.289-2.247,3.146-3.508c3.823-5.68,30.739-82.696,30.167-88.272
		C3235.94,2109.573,3185.801,2072.176,3176.829,2063.958z"/>
	<path style="fill:#A2C6EC;" d="M3166.608,2204.442c3.152-0.551,3.69-1.051,5.169-3.14l-0.462,0.15l0.962-0.861
		c-0.181,0.258-0.344,0.49-0.5,0.711l1.801-0.584c1.092-6.057,1.534-6.281-1.664-11.463c0.234-0.668,0.494-1.329,0.676-2.002
		c2.861-9.393,0.312-30.669-4.239-39.167c2.358-0.447,4.699-0.96,7.022-1.54c12.873-3.201,37.76-9.19,44.34-21.483
		c1.95-3.685,1.352-4.4,0.104-8.075c-2.367-1.428-4.213-2.478-7.021-2.697c-15.89-1.233-30.583,9.25-42,18.911l-5.461-3.118
		c-0.65,9.617,3.406,21.231-1.04,29.808c3.563,8.236,4.811,18.511,3.875,27.408l0.832,7.745c-13.835,8.075-35.68-6.782-50.113,6.475
		c-0.572,0.538-1.197,1.038-1.794,1.573c-0.39,0.356-0.754,0.733-1.144,1.097
		C3131.527,2204.439,3151.551,2207.087,3166.608,2204.442z"/>
	<path style="fill:#F9B49B;" d="M2085.351,790.639c7.076,4.239,14.571,11.042,21.986,14.033
		c6.959-14.964,8.704-32.143,13.148-48.002c-29.093-8.748-51.473-26.734-72.073-48.27c-7.417-7.752-14.379-15.983-23.166-22.227
		l-2.143-0.206c-1.287,16.545-0.018,39.18-5.396,54.615l-2.406,1.82c17.421,6.52,32.109,13.068,46.746,24.935
		C2070.4,774.666,2077.908,782.393,2085.351,790.639z"/>
	<path style="fill:#BE4B3E;" d="M2070.598,665.494c-7.412,9.929-14.66,19.114-27.806,21.08c-5.898,0.882-11.674,0.302-17.546-0.4
		c8.787,6.244,15.749,14.475,23.166,22.227c20.599,21.536,42.98,39.521,72.073,48.27l7.669-23.905
		c-10.764-3.956-21.252-8.709-30.229-15.97C2081.473,703.486,2072.855,686.335,2070.598,665.494z"/>
	<path style="fill:#A2C6EC;" d="M2776.078,2125.735c-10.116-6.814-22.001-8.946-33.99-8.026
		c-15.604,3.035-27.332,7.752-36.46,21.432c-7.802,11.669-10.324,26.661-7.386,40.327c2.73,12.662,10.142,23.772,21.247,30.562
		c1.162,0.712,2.341,1.38,3.537,2.002c1.214,0.622,2.445,1.197,3.693,1.724c1.248,0.529,2.514,1.008,3.797,1.438
		s2.583,0.81,3.901,1.139c1.318,0.329,2.644,0.608,3.979,0.835c1.335,0.229,2.679,0.405,4.031,0.528
		c1.352,0.125,2.704,0.197,4.057,0.216c1.353,0.021,2.705-0.011,4.057-0.096c15.604-2.634,28.893-7.575,38.489-20.883
		c7.906-11.014,10.585-24.942,8.088-38.203C2794.594,2145.391,2787.416,2133.391,2776.078,2125.735z M2781.799,2190.118
		c-6.554,9.388-16.384,14.384-27.358,16.483c-5.019,2.276-11.417,1.605-16.722,0.679c-9.206-1.604-16.721-7.292-21.767-15.055
		c-0.815-1.24-1.569-2.517-2.262-3.831c-0.676-1.316-1.292-2.661-1.846-4.036c-0.555-1.377-1.04-2.778-1.457-4.203
		c-0.416-1.425-0.754-2.867-1.014-4.325c-0.277-1.46-0.477-2.929-0.598-4.408c-0.121-1.477-0.173-2.958-0.156-4.442
		c0.035-1.482,0.139-2.96,0.312-4.434s0.416-2.935,0.728-4.385c3.225-14.397,12.119-21.187,23.691-28.763
		c12.145-1.402,21.845-2.442,33.001,3.977c10.298,5.927,17.84,16.386,20.467,27.936
		C2789.055,2171.149,2787.676,2181.752,2781.799,2190.118z"/>
	<path style="fill:#FEFEFE;" d="M2766.352,2133.376c-11.157-6.418-20.857-5.378-33.001-3.977
		c-11.573,7.576-20.467,14.366-23.691,28.763c-0.312,1.449-0.555,2.911-0.728,4.385s-0.277,2.952-0.312,4.434
		c-0.018,1.484,0.035,2.965,0.156,4.442c0.122,1.479,0.321,2.948,0.598,4.408c0.26,1.458,0.598,2.899,1.014,4.325
		c0.416,1.425,0.902,2.826,1.457,4.203c0.555,1.375,1.17,2.72,1.846,4.036c0.694,1.314,1.448,2.591,2.262,3.831
		c5.045,7.763,12.561,13.45,21.767,15.055c5.305,0.926,11.703,1.597,16.722-0.679c10.975-2.099,20.805-7.094,27.358-16.483
		c5.877-8.366,7.255-18.969,5.019-28.806C2784.192,2149.762,2776.65,2139.303,2766.352,2133.376z"/>
	<path style="fill:#4494DA;" d="M808.698,2302.875c7.383,0.855,14.743,0.247,22.144-0.12c0.047-13.967,0.232-27.932,0.554-41.896
		c-19.686-0.606-128.097,3.261-137.228-3.035l-3.303,1.188l-1.488-5.097l-1.807,4.426c-12.374,4.85-35.904,2.125-49.708,2.226
		l-0.195,41.032C694.006,2302.045,752.585,2299.033,808.698,2302.875z"/>
	<path style="fill:#A2C6EC;" d="M2387.708,369.11c10.811,5.154,22.451,5.675,34.117,4.023c15.492-6.168,28.24-14.865,35.168-30.609
		c0.635-1.456,1.195-2.94,1.68-4.45c0.485-1.512,0.894-3.044,1.225-4.598c0.333-1.552,0.587-3.116,0.762-4.694
		c0.177-1.578,0.274-3.161,0.291-4.749c0.017-1.586-0.045-3.17-0.187-4.751c-0.14-1.581-0.36-3.152-0.658-4.712
		c-0.298-1.559-0.673-3.099-1.126-4.621c-0.452-1.522-0.979-3.017-1.581-4.486c-5.219-13.083-15.481-23.09-28.391-28.565
		c-9.703-4.117-18.394-4.091-28.789-3.646c-15.682,4.92-27.936,10.725-35.659,25.969c-6.359,12.548-6.749,28.068-2.255,41.274
		C2366.654,353.274,2375.524,363.302,2387.708,369.11z M2374.066,303.822c6.816-12.657,17.078-17.021,30.11-20.592
		c5.105,0.312,10.415,0.554,15.356,1.969c11.133,3.186,21.372,10.033,26.75,20.529c0.539,1.04,1.026,2.104,1.462,3.191
		c0.435,1.087,0.818,2.192,1.147,3.316c0.328,1.124,0.601,2.261,0.819,3.412c0.218,1.15,0.381,2.308,0.489,3.475
		c0.106,1.167,0.156,2.335,0.151,3.505c-0.007,1.172-0.07,2.341-0.19,3.506c-0.12,1.165-0.296,2.321-0.528,3.469
		c-0.23,1.148-0.517,2.282-0.858,3.402c-4.761,15.445-16.209,23.509-29.876,30.593c-9.094,0.681-17.723,0.518-26.104-3.607
		c-1.25-0.617-2.465-1.295-3.646-2.034c-1.183-0.739-2.325-1.534-3.428-2.387c-1.103-0.851-2.16-1.755-3.173-2.712
		c-1.012-0.959-1.976-1.964-2.889-3.017c-0.912-1.052-1.77-2.148-2.574-3.287c-0.804-1.139-1.55-2.315-2.237-3.526
		c-0.687-1.214-1.312-2.457-1.875-3.732c-0.565-1.274-1.064-2.574-1.498-3.898C2368.123,325.03,2368.867,313.473,2374.066,303.822z"
		/>
	<path style="fill:#FEFEFE;" d="M2372.971,339.294c0.563,1.274,1.188,2.518,1.875,3.732c0.687,1.212,1.432,2.387,2.237,3.526
		c0.804,1.139,1.663,2.235,2.574,3.287c0.914,1.052,1.877,2.058,2.889,3.017c1.012,0.957,2.07,1.861,3.173,2.712
		c1.103,0.853,2.245,1.649,3.428,2.387c1.181,0.739,2.396,1.417,3.646,2.034c8.382,4.125,17.01,4.288,26.104,3.607
		c13.666-7.084,25.114-15.148,29.876-30.593c0.342-1.12,0.628-2.254,0.858-3.402c0.232-1.148,0.408-2.304,0.528-3.469
		c0.119-1.165,0.183-2.334,0.19-3.506c0.005-1.17-0.045-2.339-0.151-3.505c-0.107-1.167-0.271-2.325-0.489-3.475
		c-0.219-1.151-0.491-2.288-0.819-3.412c-0.329-1.123-0.712-2.229-1.147-3.316c-0.435-1.087-0.922-2.151-1.462-3.191
		c-5.378-10.496-15.616-17.343-26.75-20.529c-4.941-1.415-10.251-1.657-15.356-1.969c-13.032,3.571-23.293,7.934-30.11,20.592
		c-5.199,9.651-5.942,21.208-2.593,31.574C2371.906,336.72,2372.406,338.02,2372.971,339.294z"/>
	<path style="fill:#E76F5D;" d="M448.875,2082.93c30.203,4.768,60.193,10.634,89.967,17.598
		c29.773,6.966,59.253,15.012,88.438,24.136c-6.361-13.838-12.329-24.284-24.979-33.197
		c-43.276-30.489-115.516-21.205-164.204-12.454l-3.93,1.984c14.691,19.463,116.54,61.545,143.547,65.134
		c14.561,1.935,29.225,0.572,41.18-8.655c3.074-2.333,5.962-4.879,8.665-7.635c-27.044-7.745-53.546-16.789-80.962-23.296
		C515.471,2099.157,478.158,2094.989,448.875,2082.93z"/>
	<path style="fill:#A2C6EC;" d="M3455.716,1824.316c-4.239-0.736-7.307-0.247-10.896,2.328c-8.348,5.966-9.7,23.361-10.688,32.57
		c-0.78,7.23,1.04,12.634,3.797,19.281l-0.572,1.792c-13.159,10.129-28.347,24.872-43.898,30.799
		c4.213-13.666,1.586-39.217-5.097-52.059c-1.3-2.468-2.757-3.617-5.045-5.071c-5.747,0.861-8.712,3.441-12.17,8.254
		c-4.785,6.642-6.398,14.241-4.655,22.243c2.653,12.064,8.556,22.048,14.849,32.437c1.04,1.727,0.676,1.298,1.17,3.831
		c-4.083,12.467-27.072,30.253-36.876,39.651c-7.828-13.258,1.794-58.713-23.379-68.869c-5.331-0.195-9.232,0.746-13.393,4.275
		c-3.147,2.679-4.369,6.741-4.473,10.767c-0.52,19.694,15.447,42.038,28.737,55.208c0.338,2.697,0.598,4.351,0,7.037l7.724-1.381
		c-2.029,4.962-4.161,6.926-8.374,10.166c14.329,7.191,23.847,20.178,40.439,23.853c10.455,2.317,23.353,1.888,32.533-3.966
		c1.3-2.567,2.419-3.446,1.846-6.403c-5.149-26.399-44.756-15.866-57.239-26.214c-0.52-0.432-1.014-0.905-1.534-1.358
		c10.792-8.397,31.936-26.835,37.318-39.178c19.609,8.044,36.747,27.553,59.814,27.098c3.771-0.075,8.114-1.573,10.636-4.499
		c3.121-3.615,3.485-5.742,3.147-10.298c-6.735-8.785-17.736-14.358-27.722-18.612c-7.125-0.172-20.908,1.087-26.656-2.702
		c1.717-12.41,23.588-18.659,30.635-28.588c0.468-0.653,0.91-1.326,1.353-1.99c10.428,0.476,14.589,5.778,23.379,10.54
		c9.622,5.217,24.992,10.821,35.94,7.482c3.303-3.165,4.967-5.113,5.072-9.95c0.468-19.354-33.73-13.466-42.364-23.018l2.548-2.528
		l-0.858-2.354C3454.104,1853.175,3464.35,1836.864,3455.716,1824.316z"/>
	<path style="fill:#061736;" d="M1551.114,2443.262c2.949-0.026,5.493-1.191,7.51-3.381c3.105-3.368,6.452-9.021,5.766-13.768
		c-0.239-1.651-1.329-3.638-2.018-5.092c-73.43-77.524-149.732-152.618-222.52-230.719c-5.175-1.805-8.808-2.254-13.942,0.055
		c-5.131,2.307-8.031,4.902-10.194,10.072c-0.245,8.584,5.425,13.817,10.959,19.655c38.216,40.312,76.967,80.553,116.124,119.937
		c26.245,26.401,54.498,52.137,78.522,80.569C1528.104,2427.253,1541.195,2443.353,1551.114,2443.262z"/>
	<path style="fill:#E76F5D;" d="M911.512,2027.43c-44.884,14.826-141.748,48.451-173.387,80.923
		c6.416,4.244,13.648,8.462,20.943,10.938c69.306,23.504,123.78-52.183,178.84-79.328c0.507-0.25,1.022-0.484,1.532-0.725
		c4.187-5.282,8.897-8.834,14.272-12.766c8.22-5.729,16.841-11.136,23.288-18.919l2.554-2.062
		c-10.41-7.224-84.485,0.583-101.821,3.688c-44.571,7.981-101.361,25.106-128.121,64.037c-6.567,9.555-10.327,19.06-11.13,30.71
		c63.982-48.941,152.301-77.474,229.827-95.299C950.513,2016.784,930.158,2021.27,911.512,2027.43z"/>
	<path style="fill:#A2C6EC;" d="M2000.735,667.226c-27.231,2.915-55.39,1.799-82.769,1.831l-127.998,0.016l-407.497-0.169
		c-34.489,0.007-68.976-0.256-103.462-0.788c-20.737-0.271-42.832-2.143-63.392,0.577c-7.526,0.993-12.787,3.149-17.796,9.128
		c-4.733,5.646-6.434,12.095-7.113,19.271c-3.344,35.373-0.741,72.681-0.699,108.299l-0.135,209.449
		c-0.115,41.134,1.347,83.292-1.977,124.274l15.591,14.558c-1.787-48.613-3.511-450.149,3.402-468.241
		c24.62-8.993,224.878-4.379,269.863-4.398l538.47-0.645l-12.696-13.359L2000.735,667.226z"/>
	<path style="fill:#E76F5D;" d="M833.325,1799.824l0.172,0.013l-0.369,3.55l1.745,1.266l-91.819,191.406
		c15.809,0.494,27.348-3.082,39.981-12.795c55.673-42.813,73.347-161.673,81.599-226.709
		c-53.583,30.292-108.575,84.225-128.459,143.357c-10.725,31.886-12.709,65.353,2.728,95.996
		c22.568-53.304,45.573-105.875,72.725-157.039C818.367,1826.171,824.733,1811.295,833.325,1799.824z"/>
	<path style="fill:#559BB5;" d="M2887.799,1385.233c-35.966,5.05-138.794-6.312-161.574,5.997
		c1.612,5.152,2.054,10.093,6.476,13.378c58.331,3.727,118.925,0.081,177.49-0.008l347.491-0.029
		c2.237,3.643,2.965,6.585,3.199,10.811c3.771,75.061,0.884,151.788,1.144,227.024c0.078,22.995,3.459,84.618-0.416,102.804
		c-0.52,2.502-1.352,4.71-2.549,6.954c8.348,0.042,17.034,0.572,25.356-0.068c3.251-2.039,4.681-2.975,5.461-6.897
		c3.979-20.051-0.13-104.026-0.338-130.092c-0.598-70.692,2.262-142.018-0.312-212.601c-0.234-6.35-0.364-11.253-4.161-16.599
		c-26.032-4.66-71.49-0.569-99.368-0.543c-95.494,0.088-192.392,3.404-287.755-0.356
		C2894.093,1387.3,2892.116,1386.044,2887.799,1385.233z"/>
	<path style="fill:#345991;" d="M902.904,1422.671c-0.983-18.363-6.92-51.042,6.52-65.381c10.288-10.975,24.568-9.625,38.27-9.882
		l0.172-90.058c-27.063,0.334-54.129,0.525-81.196,0.572c-17.351-0.12-37.025-2.442-54.035,0.315
		c-8.114,1.316-16.038,4.125-21.689,10.384c-4.707,5.209-7.144,12.137-8.356,18.961c-4.517,25.405-0.994,98.677-0.962,129.32
		C816.187,1429.048,865.77,1419.584,902.904,1422.671z"/>
	<path style="fill:#345991;" d="M760.532,2442.992c-15.552-11.125-37.207-12.844-53.804-23.936
		c-31.79-21.242-39.36-56.04-46.631-91.086c47.463-0.401,95.145,1.219,142.655,1.256l5.945-26.352
		c-56.113-3.841-114.691-0.83-171.03-1.274l0.195-41.032l-44.036,0.26c0.099,11.146-2.112,27.579,2.528,37.479
		c7.432,6.497,13.617,5.729,23.067,5.576c9.766,39.349,20.35,78.475,31.751,117.38l5.532,21.382L760.532,2442.992z"/>
	<path style="fill:#4494DA;" d="M660.097,2327.97c7.271,35.045,14.841,69.844,46.631,91.086
		c16.597,11.092,38.252,12.81,53.804,23.936c6.065,0.507,9.12,1.321,14.891-1.371c5.069-6.197,5.682-14.532,7.159-22.212
		c7.734-29.857,14.951-59.774,20.17-90.183C755.242,2329.19,707.561,2327.57,660.097,2327.97z"/>
	<path style="fill:#122E5D;" d="M3340.848,1967.409l-7.724,1.381c-3.225,8.678-41.609,54.956-49.073,59.868
		c-1.353,5.043-1.638,5.043-5.539,8.036c-1.118,9.042-30.089,60.716-37.189,66.383l0.702,4.806l-4.421,4.707
		c0.572,5.576-26.344,82.592-30.167,88.272c-0.858,1.261-2.054,2.452-3.146,3.508c-8.712,0.174-24.212,2.481-30.713-3.651
		l-1.801,0.584c-1.478,2.089-2.017,2.59-5.169,3.14c-15.057,2.645-35.082-0.003-50.659-0.252
		c-20.025,0.255-74.221-5.937-88.316,7.281c-3.823,3.579-5.539,8.174-5.669,13.354c-0.182,8.028,2.913,17.741,8.686,23.501
		c9.57,9.573,22.937,1.022,32.741,6.834c1.43-0.533,2.731-0.978,4.213-1.282c18.985-3.862,43.378-0.772,62.908-0.674
		c44.314,0.206,88.628,0.189,132.942-0.052c12.145-0.104,76.353-3.599,82.933,0.817c12.925-1.295,28.71,2.944,39.191-6.624
		c5.383-4.941,8.556-11.167,8.66-18.542c0.078-6.769-2.367-12.943-7.152-17.757c-3.771-3.786-7.386-5.329-12.587-6.236
		c-17.814-3.108-39.815-0.609-58.019-0.497l-105.09,0.016c0.312-0.315,0.676-0.601,0.962-0.944
		c6.606-8.018,27.826-70.283,27.67-80.47c3.199-4.33,4.499-6.619,4.811-12.036c7.438-7.232,33.73-55.801,37.344-66.541
		c1.769-2.354,2.783-5.009,3.927-7.69c9.492-7.172,39.841-46.909,46.369-59.075
		C3336.687,1974.334,3338.819,1972.371,3340.848,1967.409z"/>
	<path style="fill:#122E5D;" d="M3171.315,2201.451l0.462-0.15c0.156-0.22,0.319-0.453,0.5-0.711L3171.315,2201.451z"/>
	<path style="fill:#061736;" d="M3263.454,2253.154c-44.314,0.241-88.628,0.258-132.942,0.052
		c-19.53-0.099-43.924-3.188-62.908,0.674c-1.482,0.304-2.782,0.749-4.213,1.282c1.95,6.879,2.523,8.91-0.286,15.653
		c68.708,1.095,137.571,0.096,206.305,0.034c19.894-0.018,58.123,3.396,75.859-0.294c0.884-1.407,1.405-2.127,2.107-3.747
		c2.158-5.087,0.598-7.963-0.988-12.836C3339.808,2249.555,3275.599,2253.05,3263.454,2253.154z"/>
	<path style="fill:#86272A;" d="M2166.913,1071.435c1.181,70.752-0.003,141.651,2.021,212.372
		c36.771,0.219,73.526-0.458,110.265-2.028c17.432-38.853,33.992-78.702,53.468-116.548
		c-40.517-15.533-80.611-32.965-121.674-46.922c-15.33-54.42-30.279-108.944-44.847-163.572l-2.489,1.178
		C2161.725,993.888,2166.278,1033.298,2166.913,1071.435z"/>
	<path style="fill:#FEFEFE;" d="M2261.686,1312.64c8.777-4.057,13.991-22.225,17.512-30.861
		c-36.74,1.571-73.494,2.247-110.265,2.028c0.107,10.834,0.026,21.699,0.346,32.528c27.327-1.009,54.663-1.677,82.007-2.002
		C2254.852,1314.164,2258.386,1314.167,2261.686,1312.64z"/>
	<path style="fill:#345991;" d="M1233.969,1348.957c11.796-0.224,21.933-0.718,30.911,8.33c3.584,3.612,6.78,7.82,9.968,11.789
		c0.454,17.928,0.417,35.856-0.112,53.783c31.452-2.686,63.756,0.036,95.34-0.086c14.795-8.197,22.261-16.288,31.68-30.294
		c0.156,13.084-0.609,26.934,1.233,39.875c0.333-2.135,0.455-4.229,0.536-6.385c1.095-28.552-0.791-57.226-0.866-85.796
		c-0.047-17.939,2.312-36.749,0.127-54.503c-0.72-5.849-1.924-12.699-6.338-16.953c-18.55-17.887-133.78-11.528-163.533-11.601
		C1233.811,1287.722,1234.162,1318.336,1233.969,1348.957z"/>
	<path style="fill:#122E5D;" d="M1401.757,1392.478c-9.419,14.007-16.886,22.097-31.68,30.294
		c-31.584,0.122-63.889-2.601-95.34,0.086c-1.337,3.526-2.64,7.066-4.021,10.577c-2.364,6.007-2.881,10.436-2.866,16.836
		c0.005,1.657-0.018,3.3,0.01,4.957c26.471,1.68,91.104,4.936,113.651-3.048c6.691-2.372,11.781-6.608,17.198-11.055l4.281-8.772
		C1401.148,1419.412,1401.913,1405.562,1401.757,1392.478z"/>
	<path style="fill:#F4BD61;" d="M1574.509,2401.736c23.73-33.085-9.068-60.667-22.859-89.518
		c-5.519-11.541-7.412-24.578-9.456-37.092c-0.941,0.577-2.195,1.433-3.29,1.826c-8.104,2.905-28.643,1.716-36.655-1.459
		c-6.213-6.005-6.54-18.966-9.872-27.184c-0.167-0.414-0.346-0.824-0.518-1.236c-7.804-19.546-47.983-24.17-65.915-32.421
		c-8.142-3.747-14.758-9.474-17.676-18.207c-5.375-16.077,0.692-29.74,7.687-44.025c-6.781,2.159-13.468,4.573-20.063,7.245
		c-6.593,2.673-13.076,5.596-19.447,8.767c-6.37,3.171-12.609,6.581-18.716,10.231c-6.108,3.651-12.067,7.531-17.876,11.64
		c72.788,78.101,149.089,153.196,222.52,230.719C1563.248,2414.393,1570.621,2407.161,1574.509,2401.736z"/>
	<path style="fill:#F7A952;" d="M1408.269,2196.445c2.918,8.733,9.534,14.459,17.676,18.207
		c17.931,8.252,58.11,12.875,65.915,32.421c0.172,0.411,0.351,0.822,0.518,1.236c3.331,8.218,3.659,21.179,9.872,27.184
		c8.012,3.175,28.552,4.364,36.655,1.459c1.095-0.393,2.348-1.248,3.29-1.826c-4.041-8.229-4.291-15.752-4.296-24.68l-7.292-25.902
		c-6.611-5.089-12.821-8.564-20.474-11.877c-42.358-9.427-60.557-27.676-84.87-62.43l-9.305,2.182
		C1408.961,2166.705,1402.894,2180.368,1408.269,2196.445z"/>
	<path style="fill:#F9B49B;" d="M1510.131,2212.668c7.542-8.465,14.87-17.271,23.598-24.547
		c-6.754-11.086-33.951-29.743-44.569-41.055l-3.846-3.004c-9.04-10.033-17.892-20.381-27.514-29.863
		c-8.247,10.129-20.917,30.458-32.539,36.039C1449.574,2184.992,1467.773,2203.241,1510.131,2212.668z"/>
	<path style="fill:#E76F5D;" d="M1506.917,424.177c6.566,8.499,14.496,20.696,23.704,26.24c1.157,0.697,2.148,1.017,3.433,1.529
		c2.928-1.269,4.53-2.117,6.58-4.587c39.724-44.054,88.131-104.154,85.471-167.145c-1.035-24.471-11.755-45.48-29.831-61.818
		c-20.217-18.268-44.023-26.485-71.072-24.954l-2.148,0.129c-26.724,5.474-49.19,17.274-64.739,40.392
		c-15.076,22.407-17.705,48.137-12.317,74.125C1455.319,353.038,1479.379,388.531,1506.917,424.177z M1489.818,259.753
		c8.613-15.445,21.918-22.309,38.27-27.134c10.072-0.179,19.637,1.325,28.684,5.94c12.694,6.475,21.855,18.034,25.923,31.629
		c0.27,0.884,0.518,1.775,0.744,2.674c0.227,0.896,0.432,1.799,0.614,2.707c0.18,0.907,0.339,1.818,0.476,2.733
		c0.137,0.915,0.25,1.833,0.341,2.754c0.092,0.921,0.16,1.843,0.205,2.767c0.045,0.924,0.068,1.849,0.068,2.775
		c0,0.926-0.023,1.851-0.068,2.775c-0.047,0.924-0.115,1.846-0.205,2.767c-0.092,0.921-0.206,1.839-0.343,2.754
		c-0.137,0.915-0.296,1.826-0.478,2.733c-0.182,0.907-0.387,1.809-0.614,2.707c-0.225,0.896-0.473,1.787-0.744,2.673
		c-0.272,0.884-0.565,1.761-0.879,2.632c-0.314,0.87-0.648,1.732-1.004,2.585c-0.357,0.855-0.735,1.7-1.134,2.536
		c-0.399,0.834-0.818,1.658-1.256,2.473c-8.431,15.538-21.13,23.548-37.672,28.307c-9.885,0.192-18.831-1.456-27.696-5.859
		c-0.817-0.409-1.622-0.838-2.416-1.287c-0.794-0.449-1.576-0.919-2.346-1.409c-0.77-0.489-1.527-0.997-2.27-1.524
		c-0.746-0.529-1.476-1.076-2.192-1.641c-0.716-0.565-1.418-1.148-2.106-1.747c-0.687-0.602-1.357-1.22-2.013-1.854
		c-0.655-0.636-1.294-1.288-1.917-1.955c-0.621-0.668-1.225-1.35-1.813-2.047c-0.588-0.699-1.157-1.412-1.708-2.14
		c-0.551-0.726-1.084-1.467-1.597-2.223c-0.513-0.754-1.007-1.521-1.482-2.299c-0.475-0.78-0.929-1.572-1.363-2.374
		c-0.435-0.803-0.848-1.616-1.24-2.439c-0.393-0.823-0.765-1.656-1.116-2.499c-0.35-0.843-0.679-1.694-0.986-2.554
		c-0.307-0.86-0.592-1.727-0.855-2.601C1481.145,288.595,1482.396,273.065,1489.818,259.753z"/>
	<path style="fill:#FEFEFE;" d="M1486.484,305.686c0.307,0.86,0.635,1.711,0.986,2.554c0.35,0.843,0.722,1.676,1.116,2.499
		c0.392,0.823,0.805,1.637,1.24,2.439c0.434,0.803,0.888,1.594,1.363,2.374c0.475,0.779,0.969,1.545,1.482,2.299
		c0.513,0.756,1.046,1.497,1.597,2.223c0.551,0.728,1.121,1.442,1.708,2.14c0.588,0.697,1.192,1.379,1.813,2.047
		c0.622,0.667,1.261,1.319,1.917,1.955c0.655,0.635,1.326,1.253,2.013,1.854c0.688,0.6,1.39,1.182,2.106,1.747
		c0.716,0.565,1.447,1.112,2.192,1.641c0.744,0.527,1.5,1.035,2.27,1.524c0.77,0.49,1.552,0.96,2.346,1.409
		c0.794,0.449,1.599,0.878,2.416,1.287c8.865,4.403,17.811,6.052,27.696,5.859c16.542-4.759,29.241-12.769,37.672-28.307
		c0.438-0.815,0.857-1.639,1.256-2.473c0.399-0.836,0.777-1.681,1.134-2.536c0.355-0.853,0.69-1.715,1.004-2.585
		c0.314-0.87,0.607-1.747,0.879-2.632c0.271-0.886,0.518-1.777,0.744-2.673c0.227-0.898,0.432-1.801,0.614-2.707
		c0.182-0.907,0.341-1.818,0.478-2.733c0.137-0.916,0.251-1.834,0.343-2.754c0.09-0.921,0.159-1.843,0.205-2.767
		c0.045-0.924,0.068-1.849,0.068-2.775c0-0.926-0.023-1.851-0.068-2.775c-0.045-0.924-0.114-1.846-0.205-2.767
		c-0.09-0.921-0.204-1.839-0.341-2.754c-0.137-0.915-0.296-1.827-0.476-2.733c-0.182-0.908-0.386-1.811-0.614-2.707
		c-0.225-0.898-0.473-1.789-0.744-2.674c-4.067-13.595-13.229-25.154-25.923-31.629c-9.047-4.615-18.612-6.119-28.684-5.94
		c-16.353,4.825-29.657,11.689-38.27,27.134c-7.422,13.311-8.673,28.842-4.19,43.332
		C1485.892,303.96,1486.177,304.826,1486.484,305.686z"/>
	<path style="fill:#E76F5D;" d="M781.118,1134.872l13.024-10.418c36.099-33.366,82.119-92.955,83.978-143.958
		c0.889-24.337-8.491-47.201-25.33-64.661c-18.082-18.75-44.371-30.942-70.619-30.775c-6.478,0.042-12.985,0.492-19.445,0.931
		c-26.159,6.907-49.843,19.923-63.73,44.057c-12.68,22.035-14.849,48.467-7.88,72.687
		C704.843,1050.441,742.596,1103.875,781.118,1134.872z M728.404,973.169c0.057-0.843,0.135-1.684,0.234-2.525
		c0.099-0.841,0.219-1.678,0.359-2.512c0.14-0.834,0.301-1.664,0.481-2.489c0.182-0.827,0.383-1.649,0.603-2.465
		c0.222-0.817,0.464-1.626,0.726-2.429c0.262-0.804,0.543-1.602,0.843-2.393c0.3-0.79,0.62-1.573,0.96-2.348
		c0.34-0.775,0.698-1.541,1.074-2.299c8.647-17.312,22.578-25.054,40.317-30.827c11.539-1.191,23.993,0.874,34.437,6.018
		c0.744,0.369,1.478,0.757,2.203,1.163c0.725,0.404,1.439,0.827,2.143,1.269c0.704,0.44,1.396,0.898,2.078,1.373
		c0.681,0.475,1.351,0.966,2.008,1.474c0.655,0.508,1.299,1.031,1.93,1.571c0.631,0.541,1.248,1.097,1.852,1.667
		c0.603,0.57,1.193,1.154,1.768,1.753c0.574,0.6,1.133,1.214,1.677,1.841c0.544,0.628,1.073,1.268,1.586,1.922
		c0.513,0.654,1.009,1.319,1.488,1.997c0.48,0.678,0.943,1.367,1.389,2.067c0.446,0.7,0.874,1.411,1.285,2.133
		c0.411,0.723,0.803,1.455,1.175,2.195c0.375,0.742,0.731,1.493,1.069,2.252c0.336,0.759,0.655,1.526,0.955,2.299
		c0.3,0.775,0.58,1.557,0.84,2.346c0.281,0.82,0.541,1.647,0.78,2.481c0.241,0.834,0.46,1.673,0.658,2.517
		c0.199,0.845,0.377,1.693,0.533,2.546c0.156,0.854,0.291,1.712,0.406,2.572c0.115,0.86,0.207,1.722,0.278,2.585
		c0.071,0.865,0.12,1.731,0.148,2.598c0.029,0.867,0.037,1.734,0.023,2.601c-0.016,0.869-0.052,1.735-0.109,2.601
		c-0.057,0.865-0.136,1.729-0.237,2.59c-0.099,0.862-0.22,1.721-0.364,2.577c-0.142,0.855-0.306,1.706-0.492,2.554
		c-0.184,0.848-0.389,1.69-0.616,2.528c-0.225,0.837-0.473,1.669-0.741,2.494c-0.267,0.825-0.555,1.644-0.863,2.455
		c-0.309,0.81-0.636,1.613-0.983,2.408c-0.348,0.794-0.716,1.579-1.103,2.356c-8.236,16.454-21.777,24.157-38.606,29.826
		c-12.446,0.973-22.833,0.973-34.297-4.53c-0.796-0.378-1.582-0.776-2.359-1.194c-0.777-0.418-1.542-0.855-2.296-1.311
		c-0.754-0.456-1.496-0.931-2.226-1.425c-0.73-0.492-1.448-1.004-2.153-1.534c-0.704-0.529-1.395-1.075-2.073-1.639
		c-0.676-0.565-1.339-1.147-1.987-1.745c-0.648-0.596-1.281-1.209-1.898-1.839c-0.617-0.631-1.218-1.276-1.802-1.935
		c-0.584-0.661-1.152-1.335-1.703-2.023c-0.55-0.688-1.083-1.39-1.599-2.104c-0.515-0.714-1.012-1.442-1.49-2.182
		c-0.478-0.74-0.939-1.492-1.381-2.255c-0.44-0.764-0.862-1.539-1.264-2.322c-0.402-0.785-0.785-1.579-1.147-2.382
		c-0.362-0.804-0.704-1.617-1.025-2.437c-0.322-0.822-0.623-1.651-0.902-2.486c-0.271-0.801-0.521-1.609-0.752-2.424
		c-0.231-0.813-0.441-1.631-0.632-2.455c-0.191-0.825-0.36-1.654-0.51-2.486c-0.151-0.832-0.28-1.668-0.387-2.507
		c-0.109-0.839-0.198-1.68-0.265-2.522c-0.066-0.843-0.112-1.687-0.138-2.533c-0.026-0.844-0.031-1.689-0.016-2.535
		C728.308,974.859,728.345,974.014,728.404,973.169z"/>
	<path style="fill:#FEFEFE;" d="M728.446,980.774c0.068,0.843,0.156,1.683,0.265,2.522c0.107,0.839,0.237,1.675,0.387,2.507
		c0.149,0.832,0.319,1.661,0.51,2.486c0.191,0.824,0.401,1.642,0.632,2.455c0.231,0.815,0.481,1.623,0.752,2.424
		c0.279,0.835,0.58,1.664,0.902,2.486c0.321,0.82,0.662,1.632,1.025,2.437c0.362,0.803,0.745,1.597,1.147,2.382
		c0.402,0.784,0.823,1.558,1.264,2.322c0.442,0.763,0.903,1.514,1.381,2.255c0.479,0.74,0.975,1.468,1.49,2.182
		c0.517,0.714,1.05,1.416,1.599,2.104c0.551,0.688,1.119,1.363,1.703,2.023c0.584,0.659,1.185,1.304,1.802,1.935
		c0.617,0.629,1.25,1.242,1.898,1.839c0.648,0.598,1.311,1.18,1.987,1.745c0.678,0.564,1.369,1.11,2.073,1.639
		c0.706,0.53,1.423,1.042,2.153,1.534c0.73,0.494,1.472,0.969,2.226,1.425c0.754,0.456,1.519,0.893,2.296,1.311
		c0.777,0.418,1.563,0.816,2.359,1.194c11.463,5.503,21.85,5.503,34.297,4.53c16.828-5.669,30.37-13.372,38.606-29.826
		c0.387-0.777,0.754-1.562,1.103-2.356c0.347-0.796,0.674-1.598,0.983-2.408c0.309-0.811,0.596-1.63,0.863-2.455
		c0.269-0.825,0.516-1.657,0.741-2.494c0.227-0.837,0.433-1.68,0.616-2.528c0.185-0.848,0.349-1.699,0.492-2.554
		c0.144-0.857,0.265-1.715,0.364-2.577c0.1-0.862,0.179-1.725,0.237-2.59c0.057-0.865,0.094-1.732,0.109-2.601
		c0.014-0.867,0.006-1.734-0.023-2.601c-0.028-0.867-0.077-1.733-0.148-2.598c-0.071-0.863-0.164-1.725-0.278-2.585
		c-0.114-0.86-0.25-1.717-0.406-2.572c-0.156-0.853-0.334-1.702-0.533-2.546c-0.198-0.844-0.417-1.683-0.658-2.517
		c-0.239-0.834-0.499-1.661-0.78-2.481c-0.26-0.789-0.54-1.571-0.84-2.346c-0.3-0.773-0.618-1.54-0.955-2.299
		c-0.338-0.759-0.694-1.51-1.069-2.252c-0.373-0.74-0.765-1.472-1.175-2.195c-0.411-0.721-0.839-1.432-1.285-2.133
		c-0.446-0.701-0.908-1.39-1.389-2.067c-0.479-0.678-0.974-1.344-1.488-1.997c-0.513-0.654-1.042-1.294-1.586-1.922
		c-0.544-0.628-1.103-1.241-1.677-1.841c-0.576-0.598-1.165-1.182-1.768-1.753c-0.603-0.57-1.221-1.126-1.852-1.667
		c-0.631-0.539-1.274-1.063-1.93-1.571c-0.657-0.508-1.326-1-2.008-1.474c-0.681-0.475-1.374-0.933-2.078-1.373
		c-0.704-0.442-1.418-0.865-2.143-1.269c-0.725-0.406-1.459-0.793-2.203-1.163c-10.444-5.144-22.898-7.209-34.437-6.018
		c-17.739,5.773-31.67,13.515-40.317,30.827c-0.376,0.758-0.734,1.524-1.074,2.299c-0.34,0.775-0.66,1.558-0.96,2.348
		c-0.3,0.791-0.581,1.588-0.843,2.393c-0.262,0.803-0.504,1.612-0.726,2.429c-0.22,0.816-0.421,1.638-0.603,2.465
		c-0.18,0.825-0.341,1.655-0.481,2.489c-0.14,0.834-0.26,1.671-0.359,2.512c-0.099,0.841-0.177,1.683-0.234,2.525
		c-0.059,0.844-0.096,1.69-0.112,2.536c-0.016,0.846-0.01,1.691,0.016,2.535C728.334,979.086,728.38,979.931,728.446,980.774z"/>
	<path style="fill:#4494DA;" d="M3269.41,2270.848c-68.734,0.063-137.597,1.061-206.305-0.034
		c10.974,18.805-0.806,62.435,5.513,86.771c4.629,17.747,31.909,54.508,32.689,59.424c13.211,5.339,26.812,17.567,39.581,24.888
		c30.869,17.71,76.353,17.288,109.797,8.077c18.724-5.159,48.943-16.613,59.085-34.593c16.592-10.823,29.283-38.023,34.328-56.568
		c4.785-17.564,10.012-73.09,1.17-88.259C3327.533,2274.245,3289.304,2270.83,3269.41,2270.848z"/>
	<path style="fill:#4BB3AC;" d="M524.268,1723.541c43.83,100.034,88.54,199.746,126.568,302.17
		c18.357-16.961,21.46-37.956,22.378-62.12c3.919-102.996-33.912-190.626-103.735-265.598
		c-15.328-16.292-31.469-31.733-48.423-46.322c-16.952-14.591-34.625-28.25-53.018-40.978
		c-2.413,125.928,13.713,276.755,105.823,372.303c15.089,15.653,48.852,42.098,71.464,42.608
		c-14.09-55.699-164.121-381.371-162.992-391.971C492.339,1645.073,516.394,1705.568,524.268,1723.541z"/>
	<path style="fill:#345991;" d="M1811.717,1218.527c11.554,15.497,23.08,30.916,35.54,45.703l6.161-0.312
		c-15.096-17.731-29.178-36.432-43.573-54.74c-2.387,0.182-4.938-0.161-7.333-0.297c1.539,2.791,2.92,3.568,2.031,6.816
		c-6.078,22.23-57.879,54.22-79.141,64.614c-45.583,22.285-98.921,28.687-147.323,11.75c-17.887-6.26-35.779-15.731-50.714-27.447
		c-8.392-6.582-25.71-29.244-34.175-31.163c11.851,61.626,46.163,122.524,98.505,158.119
		c43.063,29.282,126.256,43.521,177.703,34.021c14.483-2.673,29.343-9.131,42.208-16.254l3.214,0.882
		c4.099-9.744,2.481-28.406,4.138-39.586C1806.542,1323.009,1812.442,1267.697,1811.717,1218.527z"/>
	<path style="fill:#BE4B3E;" d="M1944.113,1377.306c-11.493-16.085-22.393-32.563-32.7-49.432l-3.76-0.117
		c-18.74-8.465-46.595-46.683-60.396-63.527c-12.459-14.787-23.985-30.206-35.54-45.703c0.726,49.169-5.175,104.481,7.24,152.106
		c26.656,6.712,59.6,3.459,87.349,4.549l9.726,0.879C1925.451,1376.919,1934.654,1377.397,1944.113,1377.306z"/>
	<path style="fill:#122E5D;" d="M1888.871,1436.769l3.854,2.603l1.24-0.257c2.598-21.418,8.231-42.728,12.34-63.933
		c-27.748-1.09-60.693,2.164-87.349-4.549c-1.657,11.18-0.039,29.842-4.138,39.586c-2.297,18.49-4.911,36.935-7.841,55.335
		c0.481,2.273,0.814,2.608,2.278,4.299C1836.178,1469.471,1862.441,1442.992,1888.871,1436.769z"/>
	<path style="fill:#010611;" d="M1902.964,1430.8c2.283-17.936,8.689-37.087,13.068-54.74l-9.726-0.879
		c-4.109,21.205-9.742,42.514-12.34,63.933l8.332-7.274L1902.964,1430.8z"/>
	<path style="fill:#345991;" d="M2980.692,468.723c6.943-10.821,4.655-35.105,4.733-48.049c0.156-19.333,5.123-81.352-7.932-94.61
		c-66.289-2.926-133.515-0.668-199.882-0.655c-54.404,0.01-110.421-2.686-164.617,0.655c-8.556,0.528-16.602,1.069-24.44,4.556
		c-0.528,0.237-1.095,0.372-1.644,0.556c-11.019,32.182,2.094,101.748-4.517,139.454
		C2715.068,468.135,2847.984,472.254,2980.692,468.723z M2877.657,377.686c21.871,0.14,44.002-1.142,65.821-0.317
		c4.629,0.174,8.556,0.086,11.807,3.49l-3.303,4.45c-19.998,0.788-201.52,2.845-207.501-0.434c-1.82-0.996-1.69-5.378-1.977-7.375
		C2787.468,376.362,2832.667,377.397,2877.657,377.686z M2826.711,415.715l-3.042,4.717c-13.341,2.801-67.303,3.305-79.968-0.72
		l-1.691-5.165C2755.949,412.877,2816.673,409.869,2826.711,415.715z M2640.171,424.91l-1.014-0.172
		c-4.135-6.907-2.054-47.183-2.185-57.218l25.382,7.362c7.516-1.74,13.861-3.339,20.623-7.199l3.302,1.069
		c3.433,11.43,2.237,46.592-1.924,57.668c-3.095-2.507-6.917-4.078-10.636-5.44C2661.938,416.667,2650.911,419.79,2640.171,424.91z"
		/>
	<path style="fill:#FEFEFE;" d="M2823.669,420.432l3.042-4.717c-10.038-5.846-70.762-2.837-84.701-1.168l1.691,5.165
		C2756.365,423.737,2810.328,423.233,2823.669,420.432z"/>
	<path style="fill:#FEFEFE;" d="M2744.48,384.874c5.981,3.279,187.503,1.222,207.501,0.434l3.303-4.45
		c-3.251-3.404-7.177-3.316-11.807-3.49c-21.819-0.824-43.95,0.458-65.821,0.317c-44.99-0.289-90.189-1.324-135.153-0.187
		C2742.791,379.496,2742.66,383.878,2744.48,384.874z"/>
	<path style="fill:#F4BD61;" d="M2686.279,368.753l-3.302-1.069c-6.762,3.859-13.107,5.459-20.623,7.199l-25.382-7.362
		c0.13,10.036-1.95,50.311,2.185,57.218l1.014,0.172c10.74-5.121,21.767-8.244,33.548-3.929c3.719,1.363,7.542,2.933,10.636,5.44
		C2688.516,415.345,2689.712,380.183,2686.279,368.753z"/>
	<path style="fill:#122E5D;" d="M3000.457,482.085c3.043-5.813,2.393-13.648,0.494-19.705c0.962-3.157,1.742-6.41,1.924-9.711
		c1.041-17.785,3.537-109.245-1.482-119.076c-0.78-1.526-3.069-3.487-4.265-4.837c-6.631-3.23-12.509-2.853-19.634-2.692
		c13.055,13.258,8.088,75.277,7.932,94.61c-0.078,12.943,2.21,37.227-4.733,48.049c-132.708,3.532-265.625-0.588-398.299,1.909
		c2.073,5.979,4.06,9.417,9.984,12.119c1.194,0.546,1.607,0.632,2.967,1.079l403.942,0.312
		C2999.677,483.455,3000.093,482.784,3000.457,482.085z"/>
	<path style="fill:#122E5D;" d="M2086.176,631.082c-0.035-0.055-0.067-0.113-0.101-0.17l-0.661,0.22L2086.176,631.082z"/>
	<path style="fill:#122E5D;" d="M2042.792,686.574c13.146-1.966,20.394-11.151,27.806-21.08c3.831-7.107,6.499-14.173,9.11-21.798
		l-12.025,4.998c-3.542,0.689-6.231,1.027-9.778,0.096c-8.382-2.192-15.463-8.285-19.666-15.752
		c-5.37-9.544-7.235-22.035-3.729-32.505c1.976-5.898,5.552-10.844,11.375-13.37c6.065-2.629,13.796-1.454,19.559,1.475
		c8.405,4.275,12.441,12.823,15.565,21.174c1.964,5.568,2.068,16.094,5.067,21.099l5.354-1.782l-2.444,1.767l1.783-0.118
		c0.344-0.759,0.671-1.529,1.033-2.283c11.107-23.187,13.203-51.505,7.43-76.4c42.501,3.191,70.869,14.074,115.752,9.604
		c11.458-2.978,22.505-7.409,31.621-15.127c25.228-21.361,28.141-57.77,30.77-88.521c-15.232,9.516-29.67,13.603-46.987,17.356
		c3.672-17.928,3.29-35.862,2.959-54.043c-8.808,7.588-17.77,15.783-28.555,20.454c-50.451,21.845-104.739-31.868-158.087-14.298
		c-23.431,7.719-34.138,26.118-44.709,46.727c-1.066-5.416-2.073-10.843-3.022-16.279c-2.51-14.842,5.071-30.513,1.885-45.149
		c-4.798,3.378-7.581,14.972-8.647,20.708c-2.494,13.401,0.307,26.115,2.999,39.23c-17.481-6.429-30.858-9.807-48.511-1.901
		c-5.037,2.255-8.028,3.971-10.116,9.146l2.208,1.443c26.276-8.556,29.941-10.176,58.201-3.134
		c-20.063,13.208-39.259,24.391-49.695,47.029c3.854,49.253,29.839,100.133,55.231,141.688l12.696,13.359l7.88,5.581l2.143,0.206
		C2031.118,686.876,2036.894,687.456,2042.792,686.574z"/>
	<path style="fill:#122E5D;" d="M2087.075,632.276l1.909-1.38l-2.809,0.186C2086.453,631.523,2086.746,631.935,2087.075,632.276z"/>
	<path style="fill:#F9B49B;" d="M2088.984,630.896l2.444-1.767l-5.354,1.782c0.034,0.056,0.067,0.115,0.101,0.17L2088.984,630.896z"
		/>
	<path style="fill:#F9B49B;" d="M2099.23,552.095c5.773,24.895,3.677,53.213-7.43,76.4c-0.362,0.754-0.689,1.524-1.033,2.283
		l-1.783,0.118l-1.909,1.38c-0.329-0.341-0.622-0.753-0.899-1.194l-0.763,0.05l0.661-0.22c-2.999-5.006-3.103-15.531-5.067-21.099
		c-3.124-8.351-7.159-16.899-15.565-21.174c-5.763-2.928-13.494-4.104-19.559-1.475c-5.823,2.525-9.399,7.471-11.375,13.37
		c-3.505,10.47-1.641,22.961,3.729,32.505c4.202,7.466,11.284,13.56,19.666,15.752c3.547,0.931,6.236,0.593,9.778-0.096
		c-7.344-35.589-19.39-25.158-24.763-35.958c2.46-4.928,2.12-5.378,7.503-7.536c11.687,2.27,18.004,9.791,24.747,18.867
		c3.552,7.016,5.953,11.469,4.538,19.629c-2.611,7.625-5.279,14.691-9.11,21.798c2.257,20.841,10.875,37.992,27.327,51.302
		c8.977,7.261,19.465,12.015,30.229,15.97c7.391,1.714,14.915,3.594,22.477,4.346c12.503,1.243,25.649-1.105,35.394-9.568
		c14.157-12.298,16.02-32.417,17.13-49.911c4.182-4.691,7.843-5.354,13.549-7.399c1.893-3.685,4.84-7.51,4.348-11.807
		c-0.928-8.127-7.628-15.52-8.816-23.858c-3.292-23.088,2.244-49.375,2.746-72.871
		C2170.099,566.169,2141.731,555.286,2099.23,552.095z M2175.461,646.257c-2.252-1.701-4.153-3.719-6.153-5.706
		c-3.573-9.554-1.274-16.181,2.731-25.062c1.545,0.416,2.582,0.608,4.041,1.433c3.201,1.813,4.4,5.453,4.946,8.831
		C2182.223,633.14,2179.43,640.208,2175.461,646.257z M2188.755,604.208c-5.508,1.729-7.284,0.06-12.556-1.976
		c-6.66,1.631-13.432,4.187-19.907,0.801l-0.845-3.027c3.542-4.892,8.415-6.494,13.762-8.852c4.345,0.044,9.539,0.226,13.715,1.441
		c4.119,1.196,5.836,4.653,7.466,8.26L2188.755,604.208z"/>
	<path style="fill:#061736;" d="M2176.08,616.922c-1.459-0.825-2.497-1.017-4.041-1.433c-4.005,8.881-6.304,15.507-2.731,25.062
		c2,1.987,3.901,4.005,6.153,5.706c3.969-6.049,6.761-13.117,5.565-20.503C2180.48,622.376,2179.281,618.735,2176.08,616.922z"/>
	<path style="fill:#061736;" d="M2182.925,592.594c-4.177-1.214-9.37-1.396-13.715-1.441c-5.347,2.359-10.22,3.961-13.762,8.852
		l0.845,3.027c6.475,3.386,13.247,0.83,19.907-0.801c5.271,2.036,7.048,3.706,12.556,1.976l1.636-3.355
		C2188.761,597.246,2187.044,593.79,2182.925,592.594z"/>
	<path style="fill:#E76F5D;" d="M2075.169,624.066c-6.743-9.076-13.06-16.597-24.747-18.867c-5.383,2.158-5.042,2.608-7.503,7.536
		c5.373,10.8,17.419,0.369,24.763,35.958l12.025-4.998C2081.122,635.535,2078.722,631.083,2075.169,624.066z"/>
	<path style="fill:#CCE2EB;" d="M3251.335,1052.737c24.238,14.592,68.604,27.124,96.664,19.289c0.468-0.133,0.884-0.382,1.353-0.575
		c38.697-3.188,73.467-22.235,98.406-51.833c27.254-32.372,37.058-72.314,33.443-114.148c-0.208-2.5-0.485-4.992-0.832-7.477
		c-0.329-2.486-0.728-4.962-1.196-7.427c-0.451-2.465-0.971-4.919-1.561-7.36c-0.572-2.439-1.205-4.863-1.898-7.271
		c-0.711-2.408-1.474-4.798-2.289-7.17c-0.815-2.37-1.69-4.718-2.627-7.045c-0.936-2.328-1.933-4.632-2.991-6.91
		c-1.04-2.278-2.141-4.529-3.303-6.751s-2.384-4.416-3.667-6.579c-1.266-2.162-2.583-4.292-3.953-6.39
		c-1.37-2.098-2.8-4.16-4.291-6.187c-1.474-2.027-2.999-4.015-4.577-5.966c-1.578-1.952-3.198-3.863-4.863-5.732
		c-1.664-1.871-3.381-3.699-5.149-5.485c-1.768-1.786-3.571-3.526-5.409-5.222c-1.855-1.697-3.745-3.347-5.669-4.949
		c-37.839-31.491-76.718-37.956-124.308-33.867c-42.961,10.709-82.386,31.683-106.052,70.601
		c-21.663,35.605-25.122,82.148-15.318,122.103C3190.638,998.611,3217.84,1032.546,3251.335,1052.737z M3241.323,865.461
		c15.916-26.807,40.309-39.576,69.488-47.052c0.78-0.104,1.56-0.213,2.341-0.307c28.945-3.425,55.809,4.447,78.278,23.08
		c21.715,18.014,34.692,42.59,37.084,70.726c2.341,27.668-5.331,54.735-23.561,75.898c-16.774,19.437-40.205,30.723-65.639,32.853
		c-0.39,0.122-0.78,0.273-1.197,0.364c-17.97,3.992-43.794-3.724-59.293-12.761c-23.51-13.689-39.971-37.11-46.863-63.254
		C3225.096,918.952,3227.41,888.884,3241.323,865.461z"/>
	<path style="fill:#F4BD61;" d="M3278.824,1008.262c15.5,9.037,41.323,16.753,59.293,12.761c0.416-0.091,0.806-0.242,1.197-0.364
		c25.434-2.13,48.865-13.416,65.639-32.853c18.23-21.164,25.902-48.23,23.561-75.898c-2.393-28.136-15.369-52.711-37.084-70.726
		c-22.469-18.633-49.333-26.505-78.278-23.08c-0.78,0.094-1.56,0.203-2.341,0.307c-29.178,7.477-53.572,20.246-69.488,47.052
		c-13.913,23.424-16.228,53.492-9.362,79.547C3238.853,971.151,3255.314,994.572,3278.824,1008.262z M3290.396,903.749
		c2.029,0.382,3.719,0.731,5.565,1.675c8.166,4.14,22.729,18.87,25.668,27.467c15.344-7.635,49.099-43.12,59.865-57.912
		c3.355-0.832,6.449-0.877,9.882-0.916c4.265,2.801,4.759,2.447,5.982,7.672c-5.227,14.535-61.92,68.551-75.989,76.176
		c-0.052-0.413-0.078-0.837-0.208-1.238c-2.601-8.527-19.634-22.534-27.228-27.075c-0.624-2.052-0.26-1.631-1.352-3.027
		c-4.031-5.183-7.958-8.878-9.518-15.557C3285.221,905.882,3285.664,906.139,3290.396,903.749z"/>
	<path style="fill:#FEFEFE;" d="M3293.933,929.599c7.594,4.54,24.628,18.547,27.228,27.075c0.13,0.4,0.156,0.824,0.208,1.238
		c14.069-7.625,70.762-61.642,75.989-76.176c-1.222-5.225-1.717-4.871-5.982-7.672c-3.433,0.039-6.527,0.083-9.882,0.916
		c-10.766,14.792-44.522,50.277-59.865,57.912c-2.939-8.598-17.502-23.327-25.668-27.467c-1.846-0.944-3.537-1.292-5.565-1.675
		c-4.733,2.39-5.175,2.132-7.333,7.266c1.56,6.678,5.487,10.374,9.518,15.557C3293.673,927.969,3293.309,927.547,3293.933,929.599z"
		/>
	<path style="fill:#F4BD61;" d="M1123.525,1117.695c-39.285-7.529-93.551,0.767-126.771,22.893
		c-23.593,15.715-40.827,42.751-45.908,70.575c-2.772,15.185-1.979,30.835-2.98,46.187l-0.172,90.058
		c-13.703,0.257-27.982-1.092-38.27,9.882c-13.44,14.34-7.503,47.019-6.52,65.381l1.43-0.242c4.855-3.979,10.584-4.6,16.571-5.859
		l-0.057-27.465l81.752-0.281l-0.234,27.509l18.163,2.549c0.161-13.393,2.086-27.811,0.323-41.082
		c-1.896-14.272-7.315-20.875-18.3-29.491l-25.338-1.131l0.042-89.075c-0.097-7.002-0.138-14.006-0.122-21.01
		c0.096-25.189,5.849-48.009,24.427-66.076c27.621-26.854,66.635-31.459,103.337-30.986c30.099,2.182,60.963,10.447,81.469,34.234
		c1.155,1.342,2.284,2.705,3.389,4.088c15.895,24.347,11.817,51.279,11.674,79.063l0.052,91.26
		c-13.931,0.289-28.419-0.692-38.967,10.254c-12.902,13.388-8.652,42.262-7.635,59.293c0.023,0.375,0.057,0.749,0.086,1.124
		c6.174-1.54,12.524-2.366,18.805-3.363l-0.179-27.09c27.47-0.117,54.979,0.036,82.444-0.385l-0.167,27.35
		c6.364,0.247,9.989,0.715,15.247,4.377l1.186,0.814c0.83,0.577,1.636,1.191,2.437,1.807c0.529-17.927,0.566-35.854,0.112-53.783
		c-3.188-3.969-6.384-8.176-9.968-11.789c-8.977-9.047-19.114-8.553-30.911-8.33c0.193-30.621-0.159-61.235-1.053-91.842
		c-3.841-43.113,0.788-67.316-29.428-103.444l-15.591-14.558C1166.734,1127.683,1147.867,1119.557,1123.525,1117.695z"/>
	<path style="fill:#122E5D;" d="M982,1416.222c6.789,0.018,13.577,0.055,20.366,0.111l0.234-27.509l-81.752,0.281l0.057,27.465
		C941.269,1416.284,961.634,1416.168,982,1416.222z"/>
	<path style="fill:#345991;" d="M1255.866,1415.86l0.167-27.35c-27.465,0.421-54.974,0.268-82.444,0.385l0.179,27.09
		C1201.135,1416.241,1228.501,1416.2,1255.866,1415.86z"/>
	<path style="fill:#FEFEFE;" d="M1079.51,1257.957c34.567-5.758,75.404-1.922,110.582-1.815c0.333-25.931,0.22-51.861-0.338-77.789
		c-1.104-1.383-2.234-2.746-3.389-4.088c-20.506-23.788-51.369-32.052-81.469-34.234c-36.702-0.473-75.716,4.132-103.337,30.986
		c-18.579,18.066-24.331,40.886-24.427,66.076c-0.016,7.004,0.025,14.008,0.122,21.01
		C1011.291,1258.074,1045.494,1258.771,1079.51,1257.957z"/>
	<path style="fill:#A2C6EC;" d="M1190.092,1256.142c-35.178-0.107-76.015-3.943-110.582,1.815
		c40.507,0.653,81.419,0.648,121.918-0.541c0.143-27.785,4.221-54.717-11.674-79.063
		C1190.313,1204.281,1190.425,1230.211,1190.092,1256.142z"/>
	<path style="fill:#345991;" d="M1154.605,1421.251l0.359-1.904c-0.029-0.375-0.062-0.749-0.086-1.124
		c-1.017-17.031-5.266-45.906,7.635-59.293c10.548-10.946,25.036-9.965,38.967-10.254l-0.052-91.26
		c-40.499,1.188-81.411,1.194-121.918,0.541c-34.016,0.814-68.219,0.117-102.255,0.146l-0.042,89.075l25.338,1.131
		c10.985,8.616,16.405,15.219,18.3,29.491c1.763,13.271-0.161,27.689-0.323,41.082l0.304,2.361
		C1065.424,1421.555,1110.015,1421.558,1154.605,1421.251z"/>
	<path style="fill:#A2C6EC;" d="M2264.576,1335.096c64.911-1.428,130.966,1.36,195.91,3.199c28.102,0.796,56.235,2.749,84.353,2.057
		c9.209-22.084,18.637-44.075,28.284-65.972c-1.924-0.705-3.839-1.415-5.721-2.224c-7.531-3.238-11.034-8.946-13.851-16.441
		c-5.506-14.662-4.507-33.498,1.992-47.708c4.494-9.833,12.142-17.965,22.641-21.312c10.556-3.368,22.357-0.9,32.003,3.929
		c8.894-20.03,62.206-130.726,57.603-143.09c-11.911-9.412-223.117-12.179-258.42-17.866l-2.603-0.432
		c-18.943,46.2-41.607,90.844-62.203,136.328C2328.501,1201.033,2282.319,1313.618,2264.576,1335.096z"/>
	<path style="fill:#345991;" d="M2261.686,1312.64c-3.3,1.526-6.834,1.524-10.4,1.693c5.721,0.892,9.24,0.411,13.302,4.915
		c-0.38,5.113-1.651,8.33-4.148,12.784l4.135,3.064c17.744-21.478,63.925-134.063,79.986-169.53
		c20.596-45.484,43.261-90.129,62.203-136.328c-3.981,0.245-10.283-0.439-13.016,2.59c-10.873,12.054-52.922,112.462-61.083,133.402
		c-19.476,37.846-36.037,77.695-53.468,116.548C2275.677,1290.415,2270.463,1308.583,2261.686,1312.64z"/>
	<path style="fill:#F9B49B;" d="M2578.183,1186.696c-10.499,3.347-18.147,11.479-22.641,21.312
		c-6.499,14.21-7.498,33.046-1.992,47.708c2.816,7.495,6.319,13.203,13.851,16.441c1.883,0.809,3.797,1.519,5.721,2.224
		c2.254-0.052,4.507-0.146,6.759-0.281c8.951-0.564,14.644-2.9,20.576-9.804c12.277-14.303,23.07-38.052,20.781-57.286
		c-0.962-8.07-5.201-11.562-11.053-16.384C2600.541,1185.796,2588.739,1183.328,2578.183,1186.696z"/>
	<path style="fill:#A2C6EC;" d="M905.445,485.14c0.127,1.311,0.286,2.617,0.479,3.919c0.191,1.302,0.414,2.599,0.671,3.891
		c0.257,1.292,0.545,2.576,0.866,3.854c0.321,1.276,0.674,2.543,1.058,3.802c0.385,1.26,0.8,2.509,1.246,3.748
		c0.447,1.24,0.925,2.466,1.433,3.68c0.508,1.216,1.046,2.417,1.612,3.605c0.569,1.188,1.166,2.36,1.792,3.518
		c8.155,14.948,23.715,29.426,40.411,34.029c9.378,2.588,19.728,3.063,29.407,3.378c58.602,1.904,117.588-0.304,176.252,0.276
		c50.278,0.697,100.557,0.721,150.837,0.073c24.7-0.161,50.139,0.889,74.71-0.84c4.413-0.312,8.584-1.168,12.459-3.389
		c12.35-7.079,18.677-23.135,32.996-24.981c-3.355-0.739-4.938-1.332-7.503-3.638l1.124-9.224
		c-0.52-15.713-3.459-32.234-15.593-43.386c-17.879-16.431-45.791-13.031-68.047-12.451c0.32-23.663-1.344-43.786-18.797-61.743
		c-11.05-11.375-26.456-18.37-42.418-18.222c-16.074,0.151-27.785,6.543-39.526,16.862c-6.156-32.601-22.987-62.911-50.912-81.77
		c-25.08-16.943-55.372-20.839-84.73-15.055c-30.874,6.085-56.62,22.495-73.901,48.972c-12.509,19.159-17.057,39.108-20.233,61.408
		l-2.226-0.76c-20.173-6.788-41.482-6.796-60.755,2.853c-1.162,0.591-2.308,1.21-3.438,1.857c-1.13,0.647-2.244,1.321-3.342,2.023
		c-1.097,0.702-2.177,1.431-3.238,2.187c-1.061,0.754-2.102,1.535-3.123,2.343c-1.023,0.806-2.025,1.638-3.006,2.494
		c-0.983,0.856-1.943,1.736-2.881,2.639c-0.938,0.905-1.852,1.832-2.744,2.78c-0.893,0.95-1.761,1.921-2.606,2.913
		c-0.844,0.992-1.664,2.004-2.458,3.038c-0.794,1.031-1.562,2.083-2.304,3.155c-0.742,1.069-1.457,2.157-2.146,3.264
		c-0.69,1.106-1.351,2.229-1.984,3.368c-0.633,1.137-1.237,2.29-1.812,3.459c-0.576,1.168-1.123,2.351-1.641,3.547
		c-0.518,1.195-1.006,2.402-1.464,3.623c-0.458,1.219-0.885,2.449-1.282,3.69c-0.394,1.257-0.755,2.523-1.084,3.797
		c-0.331,1.274-0.629,2.556-0.895,3.846c-0.267,1.29-0.501,2.585-0.702,3.885c-0.201,1.302-0.369,2.607-0.505,3.916
		c-0.137,1.309-0.24,2.621-0.31,3.937c-0.071,1.314-0.109,2.629-0.114,3.945c-0.003,1.318,0.025,2.634,0.086,3.948
		C905.225,482.516,905.318,483.829,905.445,485.14z"/>
	<path style="fill:#345991;" d="M1267.86,1455.228l-0.114,82.517c-35.42,0.088-70.944,0.72-106.354-0.034
		c-0.347-27.246-0.505-54.492-0.473-81.739c-47.731,0.666-95.559-0.26-143.308-0.054c0.32-8.504,0.258-16.714-0.385-25.2
		c-5.55,31.09-0.398,74.53-1.243,107.269c-35.526,0.636-71.054,0.862-106.585,0.676l-0.338-82.657
		c-30.247-0.159-61.943,2.77-91.954-0.055c-16.061-1.511-24.786-4.933-35.282-17.554c0.109,45.633-1.701,91.918,0.51,137.452
		c5.474,9.073,11.749,20.235,22.68,23.265c23.858,6.611,84.496,2.138,111.836,2.122c86.73-0.052,173.844-1.441,260.511,0.276
		l13.95,0.133c34.897,0.112,146.905,4.231,174.104-1.285c8.283-1.683,16.449-6.603,22.469-12.493
		c4.725-4.626,8.616-10.356,10.004-16.906c5.953-28.068,0.557-96.279,0.822-129.834c-5.417,4.447-10.507,8.683-17.198,11.055
		C1358.964,1460.164,1294.332,1456.908,1267.86,1455.228z"/>
	<path style="fill:#122E5D;" d="M817.105,1455.951c30.011,2.824,61.707-0.104,91.954,0.055c0.226-7.979,0.871-17.879-2.585-25.223
		c-1.407-2.988-1.779-5.061-2.14-8.353l-1.43,0.242c-37.134-3.087-86.717,6.377-121.276-5.771l0.195,21.496
		C792.319,1451.017,801.044,1454.44,817.105,1455.951z"/>
	<path style="fill:#122E5D;" d="M1154.605,1421.251c-44.59,0.307-89.18,0.304-133.772-0.008l-3.607,9.474
		c0.642,8.486,0.705,16.696,0.385,25.2c47.75-0.206,95.577,0.72,143.308,0.054
		C1161.21,1442.451,1160.893,1433.474,1154.605,1421.251z"/>
	<path style="fill:#FEFEFE;" d="M1160.919,1455.971c-0.031,27.247,0.127,54.494,0.473,81.739
		c35.41,0.754,70.934,0.122,106.354,0.034l0.114-82.517c-0.029-1.656-0.005-3.3-0.01-4.957c-0.016-6.4,0.502-10.829,2.866-16.836
		c1.381-3.511,2.684-7.05,4.021-10.577c-0.801-0.616-1.607-1.23-2.437-1.807l-1.186-0.814c-5.258-3.662-8.884-4.13-15.247-4.377
		c-27.365,0.34-54.731,0.381-82.098,0.125c-6.28,0.996-12.631,1.823-18.805,3.363l-0.359,1.904
		C1160.893,1433.474,1161.21,1442.451,1160.919,1455.971z M1170.263,1432.218l89.661-0.104l0.138,97.652l-89.887-0.01
		L1170.263,1432.218z"/>
	<polygon style="fill:#345991;" points="1259.923,1432.114 1170.263,1432.218 1170.174,1529.755 1260.061,1529.766 	"/>
	<path style="fill:#FEFEFE;" d="M909.06,1456.005l0.338,82.657c35.531,0.186,71.059-0.04,106.585-0.676
		c0.845-32.739-4.307-76.179,1.243-107.269l3.607-9.474l-0.304-2.361l-18.163-2.549c-6.789-0.056-13.578-0.093-20.366-0.111
		c-20.365-0.054-40.73,0.062-61.095,0.348c-5.987,1.259-11.716,1.88-16.571,5.859c0.362,3.292,0.733,5.365,2.14,8.353
		C909.931,1438.126,909.286,1448.027,909.06,1456.005z M965.394,1431.006l42.938-0.25l0.081,99.059l-46.356,0.044l-45.396,0.187
		l-0.182-98.921L965.394,1431.006z"/>
	<path style="fill:#FEFEFE;" d="M920.905,1416.57c20.365-0.286,40.73-0.402,61.095-0.348
		C961.634,1416.168,941.269,1416.284,920.905,1416.57z"/>
	<polygon style="fill:#345991;" points="962.057,1529.859 1008.413,1529.815 1008.332,1430.756 965.394,1431.006 916.479,1431.125 
		916.661,1530.047 	"/>
	<path style="fill:#4494DA;" d="M1527.363,1264.615c14.935,11.716,32.827,21.187,50.714,27.447
		c48.402,16.938,101.74,10.535,147.323-11.75c21.262-10.395,73.063-42.384,79.141-64.614c0.89-3.248-0.491-4.026-2.031-6.816
		c-6.678-9.201-12.881-18.212-18.35-28.198c-26.955-2.294-53.718-4.288-73.61-25.098c-16.42-17.177-21.626-40.803-21.031-63.943
		c2.122-82.267,84.657-191.297,142.135-246.003c13.588-12.935,66.817-59.696,84.756-59.26c2.85,1.425,5.888,2.437,8.871,3.555
		c6.491-0.257,11.388-4.19,16.719-7.568c10.475-6.569,21.673-10.706,33.246-14.808c2.665-8.083,4.803-16.329,7.047-24.536
		c-20.214,6.08-52.189,19.754-65.137,37.261c-0.702,0.359-1.389,0.746-2.101,1.079c-7.445,3.477-28.552-1.006-37.917-0.725
		c-24.027,0.723-49.723,4.975-72.281,13.351c-51.167,19.002-98.107,66.013-130.89,108.32
		c-18.324,23.645-34.723,48.938-53.835,71.945c-24.589,29.595-53.031,55.59-77.654,85.453l-10.051,13.206
		c-27.052,45.058-54.542,104.076-40.226,157.622c0.419,1.566,0.479,1.631,0.986,2.918
		C1501.653,1235.371,1518.971,1258.033,1527.363,1264.615z M1578.028,1036.494c15.731-15.617,34.057-28.484,51.416-42.21
		c20.654-16.334,40.803-33.28,61.52-49.552c5.414,7.833,14.927,14.836,17.84,23.821c-6.514,18.412-91.315,87.643-112.073,104.437
		c-7.086-6.018-20.04-15.429-21.148-25.314C1575.157,1043.874,1576.189,1039.789,1578.028,1036.494z"/>
	<path style="fill:#345991;" d="M1596.731,1072.99c20.758-16.795,105.558-86.025,112.073-104.437
		c-34.359,21.145-81.344,59.52-110.312,87.983c-6.889-6.598-13.918-13.102-20.464-20.043c-1.839,3.295-2.871,7.38-2.445,11.182
		C1576.691,1057.561,1589.645,1066.973,1596.731,1072.99z"/>
	<path style="fill:#F4BD61;" d="M1598.492,1056.536c28.968-28.464,75.953-66.838,110.312-87.983
		c-2.913-8.985-12.426-15.988-17.84-23.821c-20.716,16.272-40.866,33.217-61.52,49.552c-17.359,13.726-35.685,26.594-51.416,42.21
		C1584.573,1043.435,1591.603,1049.939,1598.492,1056.536z"/>
	<path style="fill:#345991;" d="M1751.625,1065.34c13.245-68.947,132.872-239.265,191.315-279.262l-0.939-3.711
		c-5.331,3.378-10.228,7.31-16.719,7.568c-2.983-1.118-6.02-2.13-8.871-3.555c-17.939-0.437-71.168,46.324-84.756,59.26
		c-57.478,54.706-140.013,163.736-142.135,246.003c-0.596,23.14,4.611,46.766,21.031,63.943
		c19.892,20.81,46.655,22.804,73.61,25.098c5.469,9.986,11.671,18.997,18.35,28.198c2.395,0.135,4.946,0.479,7.333,0.297
		c-6.326-8.964-12.599-17.964-18.818-27.002C1765.598,1145.214,1742.575,1112.449,1751.625,1065.34z"/>
	<path style="fill:#CCE2EB;" d="M2604.309,713.477c3.459,3.357,7.152,5.081,11.859,6.088c39.087,8.387,260.891-4.912,272.178,4.023
		c5.045-0.78,6.866-1.524,11.677,0.463h1.352c16.774-6.501,172.731-2.161,205.576-2.551c-1.664-4.086,6.32-12.239,7.36-17.988
		c6.969-14.321,2.601-185.089,1.898-214.083c-0.312-0.354-0.598-0.762-0.962-1.064c-8.842-7.12-96.872-3.081-112.476-2.972
		c0.13-0.354,0.26-0.707,0.364-1.064c2.392-7.69,1.612-14.907-2.185-21.949c1.899,6.057,2.549,13.892-0.494,19.705
		c-0.364,0.699-0.78,1.37-1.17,2.057l-403.942-0.312l9.744,2.27l1.509,3.024l-10.228,11.339
		c-0.483,55.54-0.583,111.081-0.299,166.625l-0.096,13.44C2596.031,692.573,2594.918,704.38,2604.309,713.477z M3004.124,655.645
		c-28.841,4.27-91.177,0.715-123.58,0.851c-74.013,0.315-149.534,4.091-223.339,0.528c-3.745-3.461-2.861-6.2-3.225-11.169
		c39.373-0.245,342.992-3.001,353.784,2.343l0.676,3.513L3004.124,655.645z M3066.355,608.858
		c-51.803,3.183-105.61-0.068-157.648-0.078c-82.231-0.018-164.877,1.953-247.056,0.297c-2.549-0.049-4.057-0.788-6.241-1.956
		c-1.326-4.731-0.832-5.136,0.884-9.528l263.154-0.336c45.406,0.018,91.567-1.776,136.869,0.083
		c5.097,0.208,9.726,0.497,14.069,3.41l0.832,4.122L3066.355,608.858z M2709.945,547.708l117.937,0.237l151.771-0.042
		c30.193-0.086,60.776-1.241,90.917,0.458l1.222,3.599l-3.459,5.313c-22.365,3.513-48.735,0.887-71.438,0.754l-128.209-0.117
		l-149.872,0.237c-19.322,0.042-42.832,2.999-61.53-0.255c-4.993-3.563-4.395-4.039-5.513-9.783
		C2670.598,546.114,2690.935,547.671,2709.945,547.708z"/>
	<path style="fill:#4494DA;" d="M2653.98,645.854c0.364,4.97-0.52,7.708,3.225,11.169c73.805,3.563,149.326-0.213,223.339-0.528
		c32.403-0.135,94.74,3.42,123.58-0.851l4.317-3.935l-0.676-3.513C2996.972,642.853,2693.353,645.609,2653.98,645.854z"/>
	<path style="fill:#CCE2EB;" d="M2657.283,557.892c18.698,3.253,42.208,0.296,61.53,0.255l149.872-0.237l128.209,0.117
		c22.703,0.133,49.073,2.759,71.438-0.754l3.459-5.313l-1.222-3.599c-30.141-1.698-60.724-0.544-90.917-0.458l-151.771,0.042
		l-117.937-0.237c-19.01-0.036-39.347-1.594-58.175,0.401C2652.888,553.853,2652.29,554.329,2657.283,557.892z"/>
	
		<linearGradient id="SVGID_1_" gradientUnits="userSpaceOnUse" x1="1096.7103" y1="2465.1709" x2="1101.9081" y2="2436.2681" gradientTransform="matrix(2.6006 0 0 -2.6006 3.2632 6925.3027)">
		<stop  offset="0" style="stop-color:#7584AB"/>
		<stop  offset="1" style="stop-color:#7C9AB5"/>
	</linearGradient>
	<path style="fill:url(#SVGID_1_);" d="M2657.283,557.892c18.698,3.253,42.208,0.296,61.53,0.255l149.872-0.237l128.209,0.117
		c22.703,0.133,49.073,2.759,71.438-0.754l3.459-5.313l-1.222-3.599c-30.141-1.698-60.724-0.544-90.917-0.458l-151.771,0.042
		l-117.937-0.237c-19.01-0.036-39.347-1.594-58.175,0.401C2652.888,553.853,2652.29,554.329,2657.283,557.892z"/>
	<path style="fill:#4494DA;" d="M3056.317,597.34c-45.302-1.859-91.463-0.065-136.869-0.083l-263.154,0.336
		c-1.716,4.392-2.21,4.798-0.884,9.528c2.184,1.168,3.693,1.906,6.241,1.956c82.178,1.656,164.825-0.315,247.056-0.297
		c52.038,0.01,105.844,3.261,157.648,0.078l4.863-3.987l-0.832-4.122C3066.043,597.837,3061.415,597.548,3056.317,597.34z"/>
	<path style="fill:#CCE2EB;" d="M3250.686,2449.974c-33.444,9.211-78.928,9.633-109.797-8.077
		c-12.769-7.321-26.37-19.549-39.581-24.888c-11.338,8.811-427.043-0.383-482.617,5.019c-3.355,3.129-6.58,4.291-11.027,4.996
		c-55.143,8.746-112.899,9.295-168.607,14.236l-92.144,8.538c-14.628,1.334-30.479,4.088-45.136,3.456
		c-3.878-0.166-4.559-0.876-7.836-3.061c-3.984-7.708-2.694-14.987-0.161-22.942c0.395-1.238,0.837-2.463,1.277-3.688l-1.417-2.65
		c-172.429,1.3-344.861,1.483-517.294,0.549l-134.809-0.216c-26.172,0.143-53.117,1.753-79.165-0.224
		c0.689,1.454,1.779,3.44,2.018,5.092c0.687,4.746-2.66,10.4-5.766,13.768c-2.018,2.19-4.561,3.355-7.51,3.381
		c-9.919,0.091-23.01-16.01-29.792-22.672c-16.035,3.519-36.172,1.183-52.875,1.238h-124.81l-417.774-0.663
		c-22.469-0.062-128.779,3.644-143.28-1.755c-1.477,7.68-2.091,16.015-7.159,22.212c-5.771,2.692-8.826,1.878-14.891,1.371
		l-103.829-0.346l-5.532-21.382c-36.699,2.762-74.78,0.564-111.617,0.348c-16.093-0.094-33.163-1.212-49.073,1.345
		c-5.81,0.934-9.797,2.325-13.18,7.391c-3.066,4.59-3.188,10.686-2.125,15.945c1.319,6.525,4.45,10.496,9.768,14.254
		c28.497,7.453,141.155,2.84,178.814,2.712l293.698,0.637l1427.014-1.776l825.698-0.154l195.694,0.549
		c20.675,0.005,60.516,3.485,79.474-1.701c4.785-1.313,8.738-5.391,11-9.7c2.549-4.928,4.603-13.026,2.601-18.446
		c-11.052-30.068-156.998-3.363-188.022-16.735c-0.39-0.169-0.78-0.369-1.144-0.552
		C3299.629,2433.362,3269.41,2444.815,3250.686,2449.974z"/>
	<path style="fill:#061736;" d="M2293.78,2427.25c-2.533,7.955-3.823,15.234,0.161,22.942c3.277,2.185,3.958,2.895,7.836,3.061
		c14.657,0.632,30.507-2.122,45.136-3.456l92.144-8.538c55.707-4.941,113.464-5.49,168.607-14.236
		c4.447-0.705,7.672-1.867,11.027-4.996c-2.237-10.488-4.005-17.255-12.431-24.568c-103.632,9.931-207.366,18.632-311.202,26.102
		C2294.617,2424.788,2294.175,2426.012,2293.78,2427.25z"/>
	<path style="fill:#F7A952;" d="M2385.084,2318.717c-23.106,13.926-64.404,13.911-90.54,8.961
		c-7.011,7.505-6.697,11.313-6.343,21.458c0.835,23.998,3.989,47.827,5.438,71.776l1.417,2.65
		c103.836-7.47,207.57-16.171,311.202-26.102c-1.404-6.941-2.73-14.012-5.643-20.5c-19.307-42.954-48.74-22.347-81.529-35.612
		c-6.397-2.588-6.075-4.166-8.707-10.358c-17.164-9.802-63.358-22.485-83.237-28.185c-12.139-3.479-18.461-5.269-29.862,1.04
		C2395.669,2310.656,2391.024,2315.136,2385.084,2318.717z"/>
	<path style="fill:#122E5D;" d="M2160.734,1807.225c3.233,13.208,6.385,40.517,14.722,50.433c0.346,0.414,0.783,0.739,1.175,1.108
		c12.954-4.587,55.455-21.187,65.116-16.706c-2.286,4.801-8.707,6.858-13.617,8.598c-17.099,6.059-35.28,9.237-52.199,15.541
		c23.468,84.093,47.851,166.901,76.052,249.579c12.774,37.448,37.649,91.783,45.867,128.498l-2.887,1.503
		c-4.642-2.299-6.275-4.595-7.984-9.594c-22.586-66.031-47.817-131.215-69.477-197.848c-8.777-27.004-42.096-155.302-50.915-169.163
		c-4.827,0.356-9.823,0.112-14.67,0.13c-21.621,79.797,68.962,341.652,112.101,415.684c1.248,2.145,2.499,3.271,4.447,4.743
		l5.557-0.172c19.633-0.846,39.192-2.546,58.677-5.1c19.484-2.554,38.82-5.951,58.009-10.192c4.863-1.064,8.153-2.104,12.306-4.884
		c-0.226-16.178-5.311-34.057-8.218-50.015c-5.498-30.132-10.812-60.296-15.944-90.493
		c-20.417-117.586-41.693-237.031-72.598-352.341c-31.257-116.636-72.239-230.082-112.684-343.728
		c-21.538,6.626-46.062,6.847-68.424,8.33C2121.14,1566.247,2130.926,1685.388,2160.734,1807.225z"/>
	<path style="fill:#010611;" d="M2286.98,2236.185c1.708,4.998,3.342,7.295,7.984,9.594l2.887-1.503
		c-8.218-36.715-33.093-91.049-45.867-128.498c-28.201-82.678-52.584-165.486-76.052-249.579c16.92-6.304,35.1-9.482,52.199-15.541
		c4.91-1.74,11.331-3.797,13.617-8.598c-9.661-4.481-52.163,12.119-65.116,16.706c-4.876,2.611-7.719,3.058-9.671,8.634
		c-0.2,0.569-0.247,1.183-0.372,1.774c8.819,13.861,42.137,142.159,50.915,169.163
		C2239.163,2104.969,2264.394,2170.153,2286.98,2236.185z"/>
	<path style="fill:#F9B49B;" d="M2274.023,2289.56c4.369,0.273,8.801-0.624,11.869,2.928c6.899,7.986,9.066,22.1,11.206,32.055
		c-0.858,1.69-0.744,2.38-2.554,3.136c26.136,4.949,67.433,4.965,90.54-8.961c5.94-3.581,10.584-8.062,12.197-14.873
		c-5.347-8.647-5.617-19.733-6.572-29.576c-19.189,4.241-38.525,7.638-58.009,10.192
		C2313.215,2287.013,2293.656,2288.713,2274.023,2289.56z"/>
	<path style="fill:#061736;" d="M2113.682,1442.683c-14.631,45.432-29.085,91.085-47.383,135.212
		c-13.609,32.814-31.506,65.132-43.081,98.594c37.233,69.529,75.188,134.341,128.701,192.816c4.847-0.018,9.843,0.226,14.67-0.13
		c0.125-0.59,0.172-1.204,0.372-1.774c1.953-5.576,4.795-6.023,9.671-8.634c-0.393-0.369-0.83-0.694-1.175-1.108
		c-8.338-9.916-11.49-37.225-14.722-50.433c-29.808-121.838-39.594-240.979-35.586-366.088c22.363-1.482,46.886-1.703,68.424-8.33
		l-9.141-25.774c-21.354,5.394-42.411,8.699-64.328,10.816L2113.682,1442.683z"/>
	<path style="fill:#CCE2EB;" d="M3259.059,1752.163c1.197-2.244,2.029-4.452,2.549-6.954c3.875-18.186,0.494-79.809,0.416-102.804
		c-0.26-75.235,2.627-151.963-1.144-227.024c-0.234-4.226-0.962-7.167-3.199-10.811l-347.491,0.029
		c-58.565,0.089-119.159,3.735-177.49,0.008c-4.421-3.285-4.863-8.226-6.476-13.378c-5.617,3.745-12.847,7.539-14.407,14.641
		c-4.005,18.246-0.754,80.665-0.702,102.913c0.208,67.015-2.419,135.371,0.754,202.214c0.468,10.207,1.04,25.176,6.033,34.226
		c28.502,19.445,155.177,0.627,166.282,10.61l7.125-2.112l2.756,2.304c15.448-6.652,59.294-2.98,78.382-3.095
		c67.026-0.434,134.043-0.424,201.052,0.029c34.744,0.276,70.112,2.078,104.83,1.238c2.575-0.063,3.953-0.812,6.085-2.104
		C3276.093,1752.735,3267.407,1752.205,3259.059,1752.163z M3071.063,1615.375c-13.679,4.79-238.214,1.009-274.31,0.954
		c11.885-8.059,137.207-148.036,138.949-155.455c10.974,5.859,92.659,97.813,106.598,115.331
		c10.611-4.754,48.215-41.094,52.974-51.383c0.208-0.455,0.312-0.949,0.468-1.422c9.336,5.459,80.488,81.458,82.621,89.278
		c0.234,0.843,0.39,1.701,0.598,2.548L3071.063,1615.375z"/>
	<path style="fill:#559BB5;" d="M3095.742,1523.4c-0.156,0.473-0.26,0.967-0.468,1.422c-4.759,10.288-42.364,46.629-52.974,51.383
		c5.435,7.115,29.595,31.738,28.763,39.17l107.898-0.148c-0.208-0.848-0.364-1.706-0.598-2.548
		C3176.23,1604.858,3105.078,1528.858,3095.742,1523.4z"/>
	<path style="fill:#4BB3AC;" d="M3042.3,1576.205c-13.939-17.518-95.624-109.472-106.598-115.331
		c-1.742,7.419-127.065,147.396-138.949,155.455c36.096,0.055,260.631,3.836,274.31-0.954
		C3071.895,1607.942,3047.735,1583.32,3042.3,1576.205z"/>
	<path style="fill:#345991;" d="M1542.972,2190.131c23.14-6.075,71.475-45.177,93.205-60.391
		c133.582-93.52,237.268-191.864,321.93-332.808c23.603-39.292,42.267-80.936,65.111-120.444
		c11.575-33.462,29.473-65.779,43.081-98.594c18.298-44.127,32.752-89.78,47.383-135.212c-22.683-1.043-78.925,0.138-95.309-17.437
		c-15.59-1.384-26.38-6.34-40.096-13.791c-27.436,2.07-49.866,9.451-75.313,19.346l-0.666,1.04
		c-24.761,95.333-53.371,189.495-85.83,282.486c-12.959,37.672-24.804,76.775-40.736,113.308
		c11.744,6.837,58.971,29.751,63.262,40.616l-1.659,2.871c-16.329-4.164-50.241-26.508-65.761-36.174l-15.458,10.473
		c-9.362,7.217-19.671,14.231-28.172,22.391c-11.538,10.066-22.895,20.332-34.07,30.799
		c-47.019,47.49-91.396,97.333-133.132,149.529c-12.517,15.739-62.422,91.658-71.581,98.927
		c10.618,11.313,37.815,29.969,44.569,41.055C1536.077,2189.083,1540.517,2190.776,1542.972,2190.131z"/>
	<path style="fill:#122E5D;" d="M2018.372,1425.246c16.384,17.575,72.627,16.394,95.309,17.437l6.421-24.833
		c-28.716,1.204-55.398-0.13-83.908-3.823C2031.948,1420.169,2025.212,1422.778,2018.372,1425.246z"/>
	<path style="fill:#122E5D;" d="M1944.113,1377.306c-9.458,0.091-18.662-0.387-28.081-1.246
		c-4.379,17.653-10.785,36.804-13.068,54.74c25.447-9.895,47.877-17.276,75.313-19.346
		C1965.099,1401.669,1954.619,1389.773,1944.113,1377.306z"/>
	<path style="fill:#061736;" d="M1560.741,2048.139c41.736-52.196,86.113-102.039,133.132-149.529
		c11.176-10.466,22.532-20.733,34.07-30.799c8.501-8.161,18.81-15.174,28.172-22.391l15.458-10.473
		c15.52,9.666,49.432,32.011,65.761,36.174l1.659-2.871c-4.291-10.865-51.518-33.779-63.262-40.616
		c15.931-36.533,27.777-75.635,40.736-113.308c32.459-92.992,61.069-187.154,85.83-282.486l-8.332,7.274l-1.24,0.257
		c-25.177,91.501-53.056,182.171-83.638,272.011c-13.076,38.972-24.781,81.172-42.288,118.363l-13.46,8.012
		c-11.729,8.387-23.08,16.758-33.888,26.336c-7.427,6.137-19.876,14.686-24.768,22.794
		c-55.544,48.87-177.683,192.415-209.368,257.172l3.846,3.004C1498.32,2139.797,1548.225,2063.878,1560.741,2048.139z"/>
	<path style="fill:#345991;" d="M1694.682,1886.889c4.892-8.109,17.341-16.657,24.768-22.794
		c10.808-9.578,22.16-17.949,33.888-26.336l13.46-8.012c17.507-37.191,29.213-79.391,42.288-118.363
		c30.581-89.84,58.46-180.51,83.638-272.011l-3.854-2.603c-26.43,6.223-52.693,32.702-79.614,33.085
		c-1.464-1.69-1.797-2.026-2.278-4.299c-16.659,79.342-29.238,158.904-48.166,237.931c-6.527,27.264-12.374,56.139-22.248,82.366
		c-92.204,70.12-185.609,174.232-252.847,268.584c-10.174,14.275-26.646,33.392-30.138,50.587c1.105,3.441,2.135,6.161,4.221,9.177
		c9.622,9.482,18.475,19.83,27.514,29.863C1517,2079.304,1639.139,1935.76,1694.682,1886.889z"/>
	<path style="fill:#E76F5D;" d="M2100.673,911.473c-17.96,62.06-75.331,123.996-127.616,160.376
		c-17.278,14.712-35.1,30.908-54.576,42.616c26.547,47.248,50.277,97.673,82.137,141.605c14.256,6.858,50.348,19.354,55.608,34.367
		c1.061,3.024,0.174,4.85-0.471,7.869c-4.684,4.424-7.341,5.784-14.173,5.828c-8.301,0.052-16.925-1.755-25.083-3.129
		c4.585,5.849,9.266,12.106,15.247,16.602c14.725,11.065,55.536,23.106,53.206,45.666c-1.417,13.71-11.76,21.143-21.874,28.739
		c-9.274,6.969-21.863,11.625-26.885,22.014c28.51,3.693,55.192,5.027,83.908,3.823c21.917-2.117,42.975-5.422,64.328-10.816
		c1.802-1.347,3.427-3.181,5.058-4.744c4.86-23.66-10.423-54.318-11.224-78.897c-5.308-1.932-12.129-2.549-17.734-3.695
		l-0.601-1.324l1.56,1.397l-0.005-2.044l7.794-1.391c-0.32-10.829-0.239-21.694-0.346-32.528
		c-2.023-70.72-0.84-141.62-2.021-212.372c-0.635-38.138-5.188-77.547-3.256-115.521l2.489-1.178
		c-13.367-53.005-20.074-108.091-58.81-150.064c-7.414-2.991-14.909-9.794-21.986-14.033
		C2106.108,828.654,2112.862,869.356,2100.673,911.473z"/>
	<path style="fill:#345991;" d="M1960.013,1075.31l0.632-7.248c-16.342,8.78-35.763,19.387-42.072,38.502
		c-0.837,2.536-0.486,5.316-0.091,7.901c19.476-11.708,37.298-27.904,54.576-42.616
		C1968.485,1071.599,1964.324,1073.989,1960.013,1075.31z"/>
	<path style="fill:#4494DA;" d="M2062.819,902.103c-13.471,48.314-45.31,91.494-75.243,130.88
		c-8.665,11.404-19.538,22.966-26.932,35.079l-0.632,7.248c4.312-1.321,8.473-3.711,13.044-3.461
		c52.285-36.38,109.656-98.315,127.616-160.376c12.189-42.117,5.435-82.818-15.323-120.834
		c-7.443-8.247-14.951-15.973-23.304-23.301c-0.081,12.81,0.385,23.496-6.091,34.981
		C2074.038,834.808,2072.72,866.597,2062.819,902.103z"/>
	<path style="fill:#F9B49B;" d="M1911.413,1327.874c10.307,16.869,21.207,33.346,32.7,49.432
		c10.507,12.467,20.987,24.363,34.164,34.148c13.715,7.451,24.505,12.407,40.096,13.791c6.839-2.468,13.575-5.076,17.822-11.219
		c5.022-10.389,17.611-15.044,26.885-22.014c10.114-7.596,20.456-15.029,21.874-28.739c2.33-22.56-38.481-34.601-53.206-45.666
		c-5.981-4.496-10.662-10.753-15.247-16.602c8.158,1.373,16.782,3.181,25.083,3.129c6.832-0.044,9.49-1.404,14.173-5.828
		c0.645-3.019,1.532-4.845,0.471-7.869c-5.261-15.013-41.352-27.509-55.608-34.367
		C1973.021,1285.7,1943.564,1303.954,1911.413,1327.874z"/>
	<path style="fill:#E76F5D;" d="M1993.779,1255.736c-31.189-47.731-57.679-97.712-84.368-148.018
		c-16.022-6.075-33.251-7.089-49.393-13.086l2.078-1.082c17.788,1.155,32.518,3.516,49.198,9.952
		c17.983-19.265,33.997-40.725,50.433-61.332c39.196-49.138,89.312-105.443,101.641-168.89c5.485-28.219,0.244-51.039-15.63-74.681
		c-9.76-9.695-19.967-18.056-33.093-22.74c-24.958-8.902-48.896-0.559-71.706,10.218c-58.443,39.997-178.07,210.315-191.315,279.262
		c-9.05,47.11,13.973,79.875,39.402,116.837c6.219,9.038,12.491,18.039,18.818,27.002c14.394,18.308,28.476,37.009,43.573,54.74
		c17.206,20.243,35.28,39.477,53.905,58.414C1940.654,1303.715,1966.142,1281.865,1993.779,1255.736z"/>
	<path style="fill:#345991;" d="M1942.001,782.367l0.939,3.711c22.81-10.777,46.748-19.12,71.706-10.218
		c13.125,4.684,23.333,13.044,33.093,22.74l8.218,3.719c6.475-11.484,6.01-22.17,6.091-34.981
		c-14.636-11.867-29.324-18.415-46.746-24.935c-11.237-0.66-21.809-0.549-33.007,0.619c-2.244,8.207-4.382,16.454-7.047,24.536
		C1963.674,771.66,1952.476,775.798,1942.001,782.367z"/>
	<path style="fill:#345991;" d="M1907.652,1327.757l3.76,0.117c32.151-23.92,61.608-42.174,89.205-71.805
		c-31.86-43.932-55.59-94.357-82.137-141.605c-0.395-2.585-0.746-5.365,0.091-7.901c6.309-19.114,25.73-29.722,42.072-38.502
		c7.394-12.114,18.267-23.676,26.932-35.079c29.933-39.386,61.772-82.566,75.243-130.88c9.901-35.506,11.219-67.295-6.863-99.785
		l-8.218-3.719c15.874,23.642,21.114,46.462,15.63,74.681c-12.329,63.446-62.445,119.752-101.641,168.89
		c-16.436,20.607-32.45,42.067-50.433,61.332c-16.68-6.437-31.41-8.798-49.198-9.952l-2.078,1.082
		c16.142,5.997,33.371,7.011,49.393,13.086c26.69,50.306,53.179,100.286,84.368,148.018c-27.637,26.128-53.125,47.978-86.457,66.596
		c-18.625-18.938-36.7-38.172-53.905-58.414l-6.161,0.312C1861.058,1281.074,1888.913,1319.292,1907.652,1327.757z"/>
	<path style="fill:#FEFEFE;" d="M2294.545,2327.679c1.81-0.757,1.695-1.446,2.554-3.136c-2.14-9.955-4.307-24.068-11.206-32.055
		c-3.069-3.552-7.5-2.655-11.869-2.928l-5.557,0.172c-1.948-1.472-3.199-2.598-4.447-4.743
		c-43.139-74.031-133.722-335.887-112.101-415.684c-53.512-58.474-91.468-123.286-128.701-192.816
		c-22.844,39.508-41.508,81.151-65.111,120.444c-84.662,140.944-188.348,239.288-321.93,332.808
		c-21.73,15.213-70.065,54.316-93.205,60.391c-2.455,0.645-6.894-1.048-9.242-2.01c-8.728,7.276-16.056,16.082-23.598,24.547
		c7.654,3.313,13.864,6.788,20.474,11.877l7.292,25.902c0.005,8.928,0.255,16.451,4.296,24.68
		c2.044,12.514,3.937,25.551,9.456,37.092c13.791,28.851,46.589,56.433,22.859,89.518c-3.888,5.425-11.261,12.657-12.137,19.286
		c26.047,1.976,52.992,0.366,79.165,0.224l134.809,0.216c172.433,0.934,344.864,0.751,517.294-0.549
		c-1.448-23.949-4.603-47.778-5.438-71.776C2287.848,2338.991,2287.533,2335.184,2294.545,2327.679z M1942.68,2178.345
		c-4.442-3.831-3.927-5.183-4.907-10.795c5.854-0.167,15.232-1.472,20.675,0.276c5.555,1.786,6.374,6.561,8.449,11.385
		C1958.663,2179.066,1950.807,2180.433,1942.68,2178.345z M1976.607,2207.875c-4.561-1.04-5.648-1.126-9.177-4.439
		c-3.232-8.109-0.793-17.406,0.356-25.793c2.2,0.741,4.33,1.807,6.455,2.744C1979.715,2190.006,1978.448,2197.556,1976.607,2207.875
		z M1975.403,2166.773c-2.619-1.074-3.815-2.221-5.969-4.034c-4.091-10.566-2.171-19.491,0.637-30.021
		c2.731,1.053,4.052,2.119,6.361,3.869C1980.022,2147.018,1978.407,2156.453,1975.403,2166.773z M1981.187,2175.542
		c-2.169-1.797-1.93-5.11-2.351-7.807c7.014-0.343,19.46-2.4,25.382,1.654c2.79,1.914,2.468,4.327,3.126,7.479
		C2000.616,2177.422,1986.663,2180.075,1981.187,2175.542z"/>
	<path style="fill:#A2C6EC;" d="M2004.217,2169.389c-5.922-4.054-18.368-1.997-25.382-1.654c0.421,2.697,0.182,6.01,2.351,7.807
		c5.477,4.533,19.429,1.88,26.157,1.326C2006.686,2173.716,2007.008,2171.303,2004.217,2169.389z"/>
	<path style="fill:#A2C6EC;" d="M1967.786,2177.643c-1.15,8.387-3.589,17.684-0.356,25.793c3.529,3.313,4.616,3.399,9.177,4.439
		c1.841-10.319,3.108-17.869-2.366-27.488C1972.116,2179.45,1969.986,2178.384,1967.786,2177.643z"/>
	<path style="fill:#A2C6EC;" d="M1958.447,2167.826c-5.443-1.748-14.821-0.442-20.675-0.276c0.98,5.612,0.465,6.964,4.907,10.795
		c8.127,2.088,15.983,0.72,24.217,0.866C1964.821,2174.387,1964.002,2169.612,1958.447,2167.826z"/>
	<path style="fill:#A2C6EC;" d="M1970.072,2132.718c-2.808,10.53-4.728,19.455-0.637,30.021c2.153,1.813,3.35,2.959,5.969,4.034
		c3.004-10.319,4.619-19.754,1.03-30.185C1974.124,2134.837,1972.802,2133.771,1970.072,2132.718z"/>
</g>
</svg>
