<?xml version="1.0" encoding="utf-8"?>
<!-- Generator: Adobe Illustrator 27.5.0, SVG Export Plug-In . SVG Version: 6.00 Build 0)  -->
<svg version="1.1" id="Layer_1" xmlns="http://www.w3.org/2000/svg" xmlns:xlink="http://www.w3.org/1999/xlink" x="0px" y="0px"
	 viewBox="0 0 3000 3000" style="enable-background:new 0 0 3000 3000;" xml:space="preserve">
<g>
	<g>
		<g>
			<g>
				<path d="M1389.476,1348.073c0,21.907,1097.42,21.907,1097.42,0c51.062,0,92.455-50.401,92.455-112.573V575.926
					c0-62.172-41.393-112.573-92.455-112.573c0-24.721-1097.42-24.721-1097.42,0c-51.062,0-92.456,50.401-92.456,112.573V1235.5
					C1297.021,1297.672,1338.415,1348.073,1389.476,1348.073z"/>
			</g>
		</g>
		<g>
			<g>
				<path style="fill:#D4EEF4;" d="M1385.563,1368.15c0,21.907,1097.42,21.907,1097.42,0c51.062,0,92.455-50.401,92.455-112.573
					V596.003c0-62.172-41.393-112.573-92.455-112.573c0-24.721-1097.42-24.721-1097.42,0c-51.062,0-92.456,50.401-92.456,112.573
					v659.574C1293.108,1317.749,1334.502,1368.15,1385.563,1368.15z"/>
			</g>
		</g>
		<g>
			<g>
				<path style="fill:#FFFFFF;" d="M1423.316,633.006c8.477,0,967.332,0,967.332,0"/>
			</g>
			<g>
				<path d="M2390.649,635.25h-967.332c-1.238,0-2.247-1.01-2.247-2.247s1.01-2.247,2.247-2.247h967.332
					c1.238,0,2.247,1.01,2.247,2.247S2391.887,635.25,2390.649,635.25z"/>
			</g>
		</g>
		<g>
			<g>
				<ellipse style="fill:#FFCD00;" cx="2231.809" cy="561.723" rx="31.569" ry="29.096"/>
			</g>
		</g>
		<g>
			<g>
				<ellipse style="fill:#31CDFE;" cx="2315.637" cy="561.723" rx="31.569" ry="29.096"/>
			</g>
		</g>
		<g>
			<g>
				<ellipse style="fill:#FF97CC;" cx="2399.466" cy="561.723" rx="31.569" ry="29.096"/>
			</g>
		</g>
		<g>
			<g>
				<path style="fill:#EFEFEF;" d="M1305.703,2616.137c62.272,6.889,113.848,27.52,176.671,32.615
					c86.714,7.032,152.648-17.719,234.985-22.605c55.658-3.303,116.135,2.658,174.869,6.202
					c109.213,6.589,218.469,4.769,317.807-5.294c17.277-1.75,35.594-4.148,42.948-9.852c6.482-5.028,2.833-11.422,4.767-17.136
					c4.591-13.569,39.881-21.64,76.117-25.244c36.237-3.604,76.238-4.226,109.613-9.837c33.375-5.61,59.361-18.54,46.266-32.464
					c-16.08-17.099-77.345-24.374-125.417-24.207c-113.677,0.396-217.328,22.937-331.878,11.143
					c-97.526-10.042-171.964-41.986-261.472-61.485c-77.486-16.88-175.327-23.815-242.359-9.386
					c-42.202,9.084-68.497,25.591-114.562,32.469c-52.208,7.795-117.447,1.611-177.995-3.548
					c-75.99-6.475-156.526-11.137-222.954-1.956c-32.83,4.537-60.376,12.243-92.408,17.301
					c-90.763,14.333-204.565,6.046-311.119,1.845c-35.214-1.388-71.705-2.237-102.044,2.28c-30.339,4.517-52.67,15.876-43.878,28.36
					c11.133,15.808,61.793,25.04,105.404,30.974c30.766,4.187,68.011,9.074,91.426,18.495
					c26.193,10.538,18.947,27.031,54.475,34.413c29.058,6.038,72.626,0.693,104.424,3.32c26.587,2.196,48.597,6.902,73.254,11.413
					c66.259,12.121,120.445,14.231,185.634,7.604C1150.272,2624.238,1221.173,2606.786,1305.703,2616.137z"/>
			</g>
		</g>
		<g>
			<g>
				<path style="fill:#31CDFE;" d="M827.769,745.275c17.036-4.118,34.887-5.606,52.142-2.535
					c24.229,4.313,37.539,18.768,56.592,31.908c61.663,42.526,124.282,83.044,192.645,113.845
					c85.905,38.705,181.542,61.053,274.781,47.485c-2.278,39.552-4.556,79.103-6.835,118.655
					c-152.814,11.64-308.556-17.648-446.703-84.005"/>
			</g>
		</g>
		<g>
			<g>
				<g>
					<polyline style="fill:#FFC69F;" points="1259.436,2247.624 1274.394,2380.536 1378.714,2373.551 1370.9,2230.093 					"/>
				</g>
			</g>
			<g>
				<g>
					<g>
						<path style="fill:#FF2D35;" d="M1561.278,2462.323c-18.13,2.926-36.423,5.356-54.491,2.688
							c-10.023-1.428-21.226-0.07-31.425-0.183c-10.698,0.046-21.393,0.093-32.254-0.028c-21.391-0.073-42.94-0.312-64.329-0.549
							c-42.447-0.634-84.888-1.763-127.322-3.22c-3.453-0.203-4.662-9.924-4.515-23.25l0.002-0.165
							c0.113-10.2,1.075-22.695,2.358-34.857c2.548-21.856,6.398-42.711,9.739-47.281c15.202-20.4,35.158,19.97,59.358,18.922
							c14.323-0.499,27.556-7.1,38.516-15.863c6.473-5.194,11.005-13.206,17.145-18.074c7.635-6.004,10.552-1.693,19.878,2.852
							c34.368,17,69.895,33.025,108.011,38.383c13.472,1.959,27.941,2.778,39.048,10.469c9.302,6.685,17.562,18.953,19.905,30.168
							C1561.68,2425.964,1563.424,2461.854,1561.278,2462.323z"/>
					</g>
				</g>
				<g>
					<g>
						<path d="M1256.778,2472.185l295.113,3.268c6.944,0.077,12.635-5.49,12.712-12.434l0,0c0.077-6.944-5.49-12.635-12.434-12.712
							l-295.113-3.268c-6.944-0.077-12.635,5.49-12.712,12.434l0,0C1244.267,2466.416,1249.834,2472.108,1256.778,2472.185z"/>
					</g>
				</g>
				<g>
					<g>
						<path d="M1476.489,2456.933c-0.176,0-0.351-0.018-0.527-0.062c-1.211-0.298-1.949-1.51-1.659-2.712
							c12.79-52.742-113.806-93.668-115.088-94.072c-1.176-0.378-1.835-1.642-1.457-2.827c0.377-1.185,1.633-1.844,2.827-1.457
							c5.39,1.712,131.855,42.646,118.09,99.409C1478.42,2456.24,1477.507,2456.933,1476.489,2456.933z"/>
					</g>
				</g>
				<g>
					<g>
						<path d="M1452.594,2405.052c-1.185,0-2.177-0.922-2.247-2.124c-0.061-1.238,0.887-2.3,2.124-2.37
							c4.916-0.272,10.218-1.861,16.688-5.004c5.311-2.59,9.182-5.118,12.185-7.962c0.597-0.562,1.106-1.018,1.554-1.413
							c1.563-1.387,2.037-1.808,2.976-4.117c0.457-1.159,1.791-1.72,2.923-1.238c1.15,0.465,1.703,1.773,1.238,2.923
							c-1.273,3.152-2.247,4.1-4.152,5.794c-0.421,0.369-0.895,0.79-1.448,1.317c-3.345,3.169-7.576,5.943-13.308,8.735
							c-4.424,2.151-11.14,5.048-18.409,5.46C1452.673,2405.052,1452.638,2405.052,1452.594,2405.052z"/>
					</g>
				</g>
				<g>
					<g>
						<path d="M1422.887,2384.431c-1.036,0-1.966-0.72-2.195-1.765c-0.263-1.22,0.5-2.414,1.712-2.677
							c6.224-1.361,14.125-4.96,16.442-14.423c0.298-1.203,1.492-1.914,2.721-1.65c1.203,0.298,1.94,1.519,1.65,2.721
							c-2.239,9.138-9.288,15.441-19.849,17.741C1423.203,2384.413,1423.045,2384.431,1422.887,2384.431z"/>
					</g>
				</g>
				<g>
					<g>
						<path style="fill:#FFFFFF;" d="M1283.983,2421.242c-0.131,11.846-10.439,21.275-23.104,21.135
							c-5.266-0.058-10.184-1.758-13.937-4.596l0.002-0.165c0.113-10.2,1.075-22.695,2.358-34.857
							c3.48-1.936,7.606-3.042,12.049-2.993C1274.016,2399.906,1284.113,2409.562,1283.983,2421.242z"/>
					</g>
				</g>
			</g>
			<g>
				<g>
					<path d="M1319.194,2375.696c-14.66,0-26.503-8.779-38.283-18.611l-1.677-1.405c-0.957-0.79-1.089-2.203-0.298-3.16
						c0.799-0.939,2.239-1.089,3.16-0.299l1.686,1.405c12.325,10.297,24.624,19.366,39.899,17.268
						c14.845-2.01,28.583-9.779,37.695-21.323c0.781-0.974,2.203-1.124,3.16-0.369c0.974,0.772,1.141,2.186,0.369,3.16
						c-9.832,12.439-24.633,20.823-40.627,22.991C1322.547,2375.582,1320.853,2375.696,1319.194,2375.696z"/>
				</g>
			</g>
		</g>
		<g>
			<g>
				<g>
					<polyline style="fill:#FFC69F;" points="677.038,2279.549 598.803,2387.956 678.58,2450.385 769.02,2338.777 					"/>
				</g>
			</g>
			<g>
				<g>
					<g>
						<path style="fill:#FF2D35;" d="M757.565,2641.1c-15.427-9.962-30.645-20.402-42.281-34.479
							c-6.491-7.77-15.722-14.261-23.223-21.171c-7.979-7.127-15.955-14.251-23.943-21.611
							c-15.843-14.373-31.692-28.975-47.424-43.469c-31.11-28.884-61.885-58.132-92.434-87.619
							c-2.429-2.462,3.179-10.494,12.209-20.295l0.112-0.121c6.912-7.502,15.99-16.141,25.085-24.317
							c16.523-14.532,33.344-27.448,38.884-28.607c24.949-4.979,12.752,38.371,31.432,53.79
							c10.975,9.217,25.224,13.171,39.233,13.997c8.286,0.474,17.016-2.445,24.836-1.951c9.691,0.651,8.972,5.806,12.858,15.425
							c14.153,35.635,29.82,71.322,54.55,100.817c8.697,10.473,18.898,20.767,22.001,33.916c2.436,11.193,0.361,25.836-5.406,35.736
							C782.203,2614.358,759.474,2642.188,757.565,2641.1z"/>
					</g>
				</g>
				<g>
					<g>
						<path d="M524.746,2444.6l217.057,199.972c5.107,4.705,13.062,4.379,17.767-0.728l0,0c4.705-5.107,4.379-13.062-0.728-17.767
							l-217.057-199.972c-5.107-4.705-13.062-4.379-17.767,0.728l0,0C519.313,2431.94,519.639,2439.894,524.746,2444.6z"/>
					</g>
				</g>
				<g>
					<g>
						<path d="M699.688,2580.913c-0.711,0-1.422-0.342-1.852-0.983c-0.702-1.018-0.439-2.423,0.588-3.116
							c44.797-30.62-21.859-145.769-22.535-146.927c-0.623-1.071-0.263-2.449,0.808-3.073c1.053-0.65,2.432-0.281,3.073,0.808
							c2.853,4.881,69.412,119.942,21.183,152.897C700.566,2580.791,700.127,2580.913,699.688,2580.913z"/>
					</g>
				</g>
				<g>
					<g>
						<path d="M747.444,2536.581c-4.381,0-9.13-0.781-14.862-2.432c-4.723-1.361-11.649-3.696-17.329-8.26
							c-0.974-0.781-1.124-2.195-0.351-3.16c0.781-0.957,2.203-1.124,3.16-0.351c3.845,3.09,8.858,5.46,15.766,7.453
							c5.645,1.624,10.069,2.388,14.379,2.247c0.834-0.009,1.51-0.026,2.124-0.009c2.089-0.009,2.704,0.009,4.934-1.08
							c1.141-0.527,2.467-0.079,3.011,1.027c0.544,1.115,0.088,2.467-1.027,3.011c-3.046,1.492-4.302,1.554-6.953,1.536
							c-0.562-0.035-1.203-0.009-1.984,0.009C748.023,2536.581,747.733,2536.581,747.444,2536.581z"/>
					</g>
				</g>
				<g>
					<g>
						<path d="M721.283,2494.927c-4.539,0-9.279-1.352-14.002-4.056c-1.08-0.615-1.448-1.984-0.834-3.064
							c0.606-1.088,1.984-1.475,3.064-0.834c5.539,3.178,13.826,5.768,21.867,0.29c1.027-0.685,2.423-0.43,3.125,0.597
							c0.694,1.027,0.43,2.423-0.597,3.125C730.036,2493.61,725.76,2494.927,721.283,2494.927z"/>
					</g>
				</g>
				<g>
					<g>
						<path style="fill:#FFFFFF;" d="M579.057,2424.965c-8.027,8.713-21.997,8.818-31.312,0.236
							c-3.873-3.568-6.389-8.123-7.277-12.744l0.112-0.121c6.912-7.502,15.99-16.141,25.085-24.317
							c3.881,0.891,7.687,2.831,10.955,5.842C585.934,2402.441,586.972,2416.373,579.057,2424.965z"/>
					</g>
				</g>
			</g>
			<g>
				<g>
					<path d="M675.196,2428.806c-12.483,0-24.993-3.81-35.474-10.964c-14.248-9.7-17.592-25.686-19.998-42.603l-0.307-2.168
						c-0.184-1.229,0.667-2.37,1.896-2.546c1.264-0.228,2.37,0.676,2.546,1.896l0.316,2.204c2.256,15.863,5.346,30.83,18.075,39.504
						c12.369,8.436,27.732,11.86,42.278,9.402c1.317-0.29,2.379,0.606,2.59,1.835c0.211,1.22-0.615,2.388-1.835,2.59
						C681.955,2428.526,678.575,2428.806,675.196,2428.806z"/>
				</g>
			</g>
		</g>
		<g>
			<g>
				<path d="M1054.959,1308.8c2.08,8.726,310.497,299.221,310.497,299.221s137.741,144.448,104.57,304.73
					c-0.585,3.35-1.17,6.7-1.755,10.051c-3.024,17.324-6.049,34.649-9.073,51.973c-4.657,26.678-9.314,53.355-13.972,80.033
					c-5.218,29.887-10.435,59.774-15.653,89.661c-4.705,26.953-9.411,53.905-14.116,80.858c-1.825,10.456-3.651,20.912-5.476,31.368
					c-0.722,4.137-1.444,8.274-2.167,12.411c-0.983,5.63-0.099,13.061-4.577,17.114c-1.965,1.779-4.652,2.592-7.297,2.755
					c-2.645,0.164-5.287-0.268-7.902-0.698c-7.507-1.234-15.134-1.825-22.714-2.802c-2.596-0.334-21.804-4.477-22.928-2.955
					c-18.256-2.353-36.511-4.706-54.767-7.058c-8.436-1.087-16.872-2.175-25.308-3.262c-3.979-0.513-7.476-1.605-11.315-2.511
					c-5.452-1.287-11.41-0.936-16.97-1.954c-1.99-0.364-4.029-0.813-5.693-1.964c-2.239-1.55-3.498-4.175-4.198-6.806
					c-3.108-11.685-1.338-25.117-1.184-37.133c0.322-25.112,0.645-50.225,0.967-75.337c0.387-30.185,0.775-60.37,1.163-90.555
					c0.374-29.171,0.749-58.341,1.123-87.512c0.283-22.069,0.567-44.139,0.85-66.208c0.114-8.881,0.228-17.763,0.342-26.644
					c0.585-45.663-32.178-87.193-64.113-116.64c-50.798-46.839-104.217-90.794-154.888-137.738
					c-49.726-45.937-89.911-101.009-131.868-153.823c-7.426-9.347-14.901-18.656-22.483-27.877
					c-33.09-40.255-66.18-80.51-99.27-120.764L1054.959,1308.8z"/>
			</g>
		</g>
		<g>
			<g>
				<path d="M916.129,1368.357c-2.224,8.69,135.373,409.409,135.373,409.409s54.599,191.981-49.414,318.36
					c-245.995,318.677-229.476,298.445-233.065,299.365c-5.411,1.388-10.327-2.173-14.408-5.26
					c-6.068-4.588-12.542-8.664-18.795-13.06c-2.141-1.505-17.208-14.118-18.912-13.295c-80.238-56.406-64.734-45.081-74.892-53.925
					c-9.273-8.073-21.588-9.685-18.774-22.002c2.349-10.279-10.311,15.513,181.474-337.736c21.788-40.133,12.142-92.144-2.4-133.077
					c-23.132-65.11-49.927-128.887-72.898-194.031c-22.603-63.812-32.509-131.263-45.036-197.541
					c-2.217-11.73-4.496-23.449-6.909-35.141c-10.53-51.034-21.059-102.069-31.589-153.103L916.129,1368.357z"/>
			</g>
		</g>
		<g>
			<g>
				<path style="fill:#31CDFE;" d="M936.229,792.658c-16.366-22.456-36.982-44.823-64.358-49.587
					c-15.524-2.702-31.39,0.655-46.788,3.998c-53.45,11.604-106.9,23.208-160.35,34.812c-30.659,6.656-64.324,15.265-81.924,41.237
					c-20.793,30.683-10.449,71.748-0.926,107.569c19.189,72.183,17.688,148.115,24.23,222.015
					c3.671,41.464,24.473,99.437,11.152,139.95c-10.277,31.256-43.534,76.634-0.99,102.32
					c30.748,18.564,67.824-11.753,90.366-22.755c21.509-10.498,45.411-15.144,69.208-17.702
					c91.086-9.791,183.679,9.524,274.476-2.654c15.539-2.084,31.538-5.33,44.175-14.609c34.954-25.664,28.406-72.903,13.518-113.4
					c-14.528-39.52-43.396-72.092-58.323-110.124c-11.483-29.258-10.206-67.891-17.476-99.156
					C1013.864,935.637,984.22,858.508,936.229,792.658z"/>
			</g>
		</g>
		<g>
			<g>
				<path d="M664.559,755.844c1.248,5.711,36.261,2.912,78.205-6.251c41.944-9.163,71.116-24.801,69.868-30.511
					s-32.442,0.668-74.386,9.831C696.302,738.076,663.311,750.133,664.559,755.844z"/>
			</g>
		</g>
		<g>
			<g>
				<path style="fill:#FFC69F;" d="M669.797,688.271l15.308,97.946c19.08-0.763,112.474-5.687,121.009-22.775
					c1.363-2.73,1.98,7.839-18.065-84.652"/>
			</g>
		</g>
		<g>
			<g>
				<path style="fill:#FFC69F;" d="M605.612,637.588c2.097,9.426,7.209,15.972,12.881,23.421c5.82,7.644,11.363,15.145,18.33,21.877
					c12.815,12.382,28.106,22.34,44.977,28.207c18.543,6.449,38.72,7.642,57.76,2.653c60.507-15.856,94.134-87.571,75.107-160.18
					c-19.027-72.609-83.502-118.616-144.01-102.761c-33.571,8.797-58.751,35.505-71.001,67.308
					c-3.143,8.16-5.479,16.625-7.038,25.227c-0.784,4.322-2.194,8.995-2.07,13.406c0.074,2.637,2.524,6.927,1.858,9.363
					c-0.936,3.419-2.771,2.155-6.05,1.789c-5.096-0.568-10.1-0.576-15.015,1.139c-8.792,3.072-15.433,12.554-17.424,21.476
					c-1.099,4.927,0.036,10.068,1.541,14.887c3.44,11.013,9.111,21.727,18.251,28.768c9.14,7.041,22.216,9.702,32.497,4.466
					c-1.113,0.567,0.505,6.382,0.87,7.242c0.831,1.961,1.956,2.794,3.4,4.216c3.238,3.188,5.331,7.245,7.905,10.991"/>
			</g>
		</g>
		<g>
			<g>
				<path d="M766.686,701.739c-0.737,0-1.457-0.36-1.887-1.027c-0.676-1.045-0.378-2.44,0.667-3.108
					c42.629-27.459,61.74-87.312,46.483-145.54c-18.681-71.3-82.098-116.659-141.265-101.156c-1.238,0.281-2.432-0.404-2.748-1.607
					c-0.307-1.203,0.404-2.432,1.607-2.748c61.643-16.153,127.448,30.681,146.761,104.369c15.74,60.09-4.161,121.961-48.396,150.457
					C767.529,701.625,767.108,701.739,766.686,701.739z"/>
			</g>
		</g>
		<g>
			<g>
				
					<ellipse transform="matrix(0.9891 -0.1474 0.1474 0.9891 -74.6064 120.0094)" cx="772.238" cy="563.273" rx="8.332" ry="14.545"/>
			</g>
		</g>
		<g>
			<g>
				
					<ellipse transform="matrix(0.9891 -0.1474 0.1474 0.9891 -77.755 109.9836)" cx="703.033" cy="579.499" rx="8.332" ry="14.545"/>
			</g>
		</g>
		<g>
			<g>
				<path d="M592.071,612.224c-3.678,0-7.137-1.563-9.323-4.231c-2.563-3.125-3.073-7.514-1.273-10.921
					c0.992-1.896,2.634-3.476,5.179-4.969c2.432-1.431,4.67-2.168,6.839-2.256c3.055-0.342,5.741,1.071,7.357,3.195
					c0.746,0.992,0.553,2.397-0.43,3.152c-0.983,0.737-2.405,0.562-3.151-0.43c-0.72-0.948-2.116-1.685-3.59-1.422
					c-1.422,0.053-2.967,0.588-4.749,1.642c-1.782,1.045-2.888,2.054-3.476,3.178c-0.939,1.782-0.615,4.293,0.773,5.987
					c1.378,1.685,3.74,2.765,6.171,2.572c0.035,0,0.061,0,0.088,0c1.203,0,2.203,0.948,2.247,2.16
					c0.044,1.247-0.922,2.282-2.16,2.335C592.405,612.224,592.238,612.224,592.071,612.224z"/>
			</g>
		</g>
		<g>
			<g>
				<path d="M619.241,659.902c-1.939-2.606-4.41-2.654-7.789-9.065c-1.843-3.497-2.856-7.61-1.839-11.516
					c-13.777,1.272-25.512-1.58-38.364-19.076c-10.402-14.161-17.773-35.819-0.752-48.223c6.958-5.07,16.497-6.377,24.561-3.365
					c6.383,2.384,11.552,7.128,16.546,11.763c-1.791-1.662,4.884-10.51,5.759-11.89c2.521-3.975,5.76-6.934,8.685-10.635
					c5.28-6.68,4.38-20.462,4.172-28.579c-0.095-3.715-0.306-7.432-0.52-11.118c19.667,9.49,42.664,13.414,63.63,7.307
					c20.966-6.107,39.199-23.346,43.16-44.821c22.382,16.192,53.599,19.238,78.689,7.679c14.516-6.687,26.662-18.124,34.727-31.875
					c2.946-5.023,10.338-16.962,9.086-23.032c-1.667-8.079-7.466-6.343-15.004-8.02c-32.79-7.296-55.136-34.87-84.963-48.36
					c-133.95-60.587-223.555-10.106-238.971,59.273c-60.507,1.689-68.625,102.676-43.591,149.837
					C501.393,633.147,588.857,667.996,619.241,659.902z"/>
			</g>
		</g>
		<g>
			<g>
				<path d="M745.574,622.415c-1.15,0-2.124-0.869-2.239-2.037c-0.114-1.238,0.79-2.335,2.028-2.449
					c6.347-0.597,10.447-2.476,12.185-5.574c2.282-4.064-0.149-9.305-0.176-9.358c-0.544-1.115-0.079-2.458,1.036-3.002
					c1.097-0.553,2.458-0.07,3.002,1.036c0.149,0.298,3.52,7.365,0.061,13.519c-2.511,4.468-7.787,7.111-15.687,7.857
					C745.714,622.415,745.644,622.415,745.574,622.415z"/>
			</g>
		</g>
		<g>
			<g>
				<path style="fill:#31CDFE;" d="M812.632,719.081l13.247,51.008c0,0-88.714,39.779-145.935,38.307l-15.621-52.247
					C664.323,756.149,778.001,747.822,812.632,719.081z"/>
			</g>
		</g>
		<g>
			<g>
				<path d="M744.362,547.455c-0.492,0-0.983-0.158-1.396-0.492c-0.974-0.773-1.132-2.186-0.36-3.152
					c0.202-0.281,22.166-27.293,48.467-9.209c1.027,0.702,1.282,2.107,0.579,3.125c-0.702,1.036-2.107,1.282-3.125,0.579
					c-22.886-15.731-41.619,7.313-42.409,8.296C745.679,547.165,745.021,547.455,744.362,547.455z"/>
			</g>
		</g>
		<g>
			<g>
				<path d="M668.419,569.428c-0.676,0-1.334-0.298-1.782-0.878c-0.746-0.974-0.579-2.37,0.386-3.125
					c0.211-0.193,0.536-0.588,0.992-1.106c14.283-16.328,31.261-20.902,50.451-13.624c1.159,0.439,1.747,1.738,1.299,2.897
					c-0.43,1.159-1.712,1.791-2.897,1.299c-26.011-9.815-40.654,6.882-45.464,12.387c-0.764,0.869-1.308,1.448-1.615,1.685
					C669.384,569.279,668.901,569.428,668.419,569.428z"/>
			</g>
		</g>
		<g>
			<g>
				<path d="M677.504,802.482c-1.159,0-2.133-0.878-2.239-2.054c-0.105-1.229,0.808-2.326,2.045-2.432
					c0.641-0.053,64.725-5.855,117.045-25.607c1.115-0.456,2.449,0.14,2.897,1.317c0.43,1.159-0.149,2.458-1.317,2.897
					c-52.909,19.971-117.589,25.818-118.239,25.871C677.636,802.482,677.566,802.482,677.504,802.482z"/>
			</g>
		</g>
		<g>
			<g>
				<path d="M682.991,713.265c-4.144,0-8.305-1.15-11.816-3.353c-1.053-0.658-1.369-2.045-0.711-3.099
					c0.676-1.053,2.072-1.343,3.099-0.711c4.161,2.607,9.455,3.345,14.151,2.019c1.22-0.307,2.44,0.351,2.774,1.545
					c0.342,1.194-0.351,2.432-1.545,2.774C687.012,712.993,685.01,713.265,682.991,713.265z"/>
			</g>
		</g>
		<g>
			<g>
				<path style="fill:#FFFFFF;" d="M993.183,1608.797c-0.966,0-1.861-0.623-2.151-1.598l-14.616-48.528
					c-0.36-1.194,0.316-2.44,1.501-2.8c1.22-0.351,2.458,0.316,2.8,1.501l14.616,48.528c0.36,1.194-0.316,2.441-1.501,2.8
					C993.613,1608.771,993.394,1608.797,993.183,1608.797z"/>
			</g>
		</g>
		<g>
			<g>
				<path style="fill:#FFFFFF;" d="M748.629,1453.047c-1.08,0-2.028-0.772-2.212-1.861c-0.211-1.229,0.606-2.388,1.826-2.598
					c8.884-1.545,15.415-5.864,19.409-12.852c12.668-22.175-2.958-64.172-3.116-64.593c-0.439-1.167,0.14-2.458,1.299-2.897
					c1.141-0.474,2.458,0.14,2.897,1.299c0.685,1.808,16.539,44.393,2.827,68.412c-4.688,8.217-12.273,13.282-22.543,15.055
					C748.883,1453.038,748.752,1453.047,748.629,1453.047z"/>
			</g>
		</g>
		<g>
			<g>
				<path style="fill:#FFFFFF;" d="M1136.09,1415.448c-0.079,0-0.167-0.009-0.246-0.018c-65.128-7.277-73.521-54.331-73.6-54.805
					c-0.193-1.22,0.632-2.37,1.852-2.572c1.273-0.29,2.388,0.623,2.59,1.844c0.298,1.808,8.05,44.183,69.65,51.074
					c1.238,0.132,2.124,1.247,1.984,2.476C1138.197,1414.597,1137.222,1415.448,1136.09,1415.448z"/>
			</g>
		</g>
		<g>
			<g>
				<path style="fill:#FFFFFF;" d="M973.15,1523.566c-7.383,0-15.205-2.634-23.377-7.874c-1.045-0.667-1.352-2.054-0.676-3.099
					c0.667-1.053,2.063-1.343,3.099-0.676c10.385,6.654,19.98,8.691,28.548,6.005c12.606-3.933,19.471-17.013,20.972-20.164
					l-38.047-132.838c-0.342-1.185,0.351-2.432,1.545-2.774c1.15-0.369,2.432,0.351,2.774,1.545l38.275,133.628
					c0.14,0.483,0.114,1.01-0.088,1.475c-0.307,0.746-7.752,18.295-24.062,23.412
					C979.208,1523.109,976.223,1523.566,973.15,1523.566z"/>
			</g>
		</g>
		<g>
			<g>
				<path style="fill:#FFFFFF;" d="M744.143,2278.543c-0.439,0-0.869-0.123-1.255-0.386c-1.036-0.693-1.299-2.089-0.606-3.116
					l163.616-241.956c86.583-133.768-78.683-502.944-80.359-506.657c-0.518-1.124-0.009-2.458,1.124-2.967
					c1.141-0.536,2.458-0.009,2.967,1.124c6.9,15.248,167.952,375.127,80.017,510.976l-163.642,241.991
					C745.574,2278.201,744.863,2278.543,744.143,2278.543z"/>
			</g>
		</g>
		<g>
			<g>
				<path style="fill:#FFFFFF;" d="M1322.337,2210.693c-0.079,0-0.158,0-0.246-0.018c-1.229-0.132-2.125-1.238-1.984-2.476
					l31.032-284.752c20.621-106.116-38.459-205.384-39.056-206.367c-1.361-1.264-169.971-168.593-187.897-181.989
					c-0.992-0.746-1.203-2.151-0.456-3.143c0.746-1.001,2.151-1.185,3.143-0.456c18.18,13.58,181.761,175.923,188.714,182.823
					c0.948,1.44,60.915,102.192,39.987,209.809l-31.006,284.567C1324.444,2209.842,1323.469,2210.693,1322.337,2210.693z"/>
			</g>
		</g>
		<g>
			<g>
				<path style="fill:#FFFFFF;" d="M1434.535,1199.336h426.334c16.374,0,29.648-13.274,29.648-29.648V729.139
					c0-16.374-13.274-29.648-29.648-29.648h-426.334c-16.374,0-29.648,13.274-29.648,29.648v440.549
					C1404.887,1186.062,1418.161,1199.336,1434.535,1199.336z"/>
			</g>
			<g>
				<path d="M1860.869,1201.584h-426.333c-17.583,0-31.893-14.309-31.893-31.893V729.137c0-17.584,14.309-31.893,31.893-31.893
					h426.333c17.583,0,31.893,14.309,31.893,31.893v440.554C1892.762,1187.275,1878.453,1201.584,1860.869,1201.584z
					 M1434.536,701.739c-15.108,0-27.398,12.29-27.398,27.398v440.554c0,15.108,12.29,27.398,27.398,27.398h426.333
					c15.108,0,27.398-12.29,27.398-27.398V729.137c0-15.108-12.29-27.398-27.398-27.398H1434.536z"/>
			</g>
		</g>
		<g>
			<g>
				<path style="fill:#FFFFFF;" d="M1464.197,1168.805h367.009c16.374,0,29.648-13.274,29.648-29.648V759.669
					c0-16.374-13.274-29.648-29.648-29.648h-367.009c-16.374,0-29.648,13.274-29.648,29.648v379.488
					C1434.55,1155.532,1447.823,1168.805,1464.197,1168.805z"/>
			</g>
			<g>
				<path d="M1831.206,1171.052h-367.007c-17.584,0-31.893-14.309-31.893-31.893v-379.49c0-17.584,14.309-31.893,31.893-31.893
					h367.007c17.584,0,31.893,14.309,31.893,31.893v379.49C1863.099,1156.743,1848.79,1171.052,1831.206,1171.052z
					 M1464.199,732.271c-15.108,0-27.398,12.29-27.398,27.398v379.49c0,15.108,12.29,27.398,27.398,27.398h367.007
					c15.108,0,27.398-12.29,27.398-27.398v-379.49c0-15.108-12.29-27.398-27.398-27.398H1464.199z"/>
			</g>
		</g>
		<g>
			<g>
				<g>
					<path d="M1509.955,758.263l18.982,36.764c-28.339-2.215-56.367,6.879-84.767,8.176c-25.083,1.146-50.761-3.7-75.549,1.641
						c-12.623,2.72-13.779,5.568-14.923,17.025c-0.718,7.191-1.532,14.375-2.298,21.562c-2.832,26.577-5.664,53.154-8.496,79.731
						l95.656,67.166c27.048-7.389,54.096-14.778,81.143-22.167c16.824-4.596,33.65-9.185,50.472-13.789
						c9.764-2.672,11.643-2.002,16.879,6.53c5.02,8.179,10.044,16.357,15.066,24.535c1.76,2.867,3.521,5.733,5.281,8.6
						c-7.634,10.321-17.736,18.791-27.525,27.276c-111.136,96.329-215.74,83.911-310.235,33.571
						c-738.751,255.043-699.197,241.864-707.027,243.255c-26.729,4.749-30.578,44.549-36.585,62.215
						c-1.277,3.757-2.835,5.171-8.416,4.178c-45.035-8.012-87.239-35.305-106.618-75.115
						c-32.445-66.649-9.251-126.201,6.447-135.955c34.621-21.511,733.861-250.052,772.418-262.627
						c1.707-0.557,5.085-19.032,5.691-20.944c20.209-63.751,61.849-125.018,125.893-146.13
						C1396.212,699.113,1502.814,741.964,1509.955,758.263z"/>
				</g>
			</g>
			<g>
				<g>
					<path style="fill:#CB6532;" d="M1531.145,795.202l-151.627,57.797l-12.02,112.79l95.656,67.166l146.005-39.887
						c0,0-70.719,234.538-314.923,104.442l-771.372,266.305c0,0-168.04-37.721-83.041-166.136
						c9.769-14.759,774.632-264.217,774.632-264.217S1268.905,661.369,1531.145,795.202z"/>
				</g>
			</g>
			<g>
				<g>
					
						<ellipse transform="matrix(0.3584 -0.9336 0.9336 0.3584 -100.3228 1846.3724)" style="fill:#FFFFFF;" cx="1293.108" cy="996.173" rx="36.997" ry="41.734"/>
				</g>
			</g>
		</g>
		<g>
			<g>
				<path style="fill:#31CDFE;" d="M616.463,803.058c-25.757,1.84-49.36,17.837-63.53,39.424
					c-32.894,50.11-32.685,286.863,16.679,339.694c14.267,15.269,34.45,23.751,54.788,28.549
					c49.489,11.676,102.207,3.634,149.323-15.485c47.117-19.119,89.221-48.806,128.521-81.07
					c-17.138-25.462-29.831-53.909-37.332-83.671c0.26,1.515-102.502,27.72-114.789,27.981
					c-20.883,0.443-44.355-25.703-52.094-42.449c-13.137-28.425-3.201-61.642,6.86-91.296"/>
			</g>
		</g>
		<g>
			<g>
				<path d="M672.509,1218.456c-15.722,0-32.051-1.633-48.625-5.548c-5.109-1.203-10.034-2.599-14.651-4.152
					c-1.176-0.404-1.808-1.677-1.413-2.853c0.413-1.176,1.703-1.782,2.853-1.413c4.477,1.519,9.27,2.879,14.248,4.047
					c57.465,13.537,112.208-0.878,147.963-15.38c40.057-16.258,79.095-40.794,126.359-79.438
					c-16.311-24.633-28.364-51.574-35.861-80.157c-18.365,6.821-106.511,27.021-113.218,27.161
					c-11.491,0.325-22.728-5.601-35.044-17.829c-9.042-8.998-15.117-17.232-19.129-25.923c-13.185-28.513-3.889-61.556,6.768-92.957
					c0.404-1.176,1.694-1.817,2.844-1.405c1.176,0.395,1.808,1.668,1.405,2.844c-10.359,30.541-19.427,62.627-6.944,89.638
					c3.784,8.182,9.577,16.003,18.224,24.615c11.193,11.114,21.402,16.53,31.199,16.53c0.193,0,0.386,0,0.579-0.009
					c10.763-0.219,106.291-24.211,113.376-27.433c0.281-0.237,0.615-0.413,1.001-0.492c1.229-0.307,2.344,0.474,2.642,1.642
					c7.488,29.681,19.945,57.588,37.019,82.967c0.65,0.966,0.456,2.256-0.439,2.993c-48.335,39.688-88.155,64.795-129.098,81.413
					C748.479,1207.905,712.452,1218.456,672.509,1218.456z"/>
			</g>
		</g>
		<g>
			<g>
				<g>
					<path style="fill:#FFC69F;" d="M950.965,981.269c6.767-3.662,15.49-10.723,22.018-4.372c5.207,5.1,3.587,14.996-1.468,19.797
						c2.286-1.493,5.426-1.531,7.956-2.077c2.923-0.662,5.731-1.717,8.655-2.38c5.687-1.311,11.547-2.475,17.218-3.06
						c11.661-1.196,33.118-1.891,37.423,10.301c1.301,3.753-0.195,9.609-4.618,11.533c2.952-0.343,6.616-0.829,9.316,0.543
						c3.297,1.722,5.557,5.39,6.028,8.895c1.187,8.841-6.26,11.193-13.247,15.118c5.081,3.66,2.385,13.248-1.752,17.483
						c-4.794,5.019-12.621,7.649-19.382,8.651c7.104,1.948,1.617,11.865-2.299,14.952c-5.884,4.553-14.351,8.125-21.392,10.522
						c-6.183,2.081-12.453,4.088-18.722,6.095c-6.197,1.92-12.958,2.922-19.14,5.002c-5.47,1.935-11.476,3.275-17.076,4.659
						c-3.316,0.778-6.674,1.076-9.917,1.766c0.552-0.129,1.192-0.186,1.832-0.242l-5.453,1.208c1.091-0.419,2.196-0.678,3.302-0.938
						c-3.431,0.385-6.573,1.308-10.034,1.374c-0.726-0.017-1.453-0.032-2.267-0.121c-3.386-0.022-6.715-0.291-10.044-0.559
						c-2.602-0.253-5.217-0.665-7.715-1.572c-5.223-5.259-11.021-12.481-16.206-20.967c-7.114-11.136-11.859-21.917-13.761-29.728
						c0.983-4.359,2.563-8.368,4.561-12.171c3.213-6.492,7.935-12.31,13.777-18.228c9.848-9.82,21.525-18.11,32.938-25.732
						C930.621,990.893,941.199,986.569,950.965,981.269"/>
				</g>
			</g>
			<g>
				<g>
					<path d="M998.09,1088.48c-0.913,0-1.773-0.562-2.107-1.475c-0.43-1.167,0.167-2.458,1.334-2.879
						c7.664-2.809,13.932-6.005,18.119-9.244c2.528-1.993,5.32-6.944,4.811-9.463c-0.114-0.562-0.413-1.185-1.729-1.545
						c-1.018-0.281-1.712-1.247-1.65-2.3c0.07-1.062,0.869-1.931,1.914-2.089c7.76-1.159,14.353-4.073,18.093-7.989
						c2.467-2.519,4.152-7.102,3.863-10.438c-0.14-1.677-0.755-2.906-1.8-3.661c-0.623-0.448-0.974-1.185-0.939-1.949
						c0.044-0.764,0.474-1.457,1.141-1.835c1.018-0.571,2.037-1.106,3.037-1.633c6.321-3.327,9.858-5.487,9.086-11.237
						c-0.404-3.011-2.353-5.899-4.837-7.198c-1.993-1.018-5.188-0.65-7.734-0.334c-1.22,0.123-2.291-0.562-2.572-1.633
						c-0.29-1.08,0.114-2.186,1.132-2.634c3.406-1.484,4.284-6.163,3.389-8.735c-3.678-10.403-23.553-9.981-35.07-8.796
						c-4.819,0.5-10.201,1.457-16.934,3.011c-1.44,0.325-2.836,0.746-4.24,1.168c-1.466,0.439-2.932,0.878-4.424,1.22
						c-0.764,0.158-1.554,0.281-2.361,0.404c-1.782,0.263-3.617,0.544-4.863,1.352c-0.983,0.632-2.282,0.413-2.994-0.483
						c-0.72-0.913-0.623-2.221,0.219-3.029c2.379-2.256,3.933-6.057,3.968-9.683c0.018-2.818-0.878-5.258-2.528-6.874
						c-3.977-3.88-9.121-1.282-16.003,2.8c-1.159,0.685-2.291,1.361-3.371,1.94c-2.072,1.124-4.187,2.212-6.321,3.274
						c-1.08,0.536-2.44,0.105-3.011-1.01c-0.553-1.106-0.105-2.458,1.01-3.011c2.081-1.045,4.143-2.098,6.18-3.204
						c1.036-0.562,2.116-1.203,3.222-1.861c6.198-3.669,14.695-8.682,21.429-2.151c2.537,2.493,3.915,6.084,3.889,10.13
						c-0.026,2.528-0.588,5.074-1.589,7.374c0.035,0,0.07-0.009,0.097-0.018c0.711-0.105,1.405-0.202,2.054-0.342
						c1.369-0.316,2.739-0.729,4.117-1.141c1.492-0.448,2.993-0.895,4.521-1.238c6.9-1.598,12.457-2.581,17.478-3.108
						c22.447-2.291,36.238,1.765,39.767,11.79c1.027,2.923,0.702,6.663-0.922,9.7c1.571,0.097,3.116,0.404,4.521,1.124
						c3.801,1.984,6.637,6.136,7.242,10.596c1.22,9.147-5.513,12.685-11.447,15.81c-0.149,0.079-0.298,0.158-0.448,0.237
						c0.773,1.264,1.238,2.774,1.387,4.477c0.404,4.635-1.747,10.508-5.109,13.949c-4.477,4.688-10.868,7.12-15.96,8.384
						c0.228,0.465,0.395,0.974,0.509,1.519c0.992,4.89-3.187,11.324-6.443,13.896c-4.635,3.582-11.14,6.918-19.348,9.92
						C998.608,1088.436,998.345,1088.48,998.09,1088.48z"/>
				</g>
			</g>
			<g>
				<g>
					<path d="M971.087,1025.266c-0.781,0-1.545-0.413-1.958-1.141c-0.606-1.08-0.228-2.449,0.852-3.064
						c20.612-11.684,62.82-11.851,65.049-11.851c0.018,0,0.026,0,0.035,0c1.247,0,2.247,1.01,2.247,2.247
						c0,1.247-1.01,2.247-2.247,2.247l0,0l0,0c-0.571,0-43.208,0.123-62.872,11.272
						C971.842,1025.169,971.465,1025.266,971.087,1025.266z"/>
				</g>
			</g>
			<g>
				<g>
					<path d="M978.18,1046.826c-0.904,0-1.756-0.553-2.098-1.448c-0.448-1.159,0.14-2.458,1.299-2.897
						c16.39-6.242,57.605-9.753,59.352-9.902c1.273-0.088,2.318,0.816,2.423,2.054c0.105,1.229-0.816,2.318-2.054,2.423
						c-0.421,0.035-42.322,3.608-58.123,9.621C978.716,1046.782,978.444,1046.826,978.18,1046.826z"/>
				</g>
			</g>
			<g>
				<g>
					<path d="M967.988,1073.258c-0.922,0-1.782-0.571-2.116-1.484c-0.421-1.168,0.184-2.458,1.352-2.879
						c9.112-3.274,25.721-6.356,49.38-9.182c1.159-0.132,1.905-0.219,2.133-0.263c1.159-0.167,2.37,0.597,2.599,1.8
						c0.228,1.194-0.527,2.353-1.721,2.607c-0.158,0.035-1.036,0.149-2.476,0.325c-23.325,2.774-39.6,5.785-48.388,8.945
						C968.498,1073.214,968.243,1073.258,967.988,1073.258z"/>
				</g>
			</g>
			<g>
				<g>
					<path d="M938.22,1017.295c-1.106,0-2.063-0.808-2.221-1.931c-0.176-1.229,0.676-2.361,1.905-2.537
						c4.776-0.685,13.923-5.574,27.196-14.529c0.966-0.658,1.58-1.045,1.703-1.106c1.15-0.509,2.476-0.061,3.002,1.053
						c0.518,1.08,0.097,2.379-0.948,2.95c-0.184,0.105-0.615,0.404-1.247,0.825c-5.153,3.485-20.849,14.072-29.075,15.248
						C938.431,1017.286,938.326,1017.295,938.22,1017.295z"/>
				</g>
			</g>
		</g>
		<g>
			<g>
				<path d="M736.576,663.254c-0.536,0-1.08-0.193-1.51-0.579c-0.922-0.834-0.992-2.256-0.158-3.178L747.4,645.67
					c0.773-0.843,2.072-0.983,3.002-0.298l10.455,7.716l5.882-15.916c0.219-0.606,0.693-1.089,1.299-1.317
					c0.623-0.219,1.29-0.184,1.852,0.105l16.135,8.454c1.097,0.579,1.519,1.94,0.948,3.037c-0.571,1.106-1.923,1.554-3.037,0.948
					l-13.87-7.269l-6.031,16.319c-0.246,0.658-0.79,1.168-1.466,1.369c-0.65,0.202-1.387,0.079-1.975-0.342l-11.219-8.278
					l-11.131,12.316C737.796,663.008,737.19,663.254,736.576,663.254z"/>
			</g>
		</g>
		<g>
			<g>
				<g>
					<path d="M1538.528,902.845c-0.307-0.178,0.008-3.624,0.009-3.973c0.008-3.592,0.017-7.184,0.025-10.776
						c0.031-13.37,0.062-26.739,0.093-40.109c0.009-3.698,0.017-7.395,0.026-11.093c0.007-2.836,0.542-6.247-0.202-8.971
						c-0.981-3.591-2.183-7.135-3.263-10.763c1.01-7.506,2.019-15.012,3.029-22.518c0.152-1.128,0.076-2.605,0.9-3.369
						c0.334-0.31,0.899-0.516,1.293-0.742c1.694-0.973,3.388-1.945,5.082-2.918c5.919-3.399,11.838-6.798,17.757-10.197
						c7.776-4.466,15.552-8.931,23.328-13.397c7.811-4.486,15.623-8.971,23.434-13.457c6.025-3.46,12.049-6.919,18.074-10.379
						c2.416-1.388,4.833-2.775,7.249-4.163l96.317,55.908l-0.259,111.367l-96.576,55.459
						C1634.845,958.753,1538.53,902.846,1538.528,902.845z"/>
				</g>
			</g>
			<g>
				<g>
					<polygon style="fill:#FFFFFF;" points="1536.702,928.421 1536.961,817.054 1633.537,761.594 1729.854,817.502 
						1729.595,928.869 1633.019,984.328 					"/>
				</g>
				<g>
					<path d="M1633.02,986.578c-0.386,0-0.781-0.105-1.132-0.307l-96.319-55.911c-0.693-0.404-1.115-1.141-1.115-1.949
						l0.263-111.365c0-0.799,0.43-1.536,1.124-1.94l96.582-55.463c0.685-0.404,1.545-0.395,2.247,0.009l96.319,55.911
						c0.693,0.404,1.115,1.141,1.115,1.949l-0.263,111.365c0,0.799-0.43,1.536-1.132,1.94l-96.573,55.463
						C1633.793,986.482,1633.407,986.578,1633.02,986.578z M1538.949,927.13l94.08,54.603l94.317-54.164l0.263-108.776
						l-94.08-54.603l-94.317,54.164L1538.949,927.13z"/>
				</g>
			</g>
		</g>
		<g>
			<g>
				<path style="fill:#FFCD00;" d="M1779.88,1011.846h142.384c15.851,0,28.7-12.849,28.7-28.7v-29.711
					c0-15.851-12.849-28.7-28.7-28.7H1779.88c-15.851,0-28.7,12.849-28.7,28.7v29.711
					C1751.18,998.997,1764.029,1011.846,1779.88,1011.846z"/>
			</g>
		</g>
		<g>
			<g>
				<g>
					<path d="M1888.69,993.465c-0.105,0-0.537-0.93-0.589-1.019c-0.532-0.922-1.064-1.843-1.596-2.765
						c-1.981-3.43-3.961-6.861-5.942-10.291c-0.94-1.628-1.767-3.297-2.645-4.948c-0.632-1.189-2.757-1.921-4.062-1.921
						c-0.271-1.393-0.541-2.786-0.812-4.179c-0.181-0.932-0.362-1.865-0.543-2.797c-0.224-1.151,0.238-1.602,0.841-2.647
						c1.011-1.751,2.022-3.503,3.033-5.254c1.328-2.301,2.657-4.602,3.985-6.902c1.334-2.311,2.669-4.622,4.003-6.934
						c1.029-1.783,2.058-3.565,3.088-5.348c0.413-0.715,0.826-1.43,1.238-2.145c4.3,0,8.6,0,12.9,0c6.059,0,12.118,0,18.177,0
						c0.435,0,0.911-0.055,1.343,0c0.89,0.113,1.246,0.811,1.828,1.508c1.146,1.371,2.292,2.743,3.438,4.193
						c1.28,3.201,2.362,6.514,4.076,9.484c2.399,4.156,4.799,8.312,7.198,12.468c0.047,0.081,0.58,0.841,0.533,0.923
						c0,0-16.498,28.575-16.498,28.575S1888.691,993.465,1888.69,993.465z"/>
				</g>
			</g>
			<g>
				<g>
					<polygon style="fill:#FFFFFF;" points="1892.026,1000.29 1875.528,971.715 1892.026,943.14 1925.021,943.14 1941.519,971.715 
						1925.021,1000.29 					"/>
				</g>
				<g>
					<path d="M1925.023,1002.538h-32.999c-0.799,0-1.545-0.43-1.949-1.124l-16.495-28.574c-0.395-0.693-0.395-1.554,0-2.247
						l16.495-28.574c0.404-0.694,1.15-1.124,1.949-1.124h32.999c0.799,0,1.545,0.43,1.949,1.124l16.495,28.574
						c0.395,0.693,0.395,1.554,0,2.247l-16.495,28.574C1926.568,1002.108,1925.822,1002.538,1925.023,1002.538z M1893.324,998.043
						h30.4l15.196-26.327l-15.196-26.327h-30.4l-15.196,26.327L1893.324,998.043z"/>
				</g>
			</g>
		</g>
		<g>
			<g>
				<g>
					<path d="M2035.831,929.075c0.325,3.497,2.594,6.511,6.036,7.608c10.311,3.175,31.023,13.05,26.922,40.226
						c-0.445,3.005,0.417,6.081,2.684,8.152l25.745,22.566c2.645,2.259,6.245,2.746,9.506,1.507
						c10.328-4.14,34.392-10.612,49.828,9.722c1.992,2.696,5.26,4.286,8.627,3.86l37.493-4.754c3.367-0.427,6.149-2.667,7.423-5.659
						c3.525-8.467,13.973-24.653,42.581-24.153c2.83-0.005,5.644-1.069,7.497-3.192c7.357-8.953,26.474-32.136,26.371-32.948
						c-0.335-0.783-22.927-30.118,5.957-45.103c2.552-1.267,4.507-3.52,5.112-6.192l5.093-24.943
						c0.648-3.267-0.607-6.646-3.338-8.659c-8.081-6.052-23.796-21.161-18.872-42.78c0.764-3.282-0.011-6.604-2.54-8.878
						l-31.022-27.912c-2.805-2.593-6.999-3.122-10.421-1.273c-10.485,5.693-34.939,13.748-57.605-18.054
						c-1.849-2.478-4.885-4.098-8.034-3.817l-35.481,2.022c-3.512,0.21-6.539,2.363-7.914,5.486
						c-4.828,11.228-19.513,36.797-50.264,30.552c-3.395-0.749-6.978,0.767-9.106,3.514l-18.537,23.109
						c-2.143,2.631-2.544,5.984-1.217,9c4.459,10.05,12.019,34.331-10.955,50.337c-2.711,1.877-4.464,4.812-4.165,8.076
						L2035.831,929.075z M2085.919,906.447c-5.446-42.949,27.167-82.469,72.901-88.268c45.621-5.785,87.065,24.344,92.511,67.293
						c5.431,42.833-27.181,82.352-72.802,88.137C2132.795,979.408,2091.351,949.28,2085.919,906.447z"/>
				</g>
			</g>
			<g>
				<g>
					<path style="fill:#FF9A32;" d="M2036.301,940.155c0.325,3.497,2.594,6.511,6.036,7.608
						c10.311,3.174,31.023,13.05,26.922,40.226c-0.446,3.005,0.417,6.081,2.684,8.152l25.745,22.566
						c2.645,2.259,6.246,2.746,9.507,1.507c10.328-4.14,34.392-10.612,49.828,9.722c1.992,2.696,5.26,4.286,8.627,3.86l37.493-4.754
						c3.367-0.427,6.149-2.667,7.423-5.659c3.525-8.467,13.972-24.653,42.581-24.153c2.83-0.005,5.644-1.069,7.497-3.192
						c7.356-8.953,26.474-32.136,26.371-32.948c-0.335-0.783-22.928-30.118,5.957-45.103c2.552-1.267,4.506-3.52,5.112-6.192
						l5.093-24.943c0.648-3.267-0.606-6.646-3.338-8.659c-8.081-6.052-23.796-21.161-18.872-42.78
						c0.765-3.282-0.011-6.604-2.54-8.878l-31.021-27.912c-2.805-2.593-6.999-3.122-10.421-1.273
						c-10.485,5.693-34.939,13.748-57.605-18.054c-1.849-2.478-4.885-4.098-8.034-3.817l-35.481,2.022
						c-3.512,0.21-6.539,2.363-7.914,5.486c-4.828,11.228-19.513,36.797-50.264,30.552c-3.395-0.749-6.978,0.767-9.106,3.514
						l-18.537,23.109c-2.143,2.631-2.544,5.984-1.217,9c4.459,10.05,12.019,34.331-10.955,50.337
						c-2.711,1.877-4.464,4.812-4.165,8.076L2036.301,940.155z M2086.389,917.527c-5.446-42.949,27.167-82.468,72.901-88.268
						c45.621-5.785,87.065,24.344,92.511,67.293c5.431,42.833-27.181,82.352-72.802,88.137
						C2133.265,990.489,2091.821,960.36,2086.389,917.527z"/>
				</g>
			</g>
		</g>
		<g>
			<g>
				<g>
					<path d="M2242.704,1094.985c0.257,2.759,2.047,5.138,4.762,6.003c8.136,2.505,24.479,10.297,21.243,31.74
						c-0.351,2.371,0.329,4.798,2.118,6.432l20.314,17.805c2.087,1.782,4.928,2.167,7.501,1.189
						c8.149-3.267,27.137-8.374,39.317,7.671c1.572,2.127,4.151,3.382,6.807,3.045l29.584-3.751
						c2.657-0.337,4.852-2.104,5.857-4.465c2.781-6.681,11.025-19.453,33.598-19.058c2.233-0.004,4.453-0.844,5.915-2.518
						c5.804-7.064,20.889-25.357,20.808-25.997c-0.265-0.618-18.091-23.765,4.7-35.589c2.014-1,3.556-2.777,4.034-4.886
						l4.019-19.681c0.511-2.578-0.479-5.244-2.634-6.832c-6.376-4.775-18.776-16.697-14.891-33.755
						c0.603-2.589-0.009-5.211-2.004-7.005l-24.478-22.024c-2.213-2.046-5.522-2.464-8.223-1.004
						c-8.273,4.492-27.569,10.848-45.453-14.246c-1.459-1.955-3.855-3.233-6.339-3.012l-27.997,1.595
						c-2.771,0.166-5.16,1.864-6.245,4.328c-3.809,8.859-15.397,29.035-39.661,24.107c-2.679-0.591-5.506,0.606-7.185,2.772
						l-14.626,18.234c-1.691,2.076-2.007,4.721-0.96,7.102c3.519,7.93,9.483,27.089-8.644,39.718
						c-2.139,1.481-3.522,3.797-3.286,6.372L2242.704,1094.985z M2282.226,1077.13c-4.297-33.889,21.436-65.072,57.522-69.648
						c35.998-4.565,68.699,19.208,72.996,53.097c4.286,33.798-21.448,64.98-57.445,69.545
						C2319.213,1134.701,2286.512,1110.928,2282.226,1077.13z"/>
				</g>
			</g>
			<g>
				<g>
					<path style="fill:#FF97CC;" d="M2243.075,1103.728c0.257,2.759,2.047,5.138,4.762,6.003
						c8.136,2.505,24.479,10.297,21.243,31.74c-0.352,2.371,0.329,4.798,2.117,6.432l20.314,17.805
						c2.087,1.782,4.928,2.167,7.501,1.189c8.149-3.267,27.137-8.374,39.317,7.671c1.572,2.127,4.15,3.382,6.807,3.045l29.584-3.751
						c2.656-0.337,4.852-2.104,5.857-4.465c2.781-6.681,11.025-19.453,33.598-19.058c2.233-0.004,4.453-0.844,5.915-2.518
						c5.805-7.064,20.889-25.357,20.808-25.997c-0.265-0.618-18.091-23.765,4.701-35.589c2.013-1,3.556-2.778,4.034-4.886
						l4.019-19.681c0.511-2.578-0.479-5.244-2.634-6.832c-6.377-4.775-18.776-16.697-14.891-33.755
						c0.603-2.589-0.009-5.211-2.004-7.005l-24.478-22.024c-2.214-2.046-5.522-2.464-8.223-1.005
						c-8.273,4.492-27.569,10.848-45.453-14.246c-1.459-1.955-3.854-3.234-6.339-3.012l-27.997,1.596
						c-2.771,0.166-5.16,1.864-6.245,4.328c-3.809,8.859-15.397,29.035-39.661,24.107c-2.679-0.591-5.506,0.606-7.185,2.772
						l-14.626,18.234c-1.691,2.076-2.007,4.722-0.96,7.102c3.519,7.93,9.483,27.089-8.644,39.718
						c-2.139,1.481-3.522,3.797-3.286,6.372L2243.075,1103.728z M2282.597,1085.873c-4.297-33.889,21.436-65.072,57.523-69.648
						c35.997-4.565,68.699,19.208,72.996,53.097c4.286,33.797-21.448,64.98-57.445,69.545
						C2319.584,1143.444,2286.882,1119.671,2282.597,1085.873z"/>
				</g>
			</g>
		</g>
		<g>
			<g>
				<path style="fill:#FF98CB;" d="M1755.41,2508.431c65.712,18.958,237.192,72.585,280.88,86.275
					c6.708,2.102,13.927,2.502,20.843,1.167l410.071-79.183c16.974-3.278,28.771-16.314,28.273-31.242l-12.5-374.727
					c-0.57-17.077-16.914-30.861-36.882-31.103l-679.296-8.259c-20.378-0.248-36.898,13.68-36.899,31.108l-0.014,375.638
					C1729.885,2491.812,1740.159,2504.031,1755.41,2508.431z"/>
			</g>
		</g>
		<g>
			<g>
				<polygon style="fill:#FFFFFF;" points="2481.805,2080.026 2416.845,2093.969 2147.337,2151.607 2050.029,2172.344 
					2044.644,2170.645 1915.521,2129.743 1840.611,2105.974 1794.058,2091.252 1729.798,2070.875 1812.038,2053.221 
					1860.452,2042.781 2165.258,1977.631 2179.012,1982.135 2233.808,1999.779 				"/>
			</g>
			<g>
				<path d="M2050.031,2174.596c-0.228,0-0.457-0.035-0.676-0.105l-320.235-101.472c-0.974-0.307-1.615-1.229-1.571-2.247
					c0.053-1.018,0.781-1.878,1.773-2.089l435.463-93.246c0.386-0.088,0.79-0.079,1.176,0.062l13.756,4.503l54.779,17.636
					l248.004,80.245c0.966,0.316,1.606,1.238,1.554,2.256s-0.781,1.87-1.773,2.081l-431.784,92.324
					C2050.346,2174.578,2050.188,2174.596,2050.031,2174.596z M1738.548,2071.298l311.597,98.733l423.006-90.446l-308.015-99.628
					L1738.548,2071.298z"/>
			</g>
		</g>
		<g>
			<g>
				<polygon points="2416.845,2093.969 2147.337,2151.607 2050.029,2172.344 2044.644,2170.645 1915.521,2129.743 
					1840.611,2105.974 1794.058,2091.252 1810.481,2087.743 1858.895,2077.304 2163.701,2012.154 2177.46,2016.537 
					2232.251,2034.302 				"/>
			</g>
		</g>
		<g>
			<g>
				<path d="M2050.136,2590.368c-1.334-0.114-2.265-1.027-2.247-2.282l6.364-376.813c0.018-1.229,1.027-2.212,2.247-2.212
					c0.009,0,0.026,0,0.035,0c1.247,0.017,2.23,1.044,2.212,2.282l-6.365,376.813
					C2052.365,2589.385,2051.356,2590.368,2050.136,2590.368z"/>
			</g>
		</g>
		<g>
			<g>
				<g>
					<path d="M2391.918,1750.481l22.521,10.804c-14.065,9.666-23.786,24.754-36.575,36.163
						c-11.296,10.077-25.094,17.446-34.694,29.466c-6.131,7.677-4.523,7.616,6.28,25.431c8.545,14.09,17.089,28.181,25.634,42.271
						l69.638-3.397c46.777-65.613,42.583-59.724,48.153-67.542c4.943-6.94,4.166-5.603,26.462,3.094
						c1.887,0.736,3.774,1.472,5.661,2.208c0.265,7.951-1.311,15.932-2.735,23.801c-2.759,15.247-5.842,31.233-15.474,43.35
						c-10.548,13.27-14.44,72.514-117.031,90.789c-59.359,96.005-124.492,204.684-130.887,211.705
						c-11.93,13.096-16.496,9.43-32.819,16.484c-3.529,1.525-7.184,3.576-10.968,2.902c-6.659-1.186-8.893-9.358-12.911-14.799
						c-12.073-16.345-41.458-7.888-54.731-23.274c-2.054-26.323,20.706-49.378,34.38-71.118
						c38.208-60.208,83.16-130.575,109.744-171.974c2.902-4.52-6.083-1.704-13.829-44.368
						C2256.043,1773.017,2381.048,1744.376,2391.918,1750.481z"/>
				</g>
			</g>
			<g>
				<g>
					<path style="fill:#CB6532;" d="M2415.536,1760.533l-49.394,85.831l36.263,59.798l69.638-3.397l53.417-74.926
						c0,0,54.038,141.693-108.382,170.626c-42.062,68.03-84.125,136.061-126.187,204.091c-4.98,8.054-9.631,19.83-16.12,26.559
						c-6.422,6.66-18.836,10.063-27.653,11.382c-5.469,0.818-11.159,0.898-16.423-0.795c-8.157-2.624-14.372-9.127-21.581-13.758
						c-11.323-7.274-25.559-9.864-38.72-7.044c-15.38,3.296-21.916-4.086-13.222-16.909c7.853-11.583,15.185-23.521,22.664-35.356
						c15.056-23.823,30.15-47.621,45.269-71.404c24.353-38.306,48.771-76.571,73.244-114.8c1.89-2.952,22.098-28.858,20.535-32.04
						C2318.873,1948.366,2243.315,1794.475,2415.536,1760.533z"/>
				</g>
			</g>
			<g>
				<g>
					
						<ellipse transform="matrix(0.9347 -0.3556 0.3556 0.9347 -537.6177 973.2028)" style="fill:#FFFFFF;" cx="2378.924" cy="1949.264" rx="24.911" ry="22.916"/>
				</g>
			</g>
		</g>
		<g>
			<g>
				<path style="fill:#31CDFE;" d="M2130.604,2203.34c-125.229-134.216-115.536-123.827-239.121-256.281
					c-14.519-15.561-30.94-28.376-44.187-44.897c-6.05,3.874-13.117,7.163-17.616,12.859c-4.872,6.169-9.86,11.721-16.675,15.819
					c-10.598,6.372-13.058-0.872-16.708-3.41c0.675-1.908-2.084-5.641-2.873-7.531c-4.462-10.681,4.499,10.174-30.866-85.49
					c-4.668-12.628,0.399-26.785,12.02-33.582l36.719-21.477c10.163-5.944,22.97-4.83,31.953,2.78l74.681,63.264l-29.981,27.28
					l296.336,333.198"/>
			</g>
		</g>
		<g>
			<g>
				<path style="fill:#FFFFFF;" d="M2156.419,2184.112c-1.757-1.713-3.514-3.427-5.271-5.141
					c-27.367-26.691-54.733-53.382-82.1-80.073c-39.186-38.218-78.371-76.436-117.556-114.654
					c-15.334-14.955-30.667-29.91-46.001-44.865c-15.235-14.859-32.242-26.887-46.253-42.766
					c-5.253,3.724-10.506,7.447-15.759,11.171c-6.253,4.432-12.506,8.865-18.758,13.297c-5.954,4.221-10.166,10.084-14.88,2.453
					c-6.025-9.752-9.5-22.394-13.973-32.938c-8.155-19.223-16.31-38.446-24.465-57.669c-5.258-12.394-0.863-26.774,10.425-34.111
					l35.667-23.183c9.871-6.417,22.717-5.907,32.049,1.272l77.578,59.676l-28.662,28.662l311.703,318.869"/>
			</g>
			<g>
				<path d="M2156.418,2186.359c-0.562,0-1.133-0.211-1.572-0.641l-250.927-244.73c-6.101-5.961-12.624-11.561-18.927-16.978
					c-8.84-7.611-17.97-15.459-26.09-24.405l-32.885,23.307c-1.027,0.729-2.002,1.51-2.941,2.265
					c-3.081,2.467-6.048,4.723-9.376,4.222c-2.168-0.377-4.064-1.914-5.776-4.679c-4.152-6.733-7.093-14.704-9.946-22.421
					c-1.369-3.713-2.721-7.383-4.187-10.824l-24.466-57.667c-5.68-13.422-0.939-28.934,11.272-36.879l35.667-23.184
					c10.675-6.9,24.598-6.347,34.649,1.378l77.577,59.677c0.509,0.395,0.834,0.992,0.869,1.633c0.044,0.65-0.193,1.282-0.65,1.738
					l-27.091,27.091l310.148,317.276c0.869,0.887,0.851,2.309-0.035,3.178c-0.887,0.86-2.309,0.86-3.178-0.035l-311.702-318.865
					c-0.86-0.878-0.852-2.291,0.017-3.16l26.854-26.854l-75.549-58.114c-8.55-6.566-20.401-7.058-29.452-1.167l-35.667,23.184
					c-10.394,6.751-14.423,19.936-9.586,31.348l24.466,57.667c1.484,3.503,2.862,7.242,4.266,11.026
					c2.765,7.506,5.627,15.257,9.551,21.613c0.676,1.089,1.694,2.432,2.713,2.607c1.326,0.237,3.52-1.484,5.803-3.301
					c1.001-0.799,2.045-1.642,3.151-2.423l34.517-24.466c0.939-0.658,2.221-0.509,2.985,0.351
					c8.243,9.34,17.777,17.54,27.003,25.467c6.356,5.469,12.931,11.123,19.137,17.18l250.928,244.73
					c0.887,0.86,0.904,2.282,0.035,3.178C2157.586,2186.131,2157.007,2186.359,2156.418,2186.359z"/>
			</g>
		</g>
		<g>
			<g>
				<polygon style="fill:#FF98CB;" points="2050.149,2172.405 2167.488,2311.376 2603.118,2217.956 2481.954,2080.053 				"/>
			</g>
		</g>
		<g>
			<g>
				<path d="M2167.488,2313.622c-0.65,0-1.282-0.29-1.721-0.799l-117.458-139.027c-0.509-0.606-0.658-1.431-0.404-2.177
					c0.255-0.746,0.887-1.308,1.65-1.466l431.934-92.298c0.738-0.176,1.615,0.096,2.151,0.711l121.162,137.903
					c0.527,0.597,0.702,1.431,0.448,2.186c-0.246,0.764-0.887,1.325-1.659,1.492l-435.63,93.422
					C2167.804,2313.605,2167.646,2313.622,2167.488,2313.622z M2054.165,2173.762l114.166,135.129l430.573-92.333l-117.765-134.032
					L2054.165,2173.762z"/>
			</g>
		</g>
		<g>
			<g>
				<polygon style="fill:#FF98CB;" points="1732.818,2070.945 1607.402,2186.994 1923.256,2286.314 2050.029,2172.344 				"/>
			</g>
		</g>
		<g>
			<g>
				<path d="M1923.259,2288.56c-0.228,0-0.457-0.035-0.676-0.105l-315.854-99.321c-0.764-0.237-1.343-0.869-1.519-1.65
					c-0.176-0.781,0.079-1.598,0.667-2.142l125.411-116.044c0.597-0.544,1.44-0.746,2.212-0.492l318.347,101.446
					c0.764,0.246,1.343,0.887,1.51,1.677c0.176,0.79-0.097,1.606-0.702,2.142l-127.904,113.92
					C1924.338,2288.366,1923.803,2288.56,1923.259,2288.56z M1611.776,2186.008l310.938,97.776l124.007-110.444l-313.344-99.857
					L1611.776,2186.008z"/>
			</g>
		</g>
		<g>
			<g>
				<ellipse cx="1637.032" cy="877.921" rx="52.595" ry="49.373"/>
			</g>
		</g>
		<g>
			<g>
				<g>
					<ellipse cx="1973.774" cy="1391.51" rx="201.497" ry="182.042"/>
				</g>
			</g>
			<g>
				<g>
					<path d="M1901.419,1388.059c-0.468,3.682,31.158,2.134,49.53,0.928c4.987-0.327,7.966,5.371,4.928,9.339l-58.563,76.482
						c-2.232,2.915-6.574,3.057-8.992,0.294l-67.732-77.399c-3.29-3.759-0.62-9.643,4.376-9.643h37.524
						c2.939,0,5.374-2.104,5.751-5.019c2.484-19.171,16.42-86.741,89.538-87.453c3.225-0.031,5.959,2.712,5.959,5.938v23.783
						C1963.739,1325.307,1909.841,1321.82,1901.419,1388.059z"/>
				</g>
			</g>
			<g>
				<g>
					<path d="M2040.205,1399.091c0.719-3.642-30.99-4.411-49.391-4.551c-4.99-0.038-7.546-5.923-4.241-9.662l63.644-72.005
						c2.432-2.751,6.773-2.588,8.99,0.339l62.272,82.161c3.022,3.988-0.069,9.677-5.059,9.311l-37.36-2.741
						c-2.942-0.216-5.531,1.722-6.11,4.615c-3.802,18.985-22.344,85.306-95.313,80.649c-3.208-0.205-5.731-3.123-5.512-6.33
						l1.627-23.75C1973.754,1457.125,2027.279,1464.547,2040.205,1399.091z"/>
				</g>
			</g>
		</g>
		<g>
			<g>
				<g>
					<ellipse style="fill:#6566FF;" cx="1972.558" cy="1410.571" rx="201.497" ry="182.042"/>
				</g>
			</g>
			<g>
				<g>
					<path style="fill:#FFFFFF;" d="M1900.204,1399.456c-0.468,3.682,31.158,2.134,49.531,0.928
						c4.987-0.328,7.966,5.371,4.928,9.339l-58.563,76.482c-2.232,2.915-6.574,3.057-8.992,0.294l-67.732-77.399
						c-3.29-3.759-0.62-9.644,4.375-9.644h37.524c2.939,0,5.374-2.104,5.752-5.019c2.483-19.172,16.42-86.741,89.538-87.453
						c3.225-0.031,5.959,2.712,5.959,5.938v23.783C1962.523,1336.703,1908.625,1333.217,1900.204,1399.456z"/>
				</g>
			</g>
			<g>
				<g>
					<path style="fill:#FFFFFF;" d="M2038.99,1410.488c0.719-3.642-30.99-4.411-49.391-4.551c-4.99-0.038-7.546-5.923-4.241-9.662
						l63.644-72.005c2.432-2.751,6.773-2.588,8.99,0.339l62.272,82.161c3.022,3.988-0.069,9.677-5.059,9.311l-37.36-2.741
						c-2.942-0.216-5.531,1.722-6.11,4.615c-3.802,18.985-22.344,85.306-95.313,80.649c-3.208-0.205-5.731-3.123-5.512-6.33
						l1.627-23.75C1972.538,1468.522,2026.063,1475.944,2038.99,1410.488z"/>
				</g>
			</g>
		</g>
		<g>
			<g>
				<polygon points="2112.689,1228.529 1751.18,1606.554 1783.965,1625.542 2147.31,1254.661 				"/>
			</g>
		</g>
	</g>
</g>
</svg>
