<?xml version="1.0" encoding="utf-8"?>
<!-- Generator: Adobe Illustrator 27.5.0, SVG Export Plug-In . SVG Version: 6.00 Build 0)  -->
<svg version="1.1" id="Layer_1" xmlns="http://www.w3.org/2000/svg" xmlns:xlink="http://www.w3.org/1999/xlink" x="0px" y="0px"
	 viewBox="0 0 2373 2373" style="enable-background:new 0 0 2373 2373;" xml:space="preserve">
<g>
	<path style="fill:#FEFEFE;" d="M0,0h2373.489v2373.489H0V0z"/>
	<path style="fill:#7C7BB9;" d="M1706.963,577.395c-2.707-0.466-1.553,0.1-3.516-1.571l0.693-1.664l3.85-1.333
		c30.278,6.46,86.723,22.242,112.986,36.865c25.402,11.093,50.002,23.747,73.798,37.962c21.141,11.837,40.31,25.965,59.882,40.145
		c40.354,31.05,78.805,69.387,109.148,110.281c12.502,15.534,27.429,33.952,35.542,52.224l-1.583,0.283
		c-2.033-2.387-3.734-7.459-6.154-8.801l-0.345-1.528l-0.997,0.276l-0.197-0.809c0.148,4.209,5.639,7.656,3.692,10.887
		c-0.049,0.079-0.141,0.118-0.213,0.179c-5.111-5.85-9.139-14.262-13.58-20.833c-7.484-11.077-15.597-21.737-23.61-32.434
		c-21.577-27.242-44.531-51.939-70.085-75.532c-10.273-9.485-23.218-18.04-32.55-28.102c-21.415-15.965-43.082-30.396-65.936-44.211
		c-23.153-12.818-46.359-25.232-70.616-35.855C1782.831,598.133,1743.578,586.497,1706.963,577.395z"/>
	<path style="fill:#7979C7;" d="M2093.549,850.791c0.072-0.06,0.165-0.1,0.213-0.179c1.947-3.231-3.544-6.678-3.692-10.887
		l0.197,0.809l0.997-0.276l0.345,1.528c2.42,1.342,4.121,6.414,6.154,8.801l1.583-0.283c9.96,12.215,17.319,28.864,24.433,42.873
		c42.09,82.896,65.771,181.655,60.971,274.873c-0.964,24.094-1.854,48.406-5.315,72.294c-1.777,12.685-4.036,25.282-6.778,37.793
		c-2.743,12.512-5.96,24.9-9.654,37.165c-3.693,12.263-7.85,24.368-12.47,36.314c-4.622,11.945-9.694,23.696-15.217,35.252
		c-5.069,10.85-10.157,22.687-16.779,32.64l-3.308-1.437c9.738-20.149,19.802-40.219,28.035-61.045
		c17.444-44.116,29.075-94.01,33.908-141.202c1.419-15.981,2.275-31.992,2.568-48.033c0.097-5.614,0.115-11.229,0.053-16.844
		c-0.063-5.614-0.206-11.226-0.429-16.837c-0.224-5.611-0.529-11.217-0.913-16.818c-0.383-5.601-0.847-11.197-1.391-16.786
		c-0.544-5.588-1.168-11.167-1.871-16.737c-0.703-5.572-1.487-11.132-2.35-16.679c-0.862-5.549-1.803-11.084-2.823-16.605
		c-1.021-5.521-2.122-11.027-3.301-16.517c-1.177-5.489-2.434-10.96-3.769-16.415c-1.335-5.453-2.748-10.887-4.24-16.302
		c-1.49-5.413-3.057-10.803-4.703-16.172c-1.644-5.37-3.365-10.714-5.162-16.033c-1.799-5.32-3.672-10.613-5.621-15.877
		c-1.948-5.266-3.973-10.504-6.073-15.713c-2.099-5.207-4.271-10.384-6.518-15.53c-2.247-5.146-4.567-10.258-6.96-15.337
		C2114.658,887.518,2103.551,869.362,2093.549,850.791z"/>
	<path style="fill:#FDB903;" d="M1488.286,1240.706l0.628-0.032c2.276,4.645,0.656,61.868,0.661,72.252
		c-23.644-1.008-47.502-0.116-71.165,0.176l-1.921-0.728c-3.933-8.488-1.495-59.013-1.442-71.402
		C1439.461,1241.067,1463.875,1240.978,1488.286,1240.706z"/>
	
		<linearGradient id="SVGID_1_" gradientUnits="userSpaceOnUse" x1="881.0257" y1="1402.1323" x2="880.7607" y2="1392.1128" gradientTransform="matrix(2.3179 0 0 -2.3179 -246.1588 5255.8784)">
		<stop  offset="0" style="stop-color:#4A449E"/>
		<stop  offset="1" style="stop-color:#846BC1"/>
	</linearGradient>
	<path style="fill:url(#SVGID_1_);" d="M1841.18,2017.143c22.309,1.906,45.518,0.633,67.96,0.621l126.455-0.123l130.649-0.318
		c23.695-0.056,48.357,1.606,71.916-0.881c0.54,0.181,1.078,0.373,1.622,0.54c5.169,1.59,12.479,0.909,17.973,0.976
		c14.753,0.174,67.104-2.22,76.886,2.673c1.391,2.659,0.904,2.269,0.07,4.932c-5.632,3.224-220.811,1.133-247.137,1.161
		l-573.459,1.409l-177.78-0.355c-26.941-0.083-54.027,0.872-80.942,0.014c3.973-2.647,93.899-1.108,104.795-1.064
		c82.809,1.004,165.611,0.546,248.405-1.374c13.916-0.232,27.304-3.567,41.288-3.695c22.432-0.209,172.173,2.654,180.881-2.415
		c3.229-0.153,6.418-0.443,9.631-0.77L1841.18,2017.143z"/>
	<path style="fill:#7979C7;" d="M293.557,2017.982c8.553,5.544,307.598,0.459,352.75,3.118c9.068-1.259,19.368-0.561,28.549-0.589
		l53.512-0.137c68.224-0.313,136.608,0.371,204.804-1.224l633.81-0.16l170.493,0.522l62.03-0.461
		c10.134-0.067,21.239-0.934,31.256,0.195c-8.708,5.069-158.449,2.207-180.881,2.415c-13.984,0.127-27.372,3.463-41.288,3.695
		c-82.794,1.921-165.596,2.379-248.405,1.374c-10.896-0.044-100.822-1.583-104.795,1.064l-644.372-2.462
		c-51.412,1.201-102.976,0.457-154.411,0.498l-225.977,0.582c-14.77,0.012-102.731,1.724-109.282-0.218
		c-2.844-0.841-4.035-2.554-5.507-4.925l0.374-1.379c2.574-1.808,4.932-1.952,7.985-2.162c14.756-1.011,30.775,0.406,45.658,0.396
		C211.093,2018.334,252.325,2018.286,293.557,2017.982z"/>
	<path style="fill:#FDB903;" d="M1585.606,1145.586c1.395-0.167,2.867-0.005,4.274,0.044c0.45,0.7,1.194,1.282,1.351,2.098
		c1.502,7.774-0.167,33.28-0.188,43.615l0.123,120.575c-22.453-0.533-45.001-0.095-67.464-0.081l-2.112-0.151
		c-0.459-0.491-1.059-0.881-1.379-1.472c-0.369-0.677-1.4-148.002-2.068-163.917
		C1540.634,1146.208,1563.121,1145.971,1585.606,1145.586z"/>
	<path style="fill:#7979C7;" d="M1445.123,481.98l1.379-4.596c37.412,0.021,75.282-1.235,112.636,0.276
		c48.119-1.076,96.393-0.216,144.53-0.225c5.134,9.948-2.682,87.923,1.898,94.184c0.533,0.728,1.616,0.807,2.422,1.208l-3.85,1.333
		l-0.693,1.664c1.963,1.671,0.809,1.106,3.516,1.571c-2.181,2.645-2.026,4.073-2.165,7.517c-1.33,33.391,0.336,67.54,0.308,101.031
		l-0.262,208.795l-364.203-0.086l0.283,159.202c-0.009,25.534,0.681,51.287-0.253,76.795c1.031,62.714-0.123,125.482,0.345,188.208
		l-5.69,0.118c1.958-13.682,0.454-29.029,0.327-42.911l-0.58-85.195l0.153-296.241l-260.365,0.019l-62.538,0.278
		c-10.217,0.107-22.833,2.023-32.758-0.028c-2.186-3.291-1.458-6.119-1.43-10.013c1.065-135.859,1.169-271.718,0.313-407.577
		c79.266,1.583,158.681,0.158,237.972,0.964l1.402,3.908l-149.636,0.079c-27.953,0.028-56.203-0.848-84.113,0.575l-0.125,256.256
		l-0.229,81.271c-0.088,13.954,0.668,28.651-0.735,42.503c0.478,8.989,0.742,17.984,0.793,26.987
		c27.175,0.153,54.611-0.644,81.751,0.368c32.997-1.402,66.513-0.336,99.573-0.436c61.893-0.437,123.786-0.492,185.679-0.162
		l348.5-0.661c1.117-60.132,0.016-120.408-0.155-180.552c-0.241-75.368,0.057-150.731,0.895-226.091
		c-11.011-0.255-22.024-0.384-33.039-0.387c-23.357,1.648-47.706,0.375-71.198,0.366L1445.123,481.98z"/>
	<path style="fill:#FDB903;" d="M1635.338,1070.29c21.558-0.498,43.172-0.007,64.735,0.174
		c-0.394,80.393-0.048,160.781,1.038,241.166l-11.253-0.32c-22.224-0.559-44.554,0.225-66.782,0.556
		c1.231-80.355,0.429-160.839,0.51-241.206L1635.338,1070.29z"/>
	<path style="fill:#FDB903;" d="M1732.352,967.76c23.291-0.899,46.578-0.797,69.86,0.306l0.781,185.445
		c0.03,52.843-0.957,105.597,0.327,158.438c-23.582-0.091-47.164,0.009-70.746,0.301
		C1733.949,1197.404,1731.11,1082.57,1732.352,967.76z"/>
	<path style="fill:#010102;" d="M1341.016,1318.858c176.197-3.328,352.512-0.241,528.72-2.051
		c-0.295,16.41-0.469,32.822-0.522,49.234c-97.162-1.182-194.318,0.005-291.482-0.396l-140.365-0.076
		c-34.103-0.037-68.393-0.751-102.47,0.686c0.063-15.576-0.788-31.785,0.429-47.277L1341.016,1318.858z"/>
	<path style="fill:#FDB903;" d="M1891.592,1609.663c0.661-52.495-4.793-108.443,25.9-154.205
		c20.675-30.827,55.163-52.736,91.583-59.571c38.632-7.253,73.991-0.009,106.156,22.184l3.308,1.437
		c26.326,15.826,47.836,51.535,55.286,80.78c7.552,29.65,5.391,78.518,4.578,109.612l-50.652-0.151
		c-0.244-17.211-0.307-34.422-0.19-51.635c-0.033-33.787-1.993-60.649-27.145-85.682c-16.913-16.832-40.134-27.311-64.142-27.005
		c-1.633,0.017-3.265,0.075-4.895,0.174c-1.63,0.099-3.257,0.238-4.881,0.417c-1.624,0.179-3.242,0.399-4.854,0.658
		c-1.613,0.26-3.219,0.559-4.817,0.899c-1.596,0.34-3.184,0.719-4.763,1.136c-1.579,0.419-3.147,0.876-4.703,1.372
		c-1.556,0.496-3.099,1.031-4.629,1.604c-1.53,0.573-3.044,1.184-4.543,1.831c-1.499,0.647-2.982,1.332-4.448,2.054
		c-1.465,0.722-2.911,1.479-4.339,2.274c-1.428,0.793-2.835,1.621-4.221,2.485s-2.75,1.761-4.093,2.691
		c-1.342,0.932-2.66,1.896-3.954,2.893c-1.293,0.997-2.561,2.025-3.804,3.085c-1.244,1.059-2.46,2.148-3.648,3.268
		c-1.19,1.12-2.35,2.269-3.481,3.447c-23.909,24.745-24.201,52.75-24.001,85.207l0.403,48.789L1891.592,1609.663z"/>
	<path style="fill:#FEFEFE;" d="M1942.601,1609.71l-0.403-48.789c-0.199-32.457,0.093-60.461,24.001-85.207
		c1.131-1.177,2.292-2.327,3.481-3.447c1.188-1.12,2.404-2.21,3.648-3.268c1.242-1.06,2.51-2.088,3.804-3.085
		c1.295-0.997,2.613-1.961,3.954-2.893c1.343-0.93,2.707-1.827,4.093-2.691s2.793-1.692,4.221-2.485
		c1.428-0.794,2.874-1.552,4.339-2.274c1.466-0.722,2.949-1.406,4.448-2.054c1.499-0.647,3.013-1.258,4.543-1.831
		c1.53-0.573,3.073-1.108,4.629-1.604c1.556-0.496,3.124-0.953,4.703-1.372c1.579-0.417,3.167-0.796,4.763-1.136
		c1.598-0.34,3.203-0.64,4.817-0.899c1.613-0.26,3.231-0.479,4.854-0.658c1.624-0.179,3.251-0.318,4.881-0.417
		c1.63-0.099,3.262-0.157,4.895-0.174c24.008-0.306,47.229,10.173,64.142,27.005c25.151,25.033,27.112,51.895,27.145,85.682
		c-0.117,17.212-0.054,34.424,0.19,51.635L1942.601,1609.71z"/>
	<path style="fill:#7979C7;" d="M1957.502,985.561c4.256,4.469,6.9,10.505,9.825,15.903l27.988-0.626
		c3.238-5.095,5.486-10.161,7.723-15.727c9.137,2.907,18.494,4.965,27.824,7.139c-0.997,8.126-1.586,15.998-1.65,24.185
		c8.272,3.449,14.086,7.978,20.668,13.893c7.375-3.069,14.549-7.26,21.663-10.926c7.269,7.429,14.014,15.428,20.898,23.213
		c-5.236,5.405-10.252,10.581-14.461,16.851c3.085,9.971,7.565,19.66,11.534,29.314c5.985,1.692,12.352,2.455,18.485,3.5
		c-0.005,10.871-0.167,21.66-0.758,32.522c-5.92,0.772-11.726,2.214-17.546,3.521c-2.485,11.253-7.656,21.64-12.284,32.142
		c4.01,5.688,8.792,10.743,13.446,15.903c-6.562,7.111-13.349,14.904-21.987,19.477c-5.98-2.068-12.076-3.883-18.107-5.802
		c-6.52,3.653-12.637,7.579-18.758,11.868c1.12,7.473,2.851,14.913,4.357,22.316l-29.184,9.38
		c-1.68-6.045-2.457-12.217-3.363-18.415c-11.782,0.046-23.575-0.427-35.352-0.751c-1.966,7.158-4.117,14.137-6.622,21.125
		c-8.998-4.158-18.149-6.613-27.766-8.877c-0.009-6.374,2.466-16.77,0.95-22.513c-1.277-4.842-20.128-10.836-25.237-13.235
		c-6.221,3.658-12.141,7.714-18.098,11.777c-7.769-8.829-15.852-17.34-21.862-27.501c5.271-5.099,10.062-10.481,14.851-16.03
		c-3.379-8.597-6.492-17.134-9.149-25.983c-7.505-0.575-14.635-1.439-22.001-3.009c-0.223-10.275-0.41-20.441-1.683-30.654
		c7.056-0.948,14.146-1.558,21.234-2.218c2.448-10.358,4.986-20.693,7.616-31.006c-5.317-4.983-11.499-9.364-17.247-13.865
		c7.002-10.593,16.475-19.071,23.012-30.139c6.738,3.702,13.583,7.139,20.474,10.541c7.79-8.17,15.986-14.387,25.61-20.26
		l-4.332-19.574C1937.893,990.199,1947.528,987.16,1957.502,985.561z"/>
	<path style="fill:#0C0A0E;" d="M1959.908,1153.434c-6.077-3.349-11.691-7.253-16.644-12.12
		c-10.801-10.609-15.261-23.343-15.252-38.319c0.007-14.793,5.519-29.235,16.35-39.524c10.822-10.284,28.621-16.661,43.372-15.759
		c15.402,0.941,28.702,8.129,38.801,19.632c9.851,11.221,15.72,26.245,14.459,41.249c-1.509,18.003-11.068,30.603-24.171,41.951
		C1997.128,1159.88,1980.569,1160.735,1959.908,1153.434z"/>
	<path style="fill:#FEFEFE;" d="M1981.624,1087.099c2.362,0.139,4.886,0.327,7.16,1.013c3.433,1.034,6.323,4.133,7.728,7.366
		c1.511,3.474,1.476,7.246-0.174,10.667c-2.188,4.541-5.292,5.969-9.825,7.412c-2.116-0.169-4.501-0.229-6.555-0.758
		c-0.406-0.101-0.806-0.222-1.201-0.364c-0.394-0.144-0.779-0.307-1.157-0.489c-0.377-0.182-0.744-0.384-1.101-0.605
		c-0.355-0.221-0.699-0.46-1.029-0.719c-0.331-0.256-0.647-0.53-0.95-0.821c-0.301-0.29-0.587-0.596-0.858-0.915
		c-0.271-0.32-0.524-0.654-0.76-1.001c-0.235-0.346-0.451-0.704-0.649-1.073c-1.585-2.895-1.912-6.068-0.962-9.258
		C1972.976,1091.893,1976.708,1089.705,1981.624,1087.099z"/>
	<path style="fill:#FDB903;" d="M1328.669,304.569c21.605,15.131,43.246,29.544,66.339,42.333
		c21.832,9.682,43.65,16.955,66.511,23.716c-0.582,35.781-3.454,72.702-15.017,106.765l-1.379,4.596
		c-16.218,51.454-45.833,103.476-93.706,131.323c-6.105,3.804-12.598,6.924-19.013,10.164c-3.294-1.314-6.353-2.86-9.468-4.55
		c-53.865-29.214-87.729-78.777-105.113-136.737l-1.402-3.908c-10.574-36.212-13.158-70.892-17.166-108.124
		c11.932-4.165,24.089-7.306,35.888-11.986C1269.153,344.673,1298.613,325.001,1328.669,304.569z"/>
	
		<linearGradient id="SVGID_00000116939287756664454920000012101618745631144612_" gradientUnits="userSpaceOnUse" x1="727.7698" y1="2053.676" x2="693.4164" y2="2061.592" gradientTransform="matrix(2.3179 0 0 -2.3179 -246.1588 5255.8784)">
		<stop  offset="0" style="stop-color:#000000"/>
		<stop  offset="1" style="stop-color:#0B091B"/>
	</linearGradient>
	<path style="fill:url(#SVGID_00000116939287756664454920000012101618745631144612_);" d="M1395.009,346.902
		c21.832,9.682,43.65,16.955,66.511,23.716c-0.582,35.781-3.454,72.702-15.017,106.765l-1.379,4.596
		c-16.218,51.454-45.833,103.476-93.706,131.323c-2.584-3.15-3.586-2.807-7.47-3.572c13.07-8.342,25.304-16.974,36.309-27.988
		c50.764-50.803,74.237-135.229,74.315-205.81c-22.043-6.214-44.382-11.907-64.073-24.087
		C1391.659,349.155,1392.628,348.694,1395.009,346.902z"/>
	<path style="fill:#010102;" d="M1328.669,304.569c21.605,15.131,43.246,29.544,66.339,42.333c-2.38,1.792-3.349,2.253-4.51,4.944
		c-21.746-10.813-41.967-24.634-61.887-38.46c-23.779,16.26-48.478,32.158-74.651,44.303c-15.122,7.014-30.651,12.458-46.151,18.527
		c2.946,74.232,21.786,155.151,78.207,207.71c9.063,8.444,36.219,31.259,48.381,30.491c3.138-0.197,6.926-3.071,9.55-4.687
		c3.885,0.765,4.886,0.422,7.47,3.572c-6.105,3.804-12.598,6.924-19.013,10.164c-3.294-1.314-6.353-2.86-9.468-4.55
		c-53.865-29.214-87.729-78.777-105.113-136.737l-1.402-3.908c-10.574-36.212-13.158-70.892-17.166-108.124
		c11.932-4.165,24.089-7.306,35.888-11.986C1269.153,344.673,1298.613,325.001,1328.669,304.569z"/>
	<path style="fill:#010102;" d="M1329.091,359.507c19.315,11.378,38.991,22.335,57.543,34.93c3.349-2.663,6.07-4.422,10.511-3.929
		c3.804,0.427,7.081,2.422,9.371,5.463c1.989,2.638,3.275,6.251,2.981,9.584c-0.373,4.225-3.104,6.919-6.416,9.165
		c-1.708,1.159-3.25,1.618-5.225,2.118c1.194,52.379-3.736,86.266-39,127.791c-7.99,9.408-18.494,16.835-25.745,26.806
		c-0.22,0.301-0.429,0.612-0.644,0.918c-19.47-16.983-36.321-36.17-49.136-58.681c-18.589-32.656-25.295-71.033-14.514-107.574
		C1274,388.527,1312.718,368.554,1329.091,359.507z"/>
	<path style="fill:#FEFEFE;" d="M1386.634,394.437c3.349-2.663,6.07-4.422,10.511-3.929c3.804,0.427,7.081,2.422,9.371,5.463
		c1.989,2.638,3.275,6.251,2.981,9.584c-0.373,4.225-3.104,6.919-6.416,9.165c-1.708,1.159-3.25,1.618-5.225,2.118
		c-16.225,1.771-59.673,56.447-77.509,69.234c-9.74-5.157-21.32-13.724-27.121-23.246c-2.805-4.605-3.832-8.453-2.547-13.694
		c2.248-2.107,2.693-2.661,5.999-2.52c8.275,0.357,15.928,9.774,21.25,15.194c12.785-11.267,24.152-24.21,36.384-36.084
		C1363.843,416.471,1380.121,405.797,1386.634,394.437z"/>
	<path style="fill:#FDB903;" d="M1520.236,1490.922c5.723,3.094,40.036,62.223,45.729,71.379
		c29.435,47.335,57.182,95.554,86.02,143.221c31.372,51.855,63.637,102.938,94.191,155.315c9.426,16.128,19.306,31.971,29.641,47.53
		c6.638,10.12,14.663,20.58,19.774,31.502c1.643,3.514,2.897,7.056,1.588,10.792c-6.374,2.881-13.421,3.785-20.358,4.237
		c-26.034,1.699-53.012,0.176-79.132,0.204l-162.686-0.09l-188.321,0.178c-20.879,0.042-64.244,2.475-81.934-1.045
		c-3.282-0.654-5.616-1.221-7.065-4.589c-0.591-1.37-0.707-3.106-0.628-4.589c0.239-4.497,2.223-9.141,4.237-13.101
		c18.109-35.579,39.962-69.647,60.176-104.083l117.671-197.732c18.851-31.497,37.069-63.141,55.395-94.946
		C1503.049,1520.324,1512.209,1505.988,1520.236,1490.922z"/>
	<path style="fill:#010102;" d="M1520.284,1858.993c3.101-0.093,6.314-0.262,9.362,0.436c5.493,1.259,10.356,5.15,13.026,10.083
		c2.227,4.116,2.67,8.639,1.196,13.094c-2.058,6.207-6.815,9.336-12.354,12.194c-2.934,0.459-5.73,0.825-8.687,0.311
		c-5.014-0.874-9.591-3.472-12.415-7.781c-2.772-4.232-3.386-9.508-2.135-14.366
		C1510.042,1866.116,1514.522,1862.553,1520.284,1858.993z"/>
	<path style="fill:#0C0A0E;" d="M1512.89,1648.624c14.615-0.454,29.234-0.612,43.856-0.473c-4.914,23.424-5.876,48.529-7.911,72.394
		c-2.848,36.41-6.234,72.771-10.159,109.081c-8.298,1.425-18.29,0.197-26.767,0.049c-2.533-29.235-4.091-58.582-6.427-87.838
		c-2.473-30.95-5.66-61.843-7.503-92.839L1512.89,1648.624z"/>
	<path style="fill:#010102;" d="M1891.592,1609.663l51.009,0.046l185.148,0.039l50.652,0.151
		c19.428-0.186,53.895-5.116,68.189,9.612c3.794,3.908,5.658,8.316,6.08,13.754c1.439,18.531,0.262,38.025,0.264,56.639
		l-0.165,113.211l0.29,122.622c0.097,20.787,0.953,41.837,0.118,62.596c-0.434,10.762-3.194,18.1-11.378,25.392
		c-1.147,1.02-2.371,1.854-3.639,2.716c-23.559,2.487-48.221,0.825-71.916,0.881l-130.649,0.318l-126.455,0.123
		c-22.442,0.012-45.65,1.284-67.96-0.621c-4.802-1.954-9.276-4.629-13.14-8.115c-8.203-7.403-9.877-14.749-10.104-25.332
		c-0.468-21.73,0.185-43.539,0.044-65.28c-0.612-57.214-0.891-114.427-0.837-171.64c0.045-23.216-0.044-46.431-0.266-69.647
		c-0.127-13.353-1.358-27.868,0.179-41.121c0.774-6.683,3.352-12.948,8.212-17.692
		C1839.386,1604.529,1873.107,1609.478,1891.592,1609.663z"/>
	<path style="fill:#FDB903;" d="M2032.972,1718.853c4.541-0.322,9.202-0.489,13.708,0.276c10.882,1.847,20.699,8.576,26.653,17.808
		c0.726,1.14,1.393,2.314,2,3.521c0.609,1.208,1.155,2.443,1.639,3.704c0.484,1.262,0.903,2.546,1.259,3.85
		c0.354,1.306,0.642,2.625,0.865,3.959c0.222,1.332,0.378,2.672,0.466,4.021s0.108,2.7,0.06,4.052
		c-0.048,1.35-0.164,2.696-0.348,4.035c-0.182,1.338-0.432,2.665-0.749,3.98c-3.092,12.47-10.982,19.006-21.556,25.086
		c1.532,29.569,5.377,59.175,8.558,88.605l-23.306,0.127l-31.333-0.709c2.172-29.404,7.957-58.426,10.31-87.872
		c-1.482-0.79-2.954-1.598-4.416-2.424c-9.278-5.343-15.826-13.942-18.304-24.421c-0.295-1.219-0.528-2.451-0.698-3.695
		c-0.17-1.244-0.276-2.493-0.32-3.748c-0.043-1.253-0.022-2.506,0.063-3.76c0.085-1.252,0.232-2.496,0.443-3.734
		c0.212-1.238,0.485-2.461,0.821-3.669c0.335-1.21,0.732-2.4,1.189-3.57c0.456-1.168,0.97-2.311,1.544-3.428
		c0.573-1.117,1.201-2.202,1.884-3.254C2010.444,1726.704,2020.724,1721.551,2032.972,1718.853z"/>
	<path style="fill:#FEFEFE;" d="M1445.123,481.98l150.659,0.315c23.491,0.009,47.841,1.282,71.198-0.366
		c11.014,0.003,22.027,0.132,33.039,0.387c-0.837,75.365-1.136,150.728-0.895,226.091c0.172,60.144,1.273,120.42,0.155,180.552
		l-348.5,0.661c-61.893-0.329-123.786-0.275-185.679,0.162c-33.06,0.1-66.576-0.967-99.573,0.436
		c-27.14-1.013-54.576-0.215-81.751-0.368c-0.051-9.003-0.315-17.998-0.793-26.987c1.402-13.851,0.647-28.549,0.735-42.503
		l0.229-81.271l0.125-256.256c27.909-1.423,56.16-0.547,84.113-0.575l149.636-0.079c17.384,57.96,51.248,107.523,105.113,136.737
		c3.115,1.69,6.175,3.236,9.468,4.55c6.416-3.24,12.908-6.36,19.013-10.164C1399.29,585.457,1428.905,533.435,1445.123,481.98z"/>
	<path style="fill:#7C7BB9;" d="M1060.15,528.757c11.508,0.185,64.972-2.047,70.82,2.003l0.053,4.028
		c-9.788-0.023-65.63,1.982-71.165-1.697L1060.15,528.757z"/>
	<path style="fill:#5D37B2;" d="M1526.037,528.76c31.421-0.452,65.811-2.151,97.016,0.266l1.616,3.971
		c-12.247,0.783-90.92,2.051-97.376-0.468L1526.037,528.76z"/>
	<path style="fill:#7979C7;" d="M1068.941,710.16l113.448,0.234l-0.197,39.561l-112.537,0.183
		C1069.836,736.804,1069.598,723.478,1068.941,710.16z"/>
	<path style="fill:#7979C7;" d="M1196.683,708.6c47.305,0.795,94.689,0.269,142.001,0.227c0.107,7.025,1.75,37.174-1.388,41.237
		l-141.371,0.369C1196.064,736.491,1196.048,722.53,1196.683,708.6z"/>
	<path style="fill:#010102;" d="M1070.358,766.287c33.444-0.109,66.912,0.753,100.37,0.693c17.294-0.03,34.898,0.325,52.119-1.303
		c-0.12,13.968-0.161,27.935-0.123,41.902c-17.715,1.062-35.89,0.292-53.64,0.267l-98.565-0.167L1070.358,766.287z"/>
	<path style="fill:#FDB903;" d="M1228.151,765.9c54.078,2.019,108.643,0.074,162.793,0.355c0.628,13.817,0.399,27.568,0.148,41.392
		c-33.983-0.374-67.967-0.502-101.953-0.385c-20.478-0.03-41.249-0.95-61.678,0.466
		C1227.951,793.809,1227.879,779.828,1228.151,765.9z"/>
	<path style="fill:#7979C7;" d="M1069.375,599.429l192.394-0.014l0.032,38.335c-63.913,1.854-128.372,0.118-192.352,0.206
		L1069.375,599.429z"/>
	<path style="fill:#7979C7;" d="M1396.409,766.333c29.947,0.936,60.146-0.019,90.109-0.19l120.932-0.014l-0.007,40.574
		l-211.076,0.081L1396.409,766.333z"/>
	<path style="fill:#7979C7;" d="M1107.429,653.05l356.362,0.498l-0.051,38.296l-37.677,0.014
		c-119.186,1.083-238.374,1.382-357.565,0.897l-0.002-39.499L1107.429,653.05z"/>
	<path style="fill:#010102;" d="M527.999,716.019c4.789-34.483,16.626-65.197,45.168-86.964
		c25.16-19.187,58.584-26.414,89.736-22.066c20.858,2.913,45.497,12.611,60.2,27.99c6.026,6.302,10.595,13.747,16.297,20.293
		c4.8,5.512,10.396,10.4,14.816,16.232c12.913,17.041,18.093,42.992,15.08,63.936c-1.715,11.918-9.624,21.271-12.588,32.747
		c-2.608,10.099-2.805,20.655-4.494,30.916c-6.112,37.16-18.749,76.438-50.743,99.32c-4.448,3.178-9.079,5.683-14.051,7.953
		c-0.542,15.673-1.34,31.395-1.231,47.078l11.337,1.117c41.976,7.746,82.152,18.478,121.263,35.959
		c14.765,6.599,35.978,20.761,50.246,24.797l5.014,3.704c47.797,38.277,93.067,76.054,133.761,122.154
		c14.766,16.863,29.241,33.973,43.423,51.329c9.357,11.566,17.871,24.145,28.507,34.548c25.434,0.44,52.177-1.194,77.437,1.198
		c26.639,0.063,53.596-0.702,80.196,0.394c14.324,13.284,26.006,32.038,37.491,47.827c-13.583,50.562-35.157,100.581-52.201,150.22
		c9.471-0.234,24.233-2.663,31.743,4.406c2.568,2.417,3.104,3.824,3.02,7.382c-0.266,11.288-3.982,23.649-6.314,34.673
		c-4.239,20.473-8.684,40.901-13.337,61.284c-1.799,7.92-2.501,16.512-5.181,24.171c-1.136,3.245-3.041,7.111-5.876,9.216
		c-8.449,6.27-64.353,3.609-77.475,3.59c-16.211,38.481-28.755,79.417-42.662,118.883c-4.483,12.716-8.029,26.261-13.458,38.553
		c-1.256,2.846-3.848,8.771-6.78,10.083c-7.788,3.488-158.676,2.647-183.795,2.934c4.929,53.226,10.486,106.385,16.67,159.478
		c4.258,39.16,7.535,78.925,13.951,117.796c-68.196,1.595-136.58,0.911-204.804,1.224l-53.512,0.137
		c-9.181,0.028-19.482-0.67-28.549,0.589c-45.152-2.659-344.198,2.427-352.75-3.118c7.925-31.344,12.254-63.982,18.619-95.707
		l42.449-206.88c-80.631-27.054-207.251-68.745-269.817-126.027c-29.276-26.804-51.601-61.396-53.206-101.944
		c-0.727-18.362,2.021-36.103,7.617-53.575c9.302-29.047,24.509-56.444,38.186-83.617c28.174-55.976,58.61-115.126,94.07-166.807
		c10.89-15.639,22.301-30.89,34.232-45.752c11.931-14.862,24.354-29.3,37.269-43.314c64.882-70.043,157.237-120.728,251.305-136.877
		c24.792-4.256,49.85-4.951,74.925-5.971l0.352-43.555c-31.743,8.055-65.433,5.16-93.992-11.87
		c-1.417-0.833-2.812-1.701-4.186-2.603c-1.374-0.903-2.725-1.839-4.054-2.809c-1.327-0.969-2.63-1.97-3.908-3.004
		c-1.278-1.034-2.53-2.099-3.755-3.196c-1.225-1.096-2.422-2.221-3.59-3.377c-1.17-1.156-2.31-2.34-3.421-3.551
		c-1.109-1.211-2.189-2.45-3.238-3.716c-1.049-1.266-2.067-2.557-3.053-3.873c-0.986-1.317-1.938-2.656-2.856-4.019
		c-0.919-1.363-1.804-2.748-2.654-4.156c-0.85-1.406-1.665-2.833-2.445-4.281c-0.779-1.446-1.521-2.912-2.228-4.397
		c-0.708-1.485-1.378-2.986-2.01-4.504c-0.632-1.518-1.226-3.05-1.782-4.596c-0.556-1.547-1.074-3.106-1.553-4.677
		c-0.479-1.573-0.919-3.157-1.319-4.752c-0.385-1.534-0.731-3.078-1.038-4.631c-0.307-1.553-0.576-3.112-0.804-4.677
		c-0.23-1.567-0.42-3.138-0.57-4.712c-0.15-1.576-0.26-3.155-0.331-4.735c-0.071-1.581-0.102-3.162-0.093-4.745
		c0.008-1.584,0.056-3.165,0.144-4.745c0.088-1.581,0.215-3.158,0.383-4.731c0.167-1.575,0.373-3.144,0.619-4.708
		c0.247-1.562,0.532-3.118,0.855-4.668c0.324-1.548,0.688-3.088,1.089-4.619c0.402-1.531,0.841-3.051,1.319-4.559
		c0.477-1.51,0.993-3.005,1.546-4.487c0.553-1.483,1.143-2.951,1.769-4.404c0.627-1.454,1.29-2.891,1.989-4.311
		c0.699-1.42,1.432-2.822,2.202-4.205s1.573-2.746,2.411-4.089c13.668-22.295,33.72-36.731,59.186-42.625
		C509.491,716.77,518.487,716.251,527.999,716.019z"/>
	<path style="fill:#FEFEFE;" d="M631.668,1661.586l0.097,0.077c0.698,3.801-3.697,10.829-5.357,14.549l-11.112-7.531l-8.409-5.7
		L631.668,1661.586z"/>
	<path style="fill:#FEFEFE;" d="M544.069,772.719c3.15-0.183,5.7,0.025,8.782,0.519c2.26,1.437,3.688,2.552,5.074,4.891
		c4.188,7.06,8.082,21.895,5.938,29.831c-7.656-3.85-16.445-8.404-20.24-16.577C540.678,785.036,541.862,779.049,544.069,772.719z"
		/>
	<path style="fill:#FEFEFE;" d="M577.191,1666.052c0.294,0.628,0.712,1.21,0.883,1.882c1.497,5.899-0.577,29.703-2.983,35.153
		c-4.749-1.43-9.45-6.912-13.138-10.231c-3.442-3.238-7.888-6.803-9.744-11.242c-1.495-3.579-0.865-5.676,0.626-9.093
		C560.088,1666.513,568.17,1666.87,577.191,1666.052z"/>
	<path style="fill:#FEFEFE;" d="M1143.437,1433.017c20.344-0.712,40.85-0.311,61.215-0.371c12.806-0.037,26.417-1.018,39.13,0.266
		c3.607,0.364,4.677-0.044,6.97,2.703c1.289,5.714-1.555,18.724-4.524,23.811c-1.173,2.012-1.46,1.555-3.565,2.049
		c-36.644,0.227-73.288,0.236-109.931,0.028c1.384-7.751,2.274-17.718,5.811-24.776
		C1139.933,1433.956,1140.644,1434.018,1143.437,1433.017z"/>
	<path style="fill:#FEFEFE;" d="M1135.36,1466.607l110.142,0.422c-1.391,7.929-2.042,18.949-5.475,26.155
		c-1.064,2.232-1.291,1.799-3.444,2.598c-37.324,0.079-74.793,0.823-112.099-0.197c1.966-8.771,3.333-20.46,7.881-28.245
		L1135.36,1466.607z"/>
	<path style="fill:#FEFEFE;" d="M1115.099,1535.575l114.938,0.206c-1.055,9.269-1.507,19.132-6.49,27.256
		c-0.573,0.155-1.14,0.324-1.715,0.464c-9.346,2.297-106.698,2.74-112.495-0.902
		C1108.609,1554.264,1112.869,1543.588,1115.099,1535.575z"/>
	<path style="fill:#FEFEFE;" d="M1123.42,1500.981c38.272-0.851,76.735-0.026,115.026,0.005c-1.498,7.22-2.408,23.888-7.665,29.064
		c-38.113-0.002-76.227,0.189-114.34,0.57C1118.467,1520.634,1120.752,1510.816,1123.42,1500.981z"/>
	<path style="fill:#7C7BB9;" d="M539.653,1677.929c2.751,3.134,4.395,7.018,7.114,10.24c7.591,8.996,16.526,15.998,25.967,22.945
		c-21.011,18.395-45.425,31.822-66.879,49.54l-7.781,6.935c-4.902-15.701-11.698-30.753-17.071-46.306
		C499.35,1705.683,520.341,1692.43,539.653,1677.929z"/>
	<path style="fill:#FEFEFE;" d="M324.994,1325.466c3.12,15.543,0.839,38.124,0.79,54.349c-0.121,38.766,0.42,77.604-1.078,116.345
		c-18.587-7.976-37.626-14.776-56.695-21.491l-20.793-8.449c9.814-14.181,18.167-29.808,26.674-44.823
		C291.821,1389.754,308.493,1357.867,324.994,1325.466z"/>
	<path style="fill:#FEFEFE;" d="M576.401,850.467c4.144,4.316,7.116,11.334,10.261,16.554c5.572,9.244,13.972,17.929,22.458,24.604
		c21.677,17.057,45.326,20.425,72.051,17.043c-0.579,19.542,2.376,58.396-4.005,75.611c-1.794,4.84-5.023,8.4-8.442,12.166
		c-10.78,8.866-23.721,12.931-37.584,12.908c-16.582-0.028-34.905-3.074-46.867-15.557c-3.85-4.017-7.12-9.056-8.235-14.573
		c-2.58-12.764-0.519-29.094-0.44-42.176C575.773,908.214,575.318,879.276,576.401,850.467z"/>
	<path style="fill:#E7D8B8;" d="M943.997,1233.681c97.095-0.341,194.422-1.138,291.494,0.644
		c10.048,10.692,18.422,24.701,26.836,36.784c-41.582-0.779-83.168-1.069-124.756-0.872c-98.81,0.237-197.843,1.045-296.633-0.992
		c-8.099-11.487-15.606-23.304-23.118-35.178L943.997,1233.681z"/>
	<path style="fill:#7C7BB9;" d="M874.049,1019.031c47.797,38.277,93.067,76.054,133.761,122.154
		c14.766,16.863,29.241,33.973,43.423,51.329c9.357,11.566,17.871,24.145,28.507,34.548c25.434,0.44,52.177-1.194,77.437,1.198
		c-22.115,1.291-44.637-0.026-66.81,0.151c-55.42,0.623-110.84,0.662-166.26,0.118c-3.822-14.904-6.434-30.253-9.742-45.296
		c-9.132-41.52-17.954-83.378-28.357-124.594C882.632,1045.26,877.827,1032.296,874.049,1019.031z"/>
	<path style="fill:#FEFEFE;" d="M809.054,1233.581c8.372,6.826,18.019,26.556,23.909,36.247
		c-8.864,15.919-14.818,33.903-21.725,50.773c-14.051,33.722-27.553,67.662-40.507,101.821
		c-27.469,70.544-57.158,140.237-84.748,210.754c-7.663,19.584-33.393,90.846-43.418,103.694c-1.511,1.938-1.402,1.444-3.632,1.674
		c-11.151-3.994-20.921-14.223-29.836-21.895c-8.182-6.393-16.299-12.655-23.684-19.987c-0.292-8.11-1.437-17.623,0.16-25.564
		c0.8-3.973,1.887-5.589,5.201-7.841c10.206,0.035,28.728,17.215,37.899,23.056c8.801-13.541,13.958-29.972,19.943-44.932
		l26.526-66.193l89.275-227.166C779.23,1309.874,793.436,1271.402,809.054,1233.581z"/>
	<path style="fill:#FEFEFE;" d="M536.599,1475.918c3.231,0.179,5.359,0.563,8.103,2.401c9.573,6.409,11.87,22.349,13.963,32.763
		c-1.75,0.035-3.467,0.162-5.204,0.38c-4.703,0.598-10.268,1.5-13.323,5.512c5.737,5.044,70.692-2.573,86.959,2.965
		c4.474,4.854,2.464,19.445,2.274,26.206c-11.418,0.127-56.465-3.213-64.015,2.422l0.976,1.771
		c11.121,5.486,49.607,2.39,63.447,2.461l-0.292,29.53c-17.164,0.267-40.131-1.558-56.468,0.452c-2.726,0.336-4.49,0.644-6.11,2.948
		l1.551,2.406c4.636,2.693,50.905,1.045,60.772,1.249l-0.058,28.95l-15.81,0.361c-12.417,0.1-34.513-1.646-45.72,1.222l-0.874,2.223
		l1.377,2.031c9.649,4.049,47.882,0.832,60.746,0.814c0.058,7.385,1.52,23.818-3.097,29.648
		c-13.091,2.717-26.934,2.624-40.236,3.901c-37.498,3.602-71.321,9.536-107.959-3.05l-0.503-98.776
		c8.386-4.74,17.62-7.89,25.561-13.444c17.421-12.18,21.384-46.612,33.28-66.296
		C536.156,1476.616,536.378,1476.268,536.599,1475.918z"/>
	<path style="fill:#FEFEFE;" d="M722.961,716.029c2.54,2.309,6.594,29.664,10.245,36.771c2.895,5.632,7.172,12.783,13.701,14.584
		c0.626,0.174,1.263,0.311,1.896,0.466c0.605,1.782,0.633,1.354,0.633,3.041c0.002,8.221-1.926,16.858-3.24,24.959
		c-5.134,31.646-14.051,65.528-37.739,88.688c-12.899,12.611-29.444,20.369-47.748,19.957
		c-23.403-0.524-43.761-12.941-59.664-29.242c-20.838-23.855-26.797-50.24-32.348-80.511c-1.018-5.547-1.502-14.586-4.265-19.468
		c-2.897-5.115-9.582-6.624-13.126-11.144c3.88-3.393,8.101-5.037,12.781-7.025c7.487,2.862,14.415,5.074,22.439,5.79
		C631.35,766.887,688.947,744.531,722.961,716.029z"/>
	<path style="fill:#7C7BB9;" d="M697.525,954.571c41.976,7.746,82.152,18.478,121.263,35.959
		c14.765,6.599,35.978,20.761,50.246,24.797c0.053,16.359,16.742,70.97,21.364,89.708c9.839,41.032,18.932,82.229,27.279,123.588
		c-36.226-0.114-73.856,2.39-109.669-2.925c-3.194,1.333-4.932,5.646-6.265,8.736c-6.824,15.831-11.434,32.733-17.743,48.812
		c-19.206,49.202-38.888,98.213-59.045,147.033c-9.158,22.81-16.999,46.207-26.901,68.701c-1.085-57.52,0.624-115.126,0.491-172.662
		L697.525,954.571z"/>
	<path style="fill:#FEFEFE;" d="M568.323,976.088l0.45,1.627c3.741,13.096,11.239,22.685,23.199,29.465
		c16.7,9.464,40.057,10.678,58.385,5.519c13.128-3.697,24.803-11.923,31.173-24.194c4.269-8.228,5.102-17.245,5.185-26.37
		c0.362-0.014,0.723-0.016,1.085-0.037c1.801-0.111,1.161-0.06,3.206-0.693l-3.414-2.941l0.315-1.154l2.52,0.505
		c3.572,5.915,2.626,114.437,2.649,128.308l-0.137,304.02l-0.139,80.418c-0.053,13.696,1.456,30.03-1.558,43.402
		c-4.149,18.409-14.139,38.066-21.153,55.731c-11.292,28.436-21.709,58.825-35.217,86.201c0.642-23.239,4.427-121.769-0.695-139.011
		c-4.541-4.789-10.644-5.612-17.013-5.786c-9.429-0.255-45.479,2.151-51.8-0.976c2.417-13.525,0.651-28.862,0.788-42.658
		c0.389-36.043,0.559-72.087,0.51-108.133l0.146-378.873l1.706-0.788l-2.376-1.027l0.865-0.503
		C567.273,976.507,566.888,977.224,568.323,976.088z"/>
	<path style="fill:#FEFEFE;" d="M836.91,1275.567c10.977,2.209,25.731,0.591,37.132,0.554l75.84-0.125
		c105.741-0.019,211.996-1.891,317.688,1.201c-6.844,26.435-16.985,52.342-26.083,78.093c-8.395,23.772-15.938,48.504-26.894,71.214
		c-15.147,0.232-68.525-3.169-78.735,2.918c-7.018,11.81-32.061,115.9-32.522,131.675c-0.072,2.462-0.362,2.921,1.449,4.777
		c7.47,7.672,27.58,4.524,37.753,4.837c-9.16,21.572-15.954,44.345-23.594,66.502c-8.69,25.2-18.052,50.133-26.567,75.405
		c-2.417,7.333-4.967,14.62-7.651,21.859c-19.945,1.922-40.78,0.688-60.83,0.716l-98.936,0.691
		c-91.685,0.609-183.563,3.268-275.237,2.292c6.617-12.876,11.798-26.688,17.328-40.067c11.049-26.732,21.577-53.559,32.077-80.506
		c24.824-63.699,51.707-126.583,76.582-190.266c13.395-34.295,26.572-68.63,40.424-102.751
		C822.775,1308.226,828.915,1291.319,836.91,1275.567z"/>
	<path style="fill:#010102;" d="M915.121,1491.36c6.963-26.553,18.307-52.801,27.763-78.608
		c4.288-11.698,7.512-24.905,12.934-36.008c2.661-5.451,6.258-10.423,10.864-14.394c0.535-0.453,1.08-0.892,1.636-1.317
		c0.556-0.425,1.123-0.836,1.699-1.233c0.578-0.396,1.165-0.777,1.762-1.145c0.596-0.366,1.201-0.718,1.815-1.055
		c0.615-0.337,1.237-0.658,1.866-0.962c0.63-0.304,1.269-0.593,1.915-0.867c0.644-0.272,1.296-0.528,1.954-0.767
		c0.658-0.241,1.322-0.464,1.991-0.67c0.669-0.207,1.343-0.396,2.021-0.568c0.678-0.173,1.361-0.328,2.047-0.466
		c0.686-0.138,1.376-0.258,2.07-0.362c0.692-0.103,1.387-0.189,2.084-0.257s1.395-0.118,2.093-0.151c0.7-0.032,1.4-0.047,2.1-0.044
		c0.7,0.003,1.4,0.023,2.1,0.06c0.698,0.038,1.396,0.094,2.093,0.167c10.922,1.075,21.35,6.497,28.141,15.163
		c1.154,1.463,2.195,3.003,3.122,4.62c0.929,1.615,1.735,3.289,2.42,5.023c0.683,1.734,1.236,3.509,1.66,5.324
		c0.423,1.814,0.713,3.65,0.869,5.507c1.896,22.112-13.142,72.82-16.1,99.918l-1.3,2.608
		C1003.812,1494.176,932.35,1492.236,915.121,1491.36z"/>
	<path style="fill:#7979C7;" d="M915.121,1491.36c17.229,0.876,88.691,2.816,101.617-0.482l1.3-2.608l1.516,2.494
		c7.292,1.384,15.082,0.834,22.5,0.777c-7.345,28.294-12.676,57.207-18.775,85.795c-4.135,19.391-9.457,38.514-12.366,58.141
		c-49.593,0.788-99.232-0.165-148.837,0.039c9.431-47.882,20.506-95.976,26.943-144.363
		C897.607,1491.14,906.587,1490.602,915.121,1491.36z"/>
	<path style="fill:#7C7BB9;" d="M354.626,1715.395c-80.631-27.054-207.251-68.745-269.817-126.027
		c-29.276-26.804-51.601-61.396-53.206-101.944c-0.727-18.362,2.021-36.103,7.617-53.575c9.302-29.047,24.509-56.444,38.186-83.617
		c28.174-55.976,58.61-115.126,94.07-166.807c10.89-15.639,22.301-30.89,34.232-45.752c11.931-14.862,24.354-29.3,37.269-43.314
		c64.882-70.043,157.237-120.728,251.305-136.877c24.792-4.256,49.85-4.951,74.925-5.971c-0.07,7.364,1.08,17.63-0.883,24.576
		c-1.435,1.136-1.05,0.419-1.321,2.051l-0.865,0.503l2.376,1.027l-1.706,0.788l-0.146,378.873c0.049,36.046-0.12,72.09-0.51,108.133
		c-0.137,13.796,1.629,29.133-0.788,42.658c-4.107-11.469-10.692-34.74-23.005-39.533c-2.485-0.967-5.215-0.709-7.443,0.767
		c-6.39,4.233-25.958,54.787-31.78,65.799c-10.599,5.542-21.853,8.986-32.747,13.782c-45.928-18.16-92.937-33.289-138.46-52.678
		c1.625-44.41,0.644-89.089,0.438-133.541l0.093-158.627l-0.07-83.095c-0.025-12.88,1.912-29.397-1.126-41.789l-1.467-1.37
		c-2.575,1.572-3.036,2.976-3.748,5.901c-3.444,14.213-1.275,55.891-1.28,73.509l0.512,95.13
		c0.125,18.158,1.722,37.913-1.233,55.805c-3.646,22.08-67.077,133.446-83.232,154.949c-42.529-17.113-112.118-40.845-147.11-67.053
		c-2.95,0.865-2.378,1.006-3.831,3.484c10.395,18.884,179.843,79.278,206.957,89.532c27.11,10.252,53.614,21.936,80.771,32.112
		c30.739,11.517,62.499,21.619,92.615,34.634c-2.577,50.863,6.689,140.822-7.878,184.029c-29.71-0.123-57.172-9.346-85.112-18.534
		C369.956,1720.939,362.098,1716.16,354.626,1715.395z"/>
</g>
</svg>
