<?xml version="1.0" encoding="utf-8"?>
<!-- Generator: Adobe Illustrator 27.5.0, SVG Export Plug-In . SVG Version: 6.00 Build 0)  -->
<svg version="1.1" xmlns="http://www.w3.org/2000/svg" xmlns:xlink="http://www.w3.org/1999/xlink" x="0px" y="0px"
	 viewBox="0 0 2500 2500" style="enable-background:new 0 0 2500 2500;" xml:space="preserve">
<g id="Background">
	<rect style="fill:#FFFFFF;" width="2500" height="2500"/>
</g>
<g id="Illustration">
	<g id="Cybersport_team_1_">
		<g>
			<g>
				<g>
					<g>
						<path style="fill:#FED101;" d="M1841.494,818.475H1705.02V714.429h70.072c17.395,0,31.497-14.102,31.497-31.497V552.798
							h117.936v182.645C1924.525,781.3,1887.351,818.475,1841.494,818.475z"/>
						<path style="fill:#FED101;" d="M1429.922,754.956l22.945,63.372h307.027l-81.119-236.525
							c-19.409-36.185-57.877-58.003-98.894-56.09l-5.478,0.255c-40.09,1.87-79.814,8.511-118.332,19.784l-11.869,3.474
							c-32.116,9.399-44.578,53.338-38.368,102.036C1409.2,677.662,1429.922,754.956,1429.922,754.956z"/>
					</g>
					<g>
						<path style="fill:#FDA4FF;" d="M1711.568,727.234v74.444h63.21h25.146h47.711c4.119,0,8.042,1.757,10.791,4.832l5.753,6.437
							c5.18,5.798,14.38,5.307,18.918-1.011c3.027-4.215,3.005-9.81,0.15-13.993l3.211-4.467c3.68-5.125,3.251-12.14-1.028-16.775
							l-3.231-3.502c3.25-5.064,2.699-11.732-1.421-16.194l-5.396-5.847l0.085-0.058c2.257-4.816,1.443-10.633-2.27-14.655
							l-4.791-5.191c-9.17-9.934-22.056-15.582-35.557-15.582h-45.478c-18.863,0-23.711,11.563-32.07,11.563H1711.568z"/>
						<g>
							<path d="M1882.199,775.403c-0.407,0-0.82-0.113-1.188-0.349c-1.024-0.658-1.321-2.02-0.665-3.045
								c2.723-4.246,2.236-9.802-1.186-13.51l-8.466-9.176c-6.39-6.92-15.446-10.89-24.848-10.89h-23.307
								c-1.218,0-2.204-0.987-2.204-2.204c0-1.217,0.986-2.204,2.204-2.204h23.307c10.629,0,20.865,4.486,28.085,12.308l8.469,9.176
								c4.782,5.182,5.462,12.945,1.657,18.879C1883.634,775.045,1882.924,775.403,1882.199,775.403z"/>
							<path d="M1883.217,800.188c-0.445,0-0.895-0.135-1.283-0.414c-0.99-0.71-1.216-2.086-0.506-3.075l3.239-4.509
								c3.058-4.258,2.699-10.144-0.854-13.994l-10.16-11.007c-5.316-5.759-12.85-9.063-20.675-9.063h-30.655
								c-1.218,0-2.204-0.987-2.204-2.204s0.986-2.204,2.204-2.204h30.655c9.052,0,17.768,3.82,23.914,10.481l10.158,11.007
								c4.967,5.38,5.471,13.605,1.199,19.555l-3.239,4.509C1884.579,799.87,1883.903,800.188,1883.217,800.188z"/>
							<path d="M1799.926,803.881h-90.561v-78.85h45.939c2.675,0,5.131-1.631,8.238-3.696c4.997-3.32,11.843-7.867,23.833-7.867
								h45.476c14.068,0,27.62,5.938,37.176,16.291l4.793,5.191c4.291,4.652,5.331,11.359,2.645,17.086
								c-0.517,1.101-1.823,1.578-2.931,1.06c-1.102-0.517-1.575-1.828-1.059-2.93c1.92-4.099,1.177-8.897-1.896-12.226
								l-4.791-5.191c-8.725-9.452-21.095-14.873-33.937-14.873h-45.476c-10.659,0-16.363,3.789-21.392,7.131
								c-3.433,2.279-6.674,4.432-10.679,4.432h-41.531v70.035h86.153c1.218,0,2.204,0.987,2.204,2.204
								S1801.144,803.881,1799.926,803.881z"/>
							<path d="M1873.218,819.206c-4.083,0-7.939-1.721-10.683-4.791l-5.75-6.436c-2.329-2.605-5.662-4.099-9.149-4.099h-72.858
								c-13.412,0-25.918-6.653-33.455-17.797c-0.682-1.008-0.417-2.378,0.59-3.059c1.011-0.684,2.378-0.416,3.06,0.591
								c6.717,9.93,17.858,15.858,29.805,15.858h72.858c4.739,0,9.271,2.029,12.435,5.569l5.75,6.436
								c2.023,2.262,4.885,3.468,7.939,3.306c3.024-0.161,5.774-1.668,7.545-4.134c2.761-3.843,2.436-9.153-0.77-12.628
								l-10.599-11.483c-5.417-5.869-13.098-9.235-21.071-9.235h-25.509c-1.218,0-2.204-0.987-2.204-2.204
								c0-1.217,0.986-2.204,2.204-2.204h25.509c9.2,0,18.06,3.882,24.308,10.653l10.599,11.483
								c4.621,5.005,5.09,12.654,1.115,18.189c-2.555,3.557-6.525,5.731-10.894,5.964
								C1873.734,819.199,1873.476,819.206,1873.218,819.206z"/>
						</g>
					</g>
					<g>
						<path style="fill:#FED101;" d="M1726.192,724.498h-154.114l-96.821-167.971h-29.33c-35.383,0-57.513,38.394-39.852,69.142
							l80.525,140.197c19.053,33.173,54.321,53.616,92.494,53.616h147.099V724.498z"/>
						<path style="fill:#6155FF;" d="M1526.893,759.894c-13.661,0-26.227,4.669-36.228,12.484
							c19.75,29.313,52.823,47.105,88.429,47.105h6.796c0.001-0.138,0.01-0.274,0.01-0.413
							C1585.9,786.389,1559.482,759.894,1526.893,759.894z"/>
						<path d="M1728.396,821.687h-149.303c-38.844,0-75.018-20.968-94.405-54.723l-80.524-140.197
							c-8.707-15.161-8.677-33.247,0.082-48.38c8.722-15.068,24.304-24.064,41.68-24.064c1.218,0,2.204,0.987,2.204,2.204
							c0,1.217-0.986,2.204-2.204,2.204c-15.786,0-29.94,8.174-37.864,21.864c-7.963,13.755-7.991,30.195-0.075,43.976
							l80.524,140.197c18.603,32.389,53.312,52.51,90.582,52.51h144.896v-90.577h-153.183l-56.26-97.605
							c-0.609-1.055-0.245-2.402,0.809-3.01c1.057-0.61,2.404-0.246,3.009,0.808l54.991,95.399h155.043V821.687z"/>
					</g>
				</g>
				<g>
					<g>
						<path style="fill:#8C7BFF;" d="M1473.163,473.359c-1.059,0-1.993-0.764-2.172-1.842l-9.063-54.481
							c-1.816-10.921,0.76-21.901,7.253-30.916c6.491-9.01,16.119-14.978,27.11-16.806c10.989-1.834,22.031,0.702,31.089,7.126
							c9.06,6.427,15.052,15.982,16.868,26.904l9.063,54.481c0.2,1.201-0.611,2.336-1.812,2.535c-1.203,0.2-2.337-0.611-2.535-1.812
							l-9.063-54.481c-1.623-9.754-6.975-18.289-15.071-24.032c-8.101-5.745-17.972-8.006-27.816-6.373
							c-9.835,1.637-18.45,6.976-24.256,15.036c-5.802,8.054-8.105,17.862-6.482,27.616l9.063,54.481
							c0.2,1.201-0.611,2.336-1.812,2.535C1473.405,473.35,1473.284,473.359,1473.163,473.359z"/>
						<g>
							
								<ellipse transform="matrix(0.9864 -0.1641 0.1641 0.9864 -55.2646 261.3347)" style="fill:#FFFFFF;" cx="1554.369" cy="465.214" rx="18.859" ry="28.418"/>
							<path d="M1556.982,495.619c-10.627,0-20.815-11.461-23.391-26.949c-2.77-16.656,4.298-31.758,15.754-33.662
								c11.43-1.902,23.032,10.093,25.802,26.751c1.317,7.91,0.495,15.719-2.314,21.99c-2.946,6.575-7.72,10.72-13.44,11.671
								C1558.589,495.553,1557.785,495.619,1556.982,495.619z M1551.83,439.21c-0.588,0-1.175,0.047-1.763,0.145
								c-9.058,1.506-14.499,14.333-12.129,28.592c2.372,14.257,11.66,24.645,20.731,23.125c4.218-0.702,7.819-3.943,10.141-9.126
								c2.458-5.488,3.164-12.401,1.989-19.465C1568.58,449.147,1560.303,439.21,1551.83,439.21z"/>
						</g>
					</g>
					<g>
						<polygon points="1556.658,464.994 1478.104,468.65 1472.474,395.717 1551.487,393.307 						"/>
						<polygon style="fill:#FDA4FF;" points="1491.939,544.708 1478.89,472.569 1528.21,460.909 1547.941,570.193 						"/>
						
							<ellipse transform="matrix(0.9842 -0.1771 0.1771 0.9842 -58.5427 275.9253)" style="fill:#FDA4FF;" cx="1516.711" cy="465.972" rx="37.714" ry="41.306"/>
						<path style="fill:#FFFFFF;" d="M1512.375,490.448c3.129,1.978,6.887,3.018,10.862,2.712
							c8.862-0.682,15.689-7.743,16.371-16.334L1512.375,490.448z"/>
						<path d="M1518.683,509.243c-1.814,0-3.628-0.137-5.434-0.41c-1.203-0.182-2.032-1.305-1.849-2.509
							c0.181-1.203,1.293-2.039,2.507-1.849c3.467,0.525,6.977,0.477,10.431-0.146c9.11-1.639,16.984-7.078,22.173-15.319
							c5.228-8.304,7.106-18.445,5.286-28.555c-1.819-10.111-7.113-18.961-14.908-24.922c-7.735-5.915-17.008-8.271-26.122-6.631
							c-17.632,3.172-29.66,20.354-27.98,39.965c0.105,1.213-0.794,2.28-2.006,2.384c-1.255,0.102-2.281-0.797-2.385-2.008
							c-1.879-21.892,11.703-41.101,31.591-44.68c10.337-1.856,20.848,0.791,29.579,7.468c8.671,6.631,14.555,16.447,16.569,27.642
							c2.014,11.196-0.08,22.449-5.895,31.686c-5.858,9.3-14.779,15.447-25.124,17.308
							C1522.987,509.05,1520.835,509.243,1518.683,509.243z"/>
						<path d="M1515.579,450.469l38.501,11.051c-0.114-1.049-0.228-2.099-0.418-3.155c-4.02-22.342-23.815-37.479-44.216-33.809
							c-20.399,3.67-34.826,25.888-30.806,48.23c0.273,1.515,0.631,2.989,1.043,4.434L1515.579,450.469z"/>
					</g>
					<g>
						<path style="fill:#8C7BFF;" d="M1473.163,473.359c-1.059,0-1.993-0.764-2.172-1.842l-9.063-54.481
							c-1.816-10.921,0.76-21.901,7.253-30.916c6.491-9.01,16.119-14.978,27.11-16.806c1.207-0.197,2.337,0.611,2.535,1.812
							c0.2,1.201-0.611,2.336-1.812,2.535c-9.835,1.637-18.45,6.976-24.256,15.036c-5.802,8.054-8.105,17.862-6.482,27.616
							l9.063,54.481c0.2,1.201-0.611,2.336-1.812,2.535C1473.405,473.35,1473.284,473.359,1473.163,473.359z"/>
						<g>
							<g>
								
									<ellipse transform="matrix(0.9864 -0.1641 0.1641 0.9864 -58.8813 248.1653)" style="fill:#FFFFFF;" cx="1472.817" cy="480.518" rx="18.859" ry="28.417"/>
								<path d="M1475.356,510.929c-4.909,0-9.805-2.39-14.01-6.897c-4.685-5.023-7.991-12.147-9.308-20.058
									c-2.77-16.655,4.298-31.757,15.753-33.662c5.723-0.961,11.581,1.428,16.494,6.693c4.687,5.024,7.993,12.148,9.308,20.058
									c1.317,7.91,0.495,15.72-2.313,21.99c-2.944,6.575-7.718,10.72-13.44,11.671
									C1477.014,510.861,1476.185,510.929,1475.356,510.929z M1470.247,454.517c-0.581,0-1.158,0.047-1.733,0.142
									c-9.058,1.508-14.499,14.334-12.129,28.592c1.175,7.065,4.083,13.378,8.184,17.774c3.874,4.152,8.322,6.048,12.547,5.351
									c4.218-0.702,7.819-3.943,10.141-9.126c2.458-5.487,3.164-12.4,1.989-19.465c-1.175-7.065-4.08-13.378-8.182-17.774
									C1477.715,456.423,1473.934,454.517,1470.247,454.517z"/>
							</g>
							<g>
								<path style="fill:#FFFFFF;" d="M1469.236,481.113c1.392,8.37-1.982,15.905-7.537,16.829
									c-5.555,0.924-11.187-5.113-12.579-13.483c-1.392-8.371,1.982-15.905,7.538-16.829
									C1462.212,466.706,1467.844,472.743,1469.236,481.113z"/>
								<path d="M1460.543,500.241c-2.933,0-5.834-1.403-8.305-4.052c-2.669-2.86-4.55-6.898-5.292-11.369
									c-0.745-4.471-0.273-8.899,1.326-12.469c1.735-3.874,4.584-6.323,8.023-6.894c3.443-0.569,6.926,0.821,9.822,3.926
									c2.669,2.86,4.55,6.898,5.292,11.369c0.745,4.471,0.273,8.9-1.326,12.469c-1.734,3.875-4.584,6.323-8.023,6.894
									C1461.555,500.199,1461.049,500.241,1460.543,500.241z M1457.785,469.742c-0.256,0-0.512,0.021-0.766,0.062
									c-1.935,0.322-3.611,1.866-4.724,4.349c-1.248,2.787-1.604,6.319-1.001,9.944c0.603,3.625,2.083,6.852,4.167,9.085
									c1.853,1.987,3.926,2.905,5.877,2.586c1.935-0.322,3.611-1.866,4.724-4.348c1.248-2.788,1.603-6.32,1.001-9.945
									c-0.603-3.625-2.083-6.852-4.167-9.085C1461.284,470.661,1459.495,469.742,1457.785,469.742z"/>
							</g>
						</g>
					</g>
				</g>
			</g>
			<g>
				<path d="M2143.995,1280.312h-754.469c-1.218,0-2.204-0.987-2.204-2.204V817.738c0-1.217,0.986-2.204,2.204-2.204h754.469
					c1.218,0,2.204,0.987,2.204,2.204v460.371C2146.198,1279.325,2145.213,1280.312,2143.995,1280.312z M1391.73,1275.905h750.061
					V819.941H1391.73V1275.905z"/>
			</g>
			<g>
				<polygon style="fill:#8C7BFF;" points="1814.986,701.111 1966.975,701.111 1983.316,797.097 1798.645,797.097 				"/>
				<g>
					<path style="fill:#8C7BFF;" d="M2123.979,701.111h-465.997c-23.115,0-41.854-18.739-41.854-41.854v-280.2
						c0-23.115,18.739-41.854,41.854-41.854h465.997c23.115,0,41.854,18.739,41.854,41.854v280.2
						C2165.833,682.372,2147.094,701.111,2123.979,701.111z"/>
					<path style="fill:#FFFFFF;" d="M2123.978,703.315h-465.995c-24.293,0-44.058-19.764-44.058-44.058v-280.2
						c0-24.293,19.765-44.057,44.058-44.057h465.995c24.293,0,44.058,19.764,44.058,44.057v280.2
						C2168.036,683.551,2148.271,703.315,2123.978,703.315z M1657.983,339.408c-21.863,0-39.651,17.786-39.651,39.65v280.2
						c0,21.863,17.787,39.651,39.651,39.651h465.995c21.863,0,39.651-17.787,39.651-39.651v-280.2
						c0-21.863-17.787-39.65-39.651-39.65H1657.983z"/>
				</g>
				<g>
					<path style="fill:#8C7BFF;" d="M2008.173,815.749h-234.385c-5.151,0-9.326-4.175-9.326-9.326s4.175-9.326,9.326-9.326h234.385
						c5.151,0,9.326,4.175,9.326,9.326C2017.499,811.574,2013.323,815.749,2008.173,815.749z"/>
					<path style="fill:#FFFFFF;" d="M2008.173,817.953h-234.385c-6.357,0-11.531-5.173-11.531-11.53
						c0-6.357,5.174-11.53,11.531-11.53h234.385c6.357,0,11.529,5.173,11.529,11.53
						C2019.702,812.78,2014.53,817.953,2008.173,817.953z M1773.788,799.3c-3.928,0-7.124,3.195-7.124,7.122
						c0,3.928,3.196,7.123,7.124,7.123h234.385c3.928,0,7.121-3.195,7.121-7.123c0-3.928-3.194-7.122-7.121-7.122H1773.788z"/>
				</g>
			</g>
		</g>
		<g>
			<g>
				<g>
					<path style="fill:#8C7BFF;" d="M1000.66,850.206c-1.115,0-2.072-0.843-2.191-1.976l-5.35-51.505
						c-2.219-21.383,13.492-40.6,35.021-42.837c10.442-1.082,20.654,1.931,28.787,8.485c8.139,6.559,13.216,15.877,14.292,26.239
						l5.35,51.504c0.125,1.211-0.755,2.294-1.965,2.42c-1.225,0.139-2.296-0.754-2.421-1.964l-5.35-51.504
						c-0.953-9.185-5.453-17.446-12.672-23.262c-7.225-5.822-16.326-8.493-25.565-7.534c-19.115,1.985-33.063,19.031-31.092,37.997
						l5.35,51.505c0.125,1.211-0.755,2.294-1.965,2.42C1000.813,850.202,1000.736,850.206,1000.66,850.206z"/>
					<g>
						
							<ellipse transform="matrix(0.9946 -0.1033 0.1033 0.9946 -81.7661 115.8198)" style="fill:#FFFFFF;" cx="1076.996" cy="847.106" rx="17.682" ry="26.644"/>
						<path d="M1078.543,875.874c-10.356,0-19.756-11.587-21.328-26.713c-0.779-7.504,0.443-14.794,3.443-20.524
							c3.157-6.027,7.9-9.658,13.356-10.224c5.46-0.575,10.844,2.012,15.17,7.26c4.115,4.991,6.811,11.873,7.59,19.379
							c0.779,7.504-0.443,14.793-3.445,20.524c-3.155,6.026-7.898,9.656-13.354,10.224
							C1079.497,875.849,1079.019,875.874,1078.543,875.874z M1075.476,822.746c-0.336,0-0.671,0.017-1.005,0.052
							c-3.941,0.409-7.459,3.209-9.906,7.884c-2.604,4.97-3.656,11.372-2.964,18.024c1.392,13.406,9.489,23.58,17.918,22.71
							c3.941-0.409,7.457-3.21,9.906-7.885c2.604-4.97,3.656-11.372,2.964-18.023c0,0,0,0,0-0.001
							c-0.689-6.652-3.035-12.7-6.605-17.03C1082.714,824.751,1079.088,822.746,1075.476,822.746z"/>
					</g>
				</g>
				<g>
					<polygon style="fill:#FDA4FF;" points="1006.172,866.084 1000.7,920.587 1050.666,920.587 1052.371,881.374 					"/>
					<path d="M1051.505,901.287c0.288-6.638,0.578-13.275,0.866-19.913l-46.958-12.912c0.557,3.417,2.866,14.919,13.146,23.807
						C1032.296,904.147,1049.08,901.685,1051.505,901.287z"/>
					<ellipse style="fill:#FDA4FF;" cx="1038.208" cy="848.224" rx="37.508" ry="41.675"/>
					<path style="fill:#FFFFFF;" d="M1028.232,862.996c0.574,2.932,2.046,5.713,4.428,7.876c5.311,4.822,13.238,4.914,18.656,0.554
						L1028.232,862.996z"/>
				</g>
				<path d="M1065.931,820.224c-6.861-8.381-16.724-13.674-27.723-13.674c-20.715,0-39.442,15.216-39.442,38.232
					c0,2.755,1.124,8.996,2.709,11.907c9.574-4.052,33.315-16.133,46.887-36.762c0,0-0.473,13.735-19.816,32.787
					C1028.546,852.714,1057.017,844.199,1065.931,820.224z"/>
				<g>
					<circle cx="998.48" cy="769.791" r="29.733"/>
					<circle cx="996.706" cy="700.109" r="42.963"/>
					<path d="M1008.389,809.882c-0.818,0-1.603-0.456-1.984-1.242c-0.532-1.094-0.075-2.414,1.02-2.944l15.188-7.371
						c1.098-0.532,2.413-0.074,2.944,1.02c0.531,1.094,0.075,2.414-1.02,2.944l-15.188,7.371
						C1009.039,809.811,1008.711,809.882,1008.389,809.882z"/>
				</g>
				<g>
					<path style="fill:#8C7BFF;" d="M1000.66,850.206c-1.115,0-2.072-0.843-2.191-1.976l-5.35-51.505
						c-2.219-21.383,13.492-40.6,35.021-42.837c1.205-0.132,2.294,0.754,2.421,1.964c0.125,1.211-0.755,2.294-1.965,2.42
						c-19.115,1.985-33.063,19.031-31.092,37.997l5.35,51.505c0.125,1.211-0.755,2.294-1.965,2.42
						C1000.813,850.202,1000.736,850.206,1000.66,850.206z"/>
					<g>
						<g>
							
								<ellipse transform="matrix(0.9946 -0.1033 0.1033 0.9946 -83.1747 107.8942)" style="fill:#FFFFFF;" cx="999.798" cy="856.743" rx="17.682" ry="26.644"/>
							<path d="M1001.345,885.51c-10.354,0-19.754-11.586-21.328-26.712c-1.642-15.821,5.895-29.615,16.799-30.748
								c10.922-1.121,21.117,10.817,22.763,26.638c0,0,0,0,0,0.001c1.642,15.82-5.895,29.614-16.799,30.747
								C1002.3,885.485,1001.82,885.51,1001.345,885.51z M998.299,832.381c-0.342,0-0.684,0.017-1.026,0.053
								c-8.488,0.882-14.262,12.505-12.87,25.909c1.395,13.404,9.48,23.581,17.921,22.709c8.488-0.882,14.262-12.505,12.87-25.909
								C1013.857,842.281,1006.4,832.381,998.299,832.381z"/>
						</g>
						<g>
							<path style="fill:#FFFFFF;" d="M996.414,857.094c0.822,7.913-2.769,14.771-8.021,15.316
								c-5.252,0.545-10.175-5.427-10.997-13.341c-0.822-7.913,2.769-14.771,8.02-15.316
								C990.668,843.208,995.591,849.181,996.414,857.094z"/>
							<path d="M987.709,874.649c-2.976,0-5.85-1.515-8.176-4.336c-2.35-2.85-3.887-6.762-4.33-11.016
								c-0.441-4.255,0.26-8.399,1.973-11.672c1.868-3.568,4.713-5.722,8.012-6.065c3.308-0.335,6.525,1.181,9.088,4.288
								c2.35,2.852,3.887,6.763,4.33,11.017c0.962,9.264-3.424,17.055-9.986,17.736
								C988.316,874.633,988.012,874.649,987.709,874.649z M986.088,845.923c-0.146,0-0.293,0.008-0.443,0.023
								c-2.406,0.25-3.893,2.442-4.565,3.725c-1.315,2.514-1.846,5.771-1.491,9.171c0.353,3.401,1.541,6.479,3.344,8.669
								c0.923,1.118,2.841,2.942,5.232,2.707c3.966-0.412,6.74-6.318,6.056-12.896c-0.353-3.401-1.541-6.48-3.344-8.669
								C990.012,847.605,988.281,845.923,986.088,845.923z"/>
						</g>
					</g>
				</g>
			</g>
			<g>
				<g>
					<g>
						<path style="fill:#FDA4FF;" d="M1242.884,1166.585l-97.189-124.097h107.084l44.826,52.433
							c17.264,20.194,42.505,31.817,69.073,31.808l76.98-0.03v74.678l-129.24,0.034
							C1286.486,1201.418,1260.105,1188.574,1242.884,1166.585z"/>
					</g>
					<g>
						<path style="fill:#FDA4FF;" d="M1581.589,1162.392l-2.791,5.691l-28.015-1.758l-22.201-24.771h-181.893v-14.329h63.963
							c9.206,0,34.693-14.856,55.469-14.856h37.834c12.133,0,24.104,2.79,34.988,8.153l34.104,16.807
							C1582.318,1141.898,1586.14,1153.112,1581.589,1162.392z"/>
						<path style="fill:#FDA4FF;" d="M1548.104,1178.708l31.318,15.298c6.673,3.289,14.748,0.527,18.01-6.16l0.054-0.111
							c3.932-8.062,0.607-17.786-7.439-21.751l-36.332-17.905c-10.883-5.363-22.854-8.153-34.986-8.153h-172.039v52.508h128.129
							l13.12-12.5c8.735-8.322,20.875-12.154,32.768-10.124C1528.518,1171.143,1537.962,1173.754,1548.104,1178.708z"/>
						<path d="M1585.345,1197.602c-2.363,0-4.713-0.542-6.897-1.618l-31.309-15.295c-8.632-4.216-17.649-7.145-26.802-8.705
							c-10.722-1.828-21.611,1.317-29.878,8.631c-0.91,0.805-2.305,0.724-3.112-0.19c-0.807-0.911-0.721-2.304,0.189-3.111
							c9.274-8.203,21.493-11.733,33.541-9.675c9.568,1.631,18.986,4.69,27.995,9.091l31.318,15.298
							c2.707,1.333,5.759,1.531,8.606,0.555c2.845-0.974,5.137-2.999,6.456-5.702c3.445-7.063,0.559-15.501-6.379-18.919
							l-36.332-17.905c-10.52-5.184-22.283-7.925-34.012-7.925h-13.375c-1.218,0-2.204-0.987-2.204-2.204
							c0-1.217,0.986-2.204,2.204-2.204h13.375c12.403,0,24.837,2.898,35.962,8.379l36.332,17.905
							c9.108,4.488,12.898,15.566,8.445,24.694c-1.892,3.875-5.083,6.694-9.047,8.05
							C1588.76,1197.32,1587.049,1197.602,1585.345,1197.602z"/>
						<path style="fill:#FDA4FF;" d="M1489.102,1178.339c2.855,0.479,5.936,0.748,9.321,0.748c1.25,0.133,6.521,0.089,24.924,0.045
							c9.209-0.022,16.701,7.437,16.701,16.646v0.236c0,9.19-7.45,16.639-16.639,16.639h-69.855
							c-48.892,0-46.711-37.144-46.711-37.144v-18.788h15.631C1457.632,1156.72,1465.917,1174.451,1489.102,1178.339z"/>
					</g>
					<g>
						<path d="M1522.929,1214.857h-64.469c-19.41,0-32.809-3.526-42.057-11.085h-101.986c-0.006,0-0.013,0-0.021,0
							c-28.296,0-55.677-13.393-73.247-35.828l-97.19-124.096c-0.521-0.664-0.615-1.566-0.247-2.324
							c0.37-0.758,1.138-1.239,1.982-1.239h107.085c0.643,0,1.257,0.282,1.674,0.771l44.826,52.433
							c17.161,20.074,41.715,31.585,67.366,31.585c0.011,0,0.021,0,0.032,0l43.974-0.053c3.278,0,9.506-2.353,16.72-5.079
							c11.527-4.356,25.875-9.777,38.751-9.777h37.834c12.403,0,24.837,2.898,35.962,8.38l34.105,16.806
							c10.238,5.047,14.537,17.126,9.788,27.501c-0.506,1.104-1.812,1.596-2.92,1.086c-1.108-0.507-1.593-1.814-1.087-2.922
							c3.751-8.19,0.355-17.727-7.73-21.712l-34.104-16.806c-10.52-5.186-22.281-7.926-34.012-7.926h-37.834
							c-12.071,0-26.002,5.263-37.193,9.493c-7.931,2.996-14.195,5.363-18.276,5.363l-43.974,0.053c-0.009,0-0.021,0-0.032,0
							c-26.945,0.001-52.716-12.073-70.716-33.128l-44.168-51.662h-101.543l94.398,120.533
							c16.741,21.377,42.827,34.139,69.78,34.139c0.006,0,0.011,0,0.019,0h102.785c0.525,0,1.033,0.187,1.431,0.528
							c8.426,7.202,21.08,10.556,39.827,10.556h64.469c7.961,0,14.436-6.476,14.436-14.435v-0.236c0-3.861-1.506-7.49-4.242-10.219
							c-2.731-2.724-6.355-4.223-10.21-4.223c-0.011,0-0.024,0-0.036,0l-9.013,0.024c-10.961,0.031-13.548,0.038-14.731-0.069
							c-4.875-0.008-9.349-0.512-13.672-1.544c-1.186-0.282-1.915-1.471-1.634-2.655c0.282-1.185,1.494-1.908,2.654-1.632
							c4.02,0.958,8.193,1.424,12.76,1.424c0.078,0,0.155,0.004,0.232,0.012c0.893,0.096,4.018,0.086,14.378,0.057l9.017-0.024
							c0.015,0,0.03,0,0.047,0c5.027,0,9.758,1.955,13.319,5.509c3.57,3.562,5.537,8.3,5.537,13.34v0.236
							C1541.773,1206.404,1533.319,1214.857,1522.929,1214.857z"/>
					</g>
				</g>
				<polygon style="fill:#4ADA85;" points="1264.81,1250.987 894.845,1250.987 918.186,1030.116 1182.352,1030.116 				"/>
				<path d="M1264.811,1253.191H894.845c-0.624,0-1.22-0.265-1.638-0.729c-0.417-0.465-0.62-1.085-0.553-1.706l23.342-220.871
					c0.118-1.121,1.063-1.972,2.191-1.972h264.166c0.919,0,1.743,0.571,2.064,1.433l82.458,220.871
					c0.254,0.676,0.159,1.433-0.254,2.027C1266.21,1252.837,1265.534,1253.191,1264.811,1253.191z M897.294,1248.783h364.342
					l-80.814-216.464H920.169L897.294,1248.783z"/>
				<g>
					<path style="fill:#FDA4FF;" d="M851.512,1155.943v-154.692h117.041v96.491c0,12.428,10.077,22.502,22.506,22.497l192.497-0.056
						v105.469l-262.269,0.049C882.754,1225.71,851.512,1194.475,851.512,1155.943z"/>
					<path d="M851.512,1116.503v-115.253h117.042v89.286c-7.848-0.331-18.545-1.272-26.864-3.835
						c-12.446-3.834-24.657-5.613-36.644,10.774C889.342,1118.943,869.178,1121.279,851.512,1116.503z"/>
					<g>
						<path style="fill:#FDA4FF;" d="M1299.34,1152.984l11.445,12.364c5.781,6.246,6.361,15.7,1.387,22.606l-11.239,15.603
							l-27.24-30.394h-171.124v-35.809h161.007C1277.153,1137.355,1290.116,1143.02,1299.34,1152.984z"/>
						<path style="fill:#FDA4FF;" d="M1294.065,1130.648l6.475,6.995c5.781,6.246,6.361,15.7,1.387,22.606l-11.239,15.603
							l-27.24-30.394h-160.88v-24.912h27.306c11.295,0,31.444-10.897,56.936-10.897h59.205
							C1264.257,1109.649,1281.673,1117.26,1294.065,1130.648z"/>
						<path d="M1312.168,1190.159c-0.445,0-0.895-0.135-1.287-0.415c-0.986-0.712-1.209-2.089-0.499-3.077
							c4.345-6.03,3.833-14.366-1.216-19.821l-11.443-12.365c-8.781-9.483-21.226-14.923-34.15-14.923h-31.498
							c-1.218,0-2.204-0.987-2.204-2.204c0-1.217,0.986-2.204,2.204-2.204h31.498c14.146,0,27.773,5.955,37.382,16.337
							l11.445,12.365c6.469,6.988,7.123,17.666,1.558,25.391C1313.528,1189.841,1312.853,1190.159,1312.168,1190.159z"/>
						<path style="fill:#FDA4FF;" d="M1303.341,1177.057l13.73,14.833c5.781,6.246,6.361,15.7,1.387,22.606l-11.24,15.603
							l-27.24-30.394h-106.02v-35.815h99.254C1284.651,1163.891,1295.571,1168.663,1303.341,1177.057z"/>
						<path d="M1314.079,1222.775c-0.446,0-0.895-0.135-1.285-0.415c-0.988-0.711-1.212-2.089-0.501-3.076l4.375-6.075
							c4.345-6.029,3.833-14.365-1.216-19.821l-13.728-14.832c-7.328-7.919-17.72-12.46-28.511-12.46h-41.428
							c-1.218,0-2.204-0.987-2.204-2.204c0-1.217,0.986-2.204,2.204-2.204h41.428c12.015,0,23.585,5.056,31.746,13.874
							l13.728,14.832c6.469,6.989,7.124,17.667,1.558,25.391l-4.375,6.075C1315.439,1222.458,1314.764,1222.775,1314.079,1222.775z"
							/>
						<path style="fill:#FDA4FF;" d="M1298.318,1203.134l14.323,15.474c5.31,5.737,5.843,14.421,1.274,20.763
							c-6.132,8.513-18.564,9.176-25.566,1.363l-7.773-8.673c-3.714-4.144-9.017-6.512-14.582-6.512h-89.025
							c-23.275,0-39.659-1.332-62.084-35.842l152.771,0.027C1279.297,1189.734,1290.41,1194.591,1298.318,1203.134z"/>
						<path d="M1300.566,1248.404c-5.294,0-10.298-2.226-13.859-6.198l-7.774-8.673c-3.288-3.674-8.006-5.78-12.938-5.78h-98.464
							c-17.865,0-34.524-8.839-44.566-23.644c-0.684-1.007-0.422-2.378,0.585-3.061c1.005-0.683,2.378-0.422,3.06,0.586
							c9.222,13.595,24.519,21.712,40.92,21.712h98.464c6.185,0,12.097,2.641,16.223,7.246l7.773,8.672
							c2.888,3.225,7.027,4.939,11.352,4.711c4.324-0.23,8.253-2.377,10.784-5.89c3.941-5.471,3.478-13.032-1.102-17.979
							l-14.324-15.475c-7.468-8.066-18.054-12.693-29.045-12.693h-34.475c-1.218,0-2.204-0.987-2.204-2.204
							c0-1.217,0.986-2.204,2.204-2.204h34.475c12.215,0,23.981,5.141,32.28,14.107l14.324,15.475
							c5.998,6.479,6.605,16.382,1.444,23.548c-3.314,4.601-8.464,7.414-14.126,7.716
							C1301.24,1248.394,1300.902,1248.404,1300.566,1248.404z"/>
					</g>
					<path d="M921.271,1227.906c-19.218,0-37.288-7.483-50.878-21.073c-13.597-13.593-21.084-31.666-21.084-50.891V1001.25
						c0-1.217,0.986-2.204,2.204-2.204h117.041c1.218,0,2.204,0.987,2.204,2.204v96.491c0,5.422,2.111,10.52,5.946,14.352
						c3.833,3.831,8.929,5.941,14.346,5.941c0.004,0,0.006,0,0.011,0h133.7c10.003,0,17.99-2.203,26.447-4.533
						c10.296-2.84,21.965-6.057,39.552-6.057h55.256c18.797,0,36.898,7.911,49.667,21.706l6.476,6.995
						c5.587,6.037,6.941,14.743,3.448,22.182c-0.514,1.101-1.821,1.578-2.931,1.059c-1.102-0.518-1.575-1.83-1.059-2.931
						c2.727-5.807,1.67-12.603-2.692-17.316l-6.474-6.995c-11.938-12.896-28.862-20.292-46.434-20.292h-55.256
						c-16.991,0-27.863,2.998-38.381,5.898c-8.753,2.414-17.019,4.693-27.618,4.693h-133.7c-0.004,0-0.006,0-0.011,0
						c-6.594,0-12.797-2.568-17.462-7.231c-4.668-4.666-7.237-10.87-7.237-17.47v-94.287H853.716v152.488
						c0,18.048,7.029,35.014,19.791,47.774c12.76,12.757,29.725,19.782,47.766,19.782c0.004,0,0.007,0,0.013,0h280.231
						c1.218,0,2.204,0.987,2.204,2.204c0,1.217-0.986,2.204-2.204,2.204H921.286
						C921.282,1227.906,921.275,1227.906,921.271,1227.906z"/>
				</g>
				<path style="fill:#4ADA85;" d="M841.42,1063.845v-33.04c0-61.072,49.508-110.58,110.58-110.58h151.684
					c47.438,0,92.076,22.455,120.354,60.543l61.679,83.077h-97.048H841.42z"/>
				<path d="M894.845,1068.423h-53.426c-1.218,0-2.204-0.987-2.204-2.204v-35.415c0-62.19,50.594-112.784,112.784-112.784h151.685
					c47.91,0,93.563,22.965,122.122,61.433l61.68,83.077c0.497,0.669,0.575,1.56,0.2,2.304c-0.375,0.745-1.136,1.214-1.969,1.214
					h-89.147c-1.218,0-2.204-0.987-2.204-2.204c0-1.217,0.986-2.204,2.204-2.204h84.765l-59.067-79.559
					c-27.732-37.353-72.061-59.653-118.584-59.653H951.999c-59.758,0-108.376,48.617-108.376,108.376v33.211h51.223
					c1.218,0,2.204,0.987,2.204,2.204C897.049,1067.437,896.063,1068.423,894.845,1068.423z"/>
				<path d="M1283.25,1066.049h-88.306c-1.218,0-2.204-0.987-2.204-2.204c0-1.217,0.986-2.204,2.204-2.204h88.306
					c1.218,0,2.204,0.987,2.204,2.204C1285.454,1065.062,1284.468,1066.049,1283.25,1066.049z"/>
				<path d="M984.547,1065.84c-1.218,0-2.204-0.987-2.204-2.204v-62.385c0-1.217,0.986-2.204,2.204-2.204
					c1.218,0,2.204,0.987,2.204,2.204v62.385C986.751,1064.853,985.766,1065.84,984.547,1065.84z"/>
			</g>
			<g>
				<path d="M1720.358,1770.155H880.105c-1.218,0-2.204-0.987-2.204-2.204v-512.714c0-1.217,0.986-2.204,2.204-2.204h840.252
					c1.218,0,2.204,0.987,2.204,2.204v512.714C1722.561,1769.168,1721.576,1770.155,1720.358,1770.155z M882.309,1765.747h835.845
					V1257.44H882.309V1765.747z"/>
			</g>
			<g>
				<g>
					<path style="fill:#FFFFFF;" d="M1698.065,1125.35h-518.98c-25.744,0-46.613-20.869-46.613-46.613V766.679
						c0-25.744,20.869-46.613,46.613-46.613h518.98c25.743,0,46.613,20.869,46.613,46.613v312.058
						C1744.677,1104.48,1723.808,1125.35,1698.065,1125.35z"/>
					<path d="M1698.066,1127.554h-518.98c-26.917,0-48.816-21.899-48.816-48.816V766.68c0-26.918,21.9-48.816,48.816-48.816h518.98
						c26.917,0,48.817,21.899,48.817,48.816v312.058C1746.882,1105.655,1724.982,1127.554,1698.066,1127.554z M1179.086,722.271
						c-24.487,0-44.409,19.922-44.409,44.409v312.058c0,24.487,19.922,44.409,44.409,44.409h518.98
						c24.487,0,44.409-19.922,44.409-44.409V766.68c0-24.487-19.922-44.409-44.409-44.409H1179.086z"/>
				</g>
				<g>
					<polygon style="fill:#FFFFFF;" points="1353.94,1125.35 1523.21,1125.35 1541.409,1232.25 1335.741,1232.25 					"/>
					<path d="M1541.409,1234.454H1335.74c-0.65,0-1.265-0.286-1.683-0.782c-0.42-0.496-0.598-1.151-0.488-1.792l18.2-106.9
						c0.179-1.059,1.098-1.833,2.172-1.833h169.27c1.074,0,1.993,0.775,2.172,1.833l18.198,106.9c0.11,0.64-0.069,1.296-0.489,1.792
						C1542.675,1234.167,1542.059,1234.454,1541.409,1234.454z M1338.351,1230.046h200.448l-17.447-102.492H1355.8
						L1338.351,1230.046z"/>
				</g>
				<g>
					<path style="fill:#FFFFFF;" d="M1569.092,1253.022h-261.035c-5.736,0-10.386-4.65-10.386-10.386
						c0-5.736,4.65-10.386,10.386-10.386h261.035c5.736,0,10.386,4.65,10.386,10.386S1574.828,1253.022,1569.092,1253.022z"/>
					<path d="M1569.092,1255.226h-261.034c-6.943,0-12.59-5.648-12.59-12.59c0-6.942,5.647-12.59,12.59-12.59h261.034
						c6.943,0,12.59,5.648,12.59,12.59C1581.682,1249.578,1576.035,1255.226,1569.092,1255.226z M1308.058,1234.454
						c-4.511,0-8.182,3.67-8.182,8.182c0,4.512,3.672,8.182,8.182,8.182h261.034c4.511,0,8.182-3.67,8.182-8.182
						c0-4.512-3.672-8.182-8.182-8.182H1308.058z"/>
				</g>
			</g>
		</g>
		<g>
			<g>
				<g>
					<g>
						<path style="fill:#FED101;" d="M917.974,1692.472H738.422v-136.888h92.19c22.886,0,41.439-18.553,41.439-41.439v-171.211
							h155.163v240.298C1027.214,1643.563,978.306,1692.472,917.974,1692.472z"/>
						<path style="fill:#FED101;" d="M376.49,1608.903l30.188,83.376h403.94l-106.724-311.185
							c-25.535-47.606-76.146-76.312-130.11-73.795l-7.207,0.336c-52.745,2.46-105.008,11.198-155.684,26.029l-15.615,4.57
							c-42.253,12.366-58.649,70.174-50.479,134.244C349.226,1507.212,376.49,1608.903,376.49,1608.903z"/>
					</g>
					<g>
						<path style="fill:#955B50;" d="M747.037,1570.707v97.942H830.2h33.084h62.771c5.42,0,10.581,2.311,14.197,6.358l7.569,8.468
							c6.815,7.628,18.919,6.982,24.89-1.33c3.982-5.545,3.953-12.906,0.198-18.41l4.224-5.877
							c4.841-6.743,4.278-15.972-1.352-22.071l-4.251-4.608c4.275-6.662,3.551-15.435-1.869-21.306l-7.099-7.693l0.112-0.076
							c2.97-6.337,1.898-13.989-2.987-19.281l-6.303-6.83c-12.064-13.07-29.018-20.501-46.78-20.501h-59.833
							c-24.816,0-31.195,15.213-42.193,15.213H747.037z"/>
						<g>
							<path d="M971.527,1635.11c-0.407,0-0.82-0.113-1.188-0.35c-1.024-0.657-1.321-2.02-0.665-3.044
								c3.758-5.852,3.084-13.51-1.633-18.622l-11.139-12.071c-8.538-9.247-20.639-14.551-33.201-14.551h-30.668
								c-1.218,0-2.204-0.987-2.204-2.204c0-1.217,0.986-2.204,2.204-2.204h30.668c13.789,0,27.069,5.82,36.438,15.969
								l11.141,12.071c6.08,6.588,6.943,16.453,2.105,23.992C972.963,1634.752,972.252,1635.11,971.527,1635.11z"/>
							<path d="M972.868,1667.718c-0.445,0-0.895-0.135-1.283-0.414c-0.99-0.71-1.216-2.087-0.506-3.075l4.261-5.932
								c4.216-5.869,3.721-13.981-1.179-19.289l-13.367-14.482c-7.123-7.719-17.223-12.146-27.713-12.146h-40.331
								c-1.218,0-2.204-0.987-2.204-2.204s0.986-2.204,2.204-2.204h40.331c11.716,0,22.997,4.943,30.952,13.564l13.365,14.482
								c6.314,6.837,6.954,17.289,1.524,24.85l-4.261,5.932C974.23,1667.4,973.554,1667.718,972.868,1667.718z"/>
							<path d="M863.284,1672.577h-118.45v-102.349h59.745c3.73,0,7.037-2.197,11.223-4.979
								c6.863-4.559,15.403-10.234,30.969-10.234h59.833c18.317,0,35.958,7.732,48.399,21.211l6.304,6.83
								c5.453,5.909,6.773,14.431,3.364,21.711c-0.516,1.1-1.831,1.575-2.929,1.061c-1.102-0.516-1.578-1.828-1.061-2.931
								c2.645-5.651,1.621-12.265-2.613-16.851l-6.301-6.83c-11.611-12.579-28.072-19.793-45.162-19.793h-59.833
								c-14.234,0-22.16,5.266-28.531,9.498c-4.614,3.067-8.602,5.715-13.662,5.715h-55.337v93.534h114.043
								c1.218,0,2.204,0.987,2.204,2.204S864.503,1672.577,863.284,1672.577z"/>
							<path d="M959.714,1692.738c-5.171,0.001-10.061-2.18-13.537-6.07l-7.569-8.468c-3.194-3.574-7.769-5.624-12.553-5.624H830.2
								c-17.415,0-33.655-8.639-43.44-23.109c-0.682-1.008-0.418-2.378,0.59-3.059c1.012-0.684,2.38-0.417,3.06,0.591
								c8.966,13.256,23.841,21.17,39.79,21.17h95.855c6.037,0,11.809,2.586,15.84,7.093l7.569,8.468
								c2.8,3.135,6.786,4.798,10.999,4.581c4.19-0.224,8.002-2.311,10.455-5.728c3.824-5.322,3.375-12.678-1.068-17.491
								l-13.943-15.108c-7.261-7.864-17.55-12.374-28.234-12.374h-33.562c-1.218,0-2.204-0.987-2.204-2.204s0.986-2.204,2.204-2.204
								h33.562c11.908,0,23.378,5.027,31.47,13.792l13.943,15.108c5.856,6.343,6.45,16.039,1.412,23.052
								c-3.239,4.508-8.268,7.262-13.802,7.557C960.368,1692.729,960.041,1692.738,959.714,1692.738z"/>
						</g>
					</g>
					<g>
						<path style="fill:#FED101;" d="M766.278,1568.832h-202.76L436.135,1347.84h-38.588c-46.552,0-75.667,50.514-52.432,90.967
							l105.942,184.451c25.067,43.644,71.467,70.54,121.69,70.54h193.531V1568.832z"/>
						<path style="fill:#6155FF;" d="M504.069,1615.401c-17.974,0-34.506,6.142-47.663,16.424
							c25.984,38.566,69.496,61.974,116.341,61.974h8.941c0.001-0.182,0.013-0.361,0.013-0.543
							C581.701,1650.258,546.945,1615.401,504.069,1615.401z"/>
						<path d="M768.482,1696.003H572.747c-50.859,0-98.218-27.453-123.6-71.647l-105.942-184.45
							c-11.331-19.729-11.292-43.262,0.105-62.953c11.35-19.609,31.625-31.315,54.237-31.315c1.218,0,2.204,0.987,2.204,2.204
							c0,1.217-0.986,2.204-2.204,2.204c-21.02,0-39.87,10.884-50.422,29.116c-10.601,18.313-10.638,40.202-0.099,58.549
							l105.942,184.45c24.596,42.829,70.495,69.435,119.778,69.435h191.327v-120.559h-201.83l-73.818-128.066
							c-0.609-1.055-0.245-2.402,0.809-3.01c1.057-0.61,2.404-0.244,3.009,0.808l72.548,125.86h203.689V1696.003z"/>
					</g>
				</g>
				<g>
					<g>
						<path style="fill:#8C7BFF;" d="M440.975,1235.038c-1.059,0-1.993-0.764-2.172-1.842l-11.684-70.24
							c-2.314-13.912,0.966-27.898,9.239-39.381c8.268-11.479,20.533-19.084,34.537-21.412c14.006-2.33,28.072,0.896,39.61,9.08
							c11.544,8.188,19.175,20.359,21.489,34.27l11.684,70.24c0.2,1.201-0.611,2.336-1.812,2.535
							c-1.205,0.201-2.337-0.611-2.535-1.812l-11.684-70.24c-2.12-12.745-9.112-23.895-19.692-31.398
							c-10.582-7.507-23.486-10.46-36.336-8.328c-12.848,2.137-24.102,9.113-31.683,19.641
							c-7.582,10.524-10.588,23.337-8.469,36.082l11.684,70.24c0.2,1.201-0.611,2.336-1.812,2.535
							C441.216,1235.028,441.095,1235.038,440.975,1235.038z"/>
						<g>
							
								<ellipse transform="matrix(0.9864 -0.1641 0.1641 0.9864 -193.6239 106.1332)" style="fill:#FFFFFF;" cx="545.668" cy="1225.174" rx="24.314" ry="36.637"/>
							<path d="M548.949,1263.744c-6.153,0-12.304-3.012-17.6-8.69c-5.959-6.386-10.162-15.452-11.839-25.53
								c-1.677-10.076-0.635-20.016,2.935-27.986c3.708-8.275,9.691-13.488,16.851-14.678c14.419-2.42,29.015,12.835,32.531,33.963
								c3.512,21.127-5.363,40.267-19.786,42.666C551.013,1263.659,549.982,1263.744,548.949,1263.744z M542.385,1191.012
								c-0.788,0-1.578,0.063-2.365,0.195c-5.656,0.941-10.468,5.249-13.552,12.133c-3.22,7.188-4.145,16.231-2.611,25.462
								c1.537,9.231,5.342,17.487,10.713,23.246c5.144,5.515,11.077,8.035,16.748,7.093c12.026-2,19.277-18.865,16.162-37.595
								C564.569,1204.044,553.621,1191.012,542.385,1191.012z"/>
						</g>
					</g>
					<g>
						<polygon style="fill:#955B50;" points="467.993,1325.872 531.625,1355.95 518.075,1244.439 458.964,1251.57 						"/>
						<path d="M461.682,1275.66l-2.718-22.366l59.111-7.131l5.999,49.367c-5.206,1.705-15.676,4.321-28.375,1.779
							C475.824,1293.332,464.63,1279.548,461.682,1275.66z"/>
						
							<ellipse transform="matrix(0.9922 -0.1246 0.1246 0.9922 -149.6876 71.2468)" style="fill:#955B50;" cx="494.845" cy="1232.524" rx="47.251" ry="52.123"/>
						<path d="M491.599,1287.132c-10.309,0-18.889-2.885-29.697-12.157c-0.923-0.792-1.029-2.183-0.237-3.107
							c0.792-0.925,2.186-1.031,3.108-0.238c12.865,11.036,21.893,12.159,36.095,10.448c11.906-1.437,22.485-7.915,29.794-18.242
							c7.356-10.394,10.52-23.43,8.905-36.707c-3.321-27.324-26.09-47.145-50.745-44.16c-15.82,1.908-29.058,12.614-35.411,28.636
							c-0.448,1.132-1.739,1.682-2.86,1.236c-1.132-0.449-1.685-1.729-1.238-2.861c6.855-17.287,21.79-29.314,38.979-31.386
							c27.054-3.279,52.036,18.266,55.652,48.004c1.743,14.365-1.696,28.494-9.685,39.784
							c-8.036,11.357-19.707,18.484-32.863,20.072C497.907,1286.875,494.677,1287.132,491.599,1287.132z"/>
						<path style="fill:#FFFFFF;" d="M482.831,1257.637c4.291,3.065,9.553,4.85,15.235,4.742c12.666-0.241,22.957-9.708,24.63-21.85
							L482.831,1257.637z"/>
						
							<ellipse transform="matrix(0.0873 -0.9962 0.9962 0.0873 -722.3858 1567.2213)" cx="494.107" cy="1177.848" rx="20.776" ry="20.82"/>
						
							<ellipse transform="matrix(0.0874 -0.9962 0.9962 0.0874 -766.223 1547.7252)" cx="461.607" cy="1192.052" rx="16.684" ry="16.72"/>
						
							<ellipse transform="matrix(0.0872 -0.9962 0.9962 0.0872 -698.4059 1604.063)" cx="526.127" cy="1183.149" rx="18.115" ry="18.153"/>
						
							<ellipse transform="matrix(0.0873 -0.9962 0.9962 0.0873 -691.9321 1566.2623)" cx="508.809" cy="1160.748" rx="20.498" ry="20.542"/>
						
							<ellipse transform="matrix(0.0866 -0.9962 0.9962 0.0866 -727.2307 1535.49)" cx="473.8" cy="1164.357" rx="22.246" ry="22.293"/>
						<path d="M465.729,1182.129c1.441,11.858-7.024,22.633-18.906,24.067s-22.684-7.018-24.124-18.876
							c-1.441-11.858,7.024-22.633,18.906-24.067C453.487,1161.819,464.288,1170.27,465.729,1182.129z"/>
						
							<ellipse transform="matrix(0.088 -0.9961 0.9961 0.088 -807.1978 1554.7666)" cx="445.509" cy="1218.22" rx="20.108" ry="20.151"/>
						
							<ellipse transform="matrix(0.0875 -0.9962 0.9962 0.0875 -845.6013 1580.3456)" cx="439.829" cy="1251.743" rx="21.849" ry="21.895"/>
						
							<ellipse transform="matrix(0.0877 -0.9961 0.9961 0.0877 -831.4685 1538.0984)" cx="423.984" cy="1222.986" rx="24.312" ry="24.364"/>
						
							<ellipse transform="matrix(0.0875 -0.9962 0.9962 0.0875 -794.5985 1509.1198)" cx="426.427" cy="1188.277" rx="17.702" ry="17.74"/>
						
							<ellipse transform="matrix(0.0864 -0.9963 0.9963 0.0864 -755.7559 1511.2411)" cx="446.125" cy="1167.696" rx="18.114" ry="18.153"/>
					</g>
					<g>
						<path style="fill:#8C7BFF;" d="M440.975,1235.038c-1.059,0-1.993-0.764-2.172-1.842l-11.684-70.24
							c-2.314-13.912,0.966-27.898,9.239-39.381c8.268-11.479,20.533-19.084,34.537-21.412c1.205-0.199,2.337,0.611,2.535,1.812
							c0.2,1.201-0.611,2.336-1.812,2.535c-12.848,2.137-24.102,9.112-31.683,19.641c-7.582,10.524-10.588,23.337-8.469,36.082
							l11.684,70.24c0.2,1.201-0.611,2.336-1.812,2.535C441.216,1235.028,441.095,1235.038,440.975,1235.038z"/>
						<g>
							<g>
								
									<ellipse transform="matrix(0.9864 -0.1641 0.1641 0.9864 -198.2859 89.1497)" style="fill:#FFFFFF;" cx="440.527" cy="1244.904" rx="24.314" ry="36.637"/>
								<path d="M443.807,1283.474c-6.153,0-12.304-3.012-17.6-8.69c-5.959-6.386-10.162-15.452-11.839-25.53
									c-1.677-10.076-0.635-20.016,2.935-27.986c3.708-8.275,9.691-13.488,16.851-14.678
									c14.406-2.417,29.017,12.834,32.531,33.963c3.512,21.127-5.363,40.267-19.787,42.666
									C445.871,1283.39,444.84,1283.474,443.807,1283.474z M437.243,1210.743c-0.788,0-1.577,0.063-2.365,0.195
									c-5.656,0.941-10.468,5.249-13.552,12.133c-3.22,7.188-4.145,16.231-2.611,25.462c1.537,9.231,5.342,17.487,10.713,23.246
									c5.143,5.515,11.077,8.036,16.748,7.093c12.026-2,19.276-18.865,16.162-37.595
									C459.427,1223.775,448.479,1210.743,437.243,1210.743z"/>
							</g>
							<g>
								
									<ellipse transform="matrix(0.9864 -0.1641 0.1641 0.9864 -199.0095 86.3071)" style="fill:#FFFFFF;" cx="422.943" cy="1247.829" rx="13.146" ry="19.809"/>
								<path d="M424.709,1269.696c-3.607,0-7.188-1.74-10.248-5.021c-3.355-3.597-5.72-8.686-6.659-14.328
									c-0.938-5.642-0.349-11.221,1.661-15.71c2.148-4.794,5.651-7.821,9.867-8.521c8.486-1.428,16.728,7.019,18.754,19.195
									c0.938,5.642,0.349,11.222-1.664,15.711c-2.148,4.794-5.652,7.821-9.868,8.521
									C425.94,1269.645,425.325,1269.696,424.709,1269.696z M421.135,1230.374c-0.359,0-0.721,0.029-1.08,0.088
									c-2.712,0.451-5.045,2.573-6.568,5.975c-1.659,3.707-2.135,8.39-1.336,13.186c0.798,4.796,2.763,9.073,5.533,12.043
									c2.546,2.727,5.447,3.978,8.148,3.528c2.712-0.451,5.045-2.574,6.568-5.975c1.661-3.707,2.137-8.391,1.339-13.187
									C432.267,1237.198,426.657,1230.374,421.135,1230.374z"/>
							</g>
						</g>
					</g>
				</g>
			</g>
			<g>
				<path d="M1229.236,2164.764H334.168c-1.218,0-2.204-0.987-2.204-2.204v-470.832c0-1.217,0.986-2.204,2.204-2.204h895.069
					c1.218,0,2.204,0.987,2.204,2.204v470.832C1231.44,2163.778,1230.454,2164.764,1229.236,2164.764z M336.371,2160.357h890.661
					v-466.424H336.371V2160.357z"/>
			</g>
			<g>
				<polygon points="848.003,1548.128 1035.263,1548.128 1055.396,1666.389 827.87,1666.389 				"/>
				<g>
					<path d="M1228.701,1548.128H654.565c-28.479,0-51.567-23.087-51.567-51.567v-345.222c0-28.479,23.087-51.567,51.567-51.567
						h574.136c28.479,0,51.567,23.087,51.567,51.567v345.222C1280.267,1525.041,1257.18,1548.128,1228.701,1548.128z"/>
					<path style="fill:#FFFFFF;" d="M1228.7,1550.331H654.566c-29.65,0-53.771-24.121-53.771-53.771v-345.222
						c0-29.65,24.121-53.771,53.771-53.771H1228.7c29.65,0,53.771,24.121,53.771,53.771v345.222
						C1282.471,1526.21,1258.35,1550.331,1228.7,1550.331z M654.566,1101.976c-27.218,0-49.363,22.144-49.363,49.363v345.222
						c0,27.219,22.145,49.363,49.363,49.363H1228.7c27.22,0,49.363-22.144,49.363-49.363v-345.222
						c0-27.219-22.143-49.363-49.363-49.363H654.566z"/>
				</g>
				<g>
					<path d="M1086.021,1689.369H797.245c-6.346,0-11.49-5.144-11.49-11.49c0-6.346,5.144-11.49,11.49-11.49h288.777
						c6.346,0,11.49,5.144,11.49,11.49C1097.511,1684.224,1092.367,1689.369,1086.021,1689.369z"/>
					<path style="fill:#FFFFFF;" d="M1086.022,1691.573H797.245c-7.552,0-13.694-6.143-13.694-13.694
						c0-7.551,6.142-13.694,13.694-13.694h288.777c7.552,0,13.694,6.143,13.694,13.694
						C1099.716,1685.429,1093.574,1691.573,1086.022,1691.573z M797.245,1668.592c-5.12,0-9.286,4.165-9.286,9.286
						s4.167,9.286,9.286,9.286h288.777c5.12,0,9.286-4.165,9.286-9.286s-4.167-9.286-9.286-9.286H797.245z"/>
				</g>
			</g>
		</g>
		<g>
			<g>
				<path style="fill:#8C7BFF;" d="M1115.991,2061.026H535.094c-14.545,0-26.445-11.9-26.445-26.445v-15.275
					c0-14.545,11.9-26.445,26.445-26.445h580.897c14.545,0,26.445,11.9,26.445,26.445v15.275
					C1142.437,2049.126,1130.536,2061.026,1115.991,2061.026z"/>
				<path style="fill:#FFFFFF;" d="M857.986,2044.245h-311.01c-7.787,0-14.159-6.371-14.159-14.159v-8.178
					c0-7.787,6.371-14.159,14.159-14.159h311.01c7.787,0,14.159,6.371,14.159,14.159v8.178
					C872.144,2037.874,865.773,2044.245,857.986,2044.245z"/>
			</g>
			<g>
				<g>
					<ellipse style="fill:#FFFFFF;" cx="1301.966" cy="1979.079" rx="117.756" ry="117.822"/>
					<path d="M1301.967,2099.105c-66.147,0-119.961-53.844-119.961-120.026c0-66.182,53.814-120.026,119.961-120.026
						c66.145,0,119.959,53.844,119.959,120.026C1421.926,2045.262,1368.112,2099.105,1301.967,2099.105z M1301.967,1863.462
						c-63.715,0-115.553,51.866-115.553,115.618c0,63.752,51.838,115.618,115.553,115.618c63.716,0,115.551-51.866,115.551-115.618
						C1417.518,1915.328,1365.683,1863.462,1301.967,1863.462z"/>
				</g>
				<path style="fill:#8C7BFF;" d="M1301.966,1987.032c-33.754,0-64.619,12.369-88.32,32.821
					c15.416,33.372,49.162,56.531,88.32,56.531c39.157,0,72.904-23.159,88.32-56.531
					C1366.585,1999.402,1335.72,1987.032,1301.966,1987.032z"/>
				<ellipse style="fill:#8C7BFF;" cx="1301.966" cy="1937.213" rx="33.029" ry="33.047"/>
			</g>
		</g>
		<g>
			<g>
				<path style="fill:#8C7BFF;" d="M720.05,563.355h580.897c14.545,0,26.445-11.9,26.445-26.445v-15.275
					c0-14.545-11.9-26.445-26.445-26.445H720.05c-14.545,0-26.445,11.9-26.445,26.445v15.275
					C693.605,551.455,705.506,563.355,720.05,563.355z"/>
				<path style="fill:#FFFFFF;" d="M978.056,546.573h311.01c7.787,0,14.159-6.371,14.159-14.159v-8.178
					c0-7.787-6.371-14.159-14.159-14.159h-311.01c-7.787,0-14.159,6.371-14.159,14.159v8.178
					C963.897,540.202,970.269,546.573,978.056,546.573z"/>
			</g>
			<g>
				<g>
					<ellipse style="fill:#FFFFFF;" cx="534.076" cy="481.408" rx="117.756" ry="117.822"/>
					<path d="M534.075,601.434c-66.147,0-119.961-53.844-119.961-120.026s53.814-120.026,119.961-120.026
						s119.961,53.844,119.961,120.026S600.223,601.434,534.075,601.434z M534.075,365.79c-63.715,0-115.553,51.866-115.553,115.618
						s51.838,115.618,115.553,115.618s115.554-51.866,115.554-115.618S597.791,365.79,534.075,365.79z"/>
				</g>
				<path style="fill:#8C7BFF;" d="M534.076,489.361c33.754,0,64.618,12.369,88.32,32.821
					c-15.415,33.372-49.162,56.531-88.32,56.531c-39.158,0-72.904-23.159-88.32-56.531
					C469.457,501.73,500.322,489.361,534.076,489.361z"/>
				<ellipse style="fill:#8C7BFF;" cx="534.076" cy="439.541" rx="33.029" ry="33.047"/>
			</g>
		</g>
		<g>
			<g>
				<path style="fill:#8C7BFF;" d="M1832.276,1395.318h-580.897c-14.545,0-26.445-11.9-26.445-26.445v-15.275
					c0-14.545,11.9-26.445,26.445-26.445h580.897c14.545,0,26.445,11.9,26.445,26.445v15.275
					C1858.721,1383.418,1846.82,1395.318,1832.276,1395.318z"/>
				<path style="fill:#FFFFFF;" d="M1574.27,1378.536h-311.01c-7.787,0-14.159-6.371-14.159-14.159v-8.178
					c0-7.787,6.371-14.159,14.159-14.159h311.01c7.787,0,14.159,6.371,14.159,14.159v8.178
					C1588.429,1372.165,1582.057,1378.536,1574.27,1378.536z"/>
			</g>
			<g>
				<g>
					<ellipse style="fill:#FFFFFF;" cx="2018.251" cy="1313.371" rx="117.756" ry="117.822"/>
					<path d="M2018.251,1433.396c-66.147,0-119.961-53.844-119.961-120.026c0-66.182,53.814-120.026,119.961-120.026
						c66.145,0,119.959,53.844,119.959,120.026C2138.21,1379.552,2084.396,1433.396,2018.251,1433.396z M2018.251,1197.753
						c-63.715,0-115.553,51.866-115.553,115.618s51.838,115.618,115.553,115.618s115.551-51.866,115.551-115.618
						S2081.967,1197.753,2018.251,1197.753z"/>
				</g>
				<path style="fill:#8C7BFF;" d="M2018.251,1321.324c-33.754,0-64.619,12.369-88.32,32.821
					c15.415,33.372,49.162,56.531,88.32,56.531c39.157,0,72.904-23.159,88.32-56.531
					C2082.869,1333.693,2052.004,1321.324,2018.251,1321.324z"/>
				<ellipse style="fill:#8C7BFF;" cx="2018.251" cy="1271.505" rx="33.028" ry="33.047"/>
			</g>
		</g>
		<path style="fill:#FFFFFF;" d="M781.059,1422.683c-0.581,0-1.138-0.23-1.552-0.639c-0.415-0.412-0.65-0.973-0.652-1.558
			l-0.075-24.267c-8.423-2.128-16.477-5.44-23.985-9.864l-17.043,17.237c-0.411,0.417-0.973,0.652-1.558,0.654
			c-0.519,0.016-1.149-0.23-1.565-0.642l-29.469-29.361c-0.859-0.856-0.865-2.248-0.011-3.111l17.051-17.246
			c-4.468-7.509-7.829-15.573-10.014-24.016l-24.164,0.107c-0.004,0-0.009,0-0.011,0c-0.581,0-1.138-0.23-1.552-0.639
			c-0.415-0.412-0.65-0.973-0.652-1.558l-0.129-41.707c-0.004-1.216,0.977-2.205,2.193-2.21l24.168-0.108
			c2.135-8.465,5.447-16.559,9.867-24.108l-17.157-17.092c-0.859-0.856-0.865-2.248-0.011-3.111l29.286-29.622
			c0.411-0.417,0.973-0.652,1.558-0.654c0.002,0,0.006,0,0.009,0c0.583,0,1.143,0.231,1.556,0.642l17.146,17.083
			c7.485-4.491,15.519-7.875,23.929-10.077l-0.075-24.273c-0.004-1.216,0.977-2.205,2.193-2.21l41.547-0.184
			c0.004,0,0.006,0,0.011,0c0.581,0,1.139,0.23,1.552,0.639c0.415,0.412,0.65,0.973,0.652,1.558l0.075,24.267
			c8.421,2.129,16.474,5.441,23.985,9.864l17.043-17.237c0.411-0.417,0.973-0.652,1.558-0.654c0.002,0,0.006,0,0.009,0
			c0.583,0,1.143,0.231,1.556,0.642l29.469,29.361c0.859,0.857,0.865,2.248,0.011,3.111l-17.051,17.246
			c4.468,7.511,7.829,15.575,10.014,24.016l24.164-0.108c0.004,0,0.009,0,0.011,0c0.581,0,1.138,0.23,1.552,0.639
			c0.415,0.412,0.65,0.973,0.652,1.558l0.129,41.707c0.004,1.216-0.977,2.205-2.193,2.21l-24.17,0.108
			c-2.133,8.462-5.445,16.557-9.865,24.108l17.157,17.092c0.859,0.857,0.865,2.248,0.011,3.111l-29.286,29.622
			c-0.411,0.416-0.973,0.652-1.558,0.654c-0.575,0.012-1.149-0.23-1.565-0.642l-17.146-17.083
			c-7.485,4.491-15.519,7.874-23.929,10.076l0.075,24.274c0.004,1.216-0.977,2.205-2.193,2.21l-41.547,0.184
			C781.065,1422.683,781.063,1422.683,781.059,1422.683z M754.445,1381.369c0.398,0,0.796,0.107,1.154,0.326
			c8.027,4.936,16.733,8.517,25.879,10.642c0.996,0.231,1.702,1.118,1.704,2.14l0.073,23.788l37.139-0.165l-0.073-23.796
			c-0.002-1.02,0.695-1.909,1.687-2.149c9.127-2.205,17.811-5.862,25.812-10.87c0.867-0.543,1.997-0.414,2.725,0.307l16.808,16.746
			l26.187-26.487l-16.821-16.757c-0.721-0.72-0.856-1.84-0.325-2.711c4.928-8.068,8.507-16.817,10.636-26
			c0.232-0.995,1.117-1.701,2.137-1.706l23.697-0.105l-0.116-37.299l-23.688,0.106c-0.004,0-0.009,0-0.011,0
			c-1.02,0-1.907-0.7-2.143-1.693c-2.184-9.163-5.817-17.878-10.797-25.903c-0.538-0.866-0.411-1.987,0.306-2.712l16.718-16.908
			l-26.348-26.25l-16.705,16.896c-0.725,0.729-1.851,0.863-2.72,0.328c-8.029-4.936-16.735-8.516-25.879-10.642
			c-0.997-0.231-1.702-1.118-1.705-2.14l-0.073-23.788l-37.139,0.165l0.073,23.795c0.002,1.02-0.695,1.909-1.685,2.149
			c-9.129,2.206-17.815,5.864-25.815,10.872c-0.865,0.545-1.997,0.416-2.724-0.307l-16.808-16.746l-26.187,26.487l16.821,16.758
			c0.721,0.72,0.857,1.84,0.325,2.711c-4.928,8.066-8.507,16.814-10.64,26c-0.23,0.995-1.115,1.701-2.135,1.706l-23.695,0.105
			l0.116,37.299l23.688-0.104c0.004,0,0.009,0,0.011,0c1.02,0,1.907,0.699,2.143,1.693c2.184,9.164,5.817,17.879,10.797,25.902
			c0.538,0.866,0.411,1.987-0.306,2.712l-16.718,16.908l26.348,26.25l16.705-16.896
			C753.305,1381.593,753.873,1381.369,754.445,1381.369z M801.405,1361.212c-14.454,0-28.059-5.607-38.336-15.807
			c-10.39-10.313-16.139-24.075-16.184-38.75c-0.095-30.213,24.319-54.902,54.421-55.035c0.082,0,0.166,0,0.247,0
			c14.454,0,28.059,5.607,38.336,15.807c10.39,10.313,16.139,24.075,16.184,38.75c0.093,30.214-24.321,54.901-54.421,55.035
			l-0.011-2.204l0.011,2.204C801.57,1361.212,801.486,1361.212,801.405,1361.212z M801.553,1256.027c-0.075,0-0.151,0-0.226,0
			c-27.676,0.123-50.121,22.828-50.034,50.615c0.043,13.497,5.326,26.151,14.882,35.634c9.443,9.375,21.947,14.529,35.23,14.529
			c0.075,0,0.151,0,0.226,0c27.674-0.123,50.118-22.828,50.034-50.615c-0.043-13.497-5.326-26.151-14.882-35.634
			C827.34,1261.182,814.836,1256.027,801.553,1256.027z"/>
		<path style="fill:#4ADA85;" d="M1876.271,1078.531l-0.1-32.339l-20.079,0.089c-1.763-7.39-4.693-14.321-8.582-20.589
			l14.159-14.321l-22.85-22.766l-14.159,14.321c-6.273-3.857-13.199-6.746-20.574-8.46l-0.063-20.157l-32.215,0.143l0.063,20.157
			c-7.364,1.78-14.272,4.73-20.521,8.642l-14.247-14.195l-22.708,22.968l14.248,14.195c-3.85,6.302-6.737,13.259-8.454,20.665
			l-20.079,0.089l0.1,32.339l20.079-0.089c1.763,7.39,4.693,14.321,8.582,20.589l-14.159,14.321l22.85,22.766l14.159-14.321
			c6.273,3.857,13.199,6.745,20.574,8.46l0.063,20.157l32.215-0.143l-0.063-20.157c7.364-1.78,14.272-4.73,20.521-8.642
			l14.248,14.196l22.708-22.968l-14.248-14.196c3.85-6.302,6.737-13.259,8.454-20.665L1876.271,1078.531z M1788.316,1103.53
			c-22.435,0.099-40.679-18.078-40.749-40.6c-0.07-22.522,18.061-40.86,40.496-40.959c22.435-0.099,40.679,18.078,40.749,40.599
			C1828.881,1085.093,1810.751,1103.431,1788.316,1103.53z"/>
		<g>
			<g>
				<path style="fill:#FFFFFF;" d="M1527.726,1606.618c0,466.436,271.304,556.179,271.304,556.179s271.304-118.104,271.304-556.179
					l-271.304-157.457L1527.726,1606.618z"/>
				<path d="M1799.03,2165c-0.232,0-0.467-0.037-0.693-0.112c-0.682-0.226-69.199-23.56-136.646-103.85
					c-39.556-47.086-71.067-104.29-93.658-170.024c-28.208-82.075-42.511-177.76-42.511-284.397c0-0.786,0.417-1.512,1.098-1.906
					l271.304-157.457c0.684-0.398,1.528-0.398,2.212,0l271.304,157.457c0.68,0.394,1.097,1.12,1.097,1.906
					c0,100.171-14.305,191.835-42.515,272.444c-22.586,64.536-54.085,122.172-93.623,171.305
					c-67.387,83.739-135.807,114.153-136.489,114.451C1799.631,2164.939,1799.329,2165,1799.03,2165z M1529.93,1607.886
					c0.26,239.496,73.596,377.06,135.136,450.317c62.732,74.675,126.062,99.383,133.859,102.218
					c7.711-3.595,71.353-34.833,134.212-113.03c61.467-76.468,134.716-214.758,134.994-439.505l-269.1-156.178L1529.93,1607.886z"/>
				<path style="fill:#8C7BFF;" d="M1799.647,2102.523c0,0-215.014-84.265-225.848-462.05l225.7-130.949L1799.647,2102.523z"/>
				<path style="fill:#FED101;" d="M1800.051,1509.756v592.446V1509.756z"/>
				<path style="fill:#6155FF;" d="M1799.277,2102.449c0,0,215.171-84.191,226.005-461.976l-226.005-130.986V2102.449z"/>
				<path d="M1799.032,2104.405c-0.85,0-1.661-0.494-2.023-1.323c-0.484-1.116,0.026-2.414,1.141-2.9
					c0.56-0.244,56.622-25.213,111.951-94.058c50.958-63.409,111.682-178.056,111.957-364.381l-224.134-130.081
					c-1.052-0.61-1.412-1.959-0.801-3.012c0.611-1.052,1.954-1.413,3.013-0.799l225.232,130.718c0.68,0.394,1.098,1.12,1.098,1.906
					c0,188.508-61.505,304.508-113.102,368.626c-56,69.589-112.885,94.875-113.453,95.122
					C1799.624,2104.347,1799.325,2104.405,1799.032,2104.405z"/>
				<path d="M1799.682,2104.405c-0.293,0-0.592-0.058-0.878-0.183c-0.568-0.248-57.453-25.534-113.453-95.122
					c-51.597-64.118-113.102-180.118-113.102-368.626c0-0.786,0.417-1.512,1.098-1.906l225.232-130.718
					c1.059-0.611,2.402-0.252,3.013,0.799c0.611,1.052,0.252,2.402-0.801,3.012l-224.134,130.081
					c0.276,186.325,61,300.972,111.957,364.381c55.329,68.845,111.391,93.814,111.951,94.058c1.115,0.487,1.625,1.784,1.141,2.9
					C1801.344,2103.911,1800.532,2104.405,1799.682,2104.405z"/>
			</g>
			<g>
				<g>
					<g>
						<g>
							<polygon style="fill:#4ADA85;" points="1963.865,1986.194 1940.739,2001.652 1869.201,1918.353 1914.524,1888.059 							"/>
							<path d="M1940.338,2004.568l-74.431-86.666l49.464-33.063l51.336,102.104L1940.338,2004.568z M1872.493,1918.805
								l68.646,79.93l19.883-13.29l-47.346-94.167L1872.493,1918.805z"/>
						</g>
						<path style="fill:#4ADA85;" d="M1945.631,1867.332l-106.401,71.12l-11.169-16.764c-1.726-2.59-1.028-6.09,1.558-7.819
							l97.03-64.856c2.589-1.73,6.089-1.031,7.816,1.561L1945.631,1867.332z"/>
						<g>
							
								<ellipse transform="matrix(0.9989 -0.0469 0.0469 0.9989 -90.896 93.498)" style="fill:#4ADA85;" cx="1945.018" cy="1981.821" rx="21.455" ry="21.491"/>
							<path d="M1945.068,2005.523c-1.552,0-3.114-0.153-4.672-0.464c-6.2-1.238-11.548-4.821-15.056-10.089
								c-7.242-10.866-4.306-25.606,6.542-32.858c5.255-3.511,11.561-4.767,17.755-3.528c6.202,1.237,11.55,4.821,15.058,10.089
								c7.242,10.867,4.306,25.606-6.542,32.859C1954.219,2004.16,1949.696,2005.523,1945.068,2005.523z M1944.974,1962.528
								c-3.762,0-7.442,1.109-10.642,3.249c-8.83,5.903-11.219,17.903-5.324,26.75c2.856,4.288,7.207,7.203,12.252,8.21
								c5.045,1.009,10.173-0.014,14.445-2.871c8.83-5.903,11.219-17.903,5.324-26.75c-2.856-4.287-7.207-7.203-12.254-8.21
								C1947.509,1962.653,1946.237,1962.528,1944.974,1962.528z"/>
						</g>
						<path d="M1838.618,1941.51l-12.39-18.602c-2.395-3.594-1.425-8.472,2.167-10.872l97.03-64.856
							c1.741-1.164,3.839-1.575,5.884-1.17c2.055,0.41,3.828,1.597,4.991,3.341l12.385,18.589L1838.618,1941.51z M1929.771,1850.266
							c-0.669,0-1.326,0.197-1.896,0.579l-97.03,64.856c-1.573,1.051-1.999,3.188-0.949,4.764l9.945,14.927l102.738-68.67
							l-9.945-14.926c-0.51-0.764-1.285-1.284-2.184-1.463C1930.223,1850.288,1929.997,1850.266,1929.771,1850.266z"/>
					</g>
					<g>
						<polygon style="fill:#FED101;" points="1891.934,1870.446 1856.249,1894.298 1651.49,1586.965 1651.618,1548.45 
							1687.175,1563.112 						"/>
						<polygon style="fill:#FFFFFF;" points="1651.618,1548.45 1874.705,1881.962 1891.934,1870.446 1687.175,1563.112 						"/>
						<path d="M1855.637,1897.357l-206.353-309.728l0.14-42.468l39.212,16.17l206.353,309.724L1855.637,1897.357z
							 M1653.696,1586.301l203.164,304.94l32.021-21.404l-203.168-304.944l-31.903-13.155L1653.696,1586.301z"/>
					</g>
				</g>
				<g>
					<g>
						<g>
							<polygon style="fill:#4ADA85;" points="1628.756,1986.089 1652.024,2001.641 1724.001,1917.832 1678.4,1887.352 							"/>
							<path d="M1652.424,2004.559l-26.51-17.719l51.638-102.706l49.742,33.248L1652.424,2004.559z M1631.6,1985.339l20.023,13.385
								l69.085-80.442l-41.46-27.713L1631.6,1985.339z"/>
						</g>
						<path style="fill:#4ADA85;" d="M1647.102,1866.498l107.053,71.556l11.237-16.866c1.736-2.606,1.034-6.127-1.568-7.867
							l-97.625-65.254c-2.605-1.741-6.126-1.038-7.864,1.57L1647.102,1866.498z"/>
						<g>
							
								<ellipse transform="matrix(0.0472 -0.9989 0.9989 0.0472 -409.5175 3534.0583)" style="fill:#4ADA85;" cx="1647.719" cy="1981.689" rx="21.623" ry="21.586"/>
							<path d="M1647.668,2005.523c-4.653,0-9.2-1.371-13.156-4.015c-10.909-7.291-13.862-22.113-6.581-33.041
								c3.529-5.297,8.908-8.901,15.144-10.145c6.235-1.24,12.571,0.019,17.852,3.549c10.909,7.291,13.862,22.113,6.581,33.041
								c-3.532,5.299-8.91,8.901-15.147,10.145C1650.797,2005.369,1649.226,2005.523,1647.668,2005.523z M1631.598,1970.911
								c-5.933,8.91-3.53,20.991,5.363,26.933c4.302,2.876,9.465,3.904,14.538,2.891c5.081-1.013,9.465-3.949,12.342-8.266
								c5.933-8.909,3.529-20.991-5.363-26.932c-4.302-2.876-9.469-3.901-14.54-2.891
								C1638.857,1963.658,1634.473,1966.593,1631.598,1970.911z"/>
						</g>
						<path d="M1754.766,1941.111l-110.718-74.005l12.454-18.692c1.167-1.751,2.944-2.942,5.008-3.354
							c2.064-0.419,4.164,0.006,5.914,1.174l97.624,65.253c3.605,2.411,4.582,7.31,2.178,10.921L1754.766,1941.111z
							 M1650.156,1865.888l103.387,69.106l10.016-15.03c1.059-1.59,0.628-3.75-0.96-4.813l-97.624-65.252
							c-0.768-0.514-1.687-0.7-2.602-0.518c-0.908,0.182-1.689,0.706-2.204,1.476L1650.156,1865.888z"/>
					</g>
					<g>
						<polygon style="fill:#FED101;" points="1701.128,1869.631 1737.032,1893.63 1943.047,1584.412 1942.918,1545.661 
							1907.143,1560.413 						"/>
						<polygon style="fill:#FFFFFF;" points="1942.918,1545.661 1718.463,1881.218 1701.128,1869.631 1907.143,1560.413 						"/>
						<path d="M1737.643,1896.688l-39.569-26.448l207.606-311.608l39.431-16.259l0.142,42.703L1737.643,1896.688z
							 M1704.182,1869.022l32.239,21.55l204.421-306.824l-0.116-34.799l-32.122,13.244L1704.182,1869.022z"/>
					</g>
				</g>
			</g>
		</g>
	</g>
</g>
</svg>
