<?xml version="1.0" encoding="utf-8"?>
<!-- Generator: Adobe Illustrator 27.5.0, SVG Export Plug-In . SVG Version: 6.00 Build 0)  -->
<svg version="1.1" id="Layer_1" xmlns="http://www.w3.org/2000/svg" xmlns:xlink="http://www.w3.org/1999/xlink" x="0px" y="0px"
	 viewBox="0 0 1364 960" style="enable-background:new 0 0 1364 960;" xml:space="preserve">
<g>
	<circle style="fill:#FFF7CC;" cx="1068.07" cy="638.943" r="128.553"/>
	<g>
		<g>
			<path style="fill:#1E1A1B;" d="M1089.428,705.531c-2.622,0-5.237-0.157-7.827-0.477c-0.548-0.067-0.938-0.566-0.87-1.114
				c0.067-0.548,0.56-0.956,1.114-0.87c12.782,1.569,26.213-0.902,37.824-6.972c15.448-8.072,27.455-22.276,32.94-38.97
				c5.715-17.391,3.874-37.423-4.803-52.278c-9.104-15.584-25.406-25.107-41.64-24.295c-0.56,0.019-1.022-0.396-1.05-0.948
				c-0.028-0.552,0.397-1.021,0.948-1.05c16.913-0.852,33.991,9.061,43.468,25.285c8.958,15.335,10.864,35.992,4.977,53.911
				c-5.646,17.183-18.008,31.806-33.914,40.118C1110.981,702.897,1100.15,705.531,1089.428,705.531z"/>
		</g>
		<g>
			<path style="fill:#1E1A1B;" d="M1084.114,717.648c-0.13,0-0.26-0.025-0.384-0.076l-21.366-8.868
				c-0.3-0.125-0.521-0.389-0.592-0.706c-0.071-0.317,0.017-0.65,0.235-0.891l16.118-17.73c0.255-0.279,0.647-0.394,1.009-0.29
				c0.363,0.101,0.64,0.398,0.713,0.77l5.248,26.599c0.071,0.361-0.063,0.733-0.348,0.967
				C1084.566,717.57,1084.342,717.648,1084.114,717.648z M1064.444,707.401l18.327,7.607l-4.502-22.816L1064.444,707.401z"/>
		</g>
	</g>
	
		<ellipse transform="matrix(0.7071 -0.7071 0.7071 0.7071 -28.3114 380.315)" style="fill:#FFF7CC;" cx="444.925" cy="224.332" rx="117.596" ry="117.596"/>
	<g>
		<g>
			<g>
				<path style="fill:#6278F5;" d="M1084.825,164.857v337.564c0,16.548-13.754,29.911-30.757,29.911H505.073
					c-16.939,0-30.693-13.363-30.693-29.911V164.857c0-16.548,13.754-29.976,30.693-29.976h548.996
					C1071.071,134.882,1084.825,148.31,1084.825,164.857z"/>
				<path style="fill:#FFFFFF;" d="M1085.688,220.212v337.564c0,16.548-13.78,29.911-30.815,29.911H504.839
					c-16.971,0-30.751-13.363-30.751-29.911V220.212c0-16.548,13.78-29.976,30.751-29.976h550.034
					C1071.907,190.236,1085.688,203.664,1085.688,220.212z"/>
				<g>
					<g>
						<polygon style="fill:#D9E0F5;" points="767.908,239.708 767.559,365.157 508.561,365.157 508.561,341.423 529.052,311.995 
							552.357,331.038 584.809,301.573 615.131,343.829 633.925,303.468 664.247,302.52 699.518,263.959 716.842,278.942 
							737.859,254.437 						"/>
						<g>
							<polygon style="fill:#1E1A1B;" points="798.813,387.417 497.619,387.417 497.619,385.417 796.813,385.417 796.813,225.358 
								798.813,225.358 							"/>
						</g>
					</g>
				</g>
				<g>
					<path style="fill:#1E1A1B;" d="M1054.873,588.687H504.839c-17.508,0-31.751-13.866-31.751-30.911V220.211
						c0-17.08,14.243-30.976,31.751-30.976h550.034c17.543,0,31.814,13.896,31.814,30.976v337.564
						C1086.687,574.82,1072.416,588.687,1054.873,588.687z M504.839,191.236c-16.404,0-29.751,12.998-29.751,28.976v337.564
						c0,15.941,13.347,28.911,29.751,28.911h550.034c16.439,0,29.814-12.97,29.814-28.911V220.211
						c0-15.978-13.375-28.976-29.814-28.976H504.839z"/>
				</g>
				<path style="fill:#FFFFFF;" d="M586.458,167.752c0-3.053-2.297-5.528-5.132-5.528c-2.835,0-5.132,2.475-5.132,5.528
					c0,3.053,2.297,5.529,5.132,5.529C584.16,173.281,586.458,170.805,586.458,167.752z"/>
				<path style="fill:#FFFFFF;" d="M560.454,167.752c0-3.053-2.297-5.528-5.131-5.528c-2.834,0-5.132,2.475-5.132,5.528
					c0,3.053,2.298,5.529,5.132,5.529C558.156,173.281,560.454,170.805,560.454,167.752z"/>
				<path style="fill:#FFFFFF;" d="M534.451,167.752c0-3.053-2.297-5.528-5.133-5.528c-2.834,0-5.131,2.475-5.131,5.528
					c0,3.053,2.297,5.529,5.131,5.529C532.154,173.281,534.451,170.805,534.451,167.752z"/>
				<path style="fill:#FFFFFF;" d="M916.538,173.281h117.949c3.054,0,5.529-2.476,5.529-5.529l0,0c0-3.053-2.475-5.528-5.529-5.528
					H916.538c-3.054,0-5.529,2.475-5.529,5.528l0,0C911.01,170.805,913.485,173.281,916.538,173.281z"/>
			</g>
		</g>
	</g>
	<g>
		<g>
			<g>
				<path style="fill:#D4D4E6;" d="M249.525,368.396c32.438-13.729,64.066-16.841,97.164-9.769
					c18.368,3.925,31.43,20.273,31.483,39.073c0.273,96.647-12.811,173.753,80.134,190.24
					c-10.381,27.472-123.92,8.068-161.318-8.554C301.157,496.685,297.8,417.44,249.525,368.396z"/>
				<path style="fill:#33D2E6;" d="M425.773,587.686l38.545,243.258c0.512,3.614,2.468,6.179,4.744,6.179
					c2.961,0,5.238-4.321,4.82-9.15L449.97,587.686H425.773z"/>
				<path style="fill:#D4D4E6;" d="M364.252,587.686l-38.545,243.258c-0.512,3.614-2.468,6.179-4.745,6.179
					c-2.961,0-5.238-4.321-4.82-9.15l23.913-240.287H364.252z"/>
				<path style="fill:#F5F5FA;" d="M244.891,380.524c19.633,23.724,29.439,54.638,32.324,85.01
					c2.08,31.875-7.336,69.736,7.705,101.12c35.071,66.079,134.044,46.998,193.764,33.727c8.158-1.877,6.205-14.659-2.155-13.922
					c-8.203,0.543-16.359,1.376-24.501,1.985c-43.702,1.527-121.555,13.034-145.938-31.979c-12.882-27.498-4.316-62.786-8.23-93.265
					c-3.613-25.646-11.978-50.886-26.374-72.556c-4.947-7.478-10.296-14.229-16.968-20.421
					C247.954,364.111,238.33,374.329,244.891,380.524z"/>
			</g>
			<g>
				<g>
					<path style="fill:#FF9E9E;" d="M610.163,722.32l-49.423,20.205l21.261,48.875c20.046-2.067,37.628-7.356,49.423-20.205
						L610.163,722.32z"/>
				</g>
				<g>
					<path style="fill:#1E1A1B;" d="M625.829,757.919c2.95-0.083,46.199-0.635,66.213,31.75c7.145,11.561,8.837,23.289,9.13,31.039
						c-11.668-0.005-142.418-0.06-142.428-0.06h0l10.455-60.115C569.199,760.532,604.048,783.184,625.829,757.919z"/>
					<path style="fill:#FCCA01;" d="M561.479,837.475h137.692c4.311,0,7.806-3.495,7.806-7.806v-1.157
						c0-4.311-3.495-7.806-7.806-7.806H561.479c-4.311,0-7.806,3.495-7.806,7.806v1.157
						C553.674,833.981,557.168,837.475,561.479,837.475z"/>
					<g>
						<path style="fill:#FFFFFF;" d="M661.92,793.943c-0.229,0-0.463-0.038-0.691-0.119c-1.08-0.382-1.646-1.567-1.263-2.646
							c6.532-18.461,14.743-20.438,15.658-20.602c1.134-0.2,2.204,0.547,2.408,1.674c0.2,1.112-0.526,2.176-1.628,2.399
							c-0.22,0.058-6.883,1.953-12.529,17.912C663.574,793.412,662.775,793.943,661.92,793.943z"/>
					</g>
					<g>
						<path style="fill:#FFFFFF;" d="M645.227,785.425c-0.229,0-0.463-0.038-0.691-0.119c-1.08-0.382-1.646-1.567-1.263-2.646
							c6.532-18.461,14.744-20.436,15.658-20.601c1.134-0.196,2.204,0.547,2.408,1.674c0.2,1.112-0.526,2.176-1.628,2.399
							c-0.223,0.058-6.884,1.954-12.529,17.911C646.881,784.895,646.082,785.425,645.227,785.425z"/>
					</g>
				</g>
				<path style="fill:#FF5285;" d="M433.941,572.557l80.245,20.276l25.306,162.485c19.253,3.91,67.783-5.456,87.654-10.96
					c0,0-19.409-167.605-27.34-188.223c-17.963-46.695-116.527-47.716-116.527-47.716l-60.42-6.121l-15.393,6.93L433.941,572.557z"
					/>
				<path style="fill:#1E1A1B;" d="M475.675,546.621l10.09,39.8l28.422,6.412C509.927,565.487,475.675,546.621,475.675,546.621z"/>
				<g>
					<polygon style="fill:#FF9E9E;" points="488.669,724.703 435.102,724.703 436.291,777.989 489.858,777.989 					"/>
				</g>
				<g>
					<polygon style="fill:#FF9E9E;" points="393.794,316.857 414.19,316.857 414.582,306.589 415.072,293.778 395.905,287.154 
						395.565,287.034 395.558,287.222 395.437,289.184 					"/>
					<path style="fill:#1E1A1B;" d="M400.777,292.073c1.009,8.235,6.397,12.33,13.805,14.516l0.49-12.811l-19.167-6.624
						c-0.113,0.015-0.226,0.038-0.347,0.068L400.777,292.073z"/>
				</g>
				<path style="fill:#1E1A1B;" d="M386.053,269.874c1.569,2.948,2.485,5.474,3.034,7.252c1.228,3.979,1.477,6.991,4.068,9.39
					c0.095,0.088,1.861,1.701,2.553,1.255c0,0,0.267-0.172,0.352-2.525l0,0c-0.354-0.358-0.922-0.977-1.478-1.838
					c-2.344-3.627-1.263-6.556-2.756-9.357C391.133,272.751,389.653,271.042,386.053,269.874z"/>
				<path style="fill:#FF9E9E;" d="M426.571,275.906c-0.476,4.204-2.12,18.73-10.713,21.612c-2.469,0.828-4.637,0.401-6.052,0.123
					c-8.558-1.685-17.255-11.018-17.428-21.989c-0.152-9.644,6.267-21.706,16.545-22.313c7.692-0.454,14.981,5.659,17.32,12.449
					C427.352,269.007,427.064,271.551,426.571,275.906z"/>
				<path style="fill:#FF9E9E;" d="M399.382,277.847c0,3.38-2.143,6.12-4.786,6.12s-4.786-2.74-4.786-6.12
					c0-3.38,2.143-6.12,4.786-6.12S399.382,274.467,399.382,277.847z"/>
				<path style="fill:#1E1A1B;" d="M420.923,231.405c-23.294-30.153-63.687,12.254-31.453,46.76
					c-0.44-3.083,1.397-6.032,5.056-5.226c2.326,0.942,1.982,5.959,3.243,5.006c1.329-1.53-0.085-7.026,1.663-11.426
					c3.247-8.367,12.918-0.744,19.552-9.315c0.24,2.243,3.992,6.318,6.165,6.894c2.972,1.36-0.302,12.672,2.19,8.345
					C441.608,257.419,443.37,231.519,420.923,231.405z"/>
				<path style="fill:#FFF0CC;" d="M492.335,406.253c3.202,17.439,10.978,25.59,15.509,29.278
					c6.061,4.934,13.383,7.639,49.12,10.957c13.755,1.277,25.31,2.05,33.683,2.529c-0.418,13.468-0.835,26.935-1.253,40.403
					c-12.478,3.572-32.973,7.833-57.972,5.393c-22.883-2.234-52.048-5.081-69.308-28.081c-18.062-24.068-11.666-54.982-9.846-62.668
					C465.623,404.793,478.979,405.523,492.335,406.253z"/>
				<path style="fill:#FCCA01;" d="M449.676,313.816c0,0,34.905,15.265,48.446,62.429c13.54,47.165,15.058,59.031,15.058,59.031
					l-48.298,10.881L449.676,313.816z"/>
				<polygon style="fill:#1E1A1B;" points="472.084,378.018 494.93,439.388 475.677,442.806 				"/>
				<path style="fill:#FF5285;" d="M486.231,557.103c-25.159-34.841-79.382-66.515-79.382-66.515
					c-19.444,5.642-38.888,11.284-58.332,16.927c-27.516,78.889,49.205,87.191,49.205,87.191l14.905,156.641
					c28.59,3.93,71.431,4.9,95.627-1.881C508.253,749.465,504.116,581.87,486.231,557.103z"/>
				<g>
					<path style="fill:#FCCA01;" d="M483.278,508.419c-37.778,29.037-93.771,24.352-140.665,24.626
						c0.229-13.698,0.777-62.167,2.439-89.488c0.107-1.708,0.214-3.432,0.335-5.156c0.381-5.766,0.808-11.624,1.28-17.497
						c0.152-1.77,0.305-3.539,0.457-5.309c4.405-49.745,13.091-99.169,30.373-102.678c1.661-0.336,6.873-0.961,9.159-1.22
						c14.371-1.708,31.227-3.585,51.374-0.625c4.13,0.61,7.727,1.327,8.748,1.571c17.358,4.225,26.487,54.306,31.272,103.013
						c0.198,1.968,0.381,3.951,0.564,5.904c0.487,5.278,0.914,10.51,1.311,15.651c0.137,1.922,0.274,3.814,0.411,5.705
						C482.562,474.341,483.141,501.051,483.278,508.419z"/>
					<g>
						<path style="fill:#FFFFFF;" d="M403.423,406.582c-0.288,0-0.563-0.124-0.752-0.341l-21.355-24.375l-19.088,21.702
							c-0.364,0.415-0.999,0.455-1.411,0.091c-0.415-0.365-0.455-0.997-0.091-1.411l19.841-22.558
							c0.191-0.216,0.464-0.34,0.751-0.34h0.001c0.288,0,0.561,0.125,0.751,0.341l21.328,24.345l20.923-25.512
							c0.183-0.224,0.453-0.356,0.741-0.365c0.28-0.015,0.567,0.106,0.764,0.317l23.783,25.501l16.994-25.376
							c0.31-0.459,0.929-0.582,1.388-0.275c0.459,0.308,0.582,0.929,0.274,1.388l-17.696,26.424c-0.17,0.254-0.446,0.416-0.751,0.44
							c-0.304,0.017-0.603-0.092-0.811-0.315l-23.864-25.588l-20.945,25.54c-0.186,0.228-0.463,0.361-0.757,0.366
							C403.433,406.582,403.428,406.582,403.423,406.582z"/>
					</g>
					<g>
						<path style="fill:#FFFFFF;" d="M404.287,441.735c-0.288,0-0.563-0.124-0.752-0.341l-21.355-24.375l-19.089,21.703
							c-0.365,0.415-0.998,0.454-1.411,0.091c-0.415-0.365-0.455-0.997-0.091-1.411l19.841-22.559c0.19-0.216,0.464-0.34,0.751-0.34
							h0.001c0.288,0,0.562,0.125,0.751,0.341l21.329,24.345l20.923-25.512c0.184-0.224,0.453-0.357,0.741-0.365
							c0.28-0.021,0.567,0.107,0.764,0.317l23.918,25.646l22.365-23.591c0.379-0.402,1.012-0.418,1.414-0.038
							c0.4,0.38,0.417,1.013,0.037,1.413l-23.097,24.363c-0.189,0.2-0.451,0.313-0.726,0.313c-0.001,0-0.003,0-0.004,0
							c-0.276-0.001-0.539-0.116-0.728-0.318l-23.864-25.588l-20.945,25.54c-0.187,0.227-0.463,0.361-0.757,0.366
							C404.298,441.735,404.293,441.735,404.287,441.735z"/>
					</g>
					<polygon style="fill:#1E1A1B;" points="372.665,436.671 361.926,417.492 340.172,435.902 375.466,465.802 440.484,457.445 
											"/>
				</g>
				<path style="fill:#FFFFFF;" d="M403.658,309.629c4.794,7.184,14.397,20.536,19.539,18.557c0.844-0.325,1.389-1.008,2.964-3.793
					c2.992-5.29,5.129-10.088,6.655-13.99c-2.705-0.342-5.527-0.622-8.458-0.822C416.863,309.071,409.922,309.176,403.658,309.629z"
					/>
				<path style="fill:#FFFFFF;" d="M409.469,309.662c-1.162,2.964-4.086,10.242-7.288,16.218c-0.692,1.292-1.925,3.508-4.002,3.852
					c-1.393,0.231-2.644-0.466-3.541-1.079c-5.112-3.489-13.647-14.387-14.967-16.082c2.726-0.625,5.617-1.185,8.666-1.646
					C396.108,309.75,403.232,309.474,409.469,309.662z"/>
				<g>
					<path style="fill:#1E1A1B;" d="M509.651,828.478c12.658-13.103,4.447-67.392-42.674-69.709
						c-47.309-0.665-62.702,57.362-46.267,71.05C422.998,831.312,496.071,832.557,509.651,828.478z"/>
					<g>
						<path style="fill:#FFFFFF;" d="M484.823,785.674c-0.369,0-0.744-0.078-1.088-0.246c-17.444-8.508-33.05-1.43-33.705-1.127
							c-1.054,0.492-2.371,0.171-2.952-0.706c-0.581-0.881-0.208-1.991,0.836-2.483c0.742-0.346,18.354-8.415,38.002,1.156
							c1.037,0.507,1.391,1.623,0.789,2.497C486.302,785.35,485.572,785.674,484.823,785.674z"/>
					</g>
					<g>
						<path style="fill:#FFFFFF;" d="M484.825,772.328c-0.369,0-0.744-0.078-1.088-0.246c-17.514-8.54-33.544-1.202-33.703-1.131
							c-1.048,0.489-2.367,0.178-2.954-0.703c-0.585-0.881-0.21-1.994,0.838-2.486c0.742-0.343,18.369-8.404,38,1.159
							c1.037,0.506,1.391,1.623,0.789,2.497C486.303,772.003,485.573,772.328,484.825,772.328z"/>
					</g>
					<path style="fill:#FCCA01;" d="M508.077,838.887h-86.823c-4.724,0-8.553-3.83-8.553-8.553l0,0c0-4.724,3.83-8.553,8.553-8.553
						h86.823c4.724,0,8.553,3.829,8.553,8.553l0,0C516.631,835.057,512.801,838.887,508.077,838.887z"/>
				</g>
				<path style="fill:#1E1A1B;" d="M409.301,265.515c-1.87-0.807-6.619-0.305-7.486,2.99c1.224-1.039,3.99-2.059,6.559-1.001
					C409.464,267.952,409.713,265.693,409.301,265.515z"/>
				<path style="fill:#1E1A1B;" d="M418.839,265.811c1.868-0.812,6.619-0.32,7.493,2.972c-1.226-1.036-3.995-2.05-6.561-0.986
					C418.682,268.249,418.427,265.99,418.839,265.811z"/>
				<g>
					<path style="fill:#1E1A1B;" d="M424.887,273.982c-0.001-1.094-0.889-1.981-1.984-1.979c-1.095,0.001-1.981,0.89-1.979,1.984
						c0.001,1.095,0.89,1.981,1.984,1.979C424.002,275.965,424.888,275.077,424.887,273.982z"/>
					<path style="fill:#1E1A1B;" d="M422.967,272.003c1.505,0.076,1.724,1.387,3.272,1.32
						C425.804,273.779,423.628,274.267,422.967,272.003z"/>
					<path style="fill:#FFFFFF;" d="M424.052,273.618c0-0.257-0.209-0.465-0.466-0.465c-0.257,0-0.465,0.209-0.465,0.466
						s0.209,0.466,0.466,0.465S424.052,273.876,424.052,273.618z"/>
				</g>
				<g>
					<path style="fill:#1E1A1B;" d="M404.817,274.584c0.001-1.094,0.889-1.981,1.984-1.979c1.094,0.001,1.981,0.89,1.979,1.984
						c-0.001,1.095-0.89,1.981-1.984,1.979C405.702,276.566,404.816,275.678,404.817,274.584z"/>
					<path style="fill:#1E1A1B;" d="M406.737,272.604c-1.505,0.076-1.723,1.387-3.272,1.32
						C403.9,274.38,406.076,274.868,406.737,272.604z"/>
					<path style="fill:#FFFFFF;" d="M405.652,274.22c0-0.257,0.209-0.465,0.466-0.465c0.257,0,0.465,0.209,0.465,0.466
						s-0.209,0.465-0.466,0.465S405.651,274.477,405.652,274.22z"/>
				</g>
				<path style="fill:#1E1A1B;" d="M417.304,279.653c-0.62-2.277-2.949-3.976-2.524-6.534c0.106-0.641-0.902-0.705-1.008-0.069
					c-0.364,2.192,1.067,3.964,2.076,5.752c0.421,0.747,0.919,1.86,0.183,2.579c-0.719,0.702-1.868,0.557-2.774,0.468
					c-0.648-0.064-0.716,0.944-0.069,1.008c1.099,0.108,2.268,0.166,3.22-0.49C417.307,281.747,417.584,280.681,417.304,279.653z"/>
				<g>
					<path style="fill:#FFFFFF;" d="M419.794,285.599c-0.037,0.936-0.563,2.109-1.388,3.089c-0.967,1.146-2.352,2.033-3.847,1.969
						c-1.476-0.063-2.765-1.034-3.641-2.233c-0.772-1.06-1.218-2.299-1.181-3.251C413.057,286.397,416.409,286.545,419.794,285.599z
						"/>
					<path style="fill:#FFFFFF;" d="M418.407,288.688c-0.967,1.146-2.352,2.033-3.847,1.969c-1.476-0.063-2.765-1.034-3.641-2.233
						c0.939-0.431,2.314-0.671,3.828-0.607C416.204,287.878,417.507,288.207,418.407,288.688z"/>
				</g>
				<g>
					<g>
						<path style="fill:#FFFFFF;" d="M406.489,281.583c-3.706,0-6.722-3.018-6.722-6.728c0-3.71,3.015-6.728,6.722-6.728
							c3.706,0,6.721,3.018,6.721,6.728C413.211,278.565,410.195,281.583,406.489,281.583z M406.489,268.881
							c-3.291,0-5.968,2.68-5.968,5.973c0,3.294,2.677,5.974,5.968,5.974c3.291,0,5.968-2.68,5.968-5.974
							C412.457,271.561,409.78,268.881,406.489,268.881z"/>
					</g>
					<g>
						<path style="fill:#FFFFFF;" d="M422.837,281.583c-3.706,0-6.721-3.018-6.721-6.728c0-3.71,3.015-6.728,6.721-6.728
							c3.706,0,6.722,3.018,6.722,6.728C429.559,278.565,426.543,281.583,422.837,281.583z M422.837,268.881
							c-3.291,0-5.968,2.68-5.968,5.973c0,3.294,2.677,5.974,5.968,5.974c3.291,0,5.968-2.68,5.968-5.974
							C428.805,271.561,426.128,268.881,422.837,268.881z"/>
					</g>
					<g>
						<path style="fill:#FFFFFF;" d="M416.492,275.232h-3.659c-0.208,0-0.377-0.169-0.377-0.377s0.168-0.377,0.377-0.377h3.659
							c0.208,0,0.377,0.169,0.377,0.377S416.701,275.232,416.492,275.232z"/>
					</g>
				</g>
			</g>
			<g>
				<path style="fill:#1E1A1B;" d="M494.93,497.909c0,2.112,1.712,3.824,3.824,3.824h54.875h127.826c1.663,0,3.136-1.075,3.643-2.66
					l29.456-92.12c0.789-2.468-1.052-4.989-3.643-4.989H588.323c-1.661,0-3.132,1.072-3.641,2.654l-27.911,86.813
					c-0.508,1.581-1.98,2.654-3.641,2.654h-54.375C496.643,494.084,494.93,495.796,494.93,497.909L494.93,497.909z"/>
			</g>
			<path style="fill:#FF9E9E;" d="M393.473,310.264c0,0,6.06,5.221,13.858,4.648c7.798-0.572,8.741-5.661,8.741-5.661
				S396.886,308.662,393.473,310.264z"/>
			<path style="fill:#FCCA01;" d="M380.163,313.062c-11.689,1.223-26.568,4.684-41.187,13.789
				c-49.811,31.021-55.871,106.769-55.777,112.792c6.497,8.114,56.911,8.965,74.194,7.732
				C359.685,443.06,372.018,341.059,380.163,313.062z"/>
			<g>
				<path style="fill:#FFFFFF;" d="M436.695,729.731c-0.52,0-0.958-0.401-0.996-0.928l-10.881-150.297l-43.732-20.975
					c-0.498-0.238-0.708-0.836-0.469-1.334c0.238-0.497,0.836-0.71,1.334-0.469l44.255,21.226c0.323,0.155,0.539,0.472,0.564,0.829
					l10.923,150.875c0.04,0.551-0.374,1.029-0.925,1.069C436.744,729.73,436.72,729.731,436.695,729.731z"/>
			</g>
			<g>
				<path style="fill:#FFFFFF;" d="M364.252,570.532c-0.396,0-0.77-0.235-0.927-0.625c-0.207-0.512,0.04-1.095,0.552-1.302
					c22.892-9.267,19.728-28.814,19.694-29.01c-0.097-0.544,0.267-1.063,0.811-1.158c0.543-0.103,1.063,0.267,1.158,0.811
					c0.038,0.213,3.463,21.345-20.913,31.211C364.504,570.509,364.377,570.532,364.252,570.532z"/>
			</g>
			<g>
				<path style="fill:#FFFFFF;" d="M467.196,733.338c-21.202,0-42.496-2.313-42.816-2.349c-0.55-0.061-0.945-0.555-0.885-1.104
					c0.062-0.548,0.551-0.939,1.104-0.885c0.478,0.052,48.171,5.232,71.521,0.018c0.537-0.121,1.073,0.219,1.193,0.758
					c0.121,0.539-0.219,1.073-0.758,1.193C488.608,732.746,477.913,733.338,467.196,733.338z"/>
			</g>
		</g>
		<rect x="230.354" y="499.849" style="fill:#1E1A1B;" width="549.534" height="19.757"/>
		<g>
			<g>
				<g>
					<g>
						<g>
							<path style="fill:#FF9E9E;" d="M503.016,518.39c-1.599-0.303-3.108-1.137-4.238-2.48l-21.38-23.616
								c-2.604-3.094-2.207-7.715,0.888-10.319c3.095-2.605,7.715-2.208,10.319,0.888l21.38,23.617
								c2.604,3.095,2.207,7.715-0.888,10.319C507.345,518.273,505.103,518.785,503.016,518.39z"/>
						</g>
					</g>
					<g>
						<g>
							<path style="fill:#FF9E9E;" d="M501.815,452.837c-11.198-9.984-47.573,3.359-54.042,4.802l-11.392,36.453
								c19.564,29.97,37.669,5.276,58.88,11.301C507.087,508.752,501.815,452.837,501.815,452.837z"/>
						</g>
					</g>
					<g>
						<g>
							<path style="fill:#FF9E9E;" d="M514.084,510.48c-1.394-0.392-2.685-1.2-3.673-2.405l-23.917-25.459
								c-2.565-3.127-2.109-7.742,1.018-10.307c3.128-2.565,7.743-2.108,10.307,1.019l23.917,25.459
								c2.565,3.127,2.109,7.742-1.018,10.307C518.795,510.672,516.31,511.106,514.084,510.48z"/>
						</g>
					</g>
					<g>
						<g>
							<path style="fill:#FF9E9E;" d="M524.914,503.236c-1.371-0.386-2.643-1.174-3.626-2.348l-27.451-28.891
								c-2.596-3.102-2.186-7.72,0.916-10.317c3.102-2.596,7.721-2.187,10.317,0.916l27.451,28.891
								c2.596,3.102,2.186,7.72-0.916,10.317C529.678,503.417,527.164,503.869,524.914,503.236z"/>
						</g>
					</g>
					<g>
						<g>
							<path style="fill:#FF9E9E;" d="M532.016,490.836c-1.476-0.239-2.634-0.747-13.904-10.092
								c-19.096-15.834-25.734-16.436-26.629-16.438c-8.381,3.958-14.684-9.202-6.279-13.229
								c8.435-4.234,20.063,2.201,40.631,17.054c8.943,6.458,12.398,9.097,12.85,9.553
								C544.353,482.409,538.697,492.029,532.016,490.836z"/>
						</g>
					</g>
					<g>
						<path style="fill:#1E1A1B;" d="M521.641,501.71c-0.124-0.035-0.238-0.109-0.322-0.221
							c-9.42-12.522-13.378-14.448-24.685-25.226c-0.244-0.233-0.253-0.619-0.021-0.863c0.233-0.245,0.619-0.255,0.863-0.021
							c11.371,10.839,15.37,12.816,24.818,25.376c0.202,0.269,0.148,0.652-0.121,0.855
							C522.016,501.729,521.818,501.76,521.641,501.71z"/>
					</g>
					<g>
						<path style="fill:#1E1A1B;" d="M507.905,506.229c-0.124-0.035-0.238-0.109-0.322-0.221
							c-9.42-12.522-9.079-12.075-20.387-22.853c-0.244-0.233-0.253-0.619-0.021-0.863c0.233-0.245,0.619-0.255,0.863-0.021
							c11.372,10.839,11.071,10.443,20.52,23.003c0.203,0.269,0.148,0.652-0.121,0.854
							C508.28,506.249,508.082,506.279,507.905,506.229z"/>
					</g>
					<g>
						<path style="fill:#1E1A1B;" d="M532.326,491.539c-0.117-0.033-0.225-0.1-0.307-0.202c-0.329-0.403-20.572-22.398-29.177-24.33
							c-0.324-0.079-0.533-0.404-0.457-0.732c0.076-0.328,0.404-0.534,0.732-0.458c9.026,2.124,28.498,23.09,29.849,24.749
							c0.213,0.262,0.174,0.646-0.088,0.859C532.717,491.555,532.51,491.591,532.326,491.539z"/>
					</g>
				</g>
			</g>
			<path style="fill:#FFF0CC;" d="M351.972,446.828l93.916,9.492c0,0,3.788,49.933-3.153,56.935
				c-7.922,0.911-132.091-2.499-143.893-17.325c-17.397-21.856-10.084-53.328-10.084-53.328
				C309.661,446.899,330.73,448.335,351.972,446.828z"/>
		</g>
		<rect x="249.525" y="519.606" style="fill:#D4D4E6;" width="10.557" height="319.281"/>
		<rect x="752.214" y="519.606" style="fill:#D4D4E6;" width="10.557" height="319.281"/>
		<g>
			<path style="fill:#FFFFFF;" d="M352.833,430.078c-0.012,0-0.023,0-0.035-0.001c-19.853-0.674-39.839-2.789-59.4-6.285
				c-0.544-0.097-0.906-0.616-0.809-1.16c0.098-0.544,0.61-0.91,1.16-0.809c19.468,3.479,39.358,5.584,59.117,6.256
				c0.552,0.018,0.984,0.481,0.965,1.033C353.813,429.652,353.369,430.078,352.833,430.078z"/>
		</g>
	</g>
	<g>
		<path style="fill:#1E1A1B;" d="M979.26,840.387H168.878c-0.828,0-1.5-0.672-1.5-1.5s0.672-1.5,1.5-1.5H979.26
			c0.828,0,1.5,0.672,1.5,1.5S980.088,840.387,979.26,840.387z"/>
	</g>
	<g>
		<g>
			<path style="fill:#6278F5;" d="M1096.077,619.793H868.873c-8.097,0-14.661-6.564-14.661-14.661V319.161
				c0-8.097,6.564-14.661,14.661-14.661h227.204c8.097,0,14.661,6.564,14.661,14.661v285.971
				C1110.738,613.229,1104.174,619.793,1096.077,619.793z"/>
			<path style="fill:#FFFFFF;" d="M982.232,433.303c-0.019,0.221-0.029,0.442-0.029,0.664v13.399
				c-8.465-1.154-16.574-4.165-23.73-8.811c0.106-0.125,0.202-0.26,0.298-0.394l7.695-11.033
				C971.267,430.197,976.615,432.284,982.232,433.303z"/>
			<path style="fill:#1E1A1B;" d="M954.953,416.47c-0.491,0.452-0.924,0.952-1.308,1.51l-7.137,10.215
				c-8.119-9.234-13.082-20.825-14.102-33.128c0.01,0,0.01,0,0.019,0h14.025C947.315,402.831,950.268,410.237,954.953,416.47z"/>
			<path style="fill:#FCCA01;" d="M970.199,351.311c-11.197,5.694-19.498,15.996-22.643,28.107
				c-0.443-0.077-0.895-0.106-1.356-0.106h-12.928c1.712-9.003,5.579-17.43,11.37-24.721c5.714-7.205,12.938-12.861,21.171-16.641
				l4.242,12.966C970.103,351.051,970.141,351.186,970.199,351.311z"/>
			<path style="fill:#1E1A1B;" d="M1047.978,390.287c0,3.492-0.317,6.964-0.943,10.369l-11.572-5.021
				c-0.568-0.25-1.145-0.442-1.741-0.568c0.183-1.587,0.269-3.174,0.269-4.781c0-11.389-4.502-22.268-12.303-30.348
				c0.019-0.029,0.048-0.048,0.067-0.077l8.763-10.802c4.473,4.338,8.234,9.398,11.081,14.909
				C1045.833,372.155,1047.978,381.014,1047.978,390.287z"/>
			<path style="fill:#FCCA01;" d="M1042.072,415.672c-4.098,8.33-10.158,15.544-17.814,21.123
				c-7.82,5.704-16.795,9.302-26.289,10.581v-13.409c0-0.231-0.01-0.462-0.029-0.683c13.419-2.463,25.077-11.1,31.271-23.182
				l12.543,5.444C1041.861,415.595,1041.966,415.633,1042.072,415.672z"/>
			<path style="fill:#FFFFFF;" d="M1017.832,339.691l-8.186,10.081c-0.26,0.327-0.5,0.664-0.712,1.02
				c-5.839-2.78-12.235-4.223-18.844-4.223c-1,0-1.991,0.029-2.953,0.096c-0.625,0.039-1.26,0.096-1.885,0.164
				c-0.058-0.308-0.144-0.616-0.24-0.914l-4.107-12.524c2.732-0.443,5.512-0.683,8.301-0.721c0.289-0.01,0.587-0.01,0.885-0.01
				C999.922,332.66,1009.377,335.074,1017.832,339.691z"/>
		</g>
		<g>
			<g>
				<path style="fill:#FFFFFF;" d="M1073.493,487.745H966.519c-0.553,0-1-0.447-1-1s0.447-1,1-1h106.974c0.553,0,1,0.447,1,1
					S1074.046,487.745,1073.493,487.745z"/>
			</g>
			<g>
				<path style="fill:#FFFFFF;" d="M1029.552,508.968h-63.032c-0.553,0-1-0.447-1-1c0-0.553,0.447-1,1-1h63.032c0.553,0,1,0.447,1,1
					C1030.552,508.521,1030.104,508.968,1029.552,508.968z"/>
			</g>
		</g>
		<rect x="896.61" y="479.899" style="fill:#FFFFFF;" width="34.916" height="34.916"/>
		<g>
			<g>
				<path style="fill:#FFFFFF;" d="M1073.493,545.82H966.519c-0.553,0-1-0.447-1-1c0-0.553,0.447-1,1-1h106.974c0.553,0,1,0.447,1,1
					C1074.493,545.372,1074.046,545.82,1073.493,545.82z"/>
			</g>
			<g>
				<path style="fill:#FFFFFF;" d="M1029.552,567.043h-63.032c-0.553,0-1-0.447-1-1c0-0.553,0.447-1,1-1h63.032c0.553,0,1,0.447,1,1
					C1030.552,566.596,1030.104,567.043,1029.552,567.043z"/>
			</g>
		</g>
		<rect x="896.61" y="537.973" style="fill:#FFFFFF;" width="34.916" height="34.916"/>
	</g>
	<g>
		<path style="fill:#1E1A1B;" d="M1156.881,840.387h-141.926c-0.828,0-1.5-0.672-1.5-1.5s0.672-1.5,1.5-1.5h141.926
			c0.828,0,1.5,0.672,1.5,1.5S1157.709,840.387,1156.881,840.387z"/>
	</g>
	<g>
		<path style="fill:#1E1A1B;" d="M419.341,886.45h-58.025c-0.828,0-1.5-0.672-1.5-1.5c0-0.828,0.672-1.5,1.5-1.5h58.025
			c0.828,0,1.5,0.672,1.5,1.5C420.841,885.779,420.169,886.45,419.341,886.45z"/>
	</g>
	<g>
		<g>
			<path style="fill:#BDBCE0;" d="M1040.016,237.915H852.799c-0.553,0-1-0.447-1-1c0-0.553,0.447-1,1-1h187.218c0.553,0,1,0.447,1,1
				C1041.016,237.468,1040.569,237.915,1040.016,237.915z"/>
		</g>
		<g>
			<path style="fill:#BDBCE0;" d="M969.932,267.404H852.799c-0.553,0-1-0.447-1-1s0.447-1,1-1h117.134c0.553,0,1,0.447,1,1
				S970.485,267.404,969.932,267.404z"/>
		</g>
	</g>
	<g>
		<path style="fill:#6278F5;" d="M221.158,675.853c0.703,1.135,0.927,2.503,0.598,3.85c-0.435,1.778-1.743,3.146-3.5,3.659
			l-16.963,4.947c-1.757,0.513-3.596,0.063-4.918-1.202c-1.321-1.266-1.852-3.083-1.417-4.86l4.197-17.164
			c0.434-1.779,1.744-3.146,3.501-3.658c1.757-0.512,3.595-0.063,4.917,1.203l12.766,12.216
			C220.659,675.151,220.934,675.49,221.158,675.853z M199.942,682.675c0.052,0.084,0.109,0.146,0.148,0.184
			c0.113,0.108,0.424,0.345,0.874,0.214l14.244-4.154c0.45-0.132,0.585-0.499,0.622-0.65c0.038-0.151,0.087-0.537-0.252-0.863
			l-10.72-10.258c-0.339-0.325-0.724-0.258-0.874-0.214c-0.15,0.044-0.51,0.195-0.622,0.65l-3.524,14.412
			C199.767,682.29,199.846,682.52,199.942,682.675z"/>
	</g>
	<g>
		<path style="fill:#6278F5;" d="M844.47,98.372c0.703,1.135,0.927,2.503,0.598,3.85c-0.435,1.778-1.743,3.145-3.5,3.659
			l-16.963,4.947c-1.757,0.512-3.596,0.063-4.918-1.202c-1.321-1.266-1.852-3.083-1.417-4.86l4.197-17.164
			c0.435-1.779,1.744-3.146,3.501-3.658c1.757-0.512,3.596-0.063,4.918,1.203l12.766,12.216
			C843.971,97.67,844.245,98.009,844.47,98.372z M823.253,105.193c0.052,0.084,0.109,0.146,0.148,0.184
			c0.113,0.108,0.424,0.345,0.874,0.213l14.244-4.154c0.45-0.132,0.585-0.499,0.622-0.65c0.037-0.151,0.087-0.537-0.252-0.863
			l-10.72-10.258c-0.339-0.325-0.724-0.258-0.873-0.214c-0.15,0.044-0.51,0.195-0.622,0.649l-3.524,14.412
			C823.078,104.809,823.158,105.038,823.253,105.193z"/>
	</g>
	<g>
		<g>
			<path style="fill:#FF5285;" d="M215.207,360.911l5.725-5.726c1.3-1.3,1.3-3.407,0-4.706c-1.299-1.3-3.407-1.3-4.706,0
				l-5.726,5.726l-5.726-5.726c-1.299-1.3-3.407-1.3-4.706,0c-1.3,1.299-1.3,3.406,0,4.706l5.726,5.726l-5.715,5.715
				c-1.3,1.3-1.3,3.407,0,4.706c0.649,0.65,1.501,0.975,2.353,0.975c0.851,0,1.704-0.325,2.353-0.975l5.715-5.715l5.715,5.715
				c0.65,0.65,1.502,0.975,2.353,0.975c0.852,0,1.704-0.325,2.353-0.975c1.3-1.299,1.3-3.407,0-4.706L215.207,360.911z"/>
		</g>
	</g>
	<g>
		<g>
			<path style="fill:#FF5285;" d="M1169.444,398.713l5.725-5.725c1.3-1.3,1.3-3.407,0-4.706c-1.299-1.3-3.407-1.3-4.706,0
				l-5.726,5.726l-5.726-5.726c-1.299-1.3-3.407-1.3-4.706,0c-1.3,1.299-1.3,3.407,0,4.706l5.726,5.725l-5.715,5.715
				c-1.3,1.3-1.3,3.407,0,4.706c0.649,0.65,1.501,0.975,2.353,0.975s1.704-0.325,2.353-0.975l5.715-5.715l5.715,5.715
				c0.65,0.65,1.502,0.975,2.353,0.975c0.852,0,1.704-0.325,2.353-0.975c1.3-1.299,1.3-3.406,0-4.706L1169.444,398.713z"/>
		</g>
	</g>
	<g>
		<g>
			<g>
				<path style="fill:#FFCB3B;" d="M1006.033,678.733c-8.108,0-14.705-6.597-14.705-14.705c0-8.109,6.597-14.705,14.705-14.705
					c8.108,0,14.705,6.597,14.705,14.705C1020.738,672.136,1014.141,678.733,1006.033,678.733z M1006.033,654.746
					c-5.118,0-9.282,4.164-9.282,9.282c0,5.118,4.164,9.282,9.282,9.282c5.118,0,9.282-4.164,9.282-9.282
					C1015.315,658.91,1011.151,654.746,1006.033,654.746z"/>
			</g>
		</g>
	</g>
	<g>
		<circle style="fill:#FFC917;" cx="892.229" cy="708.647" r="46.638"/>
		<circle style="fill:#FAAA00;" cx="892.223" cy="708.657" r="39.092"/>
		<path style="fill:#FFD766;" d="M906.692,712.418c-1.016-1.747-2.327-3.234-3.932-4.463c-1.606-1.227-3.354-2.302-5.242-3.223
			c-1.186-0.578-2.341-1.13-3.471-1.662v-13.861c1.771,0.327,3.247,1.132,4.427,2.418c1.582,1.725,2.821,4.498,3.719,8.324h3.188
			v-10.413c-0.708-0.613-1.866-1.204-3.471-1.771c-1.606-0.567-3.306-1.038-5.1-1.417c-0.986-0.207-1.905-0.356-2.763-0.449v-4.722
			h-3.825v4.66c-3.78,0.228-6.874,1.177-9.28,2.849c-2.787,1.937-4.179,4.746-4.179,8.43c0,2.409,0.519,4.546,1.558,6.411
			c1.038,1.866,2.692,3.59,4.959,5.171c1.845,1.288,4.159,2.599,6.942,3.933v15.226c-0.071,0.001-0.141,0.003-0.212,0.003
			c-2.645,0-4.675-0.826-6.092-2.48c-1.417-1.652-2.645-4.605-3.684-8.855h-3.329v11.83c1.7,0.85,3.247,1.512,4.64,1.983
			c1.392,0.473,2.845,0.804,4.357,0.992c1.259,0.157,2.701,0.248,4.321,0.274v6.172h3.825v-6.288
			c2.353-0.208,4.445-0.683,6.269-1.434c2.526-1.038,4.474-2.526,5.844-4.463c1.369-1.936,2.054-4.203,2.054-6.8
			C908.215,716.291,907.707,714.166,906.692,712.418z M888.451,700.092c-1.087-0.708-1.948-1.534-2.586-2.479
			c-0.638-0.944-0.956-2.078-0.956-3.4c0-1.888,0.638-3.223,1.913-4.003c0.89-0.544,2.027-0.893,3.4-1.058v12.014
			C889.601,700.815,889.01,700.456,888.451,700.092z M896.562,726.267c-0.688,0.492-1.528,0.868-2.515,1.132v-12.871
			c1.092,0.674,2.05,1.456,2.869,2.352c1.251,1.37,1.877,3.046,1.877,5.029C898.794,723.752,898.05,725.204,896.562,726.267z"/>
	</g>
	<g>
		<circle style="fill:#FFC917;" cx="789.505" cy="794.962" r="42.868"/>
		
			<ellipse transform="matrix(0.9239 -0.3827 0.3827 0.9239 -244.1255 362.6424)" style="fill:#FAAA00;" cx="789.5" cy="794.972" rx="35.931" ry="35.931"/>
		<path style="fill:#FFD766;" d="M802.799,798.429c-0.934-1.605-2.138-2.973-3.614-4.102c-1.476-1.128-3.083-2.116-4.818-2.963
			c-1.09-0.531-2.152-1.039-3.19-1.527v-12.741c1.628,0.3,2.984,1.041,4.07,2.222c1.454,1.585,2.593,4.135,3.418,7.651h2.93v-9.571
			c-0.651-0.564-1.715-1.107-3.19-1.628c-1.476-0.521-3.039-0.954-4.688-1.302c-0.906-0.191-1.751-0.327-2.539-0.413v-4.34h-3.516
			v4.284c-3.474,0.21-6.318,1.082-8.53,2.618c-2.562,1.78-3.841,4.363-3.841,7.748c0,2.214,0.477,4.178,1.432,5.893
			c0.954,1.715,2.474,3.299,4.558,4.753c1.696,1.184,3.823,2.389,6.381,3.615v13.995c-0.065,0.001-0.129,0.002-0.195,0.002
			c-2.431,0-4.297-0.759-5.6-2.279c-1.302-1.519-2.431-4.232-3.386-8.139h-3.06v10.874c1.563,0.781,2.984,1.39,4.265,1.823
			c1.28,0.434,2.615,0.739,4.004,0.911c1.157,0.144,2.483,0.228,3.972,0.252v5.673h3.516v-5.779
			c2.162-0.192,4.086-0.628,5.762-1.318c2.322-0.954,4.112-2.322,5.372-4.102c1.258-1.779,1.888-3.863,1.888-6.251
			C804.199,801.989,803.732,800.035,802.799,798.429z M786.033,787.099c-0.999-0.651-1.79-1.41-2.376-2.279
			c-0.586-0.868-0.879-1.91-0.879-3.125c0-1.736,0.586-2.963,1.758-3.679c0.818-0.5,1.863-0.821,3.125-0.972v11.043
			C787.09,787.763,786.547,787.434,786.033,787.099z M793.488,811.158c-0.633,0.452-1.404,0.798-2.311,1.041v-11.83
			c1.003,0.619,1.884,1.339,2.637,2.162c1.15,1.26,1.725,2.8,1.725,4.623C795.539,808.846,794.856,810.181,793.488,811.158z"/>
	</g>
	<g>
		<g>
			<path style="fill:#FFC917;" d="M937.175,750.436H826.607c-4.761,0-8.62,3.859-8.62,8.62l0,0c0,4.761,3.859,8.62,8.62,8.62
				h110.568c4.761,0,8.62-3.859,8.62-8.62l0,0C945.795,754.295,941.936,750.436,937.175,750.436z"/>
			<path style="fill:#FAAA00;" d="M937.175,750.436H826.607c-1.756,0-3.387,0.528-4.749,1.429h68.947c4.761,0,8.62,3.22,8.62,7.191
				l0,0c0,3.971-3.859,7.191-8.62,7.191h-68.947c1.362,0.901,2.993,1.429,4.749,1.429h110.568c4.761,0,8.62-3.859,8.62-8.62l0,0
				C945.795,754.295,941.936,750.436,937.175,750.436z"/>
		</g>
		<g>
			<path style="fill:#FFC917;" d="M937.175,767.676H826.607c-4.761,0-8.62,3.859-8.62,8.62v0c0,4.761,3.859,8.62,8.62,8.62h110.568
				c4.761,0,8.62-3.859,8.62-8.62v0C945.795,771.536,941.936,767.676,937.175,767.676z"/>
			<path style="fill:#FAAA00;" d="M937.175,767.676H826.607c-1.756,0-3.387,0.528-4.749,1.429h68.947c4.761,0,8.62,3.219,8.62,7.191
				v0c0,3.971-3.859,7.191-8.62,7.191h-68.947c1.362,0.901,2.993,1.429,4.749,1.429h110.568c4.761,0,8.62-3.859,8.62-8.62v0
				C945.795,771.536,941.936,767.676,937.175,767.676z"/>
		</g>
		<g>
			<path style="fill:#FFC917;" d="M937.175,784.917H826.607c-4.761,0-8.62,3.859-8.62,8.62l0,0c0,4.761,3.859,8.62,8.62,8.62
				h110.568c4.761,0,8.62-3.859,8.62-8.62l0,0C945.795,788.776,941.936,784.917,937.175,784.917z"/>
			<path style="fill:#FAAA00;" d="M937.175,784.917H826.607c-1.756,0-3.387,0.528-4.749,1.429h68.947c4.761,0,8.62,3.219,8.62,7.191
				l0,0c0,3.971-3.859,7.191-8.62,7.191h-68.947c1.362,0.901,2.993,1.429,4.749,1.429h110.568c4.761,0,8.62-3.859,8.62-8.62l0,0
				C945.795,788.776,941.936,784.917,937.175,784.917z"/>
		</g>
		<g>
			<path style="fill:#FFC917;" d="M937.175,802.157H826.607c-4.761,0-8.62,3.859-8.62,8.62l0,0c0,4.761,3.859,8.62,8.62,8.62
				h110.568c4.761,0,8.62-3.859,8.62-8.62l0,0C945.795,806.016,941.936,802.157,937.175,802.157z"/>
			<path style="fill:#FAAA00;" d="M937.175,802.157H826.607c-1.756,0-3.387,0.528-4.749,1.429h68.947c4.761,0,8.62,3.219,8.62,7.191
				l0,0c0,3.971-3.859,7.191-8.62,7.191h-68.947c1.362,0.901,2.993,1.429,4.749,1.429h110.568c4.761,0,8.62-3.859,8.62-8.62l0,0
				C945.795,806.016,941.936,802.157,937.175,802.157z"/>
		</g>
		<g>
			<path style="fill:#FFC917;" d="M937.175,819.397H826.607c-4.761,0-8.62,3.859-8.62,8.62l0,0c0,4.761,3.859,8.62,8.62,8.62
				h110.568c4.761,0,8.62-3.859,8.62-8.62l0,0C945.795,823.257,941.936,819.397,937.175,819.397z"/>
			<path style="fill:#FAAA00;" d="M937.175,819.397H826.607c-1.756,0-3.387,0.528-4.749,1.429h68.947c4.761,0,8.62,3.22,8.62,7.191
				l0,0c0,3.971-3.859,7.191-8.62,7.191h-68.947c1.362,0.901,2.993,1.429,4.749,1.429h110.568c4.761,0,8.62-3.859,8.62-8.62l0,0
				C945.795,823.257,941.936,819.397,937.175,819.397z"/>
		</g>
	</g>
	<g>
		<path style="fill:#FF5285;" d="M744.399,222.078l20.637,61.912c1.385,4.156-2.974,7.915-6.868,5.909
			c-8.707-4.486-29.135-14.657-39.61-14.657c-18.295,0,12.578-61.397,12.578-61.397L744.399,222.078z"/>
		<path style="fill:#FF5285;" d="M612.816,222.078l-20.637,61.912c-1.385,4.156,2.974,7.915,6.868,5.909
			c8.707-4.486,29.135-14.657,39.611-14.657c18.295,0-12.578-61.397-12.578-61.397L612.816,222.078z"/>
		<path style="fill:#FFFFFF;" d="M745.744,174.589c0,3.032-0.117,6.152-0.35,9.369v0.01c-0.369,4.947-1.05,10.108-2.09,15.473
			c-11.896,61.542-33.23,86.248-38.721,111.936H655.19c-5.491-25.688-26.835-50.394-38.721-111.936
			c-1.011-5.2-1.672-10.205-2.051-15.016c-0.243-3.12-0.369-6.162-0.389-9.117c-0.01-2.255,0.039-4.461,0.146-6.619
			c0.155-3.062,0.418-6.016,0.787-8.864c4.655-36.486,25.134-56.323,25.134-56.323h79.581c0,0,20.226,19.584,25.046,55.623
			c0.389,2.926,0.68,5.967,0.846,9.117C745.685,170.312,745.744,172.421,745.744,174.589z"/>
		<g>
			<path style="fill:#FFA600;" d="M679.63,361.146c-18.383-23.529-17.569-35.685-12.598-41.927h25.196
				C697.198,325.461,698.013,337.617,679.63,361.146z"/>
			<path style="fill:#FCCA01;" d="M679.63,340.89c-8.822-11.289-9.682-17.858-7.962-21.672h15.924
				C689.312,323.033,688.452,329.602,679.63,340.89z"/>
		</g>
		<g>
			<path style="fill:#3C2673;" d="M704.583,311.926H655.19c-0.259,0-0.483-0.181-0.537-0.434
				c-2.089-9.776-6.598-19.648-11.819-31.079c-8.713-19.078-19.556-42.821-26.904-80.868c-0.972-5.003-1.665-10.075-2.06-15.078
				c-0.239-3.078-0.371-6.159-0.39-9.156c-0.009-2.256,0.04-4.492,0.147-6.649c0.155-3.06,0.422-6.056,0.791-8.908
				c4.626-36.257,25.091-56.448,25.297-56.647c0.102-0.099,0.24-0.155,0.382-0.155h79.58c0.142,0,0.28,0.056,0.382,0.155
				c0.204,0.198,20.419,20.132,25.209,55.945c0.405,3.049,0.691,6.13,0.85,9.161c0.116,2.064,0.175,4.21,0.175,6.375
				c0,3.028-0.118,6.194-0.351,9.409c-0.379,5.094-1.086,10.322-2.098,15.548c-7.353,38.043-18.194,61.785-26.905,80.863
				c-5.22,11.433-9.728,21.306-11.819,31.084C705.066,311.745,704.842,311.926,704.583,311.926z M655.632,310.827h48.507
				c2.153-9.75,6.629-19.552,11.799-30.875c8.686-19.024,19.496-42.7,26.825-80.615c1.005-5.184,1.705-10.369,2.081-15.409
				c0.231-3.197,0.349-6.337,0.349-9.338c0-2.145-0.059-4.27-0.174-6.316c-0.157-3.003-0.441-6.055-0.841-9.075
				c-4.515-33.761-22.852-53.23-24.73-55.146h-79.124c-1.891,1.929-20.454,21.651-24.817,55.843
				c-0.366,2.824-0.63,5.792-0.784,8.822c-0.106,2.137-0.155,4.354-0.145,6.588c0.019,2.97,0.15,6.024,0.387,9.076
				c0.391,4.961,1.078,9.992,2.042,14.955c7.324,37.917,18.136,61.595,26.825,80.62
				C649.004,291.278,653.479,301.078,655.632,310.827z"/>
		</g>
		<path style="fill:#FF5285;" d="M686.754,231.109c0,3.793-3.075,6.868-6.868,6.868c-3.793,0-6.868-3.075-6.868-6.868
			c0-3.793,3.075-6.868,6.868-6.868C683.679,224.241,686.754,227.316,686.754,231.109z"/>
		<path style="fill:#FF5285;" d="M686.754,263.76c0,3.793-3.075,6.868-6.868,6.868c-3.793,0-6.868-3.075-6.868-6.868
			c0-3.793,3.075-6.868,6.868-6.868C683.679,256.892,686.754,259.967,686.754,263.76z"/>
		<path style="fill:#FF5285;" d="M638.995,104.023c0,0,40.922,26.437,81.873,0c0,0-21.896-29.994-40.952-30.468
			C660.86,73.081,638.995,104.023,638.995,104.023z"/>
		<g>
			<ellipse style="fill:#1E1A1B;" cx="679.886" cy="178.553" rx="23.794" ry="28.586"/>
			<path style="fill:#FCCA01;" d="M697.118,178.554c0,8.767-3.789,16.367-9.346,20.119c-2.36,1.613-5.045,2.517-7.893,2.517
				c-8.346,0-15.308-7.814-16.889-18.175c-0.012-0.029-0.012-0.049-0.012-0.049c-0.209-1.429-0.326-2.906-0.326-4.412
				c0-12.509,7.718-22.646,17.226-22.646C689.4,155.909,697.118,166.046,697.118,178.554z"/>
		</g>
		<path style="fill:#1E1A1B;" d="M701.244,324.534h-43.23c-1.807,0-3.331-1.135-3.551-2.645l-1.575-10.8
			c-0.262-1.796,1.402-3.379,3.551-3.379h46.381c2.149,0,3.813,1.584,3.551,3.379l-1.575,10.8
			C704.575,323.399,703.052,324.534,701.244,324.534z"/>
	</g>
	<g>
		<g>
			<path style="fill:#FFFFFF;" d="M202.321,149.391h155.356c6.589,0,11.931,5.342,11.931,11.931v59.28
				c0,6.589-5.342,11.931-11.931,11.931h-21.534l4.307,26.175l-33.483-26.175H202.321c-6.589,0-11.931-5.342-11.931-11.931v-59.28
				C190.39,154.733,195.732,149.391,202.321,149.391z"/>
			<g>
				<path style="fill:#1E1A1B;" d="M340.45,259.708c-0.219,0-0.436-0.071-0.616-0.212l-33.211-25.964H202.321
					c-7.13,0-12.931-5.801-12.931-12.931v-59.279c0-7.13,5.801-12.931,12.931-12.931h155.355c7.13,0,12.931,5.801,12.931,12.931
					v59.279c0,7.13-5.801,12.931-12.931,12.931H337.32l4.116,25.014c0.067,0.406-0.122,0.813-0.477,1.022
					C340.803,259.662,340.626,259.708,340.45,259.708z M202.321,150.392c-6.027,0-10.931,4.903-10.931,10.931v59.279
					c0,6.027,4.903,10.931,10.931,10.931h104.646c0.224,0,0.44,0.074,0.616,0.212l31.464,24.598l-3.892-23.648
					c-0.048-0.289,0.034-0.585,0.224-0.81c0.19-0.224,0.469-0.353,0.763-0.353h21.534c6.027,0,10.931-4.903,10.931-10.931v-59.279
					c0-6.027-4.903-10.931-10.931-10.931H202.321z"/>
			</g>
			<g>
				<path style="fill:#6063BD;" d="M273.937,170.704h-60.295c-0.553,0-1-0.447-1-1s0.447-1,1-1h60.295c0.553,0,1,0.447,1,1
					S274.49,170.704,273.937,170.704z"/>
			</g>
			<g>
				<path style="fill:#6063BD;" d="M273.937,187.468h-60.295c-0.553,0-1-0.447-1-1c0-0.553,0.447-1,1-1h60.295c0.553,0,1,0.447,1,1
					C274.937,187.021,274.49,187.468,273.937,187.468z"/>
			</g>
			<g>
				<path style="fill:#6063BD;" d="M273.937,206.935h-21.9c-0.553,0-1-0.447-1-1c0-0.553,0.447-1,1-1h21.9c0.553,0,1,0.447,1,1
					C274.937,206.488,274.49,206.935,273.937,206.935z"/>
			</g>
			<g>
				<path style="fill:#FFC917;" d="M345.157,163.062h-41.732c-2.557,0-4.629,2.073-4.629,4.629v38.158
					c0,2.557,2.072,4.629,4.629,4.629h41.732c2.557,0,4.629-2.073,4.629-4.629v-38.158
					C349.786,165.135,347.713,163.062,345.157,163.062z"/>
			</g>
		</g>
		<path style="fill:#FFFFFF;" d="M339.122,194.411l-8.496-4.388l-2.143-1.502c-0.102-0.071-0.209-0.127-0.318-0.178
			c0.939-1.79,1.421-3.856,1.267-6.047c-0.397-5.648-4.984-10.186-10.636-10.515c-6.804-0.396-12.423,5.247-11.987,12.059
			c0.356,5.561,4.787,10.086,10.34,10.555c3.09,0.261,5.942-0.737,8.127-2.523l10.35,8.249c1.577,0.965,3.638,0.47,4.603-1.107l0,0
			C341.194,197.437,340.698,195.376,339.122,194.411z M318.123,191.197c-4.466,0-8.098-3.633-8.098-8.098
			c0-4.466,3.633-8.098,8.098-8.098c4.466,0,8.098,3.633,8.098,8.098C326.221,187.564,322.589,191.197,318.123,191.197z"/>
	</g>
	<g>
		<path style="fill:#FF5285;" d="M983.76,95.267h127.956c7.024,0,12.718,5.694,12.718,12.717v83.348
			c0,7.023-5.694,12.717-12.718,12.717H983.76c-7.024,0-12.718-5.694-12.718-12.717v-83.348
			C971.042,100.961,976.736,95.267,983.76,95.267z"/>
		
			<rect x="1091.76" y="137.919" transform="matrix(-1 -1.224647e-16 1.224647e-16 -1 2193.1064 310.2732)" style="fill:#FFFFFF;" width="9.587" height="34.435"/>
		<rect x="1066.325" y="152.006" style="fill:#FFC917;" width="9.587" height="20.348"/>
		
			<rect x="1041.673" y="128.528" transform="matrix(-1 -1.224647e-16 1.224647e-16 -1 2092.9326 300.8819)" style="fill:#FFFFFF;" width="9.587" height="43.826"/>
		<rect x="1015.064" y="135.767" style="fill:#FFC917;" width="9.587" height="36.587"/>
		
			<rect x="993.347" y="115.028" transform="matrix(-1 -1.224647e-16 1.224647e-16 -1 1996.2804 287.3819)" style="fill:#FFFFFF;" width="9.587" height="57.326"/>
		<polygon style="fill:#FF5285;" points="1038.347,202.484 1004.434,230.231 1004.434,202.129 		"/>
	</g>
</g>
</svg>
