<?xml version="1.0" encoding="utf-8"?>
<!-- Generator: Adobe Illustrator 27.5.0, SVG Export Plug-In . SVG Version: 6.00 Build 0)  -->
<svg version="1.1" xmlns="http://www.w3.org/2000/svg" xmlns:xlink="http://www.w3.org/1999/xlink" x="0px" y="0px"
	 viewBox="0 0 5000 5000" style="enable-background:new 0 0 5000 5000;" xml:space="preserve">
<g id="Bg">
	<rect style="fill:#FFFFFF;" width="5000" height="5000"/>
</g>
<g id="illustration">
	<g>
		<g>
			<g>
				<path style="fill:#F2F6F9;" d="M3784.87,980.736H991.495c-67.697,0-122.576,54.879-122.576,122.576v2793.375
					c0,67.697,54.879,122.576,122.576,122.576H3784.87c67.697,0,122.576-54.879,122.576-122.576V1103.313
					C3907.446,1035.615,3852.567,980.736,3784.87,980.736z"/>
			</g>
		</g>
		<g>
			<g>
				<g>
					<g>
						<g>
							<g>
								<g>
									<g>
										<g>
											<path style="fill:#FF6D02;" d="M2692.377,3991.239c-17.23,17.866-40.977,27.932-65.797,27.879
												c-115.793-0.251-456.813-0.887-476.335,0.093c-23.548,1.165-51.811-16.489-60.048-70.644
												c-8.238-54.155,113.024-84.762,203.667-124.785c54.883-24.237,68.339-96.801,70.419-150.293
												c1.351-34.858-2.132-61.611-2.132-61.611l300.189-5.88c1.444,23.217,4.702,45.811,9.191,67.492
												c24.886,120.083,87.702,212.209,89.702,229.175C2762.769,3915.682,2721.435,3961.095,2692.377,3991.239z"/>
										</g>
									</g>
								</g>
							</g>
						</g>
					</g>
				</g>
				<g>
					<g>
						<g>
							<g>
								<g>
									<g>
										<g>
											<path style="fill:#FF6D02;" d="M2364.282,3673.488c1.351-34.858-2.132-61.611-2.132-61.611l300.189-5.88
												c1.444,23.217,4.702,45.811,9.191,67.492H2364.282z"/>
										</g>
									</g>
								</g>
							</g>
						</g>
					</g>
				</g>
				<g>
					<g>
						<g>
							<g>
								<g>
									<g>
										<g>
											<path d="M2107.464,3980.895c-0.661,0-1.232-0.494-1.314-1.166c-0.087-0.726,0.431-1.386,1.156-1.474l636.5-76.913
												c0.741-0.089,1.386,0.43,1.474,1.156c0.086,0.726-0.431,1.387-1.156,1.474l-636.499,76.913
												C2107.57,3980.891,2107.517,3980.895,2107.464,3980.895z"/>
										</g>
									</g>
								</g>
							</g>
						</g>
					</g>
				</g>
				<g>
					<g>
						<g>
							<g>
								<g>
									<g>
										<g>
											<path d="M2275.026,3868.075c-0.232,0-0.467-0.061-0.68-0.189c-15.268-9.161-13.095-30.401-12.996-31.301
												c0.081-0.726,0.729-1.24,1.461-1.17c0.727,0.08,1.251,0.735,1.172,1.462c-0.022,0.204-2.073,20.458,11.726,28.738
												c0.627,0.376,0.83,1.19,0.454,1.817C2275.914,3867.846,2275.476,3868.075,2275.026,3868.075z"/>
										</g>
									</g>
								</g>
							</g>
						</g>
					</g>
				</g>
				<g>
					<g>
						<g>
							<g>
								<g>
									<g>
										<g>
											<path d="M2306.112,3854.619c-0.068,0-0.137-0.005-0.206-0.016c-17.592-2.75-23.564-23.25-23.81-24.121
												c-0.198-0.704,0.212-1.435,0.916-1.633c0.707-0.198,1.436,0.211,1.634,0.914c0.057,0.197,5.77,19.738,21.669,22.224
												c0.723,0.113,1.217,0.79,1.104,1.513C2307.317,3854.153,2306.753,3854.619,2306.112,3854.619z"/>
										</g>
									</g>
								</g>
							</g>
						</g>
					</g>
				</g>
				<g>
					<g>
						<g>
							<g>
								<g>
									<g>
										<g>
											<path d="M2330.964,3836.292c-15.971,0-26.108-16.103-26.557-16.829c-0.384-0.622-0.191-1.437,0.431-1.822
												c0.62-0.385,1.437-0.193,1.822,0.429c0.109,0.174,11.002,17.388,26.945,15.409c0.729-0.094,1.388,0.425,1.477,1.151
												c0.09,0.726-0.426,1.387-1.151,1.477C2332.922,3836.232,2331.931,3836.292,2330.964,3836.292z"/>
										</g>
									</g>
								</g>
							</g>
						</g>
					</g>
				</g>
				<g>
					<g>
						<g>
							<g>
								<g>
									<g>
										<g>
											<path d="M2640.366,3915.753c-0.597,0-1.14-0.407-1.287-1.015c-12.711-52.895,6.032-85.41,23.995-103.372
												c19.435-19.436,42.217-26.457,42.446-26.525c0.698-0.212,1.438,0.186,1.649,0.885c0.211,0.7-0.185,1.439-0.885,1.65
												c-0.223,0.067-22.45,6.936-41.413,25.937c-17.442,17.479-35.628,49.156-23.216,100.805
												c0.171,0.711-0.268,1.427-0.979,1.597C2640.573,3915.742,2640.468,3915.753,2640.366,3915.753z"/>
										</g>
									</g>
								</g>
							</g>
						</g>
					</g>
				</g>
				<g>
					<g>
						<g>
							<g>
								<g>
									<g>
										<g>
											<path d="M2680.59,3722.096h-320.211c-0.732,0-1.324-0.593-1.324-1.324c0-0.731,0.593-1.324,1.324-1.324h320.211
												c0.732,0,1.324,0.593,1.324,1.324C2681.914,3721.503,2681.322,3722.096,2680.59,3722.096z"/>
										</g>
									</g>
								</g>
							</g>
						</g>
					</g>
				</g>
				<g>
					<g>
						<g>
							<g>
								<g>
									<g>
										<g>
											<path d="M2218.911,3966.768c-0.285,0-0.573-0.092-0.815-0.281l-90.256-70.635c-0.575-0.45-0.677-1.283-0.226-1.859
												c0.449-0.575,1.282-0.679,1.859-0.227l90.256,70.635c0.575,0.451,0.677,1.283,0.226,1.859
												C2219.693,3966.593,2219.304,3966.768,2218.911,3966.768z"/>
										</g>
									</g>
								</g>
							</g>
						</g>
					</g>
				</g>
			</g>
			<g>
				<g>
					<g>
						<g>
							<g>
								<g>
									<g>
										<g>
											<path style="fill:#FF6D02;" d="M3593.298,3991.239c-17.23,17.866-40.977,27.932-65.797,27.879
												c-115.792-0.251-456.813-0.887-476.335,0.093c-23.548,1.165-51.811-16.489-60.048-70.644
												c-8.238-54.155,113.025-84.762,203.667-124.785c54.883-24.237,68.34-96.801,70.418-150.293
												c1.351-34.858-2.132-61.611-2.132-61.611l300.189-5.88c1.444,23.217,4.702,45.811,9.191,67.492
												c24.886,120.083,87.702,212.209,89.702,229.175C3663.691,3915.682,3622.356,3961.095,3593.298,3991.239z"/>
										</g>
									</g>
								</g>
							</g>
						</g>
					</g>
				</g>
				<g>
					<g>
						<g>
							<g>
								<g>
									<g>
										<g>
											<path style="fill:#FF6D02;" d="M3265.204,3673.488c1.351-34.858-2.132-61.611-2.132-61.611l300.189-5.88
												c1.444,23.217,4.702,45.811,9.191,67.492H3265.204z"/>
										</g>
									</g>
								</g>
							</g>
						</g>
					</g>
				</g>
				<g>
					<g>
						<g>
							<g>
								<g>
									<g>
										<g>
											<path d="M3008.385,3980.895c-0.661,0-1.232-0.494-1.314-1.166c-0.087-0.726,0.431-1.386,1.156-1.474l636.499-76.913
												c0.741-0.089,1.386,0.43,1.474,1.156c0.086,0.726-0.431,1.387-1.156,1.474l-636.499,76.913
												C3008.491,3980.891,3008.439,3980.895,3008.385,3980.895z"/>
										</g>
									</g>
								</g>
							</g>
						</g>
					</g>
				</g>
				<g>
					<g>
						<g>
							<g>
								<g>
									<g>
										<g>
											<path d="M3175.947,3868.075c-0.232,0-0.467-0.061-0.68-0.189c-15.268-9.161-13.095-30.401-12.996-31.301
												c0.081-0.726,0.729-1.24,1.461-1.17c0.727,0.08,1.25,0.735,1.172,1.462c-0.022,0.204-2.073,20.458,11.726,28.738
												c0.627,0.376,0.83,1.19,0.454,1.817C3176.836,3867.846,3176.397,3868.075,3175.947,3868.075z"/>
										</g>
									</g>
								</g>
							</g>
						</g>
					</g>
				</g>
				<g>
					<g>
						<g>
							<g>
								<g>
									<g>
										<g>
											<path d="M3207.034,3854.619c-0.068,0-0.137-0.005-0.206-0.016c-17.593-2.75-23.564-23.25-23.81-24.121
												c-0.198-0.704,0.212-1.435,0.916-1.633c0.707-0.198,1.436,0.211,1.634,0.914c0.057,0.197,5.77,19.738,21.669,22.224
												c0.723,0.113,1.217,0.79,1.104,1.513C3208.239,3854.153,3207.675,3854.619,3207.034,3854.619z"/>
										</g>
									</g>
								</g>
							</g>
						</g>
					</g>
				</g>
				<g>
					<g>
						<g>
							<g>
								<g>
									<g>
										<g>
											<path d="M3231.885,3836.292c-15.971,0-26.108-16.103-26.557-16.829c-0.384-0.622-0.191-1.437,0.431-1.822
												c0.62-0.385,1.437-0.193,1.823,0.429c0.109,0.174,11.001,17.388,26.944,15.409c0.73-0.094,1.388,0.425,1.477,1.151
												c0.091,0.726-0.426,1.387-1.151,1.477C3233.844,3836.232,3232.853,3836.292,3231.885,3836.292z"/>
										</g>
									</g>
								</g>
							</g>
						</g>
					</g>
				</g>
				<g>
					<g>
						<g>
							<g>
								<g>
									<g>
										<g>
											<path d="M3541.288,3915.753c-0.598,0-1.141-0.407-1.287-1.015c-12.711-52.895,6.032-85.41,23.995-103.372
												c19.436-19.436,42.217-26.457,42.446-26.525c0.698-0.212,1.438,0.186,1.649,0.885c0.21,0.7-0.185,1.439-0.885,1.65
												c-0.223,0.067-22.45,6.936-41.412,25.937c-17.442,17.479-35.628,49.156-23.216,100.805
												c0.171,0.711-0.268,1.427-0.979,1.597C3541.495,3915.742,3541.39,3915.753,3541.288,3915.753z"/>
										</g>
									</g>
								</g>
							</g>
						</g>
					</g>
				</g>
				<g>
					<g>
						<g>
							<g>
								<g>
									<g>
										<g>
											<path d="M3581.511,3722.096H3261.3c-0.732,0-1.324-0.593-1.324-1.324c0-0.731,0.592-1.324,1.324-1.324h320.211
												c0.732,0,1.324,0.593,1.324,1.324C3582.836,3721.503,3582.243,3722.096,3581.511,3722.096z"/>
										</g>
									</g>
								</g>
							</g>
						</g>
					</g>
				</g>
				<g>
					<g>
						<g>
							<g>
								<g>
									<g>
										<g>
											<path d="M3119.832,3966.768c-0.284,0-0.573-0.092-0.815-0.281l-90.256-70.635c-0.575-0.45-0.678-1.283-0.226-1.859
												c0.449-0.575,1.281-0.679,1.859-0.227l90.256,70.635c0.575,0.451,0.678,1.283,0.226,1.859
												C3120.615,3966.593,3120.225,3966.768,3119.832,3966.768z"/>
										</g>
									</g>
								</g>
							</g>
						</g>
					</g>
				</g>
			</g>
			<g>
				<g>
					<g>
						<path d="M3652.711,2191.582c-2.018-17.064-5.066-34.073-9.518-50.674c-6.252-20.423-15.2-40.089-27.148-57.822
							c-13.547-20.93-30.22-40.108-50.483-54.774c-19.153-13.008-40.385-22.438-60.52-33.747
							c-17.869-10.08-34.219-22.969-47.34-38.06c4.903-13.269,10.236-26.304,14.543-38.655c9.284-27.817,14.724-59.07,4.764-87.427
							c-5.477-15.394-15.008-29.634-27.939-39.726c-22.352-17.568-52.487-17.382-79.505-15.187
							c-26.213,2.206-52.558,3.917-78.876,3.383c-6.733-0.342-13.252-0.675-19.651-1.193
							c-76.679-21.24-112.433-115.196-185.539-147.546c-38.93-17.227-83.366-14.644-125.837-11.74
							c-14.637,1.001-29.516,2.052-43.255,7.2c-14.118,5.29-26.292,14.626-38.233,23.831
							c-13.745,10.595-27.784,21.613-40.259,33.826c-30.1,10.3-57.62,33.96-69.569,60.938c-4.404,10.027-7.296,20.809-8.131,31.742
							c-0.545,8.07-0.549,15.594-1.02,22.96c-8.864,6.261-19.468,12.171-28.92,18.507c-14.197,9.669-27.877,20.174-40.581,31.745
							c-12.26,11.07-22.581,24.102-31.373,38.106c-22.447,20.11-40.759,45.863-52.143,73.256c-4.64,11.586-7.39,23.859-8.433,36.298
							c-4.472,0.609-9.037,0.69-13.674,0.107c-22.838,11.872-18.827,59.124,10.191,73.476c6.257,3.095,12.671,4.666,19.205,5.187
							c1.367,3.378,2.733,6.757,4.074,10.143c1.346,3.299,2.718,6.587,4.151,9.85c0.479,0.859,0.627,1.992,1.452,2.6
							c0.824,0.711,2.141,0.587,2.9-0.173c0.696-0.678,0.847-1.844,0.346-2.677c-1.978-4.62-2.857-6.408-4.522-10.612
							c-1.139-2.983-2.339-5.952-3.551-8.919c28.909,0.086,60.019-18.38,90.621-19.096c40.635-0.951,75.735,30.371,95.181,66.063
							c19.446,35.693,27.533,76.329,42.354,114.177c21.403,54.658,57.895,104.156,106.963,136.373
							c56.043,36.797,124.299,49.168,190.776,57.867c41.109,5.38,82.361,9.667,123.699,12.859
							c98.976,7.64,202.749,8.101,292.161-35.027c20.285-9.785,39.917-22.034,54.151-39.488
							c16.133-19.783,23.968-45.033,24.835-70.703c1.104-2.003,2.183-4.019,3.192-6.072c6.176-13.543,8.992-28.377,10.455-43.116
							C3655.019,2230.369,3654.55,2210.875,3652.711,2191.582z M2698.412,1847.267c12.399-10.472,23.095-18.804,36.823-27.815
							c7.755-5.053,15.813-9.683,23.482-14.862c-0.542,5.063-1.429,10.099-3.013,15.235c-1.165,4.188-2.721,8.161-4.537,11.996
							c-9.079,6.092-18.83,11.089-28.698,15.795c-15.385,8.267-31.322,15.651-45.953,25.231c-1.969,1.364-3.913,2.774-5.835,4.222
							C2678.791,1866.078,2688.06,1855.8,2698.412,1847.267z M2602.281,1996.031c2.442-24.582,12.01-48.027,27.927-70.091
							c5.7-8.137,12.447-16.524,19.927-24.494c-2.136,3.969-4.207,7.968-6.143,12.014c-8.798,21.939-12.761,45.45-13.779,69.064
							C2621.671,1988.974,2612.248,1993.829,2602.281,1996.031z M2736.866,1854.009c-11.352,8.166-22.743,16.386-32.273,26.337
							c-20.399,21.299-31.459,49.672-48.077,74.037c-6.037,8.851-13.391,17.365-21.706,24.45
							c1.202-21.629,4.978-42.602,13.198-63.62c3.951-8.365,8.621-16.948,13.936-25.354c3.537-3.193,7.171-6.264,10.914-9.112
							c7.23-5.45,20.62-13.22,30.651-18.195c14.27-8.026,29.409-14.474,43.447-22.885
							C2743.974,1844.629,2740.57,1849.38,2736.866,1854.009z M2748.782,1845.292c2.141-3.375,4.081-6.884,5.806-10.496
							c9.402-6.457,18.094-13.877,26.096-21.996C2772.725,1825.876,2761.219,1835.939,2748.782,1845.292z M2787.351,1798.954
							c-8.952,10.489-18.884,20.022-29.421,27.989c1.451-3.891,2.644-7.874,3.545-11.918c1.014-4.555,1.604-9.151,1.983-13.766
							c2.681-1.956,5.301-3.996,7.81-6.192c7.408-6.258,13.977-13.572,18.667-22.097c2.431-4.257,4.517-8.678,6.461-13.168
							C2793.896,1773.079,2791.933,1786.498,2787.351,1798.954z M2815.276,1710.124c-0.32,0.325-0.669,0.621-0.981,0.954
							c-5.795,6.944-8.993,15.438-12.441,23.682c-6.1,13.957-9.484,26.035-17.339,38.669c-4.72,7.907-10.753,13.87-18.54,20.311
							c-0.681,0.576-1.424,1.139-2.143,1.707c0.231-4.775,0.319-9.563,0.451-14.346c0.755-24.112,11.094-47.319,28.609-64.4
							c10.965-10.638,23.586-19.573,37.599-25.77C2824.901,1696.988,2819.78,1703.368,2815.276,1710.124z M3367.297,1795.364
							c-18.177-9.129-38.692-10.33-59.193-12.024c15.408-0.247,30.83-1.188,46.13-2.084c43.648-4.383,84.202-6.697,108.858,31.145
							c22.58,33.236,16.094,74.678,2.12,111.963c-3.319,8.983-7.122,18.475-10.78,28.247c-2.85-3.509-5.538-7.122-8.019-10.846
							c-8.502-12.735-15.14-26.584-22.312-40.099C3419.381,1859.846,3404.776,1814.187,3367.297,1795.364z M3436.336,1996.522
							c-7.495-26.459-8.572-55.194-11.073-83.152c4.189,8.204,8.383,16.406,13.246,24.238c4.19,6.977,8.956,13.556,14.171,19.753
							c-5.496,15.075-10.376,30.729-12.45,46.203C3438.815,2001.249,3437.529,1998.902,3436.336,1996.522z M3582.747,2163.778
							c-25.12-29.956-54.29-56.224-83.631-82.059c-18.528-16.315-37.504-32.904-49.928-54.237c-2.079-3.569-3.94-7.217-5.622-10.931
							c0.003-0.167,0.023-0.336,0.027-0.503c0.46,0.578,0.877,1.185,1.353,1.753c10.076,13.035,21.648,25.089,35.404,34.266
							c24.969,15.907,52.223,28.01,76.753,44.668c29.342,18.582,46.93,50.496,53.163,85.767c1.846,8.181,2.935,16.491,3.428,24.917
							C3604.799,2191.981,3594.185,2177.417,3582.747,2163.778z M3640.077,2286.782c-0.326,0.749-0.675,1.508-1.026,2.268
							c-0.31-8.976-1.424-17.927-3.346-26.635c-3.577-16.205-9.582-31.664-17.246-46.36c-0.232-13.041-1.879-26.037-4.751-38.822
							c-6.177-30.212-21.077-59.656-46.148-78.405c-27.122-20.507-58.996-33.413-87.23-52.137
							c-11.917-8.022-25.514-22.784-34.023-34.333c-0.805-1.037-1.574-2.08-2.323-3.127c1.42-15.774,6.269-32.045,12.013-48.051
							c12.674,14.142,27.792,26.105,44.192,35.693c21.754,12.545,45.08,22.445,65.637,37.012
							c10.315,7.95,24.483,21.469,33.701,33.569c26.549,33.848,41.334,68.631,47.376,113.454
							C3651.423,2214.422,3652.006,2253.558,3640.077,2286.782z"/>
					</g>
				</g>
			</g>
			<g>
				<g>
					<g>
						<path style="fill:#4D7BFF;" d="M3694.912,3654.748l-533.922-4.904l-236.148-691.237l-0.066-0.177l-25.623,119.985
							l-121.995,571.429l-556.077-4.926l521.863-1389.254l454.956,9.144c90.607,157.977-24.607,307.317-24.607,307.317
							L3694.912,3654.748z"/>
					</g>
				</g>
			</g>
			<g>
				<g>
					<g>
						<polygon points="2924.842,2959.469 2924.842,2959.712 2924.775,2959.535 2899.153,3079.52 2782.658,2753.273 
							2904.388,2389.277 2837.857,2687.935 						"/>
					</g>
				</g>
			</g>
			<g>
				<g>
					<g>
						<path style="fill:#FF6D02;" d="M2864.735,1735.922c0,0-27.138,66.725-19.353,81c7.786,14.276,24.436,9.79,35.857,8.392
							l-45.131,113.391l20.675,24.892l89.04-26.597l-3.394-134.782c0,0,35.541-2.74,26.705-31.801
							c-8.193-26.943-29.831-0.851-33.447,3.927c-3.617,4.778-16.117-21.888-16.117-21.888S2868.703,1772.285,2864.735,1735.922z"/>
					</g>
				</g>
			</g>
			<g>
				<g>
					<g>
						<polygon style="fill:#FF6D02;" points="2176.546,2083.101 1877.658,1826.6 2108.384,1706.25 2395.958,1877.069 						"/>
					</g>
				</g>
			</g>
			<g>
				<g>
					<g>
						<path style="fill:#FFAA01;" d="M2647.494,1984.467l199.45-72.013c0,0-32.51,97.097,96.688-22.707l78.5-5.255l-9.662-161.738
							l-341.028-27.708l-145.252-313.972l592.004,44.809c0,0,209.371,229.211,148.039,456.063
							c-61.332,226.853-31.283,404.475-31.283,404.475l-518.165-10.148l23.196-73.936c0,0-196.696,119.748-245.005,113.079
							c-48.309-6.669-476.961-285.597-476.961-285.597l276.899-272.549L2647.494,1984.467z"/>
					</g>
				</g>
			</g>
			<g>
				<g>
					<g>
						<path d="M2043.579,1981.041c-253.336,0-459.44-206.104-459.44-459.44s206.104-459.44,459.44-459.44
							c253.335,0,459.44,206.104,459.44,459.44S2296.914,1981.041,2043.579,1981.041z M2043.579,1066.578
							c-250.901,0-455.023,204.122-455.023,455.023c0,250.9,204.122,455.023,455.023,455.023
							c250.9,0,455.022-204.123,455.022-455.023C2498.601,1270.7,2294.479,1066.578,2043.579,1066.578z"/>
					</g>
				</g>
			</g>
			<g>
				<g>
					<g>
						<path d="M1772.491,1780.421c-66.88-70.03-103.713-161.948-103.713-258.82c0-95.643,36.024-186.706,101.437-256.414
							c65.112-69.388,153.083-111.125,247.71-117.522l0.298,4.407c-193.472,13.081-345.026,175.396-345.026,369.529
							c0,95.73,36.398,186.564,102.49,255.77L1772.491,1780.421z"/>
					</g>
				</g>
			</g>
			<g>
				<g>
					<g>
						<path style="fill:#4D7BFF;" d="M2416.167,1521.598c0,205.776-166.813,372.588-372.589,372.588
							c-98.758,0-188.525-38.412-255.188-101.121l255.188-255.188v-388.867C2249.354,1149.009,2416.167,1315.821,2416.167,1521.598z
							"/>
					</g>
				</g>
			</g>
			<g>
				<g>
					<g>
						<g>
							<g>
								<g>
									<path style="fill:#FF6D02;" d="M2213.636,1715.471c0,0-35.401,17.394-47.193-6.832
										c-16.765-36.631,33.53-48.422,37.875-50.294c4.345-1.858,86.311-62.714,87.554-96.858
										c1.229-34.158-26.768-21.962-62.156,1.005c-18.651,12.113-39.9,10.59-55.827,6.441c-11.624-3.032-15.158-17.84-6.273-25.93
										l92.626-79.703c8.787-7.558,19.991-11.721,31.587-11.721h310.451l82.99,186.503l-224.745,4.406l-42.611,6.552
										c0,0-27.941,36.003-40.99,48.422c-13.035,12.42-55.882,2.487-55.882,2.487s-21.11,33.53-65.816,46.564
										C2210.521,1759.563,2213.636,1715.471,2213.636,1715.471z"/>
								</g>
							</g>
						</g>
					</g>
				</g>
				<g>
					<g>
						<g>
							<g>
								<g>
									<path d="M2212.233,1715.475c0-0.488,0.256-0.963,0.713-1.22c0.55-0.31,55.228-31.099,67.975-44.452
										c0.818-0.857,1.736-1.811,2.741-2.853c14.697-15.242,49.114-50.938,57.757-88.393c0.174-0.752,0.924-1.221,1.675-1.047
										c0.752,0.174,1.219,0.929,1.048,1.675c-8.818,38.209-43.611,74.295-58.469,89.706c-1.002,1.038-1.917,1.988-2.733,2.842
										c-13.032,13.654-66.363,43.688-68.627,44.96c-0.672,0.378-1.524,0.139-1.903-0.534
										C2212.29,1715.941,2212.233,1715.707,2212.233,1715.475z"/>
								</g>
							</g>
						</g>
					</g>
				</g>
				<g>
					<g>
						<g>
							<g>
								<g>
									<path d="M2319.652,1699.949c0-0.3,0.096-0.602,0.295-0.857c0.329-0.423,33.01-42.369,43.426-57.073
										c10.353-14.616,26.4-50.926,26.56-51.292c0.311-0.705,1.136-1.026,1.842-0.715c0.705,0.31,1.028,1.133,0.715,1.842
										c-0.662,1.501-16.321,36.934-26.837,51.78c-10.454,14.757-43.174,56.753-43.503,57.175c-0.474,0.61-1.352,0.718-1.96,0.244
										C2319.836,1700.777,2319.652,1700.365,2319.652,1699.949z"/>
								</g>
							</g>
						</g>
					</g>
				</g>
				<g>
					<g>
						<g>
							<g>
								<g>
									<path d="M2416.515,1649.033c0-0.241,0.062-0.486,0.193-0.708c0.135-0.228,13.468-23.054,13.468-39.444
										c0-15.672-2.106-18.891-2.195-19.02c-0.5-0.584-0.411-1.437,0.175-1.94c0.586-0.502,1.492-0.404,1.994,0.183
										c0.47,0.549,2.82,4.133,2.82,20.777c0,17.156-13.288,39.902-13.854,40.863c-0.392,0.665-1.248,0.886-1.913,0.494
										C2416.76,1649.978,2416.515,1649.512,2416.515,1649.033z"/>
								</g>
							</g>
						</g>
					</g>
				</g>
			</g>
			<g>
				<g>
					<g>
						<path d="M2041.349,1170.789l-18.779,355.901c-0.067,1.278,0.95,2.35,2.23,2.35h37.557c1.28,0,2.297-1.073,2.23-2.35
							l-18.779-355.901C2045.66,1167.969,2041.498,1167.969,2041.349,1170.789z"/>
					</g>
				</g>
			</g>
			<g>
				<g>
					<g>
						<path d="M1858.422,1725.856l210.553-169.756c0.458-0.369,0.505-1.049,0.103-1.478l-27.573-29.413
							c-0.402-0.429-1.084-0.425-1.482,0.008l-182.979,199.169C1856.197,1725.306,1857.448,1726.641,1858.422,1725.856z"/>
					</g>
				</g>
			</g>
			<g>
				<g>
					<g>
						
							<ellipse transform="matrix(0.1387 -0.9903 0.9903 0.1387 253.2374 3334.3789)" cx="2043.578" cy="1521.601" rx="49.699" ry="49.699"/>
					</g>
				</g>
			</g>
			<g>
				<g>
					<g>
						<polygon points="3176.307,3406.117 2901.446,2679.351 2953.981,2433.588 2958.3,2434.511 2906.036,2679.003 3180.44,3404.555 
													"/>
					</g>
				</g>
			</g>
			<g>
				<g>
					<g>
						<path d="M3001.694,2003.145c-1.049,0-1.98-0.75-2.172-1.818c-0.216-1.2,0.583-2.349,1.784-2.566
							c24.375-4.386,20.775-81.865,17.33-111.348c-0.142-1.212,0.725-2.309,1.937-2.45c1.232-0.154,2.308,0.728,2.45,1.937
							c0.526,4.496,12.489,110.194-20.937,116.21C3001.955,2003.134,3001.823,2003.145,3001.694,2003.145z"/>
					</g>
				</g>
			</g>
			<g>
				<g>
					<g>
						<path d="M2742.944,2194.154c-0.203,0-0.41-0.029-0.617-0.088c-1.171-0.341-1.844-1.566-1.503-2.738
							c0.324-1.117,32.436-112.069,31.373-142.574c-0.043-1.218,0.91-2.241,2.129-2.284c1.188-0.062,2.241,0.911,2.284,2.131
							c1.089,31.208-30.212,139.37-31.545,143.959C2744.784,2193.526,2743.902,2194.154,2742.944,2194.154z"/>
					</g>
				</g>
			</g>
			<g>
				<g>
					<g>
						<path d="M3725.961,3633.25c-0.011,0-0.021,0-0.03,0l-632.744-8.836c-0.949-0.013-1.784-0.632-2.073-1.536l-40.954-128.114
							c-0.215-0.673-0.097-1.409,0.322-1.979c0.417-0.567,1.079-0.903,1.782-0.903c0.002,0,0.004,0,0.008,0l614.06,2.209
							c0.872,0.003,1.659,0.518,2.01,1.315l59.639,134.74c0.306,0.688,0.239,1.484-0.177,2.112
							C3727.395,3632.878,3726.7,3633.25,3725.961,3633.25z M3094.836,3620.02l627.71,8.765l-57.665-130.28l-609.59-2.193
							L3094.836,3620.02z"/>
					</g>
				</g>
			</g>
			<g>
				<g>
					<g>
						<path d="M2846.84,3628.894c-0.007,0-0.015,0-0.022,0l-652.624-6.626c-0.727-0.008-1.404-0.372-1.81-0.975
							c-0.408-0.603-0.49-1.366-0.225-2.043l49.609-125.966c0.332-0.845,1.147-1.4,2.055-1.4h627.313
							c0.656,0,1.277,0.291,1.697,0.795c0.419,0.504,0.594,1.167,0.475,1.812l-24.297,132.593
							C2848.82,3628.133,2847.905,3628.894,2846.84,3628.894z M2197.447,3617.882l647.554,6.576l23.484-128.156h-623.158
							L2197.447,3617.882z"/>
					</g>
				</g>
			</g>
			<g>
				<g>
					<g>
						<path d="M2395.958,3419.119c-0.244,0-0.494-0.041-0.736-0.127c-1.152-0.407-1.754-1.67-1.346-2.82l354.449-1002.109
							c0.406-1.148,1.676-1.756,2.817-1.346c1.152,0.407,1.754,1.67,1.346,2.82L2398.04,3417.646
							C2397.721,3418.552,2396.869,3419.119,2395.958,3419.119z"/>
					</g>
				</g>
			</g>
			<g>
				<g>
					<g>
						<path d="M3116.075,2580.813c-1.063,0-2-0.769-2.179-1.852c-0.197-1.205,0.621-2.339,1.825-2.536l47.227-7.728
							c1.21-0.186,2.338,0.619,2.537,1.823c0.196,1.205-0.621,2.339-1.825,2.537l-47.227,7.728
							C3116.312,2580.803,3116.194,2580.813,3116.075,2580.813z"/>
					</g>
				</g>
			</g>
			<g>
				<g>
					<g>
						<path style="fill:#0F2330;" d="M2688.324,2171.774c-1.774-2.551-4.345,0.179-6.275,1.106
							c-5.148,3.02-10.251,6.116-15.453,9.045c-15.473,9.02-31.64,16.728-47.506,25.006c-17.924,10.092-37.042,17.752-55.346,27.086
							c-10.879,5.285-21.047,10.963-31.291,14.2c-13.308,3.734-24.161,4.966-37.719,5.844c-6.61,0.131-12.302,0.168-17.48-1.061
							c-7.893-2.027-14.271-6.278-22.047-11.032c-14.964-9.439-29.781-19.109-44.75-28.54
							c-24.872-15.326-50.373-29.644-74.628-45.958c-28.663-18.321-56.326-38.195-85.556-55.623
							c-11.085-6.664-22.317-13.104-32.96-20.47c-3.887-2.656-7.772-5.316-11.658-7.974c-0.752-0.443-1.79-0.411-2.453,0.172
							c-1.233,0.847-1.101,2.931,0.224,3.642c22.422,16.151,46.865,29.106,69.935,44.259c43.12,28.894,86.457,57.429,131.316,83.576
							c15.091,9.355,29.934,19.106,44.934,28.607c8.427,5.208,16.782,11.025,26.469,13.599c5.698,1.325,11.63,1.342,17.453,1.26
							c13.819-0.737,27.782-2.367,41.07-6.351c10.969-3.725,21.173-9.368,31.56-14.434c19.183-9.681,39.11-17.827,57.838-28.418
							c17.629-8.912,35.304-17.755,52.276-27.891c3.748-2.215,7.485-4.451,11.255-6.63
							C2688.559,2174.222,2688.948,2172.782,2688.324,2171.774z"/>
					</g>
				</g>
			</g>
			<g>
				<g>
					<g>
						<path style="fill:#4D7BFF;" d="M4136.646,1381.074h-493.571c-46.4,0-84.014,37.615-84.014,84.015v360.147
							c0,46.4,37.615,84.015,84.014,84.015h33.43v92.024c0,37.276,42.891,58.226,72.291,35.31l163.367-127.334h224.484
							c46.399,0,84.015-37.615,84.015-84.015v-360.147C4220.66,1418.689,4183.045,1381.074,4136.646,1381.074z"/>
					</g>
				</g>
			</g>
			<g>
				<g>
					<g>
						<g>
							<path style="fill:#4D7BFF;" d="M1544.7,3405.592c-15.903,7.864-31.94,16.389-48.661,20.299
								c-17.402,4.074-34.66,3.027-51.862-0.694c-72.539-15.688-126.604-76.533-136.23-150.122
								c-13.946-106.622-17.079-214.664-9.261-321.909c2.386-32.739,26.06-60.001,58.116-67.069l0.521-0.115
								c0.398-1.038,0.795-2.054,1.193-3.093c22.022-56.745,56.988-108.322,102.822-150.047l37.109-33.773
								c59.948-54.559,98.294-128.754,108.741-208.316c-11.089,4.396-21.404,10.846-32.095,16.346
								c-39.34,20.277-85.151,27.787-128.931,21.117c-44.883-6.825-86.476-27.876-131.051-36.447
								c-74.306-14.335-150.157,6.737-225.126,17.031c-54.558,7.488-114.33,7.62-163.896-13.054
								c11.354,77.663,49.345,149.914,108.035,203.324l37.109,33.773c46.474,42.299,81.771,94.738,103.75,152.41
								c0.001,0,0.001,0.001,0.002,0.001c23.481,2.685,42.657,19.701,48.397,42.6c3.076,12.274,5.54,24.708,7.604,37.031
								c27.447,163.884-0.231,336.365-76.645,483.835c-9.995,19.289-28.464,33.066-49.952,36.264
								c-0.133,0.02-0.266,0.04-0.398,0.059c-42.056,6.096-102.181-23.392-149.804-22.088
								c-20.63,44.53-31.696,93.478-31.696,143.487v152.676h687.592v-152.676C1610.082,3533.881,1586.779,3463.508,1544.7,3405.592z
								"/>
						</g>
					</g>
				</g>
				<g>
					<g>
						<g>
							<path style="fill:#231F20;" d="M1744.811,3893.851H787.76v-287.402c0-133.771,56.737-262.137,155.661-352.186l37.115-33.784
								c54.491-49.6,85.743-120.308,85.743-193.993c0-73.685-31.252-144.393-85.743-193.992l-37.115-33.785
								c-98.925-90.047-155.661-218.415-155.661-352.186v-287.402h957.051v287.402c0,133.771-56.736,262.139-155.661,352.186
								l-37.115,33.785c-54.491,49.6-85.743,120.307-85.743,193.992c0,73.686,31.252,144.394,85.743,193.993l37.115,33.784
								c98.925,90.048,155.661,218.415,155.661,352.186V3893.851z M792.178,3889.433h948.215v-282.984
								c0-132.53-56.21-259.705-154.218-348.918l-37.115-33.785c-55.407-50.436-87.186-122.334-87.186-197.26
								c0-74.925,31.778-146.824,87.186-197.26l37.115-33.785c98.008-89.212,154.218-216.388,154.218-348.919v-282.984H792.178
								v282.984c0,132.531,56.21,259.707,154.218,348.919l37.115,33.785c55.407,50.436,87.186,122.334,87.186,197.26
								c0,74.926-31.778,146.824-87.186,197.26l-37.115,33.785c-98.008,89.213-154.218,216.388-154.218,348.918V3889.433z"/>
						</g>
					</g>
				</g>
				<g>
					<g>
						<g>
							<path style="fill:#4D7BFF;" d="M1790.071,3888.15H724.833c-13.942,0-25.245,11.303-25.245,25.245v80.624
								c0,13.943,11.303,25.245,25.245,25.245h1065.237c13.943,0,25.245-11.302,25.245-25.245v-80.624
								C1815.316,3899.452,1804.014,3888.15,1790.071,3888.15z"/>
						</g>
					</g>
				</g>
				<g>
					<g>
						<g>
							<path style="fill:#4D7BFF;" d="M1796.184,2032.937H730.947c-13.943,0-25.245,11.303-25.245,25.245v80.623
								c0,13.943,11.303,25.245,25.245,25.245h1065.237c13.943,0,25.245-11.302,25.245-25.245v-80.623
								C1821.429,2044.239,1810.127,2032.937,1796.184,2032.937z"/>
						</g>
					</g>
				</g>
				<g>
					<g>
						<g>
							<path style="fill:#231F20;" d="M1612.291,3761.326h-692.01v-154.884c0-49.428,11.031-99.366,31.902-144.415
								c15.627-33.73,36.391-64.456,61.714-91.326c6.046-6.428,12.353-12.63,18.743-18.431l37.106-33.793
								c55.453-50.46,95.254-115.517,115.099-188.137c9.271-33.888,13.972-68.828,13.972-103.853
								c0-48.024-8.714-95.277-25.898-140.448c-22.009-57.75-57.684-110.16-103.173-151.562l-37.108-33.773
								c-58.625-53.352-97.241-126.027-108.733-204.639c-2.405-16.338-3.624-33.003-3.624-49.532v-154.885h692.01v154.885
								c0,5.205-0.127,10.627-0.379,16.116c-0.444,9.518-1.297,19.072-2.534,28.396c-10.585,80.602-49.452,155.062-109.444,209.659
								l-37.11,33.773c-44.856,40.836-80.213,92.433-102.249,149.213l-1.19,3.083c-17.006,44.891-25.63,91.9-25.63,139.714
								c0,110.91,47.044,217.345,129.07,292.011l37.109,33.772c17.198,15.659,32.86,33.163,46.553,52.024
								c42.434,58.405,65.804,130.196,65.804,202.147V3761.326z M924.699,3756.909h683.174v-150.467
								c0-71.026-23.07-141.895-64.961-199.552c-13.516-18.619-28.977-35.896-45.953-51.354l-37.109-33.771
								c-82.943-75.503-130.513-183.128-130.513-295.279c0-48.351,8.721-95.886,25.921-141.288l1.199-3.108
								c22.281-57.414,58.034-109.587,103.393-150.881l37.11-33.775c59.221-53.894,97.588-127.398,108.037-206.969
								c1.222-9.203,2.063-18.629,2.501-28.021c0.248-5.421,0.374-10.774,0.374-15.912v-150.467H924.699v150.467
								c0,16.314,1.204,32.763,3.576,48.892c11.345,77.604,49.465,149.345,107.336,202.011l37.108,33.774
								c45.999,41.867,82.073,94.863,104.328,153.258c17.376,45.675,26.187,93.458,26.187,142.02
								c0,35.418-4.753,70.751-14.128,105.017c-20.066,73.431-60.313,139.215-116.387,190.24l-37.107,33.793
								c-6.307,5.726-12.53,11.846-18.499,18.192c-24.998,26.525-45.495,56.857-60.922,90.155
								c-20.602,44.471-31.492,93.767-31.492,142.558V3756.909z"/>
						</g>
					</g>
				</g>
			</g>
			<g>
				<g>
					<g>
						<polygon style="fill:#FFAA01;" points="2526.19,1381.074 2671.442,1695.046 2750.408,1668.344 2659.983,1424.346 						"/>
					</g>
				</g>
			</g>
			<g>
				<g>
					<g>
						<g>
							<g>
								<g>
									<g>
										<path style="fill:#4D7BFF;" d="M1238.236,1423.614L1238.236,1423.614c-127.904,0-231.59,103.686-231.59,231.59l0,0
											c0,127.904,103.686,231.59,231.59,231.59l0,0c127.904,0,231.59-103.687,231.59-231.59l0,0
											C1469.826,1527.3,1366.14,1423.614,1238.236,1423.614z"/>
									</g>
								</g>
							</g>
						</g>
					</g>
				</g>
				<g>
					<g>
						<g>
							<g>
								<g>
									<g>
										<g>
											<polygon style="fill:#F3ECED;" points="1226.503,1767.63 1104.203,1645.33 1152.585,1596.946 1226.503,1670.864 
												1354.59,1542.778 1402.972,1591.162 											"/>
										</g>
									</g>
								</g>
							</g>
						</g>
					</g>
				</g>
			</g>
			<g>
				<g>
					<g>
						<rect x="2432.97" y="1279.665" style="fill:#231F20;" width="1456.89" height="4.418"/>
					</g>
				</g>
			</g>
			<g>
				<g>
					<g>
						<rect x="891.341" y="1279.665" style="fill:#231F20;" width="762.847" height="4.418"/>
					</g>
				</g>
			</g>
			<g>
				<g>
					<g>
						<path style="fill:#231F20;" d="M3393.007,1184.882c-34.123,0-61.882-27.76-61.882-61.882c0-34.122,27.76-61.882,61.882-61.882
							c34.123,0,61.882,27.76,61.882,61.882C3454.889,1157.122,3427.13,1184.882,3393.007,1184.882z M3393.007,1065.536
							c-31.686,0-57.465,25.778-57.465,57.464c0,31.686,25.779,57.464,57.465,57.464c31.685,0,57.465-25.778,57.465-57.464
							C3450.472,1091.313,3424.692,1065.536,3393.007,1065.536z"/>
					</g>
				</g>
			</g>
			<g>
				<g>
					<g>
						<path style="fill:#231F20;" d="M3559.061,1184.882c-34.123,0-61.882-27.76-61.882-61.882
							c0-34.122,27.759-61.882,61.882-61.882c34.123,0,61.882,27.76,61.882,61.882
							C3620.943,1157.122,3593.184,1184.882,3559.061,1184.882z M3559.061,1065.536c-31.685,0-57.464,25.778-57.464,57.464
							c0,31.686,25.779,57.464,57.464,57.464c31.685,0,57.465-25.778,57.465-57.464
							C3616.526,1091.313,3590.746,1065.536,3559.061,1065.536z"/>
					</g>
				</g>
			</g>
			<g>
				<g>
					<g>
						<path style="fill:#231F20;" d="M3725.115,1184.882c-34.123,0-61.882-27.76-61.882-61.882c0-34.122,27.76-61.882,61.882-61.882
							c34.123,0,61.882,27.76,61.882,61.882C3786.997,1157.122,3759.238,1184.882,3725.115,1184.882z M3725.115,1065.536
							c-31.685,0-57.464,25.778-57.464,57.464c0,31.686,25.779,57.464,57.464,57.464s57.465-25.778,57.465-57.464
							C3782.58,1091.313,3756.8,1065.536,3725.115,1065.536z"/>
					</g>
				</g>
			</g>
			<g>
				<g>
					<g>
						<path style="fill:#231F20;" d="M1915.939,3188.938h-201.246c-25.742,0-46.685-20.943-46.685-46.685v-201.246
							c0-25.741,20.943-46.685,46.685-46.685h201.246c25.741,0,46.684,20.943,46.684,46.685v201.246
							C1962.623,3167.995,1941.68,3188.938,1915.939,3188.938z M1714.693,2898.741c-23.306,0-42.267,18.961-42.267,42.267v201.246
							c0,23.306,18.961,42.267,42.267,42.267h201.246c23.306,0,42.267-18.96,42.267-42.267v-201.246
							c0-23.306-18.961-42.267-42.267-42.267H1714.693z"/>
					</g>
				</g>
			</g>
			<g>
				<g>
					<g>
						<path style="fill:#231F20;" d="M2294.839,3188.938h-201.244c-25.743,0-46.686-20.943-46.686-46.685v-201.246
							c0-25.741,20.943-46.685,46.686-46.685h201.244c25.742,0,46.686,20.943,46.686,46.685v201.246
							C2341.525,3167.995,2320.582,3188.938,2294.839,3188.938z M2093.595,2898.741c-23.307,0-42.268,18.961-42.268,42.267v201.246
							c0,23.306,18.961,42.267,42.268,42.267h201.244c23.307,0,42.268-18.96,42.268-42.267v-201.246
							c0-23.306-18.961-42.267-42.268-42.267H2093.595z"/>
					</g>
				</g>
			</g>
			<g>
				<g>
					<g>
						<rect x="1877.658" y="2356.691" style="fill:#231F20;" width="481.397" height="4.418"/>
					</g>
				</g>
			</g>
			<g>
				<g>
					<g>
						<rect x="1877.658" y="2497.792" style="fill:#231F20;" width="417.082" height="4.418"/>
					</g>
				</g>
			</g>
			<g>
				<g>
					<g>
						<rect x="1877.658" y="2638.891" style="fill:#231F20;" width="567.829" height="4.418"/>
					</g>
				</g>
			</g>
			<g>
				<g>
					<g>
						<polygon points="2881.24,1825.315 2916.752,1815.769 2857.206,1867.08 						"/>
					</g>
				</g>
			</g>
			<g>
				<g>
					<g>
						<path style="fill:#231F20;" d="M3181.788,1749.095c-10.244-136.2-111.297-237.183-119.649-245.304l-414.588-37.208
							l0.397-4.401l416.118,37.347l0.556,0.522c1.106,1.04,110.807,105.595,121.571,248.712L3181.788,1749.095z"/>
					</g>
				</g>
			</g>
			<g>
				<g>
					<g>
						<circle style="fill:#F1F2F3;" cx="3725.115" cy="1645.62" r="49.248"/>
					</g>
				</g>
			</g>
			<g>
				<g>
					<g>
						<circle style="fill:#F1F2F3;" cx="3889.861" cy="1645.62" r="49.248"/>
					</g>
				</g>
			</g>
			<g>
				<g>
					<g>
						<circle style="fill:#F1F2F3;" cx="4054.606" cy="1645.62" r="49.248"/>
					</g>
				</g>
			</g>
			<g>
				<g>
					<g>
						<polygon style="fill:#231F20;" points="1822.712,3124.863 1741.041,3043.192 1744.164,3040.069 1822.712,3118.617 
							2007.758,2933.571 2010.882,2936.694 						"/>
					</g>
				</g>
			</g>
			<g>
				<g>
					<g>
						<g>
							<path style="fill:#231F20;" d="M3968.207,3188.937h-121.521l-19.563-59.099c-6.445-19.548-21.057-35.271-40.096-43.139
								c-18.997-7.873-40.454-7.094-58.866,2.142l-55.629,27.95l-85.903-85.906l27.949-55.63
								c9.247-18.385,10.037-39.84,2.166-58.864c-7.882-19.015-23.614-33.631-43.164-40.098l-59.099-19.564v-121.518l59.099-19.563
								c19.55-6.468,35.281-21.083,43.164-40.099c7.871-19.022,7.081-40.477-2.166-58.861l-27.949-55.631l85.903-85.928
								l55.631,27.974c18.393,9.25,39.848,10.031,58.862,2.142c19.041-7.869,33.653-23.592,40.096-43.137l19.564-59.102h121.521
								l19.563,59.099c6.469,19.558,21.083,35.282,40.096,43.139c19.028,7.885,40.479,7.104,58.865-2.141l55.631-27.973
								l85.927,85.927l-27.976,55.631c-9.234,18.406-10.015,39.861-2.142,58.861c7.88,19.011,23.607,33.628,43.142,40.099
								l59.099,19.563v121.518l-59.099,19.564c-19.537,6.469-35.26,21.084-43.142,40.099c-7.873,19-7.092,40.455,2.142,58.864
								l27.976,55.629l-85.927,85.906l-55.631-27.951c-18.361-9.247-39.818-10.027-58.863-2.142
								c-19.015,7.858-33.629,23.582-40.098,43.139L3968.207,3188.937z M3849.878,3184.52h115.136l18.561-56.07
								c6.873-20.778,22.399-37.483,42.602-45.834c20.236-8.377,43.025-7.545,62.538,2.278l52.777,26.518l81.415-81.393
								l-26.543-52.78c-9.813-19.557-10.641-42.35-2.276-62.537c8.374-20.201,25.078-35.729,45.834-42.601l56.071-18.561v-115.137
								l-56.071-18.561c-20.756-6.874-37.46-22.401-45.834-42.601c-8.365-20.187-7.537-42.98,2.276-62.535l26.543-52.781
								l-81.415-81.415l-52.779,26.541c-19.53,9.82-42.326,10.651-62.538,2.276c-20.201-8.349-35.727-25.054-42.6-45.833
								l-18.561-56.069h-115.136l-18.562,56.07c-6.844,20.766-22.373,37.473-42.602,45.833c-20.199,8.38-42.995,7.551-62.536-2.277
								l-52.78-26.54l-81.391,81.413l26.517,52.781c9.823,19.531,10.662,42.324,2.3,62.535
								c-8.374,20.204-25.089,35.732-45.855,42.602l-56.071,18.561v115.137l56.071,18.561c20.766,6.869,37.481,22.397,45.855,42.601
								c8.363,20.212,7.524,43.005-2.3,62.537l-26.517,52.78l81.391,81.393l52.78-26.519c19.56-9.812,42.35-10.641,62.538-2.276
								c20.227,8.36,35.756,25.067,42.602,45.836L3849.878,3184.52z M3907.457,3013.488c-119.946,0-217.528-97.572-217.528-217.504
								c0-119.946,97.582-217.527,217.528-217.527c119.947,0,217.529,97.582,217.529,217.527
								C4124.985,2915.916,4027.403,3013.488,3907.457,3013.488z M3907.457,2582.874c-117.509,0-213.11,95.601-213.11,213.11
								c0,117.496,95.602,213.087,213.11,213.087c117.51,0,213.111-95.591,213.111-213.087
								C4120.567,2678.475,4024.966,2582.874,3907.457,2582.874z"/>
						</g>
					</g>
				</g>
				<g>
					<g>
						<g>
							<path style="fill:#231F20;" d="M3907.457,2969.925c-95.919,0-173.953-78.033-173.953-173.948
								c0-95.917,78.034-173.95,173.953-173.95c95.915,0,173.947,78.033,173.947,173.95
								C4081.404,2891.892,4003.372,2969.925,3907.457,2969.925z M3907.457,2626.444c-93.481,0-169.535,76.052-169.535,169.532
								c0,93.48,76.054,169.531,169.535,169.531c93.479,0,169.529-76.051,169.529-169.531
								C4076.986,2702.496,4000.936,2626.444,3907.457,2626.444z"/>
						</g>
					</g>
				</g>
			</g>
		</g>
		<g>
			<g>
				<g>
					
						<rect x="2975.773" y="1995.737" transform="matrix(0.0141 -0.9999 0.9999 0.0141 703.0981 5179.1255)" style="fill:#231F20;" width="4.418" height="474.542"/>
				</g>
			</g>
		</g>
		<g>
			<g>
				<g>
					<path style="fill:#231F20;" d="M3165.514,2409.634h-7.764c-51.804,0-93.949-42.145-93.949-93.949h4.417
						c0,49.367,40.164,89.531,89.532,89.531h7.764V2409.634z"/>
				</g>
			</g>
		</g>
	</g>
</g>
</svg>
