<?xml version="1.0" encoding="utf-8"?>
<!-- Generator: Adobe Illustrator 27.5.0, SVG Export Plug-In . SVG Version: 6.00 Build 0)  -->
<svg version="1.1" id="Layer_1" xmlns="http://www.w3.org/2000/svg" xmlns:xlink="http://www.w3.org/1999/xlink" x="0px" y="0px"
	 viewBox="0 0 1364 960" style="enable-background:new 0 0 1364 960;" xml:space="preserve">
<g>
	<g>
		<g>
			<g>
				<path style="fill:#E5E7EB;" d="M546.564,151.486c-38.889,0-70.53,31.641-70.53,70.545
					c3.876,93.576,137.217,93.533,141.075-0.001C617.109,183.126,585.468,151.486,546.564,151.486z M546.564,274.514
					c-28.934,0-52.484-23.55-52.484-52.484c2.886-69.654,102.111-69.618,104.983,0C599.063,250.964,575.513,274.514,546.564,274.514
					z"/>
			</g>
		</g>
		<g>
			<g>
				<path style="fill:#E5E7EB;" d="M665.908,190.104h-13.489c-2.136-7.113-4.963-13.925-8.422-20.362l9.519-9.52
					c5.233-5.233,5.233-13.7,0-18.918l-26.227-26.226c-5.219-5.234-13.685-5.234-18.918,0l-9.519,9.519
					c-6.436-3.458-13.249-6.286-20.362-8.422v-13.489c0-7.384-5.985-13.369-13.369-13.369h-37.099
					c-7.384,0-13.369,5.985-13.369,13.369v13.489c-7.113,2.136-13.926,4.963-20.362,8.422l-9.534-9.519
					c-5.218-5.234-13.685-5.234-18.903,0l-26.242,26.226c-5.218,5.219-5.218,13.685,0,18.918l9.534,9.52
					c-3.459,6.437-6.286,13.249-8.437,20.362h-13.474c-7.384,0-13.369,5.985-13.369,13.369v37.1c0,7.384,5.986,13.369,13.369,13.369
					h13.474c2.15,7.113,4.978,13.925,8.437,20.362l-9.534,9.534c-5.218,5.218-5.218,13.685,0,18.903l26.242,26.242
					c5.218,5.219,13.685,5.219,18.903,0l9.534-9.534c6.436,3.458,13.249,6.285,20.362,8.436v13.474
					c0,7.384,5.985,13.369,13.369,13.369h37.099c7.384,0,13.369-5.985,13.369-13.369v-13.474c7.113-2.151,13.925-4.978,20.362-8.436
					l9.519,9.534c5.233,5.219,13.7,5.219,18.918,0l26.227-26.242c5.233-5.218,5.233-13.685,0-18.903l-9.519-9.534
					c3.459-6.437,6.286-13.249,8.422-20.362h13.489c7.384,0,13.369-5.985,13.369-13.369v-37.1
					C679.278,196.089,673.292,190.104,665.908,190.104z M546.564,303.087c-44.694,0-81.057-36.362-81.057-81.057
					c4.448-107.561,157.701-107.514,162.129,0.001C627.636,266.725,591.273,303.087,546.564,303.087z"/>
			</g>
		</g>
	</g>
	<g>
		<g>
			<g>
				<path style="fill:#E5E7EB;" d="M1139.506,556.989c-28.084,0-50.933,22.849-50.933,50.944c2.799,67.576,99.092,67.545,101.878,0
					C1190.45,579.839,1167.601,556.989,1139.506,556.989z M1139.506,645.834c-20.895,0-37.901-17.006-37.901-37.901
					c2.084-50.301,73.74-50.275,75.814,0C1177.418,628.828,1160.412,645.834,1139.506,645.834z"/>
			</g>
		</g>
		<g>
			<g>
				<path style="fill:#E5E7EB;" d="M1225.691,584.877h-9.741c-1.542-5.137-3.584-10.056-6.082-14.704l6.875-6.875
					c3.779-3.779,3.779-9.893,0-13.662l-18.94-18.939c-3.769-3.78-9.883-3.78-13.662,0l-6.874,6.874
					c-4.648-2.498-9.568-4.539-14.704-6.082v-9.741c0-5.332-4.322-9.655-9.655-9.655h-26.792c-5.333,0-9.655,4.322-9.655,9.655
					v9.741c-5.137,1.543-10.056,3.584-14.704,6.082l-6.885-6.874c-3.768-3.78-9.883-3.78-13.651,0l-18.951,18.939
					c-3.768,3.769-3.768,9.883,0,13.662l6.885,6.875c-2.498,4.648-4.54,9.568-6.093,14.704h-9.73c-5.332,0-9.655,4.322-9.655,9.655
					v26.792c0,5.333,4.323,9.655,9.655,9.655h9.73c1.553,5.137,3.595,10.056,6.093,14.705l-6.885,6.885
					c-3.768,3.768-3.768,9.883,0,13.651l18.951,18.951c3.768,3.769,9.883,3.769,13.651,0l6.885-6.885
					c4.648,2.498,9.568,4.539,14.704,6.092v9.731c0,5.332,4.322,9.655,9.655,9.655h26.792c5.332,0,9.655-4.322,9.655-9.655v-9.731
					c5.137-1.553,10.056-3.595,14.704-6.092l6.874,6.885c3.779,3.769,9.893,3.769,13.662,0l18.94-18.951
					c3.779-3.768,3.779-9.883,0-13.651l-6.875-6.885c2.498-4.648,4.54-9.568,6.082-14.705h9.741c5.332,0,9.655-4.322,9.655-9.655
					v-26.792C1235.346,589.2,1231.023,584.877,1225.691,584.877z M1139.506,666.469c-32.276,0-58.535-26.259-58.535-58.535
					c3.212-77.676,113.884-77.642,117.082,0C1198.052,640.209,1171.793,666.469,1139.506,666.469z"/>
			</g>
		</g>
	</g>
	<g>
		<g>
			<path style="fill:#7075EB;" d="M1049.622,186.847H561.316c-13.716,0-24.834,11.118-24.834,24.833v225.189
				c0,13.715,11.118,24.833,24.834,24.833h488.306c13.715,0,24.833-11.118,24.833-24.833V211.68
				C1074.455,197.965,1063.337,186.847,1049.622,186.847z"/>
		</g>
		<g>
			<path style="fill:#FFFFFF;" d="M1048.743,237.595H562.195c-13.715,0-24.833,11.118-24.833,24.833V674.89
				c0,13.715,11.118,24.833,24.833,24.833h486.548c13.715,0,24.833-11.118,24.833-24.833V262.429
				C1073.576,248.714,1062.458,237.595,1048.743,237.595z"/>
			<path style="fill:#27114F;" d="M1048.742,700.764H562.195c-14.267,0-25.873-11.607-25.873-25.874V262.429
				c0-14.267,11.606-25.873,25.873-25.873h486.547c14.267,0,25.873,11.606,25.873,25.873v412.461
				C1074.616,689.156,1063.01,700.764,1048.742,700.764z M562.195,238.636c-13.119,0-23.793,10.674-23.793,23.793v412.461
				c0,13.12,10.674,23.794,23.793,23.794h486.547c13.119,0,23.793-10.674,23.793-23.794V262.429
				c0-13.119-10.674-23.793-23.793-23.793H562.195z"/>
		</g>
		<g>
			<g>
				<g>
					<rect x="873.195" y="382.398" style="fill:#DBDEE6;" width="151.583" height="94.018"/>
				</g>
			</g>
			<g>
				<g>
					<rect x="586.16" y="404.578" style="fill:#DBDEE6;" width="173.468" height="66.008"/>
				</g>
			</g>
			<g>
				<g>
					<rect x="873.195" y="497.073" style="fill:#FF6E3D;" width="151.583" height="25.154"/>
				</g>
			</g>
			<g>
				<g>
					<g>
						<rect x="960.904" y="544.821" style="fill:#DBDEE6;" width="63.874" height="56.648"/>
					</g>
				</g>
				<g>
					<g>
						<rect x="873.195" y="544.821" style="fill:#DBDEE6;" width="63.874" height="56.648"/>
					</g>
				</g>
			</g>
			<g>
				<g>
					<g>
						<g>
							<g>
								<rect x="726.131" y="299.38" style="fill:#DBDEE6;" width="298.647" height="17.122"/>
							</g>
						</g>
					</g>
					<g>
						<g>
							<g>
								<rect x="726.131" y="337.368" style="fill:#DBDEE6;" width="177.577" height="17.122"/>
							</g>
						</g>
					</g>
				</g>
				<g>
					<g>
						<rect x="586.16" y="278.603" style="fill:#FFC31F;" width="108.278" height="96.666"/>
					</g>
					<g>
						<path style="fill:#FFFFFF;" d="M672.437,334.926c-5.228-4.184-10.621-2.896-14.794,0.824
							c-2.332,2.078-5.551,1.762-8.301,0.281c-7.341-3.953-14.236-8.48-19.297-16.13c-1.737-2.627-2.86-5.626-1.184-8.292
							c6.821-10.855-14.376-26.462-21.176-18.052c-5.553,6.868-8.879,14.268-3.994,25.585c5.662,13.116,27.641,33.531,49.703,42.048
							C670.221,367.686,689.966,352.295,672.437,334.926z"/>
					</g>
				</g>
			</g>
		</g>
		<g>
			<g>
				<path style="fill:#FFFFFF;" d="M600.237,201.467c-5.727,0-10.369,4.642-10.369,10.369c0,5.727,4.642,10.369,10.369,10.369
					c5.726,0,10.369-4.642,10.369-10.369C610.606,206.109,605.964,201.467,600.237,201.467z"/>
			</g>
			<g>
				<path style="fill:#FFFFFF;" d="M638.987,201.467c-5.727,0-10.369,4.642-10.369,10.369c0,5.727,4.642,10.369,10.369,10.369
					c5.727,0,10.369-4.642,10.369-10.369C649.356,206.109,644.714,201.467,638.987,201.467z"/>
			</g>
			<g>
				
					<ellipse transform="matrix(0.7071 -0.7071 0.7071 0.7071 149.3361 784.2015)" style="fill:#FFFFFF;" cx="1021.283" cy="211.836" rx="11.063" ry="11.063"/>
			</g>
			<g>
				<path style="fill:#FFFFFF;" d="M886.842,205.241H782.73c-3.642,0-6.594,2.953-6.594,6.595c0,3.642,2.952,6.595,6.594,6.595
					h104.112c3.642,0,6.594-2.952,6.594-6.595C893.436,208.194,890.484,205.241,886.842,205.241z"/>
			</g>
		</g>
	</g>
	<g>
		<g>
			<rect x="614.918" y="530.968" style="fill:#E5E7EB;" width="126.829" height="93.945"/>
		</g>
		<g>
			<g>
				<path style="fill:#E5E7EB;" d="M705.224,580.752c2.252-24.143-22.718-42.8-45.303-33.597
					c-17.047,6.747-25.396,26.037-18.648,43.084c9.226,24.023,42.367,28.299,57.436,7.684l19.022,0.411L705.224,580.752z"/>
			</g>
		</g>
	</g>
	<g>
		<path style="fill:#27114F;" d="M1183.414,870.683H982.724c-0.862,0-1.56-0.699-1.56-1.56s0.699-1.56,1.56-1.56h200.689
			c0.861,0,1.561,0.699,1.561,1.56S1184.275,870.683,1183.414,870.683z"/>
	</g>
	<g>
		<path style="fill:#27114F;" d="M873.195,870.683H220.77c-0.862,0-1.561-0.699-1.561-1.56s0.699-1.56,1.561-1.56h652.426
			c0.861,0,1.56,0.699,1.56,1.56S874.057,870.683,873.195,870.683z"/>
	</g>
	<g>
		<defs>
			<rect id="SVGID_1_" x="132.087" y="270.922" width="759.722" height="535.477"/>
		</defs>
		<clipPath id="SVGID_00000110439558260775718200000012413363077929320378_">
			<use xlink:href="#SVGID_1_"  style="overflow:visible;"/>
		</clipPath>
		<g style="clip-path:url(#SVGID_00000110439558260775718200000012413363077929320378_);">
			<g>
				<g>
					<path style="fill:#FF6E3D;" d="M610.062,479.769c-11.478-6.938-24.615-10.423-37.989-10.075
						c-24.226,0.63-46.195,13.423-58.768,34.221c-9.773,16.165-12.701,35.146-8.246,53.446
						c4.455,18.299,15.759,33.728,31.832,43.443l138.186,83.529c11.478,6.939,24.615,10.423,37.989,10.075
						c24.225-0.629,46.194-13.423,58.767-34.221c20.174-33.37,9.594-76.834-23.585-96.889L610.062,479.769z"/>
				</g>
				<g>
					<path style="fill:#27114F;" d="M605.41,642.22l-28.536-17.249l16.229-77.089C603.652,563.788,608.614,608.315,605.41,642.22z"
						/>
				</g>
				<g>
					<g>
						<path style="fill:#FF9F63;" d="M657.213,601.456l95.606-156.886c9.524-15.629,25.01-25.939,42.478-27.879
							c40.992-5.391,69.245,40.01,51.515,78.126c0,0-47.638,116.096-74.274,163.357C731.257,731.419,619.62,671.384,657.213,601.456
							z"/>
					</g>
					<g>
						<path style="fill:#FF6E3D;" d="M726.436,480.134c35.504,6.901,92.786,44.172,106.258,58.557
							c-7.653,17.421-13.576,30.984-23.578,53.452c-15.223,34.196-26.254,58.415-32.79,71.971
							c-17.515,36.354-58.198,40.768-89.345,26.345c-29.887-13.852-54.091-46.661-36.601-85.951c1.1-2.471,2.375-4.978,3.784-7.426
							C668.365,572.316,703.178,516.88,726.436,480.134z"/>
					</g>
				</g>
				<g>
					<g>
						<path style="fill:#FF9F63;" d="M840.599,354.926c-6.681-4.092-13.618-3.268-19.507,4.687
							c-11.596,15.666-40.722,66.482-40.722,66.482c-1.11,1.813-0.541,4.181,1.271,5.291l17.632,10.8
							c1.812,1.111,4.181,0.542,5.291-1.271c0,0,31.75-42.116,40.722-66.482C848.582,365.481,847.28,359.019,840.599,354.926z"/>
					</g>
					<g>
						<path style="fill:#FF9F63;" d="M739.027,467.202l94.559,48.437c10.357-15.956,23.89-42.007,35.905-68.792l-100.359-35.545
							C758.434,432.316,752.137,444.085,739.027,467.202z"/>
					</g>
					<g>
						<g>
							<path style="fill:#FF9F63;" d="M848.75,396.332L848.75,396.332c-7.255-3.591-15.777-1.108-18.959,5.524l-14.648,30.534
								c-3.7,6.816,0.155,14.391,7.21,17.784c7.047,3.409,14.033,2.07,18.368-5.458c4.279-7.449,9.982-19.034,15.301-30.301
								C859.1,407.898,855.859,399.851,848.75,396.332z"/>
						</g>
						<g>
							<path style="fill:#FF9F63;" d="M872.223,407.952L872.223,407.952c-7.255-3.591-15.764-1.135-18.929,5.464l-14.573,30.382
								c-3.682,6.781,0.184,14.333,7.238,17.727c7.047,3.41,14.023,2.09,18.339-5.4c4.26-7.41,9.934-18.937,15.226-30.148
								C882.586,419.491,879.332,411.471,872.223,407.952z"/>
						</g>
						<g>
							<path style="fill:#27114F;" d="M836.48,451.138c-0.118,0-0.239-0.027-0.352-0.084c-0.384-0.195-0.539-0.665-0.343-1.048
								l16.1-31.784c0.194-0.383,0.662-0.538,1.049-0.343c0.384,0.195,0.538,0.664,0.343,1.048l-16.1,31.784
								C837.04,450.981,836.766,451.138,836.48,451.138z"/>
						</g>
						<g>
							<path style="fill:#27114F;" d="M853.041,464.079c-2.352,0-4.852-0.61-7.42-1.852c-5.107-2.456-8.513-6.942-9.029-11.724
								c-4.089,2.826-9.205,2.976-14.579,0.374c-4.135-1.989-7.225-5.351-8.476-9.223c-1.053-3.255-0.734-6.587,0.921-9.635
								l11.709-24.772c0.183-0.389,0.646-0.556,1.038-0.372c0.39,0.184,0.557,0.649,0.372,1.038l-11.728,24.811
								c-1.465,2.702-1.744,5.611-0.828,8.451c1.121,3.466,3.917,6.491,7.67,8.297c5.329,2.578,10.336,2.185,14.103-1.101
								l1.339-1.17l-0.046,1.778c-0.123,4.736,3.1,9.385,8.211,11.844c7.154,3.462,13.467,1.608,17.324-5.086
								c3.684-6.41,8.797-16.535,15.195-30.092c0.185-0.387,0.646-0.558,1.039-0.373c0.389,0.184,0.557,0.649,0.373,1.039
								c-6.417,13.595-11.548,23.756-15.255,30.203C862.11,461.486,857.892,464.078,853.041,464.079z"/>
						</g>
					</g>
					<g>
						<g>
							<path style="fill:#FF9F63;" d="M830.529,425.159c-2.805,2.067-10.685,3.9-14.144,4.322l-14.211,0.705
								c-4.202,5.892-7.555,11.302-14.769,14.033c-11.801,4.467-24.783-20.232-24.783-20.232
								c9.366-22.112,17.061-30.168,36.351-26.597c0,0,22.271,4.722,29.716,6.186C836.405,405.094,841.923,416.763,830.529,425.159z
								"/>
						</g>
						<g>
							<path style="fill:#27114F;" d="M787.405,444.999c-0.315,0-0.612-0.192-0.729-0.504c-0.152-0.403,0.05-0.853,0.453-1.006
								c6.407-2.425,9.649-7.017,13.402-12.334l1.228-1.731l14.589-0.723c3.333-0.407,11.052-2.205,13.718-4.169
								c4.781-3.523,6.947-8.116,5.942-12.602c-0.859-3.829-3.861-6.878-7.469-7.587c-7.367-1.449-29.505-6.142-29.728-6.189
								c-0.422-0.089-0.691-0.503-0.601-0.925c0.089-0.423,0.512-0.697,0.924-0.601c0.223,0.047,22.351,4.737,29.706,6.183
								c4.207,0.827,7.699,4.354,8.69,8.778c1.147,5.116-1.236,10.292-6.538,14.199c-2.926,2.156-10.881,4.026-14.512,4.467
								l-13.889,0.692l-0.786,1.109c-3.739,5.296-7.27,10.299-14.124,12.892C787.589,444.983,787.496,444.999,787.405,444.999z"/>
						</g>
					</g>
				</g>
			</g>
			<g>
				<g>
					<g>
						<g>
							<path style="fill:#27114F;" d="M445.122,1521.509c5.84-39.224,26.542-74.338,26.542-74.338h120.086
								c0,0,82.856,54.145,102.792,71.894c16.368,14.572,28.689,32.919,28.555,68.466c-0.017,4.584-3.71,8.316-8.294,8.316
								l-265.099,0c-4.537,0-8.225-3.656-8.285-8.193C441.16,1567.727,440.312,1553.816,445.122,1521.509z"/>
						</g>
						<g>
							<path style="fill:#FFFFFF;" d="M583.518,1488.72c-0.581,0-1.14-0.326-1.408-0.886c-0.373-0.777-0.045-1.709,0.733-2.082
								l43.877-21.041c0.775-0.373,1.709-0.046,2.082,0.733c0.373,0.777,0.045,1.709-0.732,2.082l-43.877,21.041
								C583.974,1488.671,583.745,1488.72,583.518,1488.72z"/>
						</g>
						<g>
							<path style="fill:#FFFFFF;" d="M601.314,1503.26c-0.581,0-1.14-0.326-1.408-0.886c-0.373-0.777-0.045-1.709,0.732-2.082
								l43.878-21.042c0.775-0.374,1.71-0.046,2.082,0.732c0.373,0.777,0.045,1.709-0.732,2.082l-43.878,21.042
								C601.77,1503.212,601.54,1503.26,601.314,1503.26z"/>
						</g>
						<g>
							<path style="fill:#FA4E6B;" d="M449.699,1595.852h265.099c4.569,0,8.275-3.711,8.295-8.281
								c0.082-19.498-3.581-33.827-9.612-45.202c-4.166,4.186-20.112,19.353-35.94,23.889
								c-77.722,22.195-66.703-12.791-117.051-12.499c-30.216,0.175-30.625,21.28-57.824,21.28
								c-14.855,0-27.471-34.441-59.518-38.589c-2.573,22.235-1.95,34.648-1.733,51.209
								C441.474,1592.196,445.163,1595.852,449.699,1595.852z"/>
						</g>
					</g>
				</g>
				<g>
					<path style="fill:#7075EB;" d="M574.52,1179.494l-30.043,7.223c-43.855,10.544-87.955-16.46-98.499-60.315l-69.265-288.087
						c-8.569-35.639,13.376-71.476,49.015-80.045l0,0c65.651-15.785,127.382,11.486,147.016,104.742l57.947,224.751
						C640.51,1128.605,615.362,1169.674,574.52,1179.494z"/>
				</g>
				<g>
					<path style="fill:#7075EB;" d="M539.436,1018.795L539.436,1018.795c52.089,0,94.314,41.284,94.314,92.21v275.201
						c0,34.361-23.507,63.021-37.163,67.01c-19.604,5.726-113.034,5.834-127.26-1.279c-18.927-9.463-24.204-31.369-24.204-65.731
						v-275.201C445.122,1060.078,487.348,1018.795,539.436,1018.795z"/>
				</g>
			</g>
			<g>
				<g>
					<g>
						<g>
							<polygon style="fill:#FF9F63;" points="402.085,431.195 438.52,431.256 442.57,481.853 397.866,481.778 							"/>
						</g>
					</g>
					<g>
						<g>
							<path style="fill:#27114F;" d="M401.648,436.379c3.408,13.105,15.318,22.795,29.501,22.819l4.448,0.007
								c1.754,0.003,3.469-0.162,5.119-0.482l-2.198-27.466l-36.436-0.061L401.648,436.379z"/>
						</g>
					</g>
					<g>
						<g>
							<path style="fill:#FF9F63;" d="M456.899,380.493l-0.078,47.036c-0.025,14.763-12.012,26.711-26.775,26.686l-4.442-0.007
								c-16.866-0.028-30.515-13.723-30.487-30.589l0.072-43.229L456.899,380.493z"/>
						</g>
					</g>
					<g>
						<g>
							<path style="fill:#27114F;" d="M415.73,372.774c-43.763-6.103-37.603,36.805-20.242,47.541l10.05-0.905
								c4.689-2.135,9.766-21.044,7.965-29.937L415.73,372.774z"/>
						</g>
					</g>
					<g>
						<g>
							<path style="fill:#27114F;" d="M404.893,375.798c0,0-0.929-14.124,13.777-17.194c10.661-2.225,15.233,2.44,24.381,6.118
								c2.832,1.139,6.756,0.629,8.661-0.491c7.315-4.299,20.803-7.291,24.496,4.23c4.635,14.462-13.782,20.024-13.782,20.024
								s3.949,2.566,3.028,8.034c-1.051,6.242-8.782,5.27-8.782,5.27c0.127-2.854-0.793-8.193-3.326-11.036
								c0.022,0.148,1.196,10.663-6.477,12.01c-5.512,0.968-9.839-2.431-10.642-7.746c0,0-0.494,7.478-8.96,7.682
								c-14.522,0.349-22.519-14.358-22.519-14.358L404.893,375.798z"/>
						</g>
					</g>
				</g>
				<g>
					<path style="fill:#FF9F63;" d="M398.124,401.806c3.532-0.947,7.168,1.209,8.243,4.704l2.663,8.658
						c1.26,4.097-1.04,8.439-5.136,9.699h0c-5.674,1.745-11.688-1.44-13.432-7.115l-0.416-1.354
						C388.122,410.149,391.752,403.516,398.124,401.806z"/>
				</g>
			</g>
			<g>
				<g>
					<g>
						<path style="fill:#27114F;" d="M243.063,1521.509c5.84-39.224,26.542-74.338,26.542-74.338h120.086
							c0,0,82.856,54.145,102.792,71.894c16.368,14.572,28.689,32.919,28.555,68.466c-0.017,4.584-3.71,8.316-8.294,8.316
							l-265.099,0c-4.537,0-8.225-3.656-8.285-8.193C239.101,1567.727,238.253,1553.816,243.063,1521.509z"/>
					</g>
					<g>
						<path style="fill:#3D3D3D;" d="M243.063,1521.509c5.84-39.224,26.542-74.338,26.542-74.338h120.086
							c0,0,82.856,54.145,102.792,71.894c16.368,14.572,28.689,32.919,28.555,68.466c-0.017,4.584-3.71,8.316-8.294,8.316
							l-265.099,0c-4.537,0-8.225-3.656-8.285-8.193C239.101,1567.727,238.253,1553.816,243.063,1521.509z"/>
					</g>
					<g>
						<path style="fill:#FFFFFF;" d="M381.459,1488.72c-0.581,0-1.14-0.326-1.408-0.886c-0.373-0.777-0.045-1.709,0.733-2.082
							l43.877-21.041c0.775-0.373,1.709-0.046,2.082,0.733c0.373,0.777,0.045,1.709-0.733,2.082l-43.877,21.041
							C381.916,1488.671,381.686,1488.72,381.459,1488.72z"/>
					</g>
					<g>
						<path style="fill:#FFFFFF;" d="M399.255,1503.26c-0.581,0-1.14-0.326-1.408-0.886c-0.373-0.777-0.045-1.709,0.733-2.082
							l43.877-21.042c0.775-0.374,1.709-0.046,2.082,0.732c0.373,0.777,0.045,1.709-0.733,2.082l-43.877,21.042
							C399.711,1503.212,399.482,1503.26,399.255,1503.26z"/>
					</g>
					<g>
						<path style="fill:#FA627C;" d="M247.64,1595.852h265.099c4.569,0,8.275-3.711,8.295-8.281
							c0.082-19.498-3.582-33.827-9.612-45.202c-4.166,4.186-20.112,19.353-35.941,23.889
							c-77.722,22.195-66.702-12.791-117.051-12.499c-30.216,0.175-30.625,21.28-57.824,21.28
							c-14.855,0-27.471-34.441-59.518-38.589c-2.573,22.235-1.95,34.648-1.733,51.209
							C239.415,1592.196,243.104,1595.852,247.64,1595.852z"/>
					</g>
				</g>
				<g>
					<path style="fill:#7075EB;" d="M393.151,719.616L393.151,719.616c35.244,1.532,62.572,31.344,61.041,66.587l-15.271,351.39
						c-2.127,48.933-43.518,86.877-92.451,84.75l-11.248-0.489c-48.933-2.127-86.877-43.518-84.75-92.451l12.627-290.569
						C266.091,770.001,324.317,716.625,393.151,719.616z"/>
				</g>
				<g>
					<path style="fill:#7075EB;" d="M349.578,1021.171L349.578,1021.171c52.039,2.261,92.433,45.34,90.221,96.218l-11.948,274.941
						c-1.492,34.329-18.599,56.944-32.415,60.336c-19.835,4.87-120.803,5.918-134.707-1.806
						c-18.498-10.276-22.819-32.391-21.327-66.72l11.948-274.941C253.561,1058.321,297.539,1018.909,349.578,1021.171z"/>
				</g>
			</g>
			<g>
				<g>
					<path style="fill:#FFFFFF;" d="M560.058,469.783l-307.84-0.513c-29.409-0.048-52.013,27.975-44.023,55.275l69.624,237.885
						c20.264,11.552,237.821,13.154,255.659,0.427l70.417-237.652C611.978,497.931,589.466,469.831,560.058,469.783z"/>
				</g>
				<g>
					<rect x="340.081" y="537.1" style="fill:#FFBAA3;" width="173.047" height="20.807"/>
				</g>
				<g>
					<rect x="340.081" y="597.524" style="fill:#FFBAA3;" width="173.047" height="20.807"/>
				</g>
				<g>
					<rect x="340.081" y="657.949" style="fill:#FFBAA3;" width="173.047" height="20.807"/>
				</g>
				<g>
					<path style="fill:#FF9F63;" d="M449.348,470.373l-0.216-1.104l-58.009,0.06l0.216,1.104
						c3.13,16.016,18.653,28.985,34.672,28.969l0,0C442.03,499.385,452.478,486.389,449.348,470.373z"/>
				</g>
				<g>
					<path style="fill:#FF6E3D;" d="M375.965,468.852c10.254,89.192,5.434,188.746-5.486,325.238
						c-57.746-0.021-82.128-3.226-93.615-10.196l-0.681-0.414l-69.857-253.493c-3.816-13.877-1.129-28.768,7.418-40.846
						c9.053-12.843,23.402-20.516,38.394-20.516L375.965,468.852z"/>
				</g>
				<g>
					<path style="fill:#FF6E3D;" d="M605.761,530.689l-59.476,253.143c0,0-29.833-0.508-77.261-0.011
						c4.473-116.107,14.661-214.627-6.598-314.845l97.64,0.185c14.991,0.041,29.36,7.735,38.394,20.62
						C606.969,501.922,609.636,516.833,605.761,530.689z"/>
				</g>
			</g>
			<g>
				<polygon style="fill:#27114F;" points="318.82,583.636 277.252,693.629 381.81,709.617 320.738,672.637 				"/>
			</g>
			<g>
				<g>
					<path style="fill:#FF6E3D;" d="M321.818,565.838c3.832-14.773,3.867-30.094,0.099-44.305
						c-6.826-25.742-24.95-44.735-48.482-50.808c-18.291-4.72-37.576-1.101-54.304,10.188
						c-16.727,11.29-28.895,28.899-34.261,49.585l-46.139,177.848c-3.833,14.773-3.867,30.094-0.099,44.305
						c6.825,25.741,24.95,44.734,48.482,50.806c37.757,9.743,77.488-17.069,88.565-59.772L321.818,565.838z"/>
				</g>
				<g>
					<g>
						<path style="fill:#FF9F63;" d="M209.117,674.936c44.597,4.557,177.627,24.607,177.627,24.607
							c17.695,2.451,32.934,12.496,41.441,27.714c20.715,35.375-9.021,79.462-50.047,78.518c0,0-135.052,1.089-180.036-0.27
							C120.115,803.149,122.342,666.068,209.117,674.936z"/>
					</g>
					<g>
						<path style="fill:#FF6E3D;" d="M345.767,689.264c8.134,35.242-2.62,102.73-10.283,120.888
							c-19.028,0.094-33.827,0.198-58.421,0.198c-37.431,0-64.043-0.229-79.086-0.687c-40.335-1.217-60.912-36.589-60.403-70.91
							c0.5-32.937,20.63-68.392,63.638-68.392c2.705,0,5.514,0.146,8.323,0.437C237.936,673.7,302.739,682.959,345.767,689.264z"/>
					</g>
				</g>
				<g>
					<g>
						<path style="fill:#FF9F63;" d="M345.316,803.162c7.392-31.153,15.617-62.775,12.541-107.848
							c28.639,0.135,67.761,0.251,97.361,42.804l-41.061,55.414C405.68,802.497,369.247,813.976,345.316,803.162z"/>
					</g>
					<g>
						<g>
							<path style="fill:#FF9F63;" d="M400.331,725.98l10.995-17.368c1.2-1.895,3.935-2.944,6.093-2.33
								c4.77,1.358,12.22,4.46,19.403,7.672c15.148,6.776,29.023,16.142,40.779,27.854c2.198,2.189,4.083,4.216,5.318,5.825
								c5.775,7.521,7.709,14.13,3.543,20.711l0,0c-4.166,6.581-12.498,9.243-19.459,4.372
								c-7.236-5.063-27.166-24.753-27.166-24.753l-38.319-16.705C399.731,730.128,399.201,727.765,400.331,725.98z"/>
						</g>
					</g>
					<g>
						<g>
							<path style="fill:#FF9F63;" d="M383.611,748.963l10.995-17.368c1.2-1.895,3.935-2.944,6.093-2.33
								c4.77,1.358,12.22,4.459,19.403,7.672c15.148,6.776,29.022,16.142,40.779,27.854c2.198,2.19,4.083,4.216,5.318,5.825
								c5.775,7.521,7.709,14.13,3.543,20.711v0c-4.166,6.581-12.499,9.243-19.46,4.372c-7.236-5.063-27.166-24.753-27.166-24.753
								l-38.319-16.705C383.012,753.11,382.481,750.747,383.611,748.963z"/>
						</g>
					</g>
					<g>
						<g>
							<path style="fill:#FF9F63;" d="M362.447,770.303l10.349-17.76c1.129-1.938,3.824-3.086,6.003-2.552
								c4.817,1.182,12.376,4.007,19.672,6.953c15.387,6.214,29.596,15.064,41.776,26.335c2.277,2.107,4.235,4.063,5.529,5.625
								c6.048,7.304,8.224,13.837,4.302,20.566l0,0c-3.921,6.73-12.15,9.696-19.285,5.085c-7.417-4.794-28.058-23.737-28.058-23.737
								l-38.908-15.285C362,774.47,361.383,772.128,362.447,770.303z"/>
						</g>
					</g>
					<g>
						<path style="fill:#27114F;" d="M469.228,775.211c-0.209,0-0.419-0.084-0.573-0.251c-8.697-9.403-23.872-22.934-38.167-31.968
							c-0.365-0.23-0.473-0.712-0.243-1.076c0.23-0.364,0.711-0.474,1.076-0.243c14.415,9.109,29.713,22.749,38.479,32.228
							c0.293,0.316,0.273,0.81-0.044,1.102C469.608,775.142,469.418,775.211,469.228,775.211z"/>
					</g>
					<g>
						<path style="fill:#27114F;" d="M451.488,796.027c-0.201,0-0.403-0.077-0.556-0.233c-12.152-12.327-24.473-22.36-38.778-31.574
							c-0.362-0.234-0.466-0.716-0.234-1.079c0.234-0.362,0.715-0.467,1.079-0.234c14.403,9.279,26.81,19.38,39.044,31.791
							c0.303,0.307,0.299,0.801-0.008,1.103C451.885,795.952,451.686,796.027,451.488,796.027z"/>
					</g>
				</g>
			</g>
			<g>
				<polygon style="fill:#27114F;" points="431.674,900.46 431.674,993.367 462.796,993.367 				"/>
			</g>
		</g>
	</g>
	<g>
		<g>
			<g>
				<path style="fill:#FF6E3D;" d="M1179.618,127.299c-7.676,62.612-4.891,132.136-31.809,177.778
					c-15.077,25.561-55.111,43.392-74.156,53.479c-22.821-13.146-58.659-30.337-74.178-57.377
					c-25.728-44.818-24.324-112.954-31.794-173.879c29.108-5.051,59.857,30.352,105.972,0
					C1112.024,155.423,1134.555,129.275,1179.618,127.299z"/>
			</g>
		</g>
		<g>
			<g>
				<path style="fill:#FFFFFF;" d="M1070.93,340.742c-21.222-11.833-47.634-26.561-59.149-46.623
					c-21.928-37.928-23.029-101.446-28.165-151.707c3.865,0.954,8.035,2.294,12.522,3.737c24.812,8.876,51.469,12.216,77.099-2.104
					c32.923,19.798,57.104,6.418,90.371-0.598c-5.049,51.654-5.298,116.82-28.017,154.42
					c-11.521,19.311-42.675,34.858-61.636,44.562C1072.962,341.876,1071.953,341.312,1070.93,340.742z"/>
			</g>
		</g>
		<g>
			<g>
				<path style="fill:#FF6E3D;" d="M1112.864,190.355c-14.919,20.836-29.838,41.673-44.757,62.508
					c-10.384-9.748-20.768-19.496-31.153-29.244c-6.254,7.96-12.509,15.921-18.764,23.882
					c17.609,11.644,35.217,23.288,52.827,34.932c22.478-24.153,44.957-48.307,67.435-72.461
					C1129.923,203.432,1121.393,196.894,1112.864,190.355z"/>
			</g>
		</g>
	</g>
	<g>
		<g>
			<g>
				<path style="fill:#FAB121;" d="M1149.961,633.182c0-5.184-6.171-7.901-9.99-4.391c-18.549,17.04-58.628,54.409-85.729,79.723
					c-10.225,9.539-18.599,17.369-23.282,21.745c-2.288,2.138-5.835,2.145-8.13,0.007c-4.691-4.362-13.086-12.17-23.325-21.695
					c-27.094-25.192-67.109-62.389-85.657-79.544c-3.811-3.532-10.004-0.822-10.004,4.376
					c-0.007,37.605-0.643,141.482,0.021,167.189c0,0.093,0.007,0.186,0.014,0.279c0.215,3.104,2.796,5.528,5.942,5.528h234.161
					c3.146,0,5.72-2.424,5.942-5.52c0.007-0.093,0.014-0.193,0.014-0.286C1150.604,774.836,1149.968,670.594,1149.961,633.182z"/>
			</g>
		</g>
		<g>
			<g>
				<path style="fill:#FFC31F;" d="M1054.243,708.514l-18.524-17.88c-4.92-4.749-12.718-4.749-17.638,0.001l-18.576,17.936
					l-95.625,92.3c0.215,3.104,2.796,5.528,5.942,5.528h234.161c3.146,0,5.72-2.424,5.942-5.52L1054.243,708.514z"/>
			</g>
		</g>
		<g>
			<g>
				<path style="fill:#FAB121;" d="M1071.068,724.771l-16.823,16.239l-18.522,17.89c-4.925,4.739-12.729,4.739-17.642-0.012
					l-18.571-17.927l-16.786-16.19l16.786-16.202l18.571-17.927c4.913-4.751,12.716-4.751,17.642-0.012l18.522,17.89
					L1071.068,724.771z"/>
			</g>
		</g>
		<g>
			<g>
				<path style="fill:#FFC31F;" d="M1054.243,725.095l-18.524,17.88c-4.92,4.749-12.718,4.749-17.638-0.001l-18.576-17.936
					l-95.625-92.3c0.214-3.104,2.796-5.528,5.942-5.528l234.161,0c3.146,0,5.72,2.424,5.942,5.52L1054.243,725.095z"/>
			</g>
		</g>
	</g>
	<g>
		<path style="fill:#27114F;" d="M1278.964,807.959H85.035c-0.862,0-1.561-0.699-1.561-1.56c0-0.862,0.699-1.56,1.561-1.56h1193.929
			c0.862,0,1.561,0.699,1.561,1.56C1280.525,807.26,1279.826,807.959,1278.964,807.959z"/>
	</g>
	<g>
		<g>
			<path style="fill:#7075EB;" d="M354.685,268.584H179.462c-6.738,0-12.199,5.453-12.2,12.191c0,23.508,0,74.856,0,98.364
				c0,6.738,5.462,12.191,12.2,12.191h175.222c6.738,0,12.2-5.462,12.2-12.199v-98.347
				C366.885,274.046,361.423,268.584,354.685,268.584z"/>
		</g>
		<g>
			<polygon style="fill:#7075EB;" points="313.276,372.289 366.885,425.604 366.885,349.997 			"/>
		</g>
		<g>
			<rect x="189.512" y="322.401" style="fill:#FFFFFF;" width="156.978" height="12.855"/>
		</g>
		<g>
			<rect x="189.512" y="349.099" style="fill:#FFFFFF;" width="156.978" height="12.855"/>
		</g>
		<g>
			
				<ellipse transform="matrix(0.2298 -0.9732 0.9732 0.2298 -135.3508 419.485)" style="fill:#FFFFFF;" cx="197.345" cy="295.254" rx="7.833" ry="7.833"/>
		</g>
		<g>
			
				<ellipse transform="matrix(0.7071 -0.7071 0.7071 0.7071 -143.1008 245.032)" style="fill:#FFFFFF;" cx="224.229" cy="295.254" rx="7.833" ry="7.833"/>
		</g>
	</g>
	<g>
		<g>
			<g>
				<g>
					<g>
						<g>
							<g>
								<path style="fill:#FFC31F;" d="M802.197,127.754c5.489-1.642,9.775-7.461,10.985-14.912l0.66-4.066l0.66,4.066
									c1.21,7.451,5.496,13.27,10.985,14.912l2.996,0.896l-2.996,0.896c-5.488,1.642-9.775,7.461-10.985,14.912l-0.66,4.066
									l-0.66-4.066c-1.21-7.451-5.496-13.27-10.985-14.912l-2.995-0.896L802.197,127.754z"/>
							</g>
						</g>
					</g>
				</g>
			</g>
		</g>
		<g>
			<g>
				<g>
					<path style="fill:#FF6E3D;" d="M1221.778,745.84c5.489-1.642,9.775-7.461,10.985-14.912l0.66-4.066l0.66,4.066
						c1.21,7.451,5.496,13.27,10.985,14.912l2.995,0.896l-2.995,0.896c-5.489,1.642-9.775,7.461-10.985,14.912l-0.66,4.066
						l-0.66-4.066c-1.21-7.451-5.496-13.27-10.985-14.912l-2.995-0.896L1221.778,745.84z"/>
				</g>
			</g>
		</g>
		<g>
			<g>
				<g>
					<path style="fill:#7075EB;" d="M92.239,662.869c5.489-1.642,9.775-7.461,10.985-14.912l0.66-4.066l0.66,4.066
						c1.21,7.451,5.496,13.27,10.985,14.912l2.995,0.896l-2.995,0.896c-5.489,1.642-9.775,7.461-10.985,14.912l-0.66,4.066
						l-0.66-4.066c-1.21-7.451-5.496-13.27-10.985-14.912l-2.995-0.896L92.239,662.869z"/>
				</g>
			</g>
		</g>
		<g>
			<g>
				<g>
					<g>
						<g>
							<g>
								<path style="fill:#FF6E3D;" d="M324.109,188.56c5.489-1.642,9.775-7.461,10.985-14.912l0.66-4.066l0.66,4.066
									c1.21,7.451,5.496,13.27,10.985,14.912l2.995,0.896l-2.995,0.896c-5.489,1.642-9.775,7.461-10.985,14.912l-0.66,4.066
									l-0.66-4.066c-1.21-7.451-5.496-13.27-10.985-14.912l-2.995-0.896L324.109,188.56z"/>
							</g>
						</g>
					</g>
				</g>
			</g>
		</g>
		<g>
			<g>
				<g>
					<g>
						<g>
							<g>
								<path style="fill:#FFC31F;" d="M118.093,453.601c8.097-2.423,14.421-11.007,16.205-21.999l0.974-5.999l0.974,5.999
									c1.785,10.992,8.108,19.576,16.205,21.999l4.419,1.322l-4.419,1.322c-8.097,2.423-14.421,11.007-16.205,21.999l-0.974,5.999
									l-0.974-5.999c-1.785-10.992-8.108-19.576-16.205-21.999l-4.419-1.322L118.093,453.601z"/>
							</g>
						</g>
					</g>
				</g>
			</g>
		</g>
		<g>
			<g>
				<g>
					<g>
						<g>
							<g>
								<g>
									<path style="fill:#7075EB;" d="M1165.932,413.103c8.097-2.422,14.421-11.007,16.205-21.999l0.974-5.999l0.974,5.999
										c1.784,10.992,8.108,19.576,16.205,21.999l4.419,1.322l-4.419,1.322c-8.097,2.423-14.421,11.007-16.205,21.999
										l-0.974,5.999l-0.974-5.999c-1.785-10.992-8.108-19.576-16.205-21.999l-4.419-1.322L1165.932,413.103z"/>
								</g>
							</g>
						</g>
					</g>
				</g>
			</g>
		</g>
	</g>
	<g>
		<path style="fill:#27114F;" d="M136.174,323.386c-12.398,0-25.133-7.29-31.975-18.666c-6.933-11.526-8.179-26.791-3.334-40.834
			c4.267-12.366,12.952-23.746,25.118-32.908c3.985-3,8.255-5.705,12.385-8.319c4.537-2.873,9.229-5.843,13.506-9.19
			c0.805-0.63,1.634-1.309,2.472-2.033c-5.368-1.342-10.219-3.798-14.118-7.239c-7.924-6.995-11.314-18.296-8.242-27.483
			c3.351-10.023,14.683-16.447,24.251-13.741c11.142,3.146,16.198,16.055,14.493,26.211c-1.224,7.286-5.316,14.447-11.947,20.993
			c2.989,0.411,6.104,0.48,9.268,0.182c8.42-0.79,17.391-4.12,26.663-9.897c2.485-1.548,4.965-3.245,7.365-4.887
			c6.244-4.272,12.701-8.689,20.046-11.078c14.492-4.713,31.332-0.506,41.903,10.47c0.399,0.413,0.387,1.072-0.027,1.471
			c-0.411,0.397-1.07,0.387-1.47-0.028c-10.033-10.415-26.014-14.409-39.762-9.934c-7.062,2.296-13.392,6.627-19.515,10.816
			c-2.417,1.654-4.916,3.364-7.438,4.936c-9.55,5.949-18.825,9.382-27.569,10.204c-3.901,0.364-7.733,0.203-11.37-0.452
			c-1.172,1.062-2.412,2.104-3.719,3.127c-4.358,3.412-9.095,6.411-13.675,9.31c-4.095,2.593-8.33,5.274-12.246,8.223
			c-11.833,8.912-20.271,19.951-24.402,31.925c-4.646,13.467-3.468,28.079,3.15,39.083c7.139,11.868,21.025,19.036,33.76,17.437
			c0.58-0.064,1.09,0.333,1.162,0.902c0.072,0.57-0.332,1.09-0.902,1.162C138.734,323.308,137.456,323.386,136.174,323.386z
			 M151.627,164.425c-7.472,0-15.12,5.321-17.671,12.949c-2.813,8.416,0.331,18.804,7.647,25.262
			c3.977,3.512,9.031,5.93,14.629,7.099c5.517-5.174,10.996-12.282,12.442-20.897c1.564-9.309-3.29-21.12-13.005-23.864
			C154.349,164.602,152.992,164.425,151.627,164.425z"/>
	</g>
	<g>
		<path style="fill:#27114F;" d="M414.85,768.076h112.627l28.042-155.099c0.529-2.923,3.073-5.05,6.044-5.05h211.714
			c3.83,0,6.726,3.467,6.045,7.236l-33.663,186.185c-0.528,2.924-3.073,5.049-6.044,5.049H728.47
			c-72.141-0.004-243.376,0.003-313.619,0c-2.841,0-5.143-2.303-5.143-5.143v-28.036
			C409.707,770.379,412.009,768.076,414.85,768.076z"/>
	</g>
</g>
</svg>
