<?xml version="1.0" encoding="utf-8"?>
<!-- Generator: Adobe Illustrator 27.5.0, SVG Export Plug-In . SVG Version: 6.00 Build 0)  -->
<svg version="1.1" xmlns="http://www.w3.org/2000/svg" xmlns:xlink="http://www.w3.org/1999/xlink" x="0px" y="0px"
	 viewBox="0 0 2500 2500" style="enable-background:new 0 0 2500 2500;" xml:space="preserve">
<g id="Background">
	<rect style="fill:#FFFFFF;" width="2500" height="2500"/>
</g>
<g id="Illustration">
	<g id="Self_isolation_1_">
		<g>
			<g>
				<polygon style="fill:#FFFFFF;" points="1816.926,340.588 2160.844,522.646 2160.844,1192.296 1473.874,1192.296 
					1473.874,522.646 				"/>
				<polygon style="fill:#FED101;" points="1954.567,428.868 2021.769,463.406 2021.769,335 1954.567,335 				"/>
				<rect x="1299.924" y="522.877" style="fill:#FFFFFF;" width="175.883" height="669.419"/>
				<polygon style="fill:#FED101;" points="1819.664,340.822 1475.637,523.351 1475.637,550.183 1819.648,369.895 2164.327,550.753 
					2164.327,523.921 				"/>
				<polygon style="fill:#FFFFFF;" points="1301.162,523.163 1642.832,341.562 1816.672,341.562 1475.002,523.163 				"/>
				<path d="M1475.001,525.372h-173.839c-1.014,0-1.899-0.69-2.144-1.674c-0.246-0.986,0.211-2.011,1.107-2.486l341.67-181.601
					c0.319-0.17,0.675-0.259,1.037-0.259h173.839c1.014,0,1.899,0.69,2.144,1.674c0.246,0.986-0.211,2.011-1.107,2.486
					l-341.67,181.601C1475.719,525.284,1475.363,525.372,1475.001,525.372z M1310.028,520.953h164.422l333.356-177.182h-164.422
					L1310.028,520.953z"/>
				<path d="M1475.806,1194.506h-175.882c-1.22,0-2.21-0.988-2.21-2.21V522.878c0-1.221,0.989-2.21,2.21-2.21h175.882
					c1.22,0,2.21,0.988,2.21,2.21v669.418C1478.016,1193.517,1477.026,1194.506,1475.806,1194.506z M1302.133,1190.086h171.463
					V525.088h-171.463V1190.086z"/>
				<path d="M2162.708,1194.506h-686.969c-1.22,0-2.21-0.988-2.21-2.21V522.647c0-1.221,0.989-2.21,2.21-2.21
					c1.22,0,2.21,0.988,2.21,2.21v667.439h682.55V552.38l-342.741-181.437c-1.079-0.572-1.49-1.908-0.919-2.986
					c0.57-1.077,1.909-1.493,2.987-0.919l343.917,182.058c0.724,0.382,1.176,1.135,1.176,1.953v641.247
					C2164.917,1193.517,2163.928,1194.506,2162.708,1194.506z"/>
			</g>
			<g>
				<circle style="fill:#8C7BFF;" cx="1772.403" cy="814.575" r="338.638"/>
				<path d="M2048.211,1013.306c-0.129,0-0.26-0.011-0.393-0.034c-88.872-15.949-182.897-24.035-279.461-24.035
					c-93.911,0-185.518,7.658-272.28,22.766c-1.209,0.203-2.347-0.598-2.556-1.797c-0.209-1.204,0.596-2.348,1.799-2.557
					c87.01-15.148,178.873-22.83,273.038-22.83c96.825,0,191.112,8.109,280.242,24.104c1.201,0.216,2,1.364,1.785,2.566
					C2050.192,1012.555,2049.261,1013.306,2048.211,1013.306z"/>
				<path d="M1775.55,643.717c-96.38,0-190.269-8.038-279.059-23.894c-1.201-0.214-2.001-1.362-1.787-2.564
					c0.214-1.202,1.348-2.018,2.564-1.787c88.535,15.809,182.162,23.825,278.283,23.825c93.901,0,185.51-7.66,272.28-22.768
					c1.209-0.196,2.346,0.598,2.556,1.798c0.209,1.204-0.595,2.348-1.799,2.557C1961.568,636.035,1869.705,643.717,1775.55,643.717z
					"/>
				<path d="M1772.403,1155.422c-141.666,0-256.92-152.903-256.92-340.846c0-187.945,115.254-340.848,256.92-340.848
					s256.921,152.903,256.921,340.848C2029.323,1002.519,1914.069,1155.422,1772.403,1155.422z M1772.403,478.147
					c-139.229,0-252.5,150.922-252.5,336.429s113.272,336.427,252.5,336.427c139.23,0,252.501-150.92,252.501-336.427
					S1911.632,478.147,1772.403,478.147z"/>
				<path d="M1772.403,1155.422c-29.44,0-56.883-35.773-77.274-100.732c-20.143-64.169-31.236-149.442-31.236-240.114
					s11.094-175.947,31.236-240.116c20.391-64.959,47.834-100.732,77.274-100.732s56.884,35.773,77.275,100.732
					c20.143,64.169,31.236,149.444,31.236,240.116s-11.094,175.945-31.236,240.114
					C1829.287,1119.649,1801.843,1155.422,1772.403,1155.422z M1772.403,478.147c-26.952,0-53.58,35.588-73.057,97.638
					c-20.012,63.75-31.034,148.555-31.034,238.791c0,90.234,11.021,175.039,31.034,238.791
					c19.477,62.048,46.105,97.635,73.057,97.635c26.952,0,53.58-35.588,73.058-97.635c20.012-63.753,31.034-148.557,31.034-238.791
					c0-90.236-11.021-175.041-31.034-238.791C1825.983,513.735,1799.355,478.147,1772.403,478.147z"/>
				<path d="M2111.041,816.786h-677.277c-1.22,0-2.21-0.988-2.21-2.21c0-1.221,0.989-2.21,2.21-2.21h677.277
					c1.22,0,2.21,0.988,2.21,2.21C2113.251,815.797,2112.261,816.786,2111.041,816.786z"/>
			</g>
		</g>
		<g>
			<path d="M1647.007,1615.969l-6.317,108.113c-0.966,16.532,12.18,30.469,28.74,30.469c16.693,0,29.886-14.151,28.719-30.803
				l-7.557-107.778H1647.007z"/>
			<path style="fill:#FED101;" d="M1319.614,1884.7h323.788v-252.121h-150.774c-95.553,0-173.014,77.461-173.014,173.014V1884.7z"/>
			<path style="fill:#FED101;" d="M1683.475,1884.7H1566.16v-58.604h117.315c15.147,0,27.426,12.279,27.426,27.426v3.751
				C1710.901,1872.421,1698.622,1884.7,1683.475,1884.7z"/>
			<path style="fill:#FED101;" d="M1279.342,1768.666h11.093c9.556,0,17.303,7.748,17.303,17.303
				c0,9.556-7.748,17.303-17.303,17.303h-11.093c-11.31,0-20.511,9.201-20.511,20.511v5.799c0,11.31,9.201,20.511,20.511,20.511
				h47.371c9.556,0,17.303,7.748,17.303,17.303c0,9.556-7.748,17.303-17.303,17.303h-47.371c-30.392,0-55.118-24.726-55.118-55.118
				v-5.799C1224.225,1793.392,1248.95,1768.666,1279.342,1768.666z"/>
			<path d="M1544.447,1886.305c-1.22,0-2.21-0.988-2.21-2.21s0.989-2.21,2.21-2.21c13.98,0,25.353-11.348,25.353-25.299v-3.479
				c0-13.979-11.373-25.353-25.353-25.353h-66.398c-1.22,0-2.21-0.988-2.21-2.21v-33.961c0-40.695-33.107-73.804-73.803-73.804
				c-1.22,0-2.21-0.988-2.21-2.21s0.99-2.21,2.21-2.21c43.132,0,78.222,35.091,78.222,78.223v31.751h64.188
				c16.416,0,29.772,13.355,29.772,29.772v3.479C1574.22,1872.974,1560.864,1886.305,1544.447,1886.305z"/>
			<g>
				
					<ellipse transform="matrix(0.9732 -0.2298 0.2298 0.9732 -330.4331 421.475)" style="fill:#FED101;" cx="1644.716" cy="1629.711" rx="59.246" ry="59.246"/>
				<path style="fill:#FED101;" d="M1632.076,1688.957h62.78c23.579,0,42.694-19.115,42.694-42.694
					c0-7.557-6.126-13.683-13.683-13.683h-91.791V1688.957z"/>
				<path d="M1609.513,1756.761c-8.624,0-16.632-3.455-22.55-9.728c-5.918-6.275-8.9-14.471-8.397-23.081l6.317-108.112
					c0.072-1.217,1.136-2.115,2.335-2.076c1.219,0.071,2.148,1.116,2.078,2.335l-6.317,108.112c-0.432,7.382,2.125,14.41,7.2,19.788
					c5.073,5.38,11.941,8.342,19.335,8.342c7.453,0,14.357-3.002,19.439-8.455c5.084-5.451,7.596-12.548,7.075-19.984
					l-7.557-107.778c-0.085-1.219,0.832-2.274,2.05-2.359c1.199-0.123,2.273,0.833,2.359,2.048l7.557,107.778
					c0.608,8.672-2.322,16.95-8.251,23.309C1626.257,1753.259,1618.205,1756.761,1609.513,1756.761z"/>
			</g>
		</g>
		<g>
			<rect x="335.648" y="1162.515" style="fill:#8C7BFF;" width="826.905" height="55.226"/>
			<path style="fill:#8C7BFF;" d="M1088.442,1165.003H411.309c-1.22,0-2.21-0.988-2.21-2.21V361.542c0-1.221,0.989-2.21,2.21-2.21
				h677.132c1.22,0,2.21,0.988,2.21,2.21v801.252C1090.651,1164.015,1089.662,1165.003,1088.442,1165.003z M413.519,1160.584
				h672.713V363.751H413.519V1160.584z"/>
			<path style="fill:#8C7BFF;" d="M762.745,1165.003h-25.739c-1.22,0-2.21-0.988-2.21-2.21V777.247H411.309
				c-1.22,0-2.21-0.988-2.21-2.21v-25.739c0-1.221,0.989-2.21,2.21-2.21h323.487V361.544c0-1.221,0.989-2.21,2.21-2.21h25.739
				c1.22,0,2.21,0.988,2.21,2.21v385.544h323.487c1.22,0,2.21,0.988,2.21,2.21v25.739c0,1.221-0.989,2.21-2.21,2.21H764.955v385.547
				C764.955,1164.015,763.965,1165.003,762.745,1165.003z M739.216,1160.584h21.32V775.037c0-1.221,0.989-2.21,2.21-2.21h323.487
				v-21.32H762.745c-1.22,0-2.21-0.988-2.21-2.21V363.754h-21.32v385.544c0,1.221-0.989,2.21-2.21,2.21H413.519v21.32h323.487
				c1.22,0,2.21,0.988,2.21,2.21V1160.584z"/>
		</g>
		<g>
			<g>
				<g>
					<path style="fill:#8C7BFF;" d="M1617.209,2162.791h-351.451c-12.4,0-21.177-12.12-17.308-23.901
						c6.679-20.34,26.535-33.36,47.851-31.377l338.24,31.454C1638.348,2150.733,1629.575,2162.791,1617.209,2162.791z"/>
					<path d="M1617.209,2165h-351.451c-6.627,0-12.657-3.077-16.544-8.446c-3.886-5.367-4.931-12.056-2.864-18.353
						c7.046-21.456,27.659-34.979,50.157-32.891l338.24,31.456c0.879,0.082,1.626,0.68,1.898,1.521
						c2.034,6.288,0.97,12.958-2.919,18.303C1629.838,2161.936,1623.818,2165,1617.209,2165z M1291.955,2109.519
						c-18.771,0-35.442,11.903-41.405,30.059c-1.621,4.935-0.803,10.179,2.244,14.385c3.046,4.206,7.772,6.618,12.965,6.618h351.451
						c5.179,0,9.897-2.402,12.944-6.59c2.764-3.8,3.706-8.455,2.668-12.965l-336.724-31.313
						C1294.709,2109.583,1293.325,2109.519,1291.955,2109.519z"/>
					<path style="fill:#FDA4FF;" d="M1555.399,2131.499h-216.906c-57.873,0-92.073-64.845-59.389-112.606l0-224.45h141.439v218.704
						l134.856,52.681V2131.499z"/>
					<path d="M1555.399,2133.708h-216.906c-28.014,0-52.54-14.792-65.608-39.571c-12.961-24.576-11.452-52.905,4.009-75.921
						v-223.772c0-1.221,0.989-2.21,2.21-2.21h141.439c1.22,0,2.21,0.988,2.21,2.21v217.195l133.45,52.13
						c0.848,0.332,1.406,1.148,1.406,2.059v65.671C1557.608,2132.72,1556.619,2133.708,1555.399,2133.708z M1281.313,1796.654
						v222.24c0,0.445-0.135,0.88-0.386,1.247c-14.878,21.741-16.424,48.632-4.133,71.933c12.289,23.303,35.355,37.215,61.699,37.215
						h214.696v-61.953l-133.45-52.13c-0.848-0.332-1.406-1.148-1.406-2.059v-216.494H1281.313z"/>
					<polygon points="1420.543,1853.067 1279.104,1881.965 1279.104,1794.443 1420.543,1794.443 					"/>
					<path style="fill:#8C7BFF;" d="M1634.542,2138.967h-201.473V2026.57c0-12.247,10.807-21.327,22.165-18.623
						C1538.255,2027.711,1604.558,2076.159,1634.542,2138.967z"/>
					<path d="M1634.542,2141.177h-201.473c-1.22,0-2.21-0.988-2.21-2.21V2026.57c0-6.741,2.951-12.941,8.096-17.004
						c4.801-3.793,10.921-5.166,16.789-3.768c83.129,19.79,150.715,69.216,180.791,132.218c0.327,0.684,0.28,1.489-0.125,2.13
						C1636.006,2140.789,1635.301,2141.177,1634.542,2141.177z M1435.279,2136.758h195.722
						c-30.238-60.3-95.835-107.51-176.278-126.661c-4.543-1.083-9.293-0.011-13.027,2.937c-4.077,3.222-6.417,8.155-6.417,13.536
						V2136.758z"/>
					
						<ellipse transform="matrix(0.1602 -0.9871 0.9871 0.1602 -719.8861 3191.3125)" style="fill:#FED101;" cx="1515.526" cy="2018.719" rx="42.262" ry="42.262"/>
					<path d="M1515.526,2063.191c-24.522,0-44.472-19.95-44.472-44.472c0-24.522,19.95-44.472,44.472-44.472
						c24.522,0,44.472,19.95,44.472,44.472C1559.998,2043.241,1540.048,2063.191,1515.526,2063.191z M1515.526,1978.667
						c-22.085,0-40.052,17.967-40.052,40.052s17.968,40.052,40.052,40.052s40.052-17.966,40.052-40.052
						S1537.611,1978.667,1515.526,1978.667z"/>
				</g>
				<g>
					<path d="M1057.404,2159.19L740.84,2006.532c-11.169-5.386-13.81-20.115-5.208-29.046c14.851-15.42,38.391-18.523,56.731-7.478
						l291.003,175.252C1081.682,2157.511,1068.543,2164.561,1057.404,2159.19z"/>
					<path style="fill:#FDA4FF;" d="M1015.322,2104.156l-195.375-94.216c-52.129-25.138-54.767-98.402-4.582-127.224
						l155.288-130.889l127.399,61.436L945.26,1938.975l98.587,106.028L1015.322,2104.156z"/>
					<path d="M1015.322,2106.366c-0.329,0-0.657-0.073-0.96-0.22l-195.376-94.218c-25.232-12.166-40.898-36.144-41.906-64.141
						c-1.005-27.927,12.827-52.918,37.012-66.89l155.138-130.761c0.666-0.563,1.598-0.682,2.385-0.3l127.398,61.435
						c0.679,0.326,1.144,0.978,1.233,1.726c0.091,0.749-0.207,1.491-0.79,1.97l-150.978,124.221l96.988,104.31
						c0.619,0.667,0.767,1.644,0.372,2.464l-28.525,59.154c-0.255,0.527-0.709,0.932-1.262,1.126
						C1015.814,2106.325,1015.568,2106.366,1015.322,2106.366z M970.983,1754.439l-154.194,129.965
						c-0.101,0.084-0.209,0.162-0.324,0.227c-22.844,13.12-35.918,36.671-34.97,62.999c0.948,26.326,15.681,48.876,39.41,60.319
						l193.385,93.257l26.91-55.805l-97.56-104.923c-0.414-0.444-0.627-1.042-0.586-1.651c0.04-0.609,0.33-1.172,0.801-1.56
						l150.123-123.517L970.983,1754.439z"/>
					<polygon points="1040.03,1861.001 925.048,1790.265 1000.86,1730.334 1087.135,1822.017 					"/>
					<path style="fill:#8C7BFF;" d="M1083.365,2145.26l-181.474-87.512l48.821-101.24c5.319-11.031,18.998-14.516,28.054-7.147
						C1044.961,2003.224,1083.639,2075.662,1083.365,2145.26z"/>
					
						<ellipse transform="matrix(0.9441 -0.3298 0.3298 0.9441 -597.1583 450.1957)" style="fill:#FED101;" cx="1028.395" cy="1985.251" rx="42.262" ry="42.262"/>
				</g>
				<g>
					<polygon style="fill:#8C7BFF;" points="1127.021,1591.557 956.675,1745.45 1089.35,1888.759 1297.65,1690.842 
						1224.056,1613.954 					"/>
					<path d="M1224.056,1613.954l-97.036-22.397l-76.577,69.18c15.568,7.291,35.9,11.528,63.543,6.338
						c20.267-3.805,44.261-11.994,58.025,17.06c13.284,28.041,45.038,41.71,84.075,46.199l41.563-39.492L1224.056,1613.954z"/>
				</g>
				<g>
					<path style="fill:#8C7BFF;" d="M792.397,1410.164l0.347,76.223c0.328,72.039,58.82,130.265,130.859,130.265h299.541v232.588
						h221.675l-0.733-308.423c-0.114-72.191-58.669-130.653-130.86-130.653H792.397z"/>
					<path d="M1221.219,1619.367c-0.612,0-1.22-0.252-1.657-0.747c-0.808-0.915-0.722-2.311,0.193-3.118l52.838-46.692
						c0.914-0.809,2.31-0.723,3.119,0.192c0.808,0.915,0.722,2.311-0.193,3.118l-52.838,46.692
						C1222.262,1619.183,1221.739,1619.367,1221.219,1619.367z"/>
					<path d="M1444.82,1851.451h-221.675c-1.22,0-2.21-0.988-2.21-2.21v-230.38H923.603c-73.042,0-132.737-59.424-133.069-132.464
						l-0.272-59.814c-0.005-1.221,0.98-2.214,2.2-2.221c0.003,0,0.007,0,0.01,0c1.216,0,2.204,0.982,2.21,2.199l0.272,59.814
						c0.321,70.617,58.033,128.066,128.65,128.066h299.542c1.22,0,2.21,0.988,2.21,2.21v230.38h217.25l-0.727-306.21
						c-0.073-46.61-25.452-89.647-66.231-112.318c-1.067-0.593-1.451-1.938-0.858-3.006c0.592-1.066,1.938-1.454,3.005-0.857
						c42.178,23.448,68.426,67.963,68.503,116.172l0.733,308.424c0.001,0.587-0.231,1.15-0.645,1.564
						C1445.97,1851.218,1445.407,1851.451,1444.82,1851.451z"/>
				</g>
			</g>
			<g>
				<g>
					<path style="fill:#FDA4FF;" d="M1131.56,840.276l2.909,19.775c1.706,11.595,6.002,22.657,12.569,32.364l8.782,12.982
						c6.522,9.641,11.374,20.304,14.304,31.569c2.76,10.612,8.839,25.45,23.051,38.905l40.643,38.477l-17.395-118.237l-27.07-28.065
						c-8.006-8.3-13.213-18.898-14.892-30.308l-0.543-3.693c-1.658-11.269-12.137-19.06-23.406-17.402l-1.551,0.228
						C1137.693,818.528,1129.902,829.007,1131.56,840.276z"/>
					<path style="fill:#FDA4FF;" d="M1221.645,990.222v90.318h101.683v-41.334l5.451-7.728c5.131-7.276,7.886-15.961,7.886-24.864
						v-16.391H1221.645z"/>
					<polygon points="1323.328,1057.035 1221.645,1066.77 1221.645,1080.54 1323.328,1080.54 					"/>
					<g>
						<polygon style="fill:#FFFFFF;" points="1302.171,1020.646 1205.189,1020.646 1161.96,762.376 1345.4,762.376 						"/>
					</g>
					<path style="fill:#FDA4FF;" d="M1273.938,808.485h16.969c10.596,0,20.758,4.209,28.251,11.702l25.103,25.104
						c4.487,4.487,7.007,10.572,7.007,16.917v1.679c0,6.345-2.52,12.43-7.007,16.917l-5.102,5.103l-29.574-29.574
						c-7.52-7.52-17.719-11.745-28.354-11.745h-7.294c-9.443,0-17.098-7.655-17.098-17.098v-1.907
						C1256.84,816.14,1264.495,808.485,1273.938,808.485z"/>
					<path d="M1339.16,888.115c-0.565,0-1.131-0.216-1.562-0.647l-29.574-29.574c-7.158-7.155-16.672-11.096-26.791-11.096h-7.294
						c-10.646,0-19.308-8.662-19.308-19.309v-1.905c0-10.647,8.662-19.309,19.308-19.309h16.969c11.262,0,21.85,4.385,29.813,12.35
						l25.104,25.105c4.936,4.935,7.655,11.497,7.655,18.478v1.679c0,6.983-2.719,13.545-7.655,18.48l-5.102,5.101
						C1340.29,887.899,1339.725,888.115,1339.16,888.115z M1273.939,810.694c-8.21,0-14.888,6.679-14.888,14.889v1.905
						c0,8.211,6.679,14.889,14.888,14.889h7.294c11.3,0,21.923,4.4,29.916,12.391l28.012,28.011l3.54-3.539
						c4.101-4.1,6.36-9.555,6.36-15.355v-1.679c0-5.8-2.259-11.253-6.36-15.353l-25.104-25.105
						c-7.129-7.13-16.607-11.055-26.689-11.055H1273.939z"/>
					<path style="fill:#FDA4FF;" d="M1242.443,844.361h38.667c10.596,0,20.759,4.209,28.251,11.702l24.988,24.988
						c4.561,4.56,7.123,10.746,7.123,17.196v1.352c0,6.45-2.562,12.635-7.123,17.196l-4.987,4.987l-41.228-41.228h-45.692
						c-9.583,0-17.351-7.768-17.351-17.351v-1.491C1225.092,852.129,1232.86,844.361,1242.443,844.361z"/>
					<path style="fill:#FDA4FF;" d="M1254.337,878.83h26.774c10.596,0,20.759,4.209,28.251,11.702l25.03,25.03
						c4.534,4.534,7.081,10.683,7.081,17.095v1.47c0,6.412-2.547,12.561-7.081,17.095l-6.435,6.435l-41.59-42.724h-32.03
						c-9.438,0-17.089-7.651-17.089-17.09v-1.923C1237.247,886.482,1244.898,878.83,1254.337,878.83z"/>
					<path style="fill:#955B50;" d="M1221.498,1022.855c-1.22,0-2.21-0.988-2.21-2.21v-17.011l-22.262-21.076
						c-0.886-0.839-0.925-2.238-0.085-3.125c0.838-0.887,2.239-0.921,3.124-0.086l22.952,21.73c0.441,0.419,0.691,0.999,0.691,1.605
						v17.962C1223.707,1021.867,1222.718,1022.855,1221.498,1022.855z"/>
					<path style="fill:#FDA4FF;" d="M1336.71,986.089v26.266h-14.977c-14.539,0-26.325-11.786-26.325-26.325v-12.534l-27.18-27.18
						c-6.146-6.146-9.598-14.481-9.598-23.172v-1.768c0-7.291,5.911-13.202,13.202-13.202h1.948c3.492,0,6.842,1.383,9.316,3.848
						l38.965,38.805C1331.439,960.166,1336.71,972.855,1336.71,986.089z"/>
					<path d="M1334.349,919.005c-0.565,0-1.131-0.216-1.562-0.647c-0.863-0.863-0.863-2.261,0-3.125
						c4.175-4.178,6.476-9.73,6.476-15.634v-1.353c0-5.906-2.3-11.456-6.476-15.632l-24.988-24.988
						c-7.127-7.13-16.605-11.055-26.689-11.055h-38.667c-8.349,0-15.142,6.793-15.142,15.142v1.489
						c0,8.349,6.793,15.142,15.142,15.142h10.043c1.22,0,2.21,0.988,2.21,2.21c0,1.221-0.989,2.21-2.21,2.21h-10.043
						c-10.786,0-19.561-8.776-19.561-19.561v-1.489c0-10.785,8.775-19.561,19.561-19.561h38.667c11.264,0,21.852,4.385,29.813,12.35
						l24.988,24.988c5.011,5.008,7.771,11.67,7.771,18.756v1.353c0,7.084-2.76,13.746-7.771,18.758
						C1335.48,918.789,1334.915,919.005,1334.349,919.005z"/>
					<path d="M1323.328,1082.749h-101.831c-1.22,0-2.21-0.988-2.21-2.21v-59.894c0-1.221,0.989-2.21,2.21-2.21s2.21,0.988,2.21,2.21
						v57.685h97.411v-39.125c0-0.455,0.141-0.902,0.403-1.273l5.451-7.727c4.895-6.942,7.483-15.099,7.483-23.592l0.045-20.528
						c0-12.55-5.102-24.831-13.998-33.691l-38.965-38.805c-2.074-2.067-4.828-3.204-7.756-3.204h-1.948
						c-6.062,0-10.992,4.931-10.992,10.992v1.77c0,8.163,3.179,15.837,8.951,21.609l27.18,27.181
						c0.414,0.414,0.647,0.975,0.647,1.562v12.533c0,13.297,10.819,24.114,24.115,24.114c1.22,0,2.21,0.988,2.21,2.21
						c0,1.221-0.989,2.21-2.21,2.21c-15.734,0-28.535-12.801-28.535-28.534v-11.618l-26.532-26.533
						c-6.607-6.607-10.246-15.39-10.246-24.734v-1.77c0-8.498,6.914-15.412,15.412-15.412h1.948c4.105,0,7.967,1.595,10.875,4.493
						l38.965,38.803c9.723,9.685,15.299,23.109,15.299,36.828l-0.045,20.528c0,9.406-2.867,18.443-8.29,26.134l-5.047,7.156v40.633
						C1325.538,1081.761,1324.548,1082.749,1323.328,1082.749z"/>
					<path d="M1198.545,983.163c-0.546,0-1.092-0.201-1.519-0.604l-5.37-5.082c-11.689-11.068-19.653-24.511-23.671-39.955
						c-2.859-10.992-7.568-21.385-13.995-30.886l-8.783-12.982c-6.712-9.924-11.182-21.432-12.925-33.281l-2.909-19.775
						c-1.833-12.455,6.81-24.08,19.267-25.914l1.549-0.229c12.469-1.813,24.082,6.812,25.915,19.268l0.543,3.692
						c0.315,2.141,0.765,4.281,1.338,6.359c0.325,1.176-0.366,2.393-1.543,2.717c-1.177,0.326-2.393-0.369-2.717-1.543
						c-0.621-2.253-1.109-4.57-1.45-6.89l-0.543-3.692c-1.478-10.045-10.849-17.021-20.899-15.539l-1.549,0.229
						c-10.047,1.48-17.017,10.854-15.539,20.899l2.909,19.775c1.648,11.195,5.871,22.071,12.213,31.447l8.783,12.982
						c6.711,9.92,11.627,20.77,14.612,32.25c3.806,14.633,11.354,27.369,22.432,37.858l5.37,5.082
						c0.886,0.839,0.925,2.238,0.086,3.125C1199.716,982.932,1199.131,983.163,1198.545,983.163z"/>
					<path style="fill:#955B50;" d="M1237.247,898.319h-3.267c-11.754,0-23.176-4.851-31.335-13.31l-14.882-15.431
						c-6.643-6.888-11.497-15.405-14.038-24.63c-0.324-1.176,0.368-2.393,1.544-2.717c1.174-0.33,2.392,0.367,2.718,1.543
						c2.344,8.517,6.824,16.378,12.957,22.735l14.882,15.431c7.331,7.6,17.592,11.959,28.154,11.959h3.267
						c1.22,0,2.21,0.988,2.21,2.21S1238.467,898.319,1237.247,898.319z"/>
					<path d="M1302.171,1022.855h-96.983c-1.08,0-2.001-0.781-2.179-1.845l-43.229-258.268c-0.107-0.641,0.073-1.297,0.493-1.793
						c0.42-0.494,1.037-0.781,1.686-0.781H1345.4c0.649,0,1.267,0.287,1.686,0.781c0.42,0.496,0.6,1.152,0.493,1.793l-11.991,71.642
						c-0.203,1.206-1.361,2.022-2.544,1.815c-1.204-0.201-2.016-1.34-1.815-2.544l11.561-69.067h-178.22l42.49,253.849h93.241
						l2.139-12.775c0.203-1.204,1.345-2.028,2.544-1.815c1.204,0.201,2.017,1.34,1.815,2.544l-2.447,14.62
						C1304.173,1022.074,1303.251,1022.855,1302.171,1022.855z"/>
					<polygon style="fill:#4ADA85;" points="1352.902,801.04 1359.886,759.308 1147.473,759.308 1154.459,801.04 					"/>
					<path d="M1329.363,960.132c-0.565,0-1.131-0.216-1.562-0.647c-0.863-0.863-0.863-2.261,0-3.125l5.029-5.028
						c4.148-4.15,6.434-9.665,6.434-15.532v-1.469c0-5.867-2.285-11.383-6.434-15.532l-25.03-25.031
						c-7.129-7.13-16.607-11.055-26.689-11.055h-26.774c-8.204,0-14.88,6.677-14.88,14.881v1.923c0,8.204,6.675,14.881,14.88,14.881
						h4.544c1.22,0,2.21,0.988,2.21,2.21c0,1.221-0.989,2.21-2.21,2.21h-4.544c-10.642,0-19.299-8.657-19.299-19.3v-1.923
						c0-10.643,8.657-19.3,19.299-19.3h26.774c11.262,0,21.85,4.385,29.813,12.35l25.03,25.031
						c4.984,4.982,7.729,11.609,7.729,18.657v1.469c0,7.048-2.745,13.674-7.729,18.657l-5.029,5.028
						C1330.493,959.916,1329.928,960.132,1329.363,960.132z"/>
				</g>
				<g>
					<path style="fill:#FDA4FF;" d="M604.213,1113.144l-15.242-27.943c0,0,19.473-22.258,2.562-49.893
						c-3.92-6.405-13.143-18.872-21.047-29.304c-8.989-11.864-16.362-24.863-21.948-38.659l-6.403-15.813
						c-3.218-7.946-12.129-11.942-20.202-9.059l-1.724,0.616c-8.182,2.922-12.534,11.842-9.803,20.089l17.607,53.157h-27.168
						c-13.925,0-27.574-3.879-39.418-11.202l-48.418-28.631c-8.047-4.758-18.371-2.85-24.184,4.471l-0.993,1.25l-24.433-17.92
						c-7.361-5.042-17.387-3.403-22.759,3.721c-5.281,6.995-4.249,16.884,2.364,22.636l162.737,141.577l18.561,32.172
						L604.213,1113.144z"/>
					<polygon points="524.301,1164.409 604.213,1113.144 595.367,1096.928 519.193,1155.553 					"/>
					<path d="M524.301,1166.617c-0.175,0-0.35-0.022-0.522-0.063c-0.587-0.142-1.09-0.52-1.392-1.042l-18.375-31.853
						L341.555,992.327c-7.457-6.487-8.633-17.749-2.678-25.636c6.098-8.083,17.421-9.93,25.771-4.212l22.783,16.706
						c6.525-7.796,17.906-9.788,26.704-4.586l48.418,28.631c11.539,7.134,24.767,10.893,38.294,10.893h24.108l-16.645-50.253
						c-3.084-9.309,1.922-19.565,11.156-22.863l1.723-0.617c9.214-3.295,19.32,1.237,22.996,10.31l6.402,15.815
						c5.521,13.631,12.809,26.469,21.661,38.154c7.417,9.788,17.11,22.85,21.171,29.483c15.265,24.949,2.032,46.03-1.815,51.258
						l14.55,26.676c0.556,1.016,0.229,2.292-0.747,2.917l-79.912,51.263C525.135,1166.499,524.721,1166.617,524.301,1166.617z
						 M353.985,963.573c-4.391,0-8.73,2-11.58,5.781c-4.563,6.042-3.662,14.669,2.05,19.637l162.737,141.577
						c0.184,0.162,0.342,0.352,0.464,0.563l17.402,30.167l76.23-48.902l-14.257-26.138c-0.442-0.809-0.331-1.813,0.274-2.51
						c0.75-0.863,18.171-21.421,2.344-47.288c-3.139-5.129-10.374-15.198-20.923-29.123c-9.088-11.994-16.568-25.169-22.235-39.163
						l-6.402-15.815c-2.783-6.871-10.428-10.302-17.412-7.807l-1.723,0.617c-6.994,2.499-10.784,10.265-8.449,17.313l17.607,53.157
						c0.223,0.673,0.109,1.413-0.306,1.99c-0.415,0.574-1.081,0.915-1.791,0.915h-27.168c-14.348,0-28.38-3.988-40.58-11.532
						l-48.38-28.609c-7.061-4.171-16.23-2.479-21.33,3.945l-0.993,1.249c-0.739,0.93-2.079,1.109-3.037,0.408l-24.434-17.919
						C359.62,964.391,356.791,963.573,353.985,963.573z"/>
					<path style="fill:#FDA4FF;" d="M492.897,1068.864l-11.589-11.383c-7.367-7.236-12.476-16.455-14.706-26.537l-12.21-55.211
						c-1.756-7.94-9.562-12.999-17.527-11.36c-7.584,1.561-12.702,8.678-11.769,16.365l7.629,62.862
						c0.617,5.08,2.245,9.984,4.791,14.423l13.711,23.915L492.897,1068.864z"/>
					<path style="fill:#FDA4FF;" d="M463.243,1037.698l-13.312-9.31c-8.462-5.918-15.025-14.166-18.891-23.741l-21.17-52.433
						c-3.045-7.541-11.579-11.24-19.164-8.306c-7.221,2.794-11.093,10.659-8.902,18.085l17.916,60.736
						c1.448,4.908,3.865,9.476,7.109,13.433l17.476,21.319L463.243,1037.698z"/>
					<path d="M406.832,1038.372c-0.639,0-1.273-0.276-1.71-0.809c-3.449-4.208-5.979-8.988-7.519-14.207l-17.917-60.736
						c-2.495-8.463,1.995-17.587,10.224-20.772c8.66-3.353,18.535,0.926,22.01,9.54l16.092,40.348c0.452,1.133-0.1,2.419-1.233,2.87
						c-1.135,0.457-2.419-0.101-2.871-1.234l-16.089-40.339c-2.573-6.372-9.889-9.542-16.315-7.063
						c-6.1,2.361-9.43,9.126-7.581,15.399l17.917,60.736c1.372,4.65,3.626,8.91,6.699,12.658c0.774,0.943,0.635,2.335-0.309,3.109
						C407.821,1038.208,407.325,1038.372,406.832,1038.372z"/>
					<path d="M506.757,1081.184c-0.504,0-1.01-0.17-1.424-0.522l-25.45-21.493c-7.815-7.667-13.11-17.224-15.439-27.748
						l-12.21-55.212c-1.487-6.722-8.183-11.061-14.923-9.672c-6.408,1.318-10.81,7.438-10.022,13.934l5.141,55.032
						c1.066,11.402,6.539,20.791,12.333,30.73l0.384,0.658c0.615,1.055,0.258,2.408-0.796,3.023
						c-1.055,0.611-2.407,0.255-3.021-0.796l-0.384-0.66c-6.047-10.373-11.759-20.17-12.916-32.545l-5.135-54.972
						c-1.056-8.698,4.882-16.955,13.525-18.733c9.1-1.867,18.126,3.979,20.13,13.047l12.21,55.211
						c2.143,9.687,7.017,18.482,14.096,25.439l25.327,21.38c0.933,0.788,1.05,2.182,0.263,3.114
						C508.009,1080.919,507.385,1081.184,506.757,1081.184z"/>
					<path d="M535.922,1041.872c-0.921,0-1.78-0.58-2.093-1.5l-7.908-23.329c-0.392-1.157,0.228-2.41,1.384-2.803
						c1.154-0.391,2.41,0.231,2.802,1.383l7.907,23.329c0.392,1.157-0.228,2.41-1.384,2.803
						C536.396,1041.836,536.157,1041.872,535.922,1041.872z"/>
				</g>
				<g>
					<path style="fill:#FED101;" d="M1244.594,1390.721h-162.046v-123.542h83.202c20.655,0,37.399-16.744,37.399-37.399v-154.518
						h140.035v216.869C1343.183,1346.58,1299.043,1390.721,1244.594,1390.721z"/>
					<path style="fill:#FED101;" d="M604.213,1113.144l-101.295,63.339l110.699,179.614c13.444,21.814,37.237,35.099,62.861,35.099
						c30.958,0,58.629-19.311,69.308-48.368l10.117-27.527l27.244,75.247h364.557l-96.319-280.845
						c-23.046-42.965-68.722-68.871-117.425-66.6l-6.504,0.303c-47.602,2.22-94.77,10.106-140.505,23.491l-14.093,4.125
						c-38.134,11.16-69.09,39.112-84.073,75.912l-24.46,61.455L604.213,1113.144z"/>
					<path d="M676.477,1393.404c-26.589,0-50.792-13.513-64.742-36.149l-110.698-179.613c-0.638-1.034-0.32-2.389,0.709-3.032
						l101.295-63.338c1.031-0.649,2.391-0.337,3.04,0.693l57.796,91.574l22.855-57.423c15.333-37.659,46.495-65.798,85.505-77.216
						l14.093-4.124c15.03-4.4,30.43-8.258,45.773-11.469c1.205-0.244,2.367,0.514,2.616,1.709c0.249,1.196-0.516,2.365-1.71,2.615
						c-15.231,3.187-30.518,7.019-45.439,11.387l-14.093,4.124c-37.708,11.035-67.832,38.235-82.646,74.624l-24.454,61.439
						c-0.307,0.772-1.023,1.306-1.85,1.383c-0.839,0.089-1.629-0.322-2.072-1.021l-58.937-93.382l-97.569,61.008l109.546,177.745
						c13.14,21.32,35.936,34.047,60.981,34.047c29.902,0,56.921-18.856,67.234-46.921l10.117-27.526
						c0.319-0.87,1.148-1.448,2.074-1.448c0.002,0,0.003,0,0.005,0c0.928,0.002,1.757,0.585,2.073,1.457l26.608,73.489
						c0.415,1.148-0.178,2.415-1.326,2.831c-1.144,0.41-2.414-0.179-2.83-1.325l-24.545-67.794l-8.028,21.84
						C736.91,1373.385,708.223,1393.404,676.477,1393.404z"/>
					<path d="M700.845,1268.456c-0.734,0-1.45-0.365-1.871-1.029l-44.752-70.906c-0.652-1.034-0.343-2.397,0.689-3.049
						c1.033-0.65,2.396-0.341,3.048,0.688l44.752,70.906c0.652,1.034,0.343,2.397-0.689,3.049
						C701.656,1268.346,701.249,1268.456,700.845,1268.456z"/>
					<path d="M755.902,1317.509c-0.233,0-0.47-0.037-0.705-0.114c-1.157-0.391-1.779-1.642-1.39-2.799l29.077-86.462
						c0.389-1.155,1.64-1.778,2.799-1.392c1.157,0.391,1.779,1.642,1.39,2.799l-29.078,86.462
						C757.686,1316.927,756.826,1317.509,755.902,1317.509z"/>
				</g>
			</g>
			<g>
				
					<ellipse transform="matrix(0.7071 -0.7071 0.7071 0.7071 -442.0229 876.2278)" cx="836.689" cy="971.683" rx="41.006" ry="41.006"/>
				<path style="fill:#FDA4FF;" d="M850.826,1076.102h-5.407c-10.43,0-18.885-8.455-18.885-18.885v-47.654h43.177v47.654
					C869.711,1067.647,861.256,1076.102,850.826,1076.102z"/>
				<path d="M838.942,1010.115h-4.06c0.731,3.866,3.18,13.236,11.725,20.625c7.917,6.845,17.146,8.44,23.377,8.608
					c0.012-0.282,0.043-0.56,0.043-0.845v-21.767L838.942,1010.115z"/>
				<circle style="fill:#FDA4FF;" cx="848.842" cy="984.304" r="39.905"/>
				<path d="M848.842,1026.42c-2.665,0-5.329-0.25-7.917-0.745c-1.199-0.229-1.985-1.387-1.757-2.585
					c0.229-1.2,1.384-1.987,2.585-1.757c2.316,0.442,4.701,0.667,7.089,0.667c17.031,0,32.003-11.476,36.411-27.904
					c0.316-1.178,1.521-1.879,2.707-1.562c1.178,0.315,1.877,1.528,1.561,2.706C884.597,1013.597,867.87,1026.42,848.842,1026.42z"
					/>
				<path style="fill:#FFFFFF;" d="M841.789,993.554c3.242,8.034,15.802,13.467,27.082,5.538L841.789,993.554z"/>
				<circle cx="750.08" cy="904.473" r="58.856"/>
			</g>
		</g>
		<g>
			<path d="M1243.03,1391.773H741.199c-1.22,0-2.21-0.988-2.21-2.21v-17.047c0-1.221,0.989-2.21,2.21-2.21h501.832
				c1.22,0,2.21,0.988,2.21,2.21v17.047C1245.24,1390.784,1244.25,1391.773,1243.03,1391.773z M743.408,1387.353h497.412v-12.628
				H743.408V1387.353z"/>
			<path d="M881.548,1391.773c-1.22,0-2.21-0.988-2.21-2.21v-17.047c0-1.221,0.989-2.21,2.21-2.21c1.22,0,2.21,0.988,2.21,2.21
				v17.047C883.758,1390.784,882.769,1391.773,881.548,1391.773z"/>
			<polygon points="955.442,1124.827 1320.554,1124.827 1244.66,1373.022 879.547,1373.022 			"/>
			
				<ellipse transform="matrix(0.2298 -0.9732 0.9732 0.2298 -367.2013 2042.582)" style="fill:#FFFFFF;" cx="1106.855" cy="1253.28" rx="17.023" ry="17.023"/>
		</g>
		<g>
			<path d="M1879.384,1428.783H452.347c-1.22,0-2.21-0.988-2.21-2.21v-37.062c0-1.221,0.989-2.21,2.21-2.21h1427.037
				c1.22,0,2.21,0.988,2.21,2.21v37.062C1881.594,1427.794,1880.604,1428.783,1879.384,1428.783z M454.556,1424.363h1422.618
				v-32.642H454.556V1424.363z"/>
			<path d="M1879.382,2165h-39.707c-1.22,0-2.21-0.988-2.21-2.21v-735.969c0-1.221,0.989-2.21,2.21-2.21h39.707
				c1.22,0,2.21,0.988,2.21,2.21v735.969C1881.592,2164.012,1880.602,2165,1879.382,2165z M1841.884,2160.581h35.288v-731.55
				h-35.288V2160.581z"/>
			<path d="M492.038,2165h-39.707c-1.22,0-2.21-0.988-2.21-2.21v-735.969c0-1.221,0.989-2.21,2.21-2.21h39.707
				c1.22,0,2.21,0.988,2.21,2.21v735.969C494.247,2164.012,493.258,2165,492.038,2165z M454.54,2160.581h35.288v-731.55H454.54
				V2160.581z"/>
		</g>
		<g>
			<path d="M1525.844,1392.98h-3.148c-33.068,0-59.875-26.807-59.875-59.875v-44.719h122.898v44.719
				C1585.72,1366.173,1558.913,1392.98,1525.844,1392.98z"/>
			<path d="M1608.991,1347.029c-9.286,0-16.842-7.555-16.842-16.842s7.556-16.842,16.842-16.842c9.286,0,16.842,7.555,16.842,16.842
				S1618.277,1347.029,1608.991,1347.029z M1608.991,1317.764c-6.85,0-12.423,5.574-12.423,12.423s5.573,12.423,12.423,12.423
				s12.423-5.574,12.423-12.423S1615.841,1317.764,1608.991,1317.764z"/>
			<path style="fill:#FDA4FF;" d="M1575.91,1274.565H1494.4c-1.22,0-2.21-0.988-2.21-2.21c0-1.221,0.989-2.21,2.21-2.21h81.511
				c5.75,0,10.428-4.678,10.428-10.427c0-5.751-4.678-10.429-10.428-10.429h-38.717c-8.186,0-14.846-6.659-14.846-14.846v-0.939
				c0-8.187,6.66-14.846,14.846-14.846h22.669c1.22,0,2.21,0.988,2.21,2.21s-0.989,2.21-2.21,2.21h-22.669
				c-5.75,0-10.427,4.678-10.427,10.427v0.939c0,5.749,4.677,10.427,10.427,10.427h38.717c8.187,0,14.847,6.661,14.847,14.848
				S1584.097,1274.565,1575.91,1274.565z"/>
		</g>
		<g>
			<polygon style="fill:#FFFFFF;" points="552.808,816.162 937.804,816.162 1008.159,1126.247 1016.247,816.162 1044.886,816.162 
				1044.886,508.825 552.808,508.825 			"/>
			<path style="fill:#FED101;" d="M1008.157,1128.457c-1.021,0-1.923-0.706-2.153-1.72L936.04,818.372H552.808
				c-1.22,0-2.21-0.988-2.21-2.21V508.826c0-1.221,0.989-2.21,2.21-2.21h492.078c1.22,0,2.21,0.988,2.21,2.21v307.336
				c0,1.221-0.989,2.21-2.21,2.21H1018.4l-8.033,307.934c-0.029,1.114-0.883,2.031-1.992,2.141
				C1008.302,1128.453,1008.229,1128.457,1008.157,1128.457z M555.018,813.953h382.787c1.031,0,1.927,0.714,2.155,1.72
				l66.451,292.881l7.629-292.449c0.031-1.198,1.011-2.151,2.209-2.151h26.429V511.035H555.018V813.953z"/>
			<g>
				<g>
					
						<rect x="623.487" y="566.229" transform="matrix(-1 -1.224647e-16 1.224647e-16 -1 1522.7607 1258.0298)" style="fill:#FFFFFF;" width="275.787" height="125.572"/>
					<path d="M899.273,694.011H623.487c-1.22,0-2.21-0.988-2.21-2.21V566.23c0-1.221,0.989-2.21,2.21-2.21h275.786
						c1.22,0,2.21,0.988,2.21,2.21v125.571C901.483,693.023,900.493,694.011,899.273,694.011z M625.697,689.592h271.367V568.44
						H625.697V689.592z"/>
				</g>
				<g>
					<polygon style="fill:#FFFFFF;" points="761.38,629.015 899.274,566.229 623.487,566.229 					"/>
					<path d="M761.38,631.225c-0.313,0-0.625-0.067-0.916-0.199l-137.893-62.786c-0.946-0.432-1.464-1.463-1.243-2.479
						c0.22-1.016,1.119-1.742,2.159-1.742h275.786c1.04,0,1.939,0.725,2.159,1.742c0.221,1.016-0.297,2.048-1.243,2.479
						l-137.893,62.786C762.005,631.158,761.693,631.225,761.38,631.225z M633.672,568.44l127.708,58.148l127.708-58.148H633.672z"/>
				</g>
			</g>
			<g>
				<g>
					
						<rect x="662.017" y="604.759" transform="matrix(-1 -1.224647e-16 1.224647e-16 -1 1599.8212 1335.0903)" style="fill:#FFFFFF;" width="275.787" height="125.572"/>
					<path d="M937.804,732.54H662.017c-1.22,0-2.21-0.988-2.21-2.21V604.759c0-1.221,0.989-2.21,2.21-2.21h275.787
						c1.22,0,2.21,0.988,2.21,2.21V730.33C940.014,731.552,939.024,732.54,937.804,732.54z M664.227,728.121h271.368V606.969
						H664.227V728.121z"/>
				</g>
				<g>
					<polygon style="fill:#FFFFFF;" points="799.911,667.545 937.804,604.759 662.017,604.759 					"/>
					<path d="M799.91,669.754c-0.313,0-0.625-0.067-0.916-0.198L661.101,606.77c-0.946-0.432-1.464-1.463-1.243-2.479
						c0.22-1.016,1.119-1.741,2.159-1.741h275.787c1.04,0,1.939,0.725,2.159,1.741c0.221,1.016-0.297,2.048-1.243,2.479
						l-137.894,62.786C800.535,669.687,800.223,669.754,799.91,669.754z M672.203,606.969l127.708,58.148l127.709-58.148H672.203z"
						/>
				</g>
			</g>
			<g>
				<g>
					
						<rect x="700.548" y="643.29" transform="matrix(-1 -1.224647e-16 1.224647e-16 -1 1676.8818 1412.1508)" style="fill:#FFFFFF;" width="275.787" height="125.572"/>
					<path d="M976.334,771.071H700.547c-1.22,0-2.21-0.988-2.21-2.21V643.29c0-1.221,0.989-2.21,2.21-2.21h275.787
						c1.22,0,2.21,0.988,2.21,2.21v125.571C978.544,770.083,977.555,771.071,976.334,771.071z M702.757,766.652h271.368V645.5
						H702.757V766.652z"/>
				</g>
				<g>
					<polygon style="fill:#FFFFFF;" points="838.441,706.075 976.334,643.29 700.548,643.29 					"/>
					<path d="M838.441,708.285c-0.313,0-0.625-0.067-0.916-0.198l-137.894-62.786c-0.946-0.432-1.464-1.463-1.243-2.479
						c0.22-1.016,1.119-1.741,2.159-1.741h275.787c1.04,0,1.939,0.725,2.159,1.741c0.221,1.016-0.297,2.048-1.243,2.479
						l-137.893,62.786C839.066,708.218,838.754,708.285,838.441,708.285z M710.732,645.5l127.709,58.148L966.149,645.5H710.732z"/>
				</g>
			</g>
		</g>
	</g>
</g>
</svg>
