<?xml version="1.0" encoding="utf-8"?>
<!-- Generator: Adobe Illustrator 27.5.0, SVG Export Plug-In . SVG Version: 6.00 Build 0)  -->
<svg version="1.1" id="Layer_1" xmlns="http://www.w3.org/2000/svg" xmlns:xlink="http://www.w3.org/1999/xlink" x="0px" y="0px"
	 viewBox="0 0 5000 5000" style="enable-background:new 0 0 5000 5000;" xml:space="preserve">
<g>
	<g>
		<g>
			<polygon style="fill:#FFE7FF;" points="4650,3708.3 454.173,3819.608 350,871.841 4650,584.112 			"/>
		</g>
		<g>
			<g>
				<g>
					<g>
						<g>
							<g>
								<polygon style="fill:#6A60A6;" points="3335.576,2771.035 3611.144,2157.97 3660.985,2187.93 3397.911,2771.035 								"/>
							</g>
							<g>
								<rect x="2379.383" y="2708.697" style="fill:#6A60A6;" width="1018.529" height="62.335"/>
							</g>
							<g>
								<polygon style="fill:#FFFFFF;" points="2893.635,2708.697 3134.838,2157.97 3611.144,2157.97 3362.125,2708.697 								"/>
							</g>
							<g>
								<path style="fill:#1C183E;" d="M2893.626,2716.161c-0.999,0-2.011-0.202-2.988-0.628c-3.775-1.655-5.495-6.055-3.841-9.83
									l241.206-550.726c1.188-2.715,3.87-4.469,6.836-4.469h476.305c4.125,0,7.463,3.342,7.463,7.463
									c0,4.121-3.338,7.463-7.463,7.463h-471.429L2900.47,2711.69C2899.246,2714.492,2896.505,2716.161,2893.626,2716.161z"/>
							</g>
							<g>
								<rect x="2447.312" y="2771.035" style="fill:#010101;" width="919.432" height="27.169"/>
							</g>
						</g>
					</g>
					<g>
						<g>
							<g>
								<g>
									<g>
										<path style="fill:#D3D3D3;" d="M2650.672,4135.831c2.035-0.637,3.806-2.095,4.777-4.176
											c2.251-4.813,21.582-47.698,7.599-71.442c-3.619-6.149-11.117-13.696-26.281-14.743
											c-13.524-0.926-24.095,2.965-31.44,11.582c-16.478,19.332-8.899,54.623-7.978,58.584c0.981,4.23,5.203,6.861,9.435,5.886
											c4.239-1.006,6.867-5.203,5.898-9.433c-1.983-8.642-5.016-33.547,4.639-44.845c3.982-4.658,9.987-6.647,18.361-6.07
											c9.028,0.622,12.201,4.303,13.803,7.017c8.292,14.06-3.507,46.534-8.291,56.8c-1.836,3.938-0.134,8.619,3.8,10.458
											C2646.846,4136.313,2648.865,4136.396,2650.672,4135.831z"/>
									</g>
								</g>
								<g>
									<g>
										<polygon style="fill:#48236A;" points="2912.42,4216.501 2358.328,4389.855 2354.504,4365.269 2321.812,4156.737 
											2534.279,4090.264 2872.549,4203.193 										"/>
									</g>
									<g style="opacity:0.3;">
										<g>
											<polygon style="fill:#010101;" points="2912.42,4216.501 2358.328,4389.855 2354.504,4365.269 2872.549,4203.193 
																							"/>
										</g>
									</g>
									<g>
										<g>
											
												<rect x="2334.714" y="4290.869" transform="matrix(0.9544 -0.2986 0.2986 0.9544 -1164.6586 983.1984)" style="fill:#010101;" width="601.331" height="24.606"/>
										</g>
									</g>
									<g>
										<polygon style="fill:#FFADBF;" points="2534.27,4090.237 2491.121,3921.252 2314.749,4030.989 2347.777,4148.583 
																					"/>
									</g>
									<g>
										<g>
											<path style="fill:#D3D3D3;" d="M2659.144,4181.698c1.852-0.579,3.491-1.837,4.511-3.66
												c13.699-24.406,47.146-27.437,47.484-27.465c4.313-0.359,7.553-4.145,7.206-8.471c-0.347-4.326-4.119-7.555-8.447-7.217
												c-1.71,0.132-42.113,3.631-59.966,35.453c-2.128,3.79-0.78,8.586,3.01,10.714
												C2654.911,4182.155,2657.149,4182.322,2659.144,4181.698z"/>
										</g>
									</g>
									<g>
										<g>
											<path style="fill:#D3D3D3;" d="M2626.897,4167.332c2.93-0.917,5.17-3.512,5.485-6.751
												c0.248-2.153,3.186-20.395,31.708-22.114c4.333-0.267,7.644-3.994,7.379-8.33c-0.262-4.339-3.993-7.643-8.332-7.38
												c-34.372,2.069-45.412,24.706-46.427,36.377c-0.377,4.329,2.826,8.145,7.156,8.523
												C2624.923,4167.75,2625.948,4167.629,2626.897,4167.332z"/>
										</g>
									</g>
									<g>
										<g>
											<path style="fill:#D3D3D3;" d="M2581.135,4245.097c3.502-1.096,5.864-4.536,5.468-8.324
												c-8.945-86.013,40.817-110.147,41.319-110.38c3.941-1.829,5.654-6.508,3.824-10.451
												c-1.83-3.945-6.541-5.644-10.449-3.827c-2.471,1.148-60.443,29.219-50.346,126.286c0.447,4.323,4.316,7.463,8.64,7.014
												C2580.126,4245.358,2580.644,4245.251,2581.135,4245.097z"/>
										</g>
									</g>
								</g>
							</g>
							<g>
								<path style="fill:#010101;" d="M1257.388,4414.227c-6.181,0-11.195-5.011-11.195-11.195V3214.218
									c0-6.184,5.014-11.195,11.195-11.195c6.18,0,11.195,5.011,11.195,11.195v1188.813
									C1268.583,4409.216,1263.568,4414.227,1257.388,4414.227z"/>
							</g>
							<g>
								<g>
									<g>
										<path style="fill:#EAAB3B;" d="M1464.897,1740.678"/>
									</g>
									<g>
										<polygon style="fill:#FFADBF;" points="1418.766,1571.933 1411.521,1703.686 1408.475,1759.049 1177.245,1748.446 
											1234.212,1505.932 1348.159,1546.717 										"/>
									</g>
									<g>
										<path style="fill:#FF89A6;" d="M1418.766,1571.933l-7.245,131.753l-146.088-122.104c0,0,42.5-17.884,82.725-34.865
											L1418.766,1571.933z"/>
									</g>
									<g>
										<path style="fill:#FFADBF;" d="M1582.616,1457.789c-13.91,1.025-13.8,1.01-27.711,2.035
											c-13.672,93.157-72.157,143.836-170.035,151.827c-113.92,9.301-213.801-75.497-223.102-189.423
											c-9.301-113.925,75.503-213.801,189.423-223.102c104.091-8.498,174.624,86.606,196.825,185.712
											C1562.964,1409.106,1568.874,1432.973,1582.616,1457.789z"/>
									</g>
									<g>
										<path style="fill:#FEBB00;" d="M1523.854,2798.204c0,0,129.776-693.906,20.937-951.749
											c-45.195-107.068-258.053-232.024-435.188-61.843c-119.071,114.396-208.158,1191.985-208.158,1191.985L1523.854,2798.204z
											"/>
									</g>
									<g>
										<path style="fill:#010101;" d="M1212.062,1600.15c0,0,106.004-25,99.53-95.579c0,0-59.379-39.24-28.861-92.218
											c30.518-52.979,55.559,1.153,55.559,1.153s15.713,0.85,23.714-31.802c8-32.652,351.17-65.172,300.233-201.335
											c-50.937-136.162-205.128-4.112-252.816-19.18c-47.688-15.069-290.15-12.182-311.017,104.085
											C1063.864,1457.716,1212.062,1600.15,1212.062,1600.15"/>
									</g>
									<g>
										<polygon style="fill:#6A5AFF;" points="2674.908,3978.341 2024.774,3116.972 1149.37,3154.81 1618.142,3349.069 
											2219.856,4088.626 										"/>
									</g>
									<g>
										<g>
											<g>
												<path style="fill:#D3D3D3;" d="M1489.963,4130.925c1.732,1.245,3.961,1.784,6.208,1.311
													c5.2-1.092,51.098-11.399,61.68-36.842c2.742-6.587,4.271-17.115-4.002-29.867
													c-7.383-11.368-16.845-17.482-28.146-18.178c-25.354-1.561-49.015,25.699-51.628,28.815
													c-2.793,3.326-2.36,8.281,0.962,11.078c3.351,2.784,8.285,2.365,11.084-0.951c5.718-6.777,23.806-24.163,38.639-23.231
													c6.116,0.385,11.313,3.991,15.882,11.032c4.926,7.591,3.889,12.339,2.682,15.25
													c-6.259,15.075-39.309,25.151-50.39,27.493c-4.251,0.898-6.971,5.071-6.079,9.32
													C1487.279,4128.156,1488.425,4129.82,1489.963,4130.925z"/>
											</g>
										</g>
										<g>
											<g>
												<polygon style="fill:#48236A;" points="1582.709,4388.642 1111.264,4049.807 1128.622,4031.98 1275.696,3880.574 
													1456.471,4010.5 1569.396,4348.772 												"/>
											</g>
											<g style="opacity:0.3;">
												<g>
													<polygon style="fill:#010101;" points="1582.709,4388.642 1111.264,4049.807 1128.622,4031.98 1569.396,4348.772 
																											"/>
												</g>
											</g>
											<g>
												<g>
													
														<rect x="1334.692" y="3918.559" transform="matrix(0.5836 -0.812 0.812 0.5836 -2865.2661 2850.6094)" style="fill:#010101;" width="24.606" height="601.331"/>
												</g>
											</g>
											<g>
												<polygon style="fill:#FFADBF;" points="1456.488,4010.477 1565.663,3874.468 1371.983,3799.388 1297.812,3896.434 
																									"/>
											</g>
											<g>
												<g>
													<path style="fill:#D3D3D3;" d="M1458.384,4165.251c1.576,1.132,3.566,1.688,5.636,1.408
														c27.741-3.71,50.256,21.209,50.482,21.461c2.877,3.232,7.85,3.549,11.101,0.672s3.565-7.832,0.696-11.088
														c-1.133-1.288-28.201-31.486-64.366-26.642c-4.308,0.576-7.333,4.534-6.757,8.842
														C1455.475,4162.142,1456.687,4164.032,1458.384,4165.251z"/>
												</g>
											</g>
											<g>
												<g>
													<path style="fill:#D3D3D3;" d="M1450.498,4130.841c2.493,1.792,5.913,2.023,8.692,0.33
														c1.871-1.095,18.218-9.705,36.727,12.065c2.816,3.304,7.785,3.712,11.092,0.895c3.311-2.816,3.711-7.784,0.895-11.095
														c-22.302-26.236-47.031-21.463-56.972-15.263c-3.687,2.299-4.814,7.152-2.515,10.841
														C1448.977,4129.514,1449.689,4130.261,1450.498,4130.841z"/>
												</g>
											</g>
											<g>
												<g>
													<path style="fill:#D3D3D3;" d="M1360.837,4140.972c2.98,2.142,7.149,1.963,9.939-0.628
														c63.39-58.821,112.577-33.537,113.066-33.275c3.83,2.052,8.599,0.611,10.652-3.22
														c2.054-3.833,0.583-8.619-3.218-10.653c-2.402-1.286-59.669-30.769-131.204,35.613
														c-3.188,2.954-3.374,7.934-0.417,11.121C1360.022,4140.322,1360.419,4140.672,1360.837,4140.972z"/>
												</g>
											</g>
										</g>
									</g>
									<g>
										<path style="fill:#6A86FF;" d="M2289.952,3355.679l-691.628,654.798l-359.07-227.88l425.844-428.294L1066.561,3146.3
											c-78.18-23.356-133.764-94.345-165.142-169.702l622.435-178.394l666.68,225.812
											C2328.908,3070.904,2379.765,3240.394,2289.952,3355.679z"/>
									</g>
								</g>
								<g>
									<path style="fill:#FFADBF;" d="M2716.694,2781.747l-68.231-33.919c-16.068-7.987-35.098-7.237-50.487,1.991l-80.687,48.384
										l-751.766,8.142c-57.068,0.618-110.61-27.544-142.435-74.917l-272.074-431.474l277.283-127.005l236.653,402.704
										l669.585,59.493l78.886-18.333c29.437-6.873,60.376,2.027,81.614,23.532l33.495,33.934
										c16.636,16.857,30.219,49.62,32.17,78.966C2762.237,2776.349,2737.427,2792.054,2716.694,2781.747z"/>
								</g>
							</g>
							<g>
								<path style="fill:#010101;" d="M1507.821,3314.549c-1.246,0-2.515-0.211-3.754-0.652l-644.68-229.45
									c-85.375-30.385-140.169-114.716-133.252-205.073l63.816-833.405c0.474-6.169,5.976-10.737,12.018-10.307
									c6.166,0.472,10.779,5.853,10.313,12.017l-63.816,833.405c-6.151,80.312,42.549,155.265,118.428,182.271l644.68,229.45
									c5.823,2.073,8.87,8.476,6.793,14.3C1516.735,3311.688,1512.42,3314.549,1507.821,3314.549z"/>
							</g>
							<g>
								<path style="fill:#FEBB00;" d="M1530.925,1817.632l153.047,350.824l-349.616,170.317l-121.833-298.074
									c-42.236-103.333,28.105-219.074,134.025-220.531L1530.925,1817.632z"/>
							</g>
						</g>
						<g>
							<g>
								<path style="fill:#010101;" d="M4082.881,4415.888c-4.919,0-9.431-3.269-10.794-8.247L3652.47,2872.814
									c-1.625-5.964,1.888-12.121,7.85-13.75c5.94-1.64,12.12,1.884,13.753,7.846l419.617,1534.827
									c1.625,5.962-1.888,12.121-7.849,13.75C4084.856,4415.757,4083.857,4415.888,4082.881,4415.888z"/>
							</g>
							<g>
								<path style="fill:#010101;" d="M1704.7,4415.888c-0.977,0-1.968-0.131-2.959-0.401c-5.962-1.629-9.475-7.788-7.849-13.75
									l419.61-1534.827c1.633-5.962,7.762-9.49,13.753-7.846c5.962,1.629,9.475,7.786,7.849,13.75l-419.609,1534.827
									C1714.131,4412.62,1709.62,4415.888,1704.7,4415.888z"/>
							</g>
						</g>
					</g>
					<g>
						<rect x="1799.286" y="2798.204" style="fill:#D4C6FF;" width="2189.006" height="71.658"/>
					</g>
				</g>
				<g>
					<path style="fill:#010101;" d="M1516.203,1529.937c-12.164,0-27.776-3.043-44.502-14.046l8.207-12.47
						c29.43,19.363,53.809,8.77,54.837,8.31l6.253,13.553C1540.283,1525.615,1530.692,1529.937,1516.203,1529.937z"/>
				</g>
			</g>
			<g>
				<g>
					<g>
						<g>
							<rect x="2474.927" y="949.109" style="fill:#FFFFFF;" width="1441.3" height="1014.833"/>
						</g>
						<g>
							<rect x="2474.927" y="874.398" style="fill:#D4C6FF;" width="1441.301" height="74.713"/>
						</g>
					</g>
					<g>
						<rect x="2505.375" y="903.415" style="fill:#FF449C;" width="20.679" height="20.679"/>
					</g>
					<g>
						<rect x="2546.067" y="903.415" style="fill:#6A86FF;" width="20.679" height="20.679"/>
					</g>
					<g>
						<rect x="2586.758" y="903.415" style="fill:#D5D400;" width="20.679" height="20.679"/>
					</g>
				</g>
				<g>
					<path style="fill:#FFADBF;" d="M3053.15,1544.606l-111.727,153.016c-33.971,46.573-97.616,60.044-147.557,31.241
						l-133.387-76.827l-239.365-137.857l92.622-58.07l275.601,104.118l76.13-115.037l102.378,54.24L3053.15,1544.606z"/>
				</g>
				<g>
					<path style="fill:#FF89A6;" d="M3053.15,1544.606l-111.727,153.016c-33.971,46.573-97.616,60.044-147.557,31.241
						l-133.387-76.827c27.757,8.943,56.212,14.634,85.595,14.634c50.985,0,101.855-17.943,141.517-49.941
						c24.97-20.149,44.54-45.41,59.522-73.631c7.259-13.531,12.717-29.792,20.731-43.669L3053.15,1544.606z"/>
				</g>
				<g>
					<path style="fill:#FFADBF;" d="M2421.106,1514.203l-91.02-19.125c-37.012-7.781-62.827-40.432-62.827-77.344
						c0-3.37,0.198-6.74,0.644-10.159l181.148,32.107l-18.135-26.903c-2.824-4.212-4.212-9.068-4.212-13.824
						c0-6.74,2.676-13.379,7.928-18.235c10.603-9.762,27.251-8.473,36.17,2.823l42.939,72.556"/>
				</g>
				<g>
					<path style="fill:#010101;" d="M2992.467,1190.782c-9.103-74.522-17.52-150.118-6.849-224.432
						c10.671-74.314,42.638-148.349,101.386-195.094c37.605-29.922,83.993-47.079,131.036-56.902
						c46.905-9.794,95.801-12.69,142.698-2.858c46.897,9.833,91.757,33.063,122.883,69.493
						c31.126,36.43,47.242,86.62,37.978,133.632c44.934,7.703,78.645,47.2,92.747,90.553c14.103,43.354,8.939,91.055-5.172,134.406
						c72.177,42.35,135.443,110.423,157.22,191.225c21.777,80.801-1.543,175.643-67.58,227.047
						c-40.054,31.179-91.37,44.404-141.873,49.49c-126.189,12.707-256.616-22.419-359.356-96.781
						C3094.844,1436.2,3007.845,1316.674,2992.467,1190.782z"/>
				</g>
				<g>
					<g>
						<path style="fill:#6A60A6;" d="M3054.973,1143.692c-76.426,44.531-148.06,201.296-206.62,308.322l166.479,85.521
							c0,0,71.123-250.86,76.041-254.281C3095.792,1279.833,3054.973,1143.692,3054.973,1143.692z"/>
					</g>
					<g>
						<path style="fill:#6A60A6;" d="M3502.014,1177.779c-18.815-29.077-393.864-86.075-458.715-26.115
							c-38.729,35.808-69.032,268.398-60.394,363.066c8.433,92.427-1.482,449.214-1.482,449.214h567.503l-35.348-407.023
							C3513.577,1556.92,3538.611,1234.337,3502.014,1177.779z"/>
					</g>
					<g>
						<path style="fill:#FE6081;" d="M3201.837,1125.284"/>
					</g>
					<g>
						<path style="fill:#FFADBF;" d="M3377.492,1142.809c-3.304,51.405-88.621,100.808-146.745,97.071
							c-58.124-3.737-107.039-59.208-105.955-112.401c28.222-1.841,54.548-2.817,77.029-2.222l3.196-94.849l55.686-11.432
							l58.015-11.86l-13.705,125.78L3377.492,1142.809z"/>
					</g>
					<g>
						<polygon style="fill:#FF89A6;" points="3283.129,1056.841 3279.391,1052.617 3201.821,1125.257 3205.016,1030.407 
							3260.703,1018.976 						"/>
					</g>
					<g>
						<path style="fill:#FFADBF;" d="M3368.147,926.786c0,78.268-54.105,130.069-120.848,130.069
							c-66.743,0-120.848-51.801-120.848-130.069s54.105-153.365,120.848-153.365
							C3314.042,773.421,3368.147,848.518,3368.147,926.786z"/>
					</g>
					<g>
						
							<ellipse transform="matrix(0.7071 -0.7071 0.7071 0.7071 380.0364 2583.1077)" style="fill:#010101;" cx="3308.105" cy="832.809" rx="68.474" ry="128.701"/>
					</g>
					<g>
						
							<ellipse transform="matrix(0.7071 -0.7071 0.7071 0.7071 358.918 2481.1245)" style="fill:#010101;" cx="3174.441" cy="807.31" rx="83.199" ry="60.771"/>
					</g>
					<g>
						<path style="fill:#FFADBF;" d="M3597.512,1524.992v254.599c0,52.12-47.15,91.548-98.447,82.323l-514.403-106.675l82.21-83.982
							l356.177,22.495l-3.421-143.674L3597.512,1524.992z"/>
					</g>
				</g>
				<g>
					<polygon style="fill:#010101;" points="3207.548,994.331 3179.999,989.189 3194.626,909.405 3209.305,912.099 
						3197.359,977.247 3210.289,979.659 					"/>
				</g>
				<g>
					<g>
						<path style="fill:#FFADBF;" d="M2984.662,1755.239l-92.904-4.398c-37.779-1.792-68.46-29.92-74.333-66.362
							c-0.536-3.327-0.877-6.686-0.981-10.132l183.949,2.874l-22.184-23.675c-3.458-3.709-5.601-8.282-6.357-12.978
							c-1.073-6.654,0.512-13.634,4.925-19.264c8.915-11.325,25.556-12.701,36.158-2.968l53.937,52.92"/>
					</g>
				</g>
				<g>
					<path style="fill:#6A60A6;" d="M3496.038,1172.896c0,0,36.478,15.715,77.528,89.263
						c30.122,53.969,37.629,276.516,37.629,276.516l-209.761,22.249c0,0-5.262-170.698,1.091-237.761
						C3412.788,1214.838,3496.038,1172.896,3496.038,1172.896z"/>
				</g>
			</g>
			<g>
				<path style="fill:#7E5086;" d="M4156.842,2606.736c-3.462,0-6.566-2.42-7.295-5.94c-0.846-4.034,1.742-7.988,5.78-8.832
					c77.314-16.14,147.639-68.095,192.928-142.543c39.124-64.301,54.757-137.459,44.634-205.23
					c-1.327,1.228-2.675,2.442-4.045,3.643c-54.713,47.911-134.207,58.685-189.008,25.578c-30.632-18.5-52.323-53.848-56.608-92.248
					c-3.761-33.698,6.516-64.975,28.198-85.816c35.465-34.069,97.794-38.047,145.001-9.247
					c38.839,23.69,68.707,67.173,84.107,122.436c0.423,1.501,0.831,3.008,1.217,4.515c36.427-44.384,52.228-100.646,59.05-143.135
					c18.942-117.95-8.943-242.105-76.513-340.631c-67.563-98.521-173.338-169.269-290.184-194.099
					c-4.031-0.858-6.603-4.821-5.75-8.852c0.867-4.036,4.818-6.607,8.855-5.75c120.556,25.618,229.676,98.611,299.389,200.259
					c69.712,101.654,98.479,229.747,78.939,351.438c-7.58,47.201-25.866,110.735-69.72,158.883
					c14.059,74.197-1.793,155.308-44.809,226.012c-47.432,77.963-121.292,132.417-202.637,149.399
					C4157.863,2606.684,4157.345,2606.736,4156.842,2606.736z M4247.589,2081.704c-25.057,0-49.006,8.25-65.813,24.406
					c-18.316,17.6-26.959,44.353-23.716,73.401c3.783,33.887,22.747,64.973,49.488,81.126
					c49.393,29.826,121.496,19.719,171.457-24.031c3.703-3.243,7.245-6.596,10.641-10.052c-1.035-4.706-2.194-9.373-3.484-14.006
					c-14.387-51.608-41.908-91.989-77.504-113.701C4289.817,2087.352,4268.317,2081.704,4247.589,2081.704z"/>
			</g>
			<g>
				<path style="fill:#7E5086;" d="M2484.723,2330.841c-0.014,0-0.036,0-0.058,0c-162.74-1.193-316.888-106.972-379.721-256.122
					c-31.784-4.632-63.824-21.44-89.18-47.813c-33.665-35.024-52.76-81.616-65.631-118.295
					c-93.567-266.652-49.561-575.076,114.849-804.915c2.398-3.354,7.055-4.125,10.415-1.727c3.353,2.398,4.125,7.059,1.727,10.411
					c-161.625,225.948-204.889,529.151-112.91,791.287c12.375,35.254,30.64,79.944,62.308,112.894
					c20.764,21.594,46.303,36.13,71.979,41.837c-2.157-5.851-4.176-11.771-6.049-17.738c-16.807-53.534-9.453-98.673,19.678-120.745
					c17.244-13.068,41.157-15.229,63.948-5.769c25.567,10.61,44.262,33.379,47.629,58.006c6.231,45.658-31.937,93.414-81.68,102.202
					c-6.632,1.17-13.636,1.707-20.254,1.666c62.373,140.085,208.679,238.763,363.001,239.894c4.125,0.031,7.441,3.396,7.412,7.518
					C2492.158,2327.536,2488.82,2330.841,2484.723,2330.841z M2115.418,2060.865c8.126,0.55,16.187,0.171,24.015-1.21
					c42.214-7.456,74.683-47.401,69.479-85.483c-2.653-19.472-17.791-37.622-38.555-46.239c-18.09-7.507-36.033-6.102-49.218,3.881
					c-35.392,26.819-20.006,86.671-14.445,104.376C2109.31,2044.535,2112.226,2052.762,2115.418,2060.865z"/>
			</g>
		</g>
		<g>
			<g>
				<polygon style="fill:#FEBB00;" points="4126.939,1125.291 4126.939,1354.559 3848.934,1354.559 3848.934,1056.853 
					4058.501,1056.853 				"/>
			</g>
			<g>
				<polygon style="fill:#EFAC06;" points="4126.939,1125.291 4058.501,1125.291 4058.501,1056.853 				"/>
			</g>
			<g>
				<rect x="3887.5" y="1168.576" style="fill:#FFFFFF;" width="76.181" height="8.779"/>
			</g>
			<g>
				<rect x="3973.943" y="1168.576" style="fill:#FFFFFF;" width="114.43" height="8.779"/>
			</g>
			<g>
				<rect x="3887.5" y="1203.512" style="fill:#FFFFFF;" width="129.357" height="8.779"/>
			</g>
			<g>
				<rect x="4050.441" y="1203.512" style="fill:#FFFFFF;" width="37.932" height="8.779"/>
			</g>
			<g>
				<rect x="3887.5" y="1238.449" style="fill:#FFFFFF;" width="62.188" height="8.775"/>
			</g>
			<g>
				<rect x="3963.681" y="1238.449" style="fill:#FFFFFF;" width="124.692" height="8.775"/>
			</g>
			<g>
				<rect x="3887.5" y="1273.382" style="fill:#FFFFFF;" width="109.766" height="8.779"/>
			</g>
			<g>
				<rect x="4021.521" y="1273.382" style="fill:#FFFFFF;" width="66.852" height="8.779"/>
			</g>
			<g>
				<rect x="3887.5" y="1308.318" style="fill:#FFFFFF;" width="50.06" height="8.779"/>
			</g>
			<g>
				<rect x="3953.419" y="1308.318" style="fill:#FFFFFF;" width="69.968" height="8.779"/>
			</g>
			<g>
				<rect x="4056.971" y="1308.318" style="fill:#FFFFFF;" width="31.402" height="8.779"/>
			</g>
		</g>
		<g>
			<rect x="2379.351" y="1798.994" style="fill:#6A86FF;" width="319.351" height="384.207"/>
		</g>
		<g>
			
				<ellipse transform="matrix(0.7071 -0.7071 0.7071 0.7071 -595.3115 2349.9844)" style="fill:#FFFFFF;" cx="2539.026" cy="1893.597" rx="39.026" ry="39.026"/>
		</g>
		<g>
			<g>
				<rect x="2413.451" y="1970.262" style="fill:#FFFFFF;" width="252.506" height="11.283"/>
			</g>
			<g>
				<rect x="2413.451" y="2007.578" style="fill:#FFFFFF;" width="252.506" height="11.283"/>
			</g>
			<g>
				<rect x="2413.451" y="2044.894" style="fill:#FFFFFF;" width="252.506" height="11.283"/>
			</g>
			<g>
				<rect x="2413.451" y="2082.211" style="fill:#FFFFFF;" width="252.506" height="11.283"/>
			</g>
			<g>
				<rect x="2413.451" y="2119.527" style="fill:#FFFFFF;" width="252.506" height="11.283"/>
			</g>
		</g>
	</g>
	<g>
		<g>
			<g>
				<path style="fill:#D4C6FF;" d="M815.568,1419.054c13.552-8.847,25.497-19.47,35.768-31.409l31.539,4.145l28.257-57.285
					l-22.471-22.464c3.248-15.468,4.381-31.488,3.153-47.627l25.117-19.166l-20.565-60.601l-31.594,0.078
					c-8.848-13.552-19.484-25.535-31.475-35.832l4.185-31.422l-57.285-28.256l-22.477,22.431c-15.429-3.261-31.41-4.408-47.548-3.18
					l-19.272-25.169l-60.483,20.525l0.026,31.701c-13.552,8.847-25.535,19.483-35.806,31.422l-31.472-4.08l-28.257,57.284
					l22.417,22.438c-3.223,15.416-4.369,31.397-3.153,47.496l-25.184,19.232l20.565,60.601l31.688-0.066
					c8.846,13.553,19.482,25.536,31.421,35.807l-4.105,31.526l57.285,28.256l22.449-22.509c15.429,3.261,31.41,4.408,47.548,3.18
					l19.259,25.13l60.483-20.525L815.568,1419.054z M629.287,1309.089c-17.559-51.744,10.17-107.959,61.914-125.518
					c51.744-17.559,107.924,10.182,125.483,61.926c17.559,51.745-10.147,107.913-61.89,125.472
					C703.05,1388.528,646.847,1360.834,629.287,1309.089z"/>
			</g>
		</g>
		<g>
			<g>
				<path style="fill:#B4AFFF;" d="M823.509,1243.181c-18.839-55.516-79.107-85.273-134.623-66.434
					c-55.516,18.839-85.262,79.142-66.423,134.658c18.839,55.516,79.131,85.227,134.647,66.387
					C812.626,1358.953,842.348,1298.697,823.509,1243.181z M629.287,1309.089c-17.559-51.744,10.17-107.959,61.914-125.518
					c51.744-17.559,107.924,10.182,125.483,61.926c17.559,51.745-10.147,107.913-61.89,125.472
					C703.05,1388.528,646.847,1360.834,629.287,1309.089z"/>
			</g>
		</g>
	</g>
	<g>
		<g>
			<g>
				<path style="fill:#D4C6FF;" d="M1002.112,1158.68c10.833-2.849,20.999-7.215,30.353-12.811l19.806,9.614l31.074-31.445
					l-9.849-19.662c5.513-9.448,9.758-19.722,12.478-30.589l20.683-7.099l-0.263-44.291l-20.766-6.852
					c-2.849-10.834-7.216-21.027-12.84-30.409l9.615-19.721l-31.446-31.074l-19.663,9.819c-9.42-5.513-19.664-9.758-30.531-12.478
					l-7.157-20.74l-44.205,0.263l-6.91,20.824c-10.833,2.849-21.027,7.215-30.381,12.811l-19.777-9.556l-31.074,31.445l9.819,19.634
					c-5.485,9.419-9.73,19.664-12.449,30.503l-20.741,7.127l0.263,44.292l20.825,6.881c2.848,10.834,7.215,21.027,12.811,30.381
					l-9.585,19.807l31.446,31.074l19.661-9.877c9.42,5.513,19.664,9.758,30.531,12.478l7.157,20.712l44.205-0.263L1002.112,1158.68z
					 M903.806,1045.759c-0.225-37.818,30.27-68.677,68.088-68.901c37.818-0.225,68.651,30.269,68.876,68.088
					c0.225,37.819-30.244,68.651-68.062,68.876C934.89,1114.046,904.031,1083.578,903.806,1045.759z"/>
			</g>
		</g>
		<g>
			<g>
				<path style="fill:#B4AFFF;" d="M1045.758,1044.916c-0.241-40.575-33.318-73.287-73.893-73.046
					c-40.575,0.241-73.287,33.343-73.046,73.918c0.241,40.575,33.344,73.261,73.919,73.02
					C1013.312,1118.568,1045.999,1085.491,1045.758,1044.916z M903.806,1045.759c-0.225-37.818,30.27-68.677,68.088-68.901
					c37.818-0.225,68.651,30.269,68.876,68.088c0.225,37.819-30.244,68.651-68.062,68.876
					C934.89,1114.046,904.031,1083.578,903.806,1045.759z"/>
			</g>
		</g>
	</g>
</g>
</svg>
