<?xml version="1.0" encoding="utf-8"?>
<!-- Generator: Adobe Illustrator 27.5.0, SVG Export Plug-In . SVG Version: 6.00 Build 0)  -->
<svg version="1.1" id="Layer_1" xmlns="http://www.w3.org/2000/svg" xmlns:xlink="http://www.w3.org/1999/xlink" x="0px" y="0px"
	 viewBox="0 0 1364 960" style="enable-background:new 0 0 1364 960;" xml:space="preserve">
<g>
	<g>
		<g>
			
				<rect x="477.873" y="30.082" transform="matrix(-1.836970e-16 1 -1 -1.836970e-16 1099.8993 -299.743)" style="fill:#FFFFFF;" width="443.896" height="739.992"/>
		</g>
		<g>
			<rect x="329.825" y="178.13" style="fill:#FFFFFF;" width="739.992" height="443.896"/>
		</g>
		<g>
			<rect x="329.825" y="178.13" style="fill:#E0E0E6;" width="739.992" height="45.634"/>
		</g>
		<g>
			<path style="fill:#0F0F5C;" d="M1069.817,622.376c-0.193,0-0.35-0.156-0.35-0.35V178.13c0-0.193,0.157-0.35,0.35-0.35
				c0.193,0,0.35,0.156,0.35,0.35v443.896C1070.167,622.22,1070.01,622.376,1069.817,622.376z"/>
		</g>
		<polygon style="fill:#192463;" points="770.435,789.583 665.7,789.583 672.734,703.893 675.255,673.156 677.13,650.393 
			759.004,650.393 760.88,673.156 763.4,703.893 		"/>
		<g>
			<g>
				<path style="fill:#0F0F5C;" d="M1069.817,622.376H329.825c-0.193,0-0.35-0.156-0.35-0.35V178.13c0-0.193,0.157-0.35,0.35-0.35
					h739.992c0.193,0,0.35,0.156,0.35,0.35c0,0.193-0.157,0.35-0.35,0.35H330.176v443.197h739.642c0.193,0,0.35,0.156,0.35,0.35
					C1070.167,622.22,1070.01,622.376,1069.817,622.376z"/>
			</g>
		</g>
		<rect x="329.013" y="618.337" style="fill:#40C7FF;" width="741.617" height="54.814"/>
		<path style="fill:#40C7FF;" d="M856.904,826.12H579.228V795.2c0-6.37,5.164-11.534,11.534-11.534H845.37
			c6.37,0,11.534,5.164,11.534,11.534V826.12z"/>
	</g>
	<g>
		<path style="fill:#8757E6;" d="M424.525,718.297l-23.786-20.324c0-0.002,0-0.003,0-0.005c0.973-8.361,0.983-16.756,0.101-24.972
			l23.932-20.436c4.051-3.459,5.426-9.126,3.41-14.058l-7.714-18.873c-2.031-4.969-7.04-8.056-12.392-7.636l-31.224,2.45
			l-0.017-0.007c-5.128-6.486-10.984-12.432-17.538-17.721c0,0,0,0,0,0l2.472-31.38c0.418-5.31-2.617-10.291-7.529-12.352
			l-18.8-7.89c-4.95-2.077-10.675-0.717-14.162,3.364l-20.347,23.814c-0.003-0.001-0.006-0.001-0.009-0.001
			c-8.356-0.996-16.703-1.01-24.922-0.126c-0.005,0.001-0.012,0.002-0.017,0.002l-20.441-23.937
			c-3.459-4.051-9.127-5.426-14.058-3.41l-18.872,7.715c-4.968,2.031-8.056,7.041-7.636,12.392l2.447,31.184
			c-6.491,5.147-12.443,11.022-17.739,17.596l-31.367-2.472c-5.311-0.418-10.29,2.617-12.352,7.529l-7.89,18.8
			c-2.077,4.95-0.718,10.675,3.363,14.162l23.781,20.321c0,0.003,0,0.006-0.001,0.009c-0.973,8.362-0.984,16.758-0.101,24.975
			l-23.926,20.432c-4.052,3.459-5.426,9.127-3.411,14.058l7.715,18.873c2.03,4.969,7.04,8.056,12.392,7.636l31.215-2.45
			c5.127,6.486,10.983,12.431,17.546,17.697l0.02,0.009l-2.475,31.403c-0.419,5.31,2.617,10.29,7.529,12.352l18.799,7.89
			c4.95,2.077,10.675,0.718,14.162-3.363l20.328-23.791c0.005,0.001,0.01,0.001,0.014,0.002c8.366,0.974,16.734,0.997,24.932,0.104
			c0.008-0.001,0.015-0.002,0.023-0.004l20.44,23.937c3.459,4.052,9.127,5.426,14.058,3.411l18.872-7.714
			c4.969-2.031,8.057-7.041,7.636-12.392l-2.448-31.186c6.491-5.147,12.442-11.021,17.736-17.594l31.37,2.472
			c5.31,0.419,10.291-2.617,12.352-7.529l7.89-18.799C429.966,727.509,428.607,721.784,424.525,718.297z M356.865,713.909
			c-15.967,38.043-59.75,55.939-97.793,39.973c-38.043-15.966-55.939-59.75-39.972-97.793c15.966-38.043,59.75-55.939,97.792-39.973
			C354.935,632.083,372.831,675.867,356.865,713.909z"/>
	</g>
	<g>
		<path style="fill:#040E59;" d="M248.393,372.464c-4.245-5.85-5.694-14.13-2.606-20.79c2.287-4.931,7.292-8.476,12.428-8.951
			c0.018-0.414,0.057-0.831,0.118-1.25c0.945-6.459,6.756-10.957,12.977-10.046c0.527,0.077,1.038,0.193,1.535,0.34
			c1.082-3.481,3.879-6.521,7.306-7.612c5.257-1.674,11.203,0.776,14.614,5.189c1.959-3,5.661-4.673,9.09-4.106
			c3.426,0.566,9.248,2.363,10.338,7.802c0.334-0.225,7.88-3.316,14.642,0.707c7.915,4.71,9.927,10.7,9.351,20.191
			c3.866,1.066,8.109,4.781,9.114,8.795c1.005,4.014-0.21,8.566-3.071,11.511c3.231,3.32,4.169,8.807,2.247,13.131
			c-1.922,4.323-5.784,6.814-10.343,6.481c3.398,3.007,4.321,8.617,2.087,12.681c-2.234,4.064-7.379,6.136-11.631,4.684
			c0.221,3.937-2.28,7.905-5.858,9.292c-3.578,1.388-7.937,0.08-10.207-3.062c-0.662,4.123-5.108,6.712-9.126,6.495
			c-4.018-0.216-7.611-2.521-10.841-4.975c-4.857,4.763-12.459,4.371-18.069,0.733c-2.525-1.638-2.795-3.838-2.795-3.838
			s-3.511,0.041-5.015,0.324c-2.534,0.477-5.868-1.513-7.519-3.536c-1.651-2.024-2.16-4.986-1.291-7.503
			c-3.515-1.569-5.787-6.926-4.585-10.722c-6.546-3.079-9.901-7.344-8.817-14.752C243.133,375.12,247.544,371.46,248.393,372.464z"
			/>
		<path style="fill:#FFC812;" d="M289.077,373.44c-1.629-10.365,5.308-21.911,16.22-22.901c10.722-1.186,19.786,8.452,20.432,18.838
			c3.539-12.833-7.813-26.054-21.06-24.422C291.214,345.988,282.721,361.587,289.077,373.44z"/>
		<g>
			<path style="fill:#FFAB91;" d="M291.598,376.904c0,0-3.614-6.877-8.422-3.095c-4.834,3.804,0.935,18.291,7.665,11.512
				L291.598,376.904z"/>
		</g>
		<path style="fill:#FFAB91;" d="M324.357,368.508c-1.664-5.132-8.249-11.5-15.187-12.062c-7.168-0.581-14.702,4.818-16.849,10.374
			c-2.168,5.611-7.06,17.904-0.648,25.263c3.862,4.433,8.612,4.269,7.994,11.438c-0.21,2.43-3.052,7.682-3.909,9.202
			c4.721,13.427,19.301,7.602,13.551-2.553c-0.686-1.587-1.346-3.164-1.568-5.437c-0.251-2.566,0.832-4.404,3.313-5.106
			c3.978-1.126,6.859-1.014,12.092-5.647C330.704,387.292,326.236,374.302,324.357,368.508z"/>
		<path style="fill:#040E59;" d="M301.248,397.963c1.517,2.302,6.954,5.105,6.954,5.105s0.881-2.534,2.719-3.279
			c-1.074,0.418-2.932,0.412-4.875,0.048C304.14,399.48,302.148,398.778,301.248,397.963z"/>
		<g>
			<path style="fill:#FFFFFF;" d="M314.857,389.727c-0.049,0.934-0.63,2.098-1.532,3.065c-1.058,1.131-2.564,1.996-4.179,1.911
				c-1.595-0.084-2.979-1.073-3.913-2.284c-0.823-1.07-1.293-2.314-1.243-3.264C307.565,390.425,311.187,390.622,314.857,389.727z"
				/>
			<path style="fill:#FFFFFF;" d="M313.325,392.792c-1.058,1.131-2.564,1.996-4.179,1.911c-1.595-0.084-2.979-1.073-3.913-2.284
				c1.02-0.417,2.509-0.637,4.145-0.551C310.952,391.951,312.357,392.299,313.325,392.792z"/>
		</g>
		<path style="fill:#040E59;" d="M292.123,358.82c3.019-3.877,7.782-6.179,12.656-6.8c6.814-0.868,14.142,1.606,18.469,6.941
			c2.12,2.614,1.639,4.978,2.043,8.32l-0.663,2.9c-5.918-1.352-12.711-6.903-15.745-12.161c-2.345,3.376-4.802,6.721-7.882,9.444
			c-3.08,2.722-6.523,6.492-10.611,6.926C288.404,369.895,289.104,362.697,292.123,358.82z"/>
		<g>
			<path style="fill:#FFC800;" d="M283.878,402.894c-0.016,0-0.032-0.001-0.048-0.002c-0.167-0.017-0.314-0.115-0.393-0.263
				l-5.613-10.51c-0.103-0.191-0.069-0.427,0.081-0.583l8.043-8.335c0.107-0.109,0.256-0.167,0.411-0.149
				c0.152,0.016,0.289,0.1,0.371,0.229l5.644,8.908c0.115,0.182,0.101,0.416-0.034,0.583l-8.073,9.936
				C284.171,402.826,284.028,402.894,283.878,402.894z M278.877,391.969l5.087,9.525l7.372-9.073l-5.111-8.067L278.877,391.969z"/>
		</g>
		<g>
			<g>
				<path style="fill:#001559;" d="M304.678,372.728c-0.057,0-0.114-0.02-0.162-0.06c-0.78-0.659-1.587-1.342-2.529-1.751
					c-0.935-0.406-2-0.525-3-0.336c-1.001,0.188-1.951,0.685-2.673,1.401c-0.098,0.096-0.257,0.098-0.353-0.002
					c-0.097-0.098-0.096-0.256,0.002-0.353c0.793-0.786,1.835-1.332,2.933-1.538c1.096-0.206,2.265-0.075,3.291,0.369
					c1.01,0.44,1.845,1.146,2.653,1.829c0.105,0.089,0.119,0.246,0.029,0.352C304.82,372.697,304.749,372.728,304.678,372.728z"/>
			</g>
			<g>
				<path style="fill:#001559;" d="M309.912,386.979c-0.1,0-0.193-0.06-0.232-0.158c-0.051-0.128,0.012-0.273,0.14-0.324
					c0.708-0.28,1.44-0.571,1.989-1.089c0.473-0.447,0.848-1.202,0.619-1.881c-0.133-0.395-0.442-0.71-0.768-1.044
					c-0.093-0.094-0.185-0.189-0.274-0.285c-1.506-1.638-1.967-4.127-1.147-6.195c0.051-0.129,0.196-0.19,0.325-0.141
					c0.129,0.051,0.191,0.196,0.14,0.324c-0.751,1.895-0.329,4.174,1.05,5.674c0.085,0.092,0.174,0.183,0.263,0.273
					c0.351,0.358,0.715,0.729,0.885,1.233c0.264,0.781-0.03,1.726-0.749,2.404c-0.618,0.584-1.431,0.906-2.148,1.19
					C309.974,386.973,309.943,386.979,309.912,386.979z"/>
			</g>
			<g>
				<path style="fill:#FFFFFF;" d="M294.35,378.082c0,0,2.635,6.771,11.882,1.043c0,0-2.276-5.904-6.863-5.815
					S294.35,378.082,294.35,378.082z"/>
				<g>
					<path style="fill:#001559;" d="M306.232,379.375c-0.1,0-0.195-0.06-0.233-0.16c-0.022-0.057-2.235-5.655-6.528-5.655
						c-0.032,0-0.064,0-0.096,0.001c-4.305,0.083-4.757,4.362-4.774,4.545c-0.013,0.137-0.14,0.249-0.272,0.226
						c-0.138-0.013-0.239-0.135-0.226-0.272c0.004-0.05,0.507-4.907,5.263-4.999c0.037-0.001,0.073-0.001,0.109-0.001
						c4.635,0,6.897,5.73,6.992,5.976c0.049,0.129-0.015,0.273-0.144,0.323C306.293,379.369,306.262,379.375,306.232,379.375z"/>
				</g>
				<path style="fill:#040E59;" d="M305.232,377.706c0.037,1.889-1.552,3.451-3.548,3.49c-1.996,0.039-3.645-1.461-3.681-3.35
					c-0.037-1.889,1.552-3.451,3.548-3.49C303.547,374.318,305.195,375.817,305.232,377.706z"/>
				<path style="fill:#FFFFFF;" d="M298.398,376.004c-0.008-0.413,0.32-0.754,0.733-0.762c0.413-0.008,0.754,0.32,0.762,0.733
					c0.008,0.413-0.32,0.754-0.733,0.762C298.747,376.745,298.406,376.417,298.398,376.004z"/>
				<g>
					<path style="fill:#001559;" d="M294.247,378.337c-0.624,0-1.383-0.39-1.683-0.697c-0.096-0.099-0.094-0.258,0.005-0.354
						c0.098-0.097,0.256-0.094,0.353,0.004c0.242,0.249,0.941,0.599,1.405,0.543c0.131-0.021,0.259,0.088,0.272,0.227
						c0.013,0.137-0.089,0.259-0.226,0.272C294.332,378.335,294.29,378.337,294.247,378.337z"/>
				</g>
			</g>
			<g>
				<path style="fill:#001559;" d="M315.84,373.013c-0.075,0-0.149-0.034-0.199-0.099c-0.084-0.109-0.063-0.267,0.047-0.351
					c0.843-0.643,1.715-1.307,2.741-1.692c1.046-0.392,2.219-0.463,3.305-0.204c1.085,0.261,2.098,0.858,2.852,1.683
					c0.093,0.103,0.086,0.261-0.016,0.354c-0.102,0.095-0.26,0.087-0.353-0.016c-0.687-0.752-1.61-1.297-2.6-1.534
					c-0.989-0.236-2.059-0.17-3.012,0.187c-0.957,0.359-1.8,1.001-2.614,1.622C315.946,372.996,315.893,373.013,315.84,373.013z"/>
			</g>
			<g>
				<path style="fill:#FFFFFF;" d="M326.077,378.591c0,0-2.971,6.63-11.919,0.445c0,0,2.569-5.782,7.146-5.463
					C325.881,373.893,326.077,378.591,326.077,378.591z"/>
				<g>
					<path style="fill:#001559;" d="M314.157,379.286c-0.034,0-0.068-0.007-0.102-0.021c-0.126-0.057-0.183-0.204-0.127-0.33
						c0.108-0.241,2.691-5.955,7.393-5.61c4.745,0.331,5.003,5.207,5.005,5.256c0.005,0.139-0.102,0.255-0.239,0.261
						c-0.161-0.016-0.255-0.102-0.261-0.239c-0.008-0.183-0.245-4.48-4.54-4.779c-4.331-0.314-6.875,5.259-6.9,5.315
						C314.344,379.231,314.253,379.286,314.157,379.286z"/>
				</g>
				<path style="fill:#040E59;" d="M318.361,377.664c-0.135,1.942,1.362,3.628,3.345,3.766c1.983,0.138,3.7-1.324,3.836-3.266
					c0.135-1.942-1.362-3.628-3.345-3.766C320.214,374.26,318.496,375.722,318.361,377.664z"/>
				<path style="fill:#FFFFFF;" d="M319.312,375.096c-0.416-0.085-0.822,0.182-0.907,0.598c-0.085,0.416,0.182,0.822,0.598,0.907
					c0.416,0.085,0.822-0.182,0.907-0.598C319.996,375.587,319.728,375.181,319.312,375.096z"/>
				<g>
					<path style="fill:#001559;" d="M326.252,378.854c-0.07,0-0.141-0.005-0.211-0.016c-0.137-0.02-0.232-0.146-0.212-0.282
						c0.02-0.138,0.15-0.239,0.283-0.212c0.357,0.049,0.71-0.093,1.082-0.436c0.103-0.092,0.26-0.086,0.353,0.014
						c0.094,0.102,0.087,0.26-0.014,0.354C327.117,378.659,326.687,378.854,326.252,378.854z"/>
				</g>
			</g>
		</g>
		<g>
			<path style="fill:#FFAB91;" d="M391.112,817.626l1.993-51.804l-13.127-24.844l44.012-20.335c0,0,26.542,40.552,28.319,43.231
				c7.925,11.952,55.136,7.807,60.1,52.791l-80.526,0.638l-13.155-14.886l0.327,14.987L391.112,817.626z"/>
			<path style="fill:#040E59;" d="M452.384,764.2l5.419,3.984c-10.254,3.364-18.641,11.951-21.764,22.281
				c-2.121-1.44-4.241-2.88-6.362-4.321C433.227,774.094,440.335,767.226,452.384,764.2z"/>
			<path style="fill:#040E59;" d="M420.022,776.386c0,0,12.026,12.133,25.369,14.811c6.764,1.357,23.634-19.55,36.553-13.989
				c13.936,5.999,27.889,16.112,30.466,39.457l-80.526,0.638l-13.155-14.886l0.326,14.988l-27.943,0.221l1.993-51.804
				C403.644,765.285,413.155,767.409,420.022,776.386z"/>
			
				<rect x="391.145" y="817.515" transform="matrix(1 -0.0079 0.0079 1 -6.501 3.237)" style="fill:#FFC233;" width="27.944" height="8.494"/>
			
				<rect x="431.731" y="816.984" transform="matrix(1 -0.0079 0.0079 1 -6.4949 3.7679)" style="fill:#FFC233;" width="80.714" height="8.494"/>
		</g>
		<path style="fill:#FFAB91;" d="M353.107,435.784c10.209,15.794,19.537,38.228,30.25,57.571
			c15.262,32.551-19.972,56.256-39.798,22.1c-11.464-20.419-20.929-34.834-25.748-58.429
			C313.809,437.434,337.019,410.896,353.107,435.784z"/>
		<path style="fill:#FFAB91;" d="M401.045,432.401c0,0-30.142,36.565-44.1,57.658c-23.069,35.954,7.524,64.314,30.539,34.672
			c21.858-28.152,41.583-75.025,41.583-75.025L401.045,432.401z"/>
		<polygon style="fill:#040E59;" points="346.01,454.625 335.713,495.89 344.694,508.854 		"/>
		<path style="fill:#FF6B3D;" d="M345.835,453.202c-2.494,23.29-9.439,50.637-15.581,72.54c-9.246,5.039-57.328-5.489-57.328-5.489
			c-2.207-25.584-7.211-69.468-18.274-94.523c4.071-14.657,52.742-12.449,66.54-8.658
			C348.531,421.644,348.095,429.458,345.835,453.202z"/>
		<path style="fill:#FFC233;" d="M325.036,526.011l74.894-0.407c39.296-0.214,44.224,53.383,4.928,53.597l-74.894,0.407
			C284.658,579.854,279.729,526.257,325.036,526.011z"/>
		<polygon style="fill:#040E59;" points="321.774,553.825 360.584,579.608 333.5,579.608 		"/>
		<path style="fill:#FFC233;" d="M372.474,549.615c17.123-43.148,73.932-19.849,60.821,17.49l-44.148,109.141l-57.397-23.901
			L372.474,549.615z"/>
		<path style="fill:#FFC233;" d="M308.751,648.6l-40.038-68.099c-24.22-41.195,26.1-75.526,50.321-34.33l40.038,68.099
			C380.079,650,329.758,684.331,308.751,648.6z"/>
		<path style="fill:#FFC233;" d="M278.913,507.431l33.786,5.237l4.655,60.546h-52.2
			C250.408,546.898,278.913,507.431,278.913,507.431z"/>
		<path style="fill:#040E59;" d="M324.569,521.88h-63.5c-1.24,0-2.246-1.006-2.246-2.246v-4.635c0-1.24,1.006-2.246,2.246-2.246
			h63.5c1.241,0,2.246,1.006,2.246,2.246v4.635C326.815,520.875,325.809,521.88,324.569,521.88z"/>
		<polygon style="fill:#040E59;" points="280.32,444.094 276.071,488.216 297.691,496.508 271.141,504.463 264.254,461.386 		"/>
		<path style="fill:#FFAB91;" d="M243.468,431.959c-12.827,17.643-28.462,51.914-33.63,80.396
			c-6.646,36.622,39.845,35.9,49.651,3.848c6.163-19.328,22.116-59.524,20.954-78.095
			C278.678,409.924,254.684,416.53,243.468,431.959z"/>
		<path style="fill:#FFC233;" d="M312.326,656.431c-28.747-47.334,24.589-83.67,59.562-26.084l65.447,110.172l-53.454,31.757
			L312.326,656.431z"/>
		<path style="fill:#FF6B3D;" d="M307.025,408.791c1.769-0.272,5.925-0.67,6.114,6.526c0.109,4.155-2.158,10.362-7.087,11.137
			c-4.93,0.775-13.062-11.098-12.669-12.452c0.392-1.355,1.757-7.536,6.984-5.915C301.918,408.569,307.025,408.791,307.025,408.791z
			"/>
		<g>
			<g>
				<path style="fill:#FFAB91;" d="M466.973,411.074c-1.697-1.373-3.732-1.34-5.577-0.455l0.231-0.286
					c1.9-2.349,2.026-7.339-0.324-9.239c-1.697-1.372-4.45-0.001-6.295,0.884l0.78-0.964c1.9-2.349,1.536-5.794-0.814-7.694
					c-2.349-1.9-5.794-1.536-7.694,0.814l-1.572,1.944c1.187-2.263,0.657-5.121-1.406-6.79c-2.349-1.9-5.794-1.536-7.694,0.814
					c-7.5,10.239-15.185,23.983-22.243,25.885l1.096-9.948c0.957-8.836-7.913-14.553-10.767-6.987c0,0-4.302,14.25-5.711,23.71
					c-0.465,3.119-0.825,15.66-0.825,15.66l25.603,22.405c23.18-10.523,36.086-25.466,43.143-40.658
					C468.804,417.817,469.322,412.974,466.973,411.074z"/>
			</g>
			<g>
				<path style="fill:#001559;" d="M425.289,421.904c-0.071,0-0.141-0.03-0.191-0.089c-0.089-0.105-0.076-0.263,0.029-0.352
					c6.794-5.754,13.594-14.374,20.211-25.62c0.07-0.119,0.224-0.158,0.342-0.089c0.119,0.07,0.159,0.224,0.088,0.343
					c-6.646,11.295-13.482,19.957-20.319,25.747C425.404,421.885,425.346,421.904,425.289,421.904z"/>
			</g>
			<g>
				<path style="fill:#001559;" d="M434.142,427.194c-0.073,0-0.147-0.032-0.196-0.095c-0.086-0.107-0.068-0.266,0.04-0.35
					c6.972-5.539,14.039-13.941,21.006-24.973c0.074-0.116,0.229-0.15,0.345-0.077c0.117,0.073,0.152,0.228,0.078,0.345
					c-6.996,11.079-14.102,19.522-21.118,25.096C434.251,427.177,434.196,427.194,434.142,427.194z"/>
			</g>
			<g>
				<path style="fill:#001559;" d="M439.99,436.366c-0.074,0-0.146-0.032-0.196-0.095c-0.086-0.108-0.068-0.266,0.041-0.351
					c6.972-5.537,14.039-13.938,21.006-24.972c0.074-0.116,0.229-0.149,0.345-0.077c0.117,0.073,0.152,0.228,0.078,0.345
					c-6.997,11.08-14.102,19.523-21.118,25.095C440.1,436.349,440.045,436.366,439.99,436.366z"/>
			</g>
			<g>
				<path style="fill:#001559;" d="M415.481,437.341c-0.014,0-0.028-0.001-0.042-0.004c-0.136-0.022-0.228-0.152-0.204-0.288
					c1.028-6.011,0.634-12.272-1.139-18.108c-0.04-0.132,0.035-0.271,0.167-0.311c0.134-0.037,0.272,0.034,0.312,0.167
					c1.795,5.909,2.194,12.249,1.154,18.336C415.706,437.255,415.6,437.341,415.481,437.341z"/>
			</g>
		</g>
		<g>
			<path style="fill:#FFAB91;" d="M283.002,497.24l20.625-9.493c0,0,0.03-0.079,0.082-0.236c0.016-0.036,0.03-0.079,0.044-0.123
				c0.103-0.321,0.29-0.839,0.515-1.502c0.01-0.026,0.02-0.053,0.03-0.079c1.724-5.497,1.499-9.942-0.748-11.672
				c-1.385-1.058-3.173-0.817-3.846-0.727C290.817,474.593,284.01,494.241,283.002,497.24z"/>
			<g>
				<path style="fill:#040E59;" d="M311.314,452.918c0,0,66.414,3.733,66.908,5.527c0.494,1.794-38.537,85.223-39.163,85.175
					c-0.626-0.047-57.5-5.516-57.5-5.516L311.314,452.918z"/>
			</g>
			<polygon style="fill:#FFC233;" points="325.867,460.379 357.942,462.261 363.788,450.534 331.713,448.653 			"/>
			<g>
				<path style="fill:#FFAB91;" d="M283.693,493.413c6.892-2.722,39.097-18.81,48.161-15.925c1.581,0.503,4.821,1.607,5.676,5.769
					c0.289,1.407-0.121,4.266-0.775,4.959c0.437,0.23,2.956,1.609,3.875,4.784c0.925,3.197-0.477,5.782-0.722,6.216
					c2.534,1.183,4.125,3.807,4.023,6.617c-0.097,2.659-1.695,5.052-4.102,6.145c0.699,1.238,1.399,2.972,1.214,4.947
					c-0.79,8.415-17.01,13.158-25.024,14.484c-5.204,0.861-25.093,2.451-36.778-5.238
					C277.15,514.36,285.785,505.224,283.693,493.413z"/>
			</g>
			<g>
				<path style="fill:#001559;" d="M309.729,495.818c-0.132,0-0.243-0.104-0.249-0.236c-0.007-0.139,0.098-0.256,0.236-0.264
					c8.406-0.447,26.768-7.266,26.953-7.335c0.128-0.048,0.273,0.017,0.322,0.147c0.048,0.129-0.018,0.272-0.147,0.321
					c-0.185,0.069-18.618,6.914-27.101,7.366C309.738,495.818,309.734,495.818,309.729,495.818z"/>
			</g>
			<g>
				<path style="fill:#001559;" d="M312.699,506.518c-0.132,0-0.243-0.103-0.25-0.236c-0.007-0.139,0.098-0.256,0.236-0.264
					c8.407-0.447,26.769-7.266,26.953-7.335c0.129-0.049,0.273,0.018,0.322,0.147c0.048,0.129-0.018,0.272-0.147,0.321
					c-0.185,0.069-18.618,6.914-27.102,7.366C312.708,506.518,312.703,506.518,312.699,506.518z"/>
			</g>
			<g>
				<path style="fill:#001559;" d="M313.774,520.27c-0.132,0-0.243-0.104-0.249-0.236c-0.007-0.139,0.098-0.256,0.236-0.264
					c8.406-0.447,26.768-7.267,26.953-7.336c0.128-0.048,0.273,0.019,0.322,0.147c0.048,0.129-0.017,0.272-0.147,0.321
					c-0.185,0.069-18.618,6.915-27.101,7.367C313.782,520.27,313.778,520.27,313.774,520.27z"/>
			</g>
		</g>
		<g>
			<path style="fill:#FFAB91;" d="M286.073,492.643c0,0-45.227,3.465-58.232,6.746c-21.749,6.069-25.041,41.462,0.859,42.201
				c19.332,0.551,63.96-13.791,63.96-13.791L286.073,492.643z"/>
		</g>
		<g>
			<path style="fill:#001559;" d="M360.585,579.958c-0.043,0-0.088-0.008-0.13-0.024c-0.18-0.072-0.267-0.276-0.194-0.456
				c13.623-33.911,14.344-33.961,14.616-33.981c0.189-0.003,0.361,0.132,0.374,0.325c0.01,0.138-0.061,0.263-0.173,0.327
				c-0.954,1.148-8.972,20.659-14.167,33.59C360.855,579.875,360.723,579.958,360.585,579.958z"/>
		</g>
		<g>
			<path style="fill:#001559;" d="M393.891,667.734c-0.115,0-0.228-0.057-0.295-0.16l-42.122-65.537
				c-0.104-0.163-0.058-0.379,0.105-0.484c0.163-0.104,0.379-0.057,0.484,0.105l42.122,65.537c0.105,0.163,0.058,0.379-0.105,0.484
				C394.021,667.717,393.955,667.734,393.891,667.734z"/>
		</g>
	</g>
	<g>
		<g>
			<path style="fill:#040E59;" d="M1171.914,826.12h-224.96c-4.465,0-8.084-6.533-8.084-14.593V466.266
				c0-8.06,3.619-14.593,8.084-14.593h224.96c4.465,0,8.084,6.533,8.084,14.593v345.261
				C1179.998,819.586,1176.379,826.12,1171.914,826.12z"/>
		</g>
		<g>
			<path style="fill:#FFC233;" d="M1128.194,826.12h-224.96c-4.465,0-8.084-6.533-8.084-14.593V466.266
				c0-8.06,3.619-14.593,8.084-14.593h224.96c4.465,0,8.084,6.533,8.084,14.593v345.261
				C1136.278,819.586,1132.658,826.12,1128.194,826.12z"/>
		</g>
		<g>
			<g>
				<path style="fill:#FFFFFF;" d="M1114.356,554.066H918.12c-1.487,0-2.692-2.77-2.692-6.186v-57.902
					c0-3.417,1.205-6.186,2.692-6.186h196.236c1.487,0,2.692,2.77,2.692,6.186v57.903
					C1117.047,551.297,1115.842,554.066,1114.356,554.066z"/>
			</g>
			<g>
				<path style="fill:#E0E0E6;" d="M949.621,541.809h-18.218c-1.028,0-1.861-1.554-1.861-3.472v-33.333
					c0-1.917,0.833-3.471,1.861-3.471h18.218c1.028,0,1.861,1.554,1.861,3.471v33.333
					C951.482,540.255,950.649,541.809,949.621,541.809z"/>
			</g>
			<g>
				<path style="fill:#E0E0E6;" d="M963.015,542.246h-1.903c-1.016,0-1.84-1.536-1.84-3.431v-33.413c0-1.895,0.824-3.431,1.84-3.431
					h1.903c1.016,0,1.84,1.536,1.84,3.431v33.413C964.855,540.71,964.031,542.246,963.015,542.246z"/>
			</g>
			<g>
				<path style="fill:#E0E0E6;" d="M978.594,542.246h-1.903c-1.016,0-1.84-1.536-1.84-3.432v-33.413c0-1.895,0.823-3.431,1.84-3.431
					h1.903c1.016,0,1.84,1.536,1.84,3.431v33.413C980.434,540.71,979.61,542.246,978.594,542.246z"/>
			</g>
			<g>
				<path style="fill:#E0E0E6;" d="M994.173,542.246h-1.903c-1.016,0-1.84-1.536-1.84-3.432v-33.413c0-1.895,0.824-3.431,1.84-3.431
					h1.903c1.016,0,1.84,1.536,1.84,3.431v33.413C996.013,540.71,995.189,542.246,994.173,542.246z"/>
			</g>
			<g>
				<path style="fill:#E0E0E6;" d="M1065.906,518.929c0-2.068,1.442-3.744,3.221-3.744s3.221,1.676,3.221,3.744
					c0,2.068-1.442,3.745-3.221,3.745S1065.906,520.997,1065.906,518.929z"/>
			</g>
			<g>
				<path style="fill:#FF6B3D;" d="M1076.698,518.929c0-2.068,1.442-3.744,3.221-3.744c1.779,0,3.221,1.676,3.221,3.744
					c0,2.068-1.442,3.745-3.221,3.745C1078.139,522.674,1076.698,520.997,1076.698,518.929z"/>
			</g>
			<g>
				<path style="fill:#E0E0E6;" d="M1087.489,518.929c0-2.068,1.442-3.744,3.221-3.744s3.221,1.676,3.221,3.744
					c0,2.068-1.442,3.745-3.221,3.745S1087.489,520.997,1087.489,518.929z"/>
			</g>
			<g>
				<path style="fill:#E0E0E6;" d="M1098.281,518.929c0-2.068,1.442-3.744,3.221-3.744c1.779,0,3.221,1.676,3.221,3.744
					c0,2.068-1.442,3.745-3.221,3.745C1099.722,522.674,1098.281,520.997,1098.281,518.929z"/>
			</g>
			<g>
				<path style="fill:#E0E0E6;" d="M1057.802,522.037h-48.708c-0.901,0-1.632-0.863-1.632-1.928v-1.994
					c0-1.065,0.731-1.928,1.632-1.928h48.708c0.901,0,1.632,0.863,1.632,1.928v1.994
					C1059.434,521.174,1058.704,522.037,1057.802,522.037z"/>
			</g>
		</g>
		<g>
			<g>
				<path style="fill:#FFFFFF;" d="M1114.356,659.171H918.12c-1.487,0-2.692-2.77-2.692-6.186v-57.902
					c0-3.417,1.205-6.186,2.692-6.186h196.236c1.487,0,2.692,2.77,2.692,6.186v57.903
					C1117.047,656.402,1115.842,659.171,1114.356,659.171z"/>
			</g>
			<g>
				<path style="fill:#E0E0E6;" d="M949.621,643.953h-18.218c-1.028,0-1.861-1.554-1.861-3.472v-33.333
					c0-1.917,0.833-3.471,1.861-3.471h18.218c1.028,0,1.861,1.554,1.861,3.471v33.333
					C951.482,642.399,950.649,643.953,949.621,643.953z"/>
			</g>
			<g>
				<path style="fill:#E0E0E6;" d="M963.015,644.39h-1.903c-1.016,0-1.84-1.536-1.84-3.431v-33.413c0-1.895,0.824-3.431,1.84-3.431
					h1.903c1.016,0,1.84,1.536,1.84,3.431v33.413C964.855,642.854,964.031,644.39,963.015,644.39z"/>
			</g>
			<g>
				<path style="fill:#E0E0E6;" d="M978.594,644.39h-1.903c-1.016,0-1.84-1.536-1.84-3.432v-33.413c0-1.895,0.823-3.431,1.84-3.431
					h1.903c1.016,0,1.84,1.536,1.84,3.431v33.413C980.434,642.854,979.61,644.39,978.594,644.39z"/>
			</g>
			<g>
				<path style="fill:#E0E0E6;" d="M994.173,644.39h-1.903c-1.016,0-1.84-1.536-1.84-3.432v-33.413c0-1.895,0.824-3.431,1.84-3.431
					h1.903c1.016,0,1.84,1.536,1.84,3.431v33.413C996.013,642.854,995.189,644.39,994.173,644.39z"/>
			</g>
			<g>
				<path style="fill:#E0E0E6;" d="M1065.906,621.073c0-2.068,1.442-3.744,3.221-3.744s3.221,1.676,3.221,3.744
					c0,2.068-1.442,3.745-3.221,3.745S1065.906,623.141,1065.906,621.073z"/>
			</g>
			<g>
				<path style="fill:#FF6B3D;" d="M1076.698,621.073c0-2.068,1.442-3.744,3.221-3.744c1.779,0,3.221,1.676,3.221,3.744
					c0,2.068-1.442,3.745-3.221,3.745C1078.139,624.818,1076.698,623.141,1076.698,621.073z"/>
			</g>
			<g>
				<path style="fill:#E0E0E6;" d="M1087.489,621.073c0-2.068,1.442-3.744,3.221-3.744s3.221,1.676,3.221,3.744
					c0,2.068-1.442,3.745-3.221,3.745S1087.489,623.141,1087.489,621.073z"/>
			</g>
			<g>
				<path style="fill:#E0E0E6;" d="M1098.281,621.073c0-2.068,1.442-3.744,3.221-3.744c1.779,0,3.221,1.676,3.221,3.744
					c0,2.068-1.442,3.745-3.221,3.745C1099.722,624.818,1098.281,623.141,1098.281,621.073z"/>
			</g>
			<g>
				<path style="fill:#E0E0E6;" d="M1057.802,624.181h-48.708c-0.901,0-1.632-0.863-1.632-1.928v-1.994
					c0-1.065,0.731-1.928,1.632-1.928h48.708c0.901,0,1.632,0.863,1.632,1.928v1.994
					C1059.434,623.318,1058.704,624.181,1057.802,624.181z"/>
			</g>
		</g>
		<g>
			<g>
				<path style="fill:#FFFFFF;" d="M1114.356,761.315H918.12c-1.487,0-2.692-2.77-2.692-6.186v-57.902
					c0-3.417,1.205-6.186,2.692-6.186h196.236c1.487,0,2.692,2.77,2.692,6.186v57.903
					C1117.047,758.546,1115.842,761.315,1114.356,761.315z"/>
			</g>
			<g>
				<path style="fill:#E0E0E6;" d="M949.621,746.097h-18.218c-1.028,0-1.861-1.554-1.861-3.472v-33.333
					c0-1.917,0.833-3.471,1.861-3.471h18.218c1.028,0,1.861,1.554,1.861,3.471v33.333
					C951.482,744.543,950.649,746.097,949.621,746.097z"/>
			</g>
			<g>
				<path style="fill:#E0E0E6;" d="M963.015,746.534h-1.903c-1.016,0-1.84-1.536-1.84-3.431V709.69c0-1.895,0.824-3.431,1.84-3.431
					h1.903c1.016,0,1.84,1.536,1.84,3.431v33.413C964.855,744.998,964.031,746.534,963.015,746.534z"/>
			</g>
			<g>
				<path style="fill:#E0E0E6;" d="M978.594,746.534h-1.903c-1.016,0-1.84-1.536-1.84-3.432V709.69c0-1.895,0.823-3.431,1.84-3.431
					h1.903c1.016,0,1.84,1.536,1.84,3.431v33.413C980.434,744.998,979.61,746.534,978.594,746.534z"/>
			</g>
			<g>
				<path style="fill:#E0E0E6;" d="M994.173,746.534h-1.903c-1.016,0-1.84-1.536-1.84-3.432V709.69c0-1.895,0.824-3.431,1.84-3.431
					h1.903c1.016,0,1.84,1.536,1.84,3.431v33.413C996.013,744.998,995.189,746.534,994.173,746.534z"/>
			</g>
			<g>
				<path style="fill:#E0E0E6;" d="M1065.906,723.217c0-2.068,1.442-3.744,3.221-3.744s3.221,1.676,3.221,3.744
					s-1.442,3.745-3.221,3.745S1065.906,725.285,1065.906,723.217z"/>
			</g>
			<g>
				<path style="fill:#FF6B3D;" d="M1076.698,723.217c0-2.068,1.442-3.744,3.221-3.744c1.779,0,3.221,1.676,3.221,3.744
					s-1.442,3.745-3.221,3.745C1078.139,726.962,1076.698,725.285,1076.698,723.217z"/>
			</g>
			<g>
				<path style="fill:#E0E0E6;" d="M1087.489,723.217c0-2.068,1.442-3.744,3.221-3.744s3.221,1.676,3.221,3.744
					s-1.442,3.745-3.221,3.745S1087.489,725.285,1087.489,723.217z"/>
			</g>
			<g>
				<path style="fill:#E0E0E6;" d="M1098.281,723.217c0-2.068,1.442-3.744,3.221-3.744c1.779,0,3.221,1.676,3.221,3.744
					s-1.442,3.745-3.221,3.745C1099.722,726.962,1098.281,725.285,1098.281,723.217z"/>
			</g>
			<g>
				<path style="fill:#E0E0E6;" d="M1057.802,726.325h-48.708c-0.901,0-1.632-0.863-1.632-1.928v-1.994
					c0-1.065,0.731-1.928,1.632-1.928h48.708c0.901,0,1.632,0.863,1.632,1.928v1.994
					C1059.434,725.462,1058.704,726.325,1057.802,726.325z"/>
			</g>
		</g>
	</g>
	<g>
		<g>
			<path style="fill:#FFAB91;" d="M1021.765,261.802c0.12,0.258,1.969,4.062,5.945,4.573c3.451,0.443,7.003-1.787,8.356-5.489
				c-0.486-2.368-2.616-19.872-3.102-22.23l-10.393,5.234c-0.094,2.099-0.189,4.198-0.283,6.302
				C1022.112,254.061,1021.936,257.929,1021.765,261.802z"/>
			<path style="fill:#040E59;" d="M1022.374,249.062c5.094,7.012,10.308-5.699,9.822-8.057l-9.871,0.632
				C1022.231,243.737,1022.468,246.958,1022.374,249.062z"/>
		</g>
		<path style="fill:#FFAB91;" d="M1006.099,223.238c0.076,9.19,4.644,20.514,12.887,23.974c2.368,0.994,4.531,0.732,5.944,0.561
			c8.54-1.034,17.773-9.583,18.741-20.361c0.85-9.475-4.585-21.806-14.65-23.15c-7.532-1.006-18.584,2.4-21.378,8.908
			C1006.317,216.256,1006.063,218.916,1006.099,223.238z"/>
		<path style="fill:#040E59;" d="M1030.798,185.903c13.49-1.018,23.09,5.99,24.976,12.534c2.548,8.841,2.841,30.066-14.494,37.064
			c3.171-8.035,4.365-13.126,0.707-12.599c-2.357,0.758-2.383,5.717-3.554,4.689c-0.046-25.808-6.517-8.681-19.358-21.944
			c-0.399,2.189-3.336,5.547-5.514,5.956c-6.885,2.365-7.461,11.635-7.461,11.635c-9.158-6.731,0.195-20.214,0.195-20.214
			s-9.997-14.327-0.73-23.158C1014.64,171.218,1019.355,184.189,1030.798,185.903z"/>
		<path style="fill:#FFAB91;" d="M1038.272,227.087c-1.105,3.815,0.417,7.609,3.401,8.473c2.984,0.865,6.299-1.527,7.404-5.343
			c1.106-3.815-0.417-7.609-3.401-8.473C1042.693,220.88,1039.378,223.272,1038.272,227.087z"/>
		<g>
			<g>
				<path style="fill:#FFFFFF;" d="M1016.204,235.428c0.041,1.011,0.612,2.277,1.505,3.335c1.047,1.236,2.545,2.192,4.16,2.121
					c1.595-0.07,2.986-1.122,3.93-2.419c0.832-1.147,1.312-2.486,1.271-3.514C1023.485,236.279,1019.863,236.445,1016.204,235.428z"
					/>
				<path style="fill:#FFFFFF;" d="M1017.708,238.763c1.047,1.236,2.545,2.192,4.16,2.121c1.595-0.07,2.986-1.122,3.93-2.419
					c-1.016-0.464-2.501-0.721-4.137-0.65C1020.087,237.885,1018.68,238.243,1017.708,238.763z"/>
			</g>
			<g>
				<path style="fill:#001559;" d="M1026.912,220.415c-0.071,0-0.142-0.03-0.191-0.089c-0.089-0.105-0.075-0.264,0.03-0.352
					c0.73-0.615,1.486-1.251,2.396-1.643c0.927-0.399,1.982-0.516,2.975-0.328c0.992,0.188,1.933,0.685,2.647,1.395
					c0.098,0.098,0.098,0.256,0.001,0.355c-0.097,0.097-0.255,0.098-0.353,0.001c-0.645-0.642-1.493-1.088-2.389-1.258
					c-0.894-0.172-1.847-0.066-2.683,0.295c-0.842,0.363-1.569,0.975-2.271,1.566
					C1027.026,220.396,1026.969,220.415,1026.912,220.415z"/>
			</g>
			<g>
				<path style="fill:#001559;" d="M1022.178,233.22c-0.031,0-0.062-0.006-0.093-0.018c-0.646-0.258-1.378-0.55-1.936-1.079
					c-0.652-0.619-0.917-1.479-0.676-2.191c0.155-0.458,0.485-0.793,0.804-1.117c0.08-0.081,0.16-0.162,0.236-0.245
					c1.236-1.339,1.619-3.377,0.951-5.072c-0.051-0.129,0.012-0.273,0.141-0.324c0.128-0.05,0.274,0.012,0.324,0.141
					c0.737,1.87,0.315,4.118-1.048,5.596c-0.08,0.086-0.163,0.171-0.247,0.256c-0.292,0.297-0.568,0.577-0.687,0.927
					c-0.204,0.601,0.128,1.27,0.546,1.667c0.489,0.464,1.144,0.726,1.778,0.977c0.128,0.052,0.19,0.196,0.14,0.325
					C1022.372,233.16,1022.278,233.22,1022.178,233.22z"/>
			</g>
			<g>
				<path style="fill:#FFFFFF;" d="M1036.189,225.224c0,0-2.382,6.084-10.687,0.916c0,0,2.057-5.305,6.183-5.216
					C1035.81,221.013,1036.189,225.224,1036.189,225.224z"/>
				<g>
					<path style="fill:#001559;" d="M1025.503,226.39c-0.03,0-0.06-0.006-0.09-0.017c-0.129-0.051-0.193-0.195-0.143-0.324
						c0.085-0.221,2.133-5.376,6.311-5.376c0.037,0,0.073,0,0.11,0.001c4.299,0.093,4.744,4.484,4.748,4.528
						c0.012,0.138-0.089,0.259-0.227,0.271c-0.13,0.009-0.258-0.089-0.271-0.227c-0.015-0.163-0.413-3.99-4.26-4.073
						c-0.032-0.001-0.064-0.001-0.095-0.001c-3.838,0-5.829,5.006-5.849,5.058C1025.697,226.329,1025.603,226.39,1025.503,226.39z"
						/>
				</g>
				<path style="fill:#040E59;" d="M1026.622,224.773c-0.036,1.698,1.389,3.106,3.184,3.145c1.795,0.039,3.28-1.307,3.317-3.005
					c0.037-1.698-1.389-3.106-3.184-3.145C1028.143,221.73,1026.658,223.075,1026.622,224.773z"/>
				<path style="fill:#FFFFFF;" d="M1033.252,223.625c0.008-0.371-0.286-0.679-0.658-0.687c-0.371-0.008-0.679,0.286-0.687,0.658
					c-0.008,0.371,0.287,0.679,0.658,0.687C1032.937,224.291,1033.244,223.996,1033.252,223.625z"/>
				<g>
					<path style="fill:#001559;" d="M1036.283,225.479c-0.04,0-0.079-0.001-0.118-0.005c-0.138-0.013-0.238-0.135-0.226-0.273
						c0.013-0.138,0.148-0.247,0.273-0.226c0.394,0.037,1.034-0.264,1.245-0.477c0.097-0.098,0.255-0.101,0.354-0.004
						c0.098,0.097,0.1,0.255,0.003,0.354C1037.54,225.127,1036.851,225.479,1036.283,225.479z"/>
				</g>
			</g>
			<g>
				<path style="fill:#001559;" d="M1016.875,220.65c-0.053,0-0.107-0.017-0.152-0.052c-0.73-0.559-1.485-1.137-2.341-1.459
					c-0.85-0.322-1.806-0.382-2.694-0.173c-0.886,0.211-1.712,0.696-2.328,1.367c-0.093,0.103-0.252,0.109-0.353,0.016
					c-0.102-0.094-0.108-0.252-0.015-0.354c0.682-0.744,1.598-1.282,2.581-1.516c0.983-0.234,2.044-0.165,2.986,0.191
					c0.925,0.348,1.709,0.949,2.468,1.53c0.11,0.084,0.13,0.24,0.047,0.351C1017.024,220.616,1016.95,220.65,1016.875,220.65z"/>
			</g>
			<g>
				<path style="fill:#FFFFFF;" d="M1007.659,225.622c0,0,2.659,5.967,10.717,0.423c0,0-2.299-5.204-6.416-4.926
					C1007.843,221.398,1007.659,225.622,1007.659,225.622z"/>
				<g>
					<path style="fill:#001559;" d="M1018.376,226.295c-0.096,0-0.188-0.056-0.229-0.148c-0.023-0.052-2.299-5.054-6.17-4.778
						c-3.84,0.26-4.061,4.102-4.069,4.266c-0.006,0.134-0.117,0.238-0.25,0.238c-0.003,0-0.007,0-0.011,0
						c-0.138-0.007-0.245-0.123-0.239-0.261c0.002-0.045,0.245-4.451,4.535-4.741c4.25-0.275,6.565,4.855,6.662,5.074
						c0.056,0.126-0.001,0.273-0.128,0.329C1018.445,226.288,1018.41,226.295,1018.376,226.295z"/>
				</g>
				<path style="fill:#040E59;" d="M1013.93,224.71c0.118,1.746-1.232,3.26-3.016,3.381c-1.784,0.121-3.325-1.197-3.443-2.944
					s1.232-3.26,3.016-3.38C1012.27,221.646,1013.812,222.964,1013.93,224.71z"/>
				<path style="fill:#FFFFFF;" d="M1013.121,222.418c0.374-0.076,0.739,0.166,0.815,0.54c0.076,0.374-0.166,0.739-0.54,0.815
					s-0.739-0.166-0.815-0.54C1012.505,222.859,1012.747,222.494,1013.121,222.418z"/>
				<g>
					<path style="fill:#001559;" d="M1007.504,225.883c-0.398,0-0.792-0.178-1.171-0.529c-0.101-0.094-0.107-0.252-0.013-0.354
						c0.094-0.1,0.253-0.105,0.353-0.014c0.329,0.306,0.643,0.424,0.951,0.389c0.136-0.024,0.264,0.075,0.283,0.212
						c0.02,0.137-0.076,0.264-0.212,0.282C1007.63,225.879,1007.567,225.883,1007.504,225.883z"/>
				</g>
			</g>
		</g>
		<g>
			<g>
				<path style="fill:#FFAB91;" d="M860.186,274.475c1.176-1.717,3.044-2.242,4.971-1.937l-0.289-0.198
					c-2.377-1.628-3.853-6.153-2.224-8.53c1.176-1.717,4.065-1.215,5.992-0.91l-0.975-0.668c-2.377-1.628-2.984-4.875-1.355-7.251
					c1.628-2.377,4.875-2.983,7.252-1.355l1.966,1.347c-1.702-1.744-1.997-4.5-0.568-6.587c1.628-2.377,4.875-2.983,7.252-1.355
					c9.645,7.309,20.415,17.769,27.382,17.581l-3.715-8.79c-3.284-7.811,3.26-15.454,7.931-9.321c0,0,7.817,11.846,11.685,20.104
					c1.275,2.723,11.822,26.838,11.822,26.838l-24.076,14.697c-24.048-3.291-39.915-13.423-50.506-25.377
					C860.352,281.135,858.558,276.852,860.186,274.475z"/>
			</g>
			<g>
				<path style="fill:#001559;" d="M901.154,273.022c-0.034,0-0.067-0.007-0.1-0.021c-7.826-3.425-16.436-9.476-25.59-17.982
					c-0.101-0.095-0.107-0.253-0.013-0.354c0.095-0.102,0.253-0.106,0.354-0.014c9.112,8.47,17.675,14.489,25.449,17.891
					c0.126,0.056,0.184,0.203,0.129,0.33C901.342,272.966,901.251,273.022,901.154,273.022z"/>
			</g>
			<g>
				<path style="fill:#001559;" d="M894.51,280.269c-0.031,0-0.063-0.006-0.093-0.018c-7.931-3.178-16.727-8.954-26.143-17.17
					c-0.104-0.091-0.115-0.249-0.024-0.353c0.09-0.104,0.249-0.114,0.353-0.024c9.373,8.179,18.121,13.927,25.999,17.082
					c0.128,0.052,0.19,0.197,0.139,0.325C894.703,280.209,894.609,280.269,894.51,280.269z"/>
			</g>
			<g>
				<path style="fill:#001559;" d="M891.668,290.244c-0.031,0-0.063-0.006-0.093-0.018c-7.933-3.179-16.729-8.956-26.143-17.17
					c-0.104-0.091-0.115-0.249-0.024-0.353c0.09-0.105,0.249-0.115,0.353-0.024c9.372,8.178,18.119,13.925,25.999,17.082
					c0.128,0.052,0.19,0.197,0.139,0.325C891.861,290.185,891.767,290.244,891.668,290.244z"/>
			</g>
			<g>
				<path style="fill:#001559;" d="M914.327,284.449c-0.092,0-0.181-0.051-0.224-0.139c-2.612-5.279-3.977-11.183-3.949-17.073
					c0-0.138,0.112-0.249,0.25-0.249c0,0,0.001,0,0.001,0c0.138,0.001,0.25,0.113,0.249,0.251
					c-0.028,5.813,1.319,11.64,3.897,16.849c0.061,0.124,0.011,0.274-0.113,0.335C914.402,284.441,914.364,284.449,914.327,284.449z
					"/>
			</g>
		</g>
		<path style="fill:#FF6B3D;" d="M1058.8,365.958c0,0,16.728,55.824,3.89,82.86c-9.517,20.044-95.697,9.064-95.697,9.064
			l17.444-92.702L1058.8,365.958z"/>
		<path style="fill:#040E59;" d="M1040.154,446.69v12.627c0,0,17.837-2.314,21.397-8.58
			C1061.551,450.736,1048.413,458.842,1040.154,446.69z"/>
		<g>
			<path style="fill:#040E59;" d="M887.453,563.562c0,0,1.338,25.38-4.258,30.424c-10.988,9.902-58.348,5.833-63.813,50.631
				l127.357,0.993l-1.852-83.377L887.453,563.562z"/>
			<path style="fill:#FF6B3D;" d="M819.381,644.617l-0.05,6.371c-0.029,3.742,2.98,6.799,6.722,6.828l113.58,0.885
				c3.742,0.029,6.799-2.98,6.828-6.722l0.05-6.371L819.381,644.617z"/>
			<g>
				<path style="fill:#FFFFFF;" d="M918.272,645.449c-0.025,0-0.051-0.003-0.076-0.01c-0.16-0.042-0.256-0.206-0.214-0.366
					c1.086-4.133,3.57-8.092,7.183-11.449c5.511-5.122,12.986-8.151,20.508-8.312c0.156,0.024,0.303,0.128,0.306,0.293
					c0.003,0.166-0.128,0.304-0.293,0.307c-7.377,0.157-14.707,3.128-20.112,8.151c-3.53,3.28-5.954,7.14-7.011,11.162
					C918.527,645.36,918.405,645.449,918.272,645.449z"/>
			</g>
			<g>
				<path style="fill:#FFFFFF;" d="M853.193,625.062c-0.104,0-0.204-0.053-0.26-0.15c-3.419-5.878-9.036-10.606-15.409-12.975
					c-0.155-0.058-0.234-0.23-0.177-0.386c0.058-0.155,0.231-0.233,0.386-0.177c6.502,2.415,12.231,7.24,15.719,13.236
					c0.083,0.143,0.035,0.326-0.108,0.41C853.296,625.049,853.244,625.062,853.193,625.062z"/>
			</g>
			<g>
				<path style="fill:#FFFFFF;" d="M868.254,615.675c-0.103,0-0.202-0.052-0.258-0.147c-3.095-5.191-10.304-10.773-15.694-10.451
					c-0.156,0.002-0.307-0.117-0.316-0.282c-0.01-0.166,0.117-0.308,0.282-0.317c5.685-0.334,12.994,5.292,16.244,10.744
					c0.084,0.142,0.038,0.326-0.104,0.411C868.359,615.661,868.306,615.675,868.254,615.675z"/>
			</g>
			<path style="fill:#FFC233;" d="M866.538,616.843c0.014-1.859,1.533-3.354,3.392-3.34c1.859,0.014,3.354,1.533,3.34,3.392
				c-0.015,1.859-1.533,3.354-3.392,3.34C868.019,620.22,866.524,618.701,866.538,616.843z"/>
			<path style="fill:#FFC233;" d="M849.793,625.187c0.014-1.859,1.533-3.354,3.392-3.34c1.859,0.014,3.354,1.533,3.34,3.392
				c-0.014,1.859-1.533,3.354-3.392,3.34C851.274,628.565,849.779,627.046,849.793,625.187z"/>
		</g>
		<g>
			<path style="fill:#040E59;" d="M983.03,564.084c0,0,1.363,25.379-4.228,30.428c-10.978,9.913-28.947,28.801-27.42,50.984
				l91.015,0.577l-1.935-83.375L983.03,564.084z"/>
			<path style="fill:#FF6B3D;" d="M951.382,645.495l-0.043,6.371c-0.026,3.742,2.987,6.796,6.729,6.821l77.238,0.483
				c3.742,0.026,6.796-2.987,6.821-6.729l0.043-6.371L951.382,645.495z"/>
			<g>
				<path style="fill:#FFFFFF;" d="M1025.533,646.02c-0.015,0-0.03-0.001-0.046-0.003c-0.164-0.025-0.276-0.179-0.251-0.342
					c0.631-4.122,2.064-8.079,4.144-11.445c3.199-5.18,7.546-8.261,11.925-8.453c0.17,0.002,0.306,0.121,0.313,0.287
					c0.007,0.165-0.121,0.305-0.287,0.313c-4.178,0.184-8.348,3.161-11.441,8.168c-2.038,3.299-3.442,7.179-4.061,11.221
					C1025.807,645.913,1025.679,646.02,1025.533,646.02z"/>
			</g>
			<g>
				<path style="fill:#FFFFFF;" d="M966.426,607.566c-0.102,0-0.202-0.052-0.258-0.146c-0.084-0.142-0.038-0.326,0.104-0.411
					c6.211-3.704,20.93-2.455,28.729-0.176c0.159,0.047,0.25,0.213,0.204,0.372c-0.046,0.159-0.214,0.248-0.372,0.204
					c-7.698-2.25-22.188-3.505-28.254,0.115C966.531,607.552,966.478,607.566,966.426,607.566z"/>
			</g>
			<path style="fill:#FFC233;" d="M994.158,610.159c-1.226-1.497-0.869-3.604,0.796-4.706c1.665-1.102,4.009-0.781,5.234,0.716
				s0.869,3.604-0.796,4.706C997.728,611.977,995.384,611.656,994.158,610.159z"/>
			<g>
				<path style="fill:#FFFFFF;" d="M992.337,625.785c-0.039,0-0.078-0.007-0.115-0.022c-9.823-4.09-26.874-5.956-35.633-2.097
					c-0.151,0.069-0.329-0.002-0.396-0.153c-0.067-0.151,0.002-0.329,0.153-0.396c9.032-3.979,25.961-2.131,36.105,2.091
					c0.153,0.064,0.226,0.239,0.162,0.393C992.566,625.716,992.454,625.785,992.337,625.785z"/>
			</g>
			<path style="fill:#FFC233;" d="M989.309,627.487c-1.161-1.497-0.823-3.604,0.754-4.706c1.578-1.102,3.798-0.781,4.959,0.716
				c1.161,1.497,0.823,3.604-0.754,4.706C992.69,629.304,990.47,628.984,989.309,627.487z"/>
		</g>
		<path style="fill:#FF6B3D;" d="M929.37,473.287l81.945-24.326c49.572-14.715,34.644-81.127-14.928-66.412l-86.416,24.801
			C866.975,420.114,886.374,486.051,929.37,473.287z"/>
		<path style="fill:#040E59;" d="M994.807,413.905l0.292,38.731l-46.828,15.099C948.271,431.848,994.807,413.905,994.807,413.905z"
			/>
		<path style="fill:#FF6B3D;" d="M951.688,453.983c1.264-59.036-69.607-54.988-72.123-9.958l-4.984,154.376l72.821,0.713
			L951.688,453.983z"/>
		<path style="fill:#FF6B3D;" d="M1040.47,456.142c-0.076-57.457-77.387-60.881-77.295,9.021l1.676,132.946l79.358,0.378
			L1040.47,456.142z"/>
		<path style="fill:#8757E6;" d="M972.165,270.721c-12.938,16.623-22.4,42.249-34.68,63.651
			c-17.502,35.936,16.482,70.379,39.208,32.561c13.141-22.597,30.283-48.187,35.827-74.056
			C1017.122,271.396,994.771,241.679,972.165,270.721z"/>
		<path style="fill:#040E59;" d="M980.221,292.194c-6.074,26.699-10.016,55.572-12.724,85.7c5.334-3.462,9.299-9.481,16.68-18.872
			L980.221,292.194z"/>
		<path style="fill:#8757E6;" d="M984.872,380.566c12.529,11.196,87.621,1.132,87.621,1.132l-2.813-77.033
			c0,0-0.617-44.946-0.627-44.946c-10.334-3.192-24.049-6.391-33.794-7.239l-12.916,0.063c-14.521-0.113-36.272,5.436-37.423,9.982
			C979.849,282.549,977.305,373.804,984.872,380.566z"/>
		<path style="fill:#BDA3F0;" d="M980.714,356.647c36.897,9.196,72.018,8.642,106.964,0.608l0.151-15.166
			c-35.723,8.646-71.617,8.355-107.689-1.074L980.714,356.647z"/>
		<path style="fill:#BDA3F0;" d="M980.126,328.985c36.896,9.196,72.017,8.642,106.964,0.608l0.151-15.166
			c-35.723,8.646-70.602,8.672-106.674-0.757L980.126,328.985z"/>
		<polygon style="fill:#040E59;" points="1052.869,298.819 1073.623,332.665 1076.103,349.212 1078.036,382.727 1027.702,384.509 
			1063.766,356.407 		"/>
		<path style="fill:#8757E6;" d="M1086.149,271.543c12.506,18.35,33.894,58.714,40.728,80.671
			c11.076,37.272-36.567,39.554-49.109,7.061c-6.554-20.678-33.79-77.997-34.1-80.473
			C1048.108,249.484,1075.764,256.305,1086.149,271.543z"/>
		<g>
			<path style="fill:#C2421F;" d="M1022.383,577.366l-1.609-140.332l0.475-0.029c20.866-1.284,35.513-8.765,36.102-14.946
				l0.995,0.096c-0.711,7.466-17.065,14.522-36.561,15.818l1.599,139.382L1022.383,577.366z"/>
		</g>
		<g>
			
				<rect x="970.704" y="578.999" transform="matrix(1 -0.0069 0.0069 1 -3.9746 6.9313)" style="fill:#C2421F;" width="63.728" height="1"/>
		</g>
		<path style="fill:#FFFFFF;" d="M1028.962,281.065c0-1.328-1.077-2.405-2.406-2.405s-2.405,1.077-2.405,2.405
			s1.077,2.405,2.405,2.405S1028.962,282.393,1028.962,281.065z"/>
		<path style="fill:#FFFFFF;" d="M1027.702,296.414c0-1.328-1.077-2.405-2.406-2.405s-2.405,1.077-2.405,2.405
			s1.077,2.406,2.405,2.406S1027.702,297.742,1027.702,296.414z"/>
		<path style="fill:#8757E6;" d="M938.002,289.087c0,0,22.852,43.815,29.413,64.498c10.539,35.089-30.847,44.98-43.1,15.135
			c-11.637-28.345-24.368-60.571-24.368-60.571L938.002,289.087z"/>
		<path style="fill:#FFAB91;" d="M1035.259,252.481c0,0-1.788,11.001-9.905,10.506c-5.297-0.323-3.011-10.443-3.011-10.443
			L1035.259,252.481z"/>
		<g>
			<path style="fill:#040E59;" d="M1039.248,418.766c-0.003,1.75-1.425,3.166-3.174,3.162l-45.46-0.086l-105.896-0.2
				c-1.378-0.003-2.596-0.896-3.014-2.209l-24.258-76.362c-0.65-2.046,0.879-4.132,3.026-4.128l101.557,0.192
				c1.376,0.003,2.593,0.893,3.012,2.204l22.987,71.962c0.419,1.311,1.636,2.202,3.012,2.204l45.047,0.085
				C1037.835,415.595,1039.251,417.016,1039.248,418.766L1039.248,418.766z"/>
		</g>
		<g>
			<g>
				<g>
					<g>
						<path style="fill:#FFAB91;" d="M1027.847,426.808c1.121-0.544,2.069-1.462,2.636-2.681l11.076-21.733
							c1.306-2.808,0.087-6.144-2.722-7.449c-2.808-1.306-6.144-0.088-7.449,2.721l-11.076,21.733
							c-1.306,2.808-0.087,6.143,2.721,7.449C1024.624,427.588,1026.383,427.517,1027.847,426.808z"/>
					</g>
				</g>
				<g>
					<g>
						<path style="fill:#FFAB91;" d="M1015.617,378.118c6.279-9.62,33.53-3.561,38.599-3.789l18.018,21.186
							c-8.463,26.066-26.785,11.437-41.256,20.135C1022.909,420.5,1015.617,378.118,1015.617,378.118z"/>
					</g>
				</g>
				<g>
					<g>
						<path style="fill:#FFAB91;" d="M1018.083,423.177c0.952-0.569,1.745-1.424,2.233-2.512l12.582-23.602
							c1.27-2.824,0.009-6.144-2.815-7.414c-2.825-1.27-6.145-0.009-7.414,2.816l-12.582,23.602c-1.27,2.825-0.01,6.144,2.815,7.414
							C1014.64,424.261,1016.564,424.085,1018.083,423.177z"/>
					</g>
				</g>
				<g>
					<g>
						<path style="fill:#FFAB91;" d="M1008.629,419.99c0.936-0.559,1.719-1.397,2.21-2.461l14.507-26.846
							c1.298-2.812,0.071-6.144-2.741-7.442c-2.812-1.298-6.144-0.071-7.442,2.741l-14.507,26.846
							c-1.298,2.812-0.071,6.143,2.741,7.442C1005.145,421.077,1007.093,420.908,1008.629,419.99z"/>
					</g>
				</g>
				<g>
					<g>
						<path style="fill:#FFAB91;" d="M1000.899,412.247c1.043-0.472,1.797-1.079,8.256-10.241
							c10.945-15.524,15.731-17.298,16.392-17.478c6.986,1.249,9.011-9.739,1.994-11.034c-7.081-1.441-14.388,5.641-26.617,20.735
							c-5.317,6.563-7.343,9.205-7.586,9.632C990.095,408.487,996.2,414.465,1000.899,412.247z"/>
					</g>
				</g>
			</g>
			<g>
				<path style="fill:#001559;" d="M1001.597,411.583c-0.047,0-0.095-0.014-0.138-0.041c-0.115-0.076-0.147-0.231-0.071-0.347
					l14.695-22.267c0.075-0.116,0.231-0.146,0.346-0.071c0.115,0.076,0.147,0.231,0.071,0.347l-14.695,22.267
					C1001.758,411.544,1001.678,411.583,1001.597,411.583z"/>
			</g>
			<g>
				<path style="fill:#001559;" d="M1009.813,418.835c-0.044,0-0.089-0.012-0.13-0.036c-0.118-0.072-0.155-0.226-0.083-0.344
					l13.935-22.874c0.072-0.118,0.226-0.154,0.343-0.084c0.118,0.072,0.155,0.226,0.083,0.344l-13.936,22.874
					C1009.98,418.792,1009.897,418.835,1009.813,418.835z"/>
			</g>
			<g>
				<path style="fill:#001559;" d="M1020.377,421.582c-0.04,0-0.081-0.01-0.119-0.03c-0.122-0.065-0.167-0.218-0.101-0.339
					l8.657-15.946c0.066-0.122,0.22-0.166,0.339-0.101c0.122,0.065,0.167,0.218,0.101,0.339l-8.657,15.946
					C1020.551,421.535,1020.466,421.582,1020.377,421.582z"/>
			</g>
			<path style="fill:#8757E6;" d="M1048.235,374.411c0,0,36.252-18.873,50.682-23.893c24.5-7.899,44.001,25.515,18.92,40.353
				c-12.332,7.296-50.301,14.689-50.301,14.689C1067.38,393.036,1061.082,383.705,1048.235,374.411z"/>
		</g>
	</g>
	<g>
		<g>
			<path style="fill:#FFC508;" d="M527.96,396.209l272.002-0.078c4.771-0.001,8.638-3.87,8.636-8.641l-0.026-90.358
				c-0.003-9.262-7.513-16.768-16.775-16.765l-263.87,0.076c-4.771,0.001-8.638,3.87-8.636,8.641l0.029,98.489
				C519.321,392.344,523.189,396.21,527.96,396.209z"/>
		</g>
		<g>
			<path style="fill:#FFFFFF;" d="M782.91,373.749l-242.603,0.069c-4.622,0.001-8.371-3.745-8.372-8.367l-0.017-61.11
				c-0.001-4.622,3.745-8.371,8.367-8.372l242.603-0.069c4.622-0.001,8.371,3.745,8.372,8.367l0.017,61.11
				C791.279,369.999,787.532,373.747,782.91,373.749z"/>
		</g>
		<g>
			<path style="fill:#FFC508;" d="M653.797,334.749L653.797,334.749c0.002,6.534,6.051,11.83,13.512,11.827l128.284-0.037
				c13.672-0.004,24.429,10.224,23.304,22.158L803.92,527.555c-1.001,10.617-11.129,18.788-23.292,18.792l-234.307,0.068
				c-12.163,0.004-22.296-8.162-23.303-18.778l-17.091-180.169c-0.053-0.562-0.08-1.126-0.08-1.69l-0.006-20.31
				c-0.003-11.308,10.46-20.478,23.371-20.482l90.552-0.026C638.555,304.954,648.561,313.438,653.797,334.749z"/>
		</g>
		<g>
			<path style="fill:#0F0F5C;" d="M795.592,346.889C795.592,346.889,795.592,346.889,795.592,346.889l-203.291-0.605
				c-0.193,0-0.35-0.157-0.349-0.351c0-0.193,0.157-0.349,0.35-0.349c0,0,0,0,0.001,0l203.289,0.605c0.193,0,0.35,0.157,0.349,0.351
				C795.942,346.733,795.785,346.889,795.592,346.889z"/>
		</g>
		<g>
			<g>
				<path style="fill:#FFFFFF;" d="M648.414,365.675h36.153c13.556,0,24.546,10.989,24.546,24.546v51.565h-11.726v-50.108
					c0-7.885-6.392-14.277-14.277-14.277h-33.238c-7.885,0-14.277,6.392-14.277,14.277v50.108h-11.726v-51.565
					C623.869,376.664,634.858,365.675,648.414,365.675z"/>
			</g>
			<g>
				<path style="fill:#FFFFFF;" d="M735.751,432.095v18.839c0,38.252-31.009,69.261-69.261,69.261l0,0
					c-38.252,0-69.261-31.009-69.261-69.261v-18.839c0-11.256,9.125-20.382,20.381-20.382h97.76
					C726.626,411.714,735.751,420.839,735.751,432.095z"/>
			</g>
			<g>
				<path style="fill:#FFC508;" d="M693.338,461.089c0-13.892-11.261-25.153-25.153-25.153c-13.892,0-25.153,11.262-25.153,25.153
					c0,13.892,11.261,25.153,25.153,25.153C682.076,486.242,693.338,474.981,693.338,461.089z"/>
			</g>
			<g>
				<path style="fill:#FFFFFF;" d="M660.921,453.934c0-4.143,3.469-7.476,7.661-7.253c3.731,0.198,6.756,3.304,6.864,7.04
					c0.079,2.726-1.35,5.118-3.509,6.425l1.318,16.628c0.054,0.682-0.485,1.266-1.169,1.266h-7.801
					c-0.684,0-1.223-0.584-1.169-1.266l1.318-16.628C662.331,458.873,660.921,456.571,660.921,453.934z"/>
			</g>
		</g>
	</g>
	<g>
		<path style="fill:#0F0F5C;" d="M921.327,877.695H809.868c-0.193,0-0.35-0.156-0.35-0.35c0-0.193,0.157-0.35,0.35-0.35h111.459
			c0.193,0,0.35,0.156,0.35,0.35C921.677,877.538,921.52,877.695,921.327,877.695z"/>
	</g>
	<g>
		<path style="fill:#0F0F5C;" d="M561.039,877.695h-37.54c-0.193,0-0.35-0.156-0.35-0.35c0-0.193,0.157-0.35,0.35-0.35h37.54
			c0.193,0,0.35,0.156,0.35,0.35C561.389,877.538,561.232,877.695,561.039,877.695z"/>
	</g>
	<g>
		<path style="fill:#0F0F5C;" d="M1245.039,826.469H129.821c-0.193,0-0.35-0.156-0.35-0.35c0-0.193,0.157-0.35,0.35-0.35h1115.218
			c0.193,0,0.35,0.156,0.35,0.35C1245.389,826.313,1245.232,826.469,1245.039,826.469z"/>
	</g>
	<g>
		<g>
			<path style="fill:#40C7FF;" d="M152.93,274.003c1.984,29.781,27.734,52.314,57.515,50.33c10.352-0.69,19.824-4.256,27.699-9.861
				l27.427,4.259l-8.79-27.638c3.09-7.443,4.566-15.69,3.994-24.276c-1.984-29.781-27.735-52.314-57.515-50.33
				C173.479,218.471,150.946,244.222,152.93,274.003z"/>
		</g>
		<g>
			<path style="fill:#FFFFFF;" d="M245.655,243.124c-18.888,8.697-34.017,22.5-47.296,37.606
				c-7.314-4.488-14.885-8.501-23.213-11.187l-0.672,0.718c7.401,6.619,19.449,23.77,27.083,30.329
				c14.994-15.369,30.34-41.095,44.843-56.817L245.655,243.124z"/>
		</g>
	</g>
	<g>
		<g>
			<path style="fill:#40C7FF;" d="M966.066,101.244H822.954c-7.116,0-12.885,5.769-12.885,12.885v60.121
				c0,7.116,5.769,12.885,12.885,12.885h83.576l34.751,25.275v-25.275h24.785c7.116,0,12.885-5.769,12.885-12.885v-60.121
				C978.951,107.013,973.182,101.244,966.066,101.244z"/>
		</g>
		<g>
			<path style="fill:#FFFFFF;" d="M845.935,144.041l13.374-13.382c0.68-0.68,1.054-1.584,1.053-2.547
				c0-0.963-0.375-1.867-1.054-2.545c-0.68-0.681-1.585-1.055-2.547-1.055c-0.962,0-1.866,0.375-2.546,1.056l-15.92,15.929
				c-0.68,0.68-1.055,1.584-1.054,2.547c0,0.948,0.385,1.876,1.056,2.546l15.928,15.92c0.681,0.681,1.586,1.055,2.548,1.055
				c0.962,0,1.866-0.375,2.546-1.056c0.679-0.679,1.052-1.583,1.052-2.547c0-0.963-0.375-1.868-1.054-2.546L845.935,144.041z"/>
			<path style="fill:#FFFFFF;" d="M947.984,141.47l-15.929-15.92c-0.68-0.68-1.584-1.055-2.547-1.054
				c-0.963,0-1.867,0.375-2.546,1.055c-0.681,0.68-1.056,1.585-1.055,2.548c0,0.962,0.375,1.866,1.056,2.546l13.381,13.374
				l-13.373,13.381c-0.681,0.68-1.055,1.586-1.055,2.548s0.375,1.866,1.055,2.545c0.681,0.681,1.585,1.055,2.547,1.055
				c0.962,0,1.866-0.376,2.546-1.056l15.919-15.928c0.671-0.67,1.056-1.599,1.056-2.548
				C949.04,143.053,948.664,142.148,947.984,141.47z"/>
			<path style="fill:#FFFFFF;" d="M903.874,126.785c-0.352-0.896-1.032-1.601-1.912-1.983c-0.458-0.2-0.943-0.302-1.44-0.301
				c-1.433,0-2.729,0.849-3.301,2.163l-13.882,31.854c-0.793,1.82,0.043,3.947,1.862,4.74c0.457,0.2,0.942,0.301,1.44,0.301
				c1.433,0,2.729-0.849,3.302-2.163l13.881-31.853C904.208,128.66,904.226,127.682,903.874,126.785z"/>
		</g>
	</g>
	<g>
		<path style="fill:#8757E6;" d="M541.892,240.739H308.686c-8.31,0-15.046-6.736-15.046-15.046V97.351
			c0-8.31,6.736-15.046,15.046-15.046h233.206c8.31,0,15.046,6.736,15.046,15.046v128.342
			C556.938,234.003,550.202,240.739,541.892,240.739z"/>
		<rect x="430.197" y="163.238" style="fill:#FFFFFF;" width="17.656" height="37.899"/>
		<rect x="457.115" y="183.481" style="fill:#FF6B3D;" width="17.656" height="17.656"/>
		<rect x="484.034" y="169.809" style="fill:#FFFFFF;" width="17.656" height="31.328"/>
		<rect x="516.741" y="163.238" style="fill:#FF6B3D;" width="17.656" height="37.899"/>
		<path style="fill:#FFC233;" d="M328.457,165.204l-12.938,6.307c-1.731-5.05-2.663-10.472-2.663-16.115
			c0-25.18,18.644-45.998,42.884-49.397v14.432c-16.336,3.248-28.65,17.672-28.65,34.965
			C327.09,158.795,327.565,162.09,328.457,165.204z"/>
		<path style="fill:#FFFFFF;" d="M412.645,155.396c0,27.559-22.343,49.895-49.894,49.895c-17.957,0-33.692-9.484-42.473-23.71
			l12.883-6.283c6.401,9.508,17.261,15.76,29.59,15.76c19.695,0,35.66-15.965,35.66-35.66c0-18.297-13.784-33.376-31.535-35.423
			v-14.305C392.5,107.77,412.645,129.228,412.645,155.396z"/>
		<g>
			<rect x="430.197" y="109.746" style="fill:#FFFFFF;" width="104.2" height="0.699"/>
		</g>
		<g>
			<rect x="430.197" y="132.796" style="fill:#FFFFFF;" width="47.634" height="0.699"/>
		</g>
	</g>
	<g>
		<path style="fill:#E0E0E6;" d="M1099.733,144.038l14.566-14.567c1.897-1.898,1.896-4.985-0.001-6.882
			c-0.919-0.92-2.141-1.425-3.441-1.425c-1.3,0-2.522,0.506-3.441,1.425l-18.007,18.007c-0.919,0.919-1.425,2.141-1.425,3.441
			c0,1.281,0.52,2.536,1.425,3.441l18.007,18.007c0.92,0.92,2.142,1.426,3.442,1.426c1.3,0,2.522-0.506,3.441-1.426
			c1.898-1.897,1.898-4.985,0-6.882L1099.733,144.038z"/>
		<path style="fill:#E0E0E6;" d="M1187.618,140.597l-18.007-18.007c-0.919-0.92-2.141-1.425-3.441-1.425
			c-1.3,0-2.522,0.506-3.441,1.425c-0.92,0.92-1.426,2.142-1.426,3.442c0,1.3,0.506,2.522,1.426,3.441l14.566,14.566l-14.565,14.565
			c-0.92,0.92-1.426,2.142-1.426,3.442c0,1.3,0.506,2.522,1.425,3.441c0.92,0.92,2.142,1.426,3.441,1.426
			c1.3,0,2.522-0.506,3.441-1.426l18.006-18.006c0.907-0.906,1.427-2.161,1.427-3.442
			C1189.044,142.737,1188.537,141.514,1187.618,140.597z"/>
		<path style="fill:#E0E0E6;" d="M1147.516,121.57c-0.618-0.27-1.273-0.407-1.945-0.407c-1.937,0-3.688,1.147-4.462,2.922
			l-15.707,36.015c-1.073,2.46,0.056,5.333,2.513,6.405c0.618,0.271,1.273,0.408,1.947,0.408c1.937,0,3.688-1.147,4.463-2.922
			l15.706-36.013c0.52-1.192,0.545-2.515,0.069-3.725C1149.624,123.042,1148.706,122.089,1147.516,121.57z"/>
	</g>
	<path style="fill:#E0E0E6;" d="M156.871,443.479c-21.097,0-38.26,17.164-38.26,38.26c0,21.096,17.164,38.26,38.26,38.26
		c21.097,0,38.261-17.164,38.261-38.26C195.132,460.643,177.969,443.479,156.871,443.479z M189.421,490.717h-8.975
		c0.787-6.465,0.661-12.962-0.382-19.521h8.884c1.094,3.32,1.694,6.862,1.694,10.543
		C190.642,484.848,190.212,487.857,189.421,490.717z M140.122,471.197h14.504v19.521h-14.821
		C138.983,484.246,139.088,477.734,140.122,471.197z M159.116,448.052c3.363,0.222,6.594,0.935,9.619,2.074
		c2.641,5.637,4.611,11.149,5.912,16.581h-15.53V448.052z M154.626,466.707H140.98c1.278-5.737,3.269-11.49,5.971-17.248
		c2.452-0.755,5.023-1.231,7.676-1.406V466.707z M154.626,495.207v20.22c-2.683-0.177-5.284-0.661-7.761-1.431
		c-3.001-6.211-5.113-12.479-6.338-18.789H154.626z M159.116,495.207h16.112c-1.223,5.987-3.301,11.979-6.234,18.044
		c-3.1,1.197-6.418,1.948-9.879,2.176V495.207z M159.116,490.717v-19.521h16.456c1.134,6.577,1.272,13.056,0.413,19.521H159.116z
		 M187.099,466.707h-7.892c-0.985-4.445-2.389-8.921-4.208-13.437C180.151,456.561,184.353,461.207,187.099,466.707z
		 M140.944,451.971c-2.015,4.919-3.545,9.833-4.577,14.736h-9.723C129.772,460.442,134.786,455.279,140.944,451.971z
		 M124.795,471.197h10.764c-0.976,6.534-1.079,13.046-0.303,19.521h-10.934c-0.79-2.861-1.221-5.869-1.221-8.978
		C123.101,478.058,123.701,474.516,124.795,471.197z M125.911,495.207h10.025c0.995,5.439,2.618,10.849,4.856,16.223
		C134.199,507.845,128.932,502.125,125.911,495.207z M175.365,509.976c1.997-4.917,3.457-9.835,4.384-14.768h8.084
		C185.191,501.257,180.828,506.385,175.365,509.976z"/>
	<g>
		<path style="fill:#E0E0E6;" d="M609.257,112.566c1.906-0.158,3.345-0.675,4.318-1.549c0.973-0.873,1.459-2.045,1.459-3.515
			c0-1.668-0.179-4.07-0.536-7.208c-0.397-3.732-0.596-6.453-0.596-8.161c0-3.097,0.923-5.51,2.77-7.238
			c1.846-1.727,4.298-2.591,7.357-2.591h4.11v7.029h-2.502c-2.463,0-3.694,1.172-3.694,3.514c0,1.112,0.158,3.336,0.477,6.672
			c0.039,0.398,0.139,1.519,0.298,3.366c0.158,1.846,0.238,3.485,0.238,4.914c0,2.105-0.516,3.853-1.549,5.242
			c-1.033,1.39-2.601,2.284-4.706,2.68v0.119c2.104,0.437,3.673,1.34,4.706,2.71c1.032,1.37,1.549,3.127,1.549,5.272
			c0,1.351-0.08,2.949-0.238,4.795c-0.159,1.847-0.259,3.009-0.298,3.485c-0.318,3.336-0.477,5.54-0.477,6.612
			c0,1.23,0.298,2.124,0.894,2.68c0.596,0.556,1.529,0.834,2.8,0.834h2.502v7.089h-4.11c-3.058,0-5.51-0.864-7.357-2.591
			c-1.847-1.728-2.77-4.14-2.77-7.238c0-1.748,0.198-4.487,0.596-8.221c0.357-3.136,0.536-5.519,0.536-7.148
			c0-1.469-0.487-2.641-1.459-3.515c-0.973-0.873-2.412-1.389-4.318-1.549V112.566z"/>
		<path style="fill:#E0E0E6;" d="M672.488,120.608c-0.974,0.874-1.459,2.046-1.459,3.515c0,1.629,0.179,4.011,0.536,7.148
			c0.397,3.734,0.596,6.473,0.596,8.221c0,3.098-0.923,5.51-2.77,7.238c-1.847,1.727-4.299,2.591-7.357,2.591h-4.11v-7.089h2.502
			c1.27,0,2.204-0.278,2.8-0.834c0.596-0.557,0.893-1.45,0.893-2.68c0-1.072-0.159-3.277-0.476-6.612
			c-0.04-0.476-0.14-1.638-0.298-3.485c-0.159-1.846-0.238-3.444-0.238-4.795c0-2.144,0.516-3.902,1.549-5.272
			c1.032-1.37,2.601-2.273,4.706-2.71v-0.119c-2.105-0.396-3.674-1.29-4.706-2.68c-1.033-1.39-1.549-3.137-1.549-5.242
			c0-1.429,0.079-3.068,0.238-4.914c0.158-1.847,0.258-2.968,0.298-3.366c0.317-3.336,0.476-5.559,0.476-6.672
			c0-2.343-1.231-3.514-3.693-3.514h-2.502v-7.029h4.11c3.057,0,5.51,0.864,7.357,2.591s2.77,4.14,2.77,7.238
			c0,1.708-0.199,4.428-0.596,8.161c-0.357,3.138-0.536,5.54-0.536,7.208c0,1.47,0.486,2.641,1.459,3.515
			c0.973,0.874,2.412,1.391,4.319,1.549v6.493C674.901,119.218,673.461,119.735,672.488,120.608z"/>
	</g>
	<path style="fill:#8757E6;" d="M149.176,381.092c3.627-1.065,6.46-4.841,7.259-9.675l0.436-2.638l0.436,2.638
		c0.799,4.834,3.632,8.609,7.259,9.675l1.98,0.582l-1.98,0.581c-3.627,1.065-6.46,4.841-7.259,9.675l-0.436,2.638l-0.436-2.638
		c-0.799-4.834-3.632-8.609-7.259-9.675l-1.979-0.581L149.176,381.092z"/>
	<path style="fill:#FF6F47;" d="M737.731,114.041c3.627-1.065,6.46-4.841,7.259-9.675l0.436-2.638l0.436,2.638
		c0.799,4.834,3.632,8.609,7.259,9.675l1.979,0.582l-1.979,0.581c-3.627,1.065-6.46,4.841-7.259,9.675l-0.436,2.638l-0.436-2.638
		c-0.799-4.834-3.632-8.609-7.259-9.675l-1.979-0.581L737.731,114.041z"/>
	<path style="fill:#8757E6;" d="M1220.472,578.704c3.627-1.065,6.46-4.841,7.259-9.675l0.436-2.638l0.436,2.638
		c0.799,4.834,3.632,8.609,7.259,9.675l1.979,0.581l-1.979,0.582c-3.627,1.065-6.46,4.841-7.259,9.675l-0.436,2.638l-0.436-2.638
		c-0.799-4.834-3.632-8.609-7.259-9.675l-1.979-0.582L1220.472,578.704z"/>
	<path style="fill:#FFC508;" d="M170.719,137.667c6.788-1.994,12.09-9.06,13.587-18.107l0.817-4.938l0.816,4.938
		c1.496,9.047,6.798,16.113,13.587,18.107l3.705,1.088l-3.705,1.088c-6.788,1.994-12.09,9.06-13.587,18.107l-0.816,4.938
		l-0.817-4.938c-1.496-9.047-6.798-16.113-13.587-18.107l-3.705-1.088L170.719,137.667z"/>
	<path style="fill:#FFC508;" d="M1145.819,300.345c6.788-1.994,12.09-9.06,13.586-18.107l0.817-4.938l0.817,4.938
		c1.496,9.047,6.798,16.113,13.586,18.107l3.705,1.088l-3.705,1.088c-6.788,1.994-12.09,9.06-13.586,18.107l-0.817,4.938
		l-0.817-4.938c-1.496-9.047-6.798-16.113-13.586-18.107l-3.705-1.088L1145.819,300.345z"/>
</g>
</svg>
