<?xml version="1.0" encoding="utf-8"?>
<!-- Generator: Adobe Illustrator 27.5.0, SVG Export Plug-In . SVG Version: 6.00 Build 0)  -->
<svg version="1.1" id="Layer_1" xmlns="http://www.w3.org/2000/svg" xmlns:xlink="http://www.w3.org/1999/xlink" x="0px" y="0px"
	 viewBox="0 0 5363.861 3088.158" style="enable-background:new 0 0 5363.861 3088.158;" xml:space="preserve">
<rect x="0" style="fill:#FFFFFF;" width="5363.861" height="3088.158"/>
<g>
	<g>
		<g>
			<path style="fill:#FFFFFF;" d="M4646.511,1738.822c0,0-148.05,0.326-231.076,110.313c-9.522,12.614-10.25,29.812-1.883,43.219
				c6.988,11.198,18.149,24.18,35.629,34.338l183.568-120.33L4646.511,1738.822z"/>
			<path style="fill:#FFFFFF;" d="M4864.006,1907.356c0,0,36.645,143.443-49.133,251.298c-9.837,12.369-26.309,17.368-41.38,12.613
				c-12.587-3.971-27.946-11.538-42.145-25.928l70.692-207.795L4864.006,1907.356z"/>
		</g>
		<g>
			<g>
				<path style="fill:#22205E;" d="M4412.428,1897.806c-10.761-16.57-9.827-38.714,2.468-54.427
					c43.768-55.93,104.408-82.449,147.571-94.847c46.686-13.41,82.532-13.642,84.034-13.645c1.183-0.003,2.304,0.526,3.053,1.442
					c0.751,0.911,1.047,2.119,0.811,3.278l-13.761,67.538c-0.201,0.984-0.769,1.852-1.589,2.431l-176.496,124.425
					c-1.257,0.885-2.915,0.958-4.244,0.186c-15.48-8.995-33.458-24.377-40.927-35.017
					C4413.034,1898.72,4412.726,1898.265,4412.428,1897.806z M4641.661,1742.914c-11.342,0.539-41.33,2.904-77.251,13.248
					c-41.971,12.087-100.904,37.87-143.316,92.066c-10.518,13.442-11.035,32.542-1.302,46.42c6.46,9.205,22.36,22.928,36.284,31.449
					l173.131-122.052L4641.661,1742.914z"/>
			</g>
			<g>
				<path style="fill:#22205E;" d="M4724.774,2142.441c-0.665-1.024-0.825-2.316-0.396-3.491l73.966-202.754
					c0.349-0.958,1.057-1.742,1.973-2.189l61.966-30.188c1.064-0.519,2.304-0.531,3.376-0.034c1.074,0.497,1.868,1.451,2.159,2.597
					c0.372,1.456,9.097,36.224,7.766,84.78c-1.23,44.892-11.771,110.232-55.003,166.577c-12.481,16.267-34.538,22.61-53.638,15.426
					c-13.145-4.943-30.399-18.681-41.669-30.103C4725.084,2142.87,4724.918,2142.662,4724.774,2142.441z M4805.192,1940.385
					l-72.561,198.902c12.313,12.084,27.302,22.834,37.082,26.513c15.885,5.974,34.236,0.689,44.625-12.852
					c41.892-54.598,52.146-118.102,53.373-161.762c1.049-37.367-4.147-66.996-6.458-78.113L4805.192,1940.385z"/>
			</g>
		</g>
		<g>
			<polygon style="fill:#FEAB47;" points="4417.552,2037.466 4326.242,2155.303 4540.666,2321.458 4638.712,2194.928 			"/>
			<path style="fill:#5167ED;" d="M4687.146,2117.992l-106.661-69.356l-93.788-85.969c0,0-67.728,26.077-80.525,73.021
				c-12.797,46.944,89.125,122.883,89.125,122.883s98.979,79.738,141.242,55.626
				C4678.802,2190.085,4687.146,2117.992,4687.146,2117.992z"/>
			<g>
				<path style="fill:#22205E;" d="M4415.77,2083.905c-11.033-16.987-17.463-34.323-13.394-49.252
					c13.17-48.31,80.066-74.565,82.908-75.659c1.394-0.537,2.972-0.238,4.072,0.771l93.548,85.748l106.387,69.18
					c1.25,0.815,1.936,2.267,1.763,3.75c-0.35,3.025-9.073,74.358-52.564,99.17c-43.897,25.044-140.701-51.992-145.602-55.933
					C4489.391,2159.071,4440.771,2122.399,4415.77,2083.905z M4485.885,1967.258c-11.626,4.959-65.077,29.701-75.916,69.464
					c-4.847,17.774,8.55,43.783,38.739,75.217c23.381,24.347,48.688,43.287,48.941,43.476c0.04,0.029,0.079,0.06,0.117,0.091
					c0.246,0.198,24.904,19.975,54.318,36.538c37.976,21.385,66.506,27.864,82.506,18.735
					c35.797-20.424,46.413-78.359,48.313-90.854l-104.562-67.992c-0.182-0.118-0.354-0.251-0.514-0.398L4485.885,1967.258z
					 M4580.485,2048.635l0.006,0.009L4580.485,2048.635z"/>
			</g>
			<path style="fill:#FFFFFF;" d="M4731.458,2145.424c-5.129,5.892-13.351,8.022-20.718,5.419
				c-23.451-8.284-78.018-31.165-145.055-83.111c-67.034-51.944-102.813-99.071-116.689-119.712
				c-4.359-6.484-4.349-14.977,0.076-21.415c110.894-161.48,259.188-229.299,352.137-257.252
				c19.324-5.811,36.255-9.897,49.962-12.748c20.715-4.304,40.352,10.911,41.355,32.046c0.662,13.984,0.931,31.4,0.128,51.563
				C4888.791,1837.198,4860.141,1997.729,4731.458,2145.424z"/>
			<g>
				<path style="fill:#22205E;" d="M4445.522,1949.901c-5.095-7.845-4.987-17.822,0.307-25.523
					c49.616-72.252,111.489-132.735,183.896-179.77c52.863-34.339,110.177-60.925,170.35-79.022
					c16.979-5.105,33.901-9.422,50.293-12.832c11.005-2.286,22.406,0.347,31.282,7.226c8.877,6.876,14.273,17.261,14.806,28.486
					c0.792,16.717,0.834,34.18,0.13,51.905c-2.501,62.785-13.938,124.921-33.993,184.683
					c-27.467,81.852-70.596,156.872-128.169,222.953l0,0c-6.218,7.143-16.029,9.712-24.995,6.545
					c-26.166-9.243-79.947-32.408-146.155-83.711c-66.196-51.294-102.059-97.593-117.545-120.626
					C4445.66,1950.112,4445.591,1950.007,4445.522,1949.901z M4883.72,1673.686c-1.839-2.832-4.157-5.367-6.89-7.485
					c-7.054-5.466-16.114-7.559-24.86-5.742c-16.168,3.362-32.866,7.623-49.629,12.663
					c-100.28,30.158-242.409,99.002-350.026,255.711c-3.479,5.061-3.544,11.621-0.191,16.784c0.045,0.07,0.09,0.139,0.138,0.208
					c15.22,22.641,50.509,68.179,115.833,118.797c65.335,50.626,118.237,73.426,143.957,82.511c5.901,2.085,12.354,0.4,16.439-4.292
					c0,0,0.001-0.001,0-0.001c124.883-143.332,156.065-298.147,160.232-402.781c0.697-17.498,0.654-34.731-0.127-51.22
					C4888.335,1683.375,4886.626,1678.161,4883.72,1673.686z"/>
			</g>
			<path style="fill:#5167ED;" d="M4892.654,1740.215c-16.063-7.325-33.051-17.577-49.614-30.412
				c-16.561-12.832-30.729-26.723-41.832-40.449c19.324-5.811,36.255-9.897,49.962-12.748c20.715-4.304,40.352,10.911,41.355,32.046
				C4893.188,1702.637,4893.457,1720.052,4892.654,1740.215z"/>
			<g>
				<path style="fill:#22205E;" d="M4797.908,1671.497c-0.631-0.972-0.806-2.181-0.46-3.303c0.387-1.253,1.373-2.231,2.627-2.608
					c16.979-5.105,33.901-9.422,50.293-12.832c11.005-2.286,22.406,0.347,31.282,7.226c8.877,6.876,14.273,17.261,14.806,28.486
					c0.792,16.717,0.834,34.18,0.13,51.905c-0.053,1.31-0.754,2.508-1.87,3.195c-1.117,0.687-2.502,0.773-3.694,0.229
					c-16.754-7.639-34.18-18.318-50.393-30.882c-16.209-12.56-30.9-26.767-42.481-41.084
					C4798.062,1671.722,4797.982,1671.611,4797.908,1671.497z M4883.72,1673.685c-1.839-2.831-4.157-5.366-6.89-7.485
					c-7.054-5.466-16.114-7.559-24.86-5.742c-14.328,2.979-29.074,6.665-43.909,10.973c10.552,12.3,23.378,24.405,37.389,35.261
					c14.014,10.86,28.938,20.258,43.482,27.406c0.468-15.448,0.355-30.646-0.337-45.259
					C4888.335,1683.375,4886.626,1678.161,4883.72,1673.685z"/>
			</g>
			
				<ellipse transform="matrix(0.1414 -0.99 0.99 0.1414 1576.1282 6450.4512)" style="fill:#FEAB47;" cx="4506.523" cy="2316.643" rx="75.759" ry="75.759"/>
			
				<ellipse transform="matrix(0.4324 -0.9017 0.9017 0.4324 390.6425 5350.792)" style="fill:#FEAB47;" cx="4445.391" cy="2365.113" rx="63.845" ry="63.845"/>
			
				<ellipse transform="matrix(0.481 -0.8767 0.8767 0.481 258.1363 4928.2979)" style="fill:#FEAB47;" cx="4291.816" cy="2246.111" rx="63.845" ry="63.845"/>
			<path style="fill:#FEAB47;" d="M4355.949,2188.782c-13.434,17.336-38.379,20.5-55.715,7.066
				c-17.336-13.434-20.5-38.378-7.067-55.715c13.435-17.337,38.379-20.5,55.716-7.067
				C4366.219,2146.501,4369.383,2171.445,4355.949,2188.782z"/>
			<path style="fill:#FEAB47;" d="M4466.186,2312.842c-22.833,29.466-75.722,26.713-118.13-6.148
				c-42.408-32.862-58.277-83.388-35.444-112.854c22.833-29.466,75.721-26.714,118.129,6.148
				C4473.149,2232.85,4489.018,2283.376,4466.186,2312.842z"/>
			
				<ellipse transform="matrix(0.7071 -0.7071 0.7071 0.7071 -375.1597 3772.6819)" style="fill:#FEAB47;" cx="4366.45" cy="2339.199" rx="78.272" ry="78.272"/>
		</g>
		<g>
			<path style="fill:#22205E;" d="M4314.852,2297.79c-0.001-0.002-0.003-0.005-0.005-0.008c-1.18-1.825-0.656-4.261,1.168-5.44
				c16.09-10.397,25.813-30.208,24.197-49.296c-1.616-19.087-14.533-36.982-32.141-44.527c-1.998-0.856-2.923-3.169-2.066-5.166
				c0.855-1.998,3.168-2.923,5.166-2.067c20.206,8.658,35.028,29.193,36.883,51.096c1.855,21.904-9.305,44.637-27.768,56.57
				C4318.464,2300.13,4316.033,2299.609,4314.852,2297.79z"/>
		</g>
		<g>
			<path style="fill:#22205E;" d="M4453.068,2310.955c-0.188-0.29-0.34-0.609-0.45-0.954c-0.658-2.071,0.487-4.283,2.558-4.942
				c15.943-5.067,34.477-1.335,47.218,9.505c12.738,10.844,19.389,28.54,16.94,45.087c-0.318,2.15-2.319,3.635-4.468,3.316
				c-2.15-0.318-3.634-2.318-3.317-4.468c2.062-13.926-3.534-28.82-14.256-37.942c-10.721-9.123-26.318-12.262-39.734-7.999
				C4455.833,2313.108,4454.009,2312.404,4453.068,2310.955z"/>
		</g>
		<g>
			<path style="fill:#22205E;" d="M4296.817,2383.534c-4.964-7.643-8.724-16.067-11.004-24.938c-0.541-2.104,0.727-4.249,2.831-4.79
				c2.105-0.542,4.247,0.729,4.791,2.831c5.595,21.767,21.02,40.59,41.261,50.357c20.242,9.765,44.577,10.12,65.096,0.95
				c1.983-0.887,4.303,0.011,5.197,1.986c0.887,1.984-0.003,4.311-1.987,5.198c-22.608,10.104-49.42,9.713-71.725-1.047
				C4317.222,2407.302,4305.273,2396.555,4296.817,2383.534z"/>
		</g>
		<g>
			<path style="fill:#22205E;" d="M4397.679,2183.978c-0.479-0.738-0.715-1.641-0.608-2.584c0.244-2.159,2.192-3.711,4.352-3.467
				c21.241,2.404,41.697,12.831,56.122,28.608c14.426,15.773,22.984,37.08,23.481,58.452c0.05,2.173-1.669,3.975-3.842,4.025
				c-2.173,0.049-3.975-1.67-4.025-3.843c-0.455-19.498-8.262-38.933-21.421-53.326c-13.16-14.392-31.821-23.905-51.2-26.098
				C4399.32,2185.609,4398.297,2184.93,4397.679,2183.978z"/>
		</g>
		
			<ellipse transform="matrix(0.0394 -0.9992 0.9992 0.0394 2685.0657 6509.2422)" style="fill:#A1ACED;" cx="4728.173" cy="1858.043" rx="69.572" ry="69.573"/>
		<g>
			<path style="fill:#22205E;" d="M4666.462,1898.052c-5.947-9.157-9.797-19.609-11.211-30.76
				c-2.471-19.478,2.792-38.753,14.819-54.273c24.826-32.038,71.089-37.906,103.128-13.08
				c15.521,12.028,25.428,29.378,27.898,48.856c2.471,19.478-2.792,38.753-14.819,54.273c-12.026,15.52-29.377,25.429-48.856,27.899
				c-19.479,2.471-38.752-2.793-54.272-14.818C4676.514,1911.006,4670.903,1904.889,4666.462,1898.052z M4783.278,1822.316
				c-3.966-6.106-8.976-11.567-14.9-16.159c-28.61-22.168-69.92-16.929-92.089,11.681c-10.738,13.858-15.438,31.07-13.232,48.463
				c2.206,17.393,11.055,32.885,24.912,43.626c13.858,10.739,31.07,15.438,48.463,13.232c17.394-2.206,32.887-11.054,43.626-24.912
				c10.738-13.859,15.438-31.07,13.232-48.463C4792.027,1839.827,4788.588,1830.492,4783.278,1822.316z"/>
		</g>
		<g>
			<path style="fill:#22205E;" d="M4682.183,1887.859c-4.432-6.823-7.301-14.614-8.356-22.924
				c-1.84-14.516,2.081-28.881,11.044-40.447c8.962-11.566,21.893-18.951,36.409-20.792c14.517-1.841,28.881,2.081,40.448,11.044
				c11.566,8.964,18.948,21.895,20.792,36.41c1.841,14.517-2.081,28.881-11.044,40.448c-8.962,11.566-21.893,18.95-36.41,20.791
				c-14.517,1.841-28.881-2.081-40.447-11.043C4689.673,1897.513,4685.492,1892.955,4682.183,1887.859z M4767.558,1832.508
				c-2.835-4.365-6.415-8.266-10.649-11.548c-9.905-7.675-22.207-11.034-34.638-9.457c-12.432,1.577-23.504,7.9-31.18,17.805
				c-7.674,9.905-11.033,22.206-9.457,34.637c1.577,12.431,7.901,23.503,17.805,31.179c9.905,7.676,22.207,11.034,34.638,9.458
				c12.431-1.576,23.504-7.9,31.18-17.805c7.674-9.905,11.034-22.207,9.457-34.638
				C4773.811,1845.024,4771.352,1838.352,4767.558,1832.508z"/>
		</g>
		<path style="fill:#FFFFFF;" d="M4768.366,1889.187c-17.201,22.198-49.14,26.248-71.337,9.048
			c-22.198-17.201-26.249-49.139-9.048-71.337c17.201-22.198,49.139-26.248,71.337-9.047
			C4781.516,1835.051,4785.566,1866.99,4768.366,1889.187z"/>
		<g>
			<path style="fill:#22205E;" d="M4683.688,1886.883c-4.286-6.6-7.063-14.135-8.083-22.173
				c-1.781-14.042,2.013-27.937,10.682-39.125c8.67-11.188,21.178-18.331,35.219-20.112c14.041-1.781,27.936,2.013,39.125,10.682
				c11.188,8.67,18.33,21.178,20.111,35.219c1.781,14.042-2.013,27.937-10.682,39.125c-8.67,11.188-21.177,18.33-35.219,20.111
				c-14.042,1.781-27.937-2.012-39.125-10.682C4690.933,1896.222,4686.889,1891.813,4683.688,1886.883z M4769.062,1831.533
				c-2.943-4.531-6.659-8.583-11.056-11.99c-10.283-7.969-23.055-11.455-35.96-9.818c-12.906,1.637-24.402,8.202-32.37,18.486
				c-7.969,10.284-11.456,23.054-9.819,35.96c1.637,12.905,8.201,24.401,18.485,32.37c10.283,7.969,23.055,11.455,35.96,9.819
				c12.907-1.637,24.403-8.202,32.371-18.485c7.969-10.284,11.456-23.054,9.819-35.96
				C4775.554,1844.527,4773.001,1837.599,4769.062,1831.533z"/>
		</g>
	</g>
	<g>
		<path style="fill:#22205E;" d="M4141.376,2429.589c-1.163-1.79-0.686-4.19,1.089-5.396l94.499-64.223
			c1.797-1.222,4.244-0.755,5.465,1.043c0.016,0.023,0.032,0.046,0.047,0.07c1.163,1.79,0.686,4.19-1.089,5.396l-94.499,64.223
			c-1.797,1.222-4.245,0.755-5.465-1.042C4141.407,2429.636,4141.391,2429.613,4141.376,2429.589z"/>
	</g>
	<g>
		<path style="fill:#22205E;" d="M4217.423,2576.451c-0.801-1.234-0.875-2.868-0.053-4.206l85.018-138.347
			c1.139-1.851,3.562-2.43,5.413-1.292c1.852,1.14,2.43,3.562,1.292,5.413l-85.018,138.347c-1.139,1.851-3.561,2.43-5.413,1.292
			C4218.147,2577.342,4217.731,2576.926,4217.423,2576.451z"/>
	</g>
	<g>
		<path style="fill:#22205E;" d="M4371.866,2624.902c-0.577-0.889-0.796-2.006-0.514-3.115
			c11.428-44.903,15.225-91.079,11.286-137.245c-0.185-2.165,1.421-4.071,3.585-4.255c2.166-0.185,4.069,1.422,4.255,3.586
			c4.014,47.045,0.146,94.099-11.5,139.856c-0.536,2.106-2.677,3.378-4.783,2.843
			C4373.197,2626.317,4372.386,2625.702,4371.866,2624.902z"/>
	</g>
</g>
<g id="MAN_00000086661270210450437580000012074487983674590097_">
	<polygon style="fill:#A1ACED;" points="2785.121,2256.041 2825.466,2775.404 3893.923,2775.404 3744.097,2177.234 	"/>
	<g>
		<path style="fill:#2A336E;" d="M3335.611,2780.533c-2.48,0-4.661-1.803-5.06-4.33l-87.039-552.236
			c-0.441-2.798,1.469-5.424,4.267-5.864c2.811-0.444,5.424,1.47,5.864,4.267l87.039,552.236c0.441,2.798-1.469,5.424-4.267,5.864
			C3336.146,2780.512,3335.876,2780.533,3335.611,2780.533z"/>
	</g>
	<polygon style="fill:#F3885A;" points="3183.513,1153.919 3007.129,1171.078 2983.211,925.21 3161.775,910.304 	"/>
	<path style="fill:#943619;" d="M2995.17,1048.144c0,0,94.031-9.386,117.095-59.854l-121.765,11.845L2995.17,1048.144z"/>
	<path style="fill:#34213C;" d="M3205.443,847.422c20.417-17.808,29.699-47.433,23.094-73.708
		c-2.576-10.248-8.727-21.037-19.067-23.215c-9.099-1.917-18.032,3.502-25.353,9.236c-19.993,15.661-60.152,55.208-57.677,83.698
		C3129.737,881.401,3188.126,862.526,3205.443,847.422z"/>
	<path style="fill:#F3885A;" d="M2897.25,561.559c0,0-46.467,186.135-9.753,357.116c8.636,40.221,25.717,97.386,134.442,94.881
		c27.612-0.636,50.338-6.003,68.879-13.656c44.271-18.274,72.844-61.801,72.541-109.695l-2.238-354.315L2897.25,561.559z"/>
	<path style="fill:#943619;" d="M2944.48,843.73l76.19-11.786c2.366-0.366,4.253,1.949,3.409,4.189
		c-3.55,9.42-14.305,29.2-42.537,31.633c-28.688,2.472-37.175-12.826-39.559-19.977
		C2941.373,845.959,2942.575,844.025,2944.48,843.73z"/>
	<path style="fill:#34213C;" d="M3008.77,756.557c1.997,3.905,4.842,7.914,9.122,8.87c4.734,1.058,9.385-2.015,12.842-5.419
		c12.055-11.868,11.168-27.604,11.768-40.677c1.27-27.709-22.52-38.578-33.904-18.4
		C2999.325,717.367,3000.348,740.082,3008.77,756.557z"/>
	<path style="fill:#34213C;" d="M2904.407,760.652c1.997,3.906,4.842,7.914,9.122,8.871c4.734,1.058,9.385-2.015,12.842-5.419
		c12.055-11.868,11.168-27.604,11.768-40.677c1.27-27.709-22.52-38.578-33.904-18.4
		C2894.962,721.462,2895.985,744.178,2904.407,760.652z"/>
	<g>
		<path style="fill:#943619;" d="M2962.612,813.802c-2.795,0-5.579-0.769-8.084-2.3c-4.776-2.919-7.55-8.012-7.419-13.623
			c0.336-14.379,3.752-28.9,9.879-41.994c1.199-2.566,4.252-3.671,6.818-2.472c2.565,1.201,3.672,4.253,2.471,6.818
			c-5.528,11.816-8.611,24.917-8.914,37.886c-0.064,2.755,1.737,4.158,2.515,4.633c0.779,0.476,2.854,1.441,5.283,0.124
			c3.77-2.043,7.216-4.571,10.244-7.515c2.03-1.974,5.277-1.928,7.252,0.103c1.974,2.031,1.928,5.277-0.104,7.251
			c-3.702,3.599-7.909,6.687-12.505,9.177C2967.698,813.167,2965.151,813.802,2962.612,813.802z"/>
	</g>
	<path style="fill:#34213C;" d="M3043.582,679.037c6.742,1.935,14.05,3.08,20.699,0.847c6.649-2.233,12.284-8.714,11.513-15.686
		c-0.612-5.535-5.033-10.057-10.099-12.371c-5.066-2.314-10.742-2.815-16.291-3.284c-11.049-0.934-22.249-1.863-33.162,0.1
		c-10.913,1.962-21.69,7.19-28.005,16.304c-8.423,12.155-0.244,23.445,14.08,16.636
		C3017.559,674.337,3026.715,674.196,3043.582,679.037z"/>
	<path style="fill:#34213C;" d="M2901.9,689.261c-6.243,3.198-13.193,5.731-20.148,4.821c-6.955-0.91-13.733-6.183-14.321-13.173
		c-0.467-5.549,3-10.839,7.525-14.086c4.525-3.247,9.998-4.833,15.353-6.363c10.661-3.046,21.473-6.116,32.559-6.293
		s22.669,2.875,30.623,10.601c10.608,10.304,4.758,22.958-10.61,19.038C2926.529,679.635,2917.517,681.261,2901.9,689.261z"/>
	<g>
		<path style="fill:#34213C;" d="M2732.953,587.064c-0.353-40.853,35.029-77.596,74.878-82.691c6.764-0.865,9.64-8.998,4.955-13.953
			c-8.236-8.71-15.767-17.998-21.128-28.665c-8.314-16.543-10.581-37.315-1.092-53.212c12.535-21,41.75-26.781,65.162-19.708
			c17.468,5.277,32.456,16.016,46.474,27.944c4.966,4.226,12.516,0.987,13.044-5.512c2.906-35.789,33.948-69.035,70.434-70.757
			c35.04-1.654,67.82,26.11,75.912,59.63c1.341,5.554,8.608,6.855,11.702,2.051c17.674-27.434,47.862-47.235,79.939-44.303
			c34.559,3.158,63.23,40.192,56.528,72.384c-1.199,5.762,3.359,11.207,9.244,11.143c22.307-0.239,44.855,13.722,52.924,34.771
			c7.4,19.305,1.757,42.317-12.152,57.364c-4.343,4.698-2.292,12.318,3.881,13.995c21.329,5.797,39.925,22.163,47.067,43.202
			c8.124,23.929,0.815,52.083-17.033,69.769c-4.077,4.04-4.631,10.407-1.512,15.225c11.602,17.924,18.115,53.468,1.538,79.625
			c-15.424,24.338-45.288,26.744-75.133,21.725c-16.557-2.784-16.374-17.257-32.865-20.413
			c-16.49-3.156-31.907-18.547-28.733-35.034c-23.334,13.266-57.628-6.802-57.492-33.643c0.077-15.117,8.842-28.584,14.453-42.622
			c5.611-14.037,7.21-32.301-4.163-42.26c-28.155-24.656-44.835,18.184-67.197,12.353c-27.151-7.08-49.993-1.808-62.567,10.09
			c-14.352,13.581-37.901,5.033-59.017-1.607c-47.531-14.947-57.87,24.641-88.782,32.888
			C2776.296,671.764,2733.599,661.689,2732.953,587.064z"/>
		<g>
			<path style="fill:#5B3A69;" d="M3223.795,526.47c-0.697,0-1.392-0.282-1.897-0.838c-0.953-1.047-0.877-2.669,0.171-3.622
				c6.248-5.685,9.561-14.391,9.088-23.886c-0.473-9.496-4.633-17.83-11.414-22.866c-3.222-2.393-8.543-3.744-13.688-5.05
				c-6.299-1.6-12.813-3.253-16.999-7.023c-5.646-5.083-6.818-12.44-7.953-19.555c-0.804-5.046-1.563-9.811-3.792-13.75
				c-8.273-14.625-24.454-24.792-41.221-25.9c-16.781-1.113-34.146,6.84-44.272,20.248c-0.854,1.13-2.463,1.353-3.591,0.501
				c-1.131-0.854-1.354-2.462-0.501-3.592c11.141-14.751,30.268-23.496,48.702-22.275c18.445,1.219,36.245,12.403,45.346,28.492
				c2.685,4.743,3.554,10.195,4.394,15.468c1.04,6.522,2.021,12.681,6.32,16.551c3.245,2.922,9.135,4.418,14.83,5.864
				c5.628,1.429,11.448,2.907,15.483,5.903c8.017,5.954,12.93,15.696,13.479,26.728c0.549,11.032-3.372,21.214-10.759,27.934
				C3225.028,526.25,3224.41,526.47,3223.795,526.47z"/>
		</g>
		<g>
			<path style="fill:#5B3A69;" d="M2803.328,636.239c-8.714,0-17.615-2.936-24.41-8.839c-12.619-10.961-17.72-30.248-12.691-47.993
				c4.354-15.369,15.561-29.244,31.557-39.07c1.204-0.74,2.786-0.364,3.526,0.843c0.741,1.207,0.364,2.786-0.843,3.527
				c-14.896,9.15-25.304,21.97-29.307,36.098c-4.496,15.87-0.027,33.039,11.121,42.724c11.896,10.334,31.213,10.183,41.338-0.326
				c0.982-1.021,2.605-1.049,3.626-0.068c1.02,0.982,1.05,2.606,0.067,3.625C2821.236,633.068,2812.383,636.239,2803.328,636.239z"
				/>
		</g>
		<g>
			<path style="fill:#5B3A69;" d="M2827.289,464.8c-0.176,0-0.354-0.018-0.533-0.056c-9.979-2.108-17.573-12.671-16.927-23.546
				c0.579-9.741,7.19-19.128,16.844-23.916c8.181-4.057,18.483-4.996,29.004-2.645c10.107,2.259,19.373,7.21,26.316,11.271
				c1.222,0.715,1.634,2.286,0.919,3.508c-0.717,1.223-2.288,1.633-3.509,0.919c-6.621-3.873-15.429-8.588-24.846-10.692
				c-9.379-2.096-18.473-1.303-25.605,2.235c-8.035,3.984-13.532,11.688-14.004,19.626c-0.502,8.443,5.271,16.619,12.868,18.224
				c1.386,0.292,2.271,1.653,1.979,3.039C2829.54,463.973,2828.475,464.8,2827.289,464.8z"/>
		</g>
		<g>
			<path style="fill:#5B3A69;" d="M2915.241,507.458c-1.277,0-2.384-0.953-2.542-2.254c-1.48-12.115,4.348-24.8,14.504-31.566
				c10.157-6.767,24.108-7.26,34.718-1.228c3.491,1.985,6.555,4.568,9.517,7.066c3.977,3.353,7.732,6.52,12.244,8.118
				c8.979,3.18,18.872-0.679,25.592-4.477c3.324-1.878,6.596-4.077,9.76-6.203c4.785-3.215,9.732-6.54,15.164-8.996
				c11.174-5.052,22.474-4.837,30.223,0.576c1.161,0.81,1.445,2.409,0.635,3.57c-0.812,1.161-2.411,1.445-3.57,0.634
				c-6.252-4.366-15.662-4.408-25.174-0.107c-5.041,2.279-9.595,5.34-14.417,8.58c-3.245,2.181-6.601,4.435-10.097,6.411
				c-7.648,4.322-19.031,8.67-29.828,4.846c-5.391-1.91-9.685-5.53-13.837-9.031c-2.913-2.456-5.665-4.776-8.746-6.528
				c-8.963-5.097-20.755-4.681-29.339,1.037c-8.583,5.718-13.509,16.439-12.258,26.676c0.172,1.406-0.828,2.685-2.233,2.856
				C2915.449,507.451,2915.345,507.458,2915.241,507.458z"/>
		</g>
		<g>
			<path style="fill:#5B3A69;" d="M3185.309,614.506c-1.277,0-2.383-0.952-2.542-2.252c-2.459-20.011-6.771-42.717-20.104-59.401
				c-12.305-15.396-36.005-25.392-54.375-15.471c-1.245,0.672-2.802,0.209-3.475-1.037c-0.673-1.246-0.209-2.802,1.037-3.475
				c20.724-11.198,47.199-0.262,60.818,16.781c14.133,17.684,18.642,41.253,21.188,61.977c0.173,1.405-0.826,2.685-2.232,2.857
				C3185.519,614.5,3185.412,614.506,3185.309,614.506z"/>
		</g>
		<g>
			<path style="fill:#5B3A69;" d="M3240.12,733.799c-7.595,0-14.988-2.561-20.371-7.585c-1.035-0.966-1.091-2.589-0.124-3.624
				c0.966-1.034,2.588-1.092,3.624-0.125c8.081,7.544,22.366,8.24,32.52,1.585c9.364-6.139,15.568-17.928,16.19-30.768
				c0.539-11.104-2.65-23.003-9.479-35.367c-0.686-1.24-0.235-2.8,1.004-3.484c1.24-0.683,2.801-0.235,3.484,1.005
				c7.297,13.21,10.699,26.027,10.114,38.094c-0.7,14.449-7.79,27.788-18.503,34.809
				C3252.996,731.999,3246.487,733.799,3240.12,733.799z"/>
		</g>
	</g>
	<g>
		
			<ellipse transform="matrix(0.5157 -0.8568 0.8568 0.5157 875.216 3076.7646)" style="fill:#F3885A;" cx="3159.111" cy="764.224" rx="60.843" ry="60.843"/>
		<g>
			<path style="fill:#943619;" d="M3174.78,804.352c-1.521,0-3.025-0.673-4.037-1.961c-1.749-2.228-1.361-5.452,0.866-7.201
				c6.734-5.287,14.245-11.598,18.153-19.601c4.326-8.862,3.929-20.103-1.014-28.638c-4.942-8.534-14.494-14.473-24.335-15.131
				c-2.826-0.188-4.964-2.632-4.775-5.458c0.189-2.826,2.654-4.963,5.459-4.775c13.355,0.892,25.819,8.642,32.526,20.225
				c6.708,11.583,7.228,26.25,1.355,38.277c-4.86,9.954-13.407,17.178-21.036,23.168
				C3177.004,803.994,3175.888,804.352,3174.78,804.352z"/>
		</g>
	</g>
	<g>
		<g>
			<path style="fill:#FFFFFF;" d="M3160.503,759.847c-1.934,4.827-1.075,10.663,2.169,14.727s8.744,6.197,13.879,5.382
				c3.671-0.583,7.073-2.589,9.47-5.43c2.521-2.987,3.946-7.046,3.181-10.879c-0.692-3.466-3.074-6.409-5.921-8.503
				C3175.19,749.19,3164.786,749.158,3160.503,759.847z"/>
			<path style="fill:#FFFFFF;" d="M3185.657,804.015c0.155,2.286,0.373,4.654-0.414,6.805c-0.786,2.152-2.924,4.01-5.184,3.638
				c-1.727-0.284-3.052-1.788-3.633-3.439s-0.557-3.445-0.526-5.195c0.212-11.955,0.445-24.063,3.654-35.581
				c0.766-2.75,2.495-7.521,6.222-6.652c4.66,1.087,2.906,6.95,2.224,9.989C3185.766,783.542,3184.968,793.827,3185.657,804.015z"/>
		</g>
		<g>
			<path style="fill:#ADADAD;" d="M3181.208,760.206c-0.415,0-0.829-0.168-1.133-0.498c-1.512-1.645-3.658-2.666-5.889-2.8
				c-2.232-0.135-4.484,0.621-6.184,2.072c-0.646,0.552-1.617,0.476-2.169-0.171c-0.552-0.646-0.476-1.617,0.171-2.169
				c2.3-1.964,5.35-2.992,8.367-2.803c3.018,0.182,5.923,1.563,7.969,3.79c0.575,0.625,0.534,1.599-0.092,2.174
				C3181.953,760.072,3181.58,760.206,3181.208,760.206z"/>
		</g>
		<path style="fill:#ADADAD;" d="M3182.519,808.523c0.424,0.451,0.778,0.999,0.813,1.617c0.04,0.708-0.053,1.447-0.42,2.055
			c-0.604,1.002-1.97,1.468-3.058,1.038c-1.088-0.431-1.765-1.712-1.5-2.852c0.209-0.901,0.268-1.534,1.661-2.066
			C3180.446,808.15,3181.961,807.928,3182.519,808.523z"/>
	</g>
	<path style="fill:#5167ED;" d="M2785.121,2256.041c0,0-123.683-628.123-97.121-1063.743c0,0,56.103-64.194,312.267-90.534
		l176.383-17.159c0,0,175.405-17.381,384.361,0c0,0,184.164,522.063,158.48,1107.686L2785.121,2256.041z"/>
	
		<ellipse transform="matrix(0.9941 -0.1086 0.1086 0.9941 -100.663 341.8199)" style="fill:#F3885A;" cx="3088.508" cy="1095.271" rx="89.088" ry="53.236"/>
	<g>
		<path style="fill:#35449C;" d="M3069.119,1183.737c-0.373,0-0.742,0-1.114-0.001c-23.234-0.038-47.632-1.528-68.641-12.078
			c-20.328-10.21-39.735-32.393-37.267-58.938c0.262-2.82,2.765-4.892,5.581-4.631c2.82,0.263,4.894,2.761,4.632,5.582
			c-2.011,21.611,15.001,40.457,31.657,48.822c20.061,10.075,43.582,10.955,64.055,10.988c28.843,0.057,62.278-1.715,91.412-15.152
			c30.389-14.015,51.142-39.812,54.16-67.323c0.309-2.815,2.834-4.851,5.657-4.538c2.815,0.309,4.847,2.841,4.538,5.657
			c-3.408,31.068-26.422,60.005-60.061,75.519C3133.171,1181.734,3098.836,1183.736,3069.119,1183.737z"/>
	</g>
	<path style="fill:#FFFFFF;" d="M2928.322,1414.61c0,0,273.591-1.328,446.245-49.14c0,0-18.529,121.275,21.758,241.198
		c38.073,113.332,30.439,173.236,45.976,228.953c0,0-222.039,93.009-474.135,49.14c1.394-65.596,7.298-111.909-26.504-225.677
		C2922.769,1595.497,2898.727,1519.898,2928.322,1414.61z"/>
	<g>
		<path style="fill:#DBDBDB;" d="M3353.984,1815.58c-0.16,0-0.322-0.008-0.485-0.023c-94.506-8.88-184.572-49.65-253.607-114.8
			c-69.035-65.148-114.95-152.704-129.285-246.538c-0.428-2.8,1.495-5.416,4.295-5.844c2.8-0.427,5.416,1.495,5.844,4.295
			c13.992,91.584,58.806,177.04,126.186,240.628c67.381,63.587,155.288,103.38,247.527,112.048c2.82,0.265,4.892,2.766,4.626,5.585
			C3358.835,1813.587,3356.601,1815.58,3353.984,1815.58z"/>
	</g>
	<g>
		<path style="fill:#2A336E;" d="M3299.949,2278.435c-2.651,0-4.898-2.043-5.107-4.731c-0.219-2.824,1.893-5.291,4.716-5.511
			l444.474-34.531c2.827-0.205,5.291,1.892,5.511,4.716c0.219,2.824-1.893,5.291-4.716,5.511l-444.474,34.531
			C3300.217,2278.429,3300.083,2278.435,3299.949,2278.435z"/>
	</g>
	<g>
		<g>
			<path style="fill:#2A336E;" d="M2797.784,2326.32c-2.651,0-4.898-2.043-5.107-4.731c-0.219-2.824,1.893-5.291,4.716-5.511
				l444.474-34.531c2.831-0.214,5.291,1.891,5.511,4.716c0.219,2.824-1.893,5.291-4.716,5.511l-444.474,34.531
				C2798.052,2326.314,2797.918,2326.32,2797.784,2326.32z"/>
		</g>
		<g>
			<path style="fill:#2A336E;" d="M2797.785,2261.169c-2.674,0-4.927-2.073-5.111-4.78c-0.193-2.825,1.941-5.272,4.768-5.465
				l433.85-29.588c2.821-0.198,5.271,1.941,5.465,4.768c0.193,2.825-1.941,5.272-4.768,5.465l-433.85,29.588
				C2798.021,2261.166,2797.902,2261.169,2797.785,2261.169z"/>
		</g>
		<g>
			<g>
				<path style="fill:#2A336E;" d="M2849.389,2305.96c-0.046,0-0.092,0-0.138-0.001c-2.831-0.075-5.066-2.431-4.992-5.262
					l0.791-30.113c0.075-2.831,2.436-5.044,5.262-4.992c2.831,0.075,5.066,2.431,4.992,5.262l-0.791,30.113
					C2854.439,2303.752,2852.158,2305.96,2849.389,2305.96z"/>
			</g>
			<g>
				<path style="fill:#2A336E;" d="M2921.75,2300.642c-0.074,0-0.147-0.001-0.222-0.004c-2.83-0.121-5.026-2.513-4.906-5.342
					l1.181-27.743c0.12-2.83,2.528-5,5.342-4.906c2.83,0.121,5.026,2.513,4.906,5.342l-1.181,27.743
					C2926.753,2298.488,2924.481,2300.642,2921.75,2300.642z"/>
			</g>
			<g>
				<path style="fill:#2A336E;" d="M2998.981,2295.358c-0.098,0-0.194-0.003-0.293-0.009c-2.828-0.159-4.991-2.58-4.832-5.408
					l1.594-28.343c0.159-2.828,2.571-5.004,5.408-4.832c2.828,0.159,4.991,2.58,4.832,5.408l-1.594,28.343
					C3003.943,2293.247,3001.682,2295.358,2998.981,2295.358z"/>
			</g>
			<g>
				<path style="fill:#2A336E;" d="M3099.216,2290.608c-0.001,0-0.001,0-0.002,0c-2.832-0.001-5.127-2.298-5.126-5.13l0.011-31.875
					c0.001-2.831,2.297-5.126,5.128-5.126c0.001,0,0.001,0,0.002,0c2.832,0.001,5.127,2.298,5.126,5.13l-0.011,31.875
					C3104.343,2288.313,3102.047,2290.608,3099.216,2290.608z"/>
			</g>
		</g>
	</g>
	<g>
		<g>
			<path style="fill:#2A336E;" d="M3795.106,2542.53c-21.608,0-43.431-4.642-64.007-13.699
				c-26.27-11.563-48.609-29.492-64.603-51.849c-15.993-22.355-25.748-49.286-28.21-77.883s2.547-56.799,14.485-81.56
				c1.229-2.551,4.294-3.623,6.847-2.392c2.551,1.229,3.622,4.295,2.392,6.847c-22.584,46.841-17.429,106.728,12.828,149.02
				c30.257,42.294,85.268,66.504,136.896,60.262c2.809-0.337,5.367,1.663,5.707,4.475c0.341,2.812-1.663,5.367-4.475,5.707
				C3807.053,2542.173,3801.086,2542.53,3795.106,2542.53z"/>
		</g>
		<g>
			<path style="fill:#2A336E;" d="M2836.218,2588.345c-2.036,0-3.961-1.22-4.764-3.226c-1.052-2.629,0.228-5.614,2.857-6.666
				c40.326-16.132,73.224-50.146,87.999-90.987c14.776-40.842,11.257-88.031-9.415-126.231c-1.348-2.491-0.421-5.603,2.07-6.951
				c2.488-1.347,5.602-0.422,6.951,2.07c22.041,40.733,25.794,91.051,10.038,134.602c-15.755,43.55-50.833,79.819-93.835,97.021
				C2837.496,2588.227,2836.852,2588.345,2836.218,2588.345z"/>
		</g>
	</g>
	<g>
		<path style="fill:#F3885A;" d="M3965.641,1484.482c0,0,80.684,273.948,58.437,428.754
			c-21.25,147.863-282.797,259.695-488.744,381.392l-114.371-141.772c0,0,283.25-206.166,332.859-281.65
			c22.366-34.032-40.279-279.595-60.001-316.778c-24.022-45.29-40.819-84.036-40.819-84.036L3965.641,1484.482z"/>
		<path style="fill:#5167ED;" d="M3561.01,1084.605c0,0,297.534,20.439,424.138,418.201c2.938,9.231,0.503,19.354-6.405,26.146
			c-14.864,14.613-53.831,40.086-104.742,52.924c-47.7,12.029-108.559,15.691-180.18-4.427
			c-13.961-3.922-24.791-39.843-24.791-39.843L3561.01,1084.605z"/>
		<path style="fill:#F3885A;" d="M3426.285,2149.766l109.048,144.862c-22.135,13.945-31.432,20.143-41.384,41.275l-55.384,129.04
			c-2.998,6.985-8.542,12.093-15.083,14.706c-6.541,2.612-14.079,2.729-21.064-0.269c-13.97-5.996-20.422-22.173-14.426-36.142
			l-10.155,23.66c-3.473,8.092-9.889,14.002-17.469,17.02c-7.574,3.035-16.307,3.166-24.399-0.307
			c-16.173-6.941-24.917-22.751-20.209-33.719l-3.552,8.275c-3.228,7.521-9.205,13.039-16.252,15.853
			c-7.047,2.814-15.18,2.932-22.701-0.296c-15.054-6.461-22.019-23.899-15.557-38.953l3.018-7.031
			c0.71-1.655-1.365-3.086-2.656-1.843l-74.77,76.712c-9.356,9.014-22.797,10.949-33.914,6.178
			c-4.337-1.862-8.328-4.75-11.581-8.633c-10.298-12.314-9.557-30.418,1.712-41.841l74.01-80.012c0,0,64.787-62.994,53.479-92.419
			c-7.019-18.286-43.639-8.512-70.357,1.497c-7.776,2.907-15.974,2.484-23.039-0.549c-7.624-3.272-13.945-9.581-16.995-17.999
			c-5.107-14.113,0.574-29.868,13.548-37.423c26.427-15.406,71.875-39.894,110.872-50.797
			c59.132-16.533,80.798,6.079,126.277-19.991C3407.3,2160.621,3414.274,2156.653,3426.285,2149.766z"/>
		<g>
			<path style="fill:#943619;" d="M3266.935,2422.363c-0.83,0-1.671-0.201-2.451-0.627c-2.486-1.356-3.402-4.472-2.046-6.958
				c16.378-30.024,35.867-58.5,57.927-84.634c1.827-2.164,5.063-2.439,7.227-0.611c2.165,1.827,2.438,5.063,0.611,7.227
				c-21.615,25.608-40.712,53.51-56.761,82.931C3270.511,2421.396,3268.751,2422.363,3266.935,2422.363z"/>
		</g>
		<g>
			<path style="fill:#943619;" d="M3318.67,2450.084c-0.619,0-1.249-0.113-1.86-0.352c-2.64-1.028-3.945-4.001-2.917-6.64
				c12.697-32.591,30.376-62.832,52.545-89.884c1.795-2.19,5.026-2.511,7.218-0.716c2.19,1.796,2.511,5.026,0.716,7.218
				c-21.484,26.215-38.617,55.521-50.922,87.104C3322.659,2448.843,3320.722,2450.084,3318.67,2450.084z"/>
		</g>
		<g>
			<path style="fill:#943619;" d="M3389.139,2445.844c-0.086,0-0.171-0.003-0.258-0.007c-2.829-0.141-5.009-2.547-4.868-5.376
				c1.264-25.469,12.995-49.706,32.187-66.496c2.131-1.866,5.372-1.65,7.236,0.482c1.865,2.132,1.649,5.372-0.482,7.236
				c-16.859,14.75-27.587,36.912-28.696,59.285C3394.121,2443.711,3391.854,2445.844,3389.139,2445.844z"/>
		</g>
		<g>
			<path style="fill:#35449C;" d="M3776.367,1560.92c-37.02,0-72.594-3.945-101.3-9.577c-2.779-0.545-4.59-3.24-4.045-6.02
				c0.546-2.78,3.252-4.585,6.02-4.045c72.357,14.194,155.27,11.922,211.227-5.79c12.985-4.109,56.489-19.992,71.122-51.822
				c1.182-2.574,4.229-3.702,6.801-2.518c2.574,1.183,3.701,4.228,2.518,6.801c-16.392,35.658-63.345,52.887-77.345,57.318
				C3855.646,1556.572,3815.212,1560.92,3776.367,1560.92z"/>
		</g>
		<g>
			<path style="fill:#35449C;" d="M3684.719,1615.615c-2.563,0-4.777-1.918-5.086-4.525
				c-8.842-74.623-34.769-222.033-66.701-299.908c-1.074-2.621,0.179-5.616,2.8-6.691c2.619-1.074,5.615,0.179,6.69,2.799
				c32.319,78.819,58.491,227.433,67.396,302.593c0.333,2.813-1.677,5.363-4.489,5.696
				C3685.124,1615.603,3684.921,1615.615,3684.719,1615.615z"/>
		</g>
	</g>
	<g>
		<path style="fill:#F3885A;" d="M2517.292,2037.063c38.427-86.141,52.658-178.869,78.388-269.275
			c-77.66-33.612-153.581-64.514-230.5-97.702c-29.162,74.55-52.601,150.418-81.497,225.758c-1.228,3.202-7.442,1.241-12.176-3.253
			c-102.681-97.491-187.503-192.121-241.205-285.559c-45.517-46.134-24.681-75.77-53.066-124.292
			c-18.721-32.001-47.204-67.119-73.124-95.275c-12.717-13.814-31.281-11.7-38.095-6.198c-5.988,4.839-1.32,1.469-1.32,1.469
			c-10.923,10.834-15.967,33.361-9.479,43.024c10.723,15.969,35.059,56.982,17.944,68.494
			c-27.538,18.522-76.569-14.905-102.441-29.193c-25.872-14.288-67.782-39.206-91.101-51.596
			c-23.319-12.39-30.058-5.088-42.448,7.337c-1.535-1.076,0,0,0,0c-13.948,13.988-4.617,34.44,7.402,44.929
			c30.776,18.481,61.286,36.37,91.266,55.201c2.01,1.263,0.612,3.085-1.154,3.008c-1.766-0.077-5.424-1.088-7.364-1.18
			c-16.617-0.795-30.82,7.484-33.714,24.779c-0.831-0.144,0,0,0,0c-2.894,17.295,7.663,29.763,23.745,34.549
			c2.209,0.658,6.383,0.649,8.618,1.832c-15.201-4.765-25.7,19.723-27.288,25.916c-1.407,5.493-0.373,1.393-0.373,1.393
			c-0.93,19.816,6.8,32.213,25.918,37.55c6.99,1.951,17.47,2.621,24.687,4.395c-14.03-0.973-29.718,7.294-30.923,22.951
			c-1.138-0.021,0,0,0,0c-1.206,15.657,3.814,28.504,22.56,31.949c43.304,7.958,92.409,15.995,135.92,23.179
			c5.767,0.952,10.538,6.064,12.058,8.462c61.307,96.726,117.978,193.264,196.061,302.556
			c56.296,78.797,133.425,148.298,197.094,165.243C2404.901,2240.308,2478.866,2123.204,2517.292,2037.063z"/>
		<g>
			<path style="fill:#943619;" d="M1806.062,1724.577c-1.681,0-3.328-0.825-4.31-2.342c-1.54-2.378-0.86-5.553,1.518-7.092
				c8.351-5.407,12.862-10.609,15.085-17.397c2.711-8.282,2.487-15.402-0.725-23.088c-2.963-7.087-11.527-9.606-15.072-10.361
				c-2.77-0.589-4.538-3.313-3.949-6.083c0.59-2.77,3.311-4.54,6.083-3.948c10.833,2.305,18.998,8.296,22.4,16.438
				c4.173,9.982,4.494,19.59,1.01,30.234c-3.811,11.639-12.294,18.307-19.258,22.815
				C1807.983,1724.31,1807.017,1724.577,1806.062,1724.577z"/>
		</g>
		<g>
			<path style="fill:#943619;" d="M1803.549,1664.392c-0.269,0-0.54-0.021-0.814-0.064c-18.907-3.014-38.316-4.906-57.087-6.735
				l-0.933-0.091c-2.819-0.275-4.881-2.783-4.607-5.602c0.275-2.818,2.785-4.88,5.602-4.607l0.933,0.092
				c18.923,1.844,38.491,3.751,57.706,6.815c2.797,0.446,4.703,3.075,4.257,5.872
				C1808.205,1662.594,1806.025,1664.392,1803.549,1664.392z"/>
		</g>
		<g>
			<path style="fill:#943619;" d="M1811.188,1604.067c-0.304,0-0.612-0.026-0.921-0.083l-82.918-15.044
				c-2.787-0.506-4.636-3.175-4.13-5.961c0.505-2.787,3.174-4.641,5.961-4.131l82.918,15.044c2.787,0.506,4.636,3.175,4.13,5.961
				C1815.779,1602.331,1813.62,1604.067,1811.188,1604.067z"/>
		</g>
		<g>
			<path style="fill:#943619;" d="M1803.635,1664.412c-2.195,0-4.227-1.421-4.902-3.63c-0.828-2.709,0.696-5.576,3.404-6.404
				c13.268-4.057,20.786-12.138,22.347-24.015c1.251-9.522-0.298-21.854-14.782-26.526c-2.696-0.869-4.176-3.76-3.307-6.455
				c0.87-2.694,3.758-4.177,6.455-3.307c16.066,5.183,24.217,19.247,21.802,37.624c-2.071,15.762-12.553,27.299-29.516,32.487
				C1804.637,1664.338,1804.132,1664.412,1803.635,1664.412z"/>
		</g>
		<g>
			<path style="fill:#943619;" d="M1946.855,1627.176c-0.532,0-1.073-0.084-1.605-0.259c-24.254-7.99-42.015-21.247-54.297-40.525
				c-12.161-19.091-16.984-41.662-14.337-67.087c0.293-2.817,2.812-4.857,5.632-4.569c2.817,0.293,4.863,2.814,4.569,5.632
				c-2.402,23.065,1.9,43.424,12.786,60.514c10.959,17.202,26.94,29.074,48.855,36.294c2.691,0.887,4.152,3.786,3.266,6.476
				C1951.014,1625.808,1949.009,1627.176,1946.855,1627.176z"/>
		</g>
		<g>
			<path style="fill:#943619;" d="M1809.782,1546.162c-0.437,0-0.88-0.057-1.322-0.174l-71.479-19.026
				c-2.737-0.729-4.365-3.538-3.637-6.275c0.729-2.737,3.542-4.36,6.274-3.637l71.479,19.026c2.737,0.729,4.365,3.538,3.637,6.275
				C1814.124,1544.646,1812.049,1546.162,1809.782,1546.162z"/>
		</g>
		<g>
			<path style="fill:#943619;" d="M1809.372,1603.743c-1.922,0-3.764-1.086-4.64-2.938c-1.21-2.561-0.115-5.617,2.445-6.828
				c11.575-5.471,17.366-13.55,17.703-24.699c0.334-11.05-5.205-18.728-16.935-23.471c-2.625-1.061-3.893-4.051-2.832-6.677
				c1.063-2.624,4.049-3.893,6.677-2.831c15.735,6.363,23.807,17.874,23.341,33.289c-0.452,14.946-8.603,26.587-23.572,33.662
				C1810.853,1603.583,1810.106,1603.743,1809.372,1603.743z"/>
		</g>
		<path style="fill:#5167ED;" d="M2849.233,1126.454c-129.778,27.761-254.238,72.885-347,184.943
			c-70.084,84.662-137.06,237.272-148.97,356.597c-0.429,4.295-7.14,6.401,1.265,16.358
			c48.01,56.875,139.792,89.036,213.124,106.645c3.071,0.737,20.576,8.541,32.371-5.908
			C2714.759,1644.535,2745.329,1313.057,2849.233,1126.454z"/>
		<g>
			<path style="fill:#35449C;" d="M2610.287,1765.896c-0.238,0-0.479-0.017-0.722-0.051c-52.747-7.432-93.66-17.124-128.757-30.503
				c-46.566-17.751-82.474-41.794-109.775-73.504c-1.848-2.146-1.606-5.384,0.54-7.232c2.147-1.847,5.385-1.605,7.232,0.541
				c58.907,68.417,155.029,89.67,232.19,100.542c2.805,0.396,4.758,2.989,4.363,5.794
				C2614.998,1764.045,2612.802,1765.896,2610.287,1765.896z"/>
		</g>
		<g>
			<path style="fill:#943619;" d="M2302.924,2030.151c-0.685,0-1.38-0.138-2.047-0.429c-2.596-1.133-3.783-4.154-2.651-6.751
				c19.843-45.508,1.147-81.982-22.012-114.619c-1.639-2.31-1.096-5.511,1.214-7.15c2.31-1.638,5.511-1.095,7.15,1.215
				c23.708,33.409,44.986,74.346,23.049,124.654C2306.787,2029,2304.902,2030.151,2302.924,2030.151z"/>
		</g>
	</g>
	<g>
		<path style="fill:#943619;" d="M3921.735,1918.174c-1.769,0-3.488-0.915-4.44-2.554c-14.821-25.531-37.973-45.886-65.188-57.313
			c-27.219-11.431-57.962-13.708-86.563-6.412c-2.746,0.699-5.536-0.957-6.237-3.702c-0.699-2.745,0.958-5.537,3.702-6.237
			c30.756-7.842,63.808-5.394,93.069,6.895c29.262,12.287,54.153,34.171,70.089,61.62c1.422,2.45,0.589,5.588-1.86,7.011
			C3923.495,1917.951,3922.609,1918.174,3921.735,1918.174z"/>
	</g>
	<g>
		<path style="fill:#35449C;" d="M3289.675,2146.939c-30.336,0-60.836-9.529-85.155-27.452
			c-12.229-9.012-22.892-19.924-33.202-30.476c-6.229-6.375-12.669-12.966-19.315-18.98c-35.971-32.55-82.438-52.272-130.842-55.533
			c-2.826-0.19-4.962-2.636-4.772-5.462c0.19-2.825,2.62-4.978,5.462-4.771c50.694,3.415,99.361,24.071,137.034,58.161
			c6.881,6.227,13.433,12.933,19.77,19.417c10.025,10.261,20.392,20.87,31.95,29.389c32.192,23.723,76.067,31.599,114.498,20.552
			c2.721-0.777,5.563,0.789,6.346,3.512s-0.79,5.563-3.512,6.346C3315.543,2145.202,3302.622,2146.939,3289.675,2146.939z"/>
	</g>
	<g>
		<path style="fill:#35449C;" d="M2714.754,1796.237c-2.381,0-4.515-1.666-5.017-4.088c-15.009-72.43-25.384-259.786-20.945-378.249
			c0.105-2.831,2.499-5.03,5.317-4.933c2.83,0.106,5.038,2.486,4.933,5.316c-4.415,117.833,5.857,303.969,20.738,375.783
			c0.575,2.774-1.208,5.488-3.98,6.063C2715.448,1796.203,2715.099,1796.237,2714.754,1796.237z"/>
	</g>
</g>
<g id="laptop_00000182526255203533921340000016942553695089203340_">
	<g>
		<path style="fill:#F2F4FF;" d="M2875.706,2711.249H3234c4.564,0,8.264,3.7,8.264,8.264v12.986h-366.558V2711.249z"/>
		<g>
			
				<rect x="2918.631" y="2711.249" transform="matrix(-1 -1.224647e-16 1.224647e-16 -1 5841.6899 5443.7485)" style="fill:#A1ACED;" width="4.427" height="21.25"/>
			
				<rect x="2965.263" y="2711.249" transform="matrix(-1 -1.224647e-16 1.224647e-16 -1 5934.9526 5443.7485)" style="fill:#A1ACED;" width="4.427" height="21.25"/>
			
				<rect x="3011.894" y="2711.249" transform="matrix(-1 -1.224647e-16 1.224647e-16 -1 6028.2153 5443.7485)" style="fill:#A1ACED;" width="4.427" height="21.25"/>
			
				<rect x="3058.525" y="2711.249" transform="matrix(-1 -1.224647e-16 1.224647e-16 -1 6121.478 5443.7485)" style="fill:#A1ACED;" width="4.427" height="21.25"/>
			
				<rect x="3105.157" y="2711.249" transform="matrix(-1 -1.224647e-16 1.224647e-16 -1 6214.7407 5443.7485)" style="fill:#A1ACED;" width="4.427" height="21.25"/>
			
				<rect x="3151.788" y="2711.249" transform="matrix(-1 -1.224647e-16 1.224647e-16 -1 6308.0034 5443.7485)" style="fill:#A1ACED;" width="4.427" height="21.25"/>
			
				<rect x="3198.42" y="2711.249" transform="matrix(-1 -1.224647e-16 1.224647e-16 -1 6401.2666 5443.7485)" style="fill:#A1ACED;" width="4.427" height="21.25"/>
		</g>
	</g>
	<path style="fill:#311A4D;" d="M2292.723,2732.499h963.342c11.848,0,21.453,9.605,21.453,21.453l0,0
		c0,11.848-9.605,21.453-21.453,21.453h-963.342V2732.499z"/>
	<path style="fill:#311A4D;" d="M2765.103,2177.234h-781.073c-11.947,0-19.564,9.685-17.013,21.631l123.074,576.539h824.335
		l-123.074-576.539C2788.801,2186.919,2777.049,2177.234,2765.103,2177.234z"/>
	
		<ellipse transform="matrix(0.6607 -0.7506 0.7506 0.6607 -1030.7999 2672.0891)" style="fill:#FFFFFF;" cx="2440.475" cy="2476.319" rx="47.889" ry="61.811"/>
	<g>
		<path style="fill:#4A5ED9;" d="M2803.21,2449.058c-1.884,0-3.581-1.306-4.003-3.221l-46.239-209.861
			c-2.552-11.585-13.014-19.993-24.877-19.993H2229.81c-2.266,0-4.103-1.837-4.103-4.103s1.837-4.103,4.103-4.103h498.281
			c15.685,0,29.517,11.116,32.891,26.433l46.239,209.861c0.487,2.213-0.911,4.401-3.124,4.89
			C2803.8,2449.027,2803.502,2449.058,2803.21,2449.058z"/>
	</g>
	<g>
		<path style="fill:#4A5ED9;" d="M2128.269,2745.457c-1.899,0-3.604-1.327-4.011-3.26l-44.271-210.727
			c-0.466-2.218,0.954-4.393,3.172-4.858c2.216-0.47,4.393,0.954,4.858,3.171l44.271,210.727c0.466,2.218-0.954,4.393-3.172,4.858
			C2128.833,2745.428,2128.549,2745.457,2128.269,2745.457z"/>
	</g>
</g>
<g id="floor_00000182490116936654208050000008385924882787094719_">
	<path style="fill:#22205E;" d="M4540.436,2799.371c-32.99,0-66.001-0.298-98.849-1.058c-201.35-4.657-402.896-8.748-599.043-12.159
		c-239.06-4.156-480.329-5.489-720.374-5.489c-217.96,0-434.9,1.099-648.435,2.18c-142.439,0.721-289.728,1.466-434.811,1.875
		c-140.686,0.396-283.925,0.391-422.451,0.381c-19.088-0.001-38.268-0.002-57.413-0.002c-398.544,0-808.96,0.455-1211.092,10.876
		c-5.133,0.153-9.42-3.928-9.553-9.07s3.928-9.42,9.071-9.554c421.692-10.928,852.435-10.902,1268.988-10.881
		c138.51,0.006,281.737,0.017,422.398-0.381c145.062-0.408,292.34-1.154,434.769-1.874c213.528-1.081,430.581-2.18,648.545-2.18
		c240.168,0,481.456,1.333,720.682,5.491c196.182,3.411,397.765,7.503,599.15,12.161c92.978,2.153,187.512,0.58,278.93-0.941
		c97.06-1.614,197.424-3.283,296.115-0.499c5.143,0.145,9.193,4.432,9.049,9.574c-0.146,5.143-4.45,9.187-9.574,9.049
		c-98.273-2.771-198.427-1.107-295.279,0.504C4661.889,2798.361,4601.203,2799.371,4540.436,2799.371z"/>
</g>
<path style="fill:#311A4D;" d="M1318.732,2003.347c20.825,15.743,50.829,15.041,74.342,3.698
	c19.251-9.286,35.509-25.527,42.706-45.653c17.493-48.914-28.276-101.122-77.562-80.386
	C1314.043,1899.591,1268.72,1965.54,1318.732,2003.347z"/>
<path style="fill:#FEAB47;" d="M4279.935,1680.967c18.782,14.199,45.844,13.565,67.051,3.335
	c17.362-8.375,32.026-23.023,38.518-41.175c15.777-44.116-25.503-91.204-69.955-72.502
	C4275.706,1587.388,4234.829,1646.868,4279.935,1680.967z"/>
<g>
	<path style="fill:#5A66ED;" d="M1060.517,749.949c-1.426,0-2.874-0.299-4.255-0.932c-5.139-2.353-7.398-8.427-5.044-13.567
		c7.855-17.156,15.948-33.719,28.524-47.776c8.932-9.984,19.442-17.485,30.472-21.969c5.486-21.893,15.495-42.383,28.546-58.278
		c17.047-20.761,38.248-32.549,61.311-34.091c4.951-0.332,9.866-0.134,14.645,0.551c14.609-14.798,30.414-24.037,47.156-27.534
		c12.9-2.696,26.732-1.304,38.945,3.919c13.27,5.674,23.35,15.446,28.382,27.515c2.175,5.217-0.291,11.211-5.508,13.386
		c-5.219,2.176-11.21-0.291-13.386-5.508c-6.755-16.203-28.228-22.622-44.249-19.274c-9.962,2.081-19.679,7.031-29.055,14.782
		c7.12,3.849,13.336,8.99,18.138,15.209c14.108,18.271,14.205,44.524,0.225,61.066c-7.609,9.003-19.644,14.379-32.193,14.379
		c-11.669,0-22.322-4.684-29.225-12.853c-16.085-19.032-8.555-45.473,4.168-64.893c-31.777,4.041-54.603,34.81-65.196,66.831
		c23.505-0.359,44.975,15.112,50.012,35.987c2.859,11.849-0.59,25.407-9.002,35.383c-7.715,9.15-18.381,13.981-29.244,13.25
		c-15.894-1.066-30.292-13.383-35.827-30.648c-2.54-7.921-3.129-16.005-2.757-23.63c-3.898,2.815-7.635,6.19-11.104,10.067
		c-10.668,11.924-17.993,26.979-25.168,42.65C1068.108,747.732,1064.397,749.949,1060.517,749.949z M1127.729,681.867
		c-1.421,8.453-2.129,18.19,0.621,26.77c2.489,7.763,9.37,15.914,17.705,16.473c4.306,0.295,8.755-1.906,12.225-6.021
		c4.227-5.012,6.092-11.837,4.753-17.387c-2.802-11.615-15.9-20.533-29.828-20.321
		C1131.392,681.41,1129.564,681.573,1127.729,681.867z M1221.744,596.63c-0.957,1.156-1.909,2.343-2.857,3.563
		c-8.51,10.944-20.047,32.858-9.305,45.569c3.006,3.556,7.96,5.596,13.591,5.596c6.502,0,12.846-2.729,16.559-7.122
		c7.635-9.035,7.28-24.89-0.792-35.344C1234.715,603.422,1228.706,599.223,1221.744,596.63z"/>
</g>
<g>
	<g>
		<path style="fill:#D2D8F2;" d="M1406.854,1636.265H860.94c-11.98,0-23.448-8.476-25.614-18.932l-100.225-483.834H1324.4
			l100.224,483.834C1426.79,1627.788,1418.834,1636.265,1406.854,1636.265z"/>
		<path style="fill:#311A4D;" d="M1273.019,1036.164H746.158c-17.244,0-28.69,12.204-25.574,27.246l14.519,70.088H1324.4
			l-14.519-70.088C1306.766,1048.368,1290.263,1036.164,1273.019,1036.164z M816.672,1110.007c-15.93,0-31.18-11.272-34.06-25.176
			c-2.88-13.904,7.7-25.176,23.63-25.176c15.931,0,31.18,11.272,34.061,25.176C843.183,1098.735,832.603,1110.007,816.672,1110.007z
			 M1233.097,1110.007c-15.931,0-31.18-11.272-34.06-25.176c-2.88-13.904,7.699-25.176,23.63-25.176
			c15.931,0,31.18,11.272,34.06,25.176C1259.608,1098.735,1249.028,1110.007,1233.097,1110.007z"/>
		<path style="fill:#311A4D;" d="M1283.217,1037.563c-1.365,17.674-12.353,32.266-29.304,39.846c1.32,2.348,2.279,4.838,2.814,7.422
			c2.88,13.904-7.7,25.176-23.63,25.176s-31.18-11.272-34.06-25.176c-0.452-2.182-0.574-4.3-0.395-6.323
			c0.843-9.398,8.185-16.67,18.878-18.433c1.636-0.277,3.364-0.419,5.148-0.419c1.34,0,2.679,0.079,3.998,0.237
			c15.416-1.786,26.54-11.129,29.373-23.729H867.309c-0.884,18.425-12.137,33.657-29.735,41.395c1.274,2.3,2.205,4.743,2.729,7.272
			c2.88,13.904-7.7,25.176-23.63,25.176c-15.93,0-31.18-11.272-34.06-25.176c-0.463-2.237-0.577-4.403-0.379-6.466
			c0.904-9.367,8.282-16.591,18.984-18.314c1.603-0.261,3.287-0.395,5.026-0.395c1.413,0,2.817,0.087,4.202,0.261
			c15.528-1.723,26.747-11.09,29.595-23.753h-93.881c-4.42,0-8.464,0.806-11.977,2.253c-10.18,4.197-15.914,13.809-13.597,24.994
			l14.519,70.088H1324.4l-14.519-70.088C1307.391,1051.388,1296.348,1041.183,1283.217,1037.563z"/>
		<path style="fill:#D2D8F2;" d="M785.053,963.048c-37.966,0-63.195,26.859-56.327,60.01c1.1,5.312,2.954,10.458,5.455,15.358
			c9.213,18.069,27.144,32.795,48.052,39.949c8.842,3.027,18.209,4.703,27.682,4.703c10.279,0,19.635-1.968,27.659-5.51
			c-5.102-9.24-15.664-16.244-27.129-17.642c-1.707,0.198-3.463,0.292-5.265,0.292c-1.323,0-2.647-0.055-3.963-0.158
			c-16.773-1.312-32.534-10.853-40.858-23.887c-2.611-4.079-4.484-8.489-5.441-13.106c-4.251-20.52,11.356-37.167,34.867-37.167
			c23.511,0,46.015,16.647,50.265,37.167c0.956,4.616,0.91,9.027-0.011,13.106h27.27c0.205-4.213-0.133-8.6-1.066-13.106
			C859.375,989.907,823.028,963.048,785.053,963.048z"/>
		<path style="fill:#D2D8F2;" d="M1201.052,963.048c-37.974,0-63.194,26.859-56.327,60.01c0.933,4.505,2.412,8.892,4.363,13.106
			c8.878,19.208,27.6,34.953,49.553,42.344c8.715,2.941,17.944,4.561,27.272,4.561c10.433,0,19.893-2.031,27.999-5.66
			c-5.161-9.217-15.759-16.18-27.248-17.516c-1.776,0.214-3.602,0.316-5.486,0.316c-1.223,0-2.446-0.047-3.66-0.134
			c-16.891-1.225-32.786-10.805-41.161-23.911c-2.611-4.079-4.485-8.489-5.441-13.106c-4.251-20.52,11.356-37.167,34.867-37.167
			s46.015,16.647,50.265,37.167c0.956,4.616,0.91,9.027-0.011,13.106h16.981c3.46,0,6.894,0.49,10.198,1.399
			c0.37-4.64,0.061-9.501-0.976-14.505C1275.374,989.907,1239.018,963.048,1201.052,963.048z"/>
		<path style="fill:#FFFFFF;" d="M886.998,1251.554h-87.039c-7.168,0-14.03-5.072-15.326-11.328l-15.736-75.966
			c-1.296-6.256,3.465-11.328,10.633-11.328h87.04c7.168,0,14.03,5.072,15.326,11.328l15.736,75.966
			C898.927,1246.482,894.167,1251.554,886.998,1251.554z"/>
		<path style="fill:#FEAB47;" d="M1027.483,1251.554h-87.039c-7.169,0-14.03-5.072-15.326-11.328l-15.736-75.966
			c-1.296-6.256,3.464-11.328,10.633-11.328h87.04c7.168,0,14.03,5.072,15.326,11.328l15.736,75.966
			C1039.412,1246.482,1034.651,1251.554,1027.483,1251.554z"/>
		<path style="fill:#FFFFFF;" d="M1167.968,1251.554h-87.04c-7.168,0-14.03-5.072-15.326-11.328l-15.736-75.966
			c-1.296-6.256,3.465-11.328,10.633-11.328h87.04c7.168,0,14.03,5.072,15.326,11.328l15.736,75.966
			C1179.897,1246.482,1175.136,1251.554,1167.968,1251.554z"/>
		<path style="fill:#FFFFFF;" d="M1308.453,1251.554h-87.04c-7.168,0-14.03-5.072-15.326-11.328l-15.736-75.966
			c-1.296-6.256,3.465-11.328,10.633-11.328h87.04c7.168,0,14.03,5.072,15.326,11.328l15.736,75.966
			C1320.382,1246.482,1315.621,1251.554,1308.453,1251.554z"/>
		<path style="fill:#FFFFFF;" d="M911.453,1369.61h-87.04c-7.168,0-14.03-5.072-15.326-11.328l-15.736-75.966
			c-1.296-6.256,3.465-11.328,10.633-11.328h87.039c7.168,0,14.03,5.072,15.326,11.328l15.736,75.966
			C923.382,1364.538,918.621,1369.61,911.453,1369.61z"/>
		<path style="fill:#FFFFFF;" d="M1051.938,1369.61h-87.04c-7.168,0-14.03-5.072-15.326-11.328l-15.736-75.966
			c-1.296-6.256,3.465-11.328,10.633-11.328h87.04c7.168,0,14.03,5.072,15.326,11.328l15.736,75.966
			C1063.867,1364.538,1059.106,1369.61,1051.938,1369.61z"/>
		<path style="fill:#FFFFFF;" d="M1192.423,1369.61h-87.04c-7.168,0-14.03-5.072-15.326-11.328l-15.736-75.966
			c-1.296-6.256,3.465-11.328,10.633-11.328h87.04c7.168,0,14.03,5.072,15.326,11.328l15.736,75.966
			C1204.352,1364.538,1199.591,1369.61,1192.423,1369.61z"/>
		<path style="fill:#271E45;" d="M1332.908,1369.61h-87.04c-7.168,0-14.03-5.072-15.326-11.328l-15.736-75.966
			c-1.296-6.256,3.464-11.328,10.633-11.328h87.04c7.168,0,14.03,5.072,15.326,11.328l15.736,75.966
			C1344.837,1364.538,1340.076,1369.61,1332.908,1369.61z"/>
		<path style="fill:#5A66ED;" d="M935.908,1487.665h-87.039c-7.168,0-14.03-5.072-15.326-11.328l-15.736-75.966
			c-1.296-6.256,3.465-11.328,10.633-11.328h87.039c7.168,0,14.03,5.072,15.326,11.328l15.736,75.966
			C947.837,1482.594,943.076,1487.665,935.908,1487.665z"/>
		<path style="fill:#FFFFFF;" d="M1076.393,1487.665h-87.04c-7.168,0-14.03-5.072-15.326-11.328l-15.736-75.966
			c-1.296-6.256,3.464-11.328,10.633-11.328h87.04c7.168,0,14.03,5.072,15.326,11.328l15.736,75.966
			C1088.322,1482.594,1083.561,1487.665,1076.393,1487.665z"/>
		<path style="fill:#FFFFFF;" d="M1216.877,1487.665h-87.039c-7.168,0-14.03-5.072-15.326-11.328l-15.736-75.966
			c-1.296-6.256,3.464-11.328,10.633-11.328h87.04c7.168,0,14.03,5.072,15.326,11.328l15.736,75.966
			C1228.807,1482.594,1224.046,1487.665,1216.877,1487.665z"/>
		<path style="fill:#FFFFFF;" d="M1357.362,1487.665h-87.04c-7.168,0-14.03-5.072-15.326-11.328l-15.736-75.966
			c-1.296-6.256,3.465-11.328,10.633-11.328h87.039c7.168,0,14.03,5.072,15.326,11.328l15.736,75.966
			C1369.291,1482.594,1364.531,1487.665,1357.362,1487.665z"/>
		<path style="fill:#FFFFFF;" d="M960.363,1605.721h-87.039c-7.168,0-14.03-5.072-15.326-11.328l-15.736-75.966
			c-1.296-6.256,3.464-11.328,10.633-11.328h87.039c7.168,0,14.03,5.072,15.326,11.328l15.736,75.966
			C972.292,1600.649,967.531,1605.721,960.363,1605.721z"/>
		<path style="fill:#FFFFFF;" d="M1100.847,1605.721h-87.04c-7.168,0-14.03-5.072-15.326-11.328l-15.736-75.966
			c-1.296-6.256,3.465-11.328,10.633-11.328h87.039c7.168,0,14.03,5.072,15.326,11.328l15.736,75.966
			C1112.776,1600.649,1108.016,1605.721,1100.847,1605.721z"/>
		<path style="fill:#A9B7F2;" d="M1241.332,1605.721h-87.039c-7.169,0-14.03-5.072-15.326-11.328l-15.736-75.966
			c-1.296-6.256,3.464-11.328,10.633-11.328h87.039c7.168,0,14.03,5.072,15.326,11.328l15.736,75.966
			C1253.261,1600.649,1248.501,1605.721,1241.332,1605.721z"/>
		<path style="fill:#FFFFFF;" d="M1381.817,1605.721h-87.04c-7.168,0-14.03-5.072-15.326-11.328l-15.736-75.966
			c-1.296-6.256,3.465-11.328,10.633-11.328h87.04c7.168,0,14.03,5.072,15.326,11.328l15.736,75.966
			C1393.746,1600.649,1388.986,1605.721,1381.817,1605.721z"/>
	</g>
	<g>
		<path style="fill:#22205E;" d="M911.827,1706.574c-0.125,0-0.25-0.003-0.376-0.008l-83.422-3.312
			c-9.796-0.389-24.599-0.976-35.34-10.165c-12.64-10.811-14.24-28.771-15.197-39.501l-8.673-97.313
			c-0.457-5.124,3.327-9.648,8.451-10.105c5.135-0.456,9.649,3.327,10.105,8.451l8.673,97.313
			c0.953,10.688,2.413,21.577,8.75,26.999c5.39,4.61,14.044,5.312,23.969,5.706l83.421,3.312c5.141,0.204,9.143,4.536,8.939,9.677
			C920.929,1702.642,916.801,1706.574,911.827,1706.574z"/>
	</g>
	<g>
		<path style="fill:#22205E;" d="M1387.717,1076.917c-1.013,0-2.043-0.167-3.054-0.518c-4.86-1.687-7.433-6.994-5.746-11.854
			c9.306-26.818,4.976-58.496-11.58-84.736c-15.218-24.119-40.282-43.345-70.576-54.136c-52.351-18.649-111.42-10.324-163.535-2.978
			c-5.096,0.719-9.806-2.83-10.524-7.924c-0.718-5.094,2.83-9.806,7.924-10.524c54.242-7.645,115.721-16.312,172.388,3.876
			c34.206,12.185,62.646,34.113,80.08,61.745c19.552,30.987,24.57,68.664,13.424,100.785
			C1395.181,1074.502,1391.574,1076.917,1387.717,1076.917z"/>
	</g>
</g>
<g id="cup_00000171679641055171551730000007531597644827462563_">
	
		<rect x="1649.163" y="2172.713" transform="matrix(0.9585 0.2851 -0.2851 0.9585 752.3721 -381.0084)" style="fill:#5A66ED;" width="70.985" height="441.199"/>
	
		<rect x="1619.456" y="2241.743" transform="matrix(0.9639 -0.2662 0.2662 0.9639 -596.5388 523.4026)" style="fill:#311A4D;" width="26.231" height="441.199"/>
	<path style="fill:#FEAB47;" d="M1753.888,2363.604h-197.807c-22.852,0-41.377,18.525-41.377,41.377v288.865
		c0,42.202,34.211,76.413,76.413,76.413h128.876c41.572,0,75.273-33.701,75.273-75.273v-290.005
		C1795.265,2382.129,1776.74,2363.604,1753.888,2363.604z"/>
</g>
<g>
	<g>
		
			<ellipse transform="matrix(0.7526 -0.6585 0.6585 0.7526 491.8043 2547.8579)" style="fill:#FEAB47;" cx="3636.579" cy="619.438" rx="126.958" ry="97.189"/>
		<g>
			<path style="fill:#FFFFFF;" d="M3680.597,637.959L3680.597,637.959c-3.9,0-6.215-3.162-5.169-7.062l10.485-39.124
				c6.205-23.152-7.534-41.92-30.686-41.92l0,0c-23.152,0-46.95,18.768-53.155,41.92l-10.485,39.124
				c-1.045,3.9-5.054,7.062-8.955,7.062l0,0c-7.086,0-14.644,5.446-16.874,12.525c-2.381,7.558,1.969,13.797,9.448,13.797h98.708
				c7.479,0,15.174-6.239,16.844-13.797C3692.322,643.405,3687.684,637.959,3680.597,637.959z"/>
			<path style="fill:#FFFFFF;" d="M3641.576,670.377c-2.76,10.297-13.346,18.646-23.644,18.646s-16.409-8.349-13.649-18.646
				H3641.576z"/>
		</g>
		<path style="fill:#FEAB47;" d="M4095.083,679.322h-394.901l32.098-119.768h394.901c33.073,0,52.699,26.811,43.835,59.884v0
			C4162.152,652.511,4128.156,679.322,4095.083,679.322z"/>
		<path style="fill:#FFFFFF;" d="M4114.575,606.864h-335.163c-7.189,0-11.455-5.828-9.528-13.017l0,0
			c1.927-7.189,9.316-13.016,16.505-13.016h335.163c7.189,0,11.455,5.828,9.528,13.016l0,0
			C4129.153,601.036,4121.763,606.864,4114.575,606.864z"/>
		<path style="fill:#FFFFFF;" d="M4100.858,658.046h-335.163c-7.189,0-11.455-5.828-9.528-13.017v0
			c1.927-7.189,9.316-13.017,16.505-13.017h335.163c7.189,0,11.455,5.828,9.528,13.017v0
			C4115.436,652.218,4108.047,658.046,4100.858,658.046z"/>
	</g>
	<g>
		<path style="fill:#22205E;" d="M4190.419,632.154c-2.843,0-5.65-1.297-7.479-3.753c-3.072-4.127-2.218-9.962,1.909-13.035
			c12.795-9.524,16.862-30.705,9.067-47.215c-7.321-15.51-23.298-27.694-43.834-33.43c-18.362-5.129-37.766-5.076-61.243-3.418
			c-5.14,0.353-9.585-3.503-9.948-8.636c-0.362-5.132,3.504-9.586,8.636-9.948c21.992-1.551,45.394-2.135,67.567,4.059
			c25.748,7.191,46.039,23.018,55.67,43.42c5.411,11.462,7.093,24.779,4.732,37.498c-2.51,13.529-9.443,25.112-19.522,32.616
			C4194.304,631.554,4192.354,632.154,4190.419,632.154z"/>
	</g>
	<g>
		<path style="fill:#22205E;" d="M3601.707,785.88c-33.571,0.002-67.322-12.825-91.621-35.954
			c-31.881-30.346-46.852-77.832-38.138-120.977c1.018-5.043,5.934-8.305,10.975-7.287c5.043,1.019,8.306,5.932,7.287,10.975
			c-7.476,37.017,5.368,77.759,32.721,103.795c27.354,26.036,68.677,36.855,105.282,27.563c4.983-1.266,10.055,1.75,11.32,6.737
			c1.267,4.986-1.75,10.055-6.736,11.321C3622.649,784.629,3612.185,785.879,3601.707,785.88z"/>
	</g>
</g>
<g>
	<g>
		<g>
			
				<ellipse transform="matrix(0.7803 -0.6255 0.6255 0.7803 282.7577 3081.6704)" style="fill:#FEAB47;" cx="4527.085" cy="1138.426" rx="212.23" ry="163.774"/>
			<g>
				<path style="fill:#22205E;" d="M4333.419,1039.26c-1.993,0-4.002-0.637-5.699-1.952c-4.066-3.151-4.809-9.003-1.657-13.069
					c50.613-65.311,123.817-112.801,200.844-130.291c5.012-1.142,10.007,2.004,11.146,7.021c1.14,5.017-2.004,10.007-7.021,11.146
					c-72.888,16.551-142.229,61.578-190.242,123.535C4338.953,1038.019,4336.201,1039.26,4333.419,1039.26z"/>
			</g>
			
				<ellipse transform="matrix(0.7803 -0.6255 0.6255 0.7803 282.756 3081.6665)" style="fill:#FFFFFF;" cx="4527.085" cy="1138.426" rx="170.278" ry="131.4"/>
			
				<ellipse transform="matrix(0.7803 -0.6255 0.6255 0.7803 282.7527 3081.6592)" style="fill:#22205E;" cx="4527.085" cy="1138.426" rx="25.548" ry="19.715"/>
			<path style="fill:#22205E;" d="M4518.702,1157.406h6.824l35.063-133.877c0.482-1.841-0.655-3.333-2.54-3.333l0,0
				c-1.884,0-3.803,1.492-4.285,3.333L4518.702,1157.406z"/>
			<path style="fill:#22205E;" d="M4442.202,1187.278L4442.202,1187.278c2.685,5.986,10.71,7.471,17.926,3.319l62.053-35.713
				c5.393-3.104,8.139-9.246,6.133-13.72l-2.456-5.476c-2.006-4.473-8.004-5.584-13.396-2.48l-62.053,35.713
				C4443.191,1173.073,4439.518,1181.292,4442.202,1187.278z"/>
		</g>
		<path style="fill:#22205E;" d="M4555.362,1004.402c-0.964,3.681,1.31,6.665,5.079,6.665s7.606-2.984,8.57-6.665
			c0.964-3.681-1.31-6.666-5.079-6.666C4560.164,997.736,4556.327,1000.72,4555.362,1004.402z"/>
		<path style="fill:#22205E;" d="M4485.159,1272.45c-0.964,3.681,1.31,6.665,5.079,6.665c3.769,0,7.605-2.984,8.57-6.665
			c0.964-3.681-1.31-6.666-5.079-6.666S4486.124,1268.769,4485.159,1272.45z"/>
		<path style="fill:#22205E;" d="M4388.124,1145.092c3.769,0,7.605-2.984,8.57-6.666c0.964-3.681-1.31-6.666-5.079-6.666
			s-7.606,2.984-8.57,6.666C4382.081,1142.107,4384.355,1145.092,4388.124,1145.092z"/>
		<path style="fill:#22205E;" d="M4662.555,1145.092c3.769,0,7.606-2.984,8.57-6.666c0.964-3.681-1.31-6.666-5.079-6.666
			c-3.769,0-7.605,2.984-8.57,6.666C4656.512,1142.107,4658.786,1145.092,4662.555,1145.092z"/>
	</g>
	<g>
		<path style="fill:#22205E;" d="M4575.591,1359.194c-3.775,0-7.328-2.313-8.728-6.058c-1.8-4.819,0.647-10.186,5.467-11.986
			c29.845-11.149,60.706-22.678,86.961-40.812c28.415-19.626,47.439-45.146,53.567-71.857c1.151-5.014,6.153-8.146,11.162-6.996
			c5.015,1.15,8.146,6.148,6.996,11.162c-7.171,31.259-28.884,60.743-61.138,83.021c-28.157,19.449-60.119,31.388-91.029,42.935
			C4577.775,1359.004,4576.674,1359.194,4575.591,1359.194z"/>
	</g>
</g>
<g>
	<g>
		<g>
			<g>
				<path style="fill:#22205E;" d="M1881.186,388.257h244.528c0,0-15.571,152.04,46.719,238.358h-254.802
					C1917.632,626.615,1870.141,545.264,1881.186,388.257z"/>
				<g>
					<path style="fill:#FFFFFF;" d="M2081.004,464.129h-148.662c-2.25,0-4.073-1.824-4.073-4.073c0-2.25,1.824-4.073,4.073-4.073
						h148.662c2.25,0,4.073,1.824,4.073,4.073C2085.077,462.305,2083.254,464.129,2081.004,464.129z"/>
				</g>
				<g>
					<path style="fill:#FFFFFF;" d="M2090.595,527.916h-148.662c-2.25,0-4.073-1.824-4.073-4.073c0-2.249,1.824-4.073,4.073-4.073
						h148.662c2.25,0,4.073,1.824,4.073,4.073C2094.668,526.092,2092.845,527.916,2090.595,527.916z"/>
				</g>
			</g>
			<g>
				<path style="fill:#5A66ED;" d="M2192.117,662.634h244.528c0,0,8.279,150.484,20.888,238.358h-254.802
					C2202.732,900.992,2181.072,819.641,2192.117,662.634z"/>
				<g>
					<path style="fill:#FFFFFF;" d="M2402.007,747.819c-0.551,0-1.11-0.112-1.646-0.35c-0.529-0.234-0.958-0.527-1.291-0.791
						h-126.458c-0.128,0-0.257-0.006-0.385-0.018c-5.118-0.486-10.234-0.984-15.351-1.482c-5.11-0.497-10.22-0.995-15.332-1.48
						c-2.24-0.212-3.883-2.2-3.67-4.44c0.212-2.24,2.198-3.89,4.439-3.67c5.118,0.486,10.234,0.984,15.351,1.482
						c5.046,0.491,10.092,0.982,15.14,1.461h127.369c1.978,0,3.267,1.15,3.817,1.641l0.041,0.037
						c1.792,1.023,2.555,3.256,1.701,5.184C2405.061,746.914,2403.57,747.819,2402.007,747.819z M2400.175,746.678h0.01H2400.175z
						 M2403.659,740.02c0.001,0.001,0.002,0.001,0.003,0.002C2403.661,740.021,2403.66,740.021,2403.659,740.02z"/>
				</g>
				<g>
					<path style="fill:#FFFFFF;" d="M2407.825,817.191c-0.019,0-0.038,0-0.056,0l-155.382-2.114
						c-2.25-0.031-4.048-1.879-4.018-4.128c0.031-2.249,1.881-4.012,4.128-4.018l155.382,2.114c2.25,0.031,4.048,1.879,4.018,4.128
						C2411.867,815.404,2410.049,817.191,2407.825,817.191z"/>
				</g>
			</g>
			<g>
				<path style="fill:#FEAB47;" d="M1852.302,781.813h244.528c0,0,6.109,144.185,25.29,238.358l-255.756-4.658
					C1866.364,1015.513,1847.183,938.786,1852.302,781.813z"/>
				<g>
					<path style="fill:#FFFFFF;" d="M1900.25,867.027c-2.24,0-4.061-1.81-4.072-4.052c-0.012-2.25,1.802-4.083,4.052-4.094
						l149.619-0.767c0.007,0,0.015,0,0.021,0c2.24,0,4.061,1.81,4.072,4.052c0.012,2.25-1.802,4.083-4.052,4.094l-149.619,0.767
						C1900.264,867.027,1900.256,867.027,1900.25,867.027z"/>
				</g>
				<g>
					<path style="fill:#FFFFFF;" d="M2055.437,947.153c-0.101,0-0.203-0.004-0.305-0.011l-82.825-6.123
						c-19.839-1.468-42.327-3.13-62.161,3.645c-2.127,0.728-4.443-0.409-5.171-2.538c-0.727-2.128,0.409-4.443,2.538-5.171
						c21.408-7.313,44.777-5.584,65.394-4.06l82.825,6.124c2.243,0.166,3.927,2.119,3.762,4.362
						C2059.336,945.521,2057.549,947.153,2055.437,947.153z"/>
				</g>
			</g>
		</g>
		
			<rect x="1927.43" y="770.188" transform="matrix(0.9988 -0.0484 0.0484 0.9988 -35.6978 96.8277)" style="fill:#5A66ED;" width="105.288" height="29.612"/>
		
			<rect x="2258.648" y="644.428" transform="matrix(0.9923 0.1239 -0.1239 0.9923 99.4724 -281.2521)" style="fill:#22205E;" width="105.288" height="29.612"/>
		
			<rect x="1963.621" y="373.451" transform="matrix(0.9912 -0.1327 0.1327 0.9912 -33.6934 271.0449)" style="fill:#FEAB47;" width="105.288" height="29.612"/>
	</g>
	<g>
		<path style="fill:#22205E;" d="M1871.92,1077.234c-4.021,0-8.056-0.206-12.087-0.678c-22.28-2.609-41.265-13.795-50.785-29.924
			c-9.221-15.622-9.18-34.085-8.114-48.425c0.236-3.173,0.532-6.364,0.819-9.45c1.056-11.366,2.054-22.102,0.267-32.355
			c-0.883-5.068,2.51-9.893,7.578-10.776c5.075-0.882,9.893,2.51,10.776,7.578c2.213,12.702,1.052,25.195-0.07,37.277
			c-0.279,3.001-0.567,6.105-0.79,9.107c-0.864,11.629-1.011,26.409,5.579,37.575c6.578,11.145,20.375,18.955,36.908,20.89
			c16.116,1.887,32.963-1.36,49.256-4.502c5.051-0.973,9.936,2.332,10.91,7.383c0.974,5.052-2.332,9.937-7.383,10.911
			C1901.504,1074.405,1886.828,1077.234,1871.92,1077.234z"/>
	</g>
	<g>
		<path style="fill:#22205E;" d="M2492.35,742.906c-0.248,0-0.497-0.009-0.748-0.029c-5.128-0.407-8.956-4.895-8.549-10.023
			c1.713-21.574,3.844-48.423-7.057-69.005c-11.8-22.279-39.609-35.067-64.69-29.745c-5.032,1.068-9.978-2.146-11.046-7.179
			c-1.068-5.033,2.146-9.978,7.179-11.046c32.916-6.983,69.471,9.888,85.021,39.25c13.438,25.373,11.068,55.218,9.165,79.2
			C2501.238,739.205,2497.16,742.906,2492.35,742.906z"/>
	</g>
	<g>
		<path style="fill:#22205E;" d="M1844.383,454.78c-4.493,0-8.449-3.258-9.186-7.836c-2.053-12.756-4.176-25.946-3.349-39.601
			c0.686-11.337,3.872-27.545,15.144-40.381c12.472-14.201,32.44-20.659,50.865-16.458c5.016,1.144,8.154,6.138,7.01,11.154
			c-1.144,5.016-6.135,8.156-11.154,7.01c-11.672-2.662-24.822,1.592-32.724,10.588c-7.792,8.872-10.036,20.783-10.546,29.213
			c-0.703,11.601,1.254,23.758,3.146,35.515c0.817,5.079-2.637,9.859-7.717,10.677
			C1845.374,454.741,1844.875,454.78,1844.383,454.78z"/>
	</g>
</g>
<g>
	<g id="send_00000075865795649324544580000012874474437603223685_">
		<g>
			<g>
				<path style="fill:#FEAB47;" d="M673.284,2588.543h302.448c26.825,0,41.138-21.746,31.968-48.572l-168.578-493.165
					c-9.17-26.825-38.349-48.572-65.175-48.572H471.5c-26.825,0-41.138,21.746-31.969,48.572l168.578,493.165
					C617.279,2566.797,646.459,2588.543,673.284,2588.543z"/>
				<path style="fill:#22205E;" d="M584.821,2137.06h-59.793c-11.944,0-24.937-9.683-29.02-21.627l-20.439-59.793
					c-4.083-11.944,2.29-21.627,14.234-21.627h59.793c11.944,0,24.937,9.683,29.02,21.627l20.439,59.793
					C603.138,2127.377,596.765,2137.06,584.821,2137.06z"/>
				<path style="fill:#5167ED;" d="M636.352,2287.813H576.56c-11.944,0-24.937-9.683-29.02-21.627l-20.439-59.793
					c-4.083-11.944,2.29-21.627,14.234-21.627h59.793c11.944,0,24.937,9.683,29.02,21.627l20.439,59.793
					C654.67,2278.131,648.297,2287.813,636.352,2287.813z"/>
				<path style="fill:#22205E;" d="M687.884,2438.567h-59.793c-11.944,0-24.937-9.683-29.02-21.627l-20.439-59.793
					c-4.083-11.944,2.29-21.627,14.234-21.627h59.793c11.944,0,24.937,9.683,29.02,21.627l20.439,59.793
					C706.202,2428.884,699.829,2438.567,687.884,2438.567z"/>
				<g>
					<path style="fill:#FFFFFF;" d="M698.169,2067.358c-27.229,0-55.175-2.164-83.612-6.489c-2.645-0.402-4.463-2.872-4.061-5.517
						c0.402-2.645,2.871-4.47,5.517-4.06c50.125,7.623,98.675,8.417,144.301,2.36c2.653-0.349,5.086,1.513,5.438,4.164
						c0.352,2.652-1.512,5.087-4.164,5.439C740.987,2065.991,719.803,2067.358,698.169,2067.358z"/>
				</g>
				<g>
					<path style="fill:#FFFFFF;" d="M729.269,2122.084c-32.464,0-65.676-2.066-99.196-6.186c-2.655-0.326-4.543-2.743-4.217-5.398
						c0.326-2.655,2.746-4.543,5.398-4.217c47.378,5.822,94.125,7.497,138.941,4.979c2.678-0.147,4.958,1.894,5.107,4.564
						s-1.894,4.957-4.565,5.107C757.08,2121.702,743.241,2122.084,729.269,2122.084z"/>
				</g>
				<g>
					<path style="fill:#FFFFFF;" d="M653.875,2214.222c-2.585,0-4.731-2.042-4.836-4.648c-0.108-2.673,1.971-4.927,4.644-5.035
						l91.946-3.715c2.672-0.058,4.927,1.972,5.035,4.645c0.108,2.673-1.971,4.927-4.644,5.035l-91.946,3.715
						C654.007,2214.22,653.94,2214.222,653.875,2214.222z"/>
				</g>
				<g>
					<path style="fill:#FFFFFF;" d="M723.451,2269.318c-16.198,0-32.979-1.707-50.069-5.138c-2.623-0.526-4.322-3.08-3.796-5.702
						c0.527-2.623,3.083-4.323,5.702-3.796c40.904,8.213,79.848,6.18,112.622-5.875c2.508-0.927,5.294,0.363,6.218,2.874
						c0.923,2.511-0.363,5.294-2.874,6.218C770.603,2265.495,747.683,2269.318,723.451,2269.318z"/>
				</g>
				<g>
					<path style="fill:#FFFFFF;" d="M709.461,2361.778c-2.604,0-4.755-2.069-4.838-4.691c-0.084-2.674,2.015-4.909,4.689-4.993
						l117.017-3.689c2.69-0.113,4.91,2.014,4.994,4.688c0.084,2.674-2.015,4.909-4.688,4.993l-117.017,3.689
						C709.565,2361.777,709.513,2361.778,709.461,2361.778z"/>
				</g>
				<g>
					<path style="fill:#FFFFFF;" d="M776.922,2425.736c-16.601,0-33.581-1.209-50.73-3.641c-2.648-0.376-4.491-2.827-4.115-5.476
						c0.376-2.648,2.822-4.48,5.476-4.116c47.534,6.743,93.682,3.837,133.455-8.399c2.559-0.79,5.267,0.647,6.054,3.205
						c0.787,2.557-0.648,5.267-3.205,6.053C837.143,2421.581,807.69,2425.736,776.922,2425.736z"/>
				</g>
			</g>
			<g>
				<path style="fill:#22205E;" d="M902.312,2561.531H728.238c-13.742,0-28.691-11.14-33.388-24.883l-12.857-37.611
					c-4.697-13.742,2.635-24.883,16.377-24.883h174.074c13.742,0,28.691,11.14,33.388,24.883l12.857,37.611
					C923.386,2550.391,916.054,2561.531,902.312,2561.531z"/>
			</g>
			<g>
				<path style="fill:#FEAB47;" d="M595.148,2273.638c-2.261,0-4.618-0.858-6.646-2.5l-27.272-22.069
					c-1.963-1.589-2.267-4.468-0.678-6.432c1.589-1.962,4.468-2.267,6.431-0.678l26.905,21.772
					c1.319-22.356,6.659-43.033,15.885-61.491c1.13-2.26,3.878-3.174,6.135-2.045c2.259,1.129,3.175,3.875,2.046,6.135
					c-8.963,17.931-14.027,38.149-15.05,60.094c-0.136,2.908-1.763,5.339-4.354,6.501
					C597.483,2273.405,596.329,2273.638,595.148,2273.638z"/>
			</g>
		</g>
		<g>
			<g>
				<path style="fill:#FFFFFF;" d="M734.188,2556.896c-3.606,0-7.456-0.819-11.19-2.448c-2.452-1.07-3.572-3.925-2.503-6.377
					c1.07-2.451,3.925-3.572,6.376-2.502c5.216,2.277,9.468,1.877,11.708,0.744c1.27-0.643,2.02-1.538,2.292-2.74
					c1.02-4.493-3.958-13.544-11.904-18.478c-2.022-1.257-4.185-2.274-6.476-3.353c-2.998-1.412-6.1-2.871-9.114-4.983
					c-6.586-4.614-11.349-11.987-12.134-18.785c-0.475-4.104,0.513-7.658,2.855-10.278c2.305-2.577,5.735-4.013,9.919-4.153
					c6.966-0.229,15.133,3.186,20.791,8.714c1.914,1.869,1.949,4.936,0.08,6.849c-1.869,1.914-4.936,1.948-6.849,0.08
					c-3.741-3.656-9.388-6.098-13.695-5.962c-1.415,0.048-2.545,0.396-3.023,0.931c-0.432,0.481-0.597,1.47-0.454,2.709
					c0.382,3.307,3.07,8.46,8.069,11.963c2.333,1.635,4.932,2.857,7.682,4.152c2.439,1.148,4.961,2.335,7.46,3.888
					c11.2,6.954,18.334,19.627,16.241,28.852c-0.912,4.018-3.529,7.299-7.369,9.24
					C740.391,2556.252,737.385,2556.896,734.188,2556.896z"/>
			</g>
			<g>
				<path style="fill:#FFFFFF;" d="M782.787,2557.529c-1.902,0-4.01-0.111-6.442-0.405c-4.631-0.563-9.145-4.312-10.501-8.721
					l-15.483-50.342c-0.836-2.718-1.981-6.44-0.794-9.888c1.408-4.086,5.492-6.417,10.919-6.339
					c2.266,0.05,14.862,0.725,18.881,1.888c2.569,0.743,4.05,3.429,3.307,5.998c-0.744,2.569-3.431,4.055-5.999,3.307
					c-2.225-0.644-12.621-1.426-16.398-1.507c-0.727-0.031-1.243,0.073-1.552,0.16c0.079,0.879,0.616,2.627,0.895,3.533
					l15.483,50.342c0.214,0.696,1.519,1.844,2.408,1.951c5.14,0.623,8.524,0.249,12.108-0.149c2.487-0.274,5.052-0.53,8.226-0.54
					c2.675,0.018,4.83,2.2,4.812,4.875c-0.017,2.664-2.183,4.813-4.843,4.813c-0.096-0.004-0.192-0.001-0.287-0.001
					c-2.489,0-4.605,0.234-6.841,0.481C788.256,2557.254,785.776,2557.529,782.787,2557.529z"/>
			</g>
			<g>
				<path style="fill:#FFFFFF;" d="M787.228,2524.447l-24.287-0.039c-2.675-0.005-4.84-2.177-4.836-4.852
					c0.005-2.673,2.172-4.836,4.844-4.836c0.003,0,0.005,0,0.008,0l24.267,0.039l0.011,4.844L787.228,2524.447z"/>
			</g>
			<g>
				<path style="fill:#FFFFFF;" d="M844.872,2556.933c-1.391,0-2.758-0.599-3.706-1.722c-5.623-6.672-11.451-13.775-17.082-21.19
					l5.703,15.177c0.941,2.504-0.326,5.297-2.83,6.238c-2.503,0.942-5.296-0.326-6.237-2.83l-23.731-63.147
					c-0.927-2.467,0.289-5.223,2.736-6.201c2.444-0.976,5.227,0.179,6.257,2.604c6.172,14.541,15.696,28.99,25.937,42.459
					l-13.191-39.937c-0.839-2.54,0.54-5.279,3.08-6.119c2.539-0.837,5.279,0.541,6.118,3.08l21.543,65.225
					c0.728,2.204-0.21,4.615-2.236,5.747C846.489,2556.733,845.677,2556.933,844.872,2556.933z"/>
			</g>
			<g>
				<path style="fill:#FFFFFF;" d="M877.801,2556.759c-2.751,0.001-5.616-0.367-8.527-1.13c-2.842-0.743-3.437-2.339-6.732-11.176
					c-1.686-4.521-3.619-9.935-4.897-13.518c-0.676-1.896-1.172-3.288-1.355-3.769l-8.665-22.813
					c-0.597-1.572-1.404-3.38-2.257-5.294c-0.983-2.203-1.999-4.481-2.86-6.76c-1.44-3.811-0.971-7.518,1.288-10.172
					c2.314-2.721,6.044-3.792,10.229-2.94c6.242,1.268,18.525,6.971,26.168,13.126c9.521,7.668,15.846,15.962,19.906,26.103
					c4.622,11.544,3.164,18.269-1.142,26.641C895.117,2552.525,887.126,2556.759,877.801,2556.759z M873.793,2546.715
					c7.531,1.355,13.896-0.93,16.551-6.089c3.211-6.242,4.253-9.889,0.763-18.608c-3.464-8.651-8.704-15.485-16.989-22.158
					c-6.167-4.967-17.09-10.177-22.022-11.179c-0.243-0.049-0.45-0.074-0.621-0.085c0.025,0.084,0.056,0.178,0.095,0.281
					c0.761,2.014,1.719,4.16,2.645,6.237c0.911,2.043,1.772,3.973,2.467,5.802l8.664,22.812c0.191,0.504,0.713,1.963,1.423,3.951
					C868.175,2531.621,872.039,2542.445,873.793,2546.715z M871.724,2546.257c0.001,0,0.002,0,0.003,0.001
					C871.726,2546.258,871.725,2546.257,871.724,2546.257z"/>
			</g>
		</g>
	</g>
	<g>
		<path style="fill:#22205E;" d="M900.317,2110.906c-4.612,0-8.618-3.424-9.227-8.12c-2.31-17.845-4.699-36.296-12.309-55.032
			c-4.866-11.982-16.452-34.606-39.365-51.514c-18.141-13.386-37.58-18.791-50.692-20.968c-17.05-2.829-33.266-2.074-48.95-1.345
			c-5.143,0.234-9.499-3.732-9.738-8.871c-0.239-5.14,3.733-9.499,8.872-9.738c16.651-0.775,33.871-1.576,52.866,1.575
			c15.126,2.511,37.588,8.774,58.703,24.356c19.706,14.54,35.888,35.669,45.564,59.493c8.516,20.967,11.063,40.633,13.525,59.65
			c0.66,5.103-2.94,9.773-8.042,10.435C901.12,2110.88,900.716,2110.906,900.317,2110.906z"/>
	</g>
	<g>
		<path style="fill:#22205E;" d="M654.576,2653.225c-15.704,0-40.402-3.305-60.85-20.832
			c-16.872-14.462-24.609-33.218-31.087-51.188l-31.292-86.806c-1.745-4.84,0.765-10.178,5.604-11.923
			c4.84-1.746,10.177,0.765,11.922,5.604l31.292,86.806c5.868,16.278,12.248,31.844,25.685,43.362
			c18.122,15.534,41.162,16.848,53.285,16.233c4.75-0.237,9.391-0.704,14.306-1.198c13.753-1.384,27.974-2.813,44.476,0.989
			c5.013,1.155,8.141,6.155,6.985,11.169c-1.155,5.014-6.153,8.142-11.169,6.985c-13.509-3.113-25.614-1.897-38.428-0.606
			c-4.928,0.495-10.023,1.008-15.241,1.269C658.396,2653.172,656.558,2653.225,654.576,2653.225z"/>
	</g>
</g>
</svg>
