<?xml version="1.0" encoding="utf-8"?>
<!-- Generator: Adobe Illustrator 27.5.0, SVG Export Plug-In . SVG Version: 6.00 Build 0)  -->
<svg version="1.1" id="Layer_1" xmlns="http://www.w3.org/2000/svg" xmlns:xlink="http://www.w3.org/1999/xlink" x="0px" y="0px"
	 viewBox="0 0 5000 5000" style="enable-background:new 0 0 5000 5000;" xml:space="preserve">
<g id="Meditation">
	<g>
		<g>
			<g>
				<path style="fill:#E4ECF9;" d="M3690.681,4112.926h880.242c0.131-0.726,0.498-1.358,0.543-2.113l40.064-661.806
					c0.653-10.779-7.914-19.882-18.713-19.882h-924.031c-10.8,0-19.366,9.103-18.714,19.882l40.065,661.806
					C3690.183,4111.567,3690.549,4112.2,3690.681,4112.926z"/>
			</g>
		</g>
		<g>
			<g>
				<path style="fill:#4A5258;" d="M3690.681,4112.926h880.242c0.131-0.726,0.498-1.358,0.543-2.113l2.778-45.899h-886.885
					l2.778,45.899C3690.183,4111.567,3690.549,4112.2,3690.681,4112.926z"/>
			</g>
		</g>
		<g>
			<g>
				<ellipse style="fill:#BBCAEA;" cx="4130.802" cy="3771.025" rx="60.329" ry="83.213"/>
			</g>
		</g>
		<g>
			<g>
				<g>
					<path style="fill:#2E363A;" d="M1774.813,2930.615c-53.197-46.446-101.237-100.219-132.459-163.561
						c-31.222-63.343-44.628-137.084-27.922-205.699c16.706-68.615,66.078-130.617,132.807-153.733
						c23.906-8.282,49.334-11.584,73.122-20.202c23.787-8.617,46.967-24.138,55.821-47.839c10.145-27.158-0.896-54.656-6.217-81.443
						c-4.873-24.531-3.391-48.085,4.177-72.11c16.629-52.793,58.097-96.27,105.11-123.888
						c71.849-42.208,157.017-54.824,237.164-75.654c16.432-4.271,31.962-12.44,43.342-25.04
						c34.008-37.652,7.418-76.348-5.438-113.905c-21.835-63.788-1.979-138.026,43.593-187.715
						c45.572-49.688,113.776-75.602,181.19-76.628c54.241-0.826,107.843,13.449,156.851,37.098
						c20.377,9.833,43.487,10.252,64.652,2.254c21.576-8.153,44.178-8.778,69.811-3.482
						c67.205,13.885,127.247,59.113,159.139,119.876c31.892,60.763,35.01,135.87,8.262,199.066
						c-13.948,32.956-35.563,62.942-43.691,97.792c-11.464,49.152,5.595,100.417,27.595,145.842
						c22,45.424,49.436,89.067,60.727,138.26c11.29,49.193,2.457,107.312-37.248,138.471
						c-152.292-57.805-334.937-11.066-454.355,99.721c-79.383,73.645-129.239,174.165-205.762,250.778
						C2154.432,2939.678,1914.08,3052.206,1774.813,2930.615z"/>
				</g>
			</g>
			<g>
				<g>
					<g>
						<g>
							<rect x="445.461" y="4112.926" style="fill:#CE704C;" width="4204.539" height="130.701"/>
						</g>
					</g>
				</g>
				<g>
					<g>
						<g>
							<g>
								<path style="fill:#71C687;" d="M797.573,3208.454c4.149,24.48,14.291,47.999,15.107,72.81
									c0.816,24.811-11.683,52.993-36.047,58.625c-18.39,4.251-40.754-4.665-54.899,7.747
									c-8.306,7.288-10.124,19.782-7.644,30.505c2.48,10.723,8.51,20.236,13.935,29.831c22.58,39.94,35.977,84.957,38.884,130.662
									c2.24,35.205-1.652,70.575,0.418,105.791c1.42,24.164-1.127,46.308,15.562,66.475c9.354,11.303,23.216,19.273,37.94,19.94
									c14.723,0.667,29.96-6.651,37.159-19.413c8.902-15.781,4.515-35.228,3.726-53.297c-1.299-29.733,8.193-61.232,27.645-84.12
									c15.729-18.507,36.976-38.673,31.604-62.289c-2.362-10.383-9.737-18.974-13.045-29.1
									c-8.297-25.393,10.508-51.218,29.741-69.882c19.233-18.664,41.726-38.656,43.054-65.318
									c1.042-20.915-11.635-39.976-25.424-55.829c-13.789-15.852-29.609-30.848-37.188-50.391
									c-9.497-24.488-4.489-51.889,0.927-77.572c5.416-25.683,11.058-52.808,2.672-77.693
									c-5.83-17.299-25.796-39.789-46.35-37.751c-16.118,1.598-33.568,24.873-43.095,36.353
									C804.011,3118.571,790.164,3164.741,797.573,3208.454z"/>
							</g>
						</g>
						<g>
							<g>
								<path style="fill:#61BA76;" d="M805.406,3858.451c-4.579-60.38-4.77-119.86-2.388-179.783
									c2.727-59.771,8.564-119.492,20.206-178.262c11.546-58.681,26.515-116.552,38.885-174.904
									c12.83-57.934,19.133-119.086,1.475-176.855c18.52,57.477,13.111,119.15,1.092,177.362
									c-11.54,58.631-25.659,116.691-36.311,175.36c-20.742,117.16-22.006,237.856-12.593,355.65L805.406,3858.451z"/>
							</g>
						</g>
						<g>
							<g>
								<g>
									<path style="fill:#7CD194;" d="M1280.686,3384.996c-1.571,12.471-14.65,20.253-27.205,22.851
										c-12.555,2.066-25.634,1.027-37.665,4.145c-12.031,3.637-24.069,14.018-22.498,26.476
										c1.047,9.341,9.42,16.096,11.508,24.917c2.095,9.354-2.612,19.734-9.419,25.957c-7.318,6.755-16.214,10.913-25.11,14.537
										c-26.681,11.419-53.362,22.839-80.043,33.751c-7.842,3.625-16.214,7.262-23.016,12.978
										c-6.801,5.703-11.508,14.537-10.984,23.359c1.571,16.603,20.404,25.437,28.776,39.455
										c9.937,16.616,3.659,38.415-9.943,51.394c-13.602,13.498-32.959,18.682-51.791,20.76
										c-18.833,2.079-38.189,1.039-57.021,3.118c-27.729,3.118-54.933,13.498-77.949,29.594
										c-6.808,4.664-20.927,21.8-25.11,9.341c-2.618-6.743-2.095-16.096-4.189-23.358c-1.571-8.302-4.189-16.096-6.801-24.398
										c-7.325-22.332-15.691-44.651-17.785-68.529c-1.571-23.358,4.183-48.795,21.968-64.372
										c10.467-9.861,24.069-15.057,36.101-22.319c12.032-7.275,23.546-18.694,24.587-32.712
										c1.047-14.537-9.42-26.996-15.691-39.974c-6.808-12.979-8.896-31.66,3.659-39.455c12.031-7.782,27.729,1.039,36.624,11.939
										c9.413,10.38,17.262,23.358,30.858,28.035c15.173,4.677,31.394-4.145,41.855-16.083
										c10.461-11.952,17.268-26.489,26.681-38.935c20.927-27.528,55.457-42.573,89.98-47.769
										c34.53-5.184,69.583-1.039,104.63,2.598c9.943,1.559,20.927,2.598,29.823,7.782
										C1274.402,3364.755,1281.733,3374.615,1280.686,3384.996z"/>
								</g>
							</g>
							<g>
								<g>
									<path style="fill:#61BA76;" d="M841.724,3850.048c-0.632-49.531,12.727-96.526,30.085-141.076
										c17.721-44.537,40.686-86.78,67.399-126.374c53.56-78.694,122.588-148.921,207.561-193.129
										c-83.696,46.514-150.144,118.136-200.983,197.375c-25.327,39.848-46.816,82.154-62.973,126.273
										c-15.857,43.954-27.294,90.481-25.417,136.044l0.019,0.469c0.173,4.297-3.193,7.921-7.523,8.099
										c-4.33,0.177-7.983-3.169-8.161-7.465C841.731,3850.213,841.724,3850.112,841.724,3850.048z"/>
								</g>
							</g>
						</g>
						<g>
							<g>
								<g>
									<path style="fill:#7CD194;" d="M350.1,3384.996c1.571,12.471,14.65,20.253,27.205,22.851
										c12.555,2.066,25.634,1.027,37.665,4.145c12.031,3.637,24.069,14.018,22.498,26.476
										c-1.047,9.341-9.419,16.096-11.508,24.917c-2.095,9.354,2.612,19.734,9.419,25.957c7.319,6.755,16.214,10.913,25.11,14.537
										c26.681,11.419,53.362,22.839,80.043,33.751c7.842,3.625,16.214,7.262,23.016,12.978
										c6.801,5.703,11.508,14.537,10.984,23.359c-1.571,16.603-20.404,25.437-28.776,39.455
										c-9.937,16.616-3.659,38.415,9.943,51.394c13.602,13.498,32.959,18.682,51.791,20.76
										c18.833,2.079,38.189,1.039,57.021,3.118c27.729,3.118,54.933,13.498,77.949,29.594c6.808,4.664,20.927,21.8,25.11,9.341
										c2.618-6.743,2.095-16.096,4.189-23.358c1.571-8.302,4.189-16.096,6.801-24.398c7.325-22.332,15.691-44.651,17.785-68.529
										c1.571-23.358-4.183-48.795-21.968-64.372c-10.467-9.861-24.069-15.057-36.101-22.319
										c-12.031-7.275-23.546-18.694-24.586-32.712c-1.047-14.537,9.419-26.996,15.691-39.974
										c6.808-12.979,8.896-31.66-3.659-39.455c-12.031-7.782-27.728,1.039-36.624,11.939
										c-9.413,10.38-17.262,23.358-30.858,28.035c-15.173,4.677-31.394-4.145-41.854-16.083
										c-10.46-11.952-17.268-26.489-26.681-38.935c-20.927-27.528-55.457-42.573-89.98-47.769
										c-34.53-5.184-69.583-1.039-104.63,2.598c-9.943,1.559-20.927,2.598-29.823,7.782
										C356.384,3364.755,349.053,3374.615,350.1,3384.996z"/>
								</g>
							</g>
							<g>
								<g>
									<path style="fill:#61BA76;" d="M789.061,3850.048c0.632-49.531-12.727-96.526-30.085-141.076
										c-17.721-44.537-40.686-86.78-67.399-126.374c-53.56-78.694-122.588-148.921-207.561-193.129
										c83.696,46.514,150.144,118.136,200.983,197.375c25.327,39.848,46.816,82.154,62.973,126.273
										c15.857,43.954,27.294,90.481,25.417,136.044l-0.019,0.469c-0.172,4.297,3.193,7.921,7.523,8.099
										c4.33,0.177,7.983-3.169,8.161-7.465C789.055,3850.213,789.061,3850.112,789.061,3850.048z"/>
								</g>
							</g>
						</g>
						<g>
							<g>
								<path style="fill:#E4ECF9;" d="M972.543,3868.935l-52.315,234.13c-1.041,5.703-6.271,9.86-12.555,9.86H726.142
									c-6.271,0-11.508-4.157-12.555-9.86l-0.524-3.118l-51.791-231.012c-2.095-8.314,4.189-15.576,12.031-15.576h287.208
									C968.367,3853.359,974.638,3860.621,972.543,3868.935z"/>
							</g>
						</g>
						<g>
							<g>
								<path style="fill:#BBCAEA;" d="M972.543,3868.935l-52.315,234.13c-1.041,5.703-6.271,9.86-12.555,9.86H726.142
									c-6.271,0-11.508-4.157-12.555-9.86l-0.524-3.118c37.665-15.576,73.242-35.817,104.63-61.254
									c60.163-48.289,107.248-112.661,133.406-185.334h9.413C968.367,3853.359,974.638,3860.621,972.543,3868.935z"/>
							</g>
						</g>
					</g>
					<g>
						<g>
							<g>
								<g>
									<path style="fill:#022033;" d="M2151.568,3495.985c0,0-626.656-203.079-665.51-64.035
										c-48.124,172.217,981.341,443.518,981.341,443.518s1200.93-303.397,1086.882-441.12
										c-118.53-143.136-634.397,53.676-634.397,53.676L2151.568,3495.985z"/>
								</g>
							</g>
							<g>
								<g>
									<g>
										<g>
											<path style="fill:#003567;" d="M1464.64,3720.679c0.306,0.306,0.919,0.612,1.225,1.225
												c33.955,30.284,680.027,284.187,927.2,340.469c47.413,11.016,79.837,14.683,91.159,8.26
												c64.848-36.707,94.218-257.263,83.511-270.729c0,0-29.06-12.233-77.089-33.033
												c-162.438-69.747-541.757-234.634-736.01-335.883c-40.072-20.799-76.782-35.184-110.428-44.355
												C1445.98,3332.793,1311.075,3583.94,1464.64,3720.679z"/>
										</g>
									</g>
									<g>
										<g>
											<path style="fill:#022E4F;" d="M2393.065,4062.372c47.413,11.016,79.837,14.683,91.159,8.26
												c64.848-36.707,94.218-257.263,83.511-270.729c0,0-29.06-12.233-77.089-33.033
												C2491.872,3767.483,2464.033,3988.652,2393.065,4062.372z"/>
										</g>
									</g>
									<g>
										<g>
											<g>
												<g>
													<path style="fill:#4A5258;" d="M2770.551,3932.423l17.339,181.659l329.658,26.297
														c67.298,2.756,123.583-51.39,123.583-118.994c0-65.774-53.533-118.695-118.688-118.695h-4.896L2770.551,3932.423z"/>
												</g>
											</g>
											<g>
												<g>
													<path style="fill:#FEC9AC;" d="M2936.765,4007.086c2.682,151.981-163.004,103.706-163.004,103.706l-33.227-7.599
														l-239.44-54.386l42.465-134.393l25.627-80.908l69.285,34.121h0.149l50.808,25.031l28.459,13.856l17.731,8.792
														l34.865,17.137C2770.482,3932.441,2934.977,3900.106,2936.765,4007.086z"/>
												</g>
											</g>
											<g style="opacity:0.5;">
												<g>
													<path style="fill:#FFAB90;" d="M2769.439,4059.832c-5.81,16.541-16.091,31.142-28.906,43.361l-239.44-54.386
														l42.465-134.393c18.177-16.988,39.782-30.545,63.026-39.337c9.982-3.725,21.157-6.704,31.886-7.45h0.149
														c12.218-0.746,23.989,1.342,33.971,8.345c6.556,4.62,11.473,10.877,16.837,16.686c2.533,2.535,5.066,5.067,7.897,7.301
														c6.556,5.217,12.963,6.555,20.562,6.555c0.745,0.153,1.49,0.153,2.234,0.153c4.768,0,5.066-2.834,9.536-0.298
														c1.937,1.04,4.172,5.362,5.96,8.938c0.745,1.641,1.49,3.277,2.085,4.172c11.175,18.326,21.605,37.1,28.608,57.366
														C2775.549,4003.514,2778.677,4033.161,2769.439,4059.832z"/>
												</g>
											</g>
											<g>
												<g>
													<path style="fill:#2E363A;" d="M2971.223,3970.042v103.086c0,5.818,4.896,10.71,11.016,10.71
														c6.117,0,11.009-4.892,11.009-10.71v-103.086c0-5.81-4.892-10.71-11.009-10.71
														C2976.118,3959.333,2971.223,3964.232,2971.223,3970.042z"/>
												</g>
											</g>
											<g>
												<g>
													<path style="fill:#2E363A;" d="M3021.062,3970.042v103.086c0,5.818,4.896,10.71,11.016,10.71
														c6.117,0,11.008-4.892,11.008-10.71v-103.086c0-5.81-4.892-10.71-11.008-10.71
														C3025.958,3959.333,3021.062,3964.232,3021.062,3970.042z"/>
												</g>
											</g>
											<g>
												<g>
													<path style="fill:#2E363A;" d="M3070.902,3970.042v103.086c0,5.818,4.896,10.71,11.016,10.71
														c6.117,0,11.009-4.892,11.009-10.71v-103.086c0-5.81-4.892-10.71-11.009-10.71
														C3075.797,3959.333,3070.902,3964.232,3070.902,3970.042z"/>
												</g>
											</g>
										</g>
									</g>
									<g>
										<g>
											<g>
												<g>
													<path style="fill:#4A5258;" d="M2328.41,3932.423l-17.339,181.659l-329.658,26.297
														c-67.298,2.756-123.583-51.39-123.583-118.994c0-65.774,53.533-118.695,118.688-118.695h4.896L2328.41,3932.423z"/>
												</g>
											</g>
											<g>
												<g>
													<path style="fill:#FEC9AC;" d="M2597.794,4048.806l-178.5,40.68l-94.018,21.306c0,0-165.686,48.275-163.153-103.706
														c1.789-106.98,166.282-74.645,166.282-74.645l115.026-56.471l86.42-42.466L2597.794,4048.806z"/>
												</g>
											</g>
											<g style="opacity:0.5;">
												<g>
													<path style="fill:#FFAB90;" d="M2597.794,4048.806l-178.5,40.68c-5.065-14.605-8.493-29.654-10.281-44.852
														c-4.619-39.185,1.341-79.264,13.559-116.961c5.811-17.73,12.814-34.867,20.859-51.702l86.42-42.466L2597.794,4048.806z
														"/>
												</g>
											</g>
											<g>
												<g>
													<path style="fill:#2E363A;" d="M2127.738,3970.042v103.086c0,5.818-4.896,10.71-11.016,10.71
														c-6.117,0-11.008-4.892-11.008-10.71v-103.086c0-5.81,4.892-10.71,11.008-10.71
														C2122.843,3959.333,2127.738,3964.232,2127.738,3970.042z"/>
												</g>
											</g>
											<g>
												<g>
													<path style="fill:#2E363A;" d="M2077.899,3970.042v103.086c0,5.818-4.895,10.71-11.016,10.71
														c-6.116,0-11.008-4.892-11.008-10.71v-103.086c0-5.81,4.892-10.71,11.008-10.71
														C2073.003,3959.333,2077.899,3964.232,2077.899,3970.042z"/>
												</g>
											</g>
											<g>
												<g>
													<path style="fill:#2E363A;" d="M2028.059,3970.042v103.086c0,5.818-4.896,10.71-11.016,10.71
														c-6.117,0-11.008-4.892-11.008-10.71v-103.086c0-5.81,4.892-10.71,11.008-10.71
														C2023.164,3959.333,2028.059,3964.232,2028.059,3970.042z"/>
												</g>
											</g>
										</g>
									</g>
									<g>
										<g>
											<path style="fill:#003567;" d="M3547.859,3720.679c-0.306,0.306-0.919,0.612-1.225,1.225
												c-33.955,30.284-680.027,284.187-927.2,340.469c-47.413,11.016-79.837,14.683-91.159,8.26
												c-64.848-36.707-94.218-257.263-83.512-270.729c0,0,29.06-12.233,77.089-33.033
												c162.438-69.747,541.757-234.634,736.01-335.883c40.072-20.799,76.782-35.184,110.428-44.355
												C3566.519,3332.793,3701.424,3583.94,3547.859,3720.679z"/>
										</g>
									</g>
									<g>
										<g>
											<path style="fill:#022E4F;" d="M2619.434,4062.372c-47.413,11.016-79.837,14.683-91.159,8.26
												c-64.848-36.707-94.218-257.263-83.512-270.729c0,0,29.06-12.233,77.089-33.033
												C2520.627,3767.483,2548.465,3988.652,2619.434,4062.372z"/>
										</g>
									</g>
								</g>
							</g>
							<g>
								<g>
									<g>
										<g>
											<path style="fill:#FEC9AC;" d="M3539.447,3441.126c0,0-335.213-25.787-484.179-99.859
												c-20.037-9.856-37.775-28.413-53.707-51.734c-68.159-100.845-99.036-293.992-99.2-294.814l244.06-202.669
												c0,0,11.168,31.697,26.442,73.908c1.972,5.093,3.943,10.51,5.914,15.931c28.413,76.699,66.353,176.558,77.356,188.547
												c49.437,54.036,336.199,237.983,336.199,237.983s83.27-88.199,106.756-51.405c23.815,36.954-22.501,74.89-22.501,74.89
												s234.042-34.488,247.181,62.576C3936.907,3491.709,3539.447,3441.126,3539.447,3441.126z"/>
										</g>
									</g>
									<g style="opacity:0.5;">
										<g>
											<path style="fill:#FFAB90;" d="M3178.777,2881.889c-38.761,111.191-165.39,404.027-177.216,407.644
												c-68.159-100.845-99.036-293.992-99.2-294.814l244.06-202.669c0,0,11.168,31.697,26.442,73.908
												C3174.835,2871.05,3176.806,2876.467,3178.777,2881.889z"/>
										</g>
									</g>
								</g>
								<g>
									<g>
										<g>
											<path style="fill:#FEC9AC;" d="M1526.604,3441.126c0,0,335.213-25.787,484.179-99.859
												c20.037-9.856,37.775-28.413,53.707-51.734c68.159-100.845,99.036-293.992,99.2-294.814l-244.06-202.669
												c0,0-11.168,31.697-26.442,73.908c-1.972,5.093-3.943,10.51-5.913,15.931c-28.413,76.699-66.353,176.558-77.356,188.547
												c-49.436,54.036-336.199,237.983-336.199,237.983s-83.27-88.199-106.756-51.405
												c-23.815,36.954,22.501,74.89,22.501,74.89s-234.042-34.488-247.181,62.576
												C1129.144,3491.709,1526.604,3441.126,1526.604,3441.126z"/>
										</g>
									</g>
									<g style="opacity:0.5;">
										<g>
											<path style="fill:#FFAB90;" d="M1887.274,2881.889c38.761,111.191,165.39,404.027,177.215,407.644
												c68.159-100.845,99.036-293.992,99.2-294.814l-244.06-202.669c0,0-11.168,31.697-26.442,73.908
												C1891.216,2871.05,1889.245,2876.467,1887.274,2881.889z"/>
										</g>
									</g>
								</g>
								<g>
									<g>
										<g>
											<path style="fill:#64D3FF;" d="M2922.562,2927.055l-7.39-15.767c0,0,56.005,491.24,56.005,558.58
												c0,151.1-878.027,141.901-878.027-9.198c0-9.363,4.106-49.601,10.347-103.801
												c17.245-153.402,50.422-419.305,50.422-419.305l-5.621,81.704c-11.989,20.695-281.47-148.386-295.923-184.518
												c-0.985-1.969-0.985-3.613-0.329-4.76c0,0,56.006-181.157,194.788-349.01c58.141-70.131,186.413-114.314,332.75-132.707
												c94.268-12.46,203.634-13.99,310.743-1.809c150.114,17.575,280.356,62.412,332.749,134.516
												c127.615,176.229,194.789,349.01,194.789,349.01c12.481,21.841-280.29,205.514-292.772,183.669L2922.562,2927.055z"/>
										</g>
									</g>
								</g>
							</g>
							<g>
								<g>
									<path style="fill:#42C1F4;" d="M2925.05,3013.671l-9.89-102.314c0-0.895-0.149-2.979-0.298-5.962
										c-2.533-42.015-16.837-271.623-11.175-260.299c5.96,12.219,89.697,133.949,314.237,184.906
										C3230.29,2851.907,2937.565,3035.57,2925.05,3013.671z"/>
								</g>
							</g>
							<g>
								<g>
									<path style="fill:#42C1F4;" d="M2175.087,2767.572l-21.158,170.009l-5.691,81.63
										c-11.92,20.713-281.427-148.381-295.881-184.441C2019.83,2874.107,2175.087,2767.572,2175.087,2767.572z"/>
								</g>
							</g>
						</g>
					</g>
					<g>
						<g>
							<g>
								<g>
									<path style="fill:#D1DCF8;" d="M4386.759,2797.944c4.82-0.152,9.25,3.478,11.406,11.068l0.396,19.409
										c-1.845,7.665-6.124,11.47-11.065,11.515c-4.941,0.045-9.254-3.658-11.527-11.167l-0.391-19.188
										C4377.542,2801.983,4381.701,2798.104,4386.759,2797.944z"/>
								</g>
							</g>
						</g>
						<g>
							<g>
								<g>
									<path style="fill:#D1DCF8;" d="M4373.942,2628.224c4.787-0.578,9.855,6.496,13.353,21.697l3.831,39.163
										c-0.487,15.575-4.088,23.498-9.016,23.867c-4.928,0.365-9.892-6.873-13.493-21.898l-3.786-38.703
										C4365.451,2636.897,4368.918,2628.835,4373.942,2628.224z"/>
								</g>
							</g>
						</g>
						<g>
							<g>
								<g>
									<path style="fill:#D1DCF8;" d="M4346.084,2460.333c4.716-1.005,10.395,5.589,15.234,20.418l7.308,38.662
										c0.903,15.558-1.977,23.768-6.853,24.572c-4.876,0.804-10.466-5.963-15.391-20.603l-7.221-38.207
										C4338.4,2469.732,4341.135,2461.391,4346.084,2460.333z"/>
								</g>
							</g>
						</g>
						<g>
							<g>
								<g>
									<path style="fill:#D1DCF8;" d="M4303.301,2295.621c4.607-1.423,10.854,4.634,17.003,18.966l10.745,37.854
										c2.295,15.411,0.163,23.846-4.622,25.085s-10.958-4.999-17.177-19.138l-10.618-37.404
										C4296.49,2305.672,4298.466,2297.117,4303.301,2295.621z"/>
								</g>
							</g>
						</g>
						<g>
							<g>
								<g>
									<path style="fill:#D1DCF8;" d="M4245.903,2135.423c4.46-1.833,11.226,3.637,18.637,17.363l14.1,36.731
										c3.669,15.144,2.303,23.74-2.351,25.4c-4.653,1.661-11.363-3.998-18.826-17.523l-13.933-36.296
										C4240.022,2146.04,4241.222,2137.346,4245.903,2135.423z"/>
								</g>
							</g>
						</g>
						<g>
							<g>
								<g>
									<path style="fill:#D1DCF8;" d="M4174.375,1981.02c4.278-2.227,11.507,2.616,20.118,15.62l17.333,35.32
										c5.012,14.755,4.42,23.436-0.065,25.507c-4.486,2.075-11.675-2.961-20.319-15.759l-17.129-34.902
										C4169.469,1992.12,4169.884,1983.353,4174.375,1981.02z"/>
								</g>
							</g>
						</g>
						<g>
							<g>
								<g>
									<path style="fill:#D1DCF8;" d="M4089.342,1833.641c4.063-2.596,11.695,1.583,21.431,13.762l20.416,33.626
										c6.307,14.246,6.493,22.944,2.21,25.409c-4.282,2.464-11.892-1.907-21.644-13.881l-20.175-33.229
										C4085.446,1845.135,4085.078,1836.368,4089.342,1833.641z"/>
								</g>
							</g>
						</g>
						<g>
							<g>
								<g>
									<path style="fill:#D1DCF8;" d="M3991.541,1694.435c3.816-2.948,11.789,0.537,22.568,11.802l23.321,31.671
										c7.548,13.627,8.506,22.271,4.46,25.109c-4.046,2.838-12.013-0.837-22.791-11.9l-23.047-31.297
										C3988.681,1706.229,3987.535,1697.531,3991.541,1694.435z"/>
								</g>
							</g>
						</g>
						<g>
							<g>
								<g>
									<path style="fill:#D1DCF8;" d="M3881.789,1564.473c3.54-3.272,11.789-0.513,23.524,9.752l26.033,29.477
										c8.725,12.901,10.445,21.427,6.667,24.613c-3.778,3.186-12.04,0.23-23.754-9.83l-25.729-29.132
										C3879.985,1576.476,3878.074,1567.913,3881.789,1564.473z"/>
								</g>
							</g>
						</g>
						<g>
							<g>
								<g>
									<path style="fill:#D1DCF8;" d="M3760.975,1444.758c3.236-3.576,11.697-1.558,24.292,7.623l28.537,27.053
										c9.831,12.077,12.3,20.418,8.818,23.924c-3.481,3.51-11.971,1.296-24.529-7.685l-28.203-26.737
										C3760.24,1456.868,3757.579,1448.51,3760.975,1444.758z"/>
								</g>
							</g>
						</g>
						<g>
							<g>
								<g>
									<path style="fill:#D1DCF8;" d="M3630.046,1336.218c2.906-3.851,11.512-2.588,24.871,5.442l30.819,24.416
										c10.861,11.158,14.058,19.249,10.901,23.051c-3.157,3.801-11.809,2.35-25.112-5.483l-30.458-24.129
										C3630.386,1348.344,3626.996,1340.253,3630.046,1336.218z"/>
								</g>
							</g>
						</g>
						<g>
							<g>
								<g>
									<path style="fill:#D1DCF8;" d="M3490.01,1239.726c2.553-4.093,11.237-3.6,25.255,3.215l32.865,21.583
										c11.809,10.15,15.711,17.921,12.903,21.989s-11.554,3.391-25.499-3.231l-32.478-21.328
										C3491.427,1251.778,3487.331,1244.02,3490.01,1239.726z"/>
								</g>
							</g>
						</g>
						<g>
							<g>
								<g>
									<path style="fill:#D1DCF8;" d="M3341.941,1156.086c2.177-4.302,10.87-4.585,25.44,0.951l34.658,18.568
										c12.667,9.055,17.246,16.452,14.811,20.75c-2.434,4.302-11.207,4.408-25.686-0.943l-34.249-18.351
										C3344.427,1167.962,3339.656,1160.601,3341.941,1156.086z"/>
								</g>
							</g>
						</g>
						<g>
							<g>
								<g>
									<path style="fill:#D1DCF8;" d="M3186.983,1086.012c1.784-4.482,10.417-5.54,25.425-1.329l36.184,15.394
										c13.427,7.886,18.65,14.845,16.609,19.344c-2.04,4.503-10.769,5.393-25.669,1.353l-35.755-15.21
										C3190.522,1097.617,3185.111,1090.711,3186.983,1086.012z"/>
								</g>
							</g>
						</g>
						<g>
							<g>
								<g>
									<path style="fill:#D1DCF8;" d="M3026.348,1030.106c1.374-4.622,9.878-6.451,25.205-3.605l37.424,12.089
										c14.083,6.651,19.909,13.11,18.28,17.777c-1.628,4.667-10.243,6.336-25.447,3.654l-36.979-11.946
										C3030.915,1041.35,3024.905,1034.957,3026.348,1030.106z"/>
								</g>
							</g>
						</g>
						<g>
							<g>
								<g>
									<path style="fill:#D1DCF8;" d="M2861.316,988.839c0.954-4.724,9.26-7.312,24.784-5.852l38.364,8.685
										c14.625,5.36,21.009,11.269,19.806,16.063c-1.203,4.794-9.634,7.23-25.021,5.922l-37.909-8.579
										C2866.875,999.628,2860.314,993.801,2861.316,988.839z"/>
								</g>
							</g>
						</g>
						<g>
							<g>
								<g>
									<path style="fill:#D1DCF8;" d="M2693.221,962.512c0.528-4.794,8.572-8.111,24.167-8.046l38.992,5.22
										c15.048,4.031,21.937,9.346,21.167,14.23c-0.769,4.88-8.949,8.058-24.394,8.132l-38.533-5.155
										C2699.723,972.76,2692.667,967.54,2693.221,962.512z"/>
								</g>
							</g>
						</g>
						<g>
							<g>
								<g>
									<path style="fill:#D1DCF8;" d="M2523.414,951.219c0.103-4.823,7.824-8.841,23.367-10.154l39.31,1.743
										c15.35,2.682,22.686,7.369,22.353,12.298c-0.332,4.929-8.2,8.821-23.583,10.26l-38.853-1.722
										C2530.797,960.847,2523.305,956.275,2523.414,951.219z"/>
								</g>
							</g>
						</g>
						<g>
							<g>
								<g>
									<path style="fill:#D1DCF8;" d="M2353.261,954.88c-0.32-4.81,7.02-9.489,22.388-12.163l39.313-1.71
										c15.527,1.329,23.246,5.352,23.347,10.293c0.102,4.942-7.395,9.506-22.593,12.29l-38.856,1.69
										C2361.462,963.828,2353.597,959.929,2353.261,954.88z"/>
								</g>
							</g>
						</g>
						<g>
							<g>
								<g>
									<path style="fill:#D1DCF8;" d="M2184.092,973.552c-0.747-4.761,6.148-10.072,21.219-14.095l39.006-5.188
										c15.583-0.053,23.626,3.273,24.163,8.185c0.538,4.913-6.525,10.125-21.415,14.242l-38.546,5.126
										C2193.055,981.741,2184.875,978.555,2184.092,973.552z"/>
								</g>
							</g>
						</g>
						<g>
							<g>
								<g>
									<path style="fill:#D1DCF8;" d="M2017.278,1007.252c-1.171-4.679,5.221-10.584,19.871-15.94l38.385-8.653
										c15.515-1.448,23.822,1.144,24.796,5.991c0.974,4.843-5.594,10.666-20.054,16.1l-37.93,8.55
										C2026.938,1014.601,2018.506,1012.161,2017.278,1007.252z"/>
								</g>
							</g>
						</g>
						<g>
							<g>
								<g>
									<path style="fill:#D1DCF8;" d="M1854.169,1055.781c-1.586-4.556,4.248-11.01,18.358-17.658l37.451-12.065
										c15.322-2.834,23.828-1.001,25.233,3.74c1.405,4.737-4.614,11.125-18.527,17.834l-37.007,11.925
										C1864.449,1062.235,1855.833,1060.558,1854.169,1055.781z"/>
								</g>
							</g>
						</g>
						<g>
							<g>
								<g>
									<path style="fill:#D1DCF8;" d="M1696.104,1118.744c-1.988-4.392,3.241-11.343,16.693-19.229l36.205-15.374
										c15.001-4.195,23.635-3.129,25.46,1.46c1.825,4.593-3.594,11.499-16.844,19.426l-35.776,15.193
										C1706.92,1124.252,1698.19,1123.358,1696.104,1118.744z"/>
								</g>
							</g>
						</g>
						<g>
							<g>
								<g>
									<path style="fill:#D1DCF8;" d="M1544.298,1195.626c-2.373-4.195,2.215-11.589,14.909-20.652l34.691-18.556
										c14.569-5.524,23.265-5.237,25.494-0.824c2.229,4.408-2.552,11.769-15.042,20.857l-34.282,18.339
										C1555.564,1200.141,1546.788,1200.035,1544.298,1195.626z"/>
								</g>
							</g>
						</g>
						<g>
							<g>
								<g>
									<path style="fill:#D1DCF8;" d="M1399.973,1285.741c-2.737-3.969,1.173-11.74,13.007-21.898l32.895-21.57
										c14.016-6.799,22.704-7.287,25.317-3.096c2.614,4.195-1.491,11.954-13.12,22.116l-32.508,21.32
										C1411.595,1289.235,1402.846,1289.908,1399.973,1285.741z"/>
								</g>
							</g>
						</g>
						<g>
							<g>
								<g>
									<path style="fill:#D1DCF8;" d="M1264.247,1388.319c-3.079-3.711,0.125-11.802,11.009-22.964l30.844-24.408
										c13.356-8.013,21.965-9.272,24.94-5.327c2.976,3.945-0.422,12.036-11.102,23.19l-30.482,24.121
										C1276.133,1390.767,1267.478,1392.214,1264.247,1388.319z"/>
								</g>
							</g>
						</g>
						<g>
							<g>
								<g>
									<path style="fill:#D1DCF8;" d="M1138.163,1502.51c-3.396-3.424-0.922-11.761,8.929-23.846l28.557-27.041
										c12.592-9.165,21.055-11.183,24.369-7.517c3.314,3.666,0.647,12.028-9.001,24.08l-28.223,26.725
										C1150.218,1503.9,1141.726,1506.106,1138.163,1502.51z"/>
								</g>
							</g>
						</g>
						<g>
							<g>
								<g>
									<path style="fill:#D1DCF8;" d="M1022.695,1627.408c-3.685-3.113-1.96-11.638,6.781-24.543l26.049-29.46
										c11.73-10.244,19.981-13,23.606-9.641c3.626,3.354,1.71,11.917-6.833,24.781l-25.743,29.112
										C1034.825,1627.719,1026.563,1630.672,1022.695,1627.408z"/>
								</g>
							</g>
						</g>
						<g>
							<g>
								<g>
									<path style="fill:#D1DCF8;" d="M918.754,1762.033c-3.947-2.772-2.984-11.417,4.578-25.048l23.334-31.65
										c10.775-11.244,18.749-14.718,22.657-11.695c3.909,3.022,2.759,11.72-4.609,25.29l-23.06,31.277
										C930.865,1761.27,922.897,1764.94,918.754,1762.033z"/>
								</g>
							</g>
						</g>
						<g>
							<g>
								<g>
									<path style="fill:#D1DCF8;" d="M827.186,1905.356c-4.177-2.407-3.988-11.105,2.333-25.351l20.428-33.602
										c9.733-12.155,17.366-16.329,21.528-13.664c4.162,2.666,3.79,11.429-2.342,25.597l-20.187,33.208
										C839.181,1903.523,831.57,1907.886,827.186,1905.356z"/>
								</g>
							</g>
						</g>
						<g>
							<g>
								<g>
									<path style="fill:#D1DCF8;" d="M748.758,2056.277c-4.376-2.026-4.963-10.707,0.062-25.462l17.349-35.292
										c8.609-12.979,15.84-17.814,20.223-15.53c4.383,2.28,4.795,11.048-0.049,25.704l-17.144,34.877
										C760.542,2053.378,753.351,2058.402,748.758,2056.277z"/>
								</g>
							</g>
						</g>
						<g>
							<g>
								<g>
									<path style="fill:#D1DCF8;" d="M684.146,2213.621c-4.54-1.628-5.901-10.219-2.219-25.368l14.12-36.706
										c7.413-13.697,14.181-19.163,18.751-17.281c4.57,1.882,5.764,10.576,2.253,25.61l-13.952,36.271
										C695.624,2209.676,688.911,2215.327,684.146,2213.621z"/>
								</g>
							</g>
						</g>
						<g>
							<g>
								<g>
									<path style="fill:#D1DCF8;" d="M633.906,2376.148c-4.667-1.214-6.794-9.649-4.485-25.068l10.769-37.83
										c6.154-14.312,12.405-20.365,17.125-18.901c4.72,1.464,6.69,10.018,4.541,25.31l-10.642,37.383
										C644.983,2371.186,638.805,2377.419,633.906,2376.148z"/>
								</g>
							</g>
						</g>
						<g>
							<g>
								<g>
									<path style="fill:#D1DCF8;" d="M598.443,2542.55c-4.757-0.788-7.632-9.001-6.714-24.568l7.335-38.65
										c4.847-14.808,10.53-21.394,15.362-20.361c4.832,1.033,7.561,9.379,6.792,24.802l-7.248,38.195
										C609.03,2536.616,603.436,2543.379,598.443,2542.55z"/>
								</g>
							</g>
						</g>
						<g>
							<g>
								<g>
									<path style="fill:#D1DCF8;" d="M577.979,2711.479c-4.808-0.361-8.404-8.288-8.877-23.875l3.86-39.155
										c3.507-15.177,8.581-22.247,13.486-21.648c4.905,0.595,8.367,8.661,8.976,24.096l-3.815,38.695
										C587.996,2704.626,583.026,2711.86,577.979,2711.479z"/>
								</g>
							</g>
						</g>
						<g>
							<g>
								<g>
									<path style="fill:#D1DCF8;" d="M572.483,2839.936c-4.822-0.045-9.101-3.851-10.945-11.523l0.395-19.409
										c2.155-7.582,6.586-11.211,11.525-11.056c4.939,0.156,9.097,4.035,11.062,11.63l-0.391,19.184
										C581.857,2836.278,577.544,2839.981,572.483,2839.936z"/>
								</g>
							</g>
						</g>
					</g>
					<g>
						<g>
							<g>
								
									<ellipse transform="matrix(0.7071 -0.7071 0.7071 0.7071 -676.2979 3917.2358)" style="fill:#BBCAEA;" cx="4390.373" cy="2774.982" rx="126.604" ry="126.604"/>
							</g>
						</g>
						<g>
							<g>
								<g>
									<path style="fill:#BBCAEA;" d="M4491.662,2896.065l25.264,46.132c4.224,7.712,1.327,17.622-6.384,21.844
										c-7.841,4.294-17.621,1.326-21.844-6.385l-25.264-46.132c-4.293-7.839-1.455-17.547,6.386-21.841
										C4477.53,2885.46,4487.369,2888.226,4491.662,2896.065z"/>
								</g>
							</g>
							<g>
								<g>
									<path style="fill:#BBCAEA;" d="M4289.084,2896.065l-25.264,46.132c-4.223,7.712-1.327,17.622,6.384,21.844
										c7.841,4.294,17.621,1.326,21.844-6.385l25.264-46.132c4.293-7.839,1.455-17.547-6.386-21.841
										C4303.216,2885.46,4293.377,2888.226,4289.084,2896.065z"/>
								</g>
							</g>
						</g>
						<g>
							<g>
								
									<ellipse transform="matrix(0.7071 -0.7071 0.7071 0.7071 -676.2979 3917.2358)" style="fill:#BBCAEA;" cx="4390.373" cy="2774.982" rx="169.181" ry="169.181"/>
							</g>
						</g>
						<g>
							<g>
								
									<ellipse transform="matrix(0.7071 -0.7071 0.7071 0.7071 -676.2979 3917.2358)" style="fill:#FFFFFF;" cx="4390.373" cy="2774.982" rx="145.243" ry="145.243"/>
							</g>
						</g>
						<g>
							<g>
								<g>
									<path style="fill:#4A5258;" d="M4456.714,2787.399h-70.687c-4.118,0-7.45-3.332-7.45-7.45v-99.548
										c0-4.118,3.332-7.45,7.45-7.45c4.118,0,7.45,3.332,7.45,7.45v92.098h63.237c4.118,0,7.45,3.332,7.45,7.45
										S4460.832,2787.399,4456.714,2787.399z"/>
								</g>
							</g>
						</g>
						<g>
							<g>
								<g>
									<path style="fill:#FFCF3D;" d="M4479.065,2606.571c-2.484-2.483-2.491-6.701,0.232-8.918
										c24.65-20.079,60.991-18.638,83.964,4.326c22.974,22.964,24.429,59.304,4.36,83.962c-2.216,2.724-6.435,2.719-8.918,0.236
										L4479.065,2606.571z"/>
								</g>
							</g>
							<g>
								<g>
									<path style="fill:#FFCF3D;" d="M4301.682,2606.571c2.483-2.483,2.49-6.701-0.232-8.918
										c-24.65-20.079-60.991-18.638-83.964,4.326c-22.973,22.964-24.429,59.304-4.36,83.962c2.216,2.724,6.435,2.719,8.918,0.236
										L4301.682,2606.571z"/>
								</g>
							</g>
						</g>
					</g>
					<g>
						<g>
							<g>
								<path style="fill:#F3F6FD;" d="M4123.796,1397.302v316.151c0,31.919-25.992,57.91-58.063,57.91h-365.398
									c-31.92,0-57.91-25.991-57.91-57.91v-316.151c0-32.073,25.991-58.064,57.91-58.064h365.398
									C4097.805,1339.238,4123.796,1365.229,4123.796,1397.302z"/>
							</g>
						</g>
					</g>
					<g>
						<g>
							<g>
								<path style="fill:#FFD964;" d="M4050.99,1465.631v179.354c0,19.76-15.959,35.72-35.719,35.72h-251.249
									c-19.76,0-35.72-15.96-35.72-35.72v-179.354c0-19.758,15.959-35.719,35.72-35.719h251.249
									C4035.03,1429.912,4050.99,1445.872,4050.99,1465.631z"/>
							</g>
						</g>
						<g>
							<g>
								<g>
									<g>
										<path style="fill:#FCC230;" d="M4019.788,1632.347c1.57,1.345,1.794,3.663,0.523,5.307
											c-0.747,0.897-1.869,1.346-2.915,1.346c-0.822,0-1.645-0.299-2.392-0.822l-102.111-83.498l-20.856,17.118
											c-0.748,0.523-1.57,0.823-2.392,0.823c-0.822,0-1.645-0.299-2.392-0.823l-20.93-17.118l-102.111,83.498
											c-0.747,0.523-1.57,0.822-2.392,0.822c-1.047,0-2.168-0.448-2.916-1.346c-1.271-1.644-1.047-3.962,0.523-5.307
											l100.915-82.526l-100.915-82.526c-1.57-1.345-1.795-3.663-0.523-5.308c1.345-1.569,3.663-1.794,5.307-0.523
											l104.354,85.292c0,0,0.075,0.15,0.15,0.15l20.93,17.118l20.332-16.595c0.075-0.074,0.15-0.149,0.224-0.224l0.673-0.598
											l104.13-85.143c1.644-1.271,3.962-1.046,5.307,0.523c1.271,1.645,1.047,3.962-0.523,5.308l-100.915,82.526
											L4019.788,1632.347z"/>
									</g>
								</g>
							</g>
						</g>
					</g>
					<g>
						<g>
							<path style="fill:#E4ECF9;" d="M2703.344,842.274v282.2c0,11.622-9.238,20.858-20.859,20.858h-416.301
								c-11.621,0-20.86-9.236-20.86-20.858v-282.2H2703.344z"/>
						</g>
					</g>
					<g>
						<g>
							<path style="fill:#FE4C40;" d="M2703.344,803.538v38.736h-458.02v-38.736c0-11.473,9.239-20.858,20.86-20.858h416.301
								C2694.106,782.68,2703.344,792.065,2703.344,803.538z"/>
						</g>
					</g>
					<g>
						<g>
							<g>
								<g>
									<path style="fill:#BBCAEA;" d="M2365.643,884.067v40.239c0,3.593-2.895,6.589-6.49,6.589h-40.438
										c-3.595,0-6.49-2.996-6.49-6.589v-40.239c0-3.596,2.896-6.492,6.49-6.492h40.438
										C2362.748,877.576,2365.643,880.472,2365.643,884.067z"/>
								</g>
							</g>
							<g>
								<g>
									<path style="fill:#BBCAEA;" d="M2460.876,884.067v40.239c0,3.593-2.896,6.589-6.49,6.589h-40.438
										c-3.595,0-6.49-2.996-6.49-6.589v-40.239c0-3.596,2.896-6.492,6.49-6.492h40.438
										C2457.981,877.576,2460.876,880.472,2460.876,884.067z"/>
								</g>
							</g>
							<g>
								<g>
									<path style="fill:#BBCAEA;" d="M2556.109,884.067v40.239c0,3.593-2.895,6.589-6.49,6.589h-40.438
										c-3.595,0-6.49-2.996-6.49-6.589v-40.239c0-3.596,2.895-6.492,6.49-6.492h40.438
										C2553.214,877.576,2556.109,880.472,2556.109,884.067z"/>
								</g>
							</g>
							<g>
								<g>
									<path style="fill:#BBCAEA;" d="M2651.342,884.067v40.239c0,3.593-2.895,6.589-6.49,6.589h-40.438
										c-3.595,0-6.49-2.996-6.49-6.589v-40.239c0-3.596,2.896-6.492,6.49-6.492h40.438
										C2648.447,877.576,2651.342,880.472,2651.342,884.067z"/>
								</g>
							</g>
						</g>
						<g>
							<g>
								<g>
									<path style="fill:#BBCAEA;" d="M2365.643,964.319v40.239c0,3.593-2.895,6.589-6.49,6.589h-40.438
										c-3.595,0-6.49-2.996-6.49-6.589v-40.239c0-3.596,2.896-6.492,6.49-6.492h40.438
										C2362.748,957.827,2365.643,960.723,2365.643,964.319z"/>
								</g>
							</g>
							<g>
								<g>
									<path style="fill:#BBCAEA;" d="M2460.876,964.319v40.239c0,3.593-2.896,6.589-6.49,6.589h-40.438
										c-3.595,0-6.49-2.996-6.49-6.589v-40.239c0-3.596,2.896-6.492,6.49-6.492h40.438
										C2457.981,957.827,2460.876,960.723,2460.876,964.319z"/>
								</g>
							</g>
							<g>
								<g>
									<path style="fill:#BBCAEA;" d="M2556.109,964.319v40.239c0,3.593-2.895,6.589-6.49,6.589h-40.438
										c-3.595,0-6.49-2.996-6.49-6.589v-40.239c0-3.596,2.895-6.492,6.49-6.492h40.438
										C2553.214,957.827,2556.109,960.723,2556.109,964.319z"/>
								</g>
							</g>
							<g>
								<g>
									<path style="fill:#BBCAEA;" d="M2651.342,964.319v40.239c0,3.593-2.895,6.589-6.49,6.589h-40.438
										c-3.595,0-6.49-2.996-6.49-6.589v-40.239c0-3.596,2.896-6.492,6.49-6.492h40.438
										C2648.447,957.827,2651.342,960.723,2651.342,964.319z"/>
								</g>
							</g>
						</g>
						<g>
							<g>
								<g>
									<path style="fill:#BBCAEA;" d="M2365.643,1044.57v40.239c0,3.593-2.895,6.589-6.49,6.589h-40.438
										c-3.595,0-6.49-2.996-6.49-6.589v-40.239c0-3.596,2.896-6.492,6.49-6.492h40.438
										C2362.748,1038.079,2365.643,1040.975,2365.643,1044.57z"/>
								</g>
							</g>
							<g>
								<g>
									<path style="fill:#BBCAEA;" d="M2460.876,1044.57v40.239c0,3.593-2.896,6.589-6.49,6.589h-40.438
										c-3.595,0-6.49-2.996-6.49-6.589v-40.239c0-3.596,2.896-6.492,6.49-6.492h40.438
										C2457.981,1038.079,2460.876,1040.975,2460.876,1044.57z"/>
								</g>
							</g>
							<g>
								<g>
									<path style="fill:#BBCAEA;" d="M2556.109,1044.57v40.239c0,3.593-2.895,6.589-6.49,6.589h-40.438
										c-3.595,0-6.49-2.996-6.49-6.589v-40.239c0-3.596,2.895-6.492,6.49-6.492h40.438
										C2553.214,1038.079,2556.109,1040.975,2556.109,1044.57z"/>
								</g>
							</g>
							<g>
								<g>
									<path style="fill:#BBCAEA;" d="M2651.342,1044.57v40.239c0,3.593-2.895,6.589-6.49,6.589h-40.438
										c-3.595,0-6.49-2.996-6.49-6.589v-40.239c0-3.596,2.896-6.492,6.49-6.492h40.438
										C2648.447,1038.079,2651.342,1040.975,2651.342,1044.57z"/>
								</g>
							</g>
						</g>
					</g>
					<g>
						<g>
							<path style="fill:#E4ECF9;" d="M2348.965,766.34v45.169c0,5.565-4.53,9.966-9.966,9.966c-5.565,0-10.095-4.402-10.095-9.966
								V766.34c0-5.564,4.53-9.966,10.095-9.966C2344.435,756.374,2348.965,760.775,2348.965,766.34z"/>
						</g>
					</g>
					<g>
						<g>
							<path style="fill:#E4ECF9;" d="M2636.705,766.34v45.169c0,5.565-4.53,9.966-9.966,9.966c-5.565,0-10.095-4.402-10.095-9.966
								V766.34c0-5.564,4.53-9.966,10.095-9.966C2632.175,756.374,2636.705,760.775,2636.705,766.34z"/>
						</g>
					</g>
					<g>
						<g>
							<g>
								<g>
									<path style="fill:#D1DCF8;" d="M1454.172,1506.072v175.676c0,24.94-20.203,45.145-45.143,45.145H965.505
										c-24.939,0-45.143-20.204-45.143-45.145v-175.676c0-24.94,20.203-45.145,45.143-45.145h443.525
										C1433.969,1460.927,1454.172,1481.132,1454.172,1506.072z"/>
								</g>
							</g>
							<g>
								<g>
									<polygon style="fill:#D1DCF8;" points="1399.559,1726.892 1399.559,1802.653 1296.33,1726.892 									"/>
								</g>
							</g>
						</g>
						<g>
							<g>
								<g>
									<path style="fill:#FFFFFF;" d="M1326.827,1537.919h-230.797c-4.362,0-7.892-3.53-7.892-7.892s3.53-7.892,7.892-7.892
										h230.797c4.362,0,7.892,3.53,7.892,7.892S1331.189,1537.919,1326.827,1537.919z"/>
								</g>
							</g>
						</g>
						<g>
							<g>
								<g>
									<path style="fill:#FFFFFF;" d="M1326.827,1601.803h-96.817c-4.362,0-7.892-3.53-7.892-7.892
										c0-4.362,3.53-7.892,7.892-7.892h96.817c4.362,0,7.892,3.53,7.892,7.892
										C1334.719,1598.274,1331.189,1601.803,1326.827,1601.803z"/>
								</g>
							</g>
						</g>
						<g>
							<g>
								<g>
									<path style="fill:#FFFFFF;" d="M1171.913,1601.803H999.933c-4.362,0-7.892-3.53-7.892-7.892
										c0-4.362,3.53-7.892,7.892-7.892h171.981c4.362,0,7.892,3.53,7.892,7.892
										C1179.806,1598.274,1176.276,1601.803,1171.913,1601.803z"/>
								</g>
							</g>
						</g>
						<g>
							<g>
								<g>
									<path style="fill:#FFFFFF;" d="M1322.005,1665.688h-194.674c-4.362,0-7.892-3.53-7.892-7.892s3.53-7.892,7.892-7.892
										h194.674c4.362,0,7.892,3.53,7.892,7.892S1326.367,1665.688,1322.005,1665.688z"/>
								</g>
							</g>
						</g>
					</g>
					<g>
						<g>
							<g>
								<g>
									<path style="fill:#8D7EA3;" d="M733.068,1403.075v175.676c0,24.94,20.203,45.144,45.143,45.144h443.525
										c24.939,0,45.143-20.204,45.143-45.144v-175.676c0-24.94-20.203-45.144-45.143-45.144H778.21
										C753.271,1357.931,733.068,1378.135,733.068,1403.075z"/>
								</g>
							</g>
							<g>
								<g>
									<polygon style="fill:#8D7EA3;" points="787.68,1623.896 787.68,1699.656 890.909,1623.896 									"/>
								</g>
							</g>
						</g>
						<g>
							<g>
								<g>
									<path style="fill:#FFFFFF;" d="M860.413,1434.922h230.797c4.362,0,7.892-3.53,7.892-7.892c0-4.362-3.53-7.892-7.892-7.892
										H860.413c-4.362,0-7.892,3.53-7.892,7.892C852.521,1431.392,856.051,1434.922,860.413,1434.922z"/>
								</g>
							</g>
						</g>
						<g>
							<g>
								<g>
									<path style="fill:#FFFFFF;" d="M860.413,1498.807h96.817c4.362,0,7.892-3.53,7.892-7.892c0-4.362-3.53-7.892-7.892-7.892
										h-96.817c-4.362,0-7.892,3.53-7.892,7.892C852.521,1495.277,856.051,1498.807,860.413,1498.807z"/>
								</g>
							</g>
						</g>
						<g>
							<g>
								<g>
									<path style="fill:#FFFFFF;" d="M1015.326,1498.807h171.981c4.362,0,7.892-3.53,7.892-7.892c0-4.362-3.53-7.892-7.892-7.892
										h-171.981c-4.362,0-7.892,3.53-7.892,7.892C1007.434,1495.277,1010.964,1498.807,1015.326,1498.807z"/>
								</g>
							</g>
						</g>
						<g>
							<g>
								<g>
									<path style="fill:#FFFFFF;" d="M865.235,1562.691h194.674c4.362,0,7.892-3.53,7.892-7.892s-3.53-7.892-7.892-7.892H865.235
										c-4.362,0-7.892,3.53-7.892,7.892S860.872,1562.691,865.235,1562.691z"/>
								</g>
							</g>
						</g>
					</g>
					<g>
						<g>
							<g>
								<path style="fill:#F3F6FD;" d="M810.897,2993.023H420.518c-23.97,0-43.402-19.432-43.402-43.402v-332.973
									c0-23.97,19.432-43.402,43.402-43.402h390.379c23.97,0,43.402,19.431,43.402,43.402v332.973
									C854.298,2973.591,834.867,2993.023,810.897,2993.023z"/>
							</g>
						</g>
					</g>
					<g>
						<g>
							<g>
								<path style="fill:#BBCAEA;" d="M746.271,2783.14c0,57.325-36.905,105.954-88.289,123.502
									c-13.22,4.564-27.502,7.042-42.295,7.042c-72.079,0-130.544-58.426-130.544-130.544s58.466-130.544,130.544-130.544v130.544
									H746.271z"/>
							</g>
						</g>
						<g>
							<g>
								<path style="fill:#FE4C40;" d="M776.31,2783.14H615.704v-160.606C704.398,2622.534,776.31,2694.446,776.31,2783.14z"/>
							</g>
						</g>
					</g>
				</g>
			</g>
			<g>
				<g>
					<g>
						<path style="fill:#FEC9AC;" d="M2633.336,2450.43c-106.756,18.064-260.155-44.837-199.879-107.907
							c-0.821-4.435,3.121-112.831,7.391-159.805v-0.164c1.313-14.78,2.299-24.143,2.299-24.143l12.647,2.63l226.159,44.179
							c0,0-0.493,23.978-0.821,50.419v12.157c0,27.756,0.328,76.863,0.985,77.846
							C2682.116,2345.643,2803.324,2421.524,2633.336,2450.43z"/>
					</g>
				</g>
				<g style="opacity:0.5;">
					<g>
						<path style="fill:#FFAB90;" d="M2681.894,2205.281c0,0-0.476,23.99-0.713,50.354
							c-99.995,26.128-204.028-44.653-240.367-72.918v-0.236c1.425-14.728,2.375-23.99,2.375-23.99l12.589,2.612L2681.894,2205.281z
							"/>
					</g>
				</g>
				<g>
					<g>
						<path style="fill:#FEC9AC;" d="M2424.326,2148.903c0,0-125.265-27.745-98.16-141.325
							c26.437-110.781,105.771-34.858,105.771-34.858c120.288-12.427,193.676-99.388,217.015-265.884
							c0,0,86.229,33.539,87.559,34.106c25.084,10.687,136.217,346.455,14.139,453.193
							C2611.083,2316.166,2424.326,2148.903,2424.326,2148.903z"/>
					</g>
				</g>
				<g>
					<g>
						<g>
							<path style="fill:#4F2D2B;" d="M2600.764,2112.618c1.959-1.772,8.969,4.318,23.309,14.414
								c11.709,9.071,25.232,15.612,39.564,17.65c16.715,3.236,25.699,1.489,26.408,4.216c0.816,1.899-8.037,8.448-28.033,6.963
								c-16.604-2.362-31.992-9.92-44.828-19.872C2602.744,2123.133,2599.035,2114.082,2600.764,2112.618z"/>
						</g>
					</g>
				</g>
				<g>
					<g>
						<g>
							<path style="fill:#4F2D2B;" d="M2667.12,2072.299c0.111-1.247,3.328-1.841,9.046-2.489
								c5.369-0.586,14.623-2.182,17.955-9.583c3.07-4.408-3.378-14.853-6.949-24.113l-12.08-28.066
								c-8.579-22.46-11.28-34.242-9.01-35.222c2.27-0.976,8.917,9.112,19.387,30.756l12.08,28.066l6.069,14.16
								c2.08,4.745,4.158,12.516,0.674,19.335c-4.173,7.484-10.627,10.256-15.875,11.474c-5.25,1.017-9.417,0.509-12.534-0.086
								C2669.665,2075.194,2667.01,2073.509,2667.12,2072.299z"/>
						</g>
					</g>
				</g>
				<g>
					<g>
						
							<ellipse transform="matrix(0.9963 -0.0863 0.0863 0.9963 -158.1294 243.2133)" style="fill:#4F2D2B;" cx="2733.331" cy="1950.136" rx="18.626" ry="26.01"/>
					</g>
				</g>
				<g>
					<g>
						
							<ellipse transform="matrix(0.9963 -0.0863 0.0863 0.9963 -158.105 243.2073)" style="fill:#4F2D2B;" cx="2733.527" cy="1950.015" rx="18.626" ry="26.01"/>
					</g>
				</g>
				<g>
					<g>
						<g>
							<path style="fill:#4F2D2B;" d="M2756.194,1889.145c-0.318,2.518-5.567,3.482-14.669,5.093
								c-7.771,0.607-15.164,2.981-21.094,7.414c-7.473,4.396-10.957,7.956-13.316,6.742c-2.053-0.82-2.151-7.709,6.587-15.817
								c7.907-5.913,17.569-8.887,26.902-9.6C2751.809,1883.339,2756.539,1886.808,2756.194,1889.145z"/>
						</g>
					</g>
				</g>
				<g>
					<g>
						
							<ellipse transform="matrix(0.9963 -0.0863 0.0863 0.9963 -160.8446 232.5526)" style="fill:#4F2D2B;" cx="2608.914" cy="1976.351" rx="18.626" ry="26.01"/>
					</g>
				</g>
				<g>
					<g>
						<g>
							<path style="fill:#4F2D2B;" d="M2631.581,1915.48c-0.318,2.518-5.567,3.482-14.668,5.093
								c-7.771,0.607-15.164,2.985-21.094,7.414c-7.474,4.396-10.957,7.955-13.316,6.742c-2.053-0.82-2.151-7.71,6.587-15.817
								c7.907-5.909,17.569-8.886,26.902-9.6C2627.196,1909.674,2631.926,1913.143,2631.581,1915.48z"/>
						</g>
					</g>
				</g>
			</g>
			<g>
				<g>
					<path style="fill:#13B1E2;" d="M2922.562,2927.055l-7.39-15.767C2917.964,2914.737,2920.427,2920.322,2922.562,2927.055z"/>
				</g>
			</g>
			<g>
				<g>
					<path style="fill:#42C1F4;" d="M2971.177,3469.868c0,151.1-878.027,141.901-878.027-9.198c0-9.363,4.106-49.601,10.347-103.801
						c220.082-56.826,430.144-153.562,616.557-284.136c47.629-33.337,93.616-68.98,137.961-106.592
						c14.782-12.643,57.156-54.854,57.156-54.854S2971.177,3402.528,2971.177,3469.868z"/>
				</g>
			</g>
			<g>
				<g>
					<g>
						<path style="fill:#FFFFFF;" d="M2394.795,2470.733c1.649-2.145,10.38,2.547,27.678,11.097
							c17.319,8.337,43.129,21.439,80.116,31.006c61.735,18.093,130.025,17.379,189.777-5.122
							c35.234-12.475,54.866-32.663,64.573-48.041c9.812-15.423,11.781-25.236,14.58-24.867c2.03,0.008,5.013,10.974-2.585,30.973
							c-3.875,9.817-10.749,21.505-22.061,32.852c-11.28,11.4-26.961,21.96-46.194,30.092
							c-65.701,24.674-138.061,25.076-204.425,5.802c-39.046-12.327-65.007-29.239-80.952-41.307
							C2399.348,2480.891,2393.411,2472.48,2394.795,2470.733z"/>
					</g>
				</g>
			</g>
			<g>
				<g>
					<g>
						<path style="fill:#FFFFFF;" d="M2087.489,2936.321c-0.02,2.313-4.684,4.798-14.511,5.618
							c-9.744,0.73-24.796-0.459-43.328-7.152c-30.795-12.84-56.952-33.553-79.76-55.795
							c-25.299-27.992-33.499-44.769-30.084-47.992c3.758-3.56,18.799,7.902,45.826,31.785
							c21.778,21.242,45.652,39.885,72.746,51.162C2069.456,2928.956,2087.576,2930.621,2087.489,2936.321z"/>
					</g>
				</g>
			</g>
			<g>
				<g>
					<g>
						<path style="fill:#FFFFFF;" d="M2985.817,2887.809c-0.679-5.298,16.17-9.797,46.326-23.707
							c26.118-10.428,50.08-26.43,69.718-46.564c24.377-22.501,34.99-36.337,39.727-33.623c3.883,1.956,0.535,21.107-23.596,49.443
							c-21.855,22.382-48.369,40.089-77.414,51.707C3005.124,2896.511,2986.147,2892.262,2985.817,2887.809z"/>
					</g>
				</g>
			</g>
		</g>
	</g>
</g>
</svg>
