<?xml version="1.0" encoding="utf-8"?>
<!-- Generator: Adobe Illustrator 27.5.0, SVG Export Plug-In . SVG Version: 6.00 Build 0)  -->
<svg version="1.1" id="Layer_1" xmlns="http://www.w3.org/2000/svg" xmlns:xlink="http://www.w3.org/1999/xlink" x="0px" y="0px"
	 viewBox="0 0 1364 960" style="enable-background:new 0 0 1364 960;" xml:space="preserve">
<g>
	<g>
		<path style="fill:#E6E8F0;" d="M1116.381,642.599c-0.068,2.608,1.545,4.965,4,5.846l14.52,5.212l-0.001,0.011
			c1.031,3.99,2.507,7.8,4.372,11.394l-7.373,13.445c-1.264,2.305-0.893,5.163,0.916,7.069l6.875,7.241
			c1.796,1.892,4.603,2.418,6.963,1.305l13.936-6.573c3.492,2.047,7.243,3.731,11.172,4.979c0.001,0.001,0.003,0.001,0.004,0.001
			l4.289,14.706c0.736,2.524,3.019,4.282,5.647,4.35l9.981,0.259c2.607,0.068,4.964-1.545,5.846-4.001l5.206-14.502
			c4-1.042,7.821-2.518,11.425-4.381l13.431,7.366c2.305,1.264,5.163,0.893,7.069-0.917l7.241-6.875
			c1.892-1.796,2.418-4.604,1.306-6.963l-6.576-13.941c0.001-0.003,0.003-0.005,0.005-0.007c2.048-3.493,3.721-7.222,4.957-11.153
			c0-0.002,0.001-0.003,0.001-0.004l14.726-4.295c2.523-0.736,4.282-3.019,4.351-5.647l0.259-9.981
			c0.068-2.608-1.546-4.965-4.001-5.846l-14.509-5.209c0,0,0,0,0,0c-1.042-3.99-2.52-7.801-4.384-11.396v-0.009l7.375-13.448
			c1.264-2.305,0.893-5.163-0.917-7.069l-6.875-7.241c-1.797-1.892-4.603-2.418-6.963-1.305l-13.939,6.575
			c-3.491-2.047-7.241-3.731-11.17-4.978c-0.001,0-0.002-0.001-0.003-0.001l-4.29-14.708c-0.737-2.524-3.019-4.283-5.646-4.351
			l-9.981-0.259c-2.608-0.068-4.965,1.545-5.847,4.001l-5.207,14.504c-3.999,1.042-7.819,2.517-11.423,4.38l-13.432-7.366
			c-2.305-1.264-5.163-0.894-7.069,0.917l-7.241,6.875c-1.892,1.796-2.418,4.603-1.305,6.963l6.576,13.941
			c-0.002,0.003-0.005,0.006-0.006,0.01c-2.048,3.481-3.72,7.221-4.969,11.153c-0.001,0.002-0.001,0.004-0.002,0.007l-14.712,4.291
			c-2.524,0.736-4.283,3.019-4.351,5.647L1116.381,642.599z M1161.825,638.873c0.384-14.817,12.708-26.51,27.524-26.126
			c14.817,0.384,26.518,12.7,26.134,27.517c-0.385,14.817-12.709,26.518-27.525,26.134
			C1173.142,666.013,1161.441,653.689,1161.825,638.873z"/>
	</g>
	<g>
		<path style="fill:#E6E8F0;" d="M160.015,254.928c-0.068,2.608,1.545,4.965,4,5.846l14.52,5.212l-0.001,0.011
			c1.031,3.99,2.508,7.8,4.372,11.394l-7.373,13.445c-1.264,2.305-0.893,5.163,0.917,7.069l6.875,7.241
			c1.796,1.892,4.603,2.418,6.963,1.305l13.936-6.573c3.492,2.047,7.243,3.731,11.172,4.979c0.001,0.001,0.003,0.001,0.004,0.001
			l4.289,14.706c0.736,2.524,3.019,4.282,5.647,4.35l9.981,0.259c2.607,0.068,4.964-1.545,5.846-4l5.206-14.502
			c4-1.042,7.821-2.518,11.425-4.381l13.431,7.366c2.305,1.264,5.163,0.893,7.069-0.917l7.241-6.875
			c1.892-1.796,2.418-4.604,1.306-6.963l-6.576-13.941c0.001-0.003,0.003-0.005,0.004-0.007c2.048-3.493,3.721-7.222,4.957-11.153
			c0-0.002,0.001-0.003,0.001-0.004l14.726-4.295c2.523-0.736,4.282-3.019,4.351-5.647l0.259-9.981
			c0.068-2.608-1.546-4.965-4.001-5.846l-14.509-5.209c0,0,0,0,0,0c-1.043-3.991-2.52-7.801-4.384-11.396v-0.009l7.375-13.449
			c1.264-2.305,0.893-5.163-0.917-7.069l-6.875-7.241c-1.796-1.892-4.603-2.418-6.963-1.305l-13.939,6.575
			c-3.491-2.047-7.241-3.731-11.17-4.978c-0.001,0-0.002-0.001-0.003-0.001l-4.29-14.708c-0.737-2.524-3.019-4.283-5.647-4.351
			l-9.981-0.259c-2.608-0.068-4.965,1.545-5.847,4.001l-5.207,14.504c-3.999,1.042-7.819,2.517-11.423,4.38l-13.432-7.366
			c-2.305-1.264-5.163-0.894-7.069,0.917l-7.241,6.875c-1.892,1.796-2.418,4.603-1.305,6.963l6.576,13.942
			c-0.002,0.003-0.005,0.006-0.006,0.009c-2.048,3.481-3.72,7.222-4.969,11.153c-0.001,0.002-0.001,0.004-0.002,0.007l-14.712,4.291
			c-2.524,0.736-4.283,3.019-4.351,5.647L160.015,254.928z M205.458,251.202c0.384-14.816,12.708-26.51,27.524-26.126
			c14.817,0.384,26.518,12.7,26.134,27.517c-0.385,14.817-12.709,26.518-27.525,26.134
			C216.776,278.343,205.074,266.018,205.458,251.202z"/>
	</g>
	<g>
		<g>
			
				<rect x="444.687" y="-38.08" transform="matrix(-1.836970e-16 1 -1 -1.836970e-16 1059.9952 -292.6453)" style="fill:#FFFFFF;" width="463.266" height="843.51"/>
		</g>
		<g>
			<rect x="254.565" y="152.042" style="fill:#FFFFFF;" width="843.51" height="463.266"/>
		</g>
		<g>
			<g>
				<g>
					<rect x="341.524" y="426.535" style="fill:#E6E8F0;" width="55.149" height="103.515"/>
				</g>
				<g>
					<rect x="439.927" y="359.782" style="fill:#E6E8F0;" width="55.148" height="170.267"/>
				</g>
				<g>
					<rect x="538.329" y="449.753" style="fill:#E6E8F0;" width="55.148" height="80.297"/>
				</g>
				<g>
					<rect x="636.73" y="308.509" style="fill:#E6E8F0;" width="55.148" height="221.54"/>
				</g>
				<g>
					<rect x="735.133" y="369.456" style="fill:#E6E8F0;" width="55.148" height="160.593"/>
				</g>
				<g>
					<rect x="833.534" y="316.248" style="fill:#E6E8F0;" width="55.149" height="213.802"/>
				</g>
				<g>
					<rect x="931.936" y="236.919" style="fill:#E6E8F0;" width="55.148" height="293.131"/>
				</g>
			</g>
		</g>
		<polygon style="fill:#141855;" points="730.974,790.177 621.669,790.177 629.011,700.747 631.641,668.669 633.598,644.913 
			719.045,644.913 721.002,668.669 723.633,700.747 		"/>
		<g>
			<g>
				<path style="fill:#BDBCE0;" d="M1098.075,615.808h-843.51c-0.276,0-0.5-0.224-0.5-0.5V152.042c0-0.276,0.224-0.5,0.5-0.5h843.51
					c0.276,0,0.5,0.224,0.5,0.5v463.266C1098.575,615.584,1098.351,615.808,1098.075,615.808z M255.065,614.808h842.51V152.542
					h-842.51V614.808z"/>
			</g>
		</g>
		<rect x="254.565" y="152.042" style="fill:#E6E8F0;" width="843.51" height="55.922"/>
		<g>
			<g>
				<path style="fill:#141855;" d="M1098.075,615.808h-843.51c-0.276,0-0.5-0.224-0.5-0.5V152.042c0-0.276,0.224-0.5,0.5-0.5h843.51
					c0.276,0,0.5,0.224,0.5,0.5v463.266C1098.575,615.584,1098.351,615.808,1098.075,615.808z M255.065,614.808h842.51V152.542
					h-842.51V614.808z"/>
			</g>
		</g>
		<rect x="253.717" y="611.458" style="fill:#4685FA;" width="845.206" height="57.206"/>
		<path style="fill:#4685FA;" d="M821.217,830.033H531.424v-32.269c0-6.648,5.389-12.037,12.037-12.037H809.18
			c6.648,0,12.037,5.389,12.037,12.037V830.033z"/>
	</g>
	<g>
		<path style="fill:#141855;" d="M284.189,278.013c-3.88-10.44-26.434-22.521-36.479-2.961
			c-14.591,2.467-21.993,22.522-7.824,35.315c8.018,7.24,33.253-14.654,33.253-14.654S289.955,293.527,284.189,278.013z"/>
		<path style="fill:#141855;" d="M284.698,318.391c-3.207-5.959-9.552-9.672-13.03-15.477l-29.052-25.767
			c-17.798,5.842-4.166,24.273-22.639,32.58c-5.432,2.442-6.418,12.507-2.902,16.691c5.93,8.568,16.508,11.865,26.399,15.144
			C259.708,347.969,295.327,342.619,284.698,318.391z"/>
		<g>
			<path style="fill:#FFFFFF;" d="M106.849,785.516l24.643-38.068l29.984-55.005l46.214,33.263c0,0-22.651,36.283-20.953,39.082
				c7.573,12.485,52.701,8.165,57.438,55.152l-75.516,0.651l-18.287-35.814l-14.085,17.909L106.849,785.516z"/>
			<g>
				<path style="fill:#141855;" d="M168.66,821.091c-0.188,0-0.36-0.106-0.445-0.273l-17.931-35.119l-13.603,17.296
					c-0.154,0.195-0.429,0.247-0.645,0.122l-29.439-17.169c-0.118-0.068-0.203-0.183-0.234-0.315s-0.008-0.273,0.066-0.388
					l24.644-38.068l29.965-54.974c0.069-0.126,0.188-0.217,0.328-0.248c0.138-0.034,0.286-0.003,0.403,0.081l46.214,33.263
					c0.214,0.154,0.271,0.447,0.132,0.671c-10.801,17.302-21.813,36.697-20.947,38.563c2.304,3.797,8.532,6.091,15.744,8.747
					c16.245,5.984,38.493,14.18,41.762,46.609c0.014,0.14-0.031,0.279-0.125,0.384c-0.094,0.105-0.227,0.165-0.368,0.166
					l-75.516,0.651C168.663,821.091,168.662,821.091,168.66,821.091z M150.373,784.276c0.016,0,0.032,0.001,0.048,0.002
					c0.17,0.017,0.319,0.119,0.397,0.271l18.146,35.539l74.656-0.644c-3.401-31.354-25.15-39.366-41.056-45.226
					c-7.692-2.833-13.768-5.071-16.255-9.171c-1.732-2.856,16.395-32.287,20.708-39.21l-45.375-32.658l-29.713,54.508
					l-24.378,37.661l28.61,16.686l13.817-17.567C150.076,784.346,150.221,784.276,150.373,784.276z"/>
			</g>
			<path style="fill:#141855;" d="M186.81,765.129l5.179,4.162c-9.802,3.512-17.821,12.479-20.808,23.268
				c-2.027-1.505-4.054-3.01-6.08-4.514C168.496,775.459,175.291,768.288,186.81,765.129z"/>
			<path style="fill:#141855;" d="M151.704,764.564c0,0,15.663,25.962,28.416,28.762c6.465,1.419,22.594-20.415,34.942-14.604
				c13.32,6.268,26.656,16.835,29.114,41.218l-75.516,0.651l-23.927-28.031l-8.446,10.126l-29.439-17.395l24.643-37.843
				C141.566,746.89,145.142,755.187,151.704,764.564z"/>
			<polygon style="fill:#FFCA0A;" points="244.238,828.811 168.546,829.464 168.483,820.592 244.176,819.94 			"/>
			<polygon style="fill:#FFCA0A;" points="103.069,791.352 130.19,810.129 136.288,802.685 106.849,785.29 			"/>
		</g>
		<g>
			<path style="fill:#FFFFFF;" d="M383.37,822.149l-19.154-49.593l-13.088-31.215l54.018-28.548c0,0,14.984,33.434,17.867,35.28
				c12.859,8.234,58.688-13.731,82.059,26.772l-80.795,31.404l-19.322-8.999l6.451,14.002L383.37,822.149z"/>
			<g>
				<path style="fill:#141855;" d="M383.37,822.649c-0.069,0-0.138-0.015-0.202-0.043c-0.121-0.054-0.216-0.153-0.264-0.277
					l-19.154-49.594l-13.082-31.201c-0.1-0.239-0.001-0.515,0.228-0.636l54.018-28.548c0.122-0.065,0.265-0.077,0.396-0.03
					c0.131,0.045,0.237,0.142,0.293,0.268c5.999,13.385,15.658,33.769,17.681,35.063c3.933,2.518,11.405,2.095,20.058,1.603
					c19.428-1.102,46.035-2.612,62.165,25.34c0.073,0.126,0.087,0.278,0.039,0.416c-0.048,0.138-0.155,0.247-0.29,0.3
					l-80.794,31.404c-0.128,0.048-0.269,0.045-0.392-0.013l-18.086-8.425l5.88,12.766c0.058,0.125,0.061,0.269,0.009,0.396
					c-0.052,0.128-0.154,0.229-0.282,0.278l-28.037,10.897C383.493,822.638,383.432,822.649,383.37,822.649z M351.766,741.569
					l12.911,30.793l18.979,49.14l27.074-10.523l-6.228-13.521c-0.088-0.19-0.047-0.415,0.101-0.564
					c0.149-0.147,0.374-0.186,0.564-0.099l19.128,8.91l80.05-31.115c-15.852-26.898-41.898-25.419-60.948-24.337
					c-9.19,0.521-16.448,0.934-20.653-1.76c-2.816-1.803-15.526-29.873-17.836-35.01L351.766,741.569z"/>
			</g>
			<path style="fill:#141855;" d="M423.222,748.352l7.082,1.682c-8.947,7.094-13.882,18.395-12.806,29.327
				c-2.723-0.546-5.446-1.093-8.169-1.639C407.98,765.006,412.33,755.814,423.222,748.352z"/>
			<path style="fill:#141855;" d="M397.772,768.972c0,0,21.625,8.286,29.438,7.502c7.451-0.747,15.804-27.468,31.079-27.168
				c16.478,0.323,34.654,4.519,46.783,25.538l-80.795,31.404l-19.322-9l6.45,14.002l-28.036,10.897l-19.154-49.593
				C374.605,768.019,387.194,763.137,397.772,768.972z"/>
			<polygon style="fill:#FFC60A;" points="414.264,817.242 386.518,828.679 383.074,821.352 410.82,809.915 			"/>
			<polygon style="fill:#FFC60A;" points="508.61,782.825 427.629,814.302 424.092,806.321 505.072,774.845 			"/>
		</g>
		<path style="fill:#FFFFFF;" d="M362.919,384.638c-19.079-12.236-52.29-32.624-70.514-38.58
			c-28.717-9.386-28.095,29.001-11.534,41.507c19.944,15.061,54.427,35.412,76.777,44.138
			C395.488,445.914,400.859,408.971,362.919,384.638z"/>
		<path style="fill:#FFCA0A;" d="M324.762,419.086l21.016-45.191c0,0-49.935-45.298-78.94-29.959
			c-16.186,8.56-24.567,24.838-10.549,36.28C270.306,391.659,324.762,419.086,324.762,419.086z"/>
		<path style="fill:#FFCA0A;" d="M293.028,448.097l-56.536,0.155c0,0-24.376-62.317-19.966-84.7
			c3.554-18.038,35.022-21.419,39.242-24.085l12.617-0.768c0,0,30.585,2.206,39.348,9.697
			C321.112,359.831,293.028,448.097,293.028,448.097z"/>
		<polygon style="fill:#141855;" points="234.276,406.419 246.159,442.205 270.66,442.205 		"/>
		<path style="fill:#FF6E38;" d="M292.384,601.207l-34.585-85.34c-20.922-51.626,40.47-61.4,60.005-19.144
			c9.26,20.032,33.491,81.36,33.491,81.36C369.441,622.861,310.53,645.984,292.384,601.207z"/>
		<path style="fill:#FF6E38;" d="M236.492,448.252c-6.389,10.625-18.83,27.201-23.858,57.492l105.169-7.225l-24.776-50.423
			L236.492,448.252z"/>
		<g>
			<g>
				<path style="fill:#141855;" d="M415.842,289.003h-49.69c-18.632,0-33.737,15.105-33.737,33.737v70.873h16.117v-68.87
					c0-10.838,8.785-19.623,19.623-19.623h45.684c10.838,0,19.623,8.786,19.623,19.624v68.87h16.117V322.74
					C449.579,304.108,434.475,289.003,415.842,289.003z"/>
			</g>
			<g>
				<path style="fill:#4685FA;" d="M479.922,353.978v167.423c0,4.644-3.763,8.408-8.408,8.408H306.607
					c-4.645,0-8.408-3.763-8.408-8.408V353.978c0-4.645,3.763-8.408,8.408-8.408h164.907
					C476.159,345.57,479.922,349.333,479.922,353.978z"/>
			</g>
			<g>
				<g>
					<circle style="fill:#FFFFFF;" cx="389.06" cy="443.678" r="42.312"/>
				</g>
				<g>
					<path style="fill:#141855;" d="M404.626,457.937l-6.601-13.424c-1.032-2.099-0.789-4.656,0.762-6.408
						c2.181-2.463,3.459-5.744,3.312-9.326c-0.278-6.801-5.911-12.417-12.712-12.678c-7.551-0.289-13.764,5.747-13.764,13.234
						c0,3.337,1.235,6.384,3.272,8.712c1.525,1.743,1.979,4.173,0.994,6.27l-6.454,13.741c-2.322,4.944,1.285,10.623,6.747,10.623
						h17.755C403.457,468.681,407.062,462.891,404.626,457.937z"/>
				</g>
			</g>
			<g>
				<rect x="298.199" y="367.278" style="fill:#FFCA0A;" width="181.723" height="6.982"/>
			</g>
		</g>
		<path style="fill:#FF6E38;" d="M207.866,603.601l3.578-91.218c2.164-55.181,62.783-41.828,63.231,4.216
			c0.213,21.827-2.933,87.152-2.933,87.152C269.865,651.612,205.989,651.461,207.866,603.601z"/>
		<path style="fill:#FF6E38;" d="M301.967,631.872c-27.596-66.453,26.977-103.956,49.327-53.788l65.294,148.241l-65.471,25.297
			L301.967,631.872z"/>
		<path style="fill:#FF6E38;" d="M210.507,599.57c34.473-57.685,77.198-11.189,47.913,41.398
			c-20.838,37.419-53.399,118.613-53.399,118.613l-67.793-34.467C137.228,725.114,197.337,621.609,210.507,599.57z"/>
		<g>
			<path style="fill:#FFFFFF;" d="M281.435,296.986c-2.033-4.695-8.821-10.113-15.421-10.02c-6.819,0.096-13.445,5.87-14.971,11.307
				c-1.542,5.491-5.054,17.535,1.66,23.905c4.045,3.838,8.513,3.256,8.574,10.078c0.021,2.313-2.19,7.526-2.863,9.038
				c5.664,12.25,18.902,5.441,12.562-3.628c-0.79-1.436-1.555-2.866-1.969-4.991c-0.467-2.4,0.389-4.232,2.668-5.118
				c3.654-1.42,6.383-1.574,10.907-6.417C289.115,314.147,283.729,302.286,281.435,296.986z"/>
			<g>
				<path style="fill:#141855;" d="M260.286,307.764c-0.065-1.533,1.125-2.828,2.657-2.893c1.533-0.065,2.828,1.125,2.893,2.658
					c0.065,1.533-1.125,2.828-2.658,2.893C261.646,310.486,260.351,309.297,260.286,307.764z"/>
				<path style="fill:#141855;" d="M262.853,304.875c-2.103,0.198-2.329,2.047-4.501,2.047
					C258.989,307.535,262.066,308.086,262.853,304.875z"/>
				<path style="fill:#FFFFFF;" d="M263.551,306.797c-0.015-0.36,0.264-0.664,0.625-0.68c0.36-0.015,0.664,0.264,0.68,0.624
					c0.015,0.36-0.264,0.664-0.625,0.68C263.87,307.437,263.566,307.158,263.551,306.797z"/>
			</g>
			<path style="fill:#141855;" d="M266.231,299.576c-1.901-0.729-6.624-0.032-7.354,3.294c1.179-1.088,3.9-2.221,6.51-1.27
				C266.493,302.004,266.649,299.737,266.231,299.576z"/>
			<g>
				<path style="fill:#141855;" d="M281.216,306.771c-0.065-1.533-1.36-2.722-2.892-2.657c-1.533,0.065-2.722,1.36-2.658,2.892
					c0.065,1.533,1.36,2.722,2.892,2.657C280.091,309.598,281.281,308.303,281.216,306.771z"/>
				<path style="fill:#141855;" d="M278.413,304.109c2.112,0.02,2.494,1.842,4.658,1.66
					C282.488,306.433,279.469,307.242,278.413,304.109z"/>
				<path style="fill:#FFFFFF;" d="M280.026,306.31c-0.015-0.36-0.32-0.64-0.68-0.625c-0.36,0.015-0.64,0.32-0.625,0.68
					c0.015,0.36,0.32,0.64,0.68,0.624C279.762,306.974,280.041,306.67,280.026,306.31z"/>
			</g>
			<path style="fill:#141855;" d="M274.796,299.602c1.695-1.127,6.457-1.478,7.896,1.608c-1.388-0.804-4.291-1.315-6.63,0.183
				C275.07,302.029,274.423,299.85,274.796,299.602z"/>
			<path style="fill:#141855;" d="M273.681,311.745c-0.741-1.876-2.879-3.1-2.759-5.313c0.03-0.555-0.833-0.514-0.863,0.036
				c-0.103,1.897,1.279,3.267,2.305,4.691c0.428,0.595,0.956,1.493,0.398,2.173c-0.544,0.664-1.534,0.649-2.313,0.658
				c-0.556,0.007-0.519,0.869,0.036,0.863c0.944-0.011,1.942-0.072,2.69-0.719C273.88,313.523,274.015,312.592,273.681,311.745z"/>
			<path style="fill:#141855;" d="M262.208,326.402c1.585,1.97,6.79,4.055,6.79,4.055s0.584-2.389,2.197-3.229
				c-0.944,0.475-2.64,0.631-4.446,0.467C264.98,327.535,263.101,327.068,262.208,326.402z"/>
			<g>
				<path style="fill:#141855;" d="M275.029,316.987c0.037,0.886-0.406,2.037-1.171,3.031c-0.897,1.162-2.241,2.115-3.773,2.18
					c-1.513,0.064-2.908-0.745-3.899-1.804c-0.873-0.936-1.429-2.068-1.467-2.97C268.208,318.303,271.645,318.163,275.029,316.987z"
					/>
				<path style="fill:#FF5B36;" d="M273.858,320.018c-0.897,1.162-2.241,2.115-3.773,2.18c-1.513,0.064-2.908-0.745-3.899-1.804
					c0.925-0.485,2.311-0.827,3.863-0.892C271.542,319.438,272.9,319.64,273.858,320.018z"/>
			</g>
			<g>
				<path style="fill:#FFFFFF;" d="M251.267,307.857c0,0-4.03-6.167-8.228-2.164c-4.221,4.025,2.527,17.182,8.271,10.178
					L251.267,307.857z"/>
			</g>
			<g>
				<path style="fill:#141855;" d="M266.834,348.427c-0.076,0-0.151-0.001-0.228-0.004c-3.513-0.111-6.663-2.632-8.646-6.919
					c-0.06-0.131-0.062-0.282-0.003-0.413c1.311-2.945,2.836-7.025,2.82-8.83c-0.039-4.362-1.903-5.444-4.483-6.943
					c-1.22-0.709-2.603-1.512-3.936-2.776c-1.296-1.23-2.269-2.707-2.963-4.503c-2.014,0.877-4.193,0.08-5.933-2.213
					c-2.339-3.081-3.23-8.149-0.77-10.496c1.869-1.782,4.057-1.958,6.23-0.527c0.483-2.548,1.124-4.831,1.604-6.541l0.035-0.125
					c1.527-5.439,8.247-11.57,15.446-11.672c6.675-0.113,13.74,5.364,15.886,10.321l0,0l0.172,0.398
					c2.427,5.594,7.478,17.233,0.881,24.295c-3.754,4.019-6.359,4.903-9.119,5.839c-0.637,0.216-1.288,0.437-1.972,0.703
					c-2.002,0.778-2.795,2.312-2.358,4.557c0.41,2.108,1.176,3.5,1.916,4.845c1.876,2.679,2.263,5.543,1.035,7.814
					C271.377,347.219,269.24,348.427,266.834,348.427z M258.964,341.288c1.82,3.807,4.608,6.039,7.674,6.136
					c2.117,0.064,4.008-0.953,4.933-2.661c1.042-1.926,0.676-4.408-1.003-6.81c-0.77-1.393-1.61-2.92-2.05-5.182
					c-0.528-2.711,0.529-4.729,2.978-5.68c0.698-0.271,1.363-0.498,2.013-0.718c2.751-0.934,5.127-1.74,8.71-5.575
					c6.149-6.583,1.274-17.816-1.068-23.215l-0.173-0.399c-2.021-4.668-8.654-9.831-14.955-9.719
					c-6.759,0.095-13.066,5.843-14.497,10.942l-0.035,0.125c-0.523,1.864-1.24,4.417-1.725,7.232
					c-0.03,0.175-0.151,0.321-0.317,0.383c-0.167,0.063-0.353,0.031-0.491-0.08c-2.002-1.628-3.877-1.632-5.573-0.014
					c-2.02,1.926-1.204,6.428,0.876,9.167c0.747,0.985,2.746,3.121,5.156,1.685c0.13-0.077,0.287-0.091,0.428-0.04
					c0.142,0.052,0.252,0.164,0.301,0.307c0.649,1.886,1.599,3.405,2.904,4.643c1.247,1.184,2.519,1.922,3.749,2.637
					c2.649,1.539,4.937,2.868,4.981,7.799C261.799,334.652,259.61,339.816,258.964,341.288z"/>
			</g>
		</g>
		<path style="fill:#FFFFFF;" d="M271.544,338.496c0,0,14.409-2.208,14.162,2.241c-0.247,4.449-6.005,15.886-9.3,15.144
			c-3.296-0.742-8.816-5.603-8.816-5.603s-7.798,6.509-10.711,6.509c-4.944,0-12.112-11.865-10.464-13.76
			c1.648-1.895,11.865-4.532,12.194-3.708c0.33,0.824,4.944,8.404,8.569,6.509S271.544,338.496,271.544,338.496z"/>
		<g>
			<path style="fill:#141855;" d="M256.877,357.287c-3.688,0-8.336-5.89-10.273-10.143c-0.695-1.526-1.358-3.536-0.568-4.445
				c1.623-1.866,10.509-4.33,12.399-4.005c0.328,0.056,0.542,0.204,0.637,0.44c0.266,0.664,3.124,5.285,5.875,6.303
				c0.749,0.277,1.402,0.26,1.998-0.051c3.357-1.755,4.096-6.906,4.103-6.958c0.03-0.22,0.201-0.393,0.42-0.427
				c0.452-0.069,11.11-1.667,13.966,0.926c0.551,0.5,0.81,1.118,0.77,1.837c-0.214,3.861-4.237,12.36-7.567,14.876
				c-0.85,0.641-1.637,0.887-2.342,0.728c-2.953-0.664-7.464-4.372-8.713-5.436C265.931,352.285,259.636,357.287,256.877,357.287z
				 M257.97,339.65c-1.964,0-9.87,2.2-11.179,3.706c-0.185,0.212-0.272,1.191,0.723,3.374c1.78,3.906,6.138,9.557,9.364,9.557
				c2.24,0,8.26-4.615,10.391-6.393c0.189-0.158,0.465-0.154,0.651,0.008c0.054,0.048,5.463,4.786,8.596,5.49
				c0.502,0.113,1.104-0.237,1.519-0.55c3.091-2.335,6.973-10.542,7.172-14.134c0.023-0.415-0.118-0.746-0.444-1.041
				c-2.001-1.817-9.586-1.184-12.786-0.73c-0.245,1.307-1.285,5.618-4.569,7.334c-0.849,0.443-1.794,0.479-2.808,0.103
				c-2.983-1.103-5.822-5.57-6.383-6.708C258.15,339.655,258.068,339.65,257.97,339.65z"/>
		</g>
		<polygon style="fill:#141855;" points="285.284,583.688 272.913,486.205 272.913,553.163 		"/>
		<g>
			<path style="fill:#141855;" d="M235.345,449.846h58.785c0.872-2.534,1.087-5.438,0.475-8.806l-60.625-0.26
				C233.548,444.197,233.665,447.369,235.345,449.846z"/>
			<rect x="284.101" y="440.783" style="fill:#FF6E38;" width="3.841" height="11.215"/>
			<rect x="242.318" y="440.824" style="fill:#FF6E38;" width="3.841" height="11.81"/>
			<g>
				<path style="fill:#FFC124;" d="M271.756,451.549h-13.673c-2.167,0-3.93-1.763-3.93-3.93v-4.61c0-2.167,1.763-3.93,3.93-3.93
					h13.673c2.167,0,3.93,1.763,3.93,3.93v4.61C275.685,449.787,273.923,451.549,271.756,451.549z M258.082,441.08
					c-1.064,0-1.93,0.866-1.93,1.93v4.61c0,1.064,0.866,1.93,1.93,1.93h13.673c1.064,0,1.93-0.866,1.93-1.93v-4.61
					c0-1.064-0.866-1.93-1.93-1.93H258.082z"/>
			</g>
		</g>
		<path style="fill:#FFFFFF;" d="M257.074,362.18c-28.211-16.595-44.061,6.933-33.781,24.167
			c12.38,20.754,41.069,59.772,59.372,77.329c31.293,29.331,59.824,5.949,38.589-25.987
			C304.806,412.952,275.663,373.115,257.074,362.18z"/>
		<path style="fill:#FFFFFF;" d="M322.695,439.465c12.694,17.22,38.601,50.543,38.601,50.543l-38.183,25.38
			c0,0-31.523-34.891-45.239-56.26C258.485,428.921,300.686,410.823,322.695,439.465z"/>
		<path style="fill:#FFFFFF;" d="M353.569,485.99l3.675,20.975c6.834,4.607,27.753,13.366,27.956,4.828
			C385.947,501.084,356.845,487.894,353.569,485.99z"/>
		<g>
			<g>
				<path style="fill:#FFFFFF;" d="M355.78,486.591c5.513,2.624,38.425,59.421,6.465,54.417c-0.666,2.987-10.979,5.386-13.239,3.207
					c-2.967,5.067-12.793,5.188-15.184,0.198c-25.371,6.841-28.084-40.769-14.04-56.805
					C333.935,485.384,341.626,488.816,355.78,486.591z"/>
			</g>
			<path style="fill:#FFFFFF;" d="M353.569,485.99l3.675,20.975c6.834,4.607,27.753,13.366,27.956,4.828
				C385.947,501.084,356.845,487.894,353.569,485.99z"/>
			<g>
				<path style="fill:#141855;" d="M362.245,541.509c-0.194,0-0.379-0.114-0.46-0.305c-0.301-0.709-7.377-17.457-7.517-25.505
					c-0.005-0.276,0.215-0.504,0.491-0.509c0.286-0.018,0.504,0.215,0.509,0.491c0.136,7.854,7.364,24.96,7.438,25.132
					c0.108,0.254-0.011,0.548-0.265,0.655C362.377,541.496,362.31,541.509,362.245,541.509z"/>
			</g>
			<g>
				<path style="fill:#141855;" d="M349.371,544.536c-0.194,0-0.379-0.114-0.461-0.305c-0.301-0.709-7.376-17.457-7.517-25.504
					c-0.005-0.276,0.215-0.504,0.491-0.509c0.262-0.017,0.504,0.215,0.509,0.491c0.137,7.853,7.364,24.959,7.437,25.131
					c0.108,0.254-0.011,0.548-0.265,0.655C349.503,544.523,349.436,544.536,349.371,544.536z"/>
			</g>
			<g>
				<path style="fill:#141855;" d="M333.822,544.913c-0.183,0-0.36-0.101-0.447-0.275c-0.337-0.672-8.256-16.541-8.397-24.604
					c-0.005-0.276,0.215-0.504,0.491-0.509c0.292,0.009,0.504,0.215,0.509,0.491c0.136,7.836,8.209,24.011,8.29,24.173
					c0.124,0.247,0.024,0.548-0.223,0.672C333.974,544.896,333.897,544.913,333.822,544.913z"/>
			</g>
		</g>
		<g>
			<g>
				<path style="fill:#FFFFFF;" d="M473.748,435.294c0,0,13.802-2.413,17.73,4.158c4.265,7.135,1.479,50.554-1.742,54.115
					c-7.41,8.19-14.278,3.115-16.526,2.879c-5.389-0.335-6.406-13.09-1.328-15.525c-5.302-0.229-6.51-12.636-1.609-15.382
					c-5.608-1.308-5.347-14.992,0.255-15.755C466.366,445.561,468.748,434.456,473.748,435.294z"/>
			</g>
			<g>
				<g>
					<path style="fill:#141855;" d="M480.591,498.721c-2.353,0-4.367-0.742-5.813-1.275c-0.675-0.249-1.259-0.464-1.622-0.502
						c-2.321-0.143-4.132-2.344-4.822-5.883c-0.686-3.516-0.065-7.87,2.288-9.905c-1.646-0.654-2.937-2.476-3.567-5.121
						c-0.866-3.639-0.252-8.235,2.156-10.353c-2.616-1.323-3.662-5.257-3.502-8.672c0.14-2.987,1.258-6.56,3.911-7.517
						c-2.295-3.072-2.132-8.466-0.421-11.757c1.11-2.135,2.757-3.212,4.544-2.948c1.276-0.211,14.223-2.184,18.163,4.408
						c4.217,7.055,1.698,50.838-1.801,54.707C486.708,497.657,483.407,498.721,480.591,498.721z M473.218,435.75
						c-1.604,0-2.638,1.499-3.131,2.448c-1.679,3.229-1.765,8.637,0.796,11.235c0.133,0.135,0.178,0.334,0.117,0.513
						c-0.061,0.179-0.218,0.308-0.406,0.334c-2.48,0.338-3.739,3.647-3.886,6.777c-0.164,3.509,1.046,7.381,3.677,7.995
						c0.201,0.047,0.353,0.212,0.381,0.417c0.029,0.205-0.071,0.406-0.251,0.506c-2.666,1.494-3.358,6.17-2.487,9.829
						c0.67,2.816,2.118,4.542,3.873,4.618c0.229,0.01,0.422,0.174,0.468,0.399c0.046,0.225-0.067,0.452-0.273,0.552
						c-2.652,1.271-3.496,5.827-2.781,9.497c0.461,2.366,1.734,4.942,3.924,5.078c0.508,0.053,1.115,0.276,1.884,0.56
						c3.163,1.168,8.457,3.117,14.24-3.274c2.681-2.964,6.048-46.222,1.684-53.524c-3.705-6.199-17.08-3.946-17.215-3.921
						c-0.056,0.009-0.113,0.009-0.168,0C473.511,435.762,473.362,435.75,473.218,435.75z"/>
				</g>
			</g>
			<g>
				<path style="fill:#141855;" d="M470.527,450.284c-0.275,0-0.499-0.223-0.5-0.498c-0.001-0.276,0.222-0.501,0.498-0.502
					l16.564-0.06c0.001,0,0.001,0,0.002,0c0.275,0,0.499,0.223,0.5,0.498c0.001,0.276-0.222,0.501-0.498,0.502l-16.564,0.06
					C470.528,450.284,470.528,450.284,470.527,450.284z"/>
			</g>
			<g>
				<path style="fill:#141855;" d="M487.417,466.897c-0.008,0-0.017,0-0.025,0l-17.145-0.859c-0.276-0.014-0.488-0.249-0.475-0.524
					c0.014-0.276,0.255-0.502,0.524-0.475l17.145,0.859c0.276,0.014,0.488,0.249,0.475,0.524
					C487.902,466.69,487.682,466.897,487.417,466.897z"/>
			</g>
			<g>
				<path style="fill:#141855;" d="M487.37,481.669c-0.002,0-0.005,0-0.008,0l-15.489-0.248c-0.276-0.005-0.496-0.232-0.492-0.508
					c0.004-0.276,0.249-0.5,0.508-0.492l15.489,0.248c0.276,0.004,0.497,0.231,0.492,0.508
					C487.866,481.45,487.643,481.669,487.37,481.669z"/>
			</g>
		</g>
		<path style="fill:#141855;" d="M256.149,282.581c-8.16,4.887-11.814,15.711-8.285,24.544c9.018-2.194,17.126-12.4,18.46-20.604
			L256.149,282.581z"/>
		<g>
			<path style="fill:#141855;" d="M341.071,548.587c-0.173,0-0.346-0.004-0.521-0.011c-3.197-0.133-5.772-1.461-6.986-3.579
				c-5.68,1.423-10.526,0.277-14.413-3.413c-8.24-7.822-9.779-24.965-7.053-37.967c-11.186-12.961-26.214-31.084-34.646-44.22
				c-0.125-0.195-0.242-0.388-0.358-0.581l-0.111-0.183c-18.128-19.207-42.612-52.74-54.118-72.029
				c-5.013-8.403-4.089-18.724,2.246-25.098c7.347-7.393,19.392-7.302,32.217,0.244c21.385,12.58,54.655,61.094,64.343,75.664
				c0.474,0.559,0.954,1.139,1.421,1.747c12.241,16.606,37.076,48.581,38.534,50.457c16.39,8.782,24.489,16.255,24.074,22.212
				c-0.031,1.336-0.542,2.378-1.518,3.074c-2.435,1.736-7.332,0.858-11.354-0.331c3.121,8.18,5.714,18.612,1.467,23.918
				c-2.263,2.826-6.203,3.858-11.715,3.074c-0.8,1.705-3.773,2.768-5.093,3.164c-2.893,0.868-6.56,1.245-8.347,0.204
				C347.545,547.194,344.479,548.587,341.071,548.587z M333.822,543.913c0.189,0,0.366,0.107,0.451,0.284
				c0.955,1.992,3.317,3.256,6.319,3.38c3.478,0.145,6.614-1.274,7.983-3.615c0.078-0.132,0.211-0.222,0.363-0.242
				c0.152-0.023,0.305,0.029,0.415,0.136c1.006,0.972,4.452,0.935,7.844-0.085c2.551-0.767,4.341-1.894,4.559-2.87
				c0.057-0.259,0.311-0.426,0.565-0.386c5.349,0.837,9.113-0.054,11.191-2.649c4.117-5.143,1.19-15.83-1.991-23.891
				c-0.071-0.18-0.032-0.384,0.1-0.525c0.132-0.141,0.332-0.191,0.517-0.135c5.594,1.782,9.665,2.056,11.461,0.774
				c0.715-0.51,1.075-1.265,1.1-2.307c0.267-3.831-3.62-10.62-23.641-21.334c-0.062-0.032-0.116-0.078-0.159-0.134
				c-0.259-0.333-26.057-33.525-38.608-50.553c-0.451-0.587-0.92-1.153-1.394-1.708l0.367-0.344l-0.429,0.257
				c-19.902-29.932-47.171-65.446-64.017-75.355c-12.408-7.299-23.997-7.449-31.001-0.401c-6.013,6.05-6.875,15.87-2.097,23.88
				c11.487,19.257,35.936,52.741,54.023,71.894c0.023,0.025,0.045,0.053,0.063,0.083l0.14,0.231
				c0.112,0.186,0.225,0.372,0.345,0.559c8.441,13.15,23.541,31.346,34.723,44.294c0.103,0.119,0.143,0.279,0.11,0.432
				c-2.738,12.758-1.311,29.658,6.712,37.276c3.706,3.518,8.369,4.549,13.852,3.071
				C333.735,543.919,333.779,543.913,333.822,543.913z"/>
		</g>
		<path style="fill:#FFCA0A;" d="M258.641,437.159l40.48-32.169c-7.691-12.467-52.539-66.191-71.875-52.826
			c-16.295,11.263-13.103,26.402-1.777,42.368S258.641,437.159,258.641,437.159z"/>
	</g>
	<g>
		<g>
			<g>
				<g>
					<path style="fill:#141855;" d="M1124.494,727.448c0,0,1.446,26.933-4.487,32.291c-11.65,10.52-30.72,30.565-29.1,54.106
						l96.59,0.612l-2.053-88.481L1124.494,727.448z"/>
					<path style="fill:#FFCC00;" d="M1090.907,813.846l-0.046,6.762c-0.027,3.971,3.17,7.212,7.141,7.239l81.969,0.513
						c3.971,0.027,7.212-3.17,7.239-7.141l0.046-6.762L1090.907,813.846z"/>
					<g>
						<path style="fill:#141855;" d="M1169.6,814.584c-0.025,0-0.05-0.002-0.076-0.006c-0.273-0.042-0.46-0.297-0.418-0.57
							c0.673-4.398,2.203-8.621,4.422-12.214c3.427-5.549,8.093-8.849,12.802-9.056c0.282-0.009,0.51,0.203,0.521,0.479
							c0.012,0.275-0.202,0.509-0.478,0.521c-4.373,0.191-8.745,3.318-11.995,8.581c-2.149,3.48-3.631,7.574-4.285,11.841
							C1170.056,814.407,1169.843,814.584,1169.6,814.584z"/>
					</g>
					<g>
						<path style="fill:#FFFFFF;" d="M1106.872,773.775c-0.17,0-0.336-0.087-0.43-0.244c-0.142-0.237-0.064-0.544,0.173-0.685
							c6.635-3.955,22.324-2.633,30.634-0.205c0.265,0.077,0.417,0.354,0.34,0.62c-0.078,0.265-0.354,0.415-0.62,0.339
							c-8.138-2.378-23.448-3.71-29.841,0.105C1107.047,773.753,1106.959,773.775,1106.872,773.775z"/>
					</g>
					<path style="fill:#FFCC00;" d="M1136.303,776.346c-1.301-1.589-0.922-3.825,0.845-4.994c1.767-1.169,4.254-0.829,5.555,0.76
						c1.301,1.589,0.922,3.825-0.845,4.994C1140.091,778.275,1137.604,777.935,1136.303,776.346z"/>
					<g>
						<path style="fill:#FFFFFF;" d="M1134.37,793.111c-0.064,0-0.129-0.013-0.192-0.038c-10.391-4.326-28.417-6.307-37.672-2.226
							c-0.253,0.109-0.548-0.004-0.659-0.257c-0.111-0.252,0.003-0.548,0.256-0.659c9.629-4.242,27.661-2.278,38.46,2.218
							c0.255,0.106,0.375,0.399,0.269,0.654C1134.752,792.996,1134.566,793.111,1134.37,793.111z"/>
					</g>
					<path style="fill:#FFCC00;" d="M1131.157,794.734c-1.232-1.589-0.874-3.825,0.801-4.994c1.674-1.169,4.03-0.829,5.262,0.76
						c1.232,1.589,0.874,3.825-0.8,4.994C1134.745,796.663,1132.389,796.323,1131.157,794.734z"/>
				</g>
				<g>
					<path style="fill:#141855;" d="M1005.651,731.966c0,0,1.521,25.795-4.137,30.957c-11.108,10.136-59.283,6.299-64.556,51.878
						l129.485,0.204l-2.41-84.754L1005.651,731.966z"/>
					<path style="fill:#FFCC00;" d="M936.958,814.801l-0.01,6.478c-0.006,3.804,3.073,6.893,6.877,6.899l115.477,0.182
						c3.804,0.006,6.893-3.073,6.899-6.877l0.01-6.478L936.958,814.801z"/>
					<g>
						<path style="fill:#FFFFFF;" d="M1037.5,815.217c-0.041,0-0.083-0.005-0.125-0.016c-0.268-0.068-0.429-0.341-0.36-0.608
							c1.087-4.243,3.607-8.316,7.286-11.779c5.604-5.273,13.231-8.42,20.925-8.632c0.238-0.022,0.506,0.21,0.514,0.486
							c0.007,0.276-0.21,0.506-0.486,0.514c-7.452,0.205-14.839,3.252-20.267,8.36c-3.541,3.332-5.962,7.239-7.003,11.299
							C1037.926,815.066,1037.723,815.217,1037.5,815.217z"/>
					</g>
					<g>
						<path style="fill:#FFFFFF;" d="M971.208,794.901c-0.171,0-0.338-0.088-0.431-0.246c-3.491-5.916-9.194-10.658-15.647-13.01
							c-0.259-0.095-0.393-0.382-0.298-0.641c0.094-0.26,0.382-0.395,0.641-0.299c6.765,2.466,12.506,7.239,16.165,13.441
							c0.14,0.237,0.061,0.544-0.177,0.685C971.382,794.879,971.294,794.901,971.208,794.901z"/>
					</g>
					<g>
						<path style="fill:#FFFFFF;" d="M986.46,785.264c-0.169,0-0.334-0.086-0.428-0.241c-3.15-5.211-10.43-10.783-15.843-10.433
							c-0.271,0.018-0.513-0.191-0.531-0.467c-0.018-0.276,0.191-0.514,0.467-0.531c5.855-0.394,13.394,5.343,16.762,10.913
							c0.143,0.236,0.067,0.544-0.169,0.687C986.638,785.24,986.548,785.264,986.46,785.264z"/>
					</g>
					<path style="fill:#FFCC00;" d="M984.725,786.266c0.003-1.89,1.538-3.42,3.428-3.417c1.89,0.003,3.42,1.537,3.417,3.427
						s-1.537,3.42-3.427,3.417S984.722,788.156,984.725,786.266z"/>
					<path style="fill:#FFCC00;" d="M967.754,794.856c0.003-1.89,1.538-3.42,3.427-3.417c1.89,0.003,3.42,1.538,3.417,3.427
						c-0.003,1.89-1.538,3.42-3.428,3.417C969.281,798.28,967.751,796.745,967.754,794.856z"/>
				</g>
				<path style="fill:#FFCA0A;" d="M1079.488,597.77c9.055-25.619,35.343-102.863,35.343-102.863
					c23.047-55.287-34.387-71.618-57.433-16.331l-41.634,96.279C995.774,622.809,1062.183,646.735,1079.488,597.77z"/>
				<polygon style="fill:#141855;" points="1096.846,502.477 1081.027,593.394 1101.46,536.175 				"/>
				<path style="fill:#FFCA0A;" d="M1079.306,608.763c3.974-60.209-64.944-77.266-69.778-4.016l-10.471,148.057l73.071,0.777
					L1079.306,608.763z"/>
				<path style="fill:#FFCA0A;" d="M1168.532,570.986c-3.1-31.158-6.9-74.773-13.522-122.21c-7.974-51.155-61.88,6.054-61.88,6.054
					s5.688,91.019,12.659,147.482C1111.291,646.878,1174.527,631.245,1168.532,570.986z"/>
				<path style="fill:#FFCA0A;" d="M1167.891,569.088c-5.065-57.164-64.567-38.923-62.023,25.031
					c1.585,39.849,9.685,159.228,9.685,159.228l73.103-0.792L1167.891,569.088z"/>
				<path style="fill:#FF6E38;" d="M1066.117,331.627c-23.068,1.059-70.846,22.326-91.345,29.774
					c-33.206,12.066-31.375,60.606,10.25,50.872c22.499-5.262,63.309-14.292,82.279-27.965
					C1083.053,372.955,1095.427,330.282,1066.117,331.627z"/>
				<path style="fill:#141855;" d="M1055.336,344.747c-9.875,15.565-13.751,57.569-13.751,57.569l22.923,1.69
					C1044.524,386.77,1055.336,344.747,1055.336,344.747z"/>
				<path style="fill:#FF6E38;" d="M1173.872,343.25c12.164,15.362,36.294,68.978,42.904,98.478
					c9.959,44.441-27.164,47.694-51.075,14.338c-13.881-19.964-24.303-63.12-31.385-86.687
					C1128.436,349.81,1154.704,319.043,1173.872,343.25z"/>
				<path style="fill:#FFCC00;" d="M1098.965,324.901l-12.253,2.509c-16.521,24.807,6.609,57.169,22.374,52.177
					c8.015-1.994,18.605-40.054,17.479-54.106l-11.359-1.603L1098.965,324.901z"/>
				<path style="fill:#FF6E38;" d="M1057.447,336.417c3.011-5.705,29.266-9.007,29.266-9.007
					c-5.698,11.542,2.397,44.176,4.656,38.102c0,0,33.233-24.835,35.198-40.03c11.807,0.704,30.999,6.279,37.078,9.482
					c0,0-12.278,37.691-9.014,44.339c0.944,10.034,8.999,113.456,8.999,113.456c-6.051,17.879-120.196,10.853-114.229-7.722
					C1061.475,447.445,1045.757,374.531,1057.447,336.417z"/>
				<polygon style="fill:#141855;" points="1147.797,394.9 1146.301,423.905 1103.96,450.252 1164.443,431.725 				"/>
				<g>
					<path style="fill:#FFFFFF;" d="M1086.247,281.996c2.347-4.941,8.972-11.197,16.027-11.391
						c7.288-0.201,14.624,5.671,16.497,11.412c1.891,5.797,6.897,15.013-1.458,28.504c-3.139,5.068-0.841,12.09-0.056,13.676
						c-13.174,18.463-26.496,22.559-20.24,2.952c4.383-4.283,4.099-10.504,3.847-11.262c-0.364-1.097-6.089-0.895-10.693-4.624
						C1083.524,305.88,1082.645,289.58,1086.247,281.996z"/>
					<path style="fill:#141855;" d="M1116.108,277.155c-2.236,3.615-5.439,4.131-9.526,4.819c1.802-1.5,4.067-2.638,4.426-5.528
						c-7.553,4.717-13.175,5.948-20.825,1.367c-2.113,0.974-4.697,5.649-5.34,7.436c-1.447-3.577-3.448-8.902-0.889-13.639
						c-3.041-4.531-7.473-15.284-3.546-18.991c4.509,5.163,16.358-6.192,22.099-6.527c7.655-1.901,18.303,2.584,16.905,11.716
						c1.868-1.265,2.861-3.782,2.388-6.048c1.255,1.871,1.863,4.199,1.688,6.469c2.827,0.066,11.411,6.363,12.286,8.709
						c3.822,8.657,0.245,29.521-12.602,31.659c0.01-0.002-1.102-2.26-1.203-2.466c-0.569-1.311-1.723-2.143-2.197-3.512
						C1117.192,287.22,1115.559,283.276,1116.108,277.155z"/>
					<path style="fill:#141855;" d="M1100.577,315.552c0.857,1.801,0,5.052,0,5.052c4.648-1.524,8.961-3.511,12.973-9.675
						C1106.763,314.792,1104.795,315.577,1100.577,315.552z"/>
					<g>
						<path style="fill:#141855;" d="M1109.849,292.745c0.001-1.521-1.232-2.756-2.753-2.757s-2.756,1.232-2.757,2.753
							c-0.001,1.522,1.232,2.756,2.753,2.757C1108.614,295.499,1109.849,294.266,1109.849,292.745z"/>
						<path style="fill:#141855;" d="M1107.185,289.988c2.092,0.109,2.392,1.932,4.545,1.843
							C1111.125,292.464,1108.098,293.138,1107.185,289.988z"/>
						<path style="fill:#FFFFFF;" d="M1108.69,292.237c0-0.358-0.289-0.648-0.647-0.648c-0.357,0-0.648,0.289-0.648,0.647
							c0,0.358,0.289,0.648,0.647,0.648C1108.4,292.884,1108.69,292.595,1108.69,292.237z"/>
					</g>
					<path style="fill:#141855;" d="M1104.314,283.62c1.998-0.864,7.075-0.329,8.003,3.191c-1.308-1.109-4.266-2.199-7.011-1.067
						C1104.142,286.225,1103.874,283.81,1104.314,283.62z"/>
					<g>
						<path style="fill:#141855;" d="M1087.624,290.806c0.001-1.339,1.087-2.423,2.426-2.422c1.339,0.001,2.423,1.087,2.422,2.426
							c-0.001,1.339-1.087,2.423-2.426,2.422C1088.708,293.231,1087.623,292.145,1087.624,290.806z"/>
						<path style="fill:#141855;" d="M1089.971,288.384c-1.841,0.094-2.107,1.697-4.001,1.616
							C1086.502,290.558,1089.164,291.154,1089.971,288.384z"/>
						<path style="fill:#FFFFFF;" d="M1088.645,290.361c0-0.315,0.255-0.569,0.57-0.569c0.315,0,0.569,0.255,0.569,0.57
							c0,0.315-0.255,0.57-0.57,0.569S1088.645,290.676,1088.645,290.361z"/>
					</g>
					<path style="fill:#141855;" d="M1095.766,282.499c-1.796-1.229-6.882-1.673-8.465,1.606c1.496-0.84,4.607-1.345,7.085,0.29
						C1095.439,285.089,1096.162,282.77,1095.766,282.499z"/>
					<path style="fill:#141855;" d="M1096.039,297.916c0.598-2.072,2.749-3.592,2.396-5.936c-0.089-0.587,0.834-0.632,0.922-0.049
						c0.302,2.008-1.029,3.607-1.976,5.227c-0.395,0.676-0.865,1.687-0.203,2.354c0.647,0.652,1.699,0.535,2.529,0.465
						c0.593-0.049,0.641,0.872,0.049,0.922c-1.006,0.084-2.074,0.121-2.936-0.492
						C1096.008,299.829,1095.769,298.852,1096.039,297.916z"/>
					<g>
						<path style="fill:#FFFFFF;" d="M1117.903,294.142c0,0,5.087-8.644,9.75-4.555c4.689,4.112-1.934,18.467-8.382,11.241
							L1117.903,294.142z"/>
					</g>
					<g>
						<path style="fill:#141855;" d="M1098.77,340.573c-0.625,0-1.192-0.122-1.693-0.372c-1.868-0.936-3.477-3.985-0.537-13.203
							c0.025-0.078,0.069-0.148,0.127-0.206c4.235-4.139,3.896-10.224,3.722-10.747c-0.143-0.182-1.211-0.446-2.069-0.658
							c-2.207-0.545-5.541-1.369-8.464-3.736c-7.148-5.79-7.578-22.465-4.06-29.87c2.243-4.722,8.834-11.466,16.465-11.677
							c7.663-0.228,15.116,6.027,16.986,11.757c0.209,0.642,0.457,1.326,0.721,2.053c0.566,1.562,1.2,3.309,1.692,5.276
							c2.29-1.612,4.464-1.61,6.323,0.019l0,0c2.738,2.401,1.993,7.85-0.387,11.239c-1.763,2.508-4.057,3.431-6.238,2.548
							c-0.787,2.561-2.003,5.177-3.619,7.787c-3,4.843-0.751,11.742-0.033,13.19c0.082,0.165,0.066,0.362-0.041,0.513
							C1110.602,334.386,1103.222,340.572,1098.77,340.573z M1097.456,327.418c-2.058,6.504-2.034,10.835,0.069,11.888
							c2.957,1.485,10.661-3.335,19.156-15.163c-0.904-2.063-2.908-8.856,0.207-13.885c1.687-2.724,2.923-5.449,3.675-8.1
							c0.042-0.147,0.148-0.267,0.289-0.325c0.142-0.059,0.302-0.05,0.434,0.024c2.665,1.472,4.728-0.895,5.492-1.983
							c2.132-3.035,2.819-7.919,0.546-9.912l0,0c-1.633-1.432-3.535-1.27-5.654,0.48c-0.134,0.11-0.316,0.144-0.48,0.087
							c-0.165-0.057-0.288-0.194-0.326-0.364c-0.497-2.216-1.208-4.178-1.835-5.91c-0.268-0.738-0.519-1.432-0.731-2.083
							c-1.76-5.396-8.771-11.282-16.008-11.068c-6.455,0.178-13.117,5.903-15.589,11.105c-3.673,7.73-2.449,23.613,3.787,28.664
							c2.749,2.227,5.954,3.018,8.074,3.542c1.591,0.393,2.552,0.63,2.779,1.313
							C1101.572,316.433,1102.057,322.834,1097.456,327.418z"/>
					</g>
				</g>
				<g>
					<path style="fill:#141855;" d="M1105.824,303.545c0.1,0.9-0.271,2.104-0.98,3.17c-0.832,1.247-2.134,2.312-3.691,2.485
						c-1.537,0.171-3.015-0.555-4.099-1.565c-0.955-0.892-1.601-2.007-1.703-2.923
						C1098.967,305.363,1102.459,304.98,1105.824,303.545z"/>
					<path style="fill:#FF7E5E;" d="M1104.844,306.715c-0.832,1.247-2.134,2.312-3.691,2.485c-1.537,0.171-3.015-0.555-4.099-1.565
						c0.909-0.559,2.296-1.004,3.873-1.18C1102.443,306.286,1103.841,306.397,1104.844,306.715z"/>
				</g>
			</g>
			<g>
				<g>
					<path style="fill:#FFFFFF;" d="M943.933,432.609c-0.131,0-0.261-0.051-0.359-0.152c-10.222-10.572-21-20.857-32.036-30.57
						c-0.207-0.183-0.227-0.499-0.045-0.706c0.183-0.207,0.499-0.227,0.706-0.045c11.056,9.73,21.854,20.035,32.094,30.626
						c0.192,0.199,0.187,0.515-0.012,0.707C944.184,432.562,944.058,432.609,943.933,432.609z"/>
				</g>
			</g>
		</g>
		<g>
			<g>
				<g>
					<path style="fill:#4685FA;" d="M1073.047,338.324v112.269c0,54.734-44.373,99.1-99.107,99.1
						c-54.74,0-99.107-44.366-99.107-99.1V338.324c14.939-3.295,33.323-11.525,52.095-23.8c0,0,20.254,15.633,47.011,15.902
						c29.678,0.313,47.018-15.902,47.018-15.902C1039.724,326.799,1058.108,335.028,1073.047,338.324z"/>
				</g>
				<g>
					<path style="fill:#FFFFFF;" d="M973.941,535.214c-46.958,0-85.161-38.2-85.161-85.155V349.599
						c12.282-3.807,25.887-10.165,39.487-18.47c8.736,5.178,25.417,13.151,45.564,13.353c0.307,0.003,0.621,0.005,0.93,0.005
						c21.277,0,36.879-7.687,45.248-13.12c13.466,8.189,26.925,14.461,39.091,18.232v100.46
						C1059.101,497.014,1020.898,535.214,973.941,535.214z"/>
				</g>
				<g>
					<path style="fill:#FF6E38;" d="M1008.816,387.044c-14.907,20.82-29.815,41.64-44.722,62.459
						c-10.376-9.74-20.753-19.481-31.129-29.221c-6.249,7.954-12.499,15.909-18.75,23.863c17.596,11.635,35.191,23.27,52.786,34.905
						c22.46-24.135,49.431-39.955,71.891-64.09C1030.37,408.426,1017.339,393.578,1008.816,387.044z"/>
				</g>
			</g>
			<g>
				<g>
					<path style="fill:#FFFFFF;" d="M893.189,383.98c0,0-20.66-2.768-26.539,4.769c-6.384,8.185-2.214,57.995,2.608,62.08
						c11.091,9.396,21.372,3.573,24.737,3.303c8.066-0.384,9.589-15.016,1.988-17.81c7.936-0.263,9.745-14.496,2.408-17.646
						c8.394-1.5,8.004-17.198-0.382-18.074C904.237,395.758,900.672,383.018,893.189,383.98z"/>
				</g>
				<g>
					<g>
						<path style="fill:#141855;" d="M882.967,456.66c-4.15,0-9.019-1.201-14.033-5.449c-5.237-4.436-8.995-54.671-2.679-62.768
							c5.879-7.539,25.426-5.163,26.935-4.966c3.189-0.377,6.082,1.604,7.572,5.185c1.507,3.621,1.35,8.591-1.653,11.631
							c3.862,0.996,5.737,5.064,5.877,8.92c0.139,3.812-1.466,8.201-5.258,9.616c3.386,2.219,4.262,6.841,3.57,10.516
							c-0.706,3.744-2.867,6.421-5.698,7.228c3.269,2.117,4.241,6.563,3.685,10.189c-0.707,4.604-3.56,7.694-7.267,7.87
							c-0.57,0.046-1.462,0.298-2.494,0.589C889.396,455.822,886.432,456.66,882.967,456.66z M884.771,383.992
							c-6.328,0-14.468,0.887-17.727,5.065c-5.882,7.543-2.341,57.257,2.538,61.391c8.792,7.448,17.17,5.081,21.672,3.81
							c1.127-0.318,2.018-0.57,2.702-0.625c3.918-0.187,5.863-3.9,6.343-7.024c0.572-3.724-0.588-8.385-4.486-9.818
							c-0.225-0.082-0.359-0.313-0.321-0.549c0.038-0.236,0.238-0.412,0.477-0.42c3.783-0.126,5.785-3.667,6.349-6.663
							c0.693-3.678-0.301-8.383-4.122-10.023c-0.203-0.087-0.325-0.297-0.299-0.517c0.025-0.219,0.191-0.396,0.409-0.435
							c4.103-0.733,5.823-5.146,5.685-8.935c-0.137-3.758-2.055-7.735-6.03-8.15c-0.203-0.021-0.373-0.164-0.429-0.359
							c-0.056-0.196,0.013-0.407,0.174-0.532c3.364-2.617,3.622-7.596,2.137-11.162c-1.34-3.22-3.806-4.929-6.587-4.569
							c-0.043,0.005-0.087,0.005-0.13,0C893.036,384.464,889.385,383.992,884.771,383.992z"/>
					</g>
				</g>
				<g>
					<path style="fill:#141855;" d="M898.009,401.103c0,0-0.001,0-0.001,0l-24.795-0.069c-0.276-0.001-0.5-0.225-0.499-0.501
						c0.001-0.275,0.225-0.499,0.5-0.499c0,0,0.001,0,0.001,0l24.795,0.069c0.276,0.001,0.5,0.225,0.499,0.501
						C898.508,400.879,898.285,401.103,898.009,401.103z"/>
				</g>
				<g>
					<path style="fill:#141855;" d="M872.728,420.161c-0.267,0-0.489-0.211-0.499-0.481c-0.011-0.276,0.205-0.508,0.48-0.519
						l25.663-0.985c0.264-0.014,0.508,0.204,0.519,0.48c0.011,0.276-0.205,0.508-0.48,0.518l-25.663,0.985
						C872.741,420.161,872.735,420.161,872.728,420.161z"/>
				</g>
				<g>
					<path style="fill:#141855;" d="M872.798,437.107c-0.273,0-0.497-0.22-0.5-0.494c-0.003-0.276,0.218-0.503,0.494-0.506
						l23.186-0.285c0.002,0,0.004,0,0.006,0c0.273,0,0.497,0.22,0.5,0.494c0.003,0.276-0.218,0.503-0.494,0.506l-23.185,0.285
						C872.802,437.107,872.8,437.107,872.798,437.107z"/>
				</g>
			</g>
			<g>
				<g>
					<g>
						<path style="fill:#FFFFFF;" d="M1027.848,527.03c-0.767-2.709,0.304-5.106,2.29-6.846l-0.457,0.129
							c-3.75,1.062-9.733-1.32-10.795-5.071c-0.767-2.709,2.255-5.279,4.241-7.018l-1.539,0.436
							c-3.75,1.062-7.652-1.118-8.714-4.868c-1.062-3.751,1.118-7.652,4.868-8.714l3.103-0.878c-3.286,0.26-6.408-1.818-7.341-5.112
							c-1.062-3.751,1.118-7.652,4.868-8.714c15.949-3.702,36.15-5.847,41.987-13.254l-12.356-3.746
							c-10.966-3.347-13.249-16.768-2.826-16.316c0,0,19.085,2.126,31.021,5.252c3.936,1.031,18.994,6.965,18.994,6.965
							l13.588,41.734c-24.24,22.158-48.513,29.886-70.112,30.551C1034.917,532.623,1028.91,530.781,1027.848,527.03z"/>
					</g>
					<g>
						<g>
							<path style="fill:#141855;" d="M1036.325,532.364c-3.771,0.001-8.043-1.967-8.958-5.198l0,0
								c-0.621-2.19-0.165-4.326,1.281-6.148c-1.717,0.188-3.721-0.154-5.576-0.979c-2.434-1.081-4.135-2.78-4.668-4.66
								c-0.652-2.304,1.067-4.442,2.819-6.115c-1.79,0.383-3.633,0.104-5.245-0.797c-1.763-0.984-3.036-2.597-3.586-4.54
								c-0.55-1.941-0.311-3.982,0.674-5.745c0.985-1.763,2.597-3.036,4.539-3.586l0.602-0.17c-2.45-0.708-4.459-2.638-5.185-5.202
								c-0.55-1.943-0.311-3.983,0.674-5.746c0.985-1.763,2.597-3.036,4.539-3.585c3.674-0.854,7.607-1.631,11.411-2.384
								c12.309-2.434,25.022-4.949,29.834-10.133l-11.624-3.524c-7.016-2.142-10.552-8.168-9.805-12.523
								c0.542-3.158,3.216-4.934,7.146-4.771c0.225,0.024,19.292,2.168,31.125,5.268c3.92,1.027,18.435,6.742,19.051,6.984
								c0.139,0.055,0.246,0.169,0.292,0.311l13.588,41.733c0.061,0.188,0.007,0.392-0.138,0.524
								c-21.403,19.564-45.079,29.887-70.374,30.681C1037.992,532.266,1037.17,532.364,1036.325,532.364z M1030.138,519.685
								c0.18,0,0.35,0.098,0.439,0.262c0.111,0.205,0.066,0.46-0.11,0.614c-2.032,1.779-2.791,4.028-2.138,6.334l0,0
								c0.955,3.373,6.556,5.22,10.203,4.186c0.04-0.011,0.08-0.017,0.121-0.018c24.978-0.769,48.376-10.93,69.552-30.204
								l-13.416-41.203c-1.87-0.734-15.113-5.917-18.719-6.861c-11.763-3.082-30.758-5.218-30.949-5.239
								c-3.412-0.146-5.628,1.29-6.083,3.943c-0.678,3.954,2.821,9.478,9.111,11.397l12.355,3.746
								c0.158,0.048,0.282,0.171,0.332,0.329c0.049,0.158,0.018,0.33-0.084,0.459c-4.618,5.861-17.984,8.504-30.911,11.061
								c-3.796,0.751-7.721,1.527-11.355,2.371c-1.663,0.471-3.061,1.576-3.915,3.104c-0.854,1.529-1.062,3.3-0.585,4.986
								c0.849,2.997,3.714,4.994,6.82,4.749c0.253-0.015,0.486,0.157,0.532,0.41s-0.108,0.499-0.356,0.569l-3.103,0.879
								c-1.686,0.477-3.084,1.582-3.939,3.111s-1.062,3.3-0.585,4.984c0.478,1.687,1.583,3.085,3.112,3.939
								c1.529,0.854,3.299,1.061,4.985,0.584l1.539-0.436c0.226-0.065,0.464,0.038,0.576,0.243c0.111,0.205,0.066,0.461-0.11,0.614
								l-0.13,0.113c-1.841,1.611-4.625,4.046-3.96,6.394c0.452,1.594,1.95,3.059,4.111,4.018c2.056,0.914,4.381,1.184,6.067,0.706
								l0.457-0.129C1030.047,519.69,1030.093,519.685,1030.138,519.685z"/>
						</g>
					</g>
					<g>
						<path style="fill:#141855;" d="M1020.798,494.463c-0.248,0-0.463-0.184-0.496-0.437c-0.035-0.273,0.159-0.524,0.433-0.56
							c16.678-2.142,30.332-5.829,40.584-10.961c0.247-0.124,0.547-0.022,0.671,0.224c0.124,0.247,0.023,0.547-0.224,0.671
							c-10.352,5.182-24.114,8.902-40.904,11.059C1020.841,494.462,1020.819,494.463,1020.798,494.463z"/>
					</g>
					<g>
						<path style="fill:#141855;" d="M1022.949,508.922c-0.241,0-0.454-0.175-0.493-0.421c-0.044-0.272,0.142-0.529,0.414-0.573
							c16.599-2.663,30.131-6.778,40.219-12.229c0.244-0.132,0.546-0.041,0.678,0.202c0.131,0.242,0.041,0.546-0.202,0.677
							c-10.188,5.506-23.826,9.657-40.537,12.339C1023.002,508.92,1022.975,508.922,1022.949,508.922z"/>
					</g>
					<g>
						<path style="fill:#141855;" d="M1030.861,520.512c-0.241,0-0.454-0.175-0.493-0.421c-0.044-0.273,0.142-0.529,0.415-0.573
							c16.602-2.664,30.133-6.778,40.219-12.229c0.244-0.133,0.547-0.041,0.678,0.202c0.131,0.242,0.041,0.546-0.202,0.677
							c-10.185,5.505-23.823,9.656-40.537,12.339C1030.914,520.51,1030.888,520.512,1030.861,520.512z"/>
					</g>
				</g>
				<path style="fill:#FF6E38;" d="M1092.862,452.985l13.166,56.338c0,0,50.422-9.665,92.736-27.107
					c42.314-17.442-35.388-54.439-35.388-54.439L1092.862,452.985z"/>
			</g>
		</g>
	</g>
	<g>
		<path style="fill:#141855;" d="M1230.051,831.212H133.137c-0.276,0-0.5-0.224-0.5-0.5c0-0.276,0.224-0.5,0.5-0.5h1096.914
			c0.276,0,0.5,0.224,0.5,0.5C1230.551,830.988,1230.327,831.212,1230.051,831.212z"/>
	</g>
	<g>
		<g>
			<g>
				<g>
					<path style="fill:#FF6E38;" d="M325.773,215.911c-4.731-7.845-7.783-16.866-8.59-26.614
						c-2.8-33.812,22.34-63.491,56.152-66.291c33.812-2.8,63.491,22.341,66.291,56.152c2.8,33.812-22.34,63.491-56.152,66.291
						c-11.753,0.973-23.003-1.436-32.802-6.406l-30.729,3.204L325.773,215.911z"/>
				</g>
			</g>
		</g>
		<g>
			<g>
				<g>
					
						<ellipse transform="matrix(0.9651 -0.2619 0.2619 0.9651 -30.9304 104.2736)" style="fill:#FFFFFF;" cx="375.674" cy="168.159" rx="23.21" ry="23.21"/>
				</g>
			</g>
			<g>
				<g>
					<path style="fill:#FFFFFF;" d="M396.898,191.614c-1.864-1.464-4.475-1.42-6.316,0.073c-4.004,3.248-9.116,5.198-14.686,5.183
						c-5.388-0.015-10.341-1.863-14.264-4.959c-1.868-1.474-4.522-1.451-6.333,0.092c-4.693,4.002-7.56,9.785-7.58,17.311
						l-0.002,0.679c-0.011,3.892,3.136,7.056,7.028,7.066l43.372,0.118c3.892,0.011,7.056-3.136,7.066-7.028l0.002-0.679
						C405.206,201.623,402.037,195.652,396.898,191.614z"/>
				</g>
			</g>
		</g>
	</g>
	<g>
		<g>
			<path style="fill:#FFCC00;" d="M1039.716,207.695c4.731-7.845,7.783-16.866,8.59-26.614c2.8-33.812-22.341-63.491-56.152-66.291
				c-33.812-2.8-63.491,22.341-66.291,56.152c-2.8,33.812,22.34,63.491,56.152,66.291c11.753,0.973,23.003-1.436,32.802-6.406
				l30.729,3.204L1039.716,207.695z"/>
		</g>
		<g>
			<path style="fill:#FFFFFF;" d="M988.51,200.921c4.467,0,7.853-1.016,10.154-3.051c2.301-2.034,3.452-4.651,3.452-7.853
				c0-2.734-0.885-5.002-2.651-6.803c-1.768-1.801-4.552-3.234-8.353-4.301l-8.704-2.601c-2.801-0.866-5.237-1.984-7.302-3.351
				c-2.068-1.366-3.652-3.067-4.752-5.102c-1.101-2.034-1.651-4.418-1.651-7.153c0-5.135,1.866-9.154,5.602-12.054
				c3.734-2.901,8.704-4.352,14.905-4.352c3.602,0,6.818,0.385,9.654,1.151c2.833,0.767,5.067,1.751,6.702,2.951
				c1.633,1.2,2.451,2.468,2.451,3.801c0,0.868-0.234,1.651-0.7,2.351c-0.468,0.7-1.068,1.251-1.801,1.651
				c-1.668-1.333-3.919-2.501-6.753-3.501c-2.835-1-5.919-1.501-9.253-1.501c-3.869,0-6.937,0.85-9.204,2.551
				c-2.268,1.701-3.401,4.019-3.401,6.953c0,2.335,0.816,4.236,2.45,5.702c1.634,1.468,4.285,2.735,7.953,3.802l6.102,1.801
				c5.268,1.467,9.42,3.602,12.455,6.402c3.034,2.801,4.552,6.67,4.552,11.605c0,5.269-1.918,9.538-5.753,12.805
				c-3.836,3.268-9.221,4.902-16.156,4.902c-4.069,0-7.62-0.45-10.654-1.351c-3.035-0.9-5.402-2.034-7.102-3.401
				c-1.701-1.366-2.551-2.717-2.551-4.052c0-1.133,0.351-2.083,1.051-2.851c0.7-0.766,1.516-1.316,2.451-1.651
				c1.533,1.468,3.701,2.918,6.502,4.351C981.007,200.205,984.442,200.921,988.51,200.921z M992.212,149.602h-7.302v-12.905
				c0.333-0.133,0.8-0.25,1.401-0.35c0.6-0.1,1.233-0.15,1.901-0.15c1.333,0,2.333,0.285,3.001,0.85c0.666,0.568,1,1.385,1,2.451
				V149.602z M984.909,203.922h7.302v11.404c-0.267,0.066-0.685,0.166-1.25,0.3c-0.568,0.133-1.218,0.2-1.951,0.2
				c-1.268,0-2.267-0.285-3.001-0.85c-0.734-0.568-1.1-1.385-1.1-2.451V203.922z"/>
		</g>
	</g>
	<g>
		<path style="fill:#4685FA;" d="M792.007,81.882h-276.59c-11.276,0-20.417,9.141-20.417,20.417v165.164
			c0,11.276,9.141,20.417,20.417,20.417h276.59c11.276,0,20.417-9.141,20.417-20.417V102.299
			C812.424,91.023,803.283,81.882,792.007,81.882z"/>
		<path style="fill:#FFFFFF;" d="M792.007,109.921h-276.59c-11.276,0-20.417,9.141-20.417,20.417v165.164
			c0,11.276,9.141,20.417,20.417,20.417h276.59c11.276,0,20.417-9.141,20.417-20.417V130.338
			C812.424,119.062,803.283,109.921,792.007,109.921z"/>
		<g>
			<g>
				<path style="fill:#FFCC00;" d="M579.618,156.201c12.071,0,23.583,4.185,32.748,11.846l-33.285,35.002l-41.551-24.745
					c4.301-6.247,9.981-11.501,16.574-15.302C561.822,158.552,570.644,156.201,579.618,156.201z"/>
			</g>
			<g>
				<path style="fill:#FFCC00;" d="M573.404,215.968v47.58c-25.662-1.528-46.27-22.038-47.813-47.58H573.404z"/>
			</g>
			<g>
				<path style="fill:#FF6E38;" d="M558.734,207.474l-39.709,0c0.43-7.1,2.349-14.019,5.626-20.297L558.734,207.474z"/>
			</g>
			<g>
				<path style="fill:#FF6E38;" d="M619.31,177.382c8.896,9.428,13.76,21.629,13.76,34.682c0,26.955-21.223,49.069-47.91,50.657
					v-49.428L619.31,177.382z"/>
			</g>
		</g>
		<g>
			<path style="fill:#141855;" d="M792.007,316.419h-276.59c-11.534,0-20.917-9.383-20.917-20.917V130.338
				c0-11.534,9.383-20.917,20.917-20.917h276.59c11.533,0,20.917,9.383,20.917,20.917v165.164
				C812.924,307.036,803.54,316.419,792.007,316.419z M515.417,110.421c-10.982,0-19.917,8.935-19.917,19.917v165.164
				c0,10.982,8.935,19.917,19.917,19.917h276.59c10.982,0,19.917-8.935,19.917-19.917V130.338c0-10.983-8.935-19.917-19.917-19.917
				H515.417z"/>
		</g>
		<circle style="fill:#FFFFFF;" cx="756.364" cy="97.143" r="4.857"/>
		<circle style="fill:#FFFFFF;" cx="785.343" cy="97.143" r="4.857"/>
		<rect x="519.869" y="90.394" style="fill:#FFFFFF;" width="57.278" height="7.737"/>
	</g>
	<g>
		<rect x="665.661" y="226.807" style="fill:#E6E8F0;" width="30.364" height="33.125"/>
		<rect x="707.82" y="202.967" style="fill:#E6E8F0;" width="30.364" height="56.964"/>
		<rect x="749.978" y="178.124" style="fill:#E6E8F0;" width="30.364" height="81.808"/>
		<polygon style="fill:#FF6E38;" points="692.404,184.095 712.287,163.793 736.505,163.304 753.52,145.685 746.559,134.72 
			775.666,134.72 766.697,162.28 758.535,152.002 739.255,171.217 715.89,171.689 696.011,191.986 664.488,192.05 664.305,184.085 
					"/>
	</g>
	<g>
		<path style="fill:#141855;" d="M1185.004,305.897c-0.119,0-0.238-0.042-0.334-0.128c-0.206-0.184-0.223-0.5-0.038-0.706
			c13.338-14.869,20.962-34.852,20.918-54.826c-0.044-19.974-7.758-39.923-21.163-54.732c-3.632-4.013-7.216-7.063-10.826-9.201
			c-0.433,1.81-0.933,3.609-1.5,5.389c-1.281,4.021-3.245,9.118-7.088,12.865c-3.96,3.859-9.397,5.394-13.854,3.909
			c-3.174-1.058-5.69-3.725-6.902-7.317c-1.41-4.18-0.856-8.874,1.446-12.251c4.071-5.971,12.604-8.713,20.751-6.667
			c2.181,0.547,4.334,1.392,6.472,2.542c4.454-20.181,0.584-41.871-10.807-59.222c-12.649-19.266-33.891-32.147-56.821-34.459
			c-22.928-2.312-46.316,6.072-62.555,22.425c-0.195,0.196-0.511,0.197-0.708,0.002c-0.196-0.195-0.197-0.511-0.002-0.707
			c16.45-16.565,40.139-25.056,63.365-22.715c23.227,2.341,44.744,15.39,57.557,34.905c11.595,17.66,15.497,39.754,10.882,60.28
			c3.79,2.197,7.541,5.363,11.331,9.55c13.568,14.99,21.376,35.183,21.421,55.401c0.045,20.218-7.672,40.445-21.174,55.496
			C1185.278,305.841,1185.141,305.897,1185.004,305.897z M1160.981,182.559c-5.96,0-11.509,2.53-14.491,6.904
			c-2.129,3.123-2.637,7.479-1.325,11.368c1.111,3.293,3.396,5.73,6.271,6.688c4.104,1.367,9.145-0.076,12.839-3.676
			c3.686-3.592,5.588-8.542,6.833-12.453c0.589-1.85,1.105-3.719,1.548-5.602c-2.146-1.178-4.302-2.037-6.484-2.585
			C1164.441,182.769,1162.694,182.559,1160.981,182.559z"/>
	</g>
	<path style="fill:#FFC60A;" d="M1241.63,355.546c-5.458-1.791-9.72-8.139-10.923-16.266l-0.656-4.435l-0.656,4.435
		c-1.203,8.127-5.465,14.474-10.923,16.266l-2.979,0.978l2.979,0.978c5.458,1.791,9.72,8.138,10.923,16.266l0.656,4.435l0.656-4.435
		c1.203-8.127,5.465-14.474,10.923-16.266l2.979-0.978L1241.63,355.546z"/>
	<path style="fill:#FFC60A;" d="M190.125,439.802c-5.458-1.791-9.72-8.139-10.923-16.266l-0.657-4.435l-0.656,4.435
		c-1.203,8.127-5.465,14.475-10.923,16.266l-2.979,0.977l2.979,0.978c5.458,1.791,9.72,8.139,10.923,16.266l0.656,4.435l0.657-4.435
		c1.203-8.127,5.465-14.474,10.923-16.266l2.979-0.978L190.125,439.802z"/>
	<path style="fill:#FF6E38;" d="M879.888,101.573c-2.382-0.782-4.243-3.552-4.768-7.1l-0.287-1.936l-0.286,1.936
		c-0.525,3.547-2.386,6.318-4.768,7.1l-1.3,0.427l1.3,0.427c2.382,0.782,4.243,3.552,4.768,7.1l0.286,1.936l0.287-1.936
		c0.525-3.547,2.385-6.318,4.768-7.1l1.3-0.427L879.888,101.573z"/>
	<path style="fill:#4685FA;" d="M1228.751,746.995c-2.382-0.782-4.243-3.552-4.768-7.1l-0.286-1.936l-0.286,1.936
		c-0.525,3.547-2.386,6.318-4.768,7.1l-1.3,0.427l1.3,0.427c2.382,0.782,4.243,3.552,4.768,7.1l0.286,1.936l0.286-1.936
		c0.525-3.547,2.385-6.318,4.768-7.1l1.3-0.427L1228.751,746.995z"/>
	<path style="fill:#4685FA;" d="M283.467,97.705c-2.382-0.782-4.243-3.552-4.768-7.1l-0.287-1.936l-0.286,1.936
		c-0.525,3.547-2.386,6.318-4.768,7.1l-1.3,0.427l1.3,0.427c2.382,0.782,4.243,3.552,4.768,7.1l0.286,1.936l0.287-1.936
		c0.525-3.547,2.386-6.318,4.768-7.1l1.3-0.427L283.467,97.705z"/>
	<g>
		<path style="fill:#141855;" d="M594.465,878.118H468.382c-0.276,0-0.5-0.224-0.5-0.5c0-0.276,0.224-0.5,0.5-0.5h126.083
			c0.276,0,0.5,0.224,0.5,0.5C594.965,877.894,594.742,878.118,594.465,878.118z"/>
	</g>
</g>
</svg>
