<?xml version="1.0" encoding="utf-8"?>
<!-- Generator: Adobe Illustrator 27.5.0, SVG Export Plug-In . SVG Version: 6.00 Build 0)  -->
<svg version="1.1" id="Layer_1" xmlns="http://www.w3.org/2000/svg" xmlns:xlink="http://www.w3.org/1999/xlink" x="0px" y="0px"
	 viewBox="0 0 6000 4000" style="enable-background:new 0 0 6000 4000;" xml:space="preserve">
<rect style="fill:#FFFFFF;" width="6000" height="4000"/>
<g>
	<path style="fill:#E6EDFF;" d="M5001.288,2959.455H1264.129c-71.929,0-130.238-58.31-130.238-130.238v-940.001
		c0-71.929,58.309-130.238,130.238-130.238h3737.159c71.929,0,130.238,58.31,130.238,130.238v940.001
		C5131.526,2901.145,5073.217,2959.455,5001.288,2959.455z"/>
	<path style="fill:#61D14A;" d="M2205.58,959.327l-619.48,210.506c-29.696,10.091-49.669,37.972-49.669,69.336v766.857
		c0,14.281,4.125,28.182,11.963,40.119c59.04,89.916,330.623,472.171,680.747,472.171c350.119,0,621.7-382.255,680.74-472.171
		c7.838-11.938,11.963-25.839,11.963-40.119v-766.858c0-31.364-19.973-59.245-49.669-69.336l-619.473-210.505
		C2237.424,954.135,2220.858,954.135,2205.58,959.327z"/>
	<path style="fill:#FFFFFF;" d="M2065.261,1956.279c-2.183,0-4.365-0.833-6.03-2.498l-93.999-93.999
		c-3.331-3.33-3.331-8.729,0-12.06c3.33-3.331,8.729-3.331,12.06,0l87.969,87.969l415.723-415.722c3.329-3.331,8.729-3.331,12.06,0
		c3.331,3.33,3.331,8.729,0,12.06l-421.752,421.752C2069.626,1955.446,2067.444,1956.279,2065.261,1956.279z"/>
	<path style="fill:#B6CDFF;" d="M3851.499,3120.568h-652.152c-21.231,0-38.442-17.211-38.442-38.442v-22.311h729.036v22.311
		C3889.941,3103.357,3872.729,3120.568,3851.499,3120.568z"/>
	<path style="fill:#1F3A6F;" d="M4524.117,2867.622H2526.728c-49.843,0-90.394-40.55-90.394-90.394V1409.573
		c0-49.843,40.55-90.394,90.394-90.394h1997.389c49.843,0,90.393,40.55,90.393,90.394v1367.655
		C4614.51,2827.072,4573.96,2867.622,4524.117,2867.622z M2526.728,1336.235c-40.439,0-73.338,32.899-73.338,73.338v1367.655
		c0,40.439,32.899,73.339,73.338,73.339h1997.389c40.438,0,73.338-32.899,73.338-73.339V1409.573
		c0-40.438-32.899-73.338-73.338-73.338H2526.728z"/>
	<path style="fill:#1F3A6F;" d="M2540.372,2723.499V1463.305c0-22.139,17.947-40.086,40.086-40.086h1889.929
		c22.139,0,40.086,17.947,40.086,40.086v1260.194c0,22.139-17.947,40.086-40.086,40.086H2580.458
		C2558.319,2763.585,2540.372,2745.638,2540.372,2723.499z"/>
	<path style="fill:#1F3A6F;" d="M3525.423,3068.342c-4.71,0-8.527-3.817-8.527-8.527v-200.72c0-4.71,3.817-8.527,8.527-8.527
		s8.527,3.817,8.527,8.527v200.72C3533.95,3064.524,3530.133,3068.342,3525.423,3068.342z"/>
	<path style="fill:#1F3A6F;" d="M3889.94,3068.342h-729.036c-4.71,0-8.527-3.817-8.527-8.527s3.817-8.527,8.527-8.527h729.036
		c4.71,0,8.527,3.817,8.527,8.527S3894.65,3068.342,3889.94,3068.342z"/>
	<path style="fill:#6FA0FF;" d="M2117.575,3117.618H951.634c-45.928,0-83.16-37.232-83.16-83.16v-289.609
		c0-45.928,37.232-83.16,83.16-83.16h1165.941c45.928,0,83.16,37.232,83.16,83.16v289.609
		C2200.735,3080.386,2163.503,3117.618,2117.575,3117.618z"/>
	<path style="fill:#FFFFFF;" d="M1909.263,2967.982h-871.684c-20.493,0-37.164-16.672-37.164-37.164v-82.33
		c0-20.492,16.672-37.164,37.164-37.164h871.684c20.493,0,37.165,16.672,37.165,37.164v82.33
		C1946.427,2951.311,1929.755,2967.982,1909.263,2967.982z M1037.579,2828.379c-11.088,0-20.109,9.021-20.109,20.109v82.33
		c0,11.088,9.021,20.109,20.109,20.109h871.684c11.088,0,20.109-9.021,20.109-20.109v-82.33c0-11.088-9.021-20.109-20.109-20.109
		H1037.579z"/>
	<path style="fill:#FFFFFF;" d="M2060.267,2967.982c-4.709,0-8.528-3.817-8.528-8.527v-139.604c0-4.71,3.818-8.527,8.528-8.527
		s8.528,3.817,8.528,8.527v139.604C2068.795,2964.165,2064.977,2967.982,2060.267,2967.982z"/>
	
		<ellipse transform="matrix(0.7071 -0.7071 0.7071 0.7071 -1297.7437 1808.8894)" style="opacity:0.99;fill:#1F3A6F;" cx="1534.651" cy="2470.96" rx="23.197" ry="23.197"/>
	<path style="fill:#1F3A6F;" d="M1716.41,2378.318c-2.382,0.001-4.75-0.991-6.437-2.93
		c-44.088-50.668-108.007-79.728-175.369-79.728s-131.281,29.06-175.369,79.728c-3.092,3.553-8.479,3.927-12.031,0.836
		c-3.553-3.092-3.927-8.479-0.835-12.031c47.328-54.392,115.937-85.587,188.235-85.587s140.907,31.195,188.235,85.587
		c3.092,3.553,2.718,8.939-0.835,12.031C1720.389,2377.63,1718.395,2378.318,1716.41,2378.318z"/>
	<path style="fill:#1F3A6F;" d="M1866.995,2246.639c-2.379,0.001-4.745-0.989-6.432-2.924
		c-82.048-94.12-200.855-148.102-325.959-148.102c-124.964,0-243.691,53.981-325.739,148.102c-3.095,3.551-8.483,3.919-12.032,0.824
		c-3.55-3.095-3.919-8.481-0.825-12.031c41.729-47.869,92.016-85.669,149.464-112.35c59.437-27.604,123.069-41.6,189.131-41.6
		c130.034,0,253.527,56.112,338.815,153.949c3.095,3.55,2.726,8.937-0.825,12.031
		C1870.979,2245.948,1868.983,2246.639,1866.995,2246.639z"/>
	<path style="fill:#1F3A6F;" d="M2017.8,2114.519c-2.378,0.001-4.743-0.988-6.429-2.921
		c-120.16-137.71-293.935-216.691-476.767-216.691s-356.607,78.981-476.767,216.691c-3.096,3.55-8.483,3.916-12.032,0.819
		c-3.549-3.097-3.916-8.483-0.819-12.032c29.713-34.054,63.092-65.101,99.209-92.279c36.392-27.386,75.738-50.973,116.945-70.106
		c85.956-39.911,177.962-60.148,273.463-60.148s187.507,20.237,273.463,60.148c41.208,19.133,80.554,42.721,116.945,70.106
		c36.117,27.179,69.496,58.226,99.209,92.279c3.097,3.549,2.73,8.936-0.819,12.032
		C2021.787,2113.827,2019.789,2114.519,2017.8,2114.519z"/>
	<g>
		<path style="fill:#3B82F4;" d="M4804.913,3120.568H4351.9c-43.222,0-78.261-35.039-78.261-78.261V2191.88
			c0-43.222,35.039-78.261,78.261-78.261h453.012c43.223,0,78.261,35.039,78.261,78.261v850.427
			C4883.174,3085.529,4848.135,3120.568,4804.913,3120.568z"/>
		<path style="fill:#FFFFFF;" d="M4661.002,3030.426h-165.19c-4.71,0-8.527-3.817-8.527-8.527s3.817-8.527,8.527-8.527h165.19
			c4.71,0,8.527,3.817,8.527,8.527S4665.712,3030.426,4661.002,3030.426z"/>
		<path style="fill:#FFFFFF;" d="M4578.406,2772.112c-105.078,0-190.565-85.487-190.565-190.566
			c0-105.078,85.487-190.565,190.565-190.565c105.079,0,190.566,85.487,190.566,190.565
			C4768.973,2686.625,4683.485,2772.112,4578.406,2772.112z M4578.406,2408.035c-95.674,0-173.511,77.837-173.511,173.511
			c0,95.675,77.837,173.512,173.511,173.512c95.675,0,173.512-77.837,173.512-173.512
			C4751.918,2485.872,4674.081,2408.035,4578.406,2408.035z"/>
		<path style="fill:#FFFFFF;" d="M4578.406,2631.653c-4.71,0-8.527-3.817-8.527-8.527v-134.433c0-4.71,3.817-8.527,8.527-8.527
			s8.527,3.817,8.527,8.527v134.433C4586.934,2627.836,4583.116,2631.653,4578.406,2631.653z"/>
		<path style="fill:#FFFFFF;" d="M4578.406,2682.927c-4.71,0-8.527-3.817-8.527-8.527v-18.097c0-4.71,3.817-8.527,8.527-8.527
			s8.527,3.817,8.527,8.527v18.097C4586.934,2679.109,4583.116,2682.927,4578.406,2682.927z"/>
	</g>
	<g>
		<path style="fill:#FFFFFF;" d="M3195.669,2303.67c-115.95,0-210.282-94.332-210.282-210.281s94.332-210.281,210.282-210.281
			c115.949,0,210.281,94.332,210.281,210.281S3311.618,2303.67,3195.669,2303.67z M3195.669,1900.163
			c-106.546,0-193.227,86.681-193.227,193.226s86.681,193.227,193.227,193.227c106.545,0,193.227-86.682,193.227-193.227
			S3302.214,1900.163,3195.669,1900.163z"/>
		<path style="fill:#FFFFFF;" d="M3195.669,2147.999c-4.71,0-8.527-3.817-8.527-8.527v-148.992c0-4.709,3.817-8.528,8.527-8.528
			s8.527,3.818,8.527,8.528v148.992C3204.196,2144.182,3200.379,2147.999,3195.669,2147.999z"/>
		<path style="fill:#FFFFFF;" d="M3195.669,2204.826c-4.71,0-8.527-3.817-8.527-8.527v-20.057c0-4.71,3.817-8.527,8.527-8.527
			s8.527,3.817,8.527,8.527v20.057C3204.196,2201.009,3200.379,2204.826,3195.669,2204.826z"/>
		<path style="fill:#FFFFFF;" d="M3887.866,2303.694c-28.425,0-51.55-23.125-51.55-51.55v-92.261h-63.168v33.134
			c0,28.424-23.091,51.549-51.474,51.549s-51.474-23.125-51.474-51.549v-33.134H3462.71c-4.71,0-8.527-3.817-8.527-8.527
			s3.817-8.527,8.527-8.527h216.019c4.71,0,8.527,3.817,8.527,8.527v41.661c0,19.02,15.44,34.494,34.419,34.494
			s34.419-15.475,34.419-34.494v-41.661c0-4.71,3.817-8.527,8.527-8.527h80.223c4.71,0,8.527,3.817,8.527,8.527v100.788
			c0,19.021,15.475,34.495,34.495,34.495c18.979,0,34.419-15.475,34.419-34.495v-100.788c0-4.71,3.817-8.527,8.527-8.527h68.125
			c27.275,0,49.466-22.19,49.466-49.466s-22.19-49.466-49.466-49.466H3462.71c-4.71,0-8.527-3.817-8.527-8.527
			s3.817-8.527,8.527-8.527h536.228c36.68,0,66.521,29.841,66.521,66.521s-29.841,66.521-66.521,66.521h-59.598v92.261
			C3939.34,2280.569,3916.249,2303.694,3887.866,2303.694z"/>
	</g>
</g>
</svg>
