<svg width="543" height="494" viewBox="0 0 543 494" fill="none" xmlns="http://www.w3.org/2000/svg">
<path d="M231.713 372.407L220.969 468.771H345.627L329.39 372.407H231.713Z" fill="url(#paint0_linear_4106_28026)"/>
<path d="M0 137.195L0 377.685C0 397.469 15.7651 413.647 35.5421 414.157C123.381 416.422 430.598 421.914 514.215 420.682C528.586 420.47 540.229 408.969 540.643 394.602C542.255 338.733 544.874 204.387 535.184 142.015C533.143 128.88 522.056 119.058 508.77 118.633C435.172 116.279 109.502 108.802 25.9241 110.68C11.5099 111.003 0 122.777 0 137.195Z" fill="#0C8EAE"/>
<path d="M15.0898 136.025V364.508C15.0898 376.058 24.3621 385.47 35.9114 385.643L502.185 391.403C513.635 391.574 523.021 382.362 523.064 370.911L523.844 144.47C523.875 136.282 517.351 129.572 509.165 129.373L31.7876 119.729C22.632 119.506 15.0898 126.867 15.0898 136.025Z" fill="url(#paint1_linear_4106_28026)"/>
<path d="M526.576 400.727C526.572 400.727 526.569 400.727 526.565 400.727L15.0805 392.013C14.7446 392.007 14.4768 391.73 14.4825 391.394C14.4881 391.058 14.7514 390.812 15.1013 390.796L526.586 399.51C526.922 399.516 527.19 399.793 527.184 400.129C527.178 400.462 526.907 400.727 526.576 400.727Z" fill="#054150"/>
<path d="M15.0898 136.025V364.508C15.0898 376.058 24.3621 385.47 35.9114 385.643L502.185 391.403C513.635 391.574 523.021 382.362 523.064 370.911L523.844 144.47C523.875 136.282 517.351 129.572 509.165 129.373L31.7876 119.729C22.632 119.506 15.0898 126.867 15.0898 136.025Z" fill="#2BADCD"/>
<path d="M275.88 411.372C272.609 411.372 269.949 408.712 269.949 405.442C269.949 402.171 272.609 399.511 275.88 399.511C279.149 399.511 281.81 402.171 281.81 405.442C281.81 408.712 279.149 411.372 275.88 411.372ZM275.88 400.728C273.281 400.728 271.166 402.842 271.166 405.442C271.166 408.041 273.281 410.155 275.88 410.155C278.478 410.155 280.593 408.041 280.593 405.442C280.593 402.842 278.478 400.728 275.88 400.728Z" fill="#054150"/>
<path d="M372.479 488.488H190.033C185.077 488.488 181.355 484.959 182.313 481.169L184.654 471.91C185.358 469.126 188.421 467.082 192.06 466.968L367.944 461.48C371.745 461.361 375.11 463.379 375.938 466.273L380.159 481.02C381.255 484.851 377.515 488.488 372.479 488.488Z" fill="#098BAB"/>
<path d="M288.245 469.491C287.913 469.491 287.642 469.224 287.637 468.891C287.632 468.555 287.9 468.278 288.236 468.274L295.773 468.164C296.1 468.154 296.386 468.428 296.39 468.763C296.395 469.1 296.127 469.376 295.791 469.381L288.254 469.491H288.245Z" fill="#054150"/>
<path d="M189.07 483.397C189.038 483.397 189.006 483.394 188.973 483.389C188.642 483.336 188.416 483.024 188.469 482.692L189.544 475.958C190.123 472.332 193.207 469.663 196.878 469.609L276.818 468.44C277.161 468.464 277.43 468.703 277.435 469.039C277.44 469.376 277.172 469.652 276.836 469.657L196.896 470.826C193.817 470.871 191.231 473.11 190.746 476.15L189.67 482.884C189.622 483.183 189.364 483.397 189.07 483.397Z" fill="#054150"/>
<path opacity="0.5" d="M467.57 385.674L64.9923 381.035C53.2839 380.9 43.8613 371.088 43.8613 359.031V210.345C43.8613 198.054 53.6387 188.146 65.5734 188.343L468.152 194.979C479.819 195.171 489.18 204.965 489.18 216.981V363.67C489.18 375.92 479.466 385.811 467.57 385.674Z" fill="white"/>
<path opacity="0.78" d="M479.263 184.442L54.1737 180.353C48.8193 180.301 44.5156 177.108 44.5156 173.187V158.565C44.5156 154.563 48.9906 151.337 54.4546 151.399L479.543 156.244C484.888 156.305 489.178 159.495 489.178 163.409V177.277C489.178 181.272 484.717 184.495 479.263 184.442Z" fill="white"/>
<path opacity="0.78" d="M324.812 365.565L83.2153 362.197C73.2197 362.057 65.1781 353.937 65.1359 343.941L64.633 224.474C64.5902 214.317 72.8116 206.062 82.9679 206.062H325.067C335.193 206.062 343.402 214.27 343.402 224.397V347.232C343.402 357.458 335.037 365.708 324.812 365.565Z" fill="white"/>
<path opacity="0.78" d="M467.199 281.991H367.893C362.341 281.991 357.84 277.49 357.84 271.938V216.338C357.84 210.7 362.477 206.164 368.114 206.288L467.42 208.47C472.884 208.59 477.252 213.055 477.252 218.521V271.938C477.252 277.49 472.751 281.991 467.199 281.991Z" fill="white"/>
<path opacity="0.78" d="M467.622 364.434H367.462C362.146 364.434 357.836 360.124 357.836 354.808V298.131C357.836 292.815 362.146 288.505 367.462 288.505H467.622C472.938 288.505 477.248 292.815 477.248 298.131V354.808C477.248 360.124 472.938 364.434 467.622 364.434Z" fill="white"/>
<path d="M29.7054 478.06C29.7054 478.06 27.3898 481.71 26.8074 491.929C26.7532 492.881 27.5074 493.692 28.4611 493.692H46.5708C47.2995 493.692 47.8196 492.978 47.5862 492.287C46.525 489.147 43.3163 481.489 36.1568 477.113L29.7054 478.06Z" fill="url(#paint2_linear_4106_28026)"/>
<path d="M28.918 471.136L29.9423 479.725C30.0307 480.466 30.6113 481.059 31.3528 481.144C32.3433 481.259 33.783 481.339 35.182 481.108C36.4539 480.898 37.3691 479.765 37.3691 478.477V470.184L28.918 471.136Z" fill="url(#paint3_linear_4106_28026)"/>
<path d="M74.5143 477.113C74.5143 477.113 71.0482 482.501 71.1223 489.896C71.1396 491.638 72.5981 493.026 74.3402 493.026H102.466C103.783 493.026 104.318 491.333 103.24 490.577C97.9181 486.839 87.4571 479.857 79.891 477.113H74.5143Z" fill="url(#paint4_linear_4106_28026)"/>
<path d="M71.6172 467.838L73.802 478.445C74.0465 479.631 75.2069 480.429 76.3892 480.165C77.1079 480.005 77.9559 479.698 78.8618 479.131C79.7228 478.593 80.1592 477.569 79.9833 476.568L77.7235 463.718L71.6172 467.838Z" fill="url(#paint5_linear_4106_28026)"/>
<path d="M32.932 320.359C32.932 320.359 25.3353 327.056 23.9059 335.114C22.4761 343.172 27.9564 474.135 27.9564 474.135C27.9564 474.135 35.5526 475.399 39.4684 473.026C39.4684 473.026 44.1128 388.032 47.643 368.392C47.643 368.392 66.1567 456.435 71.2864 472.343C71.2864 472.343 78.6046 473.233 80.9647 471.841C80.9647 471.841 76.115 357.712 70.0213 337.422L32.932 320.359Z" fill="url(#paint6_linear_4106_28026)"/>
<path d="M47.4219 365.629C47.0556 365.629 46.7212 365.383 46.6249 365.013L43.4798 352.946L36.7799 348.649C36.3967 348.403 36.285 347.893 36.531 347.509C36.777 347.126 37.2858 347.014 37.6705 347.261L44.6418 351.733C44.8162 351.844 44.9426 352.018 44.9944 352.219L48.2207 364.597C48.336 365.037 48.0717 365.488 47.6309 365.602C47.5608 365.621 47.4913 365.629 47.4219 365.629Z" fill="#00313D"/>
<path d="M107.893 244.685C75.9146 242.031 67.5566 248.648 67.5566 248.648L82.9245 272.91C82.9245 272.91 114.347 272.289 136.862 254.935C132.648 250.397 129.722 245.382 127.845 241.477C122.039 243.89 115.353 245.305 107.893 244.685Z" fill="#098BAB"/>
<path d="M157.973 197.746C157.93 196.721 156.541 196.442 156.106 197.371L152.025 206.079C151.237 207.761 150.984 209.645 151.301 211.476L152.732 216.544C153.161 219.015 152.515 221.547 150.948 223.506C147.199 228.194 139.214 236.754 127.846 241.478C129.723 245.383 132.649 250.398 136.863 254.936C145.124 248.569 152.188 239.952 156.059 228.282C157.913 227.712 159.152 225.966 159.078 224.028L157.973 197.746Z" fill="url(#paint7_linear_4106_28026)"/>
<path d="M118.423 258.752C107.165 246.622 85.7215 241.141 73.3062 238.89C67.8671 237.903 62.5055 240.93 60.5783 246.111C54.9914 261.13 39.796 300.203 36.8508 306.919C34.4346 312.428 31.9115 317.809 30.3083 321.173C29.3505 323.183 30.1874 325.588 32.193 326.554C42.6384 331.589 61.4338 337.285 69.0535 339.508C70.7297 339.997 72.3986 338.738 72.3986 336.992C72.3986 335.512 72.8011 334.058 73.5629 332.789L102.421 284.699C120.408 304.643 136.16 306.466 148.261 302.101C146.226 295.813 144.895 289.513 144.256 283.201C126.38 280.139 118.423 258.752 118.423 258.752Z" fill="#098BAB"/>
<path d="M173.801 279.854L170.575 275.552C160.131 282.725 151.401 284.426 144.254 283.201C144.892 289.513 146.224 295.812 148.259 302.101C164.2 296.35 173.801 279.854 173.801 279.854Z" fill="url(#paint8_linear_4106_28026)"/>
<path d="M171.53 279.932L189.705 280.641L206.439 271.294C204.037 269.789 190.454 272.866 190.454 272.866C190.454 272.866 176.254 270.719 172.41 270.713C169.218 270.709 169.674 275.299 169.921 276.855C169.971 277.172 170.012 277.363 170.012 277.363L171.53 279.932Z" fill="url(#paint9_linear_4106_28026)"/>
<path d="M90.3826 216.61L80.793 240.011C80.793 240.011 91.8115 247.638 100.676 246.912L105.462 225.87L90.3826 216.61Z" fill="url(#paint10_linear_4106_28026)"/>
<path d="M106.581 200.657C106.8 200.969 113.518 225.238 113.518 225.238L99.5796 228.779L89.7949 206.723C89.7949 206.723 102.904 195.448 106.581 200.657Z" fill="url(#paint11_linear_4106_28026)"/>
<path d="M95.0445 210.074L99.2861 222.088C99.3406 222.243 99.4134 222.385 99.5075 222.519C100.083 223.337 102.27 226.005 104.864 223.601C107.217 221.42 109.397 219.465 111.411 219.11C112.315 218.95 113.191 219.502 113.436 220.387C114.045 222.592 115.328 227.587 115.78 232.096C115.871 233.011 115.239 233.838 114.336 234.01C111.614 234.527 105.841 235.457 101.022 235.117C100.369 235.071 99.7948 234.679 99.5224 234.084C98.1944 231.182 94.1255 222.377 92.612 220.099C91.1916 217.961 87.7094 218.021 86.249 218.15C85.7704 218.193 85.2996 218.038 84.938 217.722C83.6605 216.602 81.2289 213.743 84.6492 210.32C85.3651 209.604 85.3458 208.448 84.608 207.754C83.1393 206.373 81.5683 203.924 84.0155 200.886C86.5029 197.798 89.7864 198.29 91.798 199.024C92.6116 199.321 93.4988 198.977 93.941 198.232C94.1927 197.809 94.6318 197.488 95.3931 197.553C96.4191 197.642 97.2818 196.785 97.2633 195.756C97.2278 193.778 97.936 191.278 101.368 190.21C107.457 188.315 111.254 194.198 111.63 198.587C112.006 202.977 105.287 204.656 101.337 204.36C98.3331 204.135 96.1028 207.113 95.2065 208.552C94.9223 209.008 94.8656 209.567 95.0445 210.074Z" fill="url(#paint12_linear_4106_28026)"/>
<path d="M94.1994 224.457C94.1994 224.457 93.2158 216.837 90.0457 216.464C86.8757 216.09 83.7902 218.695 86.9418 222.973C90.8622 228.293 94.1994 224.457 94.1994 224.457Z" fill="url(#paint13_linear_4106_28026)"/>
<path d="M165.857 166.566L350.963 165.399C355.202 165.372 358.643 168.608 358.611 172.589L357.832 268.621C357.799 272.624 354.267 275.819 350.007 275.699L166.905 270.53C162.838 270.416 159.589 267.311 159.536 263.49L158.311 173.793C158.257 169.835 161.643 166.592 165.857 166.566Z" fill="#58C1DB"/>
<path d="M350.236 269.843L167.091 264.674C166.383 264.655 165.82 264.103 165.809 263.415L164.584 173.718C164.579 173.364 164.714 173.045 164.974 172.795C165.227 172.554 165.544 172.426 165.894 172.424L351.002 171.257C351.36 171.257 351.68 171.382 351.932 171.619C352.196 171.869 352.333 172.189 352.33 172.546L351.552 268.576C351.545 269.275 350.955 269.843 350.236 269.843ZM351.099 172.535L165.903 173.654L167.039 263.397L167.125 263.444L350.253 268.613L351.099 172.535Z" fill="#1E97B6"/>
<path d="M176.533 185.718C176.533 188.815 178.453 191.326 180.822 191.326H338.263C340.632 191.326 342.552 188.815 342.552 185.718C342.552 182.621 340.632 180.11 338.263 180.11H180.822C178.453 180.11 176.533 182.621 176.533 185.718Z" fill="#E0F9FF"/>
<path d="M177.3 197.245H243.586C245.932 197.245 247.835 199.031 247.835 201.235V252.639C247.835 254.886 245.86 256.69 243.468 256.628L178.539 254.937C176.281 254.878 174.467 253.171 174.409 251.05L173.052 201.337C172.991 199.094 174.91 197.245 177.3 197.245Z" fill="#E0F9FF"/>
<path d="M261.671 198.51H335.663C337.273 198.51 338.578 200.016 338.578 201.873C338.578 203.73 337.273 205.236 335.663 205.236H261.671C260.061 205.236 258.756 203.73 258.756 201.873C258.756 200.016 260.061 198.51 261.671 198.51Z" fill="#E0F9FF"/>
<path d="M258.756 216.273C258.756 218.127 260.058 219.63 261.665 219.63H335.668C337.275 219.63 338.578 218.127 338.578 216.273V214.198C338.578 212.312 337.231 210.796 335.597 210.842L261.595 212.918C260.016 212.962 258.756 214.451 258.756 216.273Z" fill="#E0F9FF"/>
<path d="M409.691 206.115C409.691 206.115 410.903 258.829 466.329 268.073L476.279 258.251C476.279 258.251 428.284 241.932 415.79 207.83L418.459 189.744L416.578 177.775L409.691 206.115Z" fill="url(#paint14_linear_4106_28026)"/>
<path d="M504.442 186.045L284.547 191.428C275.633 191.646 268.016 185.046 266.962 176.192L249.504 29.4979C248.316 19.5132 255.869 10.6259 265.915 10.1885L499.56 0.0166769C509.225 -0.404085 517.353 7.18949 517.59 16.8607L521.297 168.344C521.531 177.886 513.984 185.812 504.442 186.045Z" fill="url(#paint15_linear_4106_28026)"/>
<path d="M495.526 178.327L292.453 183.298C284.22 183.499 277.19 177.546 276.221 169.553L260.173 37.1323C259.081 28.1193 266.061 20.0921 275.338 19.6922L491.112 10.3909C500.037 10.0061 507.54 16.8573 507.754 25.5878L511.101 162.339C511.312 170.953 504.339 178.112 495.526 178.327Z" fill="#E0F9FF"/>
<path d="M251.27 41.0301L518.352 29.0505L518.055 17.2213C517.818 7.55004 509.681 -0.233571 500.016 0.187191L266.367 10.2639C256.321 10.7013 248.783 19.9216 249.971 29.9062L251.27 41.0301Z" fill="#098BAB"/>
<path d="M351.619 142.182L291.199 144.893C289.144 144.985 287.202 139.694 286.758 132.799L283.225 77.9036C282.738 70.3398 284.234 63.8467 286.488 63.7457L347.977 60.9875C350.131 60.8909 352.14 66.6891 352.465 73.9381L354.929 128.882C355.254 136.131 353.772 142.086 351.619 142.182Z" fill="#7ABFD0"/>
<path d="M495.148 66.0319L363.783 71.9241C361.575 72.0233 359.705 70.3136 359.606 68.1057L359.531 66.442C359.432 64.2341 361.142 62.3641 363.35 62.2649L494.714 56.3727C496.922 56.2738 498.792 57.9832 498.891 60.1911L498.966 61.8549C499.065 64.0628 497.355 65.9328 495.148 66.0319Z" fill="#7ABFD0"/>
<path d="M497.378 100.395L366.014 106.287C363.806 106.386 361.936 104.676 361.837 102.469L361.762 100.805C361.663 98.5969 363.372 96.7269 365.58 96.6277L496.945 90.7355C499.153 90.6366 501.023 92.346 501.122 94.5539L501.196 96.2177C501.296 98.4258 499.586 100.296 497.378 100.395Z" fill="#7ABFD0"/>
<path d="M433.092 51.2868L287.402 57.8215C285.194 57.9204 283.324 56.211 283.225 54.0031L283.151 52.3394C283.051 50.1315 284.761 48.2614 286.969 48.1623L432.658 41.6276C434.866 41.5287 436.736 43.2381 436.835 45.446L436.91 47.1098C437.009 49.3177 435.299 51.1879 433.092 51.2868Z" fill="#7ABFD0"/>
<path d="M495.905 82.8884L364.541 88.7806C362.333 88.8795 360.463 87.1701 360.364 84.9622L360.289 83.2984C360.19 81.0905 361.9 79.2205 364.108 79.1214L495.472 73.2292C497.68 73.1302 499.55 74.8396 499.649 77.0475L499.724 78.7113C499.823 80.9192 498.113 82.7894 495.905 82.8884Z" fill="#7ABFD0"/>
<path d="M498.319 118.182L366.955 124.075C364.747 124.174 362.877 122.464 362.778 120.256L362.703 118.592C362.604 116.384 364.314 114.514 366.522 114.415L497.886 108.523C500.094 108.424 501.964 110.134 502.063 112.342L502.138 114.005C502.237 116.213 500.527 118.083 498.319 118.182Z" fill="#7ABFD0"/>
<path d="M500.55 152.546L369.186 158.438C366.978 158.537 365.108 156.827 365.008 154.619L364.934 152.956C364.835 150.748 366.544 148.878 368.752 148.779L500.117 142.886C502.324 142.787 504.194 144.497 504.294 146.705L504.368 148.369C504.467 150.576 502.758 152.447 500.55 152.546Z" fill="#7ABFD0"/>
<path d="M499.079 135.038L367.715 140.93C365.507 141.029 363.637 139.32 363.538 137.112L363.463 135.448C363.364 133.24 365.074 131.37 367.281 131.271L498.646 125.379C500.854 125.28 502.724 126.99 502.823 129.197L502.898 130.861C502.997 133.069 501.287 134.939 499.079 135.038Z" fill="#7ABFD0"/>
<path d="M271.384 31.3013C274.089 31.3013 276.281 29.1087 276.281 26.4038C276.281 23.699 274.089 21.5063 271.384 21.5063C268.679 21.5063 266.486 23.699 266.486 26.4038C266.486 29.1087 268.679 31.3013 271.384 31.3013Z" fill="#BDD0FB"/>
<path d="M290.473 29.0051C292.298 27.0086 292.159 23.9108 290.163 22.0859C288.167 20.2609 285.069 20.4 283.244 22.3964C281.419 24.3928 281.558 27.4906 283.554 29.3156C285.551 31.1405 288.649 31.0015 290.473 29.0051Z" fill="#BDD0FB"/>
<path d="M304.573 29.8131C307.278 29.8131 309.471 27.6204 309.471 24.9156C309.471 22.2108 307.278 20.0181 304.573 20.0181C301.868 20.0181 299.676 22.2108 299.676 24.9156C299.676 27.6204 301.868 29.8131 304.573 29.8131Z" fill="#BDD0FB"/>
<path d="M463.283 386.727C463.283 386.727 489.58 444.041 503.377 467.78C503.377 467.78 506.117 482.718 503.377 487.415L501.041 488.453L511.94 488.129C511.94 488.129 512.908 468.037 512.153 466.914C511.396 465.792 509.884 465.866 509.884 465.866C509.884 465.866 505.211 428.84 491.676 420.939L478.56 375.762L463.283 386.727Z" fill="url(#paint16_linear_4106_28026)"/>
<path d="M496.383 491.267C496.367 491.53 504.893 491.41 509.525 491.326C511.236 491.294 512.694 490.092 513.058 488.421L516.556 470.044C516.889 468.297 515.78 466.601 514.047 466.205L512.094 465.759C512.094 465.759 509.309 469.58 510.185 473.177C511.062 476.774 511.843 486.092 509.627 487.178C507.411 488.264 501.037 488.454 501.037 488.454C501.037 488.454 496.529 488.901 496.383 491.267Z" fill="url(#paint17_linear_4106_28026)"/>
<path d="M438.355 491.6C437.493 492.091 437.848 493.408 438.841 493.398C446.592 493.32 463.961 493.075 465.504 492.433C467.497 491.604 464.778 484.444 461.917 482.021L446.118 487.177L438.355 491.6Z" fill="url(#paint18_linear_4106_28026)"/>
<path d="M433.453 383.071C433.453 383.071 450.447 465.28 455.254 481.316L443.882 488.452C443.882 488.452 449.581 487.483 453.806 487.177C458.032 486.87 461.919 482.02 461.919 482.02L460.557 479.847C460.557 479.847 456.296 398.087 457.333 388.803L433.453 383.071Z" fill="url(#paint19_linear_4106_28026)"/>
<path d="M391.269 191.32C391.269 191.32 388.925 234.084 427.859 255.937L418.485 277.315C418.485 277.315 383.236 255.995 384.539 197.844C384.577 196.175 383.975 194.555 382.885 193.291L375.393 184.599C372.539 181.288 371.472 176.796 372.533 172.555L373.519 168.613C373.85 167.294 375.352 166.659 376.529 167.342L377.312 167.797C379.806 169.245 381.782 171.441 382.96 174.074L386.638 182.297C388.012 185.369 391.18 187.234 394.533 186.944L396.807 186.748L391.269 191.32Z" fill="url(#paint20_linear_4106_28026)"/>
<path d="M426.501 252.733C433.015 254.539 455.082 260.344 468.858 260.107L460.4 307.838L461.073 315.623L433.495 315.5C433.495 315.5 425.732 297.47 419.607 288.481C417.838 285.885 419.155 282.789 420.157 279.812L418.78 278.895C417.378 277.961 416.77 276.208 417.293 274.607L424.009 254.061C424.358 253.025 425.448 252.441 426.501 252.733Z" fill="#098BAB"/>
<path d="M431.289 311.425L431.832 316.141C431.832 316.141 424.039 339.481 435.729 393.993C435.729 393.993 461.047 401.165 481.856 384.002C481.856 384.002 475.986 332.551 474.382 330.155C466.397 318.217 461.077 315.622 461.077 315.622L460.837 310.47C460.837 310.47 438.58 314.494 431.289 311.425Z" fill="url(#paint21_linear_4106_28026)"/>
<path d="M442.087 256.579C441.99 256.451 447.845 238.904 447.845 238.904L456.23 239.665L459.506 259.571C459.506 259.571 446.364 262.223 442.087 256.579Z" fill="url(#paint22_linear_4106_28026)"/>
<path d="M454.22 211.234C453.66 211.582 436.301 218.756 440.031 236.778C440.251 237.843 440.962 238.746 441.955 239.189C444.502 240.325 449.986 242.271 456.546 241.604C465.64 240.68 471.599 224.811 471.346 220.193C471.092 215.575 459.761 207.783 454.22 211.234Z" fill="url(#paint23_linear_4106_28026)"/>
<path d="M459.504 204.226C459.047 204.286 449.472 207.621 454.221 214.56C458.969 221.498 460.75 225.583 458.504 228.63C456.458 231.406 451.925 229.824 452.321 235.599C452.4 236.755 451.9 237.877 450.941 238.527C446.669 241.418 436.248 250.318 446.573 263.01C447.412 264.041 447.585 265.466 446.937 266.627C443.913 272.051 437.561 287.941 460.559 296.755C483.283 305.465 491.488 290.611 493.781 284.673C494.276 283.389 495.541 282.603 496.916 282.668C499.413 282.786 502.951 282.37 502.789 279.033C502.69 277.006 501.425 275.19 499.931 273.734C498.451 272.292 498.744 269.769 500.539 268.748C501.896 267.978 503.096 266.774 503.603 264.897C504.98 259.794 502.231 244.535 487.605 241.949C486.385 241.733 485.107 240.589 484.93 239.363C484.927 239.345 484.924 239.327 484.921 239.309C484.725 238.123 485.126 236.91 486.095 236.199C488.431 234.486 491.426 231.037 488.993 225.506C486.836 220.6 482.698 218.945 479.624 218.418C477.819 218.108 476.633 216.401 477.013 214.61C478.049 209.73 477.146 201.913 459.504 204.226Z" fill="url(#paint24_linear_4106_28026)"/>
<defs>
<linearGradient id="paint0_linear_4106_28026" x1="279.999" y1="367.833" x2="289.84" y2="668.971" gradientUnits="userSpaceOnUse">
<stop stop-color="#095E73"/>
<stop offset="1" stop-color="#0C8EAE"/>
</linearGradient>
<linearGradient id="paint1_linear_4106_28026" x1="301.733" y1="46.3065" x2="222.517" y2="549.149" gradientUnits="userSpaceOnUse">
<stop stop-color="#FDF53F"/>
<stop offset="1" stop-color="#D93C65"/>
</linearGradient>
<linearGradient id="paint2_linear_4106_28026" x1="43.1529" y1="479.816" x2="38.4895" y2="497.963" gradientUnits="userSpaceOnUse">
<stop stop-color="#063D4A"/>
<stop offset="1" stop-color="#07262D"/>
</linearGradient>
<linearGradient id="paint3_linear_4106_28026" x1="28.9179" y1="475.72" x2="37.3691" y2="475.72" gradientUnits="userSpaceOnUse">
<stop stop-color="#FEBBBA"/>
<stop offset="1" stop-color="#FF928E"/>
</linearGradient>
<linearGradient id="paint4_linear_4106_28026" x1="96.772" y1="479.707" x2="93.9235" y2="497.827" gradientUnits="userSpaceOnUse">
<stop stop-color="#063D4A"/>
<stop offset="1" stop-color="#07262D"/>
</linearGradient>
<linearGradient id="paint5_linear_4106_28026" x1="71.6172" y1="471.967" x2="80.0218" y2="471.967" gradientUnits="userSpaceOnUse">
<stop stop-color="#FEBBBA"/>
<stop offset="1" stop-color="#FF928E"/>
</linearGradient>
<linearGradient id="paint6_linear_4106_28026" x1="68.6196" y1="345.48" x2="-20.4136" y2="447.964" gradientUnits="userSpaceOnUse">
<stop stop-color="#063D4A"/>
<stop offset="1" stop-color="#07262D"/>
</linearGradient>
<linearGradient id="paint7_linear_4106_28026" x1="127.846" y1="225.871" x2="159.081" y2="225.871" gradientUnits="userSpaceOnUse">
<stop stop-color="#FEBBBA"/>
<stop offset="1" stop-color="#FF928E"/>
</linearGradient>
<linearGradient id="paint8_linear_4106_28026" x1="198.573" y1="232.68" x2="131.082" y2="316.646" gradientUnits="userSpaceOnUse">
<stop stop-color="#FEBBBA"/>
<stop offset="1" stop-color="#FF928E"/>
</linearGradient>
<linearGradient id="paint9_linear_4106_28026" x1="211.372" y1="242.966" x2="143.88" y2="326.931" gradientUnits="userSpaceOnUse">
<stop stop-color="#FEBBBA"/>
<stop offset="1" stop-color="#FF928E"/>
</linearGradient>
<linearGradient id="paint10_linear_4106_28026" x1="122.647" y1="181.936" x2="57.2813" y2="302.039" gradientUnits="userSpaceOnUse">
<stop stop-color="#FEBBBA"/>
<stop offset="1" stop-color="#FF928E"/>
</linearGradient>
<linearGradient id="paint11_linear_4106_28026" x1="102.045" y1="204.063" x2="100.483" y2="251.946" gradientUnits="userSpaceOnUse">
<stop stop-color="#FEBBBA"/>
<stop offset="1" stop-color="#FF928E"/>
</linearGradient>
<linearGradient id="paint12_linear_4106_28026" x1="108.668" y1="197.236" x2="89.0685" y2="241.463" gradientUnits="userSpaceOnUse">
<stop stop-color="#063D4A"/>
<stop offset="1" stop-color="#07262D"/>
</linearGradient>
<linearGradient id="paint13_linear_4106_28026" x1="84.9324" y1="253.189" x2="90.1532" y2="220.405" gradientUnits="userSpaceOnUse">
<stop stop-color="#FEBBBA"/>
<stop offset="1" stop-color="#FF928E"/>
</linearGradient>
<linearGradient id="paint14_linear_4106_28026" x1="419.215" y1="175.533" x2="450.38" y2="255.72" gradientUnits="userSpaceOnUse">
<stop stop-color="#FEBBBA"/>
<stop offset="1" stop-color="#FF928E"/>
</linearGradient>
<linearGradient id="paint15_linear_4106_28026" x1="494.317" y1="-12.8309" x2="195.161" y2="291.726" gradientUnits="userSpaceOnUse">
<stop stop-color="#39BFE1"/>
<stop offset="1" stop-color="#0C809C"/>
</linearGradient>
<linearGradient id="paint16_linear_4106_28026" x1="504.323" y1="432.107" x2="553.481" y2="432.107" gradientUnits="userSpaceOnUse">
<stop stop-color="#FEBBBA"/>
<stop offset="1" stop-color="#FF928E"/>
</linearGradient>
<linearGradient id="paint17_linear_4106_28026" x1="512.256" y1="469.943" x2="501.746" y2="495.589" gradientUnits="userSpaceOnUse">
<stop stop-color="#063D4A"/>
<stop offset="1" stop-color="#07262D"/>
</linearGradient>
<linearGradient id="paint18_linear_4106_28026" x1="460.086" y1="483.875" x2="458.392" y2="496.931" gradientUnits="userSpaceOnUse">
<stop stop-color="#063D4A"/>
<stop offset="1" stop-color="#07262D"/>
</linearGradient>
<linearGradient id="paint19_linear_4106_28026" x1="482.053" y1="435.762" x2="510.519" y2="435.762" gradientUnits="userSpaceOnUse">
<stop stop-color="#FEBBBA"/>
<stop offset="1" stop-color="#FF928E"/>
</linearGradient>
<linearGradient id="paint20_linear_4106_28026" x1="372.131" y1="222.189" x2="427.859" y2="222.189" gradientUnits="userSpaceOnUse">
<stop stop-color="#FEBBBA"/>
<stop offset="1" stop-color="#FF928E"/>
</linearGradient>
<linearGradient id="paint21_linear_4106_28026" x1="470.529" y1="324.326" x2="429.823" y2="402.262" gradientUnits="userSpaceOnUse">
<stop stop-color="#063D4A"/>
<stop offset="1" stop-color="#07262D"/>
</linearGradient>
<linearGradient id="paint22_linear_4106_28026" x1="442.086" y1="249.549" x2="459.506" y2="249.549" gradientUnits="userSpaceOnUse">
<stop stop-color="#FEBBBA"/>
<stop offset="1" stop-color="#FF928E"/>
</linearGradient>
<linearGradient id="paint23_linear_4106_28026" x1="469.769" y1="227.038" x2="596.562" y2="235.66" gradientUnits="userSpaceOnUse">
<stop stop-color="#FEBBBA"/>
<stop offset="1" stop-color="#FF928E"/>
</linearGradient>
<linearGradient id="paint24_linear_4106_28026" x1="490.61" y1="219.394" x2="445.979" y2="308.657" gradientUnits="userSpaceOnUse">
<stop stop-color="#063D4A"/>
<stop offset="1" stop-color="#07262D"/>
</linearGradient>
</defs>
</svg>
