<svg width="528" height="261" viewBox="0 0 528 261" fill="none" xmlns="http://www.w3.org/2000/svg">
<path d="M2.47157 113.816C3.02408 113.808 3.57786 113.788 4.12268 113.884C5.07226 114.049 6.12376 114.548 6.62082 115.27C7.08712 115.948 7.23231 116.609 7.00605 117.37C6.64871 118.572 5.70201 119.142 4.5111 119.773C4.41208 119.767 4.31273 119.765 4.21402 119.756C2.75135 119.615 1.47487 119.33 0.587781 118.274C0.0609111 117.645 -0.122402 116.951 0.0811034 116.2C0.410237 114.987 1.27618 114.456 2.47157 113.816Z" fill="#0694B7"/>
<path d="M522.531 126.878C522.962 126.854 523.395 126.84 523.828 126.834C525.079 126.826 526.25 127.131 527.131 127.909C527.73 128.439 528.057 129.055 527.993 129.791C527.876 131.124 526.89 131.932 525.743 132.753C525.223 132.873 524.663 133.012 524.123 133.032C523.227 133.066 522.175 132.674 521.55 132.146C520.825 131.532 520.513 130.688 520.554 129.836C520.621 128.476 521.354 127.739 522.531 126.878Z" fill="#0694B7"/>
<path d="M361.93 215C362.652 215.026 363.607 215.063 364.155 215.483C365.473 216.491 365.106 219.192 365.215 220.647C367.885 220.78 369.909 220.618 371.905 222.282C372.168 223.067 372.166 223.021 371.719 223.748C369.766 224.977 367.959 224.79 365.633 224.795C365.48 227.091 365.601 228.764 363.811 230.661C363.094 230.506 362.232 230.252 361.705 229.789C360.468 228.704 360.788 226.202 360.755 224.792C359.465 224.795 358.046 224.87 356.775 224.691C355.497 224.51 354.624 223.914 353.921 223.031C353.861 222.309 353.853 222.124 354.449 221.529C355.703 220.274 358.567 220.461 360.309 220.465C360.445 218.415 360.378 216.7 361.93 215Z" fill="#3DC3E4"/>
<path d="M139.435 215.962C140.517 215.922 141.764 215.827 142.584 216.552C143.824 217.647 143.252 220.735 143.2 222.182C144.809 222.052 146.931 221.696 148.482 222.188C149.48 222.505 150.198 222.931 150.666 223.749C150.595 224.433 150.586 224.632 149.99 225.161C148.363 226.605 145.709 226.386 143.563 226.387C143.52 228.45 143.871 230.265 142.096 231.869C141.008 232.022 139.785 232.055 138.903 231.397C137.464 230.321 137.9 227.892 137.971 226.443C135.963 226.293 133.868 226.575 131.931 226.05C131.348 225.601 131.112 225.271 130.955 224.632C130.741 223.753 130.891 223.19 131.517 222.447C133.481 221.374 135.638 221.661 137.885 221.717L137.847 220.745C137.781 218.703 137.682 217.521 139.435 215.962Z" fill="#3DC3E4"/>
<path d="M459.322 104.325C460.243 104.271 461.178 104.216 462.08 104.42C464.823 105.041 462.683 107.874 463.764 109.425C464.692 110.756 467.575 110.289 469.142 110.834C469.864 111.084 470.432 111.557 470.594 112.219C470.774 112.961 470.481 113.317 470.049 113.906C468.145 114.951 465.923 114.729 463.75 114.669C463.799 116.854 464.318 118.843 462.51 120.6C461.282 120.702 459.973 120.863 458.984 120.077C457.537 118.927 458.115 116.224 458.219 114.708C456.898 114.733 454.889 114.961 453.648 114.621C452.463 114.296 451.707 113.788 451.073 112.905C451.031 112.126 450.982 111.901 451.612 111.261C453.061 109.792 456.192 110.199 458.184 110.246C458.192 108.097 457.542 106.028 459.322 104.325Z" fill="#3DC3E4"/>
<path d="M498.174 170.476C499.7 169.734 501.64 168.81 503.479 169.225C504.34 169.419 504.782 169.843 505.161 170.494C507.419 174.374 502.218 182.399 501.602 186.772L492.408 186.777L492.464 186.602C495.367 183.8 496.567 174.481 498.174 170.476Z" fill="#BFD8FE"/>
<path d="M447.437 178.851C453.05 178.568 458.787 178.734 464.411 178.755C473.757 178.826 483.103 178.813 492.448 178.717C492.527 181.345 492.533 183.973 492.468 186.602L492.412 186.777L490.898 186.824C476.427 186.586 461.891 186.748 447.416 186.858C447.363 184.189 447.37 181.52 447.437 178.851Z" fill="#FBB638"/>
<path d="M78.5495 211.179C78.5828 210.819 78.6261 210.461 78.6799 210.103C78.7338 209.745 78.7979 209.389 78.8725 209.035C78.9475 208.68 79.0324 208.327 79.128 207.976C79.2231 207.624 79.3289 207.275 79.4446 206.928C79.56 206.581 79.6859 206.236 79.8221 205.894C79.958 205.552 80.1035 205.214 80.2589 204.878C80.4144 204.542 80.5801 204.21 80.7554 203.88C80.9303 203.551 81.1146 203.226 81.3088 202.904C81.503 202.583 81.7065 202.266 81.919 201.952C82.1315 201.639 82.3533 201.331 82.5843 201.027C82.8148 200.722 83.0542 200.423 83.3025 200.129C83.5503 199.835 83.8066 199.546 84.0717 199.263C84.3367 198.979 84.6098 198.701 84.8912 198.429C85.1722 198.157 85.461 197.89 85.758 197.629C86.0548 197.369 86.3593 197.115 86.6708 196.867C86.9823 196.619 87.3008 196.377 87.6268 196.142C93.6938 191.732 103.432 189.929 111.254 189.772C108.805 197.493 106 204.851 97.2793 209.144C91.6014 211.94 84.978 212.083 78.5716 212.093C75.1799 216.332 72.436 221.19 69.9805 225.857L69.2773 225.753C71.323 220.751 74.6784 215.331 78.5495 211.179Z" fill="url(#paint0_linear_10729_13109)"/>
<path d="M12.291 182.334C21.8227 181.889 33.2947 184.058 40.5568 189.519C46.1822 193.749 49.0348 199.5 49.3793 205.773C49.5123 208.202 49.4225 210.716 48.9165 213.114C50.7134 215.701 55.0825 223.138 56.0622 225.868L54.9092 225.746C52.6616 221.526 50.7192 216.993 48.0496 212.961C36.9776 211.421 28.1692 210.675 20.9764 202.239C16.024 196.43 13.1656 189.395 12.291 182.334Z" fill="url(#paint1_linear_10729_13109)"/>
<path d="M93.0044 157.589L93.9217 157.325C95.9557 158.62 96.9249 165.003 97.2694 167.135C98.5292 174.94 98.0068 183.132 92.1151 189.605C87.2089 194.996 80.19 197.394 72.7876 199.583C72.0482 204.953 70.9416 210.285 70.1362 215.649C69.6437 218.934 69.6068 222.571 68.6444 225.769L68.0169 225.637L67.8333 224.797L71.813 198.992C68.7563 196.281 66.8972 192.229 64.4766 189.066C68.08 183.535 73.4071 178.382 74.5977 171.93C75.0063 169.714 74.7832 167.321 74.9226 165.079C80.5672 161.747 86.4836 159.44 93.0044 157.589Z" fill="#4C9099"/>
<path d="M74.9226 165.078C80.5676 161.747 86.484 159.44 93.0048 157.589C93.065 157.825 93.2012 158.058 93.1839 158.299C93.1096 159.319 88.3761 165.627 87.3585 167.154C83.2506 173.322 79.7667 179.994 76.9304 186.641C76.1199 188.541 73.0302 197.643 72.3488 198.543C72.1498 198.806 72.0729 198.83 71.813 198.992C68.7563 196.28 66.8972 192.228 64.4766 189.065C68.08 183.535 73.4071 178.381 74.5977 171.929C75.006 169.713 74.7829 167.32 74.9226 165.078Z" fill="#0C7477"/>
<path d="M56.7774 193.561C52.5281 192.122 48.3802 190.455 44.6809 188.16C37.4063 183.647 33.2637 176.257 32.0299 168.87C30.0823 157.209 33.3506 148.439 40.3774 138.531C42.034 136.196 43.6534 133.734 45.6288 131.576C46.2358 130.913 46.6915 130.303 47.6959 130.19C48.0456 130.803 48.2757 131.332 48.4257 132.003C49.4643 136.643 49.8044 141.515 50.5581 146.208L55.6355 177.872C56.205 181.607 58.3243 189.82 57.9923 192.967C57.4904 193.354 57.3901 193.402 56.7774 193.561Z" fill="#0C7477"/>
<path d="M47.6895 130.189C48.4218 130.505 49.1441 130.835 49.8575 131.18C50.5706 131.525 51.2734 131.885 51.9659 132.258C52.6582 132.631 53.3392 133.019 54.0093 133.42C54.6795 133.821 55.3374 134.236 55.9835 134.664C56.6296 135.092 57.2625 135.533 57.8827 135.987C58.5031 136.441 59.1104 136.907 59.7043 137.386C60.2978 137.865 60.8769 138.355 61.4419 138.857C62.0072 139.359 62.5575 139.873 63.0927 140.397C63.6282 140.922 64.1484 141.457 64.6531 142.003C65.1579 142.548 65.6463 143.104 66.1184 143.67C66.5908 144.235 67.0465 144.81 67.4855 145.394C67.9246 145.978 68.3467 146.571 68.7518 147.172C69.1565 147.774 69.5437 148.383 69.9132 149C70.283 149.617 70.6346 150.241 70.9682 150.873C71.3018 151.504 71.6168 152.142 71.9133 152.786C72.2101 153.43 72.4882 154.08 72.7472 154.736C74.0381 158.049 74.8383 161.587 74.9114 165.078C74.7717 167.32 74.9947 169.713 74.5864 171.929C73.3958 178.381 68.0688 183.534 64.4653 189.065C66.8859 192.228 68.745 196.28 71.8018 198.991L67.822 224.796L67.6041 225.945C65.9617 225.994 64.032 226.253 62.5107 225.669L62.2107 224.801L61.989 225.678L61.5134 225.931C61.2509 225.612 61.1593 225.508 61.0836 225.115C59.7636 214.668 59.3674 204.244 57.2984 193.85L56.7722 193.56C57.385 193.401 57.4853 193.353 57.9868 192.965C58.3192 189.819 56.1995 181.606 55.63 177.87L50.5526 146.207C49.7989 141.514 49.4588 136.642 48.4201 132.002C48.2692 131.331 48.0391 130.803 47.6895 130.189Z" fill="#4C9099"/>
<path d="M64.4677 189.065C66.8883 192.228 68.7474 196.28 71.8041 198.992L67.8244 224.797L67.6065 225.945C65.964 225.994 64.0344 226.253 62.5131 225.669L62.2131 224.801C61.6237 214.568 60.2027 204.248 58.7285 194.081C60.9789 192.61 62.7275 190.951 64.4677 189.065Z" fill="#FEFEFE"/>
<path d="M62.2132 224.802L62.5131 225.67C64.0348 226.254 65.9641 225.995 67.6065 225.947L67.8245 224.798L68.0081 225.637L68.6356 225.77L69.2801 225.754L69.9832 225.858C72.8022 226.724 77.1245 225.977 80.2271 226.221C84.2981 228.258 86.4072 232.199 87.5382 235.924C89.3611 241.923 89.0935 248.356 85.9262 253.984C83.2915 257.124 80.2062 259.326 75.5743 260.078C72.7419 260.538 69.7038 260.443 66.8255 260.48C60.3313 260.562 53.9249 260.943 48.3357 257.658C47.0352 256.893 45.9273 255.905 44.9918 254.834L44.7306 254.72C40.9214 249.833 38.7982 244.741 38.6171 238.865C38.4697 234.08 39.4789 229.557 43.5737 225.972C47.3188 225.677 51.1415 226.004 54.912 225.747L56.0651 225.87C57.6428 225.917 59.2144 226.046 60.7566 225.717L61.0857 225.117C61.1613 225.51 61.253 225.614 61.5155 225.932L61.9911 225.68L62.2132 224.802Z" fill="#0694B7"/>
<path d="M237.788 222.3C261.59 222.369 285.402 222.146 309.203 222.379C309.203 224.439 309.251 226.498 309.349 228.557C310.832 232.709 313.547 236.025 318.167 238.141C320.419 239.173 322.76 239.708 325.22 240.262C329.558 240.344 345.462 239.255 348.06 241.488C348.537 241.897 348.836 242.38 349.12 242.893C349.248 243.824 349.36 244.742 349.4 245.679C356.402 245.319 363.438 245.513 370.449 245.55C373.739 245.567 377.332 245.305 380.579 245.695C381.571 245.814 382.684 246.072 383.468 246.622C383.966 246.972 384.12 247.365 384.331 247.858C384.275 249.158 383.735 249.993 382.58 250.87C381.074 252.015 379.074 252.561 377.08 252.722C374.788 252.908 372.297 252.704 369.99 252.68C365.953 252.636 361.911 252.674 357.873 252.682L311.969 252.732L169.12 252.816C167.705 252.151 166.084 251.408 165.728 249.941C165.49 248.961 165.877 248.03 166.608 247.262C167.223 246.617 168.095 246.155 168.899 245.692C173.509 245.462 196.765 246.196 199.043 245.4C198.942 244.084 198.851 242.659 200.016 241.625C202.469 239.449 214.234 240.434 217.984 240.446C222.592 240.265 227.083 239.854 231.042 237.672C234.726 235.642 236.924 232.108 237.867 228.573L237.788 222.3Z" fill="#E6E7E7"/>
<path d="M325.216 240.262C329.554 240.344 345.458 239.255 348.056 241.487C348.533 241.897 348.832 242.379 349.116 242.892C349.071 243.964 349.329 245.239 348.45 246.038C344.488 246.821 336.322 246.349 332.008 246.366L291.756 246.427L232.033 246.458C221.796 246.468 211.139 246.984 200.946 246.34C200.317 246.011 199.697 245.688 199.04 245.4C198.938 244.083 198.847 242.659 200.012 241.625C202.466 239.448 214.23 240.433 217.981 240.446C224.229 240.861 230.839 240.511 237.129 240.508L274.777 240.485L307.472 240.474C313.278 240.471 319.455 240.792 325.216 240.262Z" fill="#1A2C34"/>
<path d="M237.786 222.3C261.589 222.369 285.4 222.146 309.201 222.379C309.201 224.439 309.249 226.498 309.347 228.557C310.831 232.709 313.545 236.025 318.165 238.141C320.417 239.173 322.758 239.708 325.219 240.262C319.457 240.793 313.28 240.472 307.474 240.475L274.779 240.486L237.131 240.509C230.84 240.512 224.231 240.862 217.982 240.447C222.59 240.265 227.081 239.854 231.041 237.673C234.725 235.642 236.922 232.108 237.865 228.573L237.786 222.3Z" fill="#ADADAC"/>
<path d="M237.789 222.3C261.591 222.369 285.403 222.146 309.204 222.379C309.204 224.439 309.252 226.498 309.35 228.557C308.244 227.983 306.682 228.041 305.425 228.022C299.831 227.942 239.356 227.709 238.42 228.125C238.194 228.225 238.052 228.423 237.868 228.573L237.789 222.3Z" fill="#E6E7E7"/>
<path d="M492.406 186.777L501.601 186.772C504.665 186.784 507.736 186.762 510.799 186.814C510.958 190.229 511.037 193.626 510.898 197.043L505.789 197.104C505.405 207.94 504.829 218.793 504.741 229.633L504.677 243.411C504.664 246.323 504.847 249.358 504.322 252.242C504.114 253.387 503.609 254.183 502.607 254.979C501.334 255.99 499.478 256.692 497.728 256.795C496.901 256.901 496.07 256.941 495.234 256.962C486.575 257.176 477.85 256.992 469.184 257.004C464.271 257.012 455.946 257.557 451.331 256.695C449.918 256.431 448.17 255.527 447.187 254.65C446.224 253.792 445.872 251.443 445.737 250.286C445.113 244.947 445.495 239.295 445.333 233.909C444.867 221.623 444.545 209.334 444.366 197.043C443.052 197.083 441.732 196.966 440.422 196.886C440.403 193.518 440.539 190.139 440.619 186.771C442.882 186.844 445.146 186.873 447.41 186.858C461.885 186.748 476.421 186.586 490.892 186.824L492.406 186.777Z" fill="#0694B7"/>
<path d="M418.493 168.602C419.144 171.948 419.126 190.612 418.344 193.909C418.26 194.247 418.156 194.58 418.031 194.909C417.906 195.237 417.761 195.56 417.597 195.876C417.432 196.192 417.248 196.499 417.045 196.799C416.842 197.099 416.621 197.39 416.382 197.67C414.858 199.477 412.379 201.199 409.705 201.583C404.893 202.274 399.533 201.957 394.653 201.954L370.026 201.925L329.837 201.91C323.001 201.902 316.017 202.131 309.197 201.821L309.244 203.857C310.239 209.61 309.192 216.489 309.205 222.379C285.404 222.146 261.593 222.369 237.79 222.3L237.819 206.215C237.632 204.819 237.723 203.356 237.712 201.949L170.036 201.793L151.375 201.821C147.378 201.831 143.204 202.047 139.246 201.569C138.932 201.529 138.62 201.478 138.311 201.417C138.001 201.356 137.695 201.285 137.392 201.203C137.089 201.122 136.791 201.03 136.497 200.929C136.203 200.827 135.914 200.716 135.631 200.595C135.347 200.475 135.07 200.345 134.799 200.205C134.528 200.066 134.264 199.918 134.007 199.761C133.75 199.604 133.5 199.439 133.259 199.265C133.018 199.091 132.785 198.91 132.561 198.721C131.142 197.522 130.331 196.045 129.889 194.408C128.632 189.744 129.625 176.994 129.754 171.536L153.93 171.559C158.588 171.568 163.496 171.796 168.116 171.379C171.512 171.562 175.067 171.384 178.479 171.376L199.474 171.336L263.478 171.214L409.627 171.036C412.38 171.022 415.304 171.672 417.914 170.846C418.649 170.085 418.462 169.563 418.493 168.602Z" fill="#E6E7E7"/>
<path d="M273.861 180.108C275.435 180.197 276.76 180.329 278.13 181.033C278.366 181.153 278.595 181.282 278.816 181.421C279.037 181.56 279.249 181.708 279.452 181.866C279.655 182.023 279.848 182.188 280.031 182.362C280.214 182.535 280.386 182.716 280.547 182.905C280.709 183.093 280.858 183.288 280.995 183.489C281.132 183.691 281.257 183.897 281.37 184.109C281.482 184.32 281.581 184.536 281.667 184.756C281.753 184.977 281.826 185.2 281.885 185.426C281.941 185.627 281.984 185.828 282.016 186.032C282.048 186.236 282.068 186.44 282.075 186.646C282.083 186.851 282.079 187.056 282.062 187.261C282.046 187.465 282.017 187.669 281.976 187.872C281.936 188.074 281.883 188.275 281.819 188.473C281.755 188.671 281.679 188.866 281.592 189.058C281.504 189.25 281.406 189.438 281.296 189.621C281.187 189.805 281.067 189.984 280.936 190.158C279.449 192.116 277.309 192.823 274.709 193.272C273.211 193.104 271.83 192.781 270.532 192.11C268.65 191.137 267.254 189.582 266.81 187.752C266.758 187.537 266.72 187.319 266.695 187.101C266.671 186.882 266.66 186.663 266.662 186.444C266.665 186.224 266.681 186.005 266.71 185.787C266.739 185.568 266.782 185.352 266.839 185.138C266.895 184.923 266.964 184.711 267.047 184.503C267.129 184.294 267.224 184.09 267.332 183.89C267.44 183.689 267.559 183.494 267.692 183.305C267.823 183.115 267.966 182.931 268.121 182.754C269.608 181.049 271.444 180.398 273.861 180.108Z" fill="#010101"/>
<path d="M271.74 182.45C272.997 182.37 274.776 182.05 275.895 182.58C276.403 183.431 276.191 183.902 276.074 184.835C275.056 185.037 273.646 184.919 272.783 184.377C271.826 183.776 271.902 183.348 271.74 182.45Z" fill="#1A2C34"/>
<path d="M238.03 201.92C261.742 201.852 285.486 201.577 309.196 201.82L309.243 203.857C310.238 209.61 309.191 216.489 309.204 222.378C285.403 222.146 261.592 222.369 237.789 222.3L237.818 206.214L237.987 206.268L238.03 201.92Z" fill="#ADADAC"/>
<path d="M238.028 201.92C261.74 201.852 285.485 201.577 309.194 201.82L309.242 203.857C309.171 205.263 309.115 206.658 309.147 208.065C301.095 208.039 240.414 208.301 238.569 207.736C238.008 207.165 238.098 206.978 237.986 206.268L238.028 201.92Z" fill="#8E8E8E"/>
<path d="M129.564 100.888C106.713 101.125 83.8597 101.205 61.0059 101.126L39.4786 101.109C35.5652 101.104 31.5611 101.235 27.6573 101.019C25.9703 100.927 23.5613 100.781 22.0899 100.092C20.4715 99.3337 18.8432 97.4324 18.3804 95.9382C17.2933 92.426 18.0429 76.0109 18.0166 71.1002C17.8968 56.7867 17.8779 42.473 17.9596 28.1593C17.975 21.2685 17.5693 14.1959 18.0205 7.32798C18.1077 5.99591 18.3458 4.92385 19.1704 3.76548C20.1937 2.32774 22.5136 0.634551 24.5064 0.325599C28.2502 -0.254662 32.8312 0.19331 36.6654 0.191696L65.2577 0.161844L129.842 0.110762C140.148 0.117216 150.548 -0.165392 160.842 0.148132C162.551 0.200296 166.444 0.324525 167.704 1.24036C169.174 2.30919 169.816 4.43582 170.069 5.98139C170.574 9.06984 170.238 12.524 170.233 15.6522C170.222 22.2924 170.122 28.9756 170.53 35.6083C187.335 35.1598 204.219 35.508 221.031 35.5368C229.252 35.5507 240.697 34.9207 248.6 35.6782L150.076 36.0708C146.453 36.1727 142.727 36.1444 139.128 36.4596C135.609 37.6126 132.296 39.6386 130.682 42.5956C129.969 43.9 129.71 45.3447 129.58 46.765C129.025 52.8335 129.447 59.168 129.448 65.2736L129.564 100.888Z" fill="#A5EDFF"/>
<path d="M39.2415 14.3477C39.869 14.3791 40.5206 14.4501 41.125 14.5983C43.1648 15.0995 44.1462 16.509 45.1281 17.9612C45.2204 19.5644 45.3284 21.1484 44.5897 22.6649C43.7337 24.4194 42.0765 25.172 40.0959 25.9004C39.0034 25.823 37.8497 25.702 36.8434 25.3169C35.3406 24.7426 34.1699 23.6141 33.6126 22.3167C32.9579 20.7932 33.1319 19.0075 34.0129 17.574C35.1698 15.691 36.9318 14.9709 39.2415 14.3477Z" fill="#0694B7"/>
<path d="M37.9824 27.6707C39.0362 27.6339 40.1691 27.6317 41.1808 27.9116C42.89 28.3846 44.3247 29.6954 45.0244 31.0571C45.7807 32.53 45.8804 34.3214 45.1051 35.803C44.2921 37.3574 42.8175 38.1789 40.9773 38.7505C39.7396 38.8406 38.4564 38.9089 37.2832 38.4983C35.7259 37.9533 34.4616 36.8328 33.8172 35.5333C33.0708 34.0294 33.0519 32.2472 33.8152 30.7463C34.6658 29.0722 36.0503 28.3432 37.9824 27.6707Z" fill="#0694B7"/>
<path d="M56.6276 29.5477C64.105 29.339 71.6588 29.5124 79.1439 29.5038C83.7223 29.499 88.7474 29.1075 93.2624 29.6297C94.4581 29.7679 95.5583 30.1107 96.4524 30.8152C97.1129 31.3358 97.4575 32.0376 97.4706 32.7942C97.4953 34.2352 96.3861 35.1561 95.2612 36.1182C90.0499 36.7875 84.1117 36.3406 78.8157 36.3379C72.1219 36.3341 65.1854 36.6248 58.5236 36.226C57.4423 36.161 56.1036 36.1502 55.4126 35.3258C54.5832 34.3366 54.4413 32.8571 54.6707 31.6934C54.8887 30.5866 55.62 30.1567 56.6276 29.5477Z" fill="#0694B7"/>
<path d="M56.9155 16.0294C57.8657 15.9993 58.816 15.978 59.7668 15.9654C67.0504 15.8955 74.3423 15.9436 81.6262 15.9441C85.7043 15.9441 90.2134 15.6306 94.2294 16.134C95.2286 16.2593 96.1311 16.4741 96.8057 17.1557C97.5886 17.9471 97.7418 19.0484 97.5912 20.0366C97.3784 21.4308 96.5202 22.1565 95.2299 22.9554C94.7524 22.9799 94.2749 22.996 93.797 23.0038C86.0985 23.1221 78.38 23.046 70.6792 23.0576C66.2261 23.064 61.417 23.402 57.0235 22.871C56.1572 22.7664 55.6595 22.6118 55.0093 22.0912C54.6648 21.5308 54.4895 21.0818 54.5238 20.4407C54.6279 18.5007 55.2368 17.3243 56.9155 16.0294Z" fill="#0694B7"/>
<path d="M36.4148 79.1286C65.2728 79.0928 94.1926 78.6976 123.042 79.3125L123.091 82.6884L36.3398 82.6478L36.4148 79.1286Z" fill="#0694B7"/>
<path d="M139.143 36.4598C131.906 35.8389 123.074 36.3393 115.709 36.3237C112.543 36.3172 108.942 36.5531 105.89 35.7738C105.311 35.0212 104.906 34.2299 104.889 33.3165C104.871 32.3028 105.429 31.3495 106.268 30.6429C107.002 30.0237 108.055 29.5609 109.082 29.4098C112.396 28.9223 118.405 29.3746 122.062 29.3746C131.402 29.3751 140.801 29.103 150.132 29.3686C150.137 31.5937 150.345 33.8542 150.092 36.0712C146.469 36.1729 142.743 36.1449 139.143 36.4598Z" fill="#0694B7"/>
<path d="M36.4443 57.7353L123.184 57.6377L123.123 61.471L71.9038 61.5175C60.0957 61.5175 48.2178 61.7318 36.4199 61.3715L36.4443 57.7353Z" fill="#0694B7"/>
<path d="M36.1712 68.3111C65.1959 68.4061 94.2827 67.9853 123.299 68.469C123.32 69.4754 123.604 71.0336 122.97 71.9008C113.561 72.1205 104.114 72.0197 94.6974 72.0815C75.1689 72.2676 55.6395 72.3528 36.1094 72.3369L36.1712 68.3111Z" fill="#0694B7"/>
<path d="M150.081 36.0711L248.606 35.6786L278.948 35.7366C284.342 35.735 289.806 35.5809 295.192 35.7745L355.187 35.7544C365.167 35.7608 376.39 35.258 386.213 35.9843C392.935 35.7635 405.178 35.2365 411.194 37.3223C412.276 37.6976 413.045 38.3376 413.896 38.9888C414.951 39.7963 415.973 40.5626 417.175 41.2144C417.61 42.4048 418.061 43.593 418.161 44.8431C418.517 49.2816 417.862 53.8995 417.832 58.3612L417.707 92.0012L417.768 161.538C417.949 163.878 418.422 166.269 418.485 168.601C418.454 169.562 418.641 170.084 417.907 170.845C415.297 171.672 412.373 171.021 409.619 171.036L263.471 171.214L199.467 171.335L178.472 171.376C175.059 171.383 171.504 171.561 168.109 171.379C163.488 171.796 158.58 171.568 153.922 171.558L129.746 171.535C129.126 148.018 129.453 124.412 129.57 100.888L129.453 65.2734C129.453 59.1678 129.03 52.8336 129.585 46.7648C129.715 45.3445 129.975 43.8998 130.687 42.5954C132.302 39.6387 135.614 37.6127 139.133 36.4594C142.732 36.1451 146.458 36.173 150.081 36.0711Z" fill="#0694B7"/>
<path d="M150.082 36.0709L248.606 35.6783L278.948 35.7364C284.342 35.7348 289.806 35.5807 295.192 35.7743C295.298 35.7998 295.403 35.8265 295.508 35.8501C299.941 36.8453 306.597 36.3409 311.312 36.3296C326.74 36.2933 342.056 35.7942 357.494 36.2602C360.874 36.3621 364.54 36.0298 367.868 36.4043C364.886 36.4 361.355 36.094 358.439 36.482C355.604 36.8595 353.193 38.5678 350.391 39.1464C344.745 40.3113 338.397 39.0292 332.971 41.3715C332.761 41.9015 332.836 41.8439 333.04 42.333C331.632 42.9133 321.253 42.5272 319.005 42.5261C312.712 42.5223 260.005 42.1746 259.242 42.6344C273.788 42.7694 288.335 42.8294 302.883 42.8151C309.736 42.8194 317.512 42.3145 324.229 43.0136C282.347 43.422 240.411 43.0354 198.524 43.0259L162.409 42.9907C156.989 42.9945 151.436 42.7434 146.038 43.0004C144.615 43.0682 142.886 43.0596 141.861 43.9641C140.436 45.2201 140.284 47.686 140.172 49.3701C139.81 54.7906 140.095 60.348 140.1 65.7803L140.134 97.1502L140.149 140.013C140.146 147.734 139.945 155.498 140.192 163.214C146.895 163.219 153.809 162.958 160.49 163.267C158.07 165.891 155.699 168.545 153.376 171.23C158.223 171.292 163.309 170.953 168.109 171.379C163.489 171.796 158.58 171.568 153.922 171.558L129.746 171.535C129.126 148.018 129.453 124.412 129.57 100.887L129.453 65.2732C129.453 59.1676 129.03 52.8334 129.585 46.7646C129.715 45.3443 129.975 43.8996 130.687 42.5952C132.302 39.6385 135.614 37.6124 139.133 36.4592C142.733 36.1448 146.458 36.1728 150.082 36.0709Z" fill="#3C4F63"/>
<path d="M295.197 35.7745L355.192 35.7544C365.172 35.7608 376.395 35.258 386.219 35.9843C392.94 35.7635 405.183 35.2365 411.199 37.3223C412.281 37.6976 413.05 38.3376 413.901 38.9888C414.956 39.7963 415.978 40.5626 417.18 41.2144C417.615 42.4048 418.066 43.593 418.166 44.8431C418.522 49.2816 417.867 53.8995 417.837 58.3611L417.713 92.0012L417.773 161.538C417.955 163.878 418.428 166.269 418.49 168.601C418.459 169.562 418.646 170.084 417.912 170.845C415.302 171.672 412.378 171.021 409.625 171.036L263.476 171.214L199.472 171.335L178.477 171.376C175.065 171.383 171.509 171.561 168.114 171.379C163.314 170.954 158.228 171.292 153.381 171.23C155.704 168.546 158.076 165.891 160.496 163.267L160.739 163.193C166.286 163.463 171.991 163.234 177.554 163.253L212.302 163.348L325.486 163.063L381.68 163.195L396.686 163.296C399.104 163.317 401.841 163.533 404.237 163.297C405.18 163.203 405.837 162.632 406.521 162.13C407.885 158.231 407.215 145.818 407.243 141.021L407.306 92.0851L407.384 63.0742C407.4 58.2143 407.626 53.2902 407.384 48.4411C407.308 46.9068 407.154 45.091 406.306 43.7129C404.038 42.521 368.574 43.1582 362.894 43.0762L361.24 43.1211C348.919 42.9178 336.56 43.0571 324.235 43.0133C317.517 42.3142 309.741 42.8191 302.888 42.8148C288.34 42.8294 273.793 42.7691 259.247 42.6341C260.01 42.1744 312.717 42.5217 319.011 42.5258C321.259 42.5269 331.638 42.913 333.046 42.3327C332.842 41.8436 332.766 41.9009 332.977 41.3712C338.402 39.0289 344.75 40.311 350.396 39.1461C353.198 38.5675 355.609 36.8592 358.445 36.4817C361.36 36.094 364.891 36.3997 367.874 36.404C364.545 36.0292 360.879 36.3618 357.499 36.2599C342.062 35.7939 326.745 36.293 311.318 36.3293C306.602 36.3406 299.946 36.845 295.514 35.8498C295.407 35.8267 295.302 35.8001 295.197 35.7745Z" fill="#1A2C34"/>
<path d="M417.771 161.539C417.953 163.879 418.426 166.27 418.489 168.602C418.458 169.563 418.645 170.085 417.91 170.846C415.3 171.673 412.377 171.022 409.623 171.037L413.515 170.602C417.392 168.087 417.042 165.233 417.771 161.539Z" fill="#8E8E8E"/>
<defs>
<linearGradient id="paint0_linear_10729_13109" x1="82.976" y1="199.23" x2="90.8205" y2="212.275" gradientUnits="userSpaceOnUse">
<stop stop-color="#0E646A"/>
<stop offset="1" stop-color="#1A8884"/>
</linearGradient>
<linearGradient id="paint1_linear_10729_13109" x1="44.0526" y1="191.838" x2="33.5885" y2="210.296" gradientUnits="userSpaceOnUse">
<stop stop-color="#085F6C"/>
<stop offset="1" stop-color="#0B7477"/>
</linearGradient>
</defs>
</svg>
