<?xml version="1.0" encoding="utf-8"?>
<!-- Generator: Adobe Illustrator 27.5.0, SVG Export Plug-In . SVG Version: 6.00 Build 0)  -->
<svg version="1.1" id="Ñëîé_1" xmlns="http://www.w3.org/2000/svg" xmlns:xlink="http://www.w3.org/1999/xlink" x="0px" y="0px"
	 viewBox="0 0 3300 1600" style="enable-background:new 0 0 3300 1600;" xml:space="preserve">
<g>
	<rect style="fill:#FFFFFF;" width="3300" height="1600"/>
</g>
<g>
	<g>
		<g>
			<path style="fill:#EBF6F0;" d="M1171.859,476.066c-181.465,161.971-506.668,145.117-611.71,134.751
				c-31.688-3.129-61.435-15.423-81.409-34.706c-42.356-40.857-20.552-89.397,37.962-138.533c3.832-3.226,7.834-6.447,11.981-9.671
				c27.155-21.127,60.758-42.279,98.641-62.901c26.958-14.671,56.078-29.063,86.576-42.99
				c71.601-32.682,150.811-62.743,227.461-87.55c28.094-9.1,55.849-17.487,82.76-25.036c37.301-10.472,72.988-19.342,105.718-26.262
				c5.686-1.206,11.291-2.344,16.797-3.429c66.444-13.076,118.879-17.315,144.999-9.531
				C1436.357,213.342,1390.356,281.028,1171.859,476.066z"/>
		</g>
	</g>
	<g>
		<g>
			<path style="fill:#EBF6F0;" d="M2953.73,1023.19c-1.684,5.022-3.433,10.001-5.255,14.953
				c-70.279,191.93-232.408,336.669-425.519,386.518c-6.804,1.757-13.638,3.392-20.51,4.913
				c-28.837,6.365-58.292,10.629-88.191,12.627c-633.964,42.43-594.238-144.58-1113.317-65.538
				C-155.455,1598.409,47.857,707.33,557.316,705.859c696.445-2.017,743.611-178.123,858.094-344.518
				c2.904-4.217,5.844-8.424,8.841-12.627c8.544-11.949,17.512-23.829,27.213-35.559c0.001-0.015,0.011-0.029,0.022-0.035
				c15.542-18.814,32.916-37.263,53.247-55.063c0.001-0.015,0.01-0.014,0.021-0.021c3.872-3.387,7.817-6.731,11.915-10.071
				c4.788-3.915,9.746-7.803,14.872-11.641l0.009,0.001c16.399-12.303,34.543-24.218,54.834-35.625
				c87.777-49.357,183.638-82.158,280.825-101.325c6.686-1.319,13.378-2.578,20.083-3.768
				c180.797-32.138,364.547-17.956,507.867,23.743c6.657,1.933,13.234,3.927,19.711,5.981c18.946,6.006,37.113,12.499,54.379,19.44
				c52.428,21.069,101.143,44.545,145.998,70.441c21.18,12.224,41.499,24.995,60.938,38.304
				c115.162,78.834,199.586,176.685,250.031,293.94c32.774,76.169,51.21,151.137,57.357,223.313
				c1.753,20.425,2.511,40.629,2.326,60.57C2985.291,898.735,2973.965,963.158,2953.73,1023.19z"/>
		</g>
	</g>
	<g>
		<rect x="1561.741" y="1096.789" style="fill:#F4F5F7;" width="1070.105" height="154.864"/>
	</g>
	<g>
		<path style="fill:#34BF91;" d="M2636.984,1270.736H1555.87c-10.539,0-19.083-8.544-19.083-19.083v0
			c0-10.539,8.544-19.083,19.083-19.083h1081.114c10.539,0,19.083,8.544,19.083,19.083l0,0
			C2656.066,1262.192,2647.523,1270.736,2636.984,1270.736z"/>
	</g>
	<g>
		<path style="fill:#34BF91;" d="M2636.984,1115.872H1555.87c-10.539,0-19.083-8.544-19.083-19.083l0,0
			c0-10.539,8.544-19.083,19.083-19.083h1081.114c10.539,0,19.083,8.544,19.083,19.083l0,0
			C2656.066,1107.328,2647.523,1115.872,2636.984,1115.872z"/>
	</g>
	<g>
		<rect x="1672.103" y="1289.085" style="fill:#F4F5F7;" width="1070.105" height="154.864"/>
	</g>
	<g>
		<path style="fill:#46284C;" d="M2747.345,1463.032H1666.232c-10.539,0-19.083-8.544-19.083-19.083v0
			c0-10.539,8.544-19.083,19.083-19.083h1081.114c10.539,0,19.083,8.544,19.083,19.083l0,0
			C2766.428,1454.488,2757.885,1463.032,2747.345,1463.032z"/>
	</g>
	<g>
		<path style="fill:#46284C;" d="M2747.345,1308.168H1666.232c-10.539,0-19.083-8.544-19.083-19.083v0
			c0-10.539,8.544-19.083,19.083-19.083h1081.114c10.539,0,19.083,8.544,19.083,19.083l0,0
			C2766.428,1299.624,2757.885,1308.168,2747.345,1308.168z"/>
	</g>
	<g>
		<g>
			<rect x="2344.443" y="409.034" style="fill:#576C91;" width="25.236" height="524.063"/>
		</g>
	</g>
	<g>
		<g>
			<path style="fill:#FFCC56;" d="M2816.773,794.485c0,54.022-73.436,97.815-164.033,97.815
				c-90.596,0-164.032-43.792-164.032-97.815c0-0.121,0-0.235,0.009-0.356h328.048
				C2816.773,794.25,2816.773,794.364,2816.773,794.485z"/>
		</g>
	</g>
	<g>
		<g>
			<path style="fill:#EFA829;" d="M2512.261,793.039c-10.668,0-19.347-8.679-19.347-19.347s8.679-19.347,19.347-19.347
				c10.668,0,19.347,8.679,19.347,19.347S2522.929,793.039,2512.261,793.039z M2512.261,762.756c-6.03,0-10.936,4.906-10.936,10.935
				c0,6.03,4.906,10.935,10.936,10.935s10.935-4.906,10.935-10.935C2523.196,767.662,2518.291,762.756,2512.261,762.756z"/>
		</g>
	</g>
	<g>
		<g>
			<path style="fill:#EFA829;" d="M2777.254,802.94c-12.615,0-22.878-10.263-22.878-22.878s10.263-22.878,22.878-22.878
				c12.615,0,22.878,10.263,22.878,22.878S2789.869,802.94,2777.254,802.94z M2777.254,767.13c-7.13,0-12.931,5.801-12.931,12.931
				s5.801,12.931,12.931,12.931s12.931-5.801,12.931-12.931S2784.385,767.13,2777.254,767.13z"/>
		</g>
	</g>
	<g>
		<g>
			<path style="fill:#EA9228;" d="M2816.773,794.233c0,54.022-73.436,97.814-164.033,97.814V793.88h164.024
				C2816.773,793.998,2816.773,794.116,2816.773,794.233z"/>
		</g>
	</g>
	<g>
		<g>
			<ellipse style="fill:#2E3C5B;" cx="2652.74" cy="794.129" rx="164.033" ry="17.073"/>
		</g>
	</g>
	<g>
		<g>
			<path style="fill:#161E33;" d="M2368.417,371.601c10.927,16.395,8.547,31.68,7.268,36.844c-0.278,1.094-1.253,1.851-2.381,1.851
				h-33.992c-1.127,0-2.103-0.757-2.381-1.851c-1.279-5.165-3.659-20.449,7.268-36.844c6.864-10.296,0.892-19.272-4.147-24.336
				c-0.042-0.042-0.076-0.084-0.118-0.126c-0.816-0.976-9.968-12.34-9.337-29.551c0.042-1.312,1.136-2.347,2.448-2.347h46.526
				c1.312,0,2.406,1.035,2.448,2.347c0.631,17.211-8.521,28.575-9.337,29.551c-0.042,0.042-0.076,0.084-0.118,0.126
				C2367.525,352.329,2361.553,361.305,2368.417,371.601z"/>
		</g>
	</g>
	<g>
		<g>
			<path style="fill:#EFA829;" d="M2646.01,327.018c-10.668,0-19.347-8.679-19.347-19.348c0-10.668,8.679-19.348,19.347-19.348
				s19.347,8.679,19.347,19.348C2665.358,318.339,2656.679,327.018,2646.01,327.018z M2646.01,296.735
				c-6.03,0-10.935,4.906-10.935,10.935c0,6.03,4.905,10.936,10.935,10.936s10.936-4.906,10.936-10.936
				C2656.946,301.641,2652.041,296.735,2646.01,296.735z"/>
		</g>
	</g>
	<g>
		<g>
			<path style="fill:#EFA829;" d="M2666.199,823.322c-10.668,0-19.347-8.679-19.347-19.347s8.679-19.347,19.347-19.347
				c10.668,0,19.347,8.679,19.347,19.347S2676.867,823.322,2666.199,823.322z M2666.199,793.039c-6.03,0-10.936,4.906-10.936,10.936
				c0,6.03,4.906,10.935,10.936,10.935s10.936-4.906,10.936-10.935C2677.135,797.945,2672.229,793.039,2666.199,793.039z"/>
		</g>
	</g>
	<g>
		<g>
			
				<rect x="2350.873" y="535.297" transform="matrix(0.2774 -0.9608 0.9608 0.2774 1345.2767 2867.5645)" style="fill:#EFA829;" width="455.987" height="8.412"/>
		</g>
	</g>
	<g>
		<g>
			
				<rect x="2651.899" y="322.594" transform="matrix(0.9991 -0.0433 0.0433 0.9991 -21.5675 115.4788)" style="fill:#EFA829;" width="8.412" height="466.458"/>
		</g>
	</g>
	<g>
		<g>
			
				<rect x="2713.727" y="314.209" transform="matrix(0.962 -0.273 0.273 0.962 -44.3618 762.5443)" style="fill:#EFA829;" width="8.412" height="452.944"/>
		</g>
	</g>
	<g>
		<g>
			<path style="fill:#FFCC56;" d="M2233.826,794.485c0,54.022-73.436,97.814-164.032,97.814
				c-90.597,0-164.033-43.792-164.033-97.814c0-0.117,0-0.235,0.009-0.353h328.048
				C2233.826,794.25,2233.826,794.368,2233.826,794.485z"/>
		</g>
	</g>
	<g>
		<g>
			<path style="fill:#EA9228;" d="M2233.826,794.485c0,54.022-73.436,97.814-164.032,97.814v-98.167h164.024
				C2233.826,794.25,2233.826,794.368,2233.826,794.485z"/>
		</g>
	</g>
	<g>
		<g>
			<path style="fill:#EFA829;" d="M1929.314,793.039c-10.668,0-19.347-8.679-19.347-19.347s8.679-19.347,19.347-19.347
				s19.347,8.679,19.347,19.347S1939.983,793.039,1929.314,793.039z M1929.314,762.756c-6.03,0-10.936,4.906-10.936,10.935
				c0,6.03,4.906,10.935,10.936,10.935c6.03,0,10.935-4.906,10.935-10.935C1940.25,767.662,1935.344,762.756,1929.314,762.756z"/>
		</g>
	</g>
	<g>
		<g>
			<path style="fill:#EFA829;" d="M2203.543,793.039c-10.668,0-19.347-8.679-19.347-19.347s8.679-19.347,19.347-19.347
				s19.347,8.679,19.347,19.347S2214.211,793.039,2203.543,793.039z M2203.543,762.756c-6.03,0-10.936,4.906-10.936,10.935
				c0,6.03,4.906,10.935,10.936,10.935s10.936-4.906,10.936-10.935C2214.479,767.662,2209.573,762.756,2203.543,762.756z"/>
		</g>
	</g>
	<g>
		<g>
			<ellipse style="fill:#2E3C5B;" cx="2069.794" cy="794.129" rx="164.033" ry="17.073"/>
		</g>
	</g>
	<g>
		<g>
			<path style="fill:#EFA829;" d="M2063.064,327.018c-10.668,0-19.348-8.679-19.348-19.348c0-10.668,8.679-19.348,19.348-19.348
				c10.668,0,19.347,8.679,19.347,19.348C2082.411,318.339,2073.732,327.018,2063.064,327.018z M2063.064,296.735
				c-6.03,0-10.936,4.906-10.936,10.935c0,6.03,4.905,10.936,10.936,10.936c6.03,0,10.935-4.906,10.935-10.936
				C2074,301.641,2069.094,296.735,2063.064,296.735z"/>
		</g>
	</g>
	<g>
		<g>
			<path style="fill:#EFA829;" d="M2083.253,823.322c-10.668,0-19.347-8.679-19.347-19.347s8.679-19.347,19.347-19.347
				c10.668,0,19.347,8.679,19.347,19.347S2093.921,823.322,2083.253,823.322z M2083.253,793.039c-6.03,0-10.936,4.906-10.936,10.936
				c0,6.03,4.906,10.935,10.936,10.935s10.936-4.906,10.936-10.935C2094.188,797.945,2089.283,793.039,2083.253,793.039z"/>
		</g>
	</g>
	<g>
		<g>
			
				<rect x="1767.927" y="535.297" transform="matrix(0.2774 -0.9608 0.9608 0.2774 924.0056 2307.4844)" style="fill:#EFA829;" width="455.987" height="8.412"/>
		</g>
	</g>
	<g>
		<g>
			
				<rect x="2068.953" y="322.594" transform="matrix(0.9991 -0.0433 0.0433 0.9991 -22.1138 90.2489)" style="fill:#EFA829;" width="8.412" height="466.458"/>
		</g>
	</g>
	<g>
		<g>
			
				<rect x="2130.78" y="314.209" transform="matrix(0.962 -0.273 0.273 0.962 -66.5062 603.3978)" style="fill:#EFA829;" width="8.412" height="452.944"/>
		</g>
	</g>
	<g>
		<g>
			<path style="fill:#576C91;" d="M2369.258,289.164h-25.236c0-37.164-5.888-67.295,12.618-67.295c0.9,0,1.741,0.109,2.523,0.311
				C2371.487,225.495,2369.258,254.221,2369.258,289.164z"/>
		</g>
	</g>
	<g>
		<g>
			<rect x="2356.64" y="409.034" style="fill:#2E3C5B;" width="13.038" height="524.063"/>
		</g>
	</g>
	<g>
		<g>
			<path style="fill:#576C91;" d="M2497.118,1076.099h-0.418c0,1.954-15.622,3.718-40.942,5.012
				c-25.312,1.299-60.333,2.104-99.119,2.139h-2.104c-77.573-0.067-140.056-3.248-140.056-7.152h-0.422
				c0-4.76,1.484-9.378,4.144-13.905c11.9-20.291,47.347-38.798,78.295-60.119c29.989-20.658,37.8-68.759,39.753-87.862
				c0.462-4.559,4.29-8.032,8.873-8.032h20.93c4.586,0,8.411,3.473,8.876,8.032c1.95,19.103,9.765,67.204,39.753,87.862
				c30.498,21.009,65.361,39.288,77.758,59.235C2495.433,1066.121,2497.118,1071.031,2497.118,1076.099z"/>
		</g>
	</g>
	<g>
		<g>
			<path style="fill:#576C91;" d="M2666.62,278.523v15.461c0,3.541-2.557,6.561-6.057,7.141
				c-18.548,3.079-76.549,12.172-129.375,14.957c-63.931,3.365-110.196-0.841-144.685,0c-16.832,0.413-25.455,0.825-29.862,1.136
				c-1.624,0.118-14.813-0.572-37.854-1.136c-34.489-0.841-80.754,3.365-144.685,0c-52.827-2.784-110.827-11.878-129.375-14.957
				c-3.499-0.58-6.057-3.6-6.057-7.141v-15.461c0-6.822,5.998-12.079,12.761-11.179c36.289,4.837,140.075,18.001,180.713,15.932
				c46.93-2.389,122.587-0.092,124.497-0.152c16.572-0.496,74.403-1.993,116.505,0.152c40.638,2.069,144.424-11.095,180.713-15.932
				C2660.622,266.444,2666.62,271.702,2666.62,278.523z"/>
		</g>
	</g>
	<g>
		<g>
			<path style="fill:#161E33;" d="M2368.417,371.601c10.927,16.395,8.547,31.68,7.268,36.844c-0.278,1.094-1.253,1.851-2.381,1.851
				h-16.664v-95.055h22.931c1.312,0,2.406,1.035,2.448,2.347c0.631,17.211-8.521,28.575-9.337,29.551
				c-0.042,0.042-0.076,0.084-0.118,0.126C2367.525,352.329,2361.553,361.305,2368.417,371.601z"/>
		</g>
	</g>
	<g>
		<g>
			<path style="fill:#2E3C5B;" d="M2666.62,278.523v15.461c0,3.541-2.557,6.561-6.057,7.141
				c-18.548,3.079-76.549,12.172-129.375,14.957c-63.931,3.365-110.196-0.841-144.685,0c-16.832,0.413-25.455,0.825-29.862,1.136
				v-34.094c16.572-0.496,74.403-1.993,116.505,0.152c40.638,2.069,144.424-11.095,180.713-15.932
				C2660.622,266.444,2666.62,271.702,2666.62,278.523z"/>
		</g>
	</g>
	<g>
		<g>
			<path style="fill:#2E3C5B;" d="M2369.258,289.164h-12.618v-67.295c0.9,0,1.741,0.109,2.523,0.311
				C2371.487,225.495,2369.258,254.221,2369.258,289.164z"/>
		</g>
	</g>
	<g>
		<g>
			<path style="fill:#2E3C5B;" d="M2497.119,1076.1h-0.421c0,1.951-15.621,3.718-40.941,5.014
				c-25.312,1.295-60.33,2.103-99.118,2.137h-0.841V906.179h10.254c4.584,0,8.412,3.474,8.875,8.033
				c1.951,19.104,9.766,67.203,39.755,87.863C2452.536,1028.152,2497.119,1050.023,2497.119,1076.1z"/>
		</g>
	</g>
	<g>
		<g>
			<path style="fill:#161E33;" d="M2497.118,1076.099h-0.418c0,1.954-15.622,3.718-40.942,5.012
				c-25.312,1.299-60.333,2.104-99.119,2.139h-2.104c-77.573-0.067-140.056-3.248-140.056-7.152h-0.422
				c0-4.76,1.484-9.378,4.144-13.905c41.979,4.63,86.761,7.132,133.256,7.132c49.356,0,96.79-2.818,140.984-8.016
				C2495.433,1066.121,2497.118,1071.031,2497.118,1076.099z"/>
		</g>
	</g>
	<g>
		<path style="fill:#576C91;" d="M1373.271,1393.832H821.542c-6.6,0-12-5.4-12-12v-64.451c0-33.555,27.454-61.01,61.01-61.01h453.71
			c33.555,0,61.009,27.454,61.009,61.009v64.451C1385.271,1388.432,1379.871,1393.832,1373.271,1393.832z"/>
	</g>
	<g>
		<path style="fill:#2E3C5B;" d="M1413.06,1419.887H781.753c-6.6,0-12-5.4-12-12v-59.959c0-33.555,27.454-61.009,61.009-61.009
			h533.289c33.555,0,61.009,27.454,61.009,61.009v59.959C1425.06,1414.487,1419.66,1419.887,1413.06,1419.887z"/>
	</g>
	<g>
		<path style="fill:#161E33;" d="M1469.116,1406.229H738.69c-26.683,0-48.515,21.832-48.515,48.515v0
			c0,5.93,4.852,10.781,10.781,10.781h805.895c5.93,0,10.781-4.852,10.781-10.781v0
			C1517.632,1428.061,1495.8,1406.229,1469.116,1406.229z"/>
	</g>
	<g>
		<path style="fill:#C6CACB;" d="M400.43,572.496V1463.4h126.299c17.448-19.247,31.476-42.434,40.968-68.29
			c8.89-24.215,13.796-50.773,13.796-78.627c0-3.277-0.056-6.541-0.175-9.792c-4.379-126.969-92.806-234.223-149.367-274.044
			c-10.156-7.148-10.156-22.247,0-29.396c9.272-6.528,19.403-14.873,29.884-24.829c36.695-34.822,77.631-89.316,100.857-154.43
			c11.616-32.579,18.801-67.814,18.801-104.578c0-27.855-4.906-54.413-13.796-78.628c-9.492-25.856-23.519-49.043-40.968-68.29
			H400.43z"/>
	</g>
	<g>
		<path style="fill:#F9F9F9;" d="M400.43,572.496V1463.4H274.131c-17.449-19.247-31.476-42.434-40.968-68.29
			c-8.89-24.215-13.796-50.773-13.796-78.627c0-3.277,0.056-6.541,0.176-9.792c4.379-126.969,92.805-234.223,149.367-274.044
			c10.156-7.148,10.156-22.247,0-29.396c-9.272-6.528-19.403-14.873-29.884-24.829c-36.695-34.822-77.632-89.316-100.857-154.43
			c-11.615-32.579-18.801-67.814-18.801-104.578c0-27.855,4.906-54.413,13.796-78.628c9.492-25.856,23.519-49.043,40.968-68.29
			H400.43z"/>
	</g>
	<g>
		<path style="fill:#2E3C5B;" d="M593.397,621.333v39.533c0,7.938-6.441,14.378-14.379,14.378H233.746
			c-7.938,0-14.379-6.441-14.379-14.378v-39.533c0-7.938,6.441-14.378,14.379-14.378h345.272
			C586.956,606.955,593.397,613.395,593.397,621.333z"/>
	</g>
	<g>
		<path style="fill:#576C91;" d="M634.747,588.297v36.689c0,8.727-7.073,15.801-15.801,15.801H194.445
			c-8.727,0-15.801-7.073-15.801-15.801v-36.689c0-8.727,7.073-15.801,15.801-15.801h424.501
			C627.673,572.496,634.747,579.57,634.747,588.297z"/>
	</g>
	<g>
		<path style="fill:#FFCC56;" d="M572.722,1316.482c0,27.855-4.649,54.413-13.082,78.627H241.847
			c-8.433-24.215-13.081-50.773-13.081-78.627c0-3.277,0.05-6.541,0.169-9.792l165.857-90.375v-185.154
			c0-13.263-1.886-28.682-22.824-42.678c-0.852-0.564-1.71-1.146-2.587-1.735c-20.105-13.539-38.142-29.954-53.373-48.818
			c-22.454-27.805-43.856-62.658-57.865-101.94c36.62-8.207,86.522-9.98,141.811,14.353c0.157,0.069,0.319,0.138,0.476,0.207
			c46.763,20.449,92.711,21.489,130.547,15.657c-17.092,37.685-33.813,62.821-58.185,89.178
			c-12.267,13.27-26.044,25.067-41.062,35.122c-0.601,0.407-1.165,0.777-1.679,1.115c-14.554,9.486-23.357,25.65-23.357,43.023
			v181.827l165.725,85.976C572.621,1307.09,572.722,1311.771,572.722,1316.482z"/>
	</g>
	<g>
		<path style="fill:#2E3C5B;" d="M593.397,1375.03v39.533c0,7.938-6.441,14.378-14.379,14.378H233.746
			c-7.938,0-14.379-6.44-14.379-14.378v-39.533c0-7.938,6.441-14.378,14.379-14.378h345.272
			C586.956,1360.651,593.397,1367.092,593.397,1375.03z"/>
	</g>
	<g>
		<path style="fill:#576C91;" d="M634.747,1410.91v36.689c0,8.727-7.073,15.801-15.801,15.801H194.445
			c-8.727,0-15.801-7.073-15.801-15.801v-36.689c0-8.727,7.073-15.801,15.801-15.801h424.501
			C627.673,1395.109,634.747,1402.183,634.747,1410.91z"/>
	</g>
	<g>
		<path style="fill:#41150A;" d="M593.397,621.333v39.533c0,7.938-6.441,14.378-14.379,14.378H400.43v-68.29h178.588
			C586.956,606.955,593.397,613.395,593.397,621.333z"/>
	</g>
	<g>
		<path style="fill:#2E3C5B;" d="M634.747,588.297v36.689c0,8.727-7.073,15.801-15.801,15.801H400.43v-68.29h218.516
			C627.673,572.496,634.747,579.57,634.747,588.297z"/>
	</g>
	<g>
		<path style="fill:#EA9228;" d="M572.722,1316.482c0,27.855-4.649,54.413-13.082,78.627H400.43V850.55
			c46.763,20.449,92.711,21.489,130.547,15.657c-17.092,37.685-33.813,62.821-58.185,89.178
			c-12.267,13.27-26.044,25.067-41.062,35.122c-0.601,0.407-1.165,0.777-1.679,1.115c-14.554,9.486-23.357,25.65-23.357,43.023
			v181.827l165.725,85.976C572.621,1307.09,572.722,1311.771,572.722,1316.482z"/>
	</g>
	<g>
		<path style="fill:#161E33;" d="M593.397,1375.03v39.533c0,7.938-6.441,14.378-14.379,14.378H400.43v-68.29h178.588
			C586.956,1360.651,593.397,1367.092,593.397,1375.03z"/>
	</g>
	<g>
		<path style="fill:#2E3C5B;" d="M634.747,1410.91v36.689c0,8.727-7.073,15.801-15.801,15.801H400.43v-68.29h218.516
			C627.673,1395.109,634.747,1402.183,634.747,1410.91z"/>
	</g>
	<g>
		<g>
			<g>
				<path style="fill:#161E33;" d="M1692.677,1073c0,0-40.501,178.174-40.501,194.427s24.245,223.867,24.245,223.867l25.761,1.993
					c0,0,37.333-157.474,1.24-218.807c0,0,47.389-63.174,53.451-201.481C1762.934,934.693,1692.677,1073,1692.677,1073z"/>
			</g>
		</g>
	</g>
	<g>
		<g>
			<g>
				<path style="fill:#2E3C5B;" d="M1793.765,1054.37c0,0,43.436,41.192-24.947,202.605c0,0,53.515,51.634,48.549,238.499h-23.999
					c0,0-65.652-195.778-75.307-224.053s8.827-208.072,8.827-208.072L1793.765,1054.37z"/>
			</g>
		</g>
	</g>
	<g>
		<g>
			<g>
				<path style="fill:#292A2E;" d="M1794.987,1495.182c3.045,2.469,9.477,5.625,19.296,0.304c1.837-0.995,3.807,0.939,3.807,3.73
					v18.795c0,2.203-1.259,3.99-2.811,3.99h-49.481c-1.553,0-2.811-1.786-2.811-3.99v-2.71c0-1.975,1.017-3.653,2.394-3.945
					c5.688-1.208,19.995-5.162,26.084-15.277C1792.338,1494.626,1793.818,1494.234,1794.987,1495.182z"/>
			</g>
		</g>
	</g>
	<g>
		<g>
			<g>
				<path style="fill:#292A2E;" d="M1680.182,1489.776c3.045,2.47,9.477,5.626,19.296,0.305c1.837-0.995,3.806,0.939,3.806,3.729
					v18.795c0,2.203-1.259,3.99-2.811,3.99h-49.481c-1.552,0-2.811-1.786-2.811-3.99v-2.71c0-1.975,1.017-3.653,2.394-3.945
					c5.688-1.208,19.995-5.162,26.084-15.277C1677.533,1489.221,1679.013,1488.829,1680.182,1489.776z"/>
			</g>
		</g>
	</g>
	<g>
		<g>
			<g>
				<path style="fill:#FDC3B5;" d="M1610.75,1001.857c0,0-57.952,8.087-48.176,25.008c9.776,16.921,20.767,24.145,57.577,8.458
					C1656.96,1019.637,1610.75,1001.857,1610.75,1001.857z"/>
			</g>
		</g>
	</g>
	<g>
		<g>
			<g>
				<g>
					<path style="fill:#161E33;" d="M1795.034,738.619c0,0-19.236-16.149-44.258-6.569c-25.022,9.58-30.592,41.808-27.2,61.354
						s-17.064,22.051-19.732,40.186c-3.787,25.749,12.896,27.065,51.088,37.405c38.192,10.34,88.911,78.05,88.911,78.05
						L1795.034,738.619z"/>
				</g>
			</g>
		</g>
	</g>
	<g>
		<g>
			<g>
				<g>
					<path style="fill:#FDC3B5;" d="M1754.243,816.437c0,0,2.555,26.091-9.526,33.281c-12.08,7.189-23.345,19.922-23.345,19.922
						s33.834,15.409,50.167,11.366c16.333-4.043,22.601-4.652,22.601-4.652s-22.693-21.231-17.696-49.592
						c4.996-28.361,4.996-28.361,4.996-28.361L1754.243,816.437z"/>
				</g>
			</g>
		</g>
	</g>
	<g>
		<g>
			<g>
				<g>
					<path style="fill:#FCAE3F;" d="M1628.739,1028.318c0,0,84.431-26.029,117.518-72.63c33.087-46.601,32.461-46.995,32.461-46.995
						l-30.448-35.223c0,0-88.338,121.39-128.964,129.504L1628.739,1028.318z"/>
				</g>
			</g>
		</g>
	</g>
	<g>
		<g>
			<g>
				<g>
					<path style="fill:#FFCC56;" d="M1744.18,854.335c-5.666-2.891-12.556-1.503-16.613,3.396
						c-12.999,15.699-34.341,48.49-29.558,90.304c6.783,59.294-10.897,117.949-10.897,117.949s71.363,22.222,113.156-3.71
						c0,0,11.662-183.153-15.694-210.11C1784.574,852.164,1758.908,861.851,1744.18,854.335z"/>
				</g>
			</g>
		</g>
	</g>
	<g>
		<g>
			<g>
				<g>
					<path style="fill:#FDC3B5;" d="M1738.797,765.432c-3.822,7.61-5.706,15.955-5.68,24.417c0.037,11.8,1.658,29.867,11.123,31.161
						c14.137,1.933,32.638-3.039,42.693-19.867C1796.135,785.743,1759.603,724.005,1738.797,765.432z"/>
				</g>
			</g>
		</g>
	</g>
	<g>
		<g>
			<g>
				<path style="fill:#FDC3B5;" d="M2798.439,831.456c0,0-38.714-21.96-28.712-41.454c10.002-19.493,44.398,25.322,44.398,25.322
					L2798.439,831.456z"/>
			</g>
		</g>
	</g>
	<g>
		<g>
			<g>
				<path style="fill:#34BF91;" d="M2798.058,831.945c0,0,61.489,49.139,113.821,49.803s52.331,0,52.331,0l12.428-40.506
					c0,0-137.369-3.32-163.535-29.218L2798.058,831.945z"/>
			</g>
		</g>
	</g>
	<g>
		<g>
			<g>
				<path style="fill:#FFFFFF;" d="M2930.609,1244.779l95.835-7.26l6.81,33.079h-98.636L2930.609,1244.779z M3024.637,1239.956
					l-91.415,6.925l3.326,21.424h93.924L3024.637,1239.956z"/>
			</g>
		</g>
	</g>
	<g>
		<g>
			<g>
				<path style="fill:#FDC3B5;" d="M2777.23,864.207c0,0-39.368-23.546-29.913-43.185c9.455-19.639,45.152,27.143,45.152,27.143
					L2777.23,864.207z"/>
			</g>
		</g>
	</g>
	<g>
		<g>
			<g>
				<path style="fill:#161E33;" d="M2980.953,1041.525c0,0-12.24,189.334,0,236.075c12.24,46.742,201.666,113.008,201.666,113.008
					l12.823-18.342c-76.183-88.126-118.764-96.132-142.22-95.495c-5.473,0.148-9.429-5.257-7.67-10.52
					c13.213-39.537,51.713-171.692-3.982-224.727C2975.707,978.808,2980.953,1041.525,2980.953,1041.525z"/>
			</g>
		</g>
	</g>
	<g>
		<g>
			<g>
				<path style="fill:#2E3C5B;" d="M2956.765,1042.412l-30.575,237.071c-0.786,4.621-0.72,9.351,0.196,13.947l43.202,196.283
					l9.117-1.653c4.405-0.798,7.906-4.201,8.884-8.633c6.587-29.84,28.965-142.892,1.645-191.007
					c-4.571-8.049-4.846-17.893-1.006-26.327c18.674-41.009,65.939-153.056,52.759-209.918
					C3024.667,981.767,2956.765,1042.412,2956.765,1042.412z"/>
			</g>
		</g>
	</g>
	<g>
		<g>
			<g>
				<g>
					<g>
						<path style="fill:#FDC3B5;" d="M2951.149,798.482c0,0,7.791,10.907,1.461,24.836c-6.33,13.93-4.337,23.547-4.337,23.547
							s40.841,26.33,53.157-15.258c0,0-19.717,9.242-27.79-56.033C2965.566,710.298,2951.149,798.482,2951.149,798.482z"/>
					</g>
				</g>
			</g>
		</g>
		<g>
			<g>
				<g>
					<g>
						<path style="fill:#161E33;" d="M2988.547,745.697c0,0-3.329-60.285-49.819-41.656c-46.49,18.629-52.854,5.976-59.216,12.083
							c-6.362,6.108,13.652,26.557,25.389,34.968c13.968,10.01,51.99,24.523,67.32,35.076c3.107,2.139,7.393,0.826,8.767-2.687
							C2984.686,774.025,2990.453,756.836,2988.547,745.697z"/>
					</g>
				</g>
			</g>
		</g>
		<g>
			<g>
				<g>
					<g>
						<path style="fill:#FDC3B5;" d="M2974.001,779.481c0,0-8.389,29.708-28.226,23.69c-19.837-6.018-28.1-43.181-26.69-58.218
							c1.41-15.037,38.406-3.391,44.778,6.527c6.371,9.918,15.053-4.059,18.753,2.734
							C2986.315,761.006,2988.448,776.896,2974.001,779.481z"/>
					</g>
				</g>
			</g>
		</g>
	</g>
	<g>
		<g>
			<g>
				<path style="fill:#24A881;" d="M2951.854,833.772c-3.127-1.41-6.761,0.308-7.5,3.658
					c-3.639,16.509-11.538,57.705-12.131,106.595c-0.94,77.492,13.699,113.809,18.039,122.838c0.706,1.469,2.045,2.525,3.635,2.88
					c13.777,3.078,82.357,16.395,115.547-15.097c1.252-1.188,1.816-2.927,1.552-4.633c-3.43-22.21-28.746-176.195-78.238-225.071
					c-1.863-1.84-4.802-2.001-6.902-0.437C2979.117,829.528,2963.83,839.171,2951.854,833.772z"/>
			</g>
		</g>
	</g>
	<g>
		<path style="fill:#24A881;" d="M2785.906,838.378l-17.933,23.198c0,0,83.257,76.435,136.533,64.246
			c53.276-12.189,112.551-55.073,97.215-79.062c-0.545-0.853-1.113-1.654-1.698-2.406c-7.301-9.381-20.24-12.005-30.735-6.581
			c-9.596,4.959-24.988,12.701-38.246,18.406C2895.749,871.364,2877.816,894.562,2785.906,838.378z"/>
	</g>
	<g>
		<g>
			<path style="fill:#FFFFFF;" d="M2860.278,922.14c-13.624-4.855-28.66-12.52-44.692-22.781
				c-27.251-17.443-48.253-36.636-48.462-36.828l-0.877-0.805l19.354-25.037l0.96,0.587c36.678,22.421,63.766,33.637,85.247,35.297
				c19.203,1.483,32.262-4.899,46.091-11.656c4.037-1.973,8.212-4.013,12.65-5.922c12.954-5.573,27.905-13.065,38.166-18.368
				c11.121-5.747,24.708-2.833,32.305,6.93c0.619,0.795,1.214,1.638,1.767,2.503c3.265,5.108,3.541,11.136,0.821,17.918
				c-9.528,23.75-55.706,53.236-98.821,63.101c-3.912,0.895-8.08,1.342-12.495,1.342
				C2882.725,928.419,2872.008,926.321,2860.278,922.14z M2969.864,838.92c-10.297,5.322-25.305,12.841-38.327,18.444
				c-4.382,1.885-8.529,3.912-12.539,5.871c-28.184,13.772-52.54,25.672-132.785-23.169l-16.505,21.351
				c4.246,3.792,23.304,20.45,47.23,35.764c24.865,15.915,60.19,33.586,87.289,27.385c20.124-4.604,42.322-14.006,60.901-25.795
				c18.569-11.782,31.737-24.818,36.129-35.765c2.389-5.956,2.188-11.186-0.599-15.546c-0.51-0.799-1.059-1.576-1.629-2.308
				c-4.49-5.77-11.304-8.883-18.296-8.883C2977.055,836.269,2973.327,837.13,2969.864,838.92z"/>
		</g>
	</g>
	<g>
		<g>
			<g>
				<g>
					<path style="fill:#292A2E;" d="M3180.612,1389.384c4.405-2.161,11.263-7.801,9.691-21.704c-0.294-2.601,2.956-3.822,6.27-2.365
						l22.32,9.815c2.617,1.151,4.129,3.51,3.378,5.269l-23.925,56.065c-0.751,1.759-3.48,2.252-6.097,1.102l-3.219-1.415
						c-2.346-1.031-3.846-3.06-3.528-4.772c1.317-7.076,3.538-25.351-5.53-37.533
						C3178.671,1392.095,3178.921,1390.213,3180.612,1389.384z"/>
				</g>
			</g>
		</g>
	</g>
	<g>
		<g>
			<g>
				<g>
					<path style="fill:#292A2E;" d="M2964.217,1481.522c3.704,3.244,11.528,7.391,23.471,0.4c2.234-1.308,4.63,1.234,4.63,4.9
						v24.692c0,2.895-1.531,5.241-3.42,5.241h-60.188c-1.889,0-3.42-2.347-3.42-5.241v-3.561c0-2.595,1.237-4.799,2.912-5.183
						c6.919-1.586,24.322-6.782,31.729-20.071C2960.994,1480.792,2962.795,1480.276,2964.217,1481.522z"/>
				</g>
			</g>
		</g>
	</g>
	<g>
		<g>
			<g>
				<g>
					<path style="fill:#1D293D;" d="M788.509,996.742c15.323,20.745,25.996,44.545,31.604,69.718
						c11.676,52.411,35.478,160.813,35.478,173.538c0,16.86-25.015,232.229-25.015,232.229l-26.578,2.068
						c0,0-35.052-148.658-5.953-217.582c2.559-6.062,2.094-12.971-1.223-18.654c-13.197-22.611-44.344-87.198-49.25-199.75
						C743.832,952.48,768.268,969.339,788.509,996.742z"/>
				</g>
			</g>
		</g>
	</g>
	<g>
		<g>
			<g>
				<g>
					<path style="fill:#2E3C5B;" d="M722.523,1020.773c0,0-52.918,37.463,4.249,187.29c4.666,12.229,3.583,25.913-2.948,37.257
						c-15.874,27.573-42.28,94.508-38.667,231.241h24.76c0,0,67.735-203.091,77.696-232.422
						c9.961-29.332-9.107-215.843-9.107-215.843L722.523,1020.773z"/>
				</g>
			</g>
		</g>
	</g>
	<g>
		<g>
			<g>
				<g>
					<path style="fill:#292A2E;" d="M706.031,1472.19c-3.142,2.562-9.778,5.836-19.908,0.316c-1.895-1.033-3.927,0.974-3.927,3.869
						v19.497c0,2.286,1.299,4.139,2.901,4.139h51.051c1.602,0,2.9-1.853,2.9-4.139v-2.811c0-2.049-1.049-3.789-2.469-4.092
						c-5.869-1.253-20.63-5.355-26.912-15.848C708.764,1471.614,707.236,1471.207,706.031,1472.19z"/>
				</g>
			</g>
		</g>
	</g>
	<g>
		<g>
			<g>
				<g>
					<path style="fill:#292A2E;" d="M826.696,1466.583c-3.142,2.562-9.778,5.836-19.908,0.316c-1.895-1.032-3.927,0.974-3.927,3.869
						v19.497c0,2.286,1.299,4.139,2.9,4.139h51.051c1.602,0,2.9-1.853,2.9-4.139v-2.812c0-2.049-1.049-3.789-2.469-4.092
						c-5.869-1.253-20.63-5.355-26.912-15.847C829.429,1466.007,827.902,1465.6,826.696,1466.583z"/>
				</g>
			</g>
		</g>
	</g>
	<g>
		<g>
			<g>
				<path style="fill:#945035;" d="M782.757,753.226c0,0-2.233,41.724-21.249,41.724c-19.016,0-35.007-24.369-35.007-36.792
					C726.501,745.735,772.385,704.489,782.757,753.226z"/>
			</g>
		</g>
	</g>
	<g>
		<g>
			<g>
				<path style="fill:#161E33;" d="M774.906,734.044c1.016-1.315,3.038,0.154,2.078,1.51c-4.014,5.674-11.529,13.44-21.964,12.058
					c-16.158-2.14-21.005,5.884-24.775,18.722c-0.206,0.703-0.007,1.346-0.048,2.005c-0.222,3.611,3.749,6.032,6.241,11.634
					c0.639,1.438-7.406,6.018-21.274-5.616c-25.34-21.257,4.847-60.979,21.543-68.467c16.696-7.489,43.625,1.605,55.474,14.442
					c11.519,12.48,3.95,40.38-11.326,55.193c-0.642,0.623-2.392,0.428-2.075-0.406C788.143,750.553,766.499,744.934,774.906,734.044
					z"/>
			</g>
		</g>
	</g>
	<g>
		<g>
			<g>
				<path style="fill:#161E33;" d="M753.943,705.354c0,0,26.929-11.768,9.695-25.14c-17.235-13.372-43.625,2.14-40.932,12.303
					C725.398,702.68,743.171,712.308,753.943,705.354z"/>
			</g>
		</g>
	</g>
	<g>
		<g>
			<g>
				<path style="fill:#161E33;" d="M739.672,707.195c-2.836,0-5.852-0.585-8.894-1.763c-7.377-2.855-13.344-8.585-14.847-14.259
					c-1.114-4.203,1.95-9.302,7.997-13.307c9.068-6.006,23.793-8.618,34.693-0.16c4.556,3.535,6.615,7.344,6.12,11.321
					c-1.102,8.845-14.651,15.094-15.968,15.681C746.177,706.362,743.053,707.195,739.672,707.195z M742.308,674.53
					c-6.316,0-12.521,2.125-17.152,5.192c-5.146,3.408-7.923,7.679-7.074,10.882c1.33,5.018,6.755,10.144,13.499,12.754
					c6.033,2.335,11.886,2.128,16.06-0.566l0.157-0.084c0.138-0.06,13.759-6.11,14.734-13.956c0.39-3.142-1.385-6.266-5.276-9.286
					C752.737,675.958,747.485,674.53,742.308,674.53z"/>
			</g>
		</g>
	</g>
	<g>
		<g>
			<g>
				<path style="fill:#945035;" d="M736.977,773.554c0,0,0.539,29.954,0,44.932c-0.538,14.977,20.466,13.907,27.468,10.698
					c7.002-3.209,4.847-3.209,4.847-3.209s4.847-1.07-4.847-18.187c-9.694-17.117-7.001-31.024-7.001-31.024L736.977,773.554z"/>
			</g>
		</g>
	</g>
	<g>
		<g>
			<g>
				<g>
					<path style="fill:#945035;" d="M922.821,799.113c0,0,22.003-42.177,7.904-46.985c-14.099-4.809-23.248-2.521-31.23,31.148
						C891.512,816.945,922.821,799.113,922.821,799.113z"/>
				</g>
			</g>
		</g>
	</g>
	<g>
		<g>
			<path style="fill:#FCAE3F;" d="M898.103,787.453c0,0-32.765,92.861-47.362,84.926c-12.241-6.655-56.132-41.84-89.011-55.362
				c-6.326-2.602-11.823-3.539-16.023-2.123c-26.034,8.778,30.635,87.984,65.957,97.783c35.322,9.799,52.103,20.76,74.084-6.106
				c22.983-28.091,41.811-107.431,41.811-107.431L898.103,787.453z"/>
		</g>
	</g>
	<g>
		<g>
			<path style="fill:#FFCC56;" d="M826.648,1027.6c0,0,1.874-161.763-47.136-207.021c-4.424-4.086-8.835-8.173-14.714-8.858
				l-34.507-4.021c-2.686-0.313-5.194,1.402-5.964,4.081c-7.51,26.135-42.384,156.666-10.042,222.59
				C714.285,1034.371,792.973,1057.521,826.648,1027.6z"/>
		</g>
	</g>
	<g>
		<g>
			<g>
				<g>
					<path style="fill:#945035;" d="M830.254,1029.892c0,0,44.021,18.032,47.513,3.55c3.492-14.482,0.372-23.381-33.888-28.234
						C809.618,1000.355,830.254,1029.892,830.254,1029.892z"/>
				</g>
			</g>
		</g>
	</g>
	<g>
		<g>
			<path style="fill:#FFCC56;" d="M746.26,822.566c-12.202,0.431-22.297,9.121-25.191,21.227
				c-7.688,32.153-23.157,108.82-1.943,130.723c27.072,27.95,120.329,62.752,120.329,62.752l5.951-37.305
				c0,0-82.809-30.216-83.806-48.894C760.717,934.53,791.342,820.974,746.26,822.566z"/>
		</g>
		<g>
			<path style="fill:#FFFFFF;" d="M840.339,1038.785l-1.274-0.475c-0.234-0.087-23.657-8.854-50.086-20.925
				c-35.558-16.241-59.329-30.404-70.654-42.095c-9.412-9.718-12.836-30.706-10.176-62.384c2.125-25.307,7.609-51.693,11.836-69.371
				c3.051-12.76,13.594-21.633,26.234-22.08l0.039,1.112l-0.039-1.112c6.743-0.234,12.247,2.007,16.373,6.671
				c16.044,18.14,7.833,69.732,2.927,100.557c-1.674,10.519-2.996,18.827-2.81,22.327c0.786,14.721,60.236,39.574,83.076,47.908
				l0.862,0.315L840.339,1038.785z M747.211,823.662c-0.301,0-0.605,0.005-0.913,0.016c-11.628,0.411-21.333,8.598-24.148,20.373
				c-7.61,31.828-23.061,108.179-2.226,129.69c24.877,25.684,107.373,57.704,118.646,62.002l5.592-35.054
				c-4.139-1.542-22.509-8.497-40.764-17.164c-28.036-13.312-42.474-24.212-42.911-32.397c-0.2-3.736,1.073-11.73,2.834-22.795
				c4.844-30.437,12.951-81.379-2.397-98.733C757.397,825.609,752.904,823.662,747.211,823.662z"/>
		</g>
	</g>
	<g>
		<g>
			<path style="fill:#576C91;" d="M2363.632,1435.618c12.465,13.652,14.928,33.512,6.513,49.627
				c-0.617,1.208-1.312,2.402-2.072,3.564l-0.061,0.093c-10.619,16.324-30.762,23.643-49.39,17.934
				c-238.012-73.042-497.439-311.203-1004.39-665.768l15.466-23.773l3.175-4.873l16.599-25.521
				C1882.526,1101.342,2174.219,1228.222,2363.632,1435.618z"/>
		</g>
		<g>
			<path style="fill:#2E3C5B;" d="M1332.875,812.422l1035.199,676.387l-0.061,0.093c-10.619,16.324-30.762,23.643-49.39,17.934
				c-238.012-73.042-497.439-311.203-1004.39-665.768l15.466-23.773L1332.875,812.422z"/>
		</g>
		<g>
			<path style="fill:#161E33;" d="M1461.56,839.914l-52.573,80.807c-2.098,3.224-6.452,4.146-9.676,2.048l-21.044-13.691
				c-3.224-2.097-4.146-6.451-2.048-9.676l52.573-80.807c2.098-3.224,6.452-4.146,9.676-2.048l21.044,13.691
				C1462.736,832.336,1463.658,836.69,1461.56,839.914z"/>
		</g>
		<g>
			<path style="fill:#161E33;" d="M1509.708,871.239l-52.573,80.807c-2.098,3.224-6.452,4.146-9.676,2.048l-21.044-13.691
				c-3.224-2.098-4.146-6.452-2.048-9.676l52.573-80.807c2.098-3.224,6.452-4.146,9.676-2.048l21.044,13.691
				C1510.884,863.661,1511.806,868.015,1509.708,871.239z"/>
		</g>
		<g>
			<path style="fill:#161E33;" d="M1253.599,954.813l-25.078,38.381c-2.104,3.22-6.46,4.133-9.68,2.029l-199.338-130.245
				c-3.22-2.104-4.133-6.46-2.029-9.68l25.078-38.382c2.104-3.22,6.46-4.133,9.68-2.029l199.338,130.245
				C1254.79,947.237,1255.703,951.593,1253.599,954.813z"/>
		</g>
		<g>
			<path style="fill:#161E33;" d="M1414.437,688.234l-158.61,242.75c-2.104,3.22-6.46,4.133-9.68,2.029l-171.956-112.354
				c-3.22-2.104-4.133-6.46-2.029-9.68l158.61-242.75c2.104-3.22,6.46-4.133,9.68-2.029l171.956,112.354
				C1415.628,680.658,1416.541,685.014,1414.437,688.234z"/>
		</g>
		<g>
			<path style="fill:#2E3C5B;" d="M1288.415,952.255l-14.241,21.795c-6.404,9.802-19.663,12.581-29.465,6.177l-226.163-147.773
				c-9.802-6.404-12.581-19.664-6.177-29.465l14.241-21.795c6.404-9.802,19.663-12.581,29.465-6.177l226.163,147.773
				C1292.039,929.194,1294.819,942.454,1288.415,952.255z"/>
		</g>
		<g>
			<path style="fill:#161E33;" d="M1431.438,682.634l25.078-38.382c2.104-3.22,1.191-7.576-2.029-9.68l-199.338-130.245
				c-3.22-2.104-7.576-1.191-9.68,2.029l-25.078,38.381c-2.104,3.22-1.191,7.576,2.029,9.68l199.338,130.245
				C1424.978,686.767,1429.334,685.854,1431.438,682.634z"/>
		</g>
		<g>
			<path style="fill:#576C91;" d="M1445.594,717.271l17.909-27.41c5.395-8.257,3.054-19.428-5.204-24.823l-231.778-151.442
				c-8.257-5.395-19.428-3.053-24.823,5.204l-17.909,27.41c-5.395,8.257-3.053,19.428,5.204,24.823l231.779,151.441
				C1429.028,727.87,1440.199,725.528,1445.594,717.271z"/>
		</g>
		<g>
			<path style="fill:#EA9228;" d="M1196.215,599.241l195.018,127.423c4.408,2.88,5.658,8.843,2.778,13.251l-102.549,156.95
				c-2.88,4.408-8.843,5.658-13.251,2.778l-195.018-127.423c-4.408-2.88-5.658-8.843-2.778-13.251l102.549-156.95
				C1185.844,597.611,1191.807,596.361,1196.215,599.241z"/>
		</g>
		<g>
			<path style="fill:#FFCC56;" d="M1131.472,680.828l211.047,137.896l-51.056,78.141c-2.88,4.408-8.843,5.658-13.251,2.778
				l-195.018-127.423c-4.408-2.88-5.658-8.843-2.778-13.251L1131.472,680.828z"/>
		</g>
	</g>
	<g>
		<g>
			<g>
				<path style="fill:#FDC3B5;" d="M1635.145,1045.775c0,0-43.787,3.038-40.768,16.448c3.019,13.409,9.232,19.501,39.564,9.539
					C1664.273,1061.799,1635.145,1045.775,1635.145,1045.775z"/>
			</g>
		</g>
	</g>
	<g>
		<g>
			<g>
				<path style="fill:#FFCC56;" d="M1630.195,1042.664l10.423,29.715c0,0,121.064-29.537,142.305-84.413
					c21.241-54.876,17.89-133.197-13.529-133.592c-1.118-0.014-2.201,0.023-3.249,0.104c-13.081,1.013-23.379,11.052-24.781,23.643
					c-1.282,11.512-3.535,29.851-6.363,45.081C1727.472,963.742,1737.894,993.457,1630.195,1042.664z"/>
			</g>
			<g>
				<path style="fill:#FFFFFF;" d="M1639.857,1073.782l-11.134-31.744l0.981-0.449c43.011-19.651,69.859-37.318,84.493-55.597
					c13.09-16.35,15.176-31.821,17.385-48.2c0.644-4.775,1.31-9.712,2.256-14.806c2.766-14.893,4.98-32.689,6.351-44.995
					c1.477-13.261,12.354-23.645,25.865-24.691c1.102-0.085,2.23-0.119,3.355-0.107c6.843,0.086,12.651,3.589,17.264,10.413
					c7.579,11.211,11.439,30.711,10.871,54.907c-0.555,23.649-5.482,49.119-13.519,69.881c-4.928,12.731-15.56,25.135-31.6,36.868
					c-12.755,9.33-28.955,18.271-48.15,26.576c-32.636,14.12-63.073,21.618-63.377,21.692L1639.857,1073.782z M1631.667,1043.291
					l9.708,27.679c5.592-1.436,32.915-8.732,61.991-21.315c19.027-8.235,35.068-17.086,47.676-26.311
					c15.662-11.458,26.018-23.504,30.779-35.804c16.638-42.984,17.99-100.279,2.893-122.611c-4.153-6.144-9.313-9.297-15.335-9.373
					c-1.056-0.016-2.112,0.02-3.142,0.1c-12.38,0.959-22.347,10.461-23.699,22.596c-1.375,12.345-3.597,30.203-6.376,45.165
					c-0.935,5.037-1.597,9.945-2.238,14.691c-2.254,16.713-4.384,32.5-17.883,49.362
					C1701.282,1005.908,1674.455,1023.658,1631.667,1043.291z"/>
			</g>
		</g>
	</g>
	<g>
		<g>
			<g>
				<path style="fill:#161E33;" d="M1738.375,749.729c0,0,5.125,22.267,24.078,28.501c18.953,6.234,6.504,20.729,0.703,24.676
					c-5.802,3.947-13.178,22.589,8.321,40.781s-0.001,38.868-7.426,50.115c-20.475,31.015,12.593,76.6,59.195,88.194
					c40.282,10.021,72.34-3.985,89.174-16.242c27.149-19.768,31.804-57.345,11.734-79.05c-18.195-19.676-28.281-8.489-41.349-30.344
					c-9.661-16.158,12.125-41.078-1.395-60.472c-16.781-24.073-47.022-19.094-56.301-39.937
					C1815.921,735.314,1763.257,706.316,1738.375,749.729z"/>
			</g>
		</g>
	</g>
</g>
</svg>
