<svg width="510" height="510" viewBox="0 0 510 510" fill="none" xmlns="http://www.w3.org/2000/svg">
<path d="M479.94 83.7932H358.691L361.122 81.3548C363.96 78.5398 365.527 74.7816 365.535 70.7743C365.542 66.754 363.982 62.9729 361.139 60.129L337.449 36.4389C334.613 33.604 330.845 32.0442 326.836 32.0442H326.804C322.797 32.0521 319.04 33.62 316.249 36.433L310.548 42.1147C303.004 37.9291 295.036 34.6191 286.764 32.2334V24.2009C286.764 15.9413 280.032 9.22266 271.757 9.22266H238.243C229.967 9.22266 223.236 15.9413 223.236 24.2009V32.2494C214.968 34.6131 206.993 37.9171 199.431 42.1117L193.759 36.4399C190.923 33.604 187.156 32.0442 183.146 32.0442H183.117C179.11 32.0521 175.351 33.619 172.554 36.4369L148.833 60.13C145.99 62.9729 144.431 66.753 144.439 70.7743C144.447 74.7816 146.013 78.5398 148.827 81.3319L151.282 83.7942H30.0601C15.6815 83.7942 3.98438 95.4913 3.98438 109.87V382.232C3.98438 396.61 15.6815 408.308 30.0601 408.308H186.641V455.49H147.153C134.659 455.49 124.494 465.642 124.494 478.121V494.808C124.494 498.107 127.167 500.78 130.465 500.78H379.506C382.805 500.78 385.477 498.106 385.477 494.808V478.121C385.477 465.643 375.325 455.49 362.846 455.49H323.358V408.308H479.939C494.318 408.308 506.015 396.61 506.015 382.232V109.868C506.015 95.4894 494.318 83.7922 479.939 83.7922L479.94 83.7932ZM157.274 68.5779L181.011 44.8689C181.77 44.1039 182.669 43.9883 183.137 43.9873H183.143C183.62 43.9873 184.532 44.1049 185.312 44.8848L194.235 53.8068C196.183 55.7552 199.212 56.1158 201.566 54.6834C210.618 49.165 220.389 45.1179 230.606 42.6555C233.287 42.0091 235.178 39.6085 235.178 36.8503V24.2009C235.178 22.5275 236.552 21.1658 238.242 21.1658H271.756C273.446 21.1658 274.82 22.5275 274.82 24.2009V36.8224C274.82 39.5746 276.702 41.9702 279.374 42.6237C289.609 45.1239 299.377 49.181 308.405 54.6834C310.753 56.1158 313.78 55.7552 315.729 53.8138L324.704 44.8689C325.463 44.1039 326.36 43.9883 326.828 43.9873H326.834C327.312 43.9873 328.225 44.1049 329.005 44.8848L352.693 68.5729C353.477 69.3568 353.592 70.2732 353.591 70.7504C353.591 71.2185 353.475 72.117 352.687 72.8989L343.765 81.8488C341.823 83.7982 341.462 86.8223 342.895 89.1731C348.411 98.2206 352.458 107.983 354.924 118.188C355.572 120.869 357.971 122.757 360.728 122.757H373.35C375.038 122.757 376.413 124.132 376.413 125.821V159.337C376.413 160.997 375.01 162.4 373.35 162.4H360.728C357.969 162.4 355.569 164.29 354.923 166.972C352.46 177.189 348.414 186.959 342.895 196.012C341.461 198.365 341.824 201.393 343.772 203.342L352.694 212.265C353.477 213.048 353.592 213.965 353.591 214.441C353.591 214.91 353.475 215.808 352.691 216.585L329.021 240.284C327.818 241.477 325.875 241.488 324.681 240.293L315.73 231.371C313.781 229.429 310.757 229.07 308.406 230.502C299.429 235.973 289.663 240.022 279.375 242.534C276.702 243.187 274.821 245.584 274.821 248.335V260.956C274.821 262.617 273.418 264.019 271.757 264.019H238.243C236.553 264.019 235.179 262.645 235.179 260.956V248.335C235.179 245.581 233.296 243.184 230.621 242.533C220.375 240.036 210.599 235.979 201.567 230.474C200.604 229.887 199.529 229.601 198.461 229.601C196.914 229.601 195.382 230.201 194.229 231.358L185.329 240.285C184.125 241.478 182.181 241.486 180.995 240.301L157.261 216.568C156.496 215.809 156.381 214.911 156.38 214.442C156.38 213.966 156.494 213.05 157.277 212.266L166.199 203.343C168.148 201.394 168.51 198.366 167.076 196.013C161.557 186.96 157.51 177.19 155.048 166.973C154.403 164.292 152.001 162.401 149.243 162.401H136.621C134.961 162.401 133.558 160.998 133.558 159.338V125.822C133.558 124.162 134.961 122.758 136.621 122.758H149.243C152.001 122.758 154.4 120.87 155.047 118.189C157.514 107.984 161.56 98.2216 167.076 89.1741C168.508 86.8243 168.149 83.7992 166.206 81.8498L157.261 72.876C156.496 72.117 156.381 71.2185 156.38 70.7504C156.38 70.2732 156.494 69.3588 157.274 68.5779ZM136.621 174.345H144.642C147.006 182.612 150.309 190.587 154.504 198.15L148.832 203.822C145.989 206.664 144.429 210.445 144.437 214.467C144.445 218.474 146.011 222.232 148.832 225.029L156.468 232.665L120.992 268.142C119.872 269.262 119.242 270.781 119.242 272.365V310.881C109.685 313.506 102.64 322.267 102.64 332.647C102.64 345.079 112.767 355.194 125.214 355.194C137.661 355.194 147.788 345.08 147.788 332.647C147.788 322.267 140.743 313.506 131.186 310.881V274.838L164.913 241.11L172.549 248.746C178.373 254.571 187.88 254.578 193.764 248.739L199.436 243.05C206.983 247.235 214.956 250.544 223.235 252.927V260.957C223.235 269.233 229.967 275.964 238.242 275.964H249.012V310.881C239.455 313.506 232.411 322.267 232.411 332.647C232.411 345.079 242.537 355.194 254.984 355.194C267.431 355.194 277.559 345.08 277.559 332.647C277.559 322.267 270.513 313.506 260.956 310.881V275.964H271.756C280.032 275.964 286.763 269.232 286.763 260.957V252.927C295.062 250.538 303.03 247.236 310.546 243.071L316.24 248.745C322.063 254.57 331.569 254.577 337.452 248.743L345.081 241.105L378.813 274.838V310.881C369.256 313.506 362.211 322.267 362.211 332.647C362.211 345.079 372.338 355.194 384.785 355.194C397.232 355.194 407.359 345.08 407.359 332.647C407.359 322.267 400.314 313.506 390.757 310.881V272.365C390.757 270.781 390.127 269.262 389.007 268.142L353.521 232.655L361.122 225.045C363.96 222.231 365.527 218.473 365.535 214.466C365.542 210.445 363.982 206.663 361.139 203.821L355.467 198.149C359.663 190.585 362.966 182.61 365.329 174.344H373.35C381.625 174.344 388.356 167.613 388.356 159.338V125.822C388.356 124.773 388.245 123.748 388.039 122.758H467.022V369.341H42.9496V122.757H121.932C121.726 123.748 121.615 124.772 121.615 125.821V159.337C121.615 167.613 128.347 174.343 136.621 174.343V174.345ZM125.214 322.018C131.076 322.018 135.845 326.787 135.845 332.649C135.845 338.511 131.076 343.253 125.214 343.253C119.352 343.253 114.584 338.496 114.584 332.649C114.584 326.802 119.352 322.018 125.214 322.018ZM254.985 322.018C260.847 322.018 265.616 326.787 265.616 332.649C265.616 338.511 260.847 343.253 254.985 343.253C249.123 343.253 244.355 338.496 244.355 332.649C244.355 326.802 249.123 322.018 254.985 322.018ZM384.786 322.018C390.648 322.018 395.416 326.787 395.416 332.649C395.416 338.511 390.648 343.253 384.786 343.253C378.924 343.253 374.155 338.496 374.155 332.649C374.155 326.802 378.924 322.018 384.786 322.018ZM373.534 478.12V488.836H136.438V478.12C136.438 472.227 141.245 467.433 147.154 467.433H362.847C368.74 467.433 373.534 472.227 373.534 478.12ZM311.416 455.489H198.585V408.307H218.408C227.037 424.399 240.497 433.888 254.986 433.888C269.475 433.888 282.933 424.399 291.588 408.307H311.416V455.489ZM232.448 408.307H277.537C271.312 416.972 263.286 421.944 254.986 421.944C246.687 421.944 238.656 416.971 232.448 408.307ZM494.072 382.231C494.072 390.023 487.733 396.363 479.94 396.363H30.0601C22.2677 396.363 15.9275 390.024 15.9275 382.231V109.868C15.9275 102.076 22.2667 95.7354 30.0601 95.7354H150.152C147.96 100.629 146.119 105.664 144.645 110.813H36.978C33.6789 110.813 31.0064 113.487 31.0064 116.785V375.311C31.0064 378.61 33.6799 381.283 36.978 381.283H472.994C476.293 381.283 478.966 378.609 478.966 375.311V116.786C478.966 113.487 476.292 110.814 472.994 110.814H365.327C363.853 105.665 362.012 100.63 359.82 95.7364H479.941C487.733 95.7364 494.073 102.076 494.073 109.869L494.072 382.231ZM254.986 223.899C299.818 223.899 336.291 187.426 336.291 142.595C336.291 97.7634 299.818 61.2895 254.986 61.2895C210.154 61.2895 173.682 97.7624 173.682 142.595C173.682 187.427 210.155 223.899 254.986 223.899ZM254.986 73.2326C293.232 73.2326 324.348 104.348 324.348 142.595C324.348 180.842 293.233 211.956 254.986 211.956C216.739 211.956 185.625 180.841 185.625 142.595C185.625 104.349 216.74 73.2326 254.986 73.2326ZM223.103 191.928C223.227 192.137 223.36 192.342 223.509 192.536C223.519 192.549 223.53 192.56 223.539 192.572C223.675 192.745 223.822 192.91 223.978 193.07C224.021 193.115 224.066 193.157 224.111 193.2C224.241 193.325 224.377 193.443 224.52 193.558C224.569 193.598 224.618 193.639 224.669 193.677C224.851 193.814 225.041 193.942 225.243 194.06C225.474 194.194 225.715 194.315 225.963 194.417C226.145 194.493 226.329 194.55 226.515 194.606C226.575 194.625 226.633 194.649 226.694 194.666C226.943 194.734 227.195 194.784 227.447 194.818C227.449 194.818 227.452 194.818 227.455 194.819C227.716 194.854 227.978 194.873 228.24 194.873H228.255H281.724C283.858 194.873 285.829 193.734 286.895 191.887L313.634 145.581C313.642 145.567 313.647 145.552 313.655 145.539C313.777 145.325 313.887 145.104 313.983 144.875C313.986 144.867 313.988 144.859 313.991 144.852C314.076 144.641 314.149 144.422 314.211 144.2C314.227 144.146 314.24 144.09 314.254 144.034C314.298 143.853 314.334 143.669 314.362 143.482C314.371 143.424 314.382 143.368 314.388 143.309C314.416 143.075 314.435 142.838 314.435 142.596C314.435 142.354 314.416 142.116 314.388 141.882C314.381 141.825 314.37 141.767 314.362 141.709C314.334 141.522 314.298 141.339 314.254 141.157C314.24 141.101 314.227 141.047 314.211 140.991C314.149 140.769 314.077 140.551 313.992 140.34C313.989 140.333 313.986 140.325 313.983 140.317C313.888 140.087 313.777 139.866 313.656 139.652C313.648 139.638 313.643 139.623 313.635 139.61L286.896 93.3039C285.83 91.4572 283.858 90.3186 281.725 90.3186H228.247C228.231 90.3186 228.216 90.3216 228.2 90.3216C227.954 90.3236 227.707 90.3376 227.461 90.3704C227.452 90.3714 227.442 90.3744 227.433 90.3754C227.208 90.4063 226.985 90.4531 226.763 90.5099C226.707 90.5238 226.651 90.5408 226.596 90.5567C226.419 90.6085 226.244 90.6683 226.07 90.736C226.014 90.7579 225.956 90.7788 225.899 90.8027C225.688 90.8934 225.479 90.994 225.275 91.1115C225.265 91.1175 225.254 91.1235 225.244 91.1294C225.042 91.247 224.852 91.3755 224.67 91.512C224.619 91.5508 224.57 91.5916 224.521 91.6315C224.378 91.745 224.242 91.8646 224.112 91.9891C224.067 92.0319 224.022 92.0747 223.979 92.1196C223.823 92.2789 223.676 92.4443 223.54 92.6176C223.53 92.6296 223.519 92.6405 223.51 92.6535C223.361 92.8477 223.227 93.0519 223.104 93.2611C223.095 93.276 223.083 93.29 223.075 93.3049L196.365 139.611C195.3 141.458 195.3 143.732 196.365 145.578L223.075 191.884C223.084 191.899 223.096 191.913 223.104 191.928H223.103ZM278.279 182.929H238.591L258.434 148.566H298.121L278.279 182.929ZM298.121 136.623H258.434L238.591 102.26H278.279L298.121 136.623ZM228.25 108.234L248.09 142.595L228.25 176.955L208.431 142.595L228.25 108.234Z" fill="#047A96"/>
</svg>
