<?xml version="1.0" encoding="utf-8"?>
<!-- Generator: Adobe Illustrator 27.5.0, SVG Export Plug-In . SVG Version: 6.00 Build 0)  -->
<svg version="1.1" id="Layer_1" xmlns:svgjs="http://svgjs.com/svgjs"
	 xmlns="http://www.w3.org/2000/svg" xmlns:xlink="http://www.w3.org/1999/xlink" x="0px" y="0px" viewBox="0 0 1600 1200"
	 style="enable-background:new 0 0 1600 1200;" xml:space="preserve">
<rect style="fill:#F3EBE9;" width="1600" height="1200"/>
<g>
	<path style="fill:#FFFFFF;" d="M283.1,351.59h80.85l30.96,24.95c3.46,2.77,8.43,2.2,11.2-1.15c1.16-1.39,1.74-3.12,1.74-4.97
		v-86.86c0-37.54-30.5-68.04-68.04-68.04H283.1c-37.54,0-68.04,30.5-68.04,68.04C214.95,321.1,245.44,351.59,283.1,351.59z"/>
</g>
<g>
	<path style="fill:#FFA0DC;" d="M310.53,246.53c21.83,0,39.54,17.7,39.54,39.54s-17.71,39.54-39.54,39.54
		c-21.84,0-39.54-17.7-39.54-39.54S288.69,246.53,310.53,246.53z"/>
	<path style="fill:#FFFFFF;" d="M331.64,291.34c-0.46,1.45-1.82,2.4-3.32,2.4c-0.04,0-0.04,0.05-0.04,0.05
		c0.5,0.81,0.63,1.77,0.36,2.68c-0.45,1.45-1.82,2.4-3.31,2.4c-0.05,0-0.05,0.05-0.05,0.05c0.59,1.04,0.68,2.31,0.09,3.36
		c-0.82,1.4-2.5,2.04-4.04,1.59l-8.85-2.59c-3.13-0.91-6.17-2.23-8.99-3.86c-1.09-0.64-1.59-1.91-1.27-3.09l5.17-17.7
		c0.19-0.64,0.64-1.23,1.23-1.55c2.95-1.72,11.99-7.08,13.3-7.49c6.18-0.77-0.32,8.81-1.59,10.94c0,0.05,0,0.05,0.05,0.05
		c0.82,0.23,10.35,3.04,10.35,3.04c3.27,0.82,3.54,5.63,0.18,6.49c-0.05,0-0.05,0.05,0,0.09C331.68,289.02,332,290.25,331.64,291.34
		z"/>
	<path style="fill:#FFFFFF;" d="M304.9,274.36l-6.27,21.47c-0.31,1.04-1.4,1.63-2.45,1.36l-7.49-2.18c-1.04-0.31-1.63-1.4-1.36-2.45
		l6.26-21.52c0.32-1.04,1.41-1.63,2.46-1.36l7.53,2.23C304.63,272.22,305.31,273.36,304.9,274.36z"/>
</g>
<g>
	<path style="fill:#FFFFFF;" d="M260.85,705.1l-18.69-28.55l29.01,15.3l9.98-51.31l10.72,54.75l45.92-22.47l-33.48,39.39
		l41.74,40.82l-51.08-18.58l-3.9,57.05l-17.89-51.77L228,765.87l31.59-43.4l-45.69-14.56L260.85,705.1z"/>
</g>
<g>
	<path style="fill:#FFFFFF;" d="M1322.2,695.72l-17.76-46.82l35.4,31.09l6.4-32.07l10.7,30.43l29.4-27.21l-16.61,38.46l52.17,0.55
		l-52.23,17.98l40.16,36.49l-51.36-14.1l-8.46,53.6l-13.72-52.88l-41.13,33.98l27.2-51.19l-50.37-12.95L1322.2,695.72z"/>
</g>
<g>
	<path style="fill:#FFFFFF;" d="M1314.25,351.59h-80.85l-30.96,24.95c-3.47,2.77-8.43,2.2-11.2-1.15c-1.16-1.39-1.74-3.12-1.74-4.97
		v-86.86c0-37.54,30.5-68.04,68.04-68.04h56.71c37.54,0,68.03,30.5,68.03,68.04C1382.4,321.1,1351.91,351.59,1314.25,351.59z"/>
</g>
<g>
	<path style="fill:#FFC930;" d="M711.08,784.44L769,933.92l178.98-168.05L711.08,784.44z"/>
</g>
<g>
	<path style="fill:#FFA0DC;" d="M1285.86,244.62c-22.65,0-41,18.36-41,41c0,22.64,18.35,41,41,41c22.64,0,41-18.36,41-41
		C1326.86,262.98,1308.5,244.62,1285.86,244.62z"/>
	<path style="fill:#FFFFFF;" d="M1264.84,277.37c-0.5,1.5,0.08,3.15,1.38,4.03c0.04,0,0.04,0.04,0,0.08
		c-0.92,0.34-1.61,1.11-1.92,2.03c-0.49,1.5,0.08,3.15,1.38,4.03c0.04,0,0.04,0.04,0,0.07c-1.15,0.47-1.91,1.54-2.07,2.77
		c-0.23,1.61,0.89,3.22,2.46,3.75c5.6,1.85,13.08,5.03,18.98,5.26c1.31,0.11,2.5-0.65,2.92-1.88l6.25-18.06
		c0.23-0.69,0.19-1.42-0.08-2.08c-1.46-3.22-5.9-13.15-6.75-14.3c-1.03-1.38-3.14-1.5-3.99,1.3c-0.88,3-1.03,6.14-1.22,8.86
		c0,0.04-0.04,0.04-0.04,0.04l-10.59-3.64c-3.33-1.19-6.36,2.61-4.02,5.44c0,0.04,0,0.04-0.04,0.08
		C1266.22,275.38,1265.26,276.22,1264.84,277.37z"/>
	<path style="fill:#FFFFFF;" d="M1297.67,279.1l-7.59,21.94c-0.35,1.07,0.19,2.22,1.26,2.61l7.67,2.64
		c1.08,0.35,2.23-0.19,2.61-1.26l7.59-21.98c0.43-1.07-0.34-2.34-1.26-2.61c-0.19-0.07-7.67-2.64-7.71-2.64
		C1299.13,277.41,1298.02,278.1,1297.67,279.1z"/>
</g>
<g>
	<path style="fill:#FFC930;" d="M1109.44,187.27H490.56v381.56h618.88V187.27z"/>
	<path style="fill:#9E76DD;" d="M801.69,283.64c-21.22,0-41.97,6.3-59.61,18.07c-17.64,11.75-31.39,28.5-39.5,48.07
		c-8.13,19.58-10.24,41.12-6.1,61.9c4.14,20.76,14.35,39.86,29.36,54.85c14.99,14.97,34.11,25.17,54.92,29.32
		c20.79,4.13,42.38,2.01,61.96-6.12c19.61-8.1,36.38-21.83,48.17-39.45c11.78-17.61,18.07-38.33,18.07-59.52
		c0-28.41-11.31-55.65-31.42-75.73C857.41,294.93,830.14,283.64,801.69,283.64L801.69,283.64z M801.69,473.69
		c-16.43,0-32.49-4.86-46.15-13.96c-13.64-9.13-24.29-22.06-30.57-37.23c-6.31-15.15-7.95-31.83-4.73-47.92
		c3.2-16.08,11.1-30.84,22.71-42.46c11.63-11.59,26.41-19.48,42.54-22.7c16.11-3.19,32.81-1.55,47.98,4.72
		c15.17,6.28,28.15,16.91,37.26,30.55c9.12,13.65,14.01,29.66,14.01,46.07c0,10.9-2.15,21.67-6.33,31.74
		c-4.18,10.06-10.28,19.21-18,26.92c-7.7,7.69-16.86,13.8-26.94,17.98C823.4,471.55,812.59,473.69,801.69,473.69L801.69,473.69z"/>
</g>
<g>
	<path style="fill:none;stroke:#231F20;stroke-width:4;stroke-linecap:round;stroke-linejoin:round;" d="M725.54,639.89
		l-75.22,375.33"/>
	<path style="fill:none;stroke:#231F20;stroke-width:4;stroke-linecap:round;stroke-linejoin:round;" d="M711.81,696.53H544.44"/>
	<path style="fill:none;stroke:#231F20;stroke-width:4;stroke-linecap:round;stroke-linejoin:round;" d="M694.79,783.93H527.42"/>
	<path style="fill:none;stroke:#231F20;stroke-width:4;stroke-linecap:round;stroke-linejoin:round;" d="M677.77,871.18H510.39"/>
	<path style="fill:none;stroke:#231F20;stroke-width:4;stroke-linecap:round;stroke-linejoin:round;" d="M660.75,958.59H493.38"/>
	<path style="fill:none;stroke:#231F20;stroke-width:4;stroke-linecap:round;stroke-linejoin:round;" d="M556.28,639.89
		l-75.22,375.33"/>
	<path style="fill:none;stroke:#231F20;stroke-width:4;stroke-linecap:round;stroke-linejoin:round;" d="M556.28,639.89
		l75.23,375.33"/>
	<path style="fill:none;stroke:#231F20;stroke-width:4;stroke-linecap:round;stroke-linejoin:round;" d="M725.54,639.89
		l75.23,375.33"/>
</g>
<g>
	<path style="fill:#EAA58B;" d="M1123.95,430.45l2.13-0.83l0.55-0.38c0.47-2.12,0.84-4.07,1.02-6.48
		c1.39-13.42-0.46-28.98,0.65-35.64l0.56-3.89c2.4-12.59,2.5-30.28-11.12-42.59c-8.61-7.69-10.36-3.52-23.23-3.52
		c-6.76,0-5-0.74-11.3,1.76c-8.33,3.15-22.78-3.33-26.76,3.43c-3.79,6.38-6.57,14.9-9.72,24.44l-0.46,1.67
		c-5.09,0.74-7.96,2.12-8.43,4.07c-0.83,3.24,3.15,8.42,3.8,9.35c0,0.09,0,0.09,0,0.19c-5.37,16.75-5.19,26.01,0.55,34.07
		c3.62,5,10.84,7.87,19.45,7.87c3.05,0,6.11-0.47,9.07-1.3c0.09,0,0.28,0.09,0.28,0.19l-0.93,6.38c0,0,0.19,0.28,0.19,0.38v0.74
		c0,0.09,0.09,0.09,0.18,0.09l51.39,0.09L1123.95,430.45z"/>
	<path style="opacity:0.3;fill:#222120;enable-background:new    ;" d="M1086.91,422.39c0.47-0.74,0.28-1.66,0-2.59
		c-0.74-2.5-4.35-2.59-4.63-2.5l-11.01,5.28h-0.19l-1.02,6.66l0.47,0.84l11.57,0.46L1086.91,422.39z"/>
	<path style="fill:#EAA58B;" d="M962.85,468.59l-5-6.66c0,0-4.72-5.56-25.28-21.76c-13.33-10.74-36.48-22.22-52.96-22.22
		c-1.2,0-2.5,0.09-3.7,0.18c-3.7,0.47-6.2,1.67-7.69,3.99c-2.96,0.46-5.27,1.75-6.2,3.61c-0.93,1.66-0.83,3.89,0.28,6.11
		c-0.56,0.65-3.43,3.98-0.37,8.79c2.96,4.54,20.37,14.26,20.55,14.35c-2.68-0.37-5.37-0.55-8.05-0.55c-6.58,0-11.58,1.29-13.43,3.42
		c-0.74,0.84-0.83,2.04-0.28,3.06c1.39,2.87,11.3,6.39,31.85,11.29c7.41,13.06,20.84,20.37,21.85,20.84l2.23,3.61l8.24,10.74
		L962.85,468.59z"/>
	<path style="fill:#231F20;" d="M1127.74,422.67c0,0,5.74-31.85,6.67-37.5l0.09-0.64c2.41-12.6,6.85-36.02-6.76-48.33
		c-8.61-7.69-21.01-12.13-33.97-12.13c-6.95,0-13.71,1.29-19.91,3.7c-7.32,2.59-13.43,7.78-17.36,14.42
		c-0.21,0.54,1.99,8.45,11.34,8.45c1.2,0,2.41-0.19,2.34,0.53c0.44,0.67-2.34,6.41-0.3,10.02c1.11,1.86,3.24,2.78,6.48,2.78
		c1.76,0,3.52-0.18,3.34-0.06c-2.6,13.58,6.1,20.99,7.86,22.28l0.28,0.28l0.18-0.19c0.1-0.09,10-9.25,18.71-9.25h0.27
		c3.34,0,6.39,1.75,8.34,4.63c7.68,11.11-11.3,30.55-11.3,30.55c6.58,10.28,23.15,10.55,23.24,10.55L1127.74,422.67z"/>
	<path style="fill:#9E76DD;" d="M1163.85,616.55c19.08-10,35.93-35.83,31.2-65.83c-2.4-15.65-8.42-36.39-16.66-56.94
		c-7.5-18.98-15.46-34.35-20.83-40.19c-12.22-13.42-29.91-16.48-31.95-16.75c0.28-1.3,1.02-7.6,1.02-7.6h-56.57l-2.13,10.93
		c-0.09,0-0.18,0-0.27,0h-0.56c-0.28,0-0.65,0-1.02,0c-14.16,0-43.33,7.04-79.07,53.79c-1.48-1.76-14.16-16.29-29.07-31.94
		l-0.09-0.09l-41.2,34.72c11.76,23.89,36.48,64.35,69.53,66.29c0.65,0,1.3,0.09,1.94,0.09c11.95,0,25.47-6.29,34.63-11.66
		c5.93-3.43,11.57-7.23,17.04-11.39l11.11,50.74l0.37,0.92h89.34c0.84,0.56,12.41,8.89,23.06,24.81L1163.85,616.55z"/>
	<path style="opacity:0.3;fill:#9670D1;enable-background:new    ;" d="M1163.85,616.55c6.85-3.52,12.78-8.71,17.5-14.72l-0.28-0.28
		c-8.42-6.76-14.16-16.3-16.29-26.94c-1.39-7.5-2.32-15.1-2.87-22.69c-1.11-13.24-1.95-22.77-8.43-22.77l-3.7,0.18l-10.09,61.11
		l-0.28,0.18c9.35,7.22,17.5,16.02,23.98,25.83l0.09,0.1H1163.85z"/>
	<path style="fill:#FF4F32;" d="M1147.74,918.01v-0.74c-0.18-15.83-1.48-31.57-3.89-47.22c-1.57-10.37-3.79-20.18-6.57-31.94
		l-0.37-1.67c-3.52-14.91-7.13-30.37-8.7-48.61c-1.11-12.4-0.47-25.37,1.94-41.94c9.26,20.18,19.82,39.81,31.57,58.61
		c7.6,12.03,16.95,25.18,26.85,39.16c15.28,21.57,30.93,43.61,42.04,64.26l0.65,0.37l64.99,34.44l9.82-67.31l-0.37-1.11
		c-6.49-14.45-14.08-28.24-22.41-41.67c-5.56-8.88-11.48-17.03-18.7-26.75c-3.24-4.45-6.85-8.8-10.65-13.34
		c-7.04-8.51-14.35-17.31-20.65-27.96c-14.35-24.25-22.13-39.16-30.55-62.96c-17.04-48.33-33.52-89.99-63.05-111.19h-0.09h-54.54
		l-34.16,0.28l-0.1,0.27c-5.55,21.58-17.31,115.27-4.35,209.8c1.3,9.08,3.71,26.02,6.39,44.17c3.33,21.85,7.41,49.81,10.65,72.77
		l0.09,0.37l47.41,55.18L1147.74,918.01z"/>
	<path style="opacity:0.3;fill:#201F1F;enable-background:new    ;" d="M1266.53,926.53c-0.18-0.47-18.98-44.35-71.1-109.35
		c-22.69-28.33-30.56-67.86-36.21-96.84c-4.63-23.43-7.96-40.28-16.66-40.28h-1.76c-1.3,21.85-10.56,65.09-10.56,65.09l-0.09,0.74
		c9.26,20.37,19.63,39.63,31.57,58.61c7.6,12.03,16.95,25.27,26.85,39.25c15.28,21.58,30.93,43.52,42.04,64.17l0.46,0.37
		l35.74,18.79L1266.53,926.53z"/>
	<path style="fill:#9E76DD;" d="M1331.9,956.06l0.18-0.65c0-0.09,0-0.18,0-0.27c-6.02-27.32-14.63-53.98-25.92-79.54l-0.09-0.18
		l-8.52,3.7c-8.8,3.8-14.35,12.5-14.08,22.04l0.47,14.63c0,0.46-0.47,0.65-0.84,0.46l-14.9-11.48c-4.08-3.15-9.08-4.82-14.17-4.82
		c-3.15,0-6.29,0.65-9.26,1.95l-14.16,6.02l0.18,0.28c13.06,24.35,17.04,42.03,12.13,54.44c-3.33,8.51-9.07,19.35-12.87,26.57
		c-0.83,1.57-1.57,2.96-2.13,4.07c-1.39,2.59-2.4,5.37-2.96,8.24l0.37,0.56l106.29-45.74
		C1331.71,956.34,1331.81,956.15,1331.9,956.06z"/>
	<path style="fill:#9E76DD;" d="M1135.15,1005.13l4.63-2.68c0.09-0.09,0.19-0.19,0.19-0.28c5.37-27.68,7.87-55.83,7.68-83.98v-0.18
		h-10.28c-8.7,0-16.57,5.46-19.53,13.7l-5.84,15.83c-0.09,0.37-0.55,0.37-0.74,0.1l-11.11-19.17c-3.7-6.39-10.55-10.37-17.96-10.37
		h-18.15c-0.37,0-0.55,0.28-0.55,0.65c3.61,26.2,0.74,45.27-8.33,54.9c-6.02,6.39-14.91,13.52-21.48,18.71
		c-1.67,1.39-3.24,2.59-4.45,3.51c-2.31,1.86-4.44,3.99-6.2,6.39v0.1l1.02,1.29l109.34,1.76h0.09l1.3-0.28
		C1135.15,1005.13,1135.15,1005.13,1135.15,1005.13z"/>
	<path style="fill:none;stroke:#201F1F;stroke-width:4;stroke-linecap:round;stroke-linejoin:round;" d="M1130.15,745.89
		c5.28-40.46,13.24-48.05,9.54-86.01"/>
	<path style="fill:none;stroke:#201F1F;stroke-width:4;stroke-linecap:round;stroke-linejoin:round;" d="M1173.39,631.27h-21.67"/>
	<path style="fill:none;stroke:#201F1F;stroke-width:4;stroke-linecap:round;stroke-linejoin:round;" d="M1122.37,631.27h-39.44"/>
	<path style="fill:none;stroke:#222120;stroke-width:4;stroke-linecap:round;stroke-linejoin:round;" d="M1071.17,422.58
		c5.28-2.13,11.11-5.28,11.11-5.28"/>
	<path style="fill:none;stroke:#222120;stroke-width:4;stroke-linecap:round;stroke-linejoin:round;" d="M1100.8,393.23l-4.63,4.63"
		/>
	<path style="fill:none;stroke:#222120;stroke-width:4;stroke-linecap:round;stroke-linejoin:round;" d="M1056.92,386.47
		c-2.69,2.41-6.21,3.52-9.82,3.06"/>
	<path style="fill:#231F20;" d="M1055.9,372.86c-1.28,0-2.32-1.04-2.32-2.32c0-1.27,1.04-2.31,2.32-2.31c1.27,0,2.31,1.04,2.31,2.31
		C1058.21,371.82,1057.17,372.86,1055.9,372.86z"/>
	<path style="fill:none;stroke:#9670D1;stroke-width:4;stroke-linecap:round;stroke-linejoin:round;" d="M1151.72,517.29
		l-12.03,73.15l-88.79,0.28"/>
	<path style="fill:none;stroke:#9670D1;stroke-width:4;stroke-linecap:round;stroke-linejoin:round;" d="M1161.91,565.07
		l-17.31-4.63"/>
	<path style="fill:none;stroke:#9670D1;stroke-width:4;stroke-linecap:round;stroke-linejoin:round;" d="M1039.88,539.61
		l23.89-18.61"/>
	<path style="fill:none;stroke:#9670D1;stroke-width:4;stroke-linecap:round;stroke-linejoin:round;" d="M987.11,494.24l-3.89,24.91
		"/>
	<path style="fill:none;stroke:#45404D;stroke-width:4;stroke-linecap:round;stroke-linejoin:round;" d="M1243.38,938.84l18.52-3.98
		"/>
	<path style="fill:none;stroke:#45404D;stroke-width:4;stroke-linecap:round;stroke-linejoin:round;" d="M1244.77,954.67l17.32,1.86
		"/>
	<path style="fill:none;stroke:#45404D;stroke-width:4;stroke-linecap:round;stroke-linejoin:round;" d="M1064.51,951.9l17.87,3.61"
		/>
	<path style="fill:none;stroke:#45404D;stroke-width:4;stroke-linecap:round;stroke-linejoin:round;" d="M1060.71,965.23
		l15.37,10.37"/>
	<path style="fill:none;stroke:#222120;stroke-width:4;stroke-linecap:round;stroke-linejoin:round;" d="M868.22,422.12
		c13.15,3.7,26.3,7.77,39.08,12.77"/>
	<path style="fill:none;stroke:#222120;stroke-width:4;stroke-linecap:round;stroke-linejoin:round;" d="M862.3,431.84
		c15.74,3.7,37.59,14.16,37.59,14.16"/>
	<path style="fill:none;stroke:#222120;stroke-width:4;stroke-linecap:round;stroke-linejoin:round;" d="M882.48,454.98l10.93,3.98"
		/>
	<path style="opacity:0.3;fill:#9670D1;enable-background:new    ;" d="M1061.45,534.33c0.65-1.48,0.47-3.05-0.46-4.35
		c-0.93-1.3-2.41-2.13-3.98-2.13c-1.02,0-2.04,0.37-2.87,1.02l-14.35,11.11l6.66,31.11L1061.45,534.33z"/>
	<path style="fill:#FFFFFF;" d="M1334.95,971.99c-0.55-5.19-2.5-14.82-2.77-16.48c0-0.1-0.19-0.19-0.28-0.1l-106.94,46.11v0.09
		c-1.3,5.75-0.74,11.67,1.67,17.04l0.09,0.19L1334.95,971.99z"/>
	<path style="fill:#FFFFFF;" d="M1136.08,1018.65c1.48-4.91,3.52-14.63,3.89-16.11c0-0.09-0.1-0.18-0.19-0.18h-116.57h-0.09
		c-3.33,4.72-5.18,10.46-5.09,16.2v0.18L1136.08,1018.65z"/>
	<path style="fill:none;stroke:#45404D;stroke-width:4;stroke-linecap:round;stroke-linejoin:round;" d="M1283.94,916.9l17.31,51.85
		"/>
	<path style="fill:none;stroke:#45404D;stroke-width:4;stroke-linecap:round;stroke-linejoin:round;" d="M1111.82,948.38
		l-5.56,54.07"/>
</g>
<g>
	<path style="fill:#C98145;" d="M550.59,563.14l-4.15,27.96h-92.93l-5.38-27.88l-1.69-8.22l104.84,4.15L550.59,563.14z"/>
	<path style="fill:#FF4F32;" d="M414.34,547.86c3.61-28.34,11.9-64.13,23.42-82.57c10.37-16.66,36.48-25.72,36.48-25.72
		s-0.84-4.08-2.07-9.99h55.53l2.23,8.83c33.79-0.76,53.76,21.51,53.76,21.51l28.8,28.03l10.75-26.11l51.08,15.51
		c-5.45,35.95-20.2,78.8-49.54,83.57c-28.42,4.6-68.74-31.11-68.74-31.11l-4.91,30.34h-103l6.3,32.56l-11.68,15.06
		C430.47,599.32,409.73,583.96,414.34,547.86z"/>
	<path style="opacity:0.2;enable-background:new    ;" d="M619.79,470.21l5.14,30.34l-12.44-12.6L619.79,470.21z"/>
	<path style="opacity:0.2;enable-background:new    ;" d="M443.37,535.11l11.06,57.6L443.14,608c-4.23-2.92-9.3-6.45-14.21-11.45
		C435.53,586.72,441.99,578.58,443.37,535.11z"/>
	<path style="opacity:0.2;enable-background:new    ;" d="M555.89,530.58l-3.15,19.51l-12.83-34.33L555.89,530.58z"/>
	<path style="fill:#C98145;" d="M633.77,435.11c-3.08-24.58-1.54-46.85,0-50.69c0.92-2.23,4.61-0.77,6.91,2.3
		c3.07-23.04,10.75-33.79,16.13-33.02c3.07-4.61,7.68-4.61,9.98,0.77c4.61,0,5.84,3.76,6.15,7.68c0.77,10.75-1.54,22.27-0.77,34.56
		c2.3-6.15,8.45-26.65,13.06-26.12c6.91,0.77-1.77,21.51-0.77,41.48c1.53,31.49-7.68,38.4-7.68,38.4
		c-0.23,9.6-1.23,19.13-2.69,28.57l-51.54-15.59L633.77,435.11z"/>
	<path style="fill:none;stroke:#000000;stroke-width:4;stroke-linecap:round;stroke-linejoin:round;" d="M442.75,529.43l5.38,30.72"
		/>
	<path style="fill:none;stroke:#000000;stroke-width:4;stroke-linecap:round;stroke-linejoin:round;" d="M556.04,529.81l-10.44-8.83
		"/>
	<path style="fill:none;stroke:#000000;stroke-width:4;stroke-linecap:round;stroke-linejoin:round;" d="M612.49,487.95l11.52,11.52
		"/>
	<path style="fill:none;stroke:#2B2119;stroke-width:4;stroke-linecap:round;stroke-linejoin:round;" d="M666.64,354.47
		c0,0-5.38,18.43-6.91,46.85"/>
	<path style="fill:none;stroke:#2B2119;stroke-width:4;stroke-linecap:round;stroke-linejoin:round;" d="M656.81,353.7
		c0,0-7.14,15.36-9.45,45.31"/>
	<path style="fill:none;stroke:#2B2119;stroke-width:4;stroke-linecap:round;stroke-linejoin:round;" d="M672.17,396.71l-0.92,7.68"
		/>
	<path style="fill:none;stroke:#2B2119;stroke-width:4;stroke-linecap:round;stroke-linejoin:round;" d="M640.68,386.72
		c0.54,0-2.38,13.83-3.3,23.81"/>
	<path style="fill:#171413;" d="M478.24,1005.62c2.46,3.91,4.3,8.44,4.45,13.05H371.33c-1.16-4.3-2.31-8.68-3-13.05H478.24z"/>
	<path style="fill:#C98145;" d="M366.72,911.15c0.15-1.92,0.38-3.77,0.61-5.61l3.84-15.67l80.34,0.54c0,0-3.46,15.82-3.07,15.74
		c-10.68,32.41-15.67,57.15-6.45,67.21c1.99,2.22,4.22,4.3,6.45,6.22l-10.14,26.8h-50.08L365.1,974.2
		C364.03,953.16,364.57,932.11,366.72,911.15z"/>
	<path style="fill:#FF4F32;" d="M448.44,979.58c11.13,9.6,23.96,16.51,30.26,26.8h-45.93C433.46,995.48,439.22,985.49,448.44,979.58
		z"/>
	<path style="fill:#FF4F32;" d="M365.03,974.2c17.43,0.92,31.41,14.83,32.33,32.18h-28.88C366.72,995.71,365.57,984.95,365.03,974.2
		z"/>
	<path style="fill:none;stroke:#010101;stroke-width:4;stroke-linecap:round;stroke-linejoin:round;" d="M392.06,988.72l47.62-23.81
		"/>
	<path style="fill:#CDCDCD;" d="M378.39,857.38h87.41c-2.08,5.61-4.15,11.14-6.07,16.67c-4.15,11.29-7.99,22.12-11.29,32.18
		c-0.85,0.08-1.69,0.15-2.54,0.15c-8.45,0-15.82-5.53-18.28-13.59c-3.07,10.06-13.67,15.82-23.81,12.75
		c-6.14-1.84-10.9-6.61-12.75-12.75c-3.07,10.06-13.67,15.74-23.73,12.83c1.46-12.6,4-25.12,7.53-37.25
		C376.01,864.45,377.16,860.84,378.39,857.38z"/>
	<path style="fill:#9E76DD;" d="M410.5,750.62c0.76-86.02,12.28-124.19,43.01-161.82h14.51h28.5h49.92c0,0,36.1,113.44,29.95,209.44
		c-1.38,21.66-3.07,41.4-4.68,59.14l-0.08,0.08h-83.02c4.07-31.41,10.75-55.99,4.53-88.25c-2.08,12.6-4.76,24.27-8.14,34.41
		c-6.22,18.43-12.91,36.56-19.2,53.76l-0.54,0.77l-86.87,0.69v-1.46C391.6,819.98,410.04,798.47,410.5,750.62z"/>
	<path style="opacity:0.2;fill:#1D1D1D;enable-background:new    ;" d="M464.64,723.36c-12.13-58.22,1.16-71.12,1.16-71.12
		c-0.24,43.39,28.11,121.12,28.11,121.12c-2.69,7.91-14.21,46-16.98,53.76C476.86,827.12,478.62,790.56,464.64,723.36z"/>
	<path style="fill:#CDCDCD;" d="M430.16,656.15c-3.53,0-6.91-0.99-9.91-2.76c3-11.83,7.22-23.2,12.9-34.1h18.82l-3.07,20.66
		C447.52,649.24,439.61,656.15,430.16,656.15z"/>
	<path style="fill:#171413;" d="M619.4,1018.67H508.04c0,0-2-4.45-4.76-13.05h111.44C617.33,1009.53,619.25,1013.99,619.4,1018.67z"
		/>
	<path style="fill:#C98145;" d="M494.98,974.59c-4.45-21.66-7.3-43.71-8.45-65.75c-0.07-0.92,0-1.77-0.07-2.69
		c0.3,0.08,2.53-15.36,2.53-15.36l77.5-0.84l1.07,15.82c-2.3,33.1-1.61,54.84,7.99,65.28c2.92,3.08,6.14,6.07,9.45,8.68l-5.99,26.73
		h-61.22L494.98,974.59z"/>
	<path style="fill:#FF4F32;" d="M585,979.66c11.13,8.98,23.81,16.51,30.26,26.72h-45.7C570.17,995.55,575.86,985.65,585,979.66z"/>
	<path style="fill:#FF4F32;" d="M494.98,974.59c1.92-0.31,3.84-0.46,5.76-0.46c18.13,0,33.1,14.13,34.1,32.25h-31.56
		C499.97,995.94,497.21,985.34,494.98,974.59z"/>
	<path style="fill:none;stroke:#090909;stroke-width:4;stroke-linecap:round;stroke-linejoin:round;" d="M453.51,588.8h92.93"/>
	<path style="fill:none;stroke:#090909;stroke-width:4;stroke-linecap:round;stroke-linejoin:round;" d="M493.91,773.36
		c-1.62-9.6-4.07-18.97-7.38-28.11c-14.21-39.63-20.2-70.2-22.04-94.78"/>
	<path style="fill:#CDCDCD;" d="M518.79,619.29h-39.94l3,20.66c1.38,9.29,9.37,16.2,18.74,16.2c10.44,0,18.89-8.44,18.89-18.97
		c0-0.23,0-0.53,0-0.76L518.79,619.29z"/>
	<path style="fill:none;stroke:#010101;stroke-width:4;stroke-linecap:round;stroke-linejoin:round;" d="M527.24,986.41l45.31-23.81
		"/>
	<path style="fill:#CDCDCD;" d="M570.63,869.06c-1.15,13.13-2.22,25.11-2.99,35.86c-9.99,2.62-20.2-3.07-23.2-12.9
		c-3.07,10.06-13.67,15.82-23.81,12.75c-6.14-1.84-10.9-6.6-12.75-12.75c-2.45,8.07-9.9,13.6-18.28,13.6
		c-0.99,0-2.07-0.08-3.07-0.23c-0.53-12.6-0.23-25.27,1.08-37.87c0.38-3.69,0.61-7.3,1.07-10.91h83.11
		C571.4,860.92,571.02,865.06,570.63,869.06z"/>
	<path style="fill:#C98145;" d="M476.78,388.03c-2.31-12.29-10.22-28.26,3.22-39.4c13.45-11.14,26.5-25.04,44.17-18.13
		c16.66,6.53,20.04,19.59,26.88,39.94c0,0,7.68,0.77,8.45,3.84c0.84,3.3-3.84,9.22-3.84,9.22c5.37,16.89,6.06,25.88,0.3,33.95
		c-6.99,9.83-22.73,9.52-29.57,6.83l1.54,6.07h-55.76C469.41,417.14,478.39,396.48,476.78,388.03z"/>
	<path style="opacity:0.2;fill:#453528;enable-background:new    ;" d="M526.39,424.28l2.31,9.29l-14.9-15.05L526.39,424.28z"/>
	<path style="fill:#231F20;" d="M461.65,377.81c-1.15-8.29-1.85-18.35,0.61-26.95c-9.68,2.45-21.27-0.39-30.41-8.3
		c-13.67-11.98-16.59-30.95-6.53-42.47s29.34-11.22,43.01,0.77c9.83,8.6,14.13,20.81,11.98,31.33c13.14-5.99,29.96-7.37,43.55-1.99
		c7.3,2.68,13.67,8.21,17.36,15.05c0,0-4.15,5.3-21.05-1.61c25.35,26.88-9.98,20.73-9.98,20.73s3.84,3.84,3.84,13.83
		c0,0-23.5-7.07-27.65,4.61c-4.61,13.05,6.14,21.5,16.13,24.57c0,0,18.43,43.01,3.84,82.19H487.3c0,0-1.61-24.58-5.45-33.8
		l-19.2,33.8h-66.82C397.36,399.63,468.02,425.74,461.65,377.81z"/>
	<path style="opacity:0.2;enable-background:new    ;" d="M468.71,347.63l3.23,0.23c-3.84,8.14-11.37,15.82-11.37,15.82
		C460.73,354.08,461.11,349.01,468.71,347.63z"/>
	<path style="fill:#CCC5C4;" d="M501.89,419.6c-5.51,0-9.98-4.47-9.98-9.99c0-5.51,4.47-9.98,9.98-9.98c5.52,0,9.99,4.47,9.99,9.98
		C511.88,415.13,507.41,419.6,501.89,419.6z"/>
	<path style="fill:none;stroke:#2B2119;stroke-width:4;stroke-linecap:round;stroke-linejoin:round;" d="M526.39,424.28l-7.75-3.53"
		/>
	<path style="fill:none;stroke:#2B2119;stroke-width:4;stroke-linecap:round;stroke-linejoin:round;" d="M504.97,391.95l-8.45-3.08"
		/>
	<path style="fill:none;stroke:#2B2119;stroke-width:4;stroke-linecap:round;stroke-linejoin:round;" d="M547.98,391.95
		c-4.61,1.53-8.45-2.31-8.45-2.31"/>
	<path style="fill:none;stroke:#000000;stroke-width:4;stroke-linecap:round;stroke-linejoin:round;" d="M462.11,350.93
		c4.91-1.15,9.37-3.84,12.75-7.6c2.84-3.3,4.76-7.3,5.53-11.6"/>
	<path style="fill:none;stroke:#2B2119;stroke-width:4;stroke-linecap:round;stroke-linejoin:round;" d="M546.59,356.08
		c3.69-0.85,7.84,3.76,9.3,10.21c1.15,5.38,0.07,10.37-2.46,12.37"/>
	<path style="fill:none;stroke:#2B2119;stroke-width:4;stroke-linecap:round;stroke-linejoin:round;" d="M555.73,365.68
		l-41.55,10.91"/>
</g>
</svg>
