<?xml version="1.0" encoding="utf-8"?>
<!-- Generator: Adobe Illustrator 27.5.0, SVG Export Plug-In . SVG Version: 6.00 Build 0)  -->
<svg version="1.1" id="Layer_1" xmlns="http://www.w3.org/2000/svg" xmlns:xlink="http://www.w3.org/1999/xlink" x="0px" y="0px"
	 viewBox="0 0 1364 960" style="enable-background:new 0 0 1364 960;" xml:space="preserve">
<g>
	<path style="fill:#EDEDED;" d="M727.858,201.993c-0.057-0.433-0.088-0.872-0.088-1.316c0-7.173,7.713-12.988,17.227-12.988
		c0.795,0,1.571,0.054,2.336,0.133c-0.432-1.812-0.669-3.674-0.669-5.579c0-17.354,18.66-31.422,41.678-31.422
		c20.177,0,37.003,10.81,40.849,25.167c3.553-1.226,7.501-1.915,11.664-1.915c15.499,0,30.26,10.62,30.783,22.294
		c0.451,10.061-1.405,15.038-2.928,17.645c6.669,1.045,32.498,1.126,43.775,5.308H703.597
		C703.597,219.32,705.159,203.073,727.858,201.993z"/>
	<g>
		<path style="fill:#BFBC00;" d="M997.836,490.146c-6.394,0.55-12.817,1.256-19.263,2.121c0,0,3.508,3.267,7.884,7.088
			c-12.352,9.661-24.867,18.445-37.029,26.638c-0.47,0.302-0.933,0.609-1.396,0.917c-9.147,6.193-18.043,11.952-26.384,17.273
			c-0.29,0.175-0.502,0.322-0.792,0.498c-21.027,13.403-38.454,24.01-46.719,28.839c-2.137,1.247-3.65,2.107-4.444,2.548
			c-0.404,0.238-0.63,0.345-0.63,0.345c0,0-0.081-0.249-0.195-0.724c-0.206-0.797-0.577-2.248-1.033-4.312
			c-4.588-17.647-16.086-92.943,27.708-163.137c0.187-0.306,0.369-0.618,0.6-0.975c6.848-10.906,14.96-21.432,24.307-31.157
			c0.349-0.354,0.698-0.707,1.048-1.06c0.456-0.537,1.005-1.089,1.502-1.586c18.235-18.259,39.488-31.835,60.708-41.244
			c-3.595,6.065-2.624,11.335,0.399,16.261c0.225-6.595,3.918-16.941,16.923-23.013c13.546-4.627,26.882-7.672,39.39-9.56
			c0.353-0.084,0.731-0.111,1.089-0.187c45.487-6.492,78.714,2.359,83.696,3.53c0.475,0.113,0.732,0.191,0.732,0.191
			c0,0-0.116,0.23-0.353,0.633c-1.675,3.034-9.742,16.782-21.405,35.422c-0.192,0.286-0.384,0.571-0.546,0.911
			c-6.754,10.738-14.572,23.037-23.164,36.019c-0.265,0.427-0.695,0.829-1.135,1.103c-10.586,6.4-20.651,7.023-30.959,1.011
			c4.354,7.797,10.906,13.048,20.785,14.617c-3.436,5.024-7.02,10.075-10.734,15.108c-0.197,0.291-0.388,0.502-0.584,0.793
			c-11.349,15.373-23.701,30.689-38.106,45.101C1012.625,477.271,1005.247,483.908,997.836,490.146z"/>
		<g>
			<path style="fill:#141629;" d="M869.693,576.344c-0.004,0-0.009,0-0.013-0.001c-0.151-0.007-0.269-0.136-0.261-0.288
				c1.326-27.272,15.068-58.686,40.846-93.37c23.345-31.411,52.478-59.791,72.807-78.068
				c45.655-41.047,84.734-61.834,140.875-85.835c0.139-0.06,0.301,0.005,0.361,0.145c0.06,0.14-0.005,0.301-0.145,0.361
				c-56.087,23.977-95.125,44.742-140.724,85.738c-20.31,18.26-49.416,46.612-72.733,77.986
				c-25.712,34.596-39.418,65.909-40.739,93.07C869.961,576.23,869.839,576.344,869.693,576.344z"/>
		</g>
	</g>
	<g>
		<path style="fill:#FFAEAB;" d="M1061.2,541.577c0,0,5.864,32.17,3.537,46.833c-1.337,8.421-17.304,8.669-21.13-3.503
			c-3.827-12.172-1.998-34.908-1.998-34.908l-28.964-16.17c0,0,7.269-11.908,7.685-11.856
			C1020.745,522.025,1061.2,541.577,1061.2,541.577z"/>
		<g>
			
				<ellipse transform="matrix(0.7071 -0.7071 0.7071 0.7071 -221.2385 871.4862)" style="fill:#FFFFFF;" cx="941.358" cy="702.802" rx="190.768" ry="190.768"/>
			<g>
				<path style="fill:#14142E;" d="M941.464,895.704c-22.096,0-44.247-3.834-65.586-11.534
					c-47.238-17.046-85.45-51.264-107.596-96.351c-22.147-45.081-25.876-96.234-10.499-144.038
					c15.337-47.681,48.02-86.989,92.029-110.683c2.184-1.184,4.381-2.318,6.527-3.372c46.228-22.71,98.534-26.057,147.282-9.424
					c48.747,16.632,88.1,51.251,110.81,97.48c46.88,95.429,7.378,211.209-88.057,258.092c-2.124,1.049-4.354,2.091-6.626,3.094
					C994.768,890.106,968.157,895.703,941.464,895.704z M941.188,510.643c-28.959,0-57.755,6.631-84.509,19.774
					c-2.138,1.049-4.325,2.178-6.501,3.358c-91.283,49.145-126.952,160.584-81.205,253.704l0,0
					c33.397,67.99,101.051,107.597,171.989,107.599c26.232,0.001,52.909-5.415,78.474-16.813c2.265-1,4.484-2.036,6.598-3.081
					c95.055-46.696,134.399-162.013,87.707-257.062c-22.62-46.044-61.816-80.526-110.369-97.091
					C983.031,514.091,962.067,510.643,941.188,510.643z"/>
			</g>
			<path style="fill:#FFFFFF;" d="M1042.657,653.04c-27.438-55.856-95.204-78.976-151.06-51.538
				c-55.856,27.438-78.977,95.204-51.539,151.06c27.438,55.856,95.204,78.977,151.06,51.539
				C1046.975,776.663,1070.095,708.897,1042.657,653.04z"/>
			<path style="fill:#FA499A;" d="M1067.322,640.925c-34.12-69.46-118.382-98.207-187.841-64.087
				c-69.458,34.12-98.207,118.38-64.088,187.84c34.12,69.459,118.382,98.207,187.84,64.087
				C1072.694,794.646,1101.442,710.384,1067.322,640.925z"/>
			<path style="fill:#FFFFFF;" d="M1006.022,671.037c-17.516-35.657-60.771-50.415-96.429-32.899
				c-35.657,17.515-50.415,60.771-32.899,96.428c17.515,35.657,60.772,50.415,96.429,32.9
				C1008.779,749.95,1023.537,706.694,1006.022,671.037z"/>
			<path style="fill:#BFBC00;" d="M980.747,683.453c-10.669-21.72-37.018-30.71-58.738-20.04
				c-21.72,10.669-30.71,37.018-20.04,58.737c10.669,21.72,37.018,30.71,58.737,20.041
				C982.427,731.521,991.416,705.172,980.747,683.453z"/>
			<g>
				<path style="fill:#FFC930;" d="M1202.634,508.466c0,0-10.586,27.382-11,43.711c-0.059,2.333,0.115,4.951,0.697,7.806
					l-55.988,30.842l3.163-32.646l19.974-21.623l5.886,15.666l2.856-19.495L1202.634,508.466z"/>
				<path style="fill:#FFC930;" d="M1250.448,588.254c0,0-35-8.883-49.024-17.259c-2.004-1.197-4.123-2.743-6.226-4.76
					l-55.988,30.842l29.284,14.771l32.369-5.517l-13.42-11.518l25.738,6.968L1250.448,588.254z"/>
				<path style="fill:#0E1628;" d="M945.645,699.909c-0.034-1.946-0.068-3.891-0.102-5.837l247.203-136.177
					c3.261-1.8,7.073-0.21,8.04,2.487c0.805,2.244-0.377,5.209-3.059,6.555L950.524,703.114
					C948.898,702.046,947.271,700.978,945.645,699.909z"/>
				<polygon style="fill:#FFC930;" points="989.296,702.503 968.925,666.128 928.839,712.471 				"/>
				<polygon style="fill:#FFC930;" points="1005.906,693.201 985.534,656.826 945.448,703.169 				"/>
			</g>
		</g>
		<path style="fill:#FA499A;" d="M915.575,210.168c3.556,8.805,0.322,18.081-0.323,25.296c-1.119,12.517,4.795,23.908,10.426,26.798
			c-1.114,1.395-8.585,4.257-13.093,3.022c-2.08-0.57-3.394-5.01-3.394-5.01c-0.169,2.67,0.04,5.527,0.97,6.717
			c-11.044,8.401-54.683,6.658-59.996-12.747c-2.601-9.498,4.311-47.574,18.17-57.696c20.173-14.732,28.894,2.322,28.894,2.322
			S910.534,197.685,915.575,210.168z"/>
		<path style="fill:#8FAAFF;" d="M897.626,426.099c17.13,47.095,24.203,115.818-61.84,113.847
			c-36.569-0.838-83.967-62.56-83.967-62.56l63.363-60.832L897.626,426.099z"/>
		<path style="fill:#FFAEAB;" d="M823.365,282.407c-24.817,9.105-54.257,26.414-82.641,39.079
			c-44.658,23.652-25.131,80.06,26.01,58.464c30.136-13.24,52.952-21.426,78.31-43.849
			C866.101,317.483,862.471,268.059,823.365,282.407z"/>
		<path style="fill:#FFAEAB;" d="M755.182,332.723c-15.849-22.085-66.219-81.394-66.219-81.394l-46.759,44.001
			c0,0,29.853,53.472,57.196,80.392C731.936,407.757,781.173,370.555,755.182,332.723z"/>
		<g>
			<path style="fill:#FFAEAB;" d="M592.35,245.993c-3.6-7.905-4.24-19.093,7.099-18.572c-2.138-7.565,5.44-14.864,11.459-15.066
				c5.943-0.199,12.442-0.268,13.6,0.487c-0.021-1.443-14.377-11.277-14.377-11.277s-36.343-10.308-33.702-22.427
				c1.233-5.655,32.336-4.394,47.365,5.203c6.55,4.183,24.414,17.567,30.808,20.841c28.242,14.462,33.694,42.515,46.324,62.72
				l-49.909,43.998l-7.979-9.816c-10.049-1.813-26.003-14.564-32.966-25.962c1.191,0.958-2.716,13.039-12.18,5.922
				c-6.024-4.53-9.841-9.248-11.609-13.114C580.629,262.432,581.487,244.64,592.35,245.993z"/>
			<path style="fill:#FFAEAB;" d="M643.756,206.295c7.121-8.752,28.485,3.313,34.66,13.122c5.382,7.555,6.607,16.482,9.904,25.153
				c3.296,8.671,12.582,23.528,12.582,23.528l-35.49,3.53c-13.557-9.064-10.312-30.367-9.323-35.32
				c0.916-4.586-3.761-9.25-8.495-14.247C640.371,214.433,641.877,208.605,643.756,206.295z"/>
			<g>
				<path style="fill:#14142E;" d="M665.413,272.013c-0.074,0-0.148-0.021-0.213-0.065c-13.955-9.33-10.351-31.389-9.486-35.716
					c0.836-4.184-3.338-8.579-7.757-13.233l-0.64-0.675c-8.939-9.437-4.405-15.601-3.858-16.272c0.134-0.166,0.376-0.19,0.541-0.056
					c0.165,0.134,0.19,0.376,0.056,0.541c-0.503,0.618-4.667,6.298,3.819,15.257l0.64,0.674c4.561,4.803,8.868,9.339,7.954,13.913
					c-0.848,4.243-4.389,25.868,9.159,34.925c0.177,0.118,0.224,0.357,0.106,0.534C665.659,271.953,665.537,272.013,665.413,272.013
					z"/>
			</g>
			<g>
				<path style="fill:#14142E;" d="M624.076,255.987c-2.482,0.001-6.023-1.366-10.514-6.57
					c-9.593-11.115-14.417-21.733-14.464-21.838c-0.087-0.194,0-0.422,0.193-0.509c0.193-0.086,0.422-0.001,0.509,0.193
					c0.047,0.105,4.829,10.626,14.345,21.651c6.295,7.294,10.47,6.714,12.399,5.72c2.682-1.383,3.923-4.915,3.359-7.22
					c-1.177-4.81-5.674-15.772-5.719-15.883c-0.058-0.141-0.027-0.304,0.08-0.414c0.106-0.11,0.268-0.146,0.411-0.092l9.804,3.661
					c0.199,0.074,0.3,0.296,0.226,0.495c-0.075,0.199-0.296,0.298-0.496,0.226l-8.983-3.355c1.07,2.649,4.423,11.087,5.424,15.179
					c0.646,2.638-0.709,6.517-3.754,8.087C626.208,255.674,625.263,255.987,624.076,255.987z"/>
			</g>
			<g>
				<path style="fill:#14142E;" d="M613.213,268.977c-1.128,0-2.246-0.256-3.284-0.783c-7.328-3.726-11.518-11.012-15.214-17.44
					c-0.919-1.599-1.788-3.109-2.691-4.557c-0.113-0.18-0.057-0.418,0.122-0.531c0.182-0.113,0.418-0.057,0.531,0.122
					c0.911,1.46,1.783,2.976,2.706,4.581c3.821,6.645,7.772,13.515,14.896,17.137c3.307,1.682,6.834,0.127,8.865-2.159
					c2.144-2.414,3.449-6.469,0.685-10.611c-0.118-0.177-0.07-0.416,0.106-0.534c0.178-0.119,0.417-0.069,0.534,0.106
					c3.012,4.511,1.478,9.041-0.75,11.549C617.916,267.889,615.542,268.977,613.213,268.977z"/>
			</g>
			<g>
				<path style="fill:#14142E;" d="M604.639,284.414c-0.205,0-0.375-0.162-0.384-0.368c-0.009-0.213,0.156-0.392,0.368-0.401
					c0.979-0.042,1.994-0.544,2.783-1.379c0.668-0.706,1.199-1.642,1.624-2.864c1.676-4.815,0.378-10.47-3.23-14.073
					c-0.151-0.15-0.151-0.394,0-0.544c0.15-0.15,0.395-0.151,0.544-0.001c3.812,3.806,5.184,9.783,3.414,14.871
					c-0.462,1.326-1.048,2.354-1.792,3.141c-0.926,0.978-2.132,1.568-3.31,1.618C604.651,284.414,604.645,284.414,604.639,284.414z"
					/>
			</g>
		</g>
		<polygon style="fill:#141629;" points="811.542,315.205 798.885,365.698 817.197,357.484 		"/>
		<path style="fill:#8FAAFF;" d="M646.629,410.884l108.038,75.257c65.356,45.526,118.899-21.315,53.543-66.841l-108.038-75.257
			C643.485,304.556,589.943,371.397,646.629,410.884z"/>
		<polygon style="fill:#141629;" points="814.08,469.737 754.667,486.141 767.726,496.759 		"/>
		<g>
			
				<rect x="657.067" y="581.658" transform="matrix(0.4526 -0.8917 0.8917 0.4526 -159.9076 958.4263)" style="fill:#FFAEAB;" width="87.155" height="55.586"/>
			<polygon style="fill:#141629;" points="712.887,566.796 656.139,635.733 695.582,558.014 			"/>
			<path style="fill:#FA499A;" d="M724.827,573.105c-16.445,17.926-0.238,47.746-21.236,49.723h0
				c-15.235-6.507-32.86,0.569-39.367,15.804l24.228,19.643l23.125,86.585l66.983-156.836L724.827,573.105z"/>
			<path style="fill:#FFFFFF;" d="M784.323,602.38l-58.39,136.717c-2.373,5.556-8.8,8.136-14.355,5.763l0,0
				c39.057-79.321,12.064-150.711,66.983-156.836v0C784.115,590.398,786.695,596.825,784.323,602.38z"/>
			<g>
				<path style="fill:#14142E;" d="M715.871,746.13c-1.509,0-3.016-0.306-4.446-0.916c-0.097-0.041-0.173-0.121-0.209-0.22
					c-0.037-0.099-0.031-0.209,0.016-0.304c16.118-32.735,21.039-64.563,24.992-90.137c5.68-36.74,9.784-63.286,42.294-66.911
					c0.065-0.009,0.133,0.002,0.194,0.028c5.742,2.453,8.417,9.119,5.965,14.861l-58.39,136.717
					c-1.188,2.781-3.388,4.934-6.195,6.061C718.727,745.857,717.299,746.13,715.871,746.13z M712.105,744.659
					c2.492,0.956,5.211,0.935,7.7-0.064c2.616-1.05,4.666-3.057,5.773-5.649l58.39-136.718c2.273-5.32-0.18-11.492-5.468-13.81
					c-31.834,3.604-35.895,29.888-41.516,66.252C733.037,680.2,728.129,711.949,712.105,744.659z"/>
			</g>
			
				<rect x="694.322" y="674.053" transform="matrix(0.9658 -0.2591 0.2591 0.9658 -151.819 205.4916)" style="fill:#FFC954;" width="18.525" height="9.18"/>
			
				<rect x="689.373" y="655.606" transform="matrix(0.9658 -0.2591 0.2591 0.9658 -147.208 203.5792)" style="fill:#FFC954;" width="18.525" height="9.18"/>
			<path style="fill:#FFFFFF;" d="M711.898,681.164c-2.964-1.266-4.34-4.695-3.075-7.659c1.266-2.964,4.695-4.34,7.659-3.075
				c2.964,1.266,4.341,4.695,3.075,7.659C718.291,681.053,714.862,682.43,711.898,681.164z"/>
			<path style="fill:#FFFFFF;" d="M708.186,662.385c-2.964-1.266-4.34-4.695-3.075-7.659c1.266-2.964,4.695-4.34,7.659-3.075
				c2.964,1.266,4.34,4.695,3.075,7.659C714.579,662.274,711.15,663.651,708.186,662.385z"/>
		</g>
		<g>
			<polygon style="fill:#FFAEAB;" points="628.017,847.337 506.872,796.168 560.331,728.668 652.601,776.471 			"/>
			<polygon style="fill:#141629;" points="639.982,820.176 565.459,742.016 664.212,768.587 			"/>
			<g>
				<path style="fill:#FA499A;" d="M640.795,817.271c-33.082-11.65-69.565,9.255-84.08-17.466l0,0
					c-0.003-23.884,2.382-40.602-21.503-40.6l-34.069,40.605l-101.699,79.703l245.877-0.026L640.795,817.271z"/>
				<path style="fill:#FFFFFF;" d="M629.553,895.26l-214.337,0.022c-8.71,0.001-15.771-7.059-15.772-15.769l0,0
					c127.289,6.855,206.651-69.369,245.877-0.026l0,0C645.323,888.198,638.263,895.26,629.553,895.26z"/>
				<g>
					<path style="fill:#14142E;" d="M415.216,895.668c-4.315,0-8.372-1.68-11.424-4.731c-3.052-3.051-4.733-7.108-4.733-11.423
						c0-0.106,0.043-0.207,0.12-0.279c0.076-0.073,0.18-0.101,0.286-0.105c52.554,2.833,97.556-8.678,133.714-17.924
						c51.855-13.262,89.321-22.842,112.477,18.094c0.033,0.058,0.05,0.123,0.05,0.19c0,4.315-1.68,8.372-4.73,11.424
						c-3.051,3.051-7.108,4.732-11.423,4.733L415.216,895.668z M629.553,895.26h0.01H629.553z M399.835,879.92
						c0.102,3.957,1.691,7.663,4.501,10.473c2.906,2.906,6.77,4.506,10.88,4.505l214.337-0.022
						c4.109-0.001,7.973-1.601,10.879-4.508c2.882-2.882,4.479-6.706,4.505-10.778c-22.871-40.322-60.081-30.805-111.566-17.639
						C497.257,871.187,452.332,882.68,399.835,879.92z"/>
				</g>
				
					<rect x="469.357" y="824.794" transform="matrix(0.6177 0.7864 -0.7864 0.6177 838.3354 -61.7775)" style="fill:#FFD659;" width="26.709" height="13.235"/>
				
					<rect x="491.011" y="807.783" transform="matrix(0.6177 0.7864 -0.7864 0.6177 833.2365 -85.3086)" style="fill:#FFD659;" width="26.709" height="13.235"/>
				<path style="fill:#FFFFFF;" d="M484.078,843.862c-0.001-4.647,3.766-8.414,8.412-8.414c4.647,0,8.414,3.766,8.414,8.413
					c0.001,4.647-3.766,8.414-8.412,8.414C487.845,852.275,484.078,848.509,484.078,843.862z"/>
				<circle style="fill:#FFFFFF;" cx="515.285" cy="828.302" r="8.413"/>
			</g>
		</g>
		<path style="fill:#8FAAFF;" d="M712.112,388.087c-20.653-81.915-102.786-53.636-88.864,9.342l26.422,229.451l111.824-37.04
			L712.112,388.087z"/>
		<path style="fill:#FFD659;" d="M810.36,335.663c-0.85,32.915,0.331,49.233,4.822,80.891c11.947,8.738,84.567,11.722,84.567,11.722
			c7.826-35.237,22.946-95.454,43.013-128.309c-2.951-21.178-71.175-27.139-91.105-24.418
			C812.716,276.841,811.62,302.161,810.36,335.663z"/>
		<g>
			<path style="fill:#FFFFFF;" d="M908.189,362.102c-0.087,0-0.176-0.03-0.248-0.091l-21.306-17.953l-12.193,17.876
				c-0.067,0.098-0.175,0.16-0.293,0.167c-0.109,0.007-0.233-0.039-0.312-0.127l-16.082-17.934L841.05,359.95
				c-0.076,0.073-0.182,0.106-0.286,0.106c-0.106-0.006-0.205-0.055-0.273-0.136l-12.53-14.879l-15.853,14.879
				c-0.156,0.144-0.399,0.137-0.545-0.017c-0.146-0.155-0.138-0.399,0.017-0.545l16.15-15.157c0.078-0.073,0.182-0.102,0.286-0.104
				c0.105,0.006,0.204,0.056,0.272,0.136l12.528,14.876l16.696-15.9c0.075-0.071,0.183-0.116,0.28-0.106
				c0.104,0.004,0.202,0.05,0.272,0.127l16.019,17.863l12.157-17.823c0.061-0.09,0.158-0.15,0.266-0.164
				c0.108-0.016,0.217,0.017,0.3,0.087l21.632,18.228c0.163,0.137,0.183,0.38,0.046,0.542
				C908.407,362.055,908.299,362.102,908.189,362.102z"/>
		</g>
		<g>
			<path style="fill:#FFFFFF;" d="M908.189,387.521c-0.087,0-0.176-0.03-0.248-0.091l-21.306-17.953l-12.193,17.876
				c-0.067,0.098-0.175,0.159-0.293,0.167c-0.109,0.01-0.233-0.038-0.312-0.127l-16.082-17.934l-16.705,15.91
				c-0.076,0.073-0.182,0.105-0.286,0.106c-0.106-0.006-0.205-0.055-0.273-0.137l-12.518-14.865l-15.054,15.418
				c-0.149,0.152-0.392,0.155-0.545,0.006c-0.152-0.149-0.155-0.393-0.007-0.545l15.35-15.721c0.076-0.077,0.195-0.121,0.289-0.116
				c0.109,0.004,0.211,0.054,0.28,0.137l12.528,14.877l16.696-15.901c0.075-0.071,0.183-0.115,0.28-0.106
				c0.104,0.004,0.202,0.05,0.272,0.127l16.019,17.863l12.157-17.823c0.061-0.09,0.158-0.15,0.266-0.164
				c0.108-0.016,0.217,0.017,0.3,0.087l21.632,18.228c0.163,0.137,0.183,0.38,0.046,0.543
				C908.407,387.475,908.299,387.521,908.189,387.521z"/>
		</g>
		<polygon style="fill:#141629;" points="905.867,324.132 905.537,372.356 902.361,416.808 918.456,365.253 		"/>
		<path style="fill:#8FAAFF;" d="M742.513,618.438c0,0,114.585-53.193,139.44-76.919c48.349-46.155,12.899-118.868-57.647-77.744
			L707.69,531.757C646.502,567.426,681.326,654.107,742.513,618.438z"/>
		<path style="fill:#FFAEAB;" d="M958.702,307.541c13.584,26.157,18.517,59.089,27.056,111.745
			c7.889,48.644-53.607,44.466-62.021,0.82c-7.261-37.671-23.388-90.923-17.461-114.534
			C915.269,269.74,946.823,284.667,958.702,307.541z"/>
		<g>
			<g>
				<path style="fill:#FFAEAB;" d="M896.581,238.874c0,0,5.174-6.841,9.731-1.855c4.581,5.013-4.309,19.755-10.421,11.161
					L896.581,238.874z"/>
			</g>
			<path style="fill:#FFAEAB;" d="M862.407,223.833c2.737-5.291,11.374-13.196,19.032-12.559
				c7.913,0.658,14.829,10.047,16.167,16.486c1.352,6.501,4.468,20.773-3.84,27.635c-5.005,4.134-10.149,3.101-10.766,11.02
				c-0.209,2.685,1.942,8.917,2.602,10.727c-7.559,13.776-22.391,4.808-14.301-5.22c1.032-1.605,2.036-3.204,2.686-5.64
				c0.735-2.75-0.114-4.947-2.69-6.158c-4.13-1.942-7.288-2.339-12.155-8.327C852.114,243.153,859.318,229.807,862.407,223.833z"/>
			<path style="fill:#141629;" d="M882.348,260.109c-1.998,2.161-8.212,4.167-8.212,4.167s-0.487-2.822-2.293-3.926
				c1.058,0.627,3.016,0.944,5.127,0.898C879.039,261.204,881.259,260.811,882.348,260.109z"/>
		</g>
		<path style="fill:#8FAAFF;" d="M751.819,605.099c38.01-68.456-29.113-131.254-75.355-47.971L553.895,736.591l117.468,62.548
			L751.819,605.099z"/>
		<path style="fill:#FFD659;" d="M872.934,266.641c-2.415-0.707-8.132-2.034-9.73,7.958c-0.923,5.77,1.082,14.838,7.807,16.833
			c6.725,1.996,20.26-13.038,19.965-14.998c-0.295-1.96-1.049-10.827-8.633-9.538C880.09,267.279,872.934,266.641,872.934,266.641z"
			/>
		<path style="fill:#FA499A;" d="M899.824,237.247c-2.45-2.23,0.372-7.189-2.301-9.19c-2.794-2.268-17.364-3.6-21.328-6.916
			c-1.321-1.105-1.475-2.602,0.361-4.71c-3.529,2.217-2.608,4.251-4.793,4.435c-4.806,0.405-10.062,2.706-11.825,7.473
			c-3.34-15.641,12.838-22.601,25.651-20.734C902.374,210.05,907.204,227.657,899.824,237.247z"/>
		<path style="fill:#FFAEAB;" d="M933.418,444.154c-20.691-35.151,10.51-78.781,43.084-45.773
			c24.314,24.637,64.891,98.865,64.891,98.865l-43.11,30.462C998.283,527.707,946.137,464.784,933.418,444.154z"/>
		<g>
			<path style="fill:#14142E;" d="M732.097,470.122c-0.173,0-0.33-0.118-0.373-0.294l-14.824-60.566
				c-0.05-0.206,0.076-0.415,0.283-0.465c0.203-0.052,0.415,0.075,0.465,0.283l14.824,60.565c0.05,0.206-0.076,0.415-0.282,0.465
				C732.158,470.118,732.128,470.122,732.097,470.122z"/>
		</g>
		<path style="fill:#FA499A;" d="M933.111,191.912c17.592,16.336-0.143,48.805-21.698,29.424l-3.833-9.42
			C905.409,196.23,918.221,178.084,933.111,191.912z"/>
		<g>
			<path style="fill:#FFFFFF;" d="M902.641,482.54c-0.086,0-0.172-0.028-0.243-0.087c-8.617-7.026-17.528-14.292-24.356-23.374
				c-7.626-10.143-11.367-21.357-10.533-31.573c0.017-0.212,0.21-0.375,0.415-0.352c0.212,0.017,0.37,0.203,0.352,0.415
				c-0.818,10.029,2.869,21.056,10.382,31.048c6.772,9.007,15.646,16.243,24.227,23.24c0.165,0.135,0.19,0.377,0.055,0.542
				C902.864,482.491,902.753,482.54,902.641,482.54z"/>
		</g>
		<g>
			<path style="fill:#FFFFFF;" d="M643.053,748.412c-0.06,0-0.12-0.014-0.177-0.044c-0.189-0.098-0.263-0.33-0.164-0.519
				l89.044-171.481c0.046-0.088,0.123-0.155,0.216-0.187c0.391-0.134,39.45-13.672,78.003-33.505
				c35.506-18.267,77.831-45.749,77.831-72.939c0-0.213,0.172-0.385,0.385-0.385s0.385,0.172,0.385,0.385
				c0,22.142-26.329,46.914-78.256,73.627c-37.409,19.245-75.292,32.568-77.952,33.495l-88.974,171.345
				C643.327,748.336,643.192,748.412,643.053,748.412z"/>
		</g>
		<g>
			<path style="fill:#FFFFFF;" d="M672.341,764.081c-0.062,0-0.125-0.015-0.183-0.047l-89.81-48.781
				c-0.187-0.102-0.256-0.335-0.155-0.522c0.101-0.186,0.333-0.257,0.522-0.155l89.81,48.781c0.187,0.102,0.256,0.335,0.155,0.522
				C672.611,764.008,672.478,764.081,672.341,764.081z"/>
		</g>
		<g>
			<path style="fill:#FFAEAB;" d="M985.097,494.766c0,0,4.782,38.482,9.832,50.698c2.28,5.515,12.512,6.43,15.362,28.271
				c1.108,8.494,17.796,9.98,20.56-7.145c2.886-17.881-8.409-32.613-8.409-32.613c7.825-2.815,22.652,4.715,32.878,10.801
				c0,0,4.736,16.714,12.481,29.096c7.745,12.382,24.454,11.465,21.495-2.007c-2.959-13.472-13.815-42.945-15.27-46.508
				s-25.023-20.857-25.023-20.857l-13.63-15.951L985.097,494.766z"/>
			<g>
				<path style="fill:#302121;" d="M1081.715,582.875c-4.685,0-10.389-2.847-14.147-8.856
					c-7.357-11.761-12.061-27.613-12.482-29.061c-15.381-9.142-26.633-12.851-32.551-10.723c-0.142,0.048-0.3-0.023-0.352-0.166
					c-0.051-0.143,0.023-0.3,0.166-0.352c6.174-2.22,17.314,1.421,33.112,10.824c0.06,0.036,0.105,0.094,0.124,0.161
					c0.047,0.167,4.815,16.82,12.45,29.025c4.665,7.459,12.371,9.906,17.128,7.966c3.506-1.431,4.914-4.991,3.865-9.768
					c-0.033-0.148,0.061-0.295,0.209-0.328c0.146-0.029,0.295,0.061,0.328,0.21c1.112,5.064-0.416,8.853-4.194,10.395
					C1084.277,582.648,1083.037,582.875,1081.715,582.875z"/>
			</g>
			<g>
				<path style="fill:#302121;" d="M1018.376,580.164c-0.052,0-0.103,0-0.154-0.002c-4.347-0.065-7.72-2.694-8.203-6.392
					c-0.019-0.15,0.087-0.288,0.237-0.308c0.145-0.024,0.288,0.086,0.308,0.237c0.446,3.42,3.599,5.852,7.666,5.914
					c0.048,0,0.097,0.001,0.146,0.001c4.691,0,10.645-3.409,12.204-13.068c2.833-17.553-8.243-32.256-8.356-32.403
					c-0.092-0.12-0.07-0.293,0.051-0.385c0.118-0.093,0.293-0.07,0.385,0.051c0.114,0.149,11.334,15.033,8.462,32.826
					C1029.509,576.633,1023.285,580.164,1018.376,580.164z"/>
			</g>
		</g>
		<g>
			<g>
				<g>
					<path style="fill:#141629;" d="M888.865,236.962c0.279-1.791-0.947-3.47-2.738-3.749c-1.791-0.279-3.47,0.947-3.749,2.738
						c-0.279,1.791,0.947,3.47,2.738,3.749C886.907,239.979,888.586,238.753,888.865,236.962z"/>
					<path style="fill:#141629;" d="M886.232,233.23c2.443,0.511,2.464,2.712,5.014,3
						C890.418,236.865,886.731,237.105,886.232,233.23z"/>
					<path style="fill:#FFFFFF;" d="M887.593,236.153c0.065-0.421-0.223-0.815-0.644-0.881c-0.421-0.066-0.815,0.223-0.881,0.643
						c-0.066,0.421,0.222,0.815,0.643,0.881C887.132,236.862,887.527,236.574,887.593,236.153z"/>
				</g>
				<g>
					<path style="fill:#141629;" d="M862.6,232.737c0.28-1.798,1.965-3.029,3.763-2.749c1.798,0.28,3.029,1.965,2.749,3.764
						c-0.28,1.798-1.965,3.029-3.763,2.749C863.551,236.22,862.32,234.536,862.6,232.737z"/>
					<path style="fill:#141629;" d="M866.258,229.972c-2.493-0.258-3.185,1.841-5.712,1.338
						C861.145,232.17,864.597,233.525,866.258,229.972z"/>
					<path style="fill:#FFFFFF;" d="M864.064,232.352c0.066-0.423,0.462-0.712,0.884-0.646c0.423,0.066,0.712,0.462,0.646,0.884
						c-0.066,0.423-0.462,0.712-0.884,0.646C864.288,233.171,863.999,232.775,864.064,232.352z"/>
				</g>
				<g>
					<path style="fill:#141629;" d="M874.242,243.661c-0.014,0-0.029-0.001-0.042-0.003c-0.723-0.112-1.622-0.251-2.3-0.789
						c-0.705-0.56-1.069-1.669-0.489-2.427c0.518-0.676,1.629-1.09,2.225-1.313c0.876-0.326,2.473-4.414,2.334-5.56
						c-0.018-0.151,0.089-0.288,0.24-0.306c0.144-0.021,0.288,0.089,0.306,0.24c0.139,1.147-1.399,5.662-2.688,6.142
						c-0.545,0.203-1.559,0.582-1.981,1.132c-0.367,0.48-0.094,1.273,0.395,1.662c0.564,0.449,1.349,0.57,2.042,0.677
						c0.15,0.023,0.253,0.164,0.23,0.314C874.493,243.564,874.376,243.661,874.242,243.661z"/>
				</g>
				<g>
					<path style="fill:#141629;" d="M889.438,231.979c-0.105,0-0.205-0.061-0.251-0.163c-0.451-1.008-1.361-1.741-2.434-1.961
						c-0.871-0.18-1.704,0.026-2.286,0.562c-0.111,0.104-0.286,0.097-0.388-0.016c-0.103-0.112-0.096-0.286,0.016-0.388
						c0.713-0.658,1.723-0.912,2.769-0.697c1.246,0.256,2.302,1.107,2.825,2.276c0.062,0.139,0,0.301-0.138,0.363
						C889.514,231.971,889.476,231.979,889.438,231.979z"/>
				</g>
				<g>
					<path style="fill:#141629;" d="M870.313,228.319c-0.1,0-0.197-0.055-0.245-0.15c-0.501-0.983-1.447-1.669-2.53-1.835
						c-0.884-0.138-1.701,0.113-2.254,0.678c-0.107,0.11-0.28,0.111-0.389,0.004c-0.108-0.106-0.111-0.28-0.004-0.389
						c0.68-0.693,1.671-0.996,2.731-0.837c1.257,0.193,2.355,0.988,2.936,2.128c0.069,0.135,0.015,0.301-0.12,0.37
						C870.397,228.309,870.355,228.319,870.313,228.319z"/>
				</g>
			</g>
			<g>
				<path style="fill:#141629;" d="M881.754,246.126c-0.016,1.24-0.685,2.816-1.767,4.151c-1.269,1.56-3.112,2.796-5.14,2.778
					c-2.002-0.017-3.784-1.246-5.014-2.795c-1.084-1.369-1.734-2.989-1.719-4.251C872.656,247.482,877.202,247.529,881.754,246.126z
					"/>
				<path style="fill:#FA499A;" d="M879.987,250.277c-1.269,1.56-3.112,2.796-5.14,2.778c-2.002-0.017-3.784-1.246-5.014-2.795
					c1.257-0.612,3.11-0.992,5.163-0.974C876.973,249.303,878.75,249.681,879.987,250.277z"/>
			</g>
		</g>
		<g>
			<path style="fill:#14142E;" d="M624.876,633.045c-0.082,0-0.164-0.026-0.234-0.08c-0.169-0.129-0.2-0.371-0.07-0.54
				c3.383-4.397,10.147-14.603,17.98-26.42c13.653-20.598,30.646-46.233,40.403-57.357c14.047-16.013,69.259-43.341,69.815-43.615
				c0.191-0.094,0.422-0.016,0.516,0.175c0.094,0.191,0.016,0.422-0.175,0.516c-0.555,0.273-55.629,27.533-69.576,43.433
				c-9.723,11.085-26.7,36.696-40.34,57.275c-7.841,11.829-14.613,22.045-18.012,26.464
				C625.106,632.994,624.991,633.045,624.876,633.045z"/>
		</g>
	</g>
	<g>
		<circle style="fill:#FFFFFF;" cx="533.132" cy="158.233" r="93.68"/>
		<g>
			<path style="fill:#14142E;" d="M533.132,252.298c-51.868,0-94.065-42.197-94.065-94.066c0-51.868,42.198-94.065,94.065-94.065
				c51.868,0,94.065,42.197,94.065,94.065C627.197,210.101,585,252.298,533.132,252.298z M533.132,64.937
				c-51.443,0-93.295,41.852-93.295,93.295c0,51.443,41.852,93.295,93.295,93.295c51.443,0,93.295-41.852,93.295-93.295
				C626.427,106.789,584.575,64.937,533.132,64.937z"/>
		</g>
	</g>
	<g>
		<g>
			<path style="fill:#14142E;" d="M509.842,560.031c-36.635,0-66.44-29.805-66.44-66.439c0-36.635,29.805-66.44,66.44-66.44
				c36.635,0,66.439,29.805,66.439,66.44C576.281,530.226,546.476,560.031,509.842,560.031z M509.842,427.922
				c-36.21,0-65.67,29.459-65.67,65.67s29.459,65.669,65.67,65.669s65.669-29.459,65.669-65.669S546.052,427.922,509.842,427.922z"
				/>
		</g>
		<g>
			<path style="fill:#141629;" d="M531.854,523.379c-0.663,2.294-4.355,3.418-9.84,3.397c-5.959-0.02-14.044-1.389-22.673-4.076
				c-16.573-5.16-28.886-13.224-27.503-18.009c0.052-0.179,0.127-0.346,0.214-0.51c-0.031-0.042-0.063-0.08-0.094-0.122
				c4.061-11.207,8.12-22.409,12.177-33.612l55.477,17.274c-2.555,11.671-5.106,23.343-7.659,35.019l-0.003-0.001
				C531.939,522.959,531.914,523.174,531.854,523.379z"/>
			<g>
				<polygon style="fill:#394D91;" points="462.563,460.49 508.804,488.839 562.903,491.734 516.723,462.307 				"/>
			</g>
			<g>
				<path style="fill:#FFC508;" d="M552.464,546.1c0.825,0.633,2.045,1.407,3.64,1.877c2.425,0.715,5.124,0.564,5.279-0.254
					c0.318-1.68-5.259-1.695-5.356-2.321c-0.195-1.256,5.143,0.494,5.574-0.377c0.624-1.26,0.82-4.293,0.312-5.284
					c-0.875-1.705-3.737-0.723-5.1-0.254c-1.835,0.63-3.232,1.683-4.06,2.399c-1.516-1.064-3.228-0.571-3.99,0.74
					c-0.399,0.687-0.573,1.661-0.362,2.413C548.788,546.417,550.484,547.12,552.464,546.1z"/>
			</g>
			<path style="fill:#FFC508;" d="M515.055,472.925c0.502-0.938,1.658-1.081,2.581-0.319c0.923,0.762,1.264,2.141,0.762,3.079
				c-0.067,0.124-0.146,0.233-0.233,0.329c1.874,5.231,4.751,9.65,8.388,12.747c4.229,3.601,9.495,5.008,13.489,9.07
				c1.724,1.754,3.197,4.01,3.965,6.809c0.757,2.76,0.741,5.867,0.316,8.975c-0.87,6.369-3.366,13.052-2.704,19.326
				c0.352,3.336,1.587,6.263,3.473,8.241c2.202,2.31,5.257,3.097,8.302,2.359c0.725-0.176,0.641,1.318-0.078,1.492
				c-5.287,1.281-10.204-1.967-12.079-8.05c-0.877-2.845-1.009-6.034-0.621-9.313c0.387-3.276,1.175-6.519,1.844-9.766
				c0.66-3.204,1.245-6.547,0.983-9.689c-0.259-3.098-1.367-5.678-2.932-7.716c-3.66-4.768-9.088-6.182-13.508-9.508
				c-4.389-3.302-7.863-8.369-9.985-14.506c-0.398-0.014-0.817-0.166-1.198-0.481C514.894,475.242,514.553,473.863,515.055,472.925z
				"/>
		</g>
	</g>
	<g>
		<path style="fill:#FFD659;" d="M555.096,114.603c-12.183-17.351-36.084-26.445-57.293-15.489
			c-20.779,10.733-27.502,34.617-20.92,54.313c6.366,19.051,24.206,32.797,45.359,35.052c4.571,0.487,8.596,3.232,10.801,7.266
			l3.457,6.327c8.269-4.518,16.539-9.035,24.808-13.553c-1.045-1.913-2.09-3.826-3.135-5.739c-2.255-4.127-2.285-9.092-0.144-13.279
			C567.199,151.564,566.15,130.346,555.096,114.603z"/>
		<path style="fill:#141629;" d="M536.502,202.07l24.787-13.542c1.715,2.955,13.047,23.013,2.336,30.703
			c-0.994,0.713-1.921,1.136-2.503,1.367C548.856,225.463,538.066,205.106,536.502,202.07z"/>
		<g>
			<path style="fill:#0F0F5C;" d="M557.233,221.744c-10.153,0-18.526-14.555-21.073-19.498c-0.096-0.186-0.026-0.414,0.157-0.514
				l24.788-13.542c0.183-0.102,0.413-0.036,0.518,0.145c3.153,5.433,12.631,23.74,2.227,31.209
				c-0.798,0.573-1.667,1.049-2.585,1.413C559.897,221.499,558.549,221.744,557.233,221.744z M537.017,202.227
				c2.372,4.517,12.662,22.496,23.963,18.014c0.859-0.341,1.673-0.786,2.42-1.322c9.868-7.085,0.27-25.44-2.257-29.872
				L537.017,202.227z"/>
		</g>
		<path style="fill:#394D91;" d="M566.827,199.817l-24.571,13.423c-1.067,0.583-2.396,0.235-2.945-0.77
			c-0.549-1.005-0.123-2.311,0.944-2.894l24.571-13.423c1.067-0.583,2.396-0.235,2.945,0.769
			C568.32,197.928,567.894,199.234,566.827,199.817z"/>
		<path style="fill:#394D91;" d="M562.682,191.321l-24.441,13.352c-1.061,0.58-2.386,0.23-2.935-0.775
			c-0.549-1.005-0.128-2.309,0.933-2.888l24.441-13.352c1.061-0.58,2.386-0.23,2.935,0.775
			C564.165,189.437,563.744,190.741,562.682,191.321z"/>
		<g>
			<path style="fill:#14142E;" d="M542.782,196.552c-0.087,0-0.173-0.041-0.226-0.119l-26.067-37.771
				c-0.068-0.098-0.065-0.228,0.007-0.323c0.072-0.095,0.197-0.132,0.309-0.093c2.262,0.788,4.147,0.711,5.6-0.226
				c2.622-1.689,3.015-5.653,3.019-5.693c0.008-0.08,0.05-0.153,0.116-0.2c0.067-0.046,0.15-0.06,0.227-0.041
				c5.454,1.406,8.052-2.893,8.16-3.077c0.052-0.087,0.156-0.143,0.25-0.135c0.102,0.005,0.193,0.066,0.236,0.158l19.655,42.257
				c0.064,0.138,0.004,0.301-0.133,0.365c-0.136,0.066-0.301,0.004-0.365-0.133l-19.453-41.823
				c-0.841,1.115-3.548,4.039-8.184,2.993c-0.149,1.022-0.801,4.225-3.227,5.789c-1.432,0.923-3.217,1.099-5.312,0.524
				l25.614,37.115c0.086,0.125,0.055,0.296-0.07,0.382C542.891,196.536,542.836,196.552,542.782,196.552z"/>
		</g>
		<g>
			<path style="fill:#14142E;" d="M535.505,149.4c-1.729,0-3.361-0.66-4.608-1.865c-1.273-1.232-1.991-2.886-2.021-4.657
				c-0.029-1.772,0.633-3.449,1.864-4.722c1.232-1.274,2.886-1.992,4.657-2.021c0.039-0.001,0.077-0.001,0.115-0.001
				c1.729,0,3.361,0.66,4.607,1.865c1.274,1.232,1.992,2.886,2.021,4.657l0,0c0.029,1.772-0.632,3.449-1.864,4.722
				c-1.232,1.274-2.886,1.992-4.657,2.021C535.581,149.4,535.543,149.4,535.505,149.4z M535.512,136.684
				c-0.035,0-0.07,0.001-0.105,0.001c-1.625,0.027-3.142,0.685-4.272,1.853c-1.13,1.168-1.737,2.706-1.71,4.331
				c0.027,1.625,0.686,3.142,1.854,4.272c1.168,1.13,2.713,1.736,4.331,1.709c1.625-0.027,3.141-0.685,4.272-1.853
				c1.13-1.168,1.736-2.706,1.709-4.331l0,0c-0.027-1.625-0.685-3.141-1.853-4.272C538.595,137.289,537.098,136.684,535.512,136.684
				z"/>
		</g>
		<g>
			<path style="fill:#14142E;" d="M510.971,162.53c-1.729,0-3.362-0.66-4.608-1.865c-1.274-1.232-1.992-2.885-2.021-4.657
				c-0.03-1.772,0.632-3.449,1.864-4.723c1.232-1.273,2.886-1.991,4.657-2.021c0.038-0.001,0.075-0.001,0.112-0.001
				c3.607,0,6.571,2.903,6.631,6.522l0,0c0.03,1.772-0.632,3.449-1.864,4.723c-1.232,1.273-2.886,1.991-4.657,2.021
				C511.046,162.529,511.008,162.53,510.971,162.53z M510.974,149.813c-0.034,0-0.068,0.001-0.103,0.001
				c-1.625,0.027-3.142,0.686-4.272,1.854c-1.13,1.168-1.737,2.706-1.709,4.331c0.056,3.354,2.834,6.049,6.184,5.981
				c1.625-0.027,3.142-0.686,4.272-1.854c1.13-1.168,1.736-2.707,1.709-4.331l0,0C517,152.475,514.282,149.813,510.974,149.813z"/>
		</g>
	</g>
	<g>
		<g>
			<g>
				
					<rect x="359.195" y="306.681" transform="matrix(0.4815 -0.8764 0.8764 0.4815 -86.9822 478.496)" style="fill:#141629;" width="3.477" height="12.168"/>
				<path style="fill:#FA499A;" d="M356.791,304.5c2.87,1.248,4.185,4.586,2.937,7.456s-4.586,4.185-7.455,2.937
					c-2.87-1.248-4.185-4.586-2.937-7.456C350.583,304.567,353.921,303.252,356.791,304.5z"/>
				
					<rect x="381.253" y="286.65" transform="matrix(-0.936 0.3521 -0.3521 -0.936 849.3715 450.79)" style="fill:#141629;" width="4.877" height="31.971"/>
				
					<ellipse transform="matrix(0.4052 -0.9142 0.9142 0.4052 -67.8398 557.9957)" style="fill:#FA499A;" cx="394.894" cy="331.132" rx="37.118" ry="37.118"/>
				
					<ellipse transform="matrix(0.8051 -0.5931 0.5931 0.8051 -119.4426 298.7672)" style="fill:#FFFFFF;" cx="394.894" cy="331.132" rx="32.513" ry="32.512"/>
				<g>
					<path style="fill:#EDEDED;" d="M406.852,356.262c-0.456-1.211-1.807-1.824-3.018-1.368c-1.211,0.456-1.824,1.807-1.368,3.018
						c0.456,1.211,1.807,1.824,3.018,1.368C406.695,358.824,407.307,357.473,406.852,356.262z"/>
					<path style="fill:#EDEDED;" d="M385.617,355.278c-0.266-0.707-1.054-1.064-1.761-0.798c-0.706,0.266-1.064,1.054-0.798,1.761
						c0.266,0.707,1.054,1.064,1.761,0.798C385.525,356.773,385.883,355.985,385.617,355.278z"/>
					<path style="fill:#EDEDED;" d="M419.04,340.409c-0.707,0.266-1.064,1.054-0.798,1.761c0.266,0.707,1.054,1.064,1.761,0.798
						c0.707-0.266,1.064-1.054,0.798-1.761C420.535,340.501,419.747,340.143,419.04,340.409z"/>
					<path style="fill:#EDEDED;" d="M404.171,306.986c0.266,0.707,1.054,1.064,1.761,0.798c0.707-0.266,1.064-1.054,0.798-1.761
						s-1.054-1.064-1.761-0.798C404.263,305.491,403.905,306.279,404.171,306.986z"/>
					<path style="fill:#EDEDED;" d="M370.748,321.855c0.707-0.266,1.064-1.054,0.798-1.761c-0.266-0.707-1.054-1.064-1.761-0.798
						c-0.707,0.266-1.064,1.054-0.798,1.761C369.253,321.763,370.041,322.121,370.748,321.855z"/>
					<path style="fill:#EDEDED;" d="M420.024,319.174c-1.211,0.456-1.824,1.807-1.368,3.018c0.456,1.211,1.807,1.824,3.018,1.368
						c1.211-0.456,1.824-1.807,1.368-3.018C422.586,319.331,421.235,318.719,420.024,319.174z"/>
					<path style="fill:#EDEDED;" d="M382.937,306.002c0.456,1.211,1.807,1.824,3.018,1.368c1.212-0.456,1.824-1.807,1.368-3.018
						c-0.456-1.211-1.807-1.824-3.018-1.368C383.093,303.44,382.481,304.791,382.937,306.002z"/>
					<path style="fill:#EDEDED;" d="M369.765,343.09c1.211-0.456,1.824-1.807,1.368-3.018c-0.456-1.211-1.807-1.824-3.018-1.368
						c-1.211,0.456-1.824,1.807-1.368,3.018C367.202,342.933,368.553,343.545,369.765,343.09z"/>
				</g>
				<g>
					<path style="fill:#666666;" d="M393.072,331.818c0.369,0.98,1.463,1.476,2.443,1.107c0.98-0.369,1.476-1.463,1.107-2.443
						c-0.369-0.98-1.463-1.476-2.443-1.108C393.199,329.743,392.703,330.837,393.072,331.818z"/>
					<path style="fill:#999999;" d="M393.51,332.016c-0.369-0.98,0.127-2.074,1.107-2.443c0.409-0.154,0.837-0.155,1.225-0.036
						c-0.483-0.297-1.092-0.378-1.663-0.163c-0.98,0.369-1.476,1.463-1.108,2.443c0.215,0.572,0.677,0.977,1.219,1.143
						C393.945,332.748,393.664,332.425,393.51,332.016z"/>
				</g>
				<path style="fill:#141629;" d="M372.931,292.5l12.172-4.579c1.674-0.63,2.528-2.514,1.898-4.188l0,0
					c-0.63-1.674-2.514-2.528-4.188-1.898l-12.172,4.579c-1.674,0.63-2.528,2.514-1.898,4.188l0,0
					C369.373,292.275,371.257,293.129,372.931,292.5z"/>
				<path style="fill:#FA499A;" d="M372.931,292.5l12.172-4.579c1.674-0.63,2.528-2.514,1.898-4.188l0,0
					c-0.63-1.674-2.514-2.528-4.188-1.898l-12.172,4.579c-1.674,0.63-2.528,2.514-1.898,4.188l0,0
					C369.373,292.275,371.257,293.129,372.931,292.5z"/>
				<g>
					<path style="fill:#FCCA01;" d="M404.696,310.464c-0.012-0.453,0.001-1.075,0.11-1.827c-0.46,0.603-0.894,1.048-1.225,1.356
						c-0.58,0.54-0.943,0.754-0.964,1.126c-0.013,0.227,0.107,0.436,0.275,0.616l-8.439,20.12l1.046,0.441l8.439-20.12
						c0.246-0.005,0.478-0.066,0.631-0.234C404.818,311.668,404.717,311.258,404.696,310.464z"/>
					<path style="fill:#FA499A;" d="M395.323,331.735l-0.482-1.266l-13.346,5.085c-0.204-0.21-0.442-0.363-0.705-0.36
						c-0.43,0.005-0.687,0.425-1.326,1.085c-0.365,0.377-0.89,0.868-1.6,1.383c0.872-0.088,1.591-0.071,2.114-0.032
						c0.917,0.068,1.388,0.21,1.712-0.072c0.198-0.173,0.274-0.446,0.287-0.737L395.323,331.735z"/>
					<path style="fill:#141629;" d="M393.072,331.818c0.369,0.98,1.463,1.476,2.443,1.107c0.98-0.369,1.476-1.463,1.107-2.443
						c-0.369-0.98-1.463-1.476-2.443-1.108C393.199,329.743,392.703,330.837,393.072,331.818z"/>
				</g>
			</g>
		</g>
		<g>
			<path style="fill:#14142E;" d="M392.949,396.775c-37.232,0-67.522-30.29-67.522-67.522s30.29-67.522,67.522-67.522
				c37.232,0,67.523,30.29,67.523,67.522S430.181,396.775,392.949,396.775z M392.949,262.5c-36.807,0-66.752,29.945-66.752,66.752
				c0,36.807,29.945,66.752,66.752,66.752c36.808,0,66.753-29.945,66.753-66.752C459.702,292.445,429.757,262.5,392.949,262.5z"/>
		</g>
	</g>
	<g>
		<g>
			<g>
				<path style="fill:#14142E;" d="M244.026,768.197c-0.143,0-0.28-0.08-0.346-0.218c-16.284-33.722-24.277-71.328-23.117-108.753
					c1.16-37.426,11.466-74.44,29.805-107.04c0.105-0.185,0.34-0.25,0.524-0.147c0.185,0.104,0.251,0.339,0.147,0.524
					c-18.278,32.493-28.55,69.385-29.707,106.687c-1.156,37.302,6.812,74.784,23.041,108.394c0.093,0.192,0.012,0.422-0.179,0.514
					C244.14,768.185,244.083,768.197,244.026,768.197z"/>
			</g>
			<g>
				<path style="fill:#8FAAFF;" d="M265.157,576.475c3.746-11.905,2.727-42.37-9.178-46.116
					c-11.905-3.746-30.187,20.645-33.933,32.549c-3.746,11.905,2.867,24.592,14.772,28.339
					C248.723,594.993,261.411,588.38,265.157,576.475z"/>
				<g>
					<path style="fill:#141629;" d="M254.016,589.745c2.626,2.829,0.639,7.565,0.277,11.408
						c-9.872-10.723-14.927,0.154-23.063,0.018c-9.805-3.519-1.865-23.903-18.299-13.193c-0.2-0.422,3.196-6.789,10.126-8.758
						C231.036,590.229,240.766,595.468,254.016,589.745z"/>
				</g>
			</g>
		</g>
		<g>
			<g>
				<path style="fill:#14142E;" d="M215.296,775.694c-0.207,0-0.379-0.165-0.385-0.373c-0.721-23.805-7.26-47.367-18.908-68.137
					c-11.649-20.771-28.336-38.622-48.257-51.624c-0.178-0.116-0.228-0.355-0.112-0.533c0.115-0.178,0.354-0.228,0.533-0.112
					c20.025,13.07,36.798,31.013,48.507,51.891c11.709,20.878,18.281,44.561,19.006,68.49c0.006,0.213-0.161,0.39-0.373,0.396
					C215.303,775.694,215.299,775.694,215.296,775.694z"/>
			</g>
			<g>
				<path style="fill:#FFD659;" d="M146.879,673.154c-5.634-5.638-14.044-23.197-8.406-28.831
					c5.639-5.634,23.191,2.789,28.825,8.428c5.634,5.638,5.631,14.777-0.008,20.411
					C161.652,678.796,152.513,678.793,146.879,673.154z"/>
				<g>
					<path style="fill:#141629;" d="M157.105,677.385c-0.653,2.377,1.87,4.474,3.208,6.544c2.429-8.987,8.501-4.316,13.07-6.793
						c4.516-4.886-5.995-14.091,6.474-12.872c-0.011-0.298-3.814-2.903-8.32-1.974C170.266,670.88,166.299,676.718,157.105,677.385z
						"/>
				</g>
			</g>
		</g>
		<g>
			<path style="fill:#BFBC00;" d="M218.531,815.484c-20.769-34.746-13.689-78.133,17.62-107.976
				c11.854-11.299,26.886-20.822,36.007-33.499c11.884-16.516,12.267-36.182,16.546-54.721
				c9.368-40.588,39.364-78.224,82.367-103.347c-22.288,17.96-25.018,45.304-21.251,69.819c3.766,24.515,12.763,48.958,9.222,73.491
				c-5.594,38.758-42.03,74.526-33.824,113.015c2.608,12.235,9.67,23.699,12.711,35.877c4.704,18.841-0.805,39.033-14.979,54.902
				c-14.174,15.869-36.841,27.221-61.629,30.865l-18.398-0.001c10.207-11.826,8.163-27.642,1.288-40.784
				C237.335,839.984,226.227,828.36,218.531,815.484z"/>
			<g>
				<path style="fill:#14142E;" d="M234.771,883.237c-0.135,0-0.267-0.071-0.337-0.199c-0.103-0.186-0.036-0.42,0.15-0.523
					c22.021-12.205,37.511-34.017,41.434-58.346c2.175-13.489,1.024-27.753-0.089-41.548c-0.921-11.414-1.873-23.217-0.954-34.587
					c1.637-20.25,11.266-34.297,21.461-49.168c5.279-7.701,10.738-15.665,15.323-24.838c16.187-32.392,21.215-60.063,15.824-87.083
					c-0.041-0.208,0.094-0.411,0.302-0.453c0.203-0.041,0.411,0.093,0.453,0.302c5.427,27.196,0.377,55.025-15.891,87.577
					c-4.607,9.221-10.082,17.206-15.376,24.929c-10.135,14.784-19.708,28.749-21.329,48.795
					c-0.914,11.307,0.036,23.078,0.954,34.462c1.117,13.841,2.271,28.152,0.082,41.733c-3.961,24.561-19.595,46.579-41.822,58.897
					C234.898,883.221,234.834,883.237,234.771,883.237z"/>
			</g>
			<path style="fill:#141629;" d="M158.71,723.025c-0.896,20.21,15.2,38.087,33.271,50.854
				c18.072,12.767,39.076,22.633,54.561,37.746c22.65,22.107,30.74,54.747,20.566,82.982l-44.482-0.31
				c-1.342-9.969-8.919-17.269-18.196-23.26c-9.277-5.991-19.832-10.433-28.714-16.86c-20.631-14.929-29.894-39.141-30.469-62.45
				C144.671,768.42,151.718,745.535,158.71,723.025z"/>
		</g>
	</g>
	<g>
		<path style="fill:#14142E;" d="M1073.289,895.833H114.102c-0.304,0-0.55-0.247-0.55-0.55c0-0.303,0.246-0.55,0.55-0.55h959.187
			c0.304,0,0.55,0.247,0.55,0.55C1073.839,895.586,1073.593,895.833,1073.289,895.833z"/>
	</g>
	<g>
		<g>
			<path style="fill:#FFFFFF;" d="M1042.345,96.148c-40.743-2.497-75.795,28.507-78.291,69.25
				c-0.868,14.162,2.32,27.632,8.55,39.291l-7.972,33.01l36.438-3.657c9.559,5.488,20.487,8.927,32.234,9.647
				c40.743,2.497,75.795-28.508,78.292-69.25C1114.092,133.697,1083.087,98.645,1042.345,96.148z"/>
		</g>
		<g>
			<path style="fill:#8FAAFF;" d="M1042.345,96.148c-40.743-2.497-75.795,28.507-78.291,69.25
				c-0.868,14.162,2.32,27.632,8.55,39.291l-7.972,33.01l36.438-3.657c9.559,5.488,20.487,8.927,32.234,9.647
				c40.743,2.497,75.795-28.508,78.292-69.25C1114.092,133.697,1083.087,98.645,1042.345,96.148z"/>
		</g>
		<g>
			<path style="fill:#FFFFFF;" d="M1090.066,131.328c-25.368,11.68-45.687,30.219-63.522,50.507
				c-9.823-6.028-19.992-11.418-31.177-15.024l-0.903,0.964c9.94,8.889,26.121,31.924,36.375,40.734
				c20.137-20.641,40.749-55.194,60.227-76.309L1090.066,131.328z"/>
		</g>
	</g>
	<path style="fill:#FFD659;" d="M1157.515,263.073c-9.559-2.86-17.024-12.995-19.131-25.971l-1.15-7.082l-1.15,7.082
		c-2.107,12.976-9.572,23.111-19.131,25.971l-5.217,1.561l5.217,1.561c9.559,2.86,17.024,12.995,19.131,25.971l1.15,7.082
		l1.15-7.082c2.107-12.976,9.572-23.111,19.131-25.971l5.217-1.561L1157.515,263.073z"/>
	<path style="fill:#FFD659;" d="M429.638,701.237c-9.559-2.86-17.024-12.995-19.131-25.971l-1.15-7.082l-1.15,7.082
		c-2.107,12.976-9.572,23.111-19.131,25.971l-5.217,1.561l5.217,1.561c9.559,2.86,17.024,12.995,19.131,25.971l1.15,7.082
		l1.15-7.082c2.107-12.976,9.572-23.111,19.131-25.971l5.217-1.561L429.638,701.237z"/>
	<path style="fill:#FA499A;" d="M1126.948,458.94c3.25-1.132,5.788-5.144,6.505-10.28l0.391-2.803l0.391,2.803
		c0.716,5.136,3.255,9.148,6.505,10.28l1.774,0.618l-1.774,0.618c-3.25,1.132-5.789,5.144-6.505,10.28l-0.391,2.803l-0.391-2.803
		c-0.716-5.136-3.255-9.148-6.505-10.28l-1.774-0.618L1126.948,458.94z"/>
	<path style="fill:#FA499A;" d="M350.175,143.528c3.25-1.132,5.788-5.144,6.505-10.28l0.391-2.803l0.391,2.803
		c0.716,5.136,3.255,9.148,6.505,10.28l1.774,0.618l-1.774,0.618c-3.25,1.132-5.789,5.144-6.505,10.28l-0.391,2.803l-0.391-2.803
		c-0.716-5.136-3.255-9.148-6.505-10.28l-1.774-0.618L350.175,143.528z"/>
	<path style="fill:#8FAAFF;" d="M756.131,86.843c3.25-1.132,5.789-5.144,6.505-10.28l0.391-2.803l0.391,2.803
		c0.716,5.136,3.255,9.148,6.505,10.28l1.774,0.618l-1.774,0.618c-3.25,1.132-5.789,5.144-6.505,10.28l-0.391,2.803l-0.391-2.803
		c-0.716-5.136-3.255-9.148-6.505-10.28l-1.774-0.618L756.131,86.843z"/>
	<path style="fill:#8FAAFF;" d="M213.942,328.635c3.25-1.132,5.788-5.144,6.505-10.28l0.391-2.803l0.391,2.803
		c0.716,5.136,3.255,9.148,6.505,10.28l1.774,0.618l-1.774,0.618c-3.25,1.132-5.789,5.144-6.505,10.28l-0.391,2.803l-0.391-2.803
		c-0.716-5.137-3.255-9.148-6.505-10.28l-1.774-0.618L213.942,328.635z"/>
	<g>
		<path style="fill:#EDEDED;" d="M203.6,496.615c9.609-12.753,26.601-19.492,42.338-16.79c-0.715-0.174,1.579-0.185,0.864-0.358
			c-3.501-7.068-0.854-16.575,5.796-20.817c6.65-4.242,16.387-2.634,21.319,3.521c1.436-22.479,22.051-42.041,44.574-42.298
			c22.523-0.257,43.579,18.829,45.529,41.269c8.043-4.699,19.206-3.175,25.695,3.508c6.488,6.683,7.682,17.887,2.747,25.787
			c9.682-5.364,23.746,1.793,25.109,12.777l-254.422,0.408C176.114,499.998,190.14,496.46,203.6,496.615z"/>
	</g>
	<g>
		<path style="fill:#14142E;" d="M1219.566,895.833h-95.511c-0.304,0-0.55-0.246-0.55-0.55c0-0.304,0.246-0.55,0.55-0.55h95.511
			c0.304,0,0.55,0.246,0.55,0.55C1220.116,895.587,1219.87,895.833,1219.566,895.833z"/>
	</g>
</g>
</svg>
