<?xml version="1.0" encoding="utf-8"?>
<!-- Generator: Adobe Illustrator 27.5.0, SVG Export Plug-In . SVG Version: 6.00 Build 0)  -->
<svg version="1.1" id="Layer_1" xmlns="http://www.w3.org/2000/svg" xmlns:xlink="http://www.w3.org/1999/xlink" x="0px" y="0px"
	 viewBox="0 0 1364 960" style="enable-background:new 0 0 1364 960;" xml:space="preserve">
<g>
	<path style="fill:#E6E8ED;" d="M1057.886,279.927c-0.048-0.366-0.075-0.738-0.075-1.114c0-6.07,6.527-10.991,14.579-10.991
		c0.672,0,1.329,0.046,1.977,0.112c-0.365-1.533-0.566-3.109-0.566-4.722c0-14.686,15.792-26.592,35.272-26.592
		c17.075,0,31.316,9.149,34.571,21.299c3.007-1.038,6.349-1.621,9.871-1.621c13.117,0,25.609,8.988,26.052,18.867
		c0.381,8.515-1.189,12.726-2.478,14.933c5.644,0.884,27.503,0.953,37.047,4.492h-176.782
		C1037.354,294.591,1038.676,280.841,1057.886,279.927z"/>
	<g>
		<path style="fill:#BAB20F;" d="M196.109,606.314c4.022,1.066,8.043,2.222,12.056,3.469c0,0-2.682,1.39-5.994,2.984
			c6.625,6.819,13.471,13.171,20.17,19.155c0.261,0.223,0.517,0.448,0.772,0.674c5.034,4.517,9.965,8.765,14.599,12.704
			c0.162,0.132,0.279,0.238,0.441,0.37c11.683,9.924,21.434,17.87,26.084,21.528c1.203,0.945,2.057,1.601,2.507,1.94
			c0.227,0.18,0.357,0.266,0.357,0.266c0,0,0.085-0.128,0.221-0.378c0.238-0.417,0.669-1.176,1.236-2.263
			c5.29-9.22,22.685-49.523,3.984-93.59c-0.079-0.192-0.154-0.386-0.255-0.611c-2.934-6.852-6.727-13.644-11.419-20.14
			c-0.176-0.237-0.353-0.475-0.53-0.712c-0.22-0.352-0.499-0.723-0.751-1.057c-9.248-12.278-21.053-22.324-33.392-30.06
			c1.495,3.785,0.171,6.586-2.422,8.952c0.734-3.677-0.253-9.843-7.774-14.753c-8.06-4.175-16.197-7.449-23.958-9.984
			c-0.215-0.089-0.454-0.148-0.672-0.233c-28.272-9.013-50.735-8.073-54.081-8.019c-0.32,0.006-0.495,0.019-0.495,0.019
			s0.044,0.141,0.142,0.393c0.669,1.879,4.005,10.449,8.993,22.155c0.085,0.181,0.17,0.362,0.228,0.569
			c2.896,6.747,6.266,14.486,10.04,22.695c0.113,0.268,0.335,0.542,0.58,0.746c5.928,4.803,12.292,6.347,19.696,4.248
			c-3.827,3.796-8.724,5.922-15.261,5.613c1.532,3.19,3.155,6.412,4.863,9.64c0.087,0.185,0.182,0.324,0.269,0.509
			c5.221,9.86,11.094,19.809,18.4,29.502C188.351,597.426,192.193,601.978,196.109,606.314z"/>
		<g>
			<path style="fill:#0F0F5C;" d="M266.745,669.486c-0.02,0-0.042-0.001-0.063-0.005c-0.19-0.035-0.316-0.218-0.282-0.407
				c6.397-35.045-28.489-82.721-49.853-108.021c-23.732-28.104-45.959-44.238-78.676-64.182c-0.165-0.101-0.217-0.316-0.116-0.482
				c0.1-0.165,0.314-0.218,0.481-0.116c32.778,19.982,55.053,36.151,78.846,64.328c21.443,25.394,56.455,73.27,50.008,108.597
				C267.059,669.368,266.911,669.486,266.745,669.486z"/>
		</g>
	</g>
	<g>
		<path style="fill:#7C820B;" d="M1054.164,682.597c5.512-11.464,11.641-23.61,22.689-29.917
			c12.455-7.111,28.881-5.354,40.438-13.848c14.968-11,15.505-34.314,29.461-46.572c10.277-9.026,28.768-13.29,49.217-5.854
			c17.899,6.509,30.285-9.652,47.866-1.144c8.86,5.765,11.535,19.187,5.561,27.906c-9.352,13.648-31.666,11.584-42.448,24.133
			c-9.787,11.391-6.068,30.156-15.723,41.659c-14.791,17.472-47.454,5.904-60.687,25.565c-6.806,10.471-0.063,22.777-9.64,30.791
			l-80.195-10.084C1046.91,712.319,1047.954,695.511,1054.164,682.597z"/>
		<g>
			<path style="fill:#0F0F5C;" d="M1072.82,727.084c-0.021,0-0.042-0.001-0.063-0.006c-0.19-0.034-0.315-0.217-0.28-0.407
				c2.756-14.963,11.448-28.605,23.847-37.429c7.614-5.418,16.45-8.962,24.996-12.389c3.019-1.21,6.141-2.462,9.159-3.777
				c9.29-4.047,22.394-10.82,28.907-22.875c1.893-3.504,3.203-7.415,4.471-11.197c1.958-5.84,3.981-11.879,8.19-16.49
				c4.388-4.807,11.063-7.977,20.405-9.691c2.689-0.493,5.445-0.861,8.111-1.218c4.735-0.634,9.633-1.288,14.271-2.664
				c4.885-1.447,13.624-5.096,17.268-13.263c0.078-0.176,0.289-0.255,0.462-0.177c0.177,0.078,0.256,0.285,0.177,0.462
				c-3.758,8.423-12.707,12.167-17.707,13.649c-4.691,1.391-9.616,2.049-14.378,2.686c-2.657,0.355-5.405,0.723-8.077,1.214
				c-9.188,1.686-15.734,4.784-20.015,9.475c-4.109,4.502-6.109,10.47-8.044,16.24c-1.277,3.81-2.598,7.75-4.52,11.307
				c-6.616,12.245-19.858,19.097-29.243,23.186c-3.027,1.318-6.154,2.572-9.178,3.785c-8.508,3.411-17.305,6.938-24.851,12.309
				c-12.252,8.719-20.841,22.199-23.565,36.985C1073.134,726.967,1072.986,727.084,1072.82,727.084z"/>
		</g>
		<path style="fill:#BAB20F;" d="M1016.039,631.327c9.176-15.881,27.769-25.982,32.746-43.635
			c6.427-48.129-25.402-56.531,22.209-106.349c11.267-11.789,28.265-23.185,37.778-36.434
			c12.923-19.246,16.312-64.021,49.124-53.889c22.339,12.802,18.324,46.482,5.76,61.624c-46.221,55.704-17.464,75.061-8.23,121.462
			c8.442,42.424-44.102,42.43-30.467,82.603c3.627,34.288,3.768,60.813-23.698,75.233l-56.723-6.028
			C1008.253,692.479,998.407,663.063,1016.039,631.327z"/>
		<g>
			<path style="fill:#0F0F5C;" d="M1082.168,671.066c-0.17,0-0.319-0.123-0.346-0.296c-5.599-36.008,3.874-49.664,13.034-62.871
				c8.523-12.288,16.574-23.896,13.412-52.255c-0.635-5.686-1.911-11.409-3.146-16.943c-1.971-8.839-4.01-17.978-3.468-27.161
				c0.672-11.396,5.792-23.018,16.111-36.575c2.617-3.438,5.409-6.838,8.109-10.126c5.704-6.947,11.603-14.129,16.14-22.03
				c4.496-7.828,11.265-23.223,6.088-38.376c-0.063-0.183,0.035-0.382,0.218-0.444c0.187-0.064,0.382,0.035,0.444,0.218
				c5.266,15.414-1.588,31.02-6.143,38.951c-4.566,7.951-10.483,15.157-16.206,22.125c-2.696,3.283-5.484,6.678-8.094,10.106
				c-10.231,13.441-15.306,24.941-15.969,36.192c-0.536,9.085,1.491,18.176,3.452,26.968c1.238,5.553,2.52,11.294,3.157,17.018
				c3.191,28.621-5.311,40.878-13.532,52.732c-9.082,13.094-18.474,26.634-12.918,62.364c0.03,0.191-0.101,0.37-0.292,0.399
				C1082.203,671.065,1082.186,671.066,1082.168,671.066z"/>
		</g>
	</g>
	<g>
		<g>
			<path style="fill:#617DFF;" d="M869.262,333.292l0.16,288.746c0.061,109.625-89.069,198.854-198.694,198.914l-0.058-104.474
				c52.018-0.029,94.307-42.364,94.278-94.382l-0.16-288.746L869.262,333.292z"/>
			<path style="fill:#FF6B3D;" d="M670.67,716.478l0.058,104.474c-109.614,0.061-198.843-89.069-198.904-198.694l-0.16-288.746
				l104.474-0.058l0.16,288.746C576.328,674.219,618.663,716.507,670.67,716.478z"/>
		</g>
		<rect x="471.683" y="333.483" style="fill:#FFE3E0;" width="104.474" height="59.369"/>
		<rect x="764.802" y="333.321" style="fill:#D9E0FF;" width="104.474" height="59.369"/>
		<g>
			<path style="fill:#0F0F5C;" d="M670.671,716.828c-0.193,0-0.35-0.156-0.35-0.35c-0.001-0.193,0.156-0.35,0.35-0.35
				c51.819-0.029,93.956-42.212,93.928-94.032l-0.16-288.747c-0.001-0.193,0.156-0.35,0.35-0.35c0.193,0,0.35,0.157,0.35,0.35
				l0.16,288.747C765.327,674.303,722.877,716.799,670.671,716.828z"/>
		</g>
	</g>
	<g>
		<path style="fill:#FF6B3D;" d="M500.73,234.532h46.275c5.794,0,10.491,4.697,10.491,10.491v46.275
			c0,5.794-4.697,10.491-10.491,10.491H500.73c-5.794,0-10.491-4.697-10.491-10.491v-46.275
			C490.239,239.229,494.936,234.532,500.73,234.532z"/>
		<path style="fill:#FFFFFF;" d="M543.301,266.067h-15.928v-15.928c0-2.249-1.823-4.072-4.072-4.072
			c-2.249,0-4.072,1.823-4.072,4.072v15.928H503.3c-2.249,0-4.072,1.823-4.072,4.072c0,2.249,1.823,4.072,4.072,4.072h15.928v15.928
			c0,2.249,1.823,4.072,4.072,4.072c2.249,0,4.072-1.823,4.072-4.072v-15.928h15.928c2.249,0,4.072-1.823,4.072-4.072
			C547.372,267.891,545.549,266.067,543.301,266.067z"/>
	</g>
	<g>
		<path style="fill:#617DFF;" d="M795.756,236.511h46.275c5.794,0,10.491,4.697,10.491,10.491v46.275
			c0,5.794-4.697,10.491-10.491,10.491h-46.275c-5.794,0-10.491-4.697-10.491-10.491v-46.275
			C785.265,241.208,789.962,236.511,795.756,236.511z"/>
		<path style="fill:#FFFFFF;" d="M835.698,264.073h-33.609c-1.537,0-2.784,1.246-2.784,2.783v2.622c0,1.537,1.246,2.784,2.784,2.784
			h33.609c1.537,0,2.783-1.246,2.783-2.784v-2.622C838.481,265.319,837.235,264.073,835.698,264.073z"/>
	</g>
	<g>
		<g>
			<path style="fill:#0F0F5C;" d="M729.215,799.971h201.936v-66.06H729.215c-4.731,0-8.567-4.697-8.567-10.491
				c0-5.794,3.835-10.491,8.567-10.491h245.391v108.022H729.215c-4.731,0-8.567-4.697-8.567-10.491
				C720.648,804.668,724.484,799.971,729.215,799.971z"/>
			<rect x="974.606" y="712.93" style="fill:#0F0F5C;" width="203.467" height="108.022"/>
			<rect x="727.599" y="733.912" style="fill:#FFFFFF;" width="203.552" height="66.06"/>
			<g>
				<rect x="811.392" y="755.483" style="fill:#B8C0D4;" width="119.759" height="0.699"/>
			</g>
			<g>
				<rect x="739.094" y="778.525" style="fill:#B8C0D4;" width="192.057" height="0.699"/>
			</g>
			<rect x="1131.624" y="712.93" style="fill:#617DFF;" width="16.742" height="108.022"/>
			<rect x="963.035" y="712.703" style="fill:#617DFF;" width="16.742" height="108.022"/>
		</g>
		<g>
			<path style="fill:#FFC508;" d="M1173.834,691.722H971.898v-66.06h201.936c4.731,0,8.567-4.697,8.567-10.491
				c0-5.794-3.835-10.491-8.567-10.491H928.443v108.022h245.391c4.731,0,8.567-4.697,8.567-10.491
				C1182.401,696.419,1178.565,691.722,1173.834,691.722z"/>
			<rect x="833.703" y="604.681" style="fill:#FFC508;" width="94.74" height="108.022"/>
			<rect x="971.898" y="625.663" style="fill:#FFFFFF;" width="203.552" height="66.06"/>
			<g>
				<rect x="971.898" y="647.234" style="fill:#B8C0D4;" width="119.758" height="0.699"/>
			</g>
			<g>
				<rect x="971.898" y="670.276" style="fill:#B8C0D4;" width="192.057" height="0.699"/>
			</g>
		</g>
	</g>
	<g>
		<path style="fill:#617DFF;" d="M502.509,786.71H174.326V578.594c0-13.141,10.653-23.794,23.794-23.794h280.595
			c13.141,0,23.794,10.653,23.794,23.794V786.71z"/>
		<path style="fill:#FFFFFF;" d="M462.866,719.962H215.311c-9.561,0-17.312-7.751-17.312-17.312V590.742
			c0-9.561,7.751-17.312,17.312-17.312h247.555c9.561,0,17.312,7.751,17.312,17.312V702.65
			C480.178,712.211,472.427,719.962,462.866,719.962z"/>
		<rect x="174.326" y="786.71" style="fill:#0F0F5C;" width="53.367" height="36.236"/>
		<rect x="448.878" y="786.71" style="fill:#0F0F5C;" width="53.367" height="36.236"/>
		<polygon style="fill:#FF6B3D;" points="335.031,709.055 374.514,664.255 352.304,719.911 		"/>
		<g>
			<path style="fill:#0F0F5C;" d="M340.998,702.243c-10.711,0-19.393,7.91-19.393,17.668h38.785
				C360.391,710.153,351.709,702.243,340.998,702.243z"/>
			<g>
				<path style="fill:#0F0F5C;" d="M449.142,697.091h-13.907c-0.276,0-0.5-0.224-0.5-0.5c0-0.276,0.224-0.5,0.5-0.5h13.907
					c0.276,0,0.5,0.224,0.5,0.5C449.642,696.867,449.418,697.091,449.142,697.091z"/>
			</g>
			<g>
				<path style="fill:#0F0F5C;" d="M429.396,666.922c-0.21,0-0.405-0.133-0.475-0.343c-0.087-0.262,0.055-0.545,0.317-0.632
					l13.069-4.334c0.259-0.09,0.545,0.056,0.632,0.317c0.087,0.262-0.055,0.545-0.317,0.632l-13.069,4.334
					C429.501,666.914,429.447,666.922,429.396,666.922z"/>
			</g>
			<g>
				<path style="fill:#0F0F5C;" d="M412.583,640.392c-0.15,0-0.299-0.067-0.398-0.196c-0.167-0.22-0.126-0.533,0.094-0.701
					l10.654-8.144c0.219-0.167,0.533-0.126,0.701,0.094c0.167,0.22,0.126,0.533-0.094,0.701l-10.654,8.145
					C412.796,640.358,412.69,640.392,412.583,640.392z"/>
			</g>
			<g>
				<path style="fill:#0F0F5C;" d="M386.826,620.701c-0.092,0-0.185-0.025-0.268-0.078c-0.233-0.147-0.303-0.456-0.154-0.689
					l6.953-10.974c0.148-0.233,0.458-0.302,0.69-0.154c0.233,0.147,0.303,0.456,0.154,0.689l-6.953,10.974
					C387.153,620.619,386.991,620.701,386.826,620.701z"/>
			</g>
			<g>
				<path style="fill:#0F0F5C;" d="M355.23,610.224c-0.032,0-0.064-0.003-0.096-0.009c-0.271-0.053-0.448-0.315-0.396-0.586
					l2.415-12.479c0.053-0.272,0.316-0.447,0.586-0.396c0.271,0.053,0.448,0.315,0.396,0.586l-2.415,12.479
					C355.674,610.058,355.465,610.224,355.23,610.224z"/>
			</g>
			<g>
				<path style="fill:#0F0F5C;" d="M321.604,610.224c-0.234,0-0.443-0.166-0.49-0.405l-2.415-12.479
					c-0.052-0.271,0.125-0.533,0.397-0.586c0.268-0.05,0.533,0.124,0.586,0.396l2.415,12.479c0.052,0.271-0.125,0.533-0.397,0.586
					C321.668,610.221,321.637,610.224,321.604,610.224z"/>
			</g>
			<g>
				<path style="fill:#0F0F5C;" d="M290.01,620.701c-0.165,0-0.327-0.082-0.422-0.232l-6.954-10.974
					c-0.148-0.233-0.079-0.542,0.154-0.689c0.231-0.148,0.542-0.08,0.689,0.154l6.954,10.974c0.148,0.233,0.079,0.542-0.154,0.689
					C290.194,620.676,290.102,620.701,290.01,620.701z"/>
			</g>
			<g>
				<path style="fill:#0F0F5C;" d="M264.252,640.392c-0.107,0-0.213-0.033-0.304-0.102l-10.654-8.145
					c-0.22-0.168-0.261-0.481-0.094-0.701c0.168-0.22,0.481-0.261,0.701-0.094l10.654,8.144c0.22,0.168,0.261,0.482,0.094,0.701
					C264.551,640.324,264.402,640.392,264.252,640.392z"/>
			</g>
			<g>
				<path style="fill:#0F0F5C;" d="M247.44,666.922c-0.052,0-0.105-0.008-0.157-0.025l-13.069-4.334
					c-0.263-0.087-0.404-0.37-0.317-0.632c0.086-0.262,0.371-0.407,0.632-0.317l13.069,4.334c0.263,0.087,0.404,0.37,0.317,0.632
					C247.846,666.789,247.65,666.922,247.44,666.922z"/>
			</g>
			<g>
				<path style="fill:#0F0F5C;" d="M241.602,697.091h-13.908c-0.276,0-0.5-0.224-0.5-0.5c0-0.276,0.224-0.5,0.5-0.5h13.908
					c0.276,0,0.5,0.224,0.5,0.5C242.102,696.867,241.878,697.091,241.602,697.091z"/>
			</g>
		</g>
		<circle style="fill:#FF6B3D;" cx="283.056" cy="751.109" r="9.01"/>
		<circle style="fill:#FF6B3D;" cx="402.79" cy="751.109" r="9.01"/>
		<g>
			<path style="fill:#FFFFFF;" d="M329.171,736.818c6.532-6.532,17.123-6.532,23.655,0c6.532,6.532,6.532,17.123,0,23.655
				c-6.532,6.532-17.123,6.532-23.655,0C322.639,753.94,322.639,743.35,329.171,736.818z"/>
			<g>
				<path style="fill:#0F0F5C;" d="M357.722,749.438c-0.003,0-0.006,0-0.009,0l-16.724-0.293c-0.276-0.005-0.496-0.232-0.491-0.509
					c0.005-0.275,0.219-0.504,0.509-0.491l16.724,0.293c0.276,0.005,0.496,0.232,0.491,0.509
					C358.217,749.22,357.994,749.438,357.722,749.438z"/>
			</g>
		</g>
		<rect x="158.844" y="625.543" style="fill:#0F0F5C;" width="15.483" height="33.937"/>
	</g>
	<g>
		<path style="fill:#0F0F5C;" d="M999.6,274.121c3.227-6.519,9.907-10.739,13.431-17.103l30.266-28.743
			c19.332,5.624,5.364,25.923,25.512,34.17c5.924,2.425,7.352,13.2,3.728,17.824c-6.057,9.421-17.299,13.35-27.804,17.234
			C1027.528,304.981,989.068,300.537,999.6,274.121z"/>
		<path style="fill:#FFB19E;" d="M952.329,351.011c10.464-15.99,20.167-34.733,29.86-47.696
			c15.274-20.428,30.702,3.914,25.484,20.545c-6.284,20.028-15.246,31.85-26.414,48.721
			C962.066,400.759,936.893,378.095,952.329,351.011z"/>
		<path style="fill:#FF6B3D;" d="M997.304,364.544l-39.026-27.058c0,0,21.138-41.456,36.367-44.568
			c15.229-3.111,21.074,5.519,20.592,17.229C1014.255,334.055,997.304,364.544,997.304,364.544z"/>
		<polygon style="fill:#0F0F5C;" points="977.131,350.678 987.263,313.351 983.343,355.195 		"/>
		<path style="fill:#FFFFFF;" d="M997.174,377.788c7.154,4.463,46.104-1.702,46.104-1.702s6.833-51.465,19.054-74.739
			c3.009-5.73-23.015-11.332-33.379-11.366l-10.219-0.466c0,0-19.255,2.799-25.776,5.921
			C979.633,301.816,997.174,377.788,997.174,377.788z"/>
		<path style="fill:#FFB19E;" d="M1011.16,290.415c0,0,0.409,13.182,10.971,14.001c10.562,0.819,15.454-13.806,15.454-13.806
			C1028.421,288.461,1019.636,287.856,1011.16,290.415z"/>
		<path style="fill:#FFB19E;" d="M1016.075,507.598l23.32-80.584c14.107-48.748-37.964-67.672-52.071-18.924l-23.32,80.584
			C951.768,530.956,1003.839,549.88,1016.075,507.598z"/>
		<path style="fill:#FF8F80;" d="M1024.356,507.334c-30.222-52.228-76.06-19.646-54.059,20.827l78.952,136.937l48.605-28.885
			L1024.356,507.334z"/>
		<g>
			<path style="fill:#0F0F5C;" d="M1060.002,624.435l-37.558,1.08c0,0,15.761,15.008,16.393,17.969
				c2.82,13.209-21.053,28.95,5.946,61.935l43.468-40.469l-1.348-18.662l11.728,8.229l16.706-16.79l-36.173-32.798L1060.002,624.435
				z"/>
			
				<rect x="1097.977" y="644.944" transform="matrix(-0.7053 0.7089 -0.7089 -0.7053 2352.6316 319.9342)" style="fill:#FF6B3D;" width="23.686" height="8"/>
			<polygon style="fill:#FF6B3D;" points="1050.455,711.062 1094.045,670.469 1088.374,664.826 1044.783,705.419 			"/>
		</g>
		<path style="fill:#FFB19E;" d="M1057.45,489.082c4.875-51.699,5.099-81.807,0.396-89.051c-0.193-31.781-55.663-17.784-55.339,9.16
			l-0.314,75.959C1002.028,525.005,1057.285,528.936,1057.45,489.082z"/>
		<path style="fill:#FFB19E;" d="M918.041,309.155c0,0,33.109,19.685,49.256,32.196c26.902,21.568,6.139,55.005-19.479,38.568
			c-24.33-15.611-50.496-47.212-50.496-47.212L918.041,309.155z"/>
		<path style="fill:#FFB19E;" d="M1058.89,512.402c-1.668-65.802-60.357-68.322-58.328,11.732l4.996,152.227l51.155-1.071
			L1058.89,512.402z"/>
		<path style="fill:#617DFF;" d="M939.37,501.305l49.864-122.897l61.041-0.027c16.719,33.09,40.265,138.424,40.265,138.424
			s-36.623,10.028-55.382,1.045c-24.731-11.843-35.831-2.772-33.741,1.408c2.09,4.18-27.474,1.483-39.058-1.93
			C942.853,511.58,939.37,501.305,939.37,501.305z"/>
		<g>
			<path style="fill:#FFFFFF;" d="M1009.137,433.697c-1.842,0-3.679-0.086-5.51-0.279c-10.753-1.137-21.248-6.228-28.797-13.97
				c-0.115-0.119-0.113-0.309,0.006-0.424c0.117-0.116,0.309-0.113,0.424,0.005c7.452,7.643,17.814,12.669,28.43,13.792
				c8.642,0.914,17.482-0.617,26.035-2.097c10.103-1.748,20.548-3.556,30.659-1.312c0.161,0.036,0.264,0.196,0.228,0.358
				c-0.036,0.162-0.198,0.263-0.358,0.228c-9.991-2.218-20.381-0.421-30.426,1.317
				C1023.038,432.49,1016.065,433.697,1009.137,433.697z"/>
		</g>
		<path style="fill:#FF6B3D;" d="M1014.189,289.678c-2.702,0.982-9.334,112.251-10.316,113.234
			c-0.983,0.982-25.585-1.283-24.931-4.749c7-37.09,3.997-94.731,10.93-103.409C993.063,290.762,1014.189,289.678,1014.189,289.678z
			"/>
		<path style="fill:#FF6B3D;" d="M1033.102,289.76c-2.202,2.139-6.073,113.402,3.439,114.708c9.229,1.267,25.627-1.228,25.627-3.193
			s2.129-103.573-2.292-107.421C1057.598,291.871,1036.165,289.406,1033.102,289.76z"/>
		<path style="fill:#FFB19E;" d="M1050.185,319.537c-9.44-23.576,11.896-26.742,23.917-16.847
			c14.477,11.917,34.45,31.46,45.784,47.548c18.851,27.425-12.206,46.917-30.767,23.657
			C1077.762,359.943,1056.406,335.072,1050.185,319.537z"/>
		<g>
			<path style="fill:#0F0F5C;" d="M1030.241,656.306l-26.614-25.264c0,0-0.164,21.16-1.817,23.696
				c-7.375,11.316-51.87,7.765-56.21,50.169h75.846l12.278-14.118l2.438,14.118h23.686l-2.264-48.776L1030.241,656.306z"/>
			
				<rect x="1036.163" y="704.908" transform="matrix(-1 -1.224647e-16 1.224647e-16 -1 2096.0107 1417.8156)" style="fill:#FF6B3D;" width="23.686" height="8"/>
			
				<rect x="945.6" y="704.908" transform="matrix(-1 -1.224647e-16 1.224647e-16 -1 1967.2202 1417.8156)" style="fill:#FF6B3D;" width="76.02" height="8"/>
		</g>
		<path style="fill:#FF6B3D;" d="M1072.314,359.561l32.966-27.157c0,0-34.266-42.108-49.554-39.3
			c-15.288,2.808-14.844,12.572-10.02,23.252C1055.556,338.162,1072.314,359.561,1072.314,359.561z"/>
		<path style="fill:#FFB19E;" d="M1095.538,353.329c-16.664,7.072-51.539,27.195-51.539,27.195l13.396,32.079
			c0,0,34.161-9.438,55.838-22.719C1139.028,374.08,1123.885,341.888,1095.538,353.329z"/>
		<polygon style="fill:#0F0F5C;" points="1062.573,346.307 1052.127,330.922 1062.479,368.168 		"/>
		<g>
			<path style="fill:#FFFFFF;" d="M1026.526,278.456c-0.036,0.437-0.354,0.971-0.839,1.406c-0.568,0.509-1.37,0.884-2.219,0.812
				c-0.838-0.072-1.556-0.563-2.034-1.15c-0.422-0.518-0.656-1.111-0.619-1.556C1022.682,278.636,1024.585,278.802,1026.526,278.456
				z"/>
		</g>
		<path style="fill:#0F0F5C;" d="M998.669,230.728c3.786-11.357,27.572-25.161,39.078-4.515
			c15.765,2.116,24.449,23.389,9.697,37.651c-8.349,8.071-36.258-14.525-36.258-14.525S993.043,247.604,998.669,230.728z"/>
		<g>
			<g>
				<path style="fill:#FFB19E;" d="M1037.112,258.857c0,0,3.557-5.871,7.594-2.276c4.059,3.615-1.808,16.081-7.379,9.741
					L1037.112,258.857z"/>
			</g>
			<path style="fill:#FFB19E;" d="M1008.672,249.691c1.744-4.437,7.894-9.698,14.043-9.82c6.353-0.126,12.707,5.04,14.301,10.055
				c1.61,5.065,5.263,16.169-0.787,22.315c-3.645,3.702-7.825,3.302-7.665,9.657c0.054,2.154,2.278,6.939,2.952,8.326
				c-4.886,11.588-18.313,8.226-12.696-0.421c0.69-1.363,2.24-5.278,2.557-7.27c0.359-2.25-0.497-3.929-2.647-4.681
				c-3.448-1.207-5.994-1.264-10.361-5.63C1002.065,265.916,1006.704,254.699,1008.672,249.691z"/>
			<g>
				<g>
					<path style="fill:#FFFFFF;" d="M1015.498,267.925c0.05,0.897,0.574,2.014,1.382,2.942c0.947,1.084,2.29,1.913,3.724,1.828
						c1.416-0.084,2.637-1.037,3.458-2.203c0.723-1.03,1.132-2.226,1.081-3.139C1021.977,268.582,1018.763,268.778,1015.498,267.925
						z"/>
					<path style="fill:#FFFFFF;" d="M1016.88,270.867c0.947,1.084,2.29,1.913,3.724,1.828c1.416-0.084,2.637-1.037,3.458-2.203
						c-0.909-0.398-2.232-0.607-3.683-0.521C1018.981,270.054,1017.736,270.392,1016.88,270.867z"/>
				</g>
				<g>
					<path style="fill:#0F0F5C;" d="M1024.663,253.156c-0.084,0-0.167-0.035-0.227-0.103c-0.108-0.125-0.096-0.314,0.029-0.423
						c0.645-0.559,1.31-1.138,2.125-1.504c0.831-0.374,1.779-0.495,2.683-0.337c0.898,0.156,1.755,0.591,2.411,1.224
						c0.119,0.115,0.123,0.305,0.008,0.424c-0.114,0.121-0.306,0.122-0.424,0.008c-0.571-0.55-1.316-0.928-2.099-1.064
						c-0.779-0.135-1.607-0.032-2.333,0.293c-0.734,0.33-1.366,0.879-1.977,1.41
						C1024.803,253.132,1024.733,253.156,1024.663,253.156z"/>
				</g>
				<g>
					<path style="fill:#0F0F5C;" d="M1020.662,265.469c-0.035,0-0.071-0.006-0.106-0.02c-0.583-0.222-1.244-0.473-1.761-0.948
						c-0.61-0.562-0.866-1.354-0.651-2.018c0.137-0.425,0.431-0.733,0.715-1.031c0.069-0.073,0.14-0.146,0.206-0.221
						c1.06-1.184,1.366-2.967,0.762-4.438c-0.063-0.153,0.01-0.329,0.163-0.392c0.152-0.065,0.327,0.01,0.392,0.163
						c0.69,1.679,0.342,3.715-0.869,5.066c-0.071,0.079-0.145,0.157-0.22,0.235c-0.248,0.261-0.483,0.506-0.578,0.801
						c-0.162,0.503,0.128,1.061,0.487,1.392c0.431,0.396,1.009,0.616,1.567,0.829c0.155,0.059,0.232,0.232,0.174,0.387
						C1020.896,265.396,1020.783,265.469,1020.662,265.469z"/>
				</g>
				<g>
					<path style="fill:#FFFFFF;" d="M1032.994,258.354c0,0-2.144,5.394-9.498,0.765c0,0,1.852-4.703,5.516-4.606
						C1032.676,254.611,1032.994,258.354,1032.994,258.354z"/>
					<g>
						<path style="fill:#0F0F5C;" d="M1023.496,259.419c-0.037,0-0.074-0.006-0.11-0.021c-0.153-0.06-0.229-0.234-0.169-0.389
							c0.078-0.198,1.933-4.797,5.68-4.797c0.041,0,0.082,0.001,0.123,0.002c3.888,0.104,4.27,4.075,4.272,4.115
							c0.014,0.165-0.108,0.31-0.273,0.324c-0.174,0.008-0.311-0.108-0.324-0.273c-0.013-0.142-0.345-3.478-3.69-3.567
							c-3.382-0.113-5.211,4.371-5.229,4.415C1023.729,259.347,1023.615,259.419,1023.496,259.419z"/>
					</g>
					<path style="fill:#0F0F5C;" d="M1024.51,258.277c-0.04,1.509,1.22,2.766,2.815,2.809c1.595,0.043,2.92-1.146,2.96-2.655
						s-1.22-2.766-2.815-2.809C1025.876,255.58,1024.55,256.769,1024.51,258.277z"/>
					<path style="fill:#FFFFFF;" d="M1030.392,256.92c0.009-0.33-0.251-0.604-0.581-0.613c-0.33-0.009-0.604,0.251-0.613,0.581
						c-0.009,0.33,0.251,0.604,0.581,0.613C1030.109,257.51,1030.383,257.25,1030.392,256.92z"/>
					<g>
						<path style="fill:#0F0F5C;" d="M1033.086,258.659c-0.042,0-0.082-0.001-0.122-0.006c-0.165-0.016-0.285-0.163-0.27-0.328
							c0.017-0.164,0.166-0.279,0.328-0.268c0.343,0.03,0.867-0.217,1.046-0.397c0.117-0.118,0.307-0.118,0.424-0.001
							c0.118,0.117,0.119,0.307,0.002,0.424C1034.246,258.332,1033.626,258.659,1033.086,258.659z"/>
					</g>
				</g>
				<g>
					<path style="fill:#0F0F5C;" d="M1015.749,253.502c-0.063,0-0.125-0.019-0.179-0.059c-0.649-0.482-1.321-0.981-2.079-1.254
						c-0.748-0.27-1.582-0.31-2.35-0.114c-0.77,0.195-1.483,0.629-2.01,1.222c-0.109,0.124-0.301,0.136-0.424,0.025
						c-0.124-0.11-0.135-0.3-0.025-0.423c0.607-0.682,1.427-1.181,2.311-1.405c0.887-0.225,1.845-0.178,2.701,0.131
						c0.842,0.304,1.55,0.829,2.233,1.337c0.133,0.099,0.161,0.287,0.063,0.42C1015.931,253.46,1015.841,253.502,1015.749,253.502z"
						/>
				</g>
				<g>
					<path style="fill:#FFFFFF;" d="M1007.646,258.578c0,0,2.335,5.314,9.519,0.424c0,0-2.019-4.634-5.677-4.405
						C1007.829,254.826,1007.646,258.578,1007.646,258.578z"/>
					<path style="fill:#0F0F5C;" d="M1013.575,257.791c0.097,1.552-1.109,2.89-2.694,2.99c-1.585,0.099-2.948-1.079-3.045-2.631
						s1.109-2.89,2.694-2.989C1012.115,255.061,1013.478,256.239,1013.575,257.791z"/>
					<g>
						<path style="fill:#0F0F5C;" d="M1017.165,259.302c-0.115,0-0.225-0.067-0.275-0.18c-0.019-0.044-2.013-4.431-5.384-4.226
							c-3.341,0.209-3.554,3.555-3.561,3.697c-0.009,0.165-0.138,0.3-0.314,0.284c-0.166-0.008-0.293-0.148-0.285-0.314
							c0.002-0.04,0.242-4.024,4.123-4.266c3.82-0.255,5.886,4.387,5.972,4.585c0.065,0.151-0.004,0.328-0.155,0.395
							C1017.246,259.294,1017.205,259.302,1017.165,259.302z"/>
					</g>
					<path style="fill:#FFFFFF;" d="M1012.513,255.756c0.333-0.066,0.655,0.151,0.721,0.483c0.066,0.333-0.151,0.655-0.483,0.721
						c-0.333,0.066-0.655-0.15-0.721-0.483C1011.964,256.145,1012.18,255.822,1012.513,255.756z"/>
					<g>
						<path style="fill:#0F0F5C;" d="M1007.512,258.887c-0.376,0-0.744-0.167-1.097-0.497c-0.121-0.113-0.127-0.303-0.014-0.424
							c0.111-0.121,0.303-0.127,0.424-0.014c0.271,0.255,0.526,0.367,0.779,0.328c0.188-0.024,0.315,0.094,0.338,0.257
							c0.022,0.164-0.092,0.315-0.256,0.338C1007.628,258.883,1007.569,258.887,1007.512,258.887z"/>
					</g>
				</g>
			</g>
			<path style="fill:#0F0F5C;" d="M1027.526,276.931c-1.413,1.884-6.195,3.991-6.195,3.991s-0.62-2.206-2.148-2.937
				c0.894,0.412,2.479,0.503,4.155,0.294C1024.981,278.074,1026.716,277.579,1027.526,276.931z"/>
		</g>
		<path style="fill:#0F0F5C;" d="M1028.958,234.609c8.945,4.951,13.266,16.445,9.798,26.063
			c-2.11-14.307-18.851-12.693-20.585-21.458L1028.958,234.609z"/>
		<g>
			<path style="fill:#FFC800;" d="M1041.113,283.898c-0.097,0-0.188-0.046-0.244-0.125l-6.586-9.198
				c-0.075-0.105-0.074-0.246,0.001-0.351l5.457-7.553c0.054-0.075,0.139-0.12,0.231-0.124c0.089-0.002,0.18,0.035,0.24,0.105
				l6.645,7.784c0.084,0.099,0.095,0.241,0.027,0.352l-5.516,8.967c-0.053,0.085-0.145,0.139-0.245,0.142
				C1041.12,283.898,1041.117,283.898,1041.113,283.898z M1034.896,274.401l6.198,8.655l5.164-8.396l-6.255-7.328L1034.896,274.401z
				"/>
		</g>
		<g>
			
				<rect x="899.627" y="301.312" transform="matrix(-0.6254 0.7803 -0.7803 -0.6254 1720.0436 -204.3579)" style="fill:#0F0F5C;" width="18.902" height="18.819"/>
			<path style="fill:#0F0F5C;" d="M1037.403,437.476c7.988,6.822,20.048,5.663,26.642-2.566c6.595-8.229,5.105-20.26-3.3-26.562
				l-113.861-85.408l-6.339-4.761l-4.762-3.561l-6.339-4.761l-7.928-5.946l-16.375,20.433l7.53,6.442l6.028,5.149l4.513,3.872
				l6.028,5.149L1037.403,437.476z"/>
			<circle style="fill:#FFFFFF;" cx="818.277" cy="240.116" r="105.66"/>
			<g>
				<path style="fill:#0F0F5C;" d="M818.22,346.182c-15.106,0-30.162-3.271-44.293-9.78c-25.719-11.846-45.285-32.999-55.095-59.562
					c-9.809-26.563-8.688-55.355,3.158-81.075c11.847-25.719,32.999-45.286,59.562-55.095c26.564-9.809,55.356-8.688,81.075,3.159
					c25.719,11.846,45.285,32.999,55.095,59.561c9.81,26.563,8.688,55.355-3.158,81.075l0,0
					c-11.847,25.719-32.999,45.286-59.561,55.095C843.033,343.98,830.608,346.182,818.22,346.182z M818.334,134.75
					c-12.309,0-24.648,2.186-36.539,6.577c-26.388,9.745-47.4,29.182-59.168,54.731c-11.769,25.549-12.883,54.152-3.139,80.539
					c9.745,26.388,29.183,47.4,54.731,59.168c25.549,11.768,54.151,12.882,80.539,3.138c26.388-9.745,47.4-29.182,59.168-54.731
					c11.768-25.549,12.883-54.152,3.139-80.539c-9.745-26.388-29.183-47.4-54.731-59.169
					C848.298,137.999,833.339,134.75,818.334,134.75z"/>
			</g>
		</g>
		<g>
			<g>
				<g>
					<path style="fill:#FFB19E;" d="M1030.998,431.259c1.099-0.525,2.03-1.417,2.589-2.605l10.937-21.172
						c1.291-2.736,0.118-6.001-2.619-7.292c-2.737-1.291-6.001-0.119-7.292,2.619l-10.937,21.172
						c-1.291,2.737-0.118,6.001,2.619,7.292C1027.845,432.004,1029.564,431.945,1030.998,431.259z"/>
				</g>
				<g>
					<path style="fill:#FFB19E;" d="M1019.312,383.628c6.185-9.364,32.775-3.299,37.728-3.495l15.204,18.078
						c-13.055,29.938-23.944,13.745-38.128,22.164C1026.208,425.07,1019.312,383.628,1019.312,383.628z"/>
				</g>
				<g>
					<path style="fill:#FFB19E;" d="M1021.479,427.66c0.933-0.551,1.712-1.382,2.195-2.442l12.419-22.99
						c1.256-2.753,0.042-6.002-2.711-7.258c-2.753-1.256-6.003-0.042-7.258,2.711l-12.419,22.99
						c-1.256,2.753-0.042,6.002,2.71,7.258C1018.109,428.701,1019.99,428.539,1021.479,427.66z"/>
				</g>
				<g>
					<path style="fill:#FFB19E;" d="M1012.26,424.496c0.917-0.541,1.687-1.355,2.172-2.393l14.316-26.149
						c1.283-2.74,0.102-6.001-2.638-7.285c-2.74-1.283-6.002-0.102-7.285,2.638l-14.316,26.149c-1.283,2.74-0.102,6.001,2.638,7.285
						C1008.851,425.539,1010.755,425.384,1012.26,424.496z"/>
				</g>
				<g>
					<path style="fill:#FFB19E;" d="M1004.751,416.89c1.021-0.456,1.761-1.045,8.121-9.96
						c10.775-15.107,15.461-16.814,16.107-16.987c6.818,1.257,8.855-9.466,2.007-10.769c-6.91-1.446-14.086,5.434-26.114,20.113
						c-5.23,6.383-7.223,8.953-7.462,9.369C994.216,413.159,1000.148,419.031,1004.751,416.89z"/>
				</g>
			</g>
			<g>
				<path style="fill:#0F0F5C;" d="M1005.437,416.3c-0.058,0-0.115-0.016-0.167-0.05c-0.138-0.092-0.175-0.278-0.082-0.416
					l14.476-21.673c0.092-0.138,0.277-0.173,0.416-0.083c0.138,0.092,0.175,0.278,0.082,0.416l-14.476,21.673
					C1005.628,416.254,1005.533,416.3,1005.437,416.3z"/>
			</g>
			<g>
				<path style="fill:#0F0F5C;" d="M1013.425,423.43c-0.054,0-0.108-0.014-0.157-0.044c-0.142-0.087-0.186-0.272-0.098-0.413
					l13.737-22.271c0.087-0.141,0.272-0.184,0.412-0.098c0.142,0.087,0.186,0.272,0.098,0.413l-13.737,22.271
					C1013.623,423.379,1013.525,423.43,1013.425,423.43z"/>
			</g>
			<g>
				<path style="fill:#0F0F5C;" d="M1023.729,426.17c-0.049,0-0.099-0.012-0.144-0.038c-0.146-0.08-0.198-0.262-0.118-0.407
					l8.543-15.532c0.079-0.145,0.261-0.199,0.407-0.118c0.146,0.08,0.198,0.262,0.118,0.407l-8.543,15.532
					C1023.938,426.114,1023.835,426.17,1023.729,426.17z"/>
			</g>
		</g>
		<g>
			<g>
				<path style="fill:#FFB19E;" d="M908.239,317.396c0,0-11.902,11.051-11.458,17.543c0.482,7.05,25.547,24.619,29.907,23.422
					c10.029-2.753,12.639-11.147,14.245-13.237c3.973-4.904-1.977-11.683-7.172-8.331c3.962-4.778-1.657-11.565-6.881-8.512
					c3.628-5.545-3.796-11.627-8.513-7.041C919.343,315.625,911.646,312.603,908.239,317.396z"/>
			</g>
			<g>
				<path style="fill:#0F0F5C;" d="M905.58,336.111c-0.07,0-0.141-0.024-0.198-0.074c-0.124-0.109-0.137-0.299-0.027-0.423
					l12.787-14.571c0.109-0.126,0.299-0.137,0.424-0.028c0.124,0.109,0.137,0.299,0.027,0.423l-12.787,14.571
					C905.746,336.077,905.663,336.111,905.58,336.111z"/>
			</g>
			<g>
				<path style="fill:#0F0F5C;" d="M914.132,344.087c-0.067,0-0.135-0.022-0.19-0.068c-0.128-0.105-0.146-0.294-0.041-0.422
					l12.749-15.506c0.104-0.128,0.295-0.145,0.422-0.042c0.128,0.105,0.146,0.295,0.041,0.422l-12.749,15.506
					C914.305,344.05,914.219,344.087,914.132,344.087z"/>
			</g>
			<g>
				<path style="fill:#0F0F5C;" d="M921.965,350.859c-0.069,0-0.139-0.023-0.195-0.072c-0.126-0.108-0.141-0.297-0.032-0.423
					l11.797-13.766c0.107-0.126,0.298-0.14,0.423-0.033c0.126,0.108,0.141,0.297,0.032,0.423l-11.797,13.766
					C922.134,350.824,922.049,350.859,921.965,350.859z"/>
			</g>
		</g>
		<g>
			<path style="fill:#FFFFFF;" d="M1061.031,498.757c-6.978,0-13.953-0.997-20.61-2.994c-2.727-0.817-5.481-1.817-8.146-2.785
				c-7.346-2.667-14.951-5.428-22.695-4.623c-4.339,0.447-8.527,2.011-12.578,3.523c-2.917,1.088-5.933,2.214-9.009,2.93
				c-12.784,2.979-26.743-1.38-35.564-11.099c-0.111-0.122-0.102-0.311,0.021-0.423c0.12-0.112,0.313-0.104,0.423,0.021
				c8.544,9.413,22.601,13.797,34.983,10.917c3.039-0.708,6.037-1.826,8.936-2.908c4.086-1.525,8.312-3.102,12.726-3.558
				c7.893-0.811,15.554,1.967,22.963,4.657c2.656,0.964,5.402,1.961,8.112,2.774c13.587,4.074,28.513,3.953,42.027-0.349
				c0.16-0.05,0.326,0.037,0.377,0.195c0.05,0.158-0.037,0.326-0.195,0.377C1075.796,497.641,1068.412,498.757,1061.031,498.757z"/>
		</g>
		<g>
			<path style="fill:#FFFFFF;" d="M1053.721,467.738c-6.303,0-12.605-1.109-18.525-3.335c-3.068-1.154-6.101-2.622-9.034-4.041
				c-6.066-2.935-12.339-5.971-19.084-6.266c-4.958-0.221-9.901,1.066-14.269,2.199l-0.196,0.051
				c-4.616,1.196-9.396,2.443-14.224,2.335c-5.537-0.113-10.378-2.137-13.281-5.551c-0.107-0.126-0.092-0.315,0.034-0.423
				c0.126-0.108,0.315-0.092,0.423,0.034c2.792,3.284,7.471,5.23,12.836,5.34c4.762,0.1,9.484-1.13,14.062-2.317l0.196-0.051
				c4.408-1.143,9.419-2.439,14.444-2.217c6.869,0.301,13.199,3.364,19.32,6.326c2.921,1.413,5.941,2.875,8.983,4.019
				c12.407,4.665,26.517,4.368,38.714-0.816c0.149-0.067,0.327,0.006,0.394,0.159c0.064,0.152-0.007,0.329-0.159,0.393
				C1067.837,466.347,1060.779,467.738,1053.721,467.738z"/>
		</g>
		<g>
			<path style="fill:#617DFF;" d="M787.455,179.469h70.931c8.881,0,16.081,7.2,16.081,16.081v70.931
				c0,8.881-7.2,16.081-16.081,16.081h-70.931c-8.881,0-16.081-7.2-16.081-16.081V195.55
				C771.373,186.668,778.573,179.469,787.455,179.469z"/>
			<path style="fill:#FFFFFF;" d="M848.679,221.716h-51.516c-2.356,0-4.267,1.91-4.267,4.267v4.02c0,2.356,1.91,4.267,4.267,4.267
				h51.516c2.356,0,4.266-1.91,4.266-4.267v-4.02C852.945,223.626,851.034,221.716,848.679,221.716z"/>
		</g>
	</g>
	<g>
		<rect x="324.872" y="398.893" style="fill:#FFB19E;" width="25.665" height="12.082"/>
		<path style="fill:#0F0F5C;" d="M360.592,347.738c-5.225-10.49-17.005-10.6-23.009-6.315c-9.967-10.128-24.116-1.126-24.134,12.293
			c-0.033,24.205,13.897,25.359,30.434,22.354l0,0c0,0,0.001,0,0.001,0c0,0,0.001,0,0.001,0v0
			C360.422,373.06,364.927,356.44,360.592,347.738z"/>
		<g>
			<path style="fill:#FFB19E;" d="M357.906,358.949c-2.426-4.677-9.015-10.475-15.812-10.424
				c-7.022,0.053-13.885,5.953-15.495,11.542c-1.625,5.644-6.132,14.684,2.366,27.388c3.192,4.772,1.218,11.61,0.515,13.162
				c1.725,16.482,21.962,15.051,18.764-0.34c-4.364-3.975-3.482-7.475-3.265-8.213c0.314-1.068,5.831-1.067,10.137-4.812
				C361.334,381.847,361.63,366.127,357.906,358.949z"/>
			<path style="fill:#0F0F5C;" d="M345.245,391.733c-0.764,1.762,0.171,4.863,0.171,4.863c-4.526-1.31-8.744-3.077-12.815-8.875
				C339.265,391.211,341.186,391.899,345.245,391.733z"/>
			<g>
				<path style="fill:#FFB19E;" d="M327.845,371.709c0,0-5.189-8.149-9.539-4.055c-4.375,4.116,2.485,17.711,8.448,10.538
					L327.845,371.709z"/>
			</g>
		</g>
		<path style="fill:#0F0F5C;" d="M325.922,372.172c0.282-3.918,2.275-10.182,2.275-10.182s7.315-5.722,8.152-9.154
			c0,0,13.665,10.178,24.681,4.448c15.348-7.984,6.95-38.551-21.587-29.581c-12.158,3.821-10.012,15.703-10.012,15.703
			s-7.375,1.846-8.587,10.448C319.632,362.455,325.922,372.172,325.922,372.172z"/>
		<g>
			<path style="fill:#0F0F5C;" d="M339.918,379.642c-0.038,0.893,0.409,2.052,1.179,3.052c0.903,1.171,2.256,2.13,3.8,2.195
				c1.524,0.065,2.929-0.75,3.927-1.817c0.879-0.943,1.439-2.083,1.478-2.991C346.787,380.967,343.326,380.826,339.918,379.642z"/>
			<path style="fill:#FF5B36;" d="M341.097,382.694c0.903,1.171,2.256,2.13,3.8,2.195c1.524,0.065,2.929-0.75,3.927-1.817
				c-0.932-0.488-2.327-0.833-3.89-0.899C343.43,382.11,342.062,382.314,341.097,382.694z"/>
		</g>
		<g>
			<g>
				<path style="fill:#0F0F5C;" d="M341.689,365.915c-0.064,0-0.126-0.02-0.181-0.06c-0.658-0.496-1.34-1.008-2.113-1.292
					c-0.763-0.279-1.614-0.325-2.398-0.13c-0.786,0.196-1.518,0.635-2.061,1.237c-0.109,0.123-0.3,0.132-0.424,0.023
					c-0.123-0.111-0.133-0.301-0.021-0.424c0.621-0.69,1.46-1.193,2.361-1.417c0.898-0.224,1.876-0.171,2.75,0.149
					c0.856,0.314,1.605,0.878,2.268,1.375c0.132,0.1,0.158,0.288,0.06,0.42C341.869,365.874,341.779,365.915,341.689,365.915z"/>
			</g>
			<g>
				<path style="fill:#0F0F5C;" d="M346.616,377.258c-0.113,0-0.222-0.065-0.272-0.174c-0.069-0.15-0.004-0.329,0.145-0.398
					c0.555-0.258,1.128-0.524,1.536-0.958c0.343-0.364,0.598-0.955,0.396-1.456c-0.118-0.295-0.376-0.529-0.649-0.777
					c-0.08-0.073-0.161-0.146-0.238-0.221c-1.327-1.286-1.828-3.329-1.248-5.083c0.052-0.157,0.219-0.241,0.38-0.191
					c0.157,0.052,0.242,0.222,0.19,0.379c-0.511,1.541-0.07,3.335,1.096,4.464c0.072,0.07,0.148,0.139,0.224,0.208
					c0.311,0.283,0.634,0.575,0.803,0.997c0.266,0.657,0.063,1.479-0.515,2.092c-0.488,0.518-1.143,0.822-1.72,1.091
					C346.702,377.249,346.659,377.258,346.616,377.258z"/>
			</g>
			<g>
				<path style="fill:#FFFFFF;" d="M333.554,370.659c0,0,2.461,5.382,9.712,0.289c0,0-2.128-4.694-5.855-4.406
					C333.684,366.831,333.554,370.659,333.554,370.659z"/>
				<g>
					<path style="fill:#0F0F5C;" d="M343.266,371.248c-0.114,0-0.223-0.065-0.273-0.176c-0.02-0.044-2.072-4.513-5.559-4.23
						c-3.408,0.263-3.574,3.682-3.58,3.828c-0.006,0.166-0.13,0.286-0.31,0.289c-0.165-0.006-0.295-0.145-0.289-0.31
						c0.001-0.041,0.186-4.1,4.133-4.405c3.87-0.305,6.062,4.381,6.152,4.581c0.068,0.151,0.001,0.329-0.149,0.397
						C343.35,371.24,343.308,371.248,343.266,371.248z"/>
				</g>
				<path style="fill:#0F0F5C;" d="M342.184,369.768c0.119,1.534-1.1,2.88-2.721,3.005c-1.622,0.125-3.033-1.017-3.151-2.551
					c-0.119-1.534,1.1-2.88,2.721-3.005C340.655,367.092,342.065,368.234,342.184,369.768z"/>
				<path style="fill:#FFFFFF;" d="M336.129,369.064c-0.026-0.336,0.225-0.628,0.56-0.654c0.336-0.026,0.628,0.225,0.654,0.56
					c0.026,0.336-0.225,0.628-0.56,0.654C336.448,369.65,336.155,369.399,336.129,369.064z"/>
				<g>
					<path style="fill:#0F0F5C;" d="M333.41,370.969c-0.52,0-1.136-0.278-1.395-0.514c-0.122-0.112-0.131-0.301-0.02-0.424
						c0.113-0.123,0.302-0.129,0.424-0.02c0.191,0.175,0.761,0.404,1.089,0.351c0.166-0.026,0.317,0.088,0.342,0.251
						c0.024,0.164-0.088,0.317-0.252,0.341C333.538,370.964,333.475,370.969,333.41,370.969z"/>
				</g>
			</g>
			<g>
				<path style="fill:#0F0F5C;" d="M350.779,365.622c-0.084,0-0.168-0.035-0.228-0.105c-0.108-0.125-0.094-0.315,0.032-0.423
					c0.66-0.566,1.343-1.152,2.174-1.521c0.848-0.376,1.82-0.491,2.733-0.328c0.915,0.165,1.784,0.612,2.449,1.26
					c0.118,0.116,0.12,0.306,0.005,0.424c-0.114,0.118-0.305,0.121-0.425,0.005c-0.579-0.565-1.338-0.956-2.135-1.099
					c-0.796-0.143-1.644-0.042-2.386,0.286c-0.75,0.332-1.398,0.889-2.025,1.427C350.918,365.598,350.849,365.622,350.779,365.622z"
					/>
			</g>
			<g>
				<path style="fill:#FFFFFF;" d="M359.378,369.58c0,0-2.104,5.531-9.672,0.923c0,0,1.817-4.823,5.555-4.779
					C358.998,365.768,359.378,369.58,359.378,369.58z"/>
				<g>
					<path style="fill:#0F0F5C;" d="M349.706,370.803c-0.035,0-0.071-0.006-0.105-0.019c-0.155-0.059-0.233-0.232-0.175-0.387
						c0.076-0.204,1.918-4.973,5.782-4.973c0.019,0,0.037,0,0.057,0c3.96,0.046,4.408,4.085,4.412,4.126
						c0.016,0.165-0.104,0.311-0.269,0.328c-0.179,0.022-0.311-0.103-0.329-0.268c-0.015-0.145-0.403-3.545-3.822-3.586
						c-0.015,0-0.031,0-0.047,0c-3.45,0-5.206,4.539-5.224,4.585C349.941,370.729,349.827,370.803,349.706,370.803z"/>
				</g>
				<path style="fill:#0F0F5C;" d="M353.372,369c-0.019,1.585,1.279,2.886,2.898,2.905c1.619,0.019,2.947-1.251,2.966-2.836
					c0.019-1.585-1.279-2.886-2.898-2.905C354.718,366.145,353.39,367.415,353.372,369z"/>
				<path style="fill:#FFFFFF;" d="M354.276,366.957c-0.342-0.05-0.66,0.187-0.71,0.529c-0.05,0.342,0.187,0.66,0.529,0.71
					c0.342,0.05,0.66-0.187,0.71-0.529C354.855,367.325,354.618,367.007,354.276,366.957z"/>
				<g>
					<path style="fill:#0F0F5C;" d="M359.465,369.883c-0.037,0-0.075-0.001-0.112-0.005c-0.165-0.014-0.287-0.159-0.273-0.324
						c0.015-0.165,0.14-0.301,0.324-0.273c0.256,0.023,0.516-0.101,0.782-0.376c0.114-0.12,0.306-0.122,0.424-0.007
						c0.119,0.115,0.123,0.305,0.008,0.424C360.257,369.694,359.869,369.883,359.465,369.883z"/>
				</g>
			</g>
		</g>
		<path style="fill:#FFB19E;" d="M395.122,490.561c-3.583-5.119-22.523-54.308-31.98-77.181c8.791-2.817,32.084,9.556,40.875,6.739
			c10.91,21.454,16.633,24.757,28.428,56.054C438.877,493.242,406.803,507.249,395.122,490.561z"/>
		<path style="fill:#F7F7F7;" d="M387.162,447.474c-0.32,1.832-0.611,3.587-0.87,5.266c-4.792,30.327-2.137,38.585-5.342,45.636
			h-0.015c0,0.015,0,0.015-0.015,0.03c-0.58,1.297-1.374,2.549-2.442,3.892c-7.494,9.402-20.986,14.683-35.212,16.026
			c-4.777,0.458-9.646,0.473-14.393,0.03c-14.073-1.297-27.107-6.456-33.853-15.354l-0.015-0.015
			c-0.275-0.351-0.519-0.702-0.763-1.053c-3.068-4.518-2.29-6.578-3.694-30.678c-0.031-0.443-0.046-0.885-0.076-1.328v-0.015
			c-2.351-39.714-6.334-67.309,2.045-71.262c0.091-0.061,0.183-0.107,0.275-0.137c0.046-0.015,0.092-0.03,0.153-0.046
			c0.443-0.153,1.236-0.336,2.671-0.672c7.402-1.725,13.385-1.801,15.507-1.786c7.83,0.061,14.423,1.618,19.017,3.083
			c-0.382,4.411,2.625,8.242,6.517,9.188c0.656,0.183,1.358,0.259,2.061,0.244c0.793-0.015,1.556-0.153,2.289-0.397h0.015
			c3.632-1.19,6.303-4.915,5.891-9.127c11.89-1.694,29.824-2.854,39.21,3.831c1.648,1.175,3.022,2.579,4.06,4.274
			C391.893,409.851,393.221,412.354,387.162,447.474z"/>
		<path style="fill:#617DFF;" d="M336.657,408.279v0.015l-7.784,110.06l-0.076,4.335c-15.047,3.279-29.174,3.181-41.694-2.805
			c-0.275-0.351,4.849-24.531,3.445-48.631c-0.031-0.443-0.046-0.885-0.076-1.328c-11.032,11.431-23.474,17.466-27.565,20.666
			c-1.281-16.881-2.564-33.761-3.846-50.642c4.35-11.462,9.799-19.689,13.782-24.878c8.395-10.944,15.874-14.622,17.964-15.644
			c0.672-0.321,1.252-0.58,1.71-0.779c0.091-0.061,0.183-0.107,0.275-0.137c0.046-0.015,0.092-0.03,0.153-0.046
			c0.443-0.153,1.236-0.336,2.671-0.672c7.402-1.725,13.385-1.801,15.507-1.786c7.83,0.061,14.423,1.618,19.017,3.083
			C329.758,403.502,332.765,407.333,336.657,408.279z"/>
		<path style="fill:#617DFF;" d="M413.154,459.425c-8.959-2.228-17.903-4.457-26.862-6.685c-4.792,30.327,2.197,66.817,2.197,66.817
			c-0.93,4.141-37.508,8.681-45.284,2.232l0.061-3.465l-2.244-110.198c3.632-1.19,6.303-4.915,5.891-9.127
			c11.89-1.694,29.824-2.854,39.21,3.831v-0.046c3.434,2.244,6.99,5.067,10.379,8.669
			C412.651,428.625,413.322,451.198,413.154,459.425z"/>
		<path style="fill:#FFB19E;" d="M283.524,467.12c2.261,10.765-15.821,27.339-26.587,29.6c-10.765,2.261-20.005-5.374-22.266-16.139
			c-2.261-10.765,23.144-49.423,33.909-51.684S281.263,456.355,283.524,467.12z"/>
		<path style="fill:#617DFF;" d="M384.686,471.116c1.155-0.04,12.997-4.238,16.009-5.152c11.268-3.408,24.546-8.752,24.546-8.752
			s-17.794-40.805-38.009-52.925c-4.243-2.54-8.427-4.287-12.349-5.508l0.011,0.04C376.914,414.891,382.109,471.202,384.686,471.116
			z"/>
		<path style="fill:#0F0F5C;" d="M395.051,467.953l-20.168-39.178l4.337,45.24C379.239,474.079,392.039,468.867,395.051,467.953z"/>
		<path style="fill:#617DFF;" d="M248.167,447.283c0.812,5.592,14.432,18.491,23.357,27.281c4.253,4.186,7.76,7.476,8.949,8.715
			c0,0,4.37-3.558,8.857-8.221c3.114-3.223,6.279-6.982,8.095-10.456c17.488-30.564-3.416-64.276-4.479-66.135
			C279.97,403.473,257.61,428.69,248.167,447.283z"/>
		<path style="fill:#0F0F5C;" d="M285.266,469.765l19.836-40.183l-4.337,45.24C300.746,474.886,288.278,470.679,285.266,469.765z"/>
		<path style="fill:#E65525;" d="M334.705,552.276l-59.654-7.336c-36.087-4.438-31.437-48.205,4.649-43.767l59.653,7.336
			C370.654,512.358,366.005,556.125,334.705,552.276z"/>
		<path style="fill:#E65525;" d="M346.088,552.276l59.653-7.336c36.087-4.438,31.437-48.205-4.649-43.767l-59.653,7.336
			C310.139,512.358,314.788,556.125,346.088,552.276z"/>
		<path style="fill:#FFC508;" d="M327.967,576.857l84.63-28.592c49.514-18.785,32.511-63.604-17.004-44.819l-81.85,31.053
			L327.967,576.857z"/>
		<g>
			<path style="fill:#0F0F5C;" d="M339.696,572.346c0,0,22.434,9.577,24.786,14.929c4.619,10.508-9.918,44.413,21.759,59.355
				l31.761-93.597l-61.885-18.949L339.696,572.346z"/>
			<path style="fill:#FFC508;" d="M386.241,646.629l4.682,1.589c2.75,0.933,5.735-0.54,6.669-3.29l28.325-83.472
				c0.933-2.75-0.54-5.735-3.289-6.669l-4.682-1.589L386.241,646.629z"/>
			<g>
				<path style="fill:#FFFFFF;" d="M380.315,640.223c-0.031,0-0.063-0.005-0.095-0.015c-0.157-0.053-0.242-0.223-0.19-0.38
					l23.672-71.412c-5.59-9.042-4.316-20.903-4.302-21.022c0.019-0.164,0.16-0.293,0.332-0.264c0.164,0.018,0.282,0.167,0.264,0.332
					c-0.013,0.117-1.272,11.88,4.289,20.756c0.048,0.075,0.059,0.169,0.031,0.254l-23.716,71.546
					C380.559,640.144,380.441,640.223,380.315,640.223z"/>
			</g>
		</g>
		<g>
			<path style="fill:#0F0F5C;" d="M342.059,568.546c0,0-21.071,12.289-22.74,17.892c-3.278,11.001,15.358,42.837-14.218,61.598
				l-43.14-88.928l59.052-26.489L342.059,568.546z"/>
			<path style="fill:#FFC508;" d="M305.1,648.036l-4.449,2.158c-2.613,1.267-5.758,0.177-7.026-2.436l-38.473-79.308
				c-1.267-2.613-0.177-5.758,2.436-7.025l4.449-2.158L305.1,648.036z"/>
			<g>
				<path style="fill:#FFFFFF;" d="M310.762,640.223c-0.115,0-0.225-0.066-0.274-0.179l-30.009-67.904
					c-0.041-0.093-0.032-0.199,0.023-0.284c4.147-6.383,4.914-14.716,1.999-21.747c-0.064-0.153,0.01-0.329,0.162-0.393
					c0.155-0.064,0.328,0.009,0.393,0.162c2.968,7.162,2.214,15.64-1.962,22.167l29.943,67.757c0.067,0.151-0.002,0.328-0.153,0.396
					C310.844,640.215,310.803,640.223,310.762,640.223z"/>
			</g>
		</g>
		<path style="fill:#FFC508;" d="M354.277,586.201l-87.753-30.227c-50.291-16.593-37.557-69.314,12.734-52.72l92.918,31.796
			L354.277,586.201z"/>
		<path style="fill:#FFB19E;" d="M245.035,466.236c26.246-1.662,62.886,16.945,87.029,22.397
			c-2.764,8.808-5.528,17.616-8.292,26.424c-23.82-3.447-45.357,9.791-73.572-7.644
			C226.442,492.733,234.559,466.899,245.035,466.236z"/>
		<path style="fill:#FFB19E;" d="M430.126,475.511c-25.85-4.834-64.477,9.191-89.103,11.675c1.675,9.078,3.35,18.157,5.026,27.235
			c24.063-0.532,37.328,7.395,61.254,4.78C435.064,516.166,440.443,477.44,430.126,475.511z"/>
		<g>
			<g>
				<g>
					<path style="fill:#F7F7F7;" d="M339.365,465.225c2.797-2.11,6.198-4.27,10.305-6.241c17.526-8.412,36.523-7.914,45.092-7.255
						c0.328,0.643,0.657,1.287,0.985,1.93c-0.17,0.045-0.34,0.09-0.51,0.136c0.665,1.3,1.33,2.6,1.995,3.9
						c-0.247,0.068-0.495,0.136-0.742,0.203c0.807,1.659,1.613,3.319,2.42,4.978c-17.883,1.343-35.766,2.685-53.648,4.028
						C343.296,466.345,341.331,465.785,339.365,465.225z"/>
					<g>
						<path style="fill:#F0D9BB;" d="M397.232,457.695c-0.247,0.068-0.495,0.136-0.742,0.203c-3.371,0.16-8.234,0.471-14.044,1.136
							c-15.327,1.755-26.208,4.713-26.214,4.697c-0.005-0.015,9.655-2.641,23.282-4.443
							C386.59,458.354,392.66,457.915,397.232,457.695z"/>
					</g>
					<g>
						<path style="fill:#F0D9BB;" d="M395.747,453.66c-15.658,1.482-27.589,4.127-35.775,6.351
							c-5.568,1.512-12.348,3.629-12.386,3.552c-0.039-0.08,7.166-2.516,13.353-4.239
							C369.106,457.049,380.716,454.565,395.747,453.66z"/>
					</g>
				</g>
				<g>
					<path style="fill:#F7F7F7;" d="M339.365,465.225c-2.797-2.11-6.198-4.27-10.305-6.241c-17.526-8.412-36.523-7.914-45.092-7.255
						c-0.328,0.643-0.657,1.287-0.985,1.93c0.17,0.045,0.34,0.09,0.51,0.136c-0.665,1.3-1.33,2.6-1.995,3.9
						c0.247,0.068,0.495,0.136,0.742,0.203c-0.807,1.659-1.613,3.319-2.42,4.978c17.883,1.343,35.766,2.685,53.648,4.028
						C335.435,466.345,337.4,465.785,339.365,465.225z"/>
					<g>
						<path style="fill:#F0D9BB;" d="M281.498,457.695c0.247,0.068,0.495,0.136,0.742,0.203c3.371,0.16,8.234,0.471,14.044,1.136
							c15.327,1.755,26.208,4.713,26.214,4.697c0.005-0.015-9.655-2.641-23.282-4.443
							C292.141,458.354,286.07,457.915,281.498,457.695z"/>
					</g>
					<g>
						<path style="fill:#F0D9BB;" d="M282.983,453.66c15.658,1.482,27.59,4.127,35.775,6.351c5.568,1.512,12.348,3.629,12.386,3.552
							c0.039-0.08-7.166-2.516-13.353-4.239C309.624,457.049,298.015,454.565,282.983,453.66z"/>
					</g>
				</g>
			</g>
			<rect x="318.355" y="464.3" style="fill:#F7F7F7;" width="41.366" height="7.669"/>
			<path style="fill:#0F0F5C;" d="M344.791,471.152c0,0.928-2.502,1.68-5.589,1.68s-5.589-0.752-5.589-1.68
				c0-0.928,2.502-1.68,5.589-1.68S344.791,470.224,344.791,471.152z"/>
			<path style="fill:#FF6B3D;" d="M399.698,458.923v68.48c-20.176-1.849-43.982,5.806-54.837,12.221h-11.283
				c-12.533-4.323-33.609-13.203-57.869-11.181v-68.48c14.659-1.445,54.771,8.206,57.907,11.189
				c0.015,0.706,1.474,1.308,3.536,1.556c0.074,0.01,0.144,0.017,0.218,0.025c0.147,0.015,0.294,0.027,0.444,0.039
				c0.438,0.034,0.9,0.052,1.374,0.052c0.482,0,0.95-0.017,1.397-0.052c0.303-0.025,0.597-0.054,0.877-0.091
				c0.347-0.044,0.677-0.101,0.983-0.17c0-0.003,0.003-0.003,0.006,0c1.418-0.305,2.344-0.804,2.344-1.37l0.027,0
				C354.779,465.585,380.957,456.543,399.698,458.923z"/>
			<g>
				<path style="fill:#0F0F5C;" d="M344.804,471.142v68.483h-0.027c0,0.929-2.503,1.682-5.589,1.682
					c-3.089,0-5.589-0.752-5.589-1.682v-68.473c0.015,0.708,1.482,1.313,3.553,1.556c0.074,0.01,0.144,0.017,0.218,0.025
					c0.144,0.015,0.294,0.027,0.444,0.039c0.438,0.034,0.9,0.052,1.374,0.052c0.482,0,0.95-0.017,1.397-0.052
					c0.303-0.025,0.597-0.054,0.877-0.091c0.347-0.049,0.677-0.106,0.982-0.17c0-0.003,0.003-0.003,0.006,0
					c1.409-0.307,2.327-0.806,2.327-1.37H344.804z"/>
			</g>
		</g>
		<g>
			<g>
				<path style="fill:#FFB19E;" d="M382.253,472.009c0,0,18.77-2.966,24.422,2.133c6.138,5.538,4.194,41.297-0.058,44.444
					c-9.78,7.239-19.39,3.575-22.474,3.543c-7.383,0.112-9.322-10.261-2.483-12.619c-7.259,0.192-9.445-9.882-2.86-12.482
					c-7.724-0.669-7.955-11.895-0.328-12.921C372.601,480.947,375.381,471.681,382.253,472.009z"/>
			</g>
			<g>
				<path style="fill:#0F0F5C;" d="M378.472,484.406c-0.158,0-0.291-0.124-0.3-0.283c-0.009-0.166,0.118-0.307,0.283-0.316
					l22.647-1.236c0.204-0.004,0.308,0.119,0.316,0.283c0.009,0.166-0.118,0.307-0.283,0.316l-22.647,1.236
					C378.482,484.406,378.477,484.406,378.472,484.406z"/>
			</g>
			<g>
				<path style="fill:#0F0F5C;" d="M378.8,497.328c-0.163,0-0.296-0.13-0.3-0.293c-0.004-0.166,0.127-0.303,0.293-0.307
					l23.479-0.526c0.188,0.017,0.303,0.128,0.307,0.293c0.004,0.166-0.127,0.303-0.293,0.307l-23.479,0.526
					C378.805,497.328,378.802,497.328,378.8,497.328z"/>
			</g>
			<g>
				<path style="fill:#0F0F5C;" d="M381.66,509.81c-0.16,0-0.293-0.126-0.3-0.287c-0.007-0.165,0.121-0.306,0.287-0.313l21.19-0.908
					c0.193,0.015,0.306,0.122,0.313,0.287c0.007,0.165-0.121,0.306-0.287,0.313l-21.19,0.908
					C381.669,509.81,381.664,509.81,381.66,509.81z"/>
			</g>
		</g>
		<g>
			<g>
				<path style="fill:#FFB19E;" d="M289.296,472.009c0,0-18.77-2.966-24.422,2.133c-6.138,5.538-4.194,41.297,0.058,44.444
					c9.78,7.239,19.39,3.575,22.474,3.543c7.383,0.112,9.322-10.261,2.483-12.619c7.259,0.192,9.445-9.882,2.86-12.482
					c7.724-0.669,7.956-11.895,0.328-12.921C298.948,480.947,296.168,471.681,289.296,472.009z"/>
			</g>
			<g>
				<path style="fill:#0F0F5C;" d="M293.077,484.406c-0.005,0-0.011,0-0.017,0l-22.648-1.236c-0.165-0.01-0.292-0.15-0.283-0.316
					c0.01-0.164,0.128-0.282,0.316-0.283l22.648,1.236c0.165,0.01,0.292,0.15,0.283,0.316
					C293.368,484.282,293.235,484.406,293.077,484.406z"/>
			</g>
			<g>
				<path style="fill:#0F0F5C;" d="M292.749,497.328c-0.002,0-0.005,0-0.007,0l-23.479-0.526c-0.166-0.004-0.297-0.141-0.293-0.307
					c0.004-0.165,0.147-0.271,0.307-0.293l23.479,0.526c0.166,0.004,0.297,0.141,0.293,0.307
					C293.045,497.198,292.912,497.328,292.749,497.328z"/>
			</g>
			<g>
				<path style="fill:#0F0F5C;" d="M289.889,509.81c-0.004,0-0.009,0-0.013,0l-21.191-0.908c-0.166-0.007-0.294-0.147-0.287-0.313
					c0.007-0.165,0.146-0.291,0.313-0.287l21.191,0.908c0.166,0.007,0.294,0.147,0.287,0.313
					C290.182,509.685,290.049,509.81,289.889,509.81z"/>
			</g>
		</g>
	</g>
	<g>
		<path style="fill:#FFC508;" d="M287.899,210.365c-3.279-37.885-32.17-73.513-74.936-75.612
			c-41.9-2.057-73.831,28.942-81.354,65.424c-7.276,35.285,8.025,72.673,38.809,95.215c6.653,4.872,10.427,12.753,10.214,20.996
			l-0.334,12.928c16.896,0.437,33.792,0.873,50.688,1.31c0.101-3.909,0.202-7.818,0.303-11.726
			c0.218-8.432,4.642-16.162,11.733-20.73C273.399,278.601,290.874,244.741,287.899,210.365z"/>
		<path style="fill:#0F0F5C;" d="M180.305,329.316l50.646,1.309c0,6.129-0.478,47.448-24.019,49.734
			c-2.184,0.212-4.003,0.034-5.113-0.132C178.409,376.731,179.998,335.435,180.305,329.316z"/>
		<g>
			<path style="fill:#0F0F5C;" d="M204.913,380.807c-1.052,0-2.105-0.078-3.148-0.233c-23.032-3.441-22.209-43.316-21.811-51.275
				c0.011-0.189,0.161-0.318,0.358-0.332l50.645,1.309c0.19,0.005,0.341,0.16,0.341,0.35c0,11.194-1.755,47.89-24.335,50.082
				C206.283,380.774,205.599,380.807,204.913,380.807z M180.638,329.675c-0.395,8.585-0.895,46.9,21.231,50.206
				c1.667,0.249,3.361,0.292,5.027,0.13c22.251-2.161,23.668-40.451,23.703-49.045L180.638,329.675z"/>
		</g>
		<path style="fill:#36368A;" d="M229.378,353.124l-50.203-1.298c-2.179-0.056-3.929-1.792-3.876-3.845
			c0.053-2.053,1.89-3.696,4.07-3.64l50.203,1.298c2.18,0.056,3.929,1.792,3.876,3.845
			C233.394,351.537,231.557,353.18,229.378,353.124z"/>
		<path style="fill:#36368A;" d="M230.598,336.212l-49.937-1.291c-2.168-0.056-3.908-1.792-3.855-3.845
			c0.053-2.053,1.881-3.697,4.049-3.64l49.937,1.291c2.168,0.056,3.908,1.792,3.855,3.845
			C234.593,334.624,232.766,336.268,230.598,336.212z"/>
		<g>
			<path style="fill:#0F0F5C;" d="M216.771,328.714c-0.01,0-0.02,0-0.031-0.001c-0.193-0.018-0.335-0.188-0.317-0.38l7.498-82.635
				c-2.041,0.908-9.128,3.37-15.572-2.708c-1.002,1.29-4.938,5.896-10.209,6.143c-3.121,0.143-6.097-1.271-8.88-4.213l6.353,81.038
				c0.016,0.193-0.129,0.361-0.321,0.376c-0.223,0.009-0.362-0.129-0.376-0.322l-6.434-82.064c-0.012-0.151,0.074-0.292,0.214-0.351
				c0.141-0.058,0.301-0.02,0.4,0.095c2.833,3.294,5.88,4.882,9.011,4.741c5.665-0.266,9.873-6.114,9.915-6.173
				c0.059-0.084,0.152-0.138,0.255-0.146c0.103-0.012,0.203,0.028,0.276,0.1c7.273,7.173,15.264,2.785,15.6,2.595
				c0.113-0.064,0.253-0.06,0.362,0.011c0.109,0.071,0.171,0.196,0.159,0.326l-7.554,83.251
				C217.104,328.577,216.951,328.714,216.771,328.714z"/>
		</g>
		<g>
			<path style="fill:#0F0F5C;" d="M232.136,248.175c-1.938,0-3.901-0.479-5.71-1.489c-5.659-3.16-7.693-10.334-4.534-15.993
				c1.53-2.742,4.036-4.724,7.057-5.58c3.021-0.855,6.194-0.485,8.937,1.045c5.659,3.159,7.693,10.333,4.535,15.993l0,0
				C240.27,246.002,236.261,248.175,232.136,248.175z M232.172,225.363c-1.013,0-2.031,0.14-3.032,0.424
				c-2.841,0.806-5.198,2.669-6.637,5.248c-2.971,5.322-1.059,12.07,4.265,15.041c5.319,2.97,12.069,1.058,15.041-4.265l0,0
				c2.971-5.323,1.057-12.07-4.266-15.041C235.873,225.837,234.033,225.363,232.172,225.363z M242.114,241.981h0.009H242.114z"/>
		</g>
		<g>
			<path style="fill:#0F0F5C;" d="M182.255,246.461c-1.979,0-3.936-0.504-5.712-1.496c-2.741-1.53-4.723-4.037-5.579-7.058
				c-0.856-3.02-0.485-6.194,1.045-8.936c1.53-2.742,4.036-4.724,7.057-5.58c3.021-0.856,6.194-0.485,8.937,1.045
				c2.741,1.53,4.723,4.037,5.579,7.058c0.856,3.021,0.485,6.194-1.045,8.936l0,0c-1.53,2.742-4.036,4.723-7.057,5.58
				C184.415,246.311,183.331,246.461,182.255,246.461z M182.289,223.642c-1.013,0-2.031,0.14-3.032,0.424
				c-2.841,0.806-5.198,2.669-6.637,5.248c-1.439,2.579-1.788,5.563-0.983,8.404c0.806,2.841,2.669,5.198,5.248,6.637
				c2.578,1.439,5.562,1.788,8.403,0.982c2.841-0.806,5.198-2.669,6.637-5.247l0,0c1.439-2.579,1.788-5.563,0.983-8.404
				c-0.806-2.841-2.669-5.198-5.248-6.637C185.99,224.116,184.15,223.642,182.289,223.642z"/>
		</g>
		<g>
			<g>
				<path style="fill:#0F0F5C;" d="M299.207,161.043c-0.166,0-0.313-0.118-0.344-0.286c-0.036-0.19,0.09-0.373,0.279-0.408
					l20.862-3.882c0.204-0.038,0.373,0.09,0.408,0.28c0.036,0.19-0.09,0.372-0.279,0.408l-20.862,3.882
					C299.249,161.041,299.228,161.043,299.207,161.043z"/>
			</g>
			<g>
				<path style="fill:#0F0F5C;" d="M248.944,121.613c-0.011,0-0.022-0.001-0.034-0.002c-0.192-0.019-0.333-0.19-0.314-0.382
					l2.473-25.061c0.02-0.192,0.167-0.345,0.383-0.314c0.192,0.019,0.333,0.19,0.314,0.382l-2.473,25.061
					C249.274,121.478,249.123,121.613,248.944,121.613z"/>
			</g>
			<g>
				<path style="fill:#0F0F5C;" d="M274.928,136.117c-0.079,0-0.157-0.026-0.223-0.08c-0.149-0.123-0.17-0.344-0.047-0.493
					l34.852-42.245c0.122-0.15,0.343-0.17,0.492-0.047c0.149,0.123,0.17,0.344,0.047,0.493l-34.852,42.245
					C275.129,136.073,275.028,136.117,274.928,136.117z"/>
			</g>
		</g>
	</g>
	<g>
		<path style="fill:#0F0F5C;" d="M161.476,638.45h-24.948c-8.947,0-16.227-7.862-16.227-17.527V488.669
			c0-9.664,7.279-17.527,16.227-17.527h46.419c12.988,0,23.555-11.445,23.555-25.513v-97.104c0-0.193,0.156-0.35,0.35-0.35
			c0.193,0,0.35,0.157,0.35,0.35v97.104c0,14.454-10.88,26.213-24.254,26.213h-46.419c-8.562,0-15.527,7.548-15.527,16.827v132.254
			c0,9.279,6.966,16.828,15.527,16.828h24.948c0.193,0,0.35,0.156,0.35,0.35C161.825,638.294,161.669,638.45,161.476,638.45z"/>
	</g>
	<g>
		<path style="fill:#FFC508;" d="M547.159,821.377l7.112,0.026l1.508,0.005l250.514,0.954L698.344,668.391L547.159,821.377z
			 M639.821,787.886l51.95-52.569l37.092,52.906L639.821,787.886z"/>
		<g>
			<path style="fill:#0F0F5C;" d="M689.836,694.493c-0.077,0-0.152-0.035-0.201-0.103l-6.348-8.649
				c-0.082-0.111-0.058-0.268,0.054-0.349c0.109-0.083,0.267-0.06,0.349,0.054l6.348,8.649c0.082,0.111,0.058,0.268-0.054,0.349
				C689.94,694.477,689.888,694.493,689.836,694.493z"/>
		</g>
		<g>
			<path style="fill:#0F0F5C;" d="M676.893,707.351c-0.077,0-0.152-0.035-0.201-0.103l-6.347-8.649
				c-0.082-0.111-0.058-0.267,0.054-0.349c0.108-0.084,0.267-0.06,0.349,0.054l6.347,8.649c0.082,0.111,0.058,0.268-0.054,0.349
				C676.996,707.335,676.944,707.351,676.893,707.351z"/>
		</g>
		<g>
			<path style="fill:#0F0F5C;" d="M663.95,720.208c-0.077,0-0.152-0.035-0.201-0.102l-6.347-8.649
				c-0.082-0.111-0.058-0.268,0.054-0.349c0.109-0.083,0.267-0.06,0.349,0.054l6.347,8.649c0.082,0.111,0.058,0.268-0.054,0.349
				C664.054,720.192,664.002,720.208,663.95,720.208z"/>
		</g>
		<g>
			<path style="fill:#0F0F5C;" d="M651.008,733.065c-0.077,0-0.152-0.035-0.201-0.103l-6.348-8.649
				c-0.082-0.111-0.058-0.268,0.054-0.349c0.108-0.083,0.266-0.058,0.349,0.054l6.348,8.649c0.082,0.111,0.058,0.267-0.054,0.349
				C651.111,733.05,651.06,733.065,651.008,733.065z"/>
		</g>
		<g>
			<path style="fill:#0F0F5C;" d="M638.065,745.923c-0.077,0-0.152-0.035-0.201-0.103l-6.348-8.649
				c-0.082-0.111-0.058-0.268,0.054-0.349c0.109-0.084,0.267-0.06,0.349,0.054l6.348,8.649c0.082,0.111,0.058,0.268-0.054,0.349
				C638.169,745.907,638.117,745.923,638.065,745.923z"/>
		</g>
		<g>
			<path style="fill:#0F0F5C;" d="M625.122,758.78c-0.077,0-0.152-0.035-0.201-0.103l-6.347-8.649
				c-0.082-0.111-0.058-0.268,0.054-0.349c0.108-0.083,0.267-0.06,0.349,0.054l6.347,8.649c0.082,0.111,0.058,0.268-0.054,0.349
				C625.226,758.765,625.174,758.78,625.122,758.78z"/>
		</g>
		<g>
			<path style="fill:#0F0F5C;" d="M612.18,771.638c-0.077,0-0.152-0.035-0.201-0.102l-6.347-8.65
				c-0.082-0.111-0.058-0.267,0.054-0.349c0.108-0.083,0.267-0.059,0.349,0.054l6.347,8.649c0.082,0.111,0.058,0.268-0.054,0.349
				C612.283,771.622,612.231,771.638,612.18,771.638z"/>
		</g>
		<g>
			<path style="fill:#0F0F5C;" d="M599.237,784.496c-0.077,0-0.152-0.035-0.201-0.102l-6.348-8.65
				c-0.082-0.111-0.058-0.268,0.054-0.349c0.108-0.084,0.267-0.059,0.349,0.054l6.348,8.65c0.082,0.111,0.058,0.268-0.054,0.349
				C599.341,784.481,599.289,784.496,599.237,784.496z"/>
		</g>
		<g>
			<path style="fill:#0F0F5C;" d="M586.295,797.354c-0.077,0-0.152-0.035-0.201-0.103l-6.348-8.65
				c-0.082-0.111-0.058-0.268,0.054-0.349c0.109-0.084,0.267-0.06,0.349,0.054l6.348,8.65c0.082,0.111,0.058,0.267-0.054,0.349
				C586.398,797.338,586.347,797.354,586.295,797.354z"/>
		</g>
		<g>
			<path style="fill:#0F0F5C;" d="M573.352,810.211c-0.077,0-0.152-0.035-0.201-0.102l-6.347-8.65
				c-0.082-0.111-0.058-0.268,0.054-0.349c0.108-0.083,0.267-0.059,0.349,0.054l6.347,8.65c0.082,0.111,0.058,0.268-0.054,0.349
				C573.455,810.195,573.403,810.211,573.352,810.211z"/>
		</g>
	</g>
	<g>
		<path style="fill:#0F0F5C;" d="M1212.206,821.303H112.815c-0.193,0-0.35-0.156-0.35-0.35c0-0.193,0.156-0.35,0.35-0.35h1099.391
			c0.193,0,0.35,0.156,0.35,0.35C1212.556,821.146,1212.399,821.303,1212.206,821.303z"/>
	</g>
	<g>
		<g>
			<path style="fill:#0F0F5C;" d="M1136.034,177.971c-1.909,0-3.971-0.102-6.176-0.307c-12.073-1.124-27.04-5.211-42.142-11.508
				c-31.254-13.033-53.346-31.637-49.245-41.47c2.007-4.812,9.812-6.837,21.979-5.705c12.072,1.124,27.038,5.211,42.141,11.508
				c31.255,13.033,53.347,31.637,49.246,41.471C1150.194,175.899,1144.664,177.971,1136.034,177.971z M1054.223,119.171
				c-8.381,0-13.729,1.966-15.29,5.707c-3.994,9.579,17.977,27.889,48.978,40.816c15.056,6.279,29.97,10.353,41.994,11.472
				c11.927,1.11,19.556-0.807,21.472-5.399c3.994-9.579-17.978-27.89-48.979-40.816c-15.056-6.279-29.97-10.353-41.994-11.472
				C1058.192,119.273,1056.128,119.171,1054.223,119.171z"/>
		</g>
		<g>
			<path style="fill:#0F0F5C;" d="M1095.154,209.736c-10.756,0-19.507-27.55-19.507-61.413c0-33.864,8.751-61.414,19.507-61.414
				s19.507,27.55,19.507,61.414C1114.661,182.186,1105.91,209.736,1095.154,209.736z M1095.154,87.409
				c-10.48,0-19.007,27.326-19.007,60.914c0,33.588,8.526,60.913,19.007,60.913s19.007-27.326,19.007-60.913
				C1114.161,114.735,1105.635,87.409,1095.154,87.409z"/>
		</g>
		<g>
			<path style="fill:#0F0F5C;" d="M1053.633,178.611c-7.965,0-13.101-1.928-14.721-5.623c-2.072-4.724,1.874-11.721,11.113-19.702
				c9.167-7.919,22.467-15.899,37.451-22.471c14.984-6.571,29.864-10.95,41.899-12.329c12.126-1.39,19.949,0.446,22.021,5.17
				c4.233,9.654-17.553,28.572-48.564,42.173c-14.984,6.571-29.864,10.95-41.899,12.329
				C1058.291,178.461,1055.852,178.611,1053.633,178.611z M1136.731,118.53c-2.212,0-4.648,0.15-7.299,0.454
				c-11.986,1.374-26.815,5.738-41.755,12.29c-14.939,6.552-28.195,14.504-37.326,22.391c-9.059,7.825-12.959,14.617-10.982,19.122
				c1.977,4.507,9.615,6.239,21.507,4.875c11.986-1.373,26.815-5.738,41.755-12.29c30.76-13.49,52.431-32.113,48.309-41.514
				C1149.403,120.356,1144.446,118.53,1136.731,118.53z"/>
		</g>
		<circle style="fill:#FF6B3D;" cx="1043.427" cy="159.503" r="3.82"/>
		<path style="fill:#617DFF;" d="M1139.949,153.888c0-2.185,1.771-3.956,3.956-3.956c2.185,0,3.956,1.771,3.956,3.956
			c0,2.185-1.771,3.956-3.956,3.956C1141.72,157.844,1139.949,156.073,1139.949,153.888z"/>
		
			<ellipse transform="matrix(0.7071 -0.7071 0.7071 0.7071 216.323 817.0191)" style="fill:#FFC508;" cx="1094.391" cy="147.385" rx="7.536" ry="7.536"/>
	</g>
	<g>
		<path style="fill:#B4BCCF;" d="M335.299,274.076c-1.846-0.11-3.622-0.192-5.326-0.246c-1.705-0.055-3.496-0.082-5.373-0.082
			c-0.736,0-1.548,0.004-2.44,0.012c-0.892,0.008-1.705,0.027-2.44,0.059c-0.078-2.284-0.137-4.583-0.176-6.898
			c-0.039-2.315-0.059-4.536-0.059-6.663c0-4.301,0.024-7.79,0.07-10.464c0.047-2.674,0.102-4.434,0.164-5.279
			c2.659-0.376,5.118-0.681,7.379-0.915c2.26-0.235,4.153-0.403,5.678-0.505c1.525-0.102,2.499-0.153,2.921-0.153
			c0,0.391-0.008,0.7-0.023,0.927c-0.016,0.227-0.039,0.497-0.07,0.809l-13.867,1.103c-0.032,0.516-0.059,1.243-0.082,2.182
			c-0.023,0.939-0.043,1.94-0.059,3.003c-0.016,1.064-0.027,2.061-0.035,2.992c-0.008,0.931-0.012,1.646-0.012,2.147
			c0.344-0.015,0.93-0.035,1.76-0.059c0.829-0.023,1.779-0.055,2.851-0.094c1.071-0.039,2.15-0.074,3.238-0.106
			c1.087-0.031,2.072-0.055,2.956-0.07c0.884-0.015,1.544-0.023,1.982-0.023l0.188,1.83c-0.235,0-0.763,0-1.584,0
			c-0.821,0-1.791,0.004-2.909,0.011c-1.119,0.008-2.257,0.016-3.414,0.024c-1.158,0.008-2.198,0.016-3.12,0.023
			c-0.923,0.008-1.588,0.02-1.994,0.035c0,0.25,0,0.794,0,1.631c0,0.837,0,1.834,0,2.992c0,1.158,0,2.354,0,3.59
			c0,1.236,0,2.401,0,3.496c0,1.095,0,1.986,0,2.674c0.469-0.031,1.134-0.051,1.994-0.059c0.86-0.007,1.603-0.012,2.229-0.012
			c1.251,0,2.522,0.016,3.813,0.047c1.29,0.032,2.475,0.071,3.554,0.117c1.079,0.047,1.916,0.094,2.511,0.141
			c-0.016,0.156-0.035,0.321-0.059,0.493c-0.023,0.172-0.047,0.337-0.071,0.493c-0.023,0.157-0.051,0.301-0.082,0.434
			C335.361,273.845,335.33,273.966,335.299,274.076z"/>
		<path style="fill:#B4BCCF;" d="M341.501,250.402c0.673-0.141,1.693-0.27,3.062-0.387c1.369-0.117,2.921-0.227,4.657-0.328
			c1.736-0.102,3.519-0.188,5.349-0.258c1.83-0.07,3.558-0.125,5.185-0.164c1.626-0.039,2.987-0.059,4.083-0.059
			c0.015,0.11,0.031,0.223,0.047,0.34c0.015,0.117,0.027,0.234,0.035,0.352c0.007,0.117,0.015,0.235,0.023,0.352
			c0.008,0.117,0.012,0.239,0.012,0.364c-0.844,0-2.037,0.027-3.578,0.082c-1.541,0.055-3.242,0.133-5.103,0.235
			c-1.862,0.102-3.711,0.211-5.549,0.328c-1.838,0.117-3.504,0.235-4.998,0.352c-1.494,0.117-2.624,0.223-3.39,0.317
			c0-0.125,0.004-0.25,0.012-0.376c0.008-0.125,0.02-0.254,0.035-0.387c0.016-0.133,0.035-0.262,0.059-0.387
			C341.466,250.652,341.485,250.527,341.501,250.402z M341.548,260.96c1.283-0.172,2.686-0.305,4.212-0.399
			c1.525-0.094,3.101-0.16,4.728-0.199c1.627-0.039,3.214-0.058,4.763-0.058c1.751,0,3.386,0.02,4.904,0.058
			c1.517,0.039,2.776,0.09,3.777,0.153c0.031,0.11,0.055,0.231,0.071,0.364c0.015,0.133,0.035,0.266,0.059,0.399
			c0.023,0.133,0.039,0.262,0.047,0.387c0.008,0.126,0.012,0.25,0.012,0.376c-0.798,0-1.771,0-2.921,0
			c-1.15,0-2.409,0.008-3.778,0.023c-1.369,0.016-2.78,0.031-4.235,0.047c-1.454,0.016-2.897,0.039-4.329,0.071
			c-1.431,0.031-2.788,0.07-4.071,0.117c-1.283,0.047-2.416,0.11-3.402,0.188c0-0.109,0.004-0.227,0.012-0.352
			c0.007-0.125,0.019-0.254,0.035-0.387c0.016-0.133,0.035-0.266,0.059-0.399C341.513,261.215,341.532,261.085,341.548,260.96z"/>
		<path style="fill:#B4BCCF;" d="M374.887,274.099c-0.141-1.251-0.274-2.643-0.399-4.177c-0.125-1.533-0.234-3.144-0.328-4.833
			s-0.176-3.402-0.246-5.139c-0.071-1.736-0.126-3.433-0.164-5.091c-0.039-1.658-0.059-3.214-0.059-4.669
			c0.094-0.047,0.219-0.094,0.375-0.141c0.156-0.047,0.317-0.09,0.481-0.129c0.164-0.039,0.324-0.074,0.481-0.106
			c0.156-0.031,0.289-0.047,0.399-0.047c0.016,0.234,0.035,0.638,0.059,1.208c0.023,0.571,0.051,1.189,0.082,1.854
			c0.031,0.665,0.055,1.267,0.071,1.807c0.015,0.54,0.023,0.896,0.023,1.068c0.141-0.376,0.406-0.892,0.798-1.549
			c0.391-0.657,0.938-1.329,1.642-2.018c0.704-0.688,1.591-1.267,2.663-1.736c1.071-0.469,2.358-0.704,3.859-0.704
			c1.314,0,2.417,0.298,3.308,0.892c0.892,0.595,1.611,1.373,2.159,2.335c0.547,0.962,0.946,2.006,1.197,3.132
			c0.172,0.704,0.289,1.408,0.352,2.112c0.063,0.704,0.094,1.392,0.094,2.065c0.188-1.861,0.622-3.625,1.302-5.291
			c0.68-1.666,1.689-3.023,3.026-4.071c1.338-1.048,3.077-1.572,5.221-1.572c1.533,0,2.788,0.364,3.766,1.091
			c0.978,0.727,1.744,1.721,2.299,2.98c0.555,1.259,0.942,2.698,1.161,4.317c0.219,1.619,0.328,3.32,0.328,5.103
			c0,1.299-0.039,2.679-0.117,4.141c-0.078,1.463-0.176,2.851-0.293,4.165c-0.117,1.314-0.238,2.401-0.364,3.261
			c-0.156,0.047-0.321,0.082-0.493,0.105c-0.172,0.024-0.352,0.035-0.54,0.035c-0.141,0-0.309-0.008-0.504-0.023
			c-0.196-0.016-0.395-0.032-0.598-0.047c0.297-2.299,0.524-4.438,0.681-6.417c0.156-1.978,0.234-3.781,0.234-5.408
			c0-3.723-0.45-6.542-1.349-8.458c-0.9-1.916-2.374-2.874-4.423-2.874c-1.83,0-3.293,0.528-4.388,1.583
			c-1.095,1.056-1.916,2.46-2.464,4.212c-0.548,1.752-0.911,3.692-1.091,5.819c-0.18,2.128-0.27,4.27-0.27,6.429
			c0,0.767,0,1.56,0,2.381c0,0.822,0,1.615,0,2.382c-0.156,0.016-0.332,0.035-0.528,0.059c-0.196,0.023-0.372,0.035-0.528,0.035
			c-0.172,0-0.372-0.012-0.598-0.035c-0.227-0.023-0.427-0.059-0.599-0.105c0.031-1.033,0.059-2.053,0.082-3.062
			c0.023-1.009,0.035-1.991,0.035-2.945c0-1.845-0.074-3.723-0.223-5.631c-0.149-1.908-0.442-3.672-0.88-5.291
			c-0.438-1.619-1.091-2.925-1.959-3.918c-0.868-0.993-2.03-1.49-3.484-1.49c-1.142,0-2.217,0.317-3.226,0.95
			c-1.009,0.633-1.897,1.424-2.663,2.37c-0.767,0.946-1.369,1.9-1.807,2.862c-0.438,0.962-0.657,1.771-0.657,2.429
			c0.094,2.503,0.219,4.712,0.375,6.628c0.156,1.916,0.309,3.488,0.458,4.716c0.148,1.228,0.254,2.069,0.316,2.522
			c-0.11,0.015-0.258,0.031-0.446,0.047c-0.188,0.016-0.352,0.023-0.493,0.023c-0.203,0-0.403-0.011-0.598-0.035
			C375.242,274.181,375.059,274.146,374.887,274.099z"/>
		<path style="fill:#B4BCCF;" d="M435.489,269.102c-0.298,0.704-0.856,1.431-1.678,2.182c-0.821,0.751-1.854,1.384-3.097,1.901
			c-1.243,0.516-2.655,0.774-4.235,0.774c-2.221,0-4.122-0.583-5.701-1.748c-1.58-1.165-2.785-2.714-3.613-4.646
			c-0.829-1.932-1.243-4.039-1.243-6.323c0-2.612,0.391-4.896,1.173-6.851c0.782-1.955,1.967-3.476,3.554-4.563
			c1.587-1.087,3.602-1.631,6.042-1.631c1.439,0,2.725,0.254,3.86,0.762c1.134,0.509,2.084,1.15,2.851,1.924
			c0.766,0.774,1.322,1.553,1.666,2.334l-1.408,1.384c-0.094-0.234-0.274-0.606-0.54-1.114c-0.266-0.508-0.669-1.044-1.208-1.607
			c-0.54-0.563-1.255-1.04-2.147-1.431c-0.891-0.391-2.01-0.587-3.355-0.587c-1.783,0-3.3,0.458-4.552,1.373
			c-1.252,0.915-2.206,2.167-2.862,3.754c-0.657,1.588-0.985,3.406-0.985,5.455c0,2.112,0.301,4.056,0.903,5.831
			c0.602,1.776,1.54,3.199,2.815,4.27c1.275,1.072,2.921,1.607,4.939,1.607c1.204,0,2.253-0.184,3.144-0.551
			c0.891-0.367,1.634-0.801,2.229-1.302c0.595-0.5,1.056-0.965,1.384-1.396c0.328-0.43,0.524-0.7,0.587-0.81L435.489,269.102z"/>
		<path style="fill:#B4BCCF;" d="M449.762,256.788c0,0.064-0.002,0.144-0.007,0.24c-0.005,0.096-0.012,0.196-0.021,0.301
			c-0.009,0.105-0.023,0.205-0.041,0.301c-0.018,0.096-0.036,0.175-0.055,0.239l-10.615,0.602c-0.018-0.073-0.034-0.141-0.048-0.205
			c-0.013-0.064-0.025-0.125-0.034-0.185c-0.009-0.06-0.018-0.126-0.027-0.198c-0.009-0.073-0.019-0.155-0.028-0.246
			c0.319-0.365,0.748-0.885,1.286-1.559c0.538-0.675,1.117-1.411,1.737-2.209c0.62-0.798,1.208-1.562,1.764-2.291
			c0.429-0.556,0.898-1.186,1.409-1.888c0.51-0.702,0.994-1.432,1.45-2.189c0.456-0.757,0.83-1.496,1.122-2.216
			c0.292-0.72,0.438-1.382,0.438-1.984c0-0.994-0.317-1.707-0.951-2.141c-0.634-0.433-1.37-0.649-2.209-0.649
			c-0.985,0-1.831,0.189-2.538,0.568c-0.707,0.378-1.306,0.907-1.799,1.586c-0.492,0.68-0.907,1.466-1.245,2.36
			c-0.055-0.027-0.139-0.078-0.253-0.15c-0.114-0.073-0.23-0.158-0.349-0.253c-0.119-0.096-0.224-0.18-0.315-0.253
			c0.374-0.957,0.875-1.796,1.505-2.517c0.629-0.72,1.372-1.279,2.229-1.676c0.857-0.397,1.81-0.595,2.859-0.595
			c1.167,0,2.136,0.321,2.907,0.965c0.771,0.643,1.156,1.489,1.156,2.537c0,1.149-0.331,2.346-0.992,3.591
			c-0.661,1.245-1.443,2.506-2.346,3.782c-0.411,0.575-0.894,1.231-1.45,1.97c-0.556,0.739-1.108,1.462-1.655,2.168
			c-0.547,0.707-1.024,1.32-1.429,1.84c-0.406,0.52-0.668,0.848-0.787,0.985c0.246-0.027,0.661-0.064,1.245-0.11
			c0.583-0.045,1.254-0.095,2.011-0.15c0.757-0.055,1.527-0.107,2.312-0.157c0.784-0.05,1.51-0.096,2.175-0.137
			C448.841,256.823,449.37,256.798,449.762,256.788z"/>
	</g>
	<g>
		<g>
			<path style="fill:#B4BCCF;" d="M1167.256,524.351l-1.938-0.295c0-3.047-0.056-6.196-0.168-9.448
				c-0.113-3.251-0.25-6.446-0.411-9.585c-0.161-3.139-0.319-6.056-0.474-8.753c1.572,0,2.928,0.007,4.066,0.021
				c1.137,0.015,2.155,0.035,3.054,0.063c1.236,0.042,2.335,0.102,3.297,0.179c0.962,0.077,2.019,0.18,3.17,0.305
				c0.043,0.239,0.071,0.544,0.085,0.917c0.014,0.372,0.021,0.664,0.021,0.874c-0.52-0.07-1.285-0.147-2.296-0.232
				c-1.011-0.084-2.293-0.158-3.844-0.221c-1.552-0.063-3.423-0.095-5.614-0.095c0.07,0.73,0.14,1.71,0.21,2.939
				c0.071,1.229,0.133,2.514,0.19,3.855c0.056,1.341,0.105,2.559,0.147,3.655c1.98,0,3.721,0.039,5.224,0.116
				c1.502,0.077,2.699,0.158,3.591,0.242c0.892,0.084,1.394,0.133,1.506,0.147c0,0.225-0.011,0.488-0.031,0.79
				c-0.021,0.302-0.039,0.509-0.053,0.622c-0.927-0.098-2.009-0.186-3.244-0.264c-1.236-0.077-2.475-0.137-3.718-0.179
				c-1.243-0.043-2.328-0.063-3.255-0.063c0.085,1.236,0.161,2.672,0.232,4.308c0.07,1.637,0.13,3.332,0.179,5.088
				C1167.231,521.093,1167.256,522.764,1167.256,524.351z"/>
			<path style="fill:#B4BCCF;" d="M1182.001,502.738c0.604-0.127,1.52-0.242,2.749-0.348c1.228-0.105,2.622-0.203,4.181-0.295
				c1.558-0.091,3.16-0.169,4.803-0.232c1.643-0.063,3.195-0.112,4.655-0.147c1.461-0.035,2.682-0.053,3.666-0.053
				c0.014,0.099,0.028,0.2,0.042,0.306c0.014,0.105,0.024,0.211,0.031,0.316c0.007,0.105,0.014,0.211,0.021,0.316
				c0.007,0.105,0.011,0.215,0.011,0.327c-0.759,0-1.83,0.025-3.213,0.073c-1.383,0.049-2.911,0.12-4.582,0.211
				c-1.671,0.091-3.332,0.19-4.982,0.295c-1.651,0.105-3.146,0.211-4.487,0.316c-1.342,0.105-2.356,0.2-3.044,0.284
				c0-0.112,0.003-0.224,0.011-0.337c0.007-0.112,0.017-0.228,0.031-0.348c0.014-0.12,0.031-0.235,0.053-0.348
				C1181.97,502.963,1181.988,502.85,1182.001,502.738z M1182.044,512.217c1.151-0.154,2.412-0.273,3.781-0.358
				c1.37-0.084,2.784-0.143,4.245-0.179c1.46-0.035,2.886-0.053,4.276-0.053c1.572,0,3.04,0.018,4.402,0.053
				c1.362,0.035,2.493,0.081,3.392,0.137c0.028,0.099,0.049,0.207,0.063,0.327c0.014,0.119,0.031,0.239,0.053,0.358
				c0.021,0.12,0.035,0.235,0.042,0.348c0.007,0.113,0.011,0.225,0.011,0.337c-0.717,0-1.59,0-2.623,0
				c-1.032,0-2.163,0.007-3.391,0.021c-1.23,0.014-2.496,0.029-3.803,0.042c-1.306,0.015-2.602,0.035-3.887,0.063
				c-1.285,0.029-2.503,0.063-3.654,0.105c-1.152,0.042-2.17,0.099-3.055,0.169c0-0.098,0.003-0.203,0.011-0.316
				c0.007-0.112,0.017-0.228,0.031-0.348c0.014-0.119,0.032-0.239,0.053-0.358C1182.012,512.446,1182.03,512.33,1182.044,512.217z"
				/>
			<path style="fill:#B4BCCF;" d="M1207.954,524.014c-0.127-1.123-0.246-2.373-0.358-3.75c-0.113-1.376-0.211-2.823-0.295-4.339
				c-0.084-1.517-0.158-3.055-0.222-4.614c-0.063-1.558-0.112-3.082-0.147-4.571c-0.035-1.488-0.053-2.886-0.053-4.192
				c0.085-0.043,0.197-0.085,0.338-0.127c0.14-0.042,0.284-0.081,0.432-0.116c0.147-0.035,0.292-0.066,0.432-0.095
				c0.141-0.028,0.26-0.042,0.358-0.042c0.014,0.211,0.031,0.572,0.053,1.085c0.021,0.513,0.045,1.067,0.074,1.664
				c0.028,0.597,0.049,1.137,0.063,1.622c0.014,0.485,0.021,0.805,0.021,0.959c0.126-0.337,0.365-0.801,0.716-1.39
				c0.351-0.59,0.843-1.193,1.475-1.812c0.632-0.618,1.429-1.138,2.391-1.558c0.961-0.422,2.117-0.633,3.465-0.633
				c1.18,0,2.17,0.268,2.97,0.801c0.801,0.534,1.446,1.233,1.938,2.096c0.492,0.864,0.85,1.801,1.075,2.813
				c0.154,0.632,0.26,1.264,0.316,1.896c0.055,0.632,0.084,1.25,0.084,1.853c0.168-1.671,0.558-3.254,1.169-4.75
				c0.611-1.496,1.517-2.714,2.718-3.655c1.201-0.941,2.763-1.411,4.687-1.411c1.376,0,2.504,0.326,3.381,0.979
				c0.878,0.653,1.566,1.545,2.065,2.675c0.498,1.131,0.846,2.422,1.043,3.876s0.295,2.981,0.295,4.582
				c0,1.166-0.035,2.405-0.105,3.718c-0.07,1.314-0.158,2.56-0.263,3.739c-0.105,1.18-0.215,2.156-0.327,2.928
				c-0.141,0.043-0.288,0.074-0.442,0.095c-0.155,0.021-0.316,0.032-0.484,0.032c-0.127,0-0.277-0.007-0.453-0.021
				c-0.176-0.014-0.355-0.028-0.537-0.042c0.266-2.064,0.47-3.985,0.61-5.761c0.141-1.777,0.211-3.395,0.211-4.855
				c0-3.342-0.404-5.874-1.211-7.595c-0.807-1.72-2.131-2.58-3.971-2.58c-1.643,0-2.956,0.474-3.939,1.422
				c-0.983,0.948-1.72,2.209-2.212,3.781c-0.492,1.573-0.818,3.315-0.979,5.224c-0.162,1.911-0.243,3.834-0.243,5.772
				c0,0.689,0,1.401,0,2.138c0,0.738,0,1.45,0,2.138c-0.14,0.014-0.298,0.032-0.474,0.053c-0.175,0.021-0.334,0.032-0.474,0.032
				c-0.155,0-0.334-0.011-0.538-0.032c-0.203-0.021-0.382-0.053-0.537-0.095c0.028-0.927,0.053-1.843,0.074-2.748
				c0.021-0.906,0.031-1.787,0.031-2.644c0-1.657-0.067-3.342-0.2-5.056c-0.133-1.713-0.397-3.296-0.79-4.75
				c-0.394-1.454-0.979-2.626-1.759-3.518c-0.779-0.892-1.822-1.338-3.128-1.338c-1.025,0-1.991,0.285-2.897,0.853
				c-0.905,0.569-1.703,1.278-2.391,2.128c-0.688,0.849-1.229,1.706-1.622,2.57c-0.394,0.863-0.59,1.59-0.59,2.18
				c0.084,2.247,0.196,4.231,0.337,5.951c0.14,1.721,0.278,3.132,0.411,4.234c0.133,1.103,0.228,1.857,0.284,2.265
				c-0.098,0.013-0.232,0.028-0.4,0.042c-0.168,0.014-0.316,0.021-0.442,0.021c-0.183,0-0.362-0.01-0.537-0.031
				C1208.273,524.088,1208.108,524.056,1207.954,524.014z"/>
			<path style="fill:#B4BCCF;" d="M1253.898,524.309c-1.769,0-3.367-0.232-4.793-0.695c-1.425-0.464-2.556-1.215-3.391-2.254
				c-0.836-1.039-1.254-2.415-1.254-4.129c0-1.601,0.446-2.956,1.338-4.066c0.891-1.109,2.135-1.949,3.729-2.517
				c1.594-0.569,3.444-0.853,5.551-0.853c1.138,0,2.251,0.081,3.339,0.242c1.088,0.161,2.026,0.334,2.813,0.516
				c0.786,0.182,1.292,0.309,1.516,0.379c-0.07-0.576-0.161-1.137-0.273-1.685c-0.113-0.548-0.281-1.046-0.506-1.496
				c-0.632-1.32-1.608-2.398-2.928-3.233c-1.32-0.835-2.921-1.254-4.803-1.254c-2.036,0-3.721,0.429-5.055,1.285
				c-1.334,0.857-2.332,1.889-2.991,3.097l-1.664-1.159c0.59-0.941,1.362-1.78,2.317-2.517c0.955-0.737,2.068-1.32,3.339-1.749
				c1.271-0.428,2.664-0.642,4.182-0.642c2.247,0,4.146,0.495,5.698,1.485c1.552,0.99,2.665,2.216,3.339,3.676
				c0.365,0.801,0.653,1.664,0.864,2.591c0.211,0.927,0.315,2.149,0.315,3.665c0,1.826,0.014,3.301,0.043,4.424
				c0.027,1.123,0.084,2.008,0.168,2.654c0.098,0.773,0.253,1.264,0.464,1.475c0.211,0.21,0.512,0.316,0.906,0.316
				c0.533,0,0.961-0.287,1.285-0.863c0.323-0.576,0.484-1.39,0.484-2.444l1.875,0.274c0,1.714-0.393,2.97-1.18,3.771
				c-0.786,0.801-1.629,1.201-2.528,1.201c-0.745,0-1.356-0.168-1.833-0.506c-0.478-0.337-0.836-0.744-1.075-1.221
				c-0.239-0.477-0.386-0.92-0.442-1.327c-0.337,0.492-0.951,1.015-1.843,1.569c-0.892,0.555-1.945,1.025-3.16,1.412
				C1256.528,524.115,1255.246,524.309,1253.898,524.309z M1254.003,522.645c1.151,0,2.258-0.175,3.318-0.527
				c1.06-0.351,2.04-0.835,2.939-1.454c0.899-0.618,1.678-1.327,2.338-2.128c0-1.292,0.017-2.391,0.053-3.297
				c0.035-0.905,0.081-1.772,0.137-2.601c-0.492-0.155-1.46-0.39-2.907-0.706c-1.447-0.316-3.139-0.474-5.077-0.474
				c-1.657,0-3.128,0.24-4.413,0.716c-1.285,0.478-2.293,1.145-3.023,2.001c-0.73,0.857-1.095,1.861-1.095,3.012
				c0,1.447,0.338,2.567,1.011,3.36c0.674,0.793,1.594,1.341,2.76,1.643C1251.209,522.494,1252.529,522.645,1254.003,522.645z"/>
		</g>
	</g>
	<g>
		<g>
			<path style="fill:#B4BCCF;" d="M615.625,148.267c-0.291,0-0.603-0.02-0.935-0.061c-0.332-0.041-0.594-0.093-0.789-0.158
				c-1.019-2.216-1.986-4.647-2.9-7.292c-0.914-2.645-1.76-5.31-2.536-7.996c-0.776-2.685-1.46-5.226-2.05-7.62
				c-0.591-2.394-1.076-4.473-1.456-6.237c-0.38-1.763-0.627-3.025-0.74-3.786c0.113-0.048,0.311-0.097,0.594-0.146
				c0.283-0.048,0.578-0.093,0.886-0.133c0.307-0.04,0.55-0.061,0.728-0.061c0.097,0.793,0.307,1.974,0.631,3.543
				c0.323,1.569,0.736,3.369,1.237,5.4c0.501,2.03,1.059,4.158,1.675,6.382c0.615,2.224,1.258,4.409,1.929,6.552
				c0.671,2.144,1.338,4.11,2.002,5.897c0.663,1.788,1.286,3.24,1.869,4.356l-0.291,0.049c0.922-2.346,1.78-4.748,2.572-7.208
				c0.792-2.459,1.529-4.878,2.208-7.256c0.679-2.378,1.282-4.611,1.808-6.698c0.525-2.087,0.975-3.939,1.347-5.557
				c0.372-1.617,0.659-2.904,0.862-3.858c0.202-0.954,0.311-1.472,0.327-1.553c0.389,0.065,0.777,0.158,1.165,0.279
				c0.388,0.121,0.704,0.296,0.946,0.522c-1.036,4.449-2.027,8.409-2.973,11.878c-0.946,3.47-1.816,6.484-2.609,9.04
				c-0.793,2.557-1.484,4.68-2.075,6.37c-0.591,1.691-1.056,2.969-1.396,3.834c-0.34,0.866-0.534,1.347-0.582,1.444
				c-0.178,0.016-0.385,0.032-0.619,0.049C616.227,148.258,615.948,148.267,615.625,148.267z"/>
		</g>
		<g>
			<path style="fill:#B4BCCF;" d="M636.785,123.538c0.695-0.146,1.751-0.279,3.167-0.4c1.416-0.121,3.021-0.234,4.817-0.34
				c1.796-0.105,3.64-0.194,5.533-0.267c1.893-0.073,3.68-0.129,5.363-0.17c1.682-0.04,3.09-0.061,4.223-0.061
				c0.016,0.113,0.032,0.231,0.048,0.352c0.016,0.121,0.028,0.242,0.037,0.364c0.008,0.121,0.016,0.243,0.024,0.364
				c0.008,0.121,0.012,0.247,0.012,0.376c-0.873,0-2.107,0.029-3.7,0.085c-1.594,0.057-3.353,0.138-5.278,0.243
				c-1.926,0.105-3.838,0.218-5.739,0.34c-1.901,0.121-3.624,0.243-5.169,0.364c-1.545,0.121-2.714,0.23-3.506,0.328
				c0-0.129,0.004-0.259,0.012-0.388c0.008-0.129,0.02-0.263,0.036-0.4c0.016-0.137,0.036-0.271,0.061-0.4
				C636.749,123.798,636.769,123.668,636.785,123.538z M636.834,134.459c1.326-0.178,2.779-0.315,4.356-0.413
				c1.577-0.097,3.207-0.166,4.89-0.206c1.682-0.04,3.324-0.06,4.926-0.06c1.811,0,3.502,0.02,5.072,0.06
				c1.569,0.041,2.871,0.093,3.907,0.158c0.032,0.113,0.056,0.239,0.073,0.376c0.016,0.138,0.036,0.275,0.061,0.412
				c0.024,0.138,0.04,0.271,0.048,0.4c0.008,0.13,0.012,0.259,0.012,0.389c-0.825,0-1.832,0-3.021,0
				c-1.189,0-2.492,0.008-3.907,0.024c-1.416,0.016-2.875,0.033-4.38,0.048c-1.504,0.016-2.997,0.041-4.477,0.073
				c-1.48,0.033-2.884,0.073-4.21,0.121c-1.327,0.049-2.499,0.113-3.519,0.194c0-0.113,0.004-0.234,0.012-0.364
				c0.008-0.129,0.02-0.262,0.036-0.4c0.016-0.137,0.036-0.275,0.061-0.412C636.797,134.722,636.818,134.588,636.834,134.459z"/>
		</g>
		<g>
			<path style="fill:#B4BCCF;" d="M681.74,120.669c-1.012,0-2.161-0.178-3.447-0.536c-1.287-0.357-2.555-0.9-3.804-1.629
				c-1.25-0.729-2.328-1.636-3.236-2.722c0.119-0.148,0.246-0.305,0.38-0.468c0.134-0.164,0.275-0.32,0.424-0.469
				c0.148-0.148,0.294-0.286,0.435-0.413c0.141-0.126,0.271-0.234,0.391-0.324c0.565,0.818,1.32,1.595,2.265,2.331
				c0.944,0.736,2.011,1.332,3.202,1.785c1.19,0.454,2.424,0.681,3.704,0.681c1.354,0,2.592-0.215,3.715-0.647
				c1.123-0.431,2.019-1.045,2.689-1.841c0.669-0.796,1.004-1.729,1.004-2.8c0-1.249-0.312-2.272-0.937-3.068
				c-0.625-0.796-1.484-1.469-2.577-2.019c-1.093-0.55-2.362-1.063-3.804-1.54c-1.562-0.52-2.96-1.056-4.195-1.606
				c-1.235-0.55-2.209-1.242-2.923-2.075c-0.714-0.833-1.071-1.926-1.071-3.28c0-1.353,0.375-2.48,1.127-3.38
				c0.751-0.9,1.748-1.577,2.99-2.031c1.242-0.454,2.607-0.68,4.094-0.68c1.904,0,3.518,0.227,4.842,0.68
				c1.324,0.454,2.268,0.874,2.834,1.261c-0.06,0.209-0.134,0.428-0.223,0.658c-0.089,0.231-0.178,0.439-0.268,0.625
				c-0.089,0.186-0.171,0.338-0.245,0.457c-0.818-0.416-1.793-0.818-2.923-1.205c-1.131-0.387-2.403-0.58-3.815-0.58
				c-1.086,0-2.128,0.13-3.124,0.39c-0.997,0.26-1.807,0.688-2.432,1.283c-0.625,0.595-0.937,1.398-0.937,2.41
				c0,0.863,0.294,1.617,0.881,2.265c0.587,0.647,1.357,1.205,2.309,1.673c0.952,0.469,1.986,0.882,3.101,1.238
				c1.547,0.491,2.897,1.004,4.05,1.54c1.153,0.535,2.112,1.131,2.878,1.785c0.766,0.655,1.339,1.391,1.718,2.209
				c0.379,0.818,0.569,1.74,0.569,2.767c0,1.562-0.42,2.882-1.261,3.961c-0.841,1.079-1.986,1.9-3.436,2.465
				C685.232,120.386,683.585,120.669,681.74,120.669z"/>
		</g>
		<g>
			<g>
				<path style="fill:#B4BCCF;" d="M690.595,166.377c-0.164,0.878-0.409,1.789-0.736,2.733c-0.327,0.945-0.826,1.744-1.495,2.399
					c-0.67,0.654-1.622,0.982-2.856,0.982c-1.532,0-2.7-0.354-3.503-1.06c-0.803-0.706-1.35-1.621-1.64-2.744
					c-0.29-1.123-0.435-2.317-0.435-3.581c0-0.654,0.011-1.513,0.034-2.577c0.022-1.063,0.048-2.212,0.078-3.447
					c0.029-1.234,0.063-2.439,0.1-3.615c0.037-1.175,0.07-2.216,0.1-3.124c0.03-0.907,0.052-1.554,0.067-1.941
					c-1.755,0.164-3.198,0.346-4.328,0.547c-1.131,0.201-1.808,0.339-2.031,0.413c-0.015-0.104-0.034-0.257-0.056-0.458
					c-0.022-0.201-0.041-0.409-0.056-0.625c-0.015-0.215-0.022-0.39-0.022-0.524c0.803-0.134,1.822-0.29,3.057-0.469
					c1.234-0.178,2.395-0.305,3.481-0.38c0.03-0.818,0.059-1.703,0.089-2.655c0.03-0.952,0.045-1.882,0.045-2.789
					c0-0.714-0.023-1.395-0.067-2.042c-0.045-0.647-0.089-1.216-0.134-1.707l1.83,0.112c0.044,0.283,0.1,0.934,0.167,1.952
					c0.067,1.019,0.101,2.257,0.101,3.715c0,0.446-0.004,1.001-0.011,1.662c-0.008,0.662-0.026,1.186-0.056,1.573
					c0.416-0.03,0.948-0.056,1.596-0.078c0.647-0.022,1.179-0.033,1.595-0.033c0.773,0,1.551,0.008,2.332,0.022
					c0.781,0.015,1.457,0.034,2.03,0.056c0.573,0.022,0.919,0.041,1.038,0.056c0.03,0.104,0.052,0.331,0.067,0.68
					c0.015,0.35,0.022,0.584,0.022,0.703c-0.149-0.03-0.68-0.063-1.595-0.1c-0.915-0.037-1.833-0.056-2.755-0.056
					c-0.669,0-1.398,0.015-2.187,0.044c-0.789,0.03-1.503,0.067-2.142,0.112c-0.015,0.461-0.044,1.175-0.089,2.142
					c-0.045,0.967-0.086,2.057-0.123,3.269c-0.037,1.213-0.078,2.429-0.123,3.648c-0.044,1.22-0.078,2.335-0.1,3.347
					c-0.022,1.012-0.034,1.777-0.034,2.298c0,0.893,0.067,1.8,0.201,2.722c0.134,0.923,0.461,1.7,0.982,2.332
					c0.521,0.633,1.346,0.948,2.477,0.948c0.788,0,1.406-0.312,1.852-0.937c0.446-0.625,0.773-1.335,0.982-2.131
					c0.208-0.796,0.349-1.439,0.424-1.93c0.059,0.015,0.175,0.052,0.346,0.112c0.171,0.06,0.364,0.119,0.58,0.178
					c0.216,0.06,0.409,0.112,0.58,0.156C690.442,166.333,690.55,166.363,690.595,166.377z"/>
			</g>
		</g>
		<g>
			<rect x="669.549" y="128.066" style="fill:#B4BCCF;" width="25.713" height="1.247"/>
		</g>
	</g>
	<g>
		<path style="fill:#E6E8ED;" d="M395.227,164.239c7.872-10.418,21.774-15.909,34.641-13.682c-0.585-0.143,1.292-0.149,0.707-0.292
			c-2.855-5.784-0.68-13.555,4.763-17.016c5.443-3.461,13.403-2.135,17.43,2.903c1.2-18.38,18.08-34.354,36.498-34.539
			c18.418-0.185,35.615,15.446,37.184,33.798c6.582-3.834,15.709-2.575,21.008,2.898c5.298,5.473,6.261,14.636,2.217,21.09
			c7.923-4.375,19.416,1.493,20.518,10.476l-208.051,0.047C372.747,166.975,384.221,164.097,395.227,164.239z"/>
	</g>
	<path style="fill:#FFC508;" d="M127.358,723.047c-6.854-2.051-12.207-9.318-13.718-18.622l-0.824-5.078l-0.825,5.078
		c-1.511,9.305-6.864,16.572-13.718,18.622l-3.741,1.119l3.741,1.119c6.854,2.051,12.207,9.318,13.718,18.622l0.825,5.078
		l0.824-5.078c1.511-9.304,6.864-16.571,13.718-18.622l3.741-1.119L127.358,723.047z"/>
	<path style="fill:#FFC508;" d="M967.194,135.574c-6.854-2.051-12.207-9.318-13.718-18.622l-0.825-5.078l-0.824,5.078
		c-1.511,9.305-6.864,16.572-13.718,18.622l-3.741,1.119l3.741,1.119c6.854,2.051,12.207,9.318,13.718,18.622l0.824,5.078
		l0.825-5.078c1.511-9.305,6.864-16.572,13.718-18.622l3.741-1.119L967.194,135.574z"/>
	<path style="fill:#617DFF;" d="M652.204,499.431c3.868-1.157,6.89-5.259,7.742-10.51l0.465-2.866l0.465,2.866
		c0.852,5.251,3.874,9.353,7.742,10.51l2.111,0.632l-2.111,0.632c-3.868,1.157-6.89,5.259-7.742,10.51l-0.465,2.866l-0.465-2.866
		c-0.853-5.251-3.874-9.353-7.742-10.51l-2.111-0.632L652.204,499.431z"/>
	<path style="fill:#FF6B3D;" d="M96.309,387.52c3.868-1.157,6.89-5.259,7.742-10.51l0.465-2.866l0.465,2.866
		c0.853,5.251,3.874,9.353,7.742,10.51l2.111,0.632l-2.111,0.632c-3.868,1.157-6.89,5.259-7.742,10.51l-0.465,2.866l-0.465-2.866
		c-0.853-5.251-3.874-9.353-7.742-10.51l-2.111-0.632L96.309,387.52z"/>
	<path style="fill:#FF6B3D;" d="M1193.656,357.788c3.868-1.158,6.89-5.259,7.742-10.51l0.465-2.866l0.465,2.866
		c0.853,5.251,3.874,9.353,7.742,10.51l2.111,0.632l-2.111,0.632c-3.868,1.157-6.89,5.259-7.742,10.51l-0.465,2.866l-0.465-2.866
		c-0.853-5.251-3.874-9.353-7.742-10.51l-2.111-0.632L1193.656,357.788z"/>
	<g>
		<path style="fill:#0F0F5C;" d="M914.132,873.091H764.948c-0.193,0-0.35-0.156-0.35-0.35c0-0.193,0.156-0.35,0.35-0.35h149.184
			c0.193,0,0.35,0.156,0.35,0.35C914.481,872.935,914.325,873.091,914.132,873.091z"/>
	</g>
	<g>
		<path style="fill:#0F0F5C;" d="M490.238,873.091H449.61c-0.193,0-0.35-0.156-0.35-0.35c0-0.193,0.156-0.35,0.35-0.35h40.628
			c0.193,0,0.35,0.156,0.35,0.35C490.588,872.935,490.432,873.091,490.238,873.091z"/>
	</g>
</g>
</svg>
