<?xml version="1.0" encoding="utf-8"?>
<!-- Generator: Adobe Illustrator 27.5.0, SVG Export Plug-In . SVG Version: 6.00 Build 0)  -->
<svg version="1.1" id="Layer_1" xmlns="http://www.w3.org/2000/svg" xmlns:xlink="http://www.w3.org/1999/xlink" x="0px" y="0px"
	 viewBox="0 0 5000 5000" style="enable-background:new 0 0 5000 5000;" xml:space="preserve">
<g id="Design_Collaboration">
	<g>
		<g>
			<g>
				<ellipse style="fill:#EDEBFF;" cx="4241.815" cy="4025.818" rx="407.184" ry="69.48"/>
			</g>
		</g>
		<g>
			<g>
				<ellipse style="fill:#EDEBFF;" cx="1010.239" cy="4025.818" rx="660.239" ry="69.48"/>
			</g>
		</g>
		<g>
			<path style="fill:#0A163C;" d="M4182.124,3932.323v103.584c0,6.334-5.092,11.429-11.426,11.429h-244.931
				c-6.458,0-11.675-5.343-11.427-11.799c0.372-9.315,1.366-32.916,4.596-35.524c51.917-41.979,101.227-29.438,107.809-49.184
				c6.583-19.75,9.191-41.734,9.191-41.734S4173.429,3907.109,4182.124,3932.323z"/>
		</g>
		<g>
			<path style="fill:#0A163C;" d="M4566.482,3934.131v103.584c0,6.334-5.092,11.429-11.427,11.429h-244.931
				c-6.458,0-11.675-5.343-11.427-11.799c0.372-9.315,1.366-32.916,4.596-35.524c51.917-41.98,101.227-29.438,107.809-49.184
				c6.583-19.75,9.191-41.734,9.191-41.734S4557.787,3908.917,4566.482,3934.131z"/>
		</g>
		<g>
			<g>
				<path style="fill:#E9E7FF;" d="M4484.778,2657.555c51.224,0,99.764,10.749,143.825,30.269
					c-10.032,59.113-23.465,117.859-40.301,175.538c-29.552-20.238-65.2-31.887-103.524-31.887
					c-101.74,0-184.135,82.395-184.135,184.135c0,90.274,64.842,165.323,150.463,180.907
					c-28.66,52.833-60.189,104.058-94.394,153.314c-134.336-51.583-229.989-181.974-229.989-334.222
					C4126.724,2818.225,4287.394,2657.555,4484.778,2657.555z"/>
			</g>
			<g>
				<path style="fill:#E9E7FF;" d="M789.464,3109.645c0,162.279-108.37,299.658-256.673,343.361
					c-37.074-49.615-68.419-103.175-93.134-159.41c97.796-4.119,176.062-84.905,176.062-183.951
					c0-101.556-82.569-184.135-184.126-184.135c-19.521,0-38.149,3.052-55.886,8.597c3.944-61.431,14.693-122.328,32.062-181.441
					c7.88-0.717,15.76-0.892,23.824-0.892C628.977,2751.774,789.464,2912.26,789.464,3109.645z"/>
			</g>
			<g>
				<path style="fill:#E9E7FF;" d="M4637.396,2617.059c-47.997-18.803-100.123-29.019-154.749-29.019
					c-236.968,0-429.7,192.732-429.7,429.7c0,176.071,106.393,327.776,258.466,393.694
					c-98.338,129.674-216.013,245.39-349.632,340.318H928.832c-134.87-47.647-255.597-131.117-349.991-237.152
					c163.355-60.714,280.138-218.34,280.138-402.824c0-236.435-192.19-428.983-428.441-429.517
					c53.909-137.021,143.467-260.433,261.509-351.25c274.042-210.635,655.552-237.502,943.754-428.974
					c164.422-109.262,287.117-264.378,414.465-415.366c77.558,76.841,184.493,124.479,302.168,124.479
					c236.968,0,429.7-192.723,429.7-429.692c0-71.829-17.737-139.531-49.082-198.994
					c357.871-121.803,767.866-102.816,1102.806,73.255c485.402,255.055,792.049,778.248,812.112,1317.927
					C4651.014,2454.964,4647.253,2536.457,4637.396,2617.059z"/>
			</g>
		</g>
		<g>
			<g>
				<g>
					<g>
						<path style="fill:#7951FF;" d="M3480.171,1902.35c-2.198,0-4.042-1.706-4.186-3.928c-0.147-2.314,1.607-4.311,3.92-4.461
							c21.832-1.408,43.856-4.914,65.47-10.424c2.239-0.576,4.534,0.785,5.104,3.032c0.574,2.247-0.783,4.532-3.03,5.104
							c-22.115,5.637-44.66,9.227-67.004,10.668C3480.351,1902.348,3480.261,1902.35,3480.171,1902.35z M3609.705,1869.564
							c-1.599,0-3.128-0.916-3.829-2.466c-0.955-2.114-0.021-4.6,2.095-5.557c20.098-9.102,39.576-20.022,57.894-32.457
							c1.919-1.308,4.53-0.806,5.83,1.115c1.304,1.917,0.804,4.528-1.115,5.83c-18.711,12.705-38.612,23.861-59.148,33.162
							C3610.87,1869.445,3610.283,1869.564,3609.705,1869.564z M3720.294,1794.448c-1.099,0-2.193-0.428-3.017-1.279
							c-1.611-1.667-1.57-4.323,0.098-5.937c16.014-15.495,30.605-32.379,43.372-50.18c1.345-1.878,3.965-2.317,5.859-0.964
							c1.882,1.351,2.316,3.973,0.964,5.859c-13.058,18.207-27.981,35.474-44.356,51.32
							C3722.398,1794.057,3721.348,1794.448,3720.294,1794.448z M1698.878,1774.212c0,0,0,0-0.004,0
							c-22.246-0.014-44.934-0.97-67.43-2.837c-2.308-0.193-4.026-2.22-3.837-4.53c0.197-2.31,2.156-4.026,4.534-3.838
							c22.266,1.849,44.721,2.794,66.741,2.808c2.316,0.002,4.194,1.882,4.194,4.2
							C1703.076,1772.334,1701.195,1774.212,1698.878,1774.212z M1765.96,1771.434c-2.161,0-3.997-1.656-4.178-3.85
							c-0.193-2.31,1.521-4.34,3.833-4.532c21.856-1.822,44.143-4.59,66.245-8.222c2.28-0.371,4.448,1.175,4.822,3.462
							c0.377,2.288-1.173,4.448-3.46,4.823c-22.32,3.669-44.832,6.463-66.91,8.304
							C1766.193,1771.43,1766.075,1771.434,1765.96,1771.434z M1565.158,1763.198c-0.221,0-0.447-0.016-0.677-0.055
							c-21.786-3.534-44.032-7.989-66.122-13.234c-2.255-0.537-3.649-2.8-3.112-5.055c0.541-2.259,2.812-3.63,5.055-3.116
							c21.889,5.203,43.934,9.614,65.524,13.117c2.288,0.373,3.841,2.53,3.473,4.817
							C1568.962,1761.732,1567.183,1763.198,1565.158,1763.198z M1898.311,1749.801c-1.894,0-3.612-1.289-4.075-3.214
							c-0.545-2.253,0.84-4.52,3.095-5.065c21.159-5.106,42.831-11.127,64.421-17.892c2.222-0.701,4.567,0.539,5.26,2.751
							c0.693,2.212-0.537,4.567-2.751,5.26c-21.762,6.822-43.618,12.892-64.962,18.043
							C1898.971,1749.764,1898.639,1749.801,1898.311,1749.801z M1434.573,1732.313c-0.41,0-0.824-0.062-1.238-0.189
							c-20.971-6.474-42.421-13.819-63.753-21.828c-2.169-0.814-3.268-3.235-2.456-5.406c0.816-2.173,3.235-3.266,5.408-2.454
							c21.176,7.95,42.466,15.239,63.277,21.664c2.214,0.685,3.456,3.034,2.771,5.25
							C1438.03,1731.155,1436.369,1732.313,1434.573,1732.313z M2026.46,1709.815c-1.693,0-3.288-1.033-3.924-2.71
							c-0.824-2.167,0.267-4.592,2.431-5.416c20.241-7.685,41.081-16.237,61.953-25.421c2.128-0.937,4.604,0.033,5.531,2.152
							c0.935,2.122-0.029,4.6-2.152,5.535c-20.999,9.239-41.978,17.847-62.346,25.585
							C2027.46,1709.727,2026.956,1709.815,2026.46,1709.815z M3797.974,1685.778c-0.59,0-1.189-0.125-1.763-0.389
							c-2.103-0.976-3.017-3.473-2.042-5.576c9.212-19.851,16.727-40.863,22.336-62.451c0.586-2.247,2.874-3.592,5.121-3.007
							c2.243,0.582,3.587,2.874,3.005,5.119c-5.736,22.076-13.423,43.565-22.844,63.874
							C3801.078,1684.878,3799.561,1685.778,3797.974,1685.778z M1308.864,1685.276c-0.562,0-1.132-0.115-1.677-0.355
							c-20.028-8.759-40.564-18.334-61.039-28.459c-2.079-1.029-2.931-3.547-1.902-5.625c1.029-2.077,3.546-2.927,5.625-1.902
							c20.36,10.067,40.773,19.587,60.678,28.295c2.128,0.929,3.095,3.403,2.165,5.529
							C1312.025,1684.335,1310.483,1685.276,1308.864,1685.276z M2149.488,1655.864c-1.55,0-3.038-0.857-3.768-2.339
							c-1.029-2.079-0.172-4.596,1.906-5.623c19.339-9.551,39.367-19.921,59.53-30.821c2.046-1.105,4.592-0.338,5.69,1.697
							c1.103,2.04,0.34,4.588-1.697,5.691c-20.253,10.947-40.375,21.364-59.808,30.96
							C2150.747,1655.724,2150.111,1655.864,2149.488,1655.864z M1188.447,1625.863c-0.681,0-1.369-0.166-2.009-0.515
							c-19.105-10.448-38.772-21.68-58.46-33.383c-1.992-1.183-2.648-3.76-1.464-5.752c1.185-1.997,3.764-2.644,5.752-1.464
							c19.605,11.65,39.182,22.832,58.197,33.231c2.038,1.113,2.784,3.665,1.669,5.699
							C1191.371,1625.074,1189.932,1625.863,1188.447,1625.863z M2267.76,1592.099c-1.448,0-2.858-0.748-3.637-2.091
							c-1.164-2.005-0.48-4.573,1.525-5.738c18.474-10.725,37.854-22.299,57.603-34.398c1.984-1.22,4.563-0.59,5.773,1.386
							c1.213,1.978,0.59,4.561-1.386,5.773c-19.806,12.136-39.244,23.742-57.775,34.5
							C2269.199,1591.916,2268.474,1592.099,2267.76,1592.099z M1072.93,1557.324c-0.771,0-1.554-0.211-2.251-0.658
							c-18.302-11.658-37.231-24.078-56.266-36.917c-1.919-1.298-2.427-3.907-1.131-5.828c1.3-1.923,3.903-2.431,5.83-1.134
							c18.97,12.798,37.837,25.179,56.078,36.798c1.956,1.244,2.53,3.839,1.287,5.795
							C1075.673,1556.637,1074.316,1557.324,1072.93,1557.324z M3831.732,1556.461c-0.115,0-0.23-0.004-0.344-0.014
							c-2.312-0.187-4.03-2.212-3.846-4.524c0.849-10.41,1.279-21.024,1.287-31.548c0-11.599-0.525-23.316-1.562-34.824
							c-0.209-2.31,1.497-4.35,3.805-4.559c2.329-0.18,4.354,1.494,4.559,3.805c1.058,11.758,1.595,23.73,1.595,35.583
							c-0.008,10.752-0.451,21.592-1.312,32.225C3835.734,1554.798,3833.897,1556.461,3831.732,1556.461z M2382.404,1522.004
							c-1.386,0-2.743-0.685-3.542-1.941c-1.246-1.954-0.677-4.549,1.279-5.797c18.884-12.043,37.665-24.222,56.365-36.464
							c1.948-1.275,4.543-0.726,5.814,1.211c1.271,1.939,0.726,4.543-1.214,5.812c-18.724,12.263-37.538,24.458-56.447,36.521
							C2383.958,1521.79,2383.175,1522.004,2382.404,1522.004z M961.476,1482.26c-0.836,0-1.685-0.25-2.419-0.771
							c-17.58-12.427-35.943-25.663-54.581-39.342c-1.87-1.371-2.271-3.999-0.898-5.869c1.365-1.868,3.989-2.273,5.867-0.9
							c18.597,13.648,36.919,26.856,54.458,39.256c1.894,1.339,2.345,3.958,1.004,5.85
							C964.092,1481.643,962.792,1482.26,961.476,1482.26z M2494.871,1448.508c-1.361,0-2.694-0.658-3.501-1.876
							c-1.283-1.931-0.759-4.538,1.177-5.82l55.922-37.192c1.935-1.281,4.539-0.761,5.822,1.172
							c1.283,1.931,0.759,4.538-1.172,5.822l-55.93,37.192C2496.474,1448.282,2495.671,1448.508,2494.871,1448.508z
							 M3819.634,1423.335c-1.845,0-3.538-1.228-4.047-3.098c-5.85-21.534-13.632-42.439-23.135-62.137
							c-1.009-2.089-0.131-4.598,1.956-5.607c2.091-1.004,4.604-0.127,5.604,1.958c9.729,20.161,17.695,41.556,23.677,63.585
							c0.607,2.238-0.713,4.545-2.952,5.151C3820.372,1423.287,3819.999,1423.335,3819.634,1423.335z M2606.953,1374.438
							c-1.378,0-2.722-0.674-3.526-1.917c-1.263-1.945-0.705-4.545,1.238-5.805c19.946-12.919,38.514-24.736,56.771-36.124
							c1.976-1.23,4.559-0.629,5.785,1.339c1.226,1.968,0.627,4.557-1.341,5.785c-18.216,11.363-36.743,23.154-56.647,36.048
							C2608.527,1374.221,2607.736,1374.438,2606.953,1374.438z M2721.047,1303.383c-1.435,0-2.829-0.734-3.616-2.056
							c-1.181-1.992-0.525-4.569,1.468-5.752c19.855-11.787,39.477-23.086,58.324-33.586c2.009-1.125,4.58-0.404,5.711,1.624
							c1.127,2.025,0.398,4.584-1.628,5.711c-18.777,10.463-38.333,21.723-58.119,33.471
							C2722.515,1303.195,2721.777,1303.383,2721.047,1303.383z M3761.773,1302.945c-1.3,0-2.579-0.601-3.403-1.732
							c-12.783-17.603-27.375-34.51-43.372-50.248c-1.652-1.625-1.677-4.284-0.049-5.937c1.619-1.654,4.28-1.675,5.937-0.049
							c16.326,16.063,31.225,33.322,44.282,51.301c1.361,1.876,0.943,4.502-0.931,5.863
							C3763.49,1302.684,3762.625,1302.945,3761.773,1302.945z M2838.463,1238.108c-1.525,0-2.993-0.83-3.739-2.277
							c-1.058-2.062-0.246-4.594,1.816-5.654c20.446-10.518,40.781-20.495,60.44-29.648c2.12-0.986,4.604-0.066,5.576,2.031
							c0.98,2.103,0.07,4.6-2.034,5.58c-19.556,9.108-39.793,19.034-60.145,29.503
							C2839.767,1237.958,2839.111,1238.108,2838.463,1238.108z M3666.673,1208.88c-0.853,0-1.718-0.26-2.464-0.802
							c-17.588-12.773-36.558-24.667-56.385-35.351c-2.042-1.101-2.804-3.647-1.701-5.689c1.099-2.038,3.632-2.798,5.687-1.703
							c20.151,10.861,39.445,22.957,57.336,35.95c1.874,1.361,2.292,3.987,0.931,5.863
							C3669.251,1208.279,3667.972,1208.88,3666.673,1208.88z M2960.237,1181.559c-1.652,0-3.219-0.982-3.883-2.605
							c-0.882-2.144,0.143-4.598,2.288-5.477c21.172-8.698,42.352-16.758,62.953-23.959c2.193-0.765,4.588,0.389,5.35,2.577
							c0.762,2.189-0.389,4.584-2.579,5.348c-20.462,7.154-41.499,15.161-62.535,23.8
							C2961.311,1181.456,2960.77,1181.559,2960.237,1181.559z M3548.868,1145.101c-0.508,0-1.025-0.094-1.525-0.289
							c-20.466-7.991-41.794-14.936-63.396-20.639c-2.242-0.593-3.579-2.888-2.989-5.131c0.594-2.243,2.915-3.573,5.129-2.987
							c21.914,5.785,43.549,12.828,64.31,20.934c2.156,0.844,3.227,3.278,2.382,5.438
							C3552.131,1144.086,3550.544,1145.101,3548.868,1145.101z M3086.975,1137.43c-1.829,0-3.514-1.207-4.038-3.058
							c-0.627-2.23,0.672-4.551,2.903-5.18c21.955-6.197,43.979-11.611,65.462-16.094c2.239-0.474,4.493,0.984,4.965,3.253
							c0.476,2.269-0.98,4.493-3.251,4.967c-21.291,4.442-43.126,9.811-64.896,15.955
							C3087.738,1137.379,3087.352,1137.43,3086.975,1137.43z M3419.235,1110.81c-0.205,0-0.41-0.014-0.619-0.045
							c-8.384-1.24-16.772-2.3-25.161-3.182c-13.599-1.427-27.485-2.478-41.269-3.122c-2.316-0.109-4.104-2.075-3.997-4.391
							c0.111-2.314,2.103-4.094,4.391-3.997c13.944,0.654,27.994,1.716,41.753,3.159c8.503,0.894,17.014,1.97,25.513,3.227
							c2.292,0.34,3.879,2.474,3.538,4.768C3423.076,1109.311,3421.285,1110.81,3419.235,1110.81z M3218.334,1110.203
							c-2.079,0-3.886-1.543-4.161-3.661c-0.295-2.3,1.328-4.403,3.628-4.701c22.521-2.909,45.139-4.873,67.233-5.838
							c2.362-0.033,4.28,1.695,4.379,4.012c0.102,2.314-1.693,4.276-4.01,4.377c-21.86,0.955-44.241,2.899-66.528,5.777
							C3218.695,1110.193,3218.51,1110.203,3218.334,1110.203z"/>
					</g>
					<g>
						<path style="fill:#452B96;" d="M3582.733,1561.295v1327.359c0,1.55,0,3.011-0.082,4.557
							c-2.359,80.553-68.594,144.917-145.393,144.917H1778.817c-86.424,0-153.471-66.803-153.471-149.474V1561.295
							c0-82.425,67.047-149.474,149.472-149.474H3433.26C3515.604,1411.821,3582.733,1478.87,3582.733,1561.295z"/>
					</g>
					<g>
						<path style="fill:#8F6DFF;" d="M1778.816,3001.131c-69.031,0-123.106-52.32-123.106-119.11V1633.91
							c0-65.678,53.43-119.11,119.106-119.11h1658.441c65.676,0,119.11,53.432,119.11,119.11v1248.111
							c0,1.004,0.015,1.953-0.041,2.956c-1.89,64.368-53.497,116.154-115.07,116.154H1778.816z"/>
					</g>
				</g>
				<g>
					<g>
						<g>
							
								<ellipse transform="matrix(0.7071 -0.7071 0.7071 0.7071 -521.1209 2152.7932)" style="fill:#FFFFFF;" cx="2338.091" cy="1705.445" rx="101.477" ry="101.477"/>
						</g>
						<g>
							<path style="fill:#FF2E56;" d="M2363.899,1673.647c-0.024,13.049-10.622,23.609-23.671,23.585
								c-13.05-0.024-23.609-10.622-23.585-23.671c0.024-13.049,10.622-23.609,23.671-23.585S2363.922,1660.598,2363.899,1673.647z"
								/>
						</g>
						<g>
							<path style="fill:#FF2E56;" d="M2392.408,1753.549c-2.125-27.2-24.739-48.662-52.495-48.712
								c-27.756-0.051-50.448,21.329-52.672,48.521L2392.408,1753.549z"/>
						</g>
					</g>
					<g>
						<g>
							
								<ellipse transform="matrix(0.7071 -0.7071 0.7071 0.7071 -443.2264 2340.8472)" style="fill:#FFFFFF;" cx="2604.04" cy="1705.445" rx="101.477" ry="101.477"/>
						</g>
						<g>
							<path style="fill:#FCC922;" d="M2629.847,1673.647c-0.024,13.049-10.622,23.609-23.671,23.585
								c-13.05-0.024-23.609-10.622-23.585-23.671s10.622-23.609,23.671-23.585C2619.312,1650,2629.871,1660.598,2629.847,1673.647z
								"/>
						</g>
						<g>
							<path style="fill:#FCC922;" d="M2658.357,1753.549c-2.125-27.2-24.739-48.662-52.495-48.712
								c-27.756-0.051-50.448,21.329-52.672,48.521L2658.357,1753.549z"/>
						</g>
					</g>
					<g>
						<g>
							<circle style="fill:#FFFFFF;" cx="2869.988" cy="1705.445" r="101.477"/>
						</g>
						<g>
							<path style="fill:#00F2FE;" d="M2895.796,1673.647c-0.024,13.049-10.622,23.609-23.671,23.585
								c-13.049-0.024-23.609-10.622-23.585-23.671s10.622-23.609,23.671-23.585C2885.26,1650,2895.82,1660.598,2895.796,1673.647z"
								/>
						</g>
						<g>
							<path style="fill:#00F2FE;" d="M2924.306,1753.549c-2.125-27.2-24.74-48.662-52.496-48.712
								c-27.756-0.051-50.448,21.329-52.672,48.521L2924.306,1753.549z"/>
						</g>
					</g>
				</g>
				<g>
					<path style="fill:#FFFFFF;" d="M2436.846,2370.753h-622.73c-26.678,0-48.378-21.702-48.378-48.378v-347.693
						c0-26.676,21.7-48.378,48.378-48.378h622.73c26.678,0,48.378,21.703,48.378,48.378v347.693
						C2485.224,2349.051,2463.524,2370.753,2436.846,2370.753z M1814.117,1934.7c-22.045,0-39.982,17.935-39.982,39.982v347.693
						c0,22.047,17.937,39.982,39.982,39.982h622.73c22.045,0,39.982-17.935,39.982-39.982v-347.693
						c0-22.047-17.937-39.982-39.982-39.982H1814.117z"/>
				</g>
			</g>
			<g>
				<g>
					<g>
						<circle style="fill:#FCC922;" cx="1989.706" cy="2090.159" r="79.558"/>
					</g>
					<g>
						<path style="fill:#452B99;" d="M2058.193,2239.087v6.977c0,1.473-1.241,2.79-2.792,2.79h-131.415
							c-1.551,0-2.792-1.317-2.792-2.79v-6.977c0-1.552,1.241-2.79,2.792-2.79h131.415
							C2056.952,2236.297,2058.193,2237.535,2058.193,2239.087z"/>
					</g>
					<g>
						<path style="fill:#452B99;" d="M2058.193,2201.408v6.977c0,1.552-1.241,2.79-2.792,2.79h-131.415
							c-1.551,0-2.792-1.238-2.792-2.79v-6.977c0-1.552,1.241-2.794,2.792-2.794h131.415
							C2056.952,2198.614,2058.193,2199.856,2058.193,2201.408z"/>
					</g>
					<g>
						<path style="fill:#452B99;" d="M2058.193,2276.691v6.977c0,1.552-1.241,2.79-2.792,2.79h-131.415
							c-1.551,0-2.792-1.238-2.792-2.79v-6.977c0-1.552,1.241-2.79,2.792-2.79h131.415
							C2056.952,2273.901,2058.193,2275.138,2058.193,2276.691z"/>
					</g>
				</g>
				<g>
					<g>
						<circle style="fill:#FF2E56;" cx="2261.26" cy="2090.159" r="79.558"/>
					</g>
					<g>
						<path style="fill:#452B99;" d="M2329.747,2239.087v6.977c0,1.473-1.241,2.79-2.792,2.79H2195.54
							c-1.551,0-2.792-1.317-2.792-2.79v-6.977c0-1.552,1.241-2.79,2.792-2.79h131.415
							C2328.506,2236.297,2329.747,2237.535,2329.747,2239.087z"/>
					</g>
					<g>
						<path style="fill:#452B99;" d="M2329.747,2201.408v6.977c0,1.552-1.241,2.79-2.792,2.79H2195.54
							c-1.551,0-2.792-1.238-2.792-2.79v-6.977c0-1.552,1.241-2.794,2.792-2.794h131.415
							C2328.506,2198.614,2329.747,2199.856,2329.747,2201.408z"/>
					</g>
					<g>
						<path style="fill:#452B99;" d="M2329.747,2276.691v6.977c0,1.552-1.241,2.79-2.792,2.79H2195.54
							c-1.551,0-2.792-1.238-2.792-2.79v-6.977c0-1.552,1.241-2.79,2.792-2.79h131.415
							C2328.506,2273.901,2329.747,2275.138,2329.747,2276.691z"/>
					</g>
				</g>
			</g>
			<g>
				<g>
					<path style="fill:#FFFFFF;" d="M3287.195,2883.509h-622.729c-26.678,0-48.378-21.702-48.378-48.378v-483.316
						c0-26.676,21.7-48.378,48.378-48.378h622.729c26.678,0,48.378,21.703,48.378,48.378v483.316
						C3335.573,2861.806,3313.873,2883.509,3287.195,2883.509z M2664.466,2311.833c-22.045,0-39.982,17.935-39.982,39.982v483.316
						c0,22.047,17.937,39.982,39.982,39.982h622.729c22.045,0,39.982-17.935,39.982-39.982v-483.316
						c0-22.047-17.937-39.982-39.982-39.982H2664.466z"/>
				</g>
				<g>
					<path style="fill:#6737C1;" d="M3246.296,2615.42h-540.933c-15.073,0-27.292-12.219-27.292-27.292v-194.04
						c0-15.073,12.219-27.292,27.292-27.292h540.933c15.073,0,27.292,12.219,27.292,27.292v194.04
						C3273.588,2603.201,3261.369,2615.42,3246.296,2615.42z"/>
				</g>
				<g>
					<g>
						<g>
							<path style="fill:#8F6DFF;" d="M3094.977,2561.043h-238.303c-3.076,0-4.709-3.7-2.595-5.959l70.736-75.734
								c1.394-1.489,3.796-1.489,5.19,0l20.616,22.105c1.394,1.49,3.796,1.49,5.189,0l43.249-46.372c1.394-1.49,3.797-1.49,5.19,0
								l93.322,100.001C3099.686,2557.343,3098.1,2561.043,3094.977,2561.043z"/>
						</g>
					</g>
					<g>
						<g>
							<circle style="fill:#8F6DFF;" cx="2956.962" cy="2442.252" r="21.078"/>
						</g>
					</g>
				</g>
				<g>
					<path style="fill:#6737C1;" d="M2848.407,2697.249v103.357c0,8.991-7.288,16.279-16.359,16.279h-137.696
						c-8.994,0-16.281-7.288-16.281-16.279v-103.357c0-8.995,7.287-16.282,16.281-16.282h137.696
						C2841.119,2680.967,2848.407,2688.254,2848.407,2697.249z"/>
				</g>
				<g>
					<path style="fill:#6737C1;" d="M3060.998,2697.249v103.357c0,8.991-7.288,16.279-16.359,16.279h-137.696
						c-8.994,0-16.281-7.288-16.281-16.279v-103.357c0-8.995,7.287-16.282,16.281-16.282h137.696
						C3053.71,2680.967,3060.998,2688.254,3060.998,2697.249z"/>
				</g>
				<g>
					<path style="fill:#6737C1;" d="M3273.588,2697.249v103.357c0,8.991-7.288,16.279-16.359,16.279h-137.695
						c-8.994,0-16.281-7.288-16.281-16.279v-103.357c0-8.995,7.288-16.282,16.281-16.282h137.695
						C3266.3,2680.967,3273.588,2688.254,3273.588,2697.249z"/>
				</g>
			</g>
			<g>
				<g>
					<g>
						<path style="fill:#6737C1;" d="M2897.842,2221.704c-2.79,0-5.486-1.51-6.875-4.153
							c-30.138-57.452-68.748-120.402-126.571-151.682c-61.798-33.428-120.855-24.393-186.132-10.193
							c-4.179,0.916-8.31-1.743-9.222-5.927c-0.912-4.185,1.741-8.315,5.928-9.224c68.343-14.87,130.338-24.253,196.8,11.703
							c61.491,33.263,101.703,98.595,132.931,158.117c1.988,3.792,0.526,8.478-3.267,10.468
							C2900.287,2221.418,2899.053,2221.704,2897.842,2221.704z"/>
					</g>
				</g>
				<g>
					<path style="fill:#6737C1;" d="M2924.199,2182.458l-10.875,55.177c-0.78,4.064-5.378,6.071-8.889,3.88l-47.852-29.545
						c-4.03-2.546-3.656-8.546,0.757-10.472l58.666-25.605C2920.42,2173.966,2925.073,2177.772,2924.199,2182.458z"/>
				</g>
			</g>
			<g>
				<path style="fill:#452B96;" d="M2046.834,2507.843l-23.717-6.56l-10.2,36.879c-0.837,3.027-3.981,4.807-7.007,3.969
					l-22.732-6.287c-3.027-0.837-4.809-3.979-3.972-7.006l10.2-36.879l-23.646-6.54c-6.405-1.771-8.169-9.909-3.069-14.107
					l56.596-46.849c4.413-3.629,11.029-1.799,12.879,3.562l24.478,69.273C2058.864,2503.52,2053.169,2509.595,2046.834,2507.843z"/>
			</g>
			<g>
				<path style="fill:#452B96;" d="M3409.097,2870.404l17.608-17.19l26.73,27.379c2.194,2.248,5.806,2.289,8.053,0.096
					l16.876-16.476c2.247-2.194,2.292-5.805,0.098-8.053l-26.73-27.379l17.555-17.139c4.755-4.642,2.373-12.621-4.12-13.836
					l-72.178-13.723c-5.616-1.049-10.528,3.746-9.562,9.335l11.988,72.486C3396.474,2872.423,3404.394,2874.995,3409.097,2870.404z"
					/>
			</g>
		</g>
		<g>
			<g>
				<path style="fill:#100A48;" d="M1157.183,3917.057v115.927c0,6.383,4.572,11.516,10.26,11.516h219.919
					c5.799,0,10.483-5.384,10.26-11.889c-0.334-9.386-1.226-21.278-4.126-23.906c-46.616-42.3-90.889-29.662-96.8-49.559
					c-5.911-19.9-8.252-42.052-8.252-42.052S1164.989,3891.651,1157.183,3917.057z"/>
			</g>
			<g>
				<path style="fill:#100A48;" d="M806.363,3826.246l-52.772,103.219c-2.906,5.683-1.171,12.335,3.893,14.924L953.295,4044.5
					c5.163,2.639,11.785-0.021,14.547-5.915c3.975-8.51,8.594-19.504,7.209-23.163c-22.25-58.883-67.423-67.785-63.628-88.192
					c3.796-20.409,11.795-41.199,11.795-41.199S824.88,3807.179,806.363,3826.246z"/>
			</g>
			<g>
				<path style="fill:#352171;" d="M941.774,3300.094l-173.325,522.012c-3.926,11.177,154.842,119.424,192.24,107.196
					c0,0,372.549-481.562,369.84-488.335s-35.218-228.918-35.218-228.918L941.774,3300.094z"/>
			</g>
			<g>
				<g>
					<path style="fill:#352171;" d="M957.146,2914.716c0,0,557.456,70.911,577.647,190.551
						c52.267,309.701-351.107,393.239-351.107,393.239l-170.555-98.96l-124.356-187.497L770.83,3046.105l-30.203-115.407
						l51.997-51.255L957.146,2914.716z"/>
				</g>
				<g>
					<path style="fill:#452B96;" d="M493.276,2976.096c0,0-18.511,72.862-20.139,156.439
						c-2.564,131.618,104.677,239.187,236.319,238.552l440.936-2.367l-19.005,556.003c-0.676,14.316,207.923,19.192,214.468,4.466
						c4.198-9.447,291.224-674.167,163.712-838.516c-92.18-118.81-784.153-129.209-784.153-129.209L493.276,2976.096z"/>
				</g>
				<g>
					<path style="fill:#FFADAF;" d="M1451.168,2457.807l-51.81-62.525c0,0,5.129-76.626,23.227-72.854
						c18.104,3.823,16.736,33.48,16.736,33.48s33.57-99.588,86.187-50.146C1607.135,2382.339,1451.168,2457.807,1451.168,2457.807z"
						/>
				</g>
				<g>
					<path style="fill:#FCC922;" d="M1475.618,2450.21c0,0-142.301,278.561-303.182,379.821
						c-38.493,24.204-76.782,38.082-112.541,35.141c-232.809-19.076-220.639-236.022-201.016-340.357
						c6.291-33.502,13.402-55.383,13.402-55.383l55.314-84.371c21.263,13.127,90.863,87.653,169.697,202.587l290.13-223.913
						C1393.654,2357.056,1481.85,2443.529,1475.618,2450.21z"/>
				</g>
				<g>
					<path style="fill:#FFA903;" d="M1172.436,2830.031c-38.493,24.204-76.782,38.082-112.541,35.141
						c-232.809-19.076-220.639-236.022-201.016-340.357c21.607-25.984,50.802-44.99,83.963-49.64l18.323-26.594
						c38.221,96.61,49.707,205.392,109.122,290.584C1096.61,2776.905,1132.097,2807.943,1172.436,2830.031z"/>
				</g>
				<g>
					<path style="fill:#FCC922;" d="M976.412,2729.315c-1.093,22.702-2.394,44.582-3.761,64.82
						c-4.377,64.406-9.64,112.745-10.94,120.881c-8.887,56.477-267.336,92.577-416.252,86.901
						c-56.75-2.12-97.636-10.393-102.764-25.843c0,0-37.605-242.793-20.306-415.297c6.7-67.348,21.81-123.959,50.732-151.308
						c85.329-80.678,394.441-87.379,468.079-13.331C980.788,2435.93,982.565,2596.88,976.412,2729.315z"/>
				</g>
				<g>
					<path style="fill:#FFA903;" d="M976.412,2729.315c-1.093,22.702-2.394,44.582-3.761,64.82
						c-64.066,91.482-171.205,152.88-283.267,157.664c-37.196,1.576-77.125-1.983-109.054,17.3
						c-13.745,8.34-24.683,20.101-34.871,32.817c-56.75-2.12-97.636-10.393-102.764-25.843c0,0-37.605-242.793-20.306-415.297
						c44.031-44.098,96.883-79.857,153.565-106.181l9.594-22.887c25.161,82.388,55.77,162.981,120.793,219.525
						c40.067,34.871,91.21,55.042,143.309,65.572C891.289,2725.215,933.817,2727.879,976.412,2729.315z"/>
				</g>
				<g>
					<g>
						<polygon style="fill:#6737C1;" points="421.356,4044.5 623.679,3466.83 1032.702,3466.83 1235.023,4044.5 1273.519,4044.5 
							1058.468,3430.498 597.911,3430.498 382.86,4044.5 						"/>
					</g>
				</g>
				<g>
					<path style="fill:#8F6DFF;" d="M1154.746,3430.498H452.412c-16.48,0-29.839-13.359-29.839-29.839v-2.226
						c0-16.479,13.359-29.839,29.839-29.839h702.335c16.48,0,29.839,13.359,29.839,29.839v2.226
						C1184.585,3417.139,1171.226,3430.498,1154.746,3430.498z"/>
				</g>
				<g>
					<path style="fill:#8F6DFF;" d="M420.305,3401.994l-59.398-738.634c-1.302-17.045,11.46-31.917,28.505-33.219h0
						c17.045-1.302,31.918,11.459,33.219,28.504c43.268,233.968,59.196,449.62,59.398,738.636
						c1.302,17.041-11.46,31.916-28.504,33.218l-0.821,0.118C436.186,3435.017,421.607,3419.038,420.305,3401.994z"/>
				</g>
				<g>
					<path style="fill:#6737C1;" d="M1506.109,4027.082V2917.85c0-8.978-7.279-16.258-16.256-16.258h-29.1
						c-8.978,0-16.256,7.281-16.256,16.258v1109.232H1506.109z"/>
				</g>
				<g>
					<path style="fill:#6737C1;" d="M1836.515,2930.698H1114.09c-8.655,0-15.671-7.016-15.671-15.671v-30.269
						c0-8.655,7.016-15.671,15.671-15.671h722.425c8.655,0,15.671,7.016,15.671,15.671v30.269
						C1852.186,2923.682,1845.17,2930.698,1836.515,2930.698z"/>
				</g>
				<g>
					<g>
						<path style="fill:#373352;" d="M1528.976,2852.348c0,4.619-1.829,8.799-4.877,11.848c-3.048,2.96-7.229,4.874-11.845,4.874
							h-376.307c-9.233,0-16.722-7.489-16.722-16.722c0-4.614,1.829-8.795,4.877-11.844c3.048-2.96,7.229-4.878,11.845-4.878
							h376.307C1521.486,2835.626,1528.976,2843.115,1528.976,2852.348z"/>
					</g>
					<g>
						<path style="fill:#373352;" d="M1512.124,2869.105c-4.606-0.334-8.644-2.46-11.464-5.721
							c-2.732-3.254-4.338-7.562-4.004-12.167l29.035-377.897c0.668-9.209,8.679-16.136,17.888-15.469
							c4.602,0.334,8.64,2.46,11.46,5.721c2.732,3.254,4.342,7.563,4.008,12.167l-29.035,377.897
							C1529.344,2862.845,1521.332,2869.773,1512.124,2869.105z"/>
					</g>
				</g>
			</g>
			<g>
				<path style="fill:#FFADAF;" d="M1142.167,2763.855c8.242-3.228,22.422-11.241,10.722-25.133
					c-15.851-18.79-80.559,31.052-80.559,31.052l17.151,87.471c0,0,136.86,24.698,152.711-48.679
					C1255.97,2744.756,1163.84,2757.112,1142.167,2763.855z M1137.268,2765.468c0.576-0.231,2.074-0.749,4.438-1.497
					C1139.516,2764.835,1137.844,2765.296,1137.268,2765.468z"/>
			</g>
			<g>
				<path style="fill:#FFADAF;" d="M1127.585,2752.975c-2.599,1.025-4.582,1.573-5.265,1.776
					C1123.003,2754.477,1124.781,2753.863,1127.585,2752.975z"/>
			</g>
			<g>
				<path style="fill:#FCC922;" d="M1088.958,2736.749l-479.781-16.615c0,0,38.268-106.952,4.906-220.776
					c-33.362-113.823-71.89-128.102-106.769-111.559c-108.957,51.683-236.012,392.478-94.715,513.168
					c117.325,100.215,547.705,10.137,687.441-26.233L1088.958,2736.749z"/>
			</g>
			<g>
				<g>
					<path style="fill:#FFADAF;" d="M692.675,2297.159c0,0,18.313,19.407,42.442,27.873c11.115,3.858,23.439,5.413,35.763,1.67
						c22.863-6.968,23.669-68.07,15.088-107.172c-4.319-19.523-10.884-33.574-18.255-32.768
						c-22.172,2.476-73.944,65.478-73.944,65.478s-22.402-11.345-27.297,5.471C660.482,2278.501,692.675,2297.159,692.675,2297.159z
						"/>
				</g>
				<g>
					<path style="fill:#FFADAF;" d="M663.797,2346.787c0,0,21.462,41.791,50.218,43.42c28.9,1.629,28.971-29.962,22.667-43.349
						c-0.425-0.921-0.78-1.983-0.993-3.116c-1.7-7.296-0.567-18.7-0.567-18.7c-24.153-8.5-42.426-27.907-42.426-27.907
						c-1.771,8.146-6.447,17.425-11.617,25.712C673.003,2336.021,663.797,2346.787,663.797,2346.787z"/>
				</g>
				<g>
					<path style="fill:#FF9396;" d="M692.696,2297.134c0.636,25.853,42.993,46.607,42.993,46.607c-1.7-7.296-0.567-18.7-0.567-18.7
						C705.436,2321.631,691.154,2298.552,692.696,2297.134z"/>
				</g>
				<g>
					<path style="fill:#0A163C;" d="M628.636,2252.586c-16.931,34.323,52.464,70.258,52.464,70.258
						c5.125-8.293,9.847-17.564,11.575-25.685c0,0-32.193-18.659-26.203-39.448c4.895-16.816,27.297-5.471,27.297-5.471
						s6.799,6.574,15.691,5.546c7.001,0,19.466-34.641,30.58-38.154c4.089-1.267,37.29,4.217,45.928-0.102
						c14.973-7.486,32.423-20.559,36.971-42.616c7.256-34.726-40.484-17.564-66.112-40.081
						c-25.627-22.518-21.941,15.894-61.85,9.905c-39.851-5.989-60.526,40.024-60.526,40.024
						C587.921,2195.516,628.636,2252.586,628.636,2252.586z"/>
				</g>
			</g>
		</g>
		<g>
			<g>
				<g>
					<path style="fill:#FF2E56;" d="M3376.688,2215.851c0.175,1.518,13.705,15.047,35.458,34.992
						c76.34,69.984,254.565,219.342,320,212.052c129.469-14.406,267.92-98.793,267.92-98.793l18.546-113.259l12.656-77.504
						l-68.525-128.303c0,0-173.384,124.86-201.086,167.319l-321.633-113.55C3432.209,2107.496,3375.872,2208.915,3376.688,2215.851z
						"/>
				</g>
				<g>
					<path style="fill:#AB1447;" d="M3409.989,2235.158c0.641,5.248,1.341,10.437,2.158,15.685
						c76.34,69.984,254.565,219.342,320,212.052c129.469-14.406,267.92-98.793,267.92-98.793l18.546-113.259
						c-4.548-11.311-9.798-22.334-15.63-32.95c-19.653-35.689-45.489-67.531-71.325-99.026l-2.216-28.693
						c-26.302,42.749-52.604,85.438-78.906,128.186c-21.404,34.758-43.623,70.391-76.574,94.536
						c-53.654,39.426-127.836,41.174-191.288,20.939C3519.279,2313.537,3464.051,2274.057,3409.989,2235.158z"/>
				</g>
				<g>
					<g>
						<g>
							<path style="fill:#373352;" d="M3869.421,3302.082c0.82,133.541,62.882,602.482,77.642,619.118
								c24.366,27.412,84.951,37.706,157.228,29.155c54.588-6.443,99.219-17.923,98.398-26.709c0,0-34.791-449.131-28.934-577.987
								c3.163-70.402,22.843-321.671,26.825-372.512c0.468-5.857,0.703-9.02,0.703-9.02s43.46,336.903,61.382,448.771
								c22.375,140.221,74.358,500.222,87.244,511.115c22.257,18.744,144.085,24.718,217.767,6.912
								c24.834-6.092,44.279-14.877,52.479-26.709c12.3-17.688-51.164-356.489-58.076-511.467
								c-7.028-159.197-28.348-594.73-118.313-774.893l-524.913,36.078c0,0-3.163,29.872-7.848,77.315
								C3896.832,2874.28,3868.484,3176.976,3869.421,3302.082z"/>
						</g>
					</g>
					<g>
						<path style="fill:#262040;" d="M4436.042,2777.61c41.673,260.258,170.879,953.471,131.636,1153.316c3.28,0.583-3.28-0.352,0,0
							c24.834-6.092,44.279-14.877,52.479-26.709c12.3-17.688-51.164-356.489-58.076-511.467
							c-7.028-159.197-28.348-594.73-118.313-774.893l-524.913,36.078c0,0-3.163,29.872-7.848,77.315
							C4070.671,2819.458,4267.123,2848.481,4436.042,2777.61z"/>
					</g>
					<g>
						<path style="fill:#262040;" d="M4104.291,3950.354c54.588-6.443,99.219-17.923,98.398-26.709
							c0,0-34.791-449.131-28.934-577.987c3.163-70.402,22.843-321.671,26.825-372.512c-2.811-7.73-7.146-13.47-13.472-15.343
							c-34.439-10.427-33.854,90.668-35.611,107.418c-5.623,55.056-11.362,109.995-17.103,165.054
							c-6.442,61.848-12.885,123.703-19.21,185.434C4104.642,3516.57,4116.473,3914.743,4104.291,3950.354z"/>
					</g>
				</g>
				<g>
					<path style="fill:#FF2E56;" d="M3902.847,2693.081c13.588,39.482,275.969,49.164,446.611,29.51
						c73.541-8.514,130.111-22.454,142.3-41.815c0,0,18.196-258.238-13.18-449.351c-13.414-81.824-35.924-151.34-72.841-183.009
						c-143.699-123.286-386.601-54.643-442.995-3.38C3861.382,2137.296,3892.642,2663.574,3902.847,2693.081z"/>
				</g>
				<g>
					<path style="fill:#AB1447;" d="M4065.85,2494.037c10.906,40.767,21.753,81.474,32.601,122.238
						c5.949,22.28,12.072,44.964,24.085,64.676c11.956,19.714,30.91,36.45,53.713,40.3c39.657,6.649,76.632-26.301,116.813-24.552
						c21.346,0.934,40.242,11.43,56.396,25.894c73.541-8.514,130.111-22.454,142.3-41.815c0,0,18.196-258.238-13.18-449.351
						c-41.349-43.333-86.021-83.866-130.869-123.639l-34.351-54.82c-30.968,58.844-17.612,129.995-7.057,195.604
						c10.615,65.667,15.222,140.317-27.702,191.053c-24.552,29.043-61.527,45.314-98.968,51.964
						C4142.191,2498.237,4103.816,2496.138,4065.85,2494.037z"/>
				</g>
				<g>
					<path style="fill:#FFADAF;" d="M4161.876,2660.708c-7.505,0.361-218.023-19.845-228.124-89.825s160.804-13.975,160.804-13.975
						l75.751,2.164L4161.876,2660.708z"/>
				</g>
				<g>
					<g>
						<path style="fill:#2E1C66;" d="M3960.82,2560.185h284.814c12.961,0,23.468-10.507,23.468-23.469l0,0
							c0-12.961-10.507-23.468-23.468-23.468H3960.82c-12.961,0-23.468,10.507-23.468,23.468l0,0
							C3937.352,2549.677,3947.859,2560.185,3960.82,2560.185z"/>
					</g>
					<g>
						<g>
							<path style="fill:#452B99;" d="M3411.006,2228.091l91.97,315.219c2.916,9.972,12.072,16.852,22.511,16.852h424.625
								c15.688,0,26.944-14.987,22.57-30.034l-91.97-315.159c-2.916-10.032-12.13-16.912-22.57-16.912h-424.625
								C3417.888,2198.057,3406.632,2213.044,3411.006,2228.091z"/>
						</g>
						<g>
							<path style="fill:#2E1C66;" d="M3858.143,2198.057c10.439,0,19.654,6.88,22.57,16.912l91.97,315.159
								c4.374,15.047-6.882,30.034-22.57,30.034h21.229c15.63,0,26.885-14.987,22.511-30.034l-91.97-315.159
								c-2.916-10.032-12.072-16.912-22.511-16.912H3858.143z"/>
						</g>
					</g>
				</g>
				<g>
					<path style="fill:#FFADAF;" d="M4148.427,2535.984c0,0-71.725-41.707-93.052-22.736
						c-21.327,18.971,17.244,64.586,17.244,64.586l97.688,27.093l24.734-23.404L4148.427,2535.984z"/>
				</g>
				<g>
					<path style="fill:#FF2E56;" d="M4349.947,2011.597c108.455,39.793,324.525,323.973,297.781,451.555
						c-35.24,168.113-484.206,209.424-484.206,209.424l-15.096-136.593l236.811-123.198
						C4385.238,2412.785,4228.517,2098.749,4349.947,2011.597z"/>
				</g>
				<g>
					<path style="fill:#FFADAF;" d="M3436.4,2103.862c0,0-23.274-59.702-52.221-51.807c-28.947,7.895-2.105,36.842-2.105,36.842
						s-109.473-87.368-123.157-8.421c-13.684,78.947,125.454,116.928,125.454,116.928L3436.4,2103.862z"/>
				</g>
			</g>
			<g>
				<g>
					<path style="fill:#FFADAF;" d="M4154.214,1981.678c6.709,15.743,74.869,23.705,80.326,4.293
						c0.716-2.415-6.708-47.05-12.344-77.193c-1.878-10.109-3.578-18.696-4.741-23.705c-0.715-3.129-1.252-4.918-1.521-4.918
						c-0.716,0.266-9.661,2.861-19.679,5.724c-13.864,3.935-29.875,8.497-29.875,8.497l-6.44,31.128
						c0,1.522-2.326,19.501-4.025,34.707C4154.662,1971.034,4153.768,1980.427,4154.214,1981.678z"/>
				</g>
				<g>
					<path style="fill:#FF9396;" d="M4155.914,1960.212c18.069-6.261,35.69-16.728,46.066-29.25
						c0.179-0.179,0.984-0.806,2.236-2.057c3.936-3.667,12.434-11.718,17.979-20.126c5.099-7.515,7.692-15.295,2.416-20.216
						c-2.416-2.236-4.831-3.311-7.156-3.49c-10.555-1.162-19.947,14.044-19.947,14.044l-1.252-13.238
						c-13.864,3.935-29.875,8.497-29.875,8.497l-6.44,31.128C4159.939,1927.026,4157.614,1945.006,4155.914,1960.212z"/>
				</g>
				<g>
					<path style="fill:#FFADAF;" d="M4105.417,1835.112c-4.905,27.669-6.508,93.042,16.186,107.745
						c20.854,13.511,67.939-2.354,91.145-30.398c0.208-0.188,0.995-0.823,2.286-2.064c7.575-6.99,31.473-29.919,20.343-40.323
						c-12.933-12.321-27.108,10.51-27.108,10.51l-4.711-49.853c0,0-87.262-14.494-94.578-7.138
						C4107.643,1824.953,4106.44,1829.056,4105.417,1835.112z"/>
				</g>
				<g>
					<path style="fill:#262040;" d="M4089.02,1816.861c0.94,7.227,7.172,13.296,16.398,18.25
						c30.223,16.256,91.615,20.902,92.199,21.13c0.817,0.32-1.466,24.039,0.081,25.583c1.43,1.502,10.573-1.243,10.573-1.243
						s14.175-22.831,27.108-10.51c11.13,10.404-12.768,33.334-20.343,40.323c47.753-17.904,63.345-92.499,15.958-132.957
						C4183.488,1736.939,4084.826,1785.634,4089.02,1816.861z"/>
				</g>
			</g>
		</g>
		<g>
			<g>
				<polygon style="fill:#EDEBFF;" points="840.488,1532.604 653.29,1161.493 1070.045,1307.291 				"/>
			</g>
			<g>
				<polygon style="fill:#D7D4FF;" points="653.29,1161.493 929.713,1445.029 968.782,1502.483 989.168,1386.673 				"/>
			</g>
			<g>
				<polygon style="fill:#D7D4FF;" points="968.782,1502.483 903.794,1470.468 929.713,1445.029 				"/>
			</g>
		</g>
		<g>
			<path style="fill:#8F6DFF;" d="M1273.928,1902.245v127.154c0,11.037-8.985,20.021-20.021,20.021H971.887
				c-4.639,0-9.082,1.564-12.647,4.494l-48.781,39.601c-7.129,5.81-17.823,0.732-17.823-8.448v-182.823
				c0-11.035,8.985-20.019,20.02-20.019h341.252C1264.944,1882.226,1273.928,1891.21,1273.928,1902.245z"/>
		</g>
		<g>
			<g>
				<path style="fill:#452B99;" d="M1208.297,1926.166c0,2.94-2.435,5.371-5.374,5.371H963.557c-2.939,0-5.29-2.431-5.29-5.371
					c0-2.94,2.351-5.375,5.29-5.375h239.366C1205.862,1920.791,1208.297,1923.227,1208.297,1926.166z"/>
			</g>
			<g>
				<path style="fill:#452B99;" d="M1208.297,1964.598c0,2.94-2.435,5.371-5.374,5.371H963.557c-2.939,0-5.29-2.431-5.29-5.371
					s2.351-5.375,5.29-5.375h239.366C1205.862,1959.223,1208.297,1961.659,1208.297,1964.598z"/>
			</g>
			<g>
				<path style="fill:#452B99;" d="M1208.297,2003.03c0,2.94-2.435,5.371-5.374,5.371H963.557c-2.939,0-5.29-2.431-5.29-5.371
					s2.351-5.375,5.29-5.375h239.366C1205.862,1997.655,1208.297,2000.091,1208.297,2003.03z"/>
			</g>
		</g>
	</g>
</g>
</svg>
