<?xml version="1.0" encoding="utf-8"?>
<!-- Generator: Adobe Illustrator 27.5.0, SVG Export Plug-In . SVG Version: 6.00 Build 0)  -->
<svg version="1.1" id="Layer_1" xmlns="http://www.w3.org/2000/svg" xmlns:xlink="http://www.w3.org/1999/xlink" x="0px" y="0px"
	 viewBox="0 0 2500 1666.3" style="enable-background:new 0 0 2500 1666.3;" xml:space="preserve">
<path style="fill:#FBFBFC;" d="M0,0h2500v1666.3H0V0z"/>
<path style="fill:#2C3890;" d="M162.6,1524c5.4-1.9,17.4-1,23.2,0c3,3.1,3.1,3.1,3.3,7.3l-3,3.2c-0.8,0.3-1.1,0.5-2,0.6
	c-7.5,1-18,1.5-23.9-3.3C160,1527.4,159.7,1527.4,162.6,1524z"/>
<path style="fill:#2C3890;" d="M1790.7,246.4c-1.7,4.3-0.5,10.5-1.7,15.4l-2.4,0.9c-3.3-3.5-2.2-11.4-2.4-16.3
	c-5,0.1-10.6,0.8-15.3-1l-0.7-2.1c5-4.5,10.3-0.4,15.1-3.4c1.4-0.9,1.4-11.4,2.1-14.1l2.4-1.1l2.1,1.8l0.2,13.8l13.6,0.3l1.8,2.4
	l-0.6,2.3C1800.8,247.4,1795.2,246.5,1790.7,246.4z"/>
<path style="fill:#2C3890;" d="M1351.3,315.5l2.3-0.3l1.8,1.5l0.3,15.8c4.8,0,11.3-0.8,15.7,1l0.2,2c-4.2,3.4-10.3,2.4-15.6,2.5
	c0.1,5.5,0.6,11.2-0.9,16.6l-3.2,0.8c-2.9-3.6-1.7-12.5-1.8-17.3c-5,0.1-10.6,0.8-15.3-1.3l-0.4-2.3c3.9-3.1,10.5-2.1,15.6-2.1
	C1349.9,327.1,1349,320.3,1351.3,315.5z"/>
<path style="fill:#2C3890;" d="M2326.1,1524c4.8-0.2,11.8-1,15.8,1.8c1.5,3.7,1.5,3.6,0,7.4c-6.8,4-17.7,2.2-25.6,2.3
	c-6.1-0.1-12.4,1.1-17.1-2.8c-0.8-3.5-0.9-3.8,0.5-7.1C2305.3,1522.5,2319.4,1524,2326.1,1524z"/>
<path style="fill:#0E7E82;" d="M608.9,571.6l23.2-1.2c1,1.5,1.7,3,2.3,4.7l2.7,38.2L608.9,571.6z"/>
<path style="fill:#1C2056;" d="M1518.4,427.9c9.2,10.9,16,18.8,30.8,20.8c2,3.7,1.4,16,0.1,20.2l-0.4,0.9l-0.7,0.8l-4.7,5.1
	c-2.7-0.8-5.3-2-7.9-3.2C1522.4,461.6,1520.1,443.8,1518.4,427.9z"/>
<path style="fill:#F6B79B;" d="M1491.7,1425.8l18.1,0.7l0.2,37.1c0,5.2-0.7,11.8,0.2,16.8l-14.2-0.4L1491.7,1425.8z"/>
<path style="fill:#EFF1F6;" d="M1939,520.8c4.4-0.1,9.9-0.1,13.5,2.3l-0.6,1.8c-3.3,0.8-7.2-1.1-11.3-0.5
	c-5.6,0.8-10.3,3.5-13.7,7.9c-1.1,1.4-1.7,2-2.2,3.7c-0.4,1.5,0,0.9-0.9,2.2l-0.6,0.8c-0.1,2.6-0.4,5.2,0.6,7.6l36.6,3.5
	c1.8-0.3,2.1-1.1,3.1-2.6c0-3,0.5-4.8-1.2-7.3c0-2.7-0.4-3.8,1.2-6.1c2.1,1.7,2.7,3.6,3.6,6.1c0,2.5,0.3,5.4-0.3,7.9l-0.3,1.3
	c-0.4,1.6-0.8,2.8-1.5,4.3l-0.9,1.8c-1.4,3.9-6.7,8-9.8,11c-1.4,0.3-2.3,0.5-3.5,1.3l-0.8,0.6c-4.3,0-6.7,1.9-11.4,1l-1.4-0.3
	l-1.5-0.3c-8.6-1.7-11.3-7.8-15.7-14.3c-1.1-1.7-0.3-3.4-1.7-5.6c0-3-0.5-4.8,1.2-7.3l-0.1-1.3c-0.2-3.9,4.3-10,6.8-12.7
	c1.1-0.2,1.7-0.4,2.5-1.3c1.4-1.5,2.1-2.5,4.2-3.1C1935.1,522.4,1937,521.6,1939,520.8z"/>
<path style="fill:#E87F5C;" d="M1742.4,1425.8c-1.5,17.1,7.9,36.1,8.3,53.5c-7.6,0.2-15.4,0.1-23,1.3c-5.3-15.9-6.2-36-8.8-52.7
	l9.3-0.3L1742.4,1425.8z"/>
<path style="fill:#F5A69B;" d="M1162.8,717.6c13.3-6,25.8-13.1,41-12.4c4.6,0.2,8.4,2.9,13.1,2.6c7.1-0.4,15.4-3.8,22.3-2.4
	l13.3,28.9c-1.1,2.7-2.3,3.5-5,4.6c-2.3,0.9-5.4,0.8-7.8,0.8c-5.6-2.7-8.8-6.6-13.7-10c-4.9-3.4-10.1-5.8-15.6-7.9l-1.7-0.8
	c-3.6-1.4-9.9-0.7-13.5,0.8l-0.7,0.3l-10.4,4.3c-1.4,0.4-2.3,0.4-3.5,1.3c-1.8,1.2-3.5,0.3-5.6,1.8c-6.3,0-7.6,1-12.2-3.6
	L1162.8,717.6z"/>
<path style="fill:#EFF1F6;" d="M1275.1,568.7c1.5-0.3,2.3-0.5,3.9-0.2l4.6,1c2.2,0.4,3.8,0.8,5.8,1.9c4.5,2.6,8.6,7.2,9.8,12.3
	c0.3,1.4,0.1,0.9,0.9,2.2l0.6,0.8c0.1,6,0.5,12.1-3,17.4l-0.6,0.9c-1.5,2.5-2.3,3.6-4.6,5.4l-0.9,0.7c-4,3.2-7.1,4-12,4.9
	c-4.6,0.1-9.3-0.4-13.3-3l-0.9-0.6c-3.1-1.8-4.7-3.4-6.8-6.4l-0.5-0.9c-0.9-1.5-1.7-2.6-2.2-4.4c-0.4-1.4-0.1-0.9-0.9-2.2l-0.6-0.8
	c0-3.2-0.5-7.2,0.3-10.3l0.3-1.3c0.4-1.6,0.8-2.8,1.5-4.3l0.9-1.8l0.2-1c1.1-3.4,6-5.8,9-7.3l1.7-0.9
	C1270.7,569.1,1272.3,569,1275.1,568.7z"/>
<path style="fill:#F6B79B;" d="M1694.1,892.5l16.2,1.6c2.3,0.5,5,0.9,7.2,1.7c-1.6,19.3-2.3,39.6-6.6,58.5c-0.6,5.4-1.6,13.2-4,18.1
	c-1.2,2.5-2.3,3.1-4.8,3.9l-3.9-4.1c-0.8-6.5-0.8-12.5-0.4-19c-5.7,3.9-10.1,17.8-14.9,23.9c-1-1.5-2.6-3.4-3.2-5
	c-1.2-2.9-0.1-8.8,0.4-11.9l5.4-31.3c-2,4.5-4,9.6-6.8,13.6c-2.3,3.4-4.9,5-8.8,5.8l-2.8-2.5c-2.7-13.3,13.4-27.8,16.2-40.2l0.3-1.6
	l1.5-0.1C1689.2,900.9,1691.5,897,1694.1,892.5z"/>
<path style="fill:#FCBA49;" d="M1697.9,953.3l0.4-0.7l5.6-13.3l0.3,22.6l3.1-12c0.7,5.1-1,9-0.4,14.1c0.8-1.2,0.7-1.7,0.9-3.1
	c0.1-1.4,0.3-2.2,0.8-3.4c0.9-2,0.7-4.4,0.7-6.6c1.1,1.3,1.3,1.9,1.7,3.5c-0.6,5.4-1.6,13.2-4,18.1c-1.2,2.5-2.3,3.1-4.8,3.9
	l-3.9-4.1C1697.5,965.8,1697.5,959.8,1697.9,953.3z"/>
<path style="fill:#17ACA1;" d="M1746.6,664c3.8,9,11.6,26.2,11.3,35.7c-0.2,7.1-2.5,15.3-3.7,22.3l-8.3,47.3l-14.7,80.3
	c-2.6,15-4.1,30.4-7.8,45.1c-2.2,1-3.4,1.2-5.8,1.2c-2.2-0.8-4.9-1.2-7.2-1.7l21.1-120l9.9-57.1c1-7.3,2.2-14.8,2.6-22.1
	C1744.3,686.9,1742.4,670.4,1746.6,664z"/>
<path style="fill:#2C3890;" d="M853.7,432.5c-9.6-7.2-17.4-20.9-22.9-31.5c-10-19.2-18.1-43.5-18.3-65.1c0-4.7-0.3-10.4,1.4-14.9
	c1.7-4.7,4.8-8.3,9.3-10.6c5.7-2.9,14.1-5,20.3-3c0.8,3.9,0.9,8.3,2.1,12.1c2.8,8.5,11.9,15.6,19.1,20.2l6.8,4.3
	c0,7.1,0,13.4-2.4,20.2l-0.3,0.8c-2.2,6.1-8.3,13.4-13.8,16.6l-0.9-1.2c-2.4-2.9-3.8-5-7.6-6c-3.4,0.1-6.9,0.4-9.2,3.2
	c-2.6,3.2-3,7.6-2.3,11.6c0.7,3.9,3.9,7.9,7.2,9.9c2.6,1.6,5.2,1.1,8,0.5c2.4,4.3,3.1,9.2,4.2,13.9
	C854.7,418.8,856.2,428.1,853.7,432.5z"/>
<path style="fill:#F6B79B;" d="M1140.5,710c6.8,4.4,14.5,5.8,22.3,7.5l-0.1,8.1c4.6,4.6,5.9,3.6,12.2,3.6c2.2-1.4,3.9-0.6,5.6-1.8
	c1.2-0.8,2.1-0.9,3.5-1.3l10.4-4.3l0.7-0.3c3.6-1.5,9.9-2.2,13.5-0.8l1.7,0.8l-1.9,0.6l1.4,0.4c11.5,3.5,23,14,31.2,22.5
	c-0.5,3.5-1.9,5.5-3.9,8.4l-0.8-0.3c-1.3-0.4-0.8-0.3-2.3-0.5c-1.3,1.8-2.9,3.4-2.9,5.8l3.5-2.4l0.7,2.4c-2.3,2.2-3.9,4.4-7.1,5.2
	l-0.2-1.5c-1.8,1.2-2.2,1.4-3.2,3.3l1.4,0.9c-3.6,4-7.8,8-13.4,8.7l-3.7-0.1l-0.9,0.5c-1.9,1.1-4.3,1.5-6.4,2
	c-1.8-1.1-2.4-2-4.6-1.5c-4.5,1-7.7,1.1-12.2-0.2c-4.2-1.2-8.5-1.8-12.5-3.6c-5.8-2.6-10.5-6.9-16-10.2c-6.3-3.7-14-6.3-21.1-8.2
	c1-12.9-0.9-28.2,2.3-40.6L1140.5,710z"/>
<path style="fill:#EFF1F6;" d="M1244.2,205.4c9.9,3.2,21.1,17.6,26,26.5c2.2,4.1,4,10.7,4.8,15.3l0.8,3.9c0.5,2.7,0,5.8,1,8.2
	c1.2,2.9,0.1,16.9-1.2,19.7l-0.6,1.1l-0.6,3c-1.2,5-3.2,10.7-6.1,14.9c-5.7,8.4-11.5,19.2-20.7,24.1c-2.5,1.3-4.7,4-7.3,5.5
	c-7.6,4.3-16.4,8.1-25,9.8l-4.4,1c-2.5,0.6-5.6-0.3-7.8,0.3c-5,1.4-9.2,1.2-14.6,1.2c-3.9-2.6-11.7-0.5-15.4-3
	c-1.2-0.8-2.1-0.9-3.5-1.3c-7.1-1.8-15.1-5.8-20.8-10.4l-0.8-0.5c-9.9-7.8-16.7-16.4-22.7-27.5l13.7,7.5c19.1,9.8,40.5,12,60.9,5.3
	c18.9-6.2,34-20.1,43-37.7C1254.4,249.6,1251.6,228.7,1244.2,205.4z"/>
<path style="fill:#EB6F11;" d="M972.2,524.1c19.2,34.6,34.7,72.9,46.7,110.6c1.8,5.6,4.1,17.6,7.6,22c7.9,10,32.6,16.4,44.4,21.5
	l69.6,31.7l-2.6,3.2c-50.7-4.6-100.9-12.2-149.9-26.3c-0.9-40.2-4.1-81.5-9.8-121.3l-4.5-26.7C972.6,534.3,970.5,528.5,972.2,524.1z
	"/>
<path style="fill:#3951C9;" d="M843.6,307.5c8.6-13.1,14.8-20.7,30.9-24.2c20.7-4.5,42.1,6.7,62.1,1.2c7-1.9,13.5-6,19.8-9.5
	l-10,14.9c9.4,2.3,13.8-4.7,22-5.4c5.5,13.2,9.1,27.2,3.4,41c-5,12.2-13,17.9-24.6,23.1c-24.8,5.5-51.6,2.6-75.7-4.3l-6.8-4.3
	c-7.2-4.7-16.3-11.7-19.1-20.2C844.5,315.9,844.4,311.4,843.6,307.5z"/>
<path style="fill:#F6B79B;" d="M871.5,344.2c24.2,7,50.9,9.9,75.7,4.3c-0.5,23.8,1.7,61.1-16.8,79c-6,5.9-13.6,8.7-21.5,11.1
	l-0.1,13.9l-0.6-0.2l-0.5-5c-18.1-1.2-37.5-4.4-53.3-13.9l-0.8-1c2.5-4.3,1-13.7,0.8-18.9c-1.1-4.7-1.8-9.6-4.2-13.9
	c-2.9,0.6-5.4,1.1-8-0.5c-3.3-2-6.5-5.9-7.2-9.9c-0.7-4-0.3-8.4,2.3-11.6c2.3-2.8,5.8-3.1,9.2-3.2c3.8,1,5.2,3.1,7.6,6l0.9,1.2
	c5.5-3.2,11.6-10.5,13.8-16.6l0.3-0.8C871.6,357.6,871.5,351.2,871.5,344.2z"/>
<path style="fill:#EC6B79;" d="M854.5,413.6c8.6,12.6,15.9,20.1,31.5,23.1c6.9,1.3,13.9,1.5,20.9,1.5c1.7,2.8,1,6,0.8,9.2
	c-18.1-1.2-37.5-4.4-53.3-13.9l-0.8-1C856.2,428.1,854.7,418.8,854.5,413.6z"/>
<path style="fill:#2CC9C1;" d="M1535.7,472.6c2.6,1.2,5.1,2.4,7.9,3.2l-0.3,0.9c-6.3,19.1-14.9,36.8-20.2,56.4
	c-11.3,41.9-13.3,86.2-19,129.1l-6.5,59.1l-1.7,15.9L1484,838.4l-13.7-5.4c-7.9-2.2-13.7-6.8-19.3-12.6l7.7-26.9l20.2-82.6
	c4.7-21.3,10.1-42.1,8.8-64.1c-0.3-4.6-0.1-9.2-2.3-13.3c1.6-10.5-1.6-26-2.2-36.9l-1.1-50.6c1.7-1.8,9.5-31.5,10.1-35.8l0.1-0.4
	c8.7-18.5,22.4-26.4,41-33.4C1534.5,475.4,1535,474,1535.7,472.6z"/>
<path style="fill:#2C3890;" d="M1535.7,472.6c2.6,1.2,5.1,2.4,7.9,3.2l-0.3,0.9c-6.3,19.1-14.9,36.8-20.2,56.4
	c-11.3,41.9-13.3,86.2-19,129.1c-4.4-9.9-4.8-25.1-6.3-35.9l-6.5-50.1c-1-8.5-2.8-17.1-3.1-25.6l18.9-14.8l-5.2-17.6l31.4-41.8
	C1534.5,475.4,1535,474,1535.7,472.6z"/>
<path style="fill:#FCBA49;" d="M2079,1219.4l-0.6-0.8c-11.4-15.2-25.4-42.9-22.4-61.9c0.3-2.1,1-3.9,1.8-5.8
	c3.6-9.3,10.4-17.6,19.6-21.8c5.6-2.6,13-3.5,18.9-1.4c14.1,5.2,13.8,20.2,24.8,26l0.8,0.5c3.5,1.7,8.9,0.6,12.3-0.8
	c15.7-6.5,29.4-21.1,48.3-14.7c5,1.7,9.2,5.2,11.5,10c1.7,3.5,1.8,9.3,0.1,12.9c-6.5,13.5-42.3,20.4-36.6,38.2
	c4.5,13.9,25.5,20.3,17,38.2c-3.7,7.7-12.2,13.2-20.2,15.6c-8.9,2.7-19.6,2.5-27.8-2.1c-4.7-2.6-8.6-6.8-12.6-10.5
	c-12.1-11.2-20.3-13.7-36-16.6c1.4-1.5,3.5-2.9,3.5-4.9L2079,1219.4z"/>
<path style="fill:#EC6B79;" d="M2000.3,1089.2l3.7-20.5c-5.5-5.5-11.2-12.4-17.7-16.5c-7.1-4.5-14-11.5-21-16.6
	c-5.8-4.2-15.6-8.1-20.1-13.3l1.8-1.2c4.9,1.7,10.5,5.6,14.6,8.7c15.5,11.4,30,21.7,43.6,35.6l19.1-82.6c2.1-7.9,3.5-20.1,8.7-26.3
	l0.9,1.8c-4.7,12.9-7.4,26.9-10.6,40.2l-14.6,65.9c6.4-3.5,13.1-7.5,20-9.7c9.3-2.9,21.4-10.2,31.1-10.4l1.2,1.8
	c-1.4,1.3-1.3,1.6-3.3,1.9c-8,1.2-15.9,5.4-23.6,7.8c-8.8,2.8-17.7,8.6-26.2,12.5l-5,22.2c-3.7,17.4-5.4,35.5-7.6,53.2
	c-5.8,46.4-8.8,92.3-8.2,139.1c0.1,12.3-0.5,25.5,1.1,37.7l3.6,44.5c20.7-55,46.6-102.6,87-145.7l2.3,0.1c0,2.1-2.1,3.5-3.5,4.9
	c-38.3,40.7-63.7,88.1-83.1,140.2h101.4l0.7,31.9c-3.8,0-11.7,1.1-15-0.1l-4.3,24.8l-154.2-9.6l-1.5-10.5c-0.3-1.8-0.9-3.1-1.7-4.7
	l-13.1-0.1l-0.3-31.7h83l-10.7-35c-5.5-16.3-12.2-32.1-19.6-47.7c-3.9-8.3-9-16.5-13.9-24.2c-1.7-2.7-4.7-5.8-4.7-9h1.2
	c22,31.1,35.1,64.1,45.4,100.6c1.9-13.1-1.8-29.9-2.6-43.5l-0.2-44C1984.9,1204.5,1991,1145.8,2000.3,1089.2z"/>
<path style="fill:#B82E55;" d="M1921.9,1401.1l0.4-4c2.9-1.6,7.3-0.9,10.6-0.9h25.2l123.8,0.3l-4.3,24.8l-154.2-9.6L1921.9,1401.1z"
	/>
<path style="fill:#EC6B79;" d="M1923.4,1411.6l154.2,9.6l-15,102.6h-121L1923.4,1411.6z"/>
<path style="fill:#17ACA1;" d="M1242.8,699.3l0.3-0.3c4.8-6,124.2-47.9,140.4-53.8l20.5-7.3c2-0.7,6.6-1.7,8.1-2.8
	c3-2.2,7.8-11.9,10-15.4l40-63c9.3-15.2,18.2-31.5,29.2-45.5l0.9-1.1c-0.6,4.3-8.3,33.9-10.1,35.8l1.1,50.6
	c0.6,11,3.8,26.4,2.2,36.9c-8.8,14.3-17.7,32.6-29.7,44.3c-5.2,4.5-9.8,7.5-16.3,9.9c-23.9,8.7-50.3,13.5-74.9,20.2l-69.9,18.3
	c-12.2,3.2-24.7,7.5-37,9.7l-9.6-25.6C1246.7,707,1245.1,701.9,1242.8,699.3z"/>
<path style="fill:#0E7E82;" d="M1455.6,677.7l-0.1-0.8l-0.6-5.3c-0.3-7.3,1.6-15.6,2.4-22.9c3.6-31.5,8-59.5,19.2-89.4
	c1.5-4.1,2.6-10.2,5.5-13.4l1.1,50.6c0.6,11,3.8,26.4,2.2,36.9C1476.5,647.7,1467.5,666,1455.6,677.7z"/>
<path style="fill:#FCBA49;" d="M1830.9,1098.8c19-2,27.9,3.8,39.3,18.3c3.2,4.1,6.6,8.8,11.2,11.6c10,6.1,24.9-12.9,35.7-15.6
	c8.4-2.1,16.1-0.4,23.4,4.1c8.5,5.3,17.7,15.2,19.7,25.4c1.2,6,0.2,11.7-2,17.3c-4.8,12.1-16,20.3-21.7,32.1
	c-3.9,8.2-6.4,17.1-9,25.8c-1,3.3-1.3,8.1-3.1,10.8c-1.2-1.5-2-1.8-3.7-2.7l-9.8,3.8c-17.3,5.8-31.2,15.8-47.3,23.8
	c-9.9,4.9-19.4,8.5-30.3,4.6c-8.3-2.9-14.9-9.3-18.7-17.1c-5.3-11.2-3.3-24,4.1-33.8c3.8-5,8.5-9.3,10.4-15.4
	c5.4-16.6-6.6-28.7-13.5-42.6c-5-10-7.9-21.7-3.8-32.5C1815.1,1107.9,1822.7,1102.6,1830.9,1098.8z"/>
<path style="fill:#FCBA49;" d="M1125.3,297.2c-5.4-6.1-10.8-12.3-15.1-19.2c-10.5-16.7-13.5-38.8-8.8-58
	c4.7-19.2,17.5-36.5,34.4-46.7c17-10.2,38-13.9,57.3-8.9c24.4,6.3,38.5,19.9,51.1,41c7.4,23.4,10.3,44.3-1.3,66.9
	c-8.9,17.6-24.1,31.5-43,37.7c-20.4,6.7-41.8,4.5-60.9-5.3L1125.3,297.2z"/>
<path style="fill:#FBFBFC;" d="M1206.9,208l8.7,8.6c-6.2,8-14,15.1-21.2,22.3l-31.5,32.2l-22.6-21.8l-10.3-10.5
	c1.4-3.6,6.2-7.3,8.9-10.1l23.4,24.8L1206.9,208z"/>
<path style="fill:#EFF1F6;" d="M524.6,204.2c12.3-1,25.7,3.1,35.2,11c16.2,13.3,19.8,33.9,21.8,53.4c4.4-2,9.3-4.1,14.1-4.7
	c7.9-1,16.6-0.3,23,5c11.6,9.6,14.1,20.9,15.5,35.2c6.3-3.3,11.3-5.5,18.6-5.3c12.7,0.3,20.1,7.9,28.2,16.4l-194.5,0.9
	c-16.7-0.1-154.8,0.9-158.8-1.6c0.5-1.7,1.1-3.6,2.2-5.1c6.8-9.8,21.1-17.3,32.5-19.4c15.3-2.8,29.6-1,44.8,1
	c1.2-0.9,1.2-0.6,1.7-1.6c3.2-5.7,5.9-10.4,11.4-14.2c13.5-9.3,27-9.9,42.8-7c4.7-14.7,9.6-28,18.9-40.5
	C493.4,212.5,506.2,206.7,524.6,204.2z"/>
<path style="fill:#FBFBFC;" d="M1596.6,418.2l2,24.7c0.4,7.8,0.2,16.1,2.3,23.7l3,2.2c5.5,0.8,10.6,2.3,15.9,4l-25.2,74.3
	c-7.7,23.1-16,47.4-20,71.5c-1.6,9.5-2,19.5-2.7,29.1c-1.7,9.9-0.6,21.1-0.4,31.2c0.2,13.8-0.3,28.2,1,41.9l-6.5,0.9l-68.3-0.4
	l6.5-59.1c5.7-42.9,7.7-87.2,19-129.1c5.3-19.6,13.9-37.3,20.2-56.4l0.3-0.9l4.7-5.1l0.7-0.8l0.4-0.9c1.3-4.2,1.8-16.4-0.1-20.2
	l0.8-0.1C1570.6,447.1,1583.9,432.8,1596.6,418.2z"/>
<path style="fill:#F6B79B;" d="M1596.6,418.2l2,24.7c0.4,7.8,0.2,16.1,2.3,23.7l3,2.2c-7.4,10.6-19.9,28.1-33.5,30.4
	c-6.8,1.2-13.2,0.2-19.1-3.5c-4.8-6-2.9-13.6-2.1-20.6c0.3-2.6,0.5-2.5-1-4.5l0.7-0.8l0.4-0.9c1.3-4.2,1.8-16.4-0.1-20.2l0.8-0.1
	C1570.6,447.1,1583.9,432.8,1596.6,418.2z"/>
<path style="fill:#E87F5C;" d="M1596.6,418.2l2,24.7l-1.3-0.9c-1.4,0.7-2,1.4-3,2.6c-11.7,14.7-26.9,22.4-45.3,25.2l0.4-0.9
	c1.3-4.2,1.8-16.4-0.1-20.2l0.8-0.1C1570.6,447.1,1583.9,432.8,1596.6,418.2z"/>
<path style="fill:#EFF1F6;" d="M2032.8,270c15.2-1.2,29.7,1.8,41.6,11.8c13.8,11.6,18.3,27.5,19.7,44.8l10.3-3.4
	c10.7-2.8,23.1-1.6,32.7,4.2c11.3,6.8,16.2,18.1,19.1,30.4c13.6-4.4,27.9-5.7,41.8-1.7c18.3,5.2,28.7,14.1,37.8,30.7l-118.8-0.2
	l-206.9-0.5c2.6-5.8,5.4-13.3,11.4-16.3c8.7-4.4,18.9-0.8,27.5,2c-0.4-6.7-0.8-14.2,0.8-20.8c1.5-6.4,7.8-13.3,13.3-16.7
	c5.3-3.2,13.1-4.7,19.2-3c1.8,0.5,2.7,0.7,4.6,0.3c-1.3-13.9,1.2-27.9,9.1-39.7C2004.4,279.4,2018.2,272.7,2032.8,270z"/>
<path style="fill:#F8921A;" d="M854.5,433.5c15.8,9.5,35.2,12.7,53.3,13.9l0.5,5l0.6,0.2c0.6,6.1,0.5,15.4,5.5,19.6
	c12.5,4.9,33.4,11.6,42.2,21.9c6.8,7.9,11.1,20.6,15.6,30.1c-1.7,4.4,0.4,10.2,1.4,14.8l4.5,26.7c5.7,39.8,9,81.1,9.8,121.3
	c-57.2-14-95.3-68.1-121.7-116.8c-10.1-18.7-19.1-38.9-30.3-56.9c-6.2-10-12.5-17.8-24.2-21c-3.7-1-7.6-0.9-11.5-1.8l-0.9-0.2
	c15.5-10.7,33.9-16,52.2-19.7L854.5,433.5z"/>
<path style="fill:#F5A69B;" d="M854.5,433.5c15.8,9.5,35.2,12.7,53.3,13.9l0.5,5l0.6,0.2c0.6,6.1,0.5,15.4,5.5,19.6l-1.8,1.5
	c-1,4-2.1,7.6-4.4,11.1c-3.3,4.9-10.3,8.6-16,9.7c-9.1,1.8-20.4-0.5-28.1-5.6c-6.7-4.4-11.2-10.4-12.7-18.3L854.5,433.5z"/>
<path style="fill:#FCBA49;" d="M2000.3,1089.2c-16.2-3.5-29.4-0.9-45.4-1.7c-19.5-1-36.5-15.6-46.7-31.3
	c-6.6-10.2-9.9-22.3-7.3-34.4c2.2-10.2,7.9-18.5,16.8-24c7.3-4.5,17.6-8.3,26.3-9c8.8-0.7,18,0.6,26.7-0.5
	c12.7-1.5,21.4-14.6,24.2-26c5.2-21,4.2-46.2,25.2-59.1c8.7-5.3,21.7-7.4,31.5-4.8c8.7,2.3,16.6,6.8,21.2,14.9
	c6,10.6,5,22.9,1.6,34.2c-4.8,15.9-16.9,35.5-8.3,51.8c6.3,12,17.2,13.1,28.3,18.5c18.5,9,26.5,25.9,20.6,46
	c-4,13.7-14.6,24.5-27.1,31c-26.1,13.6-58.4,2.2-84.8-4.2l5-22.2c8.5-3.9,17.4-9.7,26.2-12.5c7.7-2.4,15.6-6.7,23.6-7.8
	c2-0.3,1.9-0.6,3.3-1.9l-1.2-1.8c-9.8,0.2-21.9,7.4-31.1,10.4c-6.9,2.2-13.6,6.2-20,9.7l14.6-65.9c3.2-13.4,5.8-27.3,10.6-40.2
	l-0.9-1.8c-5.2,6.2-6.6,18.4-8.7,26.3l-19.1,82.6c-13.6-13.9-28.1-24.2-43.6-35.6c-4.2-3.1-9.7-6.9-14.6-8.7l-1.8,1.2
	c4.5,5.2,14.3,9.1,20.1,13.3c7,5,13.9,12,21,16.6c6.5,4.1,12.2,11.1,17.7,16.5L2000.3,1089.2z"/>
<path style="fill:#17ACA1;" d="M608.9,571.6l-104.3-0.7c-14.6,0-32.1,2-46.3-0.1c-4.4-0.7-5.6-2.4-8.5-5.4
	c-1.9-4.8-1.2-10.5-1.1-15.6l0.3-27.1c0.2-24.5-1.3-49.6,0.3-74c1.9-3.3,3.3-4.7,6.6-6.5l136.6-0.1c11.2,0,44.1-2.8,52.6,1.8
	c2.3,2.7,3.6,3.8,4,7.5c1.7,14.2,0.2,30.8,0.2,45.3c0,20.9,1.3,43-0.2,63.8c-0.4,4.9-1.7,6.5-5.2,9.7c-3,0.6-5.9,1.2-8.8,2.3
	l-0.7,2.9c-0.7-1.7-1.4-3.1-2.3-4.7L608.9,571.6z"/>
<path style="fill:#5E90F6;" d="M1841.1,672c1.2-0.4,2.2-0.7,3.4-0.8c10.2-0.9,21.2,0,31.4,0h60.1l72.4,0.1c8.5,0,20.8-1.5,28.8,0.5
	c1.4,0.3,4,2.1,5.1,3.2c2.5,2.4,3.7,5.2,3.9,8.7l-0.1,62.3c0,12.1,1.2,26-0.5,37.9c-0.4,2.7-1.4,4.7-3.4,6.6
	c-7,6.5-22.2,4.2-31.1,4.2h-90.9c-8.4,0-21.9-1.7-29.7,0.2c-2.6,0.6-6.8,5-8.9,6.8l-27.2,22.4c-0.2-3.1-0.6-26.4-1.2-26.9
	c-0.4-0.4-1.2-0.1-1.8-0.2c-7.3-0.8-10.8-0.8-16.2-6.1c-4.2-8.9-1.5-93.3-1.5-110.3C1835.4,676.6,1837.7,674.6,1841.1,672z"/>
<path style="fill:#393359;" d="M1507,383.4c-8-15.6-10.2-34.4-4.8-51.4c5.9-18.6,20.7-31.7,37.7-40.3c18.5-9.3,40.3-11.6,60-4.8
	c18.6,6.4,30,20.5,38.1,37.7c7.5,16.1,13.6,28.4,31.3,34.9c12,4.4,24.9-0.5,37.1-1.5c21.8-1.9,43.7,7.9,53.3,28.3
	c6.5,13.8,6.6,29.7,1.2,43.9l-6.4,13.8c15.4,3.3,29.7,6.7,38.8,20.7c7.2,11.1,9,26.2,6.3,39c-3.1,14.5-11.4,26.1-24,33.9
	c-18.9,11.7-43.7,17.4-64.7,24.8l-7,2.8l-17.9-38.5c-4.4-9.7-10-25.4-18.2-32.4c-8.8-7.5-22.4-12.3-33-16.8l-15.1-4.8
	c-5.3-1.7-10.3-3.2-15.9-4l-3-2.2c-2.1-7.6-1.9-15.9-2.3-23.7l-2-24.7c-12.7,14.6-26,28.9-46.5,30.5l-0.8,0.1
	c-14.8-2-21.6-9.8-30.8-20.8c-1.6-6.4-4.6-12.4-6.2-18.8C1510,400.7,1509.3,391.9,1507,383.4z"/>
<path style="fill:#1C2056;" d="M1626.9,377.4c5.2,3,7.7,11.6,9.2,17.3c2.3,8.9,1.9,18.5,3.4,27.6c2.9,17.1,20.6,32.6,34.5,41.3
	c19.9,12.3,40,21.2,46,46.6c4.4,18.6-2.4,35.3-8.9,52.2l-7,2.8l-17.9-38.5c-4.4-9.7-10-25.4-18.2-32.4c-8.8-7.5-22.4-12.3-33-16.8
	l-15.1-4.8c-5.3-1.7-10.3-3.2-15.9-4l-3-2.2c-2.1-7.6-1.9-15.9-2.3-23.7l-2-24.7c3.7-3.3,7-8.3,9.7-12.4c0.4-0.6,2.1-3.8,2.6-4
	c1.7-1,7.8,1.7,11.1,0.3c4.1-1.8,7.7-6,9.2-10.1C1631.2,386.9,1628.8,382.1,1626.9,377.4z"/>
<path style="fill:#F6B79B;" d="M1507,383.4c0.9-5.9,0.4-12.1,0.7-18.1c1-17.1,4.3-32.1,11.5-47.8l2.1,12.3
	c10.1,54.3,47.6,31.1,80.7,53.9l1.9-2.2c2.8-3,5.1-6,9.2-7.3c5.4-1.6,9.2,0.5,13.7,3.1c1.9,4.6,4.3,9.5,2.3,14.6
	c-1.6,4.2-5.1,8.3-9.2,10.1c-3.3,1.4-9.4-1.3-11.1-0.3c-0.5,0.3-2.2,3.4-2.6,4c-2.7,4.1-6,9.1-9.7,12.4
	c-12.7,14.6-26,28.9-46.5,30.5l-0.8,0.1c-14.8-2-21.6-9.8-30.8-20.8c-1.6-6.4-4.6-12.4-6.2-18.8C1510,400.7,1509.3,391.9,1507,383.4
	z"/>
<linearGradient id="SVGID_1_" gradientUnits="userSpaceOnUse" x1="1527.3363" y1="-173.5294" x2="1527.5642" y2="-248.7899" gradientTransform="matrix(0.75 0 0 -0.75 97.75 1350.9)">
	<stop  offset="0" style="stop-color:#2D296F"/>
	<stop  offset="1" style="stop-color:#394E97"/>
</linearGradient>
<path style="fill:url(#SVGID_1_);" d="M884,1457.7l53.6-0.5c0.1,3.6-0.4,9.3,1,12.6l7.1,3.2c6,3,11.3,7,17.4,9.7l13.8,3.9
	c16.7,3.1,33.4,6,43.6,21.2c3.2,4.7,4.7,10.3,6.2,15.7h224.8h24.9h88.5c10.5,0,26.2-1.9,36,0.7c2.9-0.4,4.4-0.3,6.8-2.1l2.2-7.2
	c3.1-3.8,78.6-33,86.4-34.7l14.2,0.4c4.7,0.1,16.4-1.1,20,1.5l2.6,15.2l3.1,25.5c6.4,2.1,18.9,0.5,25.9,0.5
	c21.9,0.1,45.3,1.9,67.1-0.2l1.6-5.8c1.1-2.4,1-2.3,3.5-3.3c7.7-4.6,17.9-7.6,26.2-10.9l55-20.5c3.8,0.2,8.5-1.3,12.3-1.9
	c7.6-1.2,15.4-1.1,23-1.3c4,5.5,6.2,10.4,5.7,17.4l1.6,23.1l1.2,3.5c4.1,1.3,8.9,0.7,13.1,0.7h25.4l96.2-0.1c15.7,0,32-1.1,47.7-0.2
	h121l144.3-0.3h37.2c6.5,0,14.2-0.8,20.3,1.1c2.3,2.6,2.7,3.3,3.5,6.7l-2.3,3c-8.3,4.1-107.3,1.6-122.6,1.6h-294.7l-1111.7-0.4
	l-351.3-0.1H281.3c-19.3,0-39.2,1.1-58.4-0.3c-3.1-2.7-3.4-2.7-4.1-6.8c2.4-3.8,2.7-3.8,7-5.2l159.2,0.4h26.9h106.5l131.1,0.3
	l0.9-23.7l-0.2-7.9c0.7-6.9,2.5-13.5,5.8-19.6l2.2-0.9l4.3-12.3l50.1,5l2.6,6.5c6.8,6.5,16.1,11.6,24.7,15.4
	c16.7,5.2,46.7,9.4,55.5,26c1.8,3.5,2.8,7.7,3.9,11.5h36.9h38c1.4-3.2,0.8-8.4,1-11.9l1.8-22.5c0.8-6.2,1.3-12.7,3.9-18.4
	C884.8,1466.6,883.8,1463.3,884,1457.7z"/>
<path style="fill:#1C2056;" d="M1532.9,1497.2l3.1,25.5c-12.4-1.9-27.4-0.5-40-0.5l-88.5-0.1l2.2-7.2c26.4,0.3,56.1,3,81.9-2.6
	C1506,1509.1,1519.6,1503,1532.9,1497.2z"/>
<path style="fill:#1C2056;" d="M1634.1,1513.9c8.3,1.2,17.4,0.9,25.9,1.2c21.5,0.6,42.8,0.3,63.6-5.8c11.3-3.3,21.7-8.5,32.8-12.6
	l1.6,23.1l-1.8,3.1l-125.1-1.2l-0.5-4.5C1631.7,1514.8,1631.7,1515,1634.1,1513.9z"/>
<path style="fill:#FCBA49;" d="M1727.7,1480.6c7.6-1.2,15.4-1.1,23-1.3c4,5.5,6.2,10.4,5.7,17.4c-11,4.1-21.4,9.3-32.8,12.6
	c-20.9,6.1-42.1,6.4-63.6,5.8c-8.5-0.2-17.5,0-25.9-1.2c7.7-4.6,17.9-7.6,26.2-10.9l55-20.5
	C1719.2,1482.6,1723.9,1481.2,1727.7,1480.6z"/>
<path style="fill:#FCBA49;" d="M1510.3,1480.5c4.7,0.1,16.4-1.1,20,1.5l2.6,15.2c-13.3,5.8-26.9,11.9-41.2,15.1
	c-25.8,5.6-55.5,2.9-81.9,2.6c3.1-3.8,78.6-33,86.4-34.7L1510.3,1480.5z"/>
<path style="fill:#1C2056;" d="M884,1457.7l53.6-0.5c0.1,3.6-0.4,9.3,1,12.6l7.1,3.2c6,3,11.3,7,17.4,9.7c-5.3,3-11,4.3-16.7,6.5
	c-19.8,7.5-35,12.6-56.4,6.7c-4.8-1.3-9.8-2.6-12.9-6.7c0.8-6.2,1.3-12.7,3.9-18.4C884.8,1466.6,883.8,1463.3,884,1457.7z"/>
<path style="fill:#F5A69B;" d="M884,1457.7l53.6-0.5c0.1,3.6-0.4,9.3,1,12.6l-0.6,0.3c-3.6,1.9-6.7,4.6-10.4,6.2
	c-9.5,4.4-22.3,3.9-32.1,0.6l-14.5-6.2C884.8,1466.6,883.8,1463.3,884,1457.7z"/>
<path style="fill:#2C3890;" d="M662.7,1459.2l50.1,5l2.6,6.5c6.8,6.5,16.1,11.6,24.7,15.4c16.7,5.2,46.7,9.4,55.5,26
	c1.8,3.5,2.8,7.7,3.9,11.5c-6.6,4.2-81.1,0.3-94.2,0.2c-18-0.2-36.2,1-54-0.2l-0.7-23.7l-0.2-7.9c0.7-6.9,2.5-13.5,5.8-19.6l2.2-0.9
	L662.7,1459.2z"/>
<path style="fill:#1C2056;" d="M662.7,1459.2l50.1,5l2.6,6.5c6.8,6.5,16.1,11.6,24.7,15.4c-4.7,2.9-10.8,3.2-16.1,4.3
	c-8.9,1.9-18.2,4.3-27.3,4.8c-15.6,0.9-30.9-1.4-46.3-3.2c0.7-6.9,2.5-13.5,5.8-19.6l2.2-0.9L662.7,1459.2z"/>
<path style="fill:#F5A69B;" d="M662.7,1459.2l50.1,5l2.6,6.5l-0.6,0.3c-4.3,1.9-7.3,5.4-11.2,7.9c-9.3,6.2-21,4.1-30.8,0.5
	c-5.6-2.1-10.9-5.3-16.6-6.9l2.2-0.9L662.7,1459.2z"/>
<path style="fill:#2CC9C1;" d="M1619.8,472.8l15.1,4.8c10.7,4.5,24.2,9.2,33,16.8c8.2,7,13.8,22.8,18.2,32.4l17.9,38.5l32.6,72.3
	c3.2,7.5,9,18.4,10,26.4c-4.2,6.4-2.2,22.9-2.6,31c-0.3,7.4-1.5,14.8-2.6,22.1l-9.9,57.1l-21.1,120l-16.2-1.6
	c-2.6,4.4-4.9,8.3-9,11.6l-1.5,0.1l-3.2-72.9c-6.7-1.5-22.6,5.8-30,7.7c-23.5,5.9-47.8,8.9-72.1,9.6l-5.9-128
	c-1.3-13.7-0.8-28.2-1-41.9c-0.1-10-1.3-21.3,0.4-31.2c0.7-9.6,1.1-19.6,2.7-29.1c4-24,12.3-48.4,20-71.5L1619.8,472.8z"/>
<path style="fill:#FBFBFC;" d="M1695.8,827.1l-5.8,63.3c1.5,0.9,2.5,1.5,4.2,2.1c-2.6,4.4-4.9,8.3-9,11.6l-1.5,0.1l-3.2-72.9
	l4.3-2.3C1688.4,828.9,1692.2,827.8,1695.8,827.1z"/>
<path style="fill:#17ACA1;" d="M1641,658l5-43.4c0.6-7,1.7-14.7,1.4-21.7c-0.3-6.8-6-16.6-5.1-22.2c7.3,15.8,17.1,30.9,23,47.2
	l-18.4,40c-1.4,3.4-4.6,8.9-5,12.3c-0.4,3.3,3.2,12.9,4.2,16.6c13,44.8,33.1,88.2,49.6,131.9l-0.1,8.4c-3.6,0.7-7.4,1.8-11,2
	l-2.9-0.7c-3.1-5.5-5.1-12.4-7.6-18.3c-10-24.3-16.3-49.4-23.7-74.5c-4.3-14.6-11.1-30.8-12.8-45.9
	C1636.7,679.7,1639.8,668,1641,658z"/>
<path style="fill:#2C3890;" d="M1619.8,472.8l15.1,4.8l1.3,36.3l-26,23.7l11.8,14.8l-34.3,65.9c-3.6,7.2-10.1,25.2-16,29.2
	c0.7-9.6,1.1-19.6,2.7-29.1c4-24,12.3-48.4,20-71.5L1619.8,472.8z"/>
<path style="fill:#EFF1F6;" d="M1665.4,617.9l26.9,52.8c4.9,9.8,13.1,23,15.5,33.6c2.3,10.2-2.6,28.7-3.7,39.5
	c-2.7,24.6-3.7,50.6-8.2,74.9c-16.6-43.6-36.6-87.1-49.6-131.9c-1.1-3.7-4.7-13.3-4.2-16.6c0.4-3.4,3.6-8.9,5-12.3L1665.4,617.9z"/>
<path style="fill:#1C2056;" d="M962.3,817.6l19-6.6l-8.6,265.6l61.4-17.1c13.4-3.4,27.1-9.7,39.9-14.9
	c75.9-30.8,145-74.2,211.1-122.2c14.9-10.8,31.7-21.3,44.7-34.3c-17.1,0.5-32.8,3.6-49.7,6l-0.5-1.7c3.6-2.3,10.2-2,14.5-2.7
	l46.8-6.7l-27.2,55.9l-1.9,0.2c-0.3-4.5,3.2-8.8,5.3-12.9c5.9-11.6,15.1-26,18.4-38.3l-82,60.3c-74.2,50.9-155.7,95.8-242.6,120.5
	c-12.5,3.6-25.1,7.9-38.1,9.5l-13.6,263.1l-11.6,115.9l-10.1-0.1l-53.6,0.5l-8.1-0.3c-0.5-0.6-1.2-1.1-1.6-1.8
	c-0.6-1.5,0-6.7-0.1-8.7l-0.4-28.1l-3.2-106.7c-0.7-16.8-0.7-33.8-2.5-50.5l-10-209.7c0.4-8.4,4.2-18,6.4-26.2l14.1-54.4l34.2-145.6
	C929.5,824.5,946.1,821.9,962.3,817.6z"/>
<path style="fill:#FCBA49;" d="M773.4,516.5c7.6-11.7,13.6-19.5,25.9-26.4l0.9,0.2c3.8,0.9,7.7,0.8,11.5,1.8c11.8,3.2,18,11,24.2,21
	c11.2,18,20.1,38.2,30.3,56.9c26.4,48.7,64.5,102.8,121.7,116.8c49,14.1,99.2,21.7,149.9,26.3c-3.2,12.4-1.3,27.7-2.3,40.6
	c-22.9,5.4-48,7.5-71.5,8.8c-24.5,1.3-49.4,1.8-73.9-0.6c0.3,8.4,3.9,38.8-1.4,44.3c-1.9,2-5,3.4-7.3,4.8l-19,6.6
	c-16.2,4.3-32.9,6.9-49.6,8.2c-52.3,5.5-104-0.4-153.3-18.7c-5.5-2.8-9.6-5.7-14.1-9.8l6.9-183c1.5-32.4,4.2-64.1,19.2-93.5
	L773.4,516.5z"/>
<path style="fill:#F8921A;" d="M773.4,516.5c3.6,8.2-0.1,22.8-0.3,32.2c-0.1,7.1,0.6,15,1.4,22.1c6.4,58.7,38.3,112.5,85.3,147.8
	c12.2,9.2,25.3,17.8,39.6,23.5c30.2,11.9,59.1,15.3,90.7,19.9c0.3,8.4,3.9,38.8-1.4,44.3c-1.9,2-5,3.4-7.3,4.8l-19,6.6
	c-16.2,4.3-32.9,6.9-49.6,8.2c-52.3,5.5-104-0.4-153.3-18.7c-5.5-2.8-9.6-5.7-14.1-9.8l6.9-183c1.5-32.4,4.2-64.1,19.2-93.5
	L773.4,516.5z"/>
<path style="fill:#EB6F11;" d="M773.4,516.5c3.6,8.2-0.1,22.8-0.3,32.2c-0.1,7.1,0.6,15,1.4,22.1c6.4,58.7,38.3,112.5,85.3,147.8
	c12.2,9.2,25.3,17.8,39.6,23.5c30.2,11.9,59.1,15.3,90.7,19.9c0.3,8.4,3.9,38.8-1.4,44.3c-1.9,2-5,3.4-7.3,4.8l-19,6.6
	c-7.5-6.7-23.4-10.4-33-14.9c-43.9-20.3-81.4-49.9-109.9-89.3c-27.6-38.3-43.7-80.2-49.6-127c-1.4-10.6-2.6-23.4-0.9-33.9
	c0.8-4.9-0.6-12.2,1.9-16.1c0-3.1,0.6-5.9-1.2-8.6c1.3-2.3,1.4-4.7,1.7-7.2L773.4,516.5z"/>
<path style="fill:#99BFF6;" d="M1275.5,1118.4l-0.8-123.9l126.7,0.2l-0.6,529.4c-9.9-2.6-25.5-0.7-36-0.7h-88.5L1275.5,1118.4z"/>
<path style="fill:#99BFF6;" d="M1130.2,1118.4h145.3l0.7,405h-24.9h-224.8c-1.5-5.4-3.1-11-6.2-15.7c-10.1-15.2-26.9-18.1-43.6-21.2
	l-13.8-3.9c-6.2-2.7-11.4-6.7-17.4-9.7l-7.1-3.2c-1.4-3.3-0.9-8.9-1-12.6l10.1,0.1l11.6-115.9l18.7,0.1c0-16.1-2.4-116.3,1.2-122.8
	l110.8-0.6c11.2-1.7,23.9-0.7,35.4-0.8v-69c0-8.9-1.4-20.7,0.7-29.3L1130.2,1118.4z"/>
<path style="fill:#B8D2F6;" d="M979.2,1218.6l-0.9,130.4c0.1,18.2,2.8,131.8-1.5,137.5l-13.8-3.9c-6.2-2.7-11.4-6.7-17.4-9.7
	l-7.1-3.2c-1.4-3.3-0.9-8.9-1-12.6l10.1,0.1l11.6-115.9l18.7,0.1C977.9,1325.4,975.6,1225.2,979.2,1218.6z"/>
<path style="fill:#EFF1F6;" d="M937.5,1457.2l10.1,0.1l-2.1,15.7l-7.1-3.2C937.1,1466.4,937.7,1460.8,937.5,1457.2z"/>
<path style="fill:#EFF1F6;" d="M1125.3,1217.2l-1,305.4l-22.9-0.1l0.8-302.5c-2.9-2.9-8.2-1.9-12.3-2
	C1101.2,1216.3,1113.9,1217.3,1125.3,1217.2z"/>
<path style="fill:#B8D2F6;" d="M1130.2,1118.4h145.3l0.7,405h-24.9l-0.1-403.4c-5.8-2.5-19-0.6-25.9-0.5l-60.5-0.1
	c-11-0.1-22.7,0.6-33.5-0.8L1130.2,1118.4z"/>
<path style="fill:#2C3890;" d="M759.4,807.1c49.3,18.3,101,24.2,153.3,18.7l-34.2,145.6l-14.1,54.4c-2.2,8.1-6,17.8-6.4,26.2
	l10,209.7c1.9,16.7,1.8,33.7,2.5,50.5l3.2,106.7l0.4,28.1c0,2-0.6,7.2,0.1,8.7c0.3,0.7,1,1.2,1.6,1.8l8.1,0.3
	c-0.2,5.6,0.8,8.9-3.1,13.1c-2.6,5.7-3.1,12.2-3.9,18.4l-1.8,22.5c-0.1,3.5,0.4,8.7-1,11.9h-38h-36.9c-1.1-3.8-2-8-3.9-11.5
	c-8.8-16.7-38.7-20.8-55.5-26c-8.6-3.8-17.9-8.9-24.7-15.4l-2.6-6.5l-50.1-5c-3.6-0.7-7.4-1.1-10.5-3.2c-0.5-9.6,5.1-24.2,7.2-33.9
	l19.4-92.9l42.3-217.2C739.7,1011,750.5,909.3,759.4,807.1z"/>
<path style="fill:#EFF1F6;" d="M712.8,1464.2l14.2,2.1c3.3-4.2,5-14,6.7-19.3l19.1-59.3l81.9-256.3l14.8-51.4c2.5-8.9,4.1-20,8.6-28
	l10,209.7c1.9,16.7,1.8,33.7,2.5,50.5l3.2,106.7l0.4,28.1c0,2-0.6,7.2,0.1,8.7c0.3,0.7,1,1.2,1.6,1.8l8.1,0.3
	c-0.2,5.6,0.8,8.9-3.1,13.1c-2.6,5.7-3.1,12.2-3.9,18.4l-1.8,22.5c-0.1,3.5,0.4,8.7-1,11.9h-38h-36.9c-1.1-3.8-2-8-3.9-11.5
	c-8.8-16.7-38.7-20.8-55.5-26c-8.6-3.8-17.9-8.9-24.7-15.4L712.8,1464.2z"/>
<path style="fill:#B8D2F6;" d="M868.1,1261.6c1.9,16.7,1.8,33.7,2.5,50.5l3.2,106.7l0.4,28.1c0,2-0.6,7.2,0.1,8.7
	c0.3,0.7,1,1.2,1.6,1.8l8.1,0.3c-0.2,5.6,0.8,8.9-3.1,13.1c-2.6,5.7-3.1,12.2-3.9,18.4l-1.8,22.5c-0.1,3.5,0.4,8.7-1,11.9h-38
	L836,1273c6.1,0.1,27.5,2.1,31.7-1L868.1,1261.6z"/>
<path style="fill:#3951C9;" d="M1497.6,721.2l68.3,0.4l6.5-0.9l5.9,128c24.2-0.7,48.5-3.7,72.1-9.6c7.4-1.9,23.3-9.2,30-7.7
	l3.2,72.9l-0.3,1.6c-2.8,12.3-18.9,26.9-16.2,40.2l2.8,2.5c3.9-0.8,6.5-2.4,8.8-5.8c2.8-4.1,4.8-9.1,6.8-13.6l-5.4,31.3
	c-0.5,3-1.6,8.9-0.4,11.9c0.6,1.6,2.3,3.5,3.2,5l-0.6,98.8c-0.3,16.3-1.8,33.7-0.5,50c0.4,5.4,2.5,11.6,3.8,16.9l8.5,35.4
	l25.7,123.1c3.3,16.9,24.9,116.4,22.4,124.5l-14.1,1.8l-9.3,0.3c2.5,16.6,3.5,36.8,8.8,52.7c-3.8,0.7-8.5,2.1-12.3,1.9l-55,20.5
	c-8.4,3.3-18.6,6.3-26.2,10.9c-2.5,1-2.5,0.9-3.5,3.3l-1.6,5.8c-21.8,2.1-45.2,0.3-67.1,0.2c-7,0-19.4,1.6-25.9-0.5l-3.1-25.5
	l-2.6-15.2c-3.6-2.5-15.3-1.4-20-1.5c-1-5-0.2-11.6-0.2-16.8l-0.2-37.1l-18.1-0.7c-2.4-12.5-2.3-26.5-3.3-39.2l-7.2-88.7l-9.4-120.2
	l-4.4-55.2l3.3-283.6l-0.4-6.4l13.7,5.4l11.8-101.3L1497.6,721.2z"/>
<path style="fill:#2C3890;" d="M1495.9,737.1c1,8-0.1,15.1-0.3,23.1c-1,29.1-6.3,58.3-6.4,87.2l-18.3-8.1l-0.4-6.4l13.7,5.4
	L1495.9,737.1z"/>
<path style="fill:#2C3890;" d="M1515.8,1426.7c3-32.3,2.2-65.5,2.8-97.9l5.7-198.3l15.7-175.7l4.8-45.3c0.9-9.3,2.5-17.5,1.2-26.9
	c-1-7.7-3.2-15.6-4.9-23.2c-1.3-6-2-13.6-4.3-19.2l-0.5-1l1-1.2l1.7,0.6l2.4,8.5l4,19.5l24.7,119.7c1.1,3.5,0.6,7.1,1.7,10.4
	c0.6,1.8,0.1,2.2-0.6,4l-18.9,76.7c-4.5,17.9-10.6,36.9-13.2,55.1c-1.4,9.8-0.7,20.8-0.9,30.7l-0.9,66.2l-5.6,197.4L1515.8,1426.7z"
	/>
<path style="fill:#2C3890;" d="M1572.4,720.7l5.9,128c24.2-0.7,48.5-3.7,72.1-9.6c7.4-1.9,23.3-9.2,30-7.7l3.2,72.9l-0.3,1.6
	c-2.8,12.3-18.9,26.9-16.2,40.2l2.8,2.5c3.9-0.8,6.5-2.4,8.8-5.8c2.8-4.1,4.8-9.1,6.8-13.6l-5.4,31.3c-0.5,3-1.6,8.9-0.4,11.9
	c0.6,1.6,2.3,3.5,3.2,5l-0.6,98.8c-0.3,16.3-1.8,33.7-0.5,50c0.4,5.4,2.5,11.6,3.8,16.9l8.5,35.4l25.7,123.1
	c3.3,16.9,24.9,116.4,22.4,124.5l-14.1,1.8c-3-3.3-12.6-62.8-14.4-72.4l-35.6-167.6l-9.5-39.6c-2.2-8.5-5.3-18.1-6-26.8
	c-2.8-38.9,0.5-79.1,1.1-118.1l-0.6-65.6l0.8-86.1c-31.9,7.5-63.9,11.1-96.6,11.7l-1.5-141.6L1572.4,720.7z"/>
<path style="fill:#EFF1F6;" d="M1571.5,1000.7c2.7,5.1,3.5,11.1,4.7,16.6l6.1,27c7.3,32.7,14,66.8,23.4,98.9l31.9,93.8l63.7,191.1
	l17.6-0.3c2.5,16.6,3.5,36.8,8.8,52.7c-3.8,0.7-8.5,2.1-12.3,1.9l-55,20.5c-8.4,3.3-18.6,6.3-26.2,10.9c-2.5,1-2.5,0.9-3.5,3.3
	l-1.6,5.8c-21.8,2.1-45.2,0.3-67.1,0.2c-7,0-19.4,1.6-25.9-0.5l-3.1-25.5l-2.6-15.2c-3.6-2.5-15.3-1.4-20-1.5
	c-1-5-0.2-11.6-0.2-16.8l-0.2-37.1l6,0.1l16.2,0.3l5.6-197.4l0.9-66.2c0.2-9.9-0.5-20.9,0.9-30.7c2.6-18.2,8.7-37.2,13.2-55.1
	L1571.5,1000.7z"/>
<path style="fill:#F6B79B;" d="M1701.3,1428.2l17.6-0.3c2.5,16.6,3.5,36.8,8.8,52.7c-3.8,0.7-8.5,2.1-12.3,1.9
	C1712.7,1464.8,1707.2,1445.1,1701.3,1428.2z"/>
<path style="fill:#E87F5C;" d="M1515.8,1426.7l16.2,0.3l-1.7,55c-3.6-2.5-15.3-1.4-20-1.5c-1-5-0.2-11.6-0.2-16.8l-0.2-37.1
	L1515.8,1426.7z"/>
<path style="fill:#EFF1F6;" d="M225.6,1523c5.4-3.5,23.5-1.3,30.8-1.3c30.8,0.1,62.4,1.7,93.2-0.2c-21-16.7-39.3-37.3-56.5-57.9
	c-67.8-80.9-111.7-175.9-128.3-280.2c-20.7-129.8,2.6-273.9,81-381.6c53.6-73.7,130.5-126.7,221.7-138.6c25.1-3.3,49.9-4,75.1-5.7
	l86-9.5c26.4-4.1,52.2-9.5,77.6-17.8c14.9-4.9,30.8-13.7,46-16l-6.9,183c4.5,4.1,8.7,7.1,14.1,9.8c-8.9,102.2-19.7,204-38.3,305
	l-42.3,217.2l-19.4,92.9c-2.1,9.7-7.7,24.2-7.2,33.9c3.1,2.1,6.9,2.5,10.5,3.2l-4.3,12.3l-2.2,0.9c-3.4,6.1-5.1,12.7-5.8,19.6
	l0.2,7.9l-0.9,23.7l-131.1-0.3H411.7h-26.9L225.6,1523z"/>
<path style="fill:#3951C9;" d="M619.6,796.5c1.4-0.3,2.6-0.1,4,0l0.3,16.8c4.6,0,13.5-1.2,17.1,1.5l-0.4,2.4
	c-4.2,2.1-11.8,1.1-16.6,1.1c0.1,5.9,0.2,11.7-0.7,17.5l-2.8,0.1c-2.6-3.2-1.4-13.6-1.4-18c-4.9,0-13.4,1.1-17.4-1.3l0.8-2.4
	l16.7-0.4L619.6,796.5z"/>
<path style="fill:#3951C9;" d="M569,947.9c2.3-1.4,2.3-1.2,4.9-0.8c-3.4,10.3-11.7,20.2-16.8,29.8l-31,61.8
	c-17.3,36-28.9,73.2-43.2,110.3c-12.6,32-20.5,66.6-26.3,100.4c-3.5,20-6.9,40.3-8.1,60.6c-1,17.3-0.4,34.9-0.2,52.2l-3.4,0.7
	c0.1-19.4,0.8-39.2-0.6-58.6c-3.2-43.7-14-84.5-29.8-125.2c-6.4-15.9-15.8-31.8-24.5-46.6c-29.3-49.7-65.2-94.8-106.1-135.4
	l-0.5-1.7l1.2-1.7l3.6,1.3l0.6,0.8l48.7,54.5c31.7,38.7,55.7,80.3,79.2,124.1c2.4,12.4,9.7,25.9,13.5,38.2
	c8.3,27,13.1,54.6,16.6,82.6c5.5-49,14.7-100.2,32.4-146.5c2.2-9.7,6.2-19.1,9.4-28.6C508.6,1060,536.8,1002.4,569,947.9z"/>
<path style="fill:#2CC9C1;" d="M621.3,1169.5l-10.9,39.2c-6.2,22.5-13.2,55.3-34.7,67.8c-25.7,15-55.4,19.8-82.2,32
	c9.4-17.8,22.7-35.1,35.6-50.4c20.1-23.8,41.7-46.3,65.4-66.7C602.9,1184.1,611.8,1175.3,621.3,1169.5z"/>
<path style="fill:#17ACA1;" d="M468.3,1363.1c2.8-12.6,8.4-26.9,13.8-38.7c2.7-5.9,7.6-13.1,9-19.2c1.3-5.9,1-13.1,1.4-19.2
	c1.2-18.6,0.9-38.9,5.1-57.1c3.1-13.4,9.7-23.2,21.4-30.5c24.5-15.3,56.7-22.2,84.6-28.4c5-1.1,13.4-4.2,18.2-3l-0.6,2.5
	c-9.5,5.8-18.3,14.5-26.8,21.8c-23.6,20.4-45.3,42.9-65.4,66.7c-13,15.3-26.2,32.6-35.6,50.4c-9.2,17.4-15.7,35.3-21.9,53.9
	L468.3,1363.1z"/>
<path style="fill:#FCBA49;" d="M444.8,1362.9l3.4-0.7c6,2.1,13.8,1.1,20.2,1l3.2-0.7l1,0.1c16.4,1.8,34.5,0.1,51.1-0.1
	c5.1-0.1,13.2-1.2,18,0.4c2,0.7,3.6,2.6,4.8,4.2c3.6,4.7,3.4,20.8,2.1,26.6c-0.5,2.4-3.3,4.7-5.3,5.7c-2.8,1.5-7.2,1.4-10.3,1.6
	l-1.3,3.8l-0.4-3.3c-0.7-0.4-1.3-1-2.1-1.3c-1.9-0.6-6.4,0-8.6,0h-27.2l-82.1,0.1c-13.3,0-28.6-1.4-41.6,0.8
	c-3.9,0.4-7.1-0.3-10.3-2.5c-4.6-5.5-3.4-14.9-3.5-21.7c0-4.8,0.8-8.1,4.4-11.5c1.4-1.3,3.1-2.3,5-2.6c5.3-0.9,11.6-0.3,17-0.2
	l33.3,0.7l2.2-0.8C425,1364.4,437.1,1363.8,444.8,1362.9z"/>
<path style="fill:#2CC9C1;" d="M288,994.9c36.9,7.2,105,34.5,126.9,66.6c9.8,14.3,8.8,32.8,7.8,49.3l-6.2,63.5
	c-23.5-43.8-47.5-85.5-79.2-124.1l-48.7-54.5L288,994.9z"/>
<path style="fill:#5E90F6;" d="M569,947.9c-32.2,54.5-60.4,112.1-80.5,172.2c-3.2,9.4-7.2,18.9-9.4,28.6c-4.4-8.2-6.3-18.5-8.9-27.4
	c-5.5-18.7-11.4-37.2-13.9-56.6c-1.1-8.4-1.9-17.6,0.5-25.9c7.4-25.6,33.8-41.3,54.6-55.4C530,970.7,549.3,958.7,569,947.9z"/>
<path style="fill:#2CC9C1;" d="M283.7,997.2c40.9,40.6,76.8,85.7,106.1,135.4c8.7,14.7,18.1,30.7,24.5,46.6
	c-25.6-9.5-51.6-17.5-76.5-28.6c-9-4-19.3-8.2-26.8-14.7c-7.2-6.2-11.5-14.1-14.3-23.1c-4.9-15.7-5.2-33.4-6.8-49.7L283.7,997.2z"/>
<path style="fill:#5E90F6;" d="M573.9,947.1c4.5,14.9,7.2,31.4,9.8,46.8c4.8,28.3,12.3,64.6-2,91.1c-11.3,20.8-39.8,30.8-59.7,41.4
	l-39.1,22.6c14.3-37.1,25.9-74.3,43.2-110.3l31-61.8C562.3,967.3,570.5,957.4,573.9,947.1z"/>
<path style="fill:#5E90F6;" d="M415.5,1363.2c-3.9-11.6-8.2-22.9-13.6-33.9c-1.5-3.1-3.4-7.7-6.3-9.6c-15.7-1.6-30.9-4.3-46.4-7.4
	c-18.1-3.6-39.6-6-52-21.2c-3.8-4.7-6.5-10.3-8.5-16c-7.3-20.6-11.2-43.6-16-65c-1.3-5.8-4.4-13.9-4.4-19.7l0.3-1.2l58.2,11.2
	c20,4.2,42.8,8.3,54.4,27.1c8.3,13.4,9.7,30,12.1,45.3l5.7,40.3c0.5,4.8,3.6,9.1,5.8,13.3c4.7,8.9,13.6,26.2,13,35.8L415.5,1363.2z"
	/>
<path style="fill:#FCBA49;" d="M369.6,1401c13-2.2,28.3-0.8,41.6-0.8l82.1-0.1h27.2c2.2,0,6.8-0.6,8.6,0c0.8,0.3,1.4,0.9,2.1,1.3
	l0.4,3.3l-2.1,15.3l-11.2,103.4H411.7h-26.9L369.6,1401z"/>
<path style="fill:#EB6F11;" d="M369.6,1401c13-2.2,28.3-0.8,41.6-0.8l82.1-0.1h27.2c2.2,0,6.8-0.6,8.6,0c0.8,0.3,1.4,0.9,2.1,1.3
	l0.4,3.3l-2.1,15.3l-98.5-0.2c-9.1,0-23.7-1.8-32,0.7l12.6,102.9h-26.9L369.6,1401z"/>
</svg>
