<?xml version="1.0" encoding="utf-8"?>
<!-- Generator: Adobe Illustrator 27.5.0, SVG Export Plug-In . SVG Version: 6.00 Build 0)  -->
<svg version="1.1" id="Layer_1" xmlns="http://www.w3.org/2000/svg" xmlns:xlink="http://www.w3.org/1999/xlink" x="0px" y="0px"
	 viewBox="0 0 2499.962 1666" style="enable-background:new 0 0 2499.962 1666;" xml:space="preserve">
<g>
	<path style="fill:#FDFDFD;" d="M0,0h2497.1c1.4,2.2,1.9,4.1,2,6.7c1.1,23.5,0.1,47.3,0.1,70.8v138.1v421.3v772v187.5
		c0,13,1.9,55.4-0.3,65.4c-0.4,1.6-0.9,2.9-1.8,4.2H0V0z"/>
	<path style="fill:#283580;" d="M2277,1432.4c11-2.1,27.6-2.1,38.8-0.3c3.2,0.5,4.5,1,6.3,3.7c-1.2,3.2-1.8,3.5-4.4,5.6
		c-8.9,2.1-31.7,2.8-39.7-1.3C2275.9,1436.8,2276.4,1436.3,2277,1432.4z"/>
	<path style="fill:#283580;" d="M171,1432.9c9.1,0.1,18.3-0.8,27.4-0.3c5,0.3,8.4,0.6,11.8,4.5c0.1,3.8-0.7,4.7-2.6,7.9
		c-8.8,1.6-20.6,2.1-29.5,0.9c-4.5-0.6-6.6-1.5-9.2-4.9C168.8,1437.2,169.4,1436.2,171,1432.9z"/>
	<path style="fill:#A01E6D;" d="M2095.4,441c4.3-1,5.4-1.2,9.3,1.3c5.7,3.6,16,11.3,17.5,18.1c1.5,7.1-6.9,19.3-10.3,25.6
		c-3.1,0.1-4.5,0.8-7.1,2.4c-1.4-4.7-5.1-8.3-8.9-11.2c1.1-1.7,1.9-3.3,2.4-5.3C2100.4,463.1,2100.5,448.8,2095.4,441z"/>
	<path style="fill:#7E48C3;" d="M253.9,892.1c-0.3-0.1-0.7-0.2-1-0.3c-7.4-2.5-14.2-6-17.7-13.5c-3-6.6-4.3-14.9-1.4-21.7
		c2.3-5.4,7.2-9.5,12.6-11.7c6.9-2.8,14.6-2.7,21.4,0.3c5.8,2.6,11,7.2,13,13.3c2.8,8.4,0.2,16.4-3.6,23.9
		C269.5,889.2,264.8,892.2,253.9,892.1z"/>
	<path style="fill:#FDFDFD;" d="M252.7,851.9c2.3,0,4.9-0.1,7.2,0.3c3.8,0.7,7.6,3.5,9.7,6.7c2.3,3.3,2.8,7.2,2,11.1
		c-1.3,5.8-4.7,8.2-9.3,11.3c-2.5,0.2-5.1,0.3-7.6,0.1c-4.1-0.4-7.9-2.9-10.3-6.3c-2.2-3.2-2.8-7-2-10.7
		C243.9,858,247.7,855.2,252.7,851.9z"/>
	<path style="fill:#DCD9E8;" d="M1334.2,272.1c8.4,7.1,13.1,15.2,14,26.3c1.1,13.4-3.5,27.2-12.2,37.3c-8.3,9.7-19.4,14.7-32.1,15.5
		c-8.7,0.5-17.7,0.1-26.4,0.1h-1.1c-2.8-6.9-5.6-12.9-6.8-20.4c6.7,0.1,13.5,0.3,20.2,0.1c13.1-0.5,25.3-4.6,34.2-14.5
		c9-10,11.4-22.4,10.6-35.4l-0.6-3.4L1334.2,272.1z"/>
	<path style="fill:#F7A454;" d="M2106.2,1113.2c12.2-8.9,20.6-24.8,34.8-31c4.2-1.8,8.1-1.9,12.3-0.4c6.3,1.1,10,3.5,13.7,8.7
		c5.6,8.2,17.5,32.9,15.9,43.1c0,0.2,0,0.3-0.1,0.5c2,2.4,3.6,3.5,3.1,6.9c-0.1,0.5-0.2,1-0.4,1.4c-0.7,2-0.2,2-2.3,3
		c-13.5,6.6-31.8,12.6-42.7,22.9c0.1-0.7,0.3-1.1,0.1-1.8c-0.8-3.3-27.6-47.1-31-51.1C2108.5,1114.3,2107.5,1113.9,2106.2,1113.2z"
		/>
	<path style="fill:#F8C671;" d="M2153.2,1081.8c6.3,1.1,10,3.5,13.7,8.7c5.6,8.2,17.5,32.9,15.9,43.1c0,0.2,0,0.3-0.1,0.5
		c-11.1,7.5-25.4,13.1-38,17.4c1.3-1.7,1.9-2.8,2.4-4.9C2149.7,1135.5,2158.1,1089.4,2153.2,1081.8z"/>
	<path style="fill:#CAEBF9;" d="M2207.8,991.8c10.9-1.3,21.6,1.1,30.4,7.8c9,6.9,15.1,17.9,16.3,29.2c1.2,11.1-2.2,22.8-9.3,31.4
		c-7,8.5-16.7,13.2-27.5,14.4c-6.9,1.3-17.7-1.6-23.8-4.9c-9.4-5.1-16.2-14.7-19-25c-3.1-11.2-1.4-23.2,4.4-33.2
		C2185.9,1000.2,2195.4,995.1,2207.8,991.8z"/>
	<path style="fill:#F7A454;" d="M2106.2,1113.2c1.3,0.6,2.4,1,3.3,2.2c3.4,4,30.2,47.7,31,51.1c0.2,0.7,0,1.1-0.1,1.8
		c10.9-10.3,29.2-16.2,42.7-22.9c2.1-1,1.6-1,2.3-3c4.6,3.8,7.1,14.4,7.7,20.4c0.1,0.8,0,1.1,0,1.8c2,2.9,3.4,6.1,2.9,9.7
		c-0.2,1.2-0.5,2.4-0.9,3.5c1.9,2.5,3.3,3.5,2.9,6.9c-0.1,0.6-0.3,1.1-0.6,1.7c-5.1,4-57,22.8-66.4,25.1c0.9,5-0.3,13.2-3,17.6
		c-0.7,1.1-1.6,2.1-2.6,3c-0.2-0.7-0.2-0.9-0.6-1.6c-6.5-13.7-16.2-27-24-40.1c-7-11.7-13.6-26-22.1-36.6c-1.2-1.5-2.7-2.3-4.5-3
		c8.1-7.5,20.2-20.7,25.6-30.2C2102.8,1118.3,2104.6,1116.6,2106.2,1113.2z"/>
	<path style="fill:#EB6A51;" d="M2106.2,1113.2c1.3,0.6,2.4,1,3.3,2.2c3.4,4,30.2,47.7,31,51.1c0.2,0.7,0,1.1-0.1,1.8
		c0.8,3.4,1.2,6.2-0.6,9.4c-0.6,1-1.4,1.8-2.2,2.6c-10.2-20.7-25.1-40.5-37.9-59.7C2102.8,1118.3,2104.6,1116.6,2106.2,1113.2z"/>
	<path style="fill:#F8C671;" d="M2185.4,1142.4c4.6,3.8,7.1,14.4,7.7,20.4c0.1,0.8,0,1.1,0,1.8c2,2.9,3.4,6.1,2.9,9.7
		c-0.2,1.2-0.5,2.4-0.9,3.5c-19.8,7.6-42.4,17.3-63.3,20.9c3.9-4.3,6.9-9.5,6.6-15.5c-0.1-1-0.4-1.9-0.7-2.9
		c0.8-0.8,1.6-1.6,2.2-2.6c1.7-3.2,1.4-6,0.6-9.4c10.9-10.3,29.2-16.2,42.7-22.9C2185.2,1144.4,2184.8,1144.4,2185.4,1142.4z"/>
	<path style="fill:#CAEBF9;" d="M2193.1,1164.6c21.7,3.9,52.2,33.5,64.5,51.1c21,30,29.3,67.9,22.7,104
		c-6.3,34.1-26.9,66.7-55.7,86.5c-10.7,7.3-22.8,14.6-35.2,18.3c-4.2,1.3-15.6,2.5-18.4,5.6c-1,1.2-0.8,0.6-1.1,1.6
		c-14.1,1.1-28.9,0.2-43.1-0.2c2.6-1.8,3.9-2.8,5-5.7c9.6-3.5,20.7-19.3,26.8-27.7c7.7-10.7,28.7-43.8,26.7-56.1
		c1-0.9,2.1-1.9,2.9-3c1.8-2.6,1.3-4.4,0.9-7.2c1.6-1.4,2.9-2.9,3.6-4.9c3.5-8.8,10.8-32.1,7.1-40.1c0.6-0.7,0.9-1,1.4-1.8
		c1.8-3,0.7-5-0.2-8.1c0.6-0.6,0.9-0.9,1.4-1.7c3.5-5.9,3.5-41,1.4-48.1l-0.2-1.4c0.2-1.2,0.3-2.3,0.4-3.5
		c0.5-7.9-1.4-30.1-6.6-35.8c0.3-0.6,0.5-1,0.6-1.7c0.4-3.3-1.1-4.4-2.9-6.9c0.4-1.2,0.7-2.3,0.9-3.5
		C2196.5,1170.6,2195.1,1167.5,2193.1,1164.6z"/>
	<path style="fill:#F15084;" d="M935.6,255.8c7.7-4.4,15.3-8.7,24.2-9.7c13.7-1.5,28.5-0.5,42.3-0.5h78.8h145.3
		c18.2,0,63.8-2.7,79.7,1.6c13.7,3.7,20.7,13.8,28.2,25l-0.1,5.7l0.8,3.2c0.8,13.1-1.6,25.4-10.6,35.4c-8.9,9.9-21.2,14-34.2,14.5
		c-6.7,0.2-13.5,0-20.2-0.1l-220.2-0.1l-60.3,0.3c-11.7,0.1-24.5,1.1-36.1-0.7c-7-1.1-12.6-5.1-18.3-9c-5.2-6-9.3-11.8-11.9-19.4
		c-3.2-5.7-2.6-13.6-2.3-19.8C922.9,271,927.6,263.7,935.6,255.8z"/>
	<path style="fill:#FDFDFD;" d="M1022.9,292.4c0.4-3,0.7-6.2,1.5-9.2c1.2-4.7,5.1-9.3,9.2-11.7c4.2-2.4,8.6-2.6,13.1-1.1
		c7.3,2.3,10.3,7.5,13.6,13.9c-0.2,7.3-1.5,14.2-7.3,19.4c-3.4,3-7.9,4.5-12.4,4c-5.6-0.6-10.4-3.4-13.7-7.9
		C1025.3,297.5,1024,295,1022.9,292.4z"/>
	<path style="fill:#FDFDFD;" d="M964.5,288.3c2.1-6.5,4.7-12.4,10.8-16.1c4.1-2.5,8.9-3.2,13.5-1.8c7.9,2.4,11.1,7.4,14.6,14.3
		c-0.4,7.3-1.7,13.6-7.5,18.6c-3.5,3-8.1,4.8-12.8,4.4c-5.5-0.5-10.4-3.5-13.7-7.8C967.1,296.7,965.5,292.2,964.5,288.3z"/>
	<path style="fill:#CC4480;" d="M923.1,302c2.5,0.3,19.9,15.9,28.2,18.8c10,3.5,57.4,1.4,71.2,1.4l179.3-0.1
		c30.6,0,61.7,1.7,92.2,0.2c5.3-0.3,9.8-1.7,14.6-4.1c9.1-4.6,19.2-13.4,21.9-23.7c1.1-4.1,0.9-8.3,2.2-12.5l2.1-0.9
		c0.8,13.1-1.6,25.4-10.6,35.4c-8.9,9.9-21.2,14-34.2,14.5c-6.7,0.2-13.5,0-20.2-0.1l-220.2-0.1l-60.3,0.3
		c-11.7,0.1-24.5,1.1-36.1-0.7c-7-1.1-12.6-5.1-18.3-9C929.8,315.4,925.7,309.6,923.1,302z"/>
	<path style="fill:#F57397;" d="M935.6,255.8c7.7-4.4,15.3-8.7,24.2-9.7c13.7-1.5,28.5-0.5,42.3-0.5h78.8h145.3
		c18.2,0,63.8-2.7,79.7,1.6c13.7,3.7,20.7,13.8,28.2,25l-0.1,5.7c-0.3,0.2-0.6,0.3-0.9,0.5c-5.4,3.3-13.6,2.8-19.8,2.3
		c-4.6-0.4-8-1-11.1-4.6c-22.7-1.6-46.7-0.8-69.5-0.2c-23.9,2.1-48.2-0.9-72.1,0.9c-14,1.1-27.6,6.3-41.7,8.3
		c-0.6,7.1-2.1,13.7-8,18.5c-3.9,3.2-8.7,4.2-13.6,3.4c-6.3-1.1-11.2-4.8-14.6-10.1c-1-1.6-1.9-3.2-2.8-4.9l-0.4-6.3
		c-1.1-1.4-2.3-2.2-4-2.8c-4.2-1.4-11.3-0.4-15.3,1.5c-3.4-6.4-6.3-11.5-13.6-13.9c-4.5-1.4-8.9-1.3-13.1,1.1c-4.1,2.4-8,7-9.2,11.7
		c-0.8,3-1.1,6.1-1.5,9.2c-0.1-2.7-0.1-4.6-1.6-7c-4.8-2.7-12.4-1.2-17.8-0.8c-3.5-6.9-6.7-11.9-14.6-14.3
		c-4.7-1.4-9.4-0.7-13.5,1.8c-6.1,3.7-8.8,9.6-10.8,16.1c-5.1,1.7-10.9,2.3-16.3,2.6c-10.8,0.6-19.3-1.4-27.5-8.7
		C922.9,271,927.6,263.7,935.6,255.8z"/>
	<path style="fill:#FDFDFD;" d="M1232.9,275.7c-14.7-1-68.7,2.4-77.7-3.2l0.3-2c3.2-1.9,6.2-2.6,9.9-2.9c12.1-0.9,127.2-0.8,134.2,1
		c1,0.3,2,0.7,2.9,1.1c1.3,2.9,0.8,3.3-0.1,6.2C1279.7,274.4,1255.6,275.2,1232.9,275.7z"/>
	<path style="fill:#FDFDFD;" d="M1080,291.9c0.4-2.9,0.8-6,1.6-8.9c1.5-5.4,5.9-10.4,10.9-12.8c4.3-2.1,9.2-2.2,13.6-0.4
		c7.4,3,10,8.3,12.9,15.1c-0.6,7.1-2.1,13.7-8,18.5c-3.9,3.2-8.7,4.2-13.6,3.4c-6.3-1.1-11.2-4.8-14.6-10.1
		C1081.8,295.2,1080.9,293.6,1080,291.9z"/>
	<path style="fill:#CAEBF9;" d="M277.3,882.3c58.7-10.4,106.7-6.2,159.9,22.3l0.7,233.1c-6.6-7-13.5-13.8-21.3-19.4
		c-12.6-9-23.6-11.2-38.7-8.6l-3,2.7c-5.7,4.3-9.2,9.4-12.2,15.8c-35.5,6.6-69.7,10.8-103.6-5.7c-28.8-14-50.6-39.9-60.9-70.1
		c-16.6-48.5-4.1-102,32.1-138.2c5-5,20.9-15.8,22.9-20.6c0.2-0.5,0.4-1,0.6-1.5C264.8,892.2,269.5,889.2,277.3,882.3z"/>
	<path style="fill:#D1B1F4;" d="M249,1441.1c20.1-2.9,42-1.8,62.3-1.8l103.8-0.1l349.5-0.4l913.5-0.6l353.4,0.8
		c55,0.1,110.1,1.1,165.1,0.2c7.3-0.1,21.3-2.3,27.5,1.9c2.8,1.9,5.1,7.1,6.7,10l0.8-0.3l0.1-0.9c0.3,0.8,0.5,1.2,0.6,2
		c0.6,4.3-1.4,9.9-4,13.3c-2.6,3.4-7,6.8-11.4,7.4c-14.7,1.7-30.7,0.4-45.5,0.3l-78.1-0.1l-306.2,0.2l-928.5,0.3l-403.6,0.2H326.6
		c-20.8,0-42.1,1.3-62.8,0.3c-4.7-0.2-14.9-1-18.4-4.2c-2.9-2.7-5.6-8-5.9-12c-0.4-6.9,5-11.1,8.9-15.7
		C248.6,1441.6,248.8,1441.3,249,1441.1z"/>
	<path style="fill:#283580;" d="M747.2,820.6c15.7,0.4,28.6,4.1,39.7,15.8c2.4,2.5,4.5,5.4,6.6,8.2c3.7,9.6,6,18.2,6.8,28.5l25,0.1
		l6.9-0.1l-2.9,1.4c-0.4,5.7,0.7,11,0.5,16.6v14.5c-9.8,0.5-19.5,0.5-29.3,0.3l0.2,30.3l29.3,0.2c0.1,13.7-0.6,28.1,0.5,41.7
		c-3.2,10.9-2,24.1-1.9,35.5c-0.2,6.9-0.7,12.9,2.3,19.3c0.2,13.4,0.3,26.8,0.2,40.2c-0.1,9.8-0.5,19.8-0.1,29.5
		c0,4.6,0.4,9.5-0.2,14c-1.2,17.1-0.6,34.5-0.1,51.6c84,1.4,168.2,0.4,252.2,0.5l406.7,0.5l171.5-0.2c13.7,0,49.3,1.9,61-0.8
		c0.9-1.3,1.6-2.8,1.9-4.3c1.4-8.8,2.6-40.2-2-46.8c5.1-8.3,2.6-32.7,1.7-42.7c1.4-16.5,1.9-139.5-1.3-145.5c5-13.8-2.8-33.7,7-45.8
		c6.2-7.5,16.1-8.4,25.1-9c5.3,0.2,10.6,0.6,15.9,0l1.1,0.3c7.4,2.6,128.9,1.5,145,0.8l1.5-0.9l73.9-0.2c13.4,0,28.3-1.7,41.4,1
		c6.8,1.4,13.2,4.4,18.1,9.3c10.7,10.6,11.1,25.2,10.9,39.3c-0.1,9.8,2.4,29.8-2,38.3c0.9,1.8,1.5,3.5,1.6,5.5
		c1,18.8,1.1,192.1-1.2,199c-0.3,0.8-0.3,0.9-0.6,1.6c4-1.7,4.9-3.6,6.6-7.4c3.2-3,6-5.8,7.5-10c1.8,0.6,3.3,1.5,4.5,3
		c8.6,10.6,15.1,24.9,22.1,36.6c7.8,13.1,17.6,26.4,24,40.1c0.3,0.7,0.4,0.9,0.6,1.6c1-0.9,1.9-1.9,2.6-3c2.7-4.4,3.9-12.6,3-17.6
		c9.4-2.4,61.3-21.1,66.4-25.1c5.2,5.7,7,27.9,6.6,35.8c-0.1,1.2-0.2,2.3-0.4,3.5l0.2,1.4c2.2,7.1,2.1,42.3-1.4,48.1
		c-0.5,0.8-0.8,1.1-1.4,1.7c0.9,3.1,2,5,0.2,8.1c-0.5,0.8-0.8,1.1-1.4,1.8c3.7,8-3.6,31.3-7.1,40.1c-0.8,2-2,3.5-3.6,4.9
		c0.4,2.9,0.9,4.6-0.9,7.2c-0.7,1.1-1.9,2.1-2.9,3c2,12.3-19,45.4-26.7,56.1c-6.1,8.4-17.1,24.3-26.8,27.7c-1.1,3-2.4,3.9-5,5.7
		c14.2,0.4,28.9,1.2,43.1,0.2c12.7,0.2,49.5-3.6,58.5,4.8c2.8,2.6,4.1,6.8,4,10.6c0,1.1-0.4,1.9-0.7,2.9l-0.1,0.9l-0.8,0.3
		c-1.7-3-3.9-8.1-6.7-10c-6.2-4.2-20.2-2-27.5-1.9c-54.9,0.9-110.1-0.1-165.1-0.2l-353.4-0.8l-913.5,0.6l-349.5,0.4l-103.8,0.1
		c-20.3,0.1-42.2-1.1-62.3,1.8c-0.4-0.6-0.5-0.7-0.8-1.5c-0.9-2.8-0.5-3.7,1-6.1c9.5-4.4,50.9-1.6,63.6-1.8
		c-21.7-13.9-33.2-14.6-53.2-36.2c-22.9-24.8-35.6-61.8-34.2-95.5c1.5-33.6,15.9-64.8,40.8-87.5c26.8-24.5,58.1-32.5,93.4-31
		c-2-18.7-1.3-34.9,3.1-53.2c3-6.4,6.5-11.5,12.2-15.8l3-2.7c15.1-2.6,26.1-0.4,38.7,8.6c7.8,5.6,14.7,12.4,21.3,19.4l-0.7-233.1
		c0.3-21.4-2.8-40.8,6.9-60.8c1.5-2,3.1-4,4.7-5.9c8.3-10.1,18.5-15.4,31.4-16.6c22.8,2,46.8,0.4,69.7,0.3l140.8-0.8
		C709.6,820.7,728.4,820.9,747.2,820.6z"/>
	<path style="fill:#133069;" d="M1872.8,891.7c1.9-0.4,3.7-0.6,5.7-0.7c7.5-0.4,25.5-3.1,31,1.9c0,3.2-0.5,3.5-2.2,6.1
		c-0.7,0.3-1,0.5-1.9,0.7c-6.2,1-26.2,1.7-31.2-1.4L1872.8,891.7z"/>
	<path style="fill:#BEBAD0;" d="M800.9,1074l1-0.1c0.1,9.5,0.2,19,0.2,28.4c6.3,0,22-2.3,26.4,1.9c1.9,1.8,1.9,4.5,1.8,7.1
		c-0.1,1.8-0.2,3.6-0.3,5.3c-9.3,0.4-18.6,0.4-28,0.3c0.1,16.6,0.6,33.3-0.3,49.9C798.3,1155.9,800.8,1090.6,800.9,1074z"/>
	<path style="fill:#EB6A51;" d="M2046.9,1431.8c4.1-3.6,9.5-7.8,10.2-13.5c2.9,2.7,5.6,5.1,8.9,7.3c14.2,2.5,57.5-4.8,65.9,0.2
		c-1.1,3-2.4,3.9-5,5.7C2100.3,1432.5,2073.4,1431.7,2046.9,1431.8z"/>
	<path style="fill:#DCD9E8;" d="M801.8,1073.9c8.7-2.4,20.2-0.9,29.2-0.9c-0.1,9.8-0.5,19.8-0.1,29.5c0,4.6,0.4,9.5-0.2,14h-0.9
		c0.1-1.8,0.2-3.6,0.3-5.3c0.1-2.5,0.1-5.2-1.8-7.1c-4.3-4.2-20-1.9-26.4-1.9C802.1,1092.8,801.9,1083.4,801.8,1073.9z"/>
	<path style="fill:#DCD9E8;" d="M825.4,873.1l6.9-0.1l-2.9,1.4c-0.4,5.7,0.7,11,0.5,16.6v14.5c-9.8,0.5-19.5,0.5-29.3,0.3l-0.1-15.4
		l-0.1-17.4L825.4,873.1z"/>
	<path style="fill:#BEBAD0;" d="M800.4,890.4c9.8,0.2,19.6,0.3,29.4,0.6v14.5c-9.8,0.5-19.5,0.5-29.3,0.3L800.4,890.4z"/>
	<path style="fill:#3A4B9A;" d="M578.8,842.4c1.3-0.1,2.7-0.2,4-0.2c10-0.5,94.7-1.5,99.9,0.7c0.7,0.3,2,1.8,2.6,2.3
		c0.7,3.3-0.4,5.1-1.9,8c-3.2,0.6-6.5,0.8-9.7,0.9c-11.4,0.5-86.9,2-92.3-0.2c-0.8-0.3-2.2-2-2.8-2.6
		C577.6,847.8,577.8,845.8,578.8,842.4z"/>
	<path style="fill:#DCD9E8;" d="M830,1116.6h0.9c-1.2,17.1-0.6,34.5-0.1,51.6l-29.1-0.2v-1.2c0.9-16.6,0.4-33.3,0.3-49.9
		C811.3,1117,820.6,1117,830,1116.6z"/>
	<path style="fill:#5E60B5;" d="M802.1,1208.4c9.4,0.1,19.1,0.6,28.5,0l-0.3,77.2c-9.8,0-19.8-0.4-29.6,0.2v-77L802.1,1208.4z"/>
	<path style="fill:#28D0B9;" d="M438.4,1383.1c0.5,14.7-0.6,29.6,11.2,40.5c3.6,3.3,7.7,5.8,11.8,8.3c-22.7,0-45.8,0.8-68.4-0.2
		c-18.2-9.9-41.1-22.3-54.9-38.1C371.6,1390,404.9,1386,438.4,1383.1z"/>
	<path style="fill:#CC4480;" d="M800.7,936.1l29.3,0.2c0.1,13.7-0.6,28.1,0.5,41.7c-3.2,10.9-2,24.1-1.9,35.5
		c-0.2,6.9-0.7,12.9,2.3,19.3c0.2,13.4,0.3,26.8,0.2,40.2c-9-0.1-20.6-1.5-29.2,0.9l-1,0.1C801.1,1028,801.3,982.1,800.7,936.1z"/>
	<path style="fill:#BEBAD0;" d="M447.8,1390.4c2.2,1.7,3.5,2,6.4,2.2c11.2,0.8,23,0.1,34.3,0.1l68.8,0.1l229.8,0.3
		c-1.3,3.2-2.5,6.3-4.5,9.1c-3.1,4.4-7.2,8-12.6,8.9c-13.1,2.2-28.6,0.8-41.9,0.8l-82.4-0.1H531.6c-20.2,0-41,1.2-61.1-0.5
		c-5-0.4-9.5-2-13.4-5.1C451.4,1401.9,448.9,1397.2,447.8,1390.4z"/>
	<path style="fill:#F7A454;" d="M2087.8,1357.2c7.5,6.1,91.3-27.8,101.3-25.5c0.4,2.9,0.9,4.6-0.9,7.2c-0.7,1.1-1.9,2.1-2.9,3
		c2,12.3-19,45.4-26.7,56.1c-6.1,8.4-17.1,24.3-26.8,27.7c-8.4-5-51.7,2.3-65.9-0.2c-3.4-2.1-6.1-4.5-8.9-7.3c0.9-1,1.6-1.9,2.1-3.1
		c3.9-8.2,3.6-67.8,0.6-77.4c8.9,1.2,22.6,24.5,27.7,21.7L2087.8,1357.2z"/>
	<path style="fill:#EE8442;" d="M2087.8,1357.2c7.5,6.1,91.3-27.8,101.3-25.5c0.4,2.9,0.9,4.6-0.9,7.2c-0.7,1.1-1.9,2.1-2.9,3
		c-9.5,4.5-89.5,26.8-100.8,28.8c-2.1,12.9-11.2,45.1-18.5,54.9c-3.4-2.1-6.1-4.5-8.9-7.3c0.9-1,1.6-1.9,2.1-3.1
		c3.9-8.2,3.6-67.8,0.6-77.4c8.9,1.2,22.6,24.5,27.7,21.7L2087.8,1357.2z"/>
	<path style="fill:#F7A454;" d="M2059.6,1239.1c13.8,4.4,36,48.6,46.2,59.7l1.8,2.6c8.1,3.2,78.6-21.5,93.5-24.6
		c0.9,3.1,2,5,0.2,8.1c-0.5,0.8-0.8,1.1-1.4,1.8c3.7,8-3.6,31.3-7.1,40.1c-0.8,2-2,3.5-3.6,4.9c-10-2.3-93.8,31.6-101.3,25.5
		l-0.3,2.3c-5,2.9-18.7-20.5-27.7-21.7c2.9-7.7,2.1-25.9,0.1-34.1C2062.3,1294.8,2062.1,1248.4,2059.6,1239.1z"/>
	<path style="fill:#EB6A51;" d="M2059.8,1303.7c6.8,3.2,24.6,35.3,29.2,43.8l-0.1,2.7c0.5,3.6,0.5,3.8-1.2,7l-0.3,2.3
		c-5,2.9-18.7-20.5-27.7-21.7C2062.7,1330.1,2061.8,1311.9,2059.8,1303.7z"/>
	<path style="fill:#F8C671;" d="M2199.8,1286.7c3.7,8-3.6,31.3-7.1,40.1c-0.8,2-2,3.5-3.6,4.9c-10-2.3-93.8,31.6-101.3,25.5
		c1.7-3.2,1.7-3.4,1.2-7c0.6-0.5,1.5-1.3,2-1.9c3.8-5.1,10.6-26.7,9.5-32.9C2111,1314,2191.4,1291.5,2199.8,1286.7z"/>
	<path style="fill:#37A5E0;" d="M2010.2,892.5c5.8-0.2,11.6-0.1,16.1,4c5.6,5.1,7.1,13.9,7.2,21.1c0.2,22-0.7,44.1-0.7,66.1
		l0.1,211.1l0.1,121.4c0,21.4,0.9,43.3-0.2,64.6c-0.3,4.9-0.7,17-4.4,20.6c-3,2.9-8.3,2.9-12.2,3.1c-33,2.1-67.2,0.3-100.3,0.2
		c-38.8-0.1-78,1.3-116.7-0.1c17.1-3.2,38.1-1,55.7-1c48.5,0.1,97.6,1.9,145.9-0.2c0.2-0.1,0.4-0.3,0.6-0.4
		c4.5-3.3,8.2-6.4,9.1-12.3c0.2-0.4,0.5-0.9,0.7-1.3c1.1-2.3,2.7-274.5,0.2-281.4c-1.3-0.4-2.6-0.8-3.8-1.3
		c-3.8-1.4-4.7-2.1-6.3-5.7c3.1-0.9,5.6-2.1,7.7-4.7c7.8-9.7,6.1-55.4,4.9-68.9c-0.5-5.7-1.2-8.2-5.6-11.9c2.3-1,2.8-1.1,4.1-3.2
		l0.1-86.3c0-8.8,1.7-21.2-0.2-29.5C2012,895,2011.2,893.8,2010.2,892.5z"/>
	<path style="fill:#F5E77D;" d="M378,1109.7c15.1-2.6,26.1-0.4,38.7,8.6c7.8,5.6,14.7,12.4,21.3,19.4c0.2,23.6,0.5,47.3,0.3,70.9
		c0,4.1,0.2,8.3,0,12.3c0.5,21.6,0,43.2-0.1,64.8c-5,0.7-9,1.4-13.6,3.6c-7.1-3.4-13.7-7.7-20.4-11.8
		c-22.9-31.8-35.4-57.7-44.4-96.1c-2-18.7-1.3-34.9,3.1-53.2c3-6.4,6.5-11.5,12.2-15.8L378,1109.7z"/>
	<path style="fill:#EE8442;" d="M375,1112.4l3-2.7c17.4,23.2,38,59.2,51.9,85.3c2.7,4.6,5.4,9.2,8.4,13.6c0,4.1,0.2,8.3,0,12.3
		c-4.3-5.7-7.3-12.6-10.6-19l-4.9-10c-9.5-5.3-42.8-20.2-47.9-27.1l1.8-0.6c13.2,2.3,29,13.3,41,19.6
		C409.7,1163.7,387.6,1131.4,375,1112.4z"/>
	<path style="fill:#F6CA4F;" d="M378,1109.7c15.1-2.6,26.1-0.4,38.7,8.6c7.8,5.6,14.7,12.4,21.3,19.4c0.2,23.6,0.5,47.3,0.3,70.9
		c-3-4.4-5.6-9.1-8.4-13.6C416,1168.9,395.4,1132.9,378,1109.7z"/>
	<path style="fill:#F7A454;" d="M2074.3,1150.8c1.8,0.6,3.3,1.5,4.5,3c8.6,10.6,15.1,24.9,22.1,36.6c7.8,13.1,17.6,26.4,24,40.1
		c0.3,0.7,0.4,0.9,0.6,1.6c1-0.9,1.9-1.9,2.6-3c2.7-4.4,3.9-12.6,3-17.6c9.4-2.4,61.3-21.1,66.4-25.1c5.2,5.7,7,27.9,6.6,35.8
		c-0.1,1.2-0.2,2.3-0.4,3.5l0.2,1.4c2.2,7.1,2.1,42.3-1.4,48.1c-0.5,0.8-0.8,1.1-1.4,1.7c-14.9,3.1-85.5,27.8-93.5,24.6l-1.8-2.6
		c-10.2-11.1-32.4-55.3-46.2-59.7c2.9-7.4,2.3-22.9,0.4-30.6c3-9.3,2.5-30.9,0.3-40.4c4-1.7,4.9-3.6,6.6-7.4
		C2070,1157.8,2072.8,1155,2074.3,1150.8z"/>
	<path style="fill:#EB6A51;" d="M2074.3,1150.8c1.8,0.6,3.3,1.5,4.5,3c8.6,10.6,15.1,24.9,22.1,36.6c7.8,13.1,17.6,26.4,24,40.1
		c0.3,0.7,0.4,0.9,0.6,1.6c1.4,4.2,0.9,7.5-1,11.5c-0.3,0.5-0.6,1.1-0.9,1.6l-0.3,0.2c-6.6-3.7-37.6-70.1-56.5-84.5
		C2070,1157.8,2072.8,1155,2074.3,1150.8z"/>
	<path style="fill:#EB6A51;" d="M2060,1208.5c7.3,3.3,42,66,48.8,76.9c0,1.3,0.1,2.4-0.2,3.8c0.4,3.3,0.7,4.9-1.3,7.9
		c-0.6,0.9-0.9,1.1-1.5,1.8c-10.2-11.1-32.4-55.3-46.2-59.7C2062.5,1231.7,2061.9,1216.2,2060,1208.5z"/>
	<path style="fill:#F8C671;" d="M2131,1211.5c9.4-2.4,61.3-21.1,66.4-25.1c5.2,5.7,7,27.9,6.6,35.8c-0.1,1.2-0.2,2.3-0.4,3.5
		c-10.6,3.1-70.6,22.8-76.6,21.6c-0.1,0-2.6-1.3-2.7-1.3c-0.3-0.2-0.6-0.5-0.8-0.7c0.3-0.5,0.6-1.1,0.9-1.6c2-4,2.5-7.3,1-11.5
		c1-0.9,1.9-1.9,2.6-3C2130.6,1224.7,2131.9,1216.5,2131,1211.5z"/>
	<path style="fill:#F8C671;" d="M2203.9,1226.9c2.2,7.1,2.1,42.3-1.4,48.1c-0.5,0.8-0.8,1.1-1.4,1.7c-14.9,3.1-85.5,27.8-93.5,24.6
		l-1.8-2.6c0.7-0.7,0.9-0.9,1.5-1.8c2-3,1.7-4.5,1.3-7.9c1.1-0.9,1.8-1.5,2.6-2.8c3.1-5.1,8.1-19,6.4-24.6c29-6.9,57-18.2,86-25.5
		C2205,1234.5,2204,1229.3,2203.9,1226.9z"/>
	<path style="fill:#CAEBF9;" d="M312.8,1431.8c-21.7-13.9-33.2-14.6-53.2-36.2c-22.9-24.8-35.6-61.8-34.2-95.5
		c1.5-33.6,15.9-64.8,40.8-87.5c26.8-24.5,58.1-32.5,93.4-31c9.1,38.3,21.6,64.3,44.4,96.1c6.7,4.1,13.3,8.5,20.4,11.8
		c4.6-2.2,8.6-2.9,13.6-3.6l-0.1,12.9c0.1,20.5-0.5,41.2,0.3,61.6l0.4,6.1l-0.3,11.7l-0.1,4.9c-33.6,2.9-66.8,6.9-100.3,10.5
		c13.8,15.8,36.7,28.2,54.9,38.1C366.6,1432.9,339.3,1432.4,312.8,1431.8z"/>
	
		<linearGradient id="SVGID_1_" gradientUnits="userSpaceOnUse" x1="353.5124" y1="1303.066" x2="356.0005" y2="1440.2844" gradientTransform="matrix(1 0 0 1 0 -54)">
		<stop  offset="0" style="stop-color:#0FAF8B"/>
		<stop  offset="1" style="stop-color:#23D3B5"/>
	</linearGradient>
	<path style="fill:url(#SVGID_1_);" d="M335.8,1391.3c-13.4-11.5-25.3-28.3-35-43c-12.3-18.4-35.2-55-29.9-77.9
		c1.5-6.4,5.4-11.7,10.9-15.2c22.7-14.6,49.2-2.8,72.7,1.9l0.8,0.2l5.4,2.2c15,4.8,29.2,11.2,43.4,18.1c6.7,4.1,13.3,8.5,20.4,11.8
		c4.6-2.2,8.6-2.9,13.6-3.6l-0.1,12.9c0.1,20.5-0.5,41.2,0.3,61.6l0.4,6.1l-0.3,11.7l-0.1,4.9c-33.6,2.9-66.8,6.9-100.3,10.5
		L335.8,1391.3z"/>
	<path style="fill:#115BB4;" d="M355.3,1257.2l5.4,2.2c3.4,16.2,8.6,34,9.9,50.5c-1.5,1.5-2.4,2.9-4.5,3.6
		C366.2,1299.3,357.5,1273.5,355.3,1257.2z"/>
	<path style="fill:#283580;" d="M335.8,1391.3c8.6-8.1,87.3-12.1,102.7-13.2l-0.1,4.9c-33.6,2.9-66.8,6.9-100.3,10.5L335.8,1391.3z"
		/>
	<path style="fill:#133069;" d="M324.7,1295.1c-11.6-6.5-26.6-13.5-35.2-23.9l2.1-1c14.1,5.5,27.6,15,40.5,23.1
		c11.8,5.5,23,13.3,34,20.2c2.1-0.7,3-2,4.5-3.6c1,4.9,1.7,7.6,6,10.6c0.5,0.3,1,0.6,1.4,0.9c1.6,2,3.1,3.8,4.1,6.2l-1.5,1.3
		C361.6,1318.5,343.2,1306.5,324.7,1295.1z"/>
	<path style="fill:#18AB79;" d="M360.7,1259.5c15,4.8,29.2,11.2,43.4,18.1c6.7,4.1,13.3,8.5,20.4,11.8c4.6-2.2,8.6-2.9,13.6-3.6
		l-0.1,12.9c0.1,20.5-0.5,41.2,0.3,61.6l0.4,6.1c-19.1-12.8-39.5-24.1-58.1-37.5l1.5-1.3c-1.1-2.4-2.5-4.2-4.1-6.2
		c-0.5-0.3-1-0.6-1.4-0.9c-4.3-3-5.1-5.7-6-10.6C369.4,1293.5,364.1,1275.7,360.7,1259.5z"/>
	<path style="fill:#F6CA4F;" d="M424.5,1289.4c4.6-2.2,8.6-2.9,13.6-3.6l-0.1,12.9L424.5,1289.4z"/>
	<path style="fill:#283580;" d="M378.1,1321.4c19.6,11.8,43.5,23.5,60.4,38.9l0.4,6.1c-19.1-12.8-39.5-24.1-58.1-37.5l1.5-1.3
		C381.1,1325.3,379.7,1323.5,378.1,1321.4z"/>
	<path style="fill:#6D6FC6;" d="M1151,1287.5c1.6-1.3,2.6-1.8,4.6-1.9c30.2-2.3,67.7-0.3,98.6-0.4c29.6,0,66.7-2.2,95.6,0.2l1.6,1.2
		c3.3,12.6,6.1,25.5,10.2,37.9c6.4,25.7,13.1,51.6,20.8,76.9c1.3,1.9,1.2,2.3,3.4,2.7c19.1,3.4,89.8-7.5,99.4,7.5
		c2,3.1,1.9,7.3,0.9,10.8c-0.8,2.6-2.6,5-4.2,7.2c-10.1,2.2-24.3,0.6-34.8,0.6l-76.7-0.1l-309.3,0.2l-206.8,0.1l-51.3-0.2
		c-9.3,0-19.6,1.2-28.8-0.2l0.6-1.1c18.4,0.9,37,0.3,55.4,0.3l191.7,0.2c-0.9-1.1-1.7-2.1-2.5-3.2c-2.5-3.6-4.4-8.4-3.3-12.8
		c5.2-20.6,91.5-2.5,104.5-11c7.9-26.1,14.4-52.7,20.7-79.2L1151,1287.5z"/>
	<path style="fill:#3A4B9A;" d="M1151,1287.5c1.6-1.3,2.6-1.8,4.6-1.9c30.2-2.3,67.7-0.3,98.6-0.4c29.6,0,66.7-2.2,95.6,0.2l1.6,1.2
		c3.3,12.6,6.1,25.5,10.2,37.9c-24.7-0.1-212,2-220.1-1.2L1151,1287.5z"/>
	<path style="fill:#CAEBF9;" d="M830.4,1285.6l225.6-0.1c15.5,0,85.3-2,94.5,1.1l0.6,1l-9.6,35.9c-6.3,26.5-12.9,53.1-20.7,79.2
		c-13,8.5-99.3-9.7-104.5,11c-1.1,4.4,0.8,9.2,3.3,12.8c0.8,1.1,1.6,2.2,2.5,3.2l-191.7-0.2c-18.4,0.1-37,0.7-55.4-0.3
		c4.6-2.6,9-5.2,12.7-9c6.5-6.6,10.5-15.2,12.4-24.2c2.7-13,1.2-28.4,1.2-41.7l-0.3-68.5C810.5,1285.2,820.6,1285.6,830.4,1285.6z"
		/>
	<path style="fill:#A3D7E8;" d="M830.4,1285.6l225.6-0.1c15.5,0,85.3-2,94.5,1.1c-37.1,1.2-74.6,0-111.8,0H830.2v142.8
		c-18.4,0.1-37,0.7-55.4-0.3c4.6-2.6,9-5.2,12.7-9c6.5-6.6,10.5-15.2,12.4-24.2c2.7-13,1.2-28.4,1.2-41.7l-0.3-68.5
		C810.5,1285.2,820.6,1285.6,830.4,1285.6z"/>
	<path style="fill:#CAEBF9;" d="M1351.3,1286.7c7.3-2.5,354.7-1.8,370.8,0.1c8.7,13.2-4.8,106.2,5.3,129.9c2.6,6.3,8.6,8.9,13,13.4
		c-25.7,0.6-51.4-0.2-77.1-0.3l-181.4-0.1c1.6-2.2,3.4-4.6,4.2-7.2c1.1-3.4,1.1-7.6-0.9-10.8c-9.6-14.9-80.3-4-99.4-7.5
		c-2.3-0.4-2.1-0.8-3.4-2.7c-7.7-25.3-14.4-51.3-20.8-76.9C1357.4,1312.2,1354.6,1299.3,1351.3,1286.7z"/>
	<path style="fill:#6D6FC6;" d="M830.7,1168.2c84,1.4,168.2,0.4,252.2,0.5l406.7,0.5l171.5-0.2c13.7,0,49.3,1.9,61-0.8
		c5.3,7.2,3.3,26.2,2.1,34.7c-0.3,2.1-1,3.8-2.2,5.6c3.7,5.5,3.6,66,1.6,74.4c-0.4,1.5-0.9,2.5-1.6,3.8
		c-16.1-1.8-363.5-2.6-370.8-0.1l-1.6-1.2c-28.8-2.4-65.9-0.3-95.6-0.2c-30.9,0-68.4-1.9-98.6,0.4c-2,0.2-3,0.7-4.6,1.9l-0.6-1
		c-9.1-3.1-79-1.1-94.5-1.1l-225.6,0.1l0.3-77.2c-9.4,0.6-19.1,0.1-28.5,0c7.8-2.6,19.8-1,28.1-0.9L830.7,1168.2z"/>
	<path style="fill:#FDFDFD;" d="M1243,1209.2c6.3-1.5,11-1.7,17.4-0.6c6.9,4.4,13.2,9.8,14.8,18.3c1.1,5.7-0.7,11.6-4.1,16.2
		c-4.2,5.6-10.4,9.3-17.3,10.1c-5.7,0.6-11.5-0.9-15.8-4.8c-4.8-4.3-7.3-11.6-7.6-17.9c-0.2-5.9,2.2-11.8,6.3-15.9
		C1238.7,1212.5,1240.9,1210.8,1243,1209.2z"/>
	<path style="fill:#3A4B9A;" d="M830.7,1168.2c84,1.4,168.2,0.4,252.2,0.5l406.7,0.5l171.5-0.2c13.7,0,49.3,1.9,61-0.8
		c5.3,7.2,3.3,26.2,2.1,34.7c-0.3,2.1-1,3.8-2.2,5.6c-13.1-2.3-29.6-0.4-42.9-0.4l-99.6,0.2l-202.6-0.2c-38.8,0-77.8-0.7-116.6,0.3
		c-6.4-1.1-11.1-0.9-17.4,0.6c-16.1-2.1-33.8-0.9-50.1-1h-94.2l-171.5,0.1c-32.1,0-64.3-0.6-96.4,0.3c-9.4,0.6-19.1,0.1-28.5,0
		c7.8-2.6,19.8-1,28.1-0.9L830.7,1168.2z"/>
	<path style="fill:#57BCEB;" d="M1799.4,1404.6c-14.6,0.2-30.3,1.5-44.8,0.1c-5.7-0.5-12-2.3-15.6-7c-2.4-3.2-3.3-7.3-3.5-11.2
		c-0.7-20.6,0.7-41.7,0.5-62.4l0.4-230.4l-0.9-126c-0.1-21.3-2.1-45.3,1.7-66.3c0.5-2.6,1.1-4.2,3.3-5.6c10-6.4,50.3-6.8,62.2-3.7
		c7.9,2.1,8.8,10.3,12.8,16.1c2.5,3.7,7.1,5.2,11.4,5.7c17.7,1.9,37.3,0.4,55.2,0.4c24.3,0,49.9,1.7,74-0.5c2.9-0.3,6.2-0.7,8.4-2.7
		c4.8-4.3,8.5-12.3,9-18.6c12.3-0.2,24.5-0.3,36.7,0c1,1.3,1.8,2.5,2.1,4.1c1.9,8.3,0.2,20.7,0.2,29.5l-0.1,86.3
		c-1.3,2.1-1.8,2.1-4.1,3.2c4.4,3.7,5.1,6.2,5.6,11.9c1.2,13.5,2.8,59.2-4.9,68.9c-2.1,2.6-4.5,3.8-7.7,4.7c1.6,3.5,2.5,4.3,6.3,5.7
		c1.3,0.5,2.6,0.9,3.8,1.3c2.5,6.9,0.9,279.1-0.2,281.4c-0.2,0.4-0.5,0.9-0.7,1.3c-0.9,5.8-4.6,9-9.1,12.3c-0.2,0.1-0.4,0.3-0.6,0.4
		c-48.4,2.1-97.5,0.2-145.9,0.2C1837.5,1403.6,1816.4,1401.3,1799.4,1404.6z"/>
	<path style="fill:#FDFDFD;" d="M1875.2,1159c10.4-1.4,67.5-2.4,75.3,0.3l0.5,2.1l-2.7,3.7c-8.9,2.3-58.3,0.8-69.4,0
		C1875.7,1163.1,1876.1,1162.5,1875.2,1159z"/>
	<path style="fill:#FDFDFD;" d="M1877.1,1210.3c11.7-1.1,61.9-2.6,71.1,0.3c1.9,0.6,1.8,0.8,2.7,2.5l-1.9,3.3
		c-1.1,0.6-1.9,0.7-3.1,0.9c-8.5,0.8-64.3,1.6-68.3-1.6L1877.1,1210.3z"/>
	<path style="fill:#FDFDFD;" d="M1954.3,1184.6c11.2-0.2,34.8-3.4,44.2,1.9c0,1.5,0.3,1.9-0.8,3c-1.6,1.6-4.1,2.7-6.4,3
		c-7.2,0.9-15.4,0-22.7,0H1917c-11.9,0-27.8,2-39.2-0.7c-0.7-2.7-0.8-2.7,0.4-5.3C1883.1,1183.8,1943.5,1184.8,1954.3,1184.6z"/>
	<path style="fill:#2971C9;" d="M1851.3,1142.5c3.2,1,5.1,1.8,7.4,4.3c3.2,9.8,2.5,70.7-1.8,79.4c-1.1,2.3-2.7,2.7-5.1,3.3
		c-7.4,1.6-71.6,1.6-75.9-0.7c-1.6-0.9-2.9-2.6-4.1-4c19.2-2.1,59.5,2.9,75.1-2.7c1.3-0.5,3.6-1.4,4.2-2.8
		C1854.2,1212.2,1853.9,1149.4,1851.3,1142.5z"/>
	<path style="fill:#3A4B9A;" d="M1835.6,1339.7c12.8-1.3,93.7-2.2,99.9,0.9c3.6,1.8,6,4.8,7.1,8.7c1.4,5.2,0.4,10.8-2.4,15.3
		c-2,3.3-4.7,4-8.2,4.9c-20.1,0.3-40.3,0.2-60.5,0.3c-11.1,0-23.2,0.9-34.1-0.4c-3.3-0.4-6.3-2.5-8.3-5.3c-2.8-4-2.9-11.4-1.6-16
		C1828.8,1343.7,1831.7,1341.8,1835.6,1339.7z"/>
	<path style="fill:#FFB9BB;" d="M1886,1348.2c2.5-0.1,5-0.1,7.6,0c4.9,0.1,8.4,0.6,12.1,4.2l-0.6,1.9c-7.3,5.8-14.9,4.6-23.6,4.3
		c-2.4,0.1-4.9,0.2-7.4,0.2c-3.3-0.1-5.5-0.8-7.8-3.1l0.2-2.5C1873,1347.5,1877.9,1348.2,1886,1348.2z"/>
	<path style="fill:#F57397;" d="M1771.8,1224.8l-3.5-2.8c-3.5-7.9-2.6-70.3,0-79.4c0.5-1.9,0.8-3.6,2.7-4.5
		c6.6-3.2,69.1-2.7,76.5,0.2c2.7,1.1,2.7,1.6,3.8,4.3c2.6,6.9,2.9,69.7-0.2,76.7c-0.6,1.4-2.9,2.3-4.2,2.8
		C1831.3,1227.7,1791.1,1222.7,1771.8,1224.8z"/>
	<path style="fill:#F8C671;" d="M1793,1160.2c0.7-0.1,1.3-0.2,2-0.2c9.6-0.6,32.6-3.3,39.8,2.8c3.5,8.2,3.6,24.8,0.7,33.3
		c-1.3,3.8-3.3,4.1-6.7,5.6l-1.1,1c-9.5,0.6-25,3.9-33.2-1.8c-3.3-2.3-4.8-6.1-5.4-9.9C1788,1184.4,1789.3,1165.2,1793,1160.2z"/>
	<path style="fill:#FDFDFD;" d="M2001.4,1101.1h-136c-17.8,0-78.9,2.9-93-1.4c-2.5-0.8-4-2.2-5.1-4.6c-3.4-7.1-3.3-70.8-0.5-79.2
		c4.2-4.1,12.5-4.6,18.1-4.8c12.9-0.5,26.1,0.4,39,0.5l93.9,0.4c24.5,0.1,60.1-2.6,82.7,0c3.4,0.4,5.3,1.3,7.8,3.6
		c4.4,3.7,5.1,6.2,5.6,11.9c1.2,13.5,2.8,59.2-4.9,68.9C2007,1099,2004.5,1100.2,2001.4,1101.1z"/>
	<path style="fill:#F8C671;" d="M1797.1,1053.5c2.1-1.8,4.1-3.6,6.1-5.4c4.9-1.7,10,0.2,15.1,0.7c0.9,3.4,1,5.2-0.3,8.5
		c-2.1,1.9-3.6,2.8-6.5,2.7c-4.1-0.1-7.1-0.6-10.3-3.2C1799.7,1055.6,1798.4,1054.6,1797.1,1053.5z"/>
	<path style="fill:#3A4B9A;" d="M1853.6,1041.8c7.8-0.9,42.5-2.5,48,1.5v2.5l-2.8,2.1c-0.9,0.3-1.7,0.4-2.6,0.4
		c-8.7,0.4-36.6,3.3-43-2.6L1853.6,1041.8z"/>
	<path style="fill:#3A4B9A;" d="M1797.1,1053.5c-2.1-1.8-3.2-3.9-3.5-6.7c-0.4-3.4,0.6-6.5,2.7-9.1c3.3-3.9,9-6.3,14.1-6.4
		c3.2,0,6.4,1,8.6,3.5c2,2.2,3.4,6.5,3,9.5c-0.4,2.6-1.7,3.1-3.7,4.5c-5-0.5-10.2-2.4-15.1-0.7
		C1801.2,1049.9,1799.2,1051.7,1797.1,1053.5z"/>
	<path style="fill:#CC4480;" d="M1793,1061.3c3.2,0.7,4.5,3.4,8.3,4.4c5.8,1.6,10.7,3.6,16.3,0.3c2-1.2,4-2.4,6-3.6
		c1.9,0.5,2.2,0.2,3.2,2c2.4,4.2,3.2,10,1.8,14.5c-0.2,0.2-0.5,0.4-0.7,0.5c-4.8,2.5-33.6,0.5-39.8-0.6
		C1786.5,1072.5,1790,1066.9,1793,1061.3z"/>
	<path style="fill:#3A4B9A;" d="M1853.1,1063.8c11.2-1.8,96.8-2.2,101.3,0.2c1.4,0.8,1.2,1.2,1.6,2.7l-3.1,2.8
		c-8,2.7-83.1,1.3-97.1,0.6C1853.1,1068.1,1853.6,1067,1853.1,1063.8z"/>
	<path style="fill:#FDFDFD;" d="M706.7,832.7c20.6-0.3,55.2-5.9,71.4,9.6c9.4,8.9,9.6,23.1,9.7,35.3v326.5l-0.1,119.7
		c0,23,0.6,46.2-0.6,69.2l-229.8-0.3l-68.8-0.1c-11.3,0-23,0.6-34.3-0.1c-2.9-0.2-4.1-0.4-6.4-2.2c1.4-46.9,0.3-94,0.2-140.9
		l0.2-240.2V920c-0.1-19-1.8-39.7,1-58.5c1.1-7.7,5.2-14.3,10.9-19.6c13.9-12.9,46.9-10.4,65.3-9.4c3.5,0.2,6.7,0.5,9.9,1.9
		c9.9,13.1,1.3,29.8,23.8,32.8c16.4,2.1,34.7,0.4,51.3,0.4c22.5,0.1,46.8,2,69.2-0.2c5.7-0.6,12.3-1.8,17-5.3
		C705.6,855.2,705.4,842.9,706.7,832.7z"/>
	<path style="fill:#6D6FC6;" d="M578.8,936.3c28.4-0.1,56.8-0.7,85.2-0.2c4.5,0.1,6.9-0.2,10.1,3.1c1,3.4-0.3,6-1.5,9.2
		c-12,0.6-85.5,2-92-0.4c-0.7-0.3-2.1-1.8-2.8-2.3C576.7,942.2,577.8,939.6,578.8,936.3z"/>
	<path style="fill:#6D6FC6;" d="M577.9,958.2c18.1-0.5,165.5-1.7,172.4,0.4c0.8,0.2,2.1,1.5,2.9,2c1.4,3.6,0.9,5.7,0,9.4
		c-8.1,1.5-169.3,1.5-172.7,0.1c-0.8-0.3-1.4-0.9-2.1-1.4C576.8,965.2,577.5,961.8,577.9,958.2z"/>
	<path style="fill:#283580;" d="M518.1,926.7c6.1-0.3,12.2,0.4,17.8,3c7.7,3.5,13.7,9.8,16.5,17.8c3,8.2,2.4,17.6-1.5,25.4
		c-4.9,9.7-12.5,13.9-22.5,17.3c-7.5,0.5-14.1,0-20.7-3.7c-7.6-4.3-13.1-11.3-15.3-19.8c-2.2-8.3-1-17.4,3.4-24.8
		C501,933.1,508.6,929.1,518.1,926.7z"/>
	<path style="fill:#F7A454;" d="M521.2,938.8c2.5,0.3,5,0.6,7.4,1.5c5.2,1.9,9.7,6.1,11.8,11.2c2,4.8,1.9,10.2-0.3,14.9
		c-3.1,6.4-8.3,9-14.6,11.3c-2.5-0.1-4.8-0.5-7.2-1.3c-5.2-1.8-9.7-5.6-11.9-10.7c-2.2-5-2-10.4,0.1-15.4
		C509.4,943.8,515,941.2,521.2,938.8z"/>
	<path style="fill:#F5E77D;" d="M522.1,947c2.9,0.6,5.8,1.1,8.2,3.1c1.8,1.5,3,3.9,3.1,6.3c0.1,5.4-2.9,8.5-6.4,12.1
		c-3.4-0.3-6.1-0.9-8.6-3.4c-2-2-2.8-4.5-2.7-7.4C515.9,952.6,518.6,950.1,522.1,947z"/>
	<path style="fill:#F8C671;" d="M485,1147.6c26.8-0.5,266.3-2,271,1.2c1.4,3.4,1.9,6.6,2.1,10.2c0.6,10.3-0.4,20.8-0.4,31.2
		c0,11.7,1.9,24.4-0.1,36c-0.5,2.8-1.9,4.6-3.8,6.7c-63.7-1-127.5-0.2-191.2-0.4c-24.4-0.1-53.3,2.1-77-0.6
		c-2.4-2.8-2.8-7.1-3.2-10.7C481.4,1210.8,480,1153.9,485,1147.6z"/>
	<path style="fill:#FDFDFD;" d="M573.3,1200.4c16.4-0.5,105.1-2.6,114.5,1.3c0.7,2.9,0.2,3.4-1,6.1c-24.2,0.4-48.4,0.2-72.6,0.1
		c-13.2,0-27.8,1.2-40.8-1l-1.3-2.1L573.3,1200.4z"/>
	<path style="fill:#FDFDFD;" d="M571,1177.1c13.6-1.5,136.8-2.6,141.8,0.4c1.3,0.8,1.7,3.9,2.1,5.4c-14.7,1.4-134.5,2.3-140.8-0.4
		C572.2,1181.7,571.7,1179,571,1177.1z"/>
	<path style="fill:#FDFDFD;" d="M521.6,1169.6c2.9,0.3,6.1,0.8,8.9,1.6c5.4,1.7,10.7,6.4,13.2,11.5c2.8,5.7,2.6,12.2,0.2,18
		c-3.4,7.9-9.2,11.1-16.7,14.3c-4.1-0.2-8.4-0.3-12.2-2.1c-5.6-2.7-10.2-7.8-12.1-13.8c-1.9-5.9-1.3-12.5,1.8-17.9
		C508.6,1174.3,514.3,1171.4,521.6,1169.6z"/>
	<path style="fill:#37A5E0;" d="M485.6,1267.4c57.9-0.9,115.9,0,173.8-0.1c30.9,0,66.5-2.8,96.8,0.8c0.8,1.6,1.1,2.6,1.4,4.4
		c1.1,8.2,1.1,69.1-0.1,76.5c-0.5,2.7-1.6,3.8-3.2,5.9c-23.8,0-266.2,1.1-268.8-1.1c-2.4-2.2-3.1-6.9-3.4-10
		c-0.7-7.1-0.9-69.4,0.6-72.8C483.3,1269.8,484.8,1268.4,485.6,1267.4z"/>
	<path style="fill:#FDFDFD;" d="M617.4,1321.3c12.8-0.2,62.5-2.7,70.8,1l0.7,2.1l-1.4,2.1c-10.6,5.2-31.4,2.6-43.4,2.5
		c-12.4,0-64.4,3.4-72.4-2.8c0.3-1.2,0.1-1.2,1-1.9C579.4,1318.9,607.5,1321.5,617.4,1321.3z"/>
	<path style="fill:#FDFDFD;" d="M584,1298.2l77-0.2c15.6-0.1,33-1.8,48.4,0.7c2.4,0.4,4.3,0.4,5.7,2.5c-1,0.7-2,1.4-3,2.1
		c-3.5,2.6-6.9,2.2-11.1,2.2c-17.4,0.1-120.5,2.9-128.4-2.3l0.3-2.1C577.1,1298.2,579.1,1298.4,584,1298.2z"/>
	<path style="fill:#FDFDFD;" d="M521.5,1289.1c3.1,0,6.9,0.5,9.8,1.6c5.4,2.1,9.9,6.2,12.3,11.5c2.7,5.8,2.6,12.4,0.1,18.2
		c-3.3,7.7-9.1,10.6-16.5,13.4c-4.2-0.2-8.5-0.3-12.3-2.1c-5-2.3-8.8-6.8-10.6-11.9c-2.2-6.1-1.6-12.7,1.2-18.4
		C509,1294.3,514.3,1291.4,521.5,1289.1z"/>
	
		<linearGradient id="SVGID_00000179626326511366313080000003707134605691274642_" gradientUnits="userSpaceOnUse" x1="497.627" y1="1072.3448" x2="749.1207" y2="1177.4315" gradientTransform="matrix(1 0 0 1 0 -54)">
		<stop  offset="0" style="stop-color:#4CD1C7"/>
		<stop  offset="1" style="stop-color:#46AAF3"/>
	</linearGradient>
	<path style="fill:url(#SVGID_00000179626326511366313080000003707134605691274642_);" d="M529.2,1026.6l150.5-0.2
		c25.2,0,52.4-2.3,77.3,1.2c2.7,4.1,3.2,73.5,1.8,80.6c-0.4,1.9-1.2,3.6-2.2,5.3c-5.6,2.6-232.9,2.3-257.9,1c-5-0.3-9.6-1-14.4-2.6
		c-4.8-5.2-2.2-41.6-2.1-50.5c-0.2-8.2-2.8-26.2,3.3-32.4C491.1,1023.4,520.6,1026.6,529.2,1026.6z"/>
	<path style="fill:#FDFDFD;" d="M572.5,1081.9c11.5-0.6,111.1-1.9,114.7,0.9c1.5,1.1,1.4,4.2,1.7,6l-73,0.2
		c-13.8,0-28.2,0.9-41.9-0.6C571.8,1085.8,572.4,1085.2,572.5,1081.9z"/>
	<path style="fill:#FDFDFD;" d="M571.1,1058.7c15.1-1.1,134-2.5,141.1,0.1c1.8,0.7,2.3,2.7,3.1,4.4c-0.4,0.2-0.8,0.4-1.2,0.6
		c-4.9,2.1-137.5,1.7-141.4-0.1L571.1,1058.7z"/>
	<path style="fill:#FDFDFD;" d="M504,1075.5c1.5-6.8,3.4-14.4,9.4-18.8c5.7-4.2,12.5-3.4,19-2.4c5.6,4,9.7,7.8,10.9,15
		c0.9,5.9-0.8,11.9-4.7,16.4c-3.4,4.1-8.6,6.9-14,7c-5.7,0.1-10.4-2.4-14.3-6.4C507.3,1083.3,505.6,1079.3,504,1075.5z"/>
	<path style="fill:#4BD697;" d="M482.2,1061.4c-0.2-8.2-2.8-26.2,3.3-32.4c5.6-5.6,35.1-2.4,43.6-2.5l3.4,2.6l-0.6,1
		c-3.6-0.8-7.5-2.2-10.9-0.6c-1.2,6.8,6.6,8.6,2.6,17.1l0.2,1.4l-1,1c1,0.5,3.8,0,4.9-0.3c2-0.6,4.2-2.2,6-3.3
		c0.3,3.2-0.5,5.6-1.4,8.7c-6.6-1-13.3-1.8-19,2.4c-6,4.4-7.9,11.9-9.4,18.8c-0.9-1.5-1.1-3.3-1.5-5c0.7-2.3,1.3-4.2,1.3-6.7
		c-5.2-4.5-12.3-5.5-18-10.2l-1.2-1c0,6.9-0.1,13.8-0.4,20.7L482.2,1061.4z"/>
	<path style="fill:#CAEBF9;" d="M658.7,283.1c10-16.5,21-31.2,35.5-44.1c33.5-29.9,77.5-45.3,122.3-42.7
		c46.7,2.7,88.3,24.8,119.1,59.5c-8.1,7.9-12.7,15.2-14.8,26.4c-0.3,6.3-0.9,14.2,2.3,19.8c2.6,7.6,6.7,13.4,11.9,19.4
		c5.7,3.9,11.3,7.9,18.3,9c11.6,1.8,24.4,0.8,36.1,0.7l60.2-0.3l220.1,0.2c1.1,7.5,4,13.5,6.8,20.4h1.1
		c6.3,13.2,19.2,24.3,32.4,30.3c16.8,7.7,36.7,8.1,53.9,1.4c10.4-4.1,19.8-10.8,27.4-19c25.4-27.4,15.9-57.1,29.5-88.1
		c12.4-28.2,34.7-50.6,63.6-61.6c28.1-10.7,58.3-10.1,85.7,2.3c32.2,14.6,48.2,39.7,60.1,71.6l17.2-0.1c-0.1-15.9-0.8-32.1,0.3-48
		c0-0.8,0-1.7,0-2.5c0-5.7,0.8-12,5.2-16c2.9-2.6,6.6-3.8,10.4-4.2c11.4-1.1,23.7-0.2,35.2-0.2h68l105.2-0.1
		c19.4,0,39.1-0.6,58.4,0.3c7.1,0,14.4,0.3,19.7,5.9c2.5,2.7,4,5.5,4.5,9.2c2.9,20.5,0.7,43.7,0.7,64.5c0,27.2,1.6,55.4-0.3,82.5
		c-0.1,2.1-0.3,4-1.1,6.1c18.4,5.4,48.3,25.5,60,40.9l0.6-0.5c1.9-1.6,4.4-5.3,6.3-6.4c3.4-2,11.8-2.7,15.7-2.4
		c7.1,0.4,13.4,3.5,17.9,9.2c3.3,4.2,8,16.8,7,22.1c-0.1,0.4-0.1,0.7-0.2,1.1c4.1,1.3,8.4,2.3,12.2,4.5c8-3.4,14.3-9.5,22.3-13
		c5.1,7.8,5.1,22.1,2.9,30.9c-0.5,2-1.3,3.6-2.4,5.3c3.8,2.9,7.6,6.5,8.9,11.2c2.6-1.6,4-2.3,7.1-2.4c3.7,3.4,7.2,10,7.1,15.1
		c0,1-0.1,1.1-0.3,1.9c6.3,5,15.3,1,20.4,4.8c3.6,0.6,6.4,1.2,8.7,4.3c4.6,6.2,3.8,17.6,2.4,24.9c-0.2,1.3-0.7,2.3-1.3,3.5
		c0.2,0.2,0.3,0.4,0.5,0.6c6.4,7.2,30.7,10.6,40.7,15.7c78.3,39.3,125,115.7,122.7,203.5c-1.5,56.3-27.4,112.3-68.2,150.7
		c-37.6,35.3-89.7,57.5-141.6,55.8c-14.2-0.5-28.4-4.6-42.3-4.8c4.5-8.5,1.9-28.4,2-38.3c0.1-14.1-0.2-28.7-10.9-39.3
		c-4.9-4.9-11.3-7.9-18.1-9.3c-13.1-2.7-28-1.1-41.4-1l-73.9,0.2l-1.5,0.9c-16.1,0.7-137.6,1.8-145-0.8l-1.1-0.3
		c-5.3,0.6-10.6,0.2-15.9,0c-9,0.6-18.9,1.4-25.1,9c-9.9,12-2,32-7,45.8c3.2,6.1,2.7,129,1.3,145.5c0.9,10,3.4,34.4-1.7,42.7
		c4.5,6.6,3.4,38,2,46.8c-0.3,1.6-1,3-1.9,4.3c-11.8,2.8-47.3,0.8-61,0.8l-171.5,0.2l-406.7-0.5c-84,0-168.2,0.9-252.2-0.5
		c-0.5-17.1-1.1-34.5,0.1-51.6c0.5-4.5,0.2-9.5,0.2-14c-0.5-9.8,0-19.7,0.1-29.5c0.2-13.4,0.1-26.8-0.2-40.2
		c-3-6.4-2.5-12.4-2.3-19.3c-0.1-11.4-1.3-24.5,1.9-35.5c-1.1-13.6-0.4-28-0.5-41.7l-29.3-0.2l-0.2-30.3c9.8,0.2,19.5,0.2,29.3-0.3
		v-14.5c0.2-5.6-0.9-10.9-0.5-16.6l2.9-1.4l-6.9,0.1l-25-0.1c-0.7-10.3-3.1-18.9-6.8-28.5c-2.1-2.8-4.2-5.6-6.6-8.2
		c-11.2-11.7-24-15.4-39.7-15.8c-18.8,0.3-37.6,0.2-56.5,0.2l-140.8,0.8c-22.9,0.1-47,1.7-69.7-0.3c-12.9,1.2-23.1,6.5-31.4,16.6
		c-1.6,1.9-3.2,3.9-4.7,5.9c-13.9-0.3-27.4-1.3-41-4.1c-49.9-10.6-94-43.2-121.5-85.8c-30.4-47.1-41.5-104.6-29.6-159.4
		c12.2-56.2,47.8-104.8,96.1-135.6c45.8-29.5,101.1-41,155.2-33.4c14.5,2.1,28.8,6.4,43.1,9.5l0.2-85.4c-0.1-16.5-1.5-34.3,0.5-50.5
		c0.5-3.9,1.2-7.9,4.1-10.8c4.9-4.9,12.1-4.4,18.5-4.5C577.8,281.1,645.3,283.1,658.7,283.1z"/>
	<path style="fill:#CC4480;" d="M354.4,631.4l6.5-0.2c6.8,0.5,15.7-0.8,21.9,1.8c1.6,2.7,1.2,3.6,1,6.6c-8.7-0.5-17.5,1.3-26.1-1
		C354.5,636.2,355,635.3,354.4,631.4z"/>
	<path style="fill:#A01E6D;" d="M470.1,704.3c11.6-4.6,21.9-13.2,32.8-19.2l1.7,4.1c-4.6,8.1-20.7,16.1-28.7,20.9
		C473.1,709.4,471.8,706.6,470.1,704.3z"/>
	<path style="fill:#ADCDE5;" d="M938,431.3c2.5,2.7,3.8,3.5,3.5,7.4c-0.5,5.9-10.4,14.2-15,17.6c-3.2,2.3-10.1,7.7-14.3,7.1
		c-3.9-0.6-5-2.3-7.7-4.9c5,1,8.4,1.8,12.9-0.9c0.6-2.1,1.2-4.1,2.1-6.1c3-6.9,8.5-7.6,14.9-10C937.1,438.4,937.4,435.3,938,431.3z"
		/>
	<path style="fill:#A3D7E8;" d="M499.6,561.3l14.3,8.4c-4.3,6.8-8.7,13.6-12.9,20.5l-3.6-6.8l-6.3-8.9
		C494,570.1,496.8,565.6,499.6,561.3z"/>
	<path style="fill:#CC4480;" d="M427,684.9c2.2,1.6,2.8,1.5,3.4,4.3c-4.8,5.4-8.9,16.5-12.2,23.1c-9.6-5.5-26.5-12.7-33.1-21.5
		l1-3.8c7.9,3.3,17.2,10.9,23.7,16.6C416,698.1,423,692.4,427,684.9z"/>
	<path style="fill:#F15084;" d="M490.7,671c3.4,4.1,7.8,11.4,12.3,14c-10.9,6.1-21.2,14.7-32.8,19.2c-3.2-5.1-6.6-10-9.9-15
		C471.7,685.5,481.4,678.8,490.7,671z"/>
	<path style="fill:#F8C671;" d="M1521.6,275.4c9.2,2.4,22.4,20,29.3,27.4c-9.3,8.8-18.2,18.1-27.3,27.1c-8-2-22.5-20.7-28.9-27.3
		C1503.5,293.2,1512.6,284.3,1521.6,275.4z"/>
	<path style="fill:#DCD9E8;" d="M1522.4,291.3c3.4,1.2,7.1,3.1,9.2,6.2c1.4,2.2,1.7,4.4,1.1,6.9c-1.4,5.3-5.6,7.4-10,9.9
		c-3.4-1.6-7-3.4-9.1-6.7c-1.4-2.3-1.6-4.4-0.9-6.9C1513.8,296.1,1518.6,293.7,1522.4,291.3z"/>
	<path style="fill:#F8C671;" d="M1974.4,704.9c2.5-0.4,4.3-1.1,6.7,0.1c6.4,3.2,21.5,18.5,23.5,25.3c-0.1,0.6-0.2,1.5-0.5,2.2
		c-2.6,6.3-19.1,21.9-25.4,24.9h-0.3c-7.3-2.2-22.6-20.6-26.7-26.8c-0.1-8.5,17.4-16.9,21.9-24.3
		C1973.9,705.8,1974.2,705.4,1974.4,704.9z"/>
	<path style="fill:#DCD9E8;" d="M1975.1,719.6c3.7-0.1,4.7-0.4,7.8,2c3.1,2.4,5.1,5.7,5.8,9.5c-1.8,5.5-5.1,8.1-10.1,10.8
		c-5.1-0.1-11.3-8.5-15.5-11.6C1967.6,727.8,1972.3,723.9,1975.1,719.6z"/>
	<path style="fill:#F7A454;" d="M904.6,458.6c-1.8-3.5-2.4-7.2-4-10.7c-2.2-4.9-8-3.6-12.2-5.7c-2.4-1.2-3.5-3.9-4-6.4
		c-2.4-12,8.5-10,13.3-17.1c0.5-0.7,0.9-1.4,1.4-2.1c3.8-5.3,6.3-9.7,13.1-10.8c6.5,2.4,8.7,8.4,11.6,14.2c6,2.9,10.5,5.4,14.1,11.4
		c-0.6,4-0.9,7-3.5,10.2c-6.4,2.4-11.8,3.1-14.9,10c-0.9,2-1.5,4-2.1,6.1C913,460.3,909.6,459.6,904.6,458.6z"/>
	<path style="fill:#F5E77D;" d="M909.2,414.2c0.4,0.1,0.7,0.3,1.1,0.4c3,1.4,4.4,3.8,5.4,6.8c0.2,0.5,0.7,2.1,1,2.6
		c1.7,3.4,7.6,3.8,11.1,4.9c1.6,2.4,1.6,2.4,1.4,5.3c-3.2,2.4-6,3.5-9.7,4.6l-1.3,0.4c-3.2,2.7-3.8,7.5-4.9,11.4l-2.9-0.3
		c-3.5-2.6-3.3-5.3-4.7-9.3c-1.6-4.5-6.2-3.5-9.7-5.5c-2.1-1.2-1.9-1.9-2.5-4.1l1.1-1.8l7.1-1.6c2.2-2,3.2-3.4,4.1-6.3
		C906.7,419,907.7,416.8,909.2,414.2z"/>
	<path style="fill:#7E48C3;" d="M2130.9,808.7c5.9-1,11.5-0.9,16.9,1.9c6.4,3.3,11.1,9,13.2,15.8c2.1,7,1.5,15-2.4,21.3
		c-4,6.5-9.6,9.7-16.7,11.4c-4,0.6-7.7,0.4-11.6-0.7c-6.5-1.9-11.5-5.2-14.8-11.2c-3.5-6.4-4.1-14.1-1.8-21
		C2116.7,817.1,2122.8,812.9,2130.9,808.7z"/>
	<path style="fill:#CAEBF9;" d="M2131.2,818.4c4.2-0.8,8.4-1.3,12.4,0.7c4.1,2,7.4,5.8,8.8,10.2c1.3,4.2,0.8,9-1.6,12.7
		c-2.7,4.4-6.5,6.2-11.3,7.4c-1.3,0.2-1.3,0.3-2.5,0.3c-4.2,0-9.4-1.6-12.2-4.9c-3.3-3.9-3.8-9.3-2.9-14.2
		C2122.9,824.6,2126.6,821.9,2131.2,818.4z"/>
	<path style="fill:#ADCDE5;" d="M1548.4,440.2c0.6,5.9,0.6,11.7,0.5,17.6c7.5,0.4,13.1,0.8,18.5,6.8c12.6,14,5.9,56.6,7,76l-2.2-0.1
		c-8-0.8-16.3-0.5-24.3-0.6c0.4-23,1.1-46.1,0-69.1C1547.6,460.7,1547,450.3,1548.4,440.2z"/>
	<path style="fill:#A3D7E8;" d="M789.3,296c3.4,3.6,6.1,7.1,8.7,11.3c1.4,31-0.1,62.3,0.1,93.4c0.1,21.4,2.4,44.3,0.5,65.6
		c-0.5,5.6-1.1,11.4-5.1,15.8c-6.9,7.4-16.8,7.5-26.2,7.7c0.2,7,1.8,17.1-0.3,23.6l-1.2,0.3c-3.1-3.4-5.8-6.3-7.7-10.6
		c2.8-5.4,3.9-11.7,5.2-17.6c0.8-6.5,0.4-13.3,0.5-19.9c6.6-0.3,13.9-0.3,19-5.2c3.1-2.9,4.8-6.6,5.4-10.7c2.9-17,1.1-36.4,1.2-53.7
		L789.3,296z"/>
	<path style="fill:#54CBCC;" d="M763.5,485.2c4.1,6.5,4.2,20.1,2.7,27.4c-0.1,0.3-0.1,0.5-0.2,0.8c-3.1-3.4-5.8-6.3-7.7-10.6
		C761.1,497.5,762.1,491.1,763.5,485.2z"/>
	<path style="fill:#A01E6D;" d="M2139,507.9c3.6,0.6,6.4,1.2,8.7,4.3c4.6,6.2,3.8,17.6,2.4,24.9c-0.2,1.3-0.7,2.3-1.3,3.5
		c1.2,3.1,1.9,5.6,0.6,8.8c-1,2.5-3.2,3.9-5.7,4.8c-6.5,2.3-14.1,1.6-20.8,3.3c-2.5,7.7-5.7,19.7-12.3,25c4.2,4.1,11,13.5,11,19.6
		c0,0.3,0,0.7,0,1c-0.7,6.9-14.9,20.6-20.5,24.9c-1.5,1.1-3.1,1.9-4.8,2.7c-4.8-5.7-13.9-11.7-21-14.2c-6.3,3.7-13.5,6.2-20.3,8.9
		c0.9,5.8,0.5,16-3,20.9c-3.5,4.9-8.4,7.4-14.3,8.3c-5.4,0.8-17.6-0.5-21.8-4c-1.6-1.3-2.9-3.2-4.1-4.8c5.6-1.4,12.3,0,18.1-0.8
		c4.6-0.6,10.6-2.3,13.4-6.3c3.4-4.9,3.5-18.7,2.7-24.7c21.7-5.6,42.6-19.2,55.1-37.9c5.9-8.8,13.7-25.1,11.6-35.8
		c8.6-2.6,19.5-8.6,24.4-16.4C2140.6,518.9,2140.3,513.5,2139,507.9z"/>
	<path style="fill:#A3D7E8;" d="M564.7,465.1c54-2,108.5-0.6,162.5-0.5c6.9,8.2,13.9,16.4,20.4,24.9l-107.8,0.6
		c-18.5,0.1-37.8,1.3-56.2-0.4c-4.1-0.4-8.9-0.8-12-3.7C566,480.8,565.1,472.4,564.7,465.1z"/>
	<path style="fill:#ADCDE5;" d="M1953.4,392c3.6,5,3.5,13.9,2.6,20.1c-0.7,4.7-2.7,10.7-6.6,13.6c-3.1,2.2-7.6,2.5-11.3,2.7
		c-21.4,1.5-43.5,0.5-65,0.5c-48,0.1-96.1-0.6-144,0.1c-3.2,6.9-16.2,19.3-23.3,22.2c-1,0.4-1.4,0.4-2.5,0.7
		c-2.2-1.2-3.4-2.1-5.1-3.9c0.4-0.2,0.9-0.3,1.3-0.5c6-2.7,40.6-35.3,42.5-41.1l133.3,0.1c21.2,0.1,44.6,2.1,65.6-0.1
		c4.3-0.5,7.1-2.4,9.6-5.8C1952.6,397.8,1953.8,395.5,1953.4,392z"/>
	<path style="fill:#F57397;" d="M475.1,529.1l30,21.2l-5.5,11c-2.8,4.4-5.5,8.8-8.5,13.1l6.3,8.9c-5.1,10-9.7,19.1-17.9,27
		c-3.6-10.2-8-15-15.6-22.5l1.7-1.9c-1.8-3.9-5.3-5.5-9.2-7c-10.2-3.8-21-4.1-31,0.6c-10.7,5-17.6,15.2-21.3,26.1
		c-1.9,5.6-2.8,11.7-3.2,17.6c-3.7,2.9-7.4,5.7-11.5,8c-9.4-0.1-19.1-0.8-28.5,0.1l-6.5,0.2c1.2-10,0.3-20.6,0.1-30.7l25.8-0.2
		c3.4-10.6,7.4-19.1,13.7-28.2c-4.7-6.8-9.5-13.6-13.4-20.9l29.5-21c4.7,7.5,9.6,14.8,14.6,22.1c12-2.5,24.4-0.1,32.2-1.8
		C464.8,549,471.1,535.5,475.1,529.1z"/>
	<path style="fill:#ADCDE5;" d="M934.9,321.4c5.7,3.9,11.3,7.9,18.3,9c11.6,1.8,24.4,0.8,36.1,0.7l60.2-0.3l220.1,0.2
		c1.1,7.5,4,13.5,6.8,20.4c-18.3,0.9-37.1,0.2-55.5,0.2h-109.7l-84.4-0.3c-16.9-0.1-34.3,0.6-51.1-1.1c-7.9-0.8-15.3-2.8-22.2-6.7
		C944.5,338.6,937.8,331.3,934.9,321.4z"/>
	<path style="fill:#18AB79;" d="M769.9,284.1c6,0.4,11.1,1.2,15.4,5.8c1.7,1.8,2.9,4,4,6.1l0.2,99.8c0,17.4,1.7,36.7-1.2,53.7
		c-0.7,4.1-2.4,7.8-5.4,10.7c-5.1,4.8-12.4,4.8-19,5.2c-0.1,6.5,0.3,13.4-0.5,19.9c-1.4,5.9-2.4,12.3-5.2,17.6
		c-3.3-4.6-7.1-9-10.7-13.4c-6.5-8.5-13.5-16.7-20.4-24.9c-54-0.1-108.5-1.4-162.5,0.5c-1.2-0.1-2.4-0.3-3.5-0.5
		c-6.9-1.1-9.6-3.3-13.6-8.9c0.5-10.5,0.6-20.9,0.7-31.4c2.3,3.3,4.9,6.5,7.7,9.4c6.2,6.4,16.9,5.7,25.3,5.8l118.2,0.1
		c19.5,0,41.6,2.1,60.9-0.6c3-0.4,5.1-1.8,7.2-4c2.5-2.6,2.7-6,2.9-9.4c1.2-14.4-0.2-29.8-0.2-44.3L769.9,284.1z"/>
	<path style="fill:#F15084;" d="M400.9,623.2c0.4-5.9,1.2-12,3.2-17.6c3.7-10.9,10.6-21.1,21.3-26.1c10-4.7,20.8-4.4,31-0.6
		c3.9,1.5,7.4,3.1,9.2,7l-1.7,1.9c7.7,7.5,12,12.4,15.6,22.5c8.2-7.9,12.7-17.1,17.9-27l3.6,6.8l4.9,12.7c9.6,0.2,19.3,0.1,28.8,0.9
		l0.9,24.9c-0.1,4.6,0.6,7.1-2.2,10.8c-8.3,3.5-18.4,1-27.3,1.2c-3.6,11.7-8.2,20.4-15.5,30.3c-9.2,7.8-18.9,14.5-30.5,18.3
		c-9.9,1.2-20.1,3-29.8,0c-0.5-2.8-1.1-2.7-3.4-4.3c-4,7.5-11,13.2-17.3,18.7c-6.5-5.7-15.8-13.3-23.7-16.6
		c5.7-3.3,10.6-14.3,13.8-20.1c-7.7-7.6-12.8-16.9-16-27.2c0.2-3,0.6-3.9-1-6.6c-6.2-2.6-15.1-1.3-21.9-1.8
		c9.4-0.8,19.1-0.2,28.5-0.1C393.6,629,397.2,626.1,400.9,623.2z"/>
	<path style="fill:#CAEBF9;" d="M410.4,632.1c8.8,6.8,18.5,11.7,29.8,12.4c18.1,1,27.4-10.2,39.8-21c-2.5,10.8-7.4,20.3-17.1,26.3
		c-9.9,6.2-20.2,6.4-31.3,3.9C421.2,648,415.3,642.9,410.4,632.1z"/>
	<path style="fill:#A01E6D;" d="M526.2,629c2.3-2.2,4.5-4.4,6.7-6.7l1.5,0.7l1.2,5.7c-0.1,4.6,0.6,7.1-2.2,10.8
		c-8.3,3.5-18.4,1-27.3,1.2c-3.6,11.7-8.2,20.4-15.5,30.3c-9.2,7.8-18.9,14.5-30.5,18.3c-9.9,1.2-20.1,3-29.8,0
		c-0.5-2.8-1.1-2.7-3.4-4.3l-3.4-1.8c-1.3-2.9-0.1-4.4,0.8-7.4c0.8,0.3,1.6,0.6,2.4,0.9c13.3,4.5,29.2,1.9,41.4-4.5
		c17.2-9,26.5-24.4,32.1-42.4C509,629.8,517.6,629.5,526.2,629z"/>
	<path style="fill:#FDFDFD;" d="M410.4,632.1c-0.6-0.9-1.1-1.8-1.5-2.8c-2.7-6.7-2.5-16.9,0.5-23.5c4.6-9.9,13.5-18.2,24-21.6
		c11.2-3.6,20.3-1.6,30.5,3.5c7.7,7.5,12,12.4,15.6,22.5c0.5,4.4,1.1,8.7,0.4,13.1c-12.4,10.8-21.6,22.1-39.8,21
		C428.9,643.8,419.1,638.9,410.4,632.1z"/>
	<path style="fill:#6D6FC6;" d="M659.3,820.3l0.1-158.4c0-24.1-2.8-60.1,1.9-82.7c2.1-10.2,8.2-19.8,15.5-27.1
		c7.2-7.1,16-12.2,26.1-14c22.7-3.9,75.3-1.1,101.1-1.2l253,0.2c0.1,14.9-0.5,30.1,0.4,44.9l-230.7,0.1l-65-0.2
		c-12-0.1-24.9-1-36.8,0.6c-8.6,1.2-16.2,4.8-22.4,11c-5.8,5.8-8.7,11.9-10.2,19.8c-4.1,22.1-1.5,48.5-1.5,71v136.5L550,821.6
		c-22.9,0.1-47,1.7-69.7-0.3c20-2.5,41.7-1,61.8-1H659.3z"/>
	
		<linearGradient id="SVGID_00000026884802356169470080000004261858169133536674_" gradientUnits="userSpaceOnUse" x1="2088.8821" y1="640.775" x2="1945.663" y2="513.2548" gradientTransform="matrix(1 0 0 1 0 -54)">
		<stop  offset="0" style="stop-color:#F4477E"/>
		<stop  offset="1" style="stop-color:#FE86A4"/>
	</linearGradient>
	<path style="fill:url(#SVGID_00000026884802356169470080000004261858169133536674_);" d="M2013.5,426.5l0.6-0.5
		c1.9-1.6,4.4-5.3,6.3-6.4c3.4-2,11.8-2.7,15.7-2.4c7.1,0.4,13.4,3.5,17.9,9.2c3.3,4.2,8,16.8,7,22.1c-0.1,0.4-0.1,0.7-0.2,1.1
		c4.1,1.3,8.4,2.3,12.2,4.5c8-3.4,14.3-9.5,22.3-13c5.1,7.8,5.1,22.1,2.9,30.9c-0.5,2-1.3,3.6-2.4,5.3c3.8,2.9,7.6,6.5,8.9,11.2
		c2.6-1.6,4-2.3,7.1-2.4c3.7,3.4,7.2,10,7.1,15.1c0,1-0.1,1.1-0.3,1.9c6.3,5,15.3,1,20.4,4.8c1.4,5.6,1.6,11-1.6,16.1
		c-5,7.8-15.8,13.8-24.4,16.4c2.1,10.8-5.7,27.1-11.6,35.8c-12.5,18.7-33.5,32.3-55.1,37.9c0.8,6,0.7,19.9-2.7,24.7
		c-2.8,4-8.8,5.6-13.4,6.3c-5.9,0.8-12.5-0.7-18.1,0.8c0.5-5.2-1.9-13.1-4.5-17.6c0-0.1-0.1-0.3-0.2-0.4c-2.8-5.4-10.1-7.6-15.5-9.4
		c-5.3,5.6-13,11.4-20.1,14.5c-1.9-3.5-7.5-6.4-10.8-8.7c-5.4-7.6-13.5-13.4-17.2-22.3c3.9-3.7,9.2-11.9,10.6-17.3
		c0.1-0.5,0.3-1.1,0.4-1.6c0-0.9,0.1-1.1-0.2-2.1c-1.1-3.9-11.4-24.9-14.2-26.8c-0.6,0-1.1,0-1.7,0c-9.1-0.4-14.6-3.1-20.8-9.6
		c0.3-10.7-3.1-22.3-0.3-33.1c5.3-6.1,17.3-6.6,24.8-8c0.7-0.5,1-0.7,1.5-1.3c3.5-3.7,10.7-17.2,10.6-22.2
		c-0.8-5.9-7.8-15.5-12.1-19.6c5.4-3.8,16.3-17.4,25-24.1c8.2,2.5,17.1,9.7,22.9,15.8c5.7-0.9,11.1-2,16.6-3.7
		c0.9-0.8,1.7-1.5,2.4-2.5C2012.2,440.8,2014.9,432.3,2013.5,426.5z"/>
	<path style="fill:#811B69;" d="M2104.8,488.4c2.6-1.6,4-2.3,7.1-2.4c3.7,3.4,7.2,10,7.1,15.1c0,1-0.1,1.1-0.3,1.9l-0.3,0.9
		l-1.6,0.8c-5.2-3.7-7.2-10.8-11.4-15.7C2105.1,488.8,2104.9,488.6,2104.8,488.4z"/>
	<path style="fill:#CC4480;" d="M1917.7,544.5c6.2-1.4,15.5-1.6,21.3,1.3c1.8,2.1,2.6,3.1,2,6c-0.2,1-0.4,1.5-0.8,2.4
		c-0.6,0-1.1,0-1.7,0C1929.4,553.7,1923.9,551,1917.7,544.5z"/>
	<path style="fill:#CC4480;" d="M1984.3,608c22.5,7.7,38.4,10.9,61.8,6c0.8,6,0.7,19.9-2.7,24.7c-2.8,4-8.8,5.6-13.4,6.3
		c-5.9,0.8-12.5-0.7-18.1,0.8c0.5-5.2-1.9-13.1-4.5-17.6c0-0.1-0.1-0.3-0.2-0.4c-2.8-5.4-10.1-7.6-15.5-9.4
		c-5.3,5.6-13,11.4-20.1,14.5c-1.9-3.5-7.5-6.4-10.8-8.7c1.2-0.2,2.1-0.5,3.2-1C1971,620.2,1981.4,615.4,1984.3,608z"/>
	<path style="fill:#FDFDFD;" d="M2023.3,486.4c13.4-1.8,25.5,0.2,36.8,7.9c11.5,7.9,19.6,20.3,22.1,34c2.4,13-0.5,26.5-8,37.4
		c-8.3,12-20.5,18.8-34.7,21.3c-10.3,1.6-21.3-0.2-30.6-5c-11.6-6.1-20.3-17.4-24.2-29.9c-4-12.8-2.8-26.8,3.4-38.7
		C1995.9,498.6,2007.7,491.3,2023.3,486.4z"/>
	<path style="fill:#CC4480;" d="M2020.8,497.4c12.5-1.3,22.3-1.7,33.3,5.4c9.4,6,16.3,15.8,18.5,26.8c2.1,10.5-0.2,21.5-6.2,30.3
		c-5.9,8.6-15.6,14.6-25.8,16.5c-0.2,0.1-0.4,0.3-0.6,0.4c-4.6,2.2-15.3,1-20.2-0.5c-10.2-3.2-19.1-12-23.7-21.5
		c-4.8-9.7-5.4-20.8-1.8-31C1999,510.4,2008.5,503.2,2020.8,497.4z"/>
	<path style="fill:#F15084;" d="M2026.7,507.2c8.7-1.3,16.4-0.6,24,4.3c6.5,4.2,11.1,11,12.7,18.5c1.7,8-0.4,16.4-4.9,23.2
		c-5.6,8.4-13.9,13.1-23.6,15c-5.2,1.7-13.2,0.7-18.3-1.1c-6.4-2.3-11.2-7.6-13.8-13.8c-3.3-8.1-3.2-17.6,0.4-25.7
		C2007.9,516.5,2015.9,511.6,2026.7,507.2z"/>
	<path style="fill:#4BD697;" d="M570.2,284.1c37.6,1.7,75.8,0.3,113.4,0.2c28.5,0,57.9,1.6,86.3-0.3l0.2,97.3
		c0.1,14.5,1.4,29.8,0.2,44.3c-0.3,3.4-0.5,6.8-2.9,9.4c-2.1,2.2-4.2,3.6-7.2,4c-19.2,2.6-41.3,0.6-60.9,0.6l-118.2-0.1
		c-8.4-0.1-19.1,0.6-25.3-5.8c-2.8-2.9-5.4-6.1-7.7-9.4c-0.1,10.5-0.2,20.9-0.7,31.4c-1.3-6.6-0.8-13.8-0.8-20.5l0.2-85.4
		c-0.1-16.5-1.5-34.3,0.5-50.5c0.5-3.9,1.2-7.9,4.1-10.8C556.6,283.7,563.8,284.2,570.2,284.1z"/>
	<path style="fill:#1F8568;" d="M702.9,377.7c3.2,1.3,5,2.5,7.2,5.1c0.4,1.6,1.2,2.5,0.3,4c-1.7,3.2-48.3,34.1-52.4,35.3
		c-2.1,0.6-3.7,0.2-5.7-0.5c-3-2.7-4.4-5.9-4.8-9.9c0-0.3,0-0.6,0-0.9C663.2,404.5,686.2,386.8,702.9,377.7z"/>
	<path style="fill:#FDFDFD;" d="M647.6,410.8c-2.5-1.4-5.5-2.8-6.9-5.3c-2.3-3.9-1.8-55.3-0.2-61.4c1.1-4.2,2.2-5.5,5.7-7.7
		c1.9-0.2,3.7-0.1,5.6,0.5c6.3,2.1,50.2,28.1,52.7,32.9c0.3,3.2-0.1,5-1.4,8C686.2,386.8,663.2,404.5,647.6,410.8z"/>
	<path style="fill:#3A4B9A;" d="M1056.8,479.8c0.1-9.8-0.5-19.5-0.4-29.3c0.1-9.3,1-17.7,8-24.5c6.6-1.5,13.5-2.1,20.3-2.4
		c28.8-1.1,57.9-0.3,86.8-0.4l176.4-0.6c21.9-0.1,175.6-2.8,186,0.9c7.9,2.8,11.2,9.6,14.5,16.7c-1.4,10.1-0.7,20.5-0.6,30.6
		l-0.3,9.2l0.1,28.6l-263-0.5l-86.4,0.1c-14.9,0-30.6-0.9-45.4,0.6c-31.9-1.1-64,0-96-0.2L1056.8,479.8z"/>
	<path style="fill:#133069;" d="M1517.2,456.1c0.8,2.8,1.4,4.4,0.1,7.3c-1.2,2.7-4.4,4.5-7.1,5.3c-3,0.9-6.9,0.8-9.7-0.6
		c-2.2-1.2-3.8-3.2-4.3-5.7c-0.2-1-0.1-1.4,0-2.4c3,1.9,6.5,3.9,10.2,3.7C1511.4,463.4,1514.3,459.7,1517.2,456.1z"/>
	<path style="fill:#133069;" d="M1474.4,457.1c0.7,2.8,1.4,4.6,0,7.4s-4.6,4.7-7.6,5.3c-2.9,0.7-6.6,0.2-9.1-1.6
		c-2.8-2.2-3.6-5.1-3.9-8.6c0-0.2,0-0.4,0-0.6c0.5,0.5,1,0.9,1.6,1.3c2.7,2.2,6.3,4.4,9.9,3.8
		C1469.4,463.6,1471.8,460.2,1474.4,457.1z"/>
	<path style="fill:#A3D7E8;" d="M1420.9,441.7c4.2,0.1,7.8,1.2,10.7,4.4c2.3,2.4,3,5.3,2.7,8.6c-0.4,4.4-2.9,6.6-6.1,9.4
		c-1.1,0-2.2,0-3.4-0.1c-3.6-0.3-6.9-2-9-4.9c-1.6-2.1-2.2-4.8-1.8-7.4C1414.7,446.8,1417.3,444.6,1420.9,441.7z"/>
	<path style="fill:#A3D7E8;" d="M1453.7,459c-0.8-4.8-1.3-8.9,1.5-13.2c1.7-2.7,3.6-3.6,6.6-4.4c2.2,0.2,4.1,0.6,6,2
		c4.9,3.5,5.5,8.3,6.5,13.8c-2.5,3.1-4.9,6.5-9.1,7.1c-3.7,0.5-7.2-1.6-9.9-3.8C1454.8,459.9,1454.3,459.5,1453.7,459z"/>
	<path style="fill:#A3D7E8;" d="M1496.1,460c-0.7-4.1-1.7-8.5,0.2-12.5c1.6-3.4,4-4.9,7.5-6.1c2.4,0,4.4,0.3,6.5,1.6
		c5.1,3.3,5.8,7.6,6.9,13.1c-2.9,3.6-5.8,7.3-10.9,7.5C1502.7,463.9,1499.1,461.9,1496.1,460z"/>
	<path style="fill:#F15084;" d="M1104.4,440.7c1,0.2,2.1,0.3,3.1,0.5c5.1,1,9.3,3.3,12.1,7.9c2.1,3.5,2.5,7.7,1.4,11.7
		c-1.7,6.2-6.2,9.1-11.3,12.2c-2-0.2-3.9-0.4-5.8-1c-4.4-1.3-7.9-4.3-10-8.4c-1.9-3.7-2.2-8-0.9-12
		C1094.9,445.8,1099.2,443.2,1104.4,440.7z"/>
	<path style="fill:#133069;" d="M1056.8,479.8l343.3,0.2l91.3,0.2c18.6,0.1,37.6,0.9,56.2-0.2l0.1,28.6l-263-0.5l-86.4,0.1
		c-14.9,0-30.6-0.9-45.4,0.6c-31.9-1.1-64,0-96-0.2L1056.8,479.8z"/>
	<path style="fill:#4BD697;" d="M1647.7,240.1c0-0.8,0-1.7,0-2.5c0-5.7,0.8-12,5.2-16c2.9-2.6,6.6-3.8,10.4-4.2
		c11.4-1.1,23.7-0.2,35.2-0.2h68l105.2-0.1c19.4,0,39.1-0.6,58.4,0.3c7.1,0,14.4,0.3,19.7,5.9c2.5,2.7,4,5.5,4.5,9.2
		c2.9,20.5,0.7,43.7,0.7,64.5c0,27.2,1.6,55.4-0.3,82.5c-0.1,2.1-0.3,4-1.1,6.1c0.2,2.3,0.3,4.1-0.2,6.4c0.4,3.5-0.8,5.8-2.9,8.6
		c-2.6,3.5-5.4,5.4-9.6,5.8c-21,2.2-44.3,0.2-65.6,0.1l-133.3-0.1c-1.9,5.8-36.5,38.4-42.5,41.1c-0.4,0.2-0.9,0.3-1.3,0.5
		c-7.3-8.9,2.6-30.8-4-41.7c-7.3-0.1-14.6,0.3-21.9,0.3c-6.7,0-14-0.5-18.8-5.8c-5.6-6.2-4.8-13.7-4.7-21.5
		C1646.6,333.1,1651.4,286.2,1647.7,240.1z"/>
	<path style="fill:#18AB79;" d="M1688.7,350.3c18-0.1,36-0.4,54,0.1c1.4,1.8,1.3,2.8,1.6,5c-1.1,2.1-1.4,2.9-3.7,3.8
		c-7,2.7-41.6,2.5-48.6-0.3C1689,355.8,1689.2,354.4,1688.7,350.3z"/>
	<path style="fill:#FDFDFD;" d="M1688.7,350.3c-0.9-3.2-1.4-4.9-0.2-8c5.6-3.8,59.2-2.4,68.3-1l2.5,2.5v2.6
		c-4.7,4.4-10.5,3.9-16.6,4C1724.7,349.9,1706.6,350.2,1688.7,350.3z"/>
	<path style="fill:#FDFDFD;" d="M1686.4,316.7c1.9-0.3,3.9-0.5,5.8-0.6c11.5-0.7,112.9-1.7,117.2,0.5c0.9,0.5,1.6,1.4,2.4,2.1
		l-0.1,2.2l-2.9,2.7c-4.2,2.3-109,1.9-119.2,0C1687,321,1687.1,320.3,1686.4,316.7z"/>
	<path style="fill:#FDFDFD;" d="M1693.1,266.7c44.8-0.4,89.6,0.1,134.3,0.2c23.4,0,47.7-1.6,71,0c3.8,0.3,7.8,0.4,10.4,3.4l-0.9,2.5
		c-3,2.5-5.7,2.2-9.4,2.3c-38,1.4-76.7-0.1-114.8-0.2c-28.6-0.1-58.2,1.5-86.6-0.1c-3.6-0.2-6.6-0.4-9.8-2.4l-0.5-2
		C1689.2,267.5,1689.4,267.6,1693.1,266.7z"/>
	<path style="fill:#FDFDFD;" d="M1687.2,292.3c0.7-0.1,1.3-0.2,2-0.3c26.3-2.6,64.6-0.7,92.4-0.7l73.5,0.1c14.9,0,30-0.8,44.8,0.2
		c3.1,0.2,5.7,0.5,8.1,2.5v2.7l-2.7,2.3c-1.5,0.9-200.6,2.8-215.5,0C1687.3,296.7,1687.7,295.6,1687.2,292.3z"/>
	<path style="fill:#18AB79;" d="M1930.1,217.5c7.1,0,14.4,0.3,19.7,5.9c2.5,2.7,4,5.5,4.5,9.2c2.9,20.5,0.7,43.7,0.7,64.5
		c0,27.2,1.6,55.4-0.3,82.5c-0.1,2.1-0.3,4-1.1,6.1c0.2,2.3,0.3,4.1-0.2,6.4c0.4,3.5-0.8,5.8-2.9,8.6c-2.6,3.5-5.4,5.4-9.6,5.8
		c-21,2.2-44.3,0.2-65.6,0.1l-133.3-0.1c-1.9,5.8-36.5,38.4-42.5,41.1c-0.4,0.2-0.9,0.3-1.3,0.5c-7.3-8.9,2.6-30.8-4-41.7
		c-7.3-0.1-14.6,0.3-21.9,0.3c-6.7,0-14-0.5-18.8-5.8c-5.6-6.2-4.8-13.7-4.7-21.5c2.4,2.6,4.8,5,7.6,7.2c12.7,1.7,26.7,0.6,39.6,0.6
		h75.9l96.6-0.1c16.8,0,34.6,1.2,51.3-0.7c3.3-0.4,12.1-1.2,14-4c2.3-3.4,2.8-9.7,3.1-13.7c1.8-26.9-0.2-54.7-0.1-81.7
		c0-19.5,2.8-41.5,0-60.7C1935.9,221.5,1933.8,220.2,1930.1,217.5z"/>
	<path style="fill:#5E60B5;" d="M1572.2,540.4l2.2,0.1l162.2,0.1c21.5,0,57.6-2.7,77.5,1.7c9.7,2.1,19.2,8.7,26.2,15.6
		c8.6,8.6,17,21.5,18.2,33.9c0.1,1-0.1,1.8-0.4,2.7c7.1,1.3,12.6,7.3,16.5,13.1c3.9,5.8,7.7,13.6,8.5,20.7
		c2.1,16.2,0.8,33.5,0.8,49.9l-0.3,87.7v74.4c0,9.6,1.4,22.4-0.3,31.8c-0.1,0.6-0.4,1.5-0.6,2l35.5,0.3l-1.5,0.9
		c-16.1,0.7-137.6,1.8-145-0.8l-1.1-0.3c-5.3,0.6-10.6,0.2-15.9,0c0.9-1.2,1.7-2.3,2-3.8c0.9-5.7-0.1-13.1-0.1-18.9v-54.3
		c0-50.2,1.8-101.1,0.1-151.3l-1.2-2c-7-2.5-166.9-2-179.9-0.3c-4.6-10.9-1.5-47.2-1.4-60.2c-8.6,0.3-17.2,0-25.8,0v-0.8
		c-3.3-8.4-0.9-32-0.8-42.1C1555.7,540.6,1563.9,540.5,1572.2,540.4z"/>
	<path style="fill:#283580;" d="M1572.2,540.4l2.2,0.1c0.1,13.9,0.2,27.8,0.1,41.7c-8.6,0-17.6-0.4-26.2,0.2
		c-3.3-8.4-0.9-32-0.8-42.1C1555.7,540.6,1563.9,540.5,1572.2,540.4z"/>
	<path style="fill:#3A4B9A;" d="M1812.2,607.8c1.2,0,3-0.5,3.9,0.4c6,5.6,5.6,15.8,5.7,23.3c0.2,26.7,1.9,235.8-2.6,243.1
		c12.8-0.1,26.2,0.6,39-0.5c8.2,0.3,16.3,0.6,24.5-0.1l35.5,0.3l-1.5,0.9c-16.1,0.7-137.6,1.8-145-0.8c13.6-0.4,27.3,0,40.9,0.1
		c0.2-0.3,0.4-0.6,0.6-0.9c0.9-1.8,1.3-3.7,1.3-5.7c1.4-32-0.6-64.8-0.5-96.9c0.1-50.1,1.9-100.6,0.4-150.7
		C1814.1,615.9,1813.7,612,1812.2,607.8z"/>
	<path style="fill:#ADCDE5;" d="M1857.9,594.6c7.1,1.3,12.6,7.3,16.5,13.1s7.7,13.6,8.5,20.7c2.1,16.2,0.8,33.5,0.8,49.9l-0.3,87.7
		v74.4c0,9.6,1.4,22.4-0.3,31.8c-0.1,0.6-0.4,1.5-0.6,2c-8.2,0.6-16.3,0.3-24.5,0.1c1.1-2.8,2.3-248.8,1.3-273.1
		C1859.3,598.6,1858.9,596.8,1857.9,594.6z"/>
	<path style="fill:#FDFDFD;" d="M1574,583.3l144.3-0.2c20.9,0,49.6-2.5,69.7,1.2c6.6,1.2,12.2,4.5,16.9,9.2
		c3.3,3.4,7.2,8.7,7.3,13.6c0,0.2,0,0.4,0,0.6c1.6,4.2,1.9,8.1,2.1,12.6c1.5,50-0.2,100.6-0.4,150.7c-0.1,32.1,1.9,64.9,0.5,96.9
		c-0.1,2-0.4,3.9-1.3,5.7c-0.2,0.3-0.4,0.6-0.6,0.9c-13.6-0.1-27.3-0.5-40.9-0.1l-1.1-0.3c-5.3,0.6-10.6,0.2-15.9,0
		c0.9-1.2,1.7-2.3,2-3.8c0.9-5.7-0.1-13.1-0.1-18.9v-54.3c0-50.2,1.8-101.1,0.1-151.3l-1.2-2c-7-2.5-166.9-2-179.9-0.3
		C1570.7,632.6,1573.9,596.3,1574,583.3z"/>
	<path style="fill:#DCD9E8;" d="M1756.4,645.8c5.1,2.3,9.9,5.6,12.1,11.1c4.9,12.4,1.6,189.7,1.9,217.2c-5.3,0.6-10.6,0.2-15.9,0
		c0.9-1.2,1.7-2.3,2-3.8c0.9-5.7-0.1-13.1-0.1-18.9v-54.3C1756.3,746.9,1758.2,696,1756.4,645.8z"/>
	<path style="fill:#FDFDFD;" d="M1547.8,470.8c1.1,23,0.4,46.1,0,69.1c8,0.1,16.3-0.3,24.3,0.6c-8.2,0.1-16.5,0.2-24.7,0
		c-0.2,10.1-2.6,33.7,0.8,42.1v0.8c8.6,0,17.2,0.3,25.8,0c-0.1,12.9-3.2,49.3,1.4,60.2c12.9-1.6,172.9-2.1,179.9,0.3l1.2,2
		c1.7,50.2-0.1,101.1-0.1,151.3v54.3c0,5.8,1,13.3,0.1,18.9c-0.2,1.5-1.1,2.6-2,3.8c-9,0.6-18.9,1.4-25.1,9c-9.9,12-2,32-7,45.8
		c3.2,6.1,2.7,129,1.3,145.5c0.9,10,3.4,34.4-1.7,42.7c4.5,6.6,3.4,38,2,46.8c-0.3,1.6-1,3-1.9,4.3c-11.8,2.8-47.3,0.8-61,0.8
		l-171.5,0.2l-406.7-0.5c-84,0-168.2,0.9-252.2-0.5c-0.5-17.1-1.1-34.5,0.1-51.6c0.5-4.5,0.2-9.5,0.2-14c-0.5-9.8,0-19.7,0.1-29.5
		c0.2-13.4,0.1-26.8-0.2-40.2c-3-6.4-2.5-12.4-2.3-19.3c-0.1-11.4-1.3-24.5,1.9-35.5c-1.1-13.6-0.4-28-0.5-41.7l-29.3-0.2l-0.2-30.3
		c9.8,0.2,19.5,0.2,29.3-0.3v-14.5c0.2-5.6-0.9-10.9-0.5-16.6l2.9-1.4l-6.9,0.1l-25-0.1c-0.7-10.3-3.1-18.9-6.8-28.5
		c-2.1-2.8-4.2-5.6-6.6-8.2c-11.2-11.7-24-15.4-39.7-15.8c-18.8,0.3-37.6,0.2-56.5,0.2V684.4c0-22.5-2.6-48.9,1.5-71
		c1.5-8,4.4-14.1,10.2-19.8c6.2-6.2,13.8-9.9,22.4-11c11.9-1.6,24.8-0.6,36.8-0.6l65,0.2l230.9-0.2c-0.9-14.9-0.4-30-0.4-44.9
		c-0.4-9.5-0.2-19-0.2-28.5c31.9,0.2,64.1-0.9,96,0.2c14.7-1.5,30.5-0.6,45.4-0.6l86.4-0.1l263,0.5l-0.1-28.6L1547.8,470.8z"/>
	<path style="fill:#F7A454;" d="M1521,972.8c7.7,7.6,6.9,15.9,7,26c0.1,11.5,2.5,62.3-3.6,69.3c-6.8,7.8-64.9,5.5-76.6,4.9
		c-6.3-0.3-9.3-1-13.9-5.6c19.2-5.2,69.3,3.7,82.2-4.6C1526,1050.2,1521.6,990.8,1521,972.8z"/>
	<path style="fill:#18AB79;" d="M1356.5,976.5c1.4,2.5,2.4,4.8,2.8,7.6c1.3,10.8,1.1,71.2-1,78.1c-0.7,2.3-2,5.6-4.3,6.8
		c-10.3,5.2-77.6,5.7-88.2,1.7c-2.4-0.9-4.5-2.7-6.4-4.4c10.2-3.1,25-1.8,35.8-2c8.8,1.6,37.8,2.4,46.2-0.3
		c26.1-8.6,2.7-65.8,14.2-86C1355.9,977.4,1356.2,977,1356.5,976.5z"/>
	<path style="fill:#DCD9E8;" d="M1723.8,1074.4c0.9,10,3.4,34.4-1.7,42.7c-9.8-2.3-24.7-0.3-35-0.2l-87.6,0.2
		c-1-0.8-1.9-1.6-2.8-2.5c-4.1-3.9-7.9-7.7-8-13.7l1.3-1.1c1.8,1.3,4.1,3.1,6.2,3.5c10.9,1.8,24.9,0.3,36.1,0.3
		c29.5,0.1,59.1-0.2,88.6,1c4.4-6.8,2.3-22.1,1.6-30L1723.8,1074.4z"/>
	<path style="fill:#BEBAD0;" d="M1589.3,686.6c15.1-0.2,124.3-1.3,129.3,2.4c1.3,3.8,1.2,6.6,0.7,10.5c-1.8,1.8-4.9,1.4-7.5,1.6
		h-77.9c-15.5,0-31.3,0.8-46.7-0.8l0.9-1.2l-2.1,0.8c-1.4-3.5-1.6-7.2,0-10.7C1586.9,687.3,1587.4,687.4,1589.3,686.6z"/>
	<path style="fill:#BEBAD0;" d="M1586.6,822.7c15-0.4,125.9-2,131.4,0.8c1.2,0.6,1.9,2.7,2,4c0.4,3.6-0.5,6.5-2.7,9.2
		c-9.1,2-122.7,1.3-129.8-0.7C1585.4,832.2,1586.4,826.9,1586.6,822.7z"/>
	<path style="fill:#BEBAD0;" d="M1586.7,732.4c15.6-0.2,125.4-2.7,132.3,1.5c0.5,0.9,1,1.7,1,2.8c0.1,4.3-0.9,6.5-3.5,9.7
		c-6.2,1.9-124.8,1.4-129.3-0.6C1585.3,741.6,1586.2,736.9,1586.7,732.4z"/>
	<path style="fill:#BEBAD0;" d="M1586.5,777.3c17.2-0.7,123.1-1.7,131.9,0.9l1.4,3c-0.1,3.9-0.3,6.6-2.5,10
		c-0.7,0.5-0.3,0.3-1.6,0.6c-7.5,2-126.2,0.4-128.5-1C1585.5,786.3,1586.2,781.9,1586.5,777.3z"/>
	<path style="fill:#DCD9E8;" d="M1202.7,972.3c2.9,1.6,5.7,3.3,7.4,6.2c3.9,7.1,2.8,111.6-0.3,123.2c-1.2,4.4-2.5,8.3-6.8,10.6
		c-12.3,6.5-88.8,6.4-103.2,1.9c-1.6-1.3-3.1-2.9-4.4-4.5c-2.2-2.9-3.8-6.5-3.4-10.1l1.7-0.9c15.4,8.2,75.6,5.3,95.4,4.3
		c3.1-2.5,8.8-6.2,10.3-9.9C1206.4,1076.1,1196.1,998.5,1202.7,972.3z"/>
	<path style="fill:#DCD9E8;" d="M1544,981.9c1.3,0.8,2.5,1.6,3.6,2.6c11.2,10.4,7.8,55.5,7.9,71.6c0.1,13.3,3.6,47-5.5,55.8
		c-1.8,1.8-4.1,3.7-6.7,4.2c-11.8,2.5-26.5,1-38.6,1c-22.5,0-45.1,0.3-67.6-0.5c-1.8-1.1-3.4-2.4-4.9-4c-2.4-2.6-4.6-6-4.4-9.6
		c3.2-2.3,17.2,0.8,22,0.9c27.5,0.9,55.6-0.3,83.2-0.7c4.3-3.5,7.3-7,10.6-11.5C1543.8,1055.9,1540.6,1017.4,1544,981.9z"/>
	<path style="fill:#DCD9E8;" d="M1378.2,971.1c2,1.2,3.7,2.7,5.5,4.2c4.7,8.9,4.4,115.8,1.5,129.5c-2,2.3-4.1,4.9-6.4,6.9
		c-2.6,2.3-5.6,3.5-9,4.1c-13.7,2.5-29.3,1.1-43.2,1.1c-20.1,0-40.5,0.5-60.6-0.7c-2.6-1.8-6-4.7-7.6-7.5c-1.2-2.2-1.2-2.6-0.5-4.9
		c7.2-1.4,15.8-0.5,23.1-0.4c21.2,0.1,57.1,2.7,77.2-0.7c7.9-1.3,11.6-7.1,15.9-13.1l1.1-74.1c0.1-12.3-0.9-25.5,0.5-37.7
		C1375.9,975.3,1376.9,973.2,1378.2,971.1z"/>
	<path style="fill:#DCD9E8;" d="M829.8,891.1c41.4,0.7,82.9-0.1,124.4-0.2c17.7,0,37.9-1.9,55.4,0.7c3.4,0.5,5.5,1.8,8.1,4.1
		c2.1,3.9,2.2,8.4,4.2,12.1c3.7,6.8,11.5,7.7,13.1,16.3c2.1,11.1,0,33.7,0,46.2c0.1,40.4,1.2,81.1,0.2,121.5
		c-0.1,4.9-0.4,10.2-1.6,15c-1,3.7-3.5,5.8-6.8,7.6c-2.4,1.3-4.7,2.1-7.5,2.3c-25.5,2.2-52.4,0.5-78.1,0.4
		c-36.7-0.1-73.8,0.8-110.5-0.3c0.5-4.5,0.2-9.5,0.2-14c56.3,0.8,112.9,1.6,169.2,0.9c4.2-0.1,13.5,0.2,16.5-3.1
		c3.4-3.7,4.3-8,4.8-12.8c1.8-17.9-0.4-45.1-0.3-64l0.3-64.1c0.1-11.1,1.1-22.6,0.4-33.7c-0.4-6.4-1.3-10.7-6.5-15
		c-3.8-3.1-7.5-4.3-12.4-4.8c-20.2-2.3-42.2-0.1-62.7-0.2c-36.4-0.3-74.3-3-110.5-0.1L829.8,891.1z"/>
	<path style="fill:#F6CA4F;" d="M1426.9,1060.2c0.1-16.9-3.1-75.5,4-87c2-3.3,4.3-4.8,8.1-5.4c7.5-1.1,67.2-0.7,73.1,0.5
		c3.6,0.7,6,2.3,8.9,4.4c0.6,18.1,5,77.4-4.9,90c-12.9,8.3-63-0.5-82.2,4.6L1426.9,1060.2z"/>
	<path style="fill:#FDFDFD;" d="M1494.3,997.3c3,3.4,6.5,6.3,10,9.2c-10.4,12.3-21.1,24.4-31.8,36.5l-4.2-5.3
		c-2.8-1.2-5.2-2.4-7.7-4.2c1.4-8.5-1.9-13.8-5.3-21.3c2-1.3,3.2-0.5,5.4,0C1468.7,1014.2,1487.1,1001.7,1494.3,997.3z"/>
	<path style="fill:#4BD697;" d="M1259.4,1066.2c-2.3-2-4.1-4.7-5.1-7.6c-4.1-11.8-4.3-73.6,1.6-84.4c1.8-3.3,3.8-4.2,7.3-5.2
		c7.4-2.1,69.5-1.9,79.2-0.7c3.5,0.4,6.3,1.4,9.3,3.1l4.8,5.1c-0.3,0.5-0.6,0.9-0.9,1.4c-11.5,20.2,11.9,77.4-14.2,86
		c-8.4,2.7-37.4,2-46.2,0.3C1284.4,1064.4,1269.7,1063.1,1259.4,1066.2z"/>
	<path style="fill:#18AB79;" d="M1342.3,994.1c1.8,7.1-7.3,20.1-11.1,26.4c-7.8,13.2-16.4,26-24.6,39c-1.6-0.7-2.5-1.5-3.8-2.5
		c-0.9-0.7-2-1.2-2.7-2l3.6-7.6c11.3-14.3,20.9-30.9,31.2-45.9C1337.6,999.5,1340,996.5,1342.3,994.1z"/>
	<path style="fill:#FDFDFD;" d="M1276,1015.6c18.3-6.8,39.7-9,58.8-14.2c-10.3,15.1-19.9,31.7-31.2,45.9
		C1293.8,1037.5,1285,1026.2,1276,1015.6z"/>
	
		<linearGradient id="SVGID_00000109005847539942514440000016881729043542751138_" gradientUnits="userSpaceOnUse" x1="1178.976" y1="1079.9241" x2="1082.2087" y2="1069.0358" gradientTransform="matrix(1 0 0 1 0 -54)">
		<stop  offset="0" style="stop-color:#7D56EF"/>
		<stop  offset="1" style="stop-color:#B56DF8"/>
	</linearGradient>
	<path style="fill:url(#SVGID_00000109005847539942514440000016881729043542751138_);" d="M1173.2,1072.4c-15.1,1.7-61,2.4-75.2-0.1
		c-3.6-0.6-6.1-1.2-8.2-4.4c-2.8-4.1-4.1-9.6-4.8-14.5c-1.8-13.4-2.7-60.3,0.1-72.9c0.7-3.2,1.5-6.5,4.5-8.2
		c8.9-4.9,69.6-5.5,80.1-2.8c7.1,1.9,10.4,8.5,13.8,14.4v44.6c0.3,10.3,3.5,30.7-3.8,38.9C1177.8,1069.5,1175.5,1071,1173.2,1072.4z
		"/>
	<path style="fill:#7E48C3;" d="M1154.6,1023.3c0.6,2,1.3,2.8,0.3,4.8c-2.6,4.8-9.4,9.5-13.5,13.2c-2-0.9-3.3-2.3-4.9-3.8
		C1140,1031.3,1148.7,1027.2,1154.6,1023.3z"/>
	<path style="fill:#8F49F9;" d="M1136.5,1037.5c1.6,1.5,2.9,2.8,4.9,3.8c-5.4,5.3-10.6,9.1-18.6,9c-2.8,0-3.6-0.2-6.1-1.5l1.2-1.8
		c2.2-0.2,4.4-0.5,6.7-0.5c0.4-0.4,0.7-0.9,1.1-1.4c1.6-2.2,2.6-2.9,2.1-5.5c-2.2-0.8-4-1-6.3-1.2h-0.8l0.3-1.5l1.2,0.7
		c3.3-1.7,8.8,2.2,13,0.6C1135.5,1037.9,1136,1037.7,1136.5,1037.5z"/>
	<path style="fill:#7E48C3;" d="M1178.5,1057.7c1.3-16.5-0.6-33,3.4-49.3c0.2,6.8,0.5,13.3,1.6,20c0.3,10.3,3.5,30.7-3.8,38.9
		c-1.8,2.1-4.1,3.6-6.5,5c-2.5-0.2-5.2,0-7.3-1.5l0.9-2.3C1171.3,1065.3,1174.8,1061.9,1178.5,1057.7z"/>
	<path style="fill:#FDFDFD;" d="M1104.3,996.1l50.2-0.2c0.2,6.9,1.6,16.3-0.1,22.9c-0.4,1.8-0.4,2.7,0.2,4.5
		c-5.9,3.9-14.5,8-18.1,14.2c-0.5,0.2-1,0.4-1.5,0.6c-4.1,1.6-9.6-2.3-13-0.6l-1.2-0.7l-0.3,1.5h0.8c2.3,0.1,4.1,0.4,6.3,1.2
		c0.4,2.7-0.5,3.4-2.1,5.5c-0.3,0.5-0.7,0.9-1.1,1.4c-7.1-0.5-14-7.2-19.6-11.3C1103.9,1022.3,1104.4,1009,1104.3,996.1z"/>
	<path style="fill:#8F49F9;" d="M1110.9,999c3.2,0.1,3.7-0.3,6.1,1.8c1.8,7.6,2,13,0.4,20.7c-2.7,0-5.1,2.4-7.2,4l-1.8,2.8l-1.2-1.8
		c-0.8-8.1-1.7-18.5,0.6-26.4L1110.9,999z"/>
	<path style="fill:#8F49F9;" d="M1121.7,999.1c7.8-0.2,16.7-1.4,24.4,0.2l1.2,2.2c-0.4,2.8-0.7,5-2.4,7.2c-0.8,1.1-1.3,1.5-1.5,2.9
		c-0.3,2-0.3,4.1-0.5,6.1c-0.5,1.1-0.2,0.8-1,1.5c-2,1.8-2,1.5-4.6,1.4c-1-1.1-2.1-2.3-3.2-3.3c-3.8-3.7-7.1-0.9-11.9-0.8
		C1120,1012.8,1121.5,1003.5,1121.7,999.1z"/>
	<path style="fill:#F7A454;" d="M1007.8,628.8c9,4.8,18.6,9.6,21.6,20.3c3.1,10.7,2.5,177.5,1.1,197.9c-0.3,4.8-0.7,8.9-3.2,13.2
		c-3.3,5.5-8.6,9.9-14.9,11.2c-19.4,4.2-43.3,1.7-63.2,1.7l-117,0.1l-6.9,0.1l-25-0.1c-0.7-10.3-3.1-18.9-6.8-28.5l1.9-0.1
		c38.9,1.3,77.9,0.8,116.9,1c23.8,0.1,48.8,1.7,72.5-0.2c5.1-0.4,15.7-1.5,19.4-5.3c3.4-3.5,4-13.9,4.2-18.5
		c1.1-20.3-0.5-41.5-0.4-61.9C1008.2,715.9,1008.7,672.3,1007.8,628.8z"/>
	<path style="fill:#EB6A51;" d="M793.6,844.5l1.9-0.1c12.7,8.2,20.4,17,29.8,28.7l-25-0.1C799.6,862.8,797.2,854.1,793.6,844.5z"/>
	<path style="fill:#57BCEB;" d="M1721.2,933.8c1.1-2.1,1.3-2.6,1.3-4.9c3.2,6.1,2.7,129,1.3,145.5l-1.1,0.2
		c-23.4-2.8-64.2-0.2-89.7-0.1c-9.4,0.1-20.5,1-29.7-0.8c-3.2-0.6-5.8-2.2-8.6-3.9c-0.9-0.8-1.7-1.6-2.6-2.4
		c-3.1-3.1-5-6.6-5.9-10.9c-4.1-19.4-1.2-87.7-1-111.7c1.6-2.2,3.2-4.5,5.2-6.4c2.3-2.3,4.6-3.5,7.8-4c13.4-2.3,29.1-0.8,42.7-0.7
		L1721.2,933.8z"/>
	<path style="fill:#FDFDFD;" d="M1620.3,986c27.1-2,56.3-0.7,83.5,0.1l-0.8,0.9l0.7-0.9l2.1,0.4l0.3,1.5l-2.8,3.8
		c-6.9,1.3-77.4,1.6-81.2-0.3C1620.9,990.8,1620.6,987.5,1620.3,986z"/>
	<path style="fill:#FDFDFD;" d="M1622.1,975.8c12.8-0.1,76.5-2.6,83.5,2.2l-0.1,2.2l-2.7,2.3c-25.9,0.1-53.2,2.1-79-0.1
		c-1.8-0.1-1.5-0.5-2.6-1.7L1622.1,975.8z"/>
	<path style="fill:#FDFDFD;" d="M1620.6,995.1c18.1,0,70.7-2.3,84.5,0.7l0.9,2.1l-2.3,3.7c-10.6,2.4-67.3,1-81,0.2
		C1620.3,999.7,1620.8,998.2,1620.6,995.1z"/>
	<path style="fill:#FDFDFD;" d="M1620.6,1004.8c12.4,0,79.8-2.7,85.5,2.2c-0.3,2.9-1,3.4-2.8,5.6c-10.6,2.4-66.5,0.9-80.2,0.1
		C1620.7,1009.9,1621,1008.3,1620.6,1004.8z"/>
	<path style="fill:#2971C9;" d="M1721.2,933.8c1.1-2.1,1.3-2.6,1.3-4.9c3.2,6.1,2.7,129,1.3,145.5l-1.1,0.2
		c-23.4-2.8-64.2-0.2-89.7-0.1c-9.4,0.1-20.5,1-29.7-0.8c-3.2-0.6-5.8-2.2-8.6-3.9l1.7-4.1c7.8-3,108.3-1,124.8-0.8
		c0.7-1.1,0.7-1,1.2-2.4c2-5.4,1.5-112.1,0.3-123.8C1722.6,937,1721.9,935.3,1721.2,933.8z"/>
	<path style="fill:#DCD9E8;" d="M1547.4,643.3c5.7-0.2,22.8-2.4,26.6,1.8c0.4,0.4,0.5,1,0.7,1.6c-2,65.5-1.4,131.4-1.4,196.9
		c0,25.1,2.6,54.6,0.4,79.1c-0.6,6.4-2.3,18.3-6.9,23c-3.2,3.3-8.3,5-12.8,5.4c-23.3,2.2-50.7,0.2-74.4,0.3l-159.6-0.1
		c-49.9-0.4-99.8,0.7-149.7,0.8c-19.8,0-39.8,0.7-59.5-0.2c-9.9-0.4-17.1-1.9-24-9.5c-4.4-4.8-7.9-11.1-9.1-17.6
		c-10.2-7-14.5-13.1-18-25c7.7,9.5,13.8,17.1,25.9,20.8c5.6,1.7,425.1,2.3,435.9-0.6c12.7-3.4,19.8-16.2,25.9-26.7
		C1545.3,810.2,1547.4,726.4,1547.4,643.3z"/>
	<path style="fill:#2971C9;" d="M1547.6,893.2c-0.2,9.9-1.8,18.7-9.3,25.9c-4.6,4.4-10.6,7.3-17,8c-19.6,2.1-40.6,0.7-60.4,0.7
		h-115.4l-170.1,0.2c-28.1,0-56.7,1.1-84.7-0.6c-4.4-0.3-8.6-1.1-12.8-2.7c-10.2-7-14.5-13.1-18-25c7.7,9.5,13.8,17.1,25.9,20.8
		c5.6,1.7,425.1,2.3,435.9-0.6C1534.4,916.5,1541.5,903.8,1547.6,893.2z"/>
	<path style="fill:#FDFDFD;" d="M829.8,905.5c36.2-3,74.1-0.2,110.5,0.1c20.5,0.2,42.5-2,62.7,0.2c4.8,0.5,8.5,1.8,12.4,4.8
		c5.2,4.2,6.1,8.6,6.5,15c0.7,11.1-0.2,22.6-0.4,33.7l-0.3,64.1c-0.1,18.9,2,46.1,0.3,64c-0.5,4.8-1.4,9.2-4.8,12.8
		c-3,3.3-12.3,3-16.5,3.1c-56.3,0.7-112.9-0.1-169.2-0.9c-0.5-9.8,0-19.7,0.1-29.5c0.2-13.4,0.1-26.8-0.2-40.2
		c-3-6.4-2.5-12.4-2.3-19.3c-0.1-11.4-1.3-24.5,1.9-35.5c-1.1-13.6-0.4-28-0.5-41.7l-29.3-0.2l-0.2-30.3
		C810.3,906,820,906,829.8,905.5z"/>
	<path style="fill:#DCD9E8;" d="M800.5,905.8c9.8,0.2,19.5,0.2,29.3-0.3l0.2,30.8l-29.3-0.2L800.5,905.8z"/>
	
		<linearGradient id="SVGID_00000061469718741680065100000012797745254488342661_" gradientUnits="userSpaceOnUse" x1="976.5992" y1="1086.8806" x2="818.3226" y2="1037.516" gradientTransform="matrix(1 0 0 1 0 -54)">
		<stop  offset="0" style="stop-color:#D4597B"/>
		<stop  offset="1" style="stop-color:#FF82A0"/>
	</linearGradient>
	<path style="fill:url(#SVGID_00000061469718741680065100000012797745254488342661_);" d="M830,936.3l73.4,0.3
		c12.2,0,25.8-1.4,37.9,0.5c7.6,1.2,16,3.9,21.6,9.4c4.5,4.5,8.1,10.7,9.6,16.9c3.8,16,1.8,58.5,1.6,77c-0.1,10-1.1,19-8.9,26.2
		c-3.5,3.2-7.1,4.9-11.6,6c-18.7,1.6-38.4,0.5-57.2,0.5l-65.1-0.1c0.2-13.4,0.1-26.8-0.2-40.2c-3-6.4-2.5-12.4-2.3-19.3
		c-0.1-11.4-1.3-24.5,1.9-35.5C829.4,964.4,830.1,950.1,830,936.3z"/>
	<path style="fill:#FDFDFD;" d="M902.1,953.6c1.1,0.4,2.1,1.2,3,1.8c2.3,10.5,2.5,63.7,0.2,74.3l-2.4-0.1
		C899.6,1022.5,901.9,965.7,902.1,953.6z"/>
	<path style="fill:#CC4480;" d="M853.9,1032.7c5.8,0.1,11.7,0.6,17.4-0.6c2.9-3.4-0.4-5.6,1.9-9.4l4,0.1c-0.3,8.6-2.5,19.9,3.3,27.1
		c5.1,3.2,46.6,3.1,53.1,1.7l0.2-0.3c-20.9,3.6-34.3,0-54.3,0.8c6,5.9,12.8,11.8,17.3,18.9c14.9,0.1,43.4-2.6,56.8,1.6
		c-18.7,1.6-38.4,0.5-57.2,0.5c-5.8-7.2-12.4-15.7-19.9-21c-1.3,0-2.7,0-4-0.2C867,1051.5,857.8,1037.2,853.9,1032.7z"/>
	<path style="fill:#FDFDFD;" d="M878.4,970.4c0-4.7-1-11.9,1.7-15.6c2.9-1.1,5.9-1.5,9-0.4c1,0.4,1.7,1.1,2.5,1.8
		c2.3,21.4,1.4,47.1,0,68.6c-3.3,1.6-7.3,0.7-10.6-0.6c-0.9-0.4-1.8-0.8-2.7-1.3C878.8,1005.5,878.3,987.9,878.4,970.4z"/>
	<path style="fill:#54CBCC;" d="M867,970.3l11.4,0.1c-0.1,17.5,0.4,35.1-0.2,52.6l-1.1-0.1l-4-0.1c-2.3,3.7,1,6-1.9,9.4
		c-5.7,1.1-11.6,0.7-17.4,0.6h-23c-3-6.4-2.5-12.4-2.3-19.3l37.9-0.5L867,970.3z"/>
	
		<linearGradient id="SVGID_00000086663174748589992640000012250658687207564429_" gradientUnits="userSpaceOnUse" x1="864.2805" y1="1063.2969" x2="833.1859" y2="1030.6713" gradientTransform="matrix(1 0 0 1 0 -54)">
		<stop  offset="0" style="stop-color:#83C8DC"/>
		<stop  offset="1" style="stop-color:#79DEE2"/>
	</linearGradient>
	<path style="fill:url(#SVGID_00000086663174748589992640000012250658687207564429_);" d="M830.5,978.1c1.2-1.5,2.4-3.1,3.8-4.5
		c6.1-6,24.4-3.4,32.6-3.3l-0.5,42.7l-37.9,0.5C828.5,1002.2,827.3,989,830.5,978.1z"/>
	<path style="fill:#F57397;" d="M830.9,1032.8h23c3.9,4.4,13.1,18.8,18.4,19.2c1.3,0.1,2.7,0.1,4,0.2c7.5,5.3,14.1,13.9,19.9,21
		l-65.1-0.1C831.2,1059.6,831.2,1046.2,830.9,1032.8z"/>
	<path style="fill:#F8C671;" d="M747.2,820.6c0.7-55.2-1.2-110.4-0.3-165.6c0.1-8.1-0.3-16.7,6.1-22.6c2.3-2.1,4.2-3.2,7.3-3.6
		c10.3-1.2,21.3-0.4,31.7-0.4h59.6c51.8-0.1,104.5-2.2,156.1,0.3c0.9,43.5,0.3,87.1,0.3,130.6c0,20.4,1.6,41.6,0.4,61.9
		c-0.3,4.7-0.8,15-4.2,18.5c-3.7,3.8-14.3,4.9-19.4,5.3c-23.7,2-48.7,0.3-72.5,0.2c-39-0.2-78,0.4-116.9-1l-1.9,0.1
		c-2.1-2.8-4.2-5.6-6.6-8.2C775.8,824.7,763,821,747.2,820.6z"/>
	<path style="fill:#283580;" d="M870.5,664.3c19.5-2,38.5,1.3,55.3,11.9c17.6,11.1,30.4,28.8,35,49.1c5,21.9,0.9,45.1-11.2,64
		c-12.6,19.6-31.3,30.6-53.7,35.7c-20.8,2.1-39.9-0.1-57.9-11.6c-18.2-11.7-30.6-31-35.1-51.9c-4.5-21-0.4-43.2,11.5-61.1
		C827.5,680.2,847.2,669,870.5,664.3z"/>
	<path style="fill:#FDFDFD;" d="M874.6,671.6c16.6-1.8,33.9,2.6,47.9,11.6c16.3,10.5,27.6,27.2,31.6,46.1c4,19.2,0,39.7-10.7,56.1
		c-12,18.3-29.9,28.1-50.9,32.4c-17.8,2.4-36-1.2-51.1-11.1c-16.9-11.1-27.8-29.1-31.7-48.8c-3.7-19,0.4-37.9,11.4-53.8
		C834,685.2,852.5,675.6,874.6,671.6z"/>
	<path style="fill:#5E60B5;" d="M896.5,809c-14,1.5-27,1.5-40.3-3.9c-16.1-6.6-28.9-19.6-35.3-35.8c-6.4-16.1-6.2-33.9,0.7-49.8
		c7.1-16.2,20.4-28.9,36.8-35.3c16.3-6.3,35-6,51,1.2c18.3,8.2,28,22.5,35.1,40.6c3.9,16.8,3.3,30.7-3.7,46.6
		C929.7,791.5,917.9,802.7,896.5,809z"/>
	<path style="fill:#133069;" d="M873,737.5c15.9-7,31.3-14.9,47.5-21.1c5.2,2.8,9.5,5.7,14,9.4l-5.8-0.8l-0.4,0.4
		c-7.3-2.6-13.4,0.7-20,3.8c-9.3,4.4-20.6,13.6-31,13.9C875.2,741.5,874.3,739.9,873,737.5z"/>
	<path style="fill:#FDFDFD;" d="M873,737.5c1.3,2.4,2.2,4,4.4,5.6c10.4-0.3,21.7-9.5,31-13.9c6.6-3.1,12.7-6.4,20-3.8
		c-0.8,4.3-0.6,6.3-4.3,9c-10.3,7.7-36.5,19.9-49.2,22l-8.8-1.6c-1.2-0.9-2.5-1.8-3.4-2.9c-2.1-2.3-3.6-6-3.1-9.2
		c0.5-3.4,2-4.3,4.5-6.3C867.7,735.8,869.7,736.2,873,737.5z"/>
	<path style="fill:#283580;" d="M928.4,725.4l0.4-0.4l5.8,0.8c4,1.4,6,1.5,10,0.2c3.9,16.8,3.3,30.7-3.7,46.6
		c-4.5-2.7-8.3-6.4-12.5-9.6c-8.7-6.7-26,2.5-36.3,3.7c-4.3,0.5-10,0.3-13.3-2.7c-2.2-2.1-3.7-4.5-3.9-7.6
		c12.6-2.1,38.9-14.3,49.2-22C927.8,731.7,927.6,729.7,928.4,725.4z"/>
	<path style="fill:#3A4B9A;" d="M866.2,754.9l8.8,1.6c0.2,3,1.7,5.5,3.9,7.6c3.3,3.1,9.1,3.3,13.3,2.7c10.3-1.3,27.6-10.4,36.3-3.7
		c4.1,3.2,7.9,6.9,12.5,9.6c-11.2,18.9-23,30.1-44.4,36.4c-9.5-10.7-18.2-18.2-24.8-31.6C868.9,771.7,863.9,761.2,866.2,754.9z"/>
	<path style="fill:#37A5E0;" d="M1547.8,470.8c1.1,23,0.4,46.1,0,69.1c8,0.1,16.3-0.3,24.3,0.6c-8.2,0.1-16.5,0.2-24.7,0
		c-0.2,10.1-2.6,33.7,0.8,42.1v0.8c-3.4,15.9-0.9,42.8-0.8,60c0,83.1-2.1,166.8,0.2,249.9c-6.1,10.6-13.2,23.3-25.9,26.7
		c-10.8,2.9-430.3,2.3-435.9,0.6c-12.1-3.6-18.3-11.2-25.9-20.8c-4.4-15.6-1.7-74.8-1.7-93.8c0-74.6,1-149.5-0.7-224.1
		c-0.9-14.9-0.4-30-0.4-44.9c-0.4-9.5-0.2-19-0.2-28.5c31.9,0.2,64.1-0.9,96,0.2c14.7-1.5,30.5-0.6,45.4-0.6l86.4-0.1l263,0.5
		l-0.1-28.6L1547.8,470.8z"/>
	<path style="fill:#115BB4;" d="M1292,764.9c7.4,0.3,16.4,1.9,22.7-2.6c2-3.1,2-5.5,2-9.1c1.9,2.1,2.2,2.6,5,3.5
		c-0.8,5.2-1.6,10.4-2,15.7c-7.7,0.8-21.4,4.1-27.9-0.6c-0.8-2.5-1-3.7,0-6.2C1291.8,765.3,1291.9,765.1,1292,764.9z"/>
	<path style="fill:#115BB4;" d="M1366.1,729.9c1.5,4.7,2.7,7.9,0.3,12.6c-3.5,7.1-11.6,13.1-18.3,16.9c-4.3-3.9-8.5-8-13.3-11.3
		c1.7-0.3,2.8,0.1,3.9-1.4l-1-3.9l10.1,7C1355.1,744.2,1360.8,737.4,1366.1,729.9z"/>
	<path style="fill:#115BB4;" d="M1380.3,681.1c3.4,2.8,4.1,3.7,4.6,8.3c0.6,6.3,1,12.2-2.7,17.7c-4.3,1.9-10.5,1.2-15.2,1.2
		c-1.8,4.4-3.4,9.1-5.6,13.3l-3-4.1c-1.3-5.8,1.7-11.7,3.6-17.2c5.6,0.1,12.2,1.1,16.6-2.9C1381.2,692.7,1380.4,686.3,1380.3,681.1z
		"/>
	<path style="fill:#2971C9;" d="M1202.7,805.2c16.5,0.7,33.1,0.4,49.6,0.3c-0.2,3-0.9,4.8,0.6,7.4c14.7,1.9,31.1,0.1,46,0.1
		c39.2,0,78.9-1.1,118.1,0c-13.9,3.5-32.8,1.3-47.4,1.3l-108.1-0.2c-17.7,0-37.2-1.7-54.7,0.6c-1.5-1.3-3.4-2.6-4.3-4.4
		C1201.4,808.1,1202,807.4,1202.7,805.2z"/>
	<path style="fill:#115BB4;" d="M1415.6,798.4c2.3,5,3.7,8.6,1.6,14c-0.1,0.2-0.2,0.4-0.3,0.7c-39.1-1.2-78.9-0.1-118.1,0
		c-14.9,0-31.2,1.8-46-0.1c-1.6-2.6-0.9-4.4-0.6-7.4l108.5,0.2c12,0.1,38.2,2.3,48.8-0.6C1412.2,804.5,1414.3,800.4,1415.6,798.4z"
		/>
	<path style="fill:#FDFDFD;" d="M1410.3,791.4l5.3,6.9c-1.4,2.1-3.5,6.1-5.9,6.7c-10.7,3-36.9,0.7-48.8,0.6l-108.5-0.2
		c-16.5,0-33.1,0.3-49.6-0.3l-2.4-3.4c-0.3-3.3-0.4-3.9,1.1-6.9c2.3-1.8,4-2.4,7-2.7c13.8-1.4,28.6-0.2,42.6-0.2L1354,792
		C1372.4,792.2,1391.9,793.5,1410.3,791.4z"/>
	<path style="fill:#FDFDFD;" d="M1285.9,626v-0.7c0.1-5.2-0.5-10.6,3.8-14.4c5.7-5,20.7-2.7,28.2-2.4c0.8,5.2,1.3,10.5,1.9,15.7
		c2.6,4,9.2,5.8,13.5,7.6c4.3-3.7,8.6-7.9,13.4-11c7.3,6,15,11.6,18.8,20.5c1.6,3.5,3.1,6.5,1.8,10.4c-1.3,3.9-4.6,7-7.4,10
		c0.8,2.4,1.1,5.3,3.4,6.6c5,2.9,12.8-0.8,15.5,6c0.8,2.1,1.1,4.5,1.4,6.8c0.1,5.2,0.9,11.7-1.7,16.3c-4.5,4-11,3-16.6,2.9
		c-1.9,5.5-4.9,11.4-3.6,17.2l3,4.1c1.6,2.5,4,5.5,4.7,8.3c-5.3,7.5-11,14.3-18.3,20l-10.1-7l1,3.9c-1.1,1.4-2.2,1.1-3.9,1.4
		c-4.3,2.7-9.3,5.2-13.2,8.5c-2.8-0.9-3.1-1.4-5-3.5c0,3.6,0,6-2,9.1c-6.3,4.5-15.3,2.9-22.7,2.6c-0.3-0.1-0.6-0.3-0.8-0.4
		c-3.1-2.3-4.3-7.9-4.9-11.4c-5.4,1-9.4-1.9-14.1-4.5l-12.5,10.6c-3.2-1-5.3-2.8-7.7-5.1c-4.2-4-9.4-9.2-9.5-15.2
		c-2.3-2.6-3.7-4.4-4.5-7.8c0.5-5.6,4.5-7.9,6.8-12.5c1.5-3,0.4-5.1-0.7-8c-1-2.2-2.1-4.4-3.3-6.5c-4.6-3.2-11.6-2.9-17.1-3.6
		c-1.5-1.8-1.8-3.7-2-5.9c-0.5-6.4-1.4-17.6,2.9-22.9c5-1.9,10.9-1.3,16.2-1.3l7.2-13.5l-11-15.3c5.9-8.4,12.5-14.8,20.7-20.9
		l13.6,11.8L1285.9,626z"/>
	<path style="fill:#115BB4;" d="M1365.5,641.4c1.6,3.5,3.1,6.5,1.8,10.4c-1.3,3.9-4.6,7-7.4,10c-1.6-2.1-2.5-3.9-3.4-6.4
		c0.9-4.6,5.9-8.7,8.4-12.9L1365.5,641.4z"/>
	<path style="fill:#115BB4;" d="M1316.7,753.1c0.4-1.9,0.7-4,1.9-5.6c2.8-3.6,8-7,12.5-7.6c3.4-0.4,4,0.9,6.6,3l1,3.9
		c-1.1,1.4-2.2,1.1-3.9,1.4c-4.3,2.7-9.3,5.2-13.2,8.5C1318.9,755.7,1318.6,755.2,1316.7,753.1z"/>
	<path style="fill:#115BB4;" d="M1255,749.9l14.9-10.8c5.6,2.5,13.3,4.8,15.6,11.1c0.2,0.7,0.4,1.4,0.6,2.1c0.1,0.3,0.2,0.5,0.2,0.8
		c-5.4,1-9.4-1.9-14.1-4.5l-12.5,10.6c-3.2-1-5.3-2.8-7.7-5.1c-4.2-4-9.4-9.2-9.5-15.2L1255,749.9z"/>
	<path style="fill:#2971C9;" d="M1272.4,695.8c-1.8-7.1-1.9-13.4,0.9-20.2c3.3-8.1,9.7-14.6,17.8-17.9c7.5-3.1,16-3.2,23.4,0
		c8.8,3.8,14,10.8,17.4,19.5c-0.4-0.2-0.9-0.4-1.3-0.6c-5.9-3.1-8-8.7-15.1-10.9c-7.9-2.4-15.5-3.8-23.2,0.4
		C1276.6,674.9,1278.8,687.3,1272.4,695.8z"/>
	<path style="fill:#57BCEB;" d="M1272.4,695.8c6.4-8.4,4.2-20.9,20-29.6c7.7-4.3,15.3-2.8,23.2-0.4c7.1,2.2,9.2,7.8,15.1,10.9
		c0.4,0.2,0.8,0.4,1.3,0.6c2.7,6.7,2,14.8-0.7,21.4c-3,7.5-10,13.5-17.4,16.4c-7.7,3-16.2,2.6-23.7-0.7
		C1282,710.8,1275.9,703.7,1272.4,695.8z"/>
	<path style="fill:#57BCEB;" d="M1056.8,508.6c31.9,0.2,64.1-0.9,96,0.2c23.3,1.8,47.6,0.6,71.1,0.6l135.5,0.1
		c-9.4,29-18.7,58.3-29.1,87c-2.4,6.7-10.8,21.9-10.4,27.8c-0.6-5.2-1.1-10.5-1.9-15.7c-7.4-0.3-22.4-2.6-28.2,2.4
		c-4.3,3.7-3.7,9.2-3.8,14.4v0.7l-14.5,6.3l-13.7-12c-8.2,6.1-14.8,12.5-20.7,20.9l11,15.3l-7.2,13.5c-5.3,0-11.2-0.5-16.2,1.3
		c-4.4,5.3-3.4,16.5-2.9,22.9c0.2,2.2,0.5,4.1,2,5.9c5.5,0.7,12.5,0.5,17.1,3.6c1.2,2.2,2.3,4.3,3.3,6.5c1,2.9,2.2,5,0.7,8
		c-2.4,4.7-6.3,6.9-6.8,12.5c0.8,3.4,2.2,5.2,4.5,7.8c0.1,6.1,5.3,11.2,9.5,15.2c2.4,2.3,4.5,4.1,7.7,5.1l1.2-0.5
		c4.1-1.6,6.7-3.3,9.9-6.3l3.3-0.6c1.2,1.4,1.4,1.4,1.3,3.2c-0.5,10.5-10.5,26.3-15.2,36.1l105-0.1c13.8,0,31.9-2.2,45,0.7
		c-18.4,2-37.9,0.7-56.4,0.7L1251,792c-13.9,0-28.8-1.2-42.6,0.2c-3,0.3-4.6,0.9-7,2.7c-1.5,3.1-1.4,3.7-1.1,6.9l2.4,3.4
		c-0.7,2.2-1.3,2.9-0.2,5.1c0.9,1.8,2.8,3.2,4.3,4.4c13.8,2.1,29.1,0.6,43,0.3c-12.4,31.9-26.7,76.3-44.6,104.2
		c-28.3,2.2-57.4,1-85.8,0.9c-11.1,0-22.5-0.7-33.5,0.4c-12.1-3.6-18.3-11.2-25.9-20.8c-4.4-15.6-1.7-74.8-1.7-93.8
		c0-74.6,1-149.5-0.7-224.1c-0.9-14.9-0.4-30-0.4-44.9C1056.7,527.6,1056.9,518,1056.8,508.6z"/>
	<path style="fill:#115BB4;" d="M1223.7,700.2c5.5,0.7,12.5,0.5,17.1,3.6c1.2,2.2,2.3,4.3,3.3,6.5c-4.7-0.4-10.7,0.5-15-1.5
		C1225.9,707.3,1224.9,703.4,1223.7,700.2z"/>
</g>
</svg>
