<?xml version="1.0" encoding="utf-8"?>
<!-- Generator: Adobe Illustrator 27.5.0, SVG Export Plug-In . SVG Version: 6.00 Build 0)  -->
<svg version="1.1" id="Layer_1" xmlns="http://www.w3.org/2000/svg" xmlns:xlink="http://www.w3.org/1999/xlink" x="0px" y="0px"
	 viewBox="0 0 8530 4781" style="enable-background:new 0 0 8530 4781;" xml:space="preserve">
<g>
	<path style="fill:#FDFDFD;" d="M4265.402,0.547c1412.831,0,2825.662,0.06,4238.493-0.547c21.964-0.009,26.918,4.945,26.909,26.907
		c-0.6,1575.73-0.6,3151.459,0,4727.188c0.009,21.962-4.946,26.909-26.909,26.904c-2825.662-0.574-5651.324-0.574-8476.985,0
		c-21.963,0.004-26.917-4.942-26.909-26.904C0.6,3178.366,0.6,1602.637,0,26.907C-0.008,4.945,4.945-0.009,26.909,0
		C1439.74,0.607,2852.571,0.547,4265.402,0.547z"/>
	<path style="fill:#FDD475;" d="M4506.338,1299.567c-5.799,5.173-4.732,12.207-5.53,18.93c-2.256,19.022,3.64,24.412,22.601,17.076
		c52.534-20.326,107.326-26.562,163.415-23.677c118.448,6.092,207.601,62.463,275.581,157.454
		c43,60.086,62.739,128.414,76.553,199.349c12.986,17.38,8.007,37.604,7.424,56.429c-2.861,92.253-26.789,178.56-80.25,254.638
		c-21.632,30.783-46.569,59.687-81.178,77.796c-18.358,4.056-36.962,2.718-55.459,2.72
		c-558.102,0.073-1116.203,0.052-1674.304,0.067c-57.689,0.001-56.934,0.062-57.94,57.751
		c-0.934,53.541,4.401,107.233-3.337,160.591c-1.267,3.371-3.302,6.29-5.962,8.72c-107.274,16.566-209.156,7.16-297.709-63.669
		c-27.786-22.225-57.728-42.939-68.094-80.11c-85.094-137.675-83.551-277.364-9.813-418.775c2.243-4.3,3.756-8.981,5.609-13.484
		c26.551-59.157,72.106-100.26,129.299-126.952c45.07-21.033,93.724-31.703,144.46-24.35c10.806,1.566,20.384-0.807,23.514-11.939
		c13.553-48.199,47.748-83.948,73.89-124.574c59.247-59.85,131.882-93.315,214.782-100.331
		c57.016-4.826,115.31-5.828,170.585,13.944c21.326,7.628,21.493-8.283,27.937-18.622c9.959-132.667,43.619-257.701,123.611-366.364
		c105.027-142.671,244.998-221.335,424.321-218.431c136.692,2.213,247.827,60.73,334.538,166.281
		c8.493,10.338,13.858,23.619,26.536,30.344c20.257,9.756,26.517,30.246,35.511,48.039
		C4498.06,1079.581,4517.063,1186.871,4506.338,1299.567z"/>
	<path style="fill:#333C76;" d="M5320.632,3848.473c0.041-78.082-0.293-156.167,0.434-234.243
		c0.149-15.948-3.526-22.115-20.912-22.089c-260.641,0.391-521.283,0.253-781.923-0.302c-17.481-0.037-21.769,5.175-18.614,22.066
		c13.427,71.902,26.179,143.934,38.436,216.044c2.276,13.393,7.935,17.433,21.159,17.101c34.145-0.86,68.337-0.861,102.488-0.14
		c30.506,0.644,48.693,19.042,48.107,46.801c-0.53,25.108-19.666,42.317-49.521,42.325c-307.499,0.081-614.997,0.021-922.495-0.417
		c-39.219-0.056-61.564-23.591-54.309-54.952c5.761-24.901,22.822-34.229,47.438-34.143c55.639,0.194,111.28-0.311,166.919-0.723
		c9.351-0.069,19.522,2.198,21.531-12.782c9.717-72.474,20.174-144.848,30.368-217.258c3.49-9.781,4.906-18.91-7.503-23.716
		c-192.381-1.702-384.706-0.271-577.03-0.713c-60.559-0.139-66.171-11.783-83.208-69.722c-14.298-48.626,2.785-89.911,9.473-134.193
		c2.678-17.734,15.649-26.159,31.839-30.366c15.301-3.977,30.991-3.478,46.601-3.48c320.23-0.045,640.46-0.036,960.69-0.021
		c301.663,0.014,603.326,0.141,904.988-0.19c45.951-0.05,91.37,7.703,137.353,6.994c23.083-0.356,35.737,11.243,35.075,36.478
		c-0.712,27.147,3.77,54.265,2.277,70.381c0.727-31.345-5.218-73.824,0.135-116.304c0.488-3.873,0.776-7.78,1.649-11.59
		c2.228-9.729,5.499-22.499,15.742-22.04c11.729,0.526,11.08,14.256,11.268,23.679c0.892,44.897,0.574,89.81,0.241,134.711
		c-0.132,17.823,1.19,35.039,9.421,51.167c7.394,51.396,2.18,103.1,3.471,154.657c0.984,39.292,1.814,40.756,41.538,40.982
		c106.231,0.604,212.469-0.958,318.71,0.777c105.085-1.709,210.159-1.001,315.224-0.272c43.902-1.357,87.826,0.125,131.734-0.662
		c31.162-0.559,34.851-3.317,34.914-32.923c0.501-235.221,0.328-470.444,0.153-705.667c-0.006-8.775-0.167-17.625-4.992-25.438
		c-8.774-10.649-20.959-8.831-32.513-8.834c-258.204-0.062-516.407-0.052-774.61-0.001c-8.713,0.002-17.602-0.915-25.735,3.297
		c-2.712,2.073-5.341,4.229-7.636,6.766c-8.687,11.708-7.667,36.673-27.175,32.489c-16.058-3.444-14.462-25.446-16.108-40.393
		c-8.551-77.669-3.387-83.175,74.641-83.176c261.038-0.003,522.074-0.18,783.111,0.313c22.707,0.043,47.034-6.791,67.726,9.684
		c6.016,4.791,7.928-2.717,11.678-4.568c13.222-6.526,26.095-6.798,38.73,1.496c14.843,20.163,2.322,40.975,1.493,61.514
		c-0.015,296.713,0.006,593.423-0.009,890.133c-0.001,33.398-2.454,36.89-36.052,37.207c-81.004,0.764-162.014,0.033-243.023-0.347
		c-233.282-1.097-466.565,0.58-699.849,0.685c-14.627,0.007-29.284,0.751-43.874-0.84
		C5345.738,3862.149,5328.78,3866.73,5320.632,3848.473z"/>
	<path style="fill:#373D79;" d="M6378.343,2876.671c-11.29,4.188-35.023-13.078-31.065,19.148
		c0.566,4.618-22.301,8.426-21.999-2.378c0.752-26.891-17.625-16.238-27.755-16.27c-193.269-0.61-386.542-0.451-579.813-0.45
		c-91.755,0-183.522,0.813-275.257-0.552c-23.912-0.356-30.409,7.581-29.264,30.151c1.41,27.807-0.621,55.798,9.163,82.927
		c20.02-7.74,8.229-30.954,21.316-41.559c8.831,9.433,8.643,21.416,8.666,33.005c0.342,171.225,0.421,342.45-0.053,513.676
		c-0.032,11.567,0.058,23.617-9.613,32.545c-11.728-10.138-11.557-23.794-11.521-37.637c0.146-55.555,0.06-111.111-2.052-166.823
		c-26.453,62.732-8.566,130.562-18.709,195.323c-11.403-11.672-9.816-24.811-7.967-36.334c4.344-27.074,0.653-53.687,0.204-80.561
		c-0.396-23.704-7.396-31.634-31.954-32.715c-240.845-10.598-481.787-3.713-722.669-4.852
		c-88.642-0.419-177.467,1.877-265.995,1.512c-96.415-0.396-192.972-1.235-289.444-1.618c-246.007-0.975-492.02-0.301-738.031-0.391
		c-13.718-0.005-27.145,0.242-40.224,5.513c-6.699,2.701-13.316,5.356-14.467,12.848c-8.368,54.464-26.359,108.864-5.472,164.042
		c9.56,25.254,25.458,40.942,56.606,40.773c190.36-1.034,380.729-0.62,571.093-0.249c10.797,0.021,23.826-5.718,32.109,7.188
		c-60.441,2.876-120.917,0.997-181.375,1.134c-149.321,0.339-298.646,0.576-447.961-0.386c-22.608-0.146-30.384,5.136-29.657,28.938
		c1.724,56.544,0.742,113.181,0.454,169.749c-12.93,10.425-11.104-2.554-11.145-7.968c-0.453-59.437-0.249-118.877-0.445-178.323
		c0,53.517-1.099,107.067,0.517,160.535c0.688,22.754-7.111,33.927-29.242,32.124c-35.106-2.861-69.364,8.642-104.46,4.802
		c-11.226-1.228-20.311,5.785-29.71,10.844c-18.997,2.606-36.427-6.296-54.955-7.481c-38.681-12.259-78.521-5.859-117.851-7.365
		c-13.479-0.516-27.224,1.417-40.37-1.559c-7.39-1.672-22.051,1.486-16.745-15.306c13.946-9.701,29.991-7.419,45.399-7.417
		c94.662,0.013,189.327-0.845,283.96,0.66c45.333-2.087,45.469-2.087,45.525-46.258c0.109-84.826,0.102-169.653-0.041-254.479
		c-0.021-12.556,1.713-25.469-5.015-37.093c-7.101-8.875-17.041-8.344-26.857-8.346c-103.493-0.021-206.985-0.04-310.478,0
		c-8.869,0.004-17.635,0.111-24.857,6.244c-10.855,10.137-7.126,23.455-7.835,35.744c-1.501,26.049,3.362,52.402-3.675,78.208
		c-4.056,7.627-7.954,15.098-7.98,24.286c-0.107,38.492-0.087,76.984-0.011,115.477c0.018,9.122,3.607,16.749,7.664,24.444
		c3.069,9.005,2.697,17.86-1.018,26.587c-11.667,20.157-4.941,42.004-5.646,63.127c-1.136,33.987-7.72,41.07-41.315,42.608
		c-10.72,0.491-21.482,0.677-32.188,0.173c-137.478-6.468-274.08,12.992-411.308,13.802c-8.787,0.052-17.878,1.261-26.111-2.019
		c-38.431-15.313-78.669-12.274-118.483-11.531c-105.26,1.965-210.689-5.866-315.798,5.503c-15.316,1.657-30.624,2.925-41.762,5.382
		c87.645-1.076,179.154-0.911,270.647-0.332c214.485,1.357,428.965-0.301,643.447-0.124c12.676,0.01,25.53-1.163,37.951,1.395
		c8.333,1.716,21.289-0.152,18.831,15.495c-14.033,10.001-30.178,6.398-45.472,6.461c-245.969,1.001-491.94,0.527-737.91,0.036
		c-74.184-0.148-148.342,2.553-222.521,1.322c-14.379-0.239-29.657,2.032-41.495-9.678c0.001-13.527,0.002-27.055,0.002-40.582
		c1.704-0.952,3.479-2.73,5.137-2.618c56.477,3.85,112.196-7.706,168.607-7.548c272.704,0.763,545.412,0.57,818.116-0.203
		c16.115-0.046,38.522,10.64,47.095-15.528c0.048-143.5-0.669-286.963,0.183-430.423c1.166-23.387-1.725-46.825,0.565-70.19
		c4.285-43.701,28.464-67.043,72.334-68.581c36.09-1.265,72.227-0.127,108.34-0.463c39.068-0.363,41.157-2.114,41.058-41.725
		c-0.562-225.448,2.046-450.888,1.306-676.335c-0.215-65.392-0.152-130.786,0.065-196.178c0.042-12.528-1.803-25.604,6.869-36.595
		c0.258-68.304,2.015-136.652,0.03-204.891c-0.786-27.03,8.197-31.714,32.862-31.682c574.9,0.739,1149.802,0.687,1724.703,0.691
		c16.564,0,33.129-0.968,49.694-1.485c13.842-5.392,28.196-6.986,43.014-6.976c142.458,0.09,284.915-0.092,427.373,0.161
		c46.91,0.083,53.103,5.894,53.038,51.729c-0.215,151.213,1.395,302.429-0.759,453.616c1.352,90.516,0.128,181.058,0.613,271.597
		c0.224,41.847,1.476,42.941,42.066,43.405c18.491,0.211,36.995-0.956,55.496,0.464c267.436-1.137,534.852-0.746,802.267-0.805
		c13.659-0.003,27.463-1.142,40.921,1.148C6366.319,2863.789,6378.877,2861.539,6378.343,2876.671z"/>
	<path style="fill:#649FF4;" d="M4506.338,1299.567c-4.987-10.947-5.153-22.578-4.867-34.273
		c2.856-116.347-22.933-225.107-85.7-324.123c-2.038-3.215-2.929-7.157-4.355-10.775c31.413-93.041,95.071-130.104,192.655-111.382
		c16.794,3.222,25.688,2.231,31.096-18.043c29.325-109.924,121.008-179.991,231.192-179.161
		c107.752,0.812,195.702,70.874,224.174,179.546c3.007,11.478,8.01,18.241,18.251,24.131
		c56.614,32.563,89.255,80.393,88.785,147.289c-0.13,18.46,3.563,27.202,25.101,29.506c78.712,8.42,136.752,79.232,131.275,156.68
		c-5.715,80.811-67.744,140.914-147.707,141.001C4972.939,1300.219,4739.638,1299.752,4506.338,1299.567z"/>
	<path style="fill:#7CD4FC;" d="M2722.148,2143.633c57.37,73.916,129.215,124.617,223.437,139.644
		c45.24,7.215,91.022-0.522,136.295,5.281c5.361,8.03,2.857,17.072,2.865,25.617c0.161,172.584-0.313,345.17,0.63,517.749
		c0.128,23.413-5.495,34.78-30.251,32.751c-8.772-0.719-17.418,2.868-25.053,7.232c-68.793,39.319-145.836,60.621-215.185,98.687
		c-8.73,4.792-17.966,7.606-27.907,7.657c-76.055,0.391-152.112,0.953-228.164-0.302c-3.917-0.065-7.692-1.176-11.31-2.594
		c-2.467-1.459-6.343-3.167-6.089-5.71c3.456-34.672-21.721-47.052-45.489-62.869c-56.686-37.723-91.329-92.689-109.088-157.125
		c-24.729-89.722-15.482-177.008,27.864-259.983c4.82-9.226,7.724-20.354,19.502-24.097c31.127-43.049,66.428-81.568,115.47-104.805
		c14.052-6.658,11.761-18.87,11.191-30.295c-1.937-38.815,4.673-75.706,23.454-110.056
		C2614.136,2165.88,2662.056,2143.833,2722.148,2143.633z"/>
	<path style="fill:#7CD4FC;" d="M5409.021,2547.458c-0.704-63.347-1.779-126.693-2.025-190.042
		c-0.363-93.624-0.862-187.26,0.37-280.869c0.292-22.214-6.166-27.811-27.927-27.686c-152.151,0.875-304.31,0.419-456.466,0.302
		c-9.718-0.008-19.436-0.745-29.139-1.146c105.992-95.205,147.487-216.489,144.156-355.964c-0.186-7.766,0.619-15.555,0.966-23.344
		c141.703-87.42,310.216-20.193,353.37,141.393c4.48,16.776,7.045,34.525,7.252,51.861c0.254,21.262,9.665,25.902,29.015,24.395
		c56.747-4.42,110.558,3.394,157.912,39.158c44.019,33.245,76.067,74.98,96.065,126.167c3.15,8.063,3.983,17.222,11.628,22.984
		c18.037,36.838,20.748,77.018,19.466,116.365c-3.912,120.132-51.323,220.703-145.028,297.163
		c-38.107,31.094-82.547,51.238-131.222,60.756C5427.983,2550.796,5418.207,2553.076,5409.021,2547.458z"/>
	<path style="fill:#FC8D6C;" d="M6378.342,2876.671c-8.597-10.062-20.074-4.741-30.002-4.752
		c-267.624-0.291-535.248-0.162-802.872-0.188c-10.669-0.001-21.338-0.821-32.007-1.259c3.5-16.679,17.482-12.253,27.786-12.632
		c28.225-1.039,56.51-0.757,84.753-0.218c15.833,0.302,24.037-4.378,21.496-21.913c-1.868-12.893,0.535-25.978,8.866-36.063
		c38.46-46.553,72.606-96.825,112.608-141.689c36.071-40.455,75.475-78.518,109.634-120.522
		c41.124-50.567,89.715-95.094,124.158-150.98c9.149-14.845,22.435-16.82,37.16-17.867
		c137.749-13.198,256.494,21.065,343.123,136.568c91.226,121.632,93.76,295.261,5.848,420.399c-1.607,2.288-2.099,5.361-3.11,8.068
		c-0.829,3.559-2.167,3.941-4.091,0.655C6380.574,2915.076,6379.458,2895.874,6378.342,2876.671z"/>
	<path style="fill:#FDB45A;" d="M2434.205,2465.571c-27.763,53.936-48.924,109.558-52.471,171.266
		c-6.543,113.831,49.655,236.411,149.495,281.672c28.602,12.966,13.664,33.699,13.55,52.229c-2.656,2.845-5.826,4.899-9.48,6.213
		c-14.291,4.017-28.969,2.816-43.517,2.829c-143.038,0.126-286.076-0.066-429.114,0.141c-47.441,0.069-49.053,1.895-49.123,49.329
		c-0.102,69.079,0.108,138.159-0.128,207.238c-0.05,14.469,1.563,29.349-6.39,42.722c-2.661,3.262-6.034,4.353-10.102,3.298
		c-152.282-106.876-168.89-357.16-51.548-481.415c4.001-4.236,7.573-9.183,12.306-12.37c23.032-15.512,29.894-35.766,30.007-64.211
		c0.63-157.859,125.047-281.229,283.198-282.37C2326.279,2441.743,2382.226,2440.71,2434.205,2465.571z"/>
	<path style="fill:#FDAB5D;" d="M6039.921,2368.589c-35.97,8.372-41.783,45.709-64.144,67.404
		c-50.018,48.529-89.721,106.305-137.784,157.151c-42.101,44.538-86.416,88.696-119.544,141.672
		c-11.23,17.957-25.343,34.57-40.347,49.592c-18.585,18.608-30.459,37.521-20.942,64.896c5.301,15.247-6.283,15.549-16.512,15.583
		c-36.116,0.12-72.233,0.078-108.35,0.13c-6.784,0.01-13.831-0.734-18.842,5.456c-29.109,0.432-58.232,0.503-87.327,1.455
		c-13.695,0.448-18.884-4.792-18.773-18.609c0.822-101.948,1.165-203.899,1.661-305.856
		c123.261-20.268,208.461-90.485,261.272-201.484c35.393-74.389,41.774-153.049,28.616-233.782
		c-2.027-12.437-3.156-25.021-4.706-37.534c168.791-22.628,294.478,96.275,309.187,262.202
		C6005.892,2365.109,6015.741,2371.763,6039.921,2368.589z"/>
	<path style="fill:#A66CC1;" d="M5835.256,1288.705c87.617-1.864,150.923,49.62,174.125,141.612
		c-34.862,76.147-67.78,153.054-95.092,232.331c-7.961,23.107-16.644,46.112-20.11,70.109
		c-3.872,26.797-16.244,45.004-41.273,54.793c-72.239-0.054-144.479-0.107-216.717-0.161c-0.231-0.945-0.987-2.343-0.619-2.769
		c52.426-60.617,66.951-138.706,94.819-210.228c28.912-74.202,59.518-147.705,88.673-221.794
		C5827.239,1331.816,5836.723,1311.759,5835.256,1288.705z"/>
	<path style="fill:#C46AB3;" d="M3093.841,1429.92c-27.838,41.739-62.089,79.742-74.811,130.258
		c-2.36,9.369-11.094,10.13-19.143,9.108c-124.695-15.843-212.343,41.904-279.555,140.421c-0.51,0.747-1.572,1.116-2.382,1.664
		c-25.16-126.547,47.034-287.836,221.868-285.729c23.181,0.279,24.069-10.187,24.874-27.946
		c5.784-127.69,111.235-242.294,228.49-249.395c21.387,5.137,25.835,17.313,16.01,36.513
		c-16.843,32.915-31.058,67.169-50.098,98.965c-8.567,14.307-16.137,29.382-19.635,45.401c-4.933,22.596-14.125,41.837-30.025,58.8
		C3098.874,1399.247,3091.779,1413.253,3093.841,1429.92z"/>
	<path style="fill:#343C71;" d="M6662.354,3931.007c-16.111,34.401-46.262,41.783-80.296,41.775
		c-176.665-0.04-353.329-0.072-529.994-0.087c-314.287-0.025-628.574-0.142-942.861,0.086c-38.453,0.028-72.222-6.868-88.638-47.268
		c3.962-17.627,19.031-14.501,30.638-14.924c31.192-1.135,62.445-1.259,93.667,0.073c104.303-2.884,208.594,1.312,312.893,0.399
		c12.67-0.111,25.352,0.344,38.005-0.797c249.778,0.248,499.556,0.537,749.34-0.103c121.34,3.186,242.667-1.815,364-0.398
		c12.609,0.147,25.378-0.893,37.708,2.169C6656.251,3914.277,6666.711,3916.922,6662.354,3931.007z"/>
	<path style="fill:#956CCD;" d="M5852.906,1787.55c29.171-19.819,31.414-52.688,40.25-82.487
		c25.748-86.844,60.118-170.367,97.907-252.56c4.173-9.077,9.702-16.865,18.32-22.187c42.557,23.417,76.168,53.514,78.604,106.461
		c0.728,15.823,12.794,14.084,23.042,16.187c44.347,9.099,80.533,30.149,99.229,73.331
		c34.746,80.254-18.547,164.162-105.861,164.676C6020.576,1791.464,5936.737,1788.817,5852.906,1787.55z"/>
	<path style="fill:#BF6BB4;" d="M5835.256,1288.705c7.663,10.439,10.711,19.469,4.833,33.919
		c-50.035,122.992-100.014,246.051-146.731,370.321c-13.518,35.958-22.943,72.033-57.169,94.443
		c-39.446,0.933-79.034,4.155-118.177-2.629c-11.9-2.063-24.763-4.957-33.462-15.364c36.85-62.253,55.98-131.982,82.907-198.39
		c8.726-21.521,17.684-43.086,25.677-64.968c7.645-20.925,15.041-41.825,13.808-64.613c37.561,5.764,54.893-8.316,67.431-47.022
		C5696.606,1325.762,5763.456,1286.718,5835.256,1288.705z"/>
	<path style="fill:#DEEEFE;" d="M6245.654,3918.602c-250.059,0.003-500.118,0.006-750.177,0.01
		c-43.534-5.006-87.217-1.273-130.823-2.148c-33.959-0.682-37.898-6.152-24.938-37.088c3.792-9.049,8.23-17.586,15.331-24.515
		c209.716-0.635,419.431-1.448,629.147-1.834c119.99-0.221,239.995-0.635,359.964,1.066c28.337,0.401,37.719-5.058,37.565-36.083
		c-1.409-284.823-0.85-569.655-0.816-854.484c0-9.739,0.507-19.479,0.78-29.232c1.411,0.064,2.774-0.146,4.093-0.657
		c0.18,292.629,0.36,585.27,0.538,877.91c0.023,37.564,0.017,37.518,38.242,37.553c65.361,0.061,130.722,0.186,196.083,0.284
		c-5.527,18.48-21.67,13.741-34.039,14.153c-38.021,1.267-76.098,0.691-114.146,0.397c-21.6-0.166-36.625,4.922-34.309,31.012
		c1.682,18.962-10.012,21.53-26.019,21.708C6356.639,3917.273,6301.086,3913.524,6245.654,3918.602z"/>
	<path style="fill:#AF6BBD;" d="M3093.841,1429.92c-12.922-15.545-5.9-31.254,4.917-41.59c19.188-18.335,28.75-39.421,34.387-64.908
		c6.516-29.465,26.621-53.433,39.482-80.467c10.362-21.781,20.202-43.966,32.59-64.58c10.445-17.381-4.901-21.392-12.035-30.072
		c84.306-16.493,157.434,8.017,222.688,60.954c36.948,29.974,62.507,69.065,86.551,109.297c2.682,33.729,2.772,33.36-30.656,25.174
		c-114.703-28.086-224.945-22.074-327.044,43.908C3126.087,1399.678,3108.75,1413.358,3093.841,1429.92z"/>
	<path style="fill:#D268AA;" d="M5606.94,1441.425c5.975,7.097,13.602,11.862,8.61,24.695
		c-34.486,88.657-67.332,177.953-102.144,266.479c-5.52,14.035-7.569,33.837-28.859,36.797
		c-45.87-24.928-65.253-65.555-65.393-115.635c-0.142-50.921,21.927-91.007,68.239-113.794c20.157-9.918,32.66-21.438,40.914-43.324
		C5541.251,1462.325,5569.248,1443.517,5606.94,1441.425z"/>
	<path style="fill:#4F557D;" d="M3381.116,3942.622c-7.813,12.047-20.108,9.975-31.685,9.973
		c-522.239-0.063-1044.477-0.071-1566.716-0.606c-14.427-0.015-31.779,7.263-43.134-9.362c7.036-18.094,23.405-14.709,37.093-14.897
		c60.481-0.83,120.99-1.226,181.459-0.16c123.894,2.183,247.785,0.283,371.674,1.107c12.76,0.085,25.326-0.632,37.57-4.51
		c82.764-5.647,165.643-1.98,248.471-2.352c51.611-0.232,103.327-3.151,154.89,2.234c13.153,4.127,26.662,4.707,40.357,4.648
		c168.296-0.726,336.598,1.305,504.892-1.21c15.591-0.233,31.099-2.845,46.59-2.169
		C3372.294,3925.743,3386.221,3924.899,3381.116,3942.622z"/>
	<path style="fill:#D3E5FB;" d="M1996.924,3282.508c1.283-0.837,2.672-1.426,4.167-1.766c16.944,11.535,12.209,29.539,12.268,45.219
		c0.516,138.434,0.272,276.871,0.293,415.306c0.001,8.774,0.554,17.587,0.013,26.314c-1.391,22.417,8.627,31.407,31.077,31.109
		c48.738-0.649,97.496-0.185,146.246-0.18c184.274,0.021,368.549,0.01,552.823,0.004c9.75,0,19.529-0.513,29.242-0.051
		c20.812,0.991,30.231-7.981,29.942-29.251c-0.411-30.209-0.046-60.439-0.028-90.66c0.052-89.691-0.124-179.382,0.145-269.072
		c0.046-15.382-2.329-31.431,7.588-45.273c17.069-2.139,14.404,12.134,15.85,20.899c2.69,16.309,1.204,33.017,1.213,49.558
		c0.054,103.184,1.043,206.385-0.588,309.543c-0.493,31.16,2.943,55.629,37.814,63.781c5.696,21.76-6.79,23.14-23.796,23.257
		c-283.921,1.957-567.836,2.343-851.756-0.311c-57.512-0.537-115.038,0.517-172.556,0.835c19.354-14.039,41.249-3.584,61.814-6.211
		c13.078-1.67,24.855-0.039,36.945-11.261c15.063-13.983,37.294-5.643,56.27-5.736c17.6-0.087,26.326-3.184,26.205-23.859
		C1997.138,3617.309,1997.187,3449.908,1996.924,3282.508z"/>
	<path style="fill:#BFD4F8;" d="M2368.512,3932.1c-11.585,0.919-23.169,2.623-34.755,2.639
		c-187.427,0.258-374.854,0.196-562.28,0.666c-10.722,0.027-23.824-6.157-31.894,7.226c-13.675-15.344-15.648-33.539-7.688-51.04
		c8.337-18.329,26.122-20.229,44.534-19.083c13.428,0.835,26.963-0.042,40.45-0.156c317.247-0.07,634.495-0.142,951.744-0.2
		c32.214-0.006,64.429,0.074,96.643,0.114c1.715,3.867,0.827,6.994-2.643,9.398c-13.524,7.527-28.413,5.792-42.906,5.844
		c-67.257,0.243-134.515,0.127-201.772,0.083c-17.649-0.012-34.92,0.463-50.703,10.431c-10.16,6.417-22.233,6.848-33.991,6.952
		c-43.862,0.388-87.725,0.321-131.588,0.033c-7.803-0.051-16.538,1.104-23.051-2.719c-35.194-20.656-73.735-14.267-111.295-14.512
		c-80.9-0.528-161.809-0.449-242.708,0.17c-11.008,0.084-28.753-6.623-29.676,13.367c-0.998,21.606,16.818,20.344,31.377,20.388
		c99.423,0.298,198.848-0.094,298.271,0.345C2339.705,3922.111,2356.208,3918.654,2368.512,3932.1z"/>
	<path style="fill:#B7CDFB;" d="M6245.654,3918.602c25.161-10.723,51.509-3.223,77.26-4.713c24.175-1.399,48.523-1.124,72.739-0.169
		c23.12,0.911,42.229,2.5,32.518-32.182c-4.935-17.627,8.068-27.164,28.048-26.785c45.581,0.865,91.194,0.202,136.792-0.184
		c9.386-0.08,19.623,2.835,27.632-5.188c11.69-0.01,23.38-0.035,35.069-0.032c36.551,0.008,55.76,32.237,39.33,65.673
		c-6.865,13.971-23.703,6.792-32.688,15.988c-3.236-18.722-18.141-11.062-27.984-11.095c-118.89-0.398-237.783-0.063-356.675-0.039
		C6267.014,3919.878,6256.333,3919.046,6245.654,3918.602z"/>
	<path style="fill:#D4E4FA;" d="M3381.116,3942.622c-2.555-16.33-14.789-8.623-23.035-8.625
		c-192.264-0.035-384.528,0.238-576.792,0.325c-3.772,0.002-7.545-1.536-11.317-2.356c11.322-12.529,26.634-9.094,40.789-10.108
		c33.681-2.412,67.659,4.712,101.152-3.226c88.223-5.711,176.568-1.178,264.858-2.581c20.382-0.324,40.787,0.51,61.154-0.33
		c35.217-1.453,43.585-10.907,45.941-45.841c1.661-24.629-6.973-50.603,8.471-73.667c0.372-60.453,1.027-120.907,0.912-181.359
		c-0.027-14.56,1.347-23.499,20.003-23.419c213.64,0.919,427.283,1.112,640.926,1.498c-0.318,7.837,0.999,15.992-4.442,22.83
		c0.144-21.16-15.013-18.43-28.59-18.427c-109.327,0.025-218.655-0.005-327.982-0.009c-88.829-0.003-177.666,0.681-266.48-0.463
		c-21.898-0.282-28.533,6.125-28.154,28.06c1.267,73.182,1.24,146.408,0.104,219.594c-0.332,21.369,5.246,31.583,27.717,28.064
		c3.811-0.597,7.796-0.101,11.701-0.087C3390.514,3872.68,3404.195,3894.958,3381.116,3942.622z"/>
	<path style="fill:#BCD2FC;" d="M5355.047,3854.861c0.268,13.047-3.545,25.449-10.427,35.874
		c-13.715,20.775-2.03,22.855,14.88,22.814c36.044-0.086,72.091-0.168,108.133,0.192c9.415,0.094,19.678-2.99,27.844,4.871
		c-117.078,0.139-234.154,0.277-351.23,0.416c-6.345-6.747-9.086-15.217-8.523-23.977c1.744-27.148-14.018-32.085-36.506-31.306
		c-23.16,0.803-46.383,0.549-69.566-0.047c-11.429-0.293-23.497,0.727-32.357-9.106c7.844-8.579,18.218-5.343,27.568-5.359
		c76.02-0.129,152.053,0.894,228.053-0.272c22.571-0.346,45.378,15.888,67.714-0.49
		C5331.018,3856.451,5343.911,3850.921,5355.047,3854.861z"/>
	<path style="fill:#FDCA6A;" d="M2297.138,1981.568c0.35,29.875-24.392,54.745-55.785,56.073
		c-28.692,1.214-59.986-28.199-60.174-56.557c-0.193-29.234,25.573-53.63,57.418-54.364
		C2272.05,1925.948,2296.758,1949.098,2297.138,1981.568z"/>
	<path style="fill:#9DB4FA;" d="M4997.295,3854.593c38.526,0.161,77.146,2.023,115.544-0.106
		c26.292-1.458,34.887,7.877,31.546,32.793c-1.395,10.402-0.172,21.156-0.139,31.749c-31.029,0.434-62.068,0.575-93.084,1.469
		c-10.292,0.297-21.512-3.276-30.599,5.015C4988.857,3913.071,4984.695,3900.383,4997.295,3854.593z"/>
	<path style="fill:#6AA2F8;" d="M6412.203,1950.41c26.496,0.869,45.442,22.475,44.595,50.858
		c-0.732,24.565-22.415,44.319-48.382,44.08c-27.506-0.254-47.589-21.494-46.108-48.763
		C6363.792,1969.216,6385.076,1949.52,6412.203,1950.41z"/>
	<path style="fill:#FB75DA;" d="M2478.499,1197.101c-0.661,25.611-21.624,45.787-47.052,45.285
		c-24.198-0.478-47.115-25.687-46.031-50.634c1.078-24.801,23.341-44.306,49.193-43.099
		C2459.959,1149.838,2479.171,1171.046,2478.499,1197.101z"/>
	<path style="fill:#F9779F;" d="M2441.46,1670.923c-27.104,0.288-44.258-15.69-45.154-42.056
		c-0.883-25.992,18.187-45.941,44.571-46.628c25.763-0.67,44.708,18.868,44.737,46.136
		C2485.642,1654.286,2468.676,1670.634,2441.46,1670.923z"/>
	<path style="fill:#89D9FB;" d="M2665.697,1250.323c2.204-19.159,13.261-31.682,35.393-31.557
		c22.882,0.13,33.852,15.065,33.921,35.357c0.072,21.164-13.522,35.139-35.123,34.023
		C2679.534,1287.096,2665.983,1275.204,2665.697,1250.323z"/>
	<path style="fill:#76AEFE;" d="M2537.234,2973.155c2.508-0.806,5.016-1.613,7.534-2.417c63.391-0.182,126.823-1.996,190.132,0.048
		c39.73,1.283,74.923-6.524,110.683-24.636c62.394-31.602,129.692-52.951,190.903-87.515c4.155-2.346,9.71-5.679,13.526-4.623
		c40.79,11.291,31.844-17.796,31.856-38.975c0.106-175.503,0.034-351.006,0.014-526.493c1.034-1.817,2.594-2.88,4.678-3.168
		c0.421,131.648,1.083,263.29,1.208,394.932c0.17,178.474-0.492,356.951,0.365,535.421c0.115,23.963-6.194,32.314-30.877,31.246
		c-43.809-1.895-87.76-0.576-131.651-0.495c-37.765,0.07-57.195,18.287-59.206,56.614c-1.225,23.35-1.048,46.774-1.501,70.165
		c-29.13-1.022-45.698-19.531-59.178-42.468c-5.413-84.741-1.114-169.553-2.446-254.313c-0.291-18.519,0.335-37.054-0.188-55.567
		c-0.881-31.147-4.141-34.763-36.267-35.112c-63.371-0.689-126.754,0.204-190.123-0.51
		C2562.78,2985.131,2546.773,2988.809,2537.234,2973.155z"/>
	<path style="fill:#FDEEBE;" d="M4429.116,1778.862c0,36.463,0.073,72.927-0.087,109.39c-0.021,4.861-1.133,10.327-6.725,11.657
		c-6.22,1.48-9.159-3.83-9.118-8.388c0.344-37.97-6.452-76.59,6.089-113.551C4422.555,1778.267,4425.835,1778.564,4429.116,1778.862
		z"/>
	<path style="fill:#FDEFC7;" d="M4304.124,1753.935c31.88-32.387,63.137-65.876,104.41-86.996
		C4377.682,1700.642,4344.283,1731.229,4304.124,1753.935z"/>
	<path style="fill:#98D5FD;" d="M6303.733,2949.2c-0.318,203.609-0.645,407.219-0.949,610.829
		c-0.074,49.691-0.708,99.394,0.234,149.066c0.331,17.414-4.436,24.193-22.819,23.693c-50.622-1.377-101.289-1.1-151.938-1.478
		c-21.721-6.102-31.114-20.84-39.222-42.154c-20.387-53.592-44.143-105.95-66.182-158.965
		c-10.686-25.704-19.445-53.04-39.983-74.053c-6.455-6.604-6.765-16.288,3.797-22.097c39.499-7.968,79.436-2.205,119.137-3.84
		c18.095-0.746,36.311,0.844,54.294-3.194c-48.07-3.093-96.145-2.047-144.191-2.634c-14.374-0.175-29.426,1.968-42.011-8.142
		c-3.599-4.872-5.751-10.489-5.823-16.339c-0.39-31.836,0.999-39.562-48.006-39.624c-77.088-0.098-154.18,0.954-231.282-0.532
		c-20.303,0.197-40.616,0.8-60.864-0.195c-10.845-0.532-24.25,1.57-27.28-14.555c14.131-12.129,31.404-8.792,47.62-8.782
		c159.004,0.105,318.008-0.174,477.012-0.254c10.589-0.005,21.335,1.48,31.83-2.908c-22.319-2.344-44.771-2.248-67.16-1.781
		c-77.95,1.627-155.958-3.595-233.899,4.517c-33.895,3.528-67.945-3.17-101.573-9.142c-13.159-10.767-27.872-14.728-45.146-13.974
		c-26.874,1.174-53.88,1.194-80.756-0.172c-10.548-0.535-26.173,3.495-26.233-15.925c14.854-10.369,31.933-7.346,48.242-7.372
		c157.04-0.245,314.08-0.123,471.121-0.178c12.659-0.004,25.358,0.711,41.819-1.661c-14.36-4.291-25.561-2.849-36.501-2.861
		c-120.951-0.13-241.901,0.027-362.851-0.192c-15.433-0.028-31.411,2.017-45.536-7.134c-5.652-6.619-5.679-13.604-1.383-20.868
		c13.636-10.268,29.694-8.027,45.064-8.06c118.861-0.254,237.723-0.087,356.585-0.184c12.541-0.01,25.145,0.937,37.736-2.55
		c-10.836-2.772-22.024-2.097-33.098-2.121c-158.802-0.337-317.606,0.637-476.406-0.674c-11.624-0.096-23.453,1.392-34.625-3.504
		c-12.769-10.026-12.341-21.22-2.93-33.217c10-6.907,21.5-9.341,33.275-9.612c57.549-1.326,115.097-1.212,172.639,0.801
		c111.039,3.884,222.108,5.583,333.212,3.898c5.506-0.084,11.813,0.651,15.636-5.178c-2.323-4.023-6.449-4.607-10.183-4.613
		c-80.93-0.136-161.839-3.13-242.785,1.982c-69.03,4.36-138.293,8.295-206.72-7.248c-12.49-18.506-31.391-15.436-48.879-12.731
		c-15.696,2.427-30.515,1.39-45.028-3.84c-6.712-2.419-15.452-6.111-5.925-15.686c40.479-9.523,81.384-6.128,121.954-2.432
		c31.234,2.845,62.201,4.906,93.172-0.388c27.485-4.699,54.349,2.363,81.493,2.888c80.862,1.566,161.749,0.645,242.626,0.424
		c6.462-0.018,13.524,0.986,20.858-6.123c-12.573-6.221-25.027-4.359-36.917-4.375c-125.704-0.166-251.407-0.047-377.111-0.158
		c-15.542-0.014-31.228,1.155-46.491-3.374c-13.79-8.718-30.976-15.665-20.211-37.576c13.288-8.271,28.248-6.223,42.724-6.334
		c52.384-0.405,104.782,0.216,157.168-2.645c-50.986-3.969-102.046-2.4-153.063-3.122c-15.427-0.219-31.373,2.419-45.781-5.974
		c-6.628-11.237,3.141-12.718,9.642-14.816c11.052-3.566,22.919-1.677,34.451-5.563c-23.497-4.167-47.354-2.775-71.081-3.265
		c-12.461-0.257-25.229,1.252-37.081-3.625c-5.841-2.404-13.826-5.538-5.458-14.199c12.668-7.311,26.602-5.169,40.113-5.192
		c154.103-0.269,308.206-1.006,462.31-0.728c12.633,0.023,25.332,0.954,39.911-1.654c-9.839-4.426-18.526-2.966-26.871-2.977
		c-93.636-0.128-187.35-2.424-280.879,0.756c-61.373,2.086-122.691,4.757-184.101,4.256c-13.184-0.108-27.92,2.952-36.869-11.496
		c11.003-12.214,18.575-23.723,15.249-43.065c-3.831-22.278,13.939-35.643,42.078-35.832c69.828-0.469,139.66-0.13,209.49-0.17
		c12.595-0.007,25.236,0.581,37.613-2.795c114.39-0.152,228.75-0.15,343.107,0.177
		C6285.789,2944.412,6296.278,2939.538,6303.733,2949.2z"/>
	<path style="fill:#8CAFFD;" d="M5929.14,2947.486c-9.017,8.739-20.347,5.07-30.663,5.125
		c-69.226,0.365-138.455,0.093-207.681,0.374c-35.692,0.145-43.443,11.335-32.939,44.824c8.6,27.421-10.96,25.21-27.765,25.542
		c-6.611,7.334-15.996,12.641-17.396,23.786c24.037,11.365,49.487,3.226,74.212,5.175c15.443,1.217,31.054,0.19,46.586,0.428
		c9.393,0.144,18.73,2.578,18.289,13.898c-0.443,11.339-10.866,8.083-18.051,9.177c-16.79,2.557-34.896-6.069-50.563,5.941
		c4.044,7.455,3.474,15.001,0.442,22.594c-1.769,14.348,13.13,19.239,17.186,30.282c-15.871,13.062-34.814,6.932-52.494,8.114
		c-17.152,1.147-34.921-0.622-47.189,15.243c26.986,17.249,56.133,4.934,84.215,5.47c14.536,0.278,19.695,3.743,15.424,17.895
		c-17.784,13.814-38.566,6.639-58.018,7.793c-16.157,0.96-30.861,2.132-35.634,21.218c4.493,7.608,6.039,15.162-0.425,22.563
		c3.057,18.145,16.75,17.068,30.137,16.579c17.544-0.261,35.04,0.181,52.552-0.594c10.374,0.323,20.897,0.102,28.985,8.304
		c-0.052,5.871-0.105,11.742-0.158,17.614c-21.5,15.862-46.232,6.564-69.46,8.667c-16.962,1.536-34.96-1.596-47.27,14.557
		c38.402,14.486,78.196,3.172,117.254,6.008c15.056,1.093,29.542-0.339,34.802,18.06c-11.982,11.101-27.008,8.036-41.092,8.403
		c-25.897,0.676-51.826-0.48-77.72,0.612c-12.661,0.534-24.925,2.701-33.29,13.867c28.281,13.907,58.414,2.468,87.425,6.384
		c10.352,20.296-4.738,22.606-18.214,24.662c-17.774,2.711-36.007-1.44-53.602,2.818c-8.489,6.421-2.7,12.304,0.812,18.256
		c8.396,11.142,0.468,19.557-4.505,28.401c19.548,7.424,38.999,15.521,53.734-8.045c14.469-18.945,28.362-11.735,41.241,1.553
		c8.283,8.546,11.949,20.036,14.953,31.255c20.417,76.237,59.763,145.208,84.181,219.932c6.687,20.463,15.016,40.009,4.573,61.397
		c-115.659,0.282-231.321,0.168-346.973,1.222c-20.119,0.183-21.353-9.728-21.329-25.19c0.093-60.246-0.626-120.492-1.043-180.738
		c0.304-161.868,0.614-323.736,0.91-485.604c0.057-31.208,0.058-62.416,0.087-93.623c0.002,0.001-0.602,0.048-0.602,0.048
		c4.76-4.723,10.856-3.548,16.572-3.55c150.934-0.057,301.868-0.055,452.802-0.003
		C5918.169,2944.185,5924.23,2943.079,5929.14,2947.486z"/>
	<path style="fill:#92C4FD;" d="M5601.764,3422.579c3.588-8.315,23.832-9.179,11.096-24.797c13.097-11.795,29.352-8.599,44.566-8.7
		c74.646-0.497,149.3,0.107,223.974-2.668c-39.243-3.177-78.559-2.55-117.85-2.672c-41.849-0.13-83.698,0.179-125.545-0.158
		c-12.524-0.1-25.539,1.13-36.245-7.813c20.067-14.697,42.89-4.462,64.321-6.774c12.15-1.311,24.357,0.272,22.762-17.61
		c82.481-0.057,164.963-0.148,247.446-0.161c39.704-0.006,39.707,0.061,39.738,40.786c0.006,7.762-0.028,15.525-0.044,23.287
		c1,8.174,3.774,15.908,5.905,23.801c53.17,68.964,68.84,155.676,108.876,230.972c11.361,21.365,12.976,48.028,37.496,61.236
		c-105.416,0.103-210.831,0.207-316.247,0.311c-8.615-74.284-43.443-139.623-71.998-206.891
		c-12.273-28.913-17.644-59.647-29.368-88.451c-9.766-23.994-21.364-28.293-39.2-14.91
		C5648.441,3434.504,5625.198,3434.042,5601.764,3422.579z"/>
	<path style="fill:#373D79;" d="M5929.14,2947.486c-162.024,0.081-324.047,0.162-486.074,0.247
		c7.048-10.028,17.677-6.482,26.927-6.488c269.302-0.176,538.604-0.183,807.906,0.004c9.072,0.006,20.095-3.944,25.832,7.942
		c-16.061-5.667-32.692-2.739-49.022-2.726C6146.186,2946.548,6037.663,2947.092,5929.14,2947.486z"/>
	<path style="fill:#FD6696;" d="M5032.391,3291.562c-81.788,0.436-163.576,1.216-245.363,1.247
		c-295.143,0.109-590.286-0.017-885.428-0.14c-11.653-0.005-23.307-0.891-34.96-1.367c-40.127-12.335-82.464-14.908-122.427-28.457
		c-22.429-7.604-39.063-17.547-37.658-44.49c0.358-6.864-1.713-14.334-6.779-18.92c-31.716-28.708-46.84-68.138-67.779-103.771
		c-9.604-16.344-21.702-30.159-37.541-40.342c-27.811-17.88-45.33-44.483-65.033-70.176
		C3491.112,2935.19,3462.622,2878.046,3413,2836c-28.824-24.424-44.932-61.044-60.704-95.8
		c-6.135-13.519-12.274-26.832-23.653-36.49c-26.085-22.14-42.806-50.221-54.235-81.968c-8.317-23.102-20.36-43.817-35.467-63.494
		c-22.84-29.75-26.862-66.006-29.092-104.742c0.484,19,3.61,35.445,2.314,51.904c-0.752,9.559,3.228,22.561-12.283,25.445
		c-0.197-95.462-1.632-190.944-0.072-286.377c0.787-48.132,39.065-90.432,86.535-90.983c200.632-2.33,401.303-3.836,601.946,0.596
		c-9.579,14.06-24.475,9.645-37.327,9.705c-99.382,0.464-198.768,0.15-298.151,0.38c-11.426,0.026-23.339-2.505-36.368,4.593
		c12.983,14.589,23.916,29.557,29.307,48.347c3.937,13.723,17.383,20.718,29.559,26.892c19.622,9.949,33.218,24.524,46.119,42.778
		c17.145,24.26,44.011,40.648,62.508,64.635c47.43,61.512,97.418,120.549,136.381,188.94
		c27.487,48.249,54.055,98.988,94.534,139.186c8.957,8.895,12.406,19.655,12.62,31.676c0.411,23.094,10.186,40.545,28.532,54.77
		c14.796,11.473,28.258,25.169,19.421,47.17c-7.991,11.292-21.421,16.426-30.042,27.312c-31.441,39.7-42.756,82.448-20.942,130.402
		c21.485,47.233,59.844,70.229,110.385,73.207c46.518,2.74,93.281-2.855,139.81,3.13c11.414,3.54,23.161,2.926,34.834,2.938
		c53.61,0.058,107.36,2.479,160.8-0.54c83.788-4.734,164.657,11.563,245.95,27.001c21.228,4.031,35.297,13.983,42.367,34.892
		c6.533,19.324,15.011,38.039,22.818,56.85c31.565,76.051,78.456,99.316,158.764,108.56c51.97,5.982,105.156,0.548,157.775,1.581
		C5010.172,3278.735,5026.282,3273.308,5032.391,3291.562z"/>
	<path style="fill:#FD7A7F;" d="M5032.391,3291.562c-9.25-8.205-20.5-4.561-30.837-4.628c-57.495-0.372-115.604,4.983-172.317-1.691
		c-55.56-6.538-108.102-26.494-139.798-80.624c-17.251-29.462-25.509-62.107-39.311-92.698
		c-6.511-14.431-12.747-21.024-29.719-25.711c-135.464-37.408-273.785-26.795-411.445-28.102
		c-12.432-0.118-25.386,3.197-37.263-3.532c10.429-14.916,26.371-10.118,40.188-10.172c127.667-0.491,255.336,0.192,383.002-0.494
		c53.468-0.288,90.631-27.969,102.829-74.138c15.39-58.25-17.815-114.832-79.649-128.029c-28.063-5.99-39.438-19.311-43.187-45.665
		c-4.926-34.624-22.638-61.953-53.176-79.908c-14.935-8.78-24.75-20.97-31.553-36.919c-29.882-70.052-82.336-106.35-159.52-104.82
		c-9.719,0.193-19.521,0.334-28.979-2.699c-8.234-2.98-12.915-9.48-13.25-17.607c-0.849-20.579-15.555-35.16-21.804-52.502
		c-15-41.628-50.795-69.902-64.056-113.12c-9.132-29.763-39.086-49.512-60.974-72.623c-5.938-6.27-16.444-9.865-18.487-18.117
		c-9.515-38.42-42.553-53.537-70.78-73.172c-14.889-10.356-25.768-23.462-34.565-38.825c-8.866-15.484-5.987-25.851,12.682-29.693
		c7.64-1.573,15.209-2.849,23.085-2.792c66.182,0.477,132.369-0.653,198.55,0.615c17.439,5.304,34.288-2.341,51.605-2.326
		c291.501,0.259,583.004-0.01,874.506-0.007c10.524,0,21.549-2.345,31.389,3.884c-11.733,12.539-27.258,8.734-41.392,8.752
		c-203.044,0.259-406.089,0.243-610.316,0.147c13.024,7.143,25.222,13.969,32.039,26.805c13.935,26.24,31.89,48.795,56.437,66.176
		c12.597,8.92,17.004,23.841,20.532,37.976c10.491,42.024,32.764,76.271,63.178,106.858c26.225,26.376,47.043,56.825,57.929,93.649
		c12.703,42.97,40.631,76.642,68.647,110.992c30.263,37.104,67.225,69.609,79.235,120.655c7.816,33.222,37.251,56.472,58.269,83.132
		c12.651,16.048,26.12,31.354,37.749,48.327c69.538,101.49,133.904,206.072,190.594,315.31c2.697,5.196,5.016,10.607,8.455,15.377
		c7.769,10.775,18.652,13.666,31.065,11.354c14.314-2.666,14.243-14.374,14.365-25.118c0.487-42.946,0.18-85.897,0.199-128.846
		c0.042-98.588-0.311-197.179,0.379-295.763c0.092-13.169-6.228-29.979,12.168-37.928c0.274,162.444,1.856,324.902,0.11,487.325
		c-0.607,56.459-42.873,92.487-99.264,92.486C5137.418,3293.112,5084.904,3292.118,5032.391,3291.562z"/>
	<path style="fill:#FD8978;" d="M5289.086,2713.302c-7.51,9.521-4.128,20.692-4.146,31.085
		c-0.249,145.321-0.034,290.642-0.52,435.962c-0.037,10.919,7.332,28.49-13.161,29.556c-18.468,0.961-38.865,6.765-50.526-17.474
		c-55.256-114.861-122.842-222.373-195.192-327.156c-25.994-37.646-56.995-70.953-84.687-107.044
		c-2.366-3.083-6.25-5.954-6.79-9.344c-7.64-47.942-39.281-82.38-66.26-119.551c-14.116-19.449-33.097-34.133-47.738-53.714
		c-19.245-25.739-33.784-53.273-41.882-82.567c-9.08-32.847-27.796-58.711-50.009-80.556
		c-35.903-35.308-60.938-74.945-71.729-123.845c-3.312-15.012-10.793-26.928-25.396-33.239
		c-16.239-7.017-26.413-21.645-33.381-35.443c-14.262-28.239-30.706-51.581-67.579-54.191c1.315-3.443,2.629-6.885,3.944-10.328
		c225.174,0,450.349,0,675.522-0.003c45.501,7.179,79.697,40.92,79.991,86.635
		C5290.558,2399.15,5289.411,2556.229,5289.086,2713.302z"/>
	<path style="fill:#FE708B;" d="M4252.056,2153.896c-61.205,5.142-122.523,1.14-183.782,2.155
		c-17.639,0.292-43.901-1.628-47.487,12.137c-3.91,15.006,12.878,33.898,29.072,45.118c21.34,14.785,42.958,29.167,64.356,43.87
		c3.095,2.127,7.765,4.826,8.098,7.681c5.498,47.162,50.613,63.197,74.666,95.665c1.723,2.326,5.369,4.005,5.795,6.399
		c7.696,43.24,43.406,71.369,59.16,110.197c1.096,2.7,1.321,6.077,3.114,8.12c20.502,23.356,31.111,51.03,36.109,81.233
		c-0.36,12.154-11.032,12.39-18.608,15.174c-52.42,19.261-85.832,56.385-101.533,109.203c-6.542,22.005-18.259,28.39-41.021,25.661
		c-68.116-8.165-95.902,8.447-127.629,71.544c-8.113,16.135-17.323,31.491-39.919,22.74c3.533-19.784-8.952-32.451-22.915-40.565
		c-23.655-13.747-30.366-34.089-29.59-58.71c0.438-13.894-3.16-23.54-16.176-31.124c-16.474-9.6-21.299-29.142-31.858-43.62
		c-47.307-64.86-78.82-139.833-131.222-201.345c-30.64-35.967-54.706-79.213-90.391-108.708
		c-32.769-27.084-49.082-71.963-93.806-85.338c-9.366-2.801-17.771-9.78-19.646-20.083c-3.572-19.636-7.813-37.84-30.644-44.155
		c-4.64-1.283-8.025-7.025-5.33-11.826c2.086-3.717,6.801-7.437,10.907-8.221c7.545-1.44,15.503-0.871,23.289-0.874
		c112.993-0.041,225.987-0.011,338.98-0.133c4.757-0.005,9.513-1.314,14.255-2.008c102.872-0.737,205.758-1.6,308.645-2.117
		C4215.313,2151.874,4233.687,2153.216,4252.056,2153.896z"/>
	<path style="fill:#FE55AC;" d="M3199.88,2530.855c11.796-26.004,0.795-53.769,7.135-83.301
		c14.555,15.35,10.998,34.524,14.996,50.546c6.223,24.939,13.756,48.185,31.854,67.512c20.529,21.924,25.167,52.228,38.297,78.127
		c4.355,8.59,6.07,18.891,13.422,25.546c28.474,25.774,49.318,55.711,65.481,91.333c16.176,35.652,41.912,65.916,70.987,94.392
		c44.185,43.275,74.367,98.655,109.776,149.4c9.023,12.932,17.738,25.353,32.215,32.882c33.363,17.354,58.708,47.492,70.408,78.766
		c12.436,33.239,34.36,55.204,54.472,80.651c2.843,3.598,6.001,9.139,5.242,13.048c-6.825,35.16,16.814,42.796,42.809,48.824
		c22.639,5.25,44.985,13.069,67.902,15.37c16.648,1.671,29.734,6.991,41.766,17.35c-139.465,0.492-278.929,1.031-418.393,1.455
		c-42.923,0.13-85.851-0.412-128.767,0.121c-13.327,0.165-21.533-2.676-25.457-17.242c-6.783-25.18-25.72-37.389-50.778-34.34
		c-32.374,3.94-40.99-14.403-43.777-40.429c-0.828-7.734-0.69-15.59-0.693-23.39c-0.077-209.718-0.126-419.436-0.107-629.154
		C3198.668,2542.5,3199.458,2536.678,3199.88,2530.855z"/>
	<path style="fill:#333C76;" d="M3292.336,3796.215c0.55,25.303,1.392,50.604,1.583,75.91c0.306,40.607-11.456,52.485-51.72,52.653
		c-110.102,0.46-220.205,0.829-330.307,1.234c-39.445,1.62-56.272-15.526-46.793-47.68c0.056-2.021,0.112-4.043,0.168-6.065
		c-9.818-9.747-22.231-5.426-33.429-5.435c-314.23-0.245-628.461-0.197-942.692-0.197c-10.612,0-21.225,0-36.712,0
		c20.316-21,44.193-20.665,64.23-22.154c38.657-2.874,77.133-8.414,116.286-7.62c84.866,1.723,169.791,0.47,254.692,0.601
		c27.931,0.043,56.434-3.776,81.931,12.899c16.057,10.502,32.276-1.955,48.214-0.908c105.946,6.959,210.504-19.305,316.489-12.409
		c34.983,2.276,70.361-1.449,105.332,0.916c26.953,1.823,34.703-8.339,31.899-33.357c-1.728-15.419-0.351-31.189-0.303-46.801
		c0.027-8.778-1.123-18.3,11.387-20.007c11.585,12.595,7.138,27.844,7.033,42.377c-0.25,1.458-0.519,2.916-0.788,4.373
		c28.57,13.242,58.732,2.917,88.019,5.885c31.19,3.161,63.931-7.401,93.41,10.738c-0.26,9.709-7.69,15.427-12.677,22.439
		c-9.822,13.813-9.89,27.299,1.568,39.906c10.961,12.063,24.685,15.91,39.708,8.813c14.45-6.826,21.851-18.597,21.009-35.226
		c-0.42-8.292-9.305-15.749-2.402-24.688c3.115-19.882,22.182-22.443,33.469-20.336c35.851,6.693,70.652-7.344,105.979-1.627
		c19.403,3.14,25.025-6.386,24.644-25.012c-0.994-48.55-0.511-97.135-0.176-145.703c0.064-9.347-2.778-19.204,5.674-33.462
		c0,63.368-0.181,121.392,0.169,179.411C3287.294,3775.955,3283.567,3787.249,3292.336,3796.215z"/>
	<path style="fill:#FA8977;" d="M3275.31,3427.317c0.44,112.586,0.596,225.174,1.623,337.754
		c0.158,17.349-6.911,22.251-22.528,20.787c-10.598-0.994-21.293-0.956-31.945-1.38c-22.857-0.29-36.037-14.163-47.902-31.843
		c-17.855-26.605-27.506-58.23-50.56-81.634c-3.557-3.611-3.757-8.826,1.128-12.63c21.933-9.499,45.616-1.532,67.707-6.355
		c-27.262-0.692-54.921,2.259-82.421-2.606c-9.501-5.931-27.138,0.883-28.374-17.995c24.255-10.588,49.78-2.521,74.633-4.829
		c12.534-1.165,25.297,1.523,32.798-0.441c-26.723-2.483-58.717,6.039-90.077-4.893c-0.247-14.223,11.127-12.779,19.738-13.951
		c10.169-1.384,20.632-0.436,30.545-3.707c19.046-4.29,38.649-1.448,56.812-3.687c-19.26-2.883-40.688,4.485-60.003-7.226
		c-1.578-2.637-1.666-5.364-0.509-8.166c15.634-11.53,33.922-4.809,49.244-7.578c-35.341-5.316-73.486,6.448-109.979-7.299
		c-9.637-9.234-11.508-19.701-5.177-31.476c22.352-14.24,47.311-6.1,71.099-7.853c14.507-1.068,29.155-0.136,45.059-0.319
		c-32.591-1.898-64.054,2.087-95.285-2.926c-41.688-1.439-67.564-24.119-80.787-61.95c-4.903-14.026-10.058-29.982,7.771-40.536
		c73.927-0.24,147.827-0.115,221.728,0.004C3258.217,3424.598,3267.196,3422.381,3275.31,3427.317z"/>
	<path style="fill:#FC6495;" d="M3123.054,3661.379c29.512,21.063,36.919,56.887,56.186,84.83
		c11.549,16.75,23.945,30.981,43.221,38.269c-111.21,0.022-222.418,0.044-333.625,0.066c0.001,0,0.739-0.908,0.739-0.908
		c-3.5-44.698-10.773-89.179-7.832-134.232c7.553-22.692,3.744-46.255,5.163-69.434c0.523-8.535-0.504-18.965,9.164-22.775
		c8.811-3.473,14.211,4.735,18.673,10.651c7.855,10.417,20.363,14.921,28.902,24.281c2.674,4.144,4.066,8.74,4.714,13.584
		c0.571,4.614,0.657,9.271,0.644,13.912c0.127,4.456,0.111,8.935,0.218,13.396c0.375,5.903,0.548,11.855,4.718,16.727
		c43.398,7.102,87.03,1.347,130.467,3.275C3097.727,3653.614,3111.883,3650.699,3123.054,3661.379z"/>
	<path style="fill:#FBFBFE;" d="M2813.177,3339.894c17.244,11.131,34.489,22.262,51.728,33.378
		c0.456,117.7,1.016,235.414,1.305,353.13c0.067,27.195-0.79,54.392-1.222,81.587c-5.841-0.014-11.784-0.736-17.506,0.083
		c-22.906,3.278-29.818-5.765-29.626-29.074c1.058-128.492,0.532-256.997,0.244-385.497c-0.023-10.284,3.676-21.615-5.165-30.575
		C2805.907,3355.173,2805.839,3347.495,2813.177,3339.894z"/>
	<path style="fill:#F8FAFB;" d="M3080.01,3298.945c24.495,0.282,42.145,16.069,42.616,38.12
		c0.497,23.258-16.456,39.826-40.394,39.479c-22.595-0.328-39.714-18.417-39.243-41.468
		C3043.421,3313.969,3059.062,3298.704,3080.01,3298.945z"/>
	<path style="fill:#F0F0F6;" d="M3117.472,3812.413c12.298,17.204,16.612,35.448,3.25,53.61
		c-10.53,14.312-25.782,20.084-43.6,16.664c-17.949-3.446-29.356-14.598-33.509-32.151c-5.67-23.967,8.045-38.148,26.653-49.368
		C3087.671,3797.907,3103.347,3801.906,3117.472,3812.413z"/>
	<path style="fill:#885B7C;" d="M3275.31,3427.317c-83.948,0.098-167.896,0.195-251.844,0.292
		c-41.909,16.248-84.856,8.095-127.59,5.468c-3.497-1.377-6.284-3.642-8.38-6.756c7.191-7.108,16.375-5.036,24.904-5.04
		c112.879-0.049,225.758-0.003,338.636,0.249C3259.375,3421.549,3268.851,3418.645,3275.31,3427.317z"/>
	<path style="fill:#885B7C;" d="M2890.546,3643.108c-0.325,46.846-0.65,93.691-0.973,140.533
		c-12.954-13.667-3.179-30.79-6.979-45.846c0.005-7.825,0.012-15.651,0.02-23.477c-10.062-16.216-5.961-34.313-5.18-51.316
		c1.725-37.546-7.014-75.622,5.176-112.652c3.498-41.265-5.438-83.022,4.892-124.023c-0.006-0.006,2.075,1.841,2.075,1.841
		c16.892,33.05,10.525,69.004,6.926,102.44C2892.454,3568.212,2893.64,3605.701,2890.546,3643.108z"/>
	<path style="fill:#333C76;" d="M2882.61,3550.35c0.003,54.656,0.006,109.313,0.006,163.969
		c-10.225-1.248-11.461-8.414-11.443-16.809c0.091-43.447,0.091-86.895-0.005-130.342
		C2871.149,3558.768,2872.405,3551.616,2882.61,3550.35z"/>
	<path style="fill:#E9FAFD;" d="M2948.483,2614.181c10.487,7.26,19.616,3.992,28.166-4.692
		c10.379-10.543,20.607-18.241,33.514-2.157c10.744,13.389,27.869,23.85,9.689,44.004c-7.866,8.72-18.441,18.071-6.192,32.659
		c6.374,7.592-1.271,14.672-7.924,19.02c-7.61,4.973-13.284,0.52-16.519-6.225c-8.237-17.174-16.398-8.68-23.413,0.258
		c-14.964,19.065-31.166,37.478-41.115,59.844c-4.189,9.417-9.408,15.482-19.615,12.362c-9.236-2.823-13.098-11.718-14.835-20.391
		c-1.993-9.948,2.127-18.45,13.031-18.715c17.263-0.419,24.618-13.759,35.312-23.34c15.423-13.818,18.246-26.395,0.383-40.458
		c-12.483-9.828-10.161-24.388-9.92-37.984C2929.271,2615.589,2935.565,2610.749,2948.483,2614.181z"/>
	<path style="fill:#FAF2E8;" d="M5971.252,2791.762c-13.665-6.452-11.8-14.231-11.373-20.359
		c1.223-17.536-5.042-25.381-23.512-22.468c-16.016,2.526-32.519-2.351-34.398-19.011c-2.386-21.147-14.482-44.465,1.986-64.463
		c13.266-16.11,53.966-0.982,60.517,22.67C5973.648,2721.259,5969.918,2755.271,5971.252,2791.762z"/>
	<path style="fill:#353C78;" d="M2813.177,3339.894c-0.081,7.676-0.162,15.352-0.242,23.03
		c-0.212,137.581-1.357,275.171,0.119,412.732c0.31,28.83-7.532,34.595-35.415,34.459c-248.907-1.226-497.825-1.08-746.734-0.021
		c-23.657,0.1-29.166-6.166-29.002-28.824c1.119-155.182,0.951-310.374,1.041-465.562c0.007-11.654-1.205-23.309-1.851-34.964
		c0.466-92.436,1.334-184.872,1.103-277.304c-0.054-21.685,6.423-32.241,29.869-32.103c168.385,0.994,336.773,1.288,505.165,1.812
		c77.787,5.179,155.658,1.597,233.485,2.279c40.151,0.352,39.958,0.026,40.2,40.029
		C2811.57,3123.603,2812.41,3231.748,2813.177,3339.894z"/>
	<path style="fill:#FDEBC4;" d="M2265.232,2704.182c5.359,15.524,3.629,32.056,2.573,47.831
		c-1.532,22.887,4.306,35.235,30.007,31.92c7.877-1.016,17.615-3.058,23.927,6.013c-0.896,1.501-1.586,3.954-2.534,4.057
		c-50.468,5.511-50.398,5.491-50.927,59.202c-0.084,8.535,1.888,17.488-4.418,27.538c-12.846-14.731-8.28-31.683-6.885-46.063
		c2.959-30.523-7.436-43.854-38.716-39.007c-5.313,0.823-11.07-1.222-17.113-2.005c4.426-13.188,14.926-10.694,22.47-9.546
		c28.57,4.346,35.398-9.538,32.897-34.694c-1.485-14.941-0.272-30.151-0.272-45.24
		C2259.239,2704.186,2262.235,2704.184,2265.232,2704.182z"/>
	<path style="fill:#FBF2DD;" d="M5653.072,2491.057c0.943-16.689,23.724-19.819,41.758-28.009
		c18.233-8.28,23.604,5.087,30.257,17.629c4.985,9.397,11.377,18.126,17.766,26.688c22.769,30.511,19.393,40.76-17.399,51.52
		C5691.709,2568.754,5651.97,2537.177,5653.072,2491.057z"/>
	<path style="fill:#FDF7EC;" d="M5745.143,2464.968c2.636-12.939,13.898-15.42,23.271-19.306
		c16.969-7.036,34.317-12.786,47.603-26.71c8.858-9.283,19.514-8.271,28.268,0.442c9.078,9.035,11.305,20.949,5.388,32.08
		c-6.258,11.771-17.695,12.02-27.34,4.83c-15.695-11.699-29.591-1.089-44.073,1.708
		C5767.317,2460.127,5757.997,2470.057,5745.143,2464.968z"/>
	<path style="fill:#AEC2EE;" d="M5883.888,3901.732c-73.185,0-146.371,0.226-219.552-0.24c-11.118-0.071-28.039,6.345-27.708-15.085
		c0.295-19.176,15.569-13.842,26.065-13.859c148.32-0.245,296.641-0.232,444.96,0.083c10.399,0.022,25.764-5.58,26.228,13.655
		c0.514,21.352-16.293,15.328-27.514,15.394c-74.157,0.434-148.319,0.224-222.479,0.224
		C5883.888,3901.846,5883.888,3901.789,5883.888,3901.732z"/>
	<path style="fill:#EAF6FE;" d="M2865.099,3878.332c0.826,30.387,18.707,44.04,46.793,47.68
		c-32.306,10.165-65.458,2.322-98.146,4.544c-14.554,0.99-29.176,0.969-43.771,1.409c-133.823,0.046-267.643,0.089-401.463,0.134
		c-116.925-0.544-233.85-0.95-350.771-1.862c-11.172-0.087-28.96,5.949-32.166-4.294c-3.912-12.5,0.112-27.332-7.541-40.995
		c-2.708-4.836,7.924-6.161,13.521-6.171c119.885-0.232,239.771-0.37,359.657-0.526c58.891,35.855,123.672,10.2,185.321,17.44
		c11.713,1.375,24.675,3.767,32.451-12.114c4.802-9.806,17.771-5.184,27.101-5.207
		C2685.757,3878.15,2775.428,3878.293,2865.099,3878.332z"/>
	<path style="fill:#E2EFFC;" d="M2947.473,3186.931c-3.378,28.555-25.728,33.937-48.063,39.1c-8.66,2.002-17.857,3.385-21.4-7.955
		c-3.893-12.462,11.049-22.348,13.683-22.09c26.403,2.592,24.039-21.279,32.925-33.997c6.026-8.624,9.827-18.903,13.981-28.713
		c8.531-20.15,21.816-22.55,37.418-6.577c5.314,5.441,7.98,11.255,2.96,17.974c-3.751,5.021-9.099,8.5-14.713,3.192
		c-8.154-7.709-13.395-4.324-18.461,3.261c-7.115,10.653,4.107,12.557,8.27,18.003c4.372,5.72,15.708,8.884,11.63,17.64
		c-3.723,7.993-12.179-0.366-18.52,0.527c-7.239-7.27-12.46-2.266-15.851,3.744c-0.93,1.648,0.848-0.14,1.558-1.186
		c3.291-4.846,6.814-6.458,12.143-4.512C2945.921,3185.668,2946.663,3186.392,2947.473,3186.931z"/>
	<path style="fill:#ECF8FD;" d="M5601.115,3157.988c-2.563-16.481,5.146-23.229,21.12-23.127
		c26.186,0.167,52.374-0.132,78.562-0.232c147.067,0.082,294.134,0.162,441.2,0.241c6.818,0.004,13.64-0.172,20.452,0.032
		c10.738,0.32,23.722-0.524,23.169,14.918c-0.459,12.836-11.831,13.731-21.952,13.483c-99.178-2.427-198.527,5.465-297.564-4.634
		c-26.48-2.7-52.193,5.078-78.441,4.393C5725.477,3161.441,5663.296,3159.688,5601.115,3157.988z"/>
	<path style="fill:#E9F6FC;" d="M5607.102,3210.365c-14.849-21.118-2.07-27.421,16.334-28.25
		c25.731-1.158,51.541-0.591,77.317-0.762c64.104,6.342,128.684,9.047,192.616,4.271c87.753-6.555,175.371-1.699,263.008-3.913
		c11.73-0.297,29.05-4.581,29.016,14.636c-0.03,16.935-15.978,13.732-27.104,13.754c-80.978,0.167-162.025,2.074-242.916-0.618
		c-79.526-2.646-159.011-4.175-238.557-4.345C5653.416,3205.088,5630.073,3205.028,5607.102,3210.365z"/>
	<path style="fill:#EBF8FE;" d="M5601.463,3298.055c-3.402-15.664,1.616-23.278,18.935-22.957
		c32.586,0.604,65.196-0.103,97.795-0.266c144.188,0.132,288.377,0.266,432.565,0.401c6.82,0.006,13.64,0.001,20.459,0.044
		c8.771,0.055,15.712,2.536,14.984,13.127c-0.632,9.214-7.694,9.963-14.792,10.23c-2.919,0.11-5.844,0.131-8.766,0.127
		C5975.584,3298.531,5788.523,3298.293,5601.463,3298.055z"/>
	<path style="fill:#F0FAFE;" d="M5630.131,3257.196c-13.135-2.943-40.636,8.002-23.453-24.26
		c181.487,0.147,362.976,0.13,544.462,0.855c11.705,0.047,32.724-8.332,33.286,10.308c0.588,19.456-20.669,12.547-32.844,12.592
		c-144.41,0.542-288.822,0.453-433.233,0.528c-9.691-0.004-19.382-0.007-29.074-0.009
		C5669.562,3252.646,5649.847,3252.666,5630.131,3257.196z"/>
	<path style="fill:#EDF8FD;" d="M5601.417,3345.006c-2.737-19.261,8.569-22.908,24.419-22.819
		c42.559,0.238,85.121-0.011,127.683-0.065c130.424,0.042,260.847,0.074,391.27,0.142c8.775,0.005,17.585-0.141,26.317,0.555
		c8.665,0.69,15.639,5.062,14.431,14.643c-1.145,9.082-9.667,8.095-16.303,8.18c-17.56,0.223-35.123,0.145-52.685,0.119
		C5944.838,3345.517,5773.127,3345.26,5601.417,3345.006z"/>
	<path style="fill:#F0F9FE;" d="M5612.696,3047.136c-13.825-22.281,2.79-22.303,17.398-23.788
		c10.217,8.593,22.492,5.079,33.743,4.812c160.608-3.809,321.231-5.665,481.883-4.694c7.794,0.047,15.597-0.074,23.379,0.271
		c7.139,0.317,14.543,2.169,14.982,10.581c0.543,10.409-7.741,12.249-15.984,12.549c-8.759,0.32-17.536,0.208-26.306,0.209
		C5965.427,3047.103,5789.062,3047.118,5612.696,3047.136z"/>
	<path style="fill:#F0FBFE;" d="M5683.612,3104.349c-6.127-7.415-6.138-14.949-0.443-22.594
		c67.064-0.003,134.131-0.278,201.19,0.306c9.093,0.079,24.898-6.501,25.151,10.266c0.229,15.211-14.528,12.573-24.72,12.571
		C5817.731,3104.888,5750.671,3104.568,5683.612,3104.349z"/>
	<path style="fill:#EFFAFD;" d="M5981.889,3439.101c-17.213-4.15-13.007-13.614-5.905-23.799
		c62.163-0.025,124.327-0.255,186.487,0.172c8.432,0.058,22.404-4.826,22.243,10.523c-0.14,13.177-12.446,12.566-22.174,12.604
		C6102.322,3438.834,6042.105,3438.948,5981.889,3439.101z"/>
	<path style="fill:#F0F8FD;" d="M5601.759,3375.771c95.276-0.285,190.552-0.607,285.828-0.792c8.6-0.017,20.283-1.008,20.951,10.278
		c0.848,14.312-12.236,12.376-21.47,12.396c-91.403,0.194-182.806,0.126-274.208,0.131
		C5602.926,3393.588,5599.083,3386.323,5601.759,3375.771z"/>
	<path style="fill:#ECF6FD;" d="M5601.764,3422.579c23.228-0.403,46.456-0.806,69.685-1.209c-0.066,1.907,0.443,4.075-0.283,5.686
		c-11.373,25.223-33.371,7.587-50.007,11.839C5609.958,3441.758,5599.758,3438.068,5601.764,3422.579z"/>
	<path style="fill:#98D5FD;" d="M5630.131,3257.196c19.715-7.848,39.429-7.825,59.142,0.015
		C5669.561,3257.205,5649.846,3257.2,5630.131,3257.196z"/>
	<path style="fill:#FDFEFE;" d="M3972.448,2810.792c13.42-4.504,26.901-5.91,33.48-23.485
		c24.186-64.617,66.719-89.968,133.986-78.507c21.645,3.688,28.066-1.296,33.784-21.604
		c18.261-64.859,65.201-101.321,127.456-120.726c63.153-5.978,123.434,2.466,163.71,56.283
		c30.799,41.153,54.152,87.235,96.957,119.292c17.124,12.824,21.449,37.023,22.654,58.691c1.092,19.624,7.937,27.201,28.875,30.515
		c51.222,8.109,83.571,39.981,95.15,90.839c9.647,42.376-11.291,89.893-48.488,114.298c-20.419,13.397-43.037,16.899-66.974,16.854
		c-129.753-0.249-259.508-0.156-389.263-0.061c-10.692,0.008-21.385,0.905-32.077,1.392c-42.841-0.485-85.682-1.216-128.525-1.403
		c-59.626-0.261-103.082-26.931-127.547-81.003c-24.777-54.763-6.897-102.583,30.115-145.004
		C3952.293,2819.655,3963.429,2816.147,3972.448,2810.792z"/>
	<path style="fill:#F57786;" d="M2890.546,3643.108c-0.325-71.649-0.651-143.298-0.973-214.943
		c44.633-0.184,89.263-0.372,133.893-0.557c-5.187,34.754,14.628,58.457,35.773,81.777c11.342,12.509,29.065-0.78,40.358,10.77
		c-9.531,11.331-22.885,9.028-35.169,9.25c-27.975,0.506-55.964,0.263-80.586,0.115c30.197,6.132,65.771-9.112,98.151,9.546
		c-0.27,9.67-0.426,19.316,5.884,27.583c-17.275,16.375-38.81,9.153-58.41,9.212c-18.366,0.056-36.748-2.11-47.35-0.2
		c40.503,0.461,88.773,1.677,137.051,1.519c9.656-0.032,19.661,0.042,27.295,7.75c-0.004,2.218-0.009,4.435-0.014,6.652
		c-4.146,4.573-9.607,7.375-15.452,7.413c-63.216,0.406-126.477,4.408-189.622-1.942c-20.539-4.472-32.275-19.781-43.541-40.507
		C2889.758,3588.264,2900.56,3616.597,2890.546,3643.108z"/>
	<path style="fill:#F8CED4;" d="M2941.375,3597.052c20.349-9.577,41.917-4.528,62.938-4.839
		c47.371-0.701,94.757-0.481,142.136-0.634c21.175,0.061,42.351,0.045,63.524,0.23c5.768,0.051,13.153,0.183,13.866,7.196
		c0.973,9.571-7.582,9.578-14.104,9.757c-19.238,0.526-38.488,0.573-57.734,0.808c-60.94,7.688-122.148,8.804-183.454,7.43
		c-9.869-0.221-19.659-0.872-26.474-9.607C2941.84,3603.947,2941.607,3600.5,2941.375,3597.052z"/>
	<path style="fill:#FBD0D6;" d="M3146.462,3584.929c-60.037-0.125-120.074-0.168-180.11-0.472
		c-8.334-0.042-21.449,2.312-21.687-8.48c-0.274-12.391,13.216-7.854,20.938-8.01c40.75-0.821,81.514-0.941,122.273-1.312
		c39.542,0.255,79.085,0.408,118.625,0.881c7.229,0.086,17.797-1.665,17.196,9.49c-0.444,8.232-9.751,7.711-16.454,7.761
		C3186.983,3584.939,3166.722,3584.896,3146.462,3584.929z"/>
	<path style="fill:#F8CFD8;" d="M3123.054,3661.379c-51.545-0.017-103.091,0.167-154.633-0.226
		c-9.831-0.075-22.449,4.425-26.605-10.714c6.538-14.411,19.691-14.298,32.453-14.444c45.717-0.525,91.502-2.061,136.696,7.307
		c36.631,0,73.263,0,109.894,0c0.023,3.525,0.045,7.049,0.068,10.574C3189.478,3666.888,3155.594,3658.113,3123.054,3661.379z"/>
	<path style="fill:#FDE6E5;" d="M3081.993,3539.065c-36.972-0.332-73.945-0.571-110.914-1.066c-8.5-0.114-21.502,1.165-21.336-9.306
		c0.191-12.027,13.63-7.432,21.429-7.561c42.802-0.709,85.615-0.72,128.425-0.975c34.784,0.304,69.57,0.512,104.352,1.009
		c6.401,0.091,15.766-1.733,16.549,7.239c1.049,12.009-9.794,9.484-16.75,9.587
		C3163.167,3538.594,3122.579,3538.755,3081.993,3539.065z"/>
	<path style="fill:#FDE6EE;" d="M2942.115,3630.899c0.027-2.821,0.054-5.642,0.082-8.464c2.366-3.174,5.426-6.319,9.224-6.373
		c49.802-0.71,99.667-4.759,149.352,2.251c39.632,5.462,80.042-3.021,119.679,7.621c-45.262,11.911-91.871,2.382-137.354,8.746
		C3035.976,3638.172,2988.769,3644.831,2942.115,3630.899z"/>
	<path style="fill:#F57786;" d="M3100.772,3618.313c-52.861,1.369-105.721,2.737-158.579,4.114
		c-0.04-4.999-0.083-10.006-0.123-15.024c69.981,0.713,139.959,1.437,209.935,2.163
		C3136.552,3622.015,3116.657,3608.42,3100.772,3618.313z"/>
	<path style="fill:#F57786;" d="M2942.115,3630.899c46.989,1.256,93.979,2.512,140.975,3.775c7.867,7.508,20.682-0.992,27.879,8.633
		c-45.22,0.453-90.438,0.878-135.655,1.388c-11.453,0.129-23.251-1.5-33.501,5.742
		C2941.916,3643.926,2942.015,3637.413,2942.115,3630.899z"/>
	<path style="fill:#FBCCE1;" d="M3002.781,3668.443c16.389,0,32.787-0.293,49.162,0.184c4.752,0.138,9.98,3.014,8.574,8.833
		c-0.661,2.736-5.371,6.363-8.285,6.399c-31.813,0.396-63.636,0.282-95.453-0.026c-5.253-0.051-9.253-3.371-8.402-9.189
		c0.865-5.913,6.125-7.012,10.979-7.091c14.471-0.236,28.949-0.085,43.424-0.085
		C3002.78,3667.794,3002.78,3668.118,3002.781,3668.443z"/>
	<path style="fill:#3C4878;" d="M3105.674,3833.073c-0.897,12.416-7.931,17.333-19.106,16.7
		c-10.725-0.608-22.643-2.174-22.644-15.921c-0.001-10.755,8.963-17.038,19.365-17.204
		C3094.237,3816.472,3104.179,3820.027,3105.674,3833.073z"/>
	<path style="fill:#84D4FB;" d="M3003.782,2633.679c0.719,7.728-27.871,43.229-33.341,42.206
		c-10.363-1.939-16.25-10.114-20.733-18.642c-2.125-4.044,32.184-36.387,38.241-36.409
		C2997.462,2620.799,3000.495,2628.314,3003.782,2633.679z"/>
	<path style="fill:#F79B6E;" d="M5957.915,2702.577c1.441,19.912-1.676,31.356-17.253,31.154
		c-14.878-0.193-22.756-9.976-23.622-24.654c-1.166-19.778,15.671-21.952,27.849-23.216
		C5960.907,2684.2,5957.561,2699.217,5957.915,2702.577z"/>
	<path style="fill:#92C1FD;" d="M2408.467,3748.947c-125.013,0.945-250.031,2.93-375.023-1.517
		c-4.738-7.092-2.819-15.106-2.823-22.721c-0.102-215.838-0.093-431.676-0.039-647.513c0.002-6.729-1.143-13.662,2.26-20.039
		c-4.268-37.403-4.268-37.403,47.484-34.604c4.423,4.622,6.454,10.756,4.258,16.195c-11.746,29.087,1.877,50.582,19.978,71.122
		c34.198,38.804,63.407,81.327,91.74,124.443c12.575,19.137,27.263,35.48,48.7,44.786c7.273,3.157,14.606,6.459,13.052,16.705
		c-9.55,80.513-3.384,161.226-3.695,241.819c-0.103,26.719,20.791,26.708,39.667,26.802c84.602,0.417,169.206,0.042,253.808,0.253
		c14.504,0.036,29.254-1.446,43.173,4.351c8.793,5.832,6.191,10.954-1.592,14.641c-10.922,5.175-22.863,4.058-34.498,4.11
		c-50.368,0.226-100.744-0.144-153.101,3.257c56.644,26.035,68.017,88.244,107.428,127.353c4.858,4.821,8.792,10.774,5.683,18.302
		c-3.595,8.703-11.261,9.439-19.365,9.837C2466.544,3747.947,2437.36,3743.328,2408.467,3748.947z"/>
	<path style="fill:#88A8FD;" d="M2256.327,3286.93c-25.514,1.492-41.792-14.226-54.343-32.629
		c-38.192-55.998-77.292-111.33-121.268-162.891c-20.665-24.229,1.256-46.01-0.391-68.857
		c125.012,0.025,250.023,0.052,375.035,0.079c-7.913,27.751,4.527,46.213,27.891,58.771c35.98,19.34,56.344,49.206,65.091,88.813
		c5.634,25.514,8.068,52.284,22.74,75.166c5.629,8.78-1.015,16.788-1.808,25.51c9.792,5.489,21.434,0.537,30.932,5.627
		c14.167,7.593,7.677,12.568-2.569,16.878c-63.051,6.108-126.17,1.598-189.212,2.693c-37.855,0.658-75.735,0.428-113.597-0.058
		C2281.478,3295.862,2267.308,3297.734,2256.327,3286.93z"/>
	<path style="fill:#829AFC;" d="M2606.943,3288.154c-15.222-16.036-35.469-1.875-54.694-10.081
		c18.1-14.596,12.959-28.745,3.574-47.178c-9.807-19.26-12.603-42.427-16.612-64.226c-6.877-37.398-27.533-63.722-61.533-79.238
		c-17.517-7.994-24.898-23.97-34.1-38.41c-8.377-13.146,10.696-16.208,11.781-26.385c103.257-0.467,206.515-0.634,309.764-1.751
		c13.966-0.151,16.684,5.665,16.642,17.135c-0.393,105.208-0.818,210.417-0.912,315.626c-0.051,57.398,0.666,114.796,0.675,172.194
		c0.001,10.513,2.416,21.517-3.575,31.434c-12.657-14.837-8.813-29.813-4.091-42.445c-6.159,4.418-5.133,16.391-9.497,25.796
		c-10.497,22.619-18.877,23.895-35.409,4.515c-9.603-11.256-16.264-24.256-21.686-37.923c-9.708-24.469-19.803-48.782-29.056-73.436
		c-6.969-18.567-16.007-37.539-34.198-45.893c-22.87-10.503-28.308-26.872-26.865-49.261c0.683-10.591,1.341-21.464-2.143-31.853
		C2612.679,3300.432,2606.575,3295.669,2606.943,3288.154z"/>
	<path style="fill:#8AAEFD;" d="M2620.441,3298.298c-2.013,44.781,17.169,76.9,50.528,107.501
		c25.078,23.005,28.117,63.01,41.685,95.142c8.439,19.985,18.588,38.015,35.457,53.457c12.828-13.253,9.493-34.143,27.386-49.322
		c0.909,19.377,1.679,35.782,2.452,52.193c0.192,57.436,0.115,114.869,0.755,172.294c0.161,14.419-3.881,20.844-19.762,20.726
		c-116.822-0.866-233.65-0.985-350.475-1.341c25.156-11.623,51.732-2.429,77.501-5.235c8.529-0.929,19.319,2.241,23.737-7.206
		c5.547-11.862-9.148-12.436-13.521-19.067c-7.471-11.328-17.446-21.258-23.487-33.229c-17.838-35.35-39.206-66.863-76.713-84.13
		c-6.205-2.857-13.803-7.678-11.9-14.891c2.775-10.517,13.206-5.186,19.999-5.248c53.658-0.49,107.323-0.11,160.982-0.466
		c10.362-0.069,21.647,3.447,30.796-4.966c13.401-21.522,14.63-45.331,14.398-69.856c-0.531-56.203-0.464-112.417,0.034-168.622
		C2610.41,3322.824,2608.138,3308.455,2620.441,3298.298z"/>
	<path style="fill:#88A8FD;" d="M2032.842,3057.156c0.202,230.094,0.404,460.188,0.604,690.278
		c-7.282-6.08-4.429-14.495-4.432-21.849c-0.093-215.254,0.024-430.509,0.168-645.763
		C2029.187,3072.12,2028.133,3064.144,2032.842,3057.156z"/>
	<path style="fill:#F8B273;" d="M5718.224,2505.49c12.351,4.018,20.492,12.322,20.978,24.857c0.366,9.45-8.261,13.145-16.371,11.732
		c-12.553-2.187-16.084-12.746-16.214-23.721C5706.538,2511.663,5709.152,2504.896,5718.224,2505.49z"/>
	<path style="fill:#F6B579;" d="M5711.701,2488.383c-2.999,15.809-18.368,17.05-30.022,22.243c-7.256,3.233-15.46-0.791-13.75-8.813
		c3.31-15.515,19.655-16.398,31.192-22.088C5704.964,2476.844,5710.344,2480.051,5711.701,2488.383z"/>
	<path style="fill:#76AEFE;" d="M2947.473,3186.931c-12.888,1.083-14.913,16.946-26.952,20.318
		c12.844-31.473,12.844-31.473,26.661-19.953C2947.182,3187.296,2947.473,3186.931,2947.473,3186.931z"/>
	<path style="fill:#FEFEFE;" d="M2620.441,3298.298c-0.063,79.852-0.457,159.705,0.055,239.553
		c0.12,18.813-4.059,32.717-24.635,36.656c-103.292-0.247-206.585-0.365-309.876-0.815c-38.644-0.168-42.248-4.091-42.238-41.783
		c0.019-68.212,0.274-136.426-0.114-204.635c-0.086-15.153,1.419-29.099,12.693-40.344c116.875,0.405,233.749,0.809,350.62,1.219
		C2611.442,3291.535,2615.941,3294.917,2620.441,3298.298z"/>
	<path style="fill:#F768CC;" d="M2401.945,3422.182c0-21.45,0.382-42.908-0.109-64.347c-0.474-20.669,8.084-21.209,22.697-11.407
		c33.184,22.26,66.377,44.513,99.809,66.398c12.841,8.406,12.722,15.321-0.27,23.292c-34.046,20.889-68.072,41.82-101.746,63.298
		c-17.152,10.94-21.462,5.167-20.693-12.894c0.912-21.411,0.214-42.89,0.214-64.34
		C2401.879,3422.182,2401.912,3422.182,2401.945,3422.182z"/>
</g>
</svg>
