<?xml version="1.0" encoding="utf-8"?>
<!-- Generator: Adobe Illustrator 27.5.0, SVG Export Plug-In . SVG Version: 6.00 Build 0)  -->
<svg version="1.1" id="Layer_1" xmlns="http://www.w3.org/2000/svg" xmlns:xlink="http://www.w3.org/1999/xlink" x="0px" y="0px"
	 viewBox="0 0 3296.902 2427.685" style="enable-background:new 0 0 3296.902 2427.685;" xml:space="preserve">
<rect y="2" style="fill-rule:evenodd;clip-rule:evenodd;fill:#FFFFFF;" width="3294.902" height="2425.685"/>
<path style="fill-rule:evenodd;clip-rule:evenodd;fill:#ECF4FF;" d="M1478.541,377.101
	c-144.036,53.922-280.963,169.377-388.812,277.019c-224.589,224.156-258.103,271.28-535.172,459.474
	c-161.481,109.682-288.795,202.441-351.523,326.507c-176.205,348.497,33.674,724.902,473.467,724.902
	c17.924,0,1787.802,0,1787.802,0s210.299,4.782,363.761-181.486C3348.192,1352.195,2485.509,0.115,1478.541,377.101"/>
<path style="fill-rule:evenodd;clip-rule:evenodd;fill:#C3DCFA;" d="M1622.901,814.151l21.756-14.393
	c9.088-6.025,13.178-17.393,9.776-27.741c-6.541-20.046-10.451-40.551-11.839-61.127c-0.768-10.894-8.771-19.922-19.468-22.074
	l-25.558-5.254c-13.26-2.685-21.852-15.61-19.163-28.868l9.987-48.969c2.703-13.264,15.668-21.816,28.923-19.112l25.57,5.204
	c10.716,2.177,21.611-2.984,26.552-12.713c9.323-18.397,20.962-35.741,34.821-51.612c7.183-8.213,7.856-20.235,1.81-29.348
	l-14.37-21.766c-7.484-11.28-4.36-26.48,6.911-33.956l41.687-27.568c11.272-7.479,26.472-4.367,33.952,6.908l14.392,21.755
	c6.026,9.09,17.373,13.197,27.735,9.811c20.028-6.553,40.538-10.46,61.095-11.867c10.927-0.724,19.928-8.759,22.11-19.47
	l5.208-25.568c2.699-13.26,15.636-21.83,28.893-19.094l48.975,9.953c13.266,2.698,21.804,15.655,19.111,28.915l-5.206,25.569
	c-2.18,10.707,2.988,21.624,12.733,26.533c18.374,9.35,35.725,20.987,51.616,34.823c8.188,7.203,20.231,7.86,29.341,1.858
	l21.749-14.401c11.278-7.478,26.475-4.369,33.955,6.915l27.567,41.677c7.465,11.299,4.369,26.484-6.914,33.964l-21.746,14.385
	c-9.095,6.031-13.181,17.354-9.8,27.759c6.569,19.987,10.454,40.512,11.858,61.07c0.717,10.93,8.757,19.936,19.45,22.139
	l25.583,5.184c13.265,2.692,21.814,15.653,19.111,28.911l-9.948,48.942c-2.713,13.277-15.677,21.819-28.938,19.132l-25.545-5.231
	c-10.739-2.165-21.624,2.986-26.561,12.754c-9.34,18.371-20.957,35.743-34.812,51.578c-7.189,8.204-7.884,20.289-1.855,29.38
	l14.387,21.749c7.486,11.277,4.391,26.495-6.911,33.955l-41.669,27.593c-11.266,7.433-26.489,4.34-33.976-6.937l-14.37-21.766
	c-6.019-9.096-17.367-13.162-27.775-9.786c-19.994,6.547-40.508,10.443-61.06,11.854c-10.897,0.736-19.917,8.742-22.105,19.456
	l-5.196,25.564c-2.715,13.278-15.658,21.847-28.924,19.15l-48.967-9.998c-13.26-2.69-21.835-15.626-19.118-28.907l5.213-25.577
	c2.177-10.706-2.973-21.589-12.713-26.553c-18.418-9.297-35.76-20.933-51.611-34.808c-8.234-7.173-20.232-7.872-29.335-1.835
	l-21.792,14.39c-11.272,7.478-26.494,4.382-33.95-6.913l-27.564-41.683C1608.494,836.808,1611.601,821.603,1622.901,814.151
	 M1795.883,786.57c38.709,41.803,101.53,54.602,153.51,31.263c85.797-38.5,108.108-148.12,44.216-217.141
	c-38.714-41.772-101.511-54.59-153.473-31.254C1754.322,607.952,1731.971,717.558,1795.883,786.57z"/>
<path style="fill-rule:evenodd;clip-rule:evenodd;fill:#7BA9E3;" d="M953.364,643.473H2739.37c29.238,0,53.158,23.921,53.158,53.158
	v1131.023c0,29.237-23.921,53.158-53.158,53.158H953.364c-29.237,0-53.158-23.921-53.158-53.158V696.631
	C900.206,667.394,924.127,643.473,953.364,643.473"/>
<path style="fill-rule:evenodd;clip-rule:evenodd;fill:#0F4884;" d="M146.931,2165.005h3035.197c3.422,0,6.208,1.837,6.208,4.082
	c0,2.246-2.786,4.082-6.208,4.082H146.931c-3.421,0-6.208-1.836-6.208-4.082C140.723,2166.842,143.51,2165.005,146.931,2165.005"/>
<path style="fill-rule:evenodd;clip-rule:evenodd;fill:#B1D2FC;" d="M999.658,643.473h1786.006
	c29.237,0,53.158,23.921,53.158,53.158v1131.023c0,29.237-23.921,53.158-53.158,53.158H999.658
	c-29.237,0-53.158-23.921-53.158-53.158V696.631C946.5,667.394,970.421,643.473,999.658,643.473"/>
<path style="fill-rule:evenodd;clip-rule:evenodd;fill:#355298;" d="M1020.308,713.351h1742.573c0.716,0,1.301,0.605,1.301,1.345
	v968.208H1019.007V714.696C1019.007,713.956,1019.593,713.351,1020.308,713.351"/>
<path style="fill-rule:evenodd;clip-rule:evenodd;fill:#B1D2FC;" d="M1749.719,1862.027
	c-7.66,166.222-27.93,208.255-168.393,302.977h311.336h311.336c-140.464-94.722-160.734-136.755-168.394-302.977l-142.942-13.508
	L1749.719,1862.027z"/>
<rect x="1744.779" y="1880.813" style="fill-rule:evenodd;clip-rule:evenodd;fill:#2A4589;" width="295.573" height="52.676"/>
<path style="fill-rule:evenodd;clip-rule:evenodd;fill:#F1F7FF;" d="M1892.661,1730.512c23.151,0,41.919,18.768,41.919,41.918
	s-18.768,41.918-41.919,41.918c-23.151,0-41.918-18.767-41.918-41.918S1869.511,1730.512,1892.661,1730.512"/>
<polygon style="fill-rule:evenodd;clip-rule:evenodd;fill:#F79646;" points="1960.8,918.088 1953.001,903.742 1875.219,903.742 
	1875.219,918.088 1875.219,1062.039 2074.063,1062.039 2074.063,918.088 "/>
<rect x="1881.59" y="924.627" style="fill-rule:evenodd;clip-rule:evenodd;fill:#C3DCFA;" width="186.101" height="137.412"/>
<polygon style="fill-rule:evenodd;clip-rule:evenodd;fill:#FFFFFF;" points="1879.267,931.638 2070.198,931.638 2067.691,1062.039 
	1881.59,1062.039 "/>
<polygon style="fill-rule:evenodd;clip-rule:evenodd;fill:#FBB44A;" points="1868.606,939.289 2079.827,939.289 2074.063,1062.039 
	1875.219,1062.039 "/>
<path style="fill-rule:evenodd;clip-rule:evenodd;fill:#8BA7D7;" d="M1890.241,1087.133H2054.6c4.758,0,8.651,3.893,8.651,8.651v0
	c0,4.758-3.893,8.651-8.651,8.651h-164.359c-4.758,0-8.651-3.893-8.651-8.651v0
	C1881.59,1091.026,1885.483,1087.133,1890.241,1087.133"/>
<polygon style="fill-rule:evenodd;clip-rule:evenodd;fill:#F79646;" points="1960.8,1158.726 1953.001,1144.38 1875.219,1144.38 
	1875.219,1158.726 1875.219,1302.677 2074.063,1302.677 2074.063,1158.726 "/>
<rect x="1881.59" y="1165.265" style="fill-rule:evenodd;clip-rule:evenodd;fill:#C3DCFA;" width="186.101" height="137.412"/>
<polygon style="fill-rule:evenodd;clip-rule:evenodd;fill:#FFFFFF;" points="1879.267,1172.276 2070.198,1172.276 
	2067.691,1302.677 1881.59,1302.677 "/>
<polygon style="fill-rule:evenodd;clip-rule:evenodd;fill:#FBB44A;" points="1868.606,1179.928 2079.827,1179.928 
	2074.063,1302.677 1875.219,1302.677 "/>
<path style="fill-rule:evenodd;clip-rule:evenodd;fill:#8BA7D7;" d="M1890.241,1327.771H2054.6c4.758,0,8.651,3.893,8.651,8.651v0
	c0,4.758-3.893,8.651-8.651,8.651h-164.359c-4.758,0-8.651-3.893-8.651-8.651v0
	C1881.59,1331.664,1885.483,1327.771,1890.241,1327.771"/>
<polygon style="fill-rule:evenodd;clip-rule:evenodd;fill:#F79646;" points="2255.337,918.088 2247.538,903.742 2169.756,903.742 
	2169.756,918.088 2169.756,1062.039 2368.6,1062.039 2368.6,918.088 "/>
<polygon style="fill-rule:evenodd;clip-rule:evenodd;fill:#F79646;" points="2549.874,918.088 2542.074,903.742 2464.293,903.742 
	2464.293,918.088 2464.293,1062.039 2663.137,1062.039 2663.137,918.088 "/>
<rect x="2176.127" y="924.627" style="fill-rule:evenodd;clip-rule:evenodd;fill:#C3DCFA;" width="186.101" height="137.412"/>
<rect x="2470.664" y="924.627" style="fill-rule:evenodd;clip-rule:evenodd;fill:#C3DCFA;" width="186.101" height="137.412"/>
<polygon style="fill-rule:evenodd;clip-rule:evenodd;fill:#FFFFFF;" points="2173.804,931.638 2364.735,931.638 2362.228,1062.039 
	2176.127,1062.039 "/>
<polygon style="fill-rule:evenodd;clip-rule:evenodd;fill:#FFFFFF;" points="2468.341,931.638 2659.272,931.638 2656.765,1062.039 
	2470.664,1062.039 "/>
<polygon style="fill-rule:evenodd;clip-rule:evenodd;fill:#FBB44A;" points="2163.143,939.289 2374.365,939.289 2368.6,1062.039 
	2169.756,1062.039 "/>
<polygon style="fill-rule:evenodd;clip-rule:evenodd;fill:#FBB44A;" points="2457.68,939.289 2668.901,939.289 2663.137,1062.039 
	2464.293,1062.039 "/>
<path style="fill-rule:evenodd;clip-rule:evenodd;fill:#8BA7D7;" d="M2184.778,1087.133h164.359c4.758,0,8.651,3.893,8.651,8.651v0
	c0,4.758-3.893,8.651-8.651,8.651h-164.359c-4.758,0-8.651-3.893-8.651-8.651v0
	C2176.127,1091.026,2180.02,1087.133,2184.778,1087.133"/>
<path style="fill-rule:evenodd;clip-rule:evenodd;fill:#8BA7D7;" d="M2479.315,1087.133h164.359c4.758,0,8.651,3.893,8.651,8.651v0
	c0,4.758-3.893,8.651-8.651,8.651h-164.359c-4.758,0-8.651-3.893-8.651-8.651v0
	C2470.664,1091.026,2474.557,1087.133,2479.315,1087.133"/>
<polygon style="fill-rule:evenodd;clip-rule:evenodd;fill:#F79646;" points="2255.337,1158.726 2247.538,1144.38 2169.756,1144.38 
	2169.756,1158.726 2169.756,1302.677 2368.6,1302.677 2368.6,1158.726 "/>
<polygon style="fill-rule:evenodd;clip-rule:evenodd;fill:#F79646;" points="2549.874,1158.726 2542.074,1144.38 2464.293,1144.38 
	2464.293,1158.726 2464.293,1302.677 2663.137,1302.677 2663.137,1158.726 "/>
<rect x="2176.127" y="1165.265" style="fill-rule:evenodd;clip-rule:evenodd;fill:#C3DCFA;" width="186.101" height="137.412"/>
<rect x="2470.664" y="1165.265" style="fill-rule:evenodd;clip-rule:evenodd;fill:#C3DCFA;" width="186.101" height="137.412"/>
<polygon style="fill-rule:evenodd;clip-rule:evenodd;fill:#FFFFFF;" points="2173.804,1172.276 2364.735,1172.276 
	2362.228,1302.677 2176.127,1302.677 "/>
<polygon style="fill-rule:evenodd;clip-rule:evenodd;fill:#FFFFFF;" points="2468.341,1172.276 2659.272,1172.276 
	2656.765,1302.677 2470.664,1302.677 "/>
<polygon style="fill-rule:evenodd;clip-rule:evenodd;fill:#FBB44A;" points="2163.143,1179.928 2374.365,1179.928 2368.6,1302.677 
	2169.756,1302.677 "/>
<polygon style="fill-rule:evenodd;clip-rule:evenodd;fill:#FBB44A;" points="2457.68,1179.928 2668.901,1179.928 2663.137,1302.677 
	2464.293,1302.677 "/>
<path style="fill-rule:evenodd;clip-rule:evenodd;fill:#8BA7D7;" d="M2184.778,1327.771h164.359c4.758,0,8.651,3.893,8.651,8.651v0
	c0,4.758-3.893,8.651-8.651,8.651h-164.359c-4.758,0-8.651-3.893-8.651-8.651v0
	C2176.127,1331.664,2180.02,1327.771,2184.778,1327.771"/>
<path style="fill-rule:evenodd;clip-rule:evenodd;fill:#8BA7D7;" d="M2479.315,1327.771h164.359c4.758,0,8.651,3.893,8.651,8.651v0
	c0,4.758-3.893,8.651-8.651,8.651h-164.359c-4.758,0-8.651-3.893-8.651-8.651v0
	C2470.664,1331.664,2474.557,1327.771,2479.315,1327.771"/>
<polygon style="fill-rule:evenodd;clip-rule:evenodd;fill:#F79646;" points="1960.8,1393.586 1953.001,1379.24 1875.219,1379.24 
	1875.219,1393.586 1875.219,1537.537 2074.063,1537.537 2074.063,1393.586 "/>
<rect x="1881.59" y="1400.125" style="fill-rule:evenodd;clip-rule:evenodd;fill:#C3DCFA;" width="186.101" height="137.412"/>
<polygon style="fill-rule:evenodd;clip-rule:evenodd;fill:#FFFFFF;" points="1879.267,1407.136 2070.198,1407.136 
	2067.691,1537.537 1881.59,1537.537 "/>
<polygon style="fill-rule:evenodd;clip-rule:evenodd;fill:#FBB44A;" points="1868.606,1414.787 2079.827,1414.787 
	2074.063,1537.537 1875.219,1537.537 "/>
<path style="fill-rule:evenodd;clip-rule:evenodd;fill:#8BA7D7;" d="M1890.241,1562.631H2054.6c4.758,0,8.651,3.893,8.651,8.651
	c0,4.758-3.893,8.651-8.651,8.651h-164.359c-4.758,0-8.651-3.893-8.651-8.651C1881.59,1566.524,1885.483,1562.631,1890.241,1562.631
	"/>
<polygon style="fill-rule:evenodd;clip-rule:evenodd;fill:#F79646;" points="2255.337,1393.586 2247.538,1379.24 2169.756,1379.24 
	2169.756,1393.586 2169.756,1537.537 2368.6,1537.537 2368.6,1393.586 "/>
<polygon style="fill-rule:evenodd;clip-rule:evenodd;fill:#F79646;" points="2549.874,1393.586 2542.074,1379.24 2464.293,1379.24 
	2464.293,1393.586 2464.293,1537.537 2663.137,1537.537 2663.137,1393.586 "/>
<rect x="2176.127" y="1400.125" style="fill-rule:evenodd;clip-rule:evenodd;fill:#C3DCFA;" width="186.101" height="137.412"/>
<rect x="2470.664" y="1400.125" style="fill-rule:evenodd;clip-rule:evenodd;fill:#C3DCFA;" width="186.101" height="137.412"/>
<polygon style="fill-rule:evenodd;clip-rule:evenodd;fill:#FFFFFF;" points="2173.804,1407.136 2364.735,1407.136 
	2362.228,1537.537 2176.127,1537.537 "/>
<polygon style="fill-rule:evenodd;clip-rule:evenodd;fill:#FFFFFF;" points="2468.341,1407.136 2659.272,1407.136 
	2656.765,1537.537 2470.664,1537.537 "/>
<polygon style="fill-rule:evenodd;clip-rule:evenodd;fill:#FBB44A;" points="2163.143,1414.787 2374.365,1414.787 2368.6,1537.537 
	2169.756,1537.537 "/>
<polygon style="fill-rule:evenodd;clip-rule:evenodd;fill:#FBB44A;" points="2457.68,1414.787 2668.901,1414.787 2663.137,1537.537 
	2464.293,1537.537 "/>
<path style="fill-rule:evenodd;clip-rule:evenodd;fill:#8BA7D7;" d="M2184.778,1562.631h164.359c4.758,0,8.651,3.893,8.651,8.651
	c0,4.758-3.893,8.651-8.651,8.651h-164.359c-4.758,0-8.651-3.893-8.651-8.651C2176.127,1566.524,2180.02,1562.631,2184.778,1562.631
	"/>
<path style="fill-rule:evenodd;clip-rule:evenodd;fill:#8BA7D7;" d="M2479.315,1562.631h164.359c4.758,0,8.651,3.893,8.651,8.651
	c0,4.758-3.893,8.651-8.651,8.651h-164.359c-4.758,0-8.651-3.893-8.651-8.651
	C2470.664,1566.524,2474.557,1562.631,2479.315,1562.631"/>
<rect x="1019.007" y="713.352" style="fill-rule:evenodd;clip-rule:evenodd;fill:#8BA7D7;" width="1745.175" height="93.099"/>
<path style="fill-rule:evenodd;clip-rule:evenodd;fill:#B1D2FC;" d="M1098.947,739.361h9.864c10.677,0,19.412,8.735,19.412,19.412v0
	c0,10.677-8.735,19.412-19.412,19.412h-9.864c-10.677,0-19.412-8.735-19.412-19.412v0
	C1079.535,748.096,1088.27,739.361,1098.947,739.361"/>
<path style="fill-rule:evenodd;clip-rule:evenodd;fill:#B1D2FC;" d="M1164.423,739.361h9.864c10.677,0,19.412,8.735,19.412,19.412v0
	c0,10.677-8.735,19.412-19.412,19.412h-9.864c-10.677,0-19.412-8.735-19.412-19.412v0
	C1145.011,748.096,1153.746,739.361,1164.423,739.361"/>
<path style="fill-rule:evenodd;clip-rule:evenodd;fill:#B1D2FC;" d="M1229.9,739.361h9.864c10.677,0,19.412,8.735,19.412,19.412v0
	c0,10.677-8.735,19.412-19.412,19.412h-9.864c-10.677,0-19.412-8.735-19.412-19.412v0
	C1210.488,748.096,1219.223,739.361,1229.9,739.361"/>
<rect x="1111.617" y="919.268" style="fill-rule:evenodd;clip-rule:evenodd;fill:#D0E5FF;" width="158.838" height="184.414"/>
<path style="fill-rule:evenodd;clip-rule:evenodd;fill:#F79646;" d="M1127.805,937.503h39.373c1.636,0,2.974,1.338,2.974,2.975
	c0,1.636-1.338,2.975-2.974,2.975h-39.373c-1.636,0-2.974-1.339-2.974-2.975C1124.831,938.841,1126.169,937.503,1127.805,937.503"/>
<path style="fill-rule:evenodd;clip-rule:evenodd;fill:#7BA9E3;" d="M1127.805,950.101h116.898c1.636,0,2.974,1.338,2.974,2.975
	c0,1.636-1.339,2.974-2.974,2.974h-116.898c-1.635,0-2.974-1.338-2.974-2.974C1124.831,951.44,1126.17,950.101,1127.805,950.101"/>
<path style="fill-rule:evenodd;clip-rule:evenodd;fill:#7BA9E3;" d="M1127.806,964.068h81.096c1.636,0,2.975,1.338,2.975,2.975
	c0,1.636-1.339,2.975-2.975,2.975h-81.096c-1.636,0-2.975-1.339-2.975-2.975C1124.831,965.407,1126.17,964.068,1127.806,964.068"/>
<path style="fill-rule:evenodd;clip-rule:evenodd;fill:#F79646;" d="M1127.805,990.892h39.373c1.636,0,2.974,1.338,2.974,2.975
	c0,1.636-1.338,2.974-2.974,2.974h-39.373c-1.636,0-2.974-1.338-2.974-2.974C1124.831,992.23,1126.169,990.892,1127.805,990.892"/>
<path style="fill-rule:evenodd;clip-rule:evenodd;fill:#F79646;" d="M1127.805,1044.281h39.373c1.636,0,2.974,1.339,2.974,2.975
	c0,1.637-1.338,2.975-2.974,2.975h-39.373c-1.636,0-2.974-1.338-2.974-2.975C1124.831,1045.619,1126.169,1044.281,1127.805,1044.281
	"/>
<path style="fill-rule:evenodd;clip-rule:evenodd;fill:#7BA9E3;" d="M1127.805,1003.49h116.898c1.636,0,2.974,1.339,2.974,2.975
	c0,1.636-1.339,2.975-2.974,2.975h-116.898c-1.635,0-2.974-1.338-2.974-2.975C1124.831,1004.829,1126.17,1003.49,1127.805,1003.49"
	/>
<path style="fill-rule:evenodd;clip-rule:evenodd;fill:#7BA9E3;" d="M1127.805,1056.879h116.898c1.636,0,2.974,1.338,2.974,2.975
	c0,1.636-1.339,2.975-2.974,2.975h-116.898c-1.635,0-2.974-1.338-2.974-2.975C1124.831,1058.218,1126.17,1056.879,1127.805,1056.879
	"/>
<path style="fill-rule:evenodd;clip-rule:evenodd;fill:#7BA9E3;" d="M1127.806,1017.458h81.096c1.636,0,2.975,1.338,2.975,2.975
	c0,1.636-1.339,2.975-2.975,2.975h-81.096c-1.636,0-2.975-1.339-2.975-2.975C1124.831,1018.796,1126.17,1017.458,1127.806,1017.458"
	/>
<path style="fill-rule:evenodd;clip-rule:evenodd;fill:#7BA9E3;" d="M1127.806,1070.847h81.096c1.636,0,2.975,1.338,2.975,2.974
	c0,1.636-1.339,2.975-2.975,2.975h-81.096c-1.636,0-2.975-1.338-2.975-2.975C1124.831,1072.185,1126.17,1070.847,1127.806,1070.847"
	/>
<rect x="1111.617" y="903.742" style="fill-rule:evenodd;clip-rule:evenodd;fill:#7BA9E3;" width="158.838" height="15.526"/>
<path style="fill-rule:evenodd;clip-rule:evenodd;fill:#FFFFFF;" d="M1242.526,907.693c1.849,0,3.348,1.499,3.348,3.348
	c0,1.849-1.499,3.348-3.348,3.348c-1.849,0-3.348-1.499-3.348-3.348C1239.177,909.193,1240.677,907.693,1242.526,907.693"/>
<path style="fill-rule:evenodd;clip-rule:evenodd;fill:#FFFFFF;" d="M1252.056,907.693c1.849,0,3.348,1.499,3.348,3.348
	c0,1.849-1.499,3.348-3.348,3.348c-1.849,0-3.348-1.499-3.348-3.348C1248.708,909.193,1250.207,907.693,1252.056,907.693"/>
<path style="fill-rule:evenodd;clip-rule:evenodd;fill:#FFFFFF;" d="M1261.586,907.693c1.849,0,3.349,1.499,3.349,3.348
	c0,1.849-1.499,3.348-3.349,3.348c-1.849,0-3.348-1.499-3.348-3.348C1258.238,909.193,1259.737,907.693,1261.586,907.693"/>
<rect x="1111.617" y="1157.394" style="fill-rule:evenodd;clip-rule:evenodd;fill:#D0E5FF;" width="158.838" height="184.414"/>
<path style="fill-rule:evenodd;clip-rule:evenodd;fill:#F79646;" d="M1127.805,1175.628h39.373c1.636,0,2.974,1.339,2.974,2.974
	c0,1.637-1.338,2.975-2.974,2.975h-39.373c-1.636,0-2.974-1.338-2.974-2.975C1124.831,1176.967,1126.169,1175.628,1127.805,1175.628
	"/>
<path style="fill-rule:evenodd;clip-rule:evenodd;fill:#7BA9E3;" d="M1127.805,1188.226h116.898c1.636,0,2.974,1.339,2.974,2.975
	c0,1.636-1.339,2.975-2.974,2.975h-116.898c-1.635,0-2.974-1.339-2.974-2.975C1124.831,1189.565,1126.17,1188.226,1127.805,1188.226
	"/>
<path style="fill-rule:evenodd;clip-rule:evenodd;fill:#7BA9E3;" d="M1127.806,1202.194h81.096c1.636,0,2.975,1.339,2.975,2.975
	s-1.339,2.975-2.975,2.975h-81.096c-1.636,0-2.975-1.339-2.975-2.975S1126.17,1202.194,1127.806,1202.194"/>
<path style="fill-rule:evenodd;clip-rule:evenodd;fill:#F79646;" d="M1127.805,1229.017h39.373c1.636,0,2.974,1.339,2.974,2.975
	c0,1.636-1.338,2.975-2.974,2.975h-39.373c-1.636,0-2.974-1.339-2.974-2.975C1124.831,1230.356,1126.169,1229.017,1127.805,1229.017
	"/>
<path style="fill-rule:evenodd;clip-rule:evenodd;fill:#F79646;" d="M1127.805,1282.406h39.373c1.636,0,2.974,1.338,2.974,2.974
	c0,1.636-1.338,2.975-2.974,2.975h-39.373c-1.636,0-2.974-1.338-2.974-2.975C1124.831,1283.745,1126.169,1282.406,1127.805,1282.406
	"/>
<path style="fill-rule:evenodd;clip-rule:evenodd;fill:#7BA9E3;" d="M1127.805,1241.616h116.898c1.636,0,2.974,1.338,2.974,2.975
	c0,1.636-1.339,2.974-2.974,2.974h-116.898c-1.635,0-2.974-1.338-2.974-2.974C1124.831,1242.954,1126.17,1241.616,1127.805,1241.616
	"/>
<path style="fill-rule:evenodd;clip-rule:evenodd;fill:#7BA9E3;" d="M1127.805,1295.005h116.898c1.636,0,2.974,1.339,2.974,2.975
	c0,1.636-1.339,2.975-2.974,2.975h-116.898c-1.635,0-2.974-1.338-2.974-2.975C1124.831,1296.343,1126.17,1295.005,1127.805,1295.005
	"/>
<path style="fill-rule:evenodd;clip-rule:evenodd;fill:#7BA9E3;" d="M1127.806,1255.583h81.096c1.636,0,2.975,1.339,2.975,2.975
	c0,1.636-1.339,2.975-2.975,2.975h-81.096c-1.636,0-2.975-1.339-2.975-2.975C1124.831,1256.921,1126.17,1255.583,1127.806,1255.583"
	/>
<path style="fill-rule:evenodd;clip-rule:evenodd;fill:#7BA9E3;" d="M1127.806,1308.972h81.096c1.636,0,2.975,1.338,2.975,2.975
	c0,1.636-1.339,2.974-2.975,2.974h-81.096c-1.636,0-2.975-1.338-2.975-2.974C1124.831,1310.31,1126.17,1308.972,1127.806,1308.972"
	/>
<rect x="1111.617" y="1141.867" style="fill-rule:evenodd;clip-rule:evenodd;fill:#7BA9E3;" width="158.838" height="15.526"/>
<path style="fill-rule:evenodd;clip-rule:evenodd;fill:#FFFFFF;" d="M1242.526,1145.819c1.849,0,3.348,1.499,3.348,3.348
	c0,1.849-1.499,3.348-3.348,3.348c-1.849,0-3.348-1.499-3.348-3.348C1239.177,1147.318,1240.677,1145.819,1242.526,1145.819"/>
<path style="fill-rule:evenodd;clip-rule:evenodd;fill:#FFFFFF;" d="M1252.056,1145.819c1.849,0,3.348,1.499,3.348,3.348
	c0,1.849-1.499,3.348-3.348,3.348c-1.849,0-3.348-1.499-3.348-3.348C1248.708,1147.318,1250.207,1145.819,1252.056,1145.819"/>
<path style="fill-rule:evenodd;clip-rule:evenodd;fill:#FFFFFF;" d="M1261.586,1145.819c1.849,0,3.349,1.499,3.349,3.348
	c0,1.849-1.499,3.348-3.349,3.348c-1.849,0-3.348-1.499-3.348-3.348C1258.238,1147.318,1259.737,1145.819,1261.586,1145.819"/>
<rect x="1111.617" y="1395.519" style="fill-rule:evenodd;clip-rule:evenodd;fill:#D0E5FF;" width="158.838" height="184.414"/>
<path style="fill-rule:evenodd;clip-rule:evenodd;fill:#F79646;" d="M1127.805,1413.753h39.373c1.636,0,2.974,1.339,2.974,2.975
	c0,1.636-1.338,2.974-2.974,2.974h-39.373c-1.636,0-2.974-1.338-2.974-2.974C1124.831,1415.092,1126.169,1413.753,1127.805,1413.753
	"/>
<path style="fill-rule:evenodd;clip-rule:evenodd;fill:#7BA9E3;" d="M1127.805,1426.352h116.898c1.636,0,2.974,1.339,2.974,2.975
	c0,1.636-1.339,2.975-2.974,2.975h-116.898c-1.635,0-2.974-1.338-2.974-2.975C1124.831,1427.69,1126.17,1426.352,1127.805,1426.352"
	/>
<path style="fill-rule:evenodd;clip-rule:evenodd;fill:#7BA9E3;" d="M1127.806,1440.319h81.096c1.636,0,2.975,1.338,2.975,2.974
	c0,1.636-1.339,2.975-2.975,2.975h-81.096c-1.636,0-2.975-1.338-2.975-2.975C1124.831,1441.658,1126.17,1440.319,1127.806,1440.319"
	/>
<path style="fill-rule:evenodd;clip-rule:evenodd;fill:#F79646;" d="M1127.805,1467.142h39.373c1.636,0,2.974,1.339,2.974,2.975
	c0,1.637-1.338,2.975-2.974,2.975h-39.373c-1.636,0-2.974-1.338-2.974-2.975C1124.831,1468.481,1126.169,1467.142,1127.805,1467.142
	"/>
<path style="fill-rule:evenodd;clip-rule:evenodd;fill:#F79646;" d="M1127.805,1520.532h39.373c1.636,0,2.974,1.338,2.974,2.975
	c0,1.636-1.338,2.975-2.974,2.975h-39.373c-1.636,0-2.974-1.339-2.974-2.975C1124.831,1521.87,1126.169,1520.532,1127.805,1520.532"
	/>
<path style="fill-rule:evenodd;clip-rule:evenodd;fill:#7BA9E3;" d="M1127.805,1479.741h116.898c1.636,0,2.974,1.338,2.974,2.975
	c0,1.636-1.339,2.975-2.974,2.975h-116.898c-1.635,0-2.974-1.339-2.974-2.975C1124.831,1481.079,1126.17,1479.741,1127.805,1479.741
	"/>
<path style="fill-rule:evenodd;clip-rule:evenodd;fill:#7BA9E3;" d="M1127.805,1533.13h116.898c1.636,0,2.974,1.338,2.974,2.974
	c0,1.636-1.339,2.975-2.974,2.975h-116.898c-1.635,0-2.974-1.339-2.974-2.975C1124.831,1534.468,1126.17,1533.13,1127.805,1533.13"
	/>
<path style="fill-rule:evenodd;clip-rule:evenodd;fill:#7BA9E3;" d="M1127.806,1493.708h81.096c1.636,0,2.975,1.338,2.975,2.974
	c0,1.637-1.339,2.975-2.975,2.975h-81.096c-1.636,0-2.975-1.338-2.975-2.975C1124.831,1495.047,1126.17,1493.708,1127.806,1493.708"
	/>
<path style="fill-rule:evenodd;clip-rule:evenodd;fill:#7BA9E3;" d="M1127.806,1547.097h81.096c1.636,0,2.975,1.339,2.975,2.975
	c0,1.636-1.339,2.975-2.975,2.975h-81.096c-1.636,0-2.975-1.339-2.975-2.975C1124.831,1548.436,1126.17,1547.097,1127.806,1547.097"
	/>
<rect x="1111.617" y="1379.992" style="fill-rule:evenodd;clip-rule:evenodd;fill:#7BA9E3;" width="158.838" height="15.526"/>
<path style="fill-rule:evenodd;clip-rule:evenodd;fill:#FFFFFF;" d="M1242.526,1383.944c1.849,0,3.348,1.499,3.348,3.349
	c0,1.849-1.499,3.348-3.348,3.348c-1.849,0-3.348-1.499-3.348-3.348C1239.177,1385.443,1240.677,1383.944,1242.526,1383.944"/>
<path style="fill-rule:evenodd;clip-rule:evenodd;fill:#FFFFFF;" d="M1252.056,1383.944c1.849,0,3.348,1.499,3.348,3.349
	c0,1.849-1.499,3.348-3.348,3.348c-1.849,0-3.348-1.499-3.348-3.348C1248.708,1385.443,1250.207,1383.944,1252.056,1383.944"/>
<path style="fill-rule:evenodd;clip-rule:evenodd;fill:#FFFFFF;" d="M1261.586,1383.944c1.849,0,3.349,1.499,3.349,3.349
	c0,1.849-1.499,3.348-3.349,3.348c-1.849,0-3.348-1.499-3.348-3.348C1258.238,1385.443,1259.737,1383.944,1261.586,1383.944"/>
<polygon style="fill-rule:evenodd;clip-rule:evenodd;fill:#F79646;" points="887.559,1532.609 853.295,1469.583 511.588,1469.583 
	511.588,1532.609 511.588,2165.005 1385.137,2165.005 1385.137,1532.609 "/>
<rect x="539.579" y="1561.335" style="fill-rule:evenodd;clip-rule:evenodd;fill:#C3DCFA;" width="817.567" height="603.67"/>
<polygon style="fill-rule:evenodd;clip-rule:evenodd;fill:#FFFFFF;" points="529.373,1592.136 1368.157,1592.136 1357.146,2165.005 
	539.579,2165.005 "/>
<polygon style="fill-rule:evenodd;clip-rule:evenodd;fill:#FBB44A;" points="482.538,1625.75 1410.463,1625.75 1385.137,2165.005 
	511.588,2165.005 "/>
<path style="fill-rule:evenodd;clip-rule:evenodd;fill:#F79646;" d="M816.241,1955.655l10.196-6.746
	c4.259-2.823,6.177-8.152,4.582-13.001c-3.065-9.395-4.898-19.005-5.549-28.649c-0.36-5.105-4.111-9.337-9.124-10.346l-11.978-2.463
	c-6.215-1.258-10.242-7.316-8.982-13.53l4.681-22.95c1.267-6.216,7.343-10.224,13.555-8.957l11.984,2.439
	c5.022,1.021,10.129-1.398,12.444-5.958c4.369-8.623,9.824-16.751,16.32-24.189c3.367-3.849,3.682-9.484,0.848-13.755l-6.735-10.201
	c-3.508-5.286-2.043-12.41,3.239-15.914l19.538-12.92c5.283-3.506,12.407-2.047,15.912,3.237l6.745,10.196
	c2.824,4.26,8.143,6.185,12.998,4.598c9.387-3.071,18.999-4.902,28.634-5.562c5.121-0.339,9.34-4.105,10.362-9.125l2.441-11.983
	c1.265-6.214,7.328-10.231,13.541-8.948l22.953,4.665c6.218,1.265,10.219,7.337,8.957,13.552l-2.44,11.984
	c-1.022,5.018,1.4,10.134,5.968,12.435c8.611,4.382,16.743,9.836,24.191,16.321c3.838,3.375,9.482,3.684,13.751,0.87l10.193-6.749
	c5.286-3.505,12.408-2.048,15.914,3.241l12.92,19.533c3.498,5.295,2.047,12.412-3.241,15.918l-10.192,6.742
	c-4.262,2.826-6.178,8.133-4.593,13.01c3.078,9.367,4.899,18.987,5.557,28.621c0.336,5.122,4.104,9.344,9.116,10.376l11.99,2.43
	c6.217,1.262,10.224,7.336,8.957,13.55l-4.662,22.937c-1.271,6.223-7.347,10.226-13.562,8.967l-11.972-2.452
	c-5.033-1.015-10.134,1.4-12.448,5.977c-4.378,8.61-9.822,16.752-16.315,24.173c-3.37,3.845-3.695,9.509-0.869,13.77l6.742,10.193
	c3.508,5.285,2.058,12.417-3.239,15.913l-19.529,12.932c-5.28,3.484-12.415,2.034-15.924-3.251l-6.735-10.201
	c-2.821-4.263-8.139-6.169-13.017-4.586c-9.37,3.068-18.985,4.894-28.617,5.555c-5.107,0.345-9.334,4.098-10.36,9.119l-2.435,11.981
	c-1.273,6.223-7.339,10.239-13.556,8.975l-22.949-4.685c-6.215-1.261-10.234-7.324-8.96-13.548l2.443-11.987
	c1.02-5.018-1.393-10.118-5.958-12.445c-8.632-4.357-16.76-9.81-24.189-16.313c-3.859-3.362-9.482-3.689-13.748-0.86l-10.213,6.744
	c-5.283,3.505-12.417,2.054-15.911-3.24l-12.918-19.536C809.488,1966.274,810.945,1959.148,816.241,1955.655 M897.313,1942.729
	c18.142,19.592,47.584,25.59,71.945,14.652c40.211-18.044,50.667-69.42,20.723-101.768c-18.144-19.577-47.575-25.585-71.928-14.648
	C877.834,1859.016,867.359,1910.385,897.313,1942.729z"/>
<path style="fill-rule:evenodd;clip-rule:evenodd;fill:#46A7F1;" d="M411.57,1870.704h151.701h43.575v0.334
	c25.18,2.943,44.923,25.302,44.923,52.221v189.192c0,28.907-22.756,52.555-50.57,52.555H376.177
	c-27.815,0-50.568-23.647-50.568-52.555v-189.192c0-26.01,18.427-47.762,42.384-51.86l3.553-0.695H411.57z"/>
<path style="fill-rule:evenodd;clip-rule:evenodd;fill:#7BA9E3;" d="M586.584,1926.906v-80.125c0.054-1.164,0.086-2.336,0.086-3.514
	c0-1.178-0.032-2.348-0.086-3.511v-0.129h-0.005c-1.943-40.939-36.469-73.549-78.782-73.549c-41.402,0-76.89,31.725-78.874,73.549
	v3.64v83.639h-45.289v-88.353l0.052-1.072c3.13-65.96,58.537-116.689,124.11-116.689c65.632,0,120.892,50.803,124.021,116.689
	l0.007,0.188c0.083,1.865,0.134,3.731,0.134,5.598c0,1.482-0.03,2.963-0.088,4.448v79.19H586.584z"/>
<path style="fill-rule:evenodd;clip-rule:evenodd;fill:#46A7F1;" d="M632.906,1859.074h-47.42c-1.626,0-2.956,1.33-2.956,2.956
	v11.324c0,1.626,1.33,2.956,2.956,2.956h47.42c1.626,0,2.956-1.33,2.956-2.956v-11.324
	C635.862,1860.404,634.532,1859.074,632.906,1859.074"/>
<path style="fill-rule:evenodd;clip-rule:evenodd;fill:#46A7F1;" d="M429.92,1859.074h-47.421c-1.626,0-2.956,1.33-2.956,2.956
	v11.324c0,1.626,1.33,2.956,2.956,2.956h47.421c1.626,0,2.956-1.33,2.956-2.956v-11.324
	C432.875,1860.404,431.545,1859.074,429.92,1859.074"/>
<path style="fill-rule:evenodd;clip-rule:evenodd;fill:#71BDF8;" d="M442.852,1870.704h151.701h43.575v0.334
	c25.18,2.943,44.923,25.302,44.923,52.221v189.192c0,28.907-22.757,52.555-50.57,52.555H407.459
	c-27.815,0-50.568-23.647-50.568-52.555v-189.192c0-26.01,18.427-47.762,42.384-51.86l3.656-0.695H442.852z"/>
<path style="fill-rule:evenodd;clip-rule:evenodd;fill:#84C9FF;" d="M452.833,1889.749H584.9h37.935v0.291
	c21.921,2.562,39.108,22.027,39.108,45.462v164.705c0,25.166-19.811,45.752-44.024,45.752H422.021
	c-24.215,0-44.023-20.586-44.023-45.752v-164.705c0-22.644,16.042-41.58,36.899-45.147v-0.605H452.833z"/>
<path style="fill-rule:evenodd;clip-rule:evenodd;fill:#FFFFFF;" d="M480.519,1987.782c0-20.45,16.575-37.023,37.023-37.023
	c1.464,0,2.908,0.085,4.328,0.25c18.411,2.143,32.699,17.787,32.699,36.773c0,14.219-8.017,26.564-19.778,32.766
	c0,20.399,0,40.798,0,61.197c-2.779,4.994-7.625,7.776-12.922,8.617c-8.04,1.278-17.117-1.914-21.574-8.617v-61.194
	C488.536,2014.347,480.519,2002.001,480.519,1987.782"/>
<rect x="1346.106" y="919.268" style="fill-rule:evenodd;clip-rule:evenodd;fill:#D0E5FF;" width="158.838" height="184.414"/>
<path style="fill-rule:evenodd;clip-rule:evenodd;fill:#F79646;" d="M1362.294,937.503h39.373c1.636,0,2.974,1.338,2.974,2.975
	c0,1.636-1.338,2.975-2.974,2.975h-39.373c-1.636,0-2.975-1.339-2.975-2.975C1359.32,938.841,1360.658,937.503,1362.294,937.503"/>
<path style="fill-rule:evenodd;clip-rule:evenodd;fill:#7BA9E3;" d="M1362.294,950.101h116.898c1.636,0,2.974,1.338,2.974,2.975
	c0,1.636-1.339,2.974-2.974,2.974h-116.898c-1.635,0-2.974-1.338-2.974-2.974C1359.32,951.44,1360.659,950.101,1362.294,950.101"/>
<path style="fill-rule:evenodd;clip-rule:evenodd;fill:#7BA9E3;" d="M1362.294,964.068h81.096c1.636,0,2.975,1.338,2.975,2.975
	c0,1.636-1.339,2.975-2.975,2.975h-81.096c-1.636,0-2.975-1.339-2.975-2.975C1359.32,965.407,1360.659,964.068,1362.294,964.068"/>
<path style="fill-rule:evenodd;clip-rule:evenodd;fill:#F79646;" d="M1362.294,990.892h39.373c1.636,0,2.974,1.338,2.974,2.975
	c0,1.636-1.338,2.974-2.974,2.974h-39.373c-1.636,0-2.975-1.338-2.975-2.974C1359.32,992.23,1360.658,990.892,1362.294,990.892"/>
<path style="fill-rule:evenodd;clip-rule:evenodd;fill:#F79646;" d="M1362.294,1044.281h39.373c1.636,0,2.974,1.339,2.974,2.975
	c0,1.637-1.338,2.975-2.974,2.975h-39.373c-1.636,0-2.975-1.338-2.975-2.975C1359.32,1045.619,1360.658,1044.281,1362.294,1044.281"
	/>
<path style="fill-rule:evenodd;clip-rule:evenodd;fill:#7BA9E3;" d="M1362.294,1003.49h116.898c1.636,0,2.974,1.339,2.974,2.975
	c0,1.636-1.339,2.975-2.974,2.975h-116.898c-1.635,0-2.974-1.338-2.974-2.975C1359.32,1004.829,1360.659,1003.49,1362.294,1003.49"
	/>
<path style="fill-rule:evenodd;clip-rule:evenodd;fill:#7BA9E3;" d="M1362.294,1056.879h116.898c1.636,0,2.974,1.338,2.974,2.975
	c0,1.636-1.339,2.975-2.974,2.975h-116.898c-1.635,0-2.974-1.338-2.974-2.975C1359.32,1058.218,1360.659,1056.879,1362.294,1056.879
	"/>
<path style="fill-rule:evenodd;clip-rule:evenodd;fill:#7BA9E3;" d="M1362.294,1017.458h81.096c1.636,0,2.975,1.338,2.975,2.975
	c0,1.636-1.339,2.975-2.975,2.975h-81.096c-1.636,0-2.975-1.339-2.975-2.975C1359.32,1018.796,1360.659,1017.458,1362.294,1017.458"
	/>
<path style="fill-rule:evenodd;clip-rule:evenodd;fill:#7BA9E3;" d="M1362.294,1070.847h81.096c1.636,0,2.975,1.338,2.975,2.974
	c0,1.636-1.339,2.975-2.975,2.975h-81.096c-1.636,0-2.975-1.338-2.975-2.975C1359.32,1072.185,1360.659,1070.847,1362.294,1070.847"
	/>
<rect x="1346.106" y="903.742" style="fill-rule:evenodd;clip-rule:evenodd;fill:#7BA9E3;" width="158.838" height="15.526"/>
<path style="fill-rule:evenodd;clip-rule:evenodd;fill:#FFFFFF;" d="M1477.015,907.693c1.849,0,3.348,1.499,3.348,3.348
	c0,1.849-1.499,3.348-3.348,3.348c-1.849,0-3.348-1.499-3.348-3.348C1473.666,909.193,1475.166,907.693,1477.015,907.693"/>
<path style="fill-rule:evenodd;clip-rule:evenodd;fill:#FFFFFF;" d="M1486.545,907.693c1.849,0,3.348,1.499,3.348,3.348
	c0,1.849-1.499,3.348-3.348,3.348c-1.849,0-3.348-1.499-3.348-3.348C1483.197,909.193,1484.696,907.693,1486.545,907.693"/>
<path style="fill-rule:evenodd;clip-rule:evenodd;fill:#FFFFFF;" d="M1496.075,907.693c1.849,0,3.348,1.499,3.348,3.348
	c0,1.849-1.499,3.348-3.348,3.348c-1.849,0-3.348-1.499-3.348-3.348C1492.727,909.193,1494.226,907.693,1496.075,907.693"/>
<rect x="1580.594" y="919.268" style="fill-rule:evenodd;clip-rule:evenodd;fill:#D0E5FF;" width="158.839" height="184.414"/>
<path style="fill-rule:evenodd;clip-rule:evenodd;fill:#F79646;" d="M1596.783,937.503h39.373c1.636,0,2.975,1.338,2.975,2.975
	c0,1.636-1.339,2.975-2.975,2.975h-39.373c-1.636,0-2.974-1.339-2.974-2.975C1593.809,938.841,1595.147,937.503,1596.783,937.503"/>
<path style="fill-rule:evenodd;clip-rule:evenodd;fill:#7BA9E3;" d="M1596.783,950.101h116.897c1.635,0,2.974,1.338,2.974,2.975
	c0,1.636-1.339,2.974-2.974,2.974h-116.897c-1.636,0-2.974-1.338-2.974-2.974C1593.809,951.44,1595.147,950.101,1596.783,950.101"/>
<path style="fill-rule:evenodd;clip-rule:evenodd;fill:#7BA9E3;" d="M1596.783,964.068h81.096c1.636,0,2.975,1.338,2.975,2.975
	c0,1.636-1.339,2.975-2.975,2.975h-81.096c-1.636,0-2.974-1.339-2.974-2.975C1593.809,965.407,1595.147,964.068,1596.783,964.068"/>
<path style="fill-rule:evenodd;clip-rule:evenodd;fill:#F79646;" d="M1596.783,990.892h39.373c1.636,0,2.975,1.338,2.975,2.975
	c0,1.636-1.339,2.974-2.975,2.974h-39.373c-1.636,0-2.974-1.338-2.974-2.974C1593.809,992.23,1595.147,990.892,1596.783,990.892"/>
<path style="fill-rule:evenodd;clip-rule:evenodd;fill:#F79646;" d="M1596.783,1044.281h39.373c1.636,0,2.975,1.339,2.975,2.975
	c0,1.637-1.339,2.975-2.975,2.975h-39.373c-1.636,0-2.974-1.338-2.974-2.975C1593.809,1045.619,1595.147,1044.281,1596.783,1044.281
	"/>
<path style="fill-rule:evenodd;clip-rule:evenodd;fill:#7BA9E3;" d="M1596.783,1003.49h116.897c1.635,0,2.974,1.339,2.974,2.975
	c0,1.636-1.339,2.975-2.974,2.975h-116.897c-1.636,0-2.974-1.338-2.974-2.975C1593.809,1004.829,1595.147,1003.49,1596.783,1003.49"
	/>
<path style="fill-rule:evenodd;clip-rule:evenodd;fill:#7BA9E3;" d="M1596.783,1056.879h116.897c1.635,0,2.974,1.338,2.974,2.975
	c0,1.636-1.339,2.975-2.974,2.975h-116.897c-1.636,0-2.974-1.338-2.974-2.975
	C1593.809,1058.218,1595.147,1056.879,1596.783,1056.879"/>
<path style="fill-rule:evenodd;clip-rule:evenodd;fill:#7BA9E3;" d="M1596.783,1017.458h81.096c1.636,0,2.975,1.338,2.975,2.975
	c0,1.636-1.339,2.975-2.975,2.975h-81.096c-1.636,0-2.974-1.339-2.974-2.975C1593.809,1018.796,1595.147,1017.458,1596.783,1017.458
	"/>
<path style="fill-rule:evenodd;clip-rule:evenodd;fill:#7BA9E3;" d="M1596.783,1070.847h81.096c1.636,0,2.975,1.338,2.975,2.974
	c0,1.636-1.339,2.975-2.975,2.975h-81.096c-1.636,0-2.974-1.338-2.974-2.975C1593.809,1072.185,1595.147,1070.847,1596.783,1070.847
	"/>
<rect x="1580.594" y="903.742" style="fill-rule:evenodd;clip-rule:evenodd;fill:#7BA9E3;" width="158.839" height="15.526"/>
<path style="fill-rule:evenodd;clip-rule:evenodd;fill:#FFFFFF;" d="M1711.503,907.693c1.849,0,3.348,1.499,3.348,3.348
	c0,1.849-1.499,3.348-3.348,3.348c-1.849,0-3.348-1.499-3.348-3.348C1708.155,909.193,1709.654,907.693,1711.503,907.693"/>
<path style="fill-rule:evenodd;clip-rule:evenodd;fill:#FFFFFF;" d="M1721.034,907.693c1.849,0,3.348,1.499,3.348,3.348
	c0,1.849-1.499,3.348-3.348,3.348c-1.849,0-3.348-1.499-3.348-3.348C1717.685,909.193,1719.184,907.693,1721.034,907.693"/>
<path style="fill-rule:evenodd;clip-rule:evenodd;fill:#FFFFFF;" d="M1730.564,907.693c1.849,0,3.348,1.499,3.348,3.348
	c0,1.849-1.499,3.348-3.348,3.348c-1.849,0-3.348-1.499-3.348-3.348C1727.215,909.193,1728.715,907.693,1730.564,907.693"/>
<rect x="1346.106" y="1157.394" style="fill-rule:evenodd;clip-rule:evenodd;fill:#D0E5FF;" width="158.838" height="184.414"/>
<path style="fill-rule:evenodd;clip-rule:evenodd;fill:#F79646;" d="M1362.294,1175.628h39.373c1.636,0,2.974,1.339,2.974,2.974
	c0,1.637-1.338,2.975-2.974,2.975h-39.373c-1.636,0-2.975-1.338-2.975-2.975C1359.32,1176.967,1360.658,1175.628,1362.294,1175.628"
	/>
<path style="fill-rule:evenodd;clip-rule:evenodd;fill:#7BA9E3;" d="M1362.294,1188.226h116.898c1.636,0,2.974,1.339,2.974,2.975
	c0,1.636-1.339,2.975-2.974,2.975h-116.898c-1.635,0-2.974-1.339-2.974-2.975C1359.32,1189.565,1360.659,1188.226,1362.294,1188.226
	"/>
<path style="fill-rule:evenodd;clip-rule:evenodd;fill:#7BA9E3;" d="M1362.294,1202.194h81.096c1.636,0,2.975,1.339,2.975,2.975
	s-1.339,2.975-2.975,2.975h-81.096c-1.636,0-2.975-1.339-2.975-2.975S1360.659,1202.194,1362.294,1202.194"/>
<path style="fill-rule:evenodd;clip-rule:evenodd;fill:#F79646;" d="M1362.294,1229.017h39.373c1.636,0,2.974,1.339,2.974,2.975
	c0,1.636-1.338,2.975-2.974,2.975h-39.373c-1.636,0-2.975-1.339-2.975-2.975C1359.32,1230.356,1360.658,1229.017,1362.294,1229.017"
	/>
<path style="fill-rule:evenodd;clip-rule:evenodd;fill:#F79646;" d="M1362.294,1282.406h39.373c1.636,0,2.974,1.338,2.974,2.974
	c0,1.636-1.338,2.975-2.974,2.975h-39.373c-1.636,0-2.975-1.338-2.975-2.975C1359.32,1283.745,1360.658,1282.406,1362.294,1282.406"
	/>
<path style="fill-rule:evenodd;clip-rule:evenodd;fill:#7BA9E3;" d="M1362.294,1241.616h116.898c1.636,0,2.974,1.338,2.974,2.975
	c0,1.636-1.339,2.974-2.974,2.974h-116.898c-1.635,0-2.974-1.338-2.974-2.974C1359.32,1242.954,1360.659,1241.616,1362.294,1241.616
	"/>
<path style="fill-rule:evenodd;clip-rule:evenodd;fill:#7BA9E3;" d="M1362.294,1295.005h116.898c1.636,0,2.974,1.339,2.974,2.975
	c0,1.636-1.339,2.975-2.974,2.975h-116.898c-1.635,0-2.974-1.338-2.974-2.975C1359.32,1296.343,1360.659,1295.005,1362.294,1295.005
	"/>
<path style="fill-rule:evenodd;clip-rule:evenodd;fill:#7BA9E3;" d="M1362.294,1255.583h81.096c1.636,0,2.975,1.339,2.975,2.975
	c0,1.636-1.339,2.975-2.975,2.975h-81.096c-1.636,0-2.975-1.339-2.975-2.975C1359.32,1256.921,1360.659,1255.583,1362.294,1255.583"
	/>
<path style="fill-rule:evenodd;clip-rule:evenodd;fill:#7BA9E3;" d="M1362.294,1308.972h81.096c1.636,0,2.975,1.338,2.975,2.975
	c0,1.636-1.339,2.974-2.975,2.974h-81.096c-1.636,0-2.975-1.338-2.975-2.974C1359.32,1310.31,1360.659,1308.972,1362.294,1308.972"
	/>
<rect x="1346.106" y="1141.867" style="fill-rule:evenodd;clip-rule:evenodd;fill:#7BA9E3;" width="158.838" height="15.526"/>
<path style="fill-rule:evenodd;clip-rule:evenodd;fill:#FFFFFF;" d="M1477.015,1145.819c1.849,0,3.348,1.499,3.348,3.348
	c0,1.849-1.499,3.348-3.348,3.348c-1.849,0-3.348-1.499-3.348-3.348C1473.666,1147.318,1475.166,1145.819,1477.015,1145.819"/>
<path style="fill-rule:evenodd;clip-rule:evenodd;fill:#FFFFFF;" d="M1486.545,1145.819c1.849,0,3.348,1.499,3.348,3.348
	c0,1.849-1.499,3.348-3.348,3.348c-1.849,0-3.348-1.499-3.348-3.348C1483.197,1147.318,1484.696,1145.819,1486.545,1145.819"/>
<path style="fill-rule:evenodd;clip-rule:evenodd;fill:#FFFFFF;" d="M1496.075,1145.819c1.849,0,3.348,1.499,3.348,3.348
	c0,1.849-1.499,3.348-3.348,3.348c-1.849,0-3.348-1.499-3.348-3.348C1492.727,1147.318,1494.226,1145.819,1496.075,1145.819"/>
<rect x="1580.594" y="1157.394" style="fill-rule:evenodd;clip-rule:evenodd;fill:#D0E5FF;" width="158.839" height="184.414"/>
<path style="fill-rule:evenodd;clip-rule:evenodd;fill:#F79646;" d="M1596.783,1175.628h39.373c1.636,0,2.975,1.339,2.975,2.974
	c0,1.637-1.339,2.975-2.975,2.975h-39.373c-1.636,0-2.974-1.338-2.974-2.975C1593.809,1176.967,1595.147,1175.628,1596.783,1175.628
	"/>
<path style="fill-rule:evenodd;clip-rule:evenodd;fill:#7BA9E3;" d="M1596.783,1188.226h116.897c1.635,0,2.974,1.339,2.974,2.975
	c0,1.636-1.339,2.975-2.974,2.975h-116.897c-1.636,0-2.974-1.339-2.974-2.975
	C1593.809,1189.565,1595.147,1188.226,1596.783,1188.226"/>
<path style="fill-rule:evenodd;clip-rule:evenodd;fill:#7BA9E3;" d="M1596.783,1202.194h81.096c1.636,0,2.975,1.339,2.975,2.975
	s-1.339,2.975-2.975,2.975h-81.096c-1.636,0-2.974-1.339-2.974-2.975S1595.147,1202.194,1596.783,1202.194"/>
<path style="fill-rule:evenodd;clip-rule:evenodd;fill:#F79646;" d="M1596.783,1229.017h39.373c1.636,0,2.975,1.339,2.975,2.975
	c0,1.636-1.339,2.975-2.975,2.975h-39.373c-1.636,0-2.974-1.339-2.974-2.975C1593.809,1230.356,1595.147,1229.017,1596.783,1229.017
	"/>
<path style="fill-rule:evenodd;clip-rule:evenodd;fill:#F79646;" d="M1596.783,1282.406h39.373c1.636,0,2.975,1.338,2.975,2.974
	c0,1.636-1.339,2.975-2.975,2.975h-39.373c-1.636,0-2.974-1.338-2.974-2.975C1593.809,1283.745,1595.147,1282.406,1596.783,1282.406
	"/>
<path style="fill-rule:evenodd;clip-rule:evenodd;fill:#7BA9E3;" d="M1596.783,1241.616h116.897c1.635,0,2.974,1.338,2.974,2.975
	c0,1.636-1.339,2.974-2.974,2.974h-116.897c-1.636,0-2.974-1.338-2.974-2.974
	C1593.809,1242.954,1595.147,1241.616,1596.783,1241.616"/>
<path style="fill-rule:evenodd;clip-rule:evenodd;fill:#7BA9E3;" d="M1596.783,1295.005h116.897c1.635,0,2.974,1.339,2.974,2.975
	c0,1.636-1.339,2.975-2.974,2.975h-116.897c-1.636,0-2.974-1.338-2.974-2.975
	C1593.809,1296.343,1595.147,1295.005,1596.783,1295.005"/>
<path style="fill-rule:evenodd;clip-rule:evenodd;fill:#7BA9E3;" d="M1596.783,1255.583h81.096c1.636,0,2.975,1.339,2.975,2.975
	c0,1.636-1.339,2.975-2.975,2.975h-81.096c-1.636,0-2.974-1.339-2.974-2.975C1593.809,1256.921,1595.147,1255.583,1596.783,1255.583
	"/>
<path style="fill-rule:evenodd;clip-rule:evenodd;fill:#7BA9E3;" d="M1596.783,1308.972h81.096c1.636,0,2.975,1.338,2.975,2.975
	c0,1.636-1.339,2.974-2.975,2.974h-81.096c-1.636,0-2.974-1.338-2.974-2.974C1593.809,1310.31,1595.147,1308.972,1596.783,1308.972"
	/>
<rect x="1580.594" y="1141.867" style="fill-rule:evenodd;clip-rule:evenodd;fill:#7BA9E3;" width="158.839" height="15.526"/>
<path style="fill-rule:evenodd;clip-rule:evenodd;fill:#FFFFFF;" d="M1711.503,1145.819c1.849,0,3.348,1.499,3.348,3.348
	c0,1.849-1.499,3.348-3.348,3.348c-1.849,0-3.348-1.499-3.348-3.348C1708.155,1147.318,1709.654,1145.819,1711.503,1145.819"/>
<path style="fill-rule:evenodd;clip-rule:evenodd;fill:#FFFFFF;" d="M1721.034,1145.819c1.849,0,3.348,1.499,3.348,3.348
	c0,1.849-1.499,3.348-3.348,3.348c-1.849,0-3.348-1.499-3.348-3.348C1717.685,1147.318,1719.184,1145.819,1721.034,1145.819"/>
<path style="fill-rule:evenodd;clip-rule:evenodd;fill:#FFFFFF;" d="M1730.564,1145.819c1.849,0,3.348,1.499,3.348,3.348
	c0,1.849-1.499,3.348-3.348,3.348c-1.849,0-3.348-1.499-3.348-3.348C1727.215,1147.318,1728.715,1145.819,1730.564,1145.819"/>
<rect x="1346.106" y="1395.519" style="fill-rule:evenodd;clip-rule:evenodd;fill:#D0E5FF;" width="158.838" height="184.414"/>
<path style="fill-rule:evenodd;clip-rule:evenodd;fill:#F79646;" d="M1362.294,1413.753h39.373c1.636,0,2.974,1.339,2.974,2.975
	c0,1.636-1.338,2.974-2.974,2.974h-39.373c-1.636,0-2.975-1.338-2.975-2.974C1359.32,1415.092,1360.658,1413.753,1362.294,1413.753"
	/>
<path style="fill-rule:evenodd;clip-rule:evenodd;fill:#7BA9E3;" d="M1362.294,1426.352h116.898c1.636,0,2.974,1.339,2.974,2.975
	c0,1.636-1.339,2.975-2.974,2.975h-116.898c-1.635,0-2.974-1.338-2.974-2.975C1359.32,1427.69,1360.659,1426.352,1362.294,1426.352"
	/>
<path style="fill-rule:evenodd;clip-rule:evenodd;fill:#7BA9E3;" d="M1362.294,1440.319h81.096c1.636,0,2.975,1.338,2.975,2.974
	c0,1.636-1.339,2.975-2.975,2.975h-81.096c-1.636,0-2.975-1.338-2.975-2.975C1359.32,1441.658,1360.659,1440.319,1362.294,1440.319"
	/>
<path style="fill-rule:evenodd;clip-rule:evenodd;fill:#F79646;" d="M1362.294,1467.142h39.373c1.636,0,2.974,1.339,2.974,2.975
	c0,1.637-1.338,2.975-2.974,2.975h-39.373c-1.636,0-2.975-1.338-2.975-2.975C1359.32,1468.481,1360.658,1467.142,1362.294,1467.142"
	/>
<path style="fill-rule:evenodd;clip-rule:evenodd;fill:#F79646;" d="M1362.294,1520.532h39.373c1.636,0,2.974,1.338,2.974,2.975
	c0,1.636-1.338,2.975-2.974,2.975h-39.373c-1.636,0-2.975-1.339-2.975-2.975C1359.32,1521.87,1360.658,1520.532,1362.294,1520.532"
	/>
<path style="fill-rule:evenodd;clip-rule:evenodd;fill:#7BA9E3;" d="M1362.294,1479.741h116.898c1.636,0,2.974,1.338,2.974,2.975
	c0,1.636-1.339,2.975-2.974,2.975h-116.898c-1.635,0-2.974-1.339-2.974-2.975C1359.32,1481.079,1360.659,1479.741,1362.294,1479.741
	"/>
<path style="fill-rule:evenodd;clip-rule:evenodd;fill:#7BA9E3;" d="M1362.294,1533.13h116.898c1.636,0,2.974,1.338,2.974,2.974
	c0,1.636-1.339,2.975-2.974,2.975h-116.898c-1.635,0-2.974-1.339-2.974-2.975C1359.32,1534.468,1360.659,1533.13,1362.294,1533.13"
	/>
<path style="fill-rule:evenodd;clip-rule:evenodd;fill:#7BA9E3;" d="M1362.294,1493.708h81.096c1.636,0,2.975,1.338,2.975,2.974
	c0,1.637-1.339,2.975-2.975,2.975h-81.096c-1.636,0-2.975-1.338-2.975-2.975C1359.32,1495.047,1360.659,1493.708,1362.294,1493.708"
	/>
<path style="fill-rule:evenodd;clip-rule:evenodd;fill:#7BA9E3;" d="M1362.294,1547.097h81.096c1.636,0,2.975,1.339,2.975,2.975
	c0,1.636-1.339,2.975-2.975,2.975h-81.096c-1.636,0-2.975-1.339-2.975-2.975C1359.32,1548.436,1360.659,1547.097,1362.294,1547.097"
	/>
<rect x="1346.106" y="1379.992" style="fill-rule:evenodd;clip-rule:evenodd;fill:#7BA9E3;" width="158.838" height="15.526"/>
<path style="fill-rule:evenodd;clip-rule:evenodd;fill:#FFFFFF;" d="M1477.015,1383.944c1.849,0,3.348,1.499,3.348,3.349
	c0,1.849-1.499,3.348-3.348,3.348c-1.849,0-3.348-1.499-3.348-3.348C1473.666,1385.443,1475.166,1383.944,1477.015,1383.944"/>
<path style="fill-rule:evenodd;clip-rule:evenodd;fill:#FFFFFF;" d="M1486.545,1383.944c1.849,0,3.348,1.499,3.348,3.349
	c0,1.849-1.499,3.348-3.348,3.348c-1.849,0-3.348-1.499-3.348-3.348C1483.197,1385.443,1484.696,1383.944,1486.545,1383.944"/>
<path style="fill-rule:evenodd;clip-rule:evenodd;fill:#FFFFFF;" d="M1496.075,1383.944c1.849,0,3.348,1.499,3.348,3.349
	c0,1.849-1.499,3.348-3.348,3.348c-1.849,0-3.348-1.499-3.348-3.348C1492.727,1385.443,1494.226,1383.944,1496.075,1383.944"/>
<rect x="1580.594" y="1395.519" style="fill-rule:evenodd;clip-rule:evenodd;fill:#D0E5FF;" width="158.839" height="184.414"/>
<path style="fill-rule:evenodd;clip-rule:evenodd;fill:#F79646;" d="M1596.783,1413.753h39.373c1.636,0,2.975,1.339,2.975,2.975
	c0,1.636-1.339,2.974-2.975,2.974h-39.373c-1.636,0-2.974-1.338-2.974-2.974C1593.809,1415.092,1595.147,1413.753,1596.783,1413.753
	"/>
<path style="fill-rule:evenodd;clip-rule:evenodd;fill:#7BA9E3;" d="M1596.783,1426.352h116.897c1.635,0,2.974,1.339,2.974,2.975
	c0,1.636-1.339,2.975-2.974,2.975h-116.897c-1.636,0-2.974-1.338-2.974-2.975C1593.809,1427.69,1595.147,1426.352,1596.783,1426.352
	"/>
<path style="fill-rule:evenodd;clip-rule:evenodd;fill:#7BA9E3;" d="M1596.783,1440.319h81.096c1.636,0,2.975,1.338,2.975,2.974
	c0,1.636-1.339,2.975-2.975,2.975h-81.096c-1.636,0-2.974-1.338-2.974-2.975C1593.809,1441.658,1595.147,1440.319,1596.783,1440.319
	"/>
<path style="fill-rule:evenodd;clip-rule:evenodd;fill:#F79646;" d="M1596.783,1467.142h39.373c1.636,0,2.975,1.339,2.975,2.975
	c0,1.637-1.339,2.975-2.975,2.975h-39.373c-1.636,0-2.974-1.338-2.974-2.975C1593.809,1468.481,1595.147,1467.142,1596.783,1467.142
	"/>
<path style="fill-rule:evenodd;clip-rule:evenodd;fill:#F79646;" d="M1596.783,1520.532h39.373c1.636,0,2.975,1.338,2.975,2.975
	c0,1.636-1.339,2.975-2.975,2.975h-39.373c-1.636,0-2.974-1.339-2.974-2.975C1593.809,1521.87,1595.147,1520.532,1596.783,1520.532"
	/>
<path style="fill-rule:evenodd;clip-rule:evenodd;fill:#7BA9E3;" d="M1596.783,1479.741h116.897c1.635,0,2.974,1.338,2.974,2.975
	c0,1.636-1.339,2.975-2.974,2.975h-116.897c-1.636,0-2.974-1.339-2.974-2.975
	C1593.809,1481.079,1595.147,1479.741,1596.783,1479.741"/>
<path style="fill-rule:evenodd;clip-rule:evenodd;fill:#7BA9E3;" d="M1596.783,1533.13h116.897c1.635,0,2.974,1.338,2.974,2.974
	c0,1.636-1.339,2.975-2.974,2.975h-116.897c-1.636,0-2.974-1.339-2.974-2.975C1593.809,1534.468,1595.147,1533.13,1596.783,1533.13"
	/>
<path style="fill-rule:evenodd;clip-rule:evenodd;fill:#7BA9E3;" d="M1596.783,1493.708h81.096c1.636,0,2.975,1.338,2.975,2.974
	c0,1.637-1.339,2.975-2.975,2.975h-81.096c-1.636,0-2.974-1.338-2.974-2.975C1593.809,1495.047,1595.147,1493.708,1596.783,1493.708
	"/>
<path style="fill-rule:evenodd;clip-rule:evenodd;fill:#7BA9E3;" d="M1596.783,1547.097h81.096c1.636,0,2.975,1.339,2.975,2.975
	c0,1.636-1.339,2.975-2.975,2.975h-81.096c-1.636,0-2.974-1.339-2.974-2.975C1593.809,1548.436,1595.147,1547.097,1596.783,1547.097
	"/>
<rect x="1580.594" y="1379.992" style="fill-rule:evenodd;clip-rule:evenodd;fill:#7BA9E3;" width="158.839" height="15.526"/>
<path style="fill-rule:evenodd;clip-rule:evenodd;fill:#FFFFFF;" d="M1711.503,1383.944c1.849,0,3.348,1.499,3.348,3.349
	c0,1.849-1.499,3.348-3.348,3.348c-1.849,0-3.348-1.499-3.348-3.348C1708.155,1385.443,1709.654,1383.944,1711.503,1383.944"/>
<path style="fill-rule:evenodd;clip-rule:evenodd;fill:#FFFFFF;" d="M1721.034,1383.944c1.849,0,3.348,1.499,3.348,3.349
	c0,1.849-1.499,3.348-3.348,3.348c-1.849,0-3.348-1.499-3.348-3.348C1717.685,1385.443,1719.184,1383.944,1721.034,1383.944"/>
<path style="fill-rule:evenodd;clip-rule:evenodd;fill:#FFFFFF;" d="M1730.564,1383.944c1.849,0,3.348,1.499,3.348,3.349
	c0,1.849-1.499,3.348-3.348,3.348c-1.849,0-3.348-1.499-3.348-3.348C1727.215,1385.443,1728.715,1383.944,1730.564,1383.944"/>
<path style="fill-rule:evenodd;clip-rule:evenodd;fill:#1F3E7A;" d="M2828.555,1721.306
	c-17.043,74.795,10.218,256.109,18.737,394.384c0.322,6.888-1.336,11.232-11.562,16.805c-9.169,5.01-26.316,9.406-31.738,14.592
	c-3.91,3.737-22.007,19.396,31.56,17.985c38.054-1.001,43.825,3.884,47.9-2.292c0.571-0.862,34.941-298.188,38.901-322.011
	c6.796,30.363,89.433,282.454,89.411,282.614c-0.633,4.586-6.72,16.75-13.5,24.32c-2.076,7.429-14.94,18.105,21.955,17.786
	c36.896-0.318,29.315-9.641,33.265-15.626c-16.37-153.968-40.49-392.76-48.744-433.731l-2.306-2.132
	c-6.576-263.547-146.621-195.63-134.012-36.077C2869.846,1695.952,2834.891,1696.448,2828.555,1721.306"/>
<path style="fill-rule:evenodd;clip-rule:evenodd;fill:#F6597B;" d="M2890.327,1529.03c-16.106,35.348-31.365,33.114-77.462,39.982
	c-32.529,3.006-75.094-118.347-73.124-129.946c2.199-12.952,27.088-1.461,33.516,7.46c4.228,24.141,39.936,65.411,45.555,65.014
	c5.318-0.375,30.427-30.63,63.11-42.497C2885.801,1466.545,2901.668,1511.951,2890.327,1529.03"/>
<path style="fill-rule:evenodd;clip-rule:evenodd;fill:#F6597B;" d="M3029.695,1492.659
	c15.356,22.882-34.236,128.413-21.497,244.919c-71.807,12.334-141.165,6.751-184.05-6.904
	c2.008-47.386,6.157-221.927,57.773-261.631C2933.007,1454.727,3008.659,1461.296,3029.695,1492.659"/>
<path style="fill-rule:evenodd;clip-rule:evenodd;fill:#FB3C66;" d="M3021.188,1569.812c-7.049,40.04-18.852,114.531-12.989,167.766
	c-2.515,0.432-5.019,0.84-7.519,1.229c-2.852-8.679-5.582-24.589-8.55-65.045c-2.969-40.457,14.302-120.194,14.302-120.194
	l8.187,7.112L3021.188,1569.812z"/>
<path style="fill:#F5A7B9;" d="M2895.13,1428.809c5.049,10.051,12.122,17.8,20.01,21.579l-0.269,14.606l-2.127,1.808
	c-8.322,8.917,0.689,27.226,10.167,26.662c23.966,1.182,42.365-18.473,35.161-29.139l-3.129-3.488l-0.691-20.67
	c1.238-0.07,10.237-5.187,12.917-6.008c2.675-0.827,6.61-5.986,6.874-11.437c0.262-5.449-8.158-3.685-8.158-3.685
	c10.201-13.961,21.753-25.364,6.773-37.933c-14.977-12.572-49.386-19.907-49.386-19.907l-20.709-7.178
	c2.635,7.145-0.888,30.983-6.205,45.869C2891.592,1413.241,2888.354,1415.315,2895.13,1428.809"/>
<path style="fill-rule:evenodd;clip-rule:evenodd;fill:#E16180;" d="M2944.493,1443.037c0,0-11.713,20.089-21.334,21.909
	c-9.62,1.82-4.704,0.475-8.29,0.048l0.27-14.606C2921.769,1451.453,2928.257,1450.929,2944.493,1443.037"/>
<path style="fill-rule:evenodd;clip-rule:evenodd;fill:#FFFFFF;" d="M2886.919,1663.733l14.248,47.066l25.129-38.81l-1.653-155.065
	l7.185-12.656l-8.683-8.317l-8.91,7.617l3.068,13.633C2906.893,1544.94,2893.097,1627.395,2886.919,1663.733"/>
<path style="fill-rule:evenodd;clip-rule:evenodd;fill:#1F3E7A;" d="M2906.869,1383.594c17.45,8.941,37.544-1.665,47.707,10.303
	c5.033,5.928,4.528,14.474-1.11,27.672c-1.66,3.889-3.88,6.752,2.689,3.71c3.015-1.396,7.981-3.348,9.677-1.978
	c3.775,3.049,1.87,9.462-1.14,11.526c-1.344,0.921-3.889,2.297-3.889,2.297c23.471-4.449,33.252-25.628,32.921-42.676
	c-0.112-5.78-1.238-8.049-5.203-12.499c7.404-74.253-130.083-50.908-85.822-1.344
	C2903.951,1381.707,2905.339,1382.71,2906.869,1383.594"/>
<path style="fill-rule:evenodd;clip-rule:evenodd;fill:#F6597B;" d="M3022.884,1484.915
	c38.191,24.641,74.629,113.484,66.212,138.759c-8.755,25.373-73.663,76.71-95.478,67.581c-10.248-4.287-22.256-21.472-11.205-26.36
	c19.663-14.14,53.854-53.541,55.177-59.844c2.947-21.925-17.188-36.026-31.362-51.707
	C2984.76,1529.594,2987.085,1470.209,3022.884,1484.915"/>
<path style="fill-rule:evenodd;clip-rule:evenodd;fill:#E7EFF9;" d="M2551.548,1102.26c57.822-32.639,142.819,0.568,193.065,76.745
	s47.311,167.384-5.455,207.688c-0.909,0.513-1.825,1.01-2.747,1.491c-0.932,0.486-1.871,0.955-2.816,1.408
	c-25.969,12.443-56.747,12.472-87.177,1.989c-1.108-0.382-2.215-0.777-3.322-1.187c-1.104-0.408-2.208-0.831-3.31-1.267
	c-1.101-0.435-2.201-0.884-3.3-1.347c-1.101-0.464-2.201-0.941-3.3-1.432c-30.215-13.495-59.335-37.222-82.206-69.276
	c-0.83-1.164-1.653-2.339-2.466-3.525c-0.816-1.189-1.624-2.389-2.422-3.599c-0.799-1.211-1.584-2.426-2.356-3.644
	c-0.77-1.215-1.526-2.433-2.269-3.655c-20.463-33.643-30.81-69.752-31.322-102.84c-0.019-1.203-0.024-2.402-0.017-3.597
	c0.007-1.192,0.028-2.38,0.061-3.563c0.033-1.185,0.08-2.366,0.138-3.542c0.06-1.178,0.132-2.352,0.217-3.521
	c2.343-32.099,14.485-60.38,36.147-79.354c0.788-0.69,1.589-1.368,2.402-2.034C2549.901,1103.54,2550.719,1102.894,2551.548,1102.26
	"/>
<path style="fill-rule:evenodd;clip-rule:evenodd;fill:#FFFFFF;" d="M2668.433,1407.602c12.316,3.427,24.539,5.116,36.347,4.94
	l-5.643-301.263c-11.934-8.282-24.252-14.998-36.63-20.029L2668.433,1407.602z M2617.164,1383.42
	c7.472,5.024,15.084,9.44,22.757,13.213l-5.703-313.89c-4.171-0.807-8.319-1.404-12.433-1.793l-10.114,0.189L2617.164,1383.42z"/>
<path style="fill-rule:evenodd;clip-rule:evenodd;fill:#000446;" d="M2551.548,1102.26c-52.765,40.304-55.701,131.51-5.454,207.688
	c50.246,76.177,135.244,109.383,193.065,76.744c52.766-40.304,55.701-131.511,5.455-207.688S2609.37,1069.621,2551.548,1102.26
	 M2527.405,1088.169c-66.996,46.662-74.086,155.197-15.357,244.235c58.729,89.037,161.291,125.246,230.56,82.028l0.027,0.041
	l15.761-10.396l-1.599-2.424c50.177-52.231,50.896-148.7-2.216-229.223c-53.113-80.523-142.076-117.838-209.842-92.273l-1.599-2.425
	l-15.761,10.396L2527.405,1088.169z"/>
<path style="fill-rule:evenodd;clip-rule:evenodd;fill:#000446;" d="M2745.604,1388.325L2745.604,1388.325
	c-11.737,7.742-15.006,23.678-7.265,35.414l230.425,349.342c7.741,11.736,23.677,15.005,35.413,7.264l0.001,0
	c11.736-7.741,15.004-23.677,7.263-35.413l-230.424-349.342C2773.276,1383.853,2757.34,1380.584,2745.604,1388.325"/>
<path style="fill-rule:evenodd;clip-rule:evenodd;fill:#203F7B;" d="M3009.791,1775.608c7.38-7.945,9.444-18.861,4.283-26.687
	l-237.716-360.396c-5.162-7.826-16.009-10.225-26.218-6.569c-7.38,7.945-9.444,18.861-4.282,26.687l237.716,360.396
	C2988.735,1776.865,2999.583,1779.264,3009.791,1775.608"/>
<path style="fill-rule:evenodd;clip-rule:evenodd;fill:#203F7B;" d="M2551.548,1102.26c-52.765,40.304-55.701,131.51-5.454,207.688
	c50.246,76.177,135.244,109.383,193.065,76.744c52.766-40.304,55.701-131.511,5.455-207.688S2609.37,1069.621,2551.548,1102.26
	 M2543.139,1077.733c-69.28,45.697-77.256,155.797-17.814,245.914c59.441,90.118,163.791,126.128,233.07,80.431
	c69.28-45.697,77.256-155.796,17.814-245.914S2612.419,1032.036,2543.139,1077.733z"/>
<path style="fill-rule:evenodd;clip-rule:evenodd;fill:#000446;" d="M2735.242,1388.768c0.39-0.196,0.782-0.384,1.17-0.586
	C2736.024,1388.383,2735.632,1388.572,2735.242,1388.768 M2732.307,1390.183c0.43-0.198,0.862-0.389,1.289-0.593
	C2733.168,1389.793,2732.737,1389.985,2732.307,1390.183z M2729.385,1391.469c0.453-0.19,0.908-0.374,1.358-0.571
	C2730.292,1391.095,2729.838,1391.279,2729.385,1391.469z M2726.449,1392.645c0.469-0.179,0.939-0.352,1.406-0.538
	C2727.388,1392.293,2726.917,1392.467,2726.449,1392.645z M2723.498,1393.716c0.478-0.164,0.958-0.325,1.433-0.497
	C2724.455,1393.391,2723.976,1393.551,2723.498,1393.716z M2720.515,1394.688c0.485-0.149,0.972-0.295,1.455-0.452
	C2721.487,1394.393,2721.001,1394.539,2720.515,1394.688z M2717.494,1395.566c0.497-0.135,0.994-0.269,1.489-0.412
	C2718.489,1395.297,2717.991,1395.43,2717.494,1395.566z M2714.456,1396.344c0.503-0.12,1.006-0.239,1.506-0.366
	C2715.462,1396.105,2714.958,1396.224,2714.456,1396.344z M2711.389,1397.027c0.509-0.105,1.017-0.208,1.523-0.321
	C2712.406,1396.818,2711.898,1396.922,2711.389,1397.027z M2708.302,1397.614c0.511-0.089,1.021-0.178,1.531-0.274
	C2709.323,1397.437,2708.812,1397.526,2708.302,1397.614z M2705.183,1398.109c0.515-0.073,1.03-0.147,1.543-0.229
	C2706.213,1397.961,2705.698,1398.035,2705.183,1398.109z M2702.041,1398.509c0.519-0.058,1.038-0.118,1.556-0.183
	C2703.08,1398.392,2702.561,1398.451,2702.041,1398.509z M2698.879,1398.817c0.523-0.043,1.045-0.088,1.566-0.138
	C2699.924,1398.729,2699.402,1398.775,2698.879,1398.817z M2695.696,1399.033c0.524-0.027,1.048-0.058,1.571-0.093
	C2696.744,1398.975,2696.22,1399.005,2695.696,1399.033z M2692.491,1399.157c0.528-0.013,1.055-0.029,1.581-0.049
	C2693.546,1399.129,2693.019,1399.144,2692.491,1399.157z M2689.266,1399.19c0.531,0.002,1.062,0,1.592-0.005
	C2690.328,1399.19,2689.797,1399.192,2689.266,1399.19z M2686.024,1399.133c0.536,0.017,1.072,0.029,1.606,0.039
	C2687.096,1399.162,2686.56,1399.15,2686.024,1399.133z M2682.775,1398.985c0.536,0.032,1.072,0.058,1.606,0.083
	C2683.846,1399.043,2683.311,1399.016,2682.775,1398.985z M2679.508,1398.748c0.536,0.046,1.072,0.087,1.607,0.126
	C2680.58,1398.834,2680.044,1398.794,2679.508,1398.748z M2676.228,1398.422c0.538,0.061,1.075,0.115,1.612,0.169
	C2677.303,1398.536,2676.766,1398.483,2676.228,1398.422z M2672.942,1398.008c0.537,0.075,1.073,0.142,1.608,0.21
	C2674.014,1398.15,2673.478,1398.083,2672.942,1398.008z M2669.641,1397.505c0.535,0.089,1.069,0.169,1.603,0.251
	C2670.71,1397.674,2670.176,1397.594,2669.641,1397.505z M2666.332,1396.916c0.538,0.103,1.075,0.197,1.612,0.293
	C2667.407,1397.113,2666.87,1397.018,2666.332,1396.916z M2663.022,1396.24c0.535,0.116,1.07,0.223,1.604,0.333
	C2664.091,1396.463,2663.557,1396.356,2663.022,1396.24z M2659.702,1395.477c0.534,0.13,1.067,0.249,1.6,0.372
	C2660.769,1395.726,2660.235,1395.607,2659.702,1395.477z M2656.385,1394.63c0.528,0.142,1.056,0.273,1.584,0.409
	C2657.441,1394.903,2656.913,1394.772,2656.385,1394.63z M2653.063,1393.697c0.517,0.152,1.033,0.293,1.55,0.438
	C2654.097,1393.99,2653.58,1393.849,2653.063,1393.697z M2649.737,1392.679c0.511,0.163,1.022,0.315,1.533,0.472
	C2650.76,1392.994,2650.248,1392.842,2649.737,1392.679z M2646.42,1391.579c0.489,0.169,0.978,0.325,1.468,0.489
	C2647.398,1391.904,2646.909,1391.747,2646.42,1391.579z M2643.098,1390.393c0.449,0.166,0.899,0.321,1.348,0.482
	C2643.997,1390.714,2643.548,1390.559,2643.098,1390.393z M2639.788,1389.127c0.256,0.101,0.512,0.194,0.767,0.294
	C2640.299,1389.321,2640.043,1389.228,2639.788,1389.127z M2635.366,1387.294c0.374,0.161,0.748,0.328,1.122,0.486
	C2636.114,1387.622,2635.74,1387.455,2635.366,1387.294z M2631.819,1385.719c0.457,0.209,0.912,0.424,1.37,0.628
	C2632.731,1386.144,2632.275,1385.928,2631.819,1385.719z M2628.448,1384.133c0.483,0.233,0.965,0.472,1.448,0.701
	C2629.413,1384.605,2628.931,1384.366,2628.448,1384.133z M2625.133,1382.484c0.493,0.252,0.986,0.508,1.479,0.755
	C2626.118,1382.992,2625.626,1382.736,2625.133,1382.484z M2621.835,1380.757c0.502,0.27,1.003,0.543,1.506,0.807
	C2622.838,1381.3,2622.337,1381.026,2621.835,1380.757z M2618.567,1378.957c0.505,0.285,1.01,0.573,1.516,0.852
	C2619.577,1379.53,2619.072,1379.242,2618.567,1378.957z M2615.316,1377.079c0.507,0.3,1.014,0.603,1.523,0.897
	C2616.331,1377.681,2615.824,1377.379,2615.316,1377.079z M2612.088,1375.125c0.508,0.315,1.015,0.631,1.525,0.939
	C2613.103,1375.755,2612.595,1375.439,2612.088,1375.125z M2608.885,1373.097c0.506,0.327,1.01,0.655,1.517,0.977
	C2609.896,1373.752,2609.39,1373.425,2608.885,1373.097z M2605.704,1370.994c0.5,0.338,1,0.677,1.502,1.009
	C2606.704,1371.67,2606.204,1371.332,2605.704,1370.994z M2602.536,1368.808c0.5,0.352,0.999,0.704,1.501,1.05
	C2603.535,1369.512,2603.036,1369.16,2602.536,1368.808z M2599.396,1366.55c0.497,0.365,0.993,0.729,1.492,1.087
	C2600.39,1367.279,2599.893,1366.915,2599.396,1366.55z M2596.281,1364.216c0.494,0.377,0.987,0.753,1.483,1.125
	C2597.268,1364.969,2596.774,1364.594,2596.281,1364.216z M2593.192,1361.808c0.489,0.389,0.978,0.775,1.469,1.158
	C2594.17,1362.583,2593.681,1362.197,2593.192,1361.808z M2590.129,1359.324c0.485,0.402,0.972,0.801,1.46,1.197
	C2591.101,1360.124,2590.614,1359.725,2590.129,1359.324z M2587.099,1356.769c0.48,0.412,0.961,0.822,1.443,1.229
	C2588.06,1357.591,2587.579,1357.182,2587.099,1356.769z M2584.096,1354.139c0.474,0.424,0.95,0.843,1.427,1.261
	C2585.046,1354.982,2584.57,1354.562,2584.096,1354.139z M2581.122,1351.433c0.471,0.437,0.944,0.87,1.418,1.301
	C2582.067,1352.303,2581.594,1351.87,2581.122,1351.433z M2578.185,1348.659c0.466,0.449,0.935,0.893,1.404,1.336
	C2579.12,1349.552,2578.652,1349.107,2578.185,1348.659z M2575.284,1345.813c0.46,0.459,0.922,0.913,1.384,1.367
	C2576.206,1346.726,2575.744,1346.272,2575.284,1345.813z M2572.421,1342.899c0.45,0.467,0.904,0.929,1.357,1.39
	C2573.325,1343.827,2572.872,1343.366,2572.421,1342.899z M2569.592,1339.91c0.444,0.478,0.891,0.949,1.337,1.422
	C2570.483,1340.859,2570.036,1340.387,2569.592,1339.91z M2566.803,1336.851c0.437,0.487,0.877,0.969,1.316,1.451
	C2567.68,1337.82,2567.24,1337.339,2566.803,1336.851z M2564.059,1333.728c0.425,0.493,0.854,0.978,1.282,1.466
	C2564.913,1334.707,2564.484,1334.221,2564.059,1333.728z M2561.354,1330.533c0.413,0.498,0.831,0.987,1.247,1.48
	C2562.185,1331.52,2561.767,1331.03,2561.354,1330.533z M2558.694,1327.271c0.399,0.499,0.803,0.989,1.205,1.483
	C2559.497,1328.26,2559.093,1327.77,2558.694,1327.271z M2556.077,1323.939c0.383,0.497,0.772,0.987,1.158,1.48
	C2556.849,1324.925,2556.46,1324.436,2556.077,1323.939z M2553.508,1320.541c0.363,0.489,0.732,0.97,1.098,1.455
	C2554.24,1321.511,2553.871,1321.031,2553.508,1320.541z M2550.983,1317.071c0.341,0.477,0.688,0.946,1.031,1.42
	C2551.671,1318.017,2551.324,1317.548,2550.983,1317.071z M2548.516,1313.547c0.269,0.393,0.545,0.777,0.816,1.167
	C2549.061,1314.324,2548.785,1313.94,2548.516,1313.547z M2542.986,1305.094c0.252,0.403,0.498,0.807,0.752,1.209
	C2543.484,1305.901,2543.238,1305.497,2542.986,1305.094z M2540.571,1301.142c0.3,0.502,0.594,1.006,0.899,1.507
	C2541.165,1302.147,2540.871,1301.644,2540.571,1301.142z M2538.368,1297.38c0.302,0.527,0.599,1.056,0.906,1.582
	C2538.967,1298.435,2538.67,1297.907,2538.368,1297.38z M2536.258,1293.615c0.301,0.549,0.598,1.099,0.904,1.647
	C2536.856,1294.714,2536.559,1294.164,2536.258,1293.615z M2534.24,1289.853c0.296,0.564,0.588,1.129,0.889,1.692
	C2534.828,1290.982,2534.535,1290.417,2534.24,1289.853z M2532.309,1286.087c0.289,0.577,0.575,1.153,0.869,1.729
	C2532.884,1287.24,2532.597,1286.663,2532.309,1286.087z M2530.462,1282.315c0.28,0.586,0.557,1.171,0.843,1.756
	C2531.02,1283.487,2530.742,1282.901,2530.462,1282.315z M2528.699,1278.538c0.271,0.594,0.539,1.188,0.816,1.782
	C2529.238,1279.726,2528.969,1279.131,2528.699,1278.538z M2527.021,1274.762c0.258,0.596,0.516,1.193,0.78,1.789
	C2527.537,1275.955,2527.279,1275.359,2527.021,1274.762z M2525.423,1270.979c0.246,0.598,0.492,1.197,0.744,1.795
	C2525.915,1272.176,2525.669,1271.577,2525.423,1270.979z M2523.903,1267.185c0.235,0.604,0.471,1.207,0.712,1.81
	C2524.374,1268.392,2524.138,1267.788,2523.903,1267.185z M2522.466,1263.391c0.223,0.606,0.447,1.211,0.676,1.816
	C2522.913,1264.603,2522.688,1263.997,2522.466,1263.391z M2521.109,1259.6c0.21,0.605,0.422,1.21,0.638,1.816
	C2521.531,1260.811,2521.319,1260.205,2521.109,1259.6z M2519.833,1255.809c0.197,0.603,0.396,1.206,0.598,1.808
	C2520.228,1257.015,2520.029,1256.412,2519.833,1255.809z M2518.633,1252.011c0.184,0.604,0.371,1.207,0.562,1.811
	C2519.004,1253.218,2518.817,1252.615,2518.633,1252.011z M2517.514,1248.218c0.172,0.604,0.347,1.208,0.525,1.813
	C2517.861,1249.426,2517.686,1248.822,2517.514,1248.218z M2516.475,1244.43c0.159,0.602,0.322,1.204,0.486,1.806
	C2516.797,1245.634,2516.634,1245.032,2516.475,1244.43z M2515.514,1240.644c0.146,0.601,0.298,1.204,0.45,1.806
	C2515.811,1241.847,2515.66,1241.245,2515.514,1240.644z M2514.632,1236.867c0.134,0.599,0.273,1.199,0.412,1.8
	C2514.905,1238.066,2514.766,1237.466,2514.632,1236.867z M2513.83,1233.099c0.121,0.597,0.248,1.195,0.375,1.793
	C2514.078,1234.294,2513.951,1233.696,2513.83,1233.099z M2513.107,1229.341c0.108,0.592,0.222,1.185,0.336,1.779
	C2513.329,1230.526,2513.214,1229.933,2513.107,1229.341z M2512.461,1225.587c0.096,0.592,0.199,1.186,0.301,1.779
	C2512.66,1226.773,2512.557,1226.18,2512.461,1225.587z M2511.895,1221.853c0.083,0.59,0.174,1.181,0.263,1.771
	C2512.07,1223.034,2511.979,1222.443,2511.895,1221.853z M2511.408,1218.134c0.07,0.583,0.149,1.168,0.225,1.753
	C2511.557,1219.303,2511.479,1218.718,2511.408,1218.134z M2511,1214.43c0.057,0.575,0.124,1.152,0.187,1.729
	C2511.123,1215.583,2511.057,1215.005,2511,1214.43z M2510.669,1210.745c0.045,0.566,0.099,1.134,0.149,1.702
	C2510.768,1211.879,2510.714,1211.311,2510.669,1210.745z M2510.417,1207.079c0.032,0.551,0.074,1.104,0.111,1.657
	C2510.491,1208.183,2510.449,1207.63,2510.417,1207.079z M2510.244,1203.431c0.02,0.534,0.05,1.071,0.075,1.607
	C2510.293,1204.502,2510.263,1203.966,2510.244,1203.431z M2510.148,1199.809c0.008,0.501,0.026,1.004,0.038,1.506
	C2510.174,1200.814,2510.156,1200.31,2510.148,1199.809z M2510.131,1196.212c-0.002,0.406,0.005,0.815,0.005,1.222
	C2510.135,1197.028,2510.128,1196.618,2510.131,1196.212z M2510.223,1191.828c-0.009,0.274-0.024,0.546-0.032,0.821
	C2510.199,1192.374,2510.214,1192.102,2510.223,1191.828z M2510.418,1187.678c-0.028,0.476-0.063,0.951-0.087,1.43
	C2510.355,1188.629,2510.39,1188.154,2510.418,1187.678z M2510.677,1184.045c-0.043,0.514-0.091,1.026-0.129,1.542
	C2510.586,1185.071,2510.634,1184.559,2510.677,1184.045z M2511.013,1180.509c-0.057,0.532-0.118,1.061-0.17,1.595
	C2510.894,1181.57,2510.956,1181.041,2511.013,1180.509z M2511.423,1177.049c-0.07,0.532-0.143,1.062-0.207,1.597
	C2511.28,1178.111,2511.354,1177.581,2511.423,1177.049z M2511.915,1173.608c-0.084,0.539-0.171,1.076-0.249,1.617
	C2511.744,1174.684,2511.831,1174.147,2511.915,1173.608z M2512.481,1170.225c-0.097,0.539-0.197,1.076-0.288,1.617
	C2512.284,1171.301,2512.384,1170.764,2512.481,1170.225z M2513.125,1166.885c-0.11,0.535-0.222,1.068-0.326,1.606
	C2512.903,1167.953,2513.015,1167.42,2513.125,1166.885z M2513.846,1163.584c-0.123,0.532-0.248,1.063-0.365,1.598
	C2513.598,1164.646,2513.723,1164.115,2513.846,1163.584z M2514.642,1160.335c-0.135,0.523-0.271,1.046-0.4,1.573
	C2514.371,1161.381,2514.507,1160.858,2514.642,1160.335z M2515.519,1157.115c-0.149,0.519-0.298,1.038-0.44,1.561
	C2515.222,1158.153,2515.371,1157.634,2515.519,1157.115z M2516.472,1153.944c-0.162,0.515-0.324,1.03-0.48,1.548
	C2516.148,1154.974,2516.31,1154.458,2516.472,1153.944z M2517.501,1150.822c-0.175,0.507-0.348,1.015-0.517,1.526
	C2517.152,1151.837,2517.326,1151.329,2517.501,1150.822z M2518.608,1147.743c-0.188,0.501-0.375,1.004-0.556,1.509
	C2518.234,1148.746,2518.42,1148.244,2518.608,1147.743z M2519.792,1144.714c-0.202,0.496-0.401,0.993-0.596,1.493
	C2519.391,1145.707,2519.59,1145.21,2519.792,1144.714z M2521.049,1141.743c-0.213,0.485-0.424,0.972-0.631,1.461
	C2520.625,1142.715,2520.836,1142.228,2521.049,1141.743z M2522.385,1138.818c-0.226,0.476-0.448,0.953-0.667,1.434
	C2521.938,1139.772,2522.16,1139.294,2522.385,1138.818z M2523.798,1135.948c-0.238,0.467-0.472,0.936-0.704,1.407
	C2523.326,1136.884,2523.56,1136.415,2523.798,1135.948z M2525.289,1133.129c-0.252,0.459-0.498,0.921-0.743,1.385
	C2524.791,1134.051,2525.037,1133.588,2525.289,1133.129z M2526.854,1130.37c-0.264,0.45-0.523,0.904-0.781,1.358
	C2526.331,1131.274,2526.59,1130.82,2526.854,1130.37z M2528.496,1127.669c-0.277,0.44-0.547,0.884-0.818,1.328
	C2527.949,1128.553,2528.219,1128.109,2528.496,1127.669z M2530.215,1125.027c-0.289,0.429-0.571,0.864-0.854,1.299
	C2529.644,1125.891,2529.926,1125.457,2530.215,1125.027z M2532.011,1122.445c-0.303,0.421-0.598,0.848-0.895,1.274
	C2531.413,1123.292,2531.708,1122.866,2532.011,1122.445z M2533.881,1119.928c-0.315,0.41-0.621,0.826-0.93,1.241
	C2533.259,1120.754,2533.566,1120.338,2533.881,1119.928z M2535.827,1117.475c-0.326,0.398-0.644,0.803-0.965,1.207
	C2535.183,1118.278,2535.5,1117.873,2535.827,1117.475z M2537.847,1115.091c-0.334,0.382-0.66,0.772-0.989,1.159
	C2537.187,1115.863,2537.512,1115.473,2537.847,1115.091z M2539.947,1112.77c-0.345,0.369-0.681,0.747-1.021,1.122
	C2539.266,1113.517,2539.602,1113.139,2539.947,1112.77z M2542.12,1110.52c-0.355,0.355-0.699,0.72-1.048,1.08
	C2541.421,1111.24,2541.765,1110.875,2542.12,1110.52z M2544.369,1108.341c-0.359,0.336-0.707,0.682-1.06,1.023
	C2543.662,1109.023,2544.01,1108.677,2544.369,1108.341z M2546.694,1106.233c-0.356,0.312-0.701,0.635-1.052,0.952
	C2545.993,1106.868,2546.338,1106.545,2546.694,1106.233z M2549.096,1104.198c-0.338,0.277-0.665,0.564-0.999,0.845
	C2548.431,1104.762,2548.759,1104.475,2549.096,1104.198z M2556.838,1098.501c-1.816,1.198-3.579,2.451-5.29,3.758
	c57.822-32.639,142.819,0.568,193.065,76.745s47.311,167.384-5.454,207.688c1.875-1.058,3.721-2.186,5.537-3.383
	c57.81-38.131,62.62-132.799,10.745-211.446C2703.565,1093.215,2614.648,1060.37,2556.838,1098.501z"/>
<path style="fill:#F5A7B9;" d="M2983.976,1668.879l-9.35,4.543l-17.773-2.05c-2.595-0.76-19.051-2.26-14.084,2.407
	c3.49,3.279,13.503,8.081,13.334,8.52c-2.191,5.751-30.746,17.892-30.972,18.414c-3.18,7.327,15.399,0.682,18.601-0.305
	c0.84-0.258-11.768,7.427-11.08,7.899c0.834,0.573,2.981,2.18,6.49,1.004c4.297-1.438,11.255-5.089,12.224-4.577
	c1.006,0.533-11.282,7.893-10.306,8.319c0.752,0.329,2.265,1.05,4.936,0.075c4.412-1.612,10.632-5.396,11.81-5.104
	c1.213,0.302-7.899,5.046-6.765,5.226c0.884,0.14,1.319,1.636,2.155,1.405c22.496-6.218,15.822-16.666,41.774-23.093
	C3009.402,1687.986,2989.326,1670.441,2983.976,1668.879"/>
<path style="fill-rule:evenodd;clip-rule:evenodd;fill:#FBB44A;" d="M2190.783,1828.799h352.079
	c18.604,0,33.825,15.221,33.825,33.825v268.557c0,18.604-15.22,33.825-33.825,33.825h-352.079
	c-18.604,0-33.825-15.221-33.825-33.825v-268.557C2156.958,1844.02,2172.179,1828.799,2190.783,1828.799"/>
<polygon style="fill-rule:evenodd;clip-rule:evenodd;fill:#FFFFFF;" points="2326.271,1926.707 2466.718,2141.228 
	2185.823,2141.228 "/>
<polygon style="fill-rule:evenodd;clip-rule:evenodd;fill:#FFFFFF;" points="2443.47,1999.041 2536.56,2141.228 2350.38,2141.228 
	"/>
<path style="fill-rule:evenodd;clip-rule:evenodd;fill:#FFFFFF;" d="M2465.316,1880.774c21.823,0,39.514,17.691,39.514,39.514
	c0,21.823-17.691,39.514-39.514,39.514c-21.823,0-39.514-17.691-39.514-39.514
	C2425.802,1898.465,2443.493,1880.774,2465.316,1880.774"/>
<path style="fill-rule:evenodd;clip-rule:evenodd;fill:#8BA7D7;" d="M589.574,884.285c126.342,0,228.762,102.42,228.762,228.761
	s-102.42,228.761-228.762,228.761c-126.341,0-228.761-102.42-228.761-228.761S463.232,884.285,589.574,884.285"/>
<path style="fill-rule:evenodd;clip-rule:evenodd;fill:#7BA9E3;" d="M589.574,1113.046H360.812
	c0,126.341,102.42,228.761,228.761,228.761V1113.046z"/>
<path style="fill-rule:evenodd;clip-rule:evenodd;fill:#355298;" d="M360.812,1113.046h228.761L420.279,959.19
	C383.332,999.82,360.812,1053.803,360.812,1113.046"/>
<path style="fill-rule:evenodd;clip-rule:evenodd;fill:#F6597B;" d="M420.279,959.19l169.295,153.856l165.539-157.889
	c-41.66-43.666-100.422-70.872-165.539-70.872C522.475,884.285,462.124,913.173,420.279,959.19"/>
<path style="fill-rule:evenodd;clip-rule:evenodd;fill:#FBB44A;" d="M589.574,1113.046v228.761
	c86.257,0,161.364-47.74,200.34-118.239c18.112-32.762,28.422-70.438,28.422-110.522c0-28.184-5.097-55.178-14.42-80.11
	c-10.928-29.228-27.664-55.622-48.803-77.779L589.574,1113.046z"/>
<path style="fill-rule:evenodd;clip-rule:evenodd;fill:#EC1C24;" d="M589.574,1113.046l-90.809-210.029
	c-30.053,13.012-56.763,32.284-78.486,56.173L589.574,1113.046z"/>
</svg>
