<?xml version="1.0" encoding="utf-8"?>
<!-- Generator: Adobe Illustrator 27.5.0, SVG Export Plug-In . SVG Version: 6.00 Build 0)  -->
<svg version="1.1" id="Layer_1" xmlns="http://www.w3.org/2000/svg" xmlns:xlink="http://www.w3.org/1999/xlink" x="0px" y="0px"
	 viewBox="0 0 1827 1827" style="enable-background:new 0 0 1827 1827;" xml:space="preserve">
<g>
	<path style="fill:#FEFEFE;" d="M0,0h1827.533v1827.533H0V0z"/>
	<path style="fill:#33226C;" d="M1622.43,963.824c2.524-1.842,4.953-3.673,7.28-5.759l1.422,0.225l0.609,1.426
		c0.768,1.749,1.733,3.05,2.904,4.546c-1.829,1.888-3.687,4.023-5.727,5.677c-2.038,1.649-3.237,2.509-5.868,2.341
		C1621.646,969.312,1622.232,967.067,1622.43,963.824z"/>
	<path style="fill:#33226C;" d="M1621.553,912.685c4.835,2.499,9.4,4.833,13.596,8.349l-2.548,3.684l-11.042,7.403
		C1621.493,925.642,1621.492,919.163,1621.553,912.685z"/>
	<path style="fill:#7C7BB9;" d="M1143.516,1000.854l2.263-2.37c-0.141,10.4-0.532,20.861-0.002,31.25
		c-17.651-0.071-36.404,1.157-53.919-0.716c16.162-0.701,32.453-0.225,48.633-0.146
		C1140.85,1019.387,1141.26,1010.11,1143.516,1000.854z"/>
	<path style="fill:#45347D;" d="M1635.149,921.034c1.419,5.383,2.158,8.722-0.819,13.724c-2.995,5.031-8.904,9.73-13.158,13.814
		l0.298-14.396c3.983-2.349,9.798-4.76,11.131-9.459L1635.149,921.034z"/>
	<path style="fill:#45347D;" d="M1621.302,949.512c5.522-4.135,10.53-8.922,15.331-13.867c2.874,7.478,4.585,15.579,1.092,23.24
		c-0.851,1.867-1.992,3.639-3.08,5.376c-1.171-1.496-2.136-2.797-2.904-4.546l-0.609-1.426l-1.422-0.225
		c-2.327,2.086-4.756,3.918-7.28,5.759C1622.003,959.075,1621.409,954.277,1621.302,949.512z"/>
	<path style="fill:#45347D;" d="M1606.432,939.796l0.687-2.545l1.144-0.255c2.893,2.622,4.576,5.657,7.199,8.404l0.766-0.098
		c-0.557-10.148-17.809-13.567-4.969-26.938c2.395-2.495,5.436-4.469,8.356-6.293c0.603,11.013,0.028,21.955,0.589,32.956
		c-0.357,0.218-0.721,0.427-1.071,0.657c-0.291,0.191-0.566,0.405-0.849,0.607l0.493,1.41c1.646,4.808,2.056,8.465,1.749,13.51
		c0.082,3.698,0.56,7.267-1.19,10.64c-1.264,0.669-1.481,1.21-2.961,0.671c-2.197-0.798-4.414-2.681-6.029-4.369
		c-1.694-1.601-3.323-3.584-4.49-5.604C1601.872,955.659,1604.456,946.908,1606.432,939.796z"/>
	<path style="fill:#33226C;" d="M1610.346,968.153c-0.441-4.296-2.391-7.803-0.034-11.785l3.02-0.514
		c1.968,2.774,3.83,4.469,7.194,5.356c0.082,3.698,0.56,7.267-1.19,10.64c-1.264,0.669-1.481,1.21-2.961,0.671
		C1614.177,971.725,1611.961,969.842,1610.346,968.153z"/>
	<path style="fill:#7979C7;" d="M1707.037,727.279c2.782-0.246,5.536-0.475,8.285,0.168c4.301,1.008,8.181,4.108,10.285,7.976
		c0.276,0.508,0.525,1.029,0.748,1.562c0.222,0.533,0.416,1.077,0.582,1.631c0.165,0.553,0.302,1.114,0.409,1.683
		c0.107,0.568,0.184,1.139,0.232,1.715c0.048,0.576,0.065,1.153,0.052,1.731c-0.013,0.577-0.056,1.152-0.128,1.726
		c-0.073,0.573-0.175,1.142-0.307,1.704c-0.132,0.563-0.293,1.117-0.482,1.663c-1.856,5.388-5.377,8.261-10.349,10.66
		c-2.759,0.221-5.75,0.444-8.49-0.045c-4.007-0.714-7.683-3.657-9.843-7.025c-2.513-3.921-3.034-8.823-1.745-13.26
		C1698.049,733.085,1701.738,730.263,1707.037,727.279z"/>
	<path style="fill:#45347D;" d="M1709.805,738.055c2.122-0.043,4.744-0.407,6.664,0.612c1.112,0.591,0.823,0.842,1.273,2.245
		c-1.112,3.71-5.729,7.53-8.82,9.769c-1.413-1.155-2.713-2.395-4.037-3.648c-0.534-2.276-0.594-2.281,0.427-4.369
		c1.38,0.396,2.755,0.812,4.124,1.246l1.333-1.492l-1.472-2.281L1709.805,738.055z"/>
	<path style="fill:#FDB903;" d="M147.904,885.325c2.769,0,5.499,0.016,8.104,1.073c4.338,1.761,7.853,5.151,9.568,9.527
		c1.924,4.911,1.538,10.667-0.863,15.343c-2.835,5.522-7.04,8.049-12.717,10.044c-3.637-0.096-7.043-0.341-10.369-1.958
		c-4.829-2.349-8.697-6.578-10.146-11.797c-1.206-4.342-0.678-9.138,1.621-13.039C136.467,888.811,141.739,886.714,147.904,885.325z
		"/>
	<path style="fill:#0C0A0E;" d="M917.391,1081.894c4.94-0.792,12.304-5.656,16.607-4.896c0.187,19.046,0.25,38.093,0.189,57.139
		l-38.664-0.002c0.751-5.442,2.3-10.096,4.824-14.975c3.427-2.545,6.932-4.506,10.694-6.479c-0.234-6.523,3.184-17.865,0.914-23.501
		l-0.782-3.607C912.985,1084.063,915.321,1083.033,917.391,1081.894z"/>
	<path style="fill:#0C0A0E;" d="M1596.282,997.567c-0.155-0.187-0.318-0.369-0.468-0.559c-4.017-5.045-14.87-23.233-14.174-29.455
		l1.246,1.126c6.512,2.249,11.265,4.287,18.152,2.247c1.155-0.341,3.778-1.67,4.849-1.658c2.061,0.025,2.122,1.278,3.025,2.77
		c8.592,3.102,13.815,3.866,22.716,0.976l2.445,0.823l13.383-0.437c2.909-1.601,5.795-3.3,8.767-4.779l-12.664,28.923
		C1627.846,997.756,1612.005,997.567,1596.282,997.567z"/>
	<path style="fill:#7979C7;" d="M1582.886,968.68c6.512,2.249,11.265,4.287,18.152,2.247c1.155-0.341,3.778-1.67,4.849-1.658
		c2.061,0.025,2.122,1.278,3.025,2.77c8.592,3.102,13.815,3.866,22.716,0.976l2.445,0.823l13.383-0.437
		c-5.35,3.83-10.92,7.531-15.887,11.849c-3.757,3.125-7.358,6.122-11.622,8.559c-0.544-0.155-1.194-0.15-1.608-0.532
		C1617.206,992.87,1584.441,970.354,1582.886,968.68z"/>
	<path style="fill:#45347D;" d="M1608.912,972.039c8.592,3.102,13.815,3.866,22.716,0.976l2.445,0.823
		c-0.664,1.858-1.221,3.912-2.068,5.683c-2.622,2.531-6.234,6.851-10.13,6.903c-4.021,0.054-7.462-4.708-9.991-7.414
		C1610.171,976.559,1609.339,975.017,1608.912,972.039z"/>
	<path style="fill:#FDB903;" d="M1596.282,997.567c15.723,0,31.564,0.189,47.277-0.023c3.782,0.311,7.924,0.128,11.158,2.292
		c1.328,2.029,1.822,2.522,1.287,5.07c-0.785,3.744-5.019,7.733-7.542,10.46c-2.179,6.78-4.715,13.214-7.917,19.583l-13.858,0.335
		c-9.082,0.946-18.504,0.757-27.611,0.182c-2.925-6.252-4.894-12.727-6.939-19.309c-0.869-3.602-6.354-6.803-7.869-10.797
		c-0.824-2.168-0.555-3.735,0.327-5.759C1587.634,997.703,1592.681,998.167,1596.282,997.567z"/>
	<path style="fill:#010102;" d="M1626.797,1015.448c7.203,0.023,14.472,0.255,21.665-0.082c-2.179,6.78-4.715,13.214-7.917,19.583
		l-13.858,0.335L1626.797,1015.448z"/>
	<path style="fill:#010102;" d="M1592.136,1016.158c5.45-2.336,15.866-0.887,22-0.787l-0.162,20.053l-14.899,0.043
		C1596.15,1029.215,1594.182,1022.74,1592.136,1016.158z"/>
	<path style="fill:#FDB903;" d="M911.173,1085.574l0.782,3.607c2.27,5.636-1.148,16.978-0.914,23.501
		c-3.762,1.972-7.267,3.934-10.694,6.479c-2.523,4.879-4.073,9.534-4.824,14.975c-25.455,0.543-51.032,0.005-76.501-0.016
		c-0.009-5.469-0.271-10.931-0.489-16.394l-0.27-6.991c5.069-1.749,9.709-4.472,14.918-6.138l4.696-1.767
		c18.448-4.758,41.912-4.196,58.326-10.589C901.463,1090.612,906.337,1088.16,911.173,1085.574z"/>
	<path style="fill:#25165D;" d="M911.173,1085.574l0.782,3.607c-6.286,2.943-12.477,6.873-19.087,8.963
		c-19.512,6.17-41.384,5.097-60.453,11.947c-4.995,2.156-9.479,4.394-13.881,7.635l-0.27-6.991
		c5.069-1.749,9.709-4.472,14.918-6.138l4.696-1.767c18.448-4.758,41.912-4.196,58.326-10.589
		C901.463,1090.612,906.337,1088.16,911.173,1085.574z"/>
	<path style="fill:#FDB903;" d="M583.574,193.804c7.03-0.541,13.424,0.111,19.791,3.385c0.953,0.491,1.879,1.029,2.779,1.613
		c0.898,0.584,1.766,1.211,2.604,1.881c0.836,0.671,1.638,1.381,2.404,2.131c0.765,0.751,1.491,1.537,2.179,2.359
		c0.688,0.823,1.333,1.678,1.935,2.565c0.603,0.888,1.16,1.802,1.67,2.745c0.512,0.942,0.975,1.908,1.39,2.896
		c0.414,0.989,0.779,1.995,1.094,3.02c2.557,8.222,1.783,17.453-2.438,24.991c-5.06,9.039-13.549,13.933-23.313,16.455
		c-7.665,0.405-14.454-0.164-21.265-4.032c-0.921-0.523-1.813-1.092-2.677-1.704c-0.865-0.613-1.697-1.267-2.495-1.961
		c-0.798-0.696-1.56-1.43-2.286-2.202c-0.726-0.771-1.411-1.577-2.056-2.418c-0.645-0.84-1.246-1.71-1.804-2.611
		c-0.558-0.899-1.07-1.825-1.535-2.777c-0.465-0.952-0.882-1.924-1.251-2.918c-0.368-0.993-0.685-2.002-0.953-3.027
		c-0.28-1.042-0.507-2.096-0.682-3.162c-0.176-1.065-0.299-2.136-0.368-3.214c-0.07-1.077-0.087-2.155-0.05-3.234
		c0.037-1.079,0.127-2.154,0.269-3.225c0.143-1.07,0.338-2.13,0.585-3.18c0.247-1.052,0.546-2.088,0.894-3.109
		c0.35-1.022,0.749-2.024,1.198-3.005c0.449-0.983,0.944-1.941,1.487-2.873C565.982,200.202,573.899,196.362,583.574,193.804z"/>
	<path style="fill:#FEFEFE;" d="M585.858,209.815c2.856,0.03,5.731,0.193,8.379,1.36c3.773,1.662,6.873,4.756,8.349,8.627
		c0.187,0.487,0.348,0.981,0.484,1.483c0.136,0.503,0.245,1.012,0.328,1.526c0.083,0.514,0.14,1.031,0.171,1.551
		c0.031,0.52,0.036,1.04,0.014,1.56c-0.023,0.52-0.071,1.038-0.146,1.553c-0.075,0.516-0.176,1.027-0.303,1.531
		c-0.127,0.505-0.28,1.002-0.459,1.492c-0.177,0.489-0.38,0.968-0.607,1.437c-2.261,4.767-5.843,6.594-10.567,8.41
		c-2.686-0.095-5.641-0.227-8.169-1.242c-4.248-1.706-7.828-5.527-9.404-9.809c-0.174-0.464-0.322-0.936-0.446-1.417
		c-0.124-0.481-0.221-0.967-0.293-1.458c-0.071-0.49-0.117-0.983-0.136-1.479c-0.019-0.495-0.012-0.99,0.021-1.485
		c0.035-0.495,0.095-0.987,0.18-1.476c0.087-0.488,0.199-0.97,0.336-1.447c0.138-0.476,0.301-0.943,0.489-1.403
		c0.187-0.459,0.398-0.907,0.634-1.344C577.079,213.293,581.241,211.3,585.858,209.815z"/>
	<path style="fill:#FDB903;" d="M458.175,1010.362c9.743-0.737,18.207,0.066,26.223,6.359c7.79,6.118,12.02,14.968,13.052,24.67
		c9.645-2.031,20.749-7.658,28.934-8.968l0.123,0.732c-9.295,4.356-19.205,7.219-29.073,9.95c-0.573,5.042-1.629,9.316-3.669,13.973
		c-4.29,6.51-9.559,12.45-16.778,15.753c-7.139,3.268-15.218,3.186-22.464,0.278c-8.556-3.434-15.711-10.605-18.991-19.232
		c-3.17-8.333-2.795-18.621,1.087-26.667C441.083,1017.959,448.886,1013.538,458.175,1010.362z"/>
	<path style="fill:#FEFEFE;" d="M459.125,1032.558c2.947-0.268,6.555-0.541,9.464,0.055c3.004,0.617,6.266,3.532,7.846,6.098
		c1.367,2.219,0.99,4.051,0.382,6.438c-2.168,1.028-2.945,0.634-5.259,0.218c0.755,1.403,1.883,1.314,3.345,1.801
		c0.591,2.447-0.279,3.286-1.33,5.516c-3.271,2.193-6.418,3.578-10.46,3.203c-3.071-0.286-5.811-2.035-7.678-4.446
		c-2.276-2.936-2.9-6.789-2.381-10.401C453.674,1036.714,455.807,1034.994,459.125,1032.558z"/>
	<path style="fill:#FDB903;" d="M1403.445,426.636c12.05-0.592,22.1,1.333,31.891,8.836c12.646,9.689,19.496,24.183,21.782,39.654
		l-77.099-0.364c-16.494,0.125-32.988,0.046-49.481-0.237c1.737-8.327,4.278-16.239,9.236-23.269
		c4.824-6.841,12.027-12.48,20.506-13.619c7.483-1.005,13.619,1.301,19.555,5.643
		C1387.06,434.641,1392.369,429.795,1403.445,426.636z"/>
	<path style="fill:#7979C7;" d="M1018.389,932.972l127.513,0.378l-0.123,65.134l-2.263,2.37c-1.099-1.315-2.238-1.269-3.851-1.63
		c-6.512-1.458-14.44-3.443-18.97-8.725c-4.44-5.177-15.265-14.286-17.019-20.54c-1.71-6.095,3.641-19.262-0.068-23.219
		c-2.109-2.249-5.413-3.22-8.399-3.398c-10.132-0.61-20.489,4.69-27.72,11.329c-0.13,3.05-0.321,6.109-0.282,9.161
		c-1.856,0.578-2.959,1.126-4.542,2.242c-5.192,3.659-13.241,3.853-17.66,7.592l-2.113-7.167
		c-12.994,19.339-10.44,40.338-10.314,62.614c-4.403,0.787-9.389,0.407-13.874,0.468L1018.389,932.972z"/>
	<path style="fill:#D8A456;" d="M1042.893,966.499c0.785-1.067,1.567-1.856,2.636-2.643c4.786-3.535,16.057-10.11,21.961-9.184
		c-0.13,3.05-0.321,6.109-0.282,9.161c-1.856,0.578-2.959,1.126-4.542,2.242c-5.192,3.659-13.241,3.853-17.66,7.592
		L1042.893,966.499z"/>
	<path style="fill:#7979C7;" d="M818.313,1043.964c38.576-0.412,77.215,0.038,115.797,0.087l-0.057,17.413l-0.055,15.534
		c-4.303-0.76-11.667,4.103-16.607,4.896c-2.07,1.139-4.406,2.168-6.218,3.68c-4.836,2.586-9.71,5.038-14.97,6.668
		c-16.414,6.393-39.877,5.831-58.326,10.589l-4.696,1.767c-5.209,1.665-9.85,4.389-14.918,6.138
		C818.697,1088.51,818.303,1066.199,818.313,1043.964z"/>
	<path style="fill:#FDB903;" d="M851.682,1078.633c6.141-2.052,12.445-3.75,18.522-5.961c18.473-6.725,43.963-18.747,63.849-11.208
		l-0.055,15.534c-4.303-0.76-11.667,4.103-16.607,4.896c-2.07,1.139-4.406,2.168-6.218,3.68c-4.836,2.586-9.71,5.038-14.97,6.668
		c-16.414,6.393-39.877,5.831-58.326,10.589C842.193,1094.63,846.94,1086.591,851.682,1078.633z"/>
	<path style="fill:#FDB903;" d="M1448.079,317.898c9.873-1.096,19.517,0.559,28.373,5.154c20.023,10.389,30.29,29.979,36.831,50.612
		c-31.275-2.308-63.698-0.673-95.096-0.653c-20.689-0.092-41.377,0.019-62.063,0.332c0.994-2.638,1.926-5.304,3.088-7.876
		c4.936-10.937,14.233-21.416,25.71-25.403c10.837-3.766,20.142-1.337,30.019,3.494c1.105-2.284,2.34-4.497,3.703-6.637
		C1425.649,325.997,1435.697,320.5,1448.079,317.898z"/>
	<path style="fill:#25165D;" d="M1067.49,954.672c7.232-6.639,17.588-11.94,27.72-11.329c2.986,0.178,6.289,1.149,8.399,3.398
		c3.709,3.957-1.642,17.124,0.068,23.219c1.754,6.254,12.579,15.363,17.019,20.54c4.53,5.283,12.457,7.267,18.97,8.725
		c1.613,0.361,2.752,0.314,3.851,1.63c-2.256,9.255-2.666,18.532-3.025,28.018c-16.18-0.078-32.471-0.555-48.633,0.146
		c-19.76-0.205-39.52-0.173-59.279,0.094c-0.127-22.277-2.681-43.275,10.314-62.614l2.113,7.167
		c4.419-3.739,12.468-3.933,17.66-7.592c1.583-1.115,2.686-1.663,4.542-2.242C1067.168,960.781,1067.359,957.722,1067.49,954.672z"
		/>
	<path style="fill:#FDB903;" d="M1045.006,973.666c4.419-3.739,12.468-3.933,17.66-7.592c1.583-1.115,2.686-1.663,4.542-2.242
		c1.887,6.814,4.342,13.048,10.91,16.548c5.936,3.164,12.921,3.025,19.473,3.043c1.901,7.776,8.84,24.317,9.006,30.774
		c-1.929,2.017-3.377,2.672-6.223,2.622c-12.898-0.223-34.209-9.323-42.685-19.098
		C1051.699,990.814,1048.235,982.104,1045.006,973.666z"/>
	<path style="fill:#AAA2D3;" d="M819.109,1253.773l114.913,0.405c0.371,25.714,0.153,51.46,0.188,77.177
		c-38.385,0.537-76.862-0.004-115.256-0.014C818.784,1305.485,818.836,1279.629,819.109,1253.773z"/>
	<path style="fill:#45347D;" d="M880.744,1149.786l53.459-0.139l-0.136,80.766l-62.688-0.025l-52.511,0.036
		c-0.172-26.819-0.192-53.639-0.057-80.458L880.744,1149.786z"/>
	<path style="fill:#FDB903;" d="M1398.464,911.941c-0.514-10.151-0.107-19.127,6.807-27.356c0.619-0.734,1.274-1.434,1.967-2.101
		c0.691-0.668,1.416-1.297,2.174-1.888c0.757-0.591,1.542-1.142,2.356-1.653c0.814-0.509,1.652-0.976,2.515-1.399
		c0.863-0.424,1.745-0.801,2.647-1.133c0.902-0.331,1.818-0.615,2.748-0.853c0.932-0.237,1.872-0.425,2.822-0.564
		c0.951-0.139,1.906-0.229,2.866-0.27c0.883-0.051,1.766-0.058,2.649-0.02c0.883,0.037,1.762,0.118,2.638,0.243
		c0.875,0.125,1.741,0.293,2.6,0.503c0.858,0.211,1.704,0.463,2.538,0.758c0.833,0.295,1.649,0.631,2.449,1.006
		c0.801,0.376,1.58,0.791,2.338,1.246c0.759,0.453,1.494,0.943,2.204,1.471c0.709,0.526,1.391,1.086,2.045,1.681
		c8.968,8.161,10.007,18.843,10.696,30.16c1.771-1.024,3.559-2.015,5.367-2.971c5.304-2.777,11.12-3.482,16.862-1.51
		c0.634,0.219,1.256,0.469,1.865,0.75c0.609,0.281,1.203,0.591,1.781,0.932c0.578,0.339,1.139,0.706,1.681,1.101
		s1.064,0.816,1.563,1.262c0.501,0.446,0.979,0.916,1.433,1.41c0.455,0.494,0.883,1.009,1.285,1.546
		c0.403,0.535,0.779,1.09,1.128,1.663c0.349,0.573,0.668,1.162,0.958,1.767c2.024,4.264,2.338,9.202,0.6,13.612
		c-2.793,7.085-8.563,10.169-15.168,13.039c3.81,1.339,7.983,2.629,10.919,5.549c3.343,3.323,5.526,10.214,5.174,14.867
		c-0.025,0.325-0.064,0.648-0.116,0.971c-1.715,10.887-12.104,8.936-17.893,13.218c-3.991,2.952-1.39,11.26-6.3,15.322
		c-12,9.925-23.515-2.52-31.422-2.27c-0.305,0.009-0.603,0.1-0.903,0.15c2.129,15.077,4.544,30.395,5.37,45.608l-25.082-0.032
		c1.826-14.913,3.134-29.853,5.518-44.693c-6.707,1.856-13.435,3.709-20.462,3.486c-4.835-0.155-10.917-0.932-14.311-4.819
		c-6.407-7.331,0.83-16.91,1.353-24.62c-3.946,0.216-8.117,0.575-12.04,0.082c-6.653-0.835-13.465-4.107-17.497-9.589
		c-4.323-5.882-5.931-14.836-4.678-21.961c1.306-7.442,6.473-14.909,12.75-19.059
		C1375.886,909.553,1386.453,909.701,1398.464,911.941z"/>
	<path style="fill:#010102;" d="M1426.611,906.915c-2.245-2.076-4.098-4.017-5.872-6.512l0.589-0.737
		c0.948,1.064,2.145,2.691,3.334,3.443c4.962,3.134,6.746-3.723,10.926-4.337l0.307,0.805c-2.076,3.127-4.462,5.524-7.189,8.088
		c0.696,20.558,0.901,40.952-0.944,61.461c-0.325,3.619-0.038,7.324,0.073,10.956c1.401,0.696,1.617,0.951,3.282,0.923
		c7.273-0.125,14.99-9.261,19.796-13.992c-0.901-2.782-1.603-5.308-1.938-8.217l0.814-0.964c0.412,0.693,0.926,1.576,1.383,2.215
		c1.388,1.935,1.576,2.317,3.8,2.773c1.988-1.28,2.661-2.534,3.742-4.567c0.898-1.685,1.19-2.456,2.656-3.716l0.677,3.287
		l0.939,0.305c1.622-0.716,2.979-1.155,4.729-1.442c-0.696,2.004-3.782,3.905-5.483,5.301c-1.354,0.068-2.595,0.216-3.924,0.487
		l0.475,2.764l1.858-0.093l-1.915,0.494l-0.343,0.725c-1.555,0.507-3.246,0.816-4.421,2.006
		c-5.849,5.925-13.327,9.666-19.353,15.391c-1.074,3.034-0.71,5.268-0.273,8.413c2.129,15.077,4.544,30.395,5.37,45.608
		l-25.082-0.032c1.826-14.913,3.134-29.853,5.518-44.693l0.412-2.047c-3.578-5.774-8.975-9.737-13.007-15.109
		c-1.601-2.133-2.063-3.717-1.617-6.311c3.132,4.489,10.753,15.389,16.134,16.501c4.633-7.69-6.598-20.308-7.669-28.245l0.707,0.027
		c3.832,6.223,5.718,14.372,10.046,20.005l0.302-2.217l-0.543-0.453c0.807-1.356,0.512-0.56,0.626-2.595
		C1426.627,953.192,1431.406,925.819,1426.611,906.915z"/>
	<path style="fill:#010102;" d="M705.278,835.573l156.707-0.439l406.58,0.496l-0.414,170.355
		c35.628,10.098,71.27,9.964,107.914,8.915c12.939-0.369,25.875-1.215,38.817-0.7c-9.434,1.251-19.489,0.589-29.035,1.014
		c-39.797,1.772-78.955,2.936-117.769-7.794l-0.011,32.885l-12.218-0.045c-1.03-53.989-0.066-108.192,0-162.203l0.021-30.65
		l-536.599,1.06l0.064,258.244c-4.694,0.095-9.614-0.077-14.272,0.416L705.278,835.573z"/>
	<path style="fill:#FDB903;" d="M532.405,329.65c0.735-0.064,1.472-0.139,2.211-0.161c21.479-0.623,43.895,8.501,59.598,22.978
		c20.281,18.7,27.375,42.981,28.412,69.648l-158.158-0.177l-83.297-0.07c-0.189-11.824,0.835-22.525,6.07-33.302
		c6.254-12.878,16.771-22.507,30.406-26.999c18.024-5.938,33.261-1.761,49.766,6.479c2.734-3.851,5.524-7.642,8.634-11.201
		C491.105,339.607,509.844,331.312,532.405,329.65z"/>
	<path style="fill:#7979C7;" d="M719.272,848.468l536.599-1.06l-0.021,30.65l-535.717,0.955l0.025,228.654
		c13.234-0.03,27.479-1.089,40.586,0.468c-32.075,1.169-64.495,0.193-96.613,0.205l-183.105-0.093l-94.616-0.041
		c-15.993,0.004-33.247,1.314-49.054-0.528c11.991-0.869,24.25-0.38,36.281-0.362l61.069,0.075l185.082,0.146l53.516,0.109
		c10.523-0.002,21.286,0.423,31.76-0.518c4.658-0.493,9.578-0.321,14.272-0.416L719.272,848.468z"/>
	<path style="fill:#FEFEFE;" d="M1234.716,856.952c1.901,0.455,2.882,0.812,4.36,2.106c0.825,2.5,0.173,4.042-0.598,6.423
		c-2.279-0.402-3.318-0.7-5.056-2.251C1232.839,860.632,1233.647,859.239,1234.716,856.952z"/>
	<path style="fill:#FEFEFE;" d="M1217.612,857.033c2.47,0.459,3.562,0.56,5.354,2.479c0.552,2.606,0.266,3.275-0.53,5.861
		c-2.602-0.478-3.676-0.7-5.684-2.582C1216.337,860.138,1216.632,859.57,1217.612,857.033z"/>
	<path style="fill:#FDB903;" d="M818.451,933.48l179.237-0.091c-0.321,31.876-0.351,63.751-0.089,95.626l-178.636-0.02
		C819.044,997.155,818.873,965.317,818.451,933.48z"/>
	<path style="fill:#FEFEFE;" d="M887.555,967.35c2.65-0.037,5.329-0.112,7.978-0.021c4.437,0.154,5.609,5.297,8.288,8.265
		c0.773,0.855,1.292,1.374,1.797,2.447c0.526,1.117,0.212,0.817-0.444,2.336l-2.538-1.312l-0.805,0.444
		c-1.492,3.013-2.604,4.733-5.261,6.819c-3.105,1.074-5.87,1.762-9.131,0.974c-2.648-1.876-2.743-4.51-3.907-7.305
		c-1.067-2.558-1.565-2.484-4.033-3.645l0.079-1.117l1.137-0.326l2.45,2.515c0.007-0.009,0.02-0.016,0.021-0.027
		C883.969,973.884,884.462,969.547,887.555,967.35z"/>
	<path style="fill:#7C7BB9;" d="M874.244,1567.884l349.419,0.819l-0.05,2.017c-0.109,4.91-0.983,10.155,2.688,13.996
		c2.748,1.196,5.479,1.442,8.463,1.551c27.283,1.007,54.946-0.141,82.275-0.146c25.307-0.005,50.982,1.205,76.244,0.252
		c3.045-0.116,5.77-0.353,8.661-1.363c4.053-4.232,2.906-10.617,2.806-16.052c115.146,0.745,230.294,0.885,345.443,0.419
		c-0.144,5.161-0.507,9.72-1.727,14.765c-1.478,3.544-3.036,6.76-5.572,9.686c-7.523,8.681-18.916,11.79-29.967,12.422
		c-17.172,0.983-34.802,0.211-52.011,0.193l-96.365-0.055l-304.753,0.027l-235.722,0.109l-71.549,0.12
		c-13.407,0.027-27.236,0.726-40.579-0.437c-10.51-0.916-18.216-3.816-26.053-11.165
		C877.669,1587.323,874.658,1578.826,874.244,1567.884z"/>
	<path style="fill:#7C7BB9;" d="M138.157,1307.2c1.202,28.837,0.296,58.033,0.272,86.901l-0.153,158.972l418.777-0.005
		l149.419,0.207c26.219,0.052,53.455,1.613,79.582-0.068c16.767-0.07,33.533-0.02,50.298,0.152
		c-0.109,12.834,3.462,32.828-5.017,43.315c-2.971,3.675-7.794,7.114-12.584,7.594c-1.929,0.193-3.862,0.411-5.793,0.569
		c-13.069,1.069-26.449,0.478-39.562,0.475l-66.477-0.018l-210.96,0.064l-257.864-0.002l-86.277,0.168
		c-15.911,0.034-32.091,0.707-47.963-0.275c-7.229-0.446-12.888-2.129-18.491-7.071c-0.653-0.576-1.275-1.183-1.866-1.822
		c-0.591-0.638-1.148-1.305-1.671-2.001c-0.523-0.696-1.009-1.417-1.458-2.161c-0.449-0.746-0.859-1.512-1.23-2.299
		c-0.371-0.788-0.701-1.592-0.989-2.413c-0.289-0.821-0.535-1.654-0.739-2.5c-0.204-0.846-0.364-1.7-0.48-2.563
		c-0.116-0.863-0.189-1.729-0.217-2.599c-0.021-0.855,0.002-1.71,0.067-2.563c0.066-0.853,0.174-1.701,0.326-2.543
		c0.151-0.842,0.345-1.675,0.58-2.497c0.236-0.822,0.512-1.631,0.83-2.425c0.317-0.795,0.674-1.572,1.07-2.331
		c0.396-0.758,0.829-1.494,1.3-2.21c0.471-0.715,0.976-1.404,1.516-2.067c0.54-0.664,1.113-1.299,1.717-1.904
		c2.765-2.823,6.712-5.65,10.545-6.748c11.365-3.254,30.551-1.171,42.784-1.235l0.404-157.22
		C137.845,1366.636,136.454,1336.585,138.157,1307.2z"/>
	<path style="fill:#FEFEFE;" d="M819.996,1566.976c2.067-0.25,3.853-0.13,5.915,0.041c1.629,0.862,2.406,1.405,3.478,2.97
		c1.456,2.127,1.581,4.547,1.108,7.007c-0.801,4.16-2.17,5.615-5.616,7.805c-2.334-0.469-4.537-1.071-6.37-2.686
		c-2.115-1.867-3.562-4.131-3.528-7.057C815.028,1571.137,817.252,1569.271,819.996,1566.976z"/>
	<path style="fill:#FEFEFE;" d="M379.17,1560.717c55.879-0.309,111.757-0.315,167.635-0.016c0.095,7.771-0.303,12.623-4.221,19.45
		c-4.405,4.253-6.748,5.345-12.896,5.47c-29.266,0.6-58.631,0.159-87.904,0.146c-15.996-0.005-33.743,1.449-49.552-0.721
		c-2.964-0.409-4.911-1.728-6.958-3.83C379.891,1575.69,379.275,1568.002,379.17,1560.717z"/>
	<path style="fill:#010102;" d="M1580.43,334.146l1.039,0.089c4.123,5.941,7.219,12.768,10.401,19.255
		c1.171,2.417,2.303,4.851,3.396,7.305c1.093,2.453,2.148,4.923,3.163,7.41c1.014,2.487,1.988,4.989,2.923,7.507
		c0.934,2.518,1.828,5.049,2.682,7.596c0.854,2.546,1.667,5.105,2.44,7.678c0.772,2.572,1.503,5.156,2.192,7.751
		c0.69,2.595,1.339,5.201,1.945,7.817c0.607,2.616,1.172,5.242,1.696,7.876c0.522,2.634,1.003,5.276,1.442,7.926
		c0.438,2.65,0.834,5.305,1.189,7.967c0.353,2.663,0.664,5.33,0.933,8.003c0.269,2.672,0.495,5.348,0.678,8.026
		c0.185,2.679,0.326,5.361,0.423,8.045c0.098,2.684,0.153,5.369,0.166,8.054c0.012,2.685-0.019,5.37-0.093,8.054
		c-0.073,2.686-0.188,5.368-0.348,8.049c-0.782,14.526-3.691,28.302-5.734,42.628c12.343-0.045,27.849-1.738,38.139,6.502
		c6.712,5.375,10.366,13.503,11.126,21.945c1.412,15.646,0.375,32.292,0.364,48.021l-0.129,94.098l-0.048,92.212
		c-0.011,16.155,1.008,33.188-0.577,49.261c-0.489,4.945-2.04,8.538-5.322,12.3c-4.788,5.484-12.125,6.312-19.053,6.673
		c-30.563,1.594-61.815-0.146-92.453-0.014c-17.565,0.075-49.956,2.14-65.279-0.154c-4.863-0.728-9.762-2.72-13.358-6.138
		c-6.776-6.439-6.968-14.101-7.035-22.791c-0.398-93.308-6.302-187.286-1.819-280.5c-20.51,4.658-38.864,12.3-58.338,19.819
		c18.34-10.153,37.962-16.146,58.313-20.936c1.997-4.74,4.424-9.052,8.172-12.648c0.933-0.888,1.923-1.706,2.97-2.456
		c1.047-0.75,2.141-1.422,3.282-2.018c1.141-0.597,2.318-1.111,3.532-1.542c1.214-0.432,2.451-0.777,3.712-1.035
		c14.39-2.811,31.47-1.099,46.161-1.048l86.076,0.339C1624.243,455.839,1613.108,392.238,1580.43,334.146z"/>
	<path style="fill:#FEFEFE;" d="M1557.934,826.305c6.748,1.695,13.653,5.193,20.146,7.778c-6.421,2.724-12.611,6.275-18.807,9.486
		c-6.139-0.628-14.717-6.336-20.563-8.991C1545.19,832.054,1551.55,829.074,1557.934,826.305z"/>
	<path style="fill:#7979C7;" d="M1602.118,531.482c13.748-0.039,28.918-2.01,39.667,8.402c4.367,4.23,5.334,10.001,5.972,15.868
		c1.123,10.348,0.448,21.193,0.436,31.607l-0.07,56.47l0.353,168.945c-0.007,2.643-0.113,4.981-0.666,7.574
		c-2.602,0.546-4.783,0.569-7.433,0.419c-51.398-0.061-102.942,0.639-154.318-0.612l-17.97-0.043
		c0.265-61.703,0.184-123.406-0.245-185.109l-0.273-50.195c-0.116-10.044-0.987-20.726,0.137-30.684
		c0.719-6.379,1.788-10.446,6.443-15.043c9.878-9.759,26.606-7.135,39.349-6.75c0.102,5.408-0.696,12.45,3.709,16.43
		c3.753,3.391,71.713,1.947,80.729,1.61C1600.185,544.168,1601.624,538.087,1602.118,531.482z"/>
	<path style="fill:#FDB903;" d="M1486.059,820.155c7.655-23.329,20.419-43.73,43.045-54.99c17.781-8.849,38.071-10.597,56.905-4.156
		c20.929,7.157,38.382,24.44,47.891,44.189c2.44,5.067,4.487,10.316,6.477,15.57
		C1588.979,820.707,1537.435,821.406,1486.059,820.155z"/>
	<path style="fill:#FDB903;" d="M1556.946,619.616c12.803-0.298,23.872,1.419,34.73,8.99c0.702,0.483,1.391,0.983,2.068,1.501
		c0.677,0.518,1.34,1.051,1.99,1.601c0.651,0.55,1.287,1.116,1.91,1.699c0.622,0.582,1.23,1.178,1.822,1.79
		c0.592,0.612,1.169,1.238,1.731,1.879c0.562,0.64,1.107,1.295,1.635,1.963c0.529,0.668,1.042,1.348,1.536,2.042
		c0.495,0.693,0.973,1.397,1.433,2.115c0.46,0.716,0.902,1.444,1.326,2.185c0.423,0.739,0.829,1.488,1.215,2.247
		s0.754,1.527,1.103,2.304c0.349,0.777,0.678,1.562,0.987,2.356c0.309,0.794,0.599,1.595,0.869,2.404
		c0.27,0.808,0.52,1.622,0.75,2.441c0.228,0.821,0.437,1.647,0.625,2.477c0.189,0.832,0.357,1.667,0.503,2.506
		c0.143,0.851,0.264,1.705,0.364,2.563c0.1,0.858,0.178,1.717,0.234,2.579c0.057,0.861,0.092,1.724,0.105,2.586
		c0.012,0.863,0.003,1.726-0.027,2.59c-0.031,0.863-0.084,1.723-0.159,2.582c-0.074,0.86-0.169,1.718-0.287,2.574
		c-0.117,0.855-0.255,1.707-0.416,2.556c-0.161,0.847-0.343,1.691-0.546,2.531c-0.203,0.839-0.428,1.672-0.673,2.498
		c-0.245,0.828-0.511,1.649-0.798,2.463c-0.287,0.815-0.594,1.622-0.921,2.42c-0.327,0.798-0.674,1.588-1.042,2.37
		c-0.366,0.781-0.753,1.552-1.16,2.313c-0.406,0.763-0.831,1.514-1.274,2.254c-0.445,0.74-0.908,1.468-1.388,2.184
		c-0.481,0.717-0.979,1.422-1.496,2.113c-9.013,11.874-22.341,18.181-36.788,20.39c-13.135,0.505-24.411-1.619-35.378-9.314
		c-11.531-8.092-18.443-20.212-20.622-33.974c-0.133-0.861-0.245-1.725-0.335-2.591c-0.09-0.867-0.159-1.737-0.207-2.607
		c-0.046-0.87-0.071-1.741-0.075-2.613c-0.002-0.871,0.017-1.742,0.057-2.613c0.04-0.871,0.102-1.74,0.186-2.607
		c0.084-0.867,0.19-1.732,0.318-2.595c0.127-0.861,0.276-1.72,0.446-2.575c0.17-0.854,0.362-1.704,0.575-2.55
		c0.213-0.845,0.447-1.684,0.703-2.517c0.255-0.834,0.53-1.661,0.826-2.481c0.296-0.82,0.613-1.631,0.951-2.434
		c0.337-0.804,0.694-1.599,1.071-2.384c0.376-0.786,0.772-1.563,1.189-2.329c0.415-0.765,0.85-1.52,1.305-2.265
		c0.453-0.744,0.925-1.476,1.415-2.197c0.49-0.721,0.998-1.429,1.524-2.124C1529.964,627.031,1542.399,621.393,1556.946,619.616z"/>
	<path style="fill:#FEFEFE;" d="M1557.063,635.553c8.083-0.523,15.498,0.293,22.537,4.589c8.274,5.049,13.994,13.705,16.032,23.121
		c0.138,0.616,0.261,1.236,0.368,1.858c0.106,0.622,0.196,1.247,0.27,1.874c0.075,0.626,0.133,1.254,0.175,1.885
		c0.042,0.629,0.067,1.26,0.077,1.892c0.01,0.631,0.003,1.261-0.02,1.892c-0.024,0.632-0.064,1.262-0.12,1.89
		c-0.055,0.629-0.126,1.256-0.214,1.881c-0.088,0.626-0.192,1.248-0.312,1.867c-0.12,0.62-0.256,1.236-0.407,1.849
		c-0.151,0.613-0.318,1.221-0.501,1.826c-0.183,0.604-0.382,1.204-0.596,1.797c-0.214,0.594-0.443,1.182-0.687,1.765
		c-0.244,0.582-0.503,1.157-0.776,1.726c-0.274,0.569-0.562,1.13-0.866,1.685c-0.302,0.553-0.619,1.099-0.949,1.636
		s-0.675,1.067-1.033,1.587c-5.793,8.235-13.81,12.605-23.529,14.438c-7.763,0.337-14.833-0.735-21.645-4.674
		c-0.54-0.318-1.072-0.649-1.594-0.994c-0.524-0.344-1.038-0.701-1.542-1.073c-0.504-0.371-0.999-0.754-1.485-1.149
		c-0.485-0.396-0.961-0.804-1.426-1.224c-0.465-0.42-0.919-0.851-1.362-1.294c-0.443-0.443-0.874-0.896-1.294-1.36
		c-0.42-0.465-0.828-0.94-1.224-1.426c-0.396-0.485-0.779-0.98-1.149-1.485c-0.371-0.505-0.729-1.018-1.074-1.54
		c-0.345-0.523-0.676-1.055-0.994-1.594c-0.318-0.54-0.622-1.087-0.912-1.642c-0.29-0.556-0.566-1.118-0.828-1.687
		c-0.263-0.569-0.51-1.144-0.742-1.726c-0.233-0.581-0.451-1.167-0.653-1.76c-0.203-0.593-0.392-1.19-0.564-1.792
		c-0.174-0.602-0.331-1.208-0.473-1.819c-0.135-0.578-0.255-1.159-0.361-1.742c-0.105-0.584-0.195-1.17-0.271-1.758
		c-0.076-0.588-0.138-1.177-0.184-1.769c-0.047-0.591-0.08-1.184-0.096-1.778c-0.017-0.593-0.019-1.185-0.007-1.778
		c0.013-0.594,0.041-1.186,0.084-1.778c0.042-0.591,0.098-1.182,0.17-1.77c0.073-0.589,0.159-1.176,0.259-1.76
		c0.101-0.584,0.217-1.166,0.348-1.746c0.13-0.578,0.274-1.153,0.434-1.724c0.158-0.572,0.331-1.14,0.519-1.703
		c0.187-0.563,0.388-1.12,0.603-1.672c0.215-0.553,0.444-1.101,0.687-1.642c0.242-0.541,0.497-1.076,0.767-1.604
		c0.269-0.528,0.551-1.049,0.846-1.563c0.296-0.515,0.604-1.022,0.924-1.521C1538.108,642.114,1546.792,637.522,1557.063,635.553z"
		/>
	<path style="fill:#0C0A0E;" d="M1562.367,654.696c1.408,0.778,1.092,0.464,1.993,1.335c2.37,2.293,11.296,7.78,12.149,10.157
		l-0.541-1.012c-0.294,2.227-0.644,4.446-1.051,6.657c-0.819,4.415-1.31,8.013-5.197,10.692c-2.24,0.312-3.462,0.171-5.611-0.532
		c-3.296-0.835-6.525-0.327-9.884-0.946c-2.666-2.593-5.274-8.568-5.174-12.343c0.153-5.875,8.581-8.891,12.47-13.078
		C1561.807,655.319,1562.085,655.006,1562.367,654.696z"/>
	<path style="fill:#010102;" d="M333.109,1107.603c-27.265-17.119-61.229-40.329-78.67-67.795
		c22.103,24.238,51.715,53.527,82.03,67.478c0.293,0.134,0.591,0.262,0.885,0.393c15.807,1.842,33.062,0.532,49.054,0.528
		l94.616,0.041l183.105,0.093c32.117-0.013,64.538,0.964,96.613-0.205c6.939,0.259,14.551,1.615,19.594,6.878
		c3.562,3.716,4.173,8.031,4.663,12.978c0.987,9.944,0.485,20.226,0.503,30.219l0.194,50.869l0.166,171.442
		c49.297-0.02,98.91-1.233,148.169,0.2c0.122,14.768,0.151,29.536,0.086,44.303l-0.07,37.739
		c-49.316,0.386-98.633,0.498-147.95,0.337l-0.046,90.106c-26.126,1.681-53.362,0.12-79.582,0.068l-149.419-0.207l-418.777,0.005
		l0.153-158.972c0.024-28.867,0.93-58.063-0.272-86.901l0.012-116.953c-0.036-19.641-1.517-40.564,0.249-60.077
		c0.401-4.43,1.221-11.306,4.04-14.807c2.743-3.407,8.342-6.25,12.603-6.966c16.071-2.698,40.195-0.864,57.312-0.846
		L333.109,1107.603z"/>
	<path style="fill:#7C7BB9;" d="M171.292,1142.533c45.094-0.537,90.245-0.086,135.344-0.125c29.399-0.025,59.389-1.205,88.717,0.526
		c-25.477,1.658-51.771,0.321-77.327,0.237c0.318,11.264,0.432,22.53,0.343,33.799l-96.82,0.078
		c-16.569,0.016-33.618-0.805-50.121,0.248L171.292,1142.533z"/>
	<path style="fill:#F3F3F1;" d="M224.023,1153.23c0.949,0.343,2.665,0.814,3.523,1.446c2.136,1.576,2.256,2.448,2.777,4.874
		c-0.885,3.005-2.061,3.971-4.517,5.843c-0.835-0.33-2.188-0.828-2.916-1.298c-2.068-1.328-2.341-2.279-2.982-4.472
		C220.521,1156.657,221.999,1155.311,224.023,1153.23z"/>
	<path style="fill:#AAA2D3;" d="M786.159,1425.128c49.243-0.393,98.765,1.497,147.961-0.104l-0.07,37.739
		c-49.316,0.386-98.633,0.498-147.95,0.337L786.159,1425.128z"/>
	<path style="fill:#FEFEFE;" d="M349.128,1197.903c25.444,16.159,53.309,29.169,80.058,43.004
		c-12.593,24.722-26.137,49.433-39.619,73.697c-25.596-13.99-54.64-31.025-80.992-42.701
		C322.618,1247.55,334.444,1221.877,349.128,1197.903z"/>
	<path style="fill:#FDB903;" d="M353.379,1273.353c-3.776-1.465-7.837-3.7-10.987-6.247c-0.607-0.484-1.187-0.998-1.742-1.542
		c-0.555-0.544-1.079-1.114-1.574-1.712c-0.495-0.598-0.958-1.221-1.389-1.867c-0.431-0.646-0.827-1.313-1.189-1.999
		c-0.363-0.687-0.689-1.39-0.978-2.111c-0.289-0.72-0.54-1.453-0.753-2.201c-0.214-0.746-0.388-1.502-0.523-2.267
		c-0.136-0.764-0.231-1.533-0.287-2.307c-0.657-8.438,2.877-17.017,8.517-23.19c5.022-5.495,12.009-9.629,19.623-9.594
		c9.421,0.043,20.242,6.602,26.926,12.959c-11.577,1.315-22.441,4.715-30.14,14.053c-4.883,5.922-7.728,14.092-6.732,21.795
		C352.423,1269.216,352.908,1271.297,353.379,1273.353z"/>
	<path style="fill:#0C0A0E;" d="M389.024,1231.275c4.819,3.13,6.955,5.279,8.315,10.99c1.963,8.236-0.712,17.424-5.324,24.334
		c-3.98,5.964-9.918,10.512-17.074,11.774c-7.953,1.405-14.818-0.964-21.561-5.02c-0.471-2.056-0.957-4.137-1.228-6.23
		c-0.996-7.703,1.849-15.873,6.732-21.795C366.583,1235.99,377.446,1232.591,389.024,1231.275z"/>
	<path style="fill:#7979C7;" d="M395.354,1142.934l356.367,0.025c0.023,11.133,0.257,22.327-0.08,33.452l-433.272,0.559
		c0.089-11.269-0.025-22.535-0.343-33.799C343.583,1143.256,369.877,1144.592,395.354,1142.934z"/>
	<path style="fill:#FEFEFE;" d="M427.63,1251.392c13.133,6.395,25.91,13.436,38.33,21.124c2.677,2.06,6.684,4.694,7.162,8.349
		c0.036,0.264-0.005,0.532-0.007,0.8c25.195-1.037,60.439,20.019,82.771,32.357c-25.582,40.582-47.494,83.993-71.251,125.705
		c-8.188,14.379-15.862,31.339-26.258,44.232c-6.921-2.872-13.542-6.159-20.205-9.586c-7.919-5.522-51.601-28.428-60.38-30.461
		c5.483-6.082,75.857-126.938,79.027-137.154c0.43-1.39,0.762-1.565,0.073-2.836c-6.361,6.587-11.256,17.044-15.946,24.932
		c-13.395,22.779-26.438,45.757-39.13,68.936c-7.708,13.86-15.042,30.543-25.6,42.362c-0.25,0.278-0.507,0.552-0.76,0.828
		c-21.934-11.602-43.445-24.224-65.27-36.072c-16.319-8.859-43.052-20.983-56.709-32.689c5.181-13.871,14.078-27.283,21.397-40.19
		l32.2-57.323c8.475,3.7,16.646,8.602,24.841,12.901c19.904,10.392,39.621,21.127,59.15,32.205
		C403.933,1297.425,415.285,1274.089,427.63,1251.392z"/>
	<path style="fill:#F3F3F1;" d="M465.96,1272.516c2.677,2.06,6.684,4.694,7.162,8.349c0.036,0.264-0.005,0.532-0.007,0.8
		l-2.497,3.999c-2.872,1.274-5.213,0.35-8.277-0.114C463.374,1281.125,464.39,1276.792,465.96,1272.516z"/>
	<path style="fill:#FEFEFE;" d="M318.369,1176.97l433.272-0.559l-0.739,350.872c-25.989-0.034-52.21-0.768-78.17,0.121
		c-17.965,0.573-35.949-0.76-53.916,0.168c-33.804,0.396-67.66-0.55-101.476-0.557l-214.239,0.639
		c18.313-28.013,38.02-55.32,57.487-82.546l9.066,4.719c0.066-0.052,0.145-0.093,0.198-0.157c2.652-3.121,4.133-4.235,7.94-5.759
		c8.779,2.033,52.461,24.939,60.38,30.461c-3.055,1.512-4.811,6.104-6.419,9.029c6.623,3.509,12.768,7.924,19.412,11.413
		c4.694,2.463,9.045,3.919,14.222,2.336c8.74-8.368,15.07-24.076,21.145-34.573c18.33-31.563,36.328-63.314,53.993-95.253
		c6.6-11.834,14.138-23.36,20.242-35.435c1.494-2.957,3.257-6.561,3.527-9.905c0.209-2.563-0.801-4.471-2.399-6.391
		c-7.449-8.956-54.817-30.029-67.342-33.92c-6.484-2.015-12.604-2.772-19.343-3.262c-0.121-0.216-0.237-0.436-0.366-0.648
		c-0.212-0.35-0.441-0.689-0.655-1.039c-6.8-11.108-33.345-22.271-45.51-28.018l4.401-8.922
		c-18.493-10.542-37.495-20.185-56.295-30.165c-9.9-5.254-19.491-11.176-29.549-16.1c-10.292,17.635-19.544,35.924-29.316,53.855
		l-38.905,69.991c-9.241,16.767-22.723,35.553-30.227,52.579c-1.381,3.132-2.201,7.524-1.112,10.873
		c0.982,3.014,2.784,4.435,5.222,6.266c8.938,6.716,20.429,11.761,30.295,17.137l70.815,37.957
		c-20.733,28.163-39.574,57.828-60.924,85.523l-120.89-0.005l-0.767-350.397c16.503-1.053,33.552-0.232,50.121-0.248
		L318.369,1176.97z"/>
	<path style="fill:#F3F3F1;" d="M249.219,1449.867c1.961,1.852,1.451,3.344,1.694,5.957l1.408,0.714
		c0.973-1.538,0.923-4.419,1.513-6.329l1.364,0.319c0.714,1.21,0.957,1.854,1.131,3.295c0.05,0.418,0.071,0.839,0.109,1.256
		c2.263,1.246,4.399,2.233,6.005,4.332l-0.453,0.994l-5.417,1.226l-3.113,2.911c-3.896,0.737-5.052-4.042-11.431-5.366l-0.046-1.906
		c2.236-2.575,3.594,0.077,6.106-1.531C248.066,1453.426,248.362,1452.012,249.219,1449.867z"/>
	<path style="fill:#F3F3F1;" d="M242.632,1425.788c1.954,1.703,4.283,4.574,5.666,6.809c1.115,1.804,1.483,2.702,0.894,4.795
		c-1.451,0.912-2.415,1.133-4.087,1.255c-0.294,0.021-1.644,0.078-1.954,0.164c-0.514,0.139-0.996,0.373-1.494,0.559
		c-2.481,0.139-5.37,0.569-7.763-0.227c-1.624-0.542-0.996-0.175-1.956-1.92C233.813,1432.887,239.18,1429.015,242.632,1425.788z"/>
	<path style="fill:#F3F3F1;" d="M218.74,1467.181c1.237,0.682,0.814,0.296,1.697,1.388c2.807,3.462,5.939,5.922,9.143,8.945
		c-4.133,0.257-4.503,0.075-7.512,2.839c-1.312,0.316-0.96,0.266-2.306,0.45c-3.996,0.546-6.643,0.903-9.96-1.626
		c-0.311-1.481-0.587-1.904-0.089-3.425C211.339,1470.802,214.494,1469.486,218.74,1467.181z"/>
	<path style="fill:#F5DCA7;" d="M555.938,1396.144c1.62,0.203,6.832,2.925,7.44,2.786c0.748-0.168,0.705-1.745,2.488-2.113
		c0.892,0.858,2.236,1.956,2.834,3.027c1.315,2.356,0.882,3.487,0.41,5.979c-2.027,2.202-3.509,1.783-6.419,2.099
		c-0.675,1.326-1.446,2.395-2.365,3.564c-0.98-0.318-0.903-0.266-2.008-0.783c-3.589-1.679-5.982-4.285-7.18-8.069
		c1.419-0.625,2.759-1.301,4.114-2.054L555.938,1396.144z"/>
	<path style="fill:#F5DCA7;" d="M504.244,1482.49c0.295,0.102,0.596,0.182,0.883,0.303c3.759,1.588,7.969,4.631,9.247,8.641
		c0.394,1.237,0.528,1.189-0.075,2.188c-1.151,1.91-3.278,3.168-5.384,3.712c-1.155,0.61-2.165,0.933-3.409,1.306
		c-2.861-1.076-5.006-1.997-7.358-3.971c-0.825-2.308-0.803-2.229,0.095-4.515c2.893-2.076,4.621-3.412,5.766-6.88
		C504.094,1483.016,504.165,1482.752,504.244,1482.49z"/>
	<path style="fill:#F3F3F1;" d="M671.616,1212.183c2.056,0.384,2.243,0.434,3.73,1.892c0.969,3.718-0.237,7.68-0.917,11.392
		c2.035,0.129,4.146-0.109,6.159,0.18c2.122,0.303,3.316,0.944,4.678,2.532c-0.887,1.674-1.04,1.786-2.823,2.336
		c-2.638,0.816-5.634-0.134-7.978-1.335c0.063,4.458,0.305,8.563-1.273,12.807l-0.883-0.18c-0.462-1.158-0.876-2.243-1.148-3.464
		C669.843,1232.368,668.497,1217.326,671.616,1212.183z"/>
	<path style="fill:#F3F3F1;" d="M623.412,1272.218l-1.469-0.992c-3.052,0.214-5.838,0.491-8.845-0.168l-0.673-0.91
		c2.372-3.746,5.931-6.846,8.743-10.298l-0.136,1.421l0.799-1.954c3.709,2.879,6.944,5.761,8.47,10.343
		c-0.973,1.62-1.663,2.329-3.582,2.982c-0.56,0.191-1.158,0.243-1.737,0.364l1.26,1.808c-0.161,2.44-0.55,2.284-2.099,4.017
		c-2.359,0.612-2.309,0.553-4.515-0.512c-1.115-1.992-1.267-2.149-1.039-4.398C620.535,1272.134,620.729,1272.347,623.412,1272.218z
		"/>
	<path style="fill:#F3F3F1;" d="M592.42,1205.713c4.69,1.654,2.925,5.465,5.966,7.076c3.255,1.724,4.831-0.589,8.022,2.718
		l-0.179,1.951c-3.33,2.12-6.566,0.462-9.502,2.306l0.907,6.532c-1.415,1.71-1.694,2.336-3.768,3.018
		c-2.297-2.449-2.338-6.618-3.771-9.764c-1.904-0.598-3.263-0.857-4.567-2.436C587.316,1211.895,590.866,1216.032,592.42,1205.713z"
		/>
	<path style="fill:#FDB903;" d="M232.389,1255.24c2.941,2.895,3.819,7.273,4.993,11.104c3.593,0.837,7.109,2.033,10.63,3.132
		c-2.984,3.054-6.371,5.649-9.686,8.329c0.065,3.916,0.169,7.831,0.311,11.745c-3.428-2.131-6.569-4.817-9.748-7.305
		c-1.501-0.048-0.687-0.15-2.499,0.571c-1.824,0.723-3.577,1.228-5.476,1.721l-1.315-0.86c-0.02-2.938,1.574-5.97,2.661-8.682
		c-1.783-2.682-5.243-6.275-5.113-9.421c2.583-1.278,5.383-0.605,8.147-0.319L232.389,1255.24z"/>
	<path style="fill:#FDB903;" d="M537.336,1200.711c2.943,2.92,4.872,8.081,6.712,11.8c5.174,1.178,8.904,3.1,13.432,5.752
		l-12.632,7.605c-0.387,3.029-0.567,6.05-1.87,8.85c-2.599,1.012-3.801,0.109-6.411-0.707l-5.422,2.802l-1.415-0.457
		c-0.666-3.323-0.275-6.782-0.102-10.15c-4.312-3.17-8.754-6.064-13.259-8.948c4.308-1.265,8.659-2.288,13.027-3.316
		C532.154,1209.598,534.8,1205.188,537.336,1200.711z"/>
	<path style="fill:#0C0A0E;" d="M369.654,1449.828c0.066-0.052,0.145-0.093,0.198-0.157c2.652-3.121,4.133-4.235,7.94-5.759
		c8.779,2.033,52.461,24.939,60.38,30.461c-3.055,1.512-4.811,6.104-6.419,9.029c-7.189-2.679-14.772-7.729-21.565-11.402
		C396.66,1464.682,382.931,1457.589,369.654,1449.828z"/>
	<path style="fill:#25165D;" d="M654.633,1437.207c15.095-15.193,31.603-18.791,52.12-22.601
		c-4.046,12.914-8.665,23.572-16.469,34.621c-10.789,9.4-22.86,15.779-37.657,15.024c-2.911-0.15-5.234-0.605-7.346-2.591
		l-0.607-3.038C647.075,1450.552,649.784,1444.113,654.633,1437.207z"/>
	<path style="fill:#7C7BB9;" d="M637.779,1434.201c-9.846-32.812-19.84-61.205-2.49-93.504c5.072-9.439,11.693-18.07,18.72-26.137
		c15.131,22.742,24.518,53.711,19.18,81.011c-2.779,14.215-10.191,29.962-21.065,39.751c-3.957-0.719-8.281-0.355-12.298-0.319
		L637.779,1434.201z"/>
	<path style="fill:#F3F3F1;" d="M648.414,1371.003c1.542,0.409,2.058,0.623,3.316,1.462c2.729,5.766,1.283,14.308,0.964,20.522
		c3.091-0.107,9.097-0.849,11.579,1.187c-3.655,1.297-7.331,1.065-11.16,1.074l-2.22,15.35l-0.837,1.733l-1.01-0.464
		c-1.38-5.286-1.262-10.872-1.435-16.305c-3.102,0.046-7.96,0.621-10.4-1.437c3.23-1.478,6.671-1.189,10.151-1.205
		C647.211,1386.832,645.649,1376.405,648.414,1371.003z"/>
	<path style="fill:#25165D;" d="M588.209,1411.516c8.004,0.764,15.413,1.924,22.728,5.49c16.039,7.819,22.348,22.653,27.777,38.485
		c0.027-7.155-0.337-14.161-0.935-21.29l2.047,0.801c4.017-0.036,8.342-0.4,12.298,0.319l2.509,1.885
		c-4.849,6.907-7.558,13.346-9.959,21.414l0.607,3.038c2.111,1.986,4.435,2.441,7.346,2.591
		c14.797,0.755,26.869-5.624,37.657-15.024c-3.039,10.407-5.427,22.064-11.481,31.179c9.418-2.234,18.916-4.074,28.582-4.79
		c-8.236,23.726-15.059,35.448-34.654,51.79c-17.965,0.573-35.949-0.76-53.916,0.168c-6.277-4.146-12.279-8.42-17.604-13.769
		c-16.51-16.585-21.938-38.177-22.011-60.999c8.738,3.683,16.066,8.715,23.597,14.424c2.44-2.226,4.844-3.946,7.685-5.624
		c-2.822-1.697-5.559-3.602-7.965-5.859C590.627,1444.588,588.712,1426.878,588.209,1411.516z"/>
	<path style="fill:#FDB903;" d="M610.483,1461.605c9.816,3.264,18.325,3.298,28.471,2.236c-0.082,17.776,0.218,35.653-0.366,53.414
		c-10.692-21.19-18.761-33.144-35.79-50.027C605.238,1465.003,607.642,1463.283,610.483,1461.605z"/>
	<path style="fill:#FDB903;" d="M639.826,1435.002c4.017-0.036,8.342-0.4,12.298,0.319l2.509,1.885
		c-4.849,6.907-7.558,13.346-9.959,21.414l0.607,3.038c2.111,1.986,4.435,2.441,7.346,2.591
		c14.797,0.755,26.869-5.624,37.657-15.024c-3.039,10.407-5.427,22.064-11.481,31.179c-20.01,11.808-28.884,20.844-38.831,41.65
		c0.566-19.61,0.77-39.224,0.61-58.842C639.913,1453.858,640.509,1444.417,639.826,1435.002z"/>
	<path style="fill:#010102;" d="M954.797,1044.21l0.384-0.027c17.949-1.11,36.211-0.277,54.194-0.241l96.099,0.102l276.53,0.618
		l194.864,0.184l55.34-0.002c10.171-0.032,20.64-0.569,30.775,0.089c5.299,0.345,10.109,2.32,14.006,5.995
		c3.796,3.58,6.609,9.009,7.326,14.188c2.183,15.755,0.737,33.561,0.803,49.574l0.239,100.057l0.205,348.686l-15.531-0.036
		l-730.597-0.227l0.153-340.624c0.03-22.173-1.942-157.193,1.969-167.037C944.015,1049.318,948.959,1046.693,954.797,1044.21z"/>
	<path style="fill:#FEFEFE;" d="M1311.683,1539.113c3.211,0.78,6.061,1.538,8.165,4.294c1.301,1.706,1.549,4.071,0.887,6.07
		c-0.919,2.772-3.4,4.226-5.729,5.675c-2.793-0.063-5.688-0.455-7.776-2.52c-1.658-1.638-2.284-3.85-1.906-6.127
		C1305.978,1542.586,1308.594,1541.012,1311.683,1539.113z"/>
	<path style="fill:#FEFEFE;" d="M1040.393,1073.051l615.249-0.369l0.191,460.61l-71.169,0.114l-616.46-0.366l-0.912-323.389
		l-0.134-78.971c-0.162-18.313-1.985-37.58,1.003-55.697C972.14,1071.809,1030.313,1073.072,1040.393,1073.051z"/>
	<path style="fill:#33226C;" d="M1343.772,1290.201c6.739-1.383,15.022-1.156,21.836-0.225c-2.523,2.861-4.856,4.94-8.781,5.386
		C1351.889,1295.922,1347.443,1293.17,1343.772,1290.201z"/>
	<path style="fill:#B9B7AD;" d="M1402.075,1485.317c2.297-0.063,4.642-0.186,6.937-0.096c2.222,0.088,3.021,0.325,4.562,1.897
		l-0.255,1.994c-0.685,0.485-1.278,1.144-2.058,1.455c-5.222,2.081-51.783,0.701-61.358,0.718c-2.001,0.091-4.114,0.259-6.109,0.052
		c-2.283-0.236-3.823-1.717-5.297-3.332c0.178-0.186,1.804-1.888,1.988-2.051
		C1341.193,1485.315,1396.256,1485.333,1402.075,1485.317z"/>
	<path style="fill:#F5DCA7;" d="M1348.725,1323.327l5.618-0.648l-0.012,2.525c-0.628,14.19-0.073,28.532,0.02,42.74
		c0.107,16.45-0.178,32.992,0.352,49.429c0.036,15.457,0.159,30.912,0.371,46.366l-4.565-0.214l-1.112,0.293l-1.008-0.832
		c-0.863-21.796-1.141-43.599-0.835-65.409c-0.325-9.946-1.67-68.19,0.12-74.54L1348.725,1323.327z"/>
	<path style="fill:#F3F3F1;" d="M1348.725,1323.327l5.618-0.648l-0.012,2.525c-0.628,14.19-0.073,28.532,0.02,42.74
		c0.107,16.45-0.178,32.992,0.352,49.429c0.036,15.457,0.159,30.912,0.371,46.366l-4.565-0.214
		c3.473-6.578,0.864-22.644,0.466-30.024C1352.749,1416.932,1352.212,1338.115,1348.725,1323.327z"/>
	<path style="fill:#33226C;" d="M1073.386,1269.718c1.008,15.057-1.381,125.202,0.958,127.895l0.194-0.105
		c24.44,0.18,48.883,0.766,73.321,0.751c-1.123,8.21-7.728,38.141-5.674,43.472l2.404,1.089c-8.595,4.096-57.5,1.733-71.19,2.477
		c-0.011,6.412,0.278,12.985-0.132,19.375c-1.531-9.245-0.614-20.123-0.628-29.521l-0.011-61.112l0.057-69.153
		C1072.694,1293.681,1071.47,1280.724,1073.386,1269.718z"/>
	<path style="fill:#010102;" d="M1260.403,1265.397c1.033-20.59-1.828-147.072,1.929-151.894c5.463-1.758,10.639-2.459,16.362-2.65
		c18.98-0.628,38.139-0.13,57.135-0.123l102.638-0.005h48.906c6.568,0.002,14.792-0.905,21.222,0.229
		c2.724,0.478,3.634,1.995,5.156,4.071c-1.055,49.775,1.554,101.234-0.776,150.7c-1.156-11.588,0.758-30.26-1.876-40.363
		c-0.675-25.241-0.121-50.589-0.063-75.843c0.027-11.845,0.593-24.043-0.396-35.842c-44.976-0.819-90.094,0.07-135.086,0.141
		c-32.972,0.054-66.335-1.06-99.27,0.196c-3.414,0.13-7.376,0.096-10.428,1.726c-3.061,3.045-2.34,9.596-2.358,13.666
		c-0.128,32.253,1.228,64.852-0.105,97.052c-1.69,15.104-1.421,46.056,0.428,61.238c10.805,0.808,58.224,2.201,66.175-0.621
		l2.418-0.327c23.982,0.103,47.962,0.026,71.941-0.234c13.723-0.084,27.661-0.63,41.353,0.296
		c3.207,0.717,10.797,0.427,13.073,2.063l0.168,0.609c-21.024,0.387-42.049,0.592-63.075,0.616
		c-9.744,0.041-20.608,0.996-30.269-0.121c-6.814-0.932-15.097-1.158-21.836,0.225c-10.069,0.944-20.317,0.602-30.427,0.675
		l0.187,118.169c0.029,16.266,2.026,43.249-1.201,58.486l-1.449,1.171l0.632,1.157c-3.602,1.171-7.078,1.544-10.847,1.649
		c-45.003,1.255-90.368-0.109-135.421-0.107l-63.91,0.012c-8.684,0.009-17.811,0.773-26.435,0.311
		c-3.177-0.171-7.407-0.648-10.253-2.097c-0.304-0.155-0.573-0.368-0.86-0.552c3.187-1.058,6.673-1.151,10.01-1.044l236.985-0.15
		l0.012-20.467l-76.965-0.021l7.391-2.447c11.124,2.673,54.858,0.864,69.451,0.814c-0.241-22.409,0.261-44.839,0.162-67.255
		l0.018-87.593c-9.846,0.107-43.168,2.679-49.375-3.375c-2.129-5.97-1.326-13.032-1.16-19.321l-119.329-0.141
		c-19.833-0.03-44.421-2.145-63.485,1.419c-1.531,2.095-1.499,3.689-1.621,6.298c-0.405,8.717,0.143,17.674,0.214,26.417
		c0.207,26.103,1.049,52.761-0.236,78.812c-1.019,5.443-0.037,11.199-1.321,16.487l-0.194,0.105
		c-2.34-2.693,0.05-112.838-0.958-127.895c0.398-0.917,1.133-1.936,1.883-2.581c1.853-1.588,4.847-1.651,7.142-1.788
		c19.519-1.183,39.654-0.071,59.241-0.048L1260.403,1265.397z"/>
	<path style="fill:#45347D;" d="M1263.395,1226.457c14.988,0.159,68.606-2.033,78.457,0.544
		c-2.752,11.784-13.628,50.432-11.854,60.073c-7.951,2.822-55.37,1.429-66.175,0.621
		C1261.974,1272.513,1261.704,1241.561,1263.395,1226.457z"/>
	<path style="fill:#45347D;" d="M1513.752,1115.024c1.703,11.806,1.158,165.581-0.821,172.384
		c-7.046,3.573-44.992,3.716-53.98,2.074l-0.168-0.609c-2.276-1.636-9.866-1.346-13.073-2.063
		c-1.786-12.496-7.09-25.52-11.252-37.466c-2.465-7.489-4.207-15.363-6.245-22.989c14.008-0.189,74.49,1.949,82.887-0.994
		c2.634,10.103,0.719,28.775,1.876,40.363C1515.307,1216.257,1512.697,1164.799,1513.752,1115.024z"/>
	<path style="fill:#45347D;" d="M1228.222,1378.461c27.537,0.187,55.074,0.201,82.612,0.043c0.098,22.416-0.403,44.846-0.162,67.255
		c-14.593,0.05-58.328,1.86-69.451-0.814l-0.445-1.183C1241.728,1437.585,1230.199,1388.875,1228.222,1378.461z"/>
	<path style="fill:#FDB903;" d="M1145.592,1440.499c19.945-0.249,39.89-0.364,59.836-0.346c10.739-0.021,22.964-1.176,33.463,0.867
		l1.885,2.741l0.445,1.183l-7.391,2.447l76.965,0.021l-0.012,20.467l-236.985,0.15l0.81-1.08l-1.339-2.279
		c0.411-6.389,0.121-12.962,0.132-19.375c13.69-0.744,62.595,1.619,71.19-2.477L1145.592,1440.499z"/>
	<path style="fill:#25165D;" d="M1145.592,1440.499c19.945-0.249,39.89-0.364,59.836-0.346c10.739-0.021,22.964-1.176,33.463,0.867
		l1.885,2.741l0.445,1.183l-7.391,2.447l-157.734,0.286c0.066,5.272,1.347,14.924-1.488,19.273l-1.339-2.279
		c0.411-6.389,0.121-12.962,0.132-19.375c13.69-0.744,62.595,1.619,71.19-2.477L1145.592,1440.499z"/>
	<path style="fill:#FEFEFE;" d="M1205.856,1349.726c1.33,4.112,2.39,7.78,4.901,11.353c0.248,0.353,0.48,0.719,0.723,1.076
		c0.148,0.214,0.3,0.425,0.45,0.637l14.52-0.079c0.592,5.183,1.535,10.551,1.772,15.748c1.977,10.414,13.507,59.124,12.553,65.3
		l-1.885-2.741c-10.499-2.043-22.724-0.889-33.463-0.867c-19.946-0.018-39.891,0.098-59.836,0.346l-1.001,2.32l-2.404-1.089
		c-2.054-5.331,4.551-35.262,5.674-43.472l1.992-14.52c1.599-3.76,1.246-10.651,1.904-14.911c0.403-2.606,0.441-3.712,2.629-5.254
		c5.724-6.882,15.861-5.393,21.995-11.251C1187.357,1356.52,1195.528,1354.296,1205.856,1349.726z"/>
	<path style="fill:#B7A07B;" d="M1205.856,1349.726c1.33,4.112,2.39,7.78,4.901,11.353c0.248,0.353,0.48,0.719,0.723,1.076
		c0.148,0.214,0.3,0.425,0.45,0.637c-19.098,1.101-38.433,2.181-57.544,0.782c5.724-6.882,15.861-5.393,21.995-11.251
		C1187.357,1356.52,1195.528,1354.296,1205.856,1349.726z"/>
	<path style="fill:#FDB903;" d="M1152.784,1405.405l77.427,0.077c2.363,12.002,5.483,23.737,8.679,35.539
		c-10.499-2.043-22.724-0.889-33.463-0.867c-19.946-0.018-39.891,0.098-59.836,0.346
		C1147.489,1428.743,1150.293,1417.054,1152.784,1405.405z"/>
	<path style="fill:#FDB903;" d="M1347.01,1199.238c4.942,0.583,9.825,1.396,14.729,2.224c4.76,0.834,9.693,1.988,14.484,2.477
		c8.433,0.851,16.427,0.444,24.85-0.25l12.079-2.138c2.98-0.642,5.975-1.397,8.975-1.924c1.829,8.977,3.775,17.858,6.086,26.728
		c2.038,7.626,3.78,15.5,6.245,22.989c4.162,11.947,9.466,24.97,11.252,37.466c-13.692-0.926-27.631-0.38-41.353-0.296
		c-23.979,0.259-47.96,0.337-71.941,0.234l-2.418,0.327c-1.774-9.641,9.102-48.289,11.854-60.073
		C1344.168,1217.911,1345.444,1208.487,1347.01,1199.238z"/>
	<path style="fill:#FEFEFE;" d="M1347.01,1199.238c4.942,0.583,9.825,1.396,14.729,2.224c4.76,0.834,9.693,1.988,14.484,2.477
		c8.433,0.851,16.427,0.444,24.85-0.25l12.079-2.138c2.98-0.642,5.975-1.397,8.975-1.924c1.829,8.977,3.775,17.858,6.086,26.728
		c2.038,7.626,3.78,15.5,6.245,22.989c-19.707-12.687-40.882-19.257-64.421-14.16c-9.969,2.159-19.967,6.869-28.728,11.993
		c-5.236,12.821-5.197,26.489-8.893,39.57l-2.418,0.327c-1.774-9.641,9.102-48.289,11.854-60.073
		C1344.168,1217.911,1345.444,1208.487,1347.01,1199.238z"/>
	<path style="fill:#45347D;" d="M1354.343,1322.679l133.777,0.268c12.363,0.039,42.638-1.476,53.295,0.635
		c2.798,3.005,3.491,7.103,3.9,11.076c1.538,15.015,0.212,31.382,0.182,46.536c-0.046,23.963,0.698,48.189-0.011,72.123
		c-0.102,3.407-0.355,6.552-2.366,9.412c-8.543,3.056-67.385,2.649-78.459,1.549c-21.754,1.108-43.991,0.209-65.793,0.221
		c-13.839,0.007-30.344,1.77-43.795-0.76c-0.212-15.454-0.336-30.91-0.371-46.366c10.248,0.221,67.394-0.712,71.54,2.211
		l0.462,0.043c17.278-1.394,34.252-1.69,51.581-1.533c20.983-1.033,42.472-0.143,63.509-0.171
		c-0.143-30.508,1.001-61.247-0.232-91.716c-42.756-0.434-85.56,0.003-128.322-0.002c-17.875-0.002-41.882,1.865-58.909-1.001
		L1354.343,1322.679z"/>
	<path style="fill:#FDB903;" d="M1426.703,1419.627c17.278-1.394,34.252-1.69,51.581-1.533c4.806,14.749,11.199,28.91,17.629,43.008
		c-28.227-1.069-56.735-0.273-84.984-0.098c5.309-13.73,10.412-27.537,15.311-41.419L1426.703,1419.627z"/>
	<path style="fill:#7C7BB9;" d="M1354.33,1325.204c17.028,2.866,41.034,1,58.909,1.001c42.761,0.005,85.566-0.432,128.322,0.002
		c1.233,30.468,0.089,61.208,0.232,91.716c-21.036,0.029-42.526-0.862-63.509,0.171c-17.329-0.157-34.304,0.139-51.581,1.533
		l-0.462-0.043c-4.146-2.923-61.292-1.99-71.54-2.211c-0.53-16.437-0.245-32.98-0.352-49.429
		C1354.257,1353.736,1353.702,1339.394,1354.33,1325.204z"/>
	<path style="fill:#FEFEFE;" d="M1439.737,1388.734c2.131,1.226,4.317,2.161,6.673,2.888c8.907,2.754,16.987,0.336,24.873-3.889
		l-1.215,5.959c1.601,1.435,3.164,3.02,4.949,4.219c1.114,6.694,2.488,13.446,3.268,20.183c-17.329-0.157-34.304,0.139-51.581,1.533
		c0.992-5.383,1.761-10.781,2.672-16.171c0.534-3.155,1.115-6.379,3.707-8.295l3.701,0.573
		C1437.54,1393.312,1438.688,1391.042,1439.737,1388.734z"/>
	<path style="fill:#FDB903;" d="M1439.737,1388.734c2.131,1.226,4.317,2.161,6.673,2.888c8.907,2.754,16.987,0.336,24.873-3.889
		l-1.215,5.959c-7.15,5.045-13.398,7.494-22.278,5.92c-3.907-0.691-7.419-2.263-11.006-3.878
		C1437.54,1393.312,1438.688,1391.042,1439.737,1388.734z"/>
	<path style="fill:#0C0A0E;" d="M1439.737,1388.734c-6.218-5.583-11.017-12.17-12.136-20.719c-0.814-6.22,0.974-12.179,4.865-17.072
		c0.593-0.74,1.221-1.448,1.886-2.124c0.664-0.676,1.361-1.317,2.09-1.924c0.728-0.606,1.485-1.173,2.272-1.703
		s1.597-1.018,2.432-1.465c0.835-0.447,1.691-0.852,2.568-1.214c0.877-0.36,1.769-0.676,2.677-0.948
		c0.908-0.271,1.828-0.496,2.759-0.675c0.93-0.178,1.868-0.309,2.813-0.393c8.127-0.703,16.855,2.234,22.835,7.803
		c4.26,3.965,6.776,9.114,6.944,14.957c0.278,9.573-4.28,17.633-10.46,24.474c-7.887,4.224-15.966,6.643-24.873,3.889
		C1444.054,1390.895,1441.868,1389.96,1439.737,1388.734z"/>
	<path style="fill:#FDB903;" d="M1451.024,1355.519c1.604-0.077,3.27-0.186,4.87-0.023c2.946,0.296,5.895,2.24,7.406,4.76
		c1.256,2.095,1.478,4.426,0.814,6.746c-1.135,3.953-3.875,5.749-7.255,7.728c-1.003,0.121-2.204,0.33-3.229,0.236
		c-2.971-0.273-6.328-1.731-7.938-4.398c-1.383-2.292-1.788-4.651-1.294-7.281
		C1445.163,1359.231,1447.811,1357.605,1451.024,1355.519z"/>
	
		<linearGradient id="SVGID_1_" gradientUnits="userSpaceOnUse" x1="947.4631" y1="895.978" x2="922.6801" y2="812.4993" gradientTransform="matrix(1.7847 0 0 -1.7847 -477.0979 2855.9573)">
		<stop  offset="0" style="stop-color:#867DBB"/>
		<stop  offset="1" style="stop-color:#ACA6CF"/>
	</linearGradient>
	<path style="fill:url(#SVGID_1_);" d="M1075.86,1381.021c1.285-26.051,0.443-52.709,0.236-78.812
		c-0.071-8.743-0.619-17.701-0.214-26.417c0.121-2.609,0.089-4.203,1.621-6.298c19.064-3.564,43.652-1.449,63.485-1.419
		l119.329,0.141c-0.166,6.289-0.969,13.351,1.16,19.321c6.207,6.054,39.529,3.482,49.375,3.375l-0.018,87.593
		c-27.537,0.158-55.074,0.144-82.612-0.043c-0.237-5.197-1.18-10.566-1.772-15.748l-14.52,0.079c-0.15-0.212-0.302-0.423-0.45-0.637
		c-0.243-0.357-0.475-0.723-0.723-1.076c-2.511-3.573-3.571-7.241-4.901-11.353c-10.328,4.571-18.499,6.794-29.476,2.597
		c-6.134,5.857-16.271,4.369-21.995,11.251c-2.188,1.542-2.225,2.649-2.629,5.254c-0.658,4.26-0.305,11.151-1.904,14.911
		l-1.992,14.52c-24.438,0.014-48.881-0.571-73.321-0.751C1075.823,1392.219,1074.841,1386.464,1075.86,1381.021z"/>
	<path style="fill:#45347D;" d="M1075.86,1381.021c9.673-0.041,69.389-1.326,73.653,1.173l0.339,1.546l-1.992,14.52
		c-24.438,0.014-48.881-0.571-73.321-0.751C1075.823,1392.219,1074.841,1386.464,1075.86,1381.021z"/>
	<path style="fill:#0C0A0E;" d="M1176.38,1352.323c-4.117-2.324-8.181-5.028-11.445-8.472c-6.387-6.735-8.895-15.034-8.579-24.215
		c0.298-8.686,3.805-16.899,10.332-22.73c7.108-6.35,16.856-9.32,26.306-8.484c8.318,0.733,16.466,4.433,21.807,10.974
		c6.08,7.444,8.081,18.188,6.793,27.568c-1.433,10.432-7.692,16.774-15.737,22.762
		C1195.528,1354.296,1187.357,1356.52,1176.38,1352.323z"/>
	<path style="fill:#FDB903;" d="M1181.603,1307.876c2.402,0.694,4.169,1.347,6.1,2.986c3.78,3.207,8.367,5.074,12.348,7.988
		c2.101,1.537,3.232,3.068,3.676,5.667c-0.776,4.845-4.058,7.729-7.717,10.697c-2.301,0.858-4.642,1.762-7.141,1.467
		c-3.962-0.468-7.728-2.85-10.173-5.952c-0.364-0.47-0.704-0.957-1.019-1.46c-0.316-0.505-0.606-1.023-0.869-1.555
		c-0.264-0.533-0.501-1.078-0.71-1.635c-0.209-0.557-0.39-1.123-0.543-1.697s-0.276-1.155-0.371-1.742
		c-0.094-0.587-0.159-1.177-0.195-1.771c-0.036-0.594-0.042-1.187-0.018-1.781c0.024-0.594,0.077-1.185,0.161-1.774
		C1175.798,1312.766,1178.023,1310.507,1181.603,1307.876z"/>
	<path style="fill:#7C7BB9;" d="M1263.395,1226.457c1.333-32.2-0.023-64.799,0.105-97.052c0.018-4.069-0.703-10.621,2.358-13.666
		c3.052-1.629,7.014-1.595,10.428-1.726c32.935-1.256,66.298-0.143,99.27-0.196c44.992-0.071,90.109-0.96,135.086-0.141
		c0.989,11.799,0.423,23.997,0.396,35.842c-0.059,25.253-0.612,50.602,0.063,75.843c-8.397,2.943-68.879,0.805-82.887,0.994
		c-2.311-8.87-4.256-17.751-6.086-26.728c-3,0.527-5.995,1.281-8.975,1.924l-12.079,2.138c-8.424,0.694-16.417,1.101-24.85,0.25
		c-4.792-0.489-9.725-1.644-14.484-2.477c-4.904-0.828-9.787-1.64-14.729-2.224c-1.565,9.248-2.841,18.673-5.158,27.763
		C1332,1224.424,1278.382,1226.615,1263.395,1226.457z"/>
	<path style="fill:#B28F93;" d="M1396.933,1189.913c2.852-0.923,5.559-2.593,8.219-3.976c2.649,5.143,5.736,10.308,8.001,15.614
		l-12.079,2.138C1401.893,1198.603,1399.099,1194.312,1396.933,1189.913z"/>
	<path style="fill:#B7A07B;" d="M1371.505,1186.915c3.312,1.517,6.553,3.111,10.06,4.126c-3.989,4.39-4.817,7.083-5.342,12.898
		c-4.792-0.489-9.725-1.644-14.484-2.477c0.762-4.164,1.433-6.516,4.665-9.464
		C1368.199,1190.361,1369.855,1188.696,1371.505,1186.915z"/>
	<path style="fill:#D8A456;" d="M1381.565,1191.041c5.375,0.651,10.135,0.25,15.368-1.128c2.167,4.399,4.96,8.69,4.141,13.776
		c-8.424,0.694-16.417,1.101-24.85,0.25C1376.748,1198.124,1377.576,1195.431,1381.565,1191.041z"/>
	<path style="fill:#0C0A0E;" d="M1371.505,1186.915c-2.818-1.826-5.649-3.962-8.04-6.328c-6.432-6.364-9.909-13.967-9.934-23.049
		c-0.027-9.811,4.046-17.981,11.076-24.765c6.727-6.489,15.545-10.269,24.955-9.859c8.831,0.384,17.022,4.62,22.935,11.111
		c6.182,6.787,9.748,15.827,9.002,25.05c-0.94,11.627-7.679,19.798-16.348,26.862c-2.659,1.383-5.366,3.054-8.219,3.976
		c-5.233,1.378-9.992,1.779-15.368,1.128C1378.058,1190.026,1374.817,1188.432,1371.505,1186.915z"/>
	<path style="fill:#FDB903;" d="M1376.635,1146.29c2.183,0.171,3.48,0.448,5.44,1.458c1.579,0.814,2.89,1.355,4.644,1.751
		c1.265-0.557,2.536-1.117,3.842-1.574c0.337-0.119,0.679-0.219,1.026-0.3c0.348-0.081,0.699-0.142,1.053-0.184
		c0.354-0.04,0.71-0.061,1.067-0.063c0.357-0.001,0.713,0.017,1.067,0.055c0.355,0.039,0.706,0.098,1.055,0.177
		c0.348,0.078,0.69,0.176,1.028,0.293c0.337,0.118,0.666,0.253,0.987,0.407c0.323,0.155,0.635,0.327,0.937,0.516
		c1.936,1.194,2.643,3,2.918,5.163c0.66,5.222-2.186,8.886-5.161,12.775c-2.19,1.915-4.308,4.021-7.299,4.492
		c-3.637,0.573-7.555-1.439-10.169-3.834c-3.743-3.43-5.865-8.429-5.984-13.482
		C1373.002,1150.298,1374.224,1148.704,1376.635,1146.29z"/>
	<path style="fill:#010102;" d="M655.966,653.006c-0.882-26.146-0.221-52.302-0.237-78.455l-0.023-144.58l-0.053-74.422
		c-0.055-13.726-1.244-28.734,0.401-42.34c1.13-9.33,4.505-18.768,10.244-26.262c7.614-9.937,19.087-17.528,31.436-19.871
		c13.562-2.572,28.677-1.315,42.465-1.321l69.707,0.007l257.364,0.203l78.707,0.027c13.027,0.02,26.762,1.001,39.697-0.109
		c10.571-0.907,18.629-12.025,27.691-13.218l-2.409,1.51l0.618,0.551l-0.81-0.361l-18.129,11.447
		c17.993,0.136,36.008-0.161,54.003-0.253c12.334-0.063,25.778-1.233,37.843,1.581c8.401,1.959,16.512,6.104,22.673,12.173
		c0.877,0.867,1.718,1.769,2.522,2.704c0.803,0.935,1.568,1.902,2.293,2.9c0.726,0.997,1.41,2.022,2.052,3.075
		c0.641,1.053,1.24,2.13,1.795,3.232c0.554,1.101,1.064,2.223,1.528,3.366c0.464,1.142,0.88,2.302,1.249,3.478
		c0.37,1.177,0.692,2.367,0.966,3.569c0.272,1.203,0.496,2.415,0.671,3.635c1.729,11.888,0.814,24.648,0.707,36.652l-0.566,59.536
		l-2.356,222.161c-10.432-0.039-20.877-0.237-31.293,0.427c-1.537,2.397-2.977,4.123-5.027,6.104l36.29-0.111
		c-0.005,18.552,0.775,37.038-13.657,51.13c-5.865,5.727-13.944,10.246-22.095,11.526c-8.809,1.385-18.209,0.784-27.108,0.755
		l-42.444-0.134l-153.436,0.064c7.696,27.504,16.589,54.667,24.126,82.227c16.862-0.104,50.75-2.215,65.938,0.669
		c1.651,1.401,2.752,2.251,3.036,4.605c0.271,2.268-0.708,2.989-2.143,4.408c-6.325,2.465-231.021,0.725-255.598,0.787
		c-8.128,0.021-59.165,1.331-63.467-0.286c-2.493-0.937-2.613-1.761-3.569-4.024c0.344-1.563,0.182-2.008,1.417-3.155
		c6.464-6.004,49.997-2.975,60.007-2.829c10.642-27.838,20.854-56.006,32.901-83.265l-175.432-0.086
		c-7.794,0.018-45.849-1.215-50.848-0.134l1.014,1.644l-0.589,0.464c-10.854-4.758-26.688-14.033-32.937-24.565
		c-2.772-4.67-3.887-10.719-7.348-14.929c-4.94-6.014-11.117-11.363-16.466-17.055c-9.505-10.17-18.289-20.93-26.351-32.28
		c-25.232-35.36-43.427-73.358-67.433-108.822c1.646,14.253,1.242,28.878,1.299,43.209l0.146,60.96l0.016,199.799
		c2.033,1.187,4.036,2.424,6.009,3.71c23.046,15.156,40.47,39.583,49.176,65.654c2.261,6.771,3.368,15.668,4.731,22.805
		c4.572,23.938-3.971,63.503-17.301,83.929l-0.475,0.059c3.352-8.695,7.703-17.04,10.867-25.78
		c7.216-19.928,8.174-45.042,4.419-65.768c-6.566-36.237-27.583-63.093-57.412-83.583c-0.314,27.85,0.021,55.738,0.045,83.594
		c0.011,12.25,1.901,34.413-1.367,45.747c-1.519,5.267-5.12,10.298-10.044,12.85c-3.846,1.994-8.256,2.691-12.534,2.963
		c-10.264,0.648-20.984-0.159-31.307-0.145l-76.135-0.062l-89.667,0.094c-16.132,0.039-32.507,0.646-48.617-0.016
		c-5.058-0.209-10.187-0.887-14.949-2.672c-6.225-2.334-10.835-8.249-12.518-14.64c-2.904-11.028-1.119-60.348-1.128-74.638
		c-0.025-46.989-1.34-94.063-1.074-141.025c0.036-6.395,0.982-12.75,1.121-19.141c0.357-16.257,0.982-135.15-2.072-141.427
		c-1.853-3.803-2.122-7.963-3.143-12.065c-4.64-18.643-8.593-36.677-9.441-55.975c-1.89-43.008,4.892-83.975,25.002-122.45
		c3.552-6.796,7.519-15.27,12.677-20.899l0.635,0.598l-0.994-0.278c-0.958,5.524-9.925,18.147-12.791,23.704
		c-29.833,57.828-29.847,125.807-10.524,186.847c0.835-16.476-3.871-54.018,7.738-66.009c3.934-4.06,9.346-7.21,14.94-8.197
		c10.767-1.899,22.489-0.926,33.422-0.823l47.712,0.262l158.419-0.377c9.293,0.066,19.928,1.078,27.418,7.189
		c12.521,10.214,29.171,44.421,37.532,59.059c6.921,12.235,14.188,24.26,21.802,36.076
		C614.749,607.132,633.129,629.951,655.966,653.006z"/>
	<path style="fill:#0C0A0E;" d="M922.226,692.101c25.332-1.308,51.357,0.3,76.751,0.808
		C991.601,695.396,928.031,694.525,922.226,692.101z"/>
	<path style="fill:#FEFEFE;" d="M371.216,499.025c7.125-0.862,49.019-1.851,53.55,0.694l0.721,3.876
		c-8.54,0.35-45.774,2.179-52.019-0.748C371.79,502.061,371.833,500.678,371.216,499.025z"/>
	<path style="fill:#FEFEFE;" d="M395.218,910.226c0.764-0.046,1.529-0.1,2.295-0.111c3.498-0.054,6.448,0.626,8.863,3.346
		c1.704,1.92,2.249,3.9,2.134,6.425c-0.178,4.005-2.839,6.578-5.661,9.043c-1.46,0.091-2.996,0.236-4.456,0.141
		c-3.155-0.207-5.804-1.365-7.754-3.894c-1.512-1.956-1.861-3.86-1.59-6.271C389.493,914.941,392.268,912.515,395.218,910.226z"/>
	<path style="fill:#FEFEFE;" d="M988.695,649.667c1.965,0.039,4.035,0.066,5.963,0.473c3.409,0.717,6.35,3.066,8.143,5.995
		c1.872,3.055,2.359,6.521,1.414,9.978c-1.355,4.953-4.492,7.392-8.806,9.771c-2.326,0.045-4.883,0.036-7.16-0.493
		c-3.354-0.778-6.52-3.441-8.235-6.364c-1.794-3.064-2.19-6.557-1.064-9.935C980.598,654.143,984.223,651.83,988.695,649.667z"/>
	<path style="fill:#7979C7;" d="M1284.873,606.361l0.186-90.575c0.061-16.405-0.61-33.199,0.671-49.543
		c0.78,18.954-1.813,153.208,0.992,157.809c-1.537,2.397-2.977,4.123-5.027,6.104l-410.253,0.136l-121.576,0.369
		c-16.587,0.12-42.608,2.058-58.122,0.075c-7.362,0.08-25.675,2.051-31.132-1.958c5.786-3.23,19.294-1.505,26.053-1.378
		c-0.096-6.837,0.03-13.63,0.282-20.462l345.063-0.116l110.823-0.152c20.936,0.03,42.526,1.158,63.378-0.25
		c1.421-2.327,1.267-5.736,1.49-8.463l1.107-1.622c0.439,3.409,0.323,6.976,0.407,10.417L1284.873,606.361z"/>
	<path style="fill:#FEFEFE;" d="M686.665,627.399c17.615,1.212,35.614-0.262,53.102,2.109c-8.335,0.353-42.579-0.257-48.023,1.226
		c-7.362,0.08-25.675,2.051-31.132-1.958C666.398,625.546,679.906,627.272,686.665,627.399z"/>
	<path style="fill:#7979C7;" d="M686.997,293.539l598.945-0.903l-0.077,26.851c-21.306-0.796-42.96,0.023-64.305,0.032
		l-128.837,0.021l-405.814-0.5L686.997,293.539z"/>
	<path style="fill:#FEFEFE;" d="M1243.306,299.53c1.012,0.191,2.247,0.346,3.204,0.778c2.241,1.01,2.854,2.206,3.767,4.364
		c-0.714,3.228-1.287,3.687-3.46,6.029c-1.076-0.237-2.326-0.439-3.352-0.882c-2.27-0.982-2.907-1.951-3.88-4.132
		C1239.936,302.708,1241.309,301.547,1243.306,299.53z"/>
	<path style="fill:#FEFEFE;" d="M1162.646,300.365c0.989,0.045,2.688-0.007,3.673,0.328c2.397,0.819,2.868,1.592,4.137,3.602
		c0.194,2.984-0.432,4.021-1.87,6.507c-1.257-0.039-2.888,0.032-4.085-0.325c-2.447-0.73-2.952-1.446-4.33-3.409
		C1160.075,303.966,1160.931,302.758,1162.646,300.365z"/>
	<path style="fill:#FEFEFE;" d="M1216.969,299.485c1.335,0.087,2.918,0.107,4.19,0.528c2.236,0.739,2.934,2.231,3.885,4.194
		c-0.062,2.898-1.037,4.083-2.722,6.263c-1.71-0.171-4.007-0.314-5.54-1.105c-2.054-1.058-2.443-2.047-3.07-4.055
		C1214.151,302.539,1215.143,301.448,1216.969,299.485z"/>
	<path style="fill:#FEFEFE;" d="M1190.022,299.54c1.331,0.136,3.527,0.109,4.733,0.753c2.247,1.198,2.597,2.176,3.505,4.373
		c-0.237,3.098-1.012,4.228-3.025,6.552c-1.406-0.145-3.064-0.227-4.394-0.707c-2.229-0.807-2.913-2.343-3.832-4.337
		C1187.238,303.072,1188.044,301.898,1190.022,299.54z"/>
	<path style="fill:#7979C7;" d="M534.364,753.111c1.488,46.008-0.612,92.444-0.38,138.516l-271.058,0.116l0.121-115.452
		l270.73,0.007C533.797,768.551,533.791,760.843,534.364,753.111z"/>
	<path style="fill:#FEFEFE;" d="M262.917,516.428c37.572-0.655,75.234-0.057,112.813-0.057l158.66,0.061l-0.025,236.68
		c-0.573,7.731-0.568,15.439-0.587,23.187l-270.73-0.007L262.917,516.428z"/>
	<path style="fill:#0C0A0E;" d="M489.782,617.481l0.166,84.561c-0.002,14.774,2.017,33.203-1.576,47.519
		c-9.141,2.777-97.188,2.524-111.232,1.538c9.737-6.204,20.542-10.762,30.322-17.146c1.998-1.324,3.97-2.685,5.918-4.083
		c1.948-1.397,3.869-2.829,5.763-4.297c1.894-1.468,3.761-2.971,5.6-4.508c1.839-1.537,3.65-3.108,5.431-4.712
		c1.781-1.604,3.532-3.24,5.252-4.908c1.722-1.669,3.411-3.369,5.069-5.099c1.659-1.731,3.284-3.492,4.876-5.283
		c1.593-1.792,3.153-3.612,4.68-5.459c1.525-1.849,3.016-3.725,4.472-5.629c1.458-1.904,2.879-3.833,4.264-5.789
		c1.385-1.956,2.734-3.937,4.046-5.941c1.312-2.006,2.587-4.036,3.825-6.089c1.237-2.052,2.436-4.127,3.596-6.225
		c1.161-2.096,2.283-4.214,3.366-6.354c1.083-2.138,2.125-4.296,3.127-6.473c1.003-2.176,1.966-4.371,2.888-6.584
		c3.773-9,5.997-18.493,9.546-27.527L489.782,617.481z"/>
	<path style="fill:#33226C;" d="M318.032,585.685c28.025-0.769,56.598-0.494,84.625,0.303
		c-6.723,27.816-19.996,49.831-40.209,69.996c-16.478,14.331-32.612,23.817-52.929,31.873c0.034-13.549-1.985-90.557,0.696-96.782
		C311.441,588.228,315.382,586.749,318.032,585.685z"/>
	<path style="fill:#FDB903;" d="M442.921,586.005c6.42,0.148,12.964,0.316,19.378,0.005c5.94-0.287,12.748-1.549,18.643-0.821
		c2.054,0.253,4.112,1.064,5.609,2.527c5.666,5.534,3.409,22.112,3.23,29.765l-0.602,1.512c-3.55,9.034-5.773,18.527-9.546,27.527
		c-0.922,2.213-1.885,4.408-2.888,6.584c-1.002,2.177-2.044,4.335-3.127,6.473c-1.083,2.139-2.205,4.257-3.366,6.354
		c-1.16,2.098-2.359,4.173-3.596,6.225c-1.237,2.054-2.512,4.083-3.825,6.089c-1.312,2.005-2.661,3.985-4.046,5.941
		c-1.385,1.956-2.806,3.886-4.264,5.789c-1.456,1.904-2.947,3.78-4.472,5.629c-1.526,1.848-3.086,3.668-4.68,5.459
		c-1.592,1.791-3.217,3.552-4.876,5.283c-1.657,1.73-3.347,3.43-5.069,5.099c-1.72,1.668-3.471,3.304-5.252,4.908
		c-1.781,1.604-3.592,3.174-5.431,4.712c-1.839,1.537-3.706,3.04-5.6,4.508c-1.894,1.468-3.815,2.901-5.763,4.297
		c-1.948,1.398-3.92,2.759-5.918,4.083c-9.78,6.384-20.585,10.942-30.322,17.146c-5.217-2.158-46.757-0.114-55.788-0.303
		c-3.58-0.073-8.592,0.159-11.244-2.586c-2.267-9.805-0.726-22.021-0.528-32.146c15.059-3.857,29.787-8.697,43.584-15.95
		C401.575,674.667,427.164,637.013,442.921,586.005z"/>
	<path style="fill:#FEFEFE;" d="M686.91,319.04l405.814,0.5l128.837-0.021c21.345-0.009,42.999-0.828,64.305-0.032l-0.136,146.756
		c-1.281,16.344-0.61,33.138-0.671,49.543l-0.186,90.575l-75.659,0.391c-0.084-3.441,0.032-7.008-0.407-10.417l-1.107,1.622
		c-0.223,2.727-0.07,6.136-1.49,8.463c-20.852,1.408-42.442,0.28-63.378,0.25l-110.823,0.152l-345.063,0.116
		c0.937-32.894,0.175-66.027,0.157-98.94L686.91,319.04z"/>
	<path style="fill:#7C7BB9;" d="M1015.059,431.034c5.961-0.162,13.799-1.308,19.446,0.657l0.045,2.731
		c-5.345,0.56-13.64,2.395-18.627,0.021L1015.059,431.034z"/>
	<path style="fill:#7C7BB9;" d="M1048.579,430.475c6.08-0.157,15.819-1.897,21.449,0.605c1.365,0.605,1.33,2.449,1.699,3.787
		c-6.164-0.51-14.101,0.862-19.962-0.585C1050.212,433.898,1049.414,431.785,1048.579,430.475z"/>
	<path style="fill:#45347D;" d="M910.634,532.24c9.018-1.742,58.9-1.481,68.315-0.491c2.499,0.262,2.588,0.457,4.148,2.284
		c-0.785,0.143-1.567,0.311-2.359,0.396c-6.796,0.748-65.354,1.051-67.781-0.244C912.066,533.709,911.409,532.888,910.634,532.24z"
		/>
	<path style="fill:#7C7BB9;" d="M1015.273,399.844c8.806,0.171,50.992-1.381,55.874,0.855l0.971,3.444
		c-8.322,0.13-51.633,1.928-56.093-0.741L1015.273,399.844z"/>
	<path style="fill:#7C7BB9;" d="M1021.202,416.149c7.567-0.043,46.657-1.53,50.532,0.857c-0.53,1.786-0.066,1.463-1.544,2.324
		c-4.84,2.813-23.426,1.381-29.624,1.087c-5.386,0.168-20.974,2.038-24.866-1.078l0.148-2.447
		C1017.827,415.619,1018.93,416.058,1021.202,416.149z"/>
	
		<linearGradient id="SVGID_00000008862581668576755890000002876468403320620709_" gradientUnits="userSpaceOnUse" x1="757.1702" y1="1301.4246" x2="739.6057" y2="1292.7046" gradientTransform="matrix(1.7847 0 0 -1.7847 -477.0979 2855.9573)">
		<stop  offset="0" style="stop-color:#372979"/>
		<stop  offset="1" style="stop-color:#5A43A7"/>
	</linearGradient>
	<path style="fill:url(#SVGID_00000008862581668576755890000002876468403320620709_);" d="M855.148,539.752
		c0.662-9.562-1.813-34.552,1.331-41.646l2.609-0.23l1.196,0.346c-0.218,28.705,0.407,57.458-0.282,86.151
		c-2.229-6.382-0.639-17.62-0.541-24.54c-5.584-2.02-11.593-3.35-17.329-4.91C845.725,549.479,851.304,545.231,855.148,539.752z"/>
	<path style="fill:#010102;" d="M862.149,480.052c1.049-8.14,0.214-17.153,0.202-25.416l-0.22-54.596
		c-0.059-7.858-1.037-17.108,0.484-24.8c0.614-3.107,1.74-4.471,4.31-6.207c3.677,0.252,7.271,0.111,10.483,2.104
		c-3.748,0.08-7.205-0.109-10.669,1.517c-1.601,1.838-1.512,3.919-1.672,6.25c-1.463,21.388,0.02,43.854,0.159,65.32l0.803,125.052
		c0.059,5.431,2.152,15.945-4.785,17.008l0.282-1.428c0.15-0.161,0.309-0.312,0.45-0.482c0.798-0.967,1.165-1.826,1.292-3.075
		c1.164-11.584-0.078-24.417-0.152-36.119C862.981,523.574,863.54,501.61,862.149,480.052z"/>
	<path style="fill:#0C0A0E;" d="M1116.849,557.219l3.037,0.95c-0.707,0.932-1.481,1.995-2.538,2.563
		c-1.927,1.035-4.542,0.971-6.661,1.024c-36.006,0.917-72.332-0.207-108.369-0.161l-56.919,0.13
		c-7.744,0.039-15.607,0.655-23.333,0.368c-4.174-0.155-8.31-0.678-12.331-1.847c2.27-2.436,145.498-1.708,162.326-1.674
		c9.578,0.02,36.376,1.765,43.447-0.81C1115.962,557.596,1116.403,557.399,1116.849,557.219z"/>
	<path style="fill:#7C7BB9;" d="M1201.683,536.329c-5.504-3.885-9.604-8.477-10.665-15.45c-0.5-3.286,0.259-5.609,2.161-8.338
		c1.287-0.405,2.391-0.701,3.746-0.833c0.37-0.036,0.739-0.053,1.11-0.082c0.869-4.121,1.71-8.263,3.07-12.257
		c1.223-3.593,2.338-6.653,5.875-8.447c2.099,0.237,2.807,0.343,4.512,1.729c5.841,4.754,5.761,11.078,8.192,17.395
		c1.631,4.233,7.38,4.387,7.31,10.169c-0.068,5.72-3.694,10.837-7.719,14.47c-3.3,0.525-6.637,1.196-9.962,1.503l-0.791,0.253
		L1201.683,536.329z"/>
	<path style="fill:#25165D;" d="M1010.968,368.448c21.638-0.326,43.277-0.478,64.919-0.455c11.11-0.025,23.331-0.939,34.305,0.403
		c3.08-0.112,5.022-0.15,7.81,1.249c1.92,2.727,1.977,4.057,2.213,7.405c0.742,10.573,0.237,21.474,0.23,32.078l0.025,59.664
		l0.298,57.574c0.012,10.128,0.864,21.157-0.755,31.127c-0.036,0.227-0.084,0.45-0.127,0.675l-3.037-0.95
		c0.13-1.026,0.245-2.026,0.309-3.057c0.775-12.539,0.291-25.336,0.259-37.907l-0.135-66.414l-0.023-47.089
		c-0.009-9.245,0.585-19.053-0.75-28.198c-0.139-0.949,0.004-0.889-0.757-1.563c-3.273-2.906-11.911-1.845-16.107-1.845
		c-9.982,0.766-20.481,0.177-30.52,0.198l-57.291-0.021c-23.944,0.809-48.139,0.137-72.111,0.134
		c-20.661-0.002-41.701,0.776-62.315-0.318c-3.212-1.993-6.807-1.853-10.483-2.104c12.725-2.201,30.21-0.569,43.543-0.584
		L1010.968,368.448z"/>
	<path style="fill:#0C0A0E;" d="M779.402,553.621c11.917,3.687,30.511,17.738,40.845,25.211
		c7.108-7.983,14.128-16.071,21.436-23.869l0.45-0.039c5.736,1.56,11.745,2.89,17.329,4.91c-0.098,6.919-1.688,18.158,0.541,24.54
		l1.524,0.484l-0.282,1.428c-6.907-2.222-15.793-1.312-23.06-1.28c-14.924,0.063-71.365,2.536-81.746-1.349
		c-3.566-4.358-1.756-16.164-1.524-21.809C763.263,559.73,770.78,555.477,779.402,553.621z"/>
	<path style="fill:#33226C;" d="M1209.313,536.188c3.325-0.307,6.662-0.978,9.962-1.503c3.944,0.96,7.979,1.776,11.781,3.209
		c3.066-0.296,4.767-0.867,7.583,0.477c1.351,2.695,1.251,4.755,0.3,7.533c-1.572,4.599-4.371,10.026-7.678,13.585
		c2.852,4.387,0.853,10.892-0.084,15.741c-2.333,7.937-5.509,13.885-13.089,17.94c-2.95,1.579-6.023,2.482-9.281,3.164l-1.107,1.622
		c-2.977-1.769-6.946-2.579-10.112-4.174c-8.731-4.403-11.411-9.759-14.088-18.684c-0.552-5.406-0.538-10.811,0.043-16.214
		c-2.868-3.323-9.061-11.586-9.52-15.955c-0.277-2.638,0.327-3.014,1.913-4.933c3.719-1.685,7.785-0.678,11.724-0.227
		c4.737-0.659,9.255-0.385,14.022-1.44l6.839,0.112L1209.313,536.188z"/>
	<path style="fill:#FDB903;" d="M1201.683,536.329l6.839,0.112c0.018,6.248-0.059,12.514,0.102,18.761
		c-6.512-6.684-13.15-12.329-20.963-17.433C1192.397,537.111,1196.916,537.384,1201.683,536.329z"/>
	<path style="fill:#FDB903;" d="M1231.261,559.489c2.852,4.387,0.853,10.892-0.084,15.741c-7.683,1.795-14.647,3.452-21.607,7.308
		c-0.289-4.007-0.776-8.36-0.368-12.361c0.228-2.238,0.61-3.289,2.336-4.683C1218.922,564.922,1224.715,562.682,1231.261,559.489z"
		/>
	<path style="fill:#FDB903;" d="M1183.543,558.884c8.167,4.745,15.509,6.627,24.886,7.522c-0.059,6.553,0.002,13.134-0.277,19.68
		c-8.52-3.698-15.181-10.071-24.652-10.988C1182.948,569.692,1182.963,564.287,1183.543,558.884z"/>
	<path style="fill:#45347D;" d="M1209.313,536.188c3.325-0.307,6.662-0.978,9.962-1.503c3.944,0.96,7.979,1.776,11.781,3.209
		c3.066-0.296,4.767-0.867,7.583,0.477c1.351,2.695,1.251,4.755,0.3,7.533c-1.572,4.599-4.371,10.026-7.678,13.585
		c-6.546,3.193-12.339,5.433-19.723,6.005c-2.077-2.934-1.228-9.097-1.328-12.791
		C1209.858,547.201,1209.559,541.696,1209.313,536.188z"/>
	<path style="fill:#FDB903;" d="M1209.313,536.188c3.325-0.307,6.662-0.978,9.962-1.503c3.944,0.96,7.979,1.776,11.781,3.209
		c-9.182,3.477-15.086,6.543-20.845,14.81C1209.858,547.201,1209.559,541.696,1209.313,536.188z"/>
	<path style="fill:#0C0A0E;" d="M1025.276,445.013c1.822,0.102,3.254,0.946,4.747,1.922c9.407,6.157,38.657,27.449,40.723,37.545
		c-4.289,8.732-29.373,31.214-37.736,38.409c-1.613,1.458-2.625,2.192-4.721,2.809c-7.426-2.192-33.809-31.273-38.728-38.76
		c0.143-0.257,0.289-0.51,0.428-0.769C997.735,471.848,1012.425,455.006,1025.276,445.013z"/>
	<path style="fill:#FDB903;" d="M933.211,403.512c8.124-0.78,16.455-0.232,23.865,3.471c8.368,4.18,14.833,12.173,17.563,21.083
		c2.848,9.297,1.294,19.132-3.441,27.527c-5.761,10.212-14.734,16.876-25.948,19.962c-8.956,0.607-16.616,0.783-24.704-3.894
		c-8.531-4.933-14.643-13.487-17.083-22.983c-0.157-0.615-0.299-1.234-0.425-1.858c-0.125-0.622-0.234-1.247-0.327-1.876
		s-0.169-1.259-0.23-1.892c-0.059-0.632-0.103-1.265-0.13-1.901c-0.027-0.634-0.038-1.269-0.032-1.904
		c0.005-0.635,0.027-1.27,0.066-1.904c0.039-0.633,0.095-1.265,0.166-1.897c0.071-0.631,0.159-1.259,0.262-1.886
		c0.105-0.627,0.226-1.25,0.362-1.87c0.137-0.62,0.289-1.236,0.457-1.849c0.169-0.613,0.354-1.22,0.555-1.822
		c0.2-0.603,0.415-1.201,0.646-1.792c0.231-0.592,0.477-1.178,0.739-1.756c0.262-0.579,0.538-1.151,0.83-1.715
		c0.292-0.564,0.597-1.12,0.917-1.669c0.32-0.55,0.654-1.09,1.003-1.62C914.362,410.178,922.786,405.919,933.211,403.512z"/>
	<path style="fill:#0C0A0E;" d="M927.835,425.587c3.632,2.124,6.66,4.621,9.459,7.744c1.933-1.208,3.867-2.474,5.865-3.571
		c2.06-1.133,2.879-1.544,5.161-0.942l0.739,2.326l-0.675,0.858l-2.914-1.046c-2.541,1.074-3.742,1.736-5.6,3.892l0.421,1.105
		l4.505,0.853c-0.414,0.614-1.098,1.562-1.337,2.242c-1.802,5.136,7.895,13.462,10.419,18.229c-1.563,1.465-2.702,2.547-4.688,3.43
		c-5.615-2.693-5.583-8.89-8.529-13.601c-1.353,0.701-2.693,1.219-4.13,1.724c-1.69-0.825-2.145-1.419-3.048-3.057
		c1.085-3.436,5.497-3.687,7.008-7.257l-1.506-1.786c-3.377,0.341-3.416,2.145-6.15,3.307c-1.758,0.75-2.509-0.159-4.046-0.896
		c-1.176-1.44-1.879-2.736-2.445-4.494C925.149,430.941,926.2,428.869,927.835,425.587z"/>
	
		<linearGradient id="SVGID_00000165955577688007150080000015554477157316751024_" gradientUnits="userSpaceOnUse" x1="745.9633" y1="1320.1433" x2="690.7513" y2="1288.2407" gradientTransform="matrix(1.7847 0 0 -1.7847 -477.0979 2855.9573)">
		<stop  offset="0" style="stop-color:#796BB0"/>
		<stop  offset="1" style="stop-color:#9387CD"/>
	</linearGradient>
	<path style="fill:url(#SVGID_00000165955577688007150080000015554477157316751024_);" d="M756.067,497.312
		c10.28-1.296,97.3-1.676,103.022,0.564l-2.609,0.23c-3.145,7.094-0.669,32.084-1.331,41.646
		c-3.844,5.479-9.423,9.727-13.016,15.172l-0.45,0.039c-7.308,7.797-14.328,15.886-21.436,23.869
		c-10.333-7.473-28.928-21.523-40.845-25.211c-8.622,1.856-16.139,6.109-24.488,8.226
		C755.67,540.755,753.09,518.093,756.067,497.312z"/>
	<path style="fill:#FEFEFE;" d="M776.221,522.135c5.413,0.262,10.426,0.478,15.588,2.293c0.558,1.67,1.085,3.346,1.719,4.99
		c1.387,3.593,0.837,6.732-0.816,10.173c-1.862,3.873-5.556,5.818-9.489,7.132c-2.932,0.978-5.972,1.274-9.032,1.583
		c-1.171-0.891-2.404-1.817-3.387-2.918c-2.497-2.789-3.86-7.54-3.286-11.226C768.444,528.214,771.458,525.393,776.221,522.135z"/>
	<path style="fill:#0C0A0E;" d="M791.809,524.429c3.917-5.584,7.369-13.246,14.124-15.737c3.253,0.489,4.356,1.508,6.296,4.158
		c4.61,6.302,8.895,12.784,13.617,19.029c-0.211,4.654-0.514,9.325-0.576,13.983C813.675,539.345,802.019,533.044,791.809,524.429z"
		/>
	<path style="fill:#FDB903;" d="M791.809,524.429c10.21,8.615,21.866,14.917,33.461,21.432c4.901,3.084,12.539,5.142,16.412,9.102
		c-7.308,7.797-14.328,15.886-21.436,23.869c-10.333-7.473-28.928-21.523-40.845-25.211c-2.272-1.574-3.596-3.08-5.211-5.315
		c3.061-0.309,6.1-0.605,9.032-1.583c3.933-1.313,7.628-3.259,9.489-7.132c1.653-3.441,2.202-6.58,0.816-10.173
		C792.894,527.775,792.367,526.099,791.809,524.429z"/>
</g>
</svg>
