<?xml version="1.0" encoding="utf-8"?>
<!-- Generator: Adobe Illustrator 27.5.0, SVG Export Plug-In . SVG Version: 6.00 Build 0)  -->
<svg version="1.1" xmlns="http://www.w3.org/2000/svg" xmlns:xlink="http://www.w3.org/1999/xlink" x="0px" y="0px"
	 viewBox="0 0 2475 1650" style="enable-background:new 0 0 2475 1650;" xml:space="preserve">
<g id="Background">
	<rect style="fill:#FFFFFF;" width="2475" height="1650"/>
	<g>
		<path style="fill-rule:evenodd;clip-rule:evenodd;fill:#E7F3FE;" d="M1687.791,421.882
			c-192.04-92.213-584.161-152.15-716.543,25.43c-27.036,35.136-595.118,37.864-446.502,507.275
			c23.559,74.398,71.857,160.438,169.258,255.761c187.415,183.164,885.583,188.656,1001.422,125.803
			c197.938-107.397,1.273-306.266,93.677-496.908C1898.113,614.33,1772.652,462.637,1687.791,421.882L1687.791,421.882z
			 M1687.791,421.882"/>
		<path style="fill-rule:evenodd;clip-rule:evenodd;fill:#AEC8E6;" d="M528.968,354.065c17.599-11.326,36.782-19.121,56.554-23.404
			V304.71c0-8.253,6.767-15.02,15.054-15.02h43.208c8.255,0,15.022,6.767,15.022,15.02v25.952
			c19.803,4.283,38.986,12.078,56.554,23.404l18.344-18.344c5.835-5.839,15.395-5.839,21.262,0l7.543,7.543l15.457,15.489
			l7.544,7.538c5.866,5.839,5.866,15.399,0,21.266l-18.313,18.313c11.297,17.604,19.12,36.751,23.403,56.555h25.918
			c8.288,0,15.054,6.77,15.054,15.058v43.203c0,8.256-6.766,15.027-15.054,15.027h-25.918c-4.283,19.799-12.106,38.982-23.403,56.55
			l18.313,18.341c5.866,5.839,5.866,15.43,0,21.265l-30.543,30.543c-5.867,5.867-15.427,5.867-21.262,0l-18.344-18.313
			c-17.568,11.298-36.75,19.124-56.554,23.407v25.945c0,8.256-6.767,15.023-15.022,15.023h-43.208
			c-8.287,0-15.054-6.767-15.054-15.023v-25.945c-19.772-4.283-38.955-12.109-56.554-23.407l-18.313,18.313
			c-5.867,5.867-15.427,5.867-21.262,0l-7.543-7.543l-15.488-15.462l-7.543-7.539c-5.835-5.835-5.835-15.426,0-21.265l18.345-18.341
			c-11.33-17.568-19.12-36.751-23.404-56.55H427.81c-8.288,0-15.023-6.77-15.047-15.027v-32.529l0.024-10.674
			c-0.024-8.288,6.735-15.058,15.023-15.058h25.949c4.284-19.773,12.074-38.951,23.404-56.523l-18.345-18.345
			c-5.835-5.866-5.835-15.427,0-21.266l30.574-30.57c5.835-5.839,15.395-5.839,21.262,0L528.968,354.065z M894.953,277.118
			l22.69,2.297c8.194,0.838,14.185,8.194,13.347,16.389l-1.46,14.402c9.251,4.349,17.506,10.34,24.397,17.634l13.222-5.96
			c7.512-3.352,16.389,0.023,19.742,7.507l9.343,20.827c3.353,7.477,0,16.362-7.512,19.707l-13.223,5.959
			c0.435,4.935,0.403,9.998-0.124,15.121c-0.496,5.121-1.521,10.052-2.918,14.805l11.764,8.501
			c6.643,4.814,8.164,14.185,3.353,20.827l-13.347,18.507c-4.811,6.667-14.185,8.191-20.858,3.376l-11.764-8.501
			c-8.194,5.746-17.475,9.995-27.438,12.354l-1.459,14.402c-0.838,8.167-8.194,14.181-16.358,13.347l-22.688-2.297
			c-8.195-0.842-14.186-8.221-13.347-16.393l1.458-14.398c-9.25-4.346-17.506-10.336-24.397-17.63l-13.223,5.928
			c-7.512,3.384-16.389,0-19.741-7.48l-9.343-20.824c-3.352-7.484,0-16.361,7.512-19.744l13.223-5.929
			c-0.434-4.935-0.403-9.997,0.125-15.116c0.496-5.125,1.521-10.057,2.918-14.802l-11.765-8.508
			c-6.643-4.812-8.164-14.185-3.352-20.859l13.347-18.468c4.811-6.673,14.185-8.194,20.858-3.383l11.764,8.509
			c8.194-5.747,17.475-9.998,27.439-12.357l1.458-14.407C879.433,282.272,886.789,276.28,894.953,277.118L894.953,277.118z
			 M895.666,346.083c20.3,0,36.751,16.49,36.751,36.786c0,20.299-16.451,36.782-36.751,36.782c-20.33,0-36.781-16.482-36.781-36.782
			C858.885,362.573,875.336,346.083,895.666,346.083L895.666,346.083z M870.246,509.576l22.596-3.046
			c8.164-1.087,15.706,4.691,16.793,12.819l1.955,14.376c9.995,2.017,19.43,5.959,27.811,11.419l11.485-8.847
			c6.518-5.028,15.923-3.822,20.951,2.7l13.936,18.034c4.998,6.523,3.787,15.923-2.7,20.952l-11.485,8.878
			c1.583,4.686,2.732,9.621,3.415,14.712c0.683,5.086,0.869,10.149,0.589,15.085l13.409,5.521c7.604,3.107,11.267,11.896,8.163,19.5
			l-8.69,21.072c-3.104,7.605-11.889,11.267-19.493,8.128l-13.409-5.491c-6.643,7.477-14.682,13.778-23.808,18.371l1.924,14.376
			c1.087,8.136-4.655,15.709-12.788,16.788l-22.628,3.046c-8.132,1.086-15.675-4.656-16.762-12.82l-1.956-14.34
			c-10.025-2.053-19.431-5.991-27.81-11.453l-11.484,8.846c-6.519,5.028-15.924,3.822-20.953-2.669l-13.936-18.065
			c-5.029-6.522-3.819-15.922,2.7-20.951l11.485-8.846c-1.583-4.718-2.732-9.623-3.414-14.744
			c-0.683-5.086-0.869-10.15-0.621-15.085l-13.409-5.528c-7.573-3.101-11.236-11.889-8.132-19.493l8.66-21.072
			c3.135-7.605,11.889-11.268,19.493-8.128l13.44,5.489c6.611-7.476,14.682-13.746,23.808-18.379l-1.925-14.367
			C856.339,518.228,862.113,510.654,870.246,509.576L870.246,509.576z M895.573,575.473c20.3,0,36.782,16.477,36.782,36.774
			c0,20.303-16.482,36.782-36.782,36.782c-20.3,0-36.781-16.479-36.781-36.782C858.792,591.95,875.273,575.473,895.573,575.473
			L895.573,575.473z M622.179,374.493c34.392,0,65.555,13.936,88.09,36.494c22.535,22.539,36.502,53.671,36.502,88.094
			c0,34.388-13.968,65.555-36.502,88.09c-22.535,22.565-53.698,36.502-88.09,36.502c-34.423,0-65.555-13.937-88.121-36.502
			c-22.534-22.535-36.471-53.702-36.471-88.09c0-34.423,13.936-65.555,36.471-88.094
			C556.624,388.43,587.756,374.493,622.179,374.493L622.179,374.493z M686.213,435.046c-16.389-16.389-39.047-26.507-64.034-26.507
			c-25.018,0-47.645,10.119-64.034,26.507c-16.389,16.389-26.539,39.017-26.539,64.034c0,25.018,10.15,47.642,26.539,64.035
			c16.389,16.385,39.016,26.507,64.034,26.507c24.987,0,47.646-10.123,64.034-26.507c16.389-16.392,26.507-39.017,26.507-64.035
			C712.72,474.064,702.57,451.435,686.213,435.046L686.213,435.046z M686.213,435.046"/>
		<path style="fill-rule:evenodd;clip-rule:evenodd;fill:#A8D29F;" d="M1825.544,1117.262
			c23.155,17.939,26.072,36.533-68.226,36.471c-45.503,0-151.626-7.167-192.785-25.422
			c-64.375-28.525-131.886-95.447-160.069-136.973c-22.473-33.065,27.936-54.199,69.063-41.969
			c122.512,36.471-86.693-113.883-8.536-186.299c20.455-18.965,57.733,11.981,87.438,27.19
			c33.089,16.951,43.455-23.279,42.183-48.518c-2.483-48.821-21.137-98.674,28.618-127.382
			c61.178-35.353,46.963,52.116,120.402,17.13c27.935-13.308,59.13-69.493,75.798-94.914
			c35.229-53.788,108.45-95.535,144.768-65.342c37.991,31.602-33.397,89.029-37.651,129.624
			c-8.598,81.854,83.9-4.936,105.782,37.243c38.893,74.836-103.175,118.233-126.702,134.156
			c-15.985,10.805-22.97,23.528,1.179,35.416c27.253,13.444,98.209-9.967,103.268,19.369
			c20.021,116.301-168.263,81.943-185.458,107.703c-21.232,31.881,73.531,23.375,103.453,51.935
			c48.235,46-66.827,60.181-124.592,63.751C1703.465,1056.641,1807.23,1103.107,1825.544,1117.262L1825.544,1117.262z
			 M1825.544,1117.262"/>
		<path style="fill-rule:evenodd;clip-rule:evenodd;fill:#FFFFFF;" d="M1918.909,495.17c2.235-3.077,6.519-3.76,9.623-1.521
			c3.073,2.235,3.756,6.519,1.521,9.626c-53.046,73.28-105.565,153.986-157.493,242.045
			c54.814-10.836,101.716-23.718,140.732-38.617c42.088-16.078,74.773-34.422,98.053-55.059c2.856-2.518,7.2-2.273,9.715,0.586
			c2.484,2.824,2.235,7.17-0.59,9.68c-24.613,21.798-58.695,41.042-102.274,57.675c-42.431,16.199-94.049,30.05-154.886,41.5
			c-4.066,6.983-8.134,14.002-12.198,21.04c-17.29,30.085-34.516,60.965-51.682,92.714c-0.092,0.19-0.185,0.407-0.311,0.598
			c-6.703,12.351-13.377,24.831-20.051,37.456c61.985-37.09,120.774-41.375,174.689-45.313
			c49.632-3.631,95.043-6.953,133.686-36.348c3.013-2.266,7.327-1.676,9.623,1.334c2.267,3.012,1.677,7.327-1.334,9.592
			c-41.935,31.908-89.238,35.354-141.013,39.143c-58.167,4.252-122.171,8.938-188.812,56.711
			c-13.471,25.795-26.881,52.143-40.258,78.992c38.179-9.251,79.646-15.734,124.343-19.428c50.315-4.162,104.852-4.783,163.608-1.9
			c3.787,0.189,6.736,3.387,6.55,7.174c-0.188,3.786-3.414,6.732-7.201,6.55c-58.013-2.854-111.96-2.2-161.808,1.925
			c-48.484,4.004-93.025,11.297-133.563,21.913c-13.845,28.06-27.688,56.679-41.5,85.858c-1.614,3.441-5.711,4.9-9.156,3.287
			c-3.415-1.611-4.904-5.712-3.26-9.162c14.217-30.104,28.525-59.627,42.835-88.582c0.093-0.213,0.186-0.404,0.311-0.621
			c5.989-12.074,11.949-24.059,17.972-35.946c-39.699-36.22-71.7-70.948-95.975-104.165c-25.296-34.637-42.338-67.755-51.06-99.357
			c-1.023-3.663,1.117-7.445,4.781-8.439c3.661-1.024,7.448,1.146,8.442,4.776c8.287,29.957,24.614,61.582,48.918,94.893
			c23.217,31.752,53.667,64.957,91.317,99.6c7.667-15.119,15.364-30.05,23.062-44.819c0.125-0.28,0.28-0.558,0.436-0.804
			c10.305-19.715,20.609-39.145,30.915-58.268c-28.961-69.277-47.273-151.031-54.94-245.305c-0.278-3.783,2.546-7.104,6.333-7.383
			c3.787-0.307,7.108,2.514,7.417,6.305c7.14,88.175,23.716,165.094,49.695,230.777c14.961-27.504,30.015-54.353,45.101-80.582
			c4.531-7.915,9.094-15.764,13.625-23.559c0.125-0.186,0.218-0.372,0.342-0.559C1807.913,657.536,1863.163,572.206,1918.909,495.17
			L1918.909,495.17z M1918.909,495.17"/>
		<path style="fill-rule:evenodd;clip-rule:evenodd;fill:#C7EBBF;" d="M1703.776,830.764c28.463,6.951,38.705,22.725-47.43,61.12
			c-41.592,18.53-141.383,55.22-186.421,55.343c-70.429,0.186-159.325-33.43-202.004-59.848
			c-33.989-21.041,3.414-60.898,45.968-66.452c126.733-16.641-125.584-68.686-83.712-166.646
			c10.958-25.674,57.61-12.636,90.916-10.836c37.122,2.017,30.2-38.955,18.747-61.49c-22.131-43.544-59.503-81.478-25.764-128.002
			c41.469-57.179,64.128,28.463,116.926-33.406c20.082-23.552,25.67-87.559,30.543-117.57
			c10.243-63.483,60.092-131.421,105.564-118.667c47.583,13.382,5.806,94.915,18.438,133.749
			c25.514,78.219,74.618-38.707,111.772-9.122c66.021,52.515-46.032,150.013-61.024,174.13
			c-10.181,16.385-11.359,30.846,15.52,31.871c30.356,1.183,85.606-49.132,102.182-24.394
			c65.68,98.054-120.246,143.402-125.429,173.945c-6.426,37.779,76.635-8.66,115.621,5.246
			c62.792,22.345-36.502,82.196-87.812,109.014C1567.606,825.146,1681.304,825.303,1703.776,830.764L1703.776,830.764z
			 M1703.776,830.764"/>
		<path style="fill-rule:evenodd;clip-rule:evenodd;fill:#FFFFFF;" d="M1535.512,224.631c0.776-3.698,4.438-6.081,8.163-5.308
			c3.726,0.776,6.083,4.439,5.308,8.168c-18.592,88.552-33.646,183.624-45.193,285.186c45.658-32.215,83.248-63.072,112.797-92.59
			c31.877-31.815,54.257-61.893,67.106-90.236c1.584-3.472,5.65-4.989,9.096-3.41c3.445,1.552,4.966,5.618,3.415,9.095
			c-13.565,29.922-36.876,61.365-69.87,94.293c-32.156,32.103-73.688,65.776-124.562,101.037
			c-0.869,8.039-1.707,16.113-2.546,24.211c-3.537,34.484-6.672,69.718-9.404,105.688c0,0.248,0,0.469-0.062,0.683
			c-1.087,14.034-2.079,28.153-3.041,42.369c41.499-59.103,93.427-86.968,141.072-112.549
			c43.827-23.558,83.932-45.069,107.242-87.651c1.83-3.321,6.021-4.57,9.312-2.735c3.321,1.827,4.563,5.99,2.731,9.311
			c-25.298,46.218-67.106,68.656-112.828,93.211c-51.37,27.594-107.925,57.952-149.331,128.717
			c-1.77,29.06-3.29,58.579-4.563,88.559c31.102-24.021,66.332-46.842,105.658-68.406c44.231-24.308,93.771-47.122,148.617-68.415
			c3.537-1.4,7.51,0.341,8.908,3.876c1.365,3.542-0.373,7.547-3.911,8.916c-54.133,21.041-103.144,43.607-147.004,67.693
			c-42.617,23.399-80.298,48.231-113.013,74.432c-1.21,31.287-2.174,63.072-2.887,95.318c-0.094,3.789-3.229,6.801-7.047,6.738
			c-3.787-0.096-6.798-3.226-6.703-7.014c0.714-33.306,1.737-66.084,3.01-98.368c0-0.214,0-0.462,0-0.683
			c0.527-13.467,1.118-26.849,1.77-40.126c-51.028-16.92-94.391-35.606-130.087-56.06c-37.246-21.293-66.268-44.599-87.127-69.901
			c-2.421-2.917-1.986-7.262,0.932-9.653c2.917-2.417,7.264-2.018,9.685,0.927c19.74,23.966,47.521,46.19,83.309,66.677
			c34.144,19.586,75.489,37.496,123.972,53.764c0.869-16.921,1.8-33.686,2.825-50.315c0-0.311,0-0.629,0.061-0.939
			c1.366-22.193,2.856-44.098,4.502-65.769c-54.691-51.459-104.758-118.667-150.137-201.631c-1.832-3.352-0.591-7.542,2.762-9.343
			c3.321-1.8,7.511-0.59,9.313,2.763c42.491,77.602,88.958,141.074,139.428,190.457c2.483-31.194,5.276-61.834,8.35-91.942
			c0.931-9.091,1.893-18.092,2.856-27.063c0-0.248,0.062-0.461,0.093-0.683c11.795-107.8,27.47-208.212,46.993-301.299H1535.512z
			 M1535.512,224.631"/>
		<path style="fill-rule:evenodd;clip-rule:evenodd;fill:#C7DCF5;" d="M1579.742,1257.402c-279.261,0-505.662,37.558-505.662,83.932
			c0,46.342,226.401,83.93,505.662,83.93c279.292,0,505.694-37.588,505.694-83.93
			C2085.437,1294.96,1859.034,1257.402,1579.742,1257.402L1579.742,1257.402z M1579.742,1257.402"/>
		<path style="fill-rule:evenodd;clip-rule:evenodd;fill:#C7DCF5;" d="M1358.433,1380.505c-106.775,0-193.345,21.046-193.345,46.995
			c0,25.947,86.569,46.992,193.345,46.992s193.344-21.045,193.344-46.992C1551.776,1401.551,1465.208,1380.505,1358.433,1380.505
			L1358.433,1380.505z M1358.433,1380.505"/>
		<path style="fill-rule:evenodd;clip-rule:evenodd;fill:#599DAD;" d="M1436.061,500.788H668.706
			c-37.122,0-67.51,30.352-67.51,67.51v462.331c0,37.123,30.388,67.511,67.51,67.511h767.354c37.124,0,67.512-30.388,67.512-67.511
			V568.298C1503.572,531.14,1473.185,500.788,1436.061,500.788L1436.061,500.788z M1436.061,537.663H668.706
			c-16.853,0-30.635,13.781-30.635,30.635v462.331c0,16.855,13.782,30.637,30.635,30.637h767.354
			c16.855,0,30.638-13.781,30.638-30.637V568.298C1466.698,551.444,1452.916,537.663,1436.061,537.663L1436.061,537.663z
			 M1436.061,537.663"/>
		<path style="fill-rule:evenodd;clip-rule:evenodd;fill:#F8FBFF;" d="M638.071,1030.629V568.298
			c0-16.854,13.782-30.635,30.635-30.635h767.354c16.855,0,30.638,13.781,30.638,30.635v462.331
			c0,16.855-13.782,30.637-30.638,30.637H668.706C651.853,1061.266,638.071,1047.484,638.071,1030.629L638.071,1030.629z
			 M638.071,1030.629"/>
		<rect x="686.803" y="599.652" style="fill-rule:evenodd;clip-rule:evenodd;fill:#C7DCF5;" width="731.132" height="97.405"/>
		<path style="fill-rule:evenodd;clip-rule:evenodd;fill:#C7DCF5;" d="M1404.804,731.193H998.779
			c-5.929,0-10.771,4.846-10.771,10.739c0,5.929,4.842,10.771,10.771,10.771h406.024c5.93,0,10.771-4.842,10.771-10.771
			C1415.575,736.039,1410.733,731.193,1404.804,731.193L1404.804,731.193z M1404.804,833.529H998.779
			c-5.929,0-10.771,4.816-10.771,10.74c0,5.93,4.842,10.74,10.771,10.74h406.024c5.93,0,10.771-4.811,10.771-10.74
			C1415.575,838.346,1410.733,833.529,1404.804,833.529L1404.804,833.529z M1404.804,799.417H998.779
			c-5.929,0-10.771,4.846-10.771,10.74c0,5.928,4.842,10.74,10.771,10.74h406.024c5.93,0,10.771-4.812,10.771-10.74
			C1415.575,804.264,1410.733,799.417,1404.804,799.417L1404.804,799.417z M1404.804,765.305H998.779
			c-5.929,0-10.771,4.846-10.771,10.74c0,5.929,4.842,10.771,10.771,10.771h406.024c5.93,0,10.771-4.842,10.771-10.771
			C1415.575,770.151,1410.733,765.305,1404.804,765.305L1404.804,765.305z M1404.804,765.305"/>
		<rect x="689.193" y="731.193" style="fill-rule:evenodd;clip-rule:evenodd;fill:#C7DCF5;" width="264.99" height="123.817"/>
		<path style="fill-rule:evenodd;clip-rule:evenodd;fill:#C7DCF5;" d="M699.932,884.931h406.057c5.898,0,10.74,4.842,10.74,10.735
			c0,5.938-4.842,10.775-10.74,10.775H699.932c-5.897,0-10.739-4.838-10.739-10.775
			C689.193,889.773,694.035,884.931,699.932,884.931L699.932,884.931z M699.932,987.236h406.057c5.898,0,10.74,4.842,10.74,10.768
			c0,5.904-4.842,10.742-10.74,10.742H699.932c-5.897,0-10.739-4.838-10.739-10.742
			C689.193,992.078,694.035,987.236,699.932,987.236L699.932,987.236z M699.932,953.125h406.057c5.898,0,10.74,4.842,10.74,10.767
			c0,5.905-4.842,10.743-10.74,10.743H699.932c-5.897,0-10.739-4.838-10.739-10.743
			C689.193,957.967,694.035,953.125,699.932,953.125L699.932,953.125z M699.932,919.044h406.057c5.898,0,10.74,4.841,10.74,10.735
			c0,5.935-4.842,10.742-10.74,10.742H699.932c-5.897,0-10.739-4.807-10.739-10.742
			C689.193,923.885,694.035,919.044,699.932,919.044L699.932,919.044z M699.932,919.044"/>
		<rect x="1150.562" y="884.931" style="fill-rule:evenodd;clip-rule:evenodd;fill:#C7DCF5;" width="265.014" height="123.815"/>
		<rect x="976.121" y="1098.14" style="fill-rule:evenodd;clip-rule:evenodd;fill:#347E8F;" width="150.913" height="93.708"/>
		<path style="fill-rule:evenodd;clip-rule:evenodd;fill:#599DAD;" d="M976.121,1191.848h-81.199c-4.066,0-6.425,3.508-7.388,7.391
			l-9.001,36.096c-0.962,3.911,3.352,7.388,7.387,7.388h331.314c4.004,0,8.38-3.444,7.387-7.388l-9.001-36.096
			c-0.993-3.949-3.322-7.391-7.387-7.391H976.121z M976.121,1191.848"/>
		<path style="fill-rule:evenodd;clip-rule:evenodd;fill:#599DAD;" d="M796.527,810.192H561.559
			c-22.813,0-41.438,18.617-41.438,41.429l0.28,509.268c0,22.813,18.624,41.438,41.438,41.438h234.968
			c22.845,0,41.469-18.656,41.438-41.469l-0.248-509.236C837.996,828.809,819.341,810.192,796.527,810.192L796.527,810.192z
			 M796.527,810.192"/>
		<path style="fill-rule:evenodd;clip-rule:evenodd;fill:#F8FBFF;" d="M796.527,821.459H561.559
			c-16.575,0-30.17,13.564-30.139,30.162l0.249,509.268c0,16.574,13.596,30.17,30.17,30.17h234.968
			c16.606,0,30.17-13.596,30.17-30.17l-0.248-509.268C826.729,835.023,813.133,821.459,796.527,821.459L796.527,821.459z
			 M796.527,821.459"/>
		<path style="fill-rule:evenodd;clip-rule:evenodd;fill:#AEC8E6;" d="M796.527,833.84H561.559c-9.777,0-17.785,8.008-17.785,17.781
			l0.279,509.268c0,9.777,8.008,17.785,17.786,17.785h234.968c9.809,0,17.785-8.008,17.785-17.785l-0.248-509.268
			C814.343,841.848,806.335,833.84,796.527,833.84L796.527,833.84z M796.527,833.84"/>
		<path style="fill-rule:evenodd;clip-rule:evenodd;fill:#DEEDFF;" d="M803.045,869.477H658.371l0.062,144.676h144.674
			L803.045,869.477z M803.045,869.477"/>
		<path style="fill-rule:evenodd;clip-rule:evenodd;fill:#DEEDFF;" d="M646.731,869.477h-90.418l0.062,144.676h90.449
			L646.731,869.477z M646.731,869.477"/>
		<path style="fill-rule:evenodd;clip-rule:evenodd;fill:#DEEDFF;" d="M803.139,1025.85H556.375l0.062,72.321h246.763
			L803.139,1025.85z M803.139,1025.85"/>
		<path style="fill-rule:evenodd;clip-rule:evenodd;fill:#DEEDFF;" d="M803.169,1115.242h-73.314l0.093,148.586h73.284
			L803.169,1115.242z M803.169,1115.242"/>
		<path style="fill-rule:evenodd;clip-rule:evenodd;fill:#DEEDFF;" d="M716.942,1115.242H556.438l0.062,148.586h160.504
			L716.942,1115.242z M716.942,1115.242"/>
		<path style="fill-rule:evenodd;clip-rule:evenodd;fill:#DEEDFF;" d="M803.263,1276.741H556.5l0.062,72.352h246.763
			L803.263,1276.741z M803.263,1276.741"/>
		<path style="fill-rule:evenodd;clip-rule:evenodd;fill:#F99746;" d="M727.464,607.94
			C749.223,477.322,849.48,367.625,987.046,340.38c138.125-27.415,273.177,36.375,342.892,149.672
			C1178.311,300.274,863.106,332.741,802.89,592.975l44.387-8.785l-83.154,149.916L687.114,615.94L727.464,607.94z M727.464,607.94"
			/>
		<path style="fill-rule:evenodd;clip-rule:evenodd;fill:#ED7D2B;" d="M781.41,597.258
			c31.785-128.472,127.262-202.194,234.689-221.462c-98.675,21.506-184.653,93.708-213.21,217.179L781.41,597.258z M781.41,597.258"
			/>
		<rect x="1880.389" y="1215.562" style="fill-rule:evenodd;clip-rule:evenodd;fill:#347E8F;" width="26.665" height="70.019"/>
		<path style="fill-rule:evenodd;clip-rule:evenodd;fill:#347E8F;" d="M1901.124,793.99h-41.034v304.493h41.034V793.99z
			 M1368.054,793.99h-41.002v304.493h41.002V793.99z M1368.054,793.99"/>
		<path style="fill-rule:evenodd;clip-rule:evenodd;fill:#599DAD;" d="M2033.477,793.99h-838.777c-4.314,0-7.852,3.442-7.852,7.659
			v63.138c0,4.251,3.538,7.694,7.852,7.694h838.777c4.314,0,7.822-3.443,7.822-7.694v-63.138
			C2041.299,797.431,2037.791,793.99,2033.477,793.99L2033.477,793.99z M2033.477,793.99"/>
		<path style="fill-rule:evenodd;clip-rule:evenodd;fill:#599DAD;" d="M2033.477,949.523h-838.777c-4.314,0-7.852,3.477-7.852,7.702
			v63.13c0,4.221,3.538,7.668,7.852,7.668h838.777c4.314,0,7.822-3.447,7.822-7.668v-63.13
			C2041.299,953,2037.791,949.523,2033.477,949.523L2033.477,949.523z M2033.477,949.523"/>
		<path style="fill-rule:evenodd;clip-rule:evenodd;fill:#AEC8E6;" d="M2017.056,1098.482H1211.12c-4.159,0-5.215,4.252-7.543,7.701
			l-42.865,63.131c-2.297,3.418,3.477,7.666,7.543,7.666h891.604c4.066,0,9.902-4.194,7.542-7.666l-42.803-63.131
			C2022.24,1102.703,2021.184,1098.482,2017.056,1098.482L2017.056,1098.482z M2017.056,1098.482"/>
		<path style="fill-rule:evenodd;clip-rule:evenodd;fill:#599DAD;" d="M1160.463,1172.264v37.34c0,3.254,2.42,5.958,5.401,5.958
			h896.416c2.98,0,5.401-2.704,5.401-5.958v-37.311c-1.024,2.51-4.873,4.688-7.822,4.688h-891.604
			C1165.337,1176.98,1161.519,1174.773,1160.463,1172.264L1160.463,1172.264z M1160.463,1172.264"/>
		<path style="fill-rule:evenodd;clip-rule:evenodd;fill:#599DAD;" d="M1947.032,1215.562h-39.979v174.132h39.979V1215.562z
			 M1301.195,1215.562h-39.979v174.132h39.979V1215.562z M1301.195,1215.562"/>
		<path style="fill-rule:evenodd;clip-rule:evenodd;fill:#233862;" d="M1241.352,1436.377c36.813-0.591,64.346-1.025,77.04-5.029
			c13.719-4.346,10.896-12.695,3.01-26.104c-34.702,15.984-25.451-3.26-41.685-0.839c-11.392,9.188-28.278,15.334-50.657,18.47
			C1219.593,1429.857,1223.442,1436.065,1241.352,1436.377L1241.352,1436.377z M1241.352,1436.377"/>
		<path style="fill-rule:evenodd;clip-rule:evenodd;fill:#699DEE;" d="M1288.655,875.492h227.457c4.469,0,9.094,3.661,10.274,8.136
			l40.475,154.106c1.18,4.473-1.521,8.166-6.021,8.166h-227.458c-4.47,0-9.095-3.693-10.273-8.166l-40.475-154.106
			C1281.454,879.153,1284.155,875.492,1288.655,875.492L1288.655,875.492z M1288.655,875.492"/>
		<path style="fill-rule:evenodd;clip-rule:evenodd;fill:#F99746;" d="M1531.26,879.934l27.47,104.604
			c32.994-16.076,72.725-41.935,114.41-75.084c1.148-14.9,2.516-26.787,4.191-35.662c-3.353-6.642-7.016-13.723-11.02-21.265
			c38.488-0.245,61.955-8.534,70.397-24.833c-10.306-30.107-24.676-60.863-43.145-92.252
			c-12.943-19.116-38.241-30.353-75.953-33.705c-4.409,50.559-81.944,47.953-63.724,4.438c-28.123,7.574-51.961,21.51-71.483,41.868
			c-16.824,41.411-27.068,70.308-30.762,86.693c18.252,12.791,35.541,21.049,51.868,24.809c0.744,3.596,1.334,7.658,1.737,12.23
			h15.706C1525.454,871.775,1530.079,875.437,1531.26,879.934L1531.26,879.934z M1531.26,879.934"/>
		<path style="fill-rule:evenodd;clip-rule:evenodd;fill:#4A75CB;" d="M1558.729,984.537l-27.47-104.604
			c-1.181-4.497-5.806-8.158-10.306-8.158h-227.457c-4.47,0-12.446,5.799-11.112,10.237c-0.217-3.724,2.329-6.521,6.271-6.521
			h227.457c4.469,0,9.094,3.661,10.274,8.136l40.475,154.106c0.714,2.703,0,5.094-1.613,6.579c3.724-2.417,7.293-7.104,6.486-10.267
			L1558.729,984.537z M1558.729,984.537"/>
		<path style="fill-rule:evenodd;clip-rule:evenodd;fill:#4A75CB;" d="M1560.841,1045.9h-227.458c-0.838,0-1.676-0.156-2.482-0.373
			c4.531,11.73,16.823,10,21.634,9.964h269.67c14.62-0.614,14.216-10.858,14.403-20.769h-64.78c0.218,3.14-3.104,7.326-6.579,9.591
			C1564.161,1045.307,1562.639,1045.9,1560.841,1045.9L1560.841,1045.9z M1560.841,1045.9"/>
		<path style="fill-rule:evenodd;clip-rule:evenodd;fill:#4A75CB;" d="M1529.024,938.847c-24.396,12.354-53.232,16.14-82.906,17.66
			c0.341,1.061,0.59,2.142,0.777,3.26c1.985,12.509-6.831,23.124-19.557,23.124c-11.981,0-22.875-9.463-24.737-21.297
			c-0.218-1.269-0.28-2.541-0.28-3.748c-30.791,0.803-60.527,2.512-85.141,12.134l16.917,64.401h220.007L1529.024,938.847z
			 M1529.024,938.847"/>
		<path style="fill-rule:evenodd;clip-rule:evenodd;fill:#4A75CB;" d="M1422.404,945.926c8.163,0,15.799,6.608,17.102,14.773
			c1.305,8.127-4.281,14.746-12.415,14.746c-8.163,0-15.83-6.619-17.103-14.746C1408.686,952.534,1414.272,945.926,1422.404,945.926
			L1422.404,945.926z M1422.404,945.926"/>
		<path style="fill-rule:evenodd;clip-rule:evenodd;fill:#F99746;" d="M1684.129,1008.344c-4.564-13.844-7.822-28.185-9.81-43.053
			c-30.636,11.853-65.648,23.279-109.941,40.785l5.991,22.783C1637.29,1031.037,1675.188,1024.205,1684.129,1008.344
			L1684.129,1008.344z M1684.129,1008.344"/>
		<path style="fill-rule:evenodd;clip-rule:evenodd;fill:#FFB27D;" d="M1564.378,1006.076
			c44.293-17.506,79.306-28.932,109.941-40.785c27.005-10.461,50.595-21.231,74.06-36.781c-0.963-29.984-5.431-59.008-17.848-92.653
			c-11.392,10.896-32.808,16.448-64.22,16.67c9.094,17.164,16.513,32.001,22.225,44.452
			c-47.242,39.167-92.777,69.496-129.807,87.559L1564.378,1006.076z M1564.378,1006.076"/>
		<path style="fill-rule:evenodd;clip-rule:evenodd;fill:#FFB27D;" d="M1457.541,838.71c-3.415,11.919-6.581,22.941-9.498,33.065
			h57.205c-0.403-4.572-0.993-8.635-1.737-12.23C1488.953,856.188,1473.619,849.269,1457.541,838.71L1457.541,838.71z
			 M1457.541,838.71"/>
		<path style="fill-rule:evenodd;clip-rule:evenodd;fill:#233862;" d="M1318.64,1393.138
			c33.834-122.698,45.938-208.895,36.316-258.558c19.244,2.736,38.551,3.602,57.918,2.576c-2.947-13.284-5.896-26.604-8.906-40.07
			c0.34-18.287,9.684-31.848,42.833-41.595h-94.267c-3.197,0.036-9.746,0.807-15.084-2.172
			c-30.388,8.66-45.226,23.001-50.284,40.507c-3.693,48.115,6.302,102.956-2.235,299.686
			C1295.577,1394.598,1306.814,1394.474,1318.64,1393.138L1318.64,1393.138z M1318.64,1393.138"/>
		<path style="fill-rule:evenodd;clip-rule:evenodd;fill:#2B478B;" d="M1353.994,1055.491h-1.46
			c-3.229,0.036-9.746,0.807-15.084-2.172c-30.388,8.692-45.226,23.001-50.284,40.507c-3.693,48.115,6.302,102.956-2.235,299.686
			c6.363,0.65,12.912,0.867,19.679,0.65c17.477-68.38,59.068-236.115,12.229-308.41
			C1327.827,1074.088,1340.212,1063.996,1353.994,1055.491L1353.994,1055.491z M1353.994,1055.491"/>
		<path style="fill-rule:evenodd;clip-rule:evenodd;fill:#FFB27D;" d="M1617.549,702.268c-6.021-7.671-11.329-14.814-12.881-19.865
			c1.21-3.45,2.482-7.826,3.816-13.103c22.566-15.337,25.64-26.694,9.251-34.05c-3.321,1.859-7.419,7.573-12.324,17.134
			c-3.909-0.155-6.89-2.173-8.906-5.995c4.687-16.167,7.696-29.266,9.125-39.354c-11.144-16.513-37.155-18.872-71.607-14.433
			c-1.584,9.188-2.889,18.903-3.911,29.146c-6.115,5.618-5.309,26.415,0.311,50.381c-2.825,13.649,5.586,21.072,25.234,22.313
			c0.279,4.846-1.613,11.019-1.769,11.733v0.031c0,0.035-0.063,0.09-0.063,0.155
			C1535.915,749.568,1612.646,752.206,1617.549,702.268L1617.549,702.268z M1617.549,702.268"/>
		<path style="fill-rule:evenodd;clip-rule:evenodd;fill:#233862;" d="M1534.022,592.602c34.452-4.439,60.464-2.08,71.607,14.433
			c-1.429,10.088-4.438,23.187-9.125,39.354c2.017,3.822,4.997,5.84,8.906,5.995c4.905-9.561,9.003-15.275,12.324-17.134
			c16.389,7.356,13.315,18.69-9.251,34.05c-1.334,5.276-2.606,9.653-3.816,13.103c20.3-4.536,37.277-22.725,39.667-30.578
			c23.714-46.684-2.7-66.42-16.854-73.594c-6.239-46.25-73.376-5.374-107.022-27.656
			C1507.08,569.044,1523.593,592.199,1534.022,592.602L1534.022,592.602z M1534.022,592.602"/>
		<path style="fill-rule:evenodd;clip-rule:evenodd;fill:#F08261;" d="M1581.17,693.852c-9.498,0.78-18.002,0.962-25.514,0.59
			c0.186,3.352-0.651,7.294-1.241,9.684C1566.582,703.816,1575.521,700.402,1581.17,693.852L1581.17,693.852z M1581.17,693.852"/>
		<path style="fill-rule:evenodd;clip-rule:evenodd;fill:#2B478B;" d="M1651.507,1127.596
			c39.668-14.246,45.068-53.762,27.623-113.479c-14.339,11.732-50.593,16.633-108.761,14.742l1.365,5.188
			c0.031,0.215,0.093,0.463,0.093,0.676h64.78c-0.188,9.91,0.217,20.154-14.403,20.769h-175.403
			c-33.149,9.747-42.493,23.308-42.833,41.595c20.981,93.799,39.636,179.809,65.089,298.658c8.566,4.781,20.3,4.439,35.198-1.115
			c11.919-115.25,8.66-199.053-9.808-251.45C1543.52,1143.361,1595.883,1136.688,1651.507,1127.596L1651.507,1127.596z
			 M1651.507,1127.596"/>
		<path style="fill-rule:evenodd;clip-rule:evenodd;fill:#233862;" d="M1651.507,1127.596
			c39.668-14.246,45.068-53.762,27.623-113.479c-3.042,2.482-7.106,4.658-12.136,6.551c14.465,61.367-1.241,95.01-47.894,98.236
			c-54.412,8.07-99.512,11.952-135.331,11.641c15.799,102.307,18.498,191.544,8.132,267.652c3.85-0.744,7.946-1.924,12.354-3.568
			c11.919-115.25,8.66-199.053-9.808-251.45C1543.52,1143.361,1595.883,1136.688,1651.507,1127.596L1651.507,1127.596z
			 M1651.507,1127.596"/>
		<path style="fill-rule:evenodd;clip-rule:evenodd;fill:#FCB88D;" d="M1288.501,1393.82c-0.994,3.695-2.608,7.172-4.812,10.43
			c10.614,0.994,6.518,14.682,35.199,2.143c-1.212-3.633-1.895-7.979-2.05-13.068
			C1306.969,1394.348,1297.501,1394.504,1288.501,1393.82L1288.501,1393.82z M1288.501,1393.82"/>
		<path style="fill-rule:evenodd;clip-rule:evenodd;fill:#233862;" d="M1469.149,1457.916c19.555-8.068,22.473-21.199,33.213-26.196
			c10.832-5.059,12.074-14.06,1.489-23.838c-7.822,6.239-17.507,13.905-22.659,9.839c-3.414-2.699-15.054-2.514-17.352,1.429
			c-10.148,23.56-24.24,16.078-27.003,26.786C1436.496,1460.215,1456.857,1462.977,1469.149,1457.916L1469.149,1457.916z
			 M1469.149,1457.916"/>
		<path style="fill-rule:evenodd;clip-rule:evenodd;fill:#FFB27D;" d="M1472.471,1397.328c0.187,6.239-0.683,12.541-2.576,18.841
			c4.191-0.651,9.25-0.062,11.298,1.552c4.78,3.787,13.441-2.545,20.92-8.441c-1.21-3.385-2.048-7.76-2.451-13.068
			C1488.735,1399.625,1479.672,1399.998,1472.471,1397.328L1472.471,1397.328z M1472.471,1397.328"/>
		<path style="fill-rule:evenodd;clip-rule:evenodd;fill:#ED7D2B;" d="M1666.312,852.526c-5.028-9.161-10.397-21.444-16.017-36.906
			c3.011,18.003,2.854,30.945,7.76,45.752c-3.941,20.921-5.586,42.241-5.183,63.751c6.703-4.99,13.47-10.242,20.268-15.67
			c1.148-14.9,2.516-26.787,4.191-35.662C1673.979,867.149,1670.315,860.068,1666.312,852.526L1666.312,852.526z M1491.746,856.127
			c3.974,1.4,7.883,2.545,11.765,3.418c-1.46-22.875-2.422-41.814-2.888-56.744C1496.216,824.87,1493.267,842.66,1491.746,856.127
			L1491.746,856.127z M1684.129,1008.344c-4.564-13.844-7.822-28.185-9.81-43.053c-5.68,2.209-11.484,4.377-17.506,6.581
			c2.421,16.296,5.866,32.562,10.242,48.762C1675.624,1017.441,1681.304,1013.34,1684.129,1008.344L1684.129,1008.344z
			 M1684.129,1008.344"/>
		<path style="fill-rule:evenodd;clip-rule:evenodd;fill:#F99746;" d="M1196.903,1250.357
			c-85.482,61.117-203.307,66.455-295.867,4.594c-92.9-62.109-132.942-173.696-108.544-276.405
			c-21.324,191.602,173.882,350.248,353.693,237.89l-29.859-19.963l130.769-37.527l-23.063,109.57L1196.903,1250.357z
			 M1196.903,1250.357"/>
		<path style="fill-rule:evenodd;clip-rule:evenodd;fill:#ED7D2B;" d="M1160.619,1226.115
			c-89.891,54.287-184.871,42.09-256.013-7.352c67.48,43.295,156.251,50.961,241.579-2.328L1160.619,1226.115z M1160.619,1226.115"
			/>
	</g>
</g>
<g id="Illustration">
</g>
</svg>
