<?xml version="1.0" encoding="utf-8"?>
<!-- Generator: Adobe Illustrator 27.5.0, SVG Export Plug-In . SVG Version: 6.00 Build 0)  -->
<svg version="1.1" id="_x30_5" xmlns="http://www.w3.org/2000/svg" xmlns:xlink="http://www.w3.org/1999/xlink" x="0px" y="0px"
	 viewBox="0 0 4680 3120" style="enable-background:new 0 0 4680 3120;" xml:space="preserve">
<g>
	<rect id="_x30_5_1_" style="opacity:0;fill:#FFFFFF;" width="4680" height="3120"/>
	<g>
		<g>
			<path style="fill:#D6E6FE;" d="M3695.898,1585.04c-273.061-94.005,272.254-115.795,98.986-728.269
				c-8.722-30.827-46.71-122.259-55.119-138.289C3523.316,305.783,2592.547,237.5,2480.127,575.897
				c-59.597,179.367,38.226-4.257-774.542-27.249c-354.59-10.031-582.772,121.431-682.878,355.416
				c-7.757,18.085-14.861,36.554-21.313,55.324c-62.877,182.76-64.164,394.146,11.26,561.612
				c183.375,407.157-237.844,40.067-336.352,317.922c-180.313,508.596,296.022,799.803,296.022,799.803l2662.964,4.212
				C4054.695,2443.29,4085.901,1719.302,3695.898,1585.04z"/>
			<g>
				<g>
					<g>
						<g>
							<g>
								<g>
									<g>
										<path style="fill:#F9692E;" d="M1435.918,949.278l62.425-41.298c-7.908-28.055-19.118-54.658-32.902-79.548
											l-73.347,14.729l-48.006-56.361l26.085-70.044c-22.559-17.753-47.33-32.86-73.547-45.102l-50.617,55.039l-71.979-17.256
											l-20.101-71.966c-13.581-0.461-27.279-0.266-41.171,0.685c-15.211,1.139-30.074,3.275-44.536,6.123l-8.655,74.202
											l-68.348,28.373l-58.547-46.277c-24.038,16.108-45.92,34.931-65.361,55.916l36.656,65.075l-38.572,63.257l-74.698-3.063
											c-9.791,26.703-16.531,54.773-19.984,83.759l68.081,31.037l6.067,73.816l-62.248,41.476
											c7.741,27.21,18.571,53.067,31.892,77.188l73.362-14.42l47.843,56.499l-26.308,69.935
											c22.5,17.749,47.031,32.964,73.228,45.159l50.783-54.725l71.923,17.49l19.888,71.961c13.98,0.612,28.18,0.485,42.445-0.62
											c14.683-1.042,29.162-3.07,43.386-5.757l8.766-74.266l68.586-28.137l58.37,46.603
											c24.022-15.996,45.947-34.78,65.537-55.787l-36.476-65.165l38.846-63.084l74.678,3.281
											c9.848-26.694,16.734-54.736,20.316-83.717l-68.003-31.171L1435.918,949.278z M1276.371,1105.475
											c-53.095,75.252-157.222,93.314-232.59,39.878c-75.193-53.127-93.024-157.253-39.64-232.303
											c53.008-75.303,156.948-93.069,232.312-40.082C1311.93,926.285,1329.449,1030.381,1276.371,1105.475z"/>
									</g>
									<g>
										<path style="fill:#FF742E;" d="M1281.156,809.989c-110.23-77.989-262.48-51.789-340.352,58.195
											c-77.768,110.087-51.482,262.588,58.573,340.361c109.996,77.799,262.412,51.682,340.179-58.406
											C1417.322,1040.154,1391.176,887.748,1281.156,809.989z M1320.014,1136.326
											c-70.146,99.298-207.623,122.856-306.839,52.681c-99.27-70.151-122.979-207.706-52.833-307.003
											c70.24-99.206,207.568-122.837,306.995-52.492C1366.575,899.65,1390.158,1037.12,1320.014,1136.326z"/>
									</g>
									<g>
										<path style="fill:#FF742E;" d="M1359.184,987.048c5.203,51.05-7.244,104.124-39.17,149.277
											c-14.603,20.671-32.153,38.008-51.638,51.953c-9.482,15.019-19.629,29.937-30.485,44.701
											c39.522-17.196,74.987-45.074,101.665-82.839c45.783-64.751,55.513-144.196,33.353-214.465
											C1368.93,952.555,1364.374,969.708,1359.184,987.048z"/>
									</g>
								</g>
							</g>
						</g>
						<g>
							<g>
								<g>
									<g>
										<path style="fill:#FFA900;" d="M1449.661,922.4l62.424-41.298c-7.907-28.056-19.118-54.658-32.902-79.548l-73.347,14.729
											l-48.006-56.361l26.084-70.044c-22.559-17.753-47.33-32.86-73.547-45.102l-50.617,55.039l-71.979-17.256l-20.101-71.966
											c-13.581-0.461-27.279-0.266-41.171,0.685c-15.211,1.139-30.074,3.275-44.536,6.123l-8.655,74.202l-68.349,28.373
											l-58.547-46.277c-24.038,16.108-45.92,34.931-65.361,55.916l36.656,65.074l-38.572,63.258l-74.698-3.063
											c-9.791,26.703-16.531,54.773-19.984,83.759l68.081,31.038l6.067,73.816l-62.248,41.476
											c7.74,27.21,18.571,53.067,31.892,77.188l73.362-14.421l47.843,56.499l-26.308,69.935
											c22.5,17.748,47.031,32.964,73.228,45.159l50.783-54.725l71.923,17.49l19.888,71.961
											c13.98,0.612,28.181,0.485,42.445-0.62c14.683-1.042,29.162-3.07,43.386-5.757l8.766-74.265l68.586-28.137l58.37,46.603
											c24.023-15.996,45.947-34.78,65.537-55.787l-36.476-65.165l38.846-63.084l74.678,3.281
											c9.848-26.694,16.734-54.735,20.316-83.716l-68.003-31.171L1449.661,922.4z M1290.114,1078.598
											c-53.095,75.252-157.222,93.314-232.59,39.878c-75.193-53.126-93.023-157.253-39.64-232.303
											c53.008-75.303,156.948-93.069,232.312-40.082C1325.673,899.407,1343.192,1003.503,1290.114,1078.598z"/>
									</g>
									<g>
										<path style="fill:#F9692E;" d="M1294.899,783.111c-110.231-77.989-262.48-51.789-340.352,58.195
											c-77.768,110.087-51.482,262.588,58.573,340.361c109.996,77.799,262.412,51.681,340.179-58.406
											C1431.065,1013.276,1404.919,860.87,1294.899,783.111z M1333.757,1109.448c-70.146,99.298-207.623,122.856-306.839,52.682
											c-99.27-70.151-122.979-207.706-52.833-307.003c70.24-99.206,207.568-122.837,306.995-52.492
											C1380.318,872.772,1403.901,1010.242,1333.757,1109.448z"/>
									</g>
								</g>
							</g>
						</g>
					</g>
				</g>
				<g>
					<path style="fill:none;stroke:#000000;stroke-width:7;stroke-miterlimit:10;" d="M1449.661,922.4l62.424-41.298
						c-7.907-28.056-19.118-54.658-32.902-79.548l-73.347,14.729l-48.006-56.361l26.084-70.044
						c-22.559-17.753-47.33-32.86-73.547-45.102l-50.617,55.039l-71.979-17.256l-20.101-71.966
						c-13.581-0.461-27.279-0.266-41.171,0.685c-15.211,1.139-30.074,3.275-44.536,6.123l-8.655,74.202l-68.349,28.373
						l-58.547-46.277c-24.038,16.108-45.92,34.931-65.361,55.916l36.656,65.074l-38.572,63.258l-74.698-3.063
						c-9.791,26.703-16.531,54.773-19.984,83.759l68.081,31.038l6.067,73.816l-62.248,41.476
						c7.74,27.21,18.571,53.067,31.892,77.188l73.362-14.421l47.843,56.499l-26.308,69.935c22.5,17.748,47.031,32.964,73.228,45.159
						l50.783-54.725l71.923,17.49l19.888,71.961c13.98,0.612,28.181,0.485,42.445-0.62c14.683-1.042,29.162-3.07,43.386-5.757
						l8.766-74.265l68.586-28.137l58.37,46.603c24.023-15.996,45.947-34.78,65.537-55.787l-36.476-65.165l38.846-63.084
						l74.678,3.281c9.848-26.694,16.734-54.735,20.316-83.716l-68.003-31.171L1449.661,922.4z M1290.114,1078.598
						c-53.095,75.252-157.222,93.314-232.59,39.878c-75.193-53.126-93.023-157.253-39.64-232.303
						c53.008-75.303,156.948-93.069,232.312-40.082C1325.673,899.407,1343.192,1003.503,1290.114,1078.598z"/>
				</g>
				<g>
					<g>
						<path d="M1153.447,1230.083c-50.737,0.002-100.12-15.595-142.369-45.477c-111.55-78.829-138.202-233.703-59.411-345.238
							c38.22-53.98,95.151-89.854,160.31-101.018c65.196-11.17,130.869,3.741,184.923,41.985
							c53.97,38.144,89.857,95.058,101.048,160.255c11.19,65.193-3.659,130.813-41.811,184.773
							c-38.146,54-95.065,89.901-160.27,101.089C1181.708,1228.882,1167.521,1230.083,1153.447,1230.083z M1154.271,741.737
							c-13.647,0-27.39,1.162-41.113,3.513c-63.316,10.848-118.639,45.708-155.776,98.16
							c-76.563,108.38-50.663,258.878,57.737,335.481c52.443,37.093,116.213,51.534,179.563,40.663
							c63.361-10.872,118.669-45.757,155.737-98.23c37.074-52.434,51.502-116.199,40.629-179.548
							c-10.875-63.354-45.746-118.658-98.19-155.724l-0.001-0.001C1251.706,756.936,1203.626,741.737,1154.271,741.737z"/>
					</g>
				</g>
			</g>
			<g>
				<g>
					<g>
						<g>
							<path style="fill:#9DB8FD;" d="M1518.107,1977.627c-32.696-29.241-72.936-11.667-104.432,9.984
								c-70.467,48.439-145.929,125.606-172.83,230.142c-29.585,114.968-32.29,245.77-35.139,370.241
								c-0.393,17.186-4.734,52.981,0.328,76.761c12.13-3.171,24.383-6.052,36.834-7.526c5.026-15.785,8.829-33.659,11.714-43.13
								c33.723-110.722,81.636-212.672,146-292.676c57.078-70.949,129.665-111.149,148.741-225.53
								c5.915-35.468-0.615-79.018-20.659-106.501C1525.486,1985.035,1521.968,1981.081,1518.107,1977.627z"/>
							<g>
								<path d="M1203.374,2669.069l-0.763-3.584c-3.929-18.456-2.349-43.784-1.196-62.278c0.374-5.996,0.697-11.174,0.792-15.292
									l0.09-3.926c2.843-124.362,5.784-252.958,35.159-367.107c12.497-48.562,36.298-94.801,70.745-137.436
									c28.432-35.19,63.251-67.058,103.492-94.719c19.657-13.513,37.024-21.569,53.094-24.63
									c21.317-4.062,40.042,0.96,55.654,14.922h0c3.956,3.539,7.674,7.681,11.051,12.312
									c19.222,26.356,27.775,70.215,21.283,109.139c-14.191,85.094-56.958,128.971-102.235,175.424
									c-15.821,16.232-32.181,33.017-47.23,51.724c-60.432,75.117-109.345,173.192-145.379,291.502
									c-1.151,3.78-2.454,8.932-3.961,14.898c-2.229,8.822-4.756,18.821-7.766,28.273l-0.684,2.148l-2.239,0.265
									c-12.744,1.509-25.532,4.606-36.36,7.437L1203.374,2669.069z M1478.771,1965.729c-18.153,0-39.078,8.244-63.114,24.767
									c-39.683,27.278-74.005,58.686-102.013,93.35c-33.813,41.85-57.166,87.196-69.41,134.78
									c-29.174,113.37-32.105,241.557-34.94,365.523l-0.09,3.926c-0.097,4.255-0.424,9.498-0.803,15.567
									c-1.054,16.885-2.47,39.593,0.378,56.789c9.584-2.446,20.434-4.944,31.42-6.394c2.658-8.623,4.945-17.674,6.982-25.733
									c1.53-6.053,2.851-11.281,4.051-15.223c36.296-119.168,85.626-218.034,146.621-293.85
									c15.259-18.967,31.737-35.873,47.672-52.222c44.49-45.646,86.513-88.76,100.343-171.69
									c6.202-37.188-1.849-78.928-20.035-103.863c-3.087-4.234-6.473-8.008-10.063-11.219l0,0
									C1504.966,1970.57,1492.682,1965.729,1478.771,1965.729z"/>
							</g>
						</g>
						<g>
							<path style="fill:#9DB8FD;" d="M1186.235,2647.617c-3.423-11.601-6.872-23.001-11.099-34.337
								c-9.214-24.714-19.748-48.628-29.848-72.794c-16.147-38.638-33.456-76.834-55.081-110.926
								c-22.028-34.728-49.112-65.139-80.089-80.92c-74.387-37.894-186.395,13.044-198.942,120.803
								c-4.139,35.541,6.005,77.735,29.215,100.703c11.143,11.026,24.386,16.99,37.466,19.779c17.728,3.78,35.603,2.002,51.79-5.149
								c39.493-17.448,83.953-43.555,129.474-35.93c4.586,0.768,9.167,2.031,13.695,3.737c24.434,9.208,46.15,30.769,65.453,53.827
								c15.754,18.818,31.269,37.85,40.425,62.681l13.747-2.571c-0.073-0.263-0.116-0.549-0.192-0.811
								C1190.515,2659.739,1188.152,2654.117,1186.235,2647.617z"/>
							<g>
								<path d="M1176.433,2673.076l-1.022-2.773c-8.594-23.304-22.517-40.971-39.825-61.645
									c-16.329-19.506-38.361-43.135-64.004-52.798c-4.365-1.645-8.751-2.843-13.038-3.56
									c-37.338-6.256-73.539,10.649-108.551,26.996c-6.544,3.055-12.726,5.941-18.931,8.683c-16.849,7.443-35.499,9.3-53.935,5.37
									c-15.447-3.293-28.636-10.263-39.198-20.714c-22.683-22.447-34.831-64.079-30.229-103.596
									c5.988-51.424,35.069-94.659,79.788-118.618c40.846-21.884,87.282-23.716,124.219-4.899
									c28.762,14.653,56.168,42.297,81.456,82.164c22.672,35.742,40.705,76.396,55.355,111.451
									c2.48,5.934,4.986,11.853,7.492,17.771c7.585,17.914,15.429,36.438,22.406,55.15c4.318,11.581,7.889,23.428,11.176,34.57
									l0,0c0.935,3.167,1.997,6.176,3.025,9.085c1.032,2.923,2.1,5.946,2.993,9.022c0.062,0.213,0.113,0.438,0.162,0.664
									l0.041,0.185l0.979,3.652l-3.708,0.726L1176.433,2673.076z M1042.585,2543.999c5.686,0,11.392,0.438,17.115,1.397
									c4.733,0.792,9.562,2.109,14.351,3.913c27.167,10.238,50.024,34.694,66.902,54.856
									c17.072,20.392,30.945,37.963,39.972,60.949l7.069-1.322c-0.615-1.892-1.284-3.784-1.978-5.748
									c-1.057-2.995-2.152-6.092-3.138-9.436c-3.252-11.023-6.783-22.736-11.021-34.105
									c-6.923-18.569-14.737-37.021-22.293-54.866c-2.511-5.929-5.021-11.858-7.505-17.802
									c-14.536-34.783-32.416-75.101-54.807-110.4c-24.607-38.793-51.093-65.601-78.722-79.676
									c-34.896-17.777-78.91-15.971-117.735,4.832c-42.67,22.862-70.422,64.143-76.141,113.258
									c-4.298,36.905,7.298,77.126,28.2,97.811c9.595,9.494,21.618,15.834,35.734,18.844c16.987,3.622,34.154,1.917,49.646-4.928
									c6.139-2.712,12.288-5.583,18.799-8.623C976.364,2559.257,1009.047,2543.999,1042.585,2543.999z"/>
							</g>
						</g>
						<g>
							<path style="fill:#6178E3;" d="M1151.837,2141.723c-28.224-75.849-72.822-145.612-129.71-180.891
								c-56.888-35.279-126.329-29.791-165.347,25.369c-7.416,10.484-13.759,22.81-16.333,37.351
								c-6.361,35.959,11.419,75.605,31.966,104.97c17.572,25.113,37.843,46.813,59.772,63.985
								c22.913,17.944,47.552,30.938,69.928,50.259c26.455,22.842,48.392,53.159,67.25,86.864
								c18.871,33.724,34.66,70.84,48.813,107.253c14.253,36.677,26.407,74.591,37.969,112.638
								c5.733,18.865,31.691,85.011,37.002,118.582l1.449-0.271c3.187-0.859,10.203-2.739,11.438-3.077
								c6.479-32.718-2.911-66.72-4.488-102.055C1195.424,2425.533,1200.654,2272.912,1151.837,2141.723z"/>
							<g>
								<path d="M1190.252,2672.206l-0.563-3.555c-3.796-23.997-18.57-65.67-28.346-93.247c-3.879-10.943-6.943-19.586-8.547-24.864
									c-10.272-33.804-22.805-73.592-37.882-112.388c-17.563-45.184-32.553-78.126-48.605-106.813
									c-20.773-37.126-42.52-65.231-66.484-85.924c-12.415-10.72-25.845-19.672-38.832-28.329
									c-10.241-6.826-20.831-13.885-30.967-21.824c-22.29-17.455-42.638-39.234-60.481-64.733
									c-15.375-21.974-40.048-65.169-32.544-107.587c2.357-13.319,7.892-25.998,16.921-38.763
									c19.258-27.226,46.36-43.841,78.374-48.048c30.137-3.96,62.697,3.755,91.675,21.726
									c52.965,32.846,99.541,97.71,131.146,182.645c40.35,108.435,43.92,230.104,47.373,347.768
									c0.721,24.554,1.466,49.944,2.552,74.275c0.525,11.762,1.948,23.56,3.323,34.968c2.833,23.487,5.508,45.671,1.102,67.922
									l-0.421,2.126l-2.09,0.571c-0.692,0.189-3.192,0.86-5.821,1.566l-5.896,1.574L1190.252,2672.206z M948.413,1942.06
									c-35.029,0-67.293,15.791-88.776,46.162c-8.421,11.904-13.57,23.66-15.744,35.94c-2.827,15.984-0.891,33.886,5.756,53.209
									c5.539,16.102,14.402,33.096,25.631,49.145c17.446,24.932,37.317,46.208,59.061,63.236
									c9.926,7.773,20.402,14.756,30.534,21.51c13.166,8.775,26.779,17.85,39.524,28.855
									c24.591,21.233,46.84,49.955,68.017,87.804c16.217,28.981,31.336,62.196,49.021,107.694
									c15.162,39.014,27.746,78.959,38.055,112.889c1.558,5.125,4.75,14.131,8.448,24.561
									c9.382,26.465,23.327,65.802,28.017,90.777l3.36-0.903c1.334-0.358,2.634-0.708,3.68-0.989
									c3.617-20.483,1.089-41.447-1.582-63.599c-1.392-11.538-2.83-23.468-3.367-35.494c-1.088-24.385-1.834-49.802-2.556-74.383
									c-3.437-117.096-6.99-238.179-46.937-345.531l0,0c-31.066-83.486-76.622-147.105-128.274-179.137
									C996.71,1949.188,971.935,1942.06,948.413,1942.06z"/>
							</g>
						</g>
						<g>
							<path style="fill:#1C1C1B;" d="M1225.853,2654.748l-3.998-0.654c1.734-10.603,3.459-21.27,5.192-31.982
								c13.216-81.721,26.883-166.224,48.198-244.72c24.138-88.895,54.999-157.368,94.343-209.333
								c25.866-34.163,54.599-64.275,82.386-93.396l2.931,2.797c-27.709,29.039-56.361,59.065-82.087,93.044
								c-39.026,51.544-69.664,119.565-93.664,207.95c-21.259,78.291-34.908,162.687-48.108,244.305
								C1229.313,2633.473,1227.588,2644.142,1225.853,2654.748z"/>
						</g>
						<g>
							<path style="fill:#1C1C1B;" d="M1183.688,2665.913c-47.586-89.812-89.44-160.771-158.059-189.193
								c-45.407-17.976-89.252-3.587-124.482,7.973l-1.264-3.85c35.851-11.765,80.467-26.407,127.267-7.878
								c69.896,28.951,112.145,100.509,160.118,191.051L1183.688,2665.913z"/>
						</g>
						<g>
							<path style="fill:#1C1C1B;" d="M1197.57,2659.489c-6.686-33.571-12.511-67.71-18.679-103.854
								c-14.375-84.246-29.24-171.36-55.496-249.097c-29.614-87.68-70.036-150.867-123.574-193.17l2.512-3.179
								c54.172,42.804,95.028,106.607,124.9,195.053c26.357,78.039,41.25,165.312,55.651,249.712
								c6.163,36.115,11.983,70.228,18.659,103.744L1197.57,2659.489z"/>
						</g>
					</g>
				</g>
			</g>
			<g>
				<g>
					<g>
						<g>
							<path style="fill:#9DB8FD;" d="M3458.452,1483.325c-29.056-26.921-67.691-50.972-105.601-25.883
								c-4.477,2.963-8.677,6.491-12.589,10.484c-24.672,25.182-37.893,68.865-37.14,106.124
								c2.428,120.157,70.845,172.257,118.751,253.566c54.021,91.687,87.884,203.416,105.882,322.015
								c1.539,10.145,2.761,29.044,5.552,45.985c12.548,3.377,24.683,8.167,36.647,13.236c8.754-23.628,9.665-60.988,11.836-78.671
								c15.724-128.074,32.545-262.619,19.427-384.951C3589.289,1633.997,3523.461,1543.556,3458.452,1483.325z"/>
							<g>
								<path d="M3571.962,2213.504l-3.374-1.43c-10.685-4.527-23.34-9.621-36.19-13.079l-2.178-0.586l-0.366-2.225
									c-1.672-10.143-2.765-20.778-3.729-30.161c-0.652-6.341-1.215-11.818-1.829-15.868
									c-19.233-126.741-54.707-234.662-105.438-320.763c-12.635-21.445-26.899-41.111-40.694-60.129
									c-39.462-54.405-76.735-105.792-78.54-195.144c-0.826-40.856,14.501-84.517,38.139-108.644
									c4.151-4.237,8.578-7.921,13.157-10.953c18.066-11.957,37.984-14.296,59.197-6.951c16.004,5.54,32.593,16.395,50.715,33.185
									c37.114,34.386,68.04,72.274,91.92,112.611c28.93,48.866,46.406,99.834,51.945,151.488
									c13.022,121.443-3.225,253.749-18.936,381.698l-0.498,4.053c-0.521,4.238-0.965,9.597-1.479,15.802
									c-1.586,19.133-3.76,45.335-10.548,63.658L3571.962,2213.504z M3536.407,2192.841c11.121,3.148,21.945,7.367,31.457,11.335
									c5.533-17.235,7.49-40.82,8.943-58.345c0.521-6.279,0.971-11.701,1.508-16.076l0.497-4.053
									c15.664-127.557,31.86-259.456,18.923-380.099c-5.431-50.651-22.593-100.67-51.008-148.668
									c-23.535-39.755-54.036-77.115-90.654-111.042c-39.217-36.335-72.35-44.685-101.291-25.531
									c-4.169,2.759-8.213,6.129-12.021,10.014c-22.406,22.871-36.931,64.505-36.141,103.604
									c1.762,87.159,38.409,137.684,77.209,191.175c13.891,19.151,28.255,38.954,41.059,60.686
									c51.186,86.875,86.959,195.637,106.326,323.267c0.641,4.216,1.211,9.771,1.872,16.202
									C3533.972,2173.907,3534.965,2183.569,3536.407,2192.841z"/>
							</g>
						</g>
						<g>
							<path style="fill:#9DB8FD;" d="M3818.223,1914.019c-34.131,11.543-66.462,38.673-94.254,70.987
								c-27.284,31.722-50.756,68.3-73.103,105.505c-13.978,23.27-28.363,46.216-41.514,70.181
								c-6.033,10.993-11.278,22.167-16.526,33.551c-2.94,6.378-6.205,11.79-8.877,17.654c-0.117,0.258-0.204,0.543-0.319,0.802
								l13.712,4.696c13.11-24.093,31.871-41.286,50.846-58.224c23.25-20.755,48.75-39.614,75.187-45.396
								c4.899-1.071,9.786-1.68,14.604-1.781c47.825-1,89.509,32.432,127.396,56.242c15.528,9.758,33.594,14.259,52.34,13.039
								c13.832-0.9,28.307-5.033,41.385-14.671c27.244-20.077,43.967-61.828,45.046-98.896
								C4007.42,1955.317,3900.185,1886.301,3818.223,1914.019z"/>
							<g>
								<path d="M3599.004,2221.663l-20.126-6.893l1.553-3.494c0.025-0.059,0.047-0.122,0.07-0.184
									c0.083-0.224,0.17-0.446,0.267-0.658c1.371-3.01,2.919-5.95,4.416-8.793c1.489-2.83,3.029-5.756,4.463-8.866
									c5.039-10.93,10.475-22.542,16.636-33.769c9.954-18.136,20.768-35.951,31.226-53.178
									c3.461-5.701,6.921-11.401,10.357-17.121c20.272-33.75,44.852-72.735,73.45-105.985c31.89-37.079,64.117-61.31,95.786-72.02
									l0,0c40.66-13.75,87.965-4.922,126.538,23.614c42.237,31.245,65.565,79.9,64.003,133.491
									c-1.199,41.178-19.873,82.012-46.468,101.611c-12.378,9.122-26.924,14.285-43.234,15.347
									c-19.461,1.265-38.289-3.424-54.43-13.568c-5.952-3.74-11.858-7.625-18.111-11.739
									c-33.474-22.02-68.069-44.777-107.349-43.967c-4.514,0.094-9.2,0.667-13.929,1.701
									c-27.772,6.075-53.924,27.02-73.604,44.588c-20.857,18.617-37.79,34.657-50.103,57.286L3599.004,2221.663z
									 M3588.421,2210.639l7.288,2.496c12.696-22.25,29.566-38.205,50.147-56.576c20.318-18.138,47.406-39.782,76.77-46.204
									c5.172-1.131,10.313-1.757,15.278-1.861c0.716-0.015,1.434-0.022,2.147-0.022c40.576,0,76.995,23.958,109.195,45.14
									c6.222,4.093,12.099,7.958,17.988,11.66c14.886,9.355,32.265,13.68,50.25,12.509c14.953-0.973,28.255-5.682,39.537-13.996
									c24.563-18.102,42.501-57.653,43.624-96.181c1.493-51.267-20.802-97.797-61.17-127.659
									c-36.732-27.173-81.643-35.628-120.133-22.611l0,0c-30.465,10.303-61.66,33.839-92.722,69.954
									c-28.256,32.853-52.636,71.527-72.757,105.025c-3.441,5.729-6.907,11.439-10.373,17.149
									c-10.42,17.164-21.193,34.912-31.073,52.914c-6.053,11.029-11.428,22.514-16.415,33.332
									c-1.511,3.277-3.095,6.286-4.627,9.196C3590.347,2206.86,3589.356,2208.744,3588.421,2210.639z"/>
							</g>
						</g>
						<g>
							<path style="fill:#6178E3;" d="M4029.767,1565.302c-31.75-62.413-102.141-78.443-165.766-50.786
								c-63.624,27.657-119.811,92.519-160.117,166.076c-69.715,127.224-87.214,284.522-114.041,424.273
								c-6.91,36-21.634,69.463-19.89,103.987c1.217,0.531,8.129,3.51,11.27,4.868l1.445,0.495
								c10.476-33.632,47.004-97.577,55.709-116.065c17.556-37.286,35.699-74.347,55.811-109.824
								c19.969-35.223,41.721-70.921,66.125-102.678c24.389-31.74,51.427-59.544,81.978-79.006
								c25.842-16.462,53.056-26.096,79.241-41.066c25.06-14.325,49.099-33.542,70.882-56.663
								c25.47-27.036,49.643-65.031,48.506-102.859C4040.46,1590.755,4035.802,1577.165,4029.767,1565.302z"/>
							<g>
								<path d="M3584.94,2218.691l-5.106-1.759l-5.382-2.324c-2.649-1.144-5.203-2.246-5.898-2.549l-1.986-0.867l-0.108-2.164
									c-1.185-23.458,4.879-45.798,11.3-69.449c3.12-11.497,6.348-23.385,8.648-35.374c4.759-24.79,9.326-50.716,13.744-75.789
									c21.165-120.139,43.052-244.368,100.664-349.506c45.121-82.342,102.579-141.865,161.791-167.604
									c32.383-14.077,66.898-17.11,97.184-8.542c32.165,9.101,57.442,30.177,73.097,60.95l0,0
									c7.34,14.425,11.112,28.239,11.533,42.232c1.34,44.577-30.411,85.148-49.456,105.365
									c-22.108,23.467-46.229,42.747-71.692,57.302c-11.579,6.62-23.494,12.271-35.017,17.736
									c-14.619,6.935-29.736,14.104-44.081,23.244c-27.687,17.637-54.21,43.211-81.084,78.187
									c-20.762,27.016-41.072,58.557-65.855,102.271c-21.264,37.508-40.084,76.446-55.689,109.589
									c-2.435,5.169-6.871,13.574-12.488,24.214c-14.158,26.819-35.555,67.349-43.046,91.4L3584.94,2218.691z M3573.362,2206.513
									c1.085,0.469,2.461,1.063,3.864,1.668l3.272,1.414c8.521-24.896,28.759-63.23,42.367-89.007
									c5.354-10.143,9.979-18.903,12.345-23.929c15.662-33.261,34.556-72.348,55.934-110.059
									c24.95-44.008,45.428-75.8,66.395-103.084c27.38-35.632,54.487-61.743,82.873-79.825
									c14.713-9.373,30.03-16.638,44.843-23.664c11.403-5.409,23.195-11.002,34.542-17.489
									c24.863-14.212,48.438-33.062,70.071-56.025c44.232-46.952,47.992-85.822,47.556-100.354
									c-0.391-12.938-3.915-25.784-10.775-39.269l0,0c-14.747-28.988-38.525-48.833-68.765-57.389
									c-28.736-8.131-61.581-5.209-92.486,8.226c-57.795,25.124-114.064,83.561-158.443,164.548
									c-57.058,104.126-78.842,227.777-99.909,347.357c-4.422,25.099-8.994,51.052-13.763,75.894
									c-2.352,12.249-5.613,24.266-8.769,35.888C3578.446,2163.766,3572.703,2184.92,3573.362,2206.513z"/>
							</g>
						</g>
						<g>
							<path style="fill:#1C1C1B;" d="M3551.202,2195.618c-0.19-11.139-0.361-22.342-0.534-33.593
								c-1.31-85.678-2.665-174.273-12.739-257.748c-11.373-94.243-32.605-168.596-64.91-227.309
								c-21.292-38.697-46.18-73.788-70.248-107.722l3.305-2.344c24.134,34.027,49.09,69.213,70.492,108.113
								c32.56,59.175,53.947,134.009,65.384,228.776c10.1,83.686,11.456,172.389,12.769,258.172
								c0.172,11.248,0.343,22.449,0.533,33.585L3551.202,2195.618z"/>
						</g>
						<g>
							<path style="fill:#1C1C1B;" d="M3592.637,2213.342l-3.268-2.395c62.751-85.653,116.789-152.699,192.75-171.904
								c50.769-11.989,94.322,9.701,129.314,27.131l-1.807,3.627c-34.408-17.139-77.231-38.467-126.546-26.822
								C3708.461,2061.846,3654.901,2128.355,3592.637,2213.342z"/>
						</g>
						<g>
							<path style="fill:#1C1C1B;" d="M3579.354,2204.694l-3.817-1.357c11.866-33.372,22.945-67.482,34.675-103.596
								c27.411-84.394,55.756-171.661,94.474-247.737c43.878-86.215,95.324-145.516,157.278-181.29l2.025,3.509
								c-61.254,35.37-112.182,94.124-155.692,179.619c-38.574,75.793-66.868,162.906-94.231,247.151
								C3602.326,2137.133,3591.239,2171.269,3579.354,2204.694z"/>
						</g>
					</g>
				</g>
			</g>
			<ellipse style="fill:#7DA3FB;" cx="2447.947" cy="2661.724" rx="1387.356" ry="98.276"/>
			<g>
				<g>
					<g>
						<g>
							<polygon style="fill:#2727A9;stroke:#000000;stroke-width:7;stroke-miterlimit:10;" points="2070.4,2147.942 
								1654.113,1624.798 1642.426,1634.099 2070.4,2171.93 2498.375,1634.099 2486.688,1624.798 							"/>
						</g>
						
							<rect x="2032.203" y="1629.793" style="fill:#2727A9;stroke:#000000;stroke-width:7;stroke-miterlimit:10;" width="76.395" height="995.113"/>
						<g>
							<g>
								<g>
									<g>
										<rect x="1220.201" y="462.142" style="fill:#9DB8FD;" width="1700.399" height="1116.323"/>
										<g>
											<path d="M2924.1,1581.965H1216.7V458.642H2924.1V1581.965z M1223.7,1574.965H2917.1V465.642H1223.7V1574.965z"/>
										</g>
									</g>
									<g>
										<rect x="1147.067" y="388.734" style="fill:#6178E3;" width="1846.666" height="73.408"/>
										<g>
											<path d="M2997.234,465.642H1143.567v-80.408h1853.667V465.642z M1150.567,458.642h1839.667v-66.408H1150.567V458.642z"/>
										</g>
									</g>
									<g>
										<rect x="1147.067" y="1578.604" style="fill:#6178E3;" width="1846.666" height="73.408"/>
										<g>
											<path d="M2997.234,1655.513H1143.567v-80.408h1853.667V1655.513z M1150.567,1648.513h1839.667v-66.408H1150.567V1648.513
												z"/>
										</g>
									</g>
								</g>
							</g>
						</g>
					</g>
				</g>
			</g>
			<g>
				<g>
					<g>
						<path style="fill:#77787B;stroke:#000000;stroke-width:7;stroke-miterlimit:10;" d="M3295.568,2465.799
							c-207.905,0-376.457-21.248-376.457-47.478v183.312c0,26.229,168.552,47.478,376.457,47.478s376.458-21.248,376.458-47.478
							v-183.312C3672.026,2444.551,3503.473,2465.799,3295.568,2465.799z"/>
					</g>
					<g>
						
							<ellipse style="fill:#939598;stroke:#000000;stroke-width:7;stroke-miterlimit:10;" cx="3295.568" cy="2418.322" rx="376.457" ry="47.478"/>
					</g>
					<g>
						<path style="fill:#272737;stroke:#000000;stroke-width:7;stroke-miterlimit:10;" d="M3295.568,2303.85
							c-167.52,0-303.332,10.231-303.332,22.861v88.267c0,12.629,135.812,22.861,303.332,22.861s303.332-10.231,303.332-22.861
							v-88.267C3598.9,2314.082,3463.088,2303.85,3295.568,2303.85z"/>
					</g>
					<g>
						<path style="fill:#77787B;stroke:#000000;stroke-width:7;stroke-miterlimit:10;" d="M3295.568,2212.162
							c-207.905,0-376.457-21.248-376.457-47.478v183.312c0,26.229,168.552,47.478,376.457,47.478s376.458-21.248,376.458-47.478
							v-183.312C3672.026,2190.914,3503.473,2212.162,3295.568,2212.162z"/>
					</g>
					<g>
						
							<ellipse style="fill:#939598;stroke:#000000;stroke-width:7;stroke-miterlimit:10;" cx="3295.568" cy="2164.685" rx="376.457" ry="47.478"/>
					</g>
					<g>
						<path style="fill:#272737;stroke:#000000;stroke-width:7;stroke-miterlimit:10;" d="M3295.568,2050.213
							c-167.52,0-303.332,10.231-303.332,22.861v88.267c0,12.629,135.812,22.861,303.332,22.861s303.332-10.231,303.332-22.861
							v-88.267C3598.9,2060.445,3463.088,2050.213,3295.568,2050.213z"/>
					</g>
					<g>
						<path style="fill:#77787B;stroke:#000000;stroke-width:7;stroke-miterlimit:10;" d="M3295.568,1927.092
							c-207.905,0-376.457-21.248-376.457-47.477v183.312c0,26.229,168.552,47.478,376.457,47.478s376.458-21.248,376.458-47.478
							v-183.312C3672.026,1905.843,3503.473,1927.092,3295.568,1927.092z"/>
					</g>
					<g>
						
							<ellipse style="fill:#939598;stroke:#000000;stroke-width:7;stroke-miterlimit:10;" cx="3295.568" cy="1879.614" rx="376.457" ry="47.477"/>
					</g>
					<g>
						<path style="fill:#1E2427;" d="M2993.561,1946.577c-26.589,0-48.221,20.214-48.221,45.058
							c0,24.844,21.632,45.057,48.221,45.057s48.219-20.214,48.219-45.057C3041.78,1966.791,3020.15,1946.577,2993.561,1946.577z
							 M2993.561,2032.688c-24.227,0-43.936-18.415-43.936-41.053c0-22.639,19.709-41.054,43.936-41.054
							c24.225,0,43.934,18.415,43.934,41.054C3037.494,2014.273,3017.785,2032.688,2993.561,2032.688z"/>
					</g>
					<g>
						<ellipse style="fill:#5D5F61;" cx="2992.236" cy="2280.08" rx="46.077" ry="43.057"/>
					</g>
					<g>
						<path style="fill:#1E2427;" d="M2992.236,2488.656c-26.589,0-48.219,20.214-48.219,45.062
							c0,24.844,21.63,45.058,48.219,45.058c26.589,0,48.221-20.214,48.221-45.058
							C3040.457,2508.87,3018.825,2488.656,2992.236,2488.656z M2992.236,2574.772c-24.225,0-43.934-18.415-43.934-41.053
							c0-22.639,19.709-41.057,43.934-41.057c24.227,0,43.936,18.419,43.936,41.057
							C3036.172,2556.357,3016.463,2574.772,2992.236,2574.772z"/>
					</g>
					<g>
						<path style="fill:#FFFFFF;" d="M3534.541,1980.816h-406.733c-3.903,0-7.096,3.193-7.096,7.097
							c0,3.903,3.194,7.096,7.096,7.096h406.733c3.903,0,7.096-3.193,7.096-7.096
							C3541.637,1984.01,3538.444,1980.816,3534.541,1980.816z"/>
					</g>
					<g>
						<path style="fill:#FFFFFF;" d="M3534.541,2020.499h-406.733c-3.903,0-7.096,3.193-7.096,7.096
							c0,3.903,3.194,7.096,7.096,7.096h406.733c3.903,0,7.096-3.193,7.096-7.096
							C3541.637,2023.693,3538.444,2020.499,3534.541,2020.499z"/>
					</g>
					<g>
						<path style="fill:#FFFFFF;" d="M3529.182,2269.26h-406.733c-3.903,0-7.096,3.194-7.096,7.097c0,3.903,3.193,7.096,7.096,7.096
							h406.733c3.903,0,7.096-3.193,7.096-7.096C3536.279,2272.454,3533.085,2269.26,3529.182,2269.26z"/>
					</g>
					<g>
						<path style="fill:#FFFFFF;" d="M3529.182,2308.943h-406.733c-3.903,0-7.096,3.193-7.096,7.096s3.193,7.096,7.096,7.096
							h406.733c3.903,0,7.096-3.193,7.096-7.096S3533.085,2308.943,3529.182,2308.943z"/>
					</g>
					<g>
						<path style="fill:#FFFFFF;" d="M3529.182,2520.25h-406.733c-3.903,0-7.096,3.193-7.096,7.096c0,3.903,3.193,7.096,7.096,7.096
							h406.733c3.903,0,7.096-3.193,7.096-7.096C3536.279,2523.443,3533.085,2520.25,3529.182,2520.25z"/>
					</g>
					<g>
						<path style="fill:#FFFFFF;" d="M3529.182,2559.932h-406.733c-3.903,0-7.096,3.193-7.096,7.096s3.193,7.096,7.096,7.096
							h406.733c3.903,0,7.096-3.193,7.096-7.096S3533.085,2559.932,3529.182,2559.932z"/>
					</g>
				</g>
				<g>
					<path style="fill:#D1D3D4;" d="M3478.47,1902.55c0,0,94.612,0.722,129.279-17.334l-311.281-21.667L3478.47,1902.55z"/>
					<path style="fill:#272737;" d="M3160.078,1909.011l136.39-45.462l-328.293,18.476
						C2968.176,1882.026,3035.325,1908.073,3160.078,1909.011z"/>
				</g>
			</g>
			<g>
				<g>
					<g>
						<g>
							<path style="fill:#FFFFFF;stroke:#000000;stroke-width:7;stroke-miterlimit:10;" d="M2453.999,2501.083l31.549,38.884
								c0,0,66.98-5.285,68.679-11.73c1.7-6.445,35.823-101.216,35.823-101.216l-81.374-36.179
								C2491.984,2452.018,2453.999,2501.083,2453.999,2501.083z"/>
						</g>
					</g>
					<g>
						<g>
							<path style="fill:#FFFFFF;stroke:#000000;stroke-width:7;stroke-miterlimit:10;" d="M2676.645,2516.679l51.976,66.528
								c0,0,66.98-5.285,68.68-11.73c1.7-6.445,30.027-107.339,30.027-107.339l-75.341-41.636
								C2735.294,2483.678,2676.645,2516.679,2676.645,2516.679z"/>
						</g>
					</g>
					<g>
						<g>
							<g>
								<path style="fill:#FFFFFF;" d="M2645.018,1737.89c-33.548,27.84-186.762,692.123-186.762,692.123
									s54.672,31.907,145.041,42.51l192.477-587.103l85.791-13.953l-168.24,583.75c0,0,70.399,43.881,146.718,27.757
									l222.107-548.998c0,0,313.781-17.264,340.606-56.05c26.826-38.785,31.815-203.439,31.815-203.439l-409.552-7.12
									C3045.019,1667.368,2678.566,1710.05,2645.018,1737.89z"/>
							</g>
						</g>
						<g>
							<g>
								<path style="fill:#2727A9;" d="M2662.346,1753.038c-33.548,27.84-197.989,650.722-197.989,650.722
									s25.345,29.341,115.714,39.945l215.702-558.285l85.791-13.953l-168.24,583.75c0,0,53.956,21.934,130.273,5.81
									l238.551-527.05c0,0,299.396-33.68,326.222-72.465c26.826-38.785,46.2-187.023,46.2-187.023l-409.552-7.12
									C3045.019,1667.368,2695.895,1725.198,2662.346,1753.038z"/>
							</g>
						</g>
						<g>
							<g>
								<g>
									<path d="M2825.365,2489.999c-26.667,0-50.78-5.721-68.397-11.533c-27.225-8.983-44.761-19.822-45.494-20.279l-2.244-1.398
										l167.442-580.98l-78.234,12.724l-192.705,587.8l-2.843-0.333c-72.056-8.454-127.269-31.8-146.397-42.963l-2.225-1.299
										l0.579-2.511c0.383-1.661,38.797-168.042,80.815-335.686c24.684-98.482,45.766-178.13,62.658-236.731
										c28.773-99.811,39.156-117.209,44.463-121.613l2.235,2.693l-2.235-2.693c14.414-11.961,86.517-27.596,214.305-46.47
										c94.764-13.997,186.61-24.728,187.526-24.835l0.232-0.027l0.233,0.004l413.097,7.181l-0.107,3.544
										c-0.205,6.765-5.332,166.138-32.434,205.324c-6.737,9.74-28.551,18.426-66.687,26.553
										c-29.476,6.281-68.56,12.171-116.166,17.504c-73.355,8.218-144.852,12.589-158.221,13.369l-221.974,548.67l-1.822,0.385
										C2848.705,2488.946,2836.799,2489.998,2825.365,2489.999z M2717.442,2453.571c12.449,7.066,74.245,39.428,140.06,26.351
										l222.236-549.318l2.219-0.122c0.784-0.043,79.307-4.418,160.073-13.467c60.498-6.779,164.05-21.129,177.848-41.079
										c23.789-34.394,30.142-173.907,31.068-198.01l-405.754-7.054c-126.46,14.735-372.051,48.228-397.938,69.711
										c-7.502,6.225-31.093,60.579-104.802,354.659c-39.163,156.247-75.192,311.397-80.196,333.013
										c20.26,11.168,71.808,32.196,138.61,40.45l192.245-586.398l93.348-15.182L2717.442,2453.571z"/>
								</g>
							</g>
						</g>
						<g>
							<g>
								<path style="fill:#242638;stroke:#000000;stroke-width:2;stroke-miterlimit:10;" d="M3189.934,1649.367
									c-0.965-0.474-2.115-0.081-2.583,0.871l-35.359,71.386c-14.223,4.209-208.609,61.687-221.711,64.149
									c-14.372,2.7-46.831,76.516-50.481,84.925c-0.426,0.976,0.021,2.11,0.999,2.536c0.192,0.083,0.39,0.133,0.588,0.152
									c0.808,0.075,1.604-0.369,1.944-1.152c13.487-31.036,38.351-80.926,47.662-82.676
									c13.723-2.577,214.362-61.95,222.899-64.478c0.512-0.151,0.939-0.512,1.178-0.992l35.733-72.141
									C3191.276,1650.994,3190.886,1649.838,3189.934,1649.367z"/>
							</g>
						</g>
						<g>
							<g>
								<path style="fill:#242638;" d="M3148.45,1642.876c-0.982-0.383-2.109,0.105-2.495,1.094l-24.549,62.86
									c-0.19,0.482-0.176,1.02,0.038,1.492l9.085,20.194c0.297,0.654,0.91,1.064,1.578,1.126c0.323,0.03,0.653-0.018,0.97-0.161
									c0.968-0.437,1.405-1.578,0.965-2.548l-8.751-19.455l24.253-62.107C3149.93,1644.38,3149.441,1643.263,3148.45,1642.876z"/>
							</g>
						</g>
						<g>
							<g>
								<path style="fill:#242638;" d="M3406.447,1767.064c-0.457-0.006-47.009-0.453-69.48-28.8
									c-12.007-15.149-15.129-35.635-9.274-60.89c0.241-1.036-0.405-2.071-1.441-2.313c-1.014-0.235-2.073,0.402-2.315,1.443
									c-6.13,26.462-2.757,48.053,10.024,64.168c18.106,22.831,49.846,28.429,64.596,29.801c4.504,0.419,7.42,0.443,7.886,0.446
									c1.063,0.001,1.926-0.859,1.93-1.922C3408.37,1767.933,3407.459,1767.074,3406.447,1767.064z"/>
							</g>
						</g>
						<g>
							<g>
								<polygon style="fill:#CEDAFD;" points="3033.034,1674.04 3109.761,1683.49 3117.745,1659.909 3062.996,1625.861 								"/>
							</g>
						</g>
					</g>
					<g>
						<g>
							<path style="fill:#FFFFFF;stroke:#000000;stroke-width:7;stroke-miterlimit:10;" d="M2915.651,1452.492
								c-37.222,9.739-234.48,118.101-234.48,118.101l13.891,60.07c38.496-21.381,297.325-79.384,314.779-95.959
								c17.454-16.574,56.277-163.45,56.277-163.45l-106.154-89.819L2915.651,1452.492z"/>
						</g>
					</g>
					<path style="fill:#FFFFFF;" d="M3547.752,1125.376c-24.571-34.717-209.06-93.569-209.06-93.569l-103.726,2.711
						c0,0-155.433,33.708-201.202,63.494c-62.453,40.645-107.063,249.816-107.063,249.816
						c59.48,49.567,142.752,37.671,142.752,37.671l11.896-28.749c0,0,18.735,106.923,16.173,134.484
						c-2.563,27.561-56.504,159.224-56.504,159.224c219.637,129.301,423.937,99.648,423.937,99.648
						c13.901-43.958,31.185-231.94,40.146-338.669c43.052-3.302,81.699-12.549,81.699-12.549l-8.199-100.369
						C3575.246,1250.732,3566.21,1151.455,3547.752,1125.376z"/>
					<path style="fill:#F66801;" d="M3531.474,1146.858c-24.571-34.717-192.782-115.051-192.782-115.051l-103.726,2.711
						c0,0-155.433,33.708-201.202,63.494c-62.453,40.645-82.083,240.025-82.083,240.025c59.48,49.567,117.772,47.462,117.772,47.462
						l11.896-28.749c0,0,18.735,106.923,16.173,134.484c-2.563,27.561-56.504,159.224-56.504,159.224
						c219.637,129.301,423.937,99.648,423.937,99.648c13.901-43.958,31.185-231.94,40.146-338.669
						c43.052-3.302,81.699-12.549,81.699-12.549l-8.199-100.369C3575.246,1250.732,3549.932,1172.937,3531.474,1146.858z"/>
					<g>
						<path d="M3410.024,1756.509c-20.521,0-45.97-1.019-75.061-4.26c-45.813-5.104-91.595-14.635-136.075-28.327
							c-55.601-17.115-109.313-40.817-159.646-70.448c-1.5-0.883-2.123-2.733-1.464-4.343
							c0.538-1.312,53.772-131.491,56.258-158.221c1.986-21.365-9.344-92.948-14.104-121.58l-7.244,17.507
							c-0.474,1.143-1.515,1.952-2.739,2.126c-0.869,0.124-21.589,3.002-49.963-0.235c-26.252-2.994-64.135-12.053-95.524-38.211
							c-0.999-0.832-1.454-2.148-1.183-3.419c0.111-0.525,11.409-53.138,30.211-110.035
							c25.416-76.914,51.782-124.685,78.366-141.985c45.781-29.795,195.997-62.599,202.369-63.981
							c0.214-0.046,0.432-0.073,0.65-0.078l103.726-2.711c0.402-0.008,0.782,0.046,1.155,0.165
							c7.579,2.417,185.892,59.614,210.853,94.881l0,0c18.55,26.21,27.688,120.844,31.483,174.921l8.195,100.329
							c0.141,1.721-0.995,3.287-2.674,3.689c-0.38,0.091-37.625,8.925-79.273,12.397c-9.116,108.233-26.199,292.678-40.048,336.472
							c-0.404,1.28-1.506,2.216-2.834,2.409C3465.135,1753.617,3444.573,1756.509,3410.024,1756.509z M3045.405,1648.972
							c49.059,28.612,101.318,51.555,155.379,68.21c44.03,13.564,89.35,23.013,134.698,28.081
							c68.271,7.632,116.209,2.908,126.78,1.657c13.659-47.193,30.465-229.936,39.352-335.775c0.144-1.712,1.507-3.066,3.22-3.197
							c35.558-2.727,68.461-9.624,78.23-11.797l-7.951-97.346c-3.018-42.988-11.997-145.663-30.217-171.407l0,0
							c-6.728-9.504-31.64-27.377-112.122-58.55c-45.641-17.678-89.172-31.785-94.584-33.527l-102.8,2.687
							c-7.916,1.735-155.988,34.479-199.716,62.938c-57.254,37.26-100.232,223.702-105.094,245.538
							c52.436,42.358,123.761,37.105,136.425,35.778l11.109-26.85c0.596-1.439,2.09-2.306,3.616-2.141
							c1.548,0.17,2.797,1.342,3.065,2.875c0.769,4.385,18.787,107.703,16.211,135.412
							C3098.605,1517.391,3053.448,1629.215,3045.405,1648.972z"/>
					</g>
					<g>
						<g>
							<path style="fill:#FFFFFF;stroke:#000000;stroke-width:7;stroke-miterlimit:10;" d="M3330.468,1000.539l-8.516-87.662
								l-94.307,44.333c0,0,1.894,67.324,1.047,69.604c-2.703,7.278-26.895,15.683-26.895,15.683s-23.961,50.029,33.742,52.306
								s116.196-57.922,116.196-57.922l-3.241-3.504C3339.426,1023.573,3332.051,1013.798,3330.468,1000.539z"/>
						</g>
					</g>
					<g>
						<g>
							<path style="fill:#FFFFFF;stroke:#000000;stroke-width:7;stroke-miterlimit:10;" d="M3420.612,1404.674l-1.097,49.318
								c-34.602,29.978-148.652,148.557-172.104,173.003c-2.667,2.78-6.535,4-10.308,3.253
								c-18.829-3.745-51.294-10.923-51.294-10.923l-6.913,44.674c0,0-5.098,75.059-0.359,73.952
								c4.738-1.097,78.142-23.424,88.185-31.756c10.043-8.332,250.729-146.959,262.474-173.666
								c6.497-14.753,15.122-75.352,21.552-126.655C3513.459,1411.937,3455.83,1417.857,3420.612,1404.674z"/>
						</g>
					</g>
					<g>
						<g>
							<path style="fill:#242638;" d="M3586.798,1396.316c-0.273,0-0.543,0.044-0.78,0.124c-0.44,0.141-44.625,14.053-97.806,14.054
								c-30.1,0-57.116-4.459-80.315-13.255c0.032-14.877,0.677-164.05,13.281-196.043c0.514-1.318-0.138-2.813-1.439-3.327
								c-0.299-0.122-0.617-0.184-0.944-0.184c-1.053,0-2.019,0.653-2.406,1.628c-13.597,34.52-13.645,192.964-13.64,199.694
								c0.002,1.065,0.644,2.003,1.635,2.391c17.144,6.705,36.479,11.094,57.467,13.045c8.474,0.788,17.34,1.187,26.35,1.187
								c0.003,0-0.002,0,0.001,0c53.978,0,98.932-14.149,99.383-14.293c0.656-0.211,1.19-0.665,1.504-1.278
								c0.313-0.612,0.368-1.308,0.16-1.954C3588.913,1397.052,3587.905,1396.316,3586.798,1396.316z"/>
							<path style="fill:#242638;" d="M3586.45,1397.792c-0.993,0.317-99.844,31.332-179.973,0.424
								c0.011-12.38,0.452-164.719,13.38-197.535c0.232-0.594-0.059-1.263-0.652-1.497c-0.563-0.229-1.259,0.055-1.495,0.65
								c-13.569,34.447-13.547,192.461-13.542,199.171c0.001,0.475,0.292,0.9,0.733,1.073c18.494,7.233,37.999,11.18,57.081,12.954
								c64.537,6.001,124.395-12.797,125.168-13.044c0.606-0.195,0.943-0.844,0.746-1.451
								C3587.704,1397.931,3587.038,1397.593,3586.45,1397.792z"/>
						</g>
					</g>
					<g>
						<g>
							<g>
								<path style="fill:#37374F;" d="M3128.606,1579.365c-33.776-3.141-61.543-1.538-62.019,3.58
									c-0.476,5.118,26.519,11.812,60.295,14.953c33.776,3.141,61.543,1.537,62.019-3.58
									C3189.377,1589.2,3162.382,1582.505,3128.606,1579.365z"/>
							</g>
						</g>
						<g>
							<g>
								<path style="fill:#37374F;" d="M3116.659,1707.857c-30.194-2.807-55.185,0.448-55.82,7.272
									c-0.635,6.824,23.328,14.631,53.522,17.438c30.194,2.807,55.185-0.448,55.82-7.272
									C3170.815,1718.471,3146.853,1710.664,3116.659,1707.857z"/>
							</g>
						</g>
						<path style="fill:#76C3FF;stroke:#000000;stroke-width:7;stroke-linejoin:round;stroke-miterlimit:10;" d="M3065.827,1600.416
							l-16.16-3.205c-6.219-1.243-12.475,0.492-17.18,4.724c-4.707,4.227-7.085,10.268-6.527,16.568l4.792,53.935
							c0.778,8.746,7.688,15.687,16.431,16.499l14.734,1.37l-1.079,24.82l109.341,10.166l18.721-130.978l-122.313-11.372
							L3065.827,1600.416z M3062.728,1671.688l-13.466-1.252l-4.76-53.579c-0.04-0.424,0.105-0.791,0.424-1.078
							c0.32-0.287,0.697-0.378,1.123-0.307l18.96,3.76L3062.728,1671.688z"/>
						<g>
							<g>
								<path style="fill:#4C6EDC;stroke:#000000;stroke-width:7;stroke-miterlimit:10;" d="M3128.555,1583.098
									c-31.738-2.951-57.781-1.955-58.17,2.224c-0.389,4.179,25.025,9.96,56.762,12.911c31.738,2.951,61.365,2.748,61.754-1.431
									C3189.29,1592.623,3160.292,1586.05,3128.555,1583.098z"/>
							</g>
						</g>
					</g>
					<g>
						<g>
							
								<path style="fill:#FFFFFF;stroke:#000000;stroke-width:7;stroke-linecap:round;stroke-linejoin:round;stroke-miterlimit:10;" d="
								M3145.266,1656.676c0,0-56.791-5.859-57.592,2.753c-0.801,8.613,54.789,14.939,54.789,14.939l23.288-1.309l-22.62,6.584
								c0,0-56.885-11.081-57.845-0.745c-0.961,10.335,58.38,19.907,58.38,19.907l26.266-2.191l-21.365,5.542
								c0,0-50.515-11.068-52.104-0.211c-1.588,10.856,56.88,21.289,56.88,21.289l28.446-4.668l-23.928,8.2
								c0,0-42.169-7.396-45.16-0.145c-2.378,5.765,29.38,13.24,42.493,16.061c3.581,0.77,7.28,0.584,10.77-0.527l51.051-16.259
								l-30.529-82.761L3145.266,1656.676z"/>
						</g>
					</g>
					<g>
						<g>
							<g>
								
									<rect x="3169.544" y="1711.921" transform="matrix(0.0324 -0.9995 0.9995 0.0324 1348.3169 4840.272)" style="fill:#664862;" width="8.985" height="23.686"/>
							</g>
						</g>
						<g>
							<g>
								
									<rect x="3139.747" y="1710.955" transform="matrix(0.0324 -0.9995 0.9995 0.0324 1320.4502 4809.5557)" style="fill:#664862;" width="8.985" height="23.686"/>
							</g>
						</g>
						<g>
							<g>
								
									<rect x="3110.155" y="1709.996" transform="matrix(0.0324 -0.9995 0.9995 0.0324 1292.7759 4779.0503)" style="fill:#664862;" width="8.984" height="23.686"/>
							</g>
						</g>
						<g>
							<g>
								
									<rect x="3081.583" y="1709.069" transform="matrix(0.0324 -0.9995 0.9995 0.0324 1266.0559 4749.5967)" style="fill:#664862;" width="8.984" height="23.686"/>
							</g>
						</g>
						<g>
							<g>
								
									<rect x="3051.174" y="1708.083" transform="matrix(0.0324 -0.9995 0.9995 0.0324 1237.6182 4718.25)" style="fill:#664862;" width="8.984" height="23.686"/>
							</g>
						</g>
						<g>
							<g>
								
									<rect x="3022.602" y="1707.157" transform="matrix(0.0324 -0.9995 0.9995 0.0324 1210.8994 4688.7969)" style="fill:#664862;" width="8.985" height="23.686"/>
							</g>
						</g>
						<g>
							<g>
								<g>
									<g>
										<path style="fill:#CBC1CB;" d="M2987.59,1481.994c-0.89-6.141-6.014-10.785-12.213-11.069l-344.71-15.779
											c-8.14-0.373-14.593,6.781-13.387,14.84l37.461,250.317c0.928,6.199,6.166,10.842,12.431,11.018l342.64,9.657
											c8.028,0.226,14.321-6.84,13.169-14.789L2987.59,1481.994z"/>
									</g>
								</g>
							</g>
							<g>
								<path style="fill:#FD9038;stroke:#000000;stroke-width:7;stroke-miterlimit:10;" d="M2987.326,1481.712
									c-0.889-6.14-6.014-10.785-12.212-11.068l-344.711-15.779c-0.428-0.02-0.83,0.063-1.249,0.084l335.348,15.351
									c6.198,0.283,11.322,4.928,12.212,11.068l35.39,244.196c1.153,7.948-5.139,15.015-13.168,14.789l-332.53-9.372
									c0.169,0.011,0.332,0.054,0.502,0.059l342.64,9.657c8.029,0.226,14.322-6.841,13.168-14.789L2987.326,1481.712z"/>
							</g>
							<g>
								<path style="fill:#FD9038;stroke:#000000;stroke-width:7;stroke-miterlimit:10;" d="M3187.595,1726.382l-262.625-12.019
									l-1.075,23.473l264.779,12.12c4.662,0.213,8.615-3.393,8.828-8.055l0.203-4.439
									C3197.973,1731.611,3193.446,1726.65,3187.595,1726.382z"/>
							</g>
							<g>
								<path style="fill:#FDC238;stroke:#000000;stroke-width:7;stroke-miterlimit:10;" d="M2976.977,1481.65
									c-0.89-6.141-6.014-10.785-12.213-11.069l-344.71-15.778c-8.14-0.373-14.594,6.781-13.387,14.84l37.461,250.317
									c0.928,6.199,6.166,10.842,12.431,11.018l342.64,9.657c8.029,0.226,14.321-6.84,13.169-14.789L2976.977,1481.65z"/>
							</g>
						</g>
						<g>
							<g>
								
									<rect x="3052.041" y="1716.878" transform="matrix(0.0324 -0.9995 0.9995 0.0324 1226.8177 4729.1797)" style="fill:#C54322;" width="7.759" height="28.179"/>
							</g>
						</g>
						<g>
							<g>
								<path style="fill:#C54322;" d="M3175.731,1732.4c-2.292-0.074-4.21,1.723-4.284,4.015c-0.074,2.292,1.723,4.21,4.015,4.284
									c2.292,0.074,4.21-1.723,4.284-4.015C3179.82,1734.393,3178.022,1732.474,3175.731,1732.4z"/>
							</g>
						</g>
						<g>
							<g>
								<path style="fill:#C54322;" d="M3162.533,1731.972c-2.292-0.074-4.21,1.723-4.284,4.015
									c-0.074,2.292,1.723,4.21,4.015,4.284c2.292,0.074,4.21-1.723,4.284-4.015
									C3166.623,1733.965,3164.825,1732.047,3162.533,1731.972z"/>
							</g>
						</g>
						<g>
							<g>
								<path style="fill:#FFFFFF;" d="M2799.487,1555.176c-9.052-2.111-19.069-0.708-26.661,4.654
									c-17.739,12.527-13.581,43.714,4.274,54.359c0.221,0.132,0.444,0.26,0.668,0.384c7.87,4.359,17.837,4.183,26.117,0.606
									c12.459-5.383,24.801-19.13,23.159-33.525C2825.453,1567.718,2812.375,1558.182,2799.487,1555.176z"/>
							</g>
						</g>
					</g>
					<g>
						<g>
							<g>
								<path style="fill:#FFFFFF;" d="M2461.64,2486.446c0,0-86.133,52.728-153.463,68.068c-67.33,15.34-48.05,72.375-48.05,72.375
									l298.834-4.478c11.483-53.401,3.02-115.645,3.02-115.645C2521.566,2542.175,2461.64,2486.446,2461.64,2486.446z"/>
							</g>
						</g>
					</g>
					<g>
						<g>
							<g>
								<path style="fill:#3B3348;" d="M2456.411,2514.326c0,0-67.911,35.178-135.241,50.518s-61.042,62.044-61.042,62.044
									l298.834-4.478c11.483-53.401-5.076-90.101-5.076-90.101C2513.47,2567.719,2456.411,2514.326,2456.411,2514.326z"/>
							</g>
						</g>
					</g>
					<g>
						<g>
							<g>
								<g>
									<path d="M2257.629,2630.426l-0.817-2.417c-0.338-1.001-8.145-24.761,4.081-46.596
										c8.396-14.996,24.043-25.194,46.507-30.312c65.985-15.033,151.558-67.116,152.414-67.641l2.264-1.385l1.946,1.807
										c0.577,0.536,58.096,53.154,95.65,20.251l4.897-4.291l0.877,6.452c0.086,0.628,8.414,63.47-3.065,116.853l-0.586,2.722
										L2257.629,2630.426z M2461.24,2490.771c-14.02,8.348-91.197,53.239-152.285,67.156
										c-20.419,4.652-34.523,13.684-41.92,26.845c-8.621,15.338-5.748,32.373-4.252,38.577l293.323-4.395
										c8.429-41.905,4.801-89.086,3.103-105.613c-17.049,11.637-39.042,11.575-64.053-0.294
										C2478.874,2505.321,2466.01,2494.891,2461.24,2490.771z"/>
								</g>
							</g>
						</g>
					</g>
					<g>
						<g>
							<g>
								<path style="fill:#FFFFFF;" d="M2716.414,2484.463c0,0-86.134,52.729-153.464,68.068
									c-67.33,15.34-48.05,72.374-48.05,72.374l298.834-4.478c11.483-53.401,3.02-115.645,3.02-115.645
									C2776.339,2540.192,2716.414,2484.463,2716.414,2484.463z"/>
							</g>
						</g>
					</g>
					<g>
						<g>
							<g>
								<path style="fill:#3B3348;" d="M2711.709,2509.743c0,0-70.059,41.318-137.39,56.658
									c-67.33,15.34-59.419,58.505-59.419,58.505l298.834-4.478c11.483-53.401,3.02-115.645,3.02-115.645
									C2779.167,2563.62,2711.709,2509.743,2711.709,2509.743z"/>
							</g>
						</g>
					</g>
					<g>
						<g>
							<g>
								<g>
									<path d="M2512.402,2628.443l-0.816-2.417c-0.339-1.001-8.146-24.761,4.08-46.596c8.396-14.996,24.043-25.194,46.507-30.312
										c66.007-15.038,151.558-67.117,152.414-67.641l2.264-1.386l1.946,1.807c0.576,0.536,58.096,53.155,95.651,20.251
										l4.897-4.291l0.877,6.452c0.086,0.628,8.413,63.469-3.065,116.853l-0.585,2.722L2512.402,2628.443z M2716.012,2488.788
										c-14.02,8.348-91.197,53.239-152.285,67.157c-20.419,4.652-34.523,13.684-41.92,26.845
										c-8.62,15.338-5.747,32.373-4.251,38.577l293.323-4.395c8.428-41.905,4.801-89.085,3.103-105.613
										c-17.048,11.637-39.044,11.574-64.054-0.294C2733.647,2503.338,2720.782,2492.908,2716.012,2488.788z"/>
								</g>
							</g>
						</g>
					</g>
					<g>
						<path d="M3077.893,1357.303c-8.464-52.922,1.647-127.294,1.751-128.039l6.934,0.96c-0.102,0.735-10.07,74.092-1.772,125.973
							L3077.893,1357.303z"/>
					</g>
				</g>
			</g>
			<g>
				
					<ellipse transform="matrix(0.7071 -0.7071 0.7071 0.7071 420.666 2914.0835)" style="fill:#FFFFFF;" cx="3727.943" cy="949.253" rx="153.141" ry="153.141"/>
				<g>
					<g>
						<path style="fill:#3B3B3B;" d="M3718.583,1091.717c-5.769,0-11.571-0.337-17.388-1.018
							c-80.492-9.427-138.309-82.582-128.883-163.075c3.559-30.382,16.213-58.422,36.596-81.091
							c19.933-22.168,45.712-37.605,74.551-44.643c1.885-0.457,3.772,0.693,4.23,2.571c0.458,1.878-0.692,3.772-2.57,4.23
							c-27.466,6.702-52.019,21.406-71.006,42.522c-19.408,21.585-31.459,48.29-34.848,77.225
							c-8.978,76.659,46.085,146.331,122.744,155.309c37.137,4.348,73.741-6.023,103.076-29.206
							c29.334-23.184,47.884-56.402,52.232-93.538c4.35-37.135-6.022-73.741-29.206-103.075s-56.402-47.884-93.537-52.233
							c-1.92-0.225-3.294-1.963-3.069-3.883c0.226-1.919,1.964-3.299,3.884-3.069c38.992,4.567,73.872,24.044,98.215,54.845
							c24.343,30.801,35.233,69.238,30.667,108.23c-4.566,38.993-24.045,73.873-54.846,98.215
							C3783.22,1080.743,3751.485,1091.717,3718.583,1091.717z"/>
					</g>
					<g>
						<path style="fill:#3B3B3B;" d="M3699.808,1106.081c-0.136,0-0.272-0.008-0.411-0.024
							c-43.095-5.047-81.645-26.574-108.548-60.615c-26.903-34.042-38.94-76.522-33.894-119.617
							c0.226-1.919,1.959-3.299,3.884-3.069c1.92,0.225,3.294,1.963,3.069,3.883c-9.971,85.127,51.175,162.495,136.303,172.465
							c1.92,0.225,3.294,1.963,3.069,3.883C3703.072,1104.77,3701.559,1106.081,3699.808,1106.081z"/>
					</g>
					<g>
						<path style="fill:#3B3B3B;" d="M3749.357,1104.138c-1.636,0-3.098-1.152-3.429-2.817c-0.377-1.896,0.854-3.738,2.749-4.116
							c27.405-5.455,52.921-18.288,73.787-37.114c21.031-18.975,36.456-43.269,44.604-70.254c0.559-1.85,2.515-2.897,4.362-2.339
							c1.851,0.559,2.897,2.512,2.339,4.362c-8.518,28.207-24.638,53.598-46.617,73.427c-21.803,19.67-48.467,33.081-77.108,38.782
							C3749.814,1104.116,3749.583,1104.138,3749.357,1104.138z"/>
					</g>
					<g>
						<path style="fill:#3B3B3B;" d="M3876.156,966.708c-0.136,0-0.272-0.008-0.411-0.024c-1.92-0.225-3.294-1.963-3.069-3.883
							c4.83-41.237-6.688-81.887-32.433-114.461c-25.744-32.575-62.633-53.174-103.87-58.003
							c-69.805-8.171-136.661,31.685-162.558,96.937c-0.714,1.796-2.748,2.676-4.544,1.962c-1.797-0.713-2.675-2.747-1.962-4.544
							c27.063-68.191,96.92-109.85,169.878-101.307c43.095,5.047,81.644,26.574,108.548,60.615
							c26.903,34.041,38.94,76.522,33.894,119.616C3879.42,965.396,3877.907,966.708,3876.156,966.708z"/>
					</g>
					<g>
						<path style="fill:#3B3B3B;" d="M3786.57,914.784c-0.791,0-1.587-0.267-2.242-0.814c-1.483-1.239-1.682-3.446-0.442-4.93
							l11.952-14.307c1.24-1.482,3.447-1.681,4.931-0.442c1.483,1.239,1.682,3.446,0.442,4.93l-11.952,14.307
							C3788.566,914.356,3787.571,914.784,3786.57,914.784z"/>
					</g>
					<g>
						<path style="fill:#3B3B3B;" d="M3697.802,1021.038c-1.036,0-2.019-0.459-2.684-1.253l-65.361-78.083
							c-1.241-1.482-1.045-3.689,0.438-4.931c1.48-1.241,3.688-1.045,4.93,0.438l62.675,74.874l75.614-90.508
							c1.238-1.483,3.445-1.681,4.93-0.442c1.483,1.239,1.682,3.447,0.441,4.93l-78.297,93.72c-0.664,0.795-1.647,1.255-2.684,1.256
							C3697.803,1021.038,3697.803,1021.038,3697.802,1021.038z"/>
					</g>
				</g>
			</g>
			<g>
				<g>
					<g>
						<path style="fill:#FFFFFF;stroke:#000000;stroke-width:7;stroke-miterlimit:10;" d="M2753.599,1210.933
							c-2.302-85.37-73.372-154.576-158.742-154.576h-0.001c-15.909,0-27.287-15.406-23.053-30.622
							c10.399-37.376,14.487-77.47,11.005-119.096c-14.318-171.143-157.241-310.484-328.644-320.258
							c-165.843-9.456-304.638,99.472-341.724,249.95c-3.844,15.596-22.404,21.57-35.825,12.189
							c-36.323-25.381-80.313-40.318-127.402-40.318c-120.44,0-215.443,97.635-212.196,218.075
							c0.158,5.861,0.626,11.641,1.302,17.363c0.811,6.851-4.472,12.716-11.352,12.716c-85.37,0-152.709,69.206-150.407,154.576
							l0.981,36.378c2.302,85.37,73.372,154.576,158.742,154.576h1067.89c85.37,0,152.709-69.205,150.407-154.575L2753.599,1210.933
							z"/>
						<g>
							<path style="fill:#BACEFE;" d="M2749.789,1208.541c-0.071-2.651-0.403-5.236-0.604-7.853
								c-1.902,81.696-67.145,146.722-149.421,146.722H1537.577c-82.276,0-151.005-65.027-157.29-146.722
								c-0.06,2.619-0.254,5.202-0.183,7.853l0.975,36.378c2.289,85.37,72.98,154.576,157.894,154.576H2601.16
								c84.914,0,151.893-69.206,149.604-154.575L2749.789,1208.541z"/>
						</g>
					</g>
				</g>
				<g>
					<polygon style="fill:#FFFFFF;" points="1928.152,1087.562 1934.531,1087.393 1928.152,1087.556 					"/>
					<path style="fill:#2727A9;" d="M2080.525,1237.804c-43.266,0-84.328-16.782-115.627-47.255
						c-28.491-27.778-45.01-60.816-49.15-98.267l-38.502,4.319l-0.518,0.054l-0.522,0.02c-3.015,0.096-6.975,0.258-10.882,0.738
						c-0.839,0.1-1.673,0.221-2.508,0.345c6.255,49.305,29.285,95.427,65.347,130.543c41.694,40.607,96.28,62.963,153.697,62.963
						c54.139,0,104.68-19.897,143.39-56.21l-38.83-37.81C2157.605,1223.448,2120.374,1237.804,2080.525,1237.804z"/>
					<path style="fill:#F66801;" d="M2222.362,925.961c-41.694-40.598-96.269-62.956-153.675-62.956h-0.022
						c-57.428,0-110.794,22.358-150.299,62.956c-4.648,4.771-9.019,9.738-13.145,14.879l39.079,38.057
						c3.977-5.297,8.184-10.411,12.836-15.186c29.652-30.462,69.733-47.246,112.864-47.251
						c43.269,0.006,84.332,16.789,115.634,47.251c30.222,29.44,47.912,68.354,50.096,109.973
						c17.603-2.903,35.255-5.745,52.903-8.587C2284.104,1012.505,2260.738,963.338,2222.362,925.961z"/>
					<polygon style="fill:#F66801;" points="1905.221,940.841 1864.942,901.627 1846.768,1052.023 1996.163,1029.395 
						1944.3,978.898 					"/>
					<polygon style="fill:#2727A9;" points="2186.421,1197.244 2225.251,1235.055 2265.012,1273.772 2283.593,1123.767 
						2133.788,1145.996 					"/>
				</g>
			</g>
			<g>
				<g>
					<g>
						<g>
							<g>
								<path style="fill:#F58220;" d="M2144.272,2023.251l-292.883-2.342c-22.741-0.182-43.704,12.072-54.148,31.652l-36.35,68.15
									l-255.544-2.043c-34.999-0.28-62.981,28.319-60.728,62.069l25.476,299.168c2.018,30.229,27.767,53.751,59.116,54.002
									l576.655,4.612c31.658,0.253,58.207-23.297,60.67-53.818l36.794-399.196
									C2206.029,2052.07,2178.954,2023.529,2144.272,2023.251z"/>
								<g>
									<path d="M2106.365,2542.021c-0.177,0-0.35,0-0.527-0.002l-576.655-4.612c-16.027-0.128-31.259-6.049-42.889-16.674
										c-11.661-10.652-18.654-25.069-19.69-40.594l-25.472-299.104c-1.133-16.96,4.755-33.168,16.574-45.701
										c12.221-12.96,29.617-20.321,47.67-20.166l253.425,2.026l35.354-66.28c11.125-20.859,33.028-33.699,57.264-33.505
										l292.883,2.342c17.904,0.144,34.969,7.652,46.819,20.601c11.477,12.541,17.052,28.677,15.7,45.435l-36.797,399.235
										C2167.435,2517.061,2139.522,2542.021,2106.365,2542.021z M1504.851,2122.167c-15.965,0-31.269,6.533-42.054,17.97
										c-10.468,11.1-15.684,25.437-14.687,40.369l25.472,299.104c1.889,28.279,26.333,50.564,55.656,50.798l576.655,4.612
										c0.156,0.001,0.316,0.002,0.472,0.002c29.535,0,54.385-22.141,56.682-50.602l36.797-399.235
										c1.191-14.758-3.74-29.016-13.89-40.106c-10.542-11.519-25.745-18.199-41.711-18.327l-292.883-2.342
										c-0.161-0.001-0.322-0.002-0.482-0.002c-21.392,0-40.729,11.386-50.55,29.801l-37.348,70.021l-257.662-2.061
										C1505.163,2122.167,1505.007,2122.167,1504.851,2122.167z"/>
								</g>
							</g>
							<polygon style="fill:#FFFFFF;" points="1478.197,2253.033 1925.565,2256.61 1927.083,2147.366 1479.716,2143.788 							"/>
							<g>
								<path style="fill:#FDC238;" d="M2171.514,2085.116l-122.971-0.985l-195.547-1.573
									c-24.739-0.197-47.535,13.129-58.895,34.431l-39.532,74.11l-277.914-2.223c-38.058-0.298-68.483,30.8-66.037,67.509
									l24.871,298.422l2.748,32.907c2.202,32.884,30.204,58.459,64.295,58.738l627.126,5.011
									c34.431,0.28,63.307-25.339,65.981-58.531l40.103-440.12C2238.681,2116.451,2209.234,2085.413,2171.514,2085.116z"/>
								<g>
									<path d="M2130.213,2654.965c-0.196,0-0.386-0.001-0.583-0.002l-627.125-5.011c-17.355-0.143-33.847-6.555-46.439-18.058
										c-12.623-11.531-20.195-27.138-21.32-43.946l-2.744-32.85l-24.871-298.422c-1.224-18.35,5.15-35.895,17.943-49.462
										c13.23-14.031,32.054-21.964,51.609-21.837l275.796,2.207l38.534-72.241c12.047-22.589,35.813-36.483,62.011-36.284
										l318.518,2.558c19.388,0.153,37.867,8.281,50.698,22.301c12.423,13.574,18.457,31.039,16.991,49.176l-40.106,440.156
										C2196.33,2627.943,2166.113,2654.962,2130.213,2654.965z M1476.127,2192.375c-17.447,0-34.174,7.142-45.96,19.641
										c-11.442,12.134-17.145,27.809-16.057,44.136l24.866,298.364l2.748,32.907c1.009,15.056,7.777,28.994,19.062,39.302
										c11.315,10.336,26.151,16.099,41.775,16.227l627.125,5.011c0.175,0.001,0.352,0.002,0.526,0.002
										c32.278,0.001,59.432-24.202,61.938-55.314l40.106-440.157c1.304-16.142-4.086-31.728-15.181-43.851
										c-11.522-12.59-28.139-19.89-45.589-20.027h0l-318.519-2.558c-23.605-0.209-44.961,12.295-55.778,32.579l-40.529,75.98
										l-280.033-2.24C1476.461,2192.375,1476.294,2192.375,1476.127,2192.375z"/>
								</g>
							</g>
						</g>
					</g>
					<path style="fill:#FFB001;" d="M2169.49,2087.994l-124.433-0.338c31.612,77.918,118.272,311.137,14.35,399.205
						c-97.114,82.3-460.003,66.391-620.39,66.962l2.746,32.633c2.2,32.611,30.201,57.972,64.293,58.247l621.549,4.937
						c34.431,0.276,63.308-25.132,65.984-58.049l40.126-436.469C2236.655,2119.066,2207.21,2088.287,2169.49,2087.994z"/>
				</g>
				<g>
					<path style="fill:#F55020;" d="M1692.314,2558.869c-0.132,19.916,244.214,21.519,244.346,1.603l1.185-178.898l-244.346-1.603
						L1692.314,2558.869z M1815.479,2418.316c16.673,0.109,30.039,13.588,29.929,30.186c-0.081,12.246-7.396,22.729-18.005,27.353
						l-0.336,50.704c-0.045,6.754-5.601,12.326-12.386,12.282c-6.897-0.045-12.38-5.69-12.335-12.444l0.336-50.819
						c-10.434-4.762-17.722-15.341-17.642-27.473C1785.151,2431.508,1798.807,2418.206,1815.479,2418.316z"/>
					<path style="fill:#F55020;" d="M1816.512,2255.658c-55.572-0.364-101.079,44.34-101.445,99.657l-0.08,12.046l24.734,0.162
						l0.079-12.046c0.277-41.74,34.616-75.473,76.548-75.198c41.924,0.275,75.814,34.457,75.537,76.196l-0.08,12.046l24.734,0.162
						l0.08-12.046C1916.987,2301.321,1872.076,2256.023,1816.512,2255.658z"/>
				</g>
			</g>
			<g>
				<g>
					<g>
						<path style="fill:#9DB8FD;" d="M981.156,1530.664H696.037c-20.793,0-37.649,16.856-37.649,37.649v254.669
							c0,20.793,16.856,37.649,37.649,37.649h285.118c20.793,0,37.649-16.856,37.649-37.649v-254.669
							C1018.805,1547.52,1001.949,1530.664,981.156,1530.664z"/>
					</g>
					<g>
						<path d="M970.053,1859.119H684.935c-22.69,0-41.149-18.46-41.149-41.149v-254.669c0-22.689,18.459-41.148,41.149-41.148
							h285.119c22.69,0,41.148,18.459,41.148,41.148v254.669C1011.202,1840.66,992.742,1859.119,970.053,1859.119z
							 M684.935,1529.152c-18.83,0-34.149,15.319-34.149,34.148v254.669c0,18.83,15.319,34.149,34.149,34.149h285.118
							c18.83,0,34.149-15.319,34.149-34.149v-254.669c0-18.83-15.319-34.148-34.148-34.148H684.935z"/>
					</g>
				</g>
				<g>
					<g>
						<path style="fill:#2727A9;" d="M824.519,1574.596c-62.415,0.319-112.472,52.634-111.583,116.619
							c0.889,63.984,52.392,115.779,114.807,115.46c62.417-0.319,112.474-52.634,111.585-116.618
							C938.44,1626.071,886.937,1574.277,824.519,1574.596z M923.254,1682.13l-42.582,0.218
							c-1.563-36.191-10.193-66.831-23.058-86.076C893.165,1609.07,919.602,1642.281,923.254,1682.13z M824.742,1590.612
							c17.67-0.091,37.77,37.207,40.294,91.816l-78.029,0.399C788.014,1628.201,807.074,1590.702,824.742,1590.612z
							 M792.035,1596.607c-12.327,19.374-20.107,50.098-20.664,86.299l-42.582,0.218
							C731.334,1643.245,756.844,1609.767,792.035,1596.607z M729.011,1699.141l42.582-0.218
							c1.562,36.191,10.194,66.831,23.058,86.076C759.1,1772.201,732.664,1738.989,729.011,1699.141z M827.521,1790.659
							c-17.668,0.09-37.767-37.207-40.292-91.816l78.029-0.399C864.252,1753.071,845.19,1790.569,827.521,1790.659z
							 M860.23,1784.663c12.328-19.374,20.107-50.098,20.664-86.299l42.582-0.218
							C920.931,1738.026,895.421,1771.504,860.23,1784.663z"/>
					</g>
				</g>
			</g>
			<g>
				<path style="fill:#76C3FF;stroke:#000000;stroke-width:7;stroke-miterlimit:10;" d="M3075.548,543.8h-417.802
					c-15.789,0-28.592,12.794-28.592,28.579v199.856c0,15.785,12.802,28.58,28.592,28.58h417.802
					c15.785,0,28.579-12.794,28.579-28.58V572.379C3104.127,556.594,3091.333,543.8,3075.548,543.8z"/>
				<g>
					<path style="fill:#FFFFFF;" d="M3068.995,617.588h-176.571c-2.58,0-4.676,2.091-4.676,4.672c0,2.576,2.095,4.668,4.676,4.668
						h176.571c2.58,0,4.671-2.092,4.671-4.668C3073.666,619.679,3071.574,617.588,3068.995,617.588z"/>
					<path style="fill:#FFFFFF;" d="M3068.995,645.806h-176.571c-2.58,0-4.676,2.095-4.676,4.675c0,2.58,2.095,4.671,4.676,4.671
						h176.571c2.58,0,4.671-2.091,4.671-4.671C3073.666,647.901,3071.574,645.806,3068.995,645.806z"/>
					<path style="fill:#FFFFFF;" d="M3068.995,674.028h-176.571c-2.58,0-4.676,2.091-4.676,4.671c0,2.58,2.095,4.672,4.676,4.672
						h176.571c2.58,0,4.671-2.091,4.671-4.672C3073.666,676.119,3071.574,674.028,3068.995,674.028z"/>
					<path style="fill:#FFFFFF;" d="M3018.656,702.25h-126.232c-2.58,0-4.676,2.092-4.676,4.668c0,2.588,2.095,4.68,4.676,4.68
						h126.232c2.58,0,4.672-2.091,4.672-4.68C3023.328,704.341,3021.236,702.25,3018.656,702.25z"/>
					<path style="fill:#FFFFFF;" d="M2984.144,730.472h-91.72c-2.58,0-4.676,2.091-4.676,4.671c0,2.576,2.095,4.667,4.676,4.667
						h91.72c2.58,0,4.671-2.091,4.671-4.667C2988.815,732.563,2986.724,730.472,2984.144,730.472z"/>
				</g>
				<g>
					<linearGradient id="SVGID_1_" gradientUnits="userSpaceOnUse" x1="2651.2664" y1="680.704" x2="2846.5266" y2="680.704">
						<stop  offset="0" style="stop-color:#23D0DC"/>
						<stop  offset="1" style="stop-color:#2790F1"/>
					</linearGradient>
					<path style="opacity:0.4;fill:url(#SVGID_1_);" d="M2827.073,589.173h-156.36c-10.736,0-19.446,8.71-19.446,19.454v144.154
						c0,10.74,8.71,19.454,19.446,19.454h156.36c10.744,0,19.454-8.714,19.454-19.454V608.627
						C2846.527,597.883,2837.817,589.173,2827.073,589.173z"/>
					<path style="fill:#FFFFFF;stroke:#000000;stroke-width:7;stroke-miterlimit:10;" d="M2832.315,585.365h-156.36
						c-10.736,0-19.446,8.706-19.446,19.446v144.158c0,10.74,8.71,19.446,19.446,19.446h156.36c10.748,0,19.454-8.706,19.454-19.446
						V604.81C2851.769,594.071,2843.063,585.365,2832.315,585.365z"/>
					<g>
						<g>
							<path style="fill:#4D78E3;stroke:#000000;stroke-width:7;stroke-miterlimit:10;" d="M2754.137,622.83
								c-13.373,0-24.212,10.839-24.212,24.212c0,13.373,10.839,24.216,24.212,24.216c13.369,0,24.208-10.843,24.208-24.216
								C2778.345,633.669,2767.506,622.83,2754.137,622.83z"/>
							<path style="fill:#4D78E3;stroke:#000000;stroke-width:7;stroke-miterlimit:10;" d="M2758.089,675.757h-7.896
								c-20.712,0-37.503,16.788-37.503,37.491v9.031c0,2.979,2.424,5.399,5.411,5.399h72.077c2.979,0,5.403-2.42,5.403-5.399
								v-9.031C2795.581,692.545,2778.788,675.757,2758.089,675.757z"/>
						</g>
					</g>
				</g>
			</g>
			<g>
				<path style="fill:#FFFFFF;stroke:#000000;stroke-width:7;stroke-miterlimit:10;" d="M1774.72,551.029
					c-109.123-45.511-236.012-11.804-308.171,81.853c-11.737,15.199-9.969,34.516,1.827,40.952
					c11.83,6.491,27.536,0.725,36.768-11.137c58.74-76.241,162.032-103.677,250.863-66.632c13.9,5.732,30.399,2.922,37.449-8.576
					C1800.501,576.042,1792.455,558.407,1774.72,551.029z"/>
				<path style="fill:#FFFFFF;stroke:#000000;stroke-width:7;stroke-miterlimit:10;" d="M1748.418,630.56
					c-77.969-27.809-165.677-4.513-219.571,58.32c-13.422,15.612-12.156,36.098-0.3,42.388c11.899,6.381,27.575,0.548,37.28-10.594
					c40.809-47.579,107.221-65.219,166.26-44.16c13.954,4.858,30.458,2.133,37.624-9.302
					C1776.884,655.864,1767.82,637.463,1748.418,630.56z"/>
				<path style="fill:#FFFFFF;stroke:#000000;stroke-width:7;stroke-miterlimit:10;" d="M1715.127,710.866
					c-42.897-9.255-87.985,2.721-120.635,32.042c-17.924,16.096-17.939,39.564-5.905,45.505c12.057,6.121,27.71,0.106,38.489-9.213
					c21.048-18.906,50.116-26.627,77.772-20.657c13.979,2.746,30.556,0.187,37.987-11.101
					C1750.337,736.319,1738.677,715.963,1715.127,710.866z"/>
			</g>
		</g>
		<g>
			<g>
				<path style="fill:#FFFFFF;stroke:#000000;stroke-width:7;stroke-miterlimit:10;" d="M3366.101,851.482
					c-8.218-28.735-92.998-75.124-92.998-75.124s-74.882-37.441-89.858-8.237c-14.977,29.204-16.474,50.92-22.465,59.157
					c-5.99,8.237-32.199,26.958-24.711,32.948c7.488,5.991,22.464,11.232,22.464,14.976c0,3.744-7.488,63.65,12.73,71.887
					c12.362,5.036,36.031,5.593,52.559,5.266v-0.001l18.123-0.772c0,0-7.62,0.565-18.123,0.773l4.869,74.458
					c0,0-45.042,14.916-29.423,54.059c3.766,9.438,34.25,21.13,63.246,13.992c44.761-11.019,75.165-45.83,86.818-55.618
					c10.586-8.892-8.53-21.235-8.53-21.235l-1.437-89.538C3339.365,928.474,3371.703,871.072,3366.101,851.482z"/>
				<path style="fill:#FFFFFF;stroke:#000000;stroke-width:7;stroke-miterlimit:10;" d="M3223.822,952.354v0.001
					c10.503-0.208,18.123-0.773,18.123-0.773L3223.822,952.354z"/>
				<path d="M3193.375,819.17c-2.302,0-4.169,3.173-4.169,7.087c0,3.914,1.867,7.087,4.169,7.087s4.169-3.173,4.169-7.087
					C3197.544,822.343,3195.678,819.17,3193.375,819.17z"/>
				<g>
					<path d="M3182.32,904.882c-2.479,0-5.094-0.274-7.839-0.823l1.373-6.864c7.725,1.546,13.966,0.446,18.55-3.267
						c9.211-7.46,9.505-23.188,9.507-23.345l7,0.067c-0.007,0.777-0.303,19.132-12.07,28.693
						C3194.302,903.03,3188.766,904.882,3182.32,904.882z"/>
				</g>
				<path d="M3208.551,694.976c-58.803,4.778-64.289,3.475-64.289,3.475l3.326,31.447l-24.034,6.26l17.949,21.915l-19.621,8.986
					l55.774,12.979c0,0,67.973-1.821,78.817,1.125c10.843,2.945,9.619,56.865,8.959,76.155c0,0,21.134-0.272,25.469,43.633
					l10.506-4.811c0,0-0.589-39.291,21.917-38.522c22.506,0.769,21.189,27.683,20.562,36.26
					c-1.763,24.106-15.57,43.739-15.57,43.739s56.295-8.377,58.124-118.4C3388.268,709.192,3267.353,690.198,3208.551,694.976z"/>
			</g>
			<g>
				<path d="M3210.701,816.971c-1.551-5.172-5.21-8.99-10.873-11.348c-4.517-1.88-8.654-2.095-8.695-2.097l0.301-6.994
					c0.211,0.009,5.228,0.242,10.851,2.532c7.717,3.144,12.945,8.64,15.122,15.895L3210.701,816.971z"/>
			</g>
		</g>
	</g>
</g>
</svg>
