<?xml version="1.0" encoding="utf-8"?>
<!-- Generator: Adobe Illustrator 27.5.0, SVG Export Plug-In . SVG Version: 6.00 Build 0)  -->
<svg version="1.1" xmlns="http://www.w3.org/2000/svg" xmlns:xlink="http://www.w3.org/1999/xlink" x="0px" y="0px"
	 viewBox="0 0 2750 2000" style="enable-background:new 0 0 2750 2000;" xml:space="preserve">
<g id="Layer_1">
	<rect style="fill:#FFFFFF;" width="2750" height="2000"/>
</g>
<g id="Layer_2">
	<g>
		<g>
			<path style="opacity:0.5;fill:#D8E9FF;" d="M2694.353,820.903c0,24.667-7.343,47.572-19.994,66.734
				c-1.215,1.828-2.473,3.622-3.764,5.384v0.022c-5.866,7.858-12.607,14.982-20.136,21.263c-0.657,0.536-1.313,1.073-1.992,1.598
				c-0.668,0.525-1.335,1.05-2.014,1.554c-0.678,0.525-1.368,1.029-2.057,1.532c-0.69,0.503-1.39,0.996-2.09,1.477
				c-0.7,0.492-1.412,0.974-2.123,1.445c-0.142,0.109-0.296,0.208-0.449,0.306c-0.514,0.328-1.018,0.656-1.521,0.974
				c-1.007,0.646-2.013,1.27-3.042,1.871c-0.503,0.307-1.007,0.602-1.521,0.908c-0.077,0.044-0.131,0.077-0.197,0.109
				c-0.679,0.383-1.368,0.766-2.058,1.149c-0.405,0.23-0.821,0.449-1.226,0.667c-0.208,0.109-0.416,0.219-0.624,0.328
				c-0.339,0.175-0.689,0.361-1.04,0.536c-0.558,0.285-1.105,0.569-1.674,0.854c-0.011,0-0.011,0-0.011,0
				c-0.569,0.274-1.138,0.558-1.707,0.821c-0.317,0.153-0.635,0.306-0.963,0.449c-0.241,0.12-0.492,0.241-0.733,0.35
				c-0.416,0.197-0.843,0.383-1.27,0.558c-0.624,0.274-1.237,0.547-1.86,0.81c-0.963,0.416-1.948,0.81-2.933,1.193
				c-0.077,0.033-0.153,0.066-0.23,0.098c-0.733,0.274-1.455,0.547-2.2,0.821c-0.262,0.099-0.514,0.186-0.777,0.285
				c-0.175,0.066-0.361,0.12-0.536,0.186c-1.412,0.503-2.834,0.985-4.268,1.423c-0.733,0.23-1.467,0.449-2.2,0.657
				c-0.459,0.131-0.919,0.274-1.379,0.394c-1.105,0.317-2.233,0.613-3.349,0.886c-0.656,0.164-1.313,0.328-1.97,0.471
				c-0.339,0.088-0.678,0.164-1.018,0.23c-0.197,0.055-0.383,0.088-0.58,0.131c-0.427,0.088-0.865,0.186-1.302,0.263
				c-1.313,0.285-2.637,0.525-3.972,0.744c-0.514,0.099-1.04,0.186-1.554,0.263c-1.762,0.284-3.535,0.514-5.318,0.711
				c-0.886,0.099-1.773,0.186-2.67,0.274h-0.011c-0.897,0.077-1.795,0.142-2.692,0.208c-1.806,0.12-3.622,0.208-5.45,0.241
				c-0.919,0.033-1.816,0.044-2.747,0.044h-364.27c-0.558,0-1.105,0-1.663,0.011c-0.416,0.022-0.832,0.022-1.248,0.033
				c-0.131,0.011-0.274,0.011-0.405,0.011c-0.175,0.011-0.339,0.011-0.514,0.033c-1.576,0.066-3.141,0.175-4.695,0.339
				c-0.361,0.033-0.722,0.077-1.083,0.12c-0.569,0.066-1.149,0.142-1.718,0.219c-0.689,0.099-1.368,0.197-2.057,0.307
				c-0.099,0.011-0.186,0.033-0.274,0.044c-0.055,0-0.121,0.022-0.175,0.033c-0.033,0-0.066,0.011-0.088,0.011
				c-0.328,0.066-0.656,0.12-0.996,0.186c-0.558,0.099-1.105,0.197-1.652,0.317c-0.427,0.076-0.854,0.175-1.291,0.274
				c-0.744,0.164-1.489,0.339-2.222,0.525c-0.252,0.066-0.503,0.131-0.766,0.197c-0.164,0.033-0.328,0.077-0.482,0.131
				c-0.394,0.088-0.777,0.197-1.171,0.317c-1.357,0.383-2.692,0.799-4.016,1.248c-0.591,0.197-1.171,0.405-1.751,0.624
				c-0.044,0-0.066,0.011-0.098,0.033c-0.099,0.033-0.208,0.077-0.317,0.131c-0.493,0.164-0.974,0.361-1.456,0.547
				c-0.394,0.153-0.777,0.306-1.16,0.459c-0.164,0.066-0.317,0.131-0.481,0.208c-0.284,0.12-0.58,0.241-0.865,0.372
				c-0.405,0.164-0.81,0.339-1.204,0.514c-0.252,0.12-0.514,0.241-0.788,0.372c-0.328,0.153-0.667,0.317-0.996,0.47
				c-0.252,0.109-0.492,0.23-0.733,0.35c-0.35,0.175-0.701,0.35-1.051,0.536c-0.602,0.295-1.182,0.602-1.762,0.93
				c-0.58,0.317-1.16,0.646-1.74,0.974c-0.153,0.088-0.317,0.175-0.47,0.263c-0.416,0.241-0.821,0.481-1.226,0.744
				c-0.503,0.296-0.996,0.602-1.488,0.93c-0.175,0.109-0.361,0.23-0.536,0.339c-0.23,0.153-0.471,0.307-0.7,0.46
				c-0.755,0.492-1.499,0.996-2.232,1.521c-0.022,0.011-0.022,0.011-0.022,0.011c-0.339,0.252-0.678,0.503-1.007,0.755
				c-0.449,0.328-0.897,0.657-1.346,1.007c-0.273,0.208-0.536,0.405-0.788,0.613c-1.04,0.81-2.046,1.652-3.042,2.506
				c-0.262,0.23-0.525,0.46-0.777,0.678c-0.077,0.077-0.153,0.142-0.241,0.208c-0.153,0.142-0.306,0.284-0.459,0.427
				c-0.099,0.099-0.197,0.186-0.296,0.274c-0.252,0.23-0.514,0.46-0.755,0.69c-0.613,0.569-1.204,1.149-1.795,1.751v0.011
				c-0.602,0.591-1.182,1.204-1.751,1.817c-0.668,0.7-1.313,1.411-1.948,2.134c-0.35,0.394-0.7,0.788-1.029,1.193
				c-0.241,0.296-0.492,0.58-0.733,0.876c-1.499,1.828-2.922,3.71-4.257,5.669c-0.219,0.317-0.438,0.646-0.656,0.974
				c-0.438,0.646-0.865,1.302-1.27,1.97c-1.639,2.62-3.125,5.348-4.467,8.159c-0.17,0.359-0.348,0.715-0.512,1.077
				c-0.243,0.528-0.469,1.065-0.7,1.599c-0.272,0.626-0.543,1.256-0.792,1.889c-0.263,0.652-0.527,1.302-0.773,1.962
				c-0.11,0.284-0.219,0.569-0.318,0.865c-0.153,0.416-0.306,0.832-0.438,1.247c-0.208,0.602-0.416,1.226-0.602,1.828
				c0,0-0.011,0.011-0.011,0.022c-0.164,0.503-0.317,1.018-0.459,1.543c-0.197,0.624-0.372,1.237-0.525,1.86
				c-0.066,0.23-0.131,0.449-0.186,0.679c-0.066,0.23-0.12,0.449-0.175,0.689c-0.153,0.58-0.284,1.149-0.416,1.729
				c-0.131,0.58-0.251,1.16-0.372,1.751c-0.055,0.219-0.099,0.449-0.142,0.668c-0.744,3.808-1.226,7.704-1.423,11.666
				c-0.099,1.412-0.121,2.823-0.121,4.246c0,2.823,0.142,5.636,0.427,8.383c0.065,0.7,0.131,1.39,0.241,2.079
				c0.076,0.689,0.164,1.379,0.284,2.046c0.12,0.766,0.252,1.521,0.383,2.276c0.066,0.416,0.153,0.832,0.241,1.248
				c0.033,0.175,0.066,0.35,0.11,0.525c0.033,0.164,0.066,0.339,0.098,0.503c0.098,0.493,0.208,0.985,0.328,1.488
				c0.186,0.788,0.372,1.565,0.58,2.342c0.121,0.536,0.274,1.072,0.438,1.598c0.186,0.657,0.372,1.302,0.569,1.948
				c0.383,1.281,0.821,2.55,1.292,3.809c0.219,0.635,0.459,1.258,0.711,1.882c0.252,0.613,0.503,1.237,0.766,1.85
				c0.263,0.613,0.536,1.225,0.81,1.838c0.077,0.175,0.153,0.35,0.23,0.525c0.481,1.04,0.974,2.057,1.488,3.075
				c0.591,1.182,1.215,2.331,1.893,3.48c0.011,0,0.011,0,0.011,0s0,0-0.011,0.011c0.657,1.138,1.346,2.266,2.058,3.382
				c0.361,0.558,0.733,1.094,1.094,1.653c0.744,1.094,1.499,2.167,2.287,3.217c0.011,0,0.011,0,0,0.011
				c0.7,0.919,1.401,1.817,2.112,2.692c0.525,0.646,1.062,1.281,1.609,1.904c0.427,0.503,0.865,0.985,1.313,1.477
				c0.066,0.076,0.12,0.142,0.186,0.219c0.306,0.35,0.624,0.69,0.952,1.018l0.208,0.208c0.066,0.066,0.131,0.142,0.197,0.208
				c0.755,0.821,1.554,1.62,2.375,2.375c0.066,0.066,0.142,0.131,0.208,0.197c0.098,0.099,0.186,0.186,0.285,0.285
				c0.284,0.285,0.58,0.547,0.875,0.799c0.58,0.536,1.16,1.062,1.762,1.576c0.58,0.503,1.171,1.007,1.762,1.488
				c0.416,0.372,0.843,0.701,1.28,1.029c1.149,0.897,2.32,1.773,3.524,2.616c0.416,0.295,0.832,0.591,1.259,0.875
				c0.394,0.263,0.799,0.526,1.193,0.788c0.153,0.098,0.306,0.186,0.46,0.285c0.284,0.186,0.558,0.361,0.843,0.536
				c0.285,0.186,0.558,0.361,0.843,0.525c0.569,0.361,1.127,0.689,1.707,1.007c0.919,0.525,1.839,1.04,2.78,1.532
				c0.164,0.088,0.317,0.164,0.481,0.241c0.624,0.328,1.259,0.646,1.893,0.952c0.646,0.318,1.281,0.613,1.926,0.908
				c0.613,0.296,1.215,0.547,1.838,0.799c0.613,0.263,1.237,0.514,1.85,0.755c0.481,0.197,0.941,0.383,1.412,0.547
				c0.164,0.055,0.317,0.11,0.47,0.164c0.274,0.109,0.558,0.208,0.843,0.306c1.609,0.569,3.25,1.094,4.914,1.565
				c0.131,0.044,0.273,0.088,0.405,0.12c0.525,0.142,1.04,0.285,1.554,0.416c0.656,0.175,1.313,0.339,1.981,0.481
				c0.503,0.131,0.996,0.241,1.499,0.328c0.503,0.109,0.996,0.208,1.499,0.296l1.018,0.197c0.591,0.12,1.149,0.208,1.729,0.296
				c0.098,0.011,0.197,0.022,0.295,0.044c1.051,0.153,2.101,0.296,3.152,0.405c0.361,0.055,0.711,0.088,1.073,0.131
				c0.656,0.077,1.291,0.142,1.937,0.164h0.077c0.689,0.077,1.368,0.12,2.057,0.142c0.525,0.033,1.051,0.055,1.576,0.055
				c0.175,0.011,0.35,0.011,0.525,0.011c0.175,0.011,0.361,0.011,0.536,0.022c0.525,0.011,1.051,0.022,1.576,0.022h250.062
				c0.536,0,1.073,0,1.609,0.011s1.073,0.033,1.62,0.044c1.073,0.044,2.145,0.088,3.207,0.164c0.985,0.055,1.959,0.131,2.933,0.219
				c0.055,0,0.12,0,0.186,0.011c0.055,0,0.109,0.011,0.175,0.022c0.777,0.077,1.554,0.164,2.331,0.252
				c0.383,0.044,0.777,0.087,1.16,0.142c0.054,0,0.109,0.011,0.164,0.022c0.328,0.044,0.656,0.088,0.985,0.131
				c0.109,0.022,0.208,0.033,0.317,0.054c0.657,0.099,1.313,0.208,1.959,0.307c0.131,0.011,0.252,0.033,0.383,0.066
				c0.328,0.055,0.646,0.109,0.974,0.164c1.346,0.241,2.692,0.514,4.016,0.821c1.018,0.241,2.025,0.471,3.02,0.733
				c0.328,0.076,0.657,0.164,0.974,0.252c0.328,0.076,0.656,0.164,0.974,0.263c0.536,0.153,1.083,0.318,1.62,0.481
				c0.175,0.044,0.339,0.099,0.514,0.142c2.594,0.777,5.144,1.663,7.639,2.648c0.755,0.306,1.51,0.613,2.254,0.93
				c0.186,0.076,0.383,0.164,0.569,0.24c0.197,0.088,0.383,0.175,0.58,0.252c0.087,0.033,0.175,0.077,0.263,0.12
				c1.029,0.449,2.035,0.908,3.031,1.401c0.733,0.35,1.456,0.711,2.178,1.083c1.434,0.744,2.867,1.51,4.257,2.309
				c0.449,0.252,0.875,0.503,1.313,0.777c0.077,0.033,0.153,0.077,0.219,0.131c0.941,0.558,1.882,1.138,2.802,1.74
				c0.613,0.394,1.226,0.788,1.817,1.193c0.449,0.307,0.897,0.613,1.335,0.919c0.186,0.131,0.361,0.263,0.547,0.394
				c0.569,0.405,1.138,0.81,1.696,1.226c0.219,0.164,0.438,0.339,0.667,0.503c0.219,0.153,0.438,0.317,0.657,0.503
				c0.547,0.416,1.083,0.843,1.62,1.269c0.197,0.142,0.405,0.307,0.602,0.482c0.525,0.427,1.029,0.854,1.554,1.28
				c0.657,0.558,1.313,1.127,1.959,1.718c0.613,0.547,1.226,1.105,1.828,1.674c0.602,0.558,1.204,1.127,1.784,1.718
				c0.197,0.197,0.394,0.383,0.591,0.58c0.328,0.317,0.646,0.634,0.952,0.963c0.317,0.328,0.624,0.657,0.941,0.985
				c0.908,0.941,1.784,1.893,2.637,2.878c0.284,0.317,0.569,0.646,0.843,0.974c0.109,0.098,0.197,0.219,0.285,0.328
				c0.208,0.252,0.416,0.493,0.624,0.744c2.024,2.429,3.939,4.969,5.723,7.595c0.427,0.613,0.854,1.248,1.259,1.882
				c0.459,0.7,0.908,1.423,1.346,2.134c0.208,0.339,0.416,0.69,0.613,1.018c0.219,0.339,0.416,0.678,0.613,1.029
				c0.394,0.678,0.777,1.346,1.16,2.035c0.011,0.022,0.022,0.044,0.044,0.077c0.197,0.372,0.394,0.733,0.591,1.105
				c0.372,0.679,0.722,1.357,1.062,2.047c0.284,0.536,0.547,1.072,0.81,1.62c0.011,0,0.011,0,0,0.011
				c0.274,0.547,0.525,1.106,0.777,1.664c0.252,0.558,0.503,1.105,0.744,1.663c0.503,1.116,0.974,2.244,1.423,3.393
				c0.591,1.521,1.149,3.064,1.685,4.618c0.164,0.46,0.317,0.93,0.46,1.401c0.099,0.296,0.186,0.602,0.285,0.908
				c0.12,0.405,0.251,0.799,0.361,1.193c0.121,0.394,0.23,0.788,0.339,1.182c0.153,0.514,0.285,1.018,0.427,1.532
				c0.131,0.493,0.263,0.985,0.383,1.489c0.285,1.105,0.536,2.233,0.777,3.36c0.132,0.656,0.274,1.335,0.405,2.003
				c0.088,0.427,0.164,0.853,0.252,1.291c0.011,0.011,0.011,0.022,0.011,0.033c0.066,0.416,0.131,0.843,0.197,1.269
				c0.12,0.668,0.23,1.335,0.317,2.014c0.088,0.558,0.164,1.127,0.241,1.696c0.011,0.033,0.011,0.066,0.011,0.088
				c0.055,0.372,0.099,0.744,0.131,1.116c0.055,0.492,0.109,0.996,0.153,1.488c0.033,0.274,0.055,0.547,0.088,0.81
				c0.033,0.296,0.055,0.602,0.077,0.897c0.011,0.208,0.033,0.416,0.044,0.624c0.011,0.164,0.033,0.317,0.044,0.482
				c0.044,0.613,0.088,1.237,0.121,1.86c0.022,0.515,0.054,1.04,0.065,1.554c0,0.328,0.011,0.667,0.022,0.996
				c0.011,0.339,0.022,0.679,0.033,1.029c0.011,0.613,0.022,1.226,0.022,1.839c0,0.602,0,1.204-0.022,1.795
				c-0.011,0.339-0.022,0.678-0.033,1.018c-0.011,0.503-0.022,0.996-0.055,1.488c0,0.263-0.011,0.514-0.022,0.777v0.077
				c-0.022,0.23-0.033,0.46-0.055,0.689c-0.011,0.394-0.033,0.766-0.066,1.149c-0.033,0.383-0.055,0.766-0.098,1.149
				c-0.022,0.35-0.044,0.7-0.077,1.051c-0.033,0.35-0.055,0.7-0.099,1.05c-0.022,0.296-0.055,0.58-0.087,0.876
				c-0.066,0.646-0.142,1.28-0.23,1.915c-0.065,0.569-0.153,1.127-0.241,1.696c-0.055,0.372-0.109,0.733-0.175,1.105
				c-0.088,0.635-0.197,1.269-0.306,1.904c-0.11,0.58-0.219,1.16-0.339,1.729c-0.088,0.536-0.208,1.072-0.329,1.608
				c-0.12,0.602-0.252,1.193-0.394,1.795c-0.142,0.646-0.306,1.291-0.471,1.937c-0.142,0.569-0.295,1.138-0.459,1.696
				c-0.077,0.306-0.164,0.624-0.263,0.93c-0.274,0.952-0.547,1.893-0.843,2.824c-0.131,0.471-0.285,0.93-0.449,1.39
				c-0.153,0.47-0.317,0.93-0.481,1.39c-0.296,0.875-0.613,1.729-0.941,2.594c-0.153,0.416-0.317,0.832-0.481,1.248
				c-0.153,0.416-0.328,0.832-0.503,1.247c-0.339,0.821-0.69,1.641-1.051,2.451c-0.164,0.372-0.317,0.733-0.492,1.094
				c-0.667,1.477-1.379,2.944-2.134,4.377c-0.438,0.832-0.886,1.674-1.346,2.495c-0.219,0.394-0.438,0.788-0.657,1.193
				c-0.23,0.394-0.46,0.799-0.7,1.182c-0.481,0.832-0.985,1.653-1.51,2.484c-0.12,0.208-0.263,0.427-0.394,0.635
				c-0.263,0.405-0.525,0.81-0.799,1.215c0,0.011-0.011,0.022-0.022,0.033c-0.459,0.689-0.919,1.379-1.39,2.046
				c-1.904,2.725-3.94,5.351-6.107,7.868c-0.241,0.284-0.492,0.558-0.733,0.843c-0.262,0.317-0.547,0.635-0.843,0.952
				c-0.285,0.328-0.569,0.635-0.865,0.952c-0.635,0.712-1.302,1.401-1.97,2.08c-0.35,0.361-0.711,0.722-1.062,1.072
				c-0.35,0.361-0.711,0.711-1.073,1.051c-0.361,0.35-0.722,0.7-1.094,1.04c-0.361,0.35-0.733,0.679-1.105,1.018
				c-0.591,0.547-1.182,1.073-1.795,1.608c-0.361,0.307-0.722,0.624-1.094,0.919c-0.361,0.307-0.722,0.613-1.094,0.897
				c-0.23,0.197-0.471,0.394-0.711,0.591c-0.93,0.755-1.882,1.488-2.834,2.2c-1.094,0.821-2.211,1.62-3.349,2.386
				c-1.488,1.029-3.01,2.013-4.552,2.955c-0.689,0.416-1.39,0.821-2.079,1.226c-0.361,0.197-0.722,0.405-1.094,0.613
				c-0.164,0.098-0.328,0.186-0.503,0.273c-0.536,0.296-1.062,0.591-1.609,0.865c-0.635,0.339-1.28,0.668-1.937,0.996
				c-0.066,0.044-0.131,0.076-0.197,0.098c-0.077,0.033-0.143,0.066-0.219,0.099c-0.733,0.372-1.477,0.733-2.221,1.072
				c-2.429,1.138-4.925,2.178-7.464,3.108c-0.263,0.098-0.547,0.197-0.821,0.295c-0.886,0.328-1.784,0.635-2.692,0.919
				c-0.438,0.153-0.886,0.285-1.335,0.427c-0.394,0.12-0.788,0.241-1.182,0.361c-0.459,0.142-0.919,0.285-1.39,0.405
				c-0.667,0.197-1.335,0.372-2.002,0.536c-0.066,0.033-0.132,0.044-0.197,0.055c-1.598,0.405-3.206,0.777-4.837,1.127
				c-0.821,0.164-1.631,0.317-2.462,0.47c-0.722,0.131-1.445,0.252-2.167,0.361c-0.099,0.011-0.197,0.033-0.295,0.044
				c-0.624,0.099-1.248,0.186-1.882,0.263c-0.602,0.087-1.204,0.153-1.806,0.23c-0.011,0.011-0.033,0.011-0.055,0
				c-1.335,0.153-2.681,0.284-4.038,0.383c-0.788,0.066-1.576,0.12-2.375,0.153c-0.164,0.011-0.317,0.011-0.47,0.011
				c-0.186,0.011-0.372,0.022-0.558,0.033c-0.503,0.022-1.007,0.044-1.51,0.055c-0.854,0.033-1.718,0.044-2.583,0.044h-204.996
				c-0.624,0-1.259,0.011-1.871,0.022c-0.69,0.011-1.379,0.044-2.057,0.088c-1.171,0.077-2.342,0.186-3.491,0.306
				c-0.613,0.076-1.204,0.153-1.816,0.241c-0.197,0.022-0.405,0.055-0.602,0.077c-0.405,0.066-0.799,0.12-1.193,0.197
				c-0.295,0.055-0.602,0.098-0.897,0.164c-0.306,0.044-0.602,0.109-0.897,0.175c-0.295,0.066-0.58,0.12-0.886,0.186
				c-1.543,0.328-3.064,0.711-4.563,1.16c-0.569,0.164-1.138,0.339-1.696,0.525c-0.131,0.033-0.262,0.077-0.394,0.12
				c-0.624,0.208-1.237,0.427-1.849,0.646c-0.044,0.011-0.077,0.033-0.12,0.044c-0.646,0.241-1.292,0.492-1.937,0.755
				c-0.077,0.022-0.164,0.055-0.241,0.088c-0.295,0.131-0.591,0.252-0.875,0.372c-0.405,0.175-0.799,0.35-1.204,0.525
				c-0.963,0.427-1.904,0.876-2.823,1.357c-0.153,0.088-0.317,0.175-0.482,0.252c-0.613,0.328-1.214,0.656-1.816,0.996
				c-0.47,0.263-0.941,0.536-1.401,0.821c-0.711,0.416-1.412,0.854-2.101,1.302c-0.635,0.416-1.27,0.843-1.882,1.269
				c-0.197,0.142-0.383,0.274-0.569,0.416c-2.856,2.046-5.527,4.323-8,6.796c-0.46,0.459-0.908,0.93-1.346,1.39
				c-0.208,0.208-0.394,0.416-0.58,0.624c-0.175,0.186-0.35,0.372-0.503,0.558c-0.263,0.274-0.503,0.547-0.744,0.832
				c-0.077,0.076-0.142,0.164-0.219,0.241c-0.186,0.23-0.383,0.47-0.591,0.7c-0.066,0.088-0.131,0.164-0.197,0.252
				c-0.328,0.394-0.656,0.799-0.974,1.204c-0.329,0.405-0.646,0.821-0.952,1.236c-0.208,0.263-0.405,0.536-0.602,0.821
				c-0.613,0.843-1.204,1.696-1.762,2.561c-2.09,3.185-3.907,6.566-5.406,10.123c-0.208,0.481-0.405,0.963-0.591,1.455
				c-0.142,0.35-0.284,0.712-0.405,1.062c-0.153,0.394-0.295,0.799-0.438,1.193c-0.011,0.011-0.011,0.011-0.011,0.022
				c-0.142,0.372-0.274,0.755-0.394,1.149v0.011c-0.186,0.547-0.35,1.094-0.514,1.641c-0.033,0.099-0.066,0.197-0.098,0.307
				l-0.394,1.412c-0.088,0.295-0.164,0.591-0.23,0.886c-0.055,0.175-0.099,0.361-0.142,0.536c-0.066,0.262-0.131,0.536-0.186,0.799
				c-0.011,0.033-0.022,0.066-0.033,0.109c-0.12,0.514-0.23,1.029-0.328,1.543c-0.12,0.526-0.219,1.051-0.306,1.576
				c-0.088,0.482-0.164,0.963-0.241,1.455c-0.066,0.427-0.131,0.865-0.186,1.302c-0.044,0.306-0.077,0.624-0.121,0.941
				c-0.033,0.263-0.065,0.514-0.087,0.777c-0.022,0.262-0.055,0.525-0.077,0.788c-0.022,0.208-0.044,0.427-0.066,0.635
				c-0.011,0.142-0.022,0.295-0.022,0.438c-0.044,0.481-0.076,0.952-0.098,1.423c-0.011,0.142-0.022,0.284-0.022,0.438
				c-0.033,0.416-0.055,0.843-0.066,1.269v0.296c-0.011,0.547-0.022,1.105-0.022,1.663c0,0.766,0.011,1.521,0.044,2.276v0.164
				c0.011,0.307,0.022,0.602,0.044,0.886c0.055,1.105,0.131,2.2,0.252,3.283c0,0.066,0.011,0.131,0.011,0.197
				c0.022,0.109,0.022,0.208,0.033,0.317c0.044,0.339,0.076,0.689,0.12,1.018c0.011,0.142,0.044,0.296,0.066,0.449
				c0.022,0.263,0.066,0.547,0.11,0.832c0.022,0.131,0.044,0.263,0.066,0.394c0.23,1.532,0.514,3.031,0.854,4.52
				c0.088,0.405,0.175,0.799,0.284,1.193c0.307,1.248,0.646,2.473,1.029,3.688c0.153,0.503,0.317,1.007,0.493,1.51
				c0.438,1.324,0.93,2.627,1.466,3.907c0.164,0.405,0.339,0.81,0.514,1.215c0.12,0.285,0.241,0.558,0.372,0.832
				c0.186,0.427,0.383,0.843,0.591,1.258c0.23,0.503,0.482,0.996,0.733,1.477c0.23,0.46,0.471,0.93,0.723,1.39
				c0.656,1.193,1.335,2.364,2.068,3.513c0.262,0.416,0.536,0.843,0.799,1.247c0.23,0.35,0.46,0.7,0.7,1.04
				c0.175,0.252,0.339,0.503,0.514,0.755c0.306,0.438,0.613,0.854,0.941,1.281c0.624,0.832,1.27,1.663,1.937,2.462
				c0.131,0.164,0.262,0.328,0.394,0.493c0.055,0.055,0.109,0.109,0.164,0.175c0.142,0.175,0.295,0.35,0.449,0.514
				c0.405,0.493,0.832,0.963,1.269,1.445c0.613,0.668,1.237,1.313,1.893,1.959v0.011c0.722,0.733,1.477,1.445,2.233,2.134
				c0.416,0.361,0.843,0.733,1.258,1.105c0.361,0.306,0.733,0.624,1.094,0.93c0.799,0.657,1.609,1.302,2.451,1.915
				c0.821,0.624,1.675,1.226,2.517,1.806c0.876,0.58,1.751,1.138,2.637,1.674c0.875,0.547,1.784,1.073,2.703,1.554
				c0.449,0.252,0.908,0.492,1.368,0.733c0.471,0.241,0.941,0.471,1.423,0.689c0.941,0.449,1.893,0.886,2.867,1.292
				c0.481,0.219,0.974,0.416,1.455,0.602c0.482,0.197,0.974,0.383,1.456,0.569c0.492,0.197,0.996,0.372,1.499,0.525
				c0.996,0.328,2.014,0.657,3.031,0.941c0.514,0.142,1.018,0.295,1.543,0.416c0.525,0.131,1.04,0.252,1.554,0.372
				c0.011,0,0.011,0,0.011,0c0.525,0.131,1.029,0.252,1.565,0.339c0,0,0,0,0.011,0c0.525,0.12,1.04,0.23,1.576,0.306
				c1.083,0.197,2.189,0.361,3.294,0.504c0.394,0.044,0.788,0.099,1.193,0.131c0.656,0.077,1.313,0.131,1.981,0.186
				c0.558,0.055,1.083,0.099,1.631,0.099c0.011,0,0.011,0,0.011,0c0.558,0.033,1.105,0.055,1.664,0.066
				c0.175,0,0.35,0.011,0.536,0.011c0.088,0,0.197,0.011,0.284,0.011c0.285,0.022,0.569,0.022,0.843,0.022h93.995
				c1.729,0,3.469,0.033,5.187,0.131c0.372,0,0.711,0,1.062,0.033c0.755,0.033,1.521,0.077,2.287,0.131
				c0.58,0.022,1.149,0.065,1.718,0.12c0.12,0,0.252,0.022,0.383,0.033c0.241,0.011,0.492,0.033,0.733,0.066
				c0.044,0,0.077,0.011,0.12,0.022c0.897,0.088,1.806,0.175,2.703,0.285c0.897,0.109,1.795,0.219,2.692,0.361
				c1.839,0.241,3.633,0.547,5.417,0.875h0.109c0.011-0.011,0.022-0.011,0.033,0c0.12,0.011,0.241,0.033,0.35,0.066
				c0.033,0,0.055,0,0.077,0.022c1.357,0.284,2.725,0.558,4.049,0.875c0.58,0.12,1.149,0.252,1.718,0.383
				c0.109,0.011,0.219,0.033,0.317,0.066c0.098,0.011,0.186,0.033,0.263,0.066c0.098,0.022,0.186,0.044,0.284,0.077
				c0.306,0.076,0.591,0.164,0.875,0.252c0.908,0.197,1.784,0.438,2.67,0.711c0.985,0.263,1.97,0.547,2.944,0.843
				c0.076,0.011,0.164,0.044,0.241,0.066c0.077,0.033,0.142,0.054,0.219,0.088c0.405,0.12,0.821,0.252,1.226,0.383
				c0.416,0.131,0.821,0.263,1.226,0.405c0.241,0.077,0.481,0.164,0.722,0.241c0.263,0.088,0.525,0.175,0.777,0.274
				c0.296,0.109,0.602,0.219,0.897,0.339c0.492,0.164,0.963,0.35,1.455,0.536c1.105,0.394,2.2,0.832,3.272,1.291
				c0.514,0.219,1.04,0.427,1.543,0.657c1.685,0.7,3.348,1.444,4.979,2.265c0.361,0.164,0.712,0.339,1.073,0.503
				c1.27,0.613,2.506,1.248,3.754,1.926c0.295,0.164,0.591,0.328,0.897,0.492c0.372,0.208,0.733,0.416,1.083,0.635
				c0.886,0.482,1.762,0.996,2.648,1.499c0.503,0.296,1.018,0.613,1.521,0.941c1.292,0.788,2.583,1.598,3.841,2.484
				c0.088,0.044,0.197,0.099,0.284,0.164c0.088,0.055,0.164,0.12,0.252,0.175c0.317,0.208,0.635,0.427,0.952,0.635
				c0.317,0.219,0.635,0.449,0.952,0.667c0.492,0.339,0.985,0.701,1.456,1.04c0.142,0.099,0.284,0.197,0.427,0.296
				c0.164,0.12,0.328,0.241,0.481,0.35c0.131,0.098,0.263,0.197,0.383,0.296c0.219,0.186,0.438,0.35,0.646,0.514
				c1.073,0.81,2.167,1.653,3.206,2.539c0.646,0.481,1.302,1.018,1.904,1.598c0.58,0.438,1.16,0.941,1.696,1.444
				c0.7,0.591,1.39,1.204,2.112,1.872c1.204,1.116,2.429,2.276,3.612,3.447c0.514,0.514,1.018,1.04,1.521,1.554
				c0.514,0.525,1.007,1.051,1.51,1.587c0.646,0.689,1.248,1.379,1.871,2.057c0.175,0.197,0.35,0.383,0.514,0.58
				c0.657,0.744,1.313,1.51,1.948,2.276c0.7,0.832,1.379,1.663,2.046,2.517c0.219,0.285,0.438,0.569,0.656,0.854
				c0.197,0.24,0.394,0.492,0.58,0.744c0.11,0.131,0.219,0.263,0.317,0.405c0.186,0.252,0.372,0.493,0.558,0.744
				c0.547,0.733,1.094,1.477,1.62,2.221l0.033,0.033c0.459,0.657,0.908,1.302,1.346,1.959c1.193,1.74,2.342,3.524,3.437,5.329
				c0.394,0.635,0.766,1.259,1.127,1.883c0.121,0.208,0.241,0.427,0.361,0.635c0.711,1.237,1.412,2.495,2.068,3.765
				c0.328,0.613,0.646,1.226,0.963,1.849c0.186,0.35,0.361,0.711,0.525,1.073c0.339,0.667,0.667,1.335,0.974,2.013
				c0.755,1.565,1.456,3.152,2.134,4.761c0.153,0.372,0.306,0.744,0.459,1.116c0.066,0.186,0.142,0.361,0.219,0.558
				c0.843,2.08,1.62,4.192,2.342,6.326c0.022,0.044,0.044,0.098,0.055,0.142c0.252,0.777,0.514,1.554,0.755,2.342
				c0.076,0.241,0.153,0.481,0.219,0.733c0.23,0.701,0.438,1.401,0.635,2.112c0.109,0.35,0.208,0.689,0.295,1.039
				c0.153,0.558,0.295,1.105,0.449,1.663c0.044,0.153,0.076,0.296,0.109,0.449c0.284,1.072,0.547,2.145,0.788,3.217
				c0.219,0.919,0.416,1.828,0.602,2.758c0.186,0.897,0.361,1.806,0.525,2.714c0.022,0.142,0.055,0.284,0.077,0.427
				c0.164,0.941,0.317,1.882,0.46,2.823c0.153,0.963,0.284,1.915,0.405,2.889c0.022,0.099,0.033,0.197,0.044,0.296
				c0.022,0.208,0.054,0.427,0.076,0.635c0.087,0.712,0.164,1.412,0.241,2.123c0,0.044,0,0.088,0.011,0.131
				c0.077,0.799,0.153,1.609,0.219,2.407c0.044,0.58,0.087,1.16,0.12,1.74c0.044,0.711,0.088,1.423,0.121,2.145
				c0.022,0.307,0.044,0.613,0.044,0.919c0.044,0.667,0.066,1.335,0.077,2.014c0,0.044,0.011,0.098,0,0.142
				c0.033,1.007,0.044,2.013,0.044,3.02v0.022c0,1.04-0.011,2.079-0.044,3.119c-0.011,0.394-0.022,0.777-0.044,1.171
				c-0.011,0.482-0.044,0.952-0.066,1.434c0.011,0.011,0.011,0.011,0.022,0.022c0,0.011,0,0.011-0.011,0.022
				c0,0-0.011,0-0.011,0.011v0.011c0,0.153-0.011,0.307-0.022,0.449c-0.022,0.471-0.044,0.93-0.077,1.379
				c0.011,0.022,0.011,0.033,0.011,0.044c0,0.043,0,0.077-0.011,0.109c-0.033,0.515-0.066,1.04-0.109,1.554
				c-0.011,0.208-0.022,0.405-0.044,0.613c-0.055,0.7-0.121,1.39-0.186,2.09v0.033c-0.044,0.405-0.088,0.81-0.131,1.215
				c-0.077,0.701-0.153,1.39-0.241,2.09c-0.011,0.033-0.022,0.055-0.022,0.066c-0.055,0.372-0.11,0.755-0.153,1.138
				c-0.054,0.372-0.098,0.733-0.142,1.105c-0.033,0.208-0.066,0.427-0.099,0.635c-0.164,1.149-0.361,2.287-0.569,3.414
				c-0.142,0.81-0.295,1.62-0.459,2.419c-0.033,0.197-0.077,0.394-0.121,0.58c-0.164,0.788-0.328,1.554-0.514,2.331
				c-0.153,0.7-0.317,1.412-0.504,2.101c-0.142,0.536-0.284,1.061-0.427,1.598c-0.077,0.372-0.175,0.744-0.274,1.116
				c-0.109,0.372-0.219,0.744-0.328,1.116c-0.12,0.427-0.219,0.821-0.339,1.248c-0.186,0.667-0.383,1.335-0.602,1.992
				c-0.164,0.58-0.35,1.16-0.547,1.729c-0.011,0.033-0.033,0.066-0.044,0.099c-0.044,0.109-0.088,0.23-0.142,0.361
				c-0.591,1.828-1.237,3.633-1.926,5.406c-0.131,0.372-0.274,0.744-0.427,1.116c-0.361,0.908-0.744,1.817-1.127,2.714
				c-0.317,0.744-0.646,1.488-0.985,2.233c0,0,0,0,0,0.011c-0.383,0.886-0.81,1.773-1.226,2.659
				c-0.328,0.667-0.657,1.324-0.985,1.981c-0.033,0.066-0.055,0.12-0.088,0.186c-0.295,0.591-0.613,1.171-0.93,1.762
				c-0.088,0.175-0.186,0.35-0.285,0.526c-0.263,0.503-0.536,1.007-0.821,1.51c-0.274,0.514-0.569,1.029-0.865,1.543
				c-0.153,0.274-0.307,0.547-0.482,0.821c-0.372,0.657-0.755,1.313-1.16,1.97c-0.503,0.832-1.018,1.663-1.543,2.484
				c-0.514,0.821-1.051,1.631-1.598,2.44c-0.416,0.646-0.865,1.28-1.313,1.926c-0.131,0.175-0.241,0.339-0.328,0.481
				c-0.23,0.328-0.481,0.624-0.722,0.952c-0.153,0.208-0.306,0.427-0.471,0.635c-0.186,0.252-0.372,0.503-0.558,0.755
				c-0.295,0.405-0.591,0.799-0.908,1.193c-0.361,0.492-0.744,0.974-1.116,1.445c-0.296,0.383-0.591,0.755-0.897,1.127
				c-0.164,0.208-0.339,0.405-0.514,0.613c-0.886,1.083-1.784,2.156-2.714,3.195c-0.164,0.197-0.339,0.383-0.514,0.58
				c-0.066,0.076-0.131,0.153-0.208,0.23c-0.482,0.536-0.974,1.072-1.466,1.598c0,0.022-0.022,0.033-0.044,0.055
				c-0.088,0.099-0.175,0.197-0.262,0.285c-1.445,1.554-2.933,3.053-4.454,4.52c-0.295,0.285-0.602,0.569-0.897,0.843
				c-0.383,0.372-0.766,0.733-1.149,1.073c-0.383,0.35-0.766,0.7-1.149,1.04c-0.35,0.328-0.711,0.646-1.073,0.952
				c-2.254,1.981-4.574,3.863-6.96,5.647c-0.35,0.274-0.711,0.536-1.073,0.799c-0.602,0.449-1.204,0.886-1.806,1.313
				c-0.711,0.503-1.434,0.996-2.156,1.488c-0.875,0.591-1.762,1.182-2.659,1.751c-0.744,0.47-1.499,0.941-2.254,1.401
				c-0.142,0.087-0.284,0.175-0.427,0.263c-0.219,0.131-0.438,0.252-0.646,0.383c-0.394,0.24-0.788,0.471-1.182,0.689
				c-1.401,0.81-2.813,1.587-4.246,2.331c-0.635,0.328-1.281,0.657-1.904,0.985c-0.175,0.099-0.35,0.186-0.525,0.274
				c-0.47,0.241-0.93,0.46-1.39,0.7c-0.886,0.405-1.762,0.81-2.648,1.215c-0.897,0.405-1.795,0.799-2.703,1.182
				c-0.646,0.274-1.291,0.536-1.937,0.799c-0.547,0.219-1.094,0.438-1.642,0.646c-0.711,0.274-1.423,0.547-2.134,0.81
				c-0.985,0.372-1.97,0.712-2.966,1.062c-0.547,0.164-1.083,0.35-1.631,0.492c-0.81,0.274-1.631,0.526-2.462,0.755
				c-0.285,0.087-0.58,0.175-0.875,0.252c-0.339,0.109-0.679,0.208-1.029,0.296c-0.339,0.099-0.678,0.186-1.029,0.274
				c-0.284,0.077-0.591,0.164-0.875,0.241c-1.707,0.449-3.425,0.865-5.165,1.226c0,0,0-0.011-0.011-0.011
				c-0.481,0.099-0.941,0.208-1.423,0.295c-0.077,0.022-0.164,0.044-0.241,0.066c-0.416,0.088-0.832,0.164-1.248,0.23
				c-0.055,0.055-0.153,0.055-0.251,0.055c-0.044,0.011-0.088,0.022-0.142,0.022c-0.471,0.088-0.941,0.175-1.412,0.252
				c-1.74,0.306-3.502,0.569-5.275,0.799c-1.291,0.175-2.594,0.306-3.885,0.449c-0.164,0-0.372,0.033-0.613,0.055
				c-1.554,0.142-3.13,0.24-4.706,0.317c-0.449,0.022-0.897,0.044-1.357,0.044c-1.619,0.088-3.261,0.12-4.892,0.12H364.487
				c-1.97,0-3.94-0.044-5.877-0.153c-0.077,0.011-0.142,0.011-0.219-0.011c-0.514-0.022-1.029-0.055-1.543-0.077
				c-0.35-0.011-0.7-0.033-1.051-0.066c-0.821-0.055-1.642-0.109-2.462-0.186c-0.449-0.022-0.897-0.066-1.346-0.12
				c-0.405-0.033-0.81-0.077-1.215-0.12c-1.083-0.098-2.167-0.23-3.239-0.372c-0.799-0.099-1.598-0.208-2.386-0.328
				c-0.044-0.011-0.077-0.011-0.12-0.022c-0.536-0.077-1.061-0.164-1.587-0.252c-0.12-0.011-0.241-0.033-0.35-0.055
				c-1.039-0.164-2.068-0.35-3.097-0.547c-1.795-0.339-3.557-0.711-5.319-1.116c-0.635-0.153-1.28-0.306-1.904-0.47
				c-0.153-0.033-0.295-0.066-0.438-0.11c-0.35-0.088-0.7-0.175-1.051-0.274c-0.843-0.219-1.685-0.449-2.528-0.678
				c-1.029-0.296-2.057-0.602-3.075-0.919c-1.018-0.318-2.035-0.646-3.053-0.996c-0.886-0.296-1.762-0.602-2.637-0.93
				c-0.328-0.109-0.646-0.23-0.963-0.35c-0.536-0.197-1.061-0.394-1.587-0.602c-0.449-0.175-0.897-0.361-1.346-0.536
				c-0.886-0.35-1.762-0.7-2.626-1.073c-2.189-0.93-4.355-1.926-6.49-2.988c-1.587-0.755-3.152-1.565-4.695-2.408
				c-1.27-0.7-2.528-1.411-3.765-2.134c-1.477-0.865-2.933-1.751-4.366-2.681c-2.397-1.543-4.75-3.152-7.037-4.848
				c-0.602-0.449-1.215-0.897-1.806-1.368c-0.81-0.613-1.609-1.237-2.408-1.883c-0.657-0.525-1.291-1.051-1.937-1.587
				c-0.503-0.416-0.996-0.832-1.488-1.248c-0.339-0.295-0.678-0.591-1.018-0.875c-1.127-0.996-2.233-2.003-3.327-3.042
				c-0.492-0.47-0.985-0.941-1.477-1.423c-0.613-0.58-1.204-1.182-1.806-1.773c-0.23-0.219-0.46-0.46-0.678-0.69
				c-0.23-0.23-0.449-0.46-0.668-0.689c-0.799-0.832-1.598-1.674-2.375-2.517c-0.777-0.854-1.543-1.718-2.298-2.594
				c-0.186-0.208-0.372-0.416-0.547-0.624c-0.274-0.317-0.547-0.635-0.799-0.963c-0.208-0.241-0.416-0.492-0.613-0.733
				c-0.69-0.832-1.357-1.674-2.036-2.517c-0.175-0.23-0.361-0.459-0.536-0.689c-0.317-0.394-0.624-0.788-0.908-1.193
				c-0.328-0.438-0.657-0.875-0.974-1.302c-1.116-1.499-2.189-3.01-3.228-4.552c-0.503-0.744-0.996-1.5-1.477-2.254
				c-0.361-0.558-0.722-1.127-1.073-1.696c-0.285-0.46-0.558-0.919-0.843-1.379c-0.219-0.361-0.438-0.722-0.646-1.083
				c-0.153-0.23-0.285-0.46-0.416-0.7c-0.241-0.427-0.492-0.854-0.733-1.281c-0.35-0.58-0.678-1.171-0.996-1.762
				c-0.23-0.416-0.449-0.842-0.678-1.269c-0.722-1.324-1.401-2.659-2.058-4.016c-0.263-0.536-0.525-1.062-0.766-1.598
				c-0.263-0.525-0.503-1.062-0.744-1.598c-0.23-0.503-0.46-1.007-0.678-1.51c-0.449-0.985-0.876-1.981-1.28-2.988
				c-0.208-0.47-0.394-0.952-0.591-1.434c-0.876-2.2-1.696-4.432-2.44-6.686c-0.208-0.569-0.394-1.138-0.569-1.718
				c-0.044-0.153-0.099-0.317-0.142-0.47c-0.066-0.197-0.12-0.394-0.186-0.58c-0.142-0.449-0.284-0.887-0.405-1.335
				c-0.044-0.12-0.087-0.241-0.109-0.361c-0.142-0.46-0.274-0.93-0.405-1.39c-0.153-0.558-0.306-1.116-0.46-1.674
				c-0.153-0.569-0.295-1.127-0.438-1.696c-0.12-0.438-0.23-0.875-0.339-1.302c-0.044-0.142-0.077-0.285-0.098-0.427
				c-0.099-0.383-0.186-0.755-0.274-1.138c-0.098-0.427-0.186-0.854-0.285-1.269c-0.098-0.416-0.186-0.843-0.274-1.27
				c-0.088-0.427-0.175-0.843-0.263-1.269c-0.109-0.525-0.208-1.04-0.295-1.565c-0.175-0.919-0.339-1.861-0.482-2.791
				c-0.12-0.69-0.23-1.39-0.339-2.09c-0.219-1.456-0.416-2.911-0.558-4.378c-0.055-0.307-0.077-0.635-0.12-0.941
				c-0.022-0.186-0.033-0.372-0.055-0.558c-0.076-0.668-0.131-1.346-0.186-2.025c-0.077-0.81-0.142-1.62-0.186-2.44
				c-0.033-0.416-0.066-0.821-0.077-1.236c-0.044-0.525-0.066-1.04-0.077-1.565c-0.044-0.667-0.066-1.335-0.077-2.002
				c-0.011-0.23-0.022-0.471-0.022-0.712c-0.022-0.558-0.022-1.116-0.033-1.674c-0.011-0.558-0.011-1.116-0.011-1.685v-59.26
				c0-0.285,0-0.547-0.022-0.832c0-0.175,0-0.35-0.011-0.514c0.011-0.109,0-0.219,0-0.328c-0.011-0.339-0.022-0.689-0.044-1.029
				c-0.022-0.405-0.044-0.81-0.077-1.226c-0.011-0.032-0.011-0.076-0.011-0.109c-0.011-0.153-0.022-0.307-0.033-0.47
				c-0.044-0.602-0.109-1.182-0.186-1.762c-0.011-0.142-0.033-0.284-0.055-0.427c-0.044-0.438-0.109-0.875-0.175-1.302
				c-0.066-0.449-0.142-0.875-0.219-1.313c-0.109-0.624-0.23-1.236-0.372-1.849c-0.066-0.328-0.142-0.657-0.219-0.985
				c-0.077-0.339-0.164-0.679-0.252-1.007c-0.011-0.055-0.022-0.098-0.033-0.153c-0.175-0.689-0.361-1.357-0.569-2.025
				c-0.077-0.263-0.164-0.525-0.252-0.788c-0.077-0.252-0.164-0.514-0.252-0.777c-0.066-0.208-0.131-0.405-0.208-0.613
				c-0.044-0.131-0.088-0.263-0.142-0.383c-0.263-0.722-0.536-1.445-0.832-2.156c-0.055-0.153-0.12-0.306-0.186-0.459
				c-0.077-0.153-0.142-0.317-0.219-0.481c-0.164-0.394-0.339-0.799-0.525-1.182c-0.208-0.46-0.427-0.919-0.657-1.368
				c-0.142-0.296-0.295-0.591-0.449-0.875c-0.12-0.23-0.241-0.471-0.372-0.701c-0.131-0.23-0.263-0.459-0.394-0.689
				c-0.066-0.142-0.142-0.285-0.23-0.427c0,0,0,0-0.011-0.011c-0.142-0.274-0.306-0.547-0.471-0.81
				c-0.197-0.339-0.405-0.679-0.613-1.007c-0.175-0.274-0.35-0.547-0.536-0.821c-0.317-0.493-0.646-0.974-0.985-1.445
				c-0.066-0.109-0.131-0.219-0.219-0.318c-0.142-0.208-0.284-0.416-0.449-0.624c-0.066-0.098-0.131-0.186-0.208-0.274
				c-0.142-0.197-0.285-0.394-0.427-0.58c-0.383-0.503-0.788-0.996-1.182-1.488c-0.011-0.022-0.033-0.044-0.044-0.066
				c-0.23-0.285-0.47-0.558-0.711-0.832c-0.285-0.318-0.569-0.635-0.843-0.952c-0.197-0.23-0.427-0.471-0.657-0.7
				c-0.109-0.12-0.219-0.23-0.328-0.339c0-0.011,0-0.011-0.011-0.022c-0.011-0.011-0.011-0.022-0.022-0.022
				c-0.011-0.011-0.022-0.011-0.033-0.022c-0.219-0.23-0.46-0.471-0.7-0.711c-0.241-0.241-0.471-0.482-0.711-0.7
				c-0.142-0.142-0.274-0.285-0.416-0.416c-0.843-0.788-1.718-1.554-2.616-2.287c-0.328-0.274-0.646-0.547-0.985-0.799
				c-0.285-0.219-0.558-0.427-0.843-0.646c-0.055-0.033-0.12-0.076-0.175-0.109c-0.643-0.486-1.303-0.953-1.972-1.406
				c-0.035-0.023-0.068-0.049-0.102-0.072c-0.465-0.313-0.942-0.61-1.417-0.91c-0.58-0.365-1.155-0.738-1.75-1.08
				c-0.438-0.252-0.887-0.503-1.335-0.744c-0.317-0.175-0.646-0.339-0.963-0.503c-0.755-0.383-1.532-0.755-2.309-1.105
				c-0.274-0.121-0.547-0.23-0.821-0.35c-0.098-0.055-0.208-0.109-0.328-0.153c-0.164-0.077-0.328-0.142-0.493-0.197
				c-0.241-0.109-0.481-0.208-0.722-0.296c-0.055-0.033-0.109-0.054-0.175-0.065c-0.131-0.055-0.263-0.099-0.394-0.142
				c-0.405-0.164-0.821-0.317-1.248-0.459c-0.449-0.164-0.919-0.317-1.379-0.47c-0.35-0.12-0.711-0.23-1.061-0.328
				c-1.04-0.317-2.101-0.602-3.174-0.843c-0.427-0.088-0.843-0.186-1.28-0.274c-0.022-0.011-0.055-0.022-0.077-0.022
				c-0.033-0.011-0.055-0.011-0.088-0.011c-0.482-0.087-0.952-0.175-1.445-0.274c-0.471-0.087-0.952-0.153-1.423-0.23
				c-0.12-0.022-0.252-0.044-0.383-0.055c-0.89-0.124-1.795-0.202-2.699-0.279c-0.62-0.051-1.244-0.091-1.871-0.124
				c-0.376-0.019-0.755-0.028-1.133-0.038c-0.502-0.013-1.003-0.029-1.509-0.029c-25.893,0-46.915-21.023-46.915-46.915v-35.402
				c0-0.109,0-0.208,0.011-0.306c0-0.099,0-0.208,0.011-0.307c0.011-0.591,0.022-1.171,0.055-1.762c0-0.066,0-0.12,0.011-0.175
				c0.022-0.482,0.055-0.974,0.098-1.456c0.011-0.186,0.022-0.361,0.044-0.547c0.033-0.361,0.077-0.722,0.12-1.083
				c0.109-0.864,0.23-1.718,0.383-2.572c0.077-0.416,0.153-0.843,0.241-1.259c0.241-1.149,0.514-2.276,0.821-3.381
				c0.098-0.372,0.208-0.744,0.328-1.105c0.23-0.733,0.482-1.467,0.744-2.178c0.263-0.722,0.547-1.434,0.843-2.134
				c0.296-0.711,0.613-1.39,0.941-2.079c0.285-0.602,0.591-1.193,0.897-1.773c0.295-0.547,0.602-1.084,0.908-1.62
				c0.361-0.613,0.733-1.215,1.116-1.806c0.372-0.547,0.744-1.094,1.127-1.63c0.328-0.471,0.667-0.93,1.018-1.379
				c0.197-0.263,0.394-0.514,0.602-0.777c0.208-0.252,0.416-0.514,0.624-0.766c0.252-0.295,0.504-0.602,0.777-0.897
				c0.175-0.197,0.35-0.394,0.536-0.591c0.164-0.186,0.328-0.372,0.503-0.547c0.164-0.175,0.339-0.35,0.514-0.525
				c0.339-0.361,0.678-0.7,1.04-1.051c0.35-0.35,0.722-0.69,1.083-1.018c0.416-0.383,0.854-0.755,1.291-1.138
				c0.427-0.35,0.854-0.701,1.291-1.04c0.449-0.339,0.897-0.689,1.346-1.018c0.449-0.328,0.908-0.646,1.368-0.952
				c0.394-0.274,0.777-0.525,1.182-0.777c0.525-0.328,1.062-0.657,1.598-0.974c0.12-0.076,0.252-0.142,0.383-0.219
				c0.23-0.131,0.471-0.263,0.711-0.394c0.908-0.492,1.839-0.963,2.78-1.39c0.383-0.186,0.788-0.361,1.182-0.525
				c1.094-0.47,2.222-0.897,3.36-1.28c0.591-0.186,1.171-0.372,1.762-0.558c0.317-0.077,0.613-0.164,0.908-0.252
				c0.613-0.175,1.226-0.328,1.839-0.46c0.536-0.12,1.083-0.241,1.642-0.35c0.416-0.088,0.832-0.153,1.258-0.219
				c0.591-0.099,1.193-0.186,1.784-0.263c0.646-0.077,1.291-0.142,1.937-0.197c1.281-0.098,2.583-0.153,3.896-0.153h129.759
				c0.865,0,1.729-0.011,2.583-0.044h0.175c0.799-0.022,1.598-0.055,2.397-0.099c0.766-0.033,1.521-0.076,2.276-0.142
				c0.471-0.033,0.941-0.066,1.401-0.12c0.657-0.044,1.302-0.109,1.948-0.186c0.668-0.065,1.324-0.131,1.981-0.23
				c0.624-0.066,1.248-0.153,1.86-0.252c0.142-0.022,0.274-0.044,0.416-0.066c0.875-0.131,1.74-0.274,2.605-0.427
				c0.536-0.099,1.072-0.197,1.598-0.307c0.317-0.055,0.635-0.12,0.952-0.186c0.142-0.022,0.285-0.044,0.427-0.076
				c0.613-0.142,1.237-0.263,1.849-0.416c0.131-0.022,0.263-0.055,0.394-0.088c0.722-0.164,1.444-0.339,2.178-0.536
				c0.558-0.142,1.116-0.285,1.663-0.449c0.241-0.065,0.492-0.131,0.733-0.208c0.153-0.044,0.317-0.087,0.471-0.131
				c1.423-0.394,2.834-0.843,4.235-1.314c0.777-0.263,1.554-0.536,2.32-0.831c1.094-0.394,2.189-0.821,3.261-1.259
				c0.438-0.164,0.865-0.339,1.291-0.525c0.372-0.164,0.755-0.339,1.127-0.503c1.226-0.525,2.44-1.083,3.644-1.685
				c0.252-0.12,0.503-0.241,0.755-0.361c0.263-0.131,0.536-0.274,0.799-0.416c0.252-0.109,0.514-0.241,0.766-0.383
				c0.35-0.175,0.7-0.361,1.051-0.547c0.208-0.109,0.416-0.23,0.624-0.339c0.711-0.383,1.412-0.777,2.112-1.182
				c0.7-0.394,1.39-0.81,2.079-1.237c0.69-0.416,1.379-0.843,2.057-1.28c1.357-0.854,2.692-1.762,3.995-2.703
				c0.011,0,0.011,0,0.011,0c0.657-0.471,1.291-0.941,1.937-1.423c0.077-0.055,0.153-0.109,0.23-0.164
				c0.471-0.361,0.963-0.711,1.434-1.105c0.263-0.197,0.514-0.405,0.766-0.613c1.083-0.854,2.145-1.74,3.195-2.648
				c0.077-0.055,0.153-0.12,0.23-0.186c0.46-0.383,0.897-0.777,1.335-1.193c0.077-0.076,0.164-0.153,0.241-0.23
				c0.12-0.109,0.241-0.208,0.361-0.328c0.405-0.35,0.799-0.722,1.193-1.105c0.296-0.284,0.58-0.558,0.865-0.832
				c0.361-0.339,0.711-0.679,1.061-1.04v-0.011c1.707-1.696,3.349-3.458,4.925-5.286c15.244-17.576,24.459-40.502,24.459-65.596
				c0-0.481,0-0.963-0.011-1.434c-0.011-0.471-0.011-0.941-0.033-1.412c0-0.175,0-0.35-0.011-0.525c0.011-0.131,0-0.263-0.011-0.394
				c-0.011-0.175-0.022-0.35-0.033-0.526c0-0.416-0.033-0.832-0.066-1.258c0-0.263-0.011-0.525-0.033-0.788
				c0.011-0.033,0.011-0.055,0-0.088c-0.022-0.263-0.044-0.514-0.066-0.766c-0.011-0.372-0.044-0.744-0.077-1.116
				c-0.011-0.296-0.044-0.591-0.077-0.887c-0.022-0.252-0.044-0.492-0.077-0.744c-0.033-0.394-0.066-0.788-0.109-1.171
				c-0.011-0.099-0.011-0.186-0.033-0.274c-0.044-0.361-0.088-0.722-0.142-1.083c-0.022-0.186-0.044-0.383-0.066-0.591
				c-0.153-1.291-0.35-2.561-0.569-3.83c-0.077-0.449-0.164-0.908-0.241-1.368c-0.23-1.28-0.492-2.55-0.777-3.808
				c-0.011-0.055-0.022-0.109-0.033-0.164c-0.131-0.558-0.263-1.116-0.405-1.674c-0.361-1.521-0.766-3.031-1.215-4.52
				c-0.153-0.514-0.307-1.029-0.471-1.543c-0.164-0.536-0.339-1.072-0.525-1.609c-0.044-0.175-0.098-0.35-0.153-0.514
				c-0.098-0.285-0.197-0.58-0.306-0.865c-0.088-0.274-0.186-0.558-0.285-0.832c-0.087-0.241-0.186-0.471-0.274-0.7
				c-0.098-0.285-0.197-0.569-0.306-0.854c-0.12-0.35-0.263-0.711-0.405-1.062c-0.164-0.427-0.328-0.854-0.503-1.281
				c-0.12-0.296-0.241-0.591-0.361-0.875c-0.241-0.569-0.482-1.127-0.733-1.685c-0.109-0.252-0.219-0.503-0.328-0.755
				c-0.109-0.263-0.23-0.514-0.35-0.766c-0.492-1.094-1.018-2.189-1.565-3.261c-0.471-0.963-0.963-1.904-1.477-2.834
				c-0.405-0.755-0.832-1.499-1.258-2.233c-0.317-0.58-0.668-1.16-1.018-1.729c-0.088-0.164-0.186-0.317-0.285-0.459
				c-0.175-0.296-0.361-0.602-0.547-0.886c-0.514-0.832-1.04-1.663-1.598-2.473c-0.088-0.153-0.186-0.295-0.295-0.449
				c-0.394-0.58-0.799-1.149-1.204-1.729c-0.423-0.599-0.855-1.19-1.287-1.781c-0.25-0.336-0.494-0.676-0.749-1.01
				c-0.142-0.197-0.295-0.394-0.46-0.591l-0.854-1.083c-0.142-0.208-0.295-0.405-0.46-0.591c-0.514-0.656-1.051-1.302-1.598-1.937
				c-0.372-0.438-0.766-0.875-1.149-1.324c-0.033-0.044-0.066-0.076-0.098-0.12c-0.098-0.132-0.219-0.263-0.35-0.405
				c-0.055-0.066-0.109-0.131-0.175-0.186c-0.263-0.295-0.525-0.591-0.799-0.886c-0.317-0.35-0.646-0.711-0.985-1.062
				c-0.241-0.252-0.481-0.503-0.722-0.755c-1.204-1.259-2.462-2.495-3.743-3.688c-0.766-0.733-1.554-1.445-2.342-2.123
				c-0.456-0.403-0.931-0.786-1.395-1.181c-0.803-0.687-1.608-1.365-2.432-2.015c-0.897-0.714-1.797-1.422-2.717-2.101
				c-0.843-0.635-1.696-1.248-2.572-1.839c-0.591-0.405-1.171-0.788-1.751-1.182c-0.197-0.142-0.394-0.274-0.591-0.394
				c-0.098-0.066-0.197-0.131-0.295-0.186c-0.004-0.002-0.008-0.005-0.012-0.007c-0.885-0.583-1.777-1.149-2.68-1.689
				c-0.602-0.372-1.204-0.722-1.817-1.072c-1.401-0.799-2.823-1.576-4.257-2.309c-0.547-0.285-1.094-0.558-1.642-0.821
				c-0.274-0.131-0.536-0.263-0.821-0.394c-0.821-0.405-1.652-0.788-2.484-1.149c-0.668-0.306-1.346-0.602-2.025-0.886
				c-1.16-0.481-2.32-0.941-3.491-1.379c-0.492-0.186-0.974-0.372-1.466-0.536c-0.339-0.131-0.678-0.252-1.018-0.361
				c-0.296-0.098-0.58-0.197-0.875-0.284c-0.897-0.307-1.795-0.591-2.692-0.854c-0.744-0.23-1.488-0.449-2.243-0.656
				c-0.033-0.011-0.066-0.022-0.099-0.033c-0.131-0.055-0.263-0.088-0.394-0.11c-0.044-0.022-0.087-0.033-0.131-0.033
				c-0.865-0.241-1.729-0.471-2.605-0.668c-0.438-0.109-0.886-0.208-1.335-0.317c-0.449-0.109-0.897-0.208-1.346-0.296
				c-0.836-0.179-1.682-0.328-2.525-0.486c-0.365-0.064-0.73-0.13-1.097-0.193c-0.562-0.102-1.115-0.198-1.668-0.286
				c-0.496-0.078-0.994-0.152-1.492-0.223c-0.801-0.115-1.605-0.22-2.413-0.315c-0.805-0.094-1.612-0.183-2.422-0.258
				c-0.009-0.001-0.018-0.002-0.026-0.002c-0.428-0.047-0.865-0.081-1.302-0.112c-1.185-0.093-2.372-0.177-3.568-0.228
				c-0.405-0.033-0.821-0.044-1.237-0.055c-0.033,0-0.066,0-0.088,0.011c-0.525-0.011-1.05-0.033-1.576-0.044
				s-1.04-0.011-1.565-0.011H137.823c-7.803,0-15.343-1.083-22.489-3.119c-0.646-0.186-1.291-0.383-1.937-0.58
				c-1.291-0.394-2.561-0.821-3.819-1.292c-3.775-1.379-7.42-3.031-10.922-4.925c-2.331-1.258-4.585-2.637-6.774-4.115
				c-0.547-0.372-1.094-0.755-1.631-1.127c-3.754-2.67-7.288-5.658-10.539-8.908v-0.011c-0.93-0.93-1.839-1.882-2.725-2.856
				c-0.886-0.974-1.74-1.959-2.572-2.966c-2.101-2.539-4.049-5.209-5.833-7.989c-0.711-1.105-1.39-2.233-2.046-3.371
				c-6.927-12.049-10.889-26.024-10.889-40.929c0-2.834,0.142-5.647,0.427-8.405c0.131-1.302,0.295-2.583,0.492-3.863
				c0.022-0.197,0.055-0.394,0.087-0.591c0.186-1.248,0.416-2.484,0.668-3.71c0.241-1.182,0.503-2.342,0.799-3.491
				c0.077-0.339,0.164-0.678,0.263-1.018c0.47-1.795,0.996-3.557,1.598-5.297c4.093-12.093,10.933-22.916,19.775-31.747v-0.011
				c14.883-14.839,35.392-24.032,58.067-24.032h123.061c27.25,0,51.939-11.042,69.788-28.88
				c17.838-17.871,28.902-42.538,28.902-69.798c0-79.396,64.37-143.778,143.766-143.778h460.508
				c19.141,0,36.782-6.446,50.877-17.258c2.922-2.232,5.669-4.629,8.251-7.223c15.124-15.113,24.47-36.038,24.47-59.118
				c0-22.664-9.017-43.238-23.682-58.286c-15.179-15.617-36.409-25.313-59.916-25.313H795.973
				c-29.121,0-55.528-11.808-74.647-30.916c-19.086-19.129-30.916-45.493-30.916-74.646c0-58.319,47.287-105.573,105.562-105.573
				h1256.132c0.886,0,1.718,0,2.604,0.066c14.347,0.47,27.698,4.979,38.894,12.476c20.093,13.417,33.367,36.311,33.367,62.313
				v95.428c0,11.283,4.563,21.482,11.95,28.88c7.42,7.398,17.63,11.972,28.924,11.972c16.678,0,31.791,6.785,42.724,17.685
				c10.933,10.954,17.718,26.078,17.718,42.757c0,57.728,45.843,104.796,103.122,106.689c1.193,0.033,2.407,0.066,3.633,0.066
				h238.089C2640.083,699.67,2694.353,753.95,2694.353,820.903z"/>
			<path style="fill:#DCEAFB;" d="M2621.849,914.285h28.613c-21.019,17.391-47.97,27.833-77.328,27.833h-364.266
				c-22.713,0-43.258,9.187-58.106,24.07c-14.883,14.849-24.07,35.393-24.07,58.106c0,45.393,36.783,82.176,82.176,82.176h250.053
				c27.663,0,52.75,11.221,70.887,29.392c18.171,18.137,29.392,43.224,29.392,70.921c0,55.36-44.919,100.279-100.279,100.279
				h-204.999c-17.832,0-34.003,7.221-45.665,18.917c-11.729,11.696-18.95,27.833-18.95,45.665c0,35.698,28.951,64.615,64.615,64.615
				h94.007c33.494,0,63.802,13.56,85.735,35.494c21.934,21.934,35.494,52.241,35.494,85.735c0,66.954-54.275,121.23-121.23,121.23
				H364.486c-72.073,0-130.485-58.445-130.485-130.485v-59.259c0-14.544-5.899-27.731-15.425-37.291
				c-9.56-9.526-22.748-15.425-37.291-15.425c-25.9,0-46.919-21.019-46.919-46.919v-35.393c0-25.9,21.019-46.885,46.919-46.885
				h129.739c27.663,0,52.75-11.221,70.887-29.392c18.171-18.137,29.392-43.19,29.392-70.887
				c0-55.394-44.919-100.313-100.279-100.313h-173.2c-22.68,0-43.224-9.187-58.106-24.07c-14.883-14.849-24.07-35.393-24.07-58.106
				c0-22.714,9.221-43.258,24.104-58.14v20.239h44.681v-26.646l52.682,0.237v-43.224h10.611v-8.543h1.39v8.543h40.715v0.034h8.136
				v-8.577h1.39v8.577h9.797v85.905h62.751v31.63h34.85v-18.374h32.341v-72.887h16.137v-34.003h2.441v34.003h38.647v-63.734h3.797
				v63.734h25.561v-0.881h-0.034v-8.102h0.034v-7.662h-0.034v-12.747h0.034v-8.102h-0.034v-12.747h0.034v-8.136h-0.034v-12.747
				h0.034v-8.78h-0.034v-12.747h0.034v-11.188h-0.034v-12.747h0.034v-8.442h7.628v-9.526h1.22v9.526h56.445v-9.526h1.221v9.526
				H542.5v66.649l7.255,0.034v-0.034h-0.068v-12.747h0.068v-8.78h-0.068v-12.747h0.068v-8.747h-0.068v-12.747h0.068v-0.034h68.446
				v0.034h11.764c0.61,0.339,1.221,0.678,1.831,1.017v84.99h12.611v-12.272h144.452v95.499h44.139V821.532h9.594v-12.34h1.729v12.34
				h34.816v-12.34h1.729v12.34h49.36v-12.34h1.729v12.34h31.053v-12.34h1.695v12.34h12.781v164.86h48.75v-26.646l57.496,0.237
				v-43.224h11.594v-8.543h1.526v8.543h44.41v0.034h8.882v-8.577h1.526v8.577h10.713v85.905h68.446v31.63h38.071v-18.374h35.291
				v-72.887h17.628v-34.003h2.644v34.003h42.207v-63.734h4.136v63.734h48.173V830.549h132.349v95.499h40.444V749.424h8.78v-12.34
				h1.559v12.34h31.935v-12.34h1.594v12.34h45.19v-12.34h1.593v12.34h28.443v-12.34h1.559v12.34h11.696v164.86h44.681v-26.646
				l52.682,0.237v-43.224h10.611v-8.543h1.39v8.543h40.715v0.034h8.136v-8.577h1.39v8.577h9.831v85.905h62.717v31.63h34.884v-18.374
				h32.342v-72.887h16.137v-34.003h2.407v34.003h38.647v-63.734h3.797v63.734h25.595v-0.882h-0.034v-8.102h0.034v-7.662h-0.034
				v-12.747h0.034v-8.102h-0.034v-12.747h0.034v-8.136h-0.034v-12.747h0.034v-8.78h-0.034v-12.747h0.034v-11.188h-0.034v-12.747
				h0.034v-8.441h7.594v-9.526h1.22v9.526h56.479v-9.526h1.186v9.526h10.306v66.649l7.255,0.034v-0.034h-0.068v-12.747h0.068v-8.78
				h-0.068v-12.747h0.068v-8.747h-0.068v-12.747h0.068v-0.034h68.446v0.034h11.763c0.611,0.339,1.221,0.678,1.831,1.017v84.956
				h12.611v-12.238h144.486v95.499h44.105V749.424h9.594v-12.34h1.729v12.34h34.85v-12.34h1.695v12.34h49.36v-12.34h1.729v12.34
				h31.053v-12.34h1.695v12.34h12.781V914.285z"/>
			<path style="fill:#DCEAFB;" d="M2674.362,887.639c-1.22,1.831-2.475,3.627-3.763,5.39v-5.39H2674.362z"/>
		</g>
		<g>
			<path style="fill:#1D3B77;" d="M2592.188,1682.694c0,2.192-1.772,3.963-3.963,3.963H161.775c-2.179,0-3.963-1.771-3.963-3.963
				c0-2.179,1.784-3.963,3.963-3.963h2426.449C2590.416,1678.731,2592.188,1680.515,2592.188,1682.694z"/>
		</g>
		<g>
			<g>
				<g>
					
						<linearGradient id="SVGID_1_" gradientUnits="userSpaceOnUse" x1="11500.4463" y1="1522.7488" x2="11513.2656" y2="1162.3854" gradientTransform="matrix(1 0 0 1 -10865.876 0)">
						<stop  offset="0" style="stop-color:#19936C"/>
						<stop  offset="1" style="stop-color:#6FD45C"/>
					</linearGradient>
					<path style="fill:url(#SVGID_1_);" d="M839.776,1514.232c-43.167,51.027-123.505,46.177-182.692,32.398
						c-55.672-12.961-107.3-48.521-136.822-97.666c-10.389-17.294-15.564-39.689,1.882-53.96c9.58-7.837,22.811-11.415,34.944-12.65
						c-13.581,1.382-34.514-9.235-47.077-14.007c-22.241-8.449-77.445-42.985-35.738-65.324c15.645-8.377,32.311-4.712,38.735-2.915
						c-23.742-6.642-52.614-12.336-69.963-31.399c-22.06-24.239-4.017-66.577,31.226-53.359
						c-22.305-17.427-49.556-42.39-56.871-70.855c-5.526-21.505,5.061-43.437,27.478-48.716c14.06-3.311,29.046,0.505,41.688,7.492
						c23.81,13.159,43.945,35.109,57.901,58.196c-8.134-13.457-3.029-36.684,5.97-48.187c4.934-6.307,12.346-10.974,20.347-11.304
						c38.659-1.594,60.034,62.581,64.557,91.822c-5.081-32.851,15.09-71.858,52.283-48.615
						c27.597,17.246,49.347,53.294,44.125,86.478c1.97-12.52,6.829-28.616,15.681-38.047c16.541-17.621,31.005,12.365,35.969,25.122
						c10.139,26.053,11.626,54.978,4.272,81.957c2.997-10.996,22.445-27.471,33.416-29.533
						c36.627-6.882,44.479,82.883,47.224,105.125c5.421,43.914,3.57,92.99-22.759,130.458
						C843.712,1509.363,841.784,1511.858,839.776,1514.232z"/>
					<path style="opacity:0.5;fill:#FFFFFF;" d="M923.034,1579.407l-161.246-155.441l9.542-141.962
						c0.186-2.754-1.897-5.139-4.653-5.322c-2.703-0.237-5.139,1.897-5.322,4.653l-8.977,133.558l-87.414-84.266l15.886-104.126
						c0.415-2.729-1.46-5.281-4.19-5.698c-2.739-0.413-5.281,1.46-5.698,4.189l-14.817,97.133l-72.843-70.221l3.668-84.924
						c0.12-2.759-2.022-5.09-4.78-5.21c-2.671-0.049-5.09,2.021-5.21,4.78l-3.289,76.089l-85.82-82.729
						c-1.982-1.919-5.154-1.858-7.068,0.129c-1.917,1.987-1.86,5.151,0.129,7.068l85.636,82.552l-82.479,5.174
						c-2.756,0.173-4.851,2.546-4.678,5.303c0.166,2.649,2.366,4.688,4.985,4.688c0.105,0,0.212-0.003,0.317-0.01l91.615-5.746
						l72.141,69.545l-105.048,11.436c-2.744,0.298-4.727,2.766-4.429,5.513c0.278,2.561,2.446,4.458,4.963,4.458
						c0.183,0,0.364-0.01,0.549-0.029l113.342-12.336l87.212,84.072l-128.474,8.743c-2.754,0.188-4.836,2.573-4.648,5.327
						c0.178,2.639,2.375,4.661,4.983,4.661c0.115,0,0.229-0.005,0.344-0.012l137.507-9.356l161.323,155.515
						c0.969,0.938,2.219,1.401,3.469,1.401c1.309,0,2.62-0.513,3.599-1.531C925.08,1584.487,925.024,1581.323,923.034,1579.407z"/>
				</g>
				<g>
					
						<linearGradient id="SVGID_00000134251441753924808160000013647037009876379830_" gradientUnits="userSpaceOnUse" x1="-4771.5947" y1="1658.4302" x2="-4759.8027" y2="1326.9325" gradientTransform="matrix(-1 0 0 1 -4216.2666 0)">
						<stop  offset="0" style="stop-color:#19936C"/>
						<stop  offset="1" style="stop-color:#6FD45C"/>
					</linearGradient>
					<path style="fill:url(#SVGID_00000134251441753924808160000013647037009876379830_);" d="M378.978,1398.131
						c-35.25-13.225-53.3,29.125-31.225,53.35c17.025,18.7,45.125,24.55,68.575,31.025c-7.2-1.851-22.7-4.525-37.35,3.3
						c-41.7,22.325,13.5,56.875,35.725,65.325c12.575,4.775,33.5,15.375,47.1,14c-12.15,1.25-25.375,4.824-34.95,12.65
						c-17.45,14.275-12.275,36.675-1.9,53.975c10.525,17.526,23.875,33.325,39.225,46.975h292.825
						c19.85-35.8,20.925-79.85,16.025-119.675c-0.225-1.899-0.5-4.275-0.825-7.075c-3.475-29.774-12.9-104.349-46.4-98.049
						c-10.975,2.075-30.425,18.55-33.425,29.55c4.3-15.8,5.575-32.25,3.85-48.4c-0.325-3.325-0.825-6.625-1.425-9.926
						c-1.475-8.049-3.725-15.974-6.7-23.65c-4.975-12.749-19.425-42.725-35.975-25.125c-8.85,9.449-13.7,25.549-15.675,38.049
						c4-25.449-7.85-52.574-26.025-71.625c-3.125-3.25-6.425-6.274-9.85-8.975c-2.675-2.15-5.425-4.125-8.25-5.875
						c-22.925-14.299-39.375-5-47.425,11.951c-1.425,2.949-2.575,6.124-3.45,9.449c-2.3,8.575-2.8,18.151-1.4,27.225
						c-3.15-20.425-14.525-57.85-34.25-78.051c-0.175-0.175-0.35-0.35-0.525-0.525h-0.025l-0.025-0.024
						c-8.425-8.425-18.3-13.7-29.75-13.225c-2.4,0.1-4.75,0.575-7,1.375h-0.025c-5.225,1.901-9.85,5.525-13.3,9.926
						c-9,11.499-14.125,34.724-5.975,48.199c-13.95-23.099-34.1-45.05-57.9-58.199c-12.65-7.001-27.625-10.801-41.7-7.5
						c-22.425,5.275-33,27.224-27.475,48.724C329.428,1355.73,356.678,1380.706,378.978,1398.131z"/>
					<path style="opacity:0.5;fill:#FFFFFF;" d="M384.103,1442.905c0.175,2.65,2.375,4.7,5,4.7h0.325l91.6-5.75l72.15,69.525
						l-105.05,11.45c-2.75,0.3-4.725,2.775-4.425,5.499c0.275,2.576,2.45,4.475,4.95,4.475c0.2,0,0.375-0.024,0.55-0.024
						l113.35-12.35l87.2,84.075l-128.475,8.75c-2.75,0.175-4.825,2.574-4.625,5.325c0.175,2.625,2.375,4.65,4.975,4.65h0.35
						l137.5-9.349l67.275,64.85h14.4l-74.65-71.975l3.85-57.275l5.675-84.7c0.2-2.75-1.9-5.125-4.65-5.325
						c-2.7-0.225-5.125,1.899-5.325,4.65l-5.6,83.301l-3.375,50.275l-87.4-84.275l1.225-7.95l14.65-96.174
						c0.425-2.726-1.45-5.276-4.2-5.701c-2.725-0.4-5.275,1.45-5.7,4.2l-13.75,90.299l-1.05,6.826l-72.85-70.226l3.275-75.675
						l0.4-9.249c0.125-2.75-2.025-5.076-4.775-5.2c-2.675-0.05-5.1,2.025-5.225,4.774l-0.15,3.251l-3.125,72.85l-85.825-82.75
						c-1.975-1.901-5.15-1.851-7.075,0.15c-1.925,1.975-1.85,5.15,0.125,7.05l85.65,82.55l-82.475,5.175
						C386.028,1437.781,383.953,1440.155,384.103,1442.905z"/>
				</g>
			</g>
			<g>
				<g>
					
						<linearGradient id="SVGID_00000109027010816414317720000014019679360369762956_" gradientUnits="userSpaceOnUse" x1="1025.1647" y1="1522.7488" x2="1037.9838" y2="1162.3854" gradientTransform="matrix(-1 0 0 1 3140.5942 0)">
						<stop  offset="0" style="stop-color:#19936C"/>
						<stop  offset="1" style="stop-color:#6FD45C"/>
					</linearGradient>
					<path style="fill:url(#SVGID_00000109027010816414317720000014019679360369762956_);" d="M1910.224,1514.232
						c43.167,51.027,123.505,46.177,182.692,32.398c55.672-12.961,107.3-48.521,136.822-97.666
						c10.389-17.294,15.563-39.689-1.882-53.96c-9.581-7.837-22.811-11.415-34.944-12.65c13.581,1.382,34.514-9.235,47.076-14.007
						c22.241-8.449,77.445-42.985,35.738-65.324c-15.645-8.377-32.311-4.712-38.735-2.915c23.742-6.642,52.614-12.336,69.963-31.399
						c22.06-24.239,4.017-66.577-31.226-53.359c22.305-17.427,49.556-42.39,56.871-70.855c5.526-21.505-5.061-43.437-27.478-48.716
						c-14.061-3.311-29.046,0.505-41.688,7.492c-23.81,13.159-43.945,35.109-57.901,58.196c8.135-13.457,3.029-36.684-5.969-48.187
						c-4.934-6.307-12.346-10.974-20.348-11.304c-38.659-1.594-60.034,62.581-64.557,91.822
						c5.081-32.851-15.09-71.858-52.283-48.615c-27.597,17.246-49.347,53.294-44.125,86.478c-1.97-12.52-6.829-28.616-15.681-38.047
						c-16.541-17.621-31.005,12.365-35.969,25.122c-10.139,26.053-11.626,54.978-4.272,81.957
						c-2.997-10.996-22.445-27.471-33.416-29.533c-36.627-6.882-44.479,82.883-47.224,105.125
						c-5.421,43.914-3.57,92.99,22.759,130.458C1906.288,1509.363,1908.216,1511.858,1910.224,1514.232z"/>
					<path style="opacity:0.5;fill:#FFFFFF;" d="M1826.966,1579.407l161.246-155.441l-9.542-141.962
						c-0.186-2.754,1.897-5.139,4.653-5.322c2.703-0.237,5.139,1.897,5.322,4.653l8.976,133.558l87.415-84.266l-15.886-104.126
						c-0.415-2.729,1.46-5.281,4.189-5.698c2.739-0.413,5.281,1.46,5.698,4.189l14.817,97.133l72.843-70.221l-3.668-84.924
						c-0.12-2.759,2.021-5.09,4.78-5.21c2.671-0.049,5.09,2.021,5.21,4.78l3.289,76.089l85.82-82.729
						c1.982-1.919,5.154-1.858,7.068,0.129c1.917,1.987,1.86,5.151-0.129,7.068l-85.636,82.552l82.479,5.174
						c2.756,0.173,4.851,2.546,4.678,5.303c-0.166,2.649-2.366,4.688-4.985,4.688c-0.105,0-0.212-0.003-0.317-0.01l-91.615-5.746
						l-72.141,69.545l105.048,11.436c2.744,0.298,4.727,2.766,4.429,5.513c-0.278,2.561-2.446,4.458-4.963,4.458
						c-0.183,0-0.364-0.01-0.549-0.029l-113.342-12.336l-87.213,84.072l128.474,8.743c2.754,0.188,4.836,2.573,4.648,5.327
						c-0.178,2.639-2.375,4.661-4.983,4.661c-0.115,0-0.229-0.005-0.344-0.012l-137.507-9.356l-161.323,155.515
						c-0.969,0.938-2.219,1.401-3.469,1.401c-1.309,0-2.62-0.513-3.599-1.531C1824.92,1584.487,1824.976,1581.323,1826.966,1579.407
						z"/>
				</g>
				<g>
					
						<linearGradient id="SVGID_00000096054250483670594250000015755901240722085034_" gradientUnits="userSpaceOnUse" x1="5703.687" y1="1658.4302" x2="5715.4795" y2="1326.9325" gradientTransform="matrix(1 0 0 1 -3509.0154 0)">
						<stop  offset="0" style="stop-color:#19936C"/>
						<stop  offset="1" style="stop-color:#6FD45C"/>
					</linearGradient>
					<path style="fill:url(#SVGID_00000096054250483670594250000015755901240722085034_);" d="M2371.022,1398.131
						c35.25-13.225,53.3,29.125,31.225,53.35c-17.025,18.7-45.125,24.55-68.575,31.025c7.2-1.851,22.7-4.525,37.35,3.3
						c41.7,22.325-13.5,56.875-35.725,65.325c-12.575,4.775-33.5,15.375-47.1,14c12.15,1.25,25.375,4.824,34.95,12.65
						c17.45,14.275,12.275,36.675,1.9,53.975c-10.525,17.526-23.875,33.325-39.225,46.975h-292.825
						c-19.85-35.8-20.925-79.85-16.025-119.675c0.225-1.899,0.5-4.275,0.825-7.075c3.475-29.774,12.9-104.349,46.4-98.049
						c10.975,2.075,30.425,18.55,33.425,29.55c-4.3-15.8-5.575-32.25-3.85-48.4c0.325-3.325,0.825-6.625,1.425-9.926
						c1.475-8.049,3.725-15.974,6.7-23.65c4.975-12.749,19.425-42.725,35.975-25.125c8.85,9.449,13.7,25.549,15.675,38.049
						c-4-25.449,7.85-52.574,26.025-71.625c3.125-3.25,6.425-6.274,9.85-8.975c2.675-2.15,5.425-4.125,8.25-5.875
						c22.925-14.299,39.375-5,47.425,11.951c1.425,2.949,2.575,6.124,3.45,9.449c2.3,8.575,2.8,18.151,1.4,27.225
						c3.15-20.425,14.525-57.85,34.25-78.051c0.175-0.175,0.35-0.35,0.525-0.525h0.025l0.025-0.024
						c8.425-8.425,18.3-13.7,29.75-13.225c2.4,0.1,4.75,0.575,7,1.375h0.025c5.225,1.901,9.85,5.525,13.3,9.926
						c9,11.499,14.125,34.724,5.975,48.199c13.95-23.099,34.1-45.05,57.9-58.199c12.65-7.001,27.625-10.801,41.7-7.5
						c22.425,5.275,33,27.224,27.475,48.724C2420.572,1355.73,2393.322,1380.706,2371.022,1398.131z"/>
					<path style="opacity:0.5;fill:#FFFFFF;" d="M2365.897,1442.905c-0.175,2.65-2.375,4.7-5,4.7h-0.325l-91.6-5.75l-72.15,69.525
						l105.05,11.45c2.75,0.3,4.725,2.775,4.425,5.499c-0.275,2.576-2.45,4.475-4.95,4.475c-0.2,0-0.375-0.024-0.55-0.024
						l-113.35-12.35l-87.2,84.075l128.475,8.75c2.75,0.175,4.825,2.574,4.625,5.325c-0.175,2.625-2.375,4.65-4.975,4.65h-0.35
						l-137.5-9.349l-67.275,64.85h-14.4l74.65-71.975l-3.85-57.275l-5.675-84.7c-0.2-2.75,1.9-5.125,4.65-5.325
						c2.7-0.225,5.125,1.899,5.325,4.65l5.6,83.301l3.375,50.275l87.4-84.275l-1.225-7.95l-14.65-96.174
						c-0.425-2.726,1.45-5.276,4.2-5.701c2.725-0.4,5.275,1.45,5.7,4.2l13.75,90.299l1.05,6.826l72.85-70.226l-3.275-75.675
						l-0.4-9.249c-0.125-2.75,2.025-5.076,4.775-5.2c2.675-0.05,5.1,2.025,5.225,4.774l0.15,3.251l3.125,72.85l85.825-82.75
						c1.975-1.901,5.15-1.851,7.075,0.15c1.925,1.975,1.85,5.15-0.125,7.05l-85.65,82.55l82.475,5.175
						C2363.972,1437.781,2366.047,1440.155,2365.897,1442.905z"/>
				</g>
			</g>
			<g>
				<path style="fill:none;stroke:#7D4711;stroke-miterlimit:10;" d="M1040.36,931.846c-3.921,0.034-7.825,0.223-11.661,0.565
					c-3.715-0.325-7.483-0.513-11.267-0.548c0.702-0.034,1.387-0.034,2.089-0.034h19.126
					C1039.213,931.829,1039.795,931.829,1040.36,931.846z"/>
				<path style="fill:#6879C9;" d="M1254.123,1085.661v246.844h-23.321v-246.844c0-118.08-94.964-213.968-212.684-215.458
					c0.461-0.017,0.941-0.017,1.404-0.017h19.126C1157.652,870.187,1254.123,966.657,1254.123,1085.661z"/>
				<path style="fill:none;stroke:#7D4711;stroke-miterlimit:10;" d="M1040.36,931.846c-3.921,0.034-7.825,0.223-11.661,0.565
					c-3.715-0.325-7.483-0.513-11.267-0.548c0.702-0.034,1.387-0.034,2.089-0.034h19.126
					C1039.213,931.829,1039.795,931.829,1040.36,931.846z"/>
				<path style="fill:none;stroke:#7D4711;stroke-miterlimit:10;" d="M1040.36,931.846c-3.921,0.034-7.825,0.223-11.661,0.565
					c-3.715-0.325-7.483-0.513-11.267-0.548c0.702-0.034,1.387-0.034,2.089-0.034h19.126
					C1039.213,931.829,1039.795,931.829,1040.36,931.846z"/>
				<path style="fill:#849AD9;" d="M1230.802,1085.661v246.844h-61.642v-246.844c0-80.324-61.866-146.452-140.46-153.25
					c3.836-0.342,7.74-0.531,11.661-0.565c-0.565-0.017-1.147-0.017-1.712-0.017h-19.126c-0.702,0-1.387,0-2.089,0.034
					c-83.868,1.096-151.743,69.673-151.743,153.798v246.844h-61.642v-246.844c0-118.08,94.964-213.968,212.684-215.458
					c0.462-0.017,0.925,0,1.387,0C1135.838,871.693,1230.802,967.581,1230.802,1085.661z"/>
				<path style="fill:#ABC4E3;" d="M1028.7,932.411c-78.594,6.798-140.459,72.927-140.459,153.25v246.844H865.69v-246.844
					c0-84.125,67.875-152.702,151.743-153.798C1021.217,931.898,1024.984,932.086,1028.7,932.411z"/>
				
					<linearGradient id="SVGID_00000178188819779585692290000016401676340372480184_" gradientUnits="userSpaceOnUse" x1="2152.698" y1="1274.061" x2="2152.698" y2="1663.0798" gradientTransform="matrix(1 0 0 1 -1156.3262 0)">
					<stop  offset="0" style="stop-color:#FAC84D"/>
					<stop  offset="1" style="stop-color:#FFA738"/>
				</linearGradient>
				<path style="fill:url(#SVGID_00000178188819779585692290000016401676340372480184_);" d="M1244.535,1652.293v7.688
					c0,10.359-8.408,18.75-18.767,18.75H766.959c-10.36,0-18.75-8.39-18.75-18.75v-356.687c0-10.342,8.39-18.75,18.75-18.75h15.496
					v348.999c0,10.359,8.408,18.75,18.767,18.75H1244.535z"/>
				<path style="fill:#FCD06C;" d="M1244.535,1303.293v348.999H801.222c-10.359,0-18.767-8.39-18.767-18.75v-348.999h443.312
					C1236.127,1284.544,1244.535,1292.951,1244.535,1303.293z"/>
				
					<linearGradient id="SVGID_00000066485138738635176300000005729354836402790297_" gradientUnits="userSpaceOnUse" x1="2426.3135" y1="1283.1857" x2="2426.3135" y2="1649.6057" gradientTransform="matrix(1 0 0 1 -1156.3262 0)">
					<stop  offset="0" style="stop-color:#F8A90E"/>
					<stop  offset="1" style="stop-color:#CF7711"/>
				</linearGradient>
				<path style="fill:url(#SVGID_00000066485138738635176300000005729354836402790297_);" d="M1314.208,1293.551v376.173
					c0,4.983-4.024,9.007-9.007,9.007h-79.433c10.36,0,18.767-8.39,18.767-18.75v-356.687c0-10.342-8.408-18.75-18.767-18.75h79.433
					C1310.184,1284.544,1314.208,1288.568,1314.208,1293.551z"/>
				<path style="fill:#7D4711;" d="M1012.002,1487.436l13.76,56.13H947.42l13.76-56.114c-8.418-7.177-13.76-17.861-13.76-29.818
					c0-21.632,17.53-39.163,39.162-39.163c21.648,0,39.179,17.531,39.179,39.163
					C1025.761,1469.575,1020.419,1480.258,1012.002,1487.436z"/>
			</g>
			<g>
				<path style="fill:#355BAF;" d="M898.33,679.493v166.676c0,13.622-11.043,24.665-24.666,24.665H706.989
					c-22.318,0-40.409-18.092-40.409-40.409l0,0c0,9.21,5.038,17.24,12.516,21.464l0.866,0.472c1.155,0.604,2.335,1.102,3.595,1.496
					c2.414,0.813,5.012,1.233,7.688,1.233h166.675c13.622,0,24.666-11.043,24.666-24.665V663.749c0-1.207-0.079-2.414-0.262-3.569
					c-0.21-1.417-0.525-2.781-0.971-4.12c-0.525-1.548-1.181-3.044-1.968-4.435c-3.831-6.796-10.811-11.572-18.945-12.411
					c-0.813-0.079-1.679-0.131-2.519-0.131h0C880.238,639.084,898.33,657.176,898.33,679.493z"/>
				
					<linearGradient id="SVGID_00000114764923031661619020000010203258892148047258_" gradientUnits="userSpaceOnUse" x1="666.5798" y1="747.0872" x2="882.5862" y2="747.0872">
					<stop  offset="0" style="stop-color:#349CFF"/>
					<stop  offset="1" style="stop-color:#2F85FE"/>
				</linearGradient>
				<path style="fill:url(#SVGID_00000114764923031661619020000010203258892148047258_);" d="M882.324,660.181
					c-0.21-1.417-0.525-2.781-0.971-4.12c-0.525-1.548-1.181-3.044-1.968-4.435c-3.831-6.796-10.811-11.572-18.945-12.411
					c-0.813-0.079-1.679-0.131-2.519-0.131H691.245c-13.619,0-24.666,11.047-24.666,24.665v166.676
					c0,9.21,5.038,17.24,12.516,21.464l0.866,0.472c1.155,0.604,2.335,1.102,3.595,1.496c2.414,0.813,5.012,1.233,7.688,1.233
					h166.675c13.619,0,24.666-11.047,24.666-24.665V663.749C882.586,662.542,882.507,661.335,882.324,660.181z"/>
				<path style="fill:#FFFFFF;" d="M837.915,734.759h-9.708c-1.401-6.062-3.792-11.761-7.004-16.857l6.883-6.883
					c1.739-1.739,1.739-4.564,0-6.303l-11.157-11.133c-1.715-1.739-4.54-1.739-6.279,0l-6.883,6.883
					c-5.095-3.212-10.795-5.603-16.856-7.003v-9.708c0-2.463-1.981-4.444-4.444-4.444h-15.769c-2.439,0-4.444,1.981-4.444,4.444
					v9.708c-6.062,1.401-11.737,3.792-16.856,7.003l-6.859-6.883c-1.739-1.739-4.564-1.739-6.303,0l-11.133,11.133
					c-1.739,1.739-1.739,4.564,0,6.303l6.859,6.883c-3.212,5.096-5.579,10.795-6.979,16.857h-9.733c-2.439,0-4.443,1.98-4.443,4.443
					v15.77c0,2.439,2.005,4.443,4.443,4.443h9.733c1.4,6.062,3.767,11.737,6.979,16.857l-6.859,6.858
					c-1.739,1.739-1.739,4.564,0,6.303l11.133,11.133c1.739,1.739,4.564,1.739,6.303,0l6.859-6.859
					c5.12,3.212,10.795,5.578,16.856,6.979v9.708c0,2.463,2.005,4.468,4.444,4.468h15.769c2.463,0,4.444-2.005,4.444-4.468v-9.708
					c6.061-1.401,11.761-3.767,16.856-6.979l6.883,6.859c1.739,1.739,4.564,1.739,6.279,0l11.157-11.133
					c1.739-1.739,1.739-4.564,0-6.303l-6.883-6.858c3.212-5.12,5.602-10.795,7.004-16.857h9.708c2.463,0,4.443-2.005,4.443-4.443
					v-15.77C842.359,736.739,840.379,734.759,837.915,734.759z M774.595,777.166c-16.615,0-30.09-13.476-30.09-30.091
					c0-16.615,13.475-30.09,30.09-30.09c16.615,0,30.091,13.475,30.091,30.09C804.686,763.69,791.21,777.166,774.595,777.166z"/>
			</g>
			<g>
				<path style="fill:#AA6531;" d="M2186.685,589.454v153.935c0,14.993-12.154,27.147-27.147,27.147h-153.935
					c-22.532,0-40.798-18.266-40.798-40.798v0c0,13.924,11.298,25.222,25.241,25.222h155.84c13.941,0,25.242-11.301,25.242-25.242
					V573.896c0-13.943-11.318-25.241-25.242-25.241l0,0C2168.418,548.655,2186.685,566.921,2186.685,589.454z"/>
				<g>
					<g>
						<g>
							
								<linearGradient id="SVGID_00000164483567770788661620000009193391510087506840_" gradientUnits="userSpaceOnUse" x1="1966.5317" y1="543.675" x2="2176.5613" y2="767.5833">
								<stop  offset="0" style="stop-color:#FCC35B"/>
								<stop  offset="1" style="stop-color:#FB9B50"/>
							</linearGradient>
							<path style="fill:url(#SVGID_00000164483567770788661620000009193391510087506840_);" d="M2171.128,573.896v155.841
								c0,13.924-11.318,25.222-25.242,25.222h-155.84c-13.943,0-25.241-11.298-25.241-25.222V573.896
								c0-13.943,11.298-25.241,25.241-25.241h155.84C2159.81,548.655,2171.128,559.953,2171.128,573.896z"/>
							<g>
								<g>
									<path style="fill:#FFFFFF;" d="M2123.492,641.002h-8.512c-1.229-5.315-3.325-10.312-6.141-14.78l6.035-6.035
										c1.524-1.525,1.524-4.002,0-5.527l-9.783-9.761c-1.503-1.525-3.981-1.525-5.505,0l-6.035,6.035
										c-4.468-2.816-9.465-4.912-14.78-6.141v-8.512c0-2.16-1.737-3.896-3.896-3.896h-13.827c-2.139,0-3.896,1.737-3.896,3.896
										v8.512c-5.315,1.228-10.291,3.325-14.78,6.141l-6.014-6.035c-1.525-1.525-4.002-1.525-5.527,0l-9.761,9.761
										c-1.525,1.525-1.525,4.002,0,5.527l6.014,6.035c-2.816,4.468-4.891,9.465-6.119,14.78h-8.534
										c-2.138,0-3.896,1.736-3.896,3.896v13.827c0,2.138,1.758,3.896,3.896,3.896h8.534c1.228,5.315,3.303,10.291,6.119,14.78
										l-6.014,6.013c-1.525,1.525-1.525,4.002,0,5.527l9.761,9.761c1.525,1.524,4.002,1.524,5.527,0l6.014-6.014
										c4.489,2.816,9.465,4.891,14.78,6.119v8.512c0,2.16,1.758,3.917,3.896,3.917h13.827c2.16,0,3.896-1.758,3.896-3.917v-8.512
										c5.315-1.228,10.312-3.303,14.78-6.119l6.035,6.014c1.525,1.524,4.002,1.524,5.505,0l9.783-9.761
										c1.524-1.525,1.524-4.002,0-5.527l-6.035-6.013c2.816-4.489,4.912-9.465,6.141-14.78h8.512c2.16,0,3.896-1.758,3.896-3.896
										v-13.827C2127.388,642.738,2125.652,641.002,2123.492,641.002z M2067.972,678.185c-14.568,0-26.383-11.815-26.383-26.384
										s11.815-26.383,26.383-26.383s26.384,11.815,26.384,26.383S2082.541,678.185,2067.972,678.185z"/>
								</g>
							</g>
						</g>
					</g>
				</g>
			</g>
			<g>
				<path style="opacity:0.1;fill:#19468E;" d="M1819.312,567.858v1068.075c0,16.456-6.2,31.447-16.393,42.786l-0.011,0.011
					h-648.716l-0.011-0.011c-10.192-11.339-16.393-26.33-16.393-42.786V567.858c0-35.365,28.666-64.031,64.01-64.031h553.483
					C1790.646,503.828,1819.312,532.493,1819.312,567.858z"/>
				<path style="fill:#C3D7F2;" d="M1771.683,546.626v1068.071c0,35.364-28.665,64.029-64.029,64.029h-527.093
					c-35.344,0-64.009-28.665-64.009-64.029V546.626c0-35.364,28.665-64.029,64.009-64.029h527.093
					C1743.018,482.597,1771.683,511.262,1771.683,546.626z"/>
				<path style="fill:#1A284D;" d="M1180.561,1666.546c-28.578,0-51.828-23.259-51.828-51.849V546.626
					c0-28.589,23.25-51.848,51.828-51.848h527.093c28.59,0,51.849,23.259,51.849,51.848v1068.072
					c0,28.589-23.259,51.849-51.849,51.849H1180.561z"/>
				
					<linearGradient id="SVGID_00000085963497637997287640000000458512907298562237_" gradientUnits="userSpaceOnUse" x1="1444.1067" y1="1595.1376" x2="1444.1067" y2="980.8477">
					<stop  offset="0" style="stop-color:#1E2B56"/>
					<stop  offset="1" style="stop-color:#354986"/>
				</linearGradient>
				
					<rect x="1150.27" y="577.43" style="fill:url(#SVGID_00000085963497637997287640000000458512907298562237_);" width="587.674" height="1004.011"/>
				<path style="fill:#224F88;" d="M1798.074,546.626v1068.071c0,35.364-28.665,64.029-64.029,64.029h-26.391
					c35.364,0,64.029-28.665,64.029-64.029V546.626c0-35.364-28.665-64.029-64.029-64.029h26.391
					C1769.409,482.597,1798.074,511.262,1798.074,546.626z"/>
				<g>
					<g>
						<g>
							
								<linearGradient id="SVGID_00000158738548586227032020000003757529425417208208_" gradientUnits="userSpaceOnUse" x1="1240.7692" y1="684.5982" x2="1544.2832" y2="1002.8663">
								<stop  offset="0" style="stop-color:#FA9090"/>
								<stop  offset="1" style="stop-color:#FF595A"/>
							</linearGradient>
							<path style="fill:url(#SVGID_00000158738548586227032020000003757529425417208208_);" d="M1325.948,1028.797h236.317
								c7.08,0,12.819-5.739,12.819-12.819V779.661c0-7.08-5.739-12.819-12.819-12.819h-236.317c-7.08,0-12.819,5.739-12.819,12.819
								v236.317C1313.129,1023.058,1318.869,1028.797,1325.948,1028.797z"/>
							<g>
								<path style="fill:#FFFFFF;" d="M1413.135,861.917c0,17.015,13.793,35.383,30.808,35.383
									c17.015,0,30.808-18.368,30.808-35.383c0-17.015-13.793-29.085-30.808-29.085
									C1426.928,832.832,1413.135,844.903,1413.135,861.917z"/>
								<path style="fill:#FFFFFF;" d="M1482.176,962.808h-75.207c-7.917,0-14.926-5.117-17.338-12.657l-4.047-12.648
									c-2.963-9.261,1.854-19.288,10.987-22.627c30.606-11.191,62.254-9.755,94.674,1.033
									c9.082,3.022,14.122,12.736,11.616,21.975l-3.116,11.487C1497.593,957.302,1490.394,962.808,1482.176,962.808z"/>
							</g>
						</g>
					</g>
					<g>
						<path style="fill:#FFFFFF;" d="M1659.997,1154.765h-431.781c-2.615,0-4.735-2.12-4.735-4.735v-60.798
							c0-2.615,2.12-4.735,4.735-4.735h431.781c2.615,0,4.735,2.12,4.735,4.735v60.798
							C1664.732,1152.645,1662.612,1154.765,1659.997,1154.765z"/>
						<path style="fill:#FFFFFF;" d="M1659.997,1257.299h-431.781c-2.615,0-4.735-2.12-4.735-4.735v-60.798
							c0-2.615,2.12-4.735,4.735-4.735h431.781c2.615,0,4.735,2.12,4.735,4.735v60.798
							C1664.732,1255.179,1662.612,1257.299,1659.997,1257.299z"/>
						<g>
							<path style="fill:#9EBBE3;" d="M1376.066,1222.138l6.541,3.682l-1.704,3.023l-6.65-3.903l0.055,7.475h-3.298l0.055-7.475
								l-6.65,3.903l-1.704-3.023l6.595-3.682l-6.595-3.628l1.704-3.078l6.65,3.902l-0.055-7.42h3.298l-0.055,7.42l6.65-3.902
								l1.704,3.078L1376.066,1222.138z"/>
							<path style="fill:#9EBBE3;" d="M1404.645,1222.138l6.541,3.682l-1.704,3.023l-6.65-3.903l0.055,7.475h-3.297l0.055-7.475
								l-6.65,3.903l-1.704-3.023l6.596-3.682l-6.596-3.628l1.704-3.078l6.65,3.902l-0.055-7.42h3.297l-0.055,7.42l6.65-3.902
								l1.704,3.078L1404.645,1222.138z"/>
							<path style="fill:#9EBBE3;" d="M1433.225,1222.138l6.54,3.682l-1.703,3.023l-6.651-3.903l0.055,7.475h-3.298l0.055-7.475
								l-6.65,3.903l-1.704-3.023l6.596-3.682l-6.596-3.628l1.704-3.078l6.65,3.902l-0.055-7.42h3.298l-0.055,7.42l6.651-3.902
								l1.703,3.078L1433.225,1222.138z"/>
							<path style="fill:#9EBBE3;" d="M1461.804,1222.138l6.541,3.682l-1.704,3.023l-6.65-3.903l0.055,7.475h-3.297l0.055-7.475
								l-6.65,3.903l-1.704-3.023l6.596-3.682l-6.596-3.628l1.704-3.078l6.65,3.902l-0.055-7.42h3.297l-0.055,7.42l6.65-3.902
								l1.704,3.078L1461.804,1222.138z"/>
							<path style="fill:#9EBBE3;" d="M1490.383,1222.138l6.541,3.682l-1.704,3.023l-6.65-3.903l0.055,7.475h-3.297l0.055-7.475
								l-6.65,3.903l-1.704-3.023l6.596-3.682l-6.596-3.628l1.704-3.078l6.65,3.902l-0.055-7.42h3.297l-0.055,7.42l6.65-3.902
								l1.704,3.078L1490.383,1222.138z"/>
							<path style="fill:#9EBBE3;" d="M1518.963,1222.138l6.541,3.682l-1.704,3.023l-6.65-3.903l0.055,7.475h-3.298l0.055-7.475
								l-6.65,3.903l-1.704-3.023l6.595-3.682l-6.595-3.628l1.704-3.078l6.65,3.902l-0.055-7.42h3.298l-0.055,7.42l6.65-3.902
								l1.704,3.078L1518.963,1222.138z"/>
						</g>
						<g>
							<path style="fill:#9EBBE3;" d="M1349.427,1120.834v-11.228h4.64v11.056c0,3.809,1.661,5.385,4.468,5.385
								c2.836,0,4.468-1.575,4.468-5.385v-11.056h4.583v11.228c0,5.9-3.38,9.165-9.079,9.165
								C1352.807,1129.999,1349.427,1126.734,1349.427,1120.834z"/>
							<path style="fill:#9EBBE3;" d="M1373.467,1127.679l1.575-3.495c1.69,1.232,4.211,2.091,6.616,2.091
								c2.75,0,3.866-0.917,3.866-2.148c0-3.752-11.657-1.174-11.657-8.621c0-3.408,2.75-6.244,8.449-6.244
								c2.521,0,5.098,0.601,6.96,1.776l-1.432,3.523c-1.862-1.06-3.781-1.575-5.557-1.575c-2.75,0-3.809,1.031-3.809,2.291
								c0,3.695,11.657,1.146,11.657,8.507c0,3.351-2.779,6.215-8.507,6.215C1378.451,1129.999,1375.243,1129.054,1373.467,1127.679
								z"/>
							<path style="fill:#9EBBE3;" d="M1411.712,1125.932v3.724h-15.524v-20.049h15.151v3.723h-10.54v4.354h9.308v3.609h-9.308v4.64
								H1411.712z"/>
							<path style="fill:#9EBBE3;" d="M1431.053,1129.655l-3.867-5.585h-0.229h-4.038v5.585h-4.64v-20.049h8.678
								c5.356,0,8.707,2.778,8.707,7.275c0,3.007-1.518,5.213-4.124,6.33l4.497,6.444H1431.053z M1426.7,1113.387h-3.781v6.989
								h3.781c2.836,0,4.268-1.318,4.268-3.494C1430.967,1114.676,1429.536,1113.387,1426.7,1113.387z"/>
							<path style="fill:#9EBBE3;" d="M1460.592,1109.606v20.049h-3.809l-9.996-12.173v12.173h-4.583v-20.049h3.838l9.967,12.173
								v-12.173H1460.592z"/>
							<path style="fill:#9EBBE3;" d="M1481.425,1125.359h-9.308l-1.776,4.296h-4.754l8.936-20.049h4.583l8.965,20.049h-4.869
								L1481.425,1125.359z M1479.964,1121.836l-3.179-7.676l-3.179,7.676H1479.964z"/>
							<path style="fill:#9EBBE3;" d="M1511.279,1129.655l-0.029-12.03l-5.9,9.91h-2.091l-5.871-9.652v11.772h-4.354v-20.049h3.838
								l7.504,12.459l7.389-12.459h3.81l0.057,20.049H1511.279z"/>
							<path style="fill:#9EBBE3;" d="M1538.787,1125.932v3.724h-15.524v-20.049h15.152v3.723h-10.54v4.354h9.308v3.609h-9.308v4.64
								H1538.787z"/>
						</g>
						<g>
							
								<linearGradient id="SVGID_00000046297030303746558060000009661970166894582682_" gradientUnits="userSpaceOnUse" x1="1444.1067" y1="1320.3334" x2="1444.1067" y2="1391.7101">
								<stop  offset="0" style="stop-color:#C184F6"/>
								<stop  offset="1" style="stop-color:#6A56F6"/>
							</linearGradient>
							<path style="fill:url(#SVGID_00000046297030303746558060000009661970166894582682_);" d="M1572.329,1392.028h-256.445
								c-3.805,0-6.889-3.084-6.889-6.889v-56.589c0-3.804,3.084-6.889,6.889-6.889h256.445c3.805,0,6.889,3.084,6.889,6.889v56.589
								C1579.218,1388.944,1576.134,1392.028,1572.329,1392.028z"/>
							<g>
								<g>
									<path style="fill:#FFFFFF;" d="M1373.612,1342.239h6.762v23.704h14.649v5.508h-21.411V1342.239z"/>
									<path style="fill:#FFFFFF;" d="M1398.584,1356.847c0-8.682,6.762-15.107,15.984-15.107c9.181,0,15.981,6.385,15.981,15.107
										c0,8.719-6.799,15.104-15.981,15.104C1405.346,1371.951,1398.584,1365.525,1398.584,1356.847z M1423.705,1356.847
										c0-5.552-3.921-9.348-9.137-9.348s-9.141,3.796-9.141,9.348c0,5.549,3.925,9.348,9.141,9.348
										S1423.705,1362.396,1423.705,1356.847z"/>
									<path style="fill:#FFFFFF;" d="M1457.485,1356.385h6.177v11.852c-3.214,2.423-7.635,3.714-11.811,3.714
										c-9.178,0-15.94-6.3-15.94-15.104c0-8.807,6.762-15.107,16.066-15.107c5.134,0,9.392,1.753,12.229,5.049l-4.343,4.006
										c-2.127-2.253-4.591-3.296-7.554-3.296c-5.675,0-9.555,3.796-9.555,9.348c0,5.464,3.88,9.348,9.474,9.348
										c1.835,0,3.547-0.336,5.257-1.254V1356.385z"/>
									<path style="fill:#FFFFFF;" d="M1472.028,1342.239h6.762v29.212h-6.762V1342.239z"/>
									<path style="fill:#FFFFFF;" d="M1514.601,1342.239v29.212h-5.552l-14.564-17.737v17.737h-6.677v-29.212h5.593
										l14.523,17.738v-17.738H1514.601z"/>
								</g>
							</g>
						</g>
					</g>
				</g>
			</g>
			<g>
				<path style="fill:#122A4F;" d="M1016.39,1678.73l108.607,0c5.971,0,9.48-6.883,5.812-11.595
					c-0.03-0.038-0.059-0.076-0.089-0.114c-5.498-7.012-12.588-10.284-19.255-13.356c-8.782-4.041-16.728-5.576-20.301-6.244
					c-11.208-2.092-16.784-1.024-24.809-5.376c-2.404-1.302-4.341-2.716-5.832-3.962c-0.089-0.067-0.167-0.145-0.256-0.212
					c0,0.111,0.011,0.212,0.011,0.323c-8.27,3.662-21.714,7.724-36.773,4.196c-2.415-0.568-4.664-1.28-6.734-2.081
					c-1.781,10.095-4.196,19.756-6.166,27.602c-0.206,0.823-0.419,1.67-0.641,2.54
					C1008.896,1674.646,1012.062,1678.73,1016.39,1678.73z"/>
				<path style="fill:#FFA6AA;" d="M1016.772,1640.31c2.07,0.801,4.318,1.513,6.734,2.081c15.059,3.528,28.504-0.534,36.773-4.196
					c0-0.111-0.011-0.212-0.011-0.323c-0.045-1.959-0.1-3.918-0.156-5.888c-0.056-1.914-0.122-3.806-0.189-5.698
					c-4.085,1.547-9.138,2.96-15.003,3.573c-10.896,1.135-19.912-0.957-25.721-2.916c-0.334,1.77-0.701,3.695-1.08,5.776
					c-0.679,3.729-1.113,6.244-1.313,7.379C1016.795,1640.165,1016.784,1640.243,1016.772,1640.31z"/>
				<path style="fill:#122A4F;" d="M1177.155,1678.73l108.607,0c5.971,0,9.48-6.883,5.812-11.595
					c-0.029-0.038-0.059-0.076-0.089-0.114c-5.498-7.012-12.588-10.284-19.255-13.356c-8.782-4.041-16.728-5.576-20.301-6.244
					c-11.208-2.092-16.784-1.024-24.808-5.376c-2.404-1.302-4.341-2.716-5.832-3.962c-0.089-0.067-0.167-0.145-0.256-0.212
					c0,0.111,0.011,0.212,0.011,0.323c-8.27,3.662-21.714,7.724-36.773,4.196c-2.415-0.568-4.664-1.28-6.734-2.081
					c-1.781,10.095-4.196,19.756-6.166,27.602c-0.206,0.823-0.419,1.67-0.641,2.54
					C1169.661,1674.646,1172.827,1678.73,1177.155,1678.73z"/>
				<path style="fill:#FFA6AA;" d="M1177.537,1640.31c2.07,0.801,4.318,1.513,6.734,2.081c15.059,3.528,28.504-0.534,36.773-4.196
					c0-0.111-0.011-0.212-0.011-0.323c-0.045-1.959-0.1-3.918-0.156-5.888c-0.056-1.914-0.122-3.806-0.189-5.698
					c-4.085,1.547-9.138,2.96-15.003,3.573c-10.896,1.135-19.912-0.957-25.722-2.916c-0.334,1.77-0.701,3.695-1.08,5.776
					c-0.679,3.729-1.113,6.244-1.313,7.379C1177.559,1640.165,1177.548,1640.243,1177.537,1640.31z"/>
				<path style="fill:#122A4F;" d="M1153.705,888.772c0.05,6.201-2.451,10.66-3.599,12.68c-1.187,2.023-2.522,3.739-3.916,5.221
					c-4.303,4.453-9.172,6.51-11.336,7.417c-4.101,1.673-7.933,2.281-10.924,2.418c-0.469,8.087,0.846,15.943,4.591,23.669
					c4.567,9.378,12.005,18.631,13.15,29.185c0.27,2.217,0.262,4.46-0.137,6.817c-0.239,1.422-0.601,2.814-1.087,4.138
					c-4.452,12.993-18.392,20.874-21.418,34.626c-3.107,14.2,6.31,30.65,9.574,44.464c5.735,24.412,4.3,49.72-18.824,64.433
					c-8.545,5.416-18.262,8.37-28.234,9.744c-3.445,0.455-6.902,0.751-10.375,0.889c-12.969,0.511-26.166-0.72-39.064-3.579
					c-34.598-7.527-67.109-26.684-88.189-54.948c-21.67-29.094-32.89-77.341,0.158-102.874
					c16.823-13.013,39.089-14.359,59.375-16.857c7.055-0.845,14.247-1.942,20.438-5.395c14.829-8.236,17.005-26.321,21.881-40.912
					c5.301-15.709,14.501-29.829,32.172-31.544c8.217-0.823,14.831,1.132,18.476,2.543c1.693-2.669,4.781-6.816,9.838-10.413
					c2.944-2.094,10.941-7.825,22.071-6.896c2.661,0.212,11.505,1.097,18.38,8.435
					C1148.161,873.591,1153.684,879.644,1153.705,888.772z"/>
				<path style="fill:#FFA6AA;" d="M1156.029,962.646c-3.537,4.987-8.791,6.759-14.359,6.716
					c-1.144-10.553-8.583-19.806-13.15-29.185c-3.745-7.726-5.059-15.582-4.591-23.669c2.991-0.137,6.823-0.745,10.924-2.418
					c2.165-0.907,7.033-2.964,11.336-7.417c2.747,7.292,5.54,14.659,7.462,22.143c1.382,5.367,3.076,10.667,4.143,16.101
					C1158.957,951.022,1159.853,957.272,1156.029,962.646z"/>
				<path style="fill:#E08119;" d="M1131.225,1021.306c-0.63,27.239,19.85,49.909,17.028,77.738
					c-3.21,31.706-32.693,55.371-63.622,57.02c-0.542-8.202-1.71-15.748-3.087-22.479c9.972-1.374,19.689-4.328,28.234-9.744
					c23.124-14.714,24.559-40.021,18.824-64.433c-3.264-13.814-12.681-30.265-9.574-44.464
					c3.026-13.753,16.966-21.633,21.418-34.626c2.607,0.977,5.587,2.124,8.797,3.61
					C1138.85,993.466,1131.5,1007.227,1131.225,1021.306z"/>
				<path style="fill:#E08119;" d="M1349.044,976.983c-2.09,4.103-3.596,8.957-6.357,17.401c-0.315,0.987-5.333,16.273-7.071,21.225
					c-5.751,16.068-14.449,26.702-22.675,36.777c-13.301,16.273-21.054,25.786-35.074,31.792
					c-12.864,5.466-23.917,4.971-41.708,3.893c-13.279-0.784-32.875-3.311-56.008-11.619c8.1,20.247,16.12,41.421,23.893,63.457
					c6.299,17.918,12.167,35.474,17.557,52.59c-9.309-12.857-17.351-23.538-23.525-31.578c-6.451-8.456-8.775-11.301-11.948-16.073
					c-9.547-14.238-14.268-26.805-17.181-34.644c-5.978-16.024-11.994-32.044-10.804-53.208c0.333-6.394,1.281-11.682,2.051-15.31
					c6.146,4.437,15.131,10.235,26.811,15.24c9.936,4.273,24.888,10.56,45.21,10.822c4.286,0.034,23.223,0.013,45.14-9.632
					c7.483-3.323,23.553-10.625,37.384-26.786c8.336-9.723,12.893-19.161,18.943-31.732c6.839-14.119,7.552-19.345,10.309-25.026
					C1345.714,975.506,1347.386,976.323,1349.044,976.983z"/>
				<path style="fill:#FFA6AA;" d="M1377.09,940.266c-0.524,4.17-2.389,7.172-4.324,9.821l-0.036,0.042
					c-15.705,6.43-23.481,14.744-27.641,22.268c-0.416,0.755-0.795,1.47-1.095,2.176c-2.514-1.306-5.049-2.852-7.571-4.718
					c-2.051-1.506-3.866-3.071-5.52-4.612c0.26-0.703,0.521-1.405,0.741-2.104c4.899-14.793,2.941-22.234,10.917-35.69
					c3.188-5.317,9.439-14.14,9.94-14.824c4.319-6.135,8.144-11.028,10.893-14.466c1.772-3.155,3.954-6.665,4.985-6.314
					c0.291,0.135,0.733,0.618,0.187,6.391c-0.647,6.941-1.889,12.533-2.716,15.967c-0.623,2.536-1.205,4.629-1.599,6.104
					c1.358,1.366,3.54,3.46,6.391,5.898c2.899,2.514,3.781,3,4.748,4.479C1377.789,934.401,1377.279,938.728,1377.09,940.266z"/>
				<path style="fill:#FF797D;" d="M1372.729,950.129c-0.25,0.342-0.505,0.643-0.756,0.986c-3.306,4.408-5.398,5.227-10.429,10.062
					c-0.331,0.349-5.435,5.271-9.095,10.228c-1.36,1.88-2.449,3.655-3.406,5.578c-1.658-0.66-3.33-1.476-5.051-2.41
					c0.3-0.706,0.679-1.421,1.095-2.176C1349.248,964.873,1357.024,956.559,1372.729,950.129z"/>
				<path style="fill:#E08119;" d="M1083.764,1188.886c-3.569-0.927-7.184-2.109-10.822-3.546c1.344-7.461,2.178-16.012,1.924-25.42
					c-0.255-9.733-1.622-18.33-3.314-25.468c3.337-0.139,6.674-0.44,9.987-0.856c1.391,6.72,2.549,14.274,3.082,22.477
					c0.046,0.557,0.069,1.136,0.116,1.738C1085.432,1169.097,1084.923,1179.547,1083.764,1188.886z"/>
				<path style="fill:#F69B26;" d="M1074.865,1159.92c0.255,9.408-0.579,17.959-1.924,25.42c-1.436-0.556-2.897-1.181-4.333-1.853
					c-0.464-0.186-0.927-0.394-1.391-0.626c-3.661-1.761-7.206-3.777-10.567-6.072c-15.456-10.474-25.374-27.437-24.54-45.906
					c12.49,2.781,25.282,4.033,37.864,3.639c0.418-0.024,0.811-0.024,1.205-0.046c0.116,0,0.255,0,0.371-0.024
					C1073.243,1141.59,1074.61,1150.187,1074.865,1159.92z"/>
				<path style="fill:#20468F;" d="M1217.24,1622.385c-8.435-22.802-12.56-42.546-14.761-58.094
					c-4.171-29.43-2.874-57.84-0.371-114.638c2.04-45.813,5.353-63.841,5.33-113.431c-0.023-34.922-1.692-56.728-5.747-79.67
					c-3.314-19.187-7.717-35.547-11.749-48.408c-2.41,0.834-4.867,1.645-7.392,2.386c-39.881,11.796-76.749,4.265-101.776-4.657
					c-0.464-0.163-0.95-0.302-1.414-0.51c-5.631,7.207-11.726,16.732-16.43,28.665c-7.554,19.071-7.902,35.084-8.249,48.199
					c-0.811,28.457-4.704,56.891-3.87,85.347c0.904,32.582-4.519,101.359-31.886,259.26c3.824,2.063,8.482,4.079,13.881,5.446
					c10.034,2.596,19.373,2.156,27.159,0.557c0.927-3.244,1.807-6.443,2.665-9.594c-0.255-5.816-0.394-12.027-0.394-18.516
					c0.046-40.715,6.28-67.364,14.158-109.191c0,0,10.961-58.512,19.836-124.185c3.87-28.664,8.62-70.446,11.031-122.168
					c0.093,6.164,0.996,14.437,4.565,23.497c5.631,14.252,14.83,22.896,19.443,26.697c2.827,10.729,5.909,22.756,8.968,36.034
					c2.595,11.054,5.168,22.965,7.694,35.64c1.715,8.875,6.65,34.319,11.54,69.682c4.472,32.303,6.094,52.649,9.431,89.494
					c2.132,23.776,5.238,57.006,9.316,97.813c0.07,0.649,0.139,1.298,0.209,1.97c4.426,1.391,9.941,2.549,16.337,2.665
					c9.709,0.163,18.005-2.178,24.471-5.005v-0.024C1218.538,1625.884,1217.866,1624.122,1217.24,1622.385z M1107.261,1248.65
					c0-2.364,0.139-4.403,0.278-6.025C1107.47,1244.641,1107.354,1246.657,1107.261,1248.65z"/>
				<path style="fill:#F69B26;" d="M1343.993,974.573c-2.757,5.681-3.469,10.907-10.309,25.026
					c-6.049,12.571-10.606,22.009-18.943,31.732c-13.831,16.16-29.901,23.462-37.384,26.786c-21.917,9.645-40.853,9.666-45.14,9.632
					c-20.323-0.261-35.275-6.548-45.21-10.822c-11.68-5.005-20.664-10.803-26.811-15.24c-0.77,3.628-1.718,8.916-2.051,15.31
					c-1.19,21.164,4.826,37.184,10.804,53.208c2.913,7.839,7.634,20.406,17.181,34.644c3.172,4.772,5.497,7.617,11.948,16.073
					c6.174,8.04,14.216,18.722,23.525,31.578c-1.326,0.874-2.656,1.707-4.066,2.55c-7.876,4.798-17.096,9.353-27.586,13.094
					c-2.41,0.846-4.863,1.656-7.402,2.396c-39.87,11.783-76.751,4.252-101.778-4.656c-0.455-0.16-0.948-0.318-1.406-0.519
					c0.683-0.899,1.408-1.802,2.098-2.622c0.915-4.284,1.678-8.914,2.297-13.851c1.16-9.349,1.666-19.803,0.981-31.075
					c-0.051-0.596-0.062-1.195-0.11-1.752c30.929-1.648,60.412-25.313,63.622-57.02c2.822-27.829-17.658-50.499-17.028-77.738
					c0.275-14.078,7.625-27.84,18.018-37.379c2.494,1.067,5.165,2.32,7.927,3.726c7.957,4.083,12.221,7.121,24.64,15.146
					c15.688,10.187,23.531,15.281,27.839,17.434c11.971,6.062,22.562,11.442,37.162,11.751c15.042,0.313,26.359-4.979,32.435-7.902
					c15.802-7.641,24.818-18.302,31.581-26.289c5.888-6.991,14.504-17.178,20.074-32.55c1.654,1.542,3.469,3.107,5.52,4.612
					C1338.944,971.721,1341.479,973.267,1343.993,974.573z"/>
				<path style="fill:#122A4F;" d="M1232.72,1352.256c0,0-4.31,44.469-8.852,109.006l2.271-81.731
					c-1.321,30.519-2.364,61.431-3.036,92.692c-0.325,14.182-0.556,28.433-0.742,42.777c-0.255,21.621-0.347,43.403-0.278,65.371
					c0.046,15.41,0.185,30.704,0.417,45.906l-3.267,1.367c-9.78-25.026-14.39-46.625-16.754-63.355
					c-4.171-29.43-2.874-57.84-0.371-114.638c2.04-45.813,5.353-63.841,5.33-113.431c-0.023-34.922-1.692-56.728-5.747-79.67
					c-3.314-19.187-7.717-35.547-11.749-48.408c10.497-3.732,19.72-8.296,27.599-13.094c2.688,5.214,5.7,11.911,8.319,19.953
					c6.535,19.744,7.091,36.034,7.253,44.168C1234.968,1328.922,1232.72,1352.256,1232.72,1352.256z"/>
				<path style="fill:#122A4F;" d="M1226.139,1379.531l-2.271,81.731c-0.255,3.591-0.51,7.253-0.765,10.961
					C1223.776,1440.963,1224.818,1410.05,1226.139,1379.531z"/>
				<path style="fill:#122A4F;" d="M1140.231,1335.4c-5.145,14.255-11.786,33.483-18.76,56.301
					c-14.454,47.203-21.921,82.036-27.755,107.881c-6.942,30.663-16.978,72.443-31.088,123.66
					c-0.259-5.823-0.389-12.018-0.384-18.505c0.035-40.722,6.281-67.363,14.149-109.198c0,0,10.964-58.515,19.834-124.178
					c3.869-28.679,8.62-70.447,11.035-122.183c0.087,6.159,0.997,14.448,4.576,23.51c5.626,14.253,14.813,22.876,19.424,26.684
					C1134.101,1310.101,1137.172,1322.13,1140.231,1335.4z"/>
				<path style="fill:#122A4F;" d="M1226.139,1379.531l-2.271,81.731l-1.507,53.738c0.186-14.344,0.417-28.595,0.742-42.777
					C1223.776,1440.963,1224.818,1410.05,1226.139,1379.531z"/>
			</g>
			<g>
				<path style="fill:#23A573;" d="M2202.264,961.924v385.408c0,27.637-7.69,54.713-22.159,78.241
					c-11.624,18.893-23.107,33.502-32.589,44.387c-18.401,21.105-37.54,36.873-75.817,68.478
					c-11.694,9.657-31.395,25.882-58.435,45.757c-38.804,28.515-76.519,52.781-112.128,73.465
					c-35.609-20.684-73.359-44.949-112.128-73.465c-27.04-19.876-46.741-36.1-58.435-45.757
					c-22.264-18.366-38.067-31.394-50.99-43.193c-1.264-1.37-2.528-2.774-3.757-4.214c-0.211-0.21-0.386-0.421-0.597-0.667
					c-9.376-10.781-20.613-25.214-32.026-43.72c-14.469-23.528-22.159-50.604-22.159-78.241V965.26l165.822-26.373
					c89.654-14.257,180.993-14.257,270.682,0l135.235,21.527L2202.264,961.924z"/>
				<g>
					<path style="fill:#53F0B9;" d="M2202.264,944.19v403.142c0,27.637-7.69,54.713-22.159,78.241
						c-11.624,18.893-23.107,33.502-32.589,44.387c-18.401,21.105-37.54,36.873-75.817,68.478
						c-11.694,9.657-31.395,25.882-58.435,45.757c-38.804,28.515-76.519,52.781-112.128,73.465
						c-35.609-20.684-73.359-44.949-112.128-73.465c-27.04-19.876-46.741-36.1-58.435-45.757
						c-22.264-18.366-38.067-31.394-50.99-43.193c-9.306-8.534-17.137-16.47-24.828-25.285c-0.21-0.21-0.386-0.421-0.597-0.667
						c-9.376-10.781-20.613-25.214-32.026-43.72c-14.469-23.528-22.159-50.604-22.159-78.241V944.19l165.822-26.373
						c89.654-14.257,180.993-14.257,270.682,0l135.235,21.527L2202.264,944.19z"/>
					<path style="fill:#018884;" d="M1901.124,1613.218c-30.619-18.546-60.64-38.614-89.48-59.822
						c-26.546-19.51-46.2-35.728-56.76-44.44c-36.482-30.092-54.856-45.249-71.149-63.904c-0.321-0.376-0.646-0.746-0.985-1.122
						c-10.121-11.681-19.561-24.6-28.058-38.402c-10.789-17.542-16.496-37.672-16.496-58.2v-370.52l133.586-21.233
						c42.647-6.78,86.163-10.219,129.344-10.219c43.179,0,86.696,3.439,129.341,10.219l133.586,21.239v370.514
						c0,20.527-5.707,40.658-16.506,58.218c-8.649,14.056-18.352,27.273-28.833,39.274c-16.364,18.78-34.739,33.936-71.347,64.132
						c-10.569,8.72-30.232,24.945-56.754,44.438C1961.764,1574.603,1931.743,1594.672,1901.124,1613.218z"/>
					<g>
						<polygon style="fill:#FFFFFF;" points="1839.551,1421.19 1710.442,1292.086 1773.422,1229.105 1839.551,1295.239 
							2028.826,1105.959 2091.807,1168.94 						"/>
					</g>
				</g>
				<path style="fill:#23A573;" d="M2223.334,965.26v403.142c0,27.637-7.69,54.712-22.159,78.241
					c-11.624,18.893-23.107,33.502-32.589,44.387c-18.401,21.105-37.54,36.873-75.817,68.478
					c-11.694,9.657-31.395,25.881-58.435,45.757c-38.804,28.516-76.52,52.781-112.128,73.465
					c-35.609-20.684-73.359-44.949-112.128-73.465c-27.04-19.876-46.741-36.1-58.435-45.757
					c-35.714-29.463-54.782-45.16-72.06-64.264c12.923,11.799,28.726,24.827,50.99,43.193c11.694,9.657,31.395,25.882,58.435,45.757
					c38.769,28.515,76.519,52.781,112.128,73.465c35.609-20.684,73.324-44.949,112.128-73.465
					c27.04-19.876,46.741-36.1,58.435-45.757c38.277-31.605,57.416-47.373,75.817-68.478c9.482-10.886,20.965-25.495,32.589-44.387
					c14.469-23.528,22.159-50.604,22.159-78.241V944.19L2223.334,965.26z"/>
			</g>
		</g>
		<g>
			
				<ellipse transform="matrix(0.9239 -0.3826 0.3826 0.9239 -470.4468 302.4196)" style="fill:#AF4852;" cx="525.082" cy="1333.948" rx="105.857" ry="107.131"/>
			<g>
				<g>
					<g>
						
							<linearGradient id="SVGID_00000093167128223371431370000012851974389027822723_" gradientUnits="userSpaceOnUse" x1="473.1279" y1="1217.8405" x2="545.9406" y2="1424.5341">
							<stop  offset="0" style="stop-color:#FA9090"/>
							<stop  offset="1" style="stop-color:#FF595A"/>
						</linearGradient>
						<path style="fill:url(#SVGID_00000093167128223371431370000012851974389027822723_);" d="M407.339,1349.252
							c16.721,56.747,75.779,89.466,131.907,73.083c56.13-16.384,88.076-75.668,71.355-132.415s-75.778-89.467-131.908-73.083
							C422.565,1233.221,390.618,1292.505,407.339,1349.252z"/>
						<g>
							<path style="fill:#FFFFFF;" d="M470.459,1294.393c4.685,15.899,22.491,29.341,38.216,24.751
								c15.726-4.59,23.416-25.475,18.731-41.374c-4.685-15.899-20.756-23.457-36.482-18.866
								C475.199,1263.494,465.775,1278.495,470.459,1294.393z"/>
							<path style="fill:#FFFFFF;" d="M562.049,1370.04l-69.509,20.29c-7.317,2.136-15.204-0.754-19.51-7.149l-7.223-10.727
								c-5.289-7.854-3.597-18.523,3.924-24.107c25.207-18.714,54.853-25.911,87.787-24.577c9.226,0.374,16.559,8.091,16.787,17.4
								l0.283,11.574C574.782,1360.736,569.644,1367.823,562.049,1370.04z"/>
						</g>
					</g>
				</g>
			</g>
		</g>
		<g>
			<path style="fill:#1F664E;" d="M1494.578,333.401c-58.126-6.334-110.322,36.221-116.581,95.048
				c-6.258,58.827,35.791,111.65,93.917,117.983c58.129,6.334,110.323-36.22,116.582-95.047
				C1594.754,392.559,1552.707,339.735,1494.578,333.401z"/>
			<g>
				<g>
					<g>
						
							<linearGradient id="SVGID_00000009549384293564579170000016515925554247187098_" gradientUnits="userSpaceOnUse" x1="1499.3531" y1="528.699" x2="1451.2029" y2="324.3546">
							<stop  offset="0" style="stop-color:#30A781"/>
							<stop  offset="1" style="stop-color:#64CA77"/>
						</linearGradient>
						
							<ellipse style="fill:url(#SVGID_00000009549384293564579170000016515925554247187098_);" cx="1473.854" cy="420.483" rx="105.858" ry="107.131"/>
						<g>
							<path style="fill:#FFFFFF;" d="M1447.91,382.475c-1.753,16.481,9.556,35.713,25.841,37.487
								c16.286,1.775,31.38-14.58,33.134-31.061c1.753-16.482-10.205-29.613-26.49-31.387S1449.663,365.994,1447.91,382.475z"/>
							<path style="fill:#FFFFFF;" d="M1503.594,487.405l-71.984-7.844c-7.578-0.826-13.759-6.513-15.291-14.069l-2.57-12.674
								c-1.882-9.28,3.762-18.49,12.848-20.772c30.448-7.648,60.592-2.957,90.511,10.874c8.382,3.875,12.205,13.81,8.854,22.498
								l-4.167,10.802C1518.919,483.679,1511.46,488.262,1503.594,487.405z"/>
						</g>
					</g>
				</g>
			</g>
		</g>
	</g>
</g>
</svg>
