<?xml version="1.0" encoding="utf-8"?>
<!-- Generator: Adobe Illustrator 27.5.0, SVG Export Plug-In . SVG Version: 6.00 Build 0)  -->
<svg version="1.1" id="Layer_1" xmlns="http://www.w3.org/2000/svg" xmlns:xlink="http://www.w3.org/1999/xlink" x="0px" y="0px"
	 viewBox="0 0 1364 960" style="enable-background:new 0 0 1364 960;" xml:space="preserve">
<g>
	<g>
		<g>
			<g>
				<g>
					<path style="fill:#E4EEF7;" d="M466.526,159.007l-6.525-1.333c-0.13-8.838-1.598-17.477-4.255-25.638l6.514-4.305
						c9.733-6.432,12.41-19.536,5.979-29.27c-6.433-9.733-19.537-12.41-29.271-5.978l-5.564,3.677
						c-6.182-6.017-13.27-11.129-21.122-15.12c-0.002-0.001-0.005-0.003-0.007-0.004l1.561-7.65
						c2.336-11.431-5.039-22.59-16.47-24.924c-11.431-2.335-22.589,5.039-24.924,16.47l-1.333,6.526
						c-8.838,0.131-17.477,1.599-25.638,4.255l-4.304-6.515c-6.433-9.733-19.537-12.41-29.27-5.978
						c-9.734,6.432-12.41,19.537-5.979,29.27l3.675,5.562c-6.018,6.184-11.131,13.272-15.123,21.126
						c-0.001,0.002-0.001,0.004-0.002,0.006l-7.647-1.562c-11.432-2.334-22.59,5.039-24.925,16.47
						c-2.335,11.431,5.039,22.59,16.471,24.924l6.52,1.332c0.13,8.84,1.599,17.48,4.255,25.641l-6.509,4.302
						c-9.734,6.432-12.411,19.537-5.978,29.27c6.432,9.734,19.536,12.41,29.27,5.978l5.543-3.663
						c0.001,0.001,0.004,0.003,0.005,0.004c6.187,5.999,13.293,11.115,21.141,15.128l-1.558,7.629
						c-2.335,11.431,5.04,22.59,16.471,24.924c11.431,2.335,22.589-5.039,24.924-16.47l1.332-6.52
						c8.839-0.131,17.479-1.599,25.641-4.256l4.302,6.51c6.432,9.734,19.537,12.41,29.271,5.978
						c9.733-6.432,12.409-19.537,5.978-29.27l-3.665-5.546c0.001,0,0.001-0.001,0.001-0.001c6-6.187,11.116-13.295,15.129-21.143
						l7.633,1.559c11.432,2.334,22.59-5.039,24.925-16.47C485.331,172.5,477.958,161.342,466.526,159.007z M434.072,171.601
						c-6.949,34.026-40.188,55.989-74.213,49.04c-34.026-6.95-55.989-40.186-49.04-74.213c6.954-34.045,40.188-55.989,74.213-49.04
						C419.057,104.338,441.024,137.555,434.072,171.601z"/>
				</g>
			</g>
		</g>
		<g>
			<g>
				<g>
					<path style="fill:#E4EEF7;" d="M380.404,120.046c-21.511-4.393-42.515,9.503-46.908,31.014
						c-4.394,21.511,9.484,42.511,30.993,46.904c21.511,4.393,42.53-9.479,46.924-30.99
						C415.806,145.462,401.915,124.439,380.404,120.046z"/>
				</g>
			</g>
		</g>
	</g>
	<g>
		<g>
			<g>
				<g>
					<path style="fill:#E4EEF7;" d="M1156.671,417.439l-4.915-0.781c-0.387-6.594-1.766-12.994-4.017-19l4.722-3.427
						c7.055-5.12,8.625-14.991,3.505-22.047c-5.121-7.056-14.991-8.624-22.047-3.504l-4.033,2.927
						c-4.812-4.29-10.271-7.873-16.264-10.596c-0.002-0.001-0.004-0.002-0.005-0.003l0.915-5.762
						c1.369-8.61-4.502-16.699-13.111-18.067c-8.61-1.368-16.698,4.502-18.067,13.112l-0.782,4.915
						c-6.594,0.387-12.995,1.766-19,4.016l-3.426-4.722c-5.121-7.056-14.992-8.624-22.047-3.504
						c-7.056,5.121-8.625,14.991-3.505,22.047l2.926,4.031c-4.29,4.813-7.875,10.273-10.598,16.266
						c-0.001,0.002-0.001,0.003-0.002,0.005l-5.76-0.915c-8.611-1.368-16.699,4.502-18.067,13.112
						c-1.368,8.61,4.502,16.699,13.112,18.067l4.911,0.781c0.387,6.595,1.767,12.997,4.017,19.003l-4.719,3.425
						c-7.056,5.121-8.625,14.991-3.504,22.047c5.12,7.056,14.991,8.624,22.047,3.504l4.018-2.916
						c0.001,0.001,0.003,0.002,0.004,0.003c4.815,4.276,10.288,7.862,16.278,10.601l-0.913,5.746
						c-1.368,8.61,4.503,16.699,13.112,18.067c8.61,1.368,16.698-4.502,18.067-13.112l0.781-4.911
						c6.595-0.387,12.996-1.767,19.002-4.018l3.424,4.719c5.12,7.056,14.991,8.624,22.048,3.504
						c7.055-5.12,8.624-14.991,3.504-22.047l-2.918-4.02c0.001,0,0.001,0,0.001-0.001c4.277-4.815,7.863-10.289,10.602-16.28
						l5.749,0.914c8.611,1.368,16.699-4.502,18.068-13.112C1171.151,426.896,1165.281,418.807,1156.671,417.439z M1132.855,427.904
						c-4.073,25.629-28.167,43.113-53.795,39.04c-25.629-4.073-43.114-28.166-39.041-53.795
						c4.076-25.644,28.167-43.114,53.795-39.04C1119.443,378.182,1136.93,402.26,1132.855,427.904z"/>
				</g>
			</g>
		</g>
		<g>
			<g>
				<g>
					<path style="fill:#E4EEF7;" d="M1091.102,391.174c-16.202-2.575-31.427,8.487-34.002,24.689
						c-2.575,16.202,8.472,31.424,24.674,34c16.203,2.575,31.44-8.47,34.015-24.672
						C1118.364,408.989,1107.304,393.75,1091.102,391.174z"/>
				</g>
			</g>
		</g>
	</g>
	<g>
		<g>
			<g>
				<g>
					<path style="fill:#E4EEF7;" d="M423.707,608.62l-4.281-4.021c3.994-6.695,6.891-13.86,8.674-21.217l6.883-0.216
						c10.284-0.322,18.361-8.921,18.039-19.206c-0.323-10.285-8.922-18.361-19.207-18.039l-5.879,0.185
						c-1.855-7.379-4.81-14.498-8.857-21.13c-0.001-0.002-0.002-0.004-0.004-0.006l4.714-5.02c7.045-7.5,6.675-19.291-0.825-26.336
						c-7.5-7.045-19.291-6.675-26.336,0.826l-4.022,4.282c-6.696-3.994-13.86-6.891-21.217-8.675l-0.215-6.883
						c-0.323-10.285-8.922-18.361-19.206-18.039c-10.285,0.322-18.361,8.921-18.039,19.206l0.184,5.876
						c-7.38,1.856-14.501,4.811-21.134,8.858c-0.002,0.001-0.003,0.003-0.005,0.003l-5.018-4.713
						c-7.501-7.045-19.292-6.675-26.337,0.825c-7.045,7.501-6.675,19.292,0.826,26.336l4.278,4.018
						c-3.995,6.697-6.892,13.863-8.676,21.22l-6.878,0.216c-10.286,0.322-18.362,8.921-18.038,19.206
						c0.322,10.285,8.921,18.361,19.206,18.039l5.857-0.184c0,0.002,0.001,0.004,0.002,0.005c1.867,7.368,4.834,14.499,8.868,21.144
						l-4.701,5.006c-7.045,7.501-6.674,19.292,0.826,26.337c7.5,7.044,19.291,6.675,26.336-0.826l4.019-4.278
						c6.696,3.994,13.862,6.891,21.22,8.675l0.215,6.879c0.322,10.285,8.922,18.361,19.207,18.039
						c10.285-0.323,18.361-8.922,18.038-19.206l-0.184-5.86c0.001,0,0.001,0,0.001,0c7.369-1.867,14.5-4.834,21.146-8.869
						l5.008,4.704c7.501,7.045,19.292,6.675,26.337-0.825C431.578,627.456,431.208,615.665,423.707,608.62z M393.513,603.049
						c-20.97,22.327-56.09,23.427-78.417,2.458c-22.327-20.969-23.428-56.089-2.459-78.416c20.982-22.339,56.09-23.427,78.417-2.458
						C413.38,545.602,414.494,580.71,393.513,603.049z"/>
				</g>
			</g>
		</g>
		<g>
			<g>
				<g>
					<path style="fill:#E4EEF7;" d="M377.09,539.5c-14.115-13.257-36.316-12.549-49.573,1.567
						c-13.257,14.115-12.561,36.304,1.553,49.56c14.115,13.257,36.317,12.573,49.574-1.541
						C391.901,574.971,391.205,552.757,377.09,539.5z"/>
				</g>
			</g>
		</g>
	</g>
	<g>
		<g>
			<g>
				<path style="fill:#FFFFFF;" d="M413.783,879.168c-3.605,0-6.537-2.63-6.537-5.862V113.698c0-3.234,2.932-5.863,6.537-5.863
					h467.241c0.83,0,1.638,0.142,2.403,0.42c2.52,0.907,4.123,3.038,4.123,5.443v759.608c0,3.232-2.928,5.862-6.526,5.862H413.783z"
					/>
			</g>
			<g>
				<path style="fill:#000100;" d="M881.024,879.668H413.782c-3.88,0-7.037-2.854-7.037-6.362V113.698c0-0.276,0.224-0.5,0.5-0.5
					c0.276,0,0.5,0.224,0.5,0.5v759.607c0,2.957,2.708,5.362,6.037,5.362h467.241c3.323,0,6.026-2.405,6.026-5.362V113.698
					c0-0.276,0.224-0.5,0.5-0.5c0.276,0,0.5,0.224,0.5,0.5v759.607C888.05,876.813,884.898,879.668,881.024,879.668z"/>
			</g>
			<g>
				<g>
					<g>
						<path style="fill:#3875B6;" d="M406.759,114.083v49.721h481.277v-49.721c0-13.086-6.522-23.727-14.565-23.727H421.313
							C412.373,90.357,406.759,103.96,406.759,114.083z"/>
					</g>
				</g>
				<g>
					<path style="fill:#FFFFFF;" d="M608.001,101.753h78.793c1.636,0,2.962,1.498,2.962,3.346v3.507
						c0,1.848-1.326,3.346-2.962,3.346h-78.793c-1.636,0-2.963-1.498-2.963-3.346v-3.507
						C605.039,103.251,606.365,101.753,608.001,101.753z"/>
				</g>
			</g>
		</g>
		<g>
			<g>
				<path style="fill:#FFFFFF;" d="M855.286,467.067c-15.863,117.468-121.892,200.107-236.811,184.589
					c-114.915-15.519-195.229-123.32-179.367-240.788c10.725-79.414,62.695-142.952,130.736-170.98
					c32.592-13.397,68.861-18.678,106.079-13.65c28.688,3.874,55.194,13.499,78.626,27.608
					c38.987,23.446,69.322,59.266,86.603,101.582c13.518,32.951,19.094,69.857,14.606,107.829
					C855.631,464.515,855.456,465.812,855.286,467.067z"/>
			</g>
			<g>
				<path style="fill:#E4EEF7;" d="M855.758,463.256c-2.089-1.56-4.174-3.46-6.122-7.002c-5.963-11.025,0.72-17.318-5.104-28.112
					c-5.352-9.878-17.064-15.844-21.209-13.212c-3.119,1.964-0.892,8.183-3.451,9.158c-3.279,1.26-10.65-7.528-14.906-16.065
					c-3.277-6.617-2.368-8.324-5.701-12.649c-4.898-6.283-8.237-4.265-12.011-9.756c-3.849-5.543-5.407-14.825-2.296-21.771
					c1.086-2.364,2.088-3.167,1.731-4.619c-0.931-3.831-9.121-2.467-18.317-6.903c-1.399-0.657-14.537-7.115-14.904-16.064
					c-0.289-6.681,6.729-9.779,5.178-13.736c-1.777-4.497-10.887-0.747-18.359-6.907c-7.154-5.99-8.4-17.571-8.554-18.955
					c-0.552-5.694,0.852-7.89-1.126-10.881c-2.405-3.647-7.258-4.601-13.781-5.183c-12.45-1.128-18.192,0.395-26.343,0.53
					c-3.795,0.042-19.28,0.25-33.859-7.51c-12.824-6.884-14.259-14.23-21.169-13.205c-3.558,0.499-9.279,4.707-20.679,13.133
					c-2.652,1.983-4.312,3.249-6.311,2.894c-4.852-0.954-3.746-10.087-10.321-14.38c-4.299-2.838-8.397,2.272-15.461-0.599
					c-2.263-0.901-3.721-2.078-4.832-2.993c-3.983-3.305-10.319-10.932-8.348-17.649c0.089-0.329,0.216-0.654,0.341-0.934
					c32.592-13.397,68.861-18.678,106.079-13.65c28.688,3.874,55.194,13.499,78.626,27.608c12.804,17.738,8.746,30.136,23.61,44.618
					c5.539,5.346,12.054,9.76,12.054,9.76c12.598,8.558,17.701,7.331,21.209,13.212c4.819,8.146-2.507,14.776,2.247,21.807
					c4.582,6.75,12.22,1.905,22.936,8.633c1.648,1.033,3.191,2.22,4.546,3.552C854.67,388.378,860.247,425.283,855.758,463.256z"/>
			</g>
			<g>
				<path style="fill:#E4EEF7;" d="M549.31,290.662c-3.957,0.191-7.122,3.545-13.455,10.253c-3.365,3.565-4.318,5.293-9.503,10.786
					c-5.974,6.326-7.808,7.319-8.969,6.835c-2.214-0.928-0.146-6.487-2.884-8.436c-3.454-2.461-12.828,2.085-12.92,6.301
					c-0.065,2.999,4.617,3.19,10.786,9.503c5.775,5.911,4.523,8.66,10.252,13.455c2.532,2.118,6.219,5.201,11.321,5.551
					c6.64,0.454,10.127-4.101,12.386-2.349c2.177,1.688,1.458,7.88-1.601,11.853c-3.382,4.392-7.493,3.297-8.969,6.835
					c-1.754,4.204,3.489,7.101,2.349,12.387c-1.162,5.4-7.168,4.857-9.502,10.785c-1.914,4.864,1.568,6.653,1.816,16.338
					c0.098,3.733-0.414,3.674-2.134,15.805c-2.007,14.174-1.165,13.23-2.134,15.804c-3.517,9.341-9.959,9.374-14.521,18.155
					c-2.45,4.714-2.453,8.283-2.668,19.755c-0.555,29.417-1.027,31.961-0.968,34.328c0.023,0.897,0.098,1.559,0.118,1.767
					c0.749,8.335-0.02,27.589,4.167,28.724c2.785,0.756,5.081-7.222,8.97-6.835c1.377,0.136,3.859,1.628,9.186,21.357
					c4.648,17.219,2.349,22.363,8.118,29.257c3.142,3.756,3.667,2.039,14.736,10.036c9.781,7.065,10.107,8.936,18.155,14.521
					c7.47,5.181,8.154,4.242,18.689,10.571c10.312,6.196,10.548,7.633,22.106,15.054c14.202,9.118,22.716,14.479,26.59,11.637
					c3.469-2.543-1.164-8.447,2.135-15.804c5.38-12,25.85-14.47,34.276-15.488c3.214-0.388,8.907-0.687,20.29-1.283
					c11.278-0.592,18.58-0.771,20.821-5.234c0.256-0.506,1.098-2.181,0.534-3.951c-1.744-5.483-14.136-2.9-31.076-8.219
					c-9.828-3.085-15.999-5.023-18.688-10.571c-4.059-8.375,4.117-16.131-0.75-24.24c-3.651-6.084-11.134-6.52-10.786-9.502
					c0.296-2.546,5.717-2.007,12.92-6.304c1.635-0.973,12.045-7.372,14.521-18.154c1.032-4.495-0.378-5.12,1.068-7.901
					c3.286-6.321,10.748-3.433,17.406-9.72c5.711-5.395,3.542-10.66,10.036-14.736c3.468-2.175,4.183-0.736,8.436-2.884
					c7.687-3.885,6.444-9.148,13.986-14.205c5.813-3.894,8.654-2.18,12.921-6.301c1.059-1.023,5.644-5.46,5.552-11.319
					c-0.083-5.301-3.901-6.015-6.302-12.922c-3.025-8.702,1.423-12.206-1.818-16.338c-3.958-5.051-11.332-0.74-19.221-6.618
					c-2.964-2.207-2.598-3.318-6.835-8.969c-9.2-12.265-14.163-11.357-17.622-18.472c-4.499-9.255,2.506-13.647-0.75-24.241
					c-4.14-13.46-20.514-22.846-25.524-19.538c-6.722,4.438,6.197,32.295-0.851,36.092c-3.391,1.829-7.851-3.832-11.854-1.599
					c-4.688,2.612-4.015,13.413-2.667,19.755c2.234,10.511,7.556,14.57,5.769,16.871c-2.191,2.819-12.899,0.238-19.224-6.62
					c-0.912-0.99-7.693-8.555-5.768-16.871c2.118-9.138,12.401-9.006,14.522-18.155c1.516-6.549-2.221-13.261-5.769-16.871
					c-5.144-5.234-11.837-5.944-19.222-6.618c-16.741-1.53-22.569,4.75-28.191,0.215c-5.229-4.219-2.165-11.245-9.719-17.404
					c-3.391-2.764-4.798-1.993-7.37-5.019c-4.062-4.78-2.174-8.618-6.302-12.92c-3.395-3.539-5.867-2.185-7.368-5.019
					c-2.838-5.355,4.772-12.492,2.135-15.804c-1.233-1.547-3.224-0.404-7.903-1.068C555.862,295.511,554.763,290.401,549.31,290.662
					z"/>
			</g>
			<g>
				<path style="fill:#000100;" d="M646.411,654.04c-9.294,0-18.641-0.625-28.003-1.89
					c-115.012-15.532-195.668-123.802-179.795-241.35c10.354-76.678,60.566-142.346,131.04-171.376
					c33.6-13.812,70.368-18.545,106.338-13.683c28.101,3.793,54.618,13.104,78.815,27.674
					c38.659,23.249,69.488,59.41,86.809,101.821c13.923,33.939,18.984,71.312,14.639,108.077c-0.126,1.256-0.302,2.56-0.473,3.818
					l0,0c-7.688,56.943-36.614,107.548-81.446,142.492C737.033,638.7,692.431,654.04,646.411,654.04z M648.377,224.887
					c-26.775,0-53.435,5.225-78.343,15.463c-70.145,28.895-120.123,94.259-130.431,170.585
					c-15.798,117.002,64.474,224.767,178.939,240.226c55.438,7.481,110.556-7.545,155.177-42.323
					c44.625-34.783,73.417-85.155,81.071-141.837c0-0.001,0-0.001,0-0.001c0.169-1.248,0.343-2.54,0.47-3.793
					c4.326-36.607-0.713-73.808-14.571-107.59c-17.239-42.214-47.923-78.204-86.398-101.343
					c-24.08-14.499-50.47-23.766-78.435-27.541C666.728,225.499,657.545,224.887,648.377,224.887z"/>
			</g>
		</g>
		<g>
			<g>
				<g>
					<circle style="fill:#FFFFFF;" cx="647.197" cy="438.946" r="113.666"/>
				</g>
				<g>
					<path style="fill:#000100;" d="M647.197,553.112c-62.951,0-114.166-51.215-114.166-114.166S584.246,324.78,647.197,324.78
						s114.165,51.215,114.165,114.166S710.149,553.112,647.197,553.112z M647.197,325.78c-62.4,0-113.166,50.766-113.166,113.166
						s50.766,113.166,113.166,113.166c62.399,0,113.165-50.766,113.165-113.166S709.597,325.78,647.197,325.78z"/>
				</g>
				<g>
					<path style="fill:#000100;" d="M735.695,427.349c-0.248,0-0.464-0.185-0.495-0.438c-1.68-13.44-6.143-49.142-49.549-70.28
						c-41.368-20.141-85.086,5.468-85.522,5.728c-0.238,0.142-0.545,0.064-0.686-0.172c-0.143-0.237-0.064-0.544,0.172-0.685
						c0.441-0.264,44.627-26.148,86.474-5.77c43.895,21.375,48.567,58.767,50.104,71.054c0.034,0.275-0.16,0.525-0.434,0.559
						C735.737,427.349,735.717,427.349,735.695,427.349z"/>
				</g>
				<g>
					<path style="fill:#000100;" d="M652.033,530.834c-0.257,0-0.476-0.198-0.497-0.459c-0.023-0.275,0.182-0.517,0.457-0.539
						c0.35-0.029,35.229-3.139,57.47-26.557c25.696-27.055,27.396-62.679,27.41-63.035c0.011-0.27,0.232-0.48,0.5-0.48
						c0.006,0,0.013,0,0.019,0c0.276,0.012,0.491,0.244,0.481,0.52c-0.015,0.36-1.723,36.35-27.686,63.686
						c-22.509,23.7-57.759,26.835-58.112,26.863C652.062,530.833,652.047,530.834,652.033,530.834z"/>
				</g>
				<g>
					<path style="fill:#000100;" d="M652.034,530.834c-23.143,0-41.977-3.646-64.335-21.79
						c-30.672-24.896-31.026-60.914-31.026-61.275c0-0.276,0.224-0.5,0.5-0.5c0.276,0,0.5,0.224,0.5,0.5
						c0,0.356,0.366,35.912,30.657,60.498c22.127,17.96,40.78,21.567,63.704,21.567c0.276,0,0.5,0.224,0.5,0.5
						S652.311,530.834,652.034,530.834z"/>
				</g>
				<g>
					<path style="fill:#000100;" d="M557.174,428.427c-0.021,0-0.041-0.001-0.061-0.004c-0.274-0.033-0.47-0.282-0.437-0.556
						c5.125-42.436,36.741-62.863,37.061-63.064c0.232-0.146,0.542-0.077,0.689,0.155c0.148,0.233,0.078,0.543-0.155,0.69
						c-0.315,0.199-31.535,20.39-36.602,62.338C557.639,428.24,557.423,428.427,557.174,428.427z"/>
				</g>
			</g>
			<g>
				<g>
					<polygon style="fill:#FF6C62;" points="721.315,485.606 573.079,485.606 648.987,362.503 					"/>
				</g>
				<g>
					<polygon style="fill:#FFFFFF;" points="591.254,475.81 703.14,475.81 648.799,379.134 					"/>
				</g>
				<g>
					<g>
						<path style="fill:#1C3B6E;" d="M648.861,404.785L648.861,404.785c-3.631,0-6.574,2.943-6.574,6.574v5.156l3.738,31.452h2.191
							h1.289h2.191l3.738-31.452v-5.156C655.435,407.729,652.492,404.785,648.861,404.785z"/>
					</g>
					<g>
						<path style="fill:#1C3B6E;" d="M648.861,454.026c-3.453,0-6.252,2.799-6.252,6.252c0,3.453,2.799,6.252,6.252,6.252
							c3.453,0,6.252-2.799,6.252-6.252C655.113,456.825,652.314,454.026,648.861,454.026z"/>
					</g>
				</g>
			</g>
		</g>
		<g>
			<g>
				<g>
					<rect x="467.359" y="764.529" style="fill:#E4EEF7;" width="360.077" height="8.547"/>
				</g>
			</g>
			<g>
				<g>
					<rect x="467.359" y="796.581" style="fill:#E4EEF7;" width="360.077" height="8.547"/>
				</g>
			</g>
			<g>
				<g>
					<rect x="466.958" y="700.206" style="fill:#E4EEF7;" width="360.077" height="40.599"/>
				</g>
			</g>
		</g>
		<g>
			<g>
				
					<ellipse transform="matrix(0.1602 -0.9871 0.9871 0.1602 312.8447 908.3411)" style="fill:#FF6C62;" cx="690.236" cy="270.318" rx="7.362" ry="7.362"/>
			</g>
			<g>
				<path style="fill:#FF6C62;" d="M689.756,295.072c-13.649,0-24.754-11.105-24.754-24.754c0-13.649,11.105-24.755,24.754-24.755
					c13.649,0,24.755,11.105,24.755,24.755C714.511,283.968,703.405,295.072,689.756,295.072z M689.756,246.563
					c-13.098,0-23.754,10.656-23.754,23.755c0,13.098,10.656,23.754,23.754,23.754c13.099,0,23.755-10.656,23.755-23.754
					C713.511,257.22,702.855,246.563,689.756,246.563z"/>
			</g>
			<g>
				<path style="fill:#FF6C62;" d="M690.237,289.095c-10.354,0-18.777-8.423-18.777-18.776c0-10.354,8.424-18.777,18.777-18.777
					s18.776,8.424,18.776,18.777C709.013,280.672,700.59,289.095,690.237,289.095z M690.237,252.541
					c-9.803,0-17.777,7.975-17.777,17.777c0,9.802,7.975,17.776,17.777,17.776c9.802,0,17.776-7.975,17.776-17.776
					C708.013,260.516,700.038,252.541,690.237,252.541z"/>
			</g>
		</g>
		<g>
			<g>
				
					<ellipse transform="matrix(0.7071 -0.7071 0.7071 0.7071 -237.396 608.6337)" style="fill:#FF6C62;" cx="615.988" cy="590.879" rx="7.362" ry="7.362"/>
			</g>
			<g>
				<path style="fill:#FF6C62;" d="M615.508,615.634c-13.649,0-24.754-11.106-24.754-24.755c0-13.649,11.104-24.754,24.754-24.754
					c13.649,0,24.755,11.104,24.755,24.754C640.263,604.528,629.157,615.634,615.508,615.634z M615.508,567.125
					c-13.098,0-23.754,10.656-23.754,23.754c0,13.099,10.656,23.755,23.754,23.755c13.099,0,23.755-10.656,23.755-23.755
					C639.263,577.781,628.607,567.125,615.508,567.125z"/>
			</g>
			<g>
				<path style="fill:#FF6C62;" d="M615.987,609.656c-10.354,0-18.776-8.424-18.776-18.777c0-10.354,8.423-18.776,18.776-18.776
					c10.354,0,18.777,8.423,18.777,18.776C634.765,601.232,626.341,609.656,615.987,609.656z M615.987,573.102
					c-9.802,0-17.776,7.975-17.776,17.776c0,9.803,7.975,17.777,17.776,17.777c9.803,0,17.777-7.975,17.777-17.777
					C633.765,581.077,625.79,573.102,615.987,573.102z"/>
			</g>
		</g>
	</g>
	<g>
		<g>
			<g>
				<path style="fill:#F79D43;" d="M875.503,515.942c0,0,44.581,24.064,49.149,25.736c1.236,0.445,2.104,0.704,2.475,0.766
					l1.804,0.295c0.287,0.037,0.57,0.065,0.835,0.092c1.749,0.145,3.114-0.041,4.543-0.44c0.017-0.006,0.025-0.009,0.045-0.007
					c0.675-0.19,1.361-0.43,2.11-0.703c7.346-2.677,11.144-10.8,8.494-18.147l-0.018-0.05c-0.485-1.331-1.13-2.378-1.151-2.408
					c-5.414-9.865-14.806-19.137-22.279-25.574l-0.008,0.003l-0.003-0.008c-6.345-5.463-11.314-8.883-11.314-8.883L875.503,515.942z
					"/>
			</g>
			<g>
				<path style="fill:#F79D43;" d="M946.283,539.17c-2.075,1.529-4.388,2.67-6.963,3.343c-3.073,0.808-6.527,0.935-10.393,0.222
					c-0.04,0-0.087-0.008-0.127-0.024c-1.331-0.238-2.717-0.578-4.151-1.03c-13.102-7.201-5.886-48.488-5.886-48.488
					c4.365-27.369,0.832-55.727,25.895-58.033c12.294-1.133,19.194,20.065,19.519,38.609
					C964.558,490.184,962.91,526.956,946.283,539.17z"/>
			</g>
		</g>
		<g>
			<path style="fill:#000100;" d="M946.283,539.17l-1.267-6.187l-3.073-15.003l-12.491-57.828
				c-1.867,10.795-0.382,28.29,1.628,41.181c2.515,16.119,7.046,41.456,7.046,41.456s1.312-0.18,3.236-0.927l0,0
				C943.66,540.959,944.208,540.699,946.283,539.17z"/>
		</g>
		<g>
			<path style="fill:#FFB575;" d="M998.533,803.747v47.428c0,0-21.21,0.294-51.258,0c0,0-0.196-31.03,0-47.428
				C947.275,803.747,968.092,803.648,998.533,803.747z"/>
		</g>
		<g>
			<g>
				<path style="fill:#000100;" d="M866.031,878.7c18.848,0.29,132.506-0.129,132.506-0.129s0.639-1.774,1.086-9.364
					c0.169-2.679,0.373-6.081,0.386-10.378c0.032-10.578-1.476-21.093-1.476-21.093c-1.631,2.258-5.432,8.198-19.155,8.733
					c-11.852,0.462-20.495-6.059-20.495-6.059c-1.955-9.823-6.782-20.965-16.218-19.782c-9.424,1.182-13.302,8.404-19.782,15.861
					c-6.48,7.469-5.458,5.653-32.958,7.619c-18.8,1.339-23.084,16.978-23.916,26.716C865.622,875.325,866.031,878.7,866.031,878.7z"
					/>
			</g>
		</g>
		<g>
			<path style="fill:#000100;" d="M994.744,375.045c0,0,0.193,11.954,7.698,24.249c6.712,10.996,18.949,18.23,5.895,32.009
				c-13.719,14.481-57.005,18.435-66.268,11.124c-9.081-7.168-13.381-16.372-6.897-31.793c3.795-9.027,2.796-28.335,2.796-28.335
				S963.933,377.731,994.744,375.045z"/>
		</g>
		<g>
			<path style="fill:#FFE06C;" d="M945.195,417.941c-3.182,0-5.278-2.258-6.261-4.738c-1.385-3.494-0.809-8.211,2.535-9.738
				c0.252-0.111,0.549-0.003,0.663,0.247c0.114,0.252,0.004,0.548-0.247,0.663c-2.81,1.283-3.237,5.391-2.021,8.46
				c1.06,2.675,3.608,5.05,7.604,3.702c1.719-0.581,2.849-1.582,3.358-2.974c1.309-3.576-1.724-8.665-1.754-8.716
				c-0.143-0.236-0.067-0.544,0.169-0.686c0.236-0.142,0.545-0.067,0.687,0.169c0.136,0.225,3.31,5.546,1.839,9.574
				c-0.619,1.692-1.957,2.896-3.979,3.58C946.857,417.8,945.991,417.941,945.195,417.941z"/>
		</g>
		<g>
			<path style="fill:#FFB575;" d="M886.645,520.43c0,0-24.668-1.483-36.337-21.331l58.874-30.752l11.413,30.326L886.645,520.43z"/>
		</g>
		<g>
			<path style="fill:#FFB575;" d="M951.046,434.747c5.862,0.441,34.788,1.524,34.788,1.524l-11.135-36.203l-17.323,7.012
				l-0.26,0.106l-3.55,16.114L951.046,434.747z"/>
		</g>
		<g>
			<path style="fill:#000100;" d="M953.421,424.009c10.149,4.944,20.817-4.975,21.605-7.948l-17.65-8.982l-0.26,0.106
				L953.421,424.009z"/>
		</g>
		<g>
			<g>
				<path style="fill:#FFB575;" d="M943.457,376.663c0,0-6.289,24.302,1.282,34.489c7.571,10.187,25.885,14.356,33.565,0.639
					c0,0-0.074-28.416-4.023-35.046c-3.95-6.629-13.569-7.383-20.563-7.505C946.724,369.119,943.929,374.624,943.457,376.663z"/>
			</g>
			<g>
				<g>
					<path style="fill:#000100;" d="M967.226,390.249c-0.16,0-0.318-0.077-0.415-0.22c-0.019-0.027-1.894-2.738-5.79-3.239
						c-0.274-0.035-0.468-0.286-0.433-0.56c0.035-0.275,0.294-0.473,0.56-0.433c4.365,0.561,6.409,3.547,6.494,3.674
						c0.152,0.229,0.092,0.539-0.138,0.692C967.419,390.221,967.322,390.249,967.226,390.249z"/>
				</g>
				<g>
					<path style="fill:#000100;" d="M945.094,387.877c-0.145,0-0.289-0.064-0.388-0.185c-0.175-0.214-0.142-0.529,0.072-0.703
						c3.053-2.482,7.227-2.287,7.4-2.272c0.275,0.015,0.486,0.251,0.472,0.526c-0.015,0.276-0.242,0.506-0.526,0.472
						c-0.045-0.002-3.967-0.185-6.715,2.049C945.317,387.84,945.205,387.877,945.094,387.877z"/>
				</g>
				<g>
					<path style="fill:#000100;" d="M954.288,399.7c-1.053,0-2.216-0.166-2.781-0.808c-0.245-0.277-0.489-0.765-0.264-1.514
						c0.727-2.419,3.442-7.198,3.558-7.4c0.138-0.24,0.442-0.322,0.682-0.188c0.24,0.137,0.324,0.442,0.188,0.682
						c-0.027,0.049-2.775,4.884-3.47,7.193c-0.1,0.332-0.022,0.477,0.057,0.565c0.51,0.578,2.582,0.531,3.893,0.31
						c0.271-0.043,0.53,0.138,0.576,0.41c0.046,0.273-0.138,0.53-0.41,0.576C956.029,399.575,955.2,399.7,954.288,399.7z"/>
				</g>
				<g>
					<path style="fill:#000100;" d="M948.623,402.743c0,0,1.53,3.675,4.147,6.017c1.269,1.146,2.806,1.977,4.546,1.913
						c2.026-0.076,3.26-1.338,3.997-2.9c1.205-2.552,1.069-5.892,0.852-6.169c0,0-5.548,1.598-8.56,1.738
						C950.591,403.49,948.623,402.743,948.623,402.743z"/>
				</g>
				<g>
					<path style="fill:#000100;" d="M958.956,392.938c-0.277,0.827,0.169,1.723,0.996,2c0.827,0.277,1.723-0.169,2-0.996
						c0.277-0.827-0.169-1.723-0.996-2C960.128,391.664,959.233,392.11,958.956,392.938z"/>
				</g>
				<g>
					<path style="fill:#000100;" d="M947.685,390.828c-0.277,0.827,0.169,1.723,0.996,2c0.827,0.277,1.722-0.169,2-0.996
						c0.277-0.827-0.169-1.723-0.996-2C948.858,389.555,947.962,390.001,947.685,390.828z"/>
				</g>
				<g>
					<path style="fill:#EF3774;" d="M952.77,408.76c1.269,1.146,2.806,1.977,4.546,1.913c2.026-0.076,3.26-1.338,3.997-2.9
						c0,0-1.474-1.02-5.329-0.943C954.852,406.852,953.479,407.759,952.77,408.76z"/>
				</g>
			</g>
		</g>
		<g>
			<g>
				<g>
					<path style="fill:#1C3B6E;" d="M935.843,719.402c0,0,6.595-26.974,33.489-26.986c30.92-0.014,32.364,26.034,32.366,26.034
						c0.904,17.775,2.269,63.796,0.805,108.378c0,0-58.321-0.233-72.826-0.703C929.609,818.449,928.96,744.852,935.843,719.402z"/>
				</g>
			</g>
			<g>
				<g>
					<path style="fill:#1C3B6E;" d="M933.093,735.984c-0.128-14.437,7.119-147.252,12.542-189.857c0,0,50.157-0.079,55.988,0
						c0,0,2.54,158.503,0.444,180.632c-0.502,5.302-1.125,33.413-34.857,33.413C933.089,760.172,933.093,736.019,933.093,735.984z"
						/>
				</g>
			</g>
		</g>
		<g>
			<path style="fill:#FFB575;" d="M1036.735,646.943c0,0,27.368-34.422,42.072-51.784c0,0,21.429,20.058,38.92,35.637
				c0,0-24.259,31.282-33.437,45.742C1084.292,676.538,1055.037,657.935,1036.735,646.943z"/>
		</g>
		<g>
			<g>
				<path style="fill:#1C3B6E;" d="M966.284,544.333c12.358-1.828,58.233-8.612,58.233-8.612s9.308,31.775,20.927,85.969
					c4.685,21.853,14.694,66.428,16.363,81.851c0.002,0.014,4.277,20.203-13.213,29.405c-19.013,10.004-36.083-3.883-36.87-4.594
					c-10.216-8.81-21.254-33.194-29.269-59.227C968.392,623.448,966.284,544.333,966.284,544.333z"/>
			</g>
			<g>
				<path style="fill:#1C3B6E;" d="M1009.318,695.824c4.605-11.694,14.175-35.721,41.464-67.526c0,0,32.961,24.842,54.8,39.968
					c0,0-26.601,38.609-46.406,58.285c0,0-15.371,17.457-37.376,6.522C998.253,721.371,1009.302,695.866,1009.318,695.824z"/>
			</g>
			<g>
				<path style="fill:#000100;" d="M1047.674,632.004c0,0-6.927,8.885-14.742,19.348c0,0,6.637-14.831,12.511-29.663
					C1045.443,621.69,1046.902,628.446,1047.674,632.004z"/>
			</g>
			<g>
				<path style="fill:#000100;" d="M1024.289,734.816c0,0-18.842-5.681-35.217-46.651c-16.375-40.969-13.584-61.949-16.504-67.686
					c-2.92-5.736-15.744-9.09-15.744-9.09s12.112,8.01,12.541,15.647c0.43,7.637,6.373,38.398,14.257,64.466
					C991.505,717.573,1007.461,731.394,1024.289,734.816z"/>
			</g>
		</g>
		<g>
			<g>
				<path style="fill:#000100;" d="M1092.68,645.092c0,0-5.321,5.593,0.073,13.773c4.139,6.292,9.016,3.802,21.419,1.065
					c12.393-2.723,21.82,16.729,37.041,18.942c8.327,1.208,16.897-2.958,21.125-8.259c3.304-4.143,4.103-10.339,4.103-10.339
					c-13.327-13.046-84.03-80.354-84.03-80.354c-3.667,2.677-6.697,4.102-12.34,9.805c-11.367,11.486-16.574,23.881-16.574,23.881
					C1086.445,614.381,1092.68,645.092,1092.68,645.092z"/>
			</g>
		</g>
		<g>
			<path style="fill:#FFB575;" d="M984.118,430.692c0,0-15.401,1.47-32.931,3.413c0,0-4.31,4.601-8.723,20.217
				c-4.414,15.616-3.783,47.715-3.783,47.715s44.138-0.059,50.759,0c0,0,5.885-44.604,5.885-54.063
				C995.325,438.515,984.118,430.692,984.118,430.692z"/>
		</g>
		<g>
			<path style="fill:#F79D43;" d="M984.118,430.692c0,0-13.729,21.316-25.665,20.315c-12.379-1.039-7.266-16.902-7.266-16.902
				s-9.817,0.182-14.101,3.241c-8.891,6.349-10.955,22.004-1.134,69.46c7.757,37.483,8.484,50.33,8.484,50.33
				s36.474,5.202,87.924,1.449c0,0-4.188-50.489-5.951-72.028c-0.703-8.59-3.459-45.759-3.459-45.759
				S1008.109,429.762,984.118,430.692z"/>
		</g>
		<g>
			<g>
				<path style="fill:#000100;" d="M682.955,359.317c0,0-6.822,21.682,2.765,44.686c8.625,20.695,37.589,43.215,74.63,36.018
					c40.612-7.891,47.444-34.357,47.444-34.357s-28.555,23.077-61.443,24.158C713.463,430.904,691.364,395.128,682.955,359.317z"/>
			</g>
			<g>
				<path style="fill:#000100;" d="M955.917,494.873l-124.112-79.595l-12.579,18.589l122.601,83.95c0,0,7.005,4.911,14.735-6.529
					C964.198,499.99,955.917,494.873,955.917,494.873z"/>
			</g>
			<g>
				<polygon style="fill:#000100;" points="832.165,419.922 803.122,402.144 795.211,414.739 823.645,433.36 				"/>
			</g>
			<g>
				<path style="fill:#F8D484;" d="M817.758,410.701l-8.932,13.449c-0.482,0.725-0.281,1.704,0.446,2.181l4.652,3.053
					c0.722,0.474,1.691,0.276,2.169-0.443l9.047-13.606c0.494-0.743,0.27-1.748-0.492-2.211l-4.767-2.897
					C819.161,409.791,818.224,410,817.758,410.701z"/>
			</g>
			<g>
				<path style="fill:#F8D484;" d="M818.088,406.82l-12.698,19.15c-0.513,0.774-1.571,0.956-2.313,0.398l-2.827-2.124
					c-0.692-0.52-0.851-1.493-0.359-2.206l12.89-18.679c0.49-0.711,1.453-0.909,2.185-0.45l2.635,1.653
					C818.369,405.044,818.589,406.064,818.088,406.82z"/>
			</g>
			<g>
				<g>
					<path style="fill:#F8D484;" d="M684.568,385c9.852,36.641,47.537,58.355,84.173,48.505
						c36.641-9.852,58.356-47.537,48.504-84.178c-9.85-36.636-47.536-58.35-84.177-48.498
						C696.432,310.679,674.717,348.365,684.568,385z M695.417,382.083c-8.225-30.591,9.97-62.178,40.567-70.405
						c30.597-8.227,62.185,9.974,70.411,40.566c8.227,30.597-9.974,62.185-40.571,70.412
						C735.226,430.883,703.644,412.68,695.417,382.083z"/>
				</g>
			</g>
		</g>
		<g>
			<path style="fill:#FFB575;" d="M917.887,470.398c0,0-0.622-23.421-3.775-31.016c-1.208-2.909-22.332-2.734-29.515,1.221
				c-7.182,3.955,0.751,15.263,7.427,17.332c6.676,2.069,12.297,3.763,12.297,3.763L917.887,470.398z"/>
		</g>
		<g>
			<g>
				<path style="fill:#FFB575;" d="M831.953,474.88c0,0,0.812,8.277,6.316,10.793c0,0,1.059,10.18,8.91,13.129
					c0,0,4.188,9.843,13.495,11.741c0,0,5.601-4.139,13.556-11.468c0.106-4.818,6.637-17.861,17.276-17.731
					c0,0,2.862-10.579-4.532-13.22c0,0,0.798-9.544-8.943-11.44c0,0-0.094-8.325-7.933-10.518c0,0-4.969-7.485-10.701-8.604
					c-5.732-1.119-15.262,3.568-18.5,5.136c0,0-9.698,7.174-11.542,19.681C827.522,474.886,831.953,474.88,831.953,474.88z"/>
			</g>
			<g>
				<path style="fill:#000100;" d="M839.109,465.43c-0.07,0-0.142-0.015-0.209-0.046c-0.251-0.116-0.36-0.413-0.245-0.663
					c0.221-0.478,5.479-11.741,12.12-14.511c6.523-2.718,18.736-4.466,19.253-4.539c0.277-0.035,0.526,0.152,0.565,0.425
					c0.039,0.273-0.151,0.526-0.425,0.566c-0.126,0.017-12.604,1.804-19.009,4.473c-6.285,2.62-11.544,13.892-11.597,14.005
					C839.479,465.322,839.297,465.43,839.109,465.43z"/>
			</g>
			<g>
				<path style="fill:#000100;" d="M848.655,475.592c-0.054,0-0.107-0.009-0.161-0.026c-0.262-0.09-0.401-0.374-0.313-0.635
					c0.174-0.51,4.341-12.519,11.748-15.128c7.236-2.549,17.948-3.61,18.056-3.621c0.263-0.018,0.519,0.175,0.546,0.45
					c0.026,0.274-0.175,0.518-0.45,0.546c-0.105,0.01-10.698,1.059-17.819,3.568c-6.949,2.447-11.092,14.387-11.133,14.507
					C849.058,475.461,848.863,475.592,848.655,475.592z"/>
			</g>
			<g>
				<path style="fill:#000100;" d="M860.17,490.271c-0.063,0-0.128-0.012-0.19-0.038c-0.255-0.104-0.377-0.397-0.271-0.652
					c0.237-0.577,5.879-14.167,10.978-17.325c5.053-3.131,15.772-4.572,16.227-4.633c0.268-0.037,0.525,0.155,0.562,0.431
					c0.036,0.273-0.157,0.525-0.431,0.562c-0.109,0.014-10.961,1.473-15.83,4.49c-4.827,2.99-10.523,16.718-10.581,16.856
					C860.553,490.155,860.366,490.271,860.17,490.271z"/>
			</g>
			<g>
				<path style="fill:#000100;" d="M873.729,499.448l0.5-0.013l-0.5-0.011c-0.004-0.116-0.007-0.234,0.002-0.377
					c0.119-5.427,7.08-18.204,17.622-18.204c0.054,0,0.105,0,0.159,0.001c0.276,0.003,0.497,0.229,0.494,0.506
					c-0.003,0.274-0.227,0.494-0.5,0.494c-0.039,0.005-0.107-0.001-0.162-0.001c-10.478,0-16.519,12.923-16.614,17.243
					c-0.007,0.129-0.004,0.221-0.002,0.311L873.729,499.448z"/>
			</g>
		</g>
		<g>
			<path style="fill:#F79D43;" d="M1101.195,500.116c-4.549,7.076-34.057-0.983-57.036-8.613c-3.185-1.059-6.245-2.105-9.091-3.109
				c-4.175-1.461-7.907-2.825-10.918-3.947c-4.625-1.724-7.574-2.887-7.872-3.019c-14.726-6.48-22.744-17.821-16.651-37.013
				c1.267-3.988,3.642-10.524,9.098-10.302c7.138,0.284,16.028,1.973,25.492,4.639c22.993,6.474,49.393,18.721,62.457,30.692
				C1110.701,483.064,1109.601,488.741,1101.195,500.116z"/>
		</g>
		<g>
			<g>
				<path style="fill:#FFB575;" d="M1085.807,552.043c0,0-5.675,24.259-22.711,28.964c-17.037,4.706-30.766,1.308-30.766,1.308
					s-18.979,15.65-24.059,17.082c-5.08,1.432-13.547,1.498-12.774-8.518c0,0-14.702,2.759-12.275-10.959
					c0,0-7.876-0.261-6.592-12.417c0,0-8.704-5.368-3.612-13.455c5.092-8.087,13.309-13.89,42.869-22.742
					c0,0-20.612-21.788-9.626-26.502c10.986-4.714,22.318,12.336,31.862,23.112c0,0,11.188-4.652,28.595-0.874
					C1066.718,527.042,1074.518,535.584,1085.807,552.043z"/>
			</g>
			<g>
				<path style="fill:#000100;" d="M995.496,591.379c-0.13,0-0.26-0.051-0.358-0.151c-0.192-0.197-0.188-0.514,0.01-0.707
					c0.081-0.079,8.389-8.07,26.047-16.35c0.248-0.117,0.547-0.01,0.665,0.241c0.117,0.25,0.009,0.548-0.241,0.665
					c-17.488,8.199-25.692,16.081-25.773,16.16C995.748,591.332,995.622,591.379,995.496,591.379z"/>
			</g>
			<g>
				<path style="fill:#000100;" d="M983.221,580.42c-0.148,0-0.296-0.066-0.395-0.193c-0.17-0.218-0.13-0.532,0.088-0.701
					c0.091-0.071,9.346-7.184,28.511-14.92c0.255-0.104,0.547,0.021,0.651,0.276c0.104,0.257-0.021,0.548-0.276,0.651
					c-19.021,7.678-28.182,14.711-28.272,14.781C983.437,580.386,983.328,580.42,983.221,580.42z"/>
			</g>
			<g>
				<path style="fill:#000100;" d="M976.629,568.003c-0.143,0-0.284-0.061-0.383-0.178c-0.178-0.212-0.15-0.527,0.061-0.705
					c0.115-0.096,11.68-9.719,32.318-18.121c0.254-0.107,0.547,0.018,0.651,0.274c0.104,0.256-0.018,0.548-0.274,0.651
					c-20.494,8.344-31.938,17.865-32.051,17.961C976.858,567.965,976.743,568.003,976.629,568.003z"/>
			</g>
		</g>
		<g>
			<path style="fill:#F79D43;" d="M1095.647,472.903c-9.313-4.896-15.107-1.994-21.276,3.721
				c-10.514,9.798-22.973,28.615-29.192,46.086c14.193,21.467,21.686,29.334,36.961,49.786
				c7.405-12.549,19.163-38.509,26.033-63.223C1113.404,492.436,1109.321,480.091,1095.647,472.903z"/>
		</g>
		<g>
			<path style="fill:#000100;" d="M1028.575,512.869c0.007,0.415-12.72-33.649-12.72-33.649l-13.457-15.406l33.63,20.547
				l22.608,11.695c-3.185-1.059-20.052-6.065-32.345-10.945c0.131,2.638,1.589,19.352,1.589,19.359
				C1027.992,506.874,1028.575,512.869,1028.575,512.869z"/>
		</g>
		<g>
			<path style="fill:#000100;" d="M954.722,374.477c0,0-1.588,8.444-12.182,11.292c-8.384,2.254-12.849-5.186-12.153-10.728
				c1.469-11.702,10.061-13.805,28.247-19.431c18.186-5.625,34.357,5.552,36.109,19.436c1.46,11.568-7.731,18.394-7.731,18.394
				S969.505,395.471,954.722,374.477z"/>
		</g>
		<g>
			<g>
				<path style="fill:#FFB575;" d="M976.438,392.322c0,0,3.807-5.594,8.958-2.059c5.151,3.535,4.056,9.503,1.56,13.027
					c-2.497,3.524-8.07,2.233-10.015-0.311C974.995,400.436,974.064,396.34,976.438,392.322z"/>
			</g>
			<g>
				<path style="fill:#000100;" d="M983.901,402.053c-1.839,0-3.159-0.446-4.019-1.355c-0.911-0.963-1.242-2.436-0.982-4.377
					c0.497-3.718,5.001-4.295,5.193-4.317c0.256-0.04,0.523,0.162,0.555,0.437c0.033,0.273-0.162,0.522-0.437,0.556
					c-0.039,0.005-3.927,0.512-4.321,3.458c-0.221,1.65,0.014,2.814,0.718,3.557c0.782,0.827,2.215,1.162,4.251,1.003
					c0.267-0.044,0.516,0.184,0.537,0.459c0.023,0.275-0.184,0.516-0.459,0.537C984.575,402.039,984.231,402.053,983.901,402.053z"
					/>
			</g>
			<g>
				<path style="fill:#000100;" d="M979.442,399.27c-0.017,0-0.033-0.001-0.051-0.003c-0.274-0.027-0.475-0.271-0.447-0.547
					c0.202-2.038,1.438-3.322,3.572-3.714c1.805-0.326,4.506,1.768,4.809,2.009c0.217,0.172,0.253,0.486,0.081,0.702
					c-0.172,0.219-0.487,0.253-0.702,0.081c-0.725-0.574-2.854-2.027-4.008-1.808c-1.697,0.311-2.599,1.236-2.758,2.829
					C979.912,399.078,979.695,399.27,979.442,399.27z"/>
			</g>
		</g>
		<g>
			<path style="fill:#FFE06C;" d="M987.67,415.031c-1.915,0-3.698-0.92-5.051-2.166c-2.765-2.546-4.294-7.045-1.945-9.873
				c0.177-0.212,0.494-0.239,0.704-0.065c0.213,0.177,0.242,0.492,0.065,0.704c-1.975,2.377-0.575,6.262,1.854,8.499
				c2.116,1.95,5.45,2.979,8.458,0.032c1.296-1.27,1.879-2.661,1.733-4.137c-0.374-3.79-5.315-7.058-5.365-7.09
				c-0.231-0.151-0.296-0.461-0.146-0.692c0.15-0.23,0.457-0.297,0.692-0.146c0.22,0.143,5.391,3.56,5.813,7.827
				c0.178,1.793-0.505,3.459-2.029,4.952C990.879,414.42,989.231,415.031,987.67,415.031z"/>
		</g>
	</g>
	<g>
		<g>
			<g>
				<g>
					<path style="fill:#000100;" d="M931.833,276.066h-78.399c-0.276,0-0.5-0.224-0.5-0.5c0-0.276,0.224-0.5,0.5-0.5h78.175
						l44.83-50.325c0.183-0.206,0.498-0.225,0.706-0.04c0.206,0.184,0.224,0.499,0.04,0.706l-44.979,50.492
						C932.112,276.006,931.976,276.066,931.833,276.066z"/>
				</g>
				<g>
					<circle style="fill:#000100;" cx="850.473" cy="275.566" r="6.56"/>
				</g>
			</g>
			<g>
				<g>
					<g>
						<circle style="fill:#FFFFFF;" cx="1028.346" cy="182.544" r="87.774"/>
					</g>
					<g>
						<path style="fill:#000100;" d="M1028.346,270.818c-48.675,0-88.275-39.6-88.275-88.274c0-48.674,39.6-88.273,88.275-88.273
							c48.674,0,88.273,39.6,88.273,88.273C1116.619,231.219,1077.02,270.818,1028.346,270.818z M1028.346,95.27
							c-48.123,0-87.275,39.15-87.275,87.273c0,48.123,39.151,87.274,87.275,87.274c48.123,0,87.273-39.151,87.273-87.274
							C1115.619,134.421,1076.469,95.27,1028.346,95.27z"/>
					</g>
					<g>
						<path style="fill:#000100;" d="M1096.685,173.702c-0.248,0-0.464-0.185-0.495-0.438c-1.295-10.362-4.736-37.887-38.199-54.183
							c-31.878-15.523-65.597,4.219-65.933,4.42c-0.241,0.142-0.546,0.063-0.686-0.173c-0.143-0.237-0.064-0.544,0.172-0.686
							c0.342-0.204,34.518-20.224,66.884-4.46c33.95,16.532,37.565,45.453,38.754,54.956c0.034,0.274-0.16,0.524-0.434,0.559
							C1096.727,173.701,1096.706,173.702,1096.685,173.702z"/>
					</g>
					<g>
						<path style="fill:#000100;" d="M1032.08,253.615c-0.257,0-0.476-0.198-0.497-0.459c-0.023-0.275,0.182-0.517,0.457-0.539
							c0.27-0.022,27.162-2.423,44.306-20.473c19.821-20.87,21.124-48.328,21.135-48.603c0.011-0.275,0.195-0.492,0.52-0.48
							c0.276,0.012,0.491,0.244,0.48,0.52c-0.012,0.279-1.332,28.112-21.41,49.253c-17.411,18.331-44.675,20.757-44.948,20.779
							C1032.109,253.614,1032.094,253.615,1032.08,253.615z"/>
					</g>
					<g>
						<path style="fill:#000100;" d="M1032.081,253.615c-17.896,0-32.461-2.819-49.752-16.853
							c-23.727-19.259-24.001-47.126-24.001-47.405c0-0.276,0.224-0.5,0.5-0.5c0.276,0,0.5,0.224,0.5,0.5
							c0,0.275,0.285,27.679,23.632,46.628c17.136,13.909,30.986,16.63,49.121,16.63c0.276,0,0.5,0.224,0.5,0.5
							C1032.581,253.391,1032.358,253.615,1032.081,253.615z"/>
					</g>
					<g>
						<path style="fill:#000100;" d="M958.829,174.535c-0.021,0-0.041-0.001-0.061-0.004c-0.274-0.033-0.47-0.282-0.436-0.556
							c3.964-32.823,28.423-48.626,28.67-48.782c0.232-0.146,0.542-0.076,0.69,0.155c0.147,0.233,0.078,0.543-0.155,0.69
							c-0.243,0.153-24.307,15.72-28.212,48.056C959.294,174.348,959.078,174.535,958.829,174.535z"/>
					</g>
				</g>
			</g>
		</g>
		<g>
			<g>
				<g>
					<rect x="1056.369" y="140.885" style="fill:#FFFFFF;" width="12.879" height="5.204"/>
				</g>
				<g>
					<path style="fill:#000100;" d="M1069.247,146.589h-12.879c-0.276,0-0.5-0.224-0.5-0.5v-5.204c0-0.276,0.224-0.5,0.5-0.5h12.879
						c0.276,0,0.5,0.224,0.5,0.5v5.204C1069.747,146.365,1069.524,146.589,1069.247,146.589z M1056.868,145.589h11.879v-4.204
						h-11.879V145.589z"/>
				</g>
				<g>
					<path style="fill:#FFFFFF;" d="M1078.824,194.865v15.726c-0.947,2.565-3.512,3.726-3.512,3.726h-4.916
						c-1.893-1.222-2.382-3.542-2.382-3.542c-0.672,1.924-2.229,3.542-2.229,3.542h-5.436c-1.313-1.008-2.138-3.39-2.138-3.39
						c-0.519,2.382-2.015,3.39-2.015,3.39h-5.649c-3.054-2.229-3.542-4.489-3.542-4.489v-14.474l1.771-2.199v-9.619l-1.099-2.626
						v-23.971c2.351-7.115,8.703-13.039,8.703-13.039h12.856c7.695,7.298,9.192,13.039,9.192,13.039l0.031,3.268l0.153,18.902v1.527
						l-1.588,2.657v10.077L1078.824,194.865z"/>
				</g>
				<g>
					<path style="fill:#F79D43;" d="M1054.945,142.143h16.327v-5.782c0,0-0.136-1.428-2.024-1.905h-12.262
						c0,0-1.979,0.102-2.041,1.511V142.143z"/>
				</g>
				<g>
					<polygon style="fill:#F79D43;" points="1078.61,179.108 1047.677,179.108 1047.677,160.206 1078.458,160.206 					"/>
				</g>
				<g>
					<path style="fill:#000100;" d="M1075.313,214.816h-4.917c-0.096,0-0.191-0.027-0.272-0.08c-1.12-0.723-1.787-1.781-2.164-2.608
						c-0.761,1.432-1.762,2.48-1.814,2.535c-0.095,0.098-0.225,0.153-0.36,0.153h-5.435c-0.11,0-0.217-0.036-0.305-0.103
						c-0.766-0.588-1.367-1.57-1.764-2.364c-0.697,1.619-1.751,2.346-1.806,2.383c-0.082,0.056-0.18,0.085-0.279,0.085h-5.649
						c-0.105,0-0.209-0.033-0.295-0.096c-3.171-2.314-3.714-4.688-3.735-4.787c-0.008-0.034-0.012-0.07-0.012-0.105v-14.475
						c0-0.114,0.039-0.225,0.11-0.313l1.661-2.062v-9.342l-1.061-2.533c-0.025-0.062-0.039-0.127-0.039-0.193v-23.972
						c0-0.054,0.009-0.106,0.025-0.157c2.364-7.154,8.573-13.002,8.837-13.247c0.093-0.087,0.214-0.135,0.341-0.135h12.855
						c0.128,0,0.251,0.049,0.344,0.137c7.711,7.313,9.268,13.036,9.331,13.276c0.011,0.039,0.017,0.08,0.017,0.121l0.184,23.701
						c0,0.091-0.024,0.179-0.071,0.257l-1.517,2.537v9.706l1.621,1.346c0.114,0.095,0.181,0.236,0.181,0.385v15.726
						c0,0.059-0.011,0.117-0.031,0.173c-1.007,2.73-3.662,3.957-3.774,4.009C1075.454,214.801,1075.384,214.816,1075.313,214.816z
						 M1070.548,213.816h4.648c0.438-0.225,2.345-1.301,3.128-3.317v-15.4l-1.621-1.346c-0.114-0.095-0.181-0.236-0.181-0.385
						v-10.078c0-0.091,0.024-0.179,0.071-0.257l1.517-2.537v-1.389l-0.183-22.098c-0.178-0.595-1.925-5.953-8.893-12.611h-12.454
						c-0.935,0.911-6.295,6.325-8.404,12.62v23.79l1.061,2.533c0.025,0.061,0.039,0.127,0.039,0.193v9.619
						c0,0.114-0.039,0.225-0.11,0.313l-1.661,2.062v14.234c0.086,0.303,0.701,2.176,3.207,4.052h5.313
						c0.328-0.274,1.311-1.222,1.698-2.996c0.048-0.219,0.235-0.379,0.458-0.393c0.227-0.018,0.43,0.123,0.503,0.335
						c0.007,0.021,0.736,2.095,1.843,3.054h5.037c0.385-0.435,1.466-1.74,1.979-3.207c0.073-0.211,0.243-0.354,0.503-0.333
						c0.224,0.014,0.411,0.175,0.458,0.395C1068.508,210.691,1068.957,212.708,1070.548,213.816z"/>
				</g>
			</g>
			<g>
				<g>
					<path style="fill:#000100;" d="M1028.839,146.931h-18.462c-5.248,0-5.904,5.623-5.904,5.623v8.153h4.826v-8.399l20.383,0.001
						v8.398h4.827v-8.153C1034.274,148.055,1028.839,146.931,1028.839,146.931z"/>
				</g>
				<g>
					<g>
						<path style="fill:#37B6A1;" d="M1062.671,163.05v47.234c0,0-0.281,4.03-6.279,4.498H980.34c0,0-4.639-0.375-6.045-5.529
							V163.05c0,0,0.633-4.1,7.169-4.03l74.365-0.001C1055.829,159.019,1062.671,158.645,1062.671,163.05z"/>
					</g>
				</g>
				<g>
					<path style="fill:#000100;" d="M989.29,159.02v54.038c0,0.952,0.808,1.724,1.804,1.724h1.921c0.996,0,1.804-0.772,1.804-1.724
						l0.014-54.046h5.157C994.882,152.135,989.29,159.02,989.29,159.02z"/>
				</g>
				<g>
					<path style="fill:#000100;" d="M1045.887,159.02v54.038c0,0.952-0.808,1.724-1.804,1.724h-1.921
						c-0.996,0-1.804-0.772-1.804-1.724l-0.004-54.038l-3.634-0.008C1042.13,151.964,1045.887,159.02,1045.887,159.02z"/>
				</g>
				<g>
					<rect x="1014.64" y="173.008" style="fill:#FFFFFF;" width="9.243" height="25.233"/>
				</g>
				<g>
					<rect x="1006.645" y="181.003" style="fill:#FFFFFF;" width="25.233" height="9.243"/>
				</g>
				<g>
					<rect x="974.295" y="181.003" style="fill:#000100;" width="18.603" height="1.868"/>
				</g>
				<g>
					<rect x="1044.068" y="181.003" style="fill:#000100;" width="18.603" height="1.868"/>
				</g>
			</g>
		</g>
	</g>
	<g>
		<g>
			<g>
				<g>
					<path style="fill:#000100;" d="M450.745,436.261h-78.399c-0.143,0-0.278-0.061-0.373-0.167L326.994,385.6
						c-0.184-0.207-0.166-0.522,0.04-0.706c0.206-0.185,0.521-0.166,0.706,0.04l44.83,50.326h78.175c0.276,0,0.5,0.224,0.5,0.5
						C451.245,436.037,451.022,436.261,450.745,436.261z"/>
				</g>
				<g>
					<path style="fill:#000100;" d="M447.147,435.76c0,3.623,2.937,6.56,6.56,6.56c3.623,0,6.56-2.937,6.56-6.56
						c0-3.623-2.937-6.56-6.56-6.56C450.084,429.2,447.147,432.137,447.147,435.76z"/>
				</g>
			</g>
			<g>
				<g>
					<g>
						
							<ellipse transform="matrix(0.7071 -0.7071 0.7071 0.7071 -161.5623 295.4296)" style="fill:#FFFFFF;" cx="275.834" cy="342.738" rx="87.774" ry="87.774"/>
					</g>
					<g>
						<path style="fill:#000100;" d="M275.834,431.012c-48.675,0-88.274-39.6-88.274-88.273c0-48.675,39.6-88.274,88.274-88.274
							c48.674,0,88.273,39.6,88.273,88.274C364.108,391.412,324.508,431.012,275.834,431.012z M275.834,255.464
							c-48.123,0-87.274,39.151-87.274,87.274c0,48.123,39.151,87.273,87.274,87.273c48.123,0,87.273-39.15,87.273-87.273
							C363.108,294.615,323.957,255.464,275.834,255.464z"/>
					</g>
					<g>
						<path style="fill:#000100;" d="M207.494,333.896c-0.021,0-0.042-0.001-0.063-0.004c-0.273-0.034-0.468-0.284-0.434-0.559
							c1.188-9.503,4.803-38.424,38.754-54.957c32.37-15.764,66.543,4.257,66.884,4.461c0.236,0.142,0.315,0.448,0.172,0.686
							c-0.14,0.235-0.444,0.314-0.686,0.173c-0.335-0.2-34.056-19.941-65.933-4.421c-33.463,16.297-36.904,43.821-38.199,54.184
							C207.958,333.712,207.742,333.896,207.494,333.896z"/>
					</g>
					<g>
						<path style="fill:#000100;" d="M272.1,413.808c-0.014,0-0.028-0.001-0.042-0.002c-0.273-0.022-27.538-2.447-44.948-20.779
							c-20.078-21.141-21.399-48.974-21.411-49.253c-0.011-0.275,0.204-0.508,0.48-0.52c0.322-0.013,0.509,0.205,0.52,0.48
							c0.011,0.274,1.324,27.744,21.136,48.603c17.143,18.051,44.036,20.45,44.306,20.473c0.275,0.022,0.479,0.264,0.457,0.539
							C272.575,413.61,272.357,413.808,272.1,413.808z"/>
					</g>
					<g>
						<path style="fill:#000100;" d="M272.099,413.808c-0.276,0-0.5-0.224-0.5-0.5c0-0.276,0.224-0.5,0.5-0.5
							c18.135,0,31.986-2.721,49.121-16.63c23.347-18.948,23.632-46.353,23.632-46.628c0-0.276,0.224-0.5,0.5-0.5l0,0
							c0.276,0,0.5,0.224,0.5,0.5c0,0.279-0.274,28.147-24.001,47.405C304.561,410.989,289.995,413.808,272.099,413.808z"/>
					</g>
					<g>
						<path style="fill:#000100;" d="M345.351,334.728c-0.249,0-0.465-0.186-0.495-0.44c-3.906-32.335-27.97-47.902-28.213-48.056
							c-0.233-0.147-0.303-0.457-0.155-0.69c0.149-0.232,0.459-0.302,0.689-0.155c0.247,0.156,24.706,15.96,28.671,48.782
							c0.033,0.273-0.162,0.522-0.437,0.556C345.392,334.727,345.371,334.728,345.351,334.728z"/>
					</g>
				</g>
			</g>
		</g>
		<g>
			<g>
				<g>
					<path style="fill:#F79D43;" d="M306.462,339.945c0,20.593-16.709,37.302-37.302,37.302c-1.632,0-3.231-0.098-4.798-0.326
						c-15.73-2.023-28.393-13.87-31.623-29.176h-0.033c-0.522-2.513-0.816-5.124-0.816-7.8c0-20.593,16.677-37.27,37.27-37.27
						c1.175,0,2.317,0.065,3.459,0.163c15.6,1.436,28.426,12.434,32.472,27.12C306.005,333.125,306.462,336.486,306.462,339.945z"/>
				</g>
			</g>
			<g>
				<g>
					
						<ellipse transform="matrix(0.2298 -0.9732 0.9732 0.2298 -123.5309 523.8171)" style="fill:#1C3B6E;" cx="269.17" cy="339.953" rx="16.788" ry="16.788"/>
				</g>
			</g>
			<g>
				
					<ellipse transform="matrix(0.2298 -0.9732 0.9732 0.2298 -123.5309 523.8171)" style="fill:#FFFFFF;" cx="269.17" cy="339.953" rx="14.839" ry="14.839"/>
			</g>
			<g>
				<g>
					<path style="fill:#1C3B6E;" d="M305.092,329.959l-20.854,6.005c0,0-0.228-3.086-3.273-6.685
						c-4.171-4.93-8.345-5.064-8.345-5.064v-21.376C288.219,304.275,301.045,315.273,305.092,329.959z"/>
				</g>
			</g>
			<g>
				<g>
					<path style="fill:#1C3B6E;" d="M264.362,354.794v22.127c-15.73-2.023-28.393-13.87-31.623-29.176l20.364-5.646
						c0,0,0.065,4.83,5.287,9.464C261.164,353.978,264.362,354.794,264.362,354.794z"/>
				</g>
			</g>
			<g>
				<g>
					<path style="fill:#FFFFFF;" d="M237.89,328.341c0,0,1.939-9.254,12.953-16.561c11.015-7.307,20.488-6.166,29.685-3.039
						c0,0,0.688,0.325,1.071-0.715c0.383-1.04-0.046-1.578-0.748-1.952c-0.67-0.357-17.093-7.366-32.3,3.394
						c0,0-10.014,6.416-13.317,17.57c0,0-0.78,2.311,0.693,2.784C237.715,330.396,237.89,328.341,237.89,328.341z"/>
				</g>
			</g>
			<g>
				<g>
					<path style="fill:#FFFFFF;" d="M289.221,344.427c0,0-1.447,8.299-8.475,12.806c-7.028,4.508-16.673,3.393-16.673,3.393
						s-1.747,0.001-1.503-2.658c0.227-2.476,1.793-1.926,1.793-1.926s6.254,1.967,12.409-1.522c6.155-3.49,7.765-6.605,8.389-10.451
						c0,0-0.041-2.153,2.26-1.976C289.573,342.257,289.221,344.427,289.221,344.427z"/>
				</g>
			</g>
			<g>
				<g>
					<path style="fill:#1C3B6E;" d="M273.55,295.034l-0.002,6.268c0,0,0.091,0.976-0.929,0.976h-6.512c0,0-1.938-1.244-1.865-2.734
						l-0.002-2.621c0,0-0.067-2.746,2.049-2.764h6.113C272.402,294.158,273.55,294.158,273.55,295.034z"/>
				</g>
			</g>
			<g>
				<g>
					<path style="fill:#1C3B6E;" d="M232.859,321.948c0,0,5.331-10.081,12.699-15.122c7.367-5.041,13.305-6.81,23.612-7.222
						c0,0,11.103-0.606,21.706,6.349c10.813,7.093,13.28,15.995,13.28,15.995l1.745-0.824c0,0-2.86-9.839-15.365-18.285
						c-12.271-8.288-29.672-5.804-38.154-2.411c-8.482,3.393-15.44,9.912-21.183,20.054L232.859,321.948z"/>
				</g>
			</g>
			<g>
				<g>
					<path style="fill:#1C3B6E;" d="M302.41,324.033c0,0,0.983-0.57,3.055-1.625c2.072-1.054,3.083-1.872,2.562-2.833
						c-0.565-1.043-2.513-0.002-3.725,0.797c-1.171,0.772-3.233,1.694-3.415,2.305C300.669,323.411,301.437,324.557,302.41,324.033z
						"/>
				</g>
			</g>
			<g>
				<g>
					<path style="fill:#1C3B6E;" d="M234.507,324.104c0,0-0.975-0.585-3.031-1.67c-2.056-1.085-3.054-1.918-2.52-2.871
						c0.581-1.035,2.512,0.035,3.713,0.853c1.16,0.79,3.208,1.742,3.38,2.356C236.257,323.508,235.472,324.643,234.507,324.104z"/>
				</g>
			</g>
		</g>
		<g>
			<g>
				<path style="fill:#FF6C62;" d="M264.648,380.353l4.176,8.124l20.781,4.876c7.928-6.333,18.811-14.847,18.811-14.847
					c5.893,2.027,11.021-0.48,15.572-6.87c3.321-4.664,4.957-10.614,4.567-16.255c-0.147-2.084-0.562-4.119-1.278-6.032
					c-1.848-4.933-6.202-7.179-8.685-8.091c0,0-0.008,0-0.016-0.008c-1.083-0.399-1.807-0.537-1.807-0.537l-3.435-0.879
					l-16.223-4.159c0,0-3.915-0.944-7.904,2.393c-0.065,0.057-0.138,0.114-0.204,0.179h-0.008c-0.505,0.431-0.969,0.887-1.392,1.343
					c-2.865,3.044-4.168,6.349-4.168,6.349L264.648,380.353z"/>
			</g>
			<g>
				<polygon style="fill:#E84646;" points="264.648,380.353 268.824,388.477 289.605,393.353 285.397,385.465 				"/>
			</g>
			<g>
				<path style="fill:#F05553;" d="M285.397,385.465l4.208,7.888c7.928-6.333,18.811-14.847,18.811-14.847
					c5.893,2.027,11.021-0.48,15.572-6.87c3.321-4.664,4.957-10.614,4.567-16.255c-0.147-2.084-0.562-4.119-1.278-6.032
					c-1.848-4.933-6.202-7.179-8.685-8.091c0,0-0.008,0-0.016-0.008c-0.326-0.081-5.967-1.555-9.629,2.198c0,0-1.066,0.7-2.556,2.89
					c-0.008,0.016-0.016,0.024-0.016,0.024c-0.822,1.213-1.766,2.873-2.743,5.112L285.397,385.465z"/>
			</g>
			<g>
				<polygon style="fill:#F05553;" points="283.46,351.041 282.437,347.767 283.435,345.938 303.63,351.473 301.401,355.63 				"/>
			</g>
			<g>
				<path style="fill:#FFFFFF;" d="M287.603,339.589l20.301,5.568l1.172-1.254l-20.073-5.657h-0.008
					C288.49,338.677,288.026,339.133,287.603,339.589z"/>
			</g>
			<g>
				<path style="fill:#FFFFFF;" d="M306.39,346.337c0.317-0.318,5.063-5.03,11.697-4.143c6.829,0.912,9.654,9.63,10.468,13.187
					c-0.147-2.084-0.562-4.119-1.278-6.032c-1.848-4.933-6.202-7.179-8.685-8.091c0,0-0.008,0-0.016-0.008
					c-1.083-0.399-1.807-0.537-1.807-0.537l-3.435-0.879C310.346,341.51,307.79,343.952,306.39,346.337z"/>
			</g>
			<g>
				<path style="fill:#FFFFFF;" d="M315.087,352.587c0,0,3.331-0.157,4.908,4.431c1.578,4.588-1.85,10.137-4.66,10.953
					c-2.811,0.816-6.25-0.497-6.869-4.596c-0.822-5.446,2.535-8.974,2.535-8.974s-2.611,1.958-2.926,6.987
					c-0.314,5.029,3.252,8.879,7.912,6.852c4.66-2.028,5.476-6.543,5.458-9.154C321.428,356.473,319.663,351.493,315.087,352.587z"
					/>
			</g>
			<g>
				<g>
					<path style="fill:#1C3B6E;" d="M274.131,377.952c0.627,0.529,1.628,0.806,2.645,0.806c1.644-0.008,3.321-0.749,3.435-2.32
						c0.13-1.84-1.335-2.328-2.141-2.45c-0.008-0.008-0.008-0.008-0.008-0.008c-0.309-0.041-0.521-0.041-0.521-0.041
						C274.018,373.898,272.487,376.544,274.131,377.952z"/>
				</g>
				<g>
					<path style="fill:#FFFFFF;" d="M276.777,378.758c1.644-0.008,3.321-0.749,3.435-2.32c0.13-1.84-1.335-2.328-2.141-2.45
						c0.13,0.09,1.318,0.92,1.001,2.361C278.706,378.016,277.493,378.489,276.777,378.758z"/>
				</g>
			</g>
			<g>
				<g>
					<polygon style="fill:#000100;" points="276.931,361.387 279.431,362.03 294.725,365.978 298.828,358.717 300.676,355.437 
						283.46,351.041 					"/>
				</g>
				<g>
					<polygon style="fill:#1C3B6E;" points="276.931,361.387 279.431,362.03 284.603,354.853 298.828,358.717 300.676,355.437 
						283.46,351.041 					"/>
				</g>
			</g>
			<g>
				<polygon style="fill:#FFFFFF;" points="294.725,365.978 294.318,366.779 276.552,361.906 276.931,361.387 				"/>
			</g>
		</g>
	</g>
	<g>
		<g>
			<g>
				<path style="fill:#1C3B6E;" d="M500.362,806.875V879.6h-142.58v-72.724c0-7.029,10.902-6.311,10.902-6.311h123.072
					C499.215,800.564,500.362,806.875,500.362,806.875z"/>
			</g>
		</g>
		<g>
			<g>
				<path style="fill:#FF6C62;" d="M495.198,756.815v54.077H362.946v-54.077c0,0,0.143-1.004,0.43-2.725
					c0.287-2.008,0.861-5.02,1.865-8.606c4.877-18.791,19.938-54.077,63.831-53.36c44.036-0.717,59.097,34.57,63.975,53.36
					c0.861,3.586,1.434,6.598,1.721,8.606C495.054,755.81,495.198,756.815,495.198,756.815z"/>
			</g>
		</g>
		<g>
			<g>
				<path style="fill:#FFFFFF;" d="M386.596,744.335h-8.628c0,0-1.438-11.504,7.829-22.688
					c9.267-11.184,25.062-21.705,28.759-15.818c3.757,5.982-8.062,6.023-17.996,16.97
					C386.453,733.936,386.596,744.335,386.596,744.335z"/>
			</g>
		</g>
		<g>
			<g>
				<path style="fill:#13315E;" d="M500.362,806.875v16.926h-142.58v-16.926c0-7.029,10.902-6.311,10.902-6.311h123.072
					C499.215,800.564,500.362,806.875,500.362,806.875z"/>
			</g>
		</g>
		<g>
			<g>
				<path style="fill:#FF6C62;" d="M481.449,695.689c0,0,11.25,5.185,19.829,15.743c8.579,10.558,8.484,20.834,8.484,20.834
					s-0.471,2.687,2.922,2.875c3.394,0.189,3.441-3.912,3.347-5.373s-2.215-12.585-10.04-22.39
					c-7.69-9.636-17.223-16.142-22.314-16.645c0,0-2.01-0.456-2.904,1.969C480.006,694.791,481.449,695.689,481.449,695.689z"/>
			</g>
		</g>
		<g>
			<g>
				<path style="fill:#FF6C62;" d="M524.626,728.936c0,0-1.006-15.429-13.355-28.91c-12.35-13.481-24.888-18.194-24.888-18.194
					s-4.007-1.414-2.687-4.808s5.185-1.555,5.185-1.555s18.818,7.546,29.376,22.158c10.558,14.612,11.71,23.517,12.59,30.556
					c0,0,0.465,2.923-3.174,3.001C524.475,731.252,524.626,728.936,524.626,728.936z"/>
			</g>
		</g>
		<g>
			<g>
				<path style="fill:#FF6C62;" d="M378.802,696.215c0,0-13.638,5.531-21.054,17.032c-7.416,11.501-7.102,18.54-7.102,18.54
					s0.393,3.645-3.661,3.362c-4.054-0.283-3.205-5.232-2.404-8.343c0.801-3.111,3.488-13.057,11.658-22.358
					c8.966-10.208,19.546-13.638,19.546-13.638s2.437-0.892,3.599,2.066C380.426,695.526,378.802,696.215,378.802,696.215z"/>
			</g>
		</g>
		<g>
			<g>
				<path style="fill:#FF6C62;" d="M375.635,680.691c0,0-17.195,5.907-28.414,20.802c-11.218,14.895-10.59,22.688-11.596,26.962
					c-1.006,4.274-6.222,3.708-6.348-1.948c-0.126-5.656,3.991-17.378,12.57-29.161c8.579-11.784,22.625-19.326,30.309-22.06
					c0,0,3.379-1.543,4.508,2.034C377.504,679.981,375.635,680.691,375.635,680.691z"/>
			</g>
		</g>
	</g>
	<g>
		<g>
			<g>
				<path style="fill:#000100;" d="M1106.456,879.668H289.862c-0.276,0-0.5-0.224-0.5-0.5c0-0.276,0.224-0.5,0.5-0.5h816.594
					c0.276,0,0.5,0.224,0.5,0.5C1106.956,879.444,1106.733,879.668,1106.456,879.668z"/>
			</g>
		</g>
		<g>
			<g>
				<path style="fill:#000100;" d="M745.626,911.97H603.518c-0.276,0-0.5-0.224-0.5-0.5c0-0.276,0.224-0.5,0.5-0.5h142.108
					c0.276,0,0.5,0.224,0.5,0.5C746.126,911.746,745.903,911.97,745.626,911.97z"/>
			</g>
		</g>
		<g>
			<g>
				<path style="fill:#000100;" d="M847.922,911.97h-76.915c-0.276,0-0.5-0.224-0.5-0.5c0-0.276,0.224-0.5,0.5-0.5h76.915
					c0.276,0,0.5,0.224,0.5,0.5C848.422,911.746,848.198,911.97,847.922,911.97z"/>
			</g>
		</g>
	</g>
</g>
</svg>
