<?xml version="1.0" encoding="utf-8"?>
<!-- Generator: Adobe Illustrator 27.5.0, SVG Export Plug-In . SVG Version: 6.00 Build 0)  -->
<svg version="1.1" id="Data_protection_concept" xmlns="http://www.w3.org/2000/svg" xmlns:xlink="http://www.w3.org/1999/xlink"
	 x="0px" y="0px" viewBox="0 0 4809 3465.328" style="enable-background:new 0 0 4809 3465.328;" xml:space="preserve">
<rect id="background" style="fill:#FFFFFF;" width="4809" height="3465.328"/>
<path id="phone" style="fill:#D1DDFF;" d="M4262.595,1557.415c-96.33-389.076-327.27-810.003-795.642-983.836
	c-333.413-123.744-552.474,22.957-792.917-9.212c-262.009-35.055-471.486-166.432-735.944-180.669
	C496.435,306.084,138.658,2470.789,1270.67,3144.689c26.513,15.784,53.612,30.817,81.227,45.138h2058.142
	C4025.699,2894.654,4409.018,2148.82,4262.595,1557.415z"/>
<g id="screen">
	<g>
		<path style="fill:#1C1E33;" d="M2894.671,3199.245H1628.183c-4.091,0-7.408-3.317-7.408-7.408V759.736
			c0-4.091,3.317-7.408,7.408-7.408h1266.489c4.091,0,7.408,3.317,7.408,7.408v2432.101
			C2902.079,3195.928,2898.763,3199.245,2894.671,3199.245z"/>
		<path style="fill:#FFFFFF;" d="M2854.546,3004.238H1668.309c-2.551,0-4.619-2.068-4.619-4.619V926.519
			c0-2.551,2.068-4.619,4.619-4.619h1186.237c2.551,0,4.619,2.068,4.619,4.619v2073.099
			C2859.165,3002.17,2857.097,3004.238,2854.546,3004.238z"/>
	</g>
	<g>
		<rect x="1721.885" y="1135.604" style="fill:#E3E3E3;" width="510.385" height="270.173"/>
		<polygon style="fill:#FEB101;" points="1904.091,1116.698 1865.282,1071.786 1721.885,1071.786 1721.885,1116.698 
			1721.885,1135.604 1920.428,1135.604 2232.27,1135.604 2232.27,1116.698 		"/>
	</g>
	<g>
		<rect x="2290.584" y="1135.604" style="fill:#E3E3E3;" width="510.385" height="270.173"/>
		<polygon style="fill:#FEB101;" points="2472.79,1116.698 2433.982,1071.786 2290.584,1071.786 2290.584,1116.698 
			2290.584,1135.604 2489.127,1135.604 2800.969,1135.604 2800.969,1116.698 		"/>
	</g>
	<g>
		<rect x="1721.885" y="1611.363" style="fill:#E3E3E3;" width="510.385" height="270.173"/>
		<polygon style="fill:#FEB101;" points="1904.091,1592.457 1865.282,1547.546 1721.885,1547.546 1721.885,1592.457 
			1721.885,1611.363 1920.428,1611.363 2232.27,1611.363 2232.27,1592.457 		"/>
	</g>
	<g>
		<rect x="2290.584" y="1611.363" style="fill:#E3E3E3;" width="510.385" height="270.173"/>
		<polygon style="fill:#FEB101;" points="2472.79,1592.457 2433.982,1547.546 2290.584,1547.546 2290.584,1592.457 
			2290.584,1611.363 2489.127,1611.363 2800.969,1611.363 2800.969,1592.457 		"/>
	</g>
	<g>
		<rect x="1721.885" y="2087.122" style="fill:#E3E3E3;" width="510.385" height="270.173"/>
		<polygon style="fill:#FEB101;" points="1904.091,2068.216 1865.282,2023.305 1721.885,2023.305 1721.885,2068.216 
			1721.885,2087.122 1920.428,2087.122 2232.27,2087.122 2232.27,2068.216 		"/>
	</g>
	<g>
		<rect x="1721.885" y="2553.302" style="fill:#E3E3E3;" width="510.385" height="270.173"/>
		<polygon style="fill:#FEB101;" points="1904.091,2534.396 1865.282,2489.485 1721.885,2489.485 1721.885,2534.396 
			1721.885,2553.302 1920.428,2553.302 2232.27,2553.302 2232.27,2534.396 		"/>
	</g>
	<g>
		<rect x="2290.584" y="2553.302" style="fill:#E3E3E3;" width="510.385" height="270.173"/>
		<polygon style="fill:#FEB101;" points="2472.79,2534.396 2433.982,2489.485 2290.584,2489.485 2290.584,2534.396 
			2290.584,2553.302 2489.127,2553.302 2800.969,2553.302 2800.969,2534.396 		"/>
	</g>
	<path style="fill:#FFFFFF;" d="M2724.416,1324.153c0-39.485-32.009-71.493-71.493-71.493h-0.012c-0.699,0-1.293-0.496-1.433-1.181
		c-6.644-32.607-35.479-57.145-70.048-57.145c-28.653,0-53.367,16.857-64.771,41.194c-0.292,0.624-0.975,0.954-1.645,0.795
		c-5.326-1.266-10.884-1.938-16.597-1.938c-29.328,0-54.528,17.662-65.553,42.928c-0.303,0.695-1.08,1.036-1.799,0.796
		c-4.836-1.615-10.01-2.491-15.389-2.491c-26.805,0-48.536,21.73-48.536,48.536c0,0.024,0,0.047,0,0.071
		c0.005,3.072,2.553,5.536,5.625,5.536h346.029c3.077,0,5.622-2.473,5.625-5.551
		C2724.416,1324.191,2724.416,1324.172,2724.416,1324.153z"/>
	<path style="fill:#FFFFFF;" d="M2148.398,1794.77c0-39.485-32.009-71.493-71.493-71.493h-0.012c-0.699,0-1.293-0.496-1.433-1.181
		c-6.644-32.607-35.479-57.145-70.048-57.145c-28.653,0-53.367,16.857-64.771,41.194c-0.292,0.624-0.974,0.954-1.645,0.794
		c-5.326-1.266-10.883-1.938-16.597-1.938c-29.328,0-54.528,17.662-65.553,42.928c-0.304,0.696-1.08,1.036-1.799,0.796
		c-4.836-1.616-10.01-2.491-15.389-2.491c-26.806,0-48.536,21.73-48.536,48.536c0,0.024,0,0.047,0,0.071
		c0.005,3.072,2.553,5.536,5.625,5.536h346.028c3.078,0,5.622-2.473,5.625-5.551
		C2148.398,1794.808,2148.398,1794.789,2148.398,1794.77z"/>
</g>
<g id="decpr">
	<g>
		<g>
			<g>
				<path style="fill:#97A8B8;" d="M1556.049,1143.303c-16.441-31.778-35.875-61.012-57.709-87.641l61.127-50.033
					c-25.657-31.345-54.716-60.058-86.376-85.343l-49.388,61.838c-27.531-21.95-57.127-40.844-88.286-56.435l35.457-70.782
					c-36.166-18.117-74.359-32.501-113.516-42.758l-20.051,76.562c-33.793-8.857-68.535-14.141-103.641-15.828l3.748-79.09
					c-40.509-1.918-81.295,0.44-121.22,7.016l12.841,77.998c-34.084,5.578-67.969,14.673-101.119,27.646l-28.783-73.431
					c-37.467,14.69-74.085,33.618-107.69,55.655l43.274,65.984c-29.745,19.533-56.77,41.894-81.034,66.471l-56.21-55.604
					c-28.453,28.764-53.965,60.662-75.83,94.814l66.678,42.689c-18.925,29.605-34.734,60.983-47.058,93.665l-74.019-27.92
					c-14.288,37.876-24.649,77.354-30.793,117.333l78.263,12.029c-5.309,34.444-7.044,69.523-5.061,104.693l-78.998,4.524
					c2.315,40.454,8.932,80.775,19.663,119.838l76.137-20.919c9.043,33.018,21.56,65.596,37.838,97.222
					c0.086,0.167,0.183,0.326,0.269,0.493l-70.077,36.166c18.636,36.105,41.005,70.235,66.493,101.443l61.173-49.958
					c22.438,27.427,47.49,51.985,74.56,73.614l-49.454,61.781c31.56,25.262,65.926,47.297,102.146,65.492l35.539-70.745
					c31.35,15.729,64.213,28.189,98.067,37.101l-20.133,76.528c39.182,10.31,79.529,16.531,119.917,18.49l3.837-79.084
					c34.716,1.707,69.771-0.15,104.636-5.816l12.762,78.023c39.909-6.527,79.304-17.324,117.094-32.084l-28.703-73.478
					c16.071-6.268,31.974-13.403,47.643-21.468c15.836-8.151,31.031-17.06,45.614-26.612l43.198,66.021
					c33.946-22.211,65.59-48.031,94.054-76.741l-56.147-55.665c24.841-25.104,46.696-52.569,65.448-81.832l66.634,42.763
					c21.835-34.025,40.177-70.486,54.52-108.372l-74-28.01c12.386-32.743,21.295-66.744,26.675-101.406l78.245,12.116
					c6.205-40.073,8.201-80.863,5.937-121.24l-79.012,4.437c-1.913-34.601-7.372-69.263-16.696-103.461l76.176-20.836
					c-10.631-38.865-25.451-76.889-43.949-112.826l-0.733-1.424L1556.049,1143.303z M1230.286,1606.726
					c-128.403,66.092-286.634,15.398-352.726-113.004c-66.091-128.401-15.397-286.632,113.005-352.723
					c128.4-66.09,286.631-15.398,352.722,113.003C1409.379,1382.405,1358.686,1540.636,1230.286,1606.726z"/>
			</g>
			<g>
				<path style="fill:#6E92F9;" d="M1267.743,2265.721c-10.965-21.193-23.926-40.69-38.488-58.45l40.767-33.369
					c-17.111-20.905-36.492-40.054-57.606-56.917l-32.938,41.241c-18.361-14.639-38.1-27.24-58.88-37.638l23.647-47.206
					c-24.12-12.083-49.592-21.676-75.707-28.516l-13.372,51.061c-22.538-5.907-45.708-9.431-69.121-10.556l2.5-52.747
					c-27.017-1.279-54.217,0.294-80.845,4.679l8.564,52.019c-22.731,3.72-45.33,9.785-67.439,18.438l-19.196-48.973
					c-24.987,9.797-49.409,22.421-71.821,37.118l28.861,44.006c-19.837,13.027-37.862,27.94-54.043,44.331l-37.488-37.084
					c-18.976,19.183-35.991,40.457-50.573,63.234l44.469,28.47c-12.622,19.745-23.165,40.671-31.384,62.468l-49.365-18.621
					c-9.529,25.261-16.439,51.589-20.537,78.252l52.195,8.022c-3.541,22.971-4.698,46.367-3.376,69.823l-52.686,3.017
					c1.544,26.98,5.957,53.871,13.114,79.923l50.778-13.951c6.031,22.021,14.379,43.748,25.235,64.84
					c0.057,0.112,0.122,0.217,0.18,0.329l-46.737,24.12c12.429,24.08,27.347,46.842,44.346,67.655l40.798-33.318
					c14.964,18.292,31.673,34.67,49.726,49.095l-32.982,41.203c21.048,16.848,43.968,31.544,68.123,43.678l23.702-47.182
					c20.908,10.49,42.825,18.8,65.403,24.744l-13.427,51.038c26.132,6.876,53.04,11.025,79.976,12.331l2.559-52.743
					c23.153,1.138,46.532-0.1,69.784-3.879l8.511,52.036c26.616-4.353,52.89-11.554,78.093-21.398l-19.143-49.005
					c10.718-4.18,21.325-8.938,31.775-14.317c10.562-5.436,20.695-11.378,30.421-17.748l28.81,44.031
					c22.64-14.813,43.744-32.033,62.727-51.181L1208.206,2655c16.567-16.743,31.143-35.06,43.649-54.575l44.44,28.52
					c14.562-22.692,26.795-47.009,36.361-72.276l-49.353-18.681c8.261-21.837,14.202-44.513,17.79-67.63l52.183,8.08
					c4.138-26.726,5.47-53.929,3.959-80.858l-52.695,2.959c-1.276-23.076-4.916-46.194-11.135-69.001l50.804-13.896
					c-7.09-25.92-16.974-51.279-29.31-75.247l-0.489-0.95L1267.743,2265.721z M1050.483,2574.79
					c-85.635,44.078-191.164,10.27-235.242-75.365c-44.078-85.634-10.269-191.162,75.366-235.24
					c85.633-44.077,191.162-10.269,235.239,75.365C1169.925,2425.184,1136.117,2530.713,1050.483,2574.79z"/>
			</g>
		</g>
		<path style="fill:#97A8B8;" d="M4125.017,1991.06l-5.808-4.461c66.245-86.233,90.857-200.891,65.837-306.714
			c-5.559-23.518-17.104-51.463-34.572-73.096c-18.05,2.074-36.688-1.562-51.115-11.193c-7.601-5.074-7.899-13.579-4.959-19.334
			c3.522-6.895,11.01-9.842,18.212-7.161c15.815,5.884,29.39,16.592,40.719,29.768c12.332-1.987,24.155-6.851,33.446-14.47
			c31.476-25.809,40.137-68.817,41.339-103.453c-0.774,0.089-1.55,0.175-2.328,0.255c-31.055,3.238-73.001,0.12-96.541-33.038
			c-12.065-16.993-13.75-39.109-4.295-56.345c7.307-13.32,19.708-21.464,34.921-22.936c19.045-1.843,40.417,7.197,53.163,22.493
			c15.341,18.417,22.51,43.898,22.559,80.192c0.001,0.323,0.001,0.651,0,0.975c34.873-5.466,64.979-19.571,85.593-40.269
			c26.333-26.445,36.839-65.207,26.142-96.455c-11.725-34.248-49.98-55.589-81.851-45.685l-2.175-6.994
			c35.503-11.038,78.004,12.471,90.957,50.306c11.579,33.827,0.374,75.62-27.884,103.996
			c-21.954,22.045-53.965,36.965-90.901,42.527c-1.096,36.412-10.121,82.269-44.055,110.093
			c-9.338,7.658-20.758,12.817-32.77,15.386c16.854,22.12,28.03,49.518,33.522,72.749
			C4217.696,1786.143,4192.59,1903.101,4125.017,1991.06z M4106.928,1575.442c-2.882,0.143-4.959,2.109-6.005,4.152
			c-1.447,2.835-1.661,7.13,2.503,9.911c11.451,7.644,26.236,11.007,40.983,10.297c-9.832-10.516-21.288-18.976-34.35-23.835
			C4108.933,1575.548,4107.886,1575.395,4106.928,1575.442z M4162.643,1376.023c-0.691,0.034-1.379,0.085-2.063,0.151
			c-9.004,0.871-21.379,4.904-29.205,19.169c-8.114,14.791-6.605,33.86,3.845,48.58c21.496,30.277,60.695,33.02,89.812,29.995
			c1.082-0.113,2.161-0.234,3.236-0.363c0.004-0.663,0.006-1.322,0.005-1.976c-0.047-34.49-6.676-58.485-20.864-75.514
			C4196.608,1383.1,4178.853,1375.217,4162.643,1376.023z"/>
		<g>
			<path style="fill:#FEC94F;" d="M3747.439,809.926c-0.212-4.763-0.319-9.554-0.319-14.369
				c0-175.675,142.413-318.088,318.088-318.088s318.088,142.412,318.088,318.088c0,175.675-142.413,318.087-318.088,318.087
				c-94.998,0-180.227-41.683-238.512-107.711l-79.576,107.711L3747.439,809.926z"/>
		</g>
	</g>
	<g>
		<path style="fill:#FFFFFF;" d="M3948.662,945.017c-5.756,0-11.45-2.148-15.839-6.278l-85.183-127.74
			c-9.291-8.744-9.733-23.365-0.99-32.655c8.744-9.291,23.364-9.736,32.655-0.99l80.969,104.997l320.047-187.444
			c11.266-5.985,25.253-1.703,31.238,9.564c5.985,11.267,1.704,25.253-9.564,31.239l-342.502,206.609
			C3956.077,944.131,3952.356,945.017,3948.662,945.017z"/>
	</g>
	<g>
		<g>
			<path style="fill:#6E92F9;" d="M1969.999,619.393c-0.16-3.592-0.24-7.205-0.24-10.837c0-132.494,107.408-239.902,239.902-239.902
				s239.902,107.408,239.902,239.902c0,132.494-107.408,239.902-239.902,239.902c-71.647,0-135.927-31.437-179.886-81.236
				l-60.016,81.236L1969.999,619.393z"/>
		</g>
		<path style="fill:#FFFFFF;" d="M2306.168,730.522c-6.8,0-13.194-2.648-18.003-7.457l-78.957-78.957l-78.053,78.053
			c-4.809,4.809-11.202,7.457-18.002,7.457s-13.194-2.648-18.002-7.457c-4.809-4.808-7.457-11.202-7.457-18.002
			s2.648-13.194,7.457-18.002l78.053-78.053l-77.149-77.15c-9.927-9.926-9.927-26.078,0-36.004
			c4.808-4.809,11.202-7.457,18.002-7.457s13.194,2.648,18.002,7.457l77.149,77.149l78.053-78.053
			c4.809-4.809,11.202-7.457,18.002-7.457c6.8,0,13.194,2.648,18.003,7.457c9.926,9.927,9.926,26.078,0,36.004l-78.054,78.054
			l78.958,78.957c4.809,4.808,7.457,11.202,7.457,18.002s-2.648,13.194-7.457,18.002
			C2319.362,727.874,2312.969,730.522,2306.168,730.522z"/>
	</g>
</g>
<g id="block">
	<g>
		<path style="fill:#FFFFFF;" d="M3498.349,1912.101c-0.652-1.087-0.417-1.147-0.751-1.242
			c-241.393-68.973-370.534-99.212-596.92-410.228c-2.57-3.53-6.648-5.679-11.014-5.733c-0.023,0-0.047-0.001-0.07-0.001
			c-0.023,0-0.047,0.001-0.07,0.001c-4.366,0.053-8.444,2.203-11.014,5.733c-226.385,311.016-355.527,341.255-596.92,410.228
			c-0.335,0.096-0.1,0.155-0.751,1.242c-42.748,104.655-54.268,213.321-46.781,333.124
			c23.22,371.513,265.544,733.266,649.225,929.169c3.958,2.021,8.664,2.021,12.622,0
			c383.68-195.903,626.005-557.656,649.225-929.169C3552.617,2125.422,3541.096,2016.756,3498.349,1912.101z"/>
		<g>
			<path style="fill:#97A8B8;" d="M2892.499,3197.066c-0.883,0.445-1.925,0.445-2.807,0l-3.302-1.663
				c-190.562-96.009-353.236-235.926-470.435-404.626c-115.201-165.823-182.307-352.907-194.065-541.028
				c-8.225-131.613,6.953-239.45,47.768-339.373l0.302-0.738l0.292-0.486c1.781-4.1,5.112-5.595,6.978-6.127
				c6.289-1.797,12.51-3.57,18.659-5.322c230.65-65.736,357.704-101.947,579.698-408.651l0,0c1.928-2.663,4.996-4.265,8.283-4.324
				l0.293-0.005c2.269-0.041,4.538-0.082,6.806-0.109l0.128-0.002l0.128,0.002c2.268,0.027,4.537,0.068,6.806,0.109l0.294,0.005
				c3.287,0.059,6.355,1.661,8.283,4.324l0,0c221.993,306.704,349.047,342.915,579.698,408.651
				c6.148,1.752,12.369,3.525,18.666,5.324c1.861,0.531,5.198,2.029,6.972,6.128l0.291,0.484l0.301,0.738
				c40.815,99.923,55.993,207.76,47.768,339.373c-11.758,188.12-78.864,375.205-194.065,541.028
				c-117.199,168.701-279.874,308.617-470.435,404.626L2892.499,3197.066z M2289.077,1921.393c-0.934,0.266-1.7,0.953-2.06,1.856
				c-38.07,95.518-52.138,199.034-44.252,325.196c23.725,379.596,271.387,733.51,646.901,925.169c0.896,0.457,1.962,0.457,2.858,0
				c375.514-191.66,623.177-545.574,646.901-925.169c7.886-126.162-6.182-229.678-44.252-325.196
				c-0.36-0.902-1.126-1.589-2.06-1.856c-4.216-1.203-8.396-2.394-12.543-3.576c-116.101-33.09-207.806-59.226-298.363-116.19
				c-94.253-59.29-183.404-150.336-288.522-294.77c-0.928-0.468-1.706-0.861-2.634-1.329c-0.011,0-0.022,0-0.033,0
				c-0.984,0.012-1.908,0.495-2.487,1.291c-105.129,144.455-194.288,235.512-288.549,294.807
				c-90.558,56.965-182.262,83.101-298.364,116.19C2297.472,1919,2293.292,1920.191,2289.077,1921.393z"/>
		</g>
		<path style="fill:#97A8B8;" d="M3429.78,1982.011c-0.577-0.962-0.369-1.015-0.665-1.099
			c-213.608-61.034-327.884-87.792-528.212-363.009c-2.274-3.124-5.882-5.025-9.746-5.073c-0.021,0-0.041,0-0.062-0.001
			c-0.021,0-0.041,0-0.062,0.001c-3.864,0.047-7.472,1.949-9.746,5.073c-200.328,275.217-314.604,301.975-528.212,363.009
			c-0.296,0.085-0.088,0.138-0.665,1.099c-37.827,92.609-48.022,188.767-41.396,294.78
			c20.547,328.75,234.979,648.864,574.496,822.217c3.502,1.788,7.667,1.788,11.169,0
			c339.517-173.353,553.949-493.467,574.496-822.217C3477.801,2170.778,3467.607,2074.619,3429.78,1982.011z"/>
		<g>
			<path style="fill:#FFFFFF;" d="M3124.873,2790.295h-467.556c-27.819,0-50.371-22.552-50.371-50.371v-401.591
				c0-27.819,22.552-50.371,50.371-50.371h467.556c27.819,0,50.371,22.552,50.371,50.371v401.591
				C3175.244,2767.743,3152.692,2790.295,3124.873,2790.295z"/>
			<g>
				<path style="fill:#FFFFFF;" d="M2715.658,2061.314c0-48.827,39.723-88.551,88.551-88.551h157.142
					c48.826,0,88.551,39.724,88.551,88.551v241.265h49.881v-241.265c0-76.332-62.1-138.432-138.432-138.432h-157.142
					c-76.332,0-138.432,62.1-138.432,138.432v241.265h49.881V2061.314z"/>
			</g>
			<path style="fill:#97A8B8;" d="M2963.269,2468.908c0-39.861-32.313-72.174-72.174-72.174c-39.86,0-72.174,32.313-72.174,72.174
				c0,26.378,14.158,49.441,35.283,62.032l-13.936,135.176h101.653l-13.936-135.176
				C2949.111,2518.35,2963.269,2495.287,2963.269,2468.908z"/>
		</g>
	</g>
	<g>
		<g>
			<path style="fill:#FEC94F;" d="M3837.635,2845.145l-1046.242,134.55c-9.766,1.256-12.716,16.995-4.676,24.948l137.95,136.461
				c27.087,26.794,63.961,27.703,89.252,2.198l58.912-59.408l86.738,49.486c25.519,14.559,54.431,10.059,74.692-11.624l62.259-66.63
				l96.031,50.258c25.562,13.378,53.982,7.931,73.629-14.111l59.905-67.205l89.521,50.29c26.082,14.652,55.545,9.433,75.697-13.408
				l57.849-65.569l115.076,56.563L3837.635,2845.145z"/>
			<g>
				<path style="fill:#FEB101;" d="M3432.645,3124.596c17.065-2.192,33.263-10.707,46.056-25.059l52.985-59.441l80.454,45.196
					c31.478,17.683,67.484,11.353,91.728-16.126l51.314-58.162l106.21,52.205l11.41-23.212l-123.943-60.921l-64.386,72.978
					c-16.085,18.232-38.948,22.327-59.665,10.688l-98.589-55.384l-66.825,74.969c-15.597,17.496-37.811,21.812-57.979,11.258
					l-104.754-54.823l-68.981,73.824c-16.086,17.215-38.629,20.748-58.834,9.219l-95.349-54.398l-65.893,66.448
					c-20.337,20.508-48.859,19.589-70.974-2.287l-137.951-136.461c-0.721-0.714-0.894-2.151-0.766-3.185l1044.24-134.293
					l-3.299-25.653l-1046.242,134.55c-8.828,1.135-15.945,7.271-19.035,16.412c-3.594,10.63-0.816,22.911,6.914,30.557
					l137.951,136.461c32.064,31.719,77.287,32.609,107.529,2.111l51.932-52.37l78.127,44.573
					c30.685,17.507,66.228,12.002,90.549-14.027l55.538-59.436l87.307,45.693
					C3403.428,3123.832,3418.341,3126.434,3432.645,3124.596z"/>
			</g>
		</g>
		<g>
			<path style="fill:#FEB101;" d="M3547.373,2953.165c18.313,142.402,148.599,242.996,291.001,224.682
				c142.401-18.313,242.995-148.599,224.682-291.001c-18.313-142.401-148.599-242.995-291-224.682
				C3629.654,2680.478,3529.06,2810.763,3547.373,2953.165z M3880.201,2904.09c-3.688-28.68,16.577-54.913,45.258-58.601
				c28.668-3.687,54.911,16.564,58.6,45.245c3.688,28.68-16.577,54.913-45.245,58.6
				C3910.133,2953.022,3883.889,2932.771,3880.201,2904.09z"/>
			<path style="fill:#FEC94F;" d="M3594.716,2947.076c14.951,116.261,121.308,198.379,237.569,183.427
				c116.261-14.951,198.379-121.308,183.427-237.569c-14.952-116.261-121.308-198.379-237.569-183.427
				S3579.765,2830.816,3594.716,2947.076z M3880.201,2904.09c-3.688-28.68,16.577-54.913,45.258-58.601
				c28.668-3.687,54.911,16.564,58.6,45.245c3.688,28.68-16.577,54.913-45.245,58.6
				C3910.133,2953.022,3883.889,2932.771,3880.201,2904.09z"/>
		</g>
	</g>
</g>
<g id="person_2">
	<g>
		<g>
			<path style="fill:#FFA185;" d="M1644.893,3066.387c0.765-17.151,5.278-87.273,2.165-90.365
				c-2.461-2.445-41.719-13.917-62.073-12.369c-9.172,0.697-52.524-10.189-61.1-6.859c-4.797,1.863,5.621,38.038,5.969,75.347
				c0.065,6.929-3.405,36.097-3.423,42.762c15.957,0.195,42.787-20.313,58.887-19.706
				C1601.396,3055.802,1629.074,3063.453,1644.893,3066.387z"/>
			<path style="fill:#6E92F9;" d="M1613.384,3036.854c-7.629-3.659-15.933-4.286-24.339-5.684
				c-15.611-2.597-32.25,6.651-43.438,18.252c-4.769,4.946-12.801,10.696-15.521,17.004l-25.544,59.238
				c-2.701,6.264-5.302,13.792-1.369,19.437c3.963,5.688,12.317,6.257,19.461,6.242c56.557-0.116,102.867,2.001,159.425,1.886
				c6.404-18.215,3.251-39.125-9.363-54.113c-12.393-14.725-24.268-30.089-37.29-44.306
				C1625.475,3043.968,1625.745,3043.751,1613.384,3036.854z"/>
			<path style="fill:#FEB101;" d="M1504.22,3168.345c1.231,5.431,5.987,9.328,11.553,9.463c20.18,0.488,65.391,1.551,84.626,1.765
				c17.341,0.193,54.48-3.287,72.456-5.091c5.797-0.582,10.231-5.414,10.322-11.24l0.358-23.012
				c-0.023,1.461-60.044-1.365-66.789-1.723c-27.354-1.449-38.52-5.832-70.719-4.139c-10.255,0.539-44.805,5.178-44.963,10.056
				C1500.923,3148.8,1502.249,3159.655,1504.22,3168.345z"/>
			<path style="fill:#FFFFFF;" d="M1555.834,3070.064c-0.397,0-0.79-0.175-1.056-0.509c-0.465-0.583-0.368-1.432,0.215-1.896
				c17.365-13.832,43.637-15.336,62.468-3.576c0.632,0.395,0.825,1.228,0.43,1.86c-0.395,0.632-1.228,0.825-1.86,0.43
				c-17.893-11.175-42.857-9.746-59.357,3.398C1556.426,3069.968,1556.129,3070.064,1555.834,3070.064z"/>
			<path style="fill:#FFFFFF;" d="M1563.187,3088.236c-0.556,0-1.077-0.346-1.273-0.901c-0.247-0.702,0.121-1.473,0.824-1.722
				c18.762-6.625,39.463-6.728,58.291-0.293c0.706,0.241,1.082,1.009,0.841,1.714c-0.242,0.705-1.012,1.079-1.713,0.841
				c-18.257-6.239-38.328-6.139-56.52,0.284C1563.487,3088.211,1563.336,3088.236,1563.187,3088.236z"/>
			<path style="fill:#FFFFFF;" d="M1587.226,3057.535l-1.971-1.456c-2.082-1.538-20.417-15.165-23.257-20.164
				c-1.838-3.237-4.149-8.101-2.992-12.962c1.414-5.941,8.102-10.051,14.611-8.971c5.632,0.935,10.777,5.447,13.108,11.497
				c2.347,6.09,0.748,28.654,0.679,29.612L1587.226,3057.535z M1564.345,3034.581c1.942,3.418,14.058,12.962,20.526,17.842
				c0.445-7.58,0.909-21.888-0.665-25.973c-1.994-5.175-6.324-9.024-11.031-9.804c-5.066-0.843-10.465,2.398-11.543,6.932
				C1560.695,3027.511,1562.731,3031.741,1564.345,3034.581z"/>
			<path style="fill:#FFFFFF;" d="M1587.702,3056.762l-0.63-1.191c-0.12-0.227-2.932-5.631-1.831-11.416
				c0.288-1.512,0.459-2.975,0.625-4.389c0.445-3.813,0.866-7.413,3.435-11.072l0,0c6.096-8.682,16.502-13.091,25.308-10.712
				c4.147,1.119,7.164,3.696,8.068,6.893c1.044,3.691-0.536,7.661-4.833,12.137c-7.415,7.726-28.073,18.66-28.949,19.121
				L1587.702,3056.762z M1591.51,3030.246c-2.177,3.1-2.541,6.22-2.964,9.834c-0.171,1.461-0.348,2.972-0.654,4.58
				c-0.638,3.346,0.345,6.66,1.019,8.399c4.676-2.539,20.895-11.572,26.984-17.916c3.576-3.725,4.944-6.843,4.184-9.533
				c-0.644-2.275-2.953-4.153-6.174-5.023C1606.176,3018.506,1596.968,3022.475,1591.51,3030.246L1591.51,3030.246z"/>
			<polygon style="opacity:0.52;fill:#15192D;" points="1647.059,3018.5 1558.694,2977.021 1647.059,2976.022 			"/>
		</g>
		<g>
			<path style="fill:#FFA185;" d="M957.042,3064.68c-0.779-17.484,5.845-50.232,6.006-54.702
				c1.859-51.483,25.919-72.158,46.668-70.581c9.35,0.711,60.28,20.861,69.023,24.256c4.89,1.899,1.517,38.993-0.705,61.275
				c-0.701,7.029-6.214,28.945-6.195,35.74c-16.267,0.198-37.652-8.014-54.065-7.395
				C1001.384,3053.889,973.169,3061.689,957.042,3064.68z"/>
			<path style="fill:#6E92F9;" d="M989.163,3034.573c7.777-3.73,16.242-4.369,24.811-5.795c15.914-2.647,32.876,6.78,44.281,18.607
				c4.862,5.041,13.049,10.903,15.823,17.334l26.04,60.388c2.753,6.385,5.405,14.059,1.396,19.814
				c-4.04,5.798-12.556,6.379-19.839,6.364c-57.656-0.118-104.864,2.04-162.52,1.922c-6.528-18.568-3.314-39.885,9.545-55.163
				c12.634-15.01,24.739-30.673,38.013-45.166C976.838,3041.826,976.563,3041.604,989.163,3034.573z"/>
			<path style="fill:#FEB101;" d="M1100.447,3168.617c-1.255,5.536-6.103,9.509-11.778,9.646
				c-20.572,0.497-66.661,1.582-86.269,1.799c-17.677,0.197-55.538-3.35-73.863-5.19c-5.91-0.593-10.43-5.52-10.522-11.458
				l-2.144-24.423c0.023,1.49,62.989-0.428,69.865-0.792c27.886-1.477,39.267-5.946,72.092-4.219
				c10.455,0.55,45.675,5.279,45.836,10.251C1103.808,3148.693,1102.456,3159.758,1100.447,3168.617z"/>
			<path style="fill:#FFFFFF;" d="M1047.83,3068.428c0.405,0,0.806-0.178,1.077-0.519c0.474-0.594,0.375-1.46-0.219-1.933
				c-17.702-14.101-44.485-15.634-63.681-3.646c-0.645,0.402-0.841,1.251-0.438,1.896c0.403,0.644,1.252,0.841,1.896,0.438
				c18.24-11.392,43.689-9.935,60.509,3.464C1047.228,3068.33,1047.53,3068.428,1047.83,3068.428z"/>
			<path style="fill:#FFFFFF;" d="M1040.335,3086.953c0.567,0,1.098-0.353,1.298-0.918c0.252-0.716-0.123-1.502-0.84-1.755
				c-19.126-6.753-40.229-6.858-59.422-0.299c-0.72,0.246-1.103,1.028-0.857,1.747c0.247,0.719,1.031,1.1,1.746,0.857
				c18.612-6.36,39.072-6.258,57.617,0.289C1040.029,3086.928,1040.183,3086.953,1040.335,3086.953z"/>
			<path style="fill:#FFFFFF;" d="M1015.649,3053.164c-0.07-0.976-1.701-23.978,0.692-30.187c2.375-6.167,7.621-10.767,13.362-11.72
				c6.635-1.101,13.453,3.088,14.895,9.145c1.179,4.955-1.176,9.914-3.05,13.213c-2.896,5.096-21.586,18.989-23.709,20.556
				l-2.01,1.484L1015.649,3053.164z M1041.921,3021.039c-1.1-4.622-6.603-7.926-11.768-7.067c-4.798,0.796-9.213,4.719-11.245,9.994
				c-1.604,4.164-1.131,18.75-0.678,26.477c6.594-4.974,18.945-14.704,20.925-18.188
				C1040.8,3029.362,1042.875,3025.049,1041.921,3021.039z"/>
			<path style="fill:#FFFFFF;" d="M1014.128,3054.228c-0.893-0.471-21.952-11.616-29.511-19.492
				c-4.38-4.562-5.992-8.61-4.927-12.372c0.922-3.26,3.997-5.886,8.225-7.027c8.977-2.425,19.584,2.069,25.799,10.92l0,0
				c2.619,3.73,3.048,7.4,3.502,11.287c0.169,1.441,0.343,2.932,0.637,4.474c1.122,5.897-1.744,11.406-1.867,11.637l-0.643,1.214
				L1014.128,3054.228z M1011.462,3027.837c-5.563-7.923-14.951-11.968-22.83-9.845c-3.285,0.887-5.637,2.801-6.294,5.12
				c-0.776,2.742,0.619,5.92,4.265,9.718c6.207,6.467,22.741,15.676,27.508,18.264c0.687-1.773,1.689-5.151,1.039-8.562
				c-0.312-1.639-0.492-3.179-0.666-4.669C1014.053,3034.178,1013.681,3030.997,1011.462,3027.837L1011.462,3027.837z"/>
			<polygon style="opacity:0.52;fill:#15192D;" points="1079.157,3013.19 970.859,2969.647 1081.25,2972.576 			"/>
		</g>
		<g>
			<path style="fill:#FEB101;" d="M1801.604,1969.565c-21.343,202.762-96.045,993.106-96.045,993.106
				c-106.717,37.919-266.792,0-266.792,0l42.687-720.978l-314.814,729.373c0,0-148.179,22.126-225.015-10.743
				c10.672-100.385,353.075-1395.072,353.075-1395.072l502.707-54.852c2.134,8.181,4.126,16.719,5.833,25.612
				c3.344,16.577,6.119,34.363,8.182,53.358C1822.236,1685.983,1817.967,1813.901,1801.604,1969.565z"/>
			<polygon style="opacity:0.5;fill:#543317;" points="1630.847,1794.19 1481.444,2241.701 1460.332,2598.267 			"/>
			<path style="fill:#FFFFFF;" d="M993.367,2892.421l-5.37-2.074c143.5-388.1,206.1-768.339,289.07-1180.155l0.456-2.966
				l2.946,0.581c49.345,9.723,102.683-24.681,114.127-73.676l5.601,1.308c-11.883,50.897-66.493,86.963-117.892,78.544
				C1210.782,2122.009,1129.418,2508.485,993.367,2892.421z"/>
			<path style="fill:#FFFFFF;" d="M1569.631,2928.335c-33.582,0-67.167-7.788-97.056-23.185l2.635-5.113
				c51.951,26.758,115.395,29.896,169.734,8.389l2.114,5.351C1622.467,2923.506,1596.049,2928.335,1569.631,2928.335z"/>
			<path style="fill:#FFFFFF;" d="M1083.758,2910.177c-40.821,0-81.745-8.145-118.85-24.195l2.285-5.284
				c61.317,26.527,133.296,31.045,197.46,12.398l1.605,5.522C1139.652,2906.352,1111.728,2910.177,1083.758,2910.177z"/>
			<path style="fill:#543317;" d="M1811.422,1589.369l-294.467-23.051l286.285-30.308
				C1806.584,1552.587,1809.359,1570.373,1811.422,1589.369z"/>
		</g>
	</g>
	<g>
		<path style="fill:#FFA185;" d="M1939.138,1327.389c0,0-26.599,108.484-72.43,167.804c-13.76,17.823-29.281,31.231-46.319,35.917
			c-13.516,3.711-21.914-2.221-26.6-14.41c-20.965-54.364,31.692-233.03,31.692-233.03S1939.138,1264.953,1939.138,1327.389z"/>
		<path style="opacity:0.6;fill:#893F3E;" d="M1866.708,1495.193c-13.76,17.823-29.281,31.231-46.319,35.917
			c-13.516,3.711-21.914-2.221-26.6-14.41l31.936-184.977C1825.725,1331.723,1835.287,1457.162,1866.708,1495.193z"/>
		<path style="fill:#6E92F9;" d="M1821.871,1168.497c0,0,13.502,266.224-5.315,380.814c-0.422,2.785-0.929,5.401-1.434,8.016
			c-1.52,8.101-3.208,15.357-5.233,21.433c-0.169,0.591-0.338,1.182-0.591,1.772c-0.338,1.097-0.674,2.025-1.096,3.038
			c-0.76,2.026-1.518,3.882-2.363,5.485c-1.856,3.882-3.881,6.835-6.16,8.776c-139.314,124.801-477.347,68.011-501.65,56.958
			c-24.385-11.054-18.986-30.293-18.986-30.293l0.676-3.375l0.338-1.688l13.922-70.121l1.014-3.797l64.3-246.479
			c0,0,0,0-57.633,2.279c-57.549,2.193-152.647,48.688-152.647,48.688c0.845-10.632,1.772-21.011,2.87-31.052
			c0.169-1.603,0.253-3.207,0.507-4.725c1.012-10.294,2.192-20.252,3.459-29.955c0.169-1.434,0.338-2.954,0.507-4.388
			c36.789-283.1,134.757-333.392,198.466-370.351c3.712-2.194,7.931-4.303,12.573-6.329c1.18-0.506,2.361-1.096,3.712-1.603
			c7.173-3.038,15.274-5.906,24.05-8.691c1.265-0.422,2.53-0.76,3.797-1.182c50.122-15.357,121.424-27.339,179.48-35.271
			c13.669-1.941,26.579-3.544,38.225-4.978c1.687-0.169,3.29-0.338,4.893-0.591c7.173-0.844,13.924-1.603,19.999-2.278
			c1.603-0.169,3.29-0.337,4.81-0.506c17.381-1.857,28.942-2.785,31.643-2.785c4.47,0,8.858,0.169,13.162,0.338
			c215.426,9.619,230.278,256.435,230.278,256.435L1821.871,1168.497z"/>
		<g>
			<path style="fill:#FFFFFF;" d="M1621.541,850.891c-1.598,0.217-3.197,0.406-4.849,0.596
				c12.758,11.647,20.207,25.679,20.207,40.766c0,40.387-53.361,73.243-118.966,73.243c-65.578,0-118.939-32.856-118.939-73.243
				v-0.542c-1.3,0.406-2.573,0.813-3.846,1.219c0.596,42.202,55.447,76.413,122.786,76.413c67.718,0,122.812-34.59,122.812-77.09
				C1640.745,877.03,1633.703,862.836,1621.541,850.891z"/>
			<path style="fill:#FFFFFF;" d="M1646.379,848.128c-1.571,0.162-3.196,0.325-4.849,0.515
				c14.817,14.112,23.431,30.96,23.431,49.027c0,50.003-65.957,90.688-147.029,90.688c-78.905,0-143.507-38.572-146.866-86.76
				c-1.273,0.542-2.519,1.057-3.711,1.625c4.605,49.542,70.399,88.981,150.577,88.981c83.184,0,150.875-42.418,150.875-94.534
				C1668.807,879.495,1660.6,862.538,1646.379,848.128z"/>
			<g>
				
					<rect x="1374.483" y="1180.5" transform="matrix(0.987 -0.1606 0.1606 0.987 -169.7754 264.1711)" style="fill:#FFFFFF;" width="349.902" height="3.838"/>
			</g>
			<g>
				
					<rect x="1377.159" y="1216.98" transform="matrix(0.9867 -0.1626 0.1626 0.9867 -177.5717 268.3967)" style="fill:#FFFFFF;" width="347.124" height="3.839"/>
			</g>
			<g>
				
					<rect x="1378.434" y="1253.799" transform="matrix(0.9862 -0.1654 0.1654 0.9862 -186.3204 273.8712)" style="fill:#FFFFFF;" width="345.794" height="3.838"/>
			</g>
			<g>
				
					<rect x="1382.002" y="1288.924" transform="matrix(0.9871 -0.1598 0.1598 0.9871 -186.3407 264.7848)" style="fill:#FFFFFF;" width="341.908" height="3.84"/>
			</g>
			<path style="fill:#FFFFFF;" d="M1808.224,1583.568c-0.758,2.004-1.543,3.846-2.357,5.499
				c-95.671,47.429-202.096,72.133-308.738,72.133c-30.879,0-61.758-2.086-92.448-6.257c-33.425-4.551-88.427-18.386-123.56-39.595
				l0.813-4.036c34.806,21.399,89.862,35.261,123.261,39.812C1542.528,1669.894,1684.599,1645.922,1808.224,1583.568z"/>
			<path style="fill:#FFFFFF;" d="M1809.904,1578.746c-0.19,0.623-0.38,1.219-0.569,1.788l-0.488-1.409L1809.904,1578.746z"/>
			<path style="fill:#FFFFFF;" d="M1816.594,1549.33c-0.461,2.736-0.948,5.39-1.436,7.964
				c-98.028,50.49-207.92,76.819-318.029,76.819c-30.879,0-61.758-2.086-92.448-6.257c-31.909-4.361-85.055-17.372-119.048-36.495
				l0.785-3.982c33.723,19.286,86.896,32.324,118.778,36.658c138.009,18.853,280.811-5.444,404.87-68.476l-1.219-3.521
				L1816.594,1549.33z"/>
			<path style="fill:#FFFFFF;" d="M1377.243,1288.292c-0.325,1.002-1.382,1.571-2.411,1.273
				c-70.318-21.751-158.73-9.508-222.98,29.389c0.162-1.598,0.325-3.196,0.514-4.767c64.955-38.247,153.231-50.03,223.603-28.306
				C1376.972,1286.207,1377.541,1287.263,1377.243,1288.292z"/>
			<path style="fill:#FFFFFF;" d="M1377.243,1262.532c-0.325,1.029-1.382,1.598-2.411,1.3
				c-73.839-22.428-158.622-5.255-218.999,20.424c0.163-1.463,0.352-2.926,0.542-4.388c60.919-25.462,145.593-42.174,219.594-19.719
				C1376.972,1260.447,1377.541,1261.53,1377.243,1262.532z"/>
		</g>
		<path style="fill:#1C1E33;" d="M1383.865,1320.901c3.325,25.025-43.21,52.847-108.805,61.563
			c-65.596,8.716-121.467-4.505-124.792-29.53c-3.325-25.025,49.391-44.06,114.753-54.38
			C1342.219,1286.365,1380.54,1295.877,1383.865,1320.901z"/>
		<path style="opacity:0.72;fill:#15192D;" d="M1502.066,1528.131c-27.846,84.55-173.151,103.199-222.346,92.989l0.338-1.688
			l13.922-70.121l1.014-3.797C1372.793,1508.977,1526.536,1453.538,1502.066,1528.131z"/>
		<g>
			<path style="fill:#97A8B8;" d="M1703.139,943.588l-34.23,369.312c-1.061,11.443,8.187,21.208,19.671,20.77l258.693-9.853
				c9.521-0.363,17.305-7.711,18.216-17.194l36.102-375.781c1.107-11.527-8.252-21.362-19.82-20.827l-255.86,11.831
				C1713.959,922.398,1704.243,931.674,1703.139,943.588z"/>
			<circle style="fill:#FFFFFF;" cx="1856.194" cy="1115.548" r="26.41"/>
		</g>
		<path style="opacity:0.72;fill:#15192D;" d="M1691.13,845.646c-18.934,36.73-90.904,76.06-90.904,76.06l-21.751-65.28
			c52.468-7.205,94.127-11.079,99.491-11.079C1682.435,845.348,1686.823,845.456,1691.13,845.646z"/>
		<g>
			<path style="fill:#FFA185;" d="M1623.139,793.092L1623.139,793.092c0,0,24.229,9.885,60.093-48.894
				c6.094-9.995,11.132-21.48,15.195-33.859c3.251-9.887,5.905-20.315,7.991-31.015c10.781-54.743,7.232-116.366-2.709-144.238
				c-14.356-40.143-156.726-15.142-191.153-0.785c-31.8,13.273-13.381,81.613-10.402,91.879c-1.625-1.652-5.526-4.984-13.949-11.593
				c-20.072-15.792-45.236,22.776-36.622,52.165c8.559,29.308,28.53,31.838,28.801,31.838l-52.502,184.971
				c-4.984,15.358,1.49,32.152,15.467,40.251l3.802,1.757c50.88,23.517,109.842,21.824,159.289-4.574h0
				c7.875-5.909,10.429-16.685,9.752-26.464L1623.139,793.092z"/>
			<g>
				<path style="fill:#3C4059;" d="M1519.625,571.188c-5.604,12.126-7.812,36.275-8.661,51.661c-0.068,1.087-0.136,2.106-0.17,3.091
					c-0.34,6.555-0.374,10.869-0.374,10.869s-3.974-6.283-10.427-12.499c-1.325-1.257-2.751-2.547-4.28-3.77
					c-6.589-5.231-14.945-9.408-23.945-7.948c-5.74-22.146-4.993-42.423-5.095-74.01L1519.625,571.188z"/>
			</g>
			<path style="fill:#1C1E33;" d="M1614.354,629.265c-0.077,0-0.155-0.002-0.232-0.004l-46.34-1.856
				c-2.651-0.106-4.697-2.011-4.573-4.253c0.128-2.24,2.234-5.541,4.805-5.51l45.929,0c2.651,0.106,5.333,5.508,5.207,7.75
				C1619.026,627.569,1616.903,629.265,1614.354,629.265z"/>
			<path style="fill:#1C1E33;" d="M1701.823,629.029c-0.158,0.024-0.32,0.044-0.483,0.054l-39.865,2.815
				c-2.664,0.189-4.89-1.48-4.97-3.729c-0.082-2.245,6.478-8.109,9.124-8.269l34.627-0.561c2.664-0.189,5.684,3.087,5.764,5.334
				C1706.097,626.783,1704.253,628.653,1701.823,629.029z"/>
			<path style="opacity:0.6;fill:#893F3E;" d="M1625.051,699.173c-1.051,0-1.906-0.849-1.912-1.901
				c-0.006-1.057,0.846-1.917,1.901-1.923l11.453-0.067c3.464-0.02,6.322-2.716,6.545-6.173l2.803-43.541
				c0.067-1.053,0.943-1.859,2.031-1.785c1.053,0.067,1.852,0.976,1.785,2.031l-2.853,44.339c-0.322,5.01-4.464,8.917-9.484,8.947
				l-12.257,0.072C1625.058,699.173,1625.055,699.173,1625.051,699.173z"/>
			<path style="opacity:0.6;fill:#893F3E;" d="M1496.615,652.403c-1.62-0.405-2.561-2.759-2.666-3.809
				c-0.508-5.079-0.512-7.942-5.079-11.173c-4.563-3.232-8.409-4.115-13.162-1.159c-0.894,0.555-3.217,0.143-3.979-1.888
				c-0.37-0.988,0.037-3.296,0.935-3.854c6.019-3.737,14.261-3.493,20.045,0.601c5.786,4.096,9.874,12.522,7.227,18.71
				C1499.522,650.796,1498.646,652.911,1496.615,652.403z"/>
			
				<ellipse transform="matrix(0.7071 -0.7071 0.7071 0.7071 -23.6058 1309.1677)" style="opacity:0.32;fill:#CC4C46;" cx="1568.502" cy="683.079" rx="21.635" ry="21.635"/>
			<path style="opacity:0.32;fill:#CC4C46;" d="M1666.708,691.188c0,11.972,9.697,21.643,21.643,21.643
				c3.657,0,7.07-0.894,10.076-2.492c3.251-9.887,5.905-20.315,7.991-31.015c-3.847-5.878-10.51-9.751-18.068-9.751
				C1676.406,669.573,1666.708,679.242,1666.708,691.188z"/>
			<path style="opacity:0.6;fill:#893F3E;" d="M1620.199,841.525c-12.312-3.135-32.619-16.322-42.331-24.504
				c-7.303-6.118-33.853-32.309-38.441-40.682c-6.653-12.158,12.25,1.531,25.977,8.298c16.058,7.953,36.095,13.566,57.735,15.248
				L1620.199,841.525z"/>
			<path style="fill:#1C1E33;" d="M1596.051,655.123c-7.252,0-14.87-1.699-19.991-4.499c-1.116-0.61-1.528-2.009-0.917-3.125
				c0.608-1.116,2.006-1.529,3.125-0.917c7.948,4.342,23.66,5.659,30.673,1.005c1.061-0.708,2.49-0.413,3.193,0.645
				c0.704,1.059,0.415,2.489-0.645,3.193C1607.614,653.997,1601.953,655.123,1596.051,655.123z"/>
			<path style="fill:#1C1E33;" d="M1676.322,656.157c-4.862,0-9.802-0.972-13.743-2.715c-1.164-0.514-1.69-1.875-1.176-3.038
				c0.515-1.165,1.873-1.692,3.038-1.176c8.208,3.63,19.938,2.918,24.611-1.488c0.927-0.872,2.385-0.831,3.256,0.095
				c0.873,0.926,0.831,2.385-0.095,3.256C1688.486,654.604,1682.467,656.157,1676.322,656.157z"/>
			<path style="opacity:0.86;fill:#893F3E;" d="M1627.055,746.918c-4.835-0.512-9.645-1.998-13.381-4.147
				c-1.103-0.634-1.484-2.043-0.849-3.145c0.634-1.104,2.04-1.485,3.145-0.849c7.78,4.474,19.521,5,24.631,1.111
				c1.014-0.769,2.459-0.575,3.228,0.438c0.771,1.013,0.575,2.459-0.438,3.228C1639.315,746.654,1633.166,747.565,1627.055,746.918z
				"/>
			<path style="opacity:0.86;fill:#893F3E;" d="M1625.067,733.14c-6.745-0.714-13.496-2.408-18.78-4.724
				c-1.56-0.684-2.147-2.117-1.311-3.2c0.837-1.086,2.776-1.411,4.339-0.726c11.004,4.823,27.353,5.836,34.301,2.132
				c1.378-0.732,3.396-0.477,4.507,0.573c1.113,1.051,0.901,2.498-0.476,3.231C1642.106,733.379,1633.592,734.042,1625.067,733.14z"
				/>
			<g>
				<path style="fill:#1C1E33;" d="M1474.37,506.813c5.659-12.618,15.763-20.943,37.576-22.727
					c29.96-27.919,73.942-39.958,113.944-31.19c19.559,4.287,49.668,7.025,66.381,17.755c13.758,8.833,18.123,19.4,23.776,30.569
					c4.003,7.909,11.565,10.775,16.273,17.563c5.83,8.404,6.636,23.891,4.976,33.56c-1.936,11.277-8.68,22.038-18.935,27.113
					c-12.226,6.05-19.774-1.244-31.484-1.723c-10.54-0.432-21.716,7.684-31.906,9.96c-11.947,2.668-27.679-1.815-29.615-13.902
					c-16.208,15.63-44.512,16.369-61.513,1.605c1.011,13.142-17.645,18.924-29.885,14.032c-12.24-4.892-21.939-15.428-34.75-18.529
					c-6.53-1.581-13.375-1.086-20.036-1.968c-6.658-0.882-11.22,2.701-14.469-3.176c-4.115-7.441,0.854-21.196,2.015-28
					C1468.735,525.93,1470.527,515.382,1474.37,506.813z"/>
				<g>
					<path style="fill:#3C4059;" d="M1574.962,544.451l-3.35-0.554c1.61-9.742-1.459-20.207-8.423-28.711
						c-6.962-8.505-16.615-13.58-26.484-13.924l0.119-3.393c10.845,0.378,21.412,5.906,28.993,15.167
						C1573.398,522.294,1576.731,533.745,1574.962,544.451z"/>
					<path style="fill:#3C4059;" d="M1662.547,573.58l-1.085-3.217c8.564-2.886,12.546-12.959,11.944-20.973
						c-0.569-7.554-4.163-15.281-11.311-24.315c-19.508-24.656-48.595-41.002-79.802-44.845l0.415-3.37
						c32.086,3.951,61.993,20.756,82.051,46.109c7.588,9.589,11.412,17.905,12.034,26.165
						C1677.491,558.425,1672.735,570.148,1662.547,573.58z"/>
					<path style="fill:#3C4059;" d="M1699.422,560.181l-2.906-1.758c3.957-6.546,4.755-14.963,2.189-23.092
						c-2.566-8.13-8.05-14.565-15.049-17.653l1.373-3.108c7.889,3.483,14.056,10.677,16.915,19.739
						C1704.804,543.369,1703.885,552.799,1699.422,560.181z"/>
				</g>
				<path style="fill:#3C4059;" d="M1680.831,740.26c-2.679,2.479-6.996,0.773-7.3-2.864c-0.871-10.41-4.599-21.406-17.642-26.753
					c-10.892-4.465-21.359-5.632-31.548-5.632c-7.935,0-19.166,1.695-26.598,4.476c-11.222,4.199-23.757,14.324-30.692,24.056
					c-2.179,3.057-6.549,3.525-9.202,0.869c-16.525-16.544-26.716-36.553-34.431-60.07c-7.767-23.676-11.163-27.073-14.56-44.055
					c-2.268,5.328-1.217,41.84-0.691,47.788c0.806,9.121,2.847,24.662,4.088,33.728c3.286,24.012,6.375,42.167,20.379,61.138
					c24.591,33.312,80.056,51.872,114.839,31.82c23.199-13.375,30.691-46.614,41.401-72.578
					C1686.171,735.107,1683.501,737.79,1680.831,740.26z M1645.607,761.741c-4.136,1.481-8.588,2.793-12.795,1.569
					c-4.208-1.224-4.396-5.937-3.184-10.462c-1.986,0.11-3.971,0.22-5.957,0.33c2.864,3.548-3.865,9.577-8.126,10.552
					s-8.044,0.86-12.376-0.088c-4.731-1.035-8.74-2.344-12.237-3.846c-8.635-3.708-12.283-13.994-7.752-22.227
					c3.98-7.233,9.341-13.775,14.743-16.289c9.83-4.568,21.041-4.934,31.88-4.763c8.861,0.14,18.16,0.715,25.69,5.389
					c5.791,3.595,10.006,16.409,9.833,25.739c-0.054,2.915-1.636,5.622-4.178,7.049
					C1656.266,757.435,1651.149,759.757,1645.607,761.741z"/>
			</g>
			<path style="fill:#E8EFE4;" d="M1590.375,677.909c-20.64,0-37.431-12.221-37.431-27.242s16.792-27.242,37.431-27.242
				c20.64,0,37.432,12.221,37.432,27.242S1611.015,677.909,1590.375,677.909z M1687.177,681.415
				c-17.891,0-32.446-12.269-32.446-27.351c0-15.082,14.555-27.351,32.446-27.351c17.891,0,32.446,12.269,32.446,27.351
				C1719.623,669.145,1705.068,681.415,1687.177,681.415z M1687.177,623.664c-16.643,0-30.603,9.884-34.407,23.13
				c-4.076-2.242-11.752-3.057-17.084-2.276c-2.14,0.272-3.805,0.815-5.129,1.529c-2.989-14.639-19.836-25.882-40.181-25.882
				c-11.956,0-22.655,3.906-30.093,10.054l-49.318-7.37l-15.25-2.31c1.529,1.223,2.955,2.513,4.28,3.77l10.801,1.63l46.532,6.997
				c-4.789,4.993-7.642,11.107-7.642,17.73c0,16.813,18.239,30.501,40.69,30.501c22.451,0,40.69-13.688,40.69-30.501
				c0-0.374-0.068-0.747-0.068-1.121c0.781-0.883,2.581-1.596,5.129-1.97c5.672-0.781,13.45,0.441,15.93,2.48
				c-0.237,1.291-0.373,2.649-0.373,4.008c0,16.745,15.93,30.399,35.494,30.399c19.564,0,35.494-13.654,35.494-30.399
				C1722.67,637.318,1706.74,623.664,1687.177,623.664z"/>
		</g>
		<g id="XMLID_29_">
			<path style="fill:#FFA185;" d="M1983.543,1096.989c0,0,49.908,14.128,37.399-22.647c0,0,18.118-13.101,3.776-31.502
				c0,0,25.701-22.337-8.098-41.251c0,0,27.18-27.68-14.205-39.974c0,0-25.763-11.574-28.206,12.924c0,0-3.729,14.201,10.233,20.51
				c0,0-19.902,15.536-4.813,29.178c0,0-20.735,14.939-2.096,32.146c0,0-18.348,17.706,6.12,31.962L1983.543,1096.989z"/>
			<g>
				<g>
					<path style="fill:#845B4D;" d="M1977.66,1056.887c0-0.041,0.004-0.082,0.011-0.124c0.069-0.376,0.431-0.626,0.808-0.557
						c7.617,1.399,15.494,2.846,22.985,5.492c8.43,2.977,15.216,7.135,20.168,12.359c0.264,0.279,0.252,0.72-0.026,0.982
						c-0.278,0.263-0.717,0.252-0.981-0.027c-4.8-5.063-11.402-9.101-19.623-12.005c-7.387-2.609-15.209-4.046-22.773-5.436
						C1977.893,1057.51,1977.658,1057.216,1977.66,1056.887z"/>
				</g>
				<g>
					<path style="fill:#845B4D;" d="M1979.466,1024.638c0-0.039,0.003-0.08,0.011-0.121c0.067-0.378,0.428-0.629,0.806-0.561
						c15.741,2.812,31.052,9.049,44.279,18.035c0.316,0.215,0.4,0.648,0.184,0.965c-0.215,0.317-0.648,0.4-0.965,0.185
						c-13.066-8.879-28.191-15.039-43.741-17.817C1979.701,1025.263,1979.464,1024.969,1979.466,1024.638z"/>
				</g>
				<g>
					<path style="fill:#845B4D;" d="M1984.001,995.214c0.002-0.373,0.299-0.681,0.674-0.691c11.025-0.311,18.95,1.053,29.238,5.032
						c0.358,0.138,0.536,0.541,0.398,0.898c-0.138,0.358-0.541,0.536-0.898,0.397c-10.229-3.955-17.738-5.248-28.698-4.939
						c-0.383,0.012-0.703-0.291-0.714-0.674C1984.001,995.228,1984.001,995.221,1984.001,995.214z"/>
				</g>
			</g>
		</g>
		<g>
			<path style="fill:#FFA185;" d="M1770.522,1153.625c-6.121-2.979-13.191-12.839-29.443-6.745
				c12.081,7.991,23.431,20.288,33.534,30.635c7.774,7.991,15.168,16.848,20.044,26.979c2.303,4.767,4.686,9.778,5.499,15.006
				c1.029,6.447,3.007,12.541,0.786,19.151c-1.95,5.797-7.016,10.456-12.975,11.891c1.923,5.715,1.923,12.541-1.192,17.715
				c-2.627,4.388-8.288,8.289-14.708,7.449c-3.576,8.966-17.958,10.726-27.277,4.307c-14.383-9.914-42.418-21.697-71.103-18.555
				c-23.917,19.584-43.177,57.533-81.423,123.95c-38.247,66.39-91.365,214.692-228.587,205.834
				c-93.153-6.013-144.618-124.709-168.076-200.335c-11.078-35.782-15.9-61.894-15.9-61.894s59.944-32.152,143.209-29.525
				c9.643,0.325,19.612,1.083,29.824,2.438c10.184,1.354,18.635,8.614,21.507,18.5l13.787,47.267
				c0,0,196.977-208.055,225.771-241.264c28.767-33.182,81.776-96.592,80.313-85.406c-1.489,11.512-5.065,58.86-5.065,58.86
				s44.26-3.927,64.196,0.488c19.909,4.415,55.312,37.136,57.533,52.63C1812.723,1166.708,1812.1,1173.968,1770.522,1153.625z"/>
			<g>
				<path style="fill:#845B4D;" d="M1786.704,1251.043c-15.533-38.737-48.258-65.968-83.371-69.374l0.262-2.695
					c36.109,3.502,69.717,31.395,85.622,71.061L1786.704,1251.043z"/>
				<path style="fill:#845B4D;" d="M1770.76,1276.093c-8.992-29.296-44.586-48.712-73.512-52.107l0.315-2.69
					c29.777,3.494,66.457,23.609,75.787,54.003L1770.76,1276.093z"/>
				<path style="fill:#845B4D;" d="M1739.782,1147.904c-5.777-2.943-13.882-4.813-25.505-5.886l0.249-2.698
					c11.976,1.106,20.392,3.067,26.486,6.171L1739.782,1147.904z"/>
			</g>
			<path style="opacity:0.6;fill:#893F3E;" d="M1322.908,1299.489c-84.647,10.076-117.313,67.69-127.309,91.419
				c-11.078-35.782-15.9-61.894-15.9-61.894S1239.644,1296.861,1322.908,1299.489z"/>
		</g>
		<path style="fill:#34437A;" d="M1380.951,1325.933c-0.999,0-0.181-2.291-0.254-3.301l-10.936-156.751
			c-0.075-1.057,0.719-1.976,1.778-2.053c1.091-0.057,1.977,0.722,2.053,1.778l10.661,156.772c0.075,1.057-0.466,3.479-1.524,3.555
			C1382.682,1325.936,1380.996,1325.933,1380.951,1325.933z"/>
	</g>
</g>
<g id="person_1">
	<g>
		<path style="fill:#7E4B39;" d="M3980.767,2457.605c-8.323,8.323,0,99.883,0,99.883s99.883,16.647,108.207,0
			c8.324-16.647,0-46.236,0-46.236v-53.647H3980.767z"/>
		<g>
			<path style="fill:#FEB101;" d="M3934.824,2614.902c1.275-11.476,17.972-85.347,38.374-104.473
				c20.402-19.127,26.657,27.967,52.159,26.692c25.502-1.275,76.845-43.449,76.845-43.449s21.338,53.65,69.792,63.213
				c48.455,9.563,114.845,35.066,114.76,58.018C4286.719,2624.861,3934.824,2614.902,3934.824,2614.902z"/>
			<polygon style="fill:#6E92F9;" points="4286.84,2646.78 3934.824,2649.047 3934.824,2604.701 4286.84,2614.902 			"/>
		</g>
	</g>
	<g>
		<path style="fill:#6E92F9;" d="M4135.412,2480.593l-183.074,50.533c0,0-146.323-523.021-138.922-608.348
			c-0.68-0.596-1.361-1.276-2.042-1.871c-0.169-0.17-0.34-0.255-0.51-0.426c-0.426-0.426-0.937-0.852-1.447-1.191
			c-0.34-0.255-0.68-0.51-1.106-0.851c-53.084-39.984-241.094-46.109-241.094-46.109l69.42,662.794
			c-25.267,31.561-201.96,0-201.96,0L3308.43,1941.75c0,0-1.531-0.341-4.765-1.191c-2.466-0.765-6.125-1.787-10.888-3.318
			c-26.202-8.252-87.284-30.286-198.983-83.881c-157.894-75.799-113.656-208.34-113.656-208.34l523.956-94.685
			c0,0,460.833,176.779,479.804,220.931C4002.785,1815.502,4135.412,2480.593,4135.412,2480.593z"/>
		<g>
			<path style="fill:#1F2E77;" d="M3565.799,1870.789c0-0.739-0.191-74.604-16.333-106.88
				c-15.968-31.935-119.649-74.845-120.695-75.277l2.243-5.45c4.353,1.786,106.78,44.189,123.728,78.085
				c16.765,33.53,16.956,106.431,16.956,109.521H3565.799z"/>
			<path style="fill:#1F2E77;" d="M3312.719,1941.471l-5.898-0.199c0.748-21.625,12.104-42.926,29.638-55.604l3.456,4.785
				C3323.822,1902.084,3313.4,1921.632,3312.719,1941.471z"/>
			<path style="fill:#1F2E77;" d="M3814.351,1920.141l-3.487,0.341c-0.426-0.426-0.937-0.852-1.447-1.191
				c-0.34-0.255-0.68-0.51-1.106-0.851c-1.36-15.313-0.341-35.985,17.865-49.597l3.488,4.765
				C3812.991,1886.027,3812.906,1906.104,3814.351,1920.141z"/>
			<path style="fill:#1F2E77;" d="M3303.666,1940.558c-2.466-0.765-6.125-1.787-10.888-3.318
				c-9.954-13.016-14.378-30.031-11.655-46.193l5.784,1.02C3284.015,1909.677,3290.48,1928.478,3303.666,1940.558z"/>
		</g>
	</g>
	<path style="fill:#7E4B39;" d="M3631.177,1217.392c0,0,99.883,136.64,99.883,149.824c0,13.184-115.562,94.56-136.177,87.968
		c-20.615-6.592-109.949-138.436-109.949-138.436L3631.177,1217.392z"/>
	<g>
		<path style="fill:#FEB101;" d="M3443.813,1309.285l-6.991-5.744l44.531,246.794l-498.083,208.089
			c0,0-34.625-24.971-51.273-133.177c-13.235-85.817,49.941-249.707,49.941-249.707l-149.824-32.462c0,0,1.581-8.324,4.162-21.808
			l0.083-0.417c0.083-0.749,0.25-1.581,0.417-2.331c1.081-5.576,2.331-11.902,3.745-18.81c0.333-1.832,0.667-3.746,1.082-5.744
			c9.239-47.027,23.139-115.78,31.712-148.576c11.82-45.281,55.02-124.105,154.486-172.798c2.331-1.249,4.578-2.33,6.991-3.413
			c14.484-6.741,30.131-12.901,47.029-18.145c76.743-23.972,114.699-28.633,142.666-28.217c2.83,0,5.494,0.083,8.157,0.25
			c16.647,0.749,30.548,2.996,48.943,2.996c33.294,0,118.361,30.464,166.471,83.236c24.139,26.468,104.045,117.695,149.991,170.133
			c1.331,1.499,2.581,2.997,3.912,4.412c5.659,6.576,10.821,12.402,15.066,17.314c1.414,1.581,2.663,3.079,3.912,4.411
			c6.493,7.491,10.238,11.82,10.238,11.82l-146.246,125.686l-13.816-11.32l-1.831-1.498l-0.083-0.083l-20.726-17.064
			L3443.813,1309.285z"/>
		<g>
			<path style="fill:#FFFFFF;" d="M3211.752,1022.038c-16.73,7.075-34.876,9.156-51.523,9.156c-11.152,0-21.64-0.999-30.38-1.998
				c-19.727-2.331-45.53-6.326-69.586-15.898c-9.321-3.662-22.473-9.905-29.215-21.641c-3.246-5.66-4.412-12.569-3.246-19.061
				c2.331-1.249,4.578-2.33,6.991-3.413c-0.332,0.75-0.582,1.499-0.749,2.164c-1.664,5.66-0.833,12.319,2.081,17.397
				c5.826,9.988,17.064,15.482,26.302,19.144c23.473,9.239,48.694,13.151,68.087,15.398c21.059,2.581,52.189,4.578,78.992-6.742
				c29.964-12.652,42.449-34.71,35.209-62.095c-3.248-12.235-11.82-22.557-20.227-31.629c2.83,0,5.494,0.083,8.157,0.25
				c7.491,8.573,14.649,18.228,17.729,29.881C3258.364,983.083,3244.297,1008.304,3211.752,1022.038z"/>
			
				<rect x="2933.206" y="1229.531" transform="matrix(0.083 -0.9965 0.9965 0.083 1367.1561 4145.3457)" style="fill:#FFFFFF;" width="5.905" height="200.458"/>
			<path style="fill:#FFFFFF;" d="M3036.291,1310.199l-0.5,5.827l-195.271-16.314c0.333-1.832,0.667-3.746,1.082-5.744
				L3036.291,1310.199z"/>
			<path style="fill:#FFFFFF;" d="M3620.939,1205.572l-149.824,126.186l-0.333,0.25l-1.498-1.748l-0.083-0.083l-2.248-2.664
				l150.074-126.351C3618.442,1202.742,3619.69,1204.24,3620.939,1205.572z"/>
			<path style="fill:#FFFFFF;" d="M3601.961,1183.848l-153.486,129.266l-4.662-3.829l154.236-129.849
				C3599.38,1180.935,3600.63,1182.433,3601.961,1183.848z"/>
		</g>
		<path style="opacity:0.5;fill:#11100E;" d="M3035.891,1374.454l-5.994,56.938c5.495-50.535,7.208-171.845,10.914-222.64
			l2.888,0.423C3039.985,1260.042,3041.398,1323.854,3035.891,1374.454z"/>
		<path style="opacity:0.5;fill:#11100E;" d="M3433.677,1305.984c-1.825-14.574-3.435-29.1-5.215-45.406
			c-4.353-39.943-9.38-86.3-17.76-130.031l2.799-1.106c8.421,43.967,13.371,89.357,17.736,129.406
			c1.776,16.273,3.475,31.856,5.296,46.406L3433.677,1305.984z"/>
	</g>
	<polygon style="fill:#FFFFFF;" points="3636.113,1422.224 3285.652,1527.698 3526.165,1639.766 	"/>
	<path style="fill:#7E4B39;" d="M3595.701,1452.582c-30.08,4.87-70.66,14.071-85.621,30.555c8.511,11.834,26.849,3.818,41.413,4.424
		c13.504,0.562,24.969,9.5,37.325,14.978c12.356,5.479,29.644,6.114,36.625-5.46c5.208-8.635,1.65-20.464-5.678-27.392
		c-7.328-6.927-17.465-9.95-27.34-11.991L3595.701,1452.582z"/>
	<path style="fill:#97A8B8;" d="M3978.413,1282.326l-359.87,51.784c-10.152,1.461-18.411,8.922-20.891,18.874l-71.487,286.782
		l-240.513-112.067l-12.279,21.092c-4.554,7.823,10.445,13.433,18.555,17.453l230.748,116.872l422.668-76.312l61.367-294.351
		C4010.284,1295.313,3995.743,1279.832,3978.413,1282.326z"/>
	<g>
		<path style="fill:#7E4B39;" d="M3031.396,1362.894v85.698l329.846,151.62c0,0,41.231-19.776,68.718-19.776
			c27.487,0,54.974-6.592,54.974,6.592s-41.231,13.184-48.103,26.369c-6.872,13.184,20.615,46.145,27.487,46.145
			c6.872,0,48.103,19.776,48.103,19.776s-96.205,13.184-116.821,6.592c-20.615-6.592-34.359-19.776-48.103-19.776
			c-13.743,0-371.077-26.369-439.794-65.922c-68.718-39.553-58.943-257.967-58.943-257.967S3010.781,1349.71,3031.396,1362.894z"/>
		<path style="opacity:0.5;fill:#351C0F;" d="M3022.359,1359.407l-174.058,16.386l-1.203-34.303c0,0,72.547,3.898,96.652,6.884
			C2984.947,1353.477,3022.359,1359.407,3022.359,1359.407z"/>
		<polygon style="fill:#351C0F;" points="3632.238,1218.625 3514.165,1358.641 3496.318,1333.292 		"/>
	</g>
	<g>
		<path style="fill:#7E4B39;" d="M3288.477,699.242c-11.978-20.996-34.175-35.864-58.157-38.935
			c-39.004-5.006-90.247,10.029-110.521,42.882c-9.917,16.064-12.69,33.508-18.539,51.511c-9.391-8.507-25.568-11.671-38.337-8.48
			c-12.433,3.12-20.682,17.786-23.321,29.726c-2.615,11.86-0.454,24.892,6.646,34.746c7.426,10.294,18.77,14.965,31.066,15.502
			c-5.875,21.322-9.491,53.545-11.64,75.967c-2.089,21.667-4.178,43.344-6.268,65.024c-1.049,10.879,4.962,21.277,14.985,25.634
			c30.022,13.049,62.673,20.056,95.408,20.37c20.585,0.197,43.783-3.652,55.616-20.5c6.666-9.494,9.774-23.924,10.454-38.554
			c0.658-13.971,0.554-21.91-2.241-32.069c1.273-0.01,0.037,0.152,1.273-0.01c15.763-1.837,30.317-20.624,37.423-35.054
			c13.217-26.811,23.721-70.229,27.279-99.903C3303.386,755.69,3304.147,726.738,3288.477,699.242z"/>
		<path style="opacity:0.5;fill:#351C0F;" d="M3233.897,923.248c2.795,10.16,1.607,28.05,0.949,42.021
			c-3.554-8.03-8.257-11.383-15.164-17.523c-8.946-7.952-19.753-15.416-29.824-21.898c-2.086-1.345-18.103-11.088-19.248-12.025
			c5.406,2.148,20.983,6.106,30.299,8.186C3219.912,926.253,3233.897,923.248,3233.897,923.248z"/>
		<path style="fill:#11100E;" d="M3257.718,762.145c-2.147-0.177-3.953-1.833-4.24-4.056c-0.329-2.556,1.477-4.895,4.032-5.225
			c11.777-1.519,24.949,0.478,32.823,1.671c2.131,0.323,3.972,0.602,5.189,0.721c2.565,0.251,4.442,2.534,4.19,5.1
			c-0.251,2.565-2.606,4.396-5.099,4.19c-1.461-0.143-3.322-0.425-5.677-0.782c-7.87-1.191-19.758-2.991-30.232-1.642
			C3258.37,762.165,3258.04,762.172,3257.718,762.145z"/>
		<path style="fill:#11100E;" d="M3191.78,795.548c3.326,0.27,6.502-5.604,7.132-13.156c0.06-0.929,0.12-1.858,0.09-2.757
			c0-1.049-0.09-2.098-0.21-3.057c-3.596-0.27-7.282-0.12-11.177,0.45c-0.209,0.959-0.389,2.008-0.51,3.086
			c-0.06,0.42-0.12,0.839-0.15,1.289C3186.326,788.955,3188.483,795.278,3191.78,795.548z"/>
		<path style="fill:#11100E;" d="M3264.241,802.14c3.327,0.27,6.503-5.604,7.133-13.156c0.12-1.588,0.12-3.087,0.03-4.525
			c-0.09-1.109-0.24-2.128-0.42-3.087c-3.356-0.479-6.743-0.599-10.129-0.33c-0.36,0.929-0.63,1.978-0.869,3.057
			c-0.27,1.229-0.45,2.547-0.569,3.896C3258.787,795.548,3260.945,801.871,3264.241,802.14z"/>
		<path style="fill:#FFFFFF;" d="M3253.465,853.215c-2.43,11.746-16.459,18.773-31.334,15.696
			c-14.875-3.078-24.964-15.094-22.533-26.841L3253.465,853.215z"/>
		<path style="fill:#11100E;" d="M3220.122,761.218l-54.324-4.487c-2.569-0.212-4.48-2.467-4.268-5.035
			c0.212-2.569,2.467-4.479,5.036-4.267l54.324,4.487c2.569,0.212,4.48,2.467,4.268,5.035S3222.69,761.43,3220.122,761.218z"/>
		<path style="fill:#4F281D;" d="M3221.649,839.386c-0.803-0.066-1.479-0.684-1.59-1.516c-0.126-0.958,0.549-1.837,1.506-1.964
			c7.252-0.955,14.257-3.11,20.823-6.406c1.814-0.909,2.907-2.91,2.723-4.976l-1.754-19.453c-0.087-0.962,0.623-1.814,1.585-1.9
			c0.96-0.084,1.813,0.623,1.9,1.586l1.753,19.454c0.314,3.487-1.55,6.87-4.636,8.418c-6.916,3.471-14.297,5.741-21.936,6.748
			C3221.897,839.393,3221.771,839.396,3221.649,839.386z"/>
		<path style="fill:#4F281D;" d="M3244.955,806.658c-0.852-0.07-1.546-0.757-1.601-1.636l-1.989-32.014
			c-0.061-0.964,0.673-1.795,1.637-1.855c0.965-0.065,1.795,0.673,1.855,1.638l1.989,32.014c0.061,0.964-0.672,1.795-1.637,1.855
			C3245.123,806.666,3245.038,806.665,3244.955,806.658z"/>
		<path style="fill:#4F281D;" d="M3060.371,792.855c0.498,0,0.983-0.247,1.267-0.701c0.442-0.701,0.231-1.626-0.468-2.066
			c-3.918-2.464-6.473-7.082-6.839-12.354c-0.366-5.272,1.533-10.199,5.074-13.178c3.538-2.981,8.721-4.012,13.851-2.747
			c5.133,1.26,9.248,4.568,11.004,8.85c0.316,0.767,1.197,1.133,1.955,0.816c0.767-0.315,1.133-1.19,0.819-1.955
			c-2.122-5.164-7.003-9.134-13.061-10.622c-6.061-1.487-12.227-0.23-16.5,3.363c-4.27,3.595-6.564,9.455-6.134,15.68
			c0.433,6.223,3.509,11.712,8.232,14.684C3059.821,792.78,3060.096,792.855,3060.371,792.855z"/>
		<path style="fill:#11100E;" d="M3170.833,783.111c0.239,0.629,0.809,0.989,1.408,0.989c0.18,0,0.36-0.03,0.509-0.09
			c5.035-1.858,9.829-3.146,14.354-3.896c4.166-0.629,8.121-0.809,11.897-0.479c2.518,0.18,4.975,0.599,7.342,1.229
			c0.809,0.21,1.618-0.27,1.828-1.079c0.21-0.779-0.27-1.618-1.079-1.828c-2.697-0.719-5.454-1.199-8.301-1.379
			c-3.596-0.27-7.282-0.12-11.177,0.45c-5.004,0.689-10.279,2.098-15.882,4.165C3170.953,781.493,3170.563,782.332,3170.833,783.111
			z"/>
		<path style="fill:#11100E;" d="M3249.078,784.999c0.239,0.779,1.108,1.229,1.887,0.959c2.937-0.929,5.964-1.558,9.02-1.858
			c3.806-0.36,7.642-0.24,11.418,0.36c4.255,0.659,8.391,1.948,12.286,3.836c0.21,0.09,0.45,0.15,0.659,0.15
			c0.57,0,1.079-0.3,1.348-0.839c0.36-0.749,0.06-1.648-0.689-2.008c-4.405-2.158-9.169-3.566-14.024-4.226
			c-3.356-0.479-6.743-0.599-10.129-0.33c-3.656,0.24-7.282,0.959-10.818,2.068C3249.257,783.381,3248.838,784.22,3249.078,784.999z
			"/>
		<path style="fill:#11100E;" d="M3289.971,702.5c-52.037,16.444-109.425,14.996-161.182-2.308
			c-2.997,26.97-20.977,44.951-30.195,57.643c-6.582-3.849-13.165-7.698-19.747-11.547c-1.056-26.831-1.885-54.859,9.508-79.174
			c11.394-24.315,39.156-43.236,64.808-35.3c24.125-21.415,59.3-26.648,91.117-21.328c31.817,5.32,61.221,19.905,90.085,34.31
			c-31.767,25.429-4.796,70.38-31.767,109.337C3296.605,727.162,3293.09,701.525,3289.971,702.5z"/>
		<g>
			<path style="fill:#11100E;" d="M3146.682,635.884l2.979-0.304c-1.978-19.455,13.909-39.23,33.335-41.487l-0.345-2.976
				C3161.689,593.552,3144.545,614.889,3146.682,635.884z"/>
			<path style="fill:#11100E;" d="M3308.979,745.378c11.838-13.029,19.034-29.878,20.257-47.446c0.19-2.752,0.237-5.541,0.281-8.238
				c0.07-4.27,0.144-8.684,0.802-12.919c0.699-4.51,2.836-12.746,9.262-17.237l-1.715-2.455c-5.44,3.8-9.172,10.63-10.509,19.233
				c-0.691,4.438-0.764,8.958-0.837,13.329c-0.044,2.659-0.088,5.407-0.275,8.08c-1.177,16.899-8.095,33.106-19.485,45.637
				L3308.979,745.378z"/>
			<path style="fill:#11100E;" d="M3151.829,634.931l2.88-0.825c-2.771-9.66-9.953-17.753-19.215-21.65
				c-9.265-3.898-20.07-3.374-28.911,1.399l1.422,2.637c7.937-4.283,18.024-4.773,26.324-1.273
				C3142.637,618.714,3149.345,626.268,3151.829,634.931z"/>
			<path style="opacity:0.55;fill:#C6C5C4;" d="M3095.377,718.278l2.868-0.869c-3.875-12.801-2.306-27.418,4.194-39.105
				c6.5-11.688,18.094-20.73,31.012-24.189l-0.772-2.894c-13.69,3.664-25.973,13.244-32.856,25.626
				C3092.934,689.228,3091.271,704.716,3095.377,718.278z"/>
			<path style="opacity:0.55;fill:#C6C5C4;" d="M3206.645,709.737c12.569,0,25.144-1.618,37.333-4.881
				c14.545-3.892,33.526-12.123,41.348-29.231l-2.727-1.247c-7.337,16.049-25.472,23.858-39.394,27.584
				c-29.648,7.935-61.629,5.942-90.051-5.609l-1.13,2.777C3169.365,706.174,3188,709.737,3206.645,709.737z"/>
			<path style="opacity:0.55;fill:#C6C5C4;" d="M3209.63,695.176c3.198,0,6.403-0.192,9.611-0.641
				c13.933-1.952,25.557-9.129,31.1-19.199l-2.628-1.446c-5.086,9.248-15.885,15.856-28.887,17.677
				c-11.931,1.667-24.07-0.419-35.811-2.438l-0.509,2.953C3191.375,693.61,3200.468,695.176,3209.63,695.176z"/>
		</g>
	</g>
	<g>
		<path style="fill:#FEB101;" d="M3517.477,2524.998c7.451-3.649,17.573-6.928,25.76-8.27c18.845-3.089,34.601,13.443,46.503,28.377
			c9.286,23.088,18.572,46.177,27.857,69.265c2.573,6.397,5.039,14.08,1.165,19.785c-3.903,5.748-12.033,6.247-18.98,6.164
			c-55.005-0.659-110.01-1.319-165.014-1.978c-6.072-18.59,7.122-37.461,19.519-52.587c12.18-14.86,12.922-21.999,25.709-36.337
			C3489.746,2538.484,3505.396,2531.896,3517.477,2524.998z"/>
		<path style="fill:#6E92F9;" d="M3622.114,2658.808l-187.311,1.204c0,0-1.56-29.809-1.561-29.951
			c0.01,1.487,78.459-12.658,85.022-12.957c26.616-1.212,53.388,0.884,79.48,6.288c9.799,2.029,20.331,1.966,24.218,11.223
			C3624.435,2640.508,3622.072,2652.208,3622.114,2658.808z"/>
	</g>
	<polygon style="opacity:0.5;fill:#11100E;" points="3068.455,1465.627 3036.291,1310.199 3029.897,1452.369 	"/>
</g>
<g id="floor">
	<g>
		<path style="fill:#1C1E33;" d="M4114.456,3190.892H752.212H4114.456z"/>
		<path style="fill:#1C1E33;" d="M4114.457,3203.664H752.212c-7.054,0-12.772-5.719-12.772-12.772
			c0-7.053,5.718-12.772,12.772-12.772h3362.245c7.053,0,12.772,5.719,12.772,12.772
			C4127.229,3197.945,4121.51,3203.664,4114.457,3203.664z"/>
	</g>
</g>
</svg>
