<?xml version="1.0" encoding="utf-8"?>
<!-- Generator: Adobe Illustrator 27.5.0, SVG Export Plug-In . SVG Version: 6.00 Build 0)  -->
<svg version="1.1" id="Ñëîé_1" xmlns="http://www.w3.org/2000/svg" xmlns:xlink="http://www.w3.org/1999/xlink" x="0px" y="0px"
	 viewBox="0 0 2500 1664" style="enable-background:new 0 0 2500 1664;" xml:space="preserve">
<rect x="0" style="fill:#FFFFFF;" width="2500" height="1664"/>
<g>
	<path style="fill:#DCE5F7;" d="M488.963,583.684H796.83c-2.07-25.784-18.933-69.759-22.075-74.827
		c-1.277-2.05-2.39-3.956-3.317-5.429c-14.37-22.807-54.018-38.011-71.922-10.661c-12.505,19.119-2.101,56.367-28.142,65.885
		c-29.863,10.919-37.382-28.348-40.04-48.487c-3.266-24.743-2.72-50.094-10.013-74.177c-3.09-7.211-8.241-15.452-16.482-16.482
		c-8.241,0-15.451,6.181-18.552,13.401c-9.137,22.189-11.651,46.128-14.988,69.686c-2.719,19.108-6.427,61.27-31.84,63.64
		c-13.494,1.246-25.701-22.837-38.207-12.165C493.321,560.837,493.743,574.99,488.963,583.684z"/>
</g>
<path style="fill:#DCE5F7;" d="M2073.216,923.318c-5.143,2.42-8.677,6.895-13.74,9.458c-26.242,13.289-24.74-34.682-24.63-48.547
	c0.23-29.19-1.031-66.686-37.325-73.189c-23.142-4.147-45.311,11.353-50.958,34.192c-7.071,28.598,4.283,109.591-48.994,98.532
	c-14.184-2.944-24.745-14.62-33.387-26.245c-10.945-14.724-21.638-31.156-41.005-34.65c-29.352-5.295-58.994,11.657-79.098,31.719
	c-13.373,13.346-23.871,30.486-30.593,48.135c-0.008,0.021-0.11,0.348-0.129,0.348c18.901-0.026,37.802-0.043,56.703-0.065
	c25.055-0.03,50.111-0.076,75.166-0.114c21.377-0.033,264.967-0.356,264.967-0.196
	C2108.706,944.666,2098.708,911.323,2073.216,923.318z"/>
<g>
	<path style="fill:#FCCC6C;" d="M1944.642,531.806L1944.642,531.806c-14.267,0-25.833-11.566-25.833-25.833l0,0
		c0-14.267,11.566-25.833,25.833-25.833h0c14.267,0,25.833,11.566,25.833,25.833l0,0
		C1970.475,520.24,1958.909,531.806,1944.642,531.806z"/>
	<path style="fill:#44D4F4;" d="M1879.058,591.943L1879.058,591.943c-7.578,0-13.721-6.143-13.721-13.721l0,0
		c0-7.578,6.143-13.721,13.721-13.721l0,0c7.578,0,13.721,6.143,13.721,13.721l0,0
		C1892.779,585.8,1886.636,591.943,1879.058,591.943z"/>
	<g>
		<path style="fill:#FC346C;" d="M1944.642,557.473h-47c-1.381,0-2.5-1.119-2.5-2.5v-47c0-1.381,1.119-2.5,2.5-2.5h47
			c1.381,0,2.5,1.119,2.5,2.5v47C1947.142,556.354,1946.023,557.473,1944.642,557.473z M1900.142,552.473h42v-42h-42V552.473z"/>
	</g>
</g>
<g>
	<path style="fill:#240448;" d="M548.515,618.952c-1.294,0-2.487-0.843-2.875-2.146c-0.472-1.588,0.433-3.258,2.021-3.731
		c5.839-1.736,19.112-6.168,28.844-13.042c-4.92-2.366-9.457-5.689-13.274-9.848c-4.297-4.682-6.016-9.258-5.109-13.6
		c0.804-3.85,3.744-7.218,8.277-9.485c5.636-2.819,12.544-2.871,18.028-0.136c4.95,2.468,8.229,6.831,9.232,12.285
		c1.305,7.088-1.119,13.193-5.515,18.37c3.919,0.741,7.927,0.812,11.84,0.142c9.869-1.686,17.557-7.883,21.648-17.449
		c0.651-1.523,2.414-2.231,3.938-1.579c1.523,0.651,2.23,2.414,1.579,3.938c-4.919,11.503-14.207,18.963-26.154,21.003
		c-5.954,1.017-12.087,0.587-17.922-1.119c-10.229,8.426-25.171,13.734-33.703,16.271
		C549.086,618.912,548.797,618.952,548.515,618.952z M575.629,570.937c-2.241,0-4.507,0.511-6.546,1.53
		c-1.333,0.667-4.498,2.522-5.088,5.346c-0.609,2.917,1.653,6.132,3.657,8.316c3.959,4.314,8.808,7.585,14.037,9.63
		c4.475-4.398,7.151-9.554,6.07-15.424c-0.838-4.555-3.731-6.865-6.009-8.001C579.88,571.402,577.767,570.937,575.629,570.937z"/>
</g>
<g>
	<path style="fill:#DCE5F7;" d="M1984.731,422.143H1372.64c-0.22-4.566,0.018-9.493,0.679-14.622v-0.009
		c1.948-15.213,7.589-32.198,15.865-46.759c12.939-22.802,32.339-39.663,54.118-34.454c6.672,1.587,13.565,5.253,20.563,11.449
		c10.489,9.29,18.933,20.695,29.324,30.1c10.383,9.405,23.674,16.958,37.645,15.936c17.505-1.269,30.082-16.923,32.7-33.414
		c6.302-39.672,5.905-118.046,55.511-128.905c0.934-0.203,1.869-0.388,2.785-0.538c42.378-7.254,71.614,34.154,82.896,71.253
		c1.287,4.213,2.336,8.373,3.147,12.401c2.309,9.695,3.191,20.272,3.57,30.99c0.071,0.679,0.15,1.349,0.229,2.018
		c0.335,2.873,0.714,5.72,1.199,8.523c1.181,6.91,2.935,13.503,5.87,19.32c1.119,2.239,2.697,4.548,5.13,5.139
		c6.769,1.639,12.445-6.205,16.324-12.454c1.093-1.754,2.045-3.385,2.838-4.645c12.295-19.514,46.221-32.524,61.539-9.123
		c10.7,16.359,1.798,48.23,24.08,56.375c25.552,9.343,31.986-24.256,34.26-41.488c2.794-21.171,2.327-42.863,8.568-63.47
		c2.644-6.17,7.051-13.221,14.102-14.103c7.051,0,13.221,5.288,15.874,11.467c7.818,18.985,9.969,39.469,12.824,59.627
		c2.327,16.35,5.5,52.426,27.244,54.453c11.546,1.066,21.991-19.541,32.691-10.409
		C1981.003,402.594,1980.642,414.704,1984.731,422.143z"/>
</g>
<g>
	<g>
		<g>
			<path style="fill:#FFFFFF;" d="M693.209,1306.907V682.51c0-11.382,9.264-20.642,20.65-20.642h1072.285
				c11.382,0,20.642,9.26,20.642,20.642v624.397H693.209z"/>
			<path style="fill:#44D4F4;" d="M1786.145,678.917c1.981,0,3.593,1.612,3.593,3.593v607.348H710.258V682.51
				c0-1.981,1.615-3.593,3.601-3.593H1786.145L1786.145,678.917z M1786.145,644.819H713.859c-20.818,0-37.699,16.872-37.699,37.691
				v641.446h1147.676V682.51C1823.836,661.691,1806.964,644.819,1786.145,644.819L1786.145,644.819z"/>
		</g>
		<g>
			<g>
				<path style="fill:#240448;" d="M1831.937,1033.265c-1.294,0-2.39-0.997-2.49-2.31l-32.789-428.804
					c-0.716-9.374-5.039-17.906-12.173-24.026c-7.133-6.12-16.222-9.089-25.598-8.379l-23.792,1.819
					c-1.354,0.104-2.578-0.925-2.684-2.302c-0.105-1.376,0.926-2.578,2.303-2.683l23.792-1.819
					c10.703-0.818,21.088,2.58,29.234,9.569c8.147,6.99,13.084,16.734,13.903,27.44l32.789,428.804
					c0.104,1.377-0.926,2.578-2.303,2.684C1832.066,1033.263,1832.001,1033.265,1831.937,1033.265z"/>
			</g>
			<g>
				<path style="fill:#240448;" d="M659.053,788.71c-1.331,0-2.437-1.048-2.496-2.391l-4.239-96.747
					c-1.685-22.015,14.922-41.367,37.023-43.057l987.118-73.991c1.384-0.102,2.576,0.93,2.68,2.306
					c0.104,1.377-0.93,2.577-2.307,2.68l-987.113,73.991c-19.349,1.479-33.889,18.424-32.41,37.771l4.244,96.828
					c0.061,1.379-1.009,2.546-2.388,2.607C659.127,788.709,659.09,788.71,659.053,788.71z"/>
			</g>
		</g>
		<path style="fill:#44D4F4;" d="M1329.724,1410.889h556.153c24.007,0,43.468-19.461,43.468-43.468v0
			c0-24.007-19.461-43.468-43.468-43.468H614.123c-24.007,0-43.468,19.461-43.468,43.468v0c0,24.006,19.461,43.468,43.468,43.468
			H1329.724z"/>
		<rect x="797.379" y="732.231" style="fill:#DCE5F7;" width="886.868" height="75.098"/>
		
			<ellipse transform="matrix(0.7071 -0.7071 0.7071 0.7071 -298.749 824.2828)" style="fill:#FFFFFF;" cx="845.623" cy="772.763" rx="13.639" ry="13.639"/>
		
			<ellipse transform="matrix(0.1602 -0.9871 0.9871 0.1602 -10.7358 1532.9081)" style="fill:#FFFFFF;" cx="895.491" cy="772.763" rx="13.639" ry="13.639"/>
		
			<ellipse transform="matrix(0.1602 -0.9871 0.9871 0.1602 31.1444 1582.1323)" style="fill:#FFFFFF;" cx="945.359" cy="772.763" rx="13.639" ry="13.639"/>
	</g>
	<g>
		<rect x="797.379" y="1062.59" style="fill:#DCE5F7;" width="69.218" height="162.598"/>
		<rect x="913.1" y="902.49" style="fill:#DCE5F7;" width="69.218" height="322.698"/>
		<rect x="1028.822" y="1010.121" style="fill:#DCE5F7;" width="69.218" height="215.067"/>
		<rect x="1144.542" y="953.381" style="fill:#DCE5F7;" width="69.218" height="271.807"/>
		<rect x="1260.264" y="1171.566" style="fill:#DCE5F7;" width="69.218" height="53.622"/>
		<rect x="1375.985" y="953.381" style="fill:#DCE5F7;" width="69.218" height="271.807"/>
		<rect x="1491.706" y="1063.839" style="fill:#DCE5F7;" width="69.218" height="161.349"/>
		<rect x="1607.427" y="902.49" style="fill:#DCE5F7;" width="69.218" height="322.698"/>
	</g>
</g>
<g>
	<g>
		<g>
			<path style="fill:#FCCC6C;" d="M947.35,351.54c-13.691,138.86-28.53,551.077,241.859,769.46
				c328.572-113.237,455.01-505.828,489.436-641.099c-8.016-1.157-15.927-2.408-23.693-3.771
				c-188.883-33.154-278.894-126.671-319.234-189.817c-59.458,45.629-175.937,102.902-364.795,69.753
				C963.144,354.701,955.28,353.182,947.35,351.54z"/>
		</g>
		<g>
			<g>
				<path style="fill:#240448;" d="M826.726,461.567c-1.466,0-2.727-1.103-2.891-2.594c-2.363-21.525-4.178-42.843-5.392-63.361
					c-0.049-0.824,0.255-1.63,0.835-2.218c0.581-0.587,1.396-0.903,2.208-0.862c8.294,0.389,16.336,0.648,23.903,0.772
					c185.97,3.046,291.454-66.385,347.19-125.163c0.562-0.592,1.33-0.929,2.161-0.908c0.815,0.013,1.589,0.368,2.13,0.978
					c25.857,29.133,57.297,54.311,93.444,74.833c1.398,0.794,1.889,2.571,1.095,3.97c-0.795,1.399-2.571,1.889-3.97,1.095
					c-35.73-20.285-66.941-45.062-92.817-73.679c-33.122,34.297-73.772,62.207-120.875,82.985
					c-62.924,27.757-135.828,41.806-216.833,41.808c-3.858,0-7.726-0.032-11.621-0.096c-6.636-0.108-13.633-0.32-20.842-0.631
					c1.205,19.426,2.943,39.541,5.172,59.843c0.175,1.599-0.978,3.037-2.577,3.212C826.939,461.561,826.832,461.567,826.726,461.567
					z"/>
			</g>
			<g>
				<path style="fill:#240448;" d="M1385.736,936.65c-0.585,0-1.175-0.176-1.688-0.541c-1.31-0.934-1.614-2.752-0.681-4.061
					c132.365-185.622,167.906-424.142,177.157-521.511c-7.21,0.075-14.204,0.058-20.839-0.05
					c-76.403-1.25-145.62-14.586-205.729-39.637c-1.484-0.619-2.187-2.323-1.567-3.808c0.618-1.485,2.326-2.186,3.807-1.567
					c59.425,24.766,127.921,37.951,203.584,39.189c7.567,0.124,15.611,0.127,23.902,0.01c0.846-0.004,1.617,0.328,2.179,0.934
					c0.561,0.606,0.838,1.422,0.762,2.245c-4.92,53.441-16.29,136.888-42.515,230.943c-32.178,115.404-77.935,215.206-136,296.633
					C1387.542,936.226,1386.647,936.65,1385.736,936.65z"/>
			</g>
			<g>
				<path style="fill:#240448;" d="M1180.83,1120.389c-0.502,0-1.003-0.13-1.452-0.388
					c-52.985-30.479-101.295-70.165-143.585-117.957c-1.066-1.204-0.953-3.045,0.251-4.11c1.203-1.066,3.045-0.953,4.11,0.251
					c41.498,46.897,88.842,85.906,140.73,115.962c58.562-31.408,111.802-73.929,158.256-126.396c1.066-1.205,2.907-1.317,4.109-0.25
					c1.204,1.065,1.316,2.906,0.25,4.11c-47.292,53.415-101.562,96.627-161.302,128.436
					C1181.771,1120.274,1181.3,1120.389,1180.83,1120.389z"/>
			</g>
			<g>
				<path style="fill:#240448;" d="M956.956,889.548c-1.007,0-1.986-0.523-2.525-1.457c-36.794-63.79-67.052-137.143-89.932-218.023
					c-0.438-1.547,0.462-3.157,2.009-3.594c1.551-0.437,3.157,0.462,3.595,2.009c22.749,80.417,52.818,153.325,89.373,216.698
					c0.804,1.393,0.325,3.174-1.067,3.977C957.95,889.422,957.449,889.548,956.956,889.548z"/>
			</g>
		</g>
	</g>
	<g>
		<g>
			<g>
				<path style="fill:#240448;" d="M1310.864,761.789c-0.294,0-0.589-0.017-0.888-0.052l-209.313-24.43
					c-1.994-0.233-3.814-1.248-5.06-2.823c-1.246-1.575-1.815-3.58-1.582-5.574l18.868-161.657
					c3.491-29.918,18.458-56.713,42.144-75.447c23.686-18.734,53.207-27.125,83.125-23.636
					c29.918,3.492,56.713,18.459,75.446,42.144c18.734,23.684,27.129,53.205,23.637,83.124l-18.868,161.657
					C1317.924,758.95,1314.652,761.789,1310.864,761.789z M1109.94,723.146l194.273,22.675l17.99-154.138
					c6.251-53.562-32.238-102.223-85.8-108.474c-25.9-3.024-51.463,4.247-71.977,20.473c-20.513,16.225-33.475,39.425-36.497,65.326
					L1109.94,723.146z"/>
			</g>
		</g>
		<g>
			<path style="fill:#FC346C;" d="M1298.434,834.69l-203.337-23.732c-25.507-2.977-43.771-26.067-40.794-51.574l12.369-105.973
				c2.977-25.506,26.068-43.77,51.574-40.793l203.337,23.732c25.507,2.977,43.77,26.067,40.793,51.573l-12.369,105.974
				C1347.031,819.403,1323.941,837.667,1298.434,834.69z"/>
		</g>
		<path style="fill:#FFFFFF;" d="M1237.873,709.651c1.836-15.733-9.665-29.949-25.556-31.335
			c-14.954-1.304-28.687,9.918-30.413,24.829c-0.926,8.001,1.616,15.591,6.411,21.315l-10.975,36.032
			c-1.798,5.902,2.187,11.991,8.315,12.706l32.432,3.785c6.128,0.715,11.408-4.293,11.017-10.45l-2.382-37.591
			C1232.713,724.472,1236.938,717.661,1237.873,709.651z"/>
	</g>
</g>
<g>
	<path style="fill:#240448;" d="M2249.615,1413.39H1659c-1.381,0-2.5-1.119-2.5-2.5s1.119-2.5,2.5-2.5h590.615
		c1.381,0,2.5,1.119,2.5,2.5S2250.996,1413.39,2249.615,1413.39z"/>
</g>
<g>
	<path style="fill:#240448;" d="M1836.039,1191.299h-344.333c-1.381,0-2.5-1.119-2.5-2.5s1.119-2.5,2.5-2.5h344.333
		c1.381,0,2.5,1.119,2.5,2.5S1837.42,1191.299,1836.039,1191.299z"/>
</g>
<g>
	<g>
		<path style="fill:#240448;" d="M1762.79,1412.722c-0.802,0-1.59-0.385-2.073-1.1l-149.584-221.27
			c-0.773-1.145-0.473-2.698,0.671-3.472c1.144-0.772,2.697-0.475,3.472,0.671l149.584,221.27c0.773,1.145,0.473,2.698-0.671,3.472
			C1763.759,1412.583,1763.273,1412.722,1762.79,1412.722z"/>
	</g>
	<g>
		<path style="fill:#240448;" d="M1613.43,1412.875c-0.48,0-0.966-0.138-1.394-0.426c-1.146-0.771-1.449-2.324-0.679-3.47
			l149.129-221.576c0.771-1.147,2.326-1.448,3.47-0.679c1.146,0.771,1.449,2.324,0.679,3.47l-149.129,221.576
			C1615.024,1412.488,1614.234,1412.875,1613.43,1412.875z"/>
	</g>
</g>
<g>
	<g>
		<g>
			<path style="fill:#240448;" d="M2012.176,1334.006c-0.883,0-1.738-0.468-2.193-1.297c-0.664-1.21-0.222-2.729,0.988-3.395
				l32.854-18.04c1.21-0.664,2.729-0.223,3.395,0.988c0.664,1.21,0.222,2.729-0.988,3.395l-32.854,18.04
				C2012.995,1333.907,2012.583,1334.006,2012.176,1334.006z"/>
		</g>
		<g>
			<path style="fill:#240448;" d="M2062.252,1412.952c-1.188,0-2.242-0.851-2.458-2.062l-21.325-119.591
				c-0.242-1.358,0.663-2.657,2.022-2.899c1.354-0.245,2.656,0.663,2.899,2.022l21.325,119.591c0.242,1.358-0.663,2.657-2.022,2.899
				C2062.546,1412.939,2062.398,1412.952,2062.252,1412.952z"/>
		</g>
		<g>
			<path style="fill:#240448;" d="M1996.01,1412.722c-0.162,0-0.327-0.016-0.492-0.048c-1.354-0.271-2.232-1.587-1.963-2.941
				l23.768-119.129c0.27-1.354,1.586-2.228,2.942-1.963c1.354,0.271,2.232,1.587,1.963,2.941l-23.768,119.129
				C1998.222,1411.899,1997.177,1412.722,1996.01,1412.722z"/>
		</g>
		<g>
			<path style="fill:#240448;" d="M2152.121,1412.952c-1.188,0-2.242-0.851-2.458-2.062l-26.825-150.435
				c-0.242-1.358,0.663-2.657,2.023-2.899c1.357-0.244,2.657,0.663,2.899,2.022l26.825,150.435c0.242,1.358-0.663,2.657-2.023,2.899
				C2152.415,1412.939,2152.267,1412.952,2152.121,1412.952z"/>
		</g>
		<g>
			<path style="fill:#240448;" d="M2086.271,1412.722c-0.162,0-0.327-0.016-0.492-0.048c-1.354-0.271-2.232-1.587-1.963-2.941
				l23.77-119.129c0.271-1.354,1.59-2.228,2.941-1.963c1.354,0.271,2.233,1.587,1.963,2.941l-23.77,119.129
				C2088.483,1411.899,2087.439,1412.722,2086.271,1412.722z"/>
		</g>
		<path style="fill:#44D4F4;" d="M2119.196,1294.968c-10.864,6.874-23.623,10.706-36.948,10.706h-109.313
			c-5.378,0-9.735-4.357-9.735-9.735c0-2.686,1.089-5.119,2.85-6.879c1.761-1.761,4.199-2.85,6.885-2.85h136.582
			C2114.563,1286.209,2118.711,1290.052,2119.196,1294.968z"/>
		<g>
			<path style="fill:#44D4F4;" d="M2143.085,1269.453c-5.762,10.598-14.052,19.295-23.889,25.514
				c-10.864,6.874-23.623,10.706-36.948,10.706c-19.464,0-36.112-7.613-48.217-19.464c-22.873-22.399-19.073-57.075,2.281-87.025
				c29.628-41.564,65.468-66.047,109.182-54.98C2195.157,1156.771,2166.81,1225.818,2143.085,1269.453z"/>
		</g>
		<g>
			<path style="fill:#240448;" d="M2101.977,1334.006c-0.883,0-1.739-0.468-2.194-1.297c-0.664-1.21-0.222-2.729,0.988-3.395
				l32.855-18.04c1.209-0.664,2.729-0.223,3.394,0.988c0.664,1.21,0.222,2.729-0.988,3.395l-32.854,18.04
				C2102.796,1333.907,2102.384,1334.006,2101.977,1334.006z"/>
		</g>
	</g>
	<g>
		<g>
			<path style="fill:#FC346C;" d="M1971.661,1204.084c-6.663,0-13.123-3.529-16.569-9.776c-5.044-9.142-1.723-20.642,7.42-25.686
				l69.963-38.604c9.142-5.044,20.642-1.724,25.686,7.42c5.044,9.142,1.723,20.642-7.419,25.686l-69.964,38.604
				C1977.883,1203.325,1974.75,1204.084,1971.661,1204.084z"/>
		</g>
		<path style="fill:#240448;" d="M1986.948,1150.187l27.305,40.173l33.291-21.649c11.753-6.333,16.147-20.995,9.815-32.748l0,0
			c-6.333-11.753-20.995-16.147-32.748-9.815L1986.948,1150.187z"/>
		<g>
			<path style="fill:#240444;" d="M2011.347,1193.663c-2.297,0-4.565-1.039-6.057-3.012l-24.325-32.17
				c-2.527-3.342-1.866-8.1,1.476-10.626c3.343-2.526,8.099-1.865,10.626,1.476l24.325,32.17c2.527,3.342,1.866,8.1-1.476,10.626
				C2014.547,1193.162,2012.941,1193.663,2011.347,1193.663z"/>
		</g>
		<polygon style="fill:#240448;" points="2074.365,1287.737 2031.644,1287.737 2035.202,1255.724 2074.365,1255.724 		"/>
		<path style="fill:#FCCC6C;" d="M2110.021,1044.105c0.717,8.189-5.34,15.409-13.53,16.126c-8.189,0.717-15.409-5.341-16.126-13.53
			c-0.717-8.189,5.341-15.409,13.53-16.126C2102.084,1029.858,2109.304,1035.916,2110.021,1044.105z"/>
		<path style="fill:#240448;" d="M2086.086,1058.61L2086.086,1058.61c-3.062,2.144-7.282,1.4-9.426-1.662l-0.086-0.122
			c-2.144-3.062-1.4-7.282,1.662-9.426l0,0c3.062-2.144,7.282-1.4,9.427,1.661l0.086,0.123
			C2089.892,1052.245,2089.148,1056.466,2086.086,1058.61z"/>
		<polygon style="fill:#FC346C;" points="1957.268,1324.742 1971.357,1364.737 1999.748,1352.27 1988.548,1306.729 		"/>
		<path style="fill:#240448;" d="M2018.455,1382.836l-74.064,28.053l-3.172-8.369l-0.762-2.009
			c-1.45-3.838-0.672-8.161,2.032-11.242l6.845-7.816l8.127-9.289l-0.265-15.141c-0.045-2.652,1.665-5.011,4.199-5.796l11.953-3.691
			l4.035,14.667l20.525-19.729c1.823-1.755,4.848-1.072,5.745,1.292l11.631,30.7L2018.455,1382.836z"/>
		<polygon style="fill:#FC346C;" points="1879.231,1295.991 1854.212,1330.228 1880.548,1346.594 1911.775,1311.605 		"/>
		<g>
			<path style="fill:#FC346C;" d="M1889.215,1115.057c-1.508,4.867-0.16,10.488,4.1,14.771l56.826,69.835
				c7.451,8.389,20.292,9.149,28.681,1.698c8.39-7.451,9.15-20.292,1.698-28.682l-62.594-62.198
				c-6.48-6.514-17.242-7.463-24.038-2.121C1891.562,1110.191,1890.001,1112.522,1889.215,1115.057z"/>
		</g>
		<g>
			<g>
				<path style="fill:#FC346C;" d="M1910.593,1121.337c-0.882,0-1.777-0.164-2.646-0.512l-32.71-13.088
					c-3.655-1.462-5.433-5.611-3.97-9.267c1.464-3.654,5.611-5.432,9.267-3.97l32.71,13.088c3.655,1.462,5.433,5.611,3.97,9.267
					C1916.098,1119.642,1913.421,1121.337,1910.593,1121.337z"/>
			</g>
			<g>
				<path style="fill:#FC346C;" d="M1903.776,1124.988c-0.328,0-0.661-0.022-0.996-0.069l-38.71-5.412
					c-3.898-0.545-6.617-4.147-6.072-8.047c0.544-3.897,4.139-6.618,8.047-6.072l38.71,5.412c3.898,0.545,6.617,4.147,6.072,8.047
					C1910.329,1122.41,1907.276,1124.988,1903.776,1124.988z"/>
			</g>
			<g>
				<path style="fill:#FC346C;" d="M1897.452,1135.414c-0.372,0-0.748-0.029-1.127-0.09l-25.409-4.034
					c-3.888-0.617-6.539-4.27-5.922-8.158c0.617-3.888,4.274-6.539,8.158-5.922l25.409,4.034c3.888,0.617,6.539,4.27,5.922,8.158
					C1903.927,1132.911,1900.897,1135.414,1897.452,1135.414z"/>
			</g>
		</g>
		<g>
			<path style="fill:#FC346C;" d="M1912.642,1118.695c-2.63,0-5.159-1.461-6.399-3.979l-5.706-11.584
				c-1.74-3.532-0.287-7.806,3.244-9.545c3.534-1.74,7.806-0.287,9.545,3.244l5.706,11.584c1.74,3.532,0.287,7.806-3.244,9.545
				C1914.774,1118.459,1913.7,1118.695,1912.642,1118.695z"/>
		</g>
		<path style="fill:#240448;" d="M2035.152,1203.534l64.196,24.937l-0.115-77.431c-0.779-9.368-3.832-17.873-8.465-24.775
			c-7.308-10.88-18.556-17.771-31.045-17.771c-10.209,0-19.583,4.599-26.654,12.218c-1.45,1.563-2.81,3.256-4.052,5.062
			c-0.241,0.349-0.478,0.703-0.711,1.061c-6.438,9.885-8.539,21.982-6.245,33.554L2035.152,1203.534z"/>
		<path style="fill:#240448;" d="M2046.458,1154.628c-1.895,10.082-11.604,16.718-21.686,14.823
			c-10.082-1.895-16.718-11.604-14.823-21.686c1.895-10.081,26.62-29.786,26.62-29.786
			C2045.692,1122.671,2048.354,1144.546,2046.458,1154.628z"/>
		<g>
			<path style="fill:#FFFFFF;" d="M2036.313,1205.405c-1.048,0-2.023-0.664-2.372-1.712l-10.696-32.157
				c-7.435-1.62-13.504-7.166-15.724-14.492c-2.356-7.78,0.086-15.901,7.262-24.139c2.616-3.005,5.632-5.789,8.547-8.481
				c2.231-2.06,4.538-4.19,6.701-6.444c0.957-0.996,2.538-1.027,3.535-0.072c0.996,0.956,1.028,2.539,0.072,3.535
				c-2.268,2.362-4.631,4.545-6.916,6.655c-2.947,2.722-5.731,5.292-8.17,8.092c-6.053,6.949-8.097,13.297-6.246,19.404
				c1.811,5.973,6.973,10.395,13.15,11.265c0.939,0.133,1.765,0.791,2.064,1.691l11.165,33.565c0.436,1.311-0.272,2.726-1.583,3.161
				C2036.84,1205.363,2036.573,1205.405,2036.313,1205.405z"/>
		</g>
		<g>
			<path style="fill:#240444;" d="M2032.46,1287.705c-4.064,0-8.194-0.796-12.174-2.477l-92.41-39.034
				c-15.935-6.73-23.396-25.105-16.665-41.04s25.105-23.395,41.04-16.665l92.41,39.034c15.934,6.73,23.395,25.105,16.665,41.04
				C2056.277,1280.519,2044.67,1287.705,2032.46,1287.705z"/>
		</g>
		<g>
			<path style="fill:#FCCC6C;" d="M2109.817,1251.981c-0.073,1.608-0.265,3.206-0.559,4.786
				c-2.602,13.962-13.51,26.253-27.331,29.899c-2.714,0.717-5.372,1.05-7.979,1.072c-15.486,0.113-29.222-10.79-42.49-17.958
				c-13.753-7.432-27.5-14.859-41.254-22.292c-7.935-4.289-15.819-9.368-24.081-13.008c-15-6.614-21.801-24.131-15.186-39.132
				c6.608-15,24.131-21.801,39.131-15.192c23.443,8.364,46.886,16.722,70.334,25.08c10.458,3.73,22.224,6.4,31.62,12.669
				c1.428,0.948,2.805,1.981,4.108,3.115C2104.913,1228.657,2110.359,1240.277,2109.817,1251.981z"/>
		</g>
		<g>
			<path style="fill:#FCCC6C;" d="M1996.845,1226.134l-93.725,98.726l-36.631-24.362c0.119-0.134,0.244-0.269,0.369-0.403
				l84.762-112.411c10.616-12.485,29.348-14.003,41.839-3.387C2005.948,1194.917,2007.461,1213.643,1996.845,1226.134z"/>
		</g>
		<g>
			<path style="fill:#240448;" d="M2062.544,1250.148c-1.042,0-2.015-0.656-2.367-1.698c-0.444-1.308,0.257-2.727,1.564-3.17
				c1.093-0.371,1.94-2.243,2.21-4.887c0.347-3.395-0.281-7.778-1.722-12.028c-3.111-9.17-8.403-13.902-10.68-13.127
				c-1.306,0.447-2.727-0.257-3.17-1.564c-0.443-1.308,0.257-2.727,1.564-3.17c5.877-1.991,13.199,4.992,17.02,16.256
				c1.688,4.977,2.385,9.999,1.962,14.142c-0.493,4.824-2.474,8.061-5.579,9.113
				C2063.081,1250.105,2062.81,1250.148,2062.544,1250.148z"/>
		</g>
		<g>
			<path style="fill:#FCCC6C;" d="M2003.641,1324.658l-46.431,12.053l-48.825-113.24c-5.779-15.339,1.975-32.461,17.32-38.234
				c15.339-5.779,32.461,1.975,38.234,17.32L2003.641,1324.658z"/>
		</g>
		<g>
			<path style="fill:#FC346C;" d="M2031.275,1233.911c-0.6,0-1.209-0.076-1.816-0.235l-12.489-3.282
				c-3.808-1.001-6.083-4.898-5.083-8.706c1.001-3.809,4.903-6.079,8.706-5.083l12.489,3.282c3.808,1.001,6.083,4.898,5.083,8.706
				C2037.323,1231.793,2034.435,1233.911,2031.275,1233.911z"/>
		</g>
		<g>
			<path style="fill:#FC346C;" d="M2132.123,1218.09c-5.279,0-10.529-2.198-14.267-6.492l-49.633-57.005
				c-6.855-7.874-6.03-19.816,1.845-26.673c7.875-6.854,19.817-6.03,26.673,1.845l49.633,57.005
				c6.855,7.874,6.03,19.816-1.845,26.673C2140.948,1216.56,2136.525,1218.09,2132.123,1218.09z"/>
		</g>
		<path style="fill:#FFFFFF;" d="M2127.375,1151.156l-39.175,28.781l-19.361-19.361c-9.44-9.44-9.44-24.746,0-34.187l0,0
			c9.441-9.441,24.747-9.441,34.187,0L2127.375,1151.156z"/>
		<g>
			<path style="fill:#FFFFFF;" d="M2089.573,1186.978c-2.005,0-3.99-0.896-5.311-2.604c-2.264-2.93-1.726-7.142,1.204-9.407
				l34.854-26.946c2.929-2.264,7.142-1.727,9.407,1.204c2.265,2.93,1.726,7.142-1.204,9.407l-34.854,26.946
				C2092.448,1186.521,2091.005,1186.978,2089.573,1186.978z"/>
		</g>
		<g>
			<path style="fill:#FC346C;" d="M2026.454,1253.394c4.217,2.859,9.988,3.206,15.325,0.377l96.843-35.197
				c10.195-4.687,14.66-16.75,9.973-26.945c-4.687-10.196-16.75-14.66-26.946-9.974l-91.216,42.938
				c-8.118,4.303-12.159,14.323-9.026,22.38C2022.481,1249.732,2024.257,1251.904,2026.454,1253.394z"/>
		</g>
		<path style="fill:#FFFFFF;" d="M1996.599,1246.269L1996.599,1246.269c-11.468,0-20.764-9.296-20.764-20.764v-14.831h41.528v14.832
			C2017.363,1236.972,2008.066,1246.269,1996.599,1246.269z"/>
		<g>
			<g>
				<path style="fill:#FC346C;" d="M1997.967,1239.813c-3.789,0-6.943-2.984-7.115-6.809c-0.177-3.933,2.867-7.265,6.801-7.441
					l39.265-1.768c3.905-0.165,7.265,2.868,7.441,6.801c0.177,3.933-2.867,7.265-6.801,7.441l-39.265,1.768
					C1998.185,1239.811,1998.075,1239.813,1997.967,1239.813z"/>
			</g>
			<g>
				<path style="fill:#FC346C;" d="M2009.727,1248.748c-3.328,0-6.305-2.344-6.983-5.732c-0.771-3.86,1.733-7.616,5.593-8.388
					l22.793-4.557c3.861-0.766,7.616,1.732,8.388,5.593s-1.732,7.616-5.593,8.388l-22.793,4.557
					C2010.66,1248.702,2010.19,1248.748,2009.727,1248.748z"/>
			</g>
			<g>
				<path style="fill:#FC346C;" d="M2014.495,1258.653c-3.143,0-6.021-2.094-6.878-5.272c-1.026-3.801,1.224-7.714,5.024-8.739
					l18.962-5.118c3.802-1.028,7.714,1.224,8.739,5.024c1.026,3.801-1.224,7.714-5.024,8.739l-18.962,5.118
					C2015.734,1258.573,2015.109,1258.653,2014.495,1258.653z"/>
			</g>
		</g>
		<g>
			<polygon style="fill:#FC346C;" points="2079.258,1079.518 2070.454,1115.292 2040.36,1128.46 2047.717,1107.876 
				2052.124,1089.722 2074.918,1081.149 			"/>
			<g>
				<path style="fill:#FFFFFF;" d="M2040.359,1130.958c-0.593,0-1.18-0.211-1.645-0.617c-0.739-0.646-1.032-1.664-0.749-2.604
					l5.566-18.482c0.397-1.322,1.792-2.071,3.114-1.673c1.322,0.397,2.071,1.792,1.673,3.114l-3.974,13.199l27.657-12.598
					c1.259-0.571,2.74-0.017,3.312,1.239c0.572,1.256,0.018,2.739-1.239,3.312l-32.678,14.885
					C2041.063,1130.884,2040.71,1130.958,2040.359,1130.958z"/>
			</g>
		</g>
		<g>
			<path style="fill:#240448;" d="M2096.131,1194.352c-1.067,0-2.056-0.689-2.388-1.763c-0.407-1.318,0.331-2.719,1.65-3.127
				l9.373-2.898c1.317-0.407,2.719,0.331,3.127,1.65c0.407,1.318-0.331,2.719-1.65,3.127l-9.373,2.898
				C2096.624,1194.315,2096.376,1194.352,2096.131,1194.352z"/>
		</g>
		<path style="fill:#240448;" d="M1891.815,1345.048l-18.115,26.05l-5.113,7.348l-65.018-45.221l5.107-7.348l0.322-0.457
			c2.901-4.17,7.867-6.405,12.912-5.807l8.736,1.038l12.252,1.456l11.75-8.364c2.511-1.789,5.897-1.699,8.313,0.214l9.233,7.325
			l-9.814,11.62l26.806,5.547C1892.171,1339.072,1893.559,1342.542,1891.815,1345.048z"/>
		<path style="fill:#240448;" d="M2075.623,1078.562l-5.652,2.126c-1.185,14.075-7.633,24.833-21.549,24.602l4.407-18.155
			L2075.623,1078.562z"/>
		<path style="fill:#FC346C;" d="M2043.571,1100.082L2043.571,1100.082c-8.781-2.036-14.25-10.804-12.214-19.585l3.056-13.184
			c2.683-11.572,14.238-18.778,25.81-16.096l0,0c11.572,2.682,18.778,14.238,16.096,25.81l-0.713,3.078
			C2072.276,1094.467,2057.933,1103.411,2043.571,1100.082z"/>
		<path style="fill:#FCCC6C;" d="M2030.171,1056.572c2.477-5.398,6-10.16,11.213-13.031c5.84-3.216,12.939-3.613,19.4-2.466
			c0.596,0.106,1.189,0.226,1.779,0.36c0.342,0.078,0.684,0.161,1.023,0.249c15.623,4.028,26.753,20.872,22.181,36.838
			c-0.92,3.21-6.102,14.594-8.889,16.547c-2.194,1.536-7.067-12.215-9.74-12.037c-2.673,0.178-5.468-0.649-7.379-2.525
			c-2.625-2.577-3.185-6.538-3.582-10.195c-5.138-0.224-10.305-0.778-15.201-2.355c-3.043-0.98-5.976-2.369-8.576-4.239
			c-1.139-0.819-3.729-3.288-3.729-3.288S2029.874,1057.221,2030.171,1056.572z"/>
		<path style="fill:#FCCC6C;" d="M2057.176,1108.494L2057.176,1108.494c-0.875,0-1.61-0.657-1.707-1.526l-5.691-40.237h11.381
			l-2.265,40.079C2058.876,1107.745,2058.112,1108.494,2057.176,1108.494z"/>
		<circle style="fill:#FC346C;" cx="2068.108" cy="1080.467" r="10.147"/>
		<path style="fill:#FFFFFF;" d="M2074.34,1090.615c0,2.818-2.285,5.103-5.103,5.103c-2.818,0-5.103-2.285-5.103-5.103
			c0-2.818,2.285-5.103,5.103-5.103C2072.055,1085.511,2074.34,1087.796,2074.34,1090.615z"/>
		<path style="fill:#FC346C;" d="M2034.467,1068.461c-2.344,5.616-4.794,10.868-7.89,13.892c-0.837,0.818-1.029,2.145-0.289,3.052
			c0.463,0.567,1.194,0.919,2.038,0.816l9.306-1.137L2034.467,1068.461z"/>
		<g>
			<path style="fill:#FCCC6C;" d="M1957.205,1345.333c-3.373,0-6.451-2.266-7.338-5.682c-1.053-4.056,1.382-8.196,5.437-9.249
				l44.076-11.441c4.06-1.053,8.197,1.382,9.249,5.437c1.053,4.056-1.382,8.196-5.437,9.249l-44.076,11.441
				C1958.477,1345.254,1957.836,1345.333,1957.205,1345.333z"/>
		</g>
		<g>
			<g>
				<path style="fill:#FFFFFF;" d="M1905.871,1248.389c-0.54,0-1.085-0.175-1.543-0.534c-1.086-0.854-1.273-2.425-0.421-3.511
					l45.746-58.206c7.48-8.8,19.102-12.938,30.378-10.888c1.358,0.248,2.259,1.55,2.012,2.908c-0.248,1.357-1.548,2.256-2.908,2.012
					c-9.526-1.739-19.344,1.762-25.611,9.132l-45.685,58.132C1907.346,1248.061,1906.612,1248.389,1905.871,1248.389z"/>
			</g>
		</g>
		<g>
			<path style="fill:#FFFFFF;" d="M1927.505,1304.775c-0.606,0-1.216-0.22-1.696-0.664c-1.014-0.938-1.075-2.52-0.139-3.533
				l58.192-62.936c0.938-1.014,2.521-1.076,3.533-0.139c1.014,0.938,1.075,2.52,0.139,3.533l-58.192,62.936
				C1928.849,1304.506,1928.178,1304.775,1927.505,1304.775z"/>
		</g>
		<g>
			<path style="fill:#FFFFFF;" d="M1940.97,1404.359c-0.992,0-1.932-0.595-2.322-1.572c-0.513-1.282,0.111-2.737,1.392-3.25
				l38.279-15.308c1.283-0.517,2.737,0.111,3.25,1.393c0.513,1.282-0.111,2.737-1.393,3.25l-38.279,15.308
				C1941.593,1404.302,1941.278,1404.359,1940.97,1404.359z"/>
		</g>
		<g>
			<path style="fill:#240448;" d="M1903.403,1138.727c-2.57,0-5.133-0.444-7.105-0.994c-1.33-0.371-2.107-1.75-1.736-3.08
				s1.745-2.108,3.078-1.736c2.09,0.577,10.142,2.024,11.363-1.434c0.459-1.302,1.888-1.988,3.189-1.525
				c1.302,0.459,1.985,1.888,1.525,3.189C1912.207,1137.429,1907.795,1138.727,1903.403,1138.727z"/>
		</g>
		<g>
			<path style="fill:#FFFFFF;" d="M1846.469,1354.661c-0.493,0-0.99-0.145-1.426-0.447l-37.795-26.284
				c-1.133-0.789-1.413-2.347-0.625-3.48c0.789-1.135,2.346-1.414,3.48-0.625l37.795,26.284c1.133,0.789,1.413,2.347,0.625,3.48
				C1848.037,1354.287,1847.26,1354.661,1846.469,1354.661z"/>
		</g>
		<g>
			<path style="fill:#240448;" d="M2061.237,1250.362c-2.546,0-5.269-1.435-7.862-4.186c-2.856-3.03-5.359-7.44-7.048-12.418
				c-1.688-4.977-2.386-9.999-1.962-14.142c0.493-4.824,2.474-8.061,5.579-9.113c1.309-0.445,2.728,0.257,3.17,1.564
				c0.443,1.308-0.257,2.727-1.565,3.17c-1.094,0.371-1.94,2.243-2.211,4.887c-0.347,3.395,0.281,7.778,1.722,12.028
				c1.442,4.25,3.612,8.111,5.951,10.594c1.823,1.933,3.633,2.902,4.728,2.533c1.313-0.447,2.728,0.257,3.171,1.563
				c0.445,1.308-0.257,2.728-1.563,3.171C2062.663,1250.247,2061.957,1250.362,2061.237,1250.362z"/>
		</g>
		<g>
			<path style="fill:#FFFFFF;" d="M2051.801,1241.798L2051.801,1241.798c-4.246,0.965-8.47-1.694-9.435-5.939l-0.475-2.09
				c-0.965-4.246,1.694-8.47,5.939-9.435l0,0c4.245-0.965,8.47,1.694,9.435,5.94l0.475,2.09
				C2058.706,1236.609,2056.046,1240.833,2051.801,1241.798z"/>
			<path style="fill:#240448;" d="M2050.052,1243.97c-4.499,0-8.572-3.104-9.611-7.672l-0.476-2.091
				c-0.584-2.567-0.133-5.209,1.27-7.438c1.403-2.229,3.59-3.777,6.157-4.361c2.566-0.583,5.209-0.133,7.437,1.271
				c2.229,1.402,3.777,3.589,4.361,6.157l0.475,2.089c0.584,2.568,0.133,5.209-1.27,7.438c-1.403,2.229-3.59,3.777-6.157,4.361
				C2051.506,1243.89,2050.773,1243.97,2050.052,1243.97z M2049.589,1226.11c-0.44,0-0.883,0.049-1.323,0.148
				c-1.539,0.351-2.849,1.278-3.689,2.614c-0.841,1.336-1.111,2.919-0.762,4.459l0.476,2.09c0.722,3.177,3.894,5.173,7.072,4.451
				v-0.001c1.539-0.35,2.85-1.277,3.69-2.613s1.111-2.919,0.761-4.458l-0.475-2.089c-0.35-1.54-1.278-2.851-2.614-3.691
				C2051.771,1226.419,2050.69,1226.11,2049.589,1226.11z"/>
		</g>
		<g>
			<path style="fill:#FCCC6C;" d="M1901.121,1331.122c-1.443,0-2.902-0.411-4.194-1.271l-33.054-21.983
				c-3.488-2.32-4.436-7.029-2.115-10.518c2.319-3.488,7.028-4.436,10.518-2.115l33.054,21.983c3.488,2.32,4.436,7.029,2.115,10.518
				C1905.984,1329.933,1903.575,1331.122,1901.121,1331.122z"/>
		</g>
		<g>
			<path style="fill:#240448;" d="M2082.237,1178.452c-0.737,0-1.468-0.324-1.961-0.947c-0.858-1.082-0.676-2.654,0.406-3.512
				l23.057-18.271c1.08-0.858,2.654-0.677,3.512,0.406c0.858,1.082,0.676,2.654-0.406,3.512l-23.057,18.271
				C2083.329,1178.275,2082.781,1178.452,2082.237,1178.452z"/>
		</g>
		<g>
			<path style="fill:#44D4F4;" d="M2005.446,1373.397c-6.575,0-11.924-5.349-11.924-11.924s5.349-11.925,11.924-11.925
				s11.924,5.35,11.924,11.925S2012.022,1373.397,2005.446,1373.397z M2005.446,1353.498c-4.397,0-7.975,3.578-7.975,7.976
				s3.577,7.975,7.975,7.975s7.975-3.577,7.975-7.975S2009.844,1353.498,2005.446,1353.498z"/>
		</g>
		<g>
			<path style="fill:#44D4F4;" d="M1877.309,1368.468c-6.575,0-11.924-5.35-11.924-11.925s5.349-11.924,11.924-11.924
				s11.924,5.349,11.924,11.924S1883.884,1368.468,1877.309,1368.468z M1877.309,1348.568c-4.397,0-7.975,3.577-7.975,7.975
				s3.577,7.976,7.975,7.976s7.975-3.578,7.975-7.976S1881.706,1348.568,1877.309,1348.568z"/>
		</g>
	</g>
</g>
<g>
	<path style="fill:#240448;" d="M1717.859,1191.299h-142.228c-1.152,0-2.154-0.787-2.429-1.906l-27.667-113.082
		c-0.182-0.745-0.012-1.533,0.462-2.138c0.474-0.604,1.199-0.956,1.967-0.956h142.228c1.152,0,2.154,0.787,2.429,1.906
		l27.667,113.082c0.182,0.745,0.012,1.533-0.462,2.138C1719.352,1190.946,1718.627,1191.299,1717.859,1191.299z M1577.594,1186.299
		h137.08l-26.443-108.082h-137.08L1577.594,1186.299z"/>
</g>
<g>
	<path style="fill:#FCCC6C;" d="M820.487,1319.295c15.991,8.964,25.221,22.892,20.615,31.11c-4.606,8.218-21.304,7.612-37.295-1.352
		c-11.064-6.202-16.686-18.713-19.1-25.834c-0.993-2.93,0.759-6.055,3.776-6.736
		C795.817,1314.826,809.423,1313.094,820.487,1319.295z"/>
	<path style="fill:#FCCC6C;" d="M899.981,1324.285c-9.029,9.152-20.161,12.809-24.864,8.169c-4.703-4.64-1.195-15.82,7.834-24.972
		c6.247-6.332,15.751-7.813,21.015-8.124c2.166-0.128,3.954,1.636,3.855,3.803C907.581,1308.43,906.228,1317.953,899.981,1324.285z"
		/>
	<g>
		<path style="fill:#240448;" d="M847.57,1410.889c-1.381,0-2.5-1.119-2.5-2.5c0-35.777-5.573-73.372-16.563-111.739
			c-0.38-1.327,0.388-2.712,1.715-3.092c1.33-0.378,2.711,0.388,3.092,1.715c11.119,38.815,16.757,76.873,16.757,113.116
			C850.07,1409.77,848.951,1410.889,847.57,1410.889z"/>
	</g>
	<g>
		<path style="fill:#240448;" d="M826.752,1284.731c-1.059,0-2.042-0.679-2.381-1.741c-13.414-42.032-28.652-69.572-28.805-69.846
			c-0.672-1.206-0.239-2.728,0.966-3.401c1.207-0.671,2.728-0.24,3.401,0.966c0.154,0.277,15.624,28.217,29.201,70.762
			c0.42,1.315-0.307,2.722-1.622,3.142C827.261,1284.692,827.004,1284.731,826.752,1284.731z"/>
	</g>
	
		<ellipse transform="matrix(0.0825 -0.9966 0.9966 0.0825 -489.6504 1932.9762)" style="fill:#FC346C;" cx="804.957" cy="1232.413" rx="31.02" ry="31.02"/>
	<g>
		<path style="fill:#240448;" d="M869.038,1410.889c-1.357,0-2.472-1.087-2.499-2.45c-0.019-0.964-1.632-97.134,22.678-166.321
			c0.457-1.304,1.885-1.989,3.188-1.529c1.303,0.457,1.987,1.885,1.529,3.188c-24.013,68.343-22.414,163.609-22.395,164.563
			c0.028,1.381-1.069,2.521-2.449,2.549C869.072,1410.889,869.055,1410.889,869.038,1410.889z"/>
	</g>
	<polygon style="fill:#FCCC6C;" points="918.091,1249.529 896.157,1227.595 866.193,1235.623 858.165,1265.587 880.099,1287.521 
		910.063,1279.493 	"/>
	<g>
		<path style="fill:#FFFFFF;" d="M804.957,1237.3c-16.521,0-34.304-3.822-34.304-12.214c0-1.381,1.119-2.5,2.5-2.5
			c1.381,0,2.5,1.119,2.5,2.5c0,2.157,9.97,7.214,29.304,7.214c19.334,0,29.304-5.057,29.304-7.214c0-1.381,1.119-2.5,2.5-2.5
			c1.381,0,2.5,1.119,2.5,2.5C839.261,1233.478,821.478,1237.3,804.957,1237.3z"/>
	</g>
	<g>
		<path style="fill:#FFFFFF;" d="M804.957,1237.3c-16.521,0-34.304-3.822-34.304-12.214c0-1.381,1.119-2.5,2.5-2.5
			c1.381,0,2.5,1.119,2.5,2.5c0,2.157,9.97,7.214,29.304,7.214c19.334,0,29.304-5.057,29.304-7.214c0-1.381,1.119-2.5,2.5-2.5
			c1.381,0,2.5,1.119,2.5,2.5C839.261,1233.478,821.478,1237.3,804.957,1237.3z"/>
	</g>
	<g>
		<path style="fill:#FFFFFF;" d="M830.612,1245.565c-1.786,0-3.947-0.253-6.563-0.856c-6.354-1.466-14.021-4.678-21.589-9.042
			c-7.567-4.365-14.185-9.395-18.637-14.161c-6.539-7.001-6.315-11.238-4.976-13.559c0.69-1.197,2.219-1.607,3.414-0.916
			c1.196,0.689,1.607,2.219,0.916,3.414c-0.419,0.727,0.377,3.447,4.3,7.648c4.122,4.414,10.33,9.117,17.481,13.241
			c7.15,4.125,14.329,7.145,20.215,8.502c5.601,1.294,8.354,0.619,8.773-0.108c0.689-1.197,2.218-1.607,3.415-0.917
			c1.196,0.69,1.607,2.219,0.917,3.415C837.314,1243.897,835.201,1245.565,830.612,1245.565z"/>
	</g>
	<g>
		<path style="fill:#FFFFFF;" d="M830.612,1245.565c-1.786,0-3.947-0.253-6.563-0.856c-6.354-1.466-14.021-4.678-21.589-9.042
			c-7.567-4.365-14.185-9.395-18.637-14.161c-6.539-7.001-6.315-11.238-4.976-13.559c0.69-1.197,2.219-1.607,3.414-0.916
			c1.196,0.689,1.607,2.219,0.916,3.414c-0.419,0.727,0.377,3.447,4.3,7.648c4.122,4.414,10.33,9.117,17.481,13.241
			c7.15,4.125,14.329,7.145,20.215,8.502c5.601,1.294,8.354,0.619,8.773-0.108c0.689-1.197,2.218-1.607,3.415-0.917
			c1.196,0.69,1.607,2.219,0.917,3.415C837.314,1243.897,835.201,1245.565,830.612,1245.565z"/>
	</g>
	<g>
		<path style="fill:#FFFFFF;" d="M858.163,1268.087c-1.104,0-2.113-0.737-2.413-1.854c-0.357-1.334,0.435-2.705,1.768-3.063
			l59.927-16.057c1.334-0.352,2.704,0.435,3.063,1.768c0.357,1.334-0.435,2.705-1.768,3.063l-59.927,16.057
			C858.596,1268.059,858.378,1268.087,858.163,1268.087z"/>
	</g>
	<g>
		<path style="fill:#FFFFFF;" d="M888.128,1260.058c-0.64,0-1.279-0.244-1.768-0.732l-21.935-21.935
			c-0.977-0.977-0.977-2.559,0-3.535c0.977-0.977,2.559-0.977,3.535,0l21.935,21.935c0.977,0.976,0.977,2.559,0,3.535
			C889.407,1259.814,888.768,1260.058,888.128,1260.058z"/>
	</g>
</g>
<g>
	<path style="fill:#240448;" d="M648.591,1080.578c-1.203,0-2.263-0.869-2.464-2.095l-25.984-158
		c-0.108-0.654,0.049-1.324,0.436-1.862c0.387-0.539,0.971-0.902,1.625-1.01l237.698-39.09c0.655-0.109,1.325,0.049,1.862,0.435
		c0.539,0.387,0.902,0.972,1.01,1.626l25.983,158c0.224,1.362-0.698,2.648-2.061,2.872L649,1080.545
		C648.863,1080.567,648.726,1080.578,648.591,1080.578z M625.483,922.14l25.172,153.065l232.764-38.278l-25.173-153.065
		L625.483,922.14z"/>
</g>
<g>
	<g>
		<path style="fill:#FCCC6C;" d="M547.198,1025c3.993,9.449,14.89,13.872,24.339,9.879c9.449-3.993,13.872-14.891,9.879-24.339
			c-3.993-9.449-32.339-23.453-32.339-23.453C541.16,993.61,543.205,1015.551,547.198,1025z"/>
	</g>
	<g>
		<path style="fill:#FC346C;" d="M433.513,1063.688c2.783,0,5.608-0.617,8.277-1.919l72.083-35.176
			c9.384-4.579,13.278-15.898,8.699-25.281c-4.579-9.384-15.9-13.277-25.281-8.699l-72.083,35.176
			c-9.384,4.579-13.278,15.898-8.699,25.282C419.786,1059.783,426.514,1063.688,433.513,1063.688z"/>
	</g>
	<g>
		<g>
			<path style="fill:#FC346C;" d="M513.873,1026.594l-3.826,1.868l-32.664,15.937l-35.593,17.371
				c-2.669,1.303-5.491,1.919-8.273,1.919c-7.003,0-13.73-3.905-17.004-10.621c-4.582-9.379-0.689-20.7,8.697-25.277l72.083-35.181
				c9.385-4.577,20.7-0.683,25.283,8.702C527.152,1010.696,523.258,1022.011,513.873,1026.594z"/>
		</g>
	</g>
	<g>
		<path style="fill:#240448;" d="M510.047,1028.462l-29.012,14.155c-8.466-23.986,12.203-40.352,12.203-40.352L510.047,1028.462z"/>
	</g>
	<g>
		<path style="fill:#240448;" d="M431.684,1385.382c3.022,0,6.261-0.374,9.678-1.12c1.349-0.294,2.204-1.626,1.909-2.976
			c-0.294-1.348-1.619-2.204-2.976-1.909c-4.595,1.002-8.772,1.257-12.411,0.755c-3.495-0.482-6.403-3.921-6.484-7.663
			c-0.046-2.135,1.141-4.254,3.021-5.4c0.921-0.559,2.786-1.325,4.92-0.164c4.896,2.669,8.99,7.563,12.01,11.527
			c0.838,1.098,2.407,1.311,3.504,0.475c1.099-0.837,1.311-2.405,0.475-3.504c-3.321-4.36-7.867-9.767-13.596-12.889
			c-3.166-1.725-6.779-1.623-9.912,0.284c-3.376,2.055-5.504,5.893-5.42,9.777c0.133,6.196,4.876,11.69,10.799,12.509
			C428.634,1385.283,430.131,1385.382,431.684,1385.382z"/>
	</g>
	<g>
		<g>
			<polygon style="fill:#FC346C;" points="572.186,1360.373 603.225,1360.375 588.738,1183.991 526.834,1162.093 			"/>
		</g>
	</g>
	<g>
		<path style="fill:#FCCC6C;" d="M576.504,1104.919h-97.699l16.434-61.739l-3.866-12.976c-3.469-11.643-1.948-24.298,4.554-34.561
			c0.224-0.353,0.451-0.702,0.683-1.047c7.308-10.88,18.556-17.771,31.045-17.771c10.209,0,19.583,4.599,26.654,12.218
			c1.45,1.563,2.81,3.256,4.052,5.062c4.825,6.987,8.008,15.672,8.809,25.266L576.504,1104.919z"/>
	</g>
	<g>
		<path style="fill:#240448;" d="M462.244,1119.99c1.28-16.705,6.117-32.552,21.053-45.962c23.778,10.887,45.887,5.883,92.476-2.019
			l7.505,54.357L462.244,1119.99z"/>
	</g>
	<g>
		<path style="fill:#FC346C;" d="M524.432,1081.189c16.341,0,34.96-1.762,55.732-5.285c2.151-0.365,3.6-2.405,3.234-4.556
			c-0.364-2.151-2.417-3.597-4.555-3.234c-37.898,6.428-68.214,6.881-90.107,1.349c-2.12-0.534-4.264,0.747-4.798,2.862
			c-0.534,2.115,0.747,4.263,2.862,4.798C497.53,1079.833,510.106,1081.189,524.432,1081.189z"/>
	</g>
	<g>
		<g>
			<path style="fill:#240448;" d="M488.488,1346.832l-47.523,0.003l25.01-196.431c-1.759-8.259-7.312-28.509-6.337-34.162
				l77.454-24.139L488.488,1346.832z"/>
		</g>
	</g>
	<g>
		<g>
			<polygon style="fill:#240448;" points="558.577,1350.747 611.585,1350.751 582.035,1116.971 504.889,1092.104 509.685,1127.342 
				508.366,1117.653 			"/>
		</g>
	</g>
	<g>
		<g>
			<path style="fill:#FC346C;" d="M483.262,1120.395c-5.009,0.932-10.436-1.061-14.194-5.79l-50.566-53.334
				c-7.466-8.376-6.727-21.219,1.649-28.684c8.376-7.467,21.219-6.728,28.685,1.649l42.311,58.174
				c5.716,7.193,5.407,17.993-0.689,24.122C488.369,1118.631,485.871,1119.91,483.262,1120.395z"/>
		</g>
	</g>
	<g>
		<path style="fill:#FC346C;" d="M461.09,1143.943c1.857,0,3.712-0.721,5.109-2.156l23.945-24.601
			c2.746-2.821,2.685-7.334-0.137-10.081c-2.82-2.747-7.335-2.684-10.08,0.136l-23.945,24.601
			c-2.746,2.821-2.685,7.334,0.137,10.081C457.505,1143.271,459.299,1143.943,461.09,1143.943z"/>
	</g>
	<g>
		<path style="fill:#FC346C;" d="M459.247,1129.864c2.463,0,4.858-1.278,6.179-3.564l12.158-21.044
			c1.97-3.409,0.803-7.769-2.605-9.738c-3.409-1.969-7.77-0.803-9.738,2.606l-12.158,21.044c-1.97,3.409-0.803,7.769,2.605,9.738
			C456.81,1129.555,458.037,1129.864,459.247,1129.864z"/>
	</g>
	<g>
		<path style="fill:#240448;" d="M619.788,1385.382c1.553,0,3.049-0.099,4.482-0.297c5.922-0.818,10.665-6.313,10.799-12.509
			c0.084-3.885-2.044-7.723-5.421-9.777c-3.132-1.905-6.744-2.009-9.911-0.284c-5.726,3.12-10.273,8.526-13.596,12.889
			c-0.837,1.099-0.625,2.667,0.474,3.503c1.097,0.836,2.668,0.626,3.503-0.474c3.021-3.966,7.117-8.86,12.012-11.527
			c2.132-1.161,3.997-0.396,4.919,0.164c1.882,1.146,3.068,3.265,3.022,5.4c-0.081,3.742-2.99,7.181-6.484,7.663
			c-3.64,0.502-7.816,0.247-12.412-0.755c-1.356-0.296-2.682,0.562-2.976,1.909c-0.295,1.35,0.561,2.682,1.909,2.976
			C613.525,1385.009,616.765,1385.382,619.788,1385.382z"/>
	</g>
	<g>
		<path style="fill:#FCCC6C;" d="M646.251,1405.189l-0.102,5.7h-55.12l-5.322-10.762l-1.378-2.788
			c-1.066-2.157-4.2-1.978-5.014,0.286l-4.771,13.264h-13.403l1.038-10.762l4.752-49.38l39.431,0.119l12.133,26.123l23.939,19.893
			c1.095,0.909,1.981,2.015,2.619,3.245C645.862,1401.673,646.279,1403.406,646.251,1405.189z"/>
	</g>
	<g>
		<path style="fill:#FCCC6C;" d="M403.92,1405.189l0.102,5.7h55.12l5.322-10.762l1.378-2.788c1.066-2.157,4.199-1.978,5.014,0.286
			l4.771,13.264h13.403l-1.039-10.762l-4.752-49.38l-39.431,0.119l-12.133,26.123l-23.939,19.893
			c-1.095,0.909-1.981,2.015-2.619,3.245C404.309,1401.673,403.891,1403.406,403.92,1405.189z"/>
	</g>
	<g>
		<path style="fill:#FC346C;" d="M441.953,1357.613h43.455c3.761,0,6.81-3.049,6.81-6.81c0-3.761-3.049-6.809-6.81-6.809h-43.455
			c-3.761,0-6.81,3.049-6.81,6.809C435.143,1354.564,438.192,1357.613,441.953,1357.613z"/>
	</g>
	<g>
		<path style="fill:#FC346C;" d="M609.826,1357.558c3.761,0,6.81-3.049,6.81-6.809c0-3.761-3.049-6.81-6.809-6.811l-46.747-0.004
			c-3.761,0-6.81,3.049-6.811,6.809c0,3.761,3.049,6.809,6.809,6.811L609.826,1357.558z"/>
	</g>
	<g>
		<path style="fill:#FC346C;" d="M531.298,1132.974c4.025,0,7.835-1.466,10.849-4.202c3.586-3.254,5.685-8.066,5.763-13.204
			l0.045-2.936c0.021-1.38-1.081-2.517-2.462-2.538c-0.013,0-0.026,0-0.039,0c-1.362,0-2.477,1.094-2.499,2.462l-0.045,2.937
			c-0.057,3.814-1.52,7.215-4.123,9.577c-2.317,2.104-5.315,3.126-8.45,2.864c-7.005-0.575-12.611-7.229-12.498-14.833l0.202-13.455
			l3.837,0.315c1.381,0.116,2.583-0.911,2.695-2.287c0.113-1.376-0.91-2.583-2.287-2.696l-6.501-0.534
			c-0.684-0.055-1.372,0.175-1.884,0.64c-0.513,0.465-0.81,1.122-0.82,1.814l-0.242,16.128c-0.151,10.182,7.515,19.105,17.09,19.891
			C530.386,1132.956,530.844,1132.974,531.298,1132.974z"/>
	</g>
	<g>
		<path style="fill:#FC346C;" d="M539.617,940.442l-0.036,7.965l-0.054,12.491l-0.017,4.285l-0.01,1.803l-0.001,0.029l-0.017,3.937
			l-0.042,8.595c-0.033,7.313-5.981,13.209-13.288,13.175c-7.307-0.034-13.199-5.988-13.169-13.289l0.049-10.975l0.04-8.886
			l0.068-14.551l0.024-4.698c0-1.161,0.16-2.284,0.444-3.349c1.023-3.866,3.755-7.032,7.334-8.655
			c1.188-0.536,2.467-0.899,3.806-1.065c0.561-0.068,1.132-0.104,1.705-0.1C533.754,927.188,539.65,933.129,539.617,940.442z"/>
	</g>
	<g>
		<path style="fill:#240448;" d="M539.617,940.442l-0.036,7.965l-0.054,12.491l-0.017,4.285l-0.01,1.803l-0.001,0.029l-0.017,3.937
			c-9.458-0.988-18.083-7.011-21.943-16.429l-1.196-2.922c-0.636-1.555-1.083-3.14-1.341-4.727c-1.11-6.823,1.168-13.73,5.94-18.554
			c1.188-0.536,2.467-0.899,3.806-1.065c0.561-0.068,1.132-0.104,1.705-0.1C533.754,927.188,539.65,933.129,539.617,940.442z"/>
	</g>
	<g>
		<path style="fill:#FC346C;" d="M547.259,962.922L547.259,962.922c8.34-3.42,12.329-12.953,8.909-21.293l-5.135-12.522
			c-4.507-10.991-17.07-16.247-28.06-11.741h0c-10.991,4.507-16.247,17.07-11.741,28.061l1.199,2.923
			C518.025,961.992,533.618,968.516,547.259,962.922z"/>
	</g>
	<g>
		<path style="fill:#FC346C;" d="M550.186,929.4c3.142,5.212,6.334,10.049,9.841,12.586c0.948,0.686,1.332,1.971,0.733,2.977
			c-0.375,0.629-1.047,1.085-1.896,1.106l-9.372,0.239L550.186,929.4z"/>
	</g>
	<g>
		<path style="fill:#240448;" d="M526.62,947.873c0,0-7.027-14.274,2.649-14.757c22.939-1.145,24.455-11.45,24.461-11.454
			c0.098-0.07-2.757-3.427-2.924-3.609c-2.437-2.65-5.23-5.01-8.349-6.82c-11.614-6.741-26.96-2.683-35.674,6.945
			c-9.665,10.679-7.556,21.172-3.19,28.346c3.66,6.014,11.53,7.904,17.646,4.416L526.62,947.873z"/>
	</g>
	<g>
		<path style="fill:#240448;" d="M507.576,909.576c0.749-2.546,1.843-4.999,2.289-7.614c0.796-4.666-0.644-9.663-3.802-13.189
			c-3.157-3.526-7.965-5.508-12.69-5.231c-7.023,0.412-12.851,5.334-18.108,10.01c-4.164-5.355-9.873-9.64-16.421-11.413
			c-9.805-2.655-25.93,1.623-24.741,14.415c0.404,4.346,2.894,8.303,6.138,11.224c1.011,0.91,2.145,1.802,2.602,3.083
			c0.625,1.753-0.236,3.731-1.522,5.077c-1.285,1.346-2.953,2.252-4.424,3.391c-4.161,3.224-6.675,8.471-6.579,13.734
			c0.096,5.263,2.799,10.416,7.074,13.486c2.258,1.622,4.955,2.701,6.66,4.965c5.095,6.767,2.956,16.495,9.087,23.014
			c4.161,4.425,10.883,5.82,16.826,4.564c5.943-1.256,11.172-4.834,15.521-9.074c4.712-4.594,8.732-10.474,8.95-17.051
			c0.189-5.686-2.713-11.381-7.425-14.57c-2.563-1.734-5.97-3.287-6.276-6.366c-0.268-2.693,2.325-4.997,5.004-5.38
			c2.679-0.384,5.343,0.638,7.822,1.725c7.07,3.102,13.9,6.931,21.401,8.758c-0.604,0.209-1.207,0.417-1.811,0.626
			c0.613,2.051,3.744,2.348,5.283,0.86c1.539-1.488,1.725-3.913,1.311-6.013c-0.548-2.777-1.985-5.371-4.05-7.307
			c-2.668-2.501-6.422-4.038-8.037-7.319c-1.22-2.477-0.919-5.436-0.17-8.093C507.516,909.783,507.546,909.679,507.576,909.576z"/>
	</g>
	<g>
		<path style="fill:#FC346C;" d="M512.392,943.911c0.9,5.531,6.114,9.285,11.645,8.385c5.531-0.9,9.286-6.114,8.385-11.645
			c-0.9-5.531-6.114-9.286-11.645-8.385C515.245,933.166,511.491,938.38,512.392,943.911z"/>
	</g>
	<g>
		<path style="fill:#FFFFFF;" d="M498.767,933.924c0.826,0,1.635-0.41,2.111-1.158l9.229-14.504c0.741-1.165,0.398-2.71-0.768-3.452
			c-1.163-0.74-2.71-0.398-3.451,0.767l-9.23,14.504c-0.741,1.165-0.397,2.71,0.768,3.452
			C497.843,933.798,498.307,933.924,498.767,933.924z"/>
	</g>
	<g>
		<path style="fill:#FFFFFF;" d="M525.614,1206.706c0.141,0,0.283-0.012,0.427-0.037c1.36-0.234,2.274-1.527,2.04-2.888
			l-10.956-63.696c-0.096-0.555-0.375-1.061-0.794-1.437l-11.005-9.876c-1.027-0.921-2.609-0.835-3.53,0.191
			c-0.923,1.028-0.837,2.608,0.19,3.531l10.358,9.295l10.809,62.84C523.362,1205.847,524.42,1206.706,525.614,1206.706z"/>
	</g>
	<g>
		<path style="fill:#240448;" d="M499.215,1087.274c0.257,0,0.519-0.039,0.775-0.124c1.314-0.428,2.029-1.84,1.602-3.152
			c-1.446-4.428-0.789-7.965,2.066-11.132c0.925-1.025,0.843-2.606-0.182-3.531c-1.027-0.924-2.608-0.843-3.531,0.182
			c-4.064,4.505-5.109,9.899-3.107,16.032C497.183,1086.604,498.163,1087.274,499.215,1087.274z"/>
	</g>
	<g>
		<path style="fill:#240448;" d="M546.641,1087.78c0.813,0,1.609-0.396,2.09-1.126c3.337-5.068,3.555-10.559,0.647-16.318
			c-0.622-1.232-2.124-1.727-3.357-1.105c-1.233,0.622-1.727,2.125-1.106,3.358c2.099,4.159,1.983,7.754-0.36,11.316
			c-0.76,1.153-0.441,2.704,0.713,3.463C545.692,1087.646,546.17,1087.78,546.641,1087.78z"/>
	</g>
	<g>
		<rect x="508.414" y="973.429" style="fill:#FCCC6C;" width="35.186" height="19.292"/>
	</g>
	<g>
		<path style="fill:#240448;" d="M660.638,1055.723c0.454,0,0.913-0.124,1.326-0.382c3.501-2.195,5.554-6.114,5.779-11.035
			c0.211-4.581-1.209-9.553-3.997-14c-6.037-9.627-16.275-13.714-23.311-9.301c-1.17,0.733-1.523,2.276-0.79,3.446
			c0.733,1.17,2.276,1.523,3.446,0.79c4.502-2.822,12.022,0.712,16.418,7.721c2.253,3.593,3.403,7.54,3.238,11.114
			c-0.148,3.234-1.37,5.73-3.44,7.028c-1.17,0.733-1.523,2.276-0.79,3.446C658.993,1055.307,659.806,1055.723,660.638,1055.723z"/>
	</g>
	<g>
		<path style="fill:#FC346C;" d="M583.293,1093.819c2.818,0,5.679-0.632,8.375-1.968c9.356-4.633,13.185-15.975,8.553-25.332
			l-35.445-71.577c-4.634-9.357-15.977-13.186-25.332-8.552c-9.357,4.633-13.186,15.975-8.553,25.331l35.445,71.577
			C569.634,1089.959,576.332,1093.819,583.293,1093.819z"/>
	</g>
	<g>
		<g>
			<path style="fill:#FC346C;" d="M679.812,1031.309c0.001,5.095-2.949,10.066-8.286,12.898l-74.938,49.903
				c-9.599,5.81-22.091,2.738-27.901-6.861c-5.811-9.599-2.739-22.09,6.861-27.901l78.189-40.902
				c8.116-4.306,18.678-2.029,23.59,5.084C679.01,1025.966,679.812,1028.655,679.812,1031.309z"/>
		</g>
	</g>
	<g>
		<g>
			<path style="fill:#FC346C;" d="M652.88,1035.459c1.733,0,3.471-0.628,4.842-1.899l28.835-26.71
				c2.889-2.675,3.062-7.185,0.386-10.074c-2.675-2.888-7.186-3.061-10.073-0.385l-28.835,26.71
				c-2.889,2.675-3.061,7.185-0.386,10.074C649.052,1034.691,650.964,1035.459,652.88,1035.459z"/>
		</g>
		<g>
			<path style="fill:#FC346C;" d="M660.567,1036.423c1.374,0,2.764-0.397,3.987-1.225l19.252-13.025
				c3.261-2.206,4.116-6.638,1.91-9.899c-2.205-3.26-6.638-4.117-9.898-1.91l-19.252,13.025c-3.261,2.206-4.116,6.638-1.91,9.899
				C656.034,1035.324,658.28,1036.423,660.567,1036.423z"/>
		</g>
		<g>
			<path style="fill:#FC346C;" d="M670.206,1043.889c1.507,0,3.024-0.475,4.314-1.458l13.315-10.143
				c3.132-2.385,3.737-6.858,1.352-9.99c-2.387-3.134-6.859-3.736-9.99-1.351l-13.316,10.143c-3.132,2.385-3.737,6.858-1.351,9.99
				C665.933,1042.921,668.057,1043.889,670.206,1043.889z"/>
		</g>
	</g>
	<g>
		<path style="fill:#FC346C;" d="M650.034,1033.725c3.644,0,6.752-2.78,7.09-6.481l1.175-12.859c0.358-3.92-2.529-7.389-6.45-7.748
			c-3.938-0.357-7.389,2.53-7.747,6.451l-1.175,12.859c-0.358,3.92,2.529,7.389,6.45,7.748
			C649.597,1033.715,649.816,1033.725,650.034,1033.725z"/>
	</g>
	<g>
		<path style="fill:#240448;" d="M655.65,1057.114c2.243,0,4.398-0.571,6.315-1.773c1.17-0.733,1.523-2.276,0.79-3.446
			c-0.734-1.17-2.275-1.522-3.446-0.79c-4.501,2.823-12.023-0.712-16.418-7.721c-2.253-3.593-3.403-7.54-3.239-11.114
			c0.148-3.234,1.371-5.73,3.441-7.028c1.17-0.733,1.523-2.276,0.79-3.446c-0.734-1.17-2.276-1.522-3.446-0.79
			c-3.501,2.195-5.554,6.114-5.779,11.035c-0.211,4.581,1.209,9.553,3.997,14C643.046,1053.042,649.662,1057.114,655.65,1057.114z"
			/>
	</g>
	<g>
		<path style="fill:#FFFFFF;" d="M643.126,1040.332c-1.022,3.18-4.429,4.929-7.609,3.906c-3.18-1.022-4.928-4.429-3.906-7.609
			s4.429-4.928,7.609-3.906C642.399,1033.746,644.148,1037.153,643.126,1040.332z"/>
	</g>
	<g>
		<path style="fill:#FFFFFF;" d="M648.691,1048.474c-1.022,3.18-4.429,4.928-7.608,3.906c-3.18-1.022-4.928-4.429-3.906-7.609
			c1.022-3.18,4.429-4.928,7.609-3.906C647.964,1041.888,649.713,1045.295,648.691,1048.474z"/>
	</g>
	<g>
		<path style="fill:#240448;" d="M582.622,1057.086c0.4,0,0.807-0.096,1.184-0.3l9.28-5c1.216-0.655,1.67-2.171,1.016-3.386
			c-0.656-1.216-2.172-1.67-3.387-1.015l-9.28,5c-1.216,0.655-1.67,2.171-1.016,3.386
			C580.871,1056.61,581.732,1057.086,582.622,1057.086z"/>
	</g>
</g>
<g>
	<path style="fill:#240448;" d="M1531.654,1413.39H299.42c-1.381,0-2.5-1.119-2.5-2.5s1.119-2.5,2.5-2.5h1232.234
		c1.381,0,2.5,1.119,2.5,2.5S1533.035,1413.39,1531.654,1413.39z"/>
</g>
<g>
	<path style="fill:#FCCC6C;" d="M1358.604,1375.66c11.007,11.156,24.576,15.614,30.309,9.958c5.732-5.656,1.457-19.284-9.549-30.44
		c-7.615-7.718-19.2-9.523-25.617-9.903c-2.64-0.156-4.82,1.995-4.699,4.636C1349.34,1356.333,1350.989,1367.942,1358.604,1375.66z"
		/>
	<g>
		<path style="fill:#240448;" d="M1403.032,1411.392c-1.303,0-2.401-1.01-2.492-2.329c-0.081-1.174-7.713-118.366,21.906-202.669
			c0.458-1.302,1.885-1.987,3.188-1.529c1.303,0.457,1.988,1.885,1.53,3.188c-29.275,83.319-21.715,199.505-21.636,200.669
			c0.094,1.377-0.946,2.57-2.323,2.665C1403.148,1411.391,1403.09,1411.392,1403.032,1411.392z"/>
	</g>
	<g>
		<path style="fill:#240448;" d="M1391.949,1411.392c-0.01,0-0.021,0-0.031,0c-1.381-0.017-2.486-1.149-2.47-2.53
			c0.654-53.879-14.388-86.242-25.76-105.898c-0.692-1.195-0.283-2.725,0.912-3.416c1.195-0.69,2.725-0.282,3.416,0.912
			c11.667,20.167,27.101,53.353,26.432,108.463C1394.432,1410.293,1393.316,1411.392,1391.949,1411.392z"/>
	</g>
	<path style="fill:#44D4F4;" d="M1424.493,1241.146c-2.155,9.231-7.748,15.817-12.491,14.71s-6.842-9.489-4.687-18.72
		c1.491-6.387,6.898-10.977,10.089-13.2c1.313-0.914,3.117-0.493,3.889,0.908
		C1423.168,1228.249,1425.984,1234.759,1424.493,1241.146z"/>
	<path style="fill:#FC346C;" d="M1458.118,1214.761c2.31-4.29,0.318-8.705-4.427-9.813h0c-4.744-1.108-10.515,1.496-12.825,5.785
		l-15.732,29.219c-2.055,3.816-6.412,5.782-10.634,4.797l0,0c-4.221-0.985-7.258-4.678-7.411-9.009l-1.168-33.165
		c-0.171-4.869-4.193-9.758-8.938-10.865l0,0c-4.719,0.166-8.409,4.126-8.243,8.845c0,0,1.477,43.796,1.574,44.672l0.05,0.408
		c0.962,7.149,6.22,13.3,13.662,15.038l12.785,2.984c7.445,1.738,14.886-1.452,18.913-7.44l0.056,0.03L1458.118,1214.761z"/>
	<g>
		<path style="fill:#FCCC6C;" d="M1352.31,1273.994L1352.31,1273.994l10.167-19.807c2.385-4.648-0.509-10.262-5.679-11.015l0,0
			c-5.169-0.753-9.545,3.803-8.584,8.938L1352.31,1273.994z"/>
		<path style="fill:#FCCC6C;" d="M1343.576,1280.508L1343.576,1280.508l-21.884,4.096c-5.135,0.961-9.691-3.414-8.938-8.584l0,0
			c0.753-5.169,6.368-8.064,11.015-5.679L1343.576,1280.508z"/>
		<path style="fill:#FCCC6C;" d="M1349.813,1288.871L1349.813,1288.871l-10.167,19.807c-2.385,4.648,0.509,10.262,5.679,11.015l0,0
			c5.169,0.753,9.545-3.804,8.584-8.938L1349.813,1288.871z"/>
		<path style="fill:#FCCC6C;" d="M1358.548,1282.357L1358.548,1282.357l21.884-4.096c5.135-0.961,9.691,3.415,8.938,8.584l0,0
			c-0.753,5.17-6.368,8.064-11.015,5.679L1358.548,1282.357z"/>
		<path style="fill:#FCCC6C;" d="M1346.685,1275.29L1346.685,1275.29l-6.817-21.195c-1.599-4.973-7.617-6.897-11.804-3.773l0,0
			c-4.188,3.123-4.06,9.439,0.25,12.39L1346.685,1275.29z"/>
		<path style="fill:#FCCC6C;" d="M1345.115,1286.072L1345.115,1286.072l-12.578,18.371c-2.951,4.31-9.267,4.438-12.39,0.251v0
			c-3.123-4.188-1.2-10.205,3.773-11.804L1345.115,1286.072z"/>
		<path style="fill:#FCCC6C;" d="M1355.438,1287.575L1355.438,1287.575l6.817,21.195c1.599,4.973,7.617,6.897,11.804,3.774l0,0
			c4.188-3.123,4.06-9.439-0.251-12.39L1355.438,1287.575z"/>
		<path style="fill:#FCCC6C;" d="M1357.009,1276.793L1357.009,1276.793l12.578-18.371c2.951-4.31,9.267-4.438,12.39-0.25l0,0
			c3.123,4.188,1.2,10.204-3.773,11.804L1357.009,1276.793z"/>
	</g>
</g>
<circle style="fill:#FCCC6C;" cx="806.641" cy="970.951" r="45.323"/>
<circle style="fill:#FFFFFF;" cx="806.641" cy="970.951" r="8.088"/>
<g>
	<path style="fill:#240448;" d="M663.134,951.687c-1.196,0-2.253-0.86-2.461-2.079c-0.232-1.361,0.683-2.652,2.043-2.885
		l80.859-13.812c1.364-0.232,2.653,0.683,2.885,2.043c0.232,1.361-0.683,2.652-2.043,2.885l-80.859,13.811
		C663.415,951.675,663.273,951.687,663.134,951.687z"/>
</g>
<g>
	<path style="fill:#240448;" d="M667.761,980.356c-1.196,0-2.253-0.86-2.461-2.079c-0.232-1.361,0.683-2.652,2.043-2.885
		l61.605-10.523c1.361-0.233,2.653,0.683,2.885,2.043c0.232,1.361-0.683,2.652-2.044,2.885l-61.605,10.523
		C668.043,980.345,667.901,980.356,667.761,980.356z"/>
</g>
<polygon style="fill:#44D4F4;" points="2040.359,693.209 2047.037,705.821 2059.249,712.72 2047.037,719.618 2040.359,732.231 
	2033.68,719.618 2021.468,712.72 2033.68,705.821 "/>
<polygon style="fill:#44D4F4;" points="679.812,284.402 686.491,297.015 698.703,303.913 686.491,310.811 679.812,323.424 
	673.133,310.811 660.921,303.913 673.133,297.015 "/>
<polygon style="fill:#FCCC6C;" points="1459.08,200.582 1465.759,213.195 1477.971,220.093 1465.759,226.991 1459.08,239.604 
	1452.401,226.991 1440.19,220.093 1452.401,213.195 "/>
<polygon style="fill:#FCCC6C;" points="551.408,766.891 558.086,779.504 570.298,786.403 558.086,793.301 551.408,805.914 
	544.729,793.301 532.517,786.403 544.729,779.504 "/>
<polygon style="fill:#FCCC6C;" points="1055.113,1203.075 1061.792,1215.688 1074.004,1222.587 1061.792,1229.485 
	1055.113,1242.098 1048.434,1229.485 1036.223,1222.587 1048.434,1215.688 "/>
<polygon style="fill:#44D4F4;" points="1567.093,951.439 1573.772,964.052 1585.984,970.951 1573.772,977.849 1567.093,990.461 
	1560.415,977.849 1548.203,970.951 1560.415,964.052 "/>
<g>
	<polygon style="fill:#FFFFFF;" points="1207.906,890.016 1214.585,902.629 1226.796,909.527 1214.585,916.425 1207.906,929.038 
		1201.227,916.425 1189.015,909.527 1201.227,902.629 	"/>
	<polygon style="fill:#FFFFFF;" points="1172.515,932.878 1182.405,951.555 1200.488,961.77 1182.405,971.985 1172.515,990.662 
		1162.625,971.985 1144.542,961.77 1162.625,951.555 	"/>
</g>
<g>
	<polygon style="fill:#FFFFFF;" points="1379.866,528.624 1392.478,521.945 1399.377,509.733 1406.275,521.945 1418.888,528.624 
		1406.275,535.302 1399.377,547.514 1392.478,535.302 	"/>
	<polygon style="fill:#FFFFFF;" points="1422.728,564.014 1441.405,554.124 1451.62,536.041 1461.835,554.124 1480.511,564.014 
		1461.835,573.904 1451.62,591.987 1441.405,573.904 	"/>
</g>
<g>
	<path style="fill:#240448;" d="M1975.487,834.494c-12.598,0-24.83-5.583-29.186-17.665c-0.856-2.375-1.409-4.926-1.653-7.6
		c-5.246-1.952-10.506-5.732-14.877-10.827c-4.77-5.558-7.818-12.164-8.364-18.123c-0.126-1.374,0.886-2.589,2.26-2.715
		c1.376-0.131,2.589,0.885,2.715,2.259c0.447,4.878,3.132,10.607,7.181,15.326c2.729,3.181,6.655,6.568,11.004,8.629
		c0.108-1.862,0.352-3.761,0.732-5.681c1.107-5.598,3.249-9.381,6.545-11.565c3.732-2.472,8.933-2.453,12.646,0.047
		c3.714,2.5,5.688,7.311,4.801,11.7c-0.544,2.692-2.09,5.273-4.47,7.463c-3.896,3.582-8.467,5.242-13.544,4.945
		c-0.475-0.028-0.955-0.074-1.436-0.138c0.251,1.602,0.638,3.136,1.16,4.584c5.342,14.817,24.211,16.301,35.903,12.621
		c0.396-0.125,0.792-0.257,1.185-0.397c3.328-1.192,6.279-2.807,8.771-4.801c1.077-0.863,2.649-0.687,3.511,0.389
		c0.862,1.077,0.688,2.649-0.39,3.511c-2.924,2.34-6.358,4.226-10.208,5.604c-0.453,0.162-0.909,0.315-1.367,0.46
		C1984.264,833.823,1979.854,834.494,1975.487,834.494z M1949.501,805.438c0.688,0.132,1.379,0.222,2.07,0.262
		c3.701,0.221,7.01-1.005,9.867-3.634c1.115-1.026,2.534-2.688,2.956-4.776c0.49-2.424-0.644-5.185-2.694-6.566
		c-2.054-1.382-5.037-1.392-7.097-0.027c-2.128,1.41-3.568,4.148-4.404,8.371C1949.769,801.242,1949.536,803.375,1949.501,805.438z"
		/>
</g>
</svg>
