<?xml version="1.0" encoding="utf-8"?>
<!-- Generator: Adobe Illustrator 27.5.0, SVG Export Plug-In . SVG Version: 6.00 Build 0)  -->
<svg version="1.1" id="Ñëîé_1" xmlns="http://www.w3.org/2000/svg" xmlns:xlink="http://www.w3.org/1999/xlink" x="0px" y="0px"
	 viewBox="0 0 3338.691 1664" style="enable-background:new 0 0 3338.691 1664;" xml:space="preserve">
<rect x="0" style="fill:#FFFFFF;" width="3338.691" height="1664"/>
<g>
	<rect x="2686.618" y="1259.306" style="fill:#DCE5F7;" width="52.424" height="151.694"/>
	<rect x="2775.279" y="1183.247" style="fill:#DCE5F7;" width="52.424" height="227.753"/>
	<rect x="2873.096" y="1083.558" style="fill:#DCE5F7;" width="52.424" height="327.441"/>
</g>
<g>
	<path style="fill:#DCE5F7;" d="M1841.933,558.732V456.725h-55.036c-1.76-4.942-3.765-9.767-6.014-14.453l38.787-38.917
		l-70.876-70.639L1709.94,371.7c-4.469-2.117-9.059-4.016-13.758-5.69v-55.036h-100.066v54.948
		c-5.817,2.06-11.468,4.468-16.929,7.202l-39.696-38.133l-69.323,72.163l39.622,38.063c-1.738,3.835-3.311,7.759-4.727,11.759
		h-54.948v100.067h55.036c2.191,6.154,4.765,12.127,7.71,17.879l-38.965,41.026l71.892,70.954l40.697-42.849
		c3.075,1.336,6.202,2.573,9.38,3.704v59.808h100.066v-59.72c4.589-1.625,9.073-3.466,13.443-5.514l41.818,41.605l69.892-73.001
		l-40.024-39.82c1.921-4.031,3.668-8.162,5.229-12.382H1841.933z"/>
	
		<ellipse transform="matrix(0.7071 -0.7071 0.7071 0.7071 122.0017 1313.0764)" style="fill:#FFFFFF;" cx="1646.024" cy="509.269" rx="85.789" ry="85.789"/>
</g>
<g>
	<path style="fill:#DCE5F7;" d="M2845.028,1047.132v-74.773h-40.343c-1.29-3.622-2.76-7.159-4.408-10.594l28.432-28.527
		l-51.953-51.78l-28.481,28.576c-3.275-1.552-6.64-2.944-10.084-4.171v-40.343h-73.351v40.278c-4.264,1.51-8.406,3.275-12.409,5.279
		l-29.098-27.953l-50.815,52.897l29.044,27.901c-1.274,2.811-2.427,5.688-3.465,8.619h-40.278v73.351h40.343
		c1.606,4.511,3.493,8.889,5.652,13.106l-28.562,30.073l52.698,52.011l29.832-31.409c2.254,0.979,4.546,1.886,6.876,2.715v43.84
		h73.351v-43.776c3.363-1.191,6.651-2.541,9.854-4.042l30.654,30.497l51.232-53.511l-29.339-29.189
		c1.408-2.955,2.689-5.983,3.833-9.076H2845.028z"/>
	
		<ellipse transform="matrix(0.7071 -0.7071 0.7071 0.7071 76.4315 2206.2729)" style="fill:#FFFFFF;" cx="2701.423" cy="1010.875" rx="62.885" ry="62.885"/>
</g>
<g>
	<path style="fill:#DCE5F7;" d="M894.714,446.528v-50.381h-27.182c-0.869-2.441-1.859-4.824-2.97-7.138l19.157-19.221
		l-35.005-34.889l-19.19,19.255c-2.207-1.046-4.474-1.984-6.795-2.81V324.16h-49.423v27.139c-2.873,1.017-5.664,2.207-8.361,3.557
		l-19.606-18.834l-34.239,35.641l19.569,18.799c-0.859,1.894-1.635,3.832-2.335,5.808h-27.139v49.423h27.182
		c1.082,3.04,2.354,5.989,3.808,8.831l-19.245,20.263l35.507,35.044l20.1-21.163c1.519,0.66,3.063,1.271,4.633,1.829v29.539h49.423
		v-29.495c2.266-0.802,4.481-1.712,6.64-2.723l20.654,20.549l34.52-36.055l-19.768-19.667c0.949-1.991,1.812-4.031,2.582-6.116
		H894.714z"/>
	<circle style="fill:#FFFFFF;" cx="797.954" cy="422.098" r="42.371"/>
</g>
<g>
	<g>
		<path style="fill:#FFFFFF;" d="M2141.512,810.008c-12.76,25.699-21.541,52.344-26.56,79.241c-0.471,2.553-0.924,5.115-1.33,7.676
			c-0.212,1.276-0.405,2.562-0.599,3.848c-4.345,29.503-4.207,59.171,0.057,88.078c1.319,8.804,2.984,17.523,5.044,26.156
			c0.303,1.228,0.607,2.456,0.911,3.684c0.626,2.465,1.261,4.912,1.943,7.358c0.351,1.228,0.692,2.428,1.042,3.655
			c0.719,2.418,1.458,4.845,2.224,7.264c1.542,4.817,3.216,9.605,4.983,14.347c26.016,69.33,77.369,129.37,148.925,164.899
			c29.175,14.486,59.573,23.819,90.136,28.387l0.019,0.009c15.633,2.33,31.301,3.412,46.881,3.256
			c110.559-0.907,216.617-62.501,269.16-168.322c14.999-30.208,24.498-61.741,28.865-93.411c2.51-18.307,3.331-36.657,2.493-54.824
			c-0.549-11.864-1.782-23.67-3.7-35.324c-4.895-29.993-14.3-59.11-27.817-86.313c-2.17-4.356-4.433-8.664-6.818-12.916
			c-0.792-1.424-1.593-2.828-2.413-4.242c-1.63-2.8-3.308-5.6-5.032-8.353c-11.391-18.278-24.777-35.416-40.063-51.085l-0.019-0.009
			c-0.122-0.131-0.235-0.234-0.376-0.374c-23.103-23.602-50.511-43.814-81.771-59.336c-32.969-16.37-67.487-26.18-102.044-29.92
			c-2.111-0.228-4.231-0.438-6.361-0.629c-62.177-5.418-124.233,8.684-177.567,39.364c-1.349,0.735-2.669,1.508-3.952,2.3
			c-1.677,0.971-3.315,1.96-4.945,2.978c-0.646,0.405-1.264,0.801-1.901,1.187c0,0-0.009,0.019-0.028,0.01
			c-1.405,0.895-2.818,1.809-4.232,2.722c-2.304,1.526-4.588,3.061-6.854,4.653c-6.029,4.172-11.917,8.578-17.654,13.2
			c-2.601,2.127-5.203,4.301-7.748,6.503C2184.928,741.244,2159.925,772.924,2141.512,810.008z"/>
		<path style="fill:#DCE5F7;" d="M2356.33,1058.769l-8.413,40.808l7.593,8.524l-6.969,47.426l21.836,13.231l21.054,62.534
			l-10.897,7.609l-12.244,5.699l0.019,0.009c15.633,2.33,31.301,3.412,46.881,3.256l0-0.047l33.638-12.897l50.599-49.461
			l35.076-8.624l64.362-48.551l5.75-53.979l4.528,2.248l23.21-8.591l49.718-35.707l30.888-32.104l1.017-17.721l-1.858-53.655
			l3.59,2.532c-0.549-11.864-1.782-23.67-3.7-35.324c-4.895-29.993-14.3-59.11-27.817-86.313c-2.17-4.356-4.433-8.664-6.818-12.916
			c-0.792-1.424-1.593-2.828-2.413-4.242c-1.621-2.819-3.308-5.6-5.022-8.372c-9.125-16.146-22.238-32.89-40.073-51.066
			l-29.688,13.43l-25.015,40.854l-14.659,17.591l-14.179,21.388l26.132,16.511l21.874,20.322l39.653,106.146l6.663,8.039
			l11.817-14.271l0.913-9.008l9.013-3.815l6.44,12.073l5.525,10.378l9.476,17.796l-14.42,15.93l-0.972-12.332l-11.4-8.026
			l-8.488,17.095l-3.768,14.709l-10.891,2.882l-11.061,32.983l-18.396,6.204l-0.104-7.1l-11.415-19.882l-31.767,4.365l-17.114-8.498
			l-41.691,14.824l-25.14-4.217l-26.966,20.964L2356.33,1058.769z"/>
		<path style="fill:#DCE5F7;" d="M2554.967,728.49l-4.218,18.033l-26.01,26.156l-14.732-10.867l4.218-18.033l-29.975-35.011
			l17.033-17.933c6.729-7.7,17.711-10.076,27.021-5.847l12.331,5.602l31.35,17.935l8.568,11.358l-3.753,14.712L2554.967,728.49z"/>
		<path style="fill:#DCE5F7;" d="M2141.51,810.011c-38.898,78.34-40.767,165.403-12.277,241.3l4.969-0.417l1.542-12.862
			l4.965-63.282l20.313-56.77l18.883-30.877l36.513-1.997l47.076,45.872l45.01-14.353l34.477-52.734l2.323-18.982l-3.478-55.004
			l-22.383-33.611l-17.57-9.905l-48.905-20.732l8.416-19.199l34.689,1.53l-13.264,5.257l-3.299,6.645l4.277,3.313l9-3.823
			l10.442,2.823l22.301,5.151l14.221-2.411l0.984,12.323l12.106,17.745l5.747,19.429l29.93,18.412l24.09-34.213l13.375-18.98
			l-28.369-14.404l0.875-25.614l24.653-1.964l41.168-35.207l-24.219-10.836l8.044-6.669c-0.835-0.514-1.659-1.032-2.479-1.539
			c-67.76-7.342-137.715,9.747-194.777,45.19l0.018,0.036C2205.486,717.312,2167.135,758.404,2141.51,810.011z"/>
		<g>
			<path style="fill:#DCE5F7;" d="M2275.822,1220.908c-70.181-34.847-123.986-94.423-151.503-167.752
				c-1.855-4.976-3.558-9.882-5.066-14.591c-0.782-2.46-1.529-4.919-2.257-7.368l-1.058-3.708c-0.702-2.518-1.349-5.003-1.984-7.508
				l-0.919-3.722c-2.049-8.589-3.774-17.536-5.139-26.632c-4.402-29.845-4.422-59.993-0.059-89.621
				c0.199-1.326,0.398-2.636,0.613-3.939c0.409-2.571,0.869-5.176,1.348-7.772c5.198-27.857,14.286-54.978,27.019-80.62
				c18.33-36.915,43.283-69.184,74.168-95.917c2.582-2.234,5.221-4.44,7.861-6.597c5.877-4.735,11.919-9.252,17.989-13.453
				c2.275-1.599,4.597-3.159,6.941-4.714l0.385-0.248c1.311-0.849,2.622-1.695,3.926-2.525c0.101-0.063,0.204-0.125,0.307-0.181
				c0.36-0.22,0.716-0.445,1.076-0.672l0.583-0.365c1.681-1.051,3.37-2.071,5.1-3.073c1.234-0.764,2.637-1.585,4.071-2.365
				c54.984-31.633,117.447-45.478,180.53-39.983c2.176,0.195,4.327,0.408,6.469,0.641c36.07,3.901,70.997,14.144,103.812,30.437
				c31.112,15.448,59.1,35.758,83.188,60.362c0.074,0.075,0.142,0.139,0.203,0.201c0.068,0.062,0.135,0.124,0.197,0.191
				c15.375,15.757,29.088,33.244,40.76,51.973c1.637,2.614,3.313,5.394,5.115,8.488c0.841,1.451,1.656,2.881,2.463,4.333
				c2.337,4.165,4.606,8.464,6.93,13.123c13.801,27.776,23.322,57.315,28.299,87.807c1.938,11.781,3.204,23.87,3.761,35.926
				c0.855,18.506,0.002,37.272-2.535,55.779c-4.549,32.979-14.428,64.951-29.364,95.032
				c-51.966,104.659-156.886,170.273-273.812,171.232c-15.838,0.158-31.89-0.955-47.698-3.313c-0.087-0.013-0.175-0.029-0.262-0.045
				C2335.523,1244.98,2304.757,1235.276,2275.822,1220.908z M2253.543,693.179c-1.227,0.782-2.461,1.579-3.694,2.377l-0.334,0.215
				c-2.213,1.467-4.457,2.976-6.685,4.541c-5.891,4.076-11.728,8.441-17.378,12.991c-2.536,2.074-5.098,4.217-7.608,6.387
				c-29.827,25.817-53.929,56.989-71.636,92.651c-12.302,24.776-21.084,50.975-26.101,77.871c-0.462,2.499-0.906,5.017-1.306,7.537
				c-0.212,1.284-0.403,2.544-0.592,3.804c-4.212,28.597-4.192,57.718,0.06,86.535c1.318,8.79,2.986,17.442,4.957,25.704l0.9,3.645
				c0.608,2.391,1.233,4.8,1.904,7.205l1.033,3.623c0.694,2.336,1.424,4.732,2.181,7.119c1.454,4.539,3.103,9.287,4.897,14.1
				c26.578,70.824,78.551,128.374,146.344,162.036c28.026,13.916,57.829,23.302,88.58,27.898c0.085,0.012,0.17,0.027,0.254,0.044
				c15.188,2.252,30.602,3.315,45.818,3.164c112.963-0.928,214.316-64.31,264.515-165.41c14.431-29.063,23.975-59.947,28.368-91.795
				c2.449-17.873,3.274-35.999,2.448-53.866c-0.538-11.65-1.76-23.329-3.635-34.715c-4.81-29.463-14.007-58.002-27.339-84.832
				c-2.243-4.502-4.433-8.651-6.696-12.682c-0.785-1.415-1.573-2.792-2.376-4.182c-1.737-2.984-3.354-5.668-4.938-8.195
				c-11.239-18.034-24.427-34.862-39.207-50.038c-0.093-0.086-0.182-0.173-0.268-0.266c-0.014-0.012-0.224-0.219-0.238-0.231
				c-23.313-23.816-50.349-43.435-80.406-58.359c-31.703-15.742-65.44-25.634-100.275-29.403c-2.081-0.223-4.17-0.431-6.269-0.62
				c-60.918-5.307-121.259,8.069-174.481,38.688c-1.372,0.748-2.611,1.475-3.812,2.215c-1.752,1.016-3.34,1.976-4.918,2.962
				l-0.554,0.349c-0.47,0.296-0.936,0.589-1.409,0.875l-0.001,0C2253.613,693.139,2253.578,693.159,2253.543,693.179z"/>
		</g>
	</g>
</g>
<g>
	<g>
		<path style="fill:#FFFFFF;" d="M2600.883,813.116c-0.023,0-0.046-0.001-0.069-0.001l-152.83-4.602
			c-1.25-0.038-2.232-1.081-2.194-2.331l0.879-29.208c0.017-0.601,0.273-1.169,0.711-1.581c0.436-0.411,1.01-0.641,1.62-0.614
			l152.831,4.602c0.6,0.018,1.168,0.273,1.58,0.711c0.411,0.437,0.633,1.02,0.614,1.62l-0.88,29.208
			C2603.107,812.146,2602.102,813.116,2600.883,813.116z M2450.383,804.055l148.305,4.465l0.743-24.682l-148.306-4.465
			L2450.383,804.055z"/>
	</g>
	<g>
		<path style="fill:#2A0055;" d="M2653.995,815.786c-0.022,0-0.046,0-0.069-0.001l-31.347-0.944c-1.25-0.038-2.232-1.081-2.194-2.33
			l0.943-31.347c0.018-0.601,0.274-1.169,0.711-1.581c0.437-0.411,0.994-0.639,1.62-0.614l31.347,0.944
			c0.6,0.018,1.168,0.273,1.58,0.711c0.411,0.437,0.633,1.019,0.614,1.62l-0.945,31.347
			C2656.219,814.816,2655.214,815.786,2653.995,815.786z M2624.979,810.383l26.821,0.808l0.808-26.821l-26.822-0.808
			L2624.979,810.383z"/>
	</g>
	
		<ellipse transform="matrix(0.4368 -0.8995 0.8995 0.4368 715.4591 2720.4001)" style="fill:#240448;" cx="2530.408" cy="788.791" rx="74.157" ry="142.888"/>
	<polygon style="fill:#240448;" points="2401.875,726.37 2424.507,670.842 2687.73,814.877 2658.94,851.211 	"/>
	<polygon style="fill:#240448;" points="2831.402,819.93 2576.792,830.687 2335.343,612.806 2589.952,602.049 	"/>
	<g>
		<path style="fill:#FC346C;" d="M2577.449,811.356c-0.617,0-1.215-0.229-1.675-0.644l-241.449-217.881
			c-0.754-0.68-1.021-1.749-0.677-2.704c0.344-0.955,1.232-1.608,2.246-1.65l254.611-10.757c0.648-0.043,1.294,0.202,1.78,0.642
			l87.248,78.732c1.025,0.925,1.106,2.506,0.181,3.531c-0.926,1.026-2.507,1.107-3.531,0.181l-86.49-78.047l-247.48,10.456
			l236.151,213.1l247.481-10.456L2708.604,690.06c-1.026-0.925-1.106-2.506-0.182-3.531c0.926-1.025,2.506-1.106,3.531-0.181
			l121.781,109.894c0.754,0.68,1.021,1.749,0.677,2.704c-0.344,0.955-1.231,1.607-2.246,1.65l-254.61,10.757
			C2577.519,811.356,2577.484,811.356,2577.449,811.356z"/>
	</g>
	<path style="fill:#FCCC6C;" d="M2615.143,678.179c18.139,8.809,29.138,23.582,24.566,32.996
		c-4.572,9.414-22.983,9.905-41.122,1.095c-18.139-8.809-29.138-23.582-24.566-32.996
		C2578.593,669.86,2597.004,669.369,2615.143,678.179z"/>
	<g>
		<path style="fill:#FCCC6C;" d="M2740.915,906.083c-0.147,0-0.295-0.002-0.444-0.007c-7.998-0.241-14.287-6.92-14.046-14.919
			l0.627-20.818c0.236-7.85,6.675-14.053,14.475-14.053c0.147,0,0.295,0.002,0.444,0.007c7.998,0.241,14.287,6.92,14.046,14.919
			l-0.627,20.818C2755.153,899.88,2748.715,906.083,2740.915,906.083z"/>
	</g>
	<g>
		<path style="fill:#FCCC6C;" d="M2741.538,877.567c-0.07,0-0.139-0.001-0.208-0.003c-3.75-0.113-6.697-3.244-6.585-6.993
			l1.431-47.499l-129.417-122.783c-2.721-2.582-2.834-6.881-0.252-9.602c2.581-2.722,6.879-2.833,9.602-0.252L2747.73,815.31
			c1.403,1.332,2.172,3.198,2.114,5.132l-1.521,50.537C2748.212,874.659,2745.194,877.567,2741.538,877.567z"/>
	</g>
</g>
<g>
	<path style="fill:#DCE5F7;" d="M1301.094,752.834H659.227c-0.231-4.788,0.018-9.954,0.712-15.334v-0.009
		c2.043-15.953,7.958-33.764,16.637-49.033c13.568-23.911,33.912-41.593,56.751-36.13c6.997,1.664,14.225,5.509,21.563,12.006
		c10.999,9.742,19.854,21.702,30.751,31.564c10.888,9.862,24.826,17.783,39.476,16.711c18.356-1.331,31.546-17.746,34.291-35.04
		c6.609-41.602,6.193-123.789,58.211-135.176c0.98-0.213,1.96-0.407,2.921-0.564c44.439-7.607,75.098,35.816,86.929,74.719
		c1.349,4.418,2.449,8.781,3.3,13.005c2.422,10.167,3.346,21.258,3.743,32.498c0.074,0.712,0.157,1.414,0.24,2.117
		c0.351,3.013,0.749,5.998,1.257,8.938c1.238,7.246,3.078,14.16,6.156,20.26c1.174,2.348,2.828,4.769,5.379,5.388
		c7.099,1.719,13.051-6.507,17.118-13.06c1.146-1.839,2.144-3.549,2.976-4.871c12.894-20.464,48.469-34.106,64.533-9.566
		c11.221,17.155,1.885,50.577,25.251,59.117c26.795,9.797,33.542-25.436,35.927-43.506c2.93-22.201,2.44-44.948,8.984-66.558
		c2.773-6.47,7.394-13.864,14.788-14.789c7.394,0,13.864,5.546,16.646,12.025c8.198,19.909,10.454,41.389,13.448,62.528
		c2.44,17.146,5.768,54.976,28.57,57.102c12.108,1.118,23.061-20.491,34.281-10.916
		C1297.184,732.333,1296.805,745.033,1301.094,752.834z"/>
</g>
<g>
	<path style="fill:#DCE5F7;" d="M2457.5,483.621h307.866c-2.071-25.784-18.933-69.758-22.075-74.827
		c-1.278-2.05-2.39-3.956-3.317-5.429c-14.37-22.807-54.018-38.011-71.921-10.662c-12.506,19.119-2.102,56.367-28.143,65.885
		c-29.863,10.919-37.382-28.348-40.04-48.487c-3.266-24.743-2.72-50.094-10.013-74.177c-3.09-7.211-8.241-15.452-16.482-16.482
		c-8.241,0-15.451,6.181-18.552,13.401c-9.137,22.189-11.651,46.128-14.988,69.686c-2.719,19.108-6.427,61.27-31.84,63.64
		c-13.494,1.246-25.701-22.837-38.206-12.166C2461.858,460.773,2462.28,474.927,2457.5,483.621z"/>
</g>
<g>
	<g>
		<rect x="826.261" y="1277.286" style="fill:#FFFFFF;" width="377.228" height="125.126"/>
		<g>
			<path style="fill:#DCE5F7;" d="M1212.29,1270.78H515.086c-18.522,0-33.591,15.068-33.591,33.591v69.923
				c0,18.523,15.068,33.591,33.591,33.591h697.205c3.594,0,6.508-2.913,6.508-6.506s-2.914-6.507-6.508-6.507H515.086
				c-11.345,0-20.575-9.231-20.575-20.578v-69.923c0-11.347,9.23-20.578,20.575-20.578h697.205c3.594,0,6.508-2.913,6.508-6.507
				C1218.798,1273.693,1215.884,1270.78,1212.29,1270.78z"/>
		</g>
		<path style="fill:#DCE5F7;" d="M889.618,1274.187H515.637c-15.271,0-27.635,12.462-27.635,27.832v76.49
			c0,15.38,12.364,27.832,27.635,27.832h373.982c-15.261,0-27.635-12.452-27.635-27.832v-76.49
			C861.983,1286.65,874.358,1274.187,889.618,1274.187z"/>
		<polygon style="fill:#DCE5F7;" points="1126.72,1376.125 1145.467,1356.786 1164.214,1376.125 1164.214,1317.502 
			1126.72,1317.502 		"/>
	</g>
	
		<rect x="593.879" y="1174.418" transform="matrix(-1 -1.224647e-16 1.224647e-16 -1 1446.7848 2437.5493)" style="fill:#FFFFFF;" width="259.027" height="88.714"/>
	<rect x="783.156" y="1027.549" style="fill:#DCE5F7;" width="259.027" height="88.713"/>
	<path style="fill:#DCE5F7;" d="M799.44,1185.029c8.477,8.637,13.716,20.573,13.716,33.746c0,20.269-12.406,37.587-29.903,44.498
		v3.223h357.23c25.867,0,46.836-21.365,46.836-47.721c0-13.173-5.24-25.108-13.716-33.746c-8.477-8.637-20.181-13.975-33.119-13.975
		h-357.23v3.222C789.376,1176.685,794.882,1180.385,799.44,1185.029z"/>
	<g>
		<path style="fill:#DCE5F7;" d="M581.226,1271.095h560.372c28.848,0,52.317-23.47,52.317-52.319
			c0-28.849-23.469-52.32-52.317-52.32H581.226c-4.397,0-7.961,3.565-7.961,7.962s3.564,7.962,7.961,7.962h560.372
			c20.069,0,36.395,16.326,36.395,36.396c0,20.07-16.326,36.395-36.395,36.395H581.226c-4.397,0-7.961,3.565-7.961,7.962
			C573.265,1267.529,576.829,1271.095,581.226,1271.095z"/>
	</g>
	<rect x="745.662" y="1027.549" style="fill:#FFFFFF;" width="387.313" height="128.74"/>
	<g>
		<path style="fill:#DCE5F7;" d="M557.739,1166.489h605.205c4.292,0,7.77-3.478,7.77-7.771c0-4.293-3.479-7.771-7.77-7.771H557.739
			c-32.292,0-58.563-26.272-58.563-58.563s26.272-58.563,58.563-58.563h605.205c4.292,0,7.77-3.478,7.77-7.771
			c0-4.293-3.479-7.77-7.77-7.77H557.739c-40.862,0-74.104,33.244-74.104,74.104
			C483.634,1133.245,516.877,1166.489,557.739,1166.489z"/>
	</g>
	<path style="fill:#DCE5F7;" d="M489.858,1092.378c0,38.238,31.005,69.243,69.243,69.243h334.823v-1.737
		c-30.793-7.019-53.768-34.582-53.768-67.506c0-19.123,7.745-36.43,20.276-48.968c9.048-9.04,20.583-15.594,33.493-18.539v-1.737
		H559.101c-19.123,0-36.43,7.753-48.96,20.276C497.612,1055.948,489.858,1073.255,489.858,1092.378z"/>
	<rect x="801.028" y="925.525" style="fill:#FFFFFF;" width="245.614" height="88.714"/>
	<path style="fill:#DCE5F7;" d="M854.494,936.137c-8.477,8.637-13.716,20.573-13.716,33.745c0,20.269,12.406,37.587,29.903,44.498
		v3.222H594.074c-25.867,0-46.836-21.365-46.836-47.721c0-13.173,5.24-25.109,13.717-33.745c8.477-8.637,20.18-13.975,33.119-13.975
		h276.607v3.222C864.558,927.792,859.052,931.493,854.494,936.137z"/>
	<g>
		<path style="fill:#DCE5F7;" d="M1072.478,1022.7c4.08,0,7.397-3.298,7.418-7.383c0.021-4.097-3.284-7.437-7.382-7.456
			l-480.93-2.476c-9.866-0.052-19.121-3.941-26.062-10.953c-6.94-7.012-10.735-16.309-10.684-26.175
			c0.105-20.302,16.656-36.747,36.934-36.747c0.065,0,0.128,0,0.193,0l480.93,2.476c0.012,0.002,0.026,0.002,0.039,0.002
			c4.08,0,7.397-3.298,7.418-7.383c0.021-4.097-3.284-7.438-7.382-7.456l-480.93-2.476c-0.089-0.002-0.18-0.002-0.268-0.002
			c-28.427,0-51.627,23.052-51.773,51.511c-0.07,13.831,5.248,26.86,14.977,36.689c9.729,9.831,22.703,15.283,36.534,15.352
			l480.93,2.476C1072.451,1022.7,1072.465,1022.7,1072.478,1022.7z"/>
	</g>
</g>
<g>
	<path style="fill:#240448;" d="M1379.224,1413.39h-40.777c-1.381,0-2.5-1.119-2.5-2.5s1.119-2.5,2.5-2.5h40.777
		c1.381,0,2.5,1.119,2.5,2.5S1380.604,1413.39,1379.224,1413.39z"/>
</g>
<g>
	<path style="fill:#240448;" d="M2153.676,1413.5h-774.45c-1.381,0-2.5-1.119-2.5-2.5s1.119-2.5,2.5-2.5h774.45
		c1.381,0,2.5,1.119,2.5,2.5S2155.056,1413.5,2153.676,1413.5z"/>
</g>
<g>
	<g>
		<path style="fill:#44D4F4;" d="M2196.699,569.992l-969.58-86.25c-16.61-1.48-31.28,10.79-32.76,27.41l-58.66,659.48
			c-1.55,17.36,11.27,32.68,28.63,34.22l966.9,86.02c17.36,1.54,32.68-11.28,34.22-28.63l58.67-659.49
			C2225.599,586.142,2213.329,571.472,2196.699,569.992z M2122.989,1246.252l-942.69-83.86l56.39-633.93l942.69,83.86
			L2122.989,1246.252z"/>
		
			<rect x="1361.622" y="414.151" transform="matrix(0.0886 -0.9961 0.9961 0.0886 647.1325 2481.9666)" style="fill:#FFFFFF;" width="636.433" height="946.413"/>
	</g>
	<path style="fill:#44D4F4;" d="M1729.983,1405.14l-190.88-16.98c-9.719-0.865-17.411-3.668-17.18-6.261l12.818-144.092h0
		l226.076,20.111l-12.818,144.092C1747.768,1404.603,1739.702,1406.004,1729.983,1405.14z"/>
	<path style="fill:#44D4F4;" d="M1820.552,1411l-174.428-5.726l-198.974-17.703c2.549-28.664,27.865-49.846,56.528-47.287
		l269.624,23.985C1798.642,1366.525,1818.147,1386.563,1820.552,1411z"/>
	<g>
		<path style="fill:#240448;" d="M1818.825,1413.421h-267.652c-1.337,0-2.421-1.084-2.421-2.421s1.084-2.421,2.421-2.421h265.173
			c-1.266-26.284-23.047-47.277-49.639-47.277h-21.856c-1.337,0-2.421-1.084-2.421-2.421s1.084-2.421,2.421-2.421h21.856
			c30.073,0,54.539,24.467,54.539,54.54C1821.246,1412.337,1820.162,1413.421,1818.825,1413.421z"/>
	</g>
	<g>
		<path style="fill:#240448;" d="M1443.907,1413.421c-1.337,0-2.421-1.084-2.421-2.421c0-30.073,24.466-54.54,54.54-54.54h19.435
			V1252.3c0-1.337,1.084-2.421,2.421-2.421s2.421,1.084,2.421,2.421v106.581c0,1.337-1.084,2.421-2.421,2.421h-21.856
			c-27.404,0-49.698,22.295-49.698,49.698C1446.328,1412.337,1445.244,1413.421,1443.907,1413.421z"/>
	</g>
	<g>
		<path style="fill:#240448;" d="M2148.278,804.461c-1.337,0-2.421-1.084-2.421-2.421V558.656c0-15.315-12.468-27.773-27.793-27.773
			h-232.499c-1.337,0-2.421-1.084-2.421-2.421s1.084-2.421,2.421-2.421h232.499c17.995,0,32.635,14.631,32.635,32.615V802.04
			C2150.699,803.377,2149.615,804.461,2148.278,804.461z"/>
	</g>
	<g>
		<path style="fill:#240448;" d="M1114.451,945.701c-1.337,0-2.421-1.084-2.421-2.421V682.123c0-1.337,1.084-2.421,2.421-2.421
			s2.421,1.084,2.421,2.421V943.28C1116.872,944.617,1115.788,945.701,1114.451,945.701z"/>
	</g>
	<g>
		<path style="fill:#240448;" d="M1114.451,630.152c-1.337,0-2.421-1.084-2.421-2.421v-69.075c0-17.984,14.635-32.615,32.625-32.615
			h662.471c1.337,0,2.421,1.084,2.421,2.421s-1.084,2.421-2.421,2.421h-662.471c-15.32,0-27.783,12.459-27.783,27.773v69.075
			C1116.872,629.068,1115.788,630.152,1114.451,630.152z"/>
	</g>
	<g>
		<path style="fill:#240448;" d="M1517.882,1254.721h-185.536c-1.337,0-2.421-1.084-2.421-2.421s1.084-2.421,2.421-2.421h185.536
			c1.337,0,2.421,1.084,2.421,2.421S1519.219,1254.721,1517.882,1254.721z"/>
	</g>
	<g>
		<path style="fill:#240448;" d="M1298.346,1254.721h-142.989c-23.891,0-43.327-19.437-43.327-43.327
			c0-1.337,1.084-2.421,2.421-2.421s2.421,1.084,2.421,2.421c0,21.221,17.265,38.485,38.485,38.485h142.989
			c1.337,0,2.421,1.084,2.421,2.421S1299.683,1254.721,1298.346,1254.721z"/>
	</g>
	<g>
		<path style="fill:#240448;" d="M1114.451,945.701c-1.337,0-2.421-1.084-2.421-2.421v-43.936c0-1.337,1.084-2.421,2.421-2.421
			s2.421,1.084,2.421,2.421v43.936C1116.872,944.617,1115.788,945.701,1114.451,945.701z"/>
	</g>
</g>
<circle style="fill:#DCE5F7;" cx="1653.671" cy="893.895" r="272.168"/>
<polygon style="fill:#FFFFFF;" points="1836.465,896.969 1690.285,981.367 1544.104,1065.764 1544.104,896.969 1544.104,728.174 
	1690.285,812.572 "/>
<g>
	<g>
		<circle style="fill:#240448;" cx="1480.082" cy="665.29" r="41.016"/>
		<g>
			<g>
				<path style="fill:#240448;" d="M1428.937,1093.962c-6.992,0-13.435-0.823-19.223-2.462c-8.28-2.342-15.304-6.356-20.878-11.931
					c-5.574-5.574-9.588-12.598-11.931-20.877c-2.162-7.644-2.905-16.428-2.207-26.109c1.311-18.185,7.584-39.493,18.647-63.334
					c10.864-23.411,25.854-48.237,44.555-73.791c19.277-26.34,41.703-52.347,66.653-77.298
					c24.951-24.951,50.958-47.377,77.299-66.653c1.079-0.79,2.593-0.555,3.383,0.524c0.79,1.079,0.555,2.594-0.524,3.383
					c-26.141,19.131-51.958,41.394-76.734,66.17c-24.776,24.777-47.039,50.593-66.17,76.734
					c-18.513,25.297-33.34,49.847-44.07,72.97c-10.815,23.307-16.941,44.047-18.21,61.644c-0.657,9.119,0.028,17.343,2.037,24.443
					c2.115,7.474,5.713,13.789,10.695,18.771c4.982,4.982,11.298,8.581,18.772,10.696c7.1,2.009,15.321,2.696,24.443,2.036
					c17.595-1.268,38.335-7.395,61.644-18.21c23.121-10.729,47.671-25.556,72.969-44.069c26.14-19.129,51.957-41.393,76.734-66.17
					c24.775-24.774,47.037-50.592,66.169-76.734c18.516-25.3,33.343-49.85,44.069-72.968c10.816-23.307,16.942-44.047,18.21-61.644
					c0.658-9.119-0.027-17.343-2.036-24.443c-2.114-7.473-5.712-13.789-10.695-18.772c-4.981-4.982-11.298-8.581-18.772-10.696
					c-7.101-2.009-15.323-2.694-24.443-2.037c-17.596,1.268-38.336,7.395-61.644,18.21c-16.587,7.697-34.045,17.582-51.889,29.381
					c-1.116,0.737-2.618,0.431-3.355-0.684c-0.737-1.115-0.431-2.618,0.684-3.355c18.045-11.932,35.716-21.935,52.522-29.734
					c23.842-11.063,45.15-17.337,63.334-18.647c9.682-0.698,18.465,0.044,26.109,2.207c8.28,2.343,15.305,6.357,20.878,11.931
					c5.575,5.575,9.589,12.6,11.931,20.878c2.162,7.643,2.904,16.427,2.207,26.109c-1.311,18.184-7.584,39.493-18.647,63.334
					c-10.861,23.407-25.852,48.234-44.554,73.789c-19.278,26.342-41.704,52.35-66.654,77.299
					c-24.953,24.952-50.959,47.378-77.299,66.654c-25.554,18.7-50.38,33.69-73.79,44.554
					c-23.843,11.063-45.151,17.337-63.334,18.647C1433.474,1093.877,1431.177,1093.962,1428.937,1093.962z"/>
			</g>
		</g>
		<g>
			<g>
				<path style="fill:#240448;" d="M1713.694,1017.025c-2.403,0-4.825-0.022-7.265-0.068c-1.337-0.025-2.399-1.13-2.375-2.467
					c0.025-1.337,1.129-2.398,2.467-2.375c9.081,0.174,17.938,0.02,26.33-0.451c25.655-1.441,46.836-5.807,62.953-12.978
					c8.354-3.717,15.285-8.195,20.603-13.312c5.597-5.388,9.473-11.537,11.52-18.277c2.048-6.742,2.247-14.009,0.591-21.599
					c-1.572-7.207-4.842-14.784-9.718-22.52c-9.408-14.924-24.583-30.332-45.104-45.797c-20.355-15.34-45-30.011-73.248-43.604
					c-29.188-14.046-60.988-26.331-94.516-36.514c-33.524-10.182-66.785-17.657-98.858-22.218
					c-31.036-4.413-59.676-5.926-85.125-4.499c-25.654,1.441-46.835,5.807-62.954,12.978c-8.353,3.716-15.284,8.194-20.602,13.312
					c-5.596,5.386-9.472,11.535-11.52,18.278c-2.048,6.742-2.247,14.009-0.591,21.596c1.573,7.21,4.842,14.787,9.718,22.521
					c9.408,14.925,24.583,30.332,45.103,45.796c20.355,15.341,45,30.012,73.249,43.604c29.188,14.045,60.988,26.33,94.516,36.514
					c33.529,10.184,66.79,17.659,98.858,22.219c7.911,1.125,15.789,2.075,23.413,2.824c1.331,0.131,2.304,1.316,2.173,2.646
					c-0.131,1.332-1.314,2.309-2.646,2.173c-7.694-0.756-15.642-1.715-23.622-2.85c-32.313-4.594-65.817-12.123-99.583-22.379
					c-33.765-10.255-65.797-22.631-95.208-36.783c-28.535-13.731-53.454-28.569-74.063-44.101
					c-20.99-15.818-36.562-31.658-46.284-47.081c-5.177-8.211-8.66-16.309-10.353-24.071c-1.834-8.405-1.603-16.492,0.688-24.036
					s6.596-14.394,12.795-20.359c5.724-5.508,13.123-10.302,21.991-14.247c16.656-7.411,38.408-11.914,64.65-13.388
					c25.769-1.447,54.728,0.082,86.079,4.539c32.318,4.596,65.823,12.125,99.583,22.379c33.764,10.255,65.797,22.631,95.208,36.784
					c28.534,13.732,53.453,28.568,74.063,44.1c20.991,15.819,36.563,31.66,46.285,47.082c5.177,8.213,8.66,16.31,10.353,24.07
					c1.835,8.407,1.603,16.494-0.688,24.037c-2.29,7.541-6.595,14.391-12.795,20.358c-5.724,5.508-13.122,10.302-21.991,14.247
					c-16.656,7.41-38.407,11.914-64.65,13.388C1726.866,1016.85,1720.356,1017.025,1713.694,1017.025z"/>
			</g>
		</g>
		<g>
			<g>
				<path style="fill:#240448;" d="M1623.391,1152.862c-4.866,0-9.834-0.782-14.856-2.344c-7.586-2.358-15.353-6.528-23.085-12.396
					c-14.524-11.021-28.958-27.904-42.902-50.183c-13.691-21.875-26.318-47.982-37.53-77.599
					c-11.558-30.529-21.117-63.512-28.413-98.032c-1.974-9.341-3.775-18.772-5.352-28.033c-0.224-1.317,0.662-2.568,1.98-2.793
					c1.314-0.224,2.569,0.662,2.793,1.981c1.566,9.197,3.355,18.565,5.316,27.844c7.245,34.279,16.733,67.022,28.204,97.319
					c11.099,29.319,23.584,55.14,37.106,76.745c13.631,21.779,27.669,38.229,41.724,48.894c7.282,5.525,14.548,9.438,21.596,11.63
					c7.417,2.306,14.674,2.735,21.567,1.279c6.894-1.457,13.355-4.786,19.205-9.896c3.571-3.119,6.969-6.964,10.101-11.428
					c0.769-1.093,2.278-1.357,3.372-0.591c1.095,0.768,1.36,2.277,0.592,3.372c-3.355,4.782-7.016,8.919-10.88,12.293
					c-6.48,5.661-13.677,9.357-21.389,10.987C1629.542,1152.546,1626.487,1152.862,1623.391,1152.862z M1681.932,1083.538
					c-0.188,0-0.379-0.022-0.57-0.068c-1.3-0.313-2.099-1.622-1.785-2.922c1.81-7.497,3.353-15.652,4.586-24.237
					c3.624-25.232,4.594-53.896,2.881-85.196c-1.77-32.349-6.341-66.131-13.586-100.409c-7.245-34.28-16.734-67.023-28.204-97.32
					c-11.099-29.318-23.583-55.138-37.106-76.744c-13.631-21.78-27.669-38.23-41.724-48.894
					c-7.283-5.526-14.549-9.439-21.596-11.629c-7.417-2.306-14.673-2.735-21.568-1.279c-6.894,1.457-13.355,4.787-19.205,9.896
					c-1.007,0.88-2.537,0.775-3.416-0.23c-0.88-1.007-0.776-2.537,0.23-3.416c6.48-5.66,13.677-9.357,21.39-10.987
					c7.714-1.63,15.791-1.161,24.006,1.393c7.585,2.358,15.353,6.529,23.085,12.396c14.524,11.019,28.958,27.904,42.902,50.183
					c13.691,21.875,26.318,47.983,37.53,77.599c11.558,30.528,21.117,63.511,28.412,98.032c7.297,34.52,11.9,68.552,13.684,101.147
					c1.73,31.616,0.747,60.601-2.922,86.147c-1.255,8.736-2.827,17.042-4.672,24.687
					C1684.016,1082.793,1683.024,1083.538,1681.932,1083.538z M1466.696,832.599c-1.242,0-2.299-0.951-2.409-2.211
					c-0.56-6.435-1.018-12.903-1.364-19.225c-1.367-24.986-1.037-48.465,0.983-69.787c0.126-1.331,1.311-2.308,2.639-2.182
					c1.331,0.126,2.308,1.308,2.182,2.639c-1.997,21.082-2.323,44.319-0.969,69.065c0.343,6.271,0.798,12.688,1.353,19.071
					c0.116,1.332-0.871,2.505-2.203,2.621C1466.837,832.596,1466.766,832.599,1466.696,832.599z"/>
			</g>
		</g>
		<circle style="fill:#FC346C;" cx="1574.511" cy="893.895" r="71.218"/>
		
			<ellipse transform="matrix(0.6154 -0.7882 0.7882 0.6154 -298.2881 1565.0968)" style="fill:#240448;" cx="1454.674" cy="1088.216" rx="41.016" ry="41.016"/>
		
			<ellipse transform="matrix(0.6154 -0.7882 0.7882 0.6154 -18.4211 1760.0845)" style="fill:#240448;" cx="1794.419" cy="898.919" rx="41.016" ry="41.016"/>
	</g>
</g>
<g>
	<g>
		<path style="fill:#44D4F4;" d="M812.798,1128.557c-1.784,0-3.593-0.19-5.407-0.587c-13.603-2.973-22.221-16.41-19.248-30.014
			l3.491-15.976c2.973-13.604,16.413-22.222,30.014-19.248c13.603,2.973,22.221,16.41,19.248,30.014l-3.491,15.976
			C834.828,1120.511,824.389,1128.557,812.798,1128.557z"/>
	</g>
	<g>
		<path style="fill:#44D4F4;" d="M774.392,1130.486c-2.33,0-4.656-0.905-6.408-2.709c-3.438-3.538-3.356-9.192,0.183-12.63
			l26.503-25.748c3.538-3.438,9.193-3.357,12.631,0.183c3.438,3.538,3.355,9.192-0.183,12.63l-26.503,25.748
			C778.88,1129.646,776.634,1130.486,774.392,1130.486z"/>
	</g>
	<g>
		<path style="fill:#44D4F4;" d="M777.175,1152.805c-2.224,0-4.451-0.825-6.182-2.486c-3.56-3.415-3.678-9.069-0.263-12.63
			l29.778-31.043c3.416-3.56,9.069-3.678,12.629-0.263c3.56,3.415,3.678,9.069,0.263,12.63l-29.778,31.043
			C781.868,1151.884,779.523,1152.805,777.175,1152.805z"/>
	</g>
	<g>
		<path style="fill:#44D4F4;" d="M795.551,1159.456c-2.005,0-4.022-0.672-5.688-2.049c-3.802-3.144-4.335-8.774-1.191-12.576
			l22.425-27.118c3.145-3.801,8.774-4.333,12.576-1.191c3.802,3.144,4.335,8.774,1.192,12.576l-22.425,27.118
			C800.673,1158.352,798.121,1159.456,795.551,1159.456z"/>
	</g>
	<path style="fill:#240448;" d="M743.052,1336.84l11.645,10.547l15.807-8.357l8.032,7.278l-5.525,17.673l48.737,44.158l7.285-7.893
		c3.778-4.089,5.783-9.389,5.783-14.788c0-2.402-0.397-4.823-1.211-7.166l-3.222-9.243l-5.452-15.621l9.686-22.82l0.589-1.403
		l-17.666-14.378l-2.23-1.813l-28.702-23.343l-9.336,10.11l-19.049,20.624l-7.88,8.535L743.052,1336.84z"/>
	<g>
		<path style="fill:#240448;" d="M843.016,1246.876c-0.197,0-0.396-0.023-0.591-0.07l-146.578-35.638
			c-1.341-0.326-2.165-1.679-1.838-3.021l26.095-107.33c0.326-1.341,1.674-2.164,3.02-1.839l39.914,9.704
			c1.341,0.326,2.165,1.679,1.838,3.021c-0.326,1.341-1.678,2.16-3.02,1.839l-37.485-9.114l-24.913,102.472l141.719,34.457
			l24.914-102.473l-16.764-4.075c-1.342-0.326-2.165-1.679-1.839-3.021c0.326-1.341,1.676-2.162,3.02-1.839l19.194,4.666
			c0.644,0.157,1.2,0.563,1.545,1.13c0.345,0.566,0.451,1.246,0.294,1.891l-26.095,107.331c-0.157,0.645-0.563,1.2-1.129,1.545
			C843.921,1246.752,843.471,1246.876,843.016,1246.876z"/>
	</g>
	<g>
		<polygon style="fill:#FCCC6C;" points="1083.052,1071.686 971.999,1026.339 916.548,940.685 958.876,913.282 1005.722,985.644 
			1102.114,1025.003 		"/>
	</g>
	<g>
		
			<rect x="1078.181" y="1040.541" transform="matrix(0.2627 -0.9649 0.9649 0.2627 -202.3651 1840.8303)" style="fill:#44D4F4;" width="50.424" height="24.59"/>
	</g>
	<g>
		<path style="fill:#44D4F4;" d="M1142.419,1088.757c-0.72,0-1.451-0.088-2.181-0.271l-35.285-8.855
			c-4.785-1.201-7.69-6.054-6.489-10.838c1.201-4.785,6.055-7.687,10.838-6.49l35.285,8.855c4.785,1.201,7.69,6.054,6.489,10.838
			C1150.058,1086.051,1146.417,1088.757,1142.419,1088.757z"/>
	</g>
	<g>
		<path style="fill:#44D4F4;" d="M1160.265,1075.066c-0.687,0-1.384-0.08-2.082-0.246l-41.841-9.988
			c-4.798-1.146-7.759-5.964-6.614-10.763c1.146-4.798,5.963-7.757,10.762-6.614l41.841,9.988c4.798,1.146,7.759,5.964,6.614,10.763
			C1167.966,1072.307,1164.304,1075.066,1160.265,1075.066z"/>
	</g>
	<g>
		<path style="fill:#44D4F4;" d="M1156.709,1055.846c-0.475,0-0.956-0.038-1.44-0.116l-34.735-5.63
			c-4.87-0.789-8.177-5.377-7.388-10.246c0.79-4.87,5.373-8.177,10.247-7.389l34.735,5.63c4.87,0.789,8.177,5.377,7.388,10.246
			C1164.805,1052.727,1161.013,1055.846,1156.709,1055.846z"/>
	</g>
	<g>
		<path style="fill:#FCCC6C;" d="M1080.668,1077.094c-1.331,0-2.682-0.301-3.955-0.934c-4.397-2.188-6.189-7.526-4.001-11.925
			l19.954-40.107c2.188-4.397,7.525-6.188,11.925-4.001c4.397,2.188,6.189,7.526,4.001,11.925l-19.954,40.107
			C1087.083,1075.284,1083.936,1077.094,1080.668,1077.094z"/>
	</g>
	<path style="fill:#FFFFFF;" d="M1055.267,1048.734c-0.729,3.643,1.632,7.187,5.275,7.917c3.643,0.729,7.187-1.632,7.917-5.275
		c0.729-3.643-1.632-7.187-5.275-7.917C1059.541,1042.729,1055.996,1045.091,1055.267,1048.734z"/>
	<path style="fill:#240448;" d="M999.929,1409.892h15.714l6.107-16.806h10.838l7.768,16.806h65.768l0.099-10.745v-0.218
		c0-7.96-4.354-15.297-11.354-19.115l-8.595-4.684l-14.53-7.92l-8.145-23.416l-0.503-1.436l-22.747,1.211l-2.865,0.152
		l-36.946,1.972l-0.126,13.352l-0.278,29.06l-0.106,11.043L999.929,1409.892z"/>
	<g>
		
			<rect x="985.261" y="1256.839" transform="matrix(0.9744 -0.2248 0.2248 0.9744 -265.9831 262.5303)" style="fill:#240448;" width="69.599" height="85.287"/>
	</g>
	<g>
		<path style="fill:#240448;" d="M1010.445,1292.736c-15.842,0.001-30.165-10.889-33.878-26.985l-21.092-91.435l-72.131-67.337
			c-13.133-12.26-20.776-29.596-20.968-47.562l-0.416-38.903c-0.206-19.218,15.207-34.964,34.425-35.169
			c0.126-0.002,0.253-0.002,0.38-0.002c19.046,0,34.586,15.335,34.79,34.427l0.399,37.376l78.787,73.55
			c5.066,4.729,8.604,10.862,10.162,17.616l23.481,101.795c4.32,18.728-7.359,37.411-26.087,41.731
			C1015.666,1292.445,1013.035,1292.736,1010.445,1292.736z"/>
	</g>
	<g>
		<path style="fill:#FCCC6C;" d="M996.325,1351.252c-4.79,0-8.742-3.81-8.885-8.63c-0.146-4.91,3.716-9.009,8.625-9.154
			l71.736-2.136c4.922-0.174,9.008,3.715,9.155,8.625c0.146,4.91-3.716,9.009-8.625,9.154l-71.736,2.136
			C996.504,1351.25,996.414,1351.252,996.325,1351.252z"/>
	</g>
	<g>
		
			<rect x="799.557" y="1244.261" transform="matrix(0.5846 -0.8113 0.8113 0.5846 -690.4839 1209.4607)" style="fill:#240448;" width="72.732" height="69.598"/>
	</g>
	<g>
		<path style="fill:#240448;" d="M857.154,1284.358c-7.047,0-14.161-2.135-20.316-6.569c-15.592-11.236-19.124-32.985-7.887-48.577
			l45.731-63.461l29.201-119.782c4.552-18.672,23.377-30.125,42.051-25.566c18.672,4.552,30.119,23.378,25.567,42.051
			l-30.809,126.378c-1.062,4.355-2.956,8.466-5.577,12.103l-49.7,68.968C878.615,1279.34,867.962,1284.358,857.154,1284.358z"/>
	</g>
	<g>
		<path style="fill:#240448;" d="M938.244,1087.486h-41.487c-19.219,0-34.799-15.58-34.799-34.799s15.58-34.799,34.799-34.799
			h41.487c19.219,0,34.799,15.58,34.799,34.799S957.463,1087.486,938.244,1087.486z"/>
	</g>
	<g>
		<path style="fill:#FCCC6C;" d="M841.849,1335.427c-1.696,0-3.411-0.484-4.928-1.496l-55.248-36.862
			c-4.086-2.727-5.188-8.249-2.462-12.335c2.726-4.085,8.248-5.187,12.335-2.462l55.248,36.862
			c4.086,2.727,5.188,8.249,2.462,12.335C847.541,1334.037,844.722,1335.427,841.849,1335.427z"/>
	</g>
	<path style="fill:#FC346C;" d="M861.884,1023.387l112.612,27.777l15.497-79.261c4.597-25.02-5.663-50.704-26.742-64.945
		c-10.405-7.029-22.948-11.134-36.449-11.134h0c-36.004,0-65.192,29.187-65.192,65.192L861.884,1023.387z"/>
	<path style="fill:#44D4F4;" d="M960.955,907.917l-1.525-30.537l-1.357-19.621l-0.641-9.314
		c-0.593-8.552-7.995-14.997-16.537-14.407c-0.671,0.041-1.331,0.131-1.984,0.261c-6.242,1.243-11.038,6.189-12.192,12.322
		c-0.24,1.272-0.326,2.595-0.231,3.954l2.265,32.913l0.889,12.833C930.233,904.864,961.547,916.469,960.955,907.917z"/>
	<path style="fill:#FC346C;" d="M905.662,1188.459c-0.575,12.678,7.457,23.573,18.748,27.332l10.906-15.135
		c2.489-3.455,4.288-7.358,5.296-11.495l5.725-23.483c-4.332-2.389-9.39-3.648-14.755-3.36
		C917.603,1163.069,906.296,1174.474,905.662,1188.459z"/>
	<polygon style="fill:#FFFFFF;" points="925.126,884.546 966.682,907.82 960.963,914.812 923.886,909.412 	"/>
	<path style="fill:#44D4F4;" d="M966.517,873.807L966.517,873.807c9.631-4.351,13.911-15.686,9.56-25.317l-6.533-14.46
		c-5.734-12.692-20.671-18.332-33.363-12.598l0,0c-12.692,5.734-18.332,20.671-12.598,33.363l1.525,3.376
		C932.225,873.924,950.764,880.924,966.517,873.807z"/>
	<path style="fill:#44D4F4;" d="M967.91,837.821l15.385,11.959c1.744,1.356,1.182,4.122-0.953,4.689l-10.623,2.822L967.91,837.821z"
		/>
	<path style="fill:#240448;" d="M944.481,835.69c0,0,0.516,4.744-0.071,7.032c-0.763,2.971-2.906,5.056-5.784,6.066
		c-3.621,1.27-8.061,1.241-11.877,1.308c-8.657,0.151-19.79-5.44-15.554-15.927c1.438-3.56,5.089-6.193,8.928-6.153
		c-2.539,0.375-5.287-0.371-7.081-2.206c-1.794-1.835-2.461-4.783-1.365-7.104c1.252-2.653,4.424-3.958,7.357-3.874
		s5.703,1.287,8.388,2.47c0.747-3.715,3.06-7.164,6.404-8.947c3.344-1.783,7.69-1.719,10.793,0.456
		c0.992,0.695,1.88,1.645,2.152,2.825c0.272,1.18-0.251,2.594-1.379,3.033c-0.566-3.599,1.726-7.439,5.162-8.649
		c3.436-1.21,7.629,0.347,9.442,3.506c0.483,0.841,0.791,1.825,0.835,2.798c-0.253,0.776-0.915,2.099-0.915,2.761
		c3.97,0.662,11.91-3.97,7.278-8.601c4.632-0.662,9.925,2.647,11.91,6.617c1.656,3.312,1.188,7.049-0.729,10.139
		c-4.215,6.794-12.708,8.08-19.926,9.323c-4.141,0.714-12.329,2.663-12.329,2.663l-1.538,0.43L944.481,835.69z"/>
	<g>
		<path style="fill:#FFFFFF;" d="M974.498,1053.666c-0.198,0-0.399-0.024-0.601-0.073l-112.121-27.657
			c-1.341-0.33-2.159-1.685-1.829-3.025c0.331-1.341,1.683-2.154,3.026-1.829l112.122,27.657c1.341,0.33,2.159,1.685,1.829,3.025
			C976.642,1052.903,975.621,1053.666,974.498,1053.666z"/>
	</g>
	<path style="fill:#FFFFFF;" d="M933.093,1045.168c0,7.126,5.777,12.902,12.902,12.902c7.125,0,12.902-5.776,12.902-12.902
		c0-7.125-5.776-12.902-12.902-12.902C938.87,1032.266,933.093,1038.043,933.093,1045.168z"/>
	<g>
		<path style="fill:#FFFFFF;" d="M965.344,1187.471c-0.607,0-1.215-0.22-1.696-0.664l-79.952-73.858
			c-1.014-0.937-1.077-2.519-0.14-3.532c0.937-1.015,2.519-1.077,3.533-0.14l79.952,73.858c1.014,0.937,1.077,2.519,0.14,3.532
			C966.688,1187.2,966.017,1187.471,965.344,1187.471z"/>
	</g>
	<path style="fill:#FC346C;" d="M984.204,1151.36c0,15.165,12.293,27.458,27.458,27.458c5.631,0,10.864-1.694,15.218-4.605
		l-5.975-25.904c-1.562-6.749-5.101-12.882-10.163-17.613l-6.259-5.842C992.798,1128.004,984.204,1138.677,984.204,1151.36z"/>
	
		<rect x="952.139" y="963.464" transform="matrix(-0.7071 0.7071 -0.7071 -0.7071 2339.6643 985.1296)" style="fill:#FCCC6C;" width="27.329" height="27.329"/>
	
		<rect x="931.118" y="963.464" transform="matrix(-0.7071 0.7071 -0.7071 -0.7071 2303.7786 1000.0016)" style="fill:#FFFFFF;" width="27.329" height="27.329"/>
	
		<rect x="718.726" y="1134.707" transform="matrix(-0.9717 -0.2362 0.2362 -0.9717 1284.7023 2533.803)" style="fill:#FC346C;" width="150.848" height="110.457"/>
	<path style="fill:#240448;" d="M978.334,855.675c-1.362-0.967-3.146-1.628-5.396-1.852c-3.1-0.308-6.277,0.554-8.885,2.259
		c-2.906,1.9-5.328,4.4-9.081,3.356c-1.413-0.393-2.732-1.069-4.038-1.722c-3.164-1.582-6.171-3.592-8.92-5.818
		c-0.008-0.006-0.016-0.013-0.023-0.019c0,0-15.012,7.223-15.017,7.226c-1.453,0.988,5.19,8.341,5.849,9.111
		c6.503,7.611,16.492,12.64,26.694,12.184c5.798-0.259,11.885-2.136,16.493-5.736C982.219,869.812,984.242,859.87,978.334,855.675z"
		/>
	<path style="fill:#44D4F4;" d="M921.571,854.202c1.283,6.444,7.547,10.627,13.991,9.344c6.444-1.283,10.627-7.547,9.344-13.991
		c-1.283-6.444-7.547-10.627-13.991-9.344C924.471,841.494,920.288,847.758,921.571,854.202z"/>
	<g>
		<path style="fill:#FCCC6C;" d="M838.514,1010.796c-6.82,0-13.616-2.749-18.588-8.172c-9.411-10.262-8.721-26.211,1.541-35.622
			l61.696-56.578c10.263-9.411,26.212-8.722,35.622,1.542c9.411,10.262,8.721,26.211-1.541,35.622l-61.696,56.578
			C850.707,1008.604,844.601,1010.796,838.514,1010.796z"/>
	</g>
	<g>
		<path style="fill:#44D4F4;" d="M825.43,1154.892c-0.163,0-0.325-0.005-0.49-0.014c-4.926-0.266-8.704-4.475-8.438-9.4
			l1.672-30.962c0.267-4.926,4.478-8.7,9.401-8.438c4.926,0.266,8.704,4.475,8.438,9.4l-1.672,30.962
			C834.084,1151.202,830.141,1154.892,825.43,1154.892z"/>
	</g>
	<g>
		
			<rect x="775.295" y="1011.261" transform="matrix(0.2135 -0.9769 0.9769 0.2135 -361.8368 1623.4954)" style="fill:#FCCC6C;" width="104.181" height="50.424"/>
	</g>
	<g>
		<path style="fill:#FCCC6C;" d="M838.516,1102.076c-0.649,0-1.308-0.071-1.967-0.22l-44.357-10.015
			c-4.792-1.082-7.799-5.843-6.717-10.635c1.082-4.791,5.846-7.797,10.634-6.717l44.357,10.015
			c4.792,1.082,7.799,5.843,6.717,10.635C846.25,1099.271,842.581,1102.076,838.516,1102.076z"/>
	</g>
	<path style="fill:#FFFFFF;" d="M801.755,1062.718c-0.398,3.694,2.274,7.01,5.968,7.408c3.694,0.398,7.01-2.274,7.408-5.968
		c0.398-3.694-2.274-7.01-5.968-7.408C805.469,1056.352,802.153,1059.024,801.755,1062.718z"/>
	<g>
		<path style="fill:#FFFFFF;" d="M793.938,1214.494c-0.803,0-1.592-0.386-2.075-1.102l-15.284-22.655
			c-0.371-0.55-0.508-1.225-0.382-1.875c0.126-0.651,0.506-1.226,1.056-1.596l22.656-15.284c0.55-0.371,1.226-0.505,1.875-0.382
			c0.651,0.127,1.225,0.507,1.596,1.056l15.283,22.656c0.772,1.145,0.47,2.699-0.675,3.471l-22.656,15.283
			C794.905,1214.355,794.419,1214.494,793.938,1214.494z M782.122,1190.014l12.487,18.51l18.511-12.487l-12.487-18.511
			L782.122,1190.014z"/>
	</g>
	<g>
		<path style="fill:#44D4F4;" d="M992.663,1390.604c-0.531,0-1.055-0.169-1.491-0.493c-0.642-0.478-1.016-1.231-1.009-2.03
			l0.278-29.06c0.008-0.88,0.479-1.69,1.237-2.135c0.759-0.442,1.696-0.456,2.467-0.033l33.651,18.492
			c0.878,0.483,1.384,1.444,1.283,2.441c-0.1,0.998-0.787,1.839-1.744,2.137l-33.929,10.567
			C993.163,1390.567,992.912,1390.604,992.663,1390.604z M995.401,1363.249l-0.205,21.448l25.042-7.8L995.401,1363.249z"/>
	</g>
	<g>
		<path style="fill:#44D4F4;" d="M780.608,1334.568c-0.425,0-0.852-0.108-1.237-0.327l-28.385-16.164
			c-0.662-0.378-1.117-1.037-1.233-1.79c-0.117-0.754,0.117-1.519,0.634-2.079l19.049-20.624c0.623-0.673,1.562-0.952,2.452-0.727
			c0.889,0.226,1.583,0.919,1.808,1.808l9.336,36.788c0.247,0.972-0.111,1.997-0.909,2.604
			C781.678,1334.396,781.144,1334.568,780.608,1334.568z M756.195,1315.289l20.545,11.699l-6.757-26.627L756.195,1315.289z"/>
	</g>
</g>
<g>
	<g>
		
			<rect x="1198.771" y="969.416" transform="matrix(0.7329 -0.6803 0.6803 0.7329 -340.524 1101.1085)" style="fill:#240448;" width="66.735" height="29.676"/>
	</g>
	<g>
		
			<rect x="1054.885" y="1030.394" transform="matrix(0.7329 -0.6803 0.6803 0.7329 -411.0439 1067.1749)" style="fill:#FC346C;" width="197.542" height="53.416"/>
	</g>
	<g>
		<path style="fill:#FCCC6C;" d="M1335.981,999.316c-34.86-3.492-66.275-20.35-88.457-47.469
			c-22.181-27.12-32.473-61.254-28.982-96.114c7.161-71.493,70.775-123.955,142.17-117.572c0.469,0.042,0.943,0.087,1.414,0.134
			c71.963,7.208,124.646,71.619,117.439,143.583c-7.162,71.493-70.777,123.957-142.169,117.572
			C1336.926,999.407,1336.451,999.363,1335.981,999.316z M1236.26,857.508c-3.018,30.128,5.877,59.628,25.046,83.066
			c19.171,23.437,46.321,38.008,76.45,41.025c0.409,0.041,0.812,0.079,1.222,0.116c61.696,5.512,116.68-39.828,122.869-101.612
			c6.229-62.195-39.302-117.862-101.496-124.092c-0.41-0.041-0.812-0.079-1.222-0.116
			C1297.432,750.38,1242.448,795.723,1236.26,857.508z"/>
	</g>
</g>
<g>
	<path style="fill:#44D4F4;" d="M1053.614,1059.133c-0.785,0-1.583-0.104-2.377-0.323l-23.863-6.571
		c-4.756-1.31-7.55-6.227-6.24-10.982c1.31-4.756,6.223-7.551,10.983-6.24l23.863,6.571c4.756,1.31,7.55,6.227,6.24,10.982
		C1061.129,1056.532,1057.534,1059.133,1053.614,1059.133z"/>
</g>
<g>
	<path style="fill:#FC346C;" d="M1915.321,1321.994c-0.396,0-0.8-0.095-1.174-0.295c-12.609-6.721-30.606-18.514-44.735-36.528
		c-13.353-17.022-19.793-35.19-19.143-53.997c0.775-22.462,11.526-41.437,30.271-53.427c22.427-14.349,53.49-16.648,79.135-5.866
		c11.358,4.776,22.494,10.966,34.283,17.519c30.638,17.03,62.319,34.639,96.512,24.639c26.81-7.841,46.189-28.189,54.57-57.299
		c3.941-13.691,5.21-28.427,4.061-42.981c-16.623,9.313-36.029,14.013-56.746,13.749c-24.106-0.335-48.193-7.692-67.821-20.718
		c-23.867-15.836-42.314-45.162-31.395-70.57c7.015-16.319,20.362-26.499,38.602-29.439c32.873-5.291,74.908,13.656,93.558,34.68
		c14.893,16.788,24.555,39.836,27.889,63.923c1.105-0.736,2.197-1.499,3.267-2.283c37.856-27.729,49.538-84.414,25.001-121.306
		c-17.066-25.659-46.035-40.093-74.05-54.051c-8.676-4.321-17.646-8.791-25.938-13.465c-32.705-18.433-68.554-42.329-86.461-79.817
		c-6.291-13.172-9.58-27.721-9.513-42.073c0.007-1.377,1.125-2.488,2.5-2.488c0.004,0,0.008,0,0.012,0
		c1.381,0.006,2.495,1.131,2.488,2.512c-0.064,13.604,3.057,27.398,9.024,39.895c17.308,36.232,52.379,59.568,84.404,77.617
		c8.181,4.61,16.697,8.854,25.713,13.346c28.602,14.25,58.179,28.985,75.984,55.756c25.946,39.012,13.698,98.875-26.21,128.108
		c-1.815,1.329-3.67,2.595-5.569,3.798c1.555,15.95,0.326,32.178-3.996,47.193c-8.871,30.813-29.459,52.375-57.97,60.714
		c-36.202,10.585-68.808-7.539-100.345-25.067c-11.666-6.484-22.686-12.609-33.792-17.279c-24.177-10.166-53.421-8.02-74.503,5.469
		c-17.318,11.078-27.251,28.617-27.969,49.387c-1.333,38.589,30.757,69.696,61.233,85.941c1.219,0.649,1.68,2.164,1.03,3.382
		C1917.079,1321.513,1916.215,1321.993,1915.321,1321.994z M2043.222,1010.896c-3.659,0-7.233,0.263-10.686,0.819
		c-16.699,2.692-28.409,11.601-34.804,26.478c-9.838,22.892,7.426,49.739,29.564,64.43c36.631,24.306,86.06,26.223,121.256,5.653
		c-2.891-23.907-12.273-46.903-26.995-63.499C2106.105,1027.358,2072.177,1010.896,2043.222,1010.896z"/>
</g>
<g>
	<path style="fill:#FC346C;" d="M1987.993,804.399c-0.019,0-0.038,0-0.057,0c-6.627-0.031-11.975-5.428-11.944-12.056
		c0.093-19.876,5.982-37.906,17.034-52.144c4.064-5.234,11.603-6.186,16.838-2.121c5.235,4.064,6.184,11.603,2.121,16.838
		c-7.778,10.021-11.926,23.001-11.993,37.539C1999.961,799.063,1994.595,804.399,1987.993,804.399z"/>
</g>
<g>
	<path style="fill:#240448;" d="M2006.193,755.788l-15.339-8.417c-9.056-4.969-12.369-16.339-7.399-25.395v0
		c4.969-9.056,16.339-12.369,25.395-7.399l15.339,8.418c9.056,4.97,12.369,16.339,7.399,25.395v0
		C2026.619,757.445,2015.249,760.757,2006.193,755.788z"/>
	<path style="fill:#44D4F4;" d="M2044.216,751.088l-69.821-38.314c-9.056-4.969-12.369-16.339-7.399-25.395l0,0
		c4.969-9.056,16.339-12.369,25.395-7.399l69.821,38.314c9.056,4.969,12.368,16.339,7.399,25.395l0,0
		C2064.642,752.744,2053.271,756.057,2044.216,751.088z"/>
	<path style="fill:#240448;" d="M2071.375,736.398l-99.177-54.424c-9.056-4.97-12.369-16.339-7.399-25.395l0,0
		c4.969-9.056,16.339-12.369,25.395-7.399l99.177,54.424c9.056,4.969,12.369,16.339,7.399,25.395v0
		C2091.801,738.054,2080.431,741.367,2071.375,736.398z"/>
	<path style="fill:#FCCC6C;" d="M2300.633,530.556c41.948-76.443,13.385-172.585-63.889-213.6
		c-75.773-40.218-170.801-11.24-211.328,64.369c-14.523,27.094-20.256,56.591-18.163,85.19
		c4.272,58.376,26.703,78.582-25.341,173.421l1.515-2.76l123.184,67.598l-0.136,0.247c52.202-95.128,81.661-84.468,133.002-112.946
		C2264.427,578.236,2285.894,557.415,2300.633,530.556z"/>
	<g>
		<path style="fill:#FFFFFF;" d="M2080.718,652.433c-0.646,0-1.302-0.13-1.932-0.405c-2.451-1.068-3.572-3.921-2.504-6.372
			c9.134-20.958,26.083-54.378,46.502-91.691c1.284-2.346,4.225-3.206,6.571-1.923c2.346,1.284,3.206,4.226,1.923,6.571
			c-20.286,37.071-37.096,70.206-46.119,90.91C2084.365,651.345,2082.586,652.433,2080.718,652.433z"/>
	</g>
	<g>
		<path style="fill:#FFFFFF;" d="M2136.789,543.479c-0.799,0-1.609-0.198-2.358-0.616c-2.334-1.305-3.168-4.254-1.863-6.588
			c23.416-41.887,43.981-75.527,55.013-89.988c1.621-2.124,4.66-2.535,6.786-0.913c2.126,1.622,2.534,4.66,0.913,6.786
			c-10.771,14.118-31.055,47.33-54.261,88.84C2140.133,542.586,2138.486,543.479,2136.789,543.479z"/>
	</g>
	<g>
		<path style="fill:#FFFFFF;" d="M2174.768,499.942c-10.938,0-22.233-2.004-33.046-5.995c-21.26-7.848-37.667-22.602-45.015-40.478
			c-6.549-15.932-5.705-33.954,2.256-48.208c4.763-8.526,11.754-14.999,19.688-18.226c9.351-3.803,19.924-2.902,27.597,2.348
			c0.857,0.587,1.688,1.232,2.471,1.919c2.011,1.763,2.212,4.821,0.449,6.832c-1.763,2.01-4.821,2.212-6.832,0.449
			c-0.494-0.433-1.018-0.84-1.556-1.208c-4.948-3.386-12.202-3.923-18.481-1.37c-5.903,2.401-11.188,7.365-14.883,13.978
			c-6.437,11.525-7.108,26.778-1.754,39.806c14.242,34.65,61.89,47.987,93.371,36.344c2.509-0.928,5.293,0.354,6.221,2.861
			c0.927,2.508-0.354,5.293-2.861,6.22C2193.858,498.37,2184.454,499.942,2174.768,499.942z"/>
	</g>
	<g>
		<path style="fill:#FFFFFF;" d="M2051.876,636.661c-0.607,0-1.225-0.115-1.822-0.358c-2.477-1.007-3.668-3.832-2.66-6.308
			c15.509-38.123,33.479-75.307,53.413-110.521c4.329-7.648,9.002-15.342,13.521-22.783c15.269-25.14,31.057-51.136,36.543-80.126
			c0.497-2.627,3.026-4.355,5.657-3.857c2.627,0.497,4.354,3.03,3.857,5.657c-5.813,30.715-22.063,57.474-37.78,83.352
			c-4.481,7.378-9.115,15.008-13.371,22.526c-19.73,34.854-37.518,71.661-52.87,109.399
			C2055.598,635.521,2053.787,636.661,2051.876,636.661z"/>
	</g>
	<path style="fill:#44D4F4;" d="M2097.896,717.228l-123.773-67.921c-9.056-4.97-12.369-16.339-7.399-25.395v0
		c4.969-9.056,16.339-12.369,25.395-7.399l123.773,67.921c9.056,4.969,12.369,16.339,7.399,25.395l0,0
		C2118.322,718.885,2106.952,722.197,2097.896,717.228z"/>
</g>
<g>
	<g>
		<g>
			<path style="fill:#240448;" d="M2443.082,1319.595c-0.883,0-1.738-0.468-2.193-1.297c-0.664-1.21-0.222-2.729,0.988-3.395
				l38.52-21.151c1.209-0.666,2.729-0.223,3.395,0.988c0.664,1.21,0.222,2.729-0.989,3.395l-38.519,21.151
				C2443.901,1319.496,2443.489,1319.595,2443.082,1319.595z"/>
		</g>
		<g>
			<path style="fill:#240448;" d="M2501.793,1412.152c-1.188,0-2.242-0.851-2.458-2.062l-25.001-140.21
				c-0.242-1.359,0.663-2.657,2.022-2.899c1.358-0.246,2.656,0.663,2.9,2.022l25.001,140.21c0.242,1.359-0.663,2.657-2.022,2.899
				C2502.086,1412.14,2501.938,1412.152,2501.793,1412.152z"/>
		</g>
		<g>
			<path style="fill:#240448;" d="M2424.128,1411.882c-0.162,0-0.327-0.016-0.492-0.048c-1.354-0.271-2.232-1.587-1.963-2.941
				l27.867-139.669c0.27-1.354,1.587-2.229,2.941-1.963c1.354,0.271,2.233,1.587,1.963,2.941l-27.867,139.669
				C2426.34,1411.06,2425.295,1411.882,2424.128,1411.882z"/>
		</g>
		<g>
			<path style="fill:#240448;" d="M2607.157,1412.152c-1.188,0-2.242-0.851-2.458-2.062l-31.45-176.372
				c-0.242-1.358,0.663-2.657,2.023-2.899c1.358-0.244,2.657,0.663,2.899,2.022l31.45,176.372c0.242,1.358-0.663,2.657-2.023,2.899
				C2607.45,1412.14,2607.302,1412.152,2607.157,1412.152z"/>
		</g>
		<g>
			<path style="fill:#240448;" d="M2529.953,1411.882c-0.162,0-0.327-0.016-0.492-0.048c-1.353-0.271-2.232-1.587-1.963-2.941
				l27.867-139.669c0.27-1.354,1.586-2.229,2.941-1.963c1.354,0.271,2.233,1.587,1.963,2.941l-27.867,139.669
				C2532.165,1411.06,2531.12,1411.882,2529.953,1411.882z"/>
		</g>
		<path style="fill:#44D4F4;" d="M2568.555,1274.256c-12.737,8.059-27.696,12.551-43.318,12.551h-128.161
			c-6.305,0-11.413-5.108-11.413-11.414c0-3.149,1.277-6.001,3.341-8.065c2.064-2.064,4.923-3.341,8.072-3.341h160.132
			C2563.123,1263.987,2567.986,1268.493,2568.555,1274.256z"/>
		<g>
			<path style="fill:#44D4F4;" d="M2596.563,1244.343c-6.755,12.426-16.475,22.622-28.008,29.913
				c-12.737,8.059-27.696,12.551-43.318,12.551c-22.82,0-42.339-8.926-56.531-22.82c-26.816-26.261-22.362-66.916,2.675-102.03
				c34.737-48.73,76.756-77.435,128.007-64.46C2657.613,1112.232,2624.378,1193.185,2596.563,1244.343z"/>
		</g>
		<g>
			<path style="fill:#240448;" d="M2548.366,1319.595c-0.883,0-1.739-0.468-2.194-1.297c-0.664-1.21-0.221-2.729,0.988-3.395
				l38.52-21.151c1.21-0.666,2.729-0.223,3.395,0.988c0.664,1.21,0.222,2.729-0.988,3.395l-38.52,21.151
				C2549.185,1319.496,2548.773,1319.595,2548.366,1319.595z"/>
		</g>
	</g>
	<g>
		<g>
			<path style="fill:#FC346C;" d="M2395.584,1167.702c-7.813,0-15.387-4.138-19.428-11.461c-5.914-10.718-2.018-24.201,8.699-30.115
				l82.026-45.259c10.716-5.915,24.2-2.019,30.115,8.699c5.914,10.718,2.018,24.201-8.699,30.115l-82.026,45.259
				C2402.877,1166.813,2399.204,1167.702,2395.584,1167.702z"/>
		</g>
		<path style="fill:#240444;" d="M2413.504,1104.513l32.013,47.1l39.031-25.381c13.78-7.425,18.931-24.614,11.507-38.394l0,0
			c-7.425-13.78-24.614-18.932-38.394-11.507L2413.504,1104.513z"/>
		<g>
			<path style="fill:#240444;" d="M2442.11,1155.485c-2.692,0-5.352-1.217-7.1-3.53l-28.521-37.718
				c-2.963-3.918-2.188-9.496,1.729-12.458c3.919-2.964,9.497-2.189,12.458,1.729l28.521,37.718
				c2.963,3.918,2.188,9.496-1.729,12.458C2445.862,1154.898,2443.979,1155.485,2442.11,1155.485z"/>
		</g>
		<polygon style="fill:#240444;" points="2515.993,1265.779 2465.906,1265.779 2470.078,1228.246 2515.993,1228.246 		"/>
		<path style="fill:#FCCC6C;" d="M2557.797,980.14c0.841,9.601-6.261,18.066-15.862,18.906c-9.601,0.841-18.066-6.261-18.906-15.862
			c-0.841-9.601,6.261-18.066,15.863-18.906C2548.492,963.437,2556.957,970.539,2557.797,980.14z"/>
		<path style="fill:#240444;" d="M2529.736,997.146L2529.736,997.146c-3.59,2.514-8.538,1.642-11.052-1.948l-0.1-0.143
			c-2.514-3.59-1.642-8.538,1.948-11.052l0,0c3.59-2.514,8.538-1.642,11.052,1.948l0.101,0.144
			C2534.198,989.684,2533.326,994.632,2529.736,997.146z"/>
		<polygon style="fill:#FC346C;" points="2378.707,1309.164 2395.226,1356.055 2428.511,1341.439 2415.38,1288.046 		"/>
		<path style="fill:#240444;" d="M2450.444,1377.275l-86.834,32.891l-3.718-9.812l-0.893-2.355c-1.7-4.499-0.787-9.568,2.382-13.18
			l8.026-9.164l9.528-10.891l-0.311-17.752c-0.053-3.11,1.952-5.875,4.923-6.795l14.014-4.327l4.731,17.196l24.064-23.131
			c2.137-2.058,5.684-1.257,6.735,1.515l13.637,35.993L2450.444,1377.275z"/>
		<polygon style="fill:#FC346C;" points="2287.216,1275.456 2257.883,1315.596 2288.759,1334.784 2325.371,1293.762 		"/>
		<g>
			<path style="fill:#FC346C;" d="M2298.921,1063.326c-1.768,5.706-0.188,12.297,4.807,17.318l66.624,81.876
				c8.736,9.835,23.791,10.727,33.627,1.991c9.836-8.736,10.727-23.791,1.991-33.627l-73.386-72.922
				c-7.597-7.637-20.215-8.75-28.183-2.486C2301.672,1057.62,2299.842,1060.354,2298.921,1063.326z"/>
		</g>
		<g>
			<g>
				<path style="fill:#FC346C;" d="M2323.983,1070.688c-1.033,0-2.084-0.192-3.102-0.6l-38.35-15.345
					c-4.286-1.715-6.37-6.579-4.655-10.864s6.58-6.37,10.864-4.655l38.35,15.345c4.286,1.715,6.37,6.579,4.655,10.864
					C2330.438,1068.701,2327.3,1070.688,2323.983,1070.688z"/>
			</g>
			<g>
				<path style="fill:#FC346C;" d="M2315.993,1074.969c-0.386,0-0.775-0.026-1.168-0.081l-45.384-6.345
					c-4.571-0.64-7.759-4.863-7.12-9.435c0.639-4.572,4.867-7.759,9.435-7.12l45.384,6.345c4.571,0.64,7.759,4.863,7.12,9.435
					C2323.675,1071.946,2320.096,1074.969,2315.993,1074.969z"/>
			</g>
			<g>
				<path style="fill:#FC346C;" d="M2308.578,1087.192c-0.435,0-0.876-0.034-1.32-0.104l-29.791-4.73
					c-4.559-0.724-7.667-5.006-6.944-9.564c0.724-4.559,5.001-7.666,9.565-6.943l29.791,4.73c4.559,0.724,7.667,5.006,6.943,9.564
					C2316.169,1084.259,2312.616,1087.192,2308.578,1087.192z"/>
			</g>
		</g>
		<g>
			<path style="fill:#FC346C;" d="M2326.387,1067.592c-3.083,0-6.048-1.713-7.503-4.666l-6.69-13.581
				c-2.04-4.141-0.337-9.15,3.804-11.19c4.14-2.038,9.15-0.337,11.19,3.804l6.69,13.581c2.04,4.141,0.337,9.15-3.803,11.19
				C2328.887,1067.314,2327.627,1067.592,2326.387,1067.592z"/>
		</g>
		<path style="fill:#240444;" d="M2470.02,1167.058l75.265,29.236l-0.135-90.781c-0.913-10.983-4.492-20.954-9.925-29.046
			c-8.569-12.756-21.755-20.835-36.397-20.835c-11.969,0-22.959,5.392-31.25,14.325c-1.7,1.833-3.295,3.818-4.75,5.935
			c-0.283,0.409-0.561,0.824-0.834,1.243c-7.547,11.59-10.011,25.772-7.322,39.339L2470.02,1167.058z"/>
		<path style="fill:#240444;" d="M2483.275,1109.72c-2.222,11.82-13.605,19.6-25.425,17.379s-19.601-13.605-17.379-25.425
			c2.222-11.82,31.21-34.922,31.21-34.922C2482.377,1072.253,2485.497,1097.9,2483.275,1109.72z"/>
		<g>
			<path style="fill:#FFFFFF;" d="M2471.381,1168.82c-1.048,0-2.023-0.663-2.372-1.712l-12.618-37.933
				c-8.658-1.784-15.769-8.22-18.354-16.75c-2.718-8.969,0.116-18.354,8.426-27.893c3.052-3.504,6.578-6.761,9.988-9.909
				c2.62-2.42,5.33-4.922,7.875-7.574c0.957-0.996,2.538-1.026,3.535-0.072c0.996,0.956,1.029,2.539,0.073,3.535
				c-2.649,2.761-5.415,5.314-8.09,7.784c-3.465,3.199-6.737,6.221-9.612,9.521c-7.203,8.27-9.627,15.845-7.41,23.159
				c2.17,7.162,8.36,12.465,15.77,13.509c0.037,0.005,0.123,0.018,0.16,0.024c0.893,0.167,1.624,0.806,1.911,1.668l13.091,39.353
				c0.436,1.311-0.272,2.726-1.583,3.161C2471.908,1168.778,2471.642,1168.82,2471.381,1168.82z"/>
		</g>
		<g>
			<path style="fill:#240444;" d="M2466.863,1265.741c-4.764,0-9.607-0.933-14.271-2.903l-108.344-45.764
				c-18.683-7.891-27.43-29.434-19.539-48.115c7.891-18.682,29.434-27.433,48.115-19.539l108.344,45.764
				c18.683,7.891,27.43,29.434,19.539,48.115C2494.786,1257.316,2481.181,1265.741,2466.863,1265.741z"/>
		</g>
		<g>
			<path style="fill:#FCCC6C;" d="M2557.559,1223.859c-0.086,1.885-0.311,3.758-0.655,5.611c-3.05,16.369-15.84,30.78-32.043,35.054
				c-3.182,0.84-6.299,1.231-9.356,1.257c-18.156,0.132-34.26-12.651-49.815-21.054c-16.124-8.714-32.242-17.421-48.366-26.135
				c-9.303-5.028-18.546-10.983-28.232-15.251c-17.587-7.755-25.56-28.292-17.805-45.879c7.748-17.587,28.292-25.559,45.878-17.812
				c27.485,9.806,54.97,19.605,82.461,29.404c12.26,4.373,26.056,7.503,37.072,14.854c1.674,1.111,3.288,2.322,4.817,3.652
				C2551.809,1196.513,2558.194,1210.136,2557.559,1223.859z"/>
		</g>
		<g>
			<path style="fill:#FCCC6C;" d="M2425.108,1193.554l-109.885,115.748l-42.947-28.563c0.14-0.158,0.286-0.315,0.432-0.473
				l99.376-131.793c12.447-14.638,34.408-16.418,49.052-3.971C2435.781,1156.955,2437.554,1178.91,2425.108,1193.554z"/>
		</g>
		<g>
			<path style="fill:#240448;" d="M2502.135,1221.278c-1.042,0-2.015-0.656-2.367-1.698c-0.443-1.308,0.257-2.727,1.564-3.17
				c1.465-0.497,2.543-2.775,2.882-6.094c0.419-4.099-0.306-9.172-2.04-14.285c-3.788-11.165-10.17-16.638-13.067-15.659
				c-1.306,0.447-2.727-0.257-3.17-1.564c-0.443-1.308,0.257-2.727,1.565-3.17c6.668-2.267,15.008,5.818,19.407,18.788
				c1.96,5.778,2.769,11.602,2.279,16.398c-0.56,5.479-2.779,9.144-6.25,10.32C2502.672,1221.235,2502.4,1221.278,2502.135,1221.278
				z"/>
		</g>
		<g>
			<path style="fill:#FCCC6C;" d="M2433.076,1309.066l-54.436,14.131l-57.243-132.764c-6.775-17.984,2.316-38.058,20.306-44.827
				c17.983-6.775,38.058,2.316,44.826,20.306L2433.076,1309.066z"/>
		</g>
		<g>
			<path style="fill:#FC346C;" d="M2465.475,1202.673c-0.704,0-1.418-0.089-2.131-0.276l-14.642-3.849
				c-4.464-1.173-7.131-5.743-5.958-10.208c1.174-4.464,5.744-7.13,10.208-5.958l14.642,3.849c4.464,1.173,7.131,5.743,5.958,10.208
				C2472.565,1200.189,2469.18,1202.673,2465.475,1202.673z"/>
		</g>
		<g>
			<path style="fill:#FC346C;" d="M2583.711,1184.123c-6.188,0-12.344-2.577-16.726-7.611l-58.191-66.833
				c-8.038-9.232-7.07-23.232,2.162-31.271c9.231-8.036,23.232-7.071,31.271,2.162l58.191,66.833
				c8.038,9.232,7.07,23.233-2.162,31.271C2594.058,1182.329,2588.872,1184.123,2583.711,1184.123z"/>
		</g>
		<path style="fill:#FFFFFF;" d="M2578.144,1105.649l-45.929,33.743l-22.699-22.699c-11.068-11.068-11.068-29.013,0-40.081l0,0
			c11.068-11.068,29.013-11.068,40.082,0L2578.144,1105.649z"/>
		<g>
			<path style="fill:#FFFFFF;" d="M2533.823,1147.647c-2.351,0-4.677-1.05-6.225-3.054c-2.656-3.435-2.025-8.373,1.411-11.028
				l40.864-31.593c3.438-2.658,8.374-2.022,11.029,1.411c2.656,3.435,2.024,8.373-1.411,11.028l-40.864,31.593
				C2537.194,1147.112,2535.502,1147.647,2533.823,1147.647z"/>
		</g>
		<g>
			<path style="fill:#FC346C;" d="M2459.822,1225.514c4.945,3.352,11.709,3.759,17.967,0.442l113.541-41.265
				c11.953-5.495,17.187-19.639,11.693-31.591c-5.494-11.954-19.638-17.188-31.591-11.693l-106.943,50.341
				c-9.517,5.045-14.255,16.793-10.582,26.239C2455.164,1221.222,2457.247,1223.768,2459.822,1225.514z"/>
		</g>
		<path style="fill:#FFFFFF;" d="M2424.819,1217.161L2424.819,1217.161c-13.445,0-24.344-10.899-24.344-24.344v-17.389h48.688
			v17.389C2449.163,1206.261,2438.264,1217.161,2424.819,1217.161z"/>
		<g>
			<g>
				<path style="fill:#FC346C;" d="M2426.424,1209.592c-4.442,0-8.14-3.498-8.342-7.981c-0.208-4.611,3.362-8.518,7.973-8.725
					l46.034-2.072c4.58-0.234,8.517,3.36,8.725,7.973c0.208,4.611-3.362,8.518-7.973,8.725l-46.034,2.072
					C2426.679,1209.589,2426.551,1209.592,2426.424,1209.592z"/>
			</g>
			<g>
				<path style="fill:#FC346C;" d="M2440.211,1220.068c-3.903,0-7.392-2.747-8.186-6.721c-0.906-4.526,2.03-8.929,6.557-9.834
					l26.723-5.343c4.525-0.903,8.93,2.03,9.834,6.557c0.905,4.526-2.03,8.929-6.557,9.834l-26.723,5.343
					C2441.306,1220.015,2440.754,1220.068,2440.211,1220.068z"/>
			</g>
			<g>
				<path style="fill:#FC346C;" d="M2445.802,1231.681c-3.685,0-7.058-2.455-8.064-6.182c-1.202-4.456,1.435-9.044,5.892-10.247
					l22.231-6c4.46-1.201,9.043,1.437,10.247,5.892c1.202,4.456-1.436,9.044-5.892,10.247l-22.231,6
					C2447.255,1231.587,2446.522,1231.681,2445.802,1231.681z"/>
			</g>
		</g>
		<g>
			<polygon style="fill:#FC346C;" points="2521.73,1021.659 2511.409,1063.601 2476.126,1079.04 2484.751,1054.907 
				2489.918,1033.622 2516.642,1023.571 			"/>
			<g>
				<path style="fill:#FFFFFF;" d="M2476.124,1081.537c-0.593,0-1.18-0.211-1.644-0.617c-0.74-0.646-1.032-1.664-0.749-2.604
					l6.525-21.669c0.398-1.323,1.795-2.068,3.114-1.673c1.322,0.397,2.071,1.792,1.673,3.114l-4.935,16.386l33.291-15.164
					c1.259-0.571,2.739-0.018,3.311,1.239c0.573,1.256,0.018,2.739-1.239,3.312l-38.312,17.451
					C2476.828,1081.463,2476.476,1081.537,2476.124,1081.537z"/>
			</g>
		</g>
		<g>
			<path style="fill:#240448;" d="M2541.513,1155.86c-1.067,0-2.056-0.689-2.388-1.763c-0.407-1.319,0.331-2.719,1.65-3.127
				l10.989-3.397c1.319-0.407,2.719,0.331,3.127,1.65c0.407,1.319-0.331,2.719-1.65,3.127l-10.989,3.397
				C2542.006,1155.824,2541.758,1155.86,2541.513,1155.86z"/>
		</g>
		<path style="fill:#240444;" d="M2301.969,1332.972l-21.239,30.541l-5.995,8.615l-76.228-53.018l5.988-8.615l0.377-0.536
			c3.401-4.89,9.223-7.51,15.138-6.808l10.242,1.217l14.364,1.707l13.776-9.805c2.944-2.098,6.914-1.992,9.746,0.251l10.824,8.588
			l-11.506,13.623l31.428,6.504C2302.386,1325.965,2304.013,1330.034,2301.969,1332.972z"/>
		<path style="fill:#240444;" d="M2517.469,1020.539l-6.626,2.492c-1.39,16.501-8.949,29.115-25.265,28.843l5.167-21.285
			L2517.469,1020.539z"/>
		<path style="fill:#FC346C;" d="M2479.89,1045.769L2479.89,1045.769c-10.295-2.387-16.707-12.667-14.32-22.962l3.583-15.457
			c3.145-13.567,16.693-22.016,30.26-18.871h0c13.567,3.145,22.016,16.693,18.871,30.26l-0.836,3.608
			C2513.544,1039.186,2496.729,1049.672,2479.89,1045.769z"/>
		<path style="fill:#FCCC6C;" d="M2464.18,994.757c2.904-6.329,7.035-11.912,13.147-15.278c6.847-3.77,15.169-4.236,22.745-2.891
			c0.698,0.124,1.394,0.265,2.086,0.422c0.401,0.091,0.801,0.188,1.2,0.291c18.316,4.723,31.366,24.471,26.005,43.189
			c-1.078,3.764-7.153,17.111-10.421,19.4c-2.572,1.801-8.286-14.321-11.419-14.113c-3.133,0.209-6.41-0.761-8.651-2.961
			c-3.077-3.021-3.734-7.665-4.199-11.952c-6.024-0.263-12.082-0.912-17.822-2.761c-3.567-1.15-7.007-2.777-10.055-4.969
			c-1.335-0.96-4.371-3.855-4.371-3.855S2463.831,995.518,2464.18,994.757z"/>
		<path style="fill:#FCCC6C;" d="M2495.841,1055.631L2495.841,1055.631c-1.025,0-1.887-0.77-2.002-1.79l-6.672-47.175h13.343
			l-2.656,46.989C2497.834,1054.753,2496.939,1055.631,2495.841,1055.631z"/>
		
			<ellipse transform="matrix(0.7071 -0.7071 0.7071 0.7071 11.5599 2073.4526)" style="fill:#FC346C;" cx="2508.658" cy="1022.772" rx="11.897" ry="11.897"/>
		<path style="fill:#FFFFFF;" d="M2515.965,1034.669c0,3.304-2.678,5.983-5.983,5.983c-3.304,0-5.983-2.679-5.983-5.983
			c0-3.304,2.678-5.983,5.983-5.983C2513.286,1028.686,2515.965,1031.365,2515.965,1034.669z"/>
		<path style="fill:#FC346C;" d="M2469.217,1008.695c-2.748,6.584-5.62,12.742-9.251,16.288c-0.982,0.959-1.206,2.515-0.339,3.578
			c0.542,0.665,1.4,1.078,2.389,0.957l10.911-1.333L2469.217,1008.695z"/>
		<g>
			<path style="fill:#FCCC6C;" d="M2378.634,1333.307c-3.954,0-7.563-2.656-8.603-6.662c-1.234-4.754,1.619-9.609,6.374-10.843
				l51.676-13.414c4.754-1.24,9.609,1.619,10.843,6.374c1.235,4.754-1.619,9.609-6.374,10.843l-51.676,13.414
				C2380.125,1333.214,2379.373,1333.307,2378.634,1333.307z"/>
		</g>
		<g>
			<g>
				<path style="fill:#FFFFFF;" d="M2318.448,1219.215c-0.54,0-1.085-0.175-1.543-0.534c-1.086-0.854-1.274-2.425-0.421-3.511
					l53.634-68.241c8.661-10.188,22.125-14.986,35.2-12.607c1.358,0.248,2.259,1.55,2.012,2.908
					c-0.249,1.357-1.551,2.256-2.908,2.012c-11.32-2.067-22.987,2.094-30.434,10.852l-53.572,68.167
					C2319.923,1218.887,2319.189,1219.215,2318.448,1219.215z"/>
			</g>
		</g>
		<g>
			<path style="fill:#FFFFFF;" d="M2343.813,1285.324c-0.606,0-1.216-0.22-1.696-0.664c-1.014-0.938-1.076-2.52-0.139-3.533
				l68.227-73.787c0.938-1.015,2.521-1.075,3.533-0.139c1.014,0.938,1.076,2.52,0.139,3.533l-68.227,73.787
				C2345.156,1285.055,2344.485,1285.324,2343.813,1285.324z"/>
		</g>
		<g>
			<path style="fill:#FFFFFF;" d="M2359.598,1402.078c-0.992,0-1.931-0.595-2.322-1.572c-0.513-1.282,0.111-2.737,1.392-3.25
				l44.88-17.946c1.282-0.516,2.737,0.11,3.25,1.393s-0.111,2.737-1.393,3.25l-44.88,17.946
				C2360.222,1402.021,2359.907,1402.078,2359.598,1402.078z"/>
		</g>
		<g>
			<path style="fill:#240448;" d="M2315.572,1090.65c-2.973,0-5.947-0.518-8.231-1.154c-1.33-0.371-2.107-1.75-1.736-3.08
				s1.745-2.103,3.078-1.737l0,0c3.109,0.862,12.327,2.35,13.844-1.952c0.459-1.302,1.886-1.987,3.19-1.525
				c1.302,0.459,1.985,1.888,1.525,3.189C2325.548,1089.191,2320.563,1090.65,2315.572,1090.65z"/>
		</g>
		<g>
			<path style="fill:#FFFFFF;" d="M2248.805,1343.812c-0.493,0-0.99-0.145-1.426-0.447l-44.312-30.816
				c-1.133-0.789-1.413-2.347-0.625-3.48c0.789-1.134,2.345-1.414,3.48-0.625l44.312,30.816c1.133,0.789,1.413,2.347,0.625,3.48
				C2250.373,1343.438,2249.596,1343.812,2248.805,1343.812z"/>
		</g>
		<g>
			<path style="fill:#240448;" d="M2500.604,1221.528c-2.865,0-5.951-1.636-8.906-4.771c-3.308-3.509-6.208-8.623-8.168-14.401
				c-1.96-5.778-2.77-11.602-2.279-16.398c0.559-5.479,2.779-9.144,6.25-10.32c1.308-0.447,2.728,0.257,3.17,1.564
				c0.443,1.308-0.257,2.727-1.565,3.17c-1.465,0.497-2.543,2.775-2.882,6.094c-0.419,4.099,0.306,9.172,2.04,14.285
				c1.734,5.112,4.246,9.579,7.073,12.577c2.288,2.428,4.532,3.58,5.994,3.082c1.313-0.446,2.728,0.257,3.171,1.563
				c0.444,1.308-0.256,2.728-1.563,3.171C2502.183,1221.401,2501.402,1221.528,2500.604,1221.528z"/>
		</g>
		<g>
			<path style="fill:#FFFFFF;" d="M2489.539,1211.92L2489.539,1211.92c-4.978,1.132-9.93-1.986-11.062-6.963l-0.557-2.45
				c-1.132-4.978,1.986-9.93,6.963-11.062l0,0c4.978-1.132,9.93,1.986,11.062,6.964l0.557,2.45
				C2497.634,1205.835,2494.517,1210.788,2489.539,1211.92z"/>
			<path style="fill:#240448;" d="M2487.468,1214.469c-2.154,0-4.268-0.605-6.136-1.781c-2.612-1.645-4.427-4.208-5.112-7.219
				l-0.556-2.449c-0.685-3.011-0.156-6.107,1.488-8.72c1.645-2.612,4.209-4.429,7.22-5.112c3.007-0.684,6.105-0.157,8.719,1.488
				c2.612,1.645,4.428,4.208,5.112,7.218l0.558,2.45c0.684,3.011,0.156,6.107-1.488,8.721c-1.646,2.612-4.209,4.428-7.219,5.112
				C2489.193,1214.372,2488.327,1214.469,2487.468,1214.469z M2486.946,1193.526c-0.515,0-1.034,0.058-1.549,0.175
				c-1.806,0.411-3.342,1.499-4.328,3.065c-0.985,1.565-1.302,3.422-0.892,5.226l0.558,2.45c0.41,1.805,1.499,3.342,3.064,4.328
				c1.566,0.985,3.424,1.299,5.227,0.893c3.726-0.848,6.067-4.567,5.221-8.292l-0.558-2.45c-0.411-1.805-1.499-3.342-3.066-4.327
				C2489.505,1193.89,2488.237,1193.526,2486.946,1193.526z"/>
		</g>
		<g>
			<path style="fill:#FCCC6C;" d="M2312.879,1316.644c-1.693,0-3.403-0.481-4.918-1.489l-38.752-25.773
				c-4.09-2.72-5.2-8.24-2.479-12.331s8.24-5.202,12.331-2.479l38.752,25.773c4.09,2.72,5.2,8.24,2.479,12.331
				C2318.579,1315.25,2315.756,1316.644,2312.879,1316.644z"/>
		</g>
		<g>
			<path style="fill:#240448;" d="M2525.223,1137.22c-0.738,0-1.468-0.324-1.961-0.947c-0.858-1.082-0.676-2.654,0.406-3.512
				l27.033-21.421c1.083-0.859,2.655-0.677,3.512,0.406c0.858,1.082,0.676,2.654-0.406,3.512l-27.033,21.421
				C2526.313,1137.043,2525.767,1137.22,2525.223,1137.22z"/>
		</g>
		<g>
			<path style="fill:#44D4F4;" d="M2435.192,1366.394c-7.811,0-14.165-6.354-14.165-14.165s6.354-14.165,14.165-14.165
				c7.81,0,14.165,6.354,14.165,14.165S2443.003,1366.394,2435.192,1366.394z M2435.192,1343.063c-5.054,0-9.165,4.111-9.165,9.165
				s4.112,9.165,9.165,9.165s9.165-4.111,9.165-9.165S2440.246,1343.063,2435.192,1343.063z"/>
		</g>
		<g>
			<path style="fill:#44D4F4;" d="M2284.961,1360.613c-7.81,0-14.165-6.354-14.165-14.165s6.354-14.164,14.165-14.164
				c7.811,0,14.165,6.354,14.165,14.164S2292.771,1360.613,2284.961,1360.613z M2284.961,1337.284c-5.054,0-9.165,4.111-9.165,9.164
				c0,5.054,4.111,9.165,9.165,9.165s9.165-4.111,9.165-9.165C2294.126,1341.396,2290.014,1337.284,2284.961,1337.284z"/>
		</g>
	</g>
</g>
<g>
	<path style="fill:#240448;" d="M3042.346,1413.39h-826.423c-1.381,0-2.5-1.119-2.5-2.5s1.119-2.5,2.5-2.5h826.423
		c1.381,0,2.5,1.119,2.5,2.5S3043.727,1413.39,3042.346,1413.39z"/>
</g>
<g>
	<path style="fill:#44D4F4;" d="M530.927,1283.335c22.429,12.573,35.374,32.108,28.913,43.633
		c-6.461,11.526-29.88,10.677-52.309-1.896c-15.517-8.698-23.403-26.246-26.789-36.234c-1.393-4.109,1.064-8.492,5.296-9.448
		C496.326,1277.067,515.41,1274.637,530.927,1283.335z"/>
	<path style="fill:#44D4F4;" d="M621.575,1290.333c-12.664,12.836-28.277,17.966-34.873,11.458
		c-6.596-6.508-1.677-22.189,10.988-35.025c8.761-8.88,22.092-10.957,29.475-11.394c3.037-0.18,5.546,2.295,5.407,5.335
		C632.234,1268.095,630.336,1281.453,621.575,1290.333z"/>
	<g>
		<path style="fill:#240448;" d="M568.914,1410.795c-1.381,0-2.5-1.119-2.5-2.5c0-50.273-7.83-103.096-23.271-156.999
			c-0.38-1.327,0.388-2.712,1.715-3.092c1.327-0.377,2.711,0.387,3.092,1.715c15.57,54.352,23.464,107.637,23.464,158.376
			C571.414,1409.676,570.294,1410.795,568.914,1410.795z"/>
	</g>
	<g>
		<path style="fill:#240448;" d="M539.714,1233.85c-1.059,0-2.042-0.679-2.381-1.741c-18.848-59.064-40.266-97.764-40.479-98.147
			c-0.673-1.206-0.24-2.729,0.965-3.401c1.204-0.672,2.729-0.24,3.401,0.966c0.217,0.388,21.865,39.486,40.877,99.063
			c0.419,1.315-0.307,2.722-1.622,3.142C540.222,1233.811,539.966,1233.85,539.714,1233.85z"/>
	</g>
	
		<ellipse transform="matrix(0.0829 -0.9966 0.9966 0.0829 -690.5573 1572.5381)" style="fill:#FC346C;" cx="509.145" cy="1161.477" rx="43.508" ry="43.508"/>
	<g>
		<path style="fill:#44D4F4;" d="M578.175,1410.795c-1.357,0-2.472-1.087-2.498-2.45c-0.027-1.35-2.286-136.052,31.749-232.923
			c0.458-1.302,1.887-1.989,3.188-1.529c1.303,0.457,1.988,1.885,1.53,3.188c-33.732,96.007-31.494,229.825-31.468,231.165
			c0.027,1.381-1.069,2.521-2.45,2.549C578.209,1410.795,578.192,1410.795,578.175,1410.795z"/>
	</g>
	<polygon style="fill:#FCCC6C;" points="646.976,1185.484 616.211,1154.719 574.185,1165.98 562.925,1208.005 593.69,1238.77 
		635.715,1227.51 	"/>
	<g>
		<path style="fill:#FFFFFF;" d="M509.144,1167.325c-23.409,0-47.106-5.538-47.106-16.124c0-1.381,1.119-2.5,2.5-2.5
			c1.381,0,2.5,1.119,2.5,2.5c0,4.536,16.403,11.124,42.106,11.124s42.107-6.588,42.107-11.124c0-1.381,1.119-2.5,2.5-2.5
			c1.381,0,2.5,1.119,2.5,2.5C556.251,1161.787,532.554,1167.325,509.144,1167.325z"/>
	</g>
	<g>
		<path style="fill:#FFFFFF;" d="M509.144,1167.325c-23.409,0-47.106-5.538-47.106-16.124c0-1.381,1.119-2.5,2.5-2.5
			c1.381,0,2.5,1.119,2.5,2.5c0,4.536,16.403,11.124,42.106,11.124s42.107-6.588,42.107-11.124c0-1.381,1.119-2.5,2.5-2.5
			c1.381,0,2.5,1.119,2.5,2.5C556.251,1161.787,532.554,1167.325,509.144,1167.325z"/>
	</g>
	<g>
		<path style="fill:#FFFFFF;" d="M545.129,1178.939c-9.968,0-25.174-5.807-38.982-13.771c-10.53-6.074-19.73-13.062-25.907-19.677
			c-6.926-7.417-9.292-13.582-6.842-17.828c0.69-1.196,2.218-1.609,3.415-0.916c1.196,0.689,1.606,2.219,0.917,3.414
			c-0.874,1.516,0.216,5.546,6.165,11.918c5.848,6.263,14.638,12.924,24.75,18.757c22.265,12.843,39.765,15.331,42.032,11.403
			c0.689-1.196,2.218-1.608,3.415-0.916c1.196,0.689,1.606,2.219,0.917,3.414C553.321,1177.664,549.799,1178.939,545.129,1178.939z"
			/>
	</g>
	<g>
		<path style="fill:#FFFFFF;" d="M545.129,1178.939c-9.968,0-25.174-5.807-38.982-13.771c-10.53-6.074-19.73-13.062-25.907-19.677
			c-6.926-7.417-9.292-13.582-6.842-17.828c0.69-1.196,2.218-1.609,3.415-0.916c1.196,0.689,1.606,2.219,0.917,3.414
			c-0.874,1.516,0.216,5.546,6.165,11.918c5.848,6.263,14.638,12.924,24.75,18.757c22.265,12.843,39.765,15.331,42.032,11.403
			c0.689-1.196,2.218-1.608,3.415-0.916c1.196,0.689,1.606,2.219,0.917,3.414C553.321,1177.664,549.799,1178.939,545.129,1178.939z"
			/>
	</g>
	<g>
		<path style="fill:#FFFFFF;" d="M562.923,1210.506c-1.104,0-2.114-0.737-2.414-1.854c-0.357-1.334,0.435-2.705,1.768-3.063
			l84.051-22.521c1.337-0.354,2.705,0.436,3.062,1.768c0.357,1.334-0.434,2.705-1.768,3.063l-84.051,22.521
			C563.355,1210.478,563.137,1210.506,562.923,1210.506z"/>
	</g>
	<g>
		<path style="fill:#FFFFFF;" d="M604.951,1199.244c-0.64,0-1.28-0.244-1.768-0.732l-30.765-30.765
			c-0.977-0.977-0.977-2.559,0-3.535c0.976-0.977,2.56-0.977,3.535,0l30.765,30.765c0.977,0.977,0.977,2.559,0,3.535
			C606.23,1199,605.59,1199.244,604.951,1199.244z"/>
	</g>
</g>
<g>
	<path style="fill:#240448;" d="M1293.346,1413.39H370.035c-1.381,0-2.5-1.119-2.5-2.5s1.119-2.5,2.5-2.5h923.311
		c1.381,0,2.5,1.119,2.5,2.5S1294.726,1413.39,1293.346,1413.39z"/>
</g>
<g>
	<path style="fill:#44D4F4;" d="M2794.312,1364.278c15.437,15.647,34.47,21.9,42.51,13.967c8.04-7.933,2.044-27.047-13.393-42.694
		c-10.68-10.825-26.929-13.357-35.93-13.89c-3.702-0.219-6.76,2.798-6.591,6.503
		C2781.319,1337.171,2783.632,1353.453,2794.312,1364.278z"/>
	<g>
		<path style="fill:#240448;" d="M2856.627,1413.39c-1.303,0-2.4-1.01-2.491-2.329c-0.113-1.645-10.805-165.807,30.672-283.855
			c0.457-1.303,1.885-1.989,3.188-1.529c1.302,0.457,1.987,1.885,1.529,3.188c-41.131,117.064-30.513,280.221-30.401,281.855
			c0.095,1.377-0.945,2.57-2.323,2.665C2856.743,1413.388,2856.685,1413.39,2856.627,1413.39z"/>
	</g>
	<g>
		<path style="fill:#240448;" d="M2841.081,1413.39c-0.011,0-0.021,0-0.031,0c-1.381-0.017-2.486-1.149-2.47-2.53
			c0.922-75.816-20.256-121.374-36.266-149.047c-0.692-1.195-0.283-2.725,0.912-3.416c1.196-0.689,2.724-0.282,3.416,0.912
			c16.305,28.184,37.874,74.563,36.938,151.611C2843.563,1412.29,2842.447,1413.39,2841.081,1413.39z"/>
	</g>
	<path style="fill:#44D4F4;" d="M2886.726,1175.612c-3.023,12.948-10.866,22.185-17.52,20.631
		c-6.654-1.553-9.597-13.308-6.574-26.256c2.091-8.958,9.675-15.396,14.15-18.513c1.841-1.282,4.371-0.692,5.454,1.273
		C2884.868,1157.524,2888.817,1166.655,2886.726,1175.612z"/>
	<path style="fill:#FC346C;" d="M2933.887,1138.607c3.239-6.016,0.445-12.209-6.208-13.763v0
		c-6.654-1.553-14.748,2.098-17.987,8.114l-22.065,40.982c-2.882,5.353-8.994,8.11-14.914,6.728v0
		c-5.92-1.382-10.18-6.56-10.394-12.636l-1.639-46.515c-0.24-6.829-5.882-13.686-12.535-15.24l0,0
		c-6.618,0.233-11.795,5.787-11.562,12.406c0,0,2.071,61.426,2.208,62.655l0.07,0.572c1.349,10.027,8.725,18.654,19.163,21.091
		l17.931,4.186c10.442,2.438,20.878-2.036,26.526-10.435l0.078,0.042L2933.887,1138.607z"/>
	<g>
		<path style="fill:#FCCC6C;" d="M2785.485,1221.685L2785.485,1221.685l14.26-27.781c3.346-6.518-0.714-14.394-7.965-15.449l0,0
			c-7.25-1.056-13.388,5.335-12.04,12.537L2785.485,1221.685z"/>
		<path style="fill:#FCCC6C;" d="M2773.235,1230.822L2773.235,1230.822l-30.694,5.745c-7.202,1.348-13.593-4.789-12.537-12.04l0,0
			c1.056-7.251,8.931-11.311,15.449-7.965L2773.235,1230.822z"/>
		<path style="fill:#FCCC6C;" d="M2781.982,1242.551L2781.982,1242.551l-14.26,27.781c-3.346,6.518,0.714,14.394,7.965,15.449l0,0
			c7.25,1.056,13.387-5.335,12.04-12.537L2781.982,1242.551z"/>
		<path style="fill:#FCCC6C;" d="M2794.233,1233.414L2794.233,1233.414l30.693-5.745c7.202-1.348,13.593,4.789,12.537,12.04l0,0
			c-1.056,7.251-8.931,11.311-15.449,7.965L2794.233,1233.414z"/>
		<path style="fill:#FCCC6C;" d="M2777.595,1223.502L2777.595,1223.502l-9.561-29.727c-2.243-6.975-10.683-9.673-16.556-5.293v0
			c-5.873,4.38-5.694,13.239,0.351,17.378L2777.595,1223.502z"/>
		<path style="fill:#FCCC6C;" d="M2775.393,1238.625L2775.393,1238.625l-17.641,25.766c-4.139,6.046-12.998,6.225-17.378,0.351v0
			c-4.38-5.873-1.683-14.313,5.292-16.556L2775.393,1238.625z"/>
		<path style="fill:#FCCC6C;" d="M2789.873,1240.734L2789.873,1240.734l9.561,29.727c2.244,6.975,10.683,9.673,16.556,5.293l0,0
			c5.873-4.38,5.694-13.239-0.351-17.378L2789.873,1240.734z"/>
		<path style="fill:#FCCC6C;" d="M2792.075,1225.61L2792.075,1225.61l17.641-25.766c4.139-6.046,12.998-6.225,17.378-0.351v0
			c4.38,5.873,1.683,14.313-5.292,16.556L2792.075,1225.61z"/>
	</g>
</g>
<g>
	<path style="fill:#FCCC6C;" d="M1064.929,311.767L1064.929,311.767c0.127,20.757-16.596,37.686-37.352,37.813l0,0
		c-20.756,0.127-37.686-16.596-37.813-37.352v0c-0.127-20.756,16.596-37.686,37.352-37.813l0,0
		C1047.872,274.288,1064.802,291.011,1064.929,311.767z"/>
	<path style="fill:#44D4F4;" d="M1153.003,406.643L1153.003,406.643c0.068,11.024-8.815,20.016-19.839,20.084l0,0
		c-11.025,0.068-20.016-8.815-20.084-19.839l0,0c-0.068-11.024,8.815-20.016,19.839-20.084l0,0
		C1143.944,386.736,1152.936,395.618,1153.003,406.643z"/>
	<g>
		<path style="fill:#FC346C;" d="M1030.675,382.856c-1.374,0-2.491-1.109-2.5-2.485l-0.419-68.377
			c-0.008-1.38,1.104-2.507,2.485-2.515l68.376-0.42c0.005,0,0.01,0,0.016,0c1.374,0,2.491,1.109,2.5,2.485l0.419,68.376
			c0.008,1.38-1.104,2.507-2.485,2.515l-68.376,0.419C1030.685,382.856,1030.68,382.856,1030.675,382.856z M1032.771,314.464
			l0.389,63.377l63.377-0.389l-0.389-63.377L1032.771,314.464z"/>
	</g>
</g>
<polygon style="fill:#44D4F4;" points="1623.618,370.047 1630.296,382.66 1642.508,389.559 1630.296,396.457 1623.618,409.07 
	1616.939,396.457 1604.727,389.559 1616.939,382.66 "/>
<polygon style="fill:#FCCC6C;" points="723.392,832.367 730.071,844.98 742.283,851.879 730.071,858.777 723.392,871.39 
	716.714,858.777 704.502,851.879 716.714,844.98 "/>
<polygon style="fill:#FCCC6C;" points="2841.11,984.786 2847.789,997.399 2860.001,1004.297 2847.789,1011.195 2841.11,1023.808 
	2834.432,1011.195 2822.22,1004.297 2834.432,997.399 "/>
<polygon style="fill:#FCCC6C;" points="1871.615,627.358 1878.294,639.971 1890.506,646.869 1878.294,653.767 1871.615,666.38 
	1864.937,653.767 1852.725,646.869 1864.937,639.971 "/>
<polygon style="fill:#FCCC6C;" points="1286.572,1081.897 1293.25,1094.51 1305.462,1101.408 1293.25,1108.307 1286.572,1120.919 
	1279.893,1108.307 1267.681,1101.408 1279.893,1094.51 "/>
<polygon style="fill:#44D4F4;" points="1945.058,1086.766 1951.736,1099.379 1963.948,1106.277 1951.736,1113.175 
	1945.058,1125.788 1938.379,1113.175 1926.167,1106.277 1938.379,1099.379 "/>
<g>
	<path style="fill:#240448;" d="M838.363,700.037c-1.078,0-2.073-0.702-2.395-1.788c-0.394-1.323,0.36-2.715,1.684-3.109
		c4.574-1.359,14.935-4.817,22.595-10.167c-3.831-1.871-7.363-4.475-10.341-7.721c-3.427-3.734-4.796-7.39-4.071-10.865
		c0.644-3.083,2.992-5.778,6.613-7.588c4.491-2.246,9.997-2.287,14.367-0.108c3.951,1.97,6.567,5.452,7.369,9.804
		c1.026,5.572-0.84,10.379-4.248,14.461c3.014,0.545,6.094,0.584,9.102,0.072c7.759-1.326,13.803-6.198,17.02-13.72
		c0.543-1.27,2.013-1.857,3.282-1.316c1.27,0.543,1.858,2.012,1.316,3.282c-3.907,9.137-11.286,15.061-20.775,16.682
		c-4.704,0.804-9.552,0.469-14.164-0.87c-8.106,6.652-19.897,10.842-26.637,12.846C838.839,700.003,838.599,700.037,838.363,700.037
		z M859.802,662.074c-1.752,0-3.525,0.399-5.119,1.197c-1.038,0.519-3.5,1.961-3.955,4.138c-0.47,2.253,1.296,4.758,2.86,6.463
		c3.099,3.377,6.889,5.941,10.977,7.553c3.473-3.438,5.54-7.458,4.7-12.024c-0.654-3.549-2.907-5.35-4.683-6.235
		C863.123,662.437,861.472,662.074,859.802,662.074z"/>
</g>
<g>
	<path style="fill:#240448;" d="M2538.828,432.608c-10.127,0-19.974-4.509-23.49-14.261c-0.654-1.814-1.088-3.755-1.299-5.787
		c-4.112-1.601-8.208-4.58-11.621-8.557c-3.826-4.46-6.272-9.77-6.712-14.569c-0.126-1.375,0.887-2.592,2.262-2.718
		c1.383-0.114,2.592,0.887,2.717,2.262c0.342,3.734,2.409,8.134,5.528,11.77c1.961,2.286,4.719,4.71,7.785,6.313
		c0.103-1.233,0.279-2.484,0.529-3.747c0.902-4.556,2.663-7.647,5.383-9.448c3.117-2.063,7.454-2.046,10.551,0.04
		c3.099,2.086,4.745,6.101,4.004,9.761c-0.45,2.231-1.724,4.362-3.682,6.163c-3.132,2.881-6.959,4.272-11.055,4.034
		c-0.15-0.009-0.302-0.02-0.453-0.033c0.188,0.98,0.444,1.923,0.768,2.822c4.088,11.336,18.606,12.444,27.609,9.61
		c0.31-0.097,0.613-0.199,0.915-0.307c2.564-0.918,4.835-2.161,6.751-3.695c1.077-0.864,2.65-0.689,3.515,0.389
		c0.862,1.078,0.688,2.651-0.39,3.514c-2.349,1.88-5.104,3.394-8.191,4.499c-0.365,0.131-0.731,0.253-1.101,0.369
		C2545.842,432.073,2542.317,432.608,2538.828,432.608z M2518.904,408.751c0.371,0.058,0.744,0.099,1.116,0.121
		c2.802,0.163,5.207-0.726,7.377-2.722c0.82-0.755,1.862-1.97,2.166-3.474c0.345-1.707-0.452-3.651-1.896-4.623
		c-1.444-0.972-3.544-0.981-4.996-0.018c-1.551,1.027-2.611,3.072-3.24,6.251C2519.13,405.806,2518.954,407.3,2518.904,408.751z"/>
</g>
<g>
	<g>
		<path style="fill:#FC346C;" d="M2036.763,1408.412c-14.608,0-26.469-11.822-26.507-26.439c-0.038-14.64,11.8-26.538,26.439-26.576
			l34.639-0.09c0.022,0,0.047,0,0.069,0c14.608,0,26.469,11.822,26.507,26.439c0.038,14.64-11.8,26.538-26.439,26.576l-34.639,0.09
			C2036.809,1408.412,2036.785,1408.412,2036.763,1408.412z"/>
	</g>
	<g>
		<path style="fill:#FFFFFF;" d="M2012.812,1408.474c-14.609,0-26.469-11.822-26.507-26.439c-0.037-14.64,11.8-26.538,26.439-26.576
			l23.95-0.062c0.022,0,0.048,0,0.07,0c14.608,0,26.468,11.822,26.506,26.439c0.037,14.64-11.8,26.538-26.44,26.576l-23.95,0.062
			C2012.859,1408.474,2012.834,1408.474,2012.812,1408.474z"/>
	</g>
	<g>
		<path style="fill:#FCCC6C;" d="M2012.814,1408.474c-0.015,0-0.028,0-0.042,0l-354.813-0.554
			c-14.64-0.023-26.489-11.909-26.466-26.549c0.023-14.626,11.887-26.467,26.507-26.467c0.015,0,0.028,0,0.042,0l354.812,0.554
			c14.64,0.023,26.489,11.909,26.467,26.549C2039.298,1396.633,2027.434,1408.474,2012.814,1408.474z"/>
	</g>
	<g>
		<path style="fill:#240448;" d="M1658.001,1393.916c-0.001,0-0.002,0-0.004,0l-23.953-0.008c-6.906-0.003-12.502-5.603-12.5-12.508
			c0.002-6.904,5.6-12.5,12.503-12.5c0.001,0,0.002,0,0.004,0l23.954,0.008c6.906,0.003,12.502,5.603,12.5,12.508
			C1670.502,1388.32,1664.904,1393.916,1658.001,1393.916z"/>
	</g>
</g>
<polygon style="fill:#FFFFFF;" points="2215.656,346.041 2227.176,367.796 2248.239,379.694 2227.176,391.592 2215.656,413.348 
	2204.136,391.592 2183.073,379.694 2204.136,367.796 "/>
<polygon style="fill:#FFFFFF;" points="2261.589,413.348 2268.928,427.206 2282.346,434.786 2268.928,442.365 2261.589,456.224 
	2254.251,442.365 2240.833,434.786 2254.251,427.206 "/>
</svg>
