<?xml version="1.0" encoding="utf-8"?>
<!-- Generator: Adobe Illustrator 27.5.0, SVG Export Plug-In . SVG Version: 6.00 Build 0)  -->
<svg version="1.1" id="Ñëîé_4" xmlns="http://www.w3.org/2000/svg" xmlns:xlink="http://www.w3.org/1999/xlink" x="0px" y="0px"
	 viewBox="0 0 700 300" style="enable-background:new 0 0 700 300;" xml:space="preserve">
<rect x="0" style="fill:#FFFFFF;" width="700" height="300"/>
<g>
	<g>
		<g>
			<path style="fill:#D1EDC5;" d="M608.662,207.877h-96.781H433.49H327.042h-87.514H151.87c0,0-10.687-28.051,6.254-39.345
				c16.941-11.294,35.294,4.235,35.294,4.235s-2.824-12.706,6.706-15.529c9.529-2.824,16.588,5.647,16.588,5.647
				s-9.529-43.059,23.294-53.294c32.824-10.235,49.765,29.647,49.765,29.647s3.758-10.702,13.412-9.882
				c11.978,1.017,13.765,20.118,13.765,20.118s9.177-9.529,25.059-7.059c15.882,2.471,20.824,32.471,20.824,32.471
				s14.295-19.018,36.178-15.841c21.882,3.176,27.613,16.978,27.613,16.978s-6.562-16.588,5.085-21.882
				c11.647-5.294,22.536,5.216,22.536,5.216s-8.471-32.47,14.118-45.176c22.588-12.706,49.288,19.602,49.288,19.602
				s12.097-18.227,28.359-13.25c17.299,5.295,13.059,37.362,13.059,37.362s8.823-11.95,25.059-8.774c16.235,3.176,6,33.529,6,33.529
				S615.552,181.928,608.662,207.877z"/>
			<path style="fill:#D1EDC5;" d="M532.905,122.374c0,2.568-2.082,4.649-4.649,4.649c-2.568,0-4.649-2.081-4.649-4.649
				c0-2.568,2.082-4.649,4.649-4.649C530.823,117.725,532.905,119.806,532.905,122.374z"/>
			<circle style="fill:#D1EDC5;" cx="443.55" cy="153.276" r="3.192"/>
			<circle style="fill:#D1EDC5;" cx="598.99" cy="183.767" r="2.204"/>
			<circle style="fill:#D1EDC5;" cx="244.808" cy="107.725" r="7.293"/>
			<path style="fill:#D1EDC5;" d="M375.41,167.286c0,2.647-2.146,4.793-4.794,4.793c-2.647,0-4.793-2.146-4.793-4.793
				c0-2.647,2.146-4.793,4.793-4.793C373.264,162.493,375.41,164.639,375.41,167.286z"/>
		</g>
		<g>
			<polygon style="fill:#D7EBFF;" points="657.499,203.818 623.725,194.367 623.725,86.05 657.499,76.599 			"/>
			<ellipse style="fill:#3D4B87;" cx="639.083" cy="143.44" rx="9.729" ry="21.917"/>
			<path style="fill:#1D2549;" d="M639.731,137.524c0,1.204-0.433,2.18-0.968,2.18s-0.968-0.976-0.968-2.18
				c0-1.204,0.433-2.18,0.968-2.18S639.731,136.32,639.731,137.524z"/>
			<path style="fill:#1D2549;" d="M639.731,150.53c0,1.204-0.433,2.18-0.968,2.18s-0.968-0.976-0.968-2.18
				c0-1.204,0.433-2.18,0.968-2.18S639.731,149.325,639.731,150.53z"/>
		</g>
		<g>
			<g>
				<rect x="164.559" y="264.719" style="fill:#D7EBFF;" width="416.158" height="1"/>
			</g>
			<g>
				<rect x="282.276" y="274.587" style="fill:#D7EBFF;" width="101.651" height="1"/>
			</g>
			<g>
				<rect x="134.557" y="233.593" style="fill:#D7EBFF;" width="71.83" height="1"/>
			</g>
			<g>
				<rect x="193.301" y="243.697" style="fill:#D7EBFF;" width="24.515" height="1"/>
			</g>
			<g>
				<path style="fill:#6CB775;" d="M98.773,257.664c0,0-3.28-8.131,1.932-10.216c5.212-2.085,10.216,5.942,10.216,5.942
					s-3.544-17.2,4.899-19.389c8.443-2.189,10.841,17.929,10.841,17.929s0.625-10.975,6.255-11.794
					c5.629-0.819,2.606,13.357,2.606,13.357s4.795-7.274,10.737-4.836c5.942,2.438,5.421,9.005,5.421,9.005H98.773z"/>
				<rect x="96.695" y="256.845" style="fill:#3D4B87;" width="56.347" height="9.633"/>
			</g>
			<g>
				<path style="fill:#6CB775;" d="M594.597,257.664c0,0-3.28-8.131,1.932-10.216c5.212-2.085,10.216,5.942,10.216,5.942
					s-3.544-17.2,4.899-19.389c8.443-2.189,10.841,17.929,10.841,17.929s0.625-10.975,6.254-11.794
					c5.629-0.819,2.606,13.357,2.606,13.357s4.795-7.274,10.737-4.836c5.942,2.438,5.421,9.005,5.421,9.005H594.597z"/>
				<rect x="592.373" y="256.845" style="fill:#3D4B87;" width="56.347" height="9.633"/>
			</g>
		</g>
	</g>
	<g>
		<path style="fill:#D7EBFF;" d="M245.314,222.318c0,1.18-8.797,2.137-19.649,2.137c-10.852,0-19.649-0.957-19.649-2.137
			c0-1.18,8.797-2.137,19.649-2.137C236.517,220.181,245.314,221.138,245.314,222.318z"/>
		<path style="fill:#FF9376;" d="M212.991,211.644l0.264,5.187c0,0,4.116-0.096,4.258,0c0.142,0.096,0.304-5.187,0.304-5.187
			H212.991z"/>
		<path style="fill:#1D2549;" d="M213.255,216.831c0,0,2.192-4.383,4.403-0.582c0.371,0.637,0.501,1.813,0.974,2.538
			c0.473,0.725,0.818,2.599,0.502,2.933c-0.315,0.334-5.391,0.96-7.419-0.176C211.169,221.238,212.719,217.019,213.255,216.831z"/>
		<path style="fill:#FF9376;" d="M237.901,211.644v5.187c0,0-4.116-0.096-4.258,0c-0.142,0.096-0.568-5.187-0.568-5.187H237.901z"/>
		<path style="fill:#1D2549;" d="M237.901,216.831c0,0-2.192-4.383-4.403-0.582c-0.371,0.637-0.501,1.813-0.974,2.538
			c-0.473,0.725-0.818,2.599-0.502,2.933c0.315,0.334,5.391,0.96,7.419-0.176C239.986,221.238,238.437,217.019,237.901,216.831z"/>
		<path style="fill:#2E3768;" d="M238.491,212.673c-2.068,0.836-4.271,0.951-6.591,0.439c-1.533-5.169-4.164-15.848-3.778-22.368
			l-3.26-13.307l-2.745,13.221c0.129,6.048-1.584,14.126-3.246,22.233c-1.876,0.774-4.372,0.624-6.24-0.261l-1.031-22.195
			c0-15.328-1.547-19.208-0.764-27.111c0.086-0.879,0.182-1.737,0.3-2.595c0.053-0.44,0.118-0.869,0.182-1.298l25.8-0.118
			c0.043,0.343,0.075,0.686,0.107,1.029c0.107,1.029,0.204,2.059,0.29,3.077c0.761,9.093-0.441,13.021-0.182,26.915L238.491,212.673
			z"/>
		<path style="fill:#1D2549;" d="M211.755,220.223c3.338,1.055,7.424,0.175,7.424,0.175s0.332,1.484,0,1.797
			c-0.332,0.313-2.13,0.786-4.306,0.66c-2.176-0.126-3.334-0.82-3.386-1.041C211.435,221.594,211.755,220.223,211.755,220.223z"/>
		<path style="fill:#1D2549;" d="M239.397,220.223c-3.338,1.055-7.424,0.175-7.424,0.175s-0.332,1.484,0,1.797
			c0.332,0.313,2.13,0.786,4.306,0.66c2.176-0.126,3.334-0.82,3.386-1.041C239.717,221.594,239.397,220.223,239.397,220.223z"/>
		<g>
			<path style="fill:#1D2549;" d="M225.123,177.515l-0.515-0.151c0.052-0.179,1.31-4.401,3.674-5.951l0.293,0.448
				C226.377,173.302,225.134,177.473,225.123,177.515z"/>
		</g>
		<path style="fill:#1D2549;" d="M237.516,163.422c-2.541,1.029-13.661,4.9-26.679-0.096c0.086-0.879,0.182-1.737,0.3-2.595
			l26.089-0.386C237.333,161.374,237.43,162.403,237.516,163.422z"/>
		<path style="fill:#467BD1;" d="M238.169,161.896c0,0-5.64,1.737-10.187,2.134c-0.826,0.075-1.705-2.316-2.552-2.273
			c-0.74,0.021-1.437,2.488-2.177,2.488c-4.879,0.011-13.404-1.63-13.404-1.63c-0.311-6.048,0.418-8.643,0.815-13.211
			c0.107-1.276,0.193-2.702,0.215-4.396c0.011-0.279,0.011-0.568,0.011-0.869c0.032-8.514-0.568-18.991,0.365-19.816
			c1.716-1.523,5.201-2.552,8.289-3.131c0,0,0,0,0.011-0.011c0.45-0.075,0.89-0.15,1.319-0.214c2.606-0.397,4.15-0.461,6.863,0
			c0.407,0.075,0.815,0.15,1.233,0.236c2.681,0.547,5.447,1.458,7.024,3.131c0.665,0.697,0.086,11.506,0.375,18.369
			c0.032,0.794,0.075,1.523,0.129,2.188c0.15,1.662,0.343,3.335,0.547,4.976C237.622,154.594,238.276,159.033,238.169,161.896z"/>
		<path style="fill:#FFFFFF;" d="M225.012,135.153c0,0-5.394-8.718-5.469-13.961c0,0,0,0,0.011-0.011
			c0.45-0.075,0.89-0.15,1.319-0.214c2.606-0.397,4.15-0.461,6.863,0c0.407,0.075,0.815,0.15,1.233,0.236
			C229.301,125.942,225.012,135.153,225.012,135.153z"/>
		<g>
			<path style="fill:#FF9376;" d="M227.736,120.967c-0.363,1.462-3.296,3.652-6.863,0c0.177-0.974,0.439-5.433,0.438-6.429
				c0.001,1.037,5.198-2.16,6.168,3.855C227.338,117.521,227.57,120.122,227.736,120.967z"/>
		</g>
		<polygon style="fill:#1D2549;" points="224.046,122.88 223.586,124.326 224.304,124.899 223.109,131.749 225.029,135.473 
			226.441,131.761 225.044,124.885 225.634,124.274 225.191,122.88 		"/>
		<g>
			<polygon style="fill:#D7EBFF;" points="223.301,125.42 219.762,123.528 219.887,123.291 223.161,125.041 223.461,124.277 
				223.71,124.375 			"/>
		</g>
		<g>
			<polygon style="fill:#D7EBFF;" points="226.156,125.529 225.516,124.339 225.752,124.211 226.267,125.169 228.708,123.895 
				228.831,124.131 			"/>
		</g>
		<g>
			<polygon style="fill:#3165AF;" points="216.238,156.734 209.903,156.54 209.912,156.272 215.984,156.458 216.206,152.653 
				210.366,152.275 210.383,152.007 216.489,152.402 			"/>
		</g>
		<g>
			<polygon style="fill:#3165AF;" points="233.555,156.742 233.04,152.211 237.322,152.007 237.334,152.275 233.339,152.465 
				233.792,156.449 237.809,156.057 237.834,156.322 			"/>
		</g>
		<g>
			<path style="fill:#3165AF;" d="M225.611,161.761l-0.363-0.008c0.138-5.536-0.021-8.206-0.176-10.788
				c-0.065-1.089-0.133-2.217-0.176-3.536c-0.072-2.197-0.045-4.227-0.02-6.191c0.027-1.991,0.051-3.871-0.028-5.757l0.363-0.014
				c0.08,1.895,0.055,3.781,0.028,5.777c-0.025,1.959-0.053,3.985,0.02,6.174c0.043,1.314,0.109,2.438,0.175,3.526
				C225.59,153.532,225.751,156.209,225.611,161.761z"/>
		</g>
		<g>
			<path style="fill:#467BD1;" d="M232.911,122.444c6.419,2.268,13.383,12.433,14.33,13.029l9.711-8.332l3.572,2.998
				c0,0-8.988,13.435-13.861,12.976c-4.198-0.396-11.976-7.579-13.751-9.187C231.136,132.319,232.911,122.444,232.911,122.444z"/>
			<g>
				<path style="fill:#FF9376;" d="M257.958,126.848c0,0,0.909-2.652,1.604-3.226c0.694-0.575,1.532-1.41,1.585-1.381
					c0.245,0.139-0.2,0.859-0.705,1.704c-0.225,0.378,0.958,0.034,1.339-0.227c0.382-0.261,2.133-2.32,2.551-1.733
					c0.074,0.104-1.721,1.872-1.721,2.498c0,0.626,0.56,1.381,0.002,1.96c-0.558,0.58-2.588,1.558-2.588,1.558L257.958,126.848z"/>
				<path style="fill:#FF9376;" d="M261.982,126.471c1.842-1.106,3.423-2.818,3.321-2.977c-0.122-0.19-0.652-0.058-1.342,0.613
					c-0.54,0.525-1.616,1.052-1.847,1.301C261.883,125.658,261.982,126.471,261.982,126.471z"/>
				<path style="fill:#FF9376;" d="M261.038,127.398c2.531-0.78,4.13-2.666,4.052-2.768c-0.093-0.123-0.652,0.047-1.297,0.572
					c-0.576,0.468-1.44,0.933-1.672,1.171C261.888,126.61,261.038,127.398,261.038,127.398z"/>
				<path style="fill:#FF9376;" d="M262.201,125.415c1.773-1.214,3.212-3.071,3.1-3.224c-0.134-0.183-0.654-0.019-1.303,0.692
					c-0.508,0.556-1.495,1.24-1.71,1.503C262.073,124.65,262.201,125.415,262.201,125.415z"/>
			</g>
			<polygon style="fill:#FFFFFF;" points="256.952,127.141 257.843,126.134 260.823,128.625 260.003,129.698 			"/>
		</g>
		<g>
			<path style="fill:#467BD1;" d="M214.478,122.552c-6.419,2.268-13.394,12.372-14.34,12.968l-9.711-8.332l-3.572,2.998
				c0,0,8.988,13.435,13.861,12.976c4.198-0.396,11.976-7.579,13.751-9.187C216.242,132.366,214.478,122.552,214.478,122.552z"/>
			<g>
				<path style="fill:#FF9376;" d="M189.42,126.895c0,0-0.909-2.652-1.604-3.226c-0.694-0.575-1.532-1.41-1.585-1.381
					c-0.245,0.139,0.2,0.859,0.705,1.704c0.225,0.377-0.958,0.034-1.339-0.227c-0.382-0.261-2.133-2.32-2.551-1.733
					c-0.074,0.104,1.721,1.872,1.721,2.498c0,0.626-0.56,1.381-0.002,1.961c0.558,0.58,2.588,1.558,2.588,1.558L189.42,126.895z"/>
				<path style="fill:#FF9376;" d="M185.396,126.519c-1.842-1.106-3.423-2.818-3.321-2.977c0.122-0.19,0.652-0.058,1.342,0.613
					c0.54,0.525,1.617,1.052,1.847,1.301C185.496,125.706,185.396,126.519,185.396,126.519z"/>
				<path style="fill:#FF9376;" d="M186.34,127.446c-2.531-0.78-4.129-2.666-4.052-2.768c0.093-0.123,0.652,0.047,1.297,0.572
					c0.576,0.468,1.439,0.933,1.672,1.17S186.34,127.446,186.34,127.446z"/>
				<path style="fill:#FF9376;" d="M185.177,125.462c-1.773-1.214-3.212-3.071-3.1-3.224c0.134-0.183,0.654-0.019,1.303,0.692
					c0.508,0.556,1.495,1.24,1.71,1.503C185.306,124.697,185.177,125.462,185.177,125.462z"/>
			</g>
			<polygon style="fill:#FFFFFF;" points="190.426,127.188 189.535,126.181 186.555,128.673 187.375,129.745 			"/>
		</g>
		<g>
			<path style="fill:#2E3768;" d="M199.931,137.478c-0.004-0.031-0.097-0.791,0.026-1.977l0.361,0.037
				c-0.116,1.14-0.027,1.887-0.026,1.895L199.931,137.478z"/>
		</g>
		<g>
			<path style="fill:#3165AF;" d="M211.005,137.182l-0.364-0.023c0.001-0.02,0.122-2.003,0.075-5.408l0.364-0.006
				C211.127,135.166,211.006,137.162,211.005,137.182z"/>
		</g>
		<g>
			<path style="fill:#3165AF;" d="M236.098,136.899c0,0-0.057-1.993-0.119-5.147l0.364-0.008c0.063,3.154,0.119,5.144,0.119,5.144
				L236.098,136.899z"/>
		</g>
		<g>
			<path style="fill:#3165AF;" d="M247.664,137.125l-0.364-0.031c0.001-0.001,0.021-0.386-0.237-1.582l0.355-0.077
				C247.69,136.683,247.667,137.082,247.664,137.125z"/>
		</g>
		<g>
			<g>
				<path style="fill:#1D2549;" d="M228.404,111.37c4.062-2.36,0.24-9.917-2.751-7.777
					C222.662,105.734,228.404,111.37,228.404,111.37z"/>
				<g>
					<g>
						<g>
							<path style="fill:#FF9376;" d="M229.749,110.5c-0.668-3.66-2.991-5.824-6.7-4.381c-4.42,1.72-3.892,5.861-3.892,5.861
								l2.147,2.976c0,0,0.371,3.432,3.697,4.922c1.745,0.781,3.699,0.316,4.499-1.069c0.461-0.798,1.142-2.413,0.583-4.75
								C229.696,112.442,229.841,111.007,229.749,110.5z"/>
						</g>
					</g>
				</g>
				<g>
					<g>
						<g>
							<path style="fill:#1D2549;" d="M225.319,113.29c0.058,0.274,0.255,0.464,0.439,0.425c0.184-0.039,0.287-0.293,0.228-0.567
								c-0.058-0.274-0.255-0.464-0.439-0.425C225.364,112.762,225.261,113.016,225.319,113.29z"/>
						</g>
					</g>
				</g>
				<g>
					<g>
						<g>
							<path style="fill:#1D2549;" d="M228.589,112.537c0.042,0.29,0.23,0.502,0.419,0.474c0.189-0.028,0.308-0.285,0.265-0.574
								c-0.042-0.289-0.23-0.502-0.419-0.474C228.665,111.99,228.546,112.247,228.589,112.537z"/>
						</g>
					</g>
				</g>
				<path style="fill:#FF9376;" d="M220.631,112.713c-3.366-1.087-1.126,3.8,0.655,2.395
					C222.7,113.991,220.631,112.713,220.631,112.713z"/>
				<path style="fill:#1D2549;" d="M228.993,108.158c1.16-4.592-2.358-6.731-6.733-5.689c-3.051,0.727-4.761,3.198-5.095,4.81
					c-0.594,2.867,0.265,4.056,1.981,5.463c0,0,0.725-0.333,1.325,0.013c0.736,0.425,1.188,1.013,1.188,1.013l0.526-0.231
					c0,0-0.132-3.995,0.779-4.066c0,0,2.471,1.26,4.473,0.633C229.087,109.588,228.993,108.158,228.993,108.158z"/>
				<g>
					<path style="fill:#E0604F;" d="M220.54,114.75c-0.325,0.091-0.685-0.187-0.701-0.198c-0.021-0.017-0.025-0.048-0.009-0.07
						c0.019-0.021,0.047-0.024,0.07-0.009c0.003,0.004,0.336,0.259,0.612,0.181c0.004-0.001,0.008-0.002,0.011-0.003
						c0.142-0.044,0.247-0.175,0.311-0.389c0.128-0.424-0.189-0.797-0.568-0.947c-0.266-0.104-0.634-0.113-0.792,0.209
						c-0.014,0.024-0.042,0.036-0.066,0.023c-0.025-0.013-0.035-0.042-0.023-0.066c0.156-0.315,0.515-0.417,0.917-0.257
						c0.422,0.166,0.771,0.586,0.626,1.067c-0.075,0.247-0.2,0.399-0.376,0.454C220.55,114.747,220.545,114.749,220.54,114.75z"/>
				</g>
				<g>
					<path style="fill:#E0604F;" d="M220.927,114.142c-0.016,0.005-0.034,0.001-0.048-0.012c-0.015-0.015-0.395-0.36-0.853,0.037
						c-0.019,0.016-0.051,0.017-0.07-0.005c-0.018-0.02-0.016-0.052,0.005-0.07c0.525-0.462,0.981-0.04,0.985-0.035
						c0.02,0.019,0.021,0.05,0.002,0.07C220.943,114.134,220.935,114.14,220.927,114.142z"/>
				</g>
				<g>
					<path style="fill:#E0604F;" d="M227.957,116.203c0.286,0,0.624-0.094,0.841-0.421c0.249-0.374,0.049-0.76-0.229-1.292
						c-0.214-0.41-0.481-0.92-0.667-1.623l-0.263,0.07c0.195,0.733,0.469,1.257,0.69,1.679c0.273,0.523,0.398,0.785,0.244,1.015
						c-0.302,0.457-0.902,0.261-0.927,0.253l-0.088,0.257C227.656,116.175,227.8,116.203,227.957,116.203z"/>
				</g>
				<g>
					<path style="fill:#1D2549;" d="M224.455,112.531c0.339-1.008,1.64-0.889,1.651-0.884l0.055-0.541
						c-0.603-0.057-1.841,0.122-2.222,1.251L224.455,112.531z"/>
				</g>
				<g>
					<path style="fill:#1D2549;" d="M228.153,111.353c0.846-0.593,1.726-0.187,1.765-0.168l0.234-0.489
						c-0.048-0.023-1.203-0.568-2.312,0.213L228.153,111.353z"/>
				</g>
				<g>
					<path style="fill:#3E3C6B;" d="M224.826,109.263c0.138-0.037,3.386-0.955,3.975-3.114l-0.261-0.072
						c-0.549,2.009-3.755,2.915-3.786,2.925L224.826,109.263z"/>
				</g>
				<g>
					<path style="fill:#3E3C6B;" d="M223.595,108.556c0.023-0.023,0.572-0.602,1.072-2.227l-0.259-0.081
						c-0.48,1.553-1.004,2.113-1.009,2.119L223.595,108.556z"/>
				</g>
				<path style="fill:#1D2549;" d="M230.153,114.382c0,0,2.731,4.846-1.748,6.441c-4.48,1.595-6.095-2.406-6.095-2.406
					s-0.899-1.568-1.023-3.31c-0.14-1.965-0.951-2.479-0.951-2.479s1.742,0.747,1.85,0.909c0.504,0.756,1.679,3.403,2.865,3.549
					c1.44,0.177,3.168-0.784,4.369-0.784C230.62,116.302,230.153,114.382,230.153,114.382z"/>
				<path style="fill:#FFFFFF;" d="M229.041,117.171c-0.758,0.334-1.921,0.428-1.921,0.428s0.24,0.935,1.029,0.815
					c0.788-0.12,0.582-0.895,0.582-0.895L229.041,117.171z"/>
			</g>
		</g>
	</g>
	<g>
		<path style="fill:#D7EBFF;" d="M291.857,247.307c0,1.18-8.797,2.137-19.649,2.137c-10.852,0-19.649-0.957-19.649-2.137
			c0-1.18,8.797-2.137,19.649-2.137C283.059,245.17,291.857,246.127,291.857,247.307z"/>
		<g>
			<path style="fill:#3165AF;" d="M284.681,155.952c5.71,7.359,6.553,23.425,4.885,24.458c-1.668,1.033-10.648,1.667-10.643,0.876
				C278.928,180.494,284.681,155.952,284.681,155.952z"/>
			<g>
				<path style="fill:#3165AF;" d="M263.258,154.967c-6.583,6.946-7.968,19.32-7.599,22.367c0.369,3.047,11.081,4.617,11.081,4.617
					L263.258,154.967z"/>
				<path style="fill:#1D2549;" d="M270.024,178.34l-16.141-3.057c-0.486-0.092-0.805-0.561-0.713-1.047l2.686-14.181l17.021,3.224
					L270.024,178.34z"/>
				<path style="fill:#FFFFFF;" d="M255.178,174.537l-0.874-0.166c-0.275-0.052-0.456-0.318-0.404-0.593l2.582-13.632l1.871,0.354
					l-2.582,13.632C255.719,174.408,255.453,174.589,255.178,174.537z"/>
				<g>
					<g>
						<g>
							<path style="fill:#3D4B87;" d="M283.917,199.884c-1.8,2.711-9.21,5.118-9.147,5.013c-0.084,0.356-0.178,0.764-0.272,1.224
								c-0.607,3.077-1.287,8.32-1.905,14.024c-0.816,7.566-3.38,15.939-3.862,21.15c-0.031,0.303-0.052,0.586-0.063,0.869h-2.177
								c-0.084-0.293-0.167-0.586-0.251-0.879c-3.705-13.176-1.047-21.967-0.921-22.427c0.523-5.986-1.392-12.129-2.302-18.398
								c-0.324-2.166-0.523-4.343-0.461-6.531c0.01-0.241,0.01-0.481,0.021-0.701c0.103-2.807,0.359-4.756,0.637-6.104
								c0.006-0.036,0.012-0.06,0.012-0.06c0.513-2.397,1.109-2.867,1.109-2.867l18.346,0.869l0.293,3.537l0.01,0.105
								L283.917,199.884z"/>
						</g>
					</g>
					<g>
						<g>
							<path style="fill:#3D4B87;" d="M283.68,188.422c1.57,6.653,1.187,22.23,0.233,32.036c-0.787,8.088-2.563,15.224-2.595,21.711
								h-2.198c-5.806-21.356-0.346-22.372-4.563-35.747c-0.483-2.494-3.353-14.054-2.462-15.052L283.68,188.422z"/>
						</g>
					</g>
					<g>
						<g>
							<path style="fill:#1D2549;" d="M265.984,247.524c0,0-1.183-6.128,0.876-6.661c2.059-0.533,2.296,1.44,4.108,3.199
								c0.846,0.821,1.305,1.588,1.554,2.171c0.246,0.576-0.167,1.222-0.859,1.3c-1.075,0.122-2.261,0.097-3.295,0.027
								c-0.246-0.017-0.419-1.574-0.985-1.643c-0.227-0.028-0.286,1.588-0.518,1.618L265.984,247.524z"/>
						</g>
					</g>
					<g>
						<g>
							<path style="fill:#1D2549;" d="M278.276,247.192c0,0-1.165-6.084,0.92-6.407c2.347-0.364,3.262,0.864,5.166,2.5
								c0.956,0.821,2.358,1.885,2.976,2.666c0.384,0.485,0.042,1.161-0.625,1.223c-1.118,0.105-3.41,0.239-5.036,0.085
								c-0.568-0.054-1.065-1.534-1.587-1.577c-0.458-0.038-0.855,1.307-0.918,1.491
								C279.155,247.219,278.513,247.254,278.276,247.192z"/>
						</g>
					</g>
					<g>
						<g>
							<polygon style="fill:#FF9376;" points="271.061,152.825 272.43,145.893 277.679,146.175 277.679,154.022 							"/>
						</g>
					</g>
					<g>
						<g>
							<path style="fill:#FF9376;" d="M272.197,147.822c0,0-3.012-10.904-0.711-12.621c1.885-1.407,7.545-1.097,8.599,1.59
								c0.399,1.016,0.718,4.72,0.333,7.895c-0.169,1.391-0.801,2.762-1.445,3.417C278.217,148.872,273.6,149.242,272.197,147.822z"
								/>
						</g>
					</g>
					<g>
						<g>
							<path style="fill:#1D2549;" d="M272.147,133.425c-4.014,1.991-2.625,7.589-1.876,9.827c0.39,1.166,1.693,3.713,2.921,3.658
								c1-0.045,3.278-1.685,3.964-3.441c0.614-1.572,3.395-3.427,3.395-3.427c0.609-0.988,0.672-2.337,0.317-3.454
								C279.717,132.765,275.343,131.84,272.147,133.425z"/>
						</g>
					</g>
					<g>
						<g>
							<path style="fill:#FF9376;" d="M279.808,140.575c-1.262-1.653-2.558,0.973-1.633,2.064
								C279.749,144.496,280.545,141.542,279.808,140.575z"/>
						</g>
					</g>
					<g>
						<g>
							<path style="fill:#467BD1;" d="M283.68,188.422c0.261-2.538-0.386-4.603-0.642-8.548c-0.6-9.278,1.643-23.225,1.643-23.922
								c0-0.468-4.892-5.395-11.229-5.633c-4.923-0.185-9.7,3.86-10.194,4.648c-0.641,1.02,0.708,16.815,0.666,26.384
								c-0.008,1.898-0.839,3.093-0.695,5.715c0,0-0.927,3.419,6.589,3.781C277.335,191.209,283.68,188.422,283.68,188.422z"/>
						</g>
					</g>
					<g>
						<path style="fill:#E0604F;" d="M279.256,142.487c-0.181,0-0.396-0.065-0.542-0.321c-0.192-0.335-0.156-1.023,0.143-1.267
							c0.145-0.117,0.404-0.184,0.819,0.181c0.019,0.017,0.022,0.047,0.004,0.067c-0.016,0.018-0.047,0.023-0.067,0.004
							c-0.2-0.176-0.484-0.348-0.695-0.179c-0.263,0.215-0.291,0.848-0.121,1.147c0.251,0.439,0.737,0.22,0.757,0.212
							c0.025-0.009,0.052-0.002,0.063,0.023c0.011,0.024,0.001,0.052-0.022,0.063C279.592,142.419,279.442,142.487,279.256,142.487z
							"/>
					</g>
					<g>
						<path style="fill:#E0604F;" d="M278.755,142.191c-0.009,0-0.019-0.003-0.028-0.009c-0.022-0.015-0.027-0.045-0.011-0.066
							c0.013-0.018,0.33-0.459,0.662-0.459c0.027,0,0.048,0.021,0.048,0.048s-0.021,0.048-0.048,0.048
							c-0.283,0-0.582,0.414-0.585,0.418C278.785,142.183,278.771,142.191,278.755,142.191z"/>
					</g>
				</g>
				<g>
					<path style="fill:#2E3768;" d="M274.396,206.216l0.213-0.153c-2.416-3.36-3.446-5.449-3.456-5.47l-0.025-0.05l-0.053-0.017
						l-2.909-0.923l-0.08,0.249l2.857,0.906C271.115,201.098,272.174,203.123,274.396,206.216z"/>
				</g>
				<path style="fill:#2E3768;" d="M273.573,194.079c0.462,4.663,1.906,7.309,5.155,6.895c4.351-0.554,2.58-7.988,2.58-7.988
					C278.943,193.962,276.363,194.32,273.573,194.079z"/>
				<path style="fill:#2E3768;" d="M267.277,193.709c0,0-0.691,6.614-4.259,6.75c-0.324-2.166-0.523-4.343-0.461-6.531
					c0.01-0.241,0.01-0.481,0.021-0.701C264.148,193.636,265.707,193.803,267.277,193.709z"/>
				<path style="fill:#1D2549;" d="M271.419,143.999c-7.541,14.682,0.616,21.669,0.616,21.669s6.064-4.586,4.617-14.405
					c-1.095-7.43-1.724-8.024-1.724-8.024L271.419,143.999z"/>
				<g>
					<path style="fill:#3E3C6B;" d="M271.565,144.431l0.241-0.102c-0.027-0.062-2.607-6.238-0.385-8.519l-0.188-0.182
						C268.89,138.033,271.454,144.171,271.565,144.431z"/>
				</g>
				<g>
					<path style="fill:#3E3C6B;" d="M274.471,144.629c0.053-0.065,1.295-1.627,2.276-5.305l-0.254-0.067
						c-0.965,3.617-2.213,5.192-2.226,5.208L274.471,144.629z"/>
				</g>
				<g>
					<path style="fill:#3E3C6B;" d="M272.653,162.45c0.038-0.052,3.678-5.297,2.729-12.51l-0.26,0.035
						c0.936,7.112-2.646,12.273-2.682,12.324L272.653,162.45z"/>
				</g>
				<g>
					<path style="fill:#3E3C6B;" d="M272.668,158.221c0.031-0.079,0.758-1.961,0.528-5.55l-0.262,0.016
						c0.226,3.525-0.503,5.42-0.51,5.438L272.668,158.221z"/>
				</g>
				<path style="fill:#FFC44D;" d="M270.995,144.85c2.267-1.994,4.646,0.68,4.646,0.68
					C273.567,145.754,271.934,145.6,270.995,144.85z"/>
			</g>
		</g>
	</g>
	<g>
		<path style="fill:#D7EBFF;" d="M123.154,223.32c0,1.18-15.532,2.137-34.692,2.137s-34.692-0.957-34.692-2.137
			s15.532-2.137,34.692-2.137S123.154,222.14,123.154,223.32z"/>
		<path style="fill:#3165AF;" d="M84.166,131.211c-3.447,8.695,18.878,20.449,25.876,17.215c6.03-2.787,13.57-15.205,13.57-15.205
			c-0.804-1.078-1.756-1.945-2.88-2.564l-12.513,10.268C108.218,140.925,86.666,124.906,84.166,131.211z"/>
		<path style="fill:#FF9376;" d="M110.209,217.372c0,0-2.438-3.693-3.838-6.821c-1.668-3.727-5.77-7.916-6.11-10.792
			c-0.305-2.533,5.983-5.762,6.414-3.508c0.618,3.227,6.056,19.795,6.056,19.795C112.567,217.907,111.868,218.903,110.209,217.372z"
			/>
		<path style="fill:#2E3768;" d="M109.943,216.99c-0.058,2.701,0.209,4.787,1.844,4.717c0,0,7.758,0.021,8.157-1.155
			c0.399-1.175-2.205-1.653-3.606-2.504c-1.402-0.85-3.681-2.234-3.681-2.234c-0.342,0.563-0.626,1.845-1.295,2.005
			C111.008,217.906,110.371,216.996,109.943,216.99z"/>
		<path style="fill:#3D4B87;" d="M114.442,218.03c-2.639-1.422-2.883-2.457-1.826-3.126c1.652-1.046,2.554,2.437,2.554,2.437
			L114.442,218.03z"/>
		<g>
			
				<rect x="115.125" y="217.987" transform="matrix(0.6271 -0.7789 0.7789 0.6271 -126.7957 171.3501)" style="fill:#3D4B87;" width="0.908" height="0.254"/>
		</g>
		<g>
			<polygon style="fill:#3D4B87;" points="116.15,218.898 115.946,218.75 116.43,218.086 116.634,218.234 			"/>
		</g>
		<path style="fill:#FF9376;" d="M76.801,192.826c-2.352,2.484-1.151,5.111-3.628,6.952c-2.319,1.724-5.382,4.843-7.304,8.439
			c-1.775,3.321-3.641,6.153-3.641,6.153c-0.163,1.403,0.747,1.854,2.182,1.837c0,0,11.233-10.289,13.628-12.541
			c2.393-2.249,4.797-5.474,4.797-5.474L76.801,192.826z"/>
		<path style="fill:#2E3768;" d="M62.392,214.125c-2.062,1.746-3.448,3.327-2.312,4.506c0,0,5.124,5.826,6.268,5.346
			c1.145-0.48-0.222-2.747-0.513-4.36c-0.291-1.614-0.764-4.238-0.764-4.238c-0.632,0.114-1.712,0.543-2.263,0.17
			C62.494,215.336,62.685,214.464,62.392,214.125z"/>
		<path style="fill:#3D4B87;" d="M64.593,218.184c-0.683-2.919-0.069-3.788,1.132-3.439c1.878,0.545-0.134,3.528-0.134,3.528
			L64.593,218.184z"/>
		<g>
			<polygon style="fill:#3D4B87;" points="65.741,219.197 64.834,219.238 64.824,218.985 65.73,218.944 			"/>
		</g>
		<g>
			<polygon style="fill:#3D4B87;" points="65.892,219.963 65.074,220.039 65.05,219.787 65.867,219.71 			"/>
		</g>
		<path style="fill:#FFC44D;" d="M85.582,193.591c0,0,0.674-17.769-1.139-21.732c-1.813-3.963-14.388-4.461-14.388-4.461
			c-0.315,13.183,2.866,16.594,4.559,25.662c0,0-3.774,6.204-4.776,7.589c-0.75,1.036-3.736,5.065-5.192,7.029
			c-0.457,0.616-0.367,1.479,0.206,1.988l2.975,2.646c0.578,0.514,1.45,0.501,2.008-0.036c2.821-2.717,10.881-10.475,13.124-12.57
			C85.62,197.22,85.582,193.591,85.582,193.591z"/>
		<path style="fill:#FFC44D;" d="M111.981,210.132c-1.236-4.098-6.3-19.342-8.08-22.765c-0.001-0.001-0.003,0-0.003-0.001
			c-3.723-8.981-15.465-24.029-15.465-24.029l-18.481,1.83c0.101,4.118,0.501,6.106,2.05,7.871
			c2.12,2.414,11.391,4.818,11.391,4.818s0.962-0.383,10.458,13.858c0.87,1.305,8.707,15.596,10.787,20.098
			c0.665,1.438,2.373,2.053,3.805,1.375l2.759-1.306C111.859,211.57,112.192,210.829,111.981,210.132z"/>
		<path style="fill:#3D4B87;" d="M110.429,220.88c3.1,0.506,8.617-0.043,9.479-0.862c0,0,0.196,0.388,0.287,0.897
			c0.091,0.509-2.774,1.13-5.162,1.324c-2.387,0.195-4.079,0.132-4.368-0.202C110.377,221.704,110.429,220.88,110.429,220.88z"/>
		<path style="fill:#3D4B87;" d="M66.595,223.8c-1.826-0.395-5.78-4.932-6.737-6.876c0,0-0.74,0.924-0.427,1.632
			c0.313,0.708,1.666,2.42,3.675,4.237c2.009,1.817,2.767,1.797,3.18,1.645C66.799,224.25,66.595,223.8,66.595,223.8z"/>
		<g>
			<path style="fill:#E2A437;" d="M77.236,193.894c-0.037-0.039-0.903-0.959-2.601-0.696l-0.041-0.274
				c1.849-0.275,2.805,0.74,2.846,0.784L77.236,193.894z"/>
		</g>
		<path style="fill:#E2A437;" d="M73.218,186.056c-3.786,0.016-3.603-8.838-3.444-10.32c0.183-1.701,5.951-2.779,6.186,1.082
			C76.205,180.819,77.728,186.037,73.218,186.056z"/>
		<path style="fill:#1D2549;" d="M85.471,120.647c2.13-3.241-0.185-7.307-0.185-7.307s-2.114,1.944-1.745,3.414
			C83.911,118.225,85.471,120.647,85.471,120.647z"/>
		<g>
			<g>
				<g>
					<g>
						<g>
							<g>
								<path style="fill:#467BD1;" d="M89.308,130.158c-0.124-0.566-4.321-1.267-5.929-1.368c-0.547-0.034-6.564-0.09-7.12-0.028
									c-4.771,0.539-7.388,1.188-8.607,4.088c0.426,6.252,0.377,9.782,0.683,20.202c0.109,3.713,1.648,13.088,1.648,13.088
									s6.287,0.891,11.533,0.268c5.246-0.623,7.521-2.806,7.521-2.806s-0.679-4.063-0.692-9.225
									c-0.014-5.162,2.095-11.046,1.956-16.422C90.163,132.581,89.308,130.158,89.308,130.158z"/>
							</g>
						</g>
					</g>
				</g>
			</g>
		</g>
		<g>
			<g>
				<g>
					<g>
						<g>
							<g>
								<g>
									<g>
										<g>
											<g>
												<path style="fill:#FF9376;" d="M83.378,129.172c-0.03,0.69-0.36,2.07-2.31,2.28c-3.58,0.38-4.81-2.69-4.81-2.69
													s0.97-1.16,0.61-3.55c-0.01-0.12-0.03-0.25-0.06-0.38c-0.1-0.53-0.29-1.11-0.56-1.73c-0.01-0.04-0.02-0.08-0.04-0.12
													c-0.03-0.08-0.07-0.16-0.1-0.24c0,0,0.23-0.01,0.6-0.03c0.09-0.01,0.2-0.01,0.31-0.02c1.07-0.05,2.87-0.08,4.09,0.15
													c0.83,0.17,1.38,0.46,1.32,0.94c-0.04,0.27-0.04,0.57-0.02,0.89c0.05,1.15,0.42,2.46,0.7,3.33
													c0.12,0.35,0.27,0.76,0.27,0.79C83.378,128.792,83.398,128.942,83.378,129.172z"/>
											</g>
										</g>
									</g>
								</g>
							</g>
						</g>
					</g>
				</g>
			</g>
		</g>
		<g>
			<g>
				<g>
					<g>
						<g>
							<g>
								<path style="fill:#E0604F;" d="M83.378,129.172c-2.46,0.34-4.92-1.61-6.51-3.96c-0.01-0.12-0.03-0.25-0.06-0.38
									c-0.1-0.53-0.29-1.11-0.56-1.73c-0.01-0.04-0.02-0.08-0.04-0.12l0.5-0.27c0.09-0.01,0.2-0.01,0.31-0.02
									c1.07-0.05,2.87-0.08,4.09,0.15c0.83,0.17,1.38,0.46,1.32,0.94c-0.04,0.27-0.04,0.57-0.02,0.89
									c0.05,1.15,0.42,2.46,0.7,3.33c0.12,0.35,0.27,0.76,0.27,0.79C83.378,128.792,83.398,128.942,83.378,129.172z"/>
							</g>
						</g>
					</g>
				</g>
			</g>
		</g>
		<g>
			<g>
				<g>
					<g>
						<g>
							<g>
								<g>
									<g>
										<g>
											<g>
												<g>
													<path style="fill:#FF9376;" d="M85.335,118.275c-1.033-3.585-3.621-6.556-7.765-4.478
														c-4.251,2.132-2.456,6.537-2.456,6.537l1.109,2.685c0,0,1.283,3.686,4.615,4.986c1.453,0.566,3.538,0.639,4.751-1.197
														c1.138-1.723,0.654-3.423,0.435-5.016C85.797,120.141,85.478,118.772,85.335,118.275z"/>
												</g>
											</g>
										</g>
									</g>
								</g>
							</g>
						</g>
					</g>
				</g>
			</g>
		</g>
		<path style="fill:#1D2549;" d="M74.782,122.017c-2.847-4.497-0.713-9.809,3.916-10.447c4.747-0.654,6.589,1.77,6.589,1.77
			s1.433,5.693-4.287,6.809c-1.611,0.314-3.764,0.519-3.927,2.152l-0.118,1.185L74.782,122.017z"/>
		<path style="fill:#1D2549;" d="M75.064,122.708c0,0-3.379-3.843-2.271-6.131c0.967-1.999,4.703-0.015,4.703-0.015L75.064,122.708z
			"/>
		<g>
			<path style="fill:#FF9376;" d="M77.231,122.43c0,0-0.998-1.172-1.937-0.59c-1.185,0.734,0.273,3.839,1.734,2.829
				C77.706,124.2,77.231,122.43,77.231,122.43z"/>
			<g>
				<path style="fill:#E0604F;" d="M76.101,124.191c-0.058,0.006-0.119,0.006-0.183-0.001c-0.033-0.004-0.056-0.034-0.053-0.066
					c0.004-0.033,0.034-0.06,0.066-0.053c0.238,0.027,0.436-0.058,0.553-0.24c0.146-0.227,0.142-0.554-0.011-0.815
					c-0.102-0.174-0.358-0.46-0.927-0.424c-0.033,0.003-0.061-0.022-0.064-0.055c-0.002-0.033,0.021-0.06,0.053-0.063
					c0.001,0,0.002,0,0.002,0c0.463-0.029,0.842,0.146,1.039,0.482c0.175,0.298,0.177,0.675,0.007,0.939
					C76.474,124.067,76.306,124.169,76.101,124.191z"/>
			</g>
			<g>
				<path style="fill:#E0604F;" d="M75.828,123.58c-0.019,0.002-0.039-0.005-0.052-0.021c-0.021-0.026-0.017-0.063,0.008-0.084
					c0.339-0.276,0.858-0.155,0.88-0.151c0.032,0.007,0.051,0.04,0.044,0.072c-0.007,0.032-0.041,0.049-0.072,0.044
					c-0.003-0.002-0.486-0.111-0.775,0.127C75.85,123.575,75.839,123.579,75.828,123.58z"/>
			</g>
		</g>
		<path style="fill:#1D2549;" d="M81.131,120.88c0.664-0.446,1.636-0.507,1.636-0.507s0.206,0.294-0.023,0.467
			c-0.229,0.174-0.98,0.032-1.94,0.655C80.804,121.495,80.556,121.267,81.131,120.88z"/>
		<path style="fill:#1D2549;" d="M85.792,120.068c-0.644-0.205-1.396,0.052-1.396,0.052s-0.061,0.343,0.168,0.432
			c0.229,0.089,0.749-0.287,1.673-0.012C86.237,120.54,86.35,120.246,85.792,120.068z"/>
		<path style="fill:#3E3C6B;" d="M84.167,114.655c0.021,0.871-0.163,1.788-0.709,2.525c-0.549,0.73-1.393,1.189-2.256,1.41
			c-0.875,0.251-1.787,0.116-2.58,0.391c-0.799,0.258-1.498,0.88-1.803,1.705c0.196-0.86,0.873-1.603,1.725-1.921
			c0.417-0.183,0.884-0.216,1.317-0.257c0.43-0.026,0.854-0.1,1.267-0.206c0.831-0.19,1.603-0.616,2.15-1.262
			C83.816,116.382,84.079,115.524,84.167,114.655z"/>
		<path style="fill:#3E3C6B;" d="M82.213,115.21c-0.056,0.303-0.164,0.616-0.367,0.869c-0.196,0.256-0.454,0.46-0.728,0.628
			c-0.569,0.292-1.206,0.448-1.83,0.367c0.302-0.073,0.592-0.167,0.875-0.265c0.281-0.103,0.558-0.211,0.81-0.362
			c0.262-0.133,0.488-0.318,0.701-0.518C81.886,115.726,82.053,115.479,82.213,115.21z"/>
		<path style="fill:#3E3C6B;" d="M74.06,118.361c-0.131-0.184-0.245-0.39-0.297-0.618c-0.068-0.225-0.059-0.465-0.042-0.7
			c0.082-0.463,0.326-0.916,0.735-1.142c-0.12,0.192-0.21,0.391-0.286,0.586c-0.072,0.197-0.14,0.394-0.155,0.6
			C73.94,117.495,74.002,117.909,74.06,118.361z"/>
		<path style="fill:#3E3C6B;" d="M80.332,112.241c-0.778,0.106-1.467,0.057-2.168,0.374c0.104-0.168,0.264-0.304,0.446-0.394
			c0.181-0.092,0.38-0.129,0.574-0.165C79.578,112.029,79.976,112.058,80.332,112.241z"/>
		<path style="fill:#1D2549;" d="M82.565,122.266c0.071,0.312-0.008,0.595-0.176,0.633c-0.168,0.038-0.361-0.183-0.432-0.495
			c-0.071-0.311,0.008-0.595,0.176-0.633C82.301,121.732,82.494,121.954,82.565,122.266z"/>
		<path style="fill:#1D2549;" d="M85.577,121.799c0.071,0.312-0.008,0.595-0.176,0.633c-0.168,0.038-0.361-0.183-0.432-0.495
			c-0.071-0.311,0.008-0.595,0.176-0.633C85.313,121.265,85.506,121.487,85.577,121.799z"/>
		<g>
			<path style="fill:#E0604F;" d="M83.99,124.909l-0.012-0.296c0.287-0.011,0.797-0.092,0.944-0.263
				c0.027-0.031,0.037-0.059,0.034-0.095c-0.022-0.2-0.097-0.37-0.211-0.627c-0.132-0.299-0.313-0.71-0.496-1.38l0.287-0.079
				c0.176,0.65,0.351,1.048,0.48,1.338c0.121,0.274,0.208,0.47,0.235,0.715c0.013,0.118-0.023,0.229-0.103,0.321
				C84.867,124.866,84.079,124.906,83.99,124.909z"/>
		</g>
		<g>
			<g>
				<path style="fill:#1D2549;" d="M83.607,127.251c-0.102,0.035-0.212,0.053-0.332,0.054c-0.63,0.025-0.975-0.236-1.132-0.526
					c-0.166-0.281-0.144-0.589-0.051-0.657c0.051-0.042,0.118-0.068,0.195-0.069c0.4-0.039,1.069,0.293,1.825,0.05
					c0.017-0.009,0.034-0.009,0.051-0.009l0-0.008C84.698,125.971,84.524,127.014,83.607,127.251z"/>
				<path style="fill:#E83636;" d="M83.607,127.251c-0.102,0.035-0.212,0.053-0.332,0.054c-0.63,0.025-0.975-0.236-1.132-0.526
					C83.013,126.768,83.443,127.087,83.607,127.251z"/>
				<path style="fill:#FFFFFF;" d="M82.187,126.071c0.272-0.128,2.051-0.067,2.142,0.023c0,0-0.079,0.292-0.947,0.333
					C82.503,126.467,82.187,126.071,82.187,126.071z"/>
			</g>
		</g>
		<path style="fill:#E2A437;" d="M92.534,168.834c-2.226,1.451,4.174,11.07,6.412,9.43
			C101.184,176.624,95.315,167.021,92.534,168.834z"/>
		<g>
			<path style="fill:#1D2549;" d="M219.921,209.415l-25.714,14.478c-0.934,0.526-2.118,0.195-2.644-0.739l-4.622-8.21l29.097-16.383
				l4.622,8.21C221.186,207.705,220.855,208.889,219.921,209.415z"/>
			<path style="fill:#3165AF;" d="M220.308,198.22l-35.923,20.226c-0.578,0.326-1.311,0.121-1.636-0.457l-5.585-9.92l38.017-21.404
				l5.585,9.92C221.091,197.163,220.886,197.895,220.308,198.22z"/>
			<polygon style="fill:#E2A437;" points="212.424,176.204 169.7,200.259 139.444,167.328 199.958,133.257 			"/>
			<path style="fill:#467BD1;" d="M217.936,186.977l-41.876,23.578c-0.505,0.284-1.145,0.105-1.429-0.4l-6.878-12.217l43.705-24.607
				l6.878,12.217C218.62,186.053,218.441,186.693,217.936,186.977z"/>
			
				<ellipse transform="matrix(0.3334 -0.9428 0.9428 0.3334 -5.82 212.1552)" style="fill:#FFC44D;" cx="147.124" cy="110.193" rx="61.409" ry="61.409"/>
			<g>
				<circle style="fill:#3D4B87;" cx="146.963" cy="109.939" r="24.254"/>
				<path style="fill:#3D4B87;" d="M167.056,133.352l-10.461,5.89c-0.195,0.109-0.441,0.041-0.551-0.154l-28.999-51.506
					c-0.109-0.195-0.041-0.441,0.154-0.551l10.461-5.89c0.195-0.11,0.441-0.041,0.551,0.154l28.999,51.505
					C167.32,132.995,167.251,133.242,167.056,133.352z"/>
				<path style="fill:#3D4B87;" d="M123.968,130.12l-5.89-10.461c-0.11-0.195-0.041-0.441,0.154-0.551l51.505-28.999
					c0.195-0.11,0.441-0.041,0.551,0.154l5.89,10.461c0.11,0.195,0.041,0.441-0.154,0.551l-51.505,28.999
					C124.324,130.383,124.077,130.314,123.968,130.12z"/>
				<path style="fill:#3D4B87;" d="M144.843,140.659l-11.561-3.232c-0.215-0.06-0.341-0.283-0.281-0.498l15.914-56.925
					c0.06-0.215,0.283-0.341,0.498-0.281l11.561,3.232c0.215,0.06,0.341,0.283,0.281,0.498l-15.914,56.925
					C145.281,140.594,145.058,140.72,144.843,140.659z"/>
				<path style="fill:#3D4B87;" d="M116.66,107.906l3.232-11.561c0.06-0.215,0.283-0.341,0.498-0.281l56.925,15.915
					c0.215,0.06,0.341,0.283,0.281,0.498l-3.232,11.561c-0.06,0.215-0.283,0.341-0.498,0.281l-56.925-15.914
					C116.725,108.344,116.6,108.121,116.66,107.906z"/>
				<path style="fill:#FFC44D;" d="M155.245,105.276c2.575,4.574,0.955,10.37-3.619,12.945c-4.574,2.575-10.37,0.955-12.946-3.619
					c-2.575-4.574-0.955-10.37,3.619-12.946C146.874,99.081,152.67,100.701,155.245,105.276z"/>
			</g>
			<g>
				<path style="fill:#FFFFFF;" d="M103.745,134.771c-0.174,0-0.344-0.092-0.436-0.255c-4.177-7.419-6.385-15.813-6.385-24.277
					c0-17.901,9.68-34.472,25.262-43.244c0.235-0.136,0.544-0.052,0.681,0.19c0.136,0.24,0.051,0.545-0.19,0.681
					c-15.268,8.597-24.752,24.833-24.752,42.373c0,8.292,2.163,16.518,6.256,23.787c0.136,0.24,0.051,0.545-0.19,0.681
					C103.913,134.75,103.829,134.771,103.745,134.771z"/>
			</g>
		</g>
		<path style="fill:#FF9376;" d="M102.178,146.152c0,0,1.395-1.331,1.794-1.931s1.863-1.764,1.863-1.764s0.548,0.198,0.233,0.781
			c-0.317,0.588-0.765,1.695-0.765,1.695s3.759-1.164,4.097-1.034c0.3,0.115,0.267,0.394,0.267,0.394l-2.508,1.293
			c0,0,2.528-0.609,2.99-0.53c0.487,0.083,0.347,0.492,0.347,0.492l-2.733,1.162c0,0,2.239-0.439,2.714-0.289
			c0.317,0.101,0.277,0.41,0.277,0.41l-2.692,1.023c0,0,1.886-0.264,2.257-0.084c0.249,0.121,0.164,0.375,0.164,0.375
			s-2.418,0.703-3.749,1.033c-1.331,0.33-3.219,0.208-3.219,0.208C102.804,148.586,102.196,147.28,102.178,146.152z"/>
		<path style="fill:#3165AF;" d="M68.782,131.047c-6.789,6.433,8.506,26.499,16.215,26.514c6.643,0.013,18.713-8.073,18.713-8.073
			c-0.275-1.316-0.773-2.503-1.532-3.539l-15.675,4.041C86.503,149.989,73.705,126.381,68.782,131.047z"/>
		<g>
			<path style="fill:#E2A437;" d="M85.829,180.227h-0.25c0.002-0.562,0.031-5.499,0.425-6.104c0.378-0.581,2.328-4.141,2.348-4.176
				l0.219,0.119c-0.08,0.147-1.975,3.604-2.357,4.193C85.946,174.671,85.837,178.054,85.829,180.227z"/>
		</g>
	</g>
	<g>
		<g>
			<path style="fill:#3D4B87;" d="M489.986,219.781c-5.581,0-12.108-1.395-19.717-4.833c-5.833-2.638-6.133-8.26-6.398-13.22
				c-0.158-2.962-0.308-5.761-1.676-7.359l0.76-0.65c1.589,1.857,1.747,4.82,1.914,7.957c0.262,4.903,0.532,9.974,5.811,12.36
				c18.304,8.273,32.523,5.892,42.268-7.074c6.91-9.191,9.175-19.224,11.173-28.074c1.979-8.767,3.85-17.048,9.899-22.666
				c11.968-11.115,36.202-10.099,37.223-10.046l-0.047,0.998c-0.247-0.011-24.837-1.046-36.496,9.78
				c-5.822,5.408-7.574,13.168-9.604,22.154c-2.021,8.948-4.311,19.091-11.35,28.455
				C509.078,213.775,501.568,219.781,489.986,219.781z"/>
		</g>
		<g>
			<path style="fill:#D7EBFF;" d="M507.114,249.531c0,1.18-10.148,2.137-22.666,2.137c-12.518,0-22.666-0.957-22.666-2.137
				s10.148-2.137,22.666-2.137C496.966,247.394,507.114,248.351,507.114,249.531z"/>
			<g>
				<g>
					<g>
						<path style="fill:#3D4B87;" d="M481.702,248.332c0.073,0.813-0.124,1.497-0.219,1.648c-0.095,0.15-2.534,0.455-6.484,0.303
							c-3.95-0.152-4.907-0.664-5.012-0.922c-0.105-0.258-0.057-2.186,0.253-2.249c0.31-0.063,0.808,1.447,1.483,1.537
							s7.558,0.608,8.564,0.393C481.294,248.825,481.702,248.332,481.702,248.332z"/>
						<path style="fill:#3D4B87;" d="M506.226,247.577c0.18,0.796,0.074,1.501,0,1.662c-0.074,0.162-2.452,0.785-6.388,1.154
							c-3.936,0.369-4.952-0.012-5.09-0.254c-0.139-0.242-0.345-2.16-0.046-2.263c0.299-0.103,0.992,1.328,1.673,1.328
							s7.572-0.393,8.542-0.739C505.886,248.12,506.226,247.577,506.226,247.577z"/>
						<path style="fill:#1D2549;" d="M505.436,248.374c0,0-10.454,2.224-10.662,0.506c0,0-0.115-1.227-0.115-2.409
							c0-0.459,0.023-0.883,0.034-1.342c0.011-0.654,3.556-0.975,3.556-0.975s0.284,0.597,2.73,0.998
							C505.34,245.866,507.502,247.704,505.436,248.374z"/>
						<path style="fill:#1D2549;" d="M480.814,249.018c0,0-10.656,0.599-10.636-1.131c0,0-0.136-0.777,0.204-2.174
							c0.108-0.446,0.139-0.873,0.211-1.326c0.098-0.647,0.144-1.346-0.015-2.235c-0.024-0.084-0.036-0.167-0.058-0.262l3.98-0.339
							l-0.063,0.559l-0.19,1.78c0,0,0.202,0.63,2.575,1.349C481.049,246.519,482.95,248.626,480.814,249.018z"/>
						<path style="fill:#FF9376;" d="M474.27,243.706l-0.024,0.182c0,0-0.612,2.083-1.471,1.841
							c-0.758-0.216-1.285-1.478-2.182-1.343c0.042-0.318,0.064-0.651,0.044-1.024c-0.018-0.384-0.068-0.796-0.147-1.246
							l0.001-0.011l3.945,0.003l-0.008,0.057L474.27,243.706z"/>
						<path style="fill:#FF9376;" d="M478.34,151.936c0.697-3.919,0.732-7.523,0.732-7.523l6.336-0.123c0,0-0.561,4.459,0.522,6.631
							C487.013,153.093,478.34,151.936,478.34,151.936z"/>
						<path style="fill:#FF9376;" d="M479.737,146.085c-1.526-5.015-6.862-8.272-1.327-11.75c5.535-3.479,7.72,1.108,9.053,4.224
							c0.459,1.072,0.461,2.981,0.516,3.98c0.105,1.904-0.951,3.479-1.717,4.205C485.095,147.849,479.737,146.085,479.737,146.085z"
							/>
						<path style="fill:#1D2549;" d="M474.776,135.981c-0.74,1.882,3.538,9.329,4.651,10.159c1.393,1.038,4.425,0.144,5.14-3.823
							c0.351-1.948-0.561-3.061-0.753-3.329c-0.78-1.093,1.374-0.508,1.86-0.281c0.486,0.227,1.768-1.853,0.17-5.175
							C483.726,129.127,476.348,131.982,474.776,135.981z"/>
						<path style="fill:#FF9376;" d="M498.25,243.97v0.184c0,0-0.333,2.145-1.216,2.019c-0.78-0.115-1.468-1.296-2.34-1.044
							c0-0.321-0.023-0.654-0.092-1.021c-0.069-0.379-0.172-0.78-0.31-1.216v-0.011l3.912-0.516v0.057L498.25,243.97z"/>
						<path style="fill:#FFC44D;" d="M469.936,242.67c0,0,3.464,0.5,4.908,0.123c1.256-6.384,5.561-21.572,6.587-24.178
							c2.554-6.467,5.267-19.223,5.267-19.432c0,0.01-0.01,0.01-0.01,0.021c-2.679-1.748-11.041-9.367-13.574-11.031
							c0,0-0.565,2.585-0.931,5.222c-0.272,1.978-0.429,4.594-0.136,7.65c-0.021,0.67-0.052,1.392-0.094,2.156
							c-0.293,5.568-0.325,12.904-0.325,12.904C469.199,224.226,469.873,236.788,469.936,242.67z"/>
						<g>
							<g>
								<g>
									<g>
										<g>
											<g>
												<path style="fill:#FFC44D;" d="M473.11,188.174c-1.058,4.99,3.161,9.245,7.16,16.253
													c3.485,6.107,7.919,14.003,7.919,14.003c1.554,12.066,5.793,24.828,5.793,24.828c0.936,0.156,3.74-0.15,4.698-0.785
													c0,0-1.06-18.966-1.073-24.136c-0.013-4.85-1.047-17.637-2.966-25.619c-0.472-1.963-0.441-4.323-0.734-6.227
													C492.829,179.498,473.11,188.174,473.11,188.174z"/>
											</g>
										</g>
									</g>
								</g>
							</g>
						</g>
						<path style="fill:#467BD1;" d="M494.202,189.533c-17.863,3.227-21.257-0.551-21.257-0.551
							c0.046-24.222-3.649-22.913-0.994-37.25c0.154-0.831,5.342-3.033,9.746-2.919c8.865,0.231,12.584,3.431,12.584,3.431
							S496.389,175.133,494.202,189.533z"/>
						<path style="fill:#1D2549;" d="M474.738,136.574c-0.382-6.153,10.23-7.363,10.983-7.053c0.787,0.324-0.199,1.582-0.199,1.582
							s1.392-0.411,1.699,0.088c0.228,0.369-0.664,1.195-0.664,1.195s1.361-0.111,0.471,1.432c-0.411,0.714,0.117,2.645-0.126,3.759
							c-0.244,1.114-2.565,2.939-2.565,2.939L474.738,136.574z"/>
						<path style="fill:#FF9376;" d="M486.294,138.795c0,0-1.375-1.227-2.164-0.461c-0.698,0.678,0.009,2.087,0.325,2.438
							c0.504,0.561,1.002,0.796,1.58,0.556C486.788,141.017,486.294,138.795,486.294,138.795z"/>
						<g>
							<path style="fill:#E0604F;" d="M485.016,140.37c0.016,0,0.033-0.009,0.042-0.024c0.012-0.024,0.004-0.052-0.018-0.065
								c-0.614-0.34-0.74-0.825-0.592-1.154c0.135-0.3,0.527-0.509,1.098-0.312c0.026,0.009,0.051-0.004,0.06-0.03
								c0.009-0.025-0.004-0.051-0.03-0.06c-0.628-0.219-1.062,0.023-1.215,0.363c-0.16,0.357-0.031,0.908,0.632,1.276
								C485.001,140.368,485.008,140.37,485.016,140.37z"/>
						</g>
						<g>
							<path style="fill:#E0604F;" d="M484.564,140.005c0.02,0,0.04-0.014,0.046-0.035c0.001-0.004,0.108-0.378,0.367-0.471
								c0.132-0.045,0.293-0.01,0.468,0.11c0.022,0.016,0.051,0.01,0.066-0.011c0.015-0.023,0.01-0.052-0.011-0.066
								c-0.202-0.141-0.393-0.183-0.556-0.122c-0.306,0.109-0.421,0.517-0.426,0.535c-0.007,0.024,0.008,0.051,0.033,0.058
								C484.556,140.004,484.56,140.005,484.564,140.005z"/>
						</g>
						<g>
							<path style="fill:#E2A437;" d="M486.879,204.447c1.986,0,3.562-1.357,4.502-2.436c0.633-0.729,0.488-2.417,0.287-4.753
								c-0.089-1.034-0.19-2.208-0.227-3.423l-0.005-0.157l-0.154,0.034c-3.728,0.825-6.988,0.999-9.693,0.524l-0.158-0.028
								l0.005,0.16c0.009,0.294,0.238,7.226,1.798,8.547C484.549,204.029,485.777,204.447,486.879,204.447z"/>
						</g>
						<g>
							<path style="fill:#E2A437;" d="M471.953,203.331c1.204-0.007,2.517-0.478,3.799-1.362c0.792-0.543,1.073-2.205,1.462-4.507
								c0.174-1.029,0.371-2.196,0.643-3.39l0.035-0.154l-0.158-0.005c-1.995-0.07-3.853-0.287-5.523-0.646
								c0,0-0.505,3.248-0.474,5.525C471.766,201.07,471.953,203.331,471.953,203.331z"/>
						</g>
						<g>
							<path style="fill:#3E3C6B;" d="M479.15,137.447c0.101-0.006,2.489-0.177,4.786-3.238l-0.209-0.157
								c-2.22,2.957-4.569,3.132-4.593,3.133L479.15,137.447z"/>
						</g>
						<g>
							<path style="fill:#3E3C6B;" d="M482.567,139.371c0.002-0.014,0.234-1.474,1.223-1.99l-0.121-0.231
								c-1.108,0.577-1.352,2.117-1.362,2.182L482.567,139.371z"/>
						</g>
						<g>
							<path style="fill:#3E3C6B;" d="M481.569,145.775c0.054-0.044,1.306-1.081,1.306-3.288h-0.262
								c0,2.076-1.197,3.074-1.209,3.085L481.569,145.775z"/>
						</g>
						<g>
							<path style="fill:#3E3C6B;" d="M475.502,136.676l0.262-0.012c0-0.008-0.014-0.965,1.407-2.919l-0.213-0.153
								C475.472,135.637,475.5,136.634,475.502,136.676z"/>
						</g>
						<g>
							<path style="fill:#3E3C6B;" d="M479.263,134.181c0.006-0.014,0.705-1.545,5.125-3.112l-0.088-0.247
								c-4.558,1.617-5.252,3.193-5.279,3.259L479.263,134.181z"/>
						</g>
						<g>
							<path style="fill:#FF9376;" d="M461.797,190.675c0,0,1.082,1.463,1.238,2.158c0.221,0.984-0.505,1.243-0.505,1.243
								c0.025,0.874-0.01,1.586-0.898,1.56c-0.202-0.006-0.805,0.108-1.23,0.083c-0.352-0.02-0.369-0.42-0.916-0.255
								c-0.397,0.119-0.759-0.306-0.988-0.965c-0.287-0.829-0.222-3.253,0.783-3.711
								C460.285,190.33,461.797,190.675,461.797,190.675z"/>
							<g>
								<path style="fill:#E0604F;" d="M461.173,195.394c-0.023,0-0.044-0.014-0.053-0.037c-0.004-0.011-0.1-0.275-0.113-0.683
									c-0.018-0.553,0.093-1.839,0.094-1.852l0.003-0.038l0.037-0.011c0.01-0.001,0.262-0.078,0.517,0.05
									c0.029,0.013,0.04,0.047,0.026,0.075c-0.013,0.029-0.051,0.039-0.075,0.026c-0.165-0.082-0.327-0.064-0.4-0.051
									c-0.018,0.223-0.106,1.307-0.09,1.798c0.013,0.388,0.106,0.645,0.107,0.648c0.01,0.029-0.004,0.061-0.034,0.073
									C461.187,195.393,461.179,195.394,461.173,195.394z"/>
							</g>
							<g>
								<path style="fill:#E0604F;" d="M460.204,195.252c-0.028,0-0.051-0.019-0.055-0.047c-0.245-1.51,0.136-2.606,0.14-2.616
									l0.012-0.034l0.035-0.004c0.03-0.003,0.728-0.075,0.868,0.389c0.009,0.03-0.008,0.061-0.038,0.07
									c-0.03,0.004-0.062-0.008-0.071-0.038c-0.098-0.325-0.576-0.319-0.711-0.313c-0.061,0.194-0.34,1.195-0.125,2.526
									c0.005,0.031-0.015,0.059-0.046,0.064C460.211,195.252,460.207,195.252,460.204,195.252z"/>
							</g>
							<g>
								<path style="fill:#E0604F;" d="M459.412,195.191c-0.027,0-0.05-0.018-0.055-0.046c-0.293-1.517,0.068-2.648,0.073-2.659
									l0.008-0.025l0.023-0.01c0.012-0.005,0.334-0.135,0.584,0.005c0.144,0.081,0.234,0.231,0.269,0.446
									c0.005,0.031-0.015,0.06-0.046,0.064c-0.028,0.013-0.059-0.015-0.064-0.046c-0.03-0.18-0.101-0.303-0.214-0.365
									c-0.167-0.095-0.388-0.033-0.461-0.009c-0.051,0.175-0.325,1.216-0.061,2.578c0.006,0.03-0.014,0.059-0.045,0.065
									C459.42,195.191,459.415,195.191,459.412,195.191z"/>
							</g>
							<g>
								<path style="fill:#E0604F;" d="M461.647,194.771l-0.03-0.013c-0.012-0.006-0.301-0.143-0.282-0.595
									c0.013-0.331,0.272-1.008,0.342-1.186c-0.139-0.098-0.6-0.469-0.875-1.256c-0.01-0.03,0.005-0.061,0.035-0.072
									c0.029-0.01,0.061,0.005,0.072,0.035c0.306,0.874,0.862,1.22,0.868,1.223l0.041,0.025l-0.018,0.045
									c-0.003,0.008-0.338,0.834-0.352,1.19c-0.012,0.3,0.13,0.43,0.19,0.472l0.859-0.609c0.027-0.018,0.06-0.012,0.079,0.013
									c0.018,0.026,0.012,0.06-0.013,0.079L461.647,194.771z"/>
							</g>
							<polygon style="fill:#FF9376;" points="458.938,191.27 459.087,189.673 462.07,190.271 461.993,191.415 							"/>
						</g>
						<g>
							<path style="fill:#E0604F;" d="M458.54,194.389c-0.029,0-0.054-0.023-0.056-0.052c-0.023-0.292,0.172-1.736,0.18-1.798
								l0.003-0.02l0.014-0.013c0.005-0.004,0.404-0.37,0.836-0.048c0.025,0.018,0.03,0.053,0.011,0.079
								c-0.019,0.025-0.052,0.032-0.079,0.011c-0.321-0.237-0.609-0.028-0.677,0.028c-0.025,0.182-0.198,1.491-0.177,1.754
								c0.002,0.031-0.02,0.057-0.052,0.06C458.543,194.389,458.541,194.389,458.54,194.389z"/>
						</g>
						<g>
							<path style="fill:#E2A437;" d="M483.793,210.898c-1.275-2.288-3.424-5.74-4.125-5.867c-1.018-0.184-3.257-1.122-3.352-1.162
								l0.102-0.241c0.022,0.009,2.307,0.967,3.297,1.146c1.046,0.191,3.976,5.404,4.307,5.998L483.793,210.898z"/>
						</g>
						<path style="fill:#467BD1;" d="M472.303,151.31c0,0-12.104,10.023-14.289,21.196c-1.294,6.615,0.624,17.606,0.624,17.606
							c1.201,0.442,2.398,0.488,3.592,0.175c0,0,1.878-15.935,1.878-16.673c0-0.739,8.92-6.105,11.29-11.461
							C477.768,156.797,472.303,151.31,472.303,151.31z"/>
						<g>
							<path style="fill:#3165AF;" d="M471.438,167.399c-0.017-0.052-1.699-5.366-0.577-12.152l0.258,0.043
								c-1.11,6.72,0.552,11.976,0.569,12.029L471.438,167.399z"/>
						</g>
					</g>
					<path style="fill:#FF9376;" d="M535.591,159.87c-1.108,0.292-4.126,0.229-4.126,0.229l-0.75-3.062c0,0,2.597-2.191,3.357-2.215
						c0.76-0.024,1.176,1.005,1.176,1.005s1.431-0.092,1.518,0.321C537.155,157.975,535.591,159.87,535.591,159.87z"/>
				</g>
				<path style="fill:#467BD1;" d="M492.402,151.104c9.069,2.533,19.76,6.924,20.958,6.924c1.198,0,17.356-0.991,17.356-0.991
					l0.951,3.728c0,0-16.682,3.679-18.991,3.679c-2.31,0-17.794,1.112-19.676-1.454
					C491.117,160.423,492.402,151.104,492.402,151.104z"/>
			</g>
			<g>
				<path style="fill:#3165AF;" d="M494.978,164.122c-0.066-0.017-6.692-1.679-6.279-9.308l0.25,0.014
					c-0.401,7.417,6.022,9.035,6.088,9.05L494.978,164.122z"/>
			</g>
		</g>
	</g>
	<g>
		<g>
			<path style="fill:#3D4B87;" d="M447.65,222.497c-1.566,0-2.931-0.571-4.055-1.697c-4.695-4.704-4.668-18.681-4.641-32.196
				c0.023-12.086,0.048-24.584-3.577-28.095c-0.703-0.682-1.509-1.002-2.474-0.963l-0.033-1c1.235-0.044,2.307,0.377,3.203,1.244
				c3.93,3.807,3.905,15.954,3.881,28.815c-0.026,13.313-0.054,27.077,4.349,31.487c0.942,0.945,2.037,1.404,3.347,1.404
				c1.179,0,2.2-0.466,3.123-1.423c5.128-5.32,4.532-23.222,4.525-23.401c0-1.568,0.398-2.724,1.184-3.452
				c0.907-0.841,1.988-0.766,2.037-0.766l-0.076,0.998c-0.023-0.008-0.713-0.034-1.294,0.513c-0.565,0.533-0.852,1.438-0.852,2.688
				c0.027,0.734,0.617,18.488-4.806,24.114C450.387,221.915,449.094,222.497,447.65,222.497z"/>
		</g>
		<g>
			<path style="fill:#D7EBFF;" d="M409.489,224.282c0,1.18-8.797,2.137-19.649,2.137c-10.852,0-19.649-0.957-19.649-2.137
				c0-1.18,8.797-2.137,19.649-2.137C400.692,222.145,409.489,223.102,409.489,224.282z"/>
			<path style="fill:#F95555;" d="M389.901,122.93c-3.261,2.099-11.102,17.429-11.102,17.429c-3.536-1.804-6.17-1.843-11.579-3.946
				l-2.176,4.828c0,0,14.55,7.861,16.463,7.178c2.854-1.019,9.304-9.01,10.345-13.741
				C392.892,129.947,389.901,122.93,389.901,122.93z"/>
			<path style="fill:#FF9376;" d="M365.823,136.245c0,0-0.673-0.759-1.6-1.524c-0.927-0.765-1.474,0.256-1.474,0.256
				s-1.541,0.012-2.008-0.312c-0.467-0.324-1.917-1.046-2.268-1.055c-0.352-0.009-0.399,0.331-0.399,0.331l2.418,1.675
				c0,0-2.948-1.197-3.184-1.073c-0.237,0.124-0.243,0.423-0.243,0.423l3.015,1.623c0,0-2.692-0.6-2.912-0.528
				c-0.22,0.072-0.145,0.511-0.145,0.511l2.938,0.912c0,0-2.044-0.171-2.24-0.087c-0.196,0.084-0.121,0.439-0.121,0.439
				s2.618,0.654,3.428,0.785c0.81,0.131,2.758,0.75,3.737,0.287C365.742,138.444,365.823,136.245,365.823,136.245z"/>
			<path style="fill:#1D2549;" d="M388.115,222.446c-0.02,1.218-0.147,1.352-0.212,1.538c-0.169,0.479-12.539,0.304-12.511,0
				c0,0-0.595-0.937,0.132-1.531C376.25,221.859,388.115,222.446,388.115,222.446z"/>
			<path style="fill:#FF9376;" d="M404.64,214.512c-0.52,1.987-0.426,3.406-0.449,3.927c-0.024,0.52-3.674,0.773-3.863,0
				c-0.189-0.773,0.252-2.728,0-4.62C400.074,211.926,404.64,214.512,404.64,214.512z"/>
			<path style="fill:#FF9376;" d="M387.999,214.068c-0.52,1.987-0.426,3.406-0.449,3.926c-0.024,0.52-4.238,0.394-4.238-0.079
				c0-0.796,0.51-2.741,0.534-4.573C383.871,211.434,387.999,214.068,387.999,214.068z"/>
			<path style="fill:#1D2549;" d="M382.624,216.282c1.519,0.781,4.1,0.883,6.062,0.35c0,0,3.332-13.036,4.543-19.512
				c0.633-3.41,1.04-8.074,1.04-8.074l3.099-13.872c0,0,0.98,11.888,1.233,15.705c0.351,5.294,1.108,25.149,1.108,25.149
				c1.798,0.613,3.842,0.97,5.498,0.238c0,0,2.594-11.629,2.637-18.535c0.043-6.906,0.375-9.018,0.375-9.018
				s2.937-21.53,2.927-23.833c-0.01-2.274-0.118-5.572-0.343-6.945c-0.289-1.823-0.654-2.799-0.654-2.799l-21.671-0.997
				c0,0-0.418,2.269-0.804,4.146c-0.214,1.008-0.117,1.362-0.224,3.046c-0.065,0.89-1.135,1.325-0.387,3.946
				c0,0-1.747,16.423-2.057,25.031C384.826,195.318,382.624,216.282,382.624,216.282z"/>
			<path style="fill:#1D2549;" d="M398.154,222.299c-0.214,1.162,0.304,1.977,0.304,1.977s0.71,0.695,3.034,0.605
				c2.199-0.085,2.782-0.565,2.91-0.841c0.054-0.115,0.111-0.619,0.101-0.902c-0.022-0.68-0.171-0.427-0.171-0.427L398.154,222.299z
				"/>
			<path style="fill:#3D4B87;" d="M404.503,223.137c0.533-0.981-0.306-5.274-0.306-5.274c-1.299-1.075-2.562-1.197-3.91,0.201
				c-1.271,3.679-2.223,2.48-2.202,4.563c0,0,0.125,0.856,2.245,1.07C402.974,223.964,404.503,223.137,404.503,223.137z"/>
			<path style="fill:#3D4B87;" d="M388.115,222.446c0.391-2.422-0.064-4.932-0.714-4.932c-0.649,0-1.159,0.739-2.214,0.64
				c-1.054-0.099-1.227-0.618-1.736-0.794c-0.509-0.176-1.274,1.299-2.38,1.769c-6.018,2.554-5.658,3.428-5.658,3.428
				s2.458,0.272,6.715,0.315C386.385,222.916,388.115,222.446,388.115,222.446z"/>
			<g>
				<path style="fill:#F95555;" d="M387.195,160.001c-0.237-1.561,1.788-19.737,1.553-24.164
					c-0.61-11.598-0.646-11.569,1.838-13.436c5.224-3.927,13.785-3.853,20.371-0.387c3.77,1.984,0.605,14.621,1.158,22.994
					c-0.17,3.879,0.146,12.141-0.552,15.203c-0.568,2.492-13.063,3.154-13.063,3.154l-1.775-6.989l-2.694,6.861
					C394.029,163.236,387.92,161.436,387.195,160.001z"/>
			</g>
			<g>
				<path style="fill:#2E3768;" d="M397.236,175.202l0.262-0.061c-1.317-5.698-3.979-8.849-4.007-8.879l-0.203,0.174
					C393.315,166.468,395.936,169.574,397.236,175.202z"/>
			</g>
			<path style="fill:#FFFFFF;" d="M397.739,139.014l7.733-19.648c0,0-0.308-1.126-1.668-0.787l-6.416,0.231
				c-0.591-0.001-1.38,0.954-1.38,0.954L397.739,139.014z"/>
			<g>
				<path style="fill:#FF9376;" d="M404.468,119.292c0,0-0.02,0.02-0.07,0.07c-4.04,3.74-6.71,1.68-7.15,0.07
					c-0.01-0.05-0.02-0.09-0.03-0.14c0.03-0.14,0.05-0.27,0.07-0.4c0.04-0.28,0.08-0.55,0.1-0.84c0.01-0.07,0.02-0.14,0.02-0.22
					c0.01-0.06,0.02-0.13,0.02-0.19c0.03-0.27,0.05-0.55,0.06-0.84c0.18-0.49,3.62-1.7,5.53-2.37c0.35-0.13,0.65-0.24,0.87-0.31
					c0.04-0.02,0.07-0.03,0.1-0.04c0.1-0.04,0.18-0.08,0.22-0.1c0.03-0.01,0.05-0.02,0.06-0.03c0,0.01,0,0.04-0.01,0.08
					c0,0.06,0,0.16-0.01,0.28c-0.01,0.16-0.03,0.37-0.04,0.62c-0.01,0.19-0.01,0.41-0.01,0.64
					C404.188,116.532,404.238,117.842,404.468,119.292z"/>
			</g>
			<path style="fill:#FFFFFF;" d="M396.723,156.375l1.054,4.151c0,0-0.614,0.296-1.377,0.252c-0.571-0.033-1.229-0.453-1.229-0.453
				L396.723,156.375z"/>
			<g>
				<path style="fill:#2E3768;" d="M410.194,171.239c-4.593,0-5.039-3.989-5.042-4.029l0.266-0.027
					c0.017,0.158,0.431,3.789,4.771,3.789c0.104,0,0.209-0.002,0.318-0.006l0.01,0.268
					C410.408,171.237,410.299,171.239,410.194,171.239z"/>
			</g>
			<polygon style="fill:#1D2549;" points="397.739,139.014 401.081,130.525 400.121,123.204 400.698,122.477 399.767,121.699 
				398.705,122.507 399.215,123.204 396.935,130.066 			"/>
			<g>
				<polygon style="fill:#D7EBFF;" points="396.494,124.361 396.331,124.147 398.623,122.4 398.787,122.614 				"/>
			</g>
			<g>
				
					<rect x="401.9" y="121.852" transform="matrix(0.6415 -0.7672 0.7672 0.6415 49.3302 352.7368)" style="fill:#D7EBFF;" width="0.268" height="3.482"/>
			</g>
			<path style="fill:#E83636;" d="M397.739,139.014c0,0,8.161-9.889,7.91-10.219c-0.163-0.214-1.185-1.514-1.185-1.514
				s4.377-4.276,4.535-4.907c-0.562-2.007-1.843-2.836-3.526-3.008L397.739,139.014z"/>
			<path style="fill:#E83636;" d="M397.739,139.014c0,0-4.508-10.227-4.359-10.708c0.079-0.257,1.75-1.293,1.75-1.293
				s-2.462-4.242-2.457-4.668c0.509-1.758,1.78-2.381,3.336-2.582L397.739,139.014z"/>
			<polygon style="fill:#FFFFFF;" points="365.865,135.924 363.94,139.683 365.419,140.407 367.22,136.413 			"/>
			<g>
				<path style="fill:#E83636;" d="M379.433,142.7c0-0.014-0.056-1.298-0.743-2.263l0.218-0.155
					c0.736,1.033,0.792,2.352,0.794,2.408L379.433,142.7z"/>
			</g>
			<g>
				<path style="fill:#E83636;" d="M388.67,141.333l-0.268-0.004c0.073-3.787-0.11-6.476-0.243-8.439
					c-0.115-1.699-0.199-2.927-0.067-3.978l0.266,0.033c-0.129,1.025-0.046,2.242,0.068,3.927
					C388.56,134.841,388.743,137.536,388.67,141.333z"/>
			</g>
			<g>
				<path style="fill:#E83636;" d="M396.589,156.378c-0.002-0.111-0.222-11.165,1.019-17.391l0.264,0.052
					c-1.236,6.197-1.017,17.222-1.015,17.332L396.589,156.378z"/>
			</g>
			<g>
				<path style="fill:#E83636;" d="M402.479,155.687l-0.251-4.478l7.485-0.345l0.372,4.286L402.479,155.687z M402.51,151.465
					l0.222,3.935l7.061-0.499l-0.326-3.756L402.51,151.465z"/>
			</g>
			<g>
				<polygon style="fill:#E83636;" points="391.601,154.905 387.458,153.968 387.517,153.707 391.377,154.58 391.917,150.837 
					387.819,150.334 387.852,150.068 392.221,150.605 392.202,150.74 				"/>
			</g>
			<path style="fill:#F95555;" d="M410.956,122.013c8.398,3.253,17.039,14.68,18.407,17.606c1.369,2.927,3.422,15.502,3.422,15.502
				l-5.002,1.021c0,0-3.981-12.741-4.494-13.853c-0.513-1.112-10.632-5.63-12.605-7.334
				C408.711,133.253,410.956,122.013,410.956,122.013z"/>
			<polygon style="fill:#FFFFFF;" points="427.784,156.143 428.155,157.581 432.785,156.715 432.395,155.202 			"/>
			<g>
				<path style="fill:#3D4B87;" d="M323.327,237.688c-2.135,0-4.377-0.041-6.728-0.112c-13.783-0.418-17.041-4.81-19.915-8.685
					c-2.521-3.397-4.697-6.331-13.438-6.439c-9.988-0.11-19.296,1.288-28.325,2.652c-8.444,1.275-17.178,2.596-26.583,2.719
					c-0.201,0.003-0.401,0.004-0.599,0.004c-19.15,0-21.493-10.573-21.517-10.698l0.859-0.483
					c0.098,0.479,2.369,10.181,20.641,10.181c0.2,0,0.4-0.001,0.603-0.004c9.338-0.122,18.036-1.436,26.447-2.708
					c9.069-1.37,18.448-2.771,28.486-2.663c9.237,0.114,11.662,3.383,14.23,6.844c2.873,3.872,5.844,7.877,19.143,8.28
					c15.394,0.466,26.065-0.331,31.646-5.746c3.271-3.174,4.795-7.878,4.795-14.803c0-4.328-0.513-10.681-1.105-18.036
					c-2.055-25.48-4.869-60.373,8.653-63.81c5.193-1.324,12.144,3.623,20.938,9.884c13.219,9.41,29.67,21.123,46.768,15.226
					l0.326,0.945c-17.587,6.065-34.269-5.813-47.674-15.356c-8.243-5.868-15.357-10.938-20.112-9.729
					c-12.704,3.229-9.815,39.054-7.902,62.76c0.595,7.378,1.108,13.749,1.108,18.117c0,7.214-1.62,12.146-5.099,15.521
					C344.013,236.357,335.411,237.688,323.327,237.688z"/>
			</g>
			<path style="fill:#FF9376;" d="M362.948,135.988c0,0-1.663-2.427-1.755-2.987c-0.066-0.405,0.223-0.463,0.223-0.463
				c1.776,1.227,3.385,2.424,4.19,3.474L362.948,135.988z"/>
			<g>
				<path style="fill:#E83636;" d="M412.338,136.17c-0.035-0.018-3.561-1.734-4.331-6.183l0.197-0.033
					c0.752,4.347,4.185,6.019,4.22,6.034L412.338,136.17z"/>
			</g>
			<path style="fill:#FF9376;" d="M432.785,156.715c1.198,3.08,0.841,4.239,0.759,4.416c-0.505,1.088-0.924,1.097-1.812,1.084
				c-0.438-0.007-1.027-0.126-1.304,0.13c-0.557,0.513-1.92-0.441-1.92-0.858c0-0.417-0.729-0.706-0.724-1.861
				c0.001-0.325,0.371-2.045,0.371-2.045L432.785,156.715z"/>
			<path style="fill:#E0604F;" d="M404.258,114.032c0,0.06,0,0.16-0.01,0.28c-0.01,0.16-0.03,0.37-0.04,0.62
				c-0.01,0.19-0.01,0.41-0.01,0.64c-1.07,1.45-3.45,3.92-6.95,3.86c-0.01-0.05-0.02-0.09-0.03-0.14c0.03-0.14,0.05-0.27,0.07-0.4
				c0.04-0.28,0.08-0.55,0.1-0.84c0.01-0.07,0.02-0.14,0.02-0.22l5.85-3.35l0.63-0.36l0.29-0.17L404.258,114.032z"/>
			<g>
				<path style="fill:#1D2549;" d="M398.569,104.99c-1.104-0.775-3.297-1.115-3.297-1.115s-1.603,5.704-0.247,6.353
					C396.747,111.054,398.569,104.99,398.569,104.99z"/>
				<g>
					<g>
						<g>
							<g>
								<g>
									<g>
										<g>
											<g>
												<g>
													<g>
														<g>
															<path style="fill:#FF9376;" d="M395.643,107.792c1.43-3.804,4.495-6.808,8.816-4.195
																c4.433,2.68,2.105,7.309,2.105,7.309l-1.435,2.82c0,0-2.743,4.234-6.56,5.013c-1.581,0.323-2.44,0.373-3.599-1.724
																c-1.088-1.968-0.514-3.653-0.378-5.463S395.445,108.318,395.643,107.792z"/>
														</g>
													</g>
												</g>
											</g>
										</g>
									</g>
								</g>
							</g>
						</g>
					</g>
				</g>
				<path style="fill:#1D2549;" d="M398.238,112.315c-0.059,0.313,0.014,0.59,0.163,0.618c0.149,0.028,0.317-0.203,0.376-0.517
					c0.059-0.313-0.042-0.442-0.191-0.471C398.438,111.918,398.297,112.002,398.238,112.315z"/>
				<path style="fill:#1D2549;" d="M395.093,111.724c-0.059,0.313,0.014,0.59,0.163,0.618c0.149,0.028,0.318-0.203,0.376-0.517
					c0.059-0.313-0.042-0.443-0.191-0.471C395.293,111.327,395.152,111.41,395.093,111.724z"/>
				<path style="fill:#1D2549;" d="M406.78,112.76c3.478-4.638,1.791-10.216-3.18-11.306c-5.098-1.118-7.48,0.983-7.48,0.983
					s-0.633,7.665,8.078,6.966l0.099,4.765L406.78,112.76z"/>
				<path style="fill:#FF9376;" d="M404.243,112.549c0,0,1.184-1.187,2.154-0.475c1.223,0.899-0.626,4.145-2.125,2.923
					C403.575,114.429,404.243,112.549,404.243,112.549z"/>
				<g>
					<path style="fill:#E0604F;" d="M405.487,114.572c0.011,0,0.02,0,0.029,0c0.036-0.001,0.064-0.032,0.064-0.067
						c-0.001-0.036-0.031-0.064-0.065-0.064h-0.001c-0.009,0.001-0.017,0.001-0.025,0.001c-0.251,0-0.448-0.109-0.555-0.309
						c-0.14-0.259-0.108-0.614,0.081-0.883c0.125-0.181,0.436-0.463,1.044-0.38c0.044,0.001,0.068-0.02,0.073-0.055
						c0.005-0.036-0.019-0.068-0.055-0.073c-0.5-0.073-0.927,0.085-1.169,0.433c-0.216,0.308-0.252,0.717-0.089,1.019
						C404.95,114.439,405.186,114.572,405.487,114.572z"/>
				</g>
				<g>
					<path style="fill:#E0604F;" d="M405.68,113.92c0.017,0,0.035-0.007,0.047-0.02c0.025-0.027,0.024-0.068-0.001-0.092
						c-0.344-0.329-0.918-0.244-0.943-0.24c-0.035,0.005-0.059,0.039-0.053,0.073c0.005,0.035,0.04,0.052,0.073,0.055
						c0.007,0.001,0.535-0.077,0.832,0.205C405.648,113.913,405.664,113.92,405.68,113.92z"/>
				</g>
				<g>
					<path style="fill:#3E3C6B;" d="M404.206,109.468c2.171-0.336,4.206-3.199,4.292-3.321l-0.107-0.075
						c-0.02,0.029-2.088,2.939-4.204,3.267L404.206,109.468z"/>
				</g>
				<g>
					<path style="fill:#3E3C6B;" d="M402.755,107.445l0.011-0.128c-5.022-0.392-6.571-4.856-6.585-4.9l-0.123,0.04
						C396.073,102.504,397.645,107.047,402.755,107.445z"/>
				</g>
				<g>
					<path style="fill:#3E3C6B;" d="M403.941,105.568l0.016-0.128c-4.409-0.519-7.129-2.906-7.157-2.93l-0.085,0.096
						C396.741,102.631,399.491,105.045,403.941,105.568z"/>
				</g>
				<g>
					<path style="fill:#3E3C6B;" d="M404.294,104.013c0.105,0,0.211-0.001,0.317-0.003l-0.003-0.131
						c-2.91,0.064-5.048-0.769-5.069-0.777l-0.048,0.12C399.513,103.23,401.516,104.013,404.294,104.013z"/>
				</g>
				<path style="fill:#1D2549;" d="M399.918,110.704c-0.513-0.479-1.276-0.748-1.565-0.744c-0.155,0.002-0.377,0.565,0.061,0.604
					c0.439,0.039,1.335,0.525,1.531,0.507C400.141,111.053,400.098,110.872,399.918,110.704z"/>
				<path style="fill:#1D2549;" d="M395.205,109.489c0.595-0.2,1.276-0.104,1.486,0.025c0.112,0.069,0.018,0.664-0.32,0.507
					c-0.339-0.157-1.217-0.118-1.353-0.219C394.883,109.701,394.996,109.56,395.205,109.489z"/>
				<g>
					<g>
						<path style="fill:#1D2549;" d="M396.723,117.122c0.087,0.038,0.184,0.063,0.289,0.073c0.555,0.07,0.879-0.134,1.041-0.378
							c0.168-0.235,0.172-0.509,0.096-0.576c-0.041-0.041-0.099-0.069-0.167-0.076c-0.351-0.065-0.967,0.178-1.616-0.095
							c-0.014-0.009-0.029-0.01-0.044-0.012l0.001-0.007C395.857,115.908,395.931,116.842,396.723,117.122z"/>
						<path style="fill:#E83636;" d="M396.723,117.122c0.087,0.038,0.184,0.063,0.289,0.073c0.555,0.07,0.879-0.134,1.041-0.378
							C397.285,116.741,396.881,116.989,396.723,117.122z"/>
						<path style="fill:#FFFFFF;" d="M398.069,116.188c-0.231-0.134-1.807-0.216-1.894-0.144c0,0,0.047,0.264,0.811,0.367
							C397.759,116.514,398.069,116.188,398.069,116.188z"/>
					</g>
				</g>
				<g>
					<path style="fill:#E0604F;" d="M396.273,115.018c0.332,0,0.666-0.101,0.728-0.121l-0.088-0.274
						c-0.285,0.091-0.919,0.203-1.049-0.038c-0.076-0.139,0.009-0.322,0.193-0.69c0.19-0.38,0.449-0.898,0.608-1.669l-0.281-0.058
						c-0.152,0.733-0.402,1.233-0.584,1.598c-0.198,0.394-0.339,0.678-0.19,0.956C395.737,114.952,396.005,115.018,396.273,115.018z
						"/>
				</g>
			</g>
			<g>
				<g>
					<g>
						<g>
							<path style="fill:#F95555;" d="M336.538,47.124v6.139c0,0.097-0.079,0.176-0.176,0.176h-9.339
								c-0.097,0-0.176-0.079-0.176-0.176v-6.139c0-0.097,0.079-0.176,0.176-0.176h9.339
								C336.459,46.948,336.538,47.027,336.538,47.124z"/>
							<path style="fill:#F95555;" d="M335.806,54.044v-7.84c0-0.636,0.783-0.939,1.211-0.469l3.636,3.99
								c0.245,0.269,0.242,0.682-0.009,0.947l-3.636,3.85C336.576,54.98,335.806,54.674,335.806,54.044z"/>
						</g>
						<path style="fill:#F95555;" d="M325.475,47.092v6.203c0,0.079-0.064,0.144-0.144,0.144h-1.678
							c-0.079,0-0.144-0.065-0.144-0.144v-6.203c0-0.08,0.064-0.144,0.144-0.144h1.678C325.41,46.948,325.475,47.013,325.475,47.092
							z"/>
					</g>
					<g>
						<g>
							<path style="fill:#F95555;" d="M491.696,65.188v6.139c0,0.097-0.079,0.176-0.176,0.176h-9.339
								c-0.097,0-0.176-0.079-0.176-0.176v-6.139c0-0.097,0.079-0.176,0.176-0.176h9.339
								C491.617,65.012,491.696,65.091,491.696,65.188z"/>
							<path style="fill:#F95555;" d="M490.964,72.108v-7.84c0-0.636,0.783-0.939,1.211-0.469l3.636,3.99
								c0.245,0.269,0.242,0.682-0.008,0.947l-3.636,3.85C491.734,73.044,490.964,72.738,490.964,72.108z"/>
						</g>
						<path style="fill:#F95555;" d="M480.633,65.156v6.204c0,0.079-0.064,0.144-0.144,0.144h-1.678
							c-0.079,0-0.144-0.064-0.144-0.144v-6.204c0-0.079,0.065-0.144,0.144-0.144h1.678
							C480.568,65.012,480.633,65.077,480.633,65.156z"/>
					</g>
					<g>
						<g>
							<path style="fill:#F95555;" d="M450.05,113.204v6.139c0,0.097-0.079,0.176-0.176,0.176h-9.34
								c-0.097,0-0.176-0.079-0.176-0.176v-6.139c0-0.097,0.079-0.176,0.176-0.176h9.34
								C449.971,113.028,450.05,113.107,450.05,113.204z"/>
							<path style="fill:#F95555;" d="M449.319,120.123v-7.84c0-0.636,0.783-0.939,1.211-0.469l3.636,3.99
								c0.245,0.269,0.242,0.682-0.008,0.947l-3.636,3.85C450.089,121.06,449.319,120.754,449.319,120.123z"/>
						</g>
						<path style="fill:#F95555;" d="M438.987,113.172v6.204c0,0.08-0.064,0.144-0.144,0.144h-1.678
							c-0.08,0-0.144-0.064-0.144-0.144v-6.204c0-0.079,0.064-0.144,0.144-0.144h1.678
							C438.923,113.028,438.987,113.092,438.987,113.172z"/>
					</g>
				</g>
				<g>
					<g>
						<path style="fill:#467BD1;" d="M362.813,94.089h35.323c0.705,0,1.276-0.572,1.276-1.277V74.126
							c0-0.705-0.571-1.277-1.276-1.277h-35.323c-0.705,0-1.276,0.572-1.276,1.277v18.686
							C361.536,93.518,362.108,94.089,362.813,94.089z"/>
						<polygon style="fill:#467BD1;" points="392.119,101.715 392.119,93.161 384.643,93.161 						"/>
					</g>
					<g>
						<rect x="367.024" y="79.338" style="fill:#FFFFFF;" width="26.079" height="0.78"/>
					</g>
					<g>
						<rect x="374.116" y="84.64" style="fill:#FFFFFF;" width="18.987" height="0.78"/>
					</g>
				</g>
			</g>
		</g>
	</g>
	<g>
		<path style="fill:#D7EBFF;" d="M342.114,226.769c0,1.18-8.797,2.137-19.65,2.137c-10.852,0-19.649-0.957-19.649-2.137
			s8.797-2.137,19.649-2.137C333.316,224.632,342.114,225.589,342.114,226.769z"/>
		<g>
			<g>
				<g>
					<g>
						<path style="fill:#1D2549;" d="M324.195,117.781c4.168,5.715,1.151,12.317,1.151,12.317s-5.168-0.405-7.437-1.351
							C315.64,127.8,324.195,117.781,324.195,117.781z"/>
						<path style="fill:#FF9376;" d="M324.5,214.259c0,0,0.043,0.29,0.107,0.751c0.064,0.483,0.15,1.169,0.225,1.909
							c0.118,1.169,0.215,2.477,0.172,3.431c0,0,0.633,0.536,1.673,0.686c1.04,0.139,2.059-0.601,1.855-1.491
							c-0.096-0.418,0.022-1.512,0.182-2.584c0.107-0.708,0.225-1.394,0.311-1.866c0.064-0.365,0.107-0.601,0.107-0.601
							L324.5,214.259z"/>
						<g>
							<path style="fill:#1D2549;" d="M325.009,220.005c0.383-0.204,2.955,0.959,3.715,1.346c0.76,0.386,3.36,2.948,5.284,4.257
								c0.709,0.483,0.512,0.99,0.512,0.99s-0.668,0.702-6.648-0.738c-0.492-0.119-1.404-2.26-1.861-2.285
								c-0.406-0.023-0.507,2.331-0.507,2.331h-0.635C324.869,225.905,324.031,220.527,325.009,220.005z"/>
						</g>
						<path style="fill:#FF9376;" d="M328.495,219.276c0.639,1.838,0.96,2.238,1.774,3.068c0.539,0.55,2.016,1.969,2.016,1.969
							c0.019,0.188-0.18,0.301-0.739,0.286c-2.002-0.055-6.657-3.605-6.537-4.594C325.128,219.017,328.495,219.276,328.495,219.276z
							"/>
						<path style="fill:#FF9376;" d="M311.311,215.524c0,0,0.032,0.193,0.075,0.515c0.064,0.45,0.15,1.137,0.236,1.919
							c0.139,1.222,0.247,2.649,0.204,3.656c0,0,0.633,0.536,1.673,0.686c1.04,0.139,2.059-0.6,1.855-1.49
							c-0.107-0.45,0.053-1.726,0.225-2.874c0.118-0.74,0.236-1.426,0.311-1.823c0.043-0.225,0.064-0.354,0.064-0.354
							L311.311,215.524z"/>
						<g>
							<path style="fill:#1D2549;" d="M311.826,221.272c0.383-0.204,2.955,0.959,3.715,1.345c0.76,0.386,3.36,2.948,5.284,4.257
								c0.709,0.483,0.512,0.99,0.512,0.99s-0.668,0.702-6.648-0.738c-0.492-0.119-1.404-2.26-1.861-2.285
								c-0.406-0.022-0.507,2.331-0.507,2.331h-0.635C311.686,227.171,310.848,221.793,311.826,221.272z"/>
						</g>
						<path style="fill:#FF9376;" d="M315.312,220.542c0.639,1.838,0.96,2.238,1.774,3.068c0.539,0.55,2.016,1.969,2.016,1.969
							c0.019,0.188-0.18,0.301-0.739,0.286c-2.003-0.055-6.657-3.606-6.537-4.594C311.945,220.283,315.312,220.542,315.312,220.542z
							"/>
						<path style="fill:#E0604F;" d="M311.386,216.039c0.064,0.45,0.15,1.137,0.236,1.919c0.879,0.086,2.498,0.182,3.957-0.021
							c0.118-0.74,0.236-1.426,0.311-1.823L311.386,216.039z"/>
						<path style="fill:#E0604F;" d="M324.607,215.01c0.064,0.483,0.15,1.169,0.225,1.909c0.74,0.075,2.37,0.204,3.882,0.043
							c0.107-0.708,0.225-1.394,0.311-1.866L324.607,215.01z"/>
						<path style="fill:#F95555;" d="M326.22,132.997c2.063,2.811,9.856,18.489,9.856,18.489c4.703,7.602-2.756,5.262-2.756,5.262
							c-2.546-2.422-6.833-9.247-6.833-9.247C325.434,140.683,324.235,134.177,326.22,132.997z"/>
						<path style="fill:#FFC44D;" d="M324.797,193.239c-1.135-3.54-4.226-14.943-4.226-14.943s-0.772,9.813-2.263,14.64
							c-1.569,5.076-0.825,23.715-0.825,23.715c-1.352,0.167-6.01,0.46-7.303,0c0,0-2.058-8.622-0.935-25.45l-0.915-15.2
							c-0.051-0.388-0.994-8.057,1.599-11.563c2.593-3.507,17.971,0.318,17.971,0.318c0.312-0.111,3.86,11.005,6.34,26.794
							c0.54,3.438-3.647,24.135-3.647,24.135c-2.922,0.591-5.028,0.805-7.12-0.465c0,0,0.065-7.43,0.678-13.561
							C324.594,197.23,324.797,193.239,324.797,193.239z"/>
						<g>
							<g>
								<g>
									<g>
										<path style="fill:#FFFFFF;" d="M328.584,166.409c0,0-2.757,0.781-7.114,2.987c-5.788,2.93-13.219,1.079-13.272,0.91
											c-0.142-0.484-0.503-5.357,0.752-9.331c2.185-6.921,3.032-9.448,2.74-15.359c-0.395-7.839-0.164-13.12-0.164-13.12
											s0.743-0.464,1.379-0.781c1.347-0.699,3.973-1.672,7.421-1.077c1.659,0.294,2.783,1.124,3.798,1.874
											c0.256,0.196,0.598,2.848,1.018,4.179c0.468,1.457,1.404,3.344,1.785,4.13c2.223,4.589-0.315,11.196,0.384,15.485
											C327.833,159.516,328.584,166.409,328.584,166.409z"/>
									</g>
								</g>
							</g>
						</g>
						<g>
							<path style="fill:#E2A437;" d="M320.688,178.33l-0.226-0.146c2.328-3.619,4.847-5.179,4.872-5.195l0.139,0.23
								C325.449,173.234,322.981,174.765,320.688,178.33z"/>
						</g>
						<g>
							<g>
								<g>
									<g>
										<g>
											<g>
												<g>
													<g>
														<path style="fill:#FF9376;" d="M322.284,127.797c-0.019,0.059-0.049,0.108-0.068,0.166
															c-0.078,0.176-0.137,0.352-0.176,0.528c-0.02,0.02-0.039,0.039-0.029,0.059c-0.108,0.391-0.186,0.811-0.215,1.192
															c-0.019,0.098-0.01,0.205-0.029,0.293c-0.01,0.225,0.019,0.362,0.039,0.499c0.02,0.098,0.039,0.195,0.029,0.332
															c0.01,0.176-0.01,1.134,0.049,1.29c0,0-1.877,2.815-5.806-1.222c0,0,0.186-0.626,0.841-3.226
															c0.02-0.068,0.039-0.146,0.059-0.244c0.098-0.44,0.215-1.085,0.225-1.456c-0.01-0.274,0.078-0.137,0.049-0.43
															c0-0.186-0.029-0.362-0.049-0.557v-0.01l-0.01-0.196c0,0,0.039,0.01,0.117,0.029c0.166,0.029,0.43,0.098,0.792,0.195
															c0.205,0.059,0.44,0.117,0.694,0.196C320.476,125.744,322.783,126.683,322.284,127.797z"/>
													</g>
												</g>
											</g>
										</g>
									</g>
								</g>
							</g>
							<g>
								<g>
									<g>
										<g>
											<g>
												<g>
													<g>
														<path style="fill:#E0604F;" d="M322.216,127.963c-0.078,0.176-0.137,0.352-0.176,0.528
															c-0.02,0.02-0.039,0.039-0.029,0.059c-0.108,0.391-0.186,0.811-0.215,1.192c-0.019,0.098-0.01,0.205-0.029,0.293
															c-0.01,0.225,0.019,0.362,0.039,0.499c-1.906,0.137-4.056-1.74-4.829-3.069c0.098-0.44,0.215-1.085,0.225-1.456
															c-0.01-0.274,0.078-0.137,0.049-0.43c0-0.186-0.029-0.362-0.049-0.557v-0.01l-0.01-0.196c0,0,0.039,0.01,0.117,0.029
															c0.166,0.029,0.43,0.098,0.792,0.195c0.205,0.059,0.44,0.117,0.694,0.196L322.216,127.963z"/>
													</g>
												</g>
											</g>
										</g>
									</g>
								</g>
							</g>
							<g>
								<g>
									<g>
										<g>
											<g>
												<g>
													<g>
														<path style="fill:#1D2549;" d="M324.96,122.65c2.605-7.278-5.106-10.424-9.334-6.513
															c-5.643,5.219,0.98,11.012,3.535,10.569C321.716,126.262,324.96,122.65,324.96,122.65z"/>
													</g>
												</g>
											</g>
										</g>
									</g>
								</g>
							</g>
							<g>
								<g>
									<g>
										<g>
											<g>
												<g>
													<g>
														<path style="fill:#FF9376;" d="M322.713,129.918c-0.919-0.003-3.264-0.292-5.376-3.26
															c-2.564-3.603-2.309-8.869,2.663-9.549c2.083-0.285,5.103,0.477,5.635,4.376c0.124,0.911-0.386,1.842,0.018,3.331
															C326.224,126.927,324.027,129.923,322.713,129.918z"/>
													</g>
												</g>
											</g>
										</g>
									</g>
								</g>
							</g>
							<g>
								<g>
									<g>
										<g>
											<g>
												<g>
													<g>
														<path style="fill:#1D2549;" d="M324.024,117.594c0.174,3.926-7.962,6.569-7.962,6.569l-2.379,0.146
															c0,0-1.627-5.414,1.829-7.52C318.969,114.684,324.024,117.594,324.024,117.594z"/>
													</g>
												</g>
											</g>
										</g>
									</g>
								</g>
							</g>
							<g>
								<g>
									<g>
										<g>
											<g>
												<g>
													<g>
														<path style="fill:#FF9376;" d="M317.6,124.353c0,0-0.848-1.343-2.065-0.391c-1.288,1.007,1.493,3.899,2.252,2.239
															C318.227,125.239,317.6,124.353,317.6,124.353z"/>
													</g>
												</g>
											</g>
										</g>
									</g>
								</g>
							</g>
							<g>
								<path style="fill:#E0604F;" d="M317.224,126.018c-0.007,0-0.015-0.002-0.021-0.005c-0.025-0.011-0.035-0.041-0.023-0.065
									c0.193-0.399,0.085-0.931-0.257-1.264c-0.315-0.308-0.739-0.36-1.168-0.14c-0.021,0.011-0.052,0.002-0.066-0.022
									c-0.012-0.024-0.002-0.054,0.022-0.066c0.464-0.24,0.931-0.181,1.28,0.158c0.371,0.362,0.487,0.94,0.276,1.376
									C317.26,126.007,317.242,126.018,317.224,126.018z"/>
							</g>
							<g>
								<path style="fill:#E0604F;" d="M316.285,125.536c-0.007,0-0.016-0.002-0.023-0.006c-0.024-0.013-0.032-0.042-0.02-0.066
									c0.309-0.588,0.895-0.597,0.921-0.597l0,0c0.027,0,0.048,0.022,0.049,0.049c0,0.026-0.022,0.048-0.049,0.049
									c-0.022,0-0.553,0.009-0.835,0.545C316.319,125.526,316.303,125.536,316.285,125.536z"/>
							</g>
						</g>
						<path style="fill:#F95555;" d="M323.812,133.432c-0.73,7.039,2.266,24.517,3.35,29.909c0.426,2.117,4.187-0.592,3.968-1.277
							c-0.847-2.644-3.267-12.599-2.546-15.911c0.817-3.753-2.203-7.675-2.03-12.084c0.022-0.566-0.252-1.104-0.696-1.455
							c-0.852-0.672-2.335-1.625-4.023-1.747v0.228c0.5,0.193,0.957,0.486,1.385,0.846
							C323.652,132.306,323.87,132.869,323.812,133.432z"/>
						<path style="fill:#F95555;" d="M316.21,130.454c-4.233,0.741-5.724,2.397-5.724,2.397s0.078,7.057,0.078,16.771
							c0,5.805-2.886,13.602-2.886,13.602c2.597,1.901,5.532,2.65,9.045,2.009c0,0,2.116-9.935,1.05-16.558
							c-1.066-6.623-2.454-16.258-2.454-16.258c0.063-0.615,0.182-1.123,0.758-1.483L316.21,130.454z"/>
						<path style="fill:#F95555;" d="M310.487,132.851c-7.341,7.309-9.17,19.609-9.17,21.628c0,4.1,5.929,14.445,5.929,14.445
							l2.586-0.946c0,0-1.711-9.982-2.87-13.719c0,0,2.996-9.556,4.258-13.025C312.481,137.763,310.487,132.851,310.487,132.851z"/>
						<path style="fill:#FF9376;" d="M307.246,168.923c0,0.026,0,0.053,0,0.079c0.015,3.067,0.893,4.432,0.893,4.432l3.499-2.491
							c0,0-0.544-1.294-1.806-2.966L307.246,168.923z"/>
						<g>
							<path style="fill:#E83636;" d="M310.671,143.209c0.156-0.296,3.78-7.299-0.1-10.461l-0.17,0.207
								c3.712,3.026,0.069,10.058,0.032,10.128L310.671,143.209z"/>
						</g>
						<g>
							<path style="fill:#E83636;" d="M328.608,151.221l0.264-0.05c-0.771-3.973-0.587-5.233-0.548-5.429
								c0.223-0.231,1.535-1.741,0.54-4.322c-0.302-0.784-0.694-1.515-1.073-2.221c-0.979-1.825-1.905-3.549-1.44-6.179
								l-0.264-0.046c-0.481,2.722,0.51,4.568,1.467,6.352c0.376,0.699,0.764,1.422,1.061,2.191c1.009,2.62-0.441,4.001-0.504,4.059
								l-0.026,0.024l-0.01,0.034C328.062,145.677,327.744,146.763,328.608,151.221z"/>
						</g>
						<g>
							<polygon style="fill:#E83636;" points="308.953,163.872 309.217,163.822 308.622,160.758 308.358,160.809 							"/>
						</g>
						<g>
							<path style="fill:#E83636;" d="M304.769,154.389c0.013-0.003,1.256-0.286,2.152-0.003l0.082-0.256
								c-0.971-0.305-2.242-0.016-2.294-0.003L304.769,154.389z"/>
						</g>
						<path style="fill:#1D2549;" d="M317.065,115.268c-6.437,3.438-5.048,13.606-5.048,13.606c2.138,1.831,4.731,2.138,7.695,1.206
							c0,0-1.598-6.426,1.093-8.744C323.497,119.018,317.065,115.268,317.065,115.268z"/>
						<path style="fill:#1D2549;" d="M322.984,118.225c1.277,2.271,2.567,2.773,2.567,2.773s0.641-2.871-1.316-4.674
							C322.406,114.64,322.984,118.225,322.984,118.225z"/>
						<path style="fill:#1D2549;" d="M324.809,123.65c0,0.242,0.111,0.438,0.248,0.438c0.137,0,0.248-0.196,0.248-0.438
							c0-0.242-0.111-0.438-0.248-0.438C324.92,123.212,324.809,123.408,324.809,123.65z"/>
						<path style="fill:#1D2549;" d="M322.216,123.744c0,0.242,0.111,0.438,0.248,0.438c0.137,0,0.248-0.196,0.248-0.438
							s-0.111-0.438-0.248-0.438C322.327,123.307,322.216,123.503,322.216,123.744z"/>
						<g>
							<path style="fill:#E0604F;" d="M323.934,126.456c0.184,0,1.104-0.025,1.104-0.524c0-0.214-0.131-0.466-0.297-0.786
								c-0.175-0.338-0.393-0.759-0.497-1.235l-0.262,0.057c0.112,0.51,0.339,0.949,0.521,1.302
								c0.143,0.276,0.267,0.515,0.267,0.663c0,0.164-0.494,0.256-0.836,0.256V126.456z"/>
						</g>
						<g>
							<path style="fill:#E0604F;" d="M323.036,128.536c0.184,0,0.396-0.019,0.632-0.072l-0.059-0.262
								c-0.776,0.176-1.266-0.057-1.271-0.06l-0.119,0.241C322.235,128.391,322.534,128.536,323.036,128.536z"/>
						</g>
						<g>
							<path style="fill:#1D2549;" d="M324.407,122.695c0.01-0.005,0.946-0.35,1.489-0.077l0.119-0.239
								c-0.645-0.327-1.661,0.048-1.703,0.065L324.407,122.695z"/>
						</g>
						<g>
							<path style="fill:#1D2549;" d="M321.409,122.984c0.612-0.456,1.572-0.285,1.581-0.283l0.048-0.264
								c-0.041-0.008-1.081-0.196-1.789,0.331L321.409,122.984z"/>
						</g>
						<g>
							<path style="fill:#E2A437;" d="M311.252,216.862l0.266-0.025c-0.02-0.205-1.986-20.526-1.365-25.062
								c0.334-2.441-0.103-5.915-0.564-9.595c-0.405-3.222-0.824-6.554-0.692-9.184l-0.268-0.013
								c-0.133,2.652,0.287,5.996,0.694,9.23c0.46,3.661,0.894,7.12,0.564,9.526C309.263,196.306,311.233,216.658,311.252,216.862z"
								/>
						</g>
						<g>
							<path style="fill:#E2A437;" d="M314.721,216.855l0.268-0.01c-0.008-0.197-0.788-19.741-0.107-22.341
								c0.852-3.254,1.879-11.869,0.318-23.523l-0.266,0.036c1.948,14.543-0.219,23.064-0.312,23.42
								C313.932,197.074,314.688,216.048,314.721,216.855z"/>
						</g>
						<g>
							<path style="fill:#E2A437;" d="M329.395,215.951c0.026-0.21,2.649-20.99,2.775-23.177c0.126-2.203-5.321-24.706-5.553-25.663
								l-0.26,0.063c0.057,0.235,5.668,23.422,5.545,25.586c-0.125,2.177-2.747,22.949-2.773,23.158L329.395,215.951z"/>
						</g>
					</g>
				</g>
			</g>
			<path style="fill:#FF9376;" d="M347.751,152.851c0,0,2.096-0.899,2.449-1.04c0.353-0.141,2.826,0.284,2.826,0.284
				s-0.236,0.637-1.031,0.478c-0.795-0.159-1.115,0.208-1.115,0.208c-0.104,1.17-0.204,2.234-0.302,3.345l-2.828-0.513V152.851z"/>
			<path style="fill:#FF9376;" d="M351.045,156.078c0.497,0.165,1.482,0.383,1.702,0.08c0.169-0.232,1.207-3.16,0.456-3.37
				c-0.692-0.194-1.102-0.545-1.498-0.256C351.31,152.82,350.548,155.913,351.045,156.078z"/>
			<path style="fill:#F95555;" d="M335.618,151.464l12.241,1.257c0.251,0.96,0.262,2.065,0,3.336c0,0-12.443,2.549-14.539,0.691
				C332.221,155.773,335.618,151.464,335.618,151.464z"/>
		</g>
	</g>
	<g>
		<path style="fill:#D7EBFF;" d="M589.57,245.749c0,1.18-10.148,2.137-22.666,2.137s-22.666-0.957-22.666-2.137
			c0-1.18,10.148-2.137,22.666-2.137S589.57,244.569,589.57,245.749z"/>
		<g>
			<path style="fill:#3D4B87;" d="M573.766,145.81c-1.247,0-2.555-0.048-3.897-0.162l0.086-0.996
				c7.837,0.669,14.466-0.988,14.531-1.005l0.248,0.969C584.677,144.63,579.968,145.81,573.766,145.81z"/>
		</g>
		<g>
			<g>
				<g>
					<g>
						<g>
							<g>
								<g>
									<g>
										<g>
											<g>
												<g>
													<polygon style="fill:#FF9376;" points="551.27,235.497 551.27,236.387 551.281,240.58 555.28,239.819 555.709,235.165 
														551.752,235.465 													"/>
												</g>
											</g>
										</g>
									</g>
								</g>
							</g>
						</g>
						<g>
							<g>
								<g>
									<g>
										<g>
											<g>
												<g>
													<path style="fill:#1D2549;" d="M557.654,245.452h-6.688c0,0-0.511-0.47-0.024-2.915
														c0.235-1.179,0.335-1.954,0.335-1.954s1.375-1.786,2.588-2.17c1.213-0.384,1.589,2.01,1.589,2.01
														S559.398,244.138,557.654,245.452z"/>
												</g>
											</g>
										</g>
									</g>
								</g>
							</g>
						</g>
						<g>
							<g>
								<g>
									<g>
										<g>
											<g>
												<g>
													
														<rect x="550.725" y="244.817" transform="matrix(-1 -1.224647e-16 1.224647e-16 -1 1108.9152 490.7724)" style="fill:#FFFFFF;" width="7.465" height="1.139"/>
												</g>
											</g>
										</g>
									</g>
								</g>
							</g>
						</g>
						<path style="fill:#E0604F;" d="M551.27,235.497v0.89c0.611,0.011,1.491-0.064,2.734-0.365l-2.252-0.558L551.27,235.497z"/>
						<g>
							<g>
								<g>
									<g>
										<g>
											<g>
												<g>
													<polygon style="fill:#FF9376;" points="573.681,235.315 573.767,235.691 574.142,237.288 574.764,239.99 
														578.539,239.304 578.153,235.862 578.142,235.712 578.131,235.658 577.96,234.093 													"/>
												</g>
											</g>
										</g>
									</g>
								</g>
							</g>
						</g>
						<g>
							<g>
								<g>
									<g>
										<g>
											<g>
												<g>
													<path style="fill:#1D2549;" d="M585.627,245.366l-11.832,0.085c-0.89-2.14,0.349-6.154,0.689-6.663
														c0.254-0.392,3.76,0.212,4.099,0.519c0.339,0.297,0.868,1.568,3.083,2.553c0.201,0.095,0.402,0.18,0.593,0.254h0.011
														c1.133,0.477,2.066,0.773,2.638,1.123c0.297,0.191,0.498,0.392,0.583,0.646
														C585.691,244.487,585.627,245.366,585.627,245.366z"/>
												</g>
											</g>
										</g>
									</g>
								</g>
							</g>
						</g>
						<g>
							<g>
								<g>
									<g>
										<g>
											<g>
												<g>
													
														<rect x="573.553" y="244.817" transform="matrix(-1 -1.224647e-16 1.224647e-16 -1 1159.2439 490.7724)" style="fill:#FFFFFF;" width="12.138" height="1.139"/>
												</g>
											</g>
										</g>
									</g>
								</g>
							</g>
						</g>
						<path style="fill:#E0604F;" d="M573.767,235.691l0.375,1.598c0.74-0.054,2.284-0.3,4.01-1.426h0.011l-0.021-0.15l-0.011-0.054
							L573.767,235.691z"/>
						<path style="fill:#467BD1;" d="M569.621,143.44c5.42,1.355,13.333,17.178,14.12,17.258c0.859,0.088,4.287-2.267,7.745-4.572
							c1.034-0.689,2.422-0.464,3.188,0.515l0.142,0.182c0.814,1.039,1.309,3.378,0.397,4.333
							c-3.263,3.416-8.781,8.044-12.612,8.033c-3.37-0.009-10.533-11.353-10.533-11.353L569.621,143.44z"/>
						<g>
							<path style="fill:#3165AF;" d="M583.313,162.69c-0.001-0.009-0.116-0.928,0.57-1.903l-0.216-0.152
								c-0.749,1.064-0.623,2.049-0.616,2.091L583.313,162.69z"/>
						</g>
						<g>
							<g>
								<g>
									<g>
										<g>
											<g>
												<g>
													<path style="fill:#1D2549;" d="M578.126,235.656c-0.491-6.792-0.47-21.861-0.615-24.737
														c-0.164-3.251-0.977-12.599-2.699-22.809l-10.672,7.762l3.588,15.483c0.654,9.028,5.111,24.91,5.111,24.91
														s1.821,0.092,3.192-0.048C577.402,236.077,578.126,235.656,578.126,235.656z"/>
												</g>
											</g>
										</g>
									</g>
								</g>
							</g>
						</g>
						<path style="fill:#1D2549;" d="M555.668,235.597c0.65-4.26,4.971-21.481,5.564-24.055c1.348-5.849,2.908-15.391,4.531-15.67
							c0.505-0.087,9.381-3.206,9.381-3.206c-0.41-5.64-0.569-11.666-2.762-16.645c-0.632,0.032-18.061,0.932-18.12,0.929
							c-0.254,1.552-1.253,2.399-2.547,2.813c-3.314,5.92-1.654,11.327-1.433,15.017c-0.068,5.436,0.783,16.061,0.783,16.061
							c-1.393,7.711-1.475,20.806-1.093,24.519c0,0,1.996,0.624,3.455,0.67C554.886,236.076,555.668,235.597,555.668,235.597z"/>
						<g>
							<g>
								<g>
									<g>
										<g>
											<g>
												<g>
													<path style="fill:#467BD1;" d="M574.642,179.765c0.032,1.801-3.241,3.421-11.186,3.58
														c-6.176,0.127-12.341-0.699-13.665-2.712c-0.138-0.212-0.265-0.434-0.371-0.678c-0.18-0.371-0.318-0.784-0.434-1.229
														c-0.784-3.029-0.339-7.531-0.159-11.758c0.032-0.847,0.063-1.684,0.063-2.489c0-0.551-0.01-1.081-0.021-1.589
														c-0.275-6.525-1.024-15.074,1.061-17.352c1.542-1.685,3.822-2.573,6.068-3.049c3.739-0.826,7.701-0.625,10.794,0
														c3.125,0.625,4.873,2.171,5.021,2.849C572.598,148.908,574.621,178.706,574.642,179.765z"/>
												</g>
											</g>
										</g>
									</g>
								</g>
							</g>
						</g>
						<g>
							<path style="fill:#1D2549;" d="M556.61,130.632c-3.274,1.353-0.915,3.852-0.915,3.852s-1.03,0.705-0.573,2.111
								c0.458,1.406,2.362,1.42,2.362,1.42s0.36,1.378,1.636,1.457c1.276,0.079,1.953-1.04,1.953-1.04l-3.103-6.559L556.61,130.632z
								"/>
							<path style="fill:#1D2549;" d="M558.582,135.16c-2.531-2.987-3.219-6.14-2.363-7.668c0.893-1.592,2.902-1.375,2.902-1.375
								s0.434-1.665,2.153-1.977c1.88-0.342,3.018,1.232,3.018,1.232s1.44-0.939,2.893-0.039c1.677,1.038,0.899,3.246,0.899,3.246
								s1.068,0.507,1.194,1.466c0.175,1.322-2.014,2.424-2.014,2.424L558.582,135.16z"/>
							<g>
								<g>
									<g>
										<g>
											<g>
												<g>
													<g>
														<g>
															<g>
																<g>
																	<path style="fill:#FF9376;" d="M565.551,142.943c0-0.022-0.12-0.449-0.252-1.095v-0.033
																		c-0.109-0.504-0.23-1.139-0.296-1.818v-0.011c-0.066-0.548-0.099-1.139-0.066-1.676
																		c0.011-0.317,0.044-0.635,0.12-0.898c0.12-0.504-0.427-0.854-1.259-1.117c-1.227-0.372-3.077-0.548-4.183-0.613
																		c-0.57-0.033-0.942-0.044-0.942-0.044c0.044,0.131,0.088,0.252,0.098,0.383c0.132,0.427,0.23,0.832,0.307,1.215
																		c0.011,0.099,0.033,0.197,0.044,0.285c0.011,0.12,0.033,0.23,0.044,0.339c0.285,3.187-1.193,4.285-1.193,4.285
																		s1.61,3.648,5.455,3.377C566.528,145.306,565.551,142.943,565.551,142.943z"/>
																</g>
															</g>
														</g>
													</g>
												</g>
											</g>
										</g>
									</g>
								</g>
							</g>
							<path style="fill:#E0604F;" d="M565.299,141.815l0.079,0.404c-1.336,0.427-4.295-0.295-6.256-4.697
								c-0.011-0.088-0.033-0.186-0.044-0.285l0.197-0.241l5.727,2.99v0.011C565.069,140.676,565.19,141.311,565.299,141.815z"/>
							<g>
								<g>
									<g>
										<g>
											<g>
												<g>
													<g>
														<g>
															<g>
																<g>
																	<g>
																		<path style="fill:#FF9376;" d="M567.897,132.416c-0.612-3.488-2.753-6.553-6.873-5.012
																			c-4.227,1.582-2.979,5.92-2.979,5.92l0.774,2.646c0,0,1.473,4.32,4.615,5.602c1.302,0.531,3.193,0.38,3.949-1.15
																			c0.699-1.414,0.633-3.045,0.808-4.617C568.367,134.232,567.982,132.899,567.897,132.416z"/>
																	</g>
																</g>
															</g>
														</g>
													</g>
												</g>
											</g>
										</g>
									</g>
								</g>
							</g>
							<g>
								<g>
									<g>
										<g>
											<g>
												<g>
													<path style="fill:#1D2549;" d="M562.988,134.581l-0.129-0.462c0.029-0.008,0.724-0.198,1.899-0.339l0.056,0.475
														C563.68,134.392,562.994,134.579,562.988,134.581z"/>
												</g>
											</g>
										</g>
									</g>
								</g>
							</g>
							<g>
								<g>
									<g>
										<g>
											<g>
												<g>
													<path style="fill:#1D2549;" d="M566.843,134.163l-0.022-0.478c0.029-0.002,0.537-0.072,1.707,0.044l-0.051,0.477
														C567.355,134.066,566.849,134.163,566.843,134.163z"/>
												</g>
											</g>
										</g>
									</g>
								</g>
							</g>
							<path style="fill:#1D2549;" d="M564.59,135.63c0,0.255-0.128-0.18-0.285-0.18c-0.157,0-0.285,0.436-0.285,0.18
								c0-0.255,0.128-0.462,0.285-0.462C564.463,135.167,564.59,135.374,564.59,135.63z"/>
							<path style="fill:#1D2549;" d="M567.82,135.486c0,0.255-0.13-0.171-0.291-0.171c-0.16,0-0.291,0.426-0.291,0.171
								c0-0.255,0.13-0.462,0.291-0.462C567.69,135.024,567.82,135.231,567.82,135.486z"/>
							<path style="fill:#1D2549;" d="M558.582,135.16c0.437-0.2,1.088-0.129,1.088-0.129s-0.265-2.291,0-2.677
								c0.265-0.386,1.472,0.072,2.485-0.241c1.013-0.314,1.206-1.684,1.206-1.684s1.303,0.719,2.268,0.622
								c0.965-0.096,2.045-1.954,2.045-1.954s-1.78-2.582-5.158-2.413c-3.378,0.169-4.995,3.088-4.995,4.198
								c0,1.11,0.458,2.924,0.458,2.924L558.582,135.16z"/>
							<g>
								<path style="fill:#3E3C6B;" d="M559.065,131.337c-0.304-0.697-0.326-1.307-0.066-1.812c0.373-0.725,1.206-1.01,1.486-1.088
									c-0.203-0.283-0.836-1.292-0.157-1.987l0.088,0.086c-0.716,0.734,0.213,1.889,0.222,1.899l0.064,0.079l-0.099,0.021
									c-0.011,0.002-1.079,0.24-1.494,1.046c-0.242,0.471-0.218,1.044,0.07,1.706L559.065,131.337z"/>
							</g>
							<g>
								<path style="fill:#3E3C6B;" d="M564.353,127.82l-0.12-0.034c0.073-0.25,0.22-0.427,0.44-0.526
									c0.531-0.237,1.325,0.05,1.587,0.158c0.013-0.247,0.105-0.891,0.719-0.985l0.019,0.122c-0.648,0.1-0.618,0.92-0.616,0.954
									l0.004,0.103l-0.092-0.044c-0.012-0.004-0.995-0.458-1.571-0.195C564.539,127.456,564.414,127.606,564.353,127.82z"/>
							</g>
							<g>
								<path style="fill:#3E3C6B;" d="M567.167,129.945l-0.088-0.088c0.604-0.615,0.267-1.143,0.252-1.166l0.103-0.068
									C567.439,128.63,567.845,129.254,567.167,129.945z"/>
							</g>
							<g>
								<path style="fill:#3E3C6B;" d="M556.656,129.636c-0.006-0.037-0.151-0.92,0.309-1.417c0.231-0.248,0.574-0.353,1.012-0.314
									l-0.011,0.124c-0.4-0.036-0.706,0.056-0.91,0.274c-0.419,0.452-0.279,1.304-0.278,1.312L556.656,129.636z"/>
							</g>
							<g>
								<path style="fill:#3E3C6B;" d="M563.329,130.482c-0.387-0.241-0.613-0.53-0.673-0.862c-0.086-0.472,0.201-0.85,0.213-0.865
									l0.098,0.075c-0.003,0.004-0.265,0.352-0.189,0.77c0.054,0.294,0.261,0.556,0.617,0.778L563.329,130.482z"/>
							</g>
							<g>
								<path style="fill:#3E3C6B;" d="M563.306,125.827c-0.011-0.026-0.287-0.628-1.091-0.277l-0.049-0.113
									c0.309-0.135,0.584-0.157,0.82-0.064c0.308,0.122,0.428,0.394,0.433,0.405L563.306,125.827z"/>
							</g>
							<g>
								<path style="fill:#3E3C6B;" d="M556.457,134.21c-0.019-0.035-0.463-0.878-0.094-1.396c0.247-0.344,0.791-0.451,1.62-0.317
									l-0.019,0.122c-0.781-0.127-1.282-0.036-1.5,0.266c-0.324,0.454,0.098,1.258,0.103,1.266L556.457,134.21z"/>
							</g>
							<g>
								<path style="fill:#3E3C6B;" d="M556.515,137.057c-0.012-0.015-0.305-0.374-0.217-0.697c0.043-0.159,0.168-0.278,0.373-0.354
									l0.043,0.115c-0.165,0.061-0.265,0.153-0.297,0.272c-0.071,0.261,0.191,0.582,0.195,0.585L556.515,137.057z"/>
							</g>
							<path style="fill:#FF9376;" d="M559.724,135.013c0,0-0.744-1.162-1.712-0.697c-1.221,0.587-0.134,3.74,1.382,2.915
								C560.099,136.848,559.724,135.013,559.724,135.013z"/>
							<g>
								<path style="fill:#E0604F;" d="M558.548,136.674c-0.057,0-0.116-0.007-0.176-0.019c-0.031-0.007-0.051-0.038-0.045-0.071
									c0.008-0.032,0.04-0.055,0.071-0.045c0.23,0.049,0.428-0.013,0.559-0.175c0.165-0.204,0.195-0.52,0.074-0.787
									c-0.08-0.179-0.298-0.481-0.852-0.505c-0.033-0.001-0.058-0.029-0.057-0.061s0.028-0.057,0.059-0.057
									c0.001,0,0.002,0,0.002,0c0.451,0.019,0.8,0.228,0.956,0.574c0.138,0.306,0.102,0.672-0.091,0.91
									C558.922,136.594,558.749,136.674,558.548,136.674z"/>
							</g>
							<g>
								<path style="fill:#E0604F;" d="M558.348,136.055c-0.019,0-0.039-0.01-0.049-0.027c-0.018-0.027-0.011-0.064,0.017-0.081
									c0.353-0.23,0.846-0.062,0.865-0.055c0.031,0.011,0.047,0.045,0.036,0.075c-0.012,0.031-0.045,0.047-0.075,0.036
									c-0.005-0.002-0.457-0.156-0.762,0.042C558.37,136.051,558.358,136.055,558.348,136.055z"/>
							</g>
						</g>
						<g>
							<path style="fill:#2E3768;" d="M564.675,197.685c0.689-2.046,4.669-8.581,4.708-8.646l-0.226-0.139
								c-0.164,0.27-4.034,6.627-4.733,8.7L564.675,197.685z"/>
						</g>
						<g>
							<path style="fill:#E0604F;" d="M566.238,138.372c0.159,0,0.325-0.031,0.46-0.128c0.338-0.241,0.203-0.663-0.02-1.363
								c-0.055-0.172-0.116-0.363-0.178-0.576l-0.258,0.075c0.063,0.215,0.125,0.408,0.18,0.582c0.202,0.633,0.291,0.941,0.12,1.064
								c-0.225,0.159-0.642,0.043-0.783-0.016l-0.1,0.249C565.677,138.266,565.946,138.372,566.238,138.372z"/>
						</g>
						<g>
							<path style="fill:#2E3768;" d="M556.944,212.707c0.624,0,1.404-0.084,2.225-0.379l-0.09-0.251
								c-1.8,0.645-3.437,0.226-3.453,0.221l-0.069,0.26C555.597,212.568,556.142,212.707,556.944,212.707z"/>
						</g>
						<g>
							<path style="fill:#2E3768;" d="M574.323,213.049c0.496,0,1.109-0.089,1.834-0.353l-0.092-0.251
								c-2.018,0.736-3.121,0.021-3.131,0.015l-0.15,0.222C572.816,212.704,573.343,213.049,574.323,213.049z"/>
						</g>
					</g>
					<path style="fill:#FF9376;" d="M593.578,156.48l0.859-0.833c0,0,0.27-1.074,0.559-1.475c0.384-0.531,3.029-1.134,3.029-1.134
						s0.278,0.363-0.229,0.727c-0.328,0.236-1.499,0.719-1.499,0.719l-0.056,3.869l-1.027,0.556c0,0-0.789-0.621-1.216-1.278
						C593.572,156.974,593.578,156.48,593.578,156.48z"/>
					<path style="fill:#FFFFFF;" d="M566.28,139.736h-1.804c0,0,0.148,1.023,0.966,0.94c0.621-0.062,0.499-0.695,0.499-0.695
						L566.28,139.736z"/>
				</g>
			</g>
			<g>
				<path style="fill:#3165AF;" d="M573.067,159.578c0,0-0.261-3.23-0.442-5.374l0.29-0.026c0.18,2.147,0.442,5.377,0.442,5.377
					L573.067,159.578z"/>
			</g>
			<path style="fill:#FF9376;" d="M595.909,154.289c1.664,0,2.999,0.15,3.539,0c0.54-0.15,1.589-0.42,1.784-0.345
				c0.195,0.075,0.255,0.33,0.255,0.33l-1.994,1.02c0,0,2.294-0.57,2.549-0.465c0.255,0.105,0.27,0.375,0.27,0.375l-2.609,0.84
				c0,0,2.129-0.255,2.369-0.15c0.24,0.105,0.24,0.36,0.24,0.36l-2.459,0.57c0,0,1.634-0.06,1.769,0c0.135,0.06,0.12,0.36,0.12,0.36
				s-1.934,0.525-2.774,0.72c-0.84,0.195-1.675,0.602-2.727,0.451C595.19,158.202,595.909,154.289,595.909,154.289z"/>
		</g>
		<g>
			
				<rect x="612.578" y="145.8" transform="matrix(6.123234e-17 -1 1 6.123234e-17 463.8104 764.8696)" style="fill:#3D4B87;" width="3.524" height="9.458"/>
			
				<rect x="612.578" y="132.795" transform="matrix(6.123234e-17 -1 1 6.123234e-17 476.8155 751.8644)" style="fill:#3D4B87;" width="3.524" height="9.458"/>
			<path style="fill:#1D2549;" d="M609.611,131.057v26.15h-22.002c-2.29,0-4.147-1.857-4.147-4.147v-17.855
				c0-2.29,1.857-4.147,4.147-4.147H609.611z"/>
		</g>
		<path style="fill:#3165AF;" d="M550.031,145.156c-0.247,0.213-0.456,0.472-0.603,0.763c-4.533,8.926,13.395,22.357,19.414,21.329
			c4.701-0.803,13.561-9.556,17.138-13.18c0.978-0.991,0.372-2.015-0.545-3.063l0,0c-0.852-0.974-1.631-1.743-2.734-1.067
			c-4.072,2.493-13.808,8.889-14.171,8.97c-1.106,0.247-9.999-11.427-12.031-13.371C553.534,142.704,550.98,144.337,550.031,145.156
			z"/>
		<path style="fill:#FF9376;" d="M584.074,149.999c0,0,1.443-1.363,1.868-1.963c0.425-0.601,1.926-1.806,1.926-1.806
			s0.526,0.159,0.184,0.739c-0.345,0.584-0.846,1.676-0.846,1.676s3.749-1.337,4.073-1.23c0.287,0.094,0.239,0.365,0.239,0.365
			l-2.531,1.389c0,0,2.511-0.731,2.96-0.682c0.472,0.052,0.312,0.454,0.312,0.454l-2.745,1.275c0,0,2.219-0.551,2.676-0.433
			c0.305,0.079,0.247,0.379,0.247,0.379l-2.696,1.139c0,0,1.863-0.362,2.216-0.21c0.237,0.102,0.139,0.352,0.139,0.352
			s-2.41,0.816-3.732,1.21c-1.323,0.394-3.166,0.385-3.166,0.385C584.184,152.568,583.544,151.428,584.074,149.999z"/>
	</g>
</g>
</svg>
