<?xml version="1.0" encoding="utf-8"?>
<!-- Generator: Adobe Illustrator 27.5.0, SVG Export Plug-In . SVG Version: 6.00 Build 0)  -->
<svg version="1.1" id="_x2014_ëîé_x5F_1" xmlns="http://www.w3.org/2000/svg" xmlns:xlink="http://www.w3.org/1999/xlink"
	 x="0px" y="0px" viewBox="0 0 1466.04 624.543" style="enable-background:new 0 0 1466.04 624.543;" xml:space="preserve">
<rect y="0" transform="matrix(-1 -1.224647e-16 1.224647e-16 -1 1466.0421 624.5435)" style="fill:#FFFFFF;" width="1466.042" height="624.544"/>
<path style="fill:#DDDCDB;" d="M1335.375,415.232h-149.792c-8.105,0-14.675-6.57-14.675-14.675l-25.232-153.602
	c0-8.105,6.57-14.675,14.675-14.675h149.792c8.105,0,14.675,6.57,14.675,14.675l25.232,153.602
	C1350.05,408.661,1343.48,415.232,1335.375,415.232z"/>
<path style="fill:#DDDCDB;" d="M241.066,415.232H91.273c-8.105,0-14.675-6.57-14.675-14.675l-0.673-153.602
	c0-8.105,6.57-14.675,14.675-14.675h149.792c8.105,0,14.675,6.57,14.675,14.675l0.673,153.602
	C255.741,408.661,249.171,415.232,241.066,415.232z"/>
<path style="fill:#DDDCDB;" d="M889.946,415.232H740.154c-8.105,0-14.675-6.57-14.675-14.675l-25.232-153.602
	c0-8.105,6.57-14.675,14.675-14.675h149.792c8.105,0,14.675,6.57,14.675,14.675l25.232,153.602
	C904.621,408.661,898.051,415.232,889.946,415.232z"/>
<path style="fill:#DDDCDB;" d="M460.479,415.232h149.792c8.105,0,14.675-6.57,14.675-14.675l25.232-153.602
	c0-8.105-6.57-14.675-14.675-14.675H485.71c-8.105,0-14.675,6.57-14.675,14.675l-25.232,153.602
	C445.804,408.661,452.374,415.232,460.479,415.232z"/>
<g>
	<path style="fill:#40250C;" d="M824.49,172.058c0,0-29.743-3.99-32.434,32.233c-1.669,22.472,4.234,50.129-7.607,53.114
		s-41.155,19.154-14.025,60.174c39.089,59.102,113.257,2.581,113.257,2.581s36.986-15.036,30.583-34.612
		c-6.404-19.576-17.058-18.755-12.125-33.718c4.933-14.963,6.519-51.917-3.849-63.674C887.92,176.401,824.49,172.058,824.49,172.058
		z"/>
	<path style="fill:#FF8F76;" d="M881.891,283.119c0,0,12.32-7.288,23.141,0c10.821,7.288,16.652,37.201,23.198,52.567
		c5.116,12.009,28.454,38.726,25.655,57.507s-38.876,5.008-38.876,5.008s-10.314-39.212-27.406-62.515
		C870.51,312.384,881.891,283.119,881.891,283.119z"/>
	<path style="fill:#EF435D;" d="M881.891,283.119c0,0-4.634,5.806-15.393,5.333c-10.76-0.474-42.007-14.828-42.007-14.828
		s-24.565-2.923-32.434-4.163c-7.87-1.24-22.334-4.413-51.767,107.589c-9.833,37.419-14.575,81.004-14.575,81.004
		s37.191-3.931,47.449-4.912c10.259-0.981,18.342-10.108,38.98-7.442c20.638,2.666,29.979,18.579,48.088,10.161
		c0,0-6.958-18.485-6.751-36.723c0.114-9.991,16.09-19.947,26.675-31.566c11.809-12.961,14.754-29.826,12.279-42.891
		C889.96,331.616,881.891,283.119,881.891,283.119z"/>
	<path style="fill:#FF8F76;" d="M824.49,273.623c0,0,7.797,24.665,10.092,39.238c2.332,14.573,27.143,21.641,31.915-24.41
		c0,0-2.004-2.66-2.113-7.87c-0.109-2.915,0.364-6.631,2.113-11.112c3.097-7.906-10.165-16.686-20.257-22.042
		c-5.866-3.097-10.675-5.064-10.675-5.064S838.225,261.746,824.49,273.623z"/>
	<path style="fill:#F76A52;" d="M864.384,280.582c-0.109-2.915,0.364-6.631,2.113-11.112c3.097-7.906-10.165-16.686-20.257-22.042
		c-0.911,1.02-1.498,2.465-2.004,4.408C841.183,263.562,849.318,277.037,864.384,280.582z"/>
	
		<ellipse transform="matrix(0.9928 -0.12 0.12 0.9928 -20.1527 109.4035)" style="fill:#B3A8A6;" cx="898.289" cy="222.027" rx="15.12" ry="17.768"/>
	<g>
		<g>
			<path style="fill:#FF8F76;" d="M874.575,276.843c-11.247,2.026-35.196-12.125-43.074-30.25
				c-6.68-15.369-29.785-72.012,21.496-79.08c51.281-7.069,46.853,63.866,45.292,74.839
				C896.728,253.325,886.702,274.658,874.575,276.843z"/>
			<path style="fill:#260918;" d="M887.197,226.07c0.401,2.383,1.659,4.157,2.81,3.964c1.151-0.194,1.759-2.282,1.358-4.664
				c-0.401-2.383-1.659-4.157-2.81-3.964C887.404,221.6,886.796,223.688,887.197,226.07z"/>
			<path style="fill:#260918;" d="M851.451,231.464c0.401,2.383,1.659,4.157,2.81,3.964c1.151-0.194,1.759-2.282,1.358-4.665
				c-0.401-2.383-1.659-4.157-2.809-3.964C851.658,226.993,851.05,229.081,851.451,231.464z"/>
			<g>
				<path style="fill:#F76A52;" d="M873.577,247.592c-0.31,0-0.617-0.145-0.813-0.417c-0.322-0.448-0.22-1.072,0.228-1.395
					c1-0.721,3.534-3.073,3.259-5.274c-0.123-0.986-1.996-4.073-3.286-5.95c-0.313-0.455-0.197-1.078,0.258-1.391
					c0.455-0.311,1.077-0.197,1.391,0.258c0.564,0.822,3.394,5.014,3.622,6.835c0.479,3.835-3.891,7.013-4.077,7.147
					C873.982,247.531,873.779,247.592,873.577,247.592z"/>
			</g>
			<g>
				<path style="fill:#281506;" d="M878.842,212.074c-0.314,0-0.622-0.146-0.816-0.422c-0.319-0.451-0.213-1.075,0.237-1.394
					c0.324-0.229,8.012-5.585,14.158-2.208c0.484,0.266,0.661,0.874,0.394,1.358c-0.265,0.484-0.875,0.66-1.357,0.395
					c-5.065-2.785-11.971,2.038-12.039,2.087C879.243,212.014,879.042,212.074,878.842,212.074z"/>
			</g>
			<g>
				<path style="fill:#281506;" d="M841.971,220.019c-0.186,0-0.374-0.052-0.542-0.16c-0.464-0.3-0.597-0.919-0.297-1.383
					c5.664-8.762,15.688-4.197,15.789-4.15c0.499,0.234,0.714,0.828,0.48,1.328c-0.232,0.499-0.825,0.718-1.328,0.484
					c-0.347-0.16-8.553-3.861-13.262,3.424C842.62,219.858,842.299,220.019,841.971,220.019z"/>
			</g>
		</g>
		<path style="fill:#F76A52;" d="M887.602,249.444c0,0-3.417,0.61-6.501,0.456c-3.083-0.155-6.403,2.319-6.403,2.319
			s-3.515-1.253-6.126-0.081c-2.612,1.172-8.657,1.546-8.657,1.546s8.673,13.025,16.337,11.187S887.602,249.444,887.602,249.444z"/>
		<path style="fill:#FFFFFF;" d="M883.681,252.495c0,0-10.569,4.003-20.21,2.669c0,0,6.11,5.256,11.431,4.776
			S883.681,252.495,883.681,252.495z"/>
	</g>
	<path style="fill:#40250C;" d="M827.634,231.014c0,0,17.408-9.891,7.919-36.548c0,0,18.848,13.28,10.939,30.968
		c0,0,26.188-8.427,9.899-36.7c0,0,11.768,21.354,7.08,30.285c0,0,10.128-15.917-3.66-30.862c0,0,13.54,13.013,15.613,32.419
		c0,0,13.016-13.559,2.338-30.236c0,0,14.712,6.554,16.927,30.175c0,0,2.517-7.872-2.215-23.621c0,0,7.157,18.662,6.635,30.756
		c0,0,16.868-19.391,8.489-39.493c-9.192-22.053-27.443-31.756-63.354-25.31C817.47,167.654,796.589,212.164,827.634,231.014z"/>
	<g>
		<path style="fill:#B3A8A6;" d="M810.058,226.345c2.87-4.913,7.919-8.689,14.902-7.651c6.983,1.037,14.706,6.437,16.062,16.152
			c1.356,9.715-5.921,23.39-21.536,19.423C800.784,249.519,810.058,226.345,810.058,226.345z"/>
		
			<ellipse transform="matrix(0.9664 -0.2572 0.2572 0.9664 -33.3424 219.2623)" style="fill:#C3B9B7;" cx="821.634" cy="237.109" rx="15.12" ry="17.768"/>
		
			<rect x="815.871" y="208.617" transform="matrix(0.9803 -0.1977 0.1977 0.9803 -27.1056 165.949)" style="fill:#B3A8A6;" width="2.984" height="20.154"/>
		<path style="fill:#F8F3F1;" d="M831.232,234.555c1.658,6.23-1.296,12.423-6.597,13.834c-5.301,1.411-10.942-2.496-12.6-8.725
			c-1.658-6.229,1.296-12.423,6.597-13.834C823.933,224.419,829.575,228.325,831.232,234.555z"/>
		<path style="fill:#C3B9B7;" d="M811.617,210.896c1.02,4.088,8.627,3.334,8.727-2.322c0.101-5.657-5.04-34.484,23.9-45.725
			c0,0-15.375-0.736-23.735,9.21C813.543,180.345,806.968,192.262,811.617,210.896z"/>
	</g>
	<g>
		<path style="fill:#F76A52;" d="M907.56,376.272c-0.403,0-0.784-0.246-0.935-0.646c-0.195-0.517,0.065-1.094,0.582-1.289
			c0.084-0.031,8.527-3.2,21.153-5.89c0.537-0.116,1.07,0.228,1.187,0.771c0.114,0.54-0.23,1.071-0.771,1.186
			c-12.466,2.654-20.779,5.772-20.862,5.804C907.798,376.251,907.679,376.272,907.56,376.272z"/>
	</g>
	<g>
		<path style="fill:#281506;" d="M899.113,204.286c-0.1,0-0.201-0.015-0.302-0.046c-0.525-0.166-0.818-0.727-0.653-1.254
			c0.19-0.605,4.476-14.96-10.542-25.617c-0.45-0.319-0.556-0.944-0.236-1.394c0.32-0.451,0.943-0.557,1.394-0.237
			c16.237,11.522,11.343,27.689,11.291,27.851C899.931,204.014,899.537,204.286,899.113,204.286z"/>
	</g>
	<g>
		<path style="fill:#281506;" d="M835.553,170.57c-0.427,0-0.822-0.275-0.955-0.705c-0.163-0.528,0.132-1.088,0.659-1.251
			c0.622-0.192,15.372-4.684,26.761-1.411c0.53,0.152,0.837,0.706,0.685,1.237c-0.152,0.532-0.707,0.84-1.237,0.685
			c-10.819-3.107-25.471,1.354-25.616,1.399C835.75,170.556,835.65,170.57,835.553,170.57z"/>
	</g>
</g>
<g>
	<g>
		<path style="fill:#AF4B3E;" d="M1373.769,298.085c0,0,7.639,32.092,11.983,44.517c7.785,22.27,15.908,61.058-3.268,66.953
			c-22.565,6.938-51.274-99.348-51.274-99.348L1373.769,298.085z"/>
		<path style="fill:#FF8F76;" d="M1161.404,422.144c-9.226-8.984-6.043-46.6,4.306-72.602
			c10.349-26.002,14.161-51.456,14.161-51.456l43.573,19.204c0,0-24.108,64.806-28.867,78.69
			C1189.818,409.863,1170.607,431.105,1161.404,422.144z"/>
		<path style="fill:#93BBD9;" d="M1234.888,266.175c-4.74-1.277-10.355-10.557-30.508-10.013
			c-20.152,0.545-29.956,49.404-38.671,70.645c0,0,32.135,19.063,47.385,19.608c0,0,0.544,58.278,3.268,74.073
			s-5.283,39.953-6.372,44.311c-1.089,4.357,6.536,7.625,3.812,11.983c-2.723,4.357-3.268,10.348-3.268,10.348
			s90.795,25.953,143.626-7.816c0,0-2.723-5.991-2.723-11.438s3.41-5.614-1.492-12.15c-4.902-6.536,0.942-9.916-2.871-17.542
			c-3.813-7.625-2.83-101.574-2.83-101.574s28.979-11.438,38.238-23.42c0,0-9.916-48.074-21.786-56.64
			c-21.242-15.327-46.319,7.116-46.319,7.116L1234.888,266.175z"/>
		<path style="fill:#422033;" d="M1255.306,226.318c0,0-8.715,1.578-11.983-3.977c-3.268-5.555-2.02-11.332-2.02-11.332
			s-6.303,0.257-9.494-3.655c-3.191-3.912,0.655-10.176,0.655-10.176s-16.051-9.764-16.102-24.782
			c-0.05-14.824,8.645-19.046,8.645-19.046s-6.194-8.459-1.292-19.08c4.902-10.621,16.067-10.076,16.067-10.076
			s-11.577-5.088-18.316,3.856c0,0,8.24-14.091,21.584-5.297c0,0,1.432-15.171,15.013-17.077c0,0-9.75,6.45-7.752,13.438
			c0,0,2.542-10.17,15.342-13.438c12.8-3.268,20.697,5.447,20.697,5.447s7.081-4.357,14.706-2.723
			c7.625,1.634,9.531,7.898,9.531,7.898s9.958,1.827,9.556,11.753c0,0,8.418,1.17,11.651,12.212
			c2.117,7.229-1.464,15.523-1.464,15.523s3.726,3.46,3.045,10.658c-0.68,7.198-4.131,9.545-4.131,9.545s3.383,2.677,2.819,7.673
			c-0.856,7.577-9.13,11.33-9.13,11.33s1.269,8.725-3.905,13.627c-5.174,4.902-9.259,6.576-9.259,6.576s-1.329,9.164-10.196,7.149
			C1290.709,220.327,1255.306,226.318,1255.306,226.318z"/>
		<g>
			<g>
				<g>
					<path style="fill:#AF4B3E;" d="M1314.379,263.667c0,0-18.413,31.632-33.832,34.274c-15.419,2.641-45.659-31.766-45.659-31.766
						s9.52-3.729,14.214-13.777c2.035-4.372,3.319-13.438,4.122-22.272c1.053-11.457,1.267-22.522,1.267-22.522l48.042-0.25
						c1.249,2.07,0.143,16.668-0.303,28.893c-0.232,6.496-0.286,12.314,0.303,15.187
						C1304.212,259.751,1314.379,263.667,1314.379,263.667z"/>
					<path style="fill:#96362F;" d="M1302.231,236.248c-7.014,7.049-15.812,13.456-24.217,12.885
						c-11.529-0.785-20.095-11.386-24.788-19.006c1.053-11.457,1.267-22.522,1.267-22.522l48.042-0.25
						C1303.783,209.425,1302.677,224.023,1302.231,236.248z"/>
				</g>
				<g>
					<path style="fill:#B3A8A6;" d="M1243.178,205.478L1243.178,205.478c-3.031,0.625-5.995-1.326-6.621-4.357l-4.927-23.89
						c-0.625-3.031,1.326-5.995,4.357-6.621l0,0c3.031-0.625,5.995,1.326,6.621,4.357l4.927,23.89
						C1248.16,201.889,1246.209,204.853,1243.178,205.478z"/>
					<path style="fill:#C3B9B7;" d="M1243.178,205.478L1243.178,205.478c-6.063,1.25-11.991-2.651-13.241-8.714l-2.663-12.912
						c-1.25-6.063,2.651-11.991,8.714-13.241l0,0L1243.178,205.478z"/>
					<path style="fill:#F8F3F1;" d="M1232.248,200.65L1232.248,200.65c-2.231,0.46-4.413-0.976-4.873-3.207l-2.722-13.201
						c-0.46-2.231,0.976-4.413,3.207-4.873l0,0C1230.091,178.909,1234.48,200.19,1232.248,200.65z"/>
				</g>
				<g>
					<path style="fill:#B3A8A6;" d="M1313.605,205.566L1313.605,205.566c3.072,0.379,5.869-1.804,6.248-4.876l2.985-24.209
						c0.379-3.072-1.804-5.869-4.876-6.248l0,0c-3.072-0.379-5.869,1.804-6.248,4.876l-2.985,24.209
						C1308.35,202.39,1310.533,205.188,1313.605,205.566z"/>
					<path style="fill:#C3B9B7;" d="M1313.605,205.566L1313.605,205.566c6.144,0.758,11.738-3.609,12.496-9.752l1.613-13.085
						c0.757-6.144-3.609-11.738-9.753-12.496l0,0L1313.605,205.566z"/>
					<path style="fill:#F8F3F1;" d="M1324.11,199.873L1324.11,199.873c2.261,0.279,4.32-1.328,4.599-3.589l1.649-13.377
						c0.279-2.261-1.328-4.32-3.589-4.599l0,0C1324.508,178.029,1321.849,199.594,1324.11,199.873z"/>
				</g>
				<path style="fill:#AF4B3E;" d="M1279.161,242.023c11.78,0.319,27.129-18.111,29.235-30.301
					c2.106-12.189,4.846-34.112,4.794-49.128c-0.052-15.017-2.064-29.226-13.574-32.465c-11.509-3.239-39.223-2.727-46.412,1.784
					c-7.189,4.511-11.901,21.314-11.901,31.968c0,10.654,6.04,46.273,9.554,51.311
					C1254.372,220.23,1267.049,241.695,1279.161,242.023z"/>
				<g>
					<path style="fill:#260918;" d="M1250.073,174.025c-0.303,0-0.603-0.137-0.799-0.397c-0.333-0.44-0.245-1.068,0.195-1.4
						c8.118-6.131,18.272-1.972,18.7-1.792c0.509,0.214,0.747,0.799,0.534,1.308c-0.214,0.509-0.802,0.749-1.309,0.536
						c-0.093-0.039-9.532-3.884-16.721,1.543C1250.494,173.959,1250.283,174.025,1250.073,174.025z"/>
				</g>
				<g>
					<path style="fill:#260918;" d="M1306.692,173.798c-0.259,0-0.517-0.1-0.713-0.298c-6.747-6.854-16.911-1.349-17.013-1.292
						c-0.481,0.268-1.092,0.093-1.359-0.391c-0.268-0.483-0.093-1.092,0.391-1.359c0.115-0.064,11.606-6.283,19.407,1.639
						c0.387,0.393,0.382,1.027-0.012,1.414C1307.199,173.702,1306.945,173.798,1306.692,173.798z"/>
				</g>
				<g>
					<path style="fill:#96362F;" d="M1279.547,205.869c-0.231,0-0.464-0.08-0.652-0.242c-0.418-0.36-0.466-0.99-0.106-1.409
						c0.138-0.163,3.097-3.742,0.015-7.176c-0.369-0.411-0.335-1.044,0.076-1.412c0.41-0.368,1.043-0.336,1.412,0.076
						c3.419,3.809,1.504,8.086,0.014,9.816C1280.106,205.752,1279.827,205.869,1279.547,205.869z"/>
				</g>
				<ellipse style="fill:#350B0B;" cx="1259.229" cy="188.103" rx="2.738" ry="4.443"/>
				<ellipse style="fill:#350B0B;" cx="1295.265" cy="187.92" rx="2.738" ry="4.443"/>
				<g>
					<path style="fill:#96362F;" d="M1278.86,216.934c-4.505,0-8-0.854-8.271-0.922c-0.535-0.134-0.859-0.677-0.726-1.213
						c0.134-0.536,0.678-0.862,1.213-0.727c0.117,0.03,11.878,2.89,19.748-2.12c0.467-0.297,1.084-0.159,1.381,0.307
						s0.159,1.084-0.307,1.381C1287.816,216.238,1282.927,216.934,1278.86,216.934z"/>
				</g>
			</g>
		</g>
		<path style="fill:#C3B9B7;" d="M1234.888,162.488c0,0-0.456-42.926,43.279-44.5c46.06-1.658,40.092,51.061,40.092,51.061
			l-36.012-35.561L1234.888,162.488z"/>
		<path style="fill:#422033;" d="M1258.719,127.908c11.05-4.279,43.138-5.817,54.304,5.762
			c11.165,11.579,13.469,31.547,9.913,44.074c-2.722,9.589-11.268,15.463-11.268,15.463c-2.571-8.064,0.73-22.544-4.444-26.399
			c-5.174-3.855-7.75-11.417-7.75-11.417c-3.12,5.698,3.392,11.417,3.392,11.417c-15.523-1.132-22.059-12.369-22.059-12.369
			c1.089,5.29,7.353,9.143,7.353,9.143c-13.616-2.179-16.787-13.889-16.787-13.889s-2.752,14.894-11.312,20.068s-14.903,0-14.903,0
			c10.033-1.634,12.299-15.795,12.299-15.795s-8.444,9.69-12.299,12.611s-1.239,25.768-1.239,25.768s-10.06-10.171-11.455-20.285
			C1231.069,161.949,1237.623,136.077,1258.719,127.908z"/>
		<g>
			<path style="fill:#260918;" d="M1233.648,172.037c-0.373,0-0.73-0.209-0.902-0.567c-0.182-0.378-4.397-9.408,0.771-21.15
				c0.222-0.505,0.811-0.736,1.317-0.513c0.506,0.223,0.735,0.813,0.513,1.318c-4.801,10.909-0.839,19.394-0.798,19.479
				c0.239,0.498,0.029,1.095-0.468,1.335C1233.941,172.005,1233.793,172.037,1233.648,172.037z"/>
		</g>
		<g>
			<path style="fill:#260918;" d="M1231.809,135.543c-0.161,0-0.324-0.039-0.476-0.121c-0.485-0.263-0.666-0.87-0.402-1.356
				c3.548-6.546,9.296-7.038,12.058-7.275c0.482-0.041,1.083-0.093,1.245-0.158c0.451-0.319,1.043-0.194,1.361,0.255
				c0.32,0.45,0.182,1.094-0.269,1.414c-0.475,0.337-1.147,0.394-2.167,0.481c-2.599,0.223-7.437,0.637-10.471,6.235
				C1232.508,135.354,1232.164,135.543,1231.809,135.543z"/>
		</g>
		<g>
			<path style="fill:#260918;" d="M1250.073,125.733c-0.024,0-0.049-0.001-0.074-0.002c-0.551-0.041-0.965-0.52-0.924-1.071
				c0.021-0.293,0.659-7.233,12.242-11.215c0.523-0.181,1.091,0.099,1.271,0.621c0.18,0.522-0.098,1.091-0.62,1.271
				c-10.349,3.557-10.894,9.411-10.898,9.47C1251.031,125.332,1250.593,125.733,1250.073,125.733z"/>
		</g>
		<g>
			<path style="fill:#260918;" d="M1322.505,175.033c-0.082,0-0.165-0.01-0.248-0.031c-0.535-0.136-0.858-0.68-0.722-1.215
				c0.041-0.162,4.051-16.288-0.441-29.559c-0.177-0.523,0.104-1.091,0.627-1.268c0.521-0.178,1.09,0.104,1.268,0.626
				c4.686,13.843,0.658,30.013,0.484,30.694C1323.357,174.733,1322.951,175.033,1322.505,175.033z"/>
		</g>
		<g>
			<path style="fill:#260918;" d="M1313.022,167.443c-0.282,0-0.563-0.12-0.762-0.352c-0.357-0.42-0.308-1.05,0.111-1.408l0,0
				c0.295-0.253,7.178-6.318,4.104-16.694c-0.156-0.53,0.146-1.086,0.675-1.243c0.53-0.155,1.087,0.146,1.243,0.675
				c3.451,11.655-4.389,18.498-4.724,18.784C1313.482,167.364,1313.252,167.443,1313.022,167.443z"/>
		</g>
		<g>
			<path style="fill:#260918;" d="M1270.829,142.352c-0.006,0-0.013,0-0.019,0c-0.553-0.011-0.992-0.467-0.981-1.019
				c0.1-5.23-1.313-10.562-1.328-10.615c-0.143-0.533,0.173-1.082,0.706-1.225c0.53-0.14,1.082,0.172,1.226,0.706
				c0.062,0.228,1.501,5.652,1.396,11.172C1271.818,141.917,1271.373,142.352,1270.829,142.352z"/>
		</g>
		<g>
			<path style="fill:#260918;" d="M1298.002,152.988c-0.479,0-0.901-0.345-0.984-0.832c-2.583-15.167-11.86-17.6-12.254-17.695
				c-0.535-0.131-0.865-0.67-0.737-1.206c0.129-0.535,0.669-0.867,1.2-0.74c0.445,0.104,10.945,2.759,13.762,19.305
				c0.093,0.544-0.273,1.061-0.817,1.154C1298.114,152.983,1298.058,152.988,1298.002,152.988z"/>
		</g>
		<g>
			<path style="fill:#A2CEED;" d="M1216.364,346.429c-0.052,0-0.104-0.005-0.158-0.016c-0.442-0.087-0.731-0.516-0.645-0.959
				l3.813-19.484c0.087-0.442,0.508-0.734,0.959-0.645c0.442,0.087,0.731,0.516,0.645,0.959l-3.813,19.484
				C1217.089,346.158,1216.747,346.429,1216.364,346.429z"/>
		</g>
	</g>
	<g>
		<path style="fill:#A2CEED;" d="M1250.672,488.299c-0.004,0-0.009,0-0.014-0.001c-16.433-0.268-39.687-18.98-40.668-19.776
			c-0.351-0.284-0.404-0.799-0.12-1.149c0.285-0.351,0.798-0.403,1.149-0.12c0.236,0.191,23.798,19.153,39.666,19.413
			c0.451,0.007,0.811,0.379,0.803,0.83C1251.481,487.942,1251.117,488.299,1250.672,488.299z"/>
	</g>
	<g>
		<path style="fill:#A2CEED;" d="M1335.093,477.072c-0.401,0-0.752-0.297-0.809-0.706c-0.062-0.446,0.251-0.859,0.698-0.921
			c4.129-0.57,15.894-8.177,16.012-8.254c0.377-0.244,0.885-0.137,1.13,0.241c0.245,0.378,0.138,0.884-0.241,1.13
			c-0.495,0.321-12.191,7.883-16.678,8.502C1335.168,477.069,1335.13,477.072,1335.093,477.072z"/>
	</g>
	<g>
		<path style="fill:#F76A52;" d="M1168.764,373.112c-0.174,0-0.349-0.056-0.497-0.17c-0.358-0.275-0.425-0.788-0.149-1.145
			l24.334-31.596c0.276-0.357,0.788-0.425,1.146-0.149c0.358,0.275,0.425,0.788,0.149,1.146l-24.334,31.596
			C1169.251,373.001,1169.009,373.112,1168.764,373.112z"/>
	</g>
	<g>
		<path style="fill:#F76A52;" d="M1224.323,375.511c-0.333,0-0.646-0.206-0.768-0.537c-0.103-0.282-2.474-6.944,1.557-10.698
			c0.33-0.308,0.846-0.289,1.154,0.041c0.308,0.33,0.289,0.847-0.041,1.154c-3.245,3.023-1.156,8.884-1.135,8.942
			c0.154,0.424-0.063,0.893-0.487,1.048C1224.511,375.494,1224.416,375.511,1224.323,375.511z"/>
	</g>
	<g>
		<path style="fill:#A2CEED;" d="M1344.247,337.429c-0.018,0-0.036-0.001-0.054-0.002c-0.45-0.029-0.792-0.418-0.763-0.868
			c0.012-0.184,1.167-18.372-0.954-26.237c-0.117-0.436,0.141-0.884,0.576-1.002c0.43-0.11,0.884,0.14,1.002,0.576
			c2.191,8.126,1.056,26.012,1.007,26.769C1345.033,337.097,1344.674,337.429,1344.247,337.429z"/>
	</g>
</g>
<path style="fill:#422033;" d="M222.71,154.997c0.942,8.42-1.71,17.206-2.377,21.515c-0.667,4.309-1.667,20.309,15.333,32.309
	S249,236.907,249,236.907s-2-8.459-8-15.273c0,0,8.708,19.596,4.667,28.323c-4.042,8.727-16.985,16.794-20.826,22.995
	c-3.841,6.201-128.127,0-128.127,0S78,266.578,81.667,254.199c3.667-12.378,16.667-18.373,17.333-28.376
	c0,0-6.286,14.17-17.81,11.084c0,0,10.06-3.424,12.268-13.922c2.208-10.498-3.428-14.977,2.694-24.51
	c6.122-9.533,19.134-32.417,19.134-32.417S222.022,148.844,222.71,154.997z"/>
<path style="fill:#AF4B3E;" d="M68.291,380.555c5.696,1.007,19.692-5.401,29.867-17.401c10.175-12,22.175-34.667,22.175-34.667
	l-31.267-13.13C89.066,315.357,59.249,378.956,68.291,380.555z"/>
<g>
	<g>
		<path style="fill:#AF4B3E;" d="M267.836,299l37.645,9.372c0,0-7.654-64.58-8.917-70.666c-1.263-6.086,19.08-11.034,21.187-3.337
			c2.108,7.697,34.696,94.434,21.837,110.088c-12.859,15.654-83.854-8.28-83.854-8.28L267.836,299z"/>
		<path style="fill:#AF4B3E;" d="M316.652,232.477c3.058-6.746,9.44-17.373,13.881-28.9c4.441-11.527,6.986-18.705,4.705-24.645
			c-1.209-3.148-7.907-9.986-10.524-7.127c-2.617,2.858-21.784,36.127-25.415,36.932s-2.261-6.447-2.807-9.478
			c-0.547-3.032-3.236-8.986-5.899-7.811c-2.663,1.175-0.159,4.115-1.461,9.805c-1.302,5.69-2.484,12.929-0.893,18.747
			c1.59,5.818,5.035,11.913,8.324,17.707C302.586,248.316,314.036,238.249,316.652,232.477z"/>
		<g>
			<path style="fill:#96362F;" d="M303.95,230.118c-0.095,0-0.19-0.013-0.286-0.042c-0.529-0.157-0.831-0.713-0.674-1.242
				c0.093-0.311,2.338-7.69,8.974-13.126c0.428-0.349,1.057-0.287,1.407,0.14c0.35,0.427,0.288,1.057-0.14,1.407
				c-6.145,5.034-8.303,12.079-8.324,12.149C304.778,229.837,304.38,230.118,303.95,230.118z"/>
		</g>
		<g>
			<path style="fill:#96362F;" d="M325.655,207.82c-0.241,0-0.482-0.086-0.674-0.261c-0.061-0.055-6.18-5.558-16.001-7.923
				c-0.537-0.129-0.868-0.669-0.738-1.206c0.129-0.537,0.671-0.866,1.206-0.738c10.347,2.491,16.621,8.151,16.883,8.391
				c0.407,0.373,0.435,1.004,0.063,1.412C326.196,207.711,325.926,207.82,325.655,207.82z"/>
		</g>
		<g>
			<path style="fill:#96362F;" d="M323.383,206.057c-0.214,0-0.429-0.068-0.611-0.209c-0.436-0.338-0.517-0.966-0.179-1.403
				c3.26-4.217,11.174-22.064,11.254-22.244c0.224-0.505,0.812-0.734,1.319-0.51c0.505,0.224,0.733,0.814,0.51,1.319
				c-0.329,0.743-8.094,18.251-11.501,22.658C323.977,205.923,323.682,206.057,323.383,206.057z"/>
		</g>
		<g>
			<path style="fill:#96362F;" d="M316.846,202.322c-0.218,0-0.437-0.071-0.621-0.216c-0.433-0.343-0.506-0.972-0.163-1.405
				c5.414-6.835,14.667-26.708,14.76-26.908c0.232-0.501,0.827-0.719,1.328-0.486c0.501,0.233,0.719,0.828,0.486,1.328
				c-0.383,0.825-9.446,20.288-15.007,27.308C317.433,202.192,317.141,202.322,316.846,202.322z"/>
		</g>
		<g>
			<path style="fill:#96362F;" d="M311.204,200.2c-0.184,0-0.369-0.05-0.535-0.156c-0.466-0.296-0.604-0.914-0.308-1.38
				c7.063-11.119,16.724-27.463,16.821-27.628c0.281-0.476,0.895-0.633,1.37-0.352c0.475,0.281,0.633,0.894,0.352,1.37
				c-0.097,0.164-9.774,16.536-16.854,27.682C311.858,200.036,311.535,200.2,311.204,200.2z"/>
		</g>
	</g>
	<path style="fill:#FF7B8F;" d="M120.005,388.935c-1.261,9.083-15.293,37.243-15.293,37.243s44.957,8.219,67.264,6.503
		c22.307-1.716,67.504-13.727,67.504-13.727s-9.935-33.237-11.085-38.608c-1.15-5.371-0.566-42.057-0.566-42.057
		c18.807-2.677,49.401-42.226,49.401-42.226s-26.072-29.153-33.375-35.745c-7.855-7.092-27.355-6.958-41.394,2.569
		c-6.668,4.526-51.01-3.16-61.506-5.607c-17.39-4.054-37.824-9.686-50.555,10.673c-5.652,9.038-23.489,49.534-23.489,49.534
		c10.278,6.486,48.374,18.08,48.374,18.08C114.771,343.564,122.427,371.487,120.005,388.935z"/>
	<g>
		<path style="fill:#A5B2DB;" d="M228.396,336.426c-0.437,0-0.81-0.332-0.853-0.775c-0.024-0.247-2.422-24.793-3.548-31.586
			c-0.078-0.468,0.238-0.909,0.706-0.987c0.466-0.079,0.909,0.238,0.986,0.706c1.136,6.85,3.54,31.453,3.564,31.701
			c0.046,0.472-0.299,0.891-0.771,0.937C228.452,336.424,228.424,336.426,228.396,336.426z"/>
	</g>
</g>
<rect y="397.154" style="fill:#CCE1ED;" width="1466.042" height="120.333"/>
<path style="fill:#FF8F76;" d="M797.966,269.672c-13.596-6.11-28.524,3.968-31.541,32.625c-4.679,44.442-13.066,79.818-6.204,93.471
	c6.862,13.654,99.491,4.719,101.068-2.614c1.577-7.333-46.791-11.737-69.233-19.898c0,0,7.065-34.399,9.036-47.514
	C803.064,312.626,811.573,275.786,797.966,269.672z"/>
<path style="fill:#FFD188;" d="M502.5,277.037c-7.563,0.383-25.5-10.451-46.5,0c-21,10.451-11.564,44.89-27.5,83.451
	c-10.938,26.466-18.224,46.715,17.138,56.575c35.362,9.859,134.699-3.886,144.53-6.98c9.832-3.095,41.332,7.095,48.832,0
	c7.5-7.095,2.982-43.376,8.241-66.735c5.259-23.359,19.259-43.171,9.259-62.765s-50,4.981-80,2.194
	C546.5,279.987,502.5,277.037,502.5,277.037z"/>
<path style="fill:#FFFFF7;" d="M527.044,245.716c-7.918,2.502-13.702,13.388-19.873,16.83c-6.171,3.442-12.977,4.824-15.574,8.633
	c-2.597,3.809,47.988,55.582,62.196,52.695c14.207-2.887,46.158-32.311,49.933-41.099c3.774-8.788-13.388-16.535-19.093-27.361
	C578.928,244.589,540.596,241.434,527.044,245.716z"/>
<polygon style="fill:#FFFFFF;" points="807.656,411.268 856.769,435.958 899.076,426.72 850.617,406.695 "/>
<g>
	<g>
		<path style="fill:#FF8F76;" d="M574.152,283.796c0,0-12.778,23.543-24.09,23.958c-11.29,0.416-28.925-23.411-28.925-23.411
			c3.304-3.698,5.032-8.927,5.908-14.134c1.554-9.452,0.241-18.795,0.241-18.795s41.025-29.778,40.478-0.109
			c-0.131,7.549,0.197,13.369,0.81,17.832C570.301,282.242,574.152,283.796,574.152,283.796z"/>
		<path style="fill:#F76A52;" d="M568.572,269.136c-4.835,4.879-10.656,9.168-16.935,10.459
			c-10.415,2.144-19.364-4.267-24.593-9.387c1.554-9.452,0.241-18.795,0.241-18.795s41.025-29.778,40.478-0.109
			C567.631,258.853,567.959,264.673,568.572,269.136z"/>
	</g>
	<g>
		<path style="fill:#F25A3D;" d="M515.659,220.559c-0.679,0.622-23.302-4.601-24.026-20.027
			c-0.724-15.426,9.768-29.629,18.782-36.974c9.013-7.345,16.689-26.864,34.89-17.367c0,0,13.144-12.643,31.293-4.332
			c18.149,8.311,19.315,22.033,31.587,37.747c12.272,15.715,6.4,29.208,6.4,29.208s3.48-13.249-7.726-24.095
			c0,0,13.627,21.307-0.719,33.631c-14.347,12.324-36.049,16.073-36.049,16.073L515.659,220.559z"/>
		<g>
			<path style="fill:#FF8F76;" d="M518.96,235.82c-0.723-0.379-6.671-2.782-9.854-7.955c-3.183-5.173-7.167-15.699-4.045-21.012
				c3.122-5.312,11.338-0.936,13.82,4.766C521.363,217.321,522.369,237.609,518.96,235.82z"/>
		</g>
		<g>
			<path style="fill:#B3A8A6;" d="M514.16,241.808L514.16,241.808c-3.035,0.607-5.988-1.36-6.595-4.395l-4.788-23.918
				c-0.608-3.035,1.36-5.988,4.395-6.595l0,0c3.035-0.608,5.988,1.36,6.595,4.395l4.788,23.918
				C519.163,238.248,517.195,241.201,514.16,241.808z"/>
			<path style="fill:#C3B9B7;" d="M514.16,241.808L514.16,241.808c-6.07,1.215-11.975-2.72-13.191-8.79l-2.588-12.927
				c-1.215-6.07,2.72-11.975,8.79-13.191l0,0L514.16,241.808z"/>
			<path style="fill:#F8F3F1;" d="M503.258,236.917L503.258,236.917c-2.234,0.447-4.407-1.001-4.854-3.235l-2.646-13.216
				c-0.447-2.234,1.001-4.407,3.235-4.855l0,0C501.227,215.164,505.492,236.47,503.258,236.917z"/>
		</g>
		<g>
			<path style="fill:#B3A8A6;" d="M582.397,251.714L582.397,251.714c2.926,1.01,6.116-0.544,7.126-3.469l7.957-23.058
				c1.01-2.926-0.544-6.116-3.469-7.126l0,0c-2.926-1.01-6.116,0.544-7.126,3.469l-7.957,23.058
				C577.918,247.514,579.471,250.705,582.397,251.714z"/>
			<path style="fill:#C3B9B7;" d="M582.397,251.714L582.397,251.714c5.852,2.019,12.232-1.087,14.252-6.939l4.301-12.463
				c2.019-5.852-1.087-12.232-6.939-14.252l0,0L582.397,251.714z"/>
			<path style="fill:#F8F3F1;" d="M593.857,248.331L593.857,248.331c2.154,0.743,4.502-0.4,5.245-2.554l4.397-12.741
				c0.743-2.154-0.4-4.502-2.554-5.245h0C598.792,227.048,591.703,247.588,593.857,248.331z"/>
		</g>
		<path style="fill:#FF8F76;" d="M547.733,273.139c10.712,1.448,25.076-11.611,30.063-23.267
			c4.987-11.656,15.049-43.731,15.049-43.731s-4.41-44.374-36.023-46.309c-31.613-1.935-44.922,30.458-45.083,42.483
			c-0.161,12.025,4.571,32.687,6.327,40.497C519.822,250.624,529.591,270.688,547.733,273.139z"/>
		<path style="fill:#260918;" d="M533.323,221.925c-0.408,2.834-1.642,5.002-2.756,4.841c-1.114-0.16-1.686-2.588-1.278-5.422
			c0.408-2.834,1.642-5.002,2.756-4.841C533.159,216.663,533.731,219.091,533.323,221.925z"/>
		<path style="fill:#260918;" d="M570.72,228.491c-0.408,2.834-1.642,5.002-2.756,4.841c-1.114-0.161-1.686-2.588-1.278-5.422
			c0.408-2.834,1.642-5.002,2.756-4.841C570.557,223.229,571.129,225.657,570.72,228.491z"/>
		<g>
			<path style="fill:#F76A52;" d="M548.951,240.885c-0.393,0-0.739-0.282-0.808-0.682c-0.083-0.486,0.199-0.854,0.558-1.319
				c0.859-1.118,2.299-2.989,0.424-6.326c-0.222-0.395-0.081-0.895,0.315-1.117c0.396-0.222,0.894-0.081,1.117,0.313
				c2.404,4.282,0.33,6.979-0.555,8.13c-0.099,0.128-0.186,0.233-0.241,0.32c-0.058,0.333-0.318,0.609-0.67,0.669
				C549.044,240.881,548.997,240.885,548.951,240.885z M549.761,239.925c0,0.001,0,0.001,0,0.002
				C549.761,239.926,549.761,239.926,549.761,239.925z"/>
		</g>
		<g>
			<path style="fill:#E24B23;" d="M521.659,207.002c-0.257,0-0.509-0.12-0.669-0.345c-0.264-0.369-0.177-0.881,0.191-1.145
				c9.35-6.66,20.301-2.764,20.762-2.595c0.425,0.156,0.644,0.626,0.488,1.052c-0.156,0.425-0.623,0.646-1.052,0.489
				c-0.105-0.039-10.617-3.757-19.245,2.391C521.99,206.952,521.823,207.002,521.659,207.002z"/>
		</g>
		<g>
			<path style="fill:#E24B23;" d="M582.167,213.216c-0.162,0-0.327-0.048-0.47-0.149c-10.616-7.442-17.286-5.178-17.353-5.154
				c-0.428,0.153-0.898-0.069-1.05-0.495c-0.153-0.427,0.068-0.896,0.495-1.05c0.303-0.108,7.546-2.569,18.85,5.355
				c0.371,0.26,0.461,0.772,0.201,1.143C582.68,213.094,582.426,213.215,582.167,213.216z"/>
		</g>
		<path style="fill:#F25A3D;" d="M513.316,219.043c0,0-14.314-9.666-12.436-21.341c1.878-11.675,5.419-14.504,11.112-23.309
			c5.693-8.805,22.882-29.508,48.289-21.33c25.406,8.178,43.69,32.615,42.462,47.957c-1.228,15.341-15.809,23.39-15.809,23.39
			s-0.804-5.354-3.926-10.715c-3.122-5.361-14.96-16.691-16.579-31.656c0,0-4.143,14.921,13.619,33.391
			c0,0-15.386-5.163-20.819-19.892c-5.433-14.729-2.933-27.137-2.933-27.137s-11.422,14.289-0.29,35.905
			c0,0-20.09-10.751-13.223-31.37c0,0-3.392,5.404-4.849,16.98c-1.457,11.576-8.542,21.949-8.542,21.949s-7.541-21.975,3.601-36.411
			c0,0-19.432,14.683-9.023,35.826c0,0-8.855-3.829-8.217-12.773C515.753,198.507,511.579,209.354,513.316,219.043z"/>
		<g>
			<path style="fill:#E24B23;" d="M504.894,211.692c-0.192,0-0.386-0.067-0.542-0.204c-0.128-0.113-12.635-11.483,2.172-30.495
				c0.278-0.357,0.794-0.423,1.151-0.144c0.357,0.278,0.422,0.794,0.144,1.151c-13.868,17.807-2.499,28.152-2.383,28.255
				c0.34,0.299,0.373,0.818,0.074,1.158C505.348,211.597,505.121,211.692,504.894,211.692z"/>
		</g>
		<g>
			<path style="fill:#E24B23;" d="M500.531,185.938c-0.125,0-0.25-0.028-0.369-0.088c-0.405-0.204-0.567-0.698-0.363-1.102
				c0.065-0.13,6.664-13.066,16.79-21.635c0.346-0.292,0.863-0.249,1.156,0.097c0.293,0.346,0.25,0.863-0.096,1.156
				c-9.876,8.356-16.322,20.995-16.386,21.122C501.12,185.773,500.831,185.938,500.531,185.938z"/>
		</g>
		<g>
			<path style="fill:#E24B23;" d="M516.335,195.286c-0.007,0-0.015,0-0.023,0c-0.453-0.013-0.81-0.39-0.798-0.843
				c0.011-0.382,0.341-9.41,7.614-14.786c0.365-0.27,0.879-0.192,1.147,0.172c0.268,0.364,0.192,0.878-0.173,1.148
				c-6.637,4.906-6.946,13.426-6.948,13.512C517.143,194.933,516.778,195.286,516.335,195.286z"/>
		</g>
		<g>
			<path style="fill:#E24B23;" d="M532.485,159.111c-0.186,0-0.371-0.062-0.525-0.189c-0.349-0.29-0.396-0.807-0.106-1.155
				c4.295-5.167,8.801-6.443,11.536-6.683c-0.71-0.376-1.637-0.737-2.767-0.928c-3.317-0.559-7.056,0.623-10.803,3.427
				c-0.363,0.271-0.877,0.197-1.148-0.166c-0.272-0.363-0.197-0.877,0.166-1.148c5.828-4.362,10.469-4.279,13.331-3.439
				c2.497,0.731,4.169,2.216,4.403,2.841c0.104,0.279,0.05,0.593-0.143,0.82c-0.193,0.227-0.489,0.333-0.787,0.273
				c-0.262-0.049-6.529-1.163-12.526,6.052C532.954,159.011,532.721,159.111,532.485,159.111z"/>
		</g>
		<g>
			<path style="fill:#E24B23;" d="M595.835,217.686c-0.219,0-0.437-0.086-0.598-0.258c-0.311-0.33-0.295-0.849,0.034-1.16
				c0.522-0.494,12.702-12.273,4.03-28.075c-0.218-0.397-0.072-0.896,0.325-1.114c0.398-0.22,0.896-0.072,1.114,0.325
				c9.291,16.932-4.208,29.93-4.345,30.059C596.238,217.613,596.036,217.686,595.835,217.686z"/>
		</g>
		<g>
			<path style="fill:#E24B23;" d="M578.619,151.221c-0.176,0-0.354-0.056-0.503-0.173c-8.874-6.907-16.473-6.852-21.285-5.589
				c-5.172,1.357-8.205,4.339-8.54,4.959c-0.049,0.375-0.354,0.677-0.745,0.71c-0.461,0.034-0.849-0.298-0.886-0.75
				c-0.097-1.159,2.428-3.25,4.923-4.601c3.979-2.153,14.629-6.078,27.541,3.975c0.357,0.278,0.422,0.794,0.144,1.151
				C579.105,151.113,578.864,151.221,578.619,151.221z M548.272,150.457L548.272,150.457L548.272,150.457z M548.295,150.243
				c0,0,0,0.001,0,0.002C548.295,150.244,548.295,150.244,548.295,150.243z"/>
		</g>
		<g>
			<path style="fill:#E24B23;" d="M599.003,201.891c-0.072,0-0.146-0.01-0.22-0.03c-0.436-0.121-0.691-0.572-0.571-1.007
				c0.044-0.164,3.597-14.497-17.806-31.804c-0.353-0.285-0.407-0.802-0.122-1.154c0.285-0.351,0.803-0.406,1.153-0.122
				c22.33,18.057,18.529,32.894,18.356,33.516C599.692,201.652,599.363,201.891,599.003,201.891z"/>
		</g>
	</g>
	<path style="fill:#C3B9B7;" d="M516.335,171.928c7.885-6.474,14.665-18.583,43.415-13.637c28.75,4.946,36.084,25.446,36.084,25.446
		s-2.316-27.416-35.834-32.549C527.301,146.181,516.335,171.928,516.335,171.928z"/>
</g>
<polygon style="fill:#FFFFFF;" points="344.547,448.642 367.645,494.065 430.784,486.089 398.897,442.304 "/>
<polygon style="fill:#FFFFFF;" points="566.735,421.15 543.637,466.572 480.498,458.596 512.384,414.812 "/>
<g>
	<g>
		<path style="fill:#933F1D;" d="M463.505,421.122c0.286,1.061-0.176,8.476-1.609,9.26c-1.433,0.784-2.905,1.306-5.164,2.441
			c-2.259,1.135-50.55,26.614-52.056,26.898c-1.506,0.284-75.853-25.342-76.539-26.1c-0.686-0.759,57.606-32.063,57.606-32.063
			S463.141,419.768,463.505,421.122z"/>
		<path style="fill:#F7DBC4;" d="M331.95,433.221l-0.744-6.793l18.216-0.643l111.27-3.917c0,0-5.5,5.388-1.218,7.975l-54.328,28.284
			L331.95,433.221z"/>
		<path style="fill:#DBBFA9;" d="M331.95,433.221l-0.744-6.793l18.216-0.643c23.851,8.606,60.117,22.203,57.663,24.432
			c-3.655,3.29-1.939,7.909-1.939,7.909L331.95,433.221z"/>
		<path style="fill:#592A44;" d="M459.869,430.196c0.056-0.001,0.12-0.024,0.136-0.057c0.165-0.332,0.066-0.404-0.166-0.703
			c-0.418-0.54-0.697-1.089-0.772-1.694c-0.125-1.015,0.946-3.977,1.282-4.986c0.169-0.507-1.182-0.543-1.495-0.094
			c-0.745,1.068-1.538,4.313-1.297,5.396C457.715,428.771,458.266,430.224,459.869,430.196z"/>
		<path style="fill:#933F1D;" d="M405.581,452.115c-4.184-0.643-27.112-9.152-34.206-11.358
			c-7.095-2.206-41.953-13.486-42.662-14.496s46.314-22.543,48.93-24.402s3.287-2.821,6.321-3.444
			c3.034-0.624,77.126,21.114,79.024,22.266c1.897,1.152-0.569,1.212-3.958,2.732c-3.389,1.52-1.641,1.639-6.473,4.335
			C447.724,430.444,407.209,452.365,405.581,452.115z"/>
	</g>
	<g>
		<path style="fill:#F25A3D;" d="M450.633,407.098c0.423,1.153,2.064,6.25,0.558,7.153c-1.506,0.903-4.107,2.095-6.491,3.409
			c-2.385,1.314-53.238,30.737-54.875,31.096c-1.637,0.359-86.866-25.581-87.701-26.39c-0.835-0.809,60.615-34.314,60.615-34.314
			S450.093,405.627,450.633,407.098z"/>
		<path style="fill:#F7DBC4;" d="M306.602,421.873L304.911,417l20.088-1.279l122.689-7.803c0,0-5.396,3.782-0.399,6.483
			l-57.233,32.715L306.602,421.873z"/>
		<path style="fill:#DBBFA9;" d="M306.602,421.873L304.911,417l20.088-1.279c27.249,8.673,68.742,22.415,66.245,24.935
			c-3.709,3.722-1.187,6.461-1.187,6.461L306.602,421.873z"/>
		<path style="fill:#A02B1C;" d="M447.665,414.525c0.062-0.003,0.13-0.03,0.144-0.066c0.149-0.369,0.032-0.444-0.255-0.765
			c-0.517-0.578-0.881-1.171-1.025-1.831c-0.241-1.108,0.22-2.184,0.49-3.301c0.136-0.56-1.362-0.557-1.663-0.056
			c-0.716,1.194-0.841,2.571-0.466,3.749C445.139,413.033,445.894,414.607,447.665,414.525z"/>
		<path style="fill:#F25A3D;" d="M391.04,443.28c-4.693-0.572-32.179-9.662-40.25-11.854c-8.07-2.192-47.766-13.443-48.652-14.526
			c-0.886-1.083,48.961-26.146,51.668-28.264c2.706-2.118,3.352-3.193,6.645-3.971c3.293-0.779,87.349,20.764,89.563,21.966
			c2.215,1.201-0.413,1.266-4.009,3.037c-3.596,1.771-1.962,2.631-7.036,5.736C433.897,418.509,392.866,443.503,391.04,443.28z"/>
		<polygon style="fill:#A02B1C;" points="427.336,412.973 423.138,411.817 390.528,430.322 394.432,431.656 		"/>
	</g>
</g>
<g>
	<path style="fill:#FF8F76;" d="M575.939,250.561c-2.396,2.533-8.296,11.623-8.891,13.102c-0.595,1.479,2.573,10.372,2.573,10.372
		s20.268,5.453,23.896,3.347c3.628-2.106,5.483,1.78,4.819-6.774c-0.115-1.477-3.664-18.398-5.338-20.021
		C590.833,248.488,578.029,248.352,575.939,250.561z"/>
	<g>
		<path style="fill:#F76A52;" d="M590.566,278.673c-6.679,0-19.437-3.371-21.162-3.835l-0.421-0.113l-0.146-0.411
			c-0.984-2.763-3.204-9.362-2.562-10.961c0.618-1.538,6.544-10.706,9.059-13.364c2.357-2.49,7.293-1.851,7.5-1.821
			c0.455,0.062,0.773,0.481,0.712,0.936c-0.062,0.456-0.49,0.775-0.935,0.713c-1.192-0.159-4.6-0.235-6.067,1.316
			c-2.318,2.45-8.184,11.5-8.723,12.841c-0.24,0.824,1.055,5.419,2.439,9.369c7.756,2.06,20.457,4.699,22.84,3.319
			c0.397-0.231,0.906-0.096,1.138,0.302c0.232,0.397,0.096,0.907-0.302,1.138C593.24,278.506,592.054,278.673,590.566,278.673z"/>
	</g>
	<path style="fill:#FF8F76;" d="M581.714,416.535c-7.712,0.477-22.405-22.652-25.06-33.059s-15.837-101.614-13.366-107.382
		c2.471-5.768,39.956-5.436,39.956-5.436s-2.865-2.743-2.027-6.996c0,0-2.438,4.082-6.861,4.358
		c-3.367,0.21-3.799-1.662-3.799-1.662s2.005-6.518,5.42-12.165c2.391-3.954,13.227-0.216,14.842,1.613
		c2.674,3.028,4.714,12.359,5.784,16.933c1.07,4.574,1.765,7.587-3.603,9.978c-5.368,2.391-24.904,6.362-24.904,6.362
		s2.764,15.133,6.544,29.173c3.78,14.04,20.751,40.214,26.17,53.475C606.229,384.991,597.417,415.563,581.714,416.535z"/>
	<g>
		<path style="fill:#F76A52;" d="M548.606,331.656c-0.427,0-0.79-0.326-0.828-0.76c-1.253-14.282-2.702-25.159-3.76-33.102
			c-1.93-14.491-2.729-20.49,0.58-23.583c6.295-5.885,37.364-4.452,38.685-4.385l0.164,0.008l0.149,0.069
			c1.748,0.819,3.757,1.716,4.188,1.842c0.38,0.039,0.694,0.338,0.74,0.732c0.053,0.457-0.274,0.87-0.732,0.923
			c-0.263,0.023-0.536,0.055-4.755-1.92c-8.925-0.419-32.533-0.513-37.304,3.947c-2.682,2.507-1.862,8.661-0.067,22.147
			c1.06,7.958,2.512,18.856,3.768,33.177c0.04,0.457-0.299,0.861-0.756,0.901C548.655,331.655,548.631,331.656,548.606,331.656z"/>
	</g>
	<g>
		<path style="fill:#F76A52;" d="M584.632,272.012c-0.115,0-0.232-0.024-0.344-0.075c-3.529-1.608-3.413-6.382-3.406-6.585
			l0.013-0.396l6.155-4.673c0.367-0.279,0.888-0.206,1.166,0.16c0.278,0.366,0.206,0.888-0.16,1.166l-5.501,4.177
			c0.051,1.004,0.382,3.705,2.423,4.635c0.419,0.191,0.604,0.685,0.413,1.102C585.251,271.83,584.948,272.012,584.632,272.012z"/>
	</g>
	<g>
		<path style="fill:#F76A52;" d="M571.894,269.368c-0.927,0-1.529-0.217-1.933-0.65c-0.72-0.769-0.454-1.87-0.192-2.631
			c0.964-2.797,3.206-8.539,5.495-12.324c0.8-1.323,2.386-2.068,4.715-2.215c4.611-0.293,11.101,1.896,12.565,3.742
			c1.863,2.349,3.644,11.845,3.841,12.92c0.083,0.452-0.216,0.886-0.668,0.969c-0.452,0.078-0.886-0.217-0.969-0.669
			c-0.515-2.808-2.148-10.471-3.509-12.185c-1.06-1.337-6.973-3.385-11.155-3.116c-1.204,0.077-2.772,0.384-3.396,1.415
			c-2.216,3.666-4.402,9.271-5.345,12.005c-0.262,0.759-0.164,0.954-0.163,0.955c0.082,0.083,0.712,0.458,4.783-0.645
			c4.48-1.213,4.116-4.137,4.099-4.26l-1.139-4.157c-0.121-0.443,0.141-0.901,0.584-1.022c0.439-0.121,0.9,0.14,1.021,0.585
			l1.158,4.249c0.026,0.128,0.689,4.594-5.288,6.213C574.373,269.097,572.931,269.368,571.894,269.368z"/>
	</g>
</g>
<g>
	<g>
		<polygon style="fill:#C3B9B7;" points="276.818,438.098 171.4,447.136 171.4,454.894 276.818,445.856 		"/>
		<polygon style="fill:#F8F3F1;" points="276.818,438.098 171.4,447.136 138.417,436.819 243.835,427.781 		"/>
		<polygon style="fill:#B3A8A6;" points="138.417,436.819 138.417,440.031 171.4,454.894 171.4,447.136 		"/>
	</g>
	<g>
		<path style="fill:#F8F3F1;" d="M328.937,413.436l-171.436,12.085c-1.09,0.077-2.172-0.244-3.043-0.904l-0.131-0.099
			c-1.509-1.143-2.146-3.105-1.595-4.916l36.285-119.19c0.554-1.818,2.187-3.096,4.085-3.195l175.293-9.139
			c1.063-0.055,2.112,0.267,2.961,0.909l0.07,0.053c1.557,1.179,2.18,3.225,1.544,5.072l-40.08,116.291
			C332.299,412.115,330.744,413.309,328.937,413.436z"/>
		<path style="fill:#C3B9B7;" d="M335.229,413.47L159.09,425.417c-1.584,0.107-2.785-1.404-2.323-2.923l35.82-117.663
			c0.809-2.656,3.194-4.522,5.967-4.666l172.252-8.98c1.571-0.082,2.746,1.421,2.288,2.925l-35.849,117.759
			C336.971,412.769,336.169,413.406,335.229,413.47z"/>
	</g>
	<g>
		<polygon style="fill:#B3A8A6;" points="276.818,451.659 227.688,452.858 227.688,455.563 262.624,471.46 310.707,466.423 		"/>
		<polygon style="fill:#F8F3F1;" points="276.818,449.655 227.688,452.858 262.624,468.755 310.707,464.566 		"/>
		<path style="fill:#B3A8A6;" d="M251.029,343.956c0,0-17.968,58.972-22.068,72.291c-4.101,13.319-0.538,23.523,14.649,33.374
			c12.557,8.145,23.587,12.727,17.271,20.14l48.083-4.189c6.833-9.016-4.773-13.915-17.331-22.06
			c-15.187-9.851-19.562-20.705-15.461-34.024c3.207-10.415,23.538-66.603,23.538-66.603l-1.744-1.699L251.029,343.956z"/>
		<path style="fill:#C3B9B7;" d="M252.773,345.655c0,0-17.968,58.972-22.068,72.291c-4.101,13.319,1.754,21.795,16.941,31.646
			c12.557,8.145,21.811,12.852,14.978,21.868l48.083-5.038c6.833-9.016-3.293-15.444-15.85-23.59
			c-15.187-9.851-21.042-18.327-16.941-31.646c4.101-13.319,21.794-68.302,21.794-68.302L252.773,345.655z"/>
	</g>
</g>
<g>
	<g>
		<polygon style="fill:#C3B9B7;" points="768.732,477.975 874.149,487.013 874.149,494.771 768.732,485.733 		"/>
		<polygon style="fill:#F8F3F1;" points="768.732,477.975 874.149,487.013 907.133,476.696 801.714,467.658 		"/>
		<polygon style="fill:#B3A8A6;" points="907.133,476.696 907.133,479.908 874.149,494.771 874.149,487.013 		"/>
	</g>
</g>
<g>
	<polygon style="fill:#C3B9B7;" points="1431.052,450.686 1325.634,459.724 1325.634,467.482 1431.052,458.444 	"/>
	<polygon style="fill:#F8F3F1;" points="1431.052,450.686 1325.634,459.724 1292.651,449.406 1398.069,440.368 	"/>
	<polygon style="fill:#B3A8A6;" points="1292.651,449.406 1292.651,452.618 1325.634,467.482 1325.634,459.724 	"/>
</g>
<g>
	<path style="fill:#AF4B3E;" d="M1180.509,381.447c-4.961,9.422-6.74,18.46-4.17,25.016c2.57,6.556,36.397,14.58,57.945,19.36
		c21.547,4.779,49.117,6.308,57.792,8.555c8.675,2.247,18.235-14.388,9.233-17.716c-9.003-3.328-40.148-12.988-52.762-18.947
		c-12.614-5.96-27.448-15.851-38.348-18.583C1199.299,376.399,1183.833,375.134,1180.509,381.447z"/>
	<path style="fill:#AF4B3E;" d="M1301.309,416.661c9.75,2.793,30.046-2.929,36.938-1.43c7.241,1.575,14.62,9.326,17.723,12.344
		c4.203,4.088,10.916,15.323,8.334,16.778c-2.582,1.456-11.449-10.191-13.442-12.003c-1.993-1.813-10.714-8.178-12.293-7.328
		c-1.579,0.851,7.123,9.028,10.089,12.234s6.598,7.788,7.93,10.051c1.332,2.263-1.367,7.452-5.324,4.823c0,0-1.46,2.438-3.719,2.3
		c-2.258-0.138-8.874-4.399-8.874-4.399s1.486,3.522-1.746,3.895c-3.232,0.373-7.973-3.442-12.011-5.586
		c-4.038-2.144-7.567-0.794-13.208-2.803c-9.682-3.448-11.803-6.585-19.629-11.16
		C1282.564,428.816,1291.086,413.733,1301.309,416.661z"/>
	<g>
		<path style="fill:#96362F;" d="M1338.67,451.032c-0.219,0-0.439-0.071-0.624-0.22c-0.071-0.057-7.183-5.745-9.981-7.304
			c-2.827-1.574-10.26-4.758-10.335-4.79c-0.508-0.217-0.743-0.805-0.525-1.313c0.218-0.508,0.805-0.745,1.313-0.525
			c0.309,0.132,7.604,3.257,10.521,4.88c2.945,1.641,9.962,7.253,10.259,7.491c0.432,0.345,0.501,0.975,0.155,1.405
			C1339.254,450.905,1338.964,451.032,1338.67,451.032z"/>
	</g>
	<g>
		<path style="fill:#96362F;" d="M1350.494,451.169c-0.253,0-0.507-0.096-0.701-0.287c-0.073-0.072-7.353-7.226-10.18-9.602
			c-2.852-2.396-12.238-10.089-12.333-10.166c-0.427-0.35-0.489-0.98-0.14-1.407c0.35-0.426,0.979-0.491,1.407-0.14
			c0.095,0.077,9.491,7.777,12.353,10.182c2.886,2.426,9.994,9.411,10.295,9.707c0.394,0.387,0.399,1.021,0.012,1.414
			C1351.012,451.069,1350.753,451.169,1350.494,451.169z"/>
	</g>
</g>
<g>
	<path style="fill:#F9F5E3;" d="M1174.242,410.649c1.293,8.19-56.411,23.094-60.045,24.141
		c-3.572,0.985-68.236-12.871-67.743-16.443c0.308-2.032,2.894-3.203,4.372-4.065c1.109-0.677,1.54-1.17-0.246-1.601
		c-1.355-0.308-2.525-0.8-3.387-1.416c-1.663-1.108-1.909-2.648,0.801-3.695c7.698-3.079,55.98-14.904,60.045-14.904
		C1112.165,392.666,1173.256,403.997,1174.242,410.649z"/>
	<path style="fill:#CDCDD1;" d="M1108.347,430.171c-11.147-2.833-22.355-5.173-33.502-7.883c-8.314-2.032-16.012-5.235-24.018-8.006
		c1.109-0.677,1.54-1.17-0.246-1.601c-1.355-0.308-2.525-0.8-3.387-1.416c6.589-0.985,15.458,4.927,21.493,6.651
		c13.12,3.705,26.673,6.674,40.338,9.607C1110.749,427.892,1110.071,430.602,1108.347,430.171z"/>
	<polygon style="fill:#CDCDD1;" points="1054.429,408.339 1079.833,416.422 1102.927,409.879 1080.603,402.181 	"/>
	<polygon style="fill:#CDCDD1;" points="1088.686,417.192 1116.014,425.66 1121.402,423.735 1094.074,415.652 	"/>
	<path style="fill:#CDCDD1;" d="M1125.715,420.638c-0.087-0.045-0.174-0.089-0.261-0.134c-0.144-0.074-0.327-0.04-0.494,0.007
		c0-0.003,0-0.003,0-0.006l-2.014-0.514c-1.517-0.4-3.026-0.83-4.538-1.246c-5.72-1.575-11.44-3.525-17.25-4.714
		c-0.804-0.164-1.069,0.909-0.333,1.207c4.06,1.639,8.366,2.757,12.56,4.017c3.666,1.101,7.527,2.72,11.307,3.233
		c0.436,0.059,0.911-0.035,1.139-0.463c0.055-0.103,0.11-0.207,0.165-0.31C1126.189,421.355,1126.105,420.839,1125.715,420.638z"/>
	<path style="fill:#CDCDD1;" d="M1132.307,419.653c-8.606-3.441-17.415-6.308-26.551-7.938c-0.719-0.128-1.036,0.913-0.307,1.113
		c8.954,2.456,17.76,5.12,26.346,8.68C1132.933,421.981,1133.45,420.11,1132.307,419.653z"/>
	<path style="fill:#CDCDD1;" d="M1139.871,418.456c-7.84-4.976-19.164-8.883-28.47-8.9c-0.339-0.001-0.374,0.46-0.077,0.567
		c4.643,1.673,9.561,2.552,14.263,4.084c4.717,1.538,9.133,3.755,13.783,5.436C1140.086,419.902,1140.469,418.836,1139.871,418.456z
		"/>
	<path style="fill:#CDCDD1;" d="M1146.328,415.932c-8.521-4.747-19.998-9.44-29.931-8.242c-0.305,0.037-0.414,0.472-0.077,0.567
		c4.615,1.307,9.451,1.6,14.088,2.951c5.243,1.528,10.171,3.759,14.973,6.344C1146.443,418.124,1147.386,416.521,1146.328,415.932z"
		/>
	<path style="fill:#CDCDD1;" d="M1153.165,413.915c-8.369-3.95-18.921-9.01-28.321-8.894c-0.451,0.006-0.569,0.695-0.109,0.803
		c9.702,2.279,18.459,6.359,27.93,9.278C1153.354,415.315,1153.84,414.233,1153.165,413.915z"/>
	<path style="fill:#CDCDD1;" d="M1159.431,413.336c-3.188-3.235-8.047-4.857-12.227-6.518c-4.84-1.923-9.853-3.677-15.057-4.209
		c-0.583-0.06-0.589,0.762-0.128,0.945c4.512,1.788,9.239,3.005,13.774,4.75c4.411,1.698,8.725,4.567,13.358,5.515
		C1159.425,413.875,1159.643,413.551,1159.431,413.336z"/>
	<path style="fill:#CDCDD1;" d="M1167.701,409.786c-8.114-4.554-19.936-9.578-29.374-8.435c-0.165,0.02-0.191,0.219-0.038,0.283
		c4.278,1.798,9.218,2.321,13.692,3.691c5.135,1.573,9.97,3.731,14.87,5.914C1167.818,411.671,1168.667,410.329,1167.701,409.786z"
		/>
	<path style="fill:#CDCDD1;" d="M1106.683,406.882c-6.774-1.852-13.774-5.219-20.72-6.144c-0.389-0.052-0.442,0.494-0.182,0.672
		c5.707,3.917,13.834,5.452,20.442,7.142C1107.303,408.829,1107.76,407.177,1106.683,406.882z"/>
	<path style="fill:#CDCDD1;" d="M1111.589,404.559c-3.626-1.162-7.241-2.352-10.904-3.395c-3.138-0.893-6.435-2.362-9.726-2.109
		c-0.174,0.014-0.218,0.213-0.085,0.314c2.643,1.987,6.219,2.53,9.349,3.471c3.645,1.096,7.329,2.042,11.008,3.018
		C1112.073,406.081,1112.412,404.823,1111.589,404.559z"/>
	<path style="fill:#CDCDD1;" d="M1116.903,403.393c-2.985-1.644-6.362-2.678-9.549-3.863c-2.595-0.964-5.739-2.734-8.521-2.135
		c-0.115,0.025-0.128,0.163-0.064,0.241c1.728,2.092,4.949,2.631,7.432,3.556c3.321,1.237,6.658,2.781,10.09,3.65
		C1117.146,405.059,1117.709,403.837,1116.903,403.393z"/>
	<path style="fill:#CDCDD1;" d="M1123.295,400.696c-2.677-2.168-6.514-3.094-9.779-4.063c-2.712-0.805-6.327-2.38-8.844-0.602
		c-0.169,0.119-0.149,0.373,0.057,0.439c3.115,1.005,6.411,1.454,9.576,2.453c2.836,0.895,5.658,2.367,8.615,2.676
		C1123.361,401.646,1123.642,400.977,1123.295,400.696z"/>
	<path style="fill:#CDCDD1;" d="M1128.521,398.822c-3.234-1.206-6.48-2.473-9.775-3.503c-2.489-0.778-5.179-1.794-7.785-1.262
		c-0.112,0.023-0.104,0.164-0.029,0.22c2.239,1.663,5.357,2.028,8.02,2.733c3.156,0.835,6.201,1.81,9.235,3.018
		C1128.931,400.324,1129.275,399.103,1128.521,398.822z"/>
</g>
<g>
	<g>
		<path style="fill:#F8F3F1;" d="M1144.582,413.436l171.436,12.085c1.09,0.077,2.172-0.244,3.043-0.904l0.131-0.099
			c1.509-1.143,2.146-3.105,1.595-4.916l-36.285-119.19c-0.554-1.818-2.187-3.096-4.085-3.195l-175.293-9.139
			c-1.063-0.055-2.112,0.267-2.961,0.909l-0.07,0.053c-1.557,1.179-2.18,3.225-1.544,5.072l40.08,116.291
			C1141.22,412.115,1142.776,413.309,1144.582,413.436z"/>
		<path style="fill:#C3B9B7;" d="M1138.29,413.47l176.139,11.947c1.584,0.107,2.785-1.404,2.323-2.923l-35.82-117.663
			c-0.809-2.656-3.194-4.522-5.967-4.666l-172.253-8.98c-1.57-0.082-2.746,1.421-2.287,2.925l35.849,117.759
			C1136.548,412.769,1137.35,413.406,1138.29,413.47z"/>
	</g>
	<g>
		<polygon style="fill:#B3A8A6;" points="1196.701,451.659 1245.831,452.858 1245.831,455.563 1210.895,471.46 1162.812,466.423 		
			"/>
		<polygon style="fill:#F8F3F1;" points="1196.701,449.655 1245.831,452.858 1210.895,468.755 1162.812,464.566 		"/>
		<path style="fill:#B3A8A6;" d="M1222.49,343.956c0,0,17.968,58.972,22.068,72.291c4.101,13.319,0.538,23.523-14.649,33.374
			c-12.557,8.145-23.587,12.727-17.271,20.14l-48.083-4.189c-6.833-9.016,4.773-13.915,17.33-22.06
			c15.187-9.851,19.562-20.705,15.461-34.024c-3.207-10.415-23.538-66.603-23.538-66.603l1.744-1.699L1222.49,343.956z"/>
		<path style="fill:#C3B9B7;" d="M1220.746,345.655c0,0,17.968,58.972,22.068,72.291s-1.754,21.795-16.941,31.646
			c-12.557,8.145-21.811,12.852-14.978,21.868l-48.083-5.038c-6.833-9.016,3.293-15.444,15.85-23.59
			c15.187-9.851,21.042-18.327,16.941-31.646c-4.101-13.319-21.795-68.302-21.795-68.302L1220.746,345.655z"/>
	</g>
</g>
<g>
	<g>
		<polygon style="fill:#C3B9B7;" points="554.884,457.546 660.687,458.053 661.313,465.786 555.509,465.279 		"/>
		<polygon style="fill:#F8F3F1;" points="554.884,457.546 660.687,458.053 674.051,448.113 568.248,447.606 		"/>
		<polygon style="fill:#B3A8A6;" points="674.051,448.113 674.31,451.315 661.313,465.786 660.687,458.053 		"/>
	</g>
	<g>
		<g>
			<path style="fill:#F8F3F1;" d="M480.102,439.711l177.814,4.898c1.131,0.08,2.252-0.254,3.156-0.938l0.136-0.103
				c1.565-1.185,2.226-3.22,1.654-5.099l-20.847-126.943c-0.574-1.886-2.268-3.211-4.237-3.313l-181.813-1.843
				c-1.103-0.057-2.19,0.277-3.071,0.943l-0.072,0.055c-1.615,1.223-2.262,3.345-1.601,5.261l24.783,123.935
				C476.616,438.341,478.229,439.579,480.102,439.711z"/>
			<path style="fill:#C3B9B7;" d="M473.576,439.747l182.691,4.755c1.643,0.112,2.889-1.456,2.409-3.032l-20.365-125.358
				c-0.839-2.755-3.313-4.69-6.189-4.84l-178.66-1.678c-1.629-0.085-2.848,1.474-2.373,3.034l20.395,125.458
				C471.77,439.02,472.602,439.681,473.576,439.747z"/>
		</g>
	</g>
	<g>
		<polygon style="fill:#B3A8A6;" points="542.089,469.88 590.168,473.282 590.111,475.987 555.858,489.979 514.372,483.475 		"/>
		<polygon style="fill:#F8F3F1;" points="541.118,469.033 590.168,473.282 555.916,487.274 514.412,481.618 		"/>
		<path style="fill:#B3A8A6;" d="M573.523,369.233c0,0,10.264,60.788,12.624,74.522c2.36,13.735-2.48,23.398-18.804,31.222
			c-13.497,6.469-15.141,8.593-11.428,12.297l-36.837-3.427c-5.622-9.817-5.598-15.055,7.9-21.525
			c16.324-7.824,15.574-17.585,13.214-31.319c-1.846-10.741-12.714-60.927-12.714-60.927l1.947-1.462L573.523,369.233z"/>
		<path style="fill:#C3B9B7;" d="M571.576,370.694c0,0,10.264,60.788,12.624,74.523c2.36,13.734-4.532,21.39-20.856,29.214
			c-13.497,6.469-13.807,10.659-7.486,15.548l-41.486-4.577c-5.621-9.817-4.003-17.697,9.495-24.166
			c16.324-7.824,16.737-15.037,14.377-28.771c-2.36-13.735-10.767-62.389-10.767-62.389L571.576,370.694z"/>
	</g>
</g>
<g>
	<g>
		<g>
			<path style="fill:#F8F3F1;" d="M1018.914,412.982l-177.814,4.898c-1.131,0.08-2.252-0.254-3.156-0.938l-0.136-0.103
				c-1.565-1.185-2.226-3.22-1.654-5.099l20.847-126.943c0.574-1.886,2.268-3.211,4.237-3.313l181.814-1.842
				c1.103-0.057,2.19,0.277,3.071,0.943l0.073,0.055c1.615,1.223,2.261,3.345,1.601,5.261l-24.783,123.935
				C1022.401,411.612,1020.788,412.85,1018.914,412.982z"/>
			<path style="fill:#C3B9B7;" d="M1025.44,413.018l-182.691,4.755c-1.643,0.111-2.889-1.456-2.409-3.032l20.365-125.359
				c0.839-2.755,3.313-4.69,6.189-4.84l178.66-1.678c1.629-0.085,2.848,1.474,2.373,3.034l-20.395,125.458
				C1027.247,412.29,1026.415,412.952,1025.44,413.018z"/>
		</g>
	</g>
	<g>
		<polygon style="fill:#B3A8A6;" points="956.928,443.151 908.848,446.553 908.906,449.258 943.159,463.25 984.644,456.746 		"/>
		<polygon style="fill:#F8F3F1;" points="957.899,442.304 908.848,446.553 943.101,460.545 984.605,454.889 		"/>
		<path style="fill:#B3A8A6;" d="M925.493,342.504c0,0-10.264,60.788-12.624,74.522c-2.36,13.735,2.48,23.398,18.804,31.222
			c13.497,6.469,15.141,8.593,11.428,12.297l36.837-3.427c5.621-9.817,5.598-15.055-7.9-21.525
			c-16.324-7.824-15.574-17.585-13.214-31.319c1.846-10.741,12.714-60.927,12.714-60.927l-1.947-1.462L925.493,342.504z"/>
		<path style="fill:#C3B9B7;" d="M927.441,343.965c0,0-10.264,60.788-12.624,74.523c-2.36,13.734,4.532,21.39,20.856,29.214
			c13.498,6.469,13.807,10.659,7.486,15.548l41.486-4.577c5.621-9.817,4.003-17.697-9.495-24.166
			c-16.324-7.824-16.737-15.037-14.377-28.772c2.36-13.735,10.767-62.389,10.767-62.389L927.441,343.965z"/>
	</g>
</g>
<g>
	<ellipse style="fill:#EDF0F4;" cx="749.118" cy="444.855" rx="44.693" ry="14.521"/>
	<ellipse style="fill:#D5DBE2;" cx="749.118" cy="444.855" rx="24.29" ry="7.892"/>
	<g>
		<g>
			<path style="fill:#FFFFFF;" d="M735.86,435.487c-2.643,0-5.516-1.427-7.534-4.024c-3.104-3.997-3.026-9.273,0.174-11.761
				c3.202-2.488,8.335-1.259,11.44,2.738c1.451,1.867,2.266,4.074,2.294,6.212c0.031,2.317-0.846,4.287-2.47,5.549
				C738.644,435.072,737.285,435.487,735.86,435.487z M732.427,421.807c-0.691,0-1.326,0.187-1.837,0.585
				c-1.69,1.313-1.495,4.511,0.425,6.984c1.92,2.471,4.971,3.45,6.662,2.137c0.76-0.59,1.17-1.589,1.154-2.813
				c-0.019-1.382-0.594-2.902-1.579-4.169C735.912,422.805,734.022,421.807,732.427,421.807z"/>
		</g>
		<path style="fill:#FFFFFF;" d="M764.839,413.309c0,2.073-7.039,3.753-15.721,3.753c-8.682,0-15.721-1.68-15.721-3.753
			c0-2.073,7.038-3.753,15.721-3.753C757.8,409.556,764.839,411.236,764.839,413.309z"/>
		<path style="fill:#FFFFFF;" d="M764.839,413.313c0,0-0.257,2.015-0.69,4.882c-0.081,0.622-0.189,1.298-0.298,2.002
			c-0.974,6.329-2.529,21.899-3.976,23.928c-3.259,4.598-18.257,4.111-20.921,0.243c-2.056-2.989-3.787-19.208-4.747-25.361
			c-0.081-0.46-0.149-0.906-0.203-1.325c-0.392-2.596-0.609-4.368-0.609-4.368H764.839z"/>
		<path style="fill:#D5DBE2;" d="M762.636,413.309c0,1.782-6.052,3.227-13.518,3.227c-7.466,0-13.518-1.445-13.518-3.227
			c0-1.782,6.052-3.227,13.518-3.227C756.584,410.082,762.636,411.527,762.636,413.309z"/>
		<g>
			<path style="fill:#40250C;" d="M761.936,414.328c-1.735-1.304-6.845-2.249-12.882-2.249c-5.972,0-11.03,0.926-12.819,2.208
				c1.735,1.304,6.845,2.249,12.882,2.249C755.09,416.536,760.148,415.611,761.936,414.328z"/>
		</g>
	</g>
</g>
<g>
	<path style="opacity:0.59;fill:#FFFFFF;" d="M117.266,426.488c0-25.229-20.453-39.54-45.682-39.54s-45.682,14.31-45.682,39.54
		c0,16.211,8.469,30.415,21.199,38.523c-0.797,0.926-1.237,1.911-1.237,2.936c0,5.3,11.515,9.597,25.72,9.597
		c14.205,0,25.72-4.297,25.72-9.597c0-1.025-0.44-2.01-1.237-2.936C108.797,456.903,117.266,442.7,117.266,426.488z"/>
	<ellipse style="opacity:0.59;fill:#FFFFFF;" cx="71.584" cy="397.889" rx="24.568" ry="7.486"/>
	<path style="fill:#7C6357;" d="M105.749,435.318c-20.623-14.731-58.189-18.138-72.057,6.011
		c3.756,13.676,19.285,23.932,37.891,23.932c19.439,0,35.49-11.202,38.293-25.795C108.745,437.566,107.356,436.121,105.749,435.318z
		"/>
	<path style="fill:#60453A;" d="M33.693,441.328c3.756,13.676,19.285,23.932,37.891,23.932c19.439,0,35.49-11.202,38.293-25.795
		C100.951,450.289,66.785,466.988,33.693,441.328z"/>
	<path style="fill:#3FA09F;" d="M59.684,440.692c-4.024-5.039-5.656-12.723-12.281-15.931c-2.854-1.383-7.452-1.022-6.721,3.262
		c0.576,3.373,4.562,3.727,7.113,4.886c3.509,1.595,6.761,3.571,9.903,5.549C57.728,439.193,58.117,439.982,59.684,440.692z"/>
	<path style="fill:#3FA09F;" d="M61.987,444.147c-1.917-4.695-9.336-9.605-14.223-8.072c-2.392,0.75-5.743,3.012-4.97,5.96
		c1.091,4.163,5.068,0.988,8.052,0.557C53.909,442.148,59.824,441.718,61.987,444.147z"/>
	<path style="fill:#3FA09F;" d="M90.01,438.005c1.516-2.739,11.048-19.282,15.935-12.672
		C108.751,429.127,94.409,435.258,90.01,438.005z"/>
	<path style="fill:#7EBC8E;" d="M73.887,436.469c-4.799-2.613-14.001-4.335-16.889,3.86c-3.315,9.406,6.545,13.186,9.575,3.434
		C67.726,440.049,69.807,434.888,73.887,436.469z"/>
	<path style="fill:#7EBC8E;" d="M65.442,428.408c-1.57-3.668-14.963-8.5-13.931-11.602
		C53.489,410.858,68.444,419.216,65.442,428.408z"/>
	<path style="fill:#7EBC8E;" d="M75.039,436.853l-1.152,0.384c-3.378,0.147-5.439,11.147-0.298,12.208
		C78.765,450.512,72.785,439.557,75.039,436.853z"/>
	<path style="fill:#7EBC8E;" d="M82.333,434.934c2.717-4.605,10.875-3.514,13.392,0.623c1.165,1.914,2.211,5.963,0.042,7.437
		c-2.878,1.956-4.67-1.373-6.139-3.071C87.271,437.198,85.644,436.701,82.333,434.934z"/>
	<path style="fill:#A8A7A7;" d="M67.787,418.972c-4.597-5.884-13.101,8.948-8.727,9.704l0.425,1.317
		c2.174-0.322,7.371-0.192,9.095-1.52C70.685,426.853,69.554,421.234,67.787,418.972z"/>
	<path style="fill:#A8A7A7;" d="M77.207,423.876c-0.039-0.32-0.223-0.627-0.484-0.812c-1.213-0.86-2.614-0.859-3.907-0.176
		c-0.59,0.311-0.66,1.028-0.413,1.574c0.84,1.858,4.302,2.599,4.954,0.206C77.441,424.36,77.355,424.096,77.207,423.876z"/>
	<path style="fill:#A8A7A7;" d="M82.808,430.381c-0.132-0.021-0.263-0.04-0.395-0.06c-0.248-0.14-0.537-0.208-0.877-0.199
		c-0.053,0.001-0.104,0.033-0.158,0.042c-0.015-0.002-0.031-0.005-0.046-0.007c-0.912-0.135-1.59,0.83-0.918,1.578
		c0.084,0.094,0.179,0.121,0.265,0.193c0.037,0.04,0.086,0.065,0.132,0.096c0.375,0.264,0.774,0.417,1.302,0.469
		c0.479,0.048,0.801-0.292,0.934-0.701C83.525,431.431,83.491,430.49,82.808,430.381z"/>
	<path style="fill:#A8A7A7;" d="M92.456,426.893c-0.989-1.168-2.523-1.287-3.836-0.618c-0.623,0.318-0.882,1.124-0.72,1.769
		c0.492,1.957,2.677,2.309,4.101,1.132c0.058-0.048,0.059-0.114,0.106-0.166C92.919,428.659,92.979,427.51,92.456,426.893z"/>
	<path style="fill:#A8A7A7;" d="M61.846,429.529c-0.466-1.009-1.43-1.616-2.486-1.831c-0.974-0.293-2.046-0.217-3.039,0.359
		c-0.76,0.441-0.787,1.396-0.26,2.015c0.797,0.936,2.114,1.436,3.294,0.965c0.02-0.008,0.033-0.023,0.052-0.032
		c0.356,0.052,0.699,0.145,1.073,0.138c0.349-0.007,0.65-0.2,0.881-0.451c0.004-0.001,0.008-0.001,0.012-0.003
		C61.9,430.535,62.059,429.991,61.846,429.529z"/>
	<path style="fill:#A8A7A7;" d="M80.592,441.621c-0.334,0.353-0.344,1.087,0.169,1.314c0.444,0.197,0.693,0.276,1.183,0.267
		c0.016,0,0.02-0.015,0.035-0.016c0.481,0.313,0.995-0.136,1.046-0.614C83.17,441.217,81.433,440.731,80.592,441.621z"/>
	<path style="fill:#A8A7A7;" d="M106.42,433.907c-0.07-0.04-0.142-0.045-0.212-0.08c0.001-0.003,0.002-0.005,0.003-0.008
		c-0.013-0.003-0.03-0.005-0.043-0.008c-0.881-0.437-1.752-0.599-2.755-0.603c-0.34-0.001-0.655,0.208-0.854,0.489
		c-0.035,0.015-0.069,0.015-0.104,0.032c-1.171,0.554-0.511,2.257,0.623,2.299c0.246,0.009,0.552-0.018,0.86-0.072
		c0.312,0.157,0.618,0.32,1.015,0.374c0.58,0.08,1.227-0.316,1.396-0.855C106.879,435.198,107.061,434.268,106.42,433.907z"/>
	<path style="fill:#A8A7A7;" d="M40.914,435.086c0.081-0.259,0.015-0.581-0.228-0.754c-0.82-0.584-1.849-0.649-2.718-0.139
		c-0.386,0.226-0.506,0.729-0.292,1.115c0.051,0.091,0.122,0.15,0.179,0.231c-0.047,0.794,0.833,1.31,1.441,0.915
		c0.329,0.051,0.673,0.058,1.037-0.032C40.946,436.271,41.149,435.588,40.914,435.086z"/>
	<path style="fill:#A8A7A7;" d="M74.175,431.856c-0.437-0.555-1.414-0.242-1.904,0.038c-0.061,0.035-0.088,0.109-0.072,0.176
		l0.055,0.225c0.049,0.202,0.24,0.32,0.436,0.332c0.208-0.017,0.409,0.009,0.601,0.08c0.169,0.115,0.263,0.062,0.282-0.157
		c-0.126,0.045-0.157,0.18-0.074,0.281c0.029,0.035,0.058,0.07,0.087,0.106c0.076,0.093,0.217,0.087,0.313,0.04
		C74.323,432.77,74.489,432.255,74.175,431.856z"/>
	<path style="fill:#A8A7A7;" d="M51.907,445.963c-0.388-0.271-0.786-0.458-1.2-0.685c-0.444-0.244-0.998,0.39-0.567,0.735
		c0.403,0.322,0.762,0.647,1.198,0.924C51.958,447.331,52.494,446.374,51.907,445.963z"/>
	<path style="fill:#A8A7A7;" d="M80.257,446.63c-0.479-0.675-1.12-0.884-1.833-0.419c-0.083,0.054-0.113,0.157-0.065,0.246
		c0.412,0.751,1.076,0.869,1.812,0.501C80.28,446.904,80.329,446.731,80.257,446.63z"/>
	<path style="fill:#A8A7A7;" d="M89.815,443.513c-0.998,0-1,1.551,0,1.551C90.813,445.064,90.815,443.513,89.815,443.513z"/>
	<path style="fill:#A8A7A7;" d="M69.373,449.995c-0.844-0.199-1.636-0.237-2.493-0.096c-0.361,0.059-0.328,0.531-0.092,0.702
		c0.659,0.477,1.365,0.783,2.151,0.968c0.342,0.081,0.747-0.05,0.921-0.375c0.088-0.164,0.116-0.228,0.111-0.412
		C69.962,450.433,69.726,450.078,69.373,449.995z"/>
</g>
<g>
	<path style="fill:#F8F3F1;" d="M1427.141,429.009c-6.471,1.111-27.771-11.303-27.771-11.303s3.249-9.72,15.746-9.72
		c12.497,0,25.452,12.441,25.452,12.441C1443.831,423.219,1433.625,427.898,1427.141,429.009z"/>
	<path style="fill:#C3B9B7;" d="M1427.141,429.009c-6.471,1.111-27.771-11.303-27.771-11.303
		C1410.478,407.07,1427.141,429.009,1427.141,429.009z"/>
</g>
<g>
	<path style="fill:#F76A52;" d="M794.29,380.487c-0.367,0-0.72-0.202-0.896-0.553c-1.028-2.058-2.247-6.223-2.299-6.399
		c-0.154-0.53,0.149-1.086,0.68-1.24c0.536-0.156,1.086,0.15,1.24,0.68c0.012,0.042,1.22,4.169,2.168,6.064
		c0.247,0.494,0.047,1.095-0.447,1.342C794.593,380.453,794.44,380.487,794.29,380.487z"/>
</g>
<g>
	<g>
		<path style="fill:#B3A8A6;" d="M852.154,264.046c-0.228,0-0.458-0.052-0.674-0.161c-14.29-7.204-23.71-18.546-24.104-19.025
			c-0.525-0.64-0.434-1.585,0.206-2.111c0.641-0.526,1.586-0.434,2.111,0.205c0.093,0.113,9.433,11.343,23.137,18.253
			c0.74,0.373,1.037,1.275,0.665,2.015C853.23,263.744,852.702,264.046,852.154,264.046z"/>
	</g>
	<path style="fill:#B3A8A6;" d="M858.912,264.514c-0.647,1.96-3.655,2.729-6.718,1.718c-3.063-1.011-5.022-3.42-4.375-5.381
		c0.647-1.96,3.655-2.729,6.718-1.718C857.601,260.145,859.56,262.554,858.912,264.514z"/>
</g>
<g>
	<path style="fill:#422033;" d="M162.63,125.266c0,0,5.771-11.52,16.684-9.431c10.913,2.09,14.758,13.535,20.961,19.142
		c6.203,5.607,15.736,0.607,21.103,10.579c0,0-4.022-3.477-9.245-2.953c0,0,8.547,2.507,10.577,12.395
		c2.031,9.888-1.874,16.025-7.019,18.097c-7.842,3.158-11.072,4.715-12.004,11.647c-0.932,6.932,6.245,7.046,6.402,16.813
		c0.156,9.766-6.845,14.02-6.845,14.02s4.415-7.191,0.896-13.823c-3.519-6.632-13.954-3.7-13.954-3.7l-52.159,1.291
		c0,0,3.591,15.063-7.245,19.499c-10.837,4.436-21.604-3.046-21.604-3.046s9.721,0.921,12.715-2.437
		c2.993-3.358-0.291-9.918-0.291-9.918s-0.224,9.153-10.14,7.8c0,0,9.135-3.352,7.639-8.311c-1.496-4.958-5.279-5.965-8.975-10.986
		c-3.696-5.021-1.526-10.811-1.526-10.811s-5.442,5.539-0.607,12.551c0,0-10.025-4.668-7.34-13.883
		c2.685-9.215,9.878-13.935,11.917-23.147c0,0-8.392,15.148-15.854,11.996c0,0,5.312-1.462,7.542-9.027
		c2.231-7.565,2.108-15.867,12.6-21.717c10.493-5.85,12.763-8.355,16.675-14.586C138.126,116.003,153.84,106.326,162.63,125.266z"/>
	<g>
		<path style="fill:#AF4B3E;" d="M155.422,277.037c17.837,13.066,34.864,1.883,47.039-14.149c-2.866-0.902-5.052-1.743-6.107-2.5
			c-5.294-3.799-6.851-6.539-7.785-13.998c-0.202-1.619-0.405-3.752-0.561-6.088c-0.607-8.361-0.872-19.4,0.078-19.743
			l-33.834,0.825c0,0-0.514,7.941-1.993,16.193c-1.261,6.991-3.207,14.216-6.104,16.972c-0.983,0.93-2.803,1.839-5.2,2.731
			C145.356,266.407,149.935,273.117,155.422,277.037z"/>
		<path style="fill:#96362F;" d="M188.009,240.302c-5.527,3.535-10.087,7.066-16.3,7.284c-6.695,0.249-15.541-5.119-19.449-10.008
			c1.479-8.252,1.993-16.193,1.993-16.193l33.834-0.825C187.137,220.902,187.401,231.941,188.009,240.302z"/>
	</g>
	<g>
		<path style="fill:#96362F;" d="M134.096,193.177c0,0-7.17-10.41-11.026-6.333c-3.855,4.078,9.901,27.541,15.623,25.026
			C144.415,209.355,134.096,193.177,134.096,193.177z"/>
		<path style="fill:#96362F;" d="M194.588,185.244c0,0,5.117-11.821,9.46-11.828c9.473-0.015,0.141,32.515-6.452,29.564
			C191.002,200.029,194.588,185.244,194.588,185.244z"/>
		<g>
			<path style="fill:#B3A8A6;" d="M134.013,217.266L134.013,217.266c-2.926,1.009-6.116-0.545-7.125-3.471l-7.952-23.06
				c-1.009-2.926,0.545-6.116,3.471-7.125h0c2.926-1.009,6.116,0.545,7.125,3.471l7.952,23.06
				C138.493,213.067,136.939,216.257,134.013,217.266z"/>
			<path style="fill:#C3B9B7;" d="M134.013,217.266L134.013,217.266c-5.852,2.018-12.232-1.09-14.25-6.942l-4.298-12.464
				c-2.018-5.852,1.09-12.232,6.942-14.25l0,0L134.013,217.266z"/>
			<path style="fill:#F8F3F1;" d="M122.554,213.88L122.554,213.88c-2.154,0.743-4.502-0.401-5.244-2.555l-4.394-12.742
				c-0.743-2.154,0.401-4.502,2.555-5.244l0,0C117.624,192.596,124.708,213.138,122.554,213.88z"/>
		</g>
		<g>
			<path style="fill:#B3A8A6;" d="M202.71,208.912L202.71,208.912c3.084,0.259,5.794-2.031,6.053-5.116l2.041-24.307
				c0.259-3.084-2.031-5.794-5.116-6.053l0,0c-3.084-0.259-5.794,2.031-6.053,5.116l-2.041,24.307
				C197.335,205.943,199.625,208.653,202.71,208.912z"/>
			<path style="fill:#C3B9B7;" d="M202.71,208.912L202.71,208.912c6.169,0.518,11.589-4.063,12.107-10.231l1.103-13.138
				c0.518-6.169-4.063-11.589-10.231-12.107l0,0L202.71,208.912z"/>
			<path style="fill:#F8F3F1;" d="M212.985,202.814L212.985,202.814c2.27,0.191,4.265-1.495,4.456-3.765l1.128-13.431
				c0.191-2.27-1.495-4.265-3.765-4.456l0,0C212.533,180.971,210.715,202.624,212.985,202.814z"/>
		</g>
		<path style="fill:#AF4B3E;" d="M199.132,174.877c1.429,8.903,0.578,21.367-0.755,30.974c-0.726,5.103-1.581,9.406-2.321,11.964
			c-0.664,2.311-2.374,5.461-4.694,8.745c-5.103,7.183-13.1,14.916-19.183,15.271c-9.516,0.541-24.76-13.661-27.975-18.506
			c-1.478-2.229-4.541-8.888-7.457-16.182c-3.449-8.618-6.674-18.1-6.811-22.185c-0.109-3.224,0.094-8.693,0.759-14.228
			c0.878-7.373,2.571-14.877,5.471-17.393c5.059-4.378,17.884-1.077,23.854-1.448c5.955-0.369,22.477-9.871,26.917-5.592
			C191.378,150.577,196.944,161.27,199.132,174.877z"/>
		<g>
			<path style="fill:#96362F;" d="M168.749,207.746c-0.26,0-0.52-0.101-0.716-0.302c-0.384-0.394-0.377-1.024,0.014-1.41
				c0.12-0.121,2.801-2.881,0.426-7.065c-0.273-0.48-0.105-1.091,0.376-1.363c0.479-0.273,1.09-0.105,1.363,0.376
				c2.525,4.448,0.604,8.146-0.765,9.48C169.252,207.652,169,207.746,168.749,207.746z"/>
		</g>
		<path style="fill:#FFFFF7;" d="M160.138,216.421c0,0,14.186-1.642,20.48-4.073c0,0-3.12,11.909-9.354,12.521
			C165.031,225.48,160.138,216.421,160.138,216.421z"/>
		<g>
			<path style="fill:#260918;" d="M138.121,182.195c-0.225,0-0.451-0.075-0.638-0.23c-0.425-0.352-0.484-0.983-0.132-1.408
				c4.598-5.55,17.998-5.049,18.564-5.026c0.552,0.023,0.98,0.489,0.957,1.041c-0.023,0.552-0.5,0.982-1.041,0.957
				c-0.128-0.005-12.973-0.484-16.94,4.304C138.694,182.072,138.409,182.195,138.121,182.195z"/>
		</g>
		<g>
			<path style="fill:#260918;" d="M173.26,175.215c-0.382,0-0.748-0.221-0.914-0.593c-0.225-0.504,0.001-1.096,0.505-1.321
				c0.521-0.233,12.871-5.655,20.219-0.921c0.464,0.299,0.598,0.918,0.299,1.382c-0.3,0.465-0.918,0.599-1.382,0.299
				c-6.448-4.155-18.203,1.012-18.32,1.065C173.535,175.186,173.396,175.215,173.26,175.215z"/>
		</g>
		<path style="fill:#260918;" d="M150.104,194.034c0.542,2.538,0.121,4.769-0.941,4.981c-1.061,0.213-2.361-1.673-2.903-4.211
			c-0.542-2.538-0.121-4.769,0.941-4.981C148.262,189.61,149.562,191.495,150.104,194.034z"/>
		<path style="fill:#260918;" d="M187.016,188.64c0.259,2.582-0.404,4.769-1.48,4.885c-1.076,0.116-2.159-1.883-2.418-4.465
			c-0.259-2.582,0.403-4.769,1.48-4.885C185.674,184.059,186.757,186.058,187.016,188.64z"/>
	</g>
	<path style="fill:#422033;" d="M122.319,196.225c0,0,10.995,0.962,12.401-6.659c1.406-7.621-4.974-16.16,4.005-28.432
		c0,0-4.456,16.919,4.798,22.145c0,0-7.095-8.453-0.466-20.92c6.628-12.467,16.959-10.471,16.959-10.471s-4.054,8.133,5.105,12.21
		c9.159,4.076,19.427,9.316,17.196,15.197c0,0,6.817-8.604-4.762-17.925c0,0,13.229,5.923,13.639,16.672
		c0.41,10.749,10.108,12.103,10.108,12.103s6.996-19.288-0.962-34.487c-7.958-15.199-18.541-22.344-34.902-18.991
		c-16.361,3.352-34.416,5.377-40.324,14.597C112.689,171.452,127.504,185.372,122.319,196.225z"/>
	<g>
		<path style="fill:#260918;" d="M135.751,131.321c-0.251,0-0.502-0.093-0.695-0.281c-0.397-0.384-0.407-1.018-0.023-1.414
			c5.206-5.378,10.463-7.924,15.615-7.564c6.863,0.478,10.918,5.937,11.088,6.168c0.325,0.446,0.227,1.07-0.218,1.396
			c-0.447,0.326-1.071,0.227-1.398-0.215c-0.036-0.05-3.705-4.953-9.633-5.355c-4.525-0.306-9.249,2.035-14.017,6.961
			C136.273,131.219,136.012,131.321,135.751,131.321z"/>
	</g>
	<g>
		<path style="fill:#260918;" d="M199.001,161.321c-0.345,0-0.68-0.178-0.866-0.498c-0.069-0.118-6.938-11.865-13.639-16.514
			c-0.454-0.315-0.566-0.938-0.252-1.392c0.314-0.455,0.937-0.567,1.392-0.252c7.069,4.904,13.939,16.655,14.229,17.153
			c0.277,0.478,0.115,1.089-0.363,1.367C199.344,161.277,199.171,161.321,199.001,161.321z"/>
	</g>
	<g>
		<path style="fill:#260918;" d="M204.231,175.712c-0.071,0-0.144-0.008-0.217-0.024c-0.539-0.119-0.879-0.653-0.761-1.192
			c0.029-0.13,2.783-13.109-4.354-22.751c-0.329-0.444-0.235-1.07,0.208-1.399c0.444-0.329,1.07-0.235,1.399,0.209
			c7.689,10.388,4.825,23.807,4.699,24.373C205.103,175.395,204.69,175.712,204.231,175.712z"/>
	</g>
	<g>
		<path style="fill:#260918;" d="M190.666,133.786c-0.252,0-0.504-0.095-0.699-0.285c-5.424-5.295-10.619-7.86-15.438-7.635
			c-5.03,0.238-7.903,3.564-7.932,3.598c-0.356,0.421-0.987,0.474-1.408,0.121c-0.422-0.355-0.478-0.983-0.125-1.405
			c0.137-0.164,3.416-4.009,9.323-4.309c5.408-0.272,11.121,2.484,16.976,8.2c0.395,0.386,0.403,1.019,0.017,1.414
			C191.186,133.685,190.926,133.786,190.666,133.786z"/>
	</g>
</g>
<g>
	<path style="fill:#AF4B3E;" d="M130.658,260.788c0,0,8.234-5.811,11.524-10.622c3.29-4.811,4.1-9.078,4.786-12.153
		c0.687-3.075,4.299-17.154,3.628-20.027c-0.4-1.713-5.219,1.078-9.866,8.098c-3.118,4.709-10.297,7.079-11.422,9.359
		C128.183,237.723,125.262,265.028,130.658,260.788z"/>
	<g>
		<path style="fill:#96362F;" d="M129.307,236.443c-0.148,0-0.299-0.033-0.442-0.104c-0.495-0.244-0.698-0.844-0.454-1.339
			c0.61-1.236,2.273-2.27,4.378-3.578c2.429-1.51,5.452-3.389,7.107-5.89c3.667-5.539,8.14-9.413,10.377-9.005
			c0.659,0.119,1.144,0.579,1.296,1.232c0.471,2.015-1.017,6.045-3.17,11.518c-0.826,2.1-1.606,4.083-1.83,5.084
			c-0.12,0.539-0.651,0.876-1.194,0.758c-0.539-0.121-0.878-0.655-0.758-1.194c0.258-1.152,1.028-3.111,1.921-5.379
			c1.292-3.285,3.206-8.15,3.124-10.016c-1.154,0.307-4.516,2.697-8.098,8.108c-1.897,2.865-5.126,4.872-7.72,6.484
			c-1.614,1.003-3.282,2.04-3.64,2.765C130.031,236.238,129.676,236.443,129.307,236.443z"/>
	</g>
	<g>
		<g>
			<path style="fill:#B3A8A6;" d="M147.974,227.775c-19.413,0-28.394-14.79-28.49-14.954c-0.421-0.713-0.185-1.633,0.529-2.054
				c0.711-0.421,1.631-0.185,2.053,0.526l0,0c0.394,0.661,9.89,16.151,31.28,13.089c0.816-0.122,1.58,0.452,1.697,1.272
				c0.117,0.82-0.452,1.58-1.273,1.697C151.744,227.642,149.811,227.775,147.974,227.775z"/>
		</g>
		<path style="fill:#B3A8A6;" d="M163.615,224.026c0.308,2.041-2.028,4.086-5.218,4.568c-3.19,0.481-6.025-0.783-6.333-2.824
			c-0.308-2.041,2.028-4.086,5.218-4.568C160.471,220.721,163.307,221.985,163.615,224.026z"/>
	</g>
	<path style="fill:#AF4B3E;" d="M132.77,215.464c0,0,2.675-2.748,8.919,2.468c1.913,1.598,7.388,7.576,8.336,10.019
		c0.949,2.444-5.032,8.362-7.107,9.245c-2.075,0.883-5.187-2.864-6.233-3.541c-1.046-0.677-7.063-4.09-7.063-4.09L132.77,215.464z"
		/>
	<path style="fill:#AF4B3E;" d="M116.139,250.148c2.031-3.452-1.008-29.701-0.541-31.637c0.467-1.936,14.724-6.854,17.293-5.661
		c2.569,1.193,8.837,9.772,8.272,10.799c-0.565,1.027-5.975,5.964-7.827,6.302c0,0,4.521,10.112,4.535,15.389
		c0.015,5.277-3.868,11.912-7.213,15.447C127.313,264.324,111.472,258.083,116.139,250.148z"/>
	<g>
		<path style="fill:#96362F;" d="M130.641,249.91c-0.121,0-0.245-0.023-0.364-0.069c-0.514-0.202-0.768-0.782-0.566-1.296
			c3.222-8.225-3.386-19.57-3.453-19.683c-0.281-0.476-0.123-1.089,0.352-1.37c0.475-0.282,1.088-0.124,1.37,0.352
			c0.294,0.499,7.167,12.307,3.594,21.43C131.419,249.669,131.041,249.91,130.641,249.91z"/>
	</g>
	<g>
		<path style="fill:#96362F;" d="M132.258,231.51c-0.098,0-0.197-0.015-0.292-0.044c-2.002-0.613-6.732-2.261-7.402-4.326
			c-0.206-0.654-0.362-1.609-0.432-2.627c-0.107-1.634-0.022-3.761,0.987-4.634c0.406-0.351,0.921-0.481,1.447-0.369
			c2.237,0.487,3.325,1.634,3.844,2.51c0.717,1.211,0.877,2.757,0.439,4.243c-0.156,0.53-0.713,0.834-1.242,0.676
			c-0.53-0.156-0.833-0.712-0.676-1.242c0.277-0.941,0.187-1.935-0.242-2.658c-0.434-0.731-1.216-1.244-2.329-1.524
			c-0.152,0.352-0.336,1.283-0.233,2.864c0.057,0.839,0.188,1.665,0.341,2.151c0.207,0.639,2.852,1.981,5.666,2.892
			c0.494-0.293,1.425-0.854,2.481-1.541c4.537-2.927,5.454-4.216,5.637-4.634c0.464-1.042-2.005-4.853-4.509-7.624
			c-0.37-0.41-0.338-1.042,0.071-1.413c0.409-0.37,1.042-0.339,1.412,0.071c1.447,1.6,6.075,7.034,4.855,9.774
			c-0.209,0.476-0.851,1.937-6.379,5.503c-1.604,1.042-2.893,1.785-2.947,1.816C132.603,231.465,132.431,231.51,132.258,231.51z"/>
	</g>
	<g>
		<path style="fill:#96362F;" d="M130.851,223.986c-0.154,0-0.312-0.036-0.459-0.112c-0.49-0.253-0.683-0.857-0.429-1.348
			c0.241-0.466,1.235-1.527,5.05-1.476c0.552,0.01,0.992,0.465,0.982,1.018c-0.01,0.546-0.456,0.982-0.999,0.982
			c-0.006,0-0.012,0-0.018,0c-2.477-0.041-3.206,0.436-3.315,0.52C131.472,223.836,131.166,223.986,130.851,223.986z
			 M131.739,223.447c-0.001,0-0.001,0.001-0.001,0.001C131.738,223.448,131.738,223.447,131.739,223.447z M131.74,223.445
			c0,0,0,0.001-0.001,0.001C131.739,223.446,131.74,223.445,131.74,223.445z"/>
	</g>
	<g>
		<path style="fill:#96362F;" d="M135.839,233.924c-2.33,0-4.19-2.542-4.399-2.838c-0.318-0.451-0.21-1.073,0.24-1.392
			c0.451-0.319,1.073-0.212,1.394,0.238c0.379,0.534,1.669,2.062,2.797,1.993c0.035-0.003,0.098-0.004,0.164-0.02
			c1.946-0.42,7.117-4.307,7.559-5.435c0.212-0.71-0.888-4.079-2.403-7.349c-0.232-0.501-0.014-1.095,0.487-1.328
			c0.498-0.232,1.095-0.016,1.328,0.486c0.969,2.089,3.146,7.14,2.452,8.918c-0.771,1.971-6.701,6.166-8.977,6.657
			c-0.152,0.037-0.316,0.053-0.482,0.066C135.945,233.923,135.892,233.924,135.839,233.924z"/>
	</g>
	<g>
		<path style="fill:#96362F;" d="M138.558,236.521c-0.075,0-0.15-0.008-0.224-0.025c-1.215-0.279-2.849-1.977-3.32-2.49
			c-0.374-0.407-0.347-1.039,0.06-1.413c0.406-0.373,1.039-0.348,1.413,0.06c0.727,0.79,1.616,1.552,2.092,1.809
			c1.938-0.651,6.242-2.334,7.442-3.871c1.397-1.789,0.723-4.479,0.715-4.506c-0.144-0.533,0.171-1.082,0.705-1.226
			c0.533-0.144,1.082,0.171,1.226,0.705c0.04,0.148,0.958,3.661-1.07,6.258c-1.879,2.407-8.038,4.43-8.734,4.652
			C138.764,236.505,138.661,236.521,138.558,236.521z"/>
	</g>
	<g>
		<path style="fill:#96362F;" d="M134.34,239.59c-0.13,0-0.263-0.026-0.391-0.08c-0.508-0.216-0.745-0.804-0.529-1.312
			c0.798-1.875,3.659-3.635,3.982-3.83c0.472-0.286,1.087-0.132,1.372,0.341c0.285,0.473,0.132,1.087-0.341,1.372
			c-1.008,0.607-2.761,1.932-3.172,2.899C135.099,239.361,134.729,239.59,134.34,239.59z"/>
	</g>
	<g>
		<path style="fill:#96362F;" d="M142.236,238.374c-1.701,0-3.659-1.526-4.325-2.09c-0.421-0.357-0.473-0.987-0.116-1.409
			c0.356-0.421,0.986-0.474,1.409-0.117c1.314,1.111,2.846,1.801,3.178,1.593c1.052-0.665,4.304-3.686,5.468-4.794
			c0.4-0.381,1.034-0.366,1.414,0.035c0.381,0.4,0.365,1.033-0.035,1.414c-0.443,0.422-4.369,4.146-5.777,5.037
			C143.08,238.277,142.666,238.374,142.236,238.374z"/>
	</g>
</g>
<g>
	<g>
		<path style="fill:#B3A8A6;" d="M530.977,256.52c-0.001,0-0.002,0-0.003,0c-25.69-0.049-29.912-22.797-29.952-23.027
			c-0.141-0.816,0.407-1.592,1.224-1.733c0.814-0.143,1.591,0.406,1.732,1.221c0.15,0.844,3.881,20.496,27.002,20.54
			c0.828,0.001,1.499,0.674,1.497,1.503C532.475,255.85,531.804,256.52,530.977,256.52z"/>
	</g>
	<path style="fill:#B3A8A6;" d="M537.859,256.545c-0.399,2.025-3.289,3.161-6.454,2.537c-3.165-0.624-5.407-2.772-5.007-4.798
		c0.399-2.025,3.289-3.161,6.454-2.537C536.017,252.372,538.259,254.52,537.859,256.545z"/>
</g>
<path style="fill:#AF4B3E;" d="M116.139,250.148c-2.806,8.339-55.068,73.339-60.437,89.672c-5.369,16.333,3.981,35.672,10.136,40
	c6.351,4.466,29.827-12.04,35.999-25.655c6.172-13.615,23.391-85.115,28.82-93.378C136.088,252.525,116.139,250.148,116.139,250.148
	z"/>
<g>
	<path style="fill:#96362F;" d="M101.836,355.165c-0.183,0-0.368-0.05-0.535-0.155c-0.466-0.296-0.604-0.914-0.309-1.38
		c4.326-6.823,6.575-20.02,6.597-20.151c0.091-0.545,0.603-0.916,1.152-0.821c0.544,0.092,0.912,0.607,0.821,1.151
		c-0.093,0.558-2.34,13.731-6.88,20.892C102.492,355.001,102.167,355.165,101.836,355.165z"/>
</g>
<path style="fill:#C3B9B7;" d="M196.798,146.988c0,0-13.798-17.049-40.131-12.191C130.333,139.654,121,163.988,121,163.988
	s3.46-31.871,34.874-36.333C187.287,123.191,196.798,146.988,196.798,146.988z"/>
<path style="fill:#FFFFFF;" d="M538.07,245.716c0,0,15.333,3.667,23.667,2.667c0,0-4.161,6.287-11.525,5.788
	C542.848,253.673,538.07,245.716,538.07,245.716z"/>
<g>
	<path style="fill:#260918;" d="M122.408,184.61c-0.371,0-0.727-0.207-0.9-0.562c-0.193-0.396-4.714-9.8-2.958-18.194
		c0.113-0.541,0.646-0.884,1.184-0.774c0.541,0.113,0.887,0.643,0.774,1.184c-1.617,7.73,2.753,16.817,2.798,16.908
		c0.242,0.497,0.036,1.095-0.461,1.337C122.705,184.578,122.555,184.61,122.408,184.61z"/>
</g>
<path style="fill:#422033;" d="M192.033,242.358c-0.366,5.129-11.463,14.129-11.415,25.129c0,0,1.555-8.269,7.468-12.468
	c0,0-11.251,18.397,0,30.135c0,0,4.536-7.667,16.058-15.333c11.522-7.667,11.118-27.975,11.118-27.975L192.033,242.358z"/>
<path style="fill:#422033;" d="M209.784,250.148c0,0-11.565,22.581,2.159,32.627c0,0,1.406-18.164,12.898-37.059
	C236.333,226.821,209.784,250.148,209.784,250.148z"/>
<g>
	<path style="fill:#260918;" d="M219.424,257.063c-0.231,0-0.463-0.08-0.652-0.242c-0.419-0.36-0.466-0.991-0.107-1.41
		c0.098-0.114,9.722-11.517,8.067-26.18c-0.062-0.549,0.333-1.044,0.881-1.106c0.548-0.063,1.044,0.332,1.106,0.881
		c1.755,15.553-8.117,27.22-8.538,27.709C219.984,256.945,219.705,257.063,219.424,257.063z"/>
</g>
<g>
	<path style="fill:#260918;" d="M205.244,268.487c-0.34,0-0.671-0.173-0.858-0.486c-0.284-0.473-0.13-1.087,0.342-1.372
		c0.096-0.058,9.535-5.838,9.535-14.963c0-0.552,0.448-1,1-1c0.552,0,1,0.448,1,1c0,10.27-10.078,16.421-10.507,16.678
		C205.596,268.442,205.418,268.487,205.244,268.487z"/>
</g>
<g>
	<path style="fill:#260918;" d="M206.863,258.779c-0.364,0-0.714-0.199-0.892-0.546c-0.251-0.491-0.055-1.093,0.436-1.345
		c0.493-0.253,12.044-6.365,9.088-21.471c-3.174-16.226-3.855-23.625,2.297-31.574c0.339-0.437,0.966-0.516,1.403-0.179
		c0.436,0.338,0.517,0.966,0.179,1.403c-5.647,7.295-4.966,14.372-1.916,29.965c3.252,16.62-10.009,23.569-10.144,23.637
		C207.17,258.744,207.015,258.779,206.863,258.779z"/>
</g>
<g>
	<path style="fill:#AF4B3E;" d="M1382.484,409.556c-11.491,2.683-35.732-11.206-41.978-37.367
		c-6.245-26.161-17.597-51.1-21.437-63.959c-3.84-12.859-4.484-29.326,7.088-25.483c11.571,3.842,46.521,61.074,56.405,73.134
		S1401.6,405.092,1382.484,409.556z"/>
	<g>
		<path style="fill:#AF4B3E;" d="M1336.46,292.377c-4.05-9.428-13.63-23.014-18.953-28.817
			c-5.323-5.803-12.037-16.646-15.431-18.256c-3.394-1.61-14.931-7.577-16.767-5.729c-1.836,1.848,9.603,8.072,11.451,9.908
			s9.458,8.883,8.358,10.36c-1.1,1.477-8.196-5.646-12.401-7.4c-4.205-1.754-13.317-6.678-15.744-5.271
			c-2.427,1.408-0.391,4.734-1.121,6.946c-0.73,2.212-0.261,16.013,2.161,20.289c1.568,2.769,11.64,9.473,21.865,18.126
			c5.185,4.388,12.482,3.736,17.591,11.676C1322.579,312.148,1339.652,299.807,1336.46,292.377z"/>
		<g>
			<path style="fill:#96362F;" d="M1299.879,293.393c-0.196,0-0.394-0.067-0.556-0.204c-4.175-3.532-8.271-6.699-11.887-9.493
				c-5.317-4.11-9.16-7.08-10.171-8.865c-2.57-4.541-3.049-18.497-2.229-20.982c0.219-0.664,0.107-1.551-0.01-2.489
				c-0.211-1.683-0.473-3.778,1.516-4.932c2.12-1.231,7.028,0.87,13.229,3.743c1.225,0.568,2.382,1.104,3.277,1.478
				c1.942,0.81,4.326,2.6,6.632,4.33c1.559,1.17,3.612,2.711,4.594,3.108c-0.383-0.933-2.077-3.128-7.259-8.154
				c-0.35-0.339-0.645-0.625-0.861-0.84c-0.51-0.506-2.032-1.517-3.645-2.587c-4.864-3.228-8.066-5.479-8.25-7.283
				c-0.049-0.475,0.107-0.92,0.439-1.254c1.73-1.737,7.296,0.473,16.332,4.874c0.556,0.271,1.035,0.505,1.413,0.684
				c2.233,1.059,5.381,5.241,9.024,10.084c2.252,2.993,4.58,6.087,6.673,8.368c0.321,0.35,0.298,0.894-0.053,1.215
				c-0.35,0.32-0.894,0.297-1.215-0.052c-2.148-2.343-4.503-5.471-6.779-8.497c-3.214-4.27-6.536-8.686-8.387-9.564
				c-0.383-0.181-0.867-0.418-1.431-0.692c-10.904-5.313-13.658-5.621-14.291-5.254c0.317,1.188,5.131,4.383,7.475,5.938
				c1.83,1.215,3.276,2.174,3.906,2.8c0.212,0.211,0.502,0.492,0.846,0.826c6.827,6.622,8.673,9.211,7.596,10.658
				c-0.218,0.292-0.531,0.475-0.906,0.53c-1.229,0.174-3.088-1.155-6.254-3.532c-2.118-1.589-4.518-3.391-6.262-4.119
				c-0.927-0.387-2.099-0.93-3.339-1.504c-3.539-1.641-10.128-4.695-11.642-3.816c-0.909,0.527-0.903,1.39-0.672,3.231
				c0.136,1.086,0.276,2.209-0.064,3.241c-0.674,2.044-0.151,15.633,2.092,19.596c0.841,1.484,4.959,4.667,9.727,8.353
				c3.629,2.805,7.742,5.983,11.946,9.541c0.362,0.307,0.407,0.85,0.101,1.212C1300.365,293.289,1300.123,293.393,1299.879,293.393z
				"/>
		</g>
		<g>
			<path style="fill:#96362F;" d="M1299.742,268.947c-0.159,0-0.32-0.045-0.464-0.137c-0.166-0.108-16.716-10.727-22.803-13.607
				c-0.429-0.203-0.612-0.716-0.409-1.145c0.204-0.429,0.715-0.613,1.146-0.41c6.187,2.928,22.313,13.275,22.996,13.714
				c0.399,0.257,0.516,0.789,0.259,1.189C1300.303,268.807,1300.025,268.947,1299.742,268.947z"/>
		</g>
		<g>
			<path style="fill:#96362F;" d="M1291.989,276.433c-0.226,0-0.451-0.089-0.62-0.265c-1.639-1.705-11.57-8.099-15.259-10.419
				c-0.401-0.253-0.522-0.784-0.27-1.186c0.252-0.401,0.783-0.523,1.186-0.27c0.549,0.345,13.464,8.478,15.583,10.683
				c0.329,0.342,0.318,0.887-0.024,1.216C1292.418,276.353,1292.204,276.433,1291.989,276.433z"/>
		</g>
	</g>
</g>
<g>
	<path style="fill:#96362F;" d="M1389.658,370.425c-0.386,0-0.753-0.224-0.917-0.599c-4.305-9.828-26.383-41.17-26.605-41.485
		c-0.318-0.451-0.21-1.075,0.241-1.393c0.451-0.316,1.074-0.21,1.394,0.241c0.913,1.294,22.417,31.822,26.803,41.835
		c0.222,0.506-0.009,1.096-0.515,1.317C1389.928,370.399,1389.792,370.425,1389.658,370.425z"/>
</g>
<g>
	<g>
		<path style="fill:#C3B9B7;" d="M1246.542,229.547c-0.149,0-0.301-0.023-0.451-0.07c-34.042-10.729-36.791-31.658-36.892-32.544
			c-0.094-0.823,0.498-1.566,1.321-1.659c0.83-0.096,1.563,0.496,1.659,1.317c0.034,0.273,2.824,19.943,34.813,30.024
			c0.79,0.249,1.229,1.091,0.979,1.881C1247.771,229.137,1247.18,229.547,1246.542,229.547z"/>
	</g>
	<path style="fill:#B3A8A6;" d="M1253.507,229.055c-0.368,2.031-3.24,3.211-6.414,2.636c-3.174-0.575-5.449-2.688-5.081-4.72
		c0.368-2.031,3.24-3.211,6.414-2.636C1251.601,224.911,1253.875,227.024,1253.507,229.055z"/>
</g>
<g>
	<path style="fill:#E8B65D;" d="M521.138,285.343c-0.291,0-0.578-0.126-0.776-0.368c-5.637-6.918-5.814-13.502-5.819-13.778
		c-0.01-0.553,0.431-1.008,0.982-1.018c0.547,0.002,1.007,0.43,1.018,0.98l0,0c0.001,0.061,0.193,6.199,5.37,12.552
		c0.349,0.429,0.284,1.059-0.143,1.407C521.583,285.27,521.359,285.343,521.138,285.343z"/>
</g>
<g>
	<path style="fill:#FF7B8F;" d="M1004.754,459.593c-12.469,6.65-4.662,21.942,2.421,27.844c3.632,3.026,14.036,6.185,19.37,7.264
		c24.874,5.028,46.273,5.778,71.427,2.421c13.725-1.832,24.403-5.598,32.082-10.29c10.896-6.658,9.685-21.791,0.605-27.239
		c-9.08-5.448-36.319-9.685-64.768-9.685C1037.441,449.908,1013.833,454.75,1004.754,459.593z"/>
	<path style="fill:#EF435D;" d="M1125.211,463.225c0,0.726-0.484,1.453-1.429,2.131c-5.762,4.334-28.546,7.554-55.761,7.554
		c-26.319,0-48.498-3.002-55.156-7.094c-1.356-0.848-2.058-1.695-2.058-2.591c0-5.351,25.617-9.685,57.214-9.685
		C1099.594,453.54,1125.211,457.874,1125.211,463.225z"/>
	<path style="fill:#7F3D18;" d="M1123.782,465.356c-4.334,3.244-18.256,5.884-36.44,6.973c-1.622,0.121-3.244,0.194-4.915,0.291
		c-4.6,0.194-9.419,0.291-14.406,0.291c-26.319,0-48.498-3.002-55.156-7.094c3.608-4.019,13.099-3.753,19.104-4.383
		c9.273-0.993,17.917-0.629,26.658-2.47c4.237-0.872,7.458-0.121,10.896,0.581c0,0,0,0,0,0.024c1.09,0.218,2.203,0.436,3.39,0.581
		c1.017,0.121,2.01,0.194,3.002,0.218c0.145,0.024,0.291,0.024,0.436,0c2.058,0.048,4.068-0.097,6.102-0.121
		c1.162,0,2.349,0.024,3.535,0.145c0.581,0.048,1.138,0.146,1.719,0.242c1.09,0.194,2.276,0.315,3.535,0.363
		c9.709,0.339,23.196-3.293,31.258,3.123C1123.007,464.532,1123.443,464.944,1123.782,465.356z"/>
	<g>
		<path style="fill:#50A172;" d="M1051.953,465.565c-1.364,0.718-2.979,1.077-4.881,1.041c-0.036,0-0.072,0-0.108-0.036
			c-0.108,0-0.179,0-0.251-0.036c-1.005-0.143-1.759-0.215-2.297-0.215c-0.359,0-0.646,0.036-0.861,0.072
			c-0.395,0.072-0.61,0.179-0.826,0.287c-0.61,0-1.22,0-1.795,0.108c-0.538,0.036-1.077,0.143-1.579,0.215
			c-0.646,0.143-1.292,0.287-1.902,0.431c-0.395,0.108-0.79,0.179-1.185,0.251c-1.113,0.215-2.225,0.359-3.374,0.215
			c-1.579-0.179-3.266-0.933-5.24-2.656c-5.097-4.486-6.245-11.449-4.702-17.838c1.687-6.963,5.419-10.372,11.952-10.049
			c0.323,0,0.646,0.036,0.969,0.072c1.292,0.108,2.62,0.108,3.984,0.072h0.682c0.897-0.036,1.795-0.072,2.692-0.072
			c3.374-0.036,6.64,0.251,9.224,2.369C1059.311,445.359,1060.172,461.33,1051.953,465.565z"/>
		<path style="fill:#368757;" d="M1051.415,442.2c-2.154-3.087-5.097-3.625-8.183-4.774c-0.897-0.323-1.83-0.718-2.764-1.256
			c-0.574-0.323-1.005,0.359-0.753,0.79c0.036,0.072,0.107,0.143,0.179,0.179c0.215,0.144,0.431,0.251,0.646,0.359
			c0.287,0.179,0.574,0.323,0.861,0.502c-0.502-0.107-0.933-0.287-1.507-0.323c0-0.072,0-0.144-0.036-0.179
			c-0.036-0.108-0.107-0.215-0.215-0.287c0.036-0.072,0.036-0.144,0.072-0.215v-0.036c0-0.072-0.108-0.143-0.179-0.072
			c-0.108,0.108-0.18,0.179-0.251,0.287c0,0,0,0-0.036,0c-0.215,0.072-0.395,0.179-0.61,0.287c0-0.287-0.18-0.574-0.538-0.574
			c-1.149,0-2.189,0.179-3.194,0.467c-6.352,1.974-9.403,9.798-9.26,16.366c0.107,3.912,1.794,7.681,4.163,10.731
			c0.718,0.933,1.794,2.225,3.086,3.446c1.149,0.143,2.261,0,3.374-0.215c-0.143-0.072-0.287-0.179-0.395-0.251
			c-3.41-2.405-6.604-5.456-8.04-9.547c-2.405-7.035,1.041-18.592,9.296-19.74c-4.056,2.441-5.671,7.322-5.743,12.167
			c-0.143,6.855,2.907,11.844,6.066,17.12c0.61-0.143,1.256-0.287,1.902-0.431c-1.759-2.512-3.589-4.989-4.737-7.932
			c-2.405-6.281-2.8-15.361,3.158-19.74c-1.436,2.8-1.292,5.958-0.179,9.188c2.261,6.64,3.912,12.06,3.338,18.269
			c0.574-0.108,1.184-0.108,1.795-0.108c0.215-0.108,0.431-0.215,0.826-0.287c0.215-2.62,0.108-5.24-0.431-7.932
			c-0.503-2.441-1.328-4.63-2.261-6.891c-2.046-4.917-2.692-8.183-1.543-12.993c11.772,3.661,9.619,17.766,5.097,27.744
			c0.538,0,1.292,0.072,2.297,0.215c3.589-8.757,5.276-20.637-0.395-26.057c1.364,0.718,2.656,1.543,3.589,2.62
			c3.266,3.912,2.656,12.095,1.436,16.331c-0.826,2.943-2.477,5.168-4.379,7.142c0.036,0.036,0.072,0.036,0.108,0.036
			c1.902,0.036,3.517-0.323,4.881-1.041c1.364-2.943,2.154-6.173,2.333-9.368C1054.573,451.711,1054.071,446.005,1051.415,442.2z"/>
		<path style="fill:#FF7B8F;" d="M1038.099,441.483c-6.128-1.736-13.124-4.274-12.136-12.852c1.4,3.047,5.739,6.035,8.828,7.5
			c-4.782-4.307-3.973-9.833-2.523-15.105c0.296,2.413,2.298,3.959,3.405,6.122c1.224,2.391,1.594,5.411,2.763,7.569
			c1.62-3.992,1.321-8.844,4.071-12.049c0.336,4.74-0.054,8.291-0.75,12.946c3.542-2.254,7.724-5.271,7.086-10.143
			c1.467,4.215,2.561,9.879-1.548,13.116C1045.509,439.994,1041.111,440.596,1038.099,441.483z"/>
	</g>
	<g>
		<path style="fill:#2A9389;" d="M1111.956,459.596c-0.431,1.113-1.005,2.118-1.759,2.979c-0.359,0.395-0.718,0.754-1.148,1.041
			c-0.467,0.395-1.005,0.718-1.579,0.969h-0.036c-0.215,0.072-0.431,0.144-0.646,0.215c-0.359-0.036-0.718-0.036-1.041-0.108
			c-1.005-0.072-1.866-0.251-2.62-0.467c-3.553-0.969-4.989-3.051-5.312-5.994c-0.431-3.984,1.974-7.932,5.276-9.475
			c0.431-0.18,0.897-0.323,1.364-0.431c0.036-0.036,0.072-0.036,0.144-0.036c0.287-0.072,0.574-0.108,0.897-0.108
			c1.507-0.108,3.087,0.323,4.594,1.435C1112.925,451.7,1113.32,456.043,1111.956,459.596z"/>
		<path style="fill:#4FB2A6;" d="M1111.956,459.596c-0.036-4.774-2.046-9.439-6.46-11.413c-0.144-0.108-0.323-0.179-0.467-0.251
			c-0.251-0.072-0.431,0.143-0.431,0.359c0,0.072,0,0.144,0.072,0.215c0.072,0.036,0.108,0.108,0.18,0.144
			c-1.22,2.369-0.933,5.24-0.251,7.752c0.825,2.979,2.189,5.42,2.835,8.183h0.036c0.574-0.251,1.113-0.574,1.579-0.969
			c-0.144-0.646-0.359-1.292-0.646-1.902c-0.933-2.333-2.261-4.451-2.764-6.963c-0.395-1.902-0.215-3.84-0.395-5.743
			c3.015,2.871,5.132,5.958,5.24,10.409c0.036,1.113-0.072,2.153-0.287,3.158C1110.951,461.714,1111.525,460.708,1111.956,459.596z
			 M1101.942,459.668c-1.723-4.702,0.467-7.286,2.512-11.234v-0.108c-0.036-0.072-0.108-0.143-0.179-0.108
			c-0.431,0.108-0.825,0.323-1.184,0.538c-2.764,1.759-3.481,6.353-2.979,9.296c0.359,2.117,1.471,4.379,3.015,6.173
			c0.754,0.215,1.615,0.395,2.62,0.467C1104.168,463.364,1102.768,461.929,1101.942,459.668z"/>
		<path style="fill:#FF793E;" d="M1106.98,445.151c-0.24,0.584-0.413,1.178-0.639,1.717c-0.008-0.973-0.331-2.029-0.775-2.512
			c-0.122-0.133-0.38-0.108-0.462,0.06c-0.415,0.849-0.018,1.299-0.11,2.219c-0.054,0.535,0.402,0.892-0.571,0.504
			c-0.582-0.232-0.962-1.151-1.274-1.641c-0.293-0.461-0.987-0.163-0.871,0.367c0.164,0.754,0.888,2.071,1.791,2.662
			c-0.656,0.014-0.949-0.283-1.632-0.746c-0.509-0.344-0.865-0.562-1.447-0.742c-0.283-0.088-0.566,0.26-0.396,0.515
			c0.973,1.462,3.121,3.274,4.924,2.246c1.498-0.854,2.75-2.917,2.437-4.649C1107.855,444.603,1107.146,444.747,1106.98,445.151z"/>
	</g>
	<g>
		<path style="fill:#87D6A9;" d="M1056.305,464.962c-0.179,1.005-0.61,1.938-1.256,2.728c-0.359,0.467-0.826,0.897-1.328,1.22
			c-0.646,0.466-1.364,0.789-2.153,0.933c-0.467,0.108-0.897,0.144-1.328,0.144c-0.179,0-0.359,0-0.539-0.036
			c-0.502-0.072-0.969-0.179-1.4-0.395c-1.22-0.503-2.154-1.508-2.728-2.907c-0.036-0.072-0.072-0.18-0.108-0.251
			c-0.179-0.467-0.287-0.969-0.287-1.436c-0.072-1.543,0.718-2.943,1.866-4.235c0.036-0.036,0.072-0.072,0.108-0.108
			c0.431-0.467,0.933-0.826,1.436-1.041c1.83-1.041,4.02-0.861,5.599,0.251c0.61,0.359,1.113,0.861,1.508,1.507
			C1056.305,462.306,1056.557,463.526,1056.305,464.962z"/>
		<path style="fill:#65B786;" d="M1054.834,465.536c0.108,0.646,0.215,1.4,0.215,2.153c-0.359,0.467-0.826,0.897-1.328,1.22
			c0.036-0.933,0.18-1.902,0.072-2.8c-0.215-1.687-0.825-3.051-1.723-4.415c-0.682,1.974-1.723,3.733-2.154,5.814
			c-0.179,0.826-0.215,1.651-0.215,2.441c-0.502-0.072-0.969-0.179-1.4-0.395c0.215-3.015,1.292-6.137,3.051-8.004
			c-1.795,0.323-3.553,1.723-4.666,3.087c-0.503,0.61-0.861,1.256-1.113,2.01c-0.036-0.072-0.072-0.18-0.108-0.251
			c-0.179-0.467-0.287-0.969-0.287-1.436c0.359-0.538,0.718-1.005,1.113-1.4c0.754-0.826,2.046-2.01,3.409-2.584
			c-0.323-0.072-0.682-0.143-1.005-0.179c-0.538-0.072-1.077-0.108-1.651-0.072c0.036-0.036,0.072-0.072,0.108-0.108
			c0.431-0.467,0.933-0.826,1.436-1.041c1.184,0.072,2.369,0.395,3.23,0.969c0.646-0.538,1.472-0.754,2.369-0.718
			c0.61,0.359,1.113,0.861,1.508,1.507c-1.113-0.467-2.154-0.287-3.302-0.359C1053.829,462.019,1054.583,463.885,1054.834,465.536z"
			/>
	</g>
	<g>
		<path style="fill:#87D6A9;" d="M1096.325,469.205c-2.567-0.411-5.666,0.218-8.402-0.92c-0.048,1.501-0.242,2.785-0.581,4.044
			c-1.622,0.121-3.244,0.194-4.915,0.291c-1.283-1.017-2.494-2.349-3.826-4.746c-2.785,2.01-6.901,3.656-10.896,3.414
			c-0.073-0.073,0.315-1.186,0.242-1.259c0.775-1.961,2.349-3.22,3.971-4.14c-2.906,0.872-7.07-0.484-9.854-0.847
			c0.896-1.986,6.489-3.22,8.668-3.027c-0.387-0.678-0.896-1.598-1.211-2.446c0-0.024,0-0.024,0-0.024
			c-0.46-1.307-0.533-2.445,0.775-2.373c1.501,0.073,4.431,1.937,5.617,3.196c0.121,0.145,0.242,0.266,0.315,0.387
			c0.024-0.121,0.073-0.266,0.121-0.387c0.533-1.501,2.155-2.906,3.414-3.777c1.186,1.114,2.034,2.3,2.688,3.656
			c0.218,0.484,0.436,1.017,0.629,1.55c0.557-0.581,1.671-1.09,2.906-1.404c1.574-0.436,3.317-0.557,4.286-0.242
			c0.557,0.194,0.847,0.484,0.968,0.847c0.291,1.017-0.92,2.567-1.864,3.656C1091.967,464,1095.26,467.099,1096.325,469.205z"/>
		<path style="fill:#B2EDCA;" d="M1088.48,460.804c-0.194,1.622-0.75,3.099-2.203,4.14c-0.533,0.412-1.211,0.727-2.034,0.969
			c-1.211,0.387-2.736,0.581-4.697,0.557c-0.242,0-0.484,0-0.751-0.024c-0.218,0-0.436-0.024-0.63-0.048
			c-1.816-0.145-3.317-0.629-4.479-1.332c-0.363-0.218-0.702-0.436-0.993-0.702c-1.332-1.09-1.961-2.469-1.767-3.753
			c0.363-2.276,5.884-11.114,9.177-12.736c0.508-0.242,0.969-0.315,1.332-0.194c0.073,0.024,0.121,0.049,0.194,0.097
			C1084.437,449.085,1088.892,457.656,1088.48,460.804z"/>
		<path style="fill:#65B786;" d="M1086.81,460.658c0.121,1.38-0.049,2.906-0.533,4.286c-0.533,0.412-1.211,0.727-2.034,0.969
			c0.993-2.01,1.743-3.801,1.211-6.537c-0.605-2.954-2.47-5.23-3.777-7.869c-0.412-0.847-0.775-1.695-0.944-2.542
			c0,0.024-0.024,0.024-0.024,0.048c-1.501,4.746-0.266,9.346-0.678,14.503c-0.097,1.017-0.218,2.01-0.484,2.954
			c-0.242,0-0.484,0-0.751-0.024c-0.218,0-0.436-0.024-0.63-0.048c0.993-3.947,0.533-7.675,0.63-12.227
			c0.024-0.872,0.073-1.719,0.218-2.542c-3.075,4.649-6.683,10.145-5.327,13.438c-0.363-0.218-0.702-0.436-0.993-0.702
			c-0.242-1.404,0.024-3.002,0.533-4.455c1.477-4.165,4.31-8.184,6.876-12.034c0.508-0.242,0.969-0.315,1.332-0.194
			c0.073,0.024,0.121,0.049,0.194,0.097C1081.701,451.99,1086.447,456.421,1086.81,460.658z"/>
	</g>
	<path style="fill:#65B786;" d="M1102.451,466.725c-0.606,0.073-1.232,0.073-1.827,0.208c-0.156,0.035-0.224,0.229-0.147,0.361
		c0.417,0.711,1.186,0.943,1.974,0.973C1103.465,468.306,1103.42,466.608,1102.451,466.725z"/>
	<path style="fill:#65B786;" d="M1097.205,464.155c-0.093,0.027-0.187,0.055-0.28,0.082c-0.494,0.145-0.495,0.858,0,1.003
		c0.093,0.027,0.187,0.055,0.28,0.082C1098.179,465.607,1098.185,463.867,1097.205,464.155z"/>
	<path style="fill:#65B786;" d="M1115.21,461.698c-0.59-0.074-1.048,0.065-1.592,0.293c-0.282,0.118-0.396,0.628,0,0.693
		c0.479,0.079,0.936,0.233,1.416,0.314C1115.975,463.156,1116.168,461.819,1115.21,461.698z"/>
	<path style="fill:#65B786;" d="M1114.07,464.439c-0.292-0.424-0.918-0.359-1.083,0.142c-0.017,0.053-0.058,0.137-0.038,0.2
		c0.013,0.038,0.025,0.077,0.038,0.115c0.166,0.503,0.792,0.564,1.083,0.142c0.044-0.063,0.087-0.126,0.13-0.189
		c0.041-0.059,0.041-0.16,0-0.22L1114.07,464.439z"/>
	<path style="fill:#65B786;" d="M1109.946,468.383c-0.487-0.393-0.832-0.486-1.446-0.349c-0.102,0.023-0.14,0.167-0.063,0.237
		c0.466,0.422,0.811,0.513,1.429,0.412C1109.994,468.663,1110.046,468.464,1109.946,468.383z"/>
	<path style="fill:#65B786;" d="M1095.391,459.722c-0.587-0.18-1.034-0.094-1.637-0.093c-0.183,0-0.281,0.096-0.338,0.213
		c-0.591,0.298-0.552,1.187,0.114,1.397c0.655,0.207,1.19,0.172,1.86,0.074C1096.249,461.19,1096.101,459.939,1095.391,459.722z"/>
	<path style="fill:#65B786;" d="M1064.739,457.935c-0.048-0.232-0.257-0.407-0.473-0.473c-0.877-0.268-1.513,0.062-2.211,0.568
		c-0.285,0.207-0.109,0.605,0.233,0.553c0.354-0.029,0.705-0.012,1.052,0.051c0.336,0.158,0.448,0.056,0.335-0.307
		c-0.003-0.002,0.004,0.195,0.006,0.205c0.05,0.216,0.253,0.328,0.456,0.347l0.075,0.007c0.407,0.039,0.64-0.406,0.569-0.747
		C1064.768,458.071,1064.753,458.003,1064.739,457.935z"/>
	<path style="fill:#65B786;" d="M1060.585,461.551c-0.086,0.093-0.086,0.227,0,0.321c0.455,0.497,1.106,0.549,1.532,0
		c0.083-0.107,0.083-0.213,0-0.321C1061.688,460.999,1061.034,461.06,1060.585,461.551z"/>
	<path style="fill:#65B786;" d="M1060.382,468.279c-0.153-0.047-0.316,0.033-0.399,0.162c-0.052,0.074-0.094,0.154-0.129,0.238
		c-0.046,0.093,0.03,0.21,0.139,0.181c0.002-0.001,0.347,0.177,0.474,0.289c0.07,0.062,0.171,0.067,0.241,0l0.092-0.087
		c0.078-0.074,0.108-0.195,0.078-0.297C1060.788,468.45,1060.698,468.377,1060.382,468.279z"/>
	<path style="fill:#65B786;" d="M1043.298,469.167c-0.641-0.189-1.344-0.284-1.689,0.368c-0.019,0.036-0.01,0.083,0.027,0.104
		c0.449,0.251,0.939,0.224,1.416,0.422C1043.59,470.284,1043.884,469.34,1043.298,469.167z"/>
	<path style="fill:#65B786;" d="M1021.102,465.304c-0.572-0.343-1.49-0.677-1.925-0.011c-0.031,0.046-0.017,0.111,0.019,0.149
		c0.369,0.392,0.953,0.415,1.419,0.695c0.148,0.089,0.339,0.086,0.487,0c0.149-0.086,0.161-0.124,0.222-0.288
		C1021.397,465.648,1021.274,465.407,1021.102,465.304z"/>
	<path style="fill:#65B786;" d="M1064.348,469.64c-0.616-0.197-1.303-0.091-1.587,0.53c-0.046,0.101-0.011,0.216,0.102,0.25
		c0.391,0.119,0.793,0.189,1.184,0.314C1064.744,470.957,1065.042,469.862,1064.348,469.64z"/>
	<path style="fill:#65B786;" d="M1027.687,467.925c-0.546-0.365-1.021-0.676-1.664-0.806c-0.301-0.061-0.648,0.271-0.438,0.569
		c0.408,0.58,0.892,0.901,1.489,1.285c0.182,0.116,0.43,0.105,0.612,0c0.28-0.161,0.267-0.192,0.3-0.524
		C1028.009,468.233,1027.853,468.036,1027.687,467.925z"/>
</g>
</svg>
