<?xml version="1.0" encoding="utf-8"?>
<!-- Generator: Adobe Illustrator 27.5.0, SVG Export Plug-In . SVG Version: 6.00 Build 0)  -->
<svg version="1.1" id="_x2018_ëîé_x5F_1" xmlns="http://www.w3.org/2000/svg" xmlns:xlink="http://www.w3.org/1999/xlink"
	 x="0px" y="0px" viewBox="0 0 8000 2000" style="enable-background:new 0 0 8000 2000;" xml:space="preserve">
<rect style="fill:#FFFFFF;" width="8000" height="2000"/>
<g>
	<path style="opacity:0.85;fill:#FFD50D;" d="M5145.63,1393.203c-1.538-4.229-1.018-8.945,1.452-12.706
		c44.863-68.311,70.959-150.047,70.959-237.879c0-239.638-194.265-433.904-433.903-433.905c-76.811,0-148.977,20.037-211.596,55.125
		c7.025,32.163,10.511,65.659,10.004,100.062c-2.355,160.027-91.349,299.062-222.161,372.318
		c42.801,194.642,216.25,340.306,423.75,340.306c77.895,0,150.996-20.525,214.188-56.463c3.062-1.742,6.643-2.336,10.09-1.615
		l183.219,38.287c6.348,1.326,11.686-4.833,9.47-10.928L5145.63,1393.203z M4809.203,1353.355
		c-8.352,7.401-17.701,11.019-28.627,11.019c-11.344,0-20.949-3.573-29.416-10.904c-8.306-7.192-12.342-17.097-12.342-30.251
		c0-11.623,3.944-21.134,12.063-29.046c8.12-7.933,17.839-11.807,29.694-11.807c11.646,0,21.157,3.851,29.068,11.784
		c7.934,7.912,11.785,17.423,11.785,29.069C4821.429,1336.187,4817.438,1346.047,4809.203,1353.355z M4919.583,1078.797
		c-6.634,12.319-14.638,23.083-23.779,32.038c-9.372,9.186-26.4,24.799-50.619,46.466c-6.821,6.218-12.365,11.763-16.494,16.495
		c-4.246,4.872-7.447,9.396-9.558,13.503c-2.088,4.059-3.735,8.188-4.872,12.248c-1.09,3.921-2.76,10.834-4.988,20.693
		c-3.433,18.907-13.896,28.094-31.967,28.094c-9.488,0-17.214-2.992-23.639-9.14c-6.288-6.031-9.489-15.288-9.489-27.537
		c0-16.124,2.529-30.228,7.47-41.943c4.964-11.763,11.669-22.248,19.881-31.133c8.398-9.071,19.905-20.044,34.242-32.618
		c12.69-11.112,22.016-19.626,27.7-25.286c5.846-5.87,10.856-12.48,14.847-19.672c4.152-7.424,6.241-15.614,6.241-24.313
		c0-16.796-6.333-31.155-18.814-42.709c-12.412-11.483-28.582-17.283-48.022-17.283c-22.734,0-39.809,5.916-50.759,17.607
		c-10.601,11.321-19.672,28.117-26.957,50.017c-6.31,20.948-17.771,31.156-35.053,31.156c-10.23,0-18.605-3.502-25.635-10.717
		c-7.029-7.215-10.463-14.732-10.463-23.014c0-18.094,5.939-36.722,17.631-55.421c11.715-18.722,29.091-34.497,51.664-46.838
		c22.595-12.365,49.367-18.629,79.571-18.629c28.094,0,53.195,5.243,74.653,15.59c21.343,10.276,38.023,24.428,49.623,42.059
		c11.576,17.585,17.422,36.979,17.422,57.602C4929.418,1052.304,4926.125,1066.665,4919.583,1078.797z"/>
	<path style="opacity:0.85;fill:#FF2B2B;" d="M3714.785,857.383c0-32.104,3.519-63.382,10.134-93.499
		c-62.638-35.116-134.833-55.171-211.677-55.171c-239.638,0.001-433.903,194.267-433.903,433.905
		c0,87.832,26.097,169.569,70.959,237.879c2.47,3.761,2.99,8.477,1.452,12.706l-55.474,152.6c-2.216,6.095,3.122,12.254,9.47,10.928
		l183.219-38.287c3.448-0.72,7.029-0.126,10.091,1.615c63.193,35.938,136.294,56.463,214.188,56.463
		c207.501,0,380.952-145.666,423.751-340.311C3804.412,1161.963,3714.785,1020.146,3714.785,857.383z M3538.311,1353.355
		c-8.352,7.401-17.701,11.019-28.627,11.019c-11.344,0-20.948-3.573-29.416-10.904c-8.305-7.192-12.342-17.097-12.342-30.251
		c0-11.623,3.944-21.134,12.063-29.046c8.119-7.933,17.839-11.807,29.694-11.807c11.646,0,21.157,3.851,29.068,11.784
		c7.934,7.912,11.785,17.423,11.785,29.069C3550.537,1336.187,3546.546,1346.047,3538.311,1353.355z M3648.69,1078.797
		c-6.634,12.319-14.637,23.083-23.779,32.038c-9.372,9.186-26.4,24.799-50.619,46.466c-6.821,6.218-12.365,11.763-16.494,16.495
		c-4.246,4.872-7.447,9.396-9.558,13.503c-2.088,4.059-3.735,8.188-4.872,12.248c-1.09,3.921-2.76,10.834-4.988,20.693
		c-3.433,18.907-13.895,28.094-31.967,28.094c-9.488,0-17.214-2.992-23.639-9.14c-6.288-6.031-9.489-15.288-9.489-27.537
		c0-16.124,2.529-30.228,7.47-41.943c4.964-11.763,11.669-22.248,19.881-31.133c8.398-9.071,19.904-20.044,34.241-32.618
		c12.69-11.112,22.016-19.626,27.699-25.286c5.846-5.87,10.857-12.48,14.847-19.672c4.153-7.424,6.241-15.614,6.241-24.313
		c0-16.796-6.333-31.155-18.814-42.709c-12.412-11.483-28.582-17.283-48.022-17.283c-22.735,0-39.809,5.916-50.759,17.607
		c-10.602,11.321-19.673,28.117-26.957,50.017c-6.31,20.948-17.771,31.156-35.054,31.156c-10.23,0-18.605-3.502-25.635-10.717
		c-7.03-7.215-10.463-14.732-10.463-23.014c0-18.094,5.939-36.722,17.631-55.421c11.716-18.722,29.092-34.497,51.664-46.838
		c22.595-12.365,49.367-18.629,79.572-18.629c28.094,0,53.195,5.243,74.653,15.59c21.343,10.276,38.023,24.428,49.623,42.059
		c11.576,17.585,17.422,36.979,17.422,57.602C3658.526,1052.304,3655.232,1066.665,3648.69,1078.797z"/>
	<path style="opacity:0.75;fill:#528CFF;" d="M4572.543,763.838c-42.264-193.503-213.126-338.601-420.115-340.344
		c-209.187-1.762-384.489,144.53-427.509,340.39c132.54,74.305,222.231,216.136,222.23,378.737c0,32.136-3.525,63.446-10.154,93.591
		c26.619,14.907,54.961,27.105,84.667,36.186c3.17,0.969,5.938,2.942,7.843,5.655l111.65,159.039c3.666,5.221,11.403,5.222,15.069,0
		l111.658-159.046c1.902-2.709,4.667-4.679,7.832-5.646c29.706-9.081,58.052-21.274,84.672-36.182
		c-6.629-30.147-10.155-61.458-10.155-93.597C4350.23,979.986,4439.958,838.13,4572.543,763.838z M4173.757,1068.12
		c-8.352,7.401-17.701,11.02-28.627,11.02c-11.344,0-20.948-3.573-29.416-10.905c-8.306-7.192-12.342-17.097-12.342-30.25
		c0-11.624,3.944-21.134,12.063-29.046c8.12-7.934,17.839-11.807,29.694-11.807c11.646,0,21.157,3.851,29.068,11.784
		c7.934,7.912,11.785,17.423,11.785,29.069C4185.982,1050.953,4181.992,1060.812,4173.757,1068.12z M4284.136,793.562
		c-6.634,12.319-14.638,23.083-23.779,32.038c-9.372,9.186-26.4,24.799-50.619,46.466c-6.821,6.218-12.365,11.763-16.495,16.495
		c-4.246,4.871-7.447,9.395-9.558,13.502c-2.087,4.059-3.735,8.189-4.872,12.248c-1.09,3.921-2.76,10.834-4.988,20.693
		c-3.434,18.907-13.896,28.094-31.968,28.094c-9.488,0-17.214-2.992-23.639-9.14c-6.288-6.031-9.488-15.288-9.488-27.536
		c0-16.124,2.529-30.228,7.47-41.943c4.964-11.762,11.669-22.248,19.881-31.133c8.398-9.071,19.904-20.044,34.242-32.618
		c12.69-11.112,22.016-19.626,27.699-25.286c5.846-5.87,10.856-12.48,14.847-19.672c4.152-7.424,6.241-15.614,6.241-24.312
		c0-16.796-6.333-31.156-18.814-42.709c-12.412-11.483-28.582-17.283-48.021-17.283c-22.735,0-39.81,5.916-50.759,17.607
		c-10.602,11.321-19.673,28.117-26.957,50.017c-6.31,20.949-17.771,31.155-35.053,31.155c-10.23,0-18.605-3.502-25.635-10.717
		c-7.029-7.215-10.462-14.732-10.462-23.014c0-18.094,5.938-36.722,17.631-55.421c11.715-18.722,29.091-34.497,51.664-46.838
		c22.596-12.366,49.367-18.629,79.572-18.629c28.093,0,53.195,5.243,74.653,15.59c21.343,10.276,38.023,24.428,49.623,42.059
		c11.576,17.585,17.422,36.979,17.422,57.602C4293.973,767.069,4290.678,781.43,4284.136,793.562z"/>
	<path style="opacity:0.85;fill:#FFD50D;" d="M4582.547,863.899c0.507-34.402-2.979-67.898-10.004-100.062
		c-132.584,74.292-222.313,216.148-222.312,378.783c0,32.138,3.526,63.449,10.155,93.597
		C4491.198,1162.961,4580.191,1023.927,4582.547,863.899z"/>
	<path style="opacity:0.75;fill:#528CFF;" d="M4582.547,863.899c0.507-34.402-2.979-67.898-10.004-100.062
		c-132.584,74.292-222.313,216.148-222.312,378.783c0,32.138,3.526,63.449,10.155,93.597
		C4491.198,1162.961,4580.191,1023.927,4582.547,863.899z"/>
	<path style="opacity:0.85;fill:#FF2B2B;" d="M3724.919,763.883c-6.615,30.118-10.134,61.396-10.134,93.499
		c0,162.763,89.627,304.58,222.211,378.829c6.628-30.146,10.153-61.455,10.154-93.591
		C3947.15,980.019,3857.459,838.188,3724.919,763.883z"/>
	<path style="opacity:0.75;fill:#528CFF;" d="M3724.919,763.883c-6.615,30.118-10.134,61.396-10.134,93.499
		c0,162.763,89.627,304.58,222.211,378.829c6.628-30.146,10.153-61.455,10.154-93.591
		C3947.15,980.019,3857.459,838.188,3724.919,763.883z"/>
	<path style="fill:#FFFFFF;" d="M4226.928,651.215c-21.458-10.347-46.56-15.59-74.653-15.59c-30.205,0-56.976,6.264-79.572,18.629
		c-22.572,12.341-39.948,28.116-51.664,46.838c-11.693,18.698-17.631,37.327-17.631,55.421c0,8.282,3.433,15.799,10.462,23.014
		c7.03,7.215,15.405,10.717,25.635,10.717c17.283,0,28.743-10.207,35.053-31.155c7.285-21.899,16.355-38.695,26.957-50.017
		c10.949-11.691,28.024-17.607,50.759-17.607c19.44,0,35.609,5.8,48.021,17.283c12.48,11.553,18.814,25.913,18.814,42.709
		c0,8.699-2.088,16.888-6.241,24.312c-3.99,7.192-9,13.802-14.847,19.672c-5.684,5.661-15.009,14.175-27.699,25.286
		c-14.337,12.574-25.844,23.547-34.242,32.618c-8.212,8.885-14.917,19.371-19.881,31.133c-4.941,11.715-7.47,25.819-7.47,41.943
		c0,12.249,3.201,21.506,9.488,27.536c6.425,6.148,14.151,9.14,23.639,9.14c18.072,0,28.534-9.187,31.968-28.094
		c2.228-9.859,3.898-16.772,4.988-20.693c1.137-4.059,2.784-8.189,4.872-12.248c2.111-4.107,5.313-8.631,9.558-13.502
		c4.129-4.732,9.673-10.277,16.495-16.495c24.219-21.666,41.248-37.279,50.619-46.466c9.141-8.955,17.145-19.719,23.779-32.038
		c6.542-12.133,9.836-26.493,9.836-42.686c0-20.623-5.846-40.017-17.422-57.602C4264.951,675.643,4248.271,661.491,4226.928,651.215
		z"/>
	<path style="fill:#FFFFFF;" d="M4145.129,997.132c-11.855,0-21.575,3.874-29.694,11.807c-8.12,7.912-12.063,17.422-12.063,29.046
		c0,13.154,4.037,23.058,12.342,30.25c8.467,7.332,18.071,10.905,29.416,10.905c10.926,0,20.276-3.619,28.627-11.02
		c8.235-7.309,12.226-17.168,12.226-30.135c0-11.646-3.851-21.157-11.785-29.069
		C4166.287,1000.983,4156.775,997.132,4145.129,997.132z"/>
	<path style="fill:#FFFFFF;" d="M4862.374,936.45c-21.458-10.347-46.56-15.59-74.653-15.59c-30.205,0-56.976,6.264-79.571,18.629
		c-22.573,12.342-39.949,28.116-51.664,46.838c-11.692,18.698-17.631,37.327-17.631,55.421c0,8.282,3.434,15.799,10.463,23.014
		c7.029,7.215,15.404,10.717,25.635,10.717c17.283,0,28.744-10.207,35.053-31.156c7.285-21.899,16.356-38.695,26.957-50.017
		c10.95-11.692,28.024-17.607,50.759-17.607c19.44,0,35.61,5.8,48.022,17.283c12.48,11.553,18.814,25.913,18.814,42.709
		c0,8.699-2.088,16.889-6.241,24.313c-3.99,7.192-9,13.802-14.847,19.672c-5.684,5.661-15.01,14.175-27.7,25.286
		c-14.337,12.574-25.844,23.546-34.242,32.618c-8.211,8.885-14.917,19.37-19.881,31.133c-4.941,11.715-7.47,25.819-7.47,41.943
		c0,12.248,3.201,21.506,9.489,27.537c6.425,6.148,14.151,9.14,23.639,9.14c18.072,0,28.534-9.187,31.967-28.094
		c2.228-9.859,3.898-16.772,4.988-20.693c1.137-4.059,2.784-8.189,4.872-12.248c2.111-4.107,5.313-8.631,9.558-13.503
		c4.129-4.732,9.673-10.277,16.494-16.495c24.219-21.666,41.248-37.28,50.619-46.466c9.142-8.955,17.145-19.719,23.779-32.038
		c6.542-12.133,9.836-26.493,9.836-42.686c0-20.623-5.846-40.017-17.422-57.602C4900.397,960.878,4883.717,946.726,4862.374,936.45z
		"/>
	<path style="fill:#FFFFFF;" d="M4780.576,1282.367c-11.855,0-21.575,3.874-29.694,11.807c-8.12,7.912-12.063,17.422-12.063,29.046
		c0,13.154,4.037,23.059,12.342,30.251c8.467,7.331,18.071,10.904,29.416,10.904c10.926,0,20.275-3.619,28.627-11.019
		c8.235-7.309,12.226-17.168,12.226-30.136c0-11.646-3.851-21.157-11.785-29.069
		C4801.733,1286.218,4792.221,1282.367,4780.576,1282.367z"/>
	<path style="fill:#FFFFFF;" d="M3591.482,936.45c-21.458-10.347-46.56-15.59-74.653-15.59c-30.205,0-56.976,6.264-79.572,18.629
		c-22.573,12.342-39.948,28.116-51.664,46.838c-11.692,18.698-17.631,37.327-17.631,55.421c0,8.282,3.433,15.799,10.463,23.014
		c7.029,7.215,15.404,10.717,25.635,10.717c17.283,0,28.744-10.207,35.054-31.156c7.284-21.899,16.355-38.695,26.957-50.017
		c10.949-11.692,28.024-17.607,50.759-17.607c19.44,0,35.61,5.8,48.022,17.283c12.48,11.553,18.814,25.913,18.814,42.709
		c0,8.699-2.088,16.889-6.241,24.313c-3.99,7.192-9,13.802-14.847,19.672c-5.684,5.661-15.009,14.175-27.699,25.286
		c-14.337,12.574-25.844,23.546-34.241,32.618c-8.212,8.885-14.917,19.37-19.881,31.133c-4.941,11.715-7.47,25.819-7.47,41.943
		c0,12.248,3.201,21.506,9.489,27.537c6.425,6.148,14.151,9.14,23.639,9.14c18.072,0,28.534-9.187,31.967-28.094
		c2.228-9.859,3.898-16.772,4.988-20.693c1.137-4.059,2.784-8.189,4.872-12.248c2.111-4.107,5.312-8.631,9.558-13.503
		c4.129-4.732,9.674-10.277,16.494-16.495c24.219-21.666,41.248-37.28,50.619-46.466c9.141-8.955,17.145-19.719,23.779-32.038
		c6.542-12.133,9.836-26.493,9.836-42.686c0-20.623-5.846-40.017-17.422-57.602C3629.505,960.878,3612.825,946.726,3591.482,936.45z
		"/>
	<path style="fill:#FFFFFF;" d="M3509.683,1282.367c-11.855,0-21.575,3.874-29.694,11.807c-8.12,7.912-12.063,17.422-12.063,29.046
		c0,13.154,4.037,23.059,12.342,30.251c8.467,7.331,18.072,10.904,29.416,10.904c10.926,0,20.276-3.619,28.627-11.019
		c8.235-7.309,12.226-17.168,12.226-30.136c0-11.646-3.851-21.157-11.785-29.069
		C3530.841,1286.218,3521.329,1282.367,3509.683,1282.367z"/>
</g>
<g>
	<path style="opacity:0.85;fill:#FF2B2B;" d="M1197.882,979.846V728.247H677.763c-78.624,0-142.361,63.737-142.361,142.362v370.939
		c0,78.624,63.737,142.362,142.361,142.362h70.079c8.059,0,14.639,6.444,14.807,14.502l2.572,123.46
		c0.219,10.501,12.448,16.128,20.565,9.461l169.354-139.085c6.564-5.391,14.796-8.338,23.29-8.338h282.419
		c78.624,0,142.362-63.738,142.362-142.362v-120.099h-63.726C1261.28,1121.449,1197.882,1058.051,1197.882,979.846z
		 M994.373,1266.816c-8.352,7.401-17.701,11.02-28.627,11.02c-11.344,0-20.949-3.573-29.416-10.905
		c-8.305-7.192-12.342-17.097-12.342-30.251c0-11.623,3.944-21.134,12.063-29.046c8.12-7.933,17.839-11.807,29.695-11.807
		c11.646,0,21.157,3.851,29.068,11.784c7.933,7.912,11.785,17.423,11.785,29.069
		C1006.599,1249.648,1002.608,1259.507,994.373,1266.816z M1104.752,992.258c-6.634,12.319-14.638,23.083-23.779,32.038
		c-9.372,9.186-26.4,24.799-50.619,46.466c-6.821,6.218-12.365,11.763-16.494,16.495c-4.246,4.872-7.447,9.396-9.558,13.503
		c-2.088,4.059-3.735,8.189-4.872,12.248c-1.09,3.921-2.76,10.834-4.988,20.693c-3.433,18.907-13.896,28.094-31.968,28.094
		c-9.488,0-17.214-2.992-23.639-9.14c-6.288-6.031-9.489-15.288-9.489-27.536c0-16.124,2.529-30.229,7.47-41.943
		c4.964-11.763,11.669-22.248,19.881-31.133c8.398-9.071,19.904-20.044,34.241-32.618c12.69-11.112,22.016-19.626,27.7-25.286
		c5.846-5.87,10.856-12.48,14.847-19.673c4.152-7.424,6.241-15.613,6.241-24.312c0-16.796-6.333-31.156-18.814-42.709
		c-12.412-11.483-28.581-17.283-48.021-17.283c-22.735,0-39.809,5.916-50.759,17.607c-10.601,11.321-19.672,28.117-26.957,50.017
		c-6.31,20.948-17.771,31.155-35.054,31.155c-10.23,0-18.605-3.502-25.635-10.718c-7.029-7.215-10.463-14.732-10.463-23.014
		c0-18.094,5.939-36.722,17.631-55.421c11.716-18.722,29.092-34.497,51.664-46.838c22.595-12.366,49.367-18.63,79.572-18.63
		c28.093,0,53.195,5.243,74.653,15.59c21.343,10.276,38.023,24.428,49.623,42.059c11.576,17.585,17.422,36.979,17.422,57.602
		C1114.589,965.765,1111.295,980.125,1104.752,992.258z"/>
	<path style="fill:#FFFFFF;" d="M1047.544,849.911c-21.458-10.347-46.56-15.59-74.653-15.59c-30.205,0-56.977,6.264-79.572,18.63
		c-22.572,12.341-39.949,28.116-51.664,46.838c-11.692,18.698-17.631,37.326-17.631,55.421c0,8.282,3.434,15.798,10.463,23.014
		c7.029,7.215,15.404,10.718,25.635,10.718c17.283,0,28.744-10.207,35.054-31.155c7.285-21.899,16.356-38.696,26.957-50.017
		c10.95-11.691,28.024-17.607,50.759-17.607c19.44,0,35.61,5.8,48.021,17.283c12.481,11.553,18.814,25.913,18.814,42.709
		c0,8.699-2.088,16.888-6.241,24.312c-3.99,7.192-9,13.802-14.847,19.673c-5.684,5.661-15.009,14.175-27.7,25.286
		c-14.337,12.574-25.844,23.547-34.241,32.618c-8.212,8.885-14.917,19.37-19.881,31.133c-4.941,11.715-7.47,25.819-7.47,41.943
		c0,12.249,3.201,21.505,9.489,27.536c6.425,6.148,14.151,9.14,23.639,9.14c18.072,0,28.534-9.187,31.968-28.094
		c2.228-9.859,3.898-16.772,4.988-20.693c1.137-4.059,2.784-8.189,4.872-12.248c2.111-4.107,5.313-8.631,9.558-13.503
		c4.129-4.732,9.674-10.277,16.494-16.495c24.22-21.667,41.247-37.28,50.619-46.466c9.141-8.955,17.145-19.72,23.779-32.038
		c6.542-12.133,9.836-26.493,9.836-42.686c0-20.623-5.846-40.017-17.422-57.602C1085.567,874.339,1068.887,860.187,1047.544,849.911
		z"/>
	<path style="fill:#FFFFFF;" d="M965.746,1195.828c-11.855,0-21.575,3.874-29.695,11.807c-8.12,7.912-12.063,17.422-12.063,29.046
		c0,13.154,4.037,23.059,12.342,30.251c8.467,7.332,18.071,10.905,29.416,10.905c10.926,0,20.276-3.619,28.627-11.02
		c8.235-7.309,12.226-17.168,12.226-30.136c0-11.646-3.851-21.157-11.785-29.069
		C986.903,1199.678,977.391,1195.828,965.746,1195.828z"/>
	<path style="opacity:0.85;fill:#FFD50D;" d="M2585.812,728.247h-520.119v251.599c0,78.205-63.398,141.603-141.603,141.603h-63.726
		v120.099c0,78.624,63.738,142.362,142.362,142.362h282.419c8.494,0,16.726,2.947,23.29,8.338l169.354,139.085
		c8.117,6.666,20.346,1.04,20.565-9.461l2.572-123.46c0.167-8.057,6.748-14.502,14.807-14.502h70.079
		c78.624,0,142.361-63.738,142.361-142.362V870.609C2728.173,791.984,2664.436,728.247,2585.812,728.247z M2319.334,1266.816
		c-8.352,7.401-17.701,11.02-28.627,11.02c-11.344,0-20.949-3.573-29.416-10.905c-8.306-7.192-12.342-17.097-12.342-30.251
		c0-11.623,3.944-21.134,12.064-29.046c8.119-7.933,17.839-11.807,29.694-11.807c11.646,0,21.157,3.851,29.068,11.784
		c7.934,7.912,11.785,17.423,11.785,29.069C2331.56,1249.648,2327.57,1259.507,2319.334,1266.816z M2429.714,992.258
		c-6.635,12.319-14.638,23.083-23.779,32.038c-9.371,9.186-26.4,24.799-50.619,46.466c-6.821,6.218-12.365,11.763-16.495,16.495
		c-4.246,4.872-7.447,9.396-9.558,13.503c-2.087,4.059-3.735,8.189-4.872,12.248c-1.09,3.921-2.76,10.834-4.988,20.693
		c-3.433,18.907-13.896,28.094-31.967,28.094c-9.488,0-17.214-2.992-23.639-9.14c-6.288-6.031-9.489-15.288-9.489-27.536
		c0-16.124,2.529-30.229,7.47-41.943c4.964-11.763,11.669-22.248,19.881-31.133c8.398-9.071,19.904-20.044,34.241-32.618
		c12.69-11.112,22.016-19.626,27.7-25.286c5.846-5.87,10.856-12.48,14.846-19.673c4.153-7.424,6.24-15.613,6.24-24.312
		c0-16.796-6.333-31.156-18.813-42.709c-12.412-11.483-28.582-17.283-48.022-17.283c-22.734,0-39.809,5.916-50.759,17.607
		c-10.601,11.321-19.672,28.117-26.957,50.017c-6.31,20.948-17.771,31.155-35.053,31.155c-10.23,0-18.605-3.502-25.635-10.718
		s-10.463-14.732-10.463-23.014c0-18.094,5.939-36.722,17.631-55.421c11.716-18.722,29.092-34.497,51.664-46.838
		c22.595-12.366,49.367-18.63,79.572-18.63c28.094,0,53.195,5.243,74.653,15.59c21.343,10.276,38.023,24.428,49.623,42.059
		c11.575,17.585,17.422,36.979,17.422,57.602C2439.55,965.765,2436.256,980.125,2429.714,992.258z"/>
	<path style="fill:#FFFFFF;" d="M2372.506,849.911c-21.458-10.347-46.56-15.59-74.653-15.59c-30.205,0-56.976,6.264-79.572,18.63
		c-22.573,12.341-39.948,28.116-51.664,46.838c-11.692,18.698-17.631,37.326-17.631,55.421c0,8.282,3.433,15.798,10.463,23.014
		s15.405,10.718,25.635,10.718c17.283,0,28.744-10.207,35.053-31.155c7.285-21.899,16.356-38.696,26.957-50.017
		c10.95-11.691,28.024-17.607,50.759-17.607c19.44,0,35.61,5.8,48.022,17.283c12.481,11.553,18.813,25.913,18.813,42.709
		c0,8.699-2.087,16.888-6.24,24.312c-3.99,7.192-9,13.802-14.846,19.673c-5.684,5.661-15.01,14.175-27.7,25.286
		c-14.337,12.574-25.844,23.547-34.241,32.618c-8.212,8.885-14.917,19.37-19.881,31.133c-4.942,11.715-7.47,25.819-7.47,41.943
		c0,12.249,3.201,21.505,9.489,27.536c6.425,6.148,14.151,9.14,23.639,9.14c18.072,0,28.534-9.187,31.967-28.094
		c2.228-9.859,3.898-16.772,4.988-20.693c1.137-4.059,2.784-8.189,4.872-12.248c2.111-4.107,5.312-8.631,9.558-13.503
		c4.129-4.732,9.674-10.277,16.495-16.495c24.219-21.667,41.248-37.28,50.619-46.466c9.141-8.955,17.145-19.72,23.779-32.038
		c6.542-12.133,9.836-26.493,9.836-42.686c0-20.623-5.847-40.017-17.422-57.602C2410.529,874.339,2393.849,860.187,2372.506,849.911
		z"/>
	<path style="fill:#FFFFFF;" d="M2290.707,1195.828c-11.855,0-21.575,3.874-29.694,11.807c-8.12,7.912-12.064,17.422-12.064,29.046
		c0,13.154,4.037,23.059,12.342,30.251c8.467,7.332,18.072,10.905,29.416,10.905c10.926,0,20.276-3.619,28.627-11.02
		c8.235-7.309,12.226-17.168,12.226-30.136c0-11.646-3.851-21.157-11.785-29.069
		C2311.864,1199.678,2302.353,1195.828,2290.707,1195.828z"/>
	<path style="opacity:0.75;fill:#528CFF;" d="M2002.724,728.247h62.968V607.389c0-78.205-63.398-141.603-141.603-141.603h-584.604
		c-78.205,0-141.603,63.398-141.603,141.603v120.858h62.968c78.624,0,142.362,63.737,142.362,142.362v250.84h108.515
		c9.073,0,17.512,4.651,22.358,12.323l83.813,132.703c4.584,7.258,15.17,7.258,19.754,0l83.813-132.703
		c4.845-7.671,13.285-12.323,22.358-12.323h116.541v-250.84C1860.363,791.984,1924.1,728.247,2002.724,728.247z M1656.854,1004.356
		c-8.352,7.4-17.701,11.019-28.627,11.019c-11.344,0-20.948-3.573-29.416-10.905c-8.306-7.192-12.342-17.097-12.342-30.25
		c0-11.623,3.944-21.134,12.064-29.046c8.119-7.933,17.839-11.807,29.694-11.807c11.646,0,21.157,3.851,29.068,11.784
		c7.934,7.912,11.785,17.423,11.785,29.069C1669.079,987.187,1665.089,997.047,1656.854,1004.356z M1767.233,729.797
		c-6.635,12.319-14.638,23.083-23.779,32.038c-9.371,9.186-26.4,24.799-50.619,46.466c-6.821,6.218-12.365,11.763-16.494,16.495
		c-4.246,4.872-7.447,9.395-9.558,13.502c-2.087,4.059-3.734,8.189-4.871,12.248c-1.09,3.921-2.76,10.834-4.988,20.693
		c-3.433,18.907-13.895,28.094-31.968,28.094c-9.488,0-17.214-2.993-23.639-9.14c-6.287-6.031-9.488-15.288-9.488-27.537
		c0-16.124,2.529-30.228,7.47-41.943c4.964-11.763,11.669-22.248,19.881-31.133c8.398-9.071,19.904-20.044,34.242-32.618
		c12.69-11.112,22.016-19.626,27.699-25.286c5.846-5.87,10.857-12.48,14.847-19.672c4.153-7.424,6.241-15.613,6.241-24.312
		c0-16.796-6.333-31.155-18.814-42.709c-12.412-11.483-28.581-17.283-48.022-17.283c-22.734,0-39.809,5.916-50.759,17.607
		c-10.602,11.321-19.673,28.117-26.957,50.017c-6.31,20.949-17.77,31.156-35.053,31.156c-10.23,0-18.605-3.502-25.635-10.717
		c-7.029-7.215-10.462-14.732-10.462-23.014c0-18.094,5.939-36.722,17.631-55.421c11.715-18.722,29.091-34.497,51.664-46.838
		c22.595-12.366,49.367-18.629,79.572-18.629c28.093,0,53.195,5.243,74.653,15.59c21.343,10.276,38.023,24.428,49.623,42.059
		c11.575,17.585,17.422,36.979,17.422,57.602C1777.069,703.304,1773.775,717.664,1767.233,729.797z"/>
	<path style="opacity:0.85;fill:#FF2B2B;" d="M1260.85,728.247h-62.968v251.599c0,78.205,63.398,141.603,141.603,141.603h63.726
		v-250.84C1403.212,791.984,1339.474,728.247,1260.85,728.247z"/>
	<path style="opacity:0.75;fill:#528CFF;" d="M1260.85,728.247h-62.968v251.599c0,78.205,63.398,141.603,141.603,141.603h63.726
		v-250.84C1403.212,791.984,1339.474,728.247,1260.85,728.247z"/>
	<path style="opacity:0.85;fill:#FFD50D;" d="M2065.692,979.846V728.247h-62.968c-78.624,0-142.362,63.737-142.362,142.362v250.84
		h63.726C2002.294,1121.449,2065.692,1058.051,2065.692,979.846z"/>
	<path style="opacity:0.75;fill:#528CFF;" d="M2065.692,979.846V728.247h-62.968c-78.624,0-142.362,63.737-142.362,142.362v250.84
		h63.726C2002.294,1121.449,2065.692,1058.051,2065.692,979.846z"/>
	<path style="fill:#FFFFFF;" d="M1710.025,587.45c-21.459-10.347-46.56-15.59-74.653-15.59c-30.205,0-56.976,6.264-79.572,18.629
		c-22.572,12.341-39.948,28.116-51.664,46.838c-11.693,18.698-17.631,37.327-17.631,55.421c0,8.282,3.433,15.799,10.462,23.014
		c7.03,7.215,15.405,10.717,25.635,10.717c17.283,0,28.744-10.207,35.053-31.156c7.284-21.899,16.355-38.695,26.957-50.017
		c10.949-11.691,28.024-17.607,50.759-17.607c19.44,0,35.61,5.8,48.022,17.283c12.48,11.553,18.814,25.913,18.814,42.709
		c0,8.699-2.088,16.888-6.241,24.312c-3.99,7.192-9.001,13.802-14.847,19.672c-5.684,5.661-15.009,14.175-27.699,25.286
		c-14.337,12.574-25.844,23.546-34.242,32.618c-8.212,8.885-14.917,19.37-19.881,31.133c-4.941,11.715-7.47,25.819-7.47,41.943
		c0,12.248,3.201,21.506,9.488,27.537c6.425,6.148,14.151,9.14,23.639,9.14c18.072,0,28.534-9.187,31.968-28.094
		c2.228-9.859,3.898-16.773,4.988-20.693c1.137-4.059,2.784-8.189,4.871-12.248c2.112-4.107,5.313-8.631,9.558-13.502
		c4.129-4.732,9.673-10.277,16.494-16.495c24.219-21.666,41.248-37.28,50.619-46.466c9.141-8.955,17.145-19.719,23.779-32.038
		c6.542-12.133,9.836-26.493,9.836-42.686c0-20.623-5.846-40.017-17.422-57.602C1748.048,611.878,1731.368,597.726,1710.025,587.45z
		"/>
	<path style="fill:#FFFFFF;" d="M1628.226,933.367c-11.855,0-21.575,3.874-29.694,11.807c-8.12,7.912-12.064,17.422-12.064,29.046
		c0,13.154,4.037,23.059,12.342,30.25c8.467,7.331,18.072,10.905,29.416,10.905c10.926,0,20.276-3.619,28.627-11.019
		c8.235-7.309,12.226-17.168,12.226-30.136c0-11.646-3.851-21.157-11.785-29.069
		C1649.383,937.218,1639.872,933.367,1628.226,933.367z"/>
</g>
<g>
	<path style="opacity:0.85;fill:#FF2B2B;" d="M6150.584,979.846V728.247h-439.016c-78.624,0-142.361,63.737-142.361,142.362v370.939
		c0,78.624,63.737,142.362,142.361,142.362h2.493c8.06,0,14.639,6.444,14.807,14.502l2.572,123.46
		c0.219,10.501,12.448,16.128,20.565,9.461l169.355-139.085c6.564-5.391,14.795-8.338,23.29-8.338h214.833
		c78.625,0,142.361-63.738,142.361-142.362v-120.099h-9.657C6213.982,1121.449,6150.584,1058.051,6150.584,979.846z
		 M5960.593,1266.816c-8.352,7.401-17.701,11.02-28.627,11.02c-11.344,0-20.948-3.573-29.415-10.905
		c-8.306-7.192-12.343-17.097-12.343-30.251c0-11.623,3.944-21.134,12.064-29.046c8.119-7.933,17.839-11.807,29.694-11.807
		c11.646,0,21.157,3.851,29.068,11.784c7.933,7.912,11.785,17.423,11.785,29.069
		C5972.819,1249.648,5968.829,1259.507,5960.593,1266.816z M6070.972,992.258c-6.634,12.319-14.638,23.083-23.779,32.038
		c-9.371,9.186-26.399,24.799-50.618,46.466c-6.821,6.218-12.366,11.763-16.495,16.495c-4.246,4.872-7.447,9.396-9.559,13.503
		c-2.088,4.059-3.734,8.189-4.872,12.248c-1.09,3.921-2.76,10.834-4.988,20.693c-3.434,18.907-13.896,28.094-31.968,28.094
		c-9.488,0-17.213-2.992-23.639-9.14c-6.288-6.031-9.489-15.288-9.489-27.536c0-16.124,2.529-30.229,7.47-41.943
		c4.964-11.763,11.668-22.248,19.881-31.133c8.398-9.071,19.904-20.044,34.241-32.618c12.69-11.112,22.016-19.626,27.7-25.286
		c5.846-5.87,10.856-12.48,14.847-19.673c4.153-7.424,6.241-15.613,6.241-24.312c0-16.796-6.333-31.156-18.814-42.709
		c-12.412-11.483-28.581-17.283-48.021-17.283c-22.734,0-39.81,5.916-50.759,17.607c-10.601,11.321-19.672,28.117-26.957,50.017
		c-6.31,20.948-17.771,31.155-35.054,31.155c-10.23,0-18.605-3.502-25.635-10.718c-7.029-7.215-10.462-14.732-10.462-23.014
		c0-18.094,5.938-36.722,17.63-55.421c11.715-18.722,29.092-34.497,51.664-46.838c22.595-12.366,49.367-18.63,79.572-18.63
		c28.093,0,53.195,5.243,74.653,15.59c21.343,10.276,38.023,24.428,49.623,42.059c11.576,17.585,17.422,36.979,17.422,57.602
		C6080.809,965.765,6077.515,980.125,6070.972,992.258z"/>
	<path style="fill:#FFFFFF;" d="M6013.764,849.911c-21.458-10.347-46.56-15.59-74.653-15.59c-30.205,0-56.977,6.264-79.572,18.63
		c-22.572,12.341-39.949,28.116-51.664,46.838c-11.692,18.698-17.63,37.326-17.63,55.421c0,8.282,3.433,15.798,10.462,23.014
		c7.03,7.215,15.404,10.718,25.635,10.718c17.283,0,28.744-10.207,35.054-31.155c7.285-21.899,16.355-38.696,26.957-50.017
		c10.95-11.691,28.025-17.607,50.759-17.607c19.44,0,35.61,5.8,48.021,17.283c12.481,11.553,18.814,25.913,18.814,42.709
		c0,8.699-2.088,16.888-6.241,24.312c-3.99,7.192-9,13.802-14.847,19.673c-5.684,5.661-15.009,14.175-27.7,25.286
		c-14.337,12.574-25.843,23.547-34.241,32.618c-8.212,8.885-14.917,19.37-19.881,31.133c-4.941,11.715-7.47,25.819-7.47,41.943
		c0,12.249,3.201,21.505,9.489,27.536c6.425,6.148,14.151,9.14,23.639,9.14c18.072,0,28.534-9.187,31.968-28.094
		c2.228-9.859,3.898-16.772,4.988-20.693c1.137-4.059,2.784-8.189,4.872-12.248c2.111-4.107,5.313-8.631,9.559-13.503
		c4.129-4.732,9.673-10.277,16.495-16.495c24.219-21.667,41.248-37.28,50.618-46.466c9.142-8.955,17.145-19.72,23.779-32.038
		c6.542-12.133,9.836-26.493,9.836-42.686c0-20.623-5.846-40.017-17.422-57.602C6051.788,874.339,6035.107,860.187,6013.764,849.911
		z"/>
	<path style="fill:#FFFFFF;" d="M5931.965,1195.828c-11.854,0-21.575,3.874-29.694,11.807c-8.12,7.912-12.064,17.422-12.064,29.046
		c0,13.154,4.037,23.059,12.343,30.251c8.467,7.332,18.071,10.905,29.415,10.905c10.927,0,20.276-3.619,28.627-11.02
		c8.236-7.309,12.226-17.168,12.226-30.136c0-11.646-3.852-21.157-11.785-29.069
		C5953.123,1199.678,5943.612,1195.828,5931.965,1195.828z"/>
	<path style="opacity:0.85;fill:#FFD50D;" d="M7322.237,728.247h-439.016v251.599c0,78.205-63.398,141.603-141.603,141.603h-9.657
		v120.099c0,78.624,63.738,142.362,142.362,142.362h214.833c8.495,0,16.726,2.947,23.29,8.338l169.355,139.085
		c8.117,6.666,20.346,1.04,20.564-9.461l2.572-123.46c0.168-8.057,6.748-14.502,14.807-14.502h2.493
		c78.624,0,142.361-63.738,142.361-142.362V870.609C7464.599,791.984,7400.861,728.247,7322.237,728.247z M7123.347,1266.816
		c-8.352,7.401-17.701,11.02-28.627,11.02c-11.344,0-20.949-3.573-29.416-10.905c-8.306-7.192-12.342-17.097-12.342-30.251
		c0-11.623,3.944-21.134,12.064-29.046c8.12-7.933,17.839-11.807,29.694-11.807c11.646,0,21.157,3.851,29.067,11.784
		c7.934,7.912,11.786,17.423,11.786,29.069C7135.573,1249.648,7131.582,1259.507,7123.347,1266.816z M7233.726,992.258
		c-6.634,12.319-14.637,23.083-23.779,32.038c-9.372,9.186-26.4,24.799-50.619,46.466c-6.821,6.218-12.365,11.763-16.495,16.495
		c-4.245,4.872-7.446,9.396-9.558,13.503c-2.088,4.059-3.735,8.189-4.872,12.248c-1.091,3.921-2.76,10.834-4.988,20.693
		c-3.434,18.907-13.896,28.094-31.968,28.094c-9.489,0-17.214-2.992-23.64-9.14c-6.287-6.031-9.488-15.288-9.488-27.536
		c0-16.124,2.529-30.229,7.47-41.943c4.964-11.763,11.669-22.248,19.881-31.133c8.397-9.071,19.904-20.044,34.241-32.618
		c12.69-11.112,22.016-19.626,27.699-25.286c5.847-5.87,10.857-12.48,14.847-19.673c4.153-7.424,6.241-15.613,6.241-24.312
		c0-16.796-6.333-31.156-18.814-42.709c-12.412-11.483-28.582-17.283-48.021-17.283c-22.735,0-39.81,5.916-50.759,17.607
		c-10.601,11.321-19.672,28.117-26.957,50.017c-6.31,20.948-17.771,31.155-35.053,31.155c-10.23,0-18.605-3.502-25.635-10.718
		s-10.463-14.732-10.463-23.014c0-18.094,5.939-36.722,17.631-55.421c11.715-18.722,29.091-34.497,51.664-46.838
		c22.595-12.366,49.366-18.63,79.572-18.63c28.093,0,53.194,5.243,74.653,15.59c21.343,10.276,38.023,24.428,49.623,42.059
		c11.576,17.585,17.421,36.979,17.421,57.602C7243.563,965.765,7240.268,980.125,7233.726,992.258z"/>
	<path style="fill:#FFFFFF;" d="M7176.518,849.911c-21.458-10.347-46.56-15.59-74.653-15.59c-30.206,0-56.977,6.264-79.572,18.63
		c-22.573,12.341-39.949,28.116-51.664,46.838c-11.692,18.698-17.631,37.326-17.631,55.421c0,8.282,3.434,15.798,10.463,23.014
		s15.404,10.718,25.635,10.718c17.283,0,28.743-10.207,35.053-31.155c7.285-21.899,16.356-38.696,26.957-50.017
		c10.95-11.691,28.024-17.607,50.759-17.607c19.439,0,35.609,5.8,48.021,17.283c12.48,11.553,18.814,25.913,18.814,42.709
		c0,8.699-2.088,16.888-6.241,24.312c-3.99,7.192-9,13.802-14.847,19.673c-5.684,5.661-15.009,14.175-27.699,25.286
		c-14.337,12.574-25.844,23.547-34.241,32.618c-8.212,8.885-14.917,19.37-19.881,31.133c-4.941,11.715-7.47,25.819-7.47,41.943
		c0,12.249,3.201,21.505,9.488,27.536c6.425,6.148,14.151,9.14,23.64,9.14c18.072,0,28.534-9.187,31.968-28.094
		c2.228-9.859,3.897-16.772,4.988-20.693c1.136-4.059,2.784-8.189,4.872-12.248c2.111-4.107,5.313-8.631,9.558-13.503
		c4.13-4.732,9.674-10.277,16.495-16.495c24.219-21.667,41.248-37.28,50.619-46.466c9.142-8.955,17.145-19.72,23.779-32.038
		c6.542-12.133,9.836-26.493,9.836-42.686c0-20.623-5.846-40.017-17.421-57.602C7214.541,874.339,7197.861,860.187,7176.518,849.911
		z"/>
	<path style="fill:#FFFFFF;" d="M7094.72,1195.828c-11.855,0-21.575,3.874-29.694,11.807c-8.12,7.912-12.064,17.422-12.064,29.046
		c0,13.154,4.037,23.059,12.342,30.251c8.467,7.332,18.072,10.905,29.416,10.905c10.926,0,20.275-3.619,28.627-11.02
		c8.235-7.309,12.226-17.168,12.226-30.136c0-11.646-3.852-21.157-11.786-29.069
		C7115.877,1199.678,7106.365,1195.828,7094.72,1195.828z"/>
	<path style="opacity:0.75;fill:#528CFF;" d="M6874.323,728.247h8.898V607.389c0-78.205-63.398-141.603-141.603-141.603h-449.431
		c-78.206,0-141.604,63.398-141.604,141.603v120.858h8.899c78.625,0,142.361,63.737,142.361,142.362v250.84h94.998
		c9.073,0,17.513,4.651,22.357,12.323l83.813,132.703c4.584,7.258,15.17,7.258,19.754,0l83.814-132.703
		c4.845-7.671,13.284-12.323,22.357-12.323h103.023v-250.84C6731.961,791.984,6795.699,728.247,6874.323,728.247z M6541.97,1004.356
		c-8.352,7.4-17.701,11.019-28.627,11.019c-11.344,0-20.949-3.573-29.416-10.905c-8.306-7.192-12.342-17.097-12.342-30.25
		c0-11.623,3.944-21.134,12.064-29.046c8.119-7.933,17.839-11.807,29.694-11.807c11.646,0,21.157,3.851,29.067,11.784
		c7.935,7.912,11.786,17.423,11.786,29.069C6554.196,987.187,6550.205,997.047,6541.97,1004.356z M6652.349,729.797
		c-6.634,12.319-14.638,23.083-23.779,32.038c-9.371,9.186-26.399,24.799-50.619,46.466c-6.82,6.218-12.365,11.763-16.495,16.495
		c-4.246,4.872-7.446,9.395-9.558,13.502c-2.088,4.059-3.735,8.189-4.872,12.248c-1.09,3.921-2.76,10.834-4.989,20.693
		c-3.433,18.907-13.896,28.094-31.967,28.094c-9.488,0-17.214-2.993-23.639-9.14c-6.288-6.031-9.489-15.288-9.489-27.537
		c0-16.124,2.529-30.228,7.47-41.943c4.964-11.763,11.669-22.248,19.881-31.133c8.398-9.071,19.904-20.044,34.242-32.618
		c12.689-11.112,22.016-19.626,27.699-25.286c5.847-5.87,10.857-12.48,14.847-19.672c4.153-7.424,6.241-15.613,6.241-24.312
		c0-16.796-6.333-31.155-18.813-42.709c-12.413-11.483-28.582-17.283-48.022-17.283c-22.734,0-39.81,5.916-50.759,17.607
		c-10.602,11.321-19.672,28.117-26.957,50.017c-6.31,20.949-17.771,31.156-35.053,31.156c-10.23,0-18.605-3.502-25.635-10.717
		c-7.029-7.215-10.463-14.732-10.463-23.014c0-18.094,5.939-36.722,17.631-55.421c11.715-18.722,29.091-34.497,51.664-46.838
		c22.596-12.366,49.367-18.629,79.572-18.629c28.093,0,53.194,5.243,74.653,15.59c21.343,10.276,38.023,24.428,49.623,42.059
		c11.575,17.585,17.422,36.979,17.422,57.602C6662.186,703.304,6658.892,717.664,6652.349,729.797z"/>
	<path style="opacity:0.85;fill:#FF2B2B;" d="M6159.483,728.247h-8.899v251.599c0,78.205,63.398,141.603,141.604,141.603h9.657
		v-250.84C6301.845,791.984,6238.108,728.247,6159.483,728.247z"/>
	<path style="opacity:0.75;fill:#528CFF;" d="M6159.483,728.247h-8.899v251.599c0,78.205,63.398,141.603,141.604,141.603h9.657
		v-250.84C6301.845,791.984,6238.108,728.247,6159.483,728.247z"/>
	<path style="opacity:0.85;fill:#FFD50D;" d="M6883.222,979.846V728.247h-8.898c-78.624,0-142.362,63.737-142.362,142.362v250.84
		h9.657C6819.824,1121.449,6883.222,1058.051,6883.222,979.846z"/>
	<path style="opacity:0.75;fill:#528CFF;" d="M6883.222,979.846V728.247h-8.898c-78.624,0-142.362,63.737-142.362,142.362v250.84
		h9.657C6819.824,1121.449,6883.222,1058.051,6883.222,979.846z"/>
	<path style="fill:#FFFFFF;" d="M6595.141,587.45c-21.459-10.347-46.56-15.59-74.653-15.59c-30.205,0-56.976,6.264-79.572,18.629
		c-22.572,12.341-39.948,28.116-51.664,46.838c-11.692,18.698-17.631,37.327-17.631,55.421c0,8.282,3.434,15.799,10.463,23.014
		c7.029,7.215,15.404,10.717,25.635,10.717c17.283,0,28.743-10.207,35.053-31.156c7.285-21.899,16.355-38.695,26.957-50.017
		c10.949-11.691,28.024-17.607,50.759-17.607c19.44,0,35.609,5.8,48.022,17.283c12.48,11.553,18.813,25.913,18.813,42.709
		c0,8.699-2.088,16.888-6.241,24.312c-3.99,7.192-9,13.802-14.847,19.672c-5.683,5.661-15.01,14.175-27.699,25.286
		c-14.337,12.574-25.844,23.546-34.242,32.618c-8.211,8.885-14.917,19.37-19.881,31.133c-4.941,11.715-7.47,25.819-7.47,41.943
		c0,12.248,3.201,21.506,9.489,27.537c6.425,6.148,14.151,9.14,23.639,9.14c18.071,0,28.534-9.187,31.967-28.094
		c2.229-9.859,3.898-16.773,4.989-20.693c1.136-4.059,2.784-8.189,4.872-12.248c2.111-4.107,5.312-8.631,9.558-13.502
		c4.129-4.732,9.674-10.277,16.495-16.495c24.219-21.666,41.248-37.28,50.619-46.466c9.142-8.955,17.145-19.719,23.779-32.038
		c6.542-12.133,9.836-26.493,9.836-42.686c0-20.623-5.847-40.017-17.422-57.602C6633.164,611.878,6616.484,597.726,6595.141,587.45z
		"/>
	<path style="fill:#FFFFFF;" d="M6513.343,933.367c-11.855,0-21.575,3.874-29.694,11.807c-8.12,7.912-12.064,17.422-12.064,29.046
		c0,13.154,4.037,23.059,12.342,30.25c8.467,7.331,18.072,10.905,29.416,10.905c10.926,0,20.275-3.619,28.627-11.019
		c8.235-7.309,12.226-17.168,12.226-30.136c0-11.646-3.851-21.157-11.786-29.069C6534.5,937.218,6524.988,933.367,6513.343,933.367z
		"/>
</g>
</svg>
