<?xml version="1.0" encoding="utf-8"?>
<!-- Generator: Adobe Illustrator 27.5.0, SVG Export Plug-In . SVG Version: 6.00 Build 0)  -->
<svg version="1.1" id="Ñëîé_1" xmlns="http://www.w3.org/2000/svg" xmlns:xlink="http://www.w3.org/1999/xlink" x="0px" y="0px"
	 viewBox="0 0 1150 450" style="enable-background:new 0 0 1150 450;" xml:space="preserve">
<g>
	<path style="fill:#B8C5D4;" d="M596.33,125.438v43.027c0,6.585-5.324,11.908-11.909,11.908h-59.29
		c-6.572,0-11.909-5.324-11.909-11.908v-43.027c0-6.585,5.337-11.909,11.909-11.909h59.29
		C591.006,113.529,596.33,118.853,596.33,125.438z"/>
	<path style="fill:#1E2042;" d="M596.33,125.438v10.767h-83.107v-10.767c0-6.585,5.337-11.909,11.909-11.909h59.29
		C591.006,113.529,596.33,118.853,596.33,125.438z"/>
	<rect x="523.538" y="142.843" style="fill:#1E2042;" width="33.522" height="19.582"/>
	<rect x="564.029" y="142.843" style="fill:#1E2042;" width="22.237" height="5.642"/>
	<rect x="564.029" y="149.812" style="fill:#1E2042;" width="22.237" height="5.642"/>
	<rect x="564.029" y="156.782" style="fill:#1E2042;" width="22.237" height="5.642"/>
</g>
<path style="fill:#231F20;" d="M665.16,363.311c-0.209,2.378-0.417,4.757-0.626,7.135c-6.805,0-13.609,0-20.414,0
	c-0.08-0.668-0.16-1.335-0.241-2.003c4.757-2.253,9.513-4.506,14.27-6.759C660.487,362.227,662.824,362.769,665.16,363.311z"/>
<path style="fill:#231F20;" d="M740.885,344.66c-5.293-13.856-14.575-20.629-19.497-18.868c-4.128,1.477-6.247,9.337-5.66,18.239
	c-3.888-3.01-8.384-4.134-10.692-2.516c-2.909,2.039-3.416,9.184,1.887,15.723c-1.333-0.272-5.337-0.903-9.434,1.258
	c-6.729,3.549-7.499,11.355-7.547,11.95c27.466,0,54.933,0,82.399,0c6.053-9.548,3.529-19.764-1.896-22.641
	c-5.133-2.723-12.053,1.553-12.579,1.887c2.857-7.638,3.303-14.619,0.629-16.352C755.519,331.41,747.898,335.476,740.885,344.66z"/>
<path style="fill:#205D9E;" d="M706.103,306.397c-10.515-1.107-21.031-2.214-31.547-3.321c-4.058,0.092-8.117,0.185-12.176,0.277
	c-2.087,19.459-4.173,38.917-6.26,58.376c0.819,0.668,2.571,1.911,5.132,2.378c1.999,0.365,3.66,0.105,4.631-0.125
	c2.63-4.566,5.335-9.954,7.761-16.148c3.592-9.169,5.587-17.59,6.722-24.557c12.545,3.321,25.09,6.641,37.635,9.962
	c1.905-1.437,4.981-4.173,7.195-8.578c3.756-7.473,2.45-14.611,1.937-16.88C720.124,307.319,713.114,306.858,706.103,306.397z"/>
<path style="fill:#205D9E;" d="M717.172,308.611c-0.372,3.124-0.656,6.354-0.83,9.685c-1.058,20.209,2.208,38.056,6.641,52.578
	c19.187,0,38.374,0,57.561,0c0.46-3.044,0.921-6.088,1.381-9.132c-13.56-3.136-27.119-6.272-40.678-9.409
	c1.845-14.113,3.69-28.226,5.534-42.339c-2.223-1.149-5.003-2.292-8.302-3.044C729.064,304.804,721.084,307.138,717.172,308.611z"/>
<path style="fill:#8296AD;" d="M693.374,248.008c-7.748,9.316-15.497,18.633-23.245,27.949c-12.453-0.553-24.905-1.107-37.358-1.66
	c-0.297,0.236-2.063,1.686-2.214,4.151c-0.127,2.077,0.942,4.09,2.767,5.258c13.56,3.505,27.119,7.01,40.678,10.516
	c4.199-2.034,7.24-4.473,9.409-6.641C697.531,273.458,693.984,251.464,693.374,248.008z"/>
<g>
	<path style="fill:#8A243B;" d="M269.528,361.744c3.453-4.186,8.42-11.34,10.824-21.097c2.313-9.387,2.264-21.227-0.466-21.772
		c-1.651-0.33-4.574,3.41-5.505,7.031c-1.237,4.813,1.329,8.305,0.145,9.192c-1.078,0.807-4.742-0.935-5.774-4.06
		c-1.714-5.188,4.385-12.496,6.951-15.569c3.865-4.631,6.016-5.265,6.899-8.687c1.187-4.598-1.169-9.374-2.469-9.224
		c-1.135,0.132-0.773,3.943-3.842,8.096c-2.269,3.071-5.802,5.5-6.745,4.782c-0.933-0.71,0.463-4.661,2.468-7.519
		c1.792-2.554,2.879-2.536,4.09-4.297c3.56-5.178,0.135-14.02-1.178-13.857c-0.874,0.108-0.315,4.139-3.253,6.653
		c-1.668,1.427-4.144,2.091-4.834,1.274c-0.912-1.08,1.344-4.684,2.282-6.182c1.938-3.095,2.853-3.129,3.377-4.754
		c1.372-4.252-3.073-9.676-4.556-9.103c-1.096,0.424-0.08,3.933-2.189,5.514c-1.182,0.885-3.122,1-3.77,0.135
		c-1.135-1.516,2.749-4.628,3.387-9.479c0.659-5.013-2.169-11.723-6.746-11.96c-3.521-0.182-7.681,3.487-8.232,7.106
		c-0.556,3.657,2.976,4.618,4.845,10.744c1.752,5.743,0.709,11.652-0.227,11.866c-0.625,0.143-1.19-2.263-4.173-8.13
		c-2.508-4.932-3.315-5.604-4.142-5.563c-1.563,0.077-3.435,2.711-3.708,5.27c-0.398,3.731,2.855,4.937,5.961,11.094
		c2.449,4.855,3.075,9.358,2.542,9.634c-0.753,0.389-3.332-7.88-7.231-7.54c-1.975,0.173-3.992,2.527-4.421,4.814
		c-0.672,3.585,2.77,5.875,6.219,10.167c7.092,8.828,9.018,19.664,8.192,20.165c-0.536,0.325-3.154-3.135-4.855-6.019
		c-2.615-4.434-2.786-7.038-4.432-7.204c-1.667-0.167-4.11,2.242-4.823,4.92c-1.38,5.179,4.62,7.926,5.641,15.257
		c0.61,4.382-0.825,8.49-2.385,11.576C252.106,350.593,260.817,356.168,269.528,361.744z"/>
	<path style="fill:#231F20;" d="M268.156,370.874c0.537-4.082,0.806-10.677-1.858-17.887c-2.563-6.936-7.853-14.473-9.989-13.706
		c-1.291,0.464-1.659,4.045-0.697,6.737c1.278,3.577,4.609,4.758,4.181,5.808c-0.389,0.955-3.704,1.34-5.807-0.232
		c-3.492-2.611-2.506-9.767-2.091-12.777c0.625-4.535,1.835-5.818,0.929-8.363c-1.218-3.42-4.973-5.506-5.807-4.878
		c-0.729,0.548,1.214,2.832,0.929,6.737c-0.211,2.887-1.583,5.88-2.555,5.808c-0.962-0.072-1.748-3.164-1.626-5.808
		c0.109-2.363,0.871-2.795,0.929-4.414c0.171-4.759-6.13-9.004-6.969-8.363c-0.558,0.426,1.619,2.771,0.697,5.575
		c-0.523,1.592-1.946,3.028-2.788,2.788c-1.112-0.317-1.147-3.539-1.161-4.878c-0.03-2.767,0.59-3.163,0.232-4.414
		c-0.936-3.274-6.427-4.921-7.201-3.949c-0.572,0.718,1.691,2.543,0.929,4.414c-0.426,1.048-1.722,1.914-2.555,1.626
		c-1.46-0.504-0.147-4.077-1.858-7.434c-1.768-3.469-6.709-6.596-9.989-4.878c-2.523,1.322-3.78,5.363-2.555,7.898
		c1.238,2.562,4.114,1.732,8.131,4.878c3.765,2.949,5.665,7.148,5.111,7.666c-0.371,0.346-1.83-0.958-6.505-3.485
		c-3.929-2.123-4.787-2.222-5.343-1.858c-1.049,0.688-1.179,3.134-0.232,4.878c1.38,2.544,4.173,1.985,9.06,4.646
		c3.854,2.098,6.288,4.717,6.04,5.111c-0.349,0.556-5.81-3.669-8.363-1.858c-1.293,0.917-1.647,3.244-0.929,4.878
		c1.125,2.562,4.53,2.618,8.828,3.949c8.838,2.738,14.986,8.867,14.635,9.524c-0.227,0.426-3.579-0.712-6.04-1.858
		c-3.782-1.762-5.057-3.355-6.272-2.788c-1.231,0.574-1.855,3.11-1.161,5.111c1.342,3.869,6.723,3.172,10.686,7.434
		c2.369,2.548,3.197,5.756,3.484,8.363C251.12,370.874,259.638,370.874,268.156,370.874z"/>
</g>
<g>
	
		<ellipse transform="matrix(0.2051 -0.9787 0.9787 0.2051 213.5932 836.6104)" style="fill:#B8C5D4;" cx="621.855" cy="286.807" rx="26.834" ry="26.834"/>
	<polygon style="fill:#B8C5D4;" points="595.02,303.099 621.855,313.641 621.855,259.972 595.02,270.514 	"/>
	
		<ellipse transform="matrix(0.9869 -0.1615 0.1615 0.9869 -41.0747 68.3875)" style="fill:#B8C5D4;" cx="400.052" cy="286.807" rx="26.834" ry="26.834"/>
	<polygon style="fill:#B8C5D4;" points="426.886,303.099 400.052,313.641 400.052,259.972 426.886,270.514 	"/>
	<path style="fill:#B8C5D4;" d="M587.683,202.74h-60.437l3.396,8.645c4.422,4.784,7.146,11.161,7.146,18.19
		c0,14.82-12.014,26.834-26.834,26.834c-14.82,0-26.834-12.014-26.834-26.834c0-7.028,2.724-13.406,7.146-18.19l3.396-8.645h-60.437
		c-4.052,0-7.337,3.285-7.337,7.337v153.459c0,4.053,3.285,7.338,7.337,7.338h153.459c4.052,0,7.337-3.285,7.337-7.338V210.077
		C595.02,206.025,591.735,202.74,587.683,202.74z"/>
</g>
<path style="fill:#1E2042;" d="M926.053,202.74h-60.437l3.396,8.645c4.422,4.784,7.146,11.161,7.146,18.189
	c0,14.82-12.014,26.834-26.834,26.834s-26.834-12.014-26.834-26.834c0-7.028,2.724-13.405,7.146-18.189l3.396-8.645h-60.437
	c-4.052,0-7.338,3.285-7.338,7.337v60.437l8.645-3.396c4.784-4.422,11.161-7.146,18.19-7.146c14.82,0,26.834,12.014,26.834,26.834
	s-12.014,26.834-26.834,26.834c-7.028,0-13.405-2.724-18.189-7.146l-8.645-3.396v60.437c0,4.052,3.285,7.338,7.338,7.338h153.459
	c4.052,0,7.338-3.285,7.338-7.338V210.077C933.391,206.025,930.106,202.74,926.053,202.74z"/>
<g>
	
		<ellipse transform="matrix(0.3765 -0.9264 0.9264 0.3765 50.7874 427.2718)" style="fill:#3FAFFA;" cx="342.819" cy="175.905" rx="26.834" ry="26.834"/>
	<polygon style="fill:#3FAFFA;" points="326.527,202.74 315.985,175.905 369.654,175.905 359.112,202.74 	"/>
	<path style="fill:#3FAFFA;" d="M258.752,210.077v153.459c0,4.052,3.285,7.338,7.337,7.338h153.459c4.052,0,7.338-3.285,7.338-7.338
		v-60.437l-8.645,3.396c-4.784,4.422-11.161,7.146-18.19,7.146c-14.82,0-26.834-12.014-26.834-26.834s12.014-26.834,26.834-26.834
		c7.028,0,13.405,2.724,18.19,7.146l8.645,3.396v-60.437c0-4.052-3.285-7.337-7.338-7.337H266.09
		C262.037,202.74,258.752,206.025,258.752,210.077z"/>
</g>
<path style="fill:#FFFFFF;" d="M508.75,370.874c-0.528-4.015-0.793-10.503,1.828-17.595c2.521-6.822,7.725-14.237,9.826-13.482
	c1.27,0.456,1.632,3.979,0.685,6.627c-1.257,3.519-4.534,4.68-4.113,5.713c0.383,0.94,3.644,1.318,5.713-0.228
	c3.435-2.568,2.465-9.607,2.057-12.568c-0.615-4.46-1.805-5.723-0.914-8.226c1.198-3.364,4.892-5.416,5.713-4.799
	c0.717,0.539-1.195,2.786-0.914,6.627c0.207,2.84,1.557,5.784,2.514,5.713c0.947-0.071,1.72-3.112,1.6-5.713
	c-0.107-2.324-0.857-2.749-0.914-4.342c-0.168-4.682,6.03-8.857,6.855-8.226c0.549,0.419-1.593,2.726-0.685,5.484
	c0.515,1.566,1.914,2.978,2.742,2.742c1.094-0.312,1.128-3.481,1.143-4.799c0.03-2.722-0.58-3.111-0.229-4.342
	c0.921-3.221,6.323-4.84,7.084-3.885c0.563,0.706-1.663,2.501-0.914,4.342c0.419,1.031,1.693,1.882,2.514,1.6
	c1.437-0.495,0.145-4.01,1.828-7.312c1.739-3.413,6.6-6.489,9.826-4.799c2.482,1.3,3.718,5.276,2.514,7.769
	c-1.217,2.52-4.047,1.704-7.998,4.799c-3.703,2.901-5.573,7.031-5.027,7.541c0.365,0.341,1.8-0.943,6.398-3.428
	c3.865-2.089,4.709-2.186,5.256-1.828c1.032,0.676,1.159,3.082,0.228,4.799c-1.357,2.503-4.104,1.952-8.912,4.57
	c-3.791,2.064-6.185,4.64-5.941,5.027c0.344,0.547,5.715-3.609,8.226-1.828c1.272,0.902,1.62,3.191,0.914,4.799
	c-1.107,2.521-4.456,2.575-8.683,3.885c-8.694,2.693-14.741,8.722-14.396,9.369c0.224,0.419,3.521-0.701,5.941-1.828
	c3.721-1.733,4.974-3.3,6.17-2.742c1.211,0.565,1.825,3.059,1.143,5.027c-1.32,3.806-6.613,3.12-10.511,7.312
	c-2.33,2.506-3.145,5.662-3.428,8.226C525.507,370.874,517.129,370.874,508.75,370.874z"/>
<path style="fill:#FFFFFF;" d="M513.015,370.874c0.317-2.409,0.476-6.301-1.097-10.556c-1.512-4.093-4.634-8.541-5.895-8.088
	c-0.762,0.274-0.979,2.387-0.411,3.975c0.754,2.111,2.72,2.808,2.467,3.427c-0.23,0.564-2.186,0.791-3.427-0.137
	c-2.061-1.541-1.479-5.763-1.234-7.54c0.369-2.676,1.083-3.433,0.548-4.935c-0.719-2.018-2.935-3.249-3.427-2.879
	c-0.43,0.323,0.717,1.671,0.548,3.975c-0.124,1.704-0.934,3.47-1.508,3.427c-0.568-0.043-1.032-1.867-0.96-3.427
	c0.065-1.394,0.514-1.649,0.548-2.605c0.101-2.809-3.618-5.313-4.112-4.935c-0.329,0.251,0.955,1.635,0.411,3.29
	c-0.309,0.94-1.148,1.787-1.645,1.645c-0.656-0.187-0.677-2.088-0.685-2.879c-0.018-1.633,0.348-1.866,0.137-2.605
	c-0.552-1.932-3.793-2.904-4.25-2.33c-0.338,0.424,0.998,1.501,0.548,2.605c-0.252,0.618-1.016,1.129-1.508,0.96
	c-0.862-0.297-0.087-2.406-1.097-4.387c-1.043-2.047-3.959-3.893-5.895-2.879c-1.489,0.78-2.231,3.165-1.508,4.661
	c0.73,1.512,2.428,1.022,4.798,2.879c2.222,1.741,3.343,4.218,3.016,4.524c-0.219,0.204-1.08-0.566-3.838-2.056
	c-2.319-1.253-2.825-1.311-3.153-1.097c-0.619,0.406-0.695,1.849-0.137,2.879c0.814,1.501,2.462,1.171,5.346,2.742
	c2.274,1.238,3.71,2.783,3.564,3.016c-0.206,0.328-3.428-2.165-4.935-1.097c-0.763,0.541-0.972,1.914-0.548,2.879
	c0.664,1.512,2.673,1.545,5.209,2.33c5.216,1.616,8.843,5.233,8.636,5.62c-0.134,0.252-2.112-0.42-3.564-1.097
	c-2.232-1.04-2.984-1.98-3.701-1.645c-0.726,0.339-1.095,1.835-0.685,3.016c0.792,2.283,3.967,1.872,6.306,4.387
	c1.398,1.503,1.887,3.396,2.056,4.935C502.962,370.874,507.988,370.874,513.015,370.874z"/>
<g>
	<path style="fill:#8A243B;" d="M937.101,361.744c3.453-4.186,8.42-11.34,10.824-21.098c2.313-9.386,2.264-21.227-0.466-21.772
		c-1.65-0.33-4.574,3.41-5.505,7.031c-1.237,4.813,1.329,8.305,0.145,9.192c-1.078,0.807-4.742-0.935-5.774-4.06
		c-1.714-5.188,4.385-12.496,6.951-15.569c3.865-4.631,6.016-5.265,6.899-8.687c1.187-4.598-1.169-9.374-2.469-9.224
		c-1.135,0.132-0.773,3.943-3.842,8.096c-2.269,3.071-5.802,5.499-6.745,4.782c-0.933-0.71,0.463-4.661,2.468-7.519
		c1.792-2.554,2.879-2.537,4.09-4.297c3.56-5.178,0.135-14.02-1.178-13.857c-0.874,0.108-0.315,4.14-3.253,6.653
		c-1.668,1.427-4.144,2.091-4.834,1.274c-0.912-1.08,1.344-4.684,2.282-6.182c1.938-3.095,2.853-3.129,3.377-4.754
		c1.372-4.252-3.073-9.676-4.556-9.103c-1.096,0.424-0.08,3.933-2.19,5.514c-1.181,0.885-3.122,1-3.77,0.135
		c-1.135-1.516,2.749-4.628,3.387-9.479c0.659-5.013-2.169-11.723-6.746-11.961c-3.521-0.182-7.681,3.487-8.232,7.106
		c-0.557,3.657,2.976,4.618,4.845,10.744c1.752,5.743,0.709,11.652-0.227,11.866c-0.625,0.143-1.19-2.263-4.173-8.13
		c-2.508-4.932-3.315-5.604-4.142-5.563c-1.563,0.077-3.435,2.711-3.708,5.27c-0.398,3.731,2.855,4.937,5.96,11.094
		c2.449,4.855,3.075,9.358,2.542,9.634c-0.753,0.389-3.332-7.88-7.231-7.54c-1.974,0.172-3.992,2.527-4.42,4.814
		c-0.672,3.585,2.77,5.875,6.219,10.167c7.092,8.828,9.018,19.664,8.192,20.165c-0.536,0.325-3.154-3.135-4.855-6.019
		c-2.615-4.434-2.786-7.038-4.432-7.204c-1.667-0.167-4.11,2.242-4.823,4.92c-1.38,5.179,4.619,7.926,5.641,15.257
		c0.611,4.382-0.825,8.49-2.385,11.576C919.678,350.593,928.389,356.168,937.101,361.744z"/>
	<path style="fill:#A8969A;" d="M935.728,370.874c0.537-4.082,0.806-10.677-1.858-17.887c-2.563-6.936-7.853-14.473-9.989-13.706
		c-1.291,0.464-1.659,4.045-0.697,6.737c1.278,3.577,4.609,4.758,4.181,5.808c-0.389,0.955-3.704,1.34-5.807-0.232
		c-3.492-2.611-2.506-9.767-2.091-12.777c0.625-4.534,1.835-5.818,0.929-8.363c-1.218-3.42-4.973-5.505-5.808-4.878
		c-0.729,0.548,1.214,2.832,0.929,6.737c-0.211,2.887-1.583,5.88-2.555,5.807c-0.962-0.072-1.748-3.164-1.626-5.807
		c0.109-2.363,0.871-2.795,0.929-4.414c0.171-4.759-6.13-9.004-6.969-8.363c-0.558,0.426,1.619,2.771,0.697,5.575
		c-0.523,1.592-1.946,3.028-2.788,2.788c-1.112-0.317-1.147-3.539-1.161-4.878c-0.03-2.767,0.59-3.163,0.232-4.414
		c-0.936-3.274-6.427-4.921-7.201-3.949c-0.572,0.718,1.691,2.543,0.929,4.414c-0.426,1.048-1.721,1.914-2.555,1.626
		c-1.461-0.504-0.147-4.077-1.858-7.434c-1.768-3.469-6.709-6.596-9.989-4.878c-2.523,1.322-3.78,5.363-2.555,7.898
		c1.238,2.561,4.114,1.732,8.131,4.878c3.765,2.95,5.665,7.148,5.111,7.666c-0.37,0.346-1.83-0.958-6.504-3.484
		c-3.929-2.123-4.787-2.223-5.343-1.858c-1.049,0.688-1.179,3.134-0.232,4.878c1.38,2.544,4.173,1.985,9.06,4.646
		c3.854,2.098,6.288,4.717,6.04,5.111c-0.349,0.556-5.81-3.669-8.363-1.858c-1.293,0.917-1.647,3.244-0.929,4.878
		c1.125,2.563,4.53,2.618,8.828,3.949c8.838,2.738,14.986,8.867,14.635,9.524c-0.227,0.426-3.579-0.712-6.04-1.858
		c-3.782-1.762-5.057-3.355-6.272-2.788c-1.231,0.574-1.855,3.11-1.162,5.111c1.342,3.869,6.723,3.172,10.686,7.434
		c2.369,2.548,3.197,5.756,3.485,8.363C918.693,370.874,927.21,370.874,935.728,370.874z"/>
	<path style="fill:#231F20;" d="M918.088,370.874c-0.865-6.581-1.299-17.214,2.996-28.838c4.132-11.182,12.66-23.333,16.104-22.096
		c2.082,0.748,2.674,6.521,1.124,10.861c-2.061,5.767-7.43,7.671-6.741,9.363c0.627,1.54,5.972,2.161,9.363-0.374
		c5.63-4.21,4.04-15.746,3.371-20.598c-1.008-7.31-2.959-9.38-1.498-13.482c1.964-5.513,8.017-8.876,9.363-7.865
		c1.175,0.883-1.958,4.566-1.498,10.861c0.34,4.655,2.552,9.48,4.12,9.363c1.552-0.116,2.818-5.101,2.622-9.363
		c-0.176-3.809-1.404-4.506-1.498-7.116c-0.276-7.673,9.883-14.515,11.235-13.482c0.899,0.687-2.61,4.467-1.123,8.988
		c0.844,2.567,3.137,4.881,4.494,4.494c1.793-0.511,1.849-5.705,1.872-7.865c0.048-4.461-0.951-5.099-0.375-7.116
		c1.509-5.279,10.362-7.933,11.61-6.367c0.922,1.158-2.726,4.1-1.498,7.116c0.688,1.689,2.775,3.085,4.12,2.622
		c2.355-0.812,0.238-6.572,2.996-11.984c2.851-5.593,10.817-10.635,16.104-7.865c4.068,2.131,6.094,8.647,4.12,12.733
		c-1.995,4.13-6.633,2.792-13.108,7.865c-6.07,4.755-9.133,11.523-8.239,12.359c0.597,0.559,2.95-1.545,10.486-5.618
		c6.334-3.423,7.718-3.583,8.614-2.996c1.692,1.109,1.9,5.052,0.374,7.865c-2.225,4.101-6.727,3.2-14.606,7.49
		c-6.213,3.383-10.137,7.604-9.737,8.239c0.563,0.896,9.366-5.914,13.482-2.996c2.085,1.478,2.655,5.229,1.498,7.865
		c-1.814,4.131-7.303,4.221-14.232,6.367c-14.249,4.414-24.159,14.295-23.594,15.355c0.367,0.687,5.771-1.148,9.737-2.996
		c6.098-2.84,8.153-5.408,10.112-4.494c1.984,0.926,2.991,5.014,1.872,8.239c-2.163,6.238-10.839,5.114-17.228,11.984
		c-3.819,4.107-5.154,9.279-5.618,13.483C945.553,370.874,931.82,370.874,918.088,370.874z"/>
</g>
<g>
	<path style="fill:#205D9E;" d="M1047.38,354.399c0.907,2.848,1.815,5.696,2.723,8.543c0.456,0.494,1.44,1.693,1.831,3.545
		c0.389,1.842-0.019,3.329-0.235,3.966c-3.099,0-6.198,0-9.297,0c0.116-1.252,0.166-2.636,0.096-4.131
		c-0.188-4.05-1.178-7.409-2.159-9.858C1042.686,355.776,1045.033,355.087,1047.38,354.399z"/>
	<path style="fill:#E39972;" d="M1035.315,289.69l-4.37,15.733c2.803,5.11,5.579,10.862,8.107,17.255
		c6.094,15.416,8.796,29.637,9.957,41.073c-0.353,0.2-1.182,0.605-2.301,0.576c-0.988-0.026-1.718-0.377-2.069-0.576
		c-10.128-17.489-20.255-34.979-30.383-52.468c-0.501-9.514-1.001-19.027-1.502-28.54
		C1020.274,285.059,1027.794,287.375,1035.315,289.69z"/>
	<path style="fill:#E39972;" d="M989.281,283.863l-26.222,79.889h6.992c6.341-10.828,12.693-22.303,18.958-34.426
		c8.663-16.766,16.236-32.987,22.867-48.46C1004.345,281.865,996.813,282.864,989.281,283.863z"/>
	<path style="fill:#205D9E;" d="M1037.063,230.255l1.27,1.933c3.49,5.31,4.833,11.748,3.758,18.011l-6.777,39.492l-46.034-5.827
		c6.249-15.621,12.499-31.243,18.748-46.865C1017.707,234.751,1027.385,232.503,1037.063,230.255z"/>
	<path style="fill:#D68358;" d="M981.144,188.32c-0.843-1.539-1.716-3.093-2.622-4.662c-1.88-3.254-3.78-6.361-5.681-9.323
		c3.448-1.991,6.895-3.982,10.343-5.973c2.816,4.176,5.633,8.352,8.449,12.528C988.136,183.367,984.64,185.844,981.144,188.32z"/>
	<path style="fill:#3FAFFA;" d="M992.195,176.937c5.997,4.525,10.192,8.761,12.819,11.654c6.355,6.996,8.559,11.653,16.316,20.103
		c1.208,1.316,2.357,2.513,3.415,3.582c3.17,3.201,5.898,6.803,8.142,10.709l4.176,7.269c-5.182,2.596-11.241,5.212-18.139,7.483
		c-4.498,1.481-8.771,2.623-12.741,3.508c-0.136-1.45-0.238-2.979-0.294-4.581c-0.068-1.949-0.061-3.799,0-5.536
		c-4.759-5.73-9.518-11.46-14.276-17.19c-1.167,0.293-2.648,0.551-4.37,0.583c-2.551,0.047-4.658-0.421-6.118-0.874
		c-0.11-4.079-0.379-8.464-0.874-13.111c-0.523-4.912-1.233-9.488-2.039-13.694c1.137-1.372,2.575-2.885,4.37-4.37
		C986.087,179.572,989.586,177.908,992.195,176.937z"/>
	<path style="fill:#1E2042;" d="M1008.677,170.402c2.473,0.358,6.017,1.071,10.052,2.622c4.7,1.807,8.629,3.24,11.363,6.41
		c5.413,6.276,3.281,15.832,2.768,17.918c0.404,0.918,2.255,5.384,0.291,10.343c-2.724,6.882-10.229,8.237-10.634,8.303
		c-8.158-3.818-12.857-8.992-15.15-11.945c-3.427-4.413-9.985-12.858-7.429-22.288
		C1001.62,175.552,1006.455,171.876,1008.677,170.402z"/>
	<polygon style="fill:#BD6131;" points="964.974,175.646 974.414,176.822 979.687,172.174 	"/>
	<path style="fill:#E39972;" d="M980.561,171.859c-1.667,0.617-3.465,1.21-5.39,1.748c-3.69,1.032-7.129,1.662-10.197,2.039
		c-0.698-1.305-1.453-3.07-1.894-5.244c-0.204-1.004-0.308-1.936-0.353-2.772c-0.575-0.493-1.149-0.985-1.724-1.477
		c0.56-1.203,1.12-2.602,1.6-4.186c0.33-1.088,0.579-2.119,0.767-3.073c-0.236-0.999-0.477-2.604-0.146-4.516
		c0.542-3.132,2.283-5.166,3.059-5.973c1.891-0.38,3.377-0.202,4.516,0.146C976.982,150.441,980.899,159.812,980.561,171.859z"/>
	<path style="fill:#D68358;" d="M994.919,184.741c1.025,1.306,2.467,3.301,3.878,5.909c1.738,3.212,5.719,11.585,3.693,13.295
		c-2.272,1.919-11.213-5.299-12.187-6.094C991.841,193.482,993.38,189.111,994.919,184.741z"/>
	<path style="fill:#E39972;" d="M996.565,186.552c-0.73,3.324-1.68,6.837-2.914,10.489c-4.268,12.631-10.446,22.509-16.024,29.718
		c-2.742-0.024-5.56-0.117-8.449-0.291c-12.469-0.753-23.702-2.866-33.505-5.536c0.097-1.457,0.194-2.913,0.291-4.37
		c11.945-1.166,23.891-2.331,35.836-3.496c1.584-3.405,3.147-6.999,4.662-10.78c2.569-6.414,4.675-12.565,6.41-18.355
		c1.735-2.573,4.859-3.843,7.866-3.205C993.64,181.341,995.928,183.628,996.565,186.552z"/>
	<path style="fill:#1E2042;" d="M965.411,146.657c-1.529,1.461-1.916,2.75-2.039,3.496c-0.882,5.334,7.503,8.215,15.879,19.958
		c3.171,4.445,2.831,4.569,4.807,7.284c2.517,3.457,7.686,7.395,19.52,8.741c5.341-3.583,10.682-7.167,16.023-10.75
		c-0.711-2.063-2.666-6.821-7.509-10.71c-5.867-4.711-12.208-5.123-14.28-5.17c0.049-0.419,0.337-3.344-1.847-5.663
		c-2.528-2.684-6.092-2.135-6.372-2.086c-0.485-1.73-1.245-2.95-1.999-3.823C983.551,143.256,974.714,142.866,965.411,146.657z"/>
	<path style="fill:#E39972;" d="M940.276,217.777c-0.706-0.716-1.654-1.792-2.566-3.255c-0.097-0.155-0.459-0.74-0.876-1.565
		c-0.52-1.027-1.173-2.516-1.69-4.444c-0.584,0-1.168,0-1.753,0c0,4.593,0,7.684,0,12.277c0.812,0.16,1.88,0.292,3.13,0.241
		c1.263-0.051,2.328-0.273,3.129-0.501C939.858,219.613,940.067,218.695,940.276,217.777z"/>
	<path style="fill:#E39972;" d="M934.58,215.649c-0.814-0.23-1.627-0.459-2.441-0.689c-0.641-1.074-1.634-3.141-1.314-5.633
		c0.055-0.427,0.143-0.824,0.25-1.189c1.189,0.167,2.378,0.334,3.568,0.501C934.622,210.976,934.601,213.312,934.58,215.649z"/>
	<path style="fill:#205D9E;" d="M1049.305,361.793c-0.435-0.216-1.259-0.547-2.316-0.501c-1.958,0.086-3.185,1.401-3.442,1.69
		c-0.271-0.668-0.542-1.335-0.814-2.003c0.398-0.377,0.997-0.846,1.815-1.189c1.887-0.792,3.635-0.37,4.256-0.188
		C1048.971,360.333,1049.138,361.063,1049.305,361.793z"/>
	<path style="fill:#205D9E;" d="M974.512,356.817c0.275,0.418,0.697,1.168,0.845,2.159c0.337,2.257-1.038,3.801-2.629,7.417
		c-0.385,0.874-0.951,2.254-1.502,4.037c-0.695,0-1.39,0-2.085,0c0.069-1.283,0.138-2.566,0.207-3.849
		c-0.52,0.241-1.657,0.857-2.441,2.159c-0.382,0.635-0.565,1.24-0.657,1.69c-3.161,0-6.321,0-9.482,0
		c-0.475-1.338-0.849-3.126,0-4.506c0.557-0.906,1.424-1.283,1.878-1.502c1.565-0.755,3.679-2.254,6.008-5.539
		C967.94,358.194,971.226,357.506,974.512,356.817z"/>
	<path style="fill:#E39972;" d="M974.512,356.348c-0.829,0.359-2.075,0.956-3.474,1.878c-3.491,2.299-4.369,4.372-7.229,5.257
		c-0.777,0.241-1.999,0.487-3.661,0.282c1.223-1.408,2.554-3.123,3.849-5.163c1.33-2.095,2.336-4.078,3.098-5.821
		C969.567,353.97,972.039,355.159,974.512,356.348z"/>
	<path style="fill:#205D9E;" d="M965.687,363.483c-1.294-0.751-2.587-1.502-3.88-2.253c0.584-0.835,1.168-1.669,1.753-2.504
		c1.46,1.001,2.921,2.003,4.381,3.004C967.189,362.315,966.438,362.899,965.687,363.483z"/>
</g>
<g>
	<g>
		<path style="fill:#205D9E;" d="M419.229,157.009c-1.273-0.115-3.208-0.155-5.445,0.376c-2.254,0.535-3.809,1.41-4.319,1.69
			c-3.166,1.738-12.152,5.833-25.761,11.83c1.18,3.677,2.359,7.355,3.539,11.032c9.473-1.8,18.946-3.6,28.419-5.4
			c1.189-3.693,2.378-7.385,3.568-11.078C419.229,162.642,419.229,159.825,419.229,157.009z"/>
	</g>
	<path style="fill:#1E2042;" d="M417.719,360.922c-0.125,0.939-0.25,1.878-0.376,2.816c-3.442,1.502-6.885,3.004-10.327,4.506
		c0.063,0.876,0.125,1.752,0.188,2.629c6.635,0,13.269,0,19.904,0c-0.063-3.38-0.126-6.76-0.189-10.139
		C423.853,360.797,420.786,360.86,417.719,360.922z"/>
	<path style="fill:#1E2042;" d="M451.892,360.922c-0.063,1.064-0.125,2.128-0.188,3.192c-1.703,1.377-3.406,2.754-5.109,4.131
		c0.046,0.876,0.091,1.752,0.137,2.629c4.849,0,9.699,0,14.548,0c-0.046-3.38-0.092-6.76-0.138-10.139
		C458.06,360.797,454.976,360.86,451.892,360.922z"/>
	<path style="fill:#1E2042;" d="M410.809,244.57c1.544,38.596,3.088,77.192,4.632,115.789c0.402,0.437,2.842,2.999,6.76,3.004
		c3.258,0.004,5.441-1.763,6.008-2.253c2.504-35.425,5.007-70.85,7.511-106.275c-0.188-4.381-0.376-8.762-0.563-13.144
		L410.809,244.57z"/>
	<path style="fill:#1E2042;" d="M458.878,244.57c1.418,38.346,2.837,76.692,4.255,115.038c-0.36,0.589-1.873,2.914-4.882,3.755
		c-4.233,1.183-7.609-1.638-7.886-1.878c-6.259-36.176-12.518-72.352-18.777-108.528c0.25-2.796,0.501-5.591,0.751-8.387H458.878z"
		/>
	<path style="fill:#205D9E;" d="M459.127,159.45c-4.734-2.045-12.858-4.847-23.283-5.007c-9.647-0.148-17.33,2.025-22.031,3.755
		c-0.69,12.159-1.277,24.511-1.753,37.052c-0.635,16.761-1.044,33.206-1.252,49.32c5.681,1.574,13.272,3.079,22.281,3.255
		c10.657,0.208,19.517-1.518,25.787-3.255C458.961,216.197,459.044,187.823,459.127,159.45z"/>
	<path style="fill:#194A7D;" d="M459.415,178.767c0.136,3.284-0.057,8.98-2.629,15.397c-3.085,7.7-7.991,12.44-10.609,14.646
		c-3.004-3.63-6.008-7.26-9.013-10.89C444.582,191.535,451.999,185.151,459.415,178.767z"/>
	<path style="fill:#205D9E;" d="M457.694,158.989c0.994,0.125,2.524,0.468,3.88,1.565c2.999,2.426,3.003,6.805,3.004,9.013
		c0.009,11.284-18.115,34.367-19.152,35.675c-1.355-0.431-3.639-1.358-5.821-3.38c-3.107-2.88-4.152-6.262-4.506-7.698
		C442.631,182.439,450.163,170.714,457.694,158.989z"/>
	<path style="fill:#1E2042;" d="M433.598,193.413c1.419-1.544,2.837-3.088,4.256-4.632c1.381-0.03,3.916,0.139,6.259,1.753
		c3.773,2.598,5.466,7.854,4.256,13.269c-1.669,0.876-3.338,1.752-5.007,2.629c-1.294-0.379-3.055-1.094-4.757-2.504
		C434.106,200.203,433.666,194.651,433.598,193.413z"/>
	<path style="fill:#E39972;" d="M435.663,192.85c1.005,0.317,2.1,0.789,3.192,1.502c4.897,3.196,6.091,8.828,6.384,10.515
		c-5.016,0.704-10.969,1.161-17.65,0.939c-9.064-0.302-16.827-1.767-22.907-3.38c-2.253,0.501-4.506,1.001-6.76,1.502
		c-0.677-0.353-1.954-1.135-3.004-2.629c-1.185-1.686-1.435-3.362-1.502-4.131c2.316-1.314,4.632-2.629,6.947-3.943
		c-0.351-0.395-0.705-0.792-1.064-1.189c-0.711-0.788-1.421-1.56-2.128-2.316c0.224-0.674,0.539-0.949,0.814-1.064
		c0.834-0.351,1.569,0.651,3.88,1.815c1.567,0.789,1.982,0.707,2.817,1.44c0.793,0.695,1.244,1.492,1.502,2.065
		C416.01,193.601,425.837,193.225,435.663,192.85z"/>
	<path style="fill:#1E2042;" d="M429.091,152.48c-1.627,1.043-3.255,2.086-4.882,3.129c1.327,1.605,2.71,2.608,3.88,3.255
		c8.562,4.726,19.319-2.2,20.154-2.754c-1.358-0.84-2.984-1.682-4.882-2.378C437.52,151.589,432.212,151.97,429.091,152.48z"/>
	<path style="fill:#1E2042;" d="M424.328,132.662c-0.558-1.875-1.235-4.73-1.377-8.262c-0.174-4.332-0.357-8.856,2.504-11.641
		c2.034-1.981,4.704-2.154,6.885-2.378c7.384-0.762,16.171,2.957,17.525,8.637c0.296,1.24,0.129,2.12-0.814,5.883
		c-1.352,5.398-2.597,9.927-3.567,13.331C438.432,136.376,431.38,134.519,424.328,132.662z"/>
	<path style="fill:#D68358;" d="M446.234,128.469c-0.814,9.263-1.627,18.526-2.441,27.789c-0.271,0.319-3.65,4.166-8.825,3.567
		c-4.24-0.491-6.568-3.605-6.947-4.131c0.376-6.384,0.751-12.768,1.127-19.152C434.843,133.851,440.539,131.16,446.234,128.469z"/>
	<polygon style="fill:#BD6131;" points="431.964,149.123 444.643,146.58 445.389,138.326 	"/>
	<path style="fill:#E39972;" d="M446.985,122.272c-0.188,5.633-0.375,11.266-0.563,16.899c-1.349,1.554-3.139,3.341-5.445,5.07
		c-3.337,2.501-6.565,3.986-9.013,4.882c-1.254-0.75-2.788-1.837-4.319-3.38c-2.23-2.248-3.552-4.556-4.319-6.196
		c0.313-6.76,0.626-13.519,0.939-20.279c1.338-1.254,3.333-2.696,6.008-3.38C435.959,114.434,442.362,117.002,446.985,122.272z"/>
	<path style="fill:#E39972;" d="M445.295,129.783c1.428-0.786,3.078-0.82,4.131,0c1.572,1.223,1.172,3.847,0.188,5.351
		c-1.465,2.24-4.33,2.167-4.506,2.159C445.17,134.79,445.233,132.286,445.295,129.783z"/>
	<path style="fill:#1E2042;" d="M448.112,125.277c-0.982,0.444-2.615,1.028-4.6,0.939c-6.544-0.295-9.179-7.567-15.115-7.604
		c-1.255-0.008-3.171,0.304-5.539,2.065c0.045-1.205,0.303-3.125,1.502-4.976c2.829-4.366,8.483-4.623,10.045-4.694
		c1.31-0.06,8.702-0.396,12.299,5.257C449.097,120.026,448.353,124.151,448.112,125.277z"/>
	<path style="fill:#556B96;" d="M404.342,132.245c-0.146,0.915-0.293,1.829-0.439,2.743c2.707,1.646,5.414,3.292,8.12,4.938
		c2.414-1.332,2.77-2.354,2.743-2.963C414.645,134.221,406.417,132.622,404.342,132.245z"/>
	<g>
		<path style="fill:#1E2042;" d="M383.323,165.596c-3.408,2.253-4.988,6.368-3.95,10.096c0.877,3.152,3.504,5.592,6.804,6.365
			c5.374-0.373,9.051-5.391,8.12-10.096C393.392,167.392,388.35,164.171,383.323,165.596z"/>
	</g>
	<path style="fill:#F7A06F;" d="M392.54,176.131c4.755-9.51,9.51-19.021,14.266-28.531c0.26-1.583-0.343-3.145-1.536-3.951
		c-1.589-1.073-4.033-0.674-5.432,1.152c-6.017,7.736-12.034,15.473-18.051,23.209c-2.182,3.894-0.624,8.54,2.634,10.096
		C386.954,179.316,390.334,178.569,392.54,176.131z"/>
	<path style="fill:#F7A06F;" d="M405.27,149.904c0.703-0.802,1.677-2.016,2.634-3.621c2.082-3.495,4.172-8.995,2.634-10.205
		c-0.345-0.271-1.017-0.44-2.469,0.165c-0.483-0.471-2.599-2.437-4.938-1.975c-2.435,0.48-3.592,3.29-4.609,5.761
		c-0.778,1.889-1.302,3.163-0.988,4.609C398.112,147.294,401.257,149.312,405.27,149.904z"/>
	<path style="fill:#556B96;" d="M398.594,103.052l11.483,19.131l11.122,6.814c1.06,2.329,0.815,5.011-0.658,6.976
		c-1.764,2.352-4.488,2.608-4.923,2.641c-3.773-1.797-7.546-3.594-11.318-5.392l-20.85-0.322L398.594,103.052z"/>
	<path style="fill:#1B2230;" d="M398.594,103.052c3.53,1.762,3.003,11.565-0.439,18.436c-3.49,6.965-11.143,13.245-14.705,11.412
		c-3.419-1.759-2.768-10.838,0-17.119C386.85,108.067,394.924,101.22,398.594,103.052z"/>
	<path style="fill:#556B96;" d="M394.329,124.975c-1.619-1.097-3.237-2.195-4.856-3.292c-0.796-1.283-0.831-2.877-0.082-4.115
		c0.915-1.514,2.567-1.778,2.798-1.811c2.03,0.604,4.06,1.207,6.09,1.811c-0.179,1.004-0.554,2.454-1.399,4.033
		C396.044,123.162,395.059,124.27,394.329,124.975z"/>
	<path style="fill:#556B96;" d="M398.965,144.755c0.457-0.424,1.971,0.486,2.743,1.097c1.22,0.967,2.389,2.62,1.975,3.182
		c-0.355,0.484-1.853,0.126-2.853-0.549C399.241,147.413,398.453,145.231,398.965,144.755z"/>
</g>
<g>
	<g>
		<path style="fill:#1E2042;" d="M79.446,349.075c-1.815,1.752-3.63,3.505-5.445,5.258c-0.11,1.645-0.133,3.471,0,5.445
			c0.294,4.365,1.252,8.053,2.253,10.89c3.132,0,6.264,0,9.396,0c0.039-0.306,0.182-1.692-0.758-3.004
			c-0.951-1.327-2.33-1.631-2.629-1.69c0.563-4.381,1.127-8.762,1.69-13.144C82.451,351.578,80.949,350.327,79.446,349.075z"/>
		<path style="fill:#1E2042;" d="M230.034,359.796c0.25,1.001,0.501,2.003,0.751,3.004c2.174,1.336,4.999,2.794,8.449,3.943
			c2.183,0.727,4.214,1.197,6.008,1.502c-0.188,0.876-0.376,1.752-0.563,2.629c-7.323,0-14.646,0-21.968,0
			c-0.125-3.192-0.25-6.384-0.376-9.576C224.902,360.797,227.468,360.296,230.034,359.796z"/>
		<path style="fill:#B8C5D4;" d="M180.44,259.31c-4.93,8.225-10.468,16.815-16.688,25.637c-8.454,11.99-16.958,22.692-25.153,32.167
			c-4.738,3.547-9.494,7.095-14.269,10.641c-13.096,9.727-26.157,19.32-39.18,28.781c-0.295,0.042-3.173,0.401-5.327-1.809
			c-2.105-2.16-1.737-4.944-1.69-5.258c2.148-2.806,4.4-5.625,6.76-8.449c12.684-15.182,26.046-27.578,38.954-37.691
			c2.884-7.502,6.169-15.348,9.916-23.46c2.864-6.199,5.782-12.085,8.707-17.656c-0.052-1.482,0.06-3.743,0.967-6.288
			c1.431-4.011,4.024-6.436,5.321-7.497C159.318,252.054,169.879,255.682,180.44,259.31z"/>
		<path style="fill:#B8C5D4;" d="M184.309,258.826c7.787,8.311,15.875,17.719,23.944,28.297c5.234,6.862,9.976,13.582,14.269,20.074
			c3.067,17.658,6.135,35.316,9.202,52.974c-1.236,0.646-2.809,1.338-4.694,1.878c-2.248,0.643-4.254,0.874-5.821,0.939
			c-2.627-4.986-5.232-10.431-7.698-16.336c-4.814-11.522-8.085-22.349-10.337-31.957c-6.721-6.127-13.496-12.415-20.316-18.865
			c-6.688-6.326-13.217-12.617-19.59-18.865c0.447-2.133,1.78-7.03,6.046-11.367C175.169,259.647,182.414,258.95,184.309,258.826z"
			/>
		<path style="fill:#D68358;" d="M210.561,172.063c-1.729,1.818-3.564,3.972-5.37,6.489c-2.831,3.945-4.836,7.732-6.265,10.964
			c-1.387-0.348-3.002-0.899-4.699-1.79c-4.6-2.416-7.225-5.98-8.503-8.055c4.102-4.624,8.205-9.249,12.307-13.873
			C202.207,167.886,206.384,169.975,210.561,172.063z"/>
		<path style="fill:#205D9E;" d="M188.601,174.972c-4.068,2.623-9.927,6.988-15.417,13.717c-5.798,7.107-7.937,13.474-14.995,30.474
			c-3.221,7.758-7.259,17.903-11.609,29.99c3.211,2.688,7.539,5.723,13.06,8.223c12.165,5.509,23.42,5.387,29.506,4.837
			c5.428-19.291,9.782-40.247,12.348-62.768c0.352-3.093,0.665-6.16,0.939-9.201c1.502-0.25,3.004-0.501,4.506-0.751
			c-1.633-2.784-3.831-6.034-6.76-9.388c-3.155-3.614-6.313-6.383-9.013-8.449C190.311,172.76,189.456,173.866,188.601,174.972z"/>
		<polygon style="fill:#BD6131;" points="217.497,171.615 206.605,176.663 201.163,173.629 		"/>
		<path style="fill:#E39972;" d="M217.497,171.615c-1.939,0.693-4.349,1.375-7.16,1.79c-3.605,0.533-6.75,0.461-9.174,0.224
			c-2.834-4.55-5.669-9.1-8.503-13.649c-0.145-0.984-0.796-6.089,2.685-10.74c2.994-4.001,7.128-5.104,8.279-5.37
			c2.088,1.79,4.177,3.58,6.265,5.37c-0.009,0.816,0.093,2.268,0.895,3.804c1.495,2.863,4.273,3.822,4.923,4.028
			c-0.149,1.268-0.298,2.536-0.447,3.804C216.006,164.455,216.752,168.035,217.497,171.615z"/>
		<path style="fill:#1E2042;" d="M203.401,143.645c-1.82-0.589-4.435-1.238-7.608-1.343c-9.946-0.329-19.67,4.874-19.243,7.16
			c0.1,0.537,0.805,1.154,3.356,1.566c-1.124,0.299-2.763,0.866-4.475,2.014c-1.944,1.303-4.225,3.518-3.804,4.251
			c0.155,0.27,0.844,0.629,4.699-0.671c-0.627,0.769-1.706,2.311-2.014,4.475c-0.399,2.8,0.566,6.129,1.79,6.265
			c0.402,0.045,1.051-0.229,2.014-2.014c0.767,1.975,1.821,3.233,2.685,4.028c4.06,3.73,11.173,3.863,18.064,0.587
			c-3.646-5.447-3.58-8.813-2.849-10.88c1.357-3.834,5.579-4.813,7.105-9.774C203.821,147.034,203.634,144.958,203.401,143.645z"/>
		<path style="fill:#E39972;" d="M197.488,161.828c-1.705-0.333-3.415,0.027-4.256,1.127c-1.413,1.847-0.025,5.324,2.378,6.384
			c1.867,0.824,3.762-0.068,4.131-0.25C198.99,166.668,198.239,164.248,197.488,161.828z"/>
		<path style="fill:#194A7D;" d="M199.429,213.339c-0.689,4.569-1.377,9.138-2.066,13.707c-2.192-2.564-4.527-5.797-6.572-9.764
			c-5.751-11.154-5.994-21.865-5.633-27.789C189.915,197.441,194.672,205.39,199.429,213.339z"/>
		<path style="fill:#205D9E;" d="M191.807,181.191c-0.445-0.226-3.999-1.954-7.497-0.242c-3.337,1.634-5.228,5.716-4.353,9.916
			c1.293,3.849,3.075,8.124,5.563,12.576c6.925,12.393,16.052,20.311,22.492,24.911c1.469-0.68,3.547-1.861,5.563-3.87
			c2.981-2.971,4.276-6.208,4.837-7.981C209.543,204.732,200.675,192.961,191.807,181.191z"/>
		<path style="fill:#E39972;" d="M213.09,211.423c5.148-0.57,10.308-1.135,15.479-1.693c8.41-0.908,16.795-1.795,25.153-2.66
			c0.161,1.854,0.322,3.708,0.484,5.563c-4.308,3.143-10.193,6.767-17.655,9.674c-11.272,4.391-21.364,5.285-28.055,5.321
			c-0.011-1.873,0.148-4.187,0.725-6.772C210.144,216.722,211.773,213.538,213.09,211.423z"/>
		<path style="fill:#E39972;" d="M265.96,202.386c-2.295-0.417-4.59-0.835-6.885-1.252c-2.796,2.295-5.591,4.59-8.387,6.885
			c-0.348,0.485-1.269,1.909-1.001,3.63c0.427,2.746,3.517,3.926,4.381,4.256c2.456,0.938,4.698,0.409,5.633,0.125
			c0.334-1.043,0.668-2.086,1.001-3.129c1.08,0.694,2.388,0.602,3.129-0.125c0.658-0.646,0.635-1.561,0.626-1.753
			c-1.085-0.209-2.17-0.417-3.255-0.626c1.127-0.376,2.253-0.751,3.38-1.127c0.433-0.453,1.108-1.284,1.502-2.504
			C266.744,204.728,266.178,202.972,265.96,202.386z"/>
	</g>
	<g>
		<polygon style="fill:#829CBD;" points="168.066,280.13 167.434,278.769 172.327,276.497 174.33,263.748 175.815,263.982 
			173.687,277.521 		"/>
	</g>
	<g>
		<path style="fill:#829CBD;" d="M79.325,352.033l-1.153-0.962c10.128-12.139,21.406-23.353,33.521-33.333
			c4.789-3.945,9.798-7.767,14.889-11.364c2.767-6.598,5.711-13.236,8.755-19.732c5.117-10.92,10.684-21.801,16.547-32.343
			l1.313,0.73c-5.846,10.511-11.398,21.361-16.5,32.249c-3.065,6.543-6.03,13.229-8.812,19.875l-0.084,0.199l-0.177,0.123
			c-5.122,3.612-10.161,7.453-14.976,11.42C100.605,328.817,89.393,339.966,79.325,352.033z"/>
	</g>
	<g>
		<path style="fill:#829CBD;" d="M224.201,361.35c-1.039-1.594-2.057-3.248-3.025-4.916c-7.393-12.74-12.276-27.016-14.513-42.436
			c-4.286-3.865-8.581-7.851-12.77-11.85c-8.021-7.657-15.927-15.626-23.499-23.686l1.094-1.03
			c7.554,8.042,15.441,15.992,23.442,23.631c4.243,4.052,8.597,8.089,12.94,12.002l0.202,0.182l0.039,0.27
			c2.192,15.331,7.024,29.516,14.364,42.164c0.954,1.646,1.958,3.277,2.984,4.848L224.201,361.35z"/>
	</g>
	<g>
		<path style="fill:#829CBD;" d="M180.521,264.915c-1.791,0-3.576-0.101-5.346-0.304c-12.911-1.477-22.465-7.964-28.207-13.145
			l1.006-1.115c5.578,5.035,14.855,11.336,27.371,12.767c3.899,0.446,7.877,0.384,11.825-0.185l0.214,1.487
			C185.1,264.751,182.805,264.915,180.521,264.915z"/>
	</g>
</g>
<path style="fill:#D68358;" d="M673.417,247.516c2.187,0.814,4.599,1.865,7.136,3.232c3.976,2.142,7.197,4.489,9.711,6.606
	c1.017-0.857,2.142-1.976,3.197-3.414c2.858-3.896,3.597-7.947,3.819-10.202c-5.316-2.191-10.631-4.381-15.947-6.572
	C678.694,240.616,676.055,244.066,673.417,247.516z"/>
<polygon style="fill:#BD6131;" points="667.437,249.973 678.6,249.746 681.911,244.99 "/>
<path style="fill:#E39972;" d="M667.437,249.973c1.904-0.212,4.196-0.626,6.715-1.426c3.231-1.026,5.829-2.37,7.759-3.557
	c0.512-4.959,1.024-9.918,1.536-14.877c-0.28-0.882-1.82-5.414-6.627-7.881c-4.135-2.122-8.04-1.357-9.111-1.109
	c-1.015,2.348-2.03,4.697-3.045,7.045c0.34,0.678,0.848,1.933,0.804,3.544c-0.081,3.003-2.012,4.938-2.471,5.375
	c0.642,0.999,1.284,1.998,1.926,2.996C665.762,243.38,666.599,246.676,667.437,249.973z"/>
<path style="fill:#B8C5D4;" d="M685.725,257.5c2.923,4.322,5.866,8.996,8.756,14.03c5.368,9.35,9.619,18.317,13.006,26.565
	c-0.682,2.643-1.364,5.287-2.046,7.93c3.277,1.457,7.008,2.844,11.178,3.969c12.343,3.331,23.298,2.959,30.993,1.937
	c0.29-6.552-0.21-14.564-2.767-23.245c-8.949-30.374-36.018-44.897-43.12-48.437c-1.867,0.02-4.68,0.348-7.521,1.947
	C686.325,246.634,685.76,256.626,685.725,257.5z"/>
<path style="fill:#1E2042;" d="M666.755,223.165c0.933,0.076,4.658,0.491,7.636,3.63c2.476,2.611,2.996,5.588,3.129,6.635
	c1.346,0.052,2.691,0.104,4.037,0.156c0.939,1.627,1.878,3.255,2.816,4.882c1.312,0.511,2.623,1.021,3.935,1.532
	c1.117-1.086,2.606-2.792,3.763-5.193c0.422-0.877,4.424-9.484,0.094-15.678c-3.598-5.147-11.723-7.079-19.152-3.661
	c-0.417-0.355-0.835-0.709-1.252-1.064c-2.34,0.162-4.38,1.565-5.258,3.63C665.44,220.538,666.586,222.84,666.755,223.165z"/>
<path style="fill:#E39972;" d="M680.166,233.628c1.289-0.974,2.865-1.371,4.017-0.795c1.935,0.967,2.193,4.439,0.618,6.306
	c-1.224,1.45-3.172,1.478-3.555,1.477C680.886,238.286,680.526,235.957,680.166,233.628z"/>
<path style="fill:#BFE1F7;" d="M825.315,108.77c-1.59,0-3.15,0.15-4.65,0.46v-0.06c0-20.16-16.34-36.5-36.5-36.5
	c-20.03,0-36.29,16.13-36.5,36.11c-8.62,0.08-15.94,5.59-18.7,13.28c-5.33-1.09-11.16-1.69-17.28-1.69
	c-18.12,0-33.77,5.26-41.14,12.87h57.71h24.56h3.92h10.76h33.82h10.28h37.72c0.01-0.16,0.01-0.31,0.01-0.47
	C849.325,119.52,838.575,108.77,825.315,108.77z"/>
<path style="fill:#BFE1F7;" d="M299.58,92.36c-3.698-17.548-16.87-26.607-25.695-24.359c-7.665,1.952-11.099,12.193-11.598,13.745
	c-0.759-0.406-4.705-2.423-8.893-0.861c-4.582,1.71-7.592,7.013-6.885,12.909c-4.318-1.273-7.977,1.202-8.319,3.729
	c-0.25,1.849,1.235,4.029,3.617,5.228h14.091h2.249h6.173h19.404h5.898h21.641c4.587-5.804,3.108-12.79-0.209-14.695
	C308.237,86.439,303.005,87.865,299.58,92.36z"/>
<path style="fill:#BFE1F7;" d="M715.493,97.189c-0.881,0-1.745,0.083-2.575,0.255V97.41c0-11.165-9.05-20.215-20.215-20.215
	c-11.093,0-20.099,8.933-20.215,19.999c-4.774,0.044-8.828,3.096-10.357,7.355c-2.952-0.604-6.181-0.936-9.57-0.936
	c-10.035,0-18.703,2.913-22.785,7.128h31.962h13.602h2.171h5.959h18.731h5.693h20.89c0.006-0.089,0.006-0.172,0.006-0.26
	C728.79,103.143,722.836,97.189,715.493,97.189z"/>
<path style="fill:#FFFFFF;" d="M332.991,355.748c-3.017-7.898-8.308-11.759-11.113-10.755c-2.353,0.842-3.561,5.322-3.227,10.397
	c-2.216-1.716-4.779-2.356-6.095-1.434c-1.658,1.162-1.947,5.235,1.076,8.963c-0.76-0.155-3.042-0.515-5.378,0.717
	c-3.836,2.023-4.274,6.473-4.302,6.811c15.656,0,31.313,0,46.969,0c3.45-5.443,2.011-11.266-1.081-12.906
	c-2.926-1.552-6.87,0.885-7.17,1.076c1.629-4.354,1.883-8.333,0.358-9.321C341.332,348.195,336.988,350.513,332.991,355.748z"/>
<path style="fill:#8296AD;" d="M699.725,283.25c1.856-1.431,3.968-3.455,5.75-6.25c5.995-9.402,3.437-19.966,2.75-22.5
	C705.391,264.083,702.558,273.667,699.725,283.25z"/>
<path style="fill:#B8C5D4;" d="M694.204,246.348c4.446-2.879,9.855-2.961,13.559-0.277c3.038,2.201,3.91,5.524,4.151,6.641
	c-1.509,5.678-3.443,11.82-5.94,18.287c-3.977,10.302-8.503,19.151-12.87,26.52c-3.349,1.033-6.919,1.989-10.703,2.816
	c-11.894,2.602-22.747,3.248-31.92,3.016c-0.646-2.398-1.291-4.796-1.937-7.195c11.474-4.052,22.947-8.105,34.42-12.157
	C686.711,271.45,690.458,258.899,694.204,246.348z"/>
<path style="fill:#E39972;" d="M649.111,296.637c-2.245,0.482-4.026,0.412-5.258,0.25c-2.707-0.355-3.792-1.286-5.883-0.751
	c-1.094,0.28-0.815,0.539-3.004,1.377c-1.974,0.755-2.96,0.834-3.255,1.627c-0.224,0.603,0.053,1.345,0.501,1.752
	c0.702,0.638,2.001,0.612,3.004-0.25c0.125,0.542,0.25,1.085,0.376,1.627c-0.156,0.025-1.437,0.246-1.753,1.127
	c-0.366,1.022,0.853,2.138,1.252,2.504c1.391,1.273,3.127,1.433,4.006,1.502c3.132,0.246,5.624-1.135,6.76-1.878
	c1.544-0.751,3.088-1.502,4.631-2.253c0.197-0.157,1.472-1.203,1.502-2.879C652.019,298.766,650.864,297.218,649.111,296.637z"/>
<path style="fill:#8296AD;" d="M695.141,241.833c-2.667,4.667-5.333,9.333-8,14c-1.222-0.555-2.444-1.111-3.667-1.667
	c0.223-1.459,0.621-3.166,1.333-5c1.701-4.377,4.358-7.322,6.167-9C692.364,240.722,693.753,241.278,695.141,241.833z"/>
<path style="fill:#194A7D;" d="M716.225,331c0.083-4.333,0.167-8.667,0.25-13c-0.619,1.035-1.454,2.746-1.75,5
	C714.219,326.856,715.612,329.85,716.225,331z"/>
</svg>
