<?xml version="1.0" encoding="UTF-8"?>
<svg xmlns="http://www.w3.org/2000/svg" version="1.1" viewBox="0 0 2500 1000">
  <!-- Generator: Adobe Illustrator 28.7.7, SVG Export Plug-In . SVG Version: 1.2.0 Build 194)  -->
  <g>
    <g id="image">
      <g>
        <polygon points="2500 999.58 2081.945 999.58 0 999.58 0 0 2500 0 2500 999.58" style="fill: #fff;"/>
        <path d="M1589.647,361.738l33.132,67.454c2.366,4.816,6.95,8.16,12.258,8.942l74.349,10.947c13.368,1.968,18.676,18.411,8.983,27.825l-53.914,52.354c-3.849,3.738-5.613,9.131-4.716,14.421l12.564,74.094c2.259,13.322-11.739,23.452-23.687,17.141l-66.452-35.097c-4.745-2.506-10.419-2.517-15.173-.029l-66.585,34.845c-11.972,6.265-25.931-3.917-23.622-17.231l12.844-74.045c.917-5.287-.826-10.686-4.661-14.439l-53.715-52.558c-9.658-9.45-4.288-25.873,9.088-27.791l74.39-10.666c5.311-.762,9.908-4.088,12.292-8.895l33.387-67.328c6.003-12.106,23.282-12.073,29.239.055Z" style="fill: #fff;"/>
        <path d="M1591.124,367.63l32.268,65.307c2.304,4.663,6.768,7.9,11.938,8.657l72.409,10.6c13.019,1.906,18.189,17.826,8.748,26.939l-52.506,50.688c-3.749,3.619-5.466,8.841-4.593,13.962l12.237,71.736c2.2,12.898-11.432,22.705-23.069,16.596l-64.718-33.981c-4.621-2.426-10.147-2.437-14.777-.028l-64.846,33.736c-11.659,6.066-18.01-3.112-15.761-16.002l11.382-70.667c.893-5.119-.305-17.717-4.04-21.35l-50.318-44.195c-9.406-9.149-3.623-20.174,9.404-22.03l71.639-7.242c5.173-.737,12.233-10.161,14.555-14.815l30.932-65.277c5.846-11.72,13.313-14.376,19.115-2.633Z" style="fill: #fcc956;"/>
        <path d="M1560.938,360.185c5.98-12.117,23.259-12.117,29.239,0l33.259,67.391c2.375,4.812,6.965,8.147,12.275,8.918l74.37,10.807c13.372,1.943,18.711,18.376,9.035,27.808l-53.815,52.456c-3.842,3.745-5.596,9.142-4.689,14.43l12.704,74.07c2.284,13.318-11.694,23.474-23.655,17.186l-66.519-34.971c-4.749-2.497-10.423-2.497-15.173,0l-66.519,34.971c-11.96,6.288-25.939-3.868-23.655-17.186l12.704-74.07c.907-5.289-.846-10.685-4.689-14.43l-53.815-52.456c-9.676-9.432-4.337-25.865,9.035-27.808l74.37-10.807c5.31-.772,9.9-4.107,12.275-8.918l11.563-23.429" style="fill: none; stroke: #0e0f29; stroke-linecap: round; stroke-linejoin: round; stroke-width: 3.797px;"/>
        <path d="M1517.23,960.505l-1.517-112.215s-79.517-154.29,87.033-235.389c0,0,27.98-5.425,22.298,32.101,0,0-9.703,23.982-25.693,39.259-15.99,15.277-21.218,63.491,32.034,78.747,53.251,15.256,50.482-89.975,50.482-89.975,0,0-3.132-48.919-9.775-61.745,0,0-12.605-31.056,24.892-30.941,0,0,34.852,5.334,32.285,139.076,0,0,23.156-37.796,25.064-71.632,1.907-33.835,6.601-54.092,26.935-54.777,20.334-.685,28.323,31.69,24.724,76.03l-2.684,16.011s2.798-15.787,20.326-11.136,20.369,35.772,15.256,63.992c0,0,14.641,22.777,7.547,40.879-7.094,18.102-26.832,48.89-114.646,96.89l3.085,83.202-217.648,1.622Z" style="fill: #c26bed;"/>
        <polygon points="1753.857 999.58 1502.78 999.58 1517.23 960.301 1736.163 960.301 1753.857 999.58" style="fill: #fff;"/>
        <polygon points="20.45 999.58 185.222 859.698 319.619 999.58 20.45 999.58" style="fill: #fff;"/>
        <polyline points="2039.499 895.814 2081.945 999.58 2399.484 999.58 2219.01 805.637 2037.483 892.48" style="fill: #fff;"/>
        <polygon points="690.312 1000 713.945 919.894 717.038 909.226 917.594 910.421 924.011 1000 690.312 1000" style="fill: #fff;"/>
        <path d="M857.742,276.576l47.925,57.887c3.422,4.133,8.658,6.318,14.003,5.842l74.855-6.663c13.459-1.198,22.45,13.557,15.214,24.969l-40.243,63.468c-2.873,4.532-3.333,10.187-1.229,15.123l29.469,69.133c5.298,12.43-5.956,25.54-19.045,22.185l-72.797-18.661c-5.198-1.332-10.718-.022-14.763,3.504l-56.643,49.389c-10.184,8.88-26.131,2.228-26.985-11.258l-4.748-75.001c-.339-5.355-3.291-10.2-7.895-12.957l-64.476-38.608c-11.593-6.942-10.194-24.164,2.368-29.143l69.863-27.692c4.988-1.977,8.684-6.282,9.883-11.512l16.794-73.251c3.02-13.171,19.831-17.162,28.448-6.753Z" style="fill: #fff;"/>
        <path d="M860.551,283.838l46.586,56.001c3.326,3.998,8.422,6.108,13.626,5.64l72.887-6.549c13.105-1.178,21.839,13.101,14.78,24.162l-39.262,61.519c-2.803,4.392-3.258,9.87-1.216,14.648l28.602,66.916c5.143,12.032-5.832,24.743-18.571,21.51l-70.851-17.979c-5.059-1.284-10.435-.007-14.377,3.413l-55.21,47.906c-9.927,8.613-18.24,1.166-19.053-11.893l-5.384-71.375c-.323-5.186-4.421-17.159-8.9-19.823l-59.225-31.266c-11.278-6.708-8.22-18.776,4.016-23.615l67.985-23.722c4.859-1.921,9.532-12.729,10.706-17.796l14.885-70.685c2.957-12.759,9.601-17.08,17.977-7.011Z" style="fill: #fcc956;"/>
        <path d="M464.414,304.127l49.165,56.837c3.51,4.058,8.793,6.129,14.126,5.538l74.694-8.279c13.43-1.489,22.737,13.069,15.75,24.634l-38.863,64.322c-2.775,4.593-3.112,10.257-.902,15.146l30.955,68.48c5.566,12.313-5.403,25.663-18.562,22.591l-73.184-17.084c-5.225-1.22-10.716.21-14.683,3.823l-55.562,50.602c-9.99,9.098-26.077,2.792-27.222-10.672l-6.367-74.881c-.455-5.347-3.511-10.127-8.173-12.783l-65.295-37.206c-11.74-6.69-10.713-23.938,1.738-29.187l69.249-29.195c4.944-2.084,8.546-6.468,9.632-11.723l15.208-73.596c2.734-13.233,19.456-17.586,28.296-7.366Z" style="fill: #fff;"/>
        <path d="M466.168,311.979l47.785,54.981c3.412,3.926,8.552,5.924,13.744,5.344l72.728-8.123c13.077-1.461,22.117,12.626,15.299,23.837l-37.924,62.353c-2.708,4.452-3.044,9.938-.899,14.671l30.041,66.282c5.401,11.918-5.296,24.863-18.102,21.906l-71.223-16.444c-5.085-1.174-10.433.218-14.3,3.723l-54.162,49.087c-9.738,8.826-18.21,1.56-19.306-11.479l-6.925-71.242c-.435-5.178-4.791-17.06-9.326-19.626l-59.886-29.979c-11.42-6.463-8.624-18.594,3.505-23.696l67.456-25.185c4.816-2.026,9.254-12.932,10.319-18.023l13.354-70.99c2.68-12.82,9.229-17.283,17.821-7.398Z" style="fill: #fcc956;"/>
        <path d="M1944.818,270.78l19.442,73.187c1.388,5.226,5.259,9.433,10.35,11.252l71.311,25.475c12.822,4.58,14.826,21.875,3.391,29.266l-63.597,41.106c-4.541,2.935-7.347,7.916-7.503,13.321l-2.192,75.693c-.394,13.61-16.223,20.86-26.786,12.269l-58.747-47.782c-4.195-3.412-9.799-4.541-14.988-3.02l-72.666,21.306c-13.066,3.831-24.852-8.983-19.946-21.684l27.289-70.637c1.948-5.043,1.29-10.723-1.76-15.187l-42.718-62.525c-7.681-11.242.863-26.412,14.459-25.67l75.613,4.126c5.399.295,10.597-2.086,13.9-6.367l46.264-59.949c8.319-10.779,25.386-7.34,28.882,5.819Z" style="fill: #fff;"/>
        <path d="M1945.116,276.893l19.011,70.896c1.357,5.062,5.131,9.141,10.09,10.908l69.462,24.749c12.489,4.45,14.46,21.2,3.334,28.345l-61.877,39.737c-4.418,2.837-7.145,7.658-7.291,12.892l-2.05,73.299c-.369,13.179-15.773,20.183-26.067,11.851l-57.253-46.337c-4.088-3.308-9.546-4.408-14.596-2.941l-70.729,20.552c-12.717,3.695-17.183-6.626-12.419-18.92l25.178-67.587c1.892-4.882,3.192-17.567.217-21.894l-41.01-53.591c-7.491-10.896.397-20.649,13.635-19.916l72.219,6.967c5.257.291,14.091-7.629,17.303-11.77l43.435-58.407c8.088-10.429,15.99-11.581,19.408,1.166Z" style="fill: #fcc956;"/>
        <path d="M1292.237,259.278l26.952,70.152c1.924,5.009,6.19,8.75,11.407,10.004l73.069,17.568c13.138,3.159,16.951,20.011,6.452,28.518l-58.39,47.311c-4.169,3.378-6.409,8.591-5.99,13.94l5.871,74.921c1.056,13.471-13.794,22.305-25.128,14.949l-63.039-40.912c-4.501-2.921-10.151-3.44-15.109-1.389l-69.44,28.736c-12.485,5.167-25.476-6.226-21.982-19.279l19.43-72.596c1.387-5.183.135-10.717-3.348-14.799l-48.788-57.162c-8.772-10.278-1.951-26.153,11.542-26.864l75.047-3.955c5.358-.282,10.235-3.183,13.04-7.757l39.288-64.064c7.064-11.519,24.27-9.938,29.116,2.676Z" style="fill: #fff;"/>
        <path d="M1854.755,332.575c5.36.259,10.503-2.137,13.755-6.405l45.539-59.782c8.188-10.749,25.147-7.443,28.699,5.594l19.751,72.509c1.41,5.177,5.278,9.329,10.342,11.102l70.929,24.836c12.753,4.466,14.85,21.616,3.548,29.023l-62.857,41.191c-4.488,2.941-7.241,7.902-7.363,13.267l-1.702,75.132c-.306,13.509-15.97,20.803-26.506,12.343l-58.599-47.052c-4.184-3.359-9.753-4.445-14.892-2.903l-71.981,21.598c-12.942,3.883-24.72-8.76-19.929-21.394l26.641-70.271c1.902-5.017,1.214-10.649-1.841-15.061l-42.784-61.784" style="fill: none; stroke: #0e0f29; stroke-linecap: round; stroke-linejoin: round; stroke-width: 3.797px;"/>
        <path d="M463.586,304.217l49.318,56.705c3.521,4.049,8.809,6.105,14.141,5.5l74.671-8.48c13.426-1.525,22.773,13.008,15.816,24.592l-38.689,64.427c-2.762,4.6-3.084,10.265-.861,15.148l31.14,68.396c5.599,12.298-5.334,25.677-18.501,22.641l-73.229-16.887c-5.229-1.206-10.716.239-14.673,3.862l-55.426,50.751c-9.966,9.125-26.069,2.862-27.25-10.599l-6.569-74.864c-.469-5.345-3.538-10.117-8.207-12.761l-65.395-37.03c-11.758-6.658-10.778-23.909,1.659-29.192l69.17-29.382c4.939-2.098,8.529-6.492,9.6-11.749l15.01-73.637c2.699-13.24,19.408-17.638,28.276-7.443Z" style="fill: none; stroke: #0e0f29; stroke-linecap: round; stroke-linejoin: round; stroke-width: 3.797px;"/>
        <line x1="1169.767" y1="242.44" x2="1205.093" y2="267.444" style="fill: none; stroke: #0e0f29; stroke-linecap: round; stroke-linejoin: round; stroke-width: 3.762px;"/>
        <line x1="1387.059" y1="242.44" x2="1351.733" y2="267.444" style="fill: none; stroke: #0e0f29; stroke-linecap: round; stroke-linejoin: round; stroke-width: 3.762px;"/>
        <line x1="2021.275" y1="247.454" x2="1985.949" y2="272.459" style="fill: none; stroke: #0e0f29; stroke-linecap: round; stroke-linejoin: round; stroke-width: 3.762px;"/>
        <line x1="1995.846" y1="195.546" x2="1976.052" y2="234.035" style="fill: none; stroke: #0e0f29; stroke-linecap: round; stroke-linejoin: round; stroke-width: 3.762px;"/>
        <line x1="333.733" y1="315.016" x2="370.022" y2="338.599" style="fill: none; stroke: #0e0f29; stroke-linecap: round; stroke-linejoin: round; stroke-width: 3.762px;"/>
        <line x1="358.462" y1="268.774" x2="378.101" y2="307.341" style="fill: none; stroke: #0e0f29; stroke-linecap: round; stroke-linejoin: round; stroke-width: 3.762px;"/>
        <line x1="1275.024" y1="221.533" x2="1275.024" y2="181.16" style="fill: none; stroke: #0e0f29; stroke-linecap: round; stroke-linejoin: round; stroke-width: 3.762px;"/>
        <path d="M256.428,525.835c8.913-8.048,15.369-18.507,19.173-31.569.989-3.396,6.02-3.584,7.044-.243,4.266,13.925,11.412,24.426,21.194,31.793,1.771,1.334,1.884,3.892.119,5.312-9.544,7.674-16.355,19.733-20.952,35.343-1.01,3.428-6.054,3.561-7.07.181-4.969-16.526-11.523-28.451-19.657-35.789-1.495-1.349-1.38-3.645.15-5.027Z" style="fill: none; stroke: #0e0f29; stroke-linecap: round; stroke-linejoin: round; stroke-width: 3.762px;"/>
        <path d="M2112.804,301.816c8.913-8.048,15.369-18.507,19.172-31.569.989-3.396,6.02-3.584,7.044-.243,4.266,13.925,11.412,24.426,21.194,31.793,1.771,1.333,1.884,3.892.119,5.312-9.544,7.674-16.355,19.733-20.953,35.343-1.01,3.428-6.054,3.561-7.07.181-4.969-16.526-11.523-28.451-19.657-35.789-1.495-1.349-1.38-3.645.15-5.027Z" style="fill: none; stroke: #0e0f29; stroke-linecap: round; stroke-linejoin: round; stroke-width: 3.762px;"/>
        <circle cx="333.733" cy="568.434" r="10.543" style="fill: none; stroke: #0e0f29; stroke-linecap: round; stroke-linejoin: round; stroke-width: 3.762px;"/>
        <circle cx="2086.491" cy="345.097" r="10.543" transform="translate(1271.246 2296.484) rotate(-76.717)" style="fill: none; stroke: #0e0f29; stroke-linecap: round; stroke-linejoin: round; stroke-width: 3.762px;"/>
        <circle cx="1447.734" cy="311.618" r="10.543" style="fill: none; stroke: #0e0f29; stroke-linecap: round; stroke-linejoin: round; stroke-width: 3.762px;"/>
        <circle cx="1829.614" cy="578.978" r="10.543" style="fill: none; stroke: #0e0f29; stroke-linecap: round; stroke-linejoin: round; stroke-width: 3.762px;"/>
        <circle cx="976.142" cy="578.978" r="10.543" style="fill: none; stroke: #0e0f29; stroke-linecap: round; stroke-linejoin: round; stroke-width: 3.762px;"/>
        <circle cx="666.566" cy="288.057" r="10.543" style="fill: none; stroke: #0e0f29; stroke-linecap: round; stroke-linejoin: round; stroke-width: 3.762px;"/>
        <polygon points="319.619 999.58 183.135 859.698 367.453 719.816 487.724 849.648 319.619 999.58" style="fill: #b1703b;"/>
        <path d="M606.974,599.096c3.771-9.341,17.921-32.814,3.313-47.321-7.535-7.482-38.881-2.236-63.021,15.208-37.649,27.207-75.13,49.948-111.231,79.124.27-.555.6-1.497.964-3.083,3.601-15.709,7.168-32.376,2.07-47.665-5.098-15.289-22.404-27.707-37.295-21.541-10.034,4.154-18.934,16.566-23.915,26.216-16.424,31.82-33.15,59.907-56.526,87.033-15.422,17.896-31.539,47.074-34.879,70.461-3.258,22.816,6.471,34.19,18.669,53.744,18.799,30.137,40.79,58.281,65.487,83.809,12.528,12.95,26.442,25.636,43.74,30.676,18.592,5.418,38.933,1.165,56.235-7.534,17.302-8.699,32.116-21.541,46.73-34.247,22.022-19.147,44.044-38.293,66.066-57.439,10.521-9.147,22.064-23.057,15.405-35.306-3.819-7.025-4.469-10.935-12.526-9.968,7.445-5.955,13.124-14.608,18.561-22.44,6.6-9.507,4.281-19.64-1.593-29.612-5.462-9.272-18.388-11.768-28.651-8.529-.76.24-1.506.511-2.244.796,8.214-8.617,19.902-20.728,23.612-32.043,3.971-12.109.398-26.569-8.079-36.084-5.506-6.181-14.97-7.23-23.343-7.004,18.04-12.048,33.728-25.641,42.451-47.252Z" style="fill: #b1703b;"/>
        <path d="M414.868,698.41c5.04-11.638,24.709-63.5,26.519-76.052,1.81-12.552-.024-26.155-7.73-36.227s-22.101-15.474-33.735-10.424c-8.624,3.743-14.194,12.08-19.276,19.989-26.955,41.956-53.909,83.913-80.864,125.869-8.26,12.857-16.862,28.15-11.832,42.58" style="fill: none; stroke: #0e0f29; stroke-linecap: round; stroke-linejoin: round; stroke-width: 3.797px;"/>
        <path d="M545.454,748.208c8.45-9.817,16.299-15.666,25.861-24.403,9.562-8.737,18.595-18.576,23.379-30.613,4.784-12.037,3.201-28.07-4.593-38.415-7.794-10.345-20.575-11.632-30.722-3.582l-66.836,53.638" style="fill: none; stroke: #0e0f29; stroke-linecap: round; stroke-linejoin: round; stroke-width: 3.797px;"/>
        <path d="M566.555,728.002c9.869-7.974,15-8.702,23.679-7.221s16.167,8.449,18.268,16.998c2.843,11.565-3.709,23.428-11.806,32.162-8.097,8.734-25.269,21.263-39.053,35.058" style="fill: none; stroke: #0e0f29; stroke-linecap: round; stroke-linejoin: round; stroke-width: 3.797px;"/>
        <path d="M577.698,570.782c-2.007,3.371-4.038,6.798-5.042,10.591-1.004,3.793-.862,8.068,1.276,11.358,3.775,5.809,12.024,6.504,18.857,5.362,8.586-1.434,13.938-4.205,21.07-9.195" style="fill: none; stroke: #0e0f29; stroke-linecap: round; stroke-linejoin: round; stroke-width: 3.797px;"/>
        <path d="M399.47,582.521c5.811,10.092,5.389,23.454-1.048,33.159-6.437,9.705-18.583,15.292-30.14,13.864" style="fill: none; stroke: #0e0f29; stroke-linecap: round; stroke-linejoin: round; stroke-width: 3.797px;"/>
        <path d="M440.435,639.936s120.463-84.834,145.699-90.128c34.271-7.19,56.339,34.86-21.61,96.54" style="fill: none; stroke: #0e0f29; stroke-linecap: round; stroke-linejoin: round; stroke-width: 3.797px;"/>
        <polygon points="2039.499 895.814 1951.628 738.941 2113.669 690.821 2216.124 802.493 2039.499 895.814" style="fill: #fcd57e;"/>
        <path d="M1999.085,490.005s35.221-45.311,89.743-1.138c54.522,44.173,79.877,83.864,79.877,83.864l-47.222,44.225-68.955-76.699-53.442-50.253Z" style="fill: #fcd57e;"/>
        <path d="M2052.316,496.299s45.48-35.002,87.147,21.457c41.667,56.46,47.951,81.658,47.951,81.658l-48.544,50.527-47.461-91.569-39.094-62.073Z" style="fill: #fcd57e;"/>
        <path d="M1918.826,562.283c-1.892,6.153-6.247,21.673-11.709,39.435-25.723,104.666,29.039,174.024,94.048,237.024,19.619,29.099,166.875,38.183,197.953-160.153,13.429-85.704-43.884-134.022-43.884-134.022,0,0-57.016-19.696-55.299,17.915-8.01-28.872-24.946-48.941-48.192-69.456-26.466-22.285-67.724-33.787-77.604-20.289-11.625,22.312,4.886,33.877,28.776,51.334,9.456,6.91,17.755,15.312,24.475,24.904,24.002,34.263,36.469,41.306,41.584,77.81-1.771,69.164-90.566,48.971-101.86-6.365,14.936-87.586-39.704-86.048-48.286-58.139Z" style="fill: #fcd57e;"/>
        <path d="M1927.689,562.104c6.293,6.506,9.301,16.041,7.88,24.981-1.421,8.939-7.237,17.072-15.237,21.307" style="fill: none; stroke: #0e0f29; stroke-linecap: round; stroke-linejoin: round; stroke-width: 3.797px;"/>
        <path d="M1920.952,558.357c-20.945,45.7-26.505,122.053-4.434,167.219,22.071,45.166,31.827,64.53,94.064,122.411l28.916,47.827,178.419-91.366,142.991,155.853" style="fill: none; stroke: #0e0f29; stroke-linecap: round; stroke-linejoin: round; stroke-width: 3.797px;"/>
        <path d="M1983.894,468.209s93.179-9.997,142.407,134.323" style="fill: none; stroke: #0e0f29; stroke-linecap: round; stroke-linejoin: round; stroke-width: 3.797px;"/>
        <path d="M2092.83,490.456s37.842,33.207,51.889,82.242" style="fill: none; stroke: #0e0f29; stroke-linecap: round; stroke-linejoin: round; stroke-width: 3.797px;"/>
        <path d="M1929.855,551.155c10.607-6.11,24.966-.147,31.846,9.977,6.88,10.124,7.999,23.022,8.005,35.262.005,12.24-.849,24.772,2.814,36.452,4.706,15.005,17.124,27.361,32.153,31.991" style="fill: none; stroke: #0e0f29; stroke-linecap: round; stroke-linejoin: round; stroke-width: 3.797px;"/>
        <path d="M1987.119,468.437s1.029,18.201,32.987,13.033" style="fill: none; stroke: #0e0f29; stroke-linecap: round; stroke-linejoin: round; stroke-width: 3.797px;"/>
        <path d="M737.508,394.062l-4.731,1.884c-12.554,4.999-13.926,22.223-2.322,29.146l64.537,38.506c4.608,2.749,7.568,7.59,7.915,12.944l4.867,74.993c.875,13.484,16.832,20.112,27.002,11.215l56.564-49.479c4.039-3.533,9.557-4.852,14.757-3.528l72.827,18.546c13.094,3.335,24.328-9.793,19.01-22.215l-29.578-69.086c-2.112-4.933-1.661-10.589,1.205-15.125l40.143-63.531c7.218-11.423-1.796-26.164-15.253-24.945l-74.845,6.782c-5.344.484-10.584-1.692-14.012-5.82l-48.017-57.81c-8.634-10.394-25.439-6.377-28.437,6.798l-16.678,73.277c-1.191,5.232-4.88,9.543-9.865,11.528l-25.2,10.035" style="fill: none; stroke: #0e0f29; stroke-linecap: round; stroke-linejoin: round; stroke-width: 3.797px;"/>
        <polygon points="1143.917 939.897 1107.581 709.901 1253.671 623.177 1387.156 939.897 1143.917 939.897" style="fill: #feae6e;"/>
        <path d="M1273.224,638.466c16.833-30.678,63.783,18.843,54.913,50.997-9.639,34.942,10.536,64.912-5.16,97.584-28.146,58.585-88.819,100.189-153.61,105.334-17.031,1.352-34.98.145-49.745-8.451-18.222-10.607-28.614-30.493-38.061-49.343-23.51-46.915-47.021-93.829-70.532-140.744-4.401-8.783-6.225-13.399-8.43-22.973-4.177-18.137,6.807-30.295,15.421-35.019,19.583-10.739,32.595,7.183,39.149,20.489-11.008-7.031-20.482-26.958-15.726-39.123,4.756-12.165,19.465-18.579,32.323-16.279s29.25,17.521,29.493,30.58c-5.563-10.406-14.364-32.814-16.386-44.439-2.022-11.625,4.2-19.048,14.546-24.722,20.593-11.293,35.819-7.503,47.922,4.371,12.733,12.491,10.178,23.628,12.682,30.433.276.751,1.4.368,1.166-.398-3.52-11.51-43.175-101.68-46.771-113.034-9.564-30.199,23.781-42.44,36.015-32.513,39.573,32.109,52.347,73.424,72.253,104.052,20.77,31.956,36.37,50.603,48.537,83.197Z" style="fill: #feae6e;"/>
        <path d="M1099.56,615.636c5.805,20.837,16.23,40.373,30.307,56.796,6.652,7.76,15.479,15.36,25.666,14.532,8.664-.704,15.823-7.629,19.352-15.573,3.53-7.944,4.109-16.836,4.638-25.512" style="fill: none; stroke: #0e0f29; stroke-linecap: round; stroke-linejoin: round; stroke-width: 3.797px;"/>
        <path d="M1045.196,640.828c11.777,22.277,23.602,44.633,38.299,65.102,4.283,5.965,9.254,12.083,16.274,14.238,7.232,2.22,15.451-.486,20.789-5.846,5.339-5.36,7.988-13.003,8.317-20.56" style="fill: none; stroke: #0e0f29; stroke-linecap: round; stroke-linejoin: round; stroke-width: 3.797px;"/>
        <path d="M1035.691,738.171c4.824,6.285,9.807,12.715,16.576,16.832,6.769,4.117,15.825,5.462,22.526,1.236,5.537-3.492,8.467-10.165,8.875-16.698.409-6.533-1.373-13-3.499-19.191" style="fill: none; stroke: #0e0f29; stroke-linecap: round; stroke-linejoin: round; stroke-width: 3.797px;"/>
        <path d="M1131.487,648.673c3.734-3.103,9.1-3.797,13.783-2.514,4.683,1.283,8.726,4.337,11.953,7.964,3.227,3.628,5.723,7.833,8.198,12.01" style="fill: none; stroke: #0e0f29; stroke-linecap: round; stroke-linejoin: round; stroke-width: 3.797px;"/>
        <path d="M1088.799,686.546c2.149-3.973,7.894-4.751,11.94-2.744,4.046,2.008,6.709,5.982,8.919,9.921,2.21,3.939,4.242,8.125,7.633,11.109" style="fill: none; stroke: #0e0f29; stroke-linecap: round; stroke-linejoin: round; stroke-width: 3.797px;"/>
        <path d="M1052.658,718.269c5.172-1.846,11.092.65,14.841,4.663,3.748,4.013,5.789,9.285,7.743,14.416" style="fill: none; stroke: #0e0f29; stroke-linecap: round; stroke-linejoin: round; stroke-width: 3.797px;"/>
        <line x1="1181.303" y1="632.434" x2="1146.835" y2="570.782" style="fill: none; stroke: #0e0f29; stroke-linecap: round; stroke-linejoin: round; stroke-width: 3.797px;"/>
        <path d="M1819.606,764.425c-16.938,22.737-37.49,42.776-60.646,59.135" style="fill: none; stroke: #0e0f29; stroke-linecap: round; stroke-linejoin: round; stroke-width: 3.797px;"/>
        <path d="M1803.657,680.974c-10.407,42.725-32.932,82.428-64.268,113.28" style="fill: none; stroke: #0e0f29; stroke-linecap: round; stroke-linejoin: round; stroke-width: 3.797px;"/>
        <path d="M1687.077,592.74c.942,7.862,1.976,15.999,6.105,22.755,4.13,6.756,12.276,11.742,19.915,9.659" style="fill: none; stroke: #0e0f29; stroke-linecap: round; stroke-linejoin: round; stroke-width: 3.797px;"/>
        <path d="M1598.083,622.561c1.06,8.503-2.089,17.43-8.25,23.386-6.161,5.956-15.189,8.801-23.651,7.454" style="fill: none; stroke: #0e0f29; stroke-linecap: round; stroke-linejoin: round; stroke-width: 3.797px;"/>
        <path d="M1776.723,607.391c-.636,8.115-1.221,16.578,1.855,24.115,3.076,7.537,11.022,13.758,18.977,12.031" style="fill: none; stroke: #0e0f29; stroke-linecap: round; stroke-linejoin: round; stroke-width: 3.797px;"/>
        <path d="M1818.425,693.534c-.362,6.344-.696,12.892,1.462,18.87,2.158,5.977,7.482,11.288,13.836,11.378" style="fill: none; stroke: #0e0f29; stroke-linecap: round; stroke-linejoin: round; stroke-width: 3.797px;"/>
        <path d="M1840.991,768.089c-3.619,5.741-4.178,13.294-1.446,19.506" style="fill: none; stroke: #0e0f29; stroke-linecap: round; stroke-linejoin: round; stroke-width: 3.797px;"/>
        <path d="M1531.079,873.709c-30.445-36.579-43.445-87.071-34.451-133.805,7.871-40.895,32.448-78.21,66.507-102.083,7.615-5.337,15.203-10.724,22.407-16.604,6.757-5.516,17.455-11.317,28.709-5.844,18.757,9.122,13.556,40.177-11.396,65.601-32.457,33.069-12.461,67.586,18.534,80.726,46.543,18.245,62.223-34.744,58.779-83.657,0,0,2.259-25.825-10.791-71.28,0,0-5.929-21.807,19.917-25.851,25.846-4.044,46.824,78.387,38.049,137.391-2.492,16.76-2.639,34.05-10.089,49.269" style="fill: none; stroke: #0e0f29; stroke-linecap: round; stroke-linejoin: round; stroke-width: 3.797px;"/>
        <path d="M1292.237,259.278l26.952,70.152c1.924,5.009,6.19,8.75,11.407,10.004l73.069,17.568c13.138,3.159,16.951,20.011,6.452,28.518l-58.39,47.311c-4.169,3.378-6.409,8.591-5.99,13.94l5.871,74.921c1.056,13.471-13.794,22.305-25.128,14.949l-63.039-40.912c-4.501-2.921-10.151-3.44-15.109-1.389l-69.44,28.736c-12.485,5.167-25.476-6.226-21.982-19.279l19.43-72.596c1.387-5.183.135-10.717-3.348-14.799l-48.788-57.162c-8.772-10.278-1.951-26.153,11.542-26.864l75.047-3.955c5.358-.282,10.235-3.183,13.04-7.757l39.288-64.064c7.064-11.519,24.27-9.938,29.116,2.676Z" style="fill: #fff;"/>
        <path d="M1293.18,265.278l26.284,67.937c1.877,4.851,6.033,8.475,11.114,9.692l71.167,17.048c12.796,3.065,16.518,19.384,6.298,27.615l-56.838,45.777c-4.058,3.269-6.237,8.315-5.826,13.495l5.757,72.544c1.035,13.044-13.421,21.589-24.463,14.461l-61.411-39.645c-4.385-2.831-9.887-3.336-14.715-1.352l-67.609,27.787c-12.156,4.996-17.658-4.714-14.263-17.351l17.67-69.363c1.348-5.018,1.285-17.673-2.11-21.626l-46.154-48.528c-8.548-9.956-1.8-20.417,11.341-21.099l72-.791c5.218-.271,13.095-9.023,15.824-13.45l36.659-62.242c6.873-11.149,14.548-13.124,19.274-.909Z" style="fill: #fcc956;"/>
        <path d="M1292.237,259.278l26.952,70.152c1.924,5.009,6.19,8.75,11.407,10.004l73.069,17.568c13.138,3.159,16.951,20.011,6.452,28.518l-58.39,47.311c-4.169,3.378-6.409,8.591-5.99,13.94l5.871,74.921c1.056,13.471-13.794,22.305-25.128,14.949l-63.039-40.912c-4.501-2.921-10.151-3.44-15.109-1.389l-69.44,28.736c-12.485,5.167-25.476-6.226-21.982-19.279l19.43-72.596c1.387-5.183.135-10.717-3.348-14.799l-48.788-57.162c-8.772-10.278-1.951-26.153,11.542-26.864l75.047-3.955c5.358-.282,10.235-3.183,13.04-7.757l39.288-64.064c7.064-11.519,24.27-9.938,29.116,2.676Z" style="fill: none; stroke: #0e0f29; stroke-linecap: round; stroke-linejoin: round; stroke-width: 3.797px;"/>
        <path d="M1260.476,666.374l34.754,110.975,25.733,13.233c5.773-10.361,10.555-21.271,14.17-32.598,11.019-34.531,8.32-51.902,13.026-87.842,4.331-33.073,12.352-66.765,27.489-104.693,3.804-9.531,4.561-25.206-1.635-33.386-12.824-16.933-54.042-12.736-75.164,23.634-15.357,26.443-21.149,29.317-33.571,62.031-.917-1.693-15.299,36.417-16.226,34.807l11.424,13.838Z" style="fill: #feae6e;"/>
        <path d="M1982.268,467.798s-11.023,1.113-11.808,16.194,7.395,21.622,24.924,34.556,42.551,37.053,64.36,76.317c21.809,39.265,2.299,91.222-53.613,71.132" style="fill: none; stroke: #0e0f29; stroke-linecap: round; stroke-linejoin: round; stroke-width: 3.797px;"/>
        <path d="M2020.632,474.034s23.363-17.246,63.615,11.3c0,0,23.071-3.522,43.984,19.389,20.913,22.912,129.005,122.19,33.969,280.073" style="fill: none; stroke: #0e0f29; stroke-linecap: round; stroke-linejoin: round; stroke-width: 3.797px;"/>
        <line x1="2039.499" y1="895.814" x2="2076.934" y2="986.761" style="fill: none; stroke: #0e0f29; stroke-linecap: round; stroke-linejoin: round; stroke-width: 3.797px;"/>
        <line x1="2178.185" y1="754.298" x2="2216.124" y2="802.493" style="fill: none; stroke: #0e0f29; stroke-linecap: round; stroke-linejoin: round; stroke-width: 3.797px;"/>
        <g>
          <polygon points="917.474 911.852 926.537 732.274 759.982 761.121 717.777 906.677 917.474 911.852" style="fill: #fcc956;"/>
          <path d="M773.466,532.194s-51.68-24.956-80.913,38.835c-29.233,63.791-34.324,110.613-34.324,110.613l61.951,18.654,27.72-99.343,25.566-68.759Z" style="fill: #fcc956;"/>
          <path d="M728.567,561.473s-56.293-11.164-68.553,57.927c-12.26,69.091-6.699,94.459-6.699,94.459l65.933,23.712,1.858-103.121,7.461-72.978Z" style="fill: #fcc956;"/>
          <path d="M877.475,561.311c4.428,4.673,15.222,16.644,28.005,30.133,69.529,82.355,51.265,168.818,20.997,254.135-4.655,34.784-132.56,108.32-248.485-55.583-50.093-70.825-20.2-139.57-20.2-139.57,0,0,42.338-42.967,57.503-8.507-5.645-29.426.617-54.929,12.334-83.633,13.816-31.721,45.674-60.348,60.522-52.642,20.324,14.828,10.667,32.523-2.985,58.774-5.403,10.39-9.108,21.604-10.869,33.182-6.289,41.358-14.332,53.206-2.703,88.184,32.302,61.183,102.893,3.657,88.438-50.939-52.279-71.842-2.64-94.73,17.444-73.535Z" style="fill: #fcc956;"/>
          <path d="M869.453,563.201c-2.749,8.624-1.209,18.503,4.034,25.882,5.243,7.378,14.066,12.082,23.114,12.324" style="fill: none; stroke: #0e0f29; stroke-linecap: round; stroke-linejoin: round; stroke-width: 3.797px;"/>
          <path d="M873.825,556.852c39.061,31.645,77.951,97.586,78.234,147.856.283,50.27.141,71.952-29.917,151.451l-4.668,55.693-200.435-2.627-21.681,74.774" style="fill: none; stroke: #0e0f29; stroke-linecap: round; stroke-linejoin: round; stroke-width: 3.797px;"/>
          <path d="M777.397,504.033s-87.926,32.423-67.942,183.593" style="fill: none; stroke: #0e0f29; stroke-linecap: round; stroke-linejoin: round; stroke-width: 3.797px;"/>
          <path d="M689.672,572.344s-19.159,46.558-9.968,96.73" style="fill: none; stroke: #0e0f29; stroke-linecap: round; stroke-linejoin: round; stroke-width: 3.797px;"/>
          <path d="M862.651,554.352c-12.217-.764-22.434,10.956-24.102,23.082-1.669,12.126,3.057,24.18,8.488,35.149,5.431,10.969,11.762,21.818,13.667,33.91,2.447,15.534-3.192,32.12-14.601,42.943" style="fill: none; stroke: #0e0f29; stroke-linecap: round; stroke-linejoin: round; stroke-width: 3.797px;"/>
          <path d="M774.609,505.67s7.161,16.764-23.768,26.326" style="fill: none; stroke: #0e0f29; stroke-linecap: round; stroke-linejoin: round; stroke-width: 3.797px;"/>
          <path d="M778.671,502.943s10.371-3.899,17.771,9.265c7.4,13.164,2.977,22.657-6.986,42.03-9.962,19.373-21.67,52.095-23.773,96.961-2.104,44.866,38.452,82.754,79.625,39.924" style="fill: none; stroke: #0e0f29; stroke-linecap: round; stroke-linejoin: round; stroke-width: 3.797px;"/>
          <path d="M747.067,525.568s-28.591-5.076-51.98,38.376c0,0-22.235,7.09-30.798,36.906-8.563,29.816-61.322,166.77,93.944,266.025" style="fill: none; stroke: #0e0f29; stroke-linecap: round; stroke-linejoin: round; stroke-width: 3.797px;"/>
          <line x1="917.474" y1="911.852" x2="919.558" y2="984" style="fill: none; stroke: #0e0f29; stroke-linecap: round; stroke-linejoin: round; stroke-width: 3.797px;"/>
          <line x1="730.368" y1="846.647" x2="717.777" y2="906.677" style="fill: none; stroke: #0e0f29; stroke-linecap: round; stroke-linejoin: round; stroke-width: 3.797px;"/>
        </g>
        <path d="M1727.344,718.303s20.813-19.645,25.535-65.375c4.723-45.73,7.814-58.949,32.774-57.746,24.96,1.203,22.538,48.976,18.004,79.796" style="fill: none; stroke: #0e0f29; stroke-linecap: round; stroke-linejoin: round; stroke-width: 3.797px;"/>
        <path d="M1804.928,677.46s8.601-13.201,24.748,3.895c16.146,17.095,10.678,55.287,3.72,65.136" style="fill: none; stroke: #0e0f29; stroke-linecap: round; stroke-linejoin: round; stroke-width: 3.797px;"/>
        <path d="M1740.647,867.311s139.491-62.434,98.761-120.819" style="fill: none; stroke: #0e0f29; stroke-linecap: round; stroke-linejoin: round; stroke-width: 3.797px;"/>
        <path d="M1262.263,623.177s35.501-103.15,89.347-101.484c53.846,1.666,12.904,72.615,8.732,88.666-4.172,16.052-15.422,67.068-15.484,94.473-.062,27.405-12.053,71.089-21.882,82.214l59.911,142.723" style="fill: none; stroke: #0e0f29; stroke-linecap: round; stroke-linejoin: round; stroke-width: 3.797px;"/>
        <path d="M1258.097,631.44s-57.082,69.36-42.049,138.986" style="fill: none; stroke: #0e0f29; stroke-linecap: round; stroke-linejoin: round; stroke-width: 3.797px;"/>
        <path d="M1142.626,931.729c-.183-1.158-6.523-41.288-6.523-41.288,0,0-33.592,5.996-79.461-105.576l-48.864-97.839s-19.303-36.79,10.242-51.174c0,0,14.566-6.541,24.825,1.505,0,0-10.414-19.238,9.813-32.695,20.226-13.457,42.431,8.599,42.431,8.599,0,0-22.411-38.952,7.956-51.768,30.367-12.816,47.786,6.771,47.786,6.771l-32.216-78.649s-11.055-30.218,9.321-38.193c20.376-7.975,27.681,2.45,27.681,2.45l11.697,11.052" style="fill: none; stroke: #0e0f29; stroke-linecap: round; stroke-linejoin: round; stroke-width: 3.797px;"/>
        <line x1="1201.706" y1="514.027" x2="1265.277" y2="617.728" style="fill: none; stroke: #0e0f29; stroke-linecap: round; stroke-linejoin: round; stroke-width: 3.797px;"/>
        <path d="M1136.103,890.441s27.763,2.921,45.2,0" style="fill: none; stroke: #0e0f29; stroke-linecap: round; stroke-linejoin: round; stroke-width: 3.797px;"/>
        <line x1="81.242" y1="941.713" x2="289.203" y2="780.067" style="fill: none; stroke: #0e0f29; stroke-linecap: round; stroke-linejoin: round; stroke-width: 3.797px;"/>
        <line x1="185.222" y1="861.837" x2="307.172" y2="986.823" style="fill: none; stroke: #0e0f29; stroke-linecap: round; stroke-linejoin: round; stroke-width: 3.797px;"/>
        <path d="M322.832,996.713l83.091-74.108s42.94,23.524,103.78-32.047c56.851-51.928,84.154-74.943,84.154-74.943,0,0,17.995-18.029-5.992-37.004" style="fill: none; stroke: #0e0f29; stroke-linecap: round; stroke-linejoin: round; stroke-width: 3.797px;"/>
        <polyline points="1516.165 869.708 1517.23 960.505 1506.209 985.396" style="fill: none; stroke: #0e0f29; stroke-linecap: round; stroke-linejoin: round; stroke-width: 3.797px;"/>
        <line x1="1733.167" y1="958.893" x2="1749.493" y2="990.998" style="fill: none; stroke: #0e0f29; stroke-linecap: round; stroke-linejoin: round; stroke-width: 3.797px;"/>
        <path d="M1731.793,877.264c0,1.313.783,47.183,1.374,81.629l-165.061,1.234" style="fill: none; stroke: #0e0f29; stroke-linecap: round; stroke-linejoin: round; stroke-width: 3.797px;"/>
        <polygon points="1143.917 1000 1142.626 931.729 1380.908 920.253 1416.167 1000 1143.917 1000" style="fill: #0e0f29;"/>
        <path d="M587.095,518.833l-28.55-55.331s-8.703-15.086,0-24.305l29.802-42.948" style="fill: none; stroke: #0e0f29; stroke-linecap: round; stroke-linejoin: round; stroke-width: 3.762px;"/>
        <line x1="1653.901" y1="604.824" x2="1641.637" y2="539.304" style="fill: none; stroke: #0e0f29; stroke-linecap: round; stroke-linejoin: round; stroke-width: 3.762px;"/>
        <path d="M962.78,510.67s14.143,3.007,17.282-8.618c.967-3.583.481-7.405-1.083-10.771l-23.716-51.029" style="fill: none; stroke: #0e0f29; stroke-linecap: round; stroke-linejoin: round; stroke-width: 3.762px;"/>
        <path d="M1378.587,389.615l-42.176,34.022s-9.231,5.406-6.066,24.197c3.165,18.792,8.44,66.192,8.44,66.192" style="fill: none; stroke: #0e0f29; stroke-linecap: round; stroke-linejoin: round; stroke-width: 3.762px;"/>
        <path d="M1904.451,497.007l40.93,35.038c3.235,2.769,7.697,3.614,11.72,2.218h0c4.67-1.62,7.866-5.94,8.048-10.879l-.302-21.681" style="fill: none; stroke: #0e0f29; stroke-linecap: round; stroke-linejoin: round; stroke-width: 3.762px;"/>
        <circle cx="2220.921" cy="850.886" r="16.425" style="fill: #c26bed;"/>
        <circle cx="2075.947" cy="920.253" r="16.425" transform="translate(-42.686 1737.452) rotate(-45)" style="fill: #c26bed;"/>
        <circle cx="2200.731" cy="941.287" r="16.425" transform="translate(779.001 2866.884) rotate(-76.718)" style="fill: #c26bed;"/>
        <circle cx="2319.166" cy="967.575" r="16.425" style="fill: #c26bed;"/>
        <line x1="160.363" y1="886.581" x2="259.528" y2="990.67" style="fill: none; stroke: #0e0f29; stroke-linecap: round; stroke-linejoin: round; stroke-width: 3.797px;"/>
        <path d="M760.999,941.665l-24.012,13.258c-2.73,1.507-6.197.507-7.705-2.223h0c-1.507-2.73-.507-6.197,2.223-7.705l24.012-13.258c2.73-1.507,6.197-.507,7.705,2.223h0c1.507,2.73.507,6.197-2.223,7.705Z" style="fill: #fcc956;"/>
        <path d="M850.57,938.232l-24.012,13.258c-2.73,1.507-6.197.507-7.705-2.223h0c-1.507-2.73-.507-6.197,2.223-7.705l24.012-13.258c2.73-1.507,6.197-.507,7.705,2.223h0c1.507,2.73.507,6.197-2.223,7.705Z" style="fill: #fcc956;"/>
        <path d="M799.836,985.49l-21.24-17.354c-2.415-1.973-2.777-5.564-.803-7.979h0c1.973-2.415,5.564-2.777,7.979-.803l21.24,17.354c2.415,1.973,2.776,5.564.803,7.979h0c-1.973,2.415-5.564,2.777-7.979.803Z" style="fill: #fcc956;"/>
        <path d="M893.024,985.49l-21.24-17.354c-2.415-1.973-2.777-5.564-.803-7.979h0c1.973-2.415,5.564-2.777,7.979-.803l21.24,17.354c2.415,1.973,2.776,5.564.803,7.979h0c-1.973,2.415-5.564,2.777-7.979.803Z" style="fill: #fcc956;"/>
      </g>
    </g>
  </g>
</svg>