<?xml version="1.0" encoding="utf-8"?>
<!-- Generator: Adobe Illustrator 27.5.0, SVG Export Plug-In . SVG Version: 6.00 Build 0)  -->
<svg version="1.1" id="Слой_1" xmlns="http://www.w3.org/2000/svg" xmlns:xlink="http://www.w3.org/1999/xlink" x="0px" y="0px"
	 viewBox="0 0 1745.83 734" style="enable-background:new 0 0 1745.83 734;" xml:space="preserve">
<rect style="fill:#FFFFFF;" width="1745.83" height="734"/>
<g>
	<g>
		<g>
			<path style="fill:#FEDD1B;" d="M757.013,264.198c-30.527-10.742-46.623-44.32-35.875-74.848
				c10.742-30.527,44.326-46.622,74.851-35.878c30.529,10.747,46.623,44.326,35.877,74.851
				C821.12,258.852,787.541,274.946,757.013,264.198z M765.637,239.702c17.02,5.99,35.74-2.982,41.733-20.003
				c5.985-17.016-2.983-35.736-20.004-41.728c-17.017-5.988-35.738,2.984-41.73,20.002
				C739.644,214.991,748.618,233.711,765.637,239.702z"/>
		</g>
	</g>
	<g>
		<g>
			<path style="fill:#FEDD1B;" d="M716.951,203.489c3.249,1.143,6.62-0.032,7.539-2.625l6.469-18.391
				c0.914-2.592-0.978-5.62-4.228-6.762l-5.815-2.046c-3.244-1.145-6.615,0.031-7.526,2.623l-6.476,18.389
				c-0.912,2.595,0.977,5.626,4.225,6.766L716.951,203.489z"/>
		</g>
	</g>
	<g>
		<g>
			<path style="fill:#FEDD1B;" d="M768.964,274.602c-1.142,3.246-4.173,5.137-6.765,4.228l-18.392-6.477
				c-2.591-0.913-3.765-4.282-2.624-7.529l2.047-5.811c1.145-3.249,4.174-5.144,6.766-4.232l18.388,6.474
				c2.595,0.912,3.769,4.286,2.625,7.533L768.964,274.602z"/>
		</g>
	</g>
	<g>
		<g>
			<path style="fill:#FEDD1B;" d="M723.908,249.275c-3.102,1.486-6.582,0.685-7.771-1.795l-8.424-17.58
				c-1.189-2.48,0.363-5.697,3.471-7.186l5.555-2.659c3.106-1.492,6.588-0.688,7.773,1.791l8.426,17.58
				c1.191,2.479-0.363,5.694-3.469,7.185L723.908,249.275z"/>
		</g>
	</g>
	<g>
		<g>
			<path style="fill:#FEDD1B;" d="M835.443,194.477c-3.106,1.486-6.586,0.688-7.773-1.793l-8.428-17.579
				c-1.185-2.481,0.366-5.695,3.474-7.183l5.555-2.665c3.104-1.486,6.586-0.684,7.773,1.795l8.425,17.58
				c1.188,2.478-0.364,5.693-3.47,7.183L835.443,194.477z"/>
		</g>
	</g>
	<g>
		<g>
			<path style="fill:#FEDD1B;" d="M787.754,267.238c-1.489-3.102-0.685-6.582,1.795-7.77l17.581-8.425
				c2.476-1.189,5.693,0.363,7.181,3.468l2.664,5.557c1.489,3.106,0.683,6.582-1.799,7.773l-17.578,8.426
				c-2.478,1.189-5.692-0.366-7.18-3.47L787.754,267.238z"/>
		</g>
	</g>
	<g>
		<g>
			<path style="fill:#FEDD1B;" d="M735.53,156.158c-1.486-3.105-0.686-6.586,1.793-7.771l17.579-8.427
				c2.479-1.19,5.695,0.366,7.184,3.47l2.666,5.556c1.485,3.105,0.685,6.584-1.795,7.773l-17.583,8.427
				c-2.478,1.186-5.692-0.368-7.183-3.472L735.53,156.158z"/>
		</g>
	</g>
	<g>
		<g>
			<path style="fill:#FEDD1B;" d="M809.755,158.719c-1.143,3.248-4.172,5.14-6.765,4.226l-18.391-6.473
				c-2.59-0.912-3.768-4.285-2.624-7.532l2.044-5.812c1.147-3.247,4.174-5.138,6.766-4.227l18.389,6.473
				c2.594,0.911,3.771,4.285,2.627,7.531L809.755,158.719z"/>
		</g>
	</g>
	<g>
		<g>
			<path style="fill:#FEDD1B;" d="M832.104,244.021c3.247,1.144,6.616-0.033,7.532-2.63l6.473-18.388
				c0.912-2.592-0.981-5.622-4.227-6.762l-5.816-2.045c-3.246-1.143-6.618,0.031-7.533,2.624l-6.469,18.387
				c-0.913,2.593,0.979,5.622,4.225,6.765L832.104,244.021z"/>
		</g>
	</g>
</g>
<g>
	<g>
		<path style="fill:#FEDD1B;" d="M129.9,578.972c23.597,9.12,39.206-3.723,43.752-7.953c4.328-4.025,8.251-9.185,11.341-15.01
			c0.24-0.448,0.237-0.871,0.101-1.186c0.101-0.191,0.174-0.418,0.188-0.681c1.111-20.028-6.075-35.619-18.313-45.756
			c-36.803-30.484-133.088-11.953-133.557-11.104C32.995,498.046,73.338,557.104,129.9,578.972z"/>
	</g>
	<g>
		<path style="fill:#FFAE0D;" d="M184.874,554.579c1.322,0.523,0.329,3.148-0.989,2.611
			c-34.313-13.981-149.132-58.761-149.217-58.805c-1.142-0.567-0.572-1.658,0.572-1.242
			C35.24,497.144,150.479,541.033,184.874,554.579z"/>
	</g>
	<g>
		<path style="fill:#FFAE0D;" d="M110.525,569.795c0.03-0.075,12.662-3.912,22.59-7.991c9.87-3.938,22.009-9.926,29.672-14.662
			c1.328-0.813,2.325,1.18,0.989,1.993c-7.762,4.806-19.629,10.688-29.234,14.573c-9.659,4.016-21.605,7.405-21.537,7.441
			C112.162,570.698,111.339,570.263,110.525,569.795z"/>
	</g>
	<g>
		<path style="fill:#FFAE0D;" d="M72.229,541.765c-0.113,0.281,37.496-8.128,46.787-12.36c0.791-0.335,1.913,1.342,1.112,1.683
			c-9.402,4.282-46.325,12.092-46.547,11.894C73.052,542.507,72.713,542.225,72.229,541.765z"/>
	</g>
	<g>
		<path style="fill:#FFAE0D;" d="M141.841,539.533c-5.184-14.381-24.795-48.219-25.006-47.696c0.795,0.058,1.211,0.13,1.83,0.181
			c0.526,0.045,19.828,32.388,25.09,46.918C144.23,540.124,142.316,540.707,141.841,539.533L141.841,539.533z"/>
	</g>
	<g>
		<path style="fill:#FFAE0D;" d="M88.369,518.802c-5.185-14.383-17.998-27.282-18.209-26.761c0.472-0.077,1.166-0.168,1.78-0.149
			c0.529,0.016,13.082,11.781,18.344,26.313C90.76,519.393,88.845,519.974,88.369,518.802L88.369,518.802z"/>
	</g>
</g>
<g>
	<g>
		<path style="fill:#4DC8BD;" d="M102.461,539.415c17.99,34.727,48.739,35.473,58.184,35.111c8.988-0.342,18.644-2.426,28.007-6.143
			c0.722-0.285,1.143-0.783,1.301-1.296c0.306-0.123,0.612-0.317,0.894-0.609c21.273-22.451,28.585-48.112,24.651-72.489
			C203.669,420.688,74.598,344.634,73.215,345.157C71.971,345.631,59.338,456.175,102.461,539.415z"/>
	</g>
	<g>
		<path style="fill:#064D67;" d="M189.941,566.58c0.997,1.957-2.764,4.038-3.742,2.067C160.75,517.308,73.607,347.871,73.556,347.73
			c-0.747-1.827,0.997-2.534,1.894-0.878C75.449,346.853,163.965,515.665,189.941,566.58z"/>
	</g>
	<g>
		<path style="fill:#064D67;" d="M89.374,508.919c0.11-0.058,18.447,8.262,33.919,13.552c15.267,5.4,35.183,10.685,48.711,12.898
			c2.335,0.396,1.492,3.752-0.851,3.353c-13.714-2.232-33.214-7.371-48.123-12.56c-15.101-5.091-32.204-13.241-32.163-13.127
			C90.349,511.645,89.84,510.294,89.374,508.919z"/>
	</g>
	<g>
		<path style="fill:#064D67;" d="M73.38,436.985c-0.409,0.217,51.173,28.548,66.066,33.008c1.243,0.407,0.858,3.522-0.399,3.111
			c-15.074-4.516-65.273-32.853-65.328-33.313C73.584,438.694,73.478,438.021,73.38,436.985z"/>
	</g>
	<g>
		<path style="fill:#064D67;" d="M155.548,505.119c8.4-22.201,19.662-81.976,18.901-81.574c0.854,0.876,1.26,1.384,1.92,2.073
			c0.563,0.584-9.563,58.285-18.03,80.743C157.699,508.245,154.921,506.984,155.548,505.119L155.548,505.119z"/>
	</g>
	<g>
		<path style="fill:#064D67;" d="M114.84,426.356c8.405-22.202,6.569-50.416,5.806-50.016c0.619,0.385,1.507,0.984,2.194,1.633
			c0.59,0.557,3.261,27.167-5.207,49.624C116.992,429.481,114.215,428.222,114.84,426.356L114.84,426.356z"/>
	</g>
</g>
<g>
	<g>
		<path style="fill:#4DC8BD;" d="M1487.923,157.449c10.22,20.855,28.465,21.707,34.077,21.618c5.34-0.083,11.102-1.193,16.709-3.275
			c0.432-0.16,0.688-0.45,0.789-0.752c0.184-0.069,0.368-0.181,0.539-0.35c12.927-13.046,17.608-28.185,15.597-42.709
			c-6.05-43.675-81.669-90.54-82.497-90.248C1472.393,41.998,1463.426,107.459,1487.923,157.449z"/>
	</g>
	<g>
		<path style="fill:#064D67;" d="M1539.498,174.738c0.566,1.175-1.693,2.36-2.249,1.178
			c-14.427-30.818-63.915-132.567-63.943-132.65c-0.42-1.096,0.626-1.492,1.136-0.497
			C1474.441,42.769,1524.752,144.165,1539.498,174.738z"/>
	</g>
	<g>
		<path style="fill:#064D67;" d="M1480.559,139.17c0.065-0.033,10.842,5.15,19.957,8.497c8.992,3.408,20.745,6.809,28.748,8.304
			c1.381,0.265,0.835,2.247-0.551,1.979c-8.111-1.507-19.62-4.816-28.403-8.095c-8.896-3.223-18.942-8.289-18.92-8.221
			C1481.101,140.802,1480.816,139.994,1480.559,139.17z"/>
	</g>
	<g>
		<path style="fill:#064D67;" d="M1472.017,96.252c-0.245,0.124,30.002,17.628,38.785,20.473c0.733,0.259,0.463,2.103-0.278,1.842
			c-8.891-2.88-38.316-20.371-38.343-20.644C1472.115,97.27,1472.061,96.868,1472.017,96.252z"/>
	</g>
	<g>
		<path style="fill:#064D67;" d="M1519.895,137.794c5.282-13.069,12.762-48.407,12.305-48.179c0.495,0.531,0.729,0.838,1.112,1.256
			c0.325,0.354-6.451,34.476-11.776,47.697C1521.131,139.677,1519.497,138.892,1519.895,137.794L1519.895,137.794z"/>
	</g>
	<g>
		<path style="fill:#064D67;" d="M1496.771,90.492c5.285-13.07,4.569-29.844,4.11-29.617c0.363,0.237,0.882,0.605,1.282,0.999
			c0.343,0.338,1.575,16.172-3.751,29.392C1498.009,92.377,1496.377,91.592,1496.771,90.492L1496.771,90.492z"/>
	</g>
</g>
<g>
	<g>
		<g>
			<path style="fill:#FFAE0D;" d="M1523.676,274.853c-34.469-16.105-49.408-57.25-33.304-91.717
				c16.104-34.468,57.251-49.407,91.718-33.305c34.447,16.107,49.385,57.25,33.281,91.718
				C1599.289,276.019,1558.145,290.957,1523.676,274.853z M1536.601,247.189c19.215,8.979,42.153,0.653,51.132-18.563
				c8.979-19.217,0.65-42.155-18.566-51.133c-19.216-8.977-42.152-0.649-51.132,18.566
				C1509.056,215.275,1517.384,238.213,1536.601,247.189z"/>
		</g>
	</g>
	<g>
		<g>
			<path style="fill:#FFAE0D;" d="M1483.842,199.19c3.667,1.712,7.748,0.727,9.116-2.2l9.701-20.762
				c1.368-2.926-0.495-6.687-4.161-8.402l-6.564-3.066c-3.666-1.714-7.748-0.729-9.115,2.2l-9.702,20.76
				c-1.366,2.928,0.496,6.691,4.163,8.403L1483.842,199.19z"/>
		</g>
	</g>
	<g>
		<g>
			<path style="fill:#FFAE0D;" d="M1536.453,288.401c-1.713,3.666-5.477,5.53-8.405,4.161l-20.763-9.699
				c-2.928-1.369-3.91-5.449-2.198-9.116l3.066-6.565c1.715-3.665,5.476-5.529,8.403-4.162l20.762,9.701
				c2.928,1.367,3.914,5.449,2.199,9.117L1536.453,288.401z"/>
		</g>
	</g>
	<g>
		<g>
			<path style="fill:#FFAE0D;" d="M1486.68,253.557c-3.803,1.381-7.78,0.037-8.885-2.998l-7.82-21.541
				c-1.104-3.038,1.084-6.621,4.89-8.001l6.811-2.472c3.804-1.383,7.78-0.039,8.884,2.997l7.822,21.543
				c1.102,3.036-1.086,6.618-4.892,8L1486.68,253.557z"/>
		</g>
	</g>
	<g>
		<g>
			<path style="fill:#FFAE0D;" d="M1623.474,202.363c-3.805,1.383-7.78,0.041-8.879-2.998l-7.812-21.539
				c-1.101-3.038,1.084-6.62,4.881-8.001l6.803-2.471c3.808-1.383,7.783-0.04,8.887,2.997l7.818,21.539
				c1.104,3.038-1.083,6.62-4.89,8.001L1623.474,202.363z"/>
		</g>
	</g>
	<g>
		<g>
			<path style="fill:#FFAE0D;" d="M1559.286,281.965c-1.383-3.804-0.04-7.78,2.998-8.884l21.541-7.82
				c3.036-1.105,6.619,1.085,8.001,4.889l2.472,6.81c1.382,3.803,0.037,7.78-2.998,8.884l-21.541,7.822
				c-3.038,1.104-6.619-1.086-8.002-4.89L1559.286,281.965z"/>
		</g>
	</g>
	<g>
		<g>
			<path style="fill:#FFAE0D;" d="M1511.052,145.972c-1.381-3.804-0.037-7.781,3-8.884l21.542-7.821c3.036-1.105,6.618,1.088,8,4.89
				l2.473,6.81c1.381,3.804,0.038,7.781-2.998,8.884l-21.542,7.822c-3.038,1.101-6.62-1.087-8.001-4.891L1511.052,145.972z"/>
		</g>
	</g>
	<g>
		<g>
			<path style="fill:#FFAE0D;" d="M1597.587,157.562c-1.713,3.666-5.475,5.529-8.405,4.162l-20.762-9.702
				c-2.928-1.368-3.911-5.448-2.199-9.115l3.068-6.563c1.711-3.665,5.475-5.529,8.4-4.161l20.765,9.701
				c2.926,1.366,3.911,5.448,2.198,9.115L1597.587,157.562z"/>
		</g>
	</g>
	<g>
		<g>
			<path style="fill:#FFAE0D;" d="M1613.835,259.935c3.661,1.714,7.741,0.73,9.11-2.199l9.701-20.762
				c1.368-2.927-0.497-6.689-4.163-8.402l-6.561-3.067c-3.668-1.714-7.744-0.729-9.109,2.199l-9.687,20.763
				c-1.366,2.927,0.493,6.689,4.153,8.404L1613.835,259.935z"/>
		</g>
	</g>
</g>
<g>
	<g>
		<g>
			<path style="fill:#FFAE0D;" d="M435.511,424.109c-41.643-19.458-59.692-69.167-40.235-110.847
				c19.456-41.642,69.168-59.691,110.809-40.236c41.617,19.459,59.664,69.205,40.209,110.848
				C526.863,425.519,477.155,443.564,435.511,424.109z M451.126,390.689c23.215,10.848,50.928,0.788,61.775-22.428
				c10.848-23.217,0.785-50.966-22.432-61.814c-23.216-10.844-50.927-0.784-61.774,22.446
				C417.848,352.131,427.91,379.843,451.126,390.689z"/>
		</g>
	</g>
	<g>
		<g>
			<path style="fill:#FFAE0D;" d="M387.387,332.681c4.43,2.073,9.36,0.879,11.013-2.662l11.722-25.102
				c1.651-3.535-0.6-8.079-5.028-10.151l-7.931-3.705c-4.429-2.071-9.36-0.88-11.012,2.658L374.429,318.8
				c-1.651,3.542,0.6,8.096,5.028,10.169L387.387,332.681z"/>
		</g>
	</g>
	<g>
		<g>
			<path style="fill:#FFAE0D;" d="M450.947,440.478c-2.068,4.43-6.615,6.68-10.154,5.026l-25.084-11.718
				c-3.536-1.654-4.725-6.583-2.656-11.014l3.705-7.93c2.072-4.429,6.615-6.681,10.152-5.028l25.083,11.72
				c3.538,1.652,4.729,6.584,2.657,11.015L450.947,440.478z"/>
		</g>
	</g>
	<g>
		<g>
			<path style="fill:#FFAE0D;" d="M390.815,398.38c-4.594,1.668-9.399,0.045-10.733-3.621l-9.448-26.025
				c-1.334-3.67,1.311-7.998,5.907-9.666l8.228-2.986c4.596-1.672,9.4-0.048,10.733,3.62l9.45,26.026
				c1.331,3.669-1.311,7.996-5.909,9.666L390.815,398.38z"/>
		</g>
	</g>
	<g>
		<g>
			<path style="fill:#FFAE0D;" d="M556.082,336.522c-4.598,1.674-9.4,0.05-10.729-3.628l-9.438-26.044
				c-1.329-3.671,1.31-7.997,5.898-9.665l8.218-2.985c4.6-1.671,9.403-0.048,10.736,3.622l9.446,26.029
				c1.334,3.677-1.31,8.012-5.908,9.685L556.082,336.522z"/>
		</g>
	</g>
	<g>
		<g>
			<path style="fill:#FFAE0D;" d="M478.533,432.701c-1.67-4.595-0.048-9.399,3.622-10.732l26.024-9.449
				c3.668-1.334,7.998,1.311,9.666,5.906l2.986,8.229c1.67,4.595,0.045,9.4-3.622,10.732l-26.024,9.451
				c-3.671,1.334-7.997-1.314-9.668-5.908L478.533,432.701z"/>
		</g>
	</g>
	<g>
		<g>
			<path style="fill:#FFAE0D;" d="M420.26,268.364c-1.668-4.596-0.045-9.4,3.625-10.733l26.024-9.449
				c3.668-1.335,7.997,1.314,9.665,5.908l2.987,8.227c1.67,4.596,0.046,9.4-3.622,10.733l-26.024,9.45
				c-3.671,1.331-7.999-1.314-9.667-5.909L420.26,268.364z"/>
		</g>
	</g>
	<g>
		<g>
			<path style="fill:#FFAE0D;" d="M524.807,282.366c-2.069,4.43-6.616,6.68-10.156,5.028l-25.082-11.72
				c-3.537-1.653-4.725-6.583-2.656-11.013l3.707-7.928c2.066-4.429,6.613-6.68,10.147-5.027l25.087,11.719
				c3.535,1.65,4.727,6.583,2.656,11.012L524.807,282.366z"/>
		</g>
	</g>
	<g>
		<g>
			<path style="fill:#FFAE0D;" d="M544.437,406.087c4.423,2.07,9.353,0.881,11.007-2.656l11.719-25.084
				c1.653-3.537-0.599-8.082-5.028-10.152l-7.927-3.705c-4.432-2.07-9.355-0.88-11.005,2.656l-11.703,25.086
				c-1.65,3.535,0.597,8.08,5.019,10.152L544.437,406.087z"/>
		</g>
	</g>
</g>
<g style="opacity:0.3;">
	<path style="fill:#B1E0EB;" d="M398.923,223.871c-5.581-3.502-11.036-4.805-17.141-6.054c-6.471-1.32-10.293-8.808-12.646-15.634
		c-2.737-7.93-4.613-16.631-9.185-23.41c-5.032-7.456-12.647-11.833-20.553-12.477c-6.573-0.536-11.564,4.272-16.638,8.55
		c-6.998,5.895-15.349,8.493-23.318,3.817c-6.918-4.058-12.501-11.117-20.113-13.526c-9.553-3.025-19.51,0.641-29.143,0.888
		c-17.781,0.461-27.262-18.484-35.161-34.763c-7.008-14.452-15.244-26.938-29.504-30.475c-13.87-3.443-28.826-4.221-41.602,4.315
		c-10.499,7.015-16.527,20.165-18.099,34.241c-1.185,10.615-0.002,21.404,2.287,31.697c-9.088,0.851-22.506-1.944-26.289,10.893
		c-0.796,2.704-0.955,5.643-1.91,8.282c-1.16,3.21-3.412,4.236-6.001,5.03c-4.91,1.506-6.933,3.976-8.29,9.899
		c-5.443,23.732,15.531,46.06,33.893,45.287c0.821-0.034,1.35-0.6,1.593-1.311c46.588,0.117,93.154,2.51,139.741,2.631
		c21.405,0.057,42.753,2.708,64.174,2.708c16.325,0,33.047-0.715,48.978-5.385c10.129-2.963,23.218-8.837,25.76-22.717
		C399.93,225.425,399.665,224.34,398.923,223.871z"/>
</g>
<g>
	<g>
		<path style="fill:#7866C0;" d="M834.51,243.88c-4.079,29.565,14.897,44.008,20.987,48.081c5.795,3.878,12.78,6.986,20.307,8.954
			c0.578,0.153,1.063,0.038,1.389-0.207c0.248,0.064,0.528,0.085,0.832,0.031c23.298-4.15,39.251-16.625,47.574-33.424
			c25.027-50.516-22.343-156.046-23.443-156.351C901.165,110.688,844.287,173.013,834.51,243.88z"/>
	</g>
	<g>
		<path style="fill:#35126F;" d="M877.412,300.392c-0.241,1.657-3.522,1.229-3.266-0.431
			c6.754-43.186,27.055-187.149,27.084-187.258c0.341-1.465,1.747-1.107,1.579,0.321
			C902.81,113.024,883.646,257.228,877.412,300.392z"/>
	</g>
	<g>
		<path style="fill:#35126F;" d="M839.796,219.15c0.094,0.015,7.925,13.477,15.297,23.772c7.195,10.265,17.359,22.577,24.873,30.093
			c1.293,1.306-0.724,2.989-2.018,1.679c-7.619-7.611-17.589-19.642-24.654-29.62c-7.227-10.002-14.358-22.8-14.38-22.71
			C839.2,221.273,839.479,220.21,839.796,219.15z"/>
	</g>
	<g>
		<path style="fill:#35126F;" d="M861.602,167.584c-0.353-0.054,19.493,40.848,26.87,50.367c0.599,0.819-1.023,2.561-1.631,1.734
			c-7.464-9.633-26.437-49.913-26.27-50.22C860.972,168.727,861.205,168.264,861.602,167.584z"/>
	</g>
	<g>
		<path style="fill:#35126F;" d="M883.026,246.904c15.107-9.849,48.643-41.535,47.988-41.636c0.147,0.93,0.179,1.428,0.287,2.15
			c0.094,0.616-31.811,31.542-47.071,41.519C882.995,249.808,881.81,247.769,883.026,246.904L883.026,246.904z"/>
	</g>
	<g>
		<path style="fill:#35126F;" d="M892.343,179.894c15.106-9.85,26.444-28.06,25.789-28.158c0.217,0.518,0.51,1.292,0.654,2.003
			c0.123,0.61-9.982,18.211-25.241,28.188C892.31,182.796,891.123,180.756,892.343,179.894L892.343,179.894z"/>
	</g>
</g>
<g>
	<g>
		<path style="fill:#4DC8BD;" d="M785.481,302.407c11.984,34.185,40.084,38.864,48.791,39.761
			c8.288,0.855,17.413,0.199,26.482-1.993c0.699-0.167,1.149-0.57,1.361-1.02c0.297-0.072,0.604-0.21,0.898-0.442
			c22.427-17.824,32.467-40.406,32.028-63.271c-1.319-68.758-109.796-155.278-111.134-154.978
			C782.707,120.738,756.754,220.469,785.481,302.407z"/>
	</g>
	<g>
		<path style="fill:#064D67;" d="M862.172,338.689c0.66,1.924-3.06,3.344-3.7,1.411c-16.665-50.39-74.556-217.095-74.585-217.23
			c-0.446-1.774,1.244-2.194,1.852-0.56C785.738,122.31,844.969,288.623,862.172,338.689z"/>
	</g>
	<g>
		<path style="fill:#064D67;" d="M777.442,272.74c0.108-0.039,15.843,9.975,29.343,16.836c13.299,6.936,30.875,14.371,42.993,18.16
			c2.091,0.665,0.881,3.635-1.216,2.964c-12.285-3.83-29.498-11.077-42.498-17.774c-13.186-6.63-27.811-16.328-27.787-16.218
			C777.982,275.368,777.69,274.063,777.442,272.74z"/>
	</g>
	<g>
		<path style="fill:#064D67;" d="M772.126,204.697c-0.405,0.145,43.215,32.828,56.294,38.855c1.087,0.537,0.328,3.343-0.771,2.802
			c-13.236-6.1-55.586-38.612-55.578-39.04C772.09,206.289,772.079,205.659,772.126,204.697z"/>
	</g>
	<g>
		<path style="fill:#064D67;" d="M838.619,277.857c10.591-19.268,28.687-72.619,27.937-72.351c0.67,0.916,0.976,1.433,1.491,2.151
			c0.439,0.609-16.345,52.207-27.029,71.701C840.187,281.003,837.803,279.486,838.619,277.857L838.619,277.857z"/>
	</g>
	<g>
		<path style="fill:#064D67;" d="M811.527,200.337c10.594-19.268,12.576-45.379,11.824-45.111c0.518,0.434,1.254,1.099,1.8,1.783
			c0.469,0.586-0.54,25.335-11.225,44.83C813.096,203.483,810.712,201.967,811.527,200.337L811.527,200.337z"/>
	</g>
</g>
<g style="opacity:0.3;">
	<path style="fill:#B1E0EB;" d="M478.753,124.992c1.357,7.401,8.34,10.534,13.74,12.114c8.494,2.491,17.412,2.871,26.118,2.872
		c11.425,0,22.808-1.414,34.224-1.444c24.847-0.065,49.676-1.341,74.521-1.402c0.133,0.379,0.414,0.68,0.85,0.699
		c9.793,0.412,20.98-11.496,18.076-24.152c-0.725-3.159-1.803-4.476-4.423-5.279c-1.379-0.423-2.579-0.97-3.199-2.684
		c-0.511-1.405-0.593-2.974-1.019-4.417c-2.018-6.845-9.173-5.355-14.02-5.807c1.221-5.491,1.852-11.244,1.221-16.905
		c-0.838-7.507-4.053-14.521-9.653-18.26c-6.814-4.553-14.79-4.137-22.187-2.303c-7.604,1.887-11.994,8.547-15.732,16.253
		c-4.213,8.682-9.27,18.786-18.752,18.539c-5.137-0.131-10.447-2.086-15.542-0.474c-4.058,1.286-7.037,5.048-10.726,7.215
		c-4.249,2.493-8.701,1.107-12.434-2.037c-2.706-2.282-5.369-4.845-8.875-4.561c-4.215,0.343-8.275,2.678-10.959,6.655
		c-2.44,3.613-3.441,8.253-4.898,12.484c-1.256,3.64-3.295,7.632-6.744,8.336c-3.256,0.666-6.164,1.36-9.142,3.229
		C478.802,123.915,478.663,124.495,478.753,124.992z"/>
</g>
<g style="opacity:0.3;">
	<path style="fill:#B1E0EB;" d="M1217.324,165.836c-5.3-3.326-10.479-4.563-16.276-5.748c-6.145-1.254-9.773-8.364-12.008-14.846
		c-2.599-7.53-4.381-15.792-8.723-22.229c-4.778-7.08-12.009-11.236-19.516-11.847c-6.242-0.509-10.98,4.057-15.799,8.119
		c-6.645,5.598-14.574,8.065-22.143,3.625c-6.568-3.854-11.87-10.556-19.099-12.844c-9.07-2.873-18.525,0.608-27.673,0.843
		c-16.884,0.438-25.887-17.551-33.387-33.009c-6.654-13.723-14.476-25.579-28.017-28.938c-13.171-3.269-27.372-4.008-39.503,4.098
		c-9.97,6.661-15.693,19.147-17.186,32.514c-1.126,10.08-0.002,20.325,2.172,30.099c-8.63,0.808-21.371-1.846-24.964,10.343
		c-0.756,2.568-0.907,5.359-1.813,7.864c-1.102,3.048-3.24,4.023-5.698,4.776c-4.663,1.43-6.583,3.775-7.872,9.399
		c-5.169,22.536,14.748,43.737,32.184,43.003c0.779-0.032,1.281-0.569,1.512-1.245c44.238,0.111,88.456,2.383,132.693,2.498
		c20.326,0.054,40.597,2.571,60.938,2.571c15.502,0,31.38-0.679,46.507-5.113c9.618-2.813,22.047-8.391,24.461-21.571
		C1218.28,167.313,1218.028,166.283,1217.324,165.836z"/>
</g>
<g style="opacity:0.3;">
	<path style="fill:#B1E0EB;" d="M1474.455,201.72c1.739,9.485,10.687,13.499,17.606,15.525c10.887,3.19,22.313,3.678,33.471,3.68
		c14.64,0,29.228-1.812,43.856-1.851c31.838-0.083,63.657-1.718,95.497-1.797c0.168,0.486,0.528,0.874,1.088,0.896
		c12.549,0.527,26.886-14.73,23.163-30.95c-0.928-4.046-2.311-5.735-5.667-6.764c-1.77-0.543-3.307-1.243-4.102-3.438
		c-0.652-1.802-0.759-3.811-1.306-5.659c-2.584-8.772-11.753-6.863-17.964-7.443c1.565-7.035,2.372-14.409,1.563-21.662
		c-1.074-9.62-5.193-18.607-12.369-23.4c-8.73-5.834-18.953-5.302-28.431-2.95c-9.745,2.417-15.372,10.951-20.162,20.827
		c-5.397,11.125-11.878,24.073-24.03,23.758c-6.581-0.17-13.387-2.675-19.916-0.607c-5.2,1.646-9.017,6.469-13.744,9.244
		c-5.444,3.196-11.151,1.419-15.932-2.609c-3.469-2.923-6.882-6.209-11.374-5.843c-5.401,0.44-10.604,3.43-14.044,8.527
		c-3.127,4.631-4.408,10.578-6.275,15.998c-1.61,4.665-4.223,9.782-8.644,10.684c-4.172,0.852-7.899,1.743-11.712,4.138
		C1474.518,200.34,1474.339,201.083,1474.455,201.72z"/>
</g>
<g>
	<rect x="1443.904" y="194.561" style="fill:#FEDD1B;" width="98.869" height="285.382"/>
	<polygon style="fill:#FFAE0D;" points="1531.334,156.561 1455.344,232.551 1386.32,115.405 1414.182,87.54 	"/>
	<path style="fill:#F29700;" d="M1490.299,132.386l41.035,24.175l-75.99,75.99l-24.182-41.037
		C1432.719,159.581,1458.363,133.935,1490.299,132.386z"/>
	<path style="fill:#FFAE0D;" d="M1542.774,232.376c-11.402,14.869-29.291,24.516-49.434,24.516
		c-20.145,0-38.035-9.647-49.436-24.516v-37.815h98.869V232.376z"/>
	<path style="fill:#7866C0;" d="M1493.34,140.828c29.674,0,53.732,24.054,53.732,53.733s-24.059,53.733-53.732,53.733
		c-29.676,0-53.734-24.054-53.734-53.733S1463.664,140.828,1493.34,140.828z"/>
	<path style="fill:#3A1053;" d="M1493.34,153.724c22.516,0,40.836,18.319,40.836,40.837c0,22.517-18.32,40.838-40.836,40.838
		c-22.52,0-40.838-18.321-40.838-40.838C1452.502,172.044,1470.82,153.724,1493.34,153.724z"/>
	<path style="fill:#FEDD1B;" d="M1434.387,479.943h117.908c4.746,0,8.596,3.846,8.596,8.597v15.818h-135.1V488.54
		C1425.791,483.789,1429.639,479.943,1434.387,479.943z"/>
	<rect x="1425.791" y="495.761" style="fill:#FFAE0D;" width="135.1" height="8.598"/>
	<path style="fill:#3A1053;" d="M1415.514,504.358h155.654c4.746,0,8.596,3.846,8.596,8.596v15.819h-172.848v-15.819
		C1406.916,508.204,1410.766,504.358,1415.514,504.358z"/>
	<polygon style="fill:#FEDD1B;" points="1339.1,236.955 1342.902,250.545 1346.705,236.955 1396.338,256.576 1403.063,259.23 
		1402.617,264.854 1398.65,314.878 1389.387,314.878 1386.002,272.16 1342.902,264.783 1299.807,272.16 1296.42,314.878 
		1287.154,314.878 1283.189,264.854 1282.748,259.23 1289.473,256.576 	"/>
	<g>
		<path style="fill:#F29700;" d="M1383.807,251.623l12.531,4.953l6.725,2.654l-0.445,5.624l-1.188,14.982
			c-2.244,1.117-4.738,1.802-7.41,1.802c-2.672,0-5.164-0.685-7.408-1.802l-0.609-7.677l-7.609-1.303
			c-0.723-1.872-1.16-3.883-1.16-6.003C1377.232,259.456,1379.838,254.696,1383.807,251.623z"/>
		<path style="fill:#F29700;" d="M1302.002,251.623c3.971,3.073,6.574,7.833,6.574,13.231c0,2.12-0.434,4.131-1.158,6.003
			l-7.611,1.303l-0.607,7.677c-2.244,1.117-4.74,1.802-7.41,1.802c-2.674,0-5.166-0.685-7.41-1.802l-1.189-14.982l-0.441-5.624
			l6.725-2.654L1302.002,251.623z"/>
		<path style="fill:#F29700;" d="M1339.1,236.955l3.803,13.591l3.803-13.591l21.479,8.495c0.332,1.648,0.51,3.354,0.51,5.098
			c0,6.745-2.619,12.87-6.873,17.472l-18.918-3.236l-18.918,3.236c-4.25-4.602-6.873-10.727-6.873-17.472
			c0-1.745,0.178-3.45,0.512-5.098L1339.1,236.955z"/>
	</g>
	<path style="fill:#7866C0;" d="M1291.789,252.363c6.898,0,12.488,5.59,12.488,12.491c0,6.893-5.59,12.484-12.488,12.484
		c-6.896,0-12.488-5.592-12.488-12.484C1279.301,257.953,1284.893,252.363,1291.789,252.363z"/>
	<path style="fill:#3A1053;" d="M1291.789,256.804c4.441,0,8.053,3.608,8.053,8.05c0,4.433-3.611,8.052-8.053,8.052
		s-8.051-3.619-8.051-8.052C1283.738,260.413,1287.348,256.804,1291.789,256.804z"/>
	<g>
		<g>
			<path style="fill:#7866C0;" d="M1394.02,252.363c6.898,0,12.49,5.59,12.49,12.491c0,6.893-5.592,12.484-12.49,12.484
				c-6.897,0-12.488-5.592-12.488-12.484C1381.531,257.953,1387.123,252.363,1394.02,252.363z"/>
			<path style="fill:#3A1053;" d="M1394.02,256.804c4.443,0,8.053,3.608,8.053,8.05c0,4.433-3.609,8.052-8.053,8.052
				c-4.442,0-8.051-3.619-8.051-8.052C1385.969,260.413,1389.578,256.804,1394.02,256.804z"/>
		</g>
	</g>
	<rect x="1325.707" y="171.717" style="fill:#FFAE0D;" width="34.391" height="78.831"/>
	<path style="fill:#F29700;" d="M1360.098,190.888c-4.572,4.102-10.586,6.62-17.195,6.62s-12.627-2.518-17.195-6.62v-19.171h34.391
		V190.888z"/>
	<path style="fill:#F29700;" d="M1360.098,231.376v19.172h-34.391v-19.172c4.568-4.101,10.586-6.621,17.195-6.621
		S1355.525,227.275,1360.098,231.376z"/>
	<path style="fill:#7866C0;" d="M1342.902,229.053c11.871,0,21.494,9.624,21.494,21.494c0,11.873-9.623,21.493-21.494,21.493
		c-11.871,0-21.492-9.62-21.492-21.493C1321.41,238.677,1331.031,229.053,1342.902,229.053z"/>
	<path style="fill:#3A1053;" d="M1342.902,236.687c7.645,0,13.855,6.221,13.855,13.86c0,7.64-6.211,13.854-13.855,13.854
		c-7.641,0-13.855-6.214-13.855-13.854C1329.047,242.908,1335.262,236.687,1342.902,236.687z"/>
	
		<rect x="1329.601" y="121.714" transform="matrix(0.6831 -0.7303 0.7303 0.6831 331.6384 1046.4042)" style="fill:#FFAE0D;" width="83.955" height="38.69"/>
	<path style="fill:#F29700;" d="M1414.381,123.617l-19.389,20.729c-13.986-2.163-25.205-12.744-28.271-26.409l19.404-20.751
		L1414.381,123.617z"/>
	<path style="fill:#F29700;" d="M1432.385,98.265c1.434,3.778,2.254,7.859,2.254,12.137c0,17.854-13.676,32.563-31.102,34.221
		l-17.217-29.218l27.861-27.865L1432.385,98.265z"/>
	
		<ellipse transform="matrix(0.9999 -0.0151 0.0151 0.9999 -1.5116 21.2217)" style="fill:#7866C0;" cx="1400.25" cy="110.402" rx="30.09" ry="30.091"/>
	<path style="fill:#3A1053;" d="M1400.25,90.033c11.234,0,20.371,9.135,20.371,20.369c0,11.234-9.137,20.368-20.371,20.368
		s-20.369-9.134-20.369-20.368C1379.881,99.168,1389.016,90.033,1400.25,90.033z"/>
	<path style="fill:#F29700;" d="M1342.902,145.924c14.223,0,25.791,11.569,25.791,25.792c0,0.264-0.031,0.524-0.039,0.789
		l-11.623,12.426l-28.254-26.43l11.643-12.452C1341.24,145.971,1342.066,145.924,1342.902,145.924z"/>
	<path style="fill:#7866C0;" d="M1342.902,150.223c11.871,0,21.494,9.622,21.494,21.494c0,11.871-9.623,21.493-21.494,21.493
		c-11.871,0-21.492-9.622-21.492-21.493C1321.41,159.845,1331.031,150.223,1342.902,150.223z"/>
	<path style="fill:#3A1053;" d="M1342.902,157.855c7.645,0,13.855,6.221,13.855,13.862c0,7.64-6.211,13.853-13.855,13.853
		c-7.641,0-13.855-6.213-13.855-13.853C1329.047,164.076,1335.262,157.855,1342.902,157.855z"/>
	<rect x="1443.904" y="471.346" style="fill:#FFAE0D;" width="98.869" height="8.598"/>
</g>
<g>
	<rect x="801.04" y="303.753" style="fill:#FEDD1B;" width="107.563" height="179.303"/>
	<polygon style="fill:#FEDD1B;" points="854.853,248.492 920.586,314.215 980.289,212.893 956.188,188.789 	"/>
	<path style="fill:#F29700;" d="M858.163,246.28l-44.713,26.341l82.803,82.795l26.347-44.712
		C920.906,275.912,892.96,247.968,858.163,246.28z"/>
	<path style="fill:#FFAE0D;" d="M800.985,355.227c12.424,16.201,31.918,26.713,53.865,26.713c21.951,0,41.441-10.512,53.865-26.713
		V314.02h-107.73V355.227z"/>
	<path style="fill:#7866C0;" d="M854.851,255.479c-32.332,0-58.549,26.21-58.549,58.541c0,32.341,26.217,58.552,58.549,58.552
		c32.336,0,58.551-26.211,58.551-58.552C913.401,281.689,887.187,255.479,854.851,255.479z"/>
	<path style="fill:#3A1053;" d="M854.851,269.53c-24.533,0-44.494,19.961-44.494,44.49c0,24.538,19.961,44.5,44.494,44.5
		c24.537,0,44.498-19.962,44.498-44.5C899.349,289.492,879.388,269.53,854.851,269.53z"/>
	<path style="fill:#FEDD1B;" d="M912.47,483.057H797.06c-4.646,0-8.416,3.326-8.416,7.436v13.683h132.241v-13.683
		C920.885,486.383,917.116,483.057,912.47,483.057z"/>
	<rect x="788.644" y="496.738" style="fill:#FFAE0D;" width="132.241" height="7.437"/>
	<path style="fill:#3A1053;" d="M930.943,504.175H778.585c-4.647,0-8.414,3.327-8.414,7.436v13.683h169.19V511.61
		C939.361,507.502,935.592,504.175,930.943,504.175z"/>
	<polygon style="fill:#FEDD1B;" points="1103.5,222.833 1113.305,230.103 1101.15,228.98 1101.672,275.141 1101.738,281.394 
		1106.422,282.772 1148.07,295.021 1150.932,287.535 1117.457,271.604 1124.811,234.501 1144.08,201.961 1179.646,212.42 
		1182.51,204.934 1143.309,186.278 1138.902,184.183 1134.682,188.795 	"/>
	<g>
		<path style="fill:#F29700;" d="M1101.541,263.486l0.131,11.655l0.066,6.253l4.684,1.378l12.473,3.669
			c1.596-1.468,2.92-3.274,3.744-5.431c0.824-2.159,1.043-4.386,0.832-6.545l-6.014-2.862l1.297-6.552
			c-1.289-1.163-2.779-2.136-4.492-2.79C1109.9,260.595,1105.25,261.228,1101.541,263.486z"/>
		<path style="fill:#F29700;" d="M1126.809,197.39c1.258,4.158,4.299,7.731,8.66,9.399c1.713,0.655,3.471,0.926,5.209,0.918
			l3.402-5.746l6.391,1.879c1.596-1.468,2.92-3.273,3.744-5.43c0.826-2.161,1.043-4.386,0.834-6.544l-11.74-5.587l-4.406-2.095
			l-4.221,4.612L1126.809,197.39z"/>
		<path style="fill:#F29700;" d="M1103.5,222.833l9.805,7.27l-12.154-1.123l0.229,19.976c1.23,0.777,2.553,1.449,3.963,1.988
			c5.449,2.083,11.207,1.858,16.238-0.157l3.23-16.286l8.457-14.284c-2.406-4.856-6.547-8.866-11.994-10.95
			c-1.41-0.539-2.842-0.923-4.277-1.162L1103.5,222.833z"/>
	</g>
	<path style="fill:#7866C0;" d="M1130.563,189.367c-2.131,5.574,0.658,11.817,6.232,13.95c5.57,2.128,11.814-0.661,13.947-6.235
		c2.127-5.572-0.662-11.817-6.232-13.946C1138.936,181.003,1132.689,183.795,1130.563,189.367z"/>
	<path style="fill:#3A1053;" d="M1134.149,190.74c-1.371,3.587,0.43,7.62,4.017,8.991c3.582,1.37,7.619-0.431,8.994-4.019
		c1.373-3.589-0.439-7.623-4.018-8.994C1139.551,185.349,1135.524,187.15,1134.149,190.74z"/>
	<g>
		<g>
			<path style="fill:#7866C0;" d="M1100.775,269.253c-3.258,4.997-1.85,11.69,3.15,14.951c4.994,3.257,11.688,1.847,14.945-3.15
				c3.26-4.999,1.85-11.691-3.145-14.947C1110.727,262.846,1104.035,264.255,1100.775,269.253z"/>
			<path style="fill:#3A1053;" d="M1103.992,271.353c-2.096,3.217-1.189,7.538,2.029,9.636c3.213,2.095,7.539,1.188,9.639-2.029
				c2.098-3.219,1.182-7.544-2.029-9.639C1110.414,267.222,1106.094,268.134,1103.992,271.353z"/>
		</g>
	</g>
	
		<rect x="1070.282" y="177.343" transform="matrix(0.5462 -0.8376 0.8376 0.5462 315.3174 1004.9216)" style="fill:#FEDD1B;" width="29.747" height="68.188"/>
	<path style="fill:#F29700;" d="M1062.363,214.331c5.131-1.373,9.799-4.542,12.922-9.332c3.121-4.788,4.139-10.338,3.326-15.586
		l-13.891-9.058l-16.248,24.918L1062.363,214.331z"/>
	<path style="fill:#F29700;" d="M1091.699,233.46l13.891,9.058l16.248-24.917l-13.891-9.059c-5.131,1.374-9.799,4.543-12.922,9.331
		C1091.902,222.663,1090.887,228.211,1091.699,233.46z"/>
	<path style="fill:#7866C0;" d="M1098.141,219.904c-5.609,8.603-3.183,20.121,5.418,25.729c8.604,5.61,20.119,3.185,25.729-5.418
		c5.608-8.601,3.184-20.118-5.418-25.727C1115.268,208.879,1103.748,211.304,1098.141,219.904z"/>
	<path style="fill:#3A1053;" d="M1103.672,223.511c-3.611,5.54-2.041,12.979,3.494,16.589c5.537,3.609,12.975,2.044,16.586-3.495
		c3.609-5.535,2.043-12.975-3.492-16.584C1114.727,216.411,1107.281,217.976,1103.672,223.511z"/>
	
		<rect x="984.524" y="182.373" transform="matrix(0.9849 -0.1733 0.1733 0.9849 -19.0581 179.8748)" style="fill:#FEDD1B;" width="72.621" height="33.467"/>
	<path style="fill:#F29700;" d="M970.688,224.711l24.225-3.998c5.158-11.1,2.932-24.253-5.428-33.021l-24.248,3.999L970.688,224.711
		z"/>
	<path style="fill:#F29700;" d="M940.432,197.989c-1.24,3.268-1.949,6.798-1.949,10.498c0,15.443,11.83,28.167,26.902,29.601
		l14.891-25.273l-24.1-24.103L940.432,197.989z"/>
	<path style="fill:#7866C0;" d="M968.229,182.459c-14.375,0-26.029,11.655-26.029,26.028c0,14.372,11.654,26.028,26.029,26.028
		s26.027-11.657,26.027-26.028C994.256,194.114,982.604,182.459,968.229,182.459z"/>
	<path style="fill:#3A1053;" d="M968.229,190.868c-9.717,0-17.623,7.901-17.623,17.619s7.906,17.618,17.623,17.618
		s17.617-7.901,17.617-17.618S977.945,190.868,968.229,190.868z"/>
	<path style="fill:#F29700;" d="M1037.91,180.627c-6.723,10.306-3.805,24.155,6.5,30.875c0.191,0.125,0.396,0.224,0.592,0.343
		l14.494-2.55l-5.801-32.959l-14.523,2.554C1038.729,179.445,1038.305,180.021,1037.91,180.627z"/>
	<path style="fill:#7866C0;" d="M1041.025,182.659c-5.611,8.602-3.186,20.12,5.416,25.729c8.602,5.609,20.119,3.184,25.729-5.419
		c5.607-8.6,3.184-20.118-5.418-25.727C1058.149,171.632,1046.631,174.058,1041.025,182.659z"/>
	<path style="fill:#3A1053;" d="M1046.555,186.265c-3.613,5.54-2.041,12.979,3.496,16.589c5.533,3.61,12.971,2.045,16.584-3.495
		c3.609-5.535,2.043-12.974-3.49-16.584C1057.609,179.165,1050.162,180.73,1046.555,186.265z"/>
	<rect x="801.04" y="475.619" style="fill:#FFAE0D;" width="107.563" height="7.438"/>
</g>
<g>
	<ellipse style="fill:#3A1053;" cx="1649.529" cy="529.143" rx="24.604" ry="23.943"/>
	<rect x="528.907" y="512.236" style="fill:#B1E0EB;" width="1120.622" height="35.189"/>
	<rect x="528.907" y="505.199" style="fill:#3A1053;" width="1120.622" height="7.037"/>
	<rect x="1614.672" y="498.162" style="fill:#3A1053;" width="34.857" height="7.037"/>
	<rect x="1667.635" y="512.896" style="fill:#3A1053;" width="9.184" height="31.996"/>
	<rect x="1564.65" y="498.162" style="fill:#3A1053;" width="34.857" height="7.037"/>
	<rect x="1514.908" y="498.162" style="fill:#3A1053;" width="34.857" height="7.037"/>
	<rect x="1464.889" y="498.162" style="fill:#3A1053;" width="34.857" height="7.037"/>
	<rect x="1415.178" y="498.162" style="fill:#3A1053;" width="34.857" height="7.037"/>
	<rect x="1365.158" y="498.162" style="fill:#3A1053;" width="34.857" height="7.037"/>
	<rect x="1320.738" y="498.162" style="fill:#3A1053;" width="29.533" height="7.037"/>
	<rect x="1265.395" y="498.162" style="fill:#3A1053;" width="34.857" height="7.037"/>
	<rect x="1215.262" y="498.162" style="fill:#3A1053;" width="34.857" height="7.037"/>
	<rect x="1165.242" y="498.162" style="fill:#3A1053;" width="34.857" height="7.037"/>
	<rect x="1115.498" y="498.162" style="fill:#3A1053;" width="34.857" height="7.037"/>
	<rect x="1065.479" y="498.162" style="fill:#3A1053;" width="34.857" height="7.037"/>
	<rect x="1015.77" y="498.162" style="fill:#3A1053;" width="34.857" height="7.037"/>
	<rect x="965.748" y="498.162" style="fill:#3A1053;" width="34.857" height="7.037"/>
	<rect x="916.004" y="498.162" style="fill:#3A1053;" width="34.859" height="7.037"/>
	<rect x="865.985" y="498.162" style="fill:#3A1053;" width="34.856" height="7.037"/>
	<rect x="816.103" y="498.162" style="fill:#3A1053;" width="34.857" height="7.037"/>
	<rect x="766.082" y="498.162" style="fill:#3A1053;" width="34.856" height="7.037"/>
	<rect x="528.907" y="498.162" style="fill:#3A1053;" width="222.288" height="7.037"/>
	<rect x="1614.672" y="553.086" style="fill:#3A1053;" width="34.857" height="7.037"/>
	<rect x="1564.65" y="553.086" style="fill:#3A1053;" width="34.857" height="7.037"/>
	<rect x="1514.908" y="553.086" style="fill:#3A1053;" width="34.857" height="7.037"/>
	<rect x="1464.889" y="553.086" style="fill:#3A1053;" width="34.857" height="7.037"/>
	<rect x="1415.178" y="553.086" style="fill:#3A1053;" width="34.857" height="7.037"/>
	<rect x="1365.158" y="553.086" style="fill:#3A1053;" width="34.857" height="7.037"/>
	<rect x="1315.416" y="553.086" style="fill:#3A1053;" width="34.855" height="7.037"/>
	<rect x="1265.395" y="553.086" style="fill:#3A1053;" width="34.857" height="7.037"/>
	<rect x="1215.262" y="553.086" style="fill:#3A1053;" width="34.857" height="7.037"/>
	<rect x="1165.242" y="553.086" style="fill:#3A1053;" width="34.857" height="7.037"/>
	<rect x="1115.498" y="553.086" style="fill:#3A1053;" width="34.857" height="7.037"/>
	<rect x="1065.479" y="553.086" style="fill:#3A1053;" width="34.857" height="7.037"/>
	<rect x="1015.77" y="553.086" style="fill:#3A1053;" width="34.857" height="7.037"/>
	<rect x="965.748" y="553.086" style="fill:#3A1053;" width="34.857" height="7.037"/>
	<rect x="916.004" y="553.086" style="fill:#3A1053;" width="34.859" height="7.037"/>
	<rect x="865.985" y="553.086" style="fill:#3A1053;" width="34.856" height="7.037"/>
	<rect x="816.103" y="553.086" style="fill:#3A1053;" width="34.857" height="7.037"/>
	<rect x="766.082" y="553.086" style="fill:#3A1053;" width="34.856" height="7.037"/>
	<rect x="528.952" y="553.086" style="fill:#3A1053;" width="222.243" height="7.037"/>
	<rect x="528.952" y="547.426" style="fill:#3A1053;" width="1120.577" height="5.66"/>
	<path style="fill:#B1E0EB;" d="M1631.422,529.831c0,9.718,8.107,17.595,18.107,17.595s18.105-7.877,18.105-17.595
		c0-9.717-8.105-17.595-18.105-17.595S1631.422,520.114,1631.422,529.831z"/>
	<path style="fill:#7866C0;" d="M1631.422,529.782c0,5.437,4.535,9.843,10.131,9.843c5.594,0,10.129-4.406,10.129-9.843
		c0-5.437-4.535-9.843-10.129-9.843C1635.957,519.94,1631.422,524.346,1631.422,529.782z"/>
	<path style="fill:#7866C0;" d="M1458.135,529.782c0,5.437,4.535,9.843,10.129,9.843c5.596,0,10.131-4.406,10.131-9.843
		c0-5.437-4.535-9.843-10.131-9.843C1462.67,519.94,1458.135,524.346,1458.135,529.782z"/>
	<path style="fill:#7866C0;" d="M1271.129,529.782c0,5.437,4.535,9.843,10.131,9.843c5.594,0,10.129-4.406,10.129-9.843
		c0-5.437-4.535-9.843-10.129-9.843C1275.664,519.94,1271.129,524.346,1271.129,529.782z"/>
	<path style="fill:#7866C0;" d="M1072.973,529.782c0,5.437,4.535,9.843,10.129,9.843c5.596,0,10.131-4.406,10.131-9.843
		c0-5.437-4.535-9.843-10.131-9.843C1077.508,519.94,1072.973,524.346,1072.973,529.782z"/>
	<path style="fill:#7866C0;" d="M883.33,529.782c0,5.437,4.535,9.843,10.129,9.843c5.596,0,10.131-4.406,10.131-9.843
		c0-5.437-4.535-9.843-10.131-9.843C887.865,519.94,883.33,524.346,883.33,529.782z"/>
</g>
<g>
	<g>
		<rect x="406.894" y="619.753" style="fill:#D34881;" width="24.305" height="18.321"/>
		<g>
			<g>
				
					<rect x="597.818" y="232.71" transform="matrix(0.3304 -0.9439 0.9439 0.3304 197.9872 755.3815)" style="fill:#7866C0;" width="67.058" height="10.9"/>
			</g>
			<g>
				
					<rect x="562.46" y="204.63" transform="matrix(0.9921 -0.1251 0.1251 0.9921 -25.3337 72.9215)" style="fill:#7866C0;" width="10.9" height="67.058"/>
			</g>
			<g>
				<rect x="601.662" y="265.796" style="fill:#3A1053;" width="35.811" height="19.282"/>
			</g>
			<g>
				<rect x="551.976" y="265.796" style="fill:#3A1053;" width="35.81" height="19.282"/>
			</g>
			<g>
				<rect x="419.041" y="464.174" style="fill:#FFAE0D;" width="303.839" height="180.383"/>
			</g>
			<g>
				<rect x="419.041" y="644.557" style="fill:#E7990E;" width="303.839" height="29.007"/>
			</g>
			<g>
				<rect x="462.793" y="283.63" style="fill:#E7990E;" width="215.725" height="14.176"/>
			</g>
			<g>
				<polygon style="fill:#FEDD1B;" points="722.88,464.174 419.041,464.174 467.993,414.385 673.927,414.385 				"/>
			</g>
			<g>
				<rect x="438.473" y="483.139" style="fill:#FEDD1B;" width="263.208" height="140.559"/>
			</g>
			<g>
				<rect x="467.993" y="297.806" style="fill:#FEDD1B;" width="205.934" height="116.579"/>
			</g>
			<g>
				<path style="fill:#4DC8BD;" d="M660.973,202.32c0,8.899-7.214,16.115-16.114,16.115c-8.899,0-16.115-7.215-16.115-16.115
					c0-8.9,7.216-16.115,16.115-16.115C653.759,186.205,660.973,193.419,660.973,202.32z"/>
			</g>
			<g>
				<path style="fill:#D34881;" d="M578.853,199.858c0,8.898-7.216,16.113-16.115,16.113s-16.113-7.215-16.113-16.113
					c0-8.901,7.214-16.116,16.113-16.116S578.853,190.957,578.853,199.858z"/>
			</g>
			<g>
				<rect x="483.131" y="311.465" style="fill:#FFFFFF;" width="174.278" height="88.976"/>
			</g>
			<g>
				<g>
					<polygon style="fill:#B1E0EB;" points="490.328,317.783 490.328,394.412 536.783,394.412 557.109,317.783 					"/>
				</g>
				<g>
					<polygon style="fill:#4DC8BD;" points="649.813,317.783 557.109,317.783 536.783,394.412 649.813,394.412 					"/>
				</g>
			</g>
			<g>
				<rect x="454.074" y="493.302" style="fill:#B1E0EB;" width="127.668" height="117.319"/>
			</g>
			<g>
				<g>
					<polygon style="fill:#FFFFFF;" points="508.455,442.743 501.315,456.271 534.537,456.271 537.887,442.743 					"/>
				</g>
				<g>
					<polygon style="fill:#FFFFFF;" points="514.683,428.777 508.455,440.573 537.887,440.573 540.806,428.777 					"/>
				</g>
				<g>
					<polygon style="fill:#FFFFFF;" points="540.806,426.606 543.129,417.219 519.64,417.219 514.683,426.606 					"/>
				</g>
				<g>
					<polygon style="fill:#FFFFFF;" points="511.24,426.606 516.196,417.219 490.7,417.219 481.715,426.606 					"/>
				</g>
				<g>
					<polygon style="fill:#FFFFFF;" points="470.424,442.743 457.479,456.271 497.871,456.271 505.012,442.743 					"/>
				</g>
				<g>
					<polygon style="fill:#FFFFFF;" points="481.715,428.777 470.424,440.573 505.012,440.573 511.24,428.777 					"/>
				</g>
				<g>
					<polygon style="fill:#FFFFFF;" points="569.973,426.606 569.973,417.219 546.572,417.219 544.249,426.606 					"/>
				</g>
				<g>
					<polygon style="fill:#FFFFFF;" points="544.249,428.777 541.328,440.573 569.973,440.573 569.973,428.777 					"/>
				</g>
				<g>
					<polygon style="fill:#FFFFFF;" points="541.328,442.743 537.979,456.271 569.973,456.271 569.973,442.743 					"/>
				</g>
				<g>
					<polygon style="fill:#FFFFFF;" points="602.215,426.606 599.89,417.219 573.414,417.219 573.414,426.606 					"/>
				</g>
				<g>
					<polygon style="fill:#FFFFFF;" points="573.414,442.743 573.414,456.271 608.484,456.271 605.134,442.743 					"/>
				</g>
				<g>
					<polygon style="fill:#FFFFFF;" points="573.414,428.777 573.414,440.573 605.134,440.573 602.215,428.777 					"/>
				</g>
				<g>
					<polygon style="fill:#FFFFFF;" points="641.369,440.573 673.185,440.573 661.664,428.777 635.141,428.777 					"/>
				</g>
				<g>
					<polygon style="fill:#FFFFFF;" points="661.664,426.606 652.496,417.219 630.185,417.219 635.141,426.606 					"/>
				</g>
				<g>
					<polygon style="fill:#FFFFFF;" points="641.369,442.743 648.511,456.271 686.22,456.271 686.22,456.089 673.185,442.743 					
						"/>
				</g>
				<g>
					<polygon style="fill:#FFFFFF;" points="608.578,442.743 611.927,456.271 645.066,456.271 637.924,442.743 					"/>
				</g>
				<g>
					<polygon style="fill:#FFFFFF;" points="631.697,426.606 626.742,417.219 603.333,417.219 605.658,426.606 					"/>
				</g>
				<g>
					<polygon style="fill:#FFFFFF;" points="605.658,428.777 608.578,440.573 637.924,440.573 631.697,428.777 					"/>
				</g>
			</g>
			<g>
				<g>
					<path style="fill:#4DC8BD;" d="M454.73,192.869c-0.297,0.373-0.247,0.913,0.109,1.229l9.342,8.279
						c0.184,0.162,0.428,0.243,0.674,0.222c0.258-0.028,0.472-0.147,0.624-0.333c4.261-5.357,9.759-9.365,15.978-11.753
						c3.006-1.155,6.18-1.936,9.467-2.299c3.108-0.343,6.207-0.3,9.238,0.107c6.543,0.883,12.771,3.477,18.112,7.626
						c0.388,0.303,0.944,0.238,1.249-0.143l7.407-9.249c0.152-0.186,0.219-0.425,0.19-0.665c-0.026-0.235-0.146-0.454-0.336-0.602
						c-10.656-8.343-23.924-12.118-37.359-10.635C475.157,176.231,462.836,182.7,454.73,192.869z"/>
				</g>
				<g>
					<path style="fill:#4DC8BD;" d="M491.311,193.773c-2.24,0.248-4.465,0.801-6.634,1.612c-5.438,2.035-10.505,5.751-14.485,10.746
						c-0.304,0.381-0.243,0.937,0.131,1.251l7.829,6.457c0.184,0.153,0.422,0.224,0.661,0.201c0.213-0.028,0.46-0.145,0.611-0.335
						c3.604-4.534,7.063-7.479,13.146-8.15c5.855-0.648,10.152,1.627,14.808,5.245c0.188,0.145,0.419,0.209,0.649,0.184
						c0.271-0.04,0.492-0.176,0.632-0.372l6.03-8.472c0.277-0.394,0.202-0.929-0.178-1.225c-4.859-3.809-10.679-6.249-16.428-7.024
						C495.794,193.583,493.514,193.531,491.311,193.773z"/>
				</g>
				<g>
					<path style="fill:#4DC8BD;" d="M485.539,219.886c0.518,4.699,4.766,8.101,9.463,7.582c4.699-0.519,8.098-4.764,7.579-9.463
						c-0.52-4.698-4.763-8.099-9.46-7.582C488.422,210.943,485.02,215.188,485.539,219.886z M498.764,218.426
						c0.287,2.596-1.588,4.939-4.184,5.226c-2.594,0.286-4.938-1.592-5.224-4.188c-0.287-2.595,1.591-4.938,4.186-5.224
						C496.137,213.953,498.478,215.831,498.764,218.426z"/>
				</g>
				<g>
					<path style="fill:#064D67;" d="M489.357,219.464c0.286,2.596,2.63,4.474,5.224,4.188c2.596-0.287,4.471-2.63,4.184-5.226
						c-0.286-2.595-2.627-4.474-5.221-4.186C490.947,214.527,489.069,216.87,489.357,219.464z"/>
				</g>
			</g>
			<g>
				<g>
					<rect x="454.074" y="493.302" style="fill:#FFFFFF;" width="127.668" height="117.319"/>
				</g>
			</g>
			<g>
				<polygon style="fill:#B1E0EB;" points="462.39,500.949 462.39,602.974 486.513,602.974 518.537,500.949 				"/>
				<polygon style="fill:#4DC8BD;" points="573.413,500.949 518.537,500.949 486.513,602.974 573.413,602.974 				"/>
			</g>
			<g>
				<g>
					<rect x="594.45" y="493.065" style="fill:#B1E0EB;" width="89.768" height="56.375"/>
				</g>
				<g>
					<rect x="643.7" y="508.852" style="fill:#FFAE0D;" width="12.832" height="35.07"/>
				</g>
				<g>
					<rect x="661.829" y="511.245" style="fill:#35126F;" width="12.831" height="32.677"/>
				</g>
				<g>
					<rect x="625.043" y="521.253" style="fill:#3A1053;" width="12.834" height="22.669"/>
				</g>
				<g>
					<rect x="606.114" y="500.949" style="fill:#501B9B;" width="12.833" height="42.973"/>
				</g>
			</g>
			<g>
				<g>
					<rect x="594.45" y="558.693" style="fill:#FFFFFF;" width="89.768" height="51.929"/>
				</g>
				<g>
					<g>
						<path style="fill:#D34881;" d="M603.838,576.359c3.281,6.411,8.091,12.28,14.215,16.151
							c6.166,3.898,12.497,3.525,18.288-0.725c6.035-4.43,10.871-11.133,19.134-10.865c7.574,0.246,13.049,8.208,18.223,12.765
							c0.675,0.595,1.668-0.392,0.989-0.99c-4.854-4.276-8.992-9.719-15.109-12.271c-6.192-2.584-12.542,0.56-17.31,4.488
							c-6.176,5.092-11.495,11.191-20.205,8.046c-7.572-2.732-13.475-10.389-17.016-17.307
							C604.634,574.849,603.427,575.558,603.838,576.359L603.838,576.359z"/>
					</g>
				</g>
				<g>
					<g>
						<path style="fill:#D34881;" d="M603.656,563.842c0,13.554,0,27.106,0,40.66c0,0.722,1.119,0.722,1.119,0
							c0-13.554,0-27.107,0-40.66C604.775,563.121,603.656,563.121,603.656,563.842L603.656,563.842z"/>
					</g>
				</g>
				<g>
					<g>
						<path style="fill:#D34881;" d="M604.215,605.062c23.992,0,47.985,0,71.977,0c0.724,0,0.724-1.118,0-1.118
							c-23.992,0-47.985,0-71.977,0C603.494,603.943,603.494,605.062,604.215,605.062L604.215,605.062z"/>
					</g>
				</g>
			</g>
		</g>
	</g>
	<rect x="497.004" y="326.648" style="fill-rule:evenodd;clip-rule:evenodd;fill:#064D67;" width="101.182" height="6.866"/>
	<rect x="497.004" y="338.082" style="fill-rule:evenodd;clip-rule:evenodd;fill:#064D67;" width="70.91" height="6.435"/>
	<rect x="497.004" y="349.151" style="fill-rule:evenodd;clip-rule:evenodd;fill:#064D67;" width="79.665" height="6.428"/>
	<rect x="468.622" y="511.658" style="fill-rule:evenodd;clip-rule:evenodd;fill:#064D67;" width="76.542" height="6.428"/>
	<rect x="468.622" y="521.835" style="fill-rule:evenodd;clip-rule:evenodd;fill:#064D67;" width="65.875" height="6.428"/>
	<rect x="468.622" y="586.649" style="fill-rule:evenodd;clip-rule:evenodd;fill:#064D67;" width="29.667" height="6.428"/>
	<rect x="468.622" y="577.44" style="fill-rule:evenodd;clip-rule:evenodd;fill:#064D67;" width="85.375" height="6.428"/>
</g>
<g>
	<polygon style="fill:#187F75;" points="1339.344,384.194 1420.036,391.272 1420.036,498.101 1339.344,491.022 	"/>
	<polygon style="fill:#D77D14;" points="1339.344,384.194 1292.303,391.272 1292.303,498.101 1339.344,491.022 	"/>
	<polygon style="fill:#B1E0EB;" points="1364.498,505.18 1292.303,498.101 1292.303,391.272 1364.498,398.352 	"/>
	<polygon style="fill:#188D85;" points="1364.498,505.18 1420.036,498.101 1420.036,391.272 1364.498,398.352 	"/>
	<polygon style="opacity:0.15;" points="1292.303,431.073 1334.949,406.308 1345.454,396.484 1297.289,391.763 1293.361,394.096 
		1292.303,395.129 	"/>
	<g>
		<polygon style="fill:#D77D14;" points="1290.529,389.848 1254.372,425.145 1265.575,440.703 1301.732,405.409 		"/>
		<g>
			<polygon style="fill:#C47212;" points="1290.529,389.848 1363.964,346.24 1375.166,361.801 1301.732,405.409 			"/>
			<polygon style="fill:#4DC8BD;" points="1332.119,402.06 1265.575,440.703 1254.372,425.145 1320.917,386.499 			"/>
			<polygon style="fill:#188D85;" points="1332.119,402.06 1375.166,361.801 1363.964,346.24 1320.917,386.499 			"/>
			<polygon style="fill:#B1E0EB;" points="1254.372,425.145 1290.529,389.848 1363.964,346.24 1320.917,386.499 			"/>
		</g>
	</g>
</g>
<g>
	<g>
		<polygon style="fill:#187F75;" points="1088.206,397.315 1169.138,403.739 1169.138,498.107 1088.206,491.685 		"/>
		<polygon style="fill:#188D85;" points="1088.206,397.315 1169.138,403.739 1184.441,387.056 1103.509,380.633 		"/>
		<polygon style="fill:#188D85;" points="1088.206,397.315 1045.518,403.739 1045.518,498.107 1088.206,491.685 		"/>
		<polygon style="fill:#4DC8BD;" points="1088.206,397.315 1045.518,403.739 1028.277,392.186 1070.966,385.762 		"/>
		<polygon style="fill:#4DC8BD;" points="1126.449,504.53 1045.518,498.107 1045.518,403.739 1126.449,410.162 		"/>
		<polygon style="fill:#B1E0EB;" points="1107.327,426.88 1026.396,420.456 1045.518,403.739 1126.449,410.162 		"/>
		<polygon style="fill:#188D85;" points="1126.449,504.53 1169.138,498.107 1169.138,403.739 1126.449,410.162 		"/>
		<polygon style="fill:#4DC8BD;" points="1150.747,415.31 1193.434,408.886 1169.138,403.739 1126.449,410.162 		"/>
	</g>
</g>
<g>
	<g>
		<g>
			<rect x="870.26" y="408.044" style="fill:#4DC8BD;" width="126.348" height="90.072"/>
			<polygon style="fill:#B1E0EB;" points="974.088,392.656 892.779,392.656 870.26,408.044 996.607,408.044 			"/>
		</g>
	</g>
	<rect x="926.548" y="408.044" style="opacity:0.5;fill:#188D85;" width="13.042" height="29.287"/>
	<polygon style="opacity:0.5;fill:#188D85;" points="939.59,408.044 926.548,408.044 930.553,392.656 935.025,392.656 	"/>
</g>
<g>
	<path style="fill-rule:evenodd;clip-rule:evenodd;fill:#E0AC92;" d="M1605.937,663.269c-10.127,2.857,0.616,2.959-9.843,1.777
		l-2.662-34.188l11.16,0.883L1605.937,663.269z"/>
	<path style="fill-rule:evenodd;clip-rule:evenodd;fill:#030744;" d="M1570.954,684.815c-3.267-2.846-1.457-6.812-1.457-6.812
		c3.919-5.7,18.276-3.666,19.872-5.099c4.971-4.554,4.077-6.406,5.884-14.054c0,0,3.087,1.132,10.59,0.396
		c0.919,5.305,8.497,20.192-0.337,24.894C1599.399,687.384,1572.766,686.384,1570.954,684.815L1570.954,684.815z"/>
	<path style="fill-rule:evenodd;clip-rule:evenodd;fill:#E0AC92;" d="M1685.236,659.011c-9.033,3.963,0.955,2.666-8.904,2.922
		l-6.901-31.384l10.474-0.622L1685.236,659.011z"/>
	<path style="fill-rule:evenodd;clip-rule:evenodd;fill:#030744;" d="M1655.555,683.536c-3.396-2.218-2.234-6.131-2.234-6.131
		c2.901-5.796,16.49-5.772,17.787-7.308c4.023-4.866,2.955-6.471,3.637-13.803c0,0,3.017,0.649,9.883-1.006
		c1.54,4.805,10.502,17.644,2.91,23.152C1682.293,682.239,1657.441,684.759,1655.555,683.536L1655.555,683.536z"/>
	<path style="fill:#E0AC92;" d="M1548.996,426.025c1.131,1.73,5.408,1.172,3.403,1.588c-2.642,0.55-12.125,3.581-10.46,6.114
		c4.989,7.613,20.332-3.481,27.032-5.139c0.107,0.048,0.222,0.078,0.356,0.056c1.874-0.262,4.432-1.047,4.45-3.721
		c0.013-1.663-0.983-3.404-2.596-3.508c-1.069-0.074-2.243,0.272-3.176,0.785c-3.998,2.199-5.32,2.951-10.684,1.935
		C1555.073,423.706,1548.096,424.641,1548.996,426.025z"/>
	<path style="fill-rule:evenodd;clip-rule:evenodd;fill:#FF9C31;" d="M1631.642,415.608c12.472-7.164,16.036-59.791,7.456-63.728
		c-4.303-1.975-27.153,32.102-21.125,50.946c-5.656-1.553-52.797,20.555-52.797,20.555l1.191,6.104
		C1566.367,429.485,1613.72,425.9,1631.642,415.608z"/>
	<g>
		<path style="fill-rule:evenodd;clip-rule:evenodd;fill:#E0AC92;" d="M1608.841,332.356c2.799,4.667,7.029,5.212,12.658,6.024
			l4.727,17.145l12.089-13.256c-2.46-5.718-1.439-5.532-1.853-13.341c-4.761,2.509-3.894,2.442-9.53,1.552l-0.93-3.15
			c-2.519-3.117-2.307-3.784-1.271-5.197c3.058-4.13,10.456-2.495,15.749-3.061l0.336-0.336l-13.662,2.382
			c2.09-2.86,1.014-7.464-2.807-7.911c-3.828-0.49-3.287-2.378-7.903-3.895c-5.301-1.739-7.4,0.903-12.764-0.482L1608.841,332.356z"
			/>
		<path style="fill-rule:evenodd;clip-rule:evenodd;fill:#030744;" d="M1607.018,309.827c5.361,1.393,3.832,4.626,11.204,8.013
			c4.39-2.078,2.298-5.122,6.126-4.633c3.82,0.446,4.146,3.549,0.623,8.626l15.846-3.097c0.111-6.233,9.807-11.597,5.764-19.392
			c-4.185-8.081-8.371-4.353-17.146-5.08c-4.764-0.392-11.355-0.7-17.512-2.406c-9.974-2.778-7.795,1.002-14.423,3.285
			c0.326-5.89,3.927-5.871,9.296-8.201c-7.435-1.882-10.807,5.422-12.397,11.586C1592.064,307.748,1600.965,307.61,1607.018,309.827
			L1607.018,309.827z"/>
		<path style="fill-rule:evenodd;clip-rule:evenodd;fill:#030744;" d="M1626.002,327.33l11.705-0.86l3.109-7.734
			c-5.293,0.564-13.005-0.718-16.085,3.395C1623.385,323.933,1623.483,324.213,1626.002,327.33L1626.002,327.33z"/>
		<path style="fill-rule:evenodd;clip-rule:evenodd;fill:#030744;" d="M1636.462,328.927c2.049-2.389,4.354-10.191,4.354-10.191
			l-14.814,8.594c0,0,0.312,2.609,0.93,3.15C1631.225,334.25,1631.701,331.436,1636.462,328.927L1636.462,328.927z"/>
	</g>
	<path style="fill:#35126F;" d="M1624.513,550.232c6.672,21.882,48.681,101.102,48.681,101.102l11.051-1.185
		c0,0-9.689-56.794-19.011-82.851c-4.919-13.76-12.542-23.657-12.542-23.657s31.623-74.104,10.446-93.311
		c-0.79-0.712-2.844-3.938-2.896-3.979c-15.481-15.787-28.888,13.053-31.541,28.78
		C1624.098,502.402,1620.218,536.146,1624.513,550.232z"/>
	<path style="fill-rule:evenodd;clip-rule:evenodd;fill:#501B9B;" d="M1577.824,545.001c0.152,29.287,16.475,109.021,16.475,109.021
		h12.621c0,0,3.275-40.721,3.433-82.158c0.099-25.576-6.39-29.021-6.39-29.021s67.573-56.128,59.494-94.245
		c-0.375-1.768-21.557-1.984-23.75-2.127c-9.065-0.589-37.179,6.756-37.179,6.756S1577.709,523.67,1577.824,545.001z"/>
	<path style="fill-rule:evenodd;clip-rule:evenodd;fill:#FFBC27;" d="M1608.607,426.411c-1.655,7.073-7.102,29.753-7.102,29.753
		s54.336-6.889,68.047,4c1.981,1.572-1.384-5.272-2.722-10.119c-5.576-20.211-11.489-79.315-28.754-108.935
		c-0.393-0.676-12.938,2.602-14.205,7.635C1613.934,388.244,1616.25,393.747,1608.607,426.411z"/>
	<g>
		<g>
			<polygon style="fill:#187F75;" points="1537.039,350.828 1463.595,370.797 1479.976,457.736 1553.424,437.768 			"/>
			<polygon style="fill:#188D85;" points="1537.039,350.828 1463.595,370.797 1446.6,358.084 1520.047,338.103 			"/>
			<polygon style="fill:#188D85;" points="1537.039,350.828 1577.483,349.334 1593.866,436.276 1553.424,437.768 			"/>
			<polygon style="fill:#4DC8BD;" points="1537.039,350.828 1577.483,349.334 1591.361,335.684 1550.918,337.178 			"/>
			<polygon style="fill:#4DC8BD;" points="1520.421,456.24 1593.866,436.276 1577.483,349.334 1504.036,369.301 			"/>
			<polygon style="fill:#B1E0EB;" points="1524.554,381.383 1598.002,361.418 1577.483,349.334 1504.036,369.301 			"/>
			<polygon style="fill:#188D85;" points="1520.421,456.24 1479.976,457.736 1463.595,370.797 1504.036,369.301 			"/>
			<polygon style="fill:#4DC8BD;" points="1482.549,378.265 1442.104,379.758 1463.595,370.797 1504.036,369.301 			"/>
		</g>
	</g>
	<path style="fill:#E0AC92;" d="M1555.701,441.171c1.426,1.682,5.88,0.595,3.816,1.267c-2.724,0.887-12.365,5.167-10.27,7.633
		c6.297,7.399,21.072-6.022,27.948-8.542c0.118,0.039,0.248,0.055,0.382,0.019c1.951-0.492,4.555-1.62,4.223-4.417
		c-0.207-1.754-1.494-3.459-3.215-3.382c-1.145,0.051-2.338,0.549-3.26,1.194c-3.941,2.772-5.245,3.716-11.059,3.273
		C1561.826,438.031,1554.562,439.827,1555.701,441.171z"/>
	<path style="fill-rule:evenodd;clip-rule:evenodd;fill:#FFBC27;" d="M1643.799,422.207c11.51-8.591-6.266-66.25-14.46-71.138
		c-9.678-5.779-8.548,42.321-7.826,54.732c-7.991,0.848-48.792,30.638-48.792,30.638l2.138,6.408
		C1574.858,442.847,1627.256,434.551,1643.799,422.207z"/>
	<path style="fill:#FF9C31;" d="M1635.535,436.369c13.6-2.625,10.528-29.596,9.17-50.149c-0.045-0.719-7.168,35.882-15.098,41.272
		c-6.608,4.495-16.221,6.164-23.671,8.906C1605.494,436.561,1619.438,439.473,1635.535,436.369z"/>
</g>
<polygon style="fill-rule:evenodd;clip-rule:evenodd;fill:#35126F;" points="171.975,667.441 155.857,687.391 155.857,576.08 
	171.828,578.083 "/>
<polygon style="fill-rule:evenodd;clip-rule:evenodd;fill:#35126F;" points="224.317,663.622 208.2,683.572 208.2,572.261 
	224.171,574.264 "/>
<polygon style="fill-rule:evenodd;clip-rule:evenodd;fill:#064D67;" points="301.273,641.993 285.156,661.942 285.156,550.632 
	301.128,552.635 "/>
<path style="fill-rule:evenodd;clip-rule:evenodd;fill:#E7990E;" d="M238.145,573.797c0,7.745-6.279,14.024-14.024,14.024h-66.115
	c-7.746,0-14.024-6.279-14.024-14.024v-3.072c0-7.744,6.278-14.023,14.024-14.023h66.115c7.744,0,14.024,6.279,14.024,14.023
	V573.797z"/>
<path style="fill-rule:evenodd;clip-rule:evenodd;fill:#E7990E;" d="M377.564,551.796c0,7.745-6.279,14.023-14.024,14.023h-84.951
	c-7.745,0-14.024-6.278-14.024-14.023v-6.08c0-7.744,6.279-14.023,14.024-14.023h84.951c7.745,0,14.024,6.279,14.024,14.023V551.796
	z"/>
<g>
	<g>
		<path style="fill:#FEDD1B;" d="M236.767,341.148c-1.315-2.717-4.051-4.247-6.753-4.963c-7.58-2.007-13.232,0.646-17.413,6.513
			c-2.13,2.989-2.827,6.75-2.152,10.389c0.846,4.548,4.585,7.288,7.597,10.434c2.417,2.525,4.463,6.443,4.749,6.381
			c2.563-0.583,4.688-1.237,7.259-1.78c1.889-0.403,5.467-1.632,5.467-1.632s0.252-2.363,0.54-4.423
			C236.436,359.368,241.541,351.006,236.767,341.148z"/>
	</g>
	<g>
		<g>
			<path style="fill:#FFAE0D;" d="M228.051,368.981c-0.194-3.579-0.527-7.191-2.02-10.49c-0.74-1.645-2.024-4.489-4.095-4.732
				c-1.916-0.225-2.735,2.569-2.012,3.93c0.966,1.821,4.147,2.393,5.987,2.296c2.644-0.138,5.346-1.35,6.202-4.003
				c0.492-1.521-0.807-5.314-2.963-4.597c-2.619,0.871-1.732,4.706-1.504,6.738c0.372,3.325,0.759,7.023,2.479,9.96
				c0.286,0.49,1.013-0.004,0.728-0.494c-2.037-3.477-2.366-8.302-2.605-12.266c-0.05-0.822,0.057-4.121,1.929-2.843
				c0.997,0.681,1.304,2.236,1.074,3.322c-0.515,2.466-3.668,3.214-5.777,3.327c-1.521,0.079-3.391-0.56-4.521-1.557
				c-0.918-0.813-0.348-3.088,1.027-2.928c0.806,0.096,1.478,1.156,1.89,1.743c2.591,3.682,3.064,8.281,3.302,12.649
				C227.203,369.604,228.081,369.544,228.051,368.981L228.051,368.981z"/>
		</g>
	</g>
	<g>
		<path style="fill:#064D67;" d="M237.663,370.815c0.55-0.298,0.986-0.732,0.83-1.321c-0.27-1.021-1.161-1.113-2.021-1.039
			c0.674-0.556,1.203-1.348,0.519-2.121c-0.636-0.72-2.244-0.114-2.91,0.027c-1.724,0.362-3.414,0.924-5.121,1.377
			c-2.164,0.575-4.789,0.814-6.531,2.487c-1.174,1.13-0.497,2.033,0.65,2.2c-0.51,0.814-1.49,1.657-0.91,2.707
			c0.459,0.83,1.188,0.88,1.939,0.799c-0.729,0.621-1.498,1.558-0.846,2.106c0.636,0.534,1.109,0.362,1.854,0.129
			c1.187-0.37,2.375-0.749,3.561-1.135c0.702,2.045,1.692,3.934,3.856,4.26c1.677,0.254,2.072-1.904,2.1-3.317
			c0.016-0.819-0.02-1.922-0.338-2.774c0.488-0.152,0.973-0.306,1.463-0.457c1.266-0.384,2.56-0.887,3.37-2.094
			C239.996,371.35,238.801,370.93,237.663,370.815z"/>
	</g>
</g>
<g>
	<g>
		<path style="fill-rule:evenodd;clip-rule:evenodd;fill:#7866C0;" d="M294.438,399.361c0,0,10.415,8.647,10.592,9.51l-2.605,5.417
			c5.427,1.402,3.618,5.063,3.566,11.219c0,5.161,0.1,10.216,0,15.477c-0.197,10.316,1.105,21.138-0.753,31.255
			c-4.772,1.7-20.244,3.853-25.974,3.051c0.655-8.464,5.128-20.585,4.223-29.397l-24.818-0.25
			c-1.309-11.571,0.35-25.992,4.572-35.159c5.221-11.42,17.099-14.829,31.515-12.974L294.438,399.361z"/>
	</g>
	<g>
		<path style="fill-rule:evenodd;clip-rule:evenodd;fill:#7866C0;" d="M348.894,447.995c0.355-6.461-1.655-31.853-3.463-37.262
			c-3.618-10.82-21.038-10.869-32.848-11.671l-1.566,9.066l1.003,4.808c-3.669,4.505-2.71,6.861-2.662,14.023
			c0,11.17-0.902,36.412,0.651,44.727c7.035-1.457,13.518-2.955,20.501-4.259c8.439-1.605,7.329-6.111,12.706-11.87
			c0,0,1.11,1.654,3.874-0.352L348.894,447.995z"/>
	</g>
	<g>
		<path style="fill-rule:evenodd;clip-rule:evenodd;fill:#E0AC92;" d="M312.585,402.303l-1.565,5.826
			c-2.82,2.155-2.264,1.602-3.821,4.357l-2.313-3.86l-10.448-9.265l-0.093-0.299c1.258-4.359,2.147-11.147,4.422-17.947
			c7.993-23.922-12.409-15.634-8.59-24.599c1.406-0.853,4.72-2.228,7.334-2.482c2.513-0.247,2.042,1.256,3.853,2.057l-0.547,0.502
			c2.412,3.103-1.718-5.34,1.801-3.887c1.803,0.752,20.676-2.32,20.447-0.566c1.059,5.211,6.291,30.826-5.898,30.18L312.585,402.303
			z"/>
	</g>
	<g>
		<path style="fill-rule:evenodd;clip-rule:evenodd;fill:#030744;" d="M329.404,351.982c-2.413,0.752-23.214,3.058-23.214,3.058
			s-0.201,12.566,2.905,18.058c0.979,1.729,16.107-5.478,15.99-3.478c-0.483,8.323,0,15.582-4.97,16.591
			c-9.6,1.949-13.546-1.393-15.089-4.915c-2.588-5.916-2.588-22.973-4.211-24.703c-0.951-1.021-4.78-1.623-5.576,0.198
			c-3.906,8.928,12.501,5.146,2.352,28.236c-2.158-21.987-13.755-24.63-11.544-36.05c3.97-20.708,27.093-5.06,30.446-7.213
			c22.265-14.307,25.307,2.294,22.908,5.56C338.139,349.044,332.821,350.933,329.404,351.982L329.404,351.982z"/>
	</g>
	<g>
		<path style="fill-rule:evenodd;clip-rule:evenodd;fill:#501B9B;" d="M466.057,559.226l1.155-10.51
			c5.472-2.304,7.431-3.959,11.352-9.318c4.318-5.858,5.412-8.566,10.999-10.519c2.19,2.708,2.65,0.903,1.096,7.964l-3.84,23.413
			C479.387,561.106,470.897,561.229,466.057,559.226L466.057,559.226z"/>
	</g>
	<g>
		<path style="fill-rule:evenodd;clip-rule:evenodd;fill:#501B9B;" d="M361.607,649.729c-4.926,19.771,2.612,17.248,2.81,34.979
			c-5.374-0.603-2.564,2.977-10.249-8.202c-3.669-5.411-5.214-8.582-9.634-12.367c-0.152-9.856,7.81-11.727,10.773-19.357
			C358.773,649.468,356.934,646.364,361.607,649.729L361.607,649.729z"/>
	</g>
	<g>
		<path style="fill-rule:evenodd;clip-rule:evenodd;fill:#E0AC92;" d="M467.212,548.716l-1.155,10.51
			c-7.893-0.853-16.111-1.247-21.526-4.604c1.036-2.407,1.194-2.548,2.46-4.854c1.614-3.055,1.439-5.509,5.244-4.858
			L467.212,548.716z"/>
	</g>
	<g>
		<path style="fill-rule:evenodd;clip-rule:evenodd;fill:#35126F;" d="M310.009,471.685l-4.771,0.556
			c1.858-10.122,0.553-20.94,0.753-31.257c0.1-5.261,0-10.315,0-15.477c0.052-6.156,1.86-9.816-3.566-11.219l0.1-5.559l2.362-0.103
			l2.313,3.86c1.558-2.756,1.004-2.202,3.818-4.357l1.003,4.808c-3.669,4.505-2.71,6.861-2.662,14.023
			C309.357,438.129,308.455,463.371,310.009,471.685L310.009,471.685z"/>
	</g>
	<g>
		<path style="fill-rule:evenodd;clip-rule:evenodd;fill:#7866C0;" d="M344.408,486.186c-9.194,0.851-54.153,9.659-65.356,9.36
			l29.026-11.513c10.805-2.909,26.634-7.942,36.33-9.646l-2.232,9.178c1.309,2.35-4.029,2.743-0.111,2.892L344.408,486.186z"/>
	</g>
	<g>
		<path style="fill-rule:evenodd;clip-rule:evenodd;fill:#E0AC92;" d="M364.219,641.075l-2.615,8.654
			c-4.671-3.365-2.831-0.262-6.296-4.947l2.48-10.33C362.863,635.595,361.205,637.348,364.219,641.075L364.219,641.075z"/>
	</g>
	<g>
		<path style="fill-rule:evenodd;clip-rule:evenodd;fill:#061066;" d="M403.129,535.943l-38.91,105.132
			c-2.365-1.204-4.269-5.66-6.432-6.623c-3.013-3.727-3.022-51.318-2.48-58.174c1.579-19.844,8.911-21.654,11.525-31.059
			l-17.187-0.122c0,0-54.554-2.223-48.726-2.159c6.63,0,27.773-8.428,33.404-10.473c2.26-0.779,3.832-1.163,6.092-2.003l8.377-2.193
			l33.418-10.879L403.129,535.943z"/>
	</g>
	<g>
		<path style="fill-rule:evenodd;clip-rule:evenodd;fill:#311194;" d="M388.289,484.357c0,0,62.071,57.217,69.731,62.021
			c0,0-1.015,11.682-3.622,11.488c-11.436-0.856-42.189-11.761-59.25-21.278c-11.989-6.685-13.656-17.577-13.656-17.577
			l-22.641,7.717l-27.015-2.105c1.15-3.204-4.091-2.202,5.986-2.352l-10.135-5.012c-9.622-2.803-3.284,3.258-9.103-4.456
			c-3.978-0.148-8.645,0.251-12.269-0.9c-0.865-0.302-3.863-2.155-3.919-2.204l-22.179-7.213c1.208-2.951,1.669-1.753,1.495-3.655
			l-1.035-2.352c-0.058-0.453-0.346-0.652-0.46-0.951c0,0,59.666-11.797,70.209-12.646
			C362.639,481.829,377.341,482.053,388.289,484.357L388.289,484.357z"/>
	</g>
	<g>
		<path style="fill-rule:evenodd;clip-rule:evenodd;fill:#311194;" d="M358.852,526.727c0,0-51.308,16.401-57.931,16.211
			c-11.679-0.35-26.179-11.549-30.347-18.265c-6.43-10.369-4.421-17.23-7.537-28.848l17.183-0.299
			c0.102,0.299,0.351,0.498,0.402,0.951l0.9,2.352c0.154,1.902,6.077-0.248,5.022,2.708l15.099,2.695
			c0.053,0.052,5.288-0.082,6.038,0.217c3.168,1.15,15.195,2.221,18.66,2.373c5.074,7.712,0.024,2.693,8.41,5.499l6.582,5.287
			c-8.793,0.147-0.106-4.101-1.109-0.894L358.852,526.727z"/>
	</g>
	<g>
		<path style="fill-rule:evenodd;clip-rule:evenodd;fill:#030744;" d="M374.467,484.357c-12.426,1.241-21.73,1.326-32.402,2.101
			c-2.691,0.194-1.629-0.721-1.661-2.001l2.653-9.486c12.36-6.21,9.756,2.322,12.42-12.853l-9.598-0.351l1.209-6.562l2.766-13.575
			l33.306,1.305L374.467,484.357z"/>
	</g>
	<g>
		<path style="fill-rule:evenodd;clip-rule:evenodd;fill:#E0AC92;" d="M375.94,458.489c0.703-0.82,3.748-0.802,4.714-0.235
			c4.723,2.786-0.313,13.043-3.968,15.523c-0.769,0.521-3.746-4.954-4.09-7.755C372.246,463.18,374.209,460.505,375.94,458.489
			L375.94,458.489z"/>
	</g>
	<g>
		<path style="fill-rule:evenodd;clip-rule:evenodd;fill:#E0AC92;" d="M330.51,467.428c8.439-1.605,7.33-6.111,12.708-11.87
			l3.87-0.352l-1.209,6.562l9.598,0.351c-2.664,15.175-1.457,7.313-13.815,13.525c-9.696,1.702-60.222,28.734-78.624,20.183
			c-3.022-1.406-4.369-50.185-4.369-50.185l24.816,0.25c0.907,8.813-3.566,20.934-4.221,29.397
			C284.991,476.092,323.525,468.731,330.51,467.428L330.51,467.428z"/>
	</g>
	<g>
		<path style="fill-rule:evenodd;clip-rule:evenodd;fill:#35126F;" d="M374.755,484.193c-12.423,1.242-15.433,1.079-26.108,1.855
			c-2.689,0.192-3.682-0.376-3.713-1.658l2.57-11.059c7.689-4.665,4.969,2.764,7.973-11.213l-4.749-0.173l3.652-18.697l28.837,0.627
			L374.755,484.193z"/>
	</g>
</g>
<g>
	<g>
		<path style="fill:#E0AC92;" d="M267.8,516.457c1.417,3.169,5.932,2.149,8.645,1.83c4.33-0.506,9.87,2.704,13.758-0.038
			c0.815-0.578,0.684-2.223,0.664-3.102c-0.07-3.468,3.737,1.099,4.348,1.637c0.716,0.632,4.398,3.444,4.758,1.395
			c0.213-1.22-3.269-5.141-4.355-6.275c-2.76-2.881-6.343-5.446-10.504-4.59c-2.44,0.504-4.364,2.411-6.917,2.637
			c-2.883,0.253-5.749-0.252-8.58-0.648c-0.259-0.036-0.289-0.175-0.346,0.022c-0.109,0.007-0.213,0.052-0.306,0.148
			C267.836,510.667,267.137,514.971,267.8,516.457z"/>
	</g>
	<g>
		<path style="fill-rule:evenodd;clip-rule:evenodd;fill:#E0AC92;" d="M244.545,658.579l7.706,1.821
			c2.386-6.628,5.499-12.179,5.256-17.602c-2.022,0.073-2.537-0.487-4.575-0.196c-2.679,0.336-2.629,1.434-3.617,4.707
			L244.545,658.579z"/>
	</g>
	<g>
		<path style="fill-rule:evenodd;clip-rule:evenodd;fill:#FF9C31;" d="M253.438,656.972c-2.286,22.135,5.75,18.047,8.691,37.19
			c-5.904,0.175-2.254,3.985-12.285-6.92c-4.799-5.285-6.988-8.683-12.35-12.095c-1.679-10.635,6.033-13.438,9.133-22.029
			c-0.15,0.417,1.571,1.106,7.143,4.027L253.438,656.972z"/>
	</g>
	<g>
		<path style="fill:#FF9C31;" d="M191.973,489.444c0.171,6.402,0.741,12.785,1.395,19.153c0.442,4.323,0.17,9.401,2.708,12.981
			c7.757,10.946,78.213-2.868,78.213-2.868l0.577-8.97c0,0-48.456-6.594-54.513-6.091c1.285-7.1,6.373-78.392,1.309-89.281
			c-0.505-1.083-14.412,12.438-16.378,16.745C197.141,448.938,191.446,469.864,191.973,489.444z"/>
	</g>
	<g>
		<path style="fill:#35126F;" d="M193.088,568.24c26.636,4.755,63.261-2.265,68.247-4.194c-7.969,8.776-11.577,45.037-11.941,52.018
			c-0.538,10.295-1.028,34.076-1.028,34.076l7.014,2.304c0,0,46.888-91.4,47.112-107.77c0.079-5.802,0.978-13.013-4.688-16.569
			c-8.312-5.217-20.134-6.816-29.76-7.16c-12.229-0.439-109.066,1.151-109.163,1.164c-0.338-0.007-0.676-0.007-1.014-0.015
			C156.441,522.062,158.622,562.09,193.088,568.24z"/>
	</g>
	<g>
		<path style="fill:#E0AC92;" d="M221.536,437.142c2.977-1.304,8.104-5.635,11.458-9.114c0.408,8.292,12.368,6.843,16.655,3.884
			c5.578-3.854,13.085-12.81,16.004-15.792c0.505-0.517,0.442-1.292-0.146-1.711c-6.756-4.83-13.394-15.854-22.643-15.745
			c-3.463,0.039-6.225,3.194-6.009,6.573c0.209,3.317,0.484,7.028-4.221,6.834c-2.631-0.108-5.162-0.653-7.557-1.756
			c-0.355-0.163-0.792,0.005-1.07,0.23c-3.961,3.224-7.16,7.218-10.227,11.272c-0.416,0.549-0.188,1.104,0.252,1.403
			C212.651,427.289,213.523,440.653,221.536,437.142z"/>
	</g>
	<g>
		<path style="fill:#030744;" d="M222.842,416.421c3.164,0.147,5.215-0.314,8.411-1.569c6.759-2.655,7.869-8.61,7.688-8.972
			c-3.336-6.641,3.485-7.224,7.893-5.639c-0.512,0.762,7.564,10.933,10.808,13.665c6.982,5.88,17.11,11.038,25.715,5.307
			c5.547-3.689,5.745-13.079,1.426-16.355c-3.954-3.002-11.532-2.362-16.235-3.794c-5.363-1.629-9.744-3.669-14.289-6.933
			c-5.955-4.273-11.063-4.693-17.295-0.797c-5.443,3.406-9.82,7.917-14.007,14.436C220.549,409.521,216.996,416.152,222.842,416.421
			z"/>
	</g>
	<g>
		<path style="fill-rule:evenodd;clip-rule:evenodd;fill:#E0AC92;" d="M237.746,657.755l7.703,1.819
			c2.389-6.628,5.5-12.18,5.258-17.603c-2.022,0.072-2.536-0.486-4.575-0.194c-2.678,0.334-2.628,1.433-3.617,4.704L237.746,657.755
			z"/>
	</g>
	<g>
		<path style="fill:#501B9B;" d="M185.196,569.348c26.637,4.753,63.261-2.266,68.247-4.194
			c-7.968,8.775-11.574,45.036-11.939,52.016c-0.539,10.298-1.029,34.08-1.029,34.08l7.456,2.313c0,0,46.445-91.411,46.673-107.78
			c0.078-5.8,0.977-13.013-4.69-16.569c-8.31-5.217-20.133-6.816-29.761-7.161c-12.227-0.438-109.066,1.151-109.161,1.165
			c-0.338-0.007-0.676-0.007-1.014-0.017C148.553,523.17,150.733,563.195,185.196,569.348z"/>
	</g>
	<g>
		<path style="fill-rule:evenodd;clip-rule:evenodd;fill:#FFBC27;" d="M246.012,658.13c-2.285,22.135,5.75,18.047,8.693,37.19
			c-5.905,0.175-2.256,3.985-12.287-6.917c-4.799-5.288-6.986-8.683-12.348-12.098c-1.681-10.635,6.033-13.438,9.134-22.028
			c-0.153,0.418,1.569,1.108,7.139,4.026L246.012,658.13z"/>
	</g>
	<g>
		<path style="fill:#35126F;" d="M153.276,541.876c0.148,0.473,5.503-1.351,7.764-2.584c3.889-2.123,8.589-2.724,12.946-1.906
			c4.344,0.815,10.605,1.676,14.535-1.149c5.297-3.811,14.5,0.624,20.62,0.9c5.688,0.256,12.096-0.198,17.686-1.573
			c6.986-1.719,13.16-5.538,20.471-5.808c7.191-0.265,14.689-0.237,21.877,0.159c1.85,0.102,20.807,1.699,22.414-1.076
			c0.786-1.358-14.239-2.022-15.544-2.734c-4.011-2.19-10.021-2.318-14.403-2.949c-6.918-0.993-13.897-1.778-20.882-2.02
			c-14.482-0.501-29.153-1.037-43.639-0.646c-6.798,0.185-12.189,1.034-18.655,2.865c-6.293,1.785-13.1,2.203-19.563,3.136
			c-2.58,0.372-6.639,1.051-7.724,3.956C149.726,534.354,152.109,538.148,153.276,541.876z"/>
	</g>
	<g>
		<path style="fill:#FFBC27;" d="M143.988,529.657c-0.193,2.934,3.826,6.161,5.202,5.083c6.023-4.73,9.12-6.747,16.85-6.121
			c5.035,0.409,13.123,2.691,18.021,0.829c9.761-3.707,6.021-16.083,8.392-24.401c2.249-7.898,5.178-15.561,7.626-23.394
			c2.174-6.958,3.912-14.048,6.079-21.011c2.264-7.27,4.909-14.395,7.726-21.468c2.431-6.108,4.263-22.546,3.294-21.979
			c-10.643,6.212-23.934,14.503-32.721,23.119c-8.226,8.067-16.583,16.434-23.087,25.993
			C148.942,484.569,145.465,507.322,143.988,529.657z"/>
	</g>
	<g>
		<path style="fill:#FF9C31;" d="M190.283,521.837c-1.92-6.799-2.533-34.476-1.959-41.229c0.584-6.826,5.437-29.088,8.912-36.555
			c0.193-0.415-23.809,36.115-21.91,48.169C177.971,509.008,190.494,522.585,190.283,521.837z"/>
	</g>
	<g>
		<g>
			
				<rect x="300.685" y="500.844" transform="matrix(0.7196 -0.6944 0.6944 0.7196 -256.5787 371.0548)" style="fill:#030744;" width="60.958" height="4.777"/>
		</g>
		<g>
			<polygon style="fill:#030744;" points="238.145,527.059 308.166,528.839 317.729,519.524 238.389,517.508 			"/>
		</g>
	</g>
	<g>
		<path style="fill:#EECAAD;" d="M264.121,520.114c1.87,2.925,6.183,1.247,8.82,0.532c4.207-1.142,10.162,1.215,13.6-2.071
			c0.721-0.69,0.35-2.296,0.201-3.167c-0.584-3.418,3.857,0.536,4.539,0.977c0.802,0.519,4.86,2.758,4.912,0.679
			c0.032-1.24-3.992-4.604-5.235-5.566c-3.155-2.439-7.077-4.451-11.065-2.986c-2.34,0.859-3.961,3.028-6.452,3.63
			c-2.815,0.676-5.723,0.603-8.581,0.627c-0.261,0.001-0.314-0.13-0.338,0.073c-0.109,0.022-0.206,0.081-0.281,0.191
			C263.303,514.382,263.246,518.744,264.121,520.114z"/>
	</g>
	<g>
		<path style="fill:#FFBC27;" d="M187.489,492.271c0.17,6.403,0.743,12.786,1.395,19.154c0.444,4.323,0.17,9.401,2.708,12.982
			c7.758,10.945,78.215-2.866,78.215-2.866l0.576-8.972c0,0-48.457-6.594-54.514-6.091c1.285-7.103,6.373-78.393,1.309-89.282
			c-0.503-1.082-14.412,12.438-16.38,16.746C192.658,451.765,186.965,472.691,187.489,492.271z"/>
	</g>
</g>
<g>
	<g>
		<path style="fill:#E0AC92;" d="M627.85,421.981c-0.081-0.094-0.182-0.14-0.291-0.15c-0.037-0.18-0.082-0.059-0.341-0.04
			c-2.853,0.193-5.747,0.48-8.597,0.086c-2.521-0.35-4.272-2.168-6.66-2.76c-4.068-1.009-7.854,1.085-10.846,3.505
			c-1.18,0.954-4.982,4.265-4.873,5.372c0.182,1.855,4.088-0.453,4.854-0.978c0.653-0.446,4.833-4.317,4.466-1.217
			c-0.094,0.79-0.363,2.253,0.398,2.817c3.633,2.68,9.424,0.124,13.691,0.827c2.674,0.44,7.079,1.616,8.76-1.141
			C629.199,427.012,628.871,423.116,627.85,421.981z"/>
	</g>
	<g>
		<path style="fill:#E0AC92;" d="M618.488,442.299c-0.063-0.107-0.153-0.17-0.26-0.202c-0.003-0.184-0.07-0.072-0.327-0.103
			c-2.841-0.335-5.736-0.588-8.465-1.5c-2.414-0.808-3.802-2.917-6.038-3.938c-3.813-1.741-7.92-0.38-11.307,1.446
			c-1.335,0.72-5.682,3.274-5.779,4.381c-0.163,1.858,4.102,0.309,4.952-0.064c0.725-0.318,5.547-3.354,4.613-0.374
			c-0.237,0.76-0.772,2.148-0.127,2.844c3.076,3.303,9.239,1.857,13.304,3.334c2.548,0.926,7.696-1.629,9.856-4.029
			C619.921,442.969,619.282,443.602,618.488,442.299z"/>
	</g>
	<path style="fill:#35126F;" d="M657.861,413.725c8.392-1.684,14.363-1.776,15.884-2.568c1.872-0.98,19.571-32.498,23.012-38.389
		c3.694-6.338,11.097-16.503,19.469-14.238c12.663,3.429,11.523,20.102,10.827,28.531c-4.633,11.318-23.426,34.059-34.357,38.57
		c-14.869,6.141-69.595,4.367-69.595,4.367l-0.058-7.949C623.043,422.049,653.29,414.64,657.861,413.725L657.861,413.725z"/>
	<path style="fill:#EECAAD;" d="M679.981,332.095c-0.203-6.132,0.525-13.184,0.525-13.184s6.346-4.089,11.803-7.449
		c6.742-4.147,10.903-0.753,17.188,5.847c4.311,4.528,4.786,23.632,2.01,31.372c-0.074,0.207-0.185,0.371-0.312,0.499
		c4.117,4.913,9.354,9.418,11.283,15.592c1.874,5.975-2.861,11.969-7.284,15.869c-0.555,0.485-3.479,7.03-3.618,6.372
		c-3.088-14.624-9.373-26.337-13.324-34.317c-8.24,3.47-9.211-1.172-11.791-3.806C683.261,345.628,680.137,336.897,679.981,332.095
		L679.981,332.095z"/>
	<path style="fill-rule:evenodd;clip-rule:evenodd;fill:#35126F;" d="M715.227,350.921c-10.49-10.888-5.725-24.081-10.795-31.961
		c-7.404,3.855-11.68,15.059-0.848,20.918c-8.532,1.04-6.765-8.01-8.465-15.042c-4.574-1.657-8.719-2.66-14.996-1.613
		c-1.555-6.37,2.25-10.935,5.558-14.881c4.271-4.982,10.969-5.351,18.138-7.524c-1.902-6.488,13.219-16.031,35.302,5.617
		c6.866,6.737,3.784,23.809,9.419,25.983c13.976,5.386,35.121,34.649,30.408,46.646c-3.252,8.289-13.326,15.451-21.945,13.784
		c-3.536-0.683-13.963-7.806-17.273-22.044c-1.018-4.368,4.732-12.297-1.463-17.88c-5.703-5.144-10.647-8.794-9.299-18.665
		c2.441-17.879-18.783-32.726-19.941-31.282c13.927,10.588,14.745,20.726,4.895,40.427L715.227,350.921z"/>
	<path style="fill-rule:evenodd;clip-rule:evenodd;fill:#EECAAD;" d="M663.38,669.182c-8.591,0.742,0.022,2.708-8.189-0.159
		l2.358-30.53l9.777,2.72L663.38,669.182z"/>
	<path style="fill-rule:evenodd;clip-rule:evenodd;fill:#35126F;" d="M636.668,685.797c-2.762-2.436-1.4-6.053-1.4-6.053
		c3.029-5.237,14.843-3.896,16.107-5.235c3.924-4.242,3.136-5.875,4.378-12.788c0,0,2.567,0.915,8.681,0
		c0.915,4.725,7.573,17.813,0.488,22.316C660.023,687.149,638.194,687.146,636.668,685.797L636.668,685.797z"/>
	<path style="fill-rule:evenodd;clip-rule:evenodd;fill:#E2AE9C;" d="M755.883,673.934l-4.245-17.982l8.009-1.412l10.115,13.213
		C769.762,667.752,758.935,673.528,755.883,673.934L755.883,673.934z"/>
	<path style="fill-rule:evenodd;clip-rule:evenodd;fill:#35126F;" d="M735.797,678.771c0.3-3.205,12.361-3.124,14.598-5.197
		c2-1.854,2.137-13.837,2.137-13.837l8.07-3.785c0,0,9.391,8.077,10.194,10.89c2.387,8.349-12.96,18.339-12.96,18.339
		s-9.092,1.696-15.023,1.428C740.606,686.507,735.479,682.121,735.797,678.771L735.797,678.771z"/>
	<path style="fill:#35126F;" d="M756.529,466.715c12.488,7.867-1.98,67.531-12.866,89.164c-0.434,0.857-0.407,1.692,0.275,2.618
		c17.152,23.286,15.708,96.042,15.708,96.042l-8.009,1.412c0,0-19.917-50.008-36.452-88.589
		c-2.968-6.929-21.399-86.895-10.582-91.861C717.188,469.719,747.19,458.204,756.529,466.715L756.529,466.715z"/>
	<path style="fill:#501B9B;" d="M644.387,555.481c3.195-12.31,19.02-32.399,27.211-42.606
		c16.666-20.765,72.796-63.618,73.038-63.424c22.402,17.782,19.073,39.347,6.938,59.77c-13.076,22.019-56.23,39.584-77.357,49.965
		c-0.203,0.101-0.931,0.525-0.578,0.695c9.397,4.541-8.845,99.28-8.845,99.28l-8.857,0.196
		C655.938,659.357,641.432,566.858,644.387,555.481L644.387,555.481z"/>
	<path style="fill:#7866C0;" d="M702.446,367.05c3.376-10.267,15.803-10.511,20.788-4.707
		c10.395,12.113,34.424,101.063,37.174,110.68c0.139,0.491-13.729,8.814-21.781,8.188c-22.706-1.767-40.219,5.088-40.219,5.088
		S689.138,457.668,702.446,367.05L702.446,367.05z"/>
	<path style="fill:#35126F;" d="M703.922,421.902c4.036-7.046,12.535-26.5,12.54-26.118c0.033,13.288-5.233,31.921-10.098,44.059
		c-0.814,2.041-6.967,27.969-10.046,24.535c-2.443-2.722-2.412-12.453-2.625-15.935c-0.279-4.615-0.95-7.149-0.95-7.149
		S699.404,429.777,703.922,421.902L703.922,421.902z"/>
	<path style="fill:#7866C0;" d="M647.869,430.478c9.018-1.307,22.988-4.083,24.646-4.841c2.044-0.935,12.476-21.563,16.199-29.762
		c5.094-11.212,10.524-20.768,13.74-28.796c3.313-8.263,5.831,10.925,12.028,12.969c13.254,4.365,12.145,15.127,10.916,24.042
		c-5.569,11.758-29.038,37.857-40.907,42.027c-16.152,5.674-74.603,2.177-74.603,2.177s2.295-1.086,2.684-4.104
		c0.324-2.513-1.146-3.143-1.146-3.143S642.961,431.19,647.869,430.478L647.869,430.478z"/>
</g>
</svg>
