<?xml version="1.0" encoding="utf-8"?>
<!-- Generator: Adobe Illustrator 27.5.0, SVG Export Plug-In . SVG Version: 6.00 Build 0)  -->
<svg version="1.1" id="Layer_1" xmlns="http://www.w3.org/2000/svg" xmlns:xlink="http://www.w3.org/1999/xlink" x="0px" y="0px"
	 viewBox="0 0 7142.752 2261.54" style="enable-background:new 0 0 7142.752 2261.54;" xml:space="preserve">
<rect x="0" style="fill:#FFFFFF;" width="7142.752" height="2261.54"/>
<g>
	<g>
		<g>
			<path style="fill:#45C258;" d="M6380.488,1018.568l-51.052-78.764l-78.425,50.831c-13.18-12.148-27.865-22.17-43.523-29.956
				l19.513-91.407l-91.784-19.594l-19.513,91.407c-17.473,0.714-34.97,3.865-51.962,9.572l-50.832-78.425l-78.764,51.051
				l50.831,78.425c-12.148,13.18-22.17,27.865-29.956,43.523l-91.407-19.513l-19.594,91.784l91.418,19.516
				c0.702,17.47,3.853,34.968,9.561,51.959l-78.424,50.831l51.051,78.765l78.425-50.831c13.187,12.144,27.872,22.165,43.526,29.945
				l-19.516,91.418l91.783,19.594l19.516-91.418c17.477-0.707,34.963-3.86,51.955-9.568l50.836,78.432l78.765-51.051l-50.832-78.425
				c12.148-13.18,22.17-27.865,29.945-43.526l91.418,19.516l19.594-91.784l-91.407-19.514c-0.714-17.473-3.865-34.97-9.572-51.962
				L6380.488,1018.568z M6200.633,1079.209c4.259,6.571,7.572,13.49,9.976,20.585c2.851,8.439,4.418,17.129,4.739,25.81
				c0.588,15.319-2.668,30.601-9.468,44.349c-3.845,7.798-8.824,15.09-14.877,21.622c-5.091,5.495-10.926,10.449-17.498,14.708
				s-13.49,7.572-20.578,9.971c-8.434,2.858-17.136,4.423-25.812,4.751c-15.32,0.588-30.605-2.676-44.35-9.468
				c-7.793-3.838-15.086-8.817-21.625-14.866c-5.495-5.091-10.458-10.94-14.717-17.512c-4.259-6.571-7.568-13.483-9.971-20.578
				c-2.858-8.434-4.418-17.129-4.746-25.805c-0.592-15.327,2.671-30.612,9.47-44.361c3.842-7.786,8.821-15.079,14.87-21.618
				c5.091-5.495,10.934-10.453,17.512-14.717c6.571-4.259,13.483-7.567,20.578-9.971c8.435-2.858,17.129-4.418,25.805-4.746
				c15.327-0.593,30.612,2.671,44.361,9.47c7.787,3.842,15.086,8.817,21.618,14.87
				C6191.416,1066.796,6196.375,1072.638,6200.633,1079.209z"/>
			<path style="fill:#5167ED;" d="M6847.416,1514.4l-42.49-104.936l-104.483,42.307c-12.837-17.396-27.943-32.616-44.711-45.411
				l43.969-103.806l-104.234-44.151l-43.969,103.806c-20.857-3.142-42.299-3.403-63.726-0.521l-42.307-104.483l-104.935,42.49
				l42.307,104.483c-17.396,12.838-32.616,27.944-45.411,44.712l-103.806-43.969l-44.151,104.234l103.819,43.975
				c-3.155,20.851-3.416,42.294-0.534,63.72l-104.482,42.307l42.49,104.936l104.483-42.307
				c12.847,17.392,27.953,32.612,44.717,45.398l-43.975,103.819l104.234,44.151l43.975-103.819
				c20.86,3.151,42.29,3.407,63.717,0.524l42.311,104.492l104.935-42.49l-42.307-104.483c17.396-12.838,32.616-27.943,45.398-44.717
				l103.819,43.975l44.151-104.234l-103.806-43.97c3.142-20.857,3.403-42.299,0.521-63.726L6847.416,1514.4z M6620.565,1545.18
				c3.545,8.755,5.89,17.705,7.117,26.656c1.451,10.645,1.324,21.295-0.277,31.65c-2.799,18.278-10.143,35.634-21.333,50.365
				c-6.333,8.358-13.894,15.859-22.553,22.214c-7.284,5.346-15.325,9.881-24.08,13.426c-8.754,3.545-17.705,5.89-26.646,7.114
				c-10.642,1.461-21.305,1.328-31.655-0.264c-18.278-2.799-35.638-10.153-50.366-21.333c-8.354-6.324-15.855-13.885-22.219-22.541
				c-5.346-7.284-9.889-15.344-13.434-24.098s-5.886-17.695-7.114-26.647c-1.46-10.641-1.324-21.295,0.268-31.646
				c2.796-18.287,10.149-35.647,21.339-50.378c6.327-8.345,13.889-15.846,22.544-22.21c7.283-5.346,15.334-9.885,24.098-13.434
				c8.755-3.545,17.696-5.886,26.647-7.114c10.641-1.46,21.295-1.324,31.646,0.268c18.287,2.796,35.646,10.149,50.378,21.339
				c8.345,6.328,15.855,13.885,22.21,22.544C6612.481,1528.375,6617.02,1536.425,6620.565,1545.18z"/>
		</g>
		<g>
			<rect x="4955.702" y="692.43" style="fill:#FEAB47;" width="1034.582" height="1034.582"/>
			<rect x="4955.698" y="1727.018" style="fill:#FE5B5B;" width="1034.592" height="291.434"/>
			<g>
				<path style="fill:#FFFFFF;" d="M5126.388,1972.837c-55.196,0-100.103-44.905-100.103-100.102s44.906-100.103,100.103-100.103
					s100.102,44.906,100.102,100.103S5181.584,1972.837,5126.388,1972.837z M5126.388,1780.762
					c-50.714,0-91.974,41.259-91.974,91.974c0,50.714,41.259,91.973,91.974,91.973c50.714,0,91.973-41.259,91.973-91.973
					C5218.361,1822.021,5177.102,1780.762,5126.388,1780.762z"/>
			</g>
			<g>
				<path style="fill:#FFFFFF;" d="M5472.993,1972.837c-55.196,0-100.102-44.905-100.102-100.102s44.905-100.103,100.102-100.103
					c55.197,0,100.103,44.906,100.103,100.103S5528.19,1972.837,5472.993,1972.837z M5472.993,1780.762
					c-50.714,0-91.973,41.259-91.973,91.974c0,50.714,41.259,91.973,91.973,91.973c50.715,0,91.974-41.259,91.974-91.973
					C5564.967,1822.021,5523.708,1780.762,5472.993,1780.762z"/>
			</g>
			<g>
				<path style="fill:#FFFFFF;" d="M5819.6,1972.837c-55.196,0-100.101-44.905-100.101-100.102s44.905-100.103,100.101-100.103
					s100.102,44.906,100.102,100.103S5874.796,1972.837,5819.6,1972.837z M5819.6,1780.762c-50.713,0-91.972,41.259-91.972,91.974
					c0,50.714,41.259,91.973,91.972,91.973c50.714,0,91.973-41.259,91.973-91.973
					C5911.572,1822.021,5870.313,1780.762,5819.6,1780.762z"/>
			</g>
		</g>
		<g>
			<path style="fill:#34213C;" d="M5272.036,1103.246c-1.413,20.985,2.836,41.91,3.722,62.924
				c0.886,21.014-2.196,43.54-15.874,59.518c-19.616,22.915-53.45,25.112-83.388,28.803c-29.938,3.691-64.575,15.041-73.04,43.993
				c-5.416,18.523,2.083,38.153,2.412,57.449c0.682,39.943-34.558,77.046-74.483,78.42c-39.925,1.375-77.633-33.217-79.699-73.113
				c-3.415-65.946,74.187-111.586,80.464-177.322c2.76-28.9-8.912-57.017-20.5-83.636s-23.582-54.512-21.508-83.469
				c2.074-28.957,23.404-58.797,52.423-59.65c35.939-1.056,62.643,40.064,98.589,39.245c21.919-0.499,40.253-16.803,53.424-34.331
				c13.171-17.528,23.696-37.532,40.648-51.437c16.952-13.905,43.508-19.749,60.341-5.7c19.551,16.318,17.36,51.074,39.35,63.919
				c10.844,6.335,24.427,5.137,36.412,8.897c40.042,12.567,45.028,73.625-4.091,68.774
				C5319.973,1041.864,5276.043,1043.723,5272.036,1103.246z"/>
			<path style="fill:#5167ED;" d="M5707.797,1727.012h-625.83c0,0-22.124-349.169,92.708-464
				c114.832-114.832,345.227-91.312,436.539,0c32.908,32.908,54.652,102.381,68.985,177.788
				C5705.643,1574.571,5707.797,1727.012,5707.797,1727.012z"/>
			<g>
				<path style="fill:#804745;" d="M5820.014,1217.518c0,0-12.755-37.835-9.438-58.742c3.318-20.907-4.37-77.283-12.084-100.395
					s-24.305-17.865-26.474-4.201c0,0-6.915-18.939-10.619-25.031c-6.711-11.039-26.754-9.79-23.351,7.384
					c3.403,17.174,6.277,21.132,6.277,21.132s-8.794-45.637-25.846-44.841c-13.927,0.65-12.529,27.37-5.575,44.232
					c0,0-3.079-30.255-18.721-30.986c-15.643-0.731-16.916,18.327-11.263,32.357c5.653,14.029,10.116,46.256,8.082,64.932
					c-1.278,11.732-23.918-47.892-43.026-43.337c-26.598,6.341,7.946,71.3,38.352,105.892
					c30.406,34.592,33.653,57.136,33.653,57.136L5820.014,1217.518z"/>
				<g>
					<path style="fill:#422524;" d="M5778.617,1115.897c-0.024,0-0.05,0-0.075-0.001c-1.495-0.041-2.675-1.286-2.634-2.782
						c0.357-13.105-3.142-43.07-7.347-56.939c-0.435-1.432,0.374-2.945,1.806-3.379c1.424-0.435,2.944,0.374,3.379,1.807
						c4.455,14.694,7.949,45.042,7.579,58.659C5781.285,1114.732,5780.08,1115.897,5778.617,1115.897z"/>
				</g>
				<g>
					<path style="fill:#422524;" d="M5747.258,1098.489c-0.145,0-0.29-0.012-0.438-0.036c-1.478-0.24-2.479-1.632-2.24-3.109
						c3.557-21.886-6.95-52.474-7.058-52.78c-0.491-1.413,0.256-2.958,1.669-3.45c1.416-0.492,2.958,0.256,3.449,1.668
						c0.455,1.303,11.067,32.179,7.289,55.431C5749.713,1097.544,5748.563,1098.489,5747.258,1098.489z"/>
				</g>
				<g>
					<path style="fill:#422524;" d="M5716.863,1098.394c-0.093,0-0.187-0.005-0.281-0.015c-1.488-0.154-2.571-1.485-2.417-2.974
						c3.017-29.224-8.654-52.16-8.774-52.388c-0.688-1.328-0.17-2.963,1.158-3.652c1.327-0.688,2.962-0.174,3.651,1.153
						c0.514,0.987,12.546,24.54,9.355,55.443C5719.412,1097.356,5718.236,1098.394,5716.863,1098.394z"/>
				</g>
			</g>
			<path style="fill:#5167ED;" d="M5929.928,1727.012h-239.77l-51.387-60.681c26.459-54.097,37.487-142.144,41.429-225.531
				c5.338-112.881-2.316-217.199-2.316-217.199l160.881-34.533C5913.589,1332.228,5927.638,1651.862,5929.928,1727.012z"/>
			<path style="fill:#5167ED;" d="M5150.21,1294.112c0,0-91.428,129.416-103.017,432.906h158.389L5150.21,1294.112z"/>
			<g>
				<path style="fill:#3847A3;" d="M5188.681,1698.783c-1.87,0-3.386-1.517-3.386-3.387v-160.804c0-1.87,1.517-3.387,3.386-3.387
					c1.87,0,3.387,1.517,3.387,3.387v160.804C5192.067,1697.267,5190.551,1698.783,5188.681,1698.783z"/>
			</g>
			<g>
				<path style="fill:#3847A3;" d="M5672.024,1585.498c-0.167,0-0.334-0.013-0.504-0.038c-1.85-0.275-3.126-1.999-2.85-3.85
					c10.212-68.438,8.167-139.992,8.145-140.707c-0.057-1.87,1.412-3.432,3.282-3.489c1.852-0.042,3.432,1.412,3.49,3.282
					c0.021,0.721,2.083,72.882-8.217,141.914C5675.118,1584.291,5673.673,1585.498,5672.024,1585.498z"/>
			</g>
			<path style="fill:#804745;" d="M5278.462,1201.735c0,0,37.452,32.498,115.565,32.498c78.112,0,102.249-33.774,102.249-33.774
				l-50.8-29.083c-7.999-4.579-12.934-13.091-12.934-22.307v-80.342l-86.921,61.81v19.892c0,8.555-4.247,16.551-11.348,21.322
				C5322.033,1179.975,5301.216,1192.794,5278.462,1201.735z"/>
			<path style="fill:#804745;" d="M5345.621,1130.537V971.539c0,0,85.088-25.03,112.741-5.278
				c27.653,19.752,33.115,68.54,32.127,90.268c-0.987,21.727,5.025,76.468-57.223,76.056l-0.725,33.05L5345.621,1130.537z"/>
			<path style="fill:#34213C;" d="M5338.982,1123.87c-15.402-8.858-31.746-0.32-31.707-18.087
				c0.053-24.529,17.707-76.643,13.996-100.889c-1.45-9.476-6.155-18.592-5.227-28.133c1.036-10.656,8.802-19.264,16.168-27.033
				c13.917-14.677,31.115-60.071,93.846-33.379c10.574,4.499,34.791-6.488,46.18-8.02c24.568-3.305,28.191,39.173,28.006,47.049
				c-0.365,15.542,13.357,25.133,7.125,39.376c-5.845,13.358-39.983,10.827-53.532,5.439c-13.549-5.389-26.43-14.691-40.991-13.918
				c-17.038,0.904-30.593,16.084-35.231,32.504s-2.31,33.899,0.052,50.797c1.858,13.297,1.329,42.972-8.545,52.627
				C5358.731,1132.362,5349.621,1130.111,5338.982,1123.87z"/>
			<g>
				<path style="fill:#804745;" d="M5361.284,1043.979c-0.881-10.57,2.136-21.422,8.346-30.021
					c2.833-3.922,6.887-7.636,11.724-7.547c3.231,0.059,6.188,1.832,8.676,3.894c9.953,8.245,14.727,22.272,11.87,34.877
					c-2.538,11.195-11.431,21.747-22.488,25.367C5367.693,1074.385,5361.982,1052.36,5361.284,1043.979z"/>
				<g>
					<path style="fill:#422524;" d="M5376.385,1060.329c-0.916,0-1.809-0.464-2.318-1.303c-3.886-6.397-5.532-14.011-4.634-21.441
						c0.898-7.43,4.309-14.433,9.605-19.719c1.058-1.058,2.774-1.056,3.833,0.003c1.056,1.059,1.055,2.774-0.004,3.832
						c-4.441,4.433-7.301,10.305-8.053,16.535c-0.753,6.229,0.627,12.613,3.885,17.977c0.777,1.279,0.37,2.946-0.909,3.723
						C5377.349,1060.202,5376.863,1060.329,5376.385,1060.329z"/>
				</g>
			</g>
			<ellipse style="fill:#34213C;" cx="5430.421" cy="1029.991" rx="6.667" ry="8.71"/>
			<ellipse style="fill:#34213C;" cx="5472.433" cy="1029.991" rx="6.667" ry="8.71"/>
			<path style="fill:#FFFFFF;" d="M5429.774,1092.1c0,0,17.528,7.75,40.623,5.74c0,0-7.529,12.327-22.741,11.466
				C5432.445,1108.445,5429.774,1092.1,5429.774,1092.1z"/>
			<g>
				<path style="fill:#422524;" d="M5450.134,1078.335c-2.429,0-4.784-0.963-6.301-2.807c-0.951-1.155-0.785-2.863,0.37-3.814
					c1.158-0.952,2.863-0.784,3.813,0.371c0.833,1.011,2.882,1.106,4.216,0.195c1.472-1.003,2.47-3.023,2.671-5.404
					c0.21-2.489-0.365-5.163-0.921-7.749l-4.273-19.855c-0.314-1.463,0.616-2.904,2.079-3.219c1.461-0.313,2.905,0.616,3.22,2.079
					l4.271,19.855c0.611,2.836,1.303,6.051,1.024,9.345c-0.342,4.049-2.171,7.485-5.019,9.426
					C5453.728,1077.82,5451.912,1078.335,5450.134,1078.335z"/>
			</g>
		</g>
		<g>
			<g>
				<path style="fill:#5167ED;" d="M4967.644,607.444c-0.383,0-0.772-0.041-1.162-0.126c-2.925-0.639-4.777-3.527-4.137-6.451
					c8.894-40.711,29.387-78.992,59.262-110.703c29.875-31.711,66.867-54.447,106.978-65.75c30.341-8.551,60.179-9.814,86.452-3.91
					c23.786-15.545,53.517-25.948,92.569-32.486c58.923-9.864,120.904-8.591,179.404,3.67c15.303-14.392,34.51-24.77,57.168-30.878
					c21.719-5.855,45.939-7.432,70.051-4.555c46.282,5.52,88.938,24.727,130.19,43.301c2.729,1.229,3.946,4.437,2.717,7.166
					c-1.229,2.73-4.442,3.944-7.166,2.717c-40.508-18.239-82.395-37.098-127.024-42.422c-43.749-5.216-84.959,5.044-112.841,27.635
					c21.404,5.269,46.014,13.735,65.531,30.264c20.121,17.039,36.759,47.693,28.575,77.769
					c-5.577,20.491-23.05,36.183-46.742,41.977c-27.079,6.623-55.473-0.91-72.341-19.185
					c-15.583-16.883-22.922-40.335-20.669-66.035c1.883-21.466,10.443-42.35,23.785-58.467
					c-55.258-10.746-113.436-11.544-168.85-2.267c-33.055,5.535-59.029,13.865-80.131,25.819c3.722,1.282,7.348,2.723,10.873,4.325
					c37.639,17.102,62.884,53.441,62.819,90.425c-0.036,20.445-9.263,41.639-24.681,56.696
					c-13.936,13.61-31.312,20.91-48.891,20.506c-36.631-0.805-69.462-35.254-71.69-75.227
					c-1.844-33.075,15.399-67.909,45.249-91.985c-22.074-3.273-46.516-1.439-71.418,5.579
					c-77.641,21.88-141.374,89.529-158.592,168.335C4972.379,605.715,4970.136,607.444,4967.644,607.444z M5217.137,432.165
					c-1.271,0.887-2.521,1.791-3.753,2.712c-29.4,21.976-46.593,54.842-44.868,85.771c1.925,34.545,29.909,64.309,61.106,64.994
					c14.639,0.325,29.244-5.867,41.081-17.424c13.377-13.065,21.384-31.367,21.415-48.961c0.058-32.801-22.634-65.167-56.464-80.539
					C5229.783,436.051,5223.592,433.866,5217.137,432.165z M5490.463,403.524c-27.325,28.793-37.069,82.423-7.369,114.602
					c14.235,15.424,38.491,21.708,61.801,16.008c20.101-4.916,34.265-17.416,38.858-34.295c6.933-25.476-7.622-51.833-25.121-66.652
					C5538.634,416.251,5512.159,408.375,5490.463,403.524z"/>
			</g>
			<g>
				<g>
					<path style="fill:#FEAB47;" d="M6772.838,711.718c-2.645,0-5.321-0.416-7.949-1.267l-64.82-20.973c0,0,0,0-0.001,0
						c-8.766-2.837-15.15-9.91-17.077-18.92c-1.927-9.011,1.006-18.076,7.846-24.25l50.573-45.65
						c6.841-6.173,16.161-8.165,24.924-5.33c8.768,2.836,15.153,9.909,17.079,18.92l14.247,66.623
						c1.927,9.011-1.007,18.076-7.847,24.25C6785.024,709.445,6779.018,711.718,6772.838,711.718z M6703.404,679.167l64.82,20.973
						c5.044,1.631,10.396,0.485,14.326-3.064c3.932-3.548,5.617-8.759,4.51-13.938l-14.246-66.623
						c-1.107-5.179-4.778-9.245-9.816-10.875c-5.036-1.63-10.393-0.486-14.327,3.064l-50.573,45.649
						c-3.931,3.548-5.617,8.759-4.51,13.938C6694.696,673.471,6698.366,677.536,6703.404,679.167L6703.404,679.167z"/>
				</g>
				<g>
					<path style="fill:#FEAB47;" d="M6439.059,808.352c-6.119,0-12.115-1.759-17.373-5.164c-7.191-4.658-12.14-11.838-13.931-20.217
						l-21.903-102.429c-1.792-8.379-0.214-16.955,4.443-24.146c4.658-7.192,11.838-12.14,20.218-13.931l178.882-38.252
						c17.298-3.699,34.377,7.365,38.076,24.661l21.904,102.429c1.791,8.379,0.213,16.954-4.444,24.146
						c-4.658,7.192-11.838,12.14-20.218,13.931l-178.881,38.252C6443.578,808.114,6441.31,808.352,6439.059,808.352z
						 M6596.107,614.339c-1.467,0-2.956,0.153-4.447,0.472l-178.882,38.252c-5.548,1.187-10.302,4.462-13.386,9.224
						c-3.084,4.762-4.129,10.44-2.942,15.988l21.903,102.429c1.186,5.548,4.462,10.302,9.224,13.386
						c4.761,3.083,10.436,4.129,15.987,2.943h0.001l178.881-38.253c5.548-1.187,10.302-4.462,13.386-9.224
						c3.084-4.762,4.129-10.44,2.943-15.988l-21.904-102.429C6614.742,621.179,6605.908,614.339,6596.107,614.339z"/>
				</g>
			</g>
			<circle style="fill:#FE5B5B;" cx="6027.16" cy="491.752" r="33.811"/>
		</g>
	</g>
	<path style="fill:#34213C;" d="M5415.063,1008.261c-2.494,0.269-5.07,2.124-5.064,4.632c0.006,2.526,2.623,4.37,5.136,4.621
		s4.985-0.608,7.462-1.104c3.501-0.701,7.146-0.678,10.639,0.068c2.135,0.456,4.706,1.06,6.228-0.505
		c1.936-1.992,0.336-4.923-1.716-6.006c-2.011-1.061-4.65-1.122-6.857-0.805c-2.27,0.326-4.398,0.733-6.717,0.479
		C5421.119,1009.308,5418.186,1007.925,5415.063,1008.261z"/>
	<path style="fill:#34213C;" d="M5460.292,1008.261c-2.494,0.269-5.07,2.124-5.064,4.632c0.006,2.526,2.623,4.37,5.136,4.621
		s4.985-0.608,7.462-1.104c3.501-0.701,7.146-0.678,10.639,0.068c2.135,0.456,4.706,1.06,6.228-0.505
		c1.937-1.992,0.336-4.923-1.716-6.006c-2.01-1.061-4.65-1.122-6.856-0.805c-2.27,0.326-4.398,0.733-6.717,0.479
		C5466.348,1009.308,5463.415,1007.925,5460.292,1008.261z"/>
</g>
<g>
	<path style="fill:#34213C;" d="M3380.795,959.921c-19.833-2.981-38.825-16.853-47.239-37.248
		c-8.414-20.396-4.654-46.763,10.478-61.009c-22.977-10.333-40.354-35.236-43.649-62.552c-3.295-27.317,7.628-55.919,27.438-71.846
		c-7.011-33.284-10.515-51.073,7.464-78.216c11.759-17.752,52.996-24.93,52.996-24.93s-2.532-37.114,24.756-56.826
		c13.647-9.858,52.422-10.589,63.643,2.977c8.302-19.139,25.743-32.817,44.768-35.109c19.025-2.292,39.034,6.873,51.361,23.527
		c6.366-18.472,24.513-30.752,42.268-28.603c17.755,2.149,33.579,18.542,36.857,38.182c16.725-9.804,39.065-6.328,53.135,8.267
		c14.07,14.595,18.854,39.254,11.377,58.65c19.479,9.196,34.759,29.118,39.875,51.986c5.115,22.869-0.062,48.114-13.51,65.879
		c22.979,16.719,33.909,51.673,25.09,80.237c-3.46,11.207-9.597,21.505-10.751,33.333c-2.011,20.628,11.477,42.287,4.438,61.391
		c-5.292,14.362-20.779,20.983-34.752,19.893c-13.974-1.09-27.011-8.142-40.025-14.148c-40.074-18.494-83.39-27.518-126.433-27.136
		c-37.069,0.329-93.162,4.07-122.767,31.261C3420.482,953.612,3404.731,963.518,3380.795,959.921z"/>
	<path style="fill:#FE9B54;" d="M3067.001,2018.247c0,0-262.919,5.05-302.417-187.579
		c-39.498-192.629,230.182-741.62,417.995-780.146c187.813-38.526,679.016-38.526,780.146,0
		c101.13,38.526,377.019,380.151,377.019,775.044c0,206.842-276.515,192.68-276.515,192.68H3067.001z"/>
	<circle style="fill:#5167ED;" cx="2695.663" cy="1305.418" r="44.591"/>
	<polygon style="fill:#5167ED;" points="3558.731,1126.343 3601.553,1371.249 3497.176,1358.861 3535.374,1126.343 	"/>
	<g>
		<g>
			<path style="fill:#271E45;" d="M4051.642,1270.674h-998.511c-24.065,0-43.573,19.509-43.573,43.574v596.45
				c0,24.065,19.509,43.574,43.573,43.574h998.511c24.065,0,43.573-19.509,43.573-43.574v-596.45
				C4095.216,1290.183,4075.707,1270.674,4051.642,1270.674z"/>
			
				<ellipse transform="matrix(0.1602 -0.9871 0.9871 0.1602 1391.7056 4860.6997)" style="fill:#FFFFFF;" cx="3552.386" cy="1612.473" rx="46.827" ry="46.827"/>
		</g>
		<path style="fill:#372A61;" d="M4063.228,2018.247H3041.545c-17.666,0-31.988-14.321-31.988-31.988l0,0
			c0-17.666,14.321-31.988,31.988-31.988h1021.683c17.666,0,31.988,14.321,31.988,31.988l0,0
			C4095.216,2003.926,4080.894,2018.247,4063.228,2018.247z"/>
	</g>
	<path style="fill:#F4B7B5;" d="M3642.393,894.787v127.579c0,0-22.693,65.948-95.461,65.948c-72.757,0-92.826-63.436-92.826-63.436
		V894.787H3642.393z"/>
	<path style="fill:#FFFFFF;" d="M3454.107,1024.464c0,0,49.521,47.562,94.408,58.997l-13.14,42.882
		C3513.539,1126.343,3457.995,1075.558,3454.107,1024.464z"/>
	<path style="fill:#FFFFFF;" d="M3642.393,1021.84c0,0-48.993,50.186-93.879,61.621l10.217,42.882
		C3580.567,1126.343,3638.505,1072.934,3642.393,1021.84z"/>
	<path style="fill:#CF7E7C;" d="M3642.393,894.787v92.067c-22.622,20.776-48.935,31.072-68.183,36.148
		c-17.802,4.696-36.507,4.696-54.329,0.051c-18.541-4.84-43.654-14.469-65.774-33.513v-94.753H3642.393z"/>
	<polygon style="fill:#3948A6;" points="3548.514,1083.461 3535.374,1126.343 3547.053,1140.637 3558.731,1126.343 	"/>
	<path style="fill:#F4B7B5;" d="M3546.609,607.429c-172.955-3.636-155.354,136.365-141.56,267.275
		c9.731,92.349,76.401,122.968,114.833,132.993c17.817,4.647,36.526,4.649,54.33-0.046
		c38.198-10.072,104.239-40.738,113.955-132.947C3701.963,743.794,3719.564,603.793,3546.609,607.429z"/>
	<path style="fill:#34213C;" d="M3448.096,679.373c23.815-14.655,40.951-11.123,66.713-0.25
		c19.235,8.119,35.896,24.542,56.771,24.915c14.785,0.265,28.333-7.753,42.744-11.068c27.374-6.298,58.072,6.38,73.025,30.158
		c2.315,3.682,7.347,6.442,9.043,23.255c0.436,4.327,6.315-7.769,10.359-9.371c6.247-2.476,7.088-10.827,6.917-17.545
		c-0.442-17.309-0.884-34.619-1.326-51.928c-0.403-15.759-1.031-32.328-9.19-45.816c-7.587-12.544-20.907-20.778-34.897-25.161
		c-13.99-4.383-28.789-5.328-43.421-6.244c-38.035-2.381-76.071-4.761-114.106-7.142c-15.264-0.956-30.936-1.865-45.526,2.721
		c-25.985,8.168-43.482,31.845-59.141,54.134c-14.124,20.104-28.717,41.433-31.022,65.894
		c-1.031,10.945,15.558,72.569,21.788,46.306c6.677-28.145,9.66-32.873,15.815-40.938
		C3423.241,697.405,3429.09,691.07,3448.096,679.373z"/>
	<g>
		<ellipse style="fill:#34213C;" cx="3488.47" cy="796.094" rx="17.231" ry="21.444"/>
		<path style="fill:#34213C;" d="M3451.027,739.911c-6.503,0.7-13.22,5.538-13.205,12.078c0.015,6.587,6.838,11.395,13.393,12.05
			c6.554,0.655,13-1.584,19.458-2.878c9.13-1.828,18.633-1.768,27.739,0.176c5.567,1.189,12.271,2.764,16.239-1.318
			c5.049-5.194,0.877-12.836-4.475-15.659c-5.243-2.766-12.125-2.926-17.879-2.1c-5.918,0.85-11.469,1.91-17.514,1.25
			C3466.816,742.64,3459.167,739.034,3451.027,739.911z"/>
	</g>
	<g>
		<ellipse style="fill:#34213C;" cx="3608.701" cy="796.094" rx="17.231" ry="21.444"/>
		<path style="fill:#34213C;" d="M3646.145,739.911c6.503,0.7,13.22,5.538,13.205,12.078c-0.015,6.587-6.839,11.395-13.393,12.05
			c-6.554,0.655-12.999-1.584-19.458-2.878c-9.13-1.828-18.634-1.768-27.739,0.176c-5.568,1.189-12.271,2.764-16.239-1.318
			c-5.048-5.194-0.877-12.836,4.475-15.659c5.243-2.766,12.125-2.926,17.879-2.1c5.918,0.85,11.469,1.91,17.514,1.25
			C3630.355,742.64,3638.005,739.034,3646.145,739.911z"/>
	</g>
	<g>
		<path style="fill:#CF7E7C;" d="M3545.579,884.638c-1.254,0-2.351-0.921-2.534-2.199c-0.201-1.402,0.771-2.701,2.173-2.902
			c6.95-0.999,11.507-8.443,12.267-14.941c0.851-7.277-1.536-14.727-4.274-22.356l-0.242-0.675
			c-2.721-7.574-5.534-15.405-5.156-23.715c0.168-3.695,0.969-7.259,1.744-10.706c0.34-1.514,0.692-3.08,0.976-4.604
			c1.073-5.761,0.854-10.024-0.688-13.415c-1.561-3.432-5.448-6.484-9.26-5.645c-1.382,0.303-2.75-0.571-3.054-1.954
			c-0.304-1.383,0.571-2.75,1.954-3.054c6.581-1.446,12.656,3.315,15.028,8.53c1.999,4.396,2.336,9.631,1.062,16.476
			c-0.301,1.618-0.664,3.23-1.015,4.789c-0.759,3.379-1.477,6.57-1.624,9.813c-0.332,7.298,2.307,14.645,4.859,21.75l0.243,0.677
			c2.952,8.225,5.521,16.302,4.541,24.683c-1.006,8.608-7.042,18.043-16.63,19.421C3545.823,884.63,3545.7,884.638,3545.579,884.638
			z"/>
	</g>
	<path style="fill:#FFFFFF;" d="M3550.129,922.343c0,0-32.491-1.444-52.951-16.717c0,0,9.933,40.45,52.951,40.45
		c43.017,0,52.95-40.45,52.95-40.45C3582.62,920.898,3550.129,922.343,3550.129,922.343z"/>
	<g>
		<path style="fill:#45C258;" d="M4381.351,1098.143h-325.087c-60.913,0-110.293-49.38-110.293-110.293v0
			c0-60.913,49.38-110.293,110.293-110.293h325.087c60.913,0,110.293,49.38,110.293,110.293v0
			C4491.644,1048.763,4442.264,1098.143,4381.351,1098.143z"/>
		<polygon style="fill:#45C258;" points="4073.455,1098.143 4073.455,1175.504 4170.034,1098.143 		"/>
		<g>
			<circle style="fill:#FFFFFF;" cx="4070.751" cy="987.85" r="54.599"/>
			<circle style="fill:#FFFFFF;" cx="4218.807" cy="987.85" r="54.599"/>
			<circle style="fill:#FFFFFF;" cx="4366.863" cy="987.85" r="54.599"/>
		</g>
	</g>
	<g>
		<path style="fill:#FE5B5B;" d="M2874.049,850.343h246.265c46.144,0,83.551-37.407,83.551-83.551v0
			c0-46.144-37.407-83.551-83.551-83.551h-246.265c-46.144,0-83.551,37.407-83.551,83.551v0
			C2790.499,812.936,2827.906,850.343,2874.049,850.343z"/>
		<polygon style="fill:#FE5B5B;" points="3107.291,850.343 3107.291,908.947 3034.129,850.343 		"/>
		<g>
			<circle style="fill:#FFFFFF;" cx="3109.339" cy="766.792" r="41.36"/>
			<circle style="fill:#FFFFFF;" cx="2997.182" cy="766.792" r="41.36"/>
			<circle style="fill:#FFFFFF;" cx="2885.024" cy="766.792" r="41.36"/>
		</g>
	</g>
	<g>
		<path style="fill:#FEAB47;" d="M4120.245,667.138c-14.543,0-28.99-6.5-40.406-18.368c-14.614-15.19-21.712-36.531-18.525-55.696
			c5.79-34.813,39.753-63.325,79.001-66.322c3.99-0.305,8.009-0.376,12.048-0.221c-35.101-65.472-107.117-109.698-181.737-109.698
			c-0.144,0-0.277,0.001-0.422,0.001c-3.577,0.008-7.647,0.133-12.056,0.462c17.283,24.045,24.435,52.117,18.545,76.952
			c-4.846,20.437-20.748,38.466-41.501,47.051c-17.251,7.135-35.224,6.238-49.31-2.465c-12.921-7.984-21.577-21.589-24.373-38.307
			c-3.361-20.098,2.308-42.06,14.793-57.314c16.526-20.191,39.849-29.666,60.802-33.942c-2.51-2.548-5.059-4.911-7.598-7.066
			c-31.691-26.892-75.177-39.451-116.322-33.599c-2.957,0.415-5.706-1.639-6.128-4.602c-0.421-2.963,1.639-5.707,4.603-6.128
			c44.167-6.28,90.844,7.201,124.859,36.066c4.908,4.165,9.433,8.602,13.552,13.253c7.518-0.891,14.394-1.185,20.11-1.197
			c0.146,0,0.297,0,0.443,0c80.931,0,158.944,49.412,194.563,121.789c25.233,3.935,50.67,16.508,73.585,36.673
			c26.743,23.534,46.423,53.366,65.456,82.215c1.649,2.499,0.959,5.86-1.539,7.508c-2.498,1.648-5.86,0.959-7.508-1.539
			c-18.641-28.255-37.917-57.472-63.57-80.047c-12.201-10.738-33.93-26.64-60.983-32.772c0.083,0.198,0.166,0.401,0.246,0.6
			c11.269,27.551,14.251,52.563,8.866,74.339c-6.798,27.488-28.757,48.869-53.4,51.993
			C4124.313,667.011,4122.278,667.138,4120.245,667.138z M4148.386,537.283c-2.391,0-4.803,0.089-7.246,0.275
			c-34.419,2.628-64.14,27.259-69.135,57.294c-2.636,15.852,3.358,33.633,15.645,46.403c10.614,11.033,24.22,16.406,37.328,14.746
			c20.301-2.574,38.495-20.603,44.242-43.842c4.822-19.5,2.004-42.255-8.376-67.635c-0.932-2.277-1.908-4.537-2.925-6.771
			C4154.796,537.446,4151.616,537.283,4148.386,537.283z M3945.527,418.751c-20.538,3.237-44.605,11.496-60.837,31.327
			c-10.564,12.908-15.351,31.554-12.489,48.661c2.272,13.592,9.155,24.557,19.38,30.875c11.25,6.95,25.267,7.544,39.469,1.67
			c17.326-7.167,31.104-22.687,35.1-39.537C3972.574,464.648,3961.097,438.203,3945.527,418.751z"/>
	</g>
	<g>
		<path style="fill:#5B3A69;" d="M3387.789,945.456c-6.029,0-12.192-1.703-17.56-5.128c-9.762-6.229-16.457-17.615-17.91-30.457
			c-1.208-10.684,1.08-22.546,6.616-34.303c0.797-1.692,2.815-2.418,4.507-1.622c1.692,0.797,2.418,2.815,1.622,4.507
			c-5.001,10.621-7.081,21.221-6.013,30.657c1.225,10.831,6.766,20.367,14.822,25.508c8.611,5.494,20.195,5.345,27.545-0.358
			c1.479-1.146,3.605-0.877,4.752,0.6c1.146,1.478,0.878,3.605-0.6,4.753C3400.559,943.501,3394.251,945.456,3387.789,945.456z"/>
	</g>
	<g>
		<path style="fill:#5B3A69;" d="M3354.394,832.663c-0.525,0-1.058-0.123-1.557-0.381c-13.472-6.989-23.475-20.616-26.105-35.563
			c-2.63-14.947,2.121-31.17,12.399-42.338c1.266-1.376,3.41-1.465,4.786-0.199c1.376,1.267,1.465,3.409,0.199,4.786
			c-8.879,9.649-12.984,23.664-10.711,36.578c2.272,12.914,10.914,24.687,22.553,30.725c1.661,0.861,2.308,2.906,1.447,4.566
			C3356.801,831.997,3355.618,832.663,3354.394,832.663z"/>
	</g>
	<g>
		<path style="fill:#5B3A69;" d="M3354.594,714.766c-1.366,0-2.653-0.832-3.167-2.185c-4.277-11.26-4.231-24.158,0.125-35.389
			c4.357-11.229,13.022-20.784,23.774-26.213c1.671-0.842,3.707-0.173,4.55,1.497c0.843,1.67,0.173,3.707-1.497,4.55
			c-9.277,4.684-16.754,12.928-20.513,22.617c-3.759,9.689-3.799,20.818-0.109,30.533c0.665,1.749-0.215,3.705-1.963,4.369
			C3355.4,714.695,3354.994,714.766,3354.594,714.766z"/>
	</g>
	<g>
		<path style="fill:#5B3A69;" d="M3516.591,663.221c-1.024,0-2.037-0.463-2.703-1.343c-8.787-11.607-22.707-19.077-37.236-19.983
			c-14.524-0.905-29.269,4.777-39.431,15.202c-1.305,1.339-3.449,1.368-4.79,0.061c-1.339-1.306-1.367-3.45-0.061-4.79
			c11.519-11.819,28.228-18.259,44.703-17.234c16.472,1.027,32.253,9.497,42.215,22.655c1.129,1.492,0.835,3.616-0.656,4.745
			C3518.021,662.997,3517.303,663.221,3516.591,663.221z"/>
	</g>
	<g>
		<path style="fill:#5B3A69;" d="M3626.207,649.715c-0.901,0-1.801-0.358-2.468-1.066c-14.475-15.379-38.453-21.101-58.315-13.907
			c-1.758,0.634-3.701-0.272-4.338-2.031c-0.637-1.759,0.272-3.701,2.031-4.338c22.324-8.084,49.281-1.656,65.556,15.634
			c1.281,1.362,1.217,3.505-0.146,4.788C3627.873,649.409,3627.039,649.714,3626.207,649.715z"/>
	</g>
	<g>
		<path style="fill:#5B3A69;" d="M3435.684,612.034c-1.017,0-2.023-0.456-2.689-1.326c-1.139-1.484-0.859-3.61,0.625-4.749
			c14.554-11.167,35.087-14.299,52.308-7.98c1.756,0.645,2.658,2.59,2.013,4.346c-0.644,1.756-2.59,2.657-4.346,2.013
			c-15.098-5.54-33.095-2.793-45.852,6.995C3437.128,611.805,3436.403,612.034,3435.684,612.034z"/>
	</g>
	<g>
		<path style="fill:#5B3A69;" d="M3633.874,580.144c-1.333,0-2.598-0.792-3.135-2.102c-2.676-6.524-6.509-11.895-11.085-15.529
			c-5.121-4.067-11.342-6.049-17.079-5.428c-6.091,0.656-11.485,4.371-13.742,9.465c-0.758,1.71-2.756,2.483-4.469,1.725
			c-1.71-0.758-2.482-2.758-1.725-4.469c3.219-7.264,10.759-12.546,19.211-13.456c7.484-0.805,15.512,1.694,22.017,6.859
			c5.481,4.354,10.025,10.669,13.14,18.263c0.71,1.731-0.118,3.709-1.849,4.419C3634.738,580.062,3634.303,580.144,3633.874,580.144
			z"/>
	</g>
	<g>
		<path style="fill:#5B3A69;" d="M3728.243,723.551c-0.369,0-0.745-0.061-1.114-0.19c-1.767-0.615-2.699-2.546-2.084-4.313
			c4.099-11.767,2.533-25.635-4.086-36.191c-6.62-10.557-18.421-18.005-30.799-19.44c-1.858-0.215-3.19-1.896-2.975-3.754
			s1.903-3.191,3.754-2.975c14.589,1.69,27.956,10.128,35.758,22.57c7.802,12.442,9.575,28.149,4.744,42.018
			C3730.955,722.675,3729.645,723.551,3728.243,723.551z"/>
	</g>
	<g>
		<path style="fill:#5B3A69;" d="M3730.559,842.444c-0.903,0-1.804-0.359-2.471-1.069c-1.28-1.364-1.212-3.507,0.151-4.787
			c6.469-6.073,10.364-14.995,10.42-23.867c0.057-8.872-3.727-17.842-10.118-23.996c-1.348-1.297-1.389-3.441-0.092-4.789
			c1.299-1.348,3.444-1.388,4.789-0.091c7.704,7.416,12.263,18.227,12.194,28.919c-0.066,10.692-4.761,21.444-12.557,28.763
			C3732.222,842.14,3731.39,842.444,3730.559,842.444z"/>
	</g>
	<g>
		<path style="fill:#5B3A69;" d="M3730.405,928.924c-5.791,0-11.659-2.778-17.265-5.974c-1.625-0.927-2.191-2.995-1.265-4.62
			c0.927-1.626,2.995-2.191,4.62-1.265c6.207,3.54,12.655,6.511,17.767,4.31c5.1-2.197,6.935-8.956,6.072-14.2
			c-1.041-6.327-5.112-12.214-8.704-17.407c-1.064-1.539-0.68-3.648,0.858-4.712c1.539-1.063,3.648-0.679,4.712,0.859
			c3.999,5.781,8.53,12.333,9.817,20.162c1.312,7.972-1.729,17.924-10.076,21.52
			C3734.787,928.524,3732.601,928.924,3730.405,928.924z"/>
	</g>
	<g>
		<path style="fill:#ED7B28;" d="M4255.312,1867.288c-1.193,0-2.375-0.523-3.178-1.527c-34.262-42.87-87.438-70.108-142.25-72.862
			c-2.242-0.113-3.968-2.021-3.855-4.264c0.112-2.241,1.993-3.955,4.264-3.855c57.101,2.869,112.499,31.246,148.191,75.907
			c1.401,1.753,1.116,4.311-0.638,5.712C4257.097,1866.997,4256.201,1867.288,4255.312,1867.288z"/>
	</g>
	<g>
		<path style="fill:#ED7B28;" d="M2841.582,1847.75c-0.872,0-1.75-0.279-2.491-0.855c-1.772-1.377-2.092-3.931-0.715-5.703
			c36.713-47.24,96.511-76.446,156.338-76.446c0.471,0,0.935,0.002,1.406,0.005c2.245,0.018,4.05,1.851,4.033,4.096
			c-0.017,2.244-1.839,4.045-4.096,4.033c-0.448-0.004-0.9-0.005-1.348-0.005c-57.373,0-114.708,28.003-149.916,73.306
			C2843.993,1847.21,2842.794,1847.75,2841.582,1847.75z"/>
	</g>
</g>
<g>
	<g>
		<g>
			<path style="fill:#FEAB47;" d="M2084.288,601.146c-2.646,0-5.322-0.416-7.95-1.267l-64.82-20.974
				c-8.767-2.836-15.152-9.909-17.079-18.92c-1.927-9.011,1.006-18.076,7.847-24.25l50.574-45.649
				c6.839-6.174,16.156-8.169,24.925-5.33c8.767,2.836,15.151,9.91,17.078,18.92l14.247,66.623
				c1.927,9.011-1.006,18.076-7.846,24.25C2096.473,598.873,2090.468,601.146,2084.288,601.146z M2069.879,494.341
				c-3.552,0-7.003,1.306-9.757,3.792l-50.574,45.649c-3.931,3.548-5.617,8.759-4.51,13.938c1.107,5.179,4.777,9.245,9.816,10.875
				c0,0,0,0,0,0l64.82,20.974c5.039,1.63,10.394,0.485,14.326-3.064c3.931-3.548,5.617-8.759,4.51-13.938l-14.247-66.623
				c-1.107-5.179-4.777-9.245-9.816-10.875C2072.938,494.58,2071.399,494.341,2069.879,494.341z"/>
		</g>
		<g>
			<path style="fill:#FEAB47;" d="M1750.509,697.78c-6.12,0-12.117-1.759-17.375-5.165c-7.192-4.658-12.139-11.838-13.931-20.217
				l-21.903-102.428c-1.792-8.379-0.214-16.954,4.444-24.147c4.658-7.192,11.838-12.139,20.217-13.931l178.881-38.252
				c8.379-1.792,16.955-0.213,24.146,4.444c7.192,4.658,12.14,11.838,13.931,20.217l21.903,102.428
				c1.792,8.379,0.213,16.955-4.444,24.146c-4.658,7.192-11.838,12.14-20.217,13.931l-178.882,38.252l0,0
				C1755.028,697.542,1752.76,697.78,1750.509,697.78z M1756.148,691.761h0.01H1756.148z M1907.594,503.763
				c-1.491,0-2.992,0.157-4.484,0.477l-178.881,38.252c-5.548,1.186-10.302,4.462-13.386,9.225
				c-3.085,4.762-4.13,10.44-2.943,15.988l21.903,102.428c1.187,5.548,4.462,10.302,9.224,13.387
				c4.761,3.083,10.44,4.127,15.988,2.943l178.882-38.252c5.548-1.187,10.302-4.462,13.386-9.224
				c3.084-4.762,4.129-10.44,2.943-15.988l-21.903-102.428c-1.187-5.548-4.462-10.302-9.224-13.386
				C1915.617,504.928,1911.646,503.763,1907.594,503.763z"/>
		</g>
	</g>
	<g>
		<g>
			<path style="fill:#FEAB47;" d="M1186.892,1529.489c-2.645,0-5.322-0.417-7.95-1.267l-64.82-20.974
				c-8.767-2.837-15.151-9.91-17.078-18.921c-1.927-9.01,1.006-18.075,7.847-24.249l50.574-45.649
				c6.84-6.176,16.158-8.167,24.925-5.33s15.151,9.91,17.078,18.921l14.247,66.622c1.927,9.01-1.006,18.075-7.846,24.25
				C1199.077,1527.215,1193.072,1529.488,1186.892,1529.489z M1172.483,1422.683c-3.552,0-7.003,1.306-9.757,3.791l-50.574,45.649
				c-3.931,3.549-5.617,8.759-4.51,13.938c1.107,5.179,4.777,9.244,9.816,10.874l0,0l64.82,20.974
				c5.039,1.635,10.395,0.485,14.326-3.063c3.932-3.549,5.617-8.759,4.51-13.938l-14.247-66.623
				c-1.107-5.179-4.777-9.244-9.815-10.875C1175.542,1422.922,1174.003,1422.683,1172.483,1422.683z"/>
		</g>
		<g>
			<path style="fill:#FEAB47;" d="M853.17,1626.115c-14.804,0-28.145-10.328-31.362-25.375l-21.903-102.429
				c-1.792-8.378-0.213-16.953,4.444-24.146c4.658-7.191,11.838-12.14,20.217-13.931l178.882-38.253
				c8.38-1.79,16.955-0.213,24.146,4.444c7.192,4.658,12.14,11.838,13.931,20.218l21.904,102.428
				c3.698,17.297-7.365,34.379-24.661,38.078l-178.881,38.252C857.635,1625.883,855.385,1626.115,853.17,1626.115z
				 M1010.198,1432.105c-1.491,0-2.992,0.158-4.484,0.476l-178.882,38.253c-5.548,1.185-10.302,4.462-13.386,9.224
				c-3.084,4.763-4.129,10.44-2.943,15.987l21.903,102.43c1.187,5.548,4.462,10.302,9.224,13.386
				c4.763,3.085,10.442,4.129,15.988,2.942l178.881-38.252c11.453-2.449,18.778-13.76,16.33-25.213l-21.904-102.428
				c-1.187-5.548-4.462-10.302-9.224-13.386C1018.221,1433.27,1014.25,1432.105,1010.198,1432.105z"/>
		</g>
	</g>
	
		<ellipse transform="matrix(0.2298 -0.9732 0.9732 0.2298 -935.5871 1369.2581)" style="fill:#5167ED;" cx="397.272" cy="1275.711" rx="55.558" ry="55.558"/>
	<g>
		<path style="fill:#45C258;" d="M921.435,812.975h325.087c60.913,0,110.293-49.38,110.293-110.293v0
			c0-60.913-49.38-110.293-110.293-110.293H921.435c-60.913,0-110.293,49.38-110.293,110.293v0
			C811.142,763.595,860.522,812.975,921.435,812.975z"/>
		<polygon style="fill:#45C258;" points="1229.33,812.975 1229.33,890.336 1132.752,812.975 		"/>
		<g>
			<circle style="fill:#FFFFFF;" cx="1232.034" cy="702.682" r="54.599"/>
			<circle style="fill:#FFFFFF;" cx="1083.978" cy="702.682" r="54.599"/>
			<circle style="fill:#FFFFFF;" cx="935.922" cy="702.682" r="54.599"/>
		</g>
	</g>
	<g>
		<path style="fill:#222B63;" d="M1965.311,1912.791H348.167c-29.178,0-52.831,23.653-52.831,52.831l0,0
			c0,29.178,23.653,52.831,52.831,52.831h1617.144c29.178,0,52.831-23.653,52.831-52.831l0,0
			C2018.142,1936.444,1994.489,1912.791,1965.311,1912.791z"/>
		<path style="fill:#2C3982;" d="M2142.761,1048.854H931.387c-33.099,0-65.663,26.832-72.733,59.931L699.708,1852.86
			c-7.07,33.099,14.03,59.931,47.129,59.931h1211.374c33.099,0,65.663-26.832,72.733-59.931l158.946-744.076
			C2196.961,1075.686,2175.86,1048.854,2142.761,1048.854z"/>
		<path style="fill:#FFFFFF;" d="M782.921,1850.471c-9.769,0-17.052-9.004-15.012-18.557l151.69-710.111
			c1.029-4.817,8.465-10.496,11.811-10.629h1175.266c9.769,0,17.052,9.004,15.012,18.557l-151.689,710.111
			c-1.028,4.814-8.457,10.489-11.804,10.629h0.016H782.921z"/>
		<g>
			<path style="fill:#FE5B5B;" d="M1096.296,1850.463h804.641c0,0,28.445-448.933-119.196-596.574
				c-147.641-147.641-443.864-117.402-561.266,0c-42.31,42.31-70.267,131.634-88.696,228.586
				C1099.065,1654.467,1096.296,1850.463,1096.296,1850.463z"/>
			<g>
				<path style="fill:#F4B7B5;" d="M952.017,1195.396c0,0,16.4-48.645,12.134-75.526s5.619-99.364,15.537-129.079
					c9.918-29.715,31.25-22.969,34.037-5.401c0,0,8.891-24.35,13.653-32.183c8.629-14.194,34.398-12.588,30.023,9.494
					c-4.375,22.081-8.07,27.17-8.07,27.17s11.306-58.676,33.231-57.653c17.906,0.836,16.109,35.19,7.168,56.87
					c0,0,3.958-38.9,24.07-39.84c20.112-0.94,21.749,23.564,14.481,41.602c-7.268,18.038-13.006,59.473-10.39,83.484
					c1.643,15.084,30.751-61.576,55.319-55.719c34.197,8.152-10.217,91.672-49.31,136.147
					c-39.093,44.475-43.268,73.461-43.268,73.461L952.017,1195.396z"/>
				<g>
					<path style="fill:#CF7E7C;" d="M1005.241,1064.645c-1.828,0-3.333-1.456-3.384-3.295c-0.477-17.5,4.013-56.504,9.739-75.389
						c0.543-1.789,2.438-2.801,4.224-2.258c1.79,0.543,2.801,2.434,2.258,4.224c-5.409,17.839-9.909,56.382-9.45,73.238
						c0.051,1.87-1.424,3.427-3.293,3.478C1005.304,1064.644,1005.272,1064.645,1005.241,1064.645z"/>
				</g>
				<g>
					<path style="fill:#CF7E7C;" d="M1045.56,1042.262c-1.632,0-3.069-1.182-3.339-2.845c-4.854-29.872,8.784-69.546,9.367-71.221
						c0.615-1.767,2.548-2.699,4.311-2.085c1.767,0.615,2.7,2.545,2.086,4.311c-0.137,0.395-13.654,39.744-9.078,67.908
						c0.3,1.846-0.954,3.586-2.8,3.886C1045.924,1042.248,1045.74,1042.262,1045.56,1042.262z"/>
				</g>
				<g>
					<path style="fill:#CF7E7C;" d="M1084.639,1042.139c-1.715,0-3.185-1.297-3.365-3.04c-4.099-39.705,11.358-69.961,12.017-71.229
						c0.863-1.66,2.907-2.307,4.568-1.442c1.66,0.863,2.305,2.909,1.442,4.568c-0.221,0.428-15.162,29.891-11.289,67.408
						c0.192,1.86-1.161,3.524-3.022,3.717C1084.873,1042.134,1084.756,1042.139,1084.639,1042.139z"/>
				</g>
			</g>
			<path style="fill:#FE5B5B;" d="M810.698,1850.463h308.277l66.069-78.019c-34.019-69.553-48.198-182.757-53.266-289.969
				c-6.863-145.133,2.979-279.257,2.979-279.257l-206.847-44.4C831.705,1342.881,813.642,1753.841,810.698,1850.463z"/>
			<path style="fill:#FE5B5B;" d="M1813.196,1293.875c0,0,117.551,166.392,132.451,556.596h-203.644L1813.196,1293.875z"/>
			<g>
				<path style="fill:#BF4545;" d="M1763.734,1813.879c-2.245,0-4.064-1.819-4.064-4.064v-206.749c0-2.245,1.82-4.064,4.064-4.064
					c2.245,0,4.065,1.819,4.065,4.064v206.749C1767.798,1812.06,1765.978,1813.879,1763.734,1813.879z"/>
			</g>
			<g>
				<path style="fill:#BF4545;" d="M1142.29,1668.225c-1.979,0-3.714-1.448-4.015-3.465c-13.238-88.73-10.588-181.482-10.56-182.409
					c0.069-2.243,1.938-3.988,4.187-3.939c2.244,0.068,4.007,1.943,3.938,4.187c-0.028,0.92-2.654,92.972,10.475,180.962
					c0.331,2.22-1.2,4.288-3.42,4.619C1142.692,1668.21,1142.49,1668.225,1142.29,1668.225z"/>
			</g>
			<path style="fill:#F4B7B5;" d="M1648.3,1175.104c0,0-48.153,41.784-148.584,41.784s-131.464-43.424-131.464-43.424l65.315-37.392
				c10.284-5.888,16.629-16.831,16.629-28.681v-103.298l111.756,79.471v25.576c0,10.999,5.46,21.28,14.59,27.415
				C1592.281,1147.128,1619.045,1163.608,1648.3,1175.104z"/>
			<path style="fill:#F4B7B5;" d="M1561.953,1083.564V879.137c0,0-109.399-32.182-144.953-6.786
				c-35.554,25.396-42.577,88.123-41.307,116.059c1.27,27.935-6.461,98.316,73.573,97.786l0.931,42.493L1561.953,1083.564z"/>
			<path style="fill:#34213C;" d="M1570.488,1074.992c19.802-11.389,40.816-0.411,40.766-23.255
				c-0.068-31.537-22.766-98.541-17.995-129.715c1.865-12.183,7.914-23.904,6.721-36.172c-1.333-13.701-11.317-24.767-20.788-34.757
				c-17.894-18.871-40.005-77.234-120.66-42.916c-13.596,5.785-44.731-8.342-59.374-10.311
				c-31.588-4.249-36.245,50.366-36.008,60.492c0.469,19.983-17.174,32.314-9.161,50.626c7.516,17.175,51.407,13.921,68.828,6.993
				c17.42-6.928,33.981-18.889,52.702-17.895c21.906,1.163,39.335,20.68,45.297,41.791c5.963,21.111,2.97,43.585-0.067,65.31
				c-2.39,17.096-1.709,55.25,10.987,67.664C1545.096,1085.91,1556.81,1083.016,1570.488,1074.992z"/>
			<g>
				<path style="fill:#F4B7B5;" d="M1541.815,972.275c1.133-13.591-2.746-27.543-10.73-38.599
					c-3.642-5.043-8.855-9.817-15.074-9.704c-4.155,0.076-7.955,2.356-11.155,5.007c-12.797,10.601-18.935,28.636-15.261,44.842
					c3.263,14.393,14.697,27.96,28.914,32.615C1533.574,1011.367,1540.917,983.051,1541.815,972.275z"/>
				<g>
					<path style="fill:#CF7E7C;" d="M1522.399,993.199c-0.599,0-1.206-0.159-1.755-0.493c-1.599-0.971-2.107-3.055-1.136-4.653
						c4.201-6.913,5.979-15.143,5.01-23.174c-0.97-8.031-4.657-15.602-10.382-21.316c-1.324-1.321-1.326-3.466-0.004-4.79
						c1.321-1.325,3.466-1.326,4.789-0.004c6.795,6.782,11.171,15.766,12.322,25.297c1.151,9.531-0.96,19.299-5.945,27.504
						C1524.659,992.619,1523.543,993.199,1522.399,993.199z"/>
				</g>
			</g>
			<ellipse style="fill:#34213C;" cx="1452.924" cy="954.29" rx="8.572" ry="11.199"/>
			<ellipse style="fill:#34213C;" cx="1398.909" cy="954.29" rx="8.572" ry="11.199"/>
			<path style="fill:#FFFFFF;" d="M1453.755,1034.145c0,0-22.536,9.964-52.23,7.381c0,0,9.68,15.849,29.238,14.742
				C1450.322,1055.16,1453.755,1034.145,1453.755,1034.145z"/>
			<g>
				<path style="fill:#CF7E7C;" d="M1427.579,1016.349c-2.266,0-4.582-0.657-6.569-2.012c-3.637-2.479-5.973-6.87-6.41-12.047
					c-0.356-4.221,0.531-8.346,1.315-11.986l5.494-25.529c0.393-1.829,2.197-2.993,4.024-2.598c1.829,0.394,2.992,2.195,2.598,4.024
					l-5.494,25.528c-0.716,3.331-1.458,6.777-1.187,9.992c0.261,3.09,1.56,5.714,3.475,7.019c1.786,1.218,4.432,1.089,5.55-0.269
					c1.189-1.444,3.324-1.651,4.768-0.463c1.444,1.189,1.651,3.324,0.463,4.768
					C1433.673,1015.124,1430.673,1016.349,1427.579,1016.349z"/>
			</g>
		</g>
		<path style="fill:#34213C;" d="M1375.659,922.081c-3.647,0.393-7.415,3.106-7.406,6.774c0.009,3.694,3.835,6.391,7.512,6.758
			c3.676,0.367,7.291-0.889,10.913-1.614c5.121-1.026,10.451-0.992,15.558,0.099c3.123,0.667,6.882,1.55,9.108-0.739
			c2.831-2.913,0.492-7.199-2.51-8.783c-2.94-1.551-6.801-1.641-10.028-1.178c-3.319,0.477-6.432,1.071-9.823,0.701
			C1384.515,923.611,1380.224,921.589,1375.659,922.081z"/>
		<path style="fill:#34213C;" d="M1441.803,922.081c-3.647,0.393-7.415,3.106-7.406,6.774c0.009,3.694,3.835,6.391,7.512,6.758
			c3.676,0.367,7.291-0.889,10.913-1.614c5.121-1.026,10.451-0.992,15.558,0.099c3.123,0.667,6.882,1.55,9.108-0.739
			c2.832-2.913,0.492-7.199-2.51-8.783c-2.94-1.551-6.801-1.641-10.028-1.178c-3.319,0.477-6.432,1.071-9.823,0.701
			C1450.659,923.611,1446.369,921.589,1441.803,922.081z"/>
		<g>
			<path style="fill:#5B3A69;" d="M1387.063,902.41c-1.403,0-2.824-0.098-4.246-0.342c-5.587-0.959-10.093-4.158-12.053-8.557
				c-2.163-4.855-0.924-10.105-0.02-13.938l2.992-12.688c0.429-1.82,2.253-2.95,4.074-2.519c1.82,0.429,2.949,2.253,2.519,4.074
				l-2.992,12.688c-0.885,3.753-1.525,7.068-0.385,9.627c1.222,2.742,4.423,4.193,7.012,4.638c3.456,0.593,7.241-0.005,10.901-0.586
				c1.845-0.292,3.583,0.967,3.875,2.815c0.293,1.847-0.968,3.583-2.816,3.875C1393.168,901.934,1390.158,902.41,1387.063,902.41z"
				/>
		</g>
		<g>
			<path style="fill:#5B3A69;" d="M1572.718,1056.296c-1.84,0-3.349-1.474-3.385-3.321c-0.036-1.87,1.45-3.416,3.32-3.452
				c7.121-0.139,14.058-4.506,17.26-10.869c3.202-6.363,2.577-14.536-1.555-20.338c-1.085-1.523-0.729-3.639,0.794-4.724
				c1.523-1.086,3.639-0.729,4.724,0.794c5.549,7.792,6.389,18.768,2.088,27.313c-4.301,8.545-13.616,14.411-23.179,14.597
				C1572.762,1056.296,1572.74,1056.296,1572.718,1056.296z"/>
		</g>
		<g>
			<path style="fill:#5B3A69;" d="M1575.603,909.11c-0.492,0-0.992-0.107-1.465-0.335c-1.686-0.811-2.396-2.834-1.585-4.52
				c2.244-4.668,4.564-9.495,5.397-14.469c0.854-5.104-0.1-9.813-2.618-12.92c-2.311-2.852-7.039-4.61-10.391-2.684
				c-1.621,0.933-3.692,0.373-4.624-1.249c-0.932-1.622-0.373-3.692,1.249-4.624c5.95-3.419,14.309-1.533,19.028,4.292
				c3.739,4.615,5.21,11.286,4.036,18.303c-0.991,5.923-3.523,11.191-5.972,16.286
				C1578.075,908.403,1576.865,909.11,1575.603,909.11z"/>
		</g>
		<g>
			<path style="fill:#5B3A69;" d="M1537.08,830.276c-0.913,0-1.823-0.367-2.491-1.091c-10.952-11.874-30.145-15.461-44.645-8.344
				c-1.678,0.824-3.709,0.131-4.533-1.548c-0.824-1.679-0.131-3.708,1.548-4.533c17.086-8.386,39.704-4.159,52.609,9.832
				c1.268,1.375,1.182,3.518-0.193,4.786C1538.724,829.979,1537.901,830.275,1537.08,830.276z"/>
		</g>
		<g>
			<path style="fill:#5B3A69;" d="M1425.439,864.344c-0.889,0-1.775-0.348-2.44-1.038c-1.297-1.347-1.257-3.492,0.091-4.789
				c9.5-9.147,21.338-15.436,34.236-18.188c1.825-0.388,3.628,0.776,4.019,2.606c0.39,1.829-0.776,3.628-2.606,4.019
				c-11.493,2.452-22.485,8.291-30.951,16.443C1427.131,864.029,1426.284,864.344,1425.439,864.344z"/>
		</g>
		<g>
			<path style="fill:#5B3A69;" d="M1531.694,916.576c-0.453,0-0.913-0.091-1.355-0.284c-12.213-5.34-21.089-17.347-22.611-30.59
				c-0.214-1.858,1.12-3.538,2.978-3.751c1.852-0.214,3.538,1.119,3.751,2.978c1.252,10.891,8.551,20.765,18.596,25.156
				c1.714,0.75,2.496,2.746,1.746,4.461C1534.243,915.818,1532.999,916.576,1531.694,916.576z"/>
		</g>
		<g>
			<path style="fill:#5B3A69;" d="M1542.441,1034.587c-1.171,0-2.311-0.608-2.938-1.696c-0.934-1.621-0.377-3.692,1.243-4.626
				c12.877-7.421,21.064-22.383,20.373-37.229c-0.087-1.869,1.357-3.454,3.226-3.541c1.876-0.094,3.454,1.357,3.541,3.226
				c0.806,17.313-8.741,34.759-23.756,43.414C1543.596,1034.441,1543.014,1034.587,1542.441,1034.587z"/>
		</g>
		<g>
			<path style="fill:#5B3A69;" d="M1575.115,958.129c-0.328,0-0.662-0.048-0.992-0.149c-1.789-0.547-2.795-2.441-2.248-4.23
				c2.713-8.863,0.105-19.193-6.489-25.707c-1.331-1.314-1.344-3.459-0.029-4.79c1.314-1.331,3.459-1.344,4.79-0.029
				c8.338,8.237,11.636,21.301,8.206,32.509C1577.906,957.191,1576.564,958.129,1575.115,958.129z"/>
		</g>
		<g>
			<path style="fill:#5B3A69;" d="M1384.792,828.779c-0.952,0-1.899-0.399-2.569-1.178c-1.467-1.706-2.144-3.854-1.955-6.214
				c0.26-3.247,2.226-6.785,5.131-9.235c5.995-5.055,14.452-7.046,22.072-5.193c1.817,0.441,2.933,2.273,2.491,4.091
				c-0.441,1.818-2.272,2.934-4.091,2.491c-5.56-1.35-11.732,0.101-16.106,3.789c-1.501,1.266-2.63,3.156-2.746,4.597
				c-0.056,0.7,0.151,1.038,0.337,1.254c1.22,1.418,1.06,3.557-0.358,4.777C1386.36,828.509,1385.574,828.779,1384.792,828.779z"/>
		</g>
		<g>
			<path style="fill:#5B3A69;" d="M1519.317,864.365c-1.633,0-3.071-1.184-3.34-2.849c-0.494-3.063-2.659-5.941-5.791-7.701
				c-3.133-1.76-6.718-2.111-9.589-0.939c-1.731,0.706-3.708-0.125-4.415-1.857c-0.707-1.732,0.125-3.708,1.857-4.415
				c4.837-1.974,10.475-1.498,15.465,1.306c4.99,2.803,8.328,7.37,9.16,12.528c0.298,1.847-0.958,3.585-2.805,3.883
				C1519.677,864.35,1519.495,864.364,1519.317,864.365z"/>
		</g>
	</g>
	<g>
		<path style="fill:#FE5B5B;" d="M302.379,895.992c-2.374,0-4.552-1.571-5.218-3.969c-13.605-48.958-8.051-103.102,15.639-152.46
			c18.404-38.344,45.906-69.955,79.162-91.535c0.118-2.054,0.281-4.106,0.488-6.15c4.768-46.997,28.792-93.728,73.446-142.864
			c13.697-15.072,26.902-27.641,39.956-37.957c-2.19-12.886-2.262-25.676-0.08-37.919c3.362-18.869,12.954-36.772,27.008-50.413
			c14.734-14.3,33.04-22.389,51.546-22.775c2.993-0.09,5.469,2.313,5.531,5.305c0.063,2.992-2.313,5.469-5.305,5.531
			c-31.891,0.666-61.809,28.89-68.111,64.254c-1.648,9.252-1.864,18.871-0.717,28.624c13.911-9.839,27.751-17.173,41.934-22.31
			c18.84-6.823,38.94-9.374,58.133-7.371c20.713,2.16,39.34,9.63,53.868,21.605c16.444,13.555,27.42,34.869,29.362,57.016
			c1.701,19.41-3.642,37.456-15.044,50.815c-17.643,20.67-49.389,29.63-79,22.294c-31.225-7.736-54.068-29.876-67.733-47.088
			c-13.886-17.49-23.632-36.565-28.792-55.734c-11.249,9.29-22.681,20.37-34.534,33.412c-42.439,46.699-65.512,90.82-70.484,134.809
			c6.02-3.362,12.205-6.409,18.534-9.12c35.501-15.209,71.405-18.375,101.096-8.917c35.977,11.461,62.45,42.938,64.376,76.545
			c1.397,24.37-10.653,47.799-33.06,64.28c-25.816,18.988-60.177,24.608-87.54,14.317c-24.995-9.4-45.432-28.454-59.103-55.101
			c-9.746-18.996-15.207-40.458-15.927-61.96c-70.526,49.381-107.538,143.999-84.204,227.966c0.801,2.884-0.887,5.871-3.77,6.672
			C303.347,895.927,302.859,895.992,302.379,895.992z M402.615,654.105c-0.495,44.521,21.832,96.589,68.038,113.966
			c24.02,9.035,54.363,3.969,77.302-12.903c19.398-14.268,29.845-34.288,28.662-54.929c-1.675-29.224-25.051-56.709-56.846-66.838
			c-27.212-8.67-60.43-5.631-93.538,8.553C418.042,645.462,410.161,649.532,402.615,654.105z M517.782,465.56
			c4.383,19.236,13.879,38.604,27.948,56.324c12.617,15.892,33.59,36.305,61.852,43.307c25.721,6.372,53.108-1.187,68.151-18.81
			c9.5-11.13,13.936-26.342,12.49-42.832c-1.692-19.313-11.21-37.854-25.458-49.599c-25.159-20.738-64.967-25.608-101.417-12.407
			C546.674,446.857,532.328,454.732,517.782,465.56z"/>
	</g>
</g>
</svg>
